<svg width="24" height="24" viewBox="0 0 24 24" fill="none" xmlns="http://www.w3.org/2000/svg">
<path opacity="0.4" fill-rule="evenodd" clip-rule="evenodd" d="M17.3 12.275C19.58 12.275 21.5 10.355 21.5 8.075C21.5 5.795 19.58 3.875 17.3 3.875H6.7C4.42 3.875 2.5 5.795 2.5 8.075C2.5 10.355 4.42 12.275 6.7 12.275H11.25H12.75H17.3Z" fill="black"/>
<path fill-rule="evenodd" clip-rule="evenodd" d="M13.1 7.3252C12.69 7.3252 12.35 7.6652 12.35 8.0752C12.35 8.4852 12.69 8.8252 13.1 8.8252H16.7C17.11 8.8252 17.45 8.4852 17.45 8.0752C17.45 7.6652 17.11 7.3252 16.7 7.3252H13.1ZM7.40002 8.8252H7.90002C8.31002 8.8252 8.65002 8.4852 8.65002 8.0752C8.65002 7.6652 8.31002 7.3252 7.90002 7.3252H7.40002C6.99002 7.3252 6.65002 7.6652 6.65002 8.0752C6.65002 8.4852 6.99002 8.8252 7.40002 8.8252Z" fill="black"/>
<path fill-rule="evenodd" clip-rule="evenodd" d="M11.25 12.2754V15.5554C10.55 15.7854 10.01 16.3254 9.77999 17.0254H5.79999C5.38999 17.0254 5.04999 17.3654 5.04999 17.7754C5.04999 18.1854 5.38999 18.5254 5.79999 18.5254H9.77999C10.09 19.4654 10.95 20.1254 12 20.1254C13.05 20.1254 13.91 19.4654 14.22 18.5254H18.2C18.61 18.5254 18.95 18.1854 18.95 17.7754C18.95 17.3654 18.61 17.0254 18.2 17.0254H14.22C13.99 16.3254 13.45 15.7854 12.75 15.5554V12.2754H11.25ZM12.01 18.6714C12.502 18.6714 12.902 18.2724 12.902 17.7794C12.902 17.2864 12.502 16.8864 12.01 16.8864C11.517 16.8864 11.117 17.2864 11.117 17.7794C11.117 18.2724 11.517 18.6714 12.01 18.6714Z" fill="black"/>
</svg>