<svg width="24" height="24" viewBox="0 0 24 24" fill="none" xmlns="http://www.w3.org/2000/svg">
<path fill-rule="evenodd" clip-rule="evenodd" d="M12.8088 3.2409L14.1495 5.92008C14.2823 6.18411 14.5368 6.366 14.8294 6.40707L17.8291 6.83904C18.3153 6.90287 18.6571 7.34952 18.5933 7.83578C18.5669 8.03453 18.4737 8.21936 18.3293 8.35871L16.1598 10.4431C15.9464 10.6462 15.8488 10.9418 15.9002 11.2322L16.4136 14.1747C16.4928 14.6661 16.1583 15.1281 15.667 15.2074C15.4733 15.2382 15.2753 15.2052 15.1022 15.1135L12.4223 13.7244C12.1583 13.588 11.8451 13.588 11.5811 13.7244L8.89971 15.1141C8.46039 15.3474 7.91547 15.1801 7.68225 14.7409C7.59057 14.5671 7.55756 14.3691 7.58909 14.1754L8.10249 11.2322C8.1531 10.9425 8.05555 10.647 7.84286 10.4438L5.67121 8.35944C5.31844 8.01913 5.30744 7.45734 5.64775 7.10383C5.7871 6.95935 5.97191 6.8662 6.1714 6.83978L9.17108 6.4078C9.46372 6.36673 9.71821 6.18484 9.85169 5.92081L11.1946 3.2409C11.4256 2.79499 11.9742 2.62117 12.4201 2.8522C12.5866 2.93801 12.7223 3.07369 12.8088 3.2409Z" stroke="black" stroke-width="1.5" stroke-linecap="round" stroke-linejoin="round"/>
<path opacity="0.4" d="M12.8404 14.2488L15.3916 20.5626C15.5245 20.8913 15.2825 21.2499 14.9281 21.2499H9.06855C8.71409 21.2499 8.47218 20.8913 8.60495 20.5626L11.1557 14.2488" stroke="black" stroke-width="1.5" stroke-linecap="round" stroke-linejoin="round"/>
</svg>
