<svg width="24" height="24" viewBox="0 0 24 24" fill="none" xmlns="http://www.w3.org/2000/svg">
<path d="M15.912 3V6.22326" stroke="black" stroke-width="1.5" stroke-linecap="round" stroke-linejoin="round"/>
<path d="M8.08723 3V6.22326" stroke="black" stroke-width="1.5" stroke-linecap="round" stroke-linejoin="round"/>
<path opacity="0.4" fill-rule="evenodd" clip-rule="evenodd" d="M16.4857 4.48651L7.52178 4.4874C4.88872 4.4874 3.24512 5.95366 3.24512 8.64874V16.7621C3.24512 19.4998 4.88872 21 7.52178 21L16.478 20.9991C19.1188 20.9991 20.7546 19.5251 20.7546 16.829V8.64785C20.7624 5.95277 19.1265 4.48651 16.4857 4.48651Z" stroke="black" stroke-width="1.5" stroke-linecap="round" stroke-linejoin="round"/>
<path d="M18.0427 15.2632L18.0527 15.2732" stroke="black" stroke-width="1.5" stroke-linecap="round" stroke-linejoin="round"/>
<path d="M6.52075 11.2823L7.09826 10.7055" stroke="black" stroke-width="1.5" stroke-linecap="round" stroke-linejoin="round"/>
<path d="M17.0943 9.55917L16.4004 10.2529" stroke="black" stroke-width="1.5" stroke-linecap="round" stroke-linejoin="round"/>
<path d="M10.3449 14.0492C9.79976 15.1569 9.14586 16.125 8.37891 16.9498H15.6201C14.8537 16.125 14.1993 15.1569 13.6542 14.0492H15.0634C13.8973 12.6819 12.8936 11.0562 11.9998 9.27441C11.1054 11.0562 10.1023 12.6819 8.93568 14.0492H10.3449Z" stroke="black" stroke-width="1.5" stroke-linecap="round" stroke-linejoin="round"/>
<path d="M11.998 16.9497V20.9399" stroke="black" stroke-width="1.5" stroke-linecap="round" stroke-linejoin="round"/>
</svg>
