<svg width="24" height="24" viewBox="0 0 24 24" fill="none" xmlns="http://www.w3.org/2000/svg">
<path opacity="0.4" d="M5.64929 17.2615L8.48646 15.4274L12.0001 17.6907L15.5137 15.4274L18.3643 17.2378" stroke="black" stroke-width="1.5" stroke-linecap="round" stroke-linejoin="round"/>
<path opacity="0.4" d="M4.883 13.6052L8.42776 11.3215L12.0001 13.6227L15.5725 11.3215L19.1131 13.5972" stroke="black" stroke-width="1.5" stroke-linecap="round" stroke-linejoin="round"/>
<circle cx="7.20607" cy="7.20607" r="7.20607" transform="matrix(1 0 0 -1 4.79297 21.25)" stroke="black" stroke-width="1.5" stroke-linecap="round" stroke-linejoin="round"/>
<path d="M14.3711 7.20776V5.6875C14.3711 5.13522 13.9234 4.6875 13.3711 4.6875H10.6328C10.0805 4.6875 9.63281 5.13522 9.63281 5.6875V7.20776" stroke="black" stroke-width="1.5" stroke-linecap="round" stroke-linejoin="round"/>
<path opacity="0.4" d="M13.0137 4.6875V3.8125C13.0137 3.26022 12.566 2.8125 12.0137 2.8125H11.9883C11.436 2.8125 10.9883 3.26022 10.9883 3.8125V4.6875" stroke="black" stroke-width="1.5" stroke-linecap="round" stroke-linejoin="round"/>
</svg>
