<svg width="24" height="24" viewBox="0 0 24 24" fill="none" xmlns="http://www.w3.org/2000/svg">
<path d="M19.3011 16.6661C19.6709 18.1601 16.9682 20.1143 13.2645 21.031C9.56079 21.9477 6.25859 21.4797 5.88882 19.9857C5.51906 18.4917 8.22175 16.5375 11.9255 15.6208C15.6292 14.7041 18.9314 15.1721 19.3011 16.6661Z" stroke="black" stroke-width="1.5" stroke-linecap="round" stroke-linejoin="round"/>
<path opacity="0.4" d="M6.01166 19.069C8.28954 15.0795 4.27225 8.45616 9.34578 6.94936C14.9634 5.69351 14.8716 13.5154 18.9173 16.0278" stroke="black" stroke-width="1.5" stroke-linecap="round" stroke-linejoin="round"/>
<path opacity="0.4" d="M9.34851 16.5731C9.76417 19.0144 14.4734 19.4296 14.5282 15.306" stroke="black" stroke-width="1.5" stroke-linecap="round" stroke-linejoin="round"/>
<path d="M9.10953 6.43664C8.61841 4.70784 9.42083 2.96664 10.9013 2.54606C11.5391 2.36487 12.2017 2.73431 12.3829 3.3721C12.7782 4.76364 11.3816 6.38017 9.2634 6.98194C7.1442 7.58397 5.10634 6.94311 4.71102 5.55157C4.52984 4.91378 4.90024 4.25087 5.53803 4.06968C7.01751 3.64938 8.61551 4.70866 9.10664 6.43746" stroke="black" stroke-width="1.5" stroke-linecap="round" stroke-linejoin="round"/>
<path d="M8.82703 10.3712L9.52088 7.14694C11.0949 7.06456 10.3185 10.0209 11.8354 10.5663" stroke="black" stroke-width="1.5" stroke-linecap="round" stroke-linejoin="round"/>
</svg>
