<svg width="24" height="24" viewBox="0 0 24 24" fill="none" xmlns="http://www.w3.org/2000/svg">
<path d="M12.0003 9.98845C12.0003 8.38204 13.1158 7.08057 14.4912 7.08057C15.0842 7.08057 15.5645 7.56017 15.5645 8.15315C15.5645 9.44617 13.968 10.4955 11.9989 10.4955C10.0305 10.4955 8.4339 9.44617 8.4339 8.15315C8.4339 7.56017 8.9142 7.08057 9.50648 7.08057C10.8826 7.08057 11.9982 8.38204 11.9982 9.98845" stroke="black" stroke-width="1.5" stroke-linecap="round" stroke-linejoin="round"/>
<path d="M9.44739 13.3005L11.9996 10.4961L14.5514 13.3005" stroke="black" stroke-width="1.5" stroke-linecap="round" stroke-linejoin="round"/>
<path d="M12 2.75V17.5305" stroke="black" stroke-width="1.5" stroke-linecap="round" stroke-linejoin="round"/>
<path d="M19.7961 10.5461H4.20386" stroke="black" stroke-width="1.5" stroke-linecap="round" stroke-linejoin="round"/>
<path opacity="0.4" d="M15.6444 17.5305C18.1382 16.2187 19.8385 13.6024 19.8385 10.5887C19.8385 6.26004 16.3293 2.75 11.9998 2.75C7.67034 2.75 4.16113 6.26004 4.16113 10.5887C4.16113 13.6024 5.8615 16.2187 8.3553 17.5305" stroke="black" stroke-width="1.5" stroke-linecap="round" stroke-linejoin="round"/>
<path d="M7.58007 18.8022L8.37347 17.564L15.6249 17.5586L16.4217 18.8022C16.9272 19.5911 17.1799 19.9855 17.1598 20.3116C17.1415 20.6084 16.992 20.8816 16.752 21.0571C16.4884 21.25 16.0199 21.25 15.0829 21.25H8.91882C7.98184 21.25 7.51336 21.25 7.24969 21.0571C7.00969 20.8816 6.86025 20.6084 6.84193 20.3116C6.82181 19.9855 7.07456 19.5911 7.58007 18.8022Z" stroke="black" stroke-width="1.5" stroke-linecap="round" stroke-linejoin="round"/>
</svg>
