<svg width="24" height="24" viewBox="0 0 24 24" fill="none" xmlns="http://www.w3.org/2000/svg">
<circle cx="1.74575" cy="1.74575" r="1.74575" transform="matrix(1 0 0 -1 10.2539 6.46049)" stroke="black" stroke-width="1.5" stroke-linecap="round" stroke-linejoin="round"/>
<path opacity="0.4" d="M19.5297 14.3204C20.8788 14.8153 21.2302 15.7171 21.2495 17.3C21.2879 20.4638 19.2789 20.9478 12 21.0309C4.72111 20.9478 2.71209 20.4638 2.75054 17.3C2.76978 15.717 3.12124 14.8152 4.47041 14.3204" stroke="black" stroke-width="1.5" stroke-linecap="round" stroke-linejoin="round"/>
<path d="M12.0007 6.46049C7.85082 6.46049 4.48633 10.6264 4.48633 14.4748C10.4147 15.5633 13.5991 15.5523 19.5142 14.4748C19.5142 10.6264 16.1505 6.46049 12.0007 6.46049Z" stroke="black" stroke-width="1.5" stroke-linecap="round" stroke-linejoin="round"/>
<path opacity="0.4" d="M18.4138 10.8236L17.083 12.1543L14.542 9.61332L12.001 12.1543L9.46 9.61332L6.91859 12.1543L5.58789 10.8236" stroke="black" stroke-width="1.5" stroke-linecap="round" stroke-linejoin="round"/>
</svg>
