<svg width="24" height="24" viewBox="0 0 24 24" fill="none" xmlns="http://www.w3.org/2000/svg">
<path fill-rule="evenodd" clip-rule="evenodd" d="M7.17969 17.5841C8.30921 16.3694 9.27224 14.9436 10.075 13.3122H7.99967C9.71779 11.2986 11.1952 8.90437 12.5123 6.28027C13.8286 8.90437 15.3068 11.2986 17.0241 13.3122H14.9488C15.7516 14.9436 16.7154 16.3694 17.8441 17.5841H7.17969Z" stroke="black" stroke-width="1.5" stroke-linecap="round" stroke-linejoin="round"/>
<path opacity="0.4" d="M12.5117 17.6099V20.741" stroke="black" stroke-width="1.5" stroke-linecap="round" stroke-linejoin="round"/>
<path opacity="0.4" d="M9.50977 11.4249L14.6622 10.2056" stroke="black" stroke-width="1.5" stroke-linecap="round" stroke-linejoin="round"/>
<path opacity="0.4" d="M8.78711 15.5933L15.2825 14.0562" stroke="black" stroke-width="1.5" stroke-linecap="round" stroke-linejoin="round"/>
<path opacity="0.4" d="M19.547 6.28027C19.7954 7.09644 20.4341 7.73517 21.2502 7.98359C20.4341 8.232 19.7954 8.87074 19.547 9.6869C19.2986 8.87074 18.6599 8.232 17.8437 7.98359C18.6599 7.73517 19.2986 7.09644 19.547 6.28027Z" stroke="black" stroke-width="1.5" stroke-linecap="round" stroke-linejoin="round"/>
<path opacity="0.4" d="M4.96598 3.25879V8.37328M7.17928 4.53741L2.75 7.09466M7.17928 7.09466L2.75 4.53741" stroke="black" stroke-width="1.5" stroke-linecap="round" stroke-linejoin="round"/>
<circle cx="12.5115" cy="4.9436" r="1.12671" stroke="black" stroke-width="1.5" stroke-linecap="round" stroke-linejoin="round"/>
</svg>
