<svg width="24" height="24" viewBox="0 0 24 24" fill="none" xmlns="http://www.w3.org/2000/svg">
<path d="M18.008 7.77319V14.6282C18.008 15.634 17.4918 16.5694 16.6407 17.1056L11.5245 20.3288C9.76165 21.4394 7.45938 21.1476 6.02943 19.6322C4.05698 17.542 4.61113 14.1485 7.14605 12.7943L9.01462 11.7961C9.04381 11.7805 9.06204 11.7501 9.06204 11.717V7.77319" stroke="black" stroke-width="1.5" stroke-linecap="round" stroke-linejoin="round"/>
<path opacity="0.4" d="M18.0056 11.33C15.3665 11.33 13.2271 13.4694 13.2271 16.1085C13.2271 17.0778 13.5156 17.9796 14.0116 18.7328" stroke="black" stroke-width="1.5" stroke-linecap="round" stroke-linejoin="round"/>
<path d="M17.291 3H9.47418C8.42214 3 7.56929 3.62357 7.56929 4.65383L7.56836 6.00903C7.56836 7.03928 8.42121 7.66286 9.47325 7.66286H17.2901C18.3421 7.66286 19.195 7.03928 19.195 6.00903L19.1959 4.65383C19.1959 3.62357 18.3431 3 17.291 3Z" stroke="black" stroke-width="1.5" stroke-linecap="round" stroke-linejoin="round"/>
</svg>
