<svg width="25" height="24" viewBox="0 0 25 24" fill="none" xmlns="http://www.w3.org/2000/svg">
<path fill-rule="evenodd" clip-rule="evenodd" d="M9.86297 16.5227H9.35297C8.93297 16.5227 8.60297 16.1927 8.60297 15.7727C8.60297 15.3627 8.93297 15.0227 9.35297 15.0227H9.86297C10.273 15.0227 10.613 15.3627 10.613 15.7727C10.613 16.1927 10.273 16.5227 9.86297 16.5227ZM6.80297 16.5227H6.29297C5.88297 16.5227 5.54297 16.1927 5.54297 15.7727C5.54297 15.3627 5.88297 15.0227 6.29297 15.0227H6.80297C7.21297 15.0227 7.55297 15.3627 7.55297 15.7727C7.55297 16.1927 7.21297 16.5227 6.80297 16.5227ZM18.543 11.9627H7.77297V5.31274C7.77297 4.90274 7.43297 4.56274 7.02297 4.56274C6.60297 4.56274 6.27297 4.90274 6.27297 5.31274V11.9627H5.55297C3.89297 11.9627 2.54297 13.3127 2.54297 14.9627V16.5727C2.54297 18.2327 3.89297 19.5827 5.55297 19.5827H18.543C20.193 19.5827 21.543 18.2327 21.543 16.5727V14.9627C21.543 13.3127 20.193 11.9627 18.543 11.9627Z" fill="black"/>
<path fill-rule="evenodd" clip-rule="evenodd" d="M9.89355 5.91724C10.4596 5.91724 11.0146 6.02624 11.5416 6.24124C12.0436 6.44624 12.5276 6.76824 12.9326 7.16724C13.3276 7.56124 13.6496 8.04524 13.8666 8.56524C14.0806 9.07924 14.1936 9.64724 14.1936 10.2072C14.1936 10.6212 14.5296 10.9572 14.9436 10.9572C15.3576 10.9572 15.6936 10.6212 15.6936 10.2072C15.6936 9.45124 15.5396 8.68424 15.2506 7.98924C14.9556 7.27924 14.5336 6.64624 13.9896 6.10224C13.4396 5.56324 12.7896 5.13024 12.1086 4.85324C11.4016 4.56324 10.6556 4.41724 9.89355 4.41724C9.47955 4.41724 9.14355 4.75324 9.14355 5.16724C9.14355 5.58124 9.47955 5.91724 9.89355 5.91724Z" fill="black"/>
<path fill-rule="evenodd" clip-rule="evenodd" d="M9.89355 8.43683C10.1366 8.43683 10.3636 8.48083 10.5686 8.56783C10.7976 8.66483 10.9916 8.79383 11.1576 8.96383C11.3156 9.11783 11.4486 9.31483 11.5376 9.52083C11.6266 9.74083 11.6726 9.97183 11.6726 10.2068C11.6726 10.6208 12.0086 10.9568 12.4226 10.9568C12.8366 10.9568 13.1726 10.6208 13.1726 10.2068C13.1726 9.77583 13.0896 9.35383 12.9206 8.94083C12.7496 8.54383 12.5026 8.18083 12.2186 7.90283C11.9256 7.60283 11.5676 7.36183 11.1546 7.18683C10.7626 7.02083 10.3386 6.93683 9.89355 6.93683C9.47955 6.93683 9.14355 7.27283 9.14355 7.68683C9.14355 8.10083 9.47955 8.43683 9.89355 8.43683Z" fill="black"/>
<path fill-rule="evenodd" clip-rule="evenodd" d="M9.89355 10.9568C10.3076 10.9568 10.6436 10.6208 10.6436 10.2068V10.1668C10.6436 9.75283 10.3076 9.43683 9.89355 9.43683C9.47955 9.43683 9.14355 9.79283 9.14355 10.2068C9.14355 10.6208 9.47955 10.9568 9.89355 10.9568Z" fill="black"/>
</svg>