<svg width="24" height="24" viewBox="0 0 24 24" fill="none" xmlns="http://www.w3.org/2000/svg">
<path d="M20.9187 7.75554C15.7517 2.64154 8.24974 2.64254 3.08374 7.75554C2.36174 8.46654 2.30574 9.62954 2.95574 10.4005L3.80877 11.4144C3.92497 11.5526 4.13583 11.5572 4.26188 11.4281C6.40227 9.23468 9.12508 8.03193 11.9893 8.02911H12.0013C14.8669 8.02911 17.5953 9.23009 19.7421 11.4245C19.8682 11.5534 20.0789 11.5486 20.195 11.4106L21.0447 10.4005C21.6937 9.62954 21.6387 8.46754 20.9187 7.75554Z" fill="black"/>
<path d="M18.8345 13.0276C18.9308 12.9132 18.9284 12.745 18.826 12.6361C16.94 10.6295 14.5267 9.52911 12.0013 9.52911H11.9903C9.46675 9.53201 7.05795 10.6345 5.17822 12.6412C5.07612 12.7502 5.07388 12.9181 5.17002 13.0324L6.9742 15.1769C7.08769 15.3118 7.29218 15.3197 7.42153 15.1999C8.71791 13.9995 10.3207 13.3429 11.9891 13.3392H12.0031C13.6736 13.3392 15.2815 13.993 16.5855 15.1936C16.7149 15.3128 16.9189 15.3045 17.0321 15.1699L18.8345 13.0276Z" fill="black"/>
<path d="M10.5167 19.3875L8.32883 16.787C8.23038 16.67 8.2352 16.497 8.34527 16.3908C9.38217 15.3908 10.6654 14.842 11.9921 14.8392H12.0031C13.3311 14.8392 14.6183 15.3847 15.6608 16.3825C15.7715 16.4886 15.7767 16.6621 15.678 16.7795L13.4837 19.3875C13.1147 19.8275 12.5737 20.0795 12.0007 20.0795C11.4267 20.0795 10.8857 19.8275 10.5167 19.3875Z" fill="black"/>
</svg>