<svg width="24" height="24" viewBox="0 0 24 24" fill="none" xmlns="http://www.w3.org/2000/svg">
<path opacity="0.4" d="M21 10.7822L21 16.2169C21 19.165 18.9188 21 15.9736 21L8.02638 21C5.08119 21 3 19.165 3 16.2159L3 7.78216C3 4.83405 5.08119 3 8.02638 3L12.9736 3" stroke="black" stroke-width="1.5" stroke-linecap="round" stroke-linejoin="round"/>
<path fill-rule="evenodd" clip-rule="evenodd" d="M15.102 13.7952L12.6849 14.3368C12.6141 14.3525 12.5521 14.3961 12.5132 14.4574L11.3483 16.2778C10.7821 17.1634 9.42779 16.925 9.19753 15.899L7.89768 9.44538C7.66673 8.41668 8.7949 7.62301 9.68531 8.18777L15.4767 11.6418C16.3664 12.2059 16.13 13.565 15.102 13.7952Z" stroke="black" stroke-width="1.5" stroke-linecap="round" stroke-linejoin="round"/>
<path d="M18.5004 3V8M21.0009 5.49955H16" stroke="black" stroke-width="1.5" stroke-linecap="round" stroke-linejoin="round"/>
</svg>
