<svg width="24" height="24" viewBox="0 0 24 24" fill="none" xmlns="http://www.w3.org/2000/svg">
<path fill-rule="evenodd" clip-rule="evenodd" d="M21 5.69997C21 6.56396 20.5952 7.32871 19.9648 7.82395C19.5055 8.18395 18.9305 8.39994 18.3 8.39994C16.8056 8.39994 15.6001 7.19444 15.6001 5.69997C15.6001 5.07046 15.8161 4.49447 16.1761 4.03523H16.1848C16.6713 3.40573 17.436 3 18.3 3C19.7945 3 21 4.20647 21 5.69997Z" stroke="black" stroke-width="1.5" stroke-linecap="round" stroke-linejoin="round"/>
<path fill-rule="evenodd" clip-rule="evenodd" d="M8.39994 5.69997C8.39994 7.19444 7.19444 8.39994 5.69997 8.39994C5.06949 8.39994 4.49447 8.18395 4.03523 7.82395C3.40475 7.32871 3 6.56396 3 5.69997C3 4.20647 4.2055 3 5.69997 3C6.56396 3 7.32871 3.40573 7.82395 4.03523C8.18395 4.49447 8.39994 5.07046 8.39994 5.69997Z" stroke="black" stroke-width="1.5" stroke-linecap="round" stroke-linejoin="round"/>
<path fill-rule="evenodd" clip-rule="evenodd" d="M21 18.3C21 19.7945 19.7945 21 18.3 21C17.436 21 16.6713 20.5952 16.1848 19.9648H16.1761C15.8161 19.5055 15.6001 18.9295 15.6001 18.3C15.6001 16.8056 16.8056 15.6001 18.3 15.6001C18.9305 15.6001 19.5055 15.8161 19.9648 16.1761V16.1848C20.5952 16.6713 21 17.436 21 18.3Z" stroke="black" stroke-width="1.5" stroke-linecap="round" stroke-linejoin="round"/>
<path fill-rule="evenodd" clip-rule="evenodd" d="M8.39994 18.3C8.39994 18.9295 8.18395 19.5055 7.82395 19.9648C7.32871 20.5952 6.56396 21 5.69997 21C4.2055 21 3 19.7945 3 18.3C3 17.436 3.40475 16.6713 4.03523 16.1848V16.1761C4.49447 15.8161 5.06949 15.6001 5.69997 15.6001C7.19444 15.6001 8.39994 16.8056 8.39994 18.3Z" stroke="black" stroke-width="1.5" stroke-linecap="round" stroke-linejoin="round"/>
<path opacity="0.4" d="M16.176 19.9648C14.9248 20.6303 13.5119 20.9998 11.9999 20.9998C10.4967 20.9998 9.07517 20.6303 7.82394 19.9648" stroke="black" stroke-width="1.5" stroke-linecap="round" stroke-linejoin="round"/>
<path opacity="0.4" d="M4.03523 7.82422C3.36875 9.07545 3 10.4979 3 12.0002C3 13.5122 3.36875 14.9251 4.03523 16.1763" stroke="black" stroke-width="1.5" stroke-linecap="round" stroke-linejoin="round"/>
<path opacity="0.4" d="M16.1763 4.03523C14.9251 3.36875 13.5122 3 12.0002 3C10.4969 3 9.07545 3.36875 7.82422 4.03523" stroke="black" stroke-width="1.5" stroke-linecap="round" stroke-linejoin="round"/>
<path opacity="0.4" d="M19.9648 7.82422C20.6313 9.07545 20.9999 10.4979 20.9999 12.0002C20.9999 13.5122 20.6313 14.9251 19.9648 16.1763" stroke="black" stroke-width="1.5" stroke-linecap="round" stroke-linejoin="round"/>
</svg>
