<svg width="24" height="24" viewBox="0 0 24 24" fill="none" xmlns="http://www.w3.org/2000/svg">
<path fill-rule="evenodd" clip-rule="evenodd" d="M12.0005 3.74805C13.3082 3.74805 14.3687 4.8193 14.3687 6.14061C14.3687 7.46289 13.3082 8.53414 12.0005 8.53414C10.6928 8.53414 9.63224 7.46289 9.63224 6.14061C9.63224 4.8193 10.6928 3.74805 12.0005 3.74805Z" stroke="black" stroke-width="1.5" stroke-linecap="round" stroke-linejoin="round"/>
<path fill-rule="evenodd" clip-rule="evenodd" d="M5.36824 15.4656C6.67592 15.4656 7.73647 16.5369 7.73647 17.8582C7.73647 19.1795 6.67592 20.2508 5.36824 20.2508C4.06055 20.2508 3 19.1795 3 17.8582C3 16.5369 4.06055 15.4656 5.36824 15.4656Z" stroke="black" stroke-width="1.5" stroke-linecap="round" stroke-linejoin="round"/>
<path fill-rule="evenodd" clip-rule="evenodd" d="M18.6318 15.4656C19.9394 15.4656 21 16.5369 21 17.8582C21 19.1795 19.9394 20.2508 18.6318 20.2508C17.3241 20.2508 16.2635 19.1795 16.2635 17.8582C16.2635 16.5369 17.3241 15.4656 18.6318 15.4656Z" stroke="black" stroke-width="1.5" stroke-linecap="round" stroke-linejoin="round"/>
<path opacity="0.4" d="M12.9472 18.7097H11.0528M15.6127 10.998L16.6187 12.6463M8.54317 10.998L7.53711 12.6463" stroke="black" stroke-width="1.5" stroke-linecap="round" stroke-linejoin="round"/>
</svg>
