<svg width="24" height="24" viewBox="0 0 24 24" fill="none" xmlns="http://www.w3.org/2000/svg">
<path fill-rule="evenodd" clip-rule="evenodd" d="M18.4435 20.6224V20.6224C17.92 21.0457 17.1708 21.0457 16.6474 20.6224C15.2833 19.5191 14.4903 17.8592 14.4903 16.1049V6.05607C14.4903 4.36893 15.8583 3.00191 17.5454 3.00191C19.2326 3.00191 20.6006 4.36893 20.6006 6.05607V16.1049C20.6006 17.8592 19.8076 19.5191 18.4435 20.6224Z" stroke="black" stroke-width="1.5" stroke-linecap="round" stroke-linejoin="round"/>
<path opacity="0.4" d="M14.5074 8.32854H20.6167" stroke="black" stroke-width="1.5" stroke-linecap="round" stroke-linejoin="round"/>
<path fill-rule="evenodd" clip-rule="evenodd" d="M11.3719 18.1356V5.86443C11.3719 4.28238 10.0895 3 8.50746 3H6.24724C4.66519 3 3.38281 4.28238 3.38281 5.86541V18.1356C3.38281 19.7176 4.66519 21 6.24724 21H8.50746C10.0895 21 11.3719 19.7176 11.3719 18.1356Z" stroke="black" stroke-width="1.5" stroke-linecap="round" stroke-linejoin="round"/>
<path opacity="0.4" d="M3.38281 6.60303H6.75806" stroke="black" stroke-width="1.5" stroke-linecap="round"/>
<path opacity="0.4" d="M3.38281 17.4008H5.85806" stroke="black" stroke-width="1.5" stroke-linecap="round"/>
<path opacity="0.4" d="M3.38281 13.7573L6.75806 13.8001" stroke="black" stroke-width="1.5" stroke-linecap="round"/>
<path opacity="0.4" d="M3.38281 10.2023H4.95806" stroke="black" stroke-width="1.5" stroke-linecap="round"/>
</svg>
