<svg width="24" height="24" viewBox="0 0 24 24" fill="none" xmlns="http://www.w3.org/2000/svg">
<path fill-rule="evenodd" clip-rule="evenodd" d="M7.89276 5.53685C7.95173 3.94869 9.25743 2.67969 10.86 2.67969H13.1407C14.7433 2.67969 16.049 3.94869 16.108 5.53685H17.2044C18.5592 5.53685 19.7149 6.02016 20.5282 6.8934C21.3359 7.76062 21.75 8.95157 21.75 10.2751V16.5819C21.75 17.9054 21.3359 19.0964 20.528 19.9636C19.7146 20.8368 18.5586 21.3201 17.2035 21.3201H6.79459C5.4398 21.3201 4.28428 20.8368 3.47123 19.9634C2.66382 19.0962 2.25 17.9052 2.25 16.5819V10.2751C2.25 8.95078 2.66607 7.75997 3.47411 6.89314C4.28761 6.02048 5.44272 5.53685 6.79459 5.53685H7.89276ZM9.39489 5.53685H14.6058C14.5485 4.77757 13.9147 4.17969 13.1407 4.17969H10.86C10.086 4.17969 9.45217 4.77757 9.39489 5.53685ZM4.57132 7.91595C4.06512 8.45897 3.75 9.26226 3.75 10.2751V12.0027H8.35983C8.37244 12.0021 8.38514 12.0018 8.39791 12.0018C8.41068 12.0018 8.42337 12.0021 8.43599 12.0027H15.555C15.5676 12.0021 15.5803 12.0018 15.5931 12.0018C15.6058 12.0018 15.6185 12.0021 15.6311 12.0027H20.25V10.2751C20.25 9.26148 19.9359 8.45832 19.4305 7.9157C18.9308 7.3791 18.1887 7.03685 17.2044 7.03685H6.79459C5.81425 7.03685 5.07207 7.37878 4.57132 7.91595ZM20.25 13.5027H16.3431V14.8116C16.3431 15.2258 16.0073 15.5616 15.5931 15.5616C15.1789 15.5616 14.8431 15.2258 14.8431 14.8116V13.5027H9.14791V14.8116C9.14791 15.2258 8.81212 15.5616 8.39791 15.5616C7.9837 15.5616 7.64791 15.2258 7.64791 14.8116V13.5027H3.75V16.5819C3.75 17.5956 4.06397 18.3988 4.5691 18.9413C5.06859 19.4779 5.81037 19.8201 6.79459 19.8201H17.2035C18.1883 19.8201 18.9306 19.4778 19.4304 18.9412C19.9359 18.3986 20.25 17.5955 20.25 16.5819V13.5027Z" fill="black"/>
</svg>
