<svg width="24" height="24" viewBox="0 0 24 24" fill="none" xmlns="http://www.w3.org/2000/svg">
<path d="M12 8.88555C12.4141 8.88555 12.75 9.22149 12.75 9.63555V16.3875C12.75 16.8016 12.4141 17.1375 12 17.1375C11.7812 17.1375 11.5845 17.0438 11.4473 16.8934C11.3247 16.7605 11.25 16.5828 11.25 16.3875V9.63555C11.25 9.22149 11.5859 8.88555 12 8.88555Z" fill="black"/>
<path fill-rule="evenodd" clip-rule="evenodd" d="M10.4624 20.8582C9.29102 20.1785 7.33643 19.2664 5.12061 19.1082C3.53711 18.993 2.25 17.7156 2.25 16.0809V5.73906C2.25 3.90899 3.84814 2.52227 5.64551 2.71758C8.00098 2.97735 10.0156 3.93438 11.2148 4.62969C11.7026 4.91289 12.2974 4.91289 12.7861 4.62969C13.9844 3.93438 15.999 2.97735 18.355 2.71758C20.1509 2.52227 21.75 3.90899 21.75 5.73906V16.0809C21.75 17.7156 20.4629 18.993 18.8794 19.1082C16.6636 19.2664 14.709 20.1785 13.5376 20.8582C12.584 21.4109 11.416 21.4109 10.4624 20.8582ZM5.22852 17.6121C7.76465 17.7938 9.94727 18.825 11.2144 19.5594C11.7026 19.8426 12.2974 19.8426 12.7856 19.5594C13.5127 19.1375 14.541 18.618 15.7646 18.2176C16.6738 17.9207 17.6904 17.6902 18.7715 17.6121C19.249 17.577 19.6582 17.3484 19.9243 17.0145C20.1299 16.7547 20.25 16.4305 20.25 16.0809V5.73906C20.25 4.825 19.4478 4.10821 18.5181 4.20977C16.4507 4.43633 14.6431 5.28594 13.5376 5.92852C12.584 6.4793 11.416 6.4793 10.4619 5.92656C9.35693 5.28594 7.54932 4.43633 5.48242 4.20977C4.55127 4.10821 3.75 4.825 3.75 5.73906V16.0809C3.75 16.8816 4.38135 17.5496 5.22852 17.6121Z" fill="black"/>
</svg>
