<svg width="24" height="24" viewBox="0 0 24 24" fill="none" xmlns="http://www.w3.org/2000/svg">
<path fill-rule="evenodd" clip-rule="evenodd" d="M3.9748 3.62413C4.95401 2.68924 6.3206 2.25 7.88534 2.25H16.1235C17.692 2.25 19.0593 2.68891 20.037 3.62483C21.0197 4.56567 21.5114 5.91556 21.5068 7.53789V16.4543C21.5068 18.0766 21.0127 19.4279 20.0297 20.3704C19.0515 21.3082 17.6844 21.75 16.1147 21.75H7.88534C6.31607 21.75 4.9479 21.2989 3.96958 20.3466C2.98798 19.3912 2.49329 18.0232 2.49329 16.3803V7.53697C2.49329 5.91349 2.99023 4.56412 3.9748 3.62413ZM5.01061 4.70906C4.38855 5.30296 3.99329 6.22208 3.99329 7.53697V16.3803C3.99329 17.7216 4.39081 18.6634 5.01583 19.2718C5.64413 19.8833 6.59698 20.25 7.88534 20.25H16.1147C17.4115 20.25 18.3654 19.8881 18.9916 19.2877C19.613 18.6919 20.0068 17.7703 20.0068 16.4543L20.0068 7.53474C20.0107 6.21928 19.6189 5.30115 18.9997 4.70835C18.3751 4.11039 17.4214 3.75 16.1235 3.75H7.88534C6.59246 3.75 5.63802 4.11006 5.01061 4.70906ZM6.36665 7.66153C6.36665 7.24732 6.70244 6.91153 7.11665 6.91153H16.8834C17.2976 6.91153 17.6334 7.24732 17.6334 7.66153C17.6334 8.07574 17.2976 8.41153 16.8834 8.41153H7.11665C6.70244 8.41153 6.36665 8.07574 6.36665 7.66153Z" fill="black"/>
<path fill-rule="evenodd" clip-rule="evenodd" d="M7.66917 10.9922C8.16622 10.9922 8.56916 11.3951 8.56916 11.8922V12.0002C8.56916 12.4972 8.16622 12.9002 7.66917 12.9002C7.17211 12.9002 6.76917 12.4972 6.76917 12.0002V11.8922C6.76917 11.3951 7.17211 10.9922 7.66917 10.9922ZM11.972 10.9922C12.4691 10.9922 12.872 11.3951 12.872 11.8922V12.0002C12.872 12.4972 12.4691 12.9002 11.972 12.9002C11.4749 12.9002 11.072 12.4972 11.072 12.0002V11.8922C11.072 11.3951 11.4749 10.9922 11.972 10.9922ZM16.3309 10.9922C16.828 10.9922 17.2309 11.3951 17.2309 11.8922V12.0002C17.2309 12.4972 16.828 12.9002 16.3309 12.9002C15.8338 12.9002 15.4309 12.4972 15.4309 12.0002V11.8922C15.4309 11.3951 15.8338 10.9922 16.3309 10.9922ZM7.66917 15.3316C8.16622 15.3316 8.56916 15.7346 8.56916 16.2316V16.3396C8.56916 16.8367 8.16622 17.2396 7.66917 17.2396C7.17211 17.2396 6.76917 16.8367 6.76917 16.3396V16.2316C6.76917 15.7346 7.17211 15.3316 7.66917 15.3316ZM11.972 15.3316C12.4691 15.3316 12.872 15.7346 12.872 16.2316V16.3396C12.872 16.8367 12.4691 17.2396 11.972 17.2396C11.4749 17.2396 11.072 16.8367 11.072 16.3396V16.2316C11.072 15.7346 11.4749 15.3316 11.972 15.3316ZM16.3309 15.3316C16.828 15.3316 17.2309 15.7346 17.2309 16.2316V16.3396C17.2309 16.8367 16.828 17.2396 16.3309 17.2396C15.8338 17.2396 15.4309 16.8367 15.4309 16.3396V16.2316C15.4309 15.7346 15.8338 15.3316 16.3309 15.3316Z" fill="black"/>
</svg>
