<svg width="24" height="24" viewBox="0 0 24 24" fill="none" xmlns="http://www.w3.org/2000/svg">
<path fill-rule="evenodd" clip-rule="evenodd" d="M14.2158 2.32727C15.7361 1.93552 17.2176 3.08266 17.2176 4.65315V6.64702C18.4334 6.99006 19.3247 8.10765 19.3247 9.43305V11.5931C19.3247 12.0073 18.9889 12.3431 18.5747 12.3431C18.1604 12.3431 17.8247 12.0073 17.8247 11.5931V9.43305C17.8247 8.66313 17.2001 8.03857 16.4302 8.03857H5.34227V18.8559C5.34227 19.6258 5.96683 20.2504 6.73675 20.2504H10.4808C10.895 20.2504 11.2308 20.5862 11.2308 21.0004C11.2308 21.4146 10.895 21.7504 10.4808 21.7504H6.73675C5.1384 21.7504 3.84227 20.4543 3.84227 18.8559V7.31552C3.84196 7.30658 3.8418 7.29759 3.8418 7.28857C3.8418 7.27955 3.84196 7.27057 3.84227 7.26163V6.69643C3.84227 5.70026 4.51667 4.83063 5.48097 4.58177C5.48097 4.58177 5.48096 4.58177 5.48097 4.58177L14.2158 2.32727ZM5.36071 6.53857H15.7176V4.65315C15.7176 4.06369 15.1619 3.63268 14.5904 3.77975L5.85584 6.03417C5.60581 6.09869 5.41826 6.29614 5.36071 6.53857ZM11.5832 12.7306C10.7809 12.7306 10.1284 13.3777 10.1284 14.1854C10.1284 14.5996 9.79258 14.9354 9.37837 14.9354C8.96415 14.9354 8.62837 14.5996 8.62837 14.1854C8.62837 12.545 9.95682 11.2306 11.5832 11.2306C11.9974 11.2306 12.3332 11.5664 12.3332 11.9806C12.3332 12.3948 11.9974 12.7306 11.5832 12.7306ZM15.8361 15.0985C14.6322 15.0985 13.6564 16.0743 13.6564 17.2781C13.6564 18.482 14.6322 19.4578 15.8361 19.4578C16.4019 19.4578 16.9174 19.2423 17.3048 18.8888C17.3145 18.8792 17.3245 18.87 17.3346 18.861C17.7541 18.4638 18.0158 17.9015 18.0158 17.2781C18.0158 16.0743 17.04 15.0985 15.8361 15.0985ZM18.8528 19.3858C19.2706 18.7888 19.5158 18.0621 19.5158 17.2781C19.5158 15.2458 17.8684 13.5985 15.8361 13.5985C13.8038 13.5985 12.1564 15.2458 12.1564 17.2781C12.1564 19.3104 13.8038 20.9578 15.8361 20.9578C16.5416 20.9578 17.2007 20.7593 17.7607 20.415L18.8782 21.5305C19.1713 21.8231 19.6462 21.8226 19.9388 21.5295C20.2314 21.2363 20.231 20.7614 19.9378 20.4688L18.8528 19.3858Z" fill="black"/>
</svg>
