<svg width="24" height="24" viewBox="0 0 24 24" fill="none" xmlns="http://www.w3.org/2000/svg">
<path fill-rule="evenodd" clip-rule="evenodd" d="M10.0768 13.1162H4.99858C3.77063 13.1162 3 13.9861 3 15.2169V18.5388C3 19.7697 3.76674 20.6396 4.99858 20.6396H10.0768C11.3086 20.6396 12.0754 19.7697 12.0754 18.5388V15.2169C12.0754 13.9861 11.3086 13.1162 10.0768 13.1162Z" stroke="black" stroke-width="1.5" stroke-linecap="round" stroke-linejoin="round"/>
<path opacity="0.4" d="M3 15.7844H12.0754" stroke="black" stroke-width="1.5" stroke-linecap="round" stroke-linejoin="round"/>
<path fill-rule="evenodd" clip-rule="evenodd" d="M19.0012 3.39738H13.923C12.6951 3.39738 11.9244 4.26727 11.9244 5.49814V8.82003C11.9244 10.0509 12.6912 10.9208 13.923 10.9208H19.0012C20.2331 10.9208 20.9998 10.0509 20.9998 8.82003V5.49814C20.9998 4.26727 20.2331 3.39738 19.0012 3.39738Z" stroke="black" stroke-width="1.5" stroke-linecap="round" stroke-linejoin="round"/>
<path opacity="0.4" d="M11.9244 6.0694H20.9998" stroke="black" stroke-width="1.5" stroke-linecap="round" stroke-linejoin="round"/>
<path opacity="0.4" d="M3 8.47065C3 5.64792 5.28854 3.35938 8.11128 3.35938L7.50411 4.9921" stroke="black" stroke-width="1.5" stroke-linecap="round" stroke-linejoin="round"/>
<path opacity="0.4" d="M21 15.5259C21 18.3487 18.7115 20.6372 15.8887 20.6372L16.4959 19.0045" stroke="black" stroke-width="1.5" stroke-linecap="round" stroke-linejoin="round"/>
</svg>
