<svg width="24" height="24" viewBox="0 0 24 24" fill="none" xmlns="http://www.w3.org/2000/svg">
<path opacity="0.4" fill-rule="evenodd" clip-rule="evenodd" d="M17.5946 3.71094H6.40432C3.6973 3.71094 2 5.62769 2 8.34013V15.6601C2 18.3736 3.68865 20.2893 6.40432 20.2893H17.5935C20.3103 20.2893 22 18.3736 22 15.6601V8.34013C22 5.62769 20.3103 3.71094 17.5946 3.71094Z" stroke="black" stroke-width="1.5" stroke-linecap="round" stroke-linejoin="round"/>
<path fill-rule="evenodd" clip-rule="evenodd" d="M13.2801 12.0018C13.2801 13.8094 11.8142 15.2753 10.0066 15.2753C8.19904 15.2753 6.73309 13.8094 6.73309 12.0018C6.73309 10.1942 8.19904 8.7283 10.0066 8.7283C11.8142 8.7283 13.2801 10.1942 13.2801 12.0018Z" stroke="black" stroke-width="1.5" stroke-linecap="round" stroke-linejoin="round"/>
<path fill-rule="evenodd" clip-rule="evenodd" d="M17.2666 12.0018C17.2666 13.8094 15.8007 15.2753 13.9931 15.2753C12.1856 15.2753 10.7196 13.8094 10.7196 12.0018C10.7196 10.1942 12.1856 8.7283 13.9931 8.7283C15.8007 8.7283 17.2666 10.1942 17.2666 12.0018Z" stroke="black" stroke-width="1.5" stroke-linecap="round" stroke-linejoin="round"/>
</svg>
