<svg width="24" height="24" viewBox="0 0 24 24" fill="none" xmlns="http://www.w3.org/2000/svg">
<path opacity="0.4" fill-rule="evenodd" clip-rule="evenodd" d="M17.5946 3.71094H6.40432C3.6973 3.71094 2 5.62769 2 8.34013V15.6601C2 18.3736 3.68865 20.2893 6.40432 20.2893H17.5935C20.3103 20.2893 22 18.3736 22 15.6601V8.34013C22 5.62769 20.3103 3.71094 17.5946 3.71094Z" stroke="black" stroke-width="1.5" stroke-linecap="round" stroke-linejoin="round"/>
<path d="M5.53516 10.0304L6.51678 13.9742L8.29732 10.0304" stroke="black" stroke-width="1.5" stroke-linecap="round" stroke-linejoin="round"/>
<path d="M9.77138 13.9742L10.3357 10.0304" stroke="black" stroke-width="1.5" stroke-linecap="round" stroke-linejoin="round"/>
<path d="M15.5851 13.9742L17.2954 10.0304L18.4608 13.9742" stroke="black" stroke-width="1.5" stroke-linecap="round" stroke-linejoin="round"/>
<path d="M14.0999 10.3205C13.4999 10.0891 12.4481 10.0772 12.4048 10.9486C12.3691 11.6902 13.1378 11.9291 13.554 12.3842C13.7118 12.5561 13.8297 12.7745 13.8394 13.0069C13.8491 13.2394 13.7453 13.4707 13.5745 13.6275C13.1853 13.9864 12.5799 13.8988 12.1281 13.7248" stroke="black" stroke-width="1.5" stroke-linecap="round" stroke-linejoin="round"/>
</svg>
