<svg width="24" height="24" viewBox="0 0 24 24" fill="none" xmlns="http://www.w3.org/2000/svg">
<path opacity="0.4" fill-rule="evenodd" clip-rule="evenodd" d="M11.0299 16.2963C11.0299 18.5137 9.23189 20.3117 7.01449 20.3117C4.79708 20.3117 3 18.5137 3 16.2963C3 14.0789 4.79708 12.2808 7.01449 12.2808C9.23189 12.2808 11.0299 14.0789 11.0299 16.2963Z" stroke="black" stroke-width="1.5" stroke-linecap="round" stroke-linejoin="round"/>
<path d="M8.26234 17.3395L6.99261 16.5806V14.9489" stroke="black" stroke-width="1.5" stroke-linecap="round" stroke-linejoin="round"/>
<path opacity="0.4" d="M20.9984 14.4053H17.1912C15.793 14.4053 14.6605 13.2718 14.6605 11.8736C14.6605 10.4764 15.793 9.34291 17.1912 9.34291H20.9984" stroke="black" stroke-width="1.5" stroke-linecap="round" stroke-linejoin="round"/>
<path d="M16.9966 11.8171H16.9937" stroke="black" stroke-width="1.5" stroke-linecap="round" stroke-linejoin="round"/>
<path d="M3 9.72966V8.62242C3 5.89712 5.20962 3.6875 7.93589 3.6875H16.0641C18.7904 3.6875 21 5.89712 21 8.62242V15.3729C21 18.0982 18.7904 20.3078 16.0641 20.3078H13.5782" stroke="black" stroke-width="1.5" stroke-linecap="round" stroke-linejoin="round"/>
</svg>
