<svg width="24" height="24" viewBox="0 0 24 24" fill="none" xmlns="http://www.w3.org/2000/svg">
<path opacity="0.4" d="M20.9994 14.4072H17.1921C15.794 14.4072 14.6605 13.2737 14.6605 11.8756C14.6605 10.4784 15.794 9.34486 17.1921 9.34486H20.9994" stroke="black" stroke-width="1.5" stroke-linecap="round" stroke-linejoin="round"/>
<path d="M16.9966 11.8153H16.9937" stroke="black" stroke-width="1.5" stroke-linecap="round" stroke-linejoin="round"/>
<path d="M3 10.6725V8.62535C3 5.89907 5.20962 3.68945 7.93589 3.68945H16.0641C18.7904 3.68945 21 5.89907 21 8.62535V15.3749C21 18.1011 18.7904 20.3108 16.0641 20.3108H12.6383" stroke="black" stroke-width="1.5" stroke-linecap="round" stroke-linejoin="round"/>
<path opacity="0.4" d="M4.09702 19.4997C4.66816 20.0047 5.41929 20.3102 6.24145 20.3102C8.0327 20.3102 9.4834 18.8586 9.4834 17.0683" stroke="black" stroke-width="1.5" stroke-linecap="round" stroke-linejoin="round"/>
<path d="M8.38654 14.6364C7.8154 14.1314 7.06427 13.8259 6.2421 13.8259C4.45086 13.8259 3.00016 15.2776 3.00016 17.0678" stroke="black" stroke-width="1.5" stroke-linecap="round" stroke-linejoin="round"/>
</svg>
