<svg width="24" height="24" viewBox="0 0 24 24" fill="none" xmlns="http://www.w3.org/2000/svg">
<path opacity="0.4" d="M20.9994 14.3916H17.1921C15.794 14.3916 14.6605 13.2581 14.6605 11.8599C14.6605 10.4627 15.794 9.32923 17.1921 9.32923H20.9994" stroke="black" stroke-width="1.5" stroke-linecap="round" stroke-linejoin="round"/>
<path d="M16.9966 11.8035H16.9937" stroke="black" stroke-width="1.5" stroke-linecap="round" stroke-linejoin="round"/>
<path d="M3 11.5977V8.60972C3 5.88345 5.20962 3.67383 7.93589 3.67383H16.0641C18.7904 3.67383 21 5.88345 21 8.60972V15.3592C21 18.0855 18.7904 20.2951 16.0641 20.2951H11.6974" stroke="black" stroke-width="1.5" stroke-linecap="round" stroke-linejoin="round"/>
<path opacity="0.4" fill-rule="evenodd" clip-rule="evenodd" d="M5.55814 20.175L4.73695 20.3122C4.13565 20.4134 3.60538 19.9123 3.67057 19.3062L3.76203 18.4597C3.80679 18.0501 3.97803 17.6657 4.25144 17.3592L7.83003 13.4537C8.2523 12.9964 8.96549 12.9692 9.42279 13.3915L10.1778 14.091C10.6351 14.5133 10.6624 15.2265 10.2391 15.6838L6.70041 19.5455C6.40268 19.8792 5.9989 20.1011 5.55814 20.175Z" stroke="black" stroke-width="1.5" stroke-linecap="round" stroke-linejoin="round"/>
</svg>
