<svg width="25" height="24" viewBox="0 0 25 24" fill="none" xmlns="http://www.w3.org/2000/svg">
<path d="M18.1772 12.9364C18.1772 12.0939 17.8532 11.2843 17.2724 10.6733C17.5468 9.93677 17.5273 9.12239 17.2179 8.39947C17.2179 8.39947 16.5057 8.18834 14.8584 9.29266C13.4758 8.91709 12.0183 8.91709 10.6357 9.29266C8.98849 8.18834 8.27627 8.39947 8.27627 8.39947C7.96687 9.12239 7.94741 9.93677 8.22276 10.6733C7.63703 11.2882 7.31303 12.1055 7.31692 12.954C7.31692 16.2241 9.30859 16.9334 11.203 17.1689C10.7963 17.5873 9.90405 19.2218 10.0607 20.7932C6.4033 19.6558 3.75 16.23 3.75 12.2038C3.75 8.54457 5.92915 5.39826 9.06162 3.99072" stroke="black" stroke-width="1.5" stroke-linecap="round" stroke-linejoin="round"/>
<path d="M12.75 3.20312C17.7141 3.20312 21.75 7.22929 21.75 12.2031C21.75 16.2293 19.0879 19.6493 15.4315 20.7954C15.5882 19.2241 14.6979 17.5778 14.2912 17.1585C15.5225 17.0213 16.794 16.6702 17.5338 15.5381" stroke="black" stroke-width="1.5" stroke-linecap="round" stroke-linejoin="round"/>
</svg>