<svg width="25" height="24" viewBox="0 0 25 24" fill="none" xmlns="http://www.w3.org/2000/svg">
<path d="M17.3984 10.6059C17.6805 9.84996 17.661 9.0133 17.3419 8.271C17.3419 8.271 16.6113 8.05405 14.9195 9.18744C13.5001 8.80218 12.0028 8.80218 10.5834 9.18744C8.89161 8.05405 8.16099 8.271 8.16099 8.271C7.84286 9.0133 7.82243 9.84996 8.10456 10.6059C7.5043 11.2373 7.17061 12.0769 7.17547 12.9485C7.17547 16.3059 9.22044 17.0346 11.1652 17.2759C10.7478 17.7059 9.83335 19.3841 9.99387 20.9981H8.53749C5.5897 20.9981 3.75098 18.9161 3.75098 15.9781V8.02973C3.75098 5.08194 5.59943 3 8.53749 3" stroke="black" stroke-width="1.5" stroke-linecap="round" stroke-linejoin="round"/>
<path d="M18.3275 12.9301C18.3275 16.3127 16.2825 17.0492 14.3377 17.2661C14.7551 17.6971 15.6667 19.386 15.5062 21L16.9625 20.9981C19.9201 20.9981 21.749 18.9161 21.749 15.9781V8.02973C21.749 5.08194 19.9201 3 16.9723 3H12.7549" stroke="black" stroke-width="1.5" stroke-linecap="round" stroke-linejoin="round"/>
</svg>