<svg width="25" height="24" viewBox="0 0 25 24" fill="none" xmlns="http://www.w3.org/2000/svg">
<path d="M15.5053 21.0005C15.6658 19.3863 14.7522 17.6963 14.3348 17.2653C16.2807 17.0483 18.3249 16.3118 18.3249 12.9279C18.3249 12.0629 17.9921 11.231 17.3957 10.6045C17.6779 9.8475 17.6584 9.01174 17.3393 8.2684C17.3393 8.2684 16.6086 8.0524 14.9176 9.1859C13.4971 8.80061 11.9997 8.80061 10.5802 9.1859C8.88822 8.0524 8.15753 8.2684 8.15753 8.2684C7.83937 9.01174 7.81894 9.8475 8.1011 10.6045C7.50079 11.2359 7.16706 12.0756 7.17193 12.9473" stroke="black" stroke-width="1.5" stroke-linecap="round" stroke-linejoin="round"/>
<path d="M9.9893 20.9973C9.82779 19.3831 10.7443 17.7048 11.1617 17.2747C10.0634 17.1379 8.93312 16.8463 8.15723 16.0137" stroke="black" stroke-width="1.5" stroke-linecap="round" stroke-linejoin="round"/>
<path d="M12.749 3H8.53216C5.58405 3 3.75 5.08119 3.75 8.02638V15.9736C3.75 18.9188 5.59281 21 8.53216 21H16.9669C19.915 21 21.75 18.9188 21.75 15.9736V8.02638C21.75 5.08119 19.915 3 16.9659 3H16.3991" stroke="black" stroke-width="1.5" stroke-linecap="round" stroke-linejoin="round"/>
</svg>