<svg width="25" height="24" viewBox="0 0 25 24" fill="none" xmlns="http://www.w3.org/2000/svg">
<path d="M15.7383 8.413C14.9288 7.73678 13.8868 7.33008 12.7494 7.33008C10.171 7.33008 8.08008 9.421 8.08008 11.9994C8.08008 14.5787 10.171 16.6696 12.7494 16.6696C15.3287 16.6696 17.4196 14.5787 17.4196 11.9994H13.3332" stroke="black" stroke-width="1.5" stroke-linecap="round" stroke-linejoin="round"/>
<path d="M12.749 21H8.53216C5.58405 21 3.75 18.9188 3.75 15.9736V8.02638C3.75 5.08119 5.59281 3 8.53216 3H16.9669C19.915 3 21.75 5.08119 21.75 8.02638V15.9736C21.75 18.9188 19.915 21 16.9659 21H16.3991" stroke="black" stroke-width="1.5" stroke-linecap="round" stroke-linejoin="round"/>
</svg>