<svg width="25" height="24" viewBox="0 0 25 24" fill="none" xmlns="http://www.w3.org/2000/svg">
<path d="M8.3331 13.7334C8.19202 13.4785 8.07721 13.209 7.99353 12.9298C7.88553 12.5698 7.82812 12.1913 7.82812 11.8021C7.82812 9.36772 10.0679 7.39453 12.8302 7.39453C15.5934 7.39453 17.5121 9.41831 17.5121 11.8527" stroke="black" stroke-width="1.5" stroke-linecap="round" stroke-linejoin="round"/>
<path d="M11.268 13.3047C10.98 15.058 12.2274 16.2761 13.9242 16.1866C15.1811 16.12 16.1322 15.4465 16.7384 14.5182" stroke="black" stroke-width="1.5" stroke-linecap="round" stroke-linejoin="round"/>
<path d="M9.60938 20.3854L11.8054 11.0176" stroke="black" stroke-width="1.5" stroke-linecap="round" stroke-linejoin="round"/>
<path d="M12.75 3C7.77908 3 3.75 7.02908 3.75 12C3.75 16.9709 7.77908 21 12.75 21C17.7209 21 21.75 16.9709 21.75 12C21.75 8.33095 19.555 5.17501 16.4063 3.77361" stroke="black" stroke-width="1.5" stroke-linecap="round" stroke-linejoin="round"/>
</svg>