<svg width="25" height="24" viewBox="0 0 25 24" fill="none" xmlns="http://www.w3.org/2000/svg">
<path d="M8.82223 11.781L12.2023 15.4948C12.4962 15.8178 13.0041 15.8178 13.2969 15.4948L16.678 11.78C16.9602 11.4696 16.9933 11.0065 16.7568 10.6601L15.3956 8.65967C15.2263 8.41254 14.9461 8.26367 14.6455 8.26367H10.8577C10.558 8.26367 10.2778 8.41156 10.1095 8.65967L8.7444 10.6591C8.50699 11.0065 8.5391 11.4706 8.82223 11.781Z" stroke="black" stroke-width="1.5" stroke-linecap="round" stroke-linejoin="round"/>
<path d="M12.75 21C7.77908 21 3.75 16.9709 3.75 12C3.75 7.02908 7.77908 3 12.75 3C17.7209 3 21.75 7.02908 21.75 12C21.75 15.6691 19.555 18.825 16.4063 20.2264" stroke="black" stroke-width="1.5" stroke-linecap="round" stroke-linejoin="round"/>
</svg>