<svg width="25" height="24" viewBox="0 0 25 24" fill="none" xmlns="http://www.w3.org/2000/svg">
<path d="M8.7153 11.7748L12.1869 15.5888C12.4885 15.9206 13.01 15.9206 13.3116 15.5888L16.7832 11.7738C17.0731 11.4556 17.1072 10.9789 16.8649 10.6228L15.4658 8.56979C15.2926 8.31487 15.0046 8.16211 14.6962 8.16211H10.8062C10.4988 8.16211 10.2108 8.31487 10.0366 8.56881L8.63454 10.6228C8.39129 10.9789 8.42535 11.4556 8.7153 11.7748Z" stroke="black" stroke-width="1.5" stroke-linecap="round" stroke-linejoin="round"/>
<path d="M12.749 21H8.53216C5.58405 21 3.75 18.9188 3.75 15.9736V8.02638C3.75 5.08119 5.59281 3 8.53216 3H16.9669C19.915 3 21.75 5.08119 21.75 8.02638V15.9736C21.75 18.9188 19.915 21 16.9659 21H16.3991" stroke="black" stroke-width="1.5" stroke-linecap="round" stroke-linejoin="round"/>
</svg>