<svg width="25" height="24" viewBox="0 0 25 24" fill="none" xmlns="http://www.w3.org/2000/svg">
<path d="M16.6838 8.53768L18.0197 8.45011L17.0983 9.89108C17.3347 13.6536 15.2419 16.6114 11.4794 16.8488C10.4004 16.9169 8.43982 16.7184 7.48047 15.5625C8.55852 15.5966 9.61906 15.2852 10.5064 14.6732C8.65971 13.638 7.4289 11.8205 8.05841 8.0726C9.26393 9.29952 10.844 10.0896 12.5477 10.3172C12.4348 9.42698 12.9262 7.986 14.1473 7.61433C15.6564 7.15703 16.6838 8.53768 16.6838 8.53768Z" stroke="black" stroke-width="1.5" stroke-linecap="round" stroke-linejoin="round"/>
<path d="M12.749 21H8.53216C5.58405 21 3.75 18.9188 3.75 15.9736V8.02638C3.75 5.08119 5.59281 3 8.53216 3H16.9669C19.915 3 21.75 5.08119 21.75 8.02638V15.9736C21.75 18.9188 19.915 21 16.9659 21H16.3991" stroke="black" stroke-width="1.5" stroke-linecap="round" stroke-linejoin="round"/>
</svg>