<svg width="25" height="24" viewBox="0 0 25 24" fill="none" xmlns="http://www.w3.org/2000/svg">
<path fill-rule="evenodd" clip-rule="evenodd" d="M17.666 8.63794L16.4001 8.61167C16.4001 8.61167 15.4466 7.33124 14.0475 7.75643C12.914 8.10086 12.4586 9.43675 12.5637 10.2628C10.9826 10.0517 9.51734 9.31902 8.39939 8.18064C7.81561 11.6571 8.95788 13.3432 10.6703 14.3036C9.8462 14.8708 8.8635 15.1598 7.86328 15.1277C8.75258 16.1999 10.5711 16.3848 11.5723 16.3205C15.0623 16.1006 17.0034 13.3578 16.7835 9.86778L17.666 8.63794Z" stroke="black" stroke-width="1.5" stroke-linecap="round" stroke-linejoin="round"/>
<path d="M12.75 21C7.77908 21 3.75 16.9709 3.75 12C3.75 7.02908 7.77908 3 12.75 3C17.7209 3 21.75 7.02908 21.75 12C21.75 15.6691 19.555 18.825 16.4063 20.2264" stroke="black" stroke-width="1.5" stroke-linecap="round" stroke-linejoin="round"/>
</svg>