<svg width="25" height="24" viewBox="0 0 25 24" fill="none" xmlns="http://www.w3.org/2000/svg">
<path d="M17.4311 9.37891C17.1226 10.0074 16.7412 10.6019 16.2752 11.1244C15.8597 11.5895 15.3713 11.9826 14.7826 12.1957C14.3837 12.3358 13.9799 12.3757 13.5703 12.3864" stroke="black" stroke-width="1.5" stroke-linecap="round" stroke-linejoin="round"/>
<path d="M17.4311 15.389C17.1226 14.7604 16.7412 14.166 16.2752 13.6435C15.8597 13.1833 15.3713 12.7853 14.7826 12.5722C14.3837 12.4321 13.9799 12.3926 13.5703 12.3867H12.957" stroke="black" stroke-width="1.5" stroke-linecap="round" stroke-linejoin="round"/>
<path d="M11.7511 9.38086H12.9507V15.3812C9.36728 15.3812 8.06836 11.032 8.06836 9.38086" stroke="black" stroke-width="1.5" stroke-linecap="round" stroke-linejoin="round"/>
<path d="M12.75 21C7.77908 21 3.75 16.9709 3.75 12C3.75 7.02908 7.77908 3 12.75 3C17.7209 3 21.75 7.02908 21.75 12C21.75 15.6691 19.555 18.825 16.4063 20.2264" stroke="black" stroke-width="1.5" stroke-linecap="round" stroke-linejoin="round"/>
</svg>