<svg width="25" height="24" viewBox="0 0 25 24" fill="none" xmlns="http://www.w3.org/2000/svg">
<path d="M7.13605 14.6235C6.914 13.6946 5.85611 13.2272 5.029 13.7062C3.72095 14.4635 2.9365 16.0314 3.36994 17.7167C3.69865 18.9966 4.77883 20.0089 6.07623 20.2639C6.26919 20.3018 6.45924 20.325 6.64541 20.3328C7.58791 20.3735 8.29769 19.4766 8.07855 18.5593L7.84293 17.5753" stroke="black" stroke-width="1.5" stroke-linecap="round" stroke-linejoin="round"/>
<path d="M17.3634 14.6235C17.5854 13.6946 18.6433 13.2272 19.4704 13.7062C20.7785 14.4635 21.5629 16.0314 21.1295 17.7167C20.8008 18.9966 19.7206 20.0089 18.4232 20.2639C18.2302 20.3018 18.0402 20.325 17.854 20.3328C16.9115 20.3735 16.2017 19.4766 16.4209 18.5593L16.6565 17.5753" stroke="black" stroke-width="1.5" stroke-linecap="round" stroke-linejoin="round"/>
<path d="M14.5063 3.95669C15.9776 4.34218 17.3693 5.11154 18.5225 6.26478C18.5787 6.32102 18.633 6.37726 18.6873 6.43447C19.1576 6.9319 19.1276 7.72119 18.6437 8.20504C18.1308 8.71799 17.3075 8.68987 16.8052 8.16723C16.7752 8.1362 16.7451 8.10517 16.7141 8.07414C14.2483 5.59863 10.2524 5.59863 7.77685 8.07414C7.7468 8.10419 7.71672 8.13427 7.68764 8.16529C7.18633 8.68696 6.36601 8.71411 5.85403 8.20311C5.37115 7.72022 5.34109 6.93287 5.8104 6.43641C5.8647 6.3792 5.91997 6.32199 5.97718 6.26478C7.4567 4.78525 9.32862 3.93755 11.2578 3.72168" stroke="black" stroke-width="1.5" stroke-linecap="round" stroke-linejoin="round"/>
<path d="M4.62695 13.9736V12.0566C4.62695 10.5982 5.04099 9.23007 5.75175 8.07812" stroke="black" stroke-width="1.5" stroke-linecap="round" stroke-linejoin="round"/>
<path d="M18.748 8.07812C19.4588 9.23007 19.8728 10.5982 19.8728 12.0566V13.9736" stroke="black" stroke-width="1.5" stroke-linecap="round" stroke-linejoin="round"/>
</svg>