<svg width="25" height="24" viewBox="0 0 25 24" fill="none" xmlns="http://www.w3.org/2000/svg">
<path d="M4.05859 18.2131C4.05859 16.6738 5.30565 15.4268 6.84394 15.4268C8.38321 15.4268 9.63026 16.6738 9.63026 18.2131C9.63026 19.7514 8.38321 20.9994 6.84394 20.9994C6.39523 20.9994 5.97129 20.8932 5.59586 20.7046" stroke="black" stroke-width="1.5" stroke-linecap="round" stroke-linejoin="round"/>
<path d="M17.6564 19.0141C19.1957 19.0141 20.4428 17.766 20.4428 16.2277C20.4428 14.6885 19.1957 13.4414 17.6564 13.4414C16.1181 13.4414 14.8711 14.6885 14.8711 16.2277C14.8711 16.7288 15.0034 17.1991 15.235 17.6055" stroke="black" stroke-width="1.5" stroke-linecap="round" stroke-linejoin="round"/>
<path d="M9.63117 18.2137L9.63086 4.98688C13.2381 5.26932 16.9011 4.64482 20.4429 3L20.4427 16.2273" stroke="black" stroke-width="1.5" stroke-linecap="round" stroke-linejoin="round"/>
<path d="M9.63086 9.31122C12.3055 9.52064 15.0108 9.23146 17.6745 8.39746" stroke="black" stroke-width="1.5" stroke-linecap="round" stroke-linejoin="round"/>
</svg>