<svg width="25" height="24" viewBox="0 0 25 24" fill="none" xmlns="http://www.w3.org/2000/svg">
<path d="M2.39273 9.13078C2.51042 8.49303 2.72387 7.94663 3.10973 7.62419C3.9801 6.90014 4.49866 7.08626 6.08125 6.96899C6.50514 6.96899 7.00218 6.84957 7.36259 6.62364L10.4643 4.68495C12.3255 3.52195 14.5977 4.91841 14.7301 7.08626C14.9678 10.3622 14.9678 13.6382 14.7301 16.9142C14.616 19.0788 12.3255 20.4785 10.4643 19.3155L7.36259 17.3768C7.00218 17.1509 6.51159 17.0315 6.08663 17.0315C4.49651 16.9121 3.98656 17.0993 3.10973 16.3763C2.32878 15.7222 2.2543 14.1464 2.25024 12.7554" stroke="black" stroke-width="1.5" stroke-linecap="round" stroke-linejoin="round"/>
<path d="M18.7441 8.51172V15.4876" stroke="black" stroke-width="1.5" stroke-linecap="round" stroke-linejoin="round"/>
<path d="M22.25 6.23047V17.768" stroke="black" stroke-width="1.5" stroke-linecap="round" stroke-linejoin="round"/>
</svg>