<svg width="24" height="25" viewBox="0 0 24 25" fill="none" xmlns="http://www.w3.org/2000/svg">
<g opacity="0.4">
<path fill-rule="evenodd" clip-rule="evenodd" d="M8.14927 20.5752H6.89127C5.15927 20.5752 3.74927 19.1672 3.74927 17.4352V15.8662C3.74927 15.4522 3.41327 15.1162 2.99927 15.1162C2.58527 15.1162 2.24927 15.4522 2.24927 15.8662V17.4352C2.24927 19.9942 4.33227 22.0752 6.89127 22.0752H8.14927C8.56327 22.0752 8.89927 21.7392 8.89927 21.3252C8.89927 20.9112 8.56327 20.5752 8.14927 20.5752Z" fill="black"/>
<path fill-rule="evenodd" clip-rule="evenodd" d="M20.9989 15.1162C20.5849 15.1162 20.2489 15.4522 20.2489 15.8662V17.4352C20.2489 19.1672 18.8389 20.5752 17.1059 20.5752H15.8169C15.4029 20.5752 15.0669 20.9112 15.0669 21.3252C15.0669 21.7392 15.4029 22.0752 15.8169 22.0752H17.1059C19.6659 22.0752 21.7489 19.9942 21.7489 17.4352V15.8662C21.7489 15.4522 21.4129 15.1162 20.9989 15.1162Z" fill="black"/>
<path fill-rule="evenodd" clip-rule="evenodd" d="M2.99878 9.54522C3.41278 9.54522 3.74878 9.20922 3.74878 8.79522V7.22522C3.74878 5.48722 5.15878 4.07422 6.89178 4.07422H8.18078C8.59478 4.07422 8.93078 3.73822 8.93078 3.32422C8.93078 2.91022 8.59478 2.57422 8.18078 2.57422H6.89178C4.33178 2.57422 2.24878 4.66022 2.24878 7.22522V8.79522C2.24878 9.20922 2.58478 9.54522 2.99878 9.54522Z" fill="black"/>
<path fill-rule="evenodd" clip-rule="evenodd" d="M17.1081 2.5752H15.8501C15.4361 2.5752 15.1001 2.9112 15.1001 3.3252C15.1001 3.7392 15.4361 4.0752 15.8501 4.0752H17.1081C18.8401 4.0752 20.2511 5.4882 20.2511 7.2252V8.7962C20.2511 9.2102 20.5871 9.5462 21.0011 9.5462C21.4151 9.5462 21.7511 9.2102 21.7511 8.7962V7.2252C21.7511 4.6612 19.6681 2.5752 17.1081 2.5752Z" fill="black"/>
</g>
<path fill-rule="evenodd" clip-rule="evenodd" d="M13.2948 15.7524C12.9048 16.0024 12.4578 16.1344 12.0008 16.1344C10.6778 16.1344 9.60083 15.0574 9.60083 13.7334V10.9244C9.60083 9.60144 10.6778 8.52344 12.0008 8.52344C13.3248 8.52344 14.4018 9.60144 14.4018 10.9244V13.7334C14.4018 14.2864 14.8498 14.7334 15.4018 14.7334C15.9548 14.7334 16.4018 14.2864 16.4018 13.7334V10.9244C16.4018 8.49744 14.4278 6.52344 12.0008 6.52344C9.57383 6.52344 7.60083 8.49744 7.60083 10.9244V13.7334C7.60083 16.1604 9.57383 18.1344 12.0008 18.1344C12.8408 18.1344 13.6618 17.8934 14.3748 17.4364C14.8398 17.1384 14.9748 16.5204 14.6768 16.0544C14.3788 15.5894 13.7618 15.4534 13.2948 15.7524Z" fill="black"/>
<path fill-rule="evenodd" clip-rule="evenodd" d="M10.9989 11.1348V13.6748C10.9989 14.2278 11.4459 14.6748 11.9989 14.6748C12.5519 14.6748 12.9989 14.2278 12.9989 13.6748V11.1348C12.9989 10.5818 12.5519 10.1348 11.9989 10.1348C11.4459 10.1348 10.9989 10.5818 10.9989 11.1348Z" fill="black"/>
</svg>