<svg width="24" height="24" viewBox="0 0 24 24" fill="none" xmlns="http://www.w3.org/2000/svg">
<path opacity="0.4" fill-rule="evenodd" clip-rule="evenodd" d="M19.9098 14.3077V16.4377C19.9098 18.0977 19.9098 18.9377 19.5598 19.6577C19.2098 20.3777 18.6298 20.9577 17.9198 21.2977C17.1998 21.6477 16.3698 21.6477 14.6998 21.6477H9.29984C7.62984 21.6477 6.79984 21.6477 6.07984 21.2977C5.36984 20.9577 4.78984 20.3777 4.43984 19.6577C4.08984 18.9377 4.08984 18.0977 4.08984 16.4377V14.3077C4.08984 12.6377 4.08984 11.7977 4.43984 11.0777C4.77984 10.3677 5.35984 9.77766 6.07984 9.43766C6.29984 9.32766 6.53984 9.25766 6.80984 9.20766C7.20984 9.13766 7.68984 9.10766 8.30984 9.10766C8.59984 9.09766 8.92984 9.09766 9.29984 9.09766H14.6998C16.3598 9.09766 17.1998 9.09766 17.9198 9.42766C18.6398 9.77766 19.2198 10.3677 19.5598 11.0777C19.9098 11.7977 19.9098 12.6377 19.9098 14.3077Z" fill="black"/>
<path fill-rule="evenodd" clip-rule="evenodd" d="M9.61102 15.3822C9.61102 16.7002 10.683 17.7722 12.001 17.7722C13.319 17.7722 14.391 16.7002 14.391 15.3822C14.391 14.0652 13.319 12.9932 12.001 12.9932C10.683 12.9932 9.61102 14.0652 9.61102 15.3822ZM11.111 15.383C11.111 14.892 11.51 14.493 12.001 14.493C12.492 14.493 12.891 14.892 12.891 15.383C12.891 15.873 12.492 16.272 12.001 16.272C11.51 16.272 11.111 15.873 11.111 15.383Z" fill="black"/>
<path fill-rule="evenodd" clip-rule="evenodd" d="M17.2 7.48547V9.20547C16.8 9.13547 16.32 9.10547 15.7 9.10547V7.49547C15.67 5.48547 14.02 3.85547 12 3.85547H11.96C9.94005 3.88547 8.34005 5.47547 8.30005 7.48547V9.10547C7.68005 9.10547 7.20005 9.13547 6.80005 9.20547V7.47547C6.85005 4.63547 9.11005 2.39547 11.94 2.35547H12C14.84 2.35547 17.17 4.64547 17.2 7.48547Z" fill="black"/>
</svg>