<svg width="24" height="24" viewBox="0 0 24 24" fill="none" xmlns="http://www.w3.org/2000/svg">
<path fill-rule="evenodd" clip-rule="evenodd" d="M5.50487 6.13381C5.21187 5.84081 4.73687 5.84081 4.44387 6.13381C4.15087 6.42681 4.15087 6.90181 4.44387 7.19481L7.55587 10.3048C6.52287 11.5438 5.95887 13.0858 5.95887 14.7248C5.95887 18.5298 9.05687 21.6238 12.8639 21.6238C14.5039 21.6238 16.0449 21.0598 17.2809 20.0258L18.4589 21.2038C18.6059 21.3508 18.7969 21.4238 18.9889 21.4238C19.1819 21.4238 19.3729 21.3508 19.5199 21.2038C19.8129 20.9108 19.8129 20.4368 19.5199 20.1438L5.50487 6.13381Z" fill="black"/>
<path opacity="0.4" fill-rule="evenodd" clip-rule="evenodd" d="M8.73449 6.668C9.12949 6.798 9.55249 6.581 9.67949 6.188C10.1225 4.828 11.3855 3.899 12.8195 3.875C14.6835 3.86 16.2005 5.342 16.2225 7.175V8.727C15.3115 8.217 14.2755 7.901 13.1635 7.854C12.4435 7.826 11.7625 7.897 11.1285 8.07C10.9545 8.118 10.8185 8.256 10.7745 8.431C10.7305 8.605 10.7845 8.791 10.9155 8.915L18.8015 16.402C18.8965 16.492 19.0205 16.54 19.1465 16.54C19.1975 16.54 19.2485 16.532 19.2975 16.517C19.4705 16.462 19.6005 16.317 19.6365 16.14C19.7095 15.781 19.7545 15.417 19.7695 15.056C19.8565 13.03 19.0525 11.172 17.7125 9.848C17.7135 9.829 17.7225 9.814 17.7225 9.795V7.165C17.6895 4.515 15.5085 2.375 12.8445 2.375H12.7995C10.7205 2.41 8.89349 3.756 8.25449 5.723C8.12549 6.117 8.34049 6.54 8.73449 6.668Z" fill="black"/>
</svg>