<svg width="24" height="25" viewBox="0 0 24 25" fill="none" xmlns="http://www.w3.org/2000/svg">
<path opacity="0.4" fill-rule="evenodd" clip-rule="evenodd" d="M16.8799 9.30328V11.7733C16.8799 13.2533 15.6799 14.4533 14.1999 14.4533H9.79986C8.31986 14.4533 7.10986 13.2533 7.10986 11.7733V9.30328C7.10986 8.24328 7.72986 7.33328 8.61986 6.88328C8.97986 6.71328 9.37986 6.61328 9.79986 6.61328H14.1999C14.6199 6.61328 15.0199 6.71328 15.3799 6.88328C16.2699 7.33328 16.8799 8.24328 16.8799 9.30328Z" fill="black"/>
<path fill-rule="evenodd" clip-rule="evenodd" d="M6.22201 22.0763C6.03001 22.0763 5.83801 22.0033 5.69201 21.8563L4.77801 20.9423L3.86301 21.8563C3.57001 22.1493 3.09601 22.1493 2.80301 21.8563C2.51001 21.5633 2.51001 21.0893 2.80301 20.7963L3.71701 19.8823L2.80301 18.9673C2.65601 18.8203 2.58301 18.6283 2.58301 18.4363C2.58301 18.2443 2.65601 18.0533 2.80301 17.9063C3.09601 17.6133 3.57001 17.6133 3.86301 17.9063L4.77801 18.8203L5.69201 17.9063C5.98501 17.6133 6.45901 17.6133 6.75201 17.9063C7.04501 18.1993 7.04501 18.6743 6.75201 18.9673L5.83801 19.8823L6.75201 20.7963C6.89901 20.9423 6.97201 21.1353 6.97201 21.3263C6.97201 21.5183 6.89901 21.7103 6.75201 21.8563C6.60601 22.0033 6.41401 22.0763 6.22201 22.0763Z" fill="black"/>
<path fill-rule="evenodd" clip-rule="evenodd" d="M20.6668 22.0763C20.4748 22.0763 20.2828 22.0033 20.1368 21.8563L19.2218 20.9423L18.3078 21.8563C18.0148 22.1493 17.5408 22.1493 17.2478 21.8563C16.9548 21.5633 16.9548 21.0893 17.2478 20.7963L18.1618 19.8823L17.2478 18.9673C17.1008 18.8203 17.0278 18.6283 17.0278 18.4363C17.0278 18.2443 17.1008 18.0533 17.2478 17.9063C17.5408 17.6133 18.0148 17.6133 18.3078 17.9063L19.2218 18.8203L20.1368 17.9063C20.4298 17.6133 20.9038 17.6133 21.1968 17.9063C21.4898 18.1993 21.4898 18.6743 21.1968 18.9673L20.2828 19.8823L21.1968 20.7963C21.3438 20.9423 21.4168 21.1353 21.4168 21.3263C21.4168 21.5183 21.3438 21.7103 21.1968 21.8563C21.0508 22.0033 20.8588 22.0763 20.6668 22.0763Z" fill="black"/>
<path fill-rule="evenodd" clip-rule="evenodd" d="M13.4449 22.0763C13.2529 22.0763 13.0609 22.0033 12.9149 21.8563L12.0009 20.9423L11.0869 21.8563C10.7939 22.1493 10.3189 22.1493 10.0259 21.8563C9.73291 21.5633 9.73291 21.0893 10.0259 20.7963L10.9399 19.8813L10.0259 18.9673C9.87991 18.8203 9.80591 18.6283 9.80591 18.4363C9.80591 18.2443 9.87991 18.0533 10.0259 17.9063C10.3189 17.6133 10.7939 17.6133 11.0869 17.9063L12.0009 18.8203L12.9149 17.9063C13.2079 17.6133 13.6819 17.6133 13.9749 17.9063C14.2679 18.1993 14.2679 18.6743 13.9749 18.9673L13.0609 19.8813L13.9749 20.7963C14.1219 20.9423 14.1949 21.1353 14.1949 21.3263C14.1949 21.5183 14.1219 21.7103 13.9749 21.8563C13.8289 22.0033 13.6369 22.0763 13.4449 22.0763Z" fill="black"/>
<path fill-rule="evenodd" clip-rule="evenodd" d="M12.001 11.6068C11.587 11.6068 11.251 11.2708 11.251 10.8568V10.2168C11.251 9.8028 11.587 9.4668 12.001 9.4668C12.415 9.4668 12.751 9.8028 12.751 10.2168V10.8568C12.751 11.2708 12.415 11.6068 12.001 11.6068Z" fill="black"/>
<path fill-rule="evenodd" clip-rule="evenodd" d="M15.3801 5.91422V6.88422C15.0201 6.71422 14.6201 6.61422 14.2001 6.61422H13.8801V5.92422C13.8601 4.90422 13.0101 4.11422 11.9701 4.07422C10.9601 4.09422 10.1401 4.90422 10.1201 5.92422V6.61422H9.80012C9.38012 6.61422 8.98012 6.71422 8.62012 6.88422V5.91422C8.65012 4.06422 10.1201 2.60422 11.9601 2.57422H11.9801C13.8301 2.57422 15.3501 4.07422 15.3801 5.91422Z" fill="black"/>
</svg>