<svg width="24" height="25" viewBox="0 0 24 25" fill="none" xmlns="http://www.w3.org/2000/svg">
<path opacity="0.4" fill-rule="evenodd" clip-rule="evenodd" d="M16.217 2.89844H7.782C4.623 2.89844 2.5 5.12044 2.5 8.42844V12.4784C2.5 15.7854 4.623 18.0084 7.782 18.0084H13.04C13.0483 18.0084 13.055 18.0017 13.055 17.9934C13.055 17.0319 13.4635 16.1706 14.1071 15.5507C14.1655 15.4945 14.2013 15.4185 14.2072 15.3377C14.3473 13.4128 15.8922 11.9255 17.822 11.8844C19.0395 11.8852 20.1431 12.4793 20.833 13.398C21.0048 13.6266 21.4055 13.578 21.4439 13.2947C21.4795 13.0322 21.5 12.761 21.5 12.4784V8.42844C21.5 5.12044 19.377 2.89844 16.217 2.89844Z" fill="black"/>
<path d="M8.09398 11.3882C7.53698 11.3882 7.08398 10.9352 7.08398 10.3782C7.08398 9.82119 7.53698 9.36719 8.09398 9.36719C8.65198 9.36719 9.10498 9.82119 9.10498 10.3782C9.10498 10.9352 8.65198 11.3882 8.09398 11.3882Z" fill="black"/>
<path d="M10.99 10.3782C10.99 10.9352 11.443 11.3882 12 11.3882C12.557 11.3882 13.01 10.9352 13.01 10.3782C13.01 9.82119 12.557 9.36719 12 9.36719C11.443 9.36719 10.99 9.82119 10.99 10.3782Z" fill="black"/>
<path d="M14.894 10.3782C14.894 10.9352 15.348 11.3882 15.906 11.3882C16.463 11.3882 16.916 10.9352 16.916 10.3782C16.916 9.82119 16.463 9.36719 15.906 9.36719C15.348 9.36719 14.894 9.82119 14.894 10.3782Z" fill="black"/>
<path fill-rule="evenodd" clip-rule="evenodd" d="M20.3334 15.5533V16.1043C21.0064 16.4703 21.4694 17.1753 21.4694 17.9923V19.5933C21.4694 20.7843 20.4994 21.7533 19.3084 21.7533H16.4654C15.2744 21.7533 14.3054 20.7843 14.3054 19.5933V17.9923C14.3054 17.1753 14.7674 16.4703 15.4404 16.1043V15.5533C15.4624 14.2193 16.5214 13.1613 17.8494 13.1333H17.8754C19.2204 13.1333 20.3174 14.2133 20.3334 15.5533ZM19.3084 20.2533C19.6724 20.2533 19.9694 19.9573 19.9694 19.5933V17.9923C19.9694 17.6293 19.6724 17.3333 19.3084 17.3333H16.4654C16.1014 17.3333 15.8054 17.6293 15.8054 17.9923V19.5933C15.8054 19.9573 16.1014 20.2533 16.4654 20.2533H19.3084ZM17.8824 14.6333H17.8724C17.3624 14.6443 16.9484 15.0543 16.9404 15.5663V15.8333H18.8334V15.5633C18.8264 15.0523 18.4024 14.6333 17.8824 14.6333Z" fill="black"/>
</svg>