<svg width="24" height="25" viewBox="0 0 24 25" fill="none" xmlns="http://www.w3.org/2000/svg">
<g opacity="0.4">
<path fill-rule="evenodd" clip-rule="evenodd" d="M21.2512 14.6741C20.1912 16.1341 18.6212 16.9841 17.0012 16.9841C16.8812 16.9841 16.7612 16.9741 16.6412 16.9741C15.1012 16.8541 13.7512 15.9541 13.0412 14.5741C12.9312 14.3641 12.9312 14.1141 13.0312 13.9041L13.1212 13.7141L13.8512 12.2241L16.4812 6.83406C16.5812 6.64406 16.7512 6.50406 16.9512 6.44406L17.0412 6.42406C17.0812 6.41406 17.1212 6.41406 17.1712 6.41406C17.2412 6.41406 17.3012 6.42406 17.3612 6.44406C17.4312 6.46406 17.4912 6.48406 17.5412 6.51406C17.5512 6.51406 17.5512 6.52406 17.5512 6.52406C17.6112 6.56406 17.6612 6.60406 17.7112 6.65406C17.7512 6.69406 17.7812 6.74406 17.8112 6.79406C17.8312 6.82406 17.8512 6.86406 17.8712 6.91406L20.4912 12.2241L21.2312 13.7141L21.3212 13.9041C21.4412 14.1541 21.4212 14.4541 21.2512 14.6741Z" fill="black"/>
<path fill-rule="evenodd" clip-rule="evenodd" d="M10.9013 16.4045C9.83133 17.8745 8.26133 18.7245 6.64133 18.7245C6.52133 18.7245 6.40133 18.7145 6.28133 18.7045C4.74133 18.5845 3.40133 17.6945 2.68133 16.3045C2.58133 16.0945 2.57133 15.8445 2.68133 15.6345L2.77133 15.4545L3.49133 13.9645L6.09133 8.64453C6.14133 8.52453 6.21133 8.41453 6.31133 8.33453C6.36133 8.29453 6.42133 8.25453 6.48133 8.22453C6.54133 8.19453 6.60133 8.17453 6.67133 8.16453L6.80133 8.14453C7.05133 8.15453 7.35133 8.30453 7.47133 8.56453L10.1413 13.9645L10.8713 15.4545L10.9613 15.6345C11.0913 15.8845 11.0613 16.1845 10.9013 16.4045Z" fill="black"/>
</g>
<path fill-rule="evenodd" clip-rule="evenodd" d="M15.9094 20.5742H8.08936C7.67536 20.5742 7.33936 20.9102 7.33936 21.3242C7.33936 21.7382 7.67536 22.0742 8.08936 22.0742H15.9094C16.3234 22.0742 16.6594 21.7382 16.6594 21.3242C16.6594 20.9102 16.3234 20.5742 15.9094 20.5742Z" fill="black"/>
<path fill-rule="evenodd" clip-rule="evenodd" d="M10.8712 15.4548L10.1412 13.9648H3.49124L2.77124 15.4548C2.79124 15.4648 2.81124 15.4648 2.83124 15.4648H10.8212C10.8412 15.4648 10.8512 15.4648 10.8712 15.4548Z" fill="black"/>
<path fill-rule="evenodd" clip-rule="evenodd" d="M20.4912 12.2246H13.8512L13.1212 13.7146C13.1412 13.7246 13.1612 13.7246 13.1812 13.7246H21.1712C21.1912 13.7246 21.2112 13.7246 21.2312 13.7146L20.4912 12.2246Z" fill="black"/>
<path fill-rule="evenodd" clip-rule="evenodd" d="M16.9513 6.44422C16.7513 6.50422 16.5813 6.64422 16.4813 6.83422L15.8413 8.14422L7.92127 9.47422L7.47127 8.56422C7.35127 8.30422 7.05127 8.15422 6.80127 8.14422L11.4013 7.37422V3.32422C11.4013 2.91422 11.7413 2.57422 12.1513 2.57422C12.5713 2.57422 12.9013 2.91422 12.9013 3.32422V7.11422L16.9513 6.44422Z" fill="black"/>
</svg>