<svg width="24" height="25" viewBox="0 0 24 25" fill="none" xmlns="http://www.w3.org/2000/svg">
<path opacity="0.4" fill-rule="evenodd" clip-rule="evenodd" d="M12.0004 3.35938C7.0564 3.35938 3.0354 7.38338 3.0354 12.3294C3.0354 17.2704 7.0564 21.2894 12.0004 21.2894C16.9424 21.2894 20.9644 17.2704 20.9644 12.3294C20.9644 7.38338 16.9424 3.35938 12.0004 3.35938Z" fill="black"/>
<path d="M15.2605 10.3023H16.8395C17.2535 10.3023 17.5895 9.96625 17.5895 9.55225C17.5895 9.13825 17.2535 8.80225 16.8395 8.80225H15.6995V7.65625C15.6995 7.24225 15.3635 6.90625 14.9495 6.90625C14.5355 6.90625 14.1995 7.24225 14.1995 7.65625V9.24125L10.8525 12.5892C10.5595 12.8822 10.5595 13.3572 10.8525 13.6502C10.9985 13.7962 11.1905 13.8692 11.3825 13.8692C11.5745 13.8692 11.7665 13.7962 11.9125 13.6502L15.2605 10.3023Z" fill="black"/>
<path d="M11.4945 17.5632C11.5485 17.5642 11.6025 17.5652 11.6555 17.5652C14.2555 17.5652 16.4125 15.4952 16.4985 12.8792C16.5125 12.4653 16.1875 12.1182 15.7735 12.1052C15.3725 12.0972 15.0125 12.4163 14.9985 12.8302C14.9395 14.6733 13.3605 16.1562 11.5435 16.0632C9.6985 16.0022 8.2455 14.4543 8.3065 12.6122C8.3645 10.8012 9.8555 9.36825 11.6515 9.36825C11.6885 9.36825 11.7255 9.36825 11.7625 9.37025C12.1865 9.37325 12.5235 9.05925 12.5365 8.64525C12.5495 8.23125 12.2255 7.88425 11.8115 7.87025C9.1835 7.80425 6.8955 9.88725 6.8065 12.5632C6.7205 15.2322 8.8225 17.4752 11.4945 17.5632Z" fill="black"/>
</svg>