<svg width="25" height="24" viewBox="0 0 25 24" fill="none" xmlns="http://www.w3.org/2000/svg">
<path opacity="0.4" d="M14.7927 20.4147V20.3787C14.8014 16.8224 13.7447 14.1895 11.5234 16.0791C9.63289 17.6738 8.19967 18.2197 7.25879 18.3549" stroke="black" stroke-width="1.5" stroke-linecap="round" stroke-linejoin="round"/>
<path d="M7.18527 11.8796C8.07751 11.8465 8.79849 11.4009 9.29277 10.8793C10.1354 9.99101 10.4925 8.7086 10.4633 7.50696C10.4185 5.66509 9.86684 4.12874 9.71797 3.81641C9.37256 3.831 7.75642 4.06452 6.10914 4.88962C5.03302 5.42768 4.06878 6.34521 3.67959 7.50599C3.3478 8.49357 3.3799 9.82949 4.61074 10.8793L5.19356 11.3376" stroke="black" stroke-width="1.5" stroke-linecap="round" stroke-linejoin="round"/>
<path d="M5.90625 16.4541C7.14098 19.0286 9.88189 20.5903 12.9118 20.5903C17.6551 20.5903 21.5004 16.746 21.5004 12.0027C21.5004 7.25932 17.6551 3.41406 12.9118 3.41406" stroke="black" stroke-width="1.5" stroke-linecap="round" stroke-linejoin="round"/>
<path d="M6.67284 8.55078C6.67284 8.55078 4.61108 10.3888 5.11703 13.8672" stroke="black" stroke-width="1.5" stroke-linecap="round" stroke-linejoin="round"/>
<path opacity="0.4" d="M15.2417 3.73438C15.0802 4.20044 14.4896 6.19799 15.8148 7.5952C17.32 9.18021 18.6102 9.26972 18.5654 10.99C18.5294 12.719 16.3976 12.6917 17.5526 15.4336C18.0274 16.5623 18.5917 17.4574 18.9147 18.1385" stroke="black" stroke-width="1.5" stroke-linecap="round" stroke-linejoin="round"/>
</svg>