<svg width="25" height="24" viewBox="0 0 25 24" fill="none" xmlns="http://www.w3.org/2000/svg">
<path d="M11.4239 21C6.95598 20.4551 3.49512 16.6489 3.49512 12.0331C3.49512 7.04465 7.53977 3 12.5292 3C17.1722 3 20.9979 6.50368 21.5048 11.0115" stroke="black" stroke-width="1.5" stroke-linecap="round" stroke-linejoin="round"/>
<path opacity="0.4" d="M7.12431 4.91016C7.12431 4.91016 9.3096 10.9348 3.49512 12.0343" stroke="black" stroke-width="1.5" stroke-linecap="round" stroke-linejoin="round"/>
<path opacity="0.4" d="M4.55566 16.2749C5.42939 15.9928 6.50161 15.4664 7.78885 14.546C9.47112 13.3336 10.4305 14.2453 10.7681 16.1154" stroke="black" stroke-width="1.5" stroke-linecap="round" stroke-linejoin="round"/>
<path fill-rule="evenodd" clip-rule="evenodd" d="M17.1633 13.4141C18.8806 13.4141 20.273 14.8064 20.273 16.5237C20.273 18.241 18.8806 19.6333 17.1633 19.6333C15.446 19.6333 14.0537 18.241 14.0537 16.5237C14.0537 14.8064 15.446 13.4141 17.1633 13.4141Z" stroke="black" stroke-width="1.5" stroke-linecap="round" stroke-linejoin="round"/>
<path d="M19.2793 18.8008L20.8438 20.3624" stroke="black" stroke-width="1.5" stroke-linecap="round" stroke-linejoin="round"/>
<path opacity="0.4" d="M12.9301 3C12.9301 3 12.3152 5.54627 14.0763 6.92205C15.8364 8.29978 17.1519 8.19762 17.3708 9.948" stroke="black" stroke-width="1.5" stroke-linecap="round" stroke-linejoin="round"/>
</svg>