<svg width="25" height="24" viewBox="0 0 25 24" fill="none" xmlns="http://www.w3.org/2000/svg">
<path fill-rule="evenodd" clip-rule="evenodd" d="M12.5 3C17.4709 3 21.5 7.02908 21.5 12C21.5 16.9709 17.4709 21 12.5 21C7.52908 21 3.5 16.9709 3.5 12C3.5 7.02908 7.52908 3 12.5 3Z" stroke="black" stroke-width="1.5" stroke-linecap="round" stroke-linejoin="round"/>
<path opacity="0.4" d="M7.11654 4.90234C7.11654 4.90234 9.29405 10.9046 3.5 12.0002" stroke="black" stroke-width="1.5" stroke-linecap="round" stroke-linejoin="round"/>
<path opacity="0.4" d="M4.38965 15.9119C5.32565 15.9771 7.0303 15.6969 9.53084 13.8989C12.5081 11.7544 13.1921 16.2865 12.2464 20.987" stroke="black" stroke-width="1.5" stroke-linecap="round" stroke-linejoin="round"/>
<path opacity="0.4" d="M12.9035 3C12.9035 3 12.2906 5.53654 14.0448 6.90843C15.7991 8.27935 17.1097 8.17913 17.3276 9.9227C17.5456 11.6663 15.3934 11.9591 16.9676 14.5541C18.0068 16.2675 19.1802 17.3397 19.1364 18.049" stroke="black" stroke-width="1.5" stroke-linecap="round" stroke-linejoin="round"/>
</svg>