<svg width="25" height="24" viewBox="0 0 25 24" fill="none" xmlns="http://www.w3.org/2000/svg">
<path opacity="0.4" d="M8.28216 3H16.7169C19.665 3 21.5 5.08119 21.5 8.02638V15.9736C21.5 18.9188 19.665 21 16.7159 21H8.28216C5.33405 21 3.5 18.9188 3.5 15.9736V8.02638C3.5 5.08119 5.34281 3 8.28216 3Z" stroke="black" stroke-width="1.5" stroke-linecap="round" stroke-linejoin="round"/>
<path fill-rule="evenodd" clip-rule="evenodd" d="M14.1001 14.7116L14.1877 13.9293C14.2275 13.5703 14.3871 13.2366 14.6391 12.9787L15.5955 12.0067C15.8028 11.7956 16.0937 11.7148 16.3895 11.7284C16.6639 11.7401 16.9421 11.6302 17.1358 11.3957C17.4442 11.023 17.38 10.4646 17.0375 10.1221L14.6187 7.70326C14.2762 7.36077 13.7177 7.29656 13.3441 7.60499C13.1096 7.79861 13.0006 8.07688 13.0123 8.35126C13.0249 8.64607 12.9442 8.93796 12.734 9.14521L11.7611 10.1016C11.5042 10.3536 11.1695 10.5132 10.8114 10.5531L10.0292 10.6397C9.18462 10.7341 8.82462 11.7635 9.42495 12.3638L12.3769 15.3158C12.9773 15.9161 14.0057 15.5552 14.1001 14.7116Z" stroke="black" stroke-width="1.5" stroke-linecap="round" stroke-linejoin="round"/>
<path d="M10.8648 13.875L9.17188 15.568" stroke="black" stroke-width="1.5" stroke-linecap="round" stroke-linejoin="round"/>
</svg>