<svg width="25" height="24" viewBox="0 0 25 24" fill="none" xmlns="http://www.w3.org/2000/svg">
<path d="M7.49316 8.48454C7.49316 12.0476 11.7004 15.4531 12.5011 15.4531C13.3019 15.4531 17.5091 12.0476 17.5091 8.48454C17.5091 5.71833 15.2664 3.47656 12.5011 3.47656C9.73493 3.47656 7.49316 5.71833 7.49316 8.48454Z" stroke="black" stroke-width="1.5" stroke-linecap="round" stroke-linejoin="round"/>
<path opacity="0.4" d="M15.4666 13.1328H18.5471C19.8743 13.1328 20.9923 14.1087 21.1732 15.4261L21.4758 17.6631C21.685 19.1702 20.5097 20.5256 18.983 20.5256H6.01697C4.49035 20.5256 3.31498 19.1702 3.52417 17.6631L3.82677 15.4261C4.00677 14.1087 5.12571 13.1328 6.45287 13.1328H9.53335" stroke="black" stroke-width="1.5" stroke-linecap="round" stroke-linejoin="round"/>
<path fill-rule="evenodd" clip-rule="evenodd" d="M13.9929 8.44178C13.9929 7.61766 13.3245 6.94922 12.5004 6.94922C11.6763 6.94922 11.0078 7.61766 11.0078 8.44178C11.0078 9.26591 11.6763 9.93435 12.5004 9.93435C13.3245 9.93435 13.9929 9.26591 13.9929 8.44178Z" stroke="black" stroke-width="1.5" stroke-linecap="round" stroke-linejoin="round"/>
</svg>