<svg width="24" height="24" viewBox="0 0 24 24" fill="none" xmlns="http://www.w3.org/2000/svg">
<path fill-rule="evenodd" clip-rule="evenodd" d="M3.58783 6.75682C4.47634 5.90485 5.71381 5.50781 7.12349 5.50781H14.4344C15.8441 5.50781 17.0826 5.91318 17.9712 6.77813C18.8631 7.64628 19.3079 8.8854 19.3079 10.3618V13.7118C19.3079 15.1713 18.8608 16.3939 17.966 17.2482C17.0765 18.0974 15.8395 18.4918 14.4344 18.4918H7.11571C5.70737 18.4918 4.46962 18.0977 3.58147 17.2475C2.68815 16.3924 2.24591 15.1691 2.25003 13.7107V10.2957C2.25003 8.83769 2.69447 7.61342 3.58783 6.75682ZM4.62599 7.83951C4.09418 8.34945 3.75003 9.1441 3.75003 10.2957V13.7118L3.75003 13.714C3.74659 14.8656 4.08907 15.6569 4.61873 16.1639C5.15379 16.6762 5.97777 16.9918 7.11571 16.9918H14.4344C15.5678 16.9918 16.3926 16.6765 16.9302 16.1632C17.4625 15.6551 17.8079 14.8628 17.8079 13.7118V10.3618C17.8079 9.18688 17.4602 8.37399 16.9249 7.85298C16.3864 7.32877 15.5632 7.00781 14.4344 7.00781H7.12349C5.9869 7.00781 5.16264 7.32494 4.62599 7.83951Z" fill="black"/>
<path fill-rule="evenodd" clip-rule="evenodd" d="M6.86523 9.42676C7.27945 9.42676 7.61523 9.76254 7.61523 10.1768V13.8235C7.61523 14.2377 7.27945 14.5735 6.86523 14.5735C6.45102 14.5735 6.11523 14.2377 6.11523 13.8235V10.1768C6.11523 9.76254 6.45102 9.42676 6.86523 9.42676Z" fill="black"/>
<path fill-rule="evenodd" clip-rule="evenodd" d="M10.7246 9.42676C11.1388 9.42676 11.4746 9.76254 11.4746 10.1768V13.8235C11.4746 14.2377 11.1388 14.5735 10.7246 14.5735C10.3104 14.5735 9.97461 14.2377 9.97461 13.8235V10.1768C9.97461 9.76254 10.3104 9.42676 10.7246 9.42676Z" fill="black"/>
<path fill-rule="evenodd" clip-rule="evenodd" d="M17.6562 9.06445C17.6562 8.65024 17.992 8.31445 18.4062 8.31445H19.206C20.0012 8.31445 20.7022 8.54742 21.1751 9.13483C21.6198 9.68712 21.7502 10.4195 21.7502 11.1632V12.8717C21.7502 13.6058 21.6191 14.3311 21.1706 14.8773C20.6959 15.4556 19.9961 15.6815 19.206 15.6815H18.414C17.9998 15.6815 17.664 15.3457 17.664 14.9315C17.664 14.5173 17.9998 14.1815 18.414 14.1815H19.206C19.7169 14.1815 19.9141 14.044 20.0112 13.9256C20.1347 13.7752 20.2502 13.4706 20.2502 12.8717V11.1632C20.2502 10.5505 20.134 10.2335 20.0068 10.0755C19.9078 9.95267 19.7118 9.81445 19.206 9.81445H18.4062C17.992 9.81445 17.6562 9.47867 17.6562 9.06445Z" fill="black"/>
</svg>
