<svg width="24" height="24" viewBox="0 0 24 24" fill="none" xmlns="http://www.w3.org/2000/svg">
<path d="M14.0339 21.0543H9.96391C8.88063 21.0522 7.84237 20.6207 7.07666 19.8544C6.31095 19.0882 5.88023 18.0496 5.87891 16.9663V7.03531C5.88155 5.95156 6.31317 4.91293 7.07941 4.14651C7.84564 3.38008 8.88416 2.94822 9.96791 2.94531H14.0369C15.1211 2.94664 16.1606 3.378 16.9272 4.14477C17.6937 4.91153 18.1248 5.95107 18.1259 7.03531V16.9653C18.1248 18.05 17.6933 19.0899 16.926 19.8566C16.1588 20.6233 15.1186 21.054 14.0339 21.0543V21.0543ZM9.96391 4.44231C9.27751 4.44416 8.61986 4.71821 8.13525 5.20432C7.65064 5.69042 7.37864 6.34891 7.37891 7.03531V16.9693C7.37996 17.6554 7.65296 18.313 8.13808 18.7981C8.62319 19.2832 9.28085 19.5563 9.9669 19.5573H14.0369C14.7233 19.5565 15.3814 19.2835 15.8667 18.7981C16.3521 18.3128 16.6251 17.6547 16.6259 16.9683V7.03531C16.6254 6.34873 16.3525 5.69042 15.8671 5.20484C15.3817 4.71927 14.7235 4.44611 14.0369 4.44531L9.96391 4.44231Z" fill="black"/>
<path d="M3.71808 16.8669C3.56984 16.8667 3.42496 16.8227 3.30174 16.7403C3.17853 16.6578 3.08252 16.5408 3.0258 16.4038C2.96909 16.2668 2.95424 16.1161 2.98313 15.9707C3.01201 15.8253 3.08332 15.6918 3.18808 15.5869L3.97308 14.8019C4.11526 14.6694 4.3033 14.5973 4.49761 14.6007C4.69191 14.6041 4.8773 14.6828 5.01471 14.8203C5.15212 14.9577 5.23083 15.1431 5.23425 15.3374C5.23768 15.5317 5.16556 15.7197 5.03308 15.8619L4.24808 16.6469C4.1787 16.7168 4.09612 16.7723 4.00514 16.81C3.91416 16.8478 3.81659 16.8671 3.71808 16.8669V16.8669Z" fill="black"/>
<path d="M4.5043 9.43545C4.40588 9.43566 4.3084 9.41641 4.21745 9.37883C4.12649 9.34125 4.04386 9.28606 3.9743 9.21645L3.1893 8.43145C3.05261 8.29006 2.97693 8.10064 2.97854 7.90399C2.98016 7.70734 3.05894 7.5192 3.19793 7.38007C3.33692 7.24095 3.525 7.16199 3.72164 7.16019C3.91829 7.15839 4.10778 7.23389 4.24929 7.37045L5.0343 8.15545C5.13905 8.26034 5.21038 8.39391 5.23927 8.53931C5.26815 8.68471 5.2533 8.8354 5.19659 8.97237C5.13988 9.10933 5.04385 9.22642 4.92063 9.30884C4.79742 9.39126 4.65254 9.43532 4.5043 9.43545Z" fill="black"/>
<path d="M20.278 16.8669C20.1795 16.8671 20.0819 16.8478 19.9909 16.81C19.9 16.7723 19.8174 16.7168 19.748 16.6469L18.963 15.8619C18.8305 15.7197 18.7584 15.5317 18.7618 15.3374C18.7653 15.1431 18.844 14.9577 18.9814 14.8203C19.1188 14.6828 19.3042 14.6041 19.4985 14.6007C19.6928 14.5973 19.8808 14.6694 20.023 14.8019L20.808 15.5869C20.9128 15.6918 20.9841 15.8253 21.013 15.9707C21.0419 16.1161 21.027 16.2668 20.9703 16.4038C20.9136 16.5408 20.8176 16.6578 20.6943 16.7403C20.5711 16.8227 20.4262 16.8667 20.278 16.8669Z" fill="black"/>
<path d="M19.4954 9.43545C19.3472 9.43532 19.2023 9.39126 19.0791 9.30884C18.9559 9.22642 18.8599 9.10933 18.8031 8.97237C18.7464 8.8354 18.7316 8.68471 18.7605 8.53931C18.7894 8.39391 18.8607 8.26034 18.9654 8.15545L19.7504 7.37045C19.8919 7.23389 20.0814 7.15839 20.2781 7.16019C20.4747 7.16199 20.6628 7.24095 20.8018 7.38007C20.9408 7.5192 21.0196 7.70734 21.0212 7.90399C21.0228 8.10064 20.9471 8.29006 20.8104 8.43145L20.0254 9.21645C19.9559 9.28606 19.8732 9.34125 19.7823 9.37883C19.6913 9.41641 19.5939 9.43566 19.4954 9.43545V9.43545Z" fill="black"/>
<path d="M4.11099 12.7549H3C2.80109 12.7549 2.61032 12.6759 2.46967 12.5352C2.32901 12.3946 2.25 12.2038 2.25 12.0049C2.25 11.806 2.32901 11.6152 2.46967 11.4745C2.61032 11.3339 2.80109 11.2549 3 11.2549H4.11099C4.3099 11.2549 4.50067 11.3339 4.64133 11.4745C4.78198 11.6152 4.86099 11.806 4.86099 12.0049C4.86099 12.2038 4.78198 12.3946 4.64133 12.5352C4.50067 12.6759 4.3099 12.7549 4.11099 12.7549Z" fill="black"/>
<path d="M20.9997 12.7549H19.8887C19.6898 12.7549 19.499 12.6759 19.3584 12.5352C19.2177 12.3946 19.1387 12.2038 19.1387 12.0049C19.1387 11.806 19.2177 11.6152 19.3584 11.4745C19.499 11.3339 19.6898 11.2549 19.8887 11.2549H20.9997C21.1986 11.2549 21.3894 11.3339 21.53 11.4745C21.6707 11.6152 21.7497 11.806 21.7497 12.0049C21.7497 12.2038 21.6707 12.3946 21.53 12.5352C21.3894 12.6759 21.1986 12.7549 20.9997 12.7549V12.7549Z" fill="black"/>
<path d="M12 17.8467C11.8022 17.8467 11.6089 17.788 11.4444 17.6782C11.28 17.5683 11.1518 17.4121 11.0761 17.2294C11.0004 17.0466 10.9806 16.8456 11.0192 16.6516C11.0578 16.4576 11.153 16.2794 11.2929 16.1396C11.4328 15.9997 11.6109 15.9045 11.8049 15.8659C11.9989 15.8273 12.2 15.8471 12.3827 15.9228C12.5654 15.9985 12.7216 16.1267 12.8315 16.2911C12.9414 16.4556 13 16.6489 13 16.8467C13 17.1119 12.8946 17.3662 12.7071 17.5538C12.5196 17.7413 12.2652 17.8467 12 17.8467Z" fill="black"/>
</svg>
