<svg width="24" height="24" viewBox="0 0 24 24" fill="none" xmlns="http://www.w3.org/2000/svg">
<path fill-rule="evenodd" clip-rule="evenodd" d="M12.9238 3C12.9238 2.58579 13.2596 2.25 13.6738 2.25H15.5886C18.0003 2.25 19.9561 4.20575 19.9561 6.61745C19.9561 6.61747 19.9561 6.61742 19.9561 6.61745L19.9571 17.3814C19.9571 19.794 18.0015 21.75 15.5896 21.75H10.0738C7.66228 21.75 5.70641 19.7954 5.7063 17.3827C5.7063 17.3826 5.7063 17.3828 5.7063 17.3827L5.70532 13.8187C5.70521 13.4045 6.0409 13.0686 6.45512 13.0685C6.86933 13.0684 7.20521 13.4041 7.20532 13.8183L7.2063 17.3823C7.2063 18.9664 8.49038 20.25 10.0738 20.25H15.5896C17.1727 20.25 18.4571 18.966 18.4571 17.3816C18.4571 17.3816 18.4571 17.3816 18.4571 17.3816L18.4561 6.61758C18.4561 5.03428 17.1719 3.75 15.5886 3.75H13.6738C13.2596 3.75 12.9238 3.41421 12.9238 3Z" fill="black"/>
<path fill-rule="evenodd" clip-rule="evenodd" d="M7.69146 4.12305C6.50513 4.12305 5.54297 5.08521 5.54297 6.27153C5.54297 7.45867 6.50496 8.42002 7.69146 8.42002C8.25087 8.42002 8.76038 8.20631 9.14269 7.85599C9.14981 7.84911 9.15703 7.8424 9.16435 7.83586C9.58027 7.44414 9.83994 6.88831 9.83994 6.27153C9.83994 5.08521 8.87778 4.12305 7.69146 4.12305ZM10.6861 8.35651C11.0982 7.76562 11.3399 7.04693 11.3399 6.27153C11.3399 4.25678 9.70621 2.62305 7.69146 2.62305C5.6767 2.62305 4.04297 4.25678 4.04297 6.27153C4.04297 8.28742 5.67687 9.92002 7.69146 9.92002C8.3884 9.92002 9.03979 9.72463 9.59373 9.38557L10.5922 10.3821C10.8854 10.6747 11.3603 10.6742 11.6529 10.381C11.9455 10.0878 11.945 9.61295 11.6518 9.32035L10.6861 8.35651Z" fill="black"/>
<path fill-rule="evenodd" clip-rule="evenodd" d="M11.8298 17.2791C11.8298 16.7262 12.2785 16.2793 12.8301 16.2793C13.3816 16.2793 13.8303 16.7262 13.8303 17.2791C13.8303 17.8315 13.3825 18.2793 12.8301 18.2793C12.2776 18.2793 11.8298 17.8315 11.8298 17.2791Z" fill="black"/>
</svg>
