<svg width="24" height="24" viewBox="0 0 24 24" fill="none" xmlns="http://www.w3.org/2000/svg">
<path fill-rule="evenodd" clip-rule="evenodd" d="M2.62402 6.61849C2.62402 4.20592 4.57968 2.25 6.99154 2.25H17.0073C19.419 2.25 21.3748 4.20575 21.3748 6.61745C21.3748 6.61747 21.3748 6.61742 21.3748 6.61745L21.3758 17.3814C21.3758 19.7941 19.42 21.75 17.0073 21.75H6.99251C4.58081 21.75 2.62503 19.7943 2.625 17.3826C2.625 17.3825 2.625 17.3826 2.625 17.3826L2.62402 6.61849ZM4.12402 6.61849C4.12402 6.61851 4.12402 6.61846 4.12402 6.61849L4.125 17.3824C4.125 18.9657 5.40921 20.25 6.99251 20.25H17.0073C18.5916 20.25 19.8758 18.9658 19.8758 17.3816C19.8758 17.3816 19.8758 17.3816 19.8758 17.3816L19.8748 6.61758C19.8748 5.03428 18.5906 3.75 17.0073 3.75H6.99154C5.40839 3.75 4.12406 5.03411 4.12402 6.61849Z" fill="black"/>
<path fill-rule="evenodd" clip-rule="evenodd" d="M11.0007 17.2791C11.0007 16.7262 11.4494 16.2793 12.001 16.2793C12.5525 16.2793 13.0012 16.7262 13.0012 17.2791C13.0012 17.8315 12.5534 18.2793 12.001 18.2793C11.4485 18.2793 11.0007 17.8315 11.0007 17.2791Z" fill="black"/>
</svg>
