<svg width="24" height="24" viewBox="0 0 24 24" fill="none" xmlns="http://www.w3.org/2000/svg">
<path fill-rule="evenodd" clip-rule="evenodd" d="M4.87402 6.61849C4.87402 4.20579 6.82981 2.25 9.24251 2.25H10.2573C10.6715 2.25 11.0073 2.58579 11.0073 3C11.0073 3.41421 10.6715 3.75 10.2573 3.75H9.24251C7.65826 3.75 6.37406 5.03418 6.37402 6.61842C6.37402 6.61844 6.37402 6.6184 6.37402 6.61842L6.375 17.3824C6.375 18.9656 7.65908 20.25 9.24348 20.25H14.7583C16.3426 20.25 17.6266 18.9658 17.6258 17.3819V12.0175C17.6258 11.6033 17.9616 11.2675 18.3758 11.2675C18.79 11.2675 19.1258 11.6033 19.1258 12.0175V17.3811C19.1258 17.3813 19.1258 17.381 19.1258 17.3811C19.1268 19.794 17.1708 21.75 14.7583 21.75H9.24348C6.83094 21.75 4.87503 19.7944 4.875 17.3826C4.875 17.3825 4.875 17.3826 4.875 17.3826L4.87402 6.61849Z" fill="black"/>
<path fill-rule="evenodd" clip-rule="evenodd" d="M12.1016 7.40112C12.1016 6.98691 12.4373 6.65112 12.8516 6.65112H14.6516C15.0658 6.65112 15.4016 6.98691 15.4016 7.40112C15.4016 7.81534 15.0658 8.15112 14.6516 8.15112H13.6016V9.07561C13.6016 9.48982 13.2658 9.82561 12.8516 9.82561C12.4373 9.82561 12.1016 9.48982 12.1016 9.07561V7.40112Z" fill="black"/>
<path fill-rule="evenodd" clip-rule="evenodd" d="M18.3781 2.25C18.7923 2.25 19.1281 2.58579 19.1281 3V4.8C19.1281 5.21421 18.7923 5.55 18.3781 5.55H16.5781C16.1639 5.55 15.8281 5.21421 15.8281 4.8C15.8281 4.38579 16.1639 4.05 16.5781 4.05H17.6281V3C17.6281 2.58579 17.9639 2.25 18.3781 2.25Z" fill="black"/>
<path fill-rule="evenodd" clip-rule="evenodd" d="M15.4515 3.93945C14.6394 3.93945 13.9395 4.37331 13.5652 5.02865C13.3598 5.38833 12.9017 5.51339 12.542 5.30797C12.1823 5.10255 12.0573 4.64443 12.2627 4.28475C12.8964 3.1751 14.086 2.43945 15.4515 2.43945C16.6495 2.43945 17.5445 2.93961 18.1256 3.42276C18.4156 3.66388 18.6329 3.90475 18.7792 4.08749C18.8527 4.17925 18.9093 4.25754 18.9491 4.31553C18.969 4.34457 18.9848 4.36863 18.9965 4.38689L19.011 4.40986L19.0159 4.41791L19.0178 4.42105L19.0186 4.42239L19.019 4.42301C19.0192 4.4233 19.0193 4.42358 18.3762 4.80945L19.0193 4.42358C19.2324 4.77877 19.1173 5.23946 18.7621 5.45257C18.4082 5.6649 17.9496 5.55135 17.7355 5.19924C17.7357 5.19959 17.7358 5.19976 17.7358 5.19975M17.7355 5.19924C17.7351 5.1986 17.7343 5.19739 17.7332 5.19563C17.7297 5.19016 17.7227 5.17941 17.7122 5.16415C17.6912 5.13355 17.6566 5.08528 17.6084 5.02517C17.5115 4.90415 17.3637 4.74002 17.1666 4.57615C16.7735 4.24929 16.2062 3.93945 15.4515 3.93945" fill="black"/>
<path fill-rule="evenodd" clip-rule="evenodd" d="M12.4607 6.7701C12.8133 6.55472 13.2735 6.66515 13.4901 7.01654L13.4937 7.02227C13.498 7.02889 13.5058 7.0408 13.517 7.05723C13.5395 7.09019 13.5753 7.14083 13.6238 7.20325C13.7216 7.32919 13.8661 7.4971 14.0503 7.66335C14.4284 8.00459 14.9065 8.28014 15.4524 8.28014C16.2553 8.28014 16.9573 7.84638 17.333 7.19702C17.5404 6.8385 17.9992 6.71602 18.3578 6.92346C18.7163 7.1309 18.8388 7.58971 18.6313 7.94823C17.9971 9.04439 16.8096 9.78014 15.4524 9.78014C14.3872 9.78014 13.5648 9.24569 13.0454 8.77694C12.7808 8.53818 12.5772 8.30109 12.4391 8.12328C12.3696 8.03383 12.3156 7.95791 12.2777 7.90227C12.2587 7.87441 12.2436 7.85151 12.2326 7.8344L12.2191 7.81313L12.2146 7.80592L12.2129 7.80321L12.2122 7.80207L12.2119 7.80156C12.2118 7.80132 12.2116 7.80109 12.8517 7.41014L12.2116 7.80109C11.9957 7.4476 12.1072 6.98601 12.4607 6.7701Z" fill="black"/>
<path fill-rule="evenodd" clip-rule="evenodd" d="M11.4001 17.2791C11.4001 16.7262 11.8488 16.2793 12.4004 16.2793C12.9519 16.2793 13.4006 16.7262 13.4006 17.2791C13.4006 17.8315 12.9528 18.2793 12.4004 18.2793C11.8479 18.2793 11.4001 17.8315 11.4001 17.2791Z" fill="black"/>
</svg>
