<svg width="24" height="24" viewBox="0 0 24 24" fill="none" xmlns="http://www.w3.org/2000/svg">
<path d="M5.76178 17.722C5.24424 17.713 4.73252 17.6114 4.25079 17.422C2.85679 16.854 2.19079 15.511 2.25079 13.422C2.25079 13.392 2.36481 5.98205 5.68481 4.23605L5.86077 4.15505C6.58492 3.76958 7.39763 3.58102 8.21753 3.60822C9.03742 3.63543 9.83576 3.87744 10.5328 4.31005C11.7728 5.04605 12.0858 5.17005 13.4498 4.31805C14.149 3.8778 14.9527 3.63126 15.7786 3.60367C16.6044 3.57609 17.4227 3.76844 18.1498 4.16105L18.2678 4.21405C21.6358 5.97605 21.7508 13.392 21.7488 13.464C21.8068 15.511 21.1408 16.854 19.7698 17.413C19.2142 17.6743 18.5978 17.7786 17.9872 17.7146C17.3766 17.6506 16.7951 17.4208 16.3058 17.05C15.9778 16.7938 15.6893 16.4905 15.4498 16.15C15.327 15.9916 15.2717 15.7912 15.2957 15.5923C15.3196 15.3933 15.4209 15.2118 15.5778 15.087C15.6543 15.0262 15.7421 14.9812 15.8362 14.9546C15.9302 14.928 16.0286 14.9203 16.1256 14.932C16.2226 14.9437 16.3164 14.9746 16.4014 15.0229C16.4864 15.0711 16.561 15.1357 16.6208 15.213L16.6388 15.236C16.7969 15.4651 16.9876 15.67 17.2048 15.844C17.4892 16.064 17.8312 16.1969 18.1896 16.2265C18.5479 16.2562 18.9071 16.1813 19.2238 16.011C19.7168 15.811 20.3008 15.329 20.2488 13.458C20.2638 11.999 19.6688 6.63405 17.6178 5.55805L17.5268 5.51905C17.0269 5.22922 16.4572 5.08187 15.8795 5.09298C15.3018 5.10408 14.7382 5.27323 14.2498 5.58205C12.3888 6.74405 11.4578 6.59205 9.77081 5.59305C9.28357 5.28305 8.7211 5.11155 8.14379 5.09693C7.56649 5.0823 6.99608 5.22512 6.49377 5.51005L6.33978 5.58005C4.33978 6.63405 3.73976 11.998 3.75476 13.419C3.70276 15.327 4.28678 15.808 4.80078 16.019C5.11711 16.1849 5.47445 16.2565 5.83026 16.2251C6.18607 16.1937 6.52538 16.0607 6.8078 15.842C6.99563 15.6968 7.15698 15.5202 7.28479 15.32L7.35376 15.226C7.41193 15.1467 7.48521 15.0795 7.56933 15.0284C7.65346 14.9774 7.74684 14.9433 7.84411 14.9284C7.94138 14.9134 8.04062 14.9177 8.13623 14.941C8.23183 14.9644 8.32192 15.0064 8.4013 15.0645C8.48069 15.1227 8.54779 15.196 8.59887 15.2801C8.64995 15.3642 8.68397 15.4576 8.69897 15.5548C8.71397 15.6521 8.70964 15.7514 8.68628 15.847C8.66291 15.9426 8.62098 16.0327 8.5628 16.112L8.49578 16.199C8.27902 16.5249 8.00852 16.8117 7.6958 17.047C7.14437 17.4813 6.46365 17.7189 5.76178 17.722Z" fill="black"/>
<path d="M7.99652 11.9993C7.79761 11.9993 7.60684 11.9203 7.46619 11.7796C7.32553 11.639 7.24652 11.4482 7.24652 11.2493V10.5653H6.56152C6.36261 10.5653 6.17184 10.4863 6.03119 10.3456C5.89054 10.205 5.81152 10.0142 5.81152 9.81528C5.81152 9.61637 5.89054 9.4256 6.03119 9.28495C6.17184 9.14429 6.36261 9.06528 6.56152 9.06528H7.24652V8.38428C7.24652 8.18536 7.32553 7.9946 7.46619 7.85395C7.60684 7.71329 7.79761 7.63428 7.99652 7.63428C8.19543 7.63428 8.3862 7.71329 8.52686 7.85395C8.66751 7.9946 8.74652 8.18536 8.74652 8.38428V9.07028H9.4325C9.63141 9.07028 9.82218 9.14929 9.96283 9.28995C10.1035 9.4306 10.1825 9.62136 10.1825 9.82028C10.1825 10.0192 10.1035 10.21 9.96283 10.3506C9.82218 10.4913 9.63141 10.5703 9.4325 10.5703H8.74652V11.2543C8.7452 11.4523 8.66559 11.6418 8.52509 11.7814C8.38458 11.921 8.19457 11.9993 7.99652 11.9993Z" fill="black"/>
<path d="M16.0049 12.0093C15.9067 12.0099 15.8094 11.9912 15.7185 11.9541C15.6276 11.917 15.5449 11.8623 15.4752 11.7932C15.4055 11.7241 15.3502 11.6418 15.3124 11.5512C15.2746 11.4606 15.255 11.3635 15.2549 11.2653V11.2543C15.2559 11.1062 15.3007 10.9616 15.3837 10.839C15.4667 10.7163 15.5842 10.6209 15.7213 10.5649C15.8584 10.5089 16.0091 10.4948 16.1542 10.5243C16.2994 10.5538 16.4326 10.6256 16.537 10.7307C16.6414 10.8358 16.7123 10.9694 16.7408 11.1148C16.7694 11.2601 16.7542 11.4107 16.6973 11.5474C16.6404 11.6842 16.5442 11.801 16.421 11.8832C16.2978 11.9654 16.153 12.0093 16.0049 12.0093Z" fill="black"/>
<path d="M16.0049 9.13916C15.9067 9.13969 15.8093 9.12081 15.7184 9.08362C15.6275 9.04643 15.5448 8.99165 15.4752 8.92243C15.4055 8.85321 15.3501 8.77092 15.3123 8.68026C15.2745 8.58961 15.255 8.49238 15.2549 8.39416V8.38416C15.2559 8.23604 15.3007 8.09153 15.3837 7.96885C15.4667 7.84618 15.5842 7.75083 15.7213 7.69483C15.8584 7.63883 16.0091 7.62469 16.1542 7.65419C16.2994 7.68369 16.4326 7.75551 16.537 7.8606C16.6414 7.96568 16.7123 8.09932 16.7408 8.24467C16.7694 8.39002 16.7542 8.54056 16.6973 8.67732C16.6404 8.81407 16.5442 8.93091 16.421 9.0131C16.2978 9.09529 16.153 9.13916 16.0049 9.13916Z" fill="black"/>
<path d="M14.5693 10.5747C14.4711 10.5752 14.3737 10.5564 14.2828 10.5192C14.1919 10.482 14.1092 10.4272 14.0396 10.358C13.9699 10.2888 13.9146 10.2065 13.8768 10.1158C13.839 10.0252 13.8195 9.92793 13.8193 9.82971V9.81971C13.8203 9.67159 13.8651 9.52708 13.9481 9.4044C14.0311 9.28172 14.1486 9.18637 14.2858 9.13037C14.4229 9.07437 14.5735 9.06023 14.7187 9.08973C14.8638 9.11923 14.997 9.19106 15.1014 9.29614C15.2058 9.40123 15.2767 9.53487 15.3052 9.68022C15.3338 9.82557 15.3186 9.97611 15.2617 10.1129C15.2048 10.2496 15.1087 10.3665 14.9855 10.4486C14.8622 10.5308 14.7175 10.5747 14.5693 10.5747Z" fill="black"/>
<path d="M17.4385 10.5747C17.3403 10.5752 17.2429 10.5564 17.152 10.5192C17.0611 10.482 16.9784 10.4272 16.9088 10.358C16.8391 10.2888 16.7838 10.2065 16.746 10.1158C16.7082 10.0252 16.6886 9.92793 16.6885 9.82971V9.81971C16.6895 9.67159 16.7343 9.52708 16.8173 9.4044C16.9003 9.28172 17.0178 9.18637 17.1549 9.13037C17.292 9.07437 17.4427 9.06023 17.5878 9.08973C17.733 9.11923 17.8662 9.19106 17.9706 9.29614C18.075 9.40123 18.1459 9.53487 18.1744 9.68022C18.203 9.82557 18.1878 9.97611 18.1309 10.1129C18.074 10.2496 17.9779 10.3665 17.8547 10.4486C17.7314 10.5308 17.5866 10.5747 17.4385 10.5747Z" fill="black"/>
<path d="M12.215 20.3989C12.0844 20.3986 11.9562 20.3642 11.843 20.2993C11.7297 20.2343 11.6354 20.1409 11.5693 20.0283C11.5032 19.9158 11.4675 19.7879 11.4659 19.6574C11.4642 19.5268 11.4967 19.3981 11.5599 19.2839L12.04 18.4219H10.679C10.5484 18.422 10.42 18.3879 10.3066 18.3231C10.1932 18.2583 10.0987 18.165 10.0324 18.0525C9.96614 17.94 9.93043 17.8121 9.92877 17.6815C9.92711 17.5509 9.95956 17.4221 10.0229 17.3079L11.1229 15.3309C11.1694 15.2424 11.2331 15.164 11.3102 15.1004C11.3874 15.0368 11.4766 14.9893 11.5724 14.9606C11.6682 14.932 11.7687 14.9228 11.8682 14.9336C11.9676 14.9444 12.0639 14.975 12.1513 15.0235C12.2387 15.0721 12.3155 15.1376 12.3773 15.2163C12.439 15.295 12.4843 15.3852 12.5107 15.4817C12.537 15.5782 12.5438 15.6789 12.5306 15.7781C12.5175 15.8772 12.4846 15.9727 12.434 16.0589L11.9539 16.9219H13.3159C13.4467 16.9218 13.5752 16.9558 13.6887 17.0207C13.8023 17.0855 13.8969 17.1789 13.9632 17.2916C14.0295 17.4043 14.0652 17.5324 14.0667 17.6631C14.0682 17.7938 14.0356 17.9227 13.9719 18.0369L12.8719 20.0129C12.807 20.1302 12.7118 20.2278 12.5962 20.2957C12.4806 20.3636 12.349 20.3993 12.215 20.3989Z" fill="black"/>
</svg>
