<svg width="24" height="24" viewBox="0 0 24 24" fill="none" xmlns="http://www.w3.org/2000/svg">
<path fill-rule="evenodd" clip-rule="evenodd" d="M21.7591 2.58649C21.9364 2.75075 22.0237 2.99041 21.9935 3.23025L20.2977 16.7234C20.2536 17.0739 19.971 17.3461 19.6191 17.377C19.2672 17.4079 18.9415 17.1891 18.837 16.8517C18.5163 15.8154 17.777 14.4596 16.6576 13.683C16.1116 13.3041 15.4793 13.0646 14.7462 13.0531C14.0098 13.0416 13.1177 13.2593 12.0556 13.8831C11.7617 14.0558 11.3883 14.0085 11.1467 13.768C10.9051 13.5276 10.856 13.1544 11.0273 12.8597C11.4213 12.1814 11.4601 11.5856 11.3053 11.0429C11.1425 10.4721 10.7457 9.89698 10.1612 9.34118C8.98671 8.22442 7.23875 7.36013 5.97313 6.91458C5.6551 6.80262 5.45087 6.4922 5.47394 6.15583C5.49701 5.81945 5.7417 5.53982 6.07204 5.47232L21.0993 2.4019C21.3361 2.35351 21.5817 2.42223 21.7591 2.58649ZM8.66316 6.47388C9.55348 6.95326 10.4564 7.55205 11.1948 8.25413C11.8902 8.91533 12.4852 9.71121 12.7477 10.6314C12.8615 11.0302 12.9093 11.4408 12.8825 11.8585C13.5411 11.641 14.1706 11.5439 14.7697 11.5533C15.8375 11.5701 16.7545 11.9245 17.5127 12.4506C18.1583 12.8985 18.6911 13.4716 19.1185 14.077L20.3748 4.08091L8.66316 6.47388Z" fill="black"/>
<path fill-rule="evenodd" clip-rule="evenodd" d="M14.7379 3.71458C15.149 3.66384 15.5234 3.95597 15.5741 4.36706C15.6712 5.15383 15.5582 6.55024 15.0835 8.1883C14.6037 9.84425 13.7399 11.7987 12.2861 13.6921C12.0338 14.0207 11.563 14.0825 11.2344 13.8303C10.9059 13.578 10.8441 13.1072 11.0963 12.7786C12.4218 11.0523 13.2079 9.2716 13.6428 7.77081C14.0829 6.25212 14.1495 5.0702 14.0854 4.5508C14.0347 4.13971 14.3268 3.76532 14.7379 3.71458Z" fill="black"/>
<path fill-rule="evenodd" clip-rule="evenodd" d="M21.1948 9.13835C21.2792 9.54387 21.0188 9.94102 20.6133 10.0254C19.6574 10.2243 18.0247 10.6945 16.3795 11.3613C14.7162 12.0355 13.1372 12.8723 12.2111 13.7696C11.9136 14.0578 11.4388 14.0503 11.1506 13.7528C10.8623 13.4553 10.8698 12.9805 11.1673 12.6923C12.3093 11.5858 14.1126 10.6616 15.8161 9.97114C17.5379 9.27332 19.2568 8.77552 20.3077 8.55685C20.7132 8.47248 21.1104 8.73282 21.1948 9.13835Z" fill="black"/>
<path fill-rule="evenodd" clip-rule="evenodd" d="M7.18733 9.36136C7.52918 9.59527 7.61742 10.0625 7.38352 10.4044C7.15186 10.7429 6.69182 10.832 6.35091 10.6065C6.35091 10.6065 6.34607 10.6036 6.34146 10.601C6.32739 10.5931 6.30262 10.5801 6.27024 10.5667C6.20075 10.538 6.12457 10.519 6.05591 10.5199C5.99992 10.5205 5.93945 10.5333 5.8658 10.5903C5.78398 10.6536 5.64411 10.8052 5.50505 11.158C5.20209 11.9266 4.70985 12.4293 4.02662 12.5678C3.42665 12.6894 2.84793 12.4851 2.46072 12.3233C2.07855 12.1636 1.89823 11.7243 2.05796 11.3421C2.2177 10.9599 2.65701 10.7796 3.03918 10.9393C3.39796 11.0893 3.60685 11.1224 3.72854 11.0977L3.73007 11.0974C3.77112 11.0892 3.93267 11.0567 4.10954 10.608C4.31837 10.0781 4.5971 9.67555 4.94749 9.40425C5.30606 9.12663 5.69142 9.02416 6.03776 9.01997C6.37145 9.01593 6.65412 9.10238 6.8429 9.18036C6.93966 9.22033 7.01887 9.26102 7.07651 9.29342C7.10551 9.30972 7.12957 9.32422 7.14821 9.33589C7.15755 9.34174 7.16557 9.3469 7.17222 9.35127L7.18118 9.35721L7.18489 9.3597L7.18733 9.36136Z" fill="black"/>
<path fill-rule="evenodd" clip-rule="evenodd" d="M11.4282 20.936C11.0171 20.8851 10.7243 20.5105 10.7752 20.0995C10.8257 19.6913 11.1953 19.4005 11.603 19.4463C11.6055 19.4465 11.6118 19.447 11.6215 19.4474C11.6429 19.4485 11.6796 19.4493 11.7272 19.447C11.8246 19.4424 11.9542 19.4253 12.088 19.379C12.3258 19.2969 12.6183 19.1154 12.771 18.591C13.0891 17.499 13.67 16.795 14.4555 16.5314C15.2065 16.2794 15.94 16.5013 16.4355 16.7991C16.7906 17.0124 16.9054 17.4732 16.6921 17.8282C16.4787 18.1833 16.0179 18.2981 15.6629 18.0848C15.405 17.9298 15.1348 17.8856 14.9328 17.9535C14.7653 18.0097 14.4439 18.2115 14.2112 19.0104C13.9043 20.0641 13.211 20.578 12.5779 20.7968C12.2763 20.901 11.9992 20.9358 11.7987 20.9453C11.6974 20.9502 11.6124 20.9487 11.5493 20.9457C11.5177 20.9442 11.4913 20.9422 11.4708 20.9404L11.4445 20.9379L11.4348 20.9368L11.4308 20.9363L11.4282 20.936Z" fill="black"/>
<path fill-rule="evenodd" clip-rule="evenodd" d="M8.02976 14.301C8.9641 13.9703 9.97238 14.2672 10.5716 14.8355C10.8722 15.1205 10.8848 15.5953 10.5997 15.8958C10.3147 16.1964 9.84001 16.2089 9.53946 15.9239C9.31478 15.7108 8.88972 15.5878 8.53029 15.715C8.24202 15.8171 7.78412 16.1667 7.66971 17.3427C7.52865 18.7926 6.88135 19.766 5.89652 20.1322C4.96529 20.4786 3.95948 20.1887 3.28165 19.6288C2.9623 19.365 2.91727 18.8923 3.18107 18.5729C3.44487 18.2536 3.9176 18.2085 4.23695 18.4723C4.58908 18.7632 5.04201 18.8496 5.37365 18.7263C5.65169 18.6229 6.07138 18.2806 6.17675 17.1975C6.32797 15.6432 7.02426 14.6569 8.02976 14.301Z" fill="black"/>
</svg>
