<svg width="24" height="24" viewBox="0 0 24 24" fill="none" xmlns="http://www.w3.org/2000/svg">
<path d="M5.82482 19.0528C5.29041 19.0488 4.76089 18.9503 4.2608 18.7618C2.1768 17.9138 2.2338 15.5418 2.2528 14.7618C2.2528 14.7238 2.3528 7.31883 5.6918 5.57283L5.85781 5.49583C6.58094 5.10692 7.39389 4.91572 8.21456 4.94153C9.03523 4.96734 9.83456 5.20925 10.5318 5.64283C11.7708 6.38183 12.0818 6.50683 13.4548 5.65083C14.1558 5.21212 14.9607 4.96728 15.7873 4.94128C16.6139 4.91528 17.4326 5.10905 18.1598 5.50283L18.2668 5.55183L18.3088 5.57283C21.6478 7.31783 21.7488 14.7238 21.7468 14.7968C21.7658 15.5408 21.8258 17.9118 19.7628 18.7518C19.169 19.0059 18.5206 19.1056 17.8779 19.0418C17.2352 18.978 16.6191 18.7527 16.0868 18.3868C15.7653 18.1388 15.4823 17.8446 15.2468 17.5138C15.0063 17.1584 14.6865 16.8637 14.3128 16.6528C12.8141 16.1506 11.1925 16.1506 9.69381 16.6528C9.29556 16.8667 8.95647 17.1759 8.70681 17.5528C8.4898 17.8737 8.22196 18.1571 7.91381 18.3918C7.30724 18.8322 6.5743 19.0641 5.82482 19.0528ZM8.08782 6.43383C7.52923 6.45022 6.98184 6.59459 6.48782 6.85583L6.33981 6.92283C4.19781 8.04383 3.73979 13.7628 3.74779 14.7678C3.70179 16.6738 4.28481 17.1548 4.79781 17.3678C5.15125 17.5326 5.54143 17.6026 5.93011 17.5711C6.31878 17.5395 6.6926 17.4075 7.01482 17.1878C7.20189 17.0414 7.3634 16.865 7.49282 16.6658C7.86541 16.1214 8.36116 15.6726 8.93981 15.3558C10.9011 14.5922 13.0773 14.5904 15.0398 15.3508C15.5902 15.6597 16.0644 16.0878 16.4278 16.6038C16.5807 16.8241 16.7646 17.0211 16.9738 17.1888C17.3007 17.4086 17.679 17.5398 18.0718 17.5698C18.4645 17.5998 18.8583 17.5274 19.2148 17.3598C19.7048 17.1598 20.2878 16.6788 20.2408 14.8038C20.2478 13.7698 19.7928 8.07683 17.6228 6.91683L17.5228 6.87183C17.0212 6.5846 16.4514 6.43827 15.8735 6.4483C15.2956 6.45833 14.7311 6.62436 14.2398 6.92883C12.3738 8.09283 11.4398 7.94383 9.75481 6.93683C9.25565 6.61977 8.67905 6.44578 8.08782 6.43383Z" fill="black"/>
<path d="M7.99942 13.3421C7.80051 13.3421 7.60974 13.2631 7.46909 13.1225C7.32843 12.9818 7.24942 12.7911 7.24942 12.5921V11.9081H6.56641C6.36749 11.9081 6.17675 11.8291 6.0361 11.6885C5.89545 11.5478 5.81641 11.3571 5.81641 11.1581C5.81641 10.9592 5.89545 10.7685 6.0361 10.6278C6.17675 10.4872 6.36749 10.4081 6.56641 10.4081H7.24942V9.72314C7.24942 9.52423 7.32843 9.33347 7.46909 9.19281C7.60974 9.05216 7.80051 8.97314 7.99942 8.97314C8.19833 8.97314 8.3891 9.05216 8.52975 9.19281C8.67041 9.33347 8.74942 9.52423 8.74942 9.72314V10.4081H9.43643C9.63534 10.4081 9.82608 10.4872 9.96674 10.6278C10.1074 10.7685 10.1864 10.9592 10.1864 11.1581C10.1864 11.3571 10.1074 11.5478 9.96674 11.6885C9.82608 11.8291 9.63534 11.9081 9.43643 11.9081H8.74942V12.5921C8.74942 12.6906 8.73001 12.7882 8.69232 12.8792C8.65463 12.9702 8.5994 13.0528 8.52975 13.1225C8.46011 13.1921 8.37743 13.2474 8.28644 13.2851C8.19544 13.3227 8.09791 13.3421 7.99942 13.3421Z" fill="black"/>
<path d="M16.0059 13.3472C15.9076 13.3477 15.8103 13.3288 15.7194 13.2916C15.6285 13.2544 15.5458 13.1997 15.4761 13.1304C15.4064 13.0612 15.3511 12.9789 15.3133 12.8883C15.2755 12.7976 15.256 12.7004 15.2559 12.6022V12.5922C15.2568 12.444 15.3017 12.2995 15.3847 12.1769C15.4677 12.0542 15.5852 11.9588 15.7223 11.9028C15.8594 11.8468 16.0101 11.8327 16.1552 11.8622C16.3004 11.8917 16.4335 11.9635 16.5379 12.0686C16.6423 12.1737 16.7133 12.3073 16.7418 12.4527C16.7703 12.598 16.7552 12.7486 16.6983 12.8853C16.6414 13.0221 16.5452 13.1389 16.422 13.2211C16.2988 13.3033 16.154 13.3472 16.0059 13.3472Z" fill="black"/>
<path d="M16.0059 10.478C15.9076 10.4786 15.8103 10.4597 15.7194 10.4225C15.6285 10.3853 15.5458 10.3305 15.4761 10.2613C15.4064 10.1921 15.3511 10.1098 15.3133 10.0191C15.2755 9.92847 15.256 9.83125 15.2559 9.73303V9.72303C15.2568 9.57491 15.3017 9.4304 15.3847 9.30772C15.4677 9.18504 15.5852 9.08969 15.7223 9.03369C15.8594 8.97769 16.0101 8.96355 16.1552 8.99305C16.3004 9.02255 16.4335 9.09438 16.5379 9.19946C16.6423 9.30455 16.7133 9.43819 16.7418 9.58354C16.7703 9.72889 16.7552 9.87943 16.6983 10.0162C16.6414 10.1529 16.5452 10.2698 16.422 10.352C16.2988 10.4342 16.154 10.478 16.0059 10.478Z" fill="black"/>
<path d="M14.5723 11.9126C14.474 11.9131 14.3767 11.8943 14.2858 11.8571C14.1949 11.8199 14.1122 11.7651 14.0425 11.6959C13.9729 11.6267 13.9175 11.5444 13.8797 11.4537C13.8419 11.363 13.8224 11.2658 13.8223 11.1676V11.1576C13.8233 11.0095 13.8681 10.865 13.9511 10.7423C14.0341 10.6196 14.1516 10.5243 14.2887 10.4683C14.4258 10.4123 14.5765 10.3981 14.7216 10.4276C14.8668 10.4571 14.9999 10.5289 15.1043 10.634C15.2087 10.7391 15.2797 10.8728 15.3082 11.0181C15.3367 11.1635 15.3216 11.314 15.2647 11.4508C15.2078 11.5875 15.1117 11.7043 14.9884 11.7865C14.8652 11.8687 14.7204 11.9126 14.5723 11.9126Z" fill="black"/>
<path d="M17.4414 11.9126C17.3432 11.9131 17.2458 11.8943 17.1549 11.8571C17.064 11.8199 16.9813 11.7651 16.9117 11.6959C16.842 11.6267 16.7866 11.5444 16.7488 11.4537C16.711 11.363 16.6915 11.2658 16.6914 11.1676V11.1576C16.6924 11.0095 16.7372 10.865 16.8202 10.7423C16.9032 10.6196 17.0207 10.5243 17.1578 10.4683C17.295 10.4123 17.4456 10.3981 17.5908 10.4276C17.7359 10.4571 17.8691 10.5289 17.9735 10.634C18.0779 10.7391 18.1488 10.8728 18.1773 11.0181C18.2059 11.1635 18.1907 11.314 18.1338 11.4508C18.0769 11.5875 17.9808 11.7043 17.8575 11.7865C17.7343 11.8687 17.5895 11.9126 17.4414 11.9126Z" fill="black"/>
</svg>
