<svg width="24" height="24" viewBox="0 0 24 24" fill="none" xmlns="http://www.w3.org/2000/svg">
<path d="M16.5978 20.0475H7.40376C6.64418 20.0982 5.88125 20.0457 5.13576 19.8915C4.48747 19.706 3.89708 19.3585 3.42017 18.8818C2.94327 18.405 2.59554 17.8148 2.40976 17.1665C2.2548 16.4208 2.20198 15.6575 2.25276 14.8975V12.7415C2.25276 11.5365 2.25876 10.3305 2.25276 9.11254C2.201 8.35036 2.25314 7.58467 2.40776 6.83654C2.59322 6.18837 2.94057 5.59805 3.41711 5.12115C3.89366 4.64426 4.48372 4.29646 5.13176 4.11053C5.87902 3.95451 6.6441 3.90136 7.40576 3.95254H16.5928C17.3565 3.90108 18.1236 3.95457 18.8728 4.11154C19.5188 4.29746 20.1072 4.64437 20.5825 5.11976C21.0579 5.59515 21.4048 6.18345 21.5908 6.82954C21.7467 7.5785 21.7999 8.34521 21.7488 9.10853C21.7556 9.29835 21.7459 9.48841 21.7198 9.67654C21.6991 9.84794 21.6422 10.013 21.5527 10.1606C21.4632 10.3082 21.3432 10.435 21.2008 10.5325C20.9543 10.6998 20.6944 10.8463 20.4238 10.9705C20.2341 11.0653 20.0742 11.2106 19.962 11.3905C19.8497 11.5704 19.7894 11.7778 19.7876 11.9898C19.7859 12.2019 19.8428 12.4103 19.952 12.592C20.0613 12.7737 20.2187 12.9217 20.4068 13.0195C20.6833 13.1475 20.9489 13.298 21.2008 13.4695C21.3437 13.5673 21.4641 13.6945 21.5538 13.8427C21.6435 13.9909 21.7004 14.1565 21.7208 14.3285C21.7451 14.5151 21.7541 14.7034 21.7478 14.8915C21.7998 15.6545 21.7466 16.421 21.5898 17.1695C21.404 17.8159 21.0572 18.4046 20.5818 18.8804C20.1064 19.3561 19.518 19.7034 18.8718 19.8895C18.1244 20.045 17.3594 20.0982 16.5978 20.0475ZM7.41076 5.44754C6.7903 5.40909 6.16749 5.44265 5.55476 5.54754C5.15063 5.66377 4.78263 5.88072 4.48529 6.17807C4.18794 6.47541 3.97098 6.84341 3.85476 7.24754C3.75119 7.86075 3.71764 8.48374 3.75476 9.10453C3.75976 10.3235 3.75476 11.5325 3.75476 12.7405V14.8935C3.71633 15.5127 3.74989 16.1342 3.85476 16.7455C3.97038 17.15 4.18714 17.5183 4.48458 17.8157C4.78201 18.1132 5.15033 18.3299 5.55476 18.4455C6.16614 18.5505 6.78764 18.584 7.40676 18.5455H16.5998C17.2219 18.5846 17.8464 18.5511 18.4608 18.4455C18.865 18.3296 19.2331 18.1127 19.5305 17.8153C19.8279 17.5179 20.0448 17.1498 20.1608 16.7455C20.2651 16.1317 20.2987 15.508 20.2608 14.8865C20.2608 14.7715 20.2608 14.6865 20.2608 14.6345C20.1458 14.5635 19.9768 14.4755 19.7198 14.3405C19.29 14.1166 18.93 13.7791 18.6787 13.3648C18.4274 12.9504 18.2945 12.4751 18.2945 11.9905C18.2945 11.506 18.4274 11.0307 18.6787 10.6163C18.93 10.202 19.29 9.8645 19.7198 9.64054C19.9908 9.49854 20.1608 9.41153 20.2538 9.35853C20.2608 9.27953 20.2598 9.20355 20.2598 9.09755C20.2989 8.4751 20.2653 7.8502 20.1598 7.23553C20.0433 6.83206 19.8262 6.46483 19.5288 6.16833C19.2314 5.87183 18.8636 5.6558 18.4598 5.54054C17.8454 5.435 17.2209 5.40143 16.5988 5.44053L7.41076 5.44754Z" fill="black"/>
<path d="M12.7283 16.0152C12.2273 16.0154 11.7375 15.867 11.3208 15.5888C10.9041 15.3106 10.5793 14.9151 10.3874 14.4523C10.1956 13.9894 10.1453 13.4801 10.2429 12.9887C10.3405 12.4972 10.5817 12.0458 10.9359 11.6915C11.2901 11.3371 11.7414 11.0958 12.2328 10.998C12.7242 10.9001 13.2335 10.9502 13.6964 11.1419C14.1593 11.3336 14.555 11.6583 14.8334 12.0749C15.1118 12.4914 15.2603 12.9812 15.2603 13.4822C15.2598 14.1537 14.9929 14.7975 14.5182 15.2724C14.0435 15.7473 13.3998 16.0144 12.7283 16.0152ZM12.7283 12.4502C12.5239 12.45 12.3241 12.5105 12.1541 12.6239C11.984 12.7373 11.8515 12.8986 11.7732 13.0874C11.6948 13.2762 11.6743 13.484 11.7141 13.6845C11.754 13.885 11.8524 14.0691 11.9969 14.2137C12.1414 14.3582 12.3256 14.4566 12.5261 14.4964C12.7265 14.5362 12.9343 14.5157 13.1231 14.4374C13.3119 14.3591 13.4732 14.2265 13.5867 14.0565C13.7001 13.8865 13.7605 13.6866 13.7603 13.4822C13.7601 13.2086 13.6513 12.9463 13.4578 12.7528C13.2643 12.5593 13.002 12.4505 12.7283 12.4502Z" fill="black"/>
<path d="M14.5107 14.2355C14.3118 14.2355 14.1211 14.1564 13.9804 14.0158C13.8398 13.8751 13.7607 13.6844 13.7607 13.4855V8.13645C13.7608 7.96132 13.8222 7.79173 13.9342 7.65708C14.0462 7.52244 14.2017 7.43125 14.3739 7.3993C14.5461 7.36736 14.7241 7.39668 14.8769 7.48219C15.0298 7.5677 15.1479 7.704 15.2107 7.86746C15.3153 8.1102 15.474 8.32581 15.6747 8.49775C15.8754 8.6697 16.1128 8.79342 16.3687 8.85946C16.5637 8.89924 16.7348 9.01483 16.8445 9.1808C16.9542 9.34677 16.9935 9.54952 16.9537 9.74446C16.914 9.93939 16.7984 10.1105 16.6324 10.2203C16.4664 10.33 16.2637 10.3692 16.0687 10.3295C15.7859 10.2726 15.5131 10.1735 15.2597 10.0355V13.4855C15.2597 13.6842 15.1809 13.8748 15.0404 14.0154C14.9 14.1561 14.7095 14.2352 14.5107 14.2355Z" fill="black"/>
<path d="M7.41504 19.8961C7.21613 19.8961 7.02536 19.8171 6.8847 19.6764C6.74405 19.5358 6.66504 19.345 6.66504 19.1461V4.74609C6.66504 4.54718 6.74405 4.35643 6.8847 4.21577C7.02536 4.07512 7.21613 3.99609 7.41504 3.99609C7.61395 3.99609 7.80471 4.07512 7.94537 4.21577C8.08602 4.35643 8.16504 4.54718 8.16504 4.74609V19.1461C8.16504 19.345 8.08602 19.5358 7.94537 19.6764C7.80471 19.8171 7.61395 19.8961 7.41504 19.8961Z" fill="black"/>
</svg>
