<svg width="24" height="24" viewBox="0 0 24 24" fill="none" xmlns="http://www.w3.org/2000/svg">
<path d="M7.71142 15.5601C7.58007 15.5606 7.45096 15.5261 7.33742 15.4601C7.25205 15.4109 7.17721 15.3455 7.11717 15.2674C7.05714 15.1893 7.01309 15.1002 6.98755 15.0051C6.962 14.91 6.95547 14.8108 6.96831 14.7131C6.98116 14.6155 7.01314 14.5213 7.06242 14.436L10.3124 8.80705C10.4119 8.63466 10.5757 8.50885 10.768 8.45727C10.9602 8.4057 11.165 8.4326 11.3374 8.53206C11.5098 8.63151 11.6356 8.79537 11.6872 8.98759C11.7388 9.17982 11.7119 9.38466 11.6124 9.55705L8.36242 15.186C8.29642 15.3002 8.20147 15.3948 8.08716 15.4605C7.97286 15.5262 7.84324 15.5605 7.71142 15.5601Z" fill="black"/>
<path d="M11.2047 14.8195C11.0523 14.8188 10.9037 14.7718 10.7787 14.6846C10.6536 14.5974 10.5581 14.4743 10.5047 14.3315L9.51672 11.6875L6.73272 12.1545C6.53646 12.1874 6.33517 12.141 6.17314 12.0255C6.01111 11.9099 5.90161 11.7348 5.86872 11.5385C5.83583 11.3423 5.88226 11.141 5.99778 10.9789C6.1133 10.8169 6.28846 10.7074 6.48472 10.6745L9.87972 10.1055C10.0514 10.0775 10.2275 10.1098 10.3781 10.197C10.5287 10.2841 10.6445 10.4207 10.7057 10.5835L11.9057 13.8075C11.975 13.9938 11.9674 14.2 11.8847 14.3808C11.802 14.5616 11.651 14.7021 11.4647 14.7715C11.3817 14.8032 11.2936 14.8195 11.2047 14.8195Z" fill="black"/>
<path d="M9.1693 16.4041C9.03801 16.4042 8.90901 16.3697 8.7953 16.3041L5.8803 14.6211C5.79494 14.5719 5.72012 14.5063 5.6601 14.4281C5.60008 14.35 5.55605 14.2607 5.53052 14.1656C5.50498 14.0704 5.49844 13.9711 5.51127 13.8734C5.5241 13.7757 5.55605 13.6815 5.6053 13.5961C5.65455 13.5108 5.72012 13.4359 5.79828 13.3759C5.87645 13.3159 5.96566 13.2719 6.06084 13.2463C6.15602 13.2208 6.2553 13.2143 6.35301 13.2271C6.45072 13.2399 6.54494 13.2719 6.6303 13.3211L9.5453 15.0041C9.6886 15.0866 9.80062 15.2141 9.86395 15.3669C9.92727 15.5196 9.93836 15.689 9.89547 15.8487C9.85258 16.0083 9.75813 16.1494 9.62681 16.2498C9.49548 16.3503 9.33464 16.4045 9.1693 16.4041Z" fill="black"/>
<path d="M16.4302 20.0384C16.2663 20.0431 16.1023 20.0371 15.9392 20.0204C15.7348 20.0116 15.5358 19.9521 15.36 19.8474C15.1843 19.7427 15.0372 19.596 14.9322 19.4204C14.8952 19.3724 14.7572 19.1354 14.4922 18.6564C14.3929 18.4701 14.2464 18.3131 14.0674 18.2012C13.8884 18.0892 13.6832 18.0262 13.4722 18.0184C13.2234 18.0118 12.9787 18.082 12.7715 18.2197C12.5642 18.3573 12.4045 18.5556 12.3142 18.7874C12.0842 19.3584 11.9692 19.6434 11.6772 19.8394C11.3714 20.0116 11.0186 20.0817 10.6702 20.0394H10.1932C6.59316 20.0394 4.79316 20.0394 3.51716 18.7644C2.24116 17.4894 2.24316 15.6854 2.24316 12.0884V11.9094C2.24316 8.30943 2.24316 6.50943 3.51716 5.23343C4.79116 3.95743 6.59716 3.95943 10.1932 3.95943H10.6712C11.0205 3.9168 11.3744 3.98687 11.6812 4.15943C11.9742 4.35943 12.0892 4.64543 12.3162 5.21443C12.4006 5.42952 12.545 5.61584 12.7322 5.75122C12.9194 5.88661 13.1416 5.96536 13.3723 5.97811C13.603 5.99085 13.8325 5.93706 14.0335 5.82312C14.2345 5.70919 14.3986 5.53992 14.5062 5.33544C14.7642 4.85144 14.8822 4.64343 14.9202 4.59143C15.0276 4.41375 15.1767 4.26494 15.3546 4.15795C15.5325 4.05095 15.7339 3.98899 15.9412 3.97743C16.1017 3.96232 16.263 3.95697 16.4242 3.96143C17.0533 3.93095 17.6838 3.96446 18.3062 4.06143C19.1251 4.23802 19.8758 4.64701 20.4682 5.23941C21.0606 5.83181 21.4696 6.58247 21.6462 7.40143C21.7431 8.02376 21.7766 8.65433 21.7462 9.28343V14.7294C21.7759 15.3549 21.7424 15.9817 21.6462 16.6004C21.4703 17.4215 21.0608 18.1742 20.467 18.7679C19.8731 19.3616 19.1203 19.7708 18.2992 19.9464C17.6809 20.0407 17.0547 20.0716 16.4302 20.0384ZM10.1932 5.45943C7.01016 5.45943 5.41216 5.45943 4.57716 6.29343C3.74216 7.12743 3.74316 8.72643 3.74316 11.9094V12.0884C3.74316 15.2714 3.74316 16.8694 4.57716 17.7034C5.41116 18.5374 7.01016 18.5384 10.1932 18.5384H10.7992C10.8322 18.4564 10.8712 18.3544 10.9212 18.2324C11.1198 17.7274 11.4659 17.2939 11.9146 16.9885C12.3632 16.6831 12.8935 16.52 13.4362 16.5204C13.9164 16.5267 14.3867 16.6587 14.8 16.9033C15.2134 17.1479 15.5555 17.4965 15.7922 17.9144C15.9852 18.2644 16.0922 18.4574 16.1382 18.5334H16.1572C16.1972 18.5334 16.2832 18.5334 16.4272 18.5334C16.9467 18.5581 17.4674 18.537 17.9832 18.4704C18.5215 18.3554 19.0151 18.0872 19.4046 17.6981C19.794 17.3091 20.0627 16.8157 20.1782 16.2774C20.2437 15.7609 20.2644 15.2396 20.2402 14.7194V9.27843C20.2648 8.75492 20.2437 8.23028 20.1772 7.71044C20.0616 7.17454 19.7942 6.68324 19.4069 6.29524C19.0196 5.90725 18.5288 5.63896 17.9932 5.52243C17.4737 5.45583 16.9493 5.43475 16.4262 5.45943C16.2812 5.45943 16.1962 5.45943 16.1422 5.45943L16.1302 5.47743C16.1072 5.51643 16.0212 5.67742 15.8692 5.96742C15.6425 6.41866 15.2955 6.79843 14.8665 7.06475C14.4374 7.33106 13.9431 7.47353 13.4382 7.47643C12.896 7.47664 12.3664 7.31364 11.9182 7.00865C11.47 6.70366 11.1239 6.27081 10.9252 5.76644C10.8752 5.64244 10.8362 5.53942 10.8022 5.45642H10.1932V5.45943Z" fill="black"/>
<path d="M20.9933 14.5879H17.6143C17.4153 14.5879 17.2246 14.5089 17.0839 14.3682C16.9433 14.2276 16.8643 14.0368 16.8643 13.8379C16.8643 13.639 16.9433 13.4482 17.0839 13.3076C17.2246 13.1669 17.4153 13.0879 17.6143 13.0879H20.9933C21.1922 13.0879 21.3829 13.1669 21.5236 13.3076C21.6642 13.4482 21.7433 13.639 21.7433 13.8379C21.7433 14.0368 21.6642 14.2276 21.5236 14.3682C21.3829 14.5089 21.1922 14.5879 20.9933 14.5879Z" fill="black"/>
<path d="M20.9931 10.9316H16.0361C15.8372 10.9316 15.6465 10.8526 15.5058 10.712C15.3651 10.5713 15.2861 10.3806 15.2861 10.1816C15.2861 9.98273 15.3651 9.79197 15.5058 9.65132C15.6465 9.51067 15.8372 9.43164 16.0361 9.43164H20.9931C21.192 9.43164 21.3828 9.51067 21.5235 9.65132C21.6641 9.79197 21.7431 9.98273 21.7431 10.1816C21.7431 10.3806 21.6641 10.5713 21.5235 10.712C21.3828 10.8526 21.192 10.9316 20.9931 10.9316Z" fill="black"/>
</svg>
