<svg width="24" height="24" viewBox="0 0 24 24" fill="none" xmlns="http://www.w3.org/2000/svg">
<path d="M17.4002 20.0467C17.2332 20.0467 17.1492 20.0467 17.0682 20.0397C16.5243 20.0032 16.0037 19.8051 15.5732 19.4707C15.5192 19.4287 15.4632 19.3807 15.3672 19.2957C15.2348 19.1687 15.0953 19.0495 14.9492 18.9387C14.7427 18.7984 14.4988 18.7235 14.2492 18.7235C13.9995 18.7235 13.7557 18.7984 13.5492 18.9387C13.416 19.0377 13.2894 19.1453 13.1702 19.2607C13.0302 19.3837 12.9702 19.4317 12.9182 19.4747C12.4863 19.81 11.9638 20.0078 11.4182 20.0427C11.3422 20.0487 11.2592 20.0497 11.0922 20.0497H7.02416C6.34924 20.0924 5.67162 20.0477 5.00816 19.9167C4.38183 19.7426 3.81112 19.4097 3.35137 18.9501C2.89162 18.4905 2.55844 17.92 2.38416 17.2937C2.25217 16.6297 2.20713 15.9513 2.25016 15.2757C2.24448 15.0931 2.25116 14.9104 2.27016 14.7287L2.28616 14.6067C2.30393 14.3475 2.41724 14.1041 2.60416 13.9237L2.68816 13.8317C2.76716 13.7407 2.88816 13.6417 3.76716 12.8987C3.89849 12.7941 4.00589 12.6626 4.08214 12.5131C4.15838 12.3635 4.20169 12.1994 4.20916 12.0317C4.2146 11.8542 4.17867 11.6778 4.10421 11.5166C4.02976 11.3554 3.91881 11.2137 3.78016 11.1027C3.40805 10.8287 3.05119 10.5346 2.71116 10.2217L2.64616 10.1507C2.43949 9.95956 2.31268 9.69737 2.29116 9.41668L2.27516 9.31668C2.25593 9.13335 2.24891 8.94894 2.25416 8.76468C2.20783 8.07302 2.25356 7.3783 2.39016 6.6987C2.56479 6.07631 2.8966 5.5093 3.35369 5.05221C3.81078 4.59512 4.37777 4.26331 5.00016 4.08868C5.67256 3.95374 6.35977 3.90769 7.04416 3.95169H11.1002C11.2672 3.95169 11.3502 3.95168 11.4312 3.95868C11.975 3.99536 12.4955 4.19347 12.9262 4.52768C12.9802 4.56968 13.0362 4.61769 13.1322 4.70269C13.266 4.83044 13.4069 4.95061 13.5542 5.06268C13.7608 5.20266 14.0046 5.27749 14.2542 5.27749C14.5037 5.27749 14.7476 5.20266 14.9542 5.06268C15.0864 4.96296 15.2127 4.85544 15.3322 4.74069C15.4722 4.61769 15.5322 4.5697 15.5842 4.5267C16.0161 4.19166 16.5386 3.99379 17.0842 3.95868C17.1622 3.95268 17.2462 3.95169 17.4132 3.95169C17.8054 3.93728 18.1982 3.9523 18.5882 3.99667C19.3745 4.11781 20.1018 4.48653 20.6643 5.04922C21.2268 5.61191 21.5953 6.33929 21.7162 7.1257C21.7595 7.51275 21.7742 7.90246 21.7602 8.29168V8.74069C21.7657 8.93128 21.7587 9.12201 21.7392 9.31167L21.7242 9.41168C21.7028 9.69349 21.5756 9.95678 21.3682 10.1487L21.2992 10.2247C20.9776 10.5171 20.6415 10.7931 20.2922 11.0517C20.1409 11.1587 20.0174 11.3003 19.9318 11.4647C19.8462 11.629 19.8011 11.8114 19.8002 11.9967C19.7975 12.1696 19.8349 12.3408 19.9093 12.4969C19.9837 12.653 20.0932 12.7898 20.2292 12.8967C20.6024 13.1722 20.9606 13.4677 21.3022 13.7817L21.3682 13.8537C21.5755 14.0448 21.7024 14.3075 21.7232 14.5887L21.7382 14.6887C21.7589 14.8779 21.7662 15.0684 21.7602 15.2587V15.7077C21.7745 16.0969 21.7595 16.4867 21.7152 16.8737C21.5939 17.6615 21.2236 18.3899 20.6587 18.9521C20.0937 19.5144 19.3636 19.8812 18.5752 19.9987C18.1853 20.0443 17.7925 20.0603 17.4002 20.0467ZM3.76016 14.8747L3.75016 14.9477C3.74516 15.0037 3.75016 15.1007 3.75016 15.2727C3.71908 15.8143 3.7459 16.3577 3.83016 16.8937C3.93464 17.2688 4.13398 17.6107 4.40897 17.8863C4.68396 18.162 5.02532 18.3622 5.40016 18.4677C5.93588 18.5509 6.47888 18.5774 7.02016 18.5467H11.1002C11.2112 18.5467 11.2682 18.5467 11.3222 18.5467C11.5712 18.5306 11.8098 18.4404 12.0072 18.2877C12.0442 18.2587 12.0802 18.2277 12.1412 18.1727C12.3246 17.9994 12.519 17.8381 12.7232 17.6897C13.1755 17.3842 13.7088 17.2209 14.2547 17.2209C14.8005 17.2209 15.3339 17.3842 15.7862 17.6897C15.9762 17.8269 16.1569 17.9765 16.3272 18.1377C16.4272 18.2237 16.4602 18.2547 16.4962 18.2827C16.6923 18.4351 16.9294 18.5256 17.1772 18.5427C17.2372 18.5427 17.2942 18.5427 17.4052 18.5427C17.7191 18.5531 18.0334 18.5441 18.3462 18.5157C18.8184 18.4437 19.2554 18.2228 19.5933 17.8852C19.9313 17.5476 20.1527 17.1109 20.2252 16.6387C20.2535 16.3276 20.2626 16.015 20.2522 15.7027V15.2537C20.2522 15.0737 20.2522 14.9737 20.2522 14.9087L20.1912 14.7877C20.1262 14.7277 19.8302 14.4947 19.2912 14.0627C18.9811 13.8143 18.7308 13.4994 18.5588 13.1413C18.3869 12.7832 18.2976 12.391 18.2976 11.9937C18.2976 11.5964 18.3869 11.2042 18.5588 10.8461C18.7308 10.488 18.9811 10.1731 19.2912 9.92468C19.8562 9.47468 20.1322 9.25867 20.2142 9.18267L20.2542 9.07467C20.2592 9.01767 20.2542 8.91669 20.2542 8.73669V8.28769C20.2646 7.97543 20.2555 7.66282 20.2272 7.35168C20.1545 6.87991 19.9333 6.44357 19.5958 6.10604C19.2583 5.76851 18.8219 5.54738 18.3502 5.4747C18.0367 5.44627 17.7217 5.43725 17.4072 5.44769C17.2942 5.44769 17.2382 5.44769 17.1842 5.44769C16.9352 5.46406 16.6967 5.55423 16.4992 5.70669C16.4622 5.73569 16.4262 5.76668 16.3652 5.82168C16.1829 5.99408 15.9898 6.15472 15.7872 6.30267C15.3343 6.60821 14.8005 6.77145 14.2542 6.77145C13.7079 6.77145 13.174 6.60821 12.7212 6.30267C12.5309 6.16463 12.3498 6.01432 12.1792 5.85269C12.0792 5.76669 12.0462 5.7357 12.0102 5.7077C11.8133 5.5552 11.5756 5.46468 11.3272 5.44769C11.2712 5.44769 11.2162 5.44769 11.1022 5.44769H7.04116C6.49214 5.41591 5.94129 5.4434 5.39816 5.52969C5.02502 5.63537 4.68531 5.83517 4.41161 6.10992C4.13791 6.38467 3.93941 6.72515 3.83516 7.09869C3.7483 7.64109 3.72114 8.19136 3.75416 8.73968C3.75416 8.92768 3.75416 9.02467 3.75916 9.08767L3.81916 9.20468C3.88416 9.26468 4.17916 9.49669 4.71916 9.92669C5.02989 10.1749 5.28039 10.4903 5.45184 10.8491C5.6233 11.208 5.71127 11.601 5.70916 11.9987C5.70507 12.3826 5.61889 12.7612 5.45642 13.1091C5.29394 13.457 5.05893 13.7661 4.76716 14.0157C4.17716 14.5107 3.87516 14.7627 3.79116 14.8437L3.76016 14.8747Z" fill="black"/>
<path d="M15.6885 12.7487H8.94749C8.82583 12.7488 8.70598 12.7193 8.59831 12.6626C8.49063 12.606 8.39837 12.524 8.3295 12.4237L7.69249 11.4977C7.57978 11.3337 7.53684 11.1316 7.57313 10.9359C7.60942 10.7402 7.72196 10.5669 7.88599 10.4542C8.05003 10.3415 8.25213 10.2986 8.44782 10.3348C8.64351 10.3711 8.81678 10.4837 8.92949 10.6477L9.34249 11.2477H15.6885C15.8874 11.2477 16.0782 11.3267 16.2188 11.4674C16.3595 11.608 16.4385 11.7988 16.4385 11.9977C16.4385 12.1966 16.3595 12.3874 16.2188 12.5281C16.0782 12.6687 15.8874 12.7477 15.6885 12.7477V12.7487Z" fill="black"/>
<path d="M10.9994 15.4779C10.8615 15.4779 10.7262 15.4399 10.6085 15.368C10.4908 15.2961 10.3952 15.1931 10.3324 15.0703C10.2695 14.9475 10.2417 14.8098 10.2521 14.6723C10.2626 14.5347 10.3108 14.4027 10.3914 14.2908L11.1254 13.2678C11.2414 13.1062 11.4169 12.9973 11.6133 12.965C11.8096 12.9327 12.0108 12.9798 12.1724 13.0958C12.3341 13.2119 12.443 13.3874 12.4753 13.5837C12.5075 13.7801 12.4604 13.9812 12.3444 14.1428L11.6094 15.1658C11.54 15.2627 11.4484 15.3416 11.3423 15.3959C11.2362 15.4502 11.1186 15.4783 10.9994 15.4779Z" fill="black"/>
<path d="M13.4429 12.7459C13.3373 12.7462 13.2329 12.724 13.1366 12.6809C13.0402 12.6378 12.9541 12.5748 12.8839 12.4959L10.4439 9.76691C10.3776 9.69361 10.3264 9.60793 10.2933 9.51477C10.2602 9.42162 10.2458 9.32285 10.251 9.22412C10.2563 9.1254 10.2809 9.0287 10.3237 8.93955C10.3664 8.8504 10.4263 8.77056 10.5 8.70465C10.5737 8.63875 10.6597 8.58807 10.753 8.55552C10.8463 8.52296 10.9452 8.50917 11.0439 8.51496C11.1426 8.52074 11.2392 8.546 11.3281 8.58924C11.417 8.63248 11.4964 8.69285 11.5619 8.76691L13.9989 11.4969C14.0959 11.6047 14.1595 11.7383 14.182 11.8815C14.2046 12.0247 14.1851 12.1713 14.1259 12.3037C14.0667 12.436 13.9704 12.5483 13.8486 12.627C13.7269 12.7057 13.5849 12.7474 13.4399 12.7469L13.4429 12.7459Z" fill="black"/>
</svg>
