<svg width="24" height="24" viewBox="0 0 24 24" fill="none" xmlns="http://www.w3.org/2000/svg">
<path d="M13.9599 19.0258C14.6666 19.0364 15.368 18.9028 16.0214 18.6332C16.6748 18.3636 17.2663 17.9636 17.7599 17.4578L17.8959 17.3218C20.4649 14.7598 20.9959 14.2028 21.1209 14.0278C21.5909 13.3475 21.8094 12.5248 21.739 11.7009C21.6686 10.8771 21.3136 10.1034 20.7349 9.51275L20.2969 9.06777C19.1329 7.88477 17.8479 6.58677 17.3329 6.15777C16.4093 5.38222 15.2389 4.96228 14.0329 4.97375C11.3049 4.96708 8.57721 4.96708 5.84988 4.97375C5.37905 4.96845 4.91186 5.05678 4.47545 5.23358C4.03904 5.41037 3.64211 5.67212 3.30772 6.00363C2.97333 6.33513 2.70815 6.72977 2.52758 7.16464C2.34702 7.5995 2.25466 8.06591 2.25589 8.53677C2.24589 10.8448 2.24589 13.1534 2.25589 15.4628C2.2548 15.9335 2.34725 16.3998 2.52787 16.8346C2.7085 17.2693 2.9737 17.6639 3.30808 17.9953C3.64245 18.3267 4.03934 18.5883 4.47568 18.765C4.91203 18.9418 5.37913 19.0301 5.84988 19.0248L13.9599 19.0258ZM19.6689 10.5708C19.9972 10.912 20.1985 11.3554 20.2393 11.8271C20.28 12.2989 20.1578 12.7703 19.8929 13.1627C19.6929 13.4097 17.6169 15.4808 16.8349 16.2628L16.6989 16.3978C16.3441 16.7643 15.9177 17.0538 15.4461 17.2482C14.9745 17.4426 14.4679 17.5378 13.9579 17.5278H5.85088C5.57603 17.5345 5.30265 17.4857 5.04707 17.3844C4.79149 17.2831 4.55896 17.1313 4.36339 16.9381C4.16782 16.7448 4.01323 16.5141 3.90885 16.2598C3.80447 16.0054 3.75244 15.7327 3.75589 15.4578C3.74455 13.1544 3.74455 10.8504 3.75589 8.54577C3.75241 8.27048 3.80459 7.9973 3.90929 7.74267C4.01399 7.48804 4.16906 7.25719 4.36518 7.06396C4.56131 6.87073 4.79444 6.71912 5.0506 6.61822C5.30676 6.51732 5.58067 6.46921 5.85588 6.47677C8.58322 6.47277 11.3085 6.47277 14.0319 6.47677C14.8886 6.46327 15.7211 6.76101 16.3749 7.31475C16.8749 7.73075 18.4649 9.34677 19.2289 10.1228L19.6689 10.5708Z" fill="black"/>
</svg>
