<svg width="24" height="24" viewBox="0 0 24 24" fill="none" xmlns="http://www.w3.org/2000/svg">
<path d="M15.6075 20.037C15.3654 20.0522 15.1224 20.0388 14.8835 19.997C14.6449 19.9589 14.4243 19.847 14.2525 19.677C13.9323 19.3312 13.65 18.952 13.4105 18.546C13.3047 18.3901 13.1634 18.2614 12.9983 18.1705C12.8332 18.0796 12.6489 18.029 12.4605 18.023C12.2715 18.0181 12.084 18.0576 11.9131 18.1383C11.7422 18.2191 11.5927 18.3389 11.4765 18.488C11.1656 18.962 10.796 19.3948 10.3765 19.776C10.2711 19.8556 10.1522 19.9156 10.0255 19.953C9.72299 20.0343 9.40892 20.0641 9.09651 20.041C6.60351 20.041 5.35251 20.041 4.30651 19.4C3.71987 19.0407 3.22701 18.5472 2.86852 17.96C2.22852 16.917 2.22852 15.665 2.22852 13.172V10.83C2.22852 8.33703 2.22852 7.08504 2.86852 6.04104C3.22799 5.45487 3.72109 4.9621 4.30751 4.60304C5.35251 3.96204 6.60751 3.96203 9.09651 3.96203C9.3987 3.93981 9.70249 3.96581 9.99651 4.03904C10.1243 4.0743 10.2448 4.13185 10.3525 4.20904C10.7869 4.59131 11.1656 5.0326 11.4775 5.52003C11.5993 5.66523 11.7529 5.78047 11.9264 5.85684C12.0999 5.9332 12.2886 5.96866 12.478 5.96044C12.6673 5.95223 12.8523 5.90056 13.0185 5.80946C13.1847 5.71835 13.3277 5.59025 13.4365 5.43504C13.6501 5.0572 13.901 4.70175 14.1855 4.37403C14.3576 4.18819 14.5847 4.06238 14.8335 4.01504C15.0839 3.96516 15.3396 3.94734 15.5945 3.96203C16.7515 3.85394 17.9185 3.96454 19.0345 4.28803C20.1079 4.73286 20.9607 5.58568 21.4055 6.65904C21.729 7.7751 21.8396 8.94207 21.7315 10.099V13.914C21.8385 15.0642 21.729 16.2242 21.4085 17.334C21.1886 17.8693 20.8646 18.3557 20.4554 18.7649C20.0462 19.1741 19.5598 19.4981 19.0245 19.718C17.9155 20.037 16.7564 20.1452 15.6075 20.037ZM15.1395 18.511L15.0635 19.264L15.2385 18.551C15.2067 18.5349 15.1736 18.5215 15.1395 18.511ZM12.4255 16.52C12.8623 16.525 13.2915 16.6341 13.6776 16.8383C14.0638 17.0425 14.3956 17.3358 14.6455 17.694C14.9625 18.157 15.1455 18.429 15.2365 18.541V18.536C15.2915 18.536 15.4075 18.536 15.6025 18.536C16.5587 18.6201 17.5221 18.5489 18.4555 18.325C18.8061 18.1807 19.1246 17.9683 19.3927 17.7002C19.6608 17.4321 19.8731 17.1136 20.0175 16.763C20.2413 15.8293 20.3126 14.8655 20.2285 13.909V10.097C20.3139 9.1351 20.2416 8.16567 20.0145 7.22703C19.7231 6.5238 19.1645 5.96492 18.4615 5.67303C17.5227 5.44701 16.5534 5.37508 15.5915 5.46003C15.4135 5.46003 15.3025 5.46003 15.2235 5.46003C15.1085 5.60203 14.9505 5.85004 14.6895 6.25004C14.4539 6.61055 14.1355 6.90959 13.761 7.12232C13.3865 7.33505 12.9667 7.45532 12.5363 7.47312C12.106 7.49092 11.6776 7.40574 11.2868 7.22466C10.8961 7.04359 10.5541 6.77185 10.2895 6.43203C9.96451 6.01203 9.65551 5.61303 9.52651 5.46803C9.3839 5.45514 9.2406 5.45148 9.09751 5.45704C6.88651 5.45704 5.77651 5.45704 5.09151 5.87704C4.7074 6.11198 4.38427 6.43442 4.14851 6.81803C3.72951 7.50303 3.72952 8.61804 3.72952 10.825V13.167C3.72952 15.378 3.72951 16.489 4.14851 17.173C4.38383 17.5572 4.7066 17.8803 5.09052 18.116C5.77652 18.536 6.89051 18.536 9.09751 18.536C9.29751 18.536 9.42551 18.536 9.51751 18.536C9.64251 18.403 9.94051 18.019 10.2805 17.579C10.5319 17.2487 10.8564 16.9812 11.2286 16.7974C11.6007 16.6137 12.0105 16.5187 12.4255 16.52Z" fill="black"/>
</svg>
