<svg width="24" height="24" viewBox="0 0 24 24" fill="none" xmlns="http://www.w3.org/2000/svg">
<path d="M16.4302 20.0406C16.266 20.0448 16.1016 20.0388 15.9382 20.0226C15.7338 20.0137 15.5348 19.9543 15.359 19.8495C15.1833 19.7448 15.0362 19.5981 14.9312 19.4226C14.8942 19.3736 14.7532 19.1316 14.4822 18.6416C14.3824 18.4592 14.2368 18.306 14.0596 18.1973C13.8824 18.0885 13.6799 18.028 13.4722 18.0216C13.2235 18.0147 12.9789 18.0848 12.7716 18.2222C12.5643 18.3597 12.4045 18.5579 12.3142 18.7896C12.0852 19.3606 11.9702 19.6476 11.6712 19.8456C11.3667 20.0143 11.0165 20.0819 10.6712 20.0386H10.1932C6.59318 20.0386 4.79315 20.0386 3.51715 18.7646C2.24115 17.4906 2.24316 15.6856 2.24316 12.0886V11.9096C2.24316 8.30958 2.24317 6.50958 3.51617 5.23258C4.78917 3.95558 6.59718 3.9596 10.1932 3.9596H10.6712C11.0209 3.91661 11.3752 3.98668 11.6822 4.15958C11.9752 4.35958 12.0892 4.64457 12.3162 5.21457C12.4006 5.42966 12.5449 5.61599 12.7322 5.75137C12.9194 5.88676 13.1416 5.96553 13.3723 5.97827C13.603 5.99102 13.8325 5.93721 14.0335 5.82327C14.2345 5.70934 14.3986 5.54006 14.5062 5.33557C14.7502 4.87557 14.8782 4.64758 14.9172 4.59558C15.0244 4.41643 15.1738 4.26631 15.3525 4.15839C15.5312 4.05047 15.7337 3.98805 15.9422 3.97659C16.1024 3.96203 16.2633 3.95667 16.4242 3.96057C17.0529 3.93 17.6832 3.96351 18.3052 4.06058C19.1242 4.2368 19.8751 4.64555 20.4677 5.23779C21.0603 5.83003 21.4695 6.58061 21.6462 7.39957C21.7431 8.02224 21.7766 8.65316 21.7462 9.28259V14.7286C21.776 15.3544 21.7425 15.9815 21.6462 16.6006C21.4704 17.4214 21.0609 18.1739 20.4673 18.7674C19.8736 19.3608 19.121 19.77 18.3002 19.9456C17.6817 20.0409 17.0551 20.0727 16.4302 20.0406ZM10.1932 5.46158C7.01018 5.46158 5.41218 5.46159 4.57718 6.29559C3.74218 7.12959 3.74316 8.72959 3.74316 11.9116V12.0906C3.74316 15.2726 3.74318 16.8706 4.57718 17.7056C5.41118 18.5406 7.01018 18.5406 10.1932 18.5406H10.7992C10.8332 18.4576 10.8721 18.3546 10.9221 18.2306C11.1213 17.7264 11.4676 17.2939 11.916 16.9893C12.3644 16.6846 12.8941 16.522 13.4362 16.5226C13.9165 16.5289 14.3869 16.6609 14.8004 16.9055C15.214 17.1501 15.5562 17.4986 15.7932 17.9166C15.9822 18.2606 16.0932 18.4576 16.1372 18.5356H16.1572C16.1972 18.5406 16.2822 18.5356 16.4272 18.5356C16.9467 18.5603 17.4673 18.5392 17.9832 18.4726C18.5213 18.3577 19.0147 18.0897 19.404 17.7007C19.7933 17.3118 20.0618 16.8186 20.1772 16.2806C20.2437 15.7638 20.2648 15.2421 20.2402 14.7216V9.28058C20.2648 8.75708 20.2437 8.23243 20.1772 7.71259C20.0618 7.17659 19.7945 6.68516 19.4072 6.29712C19.0199 5.90909 18.5289 5.64087 17.9932 5.52457C17.4737 5.45798 16.9493 5.43691 16.4262 5.46158C16.2802 5.46158 16.1942 5.46158 16.1422 5.46158L16.1302 5.47959C16.1052 5.52059 16.0092 5.70657 15.8302 6.03757C15.5886 6.49486 15.221 6.87333 14.771 7.12811C14.3209 7.3829 13.8072 7.50333 13.2908 7.47513C12.7744 7.44693 12.2769 7.27128 11.8573 6.969C11.4377 6.66671 11.1135 6.25048 10.9232 5.76959C10.8732 5.64459 10.8342 5.54159 10.8002 5.45859H10.1932V5.46158Z" fill="black"/>
<path d="M9.65863 11.127H7.43262C7.2337 11.127 7.04294 11.0479 6.90228 10.9073C6.76163 10.7666 6.68262 10.5759 6.68262 10.377C6.68262 10.178 6.76163 9.98727 6.90228 9.84662C7.04294 9.70597 7.2337 9.62695 7.43262 9.62695H9.65863C9.85754 9.62695 10.0483 9.70597 10.189 9.84662C10.3296 9.98727 10.4086 10.178 10.4086 10.377C10.4086 10.5759 10.3296 10.7666 10.189 10.9073C10.0483 11.0479 9.85754 11.127 9.65863 11.127Z" fill="black"/>
<path d="M12.5656 14.416H7.43262C7.2337 14.416 7.04294 14.337 6.90228 14.1964C6.76163 14.0557 6.68262 13.8649 6.68262 13.666C6.68262 13.4671 6.76163 13.2763 6.90228 13.1357C7.04294 12.995 7.2337 12.916 7.43262 12.916H12.5656C12.7645 12.916 12.9553 12.995 13.0959 13.1357C13.2366 13.2763 13.3156 13.4671 13.3156 13.666C13.3156 13.8649 13.2366 14.0557 13.0959 14.1964C12.9553 14.337 12.7645 14.416 12.5656 14.416Z" fill="black"/>
</svg>
