<svg width="24" height="24" viewBox="0 0 24 24" fill="none" xmlns="http://www.w3.org/2000/svg">
<path d="M10.3855 21.752C9.80597 21.7517 9.23604 21.6037 8.72952 21.322C8.19374 20.9747 7.70906 20.5543 7.28952 20.073C7.16548 19.9581 7.05203 19.8323 6.95053 19.697C6.85423 19.5751 6.78484 19.4342 6.74692 19.2836C6.709 19.1329 6.70341 18.976 6.73053 18.823C6.77626 18.5533 6.84518 18.2879 6.93652 18.03C6.977 17.8942 6.98113 17.7501 6.94849 17.6122C6.91585 17.4743 6.84758 17.3473 6.75052 17.244C6.64493 17.1321 6.51003 17.052 6.36118 17.0129C6.21232 16.9738 6.0555 16.9773 5.90854 17.023C5.66409 17.115 5.41169 17.1843 5.15454 17.23C4.99975 17.2572 4.84096 17.2518 4.68839 17.2141C4.53581 17.1764 4.3928 17.1072 4.26852 17.011C4.13769 16.9123 4.01559 16.8026 3.90353 16.683C3.41901 16.2601 2.99502 15.7726 2.64352 15.234C2.36237 14.7277 2.21484 14.1581 2.21484 13.579C2.21484 12.9999 2.36237 12.4303 2.64352 11.924C2.99486 11.385 3.41848 10.8968 3.90253 10.473L10.4415 3.93402C10.8659 3.44818 11.3556 3.02348 11.8965 2.67203C12.4016 2.39266 12.9694 2.24609 13.5465 2.24609C14.1237 2.24609 14.6915 2.39266 15.1965 2.67203C15.7373 3.02333 16.2266 3.44805 16.6505 3.93402C16.7739 4.04527 16.8852 4.16929 16.9825 4.30402C17.0778 4.42874 17.1463 4.57186 17.1837 4.72433C17.221 4.87681 17.2264 5.03534 17.1995 5.19C17.1563 5.40439 17.0996 5.61585 17.0295 5.82303L16.9925 5.94101C16.9468 6.08426 16.9413 6.23731 16.9767 6.38345C17.0122 6.52959 17.0871 6.66319 17.1933 6.76962C17.2995 6.87605 17.433 6.95124 17.579 6.98694C17.7251 7.02263 17.8782 7.01746 18.0215 6.97202C18.2635 6.883 18.5123 6.81377 18.7655 6.76501C18.9227 6.73736 19.084 6.74281 19.239 6.78104C19.3939 6.81926 19.5392 6.88944 19.6655 6.98703C19.7974 7.08292 19.9191 7.19216 20.0285 7.31302C20.5148 7.73732 20.9396 8.22737 21.2905 8.76901C21.5698 9.27412 21.7163 9.84184 21.7163 10.419C21.7163 10.9962 21.5698 11.5639 21.2905 12.069C20.9397 12.6096 20.5153 13.0986 20.0295 13.522L19.1645 14.388C19.023 14.5246 18.8335 14.6001 18.6369 14.5983C18.4402 14.5965 18.2521 14.5175 18.1132 14.3784C17.9742 14.2393 17.8954 14.0511 17.8938 13.8545C17.8922 13.6578 17.9678 13.4684 18.1045 13.327L18.9695 12.462C19.3448 12.1285 19.6825 11.755 19.9765 11.348C20.1339 11.0631 20.2165 10.743 20.2165 10.4175C20.2165 10.092 20.1339 9.77191 19.9765 9.48703C19.6933 9.0887 19.3662 8.7234 19.0015 8.39801L18.8775 8.27402C18.7905 8.29902 18.6675 8.33801 18.4995 8.38901C18.0943 8.52185 17.6603 8.54042 17.2451 8.44269C16.83 8.34495 16.4499 8.13471 16.1465 7.83502C15.8431 7.53534 15.6282 7.15783 15.5253 6.74396C15.4225 6.33009 15.4357 5.89586 15.5635 5.48901L15.5995 5.37201C15.6375 5.24801 15.6675 5.15203 15.6895 5.08203L15.5895 4.98203C15.2557 4.60606 14.8814 4.26802 14.4735 3.97403C14.189 3.81662 13.8692 3.73404 13.544 3.73404C13.2189 3.73404 12.899 3.81662 12.6145 3.97403C12.2099 4.26567 11.8387 4.60103 11.5075 4.97403L4.95853 11.522C4.58305 11.8543 4.24595 12.2277 3.95352 12.635C3.79539 12.92 3.71243 13.2406 3.71243 13.5665C3.71243 13.8925 3.79539 14.213 3.95352 14.498C4.24668 14.9051 4.58446 15.2781 4.96054 15.61L5.05453 15.71L5.37451 15.61C5.77667 15.4671 6.2105 15.438 6.62814 15.526C7.04578 15.614 7.43102 15.8156 7.74133 16.1086C8.05164 16.4017 8.27498 16.7747 8.38672 17.1866C8.49845 17.5986 8.49421 18.0333 8.37451 18.443C8.31251 18.651 8.26952 18.8 8.24152 18.897C8.26652 18.924 8.29353 18.95 8.32553 18.982C8.66192 19.362 9.0392 19.7037 9.45053 20.001C9.73568 20.1587 10.0562 20.2414 10.382 20.2414C10.7079 20.2414 11.0284 20.1587 11.3135 20.001C11.7198 19.7096 12.0928 19.3742 12.4255 19.001L13.3755 18.051C13.5169 17.9143 13.7063 17.8387 13.903 17.8403C14.0996 17.8419 14.2878 17.9207 14.4269 18.0597C14.566 18.1987 14.645 18.3867 14.6468 18.5834C14.6486 18.78 14.5731 18.9695 14.4365 19.111L13.4855 20.061C13.0625 20.5438 12.5753 20.9664 12.0375 21.317C11.5326 21.5997 10.9642 21.7494 10.3855 21.752Z" fill="black"/>
<path d="M15.9473 18.0859C15.7484 18.0859 15.5576 18.0069 15.4169 17.8663C15.2763 17.7256 15.1973 17.5348 15.1973 17.3359C15.1973 17.137 15.2763 16.9463 15.4169 16.8056C15.5576 16.665 15.7484 16.5859 15.9473 16.5859H18.7892C18.9882 16.5859 19.1789 16.665 19.3196 16.8056C19.4602 16.9463 19.5392 17.137 19.5392 17.3359C19.5392 17.5348 19.4602 17.7256 19.3196 17.8663C19.1789 18.0069 18.9882 18.0859 18.7892 18.0859H15.9473Z" fill="black"/>
<path d="M17.3692 21.752C16.4955 21.7522 15.6415 21.4933 14.915 21.0081C14.1885 20.5228 13.6221 19.8331 13.2877 19.026C12.9532 18.2189 12.8656 17.3308 13.0359 16.4739C13.2062 15.617 13.6268 14.8299 14.2445 14.2121C14.8622 13.5942 15.6492 13.1734 16.5061 13.0029C17.3629 12.8324 18.2511 12.9198 19.0582 13.2541C19.8654 13.5884 20.5553 14.1545 21.0407 14.8809C21.5261 15.6073 21.7852 16.4613 21.7852 17.335C21.7838 18.5059 21.3182 19.6284 20.4904 20.4565C19.6625 21.2845 18.5401 21.7504 17.3692 21.752ZM17.3692 14.418C16.7922 14.4178 16.2281 14.5887 15.7483 14.9091C15.2685 15.2295 14.8944 15.685 14.6735 16.218C14.4526 16.751 14.3946 17.3375 14.5071 17.9035C14.6195 18.4694 14.8973 18.9892 15.3052 19.3973C15.7131 19.8053 16.2328 20.0832 16.7987 20.1959C17.3646 20.3085 17.9512 20.2508 18.4842 20.03C19.0173 19.8093 19.4729 19.4354 19.7935 18.9557C20.1141 18.476 20.2852 17.9119 20.2852 17.335C20.2841 16.5618 19.9766 15.8207 19.43 15.2739C18.8834 14.7271 18.1423 14.4193 17.3692 14.418Z" fill="black"/>
<path d="M15.1594 12.0652C15.061 12.0654 14.9635 12.0462 14.8726 12.0086C14.7816 11.971 14.699 11.9158 14.6294 11.8462L12.8654 10.0822C12.7938 10.013 12.7367 9.93018 12.6975 9.83865C12.6582 9.74713 12.6376 9.64872 12.6367 9.54913C12.6359 9.44955 12.655 9.35079 12.6927 9.25864C12.7305 9.16648 12.7862 9.08278 12.8567 9.01239C12.9271 8.94201 13.0109 8.88636 13.1031 8.84869C13.1952 8.81103 13.294 8.79209 13.3936 8.793C13.4932 8.79391 13.5916 8.81466 13.6831 8.854C13.7746 8.89335 13.8573 8.95052 13.9264 9.02219L15.6894 10.7852C15.7947 10.8899 15.8664 11.0235 15.8956 11.1691C15.9248 11.3146 15.91 11.4656 15.8532 11.6027C15.7964 11.7399 15.7002 11.8571 15.5766 11.9394C15.4531 12.0218 15.3079 12.0655 15.1594 12.0652Z" fill="black"/>
<path d="M11.3745 8.30023C11.276 8.30047 11.1784 8.28117 11.0874 8.24341C10.9964 8.20564 10.9139 8.15016 10.8445 8.08023L9.10648 6.34323C8.96578 6.20253 8.88672 6.01172 8.88672 5.81274C8.88672 5.61377 8.96578 5.42295 9.10648 5.28226C9.24717 5.14156 9.43799 5.0625 9.63696 5.0625C9.83594 5.0625 10.0268 5.14156 10.1675 5.28226L11.9045 7.02023C12.0092 7.12512 12.0806 7.25871 12.1094 7.40411C12.1383 7.54951 12.1235 7.70019 12.0668 7.83716C12.0101 7.97412 11.914 8.09123 11.7908 8.17365C11.6676 8.25606 11.5227 8.3001 11.3745 8.30023Z" fill="black"/>
</svg>
