<svg width="24" height="24" viewBox="0 0 24 24" fill="none" xmlns="http://www.w3.org/2000/svg">
<path d="M17.2359 8.55369C17.0901 8.55351 16.9474 8.51099 16.8253 8.43128C16.7032 8.35157 16.6068 8.23811 16.5479 8.10468C16.4077 7.78092 16.339 7.43072 16.3464 7.07798C16.3538 6.72524 16.4372 6.37826 16.5909 6.06068C16.6909 5.84568 16.7649 5.69969 16.8069 5.60569C16.7779 5.56069 16.7429 5.5147 16.6979 5.4557C16.3934 4.99177 16.0378 4.56342 15.6379 4.17869C15.3465 3.95798 15.0039 3.81471 14.6421 3.76224C14.2803 3.70978 13.9111 3.74987 13.5689 3.8787C13.078 4.13184 12.6171 4.43943 12.1949 4.79569L7.45492 8.3307C7.37613 8.38979 7.28648 8.43278 7.19107 8.45722C7.09566 8.48167 6.99633 8.48708 6.89883 8.47315C6.80133 8.45922 6.70752 8.42623 6.62277 8.37604C6.53802 8.32586 6.46403 8.25946 6.40494 8.18067C6.34584 8.10188 6.30279 8.01223 6.27835 7.91682C6.25391 7.82141 6.24849 7.72211 6.26242 7.62461C6.27635 7.52711 6.30935 7.43333 6.35953 7.34858C6.40971 7.26383 6.47611 7.18978 6.5549 7.13068L11.2889 3.59968C11.819 3.14825 12.4077 2.77051 13.0389 2.47669C13.6178 2.25875 14.2425 2.19121 14.8546 2.2804C15.4668 2.3696 16.0463 2.61259 16.5389 2.98667C17.0588 3.4434 17.5128 3.9701 17.8879 4.55167C18.001 4.69043 18.1013 4.83902 18.1879 4.99567C18.2699 5.13911 18.3205 5.29828 18.3366 5.46271C18.3526 5.62715 18.3336 5.79311 18.2809 5.94968C18.1901 6.21394 18.0774 6.47015 17.9439 6.71567C17.8834 6.83869 17.8502 6.97334 17.8465 7.11039C17.8429 7.24744 17.8689 7.38364 17.9229 7.50968C17.9624 7.5999 17.9838 7.69703 17.9858 7.79551C17.9878 7.89399 17.9704 7.99188 17.9345 8.08363C17.8987 8.17537 17.8451 8.25916 17.7769 8.33021C17.7087 8.40125 17.6271 8.45816 17.5369 8.49769C17.4414 8.53645 17.339 8.55549 17.2359 8.55369Z" fill="black"/>
<path d="M8.05965 19.3985C7.91117 19.3989 7.76592 19.3553 7.64217 19.2733C7.51842 19.1913 7.42172 19.0744 7.36427 18.9375C7.30682 18.8006 7.29114 18.6497 7.31929 18.504C7.34744 18.3582 7.41813 18.224 7.52242 18.1183C7.62671 18.0127 7.75995 17.9402 7.90535 17.9101C8.05075 17.88 8.20177 17.8937 8.33943 17.9493C8.47709 18.005 8.59524 18.1001 8.67891 18.2227C8.76258 18.3454 8.80807 18.4901 8.80965 18.6385V18.6485C8.80965 18.8474 8.73063 19.0382 8.58998 19.1789C8.44933 19.3195 8.25856 19.3985 8.05965 19.3985Z" fill="black"/>
<path d="M8.05969 16.5763C7.91094 16.5769 7.7653 16.5334 7.64124 16.4513C7.51717 16.3692 7.4202 16.2523 7.36255 16.1151C7.3049 15.978 7.28917 15.8269 7.31732 15.6808C7.34547 15.5347 7.41626 15.4003 7.52075 15.2944C7.62524 15.1885 7.75874 15.116 7.90442 15.0859C8.0501 15.0558 8.20141 15.0695 8.3393 15.1254C8.47718 15.1812 8.59549 15.2766 8.6792 15.3996C8.76291 15.5226 8.80831 15.6676 8.80969 15.8163V15.8263C8.80969 16.0252 8.73068 16.216 8.59003 16.3566C8.44938 16.4973 8.25861 16.5763 8.05969 16.5763Z" fill="black"/>
<path d="M8.05969 13.756C7.91094 13.7566 7.7653 13.7131 7.64124 13.631C7.51717 13.549 7.4202 13.432 7.36255 13.2948C7.3049 13.1577 7.28917 13.0066 7.31732 12.8605C7.34547 12.7144 7.41626 12.58 7.52075 12.4741C7.62524 12.3682 7.75874 12.2956 7.90442 12.2656C8.0501 12.2355 8.20141 12.2492 8.3393 12.305C8.47718 12.3609 8.59549 12.4563 8.6792 12.5793C8.76291 12.7022 8.80831 12.8472 8.80969 12.996V13.006C8.80969 13.2049 8.73068 13.3957 8.59003 13.5363C8.44938 13.677 8.25861 13.756 8.05969 13.756Z" fill="black"/>
<path d="M8.05971 10.9357C7.91091 10.9363 7.76528 10.8927 7.64119 10.8106C7.5171 10.7285 7.42007 10.6115 7.36244 10.4743C7.30482 10.3371 7.28917 10.1859 7.3174 10.0398C7.34563 9.89372 7.41648 9.75925 7.52107 9.65341C7.62566 9.54756 7.75929 9.4751 7.90504 9.44512C8.05079 9.41515 8.20217 9.42903 8.34004 9.48501C8.47791 9.54099 8.59605 9.63657 8.67964 9.75967C8.76323 9.88277 8.80852 10.0279 8.80971 10.1767V10.1857C8.80971 10.3846 8.73069 10.5753 8.59004 10.716C8.44939 10.8567 8.25862 10.9357 8.05971 10.9357Z" fill="black"/>
<path d="M13.8521 17.4736C13.2463 17.4734 12.6542 17.2936 12.1506 16.9569C11.647 16.6203 11.2546 16.1418 11.0229 15.5821C10.7912 15.0224 10.7307 14.4066 10.849 13.8125C10.9673 13.2184 11.2591 12.6727 11.6875 12.2444C12.1159 11.8162 12.6617 11.5245 13.2559 11.4064C13.85 11.2883 14.4658 11.349 15.0255 11.5809C15.5851 11.8128 16.0634 12.2054 16.3999 12.7091C16.7364 13.2127 16.916 13.8049 16.916 14.4107C16.9152 15.2229 16.5922 16.0017 16.0177 16.576C15.4433 17.1503 14.6644 17.4731 13.8521 17.4736ZM13.8521 12.8467C13.543 12.8469 13.241 12.9387 12.9841 13.1105C12.7272 13.2823 12.527 13.5264 12.4088 13.812C12.2907 14.0975 12.2598 14.4117 12.3201 14.7148C12.3805 15.0179 12.5294 15.2963 12.7479 15.5149C12.9664 15.7334 13.2448 15.8822 13.5479 15.9426C13.851 16.0029 14.1651 15.972 14.4507 15.8539C14.7363 15.7357 14.9804 15.5355 15.1522 15.2786C15.3241 15.0218 15.4158 14.7197 15.416 14.4107C15.4158 13.9959 15.2509 13.5983 14.9577 13.305C14.6644 13.0118 14.2668 12.8469 13.8521 12.8467Z" fill="black"/>
<path d="M17.0362 21.741H6.96417C6.26903 21.7882 5.5707 21.7387 4.88916 21.594C4.29079 21.4236 3.74585 21.1032 3.30591 20.6633C2.86597 20.2234 2.54561 19.6784 2.37518 19.08C2.23241 18.3989 2.1836 17.7014 2.23016 17.007C2.22483 16.8333 2.23284 16.6595 2.25415 16.487C2.27212 16.325 2.3243 16.1687 2.40722 16.0284C2.49015 15.888 2.60193 15.7669 2.73517 15.673C2.94286 15.5257 3.16227 15.3956 3.39117 15.284L3.50018 15.223C3.65381 15.1396 3.78179 15.016 3.87042 14.8653C3.95905 14.7146 4.00498 14.5427 4.00323 14.3679C4.00149 14.1931 3.95216 14.0221 3.86053 13.8732C3.76891 13.7244 3.63842 13.6033 3.48315 13.523C3.23026 13.4052 2.98717 13.2675 2.75616 13.111C2.62039 13.0171 2.50578 12.8958 2.41968 12.7549C2.33357 12.614 2.27786 12.4567 2.25616 12.293C2.2347 12.1296 2.226 11.9648 2.23016 11.8C2.18172 11.0938 2.22984 10.3842 2.37317 9.69101C2.54382 9.09237 2.86436 8.54716 3.30444 8.10691C3.74452 7.66665 4.28961 7.34591 4.88818 7.17502C5.57084 7.03106 6.2701 6.98193 6.96618 7.02903H17.0322C17.7299 6.98218 18.4308 7.0313 19.1152 7.17502C19.7119 7.34653 20.2553 7.66683 20.6943 8.10587C21.1334 8.54491 21.4537 9.0883 21.6252 9.68503C21.7689 10.3694 21.818 11.0703 21.7712 11.768C21.7771 11.9441 21.768 12.1204 21.7441 12.295C21.7232 12.4588 21.6678 12.6163 21.5817 12.7571C21.4955 12.8979 21.3804 13.0189 21.2441 13.112C21.0235 13.2664 20.7892 13.4003 20.5442 13.512C20.3782 13.5902 20.2379 13.714 20.1396 13.8689C20.0413 14.0238 19.9891 14.2036 19.9891 14.387C19.9876 14.5647 20.0355 14.7394 20.1275 14.8915C20.2195 15.0435 20.352 15.167 20.5102 15.248C20.7673 15.3663 21.0135 15.5069 21.2462 15.668C21.3807 15.7618 21.494 15.8828 21.5788 16.0232C21.6636 16.1636 21.7178 16.3203 21.7382 16.483C21.7606 16.6567 21.769 16.832 21.7632 17.007C21.8116 17.7051 21.7621 18.4066 21.6161 19.091C21.4453 19.6877 21.1253 20.231 20.6863 20.6698C20.2474 21.1086 19.7039 21.4284 19.1072 21.599C18.4266 21.7411 17.7298 21.7889 17.0362 21.741ZM3.73614 16.809C3.73614 16.867 3.73614 16.927 3.73614 17.009C3.70264 17.5628 3.73149 18.1187 3.82214 18.666C3.92339 19.0205 4.11337 19.3434 4.37408 19.6041C4.63479 19.8648 4.95761 20.0548 5.31213 20.156C5.85973 20.2476 6.41597 20.2768 6.97015 20.243H17.0422C17.5977 20.277 18.1552 20.2478 18.7042 20.156C19.0582 20.0551 19.3808 19.8656 19.6413 19.6054C19.9018 19.3452 20.0917 19.023 20.1932 18.669C20.2857 18.1195 20.3149 17.5612 20.2801 17.005C20.2801 16.925 20.2801 16.863 20.2801 16.816C20.1801 16.758 20.0372 16.682 19.8292 16.572C19.4298 16.3632 19.0952 16.0489 18.8618 15.6634C18.6283 15.2778 18.5049 14.8357 18.5049 14.385C18.5049 13.9343 18.6283 13.4922 18.8618 13.1067C19.0952 12.7211 19.4298 12.4069 19.8292 12.198C20.0482 12.083 20.1902 12.01 20.2772 11.962C20.2772 11.906 20.2772 11.846 20.2772 11.769C20.3111 11.2125 20.2819 10.6539 20.1902 10.104C20.0884 9.75046 19.8986 9.42851 19.6385 9.16828C19.3785 8.90804 19.0567 8.71805 18.7032 8.61603C18.1531 8.52538 17.5946 8.4965 17.0381 8.53H6.97015C6.41534 8.49637 5.85854 8.52525 5.31018 8.61603C4.9554 8.71731 4.63229 8.90736 4.3714 9.16825C4.11051 9.42914 3.92043 9.75225 3.81915 10.107C3.72863 10.6561 3.70015 11.2136 3.73419 11.769C3.73419 11.851 3.73419 11.911 3.73419 11.957C3.82019 12.007 3.94218 12.07 4.11218 12.157C4.51959 12.3542 4.86479 12.6599 5.10992 13.0404C5.35506 13.4209 5.49067 13.8616 5.50183 14.3141C5.51299 14.7666 5.39924 15.2134 5.17316 15.6055C4.94707 15.9977 4.61735 16.32 4.22015 16.537L4.11413 16.595C3.93813 16.695 3.81318 16.763 3.73218 16.809H3.73614Z" fill="black"/>
</svg>
