<svg width="24" height="24" viewBox="0 0 24 24" fill="none" xmlns="http://www.w3.org/2000/svg">
<path d="M10.6671 19.2752H6.81013C6.16832 19.3158 5.52397 19.2731 4.89313 19.1482C4.29406 18.9816 3.74818 18.6631 3.30842 18.2235C2.86866 17.7839 2.54992 17.2382 2.38312 16.6391C2.25737 16.0081 2.21435 15.3633 2.25513 14.7212C2.25065 14.5496 2.25635 14.378 2.27216 14.2071L2.28913 14.0842C2.30603 13.8305 2.41696 13.5924 2.60017 13.4162L2.67915 13.3292C2.76015 13.2382 2.88715 13.1292 3.73615 12.4152C3.85405 12.3164 3.94853 12.1927 4.01276 12.0529C4.077 11.9132 4.10937 11.7609 4.10755 11.6071C4.10573 11.4534 4.06978 11.3019 4.00227 11.1637C3.93475 11.0255 3.83731 10.9041 3.71711 10.8082C3.3643 10.5476 3.02583 10.2682 2.70313 9.97115C2.47242 9.7719 2.32619 9.49229 2.29414 9.18914L2.27717 9.08315C2.2604 8.90501 2.25438 8.72601 2.25916 8.54714C2.21582 7.89591 2.25954 7.24183 2.38917 6.60216C2.55662 6.00795 2.87361 5.46658 3.30988 5.02977C3.74616 4.59297 4.2871 4.27533 4.88111 4.10717C5.52091 3.97852 6.17485 3.93447 6.82612 3.97616H10.6621C10.8161 3.97616 10.8931 3.97616 10.9681 3.98116C11.4935 4.01662 11.9964 4.20736 12.4132 4.52916C12.4692 4.57216 12.5261 4.62215 12.6321 4.71615C12.7502 4.82889 12.8744 4.93504 13.0042 5.03414C13.1923 5.16122 13.4141 5.22915 13.6411 5.22915C13.8682 5.22915 14.09 5.16122 14.2781 5.03414C14.4021 4.94053 14.5209 4.8404 14.6342 4.73415C14.7472 4.63415 14.8081 4.58014 14.8671 4.53414C15.2822 4.21177 15.7838 4.02031 16.3081 3.98415C16.3891 3.97915 16.4681 3.97814 16.6231 3.97814C16.9963 3.96446 17.3701 3.97883 17.7412 4.02114C18.4929 4.13654 19.1883 4.4887 19.7262 5.02642C20.2641 5.56414 20.6165 6.25942 20.7321 7.01116C20.7732 7.37997 20.7873 7.75129 20.7741 8.12215V8.97616C20.7741 9.17507 20.6951 9.36584 20.5545 9.50649C20.4138 9.64714 20.223 9.72616 20.0241 9.72616C19.8252 9.72616 19.6344 9.64714 19.4938 9.50649C19.3531 9.36584 19.2741 9.17507 19.2741 8.97616V8.12316C19.2837 7.82926 19.2754 7.53503 19.2492 7.24215C19.182 6.80504 18.9769 6.40081 18.6639 6.08837C18.351 5.77592 17.9464 5.57159 17.5092 5.50515C17.2147 5.47772 16.9187 5.46904 16.6231 5.47915C16.5111 5.47915 16.4591 5.47915 16.4061 5.47915C16.1818 5.4956 15.9672 5.57767 15.7891 5.71514C15.7531 5.74414 15.7122 5.77915 15.6342 5.85015C15.471 6.00391 15.2979 6.14689 15.1162 6.27816C14.6809 6.57191 14.1678 6.72887 13.6426 6.72887C13.1175 6.72887 12.6044 6.57191 12.1691 6.27816C11.9938 6.15063 11.8268 6.012 11.6691 5.86315C11.5691 5.77615 11.5361 5.74414 11.5001 5.71514C11.3196 5.57556 11.1018 5.49275 10.8742 5.47716C10.8282 5.47716 10.7741 5.47716 10.6661 5.47716H6.83015C6.31457 5.44751 5.79728 5.47298 5.28712 5.55315C4.94159 5.65108 4.62698 5.83599 4.3733 6.0902C4.11961 6.34441 3.93535 6.65942 3.83814 7.00515C3.75804 7.51095 3.73288 8.02393 3.76313 8.53515C3.76313 8.71715 3.76313 8.81317 3.76313 8.87417L3.81116 8.96114C3.86916 9.01214 4.14714 9.23317 4.65314 9.63717C4.95251 9.87516 5.19394 10.178 5.3592 10.5229C5.52446 10.8678 5.6092 11.2457 5.60712 11.6282C5.60303 11.9968 5.52005 12.3603 5.36378 12.6943C5.20751 13.0282 4.98155 13.3248 4.70112 13.5641C4.15512 14.0231 3.85912 14.2712 3.77912 14.3482L3.75611 14.4221C3.75611 14.4661 3.75611 14.5572 3.75611 14.7222C3.72728 15.2307 3.75211 15.7408 3.83015 16.2442C3.92782 16.5922 4.11344 16.9093 4.36915 17.1648C4.62485 17.4203 4.94205 17.6057 5.29017 17.7031C5.79325 17.7803 6.30301 17.8048 6.81116 17.7761H10.6632C10.8621 17.7761 11.0528 17.8552 11.1935 17.9958C11.3341 18.1365 11.4132 18.3272 11.4132 18.5261C11.4132 18.7251 11.3341 18.9158 11.1935 19.0565C11.0528 19.1971 10.8621 19.2761 10.6632 19.2761L10.6671 19.2752Z" fill="black"/>
<path d="M12.0098 11.125H8.75977C8.56085 11.125 8.37008 11.046 8.22943 10.9053C8.08878 10.7647 8.00977 10.5739 8.00977 10.375C8.00977 10.1761 8.08878 9.98532 8.22943 9.84467C8.37008 9.70401 8.56085 9.625 8.75977 9.625H12.0098C12.2087 9.625 12.3994 9.70401 12.5401 9.84467C12.6808 9.98532 12.7598 10.1761 12.7598 10.375C12.7598 10.5739 12.6808 10.7647 12.5401 10.9053C12.3994 11.046 12.2087 11.125 12.0098 11.125Z" fill="black"/>
<path d="M17.3771 20.0374C16.5105 20.0372 15.6633 19.7801 14.9428 19.2985C14.2224 18.8168 13.6609 18.1324 13.3294 17.3317C12.9979 16.5309 12.9112 15.6499 13.0804 14.7999C13.2496 13.95 13.6671 13.1693 14.2799 12.5565C14.8928 11.9438 15.6736 11.5266 16.5236 11.3576C17.3736 11.1886 18.2546 11.2754 19.0553 11.6071C19.8559 11.9388 20.5402 12.5004 21.0217 13.221C21.5032 13.9416 21.7601 14.7888 21.7601 15.6554C21.7588 16.8174 21.2965 17.9313 20.4748 18.7529C19.6531 19.5744 18.5391 20.0364 17.3771 20.0374ZM17.3771 12.7734C16.8071 12.7736 16.25 12.9428 15.7762 13.2596C15.3024 13.5764 14.9332 14.0266 14.7152 14.5532C14.4972 15.0799 14.4403 15.6593 14.5516 16.2183C14.6629 16.7773 14.9375 17.2907 15.3405 17.6937C15.7436 18.0966 16.2572 18.371 16.8162 18.4821C17.3752 18.5933 17.9547 18.5361 18.4812 18.318C19.0078 18.0998 19.4578 17.7304 19.7744 17.2565C20.0911 16.7826 20.2601 16.2254 20.2601 15.6554C20.259 14.8912 19.9549 14.1587 19.4145 13.6184C18.874 13.0781 18.1413 12.7742 17.3771 12.7734Z" fill="black"/>
<path d="M18.5044 17.3505C18.3691 17.3507 18.2364 17.314 18.1204 17.2445L16.9724 16.5565C16.8611 16.49 16.769 16.3959 16.705 16.2832C16.641 16.1705 16.6074 16.0431 16.6074 15.9135V14.4375C16.6074 14.2386 16.6864 14.0478 16.8271 13.9072C16.9677 13.7665 17.1585 13.6875 17.3574 13.6875C17.5563 13.6875 17.7471 13.7665 17.8878 13.9072C18.0284 14.0478 18.1074 14.2386 18.1074 14.4375V15.4885L18.8904 15.9575C19.031 16.0419 19.1401 16.1701 19.2009 16.3224C19.2617 16.4747 19.2709 16.6427 19.2271 16.8008C19.1833 16.9588 19.0889 17.0981 18.9584 17.1974C18.8278 17.2967 18.6684 17.3505 18.5044 17.3505Z" fill="black"/>
</svg>
