<svg width="24" height="24" viewBox="0 0 24 24" fill="none" xmlns="http://www.w3.org/2000/svg">
<path d="M7.77953 14.6762C7.63012 14.6762 7.48411 14.6316 7.36026 14.548C7.23641 14.4645 7.14039 14.3457 7.08453 14.2072L5.52453 10.3502C5.44988 10.1657 5.45155 9.95915 5.52919 9.77592C5.60683 9.5927 5.75408 9.44783 5.93853 9.37317C6.12299 9.29851 6.32955 9.30018 6.51278 9.37782C6.696 9.45546 6.84088 9.60271 6.91553 9.78717L7.77953 11.9252L8.64353 9.78717C8.71819 9.60271 8.86307 9.45546 9.04629 9.37782C9.22952 9.30018 9.43608 9.29851 9.62053 9.37317C9.80499 9.44783 9.95224 9.5927 10.0299 9.77592C10.1075 9.95915 10.1092 10.1657 10.0345 10.3502L8.47453 14.2072C8.41857 14.3457 8.32252 14.4643 8.19869 14.5479C8.07487 14.6314 7.92891 14.6761 7.77953 14.6762Z" fill="black"/>
<path d="M11.9795 14.749C11.7806 14.749 11.5898 14.67 11.4492 14.5294C11.3085 14.3887 11.2295 14.198 11.2295 13.999V9.99805C11.2295 9.79913 11.3085 9.60837 11.4492 9.46772C11.5898 9.32707 11.7806 9.24805 11.9795 9.24805C12.1784 9.24805 12.3692 9.32707 12.5098 9.46772C12.6505 9.60837 12.7295 9.79913 12.7295 9.99805V13.998C12.7296 14.0966 12.7103 14.1943 12.6727 14.2854C12.6351 14.3765 12.5798 14.4593 12.5102 14.529C12.4405 14.5988 12.3578 14.6541 12.2667 14.6919C12.1757 14.7296 12.0781 14.749 11.9795 14.749Z" fill="black"/>
<path d="M14.8467 14.7379C14.6478 14.7379 14.457 14.6589 14.3163 14.5183C14.1757 14.3776 14.0967 14.1868 14.0967 13.9879V9.91992C14.0967 9.72101 14.1757 9.53025 14.3163 9.3896C14.457 9.24894 14.6478 9.16992 14.8467 9.16992H16.6007C17.1343 9.16992 17.6461 9.3819 18.0234 9.75922C18.4007 10.1365 18.6127 10.6483 18.6127 11.1819C18.6127 11.7155 18.4007 12.2273 18.0234 12.6046C17.6461 12.9819 17.1343 13.1939 16.6007 13.1939H15.6007V13.9879C15.6007 14.0868 15.5811 14.1846 15.5432 14.2759C15.5053 14.3671 15.4497 14.45 15.3796 14.5197C15.3095 14.5894 15.2264 14.6445 15.1349 14.682C15.0435 14.7194 14.9455 14.7384 14.8467 14.7379ZM15.5967 11.6939H16.5967C16.7325 11.6939 16.8627 11.64 16.9587 11.544C17.0547 11.4479 17.1087 11.3177 17.1087 11.1819C17.1087 11.0461 17.0547 10.9159 16.9587 10.8199C16.8627 10.7239 16.7325 10.6699 16.5967 10.6699H15.5967V11.6939Z" fill="black"/>
<path d="M15.6035 20.0391C15.3614 20.0549 15.1183 20.0415 14.8795 19.9991C14.6411 19.9611 14.4205 19.8496 14.2485 19.6801C13.9281 19.3344 13.6458 18.9552 13.4065 18.5491C13.3003 18.3935 13.159 18.2651 12.9939 18.1742C12.8289 18.0833 12.6448 18.0326 12.4565 18.0261C12.2676 18.0217 12.0803 18.0614 11.9094 18.1421C11.7386 18.2228 11.589 18.3423 11.4725 18.4911C11.1608 18.9642 10.7913 19.3966 10.3725 19.7781C10.2677 19.8555 10.1508 19.915 10.0265 19.9541C9.72176 20.0365 9.40533 20.0669 9.09049 20.0441C6.59749 20.0441 5.34649 20.0441 4.30149 19.4031C3.7175 19.0412 3.22693 18.5469 2.86949 17.9601C2.22949 16.9151 2.22949 15.6601 2.22949 13.1701V10.8281C2.22949 8.33515 2.22949 7.08415 2.86949 6.03915C3.22911 5.45256 3.72215 4.95917 4.30849 4.59914C5.35349 3.95914 6.60849 3.95914 9.09749 3.95914C9.39979 3.93678 9.70371 3.96346 9.99749 4.03815C10.1237 4.0728 10.2428 4.12932 10.3495 4.20515C10.7856 4.58756 11.1659 5.02918 11.4795 5.51714C11.5905 5.66243 11.734 5.77977 11.8984 5.8598C12.0628 5.93984 12.2436 5.98036 12.4265 5.97814C12.6272 5.98028 12.8252 5.9314 13.0019 5.83607C13.1785 5.74075 13.3281 5.6021 13.4365 5.43314C13.6498 5.05519 13.9008 4.69973 14.1855 4.37215C14.3583 4.18621 14.5861 4.06042 14.8355 4.01315C15.0852 3.96316 15.3403 3.94535 15.5945 3.96014C16.7519 3.85182 17.9193 3.96277 19.0355 4.28715C20.1082 4.73154 20.9606 5.58361 21.4055 6.65614C21.7285 7.77333 21.8384 8.94131 21.7295 10.0991V13.9151C21.8365 15.065 21.727 16.2247 21.4065 17.3341C21.1867 17.8695 20.8628 18.356 20.4535 18.7652C20.0443 19.1744 19.5579 19.4983 19.0225 19.7181C17.9129 20.038 16.7532 20.1469 15.6035 20.0391ZM15.1325 18.5121L15.0595 19.2661L15.2335 18.5531C15.2012 18.5363 15.1674 18.5226 15.1325 18.5121ZM12.4235 16.5221C12.8602 16.5273 13.2894 16.6364 13.6755 16.8406C14.0616 17.0448 14.3934 17.3381 14.6435 17.6961C14.9605 18.1591 15.1435 18.4311 15.2345 18.5431V18.5371C15.2885 18.5371 15.4045 18.5371 15.6005 18.5371C16.5567 18.6216 17.5203 18.55 18.4535 18.3251C18.8041 18.1811 19.1227 17.969 19.3908 17.7011C19.6589 17.4331 19.8712 17.1147 20.0155 16.7641C20.2392 15.8307 20.3105 14.8673 20.2265 13.9111V10.0991C20.3118 9.13687 20.2395 8.16713 20.0125 7.22814C19.8684 6.88002 19.6571 6.56374 19.3906 6.29742C19.1241 6.0311 18.8077 5.81998 18.4595 5.67615C17.5208 5.44916 16.5514 5.37687 15.5895 5.46214C15.4125 5.46214 15.3005 5.46214 15.2225 5.46214C15.1065 5.60414 14.9485 5.85214 14.6875 6.25214C14.4417 6.62894 14.1057 6.93836 13.71 7.1523C13.3143 7.36623 12.8713 7.47789 12.4215 7.47714C12.0095 7.47925 11.6027 7.38613 11.2327 7.20503C10.8627 7.02393 10.5395 6.75976 10.2885 6.43314C9.95049 5.99714 9.65349 5.61315 9.52649 5.47115C9.38366 5.45641 9.23992 5.4524 9.09649 5.45914C6.88549 5.45914 5.77549 5.45914 5.09049 5.87814C4.70652 6.11413 4.38348 6.43717 4.14749 6.82114C3.72849 7.50614 3.72849 8.61615 3.72849 10.8271V13.1691C3.72849 15.3811 3.72849 16.4911 4.14749 17.1761C4.38352 17.5598 4.70657 17.8825 5.09049 18.1181C5.77549 18.5381 6.89049 18.5381 9.09649 18.5381C9.29649 18.5381 9.42649 18.5381 9.51849 18.5381C9.63749 18.4101 9.93749 18.0231 10.2795 17.5821C10.5307 17.2519 10.8551 16.9844 11.2271 16.8004C11.599 16.6165 12.0085 16.5213 12.4235 16.5221Z" fill="black"/>
</svg>
