<svg width="24" height="24" viewBox="0 0 24 24" fill="none" xmlns="http://www.w3.org/2000/svg">
<path fill-rule="evenodd" clip-rule="evenodd" d="M13.7583 17.4177C13.4637 16.4961 13.8083 15.4448 14.7746 15.1335C15.2831 14.9704 15.839 15.0634 16.2669 15.3843C16.6939 15.0669 17.2481 14.9731 17.7558 15.1335C18.722 15.4448 19.0693 16.4961 18.7746 17.4177C18.3161 18.8767 16.2669 20.0008 16.2669 20.0008C16.2669 20.0008 14.2335 18.8934 13.7583 17.4177Z" stroke="black" stroke-width="1.5" stroke-linecap="round" stroke-linejoin="round"/>
<path d="M5.12305 19.5734C5.12305 17.5208 6.74342 14.9648 11.4099 14.9648" stroke="black" stroke-width="1.5" stroke-linecap="round" stroke-linejoin="round"/>
<path fill-rule="evenodd" clip-rule="evenodd" d="M15.4282 8.01587C15.4282 10.2334 13.6298 12.0317 11.4124 12.0317C9.19486 12.0317 7.39648 10.2334 7.39648 8.01587C7.39648 5.79837 9.19486 4 11.4124 4C13.6298 4 15.4282 5.79837 15.4282 8.01587Z" stroke="black" stroke-width="1.5" stroke-linecap="round" stroke-linejoin="round"/>
</svg>
