<svg width="24" height="24" viewBox="0 0 24 24" fill="none" xmlns="http://www.w3.org/2000/svg">
<circle cx="10.5767" cy="8.17728" r="4.70071" stroke="black" stroke-width="1.5" stroke-linecap="round" stroke-linejoin="round"/>
<path d="M4.16135 19.5032C4.0505 18.865 4.09628 18.2036 4.09628 17.5589C4.09628 15.1296 6.06569 13.1602 8.49507 13.1602H12.7784C13.1049 13.1602 13.4231 13.1957 13.7293 13.2632" stroke="black" stroke-width="1.5" stroke-linecap="round" stroke-linejoin="round"/>
<path fill-rule="evenodd" clip-rule="evenodd" d="M17.4224 20.5234C17.4224 20.5234 19.8932 19.7747 19.8932 17.7124C19.8932 15.6491 19.9833 15.4889 19.7852 15.2899C19.5862 15.0899 17.7465 14.4492 17.4224 14.4492C17.0983 14.4492 15.2577 15.0909 15.0596 15.2899C14.8616 15.488 14.9506 15.6491 14.9506 17.7124C14.9506 19.7747 17.4224 20.5234 17.4224 20.5234Z" stroke="black" stroke-width="1.5" stroke-linecap="round" stroke-linejoin="round"/>
</svg>
