<svg width="24" height="24" viewBox="0 0 24 24" fill="none" xmlns="http://www.w3.org/2000/svg">
<path fill-rule="evenodd" clip-rule="evenodd" d="M13.622 7.99553C13.622 10.2017 11.8336 11.9911 9.6265 11.9911C7.42031 11.9911 5.63184 10.2017 5.63184 7.99553C5.63184 5.78934 7.42031 4 9.6265 4C11.8336 4 13.622 5.78934 13.622 7.99553Z" stroke="black" stroke-width="1.5" stroke-linecap="round" stroke-linejoin="round"/>
<path fill-rule="evenodd" clip-rule="evenodd" d="M9.62654 14.875C6.2511 14.875 3.37207 15.3853 3.37207 17.428C3.37207 19.4707 6.23467 19.9991 9.62654 19.9991C13.0003 19.9991 15.881 19.4872 15.881 17.4461C15.881 15.4034 13.0193 14.875 9.62654 14.875Z" stroke="black" stroke-width="1.5" stroke-linecap="round" stroke-linejoin="round"/>
<path d="M16.3721 10.8604L17.7627 12.2536L20.6279 9.38672" stroke="black" stroke-width="1.5" stroke-linecap="round" stroke-linejoin="round"/>
</svg>
