<svg width="24" height="24" viewBox="0 0 24 24" fill="none" xmlns="http://www.w3.org/2000/svg">
<path d="M17.7344 16.2332V15.3325C17.7247 14.5282 17.0646 13.8849 16.2603 13.8946C15.4737 13.9044 14.8366 14.5388 14.8233 15.3263V16.2332M17.4977 19.9994H15.0591C14.3901 19.9994 13.8486 19.4579 13.8486 18.7889V17.4201C13.8486 16.7521 14.3901 16.2097 15.0591 16.2097H17.4977C18.1657 16.2097 18.7081 16.7521 18.7081 17.4201V18.7889C18.7081 19.4579 18.1657 19.9994 17.4977 19.9994Z" stroke="black" stroke-width="1.5" stroke-linecap="round" stroke-linejoin="round"/>
<path d="M5.29199 19.7171C5.29199 17.6457 6.92627 15.0664 11.6362 15.0664" stroke="black" stroke-width="1.5" stroke-linecap="round" stroke-linejoin="round"/>
<path fill-rule="evenodd" clip-rule="evenodd" d="M15.6881 8.05252C15.6881 10.2903 13.8733 12.105 11.6355 12.105C9.39779 12.105 7.58301 10.2903 7.58301 8.05252C7.58301 5.8139 9.39779 4 11.6355 4C13.8733 4 15.6881 5.8139 15.6881 8.05252Z" stroke="black" stroke-width="1.5" stroke-linecap="round" stroke-linejoin="round"/>
</svg>
