<svg width="24" height="24" viewBox="0 0 24 24" fill="none" xmlns="http://www.w3.org/2000/svg">
<path fill-rule="evenodd" clip-rule="evenodd" d="M11.9981 7.32837C7.55059 7.32934 9.61816 10.7192 6.78778 10.7202C4.05762 10.7211 3 11.2319 3 7.77399C3.04281 7.38285 2.32378 3.91129 11.9981 3.90934C21.6723 3.90837 20.9572 7.37993 21 7.7701C21 11.2378 19.9424 10.7172 17.2122 10.7182C14.3809 10.7182 16.4455 7.32837 11.9981 7.32837Z" stroke="black" stroke-width="1.5" stroke-linecap="round" stroke-linejoin="round"/>
<path opacity="0.4" d="M18.56 11.0117L19.3072 16.0138C19.7664 18.38 17.804 20.0905 15.4192 20.0905H8.57045C6.18472 20.0905 4.38472 18.38 4.69996 16.0138L5.43845 11.0117" stroke="black" stroke-width="1.5" stroke-linecap="round" stroke-linejoin="round"/>
<path fill-rule="evenodd" clip-rule="evenodd" d="M14.2161 14.0016C14.2161 12.7776 13.2236 11.7852 11.9996 11.7852C10.7756 11.7852 9.7832 12.7776 9.7832 14.0016C9.7832 15.2256 10.7756 16.218 11.9996 16.218C13.2236 16.218 14.2161 15.2256 14.2161 14.0016Z" stroke="black" stroke-width="1.5" stroke-linecap="round" stroke-linejoin="round"/>
</svg>
