<svg width="24" height="24" viewBox="0 0 24 24" fill="none" xmlns="http://www.w3.org/2000/svg">
<path fill-rule="evenodd" clip-rule="evenodd" d="M11.3035 7.46622C11.886 5.39928 13.7712 3.97266 15.917 3.97266H21C21.5522 3.97266 22 4.42037 22 4.97266C22 5.52494 21.5522 5.97266 21 5.97266H15.917C14.6668 5.97266 13.568 6.80393 13.2285 8.00888L10.2294 18.6431C9.72841 20.4167 7.24673 20.5074 6.62037 18.7722L4.63529 13.262C4.33916 12.4414 3.64197 11.8316 2.78965 11.6483C2.24972 11.5321 1.90618 11.0003 2.02233 10.4603C2.13848 9.92041 2.67035 9.57687 3.21028 9.69302C4.73783 10.0216 5.98669 11.1141 6.51664 12.5834L8.39215 17.7894L11.3035 7.46622Z" fill="black"/>
<path opacity="0.4" d="M15.8527 12.0468C16.2972 11.719 16.9232 11.8136 17.251 12.2581L18.7232 14.2543L20.1954 12.2581C20.5232 11.8136 21.1493 11.719 21.5938 12.0468C22.0383 12.3746 22.1328 13.0007 21.805 13.4452L19.9658 15.9391L21.805 18.4331C22.1328 18.8776 22.0383 19.5036 21.5938 19.8314C21.1493 20.1592 20.5232 20.0646 20.1954 19.6202L18.7232 17.6239L17.251 19.6202C16.9232 20.0646 16.2972 20.1592 15.8527 19.8314C15.4082 19.5036 15.3136 18.8776 15.6414 18.4331L17.4807 15.9391L15.6414 13.4452C15.3136 13.0007 15.4082 12.3746 15.8527 12.0468Z" fill="black"/>
</svg>