<svg width="24" height="24" viewBox="0 0 24 24" fill="none" xmlns="http://www.w3.org/2000/svg">
<path fill-rule="evenodd" clip-rule="evenodd" d="M16.2685 12.0049C15.2655 12.0049 14.4495 11.1889 14.4495 10.1849C14.4495 9.18088 15.2655 8.36488 16.2685 8.36488C17.2715 8.36488 18.0875 9.18088 18.0875 10.1849C18.0875 11.1889 17.2715 12.0049 16.2685 12.0049ZM16.2685 15.2729C15.2225 16.6269 13.6355 17.4349 12.0215 17.4349C9.07851 17.4349 6.68351 15.0389 6.68351 12.0949C6.68351 9.10588 9.07851 6.67488 12.0215 6.67488C12.7165 6.67488 13.4145 6.80788 14.0375 7.05988C14.4205 7.21488 14.6065 7.65188 14.4515 8.03588C14.2955 8.41988 13.8615 8.60488 13.4745 8.44988C13.0295 8.26988 12.5265 8.17488 12.0215 8.17488C9.90551 8.17488 8.18351 9.93288 8.18351 12.0949C8.18351 14.2479 9.86951 15.9349 12.0215 15.9349C13.1575 15.9349 14.3295 15.3299 15.0815 14.3559C15.3325 14.0279 15.8045 13.9659 16.1325 14.2209C16.4605 14.4739 16.5215 14.9449 16.2685 15.2729ZM11.9995 2.50488C6.76151 2.50488 2.49951 6.76688 2.49951 12.0049C2.49951 17.2429 6.76151 21.5049 11.9995 21.5049C17.2385 21.5049 21.4995 17.2429 21.4995 12.0049C21.4995 6.76688 17.2385 2.50488 11.9995 2.50488Z" fill="black"/>
</svg>