<svg width="24" height="24" viewBox="0 0 24 24" fill="none" xmlns="http://www.w3.org/2000/svg">
<path fill-rule="evenodd" clip-rule="evenodd" d="M21.3464 18.6649L18.4484 15.8699C20.1604 14.7229 21.2004 12.7929 21.2004 10.6849C21.2004 7.26586 18.4174 4.48486 14.9954 4.48486H11.0464C10.8444 4.48486 10.6614 4.60686 10.5844 4.79286C10.5074 4.97986 10.5504 5.19586 10.6934 5.33786L13.3254 7.96886C13.4194 8.06186 13.5464 8.11486 13.6794 8.11486H14.9954C16.3904 8.11486 17.5684 9.29186 17.5684 10.6849C17.5684 12.0779 16.3904 13.2549 14.9954 13.2549H11.6264C11.4254 13.2549 11.2424 13.3759 11.1654 13.5619C11.0874 13.7479 11.1284 13.9629 11.2704 14.1059L16.4664 19.3759C16.5614 19.4709 16.6894 19.5249 16.8234 19.5249H20.9994C21.2034 19.5249 21.3874 19.4009 21.4634 19.2119C21.5394 19.0229 21.4934 18.8069 21.3464 18.6649Z" fill="black"/>
<path fill-rule="evenodd" clip-rule="evenodd" d="M10.6727 16.0414C10.5787 15.9474 10.4517 15.8954 10.3187 15.8954H9.00168C7.60868 15.8954 6.43068 14.7184 6.43068 13.3254C6.43068 11.9264 7.60868 10.7454 9.00168 10.7454H12.3717C12.5737 10.7454 12.7557 10.6244 12.8327 10.4374C12.9107 10.2514 12.8687 10.0374 12.7277 9.89337L7.53068 4.63338C7.43768 4.53838 7.30968 4.48438 7.17568 4.48438H2.99968C2.79568 4.48438 2.61168 4.60837 2.53568 4.79737C2.45968 4.98637 2.50568 5.20337 2.65268 5.34438L5.55068 8.13937C3.83668 9.28638 2.79768 11.2174 2.79768 13.3254C2.79768 16.7434 5.58068 19.5244 9.00168 19.5244H12.9517C13.1537 19.5244 13.3367 19.4024 13.4137 19.2164C13.4907 19.0294 13.4477 18.8134 13.3057 18.6714L10.6727 16.0414Z" fill="black"/>
</svg>