<svg width="24" height="24" viewBox="0 0 24 24" fill="none" xmlns="http://www.w3.org/2000/svg">
<path fill-rule="evenodd" clip-rule="evenodd" d="M13.744 12.0049C13.744 12.4189 13.408 12.7549 12.994 12.7549C12.58 12.7549 12.239 12.4189 12.239 12.0049C12.239 11.5909 12.57 11.2549 12.984 11.2549H12.994C13.408 11.2549 13.744 11.5909 13.744 12.0049ZM16.127 13.9739L13.615 16.4939C13.474 16.6359 13.283 16.7149 13.084 16.7149C12.885 16.7149 12.694 16.6359 12.554 16.4949L9.154 13.0919V15.2339C9.154 15.6489 8.818 15.9839 8.404 15.9839C7.99 15.9839 7.654 15.6489 7.654 15.2339V8.77488C7.654 8.35988 7.99 8.02488 8.404 8.02488C8.818 8.02488 9.154 8.35988 9.154 8.77488V10.9179L12.554 7.51488C12.694 7.37388 12.885 7.29488 13.084 7.29488C13.283 7.29488 13.474 7.37388 13.615 7.51588L15.989 9.89588C16.281 10.1889 16.281 10.6629 15.987 10.9559C15.695 11.2469 15.219 11.2489 14.927 10.9539L13.084 9.10688L10.188 12.0049L13.083 14.9029L15.064 12.9149C15.356 12.6209 15.831 12.6209 16.125 12.9129C16.419 13.2049 16.419 13.6809 16.127 13.9739ZM16.217 2.50488H7.782C4.623 2.50488 2.5 4.72788 2.5 8.03488V15.9749C2.5 19.2819 4.623 21.5049 7.782 21.5049H16.216C19.376 21.5049 21.5 19.2819 21.5 15.9749V8.03488C21.5 4.72788 19.377 2.50488 16.217 2.50488Z" fill="black"/>
</svg>