<svg width="24" height="24" viewBox="0 0 24 24" fill="none" xmlns="http://www.w3.org/2000/svg">
<path fill-rule="evenodd" clip-rule="evenodd" d="M17.3612 14.428L14.5052 17.282L9.21824 11.994L14.5052 6.70795L17.5872 9.80395C18.2532 10.458 19.3842 10.444 20.0152 9.80195C20.3452 9.47195 20.5252 9.03795 20.5232 8.57895C20.5222 8.12495 20.3402 7.69795 20.0152 7.37795L16.0462 3.38795C15.1962 2.53995 13.8132 2.53995 12.9642 3.38795L7.27324 9.07195V5.40495C7.27324 4.35095 6.42124 3.49395 5.37424 3.49395C4.32724 3.49395 3.47424 4.35095 3.47424 5.40495V18.615C3.47424 19.662 4.32724 20.515 5.37424 20.515C6.42124 20.515 7.27324 19.662 7.27324 18.615V14.919L12.9642 20.621C13.3882 21.045 13.9462 21.256 14.5052 21.256C15.0622 21.256 15.6212 21.044 16.0462 20.621L19.8032 16.86C20.1212 16.537 20.3022 16.094 20.3022 15.645C20.3022 15.173 20.1202 14.74 19.7922 14.428C19.1292 13.765 18.0402 13.764 17.3612 14.428Z" fill="black"/>
<path fill-rule="evenodd" clip-rule="evenodd" d="M12.9315 12.0051C12.9315 12.8431 13.6145 13.5251 14.4535 13.5251C15.2935 13.5251 15.9765 12.8431 15.9765 12.0051C15.9765 11.1661 15.2935 10.4841 14.4535 10.4841C13.6145 10.4841 12.9315 11.1661 12.9315 12.0051Z" fill="black"/>
</svg>