<svg width="24" height="24" viewBox="0 0 24 24" fill="none" xmlns="http://www.w3.org/2000/svg">
<path fill-rule="evenodd" clip-rule="evenodd" d="M12.7494 14.0087V15.4567C12.7494 15.8707 12.4134 16.2067 11.9994 16.2067C11.5854 16.2067 11.2494 15.8707 11.2494 15.4567V14.0087C9.32543 13.8757 7.58543 13.2257 7.58543 11.9467C7.58543 11.4517 7.85143 10.7627 9.11943 10.2927C9.50843 10.1487 9.93843 10.3477 10.0824 10.7367C10.2264 11.1247 10.0284 11.5567 9.63943 11.7007C9.39743 11.7897 9.24643 11.8777 9.15943 11.9407C9.41943 12.1297 10.1384 12.4097 11.2494 12.5027V8.60672H8.96043C8.54643 8.60672 8.21043 8.27072 8.21043 7.85672C8.21043 7.44272 8.54643 7.10672 8.96043 7.10672H15.0414C15.4554 7.10672 15.7914 7.44272 15.7914 7.85672C15.7914 8.27072 15.4554 8.60672 15.0414 8.60672H12.7494V12.5027C13.8604 12.4097 14.5794 12.1297 14.8394 11.9407C14.7524 11.8777 14.6014 11.7897 14.3594 11.7007C13.9704 11.5567 13.7724 11.1247 13.9164 10.7367C14.0604 10.3477 14.4914 10.1497 14.8794 10.2927C16.1474 10.7627 16.4134 11.4517 16.4134 11.9467C16.4134 13.2257 14.6734 13.8757 12.7494 14.0087ZM21.1894 9.96972L19.0254 5.46472C18.4604 4.31972 17.4954 3.63672 16.4424 3.63672H7.58543C6.51943 3.63672 5.51843 4.33872 4.97243 5.46972L2.81443 9.96372C2.20243 11.1967 2.51143 12.7707 3.54843 13.7067L9.76943 19.3497C10.4424 20.0247 11.1964 20.3627 11.9634 20.3627C12.7234 20.3627 13.4954 20.0307 14.2134 19.3667L20.4544 13.7057C21.4874 12.7637 21.7954 11.1897 21.1894 9.96972Z" fill="black"/>
</svg>