<svg width="24" height="24" viewBox="0 0 24 24" fill="none" xmlns="http://www.w3.org/2000/svg">
<path fill-rule="evenodd" clip-rule="evenodd" d="M17.2431 10.7607C17.2431 10.9077 17.1241 11.0267 16.9771 11.0267H14.1161V16.7287C14.1161 16.8757 13.9971 16.9947 13.8501 16.9947H11.0431C10.8961 16.9947 10.7771 16.8757 10.7771 16.7287V10.7397C10.7771 9.01669 12.1781 7.61469 13.9011 7.61469H16.9771C17.1241 7.61469 17.2431 7.73369 17.2431 7.88069V10.7607ZM7.59406 10.9897H7.39406C7.24706 10.9897 7.12806 10.8707 7.12806 10.7237V7.88069C7.12806 7.73369 7.24706 7.61469 7.39406 7.61469H10.5641C10.6361 7.61469 10.7061 7.64369 10.7561 7.69669C10.8061 7.74869 10.8331 7.81969 10.8301 7.89169C10.7541 9.62969 9.33306 10.9897 7.59406 10.9897ZM16.4021 2.80469H7.96806C4.80806 2.80469 2.68506 5.02669 2.68506 8.33469V16.2737C2.68506 19.5817 4.80806 21.8047 7.96806 21.8047H16.4011C19.5611 21.8047 21.6851 19.5817 21.6851 16.2737V8.33469C21.6851 5.02669 19.5621 2.80469 16.4021 2.80469Z" fill="black"/>
</svg>