<svg width="24" height="24" viewBox="0 0 24 24" fill="none" xmlns="http://www.w3.org/2000/svg">
<path fill-rule="evenodd" clip-rule="evenodd" d="M8.60095 9.5606C8.71195 14.7466 9.16795 14.9946 10.684 15.8186C11.056 16.0206 11.5 16.2616 12.005 16.5946C12.51 16.2616 12.955 16.0206 13.328 15.8176C14.807 15.0136 15.298 14.7466 15.418 9.5586C14.539 9.5046 13.244 9.2886 12.004 8.4436C10.747 9.2996 9.44095 9.5106 8.60095 9.5606Z" fill="black"/>
<path fill-rule="evenodd" clip-rule="evenodd" d="M14.0439 17.1359C13.5809 17.3869 13.0559 17.6719 12.4429 18.1139C12.3119 18.2079 12.1589 18.2549 12.0049 18.2549C11.8509 18.2549 11.6979 18.2079 11.5669 18.1139C10.9539 17.6729 10.4299 17.3879 9.96688 17.1359C7.80688 15.9619 7.18088 15.3339 7.08788 8.83488C7.08488 8.63388 7.16288 8.44088 7.30388 8.29788C7.47988 8.11888 7.70588 8.07588 7.99988 8.07488C8.75988 8.07488 10.2279 8.00888 11.5249 6.92888C11.8039 6.69688 12.2079 6.69788 12.4859 6.92988C13.8759 8.09088 15.4819 8.07588 16.0819 8.07488C16.0839 8.07488 16.1799 8.07388 16.1819 8.07388C16.3829 8.07388 16.5759 8.15588 16.7159 8.29788C16.8569 8.44188 16.9349 8.63488 16.9319 8.83588C16.8329 15.3329 16.2049 15.9609 14.0439 17.1359ZM11.9999 2.50488C6.76188 2.50488 2.49988 6.76688 2.49988 12.0049C2.49988 17.2429 6.76188 21.5049 11.9999 21.5049C17.2379 21.5049 21.4999 17.2429 21.4999 12.0049C21.4999 6.76688 17.2379 2.50488 11.9999 2.50488Z" fill="black"/>
</svg>