<svg width="25" height="24" viewBox="0 0 25 24" fill="none" xmlns="http://www.w3.org/2000/svg">
<path fill-rule="evenodd" clip-rule="evenodd" d="M19.9475 20.9999C20.8047 20.9999 21.4994 20.3052 21.4994 19.448V16.9659C21.4994 16.1088 20.8047 15.4141 19.9475 15.4141C19.0903 15.4141 18.3956 16.1088 18.3956 16.9659V19.448C18.3956 20.3052 19.0903 20.9999 19.9475 20.9999Z" stroke="black" stroke-width="1.5" stroke-linecap="round" stroke-linejoin="round"/>
<path d="M14.051 19.4459C14.051 20.3031 13.3563 20.9978 12.4991 20.9978C11.642 20.9978 10.9473 20.3031 10.9473 19.4459V13.2394C10.9473 12.3822 11.642 11.6875 12.4991 11.6875C13.3563 11.6875 14.051 12.3822 14.051 13.2394V16.3426" stroke="black" stroke-width="1.5" stroke-linecap="round" stroke-linejoin="round"/>
<path d="M3.5 11.9999V4.55188C3.5 3.6947 4.1947 3 5.05188 3C5.90906 3 6.60376 3.6947 6.60376 4.55188V19.448C6.60376 20.3052 5.90906 20.9998 5.05188 20.9998C4.1947 20.9998 3.5 20.3052 3.5 19.448V15.7239" stroke="black" stroke-width="1.5" stroke-linecap="round" stroke-linejoin="round"/>
<path d="M21.4992 9.82827L14.6719 3M21.4992 9.82827L21.4999 5.48277M21.4992 9.82827L17.1556 9.82803" stroke="black" stroke-width="1.5" stroke-linecap="round" stroke-linejoin="round"/>
</svg>