<svg width="25" height="24" viewBox="0 0 25 24" fill="none" xmlns="http://www.w3.org/2000/svg">
<path d="M3.65188 14.7724C2.74801 10.1168 5.99281 6.00315 10.3438 5.47581C10.8459 5.41549 11.2905 5.81148 11.2905 6.31741V12.3672C11.2905 12.8333 11.6671 13.2098 12.1321 13.2098H18.1829C18.6889 13.2098 19.0848 13.6544 19.0245 14.1565C18.4972 18.5075 14.3835 21.7523 9.72797 20.8475C7.69717 20.4533 5.92992 19.2285 4.80505 17.5521" stroke="black" stroke-width="1.5" stroke-linecap="round" stroke-linejoin="round"/>
<path d="M18.8326 10.2158H20.6531C21.163 10.2158 21.5599 9.76533 21.4938 9.25939C21.0666 6.00876 18.4922 3.43433 15.2416 3.00721C14.7366 2.94105 14.2852 3.33898 14.2852 3.84784V9.37518C14.2852 9.83927 14.6617 10.2158 15.1268 10.2158H16.2574" stroke="black" stroke-width="1.5" stroke-linecap="round" stroke-linejoin="round"/>
</svg>