<svg width="25" height="24" viewBox="0 0 25 24" fill="none" xmlns="http://www.w3.org/2000/svg">
<path d="M10.7734 13.4721C10.7734 12.5186 11.546 11.7451 12.5004 11.7451C13.4539 11.7451 14.2274 12.5186 14.2274 13.4721V19.2729C14.2274 20.2274 13.4539 20.9999 12.5004 20.9999C11.546 20.9999 10.7734 20.2274 10.7734 19.2729V16.3725" stroke="black" stroke-width="1.5" stroke-linecap="round" stroke-linejoin="round"/>
<path fill-rule="evenodd" clip-rule="evenodd" d="M5.85688 20.9994C4.90338 20.9994 4.12988 20.2268 4.12988 19.2724V15.9623C4.12988 15.0079 4.90338 14.2344 5.85688 14.2344C6.81136 14.2344 7.58388 15.0079 7.58388 15.9623V19.2724C7.58388 20.2268 6.81136 20.9994 5.85688 20.9994Z" stroke="black" stroke-width="1.5" stroke-linecap="round" stroke-linejoin="round"/>
<path d="M20.87 14.2675V9.26216C20.87 8.30866 20.0965 7.53516 19.143 7.53516C18.1885 7.53516 17.416 8.30866 17.416 9.26216V19.2729C17.416 20.2274 18.1885 20.9999 19.143 20.9999C20.0965 20.9999 20.87 20.2274 20.87 19.2729V17.7702" stroke="black" stroke-width="1.5" stroke-linecap="round" stroke-linejoin="round"/>
<path d="M4.13086 10.5696L9.94818 6.41216L12.1305 8.71126L19.1241 3" stroke="black" stroke-width="1.5" stroke-linecap="round" stroke-linejoin="round"/>
</svg>