<svg width="24" height="24" viewBox="0 0 24 24" fill="none" xmlns="http://www.w3.org/2000/svg">
<path fill-rule="evenodd" clip-rule="evenodd" d="M2.34082 21C2.34082 20.5858 2.67661 20.25 3.09082 20.25H20.9101C21.3243 20.25 21.6601 20.5858 21.6601 21C21.6601 21.4142 21.3243 21.75 20.9101 21.75H3.09082C2.67661 21.75 2.34082 21.4142 2.34082 21Z" fill="black"/>
<path fill-rule="evenodd" clip-rule="evenodd" d="M13.1699 10.1072C13.1699 8.41262 14.5435 7.03906 16.238 7.03906H18.3041C19.9986 7.03906 21.3722 8.41262 21.3722 10.1072V15.0461C21.3722 16.7406 19.9986 18.1142 18.3041 18.1142H16.238C14.5435 18.1142 13.1699 16.7406 13.1699 15.0461V10.1072ZM16.238 8.53906C15.3719 8.53906 14.6699 9.24104 14.6699 10.1072V15.0461C14.6699 15.9122 15.3719 16.6142 16.238 16.6142H18.3041C19.1702 16.6142 19.8722 15.9122 19.8722 15.0461V10.1072C19.8722 9.24104 19.1702 8.53906 18.3041 8.53906H16.238Z" fill="black"/>
<path fill-rule="evenodd" clip-rule="evenodd" d="M2.62695 5.31811C2.62695 3.62356 4.00051 2.25 5.69506 2.25H7.76111C9.45566 2.25 10.8292 3.62356 10.8292 5.31811V15.0451C10.8292 16.7396 9.45566 18.1132 7.76111 18.1132H5.69506C4.00051 18.1132 2.62695 16.7396 2.62695 15.0451V5.31811ZM5.69506 3.75C4.82894 3.75 4.12695 4.45198 4.12695 5.31811V15.0451C4.12695 15.9112 4.82894 16.6132 5.69506 16.6132H7.76111C8.62723 16.6132 9.32921 15.9112 9.32921 15.0451V5.31811C9.32921 4.45198 8.62723 3.75 7.76111 3.75H5.69506Z" fill="black"/>
</svg>
