<svg width="24" height="24" viewBox="0 0 24 24" fill="none" xmlns="http://www.w3.org/2000/svg">
<path fill-rule="evenodd" clip-rule="evenodd" d="M2.25 16.198C2.25 14.5698 3.56979 13.25 5.198 13.25H18.802C20.4302 13.25 21.75 14.5698 21.75 16.198V18.802C21.75 20.4302 20.4302 21.75 18.802 21.75H5.198C3.56979 21.75 2.25 20.4302 2.25 18.802V16.198ZM5.198 14.75C4.39821 14.75 3.75 15.3982 3.75 16.198V18.802C3.75 19.6018 4.39821 20.25 5.198 20.25H18.802C19.6018 20.25 20.25 19.6018 20.25 18.802V16.198C20.25 15.3982 19.6018 14.75 18.802 14.75H5.198Z" fill="black"/>
<path fill-rule="evenodd" clip-rule="evenodd" d="M5.75 5.198C5.75 3.56979 7.06979 2.25 8.698 2.25H15.302C16.9302 2.25 18.25 3.56979 18.25 5.198V7.802C18.25 9.43021 16.9302 10.75 15.302 10.75H8.698C7.06979 10.75 5.75 9.43021 5.75 7.802V5.198ZM8.698 3.75C7.89821 3.75 7.25 4.39821 7.25 5.198V7.802C7.25 8.60179 7.89821 9.25 8.698 9.25H15.302C16.1018 9.25 16.75 8.60179 16.75 7.802V5.198C16.75 4.39821 16.1018 3.75 15.302 3.75H8.698Z" fill="black"/>
</svg>
