<svg width="24" height="24" viewBox="0 0 24 24" fill="none" xmlns="http://www.w3.org/2000/svg">
<path fill-rule="evenodd" clip-rule="evenodd" d="M5.69519 7.38752C4.82913 7.38752 4.1272 8.08945 4.1272 8.95551V18.682C4.1272 19.5481 4.82913 20.25 5.69519 20.25H7.76114C8.6272 20.25 9.32913 19.5481 9.32913 18.682V8.95551C9.32913 8.08945 8.6272 7.38752 7.76114 7.38752H5.69519ZM2.6272 8.95551C2.6272 7.26102 4.0007 5.88752 5.69519 5.88752H7.76114C9.45562 5.88752 10.8291 7.26102 10.8291 8.95551V18.682C10.8291 20.3765 9.45562 21.75 7.76114 21.75H5.69519C4.0007 21.75 2.6272 20.3765 2.6272 18.682V8.95551Z" fill="black"/>
<path fill-rule="evenodd" clip-rule="evenodd" d="M16.2379 7.38672C15.3719 7.38672 14.6699 8.08865 14.6699 8.95471V13.8934C14.6699 14.7594 15.3719 15.4614 16.2379 15.4614H18.3039C19.1699 15.4614 19.8719 14.7594 19.8719 13.8934V8.95471C19.8719 8.08865 19.1699 7.38672 18.3039 7.38672H16.2379ZM13.1699 8.95471C13.1699 7.26022 14.5434 5.88672 16.2379 5.88672H18.3039C19.9983 5.88672 21.3719 7.26022 21.3719 8.95471V13.8934C21.3719 15.5879 19.9983 16.9614 18.3039 16.9614H16.2379C14.5434 16.9614 13.1699 15.5879 13.1699 13.8934V8.95471Z" fill="black"/>
<path fill-rule="evenodd" clip-rule="evenodd" d="M2.33984 3C2.33984 2.58579 2.67563 2.25 3.08984 2.25H20.9082C21.3224 2.25 21.6582 2.58579 21.6582 3C21.6582 3.41421 21.3224 3.75 20.9082 3.75H3.08984C2.67563 3.75 2.33984 3.41421 2.33984 3Z" fill="black"/>
</svg>
