<svg width="24" height="24" viewBox="0 0 24 24" fill="none" xmlns="http://www.w3.org/2000/svg">
<path fill-rule="evenodd" clip-rule="evenodd" d="M3.74043 3.89767C4.72507 2.84156 6.12728 2.25049 7.783 2.25049H16.217C17.8763 2.25049 19.2787 2.84129 20.2625 3.89809C21.2406 4.94881 21.749 6.39919 21.749 8.02649V15.9735C21.749 17.6008 21.2406 19.0512 20.2623 20.1019C19.2783 21.1587 17.8757 21.7495 16.216 21.7495H7.783C6.12373 21.7495 4.72114 21.1587 3.73712 20.102C2.75872 19.0513 2.25 17.6009 2.25 15.9735V8.02649C2.25 6.39822 2.76124 4.94795 3.74043 3.89767ZM4.83757 4.92055C4.16026 5.64703 3.75 6.70975 3.75 8.02649V15.9735C3.75 17.2911 4.15878 18.3537 4.83488 19.0798C5.50536 19.7998 6.49427 20.2495 7.783 20.2495H16.216C17.5053 20.2495 18.4942 19.7997 19.1645 19.0798C19.8404 18.3538 20.249 17.2912 20.249 15.9735V8.02649C20.249 6.70879 19.8404 5.64616 19.1645 4.92014C18.4943 4.20019 17.5057 3.75049 16.217 3.75049H7.783C6.49872 3.75049 5.50943 4.19992 4.83757 4.92055Z" fill="black"/>
<path fill-rule="evenodd" clip-rule="evenodd" d="M8.99023 2.26172C9.40445 2.26172 9.74023 2.59751 9.74023 3.01172V20.9997C9.74023 21.4139 9.40445 21.7497 8.99023 21.7497C8.57602 21.7497 8.24023 21.4139 8.24023 20.9997V3.01172C8.24023 2.59751 8.57602 2.26172 8.99023 2.26172Z" fill="black"/>
<path fill-rule="evenodd" clip-rule="evenodd" d="M15.0332 2.26172C15.4474 2.26172 15.7832 2.59751 15.7832 3.01172V20.9997C15.7832 21.4139 15.4474 21.7497 15.0332 21.7497C14.619 21.7497 14.2832 21.4139 14.2832 20.9997V3.01172C14.2832 2.59751 14.619 2.26172 15.0332 2.26172Z" fill="black"/>
<path fill-rule="evenodd" clip-rule="evenodd" d="M2.25195 15.041C2.25195 14.6268 2.58774 14.291 3.00195 14.291H20.999C21.4132 14.291 21.749 14.6268 21.749 15.041C21.749 15.4552 21.4132 15.791 20.999 15.791H3.00195C2.58774 15.791 2.25195 15.4552 2.25195 15.041Z" fill="black"/>
<path fill-rule="evenodd" clip-rule="evenodd" d="M2.25195 8.99805C2.25195 8.58383 2.58774 8.24805 3.00195 8.24805H21C21.4142 8.24805 21.75 8.58383 21.75 8.99805C21.75 9.41226 21.4142 9.74805 21 9.74805H3.00195C2.58774 9.74805 2.25195 9.41226 2.25195 8.99805Z" fill="black"/>
</svg>
