<svg width="24" height="24" viewBox="0 0 24 24" fill="none" xmlns="http://www.w3.org/2000/svg">
<path fill-rule="evenodd" clip-rule="evenodd" d="M4.7309 5.32427C4.12216 5.97763 3.75049 6.93743 3.75049 8.13474V15.4281C3.75049 16.6253 4.12208 17.5825 4.73021 18.2335C5.33296 18.8787 6.22427 19.2842 7.39248 19.2842H10.6237C11.0379 19.2842 11.3737 19.62 11.3737 20.0342C11.3737 20.4484 11.0379 20.7842 10.6237 20.7842H7.39248C5.85582 20.7842 4.55114 20.2391 3.63411 19.2575C2.72247 18.2816 2.25049 16.9358 2.25049 15.4281V8.13474C2.25049 6.62718 2.72238 5.27958 3.63342 4.30175C4.55002 3.31796 5.85476 2.76994 7.39248 2.76994H15.1227C16.6643 2.76994 17.9695 3.31763 18.8854 4.30215C19.7956 5.28047 20.2647 6.6282 20.2647 8.13474V10.0719C20.2647 10.4861 19.9289 10.8219 19.5147 10.8219C19.1005 10.8219 18.7647 10.4861 18.7647 10.0719V8.13474C18.7647 6.93641 18.3946 5.97674 17.7872 5.32388C17.1856 4.67721 16.2948 4.26994 15.1227 4.26994H7.39248C6.22534 4.26994 5.33408 4.67688 4.7309 5.32427Z" fill="black"/>
<path fill-rule="evenodd" clip-rule="evenodd" d="M2.2519 9.02734C2.2519 8.61313 2.58769 8.27734 3.0019 8.27734H19.5142C19.9284 8.27734 20.2642 8.61313 20.2642 9.02734C20.2642 9.44156 19.9284 9.77734 19.5142 9.77734H3.0019C2.58769 9.77734 2.2519 9.44156 2.2519 9.02734ZM2.25 14.5716C2.25 14.1574 2.58579 13.8216 3 13.8216H11.3646C11.7788 13.8216 12.1146 14.1574 12.1146 14.5716C12.1146 14.9858 11.7788 15.3216 11.3646 15.3216H3C2.58579 15.3216 2.25 14.9858 2.25 14.5716Z" fill="black"/>
<path fill-rule="evenodd" clip-rule="evenodd" d="M14.0436 2.77734C14.4579 2.77734 14.7936 3.11313 14.7936 3.52734V11.892C14.7936 12.3062 14.4579 12.642 14.0436 12.642C13.6294 12.642 13.2936 12.3062 13.2936 11.892V3.52734C13.2936 3.11313 13.6294 2.77734 14.0436 2.77734ZM8.49609 2.78209C8.91031 2.78209 9.24609 3.11788 9.24609 3.53209V20.0337C9.24609 20.4479 8.91031 20.7837 8.49609 20.7837C8.08188 20.7837 7.74609 20.4479 7.74609 20.0337V3.53209C7.74609 3.11788 8.08188 2.78209 8.49609 2.78209Z" fill="black"/>
<path fill-rule="evenodd" clip-rule="evenodd" d="M18.121 11.6808C18.6676 11.6616 19.1809 11.8823 19.5842 12.2856L21.1439 13.8453C21.5473 14.2487 21.7686 14.7622 21.7494 15.3092C21.7303 15.8482 21.4812 16.3381 21.0986 16.72L17.2403 20.5783C16.8585 20.9601 16.3689 21.2097 15.8298 21.2289C15.2823 21.2484 14.7688 21.0268 14.3651 20.6231L12.8054 19.0634C12.4019 18.6599 12.1807 18.1464 12.2004 17.5993C12.2199 17.0604 12.4693 16.5709 12.8511 16.1891L16.7099 12.3303C17.0922 11.9487 17.5826 11.6998 18.121 11.6808ZM17.7701 13.3915C17.77 13.3916 17.7702 13.3914 17.7701 13.3915L13.9118 17.2498C13.7487 17.4129 13.7029 17.5578 13.6995 17.6533C13.6963 17.7405 13.7247 17.8614 13.8661 18.0028L15.4257 19.5624C15.5678 19.7045 15.6892 19.733 15.7763 19.7299C15.8718 19.7265 16.0166 19.6807 16.1797 19.5177L20.0385 15.6589C20.2008 15.4969 20.2469 15.352 20.2503 15.2563C20.2534 15.1687 20.2246 15.0473 20.0832 14.9059L18.5235 13.3462C18.3829 13.2056 18.2619 13.1768 18.1739 13.1799C18.0778 13.1833 17.9326 13.2295 17.7701 13.3915Z" fill="black"/>
<path fill-rule="evenodd" clip-rule="evenodd" d="M14.874 14.163C15.1669 13.8701 15.6417 13.8701 15.9346 14.163L19.2651 17.4935C19.558 17.7864 19.558 18.2613 19.2651 18.5542C18.9722 18.8471 18.4973 18.8471 18.2044 18.5542L14.874 15.2237C14.5811 14.9308 14.5811 14.4559 14.874 14.163Z" fill="black"/>
</svg>
