<svg width="24" height="24" viewBox="0 0 24 24" fill="none" xmlns="http://www.w3.org/2000/svg">
<path fill-rule="evenodd" clip-rule="evenodd" d="M5.198 3.75C4.39821 3.75 3.75 4.39821 3.75 5.198V7.802C3.75 8.60179 4.39821 9.25 5.198 9.25H7.802C8.60179 9.25 9.25 8.60179 9.25 7.802V5.198C9.25 4.39821 8.60179 3.75 7.802 3.75H5.198ZM2.25 5.198C2.25 3.56979 3.56979 2.25 5.198 2.25H7.802C9.43021 2.25 10.75 3.56979 10.75 5.198V7.802C10.75 9.43021 9.43021 10.75 7.802 10.75H5.198C3.56979 10.75 2.25 9.43021 2.25 7.802V5.198Z" fill="black"/>
<path fill-rule="evenodd" clip-rule="evenodd" d="M16.198 14.75C15.3982 14.75 14.75 15.3982 14.75 16.198V18.802C14.75 19.6018 15.3982 20.25 16.198 20.25H18.802C19.6018 20.25 20.25 19.6018 20.25 18.802V16.198C20.25 15.3982 19.6018 14.75 18.802 14.75H16.198ZM13.25 16.198C13.25 14.5698 14.5698 13.25 16.198 13.25H18.802C20.4302 13.25 21.75 14.5698 21.75 16.198V18.802C21.75 20.4302 20.4302 21.75 18.802 21.75H16.198C14.5698 21.75 13.25 20.4302 13.25 18.802V16.198Z" fill="black"/>
<path fill-rule="evenodd" clip-rule="evenodd" d="M5.198 14.75C4.39821 14.75 3.75 15.3982 3.75 16.198V18.802C3.75 19.6018 4.39821 20.25 5.198 20.25H7.802C8.60179 20.25 9.25 19.6018 9.25 18.802V16.198C9.25 15.3982 8.60179 14.75 7.802 14.75H5.198ZM2.25 16.198C2.25 14.5698 3.56979 13.25 5.198 13.25H7.802C9.43021 13.25 10.75 14.5698 10.75 16.198V18.802C10.75 20.4302 9.43021 21.75 7.802 21.75H5.198C3.56979 21.75 2.25 20.4302 2.25 18.802V16.198Z" fill="black"/>
<path fill-rule="evenodd" clip-rule="evenodd" d="M16.8549 2.58621C17.5778 2.17209 18.4972 2.42348 18.9109 3.1434L18.9116 3.14463L18.9116 3.14463L21.5501 7.75673C21.5502 7.75689 21.5502 7.75706 21.5503 7.75722C21.6827 7.98804 21.7496 8.24695 21.7496 8.50805C21.7496 9.34155 21.0735 10.0141 20.2426 10.0141H14.9606C14.6976 10.0141 14.4387 9.94478 14.2121 9.81558L14.2093 9.81402C13.4884 9.3989 13.239 8.4795 13.6528 7.7572M13.6528 7.75717L16.2957 3.14435C16.2958 3.1443 16.2958 3.14425 16.2958 3.1442C16.4305 2.90915 16.6244 2.71822 16.8547 2.58631M17.6025 3.8868C17.6024 3.88682 17.6018 3.88703 17.6004 3.88779L17.6003 3.88789C17.5985 3.8889 17.5976 3.88966 17.5973 3.89002L14.9543 8.5029L14.9543 8.50293C14.9524 8.50619 14.9527 8.51015 14.9562 8.51301L14.9579 8.51358C14.9595 8.51398 14.9604 8.51404 14.9606 8.51405C14.9606 8.51405 14.9606 8.51405 14.9606 8.51405H20.2426C20.2442 8.51405 20.2449 8.5139 20.2451 8.51387L20.2456 8.51372C20.246 8.51356 20.2469 8.51306 20.248 8.51199C20.249 8.51092 20.2494 8.51011 20.2494 8.51005M17.6102 3.89052C17.6095 3.88935 17.6091 3.88886 17.609 3.88875L17.6086 3.88841C17.6082 3.88814 17.6072 3.88752 17.6056 3.88709C17.604 3.88665 17.603 3.88671 17.6027 3.88674L17.6025 3.8868M17.5974 3.88975C17.5974 3.88981 17.5974 3.88985 17.5973 3.8899L17.5974 3.88975Z" fill="black"/>
</svg>
