<svg width="24" height="24" viewBox="0 0 24 24" fill="none" xmlns="http://www.w3.org/2000/svg">
<path fill-rule="evenodd" clip-rule="evenodd" d="M5.198 3.75C4.39821 3.75 3.75 4.39821 3.75 5.198V18.802C3.75 19.6018 4.39821 20.25 5.198 20.25H7.802C8.60179 20.25 9.25 19.6018 9.25 18.802V5.198C9.25 4.39821 8.60179 3.75 7.802 3.75H5.198ZM2.25 5.198C2.25 3.56979 3.56979 2.25 5.198 2.25H7.802C9.43021 2.25 10.75 3.56979 10.75 5.198V18.802C10.75 20.4302 9.43021 21.75 7.802 21.75H5.198C3.56979 21.75 2.25 20.4302 2.25 18.802V5.198Z" fill="black"/>
<path fill-rule="evenodd" clip-rule="evenodd" d="M16.198 3.75C15.3982 3.75 14.75 4.39821 14.75 5.198V18.802C14.75 19.6018 15.3982 20.25 16.198 20.25H18.802C19.6018 20.25 20.25 19.6018 20.25 18.802V5.198C20.25 4.39821 19.6018 3.75 18.802 3.75H16.198ZM13.25 5.198C13.25 3.56979 14.5698 2.25 16.198 2.25H18.802C20.4302 2.25 21.75 3.56979 21.75 5.198V18.802C21.75 20.4302 20.4302 21.75 18.802 21.75H16.198C14.5698 21.75 13.25 20.4302 13.25 18.802V5.198Z" fill="black"/>
</svg>
