<svg width="24" height="24" viewBox="0 0 24 24" fill="none" xmlns="http://www.w3.org/2000/svg">
<path fill-rule="evenodd" clip-rule="evenodd" d="M9.43271 4.80859C7.27476 4.80859 5.52539 6.55796 5.52539 8.71591C5.52539 10.8739 7.27476 12.6232 9.43271 12.6232C11.5907 12.6232 13.34 10.8739 13.34 8.71591C13.34 6.55796 11.5907 4.80859 9.43271 4.80859ZM4.02539 8.71591C4.02539 5.72953 6.44633 3.30859 9.43271 3.30859C12.4191 3.30859 14.84 5.72953 14.84 8.71591C14.84 11.7023 12.4191 14.1232 9.43271 14.1232C6.44633 14.1232 4.02539 11.7023 4.02539 8.71591Z" fill="black"/>
<path fill-rule="evenodd" clip-rule="evenodd" d="M14.754 4.25467C14.8205 3.84583 15.2059 3.56833 15.6147 3.63485C18.2392 4.06186 20.2425 6.33783 20.2425 9.08314C20.2425 11.3966 18.8196 13.3759 16.8041 14.1971C16.4205 14.3534 15.9828 14.1691 15.8265 13.7855C15.6702 13.4019 15.8545 12.9642 16.2381 12.808C17.7084 12.209 18.7425 10.7659 18.7425 9.08314C18.7425 7.08507 17.2841 5.42619 15.3738 5.11538C14.965 5.04886 14.6875 4.66351 14.754 4.25467Z" fill="black"/>
<path fill-rule="evenodd" clip-rule="evenodd" d="M2.2595 18.0144C2.2595 15.1933 4.54651 12.9062 7.36767 12.9062H11.6115C14.4326 12.9062 16.7197 15.1933 16.7197 18.0144C16.7197 18.1328 16.7218 18.2602 16.724 18.394C16.7325 18.901 16.7426 19.5019 16.6441 20.0691C16.5732 20.4772 16.1849 20.7505 15.7768 20.6796C15.3687 20.6088 15.0954 20.2205 15.1663 19.8124C15.2381 19.3986 15.2319 18.9893 15.2245 18.5075C15.2221 18.3516 15.2197 18.1881 15.2197 18.0144C15.2197 16.0217 13.6042 14.4062 11.6115 14.4062H7.36767C5.37494 14.4062 3.7595 16.0217 3.7595 18.0144C3.7595 18.1881 3.75701 18.3516 3.75463 18.5075C3.74728 18.9893 3.74103 19.3986 3.8129 19.8124C3.88379 20.2205 3.61041 20.6088 3.20231 20.6796C2.79421 20.7505 2.40591 20.4772 2.33503 20.0691C2.23652 19.5019 2.2466 18.901 2.25512 18.394C2.25736 18.2602 2.2595 18.1328 2.2595 18.0144Z" fill="black"/>
<path fill-rule="evenodd" clip-rule="evenodd" d="M15.7773 13.5039C15.7773 13.0897 16.1131 12.7539 16.5273 12.7539C19.4068 12.7539 21.7411 15.0882 21.7411 17.9677C21.7411 18.0895 21.7433 18.2204 21.7456 18.3577C21.7543 18.8769 21.7646 19.4899 21.664 20.069C21.5931 20.4771 21.2048 20.7504 20.7967 20.6796C20.3886 20.6087 20.1153 20.2204 20.1861 19.8123C20.2601 19.3866 20.2536 18.9652 20.2461 18.4712C20.2437 18.3118 20.2411 18.1448 20.2411 17.9677C20.2411 15.9166 18.5784 14.2539 16.5273 14.2539C16.1131 14.2539 15.7773 13.9181 15.7773 13.5039Z" fill="black"/>
</svg>
