<svg width="24" height="24" viewBox="0 0 24 24" fill="none" xmlns="http://www.w3.org/2000/svg">
<path fill-rule="evenodd" clip-rule="evenodd" d="M10.7027 4.32031C8.52075 4.32031 6.75195 6.08911 6.75195 8.27103C6.75195 10.4529 8.52075 12.2217 10.7027 12.2217C12.8846 12.2217 14.6534 10.4529 14.6534 8.27103C14.6534 6.08911 12.8846 4.32031 10.7027 4.32031ZM5.25195 8.27103C5.25195 5.26068 7.69232 2.82031 10.7027 2.82031C13.713 2.82031 16.1534 5.26068 16.1534 8.27103C16.1534 11.2814 13.713 13.7217 10.7027 13.7217C7.69232 13.7217 5.25195 11.2814 5.25195 8.27103Z" fill="black"/>
<path fill-rule="evenodd" clip-rule="evenodd" d="M3.47248 17.6527C3.47248 14.8091 5.77767 12.5039 8.62126 12.5039H12.9046C13.2857 12.5039 13.658 12.5454 14.0168 12.6245C14.4214 12.7136 14.677 13.1138 14.5879 13.5183C14.4988 13.9228 14.0986 14.1785 13.6941 14.0894C13.4405 14.0335 13.1765 14.0039 12.9046 14.0039H8.62126C6.60609 14.0039 4.97248 15.6375 4.97248 17.6527C4.97248 17.8277 4.96996 17.9925 4.96756 18.1498C4.96014 18.6363 4.95382 19.0502 5.02648 19.4686C5.09736 19.8767 4.82399 20.265 4.41589 20.3359C4.00778 20.4067 3.61949 20.1334 3.54861 19.7253C3.4493 19.1535 3.45946 18.548 3.46805 18.0363C3.47032 17.9011 3.47248 17.7724 3.47248 17.6527Z" fill="black"/>
<path fill-rule="evenodd" clip-rule="evenodd" d="M17.8437 14.9301L14.8727 18.2028C14.7259 18.367 14.6343 18.5731 14.6107 18.7936L14.5263 19.5737C14.5193 19.6378 14.575 19.69 14.6376 19.6795L15.3929 19.553C15.3928 19.553 15.393 19.553 15.3929 19.553C15.6316 19.5126 15.8493 19.3929 16.0104 19.2127L16.0143 19.2084L18.9589 15.9664C19.0671 15.8494 19.0598 15.6672 18.9436 15.5593C18.9435 15.5593 18.9436 15.5594 18.9436 15.5593L18.249 14.9166M16.7417 13.9124C17.4123 13.1888 18.5427 13.1451 19.2675 13.8154L19.9627 14.4587C20.6853 15.1285 20.7303 16.2573 20.0627 16.9821L17.1265 20.2149C16.7378 20.6484 16.2146 20.9355 15.6426 21.0321L14.8865 21.1587C13.8424 21.334 12.9209 20.4637 13.035 19.4123L13.1192 18.6336C13.1192 18.6337 13.1193 18.6335 13.1192 18.6336C13.1764 18.1009 13.399 17.5992 13.7575 17.1996L13.7604 17.1964L16.7417 13.9124Z" fill="black"/>
</svg>
