<svg width="24" height="24" viewBox="0 0 24 24" fill="none" xmlns="http://www.w3.org/2000/svg">
<path d="M14.6238 20.6961C14.4008 20.6955 14.1804 20.6479 13.9769 20.5565C13.7735 20.4651 13.5917 20.3318 13.4432 20.1654C13.2947 19.999 13.1829 19.8031 13.1151 19.5906C13.0474 19.3781 13.0251 19.1538 13.0498 18.9321L13.1318 18.1601C13.1886 17.6301 13.4104 17.1313 13.7658 16.7341L16.7238 13.4771C16.8825 13.3036 17.0741 13.1634 17.2875 13.0647C17.5009 12.9659 17.7318 12.9107 17.9668 12.9021C18.2005 12.8918 18.4338 12.9283 18.6531 13.0095C18.8724 13.0908 19.0733 13.2151 19.2438 13.3751L19.9348 14.0141C20.281 14.3345 20.4859 14.7791 20.5047 15.2504C20.5234 15.7217 20.3545 16.1812 20.0348 16.5281L17.1208 19.7371C16.7346 20.1665 16.2143 20.4524 15.6448 20.5481L14.8938 20.6741C14.8046 20.6889 14.7143 20.6963 14.6238 20.6961ZM18.0348 14.3961H18.0248C17.9872 14.397 17.9501 14.4055 17.9158 14.4209C17.8814 14.4364 17.8505 14.4585 17.8248 14.4861L14.8758 17.7341C14.7316 17.8966 14.6417 18.1001 14.6188 18.3161L14.5358 19.0911L14.7628 19.9301L14.6388 19.1901L15.3898 19.0641C15.6246 19.0247 15.839 18.9065 15.9978 18.7291L18.9208 15.5111C18.9471 15.4838 18.9676 15.4515 18.9812 15.4161C18.9947 15.3807 19.0011 15.343 18.9998 15.3051C18.9985 15.2685 18.99 15.2325 18.9747 15.1992C18.9594 15.1659 18.9377 15.136 18.9108 15.1111L18.2198 14.4711C18.1686 14.4264 18.1028 14.4019 18.0348 14.4021V14.3961Z" fill="black"/>
<path d="M10.495 12.742C9.55638 12.7418 8.63892 12.4632 7.85865 11.9415C7.07839 11.4198 6.47036 10.6785 6.11149 9.81117C5.75263 8.94388 5.65905 7.98965 5.84257 7.06916C6.0261 6.14868 6.47849 5.3033 7.14253 4.63996C7.80657 3.97662 8.65242 3.52512 9.5731 3.34257C10.4938 3.16002 11.4479 3.25461 12.3148 3.61439C13.1817 3.97417 13.9224 4.58298 14.4433 5.36379C14.9642 6.14461 15.2418 7.06236 15.241 8.00096C15.2386 9.25848 14.7376 10.4637 13.848 11.3525C12.9583 12.2412 11.7525 12.7409 10.495 12.742ZM10.495 4.75096C9.85343 4.75115 9.22634 4.94152 8.69294 5.29798C8.15955 5.65445 7.74378 6.16101 7.49818 6.75369C7.25258 7.34636 7.18817 7.99854 7.31309 8.6278C7.43801 9.25707 7.74663 9.83518 8.19999 10.2891C8.65335 10.743 9.2311 11.0524 9.86021 11.1781C10.4893 11.3038 11.1416 11.2401 11.7345 10.9953C12.3275 10.7504 12.8346 10.3353 13.1917 9.80232C13.5488 9.26936 13.74 8.6425 13.741 8.00096C13.7412 7.13961 13.3995 6.31341 12.7908 5.70397C12.1821 5.09454 11.3563 4.75175 10.495 4.75096Z" fill="black"/>
<path d="M10.4932 20.7479C8.76016 20.7479 3.49316 20.7479 3.49316 17.4269C3.49316 14.1269 8.58116 14.127 10.4932 14.127C10.6921 14.127 10.8828 14.206 11.0235 14.3466C11.1642 14.4873 11.2432 14.678 11.2432 14.877C11.2432 15.0759 11.1642 15.2666 11.0235 15.4073C10.8828 15.5479 10.6921 15.627 10.4932 15.627C7.98216 15.627 4.99316 15.9399 4.99316 17.4269C4.99316 18.9319 7.98616 19.2479 10.4932 19.2479C10.6921 19.2479 10.8828 19.327 11.0235 19.4676C11.1642 19.6083 11.2432 19.799 11.2432 19.9979C11.2432 20.1969 11.1642 20.3876 11.0235 20.5283C10.8828 20.6689 10.6921 20.7479 10.4932 20.7479Z" fill="black"/>
</svg>
