<svg width="24" height="24" viewBox="0 0 24 24" fill="none" xmlns="http://www.w3.org/2000/svg">
<path fill-rule="evenodd" clip-rule="evenodd" d="M9.62552 4.75C7.83376 4.75 6.38086 6.20334 6.38086 7.99553C6.38086 9.78771 7.83376 11.2411 9.62552 11.2411C11.4183 11.2411 12.8711 9.78761 12.8711 7.99553C12.8711 6.20345 11.4183 4.75 9.62552 4.75ZM4.88086 7.99553C4.88086 5.37534 7.00491 3.25 9.62552 3.25C12.2469 3.25 14.3711 5.37523 14.3711 7.99553C14.3711 10.6158 12.2469 12.7411 9.62552 12.7411C7.00491 12.7411 4.88086 10.6157 4.88086 7.99553Z" fill="black"/>
<path fill-rule="evenodd" clip-rule="evenodd" d="M4.99601 14.6744C6.25853 14.251 7.92393 14.125 9.62752 14.125C11.341 14.125 13.0072 14.2556 14.2685 14.6845C14.903 14.9002 15.4898 15.2093 15.9245 15.6649C16.3764 16.1387 16.632 16.7392 16.632 17.4461C16.632 18.1546 16.3739 18.7547 15.9193 19.2265C15.4824 19.6798 14.8936 19.986 14.2585 20.1991C12.9958 20.6227 11.3305 20.7491 9.62752 20.7491C7.91446 20.7491 6.24827 20.6185 4.98692 20.1897C4.3523 19.9739 3.76543 19.6649 3.33071 19.2093C2.8787 18.7355 2.62305 18.135 2.62305 17.428C2.62305 16.7195 2.88085 16.1192 3.33537 15.6471C3.77211 15.1935 4.36093 14.8874 4.99601 14.6744ZM4.4159 16.6875C4.22513 16.8856 4.12305 17.1151 4.12305 17.428C4.12305 17.7423 4.22522 17.9739 4.41594 18.1738C4.62395 18.3918 4.96472 18.5978 5.46974 18.7695C6.48765 19.1156 7.9487 19.2491 9.62752 19.2491C11.2983 19.2491 12.7602 19.1196 13.7813 18.777C14.2881 18.6069 14.6303 18.4024 14.8391 18.1857C15.03 17.9875 15.132 17.7582 15.132 17.4461C15.132 17.1318 15.0298 16.9002 14.8392 16.7003C14.6312 16.4824 14.2905 16.2763 13.7856 16.1046C12.7678 15.7586 11.3068 15.625 9.62752 15.625C7.95566 15.625 6.49383 15.7542 5.47298 16.0965C4.96637 16.2664 4.62446 16.4709 4.4159 16.6875Z" fill="black"/>
<path fill-rule="evenodd" clip-rule="evenodd" d="M21.1591 8.85623C21.452 9.14903 21.4522 9.62391 21.1594 9.91689L18.2942 12.7838C18.1535 12.9246 17.9625 13.0037 17.7635 13.0036C17.5644 13.0036 17.3735 12.9244 17.2329 12.7835L15.8422 11.3902C15.5496 11.0971 15.55 10.6222 15.8432 10.3296C16.1364 10.0369 16.6113 10.0374 16.9039 10.3306L17.764 11.1923L20.0984 8.85655C20.3912 8.56357 20.8661 8.56342 21.1591 8.85623Z" fill="black"/>
</svg>
