<svg width="24" height="24" viewBox="0 0 24 24" fill="none" xmlns="http://www.w3.org/2000/svg">
<path fill-rule="evenodd" clip-rule="evenodd" d="M9.02943 15.5319C8.14682 15.3141 7.61879 15.2372 7.22112 15.3791C5.89498 15.8523 5.17505 16.909 5.16802 18.1221C5.19619 18.6407 5.37925 19.035 5.64802 19.2978C5.91655 19.5604 6.3284 19.7484 6.91989 19.7484H17.0792C17.6687 19.7484 18.0785 19.5608 18.3466 19.2982C18.6155 19.0348 18.7999 18.6389 18.8312 18.1177C18.8311 16.913 18.1132 15.8579 16.776 15.3833C16.3775 15.2419 15.849 15.3193 14.9666 15.5366C14.8848 15.5567 14.8006 15.5778 14.7142 15.5995C13.9488 15.7914 13.0082 16.0273 11.9987 16.0187C10.9908 16.0249 10.0516 15.7886 9.28689 15.5963C9.1987 15.5741 9.11282 15.5525 9.02943 15.5319ZM9.64587 14.1395C10.4318 14.3359 11.1864 14.5245 11.9942 14.5187L12.0067 14.5186L12.0067 14.5187C12.8151 14.5264 13.5707 14.3382 14.3581 14.1421C14.441 14.1214 14.5243 14.1007 14.608 14.0801C15.4122 13.8821 16.3877 13.6538 17.2776 13.9697C19.1824 14.6456 20.3422 16.252 20.3311 18.1444L20.331 18.1622L20.3301 18.1799C20.2852 19.0228 19.9778 19.8002 19.3962 20.3699C18.8107 20.9432 18.0061 21.2484 17.0792 21.2484H6.91989C5.99235 21.2484 5.18574 20.9437 4.59931 20.3703C4.01614 19.8 3.70883 19.021 3.66881 18.1755L3.66797 18.1578V18.14C3.66797 16.2517 4.81944 14.6435 6.71698 13.9663C7.60754 13.6485 8.58376 13.8769 9.38885 14.0756C9.47496 14.0968 9.5606 14.1182 9.64587 14.1395Z" fill="black"/>
<path fill-rule="evenodd" clip-rule="evenodd" d="M12.0075 4.25C10.1772 4.25 8.69336 5.73381 8.69336 7.56417C8.69336 9.39454 10.1772 10.8783 12.0075 10.8783C13.8379 10.8783 15.3217 9.39454 15.3217 7.56417C15.3217 5.73381 13.8379 4.25 12.0075 4.25ZM7.19336 7.56417C7.19336 4.90538 9.34874 2.75 12.0075 2.75C14.6663 2.75 16.8217 4.90538 16.8217 7.56417C16.8217 10.223 14.6663 12.3783 12.0075 12.3783C9.34874 12.3783 7.19336 10.223 7.19336 7.56417Z" fill="black"/>
</svg>
