<svg width="24" height="24" viewBox="0 0 24 24" fill="none" xmlns="http://www.w3.org/2000/svg">
<path d="M11.9255 21.7503C10.6388 21.75 9.36575 21.4861 8.18488 20.975C7.004 20.4639 5.94032 19.7163 5.0594 18.7784C4.17848 17.8405 3.49897 16.7321 3.06279 15.5215C2.62661 14.311 2.44298 13.0239 2.52322 11.7397C2.60347 10.4554 2.94589 9.20123 3.52937 8.05439C4.11286 6.90754 4.92504 5.89235 5.91586 5.07138C6.90669 4.25042 8.05514 3.64107 9.29045 3.28092C10.5258 2.92077 11.8218 2.81744 13.0985 2.9773C13.2913 3.00699 13.4649 3.11061 13.5826 3.26618C13.7002 3.42175 13.7526 3.61701 13.7287 3.81058C13.7047 4.00415 13.6063 4.18079 13.4543 4.30301C13.3024 4.42524 13.1087 4.48346 12.9145 4.4653C12.5864 4.42488 12.2561 4.4045 11.9255 4.4043C10.3585 4.4043 8.82669 4.86898 7.52376 5.73957C6.22083 6.61016 5.20531 7.84755 4.60564 9.29529C4.00596 10.743 3.84906 12.3361 4.15477 13.873C4.46048 15.4099 5.21508 16.8216 6.32314 17.9297C7.43119 19.0377 8.84293 19.7923 10.3798 20.0981C11.9167 20.4038 13.5098 20.2469 14.9575 19.6472C16.4053 19.0475 17.6427 18.032 18.5133 16.7291C19.3839 15.4261 19.8485 13.8943 19.8485 12.3273C19.8485 12.1284 19.9276 11.9376 20.0682 11.797C20.2089 11.6563 20.3996 11.5773 20.5985 11.5773C20.7975 11.5773 20.9882 11.6563 21.1289 11.797C21.2695 11.9376 21.3485 12.1284 21.3485 12.3273C21.3456 14.8255 20.3519 17.2206 18.5854 18.9872C16.8189 20.7537 14.4238 21.7474 11.9255 21.7503Z" fill="black"/>
<path d="M17.253 9.95124C16.75 9.95124 16.2583 9.80211 15.8402 9.52268C15.422 9.24325 15.096 8.84609 14.9035 8.38141C14.7111 7.91674 14.6607 7.40541 14.7588 6.91211C14.8569 6.41882 15.0991 5.9657 15.4548 5.61005C15.8104 5.25441 16.2636 5.01222 16.7569 4.9141C17.2501 4.81598 17.7615 4.86634 18.2261 5.05881C18.6908 5.25129 19.088 5.57723 19.3674 5.99543C19.6468 6.41362 19.796 6.90528 19.796 7.40824C19.7954 8.08252 19.5273 8.72903 19.0506 9.20582C18.5738 9.68261 17.9272 9.95071 17.253 9.95124ZM17.253 6.36524C17.0467 6.36524 16.845 6.42641 16.6735 6.54102C16.502 6.65563 16.3683 6.81852 16.2894 7.0091C16.2104 7.19968 16.1898 7.40941 16.23 7.61173C16.2703 7.81405 16.3696 7.99989 16.5155 8.14576C16.6613 8.29162 16.8472 8.39094 17.0495 8.43119C17.2518 8.47143 17.4615 8.45077 17.6521 8.37183C17.8427 8.29289 18.0056 8.15923 18.1202 7.98771C18.2348 7.81619 18.296 7.61452 18.296 7.40824C18.296 7.13162 18.1861 6.86632 17.9905 6.67072C17.7949 6.47512 17.5296 6.36524 17.253 6.36524Z" fill="black"/>
<path d="M19.0479 8.1638C18.8489 8.1638 18.6582 8.08479 18.5175 7.94413C18.3769 7.80348 18.2979 7.61271 18.2979 7.4138V2.99879C18.2977 2.82357 18.3589 2.65381 18.4708 2.51899C18.5827 2.38417 18.7383 2.2928 18.9106 2.26072C19.0828 2.22865 19.2609 2.25789 19.4138 2.34339C19.5668 2.4289 19.6849 2.56526 19.7478 2.7288C19.8536 2.97356 20.0139 3.19089 20.2165 3.36421C20.4191 3.53753 20.6587 3.66225 20.9169 3.7288C21.1068 3.7737 21.2717 3.89076 21.3768 4.05519C21.4819 4.21962 21.5189 4.41851 21.4799 4.60972C21.4409 4.80094 21.329 4.96946 21.1679 5.0796C21.0068 5.18974 20.8092 5.23284 20.6169 5.19978C20.3301 5.14124 20.0537 5.04013 19.7968 4.89979V7.41178C19.7971 7.51036 19.7779 7.60804 19.7404 7.6992C19.7029 7.79036 19.6478 7.87322 19.5782 7.94307C19.5087 8.01291 19.426 8.06834 19.335 8.10621C19.244 8.14409 19.1464 8.16367 19.0479 8.1638Z" fill="black"/>
<path d="M16.1914 20.6576C16.0084 20.6573 15.8318 20.5902 15.6948 20.4688C15.5578 20.3475 15.4698 20.1803 15.4474 19.9986C15.3864 19.4936 14.9474 17.8496 11.9204 17.8496C8.92037 17.8496 8.47236 19.4796 8.40836 19.9786C8.38096 20.175 8.27767 20.3529 8.12063 20.4741C7.96359 20.5952 7.76532 20.65 7.56837 20.6266C7.47069 20.614 7.37646 20.5823 7.29105 20.5333C7.20565 20.4842 7.13075 20.4188 7.07066 20.3408C7.01056 20.2628 6.96644 20.1737 6.94082 20.0786C6.9152 19.9835 6.90859 19.8843 6.92136 19.7866C7.13436 18.1246 8.56036 16.3496 11.9214 16.3496C15.3094 16.3496 16.7344 18.1416 16.9384 19.8166C16.9502 19.9145 16.9427 20.0137 16.9162 20.1086C16.8897 20.2035 16.8448 20.2923 16.7839 20.3699C16.7231 20.4474 16.6476 20.5122 16.5617 20.5606C16.4758 20.6089 16.3812 20.6398 16.2834 20.6516C16.2529 20.6556 16.2221 20.6576 16.1914 20.6576Z" fill="black"/>
<path d="M11.9299 15.5122C11.2935 15.5122 10.6713 15.3234 10.1421 14.9698C9.6129 14.6162 9.20043 14.1137 8.95687 13.5256C8.71331 12.9376 8.64958 12.2906 8.77375 11.6664C8.89792 11.0421 9.2044 10.4687 9.65444 10.0187C10.1045 9.56864 10.6779 9.26218 11.3021 9.13801C11.9263 9.01384 12.5734 9.07755 13.1614 9.32112C13.7494 9.56468 14.252 9.97716 14.6056 10.5064C14.9592 11.0356 15.1479 11.6577 15.1479 12.2942C15.1469 13.1473 14.8075 13.9652 14.2042 14.5685C13.601 15.1717 12.7831 15.5111 11.9299 15.5122ZM11.9299 10.5752C11.5902 10.5752 11.258 10.6759 10.9755 10.8646C10.693 11.0534 10.4728 11.3216 10.3428 11.6355C10.2127 11.9493 10.1786 12.2947 10.2448 12.628C10.3111 12.9612 10.4746 13.2673 10.7148 13.5076C10.9549 13.7479 11.2609 13.9116 11.5941 13.978C11.9273 14.0444 12.2727 14.0106 12.5867 13.8807C12.9006 13.7508 13.169 13.5308 13.3579 13.2484C13.5468 12.966 13.6477 12.6339 13.6479 12.2942C13.6474 11.8386 13.4662 11.4018 13.1442 11.0796C12.8222 10.7574 12.3855 10.576 11.9299 10.5752Z" fill="black"/>
</svg>
