<svg width="24" height="24" viewBox="0 0 24 24" fill="none" xmlns="http://www.w3.org/2000/svg">
<path fill-rule="evenodd" clip-rule="evenodd" d="M7.14835 14.6744C8.41088 14.251 10.0763 14.125 11.7799 14.125C12.1941 14.125 12.5299 14.4608 12.5299 14.875C12.5299 15.2892 12.1941 15.625 11.7799 15.625C10.108 15.625 8.64617 15.7542 7.62532 16.0965C7.11871 16.2664 6.7768 16.4709 6.56825 16.6875C6.37747 16.8856 6.27539 17.1151 6.27539 17.428C6.27539 17.7423 6.37757 17.9739 6.56828 18.1738C6.77629 18.3918 7.11707 18.5978 7.62208 18.7695C8.64 19.1156 10.101 19.2491 11.7799 19.2491C12.1941 19.2491 12.5299 19.5849 12.5299 19.9991C12.5299 20.4133 12.1941 20.7491 11.7799 20.7491C10.0668 20.7491 8.40062 20.6185 7.13926 20.1897C6.50465 19.9739 5.91778 19.6649 5.48305 19.2093C5.03104 18.7355 4.77539 18.135 4.77539 17.428C4.77539 16.7195 5.03319 16.1192 5.48771 15.6471C5.92446 15.1935 6.51327 14.8874 7.14835 14.6744Z" fill="black"/>
<path fill-rule="evenodd" clip-rule="evenodd" d="M14.4521 14.79C14.745 14.4971 15.2199 14.4971 15.5128 14.79L16.7266 16.0039L17.9072 14.8233C18.2001 14.5304 18.6749 14.5304 18.9678 14.8233C19.2607 15.1162 19.2607 15.5911 18.9678 15.884L17.7873 17.0645L19.0032 18.2804C19.2961 18.5733 19.2961 19.0482 19.0032 19.3411C18.7103 19.634 18.2355 19.634 17.9426 19.3411L16.7266 18.1252L15.5457 19.3061C15.2528 19.599 14.7779 19.599 14.485 19.3061C14.1921 19.0133 14.1921 18.5384 14.485 18.2455L15.666 17.0645L14.4521 15.8506C14.1592 15.5577 14.1592 15.0829 14.4521 14.79Z" fill="black"/>
<path fill-rule="evenodd" clip-rule="evenodd" d="M11.7779 4.75C9.9861 4.75 8.5332 6.20334 8.5332 7.99553C8.5332 9.78771 9.9861 11.2411 11.7779 11.2411C13.5706 11.2411 15.0234 9.78761 15.0234 7.99553C15.0234 6.20345 13.5706 4.75 11.7779 4.75ZM7.0332 7.99553C7.0332 5.37534 9.15725 3.25 11.7779 3.25C14.3992 3.25 16.5234 5.37523 16.5234 7.99553C16.5234 10.6158 14.3992 12.7411 11.7779 12.7411C9.15725 12.7411 7.0332 10.6157 7.0332 7.99553Z" fill="black"/>
</svg>
