<svg width="24" height="24" viewBox="0 0 24 24" fill="none" xmlns="http://www.w3.org/2000/svg">
<path fill-rule="evenodd" clip-rule="evenodd" d="M12 3.75C7.44335 3.75 3.75 7.44421 3.75 12C3.75 16.5567 7.44329 20.25 12 20.25C16.5567 20.25 20.25 16.5567 20.25 12C20.25 7.44421 16.5567 3.75 12 3.75ZM2.25 12C2.25 6.61589 6.61481 2.25 12 2.25C17.3852 2.25 21.75 6.61589 21.75 12C21.75 17.3851 17.3851 21.75 12 21.75C6.61487 21.75 2.25 17.3851 2.25 12Z" fill="black"/>
<path fill-rule="evenodd" clip-rule="evenodd" d="M8.97757 18.1687C8.39399 18.6253 8.11832 19.2096 8.04864 19.7513C7.99581 20.1622 7.61994 20.4524 7.20911 20.3996C6.79828 20.3467 6.50806 19.9708 6.5609 19.56C6.67804 18.6491 7.14182 17.7005 8.05321 16.9873C8.96282 16.2756 10.2634 15.8398 11.9926 15.8398C13.7376 15.8398 15.046 16.2773 15.9581 16.9953C16.8726 17.7152 17.3305 18.6728 17.4424 19.5913C17.4924 20.0025 17.1997 20.3764 16.7885 20.4265C16.3773 20.4765 16.0034 20.1838 15.9534 19.7726C15.8862 19.221 15.6128 18.6325 15.0303 18.1739C14.4452 17.7134 13.4904 17.3398 11.9926 17.3398C10.5128 17.3398 9.56293 17.7107 8.97757 18.1687Z" fill="black"/>
<path fill-rule="evenodd" clip-rule="evenodd" d="M11.9997 9.33203C10.9127 9.33203 10.0312 10.2134 10.0312 11.3005C10.0312 12.3876 10.9127 13.269 11.9997 13.269C13.0868 13.269 13.9682 12.3876 13.9682 11.3005C13.9682 10.2134 13.0868 9.33203 11.9997 9.33203ZM8.53125 11.3005C8.53125 9.38501 10.0842 7.83203 11.9997 7.83203C13.9152 7.83203 15.4682 9.38501 15.4682 11.3005C15.4682 13.216 13.9152 14.769 11.9997 14.769C10.0842 14.769 8.53125 13.216 8.53125 11.3005Z" fill="black"/>
</svg>
