<svg width="24" height="24" viewBox="0 0 24 24" fill="none" xmlns="http://www.w3.org/2000/svg">
<path fill-rule="evenodd" clip-rule="evenodd" d="M6.32748 15.0741C6.73104 15.1675 6.98251 15.5703 6.88916 15.9739L6.29856 18.527C6.20522 18.9305 5.80247 19.182 5.39895 19.0887L2.83126 18.4952C2.42769 18.4019 2.17615 17.9991 2.26943 17.5955C2.36272 17.192 2.7655 16.9404 3.16907 17.0337L5.00615 17.4583L5.42775 15.6358C5.5211 15.2323 5.92393 14.9808 6.32748 15.0741Z" fill="black"/>
<path fill-rule="evenodd" clip-rule="evenodd" d="M17.7019 5.47567C17.7952 5.07216 18.1979 4.82069 18.6015 4.91396L21.1692 5.50748C21.5727 5.60077 21.8243 6.00355 21.731 6.40712C21.6377 6.81069 21.2349 7.06223 20.8313 6.96895L18.9943 6.54431L18.5727 8.36682C18.4793 8.77038 18.0765 9.02185 17.6729 8.9285C17.2694 8.83514 17.0179 8.43232 17.1113 8.02876L17.7019 5.47567Z" fill="black"/>
<path fill-rule="evenodd" clip-rule="evenodd" d="M10.109 14.7468C9.71957 15.1 9.56836 15.5431 9.56836 15.926C9.56836 16.3402 9.23257 16.676 8.81836 16.676C8.40415 16.676 8.06836 16.3402 8.06836 15.926C8.06836 15.1519 8.37542 14.2941 9.10124 13.6358C9.82926 12.9754 10.9116 12.5742 12.3629 12.5742C13.8153 12.5742 14.8988 12.9707 15.6283 13.6269C16.3565 14.282 16.6643 15.1375 16.6643 15.9123C16.6643 16.3266 16.3285 16.6623 15.9143 16.6623C15.5001 16.6623 15.1643 16.3266 15.1643 15.9123C15.1643 15.5303 15.0138 15.0917 14.6251 14.742C14.2375 14.3934 13.5453 14.0742 12.3629 14.0742C11.1863 14.0742 10.4963 14.3955 10.109 14.7468Z" fill="black"/>
<path fill-rule="evenodd" clip-rule="evenodd" d="M13.4034 4.00617C10.8675 3.55247 8.16302 4.31114 6.21399 6.27532L6.21397 6.27533C3.10052 9.41283 3.08001 14.4545 6.13625 17.6167C6.42411 17.9145 6.41602 18.3893 6.11818 18.6772C5.82033 18.9651 5.34553 18.957 5.05767 18.6591C1.43539 14.9113 1.45964 8.93685 5.14924 5.21875L5.68161 5.74704L5.14924 5.21875C7.4599 2.89015 10.6672 1.99283 13.6676 2.52962C14.0753 2.60256 14.3467 2.99224 14.2738 3.39998C14.2008 3.80772 13.8111 4.07912 13.4034 4.00617Z" fill="black"/>
<path fill-rule="evenodd" clip-rule="evenodd" d="M17.8842 5.32009C18.1821 5.03223 18.6569 5.04032 18.9447 5.33816C22.567 9.08603 22.5428 15.0604 18.8532 18.7785C16.5425 21.1071 13.3352 22.0045 10.3348 21.4677C9.9271 21.3947 9.6557 21.0051 9.72865 20.5973C9.8016 20.1896 10.1913 19.9182 10.599 19.9911C13.1349 20.4448 15.8394 19.6861 17.7884 17.722L17.7884 17.722C20.9019 14.5845 20.9224 9.54281 17.8662 6.38059C17.5783 6.08275 17.5864 5.60795 17.8842 5.32009Z" fill="black"/>
<path fill-rule="evenodd" clip-rule="evenodd" d="M12.3647 7.61328C11.5277 7.61328 10.8496 8.29134 10.8496 9.12837C10.8496 9.96541 11.5277 10.6435 12.3647 10.6435C13.2017 10.6435 13.8798 9.96541 13.8798 9.12837C13.8798 8.29134 13.2017 7.61328 12.3647 7.61328ZM9.34961 9.12837C9.34961 7.46291 10.6992 6.11328 12.3647 6.11328C14.0302 6.11328 15.3798 7.46291 15.3798 9.12837C15.3798 10.7938 14.0302 12.1435 12.3647 12.1435C10.6992 12.1435 9.34961 10.7938 9.34961 9.12837Z" fill="black"/>
</svg>
