<svg width="24" height="24" viewBox="0 0 24 24" fill="none" xmlns="http://www.w3.org/2000/svg">
<path d="M16.2852 21.6024C16.0536 21.603 15.8241 21.5579 15.6099 21.4697C15.3958 21.3815 15.2012 21.2519 15.0372 21.0884L14.7042 20.7564C14.6531 20.7058 14.5841 20.6774 14.5122 20.6774H14.0471C13.577 20.6766 13.1263 20.4894 12.794 20.1569C12.4616 19.8243 12.2747 19.3736 12.2742 18.9034V18.4354C12.2746 18.3983 12.2676 18.3614 12.2535 18.3271C12.2394 18.2927 12.2185 18.2615 12.1922 18.2354L11.8702 17.9134C11.5385 17.5825 11.3513 17.1337 11.3496 16.6652C11.3479 16.1967 11.5319 15.7467 11.8612 15.4134L11.8912 15.3844L12.1912 15.0844C12.2419 15.0334 12.2702 14.9643 12.2702 14.8924V14.4274C12.2709 13.9575 12.4578 13.507 12.7899 13.1746C13.122 12.8421 13.5723 12.6547 14.0422 12.6534H14.5092C14.5814 12.6533 14.6506 12.625 14.7022 12.5744L15.0252 12.2514C15.3569 11.9182 15.8072 11.7302 16.2773 11.7285C16.7474 11.7268 17.199 11.9116 17.5332 12.2424L17.8641 12.5734C17.8892 12.5988 17.9191 12.619 17.9521 12.6327C17.9851 12.6464 18.0205 12.6535 18.0562 12.6534H18.5231C18.9935 12.6539 19.4444 12.841 19.777 13.1736C20.1096 13.5061 20.2966 13.9571 20.2971 14.4274V14.8934C20.2975 14.965 20.3254 15.0338 20.3751 15.0854L20.7012 15.4114C21.0333 15.7434 21.2204 16.1935 21.2215 16.6632C21.2226 17.1328 21.0377 17.5838 20.7072 17.9174L20.3742 18.2504C20.3248 18.3009 20.2975 18.3688 20.2982 18.4394V18.9074C20.2976 19.3774 20.1106 19.8279 19.7782 20.1602C19.4458 20.4924 18.9951 20.6791 18.5252 20.6794H18.0552C18.0199 20.6793 17.985 20.6861 17.9524 20.6995C17.9198 20.7129 17.8902 20.7325 17.8652 20.7574L17.5361 21.0844C17.373 21.2496 17.1786 21.3808 16.9644 21.4704C16.7502 21.56 16.5204 21.6062 16.2882 21.6064L16.2852 21.6024ZM12.9132 16.4824C12.8681 16.535 12.8445 16.6026 12.8473 16.6718C12.8501 16.741 12.879 16.8066 12.9282 16.8554L13.2562 17.1844C13.5876 17.5164 13.7739 17.9663 13.7742 18.4354V18.9034C13.7742 18.9759 13.8029 19.0454 13.8541 19.0968C13.9052 19.1481 13.9746 19.1771 14.0471 19.1774H14.5122C14.981 19.1783 15.4305 19.364 15.7631 19.6944L16.0881 20.0184C16.1142 20.0449 16.1454 20.0659 16.1798 20.0802C16.2141 20.0944 16.251 20.1016 16.2882 20.1014C16.3237 20.1016 16.359 20.0947 16.3919 20.0809C16.4247 20.0672 16.4543 20.0469 16.4791 20.0214L16.8101 19.6914C16.974 19.527 17.1689 19.3967 17.3835 19.3082C17.5981 19.2196 17.828 19.1745 18.0601 19.1754H18.5292C18.5652 19.1755 18.6009 19.1685 18.6342 19.1548C18.6675 19.1411 18.6977 19.1209 18.7232 19.0954C18.7742 19.0437 18.803 18.9741 18.8032 18.9014V18.4354C18.8021 17.9674 18.987 17.5181 19.3172 17.1864L19.6462 16.8574C19.6717 16.8319 19.692 16.8015 19.7058 16.7682C19.7197 16.7348 19.7268 16.699 19.7268 16.6629C19.7268 16.6268 19.7197 16.591 19.7058 16.5576C19.692 16.5243 19.6717 16.4939 19.6462 16.4684L19.3192 16.1404C19.1546 15.9763 19.0242 15.7813 18.9355 15.5666C18.8468 15.3519 18.8014 15.1217 18.8021 14.8894V14.4234C18.8021 14.3507 18.7733 14.281 18.7219 14.2296C18.6706 14.1783 18.6008 14.1494 18.5281 14.1494H18.0612C17.8288 14.1501 17.5985 14.1047 17.3837 14.0157C17.169 13.9268 16.974 13.7962 16.8101 13.6314L16.4852 13.3084L16.4702 13.2944C16.42 13.2491 16.3548 13.2241 16.2872 13.2244C16.2513 13.2243 16.2158 13.2313 16.1826 13.245C16.1495 13.2588 16.1195 13.279 16.0942 13.3044L15.7681 13.6314C15.4348 13.9621 14.9847 14.1481 14.5151 14.1494H14.0491C13.9766 14.1497 13.9072 14.1786 13.856 14.23C13.8049 14.2814 13.7761 14.3509 13.7761 14.4234V14.8894C13.7765 15.1215 13.7311 15.3514 13.6423 15.566C13.5536 15.7805 13.4234 15.9753 13.2592 16.1394L12.9342 16.4654L12.9132 16.4824ZM15.8112 18.3924C15.7125 18.3923 15.6148 18.3727 15.5236 18.3348C15.4325 18.2969 15.3498 18.2414 15.2802 18.1714L14.3602 17.2494C14.2237 17.1078 14.1484 16.9182 14.1503 16.7215C14.1523 16.5249 14.2315 16.3369 14.3707 16.198C14.51 16.0592 14.6983 15.9805 14.8949 15.9791C15.0916 15.9777 15.2809 16.0536 15.4221 16.1904L15.8121 16.5804L17.1782 15.2144C17.3196 15.0777 17.509 15.002 17.7056 15.0036C17.9023 15.0053 18.0904 15.084 18.2295 15.223C18.3686 15.362 18.4476 15.5501 18.4494 15.7467C18.4512 15.9434 18.3757 16.1329 18.2391 16.2744L16.3392 18.1744C16.1988 18.3138 16.009 18.3921 15.8112 18.3924Z" fill="black"/>
<path d="M3.5293 19.7723C3.33038 19.7723 3.13961 19.6932 2.99896 19.5526C2.85831 19.4119 2.7793 19.2212 2.7793 19.0223C2.7793 16.3093 4.99331 13.5723 9.94031 13.5723C10.1392 13.5723 10.33 13.6513 10.4706 13.7919C10.6113 13.9326 10.6903 14.1234 10.6903 14.3223C10.6903 14.5212 10.6113 14.7119 10.4706 14.8526C10.33 14.9932 10.1392 15.0723 9.94031 15.0723C5.76131 15.0723 4.2793 17.2003 4.2793 19.0223C4.2793 19.2212 4.20028 19.4119 4.05963 19.5526C3.91898 19.6932 3.72821 19.7723 3.5293 19.7723Z" fill="black"/>
<path d="M9.9407 12.0826C8.9824 12.0826 8.04564 11.7984 7.24886 11.266C6.45208 10.7336 5.83112 9.97682 5.46444 9.09145C5.09776 8.20608 5.00184 7.23186 5.18886 6.292C5.37589 5.35213 5.83741 4.48884 6.5151 3.81129C7.19278 3.13375 8.05621 2.67239 8.99612 2.48555C9.93602 2.29872 10.9102 2.39481 11.7955 2.76167C12.6808 3.12853 13.4374 3.74968 13.9697 4.54657C14.5019 5.34345 14.7859 6.28029 14.7857 7.23858C14.7841 8.52298 14.2731 9.75429 13.3648 10.6624C12.4565 11.5705 11.2251 12.0813 9.9407 12.0826ZM9.9407 3.89258C9.27916 3.89258 8.63248 4.08873 8.08242 4.45624C7.53236 4.82375 7.10363 5.34611 6.85043 5.95727C6.59722 6.56843 6.53095 7.24095 6.65993 7.88979C6.78892 8.53863 7.10739 9.13465 7.5751 9.6025C8.0428 10.0703 8.6387 10.389 9.2875 10.5182C9.9363 10.6474 10.6089 10.5813 11.2201 10.3282C11.8314 10.0752 12.3538 9.64664 12.7215 9.09669C13.0891 8.54674 13.2855 7.90012 13.2857 7.23858C13.2844 6.35193 12.9315 5.50199 12.3045 4.87513C11.6774 4.24826 10.8273 3.89564 9.9407 3.89458V3.89258Z" fill="black"/>
</svg>
