<svg width="24" height="24" viewBox="0 0 24 24" fill="none" xmlns="http://www.w3.org/2000/svg">
<path fill-rule="evenodd" clip-rule="evenodd" d="M5.73475 6.84742C5.15257 7.47151 4.79492 8.38916 4.79492 9.53526V16.5609C4.79492 17.7035 5.15086 18.6191 5.73185 19.242C6.30736 19.859 7.15847 20.2486 8.27531 20.2486H15.731C16.8483 20.2486 17.697 19.8591 18.2703 19.2428C18.8492 18.6203 19.2036 17.7046 19.2036 16.5609V9.53526C19.2036 8.38714 18.8489 7.46953 18.2699 6.84628C17.6968 6.22928 16.8483 5.83984 15.731 5.83984H13.719C13.3048 5.83984 12.969 5.50406 12.969 5.08984C12.969 4.67563 13.3048 4.33984 13.719 4.33984H15.731C17.2194 4.33984 18.4822 4.87082 19.3689 5.82538C20.2499 6.77368 20.7036 8.07879 20.7036 9.53526V16.5609C20.7036 18.0141 20.2495 19.3172 19.3686 20.2643C18.4819 21.2176 17.2194 21.7486 15.731 21.7486H8.27531C6.78757 21.7486 5.52348 21.2177 4.63494 20.2651C3.75188 19.3184 3.29492 18.0151 3.29492 16.5609V9.53526C3.29492 8.07677 3.75406 6.77171 4.63789 5.82424C5.52707 4.87103 6.79094 4.33984 8.27531 4.33984H10.2883C10.7026 4.33984 11.0383 4.67563 11.0383 5.08984C11.0383 5.50406 10.7026 5.83984 10.2883 5.83984H8.27531C7.16288 5.83984 6.31156 6.22907 5.73475 6.84742Z" fill="black"/>
<path fill-rule="evenodd" clip-rule="evenodd" d="M11.2406 3.75C11.126 3.75 11.0332 3.84279 11.0332 3.95738V6.1534L12.0024 6.63763L12.9658 6.15399V3.95738C12.9658 3.84378 12.873 3.75 12.7574 3.75H11.2406ZM9.5332 3.95738C9.5332 3.01535 10.2966 2.25 11.2406 2.25H12.7574C13.7004 2.25 14.4658 3.01436 14.4658 3.95738V6.19906C14.4658 6.73921 14.1602 7.2327 13.6787 7.47449L12.4942 8.06917C12.1856 8.22551 11.8221 8.22435 11.5164 8.07159C11.5163 8.07155 11.5165 8.07162 11.5164 8.07159L10.3226 7.47517C9.83837 7.23305 9.5332 6.73844 9.5332 6.19712V3.95738Z" fill="black"/>
<path fill-rule="evenodd" clip-rule="evenodd" d="M12.0003 10.6719C11.4484 10.6719 11.002 11.1183 11.002 11.6703C11.002 12.2227 11.449 12.6696 12.0003 12.6696C12.5523 12.6696 12.9997 12.2222 12.9997 11.6703C12.9997 11.1189 12.5528 10.6719 12.0003 10.6719ZM9.50195 11.6703C9.50195 10.2899 10.62 9.17188 12.0003 9.17188C13.3802 9.17188 14.4997 10.2894 14.4997 11.6703C14.4997 13.0506 13.3807 14.1696 12.0003 14.1696C10.6194 14.1696 9.50195 13.0501 9.50195 11.6703Z" fill="black"/>
<path fill-rule="evenodd" clip-rule="evenodd" d="M10.3721 16.4623C10.1106 16.6993 10.0117 16.9934 10.0117 17.2455C10.0117 17.6597 9.67593 17.9955 9.26172 17.9955C8.84751 17.9955 8.51172 17.6597 8.51172 17.2455C8.51172 16.6034 8.76557 15.8939 9.36485 15.3508C9.96601 14.8061 10.8468 14.4883 11.9996 14.4883C13.1511 14.4883 14.0316 14.8033 14.6333 15.3455C15.2337 15.8866 15.4885 16.5948 15.4885 17.2377C15.4885 17.6519 15.1527 17.9877 14.7385 17.9877C14.3242 17.9877 13.9885 17.6519 13.9885 17.2377C13.9885 16.9864 13.89 16.6949 13.6291 16.4598C13.3695 16.2259 12.8806 15.9883 11.9996 15.9883C11.1199 15.9883 10.6318 16.227 10.3721 16.4623Z" fill="black"/>
</svg>
