<svg width="24" height="24" viewBox="0 0 24 24" fill="none" xmlns="http://www.w3.org/2000/svg">
<path fill-rule="evenodd" clip-rule="evenodd" d="M12 3.75C7.44335 3.75 3.75 7.44421 3.75 12C3.75 16.5567 7.44329 20.25 12 20.25C16.5567 20.25 20.25 16.5567 20.25 12C20.25 7.44421 16.5567 3.75 12 3.75ZM2.25 12C2.25 6.61589 6.61481 2.25 12 2.25C17.3852 2.25 21.75 6.61589 21.75 12C21.75 17.3851 17.3851 21.75 12 21.75C6.61487 21.75 2.25 17.3851 2.25 12Z" fill="black"/>
<path fill-rule="evenodd" clip-rule="evenodd" d="M9.31132 16.4531C7.12288 16.4531 6.08617 17.2568 5.65172 18.0191C5.4466 18.3789 4.98859 18.5044 4.62873 18.2993C4.26887 18.0941 4.14343 17.6361 4.34854 17.2763C5.11535 15.931 6.73079 14.9531 9.31132 14.9531C11.9036 14.9531 13.5217 15.9259 14.2893 17.2771C14.494 17.6372 14.3679 18.0951 14.0077 18.2997C13.6476 18.5043 13.1898 18.3782 12.9852 18.0181C12.5517 17.2552 11.5166 16.4531 9.31132 16.4531Z" fill="black"/>
<path fill-rule="evenodd" clip-rule="evenodd" d="M9.3181 8.44531C8.23101 8.44531 7.34961 9.32671 7.34961 10.4138C7.34961 11.5009 8.23101 12.3823 9.3181 12.3823C10.4052 12.3823 11.2866 11.5009 11.2866 10.4138C11.2866 9.32672 10.4052 8.44531 9.3181 8.44531ZM5.84961 10.4138C5.84961 8.49829 7.40258 6.94531 9.3181 6.94531C11.2336 6.94531 12.7866 8.49829 12.7866 10.4138C12.7866 12.3293 11.2336 13.8823 9.3181 13.8823C7.40258 13.8823 5.84961 12.3293 5.84961 10.4138Z" fill="black"/>
<path fill-rule="evenodd" clip-rule="evenodd" d="M12.1364 20.4519C12.2135 19.8866 12.504 19.2799 13.1107 18.8053C13.7255 18.3242 14.7197 17.9375 16.2626 17.9375C17.2959 17.9375 18.0837 18.1085 18.6743 18.3629C19.0547 18.5268 19.4959 18.3513 19.6598 17.9709C19.8237 17.5905 19.6482 17.1492 19.2678 16.9853C18.4555 16.6354 17.4591 16.4375 16.2626 16.4375C14.4703 16.4375 13.1254 16.8892 12.1863 17.6239C11.2455 18.3601 10.7671 19.3389 10.6463 20.2784C10.6447 20.2912 10.6433 20.304 10.6424 20.3168L10.5979 20.8969C10.5663 21.31 10.8755 21.6704 11.2885 21.702C11.7015 21.7337 12.0619 21.4245 12.0935 21.0115L12.1364 20.4519Z" fill="black"/>
<path fill-rule="evenodd" clip-rule="evenodd" d="M16.3552 11.4258C15.651 11.4258 15.0801 11.9967 15.0801 12.7009C15.0801 13.405 15.651 13.9759 16.3552 13.9759C17.0593 13.9759 17.6302 13.405 17.6302 12.7009C17.6302 11.9967 17.0593 11.4258 16.3552 11.4258ZM13.5801 12.7009C13.5801 11.1683 14.8226 9.92578 16.3552 9.92578C17.8877 9.92578 19.1302 11.1683 19.1302 12.7009C19.1302 14.2334 17.8877 15.4759 16.3552 15.4759C14.8226 15.4759 13.5801 14.2334 13.5801 12.7009Z" fill="black"/>
</svg>
