<svg width="24" height="24" viewBox="0 0 24 24" fill="none" xmlns="http://www.w3.org/2000/svg">
<path fill-rule="evenodd" clip-rule="evenodd" d="M11.6515 4.09766C7.28791 4.09766 3.75 7.63471 3.75 11.9991C3.75 16.3627 7.28797 19.9006 11.6515 19.9006C15.7515 19.9006 19.1237 16.776 19.5147 12.7785C19.555 12.3663 19.9219 12.0648 20.3341 12.1051C20.7464 12.1454 21.0479 12.5123 21.0076 12.9245C20.5422 17.6827 16.5309 21.4006 11.6515 21.4006C6.45954 21.4006 2.25 17.1911 2.25 11.9991C2.25 6.80617 6.4596 2.59766 11.6515 2.59766C12.047 2.59766 12.4379 2.62192 12.8219 2.66952C13.233 2.72048 13.5249 3.09503 13.4739 3.50609C13.423 3.91716 13.0484 4.20909 12.6374 4.15813C12.3149 4.11816 11.9857 4.09766 11.6515 4.09766Z" fill="black"/>
<path fill-rule="evenodd" clip-rule="evenodd" d="M8.95544 18.2437C8.44225 18.6453 8.20134 19.1574 8.14043 19.6307C8.08756 20.0415 7.71166 20.3317 7.30083 20.2788C6.89001 20.2259 6.59983 19.85 6.6527 19.4392C6.76111 18.5969 7.19015 17.7204 8.03098 17.0624C8.87007 16.4057 10.0645 16.0078 11.642 16.0078C13.2349 16.0078 14.4369 16.4071 15.2784 17.0697C16.1225 17.7344 16.5456 18.6195 16.6486 19.469C16.6984 19.8802 16.4055 20.2539 15.9943 20.3038C15.5831 20.3537 15.2094 20.0607 15.1595 19.6495C15.101 19.1669 14.8623 18.6513 14.3505 18.2482C13.8361 17.8432 12.9878 17.5078 11.642 17.5078C10.314 17.5078 9.47036 17.8407 8.95544 18.2437Z" fill="black"/>
<path fill-rule="evenodd" clip-rule="evenodd" d="M11.6493 10.2539C10.7042 10.2539 9.9375 11.0206 9.9375 11.9657C9.9375 12.9113 10.7046 13.6786 11.6493 13.6786C12.5953 13.6786 13.3622 12.9111 13.3622 11.9657C13.3622 11.0208 12.5957 10.2539 11.6493 10.2539ZM8.4375 11.9657C8.4375 10.1922 9.87576 8.75391 11.6493 8.75391C13.4237 8.75391 14.8622 10.192 14.8622 11.9657C14.8622 13.7391 13.4241 15.1786 11.6493 15.1786C9.87538 15.1786 8.4375 13.7389 8.4375 11.9657Z" fill="black"/>
<path fill-rule="evenodd" clip-rule="evenodd" d="M19.2421 5.36993C18.6505 4.77773 17.6906 4.77773 17.099 5.36993L17.0984 5.37052C16.5064 5.96191 16.506 6.9211 17.0987 7.51385C17.6904 8.10547 18.6508 8.10547 19.2424 7.51385C19.8342 6.92101 19.8337 5.96159 19.2424 5.37023L19.2421 5.36993ZM20.3033 4.30986C19.1259 3.13119 17.2156 3.13109 16.0381 4.30957C14.8594 5.48722 14.86 7.39639 16.0381 8.57452C17.0324 9.56882 18.5492 9.72345 19.7061 9.0384L20.4694 9.80202C20.7622 10.095 21.2371 10.0951 21.5301 9.80223C21.823 9.50939 21.8231 9.03452 21.5303 8.74157L20.7667 7.97766C21.4518 6.82067 21.2977 5.30448 20.3033 4.30986Z" fill="black"/>
</svg>
