<svg width="24" height="24" viewBox="0 0 24 24" fill="none" xmlns="http://www.w3.org/2000/svg">
<path fill-rule="evenodd" clip-rule="evenodd" d="M12.1605 14.7969L12.1605 14.797C13.5361 14.8115 14.7947 14.9766 15.732 15.4422C16.2124 15.6808 16.6327 16.0102 16.9297 16.4599C17.2298 16.9141 17.3727 17.4437 17.3696 18.0273L17.3695 18.0433L17.3688 18.0593C17.3407 18.6443 17.1477 19.2095 16.7531 19.638C16.3488 20.0771 15.7853 20.314 15.1455 20.314H9.15967C8.51986 20.314 7.95511 20.0776 7.55004 19.6385C7.15421 19.2093 6.96131 18.6427 6.93623 18.0553L6.93555 18.0393V18.0233C6.93555 17.4393 7.0801 16.9096 7.38036 16.4556C7.67786 16.0057 8.0978 15.6758 8.57836 15.437C9.51586 14.971 10.7728 14.8078 12.1467 14.797L12.1605 14.7969ZM8.43561 18.0071C8.45137 18.3077 8.54657 18.5065 8.65263 18.6215C8.75131 18.7284 8.90447 18.814 9.15967 18.814H15.1455C15.3991 18.814 15.5511 18.729 15.6497 18.6219C15.7562 18.5063 15.8522 18.3061 15.8696 18.0031C15.8688 17.686 15.7926 17.4599 15.6781 17.2866C15.5588 17.106 15.3661 16.9352 15.0647 16.7856C14.4397 16.4751 13.4623 16.3113 12.1516 16.297C10.8439 16.3079 9.86968 16.4702 9.24601 16.7802C8.94544 16.9296 8.75206 17.1007 8.63152 17.283C8.5157 17.4581 8.43815 17.6869 8.43561 18.0071Z" fill="black"/>
<path fill-rule="evenodd" clip-rule="evenodd" d="M12.1533 9.3125C11.278 9.3125 10.5684 10.0221 10.5684 10.8975C10.5684 11.7728 11.278 12.4824 12.1533 12.4824C13.0287 12.4824 13.7383 11.7728 13.7383 10.8975C13.7383 10.0221 13.0287 9.3125 12.1533 9.3125ZM9.06836 10.8975C9.06836 9.19368 10.4495 7.8125 12.1533 7.8125C13.8571 7.8125 15.2383 9.19368 15.2383 10.8975C15.2383 12.6012 13.8571 13.9824 12.1533 13.9824C10.4495 13.9824 9.06836 12.6012 9.06836 10.8975Z" fill="black"/>
<path fill-rule="evenodd" clip-rule="evenodd" d="M7.45913 10.8769C7.4624 11.2911 7.12928 11.6295 6.71508 11.6328C5.63169 11.6414 4.84459 11.7761 4.35235 12.0207C4.11804 12.1372 3.97669 12.2658 3.89162 12.3945C3.8111 12.5162 3.7526 12.6804 3.75008 12.9227C3.76253 13.1466 3.83284 13.2803 3.89654 13.3494C3.95249 13.4101 4.04475 13.4683 4.22402 13.4683H7.11119C7.5254 13.4683 7.86119 13.8041 7.86119 14.2183C7.86119 14.6325 7.5254 14.9683 7.11119 14.9683H4.22402C3.66014 14.9683 3.15628 14.7592 2.79395 14.3664C2.44085 13.9836 2.27251 13.4823 2.25068 12.971C2.25023 12.9604 2.25 12.9497 2.25 12.939C2.25 12.4324 2.37566 11.9675 2.64046 11.5671C2.90249 11.1708 3.27041 10.8834 3.6847 10.6775C4.48967 10.2774 5.55715 10.1419 6.70322 10.1328C7.11742 10.1296 7.45585 10.4627 7.45913 10.8769Z" fill="black"/>
<path fill-rule="evenodd" clip-rule="evenodd" d="M16.5409 10.8769C16.5376 11.2911 16.8707 11.6295 17.2849 11.6328C18.3683 11.6414 19.1554 11.7761 19.6477 12.0207C19.882 12.1372 20.0233 12.2658 20.1084 12.3945C20.1889 12.5162 20.2474 12.6804 20.2499 12.9227C20.2375 13.1466 20.1672 13.2803 20.1035 13.3494C20.0475 13.4101 19.9553 13.4683 19.776 13.4683H16.8888C16.4746 13.4683 16.1388 13.8041 16.1388 14.2183C16.1388 14.6325 16.4746 14.9683 16.8888 14.9683H19.776C20.3399 14.9683 20.8437 14.7592 21.206 14.3664C21.5591 13.9836 21.7275 13.4823 21.7493 12.971C21.7498 12.9604 21.75 12.9497 21.75 12.939C21.75 12.4324 21.6243 11.9675 21.3595 11.5671C21.0975 11.1708 20.7296 10.8834 20.3153 10.6775C19.5103 10.2774 18.4429 10.1419 17.2968 10.1328C16.8826 10.1296 16.5441 10.4627 16.5409 10.8769Z" fill="black"/>
<path fill-rule="evenodd" clip-rule="evenodd" d="M6.44467 5.1875C5.78811 5.1875 5.25586 5.71975 5.25586 6.37631C5.25586 7.03287 5.78811 7.56511 6.44467 7.56511C7.10123 7.56511 7.63347 7.03287 7.63347 6.37631C7.63347 5.71975 7.10123 5.1875 6.44467 5.1875ZM3.75586 6.37631C3.75586 4.89132 4.95968 3.6875 6.44467 3.6875C7.92965 3.6875 9.13347 4.89132 9.13347 6.37631C9.13347 7.86129 7.92965 9.06511 6.44467 9.06511C4.95968 9.06511 3.75586 7.86129 3.75586 6.37631Z" fill="black"/>
<path fill-rule="evenodd" clip-rule="evenodd" d="M17.5553 5.1875C18.2119 5.1875 18.7441 5.71975 18.7441 6.37631C18.7441 7.03287 18.2119 7.56511 17.5553 7.56511C16.8988 7.56511 16.3665 7.03287 16.3665 6.37631C16.3665 5.71975 16.8988 5.1875 17.5553 5.1875ZM20.2441 6.37631C20.2441 4.89132 19.0403 3.6875 17.5553 3.6875C16.0703 3.6875 14.8665 4.89132 14.8665 6.37631C14.8665 7.86129 16.0703 9.06511 17.5553 9.06511C19.0403 9.06511 20.2441 7.86129 20.2441 6.37631Z" fill="black"/>
</svg>
