<svg width="24" height="24" viewBox="0 0 24 24" fill="none" xmlns="http://www.w3.org/2000/svg">
<path d="M21 12C21 16.968 16.968 21 12 21C7.032 21 3 16.968 3 12C3 7.032 7.032 3 12 3" stroke="black" stroke-width="1.5" stroke-linecap="round" stroke-linejoin="round"/>
<path d="M13.8133 9.13794H11.2018C10.4244 9.13794 9.79492 9.76745 9.79492 10.5439C9.79492 11.3213 10.4244 11.9508 11.2018 11.9508H12.8092C13.5856 11.9508 14.2151 12.5803 14.2151 13.3568C14.2151 14.1342 13.5856 14.7637 12.8092 14.7637H10.1968" stroke="black" stroke-width="1.5" stroke-linecap="round" stroke-linejoin="round"/>
<path d="M12.0059 14.7629V15.9441M12.0059 7.9502V9.14111" stroke="black" stroke-width="1.5" stroke-linecap="round" stroke-linejoin="round"/>
<path d="M18.5784 5.42119L20.2899 7.13362M18.5784 5.42119L16.8672 3.70898M18.5784 5.42119L16.8672 7.13362M18.5784 5.42119L20.2899 3.70898" stroke="black" stroke-width="1.5" stroke-linecap="round" stroke-linejoin="round"/>
</svg>
