<svg width="24" height="24" viewBox="0 0 24 24" fill="none" xmlns="http://www.w3.org/2000/svg">
<path d="M7.46796 6.45117H16.5311C19.2853 6.45117 21 8.39539 21 11.1477V15.7534C21 18.5047 19.2853 20.4499 16.5301 20.4499H7.46796C4.71374 20.4499 3 18.5047 3 15.7534V11.1477C3 8.39539 4.72139 6.45117 7.46796 6.45117Z" stroke="black" stroke-width="1.5" stroke-linecap="round" stroke-linejoin="round"/>
<path d="M16.0203 6.39677V5.64605C16.0203 4.41717 15.2543 3.54883 14.0245 3.54883H9.97632C8.74936 3.54883 7.98047 4.41717 7.98047 5.64605V6.39677" stroke="black" stroke-width="1.5" stroke-linecap="round" stroke-linejoin="round"/>
<path fill-rule="evenodd" clip-rule="evenodd" d="M17.4333 14.9178C17.4333 13.8429 16.5621 12.9727 15.4881 12.9727C14.4142 12.9727 13.543 13.8429 13.543 14.9178C13.543 15.9918 14.4142 16.863 15.4881 16.863C16.5621 16.863 17.4333 15.9918 17.4333 14.9178Z" stroke="black" stroke-width="1.5" stroke-linecap="round" stroke-linejoin="round"/>
<path d="M6.80859 10.248H17.1943" stroke="black" stroke-width="1.5" stroke-linecap="round" stroke-linejoin="round"/>
<path fill-rule="evenodd" clip-rule="evenodd" d="M8.51353 12.9727C7.43957 12.9727 6.56836 13.8439 6.56836 14.9178C6.56836 15.9918 7.43957 16.863 8.51353 16.863C9.58749 16.863 10.4587 15.9918 10.4587 14.9178C10.4587 13.8439 9.58749 12.9727 8.51353 12.9727Z" stroke="black" stroke-width="1.5" stroke-linecap="round" stroke-linejoin="round"/>
</svg>