<svg width="24" height="24" viewBox="0 0 24 24" fill="none" xmlns="http://www.w3.org/2000/svg">
<path d="M8.73934 21H15.2612C17.2957 21 18.9448 19.3508 18.9448 17.3163V6.68465C18.9448 4.64919 17.2957 3 15.2612 3H8.73934C6.70485 3 5.05469 4.64919 5.05469 6.68465V17.3163C5.05469 19.3508 6.70485 21 8.73934 21Z" stroke="black" stroke-width="1.5" stroke-linecap="round" stroke-linejoin="round"/>
<path fill-rule="evenodd" clip-rule="evenodd" d="M11.9995 10.3945C13.9306 10.3945 15.4971 11.9601 15.4971 13.8921C15.4971 15.8232 13.9306 17.3887 11.9995 17.3887C10.0684 17.3887 8.50195 15.8232 8.50195 13.8921C8.50195 11.9601 10.0684 10.3945 11.9995 10.3945Z" stroke="black" stroke-width="1.5" stroke-linecap="round" stroke-linejoin="round"/>
<path d="M13.4027 6.61133H10.5957" stroke="black" stroke-width="1.5" stroke-linecap="round" stroke-linejoin="round"/>
</svg>