<svg width="24" height="24" viewBox="0 0 24 24" fill="none" xmlns="http://www.w3.org/2000/svg">
<path d="M15.9121 3V6.22326" stroke="black" stroke-width="1.5" stroke-linecap="round" stroke-linejoin="round"/>
<path d="M8.08735 3V6.22326" stroke="black" stroke-width="1.5" stroke-linecap="round" stroke-linejoin="round"/>
<path fill-rule="evenodd" clip-rule="evenodd" d="M16.4857 4.48657L7.52178 4.48746C4.88872 4.48746 3.24512 5.95372 3.24512 8.6488V16.7622C3.24512 19.4999 4.88872 21.0001 7.52178 21.0001L16.478 20.9992C19.1188 20.9992 20.7546 19.5252 20.7546 16.8291V8.64791C20.7624 5.95283 19.1265 4.48657 16.4857 4.48657Z" stroke="black" stroke-width="1.5" stroke-linecap="round" stroke-linejoin="round"/>
<g opacity="0.4">
<path fill-rule="evenodd" clip-rule="evenodd" d="M14.4242 9.48242C15.0938 9.48242 15.6364 10.025 15.6364 10.6947C15.6364 11.3644 15.0938 11.9069 14.4242 11.9069C13.7545 11.9069 13.2119 11.3644 13.2119 10.6947C13.2119 10.025 13.7545 9.48242 14.4242 9.48242Z" stroke="black" stroke-width="1.5" stroke-linecap="round" stroke-linejoin="round"/>
<path fill-rule="evenodd" clip-rule="evenodd" d="M9.57553 12.3108C10.2452 12.3108 10.7878 12.8534 10.7878 13.523C10.7878 14.1927 10.2452 14.7353 9.57553 14.7353C8.90584 14.7353 8.36328 14.1927 8.36328 13.523C8.36328 12.8534 8.90584 12.3108 9.57553 12.3108Z" stroke="black" stroke-width="1.5" stroke-linecap="round" stroke-linejoin="round"/>
<path fill-rule="evenodd" clip-rule="evenodd" d="M14.4242 15.1396C15.0938 15.1396 15.6364 15.6822 15.6364 16.3519C15.6364 17.0211 15.0938 17.5641 14.4242 17.5641C13.7545 17.5641 13.2119 17.0211 13.2119 16.3519C13.2119 15.6822 13.7545 15.1396 14.4242 15.1396Z" stroke="black" stroke-width="1.5" stroke-linecap="round" stroke-linejoin="round"/>
<path d="M10.6218 14.1331L13.3817 15.7416M13.3774 11.3047L10.6213 12.9127" stroke="black" stroke-width="1.5" stroke-linecap="round" stroke-linejoin="round"/>
</g>
</svg>
