<svg width="24" height="24" viewBox="0 0 24 24" fill="none" xmlns="http://www.w3.org/2000/svg">
<path d="M3.72632 9.46318H19.4246" stroke="black" stroke-width="1.5" stroke-linecap="round" stroke-linejoin="round"/>
<path d="M15.1039 3V5.87229" stroke="black" stroke-width="1.5" stroke-linecap="round" stroke-linejoin="round"/>
<path d="M8.05168 3V5.87229" stroke="black" stroke-width="1.5" stroke-linecap="round" stroke-linejoin="round"/>
<path d="M19.4288 11.3639V8.43034C19.4365 5.80617 17.8437 4.37781 15.2731 4.37781H7.88318C5.31933 4.37781 3.71875 5.80617 3.71875 8.43034V16.3291C3.71875 18.9942 5.31933 20.4556 7.88318 20.4556H10.0335" stroke="black" stroke-width="1.5" stroke-linecap="round" stroke-linejoin="round"/>
<path opacity="0.4" d="M7.66602 12.9414H7.67602" stroke="black" stroke-width="1.5" stroke-linecap="round" stroke-linejoin="round"/>
<path opacity="0.4" d="M7.66602 16.418H7.67602" stroke="black" stroke-width="1.5" stroke-linecap="round" stroke-linejoin="round"/>
<path opacity="0.4" d="M11.3337 12.9414H11.3437" stroke="black" stroke-width="1.5" stroke-linecap="round" stroke-linejoin="round"/>
<g opacity="0.4">
<path fill-rule="evenodd" clip-rule="evenodd" d="M20.2822 17.1382C20.2822 19.271 18.5532 21 16.4194 21C14.2866 21 12.5576 19.271 12.5576 17.1382C12.5576 15.0054 14.2866 13.2754 16.4194 13.2754C18.5532 13.2754 20.2822 15.0054 20.2822 17.1382Z" stroke="black" stroke-width="1.5" stroke-linecap="round" stroke-linejoin="round"/>
<path d="M13.7397 14.4575L19.1001 19.8177" stroke="black" stroke-width="1.5" stroke-linecap="round" stroke-linejoin="round"/>
</g>
</svg>
