<svg width="24" height="24" viewBox="0 0 24 24" fill="none" xmlns="http://www.w3.org/2000/svg">
<path d="M15.6388 3V5.96174" stroke="black" stroke-width="1.5" stroke-linecap="round" stroke-linejoin="round"/>
<path d="M8.36808 3V5.96174" stroke="black" stroke-width="1.5" stroke-linecap="round" stroke-linejoin="round"/>
<path fill-rule="evenodd" clip-rule="evenodd" d="M15.8145 4.42139H8.19413C5.55056 4.42139 3.90039 5.8935 3.90039 8.59935V16.7451C3.90039 19.4938 5.55056 20.9999 8.19413 20.9999H15.8067C18.4581 20.9999 20.1004 19.52 20.1004 16.8132V8.59935C20.1082 5.8935 18.4658 4.42139 15.8145 4.42139Z" stroke="black" stroke-width="1.5" stroke-linecap="round" stroke-linejoin="round"/>
<path opacity="0.4" d="M7.67749 12.3917C7.67749 11.564 8.34935 10.8921 9.17707 10.8921C10.0048 10.8921 10.6766 11.564 10.6766 12.3917C10.6766 14.2659 7.67852 14.2659 7.67852 16.4848H10.6766" stroke="black" stroke-width="1.5" stroke-linecap="round" stroke-linejoin="round"/>
<path opacity="0.4" d="M13.2854 15.7309C13.5792 16.178 14.0704 16.4768 14.6479 16.4768C15.5723 16.4768 16.3223 15.7278 16.3223 14.8035C16.3223 14.0565 15.7157 13.4499 14.9688 13.4499H13.4789L13.7496 11.0618H16.0907" stroke="black" stroke-width="1.5" stroke-linecap="round" stroke-linejoin="round"/>
</svg>
