<svg width="24" height="24" viewBox="0 0 24 24" fill="none" xmlns="http://www.w3.org/2000/svg">
<path d="M3.98364 17.363H20.0251" stroke="black" stroke-width="1.5" stroke-linecap="round" stroke-linejoin="round"/>
<path d="M15.6351 11.2456V13.7456" stroke="black" stroke-width="1.5" stroke-linecap="round" stroke-linejoin="round"/>
<path d="M8.36413 11.2456V13.7456" stroke="black" stroke-width="1.5" stroke-linecap="round" stroke-linejoin="round"/>
<path d="M3.90015 21.0386L3.89966 16.845C3.89966 14.1391 5.54983 12.667 8.1934 12.667H15.8138C18.4651 12.667 20.1075 14.1391 20.0997 16.845L20.1002 21.0386" stroke="black" stroke-width="1.5" stroke-linecap="round" stroke-linejoin="round"/>
<path d="M8.35962 20.4001H8.36962" stroke="black" stroke-width="1.5" stroke-linecap="round" stroke-linejoin="round"/>
<path d="M11.9949 20.4001H12.0049" stroke="black" stroke-width="1.5" stroke-linecap="round" stroke-linejoin="round"/>
<path d="M15.6301 20.4001H15.6401" stroke="black" stroke-width="1.5" stroke-linecap="round" stroke-linejoin="round"/>
<g opacity="0.4">
<path d="M5.44393 2.96143H4.34186C3.67588 2.96143 3.13599 3.50131 3.13599 4.1673C3.13599 4.83329 3.67588 5.37318 4.34186 5.37318H4.67779C5.34378 5.37318 5.88367 5.91307 5.88367 6.57906C5.88367 7.24505 5.34378 7.78494 4.67779 7.78494H3.44587" stroke="black" stroke-width="1.5" stroke-linecap="round" stroke-linejoin="round"/>
<path d="M13.0491 4.18549V6.53236C13.0491 7.29111 13.6642 7.78494 14.4229 7.78494C15.1817 7.78494 15.7968 7.29111 15.7968 6.53236V4.18549C15.7968 3.42674 15.1817 2.96143 14.4229 2.96143C13.6642 2.96143 13.0491 3.42674 13.0491 4.18549Z" stroke="black" stroke-width="1.5" stroke-linecap="round" stroke-linejoin="round"/>
<path d="M7.98242 4.18549V6.53236C7.98242 7.29111 8.59751 7.78494 9.35626 7.78494C10.115 7.78494 10.7301 7.29111 10.7301 6.53236V4.18549C10.7301 3.42674 10.115 2.96143 9.35626 2.96143C8.59751 2.96143 7.98242 3.42674 7.98242 4.18549Z" stroke="black" stroke-width="1.5" stroke-linecap="round" stroke-linejoin="round"/>
<path d="M18.1162 7.78494V2.96143L20.864 7.78494V2.96143" stroke="black" stroke-width="1.5" stroke-linecap="round" stroke-linejoin="round"/>
</g>
</svg>
