<svg width="24" height="24" viewBox="0 0 24 24" fill="none" xmlns="http://www.w3.org/2000/svg">
<path d="M15.6408 3V5.96174" stroke="black" stroke-width="1.5" stroke-linecap="round" stroke-linejoin="round"/>
<path d="M8.36808 3V5.96174" stroke="black" stroke-width="1.5" stroke-linecap="round" stroke-linejoin="round"/>
<path fill-rule="evenodd" clip-rule="evenodd" d="M15.8145 4.42139H8.19413C5.55056 4.42139 3.90039 5.8935 3.90039 8.59935V16.7451C3.90039 19.4938 5.55056 20.9999 8.19413 20.9999H15.8067C18.4581 20.9999 20.1004 19.52 20.1004 16.8132V8.59935C20.1082 5.8935 18.4658 4.42139 15.8145 4.42139Z" stroke="black" stroke-width="1.5" stroke-linecap="round" stroke-linejoin="round"/>
<g opacity="0.4">
<path d="M14.6301 14.7629C14.0695 15.7335 13.0197 16.3842 11.8192 16.3842C10.0287 16.3842 8.92798 14.5828 8.92798 14.5828" stroke="black" stroke-width="1.5" stroke-linecap="round" stroke-linejoin="round"/>
<path d="M8.99976 11.5249C9.55935 10.5445 10.6103 9.8938 11.8205 9.8938C13.9916 9.8938 15.0718 11.6951 15.0718 11.6951" stroke="black" stroke-width="1.5" stroke-linecap="round" stroke-linejoin="round"/>
<path d="M15.071 9.68262V11.6819H13.0706" stroke="black" stroke-width="1.5" stroke-linecap="round" stroke-linejoin="round"/>
<path d="M10.9284 14.5742H8.92798V16.4348" stroke="black" stroke-width="1.5" stroke-linecap="round" stroke-linejoin="round"/>
</g>
</svg>
