<svg width="24" height="24" viewBox="0 0 24 24" fill="none" xmlns="http://www.w3.org/2000/svg">
<path opacity="0.4" d="M20.0171 9.66447H3.97563" stroke="black" stroke-width="1.5" stroke-linecap="round" stroke-linejoin="round"/>
<path d="M8.36019 3V5.96174" stroke="black" stroke-width="1.5" stroke-linecap="round" stroke-linejoin="round"/>
<path d="M15.6314 3V5.96174" stroke="black" stroke-width="1.5" stroke-linecap="round" stroke-linejoin="round"/>
<path d="M13.626 20.9999H15.8068C18.4504 20.9999 20.1006 19.4938 20.1006 16.7451V8.59935C20.1006 5.8935 18.4504 4.42139 15.8068 4.42139H8.18649C5.53513 4.42139 3.89275 5.8935 3.90053 8.59935V11.8314" stroke="black" stroke-width="1.5" stroke-linecap="round" stroke-linejoin="round"/>
<path opacity="0.4" d="M16.335 12.9414H16.325" stroke="black" stroke-width="1.5" stroke-linecap="round" stroke-linejoin="round"/>
<path opacity="0.4" d="M16.335 16.418H16.325" stroke="black" stroke-width="1.5" stroke-linecap="round" stroke-linejoin="round"/>
<path d="M5.36701 19.5327C6.59355 20.7593 8.18807 21.1534 8.92846 20.413C9.45131 19.8901 9.40839 18.9413 8.90608 17.997M5.36701 19.5327C4.14047 18.3062 3.74636 16.7117 4.48675 15.9713C5.0096 15.4484 5.9584 15.4914 6.90276 15.9937M5.36701 19.5327L3.90039 20.9999M10.9634 15.8922L8.89588 17.9598C8.56987 18.2858 7.86776 18.1122 7.32767 17.5722C6.78759 17.0321 6.61406 16.33 6.94007 16.004L9.00763 13.9364M12.0804 15.6884C11.6022 16.1666 10.5724 15.9121 9.78031 15.12C8.98819 14.3278 8.73367 13.2981 9.21182 12.8199C9.68998 12.3418 10.7197 12.5963 11.5119 13.3884C12.304 14.1805 12.5585 15.2103 12.0804 15.6884Z" stroke="black" stroke-width="1.5" stroke-linecap="round" stroke-linejoin="round"/>
</svg>
