<svg width="24" height="24" viewBox="0 0 24 24" fill="none" xmlns="http://www.w3.org/2000/svg">
<path d="M3.98389 9.66447H20.0253" stroke="black" stroke-width="1.5" stroke-linecap="round" stroke-linejoin="round"/>
<path d="M15.6408 3V5.96174" stroke="black" stroke-width="1.5" stroke-linecap="round" stroke-linejoin="round"/>
<path d="M8.37003 3V5.96174" stroke="black" stroke-width="1.5" stroke-linecap="round" stroke-linejoin="round"/>
<path fill-rule="evenodd" clip-rule="evenodd" d="M15.8145 4.42139H8.19413C5.55056 4.42139 3.90039 5.8935 3.90039 8.59935V16.7451C3.90039 19.4938 5.55056 20.9999 8.19413 20.9999H15.8067C18.4581 20.9999 20.1004 19.52 20.1004 16.8132V8.59935C20.1082 5.8935 18.4658 4.42139 15.8145 4.42139Z" stroke="black" stroke-width="1.5" stroke-linecap="round" stroke-linejoin="round"/>
<g opacity="0.4">
<path fill-rule="evenodd" clip-rule="evenodd" d="M14.8191 15.1497C14.8191 16.7061 13.5574 17.9678 12.0003 17.9678C10.4439 17.9678 9.18213 16.7061 9.18213 15.1497C9.18213 13.5933 10.4439 12.3308 12.0003 12.3308C13.5574 12.3308 14.8191 13.5933 14.8191 15.1497Z" stroke="black" stroke-width="1.5" stroke-linecap="round" stroke-linejoin="round"/>
<path d="M10.0444 13.1936L13.9561 17.1051" stroke="black" stroke-width="1.5" stroke-linecap="round" stroke-linejoin="round"/>
</g>
</svg>
