<svg width="24" height="24" viewBox="0 0 24 24" fill="none" xmlns="http://www.w3.org/2000/svg">
<g opacity="0.4">
<path d="M13.8219 11.319L13.4677 9.75044C13.4019 9.50535 13.1788 9.33496 12.9245 9.33496H11.0677C10.8121 9.33409 10.5881 9.50448 10.5219 9.75044L10.1768 11.319" stroke="black" stroke-width="1.5" stroke-linecap="round" stroke-linejoin="round"/>
<path d="M15.5733 11.3188H8.42725" stroke="black" stroke-width="1.5" stroke-linecap="round" stroke-linejoin="round"/>
<path d="M14.9904 11.3184L14.7258 15.9242C14.6711 16.7189 14.0474 17.3346 13.2958 17.3346H10.7048C9.95363 17.3346 9.32945 16.7189 9.27478 15.9237L9.01025 11.3184" stroke="black" stroke-width="1.5" stroke-linecap="round" stroke-linejoin="round"/>
</g>
<path d="M15.6403 3V5.96158" stroke="black" stroke-width="1.5" stroke-linecap="round" stroke-linejoin="round"/>
<path d="M8.36781 3V5.96158" stroke="black" stroke-width="1.5" stroke-linecap="round" stroke-linejoin="round"/>
<path fill-rule="evenodd" clip-rule="evenodd" d="M15.8138 4.42139H8.1939C5.55047 4.42139 3.90039 5.89439 3.90039 8.60009V16.7444C3.90039 19.4929 5.55047 21 8.1939 21H15.8061C18.4573 21 20.0996 19.5192 20.0996 16.8125V8.60009C20.1074 5.89439 18.4651 4.42139 15.8138 4.42139Z" stroke="black" stroke-width="1.5" stroke-linecap="round" stroke-linejoin="round"/>
</svg>
