<svg width="24" height="24" viewBox="0 0 24 24" fill="none" xmlns="http://www.w3.org/2000/svg">
<path d="M15.764 3.08398V5.02339" stroke="black" stroke-width="1.5" stroke-linecap="round" stroke-linejoin="round"/>
<path d="M8.23472 3.08398V5.02339" stroke="black" stroke-width="1.5" stroke-linecap="round" stroke-linejoin="round"/>
<path fill-rule="evenodd" clip-rule="evenodd" d="M16.3168 5.02539L7.69069 5.02625C5.15686 5.02625 3.5752 6.43725 3.5752 9.03077V16.8384C3.5752 19.4729 5.15686 20.9166 7.69069 20.9166L16.3094 20.9157C18.8507 20.9157 20.4249 19.4972 20.4249 16.9028V9.02991C20.4323 6.43639 18.8581 5.02539 16.3168 5.02539Z" stroke="black" stroke-width="1.5" stroke-linecap="round" stroke-linejoin="round"/>
<g opacity="0.4">
<path d="M9.09907 15.7388L11.0671 10.3839H7.68985" stroke="black" stroke-width="1.5" stroke-linecap="round" stroke-linejoin="round"/>
<path d="M15.8787 10.0837V15.773M15.5945 14.3186C15.5945 15.1689 14.9052 15.8582 14.0549 15.8582C13.2047 15.8582 12.5154 15.1689 12.5154 14.3186C12.5154 13.4683 13.2047 12.7791 14.0549 12.7791C14.9052 12.7791 15.5945 13.4683 15.5945 14.3186Z" stroke="black" stroke-width="1.5" stroke-linecap="round" stroke-linejoin="round"/>
</g>
</svg>
