<svg width="24" height="24" viewBox="0 0 24 24" fill="none" xmlns="http://www.w3.org/2000/svg">
<path d="M3.98389 9.66447H20.0253" stroke="black" stroke-width="1.5" stroke-linecap="round" stroke-linejoin="round"/>
<path d="M15.6408 3V5.96174" stroke="black" stroke-width="1.5" stroke-linecap="round" stroke-linejoin="round"/>
<path d="M8.37003 3V5.96174" stroke="black" stroke-width="1.5" stroke-linecap="round" stroke-linejoin="round"/>
<path fill-rule="evenodd" clip-rule="evenodd" d="M15.8145 4.42139H8.19413C5.55056 4.42139 3.90039 5.8935 3.90039 8.59935V16.7451C3.90039 19.4938 5.55056 20.9999 8.19413 20.9999H15.8067C18.4581 20.9999 20.1004 19.52 20.1004 16.8132V8.59935C20.1082 5.8935 18.4658 4.42139 15.8145 4.42139Z" stroke="black" stroke-width="1.5" stroke-linecap="round" stroke-linejoin="round"/>
<path opacity="0.4" fill-rule="evenodd" clip-rule="evenodd" d="M9.22397 15.0309C8.89802 14.0112 9.27943 12.8456 10.3487 12.5012C10.9121 12.3212 11.528 12.4243 12.0008 12.7794C12.4747 12.4282 13.0877 12.3241 13.65 12.5012C14.7203 12.8456 15.1046 14.0112 14.7777 15.0309C14.2698 16.646 12.0008 17.8905 12.0008 17.8905C12.0008 17.8905 9.74938 16.6645 9.22397 15.0309Z" stroke="black" stroke-width="1.5" stroke-linecap="round" stroke-linejoin="round"/>
</svg>
