<svg width="24" height="24" viewBox="0 0 24 24" fill="none" xmlns="http://www.w3.org/2000/svg">
<path d="M3.98389 9.66455H20.0253" stroke="black" stroke-width="1.5" stroke-linecap="round" stroke-linejoin="round"/>
<path d="M15.6408 3V5.96174" stroke="black" stroke-width="1.5" stroke-linecap="round" stroke-linejoin="round"/>
<path d="M8.37003 3V5.96174" stroke="black" stroke-width="1.5" stroke-linecap="round" stroke-linejoin="round"/>
<path fill-rule="evenodd" clip-rule="evenodd" d="M15.8145 4.42139H8.19413C5.55056 4.42139 3.90039 5.8935 3.90039 8.59935V16.7451C3.90039 19.4938 5.55056 20.9999 8.19413 20.9999H15.8067C18.4581 20.9999 20.1004 19.52 20.1004 16.8132V8.59935C20.1082 5.8935 18.4658 4.42139 15.8145 4.42139Z" stroke="black" stroke-width="1.5" stroke-linecap="round" stroke-linejoin="round"/>
<g opacity="0.4">
<path d="M11.9637 14.9C11.9637 13.5497 12.9012 12.4561 14.0575 12.4561C14.5556 12.4561 14.9587 12.8591 14.9587 13.3573C14.9587 14.4441 13.6175 15.3257 11.963 15.3257C10.3077 15.3257 8.96655 14.4441 8.96655 13.3573C8.96655 12.8591 9.37037 12.4561 9.86849 12.4561C11.024 12.4561 11.9615 13.5497 11.9615 14.9" stroke="black" stroke-width="1.5" stroke-linecap="round" stroke-linejoin="round"/>
<path d="M9.73901 17.7694L11.963 15.3254L14.1861 17.7694" stroke="black" stroke-width="1.5" stroke-linecap="round" stroke-linejoin="round"/>
<path d="M20.0255 15.3589H3.90015" stroke="black" stroke-width="1.5" stroke-linecap="round" stroke-linejoin="round"/>
<path d="M11.9629 21.0153L11.9629 15.3589" stroke="black" stroke-width="1.5" stroke-linecap="round" stroke-linejoin="round"/>
</g>
</svg>
