<svg width="24" height="24" viewBox="0 0 24 24" fill="none" xmlns="http://www.w3.org/2000/svg">
<path opacity="0.4" d="M2.9436 7.91261V18.0699C2.9436 20.153 4.21401 21 6.24921 21H16.5913C18.6325 21 19.8969 20.153 19.8909 18.0699V17.6121" stroke="black" stroke-width="1.5" stroke-linecap="round" stroke-linejoin="round"/>
<path fill-rule="evenodd" clip-rule="evenodd" d="M17.9594 17.9329H7.36328C5.7288 17.9329 4.58759 17.2019 4.20156 15.835C3.53859 13.4875 3.00117 8.78667 3.00117 8.78667C2.65352 6.19498 3.89616 5.16968 6.30491 5.16968H16.641C18.3535 5.16968 19.5203 5.83988 19.8503 7.46039C19.8503 7.46039 20.6037 12.3184 21.005 14.7165C21.3399 16.7176 20.0006 17.9329 17.9594 17.9329Z" stroke="black" stroke-width="1.5" stroke-linecap="round" stroke-linejoin="round"/>
<path d="M7.47272 7.1316C7.67461 7.37516 7.80755 7.3375 8.072 7.3375C8.76169 7.3375 9.32079 6.36654 9.32079 5.1688C9.32079 3.97106 8.76169 3.0001 8.072 3.0001C7.70396 3.0001 7.48856 3.04317 7.26001 3.48308" stroke="black" stroke-width="1.5" stroke-linecap="round" stroke-linejoin="round"/>
<path d="M13.7264 7.1316C13.9283 7.37516 14.0612 7.3375 14.3257 7.3375C15.0154 7.3375 15.5745 6.36654 15.5745 5.1688C15.5745 3.97106 15.0154 3.0001 14.3257 3.0001C13.9576 3.0001 13.7422 3.04317 13.5137 3.48308" stroke="black" stroke-width="1.5" stroke-linecap="round" stroke-linejoin="round"/>
<path opacity="0.4" d="M2.94385 10.283L19.8911 10.283" stroke="black" stroke-width="1.5" stroke-linecap="round" stroke-linejoin="round"/>
</svg>
