<svg width="24" height="24" viewBox="0 0 24 24" fill="none" xmlns="http://www.w3.org/2000/svg">
<g opacity="0.4">
<path fill-rule="evenodd" clip-rule="evenodd" d="M17.5591 3.49854H16.4491C16.0351 3.49854 15.6991 3.83454 15.6991 4.24854C15.6991 4.66254 16.0351 4.99854 16.4491 4.99854H17.5591C19.0431 4.99854 20.2501 6.20554 20.2501 7.68854V9.08154C20.2501 9.49554 20.5861 9.83154 21.0001 9.83154C21.4141 9.83154 21.7501 9.49554 21.7501 9.08154V7.68854C21.7501 5.37754 19.8701 3.49854 17.5591 3.49854Z" fill="black"/>
<path fill-rule="evenodd" clip-rule="evenodd" d="M20.999 14.1685C20.585 14.1685 20.249 14.5045 20.249 14.9185V16.3115C20.249 17.7945 19.042 19.0015 17.559 19.0015H16.42C16.006 19.0015 15.67 19.3375 15.67 19.7515C15.67 20.1655 16.006 20.5015 16.42 20.5015H17.559C19.87 20.5015 21.749 18.6225 21.749 16.3115V14.9185C21.749 14.5045 21.413 14.1685 20.999 14.1685Z" fill="black"/>
<path fill-rule="evenodd" clip-rule="evenodd" d="M3 9.83154C3.414 9.83154 3.75 9.49554 3.75 9.08154V7.68854C3.75 6.20554 4.957 4.99854 6.44 4.99854H7.55C7.964 4.99854 8.3 4.66254 8.3 4.24854C8.3 3.83454 7.964 3.49854 7.55 3.49854H6.44C4.129 3.49854 2.25 5.37754 2.25 7.68854V9.08154C2.25 9.49554 2.586 9.83154 3 9.83154Z" fill="black"/>
<path fill-rule="evenodd" clip-rule="evenodd" d="M7.57912 19.0015H6.44012C4.95612 19.0015 3.75012 17.7945 3.75012 16.3115V14.9185C3.75012 14.5045 3.41412 14.1685 3.00012 14.1685C2.58612 14.1685 2.25012 14.5045 2.25012 14.9185V16.3115C2.25012 18.6225 4.12912 20.5015 6.44012 20.5015H7.57912C7.99312 20.5015 8.32912 20.1655 8.32912 19.7515C8.32912 19.3375 7.99312 19.0015 7.57912 19.0015Z" fill="black"/>
</g>
<path fill-rule="evenodd" clip-rule="evenodd" d="M6.03711 8.23193V15.7629C6.03711 16.3149 6.48511 16.7629 7.03711 16.7629C7.58911 16.7629 8.03711 16.3149 8.03711 15.7629V8.23193C8.03711 7.67993 7.58911 7.23193 7.03711 7.23193C6.48511 7.23193 6.03711 7.67993 6.03711 8.23193Z" fill="black"/>
<path fill-rule="evenodd" clip-rule="evenodd" d="M13.6411 7.23193C13.0891 7.23193 12.6411 7.67993 12.6411 8.23193V15.7629C12.6411 16.3149 13.0891 16.7629 13.6411 16.7629C14.1931 16.7629 14.6411 16.3149 14.6411 15.7629V8.23193C14.6411 7.67993 14.1931 7.23193 13.6411 7.23193Z" fill="black"/>
<path fill-rule="evenodd" clip-rule="evenodd" d="M16.9429 12.8262C17.4949 12.8262 17.9429 12.3782 17.9429 11.8262V8.23224C17.9429 7.68024 17.4949 7.23224 16.9429 7.23224C16.3909 7.23224 15.9429 7.68024 15.9429 8.23224V11.8262C15.9429 12.3782 16.3909 12.8262 16.9429 12.8262Z" fill="black"/>
<path fill-rule="evenodd" clip-rule="evenodd" d="M15.9429 15.6729C15.9429 16.2249 16.3909 16.6729 16.9429 16.6729C17.4949 16.6729 17.9429 16.2249 17.9429 15.6729V14.7259C17.9429 14.1739 17.4949 13.7259 16.9429 13.7259C16.3909 13.7259 15.9429 14.1739 15.9429 14.7259V15.6729Z" fill="black"/>
<path fill-rule="evenodd" clip-rule="evenodd" d="M10.3379 11.0782C9.78589 11.0782 9.33789 11.5262 9.33789 12.0782V15.6722C9.33789 16.2242 9.78589 16.6722 10.3379 16.6722C10.8899 16.6722 11.3379 16.2242 11.3379 15.6722V12.0782C11.3379 11.5262 10.8899 11.0782 10.3379 11.0782Z" fill="black"/>
<path fill-rule="evenodd" clip-rule="evenodd" d="M10.3379 7.23294C9.78589 7.23294 9.33789 7.68094 9.33789 8.23294V9.18094C9.33789 9.73294 9.78589 10.1809 10.3379 10.1809C10.8899 10.1809 11.3379 9.73294 11.3379 9.18094V8.23294C11.3379 7.68094 10.8899 7.23294 10.3379 7.23294Z" fill="black"/>
</svg>