<svg width="25" height="24" viewBox="0 0 25 24" fill="none" xmlns="http://www.w3.org/2000/svg">
<path opacity="0.4" fill-rule="evenodd" clip-rule="evenodd" d="M7.96851 17.8217C7.96851 18.8437 7.13651 19.6757 6.11451 19.6757C5.61451 19.6757 5.14751 19.4837 4.79851 19.1357C4.44451 18.7827 4.24951 18.3157 4.24951 17.8217V10.5737C4.24951 10.4257 4.31251 10.2987 4.41751 10.2347C4.52651 10.1677 4.61251 10.2107 4.63451 10.2227L5.28751 10.5657C5.87251 10.8727 6.56151 10.8957 7.18651 10.6237L7.96851 10.2747V17.8217ZM21.3645 3.6577C20.8495 3.3407 20.2175 3.3167 19.6665 3.5987L19.0185 3.9417C18.8355 4.0377 18.6215 4.0427 18.4235 3.9567L16.5725 3.1327C15.6265 2.7217 14.5875 2.7227 13.6395 3.1357L11.7995 3.9537C11.5985 4.0417 11.3855 4.0387 11.2045 3.9437L10.5425 3.5937C10.0035 3.3177 9.37451 3.3427 8.85651 3.6597C8.30051 3.9997 7.96851 4.6047 7.96851 5.2777V8.6607C7.91951 8.6727 7.86951 8.6747 7.82151 8.6977L6.58151 9.2517C6.37851 9.3387 6.16951 9.3347 5.98651 9.2387L5.32551 8.8917C4.78651 8.6137 4.15351 8.6387 3.63551 8.9547C3.08151 9.2937 2.74951 9.8987 2.74951 10.5737V17.8217C2.74951 18.7167 3.10151 19.5607 3.73851 20.1977C4.37051 20.8287 5.21351 21.1757 6.11451 21.1757H18.2515C20.7125 21.1757 22.2405 19.4807 22.2405 16.7537L22.2505 5.2777C22.2505 4.6027 21.9195 3.9967 21.3645 3.6577Z" fill="black"/>
<path d="M16.5625 14.5815C16.5625 15.0975 16.9825 15.5165 17.4985 15.5165C18.0145 15.5165 18.4335 15.0975 18.4335 14.5815C18.4335 14.0655 18.0145 13.6465 17.4985 13.6465C16.9825 13.6465 16.5625 14.0655 16.5625 14.5815Z" fill="black"/>
<path d="M12.4565 15.1755C12.6035 15.3225 12.7955 15.3955 12.9875 15.3955C13.1795 15.3955 13.3715 15.3225 13.5175 15.1755L18.1435 10.5495C18.4355 10.2565 18.4355 9.78248 18.1435 9.48948C17.8505 9.19648 17.3755 9.19648 17.0825 9.48948L12.4565 14.1155C12.1645 14.4085 12.1645 14.8825 12.4565 15.1755Z" fill="black"/>
<path d="M13.9335 10.0815C13.9335 9.56548 13.5135 9.14648 12.9985 9.14648C12.4825 9.14648 12.0625 9.56548 12.0625 10.0815C12.0625 10.5975 12.4825 11.0165 12.9985 11.0165C13.5135 11.0165 13.9335 10.5975 13.9335 10.0815Z" fill="black"/>
</svg>