<svg width="24" height="24" viewBox="0 0 24 24" fill="none" xmlns="http://www.w3.org/2000/svg">
<path opacity="0.4" fill-rule="evenodd" clip-rule="evenodd" d="M18.7048 5.29227C18.3138 4.90127 17.6818 4.90127 17.2908 5.29227L5.29276 17.2903C4.90176 17.6813 4.90176 18.3133 5.29276 18.7043C5.48776 18.8993 5.74376 18.9973 5.99976 18.9973C6.25576 18.9973 6.51176 18.8993 6.70676 18.7043L18.7048 6.70627C19.0958 6.31527 19.0958 5.68327 18.7048 5.29227Z" fill="black"/>
<path fill-rule="evenodd" clip-rule="evenodd" d="M16.5723 17C16.3363 17 16.1443 16.808 16.1443 16.572C16.1443 16.336 16.3363 16.144 16.5723 16.144C16.8083 16.144 17.0003 16.336 17.0003 16.572C17.0003 16.808 16.8083 17 16.5723 17ZM16.5723 14.144C15.2333 14.144 14.1443 15.233 14.1443 16.572C14.1443 17.911 15.2333 19 16.5723 19C17.9113 19 19.0003 17.911 19.0003 16.572C19.0003 15.233 17.9113 14.144 16.5723 14.144Z" fill="black"/>
<path fill-rule="evenodd" clip-rule="evenodd" d="M7.42776 6.99902C7.66376 6.99902 7.85676 7.19102 7.85676 7.42702C7.85676 7.66402 7.66376 7.85602 7.42776 7.85602C7.19176 7.85602 6.99976 7.66402 6.99976 7.42702C6.99976 7.19102 7.19176 6.99902 7.42776 6.99902ZM7.42776 9.85602C8.76676 9.85602 9.85676 8.76702 9.85676 7.42702C9.85676 6.08802 8.76676 4.99902 7.42776 4.99902C6.08876 4.99902 4.99976 6.08802 4.99976 7.42702C4.99976 8.76702 6.08876 9.85602 7.42776 9.85602Z" fill="black"/>
</svg>