<svg width="24" height="24" viewBox="0 0 24 24" fill="none" xmlns="http://www.w3.org/2000/svg">
<path opacity="0.4" fill-rule="evenodd" clip-rule="evenodd" d="M20.488 6.6841C20.241 4.3441 18.28 2.5791 15.927 2.5791H8.06698C5.71098 2.5791 3.74998 4.3451 3.50498 6.6861L2.52798 15.9951C2.38298 17.3781 2.83198 18.7621 3.76198 19.7961C4.69098 20.8281 6.02198 21.4211 7.41198 21.4211H16.588C17.978 21.4211 19.309 20.8281 20.238 19.7951C21.168 18.7621 21.618 17.3751 21.472 15.9921L20.488 6.6841Z" fill="black"/>
<path d="M8.1521 7.70605C8.1521 9.82805 9.8781 11.5541 11.9991 11.5541C14.1211 11.5541 15.8471 9.82805 15.8471 7.70605C15.8471 7.29205 15.5111 6.95605 15.0971 6.95605C14.6831 6.95605 14.3471 7.29205 14.3471 7.70605C14.3471 9.00105 13.2941 10.0541 11.9991 10.0541C10.7051 10.0541 9.6521 9.00105 9.6521 7.70605C9.6521 7.29205 9.3161 6.95605 8.9021 6.95605C8.4881 6.95605 8.1521 7.29205 8.1521 7.70605Z" fill="black"/>
</svg>