<svg width="24" height="24" viewBox="0 0 24 24" fill="none" xmlns="http://www.w3.org/2000/svg">
<path opacity="0.4" fill-rule="evenodd" clip-rule="evenodd" d="M17.8448 12.2173C18.7268 12.2173 19.5594 12.4221 20.3045 12.7821C20.5145 12.8836 20.7708 12.7373 20.7708 12.504V7.34729C20.7708 4.04229 18.6478 1.82129 15.4878 1.82129H7.05275C3.89375 1.82129 1.77075 4.04229 1.77075 7.34729V15.2953C1.77075 18.6003 3.89375 20.8213 7.05275 20.8213H12.4149C12.6474 20.8213 12.7938 20.5666 12.6937 20.3567C12.3412 19.6179 12.1408 18.7936 12.1408 17.9213C12.1408 14.7763 14.6998 12.2173 17.8448 12.2173Z" fill="black"/>
<path d="M7.69092 7.3916C7.27692 7.3916 6.94092 7.7276 6.94092 8.1416C6.94092 10.5296 8.88292 12.4716 11.2699 12.4716C13.6579 12.4716 15.5999 10.5296 15.5999 8.1416C15.5999 7.7276 15.2639 7.3916 14.8499 7.3916C14.4359 7.3916 14.0999 7.7276 14.0999 8.1416C14.0999 9.7026 12.8309 10.9716 11.2699 10.9716C9.71092 10.9716 8.44092 9.7026 8.44092 8.1416C8.44092 7.7276 8.10492 7.3916 7.69092 7.3916Z" fill="black"/>
<path fill-rule="evenodd" clip-rule="evenodd" d="M19.4892 18.3789C19.7862 18.6759 19.7792 19.1499 19.4892 19.4399C19.1992 19.7289 18.7252 19.7369 18.4282 19.4399L17.9472 18.9589L17.4672 19.4399C17.1772 19.7289 16.7032 19.7369 16.4062 19.4399C16.1162 19.1499 16.1162 18.6689 16.4062 18.3789L16.8872 17.8979L16.4132 17.4239C16.1162 17.1269 16.1232 16.6539 16.4132 16.3639C16.7032 16.0739 17.1772 16.0669 17.4742 16.3639L17.9472 16.8369L18.4282 16.3569C18.7182 16.0669 19.1992 16.0669 19.4892 16.3569C19.7862 16.6539 19.7792 17.1269 19.4892 17.4169L19.0082 17.8979L19.4892 18.3789ZM20.9742 14.8719C19.3052 13.2029 16.5902 13.2029 14.9212 14.8719C13.2522 16.5399 13.2522 19.2559 14.9212 20.9239C16.5902 22.5929 19.3122 22.5999 20.9812 20.9319C22.6502 19.2629 22.6432 16.5399 20.9742 14.8719Z" fill="black"/>
</svg>