<svg width="24" height="24" viewBox="0 0 24 24" fill="none" xmlns="http://www.w3.org/2000/svg">
<path opacity="0.4" fill-rule="evenodd" clip-rule="evenodd" d="M19.9452 20.075C19.0652 21.085 17.6652 21.625 15.9052 21.625H8.08521C6.14521 21.625 4.79521 21.155 3.96521 20.195C3.11521 19.215 2.85521 17.785 3.14521 15.835L3.87521 10.195C4.30521 7.765 5.92521 6.895 7.19521 6.875H16.7752C18.0552 6.875 19.6152 7.735 20.1452 10.145L20.8852 15.845C21.1352 17.635 20.8252 19.065 19.9452 20.075Z" fill="black"/>
<path fill-rule="evenodd" clip-rule="evenodd" d="M16.79 6.87504H15.28C15.14 5.19504 13.72 3.87504 12 3.87504H11.99C10.26 3.87504 8.84996 5.19504 8.70996 6.87504H7.20996C7.35996 4.35504 9.44996 2.37504 11.98 2.37504C14.55 2.36504 16.64 4.35504 16.79 6.87504Z" fill="black"/>
<path d="M14.4447 14.2666C15.1007 13.6146 15.4647 12.7476 15.4687 11.8226H15.4667C15.4667 11.8176 15.4687 11.8126 15.4687 11.8076C15.4687 11.3936 15.1327 11.0576 14.7187 11.0576C14.3047 11.0576 13.9687 11.3936 13.9687 11.8076C13.9687 11.9416 13.9547 12.0726 13.9287 12.1986C13.9207 12.2426 13.9027 12.2826 13.8907 12.3246C13.6617 13.1546 12.9067 13.7696 12.0017 13.7696H11.9987C11.0937 13.7696 10.3387 13.1546 10.1097 12.3246C10.0987 12.2826 10.0807 12.2426 10.0717 12.1986C10.0457 12.0726 10.0317 11.9416 10.0317 11.8076C10.0317 11.3936 9.69674 11.0576 9.28174 11.0576C8.86774 11.0576 8.53174 11.3936 8.53174 11.8076C8.53174 11.8126 8.53374 11.8176 8.53374 11.8226H8.53174C8.53574 12.7476 8.90074 13.6146 9.55674 14.2666C9.70174 14.4096 9.85974 14.5336 10.0237 14.6476C10.0367 14.6566 10.0477 14.6696 10.0617 14.6786C10.2387 14.7976 10.4257 14.8976 10.6197 14.9816C10.6297 14.9866 10.6397 14.9936 10.6497 14.9976C10.8477 15.0806 11.0527 15.1436 11.2637 15.1886C11.2757 15.1916 11.2867 15.1966 11.2997 15.1996C11.5247 15.2446 11.7547 15.2696 11.9897 15.2696H12.0117C12.2457 15.2696 12.4767 15.2446 12.7007 15.1996C12.7137 15.1966 12.7247 15.1916 12.7377 15.1886C12.9477 15.1436 13.1537 15.0806 13.3507 14.9976C13.3617 14.9936 13.3707 14.9866 13.3817 14.9816C13.5757 14.8976 13.7627 14.7976 13.9397 14.6786C13.9527 14.6696 13.9637 14.6566 13.9777 14.6476C14.1407 14.5336 14.2997 14.4096 14.4447 14.2666Z" fill="black"/>
</svg>