<svg width="24" height="24" viewBox="0 0 24 24" fill="none" xmlns="http://www.w3.org/2000/svg">
<path fill-rule="evenodd" clip-rule="evenodd" d="M10.7119 15.5826C14.0869 15.5826 16.8319 12.8376 16.8319 9.46257C16.8319 6.08857 14.0869 3.34357 10.7119 3.34357C7.33692 3.34357 4.59192 6.08857 4.59192 9.46257C4.59192 12.8376 7.33692 15.5826 10.7119 15.5826Z" fill="black"/>
<path fill-rule="evenodd" clip-rule="evenodd" d="M17.4727 16.2281C21.1997 12.5001 21.1997 6.43405 17.4727 2.70705C17.1797 2.41405 16.7047 2.41405 16.4117 2.70705C16.1187 2.99905 16.1187 3.47405 16.4117 3.76705C19.5547 6.91105 19.5547 12.0241 16.4117 15.1671C14.8897 16.6901 12.8657 17.5291 10.7117 17.5291C8.55868 17.5291 6.53468 16.6901 5.01168 15.1671C4.71868 14.8741 4.24368 14.8741 3.95168 15.1671C3.65868 15.4601 3.65868 15.9351 3.95168 16.2281C5.57868 17.8551 7.69068 18.8171 9.96168 18.9921V20.0131H6.91068C6.49668 20.0131 6.16068 20.3491 6.16068 20.7631C6.16068 21.1771 6.49668 21.5131 6.91068 21.5131H14.5347C14.9487 21.5131 15.2847 21.1771 15.2847 20.7631C15.2847 20.3491 14.9487 20.0131 14.5347 20.0131H11.4617V18.9921C13.7327 18.8171 15.8447 17.8561 17.4727 16.2281Z" fill="black"/>
</svg>