<svg width="24" height="24" viewBox="0 0 24 24" fill="none" xmlns="http://www.w3.org/2000/svg">
<path fill-rule="evenodd" clip-rule="evenodd" d="M20.13 17.7503L16.93 15.8603C16.66 15.7003 16.33 15.7003 16.06 15.8603C15.79 16.0103 15.62 16.2903 15.62 16.6103V20.3803C15.62 20.7003 15.79 20.9803 16.06 21.1403C16.2 21.2103 16.34 21.2503 16.49 21.2503C16.64 21.2503 16.79 21.2103 16.93 21.1303L20.13 19.2403C20.39 19.0803 20.55 18.8003 20.55 18.5003C20.55 18.1903 20.39 17.9103 20.13 17.7503Z" fill="black"/>
<path fill-rule="evenodd" clip-rule="evenodd" d="M8.64601 12.638H15.265C17.206 12.638 18.792 11.059 18.799 9.118L18.803 8.029C18.808 7.082 18.441 6.191 17.772 5.52C17.104 4.85 16.215 4.482 15.27 4.482H15.263L8.26901 4.497C8.14801 4.118 7.94901 3.769 7.65001 3.47C6.69001 2.51 5.13001 2.51 4.17001 3.47C3.70001 3.94 3.45001 4.56 3.45001 5.21C3.45001 5.87 3.70001 6.49 4.17001 6.96C4.65001 7.44 5.28001 7.68 5.91001 7.68C6.54001 7.68 7.17001 7.44 7.65001 6.96C7.93001 6.68 8.13001 6.35 8.24001 6L8.24101 5.997L15.266 5.982H15.27C15.814 5.982 16.326 6.194 16.71 6.579C17.095 6.965 17.306 7.478 17.303 8.023L17.299 9.113C17.294 10.23 16.382 11.138 15.265 11.138H8.64601C6.69701 11.138 5.11101 12.723 5.11101 14.672V15.746C5.11101 16.691 5.47901 17.578 6.14701 18.246C6.81401 18.912 7.70101 19.28 8.64401 19.28H8.64901L12.583 19.275C12.997 19.274 13.333 18.938 13.332 18.524C13.332 18.11 12.996 17.775 12.582 17.775H12.581L8.64701 17.78H8.64501C8.10201 17.78 7.59101 17.569 7.20701 17.185C6.82301 16.801 6.61101 16.29 6.61101 15.746V14.672C6.61101 13.55 7.52401 12.638 8.64601 12.638Z" fill="black"/>
</svg>