<svg width="24" height="24" viewBox="0 0 24 24" fill="none" xmlns="http://www.w3.org/2000/svg">
<path fill-rule="evenodd" clip-rule="evenodd" d="M4.52999 12.87L4.57799 12.935C4.61699 12.985 4.65899 13.029 4.70899 13.069L4.70999 13.07C4.71299 13.073 4.71899 13.075 4.72199 13.078C4.84799 13.173 4.99599 13.239 5.16599 13.239C5.16699 13.239 5.16899 13.24 5.16999 13.24C5.23999 13.24 5.31999 13.23 5.38999 13.2C5.39799 13.198 5.40599 13.192 5.41399 13.189C5.44699 13.178 5.47599 13.163 5.50599 13.148C5.53399 13.134 5.56499 13.127 5.58999 13.11C5.65999 13.08 5.72999 13.02 5.77999 12.95L7.74999 10.39C7.91999 10.16 7.94999 9.86 7.82999 9.6C7.69999 9.34 7.43999 9.18 7.14999 9.18H5.91599V9.079C5.91599 6.996 7.18199 5.65 9.14099 5.65H15.04C15.34 6.65 16.27 7.38 17.37 7.38C18.72 7.38 19.81 6.29 19.81 4.94C19.81 3.59 18.72 2.5 17.37 2.5C16.3 2.5 15.39 3.19 15.06 4.15H9.14099C6.35799 4.15 4.41599 6.177 4.41599 9.079V9.17H3.19999C2.91999 9.17 2.65999 9.33 2.52999 9.58C2.40999 9.84 2.43999 10.15 2.60999 10.37L4.51999 12.86L4.52999 12.87Z" fill="black"/>
<path fill-rule="evenodd" clip-rule="evenodd" d="M21.39 13.02L19.42 10.46C19.28 10.28 19.06 10.17 18.83 10.17C18.6 10.17 18.38 10.28 18.23 10.46L16.25 13.03C16.08 13.26 16.05 13.57 16.18 13.82C16.3 14.08 16.56 14.24 16.85 14.24H18.084V14.922C18.084 17.005 16.818 18.351 14.859 18.351H8.97C8.66 17.351 7.73 16.62 6.63 16.62C5.28 16.62 4.19 17.71 4.19 19.06C4.19 20.41 5.28 21.5 6.63 21.5C7.7 21.5 8.61 20.81 8.94 19.851H14.859C17.642 19.851 19.584 17.824 19.584 14.922V14.23H20.8C21.08 14.23 21.34 14.07 21.47 13.81C21.59 13.55 21.56 13.25 21.39 13.02Z" fill="black"/>
</svg>