<svg width="25" height="24" viewBox="0 0 25 24" fill="none" xmlns="http://www.w3.org/2000/svg">
<path fill-rule="evenodd" clip-rule="evenodd" d="M13.25 10.339C13.25 10.753 12.914 11.089 12.5 11.089C12.086 11.089 11.75 10.753 11.75 10.339V7.79602C11.75 7.38202 12.086 7.04602 12.5 7.04602C12.914 7.04602 13.25 7.38202 13.25 7.79602V10.339ZM18.396 12.74L17.456 11.565C17.096 11.113 16.896 10.549 16.892 9.97602L16.869 7.36902C16.865 6.88702 17.158 6.51702 17.403 6.29202C17.929 5.81202 18.191 5.12902 18.124 4.41702C18.016 3.27202 16.982 2.37402 15.771 2.37402H9.22901C8.01801 2.37402 6.98401 3.27202 6.87601 4.41702C6.80901 5.12902 7.07101 5.81202 7.59501 6.29102C7.84201 6.51702 8.13501 6.88702 8.13101 7.36902L8.10801 9.97802C8.10401 10.55 7.90401 11.114 7.54401 11.564L6.60401 12.74C6.01401 13.478 5.90201 14.466 6.31201 15.318C6.72201 16.17 7.56301 16.699 8.50901 16.699H11.75V20.876C11.75 21.29 12.086 21.626 12.5 21.626C12.914 21.626 13.25 21.29 13.25 20.876V16.699H16.491C17.437 16.699 18.279 16.17 18.688 15.318C19.098 14.466 18.986 13.479 18.396 12.74Z" fill="black"/>
</svg>