<svg width="25" height="24" viewBox="0 0 25 24" fill="none" xmlns="http://www.w3.org/2000/svg">
<path opacity="0.4" d="M21.5 20.9998V10.4255C21.4883 9.71716 21.1526 9.05457 20.5883 8.62549L14.3555 3.64873C13.2599 2.78376 11.7138 2.78376 10.6183 3.64873L4.41168 8.63035C3.84443 9.05749 3.50876 9.72397 3.5 10.4342V20.9998" stroke="black" stroke-width="1.5" stroke-linecap="round" stroke-linejoin="round"/>
<path fill-rule="evenodd" clip-rule="evenodd" d="M14.4684 12.5977H10.5308C9.15894 12.5977 8.29883 13.5687 8.29883 14.9435V18.6534C8.29883 20.0282 9.15504 21.0002 10.5308 21.0002H14.4684C15.8442 21.0002 16.7014 20.0282 16.7014 18.6534V14.9435C16.7014 13.5687 15.8442 12.5977 14.4684 12.5977Z" stroke="black" stroke-width="1.5" stroke-linecap="round" stroke-linejoin="round"/>
<path opacity="0.4" d="M12.5 14.8997V12.5977M12.5 20.9998V18.6977" stroke="black" stroke-width="1.5" stroke-linecap="round" stroke-linejoin="round"/>
</svg>