<svg width="25" height="24" viewBox="0 0 25 24" fill="none" xmlns="http://www.w3.org/2000/svg">
<path opacity="0.4" d="M7.28462 21H17.7159C19.5509 21 21.0376 19.5123 21.0376 17.6783V10.5045C21.0376 9.6133 20.6367 8.76973 19.9459 8.20638L14.3718 3.66551C13.282 2.77816 11.7185 2.77816 10.6287 3.66551L5.05457 8.20638C4.36376 8.76973 3.96289 9.6133 3.96289 10.5045V17.6783C3.96289 19.5123 5.44959 21 7.28462 21Z" stroke="black" stroke-width="1.5" stroke-linecap="round" stroke-linejoin="round"/>
<path d="M13.5473 12.0156L12.7465 10.4043C12.7192 10.3508 12.6755 10.308 12.621 10.2808C12.5558 10.2486 12.4799 10.2428 12.4098 10.2662C12.3408 10.2885 12.2843 10.3391 12.2522 10.4043L11.4515 12.0146C11.4106 12.0953 11.3337 12.1518 11.2442 12.1654L9.45006 12.4262C9.39168 12.4369 9.33817 12.4631 9.29438 12.503C9.18833 12.6091 9.18833 12.7813 9.29438 12.8873L10.6011 14.1444C10.6653 14.2067 10.6945 14.2972 10.6789 14.3857L10.3676 16.1595C10.3578 16.2188 10.3676 16.2791 10.3958 16.3326C10.4688 16.465 10.6332 16.5146 10.7684 16.4465L12.3768 15.6049C12.4575 15.5611 12.5538 15.5611 12.6336 15.6049L14.2313 16.4416C14.2857 16.4689 14.348 16.4786 14.4093 16.4698C14.5562 16.4455 14.6564 16.3083 14.635 16.1614L14.3237 14.3877C14.3062 14.2991 14.3363 14.2077 14.4015 14.1454L15.7014 12.8883C15.8016 12.7949 15.8143 12.6402 15.7306 12.5312C15.6858 12.4738 15.6207 12.4359 15.5487 12.4262L13.7545 12.1664C13.665 12.1537 13.5881 12.0973 13.5473 12.0156Z" stroke="black" stroke-width="1.5" stroke-linecap="round" stroke-linejoin="round"/>
</svg>