<svg width="25" height="24" viewBox="0 0 25 24" fill="none" xmlns="http://www.w3.org/2000/svg">
<path d="M6.08775 20.999C4.74014 20.9981 3.64844 19.9044 3.64844 18.5568V9.24422C3.64844 8.27803 4.16413 7.38579 5.00091 6.90319L11.1512 3.3605C11.9861 2.87983 13.0136 2.87983 13.8484 3.3605L19.9987 6.90319C20.8355 7.38579 21.3512 8.27803 21.3512 9.24422V18.5568C21.3512 19.9044 20.2595 20.9981 18.9119 20.999" stroke="black" stroke-width="1.5" stroke-linecap="round" stroke-linejoin="round"/>
<path opacity="0.4" d="M6.08789 20.9991L7.8821 21.0001C8.79283 21.0011 9.53036 20.2635 9.53036 19.3538V16.104C9.53036 15.1417 10.3107 14.3613 11.273 14.3613H13.7269C14.6892 14.3613 15.4695 15.1417 15.4695 16.104V19.3538C15.4695 20.2635 16.2081 21.0011 17.1178 21.0001L18.912 20.9991" stroke="black" stroke-width="1.5" stroke-linecap="round" stroke-linejoin="round"/>
</svg>