<svg width="25" height="24" viewBox="0 0 25 24" fill="none" xmlns="http://www.w3.org/2000/svg">
<path d="M3.5 9.8785L4.69189 5.58769C4.79308 5.22282 5.12584 4.96985 5.5053 4.96985H19.4947C19.8742 4.96985 20.2069 5.22282 20.3081 5.58769L21.5 9.8785" stroke="black" stroke-width="1.5" stroke-linecap="round" stroke-linejoin="round"/>
<path d="M5.38477 4.9765L8.41752 9.55531C8.65882 9.92212 9.07428 10.144 9.51893 10.144H10.7264H15.4784C15.9221 10.144 16.3375 9.92212 16.5798 9.55531L19.6126 4.9765" stroke="black" stroke-width="1.5" stroke-linecap="round" stroke-linejoin="round"/>
<path d="M19.6222 4.9765L17.6812 17.9005C17.6325 18.2187 17.4778 18.4892 17.256 18.6925C17.0147 18.9046 16.7053 19.0301 16.3676 19.0301H8.43695C8.10905 19.0301 7.79965 18.9046 7.56808 18.7013C7.33651 18.4989 7.17208 18.2089 7.12343 17.881L5.375 4.9765" stroke="black" stroke-width="1.5" stroke-linecap="round" stroke-linejoin="round"/>
<path opacity="0.4" d="M7.56836 18.7013L12.8126 12.8772M17.2564 18.6925L10.7266 10.144" stroke="black" stroke-width="1.5" stroke-linecap="round" stroke-linejoin="round"/>
</svg>