<svg width="25" height="24" viewBox="0 0 25 24" fill="none" xmlns="http://www.w3.org/2000/svg">
<path d="M21.25 12C21.25 7.02908 17.2209 3 12.25 3C7.27908 3 3.25 7.02908 3.25 12C3.25 16.9709 7.27908 21 12.25 21C16.2106 21 19.5733 18.4423 20.7766 14.8883" stroke="black" stroke-width="1.5" stroke-linecap="round" stroke-linejoin="round"/>
<path d="M6.86654 4.9043C6.86654 4.9043 9.04405 10.9066 3.25 12.0021" stroke="black" stroke-width="1.5" stroke-linecap="round" stroke-linejoin="round"/>
<path d="M12.654 3C12.654 3 12.041 5.53654 13.7953 6.90843C15.5496 8.27935 16.8602 8.17914 17.0781 9.9227C17.2961 11.6663 15.1439 11.9591 16.7181 14.5541" stroke="black" stroke-width="1.5" stroke-linecap="round" stroke-linejoin="round"/>
<path d="M11.9958 20.987C12.9415 16.2865 12.2575 11.7544 9.28018 13.8989C8.52531 14.4417 7.84298 14.8461 7.23242 15.1446" stroke="black" stroke-width="1.5" stroke-linecap="round" stroke-linejoin="round"/>
</svg>