<svg width="25" height="24" viewBox="0 0 25 24" fill="none" xmlns="http://www.w3.org/2000/svg">
<path d="M14.3666 20.6315V20.5945C14.3754 16.9462 13.2916 14.2445 11.0121 16.1835C9.07314 17.8189 7.6031 18.3802 6.638 18.5174" stroke="black" stroke-width="1.5" stroke-linecap="round" stroke-linejoin="round"/>
<path d="M5.25085 16.5676C6.51755 19.21 9.33017 20.8114 12.4385 20.8114C17.3049 20.8114 21.25 16.8673 21.25 12.0009C21.25 7.13451 17.3049 3.18945 12.4385 3.18945" stroke="black" stroke-width="1.5" stroke-linecap="round" stroke-linejoin="round"/>
<path d="M14.8262 3.52344C14.6608 4.00112 14.0547 6.051 15.4148 7.48406C16.9587 9.11073 18.2819 9.20315 18.2361 10.967C18.1992 12.7415 16.0121 12.7133 17.1971 15.5259" stroke="black" stroke-width="1.5" stroke-linecap="round" stroke-linejoin="round"/>
<path d="M7.43455 7.00488C8.2041 7.00488 8.82869 7.6285 8.82869 8.39903C8.82869 9.16956 8.2041 9.79318 7.43455 9.79318C6.66402 9.79318 6.03943 9.16956 6.03943 8.39903" stroke="black" stroke-width="1.5" stroke-linecap="round" stroke-linejoin="round"/>
<path d="M7.43341 14.2552C8.10276 14.2552 11.6168 11.4104 11.6168 8.43341C11.6168 6.12281 9.74402 4.25 7.43341 4.25C5.12281 4.25 3.25 6.12281 3.25 8.43341C3.25 9.84462 4.03963 11.2261 4.94157 12.2889" stroke="black" stroke-width="1.5" stroke-linecap="round" stroke-linejoin="round"/>
</svg>