<svg width="25" height="24" viewBox="0 0 25 24" fill="none" xmlns="http://www.w3.org/2000/svg">
<path d="M16.4663 3C19.4143 3 21.2493 5.08111 21.2493 8.02618V15.9731C21.2493 18.9182 19.4143 20.9993 16.4654 20.9993H8.03197C5.08398 20.9993 3.25 18.9182 3.25 15.9731V8.02618C3.25 5.08111 5.09274 3 8.03197 3H12.2492" stroke="black" stroke-width="1.5" stroke-linecap="round" stroke-linejoin="round"/>
<path d="M9.01172 8.21094V18.411M3.30469 8.21094H21.2398" stroke="black" stroke-width="1.5" stroke-linecap="round" stroke-linejoin="round"/>
<path d="M12.4648 13.8103C12.4648 15.7153 14.7143 17.5357 15.1424 17.5357C15.5704 17.5357 17.8199 15.7153 17.8199 13.8103C17.8199 12.3315 16.6212 11.1328 15.1424 11.1328C13.6635 11.1328 12.4648 12.3315 12.4648 13.8103Z" stroke="black" stroke-width="1.5" stroke-linecap="round" stroke-linejoin="round"/>
<path d="M15.1426 13.7952V13.7852" stroke="black" stroke-width="1.5" stroke-linecap="round" stroke-linejoin="round"/>
</svg>