<svg width="25" height="24" viewBox="0 0 25 24" fill="none" xmlns="http://www.w3.org/2000/svg">
<path d="M3.75 15.9736C3.75 18.9188 5.58503 21 8.53411 21H16.9678C19.9159 21 21.75 18.9188 21.75 15.9736V8.02638C21.75 5.08119 19.9072 3 16.9678 3H8.53314C5.58503 3 3.75 5.08119 3.75 8.02638V12.3779" stroke="black" stroke-width="1.5" stroke-linecap="round" stroke-linejoin="round"/>
<path d="M21.7483 9.69921L6.7356 6.60254M10.5104 7.37985L7.95152 20.9762" stroke="black" stroke-width="1.5" stroke-linecap="round" stroke-linejoin="round"/>
<path d="M15.3749 18.1453C15.3749 18.1453 12.6973 16.3249 12.6973 14.4198C12.6973 12.9409 13.896 11.7422 15.3749 11.7422C16.8538 11.7422 18.0525 12.9409 18.0525 14.4198C18.0525 15.3291 17.54 16.2191 16.9577 16.9011M15.3748 14.4277V14.3966" stroke="black" stroke-width="1.5" stroke-linecap="round" stroke-linejoin="round"/>
</svg>