<svg width="25" height="24" viewBox="0 0 25 24" fill="none" xmlns="http://www.w3.org/2000/svg">
<path d="M18.5095 5.88867C21.9661 9.34527 21.9661 14.9506 18.5095 18.4072C15.7787 21.138 11.7069 21.7114 8.4129 20.1275" stroke="black" stroke-width="1.5" stroke-linecap="round" stroke-linejoin="round"/>
<path d="M5.99089 18.4092C2.53429 14.9526 2.53429 9.34723 5.99089 5.89062" stroke="black" stroke-width="1.5" stroke-linecap="round" stroke-linejoin="round"/>
<path d="M16.6472 11.4141C16.8774 12.7864 16.463 14.2416 15.4038 15.3008C13.6631 17.0415 10.8355 17.0415 9.09479 15.3008C8.03561 14.2416 7.62115 12.7864 7.85141 11.4141" stroke="black" stroke-width="1.5" stroke-linecap="round" stroke-linejoin="round"/>
<path d="M12.2488 10.7974C12.2488 10.7974 8.9884 8.58048 8.9884 6.26042C8.9884 4.45982 10.4482 3 12.2488 3C14.0494 3 15.5093 4.45982 15.5093 6.26042C15.5093 7.43382 14.8086 8.58084 14.0486 9.428" stroke="black" stroke-width="1.5" stroke-linecap="round" stroke-linejoin="round"/>
<path d="M12.2508 6.25566V6.29987M12.43 6.26516C12.43 6.36469 12.3493 6.44537 12.2497 6.44537C12.1502 6.44537 12.0696 6.36469 12.0696 6.26516C12.0696 6.16564 12.1502 6.08496 12.2497 6.08496C12.3493 6.08496 12.43 6.16564 12.43 6.26516Z" stroke="black" stroke-width="1.5" stroke-linecap="round" stroke-linejoin="round"/>
</svg>