<svg width="25" height="24" viewBox="0 0 25 24" fill="none" xmlns="http://www.w3.org/2000/svg">
<path d="M15.5878 14.0322C18.6414 14.5762 20.7995 15.8687 20.7995 17.3667C20.7995 19.3779 16.9746 21 12.2543 21" stroke="black" stroke-width="1.5" stroke-linecap="round" stroke-linejoin="round"/>
<path d="M8.91189 14.0312C5.84841 14.5852 3.7002 15.8678 3.7002 17.3657C3.7002 18.7355 5.47897 19.9248 8.10448 20.544" stroke="black" stroke-width="1.5" stroke-linecap="round" stroke-linejoin="round"/>
<path d="M12.2504 3C10.3136 3 8.74414 4.56947 8.74414 6.50524C8.74414 8.44101 10.3136 10.0105 12.2504 10.0105C14.1861 10.0105 15.7556 8.44101 15.7556 6.50524C15.7556 5.67867 15.4695 4.91889 14.9908 4.31956" stroke="black" stroke-width="1.5" stroke-linecap="round" stroke-linejoin="round"/>
<path d="M12.2488 10.0117L12.248 16.8639" stroke="black" stroke-width="1.5" stroke-linecap="round" stroke-linejoin="round"/>
</svg>