<svg width="25" height="24" viewBox="0 0 25 24" fill="none" xmlns="http://www.w3.org/2000/svg">
<path d="M8.53216 21C5.58405 21 3.75 18.9188 3.75 15.9736V8.02638C3.75 5.08119 5.59281 3 8.53216 3H16.9669C19.915 3 21.75 5.08119 21.75 8.02638V15.9736C21.75 18.9188 19.915 21 16.9659 21H12.0591" stroke="black" stroke-width="1.5" stroke-linecap="round" stroke-linejoin="round"/>
<path d="M17.2875 10.1221C17.63 10.4646 17.6942 11.023 17.3858 11.3957C17.1921 11.6302 16.9139 11.7401 16.6395 11.7284C16.3437 11.7148 16.0528 11.7956 15.8455 12.0067L14.8891 12.9787C14.6371 13.2366 14.4775 13.5703 14.4377 13.9293L14.3501 14.7116C14.2557 15.5552 13.2273 15.9161 12.6269 15.3158L9.67495 12.3638C9.07462 11.7635 9.43462 10.7341 10.2792 10.6397L11.0614 10.5531C11.4195 10.5132 11.7542 10.3536 12.0111 10.1016L12.984 9.14521C13.1942 8.93796 13.2749 8.64607 13.2623 8.35126C13.2506 8.07688 13.3596 7.79861 13.5941 7.60499C13.9677 7.29656 14.5262 7.36077 14.8687 7.70326" stroke="black" stroke-width="1.5" stroke-linecap="round" stroke-linejoin="round"/>
<path d="M11.1148 13.875L9.42188 15.568" stroke="black" stroke-width="1.5" stroke-linecap="round" stroke-linejoin="round"/>
</svg>