<svg width="24" height="24" viewBox="0 0 24 24" fill="none" xmlns="http://www.w3.org/2000/svg">
<path fill-rule="evenodd" clip-rule="evenodd" d="M9.97015 12.0005C9.97015 11.1035 10.2762 10.2825 10.7752 9.61347C10.5312 9.53447 10.2762 9.48047 10.0072 9.48047C8.61515 9.48047 7.48315 10.6105 7.48315 12.0005C7.48315 13.3955 8.61515 14.5295 10.0072 14.5295C10.2772 14.5295 10.5332 14.4755 10.7772 14.3965C10.2772 13.7245 9.97015 12.9015 9.97015 12.0005Z" fill="black"/>
<path fill-rule="evenodd" clip-rule="evenodd" d="M11.4701 12.0006C11.4701 12.5796 11.6731 13.1066 12.0001 13.5336C12.3271 13.1066 12.5301 12.5796 12.5301 12.0006C12.5301 11.4236 12.3271 10.8986 12.0001 10.4736C11.6731 10.8986 11.4701 11.4236 11.4701 12.0006Z" fill="black"/>
<path fill-rule="evenodd" clip-rule="evenodd" d="M13.993 9.48096C13.724 9.48096 13.469 9.53496 13.225 9.61296C13.724 10.282 14.03 11.103 14.03 12.001C14.03 12.901 13.723 13.725 13.223 14.397C13.467 14.476 13.723 14.53 13.993 14.53C15.385 14.53 16.516 13.395 16.516 12.001C16.516 10.611 15.385 9.48096 13.993 9.48096Z" fill="black"/>
<path fill-rule="evenodd" clip-rule="evenodd" d="M13.993 16.0299C13.264 16.0299 12.59 15.8199 12 15.4799C11.41 15.8199 10.735 16.0299 10.007 16.0299C7.788 16.0299 5.983 14.2219 5.983 12.0009C5.983 9.78394 7.788 7.98094 10.007 7.98094C10.735 7.98094 11.41 8.19094 12 8.52994C12.59 8.19094 13.264 7.98094 13.993 7.98094C16.212 7.98094 18.016 9.78394 18.016 12.0009C18.016 14.2219 16.212 16.0299 13.993 16.0299ZM17.595 3.21094H6.404C3.471 3.21094 1.5 5.27194 1.5 8.34094V15.6609C1.5 18.7289 3.471 20.7909 6.404 20.7909H17.594C20.528 20.7909 22.5 18.7289 22.5 15.6609V8.34094C22.5 5.27194 20.528 3.21094 17.595 3.21094Z" fill="black"/>
</svg>