<svg width="24" height="24" viewBox="0 0 24 24" fill="none" xmlns="http://www.w3.org/2000/svg">
<path opacity="0.4" d="M13.2621 3.15344C13.7933 3.23712 14.311 3.36848 14.8169 3.54654C19.4474 5.21913 21.8449 10.3284 20.1723 14.9589C18.4997 19.5894 13.3905 21.9869 8.75997 20.3143C7.70329 19.9329 6.76239 19.3705 5.95966 18.6777C5.56754 18.3498 5.21824 17.9927 4.91077 17.6074" stroke="black" stroke-width="1.5" stroke-linecap="round" stroke-linejoin="round"/>
<path opacity="0.4" d="M3.48066 15.2086C3.26368 14.6423 3.09341 14.0391 3 13.4164" stroke="black" stroke-width="1.5" stroke-linecap="round" stroke-linejoin="round"/>
<path opacity="0.4" d="M6.18706 5.04883C5.7531 5.40689 5.34736 5.80291 4.99805 6.22811" stroke="black" stroke-width="1.5" stroke-linecap="round" stroke-linejoin="round"/>
<path opacity="0.4" d="M3.5537 8.60791C3.29877 9.2209 3.11974 9.87184 3.01562 10.5413" stroke="black" stroke-width="1.5" stroke-linecap="round" stroke-linejoin="round"/>
<path opacity="0.4" d="M10.4309 3.15283C9.80822 3.24721 9.20496 3.40776 8.63867 3.63447" stroke="black" stroke-width="1.5" stroke-linecap="round" stroke-linejoin="round"/>
<path d="M20.9991 5.42676C16.2353 8.09473 13.2793 12.4032 11.8753 15.041C10.913 13.4258 9.69281 11.9897 8.20898 10.7374" stroke="black" stroke-width="1.5" stroke-linecap="round" stroke-linejoin="round"/>
</svg>
