<svg width="24" height="24" viewBox="0 0 24 24" fill="none" xmlns="http://www.w3.org/2000/svg">
<path d="M17.8382 9.1179C18.0853 11.4938 19.3755 11.5843 19.3755 13.9583C19.1565 16.596 16.8925 17.2411 11.9995 17.2411C7.10657 17.2411 4.84251 16.5863 4.62457 13.9583C4.62457 11.3343 6.2027 11.5016 6.2027 8.28019C6.2027 6.04144 8.01141 3.52928 10.8797 3" stroke="black" stroke-width="1.5" stroke-linecap="round" stroke-linejoin="round"/>
<path opacity="0.4" d="M9.92188 19.9678C10.4288 20.6012 11.1887 21.0001 12.0303 21.0001C12.8806 21.0001 13.6415 20.6012 14.1484 19.9678" stroke="black" stroke-width="1.5" stroke-linecap="round" stroke-linejoin="round"/>
<path opacity="0.4" fill-rule="evenodd" clip-rule="evenodd" d="M15.6596 3.09521C16.6199 3.09521 17.3992 3.87357 17.3992 4.83485C17.3992 5.79515 16.6199 6.57448 15.6596 6.57448C14.6993 6.57448 13.9199 5.79515 13.9199 4.83485C13.9199 3.87357 14.6993 3.09521 15.6596 3.09521Z" stroke="black" stroke-width="1.5" stroke-linecap="round" stroke-linejoin="round"/>
</svg>
