<svg width="24" height="24" viewBox="0 0 24 24" fill="none" xmlns="http://www.w3.org/2000/svg">
<path d="M12 3C8.37379 3 5.43354 5.93928 5.43354 9.56643L5.43257 10.8848C5.43257 11.6651 5.26036 12.4347 4.92858 13.1401L4.46254 14.1305C3.75034 15.6444 4.85464 17.3851 6.52811 17.3851H17.4718C19.1453 17.3851 20.2496 15.6444 19.5374 14.1305L19.0714 13.1401C18.7396 12.4347 18.5674 11.6651 18.5674 10.8848L18.5664 9.56643C18.5664 5.93928 15.6262 3 12 3Z" stroke="black" stroke-width="1.5" stroke-linecap="round" stroke-linejoin="round"/>
<path opacity="0.4" d="M8.90039 17.9004C8.90039 19.6118 10.2878 21.0002 11.9992 21.0002C13.7116 21.0002 15.099 19.6118 15.099 17.9004" stroke="black" stroke-width="1.5" stroke-linecap="round" stroke-linejoin="round"/>
<path opacity="0.4" d="M10.459 9.03955H13.5393L10.459 12.4371H13.5393" stroke="black" stroke-width="1.5" stroke-linecap="round" stroke-linejoin="round"/>
</svg>
