<svg width="24" height="24" viewBox="0 0 24 24" fill="none" xmlns="http://www.w3.org/2000/svg">
<path fill-rule="evenodd" clip-rule="evenodd" d="M5.60797 9.86862C5.60797 6.33788 8.47032 3.47554 12.0011 3.47554C15.5318 3.47554 18.3932 6.33788 18.3932 9.86862L18.3941 11.1519C18.3941 11.9118 18.5625 12.6609 18.8855 13.3478L19.3389 14.312C20.0325 15.7869 18.9575 17.4808 17.3288 17.4808H6.67332C5.04465 17.4808 3.9686 15.7869 4.66229 14.312L5.11665 13.3478C5.43966 12.6609 5.607 11.9118 5.607 11.1519L5.60797 9.86862Z" stroke="black" stroke-width="1.5" stroke-linecap="round" stroke-linejoin="round"/>
<path opacity="0.4" d="M8.98047 17.9819C8.98047 19.6486 10.3319 20.9999 11.9975 20.9999C13.6641 20.9999 15.0155 19.6486 15.0155 17.9819" stroke="black" stroke-width="1.5" stroke-linecap="round" stroke-linejoin="round"/>
<path opacity="0.4" d="M4.06836 5.77673C4.54509 4.74056 5.30397 3.76764 6.28663 3" stroke="black" stroke-width="1.5" stroke-linecap="round" stroke-linejoin="round"/>
<path opacity="0.4" d="M19.9331 5.77673C19.4564 4.74056 18.6975 3.76764 17.7148 3" stroke="black" stroke-width="1.5" stroke-linecap="round" stroke-linejoin="round"/>
</svg>
