<svg width="24" height="24" viewBox="0 0 24 24" fill="none" xmlns="http://www.w3.org/2000/svg">
<path opacity="0.4" d="M7.78313 3H16.2178C19.1659 3 21 5.08119 21 8.02638V15.9736C21 18.9188 19.1659 21 16.2169 21H7.78313C4.83503 21 3 18.9188 3 15.9736V8.02638C3 5.08119 4.84378 3 7.78313 3Z" stroke="black" stroke-width="1.5" stroke-linecap="round" stroke-linejoin="round"/>
<path d="M10.748 17.1299H13.2535" stroke="black" stroke-width="1.5" stroke-linecap="round" stroke-linejoin="round"/>
<path d="M7.62891 13.0388C7.75928 14.5965 9.10101 14.7016 12.0014 14.7016C14.9019 14.7016 16.2436 14.6014 16.374 13.0388C16.374 11.4811 15.438 11.5813 15.438 9.67232C15.438 8.17978 14.0817 6.48291 12.0014 6.48291C9.92123 6.48291 8.56491 8.17978 8.56491 9.67232C8.56491 11.5813 7.62891 11.482 7.62891 13.0388Z" stroke="black" stroke-width="1.5" stroke-linecap="round" stroke-linejoin="round"/>
</svg>
