<svg width="24" height="24" viewBox="0 0 24 24" fill="none" xmlns="http://www.w3.org/2000/svg">
<path d="M18.4206 14.1117C18.4206 14.1117 9.2123 15.4671 8.0564 15.5877C6.90049 15.7084 5.07031 14.8015 4.41938 13.0122C3.76846 11.2229 4.58674 9.35186 5.54999 8.7019C6.51325 8.05098 14.4003 3.19384 14.4003 3.19384" stroke="black" stroke-width="1.5" stroke-linecap="round" stroke-linejoin="round"/>
<path opacity="0.4" d="M8.29688 15.5551L9.77289 19.6105C10.1718 20.7061 11.3822 21.2714 12.4778 20.8715C13.5734 20.4736 14.1377 19.2622 13.7397 18.1676L12.5897 15.0083" stroke="black" stroke-width="1.5" stroke-linecap="round" stroke-linejoin="round"/>
<path fill-rule="evenodd" clip-rule="evenodd" d="M19.1065 7.66539C20.2099 10.6962 20.0007 13.5558 18.6385 14.0511C17.2763 14.5473 15.2778 12.4914 14.1744 9.46055C13.0711 6.42873 13.2813 3.5701 14.6425 3.07388C16.0046 2.57766 18.0031 4.63357 19.1065 7.66539Z" stroke="black" stroke-width="1.5" stroke-linecap="round" stroke-linejoin="round"/>
</svg>
