<svg width="24" height="24" viewBox="0 0 24 24" fill="none" xmlns="http://www.w3.org/2000/svg">
<path d="M8.69649 6.27953C8.96027 5.93593 9.11714 5.50574 9.11702 5.03909C9.11706 3.91289 8.20413 2.99996 7.07793 3C5.95201 2.99976 5.03899 3.91278 5.03895 5.03898C3.91278 5.03905 2.99976 5.95207 3 7.07799C2.99996 8.20419 3.91289 9.11712 5.03909 9.11708C5.50574 9.1172 5.93592 8.96032 6.27953 8.69655L15.3034 17.7206C15.0396 18.0642 14.8828 18.4944 14.8829 18.961C14.8829 20.0872 15.7958 21.0001 16.922 21.0001C18.0479 21.0003 18.9609 20.0873 18.9609 18.9611C20.0871 18.9611 21.0002 18.048 20.9999 16.9221C21 15.7959 20.087 14.883 18.9608 14.883C18.4942 14.8829 18.064 15.0398 17.7204 15.3036L8.69649 6.27953Z" stroke="black" stroke-width="1.5" stroke-linecap="round" stroke-linejoin="round"/>
<path opacity="0.4" d="M11.9751 14.4419L8.69649 17.7205C8.96027 18.0641 9.11715 18.4943 9.11703 18.961C9.11706 20.0872 8.20413 21.0001 7.07793 21C5.95201 21.0003 5.03899 20.0873 5.03898 18.961C3.91277 18.961 2.99976 18.048 3 16.9221C2.99996 15.7959 3.91289 14.8829 5.03909 14.883C5.50574 14.8828 5.93592 15.0397 6.27953 15.3035L9.55808 12.0249" stroke="black" stroke-width="1.5" stroke-linecap="round" stroke-linejoin="round"/>
<path opacity="0.4" d="M12.0518 9.53127L15.3034 6.27953C15.0397 5.93593 14.8828 5.50574 14.8829 5.03909C14.8829 3.91289 15.7958 2.99996 16.922 3C18.0479 2.99976 18.9609 3.91278 18.961 5.03898C20.0872 5.03905 21.0002 5.95207 20.9999 7.07799C21 8.20419 20.087 9.11712 18.9608 9.11708C18.4942 9.1172 18.064 8.96032 17.7204 8.69655L14.4958 11.9212" stroke="black" stroke-width="1.5" stroke-linecap="round" stroke-linejoin="round"/>
</svg>
