<svg width="24" height="24" viewBox="0 0 24 24" fill="none" xmlns="http://www.w3.org/2000/svg">
<path opacity="0.4" d="M7.04055 18.337L5.66089 19.7167" stroke="black" stroke-width="1.5" stroke-linecap="round" stroke-linejoin="round"/>
<path opacity="0.4" d="M16.9077 18.337L18.2874 19.7167" stroke="black" stroke-width="1.5" stroke-linecap="round" stroke-linejoin="round"/>
<path d="M11.9767 6.98194L17.7828 6.98194C18.4748 6.98194 18.941 7.68991 18.6676 8.32558L17.9477 9.99937C18.7657 11.1727 19.2455 11.8954 19.2455 13.4343C19.2455 17.4358 16.0016 19.7166 12 19.7166C7.99843 19.7166 4.75452 17.4358 4.75452 13.4343C4.75452 11.8954 5.23425 11.1727 6.05231 9.99937L5.29496 8.34618C5.0027 7.70824 5.46887 6.98193 6.17056 6.98193L7.78169 6.98193" stroke="black" stroke-width="1.5" stroke-linecap="round" stroke-linejoin="round"/>
<path opacity="0.4" d="M15.6113 6.73895L17.5976 3" stroke="black" stroke-width="1.5" stroke-linecap="round" stroke-linejoin="round"/>
<path opacity="0.4" d="M11.8412 18.4685L11.8412 21" stroke="black" stroke-width="1.5" stroke-linecap="round" stroke-linejoin="round"/>
<path opacity="0.4" d="M13.3733 6.96596C14.0653 6.96596 14.6263 6.40495 14.6263 5.71291C14.6263 5.02088 14.0653 4.45986 13.3733 4.45986C13.0447 4.45986 12.7456 4.58636 12.5221 4.79334C12.2754 4.16047 11.6599 3.71204 10.9398 3.71204C10.1258 3.71204 9.44564 4.28485 9.28041 5.04935C9.16831 5.01645 9.04973 4.99882 8.92698 4.99882C8.23495 4.99882 7.67393 5.55983 7.67393 6.25187C7.67393 6.9439 8.23495 7.50492 8.92698 7.50492C9.41743 7.50492 9.96338 8.07443 9.53795 8.79057C9.35598 9.06374 9.02088 9.7547 9.13623 10.3332" stroke="black" stroke-width="1.5" stroke-linecap="round" stroke-linejoin="round"/>
</svg>
