<svg width="24" height="24" viewBox="0 0 24 24" fill="none" xmlns="http://www.w3.org/2000/svg">
<path opacity="0.4" d="M10.1353 9.0415L10.1353 11.1611M10.1353 11.1611L10.1353 15.6296M10.1353 11.1611H12.169M10.1353 11.1611H8.10156" stroke="black" stroke-width="1.5" stroke-linecap="round" stroke-linejoin="round"/>
<path d="M21 20.6129H12.9569C12.5728 20.6129 12.1947 20.5171 11.857 20.3341L11.3742 20.0726C10.8483 19.7877 10.2028 19.8464 9.73688 20.2214C9.24361 20.6184 8.55275 20.6587 8.01665 20.3218L7.48151 19.9854C6.69593 19.4916 5.69445 19.5015 4.91886 20.0109C4.91886 20.0109 4.19641 20.6129 3 20.6129" stroke="black" stroke-width="1.5" stroke-linecap="round" stroke-linejoin="round"/>
<path d="M16.093 20.4339V9.34498C16.093 6.05459 13.4257 3.38721 10.1353 3.38721C6.84487 3.38721 4.17749 6.05459 4.17749 9.34498V20.2723" stroke="black" stroke-width="1.5" stroke-linecap="round" stroke-linejoin="round"/>
<path opacity="0.4" d="M19.9197 20.4339V10.0704C19.9197 6.37937 16.9275 3.38721 13.2365 3.38721H10.1787" stroke="black" stroke-width="1.5" stroke-linecap="round" stroke-linejoin="round"/>
</svg>
