<svg width="24" height="24" viewBox="0 0 24 24" fill="none" xmlns="http://www.w3.org/2000/svg">
<path d="M21.0001 19.2693H15.7916C15.5428 19.2693 15.298 19.2031 15.0793 19.0768L14.7666 18.8962C14.4261 18.6995 14.0081 18.74 13.7064 18.9989C13.3869 19.2731 12.9395 19.3009 12.5924 19.0682L12.2458 18.836C11.8213 18.5515 11.2995 18.5091 10.8465 18.7073C10.665 18.7867 10.5116 18.9243 10.3369 19.0196C10.1243 19.1354 9.78342 19.2693 9.34369 19.2693H8.61414M8.62889 19.2692C11.8726 13.9252 18.9391 14.8502 20.9856 19.2692" stroke="black" stroke-width="1.5" stroke-linecap="round" stroke-linejoin="round"/>
<path opacity="0.4" d="M6.36963 17.549C6.19486 17.4538 6.04151 17.3161 5.85993 17.2367C5.40697 17.0386 4.88514 17.0809 4.46065 17.3654L4.11411 17.5977C3.76695 17.8304 3.31956 17.8025 3.00013 17.5284" stroke="black" stroke-width="1.5" stroke-linecap="round" stroke-linejoin="round"/>
<path d="M11.3662 13.4477C9.2643 9.72319 4.68541 10.3679 3.35931 13.4477H11.3662Z" stroke="black" stroke-width="1.5" stroke-linecap="round" stroke-linejoin="round"/>
<path opacity="0.4" d="M7.36272 4.73083L7.36272 6.62653M7.36272 6.62653L7.36272 10.7944M7.36272 6.62653H9.18162M7.36272 6.62653H5.54382" stroke="black" stroke-width="1.5" stroke-linecap="round" stroke-linejoin="round"/>
<path opacity="0.4" d="M14.807 6.46606L14.807 9.40466M14.807 9.40466L14.807 15.5999M14.807 9.40466H17.6266M14.807 9.40466H11.9875" stroke="black" stroke-width="1.5" stroke-linecap="round" stroke-linejoin="round"/>
</svg>
