<svg width="24" height="24" viewBox="0 0 24 24" fill="none" xmlns="http://www.w3.org/2000/svg">
<path d="M5.54398 18.832C6.76215 20.1864 8.51156 20.8295 10.295 20.3323C10.802 20.6252 11.3721 20.7809 11.9958 20.7809C12.6195 20.7809 13.2072 20.6252 13.7141 20.3323C15.4976 20.8295 17.2479 20.1864 18.4661 18.832C19.84 17.2918 20.6884 15.2359 20.9316 13.1985C21.1652 11.269 20.8441 8.89108 19.2844 7.54642C18.145 6.57149 16.5367 6.39636 15.2018 7.06869C14.9965 7.17669 14.7435 7.3129 14.5976 7.5075C14.0322 6.68922 13.0768 6.16284 12.0046 6.16284C10.9333 6.16284 9.9876 6.68922 9.40281 7.49777C9.25687 7.3129 9.01265 7.17669 8.80832 7.06869C7.47339 6.39636 5.85533 6.57149 4.71597 7.54642C3.15628 8.89108 2.83423 11.269 3.06872 13.1985C3.32169 15.2359 4.17013 17.2918 5.54398 18.832Z" stroke="black" stroke-width="1.5" stroke-linecap="round" stroke-linejoin="round"/>
<path opacity="0.4" d="M12.0012 6.1625C11.9429 3.72616 14.0182 3.21924 14.0182 3.21924" stroke="black" stroke-width="1.5" stroke-linecap="round" stroke-linejoin="round"/>
<path opacity="0.4" d="M9.00806 15.1506L10.3838 16.2365L11.9999 15.1604L13.617 16.2365L14.9918 15.1506" stroke="black" stroke-width="1.5" stroke-linecap="round" stroke-linejoin="round"/>
<path opacity="0.4" d="M9.54076 11.2302L9.53076 11.2268" stroke="black" stroke-width="1.5" stroke-linecap="round" stroke-linejoin="round"/>
<path opacity="0.4" d="M14.3152 11.2302L14.3252 11.2268" stroke="black" stroke-width="1.5" stroke-linecap="round" stroke-linejoin="round"/>
</svg>
