<svg width="24" height="24" viewBox="0 0 24 24" fill="none" xmlns="http://www.w3.org/2000/svg">
<ellipse cx="15.0298" cy="11.7924" rx="1.22178" ry="1.36005" stroke="black" stroke-width="1.5" stroke-linecap="round" stroke-linejoin="round"/>
<ellipse cx="8.89634" cy="11.7924" rx="1.22178" ry="1.36005" stroke="black" stroke-width="1.5" stroke-linecap="round" stroke-linejoin="round"/>
<path d="M12 15.564V14.5585" stroke="black" stroke-width="1.5" stroke-linecap="round" stroke-linejoin="round"/>
<path d="M12.0313 21L12.0312 18.8774" stroke="black" stroke-width="1.5" stroke-linecap="round" stroke-linejoin="round"/>
<path d="M14.248 21L14.248 18.8774" stroke="black" stroke-width="1.5" stroke-linecap="round" stroke-linejoin="round"/>
<path d="M9.75195 21L9.75195 18.8774" stroke="black" stroke-width="1.5" stroke-linecap="round" stroke-linejoin="round"/>
<path opacity="0.4" d="M19.7826 14.0366V10.7827C19.7826 6.48442 16.2982 3 12 3C7.70171 3 4.21729 6.48442 4.21729 10.7827V14.0439C4.21729 15.6727 6.87299 17.7259 6.87299 17.7259V18.5816C6.87299 19.9173 7.95573 21 9.29136 21L14.6572 21C15.9929 21 17.0756 19.9173 17.0756 18.5816V17.7302C17.0756 17.7302 19.7826 15.6863 19.7826 14.0366Z" stroke="black" stroke-width="1.5" stroke-linecap="round" stroke-linejoin="round"/>
</svg>
