<svg width="24" height="24" viewBox="0 0 24 24" fill="none" xmlns="http://www.w3.org/2000/svg">
<path opacity="0.4" d="M9.51772 3.35901C11.6213 2.72089 13.9503 2.94836 15.915 3.92264C17.4006 4.65537 18.5883 5.99602 19.0613 7.59434C19.6712 9.55097 19.3612 11.6364 18.8983 13.589C20.2714 16.0271 19.2391 17.5842 16.8551 18.6738C16.8349 19.2415 16.8812 19.8233 16.7222 20.3768C16.4585 21.0331 15.5003 21.1961 14.9931 20.7331C14.7334 20.4352 14.675 20.0205 14.5301 19.6642C14.4214 19.9964 14.3388 20.3426 14.1496 20.6425C13.8255 21.0411 13.2317 21.0592 12.7727 20.9244C12.2272 20.7492 12.1588 20.1071 11.9937 19.6461C11.8669 19.9944 11.8085 20.3849 11.577 20.6848C11.2187 21.0552 10.6249 21.0572 10.1659 20.9002C9.67675 20.7029 9.61636 20.1111 9.45532 19.6763C9.31441 20.0266 9.23993 20.4211 8.99233 20.721C8.49714 21.1981 7.5309 21.0411 7.26518 20.3829C7.08804 19.8353 7.15447 19.2475 7.1283 18.6799C4.69771 17.5693 3.7701 16.0211 5.08512 13.579C4.56174 11.4351 4.25778 9.08798 5.14148 6.99648C5.89233 5.15258 7.62953 3.86427 9.51772 3.35901Z" stroke="black" stroke-width="1.5" stroke-linecap="round" stroke-linejoin="round"/>
<path d="M14.3741 9.84851C15.0425 9.66922 15.8308 9.90106 16.3043 10.4467C16.9482 11.2395 16.4718 12.7032 15.4828 12.8392C14.875 12.898 14.1873 12.5091 13.76 12.0299C13.1507 11.2942 13.502 10.1576 14.3741 9.84851Z" stroke="black" stroke-width="1.5" stroke-linecap="round" stroke-linejoin="round"/>
<path d="M9.62598 9.84851C8.95754 9.66922 8.16926 9.90106 7.69572 10.4467C7.05182 11.2395 7.52826 12.7032 8.51721 12.8392C9.12502 12.898 9.8127 12.5091 10.24 12.0299C10.8493 11.2942 10.498 10.1576 9.62598 9.84851Z" stroke="black" stroke-width="1.5" stroke-linecap="round" stroke-linejoin="round"/>
<path d="M10.9945 15.8997L12 14.8942L13.0055 15.8997" stroke="black" stroke-width="1.5" stroke-linecap="round" stroke-linejoin="round"/>
</svg>
