<svg width="24" height="24" viewBox="0 0 24 24" fill="none" xmlns="http://www.w3.org/2000/svg">
<path opacity="0.4" d="M13.8018 7.79873L16.2449 10.315L16.1931 13.8219L13.6768 16.2649L10.17 16.2132L7.72693 13.6969L7.77871 10.19L10.295 7.74695L13.8018 7.79873Z" stroke="black" stroke-width="1.5" stroke-linejoin="round"/>
<path opacity="0.4" d="M15.7839 3.20633C15.8212 6.03835 18.0638 8.34822 20.8935 8.46912C18.9173 10.498 18.8698 13.7172 20.7852 15.8035C17.9532 15.8408 15.6433 18.0835 15.5224 20.9132C13.4935 18.937 10.2744 18.8895 8.188 20.8049C8.15071 17.9728 5.90806 15.663 3.07837 15.5421C5.05454 13.5132 5.10208 10.294 3.18667 8.20766C6.0187 8.17036 8.32857 5.92771 8.44947 3.09802C10.4784 5.07419 13.6975 5.12173 15.7839 3.20633Z" stroke="black" stroke-width="1.5" stroke-linejoin="round"/>
<path d="M8.44263 3.07324L15.5306 20.8945" stroke="black" stroke-width="1.5" stroke-linecap="round" stroke-linejoin="round"/>
<path d="M15.7819 3.21313L8.19599 20.787" stroke="black" stroke-width="1.5" stroke-linecap="round" stroke-linejoin="round"/>
<path d="M20.882 8.47656L3.13757 15.5257" stroke="black" stroke-width="1.5" stroke-linecap="round" stroke-linejoin="round"/>
<path d="M20.7485 15.7972L3.25156 8.22218" stroke="black" stroke-width="1.5" stroke-linecap="round" stroke-linejoin="round"/>
</svg>
