<svg width="24" height="24" viewBox="0 0 24 24" fill="none" xmlns="http://www.w3.org/2000/svg">
<path d="M16.9959 13.1776C16.9959 10.7419 14.7681 9.78185 12.02 9.78185C9.27195 9.78185 7.04419 10.7419 7.04419 13.1776C7.04419 15.6133 9.27195 17.5879 12.02 17.5879C14.7681 17.5879 16.9959 15.6133 16.9959 13.1776Z" stroke="black" stroke-width="1.5" stroke-linecap="round" stroke-linejoin="round"/>
<path opacity="0.4" d="M15.3385 16.5385L17.2199 17.4894C17.6653 17.7145 17.877 18.2332 17.7163 18.7057L17.0034 20.8028" stroke="black" stroke-width="1.5" stroke-linecap="round" stroke-linejoin="round"/>
<path opacity="0.4" d="M8.66166 16.5385L6.78028 17.4894C6.33487 17.7145 6.12316 18.2332 6.28381 18.7057L6.9968 20.8028" stroke="black" stroke-width="1.5" stroke-linecap="round" stroke-linejoin="round"/>
<path opacity="0.4" d="M20.8295 17.0641L20.3269 13.6989C20.2374 13.0993 19.6399 12.7161 19.0576 12.8848L17.0325 13.4715" stroke="black" stroke-width="1.5" stroke-linecap="round" stroke-linejoin="round"/>
<path opacity="0.4" d="M3.17053 17.0641L3.67314 13.6989C3.76269 13.0993 4.36017 12.7161 4.94247 12.8848L6.96758 13.4715" stroke="black" stroke-width="1.5" stroke-linecap="round" stroke-linejoin="round"/>
<path opacity="0.4" d="M21 9.91369L20.4414 8.75117C20.128 8.09885 19.2474 7.98406 18.7772 8.53422L16.4669 11.2373" stroke="black" stroke-width="1.5" stroke-linecap="round" stroke-linejoin="round"/>
<path opacity="0.4" d="M3 9.91369L3.55861 8.75117C3.87206 8.09885 4.75261 7.98406 5.22282 8.53422L7.5331 11.2373" stroke="black" stroke-width="1.5" stroke-linecap="round" stroke-linejoin="round"/>
<path opacity="0.4" d="M14.4485 10.0463L15.6933 8.29865C15.97 7.91017 15.9344 7.38046 15.6082 7.03251L14.6801 6.04248" stroke="black" stroke-width="1.5" stroke-linecap="round" stroke-linejoin="round"/>
<path opacity="0.4" d="M9.55149 10.0463L8.30666 8.29865C8.02995 7.91017 8.06555 7.38046 8.39175 7.03251L9.31988 6.04248" stroke="black" stroke-width="1.5" stroke-linecap="round" stroke-linejoin="round"/>
<path d="M12 3.19727V9.78185" stroke="black" stroke-width="1.5" stroke-linecap="round" stroke-linejoin="round"/>
<path d="M13.4695 19.7279L13.7418 17.3591" stroke="black" stroke-width="1.5" stroke-linecap="round" stroke-linejoin="round"/>
<path d="M10.5305 19.7279L10.2582 17.3591" stroke="black" stroke-width="1.5" stroke-linecap="round" stroke-linejoin="round"/>
</svg>
