<svg width="24" height="24" viewBox="0 0 24 24" fill="none" xmlns="http://www.w3.org/2000/svg">
<path d="M7.43242 20.5636H3.00041C2.86823 20.5637 2.73837 20.5288 2.624 20.4625C2.50964 20.3963 2.41484 20.301 2.34916 20.1863C2.28349 20.0716 2.24926 19.9415 2.25001 19.8093C2.25076 19.6772 2.28644 19.5475 2.35341 19.4336L11.5254 3.80359C11.5917 3.69094 11.6863 3.59755 11.7998 3.53265C11.9132 3.46776 12.0417 3.43362 12.1724 3.43359H12.1784C12.3104 3.43454 12.4397 3.47039 12.5534 3.53748C12.667 3.60457 12.7609 3.70053 12.8254 3.81561L14.9574 7.59259C15.0218 7.7062 15.0552 7.83471 15.0543 7.96527C15.0534 8.09583 15.0183 8.22388 14.9524 8.33661L8.0814 20.1896C8.01549 20.3033 7.92083 20.3978 7.80693 20.4634C7.69302 20.5291 7.56388 20.5636 7.43242 20.5636V20.5636ZM4.31041 19.0636H7.00041L13.4394 7.95557L12.1594 5.68762L4.31041 19.0636Z" fill="black"/>
<path d="M20.9986 20.5616H16.5676C16.4334 20.5615 16.3017 20.5255 16.1861 20.4573C16.0706 20.3891 15.9754 20.2911 15.9106 20.1736L12.2256 13.4856C12.1358 13.3221 12.1101 13.131 12.1533 12.9495C12.1965 12.7681 12.3057 12.6091 12.4596 12.5036L15.5916 10.3656C15.6772 10.3069 15.7742 10.2666 15.8763 10.2473C15.9784 10.2281 16.0834 10.2303 16.1846 10.2538C16.2858 10.2773 16.381 10.3217 16.4641 10.3839C16.5473 10.4462 16.6166 10.5251 16.6676 10.6156L21.6516 19.4426C21.7158 19.5567 21.749 19.6857 21.7479 19.8167C21.7468 19.9476 21.7115 20.076 21.6455 20.1891C21.5795 20.3022 21.4851 20.3961 21.3716 20.4615C21.2581 20.5268 21.1295 20.5613 20.9986 20.5616V20.5616ZM17.0116 19.0616H19.7116L15.7606 12.0616L13.8656 13.3556L17.0116 19.0616Z" fill="black"/>
<path d="M10.2913 15.6359C10.1306 15.6366 9.97395 15.5856 9.84447 15.4904C9.71499 15.3953 9.61956 15.261 9.57225 15.1074C9.52495 14.9539 9.52828 14.7891 9.58178 14.6376C9.63527 14.486 9.73608 14.3558 9.86931 14.2659L12.4603 12.5049C12.6249 12.393 12.8272 12.351 13.0227 12.3882C13.2182 12.4255 13.3909 12.5389 13.5028 12.7034C13.6147 12.868 13.6567 13.0702 13.6195 13.2658C13.5822 13.4613 13.4689 13.634 13.3043 13.7459L10.7113 15.5059C10.5877 15.5907 10.4412 15.636 10.2913 15.6359V15.6359Z" fill="black"/>
<path d="M7.45505 20.5607C7.29089 20.5612 7.13111 20.5077 7.00025 20.4086C6.86939 20.3095 6.77467 20.1701 6.73063 20.012C6.68658 19.8538 6.69564 19.6856 6.75641 19.5331C6.81719 19.3806 6.9263 19.2522 7.06705 19.1677L13.8201 15.0997C13.9044 15.0489 13.998 15.0152 14.0954 15.0006C14.1928 14.9859 14.2921 14.9905 14.3877 15.0142C14.4833 15.038 14.5733 15.0803 14.6526 15.1388C14.7318 15.1973 14.7987 15.2709 14.8496 15.3552C14.9004 15.4396 14.9341 15.5332 14.9487 15.6306C14.9634 15.728 14.9588 15.8273 14.935 15.9229C14.9113 16.0185 14.869 16.1085 14.8105 16.1877C14.752 16.2669 14.6784 16.3339 14.5941 16.3847L7.84107 20.4537C7.72456 20.5239 7.59107 20.5609 7.45505 20.5607V20.5607Z" fill="black"/>
</svg>
