<svg width="24" height="24" viewBox="0 0 24 24" fill="none" xmlns="http://www.w3.org/2000/svg">
<path fill-rule="evenodd" clip-rule="evenodd" d="M12 3.75C7.44329 3.75 3.75 7.44329 3.75 12C3.75 16.5567 7.44329 20.25 12 20.25C16.5567 20.25 20.25 16.5567 20.25 12C20.25 7.44329 16.5567 3.75 12 3.75ZM2.25 12C2.25 6.61487 6.61487 2.25 12 2.25C17.3851 2.25 21.75 6.61487 21.75 12C21.75 17.3851 17.3851 21.75 12 21.75C6.61487 21.75 2.25 17.3851 2.25 12Z" fill="black"/>
<path fill-rule="evenodd" clip-rule="evenodd" d="M11.6054 6.33536C11.8555 6.3202 12.0967 6.43098 12.2482 6.63062L13.717 8.5662C13.7262 8.57838 13.7351 8.59083 13.7436 8.60355C14.1591 9.22676 14.3292 10.1566 13.8257 10.9231L11.3615 14.8805C11.0237 15.4401 10.3506 15.9137 9.59778 15.9137H6.9375C6.66895 15.9137 6.4209 15.7701 6.28714 15.5373C6.15339 15.3044 6.15435 15.0178 6.28967 14.7858L11.0029 6.70608C11.1292 6.48961 11.3552 6.35052 11.6054 6.33536ZM11.7325 8.43237L8.24329 14.4137H9.59778C9.74056 14.4137 9.9656 14.292 10.0782 14.1038L10.085 14.0925L10.0851 14.0925L12.5578 10.1215C12.5619 10.1149 12.5661 10.1084 12.5704 10.1019C12.6553 9.97462 12.6762 9.71852 12.5063 9.45209L11.7325 8.43237Z" fill="black"/>
<path fill-rule="evenodd" clip-rule="evenodd" d="M14.9665 10.959C15.2312 10.959 15.4762 11.0985 15.6114 11.326L17.7087 14.858C17.8464 15.0898 17.849 15.3776 17.7156 15.6119C17.5823 15.8462 17.3334 15.9909 17.0638 15.9909H12.8691C12.5995 15.9909 12.3507 15.8462 12.2173 15.6119C12.084 15.3776 12.0866 15.0898 12.2243 14.858L14.3216 11.326C14.4568 11.0985 14.7018 10.959 14.9665 10.959ZM14.1868 14.4909H15.7462L14.9665 13.1779L14.1868 14.4909Z" fill="black"/>
</svg>
