<svg width="24" height="24" viewBox="0 0 24 24" fill="none" xmlns="http://www.w3.org/2000/svg">
<path d="M16.216 21.75H7.78201C4.47301 21.75 2.25 19.429 2.25 15.974V8.027C2.25 4.572 4.47301 2.25 7.78201 2.25H16.217C19.526 2.25 21.75 4.572 21.75 8.027V15.974C21.75 19.429 19.526 21.75 16.216 21.75ZM7.78201 3.75C5.33301 3.75 3.75 5.429 3.75 8.027V15.974C3.75 18.574 5.33301 20.25 7.78201 20.25H16.216C18.667 20.25 20.25 18.572 20.25 15.974V8.027C20.25 5.427 18.667 3.75 16.217 3.75H7.78201Z" fill="black"/>
<path d="M12.8761 16.6891H10.0391C9.84015 16.6891 9.64941 16.6101 9.50876 16.4694C9.36811 16.3288 9.28906 16.138 9.28906 15.9391V12.0001C9.28906 11.8012 9.36811 11.6104 9.50876 11.4698C9.64941 11.3291 9.84015 11.2501 10.0391 11.2501H12.7911C13.4769 11.2438 14.1408 11.4909 14.6557 11.9439C15.1705 12.397 15.5001 13.0241 15.5811 13.7051C15.6184 14.0827 15.5762 14.4639 15.4572 14.8242C15.3382 15.1844 15.1451 15.5158 14.8902 15.7969C14.6354 16.078 14.3245 16.3026 13.9776 16.4563C13.6307 16.61 13.2555 16.6893 12.8761 16.6891V16.6891ZM10.7891 15.1891H12.8761C13.0465 15.1892 13.2151 15.1534 13.3708 15.0843C13.5266 15.0151 13.6661 14.914 13.7803 14.7875C13.8946 14.661 13.981 14.5119 14.034 14.35C14.087 14.188 14.1054 14.0167 14.0881 13.8471C14.0453 13.5357 13.8888 13.2511 13.6489 13.048C13.4089 12.8449 13.1023 12.7378 12.7881 12.7471H10.7881L10.7891 15.1891Z" fill="black"/>
<path d="M12.8761 12.7506H10.0391C9.84015 12.7506 9.64941 12.6716 9.50876 12.531C9.36811 12.3903 9.28906 12.1995 9.28906 12.0006V8.06262C9.28906 7.86371 9.36811 7.67295 9.50876 7.53229C9.64941 7.39164 9.84015 7.31263 10.0391 7.31263H12.7911C13.4769 7.30612 14.141 7.55311 14.6559 8.00619C15.1708 8.45927 15.5003 9.08654 15.5811 9.76762C15.6182 10.1451 15.5759 10.5262 15.4568 10.8864C15.3378 11.2465 15.1446 11.5778 14.8898 11.8588C14.635 12.1398 14.3242 12.3643 13.9774 12.5179C13.6306 12.6715 13.2554 12.7508 12.8761 12.7506V12.7506ZM10.7891 11.2506H12.8761C13.0464 11.2507 13.2149 11.215 13.3706 11.1458C13.5263 11.0767 13.6657 10.9757 13.7799 10.8493C13.8942 10.7229 13.9806 10.574 14.0337 10.4122C14.0867 10.2503 14.1053 10.0791 14.0881 9.90962C14.0453 9.59819 13.8888 9.31357 13.6489 9.11051C13.4089 8.90745 13.1023 8.80028 12.7881 8.80963H10.7881L10.7891 11.2506Z" fill="black"/>
<path d="M12.0898 17.8524C11.8909 17.8524 11.7002 17.7734 11.5595 17.6327C11.4189 17.4921 11.3398 17.3013 11.3398 17.1024V15.9414C11.3398 15.7425 11.4189 15.5517 11.5595 15.4111C11.7002 15.2704 11.8909 15.1914 12.0898 15.1914C12.2888 15.1914 12.4795 15.2704 12.6202 15.4111C12.7608 15.5517 12.8398 15.7425 12.8398 15.9414V17.1024C12.8398 17.3013 12.7608 17.4921 12.6202 17.6327C12.4795 17.7734 12.2888 17.8524 12.0898 17.8524Z" fill="black"/>
<path d="M12.0898 8.80944C11.8909 8.80944 11.7002 8.73042 11.5595 8.58977C11.4189 8.44912 11.3398 8.25835 11.3398 8.05944V6.89844C11.3398 6.69953 11.4189 6.50876 11.5595 6.36811C11.7002 6.22746 11.8909 6.14844 12.0898 6.14844C12.2888 6.14844 12.4795 6.22746 12.6202 6.36811C12.7608 6.50876 12.8398 6.69953 12.8398 6.89844V8.05944C12.8398 8.25835 12.7608 8.44912 12.6202 8.58977C12.4795 8.73042 12.2888 8.80944 12.0898 8.80944Z" fill="black"/>
</svg>
