<svg width="24" height="24" viewBox="0 0 24 24" fill="none" xmlns="http://www.w3.org/2000/svg">
<path fill-rule="evenodd" clip-rule="evenodd" d="M17.2912 6.13478C17.6626 6.13575 18.0329 6.13673 18.401 6.13673C19.8007 6.13673 20.9325 7.27212 20.9325 8.66921C20.9325 10.0671 19.7989 11.2007 18.401 11.2007H14.3398C13.9256 11.2007 13.5898 10.8649 13.5898 10.4507C13.5898 10.0365 13.9256 9.70071 14.3398 9.70071H18.401C18.9705 9.70071 19.4325 9.23866 19.4325 8.66921C19.4325 8.09895 18.9706 7.63673 18.401 7.63673C18.0243 7.63673 17.6498 7.63574 17.2764 7.63476C16.534 7.6328 15.7961 7.63085 15.0551 7.6367C14.6409 7.63997 14.3024 7.30685 14.2992 6.89265C14.2959 6.47844 14.629 6.14002 15.0432 6.13675C15.7918 6.13084 16.5438 6.13282 17.2912 6.13478Z" fill="black"/>
<path fill-rule="evenodd" clip-rule="evenodd" d="M13.5918 3.99023C13.5918 3.57602 13.9276 3.24023 14.3418 3.24023H18.2093C19.4246 3.24023 20.4081 4.22532 20.4081 5.43899C20.4081 6.64348 19.4409 7.62241 18.238 7.63864L18.2278 7.63878V7.63871H15.0482C14.634 7.63871 14.2982 7.30292 14.2982 6.88871C14.2982 6.4745 14.634 6.13871 15.0482 6.13871H18.2219C18.603 6.13135 18.9081 5.82099 18.9081 5.43899C18.9081 5.05309 18.5956 4.74023 18.2093 4.74023H14.3418C13.9276 4.74023 13.5918 4.40445 13.5918 3.99023Z" fill="black"/>
<path fill-rule="evenodd" clip-rule="evenodd" d="M15.75 9.70117C16.1642 9.70117 16.5 10.037 16.5 10.4512V11.3852C16.5 11.7994 16.1642 12.1352 15.75 12.1352C15.3358 12.1352 15 11.7994 15 11.3852V10.4512C15 10.037 15.3358 9.70117 15.75 9.70117Z" fill="black"/>
<path fill-rule="evenodd" clip-rule="evenodd" d="M18.2305 9.70117C18.6447 9.70117 18.9805 10.037 18.9805 10.4512V11.3852C18.9805 11.7994 18.6447 12.1352 18.2305 12.1352C17.8163 12.1352 17.4805 11.7994 17.4805 11.3852V10.4512C17.4805 10.037 17.8163 9.70117 18.2305 9.70117Z" fill="black"/>
<path fill-rule="evenodd" clip-rule="evenodd" d="M15.75 2.30273C16.1642 2.30273 16.5 2.63852 16.5 3.05273V3.98873C16.5 4.40294 16.1642 4.73873 15.75 4.73873C15.3358 4.73873 15 4.40294 15 3.98873V3.05273C15 2.63852 15.3358 2.30273 15.75 2.30273Z" fill="black"/>
<path fill-rule="evenodd" clip-rule="evenodd" d="M18.2305 2.30273C18.6447 2.30273 18.9805 2.63852 18.9805 3.05273V3.98873C18.9805 4.40294 18.6447 4.73873 18.2305 4.73873C17.8163 4.73873 17.4805 4.40294 17.4805 3.98873V3.05273C17.4805 2.63852 17.8163 2.30273 18.2305 2.30273Z" fill="black"/>
<path fill-rule="evenodd" clip-rule="evenodd" d="M14.8867 3.23828C15.3009 3.23828 15.6367 3.57407 15.6367 3.98828V10.4498C15.6367 10.864 15.3009 11.1998 14.8867 11.1998C14.4725 11.1998 14.1367 10.864 14.1367 10.4498V3.98828C14.1367 3.57407 14.4725 3.23828 14.8867 3.23828Z" fill="black"/>
<path fill-rule="evenodd" clip-rule="evenodd" d="M6.97649 4.56898C5.11814 5.06836 3.75 6.76499 3.75 8.78093C3.75 9.19514 3.41421 9.53093 3 9.53093C2.58579 9.53093 2.25 9.19514 2.25 8.78093C2.25 5.54413 4.87421 2.91992 8.11101 2.91992C8.35663 2.91992 8.58668 3.04019 8.72686 3.24188C8.86705 3.44357 8.89959 3.70112 8.81397 3.93134L8.20684 5.56398C8.06247 5.95222 7.6307 6.14991 7.24246 6.00553C6.85422 5.86116 6.65653 5.42939 6.80091 5.04115L6.97649 4.56898Z" fill="black"/>
<path fill-rule="evenodd" clip-rule="evenodd" d="M20.9997 15.0859C21.4139 15.0859 21.7497 15.4217 21.7497 15.8359C21.7497 19.0727 19.1255 21.6969 15.8887 21.6969C15.6431 21.6969 15.413 21.5767 15.2728 21.375C15.1326 21.1733 15.1001 20.9157 15.1857 20.6855L15.7928 19.0529C15.9372 18.6647 16.369 18.467 16.7572 18.6113C17.1455 18.7557 17.3432 19.1875 17.1988 19.5757L17.0232 20.0479C18.8815 19.5485 20.2497 17.8519 20.2497 15.8359C20.2497 15.4217 20.5855 15.0859 20.9997 15.0859Z" fill="black"/>
<path fill-rule="evenodd" clip-rule="evenodd" d="M3.01826 13.1395C3.53887 12.581 4.27122 12.2812 5.10356 12.2812H10.4481C11.2819 12.2812 12.0146 12.5807 12.5352 13.1399C13.0501 13.693 13.3016 14.4395 13.3016 15.2418V18.7377C13.3016 19.5404 13.0501 20.287 12.5351 20.8401C12.0144 21.3993 11.2816 21.6983 10.4481 21.6983H5.10356C4.27001 21.6983 3.53721 21.3993 3.01654 20.8401C2.50151 20.287 2.25 19.5404 2.25 18.7377V15.2418C2.25 14.4386 2.50311 13.6922 3.01826 13.1395ZM4.11549 14.1623C3.90214 14.3912 3.75 14.7501 3.75 15.2418V18.7377C3.75 19.231 3.90179 19.5897 4.11429 19.8179C4.32116 20.0401 4.64014 20.1983 5.10356 20.1983H10.4481C10.9115 20.1983 11.2305 20.0401 11.4373 19.8179C11.6498 19.5897 11.8016 19.231 11.8016 18.7377V15.2418C11.8016 14.7491 11.6499 14.3904 11.4373 14.1619C11.2303 13.9396 10.9113 13.7812 10.4481 13.7812H5.10356C4.64282 13.7812 4.32339 13.9393 4.11549 14.1623Z" fill="black"/>
<path fill-rule="evenodd" clip-rule="evenodd" d="M2.25 15.8418C2.25 15.4276 2.58579 15.0918 3 15.0918H12.5516C12.9659 15.0918 13.3016 15.4276 13.3016 15.8418C13.3016 16.256 12.9659 16.5918 12.5516 16.5918H3C2.58579 16.5918 2.25 16.256 2.25 15.8418Z" fill="black"/>
</svg>
