<svg width="24" height="24" viewBox="0 0 24 24" fill="none" xmlns="http://www.w3.org/2000/svg">
<path fill-rule="evenodd" clip-rule="evenodd" d="M12 3.75C7.44329 3.75 3.75 7.44329 3.75 12C3.75 16.5567 7.44329 20.25 12 20.25C16.5567 20.25 20.25 16.5567 20.25 12C20.25 7.44329 16.5567 3.75 12 3.75ZM2.25 12C2.25 6.61487 6.61487 2.25 12 2.25C17.3851 2.25 21.75 6.61487 21.75 12C21.75 17.3851 17.3851 21.75 12 21.75C6.61487 21.75 2.25 17.3851 2.25 12Z" fill="black"/>
<path fill-rule="evenodd" clip-rule="evenodd" d="M11.1245 7.83604C11.666 7.5234 12.3331 7.5234 12.8746 7.83604L15.1691 9.16082C15.7105 9.47343 16.0441 10.0511 16.0441 10.6763V13.326C16.0441 13.9512 15.7105 14.5289 15.1691 14.8415L12.8746 16.1663C12.3331 16.4789 11.666 16.4789 11.1245 16.1663L8.83005 14.8415C8.28861 14.5289 7.95508 13.9512 7.95508 13.326V10.6763C7.95508 10.0511 8.28861 9.47343 8.83005 9.16082L11.1245 7.83604ZM12.1246 9.13506C12.0472 9.0904 11.9519 9.0904 11.8746 9.13506L9.58007 10.4598C9.50273 10.5045 9.45508 10.587 9.45508 10.6763V13.326C9.45508 13.4153 9.50273 13.4978 9.58007 13.5425L11.8746 14.8673C11.9519 14.9119 12.0472 14.9119 12.1246 14.8673L14.4191 13.5425C14.4964 13.4978 14.5441 13.4153 14.5441 13.326V10.6763C14.5441 10.587 14.4964 10.5045 14.4191 10.4598L12.1246 9.13506Z" fill="black"/>
</svg>
