<svg width="24" height="24" viewBox="0 0 24 24" fill="none" xmlns="http://www.w3.org/2000/svg">
<path fill-rule="evenodd" clip-rule="evenodd" d="M2.25 12C2.25 6.61487 6.61487 2.25 12 2.25C17.3851 2.25 21.75 6.61487 21.75 12C21.75 17.3851 17.3851 21.75 12 21.75C6.61487 21.75 2.25 17.3851 2.25 12ZM12 3.75C7.44329 3.75 3.75 7.44329 3.75 12C3.75 16.5567 7.44329 20.25 12 20.25C16.5567 20.25 20.25 16.5567 20.25 12C20.25 7.44329 16.5567 3.75 12 3.75Z" fill="black"/>
<path fill-rule="evenodd" clip-rule="evenodd" d="M8.50195 8.01758C8.50195 7.60336 8.83774 7.26758 9.25195 7.26758H12.4384C15.0828 7.26758 17.1708 9.35581 17.1708 12.0009C17.1708 14.6452 15.0827 16.7333 12.4384 16.7333H9.25195C8.83774 16.7333 8.50195 16.3975 8.50195 15.9833V8.01758ZM10.002 8.76758V15.2333H12.4384C14.2543 15.2333 15.6708 13.8168 15.6708 12.0009C15.6708 10.184 14.2542 8.76758 12.4384 8.76758H10.002Z" fill="black"/>
<path fill-rule="evenodd" clip-rule="evenodd" d="M6.9707 13.2051C6.9707 12.7909 7.30649 12.4551 7.7207 12.4551H17.3843C17.7985 12.4551 18.1343 12.7909 18.1343 13.2051C18.1343 13.6193 17.7985 13.9551 17.3843 13.9551H7.7207C7.30649 13.9551 6.9707 13.6193 6.9707 13.2051Z" fill="black"/>
<path fill-rule="evenodd" clip-rule="evenodd" d="M6.9707 10.7949C6.9707 10.3807 7.30649 10.0449 7.7207 10.0449H17.3843C17.7985 10.0449 18.1343 10.3807 18.1343 10.7949C18.1343 11.2091 17.7985 11.5449 17.3843 11.5449H7.7207C7.30649 11.5449 6.9707 11.2091 6.9707 10.7949Z" fill="black"/>
</svg>
