<svg width="24" height="24" viewBox="0 0 24 24" fill="none" xmlns="http://www.w3.org/2000/svg">
<path d="M16.216 21.75H7.78201C4.47401 21.75 2.25 19.429 2.25 15.974V8.02698C2.25 4.57198 4.47401 2.25 7.78201 2.25H16.217C19.526 2.25 21.75 4.57198 21.75 8.02698V15.974C21.75 19.429 19.526 21.75 16.216 21.75ZM7.78201 3.75C5.33301 3.75 3.75 5.42898 3.75 8.02698V15.974C3.75 18.574 5.33301 20.25 7.78201 20.25H16.216C18.666 20.25 20.25 18.572 20.25 15.974V8.02698C20.25 5.42698 18.667 3.75 16.217 3.75H7.78201Z" fill="black"/>
<path d="M12.4416 15.8976H9.05664C8.85773 15.8976 8.66696 15.8185 8.52631 15.6779C8.38565 15.5372 8.30664 15.3465 8.30664 15.1476C8.30664 14.9486 8.38565 14.7579 8.52631 14.6172C8.66696 14.4766 8.85773 14.3976 9.05664 14.3976H12.4416C12.7679 14.4164 13.0946 14.3684 13.4017 14.2566C13.7088 14.1447 13.9898 13.9713 14.2275 13.7469C14.4652 13.5226 14.6545 13.2521 14.784 12.9519C14.9134 12.6518 14.9801 12.3284 14.9801 12.0016C14.9801 11.6747 14.9134 11.3514 14.784 11.0512C14.6545 10.7511 14.4652 10.4806 14.2275 10.2563C13.9898 10.0319 13.7088 9.8585 13.4017 9.74661C13.0946 9.63473 12.7679 9.5867 12.4416 9.60556H10.0916C9.89273 9.60556 9.70196 9.52655 9.56131 9.3859C9.42066 9.24524 9.34164 9.05447 9.34164 8.85556C9.34164 8.65665 9.42066 8.46588 9.56131 8.32523C9.70196 8.18458 9.89273 8.10556 10.0916 8.10556H12.4416C12.9681 8.0817 13.494 8.1648 13.9875 8.34983C14.4809 8.53485 14.9318 8.81797 15.3128 9.1821C15.6938 9.54623 15.997 9.98383 16.2042 10.4684C16.4114 10.953 16.5182 11.4745 16.5182 12.0016C16.5182 12.5286 16.4114 13.0502 16.2042 13.5348C15.997 14.0194 15.6938 14.4569 15.3128 14.821C14.9318 15.1851 14.4809 15.4683 13.9875 15.6533C13.494 15.8383 12.9681 15.9214 12.4416 15.8976V15.8976Z" fill="black"/>
<path d="M10.5721 12.75H8.41016C8.21124 12.75 8.02047 12.671 7.87982 12.5303C7.73917 12.3897 7.66016 12.1989 7.66016 12C7.66016 11.8011 7.73917 11.6103 7.87982 11.4697C8.02047 11.329 8.21124 11.25 8.41016 11.25H10.5721C10.7711 11.25 10.9618 11.329 11.1025 11.4697C11.2431 11.6103 11.3221 11.8011 11.3221 12C11.3221 12.1989 11.2431 12.3897 11.1025 12.5303C10.9618 12.671 10.7711 12.75 10.5721 12.75Z" fill="black"/>
</svg>
