<svg width="24" height="24" viewBox="0 0 24 24" fill="none" xmlns="http://www.w3.org/2000/svg">
<path fill-rule="evenodd" clip-rule="evenodd" d="M3.7402 3.89737C4.72468 2.84117 6.12669 2.25 7.78216 2.25H16.2169C17.8762 2.25 19.2788 2.84084 20.2629 3.89765C21.2413 4.94841 21.75 6.39889 21.75 8.02638V15.9736C21.75 17.6011 21.2413 19.0516 20.2627 20.1024C19.2785 21.1592 17.8756 21.75 16.2159 21.75H7.78216C6.1228 21.75 4.72038 21.1591 3.73657 20.1023C2.75842 19.0515 2.25 17.601 2.25 15.9736V8.02638C2.25 6.39806 2.76117 4.94771 3.7402 3.89737ZM4.83745 4.92012C4.16024 5.64666 3.75 6.70951 3.75 8.02638V15.9736C3.75 17.2914 4.15861 18.3541 4.83451 19.0802C5.50475 19.8003 6.49341 20.25 7.78216 20.25H16.2159C17.5052 20.25 18.4944 19.8002 19.165 19.0801C19.8412 18.354 20.25 17.2913 20.25 15.9736V8.02638C20.25 6.70868 19.8412 5.64597 19.1651 4.91984C18.4946 4.19975 17.5056 3.75 16.2169 3.75H7.78216C6.49828 3.75 5.50921 4.19943 4.83745 4.92012Z" fill="black"/>
<path fill-rule="evenodd" clip-rule="evenodd" d="M6.99219 11.4636C6.99219 9.26022 8.79118 7.46094 10.9939 7.46094H15.3207C15.7349 7.46094 16.0707 7.79672 16.0707 8.21094C16.0707 8.62515 15.7349 8.96094 15.3207 8.96094H10.9939C9.6199 8.96094 8.49219 10.0884 8.49219 11.4636V12.5377C8.49219 13.9119 9.61975 15.0394 10.9939 15.0394H15.3207C15.7349 15.0394 16.0707 15.3752 16.0707 15.7894C16.0707 16.2036 15.7349 16.5394 15.3207 16.5394H10.9939C8.79133 16.5394 6.99219 14.7403 6.99219 12.5377V11.4636Z" fill="black"/>
<path fill-rule="evenodd" clip-rule="evenodd" d="M7.74214 11.2505L15.3206 11.25C15.7348 11.25 16.0706 11.5857 16.0707 12C16.0707 12.4142 15.7349 12.75 15.3207 12.75L7.74223 12.7505C7.32802 12.7505 6.99221 12.4147 6.99219 12.0005C6.99216 11.5863 7.32793 11.2505 7.74214 11.2505Z" fill="black"/>
</svg>
