<svg width="24" height="24" viewBox="0 0 24 24" fill="none" xmlns="http://www.w3.org/2000/svg">
<path fill-rule="evenodd" clip-rule="evenodd" d="M2.25 4C2.25 3.0335 3.0335 2.25 4 2.25H20C20.9665 2.25 21.75 3.0335 21.75 4V6.5C21.75 7.4665 20.9665 8.25 20 8.25H8.25V20C8.25 20.9665 7.4665 21.75 6.5 21.75H4C3.0335 21.75 2.25 20.9665 2.25 20V4ZM4 3.75C3.86193 3.75 3.75 3.86193 3.75 4V20C3.75 20.1381 3.86193 20.25 4 20.25H6.5C6.63807 20.25 6.75 20.1381 6.75 20V7.5C6.75 7.08579 7.08579 6.75 7.5 6.75H20C20.1381 6.75 20.25 6.63807 20.25 6.5V4C20.25 3.86193 20.1381 3.75 20 3.75H4Z" fill="black"/>
<path fill-rule="evenodd" clip-rule="evenodd" d="M13 12.75C12.8619 12.75 12.75 12.8619 12.75 13V15.5C12.75 15.6381 12.8619 15.75 13 15.75H16.5C16.9142 15.75 17.25 16.0858 17.25 16.5V20.1742C17.9651 20.0283 18.6279 19.6754 19.1516 19.1516C19.8549 18.4484 20.25 17.4946 20.25 16.5V13C20.25 12.8619 20.1381 12.75 20 12.75H13ZM11.25 13C11.25 12.0335 12.0335 11.25 13 11.25H20C20.9665 11.25 21.75 12.0335 21.75 13V16.5C21.75 17.8924 21.1969 19.2277 20.2123 20.2123C19.2277 21.1969 17.8924 21.75 16.5 21.75C16.3011 21.75 16.1103 21.671 15.9697 21.5303C15.829 21.3897 15.75 21.1989 15.75 21V17.25H13C12.0335 17.25 11.25 16.4665 11.25 15.5V13Z" fill="black"/>
</svg>
