<svg width="24" height="24" viewBox="0 0 24 24" fill="none" xmlns="http://www.w3.org/2000/svg">
<path d="M12 21.75C10.0716 21.75 8.18657 21.1782 6.58319 20.1068C4.97981 19.0355 3.73013 17.5127 2.99217 15.7312C2.25422 13.9496 2.06114 11.9892 2.43735 10.0979C2.81356 8.20655 3.74215 6.46927 5.10572 5.10571C6.46928 3.74215 8.20656 2.81355 10.0979 2.43735C11.9892 2.06114 13.9496 2.25423 15.7312 2.99219C17.5128 3.73014 19.0355 4.97981 20.1068 6.58319C21.1782 8.18657 21.75 10.0716 21.75 12C21.7471 14.585 20.7189 17.0632 18.8911 18.8911C17.0632 20.7189 14.585 21.7471 12 21.75ZM12 3.75C10.3683 3.75 8.77326 4.23386 7.41655 5.14038C6.05985 6.0469 5.00242 7.33537 4.37799 8.84286C3.75357 10.3504 3.5902 12.0092 3.90853 13.6095C4.22685 15.2098 5.01259 16.6799 6.16637 17.8336C7.32015 18.9874 8.79016 19.7732 10.3905 20.0915C11.9908 20.4098 13.6496 20.2464 15.1571 19.622C16.6646 18.9976 17.9531 17.9402 18.8596 16.5835C19.7661 15.2268 20.25 13.6317 20.25 12C20.2476 9.81269 19.3777 7.71566 17.831 6.169C16.2843 4.62235 14.1873 3.75238 12 3.75V3.75Z" fill="black"/>
<path d="M9.15263 17.0637C8.53293 17.0556 7.94087 16.8059 7.50264 16.3677C7.06441 15.9294 6.81467 15.3374 6.80664 14.7177C6.80664 12.7597 8.67763 11.7177 10.4276 11.3947C10.9379 11.3148 11.4525 11.2657 11.9686 11.2477C12.3776 11.2237 12.7846 11.2017 13.1346 11.1477C13.7047 11.0635 14.2568 10.8854 14.7686 10.6207C15.0372 10.5121 15.2682 10.3273 15.4329 10.089C15.5977 9.85066 15.689 9.56932 15.6956 9.27968C15.6865 9.05058 15.5885 8.83404 15.4223 8.67607C15.2561 8.51811 15.0349 8.43115 14.8056 8.43367V6.93367C15.4334 6.92861 16.0376 7.17274 16.4857 7.61253C16.9337 8.05233 17.189 8.65189 17.1956 9.27968C17.1878 9.8432 17.0207 10.393 16.7137 10.8656C16.4067 11.3382 15.9723 11.7144 15.4606 11.9507C14.8027 12.2913 14.0932 12.5213 13.3606 12.6317C12.9696 12.6897 12.5166 12.7177 12.0606 12.7437C11.6066 12.76 11.1539 12.802 10.7046 12.8697C10.3046 12.9427 8.31264 13.3777 8.31264 14.7167C8.31821 14.9393 8.40913 15.1513 8.56659 15.3087C8.72405 15.4662 8.93601 15.5571 9.15863 15.5627L9.15263 17.0637Z" fill="black"/>
<path d="M9.28264 17.0626C8.62621 17.0618 7.99688 16.8007 7.53271 16.3365C7.06855 15.8723 6.80743 15.243 6.80664 14.5866V9.40961C6.80664 8.75293 7.06749 8.12312 7.53183 7.65878C7.99617 7.19444 8.62596 6.93359 9.28264 6.93359C9.93931 6.93359 10.5691 7.19444 11.0334 7.65878C11.4978 8.12312 11.7586 8.75293 11.7586 9.40961V14.5866C11.7578 15.243 11.4967 15.8723 11.0325 16.3365C10.5684 16.8007 9.93907 17.0618 9.28264 17.0626V17.0626ZM9.28264 8.43359C9.02387 8.43386 8.77577 8.53678 8.59279 8.71976C8.40981 8.90274 8.30691 9.15084 8.30664 9.40961V14.5866C8.30664 14.8455 8.40946 15.0937 8.5925 15.2767C8.77553 15.4598 9.02379 15.5626 9.28264 15.5626C9.54149 15.5626 9.78973 15.4598 9.97276 15.2767C10.1558 15.0937 10.2586 14.8455 10.2586 14.5866V9.40961C10.2584 9.15084 10.1555 8.90274 9.97247 8.71976C9.78949 8.53678 9.54141 8.43386 9.28264 8.43359V8.43359Z" fill="black"/>
<path d="M14.7182 17.0626C14.0618 17.0618 13.4324 16.8007 12.9683 16.3365C12.5041 15.8723 12.243 15.243 12.2422 14.5866V9.40961C12.2422 8.75293 12.5031 8.12312 12.9674 7.65878C13.4317 7.19444 14.0615 6.93359 14.7182 6.93359C15.3749 6.93359 16.0046 7.19444 16.469 7.65878C16.9333 8.12312 17.1942 8.75293 17.1942 9.40961V14.5866C17.1934 15.243 16.9323 15.8723 16.4681 16.3365C16.0039 16.8007 15.3746 17.0618 14.7182 17.0626V17.0626ZM14.7182 8.43359C14.4594 8.43386 14.2113 8.53678 14.0283 8.71976C13.8454 8.90274 13.7425 9.15084 13.7422 9.40961V14.5866C13.7422 14.8455 13.845 15.0937 14.028 15.2767C14.2111 15.4598 14.4593 15.5626 14.7182 15.5626C14.977 15.5626 15.2253 15.4598 15.4083 15.2767C15.5914 15.0937 15.6942 14.8455 15.6942 14.5866V9.40961C15.6939 9.15084 15.591 8.90274 15.408 8.71976C15.225 8.53678 14.977 8.43386 14.7182 8.43359V8.43359Z" fill="black"/>
</svg>
