<svg width="24" height="24" viewBox="0 0 24 24" fill="none" xmlns="http://www.w3.org/2000/svg">
<path fill-rule="evenodd" clip-rule="evenodd" d="M3.7402 3.89737C4.72468 2.84117 6.12669 2.25 7.78216 2.25H16.2169C17.8762 2.25 19.2788 2.84084 20.2629 3.89765C21.2413 4.94841 21.75 6.39889 21.75 8.02638V15.9736C21.75 17.6011 21.2413 19.0516 20.2627 20.1024C19.2785 21.1592 17.8756 21.75 16.2159 21.75H7.78216C6.1228 21.75 4.72038 21.1591 3.73657 20.1023C2.75842 19.0515 2.25 17.601 2.25 15.9736V8.02638C2.25 6.39806 2.76117 4.94771 3.7402 3.89737ZM4.83745 4.92012C4.16024 5.64666 3.75 6.70951 3.75 8.02638V15.9736C3.75 17.2914 4.15861 18.3541 4.83451 19.0802C5.50475 19.8003 6.49341 20.25 7.78216 20.25H16.2159C17.5052 20.25 18.4944 19.8002 19.165 19.0801C19.8412 18.354 20.25 17.2913 20.25 15.9736V8.02638C20.25 6.70868 19.8412 5.64597 19.1651 4.91984C18.4946 4.19975 17.5056 3.75 16.2169 3.75H7.78216C6.49828 3.75 5.50921 4.19943 4.83745 4.92012Z" fill="black"/>
<path fill-rule="evenodd" clip-rule="evenodd" d="M7.21289 9.01953C7.21289 8.60532 7.54868 8.26953 7.96289 8.26953C10.0224 8.26953 11.6921 9.93926 11.6921 11.9988C11.6921 14.0586 10.0221 15.727 7.96289 15.727C7.54868 15.727 7.21289 15.3913 7.21289 14.977C7.21289 14.5628 7.54868 14.227 7.96289 14.227C9.19429 14.227 10.1921 13.2295 10.1921 11.9988C10.1921 10.7677 9.19397 9.76953 7.96289 9.76953C7.54868 9.76953 7.21289 9.43374 7.21289 9.01953Z" fill="black"/>
<path fill-rule="evenodd" clip-rule="evenodd" d="M12.3086 11.9988C12.3086 9.93926 13.9783 8.26953 16.0378 8.26953C16.4521 8.26953 16.7878 8.60532 16.7878 9.01953C16.7878 9.43374 16.4521 9.76953 16.0378 9.76953C14.8068 9.76953 13.8086 10.7677 13.8086 11.9988C13.8086 13.2295 14.8064 14.227 16.0378 14.227C16.4521 14.227 16.7878 14.5628 16.7878 14.977C16.7878 15.3913 16.4521 15.727 16.0378 15.727C13.9786 15.727 12.3086 14.0586 12.3086 11.9988Z" fill="black"/>
<path fill-rule="evenodd" clip-rule="evenodd" d="M8.87695 12C8.87695 11.5858 9.21274 11.25 9.62695 11.25H14.3721C14.7864 11.25 15.1221 11.5858 15.1221 12C15.1221 12.4142 14.7864 12.75 14.3721 12.75H9.62695C9.21274 12.75 8.87695 12.4142 8.87695 12Z" fill="black"/>
</svg>
