<svg width="24" height="24" viewBox="0 0 24 24" fill="none" xmlns="http://www.w3.org/2000/svg">
<path fill-rule="evenodd" clip-rule="evenodd" d="M12 3.75C7.44329 3.75 3.75 7.44329 3.75 12C3.75 16.5567 7.44329 20.25 12 20.25C16.5567 20.25 20.25 16.5567 20.25 12C20.25 7.44329 16.5567 3.75 12 3.75ZM2.25 12C2.25 6.61487 6.61487 2.25 12 2.25C17.3851 2.25 21.75 6.61487 21.75 12C21.75 17.3851 17.3851 21.75 12 21.75C6.61487 21.75 2.25 17.3851 2.25 12Z" fill="black"/>
<path fill-rule="evenodd" clip-rule="evenodd" d="M7.93164 15.2031C8.34585 15.2031 8.68164 15.5389 8.68164 15.9531V15.9631C8.68164 16.3773 8.34585 16.7131 7.93164 16.7131C7.51743 16.7131 7.18164 16.3773 7.18164 15.9631V15.9531C7.18164 15.5389 7.51743 15.2031 7.93164 15.2031Z" fill="black"/>
<path fill-rule="evenodd" clip-rule="evenodd" d="M15.9824 7.15234C16.3966 7.15234 16.7324 7.48813 16.7324 7.90234V7.91234C16.7324 8.32656 16.3966 8.66234 15.9824 8.66234C15.5682 8.66234 15.2324 8.32656 15.2324 7.91234V7.90234C15.2324 7.48813 15.5682 7.15234 15.9824 7.15234Z" fill="black"/>
<path fill-rule="evenodd" clip-rule="evenodd" d="M11.9482 9.3457C10.4486 9.3457 9.23633 10.5608 9.23633 12.0498C9.23633 12.4559 9.32019 12.8302 9.47118 13.1504C9.64784 13.5251 9.48734 13.972 9.11268 14.1487C8.73803 14.3253 8.2911 14.1648 8.11445 13.7902C7.86263 13.2561 7.73633 12.6614 7.73633 12.0498C7.73633 9.73047 9.62205 7.8457 11.9482 7.8457C12.5522 7.8457 13.1465 7.97246 13.6802 8.22354C14.055 8.39987 14.2159 8.84666 14.0396 9.22146C13.8632 9.59627 13.4165 9.75717 13.0416 9.58084C12.7191 9.42911 12.3444 9.3457 11.9482 9.3457Z" fill="black"/>
<path fill-rule="evenodd" clip-rule="evenodd" d="M14.7319 9.86782C15.1038 9.68541 15.5532 9.83902 15.7356 10.2109C16.0115 10.7735 16.1596 11.3943 16.1596 12.0503C16.1596 14.3776 14.2735 16.2621 11.9467 16.2621C11.2944 16.2621 10.6635 16.1166 10.1028 15.8368C9.73219 15.6519 9.58163 15.2015 9.76656 14.8309C9.95148 14.4602 10.4019 14.3097 10.7725 14.4946C11.1167 14.6663 11.5171 14.7621 11.9467 14.7621C13.4457 14.7621 14.6596 13.5486 14.6596 12.0503C14.6596 11.6243 14.5644 11.2293 14.3888 10.8715C14.2064 10.4996 14.36 10.0502 14.7319 9.86782Z" fill="black"/>
</svg>
