<svg width="24" height="24" viewBox="0 0 24 24" fill="none" xmlns="http://www.w3.org/2000/svg">
<path fill-rule="evenodd" clip-rule="evenodd" d="M6 3.75C4.75736 3.75 3.75 4.75736 3.75 6V18C3.75 19.2426 4.75736 20.25 6 20.25H18C19.2426 20.25 20.25 19.2426 20.25 18V6C20.25 4.75736 19.2426 3.75 18 3.75H6ZM2.25 6C2.25 3.92893 3.92893 2.25 6 2.25H18C20.0711 2.25 21.75 3.92893 21.75 6V18C21.75 20.0711 20.0711 21.75 18 21.75H6C3.92893 21.75 2.25 20.0711 2.25 18V6Z" fill="black"/>
<path fill-rule="evenodd" clip-rule="evenodd" d="M2.25 9C2.25 8.58579 2.58579 8.25 3 8.25H9C9.41421 8.25 9.75 8.58579 9.75 9C9.75 9.41421 9.41421 9.75 9 9.75H3C2.58579 9.75 2.25 9.41421 2.25 9Z" fill="black"/>
<path fill-rule="evenodd" clip-rule="evenodd" d="M15 14.25C15.4142 14.25 15.75 14.5858 15.75 15V21C15.75 21.4142 15.4142 21.75 15 21.75C14.5858 21.75 14.25 21.4142 14.25 21V15C14.25 14.5858 14.5858 14.25 15 14.25Z" fill="black"/>
<path fill-rule="evenodd" clip-rule="evenodd" d="M2.25 15C2.25 14.5858 2.58579 14.25 3 14.25H21C21.4142 14.25 21.75 14.5858 21.75 15C21.75 15.4142 21.4142 15.75 21 15.75H3C2.58579 15.75 2.25 15.4142 2.25 15Z" fill="black"/>
<path fill-rule="evenodd" clip-rule="evenodd" d="M9 2.25C9.41421 2.25 9.75 2.58579 9.75 3V21C9.75 21.4142 9.41421 21.75 9 21.75C8.58579 21.75 8.25 21.4142 8.25 21V3C8.25 2.58579 8.58579 2.25 9 2.25Z" fill="black"/>
</svg>
