<svg width="24" height="24" viewBox="0 0 24 24" fill="none" xmlns="http://www.w3.org/2000/svg">
<path d="M18.0039 15.75C16.7609 15.6266 15.5817 15.1397 14.6139 14.35C13.8531 13.8051 12.9407 13.5121 12.0049 13.5121C11.0691 13.5121 10.1568 13.8051 9.39594 14.35C8.42753 15.14 7.24764 15.627 6.00391 15.75C5.00934 15.75 4.0555 15.3549 3.35223 14.6516C2.64897 13.9483 2.25391 12.9946 2.25391 12C2.25391 11.0054 2.64897 10.0516 3.35223 9.34833C4.0555 8.64507 5.00934 8.25 6.00391 8.25C7.2476 8.37194 8.42742 8.859 9.3949 9.64996C10.1482 10.2046 11.0595 10.5032 11.9949 10.502H12.0029C12.9383 10.5034 13.8494 10.2052 14.6029 9.651C15.5707 8.85986 16.7509 8.37272 17.9949 8.25098C18.9895 8.25098 19.9433 8.64604 20.6465 9.3493C21.3498 10.0526 21.7449 11.0064 21.7449 12.001C21.7449 12.9955 21.3498 13.9494 20.6465 14.6526C19.9433 15.3559 18.9895 15.751 17.9949 15.751L18.0039 15.75ZM12.0039 12C13.2608 11.9969 14.4854 12.3979 15.4969 13.144C16.208 13.7462 17.0778 14.1303 18.0019 14.25C18.5986 14.25 19.1709 14.0129 19.5929 13.5909C20.0149 13.169 20.2519 12.5967 20.2519 12C20.2519 11.4033 20.0149 10.831 19.5929 10.409C19.1709 9.98704 18.5986 9.75 18.0019 9.75C17.0781 9.8738 16.2088 10.2585 15.4959 10.8589C14.4852 11.6032 13.2621 12.0032 12.0069 12H12.0039ZM6.00391 9.75C5.40717 9.75 4.83486 9.98704 4.4129 10.409C3.99095 10.831 3.75391 11.4033 3.75391 12C3.75391 12.5967 3.99095 13.169 4.4129 13.5909C4.83486 14.0129 5.40717 14.25 6.00391 14.25C6.92889 14.13 7.79951 13.7452 8.51093 13.142C9.52285 12.3969 10.7473 11.9966 12.0039 12H11.9979C10.7426 12.0031 9.51948 11.6027 8.50891 10.858C7.79622 10.258 6.92726 9.8737 6.00391 9.75V9.75Z" fill="black"/>
</svg>
