<svg width="24" height="24" viewBox="0 0 24 24" fill="none" xmlns="http://www.w3.org/2000/svg">
<path fill-rule="evenodd" clip-rule="evenodd" d="M3.7402 3.89737C4.72468 2.84117 6.12669 2.25 7.78216 2.25H16.2169C17.8762 2.25 19.2788 2.84084 20.2629 3.89765C21.2413 4.94841 21.75 6.39889 21.75 8.02638V15.9736C21.75 17.6011 21.2413 19.0516 20.2627 20.1024C19.2785 21.1592 17.8756 21.75 16.2159 21.75H7.78216C6.1228 21.75 4.72038 21.1591 3.73657 20.1023C2.75842 19.0515 2.25 17.601 2.25 15.9736V8.02638C2.25 6.39806 2.76117 4.94771 3.7402 3.89737ZM4.83745 4.92012C4.16024 5.64666 3.75 6.70951 3.75 8.02638V15.9736C3.75 17.2914 4.15861 18.3541 4.83451 19.0802C5.50475 19.8003 6.49341 20.25 7.78216 20.25H16.2159C17.5052 20.25 18.4944 19.8002 19.165 19.0801C19.8412 18.354 20.25 17.2913 20.25 15.9736V8.02638C20.25 6.70868 19.8412 5.64597 19.1651 4.91984C18.4946 4.19975 17.5056 3.75 16.2169 3.75H7.78216C6.49828 3.75 5.50921 4.19943 4.83745 4.92012Z" fill="black"/>
<path fill-rule="evenodd" clip-rule="evenodd" d="M12.7412 7.66542C13.1418 7.77067 13.3813 8.18075 13.276 8.58137L11.6268 14.8593H14.516C14.9302 14.8593 15.266 15.1951 15.266 15.6093C15.266 16.0235 14.9302 16.3593 14.516 16.3593H10.6543C10.4218 16.3593 10.2024 16.2514 10.0604 16.0673C9.91841 15.8832 9.86984 15.6436 9.92892 15.4187L11.8252 8.20025C11.9305 7.79963 12.3406 7.56018 12.7412 7.66542Z" fill="black"/>
<path fill-rule="evenodd" clip-rule="evenodd" d="M14.2682 11.5632C14.365 11.9659 14.1169 12.3709 13.7142 12.4677L9.65786 13.4426C9.25512 13.5394 8.85016 13.2914 8.75336 12.8886C8.65656 12.4859 8.90458 12.0809 9.30733 11.9841L13.3637 11.0092C13.7664 10.9124 14.1714 11.1604 14.2682 11.5632Z" fill="black"/>
</svg>
