<svg width="24" height="24" viewBox="0 0 24 24" fill="none" xmlns="http://www.w3.org/2000/svg">
<path fill-rule="evenodd" clip-rule="evenodd" d="M4.52987 4.30783C4.38445 4.22473 4.19989 4.30349 4.15927 4.46598L3.78294 5.97132C3.77386 6.00762 3.77296 6.04549 3.7803 6.08219L4.41543 9.25782C4.50628 9.71211 4.37332 10.1811 4.0605 10.5197L4.59808 11.0573C5.06679 11.526 5.23045 12.2193 5.02084 12.8482L3.79636 16.5216C3.78246 16.5633 3.77968 16.6079 3.7883 16.6511L4.26537 19.0364C4.29519 19.1855 4.44891 19.2747 4.59314 19.2266L7.56392 18.2364C8.07624 18.0656 8.63871 18.1409 9.08805 18.4405L10.6847 19.5049C10.7262 19.5326 10.775 19.5474 10.8249 19.5474H13.2259C13.2758 19.5474 13.3246 19.5326 13.3661 19.5049L14.9627 18.4405C15.4121 18.1409 15.9745 18.0656 16.4869 18.2364L19.4576 19.2266C19.6019 19.2747 19.7556 19.1855 19.7854 19.0364L20.2625 16.6511C20.2711 16.608 20.2683 16.5633 20.2544 16.5216L19.0299 12.8482C18.8203 12.2193 18.984 11.526 19.4527 11.0573L19.9903 10.5197C19.6775 10.1811 19.5445 9.71211 19.6354 9.25782L20.2705 6.08219C20.2778 6.04549 20.2769 6.00762 20.2678 5.97132L19.8915 4.46598C19.8509 4.30349 19.6663 4.22473 19.5209 4.30783L15.6363 6.5276C15.3719 6.67869 15.0726 6.75817 14.7681 6.75817H9.28271C8.97816 6.75817 8.67888 6.67869 8.41446 6.5276L4.52987 4.30783ZM2.70406 4.10217C2.98576 2.97537 4.26564 2.42921 5.27408 3.00547L9.15867 5.22523C9.19644 5.24682 9.2392 5.25817 9.28271 5.25817H14.7681C14.8116 5.25817 14.8543 5.24682 14.8921 5.22523L18.7767 3.00547C19.7851 2.42921 21.065 2.97538 21.3467 4.10217L21.7231 5.60752C21.786 5.85929 21.7922 6.12189 21.7414 6.37636L21.1122 9.52236C21.6539 10.0873 21.6467 10.9846 21.0906 11.5408L20.5134 12.118C20.4464 12.1849 20.423 12.284 20.453 12.3738L21.6774 16.0472C21.7739 16.3366 21.7932 16.6461 21.7334 16.9453L21.2563 19.3306C21.0495 20.3644 19.9835 20.9831 18.9833 20.6497L16.0125 19.6594C15.9393 19.635 15.859 19.6458 15.7948 19.6886L14.1982 20.753C13.9102 20.9449 13.5719 21.0474 13.2259 21.0474H10.8249C10.4788 21.0474 10.1405 20.9449 9.85262 20.753L8.256 19.6886C8.1918 19.6458 8.11145 19.635 8.03826 19.6594L5.06748 20.6497C4.06731 20.9831 3.00126 20.3644 2.7945 19.3306L2.31743 16.9453C2.25761 16.6462 2.27688 16.3366 2.37334 16.0472L3.59781 12.3738C3.62776 12.284 3.60438 12.1849 3.53742 12.118L2.9602 11.5408C2.40403 10.9846 2.39684 10.0873 2.93863 9.52236L2.30943 6.37636C2.25853 6.12189 2.26478 5.85928 2.32772 5.60752L2.70406 4.10217Z" fill="black"/>
<path fill-rule="evenodd" clip-rule="evenodd" d="M12.0254 17.291C12.4396 17.291 12.7754 17.6268 12.7754 18.041V20.2972C12.7754 20.7114 12.4396 21.0472 12.0254 21.0472C11.6112 21.0472 11.2754 20.7114 11.2754 20.2972V18.041C11.2754 17.6268 11.6112 17.291 12.0254 17.291Z" fill="black"/>
<path fill-rule="evenodd" clip-rule="evenodd" d="M9.5875 15.1328C9.90377 14.6057 10.4734 14.2832 11.0881 14.2832H12.964C13.5787 14.2832 14.1483 14.6057 14.4646 15.1328L16.4295 18.4076C16.6426 18.7628 16.5274 19.2235 16.1722 19.4366C15.817 19.6497 15.3564 19.5346 15.1432 19.1794L13.1784 15.9046C13.1332 15.8293 13.0518 15.7832 12.964 15.7832H11.0881C11.0003 15.7832 10.9189 15.8293 10.8737 15.9046L8.90886 19.1794C8.69575 19.5346 8.23505 19.6497 7.87987 19.4366C7.52468 19.2235 7.40951 18.7628 7.62262 18.4076L9.5875 15.1328Z" fill="black"/>
<path fill-rule="evenodd" clip-rule="evenodd" d="M8.83585 5.28038C9.2377 5.17992 9.6449 5.42424 9.74536 5.82609L10.4974 8.83434C10.5047 8.8636 10.5103 8.89328 10.514 8.92321L11.2661 14.9397C11.3175 15.3507 11.0259 15.7256 10.6149 15.7769C10.2039 15.8283 9.82905 15.5368 9.77767 15.1258L9.03123 9.1542L8.29015 6.18989C8.18969 5.78805 8.43401 5.38084 8.83585 5.28038Z" fill="black"/>
<path fill-rule="evenodd" clip-rule="evenodd" d="M15.2154 5.28038C15.6172 5.38084 15.8616 5.78805 15.7611 6.18989L15.02 9.1542L14.2736 15.1258C14.2222 15.5368 13.8474 15.8283 13.4363 15.7769C13.0253 15.7256 12.7338 15.3507 12.7852 14.9397L13.5372 8.92321C13.541 8.89328 13.5465 8.8636 13.5538 8.83434L14.3059 5.82609C14.4064 5.42424 14.8136 5.17992 15.2154 5.28038Z" fill="black"/>
<path fill-rule="evenodd" clip-rule="evenodd" d="M10.4197 8.64365C10.6252 9.00329 10.5002 9.46143 10.1406 9.66694L4.87614 12.6752C4.5165 12.8807 4.05836 12.7557 3.85285 12.3961C3.64734 12.0365 3.77229 11.5783 4.13193 11.3728L9.39637 8.36457C9.756 8.15906 10.2141 8.28401 10.4197 8.64365Z" fill="black"/>
<path fill-rule="evenodd" clip-rule="evenodd" d="M13.6302 8.64365C13.8357 8.28401 14.2938 8.15906 14.6535 8.36457L19.9179 11.3728C20.2776 11.5783 20.4025 12.0365 20.197 12.3961C19.9915 12.7557 19.5333 12.8807 19.1737 12.6752L13.9093 9.66694C13.5496 9.46143 13.4247 9.00329 13.6302 8.64365Z" fill="black"/>
<path fill-rule="evenodd" clip-rule="evenodd" d="M6.53431 13.4385C6.68815 13.0539 7.12462 12.8668 7.50921 13.0206L7.97925 13.2087C8.36384 13.3625 8.5509 13.799 8.39706 14.1836C8.24323 14.5681 7.80675 14.7552 7.42216 14.6014L6.95212 14.4134C6.56754 14.2595 6.38048 13.823 6.53431 13.4385Z" fill="black"/>
<path fill-rule="evenodd" clip-rule="evenodd" d="M17.5162 13.4385C17.67 13.823 17.483 14.2595 17.0984 14.4134L16.6284 14.6014C16.2438 14.7552 15.8073 14.5681 15.6535 14.1836C15.4996 13.799 15.6867 13.3625 16.0713 13.2087L16.5413 13.0206C16.9259 12.8668 17.3624 13.0539 17.5162 13.4385Z" fill="black"/>
</svg>
