<svg width="24" height="24" viewBox="0 0 24 24" fill="none" xmlns="http://www.w3.org/2000/svg">
<path fill-rule="evenodd" clip-rule="evenodd" d="M8.25 10C8.25 9.0335 9.0335 8.25 10 8.25H14C14.9665 8.25 15.75 9.0335 15.75 10V14C15.75 14.9665 14.9665 15.75 14 15.75H10C9.0335 15.75 8.25 14.9665 8.25 14V10ZM10 9.75C9.86193 9.75 9.75 9.86193 9.75 10V14C9.75 14.1381 9.86193 14.25 10 14.25H14C14.1381 14.25 14.25 14.1381 14.25 14V10C14.25 9.86193 14.1381 9.75 14 9.75H10Z" fill="black"/>
<path fill-rule="evenodd" clip-rule="evenodd" d="M14.25 16C14.25 15.0335 15.0335 14.25 16 14.25H20C20.9665 14.25 21.75 15.0335 21.75 16V20C21.75 20.9665 20.9665 21.75 20 21.75H16C15.0335 21.75 14.25 20.9665 14.25 20V16ZM16 15.75C15.8619 15.75 15.75 15.8619 15.75 16V20C15.75 20.1381 15.8619 20.25 16 20.25H20C20.1381 20.25 20.25 20.1381 20.25 20V16C20.25 15.8619 20.1381 15.75 20 15.75H16Z" fill="black"/>
<path fill-rule="evenodd" clip-rule="evenodd" d="M2.25 16C2.25 15.0335 3.0335 14.25 4 14.25H8C8.9665 14.25 9.75 15.0335 9.75 16V20C9.75 20.9665 8.9665 21.75 8 21.75H4C3.0335 21.75 2.25 20.9665 2.25 20V16ZM4 15.75C3.86193 15.75 3.75 15.8619 3.75 16V20C3.75 20.1381 3.86193 20.25 4 20.25H8C8.13807 20.25 8.25 20.1381 8.25 20V16C8.25 15.8619 8.13807 15.75 8 15.75H4Z" fill="black"/>
<path fill-rule="evenodd" clip-rule="evenodd" d="M2.25 4C2.25 3.0335 3.0335 2.25 4 2.25H8C8.9665 2.25 9.75 3.0335 9.75 4V8C9.75 8.9665 8.9665 9.75 8 9.75H4C3.0335 9.75 2.25 8.9665 2.25 8V4ZM4 3.75C3.86193 3.75 3.75 3.86193 3.75 4V8C3.75 8.13807 3.86193 8.25 4 8.25H8C8.13807 8.25 8.25 8.13807 8.25 8V4C8.25 3.86193 8.13807 3.75 8 3.75H4Z" fill="black"/>
<path fill-rule="evenodd" clip-rule="evenodd" d="M14.25 4C14.25 3.0335 15.0335 2.25 16 2.25H20C20.9665 2.25 21.75 3.0335 21.75 4V8C21.75 8.9665 20.9665 9.75 20 9.75H16C15.0335 9.75 14.25 8.9665 14.25 8V4ZM16 3.75C15.8619 3.75 15.75 3.86193 15.75 4V8C15.75 8.13807 15.8619 8.25 16 8.25H20C20.1381 8.25 20.25 8.13807 20.25 8V4C20.25 3.86193 20.1381 3.75 20 3.75H16Z" fill="black"/>
</svg>
