<svg width="24" height="24" viewBox="0 0 24 24" fill="none" xmlns="http://www.w3.org/2000/svg">
<path d="M12 21.75C10.0716 21.75 8.18657 21.1782 6.58319 20.1068C4.97981 19.0355 3.73013 17.5127 2.99217 15.7312C2.25422 13.9496 2.06114 11.9892 2.43735 10.0979C2.81356 8.20655 3.74215 6.46927 5.10572 5.10571C6.46928 3.74215 8.20656 2.81355 10.0979 2.43735C11.9892 2.06114 13.9496 2.25423 15.7312 2.99219C17.5128 3.73014 19.0355 4.97981 20.1068 6.58319C21.1782 8.18657 21.75 10.0716 21.75 12C21.7471 14.585 20.7189 17.0632 18.8911 18.8911C17.0632 20.7189 14.585 21.7471 12 21.75V21.75ZM12 3.75C10.3683 3.75 8.77326 4.23386 7.41655 5.14038C6.05985 6.0469 5.00242 7.33537 4.37799 8.84286C3.75357 10.3504 3.5902 12.0092 3.90853 13.6095C4.22685 15.2098 5.01259 16.6799 6.16637 17.8336C7.32015 18.9874 8.79016 19.7732 10.3905 20.0915C11.9908 20.4098 13.6496 20.2464 15.1571 19.622C16.6646 18.9976 17.9531 17.9402 18.8596 16.5835C19.7661 15.2268 20.25 13.6317 20.25 12C20.2476 9.81269 19.3777 7.71566 17.831 6.169C16.2843 4.62235 14.1873 3.75238 12 3.75Z" fill="black"/>
<path d="M10.167 16.0152C10.1097 16.015 10.0526 16.008 9.99695 15.9942C9.80758 15.9513 9.6426 15.8358 9.5375 15.6726C9.4324 15.5093 9.39558 15.3113 9.43496 15.1212C9.59539 14.575 9.9387 14.1006 10.4073 13.7774C10.876 13.4543 11.4414 13.302 12.009 13.3462C12.4948 13.3446 12.9692 13.1991 13.3724 12.928C13.7755 12.657 14.0893 12.2726 14.2741 11.8233C14.459 11.374 14.5065 10.88 14.4108 10.4038C14.315 9.92748 14.0803 9.49024 13.7362 9.14728C13.3921 8.80433 12.9541 8.57101 12.4776 8.47681C12.001 8.38262 11.5072 8.43178 11.0585 8.61805C10.6098 8.80432 10.2264 9.11937 9.95666 9.52341C9.68692 9.92745 9.54296 10.4024 9.54296 10.8882C9.54285 11.1251 9.57653 11.3608 9.64297 11.5882C9.69192 11.7766 9.66568 11.9767 9.5698 12.1461C9.47392 12.3156 9.31591 12.4411 9.12917 12.4962C8.94243 12.5512 8.7416 12.5315 8.56913 12.4412C8.39666 12.3509 8.26607 12.197 8.20496 12.0122C8.00409 11.3402 7.98528 10.627 8.15044 9.94538C8.31561 9.26378 8.65883 8.63825 9.14501 8.13279C9.63119 7.62733 10.2429 7.26006 10.9175 7.06852C11.5922 6.87698 12.3056 6.86805 12.9849 7.04264C13.6641 7.21723 14.2848 7.5691 14.7835 8.06223C15.2822 8.55537 15.641 9.17209 15.8231 9.84934C16.0053 10.5266 16.0044 11.2401 15.8204 11.9168C15.6364 12.5936 15.276 13.2094 14.776 13.7012C14.415 14.072 13.982 14.365 13.5036 14.562C13.0251 14.7591 12.5113 14.8562 11.994 14.8472C11.119 14.8562 10.937 15.3062 10.894 15.4472C10.8514 15.6082 10.7573 15.7509 10.626 15.8535C10.4948 15.9561 10.3335 16.0128 10.167 16.0152V16.0152Z" fill="black"/>
<path d="M12.4753 17.0703H12.4453C12.2464 17.0703 12.0556 16.9913 11.915 16.8506C11.7743 16.71 11.6953 16.5192 11.6953 16.3203C11.6953 16.1214 11.7743 15.9306 11.915 15.79C12.0556 15.6493 12.2464 15.5703 12.4453 15.5703C12.6458 15.5698 12.8384 15.6481 12.9816 15.7885C13.1247 15.9288 13.2069 16.1199 13.2103 16.3203C13.2119 16.418 13.1941 16.515 13.1579 16.6057C13.1217 16.6964 13.0679 16.7791 12.9995 16.8488C12.9311 16.9186 12.8496 16.9741 12.7596 17.0121C12.6696 17.0502 12.573 17.0699 12.4753 17.0703V17.0703Z" fill="black"/>
<path d="M9.9308 17.0712C9.8767 17.0709 9.82277 17.0653 9.76981 17.0542C9.5755 17.0116 9.40604 16.8936 9.29862 16.7262C9.19119 16.5588 9.15458 16.3556 9.19681 16.1612L10.3968 10.6762C10.4392 10.4818 10.5572 10.3122 10.7246 10.2048C10.8921 10.0973 11.0954 10.0608 11.2898 10.1032C11.4842 10.1456 11.6538 10.2636 11.7612 10.431C11.8687 10.5985 11.9052 10.8018 11.8628 10.9962L10.6628 16.4812C10.6263 16.6483 10.5339 16.7978 10.4007 16.9051C10.2676 17.0124 10.1018 17.071 9.9308 17.0712Z" fill="black"/>
</svg>
