<svg width="24" height="24" viewBox="0 0 24 24" fill="none" xmlns="http://www.w3.org/2000/svg">
<path d="M19.1259 21.7482H17.3819C17.0029 21.7516 16.6283 21.6662 16.2882 21.499C15.948 21.3318 15.6517 21.0873 15.4229 20.7852L12.1149 17.4781C12.0752 17.4441 12.0241 17.4263 11.9719 17.4282C11.919 17.4261 11.8673 17.444 11.8269 17.4781L8.68293 20.7101C8.44343 21.0309 8.13265 21.2916 7.77515 21.4717C7.41766 21.6519 7.02318 21.7465 6.62287 21.7482H4.90192C4.55482 21.7538 4.2139 21.656 3.92255 21.4672C3.63121 21.2785 3.40259 21.0073 3.26588 20.6882C3.13739 20.3784 3.10533 20.0371 3.17384 19.7089C3.24234 19.3806 3.40827 19.0806 3.64991 18.8481L8.78291 13.7181C9.63339 12.8848 10.7767 12.418 11.9674 12.418C13.1581 12.418 14.3014 12.8848 15.1519 13.7181L20.2819 18.8481C20.5385 19.0648 20.7219 19.3555 20.8069 19.6804C20.8919 20.0053 20.8745 20.3486 20.7569 20.6631C20.6287 20.9891 20.4036 21.268 20.1119 21.462C19.8203 21.656 19.4761 21.7559 19.1259 21.7482ZM11.9719 15.9282C12.4207 15.9278 12.8516 16.1038 13.1719 16.4182L16.4109 19.6572C16.9559 20.2042 17.0109 20.2482 17.3769 20.2482H19.1209C19.2599 20.2482 19.3309 20.1891 19.3509 20.1351C19.3789 20.0631 19.3039 19.9831 19.2569 19.9421L14.0909 14.7781C13.5129 14.2432 12.7544 13.9461 11.9669 13.9461C11.1794 13.9461 10.4209 14.2432 9.8429 14.7781L4.71088 19.9081C4.68026 19.9314 4.65783 19.9638 4.64686 20.0007C4.63589 20.0375 4.63698 20.0769 4.64991 20.1132C4.67232 20.1591 4.70863 20.1968 4.75367 20.2211C4.79871 20.2453 4.85018 20.2548 4.90089 20.2482H6.61793C7.00693 20.2482 7.07692 20.1911 7.59492 19.6721L10.7549 16.4252C10.9151 16.2663 11.105 16.1406 11.3139 16.0554C11.5227 15.9701 11.7463 15.9268 11.9719 15.9282V15.9282Z" fill="black"/>
<path d="M11.9723 11.5804C11.3818 11.5851 10.7963 11.4726 10.2496 11.2495C9.70291 11.0263 9.20586 10.6969 8.78727 10.2805L3.65531 5.15045C3.4133 4.91842 3.24695 4.61872 3.17808 4.29059C3.10921 3.96247 3.14103 3.62122 3.26933 3.31146C3.40617 2.99218 3.63487 2.72079 3.92637 2.53186C4.21787 2.34293 4.55896 2.24502 4.90629 2.25049H6.62327C7.01755 2.25053 7.4065 2.34199 7.75944 2.51776C8.11237 2.69354 8.41973 2.94883 8.65733 3.26349L11.8343 6.52747C11.8735 6.55819 11.9225 6.57382 11.9723 6.57147V6.57147C12.0243 6.57394 12.0753 6.55601 12.1143 6.52149L15.3563 3.28144C15.59 2.96328 15.895 2.70431 16.2468 2.52527C16.5986 2.34623 16.9875 2.25215 17.3823 2.25049H19.1263C19.4774 2.24209 19.8226 2.34187 20.1151 2.53632C20.4076 2.73077 20.6332 3.01045 20.7613 3.33747C20.8791 3.66045 20.8931 4.01219 20.8013 4.34351C20.7095 4.67483 20.5165 4.96919 20.2493 5.18549L15.1563 10.2805C14.738 10.697 14.2412 11.0265 13.6946 11.2496C13.1481 11.4728 12.5626 11.5852 11.9723 11.5804V11.5804ZM4.90629 3.75049C4.85549 3.74409 4.80397 3.75375 4.75895 3.77814C4.71393 3.80253 4.67769 3.84042 4.65531 3.88648C4.64324 3.922 4.6426 3.96039 4.65354 3.99628C4.66449 4.03217 4.68644 4.06375 4.71629 4.08649L9.84831 9.21649C10.4263 9.75141 11.1848 10.0485 11.9723 10.0485C12.7598 10.0485 13.5183 9.75141 14.0963 9.21649L19.2263 4.08649C19.3193 4.00149 19.3823 3.92848 19.3563 3.86048C19.3303 3.79248 19.2653 3.74646 19.1263 3.74646H17.3823C17.0173 3.74646 16.9623 3.79044 16.4883 4.26544L13.1763 7.57746C12.8564 7.89239 12.4252 8.06846 11.9763 8.06745C11.5273 8.06797 11.0961 7.8916 10.7763 7.57648L7.61729 4.33045C7.09029 3.80345 7.0173 3.74646 6.6323 3.74646L4.90629 3.75049Z" fill="black"/>
</svg>
