<svg width="24" height="24" viewBox="0 0 24 24" fill="none" xmlns="http://www.w3.org/2000/svg">
<path d="M16.216 21.75H7.78198C4.47398 21.75 2.25 19.429 2.25 15.974V8.02698C2.25 4.57198 4.47398 2.25 7.78198 2.25H16.217C19.526 2.25 21.75 4.57198 21.75 8.02698V15.974C21.75 19.429 19.526 21.75 16.216 21.75ZM7.78198 3.75C5.33298 3.75 3.75 5.42898 3.75 8.02698V15.974C3.75 18.574 5.33298 20.25 7.78198 20.25H16.216C18.666 20.25 20.25 18.572 20.25 15.974V8.02698C20.25 5.42698 18.667 3.75 16.217 3.75H7.78198Z" fill="black"/>
<path d="M14.9611 16.3709C14.8446 16.3711 14.7297 16.344 14.6256 16.2919C14.5214 16.2398 14.4309 16.1641 14.3611 16.0709C13.5081 14.9459 12.3721 13.9219 11.9771 13.9219C11.5821 13.9219 10.4771 14.9429 9.64211 16.0639C9.58354 16.1431 9.50997 16.2099 9.42556 16.2607C9.34114 16.3114 9.24752 16.345 9.15011 16.3596C9.0527 16.3742 8.95338 16.3694 8.85781 16.3456C8.76224 16.3218 8.67229 16.2795 8.5931 16.2209C8.51391 16.1623 8.44707 16.0887 8.39632 16.0043C8.34558 15.9199 8.3119 15.8263 8.29732 15.7289C8.28275 15.6315 8.28749 15.5322 8.3113 15.4366C8.33511 15.341 8.37755 15.2511 8.43612 15.1719C8.91312 14.5269 10.5791 12.4219 11.9771 12.4219C13.3751 12.4219 15.0701 14.5219 15.5571 15.1649C15.6407 15.2763 15.6916 15.4088 15.7041 15.5475C15.7166 15.6863 15.6902 15.8257 15.628 15.9503C15.5657 16.0749 15.4699 16.1796 15.3514 16.2529C15.2329 16.3261 15.0964 16.3649 14.9571 16.3649L14.9611 16.3709Z" fill="black"/>
<path d="M11.9771 11.5779C10.5771 11.5779 8.91306 9.47791 8.43606 8.82791C8.37749 8.74873 8.33511 8.65878 8.3113 8.56321C8.28749 8.46763 8.28275 8.36832 8.29732 8.27091C8.3119 8.1735 8.34552 8.07993 8.39626 7.99552C8.44701 7.9111 8.51385 7.83747 8.59304 7.7789C8.67223 7.72033 8.76218 7.67796 8.85775 7.65415C8.95332 7.63034 9.0527 7.62559 9.15011 7.64017C9.24752 7.65475 9.34108 7.68836 9.4255 7.73911C9.50991 7.78985 9.58348 7.85676 9.64205 7.93595C10.4731 9.05695 11.5861 10.0779 11.9771 10.0779C12.3681 10.0779 13.508 9.05393 14.361 7.92893C14.4804 7.7698 14.6581 7.66458 14.855 7.63645C15.0519 7.60832 15.252 7.65956 15.4111 7.7789C15.5702 7.89825 15.6754 8.07595 15.7035 8.27286C15.7316 8.46977 15.6804 8.66982 15.5611 8.82895C15.0701 9.47795 13.3721 11.5779 11.9771 11.5779Z" fill="black"/>
</svg>
