<svg width="24" height="24" viewBox="0 0 24 24" fill="none" xmlns="http://www.w3.org/2000/svg">
<path fill-rule="evenodd" clip-rule="evenodd" d="M3.7402 3.89737C4.72468 2.84117 6.12669 2.25 7.78216 2.25H16.2169C17.8762 2.25 19.2788 2.84084 20.2629 3.89765C21.2413 4.94841 21.75 6.39889 21.75 8.02638V15.9736C21.75 17.6011 21.2413 19.0516 20.2627 20.1024C19.2785 21.1592 17.8756 21.75 16.2159 21.75H7.78216C6.1228 21.75 4.72038 21.1591 3.73657 20.1023C2.75842 19.0515 2.25 17.601 2.25 15.9736V8.02638C2.25 6.39806 2.76117 4.94771 3.7402 3.89737ZM4.83745 4.92012C4.16024 5.64666 3.75 6.70951 3.75 8.02638V15.9736C3.75 17.2914 4.15861 18.3541 4.83451 19.0802C5.50475 19.8003 6.49341 20.25 7.78216 20.25H16.2159C17.5052 20.25 18.4944 19.8002 19.165 19.0801C19.8412 18.354 20.25 17.2913 20.25 15.9736V8.02638C20.25 6.70868 19.8412 5.64597 19.1651 4.91984C18.4946 4.19975 17.5056 3.75 16.2169 3.75H7.78216C6.49828 3.75 5.50921 4.19943 4.83745 4.92012Z" fill="black"/>
<path fill-rule="evenodd" clip-rule="evenodd" d="M12.0013 8.60547C10.1329 8.60547 8.61133 10.1271 8.61133 11.9955C8.61133 12.2077 8.63384 12.4156 8.67354 12.6205C8.7523 13.0272 8.48648 13.4207 8.07983 13.4995C7.67317 13.5782 7.27966 13.3124 7.2009 12.9058C7.14525 12.6184 7.11133 12.3145 7.11133 11.9955C7.11133 9.29866 9.30452 7.10547 12.0013 7.10547C12.4155 7.10547 12.7513 7.44126 12.7513 7.85547C12.7513 8.26968 12.4155 8.60547 12.0013 8.60547Z" fill="black"/>
<path fill-rule="evenodd" clip-rule="evenodd" d="M15.9332 10.4904C16.3398 10.4116 16.7333 10.6774 16.8121 11.0841C16.8678 11.3715 16.9017 11.6753 16.9017 11.9944C16.9017 14.7011 14.7083 16.8931 12.002 16.8931C11.5877 16.8931 11.252 16.5573 11.252 16.1431C11.252 15.7289 11.5877 15.3931 12.002 15.3931C13.8803 15.3931 15.4017 13.8723 15.4017 11.9944C15.4017 11.7822 15.3792 11.5743 15.3395 11.3693C15.2607 10.9627 15.5265 10.5691 15.9332 10.4904Z" fill="black"/>
<path fill-rule="evenodd" clip-rule="evenodd" d="M16.6972 8.11136C16.8968 8.4743 16.7644 8.93035 16.4015 9.12996L7.62329 13.9579C7.26035 14.1575 6.80431 14.0251 6.60469 13.6621C6.40508 13.2992 6.53748 12.8431 6.90042 12.6435L15.6786 7.81563C16.0415 7.61602 16.4976 7.74842 16.6972 8.11136Z" fill="black"/>
<path fill-rule="evenodd" clip-rule="evenodd" d="M17.3945 10.3438C17.5941 10.7067 17.4617 11.1628 17.0987 11.3624L8.32056 16.1903C7.95762 16.3899 7.50157 16.2575 7.30196 15.8945C7.10234 15.5316 7.23475 15.0756 7.59769 14.8759L16.3759 10.0481C16.7388 9.84844 17.1948 9.98084 17.3945 10.3438Z" fill="black"/>
</svg>
