<svg width="24" height="24" viewBox="0 0 24 24" fill="none" xmlns="http://www.w3.org/2000/svg">
<path fill-rule="evenodd" clip-rule="evenodd" d="M11.9982 6.00977C8.69165 6.00977 6.01172 8.68983 6.01172 11.9953C6.01172 12.659 6.11883 13.2985 6.31745 13.8944C6.44843 14.2873 6.23606 14.7121 5.84311 14.8431C5.45015 14.974 5.02541 14.7617 4.89442 14.3687C4.64504 13.6206 4.51172 12.8209 4.51172 11.9953C4.51172 7.86127 7.86335 4.50977 11.9982 4.50977C13.0352 4.50977 14.0247 4.72002 14.9248 5.10217C15.3061 5.26406 15.4839 5.70437 15.322 6.08564C15.1601 6.46691 14.7198 6.64476 14.3385 6.48287C13.6213 6.17833 12.8309 6.00977 11.9982 6.00977Z" fill="black"/>
<path fill-rule="evenodd" clip-rule="evenodd" d="M20.6573 8.65433C20.8569 9.01727 20.7245 9.47331 20.3616 9.67293L4.36158 18.4729C3.99864 18.6725 3.54259 18.5401 3.34298 18.1772C3.14336 17.8143 3.27576 17.3582 3.6387 17.1586L19.6387 8.3586C20.0016 8.15899 20.4577 8.29138 20.6573 8.65433Z" fill="black"/>
<path fill-rule="evenodd" clip-rule="evenodd" d="M20.6573 5.8555C20.8569 6.21844 20.7245 6.67448 20.3616 6.8741L4.36158 15.6741C3.99864 15.8737 3.54259 15.7413 3.34298 15.3784C3.14336 15.0154 3.27576 14.5594 3.6387 14.3598L19.6387 5.55977C20.0016 5.36016 20.4577 5.49256 20.6573 5.8555Z" fill="black"/>
<path fill-rule="evenodd" clip-rule="evenodd" d="M18.1746 9.17766C18.5684 9.04945 18.9917 9.26481 19.1199 9.65868C19.3595 10.3947 19.4923 11.1769 19.4923 11.995C19.4923 16.1368 16.1407 19.4884 11.9989 19.4884C11.0572 19.4884 10.1559 19.3156 9.32369 18.9968C8.93689 18.8486 8.74345 18.4149 8.89164 18.0281C9.03982 17.6413 9.47351 17.4479 9.86031 17.5961C10.5226 17.8498 11.2421 17.9884 11.9989 17.9884C15.3123 17.9884 17.9923 15.3084 17.9923 11.995C17.9923 11.3411 17.8864 10.7154 17.6935 10.123C17.5653 9.72911 17.7807 9.30587 18.1746 9.17766Z" fill="black"/>
</svg>
