<svg width="24" height="24" viewBox="0 0 24 24" fill="none" xmlns="http://www.w3.org/2000/svg">
<path d="M14.7376 20.779C12.2085 20.6068 9.77853 19.7278 7.72459 18.2421C5.92318 17.0986 4.38385 15.5872 3.20759 13.8071C2.13659 12.0641 1.95558 10.4871 2.69758 9.36608L6.14857 4.55705C7.61557 2.37305 11.9646 2.87806 16.2756 5.73406C20.5866 8.59006 22.7526 12.409 21.3036 14.607V14.6141C21.2706 14.6641 21.2356 14.7141 21.2036 14.7601L17.8516 19.4321C17.488 19.9007 17.0119 20.2699 16.4675 20.5054C15.9231 20.7408 15.3281 20.835 14.7376 20.779V20.779ZM6.10658 15.021C6.85634 15.7555 7.67551 16.4156 8.55259 16.9921C12.2816 19.4621 15.7896 19.8101 16.6076 18.5801L18.4796 15.9701C17.4706 15.9961 16.4645 15.8517 15.5036 15.5431L15.3596 15.68C14.6168 16.5578 13.6034 17.164 12.4786 17.4031C10.9606 17.5811 10.0716 16.392 9.44258 15.529C9.27158 15.295 9.10457 15.064 8.92857 14.868C8.69023 14.5789 8.35799 14.3827 7.98976 14.3134C7.62152 14.2441 7.24068 14.3063 6.91358 14.4891C6.61901 14.6254 6.34688 14.8058 6.10658 15.024V15.021ZM7.71757 12.7861C8.15911 12.7903 8.59471 12.8884 8.9954 13.0739C9.39609 13.2594 9.75271 13.5281 10.0416 13.862C10.259 14.1128 10.4636 14.3745 10.6546 14.646C11.2606 15.477 11.6626 15.992 12.3156 15.912C12.9406 15.7704 13.5064 15.4389 13.9356 14.9631C12.9702 14.5391 12.044 14.0311 11.1676 13.4451C9.36666 12.3013 7.82773 10.79 6.65159 9.01006C6.34516 8.5227 6.09837 8.00032 5.91657 7.45409L3.9326 10.2181C3.5526 10.7911 3.74857 11.8181 4.48557 13.0181C4.67473 13.3237 4.88143 13.6183 5.10459 13.9001C5.44449 13.5927 5.82837 13.3379 6.24357 13.144C6.70022 12.9113 7.20503 12.7887 7.71757 12.7861V12.7861ZM15.6856 14.021C17.7666 14.697 19.4106 14.596 19.9966 13.857L20.0576 13.7731C20.8576 12.5341 19.1666 9.44906 15.4476 6.98406C11.7286 4.51906 8.21459 4.16507 7.39359 5.39507V5.40105C7.00159 6.00105 7.19358 7.02708 7.93458 8.22508C8.9952 9.81966 10.3804 11.1724 11.9996 12.1951C13.0734 12.917 14.2326 13.5032 15.4506 13.9401C15.5331 13.9546 15.6125 13.983 15.6856 14.024V14.021ZM15.6446 12.193C14.5957 12.0829 13.5949 11.6961 12.7446 11.0721C11.3266 10.1331 9.92357 8.65605 10.6316 7.58605C10.8696 7.22605 11.3946 6.86106 12.5526 7.16606C13.3049 7.38952 14.0178 7.72891 14.6656 8.17204C16.0816 9.11004 17.4846 10.5861 16.7806 11.6561C16.6543 11.8366 16.4831 11.9811 16.2839 12.0753C16.0846 12.1695 15.8643 12.21 15.6446 12.193V12.193ZM12.1996 8.62407C13.0077 9.54346 14.0459 10.2313 15.2076 10.6171C14.3992 9.69796 13.3611 9.01018 12.1996 8.62407Z" fill="black"/>
</svg>
