<svg width="24" height="24" viewBox="0 0 24 24" fill="none" xmlns="http://www.w3.org/2000/svg">
<path fill-rule="evenodd" clip-rule="evenodd" d="M5.61927 6.15105C7.69345 4.95635 10.3047 4.96035 12.3752 6.16142C12.7335 6.36926 12.8555 6.8282 12.6477 7.1865C12.4398 7.54479 11.9809 7.66676 11.6226 7.45892C10.0161 6.52703 7.97727 6.5239 6.36794 7.45085C4.7586 8.3778 3.73828 10.143 3.73828 12.0002C3.73828 13.8574 4.7586 15.6225 6.36794 16.5495C7.97727 17.4764 10.0161 17.4733 11.6226 16.5414C11.9809 16.3336 12.4398 16.4555 12.6477 16.8138C12.8555 17.1721 12.7335 17.6311 12.3752 17.8389C10.3047 19.04 7.69345 19.044 5.61927 17.8493C3.54508 16.6546 2.23828 14.3938 2.23828 12.0002C2.23828 9.60652 3.54508 7.34575 5.61927 6.15105Z" fill="black"/>
<path fill-rule="evenodd" clip-rule="evenodd" d="M12.9677 8.46967C13.2606 8.17678 13.7355 8.17678 14.0284 8.46967L17.0284 11.4697C17.3213 11.7626 17.3213 12.2374 17.0284 12.5303L14.0284 15.5303C13.7355 15.8232 13.2606 15.8232 12.9677 15.5303C12.6748 15.2374 12.6748 14.7626 12.9677 14.4697L15.4374 12L12.9677 9.53033C12.6748 9.23744 12.6748 8.76256 12.9677 8.46967Z" fill="black"/>
<path fill-rule="evenodd" clip-rule="evenodd" d="M5.24805 12C5.24805 11.5858 5.58383 11.25 5.99805 11.25H16.498C16.9123 11.25 17.248 11.5858 17.248 12C17.248 12.4142 16.9123 12.75 16.498 12.75H5.99805C5.58383 12.75 5.24805 12.4142 5.24805 12Z" fill="black"/>
<path fill-rule="evenodd" clip-rule="evenodd" d="M14.998 6.75C12.0986 6.75 9.74805 9.1005 9.74805 12C9.74805 14.8995 12.0986 17.25 14.998 17.25C17.8975 17.25 20.248 14.8995 20.248 12C20.248 9.1005 17.8975 6.75 14.998 6.75ZM8.24805 12C8.24805 8.27208 11.2701 5.25 14.998 5.25C18.726 5.25 21.748 8.27208 21.748 12C21.748 15.7279 18.726 18.75 14.998 18.75C11.2701 18.75 8.24805 15.7279 8.24805 12Z" fill="black"/>
</svg>
