<svg width="24" height="24" viewBox="0 0 24 24" fill="none" xmlns="http://www.w3.org/2000/svg">
<path fill-rule="evenodd" clip-rule="evenodd" d="M12 3.75C7.44329 3.75 3.75 7.44329 3.75 12C3.75 16.5567 7.44329 20.25 12 20.25C16.5567 20.25 20.25 16.5567 20.25 12C20.25 7.44329 16.5567 3.75 12 3.75ZM2.25 12C2.25 6.61487 6.61487 2.25 12 2.25C17.3851 2.25 21.75 6.61487 21.75 12C21.75 17.3851 17.3851 21.75 12 21.75C6.61487 21.75 2.25 17.3851 2.25 12Z" fill="black"/>
<path fill-rule="evenodd" clip-rule="evenodd" d="M10.0845 11.5919C10.228 11.9805 10.0293 12.4118 9.64078 12.5553C9.41238 12.6397 9.2582 12.7246 9.16358 12.7943C9.26381 12.8682 9.42725 12.958 9.66727 13.0463C10.2275 13.2524 11.0516 13.3951 11.9992 13.3951C12.9467 13.3951 13.7709 13.2524 14.3311 13.0463C14.5714 12.9579 14.7349 12.8681 14.8351 12.794C14.7408 12.7245 14.5869 12.6396 14.3586 12.5553C13.97 12.4118 13.7714 11.9805 13.9149 11.5919C14.0584 11.2033 14.4897 11.0047 14.8783 11.1482C15.2512 11.286 15.6061 11.4687 15.8812 11.7126C16.1582 11.9585 16.4124 12.3235 16.4124 12.7985C16.4124 13.2817 16.1434 13.6476 15.8668 13.8881C15.5883 14.1302 15.2287 14.3143 14.8491 14.454C14.0839 14.7356 13.0764 14.8951 11.9992 14.8951C10.922 14.8951 9.91448 14.7356 9.14928 14.454C8.76966 14.3143 8.41005 14.1302 8.13152 13.8881C7.85496 13.6476 7.58594 13.2817 7.58594 12.7985C7.58594 12.3229 7.84099 11.9578 8.11807 11.7123C8.39322 11.4685 8.74826 11.2859 9.12104 11.1482C9.5096 11.0047 9.94093 11.2033 10.0845 11.5919ZM14.931 12.8823C14.9309 12.8823 14.9303 12.8814 14.9293 12.8797C14.9306 12.8814 14.9311 12.8823 14.931 12.8823ZM14.9316 12.7066C14.9329 12.7043 14.9337 12.7032 14.9338 12.7032C14.9339 12.7032 14.9333 12.7043 14.9316 12.7066ZM9.06453 12.7032C9.06462 12.7032 9.06547 12.7043 9.06677 12.7066C9.06508 12.7043 9.06443 12.7032 9.06453 12.7032ZM9.06893 12.8802C9.06791 12.882 9.06727 12.8829 9.0672 12.8829C9.06713 12.8829 9.06764 12.882 9.06893 12.8802Z" fill="black"/>
<path fill-rule="evenodd" clip-rule="evenodd" d="M8.65039 8.99609C8.65039 8.58188 8.98618 8.24609 9.40039 8.24609H14.599C15.0132 8.24609 15.349 8.58188 15.349 8.99609C15.349 9.41031 15.0132 9.74609 14.599 9.74609H9.40039C8.98618 9.74609 8.65039 9.41031 8.65039 8.99609Z" fill="black"/>
<path fill-rule="evenodd" clip-rule="evenodd" d="M12.0781 8.24609C12.4923 8.24609 12.8281 8.58188 12.8281 8.99609V16.0278C12.8281 16.442 12.4923 16.7778 12.0781 16.7778C11.6639 16.7778 11.3281 16.442 11.3281 16.0278V8.99609C11.3281 8.58188 11.6639 8.24609 12.0781 8.24609Z" fill="black"/>
</svg>
