<svg width="25" height="24" viewBox="0 0 25 24" fill="none" xmlns="http://www.w3.org/2000/svg">
<path d="M22 8.74207V8.29317C22 7.74503 22 7.47095 21.9643 7.24155C21.7634 5.95165 20.7515 4.9397 19.4616 4.73885C19.2322 4.70312 19.285 4.70312 18.7325 4.70312C18.592 4.70312 18.5218 4.70312 18.4543 4.70769C18.058 4.73452 17.6787 4.87874 17.3647 5.12197C17.3112 5.16338 17.2591 5.20969 17.155 5.30229C16.9227 5.50874 16.8065 5.61199 16.6941 5.68748C16.0197 6.14046 15.1383 6.14046 14.4639 5.68748C14.3515 5.61199 14.2353 5.50874 14.0031 5.30229C13.8989 5.20969 13.8468 5.16338 13.7933 5.12197C13.4793 4.87874 13.1 4.73452 12.7037 4.70769C12.6362 4.70312 12.5665 4.70312 12.4271 4.70312H7.04102C6.0756 4.70312 5.59289 4.70312 5.19789 4.81316C4.18477 5.09538 3.39341 5.88751 3.11218 6.90091C3.00253 7.29601 3.003 7.77872 3.00394 8.74415C3.00419 8.99408 3.00431 9.11904 3.01635 9.19568C3.07059 9.54099 3.03088 9.45855 3.26708 9.71622C3.3195 9.7734 3.6293 10.0209 4.24892 10.5158C4.68309 10.8627 4.95938 11.3914 4.95889 11.9993V12.057C4.93925 12.6152 4.68033 13.1087 4.28415 13.4419C3.62757 13.9942 3.29929 14.2703 3.25 14.3262C3.0112 14.5969 3.06455 14.4824 3.01104 14.8394C3 14.9131 3 15.0334 3 15.274C3 16.2264 3 16.7026 3.10717 17.0927C3.38751 18.1132 4.18481 18.9105 5.20531 19.1908C5.59543 19.298 6.07164 19.298 7.02406 19.298H12.4271C12.5665 19.298 12.6362 19.298 12.7037 19.2934C13.1 19.2666 13.4793 19.1224 13.7933 18.8792C13.8468 18.8378 13.8989 18.7914 14.0031 18.6988C14.2353 18.4924 14.3515 18.3891 14.4639 18.3137C15.1383 17.8607 16.0197 17.8607 16.6941 18.3137C16.8065 18.3891 16.9227 18.4924 17.155 18.6988C17.2591 18.7914 17.3112 18.8378 17.3647 18.8792C17.6787 19.1224 18.058 19.2666 18.4543 19.2934C18.5218 19.298 18.592 19.298 18.7325 19.298C19.2845 19.298 19.2315 19.298 19.4608 19.2623C20.7511 19.0616 21.7633 18.0492 21.9639 16.7588C21.9995 16.5295 21.9995 16.2556 21.9994 15.7078L21.9993 15.2589C21.9993 15.0082 21.9993 14.8827 21.9872 14.8058C21.9331 14.46 21.973 14.543 21.7365 14.285C21.684 14.2277 21.3727 13.9791 20.7506 13.4824C20.3157 13.1352 20.0389 12.6057 20.0394 11.9975C20.0394 11.3893 20.3159 10.8623 20.7503 10.517C21.3723 10.0224 21.6834 9.775 21.7362 9.71759C21.9731 9.45993 21.9336 9.54162 21.9879 9.19586C22 9.11881 22 8.99323 22 8.74207Z" stroke="black" stroke-width="1.5" stroke-linecap="round" stroke-linejoin="round"/>
<path opacity="0.4" d="M15.7383 10.6445V13.3537" stroke="black" stroke-width="1.5" stroke-linecap="round" stroke-linejoin="round"/>
<path opacity="0.4" d="M15.7383 6.04297V7.96949" stroke="black" stroke-width="1.5" stroke-linecap="round" stroke-linejoin="round"/>
<path opacity="0.4" d="M15.7383 16.0547V17.9812" stroke="black" stroke-width="1.5" stroke-linecap="round" stroke-linejoin="round"/>
<path opacity="0.4" fill-rule="evenodd" clip-rule="evenodd" d="M10.328 9.84813L10.8308 10.8527C10.8805 10.9517 10.976 11.0199 11.0857 11.0353L12.2104 11.1973C12.3928 11.2212 12.5209 11.3887 12.497 11.571C12.4871 11.6456 12.4522 11.7149 12.398 11.7671L11.5845 12.5487C11.5045 12.6248 11.4679 12.7357 11.4872 12.8446L11.6797 13.9479C11.7094 14.1321 11.584 14.3054 11.3997 14.3351C11.3271 14.3466 11.2529 14.3343 11.188 14.2999L10.1831 13.779C10.0841 13.7279 9.96669 13.7279 9.86769 13.779L8.86228 14.3001C8.69755 14.3876 8.49323 14.3249 8.40578 14.1602C8.3714 14.095 8.35902 14.0208 8.37085 13.9482L8.56335 12.8446C8.58233 12.7359 8.54575 12.6251 8.466 12.5489L7.65172 11.7674C7.51944 11.6398 7.51532 11.4291 7.64292 11.2966C7.69517 11.2424 7.76447 11.2075 7.83927 11.1976L8.96403 11.0356C9.07376 11.0202 9.16918 10.952 9.21923 10.853L9.72276 9.84813C9.80939 9.68093 10.0151 9.61576 10.1823 9.70238C10.2447 9.73456 10.2956 9.78543 10.328 9.84813Z" stroke="black" stroke-width="1.5" stroke-linecap="round" stroke-linejoin="round"/>
</svg>