<svg width="25" height="24" viewBox="0 0 25 24" fill="none" xmlns="http://www.w3.org/2000/svg">
<path opacity="0.4" d="M19.539 11.9975C19.539 11.2559 19.951 10.6349 20.558 10.317C20.97 10.1008 21.177 9.99272 21.232 9.94832C21.424 9.79362 21.438 9.76962 21.486 9.52782C21.5 9.45842 21.5 9.34202 21.5 9.10922C21.5 8.02452 21.5 7.48212 21.372 7.03942C21.062 5.97412 20.229 5.14112 19.164 4.83172C18.721 4.70312 18.179 4.70313 17.094 4.70313H7.907C6.825 4.70313 6.283 4.70313 5.842 4.83113C4.774 5.14063 3.939 5.97612 3.63 7.04442C3.503 7.48632 3.503 8.02763 3.504 9.11023C3.505 9.34163 3.505 9.45743 3.518 9.52633C3.566 9.76803 3.58 9.79132 3.772 9.94622C3.827 9.99042 4.032 10.0989 4.443 10.3157C5.049 10.6354 5.46 11.2586 5.459 11.9992V12.057C5.435 12.7501 5.041 13.3436 4.474 13.6542C4.034 13.8954 3.81399 14.016 3.75999 14.0602C3.56599 14.2218 3.561 14.2288 3.513 14.4772C3.5 14.5451 3.5 14.6625 3.5 14.8975C3.5 15.977 3.5 16.5168 3.627 16.9575C3.936 18.0262 4.772 18.8618 5.841 19.1706C6.281 19.298 6.821 19.298 7.901 19.298H17.094C18.178 19.298 18.72 19.298 19.163 19.1695C20.229 18.8601 21.062 18.0267 21.371 16.9608C21.5 16.5183 21.5 15.9761 21.499 14.8918C21.499 14.6592 21.499 14.543 21.486 14.4738C21.438 14.2319 21.424 14.2089 21.232 14.0538C21.177 14.0095 20.971 13.9006 20.558 13.683C19.95 13.3631 19.539 12.7387 19.539 11.9975Z" stroke="black" stroke-width="1.5" stroke-linecap="round" stroke-linejoin="round"/>
<path fill-rule="evenodd" clip-rule="evenodd" d="M12.8664 9.40189L13.4733 10.6146C13.5334 10.7341 13.6486 10.8164 13.781 10.835L15.1388 11.0305C15.3589 11.0594 15.5136 11.2616 15.4847 11.4817C15.4727 11.5716 15.4306 11.6553 15.3652 11.7184L14.3832 12.6618C14.2866 12.7538 14.2425 12.8876 14.2657 13.019L14.4981 14.3509C14.5339 14.5733 14.3825 14.7824 14.1601 14.8183C14.0725 14.8322 13.9829 14.8173 13.9045 14.7758L12.6915 14.1471C12.572 14.0853 12.4302 14.0853 12.3107 14.1471L11.097 14.7761C10.8982 14.8817 10.6515 14.806 10.546 14.6072C10.5045 14.5285 10.4895 14.4389 10.5038 14.3512L10.7362 13.019C10.7591 12.8879 10.715 12.7541 10.6187 12.6622L9.63572 11.7187C9.47604 11.5647 9.47106 11.3104 9.6251 11.1504C9.68817 11.085 9.77183 11.0428 9.86212 11.0309L11.2199 10.8353C11.3523 10.8167 11.4675 10.7344 11.5279 10.6149L12.1358 9.40189C12.2403 9.20005 12.4887 9.12138 12.6905 9.22595C12.7659 9.26479 12.8273 9.3262 12.8664 9.40189Z" stroke="black" stroke-width="1.5" stroke-linecap="round" stroke-linejoin="round"/>
</svg>