<svg width="25" height="24" viewBox="0 0 25 24" fill="none" xmlns="http://www.w3.org/2000/svg">
<path d="M21.3708 16.9608C21.4993 16.5183 21.4992 15.9761 21.499 14.8918C21.4987 12.9729 21.4997 11.0601 21.4997 9.10925C21.4997 8.0245 21.4997 7.48211 21.3711 7.0394C21.0617 5.97409 20.2287 5.14114 19.1634 4.83171C18.7207 4.70312 18.1783 4.70312 17.0936 4.70312H15.582L16.6524 5.61531C16.8143 5.75323 16.8952 5.82219 16.9502 5.88838C17.258 6.25885 17.258 6.79612 16.9502 7.16659C16.8952 7.23278 16.8143 7.30174 16.6524 7.43967C16.4906 7.57759 16.4096 7.64656 16.3546 7.71275C16.0468 8.08321 16.0468 8.62048 16.3546 8.99095C16.4096 9.05714 16.4906 9.1261 16.6524 9.26403C16.8143 9.40195 16.8952 9.47092 16.9502 9.53711C17.258 9.90757 17.258 10.4448 16.9502 10.8153C16.8952 10.8815 16.8143 10.9505 16.6524 11.0884C16.4906 11.2263 16.4096 11.2953 16.3546 11.3615C16.0468 11.7319 16.0468 12.2692 16.3546 12.6397C16.4096 12.7059 16.4906 12.7748 16.6524 12.9127C16.8143 13.0507 16.8952 13.1196 16.9502 13.1858C17.258 13.5563 17.258 14.0936 16.9502 14.464C16.8952 14.5302 16.8142 14.5992 16.6524 14.7371C16.4906 14.875 16.4096 14.944 16.3546 15.0102C16.0468 15.3807 16.0468 15.9179 16.3546 16.2884C16.4096 16.3546 16.4906 16.4236 16.6524 16.5615C16.8143 16.6994 16.8952 16.7684 16.9502 16.8345C17.258 17.205 17.258 17.7423 16.9502 18.1128C16.8952 18.1789 16.8142 18.2479 16.6524 18.3858L15.582 19.298H17.0935C18.1778 19.298 18.72 19.298 19.1625 19.1695C20.2283 18.8601 21.0616 18.0267 21.3708 16.9608Z" stroke="black" stroke-width="1.5" stroke-linecap="round" stroke-linejoin="round"/>
<path opacity="0.4" d="M12.454 4.70312H7.90595C6.82095 4.70312 6.27894 4.70312 5.83594 4.83172C4.77094 5.14112 3.93796 5.97412 3.62796 7.03942C3.49996 7.48212 3.49995 8.02452 3.49995 9.10922C3.49995 9.34202 3.49995 9.45842 3.51395 9.52782C3.56195 9.76962 3.57596 9.79362 3.76796 9.94832C3.82296 9.99272 4.02995 10.1008 4.44195 10.317C5.04895 10.6349 5.46094 11.2559 5.46094 11.9975C5.46094 12.7387 5.04995 13.3631 4.44195 13.683C4.02895 13.9006 3.82296 14.0095 3.76796 14.0538C3.57596 14.2089 3.56195 14.2319 3.51395 14.4738C3.50095 14.543 3.50095 14.6592 3.50095 14.8918C3.49995 15.9761 3.49996 16.5183 3.62896 16.9608C3.93796 18.0267 4.77095 18.8601 5.83695 19.1695C6.27995 19.298 6.82195 19.298 7.90595 19.298H12.46" stroke="black" stroke-width="1.5" stroke-linecap="round" stroke-linejoin="round"/>
<path d="M8.67383 12L11.8555 12" stroke="black" stroke-width="1.5" stroke-linecap="round" stroke-linejoin="round"/>
<path d="M8.67383 8.5L8.66376 8.5" stroke="black" stroke-width="1.5" stroke-linecap="round" stroke-linejoin="round"/>
<path d="M11.8457 15.5L11.8558 15.5" stroke="black" stroke-width="1.5" stroke-linecap="round" stroke-linejoin="round"/>
<path d="M10.7129 8.5L11.8564 8.5" stroke="black" stroke-width="1.5" stroke-linecap="round" stroke-linejoin="round"/>
<path d="M9.80762 15.5L8.66406 15.5" stroke="black" stroke-width="1.5" stroke-linecap="round" stroke-linejoin="round"/>
</svg>