<svg width="24" height="24" viewBox="0 0 24 24" fill="none" xmlns="http://www.w3.org/2000/svg">
<path d="M5.70977 11.422C5.53528 10.8322 5.44141 10.206 5.44141 9.55888C5.44141 5.93653 8.37794 3 12.0003 3C15.6226 3 18.5603 5.93653 18.5603 9.55888C18.5603 13.1823 15.5299 16.1542 12.0003 16.1189C8.77109 16.0857 8.25535 18.5341 8.25535 18.5341" stroke="black" stroke-width="1.5" stroke-linecap="round" stroke-linejoin="round"/>
<path d="M10.2178 9.45508L7.76172 20.67" stroke="black" stroke-width="1.5" stroke-linecap="round" stroke-linejoin="round"/>
<path d="M11.9816 20.3732V20.4507M12.2954 20.3899C12.2954 20.5642 12.154 20.7055 11.9796 20.7055C11.8053 20.7055 11.6641 20.5642 11.6641 20.3899C11.6641 20.2155 11.8053 20.0742 11.9796 20.0742C12.154 20.0742 12.2954 20.2155 12.2954 20.3899Z" stroke="black" stroke-width="1.5" stroke-linecap="round" stroke-linejoin="round"/>
</svg>