<svg width="24" height="24" viewBox="0 0 24 24" fill="none" xmlns="http://www.w3.org/2000/svg">
<path fill-rule="evenodd" clip-rule="evenodd" d="M6.62137 20.9994H4.90408C4.00409 20.9994 3.55457 20.0099 4.18408 19.3794L9.31454 14.2499C10.7545 12.8099 13.184 12.8099 14.624 14.2499L19.7545 19.3794C20.4745 20.0099 20.024 20.9994 19.124 20.9994H17.3804C16.6604 20.9994 16.424 20.7299 15.884 20.1889L12.644 16.9499C12.284 16.5899 11.6545 16.5899 11.2945 16.9499L8.14406 20.1889C7.60406 20.7299 7.34136 20.9994 6.62137 20.9994Z" stroke="black" stroke-width="1.5" stroke-linecap="round" stroke-linejoin="round"/>
<path fill-rule="evenodd" clip-rule="evenodd" d="M6.62137 3H4.90408C4.00409 3 3.55457 3.99048 4.18408 4.61999L9.31454 9.74947C10.7545 11.1895 13.184 11.1895 14.624 9.74947L19.7545 4.61999C20.4745 3.99048 20.024 3 19.124 3H17.3804C16.6604 3 16.424 3.27048 15.884 3.81048L12.644 7.04949C12.284 7.41046 11.6545 7.41046 11.2945 7.04949L8.14406 3.81048C7.60406 3.27048 7.34136 3 6.62137 3Z" stroke="black" stroke-width="1.5" stroke-linecap="round" stroke-linejoin="round"/>
</svg>