<svg width="24" height="24" viewBox="0 0 24 24" fill="none" xmlns="http://www.w3.org/2000/svg">
<path fill-rule="evenodd" clip-rule="evenodd" d="M19.895 9.75504L17.4061 7.26614C16.5304 6.39045 15.1108 6.39045 14.2361 7.26614L5.67969 15.8216C7.15182 17.2947 9.53953 17.2947 11.0117 15.8216L16.1344 10.6988L16.1558 10.7193C16.9216 11.486 16.9216 12.7285 16.1558 13.4942L9.75358 19.8965C11.2257 21.3686 13.6134 21.3686 15.0856 19.8965L19.895 15.086C21.3672 13.6139 21.3672 11.2272 19.895 9.75504Z" stroke="black" stroke-width="1.5" stroke-linecap="round" stroke-linejoin="round"/>
<path fill-rule="evenodd" clip-rule="evenodd" d="M8.91357 4.1041L4.1041 8.91357C2.63197 10.3857 2.63197 12.7734 4.1041 14.2455L14.2446 4.1041C12.7724 2.63197 10.3857 2.63197 8.91357 4.1041Z" stroke="black" stroke-width="1.5" stroke-linecap="round" stroke-linejoin="round"/>
</svg>