<svg width="24" height="24" viewBox="0 0 24 24" fill="none" xmlns="http://www.w3.org/2000/svg">
<path opacity="0.4" fill-rule="evenodd" clip-rule="evenodd" d="M16.2169 3H7.78216C4.84281 3 3 5.08119 3 8.02638V15.9736C3 18.9188 4.83405 21 7.78216 21H16.2159C19.165 21 21 18.9188 21 15.9736V8.02638C21 5.08119 19.165 3 16.2169 3Z" stroke="black" stroke-width="1.5" stroke-linecap="round" stroke-linejoin="round"/>
<path fill-rule="evenodd" clip-rule="evenodd" d="M12.0017 17.7195V17.7195C11.38 17.7195 10.875 17.2155 10.875 16.5928V7.40991C10.875 6.7872 11.38 6.2832 12.0017 6.2832C12.6234 6.2832 13.1284 6.7872 13.1284 7.40991V16.5928C13.1284 17.2155 12.6234 17.7195 12.0017 17.7195Z" stroke="black" stroke-width="1.5"/>
<path fill-rule="evenodd" clip-rule="evenodd" d="M7.04869 14.8616V14.8616C6.73734 14.3226 6.9222 13.6337 7.46123 13.3233L15.4143 8.73088C15.9533 8.4205 16.6422 8.60439 16.9526 9.14342C17.2639 9.68244 17.0791 10.3713 16.541 10.6817L8.58696 15.2741C8.04891 15.5845 7.36004 15.4006 7.04869 14.8616Z" stroke="black" stroke-width="1.5"/>
<path fill-rule="evenodd" clip-rule="evenodd" d="M7.04869 9.14342V9.14342C6.73734 9.68244 6.9222 10.3713 7.46123 10.6817L15.4143 15.2741C15.9533 15.5845 16.6422 15.4006 16.9526 14.8616C17.2639 14.3226 17.0791 13.6337 16.541 13.3233L8.58696 8.73088C8.04891 8.4205 7.36004 8.60439 7.04869 9.14342Z" stroke="black" stroke-width="1.5"/>
</svg>
