<svg width="24" height="24" viewBox="0 0 24 24" fill="none" xmlns="http://www.w3.org/2000/svg">
<path opacity="0.4" d="M21 12C21 7.02908 16.9709 3 12 3C7.02908 3 3 7.02908 3 12C3 16.9709 7.02908 21 12 21C16.9709 21 21 16.9709 21 12Z" stroke="black" stroke-width="1.5" stroke-linecap="round" stroke-linejoin="round"/>
<path fill-rule="evenodd" clip-rule="evenodd" d="M13.9856 15.5078C13.2968 16.1149 12.3656 16.4798 11.3936 16.4389C9.32898 16.399 7.70898 14.6166 7.70898 12.511V9.15039L13.9856 15.5078Z" stroke="black" stroke-width="1.5" stroke-linecap="round" stroke-linejoin="round"/>
<path fill-rule="evenodd" clip-rule="evenodd" d="M10.0137 8.49284C10.7025 7.8857 11.6337 7.52084 12.6057 7.5617C14.6703 7.60159 16.2903 9.38408 16.2903 11.4896V14.8502L10.0137 8.49284Z" stroke="black" stroke-width="1.5" stroke-linecap="round" stroke-linejoin="round"/>
</svg>
