<svg width="24" height="24" viewBox="0 0 24 24" fill="none" xmlns="http://www.w3.org/2000/svg">
<path opacity="0.4" d="M11.9999 6.81017C10.1614 5.74369 7.83634 5.74012 5.99458 6.80095C4.15282 7.86178 2.98926 9.87475 2.98926 12.0002C2.98926 14.1256 4.15282 16.1386 5.99458 17.1994C7.83634 18.2602 10.1614 18.2566 11.9999 17.1902" stroke="black" stroke-width="1.5" stroke-linecap="round" stroke-linejoin="round"/>
<path d="M13.498 15L16.498 12L13.498 9" stroke="black" stroke-width="1.5" stroke-linecap="round" stroke-linejoin="round"/>
<path d="M5.99805 12H16.498" stroke="black" stroke-width="1.5" stroke-linecap="round" stroke-linejoin="round"/>
<path d="M14.998 18C18.3118 18 20.998 15.3137 20.998 12C20.998 8.68629 18.3118 6 14.998 6C11.6843 6 8.99805 8.68629 8.99805 12C8.99805 15.3137 11.6843 18 14.998 18Z" stroke="black" stroke-width="1.5" stroke-linecap="round" stroke-linejoin="round"/>
</svg>
