<svg width="24" height="24" viewBox="0 0 24 24" fill="none" xmlns="http://www.w3.org/2000/svg">
<path d="M7.29534 10.0684C6.93422 10.255 6.60138 10.4871 6.30408 10.7575C6.06987 10.9704 5.85772 11.2071 5.67117 11.4639C5.5343 11.6523 5.41121 11.8516 5.30331 12.0604C4.92881 12.9289 4.94076 13.419 4.04833 14.5464C3.75987 14.8662 3.51474 15.2225 3.31925 15.6062C2.61407 17.1122 3.51049 19.3552 5.21566 19.654C5.82921 19.8333 6.80929 19.4269 7.22761 19.148C8.01265 18.5037 8.94459 18.063 9.94075 17.8652C10.0921 17.8413 10.5423 17.7456 11.0523 17.6381C12.8252 17.2795 14.638 15.646 14.638 13.7377" stroke="black" stroke-width="1.5" stroke-linecap="round" stroke-linejoin="round"/>
<path opacity="0.4" d="M8.52351 12.3918C8.52031 12.1146 8.62712 11.8474 8.82052 11.6488C9.01393 11.4501 9.27817 11.3362 9.55538 11.332" stroke="black" stroke-width="1.5" stroke-linecap="round" stroke-linejoin="round"/>
<path opacity="0.4" d="M12.623 9.74805H13.0215C14.5385 9.76479 16.0209 10.2033 17.3029 11.0146C18.5849 11.8259 19.6158 12.9779 20.2804 14.3417" stroke="black" stroke-width="1.5" stroke-linecap="round" stroke-linejoin="round"/>
<path d="M18.1046 9.35059C16.6663 6.71314 13.9811 6.28685 11.6623 6.69721C10.6026 5.47012 9.98106 4.80478 8.07668 4.83665C7.81772 6.68924 8.69023 8.82071 8.69023 8.82071L2.75 3L6.30455 10.7568" stroke="black" stroke-width="1.5" stroke-linecap="round" stroke-linejoin="round"/>
<path opacity="0.4" d="M15.7547 20.9994C14.161 19.4058 11.5156 20.192 11.5156 20.192" stroke="black" stroke-width="1.5" stroke-linecap="round" stroke-linejoin="round"/>
<path opacity="0.4" d="M17.1719 15.3496C17.1719 15.3496 18.9514 17.8728 18.9514 20.7839" stroke="black" stroke-width="1.5" stroke-linecap="round" stroke-linejoin="round"/>
</svg>
