<svg width="24" height="24" viewBox="0 0 24 24" fill="none" xmlns="http://www.w3.org/2000/svg">
<path fill-rule="evenodd" clip-rule="evenodd" d="M19.88 4.035V10.925C19.88 10.955 19.88 10.985 19.87 11.005V11.025C19.82 11.885 19.54 12.715 19.06 13.435L17.81 15.295C17.38 15.935 17.15 16.685 17.15 17.455V20.125H18.44C18.85 20.125 19.19 20.465 19.19 20.875C19.19 21.295 18.85 21.625 18.44 21.625H6.08C5.67 21.625 5.33 21.295 5.33 20.875C5.33 20.465 5.67 20.125 6.08 20.125H7.72V16.525C5.64 15.925 4.12 14.015 4.12 11.745V10.925C4.12 10.655 4.34 10.425 4.62 10.425H10.1L5.61 6.785C5.29 6.525 5.24 6.045 5.5 5.725C5.76 5.405 6.23 5.355 6.55 5.615L12.39 10.345C12.42 10.365 12.43 10.395 12.46 10.425H13.28V6.955C13.28 6.78931 13.4143 6.655 13.58 6.655H16.58C17 6.655 17.33 6.315 17.33 5.905C17.33 5.495 17 5.155 16.58 5.155H13.58C13.4143 5.155 13.28 5.02069 13.28 4.855V4.035C13.28 3.125 14.03 2.375 14.94 2.375H18.23C19.14 2.375 19.88 3.125 19.88 4.035Z" fill="black"/>
</svg>