<svg width="25" height="24" viewBox="0 0 25 24" fill="none" xmlns="http://www.w3.org/2000/svg">
<path fill-rule="evenodd" clip-rule="evenodd" d="M11.0702 11.757H14.9102V9.94305H11.0702V11.757ZM15.6602 6.10305H14.5002C14.0902 6.10305 13.7502 5.77405 13.7502 5.35305C13.7502 4.94305 14.0902 4.60305 14.5002 4.60305H15.6602C16.0702 4.60305 16.4102 4.94305 16.4102 5.35305C16.4102 5.77405 16.0702 6.10305 15.6602 6.10305ZM19.3352 11.758H16.4102V9.94305H16.7502C17.9002 9.94305 18.8302 9.01305 18.8302 7.86305V4.49305C18.8302 3.33405 17.8802 2.37305 16.7102 2.37305H9.74024C8.57024 2.37305 7.62024 3.33405 7.62024 4.49305V7.86305C7.62024 8.97305 8.48024 9.87305 9.57024 9.93305V11.758H6.64124C6.22724 11.758 5.89124 12.094 5.89124 12.508C5.89124 12.922 6.22724 13.258 6.64124 13.258H7.74224V14.317C7.74224 15.715 8.51524 17.014 9.82424 17.842V20.128H8.68624C8.27224 20.128 7.93624 20.464 7.93624 20.878C7.93624 21.292 8.27224 21.628 8.68624 21.628H17.2902C17.7042 21.628 18.0402 21.292 18.0402 20.878C18.0402 20.464 17.7042 20.128 17.2902 20.128H16.1682V17.842C17.4772 17.013 18.2502 15.715 18.2502 14.317V13.258H19.3352C19.7492 13.258 20.0852 12.922 20.0852 12.508C20.0852 12.094 19.7492 11.758 19.3352 11.758Z" fill="black"/>
</svg>