<svg width="25" height="24" viewBox="0 0 25 24" fill="none" xmlns="http://www.w3.org/2000/svg">
<path fill-rule="evenodd" clip-rule="evenodd" d="M19.3354 11.7573H6.64136C6.22736 11.7573 5.89136 12.0933 5.89136 12.5073C5.89136 12.9213 6.22736 13.2573 6.64136 13.2573H7.74236V14.3173C7.74236 15.7143 8.51536 17.0133 9.82436 17.8413V20.1273H8.68636C8.27236 20.1273 7.93636 20.4633 7.93636 20.8773C7.93636 21.2913 8.27236 21.6273 8.68636 21.6273H17.2914C17.7054 21.6273 18.0414 21.2913 18.0414 20.8773C18.0414 20.4633 17.7054 20.1273 17.2914 20.1273H16.1684V17.8413C17.4774 17.0123 18.2504 15.7143 18.2504 14.3173V13.2573H19.3354C19.7494 13.2573 20.0854 12.9213 20.0854 12.5073C20.0854 12.0933 19.7494 11.7573 19.3354 11.7573Z" fill="black"/>
<path fill-rule="evenodd" clip-rule="evenodd" d="M15.2904 6.62305H13.9804C13.5604 6.62305 13.2304 6.29305 13.2304 5.87305C13.2304 5.46305 13.5604 5.12305 13.9804 5.12305H15.2904C15.7004 5.12305 16.0404 5.46305 16.0404 5.87305C16.0404 6.29305 15.7004 6.62305 15.2904 6.62305ZM15.4004 2.37305H10.6104C8.96036 2.37305 7.62036 3.72305 7.62036 5.37305V9.57305C7.62036 9.85305 7.84036 10.073 8.12036 10.073H17.8904C18.1704 10.073 18.3904 9.85305 18.3904 9.57305V5.37305C18.3904 3.72305 17.0504 2.37305 15.4004 2.37305Z" fill="black"/>
</svg>