<svg width="24" height="24" viewBox="0 0 24 24" fill="none" xmlns="http://www.w3.org/2000/svg">
<path d="M21 6.35132C21 4.69446 19.6569 3.35132 18 3.35132H6C4.34315 3.35132 3 4.69446 3 6.35132V15.1346C3 16.7915 4.34315 18.1346 6 18.1346H8.16198C8.5598 18.1346 8.94134 18.2926 9.22264 18.574L10.9393 20.2907C11.5251 20.8764 12.4749 20.8764 13.0607 20.2907L14.7774 18.574C15.0587 18.2926 15.4402 18.1346 15.838 18.1346H18C19.6569 18.1346 21 16.7915 21 15.1346V6.35132Z" stroke="black" stroke-width="1.5" stroke-linecap="round" stroke-linejoin="round"/>
<path d="M14.8365 8.1244C14.0373 8.69739 13.4438 9.55192 13.1856 10.5008C13.0048 11.166 13.002 11.9276 13.3991 12.4907C13.7799 13.0303 14.5132 13.2927 15.15 13.1168C16.3116 12.7956 16.6888 11.3184 15.9038 10.4355C15.6053 10.0994 15.1677 9.8909 14.7181 9.87033" stroke="black" stroke-width="1.5" stroke-linecap="round" stroke-linejoin="round"/>
<path d="M14.8365 8.1244C14.0373 8.69739 13.4438 9.55192 13.1856 10.5008C13.0048 11.166 13.002 11.9276 13.3991 12.4907C13.7799 13.0303 14.5132 13.2927 15.15 13.1168C16.3116 12.7956 16.6888 11.3184 15.9038 10.4355C15.6053 10.0994 15.1677 9.8909 14.7181 9.87033" stroke="black" stroke-width="1.5" stroke-linecap="round" stroke-linejoin="round"/>
<path d="M14.8365 8.1244C14.0373 8.69739 13.4438 9.55192 13.1856 10.5008C13.0048 11.166 13.002 11.9276 13.3991 12.4907C13.7799 13.0303 14.5132 13.2927 15.15 13.1168C16.3116 12.7956 16.6888 11.3184 15.9038 10.4355C15.6053 10.0994 15.1677 9.8909 14.7181 9.87033" stroke="black" stroke-width="1.5" stroke-linecap="round" stroke-linejoin="round"/>
<path d="M9.45079 8.1244C8.65158 8.69739 8.05802 9.55192 7.80059 10.5008C7.61905 11.166 7.61621 11.9276 8.01334 12.4907C8.39416 13.0303 9.12813 13.2927 9.76424 13.1168C10.9258 12.7956 11.3031 11.3184 10.5181 10.4355C10.2195 10.0994 9.78197 9.8909 9.33236 9.87033" stroke="black" stroke-width="1.5" stroke-linecap="round" stroke-linejoin="round"/>
<path d="M9.45079 8.1244C8.65158 8.69739 8.05802 9.55192 7.80059 10.5008C7.61905 11.166 7.61621 11.9276 8.01334 12.4907C8.39416 13.0303 9.12813 13.2927 9.76424 13.1168C10.9258 12.7956 11.3031 11.3184 10.5181 10.4355C10.2195 10.0994 9.78197 9.8909 9.33236 9.87033" stroke="black" stroke-width="1.5" stroke-linecap="round" stroke-linejoin="round"/>
<path d="M9.45079 8.1244C8.65158 8.69739 8.05802 9.55192 7.80059 10.5008C7.61905 11.166 7.61621 11.9276 8.01334 12.4907C8.39416 13.0303 9.12813 13.2927 9.76424 13.1168C10.9258 12.7956 11.3031 11.3184 10.5181 10.4355C10.2195 10.0994 9.78197 9.8909 9.33236 9.87033" stroke="black" stroke-width="1.5" stroke-linecap="round" stroke-linejoin="round"/>
</svg>
