<svg width="24" height="24" viewBox="0 0 24 24" fill="none" xmlns="http://www.w3.org/2000/svg">
<path d="M7.78313 3H16.2178C19.1659 3 21 5.08119 21 8.02638V15.9736C21 18.9188 19.1659 21 16.2169 21H7.78313C4.83503 21 3 18.9188 3 15.9736V8.02638C3 5.08119 4.84378 3 7.78313 3Z" stroke="black" stroke-width="1.5" stroke-linecap="round" stroke-linejoin="round"/>
<path d="M8.88491 8.53906C7.78837 9.32522 6.97399 10.4977 6.6208 11.7995C6.37172 12.7121 6.36783 13.7571 6.91269 14.5297C7.43518 15.2701 8.44221 15.6301 9.31496 15.3888C10.9087 14.948 11.4263 12.9213 10.3492 11.71C9.93961 11.2488 9.33929 10.9627 8.72242 10.9345" stroke="black" stroke-width="1.5" stroke-linecap="round" stroke-linejoin="round"/>
<path d="M15.5109 8.53906C14.4143 9.32522 13.6 10.4977 13.2468 11.7995C12.9977 12.7121 12.9938 13.7571 13.5387 14.5297C14.0612 15.2701 15.0682 15.6301 15.9409 15.3888C17.5347 14.948 18.0523 12.9213 16.9752 11.71C16.5656 11.2488 15.9653 10.9627 15.3484 10.9345" stroke="black" stroke-width="1.5" stroke-linecap="round" stroke-linejoin="round"/>
</svg>
