<svg width="24" height="24" viewBox="0 0 24 24" fill="none" xmlns="http://www.w3.org/2000/svg">
<path d="M3 12C3 16.9708 7.02916 21 12 21C16.9708 21 21 16.9708 21 12C21 7.02916 16.9708 3 12 3C7.02916 3 3 7.02916 3 12Z" stroke="black" stroke-width="1.5" stroke-linecap="round" stroke-linejoin="round"/>
<path d="M8.58278 15.3707C9.65046 14.6052 10.4434 13.4636 10.7883 12.1961C11.0298 11.3074 11.0336 10.29 10.5031 9.53774C9.99436 8.81679 9.01478 8.46627 8.16404 8.70122C6.61225 9.13037 6.10825 11.1037 7.15699 12.2832C7.55583 12.7323 8.14036 13.0108 8.74099 13.0383" stroke="black" stroke-width="1.5" stroke-linecap="round" stroke-linejoin="round"/>
<path d="M15.0349 15.3707C16.1026 14.6052 16.8956 13.4636 17.2395 12.1961C17.482 11.3074 17.4858 10.29 16.9552 9.53774C16.4465 8.81679 15.466 8.46627 14.6162 8.70122C13.0644 9.13037 12.5604 11.1037 13.6091 12.2832C14.008 12.7323 14.5925 13.0108 15.1931 13.0383" stroke="black" stroke-width="1.5" stroke-linecap="round" stroke-linejoin="round"/>
</svg>
