<svg width="24" height="24" viewBox="0 0 24 24" fill="none" xmlns="http://www.w3.org/2000/svg">
<path d="M18.5691 8.94141L17.7721 18.6722C17.6574 20.0733 16.4869 21.1518 15.0812 21.1518H8.91761C7.51189 21.1518 6.34135 20.0733 6.22661 18.6722L5.42969 8.94141" stroke="black" stroke-width="1.5" stroke-linecap="round" stroke-linejoin="round"/>
<path d="M11.7702 21.1641L5.94238 15.0585" stroke="black" stroke-width="1.5" stroke-linecap="round" stroke-linejoin="round"/>
<path d="M6.16406 8.95758L16.9043 20.4414" stroke="black" stroke-width="1.5" stroke-linecap="round" stroke-linejoin="round"/>
<path d="M17.5654 8.95834L6.95377 20.3047" stroke="black" stroke-width="1.5" stroke-linecap="round" stroke-linejoin="round"/>
<path d="M5.94251 15.0664L12.0283 8.93907" stroke="black" stroke-width="1.5" stroke-linecap="round" stroke-linejoin="round"/>
<path d="M12.2848 21.1641L18.0684 15.0585" stroke="black" stroke-width="1.5" stroke-linecap="round" stroke-linejoin="round"/>
<path d="M18.0679 15.0664L12.0283 8.93907" stroke="black" stroke-width="1.5" stroke-linecap="round" stroke-linejoin="round"/>
<path d="M14.9218 3.84697L15.7074 5.44785H18.2956C19.0914 5.44785 19.7365 6.09297 19.7365 6.88877V8.94101H4.26367V6.88877C4.26367 6.09297 4.90879 5.44785 5.70458 5.44785H8.29279L9.07843 3.84697C9.3305 3.33332 9.85284 3.00781 10.425 3.00781H13.5752C14.1474 3.00781 14.6697 3.33332 14.9218 3.84697Z" stroke="black" stroke-width="1.5" stroke-linecap="round" stroke-linejoin="round"/>
</svg>
