<svg width="24" height="24" viewBox="0 0 24 24" fill="none" xmlns="http://www.w3.org/2000/svg">
<path fill-rule="evenodd" clip-rule="evenodd" d="M5.74445 10.2539C4.78098 10.2539 4 11.0349 4 11.9984C4 12.9627 4.78098 13.7437 5.74445 13.7437C6.70792 13.7437 7.4889 12.9627 7.4889 11.9984C7.4889 11.0349 6.70792 10.2539 5.74445 10.2539Z" stroke="black" stroke-width="1.5"/>
<path fill-rule="evenodd" clip-rule="evenodd" d="M12.0003 10.2539C11.0368 10.2539 10.2559 11.0349 10.2559 11.9984C10.2559 12.9627 11.0368 13.7437 12.0003 13.7437C12.9638 13.7437 13.7448 12.9627 13.7448 11.9984C13.7448 11.0349 12.9638 10.2539 12.0003 10.2539Z" stroke="black" stroke-width="1.5"/>
<path fill-rule="evenodd" clip-rule="evenodd" d="M18.2562 10.2539C17.2927 10.2539 16.5117 11.0349 16.5117 11.9984C16.5117 12.9627 17.2927 13.7437 18.2562 13.7437C19.2196 13.7437 20.0006 12.9627 20.0006 11.9984C20.0006 11.0349 19.2196 10.2539 18.2562 10.2539Z" stroke="black" stroke-width="1.5"/>
</svg>
