<svg width="24" height="24" viewBox="0 0 24 24" fill="none" xmlns="http://www.w3.org/2000/svg">
<path d="M14 5.7C14 4.76112 14.7611 4 15.7 4H18.3C19.2389 4 20 4.76112 20 5.7V8.3C20 9.23888 19.2389 10 18.3 10H15.7C14.7611 10 14 9.23888 14 8.3V5.7Z" stroke="black" stroke-width="1.5" stroke-linecap="round" stroke-linejoin="round"/>
<path d="M14 15.7C14 14.7611 14.7611 14 15.7 14H18.3C19.2389 14 20 14.7611 20 15.7V18.3C20 19.2389 19.2389 20 18.3 20H15.7C14.7611 20 14 19.2389 14 18.3V15.7Z" stroke="black" stroke-width="1.5" stroke-linecap="round" stroke-linejoin="round"/>
<path d="M10 19.3744C8.4087 19.3744 6.88258 18.7423 5.75736 17.6171C4.63214 16.4919 4 14.9657 4 13.3744C4 11.7831 4.63214 10.257 5.75736 9.13179C7.07755 7.81159 8.67979 7.1216 10.8885 6.98827" stroke="black" stroke-width="1.5" stroke-linecap="round" stroke-linejoin="round"/>
<path d="M8.39648 5.54297L10.9261 6.98311L9.486 9.51276" stroke="black" stroke-width="1.5" stroke-linecap="round" stroke-linejoin="round"/>
</svg>
