<svg width="24" height="24" viewBox="0 0 24 24" fill="none" xmlns="http://www.w3.org/2000/svg">
<path d="M5.33398 14.668L8.00065 17.3346M8.00065 17.3346L10.6673 14.668M8.00065 17.3346V6.66797" stroke="black" stroke-width="1.5" stroke-linecap="round" stroke-linejoin="round"/>
<path fill-rule="evenodd" clip-rule="evenodd" d="M16.8891 13.7773C17.8713 13.7773 18.6669 14.5729 18.6669 15.5551V18.2218C18.6669 19.2031 17.8713 19.9996 16.8891 19.9996C15.9069 19.9996 15.1113 19.2031 15.1113 18.2218V15.5551C15.1113 14.5729 15.9069 13.7773 16.8891 13.7773Z" stroke="black" stroke-width="1.5" stroke-linecap="round" stroke-linejoin="round"/>
<path d="M18.6669 7.55556H16.8891C15.9069 7.55556 15.1113 6.75911 15.1113 5.77778C15.1113 4.79556 15.9069 4 16.8891 4C17.8713 4 18.6669 4.79556 18.6669 5.77778V8.44444C18.6669 9.42578 17.8713 10.2222 16.8891 10.2222H15.6278" stroke="black" stroke-width="1.5" stroke-linecap="round" stroke-linejoin="round"/>
</svg>
