<svg width="24" height="24" viewBox="0 0 24 24" fill="none" xmlns="http://www.w3.org/2000/svg">
<path d="M12 3C16.9709 3 21 7.02908 21 12C21 16.9709 16.9709 21 12 21C7.02908 21 3 16.9709 3 12C3 7.02908 7.02908 3 12 3Z" stroke="black" stroke-width="1.5" stroke-linecap="round" stroke-linejoin="round"/>
<path d="M5.05273 17.7188C6.97922 15.0918 9.33382 12.6399 11.9998 10.8594C14.6657 12.6399 17.0203 15.0918 18.9468 17.7188" stroke="black" stroke-width="1.5" stroke-linecap="round" stroke-linejoin="round"/>
<path d="M5.78101 5.5C7.11398 6.14216 8.25236 7.23189 9.30317 8.50649C7.6783 9.76162 4.95398 13.0503 4.12695 16.3584" stroke="black" stroke-width="1.5" stroke-linecap="round" stroke-linejoin="round"/>
<path d="M18.2155 5.5C16.8825 6.14216 15.7442 7.23189 14.6934 8.50649C16.3182 9.76162 19.0425 13.0503 19.8696 16.3584" stroke="black" stroke-width="1.5" stroke-linecap="round" stroke-linejoin="round"/>
<path d="M7.18359 4.39844C9.0517 4.48601 10.6182 5.206 11.9998 6.44168C13.3814 5.206 14.9479 4.48601 16.816 4.39844" stroke="black" stroke-width="1.5" stroke-linecap="round" stroke-linejoin="round"/>
</svg>