<svg width="24" height="24" viewBox="0 0 24 24" fill="none" xmlns="http://www.w3.org/2000/svg">
<path fill-rule="evenodd" clip-rule="evenodd" d="M4.62204 4.88786C4.05008 5.60582 3.75 6.73333 3.75 8.34112V15.654C3.75 17.184 4.19889 18.3073 4.94074 19.0476C5.68279 19.7882 6.80928 20.2369 8.34452 20.2369H15.6409C17.1718 20.2369 18.2952 19.7885 19.0354 19.0482C19.7756 18.3079 20.2238 17.1845 20.2238 15.654L20.2238 15.6498L20.25 10.9983C20.25 10.9976 20.25 10.9969 20.25 10.9962C20.2497 9.34911 19.9454 8.28668 19.3884 7.6345C18.8544 7.00923 17.9577 6.61366 16.3948 6.61366H13.7415L13.7393 6.61365C12.8316 6.61103 11.9773 6.184 11.4308 5.45928L11.4301 5.45837L10.5742 4.31971C10.3111 3.96942 9.89928 3.76311 9.46278 3.76311H7.58768C6.06183 3.76311 5.16559 4.20556 4.62204 4.88786ZM3.44883 3.95321C4.36018 2.80923 5.75778 2.26311 7.58768 2.26311H9.46278C10.3727 2.26311 11.2279 2.6924 11.7732 3.4184C11.7731 3.4183 11.7733 3.4185 11.7732 3.4184L12.6285 4.55616C12.6283 4.55597 12.6286 4.55635 12.6285 4.55616C12.8921 4.90537 13.3045 5.11209 13.7427 5.11366H16.3948C18.1955 5.11366 19.6013 5.57403 20.5291 6.66039C21.4336 7.71957 21.75 9.22382 21.75 10.9983L21.75 11.0026L21.7238 15.654C21.7238 15.6548 21.7238 15.6555 21.7238 15.6563C21.7233 17.4796 21.1829 19.0218 20.0961 20.1088C19.0088 21.1962 17.4658 21.7369 15.6409 21.7369H8.34452C6.51624 21.7369 4.97048 21.1965 3.88114 20.1094C2.79161 19.022 2.25 17.4788 2.25 15.654V8.34112C2.25 6.59803 2.56589 5.06152 3.44883 3.95321Z" fill="black"/>
<path fill-rule="evenodd" clip-rule="evenodd" d="M11.9987 11.631L11.6507 12.331C11.504 12.6207 11.2257 12.8296 10.8947 12.8811L10.887 12.8823L10.126 12.9926L10.6767 13.5222C10.9185 13.7566 11.0281 14.0959 10.9689 14.427L10.837 15.1788L11.5298 14.8161C11.8268 14.6585 12.1824 14.6585 12.4794 14.8162L13.1633 15.1746L13.0333 14.4334C12.9684 14.0921 13.0867 13.7509 13.3277 13.5212L13.8731 12.9934L13.1108 12.8833C13.1108 12.8833 13.1108 12.8833 13.1108 12.8833C12.7744 12.8347 12.4912 12.6226 12.345 12.3275C12.3448 12.3271 12.3446 12.3267 12.3444 12.3263L11.9987 11.631ZM14.867 13.1368C14.8639 13.1364 14.8608 13.136 14.8577 13.1356L14.867 13.1368ZM14.5906 12.2991C14.593 12.2968 14.5954 12.2945 14.5979 12.2923L14.5906 12.2991ZM11.6781 9.58249C11.9307 9.49951 12.2084 9.51667 12.4526 9.63877C12.65 9.73743 12.8041 9.89371 12.9018 10.0787L12.9102 10.0952L13.5764 11.435L15.0624 11.6496C15.3282 11.6854 15.5697 11.8255 15.7326 12.0391C16.0462 12.4484 16.0008 13.0292 15.6266 13.3839L14.5542 14.4217L14.8117 15.8898C14.8131 15.8977 14.8143 15.9055 14.8154 15.9134C14.8929 16.4557 14.5248 16.9699 13.9742 17.0598L13.9629 17.0617C13.7512 17.0929 13.5377 17.0579 13.35 16.9657L13.3323 16.9567L12.0044 16.2608L10.6553 16.9672C10.1661 17.2136 9.56958 17.0318 9.3013 16.5533L9.29237 16.5369C9.185 16.3336 9.1556 16.1104 9.18689 15.9053L9.18959 15.8889L9.4471 14.4208L8.36595 13.3811L8.3555 13.3708C7.95962 12.9749 7.95962 12.333 8.3555 11.9371C8.36391 11.9287 8.37253 11.9205 8.38133 11.9125C8.52537 11.7815 8.70732 11.6884 8.90996 11.6535L8.92976 11.6504L10.4215 11.4341L11.0867 10.0961C11.2061 9.85481 11.4174 9.66938 11.6751 9.5835L11.6781 9.58249ZM14.5056 14.1466C14.5066 14.1513 14.5075 14.156 14.5083 14.1607L14.5056 14.1466Z" fill="black"/>
</svg>
