<svg width="24" height="24" viewBox="0 0 24 24" fill="none" xmlns="http://www.w3.org/2000/svg">
<path fill-rule="evenodd" clip-rule="evenodd" d="M4.62204 4.88786C4.05008 5.60582 3.75 6.73333 3.75 8.34112V15.654C3.75 17.184 4.19889 18.3073 4.94074 19.0476C5.68279 19.7882 6.80928 20.2369 8.34452 20.2369H15.6409C17.1718 20.2369 18.2952 19.7885 19.0354 19.0482C19.7756 18.3079 20.2238 17.1845 20.2238 15.654L20.2238 15.6498L20.25 10.9983C20.25 10.9976 20.25 10.9969 20.25 10.9962C20.2497 9.34911 19.9454 8.28668 19.3884 7.6345C18.8544 7.00923 17.9577 6.61366 16.3948 6.61366H13.7415L13.7393 6.61365C12.8316 6.61103 11.9773 6.184 11.4308 5.45928L11.4301 5.45837L10.5742 4.31971C10.3111 3.96942 9.89928 3.76311 9.46278 3.76311H7.58768C6.06183 3.76311 5.16559 4.20556 4.62204 4.88786ZM3.44883 3.95321C4.36018 2.80923 5.75778 2.26311 7.58768 2.26311H9.46278C10.3727 2.26311 11.2279 2.6924 11.7732 3.4184C11.7731 3.4183 11.7733 3.4185 11.7732 3.4184L12.6285 4.55616C12.6283 4.55597 12.6286 4.55635 12.6285 4.55616C12.8921 4.90537 13.3045 5.11209 13.7427 5.11366H16.3948C18.1955 5.11366 19.6013 5.57403 20.5291 6.66039C21.4336 7.71957 21.75 9.22382 21.75 10.9983L21.75 11.0026L21.7238 15.654C21.7238 15.6548 21.7238 15.6555 21.7238 15.6563C21.7233 17.4796 21.1829 19.0218 20.0961 20.1088C19.0088 21.1962 17.4658 21.7369 15.6409 21.7369H8.34452C6.51624 21.7369 4.97048 21.1965 3.88114 20.1094C2.79161 19.022 2.25 17.4788 2.25 15.654V8.34112C2.25 6.59803 2.56589 5.06152 3.44883 3.95321Z" fill="black"/>
<path fill-rule="evenodd" clip-rule="evenodd" d="M11.998 9.46289C12.4123 9.46289 12.748 9.79868 12.748 10.2129V13.2257C12.748 13.6399 12.4123 13.9757 11.998 13.9757C11.5838 13.9757 11.248 13.6399 11.248 13.2257V10.2129C11.248 9.79868 11.5838 9.46289 11.998 9.46289ZM12.0028 15.2184C12.417 15.2184 12.7528 15.5542 12.7528 15.9684V16.0364C12.7528 16.4506 12.417 16.7864 12.0028 16.7864C11.5886 16.7864 11.2528 16.4506 11.2528 16.0364V15.9684C11.2528 15.5542 11.5886 15.2184 12.0028 15.2184Z" fill="black"/>
</svg>
