<svg width="24" height="24" viewBox="0 0 24 24" fill="none" xmlns="http://www.w3.org/2000/svg">
<path fill-rule="evenodd" clip-rule="evenodd" d="M4.62204 4.88792C4.05008 5.60589 3.75 6.7334 3.75 8.34119V15.6541C3.75 17.1841 4.19889 18.3073 4.94074 19.0477C5.68279 19.7883 6.80928 20.237 8.34452 20.237H15.6409C17.1718 20.237 18.2952 19.7886 19.0354 19.0483C19.7756 18.308 20.2238 17.1845 20.2238 15.6541L20.2238 15.6499L20.25 10.9984C20.25 10.9977 20.25 10.997 20.25 10.9962C20.2497 9.34918 19.9454 8.28675 19.3884 7.63457C18.8544 7.0093 17.9577 6.61373 16.3948 6.61373H13.7415L13.7393 6.61372C12.8316 6.6111 11.9773 6.18407 11.4308 5.45934L11.4301 5.45844L10.5742 4.31978C10.3111 3.96948 9.89928 3.76318 9.46278 3.76318H7.58768C6.06183 3.76318 5.16559 4.20563 4.62204 4.88792ZM3.44883 3.95328C4.36018 2.80929 5.75778 2.26318 7.58768 2.26318H9.46278C10.3727 2.26318 11.2279 2.69247 11.7732 3.41847C11.7731 3.41837 11.7733 3.41857 11.7732 3.41847L12.6285 4.55623C12.6283 4.55604 12.6286 4.55642 12.6285 4.55623C12.8921 4.90544 13.3045 5.11216 13.7427 5.11373H16.3948C18.1955 5.11373 19.6013 5.57409 20.5291 6.66046C21.4336 7.71964 21.75 9.22389 21.75 10.9984L21.75 11.0026L21.7238 15.6541C21.7238 15.6548 21.7238 15.6556 21.7238 15.6563C21.7233 17.4797 21.1829 19.0219 20.0961 20.1089C19.0088 21.1963 17.4658 21.737 15.6409 21.737H8.34452C6.51624 21.737 4.97048 21.1966 3.88114 20.1094C2.79161 19.0221 2.25 17.4788 2.25 15.6541V8.34119C2.25 6.59809 2.56589 5.06159 3.44883 3.95328Z" fill="black"/>
<path fill-rule="evenodd" clip-rule="evenodd" d="M2.31836 13.7109C2.31836 13.2967 2.65415 12.9609 3.06836 12.9609H20.8047C21.2189 12.9609 21.5547 13.2967 21.5547 13.7109C21.5547 14.1252 21.2189 14.4609 20.8047 14.4609H3.06836C2.65415 14.4609 2.31836 14.1252 2.31836 13.7109Z" fill="black"/>
<path fill-rule="evenodd" clip-rule="evenodd" d="M9.30117 10.0876C8.63639 10.2664 7.98961 10.7645 7.45595 11.6888L6.13939 13.9692C5.93228 14.3279 5.47359 14.4508 5.11487 14.2437C4.75615 14.0366 4.63325 13.5779 4.84035 13.2192L6.15692 10.9388C6.83709 9.76075 7.7729 8.94541 8.91149 8.63911C10.0503 8.33274 11.2675 8.56916 12.4436 9.24818L17.0146 11.8873C17.6761 12.2692 18.2514 12.6964 18.6938 13.187C18.9712 13.4946 18.9467 13.9689 18.6391 14.2462C18.3315 14.5236 17.8572 14.4991 17.5798 14.1915C17.2757 13.8542 16.8408 13.519 16.2646 13.1863L11.6936 10.5472C10.7727 10.0156 9.96568 9.90885 9.30117 10.0876Z" fill="black"/>
</svg>
