<svg width="24" height="24" viewBox="0 0 24 24" fill="none" xmlns="http://www.w3.org/2000/svg">
<path fill-rule="evenodd" clip-rule="evenodd" d="M4.62204 4.88786C4.05008 5.60582 3.75 6.73333 3.75 8.34112V15.654C3.75 17.184 4.19889 18.3073 4.94074 19.0476C5.68279 19.7882 6.80928 20.2369 8.34452 20.2369H15.6409C17.1718 20.2369 18.2952 19.7885 19.0354 19.0482C19.7756 18.3079 20.2238 17.1845 20.2238 15.654L20.2238 15.6498L20.25 10.9983C20.25 10.9976 20.25 10.9969 20.25 10.9962C20.2497 9.34911 19.9454 8.28668 19.3884 7.6345C18.8544 7.00923 17.9577 6.61366 16.3948 6.61366H13.7415L13.7393 6.61365C12.8316 6.61103 11.9773 6.184 11.4308 5.45928L11.4301 5.45837L10.5742 4.31971C10.3111 3.96942 9.89928 3.76311 9.46278 3.76311H7.58768C6.06183 3.76311 5.16559 4.20556 4.62204 4.88786ZM3.44883 3.95321C4.36018 2.80923 5.75778 2.26311 7.58768 2.26311H9.46278C10.3727 2.26311 11.2279 2.6924 11.7732 3.4184C11.7731 3.4183 11.7733 3.4185 11.7732 3.4184L12.6285 4.55616C12.6283 4.55597 12.6286 4.55635 12.6285 4.55616C12.8921 4.90537 13.3045 5.11209 13.7427 5.11366H16.3948C18.1955 5.11366 19.6013 5.57403 20.5291 6.66039C21.4336 7.71957 21.75 9.22382 21.75 10.9983L21.75 11.0026L21.7238 15.654C21.7238 15.6548 21.7238 15.6555 21.7238 15.6563C21.7233 17.4796 21.1829 19.0218 20.0961 20.1088C19.0088 21.1962 17.4658 21.7369 15.6409 21.7369H8.34452C6.51624 21.7369 4.97048 21.1965 3.88114 20.1094C2.79161 19.022 2.25 17.4788 2.25 15.654V8.34112C2.25 6.59803 2.56589 5.06152 3.44883 3.95321Z" fill="black"/>
<path fill-rule="evenodd" clip-rule="evenodd" d="M8.50968 10.1724C8.98204 9.66577 9.64465 9.39648 10.391 9.39648H13.6088C14.3565 9.39648 15.0196 9.66541 15.4919 10.1729C15.9586 10.6742 16.1834 11.3476 16.1834 12.0643V14.6399C16.1834 15.3563 15.9585 16.0294 15.4918 16.5306C15.0195 17.0379 14.3565 17.3068 13.6088 17.3068H10.391C9.64328 17.3068 8.98026 17.0379 8.50792 16.5306C8.04121 16.0294 7.81641 15.3563 7.81641 14.6399V12.0643C7.81641 11.3465 8.04274 10.6733 8.50968 10.1724ZM9.60684 11.1953C9.44178 11.3724 9.31641 11.658 9.31641 12.0643V14.6399C9.31641 15.0467 9.44136 15.332 9.60568 15.5084C9.76436 15.6788 10.0136 15.8068 10.391 15.8068H13.6088C13.9861 15.8068 14.2354 15.6788 14.3941 15.5084C14.5584 15.332 14.6834 15.0467 14.6834 14.6399V12.0643C14.6834 11.657 14.5583 11.3714 14.394 11.1949C14.2353 11.0244 13.9861 10.8965 13.6088 10.8965H10.391C10.0162 10.8965 9.76646 11.0241 9.60684 11.1953Z" fill="black"/>
<path fill-rule="evenodd" clip-rule="evenodd" d="M12 9.39648C12.4142 9.39648 12.75 9.73227 12.75 10.1465V16.5568C12.75 16.971 12.4142 17.3068 12 17.3068C11.5858 17.3068 11.25 16.971 11.25 16.5568V10.1465C11.25 9.73227 11.5858 9.39648 12 9.39648Z" fill="black"/>
<path fill-rule="evenodd" clip-rule="evenodd" d="M7.81641 13.3516C7.81641 12.9373 8.15219 12.6016 8.56641 12.6016H15.4334C15.8476 12.6016 16.1834 12.9373 16.1834 13.3516C16.1834 13.7658 15.8476 14.1016 15.4334 14.1016H8.56641C8.15219 14.1016 7.81641 13.7658 7.81641 13.3516Z" fill="black"/>
</svg>
