<svg width="24" height="24" viewBox="0 0 24 24" fill="none" xmlns="http://www.w3.org/2000/svg">
<path d="M12.6554 11.2653C13.0695 11.2654 13.4054 11.6011 13.4054 12.0153C13.4054 12.4294 13.0695 12.7652 12.6554 12.7653H11.3527C10.9384 12.7653 10.6027 12.4295 10.6027 12.0153C10.6027 11.6011 10.9384 11.2653 11.3527 11.2653H12.6554Z" fill="black"/>
<path d="M18.59 5.83119C18.9744 5.68385 19.4062 5.87379 19.5568 6.25697C20.3242 8.20986 20.4393 9.78167 20.0177 11.004C19.5873 12.2516 18.6456 12.9988 17.6076 13.379C16.5862 13.7531 15.4437 13.7875 14.4757 13.6242C13.9883 13.5419 13.5244 13.4055 13.1242 13.2218C12.7336 13.0425 12.3536 12.7948 12.0919 12.4601C11.9057 12.2216 11.8811 11.8948 12.0294 11.631C12.8359 10.1965 13.5772 9.07141 14.5861 8.13978C15.6004 7.20312 16.8406 6.50162 18.59 5.83119ZM18.4142 7.52161C17.1678 8.05493 16.3046 8.595 15.6037 9.24232C14.8861 9.90499 14.3045 10.7083 13.6554 11.8107C13.6852 11.8259 13.7156 11.8441 13.7492 11.8595C14.0106 11.9795 14.3455 12.0805 14.7257 12.1447C15.4934 12.2742 16.3639 12.2365 17.0919 11.9699C17.8032 11.7093 18.3472 11.2471 18.5998 10.5148C18.8242 9.86404 18.8518 8.90265 18.4142 7.52161Z" fill="black"/>
<path d="M5.41062 5.83119C5.02617 5.68385 4.59443 5.87379 4.44383 6.25697C3.67641 8.20986 3.56127 9.78167 3.98289 11.004C4.41328 12.2516 5.35497 12.9988 6.39305 13.379C7.41443 13.7531 8.55692 13.7875 9.52488 13.6242C10.0123 13.5419 10.4762 13.4055 10.8764 13.2218C11.267 13.0425 11.647 12.7948 11.9087 12.4601C12.095 12.2216 12.1195 11.8948 11.9712 11.631C11.1647 10.1965 10.4234 9.07141 9.41453 8.13978C8.40019 7.20312 7.15998 6.50162 5.41062 5.83119ZM5.5864 7.52161C6.83286 8.05493 7.69598 8.595 8.39695 9.24232C9.11451 9.90499 9.69613 10.7083 10.3452 11.8107C10.3154 11.8259 10.2851 11.8441 10.2514 11.8595C9.98996 11.9795 9.6551 12.0805 9.27488 12.1447C8.50722 12.2742 7.63667 12.2365 6.90867 11.9699C6.19746 11.7093 5.65346 11.2471 5.40086 10.5148C5.1764 9.86404 5.14885 8.90265 5.5864 7.52161Z" fill="black"/>
<path d="M18.0518 6.375V3C18.0518 2.58579 18.3875 2.25 18.8018 2.25C19.216 2.25 19.5518 2.58579 19.5518 3V6.375C19.5518 6.78921 19.216 7.125 18.8018 7.125C18.3875 7.125 18.0518 6.78921 18.0518 6.375Z" fill="black"/>
<path d="M4.48169 6.375V3C4.48169 2.58579 4.81748 2.25 5.23169 2.25C5.6459 2.25 5.98169 2.58579 5.98169 3V6.375C5.98169 6.78921 5.6459 7.125 5.23169 7.125C4.81748 7.125 4.48169 6.78921 4.48169 6.375Z" fill="black"/>
<path d="M4.57052 15.2337C4.67253 14.8322 5.08022 14.5897 5.48166 14.6917C10.4788 15.9615 13.6697 15.9588 18.5168 14.7063C18.9178 14.6028 19.3273 14.8434 19.4309 15.2444C19.5345 15.6454 19.2928 16.0548 18.8918 16.1585C13.7952 17.4754 10.3484 17.4753 5.11251 16.1448C4.71108 16.0428 4.46854 15.6351 4.57052 15.2337Z" fill="black"/>
<path d="M5.21558 15.2966C5.36983 14.9123 5.80678 14.7255 6.19116 14.8796C6.47872 14.995 6.86226 15.1619 7.26733 15.3767C8.32611 15.9381 9.36374 17.1401 10.0906 18.0974C10.467 18.5933 10.7843 19.0576 11.0076 19.3972C11.1192 19.567 11.2081 19.7065 11.2693 19.8044C11.2999 19.8534 11.3242 19.8929 11.3406 19.9197C11.6629 20.3455 12.2422 20.3587 12.5818 19.9587C12.5986 19.9322 12.6228 19.8957 12.6521 19.8503C12.7158 19.7518 12.8082 19.6112 12.9246 19.4402C13.1572 19.0983 13.4878 18.631 13.8806 18.1306C14.6418 17.161 15.7229 15.9523 16.823 15.3757C17.1728 15.1924 17.5166 15.0292 17.7761 14.9109C18.153 14.7391 18.5984 14.9051 18.7703 15.282C18.9421 15.6588 18.776 16.1043 18.3992 16.2761C18.1551 16.3874 17.837 16.5374 17.5193 16.7039C16.7297 17.1176 15.8182 18.092 15.0603 19.0574C14.6939 19.5241 14.3836 19.9623 14.1648 20.2839C14.0555 20.4445 13.969 20.5759 13.9109 20.6658C13.882 20.7105 13.8599 20.7454 13.8455 20.7683C13.8383 20.7796 13.8332 20.7883 13.8298 20.7937C13.8281 20.7964 13.8266 20.7984 13.8259 20.7996L13.825 20.8005C13.8095 20.8254 13.7924 20.8499 13.7742 20.8728C12.8137 22.0776 11.0241 22.0329 10.1179 20.7898C10.1047 20.7716 10.0914 20.7534 10.0798 20.7341V20.7332C10.0792 20.732 10.0775 20.7299 10.0759 20.7273C10.0726 20.7219 10.0672 20.7133 10.0603 20.7019C10.0463 20.6791 10.0257 20.644 9.9978 20.5994C9.94205 20.5101 9.85928 20.3806 9.75464 20.2214C9.54467 19.902 9.24708 19.4668 8.89624 19.0046C8.16843 18.046 7.30208 17.0941 6.56421 16.7029C6.21803 16.5193 5.88553 16.3737 5.63257 16.2722C5.24819 16.118 5.06139 15.681 5.21558 15.2966Z" fill="black"/>
</svg>
