<svg width="24" height="24" viewBox="0 0 24 24" fill="none" xmlns="http://www.w3.org/2000/svg">
<path d="M6.33982 12.9054C6.59641 12.5806 7.06749 12.5251 7.39256 12.7814C7.71775 13.0379 7.77407 13.5099 7.51756 13.8351L5.15818 16.8244C6.35195 16.7249 7.83259 16.8398 9.35057 17.4718C10.4927 17.9473 11.6439 18.0869 12.6113 17.9718C13.5837 17.8561 14.2966 17.4941 14.6787 17.047L16.9492 13.9113C17.1922 13.576 17.6616 13.5014 17.9971 13.7443C18.3323 13.9872 18.4068 14.4558 18.164 14.7912L15.8721 17.9562C15.8617 17.9704 15.8511 17.9847 15.8398 17.9982C15.1379 18.8361 14.0099 19.3157 12.7881 19.4611C11.5524 19.6081 10.1428 19.4262 8.77439 18.8566C6.48607 17.9039 4.30336 18.3779 3.56834 18.6964C3.25309 18.8331 2.88438 18.7382 2.67479 18.466C2.46527 18.1938 2.46806 17.8138 2.68064 17.5441L6.33982 12.9054Z" fill="black"/>
<path d="M13.2923 3.791C16.1853 3.48933 18.4969 4.58078 20.011 6.41502C21.5075 8.22822 22.1951 10.7256 21.9817 13.2334C21.9588 13.5025 21.7926 13.7388 21.5472 13.8515C20.7536 14.2161 19.3846 14.6835 17.7835 14.9453C16.1837 15.2068 14.3002 15.2718 12.5042 14.7842C10.8945 14.3471 9.64839 14.1861 8.75809 14.1572C7.84219 14.1275 7.35969 14.2389 7.23758 14.289C7.01893 14.3792 6.7698 14.3614 6.56668 14.2402C6.36375 14.119 6.22988 13.9089 6.20535 13.6738C5.96685 11.3874 6.40736 9.06947 7.58231 7.23631C8.76946 5.38429 10.6875 4.06273 13.2923 3.791ZM18.8538 7.36913C17.6568 5.91923 15.8366 5.03397 13.4475 5.28319C11.31 5.50618 9.79444 6.56625 8.84598 8.04588C8.01776 9.33795 7.60844 10.976 7.64578 12.6914C7.9784 12.6579 8.3671 12.6439 8.80692 12.6582C9.82844 12.6914 11.1902 12.8736 12.8968 13.3369C14.4171 13.7497 16.0693 13.7055 17.5413 13.4648C18.7511 13.267 19.8039 12.9403 20.512 12.6601C20.5841 10.6501 19.9847 8.73911 18.8538 7.36913Z" fill="black"/>
<path d="M14.1339 3.76544C15.0456 3.67045 15.7976 4.11946 16.3625 4.75372C16.92 5.3799 17.3624 6.25232 17.7091 7.21954C18.4058 9.16282 18.791 11.7046 18.8351 14.077C18.8426 14.4909 18.5137 14.8329 18.0998 14.8406C17.6856 14.8483 17.3438 14.5184 17.3361 14.1043C17.2941 11.8477 16.9247 9.47607 16.297 7.7254C15.9816 6.84577 15.6194 6.17526 15.2423 5.75176C14.8726 5.33652 14.5596 5.22941 14.2892 5.25762C14.0312 5.28457 13.7274 5.44629 13.4025 5.86797C13.0771 6.29046 12.7802 6.9142 12.5451 7.70684C12.0759 9.28921 11.8989 11.3896 12.1144 13.4559C12.1572 13.8677 11.8583 14.2361 11.4464 14.2791C11.0345 14.3221 10.6652 14.0231 10.6222 13.6111C10.3896 11.3809 10.5732 9.08019 11.1066 7.28106C11.3728 6.38327 11.7375 5.57046 12.214 4.95196C12.6912 4.33264 13.3306 3.84924 14.1339 3.76544Z" fill="black"/>
</svg>
