<svg width="24" height="24" viewBox="0 0 24 24" fill="none" xmlns="http://www.w3.org/2000/svg">
<path d="M7.38455 19.0513C7.41867 19.0752 7.48587 19.11 7.616 19.1548C7.74624 19.1997 7.89695 19.2404 8.09842 19.2955C10.6703 19.9006 13.3474 19.8984 15.9187 19.2906C16.1123 19.2377 16.2587 19.1986 16.3855 19.1548C16.5152 19.1101 16.5818 19.0751 16.616 19.0513C16.6283 19.0427 16.6341 19.0372 16.6355 19.0357C16.6363 19.0341 16.6554 18.9927 16.6541 18.8726V10.5914C16.6541 10.1773 16.99 9.84153 17.4041 9.84137C17.8183 9.84136 18.1541 10.1772 18.1541 10.5914V18.856C18.1572 19.1403 18.113 19.4196 17.991 19.6773C17.866 19.9412 17.6817 20.1367 17.4754 20.2808C17.1129 20.5339 16.6303 20.6524 16.2928 20.7447C16.2845 20.7469 16.2757 20.7486 16.2674 20.7505C13.4615 21.4143 10.5391 21.4142 7.73318 20.7505C7.72504 20.7486 7.71684 20.7469 7.70877 20.7447C7.37128 20.6525 6.88861 20.5347 6.52615 20.2818C6.31974 20.1377 6.13458 19.9422 6.00955 19.6783C5.88756 19.4207 5.84336 19.1413 5.84646 18.857V10.5914C5.84647 10.1772 6.18236 9.84149 6.59646 9.84137C7.01068 9.84138 7.34646 10.1772 7.34646 10.5914V18.8736C7.34519 18.9934 7.36525 19.0341 7.366 19.0357L7.38455 19.0513Z" fill="black"/>
<path d="M15.5375 3.59615C15.7151 3.22206 16.1624 3.06234 16.5365 3.23971L18.4457 4.14596H18.4447C18.8138 4.31096 19.1507 4.52753 19.4467 4.78658C20.2045 5.44994 20.6969 6.38741 20.7924 7.42135C20.959 9.22654 21.1515 11.3699 21.2982 13.1118C21.3715 13.9821 21.4338 14.7552 21.475 15.3364C21.4956 15.6265 21.5116 15.873 21.5209 16.061C21.5288 16.2205 21.5364 16.4047 21.5248 16.5219C21.4974 16.7981 21.3556 17.0037 21.2494 17.1264C21.1353 17.2583 20.9982 17.3685 20.8637 17.4585C20.5928 17.6397 20.2488 17.7965 19.8783 17.9155C19.1428 18.1516 18.1702 18.2804 17.2445 18.0571C16.842 17.9599 16.5949 17.5553 16.6918 17.1528C16.7889 16.7502 17.1935 16.5021 17.5961 16.5991C18.1822 16.7405 18.8656 16.6646 19.4193 16.4868C19.6905 16.3997 19.8976 16.2976 20.0248 16.2133C20.0238 16.1902 20.0243 16.1642 20.0228 16.1352C20.0143 15.9629 19.9992 15.7289 19.9789 15.4428C19.9384 14.8716 19.8772 14.1062 19.8041 13.2378C19.6579 11.5016 19.4647 9.36267 19.2982 7.55904C19.2387 6.9148 18.932 6.33003 18.4584 5.91549C18.2706 5.75115 18.0563 5.61314 17.8207 5.50924C17.8145 5.50649 17.8083 5.50337 17.8021 5.50045L15.8939 4.59517C15.5198 4.41761 15.3601 3.97029 15.5375 3.59615Z" fill="black"/>
<path d="M7.44627 3.24782C7.82047 3.07021 8.26768 3.23007 8.44529 3.60427C8.62281 3.97843 8.46395 4.42568 8.08982 4.60329L6.19822 5.50075C6.19204 5.50369 6.18593 5.50678 6.17967 5.50954C5.94401 5.61347 5.72981 5.75141 5.54197 5.91579C5.06831 6.3304 4.76162 6.915 4.70213 7.55935C4.53565 9.36306 4.3425 11.5019 4.19627 13.2381C4.12312 14.1065 4.06196 14.8719 4.02147 15.4431C4.00119 15.7291 3.98604 15.9632 3.97752 16.1355C3.97609 16.1645 3.97556 16.1905 3.97459 16.2136C4.10172 16.298 4.30951 16.3999 4.58104 16.4871C5.13477 16.6648 5.81818 16.7408 6.40428 16.5994C6.80675 16.5024 7.21129 16.7497 7.30857 17.1521C7.40571 17.5548 7.15848 17.9602 6.75584 18.0574C5.83014 18.2807 4.85752 18.151 4.12205 17.9148C3.7516 17.7958 3.40756 17.639 3.1367 17.4578C3.00233 17.3679 2.86499 17.2584 2.75096 17.1267C2.64478 17.004 2.50302 16.7983 2.47557 16.5222C2.46392 16.4051 2.47158 16.2209 2.47947 16.0613C2.48877 15.8733 2.5048 15.6269 2.52537 15.3367C2.56658 14.7555 2.62881 13.9826 2.70213 13.1121C2.84884 11.3702 3.04136 9.22691 3.20799 7.42165C3.30343 6.38766 3.79582 5.45027 4.55369 4.78689C4.84947 4.528 5.1859 4.31124 5.55467 4.14626V4.14529L7.44627 3.24782Z" fill="black"/>
<path d="M14.2119 2.01076C14.4158 1.84579 14.7653 1.66318 15.1836 1.76759L15.2813 1.79591L15.4268 1.85646C15.5217 1.90214 15.6112 1.95919 15.6943 2.02541L15.8145 2.13185L16.5244 2.84279C16.9832 3.30155 17.0725 4.01305 16.7402 4.57033L15.2852 7.01076C14.8165 7.79626 13.7374 7.93866 13.0811 7.30177L11.9873 6.24318L10.8945 7.30177C10.2382 7.93844 9.15895 7.79635 8.69044 7.01076L7.23633 4.57033C6.90418 4.01315 6.99263 3.30155 7.45118 2.84279L8.16211 2.13185L8.28126 2.02541C8.40604 1.926 8.54619 1.84821 8.69532 1.79591L8.79297 1.76759C9.21086 1.66348 9.55986 1.84591 9.76368 2.01076L9.84766 2.084L11.9883 4.15626L14.1289 2.084L14.2119 2.01076ZM8.55665 3.85744L9.92481 6.15138L10.9092 5.19923L9.03126 3.38283L8.55665 3.85744ZM13.0664 5.19923L14.0508 6.15138L15.418 3.85744L14.9434 3.38283L13.0664 5.19923Z" fill="black"/>
<path d="M14.9111 1.73828C15.3252 1.73845 15.6611 2.07417 15.6611 2.48828C15.6611 2.90239 15.3252 3.23811 14.9111 3.23828H9.05859C8.64438 3.23828 8.30859 2.90249 8.30859 2.48828C8.30859 2.07407 8.64438 1.73828 9.05859 1.73828H14.9111Z" fill="black"/>
<path d="M12.752 8.0564C13.1662 8.0564 13.502 8.39218 13.502 8.8064C13.502 9.22061 13.1662 9.5564 12.752 9.5564H11.2471C10.8329 9.5564 10.4971 9.22061 10.4971 8.8064C10.4971 8.39218 10.8329 8.0564 11.2471 8.0564H12.752Z" fill="black"/>
<path d="M12.8398 6.48218C13 6.10027 13.4393 5.92072 13.8213 6.08081C14.2032 6.24096 14.3827 6.68027 14.2226 7.06226L13.5254 8.72437L14.5683 14.3826C14.6418 14.7817 14.5467 15.2222 14.2675 15.5515L12.915 17.1462C12.688 17.414 12.3602 17.5798 12 17.5798C11.6397 17.5798 11.3119 17.414 11.0849 17.1462L9.73239 15.5515C9.45353 15.2224 9.35924 14.7824 9.43258 14.3835L10.4736 8.72437L9.77731 7.06226C9.6172 6.68026 9.7967 6.24095 10.1787 6.08081C10.5606 5.92072 11 6.10027 11.1601 6.48218L11.8652 8.16285C11.9738 8.42203 12.0012 8.70919 11.9511 8.9812L10.9121 14.6238L11.999 15.905L13.0869 14.6228L12.0488 8.9812C11.9987 8.70915 12.0261 8.42207 12.1347 8.16285L12.8398 6.48218Z" fill="black"/>
</svg>
