<svg width="24" height="24" viewBox="0 0 24 24" fill="none" xmlns="http://www.w3.org/2000/svg">
<path d="M2.25 15.0918C2.25 14.0415 2.79283 13.1264 3.59375 12.4004C4.39349 11.6756 5.49784 11.0905 6.77148 10.669C7.16472 10.5388 7.58958 10.7523 7.71973 11.1455C7.84959 11.5386 7.63616 11.9626 7.24316 12.0928C6.10081 12.4709 5.20143 12.9681 4.60156 13.5117C4.003 14.0542 3.75 14.5946 3.75 15.0918C3.7501 15.8824 4.41763 16.8037 5.96875 17.5723C7.47344 18.3178 9.60497 18.8008 12 18.8008C14.395 18.8008 16.5266 18.3178 18.0312 17.5723C19.5824 16.8037 20.2499 15.8824 20.25 15.0918C20.25 14.5946 19.997 14.0542 19.3984 13.5117C18.7986 12.9681 17.8992 12.4709 16.7568 12.0928C16.3638 11.9626 16.1504 11.5386 16.2803 11.1455C16.4104 10.7523 16.8353 10.5388 17.2285 10.669C18.5022 11.0905 19.6065 11.6756 20.4062 12.4004C21.2072 13.1264 21.75 14.0415 21.75 15.0918C21.7499 16.7638 20.403 18.0718 18.6973 18.917C16.9446 19.7854 14.5755 20.3008 12 20.3008C9.42447 20.3008 7.0554 19.7854 5.30273 18.917C3.59704 18.0718 2.2501 16.7638 2.25 15.0918Z" fill="black"/>
<path d="M11.9445 3.69922C13.351 3.69923 14.6547 3.87967 15.632 4.19043C16.116 4.34436 16.5622 4.54334 16.9034 4.7998C17.2319 5.04676 17.5878 5.44641 17.588 6.00488C17.588 6.56356 17.232 6.96393 16.9034 7.21094C16.5622 7.46738 16.116 7.66639 15.632 7.82031C14.6547 8.13107 13.351 8.31151 11.9445 8.31152C10.5379 8.31152 9.23423 8.13106 8.25696 7.82031C7.77268 7.66632 7.32588 7.46758 6.9845 7.21094C6.65595 6.96393 6.3009 6.56356 6.3009 6.00488C6.30107 5.44642 6.65603 5.04676 6.9845 4.7998C7.32589 4.54314 7.77264 4.34444 8.25696 4.19043C9.23424 3.87967 10.5379 3.69922 11.9445 3.69922ZM11.9445 5.19922C10.6485 5.19922 9.50485 5.3677 8.71106 5.62012C8.31009 5.74766 8.03966 5.8834 7.88586 5.99902C7.88321 6.00102 7.88058 6.00294 7.87805 6.00488C7.88073 6.00694 7.88304 6.0096 7.88586 6.01172C8.03966 6.12735 8.31006 6.26308 8.71106 6.39062C9.50485 6.64304 10.6485 6.81152 11.9445 6.81152C13.2402 6.81151 14.3831 6.64299 15.1769 6.39062C15.5778 6.26315 15.8482 6.12732 16.0021 6.01172C16.0045 6.00986 16.0066 6.00669 16.0089 6.00488C16.0067 6.00317 16.0044 6.00078 16.0021 5.99902C15.8482 5.88341 15.5778 5.74762 15.1769 5.62012C14.3831 5.36774 13.2403 5.19923 11.9445 5.19922Z" fill="black"/>
<path d="M16.9367 5.35936C17.3471 5.41396 17.6356 5.79067 17.5812 6.20116C17.1492 9.46205 17.1543 11.2221 17.5812 14.3496C17.5858 14.3832 17.5881 14.4173 17.5881 14.4512C17.588 15.0098 17.232 15.4093 16.9035 15.6562C16.5622 15.9127 16.1161 16.1117 15.632 16.2656C14.6548 16.5764 13.3511 16.7568 11.9445 16.7568C10.6006 16.7568 9.3527 16.5921 8.39373 16.3076C7.91687 16.1661 7.47979 15.9861 7.13299 15.7598C6.80415 15.5451 6.44407 15.2148 6.33318 14.7353C6.27786 14.4956 6.32026 14.2777 6.3322 14.208C6.85801 11.1384 6.78119 9.41449 6.30877 6.2119C6.24838 5.80216 6.53183 5.42078 6.94158 5.36034C7.35132 5.29996 7.7327 5.58341 7.79314 5.99315C8.27875 9.28512 8.36849 11.1715 7.82049 14.4004C7.84587 14.4246 7.88612 14.4607 7.95232 14.5039C8.13474 14.623 8.42252 14.7523 8.81951 14.8701C9.60895 15.1044 10.7085 15.2568 11.9445 15.2568C13.2402 15.2568 14.3832 15.0892 15.1769 14.8369C15.578 14.7094 15.8482 14.5727 16.0021 14.457C16.0356 14.4318 16.0583 14.4102 16.0744 14.3945C15.6502 11.2271 15.652 9.33945 16.0939 6.0039C16.1484 5.59331 16.5261 5.30497 16.9367 5.35936Z" fill="black"/>
</svg>
