<svg width="24" height="24" viewBox="0 0 24 24" fill="none" xmlns="http://www.w3.org/2000/svg">
<path d="M18.7651 5.83887V3.95898C18.765 3.84363 18.6715 3.75014 18.5562 3.75H5.44385C5.32848 3.75011 5.23498 3.84362 5.23486 3.95898V5.83887C5.23481 6.25304 4.89905 6.58887 4.48486 6.58887C4.07068 6.58887 3.73491 6.25304 3.73486 5.83887V3.95898C3.73498 3.01519 4.50005 2.25011 5.44385 2.25H18.5562C19.4999 2.25014 20.265 3.0152 20.2651 3.95898V5.83887C20.2651 6.25303 19.9293 6.58885 19.5151 6.58887C19.101 6.58887 18.7652 6.25304 18.7651 5.83887Z" fill="black"/>
<path d="M19.5103 5.08862L19.6538 5.10229C19.9806 5.16575 20.2339 5.44224 20.2583 5.78589L21.2241 19.366H21.2222C21.3371 20.645 20.3315 21.7495 19.0444 21.7498H14.853C13.9924 21.7498 13.2191 21.2465 12.8648 20.4753C12.7878 20.3078 12.7538 20.1469 12.7349 20.033L12.0005 15.6023L11.2691 20.032C11.2503 20.1457 11.2167 20.3062 11.1401 20.4734C10.7862 21.2457 10.0114 21.7498 9.14991 21.7498H4.95558C3.66813 21.7495 2.66233 20.6443 2.77784 19.365H2.77589L3.74659 5.78491L3.77003 5.64233C3.85675 5.32128 4.1504 5.08862 4.49464 5.08862H19.5103ZM4.27198 19.4724C4.27149 19.4792 4.27168 19.4861 4.27101 19.4929C4.23066 19.8981 4.54841 20.2495 4.95558 20.2498H9.14991C9.42082 20.2498 9.66466 20.0911 9.77589 19.8484C9.77628 19.8471 9.77728 19.8456 9.77784 19.8435C9.78077 19.8326 9.784 19.8146 9.78858 19.7869L11.2593 10.8845L11.2935 10.7527C11.3986 10.4595 11.6786 10.2567 11.9995 10.2566C12.3664 10.2565 12.6797 10.5216 12.7398 10.8835L14.2144 19.7878C14.2189 19.8154 14.2232 19.8326 14.2261 19.8435C14.2289 19.854 14.2296 19.855 14.2271 19.8494C14.3384 20.0917 14.5824 20.2498 14.853 20.2498H19.0444C19.4515 20.2495 19.7692 19.898 19.729 19.4929C19.7283 19.4861 19.7285 19.4792 19.728 19.4724L18.812 6.58862H5.19288L4.27198 19.4724Z" fill="black"/>
<path d="M7.9855 5.09157C8.39794 5.12777 8.70313 5.49155 8.66714 5.90407L8.35171 9.52028C8.20231 11.2315 6.85755 12.4848 5.22768 12.3425C4.63709 12.291 4.0997 12.0588 3.66909 11.6922C3.35377 11.4236 3.31569 10.9499 3.58413 10.6345C3.85266 10.3192 4.32639 10.2811 4.64175 10.5496C4.83909 10.7176 5.0834 10.8244 5.35854 10.8484C6.0574 10.9093 6.77068 10.3852 6.85757 9.38942L7.173 5.77321C7.20913 5.36069 7.57293 5.05557 7.9855 5.09157Z" fill="black"/>
<path d="M16.0067 5.09157C15.5942 5.12777 15.2891 5.49155 15.3251 5.90407L15.6405 9.52028C15.7899 11.2315 17.1346 12.4848 18.7645 12.3425C19.3551 12.291 19.8925 12.0588 20.3231 11.6922C20.6384 11.4236 20.6765 10.9499 20.4081 10.6345C20.1395 10.3192 19.6658 10.2811 19.3504 10.5496C19.1531 10.7176 18.9088 10.8244 18.6336 10.8484C17.9348 10.9093 17.2215 10.3852 17.1346 9.38942L16.8192 5.77321C16.7831 5.36069 16.4193 5.05557 16.0067 5.09157Z" fill="black"/>
<path d="M13.1729 4.83887C13.1729 4.97686 13.0608 5.08874 12.9229 5.08887H11.1377C10.9996 5.08887 10.8877 4.97694 10.8877 4.83887V4C10.8878 3.86201 10.9997 3.75 11.1377 3.75L12.9229 3.75C13.0608 3.75013 13.1728 3.86209 13.1729 4V4.83887ZM14.6729 4C14.6728 3.03366 13.8892 2.25013 12.9229 2.25H11.1377C10.1713 2.25 9.38779 3.03358 9.3877 4V4.83887C9.3877 5.80537 10.1712 6.58887 11.1377 6.58887H12.9229C13.8892 6.58874 14.6729 5.80529 14.6729 4.83887V4Z" fill="black"/>
</svg>
