<svg width="24" height="24" viewBox="0 0 24 24" fill="none" xmlns="http://www.w3.org/2000/svg">
<path d="M15.71 3.00391C15.7101 3.01045 15.7104 3.02265 15.711 3.03906C15.7121 3.07184 15.7149 3.12339 15.7198 3.19141C15.7295 3.32865 15.7496 3.53229 15.7901 3.78223C15.8713 4.28349 16.0332 4.96188 16.3545 5.67383L16.5 5.97363C16.8638 6.67731 17.3897 7.39304 18.1514 7.99902C18.3629 8.16737 18.4673 8.43614 18.4248 8.70312C18.2902 9.54877 18.1131 10.2217 17.8008 10.8369C17.4876 11.4537 17.0626 11.9659 16.501 12.5244C16.3605 12.6642 16.1699 12.7432 15.9717 12.7432H8.02836C7.83016 12.7432 7.63959 12.6642 7.49906 12.5244C6.9375 11.9659 6.51243 11.4537 6.19926 10.8369C5.88697 10.2217 5.70989 9.54877 5.57523 8.70312C5.53282 8.43614 5.63715 8.16737 5.84867 7.99902C6.71886 7.30671 7.28094 6.47111 7.64555 5.67383C7.9669 4.96188 8.12881 4.28349 8.21 3.78223C8.25047 3.53228 8.27058 3.32865 8.28031 3.19141C8.28513 3.12339 8.288 3.07184 8.2891 3.03906C8.28965 3.02265 8.28997 3.01045 8.29008 3.00391V3C8.29026 2.58585 8.62593 2.24991 9.04008 2.25C9.45412 2.25022 9.79008 2.58593 9.79008 3C9.78984 3.54383 9.92879 4.52303 10.3184 5.34375C10.7033 6.15452 11.2404 6.64804 11.9991 6.66992C12.5301 6.65233 13.0729 6.24073 13.5284 5.43164C13.9751 4.63801 14.2103 3.66792 14.21 3C14.21 2.58592 14.546 2.25021 14.96 2.25C15.3742 2.24991 15.7098 2.58585 15.71 3V3.00391ZM14.836 6.16699C14.283 7.14944 13.3506 8.14414 12.0147 8.1709C12.0049 8.17109 11.9951 8.17109 11.9854 8.1709C10.5033 8.14121 9.58523 7.18135 9.05961 6.18066C9.04337 6.21804 9.02873 6.25637 9.01176 6.29395L9.0098 6.29688C8.61647 7.15713 8.02282 8.07395 7.1309 8.87598C7.23854 9.42357 7.36378 9.81751 7.53617 10.1572C7.71657 10.5126 7.96551 10.8415 8.34769 11.2432H15.6524C16.0346 10.8415 16.2835 10.5126 16.4639 10.1572C16.6363 9.81754 16.7606 9.42347 16.8682 8.87598C15.9766 8.07404 15.3835 7.15698 14.9903 6.29688L14.9883 6.29395C14.9534 6.21658 14.9216 6.13895 14.8897 6.0625C14.8711 6.09704 14.8551 6.13293 14.836 6.16699Z" fill="black"/>
<path d="M16.4782 13.8268L16.5944 13.8356C16.8616 13.8775 17.0893 14.0619 17.1833 14.3219C17.3915 14.8982 17.5476 15.3958 17.6188 15.9147C17.6914 16.4437 17.6711 16.9594 17.5739 17.5788C17.5189 17.928 17.2277 18.191 16.8747 18.2106C14.4234 18.3461 13.4001 20.2471 13.1979 21.1618C13.122 21.5052 12.8172 21.7495 12.4655 21.7496H11.4821C11.1304 21.7494 10.8265 21.5052 10.7506 21.1618C10.5485 20.2471 9.5243 18.3461 7.07291 18.2106C6.69629 18.1896 6.39411 17.8925 6.36685 17.5163C6.27907 16.3046 6.39417 15.5747 6.75064 14.3649C6.84459 14.046 7.13703 13.827 7.46939 13.8268H16.4782ZM8.04166 15.3268C7.90224 15.8717 7.83956 16.2908 7.83853 16.7887C10.1974 17.18 11.4516 18.8435 11.9733 20.0993C12.4981 18.8357 13.7656 17.1588 16.153 16.7809C16.167 16.5355 16.1607 16.3245 16.1325 16.1188C16.0996 15.879 16.0367 15.6308 15.9401 15.3268H8.04166Z" fill="black"/>
</svg>
