<svg width="24" height="24" viewBox="0 0 24 24" fill="none" xmlns="http://www.w3.org/2000/svg">
<path d="M12.9512 6.77711C13.3518 6.67208 13.7621 6.91171 13.8672 7.31227L16.7911 18.4646C16.8961 18.8652 16.6565 19.2755 16.2559 19.3806C15.8552 19.4857 15.445 19.2461 15.3399 18.8455L12.4161 7.69312C12.311 7.29251 12.5507 6.88223 12.9512 6.77711Z" fill="black"/>
<path d="M11.0488 6.77711C10.6482 6.67208 10.2379 6.91171 10.1328 7.31227L7.20894 18.4646C7.10391 18.8652 7.34352 19.2755 7.7441 19.3806C8.14475 19.4857 8.55504 19.2461 8.66012 18.8455L11.5839 7.69312C11.689 7.29251 11.4493 6.88223 11.0488 6.77711Z" fill="black"/>
<path d="M19.71 13.7092C20.0964 13.5609 20.53 13.7536 20.6787 14.1399L21.6387 16.635C21.9634 17.4794 21.5571 18.4293 20.7227 18.7786C20.1376 19.0233 19.5465 18.8801 19.1328 18.6751C18.5214 18.3721 17.7751 18.4421 17.2256 18.8831C16.0249 19.847 14.315 19.847 13.1143 18.8831C12.4621 18.3598 11.5339 18.3597 10.8819 18.8831C9.68116 19.8469 7.97222 19.8469 6.7715 18.8831C6.22191 18.4419 5.47484 18.372 4.8633 18.6751C4.44909 18.8803 3.85759 19.023 3.27248 18.7766C2.43808 18.4251 2.03489 17.4725 2.36427 16.6292L3.33791 14.137C3.48859 13.7511 3.92376 13.5605 4.30959 13.7112C4.69532 13.8618 4.88585 14.2961 4.73537 14.6819L3.76173 17.1751C3.72817 17.2611 3.76947 17.3579 3.85451 17.3938C3.89233 17.4097 4.00583 17.4262 4.19728 17.3313C5.32301 16.7734 6.69713 16.9003 7.70998 17.7131C8.36213 18.2367 9.29122 18.2367 9.94337 17.7131C11.144 16.7497 12.8532 16.7495 14.0537 17.7131C14.7059 18.2367 15.634 18.2367 16.2861 17.7131C17.2989 16.9002 18.6731 16.7735 19.7988 17.3313C19.9904 17.4263 20.1048 17.4109 20.1436 17.3948C20.2295 17.3588 20.2715 17.2611 20.2383 17.1741L19.2783 14.679C19.1297 14.2924 19.3234 13.8579 19.71 13.7092Z" fill="black"/>
<path d="M16.8223 6.75269L16.9912 6.7605C17.3666 6.79533 17.7994 6.9495 18.0713 7.30542L18.1309 7.39136L18.1406 7.40601L21.5811 13.1179C21.8302 13.5315 21.7909 14.003 21.5488 14.365C21.3289 14.6936 20.978 14.8903 20.627 14.9841C20.1329 15.1162 19.6277 15.0442 19.2402 14.9216C18.5419 14.7006 17.687 14.7602 17.0977 15.0623C15.9565 15.6471 14.3834 15.6471 13.2422 15.0623C12.5307 14.6976 11.4666 14.6977 10.7549 15.0623C9.61369 15.6472 8.03966 15.6472 6.89845 15.0623C6.30916 14.7603 5.45508 14.7007 4.75685 14.9216C4.36904 15.0443 3.86246 15.1161 3.36818 14.9832C3.0172 14.8887 2.66602 14.6905 2.44728 14.3601C2.20617 13.9957 2.17212 13.5236 2.42384 13.1121L5.91896 7.39917L5.92873 7.38257C6.23289 6.91286 6.79921 6.75275 7.23146 6.75269H16.8223ZM7.16212 8.25952C7.15672 8.26058 7.15195 8.26229 7.14748 8.26343L3.9131 13.5525C4.02559 13.5545 4.16132 13.5373 4.3047 13.4919C5.34367 13.1633 6.61001 13.2286 7.58302 13.7273C8.29469 14.092 9.35867 14.092 10.0703 13.7273C11.2114 13.1425 12.7847 13.1426 13.9258 13.7273C14.6375 14.092 15.7024 14.092 16.4141 13.7273C17.3872 13.2287 18.6535 13.1631 19.6924 13.4919C19.8388 13.5383 19.9768 13.5552 20.0908 13.5525L16.9053 8.26245C16.9014 8.26149 16.8972 8.26043 16.8926 8.25952L16.8223 8.25269H7.23146L7.16212 8.25952Z" fill="black"/>
<path d="M18.1172 7.50244C18.1172 7.91666 17.7814 8.25244 17.3672 8.25244C16.9532 8.25218 16.6172 7.91649 16.6172 7.50244V5.89404H7.37305V7.50244C7.37305 7.91666 7.03726 8.25244 6.62305 8.25244C6.20883 8.25244 5.87305 7.91666 5.87305 7.50244V5.87256C5.87305 5.05601 6.53501 4.39404 7.35156 4.39404H16.6396C17.456 4.3943 18.1172 5.05617 18.1172 5.87256V7.50244Z" fill="black"/>
</svg>
