<svg width="24" height="24" viewBox="0 0 24 24" fill="none" xmlns="http://www.w3.org/2000/svg">
<path d="M12.9513 6.77717C13.3519 6.67214 13.7622 6.91177 13.8673 7.31233L16.7912 18.4647C16.8962 18.8653 16.6566 19.2756 16.256 19.3807C15.8554 19.4857 15.4451 19.2462 15.34 18.8455L12.4162 7.69319C12.3111 7.29258 12.5508 6.88229 12.9513 6.77717Z" fill="black"/>
<path d="M11.0488 6.77717C10.6482 6.67214 10.2379 6.91177 10.1328 7.31233L7.20894 18.4647C7.10391 18.8653 7.34352 19.2756 7.7441 19.3807C8.14475 19.4857 8.55504 19.2462 8.66012 18.8455L11.5839 7.69319C11.689 7.29258 11.4493 6.88229 11.0488 6.77717Z" fill="black"/>
<path d="M16.8222 6.75275L16.9345 6.75665C17.4541 6.79598 17.9149 7.10727 18.1464 7.57404L18.1923 7.67657L18.1982 7.68829H18.1972L21.6386 16.6346V16.6356C21.963 17.4798 21.5569 18.4289 20.7226 18.7781C20.1375 19.0229 19.5465 18.8807 19.1328 18.6756C18.5214 18.3726 17.7751 18.4417 17.2255 18.8826C16.0248 19.8465 14.3149 19.8465 13.1142 18.8826C12.4621 18.3595 11.5338 18.3594 10.8818 18.8826C9.68107 19.8465 7.97216 19.8465 6.77144 18.8826C6.22186 18.4415 5.47476 18.3725 4.86324 18.6756C4.44902 18.8808 3.85745 19.0226 3.27242 18.7762C2.4382 18.4247 2.03521 17.4729 2.36422 16.6297L5.85933 7.68048L5.86519 7.66681C6.09377 7.11393 6.63315 6.75285 7.2314 6.75275H16.8222ZM3.76168 17.1746C3.72806 17.2607 3.76931 17.3585 3.85445 17.3943C3.89235 17.4103 4.0061 17.4265 4.19722 17.3318C5.32307 16.7738 6.69705 16.9006 7.70992 17.7137C8.36208 18.2372 9.29116 18.2372 9.94332 17.7137C11.144 16.7499 12.853 16.7498 14.0537 17.7137C14.7057 18.237 15.634 18.237 16.2861 17.7137C17.299 16.9006 18.6729 16.7738 19.7988 17.3318C19.9905 17.4269 20.1049 17.4104 20.1435 17.3943C20.2296 17.3583 20.2716 17.2607 20.2382 17.1736L16.8076 8.25275H7.24605L3.76168 17.1746Z" fill="black"/>
<path d="M18.1167 7.50244C18.1167 7.91666 17.7809 8.25244 17.3667 8.25244C16.9527 8.25218 16.6167 7.91649 16.6167 7.50244V5.89404H7.37256V7.50244C7.37256 7.91666 7.03677 8.25244 6.62256 8.25244C6.20835 8.25244 5.87256 7.91666 5.87256 7.50244V5.87256C5.87256 5.05601 6.53452 4.39404 7.35107 4.39404H16.6392C17.4555 4.3943 18.1167 5.05617 18.1167 5.87256V7.50244Z" fill="black"/>
</svg>
