<svg width="24" height="24" viewBox="0 0 24 24" fill="none" xmlns="http://www.w3.org/2000/svg">
<path d="M19.9355 13.2502C20.3498 13.2502 20.6855 13.586 20.6855 14.0002C20.6855 14.4144 20.3498 14.7502 19.9355 14.7502H16.4521C16.0379 14.7502 15.7021 14.4144 15.7021 14.0002C15.7021 13.586 16.0379 13.2502 16.4521 13.2502H19.9355Z" fill="black"/>
<path d="M11.2703 20.9997V7.33562C11.2703 6.92141 11.6061 6.58562 12.0203 6.58562C12.4345 6.58562 12.7703 6.92141 12.7703 7.33562V20.9997C12.7703 21.4139 12.4345 21.7497 12.0203 21.7497C11.6061 21.7497 11.2703 21.4139 11.2703 20.9997Z" fill="black"/>
<path d="M15.5366 2.66504C15.7837 2.42592 16.2893 2.10722 16.8862 2.31641C17.1332 2.40303 17.3606 2.54472 17.5493 2.7334L18.6274 3.81152C19.1975 4.38185 19.3078 5.26626 18.895 5.95898L16.6889 9.66016C16.1064 10.6373 14.7638 10.8147 13.9477 10.0225L12.02 8.15527L10.0922 10.0225C9.27614 10.8145 7.93449 10.6372 7.352 9.66016L5.14595 5.95898C4.73302 5.26632 4.84257 4.3819 5.41255 3.81152L6.49067 2.7334C6.67932 2.54476 6.90678 2.40304 7.15376 2.31641C7.75056 2.10713 8.25614 2.42592 8.50337 2.66504L12.02 6.06934L15.5366 2.66504ZM6.47407 4.87207C6.38929 4.95685 6.37264 5.08842 6.43403 5.19141L8.64009 8.89258C8.72677 9.03772 8.92705 9.06417 9.04829 8.94629L9.04927 8.94434L10.9418 7.1123L7.53267 3.8125L6.47407 4.87207ZM13.0971 7.1123L14.9916 8.94434L14.9926 8.94629C15.1138 9.06381 15.3132 9.03745 15.3999 8.89258L17.6069 5.19141C17.6682 5.08851 17.6514 4.95686 17.5668 4.87207L16.5073 3.8125L13.0971 7.1123Z" fill="black"/>
<path d="M16.4518 2.25C16.866 2.25 17.2018 2.58579 17.2018 3C17.2018 3.41421 16.866 3.75 16.4518 3.75H7.57581C7.16159 3.75 6.82581 3.41421 6.82581 3C6.82581 2.58579 7.16159 2.25 7.57581 2.25H16.4518Z" fill="black"/>
<path d="M17.9655 5.34487C19.3621 5.33899 20.5316 5.80715 21.2497 6.72573C21.9674 7.64408 22.123 8.87022 21.7878 10.1476C21.459 11.4005 21.0857 13.0107 20.7038 14.6369C20.3239 16.2544 19.9345 17.888 19.5788 19.1603C19.3037 20.1442 18.6996 20.8229 17.8571 21.2306C17.053 21.6196 16.067 21.7462 15.0124 21.7462H8.9821C7.92743 21.7462 6.94147 21.6196 6.13738 21.2306C5.29485 20.8229 4.69079 20.1442 4.4157 19.1603C4.05999 17.888 3.67062 16.2544 3.2907 14.6369C2.90877 13.0108 2.5365 11.4005 2.20769 10.1476C1.87245 8.87018 2.02708 7.64411 2.7448 6.72573C3.46291 5.80717 4.63246 5.33901 6.02898 5.34487C6.44307 5.34663 6.77762 5.68375 6.77605 6.0978C6.77429 6.51196 6.43726 6.84655 6.02312 6.84487C4.95508 6.84032 4.28491 7.19104 3.92644 7.64956C3.56809 8.10827 3.40903 8.81826 3.65789 9.76675C3.99303 11.0438 4.37243 12.6796 4.75164 14.2941C5.13288 15.9173 5.51424 17.5202 5.86003 18.757C6.0159 19.3142 6.32397 19.6542 6.7907 19.88C7.29583 20.1244 8.01633 20.2462 8.9821 20.2462H15.0124C15.9781 20.2462 16.6986 20.1244 17.2038 19.88C17.6705 19.6542 17.9786 19.3141 18.1344 18.757C18.4802 17.5202 18.8616 15.9173 19.2428 14.2941C19.6221 12.6796 20.0014 11.0438 20.3366 9.76675C20.5855 8.81821 20.4264 8.10828 20.068 7.64956C19.7096 7.19104 19.0394 6.84032 17.9714 6.84487C17.5573 6.8465 17.2202 6.51193 17.2184 6.0978C17.2168 5.68373 17.5514 5.34663 17.9655 5.34487Z" fill="black"/>
</svg>
