<svg width="24" height="24" viewBox="0 0 24 24" fill="none" xmlns="http://www.w3.org/2000/svg">
<path d="M20.25 8.02637C20.25 6.70868 19.8411 5.64605 19.165 4.91992C18.4945 4.19984 17.5056 3.75 16.2168 3.75H7.78223C6.49854 3.75 5.50964 4.19942 4.83789 4.91992C4.16068 5.64646 3.75 6.7095 3.75 8.02637V15.9736C3.75001 17.2914 4.15907 18.354 4.83496 19.0801C5.50521 19.8 6.49357 20.25 7.78223 20.25H16.2158C17.5052 20.25 18.4944 19.8002 19.165 19.0801C19.8412 18.354 20.25 17.2913 20.25 15.9736V8.02637ZM21.75 15.9736C21.75 17.6011 21.2412 19.0518 20.2627 20.1025C19.2785 21.1593 17.8755 21.75 16.2158 21.75H7.78223C6.12289 21.75 4.72013 21.1594 3.73633 20.1025C2.75818 19.0517 2.25001 17.601 2.25 15.9736V8.02637C2.25 6.39806 2.76123 4.9478 3.74023 3.89746C4.72472 2.84126 6.12676 2.25 7.78223 2.25H16.2168C17.876 2.25 19.2787 2.84078 20.2627 3.89746C21.2411 4.94822 21.75 6.39888 21.75 8.02637V15.9736Z" fill="black"/>
<path d="M15.5166 2.66504C15.7637 2.42593 16.2693 2.10722 16.8662 2.31641C17.1132 2.40304 17.3406 2.54472 17.5292 2.7334L18.6074 3.81153C19.1775 4.38186 19.2878 5.26626 18.875 5.95899L16.6689 9.66016C16.0864 10.6373 14.7438 10.8147 13.9277 10.0225L12 8.15528L10.0722 10.0225C9.25612 10.8145 7.91447 10.6372 7.33198 9.66016L5.12593 5.95899C4.713 5.26633 4.82255 4.3819 5.39253 3.81153L6.47065 2.7334C6.6593 2.54476 6.88676 2.40304 7.13374 2.31641C7.73055 2.10713 8.23612 2.42592 8.48335 2.66504L12 6.06934L15.5166 2.66504ZM6.45405 4.87207C6.36927 4.95685 6.35262 5.08842 6.41401 5.19141L8.62007 8.89258C8.70675 9.03772 8.90703 9.06418 9.02827 8.94629L9.02925 8.94434L10.9218 7.11231L7.51265 3.8125L6.45405 4.87207ZM13.0771 7.11231L14.9716 8.94434L14.9726 8.94629C15.0938 9.06382 15.2932 9.03745 15.3798 8.89258L17.5869 5.19141C17.6482 5.08852 17.6314 4.95686 17.5468 4.87207L16.4873 3.8125L13.0771 7.11231Z" fill="black"/>
<path d="M13.5 11.25C13.9141 11.25 14.2499 11.5859 14.25 12C14.25 12.4142 13.9142 12.75 13.5 12.75H10.499C10.0848 12.75 9.74902 12.4142 9.74902 12C9.74914 11.5859 10.0849 11.25 10.499 11.25H13.5Z" fill="black"/>
<path d="M9.75974 11.877C9.82783 11.4684 10.2144 11.1917 10.623 11.2598C11.0315 11.3279 11.3072 11.7146 11.2392 12.123L9.73923 21.127C9.67114 21.5355 9.28446 21.8111 8.87595 21.7432C8.46753 21.6751 8.19095 21.2893 8.25876 20.8809L9.75974 11.877Z" fill="black"/>
<path d="M13.3779 11.2598C13.7864 11.1919 14.1731 11.4685 14.2412 11.8769L15.7412 20.8809C15.8091 21.2892 15.5334 21.675 15.125 21.7432C14.7164 21.8113 14.3298 21.5355 14.2617 21.1269L12.7607 12.123C12.6928 11.7146 12.9695 11.3278 13.3779 11.2598Z" fill="black"/>
<path d="M13.997 9.33081C14.1823 8.96032 14.6334 8.80963 15.0039 8.99487C15.3741 9.18014 15.5238 9.63039 15.3388 10.0007L14.1718 12.3357C13.9866 12.706 13.5364 12.8557 13.166 12.6707C12.7955 12.4854 12.6449 12.0353 12.83 11.6648L13.997 9.33081Z" fill="black"/>
<path d="M8.99705 8.99488C9.36746 8.80993 9.81773 8.96046 10.0029 9.33081L11.1699 11.6648C11.3551 12.0351 11.2051 12.4853 10.8349 12.6707C10.4645 12.8559 10.0134 12.7062 9.8281 12.3357L8.66111 10.0007C8.47617 9.63033 8.6267 9.18005 8.99705 8.99488Z" fill="black"/>
</svg>
