<svg width="24" height="24" viewBox="0 0 24 24" fill="none" xmlns="http://www.w3.org/2000/svg">
<path d="M17.5002 13.2501C17.9143 13.2502 18.2501 13.586 18.2502 14.0001C18.2502 14.4142 17.9144 14.75 17.5002 14.7501H15.4993C15.0851 14.7501 14.7493 14.4143 14.7493 14.0001C14.7494 13.586 15.0851 13.2501 15.4993 13.2501H17.5002Z" fill="black"/>
<path d="M11.2703 20.9997V7.33562C11.2703 6.92141 11.6061 6.58562 12.0203 6.58562C12.4345 6.58562 12.7703 6.92141 12.7703 7.33562V20.9997C12.7703 21.4139 12.4345 21.7497 12.0203 21.7497C11.6061 21.7497 11.2703 21.4139 11.2703 20.9997Z" fill="black"/>
<path d="M15.5366 2.66504C15.7837 2.42593 16.2893 2.10722 16.8862 2.31641C17.1332 2.40304 17.3606 2.54472 17.5493 2.7334L18.6274 3.81153C19.1975 4.38186 19.3078 5.26626 18.895 5.95899L16.6889 9.66016C16.1064 10.6373 14.7638 10.8147 13.9477 10.0225L12.02 8.15528L10.0922 10.0225C9.27614 10.8145 7.93449 10.6372 7.352 9.66016L5.14595 5.95899C4.73302 5.26633 4.84257 4.3819 5.41255 3.81153L6.49067 2.7334C6.67932 2.54476 6.90678 2.40304 7.15376 2.31641C7.75056 2.10713 8.25614 2.42592 8.50337 2.66504L12.02 6.06934L15.5366 2.66504ZM6.47407 4.87207C6.38929 4.95685 6.37264 5.08842 6.43403 5.19141L8.64009 8.89258C8.72677 9.03772 8.92705 9.06418 9.04829 8.94629L9.04927 8.94434L10.9418 7.11231L7.53267 3.8125L6.47407 4.87207ZM13.0971 7.11231L14.9916 8.94434L14.9926 8.94629C15.1138 9.06382 15.3132 9.03745 15.3999 8.89258L17.6069 5.19141C17.6682 5.08852 17.6514 4.95686 17.5668 4.87207L16.5073 3.8125L13.0971 7.11231Z" fill="black"/>
<path d="M16.4518 2.25C16.866 2.25 17.2018 2.58579 17.2018 3C17.2018 3.41421 16.866 3.75 16.4518 3.75H7.57581C7.16159 3.75 6.82581 3.41421 6.82581 3C6.82581 2.58579 7.16159 2.25 7.57581 2.25H16.4518Z" fill="black"/>
<path d="M2.25244 16.809V10.1879C2.25244 7.75605 3.61221 5.80355 5.94189 5.3481C6.34829 5.26884 6.74233 5.53447 6.82178 5.94088C6.90102 6.34726 6.6354 6.74131 6.229 6.82076C4.72203 7.11557 3.75244 8.34588 3.75244 10.1879V16.809C3.75253 17.8809 4.08474 18.7342 4.62256 19.312C5.15479 19.8836 5.94422 20.2465 6.98682 20.2465H17.0122C18.0552 20.2464 18.845 19.8827 19.3774 19.311C19.9153 18.7332 20.2475 17.8806 20.2476 16.809V10.1879C20.2476 8.3602 19.2977 7.13807 17.8149 6.82955C17.4095 6.74513 17.1495 6.34735 17.2339 5.94185C17.3184 5.53652 17.7152 5.27646 18.1206 5.3608C20.4196 5.83915 21.7476 7.78029 21.7476 10.1879V16.809C21.7475 18.1905 21.3153 19.431 20.4751 20.3335C19.6291 21.2419 18.4257 21.7464 17.0122 21.7465H6.98682C5.5735 21.7465 4.37069 21.242 3.5249 20.3335C2.68484 19.431 2.25253 18.1905 2.25244 16.809Z" fill="black"/>
</svg>
