<svg width="24" height="24" viewBox="0 0 24 24" fill="none" xmlns="http://www.w3.org/2000/svg">
<path d="M19.5489 20.3135C19.5489 21.1068 18.9057 21.75 18.1124 21.75H5.88776C5.09442 21.75 4.45124 21.1068 4.45123 20.3135V18.873C4.45119 18.5713 4.39976 18.3118 4.336 18.1133C4.30419 18.0143 4.27027 17.9336 4.24029 17.873C4.2254 17.843 4.21265 17.8189 4.20221 17.8018C4.19152 17.7842 4.18463 17.7764 4.18463 17.7764C2.80094 16.2211 2.59304 14.5583 2.89068 13.1592C3.18217 11.7895 3.94941 10.6868 4.4942 10.1357C4.86851 9.75688 5.08254 9.17133 5.18951 8.5752C5.29357 7.99528 5.27799 7.50765 5.27447 7.42773C5.27355 7.40663 5.2735 7.38221 5.2735 7.35449L5.27252 4.00879C5.27265 3.03742 6.06088 2.25 7.03229 2.25H7.41315C8.39693 2.25005 9.19421 3.04749 9.1944 4.03125V7.13379C9.1944 8.66865 10.4389 9.91301 11.9737 9.91309C13.5086 9.91309 14.753 8.66869 14.753 7.13379V4.03125C14.7532 3.04758 15.5506 2.2502 16.5342 2.25H16.9561C17.9344 2.25009 18.7275 3.04317 18.7276 4.02148V7.35449C18.7276 8.49144 18.8872 9.50881 19.5069 10.1357C20.0517 10.6868 20.818 11.7895 21.1094 13.1592C21.4075 14.5603 21.1994 16.2251 19.8106 17.7822C19.8078 17.7864 19.8042 17.793 19.7989 17.8018C19.7884 17.819 19.7748 17.8429 19.7598 17.873C19.7299 17.9336 19.6959 18.0143 19.6641 18.1133C19.6004 18.3118 19.5489 18.5713 19.5489 18.873V20.3135ZM6.7735 7.3623C6.77956 7.50066 6.7971 8.10946 6.66608 8.83984C6.53781 9.55459 6.24831 10.4947 5.56061 11.1904C5.17691 11.5786 4.57929 12.4335 4.35846 13.4707C4.15997 14.4034 4.25896 15.4956 5.14557 16.5938L5.33404 16.8135L5.37018 16.8574C5.64632 17.2135 5.95115 17.9557 5.95123 18.873V20.25H18.0489V18.873C18.049 17.9559 18.3538 17.2136 18.6299 16.8574L18.6671 16.8135C19.7271 15.642 19.8544 14.4656 19.6426 13.4707C19.4219 12.4336 18.8242 11.5787 18.4405 11.1904C17.3605 10.0979 17.2276 8.51299 17.2276 7.35449V4.02148C17.2275 3.87159 17.106 3.75009 16.9561 3.75H16.5342C16.379 3.7502 16.2532 3.87601 16.253 4.03125V7.13379C16.253 9.49712 14.337 11.4131 11.9737 11.4131C9.61042 11.413 7.6944 9.49708 7.6944 7.13379V4.03125C7.69421 3.87592 7.56851 3.75005 7.41315 3.75H7.03229C6.88931 3.75 6.77265 3.86584 6.77252 4.00879L6.7735 7.3623Z" fill="black"/>
<path d="M8.26956 3.19776C8.67233 3.10134 9.07735 3.34971 9.17385 3.75245C9.37188 4.57966 10.2448 5.36768 11.9737 5.36768C13.6468 5.36765 14.497 4.58372 14.7901 3.69288C14.9195 3.2994 15.3439 3.08494 15.7373 3.21436C16.1307 3.34382 16.3443 3.76818 16.2149 4.16163C15.6909 5.75435 14.1986 6.86765 11.9737 6.86768C9.80435 6.86768 8.12687 5.82271 7.71487 4.10206C7.61845 3.69928 7.86682 3.29426 8.26956 3.19776Z" fill="black"/>
<path d="M18.6143 17.9761C19.0285 17.9761 19.3643 18.3119 19.3643 18.7261C19.3643 19.1403 19.0285 19.4761 18.6143 19.4761H5.21289C4.79868 19.4761 4.46289 19.1403 4.46289 18.7261C4.46289 18.3119 4.79868 17.9761 5.21289 17.9761H18.6143Z" fill="black"/>
</svg>
