<svg width="24" height="24" viewBox="0 0 24 24" fill="none" xmlns="http://www.w3.org/2000/svg">
<path d="M14.2343 8.56396C14.5294 8.27334 15.0042 8.27669 15.2948 8.57177C15.5854 8.86679 15.5818 9.34164 15.287 9.63232L13.2616 11.6274C12.5612 12.3171 11.4366 12.3172 10.7362 11.6274L8.7118 9.6333C8.41675 9.34267 8.41346 8.86786 8.70399 8.57275C8.99461 8.2777 9.46943 8.27344 9.76454 8.56396L11.789 10.5581C11.9055 10.6728 12.0924 10.6728 12.2089 10.5581L14.2343 8.56396Z" fill="black"/>
<path d="M13.2529 9.73154C13.6539 9.62763 14.0631 9.86866 14.167 10.2696L16.0059 17.3614L16.0137 17.3976C16.1317 17.9666 15.952 18.557 15.5371 18.964L13.1943 21.2618C12.5302 21.9128 11.4667 21.9131 10.8027 21.2618L8.46093 18.964C8.04631 18.5571 7.86648 17.9674 7.98437 17.3985L7.99316 17.3624L9.83007 10.2696C9.93394 9.86864 10.3441 9.62767 10.7451 9.73154C11.1458 9.83563 11.386 10.2448 11.2822 10.6456L9.45214 17.7101C9.44065 17.777 9.46298 17.8458 9.51171 17.8936L11.8535 20.1905C11.9343 20.2697 12.0638 20.2697 12.1445 20.1905L14.4873 17.8927C14.5375 17.8434 14.5589 17.7721 14.5449 17.7032L12.7158 10.6456C12.6119 10.2447 12.8522 9.8356 13.2529 9.73154Z" fill="black"/>
<path d="M8.88321 2.65527C8.63806 2.42737 8.18141 2.14925 7.64005 2.28418L7.52775 2.31738L7.34122 2.39453C7.15925 2.4821 6.99166 2.6006 6.84611 2.74609L5.71427 3.87793C5.13182 4.46037 5.01694 5.36099 5.43107 6.07129L5.43009 6.07227L7.12247 9.07031C7.12527 9.07527 7.12835 9.08007 7.13126 9.08496C7.73053 10.0902 9.11127 10.2723 9.9506 9.45703L12.0004 7.47363L14.0492 9.45801L14.0502 9.45703C14.8896 10.2717 16.2694 10.0899 16.8686 9.08496C16.8715 9.07999 16.8745 9.07438 16.8774 9.06934L18.5688 6.07129L18.5678 6.07031C18.9816 5.36008 18.8669 4.46024 18.2846 3.87793L17.1537 2.74609C16.9597 2.55212 16.726 2.4065 16.4721 2.31738L16.3588 2.2832C15.8178 2.1486 15.3618 2.42748 15.1166 2.65527L15.1156 2.6543L12.0004 5.42578L8.88321 2.6543V2.65527ZM16.0932 3.80664L17.224 4.93848C17.3124 5.02685 17.3391 5.1579 17.2953 5.27148L17.2719 5.31934L17.2631 5.33398L15.5795 8.31738L15.5356 8.375C15.4189 8.49552 15.2208 8.50401 15.0942 8.38086L15.0922 8.37988L13.1029 6.45312L16.0844 3.79883C16.0872 3.80144 16.0905 3.80392 16.0932 3.80664ZM10.8979 6.45312L8.90665 8.37988L8.90568 8.38086C8.76196 8.5206 8.52749 8.48983 8.42325 8.31934L6.73673 5.33496L6.72696 5.31934C6.65385 5.19658 6.67378 5.03951 6.77482 4.93848L7.90665 3.80664C7.90911 3.80419 7.91194 3.80216 7.91446 3.7998L10.8979 6.45312Z" fill="black"/>
</svg>
