<svg width="24" height="24" viewBox="0 0 24 24" fill="none" xmlns="http://www.w3.org/2000/svg">
<path d="M7.99512 3.39722C7.99512 2.983 8.3309 2.64722 8.74512 2.64722C9.15933 2.64722 9.49512 2.983 9.49512 3.39722C9.49512 4.56963 9.85127 5.37195 10.3135 5.8728C10.7783 6.37644 11.3899 6.62071 11.998 6.6189C13.1575 6.61539 14.5049 5.67881 14.5049 3.39722C14.5049 2.98313 14.8408 2.64743 15.2549 2.64722C15.6691 2.64722 16.0049 2.983 16.0049 3.39722C16.0049 6.39176 14.0975 8.11265 12.002 8.1189C10.9827 8.12181 9.96668 7.70927 9.21094 6.89038C8.4525 6.06854 7.99512 4.88231 7.99512 3.39722Z" fill="black"/>
<path d="M14.4892 2.37109C15.2572 2.3711 16.0161 2.54112 16.7109 2.86816L18.0947 3.51855C19.2514 4.06299 20.1077 5.09194 20.4336 6.32812L21.6064 10.7764C21.7721 11.4049 21.7948 12.0627 21.6728 12.7012L20.8642 16.9307C20.7156 17.7084 20.0359 18.2714 19.2441 18.2715H17.3252C16.9113 18.2713 16.5754 17.9354 16.5752 17.5215C16.5752 17.1074 16.9111 16.7717 17.3252 16.7715H19.2441C19.316 16.7714 19.378 16.72 19.3916 16.6494L20.1992 12.4199C20.2791 12.0015 20.2648 11.5701 20.1562 11.1582L18.9834 6.71094C18.7706 5.90376 18.2113 5.23152 17.456 4.87598L16.0722 4.22461C15.6078 4.00599 15.1032 3.88701 14.5908 3.87305C13.6125 4.17887 12.8091 4.34654 11.9843 4.34375C11.1604 4.34095 10.3659 4.16886 9.40817 3.87305C8.89609 3.88714 8.39188 4.00613 7.92771 4.22461L6.54392 4.87598C5.78867 5.23152 5.22937 5.90376 5.01657 6.71094L3.84372 11.1592C3.73526 11.5709 3.72087 12.0017 3.80075 12.4199L4.60837 16.6494C4.62193 16.72 4.68396 16.7714 4.75583 16.7715H6.71482C7.12903 16.7715 7.46482 17.1073 7.46482 17.5215C7.46458 17.9355 7.12889 18.2715 6.71482 18.2715H4.75583C3.96404 18.2714 3.28433 17.7084 3.13571 16.9307L2.32712 12.7012C2.20519 12.0627 2.22782 11.4049 2.39353 10.7764L3.56638 6.32812C3.89229 5.09194 4.74854 4.06299 5.90525 3.51855L7.28903 2.86816C7.98388 2.54111 8.74275 2.37109 9.51071 2.37109L9.624 2.37988C9.66183 2.38568 9.69969 2.39471 9.7363 2.40625C10.6915 2.70733 11.3517 2.84157 11.9892 2.84375C12.6255 2.84591 13.2932 2.71662 14.2607 2.40723C14.3344 2.38364 14.4118 2.37113 14.4892 2.37109Z" fill="black"/>
<path d="M16.6407 8.28661C17.0151 8.10951 17.4626 8.26959 17.6397 8.64404C18.1683 9.76204 18.2069 11.0598 17.7334 12.2075C17.5769 12.587 17.5057 12.8998 17.5362 13.1704L18.1817 18.8784C18.2625 19.5933 17.8953 20.3128 17.211 20.6313C13.6212 22.3014 10.3904 22.2424 6.86332 20.6313C6.17254 20.3158 5.79847 19.5924 5.87992 18.8716L6.52445 13.1733C6.55505 12.9025 6.48396 12.5892 6.32719 12.2095C5.85304 11.0613 5.89188 9.76268 6.42094 8.64404C6.59804 8.2696 7.04454 8.10952 7.41898 8.28661C7.79333 8.46367 7.95329 8.91028 7.7764 9.28466C7.42624 10.025 7.40204 10.8831 7.71293 11.6362C7.90682 12.1057 8.0872 12.699 8.01469 13.3413L7.37113 19.0405C7.35878 19.1506 7.41649 19.2351 7.48637 19.2671C10.63 20.703 13.4017 20.7498 16.5782 19.272C16.646 19.2404 16.7036 19.1567 16.6914 19.0474L16.0459 13.3393C15.9734 12.6975 16.1531 12.1045 16.3467 11.6352C16.6573 10.8823 16.6333 10.0247 16.2832 9.28466C16.1064 8.91032 16.2664 8.4637 16.6407 8.28661Z" fill="black"/>
</svg>
