<svg width="24" height="24" viewBox="0 0 24 24" fill="none" xmlns="http://www.w3.org/2000/svg">
<path fill-rule="evenodd" clip-rule="evenodd" d="M11.9965 5.355C11.9975 5.355 11.9985 5.356 11.9995 5.356C12.0005 5.356 12.0015 5.355 12.0025 5.355C13.1495 5.357 14.0825 6.29 14.0825 7.438C14.0825 8.586 13.1485 9.52 11.9995 9.52C11.7295 9.52 11.4715 9.464 11.2345 9.37C11.2325 9.369 11.2315 9.367 11.2295 9.366C11.2255 9.365 11.2205 9.366 11.2165 9.364C10.4555 9.054 9.91654 8.309 9.91654 7.438C9.91654 6.29 10.8495 5.357 11.9965 5.355ZM20.9035 11.824C20.4365 11.532 19.8195 11.673 19.5255 12.141C17.8905 14.753 15.0765 16.313 11.9995 16.313C11.2185 16.313 10.4545 16.21 9.72254 16.018L11.4875 11.468C11.6565 11.49 11.8245 11.52 11.9995 11.52C12.1975 11.52 12.3865 11.489 12.5775 11.461L13.5295 13.917C13.6825 14.314 14.0615 14.556 14.4615 14.556C14.5815 14.556 14.7035 14.534 14.8225 14.489C15.3375 14.289 15.5935 13.709 15.3945 13.195L14.4275 10.701C15.4265 9.956 16.0825 8.776 16.0825 7.438C16.0825 5.533 14.7665 3.942 12.9995 3.493V3C12.9995 2.448 12.5525 2 11.9995 2C11.4475 2 10.9995 2.448 10.9995 3V3.493C9.23354 3.942 7.91654 5.533 7.91654 7.438C7.91654 8.8 8.59454 10.001 9.62254 10.743L7.86154 15.285C6.50054 14.568 5.32554 13.501 4.47454 12.141C4.18254 11.674 3.56654 11.529 3.09654 11.824C2.62854 12.116 2.48654 12.734 2.77954 13.202C3.86354 14.936 5.38154 16.275 7.13754 17.153L5.78554 20.637C5.58654 21.152 5.84154 21.732 6.35754 21.931C6.47554 21.977 6.59854 21.999 6.71854 21.999C7.11854 21.999 7.49654 21.757 7.65154 21.36L8.99954 17.883C9.96154 18.157 10.9655 18.313 11.9995 18.313C13.0545 18.313 14.0795 18.148 15.0585 17.863L16.4145 21.361C16.5685 21.758 16.9475 22 17.3475 22C17.4675 22 17.5895 21.978 17.7085 21.932C18.2235 21.733 18.4795 21.153 18.2805 20.638L16.9185 17.126C18.6495 16.247 20.1465 14.918 21.2205 13.202C21.5135 12.734 21.3715 12.117 20.9035 11.824Z" fill="black"/>
</svg>