<svg width="24" height="24" viewBox="0 0 24 24" fill="none" xmlns="http://www.w3.org/2000/svg">
<path fill-rule="evenodd" clip-rule="evenodd" d="M15.89 9.45077C16.093 9.93077 16.47 10.3078 16.952 10.5118C17.326 10.6708 17.717 10.6708 18.496 10.6708H18.772C19.551 10.6708 19.943 10.6708 20.316 10.5118C20.796 10.3088 21.173 9.93177 21.377 9.45077C21.536 9.07577 21.536 8.68477 21.536 7.90577V5.77477C21.536 4.99377 21.536 4.60277 21.377 4.22877C21.173 3.74677 20.796 3.36977 20.316 3.16677C19.943 3.00977 19.551 3.00977 18.772 3.00977H18.496C17.717 3.00977 17.326 3.00977 16.952 3.16677C16.471 3.37077 16.094 3.74777 15.889 4.22977C15.732 4.60377 15.732 4.99477 15.732 5.77477V6.09077H14.448C13.522 6.09077 13.012 6.09077 12.536 6.29277C11.922 6.55177 11.442 7.03277 11.181 7.64577C10.979 8.12277 10.979 8.63377 10.979 9.55877V11.2508H8.26899V10.9348C8.26899 10.1548 8.26899 9.76377 8.11099 9.38877C7.90799 8.90877 7.52999 8.53277 7.04899 8.32877C6.67499 8.16977 6.28399 8.16977 5.50399 8.16977H5.22899C4.44999 8.16977 4.05799 8.16977 3.68499 8.32777C3.20399 8.53077 2.82699 8.90777 2.62299 9.38877C2.46399 9.76277 2.46399 10.1548 2.46399 10.9348V13.0658C2.46399 13.8458 2.46399 14.2378 2.62299 14.6108C2.82699 15.0928 3.20399 15.4698 3.68399 15.6718C4.05799 15.8308 4.44999 15.8308 5.22899 15.8308H5.50399C6.28399 15.8308 6.67499 15.8308 7.04899 15.6718C7.52999 15.4678 7.90799 15.0918 8.11199 14.6098C8.26899 14.2368 8.26899 13.8458 8.26899 13.0658V12.7508H10.979V14.4428C10.979 15.3678 10.979 15.8778 11.181 16.3558C11.442 16.9688 11.922 17.4498 12.535 17.7078C13.012 17.9108 13.522 17.9108 14.448 17.9108H15.732V18.2258C15.732 19.0058 15.732 19.3968 15.89 19.7708C16.094 20.2518 16.471 20.6298 16.952 20.8338C17.326 20.9908 17.717 20.9908 18.496 20.9908H18.772C19.551 20.9908 19.943 20.9908 20.316 20.8328C20.796 20.6308 21.173 20.2528 21.377 19.7718C21.536 19.3978 21.536 19.0058 21.536 18.2258V16.0948C21.536 15.3148 21.536 14.9238 21.377 14.5498C21.173 14.0688 20.796 13.6918 20.317 13.4888C19.943 13.3298 19.551 13.3298 18.772 13.3298H18.496C17.717 13.3298 17.326 13.3298 16.952 13.4888C16.47 13.6928 16.093 14.0698 15.889 14.5508C15.732 14.9248 15.732 15.3158 15.732 16.0948V16.4108H14.448C13.743 16.4108 13.317 16.4108 13.119 16.3268C12.868 16.2208 12.669 16.0218 12.562 15.7698C12.479 15.5738 12.479 15.1478 12.479 14.4428V9.55877C12.479 8.85377 12.479 8.42777 12.562 8.23177C12.669 7.97877 12.868 7.78077 13.12 7.67377C13.317 7.59077 13.743 7.59077 14.448 7.59077H15.732V7.90577C15.732 8.68477 15.732 9.07577 15.89 9.45077Z" fill="black"/>
</svg>