<svg width="24" height="24" viewBox="0 0 24 24" fill="none" xmlns="http://www.w3.org/2000/svg">
<path fill-rule="evenodd" clip-rule="evenodd" d="M19.5575 6.473C19.5575 4.903 18.2795 3.625 16.7085 3.625C15.1385 3.625 13.8605 4.903 13.8605 6.473C13.8605 7.789 14.7625 8.89 15.9775 9.215V10.117C15.9775 10.809 15.4135 11.373 14.7205 11.373H8.0415V9.209C9.2465 8.877 10.1395 7.783 10.1395 6.473C10.1395 4.903 8.86151 3.625 7.2915 3.625C5.7205 3.625 4.4425 4.903 4.4425 6.473C4.4425 7.783 5.3355 8.877 6.5415 9.209V12.104C6.5415 12.11 6.5375 12.116 6.5375 12.123C6.5375 12.13 6.5415 12.135 6.5415 12.142V14.791C5.3355 15.122 4.4425 16.217 4.4425 17.526C4.4425 19.096 5.7205 20.374 7.2915 20.374C8.86151 20.374 10.1395 19.096 10.1395 17.526C10.1395 16.217 9.2465 15.123 8.0415 14.791V12.873H14.7205C16.2405 12.873 17.4775 11.637 17.4775 10.117V9.203C18.6735 8.865 19.5575 7.775 19.5575 6.473Z" fill="black"/>
</svg>