<svg width="24" height="24" viewBox="0 0 24 24" fill="none" xmlns="http://www.w3.org/2000/svg">
<path fill-rule="evenodd" clip-rule="evenodd" d="M17.812 14.4191V11.6871C17.812 10.1791 16.585 8.95312 15.078 8.95312H12.333C11.919 8.95312 11.583 9.28912 11.583 9.70312C11.583 10.1171 11.919 10.4531 12.333 10.4531H15.078C15.758 10.4531 16.312 11.0071 16.312 11.6871V14.4191C15.006 14.7551 14.033 15.9341 14.033 17.3441C14.033 19.0141 15.392 20.3741 17.062 20.3741C18.732 20.3741 20.092 19.0141 20.092 17.3441C20.092 15.9331 19.119 14.7551 17.812 14.4191Z" fill="black"/>
<path fill-rule="evenodd" clip-rule="evenodd" d="M7.68796 6.751V4C7.68796 3.586 7.35196 3.25 6.93796 3.25C6.52396 3.25 6.18796 3.586 6.18796 4V6.751C4.88096 7.087 3.90796 8.265 3.90796 9.675C3.90796 11.086 4.88096 12.264 6.18796 12.6V20C6.18796 20.414 6.52396 20.75 6.93796 20.75C7.35196 20.75 7.68796 20.414 7.68796 20V12.6C8.99396 12.264 9.96696 11.086 9.96696 9.675C9.96696 8.265 8.99396 7.087 7.68796 6.751Z" fill="black"/>
</svg>