<svg width="24" height="24" viewBox="0 0 24 24" fill="none" xmlns="http://www.w3.org/2000/svg">
<path fill-rule="evenodd" clip-rule="evenodd" d="M16.022 15.941H12.718C12.304 15.941 11.968 15.605 11.968 15.191C11.968 14.777 12.304 14.441 12.718 14.441H16.022C16.436 14.441 16.772 14.777 16.772 15.191C16.772 15.605 16.436 15.941 16.022 15.941ZM10.881 12.775L8.509 15.147C8.363 15.294 8.171 15.367 7.979 15.367C7.787 15.367 7.595 15.294 7.449 15.147C7.156 14.854 7.156 14.379 7.449 14.087L9.291 12.245L7.449 10.403C7.156 10.11 7.156 9.635 7.449 9.342C7.742 9.049 8.216 9.049 8.509 9.342L10.881 11.714C11.174 12.007 11.174 12.482 10.881 12.775ZM16.218 2.5H7.783C4.623 2.5 2.5 4.72 2.5 8.026V15.973C2.5 19.279 4.623 21.5 7.783 21.5H16.217C19.377 21.5 21.5 19.279 21.5 15.973V8.026C21.5 4.72 19.377 2.5 16.218 2.5Z" fill="black"/>
</svg>