<svg width="24" height="24" viewBox="0 0 24 24" fill="none" xmlns="http://www.w3.org/2000/svg">
<path fill-rule="evenodd" clip-rule="evenodd" d="M6.2884 5.801C6.7024 5.801 7.0434 6.137 7.0434 6.551C7.0434 6.965 6.7124 7.301 6.2984 7.301H6.2884C5.8744 7.301 5.5384 6.965 5.5384 6.551C5.5384 6.137 5.8744 5.801 6.2884 5.801ZM8.7744 5.801C9.1884 5.801 9.5294 6.137 9.5294 6.551C9.5294 6.965 9.1984 7.301 8.7844 7.301H8.7744C8.3604 7.301 8.0244 6.965 8.0244 6.551C8.0244 6.137 8.3604 5.801 8.7744 5.801ZM11.2604 5.801C11.6744 5.801 12.0154 6.137 12.0154 6.551C12.0154 6.965 11.6844 7.301 11.2704 7.301H11.2604C10.8464 7.301 10.5104 6.965 10.5104 6.551C10.5104 6.137 10.8464 5.801 11.2604 5.801ZM21.1994 8.742C21.3651 8.742 21.4994 8.60769 21.4994 8.442V8.026C21.4994 4.721 19.3764 2.5 16.2164 2.5H7.7824C4.6224 2.5 2.5004 4.721 2.5004 8.026V8.442C2.5004 8.60769 2.63471 8.742 2.8004 8.742H21.1994Z" fill="black"/>
<path fill-rule="evenodd" clip-rule="evenodd" d="M16.344 15.6432L14.348 17.6372C14.202 17.7832 14.01 17.8562 13.818 17.8562C13.626 17.8562 13.434 17.7832 13.287 17.6372C12.995 17.3442 12.995 16.8692 13.288 16.5762L14.753 15.1122L13.288 13.6472C12.995 13.3542 12.995 12.8792 13.288 12.5862C13.581 12.2932 14.055 12.2932 14.348 12.5862L16.344 14.5822C16.485 14.7232 16.564 14.9142 16.564 15.1122C16.564 15.3112 16.485 15.5022 16.344 15.6432ZM10.712 17.6372C10.566 17.7832 10.373 17.8562 10.181 17.8562C9.99 17.8562 9.798 17.7832 9.651 17.6372L7.656 15.6432C7.515 15.5022 7.436 15.3112 7.436 15.1122C7.436 14.9142 7.515 14.7232 7.656 14.5822L9.651 12.5862C9.944 12.2932 10.419 12.2932 10.712 12.5862C11.005 12.8792 11.005 13.3542 10.712 13.6472L9.247 15.1122L10.712 16.5762C11.005 16.8692 11.005 17.3442 10.712 17.6372ZM2.8 10.2422C2.63431 10.2422 2.5 10.3765 2.5 10.5422V15.9732C2.5 19.2782 4.623 21.4992 7.782 21.4992H16.216C19.376 21.4992 21.5 19.2782 21.5 15.9732V10.5422C21.5 10.3765 21.3657 10.2422 21.2 10.2422H2.8Z" fill="black"/>
</svg>