<svg width="25" height="24" viewBox="0 0 25 24" fill="none" xmlns="http://www.w3.org/2000/svg">
<path opacity="0.4" d="M11.2282 17.5762H4.00488" stroke="black" stroke-width="1.5" stroke-linecap="round" stroke-linejoin="round"/>
<path opacity="0.4" d="M13.7715 6.41602H20.9948" stroke="black" stroke-width="1.5" stroke-linecap="round" stroke-linejoin="round"/>
<path fill-rule="evenodd" clip-rule="evenodd" d="M9.16021 6.29745C9.16021 7.8602 7.89269 9.1281 6.33065 9.1281C4.76752 9.1281 3.5 7.8602 3.5 6.29745C3.5 4.73469 4.76752 3.4668 6.33065 3.4668C7.89269 3.4668 9.16021 4.73469 9.16021 6.29745Z" stroke="black" stroke-width="1.5" stroke-linecap="round" stroke-linejoin="round"/>
<path fill-rule="evenodd" clip-rule="evenodd" d="M15.8398 17.7037C15.8398 16.1409 17.1063 14.873 18.6694 14.873C20.2325 14.873 21.5001 16.1409 21.5001 17.7037C21.5001 19.2665 20.2325 20.5344 18.6694 20.5344C17.1063 20.5344 15.8398 19.2665 15.8398 17.7037Z" stroke="black" stroke-width="1.5" stroke-linecap="round" stroke-linejoin="round"/>
</svg>