<svg width="25" height="24" viewBox="0 0 25 24" fill="none" xmlns="http://www.w3.org/2000/svg">
<path d="M17.9127 6.59414L17.9059 6.58733C17.6938 6.37522 17.5449 6.10862 17.5031 5.81186L17.3095 4.45358C17.2453 4.00795 16.9563 3.62849 16.5486 3.43487C16.2694 3.30352 15.9843 3.18481 15.6933 3.0807C15.2691 2.92892 14.7963 2.99216 14.4353 3.26265L13.3358 4.08676C13.0965 4.26677 12.8046 4.35044 12.5059 4.35044H12.4942C12.1955 4.35044 11.9026 4.26677 11.6642 4.08676L10.5648 3.26265C10.2038 2.99216 9.73189 2.92892 9.3067 3.0807C9.01578 3.18481 8.73069 3.30254 8.45145 3.43487C8.04377 3.62752 7.75382 4.00698 7.69058 4.45358L7.49598 5.81283C7.45317 6.10959 7.30527 6.37522 7.09414 6.58733C7.09219 6.58927 7.08927 6.59122 7.08733 6.59414C6.87522 6.80625 6.60862 6.95414 6.31186 6.99695L4.95358 7.19058C4.50698 7.25382 4.12849 7.54279 3.93487 7.95047C3.80254 8.22972 3.68481 8.51578 3.5807 8.80572C3.42892 9.23092 3.49216 9.70379 3.76265 10.0648L4.59163 11.1701C4.76385 11.3987 4.85433 11.678 4.85531 11.964V11.964C4.85531 11.9854 4.85531 12.0068 4.85628 12.0282C4.85823 12.3172 4.76579 12.5974 4.5926 12.829L3.76265 13.9353C3.49216 14.2953 3.42892 14.7682 3.5807 15.1924C3.68481 15.4833 3.80254 15.7694 3.93487 16.0486C4.12752 16.4563 4.50698 16.7453 4.95358 16.8095L6.31283 17.0041C6.60959 17.0459 6.87522 17.1938 7.08733 17.4059C7.08927 17.4079 7.09122 17.4108 7.09414 17.4127C7.30527 17.6239 7.45317 17.8904 7.49598 18.1872L7.69058 19.5465C7.75382 19.9921 8.04279 20.3716 8.45047 20.5642C8.72972 20.6965 9.01578 20.8152 9.30572 20.9193C9.73092 21.0711 10.2038 21.0079 10.5648 20.7364L11.6633 19.9133C11.9026 19.7333 12.1955 19.6496 12.4952 19.6506H12.5049C12.8046 19.6496 13.0974 19.7333 13.3368 19.9133L14.4343 20.7364C14.7953 21.0069 15.2682 21.0711 15.6924 20.9193C15.9833 20.8152 16.2694 20.6965 16.5486 20.5652C16.9563 20.3716 17.2453 19.9931 17.3095 19.5465L17.505 18.1785C17.5459 17.8953 17.6782 17.6336 17.8806 17.4302C17.8952 17.4147 17.9098 17.4001 17.9244 17.3855C18.1277 17.1792 18.3914 17.0459 18.6775 17.005L20.0465 16.8095C20.4921 16.7453 20.8716 16.4563 21.0642 16.0486C21.1965 15.7703 21.3152 15.4843 21.4193 15.1933C21.5711 14.7691 21.5079 14.2963 21.2364 13.9353L20.4074 12.829C20.2362 12.6004 20.1447 12.3221 20.1438 12.036C20.1438 12.0146 20.1438 11.9932 20.1428 11.9728C20.1408 11.6828 20.2333 11.4016 20.4074 11.1701L21.2364 10.0648C21.5069 9.70379 21.5711 9.23189 21.4193 8.8067C21.3152 8.51578 21.1965 8.23069 21.0652 7.95145C20.8716 7.54377 20.4931 7.25382 20.0465 7.19058L18.6862 6.99598C18.3905 6.95317 18.1239 6.80625 17.9127 6.59414Z" stroke="black" stroke-width="1.5" stroke-linecap="round" stroke-linejoin="round"/>
<path opacity="0.4" d="M16.0104 11.4385C16.3773 13.8398 14.3398 15.8782 11.9385 15.5104C10.4421 15.2818 9.21904 14.0588 8.99039 12.5623C8.6226 10.161 10.661 8.1226 13.0623 8.49039C14.5578 8.72001 15.7808 9.94305 16.0104 11.4385Z" stroke="black" stroke-width="1.5" stroke-linecap="round" stroke-linejoin="round"/>
</svg>