<svg width="24" height="24" viewBox="0 0 24 24" fill="none" xmlns="http://www.w3.org/2000/svg">
<path opacity="0.4" d="M11.0959 20.9545C11.6982 21.0158 12.3053 21.0148 12.9076 20.9535C13.5079 20.8922 14.044 20.5468 14.3369 20.0195L14.8915 19.0212C15.0617 18.7138 15.3254 18.4734 15.6309 18.2973C15.6348 18.2954 15.6377 18.2934 15.6416 18.2915C15.9452 18.1164 16.2838 18.0084 16.635 18.0142L17.7802 18.0337C18.3708 18.0434 18.9341 17.769 19.2805 17.2913C19.6512 16.7815 19.9674 16.2327 20.2233 15.6567C20.4627 15.1177 20.4179 14.493 20.1144 13.9881L19.5267 13.0073C19.3447 12.7057 19.2688 12.3564 19.2698 12.0042V11.9925C19.2698 11.6413 19.3457 11.2939 19.5257 10.9933L20.1153 10.0116C20.4189 9.50465 20.4637 8.87903 20.2224 8.34C19.9665 7.76401 19.6493 7.2172 19.2776 6.70737C18.9303 6.23061 18.3679 5.95721 17.7783 5.96694L16.636 5.9864C16.2828 5.99224 15.9433 5.88424 15.6377 5.70716C15.6348 5.70521 15.6309 5.70327 15.627 5.70035C15.3235 5.52521 15.0617 5.28586 14.8915 4.97938L14.3359 3.97917C14.043 3.45085 13.505 3.10545 12.9047 3.04512C12.3024 2.9848 11.6953 2.9848 11.093 3.04609C10.4927 3.10739 9.95562 3.45279 9.66373 3.98014L9.11011 4.97841C8.93887 5.28684 8.67422 5.52716 8.36871 5.70327C8.36579 5.70521 8.36287 5.70716 8.35995 5.70813C8.05444 5.88424 7.71585 5.99224 7.36461 5.9864L6.2204 5.96694C5.62981 5.95721 5.06646 6.23159 4.71911 6.70931C4.34938 7.21915 4.03317 7.7679 3.77728 8.3439C3.53793 8.88292 3.58268 9.50659 3.88528 10.0125L4.47392 10.9933C4.6549 11.2949 4.73079 11.6432 4.73079 11.9954V12.0071C4.73079 12.3584 4.6549 12.7057 4.47392 13.0073L3.88528 13.989" stroke="black" stroke-width="1.5" stroke-linecap="round" stroke-linejoin="round"/>
<path d="M10.2354 16.4224C11.7226 16.8822 13.406 16.4511 14.4785 15.1907C15.5547 13.926 15.7102 12.1873 15.0072 10.7978L13.1761 12.9498C13.0107 13.1435 12.7598 13.2427 12.5067 13.2139L11.5517 13.1035C11.2447 13.0681 10.989 12.851 10.9043 12.5537L10.6406 11.6254C10.5704 11.3797 10.6281 11.1156 10.7935 10.9213L12.6241 8.76996C11.1364 8.30276 9.44868 8.73019 8.37248 9.99493C7.29995 11.2554 7.14382 12.9861 7.83944 14.3841L5.64833 16.9591C5.07078 17.6385 5.16823 18.6706 5.88757 19.2255C6.56357 19.7472 7.54783 19.5809 8.10141 18.9309L10.2354 16.4224Z" stroke="black" stroke-width="1.5" stroke-linecap="round" stroke-linejoin="round"/>
</svg>