<svg width="24" height="24" viewBox="0 0 24 24" fill="none" xmlns="http://www.w3.org/2000/svg">
<path fill-rule="evenodd" clip-rule="evenodd" d="M7.95552 5.17635C7.38787 4.57598 6.48588 4.57598 5.91823 5.17635C5.32804 5.80056 5.32804 6.82908 5.91823 7.45329C6.48588 8.05366 7.38787 8.05366 7.95552 7.45329C8.24009 7.15231 8.71478 7.13901 9.01576 7.42359C9.31674 7.70817 9.33004 8.18285 9.04546 8.48383C7.88599 9.71014 5.98776 9.71014 4.82828 8.48383C3.69135 7.28137 3.69135 5.34827 4.82828 4.1458C5.98776 2.9195 7.88599 2.9195 9.04546 4.1458C9.33004 4.44678 9.31674 4.92147 9.01576 5.20605C8.71478 5.49063 8.24009 5.47733 7.95552 5.17635Z" fill="black"/>
<path fill-rule="evenodd" clip-rule="evenodd" d="M2.45117 3.15603C2.45117 2.65588 2.85654 2.25 3.35717 2.25C3.8572 2.25 4.26326 2.65529 4.26326 3.15603C4.26326 3.65678 3.8572 4.06207 3.35717 4.06207C2.85654 4.06207 2.45117 3.65618 2.45117 3.15603Z" fill="black"/>
<path fill-rule="evenodd" clip-rule="evenodd" d="M17.238 8.97388C16.2201 8.97388 15.3278 9.5142 14.8332 10.3271C14.618 10.6809 14.1566 10.7933 13.8027 10.578C13.4488 10.3627 13.3365 9.90134 13.5517 9.54746C14.307 8.30594 15.675 7.47388 17.238 7.47388C19.6195 7.47388 21.5492 9.40454 21.5492 11.7852C21.5492 13.2771 20.7912 14.5918 19.6423 15.3649C19.2987 15.5961 18.8327 15.505 18.6014 15.1614C18.3701 14.8177 18.4612 14.3517 18.8049 14.1204C19.557 13.6143 20.0492 12.7571 20.0492 11.7852C20.0492 10.2328 18.7909 8.97388 17.238 8.97388Z" fill="black"/>
<path fill-rule="evenodd" clip-rule="evenodd" d="M8.6582 10.8202C9.44725 9.77754 10.7115 8.94385 12.527 8.94385C14.3425 8.94385 15.6069 9.77751 16.3962 10.8202C16.972 11.5808 17.2988 12.4549 17.4256 13.2071C18.3068 13.3372 19.1174 13.7074 19.75 14.3111C20.5493 15.0738 21.014 16.1616 21.014 17.4634C21.014 19.2103 19.9771 20.7198 18.4818 21.3956C18.4719 21.4001 18.4619 21.4043 18.4518 21.4083C17.8311 21.657 17.2163 21.7499 16.7343 21.7499H8.31475C7.8286 21.7499 7.21476 21.6514 6.60245 21.4029C6.59343 21.3993 6.58448 21.3954 6.57561 21.3914C5.08235 20.7166 4.04004 19.2125 4.04004 17.4634C4.04004 16.1615 4.50503 15.0737 5.30451 14.311C5.9373 13.7073 6.74801 13.3372 7.62922 13.2071C7.75597 12.455 8.08257 11.5809 8.6582 10.8202ZM9.85432 11.7254C9.2926 12.4677 9.06726 13.3601 9.06726 13.9044C9.06726 14.316 8.73558 14.6507 8.32402 14.6544C7.51395 14.6617 6.82281 14.9357 6.33988 15.3964C5.86339 15.8509 5.54004 16.5338 5.54004 17.4634C5.54004 18.5966 6.21132 19.5746 7.1801 20.0185C7.60197 20.1874 8.01786 20.2499 8.31475 20.2499H16.7343C17.0349 20.2499 17.4525 20.1902 17.8788 20.022C18.8447 19.5787 19.514 18.5982 19.514 17.4634C19.514 16.5337 19.1908 15.8508 18.7145 15.3963C18.2318 14.9356 17.5409 14.6617 16.7308 14.6544C16.3193 14.6507 15.9876 14.316 15.9876 13.9044C15.9876 13.3603 15.7621 12.4678 15.2002 11.7255C14.6614 11.0137 13.8205 10.4438 12.527 10.4438C11.2335 10.4438 10.3929 11.0137 9.85432 11.7254Z" fill="black"/>
</svg>
