<svg width="24" height="24" viewBox="0 0 24 24" fill="none" xmlns="http://www.w3.org/2000/svg">
<path fill-rule="evenodd" clip-rule="evenodd" d="M14.9961 11.0122C14.0263 10.0425 12.454 10.0425 11.4842 11.0122C10.5144 11.982 10.5144 13.5543 11.4842 14.5241C12.454 15.4939 14.0263 15.4939 14.9961 14.5241C15.2889 14.2312 15.7638 14.2312 16.0567 14.5241C16.3496 14.817 16.3496 15.2919 16.0567 15.5848C14.5011 17.1404 11.9791 17.1404 10.4235 15.5848C8.86794 14.0292 8.86794 11.5072 10.4235 9.95159C11.9791 8.39602 14.5011 8.39602 16.0567 9.95159C16.3496 10.2445 16.3496 10.7194 16.0567 11.0122C15.7638 11.3051 15.2889 11.3051 14.9961 11.0122Z" fill="black"/>
<path fill-rule="evenodd" clip-rule="evenodd" d="M7.34668 8.50669C7.34668 7.98466 7.76978 7.56104 8.29229 7.56104C8.8142 7.56104 9.23801 7.98406 9.23801 8.50669C9.23801 9.02931 8.8142 9.45234 8.29229 9.45234C7.76977 9.45234 7.34668 9.02872 7.34668 8.50669Z" fill="black"/>
<path fill-rule="evenodd" clip-rule="evenodd" d="M3.68063 3.89737C4.66511 2.84117 6.06712 2.25 7.72259 2.25H16.1573C17.8166 2.25 19.2193 2.84084 20.2033 3.89765C21.1817 4.94841 21.6904 6.39889 21.6904 8.02638V15.9736C21.6904 17.6011 21.1817 19.0516 20.2031 20.1024C19.2189 21.1592 17.8161 21.75 16.1563 21.75H7.72259C6.06323 21.75 4.66081 21.1591 3.677 20.1023C2.69885 19.0515 2.19043 17.601 2.19043 15.9736V8.02638C2.19043 6.39806 2.7016 4.94771 3.68063 3.89737ZM4.77788 4.92012C4.10067 5.64666 3.69043 6.70951 3.69043 8.02638V15.9736C3.69043 17.2914 4.09904 18.3541 4.77494 19.0802C5.44518 19.8003 6.43384 20.25 7.72259 20.25H16.1563C17.4456 20.25 18.4348 19.8002 19.1054 19.0801C19.7816 18.354 20.1904 17.2913 20.1904 15.9736V8.02638C20.1904 6.70868 19.7816 5.64597 19.1055 4.91984C18.435 4.19975 17.4461 3.75 16.1573 3.75H7.72259C6.43871 3.75 5.44964 4.19943 4.77788 4.92012Z" fill="black"/>
</svg>
