<svg width="24" height="24" viewBox="0 0 24 24" fill="none" xmlns="http://www.w3.org/2000/svg">
<path fill-rule="evenodd" clip-rule="evenodd" d="M3.7402 3.89737C4.72468 2.84117 6.12669 2.25 7.78216 2.25H16.2169C17.8762 2.25 19.2788 2.84084 20.2629 3.89765C21.2413 4.94841 21.75 6.39889 21.75 8.02638V15.9736C21.75 17.6011 21.2413 19.0516 20.2627 20.1024C19.2785 21.1592 17.8756 21.75 16.2159 21.75H7.78216C6.1228 21.75 4.72038 21.1591 3.73657 20.1023C2.75842 19.0515 2.25 17.601 2.25 15.9736V8.02638C2.25 6.39806 2.76117 4.94771 3.7402 3.89737ZM4.83745 4.92012C4.16024 5.64666 3.75 6.70951 3.75 8.02638V15.9736C3.75 17.2914 4.15861 18.3541 4.83451 19.0802C5.50475 19.8003 6.49341 20.25 7.78216 20.25H16.2159C17.5052 20.25 18.4944 19.8002 19.165 19.0801C19.8412 18.354 20.25 17.2913 20.25 15.9736V8.02638C20.25 6.70868 19.8412 5.64597 19.1651 4.91984C18.4946 4.19975 17.5056 3.75 16.2169 3.75H7.78216C6.49828 3.75 5.50921 4.19943 4.83745 4.92012Z" fill="black"/>
<path fill-rule="evenodd" clip-rule="evenodd" d="M9.28847 8.91451C9.84269 8.18212 10.7346 7.59668 12.0002 7.59668C13.2659 7.59668 14.1579 8.1821 14.7122 8.91442C15.0648 9.38025 15.2838 9.90721 15.3912 10.3876C15.9384 10.5006 16.4445 10.7504 16.8513 11.1386C17.4249 11.686 17.7502 12.4606 17.7502 13.3678C17.7502 14.6039 17.0164 15.6723 15.9577 16.1507C15.9479 16.1551 15.9379 16.1594 15.9278 16.1634C15.4932 16.3376 15.0622 16.4032 14.7192 16.4032H9.27808C8.93099 16.4032 8.50031 16.3334 8.07174 16.1595C8.06272 16.1558 8.05378 16.152 8.04491 16.148C6.98838 15.6705 6.25024 14.6061 6.25024 13.3678C6.25024 12.4605 6.57579 11.6859 7.14958 11.1385C7.55643 10.7504 8.06262 10.5006 8.6098 10.3876C8.71711 9.90727 8.93595 9.38035 9.28847 8.91451ZM10.4846 9.81966C10.1577 10.2516 10.0297 10.7717 10.0297 11.0678C10.0297 11.4793 9.69802 11.814 9.28646 11.8177C8.8214 11.8219 8.4422 11.9785 8.18496 12.2239C7.93415 12.4631 7.75024 12.8328 7.75024 13.3678C7.75024 13.9902 8.11742 14.5286 8.64949 14.7751C8.88752 14.8694 9.1201 14.9032 9.27808 14.9032H14.7192C14.8808 14.9032 15.1146 14.8707 15.3546 14.7771C15.8839 14.5312 16.2502 13.9919 16.2502 13.3678C16.2502 12.8327 16.0664 12.463 15.8157 12.2238C15.5586 11.9785 15.1796 11.8219 14.7146 11.8177C14.303 11.814 13.9713 11.4793 13.9713 11.0678C13.9713 10.7718 13.8433 10.2518 13.5162 9.81975C13.2123 9.41829 12.7438 9.09668 12.0002 9.09668C11.2567 9.09668 10.7883 9.41827 10.4846 9.81966Z" fill="black"/>
</svg>
