<svg width="24" height="24" viewBox="0 0 24 24" fill="none" xmlns="http://www.w3.org/2000/svg">
<path fill-rule="evenodd" clip-rule="evenodd" d="M9.28822 8.6296C9.84245 7.89721 10.7344 7.31177 12 7.31177C13.2656 7.31177 14.1576 7.89718 14.712 8.62951C15.0646 9.09534 15.2836 9.6223 15.3909 10.1027C15.9381 10.2157 16.4442 10.4655 16.851 10.8537C17.4247 11.4011 17.75 12.1757 17.75 13.0828C17.75 14.319 17.0161 15.3874 15.9575 15.8658C15.9476 15.8702 15.9376 15.8745 15.9276 15.8785C15.4929 16.0526 15.0619 16.1183 14.7189 16.1183H9.27784C8.93075 16.1183 8.50007 16.0485 8.0715 15.8746C8.06248 15.8709 8.05353 15.8671 8.04466 15.8631C6.98813 15.3856 6.25 14.3212 6.25 13.0828C6.25 12.1756 6.57555 11.401 7.14934 10.8536C7.55619 10.4655 8.06238 10.2157 8.60956 10.1027C8.71687 9.62236 8.93571 9.09543 9.28822 8.6296ZM10.4843 9.53475C10.1575 9.96673 10.0295 10.4868 10.0295 10.7828C10.0295 11.1944 9.69777 11.5291 9.28621 11.5328C8.82115 11.537 8.44196 11.6936 8.18471 11.939C7.93391 12.1782 7.75 12.5479 7.75 13.0828C7.75 13.7053 8.11717 14.2437 8.64924 14.4901C8.88727 14.5845 9.11985 14.6183 9.27784 14.6183H14.7189C14.8806 14.6183 15.1144 14.5858 15.3544 14.4922C15.8836 14.2463 16.25 13.7069 16.25 13.0828C16.25 12.5478 16.0661 12.1781 15.8155 11.9389C15.5584 11.6936 15.1794 11.537 14.7143 11.5328C14.3028 11.5291 13.9711 11.1944 13.9711 10.7828C13.9711 10.4869 13.843 9.96687 13.516 9.53484C13.2121 9.13338 12.7436 8.81177 12 8.81177C11.2564 8.81177 10.7881 9.13335 10.4843 9.53475Z" fill="black"/>
<path fill-rule="evenodd" clip-rule="evenodd" d="M17.8336 6.16637C14.6118 2.94454 9.38819 2.94454 6.16637 6.16637C2.94454 9.38819 2.94454 14.6118 6.16637 17.8336C9.38819 21.0555 14.6118 21.0555 17.8336 17.8336C21.0555 14.6118 21.0555 9.38819 17.8336 6.16637ZM5.10571 5.10571C8.91332 1.2981 15.0867 1.2981 18.8943 5.10571C22.7019 8.91332 22.7019 15.0867 18.8943 18.8943C15.0867 22.7019 8.91332 22.7019 5.10571 18.8943C1.2981 15.0867 1.2981 8.91332 5.10571 5.10571Z" fill="black"/>
</svg>
