<svg width="24" height="24" viewBox="0 0 24 24" fill="none" xmlns="http://www.w3.org/2000/svg">
<path fill-rule="evenodd" clip-rule="evenodd" d="M7.5972 4.68281C8.49457 3.49667 9.9306 2.5481 12 2.5481C14.0694 2.5481 15.5054 3.49667 16.4028 4.68281C17.0817 5.58022 17.4565 6.61596 17.5901 7.49003C18.6302 7.62056 19.5832 8.04691 20.3196 8.7523C21.2224 9.61709 21.75 10.854 21.75 12.337C21.75 14.3217 20.5673 16.0288 18.8725 16.7946C18.4951 16.9652 18.0508 16.7975 17.8802 16.42C17.7096 16.0426 17.8774 15.5983 18.2548 15.4277C19.4322 14.8956 20.25 13.711 20.25 12.337C20.25 11.2241 19.8625 10.3915 19.282 9.83554C18.696 9.27425 17.8634 8.94743 16.8967 8.94701C16.4826 8.94684 16.147 8.6111 16.147 8.19701C16.147 7.53815 15.8767 6.47357 15.2066 5.58782C14.5596 4.73265 13.5471 4.0481 12 4.0481C10.4529 4.0481 9.4404 4.73265 8.79342 5.58782C8.1233 6.47357 7.85303 7.53815 7.85303 8.19701C7.85303 8.60872 7.52115 8.94346 7.10946 8.94699C6.13987 8.9553 5.30495 9.2834 4.71806 9.84344C4.13756 10.3974 3.75 11.2251 3.75 12.337C3.75 13.7112 4.56699 14.8957 5.745 15.4276C6.12251 15.5981 6.29034 16.0423 6.11986 16.4199C5.94938 16.7974 5.50515 16.9652 5.12765 16.7947C3.4315 16.0287 2.25 14.3215 2.25 12.337C2.25 10.8531 2.77898 9.62046 3.68251 8.75826C4.41942 8.05504 5.37188 7.62991 6.40925 7.49431C6.54225 6.61934 6.91715 5.58168 7.5972 4.68281Z" fill="black"/>
<path fill-rule="evenodd" clip-rule="evenodd" d="M11.2291 13.2739L9.94707 16.4021H11.0037C11.6682 16.4021 12.1522 17.032 11.9809 17.6741L11.7491 18.5435L13.7042 16.312H12.652C11.954 16.312 11.4658 15.6216 11.6985 14.9635C11.7037 14.9487 11.7094 14.934 11.7156 14.9195L12.4167 13.2739H11.2291ZM9.95808 12.4197C10.1087 12.031 10.483 11.7739 10.9011 11.7739H13.1566C13.8546 11.7739 14.3428 12.4643 14.1102 13.1224C14.1049 13.1372 14.0992 13.1519 14.093 13.1664L13.3919 14.812H14.7818C15.6511 14.812 16.1154 15.836 15.5426 16.4898L15.1298 16.1282L15.5426 16.4898L11.4987 21.1055C10.7937 21.9103 9.48505 21.2122 9.76071 20.1785L10.3677 17.9021H9.21858C8.5155 17.9021 8.02692 17.2024 8.26906 16.5423C8.27228 16.5336 8.27566 16.5249 8.2792 16.5162L9.95808 12.4197Z" fill="black"/>
</svg>
