<svg width="24" height="24" viewBox="0 0 24 24" fill="none" xmlns="http://www.w3.org/2000/svg">
<path fill-rule="evenodd" clip-rule="evenodd" d="M10.4779 3.97904C10.881 4.07436 11.1305 4.47841 11.0351 4.88151L11.0295 4.90534C10.9342 5.30843 10.5301 5.55793 10.127 5.46261C9.72395 5.36729 9.47445 4.96324 9.56977 4.56015L9.5754 4.53631C9.67073 4.13322 10.0748 3.88372 10.4779 3.97904ZM4.71289 4.9196C5.06533 4.70197 5.52745 4.81126 5.74508 5.16369L5.75611 5.18155C5.97374 5.53398 5.86446 5.99611 5.51202 6.21374C5.15959 6.43137 4.69746 6.32209 4.47983 5.96965L4.4688 5.9518C4.25117 5.59936 4.36046 5.13723 4.71289 4.9196ZM1.26908 9.65785C1.3644 9.25476 1.76845 9.00525 2.17154 9.10058L2.20837 9.10928C2.61147 9.20461 2.86097 9.60865 2.76565 10.0117C2.67033 10.4148 2.26628 10.6643 1.86318 10.569L1.82636 10.5603C1.42326 10.465 1.17376 10.0609 1.26908 9.65785ZM3.52218 14.6284C3.73981 14.9808 3.63054 15.443 3.27811 15.6606L3.26025 15.6716C2.90782 15.8893 2.44569 15.78 2.22805 15.4276C2.01042 15.0751 2.11969 14.613 2.47213 14.3954L2.48999 14.3843C2.84242 14.1667 3.30455 14.276 3.52218 14.6284Z" fill="black"/>
<path fill-rule="evenodd" clip-rule="evenodd" d="M9.73746 8.29393C7.94087 7.86909 6.14016 8.98119 5.71554 10.7768C5.41516 12.0471 5.88268 13.3208 6.82084 14.1086C7.13805 14.375 7.17927 14.8481 6.9129 15.1653C6.64654 15.4825 6.17346 15.5237 5.85625 15.2573C4.50095 14.1193 3.82 12.2746 4.2558 10.4316C4.8711 7.82963 7.48005 6.21875 10.0827 6.83419C10.8955 7.0264 11.6134 7.41411 12.1963 7.9361C12.5049 8.21242 12.531 8.68658 12.2547 8.99515C11.9783 9.30372 11.5042 9.32986 11.1956 9.05353C10.7946 8.69438 10.3006 8.42711 9.73746 8.29393Z" fill="black"/>
<path fill-rule="evenodd" clip-rule="evenodd" d="M10.2008 8.94094C11.0016 7.88268 12.2844 7.03638 14.1274 7.03638C15.9703 7.03638 17.2531 7.88268 18.0539 8.94094C18.6408 9.71654 18.9727 10.6082 19.1002 11.3737C19.9985 11.5045 20.8244 11.8808 21.4682 12.4954C22.2785 13.269 22.75 14.3723 22.75 15.6933C22.75 17.4666 21.699 18.9966 20.1806 19.683C20.1708 19.6875 20.1608 19.6917 20.1507 19.6958C19.52 19.9486 18.8969 20.0416 18.4082 20.0416H9.83986C9.34806 20.0416 8.72536 19.9426 8.1032 19.6901C8.09425 19.6865 8.08537 19.6827 8.07657 19.6787C6.56111 18.9944 5.50366 17.4687 5.50366 15.6933C5.50366 14.3722 5.97546 13.2688 6.78607 12.4953C7.43009 11.8808 8.25617 11.5045 9.15448 11.3736C9.28201 10.6082 9.61394 9.71653 10.2008 8.94094ZM11.397 9.84606C10.8234 10.604 10.5932 11.5152 10.5932 12.0717C10.5932 12.4833 10.2614 12.818 9.84986 12.8216C9.02243 12.829 8.31575 13.109 7.82159 13.5805C7.33383 14.0459 7.00366 14.7445 7.00366 15.6933C7.00366 16.8529 7.69011 17.8523 8.68082 18.3057C9.11153 18.4782 9.53618 18.5416 9.83986 18.5416H18.4082C18.7169 18.5416 19.1427 18.4812 19.5774 18.3095C20.5666 17.8555 21.25 16.8544 21.25 15.6933C21.25 14.7443 20.92 14.0458 20.4325 13.5804C19.9386 13.109 19.2323 12.829 18.4049 12.8216C17.9933 12.818 17.6616 12.4833 17.6616 12.0717C17.6616 11.5152 17.4313 10.604 16.8577 9.84606C16.3074 9.11869 15.4481 8.53638 14.1274 8.53638C12.8067 8.53638 11.9474 9.11869 11.397 9.84606Z" fill="black"/>
</svg>
