<svg width="24" height="24" viewBox="0 0 24 24" fill="none" xmlns="http://www.w3.org/2000/svg">
<path fill-rule="evenodd" clip-rule="evenodd" d="M7.59725 5.61365C8.49466 4.42774 9.93069 3.47949 12 3.47949C14.0693 3.47949 15.5053 4.42774 16.4028 5.61365C17.0829 6.51243 17.4578 7.55002 17.5908 8.42498C18.6282 8.56092 19.5806 8.98624 20.3175 9.68958C21.221 10.5519 21.75 11.7844 21.75 13.2684C21.75 15.2531 20.5673 16.9602 18.8725 17.726C18.4951 17.8966 18.0508 17.7289 17.8802 17.3514C17.7096 16.974 17.8774 16.5297 18.2548 16.3591C19.4322 15.827 20.25 14.6424 20.25 13.2684C20.25 12.1565 19.8624 11.3288 19.2819 10.7747C18.6949 10.2145 17.8599 9.88614 16.8902 9.87741C16.4787 9.8737 16.147 9.53902 16.147 9.12744C16.147 8.46859 15.8767 7.40429 15.2066 6.5188C14.5597 5.66389 13.5472 4.97949 12 4.97949C10.4528 4.97949 9.44031 5.66389 8.79337 6.5188C8.12329 7.40429 7.85303 8.46859 7.85303 9.12744C7.85303 9.53902 7.52134 9.8737 7.10978 9.87741C6.14009 9.88614 5.30506 10.2145 4.71811 10.7747C4.13755 11.3288 3.75 12.1565 3.75 13.2684C3.75 14.6426 4.56699 15.8271 5.745 16.359C6.12251 16.5295 6.29034 16.9737 6.11986 17.3513C5.94938 17.7288 5.50515 17.8966 5.12765 17.7261C3.4315 16.9601 2.25 15.2529 2.25 13.2684C2.25 11.7844 2.77899 10.5519 3.68246 9.68958C4.41938 8.98624 5.37184 8.56091 6.40922 8.42498C6.54219 7.55001 6.91711 6.51243 7.59725 5.61365Z" fill="black"/>
<path fill-rule="evenodd" clip-rule="evenodd" d="M11.9982 13.1172C12.4124 13.1171 12.7483 13.4528 12.7484 13.8671L12.7487 15.5446L14.2912 14.6872C14.6533 14.486 15.1099 14.6164 15.3111 14.9784C15.5123 15.3405 15.382 15.7971 15.0199 15.9984L13.5429 16.8192L15.0198 17.6398C15.3819 17.8409 15.5123 18.2975 15.3112 18.6596C15.11 19.0217 14.6534 19.1521 14.2913 18.951L12.7487 18.0939L12.7484 19.7715C12.7483 20.1857 12.4124 20.5214 11.9982 20.5214C11.584 20.5213 11.2483 20.1854 11.2484 19.7712L11.2487 18.094L9.70588 18.951C9.34378 19.1521 8.88719 19.0217 8.68605 18.6596C8.48491 18.2975 8.6154 17.8409 8.9775 17.6397L10.4546 16.8192L8.97739 15.9984C8.61532 15.7972 8.48491 15.3406 8.68611 14.9785C8.8873 14.6164 9.34392 14.486 9.70599 14.6872L11.2487 15.5445L11.2484 13.8673C11.2483 13.4531 11.584 13.1173 11.9982 13.1172Z" fill="black"/>
</svg>
