<svg width="24" height="24" viewBox="0 0 24 24" fill="none" xmlns="http://www.w3.org/2000/svg">
<path fill-rule="evenodd" clip-rule="evenodd" d="M7.59725 5.14441C8.49466 3.95851 9.93069 3.01025 12 3.01025C14.0693 3.01025 15.5053 3.95851 16.4028 5.14441C17.0818 6.04172 17.4566 7.07739 17.5901 7.95146C18.6302 8.08232 19.5832 8.50887 20.3197 9.21438C21.2224 10.0793 21.75 11.3162 21.75 12.7992C21.75 14.7839 20.5673 16.4909 18.8725 17.2568C18.4951 17.4274 18.0508 17.2596 17.8802 16.8822C17.7096 16.5047 17.8774 16.0605 18.2548 15.8899C19.4322 15.3578 20.25 14.1731 20.25 12.7992C20.25 11.6863 19.8625 10.8537 19.282 10.2975C18.6959 9.73608 17.8632 9.40903 16.8963 9.4082C16.4824 9.40785 16.147 9.07216 16.147 8.6582C16.147 7.99935 15.8767 6.93505 15.2066 6.04956C14.5597 5.19465 13.5472 4.51025 12 4.51025C10.4528 4.51025 9.44031 5.19465 8.79337 6.04956C8.12329 6.93505 7.85303 7.99935 7.85303 8.6582C7.85303 9.06978 7.52134 9.40446 7.10978 9.40817C6.14009 9.4169 5.30506 9.74523 4.71811 10.3054C4.13755 10.8595 3.75 11.6873 3.75 12.7992C3.75 14.1734 4.56699 15.3578 5.745 15.8898C6.12251 16.0603 6.29034 16.5045 6.11986 16.882C5.94938 17.2595 5.50515 17.4273 5.12765 17.2569C3.4315 16.4909 2.25 14.7837 2.25 12.7992C2.25 11.3152 2.77899 10.0826 3.68246 9.22034C4.41938 8.517 5.37184 8.09168 6.40922 7.95574C6.54219 7.08078 6.91711 6.04319 7.59725 5.14441Z" fill="black"/>
<path fill-rule="evenodd" clip-rule="evenodd" d="M11.9981 12.9102C12.1971 12.9101 12.388 12.9891 12.5287 13.1298L14.4562 15.0573C15.8131 16.4142 15.8148 18.614 14.4584 19.9716C13.1011 21.3289 10.9011 21.3292 9.54375 19.9731C8.18587 18.6165 8.18657 16.4167 9.54205 15.0587L11.4676 13.1302C11.6083 12.9894 11.7991 12.9102 11.9981 12.9102ZM11.9988 14.7212L10.6037 16.1184C10.6037 16.1185 10.6037 16.1184 10.6037 16.1184C9.83232 16.8913 9.83296 18.1417 10.6039 18.912C11.3755 19.6828 12.6259 19.6828 13.3975 18.9112C14.1677 18.14 14.1674 16.8898 13.3955 16.1179L11.9988 14.7212Z" fill="black"/>
</svg>
