<svg width="24" height="24" viewBox="0 0 24 24" fill="none" xmlns="http://www.w3.org/2000/svg">
<path fill-rule="evenodd" clip-rule="evenodd" d="M7.5972 5.31879C8.49457 4.13266 9.9306 3.18408 12 3.18408C14.0694 3.18408 15.5054 4.13266 16.4028 5.31879C17.0817 6.21621 17.4565 7.25194 17.5901 8.12602C18.6302 8.25654 19.5832 8.6829 20.3196 9.38829C21.2224 10.2531 21.75 11.49 21.75 12.973C21.75 14.9577 20.5673 16.6647 18.8725 17.4306C18.4951 17.6012 18.0508 17.4335 17.8802 17.056C17.7096 16.6786 17.8774 16.2343 18.2548 16.0637C19.4322 15.5316 20.25 14.347 20.25 12.973C20.25 11.8601 19.8625 11.0275 19.282 10.4715C18.696 9.91024 17.8634 9.58341 16.8967 9.583C16.4826 9.58282 16.147 9.24709 16.147 8.833C16.147 8.17413 15.8767 7.10956 15.2066 6.2238C14.5596 5.36864 13.5471 4.68408 12 4.68408C10.4529 4.68408 9.4404 5.36864 8.79342 6.2238C8.1233 7.10956 7.85303 8.17413 7.85303 8.833C7.85303 9.24471 7.52115 9.57944 7.10946 9.58297C6.13987 9.59129 5.30495 9.91938 4.71806 10.4794C4.13756 11.0334 3.75 11.8611 3.75 12.973C3.75 14.3472 4.56699 15.5316 5.745 16.0636C6.12251 16.2341 6.29034 16.6783 6.11986 17.0558C5.94938 17.4333 5.50515 17.6012 5.12765 17.4307C3.4315 16.6647 2.25 14.9575 2.25 12.973C2.25 11.489 2.77898 10.2565 3.68251 9.39425C4.41942 8.69103 5.37188 8.2659 6.40925 8.1303C6.54225 7.25533 6.91715 6.21767 7.5972 5.31879Z" fill="black"/>
<path fill-rule="evenodd" clip-rule="evenodd" d="M12.3671 12.5676C12.7309 12.7655 12.8655 13.2209 12.6676 13.5848L11.41 15.8974H13.8506C14.1152 15.8974 14.3603 16.0369 14.4954 16.2644C14.6306 16.4919 14.6358 16.7738 14.5092 17.0062L12.647 20.4252C12.4488 20.789 11.9933 20.9232 11.6296 20.7251C11.2658 20.527 11.1316 20.0715 11.3297 19.7077L12.5881 17.3974H10.1484C9.88391 17.3974 9.63894 17.2581 9.50376 17.0307C9.36858 16.8033 9.36318 16.5215 9.48956 16.2891L11.3499 12.8682C11.5478 12.5043 12.0032 12.3697 12.3671 12.5676Z" fill="black"/>
</svg>
