<svg width="24" height="24" viewBox="0 0 24 24" fill="none" xmlns="http://www.w3.org/2000/svg">
<path fill-rule="evenodd" clip-rule="evenodd" d="M14.8059 3.8512C17.8126 3.8512 20.25 6.28856 20.25 9.29527C20.25 10.8545 19.5955 12.2596 18.5442 13.253C18.2431 13.5375 18.2297 14.0122 18.5141 14.3133C18.7986 14.6143 19.2733 14.6278 19.5744 14.3433C20.9131 13.0783 21.75 11.2839 21.75 9.29527C21.75 5.46014 18.6411 2.3512 14.8059 2.3512C11.9189 2.3512 9.44466 4.11258 8.39674 6.61821C8.05763 6.54342 7.70562 6.50404 7.34492 6.50404C4.65639 6.50404 2.47704 8.68334 2.47704 11.3717C2.47704 11.786 2.81283 12.1217 3.22704 12.1217C3.64125 12.1217 3.97704 11.786 3.97704 11.3717C3.97704 9.51181 5.48477 8.00404 7.34492 8.00404C7.78466 8.00404 8.20298 8.08803 8.58638 8.24016C8.78233 8.31792 9.00197 8.30961 9.19149 8.21727C9.38102 8.12493 9.52293 7.95709 9.58247 7.75485C10.247 5.49765 12.3353 3.8512 14.8059 3.8512Z" fill="black"/>
<path fill-rule="evenodd" clip-rule="evenodd" d="M13.9947 11.8632C13.109 11.8632 12.3065 12.2687 11.7518 12.9285C11.4853 13.2455 11.0122 13.2865 10.6951 13.0199C10.3781 12.7534 10.3371 12.2803 10.6037 11.9632C11.4226 10.989 12.6349 10.3632 13.9947 10.3632C15.8009 10.3632 17.3368 11.4611 18.0551 13.0198C18.2034 12.9983 18.3548 12.9872 18.5085 12.9872C20.329 12.9872 21.7497 14.5189 21.7497 16.339C21.7497 18.1591 20.329 19.6908 18.5085 19.6908H16.9401C16.5259 19.6908 16.1901 19.355 16.1901 18.9408C16.1901 18.5266 16.5259 18.1908 16.9401 18.1908H18.5085C19.4399 18.1908 20.2497 17.3927 20.2497 16.339C20.2497 15.2852 19.4398 14.4872 18.5085 14.4872C18.2851 14.4872 18.0727 14.5317 17.8772 14.6127C17.6793 14.6947 17.4556 14.6881 17.2628 14.5946C17.07 14.5011 16.9264 14.3295 16.8682 14.1233C16.4943 12.7966 15.3324 11.8632 13.9947 11.8632Z" fill="black"/>
<path fill-rule="evenodd" clip-rule="evenodd" d="M8.54122 15.4906C8.94892 15.5638 9.33875 15.2926 9.41192 14.8849L9.42068 14.8361C9.49385 14.4284 9.22266 14.0386 8.81496 13.9654C8.40726 13.8922 8.01744 14.1634 7.94427 14.5711L7.93551 14.6199C7.86234 15.0276 8.13352 15.4175 8.54122 15.4906Z" fill="black"/>
<path fill-rule="evenodd" clip-rule="evenodd" d="M3.91255 14.1029C4.1446 13.9689 4.4305 13.9689 4.66255 14.1029L5.95011 14.8463C6.18216 14.9803 6.32511 15.2279 6.32511 15.4958V16.9825C6.32511 17.2505 6.18216 17.4981 5.95011 17.6321L4.66255 18.3754C4.4305 18.5094 4.1446 18.5094 3.91255 18.3754L2.625 17.6321C2.39295 17.4981 2.25 17.2505 2.25 16.9825V15.4958C2.25 15.2279 2.39295 14.9803 2.625 14.8463L3.91255 14.1029ZM3.75 15.9288V16.5495L4.28755 16.8599L4.82511 16.5495V15.9288L4.28755 15.6185L3.75 15.9288Z" fill="black"/>
<path fill-rule="evenodd" clip-rule="evenodd" d="M13.0258 14.1029C13.2579 13.9689 13.5438 13.9689 13.7758 14.1029L15.0634 14.8463C15.2954 14.9803 15.4384 15.2279 15.4384 15.4958V16.9825C15.4384 17.2505 15.2954 17.4981 15.0634 17.6321L13.7758 18.3754C13.5438 18.5094 13.2579 18.5094 13.0258 18.3754L11.7383 17.6321C11.5062 17.4981 11.3633 17.2505 11.3633 16.9825V15.4958C11.3633 15.2279 11.5062 14.9803 11.7383 14.8463L13.0258 14.1029ZM12.8633 15.9288V16.5495L13.4008 16.8599L13.9384 16.5495V15.9288L13.4008 15.6185L12.8633 15.9288Z" fill="black"/>
<path fill-rule="evenodd" clip-rule="evenodd" d="M8.2983 17.2758C8.53035 17.1418 8.81625 17.1418 9.0483 17.2758L10.3358 18.0191C10.5679 18.1531 10.7108 18.4007 10.7108 18.6687V20.1554C10.7108 20.4234 10.5679 20.6709 10.3358 20.8049L9.0483 21.5483C8.81625 21.6823 8.53035 21.6823 8.2983 21.5483L7.01074 20.8049C6.77869 20.6709 6.63574 20.4234 6.63574 20.1554V18.6687C6.63574 18.4007 6.77869 18.1531 7.01074 18.0191L8.2983 17.2758ZM8.13574 19.1017V19.7224L8.6733 20.0327L9.21085 19.7224V19.1017L8.6733 18.7913L8.13574 19.1017Z" fill="black"/>
</svg>
