<svg width="24" height="24" viewBox="0 0 24 24" fill="none" xmlns="http://www.w3.org/2000/svg">
<path fill-rule="evenodd" clip-rule="evenodd" d="M7.49245 7.18646C8.37428 6.02114 9.78562 5.08936 11.8184 5.08936C12.2327 5.08936 12.5684 5.42514 12.5684 5.83936C12.5684 6.25357 12.2327 6.58936 11.8184 6.58936C10.3077 6.58936 9.31993 7.25728 8.68857 8.09161C8.03406 8.95652 7.77026 9.99612 7.77026 10.6385C7.77026 11.0501 7.43857 11.3848 7.02701 11.3885C6.08062 11.397 5.26623 11.7173 4.69412 12.2631C4.12844 12.8027 3.75 13.6094 3.75 14.695C3.75 15.3505 3.94008 15.9595 4.2678 16.4723C4.49083 16.8214 4.38868 17.2851 4.03964 17.5082C3.6906 17.7312 3.22684 17.629 3.00381 17.28C2.52661 16.5332 2.25 15.6453 2.25 14.695C2.25 13.2371 2.77008 12.0255 3.65874 11.1777C4.38072 10.489 5.31268 10.0718 6.32721 9.9367C6.45936 9.07932 6.82737 8.06533 7.49245 7.18646Z" fill="black"/>
<path fill-rule="evenodd" clip-rule="evenodd" d="M9.33619 14.782C10.7939 14.782 11.9756 15.9637 11.9756 17.4214C11.9756 18.8791 10.7939 20.0608 9.33619 20.0608H5.25352C4.42319 20.0608 3.75022 19.3878 3.75022 18.5576C3.75022 17.7274 4.4232 17.0544 5.25352 17.0544C5.4505 17.0544 5.63695 17.092 5.80759 17.1597C6.00355 17.2374 6.22319 17.2291 6.41271 17.1368C6.60224 17.0445 6.74415 16.8766 6.80369 16.6744C7.12593 15.5798 8.13894 14.782 9.33619 14.782ZM13.4756 17.4214C13.4756 15.1352 11.6223 13.282 9.33619 13.282C7.71176 13.282 6.30709 14.2173 5.62915 15.5778C5.50596 15.5624 5.38058 15.5544 5.25352 15.5544C3.59481 15.5544 2.25022 16.899 2.25022 18.5576C2.25022 20.2162 3.59482 21.5608 5.25352 21.5608H9.33619C11.6223 21.5608 13.4756 19.7075 13.4756 17.4214Z" fill="black"/>
<path fill-rule="evenodd" clip-rule="evenodd" d="M13.7637 5.83936C13.7637 5.42514 14.0995 5.08936 14.5137 5.08936L18.4313 5.08936C18.8455 5.08936 19.1813 5.42514 19.1813 5.83935C19.1813 6.25357 18.8455 6.58936 18.4313 6.58936L14.5137 6.58936C14.0995 6.58936 13.7637 6.25357 13.7637 5.83936Z" fill="black"/>
<path fill-rule="evenodd" clip-rule="evenodd" d="M18.165 8.37598C18.165 7.96176 18.5008 7.62598 18.915 7.62598H21.0003C21.4145 7.62598 21.7503 7.96176 21.7503 8.37598C21.7503 8.79019 21.4145 9.12598 21.0003 9.12598H18.915C18.5008 9.12598 18.165 8.79019 18.165 8.37598Z" fill="black"/>
<path fill-rule="evenodd" clip-rule="evenodd" d="M16.4434 3.18921C16.4434 2.775 16.7791 2.43921 17.1934 2.43921H20.638C21.0522 2.43921 21.388 2.775 21.388 3.18921C21.388 3.60342 21.0522 3.93921 20.638 3.93921H17.1934C16.7791 3.93921 16.4434 3.60342 16.4434 3.18921Z" fill="black"/>
<path fill-rule="evenodd" clip-rule="evenodd" d="M4.32031 3.18921C4.32031 2.775 4.6561 2.43921 5.07031 2.43921H7.16292C7.57714 2.43921 7.91292 2.775 7.91292 3.18921C7.91292 3.60342 7.57714 3.93921 7.16292 3.93921H5.07031C4.6561 3.93921 4.32031 3.60342 4.32031 3.18921Z" fill="black"/>
<path fill-rule="evenodd" clip-rule="evenodd" d="M15.9892 8.22823C16.375 8.07737 16.81 8.26779 16.9609 8.65356C17.1321 9.09149 17.2476 9.52946 17.3104 9.93672C18.3249 10.0719 19.2566 10.4891 19.9784 11.1778C20.8669 12.0256 21.3866 13.2372 21.3866 14.695C21.3866 16.6436 20.23 18.3275 18.5621 19.0812C18.5522 19.0857 18.5422 19.09 18.5322 19.094C17.8379 19.3722 17.1505 19.4757 16.6135 19.4757H12.5469C12.1327 19.4757 11.7969 19.14 11.7969 18.7257C11.7969 18.3115 12.1327 17.9757 12.5469 17.9757H16.6135C16.969 17.9757 17.4593 17.9053 17.9591 17.7076C19.0976 17.1864 19.8866 16.0316 19.8866 14.695C19.8866 13.6093 19.5083 12.8026 18.9429 12.263C18.371 11.7173 17.5569 11.397 16.6106 11.3885C16.199 11.3848 15.8673 11.0501 15.8673 10.6385C15.8673 10.2704 15.7795 9.75112 15.5639 9.19987C15.413 8.81411 15.6035 8.37909 15.9892 8.22823Z" fill="black"/>
</svg>
