<svg width="24" height="24" viewBox="0 0 24 24" fill="none" xmlns="http://www.w3.org/2000/svg">
<path d="M17.5596 14.3539C16.7596 14.3539 16.2196 13.9738 15.7896 13.6838C15.5096 13.4938 15.2496 13.3139 14.9496 13.2239C13.1796 12.7139 10.8296 11.6738 10.8296 8.54382C10.8296 5.83382 13.1296 3.94385 16.4296 3.94385C19.3696 3.94385 21.7596 6.3338 21.7596 9.2738C21.7596 11.4538 20.4496 13.3939 18.4196 14.2239C18.1096 14.3139 17.8196 14.3539 17.5696 14.3539H17.5596ZM16.4196 5.44385C14.3796 5.44385 12.3196 6.40382 12.3196 8.54382C12.3196 10.2238 13.1996 11.1638 15.3596 11.7838C15.8896 11.9438 16.2896 12.2038 16.6296 12.4438C17.1696 12.8138 17.3996 12.9538 17.9096 12.8038C19.2996 12.2338 20.2396 10.8438 20.2396 9.2738C20.2396 7.1638 18.5196 5.44385 16.4096 5.44385H16.4196Z" fill="black"/>
<path d="M5.56962 17.1842C5.04962 17.1842 4.47966 17.0443 3.85966 16.6943C3.09966 16.2643 2.57966 15.5942 2.35966 14.7742C2.07966 13.7442 2.29962 12.5142 2.93962 11.3942C3.46962 10.4742 4.32965 9.81423 5.34965 9.54423C6.36965 9.27423 7.42965 9.41425 8.34965 9.94425C9.75965 10.7543 10.5197 12.3142 10.2897 13.9342C10.0397 14.9642 9.36967 15.2842 8.92967 15.5042C8.71967 15.6042 8.54965 15.6942 8.40965 15.8142C7.98965 16.2142 6.95961 17.1943 5.55961 17.1943L5.56962 17.1842ZM6.37962 10.9042C6.16962 10.9042 5.94967 10.9342 5.73967 10.9842C5.09967 11.1542 4.56967 11.5642 4.23967 12.1342C3.78967 12.9142 3.62961 13.7242 3.80961 14.3742C3.92961 14.8142 4.19966 15.1542 4.60966 15.3842C5.52966 15.9242 6.30961 15.7343 7.36961 14.7143C7.66961 14.4243 8.00963 14.2542 8.26963 14.1342C8.67963 13.9342 8.74961 13.8842 8.80961 13.6342C8.93961 12.7042 8.45964 11.7342 7.58964 11.2342C7.20964 11.0142 6.78961 10.9042 6.36961 10.9042H6.37962Z" fill="black"/>
<path d="M12.8996 21.384C12.3996 21.384 11.9096 21.254 11.4596 20.994C10.4296 20.404 9.87959 19.2541 10.0396 18.0741C10.2396 17.2441 10.7696 16.9841 11.0996 16.8341C11.2196 16.7741 11.3196 16.734 11.3796 16.674C12.4796 15.614 13.5996 15.394 14.7096 16.034C16.0096 16.794 16.2996 18.394 15.4096 19.924C15.0296 20.594 14.3996 21.074 13.6596 21.274C13.4096 21.344 13.1596 21.374 12.9096 21.374L12.8996 21.384ZM13.4496 17.184C13.1696 17.184 12.8496 17.344 12.4196 17.764C12.1796 17.994 11.9295 18.1041 11.7495 18.1941C11.6795 18.2341 11.5596 18.284 11.5396 18.304C11.4596 18.854 11.7196 19.404 12.2196 19.684C12.5396 19.864 12.9096 19.9141 13.2696 19.8241C13.6296 19.7241 13.9296 19.494 14.1096 19.174C14.1896 19.034 14.8396 17.8541 13.9496 17.3341C13.7796 17.2341 13.6196 17.174 13.4496 17.174V17.184Z" fill="black"/>
<path d="M6.83924 7.4141C6.48924 7.4141 6.12925 7.31405 5.77925 7.11405C4.68925 6.47405 4.42926 5.10415 5.16926 3.83415C5.82926 2.67415 7.31927 2.27412 8.48927 2.93412C9.34927 3.44412 9.81927 4.40406 9.67927 5.37406C9.50927 6.12406 9.01923 6.35416 8.75923 6.47416C8.68923 6.50416 8.60924 6.54413 8.58924 6.56413C8.00924 7.11413 7.42924 7.39408 6.83924 7.39408V7.4141ZM7.27925 4.11405C6.95925 4.11405 6.63925 4.28415 6.46925 4.58415C6.44925 4.62415 5.95925 5.47413 6.52925 5.81413C6.76925 5.95413 7.00927 6.02407 7.54927 5.50407C7.74927 5.30407 7.95921 5.21407 8.11921 5.13407C8.14921 5.12407 8.17924 5.10416 8.20924 5.09416C8.22924 4.75416 8.04927 4.42406 7.73927 4.24406C7.58927 4.16406 7.43925 4.12406 7.27925 4.12406V4.11405Z" fill="black"/>
</svg>
