<svg width="24" height="24" viewBox="0 0 24 24" fill="none" xmlns="http://www.w3.org/2000/svg">
<path fill-rule="evenodd" clip-rule="evenodd" d="M13.5919 2.67675C13.5919 2.67678 13.5918 2.67672 13.5919 2.67675L19.2779 5.95858C20.2632 6.52763 20.8702 7.5801 20.8702 8.71761V15.2824C20.8702 16.4203 20.2631 17.4715 19.2781 18.0404L13.5919 21.3233C13.5918 21.3233 13.5919 21.3233 13.5919 21.3233C12.6067 21.8922 11.3925 21.8923 10.4073 21.3233C10.4073 21.3233 10.4074 21.3234 10.4073 21.3233L4.72113 18.0404C3.73609 17.4716 3.12891 16.4203 3.12891 15.2824V8.71761C3.12891 7.5801 3.73571 6.52773 4.72105 5.95868L10.4073 2.67675C10.4073 2.67672 10.4072 2.67678 10.4073 2.67675C11.3924 2.10791 12.6068 2.10791 13.5919 2.67675ZM12.8417 3.97569C12.3207 3.6748 11.6784 3.6748 11.1574 3.97569L5.47121 7.25762C5.47115 7.25765 5.47127 7.25759 5.47121 7.25762C4.95044 7.55846 4.62891 8.11547 4.62891 8.71761V15.2824C4.62891 15.8843 4.95002 16.4404 5.47113 16.7414C5.47115 16.7414 5.4711 16.7414 5.47113 16.7414L11.1573 20.0243C11.6783 20.3252 12.3207 20.3252 12.8417 20.0244L18.5279 16.7415C18.5279 16.7414 18.5279 16.7415 18.5279 16.7415C19.049 16.4405 19.3702 15.8843 19.3702 15.2824V8.71761C19.3702 8.1154 19.0488 7.55843 18.5279 7.25762L12.8417 3.97569Z" fill="black"/>
<path fill-rule="evenodd" clip-rule="evenodd" d="M7.34668 8.50669C7.34668 7.98466 7.76978 7.56104 8.29229 7.56104C8.8142 7.56104 9.23801 7.98406 9.23801 8.50669C9.23801 9.02931 8.8142 9.45234 8.29229 9.45234C7.76977 9.45234 7.34668 9.02872 7.34668 8.50669Z" fill="black"/>
<path fill-rule="evenodd" clip-rule="evenodd" d="M10.4922 9.06567C10.9064 9.06567 11.2422 9.40146 11.2422 9.81567V16.118C11.2422 16.5322 10.9064 16.868 10.4922 16.868C10.078 16.868 9.74219 16.5322 9.74219 16.118V9.81567C9.74219 9.40146 10.078 9.06567 10.4922 9.06567Z" fill="black"/>
<path fill-rule="evenodd" clip-rule="evenodd" d="M15.6152 9.33593C15.8802 9.6543 15.8369 10.1272 15.5185 10.3922L10.9788 14.1703C10.6604 14.4353 10.1875 14.392 9.92257 14.0736C9.6576 13.7552 9.7009 13.2823 10.0193 13.0174L14.559 9.23922C14.8774 8.97425 15.3503 9.01755 15.6152 9.33593Z" fill="black"/>
<path fill-rule="evenodd" clip-rule="evenodd" d="M15.5351 16.6815C15.8464 16.4083 15.8773 15.9344 15.6041 15.6231L12.4397 12.0173C12.1665 11.706 11.6926 11.6751 11.3813 11.9483C11.07 12.2215 11.0391 12.6954 11.3123 13.0067L14.4767 16.6125C14.7499 16.9238 15.2238 16.9547 15.5351 16.6815Z" fill="black"/>
</svg>
