<svg width="24" height="24" viewBox="0 0 24 24" fill="none" xmlns="http://www.w3.org/2000/svg">
<path fill-rule="evenodd" clip-rule="evenodd" d="M10.3252 19.5269C10.3252 19.9411 10.661 20.2769 11.0752 20.2769H20.9999C21.4141 20.2769 21.7499 19.9411 21.7499 19.5269C21.7499 19.1126 21.4141 18.7769 20.9999 18.7769H11.0752C10.661 18.7769 10.3252 19.1126 10.3252 19.5269Z" fill="black"/>
<path fill-rule="evenodd" clip-rule="evenodd" d="M13.675 4.47314C13.675 4.88736 13.3393 5.22314 12.925 5.22314H3.00032C2.5861 5.22314 2.25032 4.88736 2.25032 4.47314C2.25032 4.05893 2.5861 3.72314 3.00032 3.72314H12.925C13.3393 3.72314 13.675 4.05893 13.675 4.47314Z" fill="black"/>
<path fill-rule="evenodd" clip-rule="evenodd" d="M4.09937 19.5269C4.09937 19.9411 4.43515 20.2769 4.84937 20.2769H7.61129C8.02551 20.2769 8.36129 19.9411 8.36129 19.5269C8.36129 19.1126 8.02551 18.7769 7.61129 18.7769H4.84937C4.43515 18.7769 4.09937 19.1126 4.09937 19.5269Z" fill="black"/>
<path fill-rule="evenodd" clip-rule="evenodd" d="M19.9014 4.47314C19.9014 4.88736 19.5656 5.22314 19.1514 5.22314H16.3894C15.9752 5.22314 15.6394 4.88736 15.6394 4.47314C15.6394 4.05893 15.9752 3.72314 16.3894 3.72314H19.1514C19.5656 3.72314 19.9014 4.05893 19.9014 4.47314Z" fill="black"/>
<path fill-rule="evenodd" clip-rule="evenodd" d="M21.7502 9.47485C21.7502 9.06064 21.4145 8.72485 21.0002 8.72485L17.77 8.72485C17.3558 8.72485 17.02 9.06064 17.02 9.47485C17.02 9.88907 17.3558 10.2249 17.77 10.2249L21.0002 10.2249C21.4145 10.2249 21.7502 9.88907 21.7502 9.47485Z" fill="black"/>
<path fill-rule="evenodd" clip-rule="evenodd" d="M2.53125 14.4766C2.53125 14.0623 2.86704 13.7266 3.28125 13.7266L6.51152 13.7266C6.92573 13.7266 7.26152 14.0623 7.26152 14.4766C7.26152 14.8908 6.92573 15.2266 6.51152 15.2266L3.28125 15.2266C2.86704 15.2266 2.53125 14.8908 2.53125 14.4766Z" fill="black"/>
<path fill-rule="evenodd" clip-rule="evenodd" d="M10.1406 9.47485C10.1406 9.06064 9.80484 8.72485 9.39062 8.72485H5.13077C4.71655 8.72485 4.38077 9.06064 4.38077 9.47485C4.38077 9.88907 4.71655 10.2249 5.13077 10.2249H9.39062C9.80484 10.2249 10.1406 9.88907 10.1406 9.47485Z" fill="black"/>
<path fill-rule="evenodd" clip-rule="evenodd" d="M14.1416 14.4766C14.1416 14.0623 14.4774 13.7266 14.8916 13.7266H19.1515C19.5657 13.7266 19.9015 14.0623 19.9015 14.4766C19.9015 14.8908 19.5657 15.2266 19.1515 15.2266H14.8916C14.4774 15.2266 14.1416 14.8908 14.1416 14.4766Z" fill="black"/>
<path fill-rule="evenodd" clip-rule="evenodd" d="M15.116 9.47485C15.116 9.06064 14.7802 8.72485 14.366 8.72485H12.794C12.3798 8.72485 12.044 9.06064 12.044 9.47485C12.044 9.88907 12.3798 10.2249 12.794 10.2249H14.366C14.7802 10.2249 15.116 9.88907 15.116 9.47485Z" fill="black"/>
<path fill-rule="evenodd" clip-rule="evenodd" d="M9.16504 14.4766C9.16504 14.0623 9.50083 13.7266 9.91504 13.7266H11.487C11.9012 13.7266 12.237 14.0623 12.237 14.4766C12.237 14.8908 11.9012 15.2266 11.487 15.2266H9.91504C9.50083 15.2266 9.16504 14.8908 9.16504 14.4766Z" fill="black"/>
</svg>
