<svg width="24" height="24" viewBox="0 0 24 24" fill="none" xmlns="http://www.w3.org/2000/svg">
<path d="M6.0999 14.3096C5.7299 14.3096 5.41989 14.0396 5.35989 13.6796C5.15989 12.4796 4.2199 11.5296 3.0199 11.3396C2.6599 11.2796 2.38989 10.9696 2.38989 10.5996C2.38989 10.2296 2.6599 9.91962 3.0199 9.85962C4.2199 9.65962 5.15989 8.71959 5.35989 7.51959C5.41989 7.15959 5.7299 6.88965 6.0999 6.88965C6.4699 6.88965 6.77989 7.15959 6.83989 7.51959C7.03989 8.71959 7.97989 9.66962 9.17989 9.85962C9.53989 9.91962 9.80989 10.2296 9.80989 10.5996C9.80989 10.9696 9.53989 11.2796 9.17989 11.3396C7.97989 11.5396 7.02989 12.4796 6.83989 13.6796C6.77989 14.0396 6.4699 14.3096 6.0999 14.3096ZM5.05989 10.5996C5.45989 10.8796 5.8099 11.2296 6.0999 11.6396C6.3799 11.2396 6.72989 10.8896 7.13989 10.5996C6.73989 10.3196 6.3899 9.96963 6.0999 9.55963C5.8199 9.95963 5.46989 10.3096 5.05989 10.5996Z" fill="black"/>
<path d="M10.0398 6.70996C9.66981 6.70996 9.35982 6.44002 9.29982 6.08002C9.22982 5.64002 8.87982 5.28997 8.43982 5.21997C8.07982 5.15997 7.80981 4.84998 7.80981 4.47998C7.80981 4.10998 8.07982 3.79999 8.43982 3.73999C8.87982 3.66999 9.22982 3.32 9.29982 2.88C9.35982 2.52 9.66981 2.25 10.0398 2.25C10.4098 2.25 10.7198 2.52 10.7798 2.88C10.8498 3.32 11.1998 3.66999 11.6398 3.73999C11.9998 3.79999 12.2698 4.10998 12.2698 4.47998C12.2698 4.84998 11.9998 5.15997 11.6398 5.21997C11.1998 5.28997 10.8498 5.64002 10.7798 6.08002C10.7198 6.44002 10.4098 6.70996 10.0398 6.70996Z" fill="black"/>
<path d="M12 21.7499C8.57998 21.7499 5.38997 19.9099 3.67997 16.9399C3.52997 16.6799 3.54998 16.3498 3.72998 16.1098C3.90998 15.8698 4.22998 15.7598 4.51998 15.8398C5.18998 16.0098 5.86997 16.0998 6.56997 16.0998C11.03 16.0998 14.67 12.4699 14.67 8.00987C14.67 6.58987 14.3 5.19984 13.6 3.97984C13.45 3.71984 13.47 3.38982 13.65 3.14982C13.83 2.90982 14.15 2.79986 14.44 2.87986C18.66 3.97986 21.61 7.79983 21.61 12.1598C21.61 17.4498 17.31 21.7499 12.02 21.7499H12ZM5.98999 17.5799C7.50999 19.2599 9.68998 20.2499 12 20.2499C16.46 20.2499 20.09 16.6198 20.09 12.1598C20.09 9.05983 18.33 6.28985 15.65 4.92985C15.98 5.90985 16.15 6.94986 16.15 7.99986C16.15 13.2899 11.85 17.5898 6.54998 17.5898C6.35998 17.5898 6.16998 17.5899 5.97998 17.5699L5.98999 17.5799Z" fill="black"/>
</svg>
