<svg width="24" height="24" viewBox="0 0 24 24" fill="none" xmlns="http://www.w3.org/2000/svg">
<path fill-rule="evenodd" clip-rule="evenodd" d="M7.01518 8.27904C7.78762 7.2718 9.01749 6.47144 10.7749 6.47144C12.5477 6.47144 13.7833 7.28585 14.5543 8.30443C15.1126 9.04198 15.4312 9.88874 15.5569 10.6201C16.4119 10.7492 17.1988 11.1101 17.8139 11.6971C18.5957 12.4431 19.0496 13.5067 19.0496 14.7779C19.0496 15.1921 18.7138 15.5279 18.2996 15.5279C17.8854 15.5279 17.5496 15.1921 17.5496 14.7779C17.5496 13.8787 17.2372 13.2201 16.7784 12.7823C16.3132 12.3384 15.6465 12.0735 14.8632 12.0665C14.4516 12.0628 14.1199 11.7281 14.1199 11.3165C14.1199 10.7916 13.902 9.92803 13.3583 9.20975C12.8377 8.52205 12.0257 7.97144 10.7749 7.97144C9.5423 7.97144 8.73668 8.50595 8.21579 9.17844L7.90523 9.62582C7.66903 9.96609 7.2017 10.0504 6.86144 9.81424C6.52118 9.57803 6.43682 9.11071 6.67303 8.77044L6.99422 8.30775C7.00098 8.29802 7.00797 8.28844 7.01518 8.27904Z" fill="black"/>
<path fill-rule="evenodd" clip-rule="evenodd" d="M5.06323 9.68751C5.58401 8.99931 6.42291 8.44922 7.61024 8.44922C8.79753 8.44922 9.63652 8.99928 10.1574 9.68742C10.6552 10.345 10.8692 11.1324 10.8692 11.7082C10.8692 12.1224 10.5334 12.4582 10.1192 12.4582C9.70499 12.4582 9.3692 12.1224 9.3692 11.7082C9.3692 11.4476 9.25502 10.9806 8.96144 10.5927C8.691 10.2355 8.27551 9.94922 7.61024 9.94922C6.94499 9.94922 6.52966 10.2355 6.25935 10.5927C5.9659 10.9804 5.85177 11.4475 5.85177 11.7082C5.85177 12.1198 5.52008 12.4544 5.10852 12.4582C4.69259 12.4619 4.35782 12.6017 4.13272 12.8165C3.91405 13.0251 3.75 13.3502 3.75 13.8289C3.75 14.3838 4.0799 14.8632 4.55685 15.0787C4.93432 15.2493 5.10203 15.6936 4.93146 16.0711C4.76088 16.4485 4.31661 16.6162 3.93915 16.4457C2.94482 15.9963 2.25 14.9945 2.25 13.8289C2.25 12.9779 2.55569 12.2478 3.09734 11.7311C3.47197 11.3738 3.93522 11.1413 4.43543 11.0317C4.53895 10.5908 4.74193 10.1121 5.06323 9.68751Z" fill="black"/>
<path fill-rule="evenodd" clip-rule="evenodd" d="M6.95579 5.82886C6.17295 5.82886 5.52874 6.42629 5.45562 7.18959C5.41612 7.60192 5.04984 7.90415 4.63751 7.86465C4.22519 7.82514 3.92295 7.45887 3.96246 7.04654C4.10859 5.52117 5.3925 4.32886 6.95579 4.32886C8.61659 4.32886 9.96293 5.6752 9.96293 7.33599C9.96293 7.75021 9.62714 8.08599 9.21293 8.08599C8.79871 8.08599 8.46293 7.75021 8.46293 7.33599C8.46293 6.50363 7.78816 5.82886 6.95579 5.82886Z" fill="black"/>
<path fill-rule="evenodd" clip-rule="evenodd" d="M4.18397 7.80615C3.94429 7.80615 3.75 8.00045 3.75 8.24012C3.75 8.65434 3.41421 8.99012 3 8.99012C2.58579 8.99012 2.25 8.65434 2.25 8.24012C2.25 7.17202 3.11587 6.30615 4.18397 6.30615C5.01726 6.30615 5.72566 6.8328 5.99807 7.56892C6.14183 7.95739 5.94346 8.38884 5.55499 8.5326C5.16653 8.67636 4.73507 8.47799 4.59131 8.08952C4.52967 7.92295 4.36951 7.80615 4.18397 7.80615Z" fill="black"/>
<path fill-rule="evenodd" clip-rule="evenodd" d="M16.6681 2.86896C16.823 3.07314 16.8629 3.34228 16.7739 3.58262C16.2052 5.119 16.5311 6.30065 17.1885 6.95519C17.844 7.60778 19.0088 7.91548 20.5025 7.32705C20.7433 7.2322 21.0159 7.26817 21.2239 7.42221C21.4318 7.57626 21.5456 7.82661 21.525 8.08456C21.332 10.5014 19.4554 12.4467 17.0659 12.7443C16.6548 12.7954 16.2801 12.5037 16.2289 12.0927C16.1777 11.6817 16.4694 11.3069 16.8805 11.2558C18.1796 11.094 19.265 10.2404 19.7574 9.07807C18.3293 9.29772 17.0311 8.91516 16.1302 8.01818C15.2224 7.11435 14.8271 5.79701 15.0384 4.33543C13.8374 4.83693 12.9644 5.96747 12.8335 7.31625C12.7934 7.72852 12.4268 8.0303 12.0145 7.99028C11.6022 7.95026 11.3005 7.58361 11.3405 7.17133C11.5787 4.71664 13.548 2.77649 16.0093 2.57478C16.2647 2.55384 16.5132 2.66479 16.6681 2.86896Z" fill="black"/>
<path fill-rule="evenodd" clip-rule="evenodd" d="M13.8398 14.8745C14.2453 14.7898 14.6426 15.0499 14.7273 15.4554L14.7352 15.4933C14.8198 15.8988 14.5598 16.2961 14.1543 16.3808C13.7488 16.4654 13.3515 16.2054 13.2668 15.7999L13.2589 15.762C13.1743 15.3565 13.4343 14.9592 13.8398 14.8745ZM7.45141 14.875C7.85688 14.9596 8.11694 15.357 8.03228 15.7624L8.02436 15.8004C7.9397 16.2059 7.54237 16.4659 7.1369 16.3813C6.73143 16.2966 6.47136 15.8993 6.55602 15.4938L6.56395 15.4559C6.64861 15.0504 7.04594 14.7903 7.45141 14.875ZM10.4883 16.3154C10.8938 16.2308 11.2911 16.4908 11.3758 16.8963L11.3837 16.9342C11.4684 17.3397 11.2083 17.737 10.8029 17.8217C10.3974 17.9064 10.0001 17.6463 9.9154 17.2409L9.90747 17.2029C9.8228 16.7974 10.0829 16.4001 10.4883 16.3154ZM7.44772 17.7537C7.85361 17.8363 8.11567 18.2323 8.03304 18.6382L8.02512 18.6772C7.94249 19.083 7.54647 19.3451 7.14058 19.2625C6.73469 19.1798 6.47264 18.7838 6.55526 18.3779L6.56319 18.339C6.64581 17.9331 7.04183 17.6711 7.44772 17.7537ZM14.1506 17.7537C14.5565 17.8363 14.8186 18.2323 14.7359 18.6382L14.728 18.6771C14.6454 19.083 14.2494 19.3451 13.8435 19.2625C13.4376 19.1798 13.1755 18.7838 13.2582 18.3779L13.2661 18.339C13.3487 17.9331 13.7447 17.6711 14.1506 17.7537ZM10.7992 19.1942C11.2051 19.2768 11.4671 19.6728 11.3845 20.0787L11.3766 20.1176C11.2939 20.5235 10.8979 20.7856 10.492 20.7029C10.0861 20.6203 9.82408 20.2243 9.90671 19.8184L9.91464 19.7795C9.99727 19.3736 10.3933 19.1115 10.7992 19.1942Z" fill="black"/>
</svg>
