<svg width="24" height="24" viewBox="0 0 24 24" fill="none" xmlns="http://www.w3.org/2000/svg">
<path d="M16.21 21.7549H7.78C4.47 21.7549 2.25 19.4349 2.25 15.9749V8.02484C2.25 4.57484 4.47 2.24487 7.78 2.24487H16.22C19.53 2.24487 21.75 4.56484 21.75 8.02484V15.9749C21.75 19.4249 19.53 21.7549 16.22 21.7549H16.21ZM7.78 3.75488C5.33 3.75488 3.75 5.43485 3.75 8.03485V15.9849C3.75 18.5849 5.33 20.2649 7.78 20.2649H16.21C18.66 20.2649 20.24 18.5849 20.24 15.9849V8.03485C20.24 5.43485 18.66 3.75488 16.21 3.75488H7.76999H7.78Z" fill="black"/>
<path d="M11.8997 17.7548C9.29968 17.7548 6.98968 16.0148 6.27968 13.5148C6.19968 13.2348 6.29968 12.8948 6.52968 12.7048C6.75968 12.5048 7.12968 12.4648 7.39968 12.6148C8.86968 13.4048 10.7297 13.1248 11.9197 11.9348C13.1097 10.7448 13.3897 8.88478 12.5997 7.41478C12.4597 7.14478 12.4997 6.78478 12.6897 6.54478C12.8797 6.31478 13.2197 6.20478 13.5097 6.29478C15.9997 7.00478 17.7397 9.31478 17.7397 11.9148C17.7397 15.1348 15.1197 17.7648 11.8897 17.7648L11.8997 17.7548ZM8.41968 14.4948C9.22968 15.5748 10.5097 16.2548 11.8997 16.2548C14.2997 16.2548 16.2497 14.3048 16.2497 11.9048C16.2497 10.5048 15.5697 9.22478 14.4897 8.41478C14.7297 10.0548 14.1997 11.7748 12.9797 12.9848C11.7697 14.1948 10.0497 14.7248 8.40967 14.4848L8.41968 14.4948Z" fill="black"/>
<path d="M9.8798 8.585C9.6798 8.585 9.47981 8.50496 9.33981 8.35496C9.04981 8.05496 9.05981 7.57495 9.35981 7.28495C9.65981 7.00495 10.1298 7.00497 10.4198 7.30497C10.7098 7.61497 10.6898 8.08497 10.3898 8.37497C10.2398 8.51497 10.0598 8.585 9.86981 8.585H9.8798Z" fill="black"/>
<path d="M8.95978 11.4751C8.76978 11.4751 8.58977 11.4052 8.43977 11.2652C8.13977 10.9752 8.11977 10.4952 8.40977 10.2052C8.69977 9.90517 9.16979 9.88514 9.46979 10.1751H9.47978C9.77978 10.4751 9.78978 10.9451 9.50978 11.2451C9.35978 11.3951 9.15979 11.4751 8.96979 11.4751H8.95978Z" fill="black"/>
</svg>
