<svg width="24" height="24" viewBox="0 0 24 24" fill="none" xmlns="http://www.w3.org/2000/svg">
<path d="M11.96 21.2648C7.79998 21.2648 4.09997 18.4648 2.94997 14.4648C2.86997 14.1748 2.98997 13.7949 3.22997 13.6149C3.47997 13.4149 3.82998 13.3849 4.10998 13.5449C6.79998 14.9849 10.19 14.4749 12.36 12.3049C14.53 10.1349 15.04 6.74485 13.61 4.04485C13.47 3.77485 13.51 3.39484 13.7 3.15484C13.91 2.90484 14.25 2.80483 14.56 2.89483C18.54 4.03483 21.33 7.73483 21.33 11.8948C21.33 13.8148 20.75 15.6649 19.66 17.2349C19.42 17.5749 18.95 17.6549 18.62 17.4249C18.28 17.1849 18.2 16.7249 18.43 16.3849C19.35 15.0649 19.83 13.5148 19.83 11.8948C19.83 8.92483 18.14 6.23484 15.57 4.90484C16.43 7.85484 15.65 11.1349 13.42 13.3649C11.2 15.5949 7.89998 16.3749 4.95998 15.5049C6.28998 18.0749 8.97997 19.7648 11.95 19.7648C13.48 19.7648 14.97 19.3249 16.24 18.4949C16.59 18.2749 17.05 18.3648 17.28 18.7148C17.51 19.0648 17.41 19.5249 17.06 19.7549C15.54 20.7449 13.77 21.2748 11.95 21.2748L11.96 21.2648ZM14.93 3.32488C14.93 3.32488 14.93 3.33484 14.93 3.34484C14.93 3.34484 14.93 3.33488 14.93 3.32488Z" fill="black"/>
<path d="M6.06985 9.71484C5.73985 9.71484 5.45983 9.50489 5.35983 9.19489C4.97983 8.01489 4.03983 7.07489 2.85983 6.69489C2.54983 6.59489 2.33984 6.30486 2.33984 5.98486C2.33984 5.66486 2.54983 5.37484 2.85983 5.27484C4.03983 4.89484 4.97983 3.95484 5.35983 2.77484C5.45983 2.46484 5.74985 2.25488 6.06985 2.25488C6.38985 2.25488 6.67985 2.46484 6.77985 2.77484C7.15985 3.95484 8.09985 4.89484 9.27985 5.27484C9.58985 5.37484 9.79984 5.66486 9.79984 5.98486C9.79984 6.30486 9.58985 6.59489 9.27985 6.69489C8.09985 7.07489 7.15985 8.01489 6.77985 9.19489C6.67985 9.50489 6.38985 9.71484 6.06985 9.71484ZM4.73984 5.97485C5.25984 6.33485 5.69985 6.78487 6.06985 7.30487C6.42985 6.78487 6.87983 6.34485 7.38983 5.97485C6.87983 5.61485 6.42985 5.16484 6.06985 4.64484C5.70985 5.16484 5.25984 5.60485 4.73984 5.97485Z" fill="black"/>
<path d="M10.08 11.7651C9.75005 11.7651 9.47006 11.5551 9.37006 11.2451C9.29006 10.9851 9.08005 10.7851 8.83005 10.7051C8.52005 10.6051 8.31006 10.3151 8.31006 9.99512C8.31006 9.67512 8.52005 9.3851 8.83005 9.2851C9.09005 9.2051 9.29006 8.99512 9.37006 8.74512C9.47006 8.43512 9.76005 8.2251 10.08 8.2251C10.41 8.2251 10.6901 8.43512 10.7901 8.74512C10.8701 9.00512 11.08 9.2051 11.33 9.2851C11.64 9.3851 11.8501 9.67512 11.8501 9.99512C11.8501 10.3151 11.64 10.6051 11.33 10.7051C11.07 10.7851 10.8701 10.9851 10.7901 11.2451C10.6901 11.5551 10.4 11.7651 10.08 11.7651Z" fill="black"/>
<path d="M18.11 21.7451C17.78 21.7451 17.5001 21.535 17.4001 21.225C17.0401 20.125 16.18 19.255 15.08 18.905C14.77 18.805 14.5601 18.5151 14.5601 18.1951C14.5601 17.8751 14.77 17.585 15.08 17.485C16.18 17.125 17.0401 16.265 17.4001 15.165C17.5001 14.855 17.79 14.645 18.11 14.645C18.44 14.645 18.7201 14.855 18.8201 15.165C19.1801 16.265 20.04 17.125 21.14 17.485C21.45 17.585 21.6601 17.8751 21.6601 18.1951C21.6601 18.5151 21.45 18.805 21.14 18.905C20.04 19.265 19.1701 20.125 18.8201 21.225C18.7201 21.535 18.43 21.7451 18.11 21.7451ZM16.9401 18.1951C17.3901 18.5151 17.78 18.9151 18.11 19.3651C18.43 18.9151 18.8301 18.5251 19.2701 18.1951C18.8201 17.8751 18.43 17.475 18.11 17.035C17.79 17.485 17.3901 17.8751 16.9401 18.1951Z" fill="black"/>
</svg>
