<svg width="24" height="24" viewBox="0 0 24 24" fill="none" xmlns="http://www.w3.org/2000/svg">
<path d="M10.9989 20.402C10.1489 20.402 9.29889 20.112 8.57889 19.582C7.58889 18.842 6.98888 17.742 6.87888 16.472C6.42888 10.942 12.4789 7.70202 12.7389 7.56202C12.9789 7.43202 13.2789 7.45206 13.5089 7.60206C13.7389 7.75206 13.8589 8.022 13.8389 8.292C13.8389 8.312 13.6189 10.6719 14.1089 12.9919C14.1889 13.3719 14.3189 13.772 14.4589 14.182C14.8289 15.292 15.2389 16.542 14.7289 17.872C14.2489 19.112 13.1389 20.022 11.7689 20.302C11.5189 20.352 11.2589 20.382 11.0089 20.382L10.9989 20.402ZM12.2789 9.63196C10.7089 10.772 8.10887 13.152 8.36887 16.342C8.43887 17.172 8.82888 17.892 9.46888 18.372C10.0589 18.812 10.7789 18.9921 11.4489 18.8521C12.3189 18.6721 13.0189 18.102 13.3089 17.342C13.6289 16.512 13.3489 15.652 13.0189 14.662C12.8789 14.222 12.7289 13.772 12.6289 13.312C12.3389 11.952 12.2789 10.612 12.2789 9.63196Z" fill="black"/>
<path d="M5.39846 10.4019C4.37846 10.4019 3.40847 9.88189 2.78847 8.99189C2.28847 8.26189 2.12847 7.32194 2.34847 6.42194C2.58847 5.47194 3.20847 4.68199 4.09847 4.22199C7.89847 2.25199 11.9885 5.56198 12.1585 5.71198C12.3685 5.89198 12.4685 6.16195 12.4185 6.43195C12.3685 6.70195 12.1685 6.9219 11.9085 7.0019C11.8885 7.0019 10.2285 7.53193 8.78847 8.53193C8.53847 8.70193 8.30848 8.902 8.07848 9.112C7.39848 9.702 6.62847 10.3719 5.49847 10.4119C5.46847 10.4119 5.42846 10.4119 5.39846 10.4119V10.4019ZM6.68847 5.10199C6.05847 5.10199 5.41848 5.23195 4.79848 5.55195C4.29848 5.81195 3.93846 6.25193 3.80846 6.78193C3.68846 7.27193 3.76846 7.76191 4.02846 8.14191C4.36846 8.64191 4.88848 8.95192 5.44848 8.90192C6.03848 8.88192 6.52846 8.46199 7.08846 7.97199C7.36846 7.73199 7.64847 7.49194 7.93847 7.29194C8.66847 6.78194 9.43847 6.392 10.0685 6.112C9.21847 5.632 7.97847 5.10199 6.68847 5.10199Z" fill="black"/>
<path d="M19.0387 14.2019C18.6087 14.2019 18.1887 14.1019 17.7787 13.9019C14.6987 12.3719 14.8987 8.18187 14.9087 8.00187C14.9287 7.72187 15.0887 7.48198 15.3387 7.36198C15.5887 7.24198 15.8787 7.27193 16.0987 7.44193C16.1087 7.44193 17.1888 8.24191 18.4488 8.67191C18.6588 8.74191 18.8787 8.79196 19.0987 8.84196C19.7787 8.99196 20.6287 9.18192 21.2087 9.93192C21.7487 10.6219 21.8987 11.5619 21.5887 12.4319C21.3487 13.1219 20.7987 13.692 20.0887 13.982C19.7487 14.122 19.3887 14.1919 19.0287 14.1919L19.0387 14.2019ZM16.5087 9.45194C16.6887 10.5219 17.1687 11.9219 18.4387 12.5519C18.7887 12.7219 19.1787 12.742 19.5287 12.592C19.8387 12.462 20.0787 12.2219 20.1787 11.9319C20.3087 11.5419 20.2587 11.142 20.0287 10.852C19.7787 10.522 19.3087 10.4219 18.7687 10.3019C18.4887 10.2419 18.2187 10.182 17.9587 10.092C17.4287 9.91196 16.9287 9.67194 16.4987 9.45194H16.5087Z" fill="black"/>
</svg>
