<svg width="24" height="24" viewBox="0 0 24 24" fill="none" xmlns="http://www.w3.org/2000/svg">
<path fill-rule="evenodd" clip-rule="evenodd" d="M7.27637 20.3126C7.27637 17.7041 9.39097 15.5895 11.9995 15.5895C14.608 15.5895 16.7226 17.7041 16.7226 20.3126C16.7226 20.7268 16.3868 21.0626 15.9726 21.0626C15.5583 21.0626 15.2226 20.7268 15.2226 20.3126C15.2226 18.5325 13.7795 17.0895 11.9995 17.0895C10.2194 17.0895 8.77637 18.5325 8.77637 20.3126C8.77637 20.7268 8.44058 21.0626 8.02637 21.0626C7.61215 21.0626 7.27637 20.7268 7.27637 20.3126Z" fill="black"/>
<path fill-rule="evenodd" clip-rule="evenodd" d="M4.79004 20.3125C4.79004 16.3304 8.01823 13.1022 12.0004 13.1022C15.9826 13.1022 19.2108 16.3304 19.2108 20.3125C19.2108 20.7268 18.875 21.0625 18.4608 21.0625C18.0466 21.0625 17.7108 20.7268 17.7108 20.3125C17.7108 17.1588 15.1542 14.6022 12.0004 14.6022C8.84666 14.6022 6.29004 17.1588 6.29004 20.3125C6.29004 20.7268 5.95425 21.0625 5.54004 21.0625C5.12583 21.0625 4.79004 20.7268 4.79004 20.3125Z" fill="black"/>
<path fill-rule="evenodd" clip-rule="evenodd" d="M2.25 20.3127C2.25 14.928 6.61522 10.5627 12 10.5627C17.3848 10.5627 21.75 14.928 21.75 20.3127C21.75 20.727 21.4142 21.0627 21 21.0627C20.5858 21.0627 20.25 20.727 20.25 20.3127C20.25 15.7564 16.5563 12.0627 12 12.0627C7.44365 12.0627 3.75 15.7564 3.75 20.3127C3.75 20.727 3.41421 21.0627 3 21.0627C2.58579 21.0627 2.25 20.727 2.25 20.3127Z" fill="black"/>
<path fill-rule="evenodd" clip-rule="evenodd" d="M13.1425 9.61167C12.7293 7.78264 10.9116 6.63431 9.08186 7.0477C7.25211 7.4611 6.10466 9.27935 6.51789 11.1084C6.61174 11.5238 6.77722 11.9025 6.99781 12.2356C7.22649 12.581 7.13189 13.0463 6.78652 13.275C6.44115 13.5037 5.9758 13.4091 5.74712 13.0637C5.42769 12.5813 5.1893 12.0344 5.05477 11.4389C4.45902 8.80207 6.11327 6.18059 8.7513 5.58458C11.3893 4.98857 14.0099 6.64424 14.6057 9.28111C14.7367 9.86101 14.759 10.4418 14.6852 11.001C14.631 11.4116 14.2542 11.7006 13.8435 11.6464C13.4329 11.5923 13.1439 11.2154 13.1981 10.8048C13.249 10.4186 13.234 10.0163 13.1425 9.61167Z" fill="black"/>
<path fill-rule="evenodd" clip-rule="evenodd" d="M14.4431 3.05307C14.7934 3.27421 14.898 3.73741 14.6769 4.08765L14.0347 5.10476C13.8135 5.455 13.3503 5.55965 13.0001 5.33851C12.6498 5.11736 12.5452 4.65416 12.7663 4.30392L13.4086 3.28681C13.6297 2.93657 14.0929 2.83192 14.4431 3.05307ZM8.18691 3.087C8.59094 2.99571 8.99247 3.24925 9.08375 3.65328L9.08768 3.67065C9.17896 4.07468 8.92543 4.47621 8.5214 4.5675C8.11737 4.65878 7.71584 4.40525 7.62456 4.00122L7.62063 3.98384C7.52935 3.57981 7.78288 3.17828 8.18691 3.087ZM2.52316 5.74658C2.74431 5.39634 3.2075 5.29169 3.55774 5.51283L4.57486 6.15505C4.92509 6.3762 5.02974 6.8394 4.8086 7.18964C4.58745 7.53988 4.12425 7.64453 3.77401 7.42338L2.7569 6.78116C2.40666 6.56002 2.30201 6.09682 2.52316 5.74658ZM17.1165 8.71388C17.2077 9.11791 16.9542 9.51944 16.5502 9.61072L16.5194 9.61767C16.1154 9.70896 15.7139 9.45543 15.6226 9.05139C15.5313 8.64737 15.7848 8.24583 16.1889 8.15455L16.2196 8.1476C16.6236 8.05632 17.0252 8.30985 17.1165 8.71388ZM4.03753 11.6688C4.12882 12.0728 3.87529 12.4744 3.47126 12.5656L3.44063 12.5726C3.0366 12.6638 2.63507 12.4103 2.54379 12.0063C2.4525 11.6023 2.70604 11.2007 3.11007 11.1094L3.14069 11.1025C3.54472 11.0112 3.94625 11.2648 4.03753 11.6688Z" fill="black"/>
</svg>
