<svg width="24" height="24" viewBox="0 0 24 24" fill="none" xmlns="http://www.w3.org/2000/svg">
<path fill-rule="evenodd" clip-rule="evenodd" d="M8.92691 12.7937C9.74157 11.979 10.8465 11.5223 11.9981 11.5223C13.1506 11.5223 14.2556 11.9789 15.0703 12.7937L15.0707 12.7941C15.8845 13.6091 16.3427 14.7137 16.3427 15.8659V17.9025C16.3427 18.3167 16.0069 18.6525 15.5927 18.6525C15.1785 18.6525 14.8427 18.3167 14.8427 17.9025V15.8659C14.8427 15.112 14.543 14.3885 14.0094 13.854C14.0093 13.854 14.0093 13.854 14.0093 13.8539M9.98781 13.8541C9.45427 14.3886 9.15454 15.1121 9.15454 15.8659V17.9025C9.15454 18.3167 8.81875 18.6525 8.40454 18.6525C7.99033 18.6525 7.65454 18.3167 7.65454 17.9025V15.8659C7.65454 14.7137 8.1127 13.6091 8.92651 12.7941L8.92691 12.7937M9.98781 13.8541C10.5206 13.3215 11.2437 13.0223 11.9981 13.0223C12.7536 13.0223 13.4766 13.3215 14.0093 13.8539" fill="black"/>
<path fill-rule="evenodd" clip-rule="evenodd" d="M6.85966 10.5462C8.22331 9.18366 10.0715 8.41748 12.0001 8.41748C13.9285 8.41748 15.7778 9.18357 17.1415 10.5462L17.1418 10.5464C18.5047 11.9093 19.2707 13.7598 19.2707 15.687V17.9044C19.2707 18.3186 18.9349 18.6544 18.5207 18.6544C18.1065 18.6544 17.7707 18.3186 17.7707 17.9044V15.687C17.7707 14.1574 17.1625 12.6885 16.0811 11.6071C14.9985 10.5255 13.5306 9.91748 12.0001 9.91748C10.4696 9.91748 9.00259 10.5255 7.91987 11.6073C6.83761 12.6886 6.22949 14.1574 6.22949 15.687V17.9044C6.22949 18.3186 5.89371 18.6544 5.47949 18.6544C5.06528 18.6544 4.72949 18.3186 4.72949 17.9044V15.687C4.72949 13.7597 5.49554 11.9091 6.85966 10.5462Z" fill="black"/>
<path fill-rule="evenodd" clip-rule="evenodd" d="M4.75204 8.34846C6.6745 6.42609 9.28176 5.3457 12 5.3457C14.7183 5.3457 17.3256 6.42614 19.2481 8.34862C21.1696 10.2701 22.25 12.8775 22.25 15.5957V17.9034C22.25 18.3176 21.9142 18.6534 21.5 18.6534C21.0858 18.6534 20.75 18.3176 20.75 17.9034V15.5957C20.75 13.2754 19.8277 11.0495 18.1875 9.40928C16.5461 7.76796 14.3203 6.8457 12 6.8457C9.67972 6.8457 7.45386 7.76796 5.81255 9.40928L5.81239 9.40943C4.1714 11.0495 3.25 13.2752 3.25 15.5957V17.9034C3.25 18.3176 2.91421 18.6534 2.5 18.6534C2.08579 18.6534 1.75 18.3176 1.75 17.9034V15.5957C1.75 12.8777 2.82919 10.2703 4.75189 8.34862" fill="black"/>
</svg>
