<svg width="24" height="24" viewBox="0 0 24 24" fill="none" xmlns="http://www.w3.org/2000/svg">
<path fill-rule="evenodd" clip-rule="evenodd" d="M9.43457 6.00697C9.43457 4.34276 10.7837 2.99365 12.4479 2.99365C14.1121 2.99365 15.4612 4.34276 15.4612 6.00697C15.4612 7.67118 14.1121 9.02029 12.4479 9.02029C10.7837 9.02029 9.43457 7.67118 9.43457 6.00697ZM12.4479 4.49365C11.6121 4.49365 10.9346 5.17119 10.9346 6.00697C10.9346 6.84275 11.6121 7.52029 12.4479 7.52029C13.2837 7.52029 13.9612 6.84275 13.9612 6.00697C13.9612 5.17119 13.2837 4.49365 12.4479 4.49365Z" fill="black"/>
<path fill-rule="evenodd" clip-rule="evenodd" d="M12.4485 12.8459C12.8627 12.8459 13.1985 13.1817 13.1985 13.5959V20.2565C13.1985 20.6707 12.8627 21.0065 12.4485 21.0065C12.0343 21.0065 11.6985 20.6707 11.6985 20.2565V13.5959C11.6985 13.1817 12.0343 12.8459 12.4485 12.8459Z" fill="black"/>
<path fill-rule="evenodd" clip-rule="evenodd" d="M12.4485 7.52014C12.8627 7.52014 13.1985 7.85593 13.1985 8.27014V11.0161C13.1985 11.4303 12.8627 11.7661 12.4485 11.7661C12.0343 11.7661 11.6985 11.4303 11.6985 11.0161V8.27014C11.6985 7.85593 12.0343 7.52014 12.4485 7.52014Z" fill="black"/>
<path fill-rule="evenodd" clip-rule="evenodd" d="M19.0152 14.2858L3 14.2858C2.58579 14.2858 2.25 13.95 2.25 13.5358C2.25 13.1216 2.58579 12.7858 3 12.7858L19.0152 12.7858C19.4294 12.7858 19.7652 13.1216 19.7652 13.5358C19.7652 13.95 19.4294 14.2858 19.0152 14.2858Z" fill="black"/>
<path fill-rule="evenodd" clip-rule="evenodd" d="M6.54206 9.99386C6.83494 10.2868 6.83493 10.7616 6.54203 11.0545L4.06068 13.5357L6.54204 16.0171C6.83494 16.31 6.83494 16.7849 6.54204 17.0777C6.24915 17.3706 5.77428 17.3706 5.48138 17.0777L2.46967 14.066C2.32901 13.9254 2.25 13.7346 2.25 13.5357C2.25 13.3368 2.32903 13.146 2.46969 13.0054L5.4814 9.99382C5.7743 9.70094 6.24918 9.70095 6.54206 9.99386Z" fill="black"/>
<path fill-rule="evenodd" clip-rule="evenodd" d="M21.5308 11.0207C21.8237 11.3136 21.8237 11.7885 21.5308 12.0814L20.0763 13.5357L21.5308 14.9902C21.8237 15.2831 21.8237 15.758 21.5308 16.0509C21.2379 16.3438 20.763 16.3438 20.4701 16.0509L18.4853 14.0661C18.3446 13.9254 18.2656 13.7346 18.2656 13.5357C18.2656 13.3368 18.3447 13.146 18.4853 13.0054L20.4701 11.0207C20.763 10.7278 21.2379 10.7278 21.5308 11.0207Z" fill="black"/>
</svg>
