<svg width="24" height="24" viewBox="0 0 24 24" fill="none" xmlns="http://www.w3.org/2000/svg">
<path fill-rule="evenodd" clip-rule="evenodd" d="M17.8388 5.40413C17.084 5.37425 16.0413 5.84805 15.2273 7.34906C15.2213 7.36016 15.215 7.3711 15.2084 7.38187C15.1964 7.4016 15.1843 7.42139 15.1722 7.44124C14.6894 8.23359 14.1503 9.11833 13.5018 9.79147C12.8216 10.4976 11.9466 11.0491 10.802 11.0088C9.38435 11.0007 8.23762 9.84895 8.23762 8.42937C8.23762 7.00871 9.38609 5.85628 10.8052 5.84988C10.5025 5.56779 10.1254 5.41951 9.73529 5.40413C8.97405 5.37413 7.92716 5.84977 7.11408 7.34906C7.10806 7.36016 7.10177 7.3711 7.0952 7.38187C5.46991 10.0483 4.08156 10.8754 3.16244 11.0794C2.75807 11.1692 2.3575 10.9141 2.26774 10.5098C2.17798 10.1054 2.43302 9.70482 2.83739 9.61506C3.19804 9.53501 4.2934 9.09081 5.80487 6.61675C6.80974 4.77526 8.31522 3.847 9.79437 3.9053C11.2898 3.96424 12.5215 5.03094 12.8716 6.65495C12.9274 6.91347 12.8428 7.18224 12.6491 7.3623C12.4555 7.54237 12.1812 7.60712 11.9275 7.53271C11.491 7.40474 11.2849 7.34985 10.8171 7.34985C10.2209 7.34985 9.73762 7.83316 9.73762 8.42937C9.73762 9.02557 10.2209 9.50888 10.8171 9.50888C10.827 9.50888 10.8369 9.50908 10.8467 9.50946C11.421 9.53214 11.9128 9.27885 12.4215 8.75078C12.9454 8.20704 13.4055 7.45758 13.918 6.61691C14.9219 4.77702 16.422 3.84687 17.8981 3.9053C19.3912 3.9644 20.6161 5.03361 20.9657 6.65495C21.0214 6.91347 20.9369 7.18224 20.7432 7.3623C20.5495 7.54237 20.2753 7.60712 20.0215 7.53271C19.5851 7.40474 19.379 7.34985 18.9112 7.34985C18.315 7.34985 17.8317 7.83316 17.8317 8.42937C17.8317 9.02557 18.315 9.50888 18.9112 9.50888C18.9211 9.50888 18.9309 9.50908 18.9408 9.50946C19.4899 9.53115 20.0573 9.29795 20.4906 8.8971C20.7947 8.61584 21.2692 8.63434 21.5505 8.93842C21.8318 9.2425 21.8133 9.71701 21.5092 9.99827C20.8312 10.6254 19.8941 11.0439 18.8961 11.0088C17.4784 11.0007 16.3317 9.84896 16.3317 8.42937C16.3317 7.00778 17.4816 5.85478 18.9021 5.84986C18.6006 5.56736 18.2257 5.41944 17.8388 5.40413Z" fill="black"/>
<path fill-rule="evenodd" clip-rule="evenodd" d="M10.082 15.6169C9.07804 13.777 7.57787 12.8469 6.10181 12.9053C4.60875 12.9644 3.38378 14.0336 3.03423 15.6549C2.97849 15.9135 3.06303 16.1822 3.25673 16.3623C3.45042 16.5424 3.72463 16.6071 3.97841 16.5327C4.41485 16.4047 4.62096 16.3498 5.08874 16.3498C5.68493 16.3498 6.16825 16.8332 6.16825 17.4294C6.16825 18.0256 5.68494 18.5089 5.08874 18.5089C5.07887 18.5089 5.069 18.5091 5.05914 18.5095C4.51001 18.5311 3.94265 18.298 3.50927 17.8971C3.20519 17.6158 2.73068 17.6343 2.44942 17.9384C2.16816 18.2425 2.18665 18.717 2.49073 18.9983C3.16872 19.6254 4.10579 20.0439 5.10382 20.0088C6.52151 20.0007 7.66825 18.849 7.66825 17.4294C7.66825 16.0078 6.51829 14.8548 5.09786 14.8499C5.39933 14.5674 5.77425 14.4194 6.16114 14.4041C6.91595 14.3743 7.95864 14.8481 8.77265 16.3491C8.77867 16.3602 8.78496 16.3711 8.79153 16.3819L8.80551 16.4048C8.81362 16.4181 8.82175 16.4315 8.8299 16.4448C9.31407 17.2393 9.85516 18.1272 10.5076 18.8013C11.1865 19.5027 12.0588 20.0489 13.1979 20.0088C14.6156 20.0007 15.7623 18.849 15.7623 17.4294C15.7623 16.0087 14.6138 14.8563 13.1947 14.8499C13.4975 14.5678 13.8745 14.4195 14.2646 14.4041C15.0259 14.3741 16.0728 14.8498 16.8858 16.3491C16.8919 16.3602 16.8982 16.3711 16.9047 16.3819C18.53 19.0483 19.9184 19.8754 20.8375 20.0794C21.2418 20.1692 21.6424 19.9141 21.7322 19.5098C21.8219 19.1054 21.5669 18.7048 21.1625 18.6151C20.8019 18.535 19.7065 18.0908 18.195 15.6167C17.1902 13.7753 15.6847 12.847 14.2056 12.9053C12.7102 12.9642 11.4784 14.0309 11.1283 15.6549C11.0725 15.9135 11.1571 16.1822 11.3508 16.3623C11.5445 16.5424 11.8187 16.6071 12.0725 16.5327C12.5089 16.4047 12.715 16.3498 13.1828 16.3498C13.779 16.3498 14.2623 16.8332 14.2623 17.4294C14.2623 18.0256 13.779 18.5089 13.1828 18.5089C13.1729 18.5089 13.163 18.5091 13.1532 18.5095C12.5814 18.532 12.0916 18.2811 11.5854 17.7581C11.0609 17.2161 10.5997 16.4664 10.0863 15.6241L10.086 15.6243L10.0863 15.6241L10.082 15.6169Z" fill="black"/>
</svg>
