<svg width="24" height="24" viewBox="0 0 24 24" fill="none" xmlns="http://www.w3.org/2000/svg">
<path fill-rule="evenodd" clip-rule="evenodd" d="M10.2403 11.1236C9.24876 9.30654 7.76597 8.38603 6.30517 8.44385C4.82737 8.50235 3.61551 9.56073 3.26985 11.164C3.21412 11.4226 3.29866 11.6913 3.49235 11.8714C3.68604 12.0515 3.96025 12.1162 4.21403 12.0418C4.64412 11.9157 4.84634 11.8619 5.30633 11.8619C5.88874 11.8619 6.36088 12.334 6.36088 12.9164C6.36088 13.4988 5.88874 13.971 5.30633 13.971C5.29646 13.971 5.28659 13.9711 5.27674 13.9715C4.7382 13.9928 4.18113 13.7641 3.75537 13.3702C3.45129 13.089 2.97677 13.1075 2.69551 13.4116C2.41425 13.7156 2.43275 14.1902 2.73683 14.4714C3.40721 15.0915 4.33398 15.5055 5.32142 15.4709C6.72531 15.4628 7.86088 14.3222 7.86088 12.9164C7.86088 11.5172 6.736 10.3808 5.34127 10.3621C5.63364 10.0964 5.99362 9.95736 6.3645 9.94268C7.10406 9.9134 8.12937 10.3776 8.93098 11.8557C8.93699 11.8668 8.94328 11.8778 8.94985 11.8885L8.96364 11.9111C8.97174 11.9244 8.97985 11.9377 8.98798 11.9511C9.46534 12.7344 9.99955 13.611 10.6439 14.2767C11.3147 14.9698 12.1777 15.5105 13.305 15.4709C14.7089 15.4628 15.8445 14.3222 15.8445 12.9164C15.8445 11.5182 14.7211 10.3823 13.3277 10.3621C13.6213 10.0968 13.9834 9.95742 14.3574 9.94268C15.1033 9.91328 16.1328 10.3793 16.9335 11.8557C16.9395 11.8668 16.9458 11.8778 16.9523 11.8885C18.5562 14.5198 19.9276 15.3382 20.8379 15.5403C21.2423 15.63 21.6429 15.375 21.7327 14.9706C21.8224 14.5663 21.5674 14.1657 21.163 14.0759C20.8111 13.9978 19.7327 13.5623 18.2427 11.1234C17.2502 9.30478 15.7622 8.38615 14.2983 8.44384C12.8183 8.50218 11.5997 9.55806 11.2534 11.164C11.1977 11.4226 11.2823 11.6913 11.4759 11.8714C11.6696 12.0515 11.9438 12.1162 12.1976 12.0418C12.6277 11.9157 12.8299 11.8619 13.2899 11.8619C13.8723 11.8619 14.3445 12.334 14.3445 12.9164C14.3445 13.4988 13.8723 13.971 13.2899 13.971C13.2801 13.971 13.2702 13.9711 13.2603 13.9715C12.7002 13.9937 12.2198 13.7482 11.7217 13.2335C11.2053 12.6999 10.751 11.9615 10.2445 11.1305L10.2441 11.1307L10.2445 11.1305L10.2403 11.1236Z" fill="black"/>
<path fill-rule="evenodd" clip-rule="evenodd" d="M20.3649 5.88719C19.5227 5.37517 18.4354 5.37517 17.5932 5.88719C16.0557 6.82198 14.6012 6.34591 13.4932 5.98326C13.4686 5.9752 13.4441 5.9672 13.4199 5.95927C12.2267 5.56955 11.4018 5.33371 10.4915 5.88719C8.95398 6.82198 7.49945 6.34591 6.39143 5.98325C6.36682 5.9752 6.34238 5.9672 6.31811 5.95927C5.125 5.56954 4.30008 5.3337 3.38973 5.88716C3.03579 6.10234 2.57443 5.98986 2.35925 5.63592C2.14407 5.28199 2.25656 4.82063 2.61049 4.60545C4.14799 3.6707 5.60251 4.14677 6.71052 4.50942C6.73514 4.51748 6.75959 4.52548 6.78387 4.53341C7.97697 4.92314 8.80188 5.15898 9.71223 4.60549C11.2497 3.67071 12.7043 4.14678 13.8123 4.50943C13.8369 4.51749 13.8613 4.52549 13.8856 4.53342C15.0787 4.92314 15.9036 5.15898 16.814 4.60549L17.202 5.24369L16.814 4.60549C18.1349 3.8024 19.8232 3.8024 21.1441 4.60549C21.498 4.82068 21.6105 5.28204 21.3953 5.63597C21.1801 5.98991 20.7188 6.10238 20.3649 5.88719Z" fill="black"/>
<path fill-rule="evenodd" clip-rule="evenodd" d="M6.71052 19.4905C5.60251 19.8531 4.14799 20.3292 2.61049 19.3945C2.25656 19.1793 2.14407 18.7179 2.35925 18.364C2.57443 18.01 3.03579 17.8976 3.38973 18.1127C4.30008 18.6662 5.125 18.4304 6.31811 18.0406C6.34238 18.0327 6.36682 18.0247 6.39143 18.0167C7.49945 17.654 8.95398 17.1779 10.4915 18.1127C11.4018 18.6662 12.2267 18.4304 13.4199 18.0406C13.4441 18.0327 13.4686 18.0247 13.4932 18.0166C14.6012 17.654 16.0557 17.1779 17.5932 18.1127C18.4354 18.6247 19.5227 18.6247 20.3649 18.1127C20.7188 17.8975 21.1801 18.01 21.3953 18.3639C21.6105 18.7179 21.498 19.1792 21.1441 19.3944C19.8232 20.1975 18.1349 20.1975 16.814 19.3944C15.9036 18.8409 15.0787 19.0768 13.8856 19.4665C13.8613 19.4744 13.8369 19.4824 13.8123 19.4905C12.7043 19.8531 11.2497 20.3292 9.71223 19.3944C8.80188 18.8409 7.97697 19.0768 6.78387 19.4665C6.75959 19.4744 6.73514 19.4824 6.71052 19.4905Z" fill="black"/>
</svg>
