<svg width="24" height="24" viewBox="0 0 24 24" fill="none" xmlns="http://www.w3.org/2000/svg">
<path fill-rule="evenodd" clip-rule="evenodd" d="M12 2.25C12.4142 2.25 12.75 2.58579 12.75 3L12.75 8.75541C12.75 9.16962 12.4142 9.50541 12 9.50541C11.5858 9.50541 11.25 9.16962 11.25 8.75541L11.25 3C11.25 2.58579 11.5858 2.25 12 2.25Z" fill="black"/>
<path fill-rule="evenodd" clip-rule="evenodd" d="M15.163 3.95268C15.3576 4.31836 15.2189 4.77252 14.8532 4.96708L12.3522 6.29773C12.132 6.41491 11.8679 6.41491 11.6476 6.29773L9.14665 4.96708C8.78097 4.77252 8.64225 4.31836 8.83681 3.95268C9.03137 3.587 9.48553 3.44828 9.85121 3.64284L11.9999 4.78607L14.1486 3.64284C14.5143 3.44828 14.9685 3.587 15.163 3.95268Z" fill="black"/>
<path fill-rule="evenodd" clip-rule="evenodd" d="M12 21.75C12.4142 21.75 12.75 21.4142 12.75 21L12.75 15.2146C12.75 14.8004 12.4142 14.4646 12 14.4646C11.5858 14.4646 11.25 14.8004 11.25 15.2146L11.25 21C11.25 21.4142 11.5858 21.75 12 21.75Z" fill="black"/>
<path fill-rule="evenodd" clip-rule="evenodd" d="M15.163 20.0474C15.3576 19.6818 15.2189 19.2276 14.8532 19.033L12.3522 17.7024C12.132 17.5852 11.8679 17.5852 11.6476 17.7024L9.14665 19.033C8.78097 19.2276 8.64225 19.6818 8.83681 20.0474C9.03137 20.4131 9.48553 20.5518 9.85121 20.3573L11.9999 19.2141L14.1486 20.3573C14.5143 20.5518 14.9685 20.4131 15.163 20.0474Z" fill="black"/>
<path fill-rule="evenodd" clip-rule="evenodd" d="M20.4427 7.12366C20.6504 7.482 20.5284 7.94092 20.17 8.14869L15.1682 11.0488C14.8099 11.2566 14.3509 11.1345 14.1432 10.7762C13.9354 10.4179 14.0575 9.95895 14.4158 9.75118L19.4176 6.85104C19.776 6.64327 20.2349 6.76533 20.4427 7.12366Z" fill="black"/>
<path fill-rule="evenodd" clip-rule="evenodd" d="M20.5513 10.7155C20.3319 11.0668 19.8692 11.1738 19.5179 10.9544L17.115 9.45379C16.9034 9.32165 16.7714 9.09294 16.7627 8.84362L16.6646 6.01237C16.6503 5.5984 16.9742 5.25119 17.3882 5.23684C17.8021 5.2225 18.1494 5.54645 18.1637 5.96042L18.248 8.39287L20.3124 9.6821C20.6637 9.90151 20.7707 10.3642 20.5513 10.7155Z" fill="black"/>
<path fill-rule="evenodd" clip-rule="evenodd" d="M3.55608 16.874C3.76265 17.233 4.22116 17.3566 4.58019 17.1501L9.59272 14.2661C9.95175 14.0595 10.0753 13.601 9.86877 13.242C9.6622 12.8829 9.20369 12.7593 8.84466 12.9659L3.83213 15.8499C3.4731 16.0565 3.34951 16.515 3.55608 16.874Z" fill="black"/>
<path fill-rule="evenodd" clip-rule="evenodd" d="M6.612 18.763C7.02596 18.7486 7.34992 18.4014 7.33557 17.9874L7.23746 15.1562C7.22882 14.9069 7.09677 14.6782 6.88518 14.546L4.4823 13.0454C4.13096 12.826 3.66829 12.933 3.44888 13.2843C3.22948 13.6356 3.33642 14.0983 3.68775 14.3177L5.75218 15.6069L5.83647 18.0394C5.85082 18.4533 6.19803 18.7773 6.612 18.763Z" fill="black"/>
<path fill-rule="evenodd" clip-rule="evenodd" d="M20.4431 16.8753C20.6505 16.5167 20.5278 16.0579 20.1692 15.8506L15.1676 12.9589C14.809 12.7516 14.3502 12.8743 14.1429 13.2329C13.9356 13.5914 14.0582 14.0502 14.4168 14.2575L19.4185 17.1492C19.7771 17.3565 20.2358 17.2339 20.4431 16.8753Z" fill="black"/>
<path fill-rule="evenodd" clip-rule="evenodd" d="M20.5513 13.2844C20.3319 12.933 19.8692 12.8261 19.5179 13.0455L17.115 14.5461C16.9034 14.6782 16.7714 14.9069 16.7627 15.1563L16.6646 17.9875C16.6503 18.4015 16.9742 18.7487 17.3882 18.763C17.8021 18.7774 18.1494 18.4534 18.1637 18.0395L18.248 15.607L20.3124 14.3178C20.6637 14.0984 20.7707 13.6357 20.5513 13.2844Z" fill="black"/>
<path fill-rule="evenodd" clip-rule="evenodd" d="M3.55536 7.12713C3.76123 6.7677 4.2195 6.64322 4.57893 6.84909L9.61347 9.73278C9.9729 9.93866 10.0974 10.3969 9.89151 10.7564C9.68563 11.1158 9.22736 11.2403 8.86793 11.0344L3.83339 8.1507C3.47396 7.94482 3.34948 7.48656 3.55536 7.12713Z" fill="black"/>
<path fill-rule="evenodd" clip-rule="evenodd" d="M6.612 5.23692C7.02596 5.25126 7.34992 5.59848 7.33557 6.01244L7.23746 8.8437C7.22882 9.09302 7.09677 9.32172 6.88518 9.45387L4.4823 10.9545C4.13096 11.1739 3.66829 11.0669 3.44888 10.7156C3.22948 10.3643 3.33642 9.90159 3.68775 9.68218L5.75218 8.39295L5.83647 5.96049C5.85082 5.54653 6.19803 5.22257 6.612 5.23692Z" fill="black"/>
<path fill-rule="evenodd" clip-rule="evenodd" d="M11.6245 8.13161C11.8566 7.99763 12.1425 7.99763 12.3745 8.13161L15.1622 9.74104C15.3942 9.87502 15.5372 10.1226 15.5372 10.3906V13.6094C15.5372 13.8774 15.3942 14.125 15.1622 14.259L12.3745 15.8684C12.1425 16.0024 11.8566 16.0024 11.6245 15.8684L8.83691 14.259C8.60486 14.125 8.46191 13.8774 8.46191 13.6094V10.3906C8.46191 10.1226 8.60486 9.87502 8.83691 9.74104L11.6245 8.13161ZM9.96191 10.8236V13.1764L11.9995 14.3528L14.0372 13.1764V10.8236L11.9995 9.64715L9.96191 10.8236Z" fill="black"/>
</svg>
