<svg width="24" height="24" viewBox="0 0 24 24" fill="none" xmlns="http://www.w3.org/2000/svg">
<path fill-rule="evenodd" clip-rule="evenodd" d="M9.35639 3.67133C9.64928 3.37844 10.1242 3.37844 10.417 3.67133L12.0214 5.2757L13.6054 3.69176C13.8983 3.39887 14.3731 3.39887 14.666 3.69176C14.9589 3.98466 14.9589 4.45953 14.666 4.75242L12.5518 6.86669C12.2589 7.15959 11.784 7.15959 11.4911 6.86669L9.35639 4.73199C9.0635 4.4391 9.0635 3.96422 9.35639 3.67133Z" fill="black"/>
<path fill-rule="evenodd" clip-rule="evenodd" d="M11.4911 17.1336C11.784 16.8407 12.2589 16.8407 12.5518 17.1336L14.666 19.2479C14.9589 19.5408 14.9589 20.0156 14.666 20.3085C14.3731 20.6014 13.8983 20.6014 13.6054 20.3085L12.0214 18.7246L10.417 20.329C10.1242 20.6219 9.64928 20.6219 9.35639 20.329C9.0635 20.0361 9.0635 19.5612 9.35639 19.2683L11.4911 17.1336Z" fill="black"/>
<path fill-rule="evenodd" clip-rule="evenodd" d="M12.01 2.25C12.4242 2.25 12.76 2.58579 12.76 3V21C12.76 21.4142 12.4242 21.75 12.01 21.75C11.5958 21.75 11.26 21.4142 11.26 21V3C11.26 2.58579 11.5958 2.25 12.01 2.25Z" fill="black"/>
<path fill-rule="evenodd" clip-rule="evenodd" d="M20.3389 9.34516C20.6318 9.63805 20.6318 10.1129 20.3389 10.4058L18.7346 12.0102L20.3185 13.5941C20.6114 13.887 20.6114 14.3619 20.3185 14.6548C20.0256 14.9477 19.5507 14.9477 19.2578 14.6548L17.1436 12.5405C16.8507 12.2476 16.8507 11.7728 17.1436 11.4799L19.2783 9.34516C19.5712 9.05226 20.046 9.05226 20.3389 9.34516Z" fill="black"/>
<path fill-rule="evenodd" clip-rule="evenodd" d="M6.87701 11.4799C7.1699 11.7728 7.1699 12.2476 6.87701 12.5405L4.76274 14.6548C4.46985 14.9477 3.99497 14.9477 3.70208 14.6548C3.40919 14.3619 3.40919 13.887 3.70208 13.5941L5.28602 12.0102L3.68165 10.4058C3.38875 10.1129 3.38875 9.63805 3.68165 9.34516C3.97454 9.05226 4.44941 9.05226 4.74231 9.34516L6.87701 11.4799Z" fill="black"/>
<path fill-rule="evenodd" clip-rule="evenodd" d="M21.7607 11.9987C21.7607 12.4129 21.425 12.7487 21.0107 12.7487L3.01074 12.7487C2.59653 12.7487 2.26074 12.4129 2.26074 11.9987C2.26074 11.5844 2.59653 11.2487 3.01074 11.2487L21.0107 11.2487C21.425 11.2487 21.7607 11.5844 21.7607 11.9987Z" fill="black"/>
<path fill-rule="evenodd" clip-rule="evenodd" d="M16.6299 7.37946C16.9228 7.67235 16.9228 8.14723 16.6299 8.44012L8.45123 16.6188C8.15834 16.9117 7.68346 16.9117 7.39057 16.6188C7.09768 16.3259 7.09768 15.851 7.39057 15.5581L15.5692 7.37946C15.8621 7.08657 16.337 7.08657 16.6299 7.37946Z" fill="black"/>
<path fill-rule="evenodd" clip-rule="evenodd" d="M7.39179 7.37946C7.68468 7.08657 8.15956 7.08657 8.45245 7.37946L16.6311 15.5581C16.924 15.851 16.924 16.3259 16.6311 16.6188C16.3382 16.9117 15.8633 16.9117 15.5705 16.6188L7.39179 8.44012C7.0989 8.14723 7.0989 7.67235 7.39179 7.37946Z" fill="black"/>
</svg>
