<svg width="24" height="24" viewBox="0 0 24 24" fill="none" xmlns="http://www.w3.org/2000/svg">
<path d="M18.2094 11.0803C16.9194 11.0803 15.7094 10.3702 15.1794 9.17023C13.9894 6.49023 15.3694 2.89029 15.4294 2.73029C15.4994 2.54029 15.6494 2.39024 15.8294 2.31024C16.0094 2.23024 16.2194 2.23024 16.4094 2.31024C16.5594 2.37024 20.1794 3.8502 21.3594 6.52021C21.6994 7.29021 21.7194 8.15025 21.3994 8.94025C21.0694 9.78025 20.4194 10.4402 19.5694 10.8002C19.1294 10.9902 18.6594 11.0803 18.2094 11.0803ZM16.5794 4.05023C16.2794 5.12023 15.8994 7.10024 16.5494 8.56024C16.9394 9.44024 18.0294 9.82023 18.9794 9.42023C19.4594 9.21023 19.8194 8.8502 20.0094 8.3902C20.1694 7.9802 20.1694 7.53019 19.9894 7.13019C19.3294 5.66019 17.5894 4.58023 16.5794 4.05023Z" fill="black"/>
<path d="M17.0792 21.7499C15.8292 21.7499 14.6492 21.06 14.1292 19.9C12.9792 17.3 14.3092 13.81 14.3692 13.66C14.4392 13.47 14.5892 13.3199 14.7692 13.2399C14.9492 13.1599 15.1593 13.1599 15.3493 13.2399C15.4993 13.2999 18.9992 14.73 20.1392 17.32C20.4692 18.07 20.4892 18.9 20.1892 19.66C19.8692 20.48 19.2292 21.12 18.3992 21.48C17.9692 21.66 17.5192 21.7499 17.0792 21.7499ZM15.4992 19.29C15.8692 20.12 16.9092 20.49 17.8092 20.1C18.2692 19.9 18.6093 19.55 18.7893 19.11C18.9393 18.72 18.9392 18.3 18.7692 17.92C18.1492 16.51 16.4892 15.48 15.5192 14.97C15.2392 16.01 14.8792 17.89 15.4992 19.28V19.29Z" fill="black"/>
<path d="M7.34946 9.52011C7.15946 9.52011 6.96946 9.45014 6.81946 9.30014L5.71945 8.20017C5.42945 7.91017 5.42945 7.43011 5.71945 7.14011C6.00945 6.85011 6.48945 6.85011 6.77945 7.14011L7.34946 7.71018L7.89945 7.16013C8.18945 6.87013 8.66944 6.87013 8.95944 7.16013C9.24944 7.45013 9.24944 7.93019 8.95944 8.22019L7.86945 9.30014C7.71945 9.45014 7.52945 9.52011 7.33945 9.52011H7.34946Z" fill="black"/>
<path d="M6.25922 16.93C6.06922 16.93 5.86922 16.8601 5.72922 16.7101C5.43922 16.4201 5.43922 15.94 5.72922 15.65L6.82922 14.56C7.11922 14.27 7.59922 14.27 7.88922 14.56L8.97922 15.64C9.26922 15.93 9.26922 16.41 8.97922 16.7C8.68922 16.99 8.20922 16.99 7.91922 16.7L7.35922 16.15L6.78925 16.7101C6.63925 16.8601 6.44922 16.93 6.25922 16.93Z" fill="black"/>
<path d="M7.34961 15.8298C6.93961 15.8298 6.59961 15.4898 6.59961 15.0798V8.76978C6.59961 8.35978 6.93961 8.01978 7.34961 8.01978C7.75961 8.01978 8.09961 8.35978 8.09961 8.76978V15.0798C8.09961 15.4898 7.75961 15.8298 7.34961 15.8298Z" fill="black"/>
<path d="M11.5694 11.5C11.5094 11.5 11.4394 11.5001 11.3694 11.4701L9.8894 11.0701C9.6994 11.0201 9.5294 10.8901 9.4294 10.7201C9.3294 10.5501 9.2994 10.34 9.3594 10.15L9.75939 8.66002C9.86939 8.26002 10.2794 8.01999 10.6794 8.12999C11.0794 8.23999 11.3194 8.65003 11.2094 9.05003L10.9994 9.82005L11.7594 10.03C12.1594 10.14 12.3994 10.5501 12.2894 10.9501C12.1994 11.2801 11.8994 11.5 11.5694 11.5Z" fill="black"/>
<path d="M4.21928 15.7497C4.15928 15.7497 4.08928 15.7498 4.02928 15.7198C3.62928 15.6098 3.38928 15.1998 3.49928 14.7998L3.69926 14.0298L2.92927 13.8198C2.52927 13.7098 2.28928 13.2998 2.39928 12.8998C2.50928 12.4998 2.91929 12.2597 3.31929 12.3697L4.81929 12.7698C5.21929 12.8798 5.45929 13.2898 5.34929 13.6898L4.94926 15.1798C4.85926 15.5098 4.55926 15.7397 4.22926 15.7397L4.21928 15.7497Z" fill="black"/>
<path d="M4.6193 14.2599C4.3593 14.2599 4.10931 14.1299 3.96931 13.8799C3.75931 13.5199 3.88929 13.06 4.23929 12.86L9.7093 9.70001C10.0693 9.49001 10.5293 9.62003 10.7293 9.97003C10.9393 10.33 10.8093 10.7899 10.4593 10.9899L4.98929 14.15C4.86929 14.22 4.73929 14.2499 4.60929 14.2499L4.6193 14.2599Z" fill="black"/>
<path d="M10.4895 15.7503C10.1595 15.7503 9.85948 15.5304 9.76948 15.1904L9.36949 13.6904C9.25949 13.2904 9.49949 12.8803 9.89949 12.7703L11.3795 12.3703C11.7795 12.2503 12.1895 12.5003 12.2995 12.9003C12.4095 13.3003 12.1695 13.7104 11.7695 13.8204L11.0095 14.0303L11.2195 14.8104C11.3295 15.2104 11.0895 15.6204 10.6895 15.7304C10.6295 15.7504 10.5595 15.7603 10.4995 15.7603L10.4895 15.7503Z" fill="black"/>
<path d="M3.11928 11.49C2.78928 11.49 2.48928 11.27 2.39928 10.93C2.28928 10.53 2.52927 10.12 2.92927 10.01L3.69926 9.80003L3.49928 9.05003C3.38928 8.65003 3.62928 8.23999 4.02928 8.12999C4.42928 8.01999 4.83926 8.26002 4.94926 8.66002L5.34929 10.14C5.39929 10.33 5.36927 10.5401 5.26927 10.7101C5.16927 10.8801 5.00928 11.01 4.80928 11.06L3.30928 11.4601C3.24928 11.4801 3.17928 11.49 3.11928 11.49Z" fill="black"/>
<path d="M10.0796 14.25C9.94962 14.25 9.81963 14.2201 9.70963 14.1501L4.23963 11C3.87963 10.79 3.75963 10.3301 3.95963 9.98013C4.16963 9.62013 4.62962 9.5001 4.97962 9.7001L10.4496 12.8501C10.8096 13.0601 10.9296 13.52 10.7296 13.87C10.5896 14.11 10.3396 14.25 10.0796 14.25Z" fill="black"/>
</svg>
