<svg width="24" height="24" viewBox="0 0 24 24" fill="none" xmlns="http://www.w3.org/2000/svg">
<path fill-rule="evenodd" clip-rule="evenodd" d="M11.127 11.9217C11.5162 11.78 11.9466 11.9807 12.0882 12.3699L13.1679 15.3362L15.1968 12.9182C15.463 12.6009 15.9361 12.5595 16.2534 12.8257C16.5707 13.092 16.6121 13.5651 16.3458 13.8824L14.317 16.3003L17.4253 16.8483C17.8332 16.9203 18.1056 17.3092 18.0336 17.7172C17.9617 18.1251 17.5727 18.3975 17.1648 18.3255L14.0564 17.7774L15.136 20.7435C15.2777 21.1327 15.077 21.5631 14.6877 21.7048C14.2985 21.8465 13.8681 21.6458 13.7264 21.2565L12.6469 18.2906L10.618 20.7086C10.3517 21.0259 9.87865 21.0673 9.56134 20.801C9.24403 20.5348 9.20265 20.0617 9.4689 19.7444L11.4979 17.3263L8.38918 16.7782C7.98126 16.7062 7.70888 16.3172 7.78081 15.9093C7.85273 15.5014 8.24173 15.229 8.64965 15.3009L11.7583 15.8491L10.6787 12.8829C10.537 12.4937 10.7377 12.0633 11.127 11.9217Z" fill="black"/>
<path fill-rule="evenodd" clip-rule="evenodd" d="M15.1956 2.29519C15.5848 2.15352 16.0152 2.35421 16.1569 2.74344L17.0374 5.16278L18.6922 3.19069C18.9585 2.87338 19.4315 2.832 19.7489 3.09825C20.0662 3.3645 20.1075 3.83756 19.8413 4.15487L18.1865 6.12699L20.7218 6.57405C21.1298 6.64597 21.4021 7.03497 21.3302 7.44289C21.2583 7.85081 20.8693 8.12318 20.4614 8.05126L17.9261 7.60421L18.8066 10.0235C18.9483 10.4127 18.7476 10.8431 18.3584 10.9848C17.9691 11.1265 17.5387 10.9258 17.3971 10.5365L16.5165 8.1172L14.8614 10.0896C14.5952 10.4069 14.1221 10.4483 13.8048 10.1821C13.4875 9.91581 13.4461 9.44275 13.7124 9.12544L15.3674 7.15305L12.8318 6.70596C12.4239 6.63403 12.1515 6.24504 12.2234 5.83712C12.2954 5.4292 12.6844 5.15682 13.0923 5.22875L15.6279 5.67585L14.7473 3.25648C14.6057 2.86724 14.8064 2.43686 15.1956 2.29519Z" fill="black"/>
<path fill-rule="evenodd" clip-rule="evenodd" d="M5.03125 5.64138C5.42048 5.49971 5.85086 5.7004 5.99253 6.08964L6.54827 7.6165L7.59259 6.37192C7.85885 6.05461 8.33191 6.01322 8.64922 6.27947C8.96652 6.54572 9.00791 7.01879 8.74166 7.3361L7.69725 8.58077L9.29744 8.86293C9.70536 8.93486 9.97774 9.32385 9.90581 9.73177C9.83388 10.1397 9.44489 10.4121 9.03697 10.3401L7.4369 10.058L7.99265 11.5849C8.13432 11.9742 7.93363 12.4045 7.5444 12.5462C7.15517 12.6879 6.72479 12.4872 6.58312 12.098L6.02732 10.5709L4.98266 11.8159C4.71641 12.1332 4.24334 12.1746 3.92604 11.9083C3.60873 11.6421 3.56734 11.169 3.83359 10.8517L4.87818 9.60683L3.27785 9.32465C2.86993 9.25272 2.59755 8.86373 2.66948 8.45581C2.74141 8.04789 3.1304 7.77551 3.53832 7.84744L5.13877 8.12964L4.583 6.60267C4.44133 6.21343 4.64202 5.78305 5.03125 5.64138Z" fill="black"/>
</svg>
