<svg width="24" height="24" viewBox="0 0 24 24" fill="none" xmlns="http://www.w3.org/2000/svg">
<path fill-rule="evenodd" clip-rule="evenodd" d="M8.33065 2.29829C8.71817 2.152 9.15091 2.34755 9.29721 2.73507L9.30755 2.76246C9.45384 3.14998 9.25829 3.58272 8.87077 3.72901C8.48325 3.87531 8.05051 3.67975 7.90422 3.29224L7.89388 3.26485C7.74758 2.87733 7.94313 2.44459 8.33065 2.29829ZM16.2475 2.53952C16.6249 2.71009 16.7927 3.15436 16.6221 3.53182L16.608 3.56295C16.4375 3.94041 15.9932 4.10813 15.6157 3.93756C15.2383 3.76699 15.0705 3.32272 15.2411 2.94526L15.2552 2.91413C15.4257 2.53667 15.87 2.36895 16.2475 2.53952ZM2.51851 7.71261C2.68909 7.33515 3.13336 7.16744 3.51082 7.33801L3.55892 7.35975C3.93638 7.53032 4.1041 7.97459 3.93352 8.35205C3.76295 8.72952 3.31868 8.89723 2.94122 8.72666L2.89312 8.70492C2.51565 8.53435 2.34794 8.09008 2.51851 7.71261ZM21.6975 8.30785C21.8438 8.69536 21.6482 9.12811 21.2607 9.2744L21.1964 9.2987C20.8088 9.44499 20.3761 9.24944 20.2298 8.86193C20.0835 8.47441 20.279 8.04167 20.6666 7.89537L20.7309 7.87107C21.1184 7.72478 21.5512 7.92033 21.6975 8.30785ZM3.73195 15.1007C3.87823 15.4882 3.68268 15.921 3.29516 16.0673L3.26777 16.0776C2.88025 16.2239 2.44751 16.0283 2.30122 15.6408C2.15493 15.2533 2.35049 14.8205 2.73801 14.6743L2.7654 14.6639C3.15292 14.5176 3.58566 14.7132 3.73195 15.1007ZM20.0157 15.6195C20.1863 15.2421 20.6306 15.0744 21.008 15.2449L21.0495 15.2637C21.427 15.4343 21.5947 15.8785 21.4241 16.256C21.2536 16.6335 20.8093 16.8012 20.4318 16.6306L20.3903 16.6119C20.0129 16.4413 19.8452 15.997 20.0157 15.6195ZM8.34579 20.0252C8.72325 20.1957 8.89097 20.64 8.72039 21.0175L8.70632 21.0486C8.53575 21.4261 8.09148 21.5938 7.71401 21.4232C7.33655 21.2526 7.16884 20.8083 7.33942 20.4309L7.35348 20.3997C7.52406 20.0223 7.96833 19.8546 8.34579 20.0252ZM15.0908 20.2339C15.4783 20.0876 15.9111 20.2832 16.0574 20.6707L16.0817 20.7351C16.228 21.1226 16.0324 21.5553 15.6449 21.7016C15.2574 21.8479 14.8246 21.6524 14.6783 21.2648L14.654 21.2005C14.5078 20.813 14.7033 20.3802 15.0908 20.2339Z" fill="black"/>
<path fill-rule="evenodd" clip-rule="evenodd" d="M12.0006 6.25C8.82458 6.25 6.25 8.82478 6.25 11.9994C6.25 15.1753 8.82468 17.75 12.0006 17.75C15.1764 17.75 17.75 15.1755 17.75 11.9994C17.75 8.82458 15.1765 6.25 12.0006 6.25ZM4.75 11.9994C4.75 7.99616 7.99635 4.75 12.0006 4.75C16.0051 4.75 19.25 7.99635 19.25 11.9994C19.25 16.0036 16.0052 19.25 12.0006 19.25C7.99625 19.25 4.75 16.0037 4.75 11.9994Z" fill="black"/>
<path fill-rule="evenodd" clip-rule="evenodd" d="M12.0003 9.5C10.6194 9.5 9.5 10.6195 9.5 11.9997C9.5 12.4139 9.16421 12.7497 8.75 12.7497C8.33579 12.7497 8 12.4139 8 11.9997C8 9.79092 9.79112 8 12.0003 8C12.4145 8 12.7503 8.33579 12.7503 8.75C12.7503 9.16421 12.4145 9.5 12.0003 9.5Z" fill="black"/>
</svg>
