<svg width="24" height="24" viewBox="0 0 24 24" fill="none" xmlns="http://www.w3.org/2000/svg">
<path d="M12.0095 21.72C11.5995 21.72 11.2595 21.4 11.2595 20.99V20.96C11.2595 20.55 11.5995 20.21 12.0095 20.21C12.4195 20.21 12.7595 20.55 12.7595 20.96C12.7595 21.37 12.4195 21.73 12.0095 21.73V21.72ZM20.9995 12.75H20.9595C20.5495 12.75 20.2095 12.41 20.2095 12C20.2095 11.59 20.5495 11.25 20.9595 11.25C21.3695 11.25 21.7295 11.59 21.7295 12C21.7295 12.41 21.4195 12.75 20.9995 12.75ZM3.04951 12.75H2.99951C2.58951 12.75 2.24951 12.41 2.24951 12C2.24951 11.59 2.58951 11.25 2.99951 11.25C3.40951 11.25 3.76951 11.59 3.76951 12C3.76951 12.41 3.45951 12.75 3.03951 12.75H3.04951ZM5.67951 6.41C5.48951 6.41 5.28951 6.33002 5.13951 6.18002C4.84951 5.88002 4.84951 5.40002 5.13951 5.11002C5.43951 4.82002 5.89951 4.82002 6.18951 5.11002L6.20951 5.13C6.49951 5.43 6.48951 5.9 6.19951 6.19C6.04951 6.33 5.86951 6.39999 5.67951 6.39999V6.41ZM18.3395 6.38C18.1495 6.38 17.9595 6.31001 17.8195 6.17001C17.5295 5.88001 17.5095 5.42 17.7995 5.13L17.8495 5.09C18.1395 4.8 18.6195 4.8 18.9095 5.09C19.1995 5.38 19.1995 5.85999 18.9095 6.14999C18.7595 6.29999 18.5495 6.38 18.3495 6.38H18.3395ZM11.9995 3.79001C11.5895 3.79001 11.2495 3.45001 11.2495 3.04001C11.2495 2.63001 11.5895 2.27002 11.9995 2.27002C12.4095 2.27002 12.7495 2.59 12.7495 3V3.03C12.7495 3.44 12.4095 3.78 11.9995 3.78V3.79001Z" fill="black"/>
<path d="M11.9998 17.6601C10.7398 17.6601 9.51978 17.2401 8.50978 16.4501C7.31978 15.5101 6.55978 14.1701 6.37978 12.6701C6.19978 11.1701 6.60978 9.68012 7.54978 8.49012C8.48978 7.30012 9.82978 6.54011 11.3398 6.36011C14.4498 5.99011 17.2798 8.2101 17.6498 11.3101C17.6998 11.7201 17.4098 12.0901 16.9998 12.1401C16.5998 12.1801 16.2098 11.9001 16.1698 11.4901C15.8898 9.21012 13.8098 7.5701 11.5298 7.8501C10.4198 7.9801 9.42978 8.54011 8.74978 9.42011C8.05978 10.3001 7.75978 11.3901 7.88978 12.5001C8.01978 13.6101 8.57978 14.6001 9.45978 15.2801C10.3398 15.9601 11.4298 16.2701 12.5398 16.1401C12.9398 16.0901 13.3198 16.3801 13.3698 16.7901C13.4198 17.2001 13.1298 17.5701 12.7198 17.6201C12.4898 17.6501 12.2598 17.6601 12.0298 17.6601H11.9998Z" fill="black"/>
<path d="M18.7199 21.2101C18.7199 21.2101 18.6699 21.2101 18.6499 21.2101C17.8499 21.2101 17.0199 20.8601 16.4399 20.2801C15.9099 19.7401 15.6199 19.0501 15.6299 18.3301C15.5899 15.8701 18.0799 13.5501 18.1799 13.4601C18.4699 13.2001 18.9099 13.2001 19.1999 13.4601C19.3099 13.5601 21.7899 15.8801 21.7499 18.3601C21.7599 19.0601 21.4799 19.7501 20.9399 20.2901C20.3599 20.8801 19.5299 21.2201 18.7099 21.2201L18.7199 21.2101ZM18.6799 19.7101C19.1099 19.7001 19.5799 19.5301 19.8799 19.2201C20.0499 19.0501 20.2599 18.7501 20.2499 18.3501C20.2699 17.1701 19.3699 15.8601 18.6899 15.0801C18.0099 15.8601 17.1099 17.1601 17.1299 18.3201C17.1299 18.7501 17.3299 19.0401 17.4999 19.2201C17.8099 19.5301 18.2299 19.7001 18.6799 19.7101Z" fill="black"/>
<path d="M5.50984 21.4904C5.50984 21.4904 5.46984 21.4904 5.44984 21.4904C4.79984 21.4904 4.10984 21.2004 3.62984 20.7204C3.18984 20.2704 2.94984 19.7004 2.95984 19.1004C2.92984 17.1804 4.75984 15.4304 4.96984 15.2404C5.25984 14.9804 5.69984 14.9804 5.98984 15.2404C6.19984 15.4304 8.02984 17.1804 7.99984 19.1204C8.00984 19.6904 7.76984 20.2704 7.32984 20.7204C6.84984 21.2004 6.16984 21.4904 5.49984 21.4904H5.50984ZM5.48984 16.8904C5.00984 17.4704 4.45984 18.3304 4.46984 19.1004C4.46984 19.3704 4.58984 19.5604 4.69984 19.6604C4.89984 19.8604 5.23984 20.0004 5.47984 19.9904C5.72984 19.9904 6.07984 19.8704 6.27984 19.6604C6.38984 19.5504 6.51984 19.3704 6.50984 19.1204C6.51984 18.3404 5.96984 17.4704 5.48984 16.8804V16.8904Z" fill="black"/>
</svg>
