<svg width="24" height="24" viewBox="0 0 24 24" fill="none" xmlns="http://www.w3.org/2000/svg">
<path fill-rule="evenodd" clip-rule="evenodd" d="M3.7402 3.89737C4.72468 2.84117 6.12669 2.25 7.78216 2.25H16.2169C17.8762 2.25 19.2788 2.84084 20.2629 3.89765C21.2413 4.94841 21.75 6.39889 21.75 8.02638V15.9736C21.75 17.6011 21.2413 19.0516 20.2627 20.1024C19.2785 21.1592 17.8756 21.75 16.2159 21.75H7.78216C6.1228 21.75 4.72038 21.1591 3.73657 20.1023C2.75842 19.0515 2.25 17.601 2.25 15.9736V8.02638C2.25 6.39806 2.76117 4.94771 3.7402 3.89737ZM4.83745 4.92012C4.16024 5.64666 3.75 6.70951 3.75 8.02638V15.9736C3.75 17.2914 4.15861 18.3541 4.83451 19.0802C5.50475 19.8003 6.49341 20.25 7.78216 20.25H16.2159C17.5052 20.25 18.4944 19.8002 19.165 19.0801C19.8412 18.354 20.25 17.2913 20.25 15.9736V8.02638C20.25 6.70868 19.8412 5.64597 19.1651 4.91984C18.4946 4.19975 17.5056 3.75 16.2169 3.75H7.78216C6.49828 3.75 5.50921 4.19943 4.83745 4.92012Z" fill="black"/>
<path fill-rule="evenodd" clip-rule="evenodd" d="M11.9689 9.95312C10.8381 9.95312 9.92188 10.8698 9.92188 12.0001C9.92188 13.1312 10.8382 14.0478 11.9689 14.0478C13.0995 14.0478 14.0159 13.1312 14.0159 12.0001C14.0159 10.8698 13.0996 9.95312 11.9689 9.95312ZM8.42188 12.0001C8.42188 10.0416 10.0095 8.45312 11.9689 8.45312C13.9283 8.45312 15.5159 10.0416 15.5159 12.0001C15.5159 13.9592 13.9284 15.5478 11.9689 15.5478C10.0093 15.5478 8.42188 13.9592 8.42188 12.0001Z" fill="black"/>
<path fill-rule="evenodd" clip-rule="evenodd" d="M11.9687 5.75C12.3829 5.75 12.7187 6.08579 12.7187 6.5V6.51078C12.7187 6.92499 12.3829 7.26078 11.9687 7.26078C11.5545 7.26078 11.2187 6.92499 11.2187 6.51078V6.5C11.2187 6.08579 11.5545 5.75 11.9687 5.75ZM16.388 7.58058C16.6809 7.87348 16.6808 8.34836 16.3879 8.64124L16.3803 8.64886C16.0874 8.94175 15.6125 8.94173 15.3197 8.64883C15.0268 8.35592 15.0268 7.88105 15.3197 7.58817L15.3273 7.58054C15.6202 7.28766 16.0951 7.28768 16.388 7.58058ZM7.54912 7.58061C7.84201 7.28771 8.31688 7.28771 8.60978 7.5806L8.6174 7.58822C8.9103 7.88111 8.9103 8.35598 8.61741 8.64888C8.32452 8.94177 7.84965 8.94178 7.55675 8.64889L7.54913 8.64127C7.25623 8.34838 7.25623 7.8735 7.54912 7.58061ZM16.708 12C16.708 11.5858 17.0438 11.25 17.458 11.25H17.4688C17.883 11.25 18.2188 11.5858 18.2188 12C18.2188 12.4142 17.883 12.75 17.4688 12.75H17.458C17.0438 12.75 16.708 12.4142 16.708 12ZM5.71875 12C5.71875 11.5858 6.05454 11.25 6.46875 11.25H6.47953C6.89374 11.25 7.22953 11.5858 7.22953 12C7.22953 12.4142 6.89374 12.75 6.47953 12.75H6.46875C6.05454 12.75 5.71875 12.4142 5.71875 12ZM15.3197 15.3512C15.6126 15.0582 16.0874 15.0582 16.3803 15.3511L16.388 15.3587C16.6809 15.6516 16.6809 16.1264 16.388 16.4194C16.0952 16.7123 15.6203 16.7123 15.3274 16.4194L15.3198 16.4118C15.0268 16.1189 15.0268 15.6441 15.3197 15.3512ZM8.61747 15.3512C8.91035 15.6441 8.91033 16.119 8.61742 16.4118L8.6098 16.4195C8.3169 16.7123 7.84202 16.7123 7.54914 16.4194C7.25626 16.1265 7.25628 15.6516 7.54919 15.3588L7.55681 15.3511C7.84971 15.0583 8.32459 15.0583 8.61747 15.3512ZM11.9688 16.7392C12.383 16.7392 12.7188 17.075 12.7188 17.4892V17.5C12.7188 17.9142 12.383 18.25 11.9688 18.25C11.5546 18.25 11.2188 17.9142 11.2188 17.5V17.4892C11.2188 17.075 11.5546 16.7392 11.9688 16.7392Z" fill="black"/>
</svg>
