<svg width="24" height="24" viewBox="0 0 24 24" fill="none" xmlns="http://www.w3.org/2000/svg">
<path fill-rule="evenodd" clip-rule="evenodd" d="M12.1003 2.79419C12.5145 2.79419 12.8503 3.12998 12.8503 3.54419V4.90082C12.8503 5.31503 12.5145 5.65082 12.1003 5.65082C11.6861 5.65082 11.3503 5.31503 11.3503 4.90082V3.54419C11.3503 3.12998 11.6861 2.79419 12.1003 2.79419ZM18.9236 5.62034C19.2165 5.91323 19.2165 6.38811 18.9236 6.681L17.9643 7.64026C17.6714 7.93316 17.1966 7.93316 16.9037 7.64026C16.6108 7.34737 16.6108 6.8725 16.9037 6.5796L17.8629 5.62034C18.1558 5.32745 18.6307 5.32745 18.9236 5.62034ZM5.27706 5.62081C5.56995 5.32792 6.04483 5.32792 6.33772 5.62081L7.29699 6.58007C7.58988 6.87297 7.58988 7.34784 7.29699 7.64074C7.00409 7.93363 6.52922 7.93363 6.23632 7.64074L5.27706 6.68147C4.98417 6.38858 4.98417 5.9137 5.27706 5.62081ZM2.45044 12.4441C2.45044 12.0299 2.78623 11.6941 3.20044 11.6941H4.55707C4.97128 11.6941 5.30707 12.0299 5.30707 12.4441C5.30707 12.8583 4.97128 13.1941 4.55707 13.1941H3.20044C2.78623 13.1941 2.45044 12.8583 2.45044 12.4441ZM18.8934 12.4441C18.8934 12.0299 19.2292 11.6941 19.6434 11.6941H21.0001C21.4143 11.6941 21.7501 12.0299 21.7501 12.4441C21.7501 12.8583 21.4143 13.1941 21.0001 13.1941H19.6434C19.2292 13.1941 18.8934 12.8583 18.8934 12.4441Z" fill="black"/>
<path fill-rule="evenodd" clip-rule="evenodd" d="M12.0998 9.04541C10.2223 9.04541 8.70099 10.5674 8.70099 12.4442L8.70084 12.4595C8.69928 12.5358 8.70012 12.6707 8.70821 12.8083C8.71718 12.961 8.73199 13.0567 8.74037 13.0868C8.85171 13.4857 8.61854 13.8994 8.21957 14.0108C7.8206 14.1221 7.40691 13.8889 7.29557 13.49C7.24117 13.295 7.22057 13.0625 7.21079 12.8963C7.20038 12.7191 7.19894 12.5483 7.201 12.4366C7.20509 9.73513 9.39614 7.54541 12.0998 7.54541C14.806 7.54541 16.9986 9.73922 16.9986 12.4442C16.9986 12.8584 16.6628 13.1942 16.2486 13.1942C15.8344 13.1942 15.4986 12.8584 15.4986 12.4442C15.4986 10.5674 13.9773 9.04541 12.0998 9.04541Z" fill="black"/>
<path fill-rule="evenodd" clip-rule="evenodd" d="M7.92714 20.7466C7.51002 20.8901 7.03612 21.0077 6.42945 21.0077C6.01524 21.0077 5.67945 20.672 5.67944 20.2577C5.67944 19.8435 6.01522 19.5077 6.42944 19.5077C6.82474 19.5077 7.12953 19.4347 7.43905 19.3282C7.57048 19.283 7.696 19.2343 7.83818 19.1791C7.87405 19.1652 7.91098 19.1508 7.94933 19.136C8.13279 19.0652 8.33822 18.9883 8.56528 18.9202C9.52944 18.6312 10.7135 18.5557 12.7729 19.1589C13.1704 19.2753 13.3983 19.692 13.2819 20.0895C13.1654 20.487 12.7488 20.7149 12.3513 20.5984C10.4998 20.0562 9.61943 20.1702 8.99598 20.3571C8.82615 20.408 8.66448 20.4679 8.48922 20.5355C8.45796 20.5476 8.42577 20.5601 8.39281 20.5729C8.24832 20.629 8.08897 20.6909 7.92714 20.7466Z" fill="black"/>
<path fill-rule="evenodd" clip-rule="evenodd" d="M20.1285 19.5892C20.2882 19.9714 20.1079 20.4107 19.7257 20.5704L19.4482 19.9064C19.7257 20.5704 19.7259 20.5703 19.7257 20.5704L19.7241 20.571L19.722 20.5719L19.7165 20.5742L19.6998 20.5809C19.6862 20.5863 19.6677 20.5936 19.6444 20.6024C19.5978 20.6201 19.5322 20.6442 19.4487 20.6725C19.2818 20.7292 19.0431 20.8032 18.7432 20.8781C18.144 21.0276 17.2949 21.1818 16.2803 21.2056C15.8662 21.2153 15.5226 20.8874 15.5129 20.4733C15.5032 20.0592 15.831 19.7157 16.2451 19.706C17.1291 19.6853 17.8669 19.5508 18.38 19.4227C18.6361 19.3588 18.8349 19.2968 18.9665 19.2521C19.0322 19.2298 19.081 19.2119 19.1116 19.2003C19.1269 19.1945 19.1376 19.1902 19.1436 19.1878L19.1476 19.1862C19.5297 19.0268 19.9688 19.2071 20.1285 19.5892Z" fill="black"/>
<path fill-rule="evenodd" clip-rule="evenodd" d="M11.0407 14.3759C9.69384 13.9066 8.46815 13.9554 7.63876 14.0944C7.23025 14.1629 6.84357 13.8872 6.77509 13.4787C6.70661 13.0702 6.98226 12.6835 7.39077 12.6151C8.39394 12.4469 9.88684 12.3854 11.5342 12.9594C12.2207 13.1985 12.8751 13.3031 13.4623 13.3298C13.8761 13.3486 14.1963 13.6993 14.1775 14.1131C14.1587 14.5268 13.808 14.847 13.3942 14.8282C12.6796 14.7958 11.8799 14.6683 11.0407 14.3759Z" fill="black"/>
<path fill-rule="evenodd" clip-rule="evenodd" d="M3.43806 17.7358C3.437 17.7366 3.43595 17.7373 3.43489 17.7381L3.43466 17.7382C3.43458 17.7383 3.43456 17.7383 3.43461 17.7383C3.43469 17.7382 3.43493 17.738 3.43533 17.7378L3.43665 17.7368L3.43755 17.7362L3.43806 17.7358ZM3.44108 17.7338L3.43489 17.7381C3.09914 17.977 2.63296 17.9003 2.39164 17.5655C2.14943 17.2295 2.22548 16.7608 2.5615 16.5186L3.00006 17.127C2.5615 16.5186 2.56179 16.5184 2.56209 16.5181L2.56273 16.5177L2.56414 16.5167L2.56748 16.5143L2.57626 16.5081L2.60215 16.4904C2.62311 16.4762 2.65145 16.4576 2.68708 16.4352C2.75833 16.3905 2.85884 16.3307 2.98779 16.2621C3.24563 16.1249 3.61791 15.9517 4.098 15.7921C5.06012 15.4722 6.45028 15.2084 8.20919 15.393C8.62114 15.4362 8.92006 15.8052 8.87683 16.2172C8.83361 16.6291 8.46461 16.928 8.05266 16.8848C6.52928 16.725 5.354 16.9552 4.57126 17.2155C4.17892 17.3459 3.88391 17.4844 3.69257 17.5862C3.59693 17.6371 3.52738 17.6788 3.48471 17.7056C3.46339 17.719 3.44881 17.7286 3.44108 17.7338Z" fill="black"/>
<path fill-rule="evenodd" clip-rule="evenodd" d="M21.5439 16.2928C21.5946 16.7039 21.3025 17.0783 20.8914 17.129C20.151 17.2203 19.4961 17.3831 18.8051 17.5548C18.4445 17.6445 18.074 17.7365 17.6765 17.8222C16.5617 18.0623 15.3615 18.2115 13.9845 17.918C13.5793 17.8317 13.3209 17.4333 13.4073 17.0281C13.4936 16.623 13.892 16.3646 14.2971 16.4509C15.3802 16.6818 16.3438 16.5748 17.3606 16.3558C17.6652 16.2902 17.9892 16.2101 18.3276 16.1264C19.0695 15.9429 19.8806 15.7423 20.7078 15.6402C21.1189 15.5895 21.4932 15.8817 21.5439 16.2928Z" fill="black"/>
</svg>
