<svg width="24" height="24" viewBox="0 0 24 24" fill="none" xmlns="http://www.w3.org/2000/svg">
<path fill-rule="evenodd" clip-rule="evenodd" d="M12.0001 2.25C12.4143 2.25 12.7501 2.58579 12.7501 3V4.3719C12.7501 4.78612 12.4143 5.1219 12.0001 5.1219C11.5859 5.1219 11.2501 4.78612 11.2501 4.3719V3C11.2501 2.58579 11.5859 2.25 12.0001 2.25ZM18.8942 5.10549C19.1871 5.39839 19.1871 5.87326 18.8942 6.16616L17.9241 7.13622C17.6312 7.42911 17.1564 7.42911 16.8635 7.13622C16.5706 6.84332 16.5706 6.36845 16.8635 6.07556L17.8335 5.10549C18.1264 4.8126 18.6013 4.8126 18.8942 5.10549ZM5.10597 5.10597C5.39886 4.81308 5.87374 4.81308 6.16663 5.10597L7.13669 6.07603C7.42959 6.36893 7.42959 6.8438 7.13669 7.13669C6.8438 7.42959 6.36893 7.42959 6.07603 7.13669L5.10597 6.16663C4.81308 5.87374 4.81308 5.39886 5.10597 5.10597ZM2.25 12.0001C2.25 11.5859 2.58579 11.2501 3 11.2501H21C21.4142 11.2501 21.75 11.5859 21.75 12.0001C21.75 12.4143 21.4142 12.7501 21 12.7501H3C2.58579 12.7501 2.25 12.4143 2.25 12.0001Z" fill="black"/>
<path fill-rule="evenodd" clip-rule="evenodd" d="M7.11553 16.8635C7.40842 17.1564 7.40842 17.6312 7.11553 17.9241L7.10553 17.9341C6.81263 18.227 6.33776 18.227 6.04487 17.9341C5.75197 17.6412 5.75197 17.1664 6.04487 16.8735L6.05487 16.8635C6.34776 16.5706 6.82263 16.5706 7.11553 16.8635Z" fill="black"/>
<path fill-rule="evenodd" clip-rule="evenodd" d="M12 18.8781C12.4142 18.8781 12.75 19.2138 12.75 19.6281V19.6381C12.75 20.0523 12.4142 20.3881 12 20.3881C11.5858 20.3881 11.25 20.0523 11.25 19.6381V19.6281C11.25 19.2138 11.5858 18.8781 12 18.8781Z" fill="black"/>
<path fill-rule="evenodd" clip-rule="evenodd" d="M16.8632 16.8635C17.1561 16.5706 17.631 16.5706 17.9239 16.8635L17.9339 16.8735C18.2268 17.1664 18.2268 17.6412 17.9339 17.9341C17.641 18.227 17.1661 18.227 16.8732 17.9341L16.8632 17.9241C16.5703 17.6312 16.5703 17.1564 16.8632 16.8635Z" fill="black"/>
<path fill-rule="evenodd" clip-rule="evenodd" d="M12.0002 8.55469C10.0969 8.55469 8.55469 10.0976 8.55469 12.0002C8.55469 13.9038 10.097 15.4466 12.0002 15.4466C13.9034 15.4466 15.4457 13.9038 15.4457 12.0002C15.4457 10.0976 13.9035 8.55469 12.0002 8.55469ZM7.05469 12.0002C7.05469 9.26941 9.26821 7.05469 12.0002 7.05469C14.7322 7.05469 16.9457 9.26941 16.9457 12.0002C16.9457 14.7318 14.7323 16.9466 12.0002 16.9466C9.2681 16.9466 7.05469 14.7318 7.05469 12.0002Z" fill="black"/>
</svg>
