<svg width="24" height="24" viewBox="0 0 24 24" fill="none" xmlns="http://www.w3.org/2000/svg">
<path fill-rule="evenodd" clip-rule="evenodd" d="M10.1247 2.43212C10.5311 2.35244 10.9252 2.61737 11.0049 3.02385L11.2688 4.37013C11.3485 4.77661 11.0836 5.17071 10.6771 5.25039C10.2706 5.33006 9.87649 5.06514 9.79681 4.65866L9.53292 3.31238C9.45325 2.9059 9.71817 2.51179 10.1247 2.43212ZM17.4393 3.90818C17.783 4.13926 17.8744 4.60527 17.6433 4.94903L16.8779 6.08757C16.6469 6.43134 16.1809 6.52268 15.8371 6.2916C15.4933 6.06051 15.402 5.59451 15.6331 5.25074L16.3984 4.1122C16.6295 3.76844 17.0955 3.67709 17.4393 3.90818ZM3.90865 6.56086C4.13973 6.2171 4.60574 6.12575 4.9495 6.35684L6.08804 7.12219C6.4318 7.35327 6.52315 7.81928 6.29206 8.16304C6.06098 8.50681 5.59497 8.59815 5.25121 8.36706L4.11267 7.60171C3.7689 7.37063 3.67756 6.90462 3.90865 6.56086ZM21.568 10.1247C21.6476 10.5312 21.3827 10.9253 20.9762 11.0049L19.63 11.2688C19.2235 11.3485 18.8294 11.0836 18.7497 10.6771C18.67 10.2706 18.9349 9.87652 19.3414 9.79684L20.6877 9.53295C21.0942 9.45328 21.4883 9.7182 21.568 10.1247ZM5.25039 13.3232C5.33006 13.7296 5.06514 14.1237 4.65866 14.2034L3.31238 14.4673C2.9059 14.547 2.51179 14.2821 2.43212 13.8756C2.35244 13.4691 2.61737 13.075 3.02385 12.9953L4.37013 12.7314C4.77661 12.6518 5.17071 12.9167 5.25039 13.3232ZM8.16304 17.7082C8.50681 17.9393 8.59815 18.4053 8.36706 18.749L7.60171 19.8876C7.37063 20.2313 6.90462 20.3227 6.56086 20.0916C6.2171 19.8605 6.12575 19.3945 6.35684 19.0507L7.12219 17.9122C7.35327 17.5684 7.81928 17.4771 8.16304 17.7082Z" fill="black"/>
<path fill-rule="evenodd" clip-rule="evenodd" d="M12.0002 8.55469C10.0969 8.55469 8.55469 10.0976 8.55469 12.0002C8.55469 13.1862 9.15271 14.2325 10.067 14.8537C10.4096 15.0865 10.4986 15.5529 10.2659 15.8955C10.0331 16.2382 9.56663 16.3272 9.22401 16.0944C7.91611 15.2058 7.05469 13.7037 7.05469 12.0002C7.05469 9.26941 9.26821 7.05469 12.0002 7.05469C14.1801 7.05469 16.0282 8.46436 16.6873 10.4191C16.8197 10.8116 16.6088 11.2371 16.2163 11.3694C15.8238 11.5018 15.3983 11.2909 15.266 10.8984C14.8062 9.53502 13.517 8.55469 12.0002 8.55469Z" fill="black"/>
<path fill-rule="evenodd" clip-rule="evenodd" d="M15.226 14.7439C14.8955 15.1806 14.766 15.7063 14.766 16.0059C14.766 16.4175 14.4343 16.7522 14.0227 16.7558C13.5525 16.76 13.169 16.9184 12.9086 17.167C12.6546 17.4094 12.4688 17.7838 12.4688 18.3244C12.4688 18.9566 12.8389 19.5017 13.3756 19.751C13.6177 19.8455 13.8535 19.8781 14.0182 19.8781H19.5036C19.6637 19.8781 19.8988 19.8441 20.1392 19.7488C20.6778 19.4996 21.0494 18.9551 21.0494 18.3244C21.0494 17.784 20.8636 17.4096 20.6094 17.1671C20.3488 16.9184 19.965 16.76 19.4948 16.7558C19.0832 16.7522 18.7515 16.4175 18.7515 16.0059C18.7515 15.7063 18.622 15.1806 18.2915 14.7439C17.9842 14.3378 17.5103 14.0125 16.7587 14.0125C16.0072 14.0125 15.5333 14.3378 15.226 14.7439ZM14.0298 13.8388C14.5875 13.1017 15.485 12.5125 16.7587 12.5125C18.0325 12.5125 18.93 13.1017 19.4877 13.8388C19.8434 14.3089 20.064 14.8409 20.1717 15.3253C20.724 15.4386 21.2347 15.6904 21.6449 16.0818C22.2219 16.6324 22.5494 17.4117 22.5494 18.3244C22.5494 19.5709 21.8068 20.6416 20.7435 21.1218C20.7347 21.1258 20.7258 21.1296 20.7169 21.1332C20.285 21.3085 19.8517 21.3781 19.5036 21.3781H14.0182C13.6736 21.3781 13.2403 21.3129 12.8022 21.1373C12.7922 21.1332 12.7822 21.129 12.7723 21.1245C11.7065 20.6427 10.9688 19.5687 10.9688 18.3244C10.9688 17.4118 11.296 16.6326 11.8728 16.082C12.2829 15.6905 12.7936 15.4387 13.3458 15.3254C13.4535 14.8409 13.674 14.3089 14.0298 13.8388Z" fill="black"/>
</svg>
