<svg width="24" height="24" viewBox="0 0 24 24" fill="none" xmlns="http://www.w3.org/2000/svg">
<path d="M9.41995 5.38861C9.12995 5.38861 8.84995 5.21859 8.72995 4.92859L8.09995 3.4386C7.93995 3.0586 8.11994 2.61858 8.49994 2.45858C8.87994 2.29858 9.31995 2.47861 9.47995 2.85861L10.11 4.3486C10.27 4.7286 10.0899 5.16858 9.70993 5.32858C9.60993 5.36858 9.51995 5.38861 9.41995 5.38861Z" fill="black"/>
<path d="M16.2997 5.33871C16.2097 5.33871 16.1097 5.31871 16.0197 5.27871C15.6397 5.11871 15.4497 4.6887 15.6097 4.2987L16.2197 2.7987C16.3797 2.4187 16.8097 2.22873 17.1997 2.38873C17.5797 2.54873 17.7697 2.97871 17.6097 3.36871L16.9997 4.86871C16.8797 5.15871 16.5997 5.33871 16.2997 5.33871Z" fill="black"/>
<path d="M4.57995 10.2886C4.48995 10.2886 4.38995 10.2686 4.29995 10.2286L2.79995 9.61855C2.41995 9.45855 2.22994 9.02857 2.38994 8.63857C2.54994 8.25857 2.97992 8.06857 3.36992 8.22857L4.86992 8.83855C5.24992 8.99855 5.43993 9.42856 5.27993 9.81856C5.15993 10.1086 4.87995 10.2886 4.57995 10.2886Z" fill="black"/>
<path d="M3.14005 17.8079C2.85005 17.8079 2.57004 17.6379 2.45004 17.3479C2.29004 16.9679 2.47004 16.5279 2.85004 16.3679L4.34003 15.7379C4.72003 15.5779 5.16004 15.7579 5.32004 16.1379C5.48004 16.5179 5.30005 16.9579 4.92005 17.1179L3.43002 17.7479C3.33002 17.7879 3.24005 17.8079 3.14005 17.8079Z" fill="black"/>
<path d="M9.9998 18.5483C9.8098 18.5483 9.6198 18.4783 9.4698 18.3283L8.6298 17.4883C6.1898 15.0483 6.1898 11.0784 8.6298 8.63837C9.8098 7.45837 11.3798 6.80835 13.0498 6.80835C14.7198 6.80835 16.2898 7.45837 17.4698 8.63837L18.3098 9.47836C18.5998 9.76836 18.5998 10.2484 18.3098 10.5384C18.0198 10.8284 17.5398 10.8284 17.2498 10.5384L16.4098 9.69836C15.5098 8.79836 14.3198 8.30835 13.0498 8.30835C11.7798 8.30835 10.5898 8.79836 9.6898 9.69836C7.8398 11.5484 7.8398 14.5683 9.6898 16.4283L10.5298 17.2683C10.8198 17.5583 10.8198 18.0383 10.5298 18.3283C10.3798 18.4783 10.1898 18.5483 9.9998 18.5483Z" fill="black"/>
<path d="M6.87982 21.6681C6.68982 21.6681 6.49982 21.5981 6.34982 21.4481C6.05982 21.1581 6.05982 20.6781 6.34982 20.3881L20.3898 6.34812C20.6798 6.05812 21.1598 6.05812 21.4498 6.34812C21.7398 6.63812 21.7398 7.11811 21.4498 7.40811L7.40982 21.4481C7.25982 21.5981 7.06982 21.6681 6.87982 21.6681Z" fill="black"/>
</svg>
