<svg width="24" height="24" viewBox="0 0 24 24" fill="none" xmlns="http://www.w3.org/2000/svg">
<path fill-rule="evenodd" clip-rule="evenodd" d="M17.0406 2.44335C17.4401 2.55281 17.6752 2.9654 17.5658 3.36489L17.5602 3.38523C17.4507 3.78472 17.0381 4.01983 16.6387 3.91037C16.2392 3.80091 16.004 3.38833 16.1135 2.98884L16.1191 2.9685C16.2285 2.56901 16.6411 2.33389 17.0406 2.44335ZM11.9713 3.08804C12.3312 2.88296 12.7892 3.00844 12.9943 3.36832L13.0032 3.38403C13.2083 3.74391 13.0828 4.2019 12.7229 4.40698C12.3631 4.61207 11.9051 4.48658 11.7 4.1267L11.691 4.111C11.486 3.75112 11.6114 3.29313 11.9713 3.08804ZM21.0947 5.56966C21.2998 5.92953 21.1743 6.38753 20.8145 6.59262L20.7775 6.61365C20.4177 6.81874 19.9597 6.69326 19.7546 6.33339C19.5495 5.97351 19.675 5.51552 20.0348 5.31043L20.0718 5.28939C20.4316 5.0843 20.8896 5.20978 21.0947 5.56966ZM20.249 10.2574C20.3585 9.85788 20.7711 9.62275 21.1706 9.7322L21.1977 9.73963C21.5972 9.84907 21.8323 10.2617 21.7229 10.6611C21.6134 11.0606 21.2008 11.2958 20.8013 11.1863L20.7742 11.1789C20.3747 11.0694 20.1396 10.6569 20.249 10.2574Z" fill="black"/>
<path fill-rule="evenodd" clip-rule="evenodd" d="M15.2708 6.11987C14.2718 6.11987 13.3956 6.64905 12.9086 7.4458C12.6925 7.79921 12.2309 7.91055 11.8775 7.6945C11.5241 7.47845 11.4127 7.01682 11.6288 6.66341C12.377 5.43955 13.7278 4.61987 15.2708 4.61987C17.6269 4.61987 19.5361 6.52993 19.5361 8.88516C19.5361 10.3706 18.7765 11.6784 17.6277 12.4412C17.2827 12.6704 16.8172 12.5764 16.588 12.2313C16.3589 11.8863 16.4529 11.4208 16.7979 11.1916C17.5457 10.6951 18.0361 9.84729 18.0361 8.88516C18.0361 7.35816 16.7983 6.11987 15.2708 6.11987Z" fill="black"/>
<path fill-rule="evenodd" clip-rule="evenodd" d="M6.80625 7.92618C7.58607 6.89543 8.83572 6.07117 10.6298 6.07117C12.4239 6.07117 13.6736 6.89543 14.4534 7.92618C15.0191 8.67388 15.3414 9.53239 15.468 10.2731C16.3389 10.3986 17.1383 10.7653 17.7618 11.3626C18.5518 12.1192 19.0097 13.1986 19.0097 14.484C19.0097 16.2131 17.9792 17.6999 16.5031 18.367C16.1256 18.5376 15.6814 18.3699 15.5108 17.9924C15.3402 17.615 15.5079 17.1707 15.8854 17.0001C16.8442 16.5668 17.5097 15.6023 17.5097 14.484C17.5097 13.5687 17.1918 12.8936 16.7242 12.4458C16.2512 11.9927 15.5747 11.7246 14.781 11.7243C14.3669 11.7241 14.0313 11.3884 14.0313 10.9743C14.0313 10.4397 13.8097 9.56156 13.2572 8.83119C12.7277 8.13141 11.9017 7.57117 10.6298 7.57117C9.35798 7.57117 8.5319 8.13141 8.00248 8.83119C7.44992 9.56156 7.22838 10.4397 7.22838 10.9743C7.22838 11.386 6.89649 11.7207 6.4848 11.7242C5.68801 11.7311 5.00925 12.0004 4.53533 12.4526C4.06779 12.8988 3.75 13.5697 3.75 14.484C3.75 15.6025 4.41486 16.5668 5.37409 17C5.7516 17.1705 5.91943 17.6147 5.74895 17.9922C5.57847 18.3697 5.13424 18.5376 4.75674 18.3671C3.27937 17.6999 2.25 16.2128 2.25 14.484C2.25 13.1976 2.70922 12.1219 3.49977 11.3675C4.12371 10.7721 4.92253 10.4065 5.79092 10.2772C5.9171 9.53553 6.23954 8.67525 6.80625 7.92618Z" fill="black"/>
<path fill-rule="evenodd" clip-rule="evenodd" d="M10.0031 14.5215L8.93512 17.1273H9.74636C10.3915 17.1273 10.8613 17.7389 10.6951 18.3622L10.5828 18.7834L11.9554 17.2167H11.2087C10.531 17.2167 10.0571 16.5465 10.2829 15.9076C10.2882 15.8927 10.2939 15.878 10.3001 15.8635L10.8719 14.5215H10.0031ZM8.74012 13.6476C8.88656 13.2708 9.24971 13.0215 9.65532 13.0215H11.6563C12.334 13.0215 12.8079 13.6917 12.5821 14.3306C12.5768 14.3455 12.5711 14.3601 12.5649 14.3746L11.9931 15.7167H13.0981C13.942 15.7167 14.3928 16.7109 13.8367 17.3456L10.2492 21.4405C9.5647 22.2217 8.29425 21.544 8.56186 20.5404L9.072 18.6273H8.16269C7.48011 18.6273 7.00578 17.9481 7.24086 17.3073C7.24408 17.2985 7.24746 17.2898 7.251 17.2812L8.74012 13.6476Z" fill="black"/>
</svg>
