<svg width="24" height="24" viewBox="0 0 24 24" fill="none" xmlns="http://www.w3.org/2000/svg">
<path fill-rule="evenodd" clip-rule="evenodd" d="M12.0001 4.65161C12.4143 4.65161 12.7501 4.9874 12.7501 5.40161V6.77351C12.7501 7.18773 12.4143 7.52351 12.0001 7.52351C11.5859 7.52351 11.2501 7.18773 11.2501 6.77351V5.40161C11.2501 4.9874 11.5859 4.65161 12.0001 4.65161ZM18.8942 7.50711C19.1871 7.8 19.1871 8.27487 18.8942 8.56777L17.9241 9.53783C17.6312 9.83072 17.1564 9.83072 16.8635 9.53783C16.5706 9.24494 16.5706 8.77006 16.8635 8.47717L17.8335 7.50711C18.1264 7.21421 18.6013 7.21421 18.8942 7.50711ZM5.10597 7.50758C5.39886 7.21469 5.87374 7.21469 6.16663 7.50758L7.13669 8.47764C7.42959 8.77054 7.42959 9.24541 7.13669 9.5383C6.8438 9.8312 6.36893 9.8312 6.07603 9.5383L5.10597 8.56824C4.81308 8.27535 4.81308 7.80047 5.10597 7.50758ZM2.25 14.4017C2.25 13.9875 2.58579 13.6517 3 13.6517H21C21.4142 13.6517 21.75 13.9875 21.75 14.4017C21.75 14.8159 21.4142 15.1517 21 15.1517H3C2.58579 15.1517 2.25 14.8159 2.25 14.4017Z" fill="black"/>
<path fill-rule="evenodd" clip-rule="evenodd" d="M12.0002 10.9563C10.0969 10.9563 8.55469 12.4992 8.55469 14.4018C8.55469 16.3054 10.097 17.8483 12.0002 17.8483C13.9034 17.8483 15.4457 16.3054 15.4457 14.4018C15.4457 12.4992 13.9035 10.9563 12.0002 10.9563ZM7.05469 14.4018C7.05469 11.671 9.26821 9.4563 12.0002 9.4563C14.7322 9.4563 16.9457 11.671 16.9457 14.4018C16.9457 17.1334 14.7323 19.3483 12.0002 19.3483C9.2681 19.3483 7.05469 17.1334 7.05469 14.4018Z" fill="black"/>
</svg>
