<svg width="24" height="24" viewBox="0 0 24 24" fill="none" xmlns="http://www.w3.org/2000/svg">
<path fill-rule="evenodd" clip-rule="evenodd" d="M2.25 3.99597C2.25 3.58176 2.58579 3.24597 3 3.24597H21C21.4142 3.24597 21.75 3.58176 21.75 3.99597C21.75 4.41019 21.4142 4.74597 21 4.74597H3C2.58579 4.74597 2.25 4.41019 2.25 3.99597Z" fill="black"/>
<path fill-rule="evenodd" clip-rule="evenodd" d="M3.92456 8.12231C3.92456 7.7081 4.26035 7.37231 4.67456 7.37231H19.3253C19.7395 7.37231 20.0753 7.7081 20.0753 8.12231C20.0753 8.53653 19.7395 8.87231 19.3253 8.87231H4.67456C4.26035 8.87231 3.92456 8.53653 3.92456 8.12231Z" fill="black"/>
<path fill-rule="evenodd" clip-rule="evenodd" d="M7.5127 12.0505C7.5127 11.6363 7.84848 11.3005 8.2627 11.3005H21.0001C21.4143 11.3005 21.7501 11.6363 21.7501 12.0505C21.7501 12.4648 21.4143 12.8005 21.0001 12.8005H8.2627C7.84848 12.8005 7.5127 12.4648 7.5127 12.0505Z" fill="black"/>
<path fill-rule="evenodd" clip-rule="evenodd" d="M10.4307 15.9973C10.4307 15.5831 10.7665 15.2473 11.1807 15.2473H16.9808C17.395 15.2473 17.7308 15.5831 17.7308 15.9973C17.7308 16.4115 17.395 16.7473 16.9808 16.7473H11.1807C10.7665 16.7473 10.4307 16.4115 10.4307 15.9973Z" fill="black"/>
<path fill-rule="evenodd" clip-rule="evenodd" d="M8.38574 20.004C8.38574 19.5898 8.72153 19.254 9.13574 19.254H13.2255C13.6397 19.254 13.9755 19.5898 13.9755 20.004C13.9755 20.4182 13.6397 20.754 13.2255 20.754H9.13574C8.72153 20.754 8.38574 20.4182 8.38574 20.004Z" fill="black"/>
</svg>
