<svg width="24" height="24" viewBox="0 0 24 24" fill="none" xmlns="http://www.w3.org/2000/svg">
<path fill-rule="evenodd" clip-rule="evenodd" d="M16.6217 6.8827C14.5282 3.97637 10.5315 3.07194 7.36306 4.90126C4.1888 6.73392 2.9751 10.6583 4.45778 13.9281C4.93277 13.7106 5.37082 13.5489 5.81286 13.4441C6.34224 13.3186 6.85207 13.2806 7.41135 13.3044C8.46641 12.0294 9.42887 11.1206 10.571 10.4646C11.71 9.81052 12.9779 9.43647 14.5984 9.15276C14.87 8.60468 15.1703 8.15718 15.5582 7.75424C15.8668 7.43372 16.2171 7.15596 16.6217 6.8827ZM6.61306 3.60222C10.709 1.23746 15.9464 2.64081 18.3111 6.73671C18.5156 7.09082 18.3987 7.54342 18.0484 7.75429C17.3867 8.15261 16.9639 8.45682 16.6389 8.79452C16.3223 9.12341 16.0678 9.51629 15.7975 10.1296C15.695 10.3622 15.4816 10.5271 15.2306 10.5676C13.4931 10.8477 12.319 11.1905 11.3181 11.7654C10.3185 12.3394 9.43371 13.1783 8.33278 14.548C8.17594 14.7432 7.93209 14.8472 7.6827 14.8253C7.07288 14.7718 6.61685 14.7951 6.1588 14.9037C5.69037 15.0147 5.18171 15.2238 4.47332 15.5911C4.11731 15.7757 3.67908 15.6476 3.47857 15.3003C1.1138 11.2044 2.51716 5.96699 6.61306 3.60222Z" fill="black"/>
<path fill-rule="evenodd" clip-rule="evenodd" d="M10.012 5.70817C10.2419 5.36362 10.7076 5.2707 11.0521 5.50062C11.6316 5.88734 12.2527 6.39819 12.8425 7.06787C13.1163 7.3787 13.0863 7.85263 12.7755 8.12641C12.4646 8.40019 11.9907 8.37015 11.7169 8.05932C11.2226 7.49814 10.7032 7.07109 10.2195 6.74832C9.87497 6.5184 9.78205 6.05271 10.012 5.70817Z" fill="black"/>
<path fill-rule="evenodd" clip-rule="evenodd" d="M6.73756 7.59877C7.1509 7.57193 7.50774 7.88525 7.53458 8.29859C7.57227 8.87887 7.68239 9.54223 7.92124 10.2509C8.05354 10.6434 7.84259 11.0688 7.45007 11.2011C7.05756 11.3334 6.63211 11.1225 6.49981 10.73C6.21477 9.88431 6.08288 9.09104 6.03774 8.3958C6.01089 7.98245 6.32422 7.62561 6.73756 7.59877Z" fill="black"/>
<path fill-rule="evenodd" clip-rule="evenodd" d="M10.6649 10.4757C11.0236 10.2686 11.4823 10.3915 11.6894 10.7502L14.3293 15.3226C14.9341 16.3702 14.5752 17.7098 13.5276 18.3146C12.4799 18.9195 11.1404 18.5605 10.5355 17.5129L10.4023 17.2822C10.1952 16.9235 10.3181 16.4648 10.6768 16.2577C11.0355 16.0505 11.4942 16.1735 11.7013 16.5322L11.8346 16.7629C12.0252 17.0931 12.4474 17.2062 12.7776 17.0156C13.1077 16.825 13.2209 16.4028 13.0302 16.0726L10.3904 11.5002C10.1833 11.1415 10.3062 10.6828 10.6649 10.4757Z" fill="black"/>
<path fill-rule="evenodd" clip-rule="evenodd" d="M5.89051 2.35048C6.24923 2.14338 6.70792 2.26628 6.91503 2.625L7.6378 3.87688C7.84491 4.2356 7.722 4.6943 7.36328 4.9014C7.00456 5.10851 6.54587 4.9856 6.33876 4.62688L5.61599 3.375C5.40888 3.01628 5.53179 2.55759 5.89051 2.35048Z" fill="black"/>
<path fill-rule="evenodd" clip-rule="evenodd" d="M7.25006 17.3448C6.8705 17.5401 6.57455 17.7814 6.43561 17.9219C6.14435 18.2164 5.66948 18.219 5.37497 17.9278C5.08045 17.6365 5.07782 17.1616 5.36908 16.8671C5.61626 16.6172 6.03981 16.2806 6.56383 16.011C7.0866 15.742 7.76585 15.5109 8.505 15.5515C8.91859 15.5743 9.23542 15.928 9.21265 16.3416C9.18989 16.7552 8.83616 17.072 8.42257 17.0493C8.03927 17.0282 7.63086 17.1489 7.25006 17.3448Z" fill="black"/>
<path fill-rule="evenodd" clip-rule="evenodd" d="M13.8886 12.4963C14.2682 12.301 14.5641 12.0597 14.7031 11.9192C14.9943 11.6247 15.4692 11.622 15.7637 11.9133C16.0582 12.2046 16.0609 12.6794 15.7696 12.9739C15.5224 13.2239 15.0989 13.5605 14.5748 13.8301C14.0521 14.0991 13.3728 14.3302 12.6337 14.2895C12.2201 14.2668 11.9033 13.913 11.926 13.4994C11.9488 13.0858 12.3025 12.769 12.7161 12.7918C13.0994 12.8129 13.5078 12.6922 13.8886 12.4963Z" fill="black"/>
<path fill-rule="evenodd" clip-rule="evenodd" d="M19.5722 9.19232C19.9518 8.99704 20.2477 8.75573 20.3867 8.61523C20.6779 8.32072 21.1528 8.31808 21.4473 8.60934C21.7418 8.90061 21.7445 9.37547 21.4532 9.66999C21.206 9.91993 20.7825 10.2565 20.2584 10.5261C19.7357 10.7951 19.0564 11.0262 18.3173 10.9856C17.9037 10.9628 17.5868 10.6091 17.6096 10.1955C17.6324 9.78189 17.9861 9.46507 18.3997 9.48783C18.783 9.50893 19.1914 9.38824 19.5722 9.19232Z" fill="black"/>
<path fill-rule="evenodd" clip-rule="evenodd" d="M6.63278 20.0702C6.87223 19.947 7.05661 19.7953 7.13568 19.7154C7.42694 19.4209 7.90181 19.4182 8.19632 19.7095C8.49084 20.0008 8.49347 20.4756 8.20221 20.7702C8.0149 20.9596 7.70292 21.2066 7.31902 21.4041C6.93635 21.6009 6.42576 21.7775 5.86066 21.7464C5.44707 21.7237 5.13025 21.3699 5.15301 20.9563C5.17577 20.5428 5.52951 20.2259 5.94309 20.2487C6.15234 20.2602 6.3921 20.1941 6.63278 20.0702Z" fill="black"/>
<path fill-rule="evenodd" clip-rule="evenodd" d="M18.4858 14.5082C18.2058 14.6523 17.9891 14.8299 17.8926 14.9274C17.6014 15.2219 17.1265 15.2246 16.832 14.9333C16.5375 14.6421 16.5348 14.1672 16.8261 13.8727C17.0308 13.6657 17.3751 13.3928 17.7996 13.1744C18.2229 12.9566 18.7823 12.7642 19.3979 12.7981C19.8114 12.8208 20.1283 13.1746 20.1055 13.5882C20.0827 14.0018 19.729 14.3186 19.3154 14.2958C19.0557 14.2815 18.7671 14.3635 18.4858 14.5082Z" fill="black"/>
<path fill-rule="evenodd" clip-rule="evenodd" d="M16.8552 19.4634C15.9517 20.0528 14.8221 20.7897 13.3399 20.9863C12.9293 21.0408 12.5523 20.7521 12.4978 20.3415C12.4433 19.9309 12.7321 19.5538 13.1427 19.4994C14.2838 19.348 15.1635 18.775 16.1175 18.1537L16.1312 18.1448C16.1451 18.1358 16.159 18.1267 16.1729 18.1176C17.0596 17.5399 18.126 16.8451 19.4272 16.9683C19.8396 17.0074 20.1422 17.3733 20.1031 17.7857C20.0641 18.1981 19.6981 18.5007 19.2858 18.4616C18.5709 18.3939 17.9331 18.7613 16.9498 19.4017C16.9186 19.4221 16.887 19.4426 16.8552 19.4634Z" fill="black"/>
</svg>
