<svg width="24" height="24" viewBox="0 0 24 24" fill="none" xmlns="http://www.w3.org/2000/svg">
<path fill-rule="evenodd" clip-rule="evenodd" d="M14.3374 9.8427C14.4837 9.45519 14.9165 9.25966 15.304 9.40597C18.7172 10.6947 21.1467 13.9922 21.1467 17.8591C21.1467 18.268 20.8192 18.6015 20.4103 18.609C19.5906 18.6239 19.0365 18.6792 18.5533 18.8186C18.0819 18.9546 17.6353 19.1833 17.0592 19.6052C16.8541 19.7555 16.5869 19.7915 16.3493 19.7011C14.6035 19.0365 13.3381 18.7268 12.1066 18.724C10.8767 18.7212 9.61384 19.0245 7.87476 19.6993C7.64137 19.7899 7.37819 19.7581 7.17314 19.6144C6.63883 19.2402 6.20352 19.0173 5.71969 18.8724C5.22565 18.7245 4.64362 18.6467 3.79713 18.6083C3.39652 18.5902 3.08105 18.2601 3.08105 17.8591C3.08105 14.3592 5.07176 11.3255 7.97917 9.8262C8.34732 9.63636 8.79966 9.7809 8.9895 10.149C9.17935 10.5172 9.0348 10.9695 8.66666 11.1594C6.43511 12.3101 4.85437 14.5411 4.61315 17.1591C5.18099 17.2106 5.67965 17.2947 6.14988 17.4354C6.70457 17.6015 7.19432 17.8387 7.699 18.1613C9.35012 17.546 10.7153 17.2209 12.11 17.224C13.5011 17.2272 14.8635 17.5569 16.5087 18.1594C17.0526 17.7954 17.5666 17.5421 18.1376 17.3774C18.6003 17.2439 19.0802 17.1748 19.6127 17.1395C19.3371 14.2315 17.4082 11.8038 14.7741 10.8093C14.3866 10.663 14.1911 10.2302 14.3374 9.8427Z" fill="black"/>
<path fill-rule="evenodd" clip-rule="evenodd" d="M12.1143 17.24C12.5285 17.24 12.8643 17.5758 12.8643 17.99V20.9999C12.8643 21.4142 12.5285 21.7499 12.1143 21.7499C11.7 21.7499 11.3643 21.4142 11.3643 20.9999V17.99C11.3643 17.5758 11.7 17.24 12.1143 17.24Z" fill="black"/>
<path fill-rule="evenodd" clip-rule="evenodd" d="M19.8528 4.32078C20.1969 4.55149 20.2887 5.01739 20.058 5.36141L19.6003 6.04386H20.3955C20.6715 6.04386 20.9252 6.19545 21.056 6.43851C21.1868 6.68157 21.1735 6.97681 21.0214 7.20713L19.7619 9.11457C19.5336 9.46022 19.0684 9.55541 18.7227 9.32717C18.3771 9.09892 18.2819 8.63369 18.5101 8.28803L19.0015 7.54386H18.1943C17.9174 7.54386 17.663 7.39122 17.5326 7.14685C17.4022 6.90248 17.4172 6.60616 17.5714 6.37613L18.8122 4.52595C19.0429 4.18193 19.5088 4.09008 19.8528 4.32078Z" fill="black"/>
<path fill-rule="evenodd" clip-rule="evenodd" d="M5.48956 4.32078C5.83358 4.55149 5.92544 5.01739 5.69473 5.36141L5.23706 6.04386H6.03223C6.30823 6.04386 6.56193 6.19545 6.6927 6.43851C6.82347 6.68157 6.81018 6.97681 6.65809 7.20713L5.39858 9.11457C5.17034 9.46022 4.7051 9.55541 4.35945 9.32717C4.01379 9.09892 3.91861 8.63369 4.14685 8.28803L4.63824 7.54386H3.83106C3.55409 7.54386 3.29967 7.39122 3.16932 7.14685C3.03896 6.90248 3.0539 6.60616 3.20816 6.37613L4.44893 4.52595C4.67964 4.18193 5.14555 4.09008 5.48956 4.32078Z" fill="black"/>
<path fill-rule="evenodd" clip-rule="evenodd" d="M11.2291 3.70349L9.94707 6.83163H11.0037C11.6682 6.83163 12.1522 7.46154 11.9809 8.10362L11.7491 8.97303L13.7042 6.74152H12.652C11.954 6.74152 11.4658 6.05119 11.6985 5.39308C11.7037 5.37822 11.7094 5.36353 11.7156 5.34903L12.4167 3.70349H11.2291ZM9.95808 2.84925C10.1087 2.46061 10.483 2.20349 10.9011 2.20349H13.1566C13.8546 2.20349 14.3428 2.89382 14.1102 3.55193C14.1049 3.56679 14.0992 3.58148 14.093 3.59598L13.3919 5.24152H14.7818C15.6511 5.24152 16.1154 6.26559 15.5426 6.91941L15.1298 6.5578L15.5426 6.91941L11.4987 11.5351C10.7937 12.3398 9.48505 11.6418 9.76071 10.608L10.3677 8.33163H9.21858C8.5155 8.33163 8.02692 7.63198 8.26906 6.97191C8.27228 6.96314 8.27566 6.95443 8.2792 6.94579L9.95808 2.84925Z" fill="black"/>
</svg>
