<svg width="24" height="24" viewBox="0 0 24 24" fill="none" xmlns="http://www.w3.org/2000/svg">
<path fill-rule="evenodd" clip-rule="evenodd" d="M20.6401 3.24604C20.933 3.53893 20.933 4.0138 20.6401 4.3067L19.9586 4.98814C19.6657 5.28104 19.1909 5.28104 18.898 4.98814C18.6051 4.69525 18.6051 4.22038 18.898 3.92748L19.5794 3.24604C19.8723 2.95314 20.3472 2.95314 20.6401 3.24604ZM10.6386 3.24637C10.9315 2.95348 11.4064 2.95348 11.6993 3.24637L12.3807 3.92782C12.6736 4.22071 12.6736 4.69558 12.3807 4.98848C12.0878 5.28137 11.613 5.28137 11.3201 4.98848L10.6386 4.30703C10.3457 4.01414 10.3457 3.53926 10.6386 3.24637ZM18.898 11.5057C19.1909 11.2128 19.6657 11.2128 19.9586 11.5057L20.6401 12.1872C20.933 12.4801 20.933 12.9549 20.6401 13.2478C20.3472 13.5407 19.8723 13.5407 19.5794 13.2478L18.898 12.5664C18.6051 12.2735 18.6051 11.7986 18.898 11.5057Z" fill="black"/>
<path fill-rule="evenodd" clip-rule="evenodd" d="M15.6396 5.8446C14.4692 5.8446 13.4932 6.68219 13.2804 7.79063C13.2023 8.19742 12.8092 8.46389 12.4025 8.38581C11.9957 8.30773 11.7292 7.91467 11.8073 7.50788C12.1531 5.70638 13.7362 4.3446 15.6396 4.3446C17.7954 4.3446 19.542 6.09221 19.542 8.24701C19.542 9.92655 18.482 11.3568 16.9964 11.9076C16.608 12.0517 16.1764 11.8536 16.0324 11.4652C15.8884 11.0768 16.0865 10.6452 16.4748 10.5012C17.3911 10.1615 18.042 9.2795 18.042 8.24701C18.042 6.92041 16.9667 5.8446 15.6396 5.8446Z" fill="black"/>
<path fill-rule="evenodd" clip-rule="evenodd" d="M15.6399 1.75C16.0541 1.75 16.3899 2.08579 16.3899 2.5V2.51527C16.3899 2.92948 16.0541 3.26527 15.6399 3.26527C15.2257 3.26527 14.8899 2.92948 14.8899 2.51527V2.5C14.8899 2.08579 15.2257 1.75 15.6399 1.75ZM20.6214 8.24691C20.6214 7.8327 20.9572 7.49691 21.3714 7.49691H21.3984C21.8127 7.49691 22.1484 7.8327 22.1484 8.24691C22.1484 8.66113 21.8127 8.99691 21.3984 8.99691H21.3714C20.9572 8.99691 20.6214 8.66113 20.6214 8.24691Z" fill="black"/>
<path fill-rule="evenodd" clip-rule="evenodd" d="M3.38857 14.1251C3.86888 14.1722 4.29676 14.2469 4.70243 14.3683C5.19553 14.5159 5.63159 14.7252 6.07709 15.0068C7.54479 14.4625 8.76797 14.1728 10.0201 14.1757C11.2685 14.1785 12.4888 14.4721 13.9505 15.0049C14.4309 14.687 14.8894 14.463 15.3986 14.3161C15.7963 14.2014 16.2069 14.1392 16.6561 14.1057C16.2985 10.7587 13.4653 8.15186 10.0234 8.15186C6.57473 8.15186 3.73731 10.7688 3.38857 14.1251ZM1.85254 14.8227C1.85254 10.3101 5.51074 6.65186 10.0234 6.65186C14.536 6.65186 18.1942 10.3101 18.1942 14.8227C18.1942 15.2316 17.8667 15.5651 17.4579 15.5726C16.7254 15.5859 16.2372 15.6353 15.8143 15.7573C15.4032 15.8759 15.0112 16.0758 14.5002 16.4501C14.2951 16.6003 14.0278 16.6364 13.7902 16.5459C12.2298 15.9519 11.1063 15.6781 10.0167 15.6756C8.9287 15.6732 7.80762 15.9412 6.25366 16.5442C6.02027 16.6348 5.75708 16.6029 5.55204 16.4593C5.0782 16.1274 4.6957 15.9321 4.27224 15.8053C3.83857 15.6755 3.32444 15.6061 2.56861 15.5719C2.168 15.5538 1.85254 15.2237 1.85254 14.8227Z" fill="black"/>
<path fill-rule="evenodd" clip-rule="evenodd" d="M10.024 14.1899C10.4382 14.1899 10.774 14.5257 10.774 14.9399V20.0519C10.774 21.2659 9.78988 22.25 8.57595 22.25C7.36202 22.25 6.37793 21.2659 6.37793 20.0519V19.7841C6.37793 19.3699 6.71372 19.0341 7.12793 19.0341C7.54214 19.0341 7.87793 19.3699 7.87793 19.7841V20.0519C7.87793 20.4374 8.19044 20.75 8.57595 20.75C8.96145 20.75 9.27397 20.4374 9.27397 20.0519V14.9399C9.27397 14.5257 9.60975 14.1899 10.024 14.1899Z" fill="black"/>
<path fill-rule="evenodd" clip-rule="evenodd" d="M10.0237 5.27893C10.4379 5.27893 10.7737 5.61472 10.7737 6.02893L10.7737 7.40181C10.7737 7.81603 10.4379 8.15181 10.0237 8.15181C9.60947 8.15181 9.27368 7.81603 9.27368 7.40181L9.27368 6.02893C9.27368 5.61472 9.60947 5.27893 10.0237 5.27893Z" fill="black"/>
</svg>
