<svg width="24" height="24" viewBox="0 0 24 24" fill="none" xmlns="http://www.w3.org/2000/svg">
<path d="M15.8484 9.32876H15.7984C15.1184 9.32876 14.4284 9.02868 13.8984 8.48868C13.3584 7.94868 13.0784 7.24872 13.0884 6.52872C13.0484 4.24872 15.2684 2.47871 15.3684 2.39871C15.6384 2.18871 16.0284 2.18871 16.2984 2.39871C16.3884 2.46871 18.6084 4.24874 18.5784 6.54874C18.5884 7.23874 18.3084 7.93879 17.7684 8.47879C17.2384 9.00879 16.5384 9.31875 15.8484 9.31875V9.32876ZM15.8284 7.82876C16.1384 7.79876 16.4584 7.68875 16.6984 7.43875C16.8384 7.29875 17.0784 6.98875 17.0784 6.56875C17.0984 5.51875 16.3484 4.55872 15.8384 4.02872C15.3284 4.55872 14.5784 5.50873 14.5984 6.53873C14.5984 6.98873 14.8284 7.28875 14.9784 7.43875C15.2284 7.68875 15.5384 7.82876 15.8284 7.82876Z" fill="black"/>
<path d="M7.3685 10.8891C6.7485 10.8891 6.1085 10.609 5.6185 10.119C5.1285 9.61905 4.8585 8.98913 4.8685 8.32913C4.8385 6.25913 6.84849 4.64914 6.92849 4.58914C7.19849 4.37914 7.5885 4.37914 7.8585 4.58914C7.9485 4.65914 9.9485 6.25916 9.9185 8.35916C9.9285 8.98916 9.6685 9.62906 9.1685 10.1291C8.6785 10.6291 8.01851 10.8991 7.37851 10.8991H7.34851L7.3685 10.8891ZM7.3985 6.19913C6.9285 6.70913 6.3585 7.51913 6.3685 8.32913C6.3685 8.69913 6.55849 8.94912 6.67849 9.06912C6.87849 9.27912 7.1885 9.35908 7.3885 9.39908C7.6785 9.39908 7.9085 9.27912 8.1185 9.06912C8.2385 8.94912 8.43849 8.69916 8.42849 8.35916C8.43849 7.52916 7.8785 6.71913 7.3985 6.19913Z" fill="black"/>
<path d="M11.5884 21.759C10.0984 21.759 8.63845 21.469 7.12845 21.179L7.00844 21.159C6.06844 20.969 5.19844 20.9491 4.14844 20.9491C3.73844 20.9491 3.39844 20.6091 3.39844 20.1991C3.39844 19.7891 3.73844 19.4491 4.14844 19.4491C5.28844 19.4491 6.23844 19.469 7.30844 19.689L7.41844 19.7091C9.98844 20.2091 12.1984 20.6491 14.5684 19.7191C16.2284 19.0691 17.3384 17.939 18.6384 16.639L18.8184 16.4591C18.9884 16.2891 19.0884 16.0591 19.0884 15.8191C19.0884 15.5791 18.9984 15.349 18.8284 15.179C18.5084 14.859 17.9984 14.8191 17.6484 15.0891C17.3984 15.2791 17.1484 15.4891 16.8884 15.6991C15.7784 16.6091 14.5184 17.639 12.9184 17.679C12.6384 17.679 12.3484 17.679 12.0584 17.669C11.6184 17.649 11.2084 17.6391 10.8284 17.6991C10.4084 17.7591 10.0384 17.4791 9.97844 17.0691C9.91844 16.6591 10.1984 16.2791 10.6084 16.2191C11.1384 16.1391 11.6384 16.159 12.1284 16.179C12.3784 16.179 12.6384 16.199 12.8884 16.189C13.9784 16.159 14.9784 15.339 15.9484 14.549C16.2184 14.319 16.4984 14.099 16.7584 13.899C17.7184 13.189 19.0684 13.279 19.9084 14.129C20.3584 14.579 20.6084 15.1791 20.6084 15.8291C20.6084 16.4791 20.3584 17.079 19.8984 17.529L19.7284 17.6991C18.3784 19.0691 17.0984 20.349 15.1384 21.119C13.9284 21.589 12.7584 21.759 11.6084 21.759H11.5884Z" fill="black"/>
<path d="M12.1185 17.6485H10.6885C10.2785 17.6485 9.93852 17.3085 9.93852 16.8985C9.93852 16.4885 10.2785 16.1485 10.6885 16.1485H12.1185C12.7485 16.1485 13.2085 15.7285 13.2085 15.1385C13.2085 14.6585 12.8785 14.2685 12.3785 14.1385C11.3285 13.8785 10.1885 13.6385 8.99852 13.6585C7.49852 13.6985 6.37852 14.4586 5.07852 15.3486L4.55852 15.6986C4.20852 15.9286 3.74852 15.8385 3.51852 15.4885C3.28852 15.1485 3.37852 14.6786 3.72852 14.4486L4.23853 14.1086C5.60853 13.1686 7.02852 12.2085 8.97852 12.1585C10.3385 12.1285 11.5985 12.3986 12.7585 12.6786C13.9385 12.9786 14.7285 13.9685 14.7285 15.1385C14.7285 16.5485 13.5885 17.6485 12.1385 17.6485H12.1185Z" fill="black"/>
</svg>
