<svg width="24" height="24" viewBox="0 0 24 24" fill="none" xmlns="http://www.w3.org/2000/svg">
<path d="M9.79767 20.7198C8.81767 20.7198 7.88768 20.3398 7.18768 19.6398C6.89768 19.3498 6.89768 18.8698 7.18768 18.5798C7.47768 18.2898 7.95768 18.2898 8.24768 18.5798C9.06768 19.4098 10.5077 19.4098 11.3377 18.5798C11.7477 18.1698 11.9777 17.6198 11.9777 17.0398C11.9777 16.4598 11.7477 15.9097 11.3377 15.4897C10.9277 15.0797 10.3777 14.8499 9.79767 14.8499H6.36768C5.95768 14.8499 5.61768 14.5099 5.61768 14.0999C5.61768 13.6899 5.95768 13.3499 6.36768 13.3499H9.79767C10.7777 13.3499 11.7077 13.7298 12.3977 14.4298C13.0977 15.1298 13.4777 16.0598 13.4777 17.0398C13.4777 18.0198 13.0977 18.9498 12.3977 19.6398C11.7077 20.3398 10.7777 20.7198 9.79767 20.7198Z" fill="black"/>
<path d="M12.2576 9.98999H3.22754C2.81754 9.98999 2.47754 9.64999 2.47754 9.23999C2.47754 8.82999 2.81754 8.48999 3.22754 8.48999H12.2576C12.7576 8.48999 13.2276 8.30007 13.5676 7.95007C14.2876 7.22007 14.2876 6.04007 13.5676 5.32007C13.2176 4.97007 12.7476 4.78003 12.2576 4.78003C11.7576 4.78003 11.2976 4.97008 10.9476 5.33008C10.6576 5.62008 10.1776 5.62008 9.88757 5.33008C9.59757 5.04008 9.59757 4.56002 9.88757 4.27002C10.5176 3.64002 11.3676 3.28003 12.2576 3.28003C13.1576 3.28003 13.9976 3.63002 14.6276 4.27002C15.9376 5.58002 15.9376 7.71002 14.6276 9.02002C13.9976 9.65002 13.1576 10 12.2476 10L12.2576 9.98999Z" fill="black"/>
<path d="M18.1673 17.0201C17.3873 17.0201 16.6573 16.7102 16.1073 16.1602C15.8173 15.8702 15.8173 15.3902 16.1073 15.1002C16.3973 14.8102 16.8773 14.8102 17.1673 15.1002C17.4373 15.3702 17.7873 15.5201 18.1673 15.5201C18.5473 15.5201 18.8973 15.3702 19.1673 15.1002C19.4373 14.8302 19.5873 14.4802 19.5873 14.1002C19.5873 13.7202 19.4373 13.3602 19.1673 13.1002C18.9073 12.8402 18.5473 12.6902 18.1673 12.6902H14.0273C13.6173 12.6902 13.2773 12.3502 13.2773 11.9402C13.2773 11.5302 13.6173 11.1902 14.0273 11.1902H18.1673C18.9473 11.1902 19.6773 11.4902 20.2273 12.0402C20.7773 12.6002 21.0873 13.3302 21.0873 14.1102C21.0873 14.8902 20.7873 15.6202 20.2273 16.1702C19.6773 16.7202 18.9473 17.0302 18.1673 17.0302V17.0201Z" fill="black"/>
<path d="M3.45765 20.7199C3.35765 20.7199 3.24765 20.6998 3.14765 20.6498C2.76765 20.4798 2.60766 20.0299 2.77766 19.6599L3.23762 18.6498C3.40762 18.2698 3.85761 18.1099 4.22761 18.2799C4.60761 18.4499 4.7676 18.8998 4.5976 19.2698L4.13764 20.2799C4.01764 20.5599 3.73765 20.7199 3.45765 20.7199Z" fill="black"/>
<path d="M18.6876 6.79011C18.5876 6.79011 18.4776 6.77016 18.3776 6.72016C17.9976 6.55016 17.8376 6.10017 18.0076 5.73017L18.9176 3.72016C19.0876 3.34016 19.5377 3.18017 19.9077 3.35017C20.2877 3.52017 20.4477 3.97016 20.2777 4.34016L19.3676 6.35017C19.2376 6.63017 18.9676 6.79011 18.6876 6.79011Z" fill="black"/>
<path d="M15.1373 20.7199C15.0373 20.7199 14.9273 20.6998 14.8273 20.6498C14.4473 20.4798 14.2873 20.0299 14.4573 19.6599L15.0173 18.4399C15.1873 18.0599 15.6373 17.8999 16.0073 18.0699C16.3873 18.2399 16.5473 18.6899 16.3773 19.0599L15.8173 20.2799C15.6873 20.5599 15.4173 20.7199 15.1373 20.7199Z" fill="black"/>
<path d="M5.30726 7.08027C5.20726 7.08027 5.09726 7.0602 4.99726 7.0102C4.61726 6.8402 4.45727 6.39021 4.62727 6.02021L5.53724 4.0102C5.70724 3.6302 6.15729 3.4702 6.52729 3.6402C6.90729 3.8102 7.06728 4.2602 6.89728 4.6302L5.98725 6.6402C5.85725 6.9202 5.58726 7.08027 5.30726 7.08027Z" fill="black"/>
<path d="M3.68722 14.8601C3.32722 14.8601 3.00723 14.5901 2.94723 14.2301C2.90723 14.0101 2.9672 13.79 3.1072 13.62C3.3972 13.28 3.97723 13.28 4.26723 13.62C4.40723 13.79 4.47722 14.0201 4.43722 14.2301C4.36722 14.5901 4.05723 14.8601 3.69723 14.8601H3.68722Z" fill="black"/>
<path d="M20.5173 19.22C20.2973 19.22 20.0773 19.12 19.9373 18.95C19.7973 18.78 19.7373 18.55 19.7773 18.33C19.8473 17.98 20.1573 17.72 20.5173 17.72C20.8773 17.72 21.1873 17.98 21.2573 18.33C21.2973 18.55 21.2473 18.78 21.0973 18.95C20.9473 19.12 20.7373 19.22 20.5173 19.22Z" fill="black"/>
<path d="M20.7672 10C20.4072 10 20.0972 9.74001 20.0272 9.39001C20.0072 9.29001 20.0072 9.1901 20.0272 9.1001C20.0972 8.7501 20.4072 8.48999 20.7672 8.48999C21.1272 8.48999 21.4372 8.7501 21.5072 9.1001C21.5272 9.2001 21.5272 9.30001 21.5072 9.39001C21.4372 9.74001 21.1272 10 20.7672 10Z" fill="black"/>
</svg>
