<svg width="24" height="24" viewBox="0 0 24 24" fill="none" xmlns="http://www.w3.org/2000/svg">
<path d="M9.98041 8.77258H5.1604C4.7504 8.77258 4.4104 8.43258 4.4104 8.02258C4.4104 7.61258 4.7504 7.27258 5.1604 7.27258H9.98041C10.7504 7.27258 11.3004 6.72264 11.3004 5.95264C11.3004 5.18264 10.7104 4.63257 9.98041 4.63257C9.60041 4.63257 9.25041 4.79263 9.00041 5.07263C8.73041 5.38263 8.2504 5.41258 7.9404 5.14258C7.6304 4.87258 7.60041 4.39264 7.87041 4.08264C8.40041 3.48264 9.17041 3.13257 9.98041 3.13257C11.5404 3.13257 12.8004 4.40264 12.8004 5.95264C12.8004 7.50264 11.5904 8.77258 9.98041 8.77258Z" fill="black"/>
<path d="M15.9807 21.3226C14.8607 21.3226 13.8307 20.7727 13.2007 19.8527C12.9707 19.5127 13.0607 19.0426 13.4007 18.8126C13.7407 18.5826 14.2107 18.6726 14.4407 19.0126C14.7807 19.5226 15.3607 19.8226 15.9707 19.8226C16.9907 19.8226 17.8207 18.9927 17.8207 17.9827C17.8207 16.8927 17.0607 16.1326 15.9707 16.1326H11.9407C11.5307 16.1326 11.1907 15.7926 11.1907 15.3826C11.1907 14.9726 11.5307 14.6326 11.9407 14.6326H15.9707C17.8807 14.6326 19.3207 16.0727 19.3207 17.9827C19.3207 19.8927 17.8207 21.3226 15.9707 21.3226H15.9807Z" fill="black"/>
<path d="M5.52023 18.5427H3.00024C2.59024 18.5427 2.25024 18.2027 2.25024 17.7927C2.25024 17.3827 2.59024 17.0427 3.00024 17.0427H5.52023C5.93023 17.0427 6.27023 17.3827 6.27023 17.7927C6.27023 18.2027 5.93023 18.5427 5.52023 18.5427Z" fill="black"/>
<path d="M10.7802 12.4524H3.00024C2.59024 12.4524 2.25024 12.1124 2.25024 11.7024C2.25024 11.2924 2.59024 10.9524 3.00024 10.9524H10.7802C11.1902 10.9524 11.5302 11.2924 11.5302 11.7024C11.5302 12.1124 11.1902 12.4524 10.7802 12.4524Z" fill="black"/>
<path d="M13.4299 12.4524C13.0199 12.4524 12.6799 12.1124 12.6799 11.7024C12.6799 11.2924 13.0199 10.9524 13.4299 10.9524H18.2499C19.7199 10.9224 20.2499 9.90239 20.2499 8.95239C20.2499 8.54239 20.5899 8.20239 20.9999 8.20239C21.4099 8.20239 21.7499 8.54239 21.7499 8.95239C21.7499 10.9824 20.3199 12.4124 18.2699 12.4524H13.4399H13.4299Z" fill="black"/>
<path d="M7.87084 21.3224C7.08084 21.3224 6.26084 20.9824 5.68084 20.3924C5.14084 19.8524 4.86084 19.1624 4.87084 18.4324C4.83084 15.9824 7.32084 13.6624 7.42084 13.5624C7.71084 13.3024 8.15083 13.3024 8.44083 13.5624C8.55083 13.6624 11.0308 15.9824 10.9908 18.4524C11.0008 19.1524 10.7208 19.8524 10.1808 20.3824C9.59084 20.9724 8.73084 21.2724 7.92084 21.3124H7.87084V21.3224ZM7.93084 15.2024C7.25084 15.9824 6.35084 17.2824 6.37084 18.4424C6.37084 18.8724 6.57083 19.1625 6.74083 19.3425C7.05083 19.6525 7.50084 19.8024 7.92084 19.8224C8.36084 19.8524 8.82084 19.6425 9.12084 19.3325C9.29084 19.1625 9.50083 18.8625 9.49083 18.4625C9.51083 17.2825 8.61084 15.9824 7.93084 15.2024Z" fill="black"/>
<path d="M16.5604 9.7326C15.8404 9.7326 15.0904 9.42251 14.5704 8.89251C14.0904 8.41251 13.8404 7.79251 13.8504 7.14251C13.8104 4.99251 15.9904 2.96249 16.0804 2.87249C16.3704 2.61249 16.8104 2.61249 17.1004 2.87249C17.1904 2.96249 19.3604 4.98252 19.3304 7.15252C19.3404 7.78252 19.0904 8.4025 18.6104 8.8825C18.0804 9.4125 17.3304 9.70259 16.5804 9.72259H16.5504L16.5604 9.7326ZM16.5904 4.52251C16.0304 5.18251 15.3404 6.22251 15.3504 7.14251C15.3504 7.48251 15.5004 7.70258 15.6304 7.84258C15.8704 8.09258 16.2304 8.2426 16.5804 8.2326C16.9704 8.1926 17.3004 8.08257 17.5404 7.83257C17.6704 7.70257 17.8304 7.47254 17.8204 7.17254C17.8304 6.22254 17.1404 5.18251 16.5804 4.52251H16.5904Z" fill="black"/>
</svg>
