<svg width="24" height="24" viewBox="0 0 24 24" fill="none" xmlns="http://www.w3.org/2000/svg">
<path fill-rule="evenodd" clip-rule="evenodd" d="M9.98575 4.40173C9.59477 4.40173 9.24412 4.57068 9.00177 4.84196C8.72581 5.15086 8.25169 5.17756 7.94279 4.9016C7.63389 4.62564 7.60718 4.15152 7.88314 3.84262C8.39878 3.26543 9.15096 2.90173 9.98575 2.90173C11.5436 2.90173 12.8066 4.16432 12.8066 5.72169C12.8066 7.25935 11.6483 8.5425 9.98575 8.5425H5.16406C4.74985 8.5425 4.41406 8.20671 4.41406 7.7925C4.41406 7.37828 4.74985 7.0425 5.16406 7.0425H9.98575C10.7798 7.0425 11.3066 6.47165 11.3066 5.72169C11.3066 4.99315 10.7155 4.40173 9.98575 4.40173Z" fill="black"/>
<path fill-rule="evenodd" clip-rule="evenodd" d="M5.10254 15.1487C5.10254 14.7345 5.43833 14.3987 5.85254 14.3987H15.9852C17.9725 14.3987 19.3345 15.921 19.3345 17.7491C19.3345 19.5983 17.8359 21.0983 15.9852 21.0983C14.8285 21.0983 13.8091 20.5114 13.2083 19.6225C12.9763 19.2794 13.0664 18.8131 13.4096 18.5812C13.7528 18.3492 14.219 18.4393 14.451 18.7825C14.7848 19.2764 15.3476 19.5983 15.9852 19.5983C17.0071 19.5983 17.8345 18.7703 17.8345 17.7491C17.8345 16.7045 17.0999 15.8987 15.9852 15.8987H5.85254C5.43833 15.8987 5.10254 15.5629 5.10254 15.1487Z" fill="black"/>
<path fill-rule="evenodd" clip-rule="evenodd" d="M2.25 11.4706C2.25 11.0564 2.58579 10.7206 3 10.7206H10.7778C11.192 10.7206 11.5278 11.0564 11.5278 11.4706C11.5278 11.8848 11.192 12.2206 10.7778 12.2206H3C2.58579 12.2206 2.25 11.8848 2.25 11.4706Z" fill="black"/>
<path fill-rule="evenodd" clip-rule="evenodd" d="M18.2532 6.72644C17.6837 6.72644 17.1714 6.96366 16.8068 7.34643C16.5212 7.64639 16.0465 7.65799 15.7465 7.37234C15.4465 7.08669 15.4349 6.61195 15.7206 6.31199C16.3564 5.64434 17.2564 5.22644 18.2532 5.22644C20.1849 5.22644 21.7499 6.793 21.7499 8.72405C21.7499 9.64855 21.4412 10.5212 20.8226 11.1719C20.1995 11.8274 19.3133 12.2033 18.2656 12.2206L18.2532 12.2208V12.2207H13.4316C13.0174 12.2207 12.6816 11.8849 12.6816 11.4707C12.6816 11.0565 13.0174 10.7207 13.4316 10.7207H18.2467C18.9357 10.708 19.4211 10.4691 19.7354 10.1384C20.0552 9.80206 20.2499 9.31579 20.2499 8.72405C20.2499 7.62076 19.3558 6.72644 18.2532 6.72644Z" fill="black"/>
<path fill-rule="evenodd" clip-rule="evenodd" d="M3.48242 18.5527C3.48242 18.1385 3.81821 17.8027 4.23242 17.8027H9.3623C9.77652 17.8027 10.1123 18.1385 10.1123 18.5527C10.1123 18.9669 9.77652 19.3027 9.3623 19.3027H4.23242C3.81821 19.3027 3.48242 18.9669 3.48242 18.5527Z" fill="black"/>
</svg>
