<svg width="24" height="24" viewBox="0 0 24 24" fill="none" xmlns="http://www.w3.org/2000/svg">
<path fill-rule="evenodd" clip-rule="evenodd" d="M7.34389 20.2328C8.87836 21.7673 11.365 21.7673 12.8994 20.2328C14.4338 18.6985 14.4339 16.2122 12.8999 14.6777C12.1336 13.9101 11.1265 13.5264 10.1222 13.5264H4.76074C4.34653 13.5264 4.01074 13.8622 4.01074 14.2764C4.01074 14.6906 4.34653 15.0264 4.76074 15.0264H10.1222C10.7451 15.0264 11.3652 15.2635 11.8383 15.7375L11.8388 15.7379C12.7875 16.6866 12.7875 18.2235 11.8388 19.1722C10.8901 20.1208 9.35324 20.1208 8.40455 19.1722C8.11166 18.8793 7.63679 18.8793 7.34389 19.1722C7.051 19.465 7.051 19.9399 7.34389 20.2328Z" fill="black"/>
<path fill-rule="evenodd" clip-rule="evenodd" d="M2.25 9.01135C2.25 9.42557 2.58579 9.76135 3 9.76135H11.7822C12.6954 9.76135 13.6112 9.41265 14.3085 8.7153C15.7034 7.32041 15.703 5.05864 14.3088 3.66299C12.9135 2.26627 10.6515 2.26857 9.25622 3.66245C8.96318 3.95519 8.96294 4.43006 9.25568 4.72311C9.54842 5.01615 10.0233 5.01639 10.3163 4.72365C11.127 3.91384 12.4392 3.91388 13.2476 4.72311C14.0571 5.5334 14.0567 6.84584 13.2479 7.65464C12.8434 8.05913 12.3142 8.26135 11.7822 8.26135H3C2.58579 8.26135 2.25 8.59714 2.25 9.01135Z" fill="black"/>
<path fill-rule="evenodd" clip-rule="evenodd" d="M16.4697 16.4637C17.6776 17.6716 19.6364 17.6716 20.8443 16.4637C22.0522 15.2558 22.0522 13.2969 20.8443 12.089L20.8438 12.0885C20.2399 11.486 19.4482 11.1834 18.657 11.1834H15C14.5858 11.1834 14.25 11.5192 14.25 11.9334C14.25 12.3476 14.5858 12.6834 15 12.6834H18.657C19.0657 12.6834 19.4718 12.8387 19.7839 13.15C20.4058 13.7721 20.4057 14.781 19.7837 15.403C19.1616 16.0252 18.1524 16.0252 17.5303 15.403C17.2374 15.1102 16.7626 15.1102 16.4697 15.403C16.1768 15.6959 16.1768 16.1708 16.4697 16.4637Z" fill="black"/>
</svg>
