<svg width="24" height="24" viewBox="0 0 24 24" fill="none" xmlns="http://www.w3.org/2000/svg">
<path fill-rule="evenodd" clip-rule="evenodd" d="M17.0105 6.64084C16.1533 6.11972 15.0469 6.11972 14.1897 6.64084C12.8539 7.45303 11.1463 7.45303 9.81048 6.64084C8.95335 6.11972 7.84686 6.11972 6.98973 6.64085C5.65388 7.45303 3.94636 7.45305 2.61049 6.64089C2.25656 6.42571 2.14407 5.96435 2.35925 5.61042C2.57443 5.25648 3.03579 5.144 3.38973 5.35918C4.24686 5.88029 5.35334 5.88027 6.21047 5.35915L6.6001 6L6.21047 5.35915C7.54634 4.54696 9.25387 4.54695 10.5897 5.35914L10.2001 5.99999L10.5897 5.35914C11.4469 5.88027 12.5533 5.88027 13.4105 5.35914C14.7463 4.54695 16.4539 4.54695 17.7897 5.35914C18.6469 5.88027 19.7533 5.88027 20.6105 5.35914C20.9644 5.14396 21.4258 5.25643 21.641 5.61036C21.8561 5.9643 21.7437 6.42566 21.3897 6.64084C20.0539 7.45303 18.3463 7.45303 17.0105 6.64084Z" fill="black"/>
<path fill-rule="evenodd" clip-rule="evenodd" d="M17.0105 12.6408C16.1533 12.1197 15.0469 12.1197 14.1897 12.6408C12.8539 13.453 11.1463 13.453 9.81048 12.6408C8.95335 12.1197 7.84686 12.1197 6.98973 12.6408C5.65388 13.453 3.94636 13.4531 2.61049 12.6409C2.25656 12.4257 2.14407 11.9644 2.35925 11.6104C2.57443 11.2565 3.03579 11.144 3.38973 11.3592C4.24686 11.8803 5.35334 11.8803 6.21047 11.3591L6.6001 12L6.21047 11.3591C7.54634 10.547 9.25387 10.547 10.5897 11.3591L10.2001 12L10.5897 11.3591C11.4469 11.8803 12.5533 11.8803 13.4105 11.3591C14.7463 10.547 16.4539 10.547 17.7897 11.3591C18.6469 11.8803 19.7533 11.8803 20.6105 11.3591C20.9644 11.144 21.4258 11.2564 21.641 11.6104C21.8561 11.9643 21.7437 12.4257 21.3897 12.6408C20.0539 13.453 18.3463 13.453 17.0105 12.6408Z" fill="black"/>
<path fill-rule="evenodd" clip-rule="evenodd" d="M17.0105 18.6408C16.1533 18.1197 15.0469 18.1197 14.1897 18.6408C12.8539 19.453 11.1463 19.453 9.81048 18.6408C8.95335 18.1197 7.84686 18.1197 6.98973 18.6408C5.65388 19.453 3.94636 19.4531 2.61049 18.6409C2.25656 18.4257 2.14407 17.9644 2.35925 17.6104C2.57443 17.2565 3.03579 17.144 3.38973 17.3592C4.24686 17.8803 5.35334 17.8803 6.21047 17.3591L6.6001 18L6.21047 17.3591C7.54634 16.547 9.25387 16.547 10.5897 17.3591L10.2001 18L10.5897 17.3591C11.4469 17.8803 12.5533 17.8803 13.4105 17.3591C14.7463 16.547 16.4539 16.547 17.7897 17.3591C18.6469 17.8803 19.7533 17.8803 20.6105 17.3591C20.9644 17.144 21.4258 17.2564 21.641 17.6104C21.8561 17.9643 21.7437 18.4257 21.3897 18.6408C20.0539 19.453 18.3463 19.453 17.0105 18.6408Z" fill="black"/>
</svg>
