<svg width="24" height="24" viewBox="0 0 24 24" fill="none" xmlns="http://www.w3.org/2000/svg">
<path fill-rule="evenodd" clip-rule="evenodd" d="M17.1211 6.02835C16.2977 6.52896 15.2345 6.52896 14.4111 6.02835C13.109 5.23668 11.4448 5.23668 10.1426 6.02835C9.31924 6.52896 8.25605 6.52896 7.43266 6.02835C6.13055 5.23668 4.46633 5.23666 3.1642 6.0283C2.81027 6.24348 2.69778 6.70484 2.91296 7.05878C3.12814 7.41272 3.5895 7.5252 3.94344 7.31002C4.76683 6.80942 5.83001 6.80944 6.6534 7.31005C7.95552 8.10172 9.61976 8.10173 10.9219 7.31005C11.7453 6.80944 12.8085 6.80944 13.6318 7.31005C14.934 8.10173 16.5982 8.10173 17.9003 7.31005C18.7237 6.80944 19.7869 6.80944 20.6103 7.31005C20.9642 7.52524 21.4256 7.41276 21.6408 7.05883C21.8559 6.7049 21.7435 6.24354 21.3895 6.02835C20.0874 5.23667 18.4232 5.23668 17.1211 6.02835Z" fill="black"/>
<path fill-rule="evenodd" clip-rule="evenodd" d="M17.1211 11.8438C16.2978 12.3444 15.2346 12.3444 14.4112 11.8438C13.1091 11.0521 11.4448 11.0521 10.1427 11.8438C9.78877 12.059 9.6763 12.5203 9.89149 12.8743C10.1067 13.2282 10.568 13.3407 10.922 13.1255C11.7454 12.6249 12.8085 12.6249 13.6319 13.1255C14.934 13.9172 16.5983 13.9172 17.9004 13.1255C18.7238 12.6249 19.787 12.6249 20.6104 13.1255C20.9643 13.3407 21.4257 13.2282 21.6408 12.8743C21.856 12.5203 21.7436 12.059 21.3896 11.8438C20.0875 11.0521 18.4233 11.0521 17.1211 11.8438Z" fill="black"/>
<path fill-rule="evenodd" clip-rule="evenodd" d="M17.1211 17.6591C16.2977 18.1597 15.2345 18.1597 14.4111 17.6591C13.109 16.8674 11.4448 16.8674 10.1426 17.6591C9.31924 18.1597 8.25605 18.1597 7.43266 17.6591C6.13055 16.8674 4.46633 16.8674 3.1642 17.659C2.81027 17.8742 2.69778 18.3356 2.91296 18.6895C3.12814 19.0435 3.5895 19.1559 3.94344 18.9408C4.76683 18.4402 5.83001 18.4402 6.6534 18.9408C7.95552 19.7325 9.61976 19.7325 10.9219 18.9408C11.7453 18.4402 12.8085 18.4402 13.6318 18.9408C14.934 19.7325 16.5982 19.7325 17.9003 18.9408C18.7237 18.4402 19.7869 18.4402 20.6103 18.9408C20.9642 19.156 21.4256 19.0435 21.6408 18.6896C21.8559 18.3356 21.7435 17.8743 21.3895 17.6591C20.0874 16.8674 18.4232 16.8674 17.1211 17.6591Z" fill="black"/>
<path fill-rule="evenodd" clip-rule="evenodd" d="M5.94098 3.50122C6.22077 3.80666 6.19997 4.28108 5.89453 4.56086L4.11051 6.19504L5.87168 7.80827C6.17711 8.08806 6.19791 8.56248 5.91813 8.86792C5.63834 9.17335 5.16392 9.19415 4.85848 8.91437L2.49357 6.74808C2.33847 6.60602 2.25016 6.40536 2.25016 6.19504C2.25016 5.98471 2.33847 5.78405 2.49357 5.64199L4.88134 3.45477C5.18678 3.17498 5.6612 3.19578 5.94098 3.50122Z" fill="black"/>
<path fill-rule="evenodd" clip-rule="evenodd" d="M5.94098 15.132C6.22077 15.4374 6.19997 15.9118 5.89453 16.1916L4.11051 17.8258L5.87168 19.439C6.17711 19.7188 6.19791 20.1932 5.91813 20.4987C5.63834 20.8041 5.16392 20.8249 4.85848 20.5451L2.49357 18.3788C2.33847 18.2368 2.25016 18.0361 2.25016 17.8258C2.25016 17.6154 2.33847 17.4148 2.49357 17.2727L4.88134 15.0855C5.18678 14.8057 5.6612 14.8265 5.94098 15.132Z" fill="black"/>
<path fill-rule="evenodd" clip-rule="evenodd" d="M12.9193 9.31665C13.199 9.62209 13.1782 10.0965 12.8728 10.3763L11.0888 12.0105L12.8499 13.6237C13.1554 13.9035 13.1762 14.3779 12.8964 14.6833C12.6166 14.9888 12.1422 15.0096 11.8368 14.7298L9.47184 12.5635C9.31674 12.4214 9.22843 12.2208 9.22843 12.0105C9.22843 11.8001 9.31674 11.5995 9.47184 11.4574L11.8596 9.2702C12.1651 8.99041 12.6395 9.01121 12.9193 9.31665Z" fill="black"/>
</svg>
