<svg width="24" height="24" viewBox="0 0 24 24" fill="none" xmlns="http://www.w3.org/2000/svg">
<path d="M8.01996 20.8599H6.39996C5.98996 20.8599 5.64996 20.5199 5.64996 20.1099C5.64996 19.6999 5.98996 19.3599 6.39996 19.3599H7.46997L8.18994 17.1099C8.28994 16.7999 8.57996 16.5899 8.89996 16.5899H11.24V15.3399C5.26999 14.5499 5.18994 4.33989 5.18994 3.88989C5.18994 3.68989 5.26997 3.49989 5.40997 3.35989C5.54997 3.21989 5.73994 3.13989 5.93994 3.13989H18.04C18.45 3.13989 18.79 3.47989 18.79 3.88989C18.79 4.33989 18.72 14.5599 12.74 15.3399V16.5799H15.23C15.56 16.5799 15.8499 16.7899 15.9399 17.0999L16.66 19.3499H17.73C18.14 19.3499 18.48 19.6899 18.48 20.0999C18.48 20.5099 18.14 20.8499 17.73 20.8499H8L8.01996 20.8599ZM9.04999 19.3599H15.11L14.7 18.0899H12.03C12.03 18.0899 11.99 18.0899 11.98 18.0899H9.45996L9.04999 19.3599ZM6.72998 4.63989C6.85998 6.96989 7.62995 13.8899 12.0099 13.8899C16.3899 13.8899 17.15 6.96989 17.28 4.63989H6.73999H6.72998Z" fill="black"/>
<path d="M5.4 12.0501C5.26 12.0501 5.12003 12.0101 4.99003 11.9301C1.84003 9.85015 2.26 5.75014 2.28 5.57014C2.32 5.19014 2.64 4.90015 3.03 4.90015H6.06003C6.47003 4.90015 6.81003 5.24015 6.81003 5.65015C6.81003 6.06015 6.47003 6.40015 6.06003 6.40015H3.75998C3.78998 7.46015 4.08998 9.53014 5.81998 10.6701C6.16998 10.9001 6.26 11.3601 6.03 11.7101C5.89 11.9301 5.65 12.0501 5.4 12.0501Z" fill="black"/>
<path d="M18.6 12.0501C18.36 12.0501 18.12 11.9301 17.97 11.7101C17.74 11.3601 17.84 10.9001 18.18 10.6701C19.92 9.53014 20.21 7.46015 20.24 6.40015H17.9399C17.5299 6.40015 17.1899 6.06015 17.1899 5.65015C17.1899 5.24015 17.5299 4.90015 17.9399 4.90015H20.97C21.35 4.90015 21.67 5.19014 21.72 5.57014C21.74 5.74014 22.1599 9.85015 19.0099 11.9301C18.8799 12.0101 18.74 12.0501 18.6 12.0501Z" fill="black"/>
<path d="M12.0599 6.99017C11.5599 6.99017 11.1499 6.58017 11.1499 6.08017C11.1499 5.84017 11.2399 5.61017 11.4099 5.44017C11.5799 5.27017 11.8099 5.17017 12.0499 5.17017C12.5499 5.17017 12.9599 5.58017 12.9599 6.08017C12.9599 6.58017 12.5499 6.99017 12.0499 6.99017H12.0599Z" fill="black"/>
<path d="M14.35 8.15009C13.85 8.15009 13.4399 7.74009 13.4399 7.24009C13.4399 7.02009 13.53 6.78009 13.7 6.61009C13.87 6.44009 14.11 6.34009 14.35 6.34009C14.85 6.34009 15.2599 6.75009 15.2599 7.25009C15.2599 7.75009 14.85 8.1601 14.35 8.1601V8.15009Z" fill="black"/>
<path d="M9.78992 8.15032C9.28992 8.15032 8.87988 7.74032 8.87988 7.24032C8.87988 6.74032 9.28992 6.33032 9.78992 6.33032C10.2899 6.33032 10.6999 6.74032 10.6999 7.24032C10.6999 7.74032 10.2899 8.15032 9.78992 8.15032Z" fill="black"/>
<path d="M10.5401 11.8605C10.2901 11.8605 10.0301 11.8105 9.79006 11.6505C9.46006 11.4405 9.26003 11.0805 9.19003 10.6105C9.09003 10.0105 9.29008 9.39052 9.74008 8.86052C10.3101 8.19052 11.21 7.78052 12.08 7.78052C13.62 7.78052 14.9701 9.00052 14.9801 10.3805C14.9801 10.9205 14.8301 11.3205 14.5001 11.5805C13.9801 11.9905 13.3401 11.8405 12.7801 11.7005C12.3201 11.5905 11.96 11.5605 11.45 11.7005C11.17 11.7805 10.8501 11.8605 10.5301 11.8605H10.5401ZM12.08 9.27052C11.65 9.27052 11.17 9.49052 10.88 9.83052C10.79 9.93052 10.6501 10.1405 10.6701 10.3505C10.7901 10.3305 10.95 10.2905 11.07 10.2505C11.37 10.1705 11.72 10.0805 12.08 10.0805C12.44 10.0805 12.82 10.1705 13.14 10.2405C13.24 10.2605 13.3701 10.2905 13.4801 10.3205C13.4201 9.83052 12.82 9.28052 12.08 9.28052V9.27052Z" fill="black"/>
</svg>
