<svg width="24" height="24" viewBox="0 0 24 24" fill="none" xmlns="http://www.w3.org/2000/svg">
<path d="M8.81717 11.3977L9.50718 11.1177L8.80716 11.3777C8.48716 10.5877 8.12717 9.70767 8.13717 8.34767C8.15717 6.72767 9.12718 5.70766 9.97718 4.80766C10.5672 4.18766 11.1172 3.60768 11.3272 2.88768C11.4072 2.61768 11.6272 2.40768 11.9072 2.35768C12.1872 2.29768 12.4672 2.41768 12.6472 2.63768C12.7372 2.74768 14.7772 5.48766 13.9172 8.89766C13.8172 9.29766 13.4072 9.54766 13.0072 9.43766C12.6072 9.33766 12.3672 8.92766 12.4672 8.52766C12.8572 6.99766 12.4772 5.60765 12.0772 4.67765C11.7672 5.10765 11.4072 5.48767 11.0672 5.84767C10.3072 6.64767 9.64717 7.33766 9.63717 8.36766C9.62717 9.41766 9.88718 10.0677 10.1972 10.8177L8.81717 11.4077V11.3977Z" fill="black"/>
<path d="M6.57703 12.3679C6.50703 12.3679 6.43704 12.3679 6.36704 12.3379C5.96704 12.2279 5.73704 11.8079 5.84704 11.4079C5.95704 11.0079 6.36704 10.7679 6.76704 10.8879H6.77703C7.17703 11.0079 7.40704 11.4179 7.29704 11.8179C7.20704 12.1479 6.90703 12.3579 6.57703 12.3579V12.3679Z" fill="black"/>
<path d="M12.3071 21.6579C12.1671 21.6579 12.0271 21.6579 11.8871 21.6579C8.21707 21.5179 5.65707 19.5379 4.85707 16.2279C4.84707 16.1879 4.80708 16.0279 4.75708 15.8079C4.56708 14.8979 4.11707 12.7579 2.85707 12.0179C2.61707 11.8779 2.47707 11.6079 2.48707 11.3279C2.49707 11.0479 2.67708 10.7979 2.92708 10.6879C2.92708 10.6879 3.39707 10.4779 3.77707 10.3079C4.00707 9.5779 4.51708 9.00791 5.22708 8.69791C6.06708 8.31791 7.07707 8.36791 7.77707 8.81791C8.67707 9.38791 9.11708 10.2079 9.42708 11.0179C10.6671 9.27789 11.9671 8.66791 12.5871 8.37791L12.7771 8.28791C13.2371 8.05791 13.6671 7.83792 14.0971 7.63792C16.3871 6.52792 18.0471 5.71792 19.3471 3.35792C19.4871 3.09792 19.7671 2.94791 20.0671 2.97791C20.3671 3.00791 20.6171 3.20789 20.7071 3.48789C21.8671 6.94789 21.7771 10.0079 20.4271 12.3479C19.4371 14.0679 17.8171 15.3579 15.6771 16.1479C17.4271 16.6579 19.1171 16.2779 19.7071 16.1179C19.9771 16.0379 20.2571 16.1179 20.4471 16.3179C20.6371 16.5179 20.7071 16.8079 20.6171 17.0679C19.7671 19.6479 16.0871 21.6579 12.2871 21.6579H12.3071ZM4.61708 11.5779C5.66708 12.8279 6.04708 14.6179 6.22708 15.4979C6.25708 15.6479 6.27707 15.7579 6.29707 15.8179C7.17707 19.4379 10.2171 20.0879 11.9471 20.1579C14.4471 20.2679 17.0671 19.2679 18.4171 17.8679C17.0071 17.9879 15.0571 17.8579 13.2971 16.6679C13.1071 16.5879 12.9471 16.4379 12.8771 16.2279C12.7471 15.8779 12.8971 15.4879 13.2271 15.3079C13.3071 15.2679 13.3971 15.2379 13.4771 15.2279C16.1371 14.6779 18.0971 13.4179 19.1471 11.5979C20.0971 9.94791 20.2871 7.9079 19.7371 5.4979C18.3471 7.2479 16.6571 8.06789 14.7571 8.98789C14.3471 9.18789 13.9171 9.39791 13.4671 9.62791L13.2371 9.73789C12.5571 10.0579 11.1571 10.7179 9.93707 13.0979C9.80707 13.3579 9.52707 13.5279 9.23707 13.5079C8.94707 13.4979 8.68707 13.3079 8.57707 13.0379C8.47707 12.7779 8.37708 12.5079 8.28708 12.2379C7.99708 11.3679 7.71707 10.5479 6.98707 10.0879C6.74707 9.9379 6.27707 9.87791 5.84707 10.0679C5.46707 10.2379 5.23707 10.5479 5.16707 10.9779C5.12707 11.2379 4.94708 11.4579 4.70708 11.5479C4.68708 11.5479 4.65708 11.5679 4.61708 11.5879V11.5779Z" fill="black"/>
</svg>
