<svg width="24" height="24" viewBox="0 0 24 24" fill="none" xmlns="http://www.w3.org/2000/svg">
<path d="M21.0129 11.539C20.8429 11.539 20.6729 11.479 20.5329 11.369L12.8429 5.05898C12.3629 4.65898 11.6629 4.65898 11.1729 5.05898L3.48287 11.369C3.16287 11.629 2.69287 11.589 2.42287 11.269C2.16287 10.949 2.20285 10.479 2.52285 10.209L10.2128 3.89897C11.2428 3.04897 12.7529 3.04897 13.7829 3.89897L21.4729 10.209C21.7929 10.469 21.8429 10.949 21.5729 11.269C21.4229 11.449 21.2129 11.539 20.9929 11.539H21.0129Z" fill="black"/>
<path d="M14.6729 20.7387H9.36289C7.77289 20.7387 6.43288 19.5987 6.16288 18.0287L3.78288 9.75868C3.67288 9.35868 3.90289 8.94866 4.29289 8.82866C4.69289 8.70866 5.10288 8.94867 5.22288 9.33867L7.6229 17.6887C7.7829 18.6087 8.50289 19.2287 9.36289 19.2287H14.6729C15.5229 19.2287 16.2529 18.6187 16.3929 17.7787L18.8129 9.34868C18.9229 8.94868 19.3429 8.71867 19.7429 8.83867C20.1429 8.94867 20.3729 9.36866 20.2529 9.76866L17.8529 18.1187C17.6029 19.5987 16.2629 20.7387 14.6729 20.7387Z" fill="black"/>
<path d="M12.0129 13.6788C10.3229 13.6788 8.95288 12.3088 8.95288 10.6188C8.95288 8.92884 10.3229 7.55884 12.0129 7.55884C13.7029 7.55884 15.0729 8.92884 15.0729 10.6188C15.0729 12.3088 13.7029 13.6788 12.0129 13.6788ZM12.0129 9.05884C11.1529 9.05884 10.4529 9.75884 10.4529 10.6188C10.4529 11.4788 11.1529 12.1788 12.0129 12.1788C12.8729 12.1788 13.5729 11.4788 13.5729 10.6188C13.5729 9.75884 12.8729 9.05884 12.0129 9.05884Z" fill="black"/>
<path d="M12.013 17.2386C11.483 17.2386 11.063 16.8086 11.063 16.2886C11.063 16.0386 11.163 15.7986 11.343 15.6186C11.523 15.4386 11.7629 15.3386 12.0229 15.3386C12.5529 15.3386 12.973 15.7686 12.973 16.2886C12.973 16.8086 12.5429 17.2386 12.0229 17.2386H12.013Z" fill="black"/>
</svg>
