<svg width="24" height="24" viewBox="0 0 24 24" fill="none" xmlns="http://www.w3.org/2000/svg">
<path d="M9.28 12.6823C9.09 12.6823 8.9 12.6123 8.75 12.4623L6.24 9.95232C5.18 10.5623 3.72 10.3823 2.83 9.49233C2.29 8.95233 2 8.24233 2 7.49233C2 6.74233 2.29 6.02233 2.83 5.49233C3.33 4.99233 3.99 4.71232 4.67 4.67232C4.71 3.99232 4.99 3.32231 5.49 2.82231C6.6 1.72231 8.39 1.72231 9.5 2.82231C10.04 3.36231 10.33 4.07231 10.33 4.82231C10.33 5.32231 10.2 5.80234 9.96 6.22234L12.48 8.74233C12.77 9.03233 12.77 9.51233 12.48 9.80233C12.19 10.0923 11.71 10.0923 11.42 9.80233L8.44 6.82231C8.3 6.68231 8.22 6.49232 8.22 6.29232C8.22 6.09232 8.3 5.90232 8.44 5.76232C8.69 5.51232 8.83 5.17231 8.83 4.82231C8.83 4.47231 8.69 4.13234 8.44 3.88234C7.92 3.36234 7.07 3.36234 6.55 3.88234C6.19 4.24234 6.07 4.79234 6.25 5.28234C6.35 5.55234 6.28 5.86231 6.08 6.07231C5.87 6.28231 5.57 6.34233 5.29 6.24233C4.8 6.06233 4.25 6.18232 3.89 6.54232C3.64 6.79232 3.5 7.13232 3.5 7.48232C3.5 7.83232 3.64 8.17232 3.89 8.42232C4.39 8.92232 5.27 8.92232 5.78 8.42232C6.06 8.14232 6.56 8.14232 6.84 8.42232L9.81 11.3923C10.1 11.6823 10.1 12.1623 9.81 12.4523C9.66 12.6023 9.47 12.6723 9.28 12.6723V12.6823Z" fill="black"/>
<path d="M7.50014 21.9923C6.77014 21.9923 6.05014 21.7123 5.50014 21.1623C5.00014 20.6623 4.72014 20.0023 4.68014 19.3123C4.00014 19.2723 3.33014 18.9923 2.84014 18.4923C1.74014 17.3823 1.74014 15.5923 2.84014 14.4823C3.76014 13.5623 5.16014 13.4123 6.24014 14.0223L14.0401 6.22234C13.8001 5.80234 13.6701 5.32231 13.6701 4.82231C13.6701 4.06231 13.9601 3.35231 14.5001 2.82231C15.6001 1.72231 17.4001 1.72231 18.5101 2.82231C19.0101 3.32231 19.2901 3.98232 19.3301 4.67232C20.0101 4.71232 20.6801 4.99233 21.1701 5.49233C21.7001 6.03233 22.0001 6.74233 22.0001 7.49233C22.0001 8.24233 21.7101 8.96233 21.1701 9.49233C20.2801 10.3823 18.8301 10.5623 17.7601 9.95232L9.96014 17.7523C10.5701 18.8323 10.4201 20.2423 9.50014 21.1623C8.95014 21.7123 8.22014 21.9923 7.50014 21.9923ZM5.55014 17.7023C5.75014 17.7023 5.94014 17.7823 6.08014 17.9223C6.29014 18.1323 6.35014 18.4323 6.25014 18.7123C6.07014 19.2023 6.19014 19.7523 6.55014 20.1123C7.07014 20.6323 7.92014 20.6323 8.44014 20.1123C8.96014 19.5923 8.96014 18.7423 8.44014 18.2223C8.15014 17.9323 8.15014 17.4523 8.44014 17.1623L17.1601 8.44234C17.3001 8.30234 17.4901 8.22234 17.6901 8.22234C17.8901 8.22234 18.0801 8.30234 18.2201 8.44234C18.7201 8.94234 19.6001 8.94234 20.1101 8.44234C20.3601 8.19234 20.5001 7.85234 20.5001 7.50234C20.5001 7.15234 20.3601 6.81234 20.1101 6.56234C19.7501 6.20234 19.2001 6.08232 18.7101 6.26232C18.4401 6.36232 18.1301 6.29233 17.9201 6.09233C17.7101 5.88233 17.6501 5.58233 17.7501 5.30233C17.9301 4.81233 17.8101 4.26233 17.4501 3.90233C16.9301 3.38233 16.0801 3.38233 15.5601 3.90233C15.3101 4.15233 15.1701 4.49233 15.1701 4.84233C15.1701 5.19233 15.3101 5.53234 15.5601 5.78234C15.7001 5.92234 15.7801 6.11234 15.7801 6.31234C15.7801 6.51234 15.7001 6.70233 15.5601 6.84233L6.84014 15.5623C6.55014 15.8523 6.07014 15.8523 5.78014 15.5623C5.26014 15.0423 4.41014 15.0423 3.89014 15.5623C3.37014 16.0823 3.37014 16.9323 3.89014 17.4523C4.25014 17.8123 4.80014 17.9323 5.29014 17.7523C5.37014 17.7223 5.46014 17.7123 5.55014 17.7123V17.7023Z" fill="black"/>
<path d="M16.5 21.9927C15.77 21.9927 15.05 21.7127 14.5 21.1627C13.58 20.2427 13.43 18.8427 14.04 17.7527L11.55 15.2627C11.26 14.9727 11.26 14.4927 11.55 14.2027C11.84 13.9127 12.32 13.9127 12.61 14.2027L15.56 17.1527C15.85 17.4427 15.85 17.9227 15.56 18.2127C15.04 18.7327 15.04 19.5827 15.56 20.1027C16.08 20.6227 16.93 20.6227 17.45 20.1027C17.81 19.7427 17.93 19.1927 17.75 18.7027C17.65 18.4327 17.72 18.1227 17.92 17.9127C18.13 17.7027 18.43 17.6427 18.71 17.7427C19.2 17.9227 19.75 17.8027 20.11 17.4427C20.63 16.9227 20.63 16.0727 20.11 15.5527C19.59 15.0327 18.74 15.0327 18.22 15.5527C17.93 15.8427 17.45 15.8427 17.16 15.5527L14.18 12.5727C13.89 12.2827 13.89 11.8027 14.18 11.5127C14.47 11.2227 14.95 11.2227 15.24 11.5127L17.76 14.0327C18.84 13.4227 20.24 13.5727 21.16 14.4927C22.26 15.6027 22.26 17.3927 21.16 18.5027C20.66 19.0027 20 19.2827 19.31 19.3227C19.27 20.0027 18.99 20.6727 18.49 21.1727C17.94 21.7227 17.21 22.0027 16.49 22.0027L16.5 21.9927Z" fill="black"/>
</svg>
