<svg width="24" height="24" viewBox="0 0 24 24" fill="none" xmlns="http://www.w3.org/2000/svg">
<path d="M15.4341 17.3248C14.6541 17.3248 13.9841 16.8548 13.6941 16.1748H10.3241C10.2341 16.3948 10.0941 16.5948 9.92408 16.7648C9.56408 17.1248 9.09408 17.3248 8.58408 17.3248C7.53408 17.3248 6.68408 16.4748 6.68408 15.4248C6.68408 15.0548 6.79408 14.6948 6.99408 14.3848C6.79408 14.0848 6.68408 13.7248 6.68408 13.3448C6.68408 12.2948 7.53408 11.4448 8.58408 11.4448C9.09408 11.4448 9.56408 11.6448 9.92408 12.0048C10.0941 12.1748 10.2341 12.3748 10.3241 12.5948H13.6941C13.9841 11.9248 14.6541 11.4448 15.4341 11.4448C16.4841 11.4448 17.3341 12.2948 17.3341 13.3448C17.3341 13.7148 17.2241 14.0748 17.0241 14.3848C17.2241 14.6848 17.3341 15.0448 17.3341 15.4248C17.3341 16.4748 16.4841 17.3248 15.4341 17.3248ZM14.2841 14.6748C14.4841 14.6748 14.6741 14.7548 14.8141 14.8948C14.9541 15.0348 15.0341 15.2248 15.0341 15.4248C15.0341 15.6448 15.2141 15.8248 15.4341 15.8248C15.6541 15.8248 15.8341 15.6448 15.8341 15.4248C15.8341 15.2448 15.7141 15.1148 15.6041 15.0648C15.3441 14.9448 15.1741 14.6748 15.1741 14.3848C15.1741 14.0948 15.3441 13.8248 15.6041 13.7048C15.7141 13.6548 15.8341 13.5348 15.8341 13.3448C15.8341 13.1248 15.6541 12.9448 15.4341 12.9448C15.2141 12.9448 15.0341 13.1248 15.0341 13.3448C15.0341 13.7548 14.6941 14.0948 14.2841 14.0948H9.72408C9.52408 14.0948 9.33408 14.0148 9.19408 13.8748C9.05408 13.7348 8.97408 13.5448 8.97408 13.3448C8.97408 13.2348 8.93408 13.1348 8.85408 13.0648C8.62408 12.8348 8.17408 13.0148 8.17408 13.3448C8.17408 13.5248 8.29408 13.6448 8.40408 13.7048C8.66408 13.8248 8.83408 14.0948 8.83408 14.3848C8.83408 14.6748 8.66408 14.9448 8.40408 15.0648C8.29408 15.1148 8.17408 15.2348 8.17408 15.4248C8.17408 15.7448 8.62408 15.9348 8.85408 15.7048C8.92408 15.6348 8.97408 15.5348 8.97408 15.4248C8.97408 15.2248 9.05408 15.0348 9.19408 14.8948C9.33408 14.7548 9.52408 14.6748 9.72408 14.6748H14.2841Z" fill="black"/>
<path d="M12.0041 10.895C7.40414 10.895 2.74414 9.68498 2.74414 7.37498C2.74414 5.06498 7.40414 3.85498 12.0041 3.85498C16.6041 3.85498 21.2641 5.06498 21.2641 7.37498C21.2641 9.68498 16.6041 10.895 12.0041 10.895ZM12.0041 5.36498C6.88414 5.36498 4.24414 6.77498 4.24414 7.38498C4.24414 7.99498 6.88414 9.40498 12.0041 9.40498C17.1241 9.40498 19.7641 7.99498 19.7641 7.38498C19.7641 6.77498 17.1241 5.36498 12.0041 5.36498Z" fill="black"/>
<path d="M12.0041 20.1452C8.80413 20.1452 4.56413 19.3052 2.82413 17.4652C2.25413 16.8652 1.97413 16.1652 2.00413 15.4452L2.74413 7.37524L4.23414 7.51524L3.49413 15.5552C3.48413 15.8352 3.61413 16.1252 3.90413 16.4352C5.09413 17.6952 8.57413 18.6452 11.9941 18.6452C15.4141 18.6452 18.8941 17.6952 20.0841 16.4352C20.3741 16.1252 20.5041 15.8352 20.4941 15.5252L19.7641 7.50523L21.2541 7.36523L21.9941 15.4052C22.0341 16.1452 21.7541 16.8452 21.1841 17.4552C19.4441 19.2952 15.2041 20.1352 12.0041 20.1352V20.1452Z" fill="black"/>
</svg>
