<svg width="24" height="24" viewBox="0 0 24 24" fill="none" xmlns="http://www.w3.org/2000/svg">
<path d="M20.0001 20.4197C19.6401 20.4197 19.3301 20.1597 19.2601 19.7997L18.5101 15.5197C18.4201 14.8797 17.89 14.4197 17.27 14.4197H6.74004C6.12004 14.4197 5.59005 14.8797 5.50005 15.4897L4.74004 19.7997C4.67004 20.2097 4.28005 20.4797 3.87005 20.4097C3.46005 20.3397 3.19006 19.9497 3.26006 19.5397L4.01006 15.2597C4.20006 13.9397 5.37006 12.9197 6.73006 12.9197H17.2601C18.6201 12.9197 19.7901 13.9397 19.9801 15.2797L20.7301 19.5397C20.8001 19.9497 20.53 20.3397 20.12 20.4097C20.08 20.4097 20.03 20.4197 19.99 20.4197H20.0001Z" fill="black"/>
<path d="M21 20.4197H3C2.59 20.4197 2.25 20.0797 2.25 19.6697C2.25 19.2597 2.59 18.9197 3 18.9197H21C21.41 18.9197 21.75 19.2597 21.75 19.6697C21.75 20.0797 21.41 20.4197 21 20.4197Z" fill="black"/>
<path d="M16.7299 11.0993C15.7099 11.0993 14.8299 10.4393 14.5199 9.51935H9.47995C9.36995 9.84935 9.17995 10.1593 8.91995 10.4193C8.47995 10.8593 7.88993 11.0993 7.26993 11.0993C6.64993 11.0993 6.05993 10.8593 5.61993 10.4193C5.17993 9.97935 4.93994 9.38935 4.93994 8.76935C4.93994 8.23935 5.11994 7.73935 5.43994 7.33935C5.11994 6.93935 4.93994 6.42935 4.93994 5.90935C4.93994 4.61935 5.98993 3.57935 7.26993 3.57935C7.88993 3.57935 8.47995 3.81935 8.91995 4.25935C9.17995 4.51935 9.36995 4.81935 9.47995 5.15935H14.5199C14.8299 4.23935 15.7099 3.57935 16.7299 3.57935C18.0199 3.57935 19.0599 4.62935 19.0599 5.90935C19.0599 6.43935 18.8799 6.93935 18.5599 7.33935C18.8699 7.73935 19.0599 8.23935 19.0599 8.76935C19.0599 10.0593 18.0099 11.0993 16.7299 11.0993ZM8.84995 8.01935H15.14C15.55 8.01935 15.89 8.35935 15.89 8.76935C15.89 9.22935 16.2599 9.59935 16.7199 9.59935C17.1799 9.59935 17.5499 9.22935 17.5499 8.76935C17.5499 8.44935 17.3599 8.15935 17.0699 8.01935C16.8099 7.89935 16.64 7.62935 16.64 7.33935C16.64 7.04935 16.8099 6.77935 17.0699 6.65935C17.3599 6.51935 17.5499 6.22935 17.5499 5.90935C17.5499 5.44935 17.1799 5.07935 16.7199 5.07935C16.2599 5.07935 15.89 5.44935 15.89 5.90935C15.89 6.31935 15.55 6.65935 15.14 6.65935H8.84995C8.64995 6.65935 8.45995 6.57935 8.31995 6.43935C8.17995 6.29935 8.09995 6.10935 8.09995 5.90935C8.09995 5.68935 8.00995 5.47935 7.85995 5.31935C7.70995 5.15935 7.48993 5.07935 7.26993 5.07935C6.80993 5.07935 6.43994 5.44935 6.43994 5.90935C6.43994 6.22935 6.62995 6.51935 6.91995 6.65935C7.17995 6.77935 7.34995 7.04935 7.34995 7.33935C7.34995 7.62935 7.17995 7.89935 6.91995 8.01935C6.62995 8.15935 6.43994 8.44935 6.43994 8.76935C6.43994 8.98935 6.52993 9.19935 6.67993 9.35935C6.82993 9.51935 7.04993 9.59935 7.26993 9.59935C7.48993 9.59935 7.69995 9.50935 7.85995 9.35935C8.01995 9.20935 8.09995 8.98935 8.09995 8.76935C8.09995 8.56935 8.17995 8.37935 8.31995 8.23935C8.45995 8.09935 8.64995 8.01935 8.84995 8.01935Z" fill="black"/>
</svg>
