<svg width="24" height="24" viewBox="0 0 24 24" fill="none" xmlns="http://www.w3.org/2000/svg">
<path d="M14.2894 21.8096H9.18945C8.77945 21.8096 8.43945 21.4696 8.43945 21.0596C8.43945 20.6496 8.77945 20.3096 9.18945 20.3096H14.2894C14.6994 20.3096 15.0394 20.6496 15.0394 21.0596C15.0394 21.4696 14.6994 21.8096 14.2894 21.8096Z" fill="black"/>
<path d="M6.99936 21.9893C6.99936 21.9893 6.90936 21.9893 6.86936 21.9793C5.28936 21.6993 4.10931 20.7193 3.63931 19.2893C3.10931 17.6793 3.57933 15.7793 4.83933 14.4393C5.11933 14.1393 5.59932 14.1193 5.89932 14.4093C6.19932 14.6893 6.21935 15.1693 5.92935 15.4693C5.03935 16.4193 4.69936 17.7293 5.05936 18.8193C5.24936 19.4093 5.63934 19.8693 6.16934 20.1693C6.08934 18.0193 6.35931 14.5493 8.56931 12.2793C8.93931 11.8993 9.29936 11.5693 9.61936 11.2593C10.4194 10.5093 10.9993 9.96926 11.1293 9.34926C11.2093 8.93926 11.6193 8.68926 12.0193 8.76926C12.4293 8.85926 12.6793 9.24926 12.5993 9.65926C12.3693 10.7393 11.5693 11.4893 10.6493 12.3593C10.3393 12.6493 9.99932 12.9693 9.64932 13.3293C7.41932 15.6193 7.57936 19.5793 7.74936 21.1693C7.76936 21.3993 7.68931 21.6393 7.50931 21.7993C7.36931 21.9293 7.18936 21.9993 6.99936 21.9993V21.9893Z" fill="black"/>
<path d="M12.3892 21.6192C12.2192 21.6192 12.0392 21.5592 11.8992 21.4392C11.5892 21.1692 11.5492 20.6992 11.8192 20.3792C12.8492 19.1792 12.7392 17.7092 12.3192 16.8092C11.9892 16.0792 11.4492 15.6392 10.8892 15.6392C10.4792 15.6392 10.1392 15.2992 10.1392 14.8892C10.1392 14.4792 10.4792 14.1392 10.8892 14.1392C12.0592 14.1392 13.0992 14.8992 13.6792 16.1792C14.4692 17.8992 14.1792 19.9292 12.9492 21.3592C12.7992 21.5292 12.5892 21.6192 12.3792 21.6192H12.3892Z" fill="black"/>
<path d="M19.0094 21.8691H17.0495C16.6595 21.8691 16.3295 21.5691 16.2995 21.1791C16.2695 20.8091 16.1994 20.4791 16.1294 20.1291C15.9094 18.9991 15.6395 17.5991 16.3095 14.8191C16.8195 12.6891 16.5895 11.4391 16.1895 9.36909L16.0994 8.86909C16.0594 8.64909 16.1194 8.41908 16.2594 8.24908C16.3994 8.07908 16.6094 7.97909 16.8394 7.97909H18.5094C19.3894 7.97909 19.7395 7.04908 19.8695 6.43908L17.8994 5.45909C17.7194 5.36909 17.5794 5.20909 17.5194 5.00909L17.4594 4.80909C17.2994 4.19909 17.1294 3.78908 16.3294 3.68908L15.2294 3.51908C13.9394 3.32908 13.0694 3.92909 12.5894 5.36909C11.8094 7.67909 12.1594 8.54908 12.2894 8.76908C12.3694 8.90908 12.4494 8.94909 12.4794 8.94909C12.9694 9.03909 13.1594 8.90909 13.2694 8.80909C13.7894 8.31909 13.8694 6.82908 13.7194 5.65908C13.6694 5.24908 13.9595 4.86909 14.3695 4.81909C14.7695 4.76909 15.1594 5.05908 15.2094 5.46908C15.3294 6.42908 15.4895 8.77909 14.2995 9.89909C13.9295 10.2491 13.2795 10.6191 12.2495 10.4291C11.7895 10.3691 11.3294 10.0591 11.0294 9.57908C10.4094 8.58908 10.4594 7.00909 11.1694 4.89909C11.8794 2.78909 13.4394 1.75908 15.4494 2.04908L16.5294 2.21908C18.2194 2.42908 18.6794 3.65909 18.8594 4.28909L21.0194 5.35908C21.2894 5.49908 21.4595 5.78909 21.4295 6.08909C21.2895 7.77909 20.3295 9.48909 18.4995 9.48909H17.7294C18.0994 11.4691 18.3094 12.8891 17.7594 15.1791C17.1594 17.6391 17.3794 18.7591 17.5894 19.8491C17.6194 20.0191 17.6595 20.1991 17.6895 20.3791H18.9895C19.3995 20.3791 19.7395 20.7191 19.7395 21.1291C19.7395 21.5391 19.3995 21.8791 18.9895 21.8791L19.0094 21.8691Z" fill="black"/>
<path d="M15.8193 13.1993C13.4693 13.1993 11.1993 12.0993 10.0993 11.3093C9.75934 11.0693 9.67935 10.5993 9.91935 10.2593C10.1594 9.91927 10.6293 9.83926 10.9693 10.0793C11.9993 10.8093 15.2194 12.4493 17.8094 11.2993C18.1894 11.1293 18.6294 11.2993 18.7994 11.6793C18.9694 12.0593 18.7994 12.4993 18.4194 12.6693C17.5794 13.0393 16.6993 13.1893 15.8293 13.1893L15.8193 13.1993Z" fill="black"/>
<path d="M3.31939 9.6793C3.31939 9.6793 3.27939 9.6793 3.25939 9.6793C2.84939 9.6493 2.53939 9.2793 2.56939 8.8693C2.68939 7.3993 3.32939 6.01929 4.37939 4.96929C5.42939 3.91929 6.80941 3.27929 8.27941 3.15929C8.67941 3.12929 9.05941 3.42929 9.08941 3.84929C9.12941 4.25929 8.81942 4.62929 8.40942 4.65929C7.28942 4.74929 6.23939 5.23929 5.44939 6.02929C4.65939 6.81929 4.1694 7.86929 4.0794 8.98929C4.0494 9.37929 3.7194 9.6793 3.3294 9.6793H3.31939Z" fill="black"/>
<path d="M5.81915 9.96906C5.81915 9.96906 5.77915 9.96906 5.75915 9.96906C5.34915 9.93906 5.03916 9.56906 5.07916 9.15906C5.15916 8.25906 5.5492 7.41906 6.1792 6.77906C6.8192 6.13906 7.6692 5.74906 8.5592 5.66906C8.9892 5.63906 9.3392 5.93906 9.3692 6.35906C9.3992 6.77906 9.09921 7.13906 8.68921 7.16906C8.14921 7.20906 7.62919 7.44907 7.23919 7.83907C6.84919 8.22907 6.61915 8.73907 6.56915 9.28907C6.53915 9.67907 6.20915 9.97907 5.81915 9.97907V9.96906Z" fill="black"/>
<path d="M8.20929 10.4492C8.20929 10.4492 8.16929 10.4492 8.14929 10.4492C7.73929 10.4092 7.4293 10.0492 7.4693 9.63918C7.4993 9.22918 7.6793 8.83919 7.9693 8.55919C8.2593 8.26919 8.63931 8.08919 9.04931 8.05919C9.47931 8.02919 9.82931 8.32918 9.85931 8.74918C9.88931 9.15918 9.58931 9.51919 9.16931 9.55919C9.11931 9.55919 9.05929 9.58919 9.02929 9.62919C8.98929 9.66919 8.95929 9.71918 8.95929 9.77918C8.92929 10.1692 8.59929 10.4692 8.20929 10.4692V10.4492Z" fill="black"/>
</svg>
