<svg width="24" height="24" viewBox="0 0 24 24" fill="none" xmlns="http://www.w3.org/2000/svg">
<path d="M19.9999 20.7639C19.6199 20.7639 19.2899 20.4739 19.2499 20.0939L18.4999 12.8139C18.4199 12.2339 17.8799 11.7739 17.2699 11.7739H6.73991C6.11991 11.7739 5.58992 12.2339 5.49992 12.8439L4.74992 20.0939C4.70992 20.5039 4.32991 20.8039 3.92991 20.7639C3.51991 20.7239 3.21993 20.3539 3.25993 19.9439L4.00993 12.6639C4.20993 11.2839 5.37991 10.2739 6.73991 10.2739H17.2699C18.6299 10.2739 19.7999 11.2839 19.9899 12.6339L20.7499 19.9439C20.7899 20.3539 20.4899 20.7239 20.0799 20.7639C20.0499 20.7639 20.0299 20.7639 19.9999 20.7639Z" fill="black"/>
<path d="M21 20.7642H3C2.59 20.7642 2.25 20.4242 2.25 20.0142C2.25 19.6042 2.59 19.2642 3 19.2642H21C21.41 19.2642 21.75 19.6042 21.75 20.0142C21.75 20.4242 21.41 20.7642 21 20.7642Z" fill="black"/>
<path d="M13.59 18.4136C13.42 18.4136 13.25 18.3736 13.09 18.3036C12.18 18.0336 11.76 18.0436 10.9 18.3136C10.58 18.4536 10.17 18.4336 9.84 18.2236C9.4 17.9336 9.25 17.4036 9.25 17.0036C9.25 15.6036 10.49 14.4536 12.01 14.4536C13.53 14.4536 14.77 15.5936 14.77 17.0036C14.77 17.4236 14.61 17.9736 14.16 18.2536C13.99 18.3636 13.79 18.4136 13.59 18.4136ZM12.01 15.9536C11.4 15.9536 10.89 16.3136 10.77 16.7936C11.67 16.5536 12.32 16.5536 13.22 16.7936C13.09 16.2936 12.59 15.9636 12.01 15.9636V15.9536Z" fill="black"/>
<path d="M14.47 14.6841C14.06 14.6841 13.72 14.3441 13.72 13.9341C13.72 13.5241 14.05 13.1841 14.47 13.1841C14.88 13.1841 15.22 13.5241 15.22 13.9341C15.22 14.3441 14.88 14.6841 14.47 14.6841Z" fill="black"/>
<path d="M9.55005 14.6841C9.14005 14.6841 8.80005 14.3441 8.80005 13.9341C8.80005 13.5241 9.13005 13.1841 9.55005 13.1841C9.96005 13.1841 10.3 13.5241 10.3 13.9341C10.3 14.3441 9.96005 14.6841 9.55005 14.6841Z" fill="black"/>
<path d="M12.01 13.8638C11.6 13.8638 11.26 13.5238 11.26 13.1138C11.26 12.7038 11.59 12.3638 12.01 12.3638C12.42 12.3638 12.76 12.7038 12.76 13.1138C12.76 13.5238 12.42 13.8638 12.01 13.8638Z" fill="black"/>
<path d="M7.31997 9.65373C7.07997 9.65373 6.84998 9.54373 6.69998 9.33373L6.17996 8.58373C5.93996 8.24373 6.02996 7.77373 6.36996 7.54373C6.70996 7.30373 7.17997 7.39373 7.40997 7.73373L7.92996 8.48373C8.16996 8.82373 8.07995 9.29373 7.73995 9.52373C7.60995 9.61373 7.45996 9.65373 7.30996 9.65373H7.31997Z" fill="black"/>
<path d="M11.1101 11.4239C10.8301 11.4239 10.5601 11.2639 10.4301 10.9939C10.2501 10.6139 10.4101 10.1739 10.7901 9.99388L12.2901 9.28388C12.6701 9.11388 13.1101 9.26388 13.2901 9.64388C13.4701 10.0239 13.3101 10.4639 12.9301 10.6439L11.4301 11.3539C11.3301 11.4039 11.2201 11.4239 11.1101 11.4239Z" fill="black"/>
<path d="M10.43 7.78398C10.37 7.78398 10.3201 7.78398 10.2601 7.76398L9.38005 7.56398C8.98005 7.47398 8.72005 7.06398 8.82005 6.66398C8.92005 6.26398 9.31004 6.00398 9.72004 6.10398L10.6 6.30398C11 6.39398 11.26 6.80398 11.16 7.20398C11.08 7.55398 10.77 7.78398 10.43 7.78398Z" fill="black"/>
<path d="M14 8.14374C13.79 8.14374 13.58 8.05374 13.43 7.88374C13.16 7.57374 13.19 7.09374 13.51 6.82374L14.15 6.26374C14.46 5.99374 14.94 6.02374 15.21 6.34374C15.48 6.65374 15.45 7.13374 15.13 7.40374L14.49 7.96374C14.35 8.08374 14.17 8.14374 14 8.14374Z" fill="black"/>
<path d="M17.2001 9.27387C16.9601 9.27387 16.7201 9.15387 16.5701 8.93387C16.3401 8.58387 16.4401 8.12387 16.7801 7.89387L17.5301 7.39387C17.8801 7.16387 18.3401 7.26387 18.5701 7.60387C18.8001 7.95387 18.7001 8.41387 18.3601 8.64387L17.6101 9.14387C17.4801 9.22387 17.3401 9.26387 17.2001 9.26387V9.27387Z" fill="black"/>
<path d="M12.1199 5.67398C11.8499 5.67398 11.5999 5.53398 11.4599 5.28398L10.95 4.34398C10.75 3.98398 10.8899 3.52398 11.2499 3.32398C11.6099 3.12398 12.0699 3.26398 12.2699 3.62398L12.7799 4.56398C12.9799 4.92398 12.84 5.38398 12.48 5.58398C12.37 5.64398 12.2399 5.67398 12.1199 5.67398Z" fill="black"/>
</svg>
