<svg width="24" height="24" viewBox="0 0 24 24" fill="none" xmlns="http://www.w3.org/2000/svg">
<path d="M12.0041 10.895C7.40414 10.895 2.74414 9.68498 2.74414 7.37498C2.74414 5.06498 7.40414 3.85498 12.0041 3.85498C16.6041 3.85498 21.2641 5.06498 21.2641 7.37498C21.2641 9.68498 16.6041 10.895 12.0041 10.895ZM12.0041 5.36498C6.88414 5.36498 4.24414 6.77498 4.24414 7.38498C4.24414 7.99498 6.88414 9.40498 12.0041 9.40498C17.1241 9.40498 19.7641 7.99498 19.7641 7.38498C19.7641 6.77498 17.1241 5.36498 12.0041 5.36498Z" fill="black"/>
<path d="M12.0041 20.1452C8.80413 20.1452 4.56413 19.3052 2.82413 17.4652C2.25413 16.8652 1.97413 16.1652 2.00413 15.4452L2.74413 7.37524L4.23413 7.51524L3.49413 15.5552C3.48413 15.8352 3.61413 16.1252 3.90413 16.4352C5.09413 17.6952 8.57413 18.6452 11.9941 18.6452C15.4141 18.6452 18.8941 17.6952 20.0841 16.4352C20.3741 16.1252 20.5041 15.8352 20.4941 15.5252L19.7641 7.50523L21.2541 7.36523L21.9941 15.4052C22.0341 16.1452 21.7541 16.8452 21.1841 17.4552C19.4441 19.2952 15.2041 20.1352 12.0041 20.1352V20.1452Z" fill="black"/>
<path d="M13.6743 17.6952C13.5243 17.6952 13.3543 17.6652 13.1743 17.5952C12.2043 17.3252 11.7343 17.3352 10.8143 17.6052C10.4743 17.7452 10.0643 17.7152 9.72429 17.4952C9.29429 17.2052 9.14429 16.6852 9.14429 16.3052C9.14429 14.9152 10.4343 13.7852 12.0143 13.7852C13.5943 13.7852 14.8843 14.9152 14.8843 16.3052C14.8843 16.7152 14.7243 17.2452 14.2843 17.5352C14.1643 17.6152 13.9543 17.7152 13.6843 17.7152L13.6743 17.6952ZM12.0143 15.2752C11.3643 15.2752 10.8043 15.6252 10.6743 16.0852C11.6543 15.8352 12.3443 15.8352 13.3343 16.0852C13.1843 15.6152 12.6443 15.2852 12.0143 15.2852V15.2752Z" fill="black"/>
<path d="M14.4741 13.9048C14.0641 13.9048 13.7241 13.5648 13.7241 13.1548C13.7241 12.7448 14.0541 12.4048 14.4741 12.4048C14.8841 12.4048 15.2241 12.7448 15.2241 13.1548C15.2241 13.5648 14.8841 13.9048 14.4741 13.9048Z" fill="black"/>
<path d="M9.5542 13.9048C9.1442 13.9048 8.8042 13.5648 8.8042 13.1548C8.8042 12.7448 9.1342 12.4048 9.5542 12.4048C9.9642 12.4048 10.3042 12.7448 10.3042 13.1548C10.3042 13.5648 9.9642 13.9048 9.5542 13.9048Z" fill="black"/>
<path d="M12.0142 13.085C11.6042 13.085 11.2642 12.745 11.2642 12.335C11.2642 11.925 11.5942 11.585 12.0142 11.585C12.4242 11.585 12.7642 11.925 12.7642 12.335C12.7642 12.745 12.4242 13.085 12.0142 13.085Z" fill="black"/>
</svg>
