<svg width="24" height="24" viewBox="0 0 24 24" fill="none" xmlns="http://www.w3.org/2000/svg">
<path d="M10.1309 8.16844C9.72086 8.16844 9.38086 7.82844 9.38086 7.41844C9.38086 7.00844 9.72086 6.65845 10.1309 6.65845C10.5409 6.65845 10.8809 6.98845 10.8809 7.40845C10.8809 7.82845 10.5409 8.16844 10.1309 8.16844Z" fill="black"/>
<path d="M11.4208 21.4285C10.0808 21.4285 9.1008 21.1785 8.7308 21.0685C8.5108 20.9985 8.33082 20.8385 8.25082 20.6185C8.17082 20.3985 8.19082 20.1585 8.31082 19.9585C9.52082 17.9685 9.85081 15.5285 9.58081 13.9085C9.03081 13.9885 8.14081 14.1085 6.64081 14.2785C5.61081 14.3985 4.6608 14.1185 3.9108 13.4685C2.2508 12.0285 2.11082 9.34854 2.09082 8.82854C2.09082 8.51854 2.26081 8.23853 2.55081 8.11853L6.34082 6.50853C6.35082 5.78853 6.5708 4.89854 7.1608 4.15854C7.6208 3.57854 8.50081 2.86854 10.0808 2.76854L12.2108 2.59854C15.4708 2.30854 18.0208 4.36854 19.0308 8.06854C19.1708 8.57854 19.2908 9.09854 19.3808 9.59854C19.4508 10.0085 19.1808 10.3985 18.7708 10.4685C18.3608 10.5385 17.9708 10.2685 17.9008 9.85854C17.8208 9.39854 17.7108 8.92854 17.5808 8.45854C16.4608 4.35854 13.8108 3.95853 12.3308 4.08853L10.1808 4.25853C9.34082 4.31853 8.7208 4.59853 8.3208 5.08853C7.8208 5.70853 7.7908 6.52853 7.8508 6.86853C7.9008 7.20853 7.72082 7.53854 7.40082 7.67854L3.61081 9.28855C3.73081 10.4185 4.1308 11.6885 4.8808 12.3385C5.3108 12.7085 5.82081 12.8585 6.45081 12.7885C7.18081 12.7085 9.38082 12.4585 9.78082 12.3485C9.95082 12.2585 10.1608 12.2385 10.3408 12.2985C10.5708 12.3685 10.7608 12.5485 10.8308 12.7785C11.3808 14.4785 11.2608 17.3185 10.0708 19.8285C10.5108 19.8985 11.0708 19.9485 11.7308 19.9285C11.7308 19.9285 11.7508 19.9285 11.7608 19.9285C12.1608 19.9285 12.5008 20.2485 12.5108 20.6485C12.5208 21.0585 12.2008 21.4085 11.7908 21.4185C11.6708 21.4185 11.5408 21.4185 11.4308 21.4185L11.4208 21.4285Z" fill="black"/>
<path d="M13.2909 11.7985C13.2909 11.7985 13.2609 11.7985 13.2509 11.7985C12.8409 11.7785 12.5209 11.4284 12.5409 11.0084C12.5909 10.0284 12.7209 9.16846 12.8209 8.62846C12.9009 8.21846 13.2909 7.94845 13.7009 8.02845C14.1109 8.10845 14.3709 8.49845 14.3009 8.90845C14.2109 9.40845 14.0909 10.1884 14.0409 11.0884C14.0209 11.4884 13.6909 11.7985 13.2909 11.7985Z" fill="black"/>
<path d="M19.8609 17.0088C18.8209 17.0088 17.9309 16.2088 17.8409 15.1588C17.7409 14.0388 18.5709 13.0488 19.6909 12.9488C20.2309 12.8988 20.7609 13.0688 21.1809 13.4188C21.6009 13.7688 21.8509 14.2588 21.9009 14.7988C22.0009 15.9188 21.1709 16.9088 20.0509 17.0088C19.9909 17.0088 19.9309 17.0088 19.8709 17.0088H19.8609ZM19.3309 15.0188C19.3609 15.3088 19.6209 15.5288 19.9109 15.4988C20.2009 15.4688 20.4209 15.2088 20.4009 14.9188C20.3909 14.7788 20.3209 14.6488 20.2109 14.5588C20.1009 14.4688 19.9609 14.4188 19.8209 14.4388C19.5309 14.4688 19.3109 14.7288 19.3309 15.0188Z" fill="black"/>
<path d="M15.1908 21.4282C15.0208 21.4282 14.8508 21.3682 14.7108 21.2482C14.3908 20.9782 14.3508 20.5082 14.6208 20.1882L18.5208 15.5382C18.7908 15.2182 19.2608 15.1782 19.5808 15.4482C19.9008 15.7182 19.9408 16.1882 19.6708 16.5082L15.7708 21.1582C15.6208 21.3382 15.4108 21.4282 15.2008 21.4282H15.1908Z" fill="black"/>
<path d="M14.8109 17.0081C14.7509 17.0081 14.6909 17.0081 14.6209 17.0081C14.0809 16.9581 13.5909 16.7082 13.2409 16.2882C12.8909 15.8682 12.7309 15.3482 12.7709 14.7982C12.8209 14.2582 13.0709 13.7681 13.4909 13.4181C13.9109 13.0681 14.4309 12.9081 14.9809 12.9481C15.5209 12.9981 16.0109 13.2481 16.3609 13.6681C16.7109 14.0881 16.8709 14.6082 16.8309 15.1582C16.7809 15.6982 16.5309 16.1882 16.1109 16.5382C15.7409 16.8482 15.2809 17.0081 14.8109 17.0081ZM14.8109 14.4382C14.6909 14.4382 14.5709 14.4781 14.4709 14.5581C14.3609 14.6481 14.2909 14.7781 14.2809 14.9181C14.2709 15.0581 14.3109 15.1981 14.4009 15.3081C14.4909 15.4181 14.6209 15.4882 14.7609 15.4982C14.9109 15.5082 15.0409 15.4682 15.1509 15.3782C15.2609 15.2882 15.3309 15.1582 15.3409 15.0182C15.3509 14.8782 15.3109 14.7382 15.2209 14.6282C15.1309 14.5182 15.0009 14.4482 14.8609 14.4382C14.8409 14.4382 14.8309 14.4382 14.8109 14.4382Z" fill="black"/>
<path d="M19.491 21.4282C19.281 21.4282 19.061 21.3382 18.921 21.1582L15.021 16.5082C14.751 16.1882 14.791 15.7182 15.111 15.4482C15.431 15.1782 15.901 15.2182 16.171 15.5382L20.071 20.1882C20.341 20.5082 20.301 20.9782 19.981 21.2482C19.841 21.3682 19.671 21.4282 19.501 21.4282H19.491Z" fill="black"/>
</svg>
