<svg width="25" height="24" viewBox="0 0 25 24" fill="none" xmlns="http://www.w3.org/2000/svg">
<path d="M12.2922 16.9146C12.986 16.8134 13.6914 16.9156 14.392 16.8991C16.0159 16.8601 17.2886 15.4872 18.5243 14.5571C19.1567 14.0803 20.0402 14.1435 20.5987 14.705C21.2185 15.3267 21.2185 16.3357 20.5987 16.9584C19.2637 18.2982 18.0845 19.5427 16.2747 20.2462C13.7634 21.2231 11.434 20.7482 8.89062 20.2462" stroke="black" stroke-width="1.5" stroke-linecap="round" stroke-linejoin="round"/>
<path d="M14.4586 10.0039C14.8504 10.0363 15.253 9.99599 15.6495 9.87055C16.8317 9.49692 17.7764 8.53754 18.3408 7.45849C19.2048 5.80634 19.4704 4.17462 19.4909 3.82532C19.1785 3.66867 17.6324 3.08292 15.7691 3.00508C14.5529 2.95351 13.2491 3.29212 12.3345 4.12889C11.5921 4.80902 11.1834 6.29868 11.4325 7.36411C11.5376 7.83159 11.7424 8.26046 12.0196 8.63078" stroke="black" stroke-width="1.5" stroke-linecap="round" stroke-linejoin="round"/>
<path d="M16.0179 5.83105C14.9739 7.07844 13.7443 8.11133 12.0999 8.65718C11.6095 8.82064 11.0838 8.93978 10.5137 9.00886" stroke="black" stroke-width="1.5" stroke-linecap="round" stroke-linejoin="round"/>
<path d="M12.2904 16.8837H13.6614C14.6402 16.8837 15.4313 16.1793 15.4313 15.2014C15.4313 14.388 14.8806 13.737 14.0915 13.5385C12.9628 13.2554 11.8361 13.0326 10.6578 13.0618C8.7896 13.1065 7.48383 14.1476 6.00391 15.1391" stroke="black" stroke-width="1.5" stroke-linecap="round" stroke-linejoin="round"/>
<path d="M3.70312 21H4.73158C5.51679 21 6.00524 20.4463 6.00524 19.6621V15.0705C6.00524 14.2863 5.51679 13.7317 4.73158 13.7317H3.70312" stroke="black" stroke-width="1.5" stroke-linecap="round" stroke-linejoin="round"/>
</svg>