<svg width="24" height="24" viewBox="0 0 24 24" fill="none" xmlns="http://www.w3.org/2000/svg">
<path fill-rule="evenodd" clip-rule="evenodd" d="M12 3.75C7.44329 3.75 3.75 7.44329 3.75 12C3.75 16.5558 7.44335 20.25 12 20.25C16.5567 20.25 20.25 16.5558 20.25 12C20.25 7.44329 16.5567 3.75 12 3.75ZM2.25 12C2.25 6.61487 6.61487 2.25 12 2.25C17.3851 2.25 21.75 6.61487 21.75 12C21.75 17.3841 17.3852 21.75 12 21.75C6.61481 21.75 2.25 17.3841 2.25 12ZM7.06653 9.27216C7.10951 8.89306 7.43023 8.60663 7.81176 8.60663H10.0837C10.4979 8.60663 10.8337 8.94242 10.8337 9.35663C10.8337 9.77084 10.4979 10.1066 10.0837 10.1066H8.48155L8.38887 10.9243H8.9949C10.134 10.9243 11.0584 11.8487 11.0584 12.9878C11.0584 14.2996 9.99426 15.3617 8.68355 15.3617C7.84999 15.3617 7.14651 14.9268 6.73444 14.2996C6.50701 13.9534 6.60329 13.4884 6.94948 13.2609C7.29567 13.0335 7.76068 13.1298 7.98811 13.476C8.1462 13.7166 8.39624 13.8617 8.68355 13.8617C9.167 13.8617 9.55841 13.47 9.55841 12.9878C9.55841 12.6771 9.30555 12.4243 8.9949 12.4243H7.54906C7.33544 12.4243 7.13195 12.3332 6.98966 12.1738C6.84737 12.0145 6.77977 11.802 6.80383 11.5898L7.06653 9.27216ZM11.8957 11.8208C11.9669 10.0988 13.3962 8.53766 15.2346 8.62938L15.2349 8.6294C15.7054 8.65311 16.1534 8.77315 16.5564 8.97339C16.9274 9.1577 17.0787 9.60783 16.8944 9.97878C16.71 10.3497 16.2599 10.501 15.889 10.3167C15.6693 10.2075 15.4226 10.1408 15.1594 10.1275C14.2678 10.0832 13.4361 10.8747 13.3944 11.8827L13.3944 11.8828C13.3464 13.0403 14.0845 13.8436 15.0649 13.8436C15.433 13.8436 15.6231 13.7739 15.7038 13.717C15.7355 13.6946 15.7533 13.6726 15.7672 13.6434C15.7827 13.6106 15.8055 13.5417 15.8055 13.4134V12.7341H15.0649C14.6506 12.7341 14.3149 12.3983 14.3149 11.9841C14.3149 11.5699 14.6506 11.2341 15.0649 11.2341H16.5555C16.9697 11.2341 17.3055 11.5699 17.3055 11.9841V13.4134C17.3055 14.0508 17.0633 14.5933 16.5689 14.9424C16.1217 15.2581 15.5666 15.3436 15.0649 15.3436C13.0757 15.3436 11.8192 13.6658 11.8957 11.8208Z" fill="black"/>
</svg>
