<svg width="24" height="24" viewBox="0 0 24 24" fill="none" xmlns="http://www.w3.org/2000/svg">
<path fill-rule="evenodd" clip-rule="evenodd" d="M3.7402 3.89737C4.72468 2.84117 6.12669 2.25 7.78216 2.25H16.2169C17.8762 2.25 19.2788 2.84084 20.2629 3.89765C21.2413 4.94841 21.75 6.39889 21.75 8.02638V15.9736C21.75 17.6011 21.2413 19.0516 20.2627 20.1024C19.2785 21.1592 17.8757 21.75 16.2159 21.75H7.78216C6.12237 21.75 4.7199 21.1592 3.73617 20.1022C2.75811 19.0514 2.25 17.6009 2.25 15.9736V8.02638C2.25 6.39806 2.76117 4.94771 3.7402 3.89737ZM4.83745 4.92012C4.16024 5.64666 3.75 6.70951 3.75 8.02638V15.9736C3.75 17.2915 4.15843 18.3542 4.83418 19.0803C5.50426 19.8002 6.49287 20.25 7.78216 20.25H16.2159C17.5052 20.25 18.4944 19.8002 19.165 19.0801C19.8412 18.354 20.25 17.2913 20.25 15.9736V8.02638C20.25 6.70868 19.8412 5.64597 19.1651 4.91984C18.4946 4.19975 17.5056 3.75 16.2169 3.75H7.78216C6.49828 3.75 5.50921 4.19943 4.83745 4.92012ZM6.99746 9.2176C7.04039 8.83847 7.36114 8.552 7.7427 8.552H10.0749C10.4891 8.552 10.8249 8.88778 10.8249 9.302C10.8249 9.71621 10.4891 10.052 10.0749 10.052H8.41256L8.31291 10.9319H8.95697C10.1152 10.9319 11.0565 11.8715 11.0565 13.0314C11.0565 14.3663 9.97317 15.4491 8.63783 15.4491C7.78786 15.4491 7.07214 15.0047 6.6528 14.3667C6.42531 14.0205 6.5215 13.5555 6.86765 13.328C7.2138 13.1005 7.67883 13.1967 7.90632 13.5428C8.07271 13.796 8.3358 13.9491 8.63783 13.9491C9.14531 13.9491 9.55648 13.5373 9.55648 13.0314C9.55648 12.7007 9.28743 12.4319 8.95697 12.4319H7.47318C7.25957 12.4319 7.0561 12.3408 6.91381 12.1815C6.77152 12.0222 6.70391 11.8097 6.72795 11.5975L6.99746 9.2176ZM11.9566 11.8322C12.0286 10.0731 13.4892 8.47969 15.3637 8.57341L15.3648 8.57347C15.8461 8.59828 16.3022 8.72135 16.7129 8.92481C17.084 9.1087 17.2359 9.55865 17.052 9.92981C16.8681 10.301 16.4181 10.4528 16.047 10.2689C15.8176 10.1553 15.5617 10.0857 15.2882 10.0715C14.3607 10.0255 13.4981 10.8488 13.4554 11.8936L13.4553 11.8941C13.4054 13.0927 14.1701 13.9297 15.191 13.9297C15.5712 13.9297 15.7712 13.8578 15.8586 13.796C15.8938 13.7711 15.9144 13.746 15.9302 13.7127C15.9477 13.6756 15.9714 13.6017 15.9714 13.4673V12.7491H15.191C14.7767 12.7491 14.441 12.4133 14.441 11.9991C14.441 11.5849 14.7767 11.2491 15.191 11.2491H16.7214C17.1357 11.2491 17.4714 11.5849 17.4714 11.9991V13.4673C17.4714 14.116 17.2257 14.6666 16.7244 15.0209C16.2701 15.342 15.7048 15.4297 15.191 15.4297C13.1608 15.4297 11.8783 13.7177 11.9566 11.8322Z" fill="black"/>
</svg>
