<svg width="24" height="24" viewBox="0 0 24 24" fill="none" xmlns="http://www.w3.org/2000/svg">
<path fill-rule="evenodd" clip-rule="evenodd" d="M21 2.49023C21.4142 2.49023 21.75 2.82602 21.75 3.24023V10.778C21.75 11.1922 21.4142 11.528 21 11.528C20.5858 11.528 20.25 11.1922 20.25 10.778V3.24023C20.25 2.82602 20.5858 2.49023 21 2.49023ZM14.9738 6.42153C15.388 6.42153 15.7238 6.75732 15.7238 7.17153V10.7779C15.7238 11.1921 15.388 11.5279 14.9738 11.5279C14.5596 11.5279 14.2238 11.1921 14.2238 10.7779V7.17153C14.2238 6.75732 14.5596 6.42153 14.9738 6.42153ZM8.99931 10.5048C9.41352 10.5048 9.74931 10.8406 9.74931 11.2548V20.7609C9.74931 21.1752 9.41352 21.5109 8.99931 21.5109C8.5851 21.5109 8.24931 21.1752 8.24931 20.7609V11.2548C8.24931 10.8406 8.5851 10.5048 8.99931 10.5048ZM14.4434 14.538C14.7363 14.245 15.2112 14.245 15.5041 14.5379L17.8199 16.8533L20.1358 14.5379C20.4287 14.245 20.9036 14.245 21.1964 14.538C21.4893 14.8309 21.4892 15.3058 21.1963 15.5986L18.8807 17.9138L21.1963 20.229C21.4892 20.5219 21.4893 20.9968 21.1964 21.2897C20.9036 21.5826 20.4287 21.5827 20.1358 21.2898L17.8199 18.9744L15.5041 21.2898C15.2112 21.5827 14.7363 21.5826 14.4434 21.2897C14.1506 20.9968 14.1506 20.5219 14.4435 20.229L16.7592 17.9138L14.4435 15.5986C14.1506 15.3058 14.1506 14.8309 14.4434 14.538ZM3 14.3575C3.41421 14.3575 3.75 14.6933 3.75 15.1075V20.7606C3.75 21.1748 3.41421 21.5106 3 21.5106C2.58579 21.5106 2.25 21.1748 2.25 20.7606V15.1075C2.25 14.6933 2.58579 14.3575 3 14.3575Z" fill="black"/>
</svg>
