<svg width="24" height="24" viewBox="0 0 24 24" fill="none" xmlns="http://www.w3.org/2000/svg">
<path fill-rule="evenodd" clip-rule="evenodd" d="M12 3.75C7.44335 3.75 3.75 7.44421 3.75 12C3.75 16.5558 7.44335 20.25 12 20.25C16.5567 20.25 20.25 16.5558 20.25 12C20.25 7.44421 16.5567 3.75 12 3.75ZM2.25 12C2.25 6.61589 6.61481 2.25 12 2.25C17.3852 2.25 21.75 6.61589 21.75 12C21.75 17.3841 17.3852 21.75 12 21.75C6.61481 21.75 2.25 17.3841 2.25 12ZM11.6759 7.0516C11.9358 6.9267 12.2442 6.9618 12.4693 7.14189L15.1392 9.27757C15.3171 9.41989 15.4207 9.63536 15.4207 9.86319C15.4207 10.091 15.3171 10.3065 15.1392 10.4489L13.2008 11.9999L15.1392 13.5509C15.3171 13.6933 15.4207 13.9088 15.4207 14.1366C15.4207 14.3644 15.3171 14.5799 15.1392 14.7222L12.4693 16.8579C12.2442 17.038 11.9358 17.0731 11.6759 16.9482C11.4161 16.8233 11.2508 16.5605 11.2508 16.2722V13.5601L9.7986 14.7221C9.47518 14.9809 9.0032 14.9285 8.74442 14.6051C8.48563 14.2817 8.53803 13.8097 8.86145 13.5509L10.7999 11.9999L8.86145 10.4489C8.53803 10.1901 8.48563 9.71809 8.74442 9.39467C9.0032 9.07124 9.47518 9.01885 9.7986 9.27763L11.2508 10.4396V7.72757C11.2508 7.43927 11.4161 7.17649 11.6759 7.0516ZM12.7508 13.5609L13.4701 14.1365L12.7508 14.7118V13.5609ZM12.7508 10.4389V9.28795L13.4701 9.86332L12.7508 10.4389Z" fill="black"/>
</svg>
