<svg width="24" height="24" viewBox="0 0 24 24" fill="none" xmlns="http://www.w3.org/2000/svg">
<path fill-rule="evenodd" clip-rule="evenodd" d="M11.2086 2.32404C11.4684 2.19915 11.7769 2.23424 12.002 2.41433L17.6229 6.91043C17.8008 7.05277 17.9044 7.26829 17.9044 7.49615C17.9044 7.72402 17.8008 7.93953 17.6228 8.08185L12.7288 11.9957L17.6229 15.9104C17.8007 16.0527 17.9043 16.2681 17.9044 16.4958C17.9045 16.7235 17.8011 16.939 17.6234 17.0814L12.0025 21.5853C11.7774 21.7656 11.4689 21.8009 11.2089 21.6761C10.9489 21.5513 10.7835 21.2884 10.7835 21V13.5591L7.31385 16.331C6.99023 16.5895 6.5183 16.5367 6.25976 16.2131C6.00122 15.8895 6.05399 15.4175 6.37761 15.159L10.3328 11.9993L6.37694 8.83172C6.05361 8.57281 6.00139 8.10082 6.26029 7.77749C6.5192 7.45416 6.99119 7.40194 7.31452 7.66084L10.7835 10.4386V3.00001C10.7835 2.71171 10.9488 2.44893 11.2086 2.32404ZM12.2835 13.5603L15.9543 16.4966L12.2835 19.438V13.5603ZM12.2835 10.4311V4.56035L15.9536 7.49605L12.2835 10.4311Z" fill="black"/>
</svg>
