<svg width="24" height="24" viewBox="0 0 24 24" fill="none" xmlns="http://www.w3.org/2000/svg">
<path fill-rule="evenodd" clip-rule="evenodd" d="M9.17676 12.4191C9.17676 10.864 10.4382 9.60114 11.9947 9.60114C13.5505 9.60114 14.8118 10.8642 14.8118 12.4191C14.8118 13.9752 13.5503 15.2371 11.9947 15.2371C10.4384 15.2371 9.17676 13.9754 9.17676 12.4191ZM11.9947 11.1011C11.2671 11.1011 10.6768 11.692 10.6768 12.4191C10.6768 13.147 11.2669 13.7371 11.9947 13.7371C12.7214 13.7371 13.3118 13.1472 13.3118 12.4191C13.3118 11.6917 12.7212 11.1011 11.9947 11.1011Z" fill="black"/>
<path fill-rule="evenodd" clip-rule="evenodd" d="M11.9963 13.7367C12.4105 13.7366 12.7463 14.0724 12.7463 14.4866L12.7468 20.9999C12.7468 21.4142 12.4111 21.75 11.9968 21.75C11.5826 21.75 11.2468 21.4143 11.2468 21L11.2463 14.4867C11.2463 14.0725 11.5821 13.7367 11.9963 13.7367Z" fill="black"/>
<path fill-rule="evenodd" clip-rule="evenodd" d="M10.8685 6.06819C11.5688 5.66387 12.4316 5.66387 13.1319 6.06819L12.7569 6.71771L13.1319 6.06819L16.9056 8.24693C17.6059 8.65124 18.0373 9.39845 18.0373 10.2071V14.5646C18.0373 15.3732 17.6059 16.1204 16.9056 16.5247L15.0187 17.6141C14.66 17.8212 14.2013 17.6983 13.9942 17.3396C13.7871 16.9808 13.91 16.5222 14.2687 16.315L16.1556 15.2257C16.3918 15.0893 16.5373 14.8373 16.5373 14.5646V10.2071C16.5373 9.93435 16.3918 9.68233 16.1556 9.54597L12.3819 7.36723C12.1457 7.23086 11.8547 7.23086 11.6185 7.36723L11.2435 6.71771L11.6185 7.36723L7.84483 9.54597C7.60864 9.68233 7.46313 9.93435 7.46313 10.2071V14.5646C7.46313 14.8373 7.60864 15.0893 7.84483 15.2257L9.73167 16.315C10.0904 16.5222 10.2133 16.9808 10.0062 17.3396C9.79909 17.6983 9.34039 17.8212 8.98167 17.6141L7.09483 16.5247C6.39454 16.1204 5.96313 15.3732 5.96313 14.5646V10.2071C5.96313 9.39845 6.39453 8.65124 7.09483 8.24693L10.8685 6.06819Z" fill="black"/>
<path fill-rule="evenodd" clip-rule="evenodd" d="M10.1943 2.73383C11.3116 2.08872 12.6882 2.08872 13.8056 2.73383L19.4393 5.98645C20.5567 6.63156 21.245 7.82376 21.245 9.11396V15.6192C21.245 16.9094 20.5567 18.1016 19.4393 18.7467L16.6225 20.373L16.6084 20.3809L15.2312 21.1371C14.8682 21.3364 14.4122 21.2037 14.2129 20.8406C14.0135 20.4775 14.1462 20.0216 14.5093 19.8222L15.8794 19.07L18.6893 17.4477C19.3426 17.0705 19.745 16.3735 19.745 15.6192V9.11396C19.745 8.35965 19.3426 7.66264 18.6893 7.28549L13.0556 4.03287C12.4023 3.65571 11.5975 3.65571 10.9443 4.03287L5.31055 7.28549C4.6573 7.66264 4.25488 8.35965 4.25488 9.11396V15.6192C4.25488 16.3735 4.6573 17.0705 5.31055 17.4477L8.12104 19.0703L9.48573 19.8229C9.84845 20.0229 9.98034 20.4791 9.78031 20.8418C9.58029 21.2045 9.1241 21.3364 8.76138 21.1364L7.39023 20.3803L7.37741 20.373L4.56055 18.7467C3.4432 18.1016 2.75488 16.9094 2.75488 15.6192V9.11396C2.75488 7.82376 3.4432 6.63156 4.56055 5.98645L10.1943 2.73383Z" fill="black"/>
</svg>
