<svg width="24" height="24" viewBox="0 0 24 24" fill="none" xmlns="http://www.w3.org/2000/svg">
<path fill-rule="evenodd" clip-rule="evenodd" d="M13.4131 13.2031C13.7979 13.6172 13.979 14.168 13.979 14.7402V16.4375C13.979 17.0098 13.7998 17.5586 13.415 17.9727C13.1538 18.252 12.8242 18.4434 12.4546 18.5391C12.2705 18.5879 12.0767 18.6113 11.876 18.6113H8.91504C8.31201 18.6113 7.76709 18.3926 7.37598 17.9727C6.99121 17.5586 6.81104 17.0098 6.81104 16.4375V14.7402C6.81104 14.168 6.99121 13.6191 7.37598 13.2051C7.76709 12.7852 8.31201 12.5664 8.91504 12.5664H11.876C12.4771 12.5664 13.022 12.7852 13.4131 13.2031ZM12.3159 14.2266C12.2383 14.1426 12.106 14.0664 11.876 14.0664H8.91504C8.68311 14.0664 8.55127 14.1445 8.47412 14.2266C8.39111 14.3164 8.31104 14.4766 8.31104 14.7402V16.4375C8.31104 16.6992 8.39111 16.8613 8.47412 16.9512C8.55127 17.0332 8.68311 17.1113 8.91504 17.1113H11.876C12.1079 17.1113 12.2393 17.0332 12.3159 16.9512C12.3398 16.9258 12.3638 16.8926 12.3853 16.8535C12.3926 16.8398 12.3994 16.8281 12.4062 16.8125C12.4487 16.7207 12.479 16.5977 12.479 16.4375V14.7402C12.479 14.4785 12.3989 14.3164 12.3159 14.2266Z" fill="black"/>
<path fill-rule="evenodd" clip-rule="evenodd" d="M17.106 18.5137C16.832 20.3457 15.2524 21.75 13.3452 21.75L7.44727 21.748C5.34717 21.748 3.64404 20.0469 3.64404 17.9473V9.2832C3.64404 7.38477 5.03955 5.80859 6.8623 5.52734C6.93408 5.01562 7.10791 4.53711 7.36182 4.11133C8.02783 2.99609 9.24609 2.25 10.6382 2.25H14.8062C15.4722 2.25 16.104 2.52148 16.564 3.00195L19.6758 6.24805C20.1221 6.70508 20.3569 7.31641 20.3569 7.93945V14.752C20.3569 16.6621 18.9414 18.2441 17.106 18.5137ZM15.646 17.8047C15.646 17.7871 15.6465 17.7676 15.6479 17.75V11.1523C15.6479 10.9141 15.5552 10.6816 15.3882 10.5098L12.2778 7.26953C12.1021 7.08594 11.8589 6.98242 11.605 6.98242H7.44727C6.1748 6.98242 5.14404 8.01367 5.14404 9.2832V17.9473C5.14404 18.6934 5.49854 19.3555 6.04883 19.7754C6.43652 20.0723 6.92139 20.248 7.44727 20.248L13.3452 20.25C14.6172 20.25 15.6479 19.2188 15.6479 17.9473V17.8594C15.6465 17.8418 15.646 17.8223 15.646 17.8047ZM8.39844 5.48242H11.605C12.2681 5.48242 12.9009 5.75195 13.3599 6.22852L16.4702 9.4707C16.9053 9.92188 17.1479 10.5273 17.1479 11.1523V16.9766C18.1299 16.7129 18.8569 15.8145 18.8569 14.752V7.93945C18.8569 7.69141 18.7632 7.46094 18.6021 7.29492L18.5972 7.28906L15.481 4.04102L15.48 4.03906C15.3013 3.85156 15.0601 3.75 14.8062 3.75H10.6382C9.56104 3.75 8.65576 4.48633 8.39844 5.48242Z" fill="black"/>
</svg>
