<svg width="24" height="24" viewBox="0 0 24 24" fill="none" xmlns="http://www.w3.org/2000/svg">
<path fill-rule="evenodd" clip-rule="evenodd" d="M3.93457 6.72065C3.93457 4.25152 5.93609 2.25 8.40522 2.25H13.4734C14.2361 2.25 14.9658 2.5609 15.4937 3.11139L19.285 7.06036C19.7845 7.58104 20.0652 8.27603 20.0652 8.99935V17.2794C20.0652 19.7485 18.0636 21.75 15.5945 21.75H8.40425C5.9346 21.75 3.93457 19.747 3.93457 17.2784V6.72065ZM8.40522 3.75C6.76451 3.75 5.43457 5.07994 5.43457 6.72065V17.2784C5.43457 18.9196 6.76405 20.25 8.40425 20.25H15.5945C17.2352 20.25 18.5652 18.9201 18.5652 17.2794V8.99935C18.5652 8.66408 18.435 8.34108 18.2028 8.09895L14.4113 4.14991C14.1667 3.89477 13.8278 3.75 13.4734 3.75H8.40522ZM12.3564 9.6104C12.5992 9.74123 12.7507 9.99483 12.7507 10.2707V15.2727C12.7507 15.687 12.4149 16.0227 12.0007 16.0227C11.5865 16.0227 11.2507 15.687 11.2507 15.2727V11.663L10.9616 11.8534C10.6158 12.0813 10.1506 11.9856 9.92272 11.6398C9.69484 11.2939 9.79049 10.8287 10.1364 10.6008L11.5881 9.6444C11.8184 9.49263 12.1135 9.47957 12.3564 9.6104Z" fill="black"/>
</svg>
