<svg width="24" height="24" viewBox="0 0 24 24" fill="none" xmlns="http://www.w3.org/2000/svg">
<path fill-rule="evenodd" clip-rule="evenodd" d="M3.59204 6.61659C3.59204 4.20471 5.54798 2.25 7.95864 2.25H12.882C13.6301 2.25 14.3408 2.55487 14.859 3.09633C14.8594 3.09679 14.8598 3.09726 14.8603 3.09773L16.1276 4.41168C16.4152 4.70982 16.4066 5.18462 16.1085 5.47217C15.8104 5.75973 15.3356 5.75115 15.048 5.45302L13.7759 4.13408C13.5391 3.88634 13.219 3.75 12.882 3.75H7.95864C6.37615 3.75 5.09204 5.0334 5.09204 6.61659V16.1781C5.09204 16.5924 4.75625 16.9281 4.34204 16.9281C3.92783 16.9281 3.59204 16.5924 3.59204 16.1781V6.61659ZM20.1881 5.96731C20.481 6.26021 20.481 6.73509 20.1881 7.02797L19.1832 8.03284C19.2635 8.2962 19.3008 8.56743 19.3008 8.83369V16.8774C19.3008 19.288 17.3549 21.2352 14.943 21.2352H7.95891C7.37427 21.2352 6.81517 21.121 6.30569 20.9095L5.68476 21.5303C5.39186 21.8232 4.91698 21.8232 4.6241 21.5303C4.33122 21.2374 4.33123 20.7625 4.62414 20.4697L5.58672 19.5071C5.6114 19.4784 5.63798 19.4519 5.66613 19.4277L17.7193 7.37534C17.7463 7.34335 17.7762 7.31335 17.8089 7.28578L19.1275 5.96728C19.4204 5.67439 19.8953 5.67441 20.1881 5.96731ZM17.8008 9.41507L7.514 19.7012C7.65813 19.7236 7.80669 19.7352 7.95891 19.7352H14.943C16.5262 19.7352 17.8008 18.4599 17.8008 16.8774V9.41507Z" fill="black"/>
</svg>
