<svg width="24" height="24" viewBox="0 0 24 24" fill="none" xmlns="http://www.w3.org/2000/svg">
<path fill-rule="evenodd" clip-rule="evenodd" d="M3.93481 6.72065C3.93481 4.25152 5.93633 2.25 8.40546 2.25H13.4737C14.2363 2.25 14.966 2.5609 15.4939 3.11139L19.2853 7.06036C19.7847 7.58104 20.0654 8.27603 20.0654 8.99935V17.2794C20.0654 19.7485 18.0639 21.75 15.5948 21.75H8.40449C5.93595 21.75 3.93481 19.7471 3.93481 17.2784V6.72065ZM8.40546 3.75C6.76476 3.75 5.43481 5.07994 5.43481 6.72065V17.2784C5.43481 18.9195 6.76514 20.25 8.40449 20.25H15.5948C17.2355 20.25 18.5654 18.9201 18.5654 17.2794V8.99935C18.5654 8.66408 18.4353 8.34108 18.203 8.09895L14.4116 4.14991C14.1669 3.89477 13.828 3.75 13.4737 3.75H8.40546ZM9.34073 10.0995C9.63119 9.81939 10.0912 9.81931 10.3818 10.0993L11.7186 11.3875C12.0168 11.675 12.0256 12.1498 11.7382 12.448C11.4508 12.7463 10.976 12.7551 10.6777 12.4676L10.6113 12.4037V15.4711C10.6113 15.8854 10.2755 16.2211 9.86133 16.2211C9.44712 16.2211 9.11133 15.8854 9.11133 15.4711V12.4045L9.046 12.4675C8.74783 12.755 8.27304 12.7464 7.98552 12.4482C7.69799 12.15 7.70662 11.6752 8.00479 11.3877L9.34073 10.0995ZM14.139 10.2713C14.5532 10.2713 14.889 10.6071 14.889 11.0213V14.0886L14.9541 14.0258C15.2521 13.7381 15.7269 13.7466 16.0145 14.0446C16.3022 14.3427 16.2937 14.8175 15.9957 15.1051L14.6598 16.3943C14.3693 16.6747 13.909 16.6748 13.6184 16.3945L12.2815 15.1053C11.9833 14.8178 11.9747 14.343 12.2622 14.0448C12.5498 13.7467 13.0246 13.7381 13.3227 14.0256L13.389 14.0895V11.0213C13.389 10.6071 13.7248 10.2713 14.139 10.2713Z" fill="black"/>
</svg>
