<svg width="24" height="24" viewBox="0 0 24 24" fill="none" xmlns="http://www.w3.org/2000/svg">
<path fill-rule="evenodd" clip-rule="evenodd" d="M3.93457 6.72065C3.93457 4.25152 5.93609 2.25 8.40522 2.25H13.4734C14.2361 2.25 14.9658 2.5609 15.4937 3.11139L19.285 7.06036C19.7845 7.58104 20.0652 8.27603 20.0652 8.99935V17.2794C20.0652 19.7485 18.0636 21.75 15.5945 21.75H8.40425C5.9346 21.75 3.93457 19.747 3.93457 17.2784V6.72065ZM8.40522 3.75C6.76451 3.75 5.43457 5.07994 5.43457 6.72065V17.2784C5.43457 18.9196 6.76405 20.25 8.40425 20.25H15.5945C17.2352 20.25 18.5652 18.9201 18.5652 17.2794V8.99935C18.5652 8.66408 18.435 8.34108 18.2028 8.09895L14.4113 4.14991C14.1667 3.89477 13.8278 3.75 13.4734 3.75H8.40522ZM9.53774 12.6332C9.4034 12.7775 9.29511 13.0171 9.29511 13.3699V15.4404C9.29511 15.7939 9.40348 16.0334 9.53764 16.1773C9.66622 16.3154 9.87194 16.4242 10.1953 16.4242H13.804C14.128 16.4242 14.3336 16.3153 14.4619 16.1775C14.5959 16.0336 14.7042 15.7942 14.7042 15.4404V13.3699C14.7042 13.018 14.5957 12.7783 14.4608 12.6336C14.3313 12.4947 14.1251 12.3861 13.804 12.3861H10.1953C9.87224 12.3861 9.66648 12.495 9.53774 12.6332ZM8.44007 11.6109C8.88222 11.1362 9.50154 10.8861 10.1953 10.8861H13.804C14.4968 10.8861 15.1157 11.1365 15.5578 11.6106C15.9945 12.0789 16.2042 12.7061 16.2042 13.3699V15.4404C16.2042 16.1034 15.9963 16.7309 15.5596 17.1998C15.1173 17.6747 14.4978 17.9242 13.804 17.9242H10.1953C9.50184 17.9242 8.88248 17.6746 8.44017 17.1999C8.00344 16.7311 7.79511 16.1037 7.79511 15.4404V13.3699C7.79511 12.707 8.00352 12.0797 8.44007 11.6109Z" fill="black"/>
</svg>
