<svg width="24" height="24" viewBox="0 0 24 24" fill="none" xmlns="http://www.w3.org/2000/svg">
<path d="M19.9929 4.74007C19.8606 4.87093 19.6794 4.95296 19.4782 4.95687L18.7024 4.97249C21.9372 8.01546 22.7522 12.9959 20.3952 16.9764C18.7072 19.828 15.7873 21.4979 12.7185 21.7147C12.3044 21.742 11.9465 21.4315 11.9172 21.0174C11.8884 20.6053 12.2004 20.2459 12.6135 20.2186C15.2121 20.035 17.6784 18.6209 19.1042 16.2108C21.1291 12.7948 20.3864 8.5057 17.5446 5.94515L17.5642 6.93538C17.5725 7.34945 17.2434 7.69124 16.8293 7.69906C16.4152 7.70687 16.0725 7.37874 16.0642 6.96468L16.0114 4.27718C16.007 4.07796 16.0822 3.88656 16.2204 3.74202C16.3581 3.59945 16.5471 3.51546 16.7463 3.51156L19.4494 3.45882C19.8635 3.45101 20.2053 3.77913 20.2131 4.1932C20.218 4.40609 20.133 4.59945 19.9929 4.74007Z" fill="black"/>
<path d="M4.03048 20.0272C4.00949 19.6131 4.32834 19.2616 4.74142 19.2401L5.51339 19.201C2.18917 16.2577 1.22384 11.3065 3.46017 7.2557C5.06027 4.35531 7.92843 2.59749 10.9904 2.2889C11.4021 2.24788 11.7702 2.54867 11.8112 2.95882C11.8532 3.37093 11.5525 3.74007 11.1403 3.78109C8.54855 4.04085 6.12619 5.52913 4.77316 7.98031C2.85324 11.4608 3.7258 15.7264 6.64523 18.1991L6.59543 17.2069C6.57541 16.7928 6.89328 16.4412 7.30734 16.4217C7.7214 16.4002 8.07345 16.7186 8.09445 17.1326L8.22824 19.8162C8.24923 20.2303 7.93039 20.5819 7.51632 20.6034L4.81613 20.7381C4.40353 20.7596 4.0505 20.4412 4.03048 20.0272Z" fill="black"/>
<path fill-rule="evenodd" clip-rule="evenodd" d="M13.5886 7.86507C13.6721 7.92367 13.7507 7.99007 13.8225 8.06429L15.3694 9.67562C15.6555 9.97249 15.8112 10.369 15.8112 10.7752V14.1561C15.8112 14.9569 15.3962 15.66 14.7697 16.0643C14.4157 16.2928 13.9944 16.4256 13.5422 16.4256H10.6081C9.35519 16.4256 8.33908 15.408 8.33908 14.1561V9.84554C8.33908 9.2596 8.56125 8.72445 8.92599 8.3221C9.34103 7.86312 9.94113 7.57601 10.6081 7.57601H12.6775C13.0051 7.57601 13.323 7.67757 13.5886 7.86507ZM12.7395 9.10335C12.7243 9.08577 12.7024 9.07601 12.6775 9.07601H10.6081C10.1833 9.07601 9.83908 9.41976 9.83908 9.84554V14.1561C9.83908 14.5799 10.1833 14.9256 10.6081 14.9256H13.5422C13.9675 14.9256 14.3112 14.5799 14.3112 14.1561V10.7752C14.3112 10.7498 14.3015 10.7303 14.2883 10.7166L14.2873 10.7147L12.7395 9.10335Z" fill="black"/>
</svg>
