<svg width="25" height="24" viewBox="0 0 25 24" fill="none" xmlns="http://www.w3.org/2000/svg">
<path d="M12.2505 2.68945H7.43272C5.12282 2.68945 3.25 4.56227 3.25 6.87217V14.3066C3.25 16.6165 5.12282 18.4883 7.43272 18.4883H17.0673C19.3782 18.4883 21.25 16.6155 21.25 14.3056V6.87217C21.25 4.56227 19.3782 2.68945 17.0683 2.68945H15.6424" stroke="black" stroke-width="1.5" stroke-linecap="round" stroke-linejoin="round"/>
<path d="M18.6187 20.8201H16.3558" stroke="black" stroke-width="1.5" stroke-linecap="round" stroke-linejoin="round"/>
<path d="M8.14665 20.8201H5.88379" stroke="black" stroke-width="1.5" stroke-linecap="round" stroke-linejoin="round"/>
<path d="M14.6619 7.36719V8.44129" stroke="black" stroke-width="1.5" stroke-linecap="round" stroke-linejoin="round"/>
<path d="M14.6619 12.7344V13.8085" stroke="black" stroke-width="1.5" stroke-linecap="round" stroke-linejoin="round"/>
<path d="M11.8689 8.97832L12.796 9.51537" stroke="black" stroke-width="1.5" stroke-linecap="round" stroke-linejoin="round"/>
<path d="M16.5259 11.6619L17.4529 12.199" stroke="black" stroke-width="1.5" stroke-linecap="round" stroke-linejoin="round"/>
<path d="M11.8689 12.199L12.796 11.6619" stroke="black" stroke-width="1.5" stroke-linecap="round" stroke-linejoin="round"/>
<path d="M16.5259 9.51537L17.4529 8.97832" stroke="black" stroke-width="1.5" stroke-linecap="round" stroke-linejoin="round"/>
<path d="M16.1798 9.06789C17.0187 9.90679 17.0187 11.2671 16.1798 12.1059C15.3409 12.9448 13.9816 12.9448 13.1427 12.1059C12.3048 11.2671 12.3048 9.90679 13.1427 9.06789C13.9816 8.22997 15.3409 8.22997 16.1798 9.06789" stroke="black" stroke-width="1.5" stroke-linecap="round" stroke-linejoin="round"/>
<path d="M8.54985 7.375H8.1598C7.54631 7.375 7.04944 7.87187 7.04944 8.48536V12.6887C7.04944 13.3012 7.54631 13.799 8.1598 13.799H8.54985" stroke="black" stroke-width="1.5" stroke-linecap="round" stroke-linejoin="round"/>
</svg>