<svg width="24" height="24" viewBox="0 0 24 24" fill="none" xmlns="http://www.w3.org/2000/svg">
<path fill-rule="evenodd" clip-rule="evenodd" d="M14.1679 15.0949C13.6559 15.0949 13.2389 14.6779 13.2389 14.1669C13.2389 13.6549 13.6559 13.2379 14.1679 13.2379C14.6799 13.2379 15.0969 13.6549 15.0969 14.1669C15.0969 14.6779 14.6799 15.0949 14.1679 15.0949ZM10.3529 14.7609C10.2059 14.9079 10.0149 14.9809 9.82193 14.9809C9.62993 14.9809 9.43893 14.9079 9.29193 14.7609C8.99893 14.4679 8.99893 13.9929 9.29193 13.6999L13.7469 9.24394C14.0399 8.95094 14.5149 8.95094 14.8079 9.24394C15.1009 9.53694 15.1009 10.0119 14.8079 10.3049L10.3529 14.7609ZM9.83193 8.90194C10.3439 8.90194 10.7599 9.31894 10.7599 9.83094C10.7599 10.3429 10.3439 10.7589 9.83193 10.7589C9.31993 10.7589 8.90293 10.3429 8.90293 9.83094C8.90293 9.31894 9.31993 8.90194 9.83193 8.90194ZM17.8989 16.4599C17.6059 16.1679 17.6059 15.6929 17.8989 15.3999C18.1919 15.1069 18.6669 15.1069 18.9599 15.3999L20.3369 16.7759C20.4209 16.7609 20.4969 16.7299 20.5869 16.7299C20.8639 16.7299 21.1229 16.6059 21.2969 16.3909C21.4709 16.1759 21.5379 15.8969 21.4799 15.6259C20.9619 13.2199 20.9619 10.7809 21.4799 8.37394C21.5379 8.10394 21.4719 7.82494 21.2969 7.60994C21.1229 7.39394 20.8639 7.27094 20.5169 7.27094C20.4509 7.27094 20.3939 7.24294 20.3309 7.23294L18.9589 8.60094C18.8129 8.74694 18.6209 8.81994 18.4299 8.81994C18.2369 8.81994 18.0449 8.74594 17.8979 8.59894C17.6059 8.30494 17.6059 7.83094 17.8999 7.53794L19.3309 6.11294C19.3309 6.10094 19.3239 6.09094 19.3239 6.07894V5.94194C19.3239 5.65194 19.1989 5.37594 18.9799 5.18394C18.7619 4.99194 18.4649 4.90494 18.1819 4.94194L17.6249 5.01694C17.1079 5.08594 16.8519 5.11994 16.5949 5.14994C13.5459 5.51594 10.4539 5.51594 7.40493 5.14994C7.14793 5.11994 6.89193 5.08594 6.37693 5.01694L5.81693 4.94194C5.53193 4.90594 5.23693 4.99294 5.01993 5.18394C4.80093 5.37594 4.67593 5.65194 4.67593 5.94194V6.07894C4.67593 6.10494 4.66193 6.12794 4.65993 6.15394L6.06893 7.55794C6.36293 7.85094 6.36293 8.32594 6.07093 8.61894C5.92493 8.76594 5.73193 8.83994 5.53993 8.83994C5.34893 8.83994 5.15693 8.76694 5.01093 8.62094L3.61793 7.23294C3.54893 7.24294 3.48693 7.27094 3.41293 7.27094C3.13693 7.27094 2.87793 7.39394 2.70293 7.60994C2.52893 7.82494 2.46193 8.10394 2.51993 8.37494C3.03793 10.7809 3.03793 13.2199 2.51993 15.6269C2.46193 15.8969 2.52893 16.1759 2.70293 16.3909C2.87693 16.6059 3.13593 16.7299 3.48393 16.7299C3.53593 16.7299 3.57993 16.7529 3.62993 16.7589L5.02193 15.3779C5.31493 15.0869 5.78993 15.0869 6.08193 15.3819C6.37393 15.6759 6.37193 16.1499 6.07793 16.4419L4.66093 17.8499C4.66293 17.8749 4.67593 17.8969 4.67593 17.9229V18.0589C4.67593 18.3499 4.80193 18.6269 5.02093 18.8179C5.23893 19.0099 5.53693 19.0959 5.81693 19.0579L6.61893 18.9519C6.97993 18.9039 7.19193 18.8759 7.40493 18.8499C10.4539 18.4849 13.5459 18.4849 16.5949 18.8499C16.8039 18.8749 17.0139 18.9029 17.3649 18.9499L18.1819 19.0579C18.2269 19.0639 18.2719 19.0669 18.3159 19.0669C18.5589 19.0669 18.7949 18.9799 18.9799 18.8179C19.1979 18.6269 19.3239 18.3499 19.3239 18.0589V17.9229C19.3239 17.9109 19.3299 17.9019 19.3309 17.8909L17.8989 16.4599Z" fill="black"/>
<path fill-rule="evenodd" clip-rule="evenodd" d="M14.1679 15.0949C13.6559 15.0949 13.2389 14.6779 13.2389 14.1669C13.2389 13.6549 13.6559 13.2379 14.1679 13.2379C14.6799 13.2379 15.0969 13.6549 15.0969 14.1669C15.0969 14.6779 14.6799 15.0949 14.1679 15.0949ZM10.3529 14.7609C10.2059 14.9079 10.0149 14.9809 9.82193 14.9809C9.62993 14.9809 9.43893 14.9079 9.29193 14.7609C8.99893 14.4679 8.99893 13.9929 9.29193 13.6999L13.7469 9.24394C14.0399 8.95094 14.5149 8.95094 14.8079 9.24394C15.1009 9.53694 15.1009 10.0119 14.8079 10.3049L10.3529 14.7609ZM9.83193 8.90194C10.3439 8.90194 10.7599 9.31894 10.7599 9.83094C10.7599 10.3429 10.3439 10.7589 9.83193 10.7589C9.31993 10.7589 8.90293 10.3429 8.90293 9.83094C8.90293 9.31894 9.31993 8.90194 9.83193 8.90194ZM17.8989 16.4599C17.6059 16.1679 17.6059 15.6929 17.8989 15.3999C18.1919 15.1069 18.6669 15.1069 18.9599 15.3999L20.3369 16.7759C20.4209 16.7609 20.4969 16.7299 20.5869 16.7299C20.8639 16.7299 21.1229 16.6059 21.2969 16.3909C21.4709 16.1759 21.5379 15.8969 21.4799 15.6259C20.9619 13.2199 20.9619 10.7809 21.4799 8.37394C21.5379 8.10394 21.4719 7.82494 21.2969 7.60994C21.1229 7.39394 20.8639 7.27094 20.5169 7.27094C20.4509 7.27094 20.3939 7.24294 20.3309 7.23294L18.9589 8.60094C18.8129 8.74694 18.6209 8.81994 18.4299 8.81994C18.2369 8.81994 18.0449 8.74594 17.8979 8.59894C17.6059 8.30494 17.6059 7.83094 17.8999 7.53794L19.3309 6.11294C19.3309 6.10094 19.3239 6.09094 19.3239 6.07894V5.94194C19.3239 5.65194 19.1989 5.37594 18.9799 5.18394C18.7619 4.99194 18.4649 4.90494 18.1819 4.94194L17.6249 5.01694C17.1079 5.08594 16.8519 5.11994 16.5949 5.14994C13.5459 5.51594 10.4539 5.51594 7.40493 5.14994C7.14793 5.11994 6.89193 5.08594 6.37693 5.01694L5.81693 4.94194C5.53193 4.90594 5.23693 4.99294 5.01993 5.18394C4.80093 5.37594 4.67593 5.65194 4.67593 5.94194V6.07894C4.67593 6.10494 4.66193 6.12794 4.65993 6.15394L6.06893 7.55794C6.36293 7.85094 6.36293 8.32594 6.07093 8.61894C5.92493 8.76594 5.73193 8.83994 5.53993 8.83994C5.34893 8.83994 5.15693 8.76694 5.01093 8.62094L3.61793 7.23294C3.54893 7.24294 3.48693 7.27094 3.41293 7.27094C3.13693 7.27094 2.87793 7.39394 2.70293 7.60994C2.52893 7.82494 2.46193 8.10394 2.51993 8.37494C3.03793 10.7809 3.03793 13.2199 2.51993 15.6269C2.46193 15.8969 2.52893 16.1759 2.70293 16.3909C2.87693 16.6059 3.13593 16.7299 3.48393 16.7299C3.53593 16.7299 3.57993 16.7529 3.62993 16.7589L5.02193 15.3779C5.31493 15.0869 5.78993 15.0869 6.08193 15.3819C6.37393 15.6759 6.37193 16.1499 6.07793 16.4419L4.66093 17.8499C4.66293 17.8749 4.67593 17.8969 4.67593 17.9229V18.0589C4.67593 18.3499 4.80193 18.6269 5.02093 18.8179C5.23893 19.0099 5.53693 19.0959 5.81693 19.0579L6.61893 18.9519C6.97993 18.9039 7.19193 18.8759 7.40493 18.8499C10.4539 18.4849 13.5459 18.4849 16.5949 18.8499C16.8039 18.8749 17.0139 18.9029 17.3649 18.9499L18.1819 19.0579C18.2269 19.0639 18.2719 19.0669 18.3159 19.0669C18.5589 19.0669 18.7949 18.9799 18.9799 18.8179C19.1979 18.6269 19.3239 18.3499 19.3239 18.0589V17.9229C19.3239 17.9109 19.3299 17.9019 19.3309 17.8909L17.8989 16.4599Z" fill="black"/>
</svg>