<svg width="24" height="24" viewBox="0 0 24 24" fill="none" xmlns="http://www.w3.org/2000/svg">
<path fill-rule="evenodd" clip-rule="evenodd" d="M15.689 12.7501H13.449C13.447 12.7501 13.446 12.7511 13.444 12.7511C13.442 12.7511 13.441 12.7501 13.439 12.7501H8.948C8.701 12.7501 8.47 12.6291 8.33 12.4251L7.693 11.4991C7.459 11.1581 7.545 10.6911 7.886 10.4561C8.226 10.2231 8.694 10.3081 8.929 10.6491L9.342 11.2501H11.766L10.445 9.77112C10.168 9.46312 10.195 8.98812 10.504 8.71212C10.813 8.43612 11.287 8.46312 11.563 8.77112L13.778 11.2501H15.689C16.103 11.2501 16.439 11.5861 16.439 12.0001C16.439 12.4141 16.103 12.7501 15.689 12.7501ZM12.347 14.1431L11.613 15.1651C11.467 15.3691 11.237 15.4781 11.003 15.4781C10.852 15.4781 10.699 15.4321 10.566 15.3371C10.23 15.0961 10.153 14.6271 10.395 14.2901L11.128 13.2681C11.37 12.9311 11.837 12.8541 12.175 13.0961C12.512 13.3371 12.589 13.8061 12.347 14.1431ZM20.126 10.8561C20.87 10.2661 21.03 10.1381 21.105 10.0561L21.176 9.97913C21.377 9.76512 21.424 9.66912 21.466 9.37712L21.481 9.27413C21.496 9.18412 21.5 9.03613 21.5 8.74213V8.29313C21.5 7.72013 21.5 7.43212 21.459 7.16512C21.223 5.65412 20.049 4.48013 18.54 4.24512C18.272 4.20312 17.981 4.20312 17.403 4.20312C17.245 4.20312 17.166 4.20413 17.091 4.20913C16.593 4.24313 16.123 4.42312 15.731 4.72613C15.678 4.76713 15.626 4.81213 15.493 4.92913C15.288 5.11213 15.187 5.20512 15.087 5.27213C14.578 5.61213 13.922 5.61213 13.413 5.27213C13.314 5.20512 13.212 5.11213 12.965 4.89213C12.875 4.81213 12.822 4.76713 12.771 4.72712C12.377 4.42312 11.907 4.24313 11.411 4.20913C11.335 4.20413 11.255 4.20312 11.098 4.20312H7.041C6.032 4.20312 5.525 4.20312 5.064 4.33113C3.889 4.65812 2.957 5.59213 2.631 6.76813C2.502 7.22813 2.503 7.73413 2.504 8.76113C2.504 9.04113 2.508 9.18313 2.522 9.27413L2.538 9.37913C2.581 9.66913 2.627 9.76412 2.829 9.97913L2.897 10.0521C2.972 10.1351 3.136 10.2681 3.937 10.9061C4.274 11.1761 4.46 11.5641 4.46 12.0391C4.445 12.4341 4.264 12.8061 3.927 13.0891C3.083 13.7991 2.942 13.9191 2.875 13.9951L2.789 14.0911C2.613 14.2821 2.567 14.3801 2.534 14.6381L2.517 14.7641C2.504 14.8511 2.5 14.9921 2.5 15.2741C2.5 16.2711 2.5 16.7711 2.625 17.2261C2.951 18.4091 3.888 19.3471 5.073 19.6741C5.528 19.7981 6.028 19.7981 7.024 19.7981H11.098C11.255 19.7981 11.335 19.7971 11.408 19.7921C11.905 19.7591 12.376 19.5801 12.77 19.2751C12.822 19.2341 12.875 19.1891 13.007 19.0721C13.211 18.8901 13.312 18.7971 13.414 18.7291C13.922 18.3871 14.578 18.3891 15.089 18.7311C15.189 18.7971 15.289 18.8901 15.535 19.1091C15.626 19.1891 15.678 19.2341 15.73 19.2741C16.124 19.5801 16.595 19.7591 17.089 19.7921C17.166 19.7971 17.245 19.7981 17.403 19.7981C17.981 19.7981 18.271 19.7981 18.537 19.7561C20.049 19.5221 21.223 18.3491 21.458 16.8361C21.5 16.5691 21.5 16.2811 21.5 15.7081V15.2591C21.5 14.9651 21.496 14.8181 21.481 14.7291L21.466 14.6241C21.423 14.3331 21.377 14.2381 21.176 14.0241L21.107 13.9491C21.032 13.8671 20.868 13.7331 20.063 13.0921C19.725 12.8211 19.539 12.4341 19.54 11.9981C19.54 11.5631 19.725 11.1761 20.126 10.8561Z" fill="black"/>
<path fill-rule="evenodd" clip-rule="evenodd" d="M15.689 12.7501H13.449C13.447 12.7501 13.446 12.7511 13.444 12.7511C13.442 12.7511 13.441 12.7501 13.439 12.7501H8.948C8.701 12.7501 8.47 12.6291 8.33 12.4251L7.693 11.4991C7.459 11.1581 7.545 10.6911 7.886 10.4561C8.226 10.2231 8.694 10.3081 8.929 10.6491L9.342 11.2501H11.766L10.445 9.77112C10.168 9.46312 10.195 8.98812 10.504 8.71212C10.813 8.43612 11.287 8.46312 11.563 8.77112L13.778 11.2501H15.689C16.103 11.2501 16.439 11.5861 16.439 12.0001C16.439 12.4141 16.103 12.7501 15.689 12.7501ZM12.347 14.1431L11.613 15.1651C11.467 15.3691 11.237 15.4781 11.003 15.4781C10.852 15.4781 10.699 15.4321 10.566 15.3371C10.23 15.0961 10.153 14.6271 10.395 14.2901L11.128 13.2681C11.37 12.9311 11.837 12.8541 12.175 13.0961C12.512 13.3371 12.589 13.8061 12.347 14.1431ZM20.126 10.8561C20.87 10.2661 21.03 10.1381 21.105 10.0561L21.176 9.97913C21.377 9.76512 21.424 9.66912 21.466 9.37712L21.481 9.27413C21.496 9.18412 21.5 9.03613 21.5 8.74213V8.29313C21.5 7.72013 21.5 7.43212 21.459 7.16512C21.223 5.65412 20.049 4.48013 18.54 4.24512C18.272 4.20312 17.981 4.20312 17.403 4.20312C17.245 4.20312 17.166 4.20413 17.091 4.20913C16.593 4.24313 16.123 4.42312 15.731 4.72613C15.678 4.76713 15.626 4.81213 15.493 4.92913C15.288 5.11213 15.187 5.20512 15.087 5.27213C14.578 5.61213 13.922 5.61213 13.413 5.27213C13.314 5.20512 13.212 5.11213 12.965 4.89213C12.875 4.81213 12.822 4.76713 12.771 4.72712C12.377 4.42312 11.907 4.24313 11.411 4.20913C11.335 4.20413 11.255 4.20312 11.098 4.20312H7.041C6.032 4.20312 5.525 4.20312 5.064 4.33113C3.889 4.65812 2.957 5.59213 2.631 6.76813C2.502 7.22813 2.503 7.73413 2.504 8.76113C2.504 9.04113 2.508 9.18313 2.522 9.27413L2.538 9.37913C2.581 9.66913 2.627 9.76412 2.829 9.97913L2.897 10.0521C2.972 10.1351 3.136 10.2681 3.937 10.9061C4.274 11.1761 4.46 11.5641 4.46 12.0391C4.445 12.4341 4.264 12.8061 3.927 13.0891C3.083 13.7991 2.942 13.9191 2.875 13.9951L2.789 14.0911C2.613 14.2821 2.567 14.3801 2.534 14.6381L2.517 14.7641C2.504 14.8511 2.5 14.9921 2.5 15.2741C2.5 16.2711 2.5 16.7711 2.625 17.2261C2.951 18.4091 3.888 19.3471 5.073 19.6741C5.528 19.7981 6.028 19.7981 7.024 19.7981H11.098C11.255 19.7981 11.335 19.7971 11.408 19.7921C11.905 19.7591 12.376 19.5801 12.77 19.2751C12.822 19.2341 12.875 19.1891 13.007 19.0721C13.211 18.8901 13.312 18.7971 13.414 18.7291C13.922 18.3871 14.578 18.3891 15.089 18.7311C15.189 18.7971 15.289 18.8901 15.535 19.1091C15.626 19.1891 15.678 19.2341 15.73 19.2741C16.124 19.5801 16.595 19.7591 17.089 19.7921C17.166 19.7971 17.245 19.7981 17.403 19.7981C17.981 19.7981 18.271 19.7981 18.537 19.7561C20.049 19.5221 21.223 18.3491 21.458 16.8361C21.5 16.5691 21.5 16.2811 21.5 15.7081V15.2591C21.5 14.9651 21.496 14.8181 21.481 14.7291L21.466 14.6241C21.423 14.3331 21.377 14.2381 21.176 14.0241L21.107 13.9491C21.032 13.8671 20.868 13.7331 20.063 13.0921C19.725 12.8211 19.539 12.4341 19.54 11.9981C19.54 11.5631 19.725 11.1761 20.126 10.8561Z" fill="black"/>
</svg>