<svg width="24" height="24" viewBox="0 0 24 24" fill="none" xmlns="http://www.w3.org/2000/svg">
<path fill-rule="evenodd" clip-rule="evenodd" d="M15.333 11.8671L14.25 12.9081C14.202 12.9531 14.181 13.0161 14.192 13.0791L14.449 14.5481C14.51 14.9331 14.25 15.2921 13.87 15.3531C13.722 15.3771 13.564 15.3511 13.431 15.2811L12.095 14.5881C12.036 14.5571 11.965 14.5571 11.905 14.5881L10.567 15.2821C10.464 15.3361 10.353 15.3631 10.243 15.3631C9.992 15.3631 9.749 15.2271 9.623 14.9911C9.551 14.8531 9.526 14.7011 9.551 14.5511L9.808 13.0791C9.819 13.0171 9.797 12.9531 9.751 12.9091L8.667 11.8681C8.392 11.6021 8.385 11.1621 8.649 10.8881C8.757 10.7761 8.902 10.7021 9.058 10.6811L10.551 10.4661C10.618 10.4571 10.674 10.4171 10.703 10.3581L11.374 9.02112C11.554 8.67412 11.981 8.54012 12.324 8.71712C12.453 8.78312 12.557 8.88713 12.625 9.01813L12.627 9.02112L13.296 10.3591C13.325 10.4171 13.381 10.4571 13.447 10.4661L14.944 10.6811C15.321 10.7321 15.588 11.0811 15.538 11.4591C15.518 11.6141 15.445 11.7591 15.333 11.8671ZM21.045 13.6641C20.958 13.5941 20.833 13.5261 20.291 13.2411C19.82 12.9931 19.539 12.5291 19.539 11.9981C19.539 11.4691 19.819 11.0071 20.328 10.7401C20.834 10.4741 20.957 10.4091 21.045 10.3381C21.329 10.1091 21.405 9.98313 21.475 9.62813C21.5 9.50913 21.5 9.38413 21.5 9.11013C21.5 7.97913 21.5 7.41112 21.352 6.90013C20.992 5.66413 20.039 4.71113 18.803 4.35213C18.291 4.20312 17.724 4.20312 16.593 4.20312H7.407C6.278 4.20312 5.712 4.20312 5.202 4.35113C3.962 4.71113 3.008 5.66513 2.649 6.90712C2.502 7.41812 2.502 7.98413 2.503 9.13713C2.504 9.40312 2.511 9.53912 2.527 9.62413C2.598 9.98112 2.674 10.1071 2.96 10.3381C3.05 10.4091 3.201 10.4901 3.709 10.7591C4.179 11.0061 4.459 11.4701 4.459 12.0401C4.442 12.5301 4.164 12.9801 3.721 13.2231C3.165 13.5281 3.03 13.6031 2.939 13.6771C2.657 13.9111 2.591 14.0231 2.522 14.3821C2.506 14.4651 2.5 14.6101 2.5 14.8981C2.5 16.0231 2.5 16.5871 2.646 17.0961C3.005 18.3381 3.96 19.2931 5.201 19.6511C5.71 19.7981 6.275 19.7981 7.4 19.7981H16.593C17.724 19.7981 18.291 19.7981 18.802 19.6501C20.04 19.2901 20.992 18.3381 21.351 17.1011C21.5 16.5881 21.5 16.0211 21.499 14.8921C21.499 14.6071 21.493 14.4661 21.476 14.3771C21.405 14.0211 21.329 13.8941 21.045 13.6641Z" fill="black"/>
<path fill-rule="evenodd" clip-rule="evenodd" d="M15.333 11.8671L14.25 12.9081C14.202 12.9531 14.181 13.0161 14.192 13.0791L14.449 14.5481C14.51 14.9331 14.25 15.2921 13.87 15.3531C13.722 15.3771 13.564 15.3511 13.431 15.2811L12.095 14.5881C12.036 14.5571 11.965 14.5571 11.905 14.5881L10.567 15.2821C10.464 15.3361 10.353 15.3631 10.243 15.3631C9.992 15.3631 9.749 15.2271 9.623 14.9911C9.551 14.8531 9.526 14.7011 9.551 14.5511L9.808 13.0791C9.819 13.0171 9.797 12.9531 9.751 12.9091L8.667 11.8681C8.392 11.6021 8.385 11.1621 8.649 10.8881C8.757 10.7761 8.902 10.7021 9.058 10.6811L10.551 10.4661C10.618 10.4571 10.674 10.4171 10.703 10.3581L11.374 9.02112C11.554 8.67412 11.981 8.54012 12.324 8.71712C12.453 8.78312 12.557 8.88713 12.625 9.01813L12.627 9.02112L13.296 10.3591C13.325 10.4171 13.381 10.4571 13.447 10.4661L14.944 10.6811C15.321 10.7321 15.588 11.0811 15.538 11.4591C15.518 11.6141 15.445 11.7591 15.333 11.8671ZM21.045 13.6641C20.958 13.5941 20.833 13.5261 20.291 13.2411C19.82 12.9931 19.539 12.5291 19.539 11.9981C19.539 11.4691 19.819 11.0071 20.328 10.7401C20.834 10.4741 20.957 10.4091 21.045 10.3381C21.329 10.1091 21.405 9.98313 21.475 9.62813C21.5 9.50913 21.5 9.38413 21.5 9.11013C21.5 7.97913 21.5 7.41112 21.352 6.90013C20.992 5.66413 20.039 4.71113 18.803 4.35213C18.291 4.20312 17.724 4.20312 16.593 4.20312H7.407C6.278 4.20312 5.712 4.20312 5.202 4.35113C3.962 4.71113 3.008 5.66513 2.649 6.90712C2.502 7.41812 2.502 7.98413 2.503 9.13713C2.504 9.40312 2.511 9.53912 2.527 9.62413C2.598 9.98112 2.674 10.1071 2.96 10.3381C3.05 10.4091 3.201 10.4901 3.709 10.7591C4.179 11.0061 4.459 11.4701 4.459 12.0401C4.442 12.5301 4.164 12.9801 3.721 13.2231C3.165 13.5281 3.03 13.6031 2.939 13.6771C2.657 13.9111 2.591 14.0231 2.522 14.3821C2.506 14.4651 2.5 14.6101 2.5 14.8981C2.5 16.0231 2.5 16.5871 2.646 17.0961C3.005 18.3381 3.96 19.2931 5.201 19.6511C5.71 19.7981 6.275 19.7981 7.4 19.7981H16.593C17.724 19.7981 18.291 19.7981 18.802 19.6501C20.04 19.2901 20.992 18.3381 21.351 17.1011C21.5 16.5881 21.5 16.0211 21.499 14.8921C21.499 14.6071 21.493 14.4661 21.476 14.3771C21.405 14.0211 21.329 13.8941 21.045 13.6641Z" fill="black"/>
</svg>