<svg width="24" height="24" viewBox="0 0 24 24" fill="none" xmlns="http://www.w3.org/2000/svg">
<path fill-rule="evenodd" clip-rule="evenodd" d="M13.9877 10.933C13.9017 10.847 13.8017 10.834 13.7507 10.834C13.6997 10.834 13.5997 10.847 13.5147 10.932L10.9377 13.508C10.8077 13.639 10.8077 13.851 10.9387 13.983L12.8117 15.855C12.9787 16.025 13.1117 16.027 13.2827 15.856L15.8607 13.279C15.9907 13.149 15.9907 12.935 15.8597 12.804L13.9877 10.933Z" fill="black"/>
<path fill-rule="evenodd" clip-rule="evenodd" d="M8.33545 7.45312H8.33145C7.83445 7.45312 7.45845 7.82212 7.45545 8.31413C7.45445 8.53013 7.54145 8.73812 7.70245 8.90013C7.86545 9.06413 8.07845 9.15513 8.30245 9.15613H8.30445C8.76645 9.15613 9.15745 8.77313 9.15945 8.32013C9.16045 8.08612 9.06945 7.86412 8.90445 7.69712C8.74845 7.54112 8.54645 7.45412 8.33545 7.45312Z" fill="black"/>
<path fill-rule="evenodd" clip-rule="evenodd" d="M16.9213 14.338L14.3443 16.914C13.9983 17.261 13.5373 17.452 13.0483 17.452C12.5583 17.452 12.0973 17.261 11.7503 16.913L9.87735 15.041C9.16235 14.324 9.16235 13.161 9.87735 12.446L12.4533 9.87099C12.7983 9.52599 13.2583 9.33299 13.7483 9.33299H13.7503C14.2403 9.33299 14.7013 9.52399 15.0483 9.87099L16.9213 11.743C17.6363 12.461 17.6353 13.624 16.9213 14.338ZM8.29835 10.655C7.67335 10.654 7.08335 10.405 6.63735 9.95599C6.19335 9.50899 5.95135 8.92299 5.95535 8.30499C5.96435 6.97999 7.01235 5.97799 8.34135 5.95199C8.95235 5.95399 9.53035 6.19799 9.96935 6.64099C10.4173 7.09199 10.6623 7.69099 10.6593 8.32499C10.6533 9.61099 9.59735 10.655 8.30435 10.655H8.29835ZM20.4423 10.242C18.4013 8.19699 16.3593 6.15399 14.3143 4.11199C13.2523 3.05299 11.9593 2.51499 10.4703 2.51399H10.1523C6.82235 2.50499 5.61835 2.52299 5.39035 2.56299C3.75735 2.84399 2.52335 4.30899 2.51935 5.96999L2.51435 6.61899C2.50335 7.90099 2.48335 10.288 2.55435 11.051C2.66835 12.28 3.17635 13.358 4.06635 14.252C6.01835 16.217 7.97935 18.172 9.93935 20.128L10.2473 20.436C10.9513 21.139 11.8563 21.49 12.7583 21.49C13.6493 21.489 14.5393 21.147 15.2333 20.459C16.9843 18.724 18.7303 16.98 20.4663 15.227C21.8493 13.83 21.8393 11.641 20.4423 10.242Z" fill="black"/>
<path fill-rule="evenodd" clip-rule="evenodd" d="M13.9877 10.933C13.9017 10.847 13.8017 10.834 13.7507 10.834C13.6997 10.834 13.5997 10.847 13.5147 10.932L10.9377 13.508C10.8077 13.639 10.8077 13.851 10.9387 13.983L12.8117 15.855C12.9787 16.025 13.1117 16.027 13.2827 15.856L15.8607 13.279C15.9907 13.149 15.9907 12.935 15.8597 12.804L13.9877 10.933Z" fill="black"/>
<path fill-rule="evenodd" clip-rule="evenodd" d="M8.33545 7.45312H8.33145C7.83445 7.45312 7.45845 7.82212 7.45545 8.31413C7.45445 8.53013 7.54145 8.73812 7.70245 8.90013C7.86545 9.06413 8.07845 9.15513 8.30245 9.15613H8.30445C8.76645 9.15613 9.15745 8.77313 9.15945 8.32013C9.16045 8.08612 9.06945 7.86412 8.90445 7.69712C8.74845 7.54112 8.54645 7.45412 8.33545 7.45312Z" fill="black"/>
<path fill-rule="evenodd" clip-rule="evenodd" d="M16.9213 14.338L14.3443 16.914C13.9983 17.261 13.5373 17.452 13.0483 17.452C12.5583 17.452 12.0973 17.261 11.7503 16.913L9.87735 15.041C9.16235 14.324 9.16235 13.161 9.87735 12.446L12.4533 9.87099C12.7983 9.52599 13.2583 9.33299 13.7483 9.33299H13.7503C14.2403 9.33299 14.7013 9.52399 15.0483 9.87099L16.9213 11.743C17.6363 12.461 17.6353 13.624 16.9213 14.338ZM8.29835 10.655C7.67335 10.654 7.08335 10.405 6.63735 9.95599C6.19335 9.50899 5.95135 8.92299 5.95535 8.30499C5.96435 6.97999 7.01235 5.97799 8.34135 5.95199C8.95235 5.95399 9.53035 6.19799 9.96935 6.64099C10.4173 7.09199 10.6623 7.69099 10.6593 8.32499C10.6533 9.61099 9.59735 10.655 8.30435 10.655H8.29835ZM20.4423 10.242C18.4013 8.19699 16.3593 6.15399 14.3143 4.11199C13.2523 3.05299 11.9593 2.51499 10.4703 2.51399H10.1523C6.82235 2.50499 5.61835 2.52299 5.39035 2.56299C3.75735 2.84399 2.52335 4.30899 2.51935 5.96999L2.51435 6.61899C2.50335 7.90099 2.48335 10.288 2.55435 11.051C2.66835 12.28 3.17635 13.358 4.06635 14.252C6.01835 16.217 7.97935 18.172 9.93935 20.128L10.2473 20.436C10.9513 21.139 11.8563 21.49 12.7583 21.49C13.6493 21.489 14.5393 21.147 15.2333 20.459C16.9843 18.724 18.7303 16.98 20.4663 15.227C21.8493 13.83 21.8393 11.641 20.4423 10.242Z" fill="black"/>
</svg>