<svg width="24" height="24" viewBox="0 0 24 24" fill="none" xmlns="http://www.w3.org/2000/svg">
<path fill-rule="evenodd" clip-rule="evenodd" d="M13.8944 18.5858H10.1084C9.69444 18.5858 9.35844 18.2498 9.35844 17.8358C9.35844 17.4218 9.69444 17.0858 10.1084 17.0858H13.8944C14.3084 17.0858 14.6444 17.4218 14.6444 17.8358C14.6444 18.2498 14.3084 18.5858 13.8944 18.5858ZM10.2714 6.80279C11.2324 5.83479 12.7434 5.82579 13.7074 6.77679C14.1614 7.22479 14.4124 7.82679 14.4154 8.47279C14.4164 9.12279 14.1684 9.73179 13.7154 10.1878C13.2424 10.6628 12.6194 10.9008 11.9974 10.9008C11.3854 10.9008 10.7764 10.6718 10.3114 10.2108C9.84644 9.75079 9.58944 9.13779 9.58744 8.48279C9.58544 7.84379 9.82844 7.24679 10.2714 6.80279ZM19.4704 9.74379C19.4674 8.43879 19.0504 7.27679 18.2324 6.29179C17.7674 5.73179 16.3364 4.31479 15.0314 3.03079L14.5254 2.53179C13.3084 1.31979 11.3344 1.15279 9.93544 2.14079C9.73444 2.28279 8.72144 3.27679 6.16944 5.83579C5.08144 6.92679 4.52744 8.26879 4.52544 9.82279C4.52344 12.8258 4.52344 15.8288 4.52644 18.8318C4.52744 20.8758 6.12044 22.4838 8.15344 22.4928C9.40644 22.4988 10.6604 22.5018 11.9154 22.5018C13.2244 22.5018 14.5344 22.4988 15.8434 22.4928C17.8744 22.4848 19.4684 20.8768 19.4704 18.8328L19.4714 17.8218C19.4754 15.1288 19.4794 12.4368 19.4704 9.74379Z" fill="black"/>
<path fill-rule="evenodd" clip-rule="evenodd" d="M11.3671 9.14331C11.7131 9.48731 12.3021 9.47931 12.6531 9.12731C12.8231 8.95731 12.9161 8.72631 12.9151 8.47831C12.9141 8.23431 12.8211 8.00831 12.6541 7.84331C12.4701 7.66131 12.2381 7.57031 12.0061 7.57031C11.7661 7.57031 11.5261 7.66631 11.3351 7.85931C11.1751 8.02031 11.0871 8.23931 11.0881 8.47631C11.0891 8.73031 11.1881 8.96631 11.3671 9.14331Z" fill="black"/>
<path fill-rule="evenodd" clip-rule="evenodd" d="M13.8944 18.5858H10.1084C9.69444 18.5858 9.35844 18.2498 9.35844 17.8358C9.35844 17.4218 9.69444 17.0858 10.1084 17.0858H13.8944C14.3084 17.0858 14.6444 17.4218 14.6444 17.8358C14.6444 18.2498 14.3084 18.5858 13.8944 18.5858ZM10.2714 6.80279C11.2324 5.83479 12.7434 5.82579 13.7074 6.77679C14.1614 7.22479 14.4124 7.82679 14.4154 8.47279C14.4164 9.12279 14.1684 9.73179 13.7154 10.1878C13.2424 10.6628 12.6194 10.9008 11.9974 10.9008C11.3854 10.9008 10.7764 10.6718 10.3114 10.2108C9.84644 9.75079 9.58944 9.13779 9.58744 8.48279C9.58544 7.84379 9.82844 7.24679 10.2714 6.80279ZM19.4704 9.74379C19.4674 8.43879 19.0504 7.27679 18.2324 6.29179C17.7674 5.73179 16.3364 4.31479 15.0314 3.03079L14.5254 2.53179C13.3084 1.31979 11.3344 1.15279 9.93544 2.14079C9.73444 2.28279 8.72144 3.27679 6.16944 5.83579C5.08144 6.92679 4.52744 8.26879 4.52544 9.82279C4.52344 12.8258 4.52344 15.8288 4.52644 18.8318C4.52744 20.8758 6.12044 22.4838 8.15344 22.4928C9.40644 22.4988 10.6604 22.5018 11.9154 22.5018C13.2244 22.5018 14.5344 22.4988 15.8434 22.4928C17.8744 22.4848 19.4684 20.8768 19.4704 18.8328L19.4714 17.8218C19.4754 15.1288 19.4794 12.4368 19.4704 9.74379Z" fill="black"/>
<path fill-rule="evenodd" clip-rule="evenodd" d="M11.3671 9.14331C11.7131 9.48731 12.3021 9.47931 12.6531 9.12731C12.8231 8.95731 12.9161 8.72631 12.9151 8.47831C12.9141 8.23431 12.8211 8.00831 12.6541 7.84331C12.4701 7.66131 12.2381 7.57031 12.0061 7.57031C11.7661 7.57031 11.5261 7.66631 11.3351 7.85931C11.1751 8.02031 11.0871 8.23931 11.0881 8.47631C11.0891 8.73031 11.1881 8.96631 11.3671 9.14331Z" fill="black"/>
</svg>