<svg width="24" height="24" viewBox="0 0 24 24" fill="none" xmlns="http://www.w3.org/2000/svg">
<path fill-rule="evenodd" clip-rule="evenodd" d="M13.4315 14.5956L13.1885 14.8386C12.7365 15.2906 12.4875 15.5396 12.1555 15.7036C11.8475 15.8546 11.5105 15.9296 11.1735 15.9296C10.8375 15.9296 10.5015 15.8546 10.1965 15.7046C9.86053 15.5396 9.61153 15.2906 9.16153 14.8386C8.70853 14.3876 8.45853 14.1386 8.29453 13.8036C7.99453 13.1906 7.99453 12.4586 8.29353 11.8456C8.45953 11.5096 8.70853 11.2616 9.16253 10.8096L9.45453 10.5166L6.70653 7.76758L4.15453 10.3196C3.47253 11.0016 3.12953 11.3456 2.90753 11.7506C2.36253 12.7386 2.36253 13.9176 2.90853 14.9076C3.13353 15.3136 3.47753 15.6586 4.19553 16.3736C4.34153 16.5196 4.41453 16.5926 4.50153 16.6486C4.77653 16.8316 4.91653 16.8646 5.23353 16.8296C5.29653 16.8236 5.48753 16.7736 5.85053 16.6616L5.96053 16.6276C6.36553 16.5006 6.78953 16.6066 7.11253 16.9286C7.38453 17.2216 7.48053 17.6246 7.36953 18.0076C7.20753 18.5586 7.17553 18.6756 7.16453 18.7776C7.13353 19.1086 7.16453 19.2306 7.34953 19.5026C7.38953 19.5626 7.46753 19.6496 7.66453 19.8486C8.34553 20.5286 8.68753 20.8686 9.09153 21.0936C9.58553 21.3666 10.1275 21.5026 10.6695 21.5026C11.2115 21.5026 11.7545 21.3666 12.2485 21.0936C12.6535 20.8696 12.9955 20.5286 13.6825 19.8416L16.1805 17.3446L13.4315 14.5956Z" fill="black"/>
<path fill-rule="evenodd" clip-rule="evenodd" d="M13.7831 10.2274C13.4731 9.91536 13.2551 9.69636 13.1401 9.64036C13.0431 9.59136 12.9331 9.56836 12.8251 9.56836C12.7151 9.56836 12.6041 9.59236 12.5041 9.64136C12.3941 9.69536 12.1751 9.91536 11.8711 10.2204L10.2211 11.8714C9.90411 12.1874 9.69511 12.3964 9.64011 12.5074C9.54411 12.7054 9.54411 12.9434 9.64111 13.1424C9.69511 13.2534 9.90411 13.4614 10.2201 13.7774L10.2221 13.7794C10.5371 14.0944 10.7451 14.3034 10.8571 14.3584C11.0561 14.4564 11.2961 14.4554 11.4931 14.3574C11.6021 14.3034 11.8111 14.0944 12.1281 13.7784L13.7771 12.1274C14.0881 11.8174 14.3041 11.6014 14.3561 11.4944C14.4541 11.2934 14.4541 11.0554 14.3561 10.8564C14.3041 10.7464 14.0961 10.5394 13.7831 10.2274Z" fill="black"/>
<path fill-rule="evenodd" clip-rule="evenodd" d="M21.0937 9.09372C20.8677 8.68572 20.5237 8.34072 19.8037 7.62072C19.6487 7.46672 19.5627 7.38972 19.4987 7.34772C19.2247 7.16372 19.0847 7.13172 18.7687 7.16572C18.6617 7.17672 18.5367 7.21472 18.0337 7.36872C17.6287 7.49872 17.2047 7.39172 16.9047 7.09072C16.6037 6.78972 16.5007 6.36872 16.6287 5.96072L16.6747 5.81272C16.7877 5.44472 16.8227 5.33372 16.8317 5.23872C16.8677 4.91272 16.8347 4.77472 16.6527 4.50072C16.6117 4.43772 16.5327 4.35172 16.3367 4.15372C15.6527 3.46972 15.3087 3.12672 14.9037 2.90372C13.9167 2.36072 12.7397 2.35972 11.7547 2.90372C11.3507 3.12472 11.0117 3.46272 10.3127 4.15972L7.76672 6.70572L10.5157 9.45472L10.8097 9.15972C11.2597 8.70872 11.5077 8.46072 11.8417 8.29472C12.4607 7.99172 13.1917 7.99372 13.8027 8.29272C14.1417 8.46072 14.4047 8.72472 14.8387 9.16072C15.2927 9.61472 15.5407 9.86272 15.7047 10.1977C16.0037 10.8077 16.0037 11.5387 15.7037 12.1527C15.5417 12.4847 15.2947 12.7307 14.8487 13.1767L14.4917 13.5337L17.2407 16.2827L19.8447 13.6787C20.5287 12.9937 20.8707 12.6507 21.0947 12.2447C21.6367 11.2597 21.6367 10.0817 21.0937 9.09372Z" fill="black"/>
<path fill-rule="evenodd" clip-rule="evenodd" d="M13.4315 14.5956L13.1885 14.8386C12.7365 15.2906 12.4875 15.5396 12.1555 15.7036C11.8475 15.8546 11.5105 15.9296 11.1735 15.9296C10.8375 15.9296 10.5015 15.8546 10.1965 15.7046C9.86053 15.5396 9.61153 15.2906 9.16153 14.8386C8.70853 14.3876 8.45853 14.1386 8.29453 13.8036C7.99453 13.1906 7.99453 12.4586 8.29353 11.8456C8.45953 11.5096 8.70853 11.2616 9.16253 10.8096L9.45453 10.5166L6.70653 7.76758L4.15453 10.3196C3.47253 11.0016 3.12953 11.3456 2.90753 11.7506C2.36253 12.7386 2.36253 13.9176 2.90853 14.9076C3.13353 15.3136 3.47753 15.6586 4.19553 16.3736C4.34153 16.5196 4.41453 16.5926 4.50153 16.6486C4.77653 16.8316 4.91653 16.8646 5.23353 16.8296C5.29653 16.8236 5.48753 16.7736 5.85053 16.6616L5.96053 16.6276C6.36553 16.5006 6.78953 16.6066 7.11253 16.9286C7.38453 17.2216 7.48053 17.6246 7.36953 18.0076C7.20753 18.5586 7.17553 18.6756 7.16453 18.7776C7.13353 19.1086 7.16453 19.2306 7.34953 19.5026C7.38953 19.5626 7.46753 19.6496 7.66453 19.8486C8.34553 20.5286 8.68753 20.8686 9.09153 21.0936C9.58553 21.3666 10.1275 21.5026 10.6695 21.5026C11.2115 21.5026 11.7545 21.3666 12.2485 21.0936C12.6535 20.8696 12.9955 20.5286 13.6825 19.8416L16.1805 17.3446L13.4315 14.5956Z" fill="black"/>
<path fill-rule="evenodd" clip-rule="evenodd" d="M13.7831 10.2274C13.4731 9.91536 13.2551 9.69636 13.1401 9.64036C13.0431 9.59136 12.9331 9.56836 12.8251 9.56836C12.7151 9.56836 12.6041 9.59236 12.5041 9.64136C12.3941 9.69536 12.1751 9.91536 11.8711 10.2204L10.2211 11.8714C9.90411 12.1874 9.69511 12.3964 9.64011 12.5074C9.54411 12.7054 9.54411 12.9434 9.64111 13.1424C9.69511 13.2534 9.90411 13.4614 10.2201 13.7774L10.2221 13.7794C10.5371 14.0944 10.7451 14.3034 10.8571 14.3584C11.0561 14.4564 11.2961 14.4554 11.4931 14.3574C11.6021 14.3034 11.8111 14.0944 12.1281 13.7784L13.7771 12.1274C14.0881 11.8174 14.3041 11.6014 14.3561 11.4944C14.4541 11.2934 14.4541 11.0554 14.3561 10.8564C14.3041 10.7464 14.0961 10.5394 13.7831 10.2274Z" fill="black"/>
<path fill-rule="evenodd" clip-rule="evenodd" d="M21.0937 9.09372C20.8677 8.68572 20.5237 8.34072 19.8037 7.62072C19.6487 7.46672 19.5627 7.38972 19.4987 7.34772C19.2247 7.16372 19.0847 7.13172 18.7687 7.16572C18.6617 7.17672 18.5367 7.21472 18.0337 7.36872C17.6287 7.49872 17.2047 7.39172 16.9047 7.09072C16.6037 6.78972 16.5007 6.36872 16.6287 5.96072L16.6747 5.81272C16.7877 5.44472 16.8227 5.33372 16.8317 5.23872C16.8677 4.91272 16.8347 4.77472 16.6527 4.50072C16.6117 4.43772 16.5327 4.35172 16.3367 4.15372C15.6527 3.46972 15.3087 3.12672 14.9037 2.90372C13.9167 2.36072 12.7397 2.35972 11.7547 2.90372C11.3507 3.12472 11.0117 3.46272 10.3127 4.15972L7.76672 6.70572L10.5157 9.45472L10.8097 9.15972C11.2597 8.70872 11.5077 8.46072 11.8417 8.29472C12.4607 7.99172 13.1917 7.99372 13.8027 8.29272C14.1417 8.46072 14.4047 8.72472 14.8387 9.16072C15.2927 9.61472 15.5407 9.86272 15.7047 10.1977C16.0037 10.8077 16.0037 11.5387 15.7037 12.1527C15.5417 12.4847 15.2947 12.7307 14.8487 13.1767L14.4917 13.5337L17.2407 16.2827L19.8447 13.6787C20.5287 12.9937 20.8707 12.6507 21.0947 12.2447C21.6367 11.2597 21.6367 10.0817 21.0937 9.09372Z" fill="black"/>
</svg>