<svg width="24" height="24" viewBox="0 0 24 24" fill="none" xmlns="http://www.w3.org/2000/svg">
<path fill-rule="evenodd" clip-rule="evenodd" d="M16.5885 6.19998C16.4045 6.58398 16.3375 7.00098 16.3615 7.41398H8.86354L12.1925 4.92998C12.8935 4.40898 13.2785 4.12198 13.5675 4.01298C14.2655 3.75398 15.0395 3.86598 15.6365 4.31598C15.8805 4.50098 16.1665 4.88398 16.6955 5.59398C16.7405 5.65398 16.7755 5.69998 16.8065 5.74398C16.7655 5.83398 16.6965 5.97398 16.5885 6.19998ZM14.8715 17.228H9.12754C8.71354 17.228 8.37754 16.892 8.37754 16.478C8.37754 16.064 8.71354 15.728 9.12754 15.728H14.8715C15.2855 15.728 15.6215 16.064 15.6215 16.478C15.6215 16.892 15.2855 17.228 14.8715 17.228ZM9.12754 11.812H11.7245C12.1385 11.812 12.4745 12.148 12.4745 12.562C12.4745 12.976 12.1385 13.312 11.7245 13.312H9.12754C8.71354 13.312 8.37754 12.976 8.37754 12.562C8.37754 12.148 8.71354 11.812 9.12754 11.812ZM21.0965 15.992C21.0105 15.922 20.8925 15.86 20.4025 15.601C19.9915 15.386 19.7465 14.98 19.7465 14.517C19.7465 14.056 19.9915 13.654 20.4385 13.42C20.8885 13.184 21.0095 13.121 21.0945 13.051C21.3595 12.835 21.4355 12.71 21.4995 12.38C21.5155 12.301 21.5225 12.169 21.5225 11.903C21.5225 10.875 21.5225 10.358 21.3865 9.88998C21.0575 8.75498 20.1825 7.87998 19.0475 7.55198C18.7315 7.45898 18.3805 7.43098 17.8815 7.42098C17.8495 7.22498 17.8605 7.01698 17.9675 6.79398C18.1865 6.33598 18.2455 6.21298 18.2805 6.07798C18.3785 5.69498 18.3595 5.49198 18.1865 5.12798C18.1475 5.04698 18.0695 4.92598 17.8885 4.68298C17.2675 3.84998 16.9555 3.43198 16.5395 3.11898C15.5315 2.35898 14.2235 2.16698 13.0405 2.60898C12.5525 2.79298 12.1335 3.10498 11.2905 3.73198L6.55754 7.26198C6.49954 7.30498 6.46154 7.36098 6.42054 7.41598C5.74854 7.41998 5.33054 7.44098 4.95854 7.54998C3.81954 7.87898 2.94354 8.75598 2.61454 9.89498C2.47954 10.365 2.48054 10.88 2.48154 11.933C2.48254 12.17 2.48654 12.291 2.50254 12.379C2.56854 12.71 2.64554 12.835 2.90954 13.051C2.99354 13.118 3.11654 13.183 3.59754 13.437C4.00754 13.653 4.25154 14.057 4.25054 14.554C4.23554 14.98 3.99354 15.373 3.61754 15.579L3.50854 15.638C3.13454 15.845 2.94554 15.957 2.89254 16.001C2.62854 16.221 2.56254 16.333 2.49754 16.67C2.48354 16.747 2.47754 16.878 2.47754 17.142C2.47754 18.166 2.47754 18.68 2.61154 19.146C2.94154 20.287 3.81754 21.163 4.95654 21.491C5.42354 21.627 5.93754 21.627 6.96154 21.627H17.0325C18.0615 21.627 18.5765 21.627 19.0455 21.49C20.1835 21.159 21.0585 20.284 21.3845 19.151C21.5235 18.679 21.5225 18.164 21.5215 17.138C21.5215 16.876 21.5155 16.747 21.4995 16.662C21.4355 16.331 21.3595 16.205 21.0965 15.992Z" fill="black"/>
<path fill-rule="evenodd" clip-rule="evenodd" d="M16.5885 6.19998C16.4045 6.58398 16.3375 7.00098 16.3615 7.41398H8.86354L12.1925 4.92998C12.8935 4.40898 13.2785 4.12198 13.5675 4.01298C14.2655 3.75398 15.0395 3.86598 15.6365 4.31598C15.8805 4.50098 16.1665 4.88398 16.6955 5.59398C16.7405 5.65398 16.7755 5.69998 16.8065 5.74398C16.7655 5.83398 16.6965 5.97398 16.5885 6.19998ZM14.8715 17.228H9.12754C8.71354 17.228 8.37754 16.892 8.37754 16.478C8.37754 16.064 8.71354 15.728 9.12754 15.728H14.8715C15.2855 15.728 15.6215 16.064 15.6215 16.478C15.6215 16.892 15.2855 17.228 14.8715 17.228ZM9.12754 11.812H11.7245C12.1385 11.812 12.4745 12.148 12.4745 12.562C12.4745 12.976 12.1385 13.312 11.7245 13.312H9.12754C8.71354 13.312 8.37754 12.976 8.37754 12.562C8.37754 12.148 8.71354 11.812 9.12754 11.812ZM21.0965 15.992C21.0105 15.922 20.8925 15.86 20.4025 15.601C19.9915 15.386 19.7465 14.98 19.7465 14.517C19.7465 14.056 19.9915 13.654 20.4385 13.42C20.8885 13.184 21.0095 13.121 21.0945 13.051C21.3595 12.835 21.4355 12.71 21.4995 12.38C21.5155 12.301 21.5225 12.169 21.5225 11.903C21.5225 10.875 21.5225 10.358 21.3865 9.88998C21.0575 8.75498 20.1825 7.87998 19.0475 7.55198C18.7315 7.45898 18.3805 7.43098 17.8815 7.42098C17.8495 7.22498 17.8605 7.01698 17.9675 6.79398C18.1865 6.33598 18.2455 6.21298 18.2805 6.07798C18.3785 5.69498 18.3595 5.49198 18.1865 5.12798C18.1475 5.04698 18.0695 4.92598 17.8885 4.68298C17.2675 3.84998 16.9555 3.43198 16.5395 3.11898C15.5315 2.35898 14.2235 2.16698 13.0405 2.60898C12.5525 2.79298 12.1335 3.10498 11.2905 3.73198L6.55754 7.26198C6.49954 7.30498 6.46154 7.36098 6.42054 7.41598C5.74854 7.41998 5.33054 7.44098 4.95854 7.54998C3.81954 7.87898 2.94354 8.75598 2.61454 9.89498C2.47954 10.365 2.48054 10.88 2.48154 11.933C2.48254 12.17 2.48654 12.291 2.50254 12.379C2.56854 12.71 2.64554 12.835 2.90954 13.051C2.99354 13.118 3.11654 13.183 3.59754 13.437C4.00754 13.653 4.25154 14.057 4.25054 14.554C4.23554 14.98 3.99354 15.373 3.61754 15.579L3.50854 15.638C3.13454 15.845 2.94554 15.957 2.89254 16.001C2.62854 16.221 2.56254 16.333 2.49754 16.67C2.48354 16.747 2.47754 16.878 2.47754 17.142C2.47754 18.166 2.47754 18.68 2.61154 19.146C2.94154 20.287 3.81754 21.163 4.95654 21.491C5.42354 21.627 5.93754 21.627 6.96154 21.627H17.0325C18.0615 21.627 18.5765 21.627 19.0455 21.49C20.1835 21.159 21.0585 20.284 21.3845 19.151C21.5235 18.679 21.5225 18.164 21.5215 17.138C21.5215 16.876 21.5155 16.747 21.4995 16.662C21.4355 16.331 21.3595 16.205 21.0965 15.992Z" fill="black"/>
</svg>