<svg width="24" height="24" viewBox="0 0 24 24" fill="none" xmlns="http://www.w3.org/2000/svg">
<path fill-rule="evenodd" clip-rule="evenodd" d="M12.573 14.4159H7.44C7.026 14.4159 6.69 14.0799 6.69 13.6659C6.69 13.2519 7.026 12.9159 7.44 12.9159H12.573C12.987 12.9159 13.323 13.2519 13.323 13.6659C13.323 14.0799 12.987 14.4159 12.573 14.4159ZM7.44 9.62494H9.665C10.079 9.62494 10.415 9.96094 10.415 10.3749C10.415 10.7889 10.079 11.1249 9.665 11.1249H7.44C7.026 11.1249 6.69 10.7889 6.69 10.3749C6.69 9.96094 7.026 9.62494 7.44 9.62494ZM21.409 7.44994C21.071 5.87494 19.835 4.63994 18.26 4.30194C17.835 4.21094 17.366 4.21094 16.43 4.21094C16.183 4.21094 16.061 4.21394 15.985 4.22394C15.544 4.28894 15.391 4.38094 15.126 4.74194C15.089 4.79394 14.968 5.01194 14.733 5.45294C14.474 5.93894 13.992 6.22994 13.443 6.22994C12.837 6.22994 12.318 5.87594 12.091 5.30794C11.876 4.76794 11.778 4.52094 11.549 4.36694C11.32 4.21094 11.078 4.21094 10.678 4.21094H10.2C6.672 4.21094 4.902 4.21094 3.7 5.41094C2.5 6.61294 2.5 8.38394 2.5 11.9109V12.0899C2.5 15.6169 2.5 17.3879 3.7 18.5889C4.902 19.7899 6.672 19.7899 10.2 19.7899H10.677C11.077 19.7899 11.319 19.7899 11.54 19.6379C11.773 19.4839 11.872 19.2369 12.089 18.6969C12.315 18.1359 12.847 17.7729 13.486 17.7729H13.487C14.002 17.7909 14.459 18.0709 14.709 18.5209C14.968 18.9919 15.101 19.2259 15.137 19.2719C15.413 19.6379 15.541 19.7129 15.984 19.7749C16.052 19.7859 16.178 19.7899 16.437 19.7899C17.367 19.7899 17.834 19.7899 18.256 19.6989C19.835 19.3619 21.073 18.1249 21.41 16.5449C21.5 16.1219 21.5 15.6549 21.5 14.7259V9.27994C21.5 8.34494 21.5 7.87594 21.409 7.44994Z" fill="black"/>
<path fill-rule="evenodd" clip-rule="evenodd" d="M12.573 14.4159H7.44C7.026 14.4159 6.69 14.0799 6.69 13.6659C6.69 13.2519 7.026 12.9159 7.44 12.9159H12.573C12.987 12.9159 13.323 13.2519 13.323 13.6659C13.323 14.0799 12.987 14.4159 12.573 14.4159ZM7.44 9.62494H9.665C10.079 9.62494 10.415 9.96094 10.415 10.3749C10.415 10.7889 10.079 11.1249 9.665 11.1249H7.44C7.026 11.1249 6.69 10.7889 6.69 10.3749C6.69 9.96094 7.026 9.62494 7.44 9.62494ZM21.409 7.44994C21.071 5.87494 19.835 4.63994 18.26 4.30194C17.835 4.21094 17.366 4.21094 16.43 4.21094C16.183 4.21094 16.061 4.21394 15.985 4.22394C15.544 4.28894 15.391 4.38094 15.126 4.74194C15.089 4.79394 14.968 5.01194 14.733 5.45294C14.474 5.93894 13.992 6.22994 13.443 6.22994C12.837 6.22994 12.318 5.87594 12.091 5.30794C11.876 4.76794 11.778 4.52094 11.549 4.36694C11.32 4.21094 11.078 4.21094 10.678 4.21094H10.2C6.672 4.21094 4.902 4.21094 3.7 5.41094C2.5 6.61294 2.5 8.38394 2.5 11.9109V12.0899C2.5 15.6169 2.5 17.3879 3.7 18.5889C4.902 19.7899 6.672 19.7899 10.2 19.7899H10.677C11.077 19.7899 11.319 19.7899 11.54 19.6379C11.773 19.4839 11.872 19.2369 12.089 18.6969C12.315 18.1359 12.847 17.7729 13.486 17.7729H13.487C14.002 17.7909 14.459 18.0709 14.709 18.5209C14.968 18.9919 15.101 19.2259 15.137 19.2719C15.413 19.6379 15.541 19.7129 15.984 19.7749C16.052 19.7859 16.178 19.7899 16.437 19.7899C17.367 19.7899 17.834 19.7899 18.256 19.6989C19.835 19.3619 21.073 18.1249 21.41 16.5449C21.5 16.1219 21.5 15.6549 21.5 14.7259V9.27994C21.5 8.34494 21.5 7.87594 21.409 7.44994Z" fill="black"/>
</svg>