<svg width="24" height="24" viewBox="0 0 24 24" fill="none" xmlns="http://www.w3.org/2000/svg">
<path fill-rule="evenodd" clip-rule="evenodd" d="M13.9175 10.658H10.0835C9.66951 10.658 9.33351 10.322 9.33351 9.908C9.33351 9.494 9.66951 9.158 10.0835 9.158H13.9175C14.3315 9.158 14.6675 9.494 14.6675 9.908C14.6675 10.322 14.3315 10.658 13.9175 10.658ZM13.9175 14.842H10.0835C9.66951 14.842 9.33351 14.506 9.33351 14.092C9.33351 13.678 9.66951 13.342 10.0835 13.342H13.9175C14.3315 13.342 14.6675 13.678 14.6675 14.092C14.6675 14.506 14.3315 14.842 13.9175 14.842ZM19.6495 5.203C19.2915 3.963 18.3365 3.009 17.0945 2.649C16.5825 2.502 15.9995 2.499 14.8635 2.504C14.5995 2.505 14.4635 2.511 14.3765 2.528C14.0215 2.598 13.8945 2.675 13.6635 2.96C13.5935 3.047 13.5235 3.179 13.2935 3.614L13.2425 3.71C12.9955 4.179 12.5315 4.459 11.9625 4.459H11.9615C11.4645 4.442 11.0245 4.171 10.7845 3.734C10.4725 3.16 10.3975 3.03 10.3255 2.94C10.0915 2.658 9.97951 2.592 9.61851 2.522C9.53451 2.506 9.39151 2.5 9.10451 2.5C7.97951 2.5 7.41451 2.5 6.90451 2.646C5.66351 3.005 4.70851 3.96 4.35051 5.201C4.20251 5.71 4.20251 6.275 4.20251 7.401V16.594C4.20251 17.724 4.20251 18.291 4.35151 18.802C4.70951 20.039 5.66251 20.992 6.90051 21.351C7.41251 21.5 7.96251 21.493 9.10951 21.499C9.39251 21.499 9.53351 21.493 9.62551 21.476C9.98051 21.406 10.1075 21.329 10.3385 21.043C10.4095 20.954 10.4795 20.825 10.7605 20.29C11.0075 19.82 11.4725 19.539 12.0035 19.539C12.5325 19.539 12.9945 19.819 13.2405 20.291L13.3025 20.408C13.5245 20.83 13.5925 20.957 13.6635 21.046C13.8925 21.329 14.0195 21.405 14.3735 21.475C14.4915 21.5 14.6165 21.5 14.8915 21.5C16.0215 21.5 16.5885 21.5 17.1015 21.352C18.3375 20.992 19.2905 20.039 19.6495 18.803C19.7975 18.292 19.7975 17.724 19.7975 16.594V7.407C19.7975 6.279 19.7975 5.712 19.6495 5.203Z" fill="black"/>
<path fill-rule="evenodd" clip-rule="evenodd" d="M13.9175 10.658H10.0835C9.66951 10.658 9.33351 10.322 9.33351 9.908C9.33351 9.494 9.66951 9.158 10.0835 9.158H13.9175C14.3315 9.158 14.6675 9.494 14.6675 9.908C14.6675 10.322 14.3315 10.658 13.9175 10.658ZM13.9175 14.842H10.0835C9.66951 14.842 9.33351 14.506 9.33351 14.092C9.33351 13.678 9.66951 13.342 10.0835 13.342H13.9175C14.3315 13.342 14.6675 13.678 14.6675 14.092C14.6675 14.506 14.3315 14.842 13.9175 14.842ZM19.6495 5.203C19.2915 3.963 18.3365 3.009 17.0945 2.649C16.5825 2.502 15.9995 2.499 14.8635 2.504C14.5995 2.505 14.4635 2.511 14.3765 2.528C14.0215 2.598 13.8945 2.675 13.6635 2.96C13.5935 3.047 13.5235 3.179 13.2935 3.614L13.2425 3.71C12.9955 4.179 12.5315 4.459 11.9625 4.459H11.9615C11.4645 4.442 11.0245 4.171 10.7845 3.734C10.4725 3.16 10.3975 3.03 10.3255 2.94C10.0915 2.658 9.97951 2.592 9.61851 2.522C9.53451 2.506 9.39151 2.5 9.10451 2.5C7.97951 2.5 7.41451 2.5 6.90451 2.646C5.66351 3.005 4.70851 3.96 4.35051 5.201C4.20251 5.71 4.20251 6.275 4.20251 7.401V16.594C4.20251 17.724 4.20251 18.291 4.35151 18.802C4.70951 20.039 5.66251 20.992 6.90051 21.351C7.41251 21.5 7.96251 21.493 9.10951 21.499C9.39251 21.499 9.53351 21.493 9.62551 21.476C9.98051 21.406 10.1075 21.329 10.3385 21.043C10.4095 20.954 10.4795 20.825 10.7605 20.29C11.0075 19.82 11.4725 19.539 12.0035 19.539C12.5325 19.539 12.9945 19.819 13.2405 20.291L13.3025 20.408C13.5245 20.83 13.5925 20.957 13.6635 21.046C13.8925 21.329 14.0195 21.405 14.3735 21.475C14.4915 21.5 14.6165 21.5 14.8915 21.5C16.0215 21.5 16.5885 21.5 17.1015 21.352C18.3375 20.992 19.2905 20.039 19.6495 18.803C19.7975 18.292 19.7975 17.724 19.7975 16.594V7.407C19.7975 6.279 19.7975 5.712 19.6495 5.203Z" fill="black"/>
</svg>