<svg width="24" height="24" viewBox="0 0 24 24" fill="none" xmlns="http://www.w3.org/2000/svg">
<path fill-rule="evenodd" clip-rule="evenodd" d="M17.2943 13.4548C17.1513 13.5768 16.9773 13.6368 16.8043 13.6368C16.5953 13.6368 16.3873 13.5488 16.2393 13.3768L16.2333 13.3698C15.9643 13.0558 16.0003 12.5818 16.3153 12.3118C16.6293 12.0428 17.1033 12.0798 17.3723 12.3928C17.6423 12.7078 17.6083 13.1848 17.2943 13.4548ZM15.4603 11.4978C15.3113 11.6588 15.1093 11.7408 14.9073 11.7408C14.7273 11.7408 14.5463 11.6758 14.4033 11.5428L14.3973 11.5368C14.0923 11.2568 14.0733 10.7818 14.3543 10.4768C14.6373 10.1738 15.1103 10.1538 15.4143 10.4348C15.7183 10.7158 15.7413 11.1928 15.4603 11.4978ZM13.5223 9.6398C13.3773 9.7738 13.1933 9.8418 13.0103 9.8418C12.8113 9.8418 12.6123 9.7628 12.4653 9.6038L12.4593 9.5978C12.1773 9.2938 12.1943 8.8188 12.4983 8.5368C12.8023 8.2558 13.2763 8.2718 13.5583 8.5758C13.8403 8.8798 13.8253 9.3578 13.5223 9.6398ZM11.6653 7.7028C11.5173 7.8638 11.3153 7.9458 11.1133 7.9458C10.9333 7.9458 10.7523 7.8808 10.6083 7.7478L10.6023 7.7418C10.2983 7.4618 10.2793 6.9868 10.5603 6.6828C10.8413 6.3778 11.3163 6.3588 11.6203 6.6408C11.9243 6.9208 11.9463 7.3978 11.6653 7.7028ZM21.0943 9.0958C20.8693 8.6868 20.5243 8.3428 19.8233 7.6418C19.6553 7.4758 19.5663 7.3938 19.4993 7.3478C19.2223 7.1648 19.0843 7.1318 18.7673 7.1668C18.6613 7.1778 18.5353 7.2168 18.0353 7.3698C17.6263 7.4988 17.2053 7.3928 16.9043 7.0918C16.6043 6.7918 16.5013 6.3698 16.6273 5.9638C16.7833 5.4648 16.8203 5.3428 16.8323 5.2378C16.8673 4.9108 16.8343 4.7728 16.6533 4.5048C16.5943 4.4128 16.5213 4.3398 16.3313 4.1478C15.6493 3.4688 15.3083 3.1268 14.9033 2.9038C13.9173 2.3638 12.7393 2.3618 11.7533 2.9038C11.3483 3.1268 11.0063 3.4688 10.3133 4.1608L4.15829 10.3148C3.47329 11.0008 3.12929 11.3448 2.90629 11.7508C2.36229 12.7388 2.36229 13.9188 2.90829 14.9068C3.13229 15.3118 3.47729 15.6568 4.17029 16.3498C4.34529 16.5228 4.43729 16.6058 4.50129 16.6478C4.77529 16.8308 4.91229 16.8638 5.23329 16.8298C5.29729 16.8228 5.48829 16.7718 5.85629 16.6598L5.96129 16.6278C6.36629 16.4988 6.78929 16.6048 7.11229 16.9288C7.38529 17.2218 7.48129 17.6248 7.36929 18.0078C7.21129 18.5438 7.17429 18.6738 7.16529 18.7788C7.13429 19.1078 7.16629 19.2298 7.34929 19.5028C7.39029 19.5638 7.47129 19.6538 7.66429 19.8488C8.34529 20.5278 8.68729 20.8688 9.09129 21.0938C9.58629 21.3658 10.1273 21.5028 10.6693 21.5028C11.2123 21.5028 11.7543 21.3658 12.2503 21.0938C12.6533 20.8698 12.9953 20.5278 13.6823 19.8418L19.8373 13.6858C20.5243 12.9988 20.8703 12.6538 21.0943 12.2458C21.6373 11.2608 21.6373 10.0828 21.0943 9.0958Z" fill="black"/>
<path fill-rule="evenodd" clip-rule="evenodd" d="M17.2943 13.4548C17.1513 13.5768 16.9773 13.6368 16.8043 13.6368C16.5953 13.6368 16.3873 13.5488 16.2393 13.3768L16.2333 13.3698C15.9643 13.0558 16.0003 12.5818 16.3153 12.3118C16.6293 12.0428 17.1033 12.0798 17.3723 12.3928C17.6423 12.7078 17.6083 13.1848 17.2943 13.4548ZM15.4603 11.4978C15.3113 11.6588 15.1093 11.7408 14.9073 11.7408C14.7273 11.7408 14.5463 11.6758 14.4033 11.5428L14.3973 11.5368C14.0923 11.2568 14.0733 10.7818 14.3543 10.4768C14.6373 10.1738 15.1103 10.1538 15.4143 10.4348C15.7183 10.7158 15.7413 11.1928 15.4603 11.4978ZM13.5223 9.6398C13.3773 9.7738 13.1933 9.8418 13.0103 9.8418C12.8113 9.8418 12.6123 9.7628 12.4653 9.6038L12.4593 9.5978C12.1773 9.2938 12.1943 8.8188 12.4983 8.5368C12.8023 8.2558 13.2763 8.2718 13.5583 8.5758C13.8403 8.8798 13.8253 9.3578 13.5223 9.6398ZM11.6653 7.7028C11.5173 7.8638 11.3153 7.9458 11.1133 7.9458C10.9333 7.9458 10.7523 7.8808 10.6083 7.7478L10.6023 7.7418C10.2983 7.4618 10.2793 6.9868 10.5603 6.6828C10.8413 6.3778 11.3163 6.3588 11.6203 6.6408C11.9243 6.9208 11.9463 7.3978 11.6653 7.7028ZM21.0943 9.0958C20.8693 8.6868 20.5243 8.3428 19.8233 7.6418C19.6553 7.4758 19.5663 7.3938 19.4993 7.3478C19.2223 7.1648 19.0843 7.1318 18.7673 7.1668C18.6613 7.1778 18.5353 7.2168 18.0353 7.3698C17.6263 7.4988 17.2053 7.3928 16.9043 7.0918C16.6043 6.7918 16.5013 6.3698 16.6273 5.9638C16.7833 5.4648 16.8203 5.3428 16.8323 5.2378C16.8673 4.9108 16.8343 4.7728 16.6533 4.5048C16.5943 4.4128 16.5213 4.3398 16.3313 4.1478C15.6493 3.4688 15.3083 3.1268 14.9033 2.9038C13.9173 2.3638 12.7393 2.3618 11.7533 2.9038C11.3483 3.1268 11.0063 3.4688 10.3133 4.1608L4.15829 10.3148C3.47329 11.0008 3.12929 11.3448 2.90629 11.7508C2.36229 12.7388 2.36229 13.9188 2.90829 14.9068C3.13229 15.3118 3.47729 15.6568 4.17029 16.3498C4.34529 16.5228 4.43729 16.6058 4.50129 16.6478C4.77529 16.8308 4.91229 16.8638 5.23329 16.8298C5.29729 16.8228 5.48829 16.7718 5.85629 16.6598L5.96129 16.6278C6.36629 16.4988 6.78929 16.6048 7.11229 16.9288C7.38529 17.2218 7.48129 17.6248 7.36929 18.0078C7.21129 18.5438 7.17429 18.6738 7.16529 18.7788C7.13429 19.1078 7.16629 19.2298 7.34929 19.5028C7.39029 19.5638 7.47129 19.6538 7.66429 19.8488C8.34529 20.5278 8.68729 20.8688 9.09129 21.0938C9.58629 21.3658 10.1273 21.5028 10.6693 21.5028C11.2123 21.5028 11.7543 21.3658 12.2503 21.0938C12.6533 20.8698 12.9953 20.5278 13.6823 19.8418L19.8373 13.6858C20.5243 12.9988 20.8703 12.6538 21.0943 12.2458C21.6373 11.2608 21.6373 10.0828 21.0943 9.0958Z" fill="black"/>
</svg>