<svg width="24" height="24" viewBox="0 0 24 24" fill="none" xmlns="http://www.w3.org/2000/svg">
<path fill-rule="evenodd" clip-rule="evenodd" d="M8.37083 10.4375C7.50883 10.4375 6.80783 11.1385 6.80783 12.0005C6.80783 12.8635 7.50883 13.5645 8.37083 13.5645C9.23283 13.5645 9.93383 12.8635 9.93383 12.0005C9.93383 11.1385 9.23283 10.4375 8.37083 10.4375Z" fill="black"/>
<path fill-rule="evenodd" clip-rule="evenodd" d="M14.9479 13.3299C14.9479 13.7439 14.6119 14.0799 14.1979 14.0799C13.7839 14.0799 13.4479 13.7439 13.4479 13.3299V10.9489C13.4479 10.5349 13.7839 10.1989 14.1979 10.1989C14.6119 10.1989 14.9479 10.5349 14.9479 10.9489V13.3299ZM8.37092 15.0639C6.68192 15.0639 5.30792 13.6899 5.30792 12.0009C5.30792 10.3109 6.68192 8.93694 8.37092 8.93694C10.0599 8.93694 11.4339 10.3109 11.4339 12.0009C11.4339 13.6899 10.0599 15.0639 8.37092 15.0639ZM21.4749 7.92894C21.2919 5.96894 19.7359 4.41194 17.7739 4.22794C17.5969 4.21194 17.3869 4.21094 16.9659 4.21094C16.8109 4.21094 16.7349 4.21194 16.7059 4.21394C16.1519 4.25194 15.9159 4.40394 15.6509 4.89194C15.6369 4.91794 15.5669 5.06894 15.4289 5.37094C15.3189 5.61094 15.1489 5.80294 14.9479 5.94794V8.28894C14.9479 8.70294 14.6119 9.03894 14.1979 9.03894C13.7839 9.03894 13.4479 8.70294 13.4479 8.28894V6.06794C13.1819 5.93394 12.9549 5.72594 12.8089 5.44294C12.4529 4.75894 12.3199 4.50294 12.0809 4.35694C11.8419 4.21094 11.5899 4.21094 11.1329 4.21094H10.1929C6.66492 4.21094 4.89492 4.21094 3.69292 5.41094C2.49292 6.61294 2.49292 8.38394 2.49292 11.9109V12.0899C2.49292 15.6169 2.49292 17.3879 3.69392 18.5889C4.89492 19.7899 6.66492 19.7899 10.1929 19.7899H11.1319C11.5879 19.7899 11.8399 19.7899 12.0789 19.6429C12.3179 19.4979 12.4509 19.2429 12.8059 18.5599C12.9529 18.2809 13.1769 18.0739 13.4479 17.9399V15.7109C13.4479 15.2969 13.7839 14.9609 14.1979 14.9609C14.6119 14.9609 14.9479 15.2969 14.9479 15.7109V18.0589C15.1379 18.1989 15.2989 18.3789 15.4049 18.6009C15.5599 18.9339 15.6399 19.0989 15.6529 19.1219C15.9259 19.6119 16.1409 19.7489 16.6989 19.7869C16.7299 19.7889 16.8089 19.7899 16.9679 19.7899C17.3869 19.7899 17.5959 19.7889 17.7719 19.7719C19.7349 19.5899 21.2929 18.0329 21.4759 16.0679C21.4919 15.8929 21.4929 15.6829 21.4929 15.2639V8.73794C21.4929 8.31494 21.4909 8.10494 21.4749 7.92894Z" fill="black"/>
<path fill-rule="evenodd" clip-rule="evenodd" d="M8.37083 10.4375C7.50883 10.4375 6.80783 11.1385 6.80783 12.0005C6.80783 12.8635 7.50883 13.5645 8.37083 13.5645C9.23283 13.5645 9.93383 12.8635 9.93383 12.0005C9.93383 11.1385 9.23283 10.4375 8.37083 10.4375Z" fill="black"/>
<path fill-rule="evenodd" clip-rule="evenodd" d="M14.9479 13.3299C14.9479 13.7439 14.6119 14.0799 14.1979 14.0799C13.7839 14.0799 13.4479 13.7439 13.4479 13.3299V10.9489C13.4479 10.5349 13.7839 10.1989 14.1979 10.1989C14.6119 10.1989 14.9479 10.5349 14.9479 10.9489V13.3299ZM8.37092 15.0639C6.68192 15.0639 5.30792 13.6899 5.30792 12.0009C5.30792 10.3109 6.68192 8.93694 8.37092 8.93694C10.0599 8.93694 11.4339 10.3109 11.4339 12.0009C11.4339 13.6899 10.0599 15.0639 8.37092 15.0639ZM21.4749 7.92894C21.2919 5.96894 19.7359 4.41194 17.7739 4.22794C17.5969 4.21194 17.3869 4.21094 16.9659 4.21094C16.8109 4.21094 16.7349 4.21194 16.7059 4.21394C16.1519 4.25194 15.9159 4.40394 15.6509 4.89194C15.6369 4.91794 15.5669 5.06894 15.4289 5.37094C15.3189 5.61094 15.1489 5.80294 14.9479 5.94794V8.28894C14.9479 8.70294 14.6119 9.03894 14.1979 9.03894C13.7839 9.03894 13.4479 8.70294 13.4479 8.28894V6.06794C13.1819 5.93394 12.9549 5.72594 12.8089 5.44294C12.4529 4.75894 12.3199 4.50294 12.0809 4.35694C11.8419 4.21094 11.5899 4.21094 11.1329 4.21094H10.1929C6.66492 4.21094 4.89492 4.21094 3.69292 5.41094C2.49292 6.61294 2.49292 8.38394 2.49292 11.9109V12.0899C2.49292 15.6169 2.49292 17.3879 3.69392 18.5889C4.89492 19.7899 6.66492 19.7899 10.1929 19.7899H11.1319C11.5879 19.7899 11.8399 19.7899 12.0789 19.6429C12.3179 19.4979 12.4509 19.2429 12.8059 18.5599C12.9529 18.2809 13.1769 18.0739 13.4479 17.9399V15.7109C13.4479 15.2969 13.7839 14.9609 14.1979 14.9609C14.6119 14.9609 14.9479 15.2969 14.9479 15.7109V18.0589C15.1379 18.1989 15.2989 18.3789 15.4049 18.6009C15.5599 18.9339 15.6399 19.0989 15.6529 19.1219C15.9259 19.6119 16.1409 19.7489 16.6989 19.7869C16.7299 19.7889 16.8089 19.7899 16.9679 19.7899C17.3869 19.7899 17.5959 19.7889 17.7719 19.7719C19.7349 19.5899 21.2929 18.0329 21.4759 16.0679C21.4919 15.8929 21.4929 15.6829 21.4929 15.2639V8.73794C21.4929 8.31494 21.4909 8.10494 21.4749 7.92894Z" fill="black"/>
</svg>