<svg width="25" height="24" viewBox="0 0 25 24" fill="none" xmlns="http://www.w3.org/2000/svg">
<path d="M12.5322 20.5791H17.7347C20.0738 20.5791 21.5293 18.928 21.5293 16.5919V10.289C21.5293 7.95286 20.0738 6.30173 17.7357 6.30173H7.32976C4.99851 6.30173 3.53711 7.95286 3.53711 10.289V16.5919C3.53711 18.928 4.9917 20.5791 7.32976 20.5791H8.73691" stroke="black" stroke-width="1.5" stroke-linecap="round" stroke-linejoin="round"/>
<path d="M15.8922 6.27467V5.65197C15.8922 4.427 14.8988 3.43359 13.6738 3.43359H11.3942C10.1692 3.43359 9.17578 4.427 9.17578 5.65197V6.27467" stroke="black" stroke-width="1.5" stroke-linecap="round" stroke-linejoin="round"/>
<path d="M14.5021 10.7578H10.5664" stroke="black" stroke-width="1.5" stroke-linecap="round" stroke-linejoin="round"/>
<path d="M12.9609 14.5143C9.81841 14.5709 6.67581 14.003 3.5332 12.8105" stroke="black" stroke-width="1.5" stroke-linecap="round" stroke-linejoin="round"/>
<path d="M21.5332 12.8125C20.0762 13.3654 18.6192 13.7841 17.1621 14.0684" stroke="black" stroke-width="1.5" stroke-linecap="round" stroke-linejoin="round"/>
</svg>