<svg width="25" height="24" viewBox="0 0 25 24" fill="none" xmlns="http://www.w3.org/2000/svg">
<path d="M12.249 21H8.03216C5.08405 21 3.25 18.9188 3.25 15.9736V8.02638C3.25 5.08119 5.09281 3 8.03216 3H16.4669C19.415 3 21.25 5.08119 21.25 8.02638V15.9736C21.25 18.9188 19.415 21 16.4659 21H15.9589" stroke="black" stroke-width="1.5" stroke-linecap="round" stroke-linejoin="round"/>
<path d="M8.95022 15.0828C10.0993 15.1655 11.0995 15.6354 11.6891 15.9769C12.0375 16.1793 12.4636 16.1793 12.8129 15.9769C13.4025 15.6354 14.4018 15.1655 15.5509 15.0828C16.1385 15.04 16.6027 14.57 16.6027 13.9804V8.97931C16.6027 8.31671 16.0228 7.80785 15.3631 7.87985C14.2938 7.9966 13.3695 8.43444 12.8129 8.75747C12.4636 8.95887 12.0375 8.95887 11.6891 8.75747C11.1316 8.43444 10.2083 7.9966 9.13898 7.87985C8.4793 7.80785 7.89844 8.31671 7.89844 8.97931V13.9804C7.89844 14.57 8.36255 15.04 8.95022 15.0828Z" stroke="black" stroke-width="1.5" stroke-linecap="round" stroke-linejoin="round"/>
<path d="M12.25 9.04102V16.1019" stroke="black" stroke-width="1.5" stroke-linecap="round" stroke-linejoin="round"/>
</svg>