<svg width="25" height="24" viewBox="0 0 25 24" fill="none" xmlns="http://www.w3.org/2000/svg">
<path d="M17.1342 7.04924V4.65277C17.1342 3.57275 16.1154 2.78365 15.0695 3.05317L6.33492 5.30759C5.7015 5.47105 5.25879 6.0422 5.25879 6.69605V7.28763M5.25879 7.28763V18.8555C5.25879 20.0397 6.21913 21 7.40326 21H17.0962C18.2813 21 19.2407 20.0397 19.2407 18.8555V9.43307C19.2407 8.24797 18.2813 7.28763 17.0962 7.28763H5.25879Z" stroke="black" stroke-width="1.5" stroke-linecap="round" stroke-linejoin="round"/>
<path fill-rule="evenodd" clip-rule="evenodd" d="M14.6465 13.9756C14.6465 15.2998 13.5733 16.373 12.249 16.373C10.9248 16.373 9.85156 15.2998 9.85156 13.9756C9.85156 12.6513 10.9248 11.5781 12.249 11.5781C13.5733 11.5781 14.6465 12.6513 14.6465 13.9756Z" stroke="black" stroke-width="1.5" stroke-linecap="round" stroke-linejoin="round"/>
</svg>