<svg width="24" height="24" viewBox="0 0 24 24" fill="none" xmlns="http://www.w3.org/2000/svg">
<path fill-rule="evenodd" clip-rule="evenodd" d="M8.28455 17.7127C8.28455 17.8784 8.41886 18.0127 8.58455 18.0127H15.4115C15.5772 18.0127 15.7115 17.8784 15.7115 17.7127V16.6727C15.7115 16.507 15.5772 16.3727 15.4115 16.3727H8.58455C8.41886 16.3727 8.28455 16.507 8.28455 16.6727V17.7127Z" fill="black"/>
<path fill-rule="evenodd" clip-rule="evenodd" d="M15.3779 13.2325H8.61891C8.43191 13.2325 8.28491 13.3775 8.28491 13.5625V14.5725C8.28491 14.7382 8.41923 14.8725 8.58491 14.8725H15.4119C15.5776 14.8725 15.7119 14.7382 15.7119 14.5725V13.5625C15.7119 13.3775 15.5649 13.2325 15.3779 13.2325Z" fill="black"/>
<path fill-rule="evenodd" clip-rule="evenodd" d="M20.1504 7.7562L14.2304 3.0362C12.9104 1.9842 11.0664 1.9822 9.74244 3.0382L3.86744 7.7512C3.14744 8.2862 2.71144 9.1472 2.70044 10.0632V17.9062C2.70544 18.9402 3.11244 19.9102 3.84644 20.6372C4.57444 21.3572 5.53544 21.7532 6.55244 21.7532C6.68112 21.7532 6.78544 21.6489 6.78544 21.5202V13.5632C6.78544 12.5532 7.60844 11.7332 8.61944 11.7332H15.3784C16.3894 11.7332 17.2124 12.5532 17.2124 13.5632V21.5492C17.2124 21.6619 17.3038 21.7532 17.4164 21.7532C18.4284 21.7602 19.4204 21.3632 20.1534 20.6402C20.8864 19.9162 21.2944 18.9492 21.2994 17.9172V10.0412C21.2854 9.1352 20.8624 8.2992 20.1504 7.7562Z" fill="black"/>
<path fill-rule="evenodd" clip-rule="evenodd" d="M8.28455 21.4523C8.28455 21.618 8.41886 21.7523 8.58455 21.7523H15.4115C15.5772 21.7523 15.7115 21.618 15.7115 21.4523V19.8123C15.7115 19.6466 15.5772 19.5123 15.4115 19.5123H8.58455C8.41886 19.5123 8.28455 19.6466 8.28455 19.8123V21.4523Z" fill="black"/>
</svg>