<svg width="24" height="24" viewBox="0 0 24 24" fill="none" xmlns="http://www.w3.org/2000/svg">
<path fill-rule="evenodd" clip-rule="evenodd" d="M20.556 8.0472L14.322 3.0662C12.947 1.9732 11.027 1.9732 9.649 3.0682L3.459 8.0352C2.703 8.6082 2.262 9.4782 2.25 10.4332V21.0032C2.25 21.4172 2.586 21.7532 3 21.7532C3.414 21.7532 3.75 21.4172 3.75 21.0032V10.4432C3.756 9.9642 3.98 9.5222 4.381 9.2182L10.584 4.2402C11.41 3.5842 12.562 3.5842 13.387 4.2392L19.64 9.2352C20.014 9.5122 20.242 9.9652 20.25 10.4332V21.0032C20.25 21.4172 20.586 21.7532 21 21.7532C21.414 21.7532 21.75 21.4172 21.75 21.0032V10.4212C21.734 9.4782 21.28 8.5842 20.556 8.0472Z" fill="black"/>
<path fill-rule="evenodd" clip-rule="evenodd" d="M14.1371 12.2433H13.2501C12.974 12.2433 12.7501 12.4671 12.7501 12.7433V14.0853C12.7501 14.4993 12.4141 14.8353 12.0001 14.8353C11.5861 14.8353 11.2501 14.4993 11.2501 14.0853V12.7433C11.2501 12.4671 11.0263 12.2433 10.7501 12.2433H9.86211C8.37211 12.2433 7.43811 13.2963 7.43811 14.7843V18.8123C7.43811 20.3113 8.36811 21.3643 9.86211 21.3643H10.7501C11.0263 21.3643 11.2501 21.1404 11.2501 20.8643V19.5223C11.2501 19.1083 11.5861 18.7723 12.0001 18.7723C12.4141 18.7723 12.7501 19.1083 12.7501 19.5223V20.8643C12.7501 21.1404 12.974 21.3643 13.2501 21.3643H14.1371C15.6311 21.3643 16.5621 20.3113 16.5621 18.8123V14.7843C16.5621 13.2963 15.6311 12.2433 14.1371 12.2433Z" fill="black"/>
</svg>