<svg width="24" height="24" viewBox="0 0 24 24" fill="none" xmlns="http://www.w3.org/2000/svg">
<path fill-rule="evenodd" clip-rule="evenodd" d="M13.2942 15.7327H10.6962C10.4102 15.7367 10.1672 15.9767 10.1652 16.2667V21.7527H13.8332V16.2627C13.8322 15.9717 13.5902 15.7327 13.2942 15.7327Z" fill="black"/>
<path fill-rule="evenodd" clip-rule="evenodd" d="M20.1506 7.75633L14.2296 3.03633C12.9086 1.98433 11.0656 1.98233 9.74256 3.03833L3.86756 7.75133C3.14456 8.28933 2.70856 9.15133 2.70056 10.0633V17.9053C2.70456 18.9393 3.11056 19.9093 3.84556 20.6363C4.57256 21.3573 5.53456 21.7533 6.55256 21.7533H8.66556V16.2623C8.67156 15.1573 9.57756 14.2493 10.6856 14.2333H13.2946C14.4156 14.2333 15.3306 15.1423 15.3336 16.2603V21.7533H17.4396C19.5566 21.7533 21.2866 20.0373 21.2996 17.9173V10.0403C21.2846 9.13533 20.8616 8.29933 20.1506 7.75633Z" fill="black"/>
</svg>