<svg width="24" height="24" viewBox="0 0 24 24" fill="none" xmlns="http://www.w3.org/2000/svg">
<path fill-rule="evenodd" clip-rule="evenodd" d="M15.7864 14.5782C14.8444 15.8142 13.4634 16.5232 11.9964 16.5232C10.5314 16.5232 9.15041 15.8142 8.20841 14.5782C7.95741 14.2482 8.02041 13.7782 8.35041 13.5272C8.68041 13.2762 9.15041 13.3392 9.40141 13.6692C10.0574 14.5302 11.0034 15.0232 11.9964 15.0232C12.9914 15.0232 13.9374 14.5302 14.5934 13.6692C14.8444 13.3402 15.3144 13.2762 15.6444 13.5272C15.9734 13.7782 16.0374 14.2482 15.7864 14.5782ZM20.0264 7.44324L14.9744 3.31324C13.2504 1.90324 10.7474 1.90324 9.02441 3.31324L3.97141 7.44424C2.63541 8.54024 2.00841 10.2732 2.33441 11.9652L3.47541 17.9252C3.89941 20.1382 5.84041 21.7442 8.08841 21.7442H15.9104C18.1604 21.7442 20.0994 20.1382 20.5234 17.9252L21.6664 11.9652C21.9904 10.2722 21.3634 8.54024 20.0264 7.44324Z" fill="black"/>
</svg>