<svg width="24" height="24" viewBox="0 0 24 24" fill="none" xmlns="http://www.w3.org/2000/svg">
<path fill-rule="evenodd" clip-rule="evenodd" d="M14.7512 15.8309C14.7512 16.2449 14.4152 16.5809 14.0012 16.5809C13.5872 16.5809 13.2512 16.2449 13.2512 15.8309V12.2709C13.2512 11.8569 13.5872 11.5209 14.0012 11.5209C14.4152 11.5209 14.7512 11.8569 14.7512 12.2709V15.8309ZM10.8542 15.8309C10.8542 16.2449 10.5182 16.5809 10.1042 16.5809C9.6902 16.5809 9.3542 16.2449 9.3542 15.8309V12.2709C9.3542 11.8569 9.6902 11.5209 10.1042 11.5209C10.5182 11.5209 10.8542 11.8569 10.8542 12.2709V15.8309ZM21.6202 9.30189L14.0922 3.33989C12.8602 2.37089 11.1392 2.37289 9.9052 3.34189L2.3792 9.30189C1.9462 9.64489 1.8732 10.2739 2.2162 10.7069C2.5592 11.1399 3.1882 11.2109 3.6202 10.8709L3.7462 10.7709V17.5769C3.7462 19.6769 5.4572 21.3859 7.5602 21.3859H16.4402C18.5422 21.3859 20.2532 19.6769 20.2532 17.5769V10.7709L20.3792 10.8709C20.5632 11.0159 20.7822 11.0859 20.9992 11.0859C21.2942 11.0859 21.5862 10.9559 21.7842 10.7069C22.1272 10.2739 22.0532 9.64489 21.6202 9.30189Z" fill="black"/>
</svg>