<svg width="24" height="24" viewBox="0 0 24 24" fill="none" xmlns="http://www.w3.org/2000/svg">
<path fill-rule="evenodd" clip-rule="evenodd" d="M14.588 17.2093C14.174 17.2093 13.838 16.8733 13.838 16.4593C13.838 15.4443 13.013 14.6193 12 14.6193C10.987 14.6193 10.163 15.4443 10.163 16.4593C10.163 16.8733 9.82701 17.2093 9.41301 17.2093C8.99901 17.2093 8.66301 16.8733 8.66301 16.4593C8.66301 14.6173 10.16 13.1193 12 13.1193C13.84 13.1193 15.338 14.6173 15.338 16.4593C15.338 16.8733 15.002 17.2093 14.588 17.2093ZM12 9.54327C12.414 9.54327 12.75 9.87527 12.75 10.2893V10.2993C12.75 10.7133 12.414 11.0493 12 11.0493C11.586 11.0493 11.25 10.7133 11.25 10.2993C11.25 9.88527 11.586 9.54327 12 9.54327ZM21.621 9.30227L14.092 3.34027C12.86 2.37027 11.139 2.37227 9.90501 3.34227L2.38001 9.30227C1.94601 9.64527 1.87301 10.2743 2.21601 10.7073C2.55901 11.1403 3.18801 11.2113 3.62101 10.8703L3.74701 10.7713V17.5763C3.74701 19.6773 5.45801 21.3863 7.56101 21.3863H16.44C18.543 21.3863 20.254 19.6773 20.254 17.5763V10.7713L20.38 10.8703C20.563 11.0163 20.782 11.0863 21 11.0863C21.295 11.0863 21.587 10.9563 21.784 10.7073C22.127 10.2743 22.054 9.64527 21.621 9.30227Z" fill="black"/>
</svg>