<svg width="24" height="24" viewBox="0 0 24 24" fill="none" xmlns="http://www.w3.org/2000/svg">
<path fill-rule="evenodd" clip-rule="evenodd" d="M15.3315 18.1078C15.3315 18.5218 14.9955 18.8578 14.5815 18.8578C14.1675 18.8578 13.8315 18.5218 13.8315 18.1078V16.0678C13.8315 15.0588 13.0095 14.2378 11.9995 14.2378C10.9905 14.2378 10.1695 15.0588 10.1695 16.0678V18.1078C10.1695 18.5218 9.83352 18.8578 9.41952 18.8578C9.00552 18.8578 8.66952 18.5218 8.66952 18.1078V16.0678C8.66952 14.2318 10.1635 12.7378 11.9995 12.7378C13.8365 12.7378 15.3315 14.2318 15.3315 16.0678V18.1078ZM19.9195 7.6258L14.3465 3.0858C12.9855 1.9758 11.0125 1.9758 9.65552 3.0858L4.08252 7.6248C3.21152 8.3298 2.71252 9.3768 2.71252 10.4968V17.6768C2.71252 19.9208 4.53952 21.7468 6.78452 21.7468H17.2155C19.4605 21.7468 21.2875 19.9208 21.2875 17.6768V10.4968C21.2875 9.3768 20.7885 8.3298 19.9195 7.6258Z" fill="black"/>
</svg>