<svg width="24" height="24" viewBox="0 0 24 24" fill="none" xmlns="http://www.w3.org/2000/svg">
<path fill-rule="evenodd" clip-rule="evenodd" d="M19.8736 6.24923L13.7226 2.70923C12.6616 2.09823 11.3406 2.09823 10.2776 2.70823L4.12256 6.25223C3.05956 6.87423 2.39856 8.02023 2.39856 9.23923V18.5592C2.39856 20.3182 3.82956 21.7492 5.58856 21.7492H6.69356C8.01556 21.7492 9.09056 20.6722 9.09056 19.3492V14.2992C9.09056 13.7482 9.53556 13.2992 10.0836 13.2992H13.9086C14.4566 13.2992 14.9016 13.7482 14.9016 14.2992V19.3492C14.9016 20.6722 15.9776 21.7492 17.2996 21.7492H18.4126C20.1706 21.7492 21.6016 20.3182 21.6016 18.5592V9.23923C21.6016 8.02023 20.9416 6.87523 19.8736 6.24923Z" fill="black"/>
</svg>