<svg width="24" height="24" viewBox="0 0 24 24" fill="none" xmlns="http://www.w3.org/2000/svg">
<path fill-rule="evenodd" clip-rule="evenodd" d="M17.064 16.31C17.064 16.724 16.728 17.06 16.314 17.06C15.9 17.06 15.564 16.724 15.564 16.31V11.25C15.562 11.149 15.508 11.043 15.417 10.972L12.423 8.586C12.17 8.385 11.82 8.385 11.568 8.585L8.594 10.975C8.488 11.054 8.439 11.153 8.438 11.259V16.31C8.438 16.724 8.102 17.06 7.688 17.06C7.273 17.06 6.938 16.724 6.938 16.31V11.25C6.944 10.667 7.222 10.123 7.68 9.786L10.63 7.415C11.434 6.772 12.556 6.772 13.358 7.414L16.344 9.793C16.789 10.138 17.054 10.667 17.064 11.237V16.31ZM14.296 16.31C14.296 16.724 13.96 17.06 13.546 17.06C13.132 17.06 12.796 16.724 12.796 16.31V14.38C12.796 13.944 12.443 13.59 12.008 13.59C11.574 13.59 11.221 13.944 11.221 14.38V16.31C11.221 16.724 10.885 17.06 10.471 17.06C10.057 17.06 9.721 16.724 9.721 16.31V14.38C9.721 13.117 10.747 12.09 12.008 12.09C13.27 12.09 14.296 13.117 14.296 14.38V16.31ZM16.217 2.25H7.782C4.473 2.25 2.25 4.573 2.25 8.03V15.97C2.25 19.427 4.473 21.75 7.782 21.75H16.216C19.526 21.75 21.75 19.427 21.75 15.97V8.03C21.75 4.573 19.526 2.25 16.217 2.25Z" fill="black"/>
</svg>