<svg width="24" height="24" viewBox="0 0 24 24" fill="none" xmlns="http://www.w3.org/2000/svg">
<path opacity="0.4" d="M13.9596 14.2224C13.4371 14.6836 12.7511 14.9638 11.999 14.9638C10.3624 14.9638 9.03516 13.6366 9.03516 12" stroke="black" stroke-width="1.5" stroke-linecap="round" stroke-linejoin="round"/>
<path opacity="0.4" d="M10.0391 9.7766C10.5616 9.31539 11.2476 9.03516 11.9997 9.03516C13.6363 9.03516 14.9635 10.3624 14.9635 11.999" stroke="black" stroke-width="1.5" stroke-linecap="round" stroke-linejoin="round"/>
<path d="M5.02197 15.0845C5.02197 17.3623 6.44745 18.9756 8.73211 18.9756H15.2698C17.5555 18.9756 18.9732 17.3623 18.9732 15.0845V8.92331C18.9732 6.63866 17.5555 5.02441 15.2698 5.02441H8.73211C6.45426 5.02441 5.02197 6.63866 5.02197 8.92331V15.0845Z" stroke="black" stroke-width="1.5" stroke-linecap="round" stroke-linejoin="round"/>
<path opacity="0.4" d="M9.61328 20.9966V18.9756M14.3872 20.9966V18.9756" stroke="black" stroke-width="1.5" stroke-linecap="round" stroke-linejoin="round"/>
<path opacity="0.4" d="M5.02097 9.61719H3M5.02097 14.3835H3" stroke="black" stroke-width="1.5" stroke-linecap="round" stroke-linejoin="round"/>
<path opacity="0.4" d="M9.61328 5.0239V3.00293M14.3872 5.0239V3.00293" stroke="black" stroke-width="1.5" stroke-linecap="round" stroke-linejoin="round"/>
<path opacity="0.4" d="M20.9995 9.61621H18.9707M20.9995 14.3825H18.9707" stroke="black" stroke-width="1.5" stroke-linecap="round" stroke-linejoin="round"/>
</svg>
