<svg width="24" height="24" viewBox="0 0 24 24" fill="none" xmlns="http://www.w3.org/2000/svg">
<path d="M8.78711 13.4182C8.78711 14.467 9.44286 15.2094 10.4946 15.2094H13.5038C14.5555 15.2094 15.2084 14.467 15.2084 13.4182V10.5831C15.2084 9.5314 14.5555 8.78809 13.5038 8.78809H10.4946C9.44675 8.78809 8.78711 9.5314 8.78711 10.5831V13.4182Z" stroke="black" stroke-width="1.5" stroke-linecap="round" stroke-linejoin="round"/>
<path opacity="0.4" d="M11.3438 13.2632V15.21" stroke="black" stroke-width="1.5" stroke-linecap="round" stroke-linejoin="round"/>
<path opacity="0.4" d="M12.8203 8.78906V10.7349" stroke="black" stroke-width="1.5" stroke-linecap="round" stroke-linejoin="round"/>
<path d="M5.02148 15.0845C5.02148 17.3623 6.44696 18.9756 8.73162 18.9756H15.2694C17.555 18.9756 18.9727 17.3623 18.9727 15.0845V8.92331C18.9727 6.63866 17.555 5.02441 15.2694 5.02441H8.73162C6.45377 5.02441 5.02148 6.63866 5.02148 8.92331V15.0845Z" stroke="black" stroke-width="1.5" stroke-linecap="round" stroke-linejoin="round"/>
<path opacity="0.4" d="M9.61328 20.9966V18.9756M14.3872 20.9966V18.9756" stroke="black" stroke-width="1.5" stroke-linecap="round" stroke-linejoin="round"/>
<path opacity="0.4" d="M5.02097 9.61719H3M5.02097 14.3835H3" stroke="black" stroke-width="1.5" stroke-linecap="round" stroke-linejoin="round"/>
<path opacity="0.4" d="M9.61328 5.0239V3.00293M14.3872 5.0239V3.00293" stroke="black" stroke-width="1.5" stroke-linecap="round" stroke-linejoin="round"/>
<path opacity="0.4" d="M20.9995 9.61621H18.9707M20.9995 14.3825H18.9707" stroke="black" stroke-width="1.5" stroke-linecap="round" stroke-linejoin="round"/>
</svg>
