<svg width="24" height="24" viewBox="0 0 24 24" fill="none" xmlns="http://www.w3.org/2000/svg">
<path d="M8.69563 3.28442H7.02897C4.80384 3.28442 3 5.08827 3 7.3134V12.7697C3 14.9948 4.80384 16.7987 7.02897 16.7987H16.9705C19.1957 16.7987 20.9995 14.9948 20.9995 12.7697V11.4932" stroke="black" stroke-width="1.5" stroke-linecap="round" stroke-linejoin="round"/>
<path fill-rule="evenodd" clip-rule="evenodd" d="M16.4263 3.28418H13.4491C12.2932 3.28418 11.5684 4.1034 11.5684 5.26121V7.4912C11.5684 8.64998 12.2893 9.46823 13.4491 9.46823H16.4263C17.586 9.46823 18.308 8.64998 18.308 7.4912V5.26121C18.308 4.1034 17.586 3.28418 16.4263 3.28418Z" stroke="black" stroke-width="1.5" stroke-linecap="round" stroke-linejoin="round"/>
<path d="M18.3047 5.8422L19.9694 4.48007C20.2389 4.25921 20.6368 4.29813 20.8577 4.56763C20.9501 4.6805 21.0007 4.82255 21.0007 4.96849L20.9939 7.78614C20.9939 8.13446 20.7108 8.41661 20.3625 8.41564C20.2165 8.41564 20.0755 8.36505 19.9626 8.27262L18.3047 6.91049" stroke="black" stroke-width="1.5" stroke-linecap="round" stroke-linejoin="round"/>
<path d="M7.05469 20.7148H16.9427" stroke="black" stroke-width="1.5" stroke-linecap="round" stroke-linejoin="round"/>
<path opacity="0.4" d="M9.88337 16.7979L9.24609 20.7149" stroke="black" stroke-width="1.5" stroke-linecap="round" stroke-linejoin="round"/>
<path opacity="0.4" d="M14.1152 16.7979L14.7525 20.7149" stroke="black" stroke-width="1.5" stroke-linecap="round" stroke-linejoin="round"/>
</svg>
