<svg width="25" height="24" viewBox="0 0 25 24" fill="none" xmlns="http://www.w3.org/2000/svg">
<path d="M9.85693 14.4519L14.7542 9.55469" stroke="black" stroke-width="1.5" stroke-linecap="round" stroke-linejoin="round"/>
<path d="M14.6342 14.3732V14.4213M14.8291 14.3836C14.8291 14.4918 14.7413 14.5796 14.633 14.5796C14.5247 14.5796 14.437 14.4918 14.437 14.3836C14.437 14.2753 14.5247 14.1875 14.633 14.1875C14.7413 14.1875 14.8291 14.2753 14.8291 14.3836Z" stroke="black" stroke-width="1.5" stroke-linecap="round" stroke-linejoin="round"/>
<path d="M9.8681 9.60759V9.65569M10.063 9.61793C10.063 9.7262 9.97518 9.81398 9.8669 9.81398C9.75863 9.81398 9.6709 9.7262 9.6709 9.61793C9.6709 9.50965 9.75863 9.42188 9.8669 9.42188C9.97518 9.42188 10.063 9.50965 10.063 9.61793Z" stroke="black" stroke-width="1.5" stroke-linecap="round" stroke-linejoin="round"/>
<path d="M19.5478 12.0005V7.407C19.5478 6.32501 19.5478 5.78299 19.4198 5.342C19.1103 4.274 18.2748 3.439 17.2065 3.13C16.7646 3.003 16.2233 3.003 15.1407 3.004L15.1153 3.00411C14.9007 3.00502 14.7909 3.00548 14.7246 3.018C14.4829 3.066 14.4596 3.08 14.3047 3.272C14.2605 3.327 14.152 3.532 13.9352 3.943C13.6155 4.549 12.9923 4.96 12.2517 4.959H12.1939C11.5008 4.935 10.9073 4.541 10.5967 3.974C10.3557 3.53436 10.2349 3.31397 10.1907 3.25999C10.0291 3.06599 10.0221 3.061 9.77368 3.013C9.70578 3 9.58838 3 9.35338 3C8.27388 3 7.73408 3 7.29338 3.127C6.22468 3.436 5.38908 4.272 5.08028 5.341C4.95288 5.78099 4.95288 6.32099 4.95288 7.40098V16.594C4.95288 17.678 4.95288 18.22 5.08138 18.663C5.39078 19.729 6.22418 20.562 7.29008 20.871C7.73258 21 8.27478 21 9.35908 20.999C9.59168 20.999 9.70788 20.999 9.77708 20.986C10.019 20.938 10.042 20.924 10.1971 20.732C10.2414 20.677 10.3503 20.471 10.5679 20.058C10.8878 19.45 11.5122 19.039 12.2534 19.039C12.995 19.039 13.616 19.451 13.9339 20.058L13.9543 20.0969C14.1569 20.4831 14.2596 20.6788 14.3026 20.732C14.4573 20.924 14.4813 20.938 14.7231 20.986C14.7925 21 14.9089 21 15.1417 21C16.2264 21 16.7688 21 17.2115 20.872C18.2768 20.562 19.1098 19.729 19.4192 18.664C19.5478 18.221 19.5478 17.679 19.5478 16.594V16.0271" stroke="black" stroke-width="1.5" stroke-linecap="round" stroke-linejoin="round"/>
</svg>