<svg width="25" height="24" viewBox="0 0 25 24" fill="none" xmlns="http://www.w3.org/2000/svg">
<path d="M18.4275 8.88823L20.0713 7.25781" stroke="black" stroke-width="1.5" stroke-linecap="round" stroke-linejoin="round"/>
<path d="M18.4275 15.1157L20.0713 16.7461" stroke="black" stroke-width="1.5" stroke-linecap="round" stroke-linejoin="round"/>
<path d="M7.15291 8.88823L5.50916 7.25781" stroke="black" stroke-width="1.5" stroke-linecap="round" stroke-linejoin="round"/>
<path d="M7.15291 15.1157L5.50916 16.7461" stroke="black" stroke-width="1.5" stroke-linecap="round" stroke-linejoin="round"/>
<path d="M10.4118 5.85094C9.66141 5.80469 8.91204 5.7368 8.16461 5.64726C7.90593 5.61627 7.64663 5.5817 7.12815 5.51256L6.56993 5.43814C6.2653 5.39752 5.99461 5.63451 5.99461 5.94184V6.07875C5.99461 7.01348 5.23686 7.77123 4.30213 7.77123H4.23077C3.96802 7.77123 3.77224 8.01361 3.8275 8.27048C4.35639 10.7291 4.35639 13.2722 3.8275 15.7308C3.77224 15.9877 3.96802 16.2301 4.23077 16.2301H4.30213C5.23686 16.2301 5.99461 16.9878 5.99461 17.9225V18.0595C5.99461 18.3668 6.2653 18.6038 6.56993 18.5632L7.12815 18.4887C7.64667 18.4196 7.90593 18.385 8.16461 18.354C11.2559 17.9837 14.3803 17.9837 17.4716 18.354C17.7303 18.385 17.9896 18.4196 18.5081 18.4887L19.0663 18.5632C19.3709 18.6038 19.6416 18.3668 19.6416 18.0595V17.9225C19.6416 16.9878 20.3994 16.2301 21.3341 16.2301H21.4055C21.6682 16.2301 21.864 15.9877 21.8087 15.7308C21.2798 13.2722 21.2798 10.7291 21.8087 8.27048C21.864 8.01361 21.6682 7.77123 21.4055 7.77123H21.3341C20.3994 7.77123 19.6416 7.01348 19.6416 6.07875V5.94184C19.6416 5.63451 19.3709 5.39752 19.0663 5.43814L18.5081 5.51256C17.9896 5.5817 17.7303 5.61627 17.4716 5.64726C16.1262 5.80844 14.7745 5.89947 13.422 5.92035" stroke="black" stroke-width="1.5" stroke-linecap="round" stroke-linejoin="round"/>
<path d="M13.0284 14.3613L14.3633 15.0533C14.4493 15.0993 14.5484 15.1163 14.6454 15.1003C14.8894 15.0613 15.0563 14.8313 15.0173 14.5863L14.7613 13.1203C14.7353 12.9753 14.7844 12.8283 14.8904 12.7273L15.9714 11.6893C16.0434 11.6193 16.0894 11.5273 16.1024 11.4283C16.1344 11.1863 15.9643 10.9633 15.7223 10.9313L14.2274 10.7163C14.0824 10.6963 13.9553 10.6053 13.8893 10.4743L13.2214 9.1393C13.1784 9.0563 13.1103 8.9883 13.0273 8.9453C12.8053 8.8303 12.5324 8.9173 12.4174 9.1393L11.7483 10.4743C11.6813 10.6063 11.5544 10.6963 11.4094 10.7173L9.91436 10.9323C9.81536 10.9453 9.72338 10.9913 9.65338 11.0633C9.48438 11.2403 9.48934 11.5193 9.66534 11.6893L10.7474 12.7273C10.8534 12.8283 10.9023 12.9763 10.8763 13.1203L10.6213 14.5863" stroke="black" stroke-width="1.5" stroke-linecap="round" stroke-linejoin="round"/>
</svg>