<svg width="25" height="24" viewBox="0 0 25 24" fill="none" xmlns="http://www.w3.org/2000/svg">
<path d="M8.03784 16.8105V16.8205" stroke="black" stroke-width="1.5" stroke-linecap="round" stroke-linejoin="round"/>
<path d="M8.03784 13.5996V13.6096" stroke="black" stroke-width="1.5" stroke-linecap="round" stroke-linejoin="round"/>
<path d="M8.03784 10.3906V10.4006" stroke="black" stroke-width="1.5" stroke-linecap="round" stroke-linejoin="round"/>
<path d="M8.03784 7.17969V7.18969" stroke="black" stroke-width="1.5" stroke-linecap="round" stroke-linejoin="round"/>
<path d="M10.9434 11.7353L11.8632 12.6182C11.9533 12.7042 11.9946 12.8294 11.9732 12.9521L11.7557 14.1988C11.7423 14.2808 11.7563 14.3646 11.7952 14.4383C11.8939 14.6243 12.1247 14.6951 12.3108 14.5964L13.4466 14.0077C13.5584 13.9499 13.691 13.9499 13.8029 14.0077L14.938 14.5961C15.0113 14.6349 15.0952 14.6489 15.1772 14.6358C15.3853 14.6023 15.527 14.4066 15.4934 14.1984L15.276 12.9521C15.2542 12.8291 15.2955 12.7039 15.3859 12.6179L16.3048 11.735C16.366 11.676 16.4055 11.5977 16.4167 11.5135C16.4437 11.3076 16.2989 11.1184 16.093 11.0913L14.8224 10.9084C14.6985 10.891 14.5907 10.8139 14.5344 10.7021L13.9666 9.5673C13.9299 9.49648 13.8725 9.43901 13.8019 9.40266C13.6131 9.30481 13.3807 9.37843 13.2828 9.5673L12.714 10.7024" stroke="black" stroke-width="1.5" stroke-linecap="round" stroke-linejoin="round"/>
<path d="M12.2505 19.2961H7.657C6.575 19.2961 6.033 19.2961 5.592 19.1681C4.524 18.8586 3.689 18.0231 3.38 16.9548C3.253 16.5129 3.253 15.9716 3.254 14.889L3.25411 14.8636C3.25502 14.649 3.25548 14.5392 3.268 14.4729C3.316 14.2312 3.33 14.2079 3.522 14.053C3.577 14.0088 3.782 13.9003 4.193 13.6835C4.799 13.3638 5.21 12.7406 5.209 12V11.9422C5.185 11.2491 4.791 10.6556 4.224 10.345C3.78433 10.104 3.56397 9.98315 3.50999 9.93897C3.31599 9.77737 3.311 9.77037 3.263 9.52197C3.25 9.45407 3.25 9.33667 3.25 9.10167C3.25 8.02217 3.25 7.48237 3.377 7.04167C3.686 5.97297 4.522 5.13737 5.591 4.82857C6.03099 4.70117 6.57099 4.70117 7.65098 4.70117H16.844C17.928 4.70117 18.47 4.70117 18.913 4.82967C19.979 5.13907 20.812 5.97247 21.121 7.03837C21.25 7.48087 21.25 8.02307 21.249 9.10737C21.249 9.33997 21.249 9.45617 21.236 9.52537C21.188 9.76727 21.174 9.79027 20.982 9.94537C20.927 9.98967 20.721 10.0986 20.308 10.3162C19.7 10.6361 19.289 11.2605 19.289 12.0017C19.289 12.7433 19.701 13.3643 20.308 13.6822L20.3469 13.7026C20.7331 13.9052 20.9288 14.0079 20.982 14.0509C21.174 14.2056 21.188 14.2296 21.236 14.4714C21.25 14.5408 21.25 14.6572 21.25 14.89C21.25 15.9747 21.25 16.5171 21.122 16.9598C20.812 18.0251 19.979 18.8581 18.914 19.1675C18.471 19.2961 17.929 19.2961 16.844 19.2961H15.6401" stroke="black" stroke-width="1.5" stroke-linecap="round" stroke-linejoin="round"/>
</svg>