<svg width="25" height="24" viewBox="0 0 25 24" fill="none" xmlns="http://www.w3.org/2000/svg">
<path d="M10.2933 4.46129C11.2565 3.50001 12.4192 3.00964 13.7833 3.00866C15.162 3.00769 18.4943 3.00088 18.7784 3.0505C20.1639 3.28888 21.2313 4.55469 21.2342 5.96645C21.2361 6.73995 21.2848 10.0967 21.2011 10.9996C21.097 12.1292 20.628 13.0953 19.8331 13.8951C17.7782 15.9616 15.7146 18.0194 13.651 20.0772C12.4406 21.2847 10.5842 21.3002 9.3719 20.0986C7.62155 18.3639 5.87801 16.6213 4.14323 14.87C2.94065 13.6567 2.95719 11.8003 4.16366 10.5909C5.21245 9.54012 6.26176 8.48985 7.31157 7.44008" stroke="black" stroke-width="1.5" stroke-linecap="round" stroke-linejoin="round"/>
<path d="M15.9533 9.90025C15.0747 9.9022 14.3479 9.18708 14.344 8.31725C14.3401 7.43284 15.0513 6.7002 15.9153 6.69728C16.826 6.69339 17.5421 7.39878 17.548 8.30363" stroke="black" stroke-width="1.5" stroke-linecap="round" stroke-linejoin="round"/>
<path d="M8.29712 13.3711L10.8735 15.9475" stroke="black" stroke-width="1.5" stroke-linecap="round" stroke-linejoin="round"/>
</svg>