<svg width="25" height="24" viewBox="0 0 25 24" fill="none" xmlns="http://www.w3.org/2000/svg">
<path d="M19.2259 13.746C19.226 12.4116 19.2248 11.0772 19.2209 9.74279C19.2177 8.57089 18.8512 7.51575 18.0977 6.60872C17.4955 5.88439 14.9928 3.45303 14.4231 2.88546C13.3831 1.84979 11.6685 1.70384 10.475 2.54708C10.2322 2.7182 7.83738 5.12071 6.80636 6.15504L6.77333 6.18818C5.77116 7.19143 5.27711 8.40657 5.27494 9.82063C5.27278 12.8239 5.27278 15.8271 5.27603 18.8304C5.27711 20.6066 6.62954 21.9828 8.40469 21.9915C10.9669 22.0034 13.5301 22.0023 16.0923 21.9915C17.8653 21.9839 19.2188 20.6077 19.2209 18.8304C19.222 18.083 19.2231 18.0855 19.2239 17.3381" stroke="black" stroke-width="1.5" stroke-linecap="round" stroke-linejoin="round"/>
<path d="M11.0865 9.67551C11.7286 10.3123 12.7881 10.3036 13.4324 9.65605C14.0724 9.01281 14.0724 7.9447 13.4313 7.3101C12.7621 6.64956 11.7178 6.65821 11.0508 7.32956" stroke="black" stroke-width="1.5" stroke-linecap="round" stroke-linejoin="round"/>
</svg>