<svg width="25" height="24" viewBox="0 0 25 24" fill="none" xmlns="http://www.w3.org/2000/svg">
<path d="M22.1181 7.80933C22.2359 6.80756 22.2948 6.30667 22.2241 5.88386C22.054 4.86645 21.3753 4.00676 20.425 3.60532C20.0302 3.4385 19.5293 3.3796 18.5275 3.2618L17.1316 3.09766L17.6259 4.86387L16.7354 6.46725L17.2297 8.23346L16.3391 9.83684L16.8334 11.603L16.1978 12.5993" stroke="black" stroke-width="1.5" stroke-linecap="round" stroke-linejoin="round"/>
<path d="M17.8057 16.8378C18.2747 16.8838 18.5879 16.8936 18.867 16.847C19.8849 16.677 20.7449 15.9978 21.1462 15.0471C21.3129 14.6523 21.3717 14.1516 21.4893 13.1502C21.5786 12.3892 21.6681 11.6293 21.7579 10.8672" stroke="black" stroke-width="1.5" stroke-linecap="round" stroke-linejoin="round"/>
<path d="M7.18116 6.77609L9.51124 5.55859L10.904 6.75189L11.0552 8.57972L12.448 9.77302L12.5992 11.6009L13.992 12.7942L14.1432 14.622L15.536 15.8153L15.6872 17.6431L11.0216 20.0809C10.1278 20.5377 9.68085 20.7661 9.26204 20.8471C8.24644 21.0437 7.20103 20.7054 6.49306 19.9512C6.20111 19.6402 5.97269 19.1932 5.51589 18.2994C5.41648 18.1049 5.36678 18.0076 5.34895 17.9458C5.28373 17.7198 5.28421 17.7122 5.37704 17.496C5.40243 17.4369 5.53371 17.2439 5.79626 16.8578C6.13436 16.3607 6.209 15.7028 5.93588 15.1186L5.91143 15.0707C5.59854 14.4573 4.99507 14.1149 4.3579 14.1066C3.92585 14.101 3.70976 14.0982 3.64582 14.0848C3.42164 14.0375 3.40009 14.0242 3.25817 13.8443C3.2177 13.793 3.16863 13.6973 3.0705 13.5057C2.61153 12.6098 2.38204 12.1618 2.30068 11.7419C2.10399 10.7269 2.44156 9.68186 3.19491 8.97368C3.44326 8.74022 3.77835 8.54734 4.3579 8.24676" stroke="black" stroke-width="1.5" stroke-linecap="round" stroke-linejoin="round"/>
</svg>