<svg width="25" height="24" viewBox="0 0 25 24" fill="none" xmlns="http://www.w3.org/2000/svg">
<path d="M13.5789 19.488C12.9267 20.1402 12.6006 20.4664 12.2574 20.6557C11.4251 21.1148 10.4155 21.1148 9.58322 20.6557C9.24 20.4664 8.91389 20.1402 8.26168 19.488C8.11979 19.3461 8.04879 19.2751 8.01572 19.2262C7.89477 19.047 7.89304 19.0402 7.91305 18.825C7.91853 18.7661 7.97869 18.5602 8.09901 18.1485C8.25396 17.6182 8.13311 17.022 7.72908 16.5885L7.69417 16.5536C7.2471 16.1058 6.62266 15.9771 6.06329 16.1501C5.684 16.2675 5.49429 16.3261 5.43458 16.3325C5.22524 16.3546 5.20262 16.349 5.02768 16.2319C4.97779 16.1985 4.90774 16.1286 4.76782 15.989C4.11315 15.3356 3.78579 15.0089 3.59589 14.6648C3.1368 13.833 3.1363 12.8239 3.59458 11.9917C3.78415 11.6475 4.11118 11.3205 4.76522 10.6664L10.9163 4.51534C11.5717 3.85998 11.8993 3.53229 12.2445 3.34251C13.0751 2.88583 14.0815 2.88583 14.9121 3.34251C15.2573 3.53229 15.585 3.85999 16.2403 4.51534C16.381 4.65599 16.4513 4.72631 16.4849 4.77654C16.602 4.95162 16.6077 4.97488 16.5852 5.1843C16.5788 5.24439 16.5194 5.43443 16.4006 5.8144C16.226 6.37319 16.3527 6.99682 16.8007 7.44486C17.2482 7.89306 17.874 8.02175 18.4341 7.84811C18.8153 7.72998 19.0058 7.67091 19.0658 7.66458C19.2753 7.64244 19.2976 7.64795 19.4726 7.76515C19.5227 7.79868 19.593 7.86891 19.7335 8.00937C20.3887 8.66436 20.7163 8.99188 20.9061 9.33683C21.3632 10.1676 21.3633 11.1746 20.9063 12.0054C20.7166 12.3504 20.389 12.678 19.7339 13.3331L16.2667 16.8002" stroke="black" stroke-width="1.5" stroke-linecap="round" stroke-linejoin="round"/>
<path d="M11.3676 7.19771L11.3613 7.19141" stroke="black" stroke-width="1.5" stroke-linecap="round" stroke-linejoin="round"/>
<path d="M13.2649 9.0942L13.2585 9.08789" stroke="black" stroke-width="1.5" stroke-linecap="round" stroke-linejoin="round"/>
<path d="M15.1621 10.9907L15.1558 10.9844" stroke="black" stroke-width="1.5" stroke-linecap="round" stroke-linejoin="round"/>
<path d="M17.0595 12.8891L17.0532 12.8828" stroke="black" stroke-width="1.5" stroke-linecap="round" stroke-linejoin="round"/>
</svg>