<svg width="25" height="24" viewBox="0 0 25 24" fill="none" xmlns="http://www.w3.org/2000/svg">
<path d="M13.5787 19.488C12.9265 20.1402 12.6004 20.4664 12.2572 20.6557C11.4249 21.1148 10.4153 21.1148 9.58298 20.6557C9.23975 20.4664 8.91365 20.1402 8.26144 19.488C8.11954 19.3461 8.04855 19.2751 8.01548 19.2262C7.89453 19.047 7.8928 19.0402 7.91281 18.825C7.91828 18.7661 7.97844 18.5602 8.09877 18.1485C8.25371 17.6182 8.13287 17.022 7.72884 16.5885L7.69392 16.5536C7.24685 16.1058 6.62241 15.9771 6.06305 16.1501C5.68376 16.2675 5.49404 16.3261 5.43434 16.3325C5.225 16.3546 5.20238 16.349 5.02744 16.2319C4.97754 16.1985 4.90755 16.1287 4.76758 15.989C4.1129 15.3356 3.78554 15.0089 3.59564 14.6648C3.13655 13.833 3.13606 12.8239 3.59434 11.9917C3.78391 11.6475 4.11093 11.3205 4.76498 10.6664L10.916 4.51534C11.5714 3.85998 11.8991 3.53229 12.2443 3.34251C13.0748 2.88583 14.0813 2.88583 14.9119 3.34251C15.257 3.53229 15.5847 3.85999 16.2401 4.51534C16.3807 4.65599 16.451 4.72631 16.4846 4.77654C16.6017 4.95162 16.6075 4.97488 16.585 5.1843C16.5785 5.24439 16.5191 5.43443 16.4004 5.8144C16.2258 6.37319 16.3525 6.99682 16.8005 7.44486C17.248 7.89306 17.8737 8.02175 18.4339 7.84811C18.815 7.72998 19.0056 7.67091 19.0655 7.66458C19.275 7.64244 19.2973 7.64795 19.4724 7.76515C19.5225 7.79868 19.5927 7.86891 19.7332 8.00937C20.3884 8.66436 20.7161 8.99188 20.9059 9.33683C21.363 10.1676 21.363 11.1746 20.9061 12.0054C20.7163 12.3504 20.3888 12.678 19.7337 13.3331L16.2665 16.8002" stroke="black" stroke-width="1.5" stroke-linecap="round" stroke-linejoin="round"/>
</svg>