<svg width="25" height="24" viewBox="0 0 25 24" fill="none" xmlns="http://www.w3.org/2000/svg">
<path d="M12.8181 18.569H17.8654C18.8058 18.569 19.5681 17.8066 19.5681 16.8662V16.828C19.5681 16.473 19.8559 16.1851 20.211 16.1851C21.0986 16.1851 21.8181 15.4656 21.8181 14.578V9.42459C21.8181 8.53699 21.0986 7.81744 20.211 7.81744C19.8559 7.81744 19.5681 7.52963 19.5681 7.17459V7.13634C19.5681 6.19594 18.8058 5.43359 17.8654 5.43359H7.77086C6.83046 5.43359 6.06812 6.19594 6.06812 7.13634V7.17459C6.06812 7.52963 5.7803 7.81744 5.42526 7.81744C4.53766 7.81744 3.81812 8.53698 3.81812 9.42458V14.578C3.81812 15.4656 4.53766 16.1851 5.42526 16.1851C5.7803 16.1851 6.06812 16.473 6.06812 16.828V16.8662C6.06812 17.8066 6.83046 18.569 7.77086 18.569H8.71378" stroke="black" stroke-width="1.5" stroke-linecap="round" stroke-linejoin="round"/>
<path d="M8.01147 13.918L12.386 13.918" stroke="black" stroke-width="1.5" stroke-linecap="round" stroke-linejoin="round"/>
<path d="M10.199 10.082L12.3862 10.082" stroke="black" stroke-width="1.5" stroke-linecap="round" stroke-linejoin="round"/>
<path d="M15.9353 10.5391L15.9353 13.4928" stroke="black" stroke-width="1.5" stroke-linecap="round" stroke-linejoin="round"/>
<path d="M15.9353 5.43359L15.9353 7.93337" stroke="black" stroke-width="1.5" stroke-linecap="round" stroke-linejoin="round"/>
<path d="M15.9353 16.0684L15.9353 18.5681" stroke="black" stroke-width="1.5" stroke-linecap="round" stroke-linejoin="round"/>
</svg>