<svg width="25" height="24" viewBox="0 0 25 24" fill="none" xmlns="http://www.w3.org/2000/svg">
<path d="M14.6618 19.1119C14.4287 19.1119 14.1216 19.0637 13.8135 18.9394C13.0812 18.6077 12.5718 17.8702 12.5718 17.0147C12.5718 15.6908 13.5064 14.9133 14.6639 14.9031C14.6639 14.0701 15.3171 12.4053 17.1617 12.4053C19.0052 12.4053 19.6585 14.0701 19.6585 14.9031C20.8159 14.9133 21.7506 15.6908 21.7506 17.0147C21.7506 17.8702 21.2432 18.6097 20.5099 18.9414C20.1977 19.0657 19.8895 19.1119 19.6564 19.1119H17.5568" stroke="black" stroke-width="1.5" stroke-linecap="round" stroke-linejoin="round"/>
<path d="M12.8954 11.1446C12.6972 11.1107 12.4949 11.0942 12.2915 11.0942C11.3343 11.0942 10.4161 11.4742 9.73926 12.1511C9.06243 12.8289 8.6814 13.7461 8.6814 14.7033V16.7492" stroke="black" stroke-width="1.5" stroke-linecap="round" stroke-linejoin="round"/>
<path d="M5.74146 16.7482V14.5215C5.74146 12.7848 6.43164 11.1189 7.65999 9.89055C8.11931 9.43162 8.63965 9.04779 9.20197 8.74707" stroke="black" stroke-width="1.5" stroke-linecap="round" stroke-linejoin="round"/>
<path d="M16.0788 9.17945C14.9789 8.39991 13.657 7.97266 12.29 7.97266" stroke="black" stroke-width="1.5" stroke-linecap="round" stroke-linejoin="round"/>
<path d="M18.3694 7.07527C16.6665 5.66718 14.519 4.88867 12.2913 4.88867C9.76062 4.88867 7.33368 5.89416 5.54456 7.68329" stroke="black" stroke-width="1.5" stroke-linecap="round" stroke-linejoin="round"/>
<path d="M2.75 16.7481V14.431C2.75 12.8657 3.1347 11.34 3.8516 9.98047" stroke="black" stroke-width="1.5" stroke-linecap="round" stroke-linejoin="round"/>
</svg>