<svg width="25" height="24" viewBox="0 0 25 24" fill="none" xmlns="http://www.w3.org/2000/svg">
<path fill-rule="evenodd" clip-rule="evenodd" d="M15.6491 14.2988C17.2818 14.2988 18.6034 15.6223 18.6034 17.254C18.6034 18.8868 17.2818 20.21 15.6491 20.21C14.0163 20.21 12.6934 18.8868 12.6934 17.254C12.6934 15.6223 14.0163 14.2988 15.6491 14.2988Z" stroke="black" stroke-width="1.5" stroke-linecap="round" stroke-linejoin="round"/>
<path fill-rule="evenodd" clip-rule="evenodd" d="M9.0807 3.78906C10.7135 3.78906 12.0368 5.11239 12.0368 6.74514C12.0368 8.37692 10.7135 9.70025 9.0807 9.70025C7.44795 9.70025 6.125 8.377 6.125 6.74523C6.125 5.11247 7.44795 3.78906 9.0807 3.78906Z" stroke="black" stroke-width="1.5" stroke-linecap="round" stroke-linejoin="round"/>
<path d="M3.23047 6.74609H6.12525M14.9776 6.74609H21.2305" stroke="black" stroke-width="1.5" stroke-linecap="round" stroke-linejoin="round"/>
<path d="M3.23047 17.2539L9.58409 17.2539M18.6033 17.2539H21.2305" stroke="black" stroke-width="1.5" stroke-linecap="round" stroke-linejoin="round"/>
</svg>