<svg width="25" height="24" viewBox="0 0 25 24" fill="none" xmlns="http://www.w3.org/2000/svg">
<path d="M10.2952 20.7364L11.3937 19.9133C11.6331 19.7333 11.9259 19.6496 12.2256 19.6506H12.2354C12.535 19.6496 12.8279 19.7333 13.0673 19.9133L14.1648 20.7364C14.5258 21.0069 14.9986 21.0711 15.4228 20.9193C15.7138 20.8152 15.9998 20.6965 16.2791 20.5652C16.6867 20.3716 16.9757 19.9931 17.0399 19.5465L17.2355 18.1785C17.2764 17.8953 17.4087 17.6336 17.6111 17.4302C17.6257 17.4147 17.6403 17.4001 17.6549 17.3855C17.8582 17.1792 18.1219 17.0459 18.4079 17.005L19.7769 16.8095C20.2226 16.7453 20.602 16.4563 20.7947 16.0486C20.927 15.7703 21.0457 15.4843 21.1498 15.1933C21.3016 14.7691 21.2383 14.2963 20.9669 13.9353L20.1379 12.829C19.9667 12.6004 19.8752 12.3221 19.8742 12.036C19.8742 12.0146 19.8742 11.9932 19.8733 11.9728C19.8713 11.6828 19.9637 11.4016 20.1379 11.1701L20.9669 10.0648C21.2374 9.70379 21.3016 9.23189 21.1498 8.8067C21.0457 8.51578 20.927 8.23069 20.7956 7.95145C20.602 7.54377 20.2235 7.25382 19.7769 7.19058L18.4167 6.99598C18.1209 6.95317 17.8543 6.80625 17.6432 6.59414L17.6364 6.58733C17.4243 6.37522 17.2754 6.10862 17.2336 5.81186L17.0399 4.45358C16.9757 4.00795 16.6867 3.62849 16.2791 3.43487C15.9998 3.30352 15.7147 3.18481 15.4238 3.0807C14.9996 2.92892 14.5267 2.99216 14.1657 3.26265L13.0663 4.08676C12.8269 4.26677 12.535 4.35044 12.2363 4.35044H12.2247C11.9259 4.35044 11.6331 4.26677 11.3947 4.08676L10.2952 3.26265C9.93425 2.99216 9.46236 2.92892 9.03717 3.0807C8.74624 3.18481 8.46116 3.30254 8.18192 3.43487C7.77424 3.62752 7.48429 4.00698 7.42104 4.45358L7.22645 5.81283C7.18364 6.10959 7.03574 6.37522 6.82461 6.58733C6.82266 6.58927 6.81974 6.59122 6.8178 6.59414C6.60569 6.80625 6.33909 6.95414 6.04233 6.99695L4.68405 7.19058C4.23745 7.25382 3.85896 7.54279 3.66534 7.95047C3.53301 8.22972 3.41528 8.51578 3.31117 8.80572C3.15939 9.23092 3.22263 9.70379 3.49312 10.0648L4.3221 11.1701C4.49432 11.3987 4.5848 11.678 4.58578 11.964C4.58578 11.9854 4.58578 12.0068 4.58675 12.0282C4.5887 12.3172 4.49626 12.5974 4.32307 12.829L3.49312 13.9353" stroke="black" stroke-width="1.5" stroke-linecap="round" stroke-linejoin="round"/>
<path d="M10.5957 15.9328C12.0497 16.4884 13.7576 16.1678 14.9099 14.9799C16.0662 13.7879 16.3345 12.0631 15.7235 10.6308L13.7562 12.659C13.5785 12.8415 13.3217 12.9242 13.071 12.8789L12.1252 12.7066C11.8212 12.6513 11.5801 12.418 11.515 12.1159L11.3123 11.1724C11.2582 10.9226 11.333 10.6628 11.5107 10.4797L13.4775 8.45207C12.0233 7.88901 10.3114 8.20567 9.15512 9.39766C8.00281 10.5856 7.73435 12.3025 8.33747 13.7429L4.88131 17.2373C4.26075 17.8776 4.2908 18.914 4.97249 19.5145C5.6131 20.0791 6.6061 19.9772 7.20081 19.3647L10.5957 15.9328Z" stroke="black" stroke-width="1.5" stroke-linecap="round" stroke-linejoin="round"/>
</svg>