<svg width="25" height="24" viewBox="0 0 25 24" fill="none" xmlns="http://www.w3.org/2000/svg">
<path d="M16.3059 9.2791L16.6221 9.82883V9.83273C16.8868 10.2959 16.7272 10.8865 16.266 11.155C16.1172 11.2396 15.9946 11.3632 15.9099 11.5111C15.908 11.514 15.906 11.5169 15.905 11.5199C15.6404 11.984 15.8019 12.5746 16.266 12.8382L16.2748 12.8441C16.736 13.1126 16.8916 13.7052 16.6221 14.1663L16.2865 14.7258C16.0179 15.1899 15.4244 15.3485 14.9593 15.0819C14.8173 15.0002 14.6577 14.9554 14.4942 14.9515H14.4806C13.9465 14.9554 13.5174 15.3903 13.5203 15.9245C13.5174 16.4596 13.0825 16.8916 12.5473 16.8916H11.912C11.3739 16.8916 10.938 16.4558 10.938 15.9177C10.9371 15.7542 10.8913 15.5937 10.8086 15.4526C10.8067 15.4497 10.8047 15.4468 10.8038 15.4448C10.5362 14.9846 9.94559 14.828 9.48537 15.0965C9.48343 15.0975 9.48148 15.0985 9.47856 15.1004C9.00862 15.3592 8.41608 15.1889 8.15629 14.718L7.83521 14.1634L7.83327 14.1605C7.56764 13.6974 7.72819 13.1068 8.19132 12.8412C8.49294 12.667 8.67781 12.3459 8.67781 11.9976C8.67781 11.6502 8.49294 11.3292 8.19132 11.155C7.72721 10.8865 7.56764 10.2929 7.83521 9.82786L8.17478 9.2684C8.44332 8.80429 9.03683 8.64473 9.50191 8.91229C9.643 8.99597 9.80354 9.04073 9.96797 9.04267C10.5012 9.04365 10.9361 8.61554 10.9429 8.08235V8.07554C10.9429 7.54137 11.3759 7.10938 11.91 7.10938H12.5794C13.1165 7.12689 13.5378 7.5764 13.5203 8.11348C13.5222 8.27694 13.567 8.43748 13.6507 8.57856C13.6526 8.58051 13.6526 8.58246 13.6546 8.5844C13.926 9.04364 14.5195 9.19543 14.9788 8.923C15.4429 8.65543 16.0374 8.815 16.3059 9.2791Z" stroke="black" stroke-width="1.5" stroke-linecap="round" stroke-linejoin="round"/>
<path d="M12.1732 11.9462V11.9694M12.2321 11.7109C12.2893 11.7112 12.3452 11.7283 12.3927 11.7603C12.4402 11.7922 12.4771 11.8376 12.4989 11.8905C12.5206 11.9434 12.5262 12.0016 12.5149 12.0577C12.5036 12.1138 12.4759 12.1653 12.4354 12.2057C12.3948 12.2461 12.3432 12.2736 12.2871 12.2847C12.231 12.2957 12.1728 12.2899 12.1199 12.268C12.0671 12.246 12.0219 12.2089 11.9901 12.1613C11.9584 12.1137 11.9414 12.0578 11.9414 12.0005C11.9412 11.9624 11.9486 11.9245 11.9631 11.8892C11.9777 11.8539 11.9991 11.8219 12.0262 11.7949C12.0532 11.768 12.0854 11.7467 12.1207 11.7323C12.1561 11.7178 12.1939 11.7106 12.2321 11.7109Z" stroke="black" stroke-width="1.5" stroke-linecap="round" stroke-linejoin="round"/>
<path d="M12.2295 21H8.01263C5.06452 21 3.23047 18.9188 3.23047 15.9736V8.02638C3.23047 5.08119 5.07328 3 8.01263 3H16.4473C19.3954 3 21.2305 5.08119 21.2305 8.02638V15.9736C21.2305 18.9188 19.3954 21 16.4464 21H16.2668" stroke="black" stroke-width="1.5" stroke-linecap="round" stroke-linejoin="round"/>
</svg>