<svg width="25" height="24" viewBox="0 0 25 24" fill="none" xmlns="http://www.w3.org/2000/svg">
<path d="M11.5828 8.48782C11.2278 8.48782 10.9358 8.77682 10.9338 9.13382C10.9328 9.30782 10.9988 9.47182 11.1218 9.59582C11.2428 9.71882 11.4058 9.78782 11.5788 9.78882H11.5808C11.9248 9.78882 12.2043 9.52734 12.2316 9.19469C12.2302 9.17638 12.2296 9.15788 12.2296 9.13922C12.2296 9.1209 12.2302 9.10273 12.2315 9.08474C12.2039 8.75356 11.9261 8.49066 11.5868 8.48782H11.5828Z" fill="black"/>
<path d="M13.7282 14.8541C13.7292 14.4991 14.0192 14.2111 14.3802 14.2111H14.3832C14.7412 14.2131 15.0312 14.5071 15.0282 14.8661C15.0262 15.2231 14.7342 15.5111 14.3792 15.5111H14.3752C14.019 15.5081 13.7306 15.2185 13.7283 14.8642L13.7283 14.8609L13.7282 14.8564L13.7282 14.8541Z" fill="black"/>
<path fill-rule="evenodd" clip-rule="evenodd" d="M8.76247 21.5H17.1965C20.3565 21.5 22.4805 19.279 22.4805 15.974V8.026C22.4805 4.721 20.3575 2.5 17.1975 2.5H8.76247C5.60247 2.5 3.48047 4.721 3.48047 8.026V15.974C3.48047 19.279 5.60247 21.5 8.76247 21.5ZM11.5868 11.2888H11.5818C10.9948 11.2858 10.4568 11.0578 10.0528 10.6488C9.83603 10.4289 9.67222 10.1704 9.56772 9.88922H8.80457C8.39057 9.88922 8.05457 9.55322 8.05457 9.13922C8.05457 8.72522 8.39057 8.38922 8.80457 8.38922H9.57108C9.8834 7.57266 10.6905 6.9972 11.5978 6.98782C12.5145 6.99556 13.2954 7.57782 13.5987 8.38922H17.1536C17.5676 8.38922 17.9036 8.72522 17.9036 9.13922C17.9036 9.55322 17.5676 9.88922 17.1536 9.88922H13.5997C13.2955 10.7056 12.5075 11.2888 11.5868 11.2888ZM14.3642 17.0111H14.3782C15.2992 17.0111 16.089 16.4284 16.3939 15.6109H17.1543C17.5683 15.6109 17.9043 15.2749 17.9043 14.8609C17.9043 14.4469 17.5683 14.1109 17.1543 14.1109H16.3932C16.0896 13.2984 15.3069 12.7165 14.3812 12.7111H14.3732C13.4531 12.7111 12.6657 13.294 12.362 14.1109H8.80426C8.39026 14.1109 8.05426 14.4469 8.05426 14.8609C8.05426 15.2749 8.39026 15.6109 8.80426 15.6109H12.3636C12.6671 16.4215 13.4478 17.0034 14.3642 17.0111Z" fill="black"/>
</svg>