<svg width="25" height="24" viewBox="0 0 25 24" fill="none" xmlns="http://www.w3.org/2000/svg">
<path fill-rule="evenodd" clip-rule="evenodd" d="M16.0699 9.17498H9.89191C9.47791 9.17498 9.14191 8.83898 9.14191 8.42498C9.14191 8.01098 9.47791 7.67498 9.89191 7.67498H16.0699C16.4839 7.67498 16.8199 8.01098 16.8199 8.42498C16.8199 8.83898 16.4839 9.17498 16.0699 9.17498ZM18.6149 2.50098H7.34691C5.27391 2.50098 3.58691 4.18798 3.58691 6.26098V8.18198C3.58691 9.13398 3.93991 10.047 4.58091 10.751L8.60391 15.172C8.97591 15.58 9.18091 16.111 9.18091 16.665V19.312C9.18091 20.022 9.52791 20.691 10.1079 21.1C10.4819 21.363 10.9239 21.499 11.3699 21.499C11.6179 21.499 11.8659 21.458 12.1049 21.372L13.7959 20.769C14.9039 20.373 15.6489 19.316 15.6489 18.138V16.809C15.6489 16.196 15.9169 15.615 16.3829 15.216L21.0379 11.238C21.8869 10.511 22.3739 9.45398 22.3739 8.33698V6.26098C22.3739 4.18798 20.6879 2.50098 18.6149 2.50098Z" fill="black"/>
</svg>