<svg width="25" height="24" viewBox="0 0 25 24" fill="none" xmlns="http://www.w3.org/2000/svg">
<path fill-rule="evenodd" clip-rule="evenodd" d="M12.9806 21.4994C12.1886 21.4994 11.4016 21.4024 10.6426 21.2094C10.1946 21.0964 9.8436 20.7094 9.7246 20.2004C9.5846 19.5974 9.2146 19.0974 8.6806 18.7884C8.1936 18.5074 7.6246 18.4234 7.0746 18.5524C6.5686 18.6744 6.0656 18.5304 5.7636 18.1794C4.9866 17.2714 4.3966 16.2464 4.0086 15.1314C3.8366 14.6374 4.0206 14.0744 4.4786 13.6984C4.9886 13.2794 5.2806 12.6604 5.2806 11.9994C5.2806 11.3394 4.9886 10.7204 4.4786 10.3014C4.0206 9.92535 3.8366 9.36235 4.0086 8.86835C4.3966 7.75235 4.9876 6.72735 5.7636 5.82135C6.0646 5.46935 6.5686 5.32635 7.0766 5.44735C7.6236 5.57635 8.1936 5.49135 8.6806 5.21035C9.2146 4.90235 9.5846 4.40235 9.7236 3.80135C9.8436 3.28935 10.1946 2.90335 10.6436 2.78935C12.1596 2.40535 13.7986 2.40435 15.3186 2.78935C15.7676 2.90335 16.1186 3.29035 16.2366 3.80135C16.3756 4.40135 16.7466 4.90235 17.2806 5.21035C17.7686 5.49335 18.3376 5.57635 18.8856 5.44735C19.3916 5.32535 19.8956 5.46935 20.1966 5.82035C20.9716 6.72535 21.5616 7.75035 21.9516 8.86835C22.1246 9.36235 21.9396 9.92535 21.4816 10.3014C20.9726 10.7214 20.6806 11.3404 20.6806 11.9994C20.6806 12.6594 20.9726 13.2784 21.4826 13.6994C21.9396 14.0744 22.1246 14.6374 21.9526 15.1314C21.5616 16.2494 20.9716 17.2744 20.1976 18.1784C19.8956 18.5294 19.3946 18.6714 18.8836 18.5524C18.3356 18.4244 17.7676 18.5074 17.2806 18.7884C16.7466 19.0974 16.3756 19.5984 16.2366 20.1984C16.1186 20.7084 15.7676 21.0964 15.3176 21.2094C14.5596 21.4024 13.7716 21.4994 12.9806 21.4994ZM10.2816 12.0008C10.2816 10.5098 11.4906 9.30075 12.9816 9.30075C14.4726 9.30075 15.6816 10.5098 15.6816 12.0008C15.6816 13.4918 14.4726 14.7008 12.9816 14.7008C11.4906 14.7008 10.2816 13.4918 10.2816 12.0008Z" fill="black"/>
</svg>