<svg width="25" height="24" viewBox="0 0 25 24" fill="none" xmlns="http://www.w3.org/2000/svg">
<path d="M8.59452 20.9874C5.231 20.9874 3.25 19.0094 3.25 15.6546V8.34168C3.25 4.99079 4.48193 3.01367 7.83768 3.01367H9.71278C10.3861 3.01367 11.0195 3.33137 11.4237 3.86961L12.2796 5.00827C12.6848 5.54554 13.3182 5.86227 13.9915 5.86421H16.6448C20.0084 5.86421 21.25 7.57609 21.25 10.9989L21.2238 15.6546C21.2238 19.0094 19.2467 20.9874 15.8909 20.9874H12.2427" stroke="black" stroke-width="1.5" stroke-linecap="round" stroke-linejoin="round"/>
<path d="M3.31836 13.7109H21.0547" stroke="black" stroke-width="1.5" stroke-linecap="round" stroke-linejoin="round"/>
<path d="M12.3187 9.89725C10.2217 8.68657 8.27039 9.21097 7.05655 11.3134L5.73999 13.5937" stroke="black" stroke-width="1.5" stroke-linecap="round" stroke-linejoin="round"/>
<path d="M18.3872 13.6888C18.0139 13.2749 17.5089 12.8936 16.89 12.5363L14.6045 11.2168" stroke="black" stroke-width="1.5" stroke-linecap="round" stroke-linejoin="round"/>
</svg>