<svg width="25" height="24" viewBox="0 0 25 24" fill="none" xmlns="http://www.w3.org/2000/svg">
<path opacity="0.4" fill-rule="evenodd" clip-rule="evenodd" d="M21.9954 11.6242C21.0449 9.0564 17.6389 9.17812 15.286 8.95267L15.2193 4.60461C15.2055 3.68589 14.4572 2.94922 13.5385 2.94922C12.6102 2.94922 11.8577 3.70177 11.8577 4.63002V14.5433C11.8577 15.0387 11.3211 15.3488 10.8913 15.1011L9.65931 14.3888C8.51197 13.7262 7.05132 14.3687 6.76343 15.6621C6.60466 16.3776 6.85657 17.1206 7.43871 17.5652C8.45799 18.341 10.161 19.5561 11.7857 20.3319C14.3291 21.547 18.4115 21.2274 20.3336 19.3042C22.0113 17.6266 22.9533 14.2078 21.9954 11.6242Z" fill="black"/>
<path fill-rule="evenodd" clip-rule="evenodd" d="M5.4704 9.908H5.34128L8.29431 6.9539V7.13278C8.29431 7.57097 8.64995 7.92661 9.08814 7.92661C9.52633 7.92661 9.88197 7.57097 9.88197 7.13278V5.03601C9.88197 5.03178 9.87879 5.02755 9.87879 5.02226C9.87773 4.92382 9.85868 4.82644 9.82058 4.73436C9.74014 4.53961 9.58561 4.38402 9.39085 4.30358C9.3157 4.27288 9.23738 4.26441 9.15906 4.25701C9.13471 4.25489 9.11354 4.24219 9.08814 4.24219H7.03266C6.59446 4.24219 6.23883 4.59782 6.23883 5.03601C6.23883 5.47527 6.59446 5.82984 7.03266 5.82984H7.17237L4.20875 8.79558V8.64211C4.20875 8.20392 3.85311 7.84828 3.41492 7.84828C2.97673 7.84828 2.62109 8.20392 2.62109 8.64211V10.7018C2.62109 11.0373 2.83066 11.321 3.12597 11.4374C3.13126 11.4396 3.13867 11.4385 3.14502 11.4417C3.22969 11.4724 3.3186 11.4957 3.41492 11.4957H5.4704C5.9086 11.4957 6.26423 11.14 6.26423 10.7018C6.26423 10.2636 5.9086 9.908 5.4704 9.908Z" fill="black"/>
</svg>