<svg width="24" height="25" viewBox="0 0 24 25" fill="none" xmlns="http://www.w3.org/2000/svg">
<path d="M13.4772 3.14947C8.94135 2.23059 4.93457 5.67283 4.93457 10.0611C4.93457 12.8596 6.56298 15.2727 8.92181 16.4044L8.9189 17.3719C8.9163 18.478 9.8123 19.3782 10.9202 19.3782H13.0851C14.1882 19.3782 15.0828 18.4842 15.0854 17.381L15.0868 16.7503H12C11.5858 16.7503 11.25 16.4145 11.25 16.0003C11.25 15.5861 11.5858 15.2503 12 15.2503H16.7968C18.527 13.6485 19.4541 11.1781 18.9103 8.5589C18.348 5.86365 16.1729 3.7014 13.4782 3.14967L13.4772 3.14947Z" fill="black"/>
<path d="M9.96184 21.5003C9.96184 21.0861 10.2976 20.7503 10.7118 20.7503H13.2873C13.7015 20.7503 14.0373 21.0861 14.0373 21.5003C14.0373 21.9145 13.7015 22.2503 13.2873 22.2503H10.7118C10.2976 22.2503 9.96184 21.9145 9.96184 21.5003Z" fill="black"/>
</svg>