<svg width="25" height="25" viewBox="0 0 25 25" fill="none" xmlns="http://www.w3.org/2000/svg">
<path d="M7.59296 4.80885C7.8928 3.73992 8.86779 3 9.97849 3H14.0105C15.1193 3 16.0935 3.73599 16.3948 4.80302L18.4828 12.1898C18.8125 13.3562 17.9331 14.5144 16.7199 14.5091L16.63 14.5087V16.4799C16.63 16.8942 16.2942 17.2299 15.88 17.2299C15.4658 17.2299 15.13 16.8942 15.13 16.4799V14.502L12.7657 14.4915V20.75H16.1967C16.6109 20.75 16.9467 21.0858 16.9467 21.5C16.9467 21.9142 16.6109 22.25 16.1967 22.25H7.83304C7.41882 22.25 7.08304 21.9142 7.08304 21.5C7.08304 21.0858 7.41882 20.75 7.83304 20.75H11.2657V14.4849L7.28503 14.4672C6.08182 14.4605 5.21253 13.3109 5.53698 12.1512L7.59296 4.80885Z" fill="black"/>
</svg>