<svg width="24" height="25" viewBox="0 0 24 25" fill="none" xmlns="http://www.w3.org/2000/svg">
<path fill-rule="evenodd" clip-rule="evenodd" d="M4.68787 10.3075C4.68787 5.76551 8.8347 2.20376 13.529 3.1547C16.3172 3.7249 18.569 5.96393 19.1518 8.75325C19.7984 11.8684 18.4343 14.7802 16.1093 16.3582C16.0737 16.3529 16.0372 16.3503 16 16.3503H12.6993C12.8896 15.8329 12.988 15.3199 13.0287 14.8436C14.1053 14.5324 15.082 13.7532 15.382 12.4683C15.7761 10.7802 14.9186 9.27591 14.1262 8.29668C13.7171 7.79112 13.2902 7.3809 12.9675 7.09792C12.7853 6.93815 12.5984 6.78107 12.4011 6.63994L11.5293 6.63994C11.3318 6.78135 11.1455 6.93789 10.963 7.09792C10.6402 7.3809 10.2133 7.79112 9.8042 8.29668C9.01184 9.27591 8.15431 10.7802 8.54843 12.4683C8.91678 14.0461 10.2103 14.8369 11.5045 14.9773C11.4399 15.4307 11.303 15.9013 11.0555 16.3503H8.00005C7.96951 16.3503 7.9394 16.3521 7.90982 16.3556C5.96628 15.051 4.68787 12.8305 4.68787 10.3075ZM11.5293 6.63994C11.7901 6.45368 12.1404 6.45368 12.4011 6.63994L11.5293 6.63994Z" fill="black"/>
<path d="M12.9833 13.2638C12.9598 13.0868 12.9323 12.9276 12.905 12.7903C12.8707 12.6172 12.8362 12.4771 12.8096 12.3778C12.7963 12.3281 12.7848 12.2884 12.7763 12.2598L12.7657 12.2252L12.7623 12.2143L12.7611 12.2105L12.7602 12.2078C12.6317 11.814 12.2083 11.599 11.8145 11.7275C11.4208 11.856 11.2058 12.2792 11.3341 12.6729L11.339 12.6889C11.3437 12.7047 11.3513 12.7309 11.3608 12.7664C11.3798 12.8374 11.4065 12.9453 11.4338 13.0826C11.4558 13.1932 11.4779 13.3217 11.4968 13.4644C10.7665 13.3375 10.1843 12.8773 10.0092 12.1273C9.77723 11.1339 10.2629 10.1144 10.9703 9.24023C11.311 8.8191 11.6731 8.47021 11.9519 8.22576L11.9652 8.2141L11.9785 8.22576C12.2573 8.47021 12.6194 8.8191 12.9602 9.24023C13.6675 10.1144 14.1532 11.1339 13.9213 12.1273C13.8024 12.6363 13.4548 13.0309 12.9833 13.2638Z" fill="black"/>
<path d="M8.82581 17.8503V18.8198C8.82581 20.5701 10.2572 22.0003 12.0063 22.0003C13.7556 22.0003 15.1858 20.5698 15.1858 18.8198V17.8503H8.82581Z" fill="black"/>
</svg>