<svg width="24" height="25" viewBox="0 0 24 25" fill="none" xmlns="http://www.w3.org/2000/svg">
<path d="M10.9315 4.7594L10.9216 4.76934C8.84861 4.16706 6.51966 4.68308 4.88534 6.3174C4.69008 6.51267 4.69008 6.82925 4.88534 7.02451L12.8271 14.9663C12.9209 15.0601 13.0481 15.1128 13.1807 15.1128C13.3133 15.1128 13.4405 15.0601 13.5343 14.9663C14.3613 14.1393 14.902 13.1343 15.1563 12.0747C15.5499 10.0471 14.9615 7.86669 13.391 6.2962C12.6741 5.57929 11.8301 5.06703 10.9315 4.7594Z" fill="black"/>
<path d="M11.7998 3.89109C13 4.76934 14.9233 6.8467 15.9166 8.18892C17.272 10.0206 17.9491 12.3731 17.8342 14.6324C17.7097 17.0796 16.6634 19.353 14.6245 20.75H7.05569C6.64148 20.75 6.30569 21.0858 6.30569 21.5C6.30569 21.9142 6.64148 22.25 7.05569 22.25H14.8367C14.8463 22.2501 14.8559 22.2501 14.8655 22.25H18.7612C19.1754 22.25 19.5112 21.9142 19.5112 21.5C19.5112 21.0858 19.1754 20.75 18.7612 20.75H16.9076C18.4433 19.0923 19.2197 16.9222 19.3323 14.7086C19.4716 11.9687 18.6012 9.10146 16.834 6.92471C17.0149 6.53517 17.1044 6.11552 17.1105 5.70207C17.1106 5.69489 17.1106 5.6877 17.1105 5.68051C17.1003 4.94561 16.824 4.1901 16.2449 3.60968C15.0986 2.46344 13.2275 2.46344 12.0812 3.60968L11.7998 3.89109Z" fill="black"/>
<path d="M8.95279 19.4779C8.95279 19.0637 9.28858 18.7279 9.70279 18.7279H10.5717C10.9859 18.7279 11.3217 19.0637 11.3217 19.4779C11.3217 19.8921 10.9859 20.2279 10.5717 20.2279H9.70279C9.28858 20.2279 8.95279 19.8921 8.95279 19.4779Z" fill="black"/>
<path d="M6.40772 10.4052C6.2545 10.2519 6.02002 10.2148 5.82699 10.3133C5.63396 10.4118 5.52631 10.6233 5.56038 10.8373C5.71543 11.8112 6.04844 12.6521 6.63609 13.2659C7.23295 13.8894 8.04448 14.2286 9.05126 14.2812C9.25797 14.292 9.44996 14.1743 9.53413 13.9852C9.61831 13.7961 9.57726 13.5747 9.4309 13.4283L6.40772 10.4052Z" fill="black"/>
</svg>