<svg width="25" height="25" viewBox="0 0 25 25" fill="none" xmlns="http://www.w3.org/2000/svg">
<path fill-rule="evenodd" clip-rule="evenodd" d="M13 4.5C13 3.94772 12.5523 3.5 12 3.5C11.4477 3.5 11 3.94772 11 4.5V6.46008C6.71853 6.96031 3.39636 10.6007 3.39636 15.0164C3.39636 15.2925 3.62022 15.5164 3.89636 15.5164H7.83679C8.04958 17.6341 9.83696 19.287 12.0108 19.287C14.1846 19.287 15.972 17.6341 16.1848 15.5164H20.1252C20.4013 15.5164 20.6252 15.2925 20.6252 15.0164C20.6252 10.5936 17.2915 6.94869 13 6.45771V4.5ZM9.42126 15.8418C9.74606 16.9655 10.7823 17.787 12.0108 17.787C13.2393 17.787 14.2755 16.9655 14.6003 15.8418H9.42126Z" fill="black"/>
<path d="M8.26295 20.129C8.55584 19.8361 8.55584 19.3612 8.26295 19.0683C7.97005 18.7754 7.49518 18.7754 7.20229 19.0683L6.79978 19.4708C6.50689 19.7637 6.50688 20.2386 6.79978 20.5315C7.09267 20.8244 7.56754 20.8244 7.86044 20.5315L8.26295 20.129Z" fill="black"/>
<path d="M16.8428 19.0683C16.5499 18.7754 16.075 18.7754 15.7821 19.0683C15.4892 19.3612 15.4892 19.8361 15.7821 20.129L16.1846 20.5315C16.4775 20.8244 16.9524 20.8244 17.2453 20.5315C17.5382 20.2386 17.5382 19.7637 17.2453 19.4708L16.8428 19.0683Z" fill="black"/>
<path d="M12.7608 20.9311C12.7608 20.5169 12.4251 20.1811 12.0108 20.1811C11.5966 20.1811 11.2608 20.5169 11.2608 20.9311V21.5C11.2608 21.9142 11.5966 22.25 12.0108 22.25C12.4251 22.25 12.7608 21.9142 12.7608 21.5V20.9311Z" fill="black"/>
</svg>