<svg width="25" height="25" viewBox="0 0 25 25" fill="none" xmlns="http://www.w3.org/2000/svg">
<path fill-rule="evenodd" clip-rule="evenodd" d="M7.54053 12.5007C7.54053 10.032 9.54182 8.03073 12.0105 8.03073C14.4792 8.03073 16.4805 10.032 16.4805 12.5007C16.4805 14.9694 14.4792 16.9707 12.0105 16.9707C9.54182 16.9707 7.54053 14.9694 7.54053 12.5007ZM11.1654 11.9831C11.1654 11.5689 10.8296 11.2331 10.4154 11.2331C10.0012 11.2331 9.66542 11.5689 9.66542 11.9831V13.0184C9.66542 13.4326 10.0012 13.7684 10.4154 13.7684C10.8296 13.7684 11.1654 13.4326 11.1654 13.0184V11.9831ZM14.3551 11.9831C14.3551 11.5689 14.0194 11.2331 13.6051 11.2331C13.1909 11.2331 12.8551 11.5689 12.8551 11.9831V13.0184C12.8551 13.4326 13.1909 13.7684 13.6051 13.7684C14.0194 13.7684 14.3551 13.4326 14.3551 13.0184V11.9831Z" fill="black"/>
<path fill-rule="evenodd" clip-rule="evenodd" d="M3.93381 4.56782C4.86618 3.56754 6.19937 3 7.7929 3H16.2276C17.8252 3 19.1589 3.56733 20.0906 4.56801C21.0187 5.56467 21.5107 6.95052 21.5107 8.52638V16.4736C21.5107 18.0495 21.0187 19.4353 20.0905 20.432C19.1586 21.4327 17.8247 22 16.2266 22H7.7929C6.19531 22 4.86185 21.4327 3.93031 20.4319C3.00252 19.4353 2.51074 18.0494 2.51074 16.4736V8.52638C2.51074 6.94997 3.00509 5.56421 3.93381 4.56782ZM12.0105 6.53073C8.7134 6.53073 6.04053 9.2036 6.04053 12.5007C6.04053 15.7979 8.7134 18.4707 12.0105 18.4707C15.3077 18.4707 17.9805 15.7979 17.9805 12.5007C17.9805 9.2036 15.3077 6.53073 12.0105 6.53073Z" fill="black"/>
</svg>