<svg width="24" height="24" viewBox="0 0 24 24" fill="none" xmlns="http://www.w3.org/2000/svg">
<path d="M18.4567 21.7565C18.0767 21.7565 17.6867 21.6866 17.3267 21.5366C16.5567 21.2366 15.9467 20.6466 15.6167 19.8866L12.0167 11.6566L10.2667 15.6466C11.9167 15.6866 13.2467 17.0366 13.2467 18.6966C13.2467 20.3566 11.8767 21.7465 10.1967 21.7465H5.9367C5.4067 21.7465 4.83669 21.7165 4.31669 21.4865C3.55669 21.1565 2.9767 20.5466 2.6667 19.7766C2.3667 19.0066 2.3767 18.1566 2.7167 17.3966L8.1667 4.91652C8.7767 3.31652 10.1867 2.27654 11.8267 2.24654C13.5067 2.18654 15.0967 3.25652 15.8267 4.91652L21.2867 17.3966C21.6167 18.1566 21.6367 18.9966 21.3367 19.7766C21.0367 20.5466 20.4467 21.1565 19.6867 21.4865C19.2867 21.6565 18.8667 21.7465 18.4467 21.7465L18.4567 21.7565ZM12.0167 9.04653C12.3167 9.04653 12.5867 9.22654 12.7067 9.49654L16.9867 19.2965C17.1567 19.6865 17.4767 19.9866 17.8767 20.1466C18.2767 20.3066 18.7067 20.2965 19.1067 20.1265C19.4967 19.9565 19.7967 19.6365 19.9567 19.2465C20.1167 18.8465 20.1067 18.4166 19.9367 18.0166L14.4767 5.53658C13.9867 4.41658 12.9767 3.72655 11.8867 3.75655C10.8567 3.77655 9.9867 4.43654 9.5767 5.49654L4.1067 18.0065C3.9367 18.3965 3.9267 18.8365 4.0867 19.2365C4.2467 19.6365 4.5467 19.9465 4.9367 20.1165C5.2167 20.2365 5.60669 20.2465 5.95669 20.2465H10.2167C11.0667 20.2465 11.7667 19.5466 11.7667 18.6966C11.7667 17.8466 11.0667 17.1466 10.2167 17.1466H9.1367C8.8867 17.1466 8.64669 17.0165 8.50669 16.8065C8.36669 16.5965 8.3467 16.3266 8.4467 16.0966L11.3367 9.48653C11.4567 9.21653 11.7267 9.03658 12.0267 9.03658L12.0167 9.04653Z" fill="black"/>
</svg>