<svg width="24" height="24" viewBox="0 0 24 24" fill="none" xmlns="http://www.w3.org/2000/svg">
<path fill-rule="evenodd" clip-rule="evenodd" d="M8.68669 3.82757C8.94803 3.15444 9.59597 2.71094 10.3181 2.71094H13.6061C14.3254 2.71094 14.9715 3.1511 15.2347 3.82051L21.1639 18.8985C21.6154 20.0466 20.769 21.2889 19.5353 21.2889H16.9099C16.1922 21.2889 15.5473 20.8507 15.283 20.1835L12.0015 11.9005L10.3914 15.9881H11.235C11.9537 15.9881 12.5994 16.4275 12.863 17.0961C12.8667 17.1054 12.8702 17.1148 12.8735 17.1242L13.4972 18.9128C13.9362 20.0567 13.0918 21.2889 11.8631 21.2889H4.46406C3.2336 21.2889 2.38736 20.0526 2.8327 18.9056L8.68669 3.82757ZM11.5822 10.8421C11.5821 10.8419 11.5823 10.8424 11.5822 10.8421V10.8421ZM10.3181 4.21094C10.2149 4.21094 10.1223 4.2743 10.085 4.37046L4.23101 19.4485C4.16739 19.6123 4.28828 19.7889 4.46406 19.7889H11.8631C12.0394 19.7889 12.1604 19.6113 12.0957 19.4472C12.092 19.4379 12.0885 19.4285 12.0852 19.4191L11.4637 17.6371C11.4239 17.5468 11.3343 17.4881 11.235 17.4881H9.73043C8.98726 17.4881 8.47979 16.7374 8.75546 16.0483L11.027 10.2818C11.3825 9.40352 12.6275 9.40815 12.9765 10.289L16.6775 19.631C16.7153 19.7263 16.8074 19.7889 16.9099 19.7889H19.5353C19.7116 19.7889 19.8325 19.6115 19.768 19.4474L13.8388 4.36945C13.8012 4.27382 13.7089 4.21094 13.6061 4.21094H10.3181Z" fill="black"/>
</svg>