<svg width="24" height="24" viewBox="0 0 24 24" fill="none" xmlns="http://www.w3.org/2000/svg">
<path d="M13.4561 21.1328C13.2661 21.1328 13.076 21.0628 12.926 20.9128C12.636 20.6228 12.636 20.1428 12.926 19.8528L19.876 12.9128C20.386 12.4028 20.386 11.5728 19.876 11.0628L12.936 4.12282C12.446 3.63282 11.5761 3.63282 11.0861 4.12282C10.8361 4.37282 10.7061 4.70281 10.7061 5.05281C10.7061 5.40281 10.8461 5.7328 11.0861 5.9728L16.566 11.4528C16.856 11.7428 16.856 12.2228 16.566 12.5128L12.556 16.5428C12.266 16.8328 11.786 16.8328 11.496 16.5428C11.206 16.2528 11.206 15.7728 11.496 15.4828L14.986 11.9828L10.0261 7.03279C9.49606 6.50279 9.20605 5.7928 9.20605 5.0428C9.20605 4.2928 9.49606 3.58281 10.0261 3.05281C11.0861 1.99281 12.936 1.99281 13.996 3.05281L20.936 9.99282C22.026 11.0828 22.026 12.8728 20.936 13.9628L13.986 20.9028C13.836 21.0528 13.6461 21.1228 13.4561 21.1228V21.1328Z" fill="black"/>
<path d="M11.9961 21.743C11.2461 21.743 10.5361 21.4529 10.0061 20.9229L3.0661 13.9829C2.5361 13.4529 2.24609 12.743 2.24609 11.993C2.24609 11.243 2.5361 10.543 3.0661 10.013L10.0061 3.07297C10.2961 2.78297 10.7761 2.78297 11.0661 3.07297C11.3561 3.36297 11.3561 3.84297 11.0661 4.13297L4.1261 11.073C3.8761 11.323 3.74609 11.653 3.74609 11.993C3.74609 12.333 3.8861 12.6729 4.1261 12.9129L11.0661 19.8529C11.5561 20.3429 12.4261 20.3429 12.9161 19.8529C13.4261 19.3429 13.4261 18.513 12.9161 18.003L7.4361 12.523C7.1461 12.233 7.1461 11.7529 7.4361 11.4629L11.4461 7.43295C11.7361 7.14295 12.2161 7.14295 12.5061 7.43295C12.7961 7.72295 12.7961 8.20295 12.5061 8.49295L9.01611 11.993L13.9661 16.943C15.0561 18.033 15.0561 19.8229 13.9661 20.9129C13.4361 21.4429 12.7261 21.7329 11.9761 21.7329L11.9961 21.743Z" fill="black"/>
<path d="M11.9965 21.7411C10.4465 21.7411 9.18652 20.4811 9.18652 18.9311C9.18652 17.3811 10.4465 16.1211 11.9965 16.1211C13.5465 16.1211 14.8065 17.3811 14.8065 18.9311C14.8065 20.4811 13.5465 21.7411 11.9965 21.7411ZM11.9965 17.6211C11.2765 17.6211 10.6865 18.2111 10.6865 18.9311C10.6865 19.6511 11.2765 20.2411 11.9965 20.2411C12.7165 20.2411 13.3065 19.6511 13.3065 18.9311C13.3065 18.2111 12.7165 17.6211 11.9965 17.6211Z" fill="black"/>
</svg>