<svg width="24" height="24" viewBox="0 0 24 24" fill="none" xmlns="http://www.w3.org/2000/svg">
<path fill-rule="evenodd" clip-rule="evenodd" d="M8.285 7.36328C7.65645 7.36328 7.14551 7.87372 7.14551 8.50374V18.6829C7.14551 19.3117 7.6562 19.8223 8.285 19.8223H19.1102C19.7397 19.8223 20.2496 19.3119 20.2496 18.6829V8.50374C20.2496 7.87347 19.7394 7.36328 19.1102 7.36328H8.285ZM5.64551 8.50374C5.64551 7.04579 6.82752 5.86328 8.285 5.86328H19.1102C20.5689 5.86328 21.7496 7.04605 21.7496 8.50374V18.6829C21.7496 20.1398 20.5686 21.3223 19.1102 21.3223H8.285C6.82777 21.3223 5.64551 20.1401 5.64551 18.6829V8.50374Z" fill="black"/>
<path fill-rule="evenodd" clip-rule="evenodd" d="M3.2161 3.65895C3.5037 3.36086 3.9785 3.35234 4.27659 3.63993L7.42412 6.67654C7.72222 6.96414 7.73074 7.43893 7.44314 7.73703C7.15555 8.03513 6.68075 8.04365 6.38265 7.75605L3.23513 4.71944C2.93703 4.43185 2.92851 3.95705 3.2161 3.65895Z" fill="black"/>
<path fill-rule="evenodd" clip-rule="evenodd" d="M2.25 6.0051C2.25 4.16666 3.74051 2.67578 5.57835 2.67578H16.0892C17.2171 2.67578 18.3012 3.11445 19.1124 3.89978L20.736 5.47083C20.736 5.47088 20.7361 5.47093 20.7361 5.47099C21.3844 6.09797 21.7498 6.96097 21.7498 7.86248V17.9939C21.7498 18.4081 21.414 18.7439 20.9998 18.7439C20.5856 18.7439 20.2498 18.4081 20.2498 17.9939V7.86248C20.2498 7.3669 20.049 6.89312 19.6932 6.5491L19.6931 6.54894L18.0692 4.97761L18.0691 4.97748C17.5376 4.46294 16.8276 4.17578 16.0892 4.17578H5.57835C4.5693 4.17578 3.75 4.99471 3.75 6.0051V15.7045C3.75 16.4755 4.06273 17.2139 4.61682 17.7495L4.61719 17.7498L6.22733 19.3084C6.5678 19.6379 7.02379 19.8223 7.49897 19.8223H18.4214C18.8356 19.8223 19.1714 20.1581 19.1714 20.5723C19.1714 20.9865 18.8356 21.3223 18.4214 21.3223H7.49897C6.63535 21.3223 5.80509 20.9871 5.18427 20.3864L5.18417 20.3863L3.57429 18.828C3.57419 18.8279 3.57409 18.8278 3.574 18.8277C3.57397 18.8277 3.57395 18.8276 3.57392 18.8276C2.72718 18.0089 2.25 16.8813 2.25 15.7045V6.0051Z" fill="black"/>
<path fill-rule="evenodd" clip-rule="evenodd" d="M11.3115 9.79297C11.7257 9.79297 12.0615 10.1288 12.0615 10.543V16.9216C12.0615 17.3358 11.7257 17.6716 11.3115 17.6716C10.8973 17.6716 10.5615 17.3358 10.5615 16.9216V10.543C10.5615 10.1288 10.8973 9.79297 11.3115 9.79297Z" fill="black"/>
<path fill-rule="evenodd" clip-rule="evenodd" d="M16.0837 9.51562C16.4979 9.51562 16.8337 9.85141 16.8337 10.2656V16.5068C16.8312 16.9137 16.5623 17.2708 16.172 17.3857C15.7816 17.5006 15.3622 17.3461 15.1396 17.0054L15.1375 17.0022L11.2099 10.9206C10.9852 10.5727 11.0851 10.1084 11.433 9.8837C11.781 9.65898 12.2452 9.75888 12.47 10.1068L15.3337 14.541V10.2656C15.3337 9.85141 15.6695 9.51562 16.0837 9.51562Z" fill="black"/>
<path fill-rule="evenodd" clip-rule="evenodd" d="M12.5885 10.4685C12.6124 10.882 12.2965 11.2366 11.883 11.2605L10.7395 11.3265C10.326 11.3504 9.97144 11.0345 9.94756 10.621C9.92368 10.2074 10.2396 9.85286 10.6531 9.82899L11.7966 9.76296C12.2101 9.73908 12.5647 10.055 12.5885 10.4685Z" fill="black"/>
<path fill-rule="evenodd" clip-rule="evenodd" d="M17.448 10.1828C17.4722 10.5963 17.1566 10.9511 16.7431 10.9753L15.5116 11.0473C15.0981 11.0715 14.7433 10.7559 14.7191 10.3424C14.6949 9.92887 15.0105 9.57405 15.424 9.54986L16.6555 9.47783C17.069 9.45365 17.4238 9.76926 17.448 10.1828Z" fill="black"/>
<path fill-rule="evenodd" clip-rule="evenodd" d="M12.5792 16.8333C12.6065 17.2466 12.2936 17.6038 11.8803 17.6312L10.7458 17.7062C10.3325 17.7335 9.97529 17.4206 9.94795 17.0073C9.92062 16.594 10.2335 16.2368 10.6468 16.2095L11.7813 16.1344C12.1946 16.1071 12.5518 16.42 12.5792 16.8333Z" fill="black"/>
</svg>