<svg width="24" height="24" viewBox="0 0 24 24" fill="none" xmlns="http://www.w3.org/2000/svg">
<path fill-rule="evenodd" clip-rule="evenodd" d="M7.91142 4.6759C7.51233 4.6759 7.13816 4.87347 6.91304 5.20365L4.01142 9.45367H19.9897L17.0964 5.20462C16.8711 4.87414 16.4967 4.6759 16.0961 4.6759H7.91142ZM19.9896 10.9537H4.01047C4.02859 10.9768 4.04766 10.9994 4.06767 11.0214L11.3714 19.046C11.7082 19.4164 12.2913 19.4167 12.6281 19.0463L19.9334 11.02C19.953 10.9985 19.9717 10.9763 19.9896 10.9537ZM2.25405 10.1252C2.25137 10.151 2.25 10.1772 2.25 10.2037C2.25 10.2295 2.2513 10.255 2.25385 10.2801C2.27103 10.912 2.50841 11.5359 2.95754 12.0302L10.2618 20.0555C10.2618 20.0554 10.2619 20.0555 10.2618 20.0555C11.1937 21.08 12.8057 21.0802 13.7376 20.0557C13.7376 20.0558 13.7377 20.0556 13.7376 20.0557L21.0427 12.0297C21.495 11.5326 21.7327 10.9039 21.7473 10.268C21.7491 10.2468 21.75 10.2253 21.75 10.2037C21.75 10.1815 21.749 10.1595 21.7471 10.1378C21.7345 9.63041 21.5796 9.12382 21.2784 8.68114L18.336 4.35999C17.8316 3.62021 16.9933 3.1759 16.0961 3.1759H7.91142C7.01661 3.1759 6.17859 3.6184 5.67396 4.35826C5.67387 4.35839 5.67405 4.35813 5.67396 4.35826L2.7239 8.67923C2.4246 9.11878 2.26906 9.62176 2.25405 10.1252Z" fill="black"/>
<path fill-rule="evenodd" clip-rule="evenodd" d="M6.3993 3.75146C6.80624 3.6742 7.19877 3.94145 7.27604 4.3484L8.36113 10.0635C8.43839 10.4705 8.17113 10.863 7.76419 10.9403C7.35725 11.0175 6.96472 10.7503 6.88746 10.3433L5.80236 4.62819C5.7251 4.22125 5.99236 3.82872 6.3993 3.75146Z" fill="black"/>
<path fill-rule="evenodd" clip-rule="evenodd" d="M17.6328 3.77105C18.0397 3.8485 18.3068 4.24115 18.2293 4.64806L17.1451 10.3443C17.0677 10.7512 16.675 11.0183 16.2681 10.9409C15.8612 10.8634 15.5941 10.4708 15.6716 10.0639L16.7558 4.36759C16.8332 3.96068 17.2259 3.69361 17.6328 3.77105Z" fill="black"/>
<path fill-rule="evenodd" clip-rule="evenodd" d="M12.014 3.17578C12.2589 3.17577 12.4883 3.29524 12.6286 3.49584L17.0207 9.77361C17.1664 9.98192 17.1967 10.2499 17.1011 10.4855L13.3094 19.8327C13.305 19.8436 13.3003 19.8544 13.2953 19.8651C13.0862 20.3181 12.6699 20.824 12.0141 20.824C11.3583 20.824 10.9419 20.3181 10.7328 19.8651C10.7279 19.8544 10.7232 19.8436 10.7187 19.8326L6.92803 10.4853C6.8325 10.2497 6.86278 9.98181 7.00848 9.77352L11.3995 3.4959C11.5398 3.29529 11.7692 3.17579 12.014 3.17578ZM12.0141 5.2342L8.47126 10.2993L12.0141 19.0354L15.5579 10.2994L12.0141 5.2342Z" fill="black"/>
</svg>