<svg width="24" height="24" viewBox="0 0 24 24" fill="none" xmlns="http://www.w3.org/2000/svg">
<path fill-rule="evenodd" clip-rule="evenodd" d="M2 13.9258C2.41421 13.9258 2.75 14.2616 2.75 14.6758V17.6216C2.75 18.0358 2.41421 18.3716 2 18.3716C1.58579 18.3716 1.25 18.0358 1.25 17.6216V14.6758C1.25 14.2616 1.58579 13.9258 2 13.9258Z" fill="black"/>
<path fill-rule="evenodd" clip-rule="evenodd" d="M5.53516 10.1602C5.94937 10.1602 6.28516 10.4959 6.28516 10.9102V17.6225C6.28516 18.0367 5.94937 18.3725 5.53516 18.3725C5.12094 18.3725 4.78516 18.0367 4.78516 17.6225V10.9102C4.78516 10.4959 5.12094 10.1602 5.53516 10.1602Z" fill="black"/>
<path fill-rule="evenodd" clip-rule="evenodd" d="M9.06836 7.47656C9.48257 7.47656 9.81836 7.81235 9.81836 8.22656V17.6231C9.81836 18.0373 9.48257 18.3731 9.06836 18.3731C8.65415 18.3731 8.31836 18.0373 8.31836 17.6231V8.22656C8.31836 7.81235 8.65415 7.47656 9.06836 7.47656Z" fill="black"/>
<path fill-rule="evenodd" clip-rule="evenodd" d="M11.9336 7.37309C11.9336 6.4546 12.7156 5.52104 13.8159 5.72612C16.2958 6.18831 18.008 8.12603 18.5263 10.5311C18.6009 10.5195 18.6768 10.5108 18.7545 10.5054C19.1647 10.4769 19.5667 10.5437 20.0159 10.6802C21.272 11.0609 22.269 12.0979 22.6069 13.3632C23.3087 15.987 21.3416 18.3704 18.8153 18.3704H13.6836C12.7171 18.3704 11.9336 17.5869 11.9336 16.6204V7.37309ZM13.4928 7.21814C13.4641 7.24526 13.4336 7.29984 13.4336 7.37309V16.6204C13.4336 16.7585 13.5455 16.8704 13.6836 16.8704H18.8153C20.3775 16.8704 21.5993 15.401 21.1578 13.7505L21.1577 13.7502C20.9528 12.9832 20.337 12.3448 19.5805 12.1156L19.5801 12.1154C19.239 12.0119 19.0281 11.99 18.8585 12.0018C18.6865 12.0138 18.5003 12.0639 18.2049 12.1878C17.9841 12.2804 17.7324 12.2621 17.5273 12.1384C17.3223 12.0147 17.1887 11.8005 17.1677 11.562C16.9686 9.30271 15.5501 7.57516 13.5411 7.20072C13.5271 7.19811 13.5215 7.19986 13.5194 7.20054L13.5193 7.20056C13.5156 7.20174 13.5059 7.20571 13.4928 7.21814Z" fill="black"/>
</svg>