<svg width="24" height="24" viewBox="0 0 24 24" fill="none" xmlns="http://www.w3.org/2000/svg">
<path d="M16.21 21.75H7.78C4.47 21.75 2.25 19.43 2.25 15.97V8.03003C2.25 4.57003 4.47 2.25 7.78 2.25H16.22C19.53 2.25 21.75 4.57003 21.75 8.03003V15.97C21.75 19.43 19.53 21.75 16.22 21.75H16.21ZM7.78 3.75C5.33 3.75 3.75 5.43003 3.75 8.03003V15.97C3.75 18.57 5.33 20.25 7.78 20.25H16.21C18.66 20.25 20.24 18.57 20.24 15.97V8.03003C20.24 5.43003 18.66 3.75 16.21 3.75H7.77002H7.78Z" fill="black"/>
<path d="M12.4604 16.8798C11.8304 16.8798 11.2504 16.5498 10.9204 15.9998L9.84042 14.1599L7.99044 13.0798C7.39044 12.7298 7.06043 12.0798 7.11043 11.3898C7.17043 10.6898 7.61043 10.1098 8.26043 9.85982L13.9204 7.76985C14.5904 7.52985 15.3104 7.68977 15.8104 8.18977C16.3004 8.68977 16.4604 9.39989 16.2204 10.0599L14.1304 15.7198C13.8904 16.3698 13.3104 16.8098 12.6204 16.8798C12.5704 16.8798 12.5104 16.8798 12.4604 16.8798ZM10.7504 12.9498C10.8504 13.0098 10.9404 13.0899 11.0104 13.1799L12.2204 15.2398C12.3004 15.3798 12.4304 15.3898 12.5004 15.3798C12.5704 15.3798 12.6804 15.3398 12.7404 15.1998L14.8304 9.53987C14.8804 9.38987 14.8104 9.28982 14.7704 9.23982C14.7204 9.18982 14.6204 9.11988 14.4604 9.16988L8.81042 11.2598C8.66042 11.3198 8.63041 11.4398 8.62041 11.5098C8.62041 11.5798 8.62043 11.6999 8.76043 11.7799L10.7604 12.9498H10.7504Z" fill="black"/>
</svg>