<svg width="24" height="24" viewBox="0 0 24 24" fill="none" xmlns="http://www.w3.org/2000/svg">
<path d="M16.2149 21.75H7.78488C4.47488 21.75 2.25488 19.43 2.25488 15.97V8.02002C2.25488 4.57002 4.47488 2.25 7.78488 2.25H16.2149C19.5249 2.25 21.7449 4.57002 21.7449 8.02002V15.97C21.7449 19.43 19.5249 21.75 16.2149 21.75ZM7.78488 3.75C5.33488 3.75 3.75488 5.43002 3.75488 8.02002V15.97C3.75488 18.57 5.33488 20.25 7.78488 20.25H16.2149C18.6649 20.25 20.2449 18.57 20.2449 15.97V8.02002C20.2449 5.43002 18.6649 3.75 16.2149 3.75H7.78488Z" fill="black"/>
<path d="M10.4352 11.2009C10.2452 11.2009 10.0552 11.1309 9.90515 10.9809L7.56516 8.64084C7.27516 8.35084 7.27516 7.87078 7.56516 7.58078C7.85516 7.29078 8.33515 7.29078 8.62515 7.58078L10.9652 9.92087C11.2552 10.2109 11.2552 10.6909 10.9652 10.9809C10.8152 11.1309 10.6252 11.2009 10.4352 11.2009Z" fill="black"/>
<path d="M15.8854 16.6303C15.6954 16.6303 15.5053 16.5604 15.3553 16.4104L13.0154 14.0705C12.7254 13.7805 12.7254 13.3005 13.0154 13.0105C13.3054 12.7205 13.7853 12.7205 14.0753 13.0105L16.4154 15.3503C16.7054 15.6403 16.7054 16.1204 16.4154 16.4104C16.2654 16.5604 16.0754 16.6303 15.8854 16.6303Z" fill="black"/>
<path d="M8.09516 16.6303C7.90516 16.6303 7.71516 16.5604 7.56516 16.4104C7.27516 16.1204 7.27516 15.6403 7.56516 15.3503L9.90515 13.0105C10.1952 12.7205 10.6752 12.7205 10.9652 13.0105C11.2552 13.3005 11.2552 13.7805 10.9652 14.0705L8.62515 16.4104C8.47515 16.5604 8.28515 16.6303 8.09516 16.6303Z" fill="black"/>
<path d="M13.5454 11.2009C13.3554 11.2009 13.1654 11.1309 13.0154 10.9809C12.7254 10.6909 12.7254 10.2109 13.0154 9.92087L15.3553 7.58078C15.6453 7.29078 16.1254 7.29078 16.4154 7.58078C16.7054 7.87078 16.7054 8.35084 16.4154 8.64084L14.0753 10.9809C13.9253 11.1309 13.7354 11.2009 13.5454 11.2009Z" fill="black"/>
<path d="M17.4952 12.75H13.8252C13.4152 12.75 13.0752 12.41 13.0752 12C13.0752 11.59 13.4152 11.25 13.8252 11.25H17.4952C17.9052 11.25 18.2452 11.59 18.2452 12C18.2452 12.41 17.9052 12.75 17.4952 12.75Z" fill="black"/>
<path d="M10.1551 12.75H6.49512C6.08512 12.75 5.74512 12.41 5.74512 12C5.74512 11.59 6.08512 11.25 6.49512 11.25H10.1551C10.5651 11.25 10.9051 11.59 10.9051 12C10.9051 12.41 10.5651 12.75 10.1551 12.75Z" fill="black"/>
<path d="M11.9854 10.9199C11.5754 10.9199 11.2354 10.5799 11.2354 10.1699V6.5C11.2354 6.09 11.5754 5.75 11.9854 5.75C12.3954 5.75 12.7354 6.09 12.7354 6.5V10.1699C12.7354 10.5799 12.3954 10.9199 11.9854 10.9199Z" fill="black"/>
<path d="M11.9854 18.2383C11.5754 18.2383 11.2354 17.8983 11.2354 17.4883V13.8281C11.2354 13.4181 11.5754 13.0781 11.9854 13.0781C12.3954 13.0781 12.7354 13.4181 12.7354 13.8281V17.4883C12.7354 17.8983 12.3954 18.2383 11.9854 18.2383Z" fill="black"/>
<path d="M11.995 14.5778C11.375 14.5778 10.765 14.468 10.175 14.238C9.97502 14.158 9.81503 14.0081 9.74503 13.8081C9.52503 13.2381 9.41504 12.628 9.41504 11.998C9.41504 11.368 9.52503 10.7579 9.74503 10.1779C9.82503 9.97794 9.97502 9.81801 10.175 9.74801C11.295 9.31801 12.575 9.29801 13.805 9.74801C14.015 9.82801 14.175 9.98795 14.255 10.188C14.475 10.768 14.585 11.378 14.585 11.998C14.585 12.618 14.475 13.2281 14.255 13.8081C14.175 14.0181 14.015 14.178 13.805 14.248C13.215 14.468 12.605 14.5778 11.995 14.5778ZM11.035 12.948C11.655 13.118 12.305 13.128 12.945 12.948C13.025 12.638 13.075 12.318 13.075 11.998C13.075 11.678 13.035 11.3581 12.945 11.0481C12.295 10.8781 11.635 10.8781 11.035 11.0481C10.955 11.3581 10.905 11.678 10.905 12.008C10.905 12.328 10.945 12.648 11.035 12.958V12.948Z" fill="black"/>
</svg>