<svg width="24" height="24" viewBox="0 0 24 24" fill="none" xmlns="http://www.w3.org/2000/svg">
<path opacity="0.4" fill-rule="evenodd" clip-rule="evenodd" d="M12.2834 2.66016C11.8734 2.66016 11.5334 3.00016 11.5334 3.41016C11.5334 4.33016 12.5344 4.09116 13.1114 4.19216C13.5244 4.26416 13.8954 4.48216 13.8584 4.94516C13.7844 5.85216 13.9364 6.99716 14.8234 7.94016C15.3634 8.50016 15.8734 8.89016 16.2834 9.20016C17.0734 9.79016 17.4634 10.0902 17.4434 10.9802C17.4234 11.4802 17.1834 11.7802 16.8734 12.1602C16.3234 12.8402 15.6434 13.6802 16.4634 15.6302C16.6984 16.1912 17.1174 16.7782 17.2164 17.3752C17.4204 18.6002 16.1184 19.0722 15.1844 19.3232C14.9034 19.3992 14.6304 19.2022 14.6054 18.9122C14.4714 17.3732 14.0594 15.6332 12.9134 15.1002C12.4334 14.8702 11.6334 14.8002 10.5734 15.7002C9.77938 16.3732 8.58238 17.4352 7.50438 17.5782C6.68438 17.6862 6.24638 16.7462 5.95338 16.1302C5.77338 15.7502 5.33338 15.6002 4.95338 15.7802C4.58338 15.9602 4.42338 16.4002 4.60338 16.7802C5.92138 19.5242 8.75638 21.2572 12.0454 21.3372C17.0274 21.4582 21.3614 17.4562 21.6114 12.4792C21.8804 7.11216 17.5924 2.66016 12.2834 2.66016Z" fill="black"/>
<path fill-rule="evenodd" clip-rule="evenodd" d="M4.31343 10.5C4.23343 10.43 4.16343 10.37 4.09343 10.29C4.63343 8.82996 5.49343 8.03996 5.54343 7.98996C5.85343 7.70996 6.33343 7.73996 6.60343 8.04996C6.88343 8.35996 6.85343 8.82996 6.54343 9.10996C6.49343 9.14996 5.75343 9.84996 5.38343 11.17C5.16343 11.08 4.96343 10.98 4.84343 10.92L4.31343 10.5ZM5.23343 13.76C5.14343 13.18 5.14343 12.65 5.19343 12.17C5.53343 12.3 5.93343 12.4 6.31343 12.4C6.40343 12.4 6.49343 12.39 6.57343 12.38C7.48343 12.34 8.35343 11.93 9.03343 11.22C9.89343 10.31 10.3734 8.94996 10.3334 7.48996C10.2934 5.53996 9.70343 3.92996 9.54343 3.59996C9.45343 3.41996 9.29343 3.30996 9.07343 3.31996C8.70343 3.32996 7.00343 3.56996 5.26343 4.43996C3.95343 5.08996 2.98343 6.14996 2.58343 7.34996C2.34343 8.03996 1.98343 9.82997 3.67343 11.27L3.80343 11.37C3.65343 12.12 3.61343 12.99 3.75343 13.98C3.80343 14.35 4.12343 14.62 4.49343 14.62C4.52343 14.62 4.56343 14.61 4.60343 14.61C5.00343 14.55 5.29343 14.17 5.23343 13.76Z" fill="black"/>
</svg>