<svg width="25" height="24" viewBox="0 0 25 24" fill="none" xmlns="http://www.w3.org/2000/svg">
<path opacity="0.4" fill-rule="evenodd" clip-rule="evenodd" d="M16.72 2.25H8.28C5.76 2.25 3.87 3.6 3.12 5.77C3.1 5.81 3.09 5.86 3.08 5.9C2.86 6.54 2.75 7.26 2.75 8.03V15.97C2.75 19.15 4.63 21.37 7.5 21.7C7.52 21.7 7.54 21.71 7.56 21.71C7.61 21.72 7.66 21.73 7.7 21.73C7.72 21.73 7.75 21.73 7.77 21.72C7.94 21.74 8.11 21.75 8.28 21.75H16.72C20.03 21.75 22.25 19.43 22.25 15.97V8.03C22.25 4.57 20.03 2.25 16.72 2.25Z" fill="black"/>
<path fill-rule="evenodd" clip-rule="evenodd" d="M10.86 8.26977L20.75 10.3098V8.77977L10.45 6.65977C10.4444 6.65415 10.4356 6.65169 10.4254 6.64884C10.4175 6.64661 10.4087 6.64415 10.4 6.63977H10.37L4.89998 5.50977C4.63998 5.91977 4.45998 6.39977 4.34998 6.92977L9.38998 7.96977L7.09998 20.0998C7.45998 20.1998 7.85998 20.2498 8.27998 20.2498H8.59998L10.86 8.26977ZM11.95 14.4198C11.95 16.4998 14.31 18.6498 15.12 18.6498C15.94 18.6498 18.3 16.4998 18.3 14.4198C18.3 12.6698 16.88 11.2398 15.12 11.2398C13.37 11.2398 11.95 12.6698 11.95 14.4198ZM14.229 14.399C14.229 13.894 14.625 13.498 15.118 13.498C15.623 13.498 16.031 13.894 16.031 14.399C16.031 14.892 15.623 15.312 15.118 15.312C14.625 15.312 14.229 14.928 14.229 14.435V14.399Z" fill="black"/>
</svg>