<svg width="25" height="24" viewBox="0 0 25 24" fill="none" xmlns="http://www.w3.org/2000/svg">
<path opacity="0.4" fill-rule="evenodd" clip-rule="evenodd" d="M16.72 2.25H8.28C5.76 2.25 3.87 3.6 3.12 5.77C3.1 5.81 3.09 5.86 3.08 5.9C2.86 6.54 2.75 7.26 2.75 8.03V15.97C2.75 19.15 4.63 21.37 7.5 21.7C7.52 21.7 7.54 21.71 7.56 21.71C7.61 21.72 7.66 21.73 7.7 21.73C7.72 21.73 7.75 21.73 7.77 21.72C7.94 21.74 8.11 21.75 8.28 21.75H16.72C20.03 21.75 22.25 19.43 22.25 15.97V8.03C22.25 4.57 20.03 2.25 16.72 2.25Z" fill="black"/>
<path fill-rule="evenodd" clip-rule="evenodd" d="M12.02 9.11957L9.93002 20.2496H8.40002L10.55 8.81957L4.27002 7.51957C4.32002 6.98957 4.43002 6.48957 4.62002 6.05957L11.58 7.49957L20.75 9.37957V10.9196L12.02 9.11957Z" fill="black"/>
</svg>