<svg width="24" height="24" viewBox="0 0 24 24" fill="none" xmlns="http://www.w3.org/2000/svg">
<g opacity="0.4">
<path fill-rule="evenodd" clip-rule="evenodd" d="M19.734 4.19359C19.084 3.54859 18.142 3.33359 17.279 3.63259L5.168 7.80259C4.217 8.12959 3.586 8.98959 3.559 9.99359C3.532 10.9986 4.117 11.8906 5.048 12.2676L9.213 13.9546C9.554 14.0916 9.831 14.3656 9.971 14.7076L11.757 19.0266C12.13 19.9286 12.988 20.4996 13.958 20.4996C13.987 20.4996 14.015 20.4996 14.045 20.4986C15.049 20.4636 15.905 19.8246 16.224 18.8716L20.317 6.64459C20.607 5.77759 20.383 4.83859 19.734 4.19359Z" fill="black"/>
</g>
</svg>