<svg width="24" height="24" viewBox="0 0 24 24" fill="none" xmlns="http://www.w3.org/2000/svg">
<path opacity="0.4" d="M18.9833 13.093C18.4193 11.639 17.1003 10.48 15.9963 9.716L16.4463 7.334C16.6963 6.011 16.3143 4.706 15.4233 3.842C14.4893 2.937 13.1423 2.375 11.9113 2.375C10.8033 2.375 9.59928 2.831 8.69228 3.596C7.64228 4.479 7.14728 5.901 7.39928 7.305L7.82928 9.715C6.94228 10.342 5.62328 11.496 5.00528 13.139C4.74028 13.84 4.83728 14.603 5.27328 15.233C5.72828 15.893 6.47628 16.286 7.27328 16.286H11.2523H12.7523H16.7333C17.5313 16.286 18.2773 15.891 18.7293 15.229C19.1703 14.585 19.2613 13.806 18.9833 13.093Z" fill="black"/>
<path d="M11.2523 20.8741V16.2861H12.7523V20.8741C12.7523 21.2881 12.4163 21.6241 12.0023 21.6241C11.5873 21.6241 11.2523 21.2881 11.2523 20.8741Z" fill="black"/>
</svg>