<svg width="24" height="24" viewBox="0 0 24 24" fill="none" xmlns="http://www.w3.org/2000/svg">
<path opacity="0.4" fill-rule="evenodd" clip-rule="evenodd" d="M16.1412 9.913C16.0602 9.759 16.0182 9.588 16.0182 9.418V9C16.0182 8.724 15.7942 8.5 15.5182 8.5H8.48024C8.20424 8.5 7.98024 8.724 7.98024 9V9.418C7.98024 9.591 7.93824 9.762 7.85924 9.913L6.25624 12.691C6.10224 12.986 6.02124 13.317 6.02124 13.649C6.02124 14.787 6.94824 15.714 8.08724 15.714H11.2492V20.875C11.2492 21.289 11.5852 21.625 11.9992 21.625C12.4132 21.625 12.7492 21.289 12.7492 20.875V15.714H15.9122C17.0512 15.714 17.9782 14.787 17.9782 13.649C17.9782 13.316 17.8972 12.985 17.7442 12.691L16.1412 9.913Z" fill="black"/>
<path fill-rule="evenodd" clip-rule="evenodd" d="M15.9967 2.375H8.00671C6.91271 2.375 6.02271 3.265 6.02271 4.358V5.291C6.02271 6.384 6.91271 7.274 8.00671 7.274H15.9967C17.0897 7.274 17.9787 6.384 17.9787 5.291V4.358C17.9787 3.265 17.0897 2.375 15.9967 2.375Z" fill="black"/>
</svg>