<svg width="24" height="24" viewBox="0 0 24 24" fill="none" xmlns="http://www.w3.org/2000/svg">
<g opacity="0.4">
<path fill-rule="evenodd" clip-rule="evenodd" d="M18.7889 5.2344C18.496 4.9414 18.0209 4.9414 17.7279 5.2344C17.4349 5.5274 17.4349 6.0024 17.7279 6.2954C19.2589 7.8244 20.1009 9.8594 20.1009 12.0234C20.1009 14.1884 19.2589 16.2224 17.7279 17.7524C16.1979 19.2824 14.1639 20.1254 11.9999 20.1254C9.83595 20.1254 7.80195 19.2824 6.27095 17.7524C4.74095 16.2224 3.89795 14.1884 3.89795 12.0234C3.89795 9.8594 4.74095 7.8244 6.27095 6.2954C6.56395 6.0024 6.56395 5.5274 6.27095 5.2344C5.97795 4.9414 5.50395 4.9414 5.21095 5.2344C3.39695 7.0474 2.39795 9.4584 2.39795 12.0234C2.39795 14.5884 3.39695 17.0004 5.21095 18.8134C7.02395 20.6264 9.43495 21.6254 11.9999 21.6254C14.5639 21.6254 16.976 20.6264 18.7889 18.8134C20.6019 17.0004 21.6019 14.5884 21.6019 12.0234C21.6019 9.4584 20.6019 7.0474 18.7889 5.2344Z" fill="black"/>
<path fill-rule="evenodd" clip-rule="evenodd" d="M11.999 17.2305C13.334 17.2305 14.669 16.7225 15.685 15.7065C16.872 14.5195 17.414 12.8215 17.136 11.1655C17.067 10.7575 16.684 10.4835 16.272 10.5495C15.863 10.6185 15.588 11.0055 15.657 11.4135C15.854 12.5925 15.469 13.8015 14.624 14.6465C13.178 16.0935 10.823 16.0945 9.37497 14.6465C8.52997 13.8005 8.14397 12.5925 8.33997 11.4135C8.40797 11.0045 8.13297 10.6185 7.72497 10.5495C7.31297 10.4805 6.92897 10.7575 6.86097 11.1665C6.58397 12.8215 7.12697 14.5195 8.31397 15.7065C9.32997 16.7225 10.665 17.2305 11.999 17.2305Z" fill="black"/>
</g>
<path fill-rule="evenodd" clip-rule="evenodd" d="M12 7.256C11.385 7.256 10.879 6.762 10.879 6.147C10.879 5.52 11.385 5.014 12 5.014C12.615 5.014 13.121 5.52 13.121 6.147C13.121 6.762 12.615 7.256 12 7.256ZM12 11.175C12.82 11.175 15.76 8.675 15.76 6.135C15.76 4.065 14.07 2.375 12 2.375C9.92999 2.375 8.23999 4.065 8.23999 6.135C8.23999 8.675 11.18 11.175 12 11.175Z" fill="black"/>
</svg>