<svg width="24" height="24" viewBox="0 0 24 24" fill="none" xmlns="http://www.w3.org/2000/svg">
<path opacity="0.4" fill-rule="evenodd" clip-rule="evenodd" d="M12.0001 10.645C10.8201 10.645 9.86007 9.685 9.86007 8.505C9.86007 7.325 10.8201 6.365 12.0001 6.365C13.1801 6.365 14.1401 7.325 14.1401 8.505C14.1401 9.685 13.1801 10.645 12.0001 10.645ZM12.0001 2.375C8.59007 2.375 5.82007 5.145 5.82007 8.555C5.82007 12.785 10.6501 16.955 12.0001 16.955C13.3401 16.955 18.1701 12.785 18.1701 8.555C18.1701 5.145 15.4001 2.375 12.0001 2.375Z" fill="black"/>
<path opacity="0.4" fill-rule="evenodd" clip-rule="evenodd" d="M18.8156 14.7958C18.4546 14.5918 17.9966 14.7218 17.7946 15.0828C17.5916 15.4438 17.7196 15.9008 18.0816 16.1038C18.8566 16.5388 19.2836 17.0248 19.2836 17.4738C19.2836 18.0768 18.5306 18.5898 18.0666 18.8508C17.7616 19.0308 17.4206 19.1888 17.0216 19.3348C14.2656 20.3558 9.74855 20.3578 6.98255 19.3328C6.61355 19.1988 6.25655 19.0338 5.91955 18.8418C5.46955 18.5908 4.71655 18.0778 4.71655 17.4738C4.71655 16.8678 5.46955 16.3558 5.91955 16.1038C6.28055 15.9008 6.40855 15.4438 6.20655 15.0828C6.00355 14.7218 5.54755 14.5938 5.18455 14.7958C3.55855 15.7078 3.21655 16.7548 3.21655 17.4738C3.21655 18.1908 3.55855 19.2378 5.18155 20.1488C5.58855 20.3798 6.02255 20.5798 6.46555 20.7408C8.00655 21.3118 9.97355 21.6268 12.0036 21.6268C14.0356 21.6268 16.0026 21.3118 17.5396 20.7418C18.0226 20.5668 18.4446 20.3698 18.8156 20.1498C20.4416 19.2368 20.7836 18.1908 20.7836 17.4738C20.7836 16.7558 20.4416 15.7088 18.8156 14.7958Z" fill="black"/>
<path fill-rule="evenodd" clip-rule="evenodd" d="M12.0001 10.6452C10.8201 10.6452 9.86011 9.68523 9.86011 8.50523C9.86011 7.32523 10.8201 6.36523 12.0001 6.36523C13.1801 6.36523 14.1401 7.32523 14.1401 8.50523C14.1401 9.68523 13.1801 10.6452 12.0001 10.6452Z" fill="black"/>
</svg>