<svg width="24" height="24" viewBox="0 0 24 24" fill="none" xmlns="http://www.w3.org/2000/svg">
<path fill-rule="evenodd" clip-rule="evenodd" d="M15.2119 15.5265C14.4908 15.7595 14.1186 16.5869 14.406 17.4863C14.6388 18.209 15.2915 18.9146 15.9849 19.4782C16.3187 19.7494 16.6366 19.9676 16.8709 20.1178C16.8733 20.1193 16.8756 20.1208 16.878 20.1223C16.8815 20.12 16.8851 20.1177 16.8886 20.1154C17.125 19.9634 17.4451 19.743 17.7806 19.4701C18.4794 18.9017 19.1288 18.1977 19.3516 17.4902L19.3526 17.4869C19.6395 16.5903 19.2665 15.7612 18.545 15.527C18.1296 15.3975 17.6767 15.4743 17.3271 15.7342C17.06 15.9327 16.6941 15.9319 16.4279 15.7321C16.0806 15.4714 15.6276 15.3947 15.2119 15.5265ZM16.8789 20.9997C16.5195 21.6595 16.5193 21.6594 16.5192 21.6593L16.5178 21.6586L16.5152 21.6571L16.5072 21.6527L16.4804 21.6377C16.4578 21.625 16.4261 21.6068 16.3864 21.5835C16.307 21.537 16.1953 21.4695 16.0603 21.383C15.7911 21.2105 15.4251 20.9595 15.0372 20.6443C14.2876 20.0351 13.3464 19.099 12.9753 17.946L12.975 17.9447C12.5133 16.5016 13.0161 14.6549 14.7526 14.0958L14.7551 14.095C15.4633 13.8697 16.225 13.9309 16.8805 14.2541C17.5341 13.9343 18.2918 13.8726 18.9977 14.0941L19.0032 14.0958C20.736 14.6542 21.2459 16.498 20.7844 17.9431C20.423 19.0888 19.4784 20.0261 18.7288 20.6359C18.3398 20.9522 17.9721 21.2051 17.7016 21.3792C17.5659 21.4664 17.4536 21.5346 17.3738 21.5817C17.3339 21.6052 17.3021 21.6235 17.2795 21.6364L17.2526 21.6516L17.2446 21.656L17.242 21.6574L17.241 21.658C17.2409 21.658 17.2403 21.6583 16.8789 20.9997ZM16.8789 20.9997L17.241 21.658C17.0166 21.7811 16.744 21.7817 16.5192 21.6593L16.8789 20.9997Z" fill="black"/>
<path fill-rule="evenodd" clip-rule="evenodd" d="M3.60352 5.27734C4.01773 5.27734 4.35352 5.61313 4.35352 6.02734V11.8128C4.35402 11.8165 4.35479 11.8215 4.35593 11.8278C4.36138 11.858 4.37531 11.9181 4.40942 11.9991C4.47559 12.1563 4.62781 12.4169 4.98631 12.7008C5.71432 13.2773 7.35107 13.9914 10.941 13.9914C11.3552 13.9914 11.691 14.3271 11.691 14.7414C11.691 15.1556 11.3552 15.4914 10.941 15.4914C7.19346 15.4914 5.16146 14.7528 4.0551 13.8767C3.49641 13.4343 3.19003 12.9686 3.02691 12.581C2.94636 12.3897 2.90297 12.2228 2.87976 12.0941C2.86817 12.0299 2.86161 11.9752 2.85795 11.9317C2.85612 11.9099 2.85501 11.891 2.85436 11.875L2.85369 11.8533L2.85356 11.8441L2.85353 11.84L2.85352 11.838C2.85352 11.8371 2.85352 11.8361 3.60352 11.8361H2.85352V6.02734C2.85352 5.61313 3.1893 5.27734 3.60352 5.27734Z" fill="black"/>
<path fill-rule="evenodd" clip-rule="evenodd" d="M18.2793 5.27734C18.6935 5.27734 19.0293 5.61313 19.0293 6.02734V10.8682C19.0293 11.2825 18.6935 11.6182 18.2793 11.6182C17.8651 11.6182 17.5293 11.2825 17.5293 10.8682V6.02734C17.5293 5.61313 17.8651 5.27734 18.2793 5.27734Z" fill="black"/>
<path fill-rule="evenodd" clip-rule="evenodd" d="M3.60352 11.0859C4.01773 11.0859 4.35352 11.4217 4.35352 11.8359V17.6223C4.35402 17.6259 4.35479 17.6309 4.35593 17.6372C4.36137 17.6674 4.37529 17.7274 4.40939 17.8084C4.47554 17.9655 4.62773 18.2259 4.98622 18.5097C5.71424 19.0861 7.35103 19.7999 10.941 19.7999C11.3552 19.7999 11.691 20.1357 11.691 20.5499C11.691 20.9642 11.3552 21.2999 10.941 21.2999C7.19349 21.2999 5.16153 20.5617 4.05518 19.6858C3.49649 19.2435 3.19009 18.7779 3.02694 18.3905C2.94639 18.1991 2.90298 18.0322 2.87977 17.9036C2.86817 17.8393 2.86161 17.7846 2.85795 17.7412C2.85612 17.7194 2.85501 17.7005 2.85436 17.6845L2.85369 17.6627L2.85356 17.6536L2.85353 17.6495L2.85352 17.6475C2.85352 17.6465 2.85352 17.6456 3.60352 17.6456H2.85352V11.8359C2.85352 11.4217 3.1893 11.0859 3.60352 11.0859Z" fill="black"/>
<path fill-rule="evenodd" clip-rule="evenodd" d="M4.69696 5.34802C4.41965 5.6125 4.35352 5.81799 4.35352 5.95583C4.35352 6.09367 4.41965 6.29916 4.69696 6.56364C4.9761 6.82987 5.41992 7.10419 6.0302 7.35038C7.2468 7.84116 8.97907 8.16166 10.9308 8.16166C12.8825 8.16166 14.6148 7.84116 15.8314 7.35038C16.4417 7.10419 16.8855 6.82987 17.1646 6.56364C17.4419 6.29916 17.5081 6.09367 17.5081 5.95583C17.5081 5.81799 17.4419 5.6125 17.1646 5.34802C16.8855 5.08179 16.4417 4.80747 15.8314 4.56128C14.6148 4.0705 12.8825 3.75 10.9308 3.75C8.97907 3.75 7.2468 4.0705 6.0302 4.56128C5.41992 4.80747 4.9761 5.08179 4.69696 5.34802ZM5.46904 3.1702C6.90439 2.59118 8.83576 2.25 10.9308 2.25C13.0258 2.25 14.9572 2.59118 16.3925 3.1702C17.1082 3.45891 17.7375 3.82152 18.1999 4.26256C18.6641 4.70533 19.0081 5.27744 19.0081 5.95583C19.0081 6.63422 18.6641 7.20633 18.1999 7.64911C17.7375 8.09014 17.1082 8.45275 16.3925 8.74146C14.9572 9.32048 13.0258 9.66166 10.9308 9.66166C8.83576 9.66166 6.90439 9.32048 5.46904 8.74146C4.75336 8.45275 4.12412 8.09014 3.6617 7.64911C3.19745 7.20633 2.85352 6.63422 2.85352 5.95583C2.85352 5.27744 3.19745 4.70533 3.6617 4.26256C4.12412 3.82152 4.75336 3.45891 5.46904 3.1702Z" fill="black"/>
</svg>
