<svg width="24" height="24" viewBox="0 0 24 24" fill="none" xmlns="http://www.w3.org/2000/svg">
<path fill-rule="evenodd" clip-rule="evenodd" d="M17.5012 14.8003C17.6875 14.4303 18.1385 14.2816 18.5084 14.468C19.7622 15.0997 20.6267 16.4001 20.6267 17.9046C20.6267 20.0288 18.9042 21.7497 16.7806 21.7497C14.6567 21.7497 12.9355 20.0285 12.9355 17.9046C12.9355 16.5079 13.6795 15.287 14.79 14.6139C15.1442 14.3992 15.6054 14.5123 15.8201 14.8666C16.0348 15.2208 15.9217 15.682 15.5675 15.8967C14.8869 16.3092 14.4355 17.0537 14.4355 17.9046C14.4355 19.2001 15.4852 20.2497 16.7806 20.2497C18.0764 20.2497 19.1267 19.1998 19.1267 17.9046C19.1267 16.9891 18.6019 16.1947 17.8334 15.8075C17.4635 15.6211 17.3148 15.1702 17.5012 14.8003Z" fill="black"/>
<path fill-rule="evenodd" clip-rule="evenodd" d="M17.4219 15.1377C17.4219 14.7235 17.7577 14.3877 18.1719 14.3877H19.8757C20.2899 14.3877 20.6257 14.7235 20.6257 15.1377C20.6257 15.5519 20.2899 15.8877 19.8757 15.8877H18.9219V16.8513C18.9219 17.2655 18.5861 17.6013 18.1719 17.6013C17.7577 17.6013 17.4219 17.2655 17.4219 16.8513V15.1377Z" fill="black"/>
<path fill-rule="evenodd" clip-rule="evenodd" d="M4.125 5.09766C4.53921 5.09766 4.875 5.43344 4.875 5.84766V11.6331C4.87537 11.6358 4.87589 11.6393 4.8766 11.6435C4.88093 11.669 4.89228 11.7216 4.92049 11.7938C4.97537 11.9341 5.10141 12.1676 5.39731 12.4288C5.99466 12.956 7.35188 13.651 10.3671 13.7878C10.7809 13.8065 11.1011 14.1572 11.0823 14.571C11.0635 14.9848 10.7129 15.305 10.2991 15.2862C7.10621 15.1414 5.35938 14.396 4.40471 13.5534C3.9246 13.1296 3.66264 12.6958 3.52351 12.3401C3.45472 12.1642 3.41757 12.0115 3.39765 11.8939C3.38769 11.8351 3.38204 11.785 3.37887 11.745C3.37728 11.725 3.37631 11.7075 3.37574 11.6927L3.37516 11.6725L3.37504 11.664L3.37501 11.6601L3.375 11.6582C3.375 11.6573 3.375 11.6564 4.125 11.6564H3.375V5.84766C3.375 5.43344 3.71079 5.09766 4.125 5.09766Z" fill="black"/>
<path fill-rule="evenodd" clip-rule="evenodd" d="M18.8008 5.09766C19.215 5.09766 19.5508 5.43344 19.5508 5.84766V11.4635C19.5508 11.8777 19.215 12.2135 18.8008 12.2135C18.3866 12.2135 18.0508 11.8777 18.0508 11.4635V5.84766C18.0508 5.43344 18.3866 5.09766 18.8008 5.09766Z" fill="black"/>
<path fill-rule="evenodd" clip-rule="evenodd" d="M4.125 10.9062C4.53921 10.9062 4.875 11.242 4.875 11.6562V17.4426C4.87536 17.4452 4.87587 17.4486 4.87655 17.4526C4.8808 17.4778 4.89199 17.5299 4.91984 17.6014C4.97401 17.7406 5.09846 17.9723 5.39059 18.2319C5.9801 18.7557 7.32043 19.4488 10.3006 19.5932C10.7144 19.6133 11.0335 19.965 11.0134 20.3787C10.9934 20.7924 10.6417 21.1115 10.228 21.0915C7.0689 20.9384 5.33956 20.1932 4.39424 19.3532C3.91896 18.9309 3.6597 18.4993 3.52202 18.1456C3.45394 17.9707 3.41716 17.819 3.39744 17.702C3.38758 17.6436 3.38197 17.5938 3.37883 17.5541C3.37726 17.5342 3.3763 17.5168 3.37574 17.502L3.37516 17.4819L3.37504 17.4734L3.37501 17.4695L3.375 17.4677C3.375 17.4668 3.375 17.4659 4.125 17.4659H3.375V11.6562C3.375 11.242 3.71079 10.9062 4.125 10.9062Z" fill="black"/>
<path fill-rule="evenodd" clip-rule="evenodd" d="M5.21844 5.16833C4.94113 5.43282 4.875 5.6383 4.875 5.77614C4.875 5.91398 4.94113 6.11947 5.21844 6.38395C5.49759 6.65018 5.9414 6.9245 6.55169 7.17069C7.76829 7.66147 9.50056 7.98197 11.4523 7.98197C13.404 7.98197 15.1363 7.66147 16.3529 7.17069C16.9631 6.9245 17.407 6.65018 17.6861 6.38395C17.9634 6.11947 18.0295 5.91398 18.0295 5.77614C18.0295 5.6383 17.9634 5.43282 17.6861 5.16833C17.407 4.9021 16.9631 4.62779 16.3529 4.38159C15.1363 3.89082 13.404 3.57031 11.4523 3.57031C9.50056 3.57031 7.76829 3.89082 6.55169 4.38159C5.9414 4.62779 5.49759 4.9021 5.21844 5.16833ZM5.99053 2.99052C7.42588 2.41149 9.35724 2.07031 11.4523 2.07031C13.5473 2.07031 15.4787 2.41149 16.914 2.99052C17.6297 3.27923 18.2589 3.64184 18.7214 4.08287C19.1856 4.52565 19.5295 5.09775 19.5295 5.77614C19.5295 6.45453 19.1856 7.02664 18.7214 7.46942C18.2589 7.91045 17.6297 8.27306 16.914 8.56177C15.4787 9.14079 13.5473 9.48197 11.4523 9.48197C9.35724 9.48197 7.42588 9.14079 5.99053 8.56177C5.27484 8.27306 4.6456 7.91045 4.18318 7.46942C3.71893 7.02664 3.375 6.45453 3.375 5.77614C3.375 5.09775 3.71893 4.52565 4.18318 4.08287C4.6456 3.64184 5.27484 3.27923 5.99053 2.99052Z" fill="black"/>
</svg>
