<svg width="24" height="24" viewBox="0 0 24 24" fill="none" xmlns="http://www.w3.org/2000/svg">
<path d="M21 12C21 7.02908 16.9709 3 12 3C7.02908 3 3 7.02908 3 12C3 16.9699 7.02908 21 12 21C16.9709 21 21 16.9699 21 12Z" stroke="black" stroke-width="1.5" stroke-linecap="round" stroke-linejoin="round"/>
<path d="M13.0723 11.0992L15.5757 8.5957M12 10.6895C12.7239 10.6895 13.3106 11.2762 13.3106 12C13.3106 12.7239 12.7239 13.3106 12 13.3106C11.2762 13.3106 10.6895 12.7239 10.6895 12C10.6895 11.2762 11.2762 10.6895 12 10.6895Z" stroke="black" stroke-width="1.5" stroke-linecap="round" stroke-linejoin="round"/>
<path d="M6.84375 12.0005C6.84375 9.1536 9.15164 6.8457 11.9986 6.8457" stroke="black" stroke-width="1.5" stroke-linecap="round" stroke-linejoin="round"/>
<path d="M17.1548 12C17.1548 14.8469 14.8469 17.1548 12 17.1548" stroke="black" stroke-width="1.5" stroke-linecap="round" stroke-linejoin="round"/>
<path d="M9.01061 16.2002C8.59612 15.9044 8.22639 15.5493 7.91602 15.1465" stroke="black" stroke-width="1.5" stroke-linecap="round" stroke-linejoin="round"/>
</svg>
