<svg width="24" height="24" viewBox="0 0 24 24" fill="none" xmlns="http://www.w3.org/2000/svg">
<path d="M21 6.32972C21 4.67846 19.6569 3.33984 18 3.33984H6C4.34315 3.33984 3 4.67846 3 6.32972V15.0834C3 16.7347 4.34315 18.0733 6 18.0733H8.16198C8.5598 18.0733 8.94134 18.2308 9.22264 18.5111L10.9393 20.222C11.5251 20.8058 12.4749 20.8058 13.0607 20.222L14.7774 18.5111C15.0587 18.2308 15.4402 18.0733 15.838 18.0733H18C19.6569 18.0733 21 16.7347 21 15.0834V6.32972Z" stroke="black" stroke-width="1.5" stroke-linecap="round" stroke-linejoin="round"/>
<path d="M8.85077 13.4486C9.78288 12.7802 10.4756 11.7829 10.7773 10.6747C10.9884 9.89922 10.9923 9.00992 10.5282 8.35219C10.0845 7.72268 9.22731 7.41619 8.48493 7.62246C7.12958 7.99706 6.68883 9.72019 7.60537 10.7515C7.95369 11.1437 8.4645 11.3869 8.98893 11.4112" stroke="black" stroke-width="1.5" stroke-linecap="round" stroke-linejoin="round"/>
<path d="M14.8137 13.4486C15.7467 12.7802 16.4385 11.7829 16.7401 10.6747C16.9513 9.89922 16.9552 9.00992 16.4911 8.35219C16.0474 7.72268 15.1902 7.41619 14.4478 7.62246C13.0925 7.99706 12.6517 9.72019 13.5683 10.7515C13.9166 11.1437 14.4274 11.3869 14.9518 11.4112" stroke="black" stroke-width="1.5" stroke-linecap="round" stroke-linejoin="round"/>
</svg>
