<svg width="24" height="24" viewBox="0 0 24 24" fill="none" xmlns="http://www.w3.org/2000/svg">
<path d="M21 6.32972C21 4.67846 19.6569 3.33984 18 3.33984H6C4.34315 3.33984 3 4.67846 3 6.32972V15.0834C3 16.7347 4.34315 18.0733 6 18.0733H8.16198C8.5598 18.0733 8.94134 18.2308 9.22264 18.5111L10.9393 20.222C11.5251 20.8058 12.4749 20.8058 13.0607 20.222L14.7774 18.5111C15.0587 18.2308 15.4402 18.0733 15.838 18.0733H18C19.6569 18.0733 21 16.7347 21 15.0834V6.32972Z" stroke="black" stroke-width="1.5" stroke-linecap="round" stroke-linejoin="round"/>
<path d="M9.52513 8.31464L14.4749 13.2477M15.5 10.7812C15.5 12.7076 13.933 14.2694 12 14.2694C10.067 14.2694 8.5 12.7076 8.5 10.7812C8.5 8.85469 10.067 7.29297 12 7.29297C13.933 7.29297 15.5 8.85469 15.5 10.7812Z" stroke="black" stroke-width="1.5" stroke-linecap="round" stroke-linejoin="round"/>
</svg>
