<svg width="24" height="24" viewBox="0 0 24 24" fill="none" xmlns="http://www.w3.org/2000/svg">
<path d="M3 10.5217C3 6.66581 6.09693 3.54 9.91719 3.54H14.0828C17.9031 3.54 21 6.66581 21 10.5217C21 14.3776 17.9031 17.5034 14.0828 17.5034H13.0414V20.54C13.0414 20.54 7.06525 18.6321 4.39456 14.7263C3.51916 13.5568 3 12.1004 3 10.5217Z" stroke="black" stroke-width="1.5" stroke-linecap="round" stroke-linejoin="round"/>
<path d="M3 10.5217C3 6.66581 6.09693 3.54 9.91719 3.54H14.0828C17.9031 3.54 21 6.66581 21 10.5217C21 14.3776 17.9031 17.5034 14.0828 17.5034H13.0414V20.54C13.0414 20.54 7.06525 18.6321 4.39456 14.7263C3.51916 13.5568 3 12.1004 3 10.5217Z" stroke="black" stroke-width="1.5" stroke-linecap="round" stroke-linejoin="round"/>
<path d="M3 10.5217C3 6.66581 6.09693 3.54 9.91719 3.54H14.0828C17.9031 3.54 21 6.66581 21 10.5217C21 14.3776 17.9031 17.5034 14.0828 17.5034H13.0414V20.54C13.0414 20.54 7.06525 18.6321 4.39456 14.7263C3.51916 13.5568 3 12.1004 3 10.5217Z" stroke="black" stroke-width="1.5" stroke-linecap="round" stroke-linejoin="round"/>
<path d="M10.3926 12.1457C14.0463 15.7984 15.0858 14.216 15.2498 14.0845C16.5557 12.7786 15.9632 12.572 14.932 11.5412C14.3564 10.9661 13.946 11.2976 13.4278 11.4646C12.9255 11.6264 12.6653 11.5027 11.8518 10.6865M10.3917 12.1448C6.739 8.49115 8.32144 7.45157 8.45286 7.28761C9.7588 5.98167 9.96538 6.57422 10.9962 7.60544C11.5713 8.18101 11.2398 8.59145 11.0728 9.10961C10.911 9.61186 11.0347 9.87208 11.8509 10.6856" stroke="black" stroke-width="1.5" stroke-linecap="round" stroke-linejoin="round"/>
</svg>
