<svg width="24" height="24" viewBox="0 0 24 24" fill="none" xmlns="http://www.w3.org/2000/svg">
<path d="M3 10.4864C3 6.64355 6.09693 3.52828 9.91719 3.52828H14.0828C17.9031 3.52828 21 6.64355 21 10.4864C21 14.3293 17.9031 17.4446 14.0828 17.4446H13.0414V20.471C13.0414 20.471 7.06525 18.5695 4.39456 14.6769C3.51916 13.5113 3 12.0599 3 10.4864Z" stroke="black" stroke-width="1.5" stroke-linecap="round" stroke-linejoin="round"/>
<path d="M3 10.4864C3 6.64355 6.09693 3.52828 9.91719 3.52828H14.0828C17.9031 3.52828 21 6.64355 21 10.4864C21 14.3293 17.9031 17.4446 14.0828 17.4446H13.0414V20.471C13.0414 20.471 7.06525 18.5695 4.39456 14.6769C3.51916 13.5113 3 12.0599 3 10.4864Z" stroke="black" stroke-width="1.5" stroke-linecap="round" stroke-linejoin="round"/>
<path d="M3 10.4864C3 6.64355 6.09693 3.52828 9.91719 3.52828H14.0828C17.9031 3.52828 21 6.64355 21 10.4864C21 14.3293 17.9031 17.4446 14.0828 17.4446H13.0414V20.471C13.0414 20.471 7.06525 18.5695 4.39456 14.6769C3.51916 13.5113 3 12.0599 3 10.4864Z" stroke="black" stroke-width="1.5" stroke-linecap="round" stroke-linejoin="round"/>
<path d="M12.0001 7.34961L14.5313 9.87472M12.0001 7.34961L9.46875 9.87472M12.0001 7.34961L11.9997 13.6092" stroke="black" stroke-width="1.5" stroke-linecap="round" stroke-linejoin="round"/>
</svg>
