<svg width="24" height="24" viewBox="0 0 24 24" fill="none" xmlns="http://www.w3.org/2000/svg">
<path fill-rule="evenodd" clip-rule="evenodd" d="M12.0003 14.3507C12.0003 14.3507 15.0103 13.4392 15.0103 10.9263C15.0103 8.41441 15.1193 8.49516 14.877 8.25097C14.6358 8.00776 12.3953 7.22852 12.0003 7.22852C11.6054 7.22852 9.36393 8.00971 9.12267 8.25097C8.8814 8.49321 8.99036 8.41441 8.99036 10.9263C8.99036 13.4392 12.0003 14.3507 12.0003 14.3507Z" stroke="black" stroke-width="1.5" stroke-linecap="round" stroke-linejoin="round"/>
<path d="M21 6.32972C21 4.67846 19.6569 3.33984 18 3.33984H6C4.34315 3.33984 3 4.67846 3 6.32972V15.0834C3 16.7347 4.34315 18.0733 6 18.0733H8.16198C8.5598 18.0733 8.94134 18.2308 9.22264 18.5111L10.9393 20.222C11.5251 20.8058 12.4749 20.8058 13.0607 20.222L14.7774 18.5111C15.0587 18.2308 15.4402 18.0733 15.838 18.0733H18C19.6569 18.0733 21 16.7347 21 15.0834V6.32972Z" stroke="black" stroke-width="1.5" stroke-linecap="round" stroke-linejoin="round"/>
</svg>
