<svg width="24" height="24" viewBox="0 0 24 24" fill="none" xmlns="http://www.w3.org/2000/svg">
<path d="M14.0828 3.52832H9.91719C6.09693 3.52832 3 6.6436 3 10.4865C3 12.0599 3.51916 13.5113 4.39456 14.6769C7.06525 18.5696 13.0414 20.471 13.0414 20.471V17.4446H14.0828C15.0219 17.4446 15.9173 17.2564 16.7337 16.9154" stroke="black" stroke-width="1.5" stroke-linecap="round" stroke-linejoin="round"/>
<path d="M14.0828 3.52832H9.91719C6.09693 3.52832 3 6.6436 3 10.4865C3 12.0599 3.51916 13.5113 4.39456 14.6769C7.06525 18.5696 13.0414 20.471 13.0414 20.471V17.4446H14.0828C15.0219 17.4446 15.9173 17.2564 16.7337 16.9154" stroke="black" stroke-width="1.5" stroke-linecap="round" stroke-linejoin="round"/>
<path d="M14.0828 3.52832H9.91719C6.09693 3.52832 3 6.6436 3 10.4865C3 12.0599 3.51916 13.5113 4.39456 14.6769C7.06525 18.5696 13.0414 20.471 13.0414 20.471V17.4446H14.0828C15.0219 17.4446 15.9173 17.2564 16.7337 16.9154" stroke="black" stroke-width="1.5" stroke-linecap="round" stroke-linejoin="round"/>
<path d="M18.3237 7.65177L18.367 5.02751L21.0001 4.98438" stroke="black" stroke-width="1.5" stroke-linecap="round" stroke-linejoin="round"/>
<path d="M18.3867 5.03906C19.9791 6.31384 20.9998 8.28026 20.9998 10.4865C20.9998 11.9834 20.53 13.3699 19.7305 14.5048" stroke="black" stroke-width="1.5" stroke-linecap="round" stroke-linejoin="round"/>
<path d="M18.3867 5.03906C19.9791 6.31384 20.9998 8.28026 20.9998 10.4865C20.9998 11.9834 20.53 13.3699 19.7305 14.5048" stroke="black" stroke-width="1.5" stroke-linecap="round" stroke-linejoin="round"/>
<path d="M18.3867 5.03906C19.9791 6.31384 20.9998 8.28026 20.9998 10.4865C20.9998 11.9834 20.53 13.3699 19.7305 14.5048" stroke="black" stroke-width="1.5" stroke-linecap="round" stroke-linejoin="round"/>
</svg>
