<svg width="24" height="24" viewBox="0 0 24 24" fill="none" xmlns="http://www.w3.org/2000/svg">
<path d="M19.3375 18.0919L20.9998 19.7514M17.2738 12.8398C18.9477 12.8398 20.3054 14.1975 20.3054 15.8714C20.3054 17.5454 18.9477 18.903 17.2738 18.903C15.5999 18.903 14.2422 17.5454 14.2422 15.8714C14.2422 14.1975 15.5999 12.8398 17.2738 12.8398Z" stroke="black" stroke-width="1.5" stroke-linecap="round" stroke-linejoin="round"/>
<path d="M7.66309 8.43555H13.2202M7.66309 12.253H10.0619" stroke="black" stroke-width="1.5" stroke-linecap="round" stroke-linejoin="round"/>
<path d="M13.0607 20.2221C12.4749 20.8059 11.5251 20.8059 10.9393 20.2221L9.22264 18.5112C8.94134 18.2308 8.5598 18.0733 8.16198 18.0733H6C4.34315 18.0733 3 16.7347 3 15.0834V6.32973C3 4.67846 4.34315 3.33984 6 3.33984H18C19.6569 3.33984 21 4.67846 21 6.32973V10.7066" stroke="black" stroke-width="1.5" stroke-linecap="round" stroke-linejoin="round"/>
</svg>
