<svg width="24" height="24" viewBox="0 0 24 24" fill="none" xmlns="http://www.w3.org/2000/svg">
<path d="M21 6.32973C21 4.67846 19.6569 3.33984 18 3.33984H6C4.34315 3.33984 3 4.67846 3 6.32973V15.0834C3 16.7347 4.34315 18.0733 6 18.0733H8.16198C8.5598 18.0733 8.94134 18.2308 9.22264 18.5112L10.9393 20.2221C11.5251 20.8059 12.4749 20.8059 13.0607 20.2221L14.7774 18.5112C15.0587 18.2308 15.4402 18.0733 15.838 18.0733H18C19.6569 18.0733 21 16.7347 21 15.0834V6.32973Z" stroke="black" stroke-width="1.5" stroke-linecap="round" stroke-linejoin="round"/>
<path d="M13.8103 8.07324H11.1966C10.4187 8.07324 9.78906 8.70178 9.78906 9.47608C9.78906 10.2504 10.4187 10.8789 11.1966 10.8789H12.8048C13.5827 10.8789 14.2124 11.5074 14.2124 12.2818C14.2124 13.0571 13.5827 13.6846 12.8048 13.6846H10.1911" stroke="black" stroke-width="1.44" stroke-linecap="round" stroke-linejoin="round"/>
<path d="M12 13.6839V14.8617M12 6.88867V8.07718" stroke="black" stroke-width="1.44" stroke-linecap="round" stroke-linejoin="round"/>
</svg>
