<svg width="24" height="24" viewBox="0 0 24 24" fill="none" xmlns="http://www.w3.org/2000/svg">
<path d="M21 6.32972C21 4.67846 19.6569 3.33984 18 3.33984H6C4.34315 3.33984 3 4.67846 3 6.32972V15.0834C3 16.7347 4.34315 18.0733 6 18.0733H8.16198C8.5598 18.0733 8.94134 18.2308 9.22264 18.5111L10.9393 20.222C11.5251 20.8058 12.4749 20.8058 13.0607 20.222L14.7774 18.5111C15.0587 18.2308 15.4402 18.0733 15.838 18.0733H18C19.6569 18.0733 21 16.7347 21 15.0834V6.32972Z" stroke="black" stroke-width="1.5" stroke-linecap="round" stroke-linejoin="round"/>
<path d="M10.21 10.3828C10.21 9.55439 9.53839 8.88281 8.70996 8.88281C7.88153 8.88281 7.20996 9.55439 7.20996 10.3828" stroke="black" stroke-width="1.5" stroke-linecap="round" stroke-linejoin="round"/>
<path d="M16.79 10.3828C16.79 9.55439 16.1185 8.88281 15.29 8.88281C14.4616 8.88281 13.79 9.55439 13.79 10.3828" stroke="black" stroke-width="1.5" stroke-linecap="round" stroke-linejoin="round"/>
</svg>
