<svg width="24" height="24" viewBox="0 0 24 24" fill="none" xmlns="http://www.w3.org/2000/svg">
<path fill-rule="evenodd" clip-rule="evenodd" d="M12.3575 8.06358L12.9467 9.24199C13.0052 9.35819 13.1168 9.43778 13.2458 9.45517L14.5642 9.64547C14.7783 9.67383 14.9293 9.86962 14.9009 10.0837C14.889 10.1715 14.8479 10.253 14.7847 10.3134L13.8305 11.2301C13.7372 11.3198 13.6942 11.4497 13.7161 11.5769L13.9421 12.8705C13.9769 13.0865 13.8296 13.2896 13.6136 13.3243C13.5286 13.3381 13.4416 13.3243 13.3657 13.2841L12.1873 12.6729C12.0711 12.6135 11.9339 12.6135 11.8177 12.6729L10.6383 13.2841C10.4453 13.3866 10.2056 13.3125 10.1031 13.1194C10.0629 13.0435 10.0482 12.9566 10.0629 12.8705L10.2879 11.5769C10.3108 11.4497 10.2678 11.3198 10.1745 11.2301L9.2193 10.3143C9.06376 10.1642 9.05919 9.9172 9.20924 9.76166C9.27054 9.69854 9.35105 9.65736 9.43888 9.64547L10.7582 9.45608C10.8872 9.43778 10.9988 9.35819 11.0574 9.24199L11.6475 8.06358C11.749 7.86779 11.9906 7.79094 12.1864 7.89249C12.2596 7.93 12.319 7.99039 12.3575 8.06358Z" stroke="black" stroke-width="1.5" stroke-linecap="round" stroke-linejoin="round"/>
<path d="M3 10.4859C3 6.64305 6.09693 3.52779 9.91719 3.52779H14.0828C17.9031 3.52779 21 6.64305 21 10.4859C21 14.3288 17.9031 17.4441 14.0828 17.4441H13.0414V20.4704C13.0414 20.4704 7.06525 18.569 4.39456 14.6763C3.51916 13.5108 3 12.0593 3 10.4859Z" stroke="black" stroke-width="1.5" stroke-linecap="round" stroke-linejoin="round"/>
<path d="M3 10.4859C3 6.64305 6.09693 3.52779 9.91719 3.52779H14.0828C17.9031 3.52779 21 6.64305 21 10.4859C21 14.3288 17.9031 17.4441 14.0828 17.4441H13.0414V20.4704C13.0414 20.4704 7.06525 18.569 4.39456 14.6763C3.51916 13.5108 3 12.0593 3 10.4859Z" stroke="black" stroke-width="1.5" stroke-linecap="round" stroke-linejoin="round"/>
<path d="M3 10.4859C3 6.64305 6.09693 3.52779 9.91719 3.52779H14.0828C17.9031 3.52779 21 6.64305 21 10.4859C21 14.3288 17.9031 17.4441 14.0828 17.4441H13.0414V20.4704C13.0414 20.4704 7.06525 18.569 4.39456 14.6763C3.51916 13.5108 3 12.0593 3 10.4859Z" stroke="black" stroke-width="1.5" stroke-linecap="round" stroke-linejoin="round"/>
</svg>
