<svg width="24" height="24" viewBox="0 0 24 24" fill="none" xmlns="http://www.w3.org/2000/svg">
<path d="M14.8789 8.83203L16.9997 10.9455L14.8789 13.0591" stroke="black" stroke-width="1.5" stroke-linecap="round" stroke-linejoin="round"/>
<path d="M9.12061 8.83203L6.99986 10.9455L9.12061 13.0591" stroke="black" stroke-width="1.5" stroke-linecap="round" stroke-linejoin="round"/>
<path d="M12.8009 7.73633L11.1987 13.8732" stroke="black" stroke-width="1.5" stroke-linecap="round" stroke-linejoin="round"/>
<path d="M3 10.4864C3 6.64354 6.09693 3.52828 9.91719 3.52828H14.0828C17.9031 3.52828 21 6.64354 21 10.4864C21 14.3293 17.9031 17.4446 14.0828 17.4446H13.0414V20.4709C13.0414 20.4709 7.06525 18.5695 4.39456 14.6768C3.51916 13.5112 3 12.0598 3 10.4864Z" stroke="black" stroke-width="1.5" stroke-linecap="round" stroke-linejoin="round"/>
<path d="M3 10.4864C3 6.64354 6.09693 3.52828 9.91719 3.52828H14.0828C17.9031 3.52828 21 6.64354 21 10.4864C21 14.3293 17.9031 17.4446 14.0828 17.4446H13.0414V20.4709C13.0414 20.4709 7.06525 18.5695 4.39456 14.6768C3.51916 13.5112 3 12.0598 3 10.4864Z" stroke="black" stroke-width="1.5" stroke-linecap="round" stroke-linejoin="round"/>
<path d="M3 10.4864C3 6.64354 6.09693 3.52828 9.91719 3.52828H14.0828C17.9031 3.52828 21 6.64354 21 10.4864C21 14.3293 17.9031 17.4446 14.0828 17.4446H13.0414V20.4709C13.0414 20.4709 7.06525 18.5695 4.39456 14.6768C3.51916 13.5112 3 12.0598 3 10.4864Z" stroke="black" stroke-width="1.5" stroke-linecap="round" stroke-linejoin="round"/>
</svg>
