<svg width="24" height="24" viewBox="0 0 24 24" fill="none" xmlns="http://www.w3.org/2000/svg">
<path d="M16.8307 9.55516C16.8307 8.28637 15.7987 7.25781 14.5256 7.25781H5.30512C4.03204 7.25781 3 8.28637 3 9.55516V16.2813C3 17.55 4.03204 18.5786 5.30512 18.5786H6.96633C7.272 18.5786 7.56516 18.6996 7.78131 18.915L9.10037 20.2297C9.55047 20.6782 10.2802 20.6782 10.7303 20.2297L12.0494 18.915C12.2655 18.6996 12.5587 18.5786 12.8644 18.5786H14.5256C15.7987 18.5786 16.8307 17.55 16.8307 16.2813V9.55516Z" stroke="black" stroke-width="1.5" stroke-linecap="round" stroke-linejoin="round"/>
<path d="M16.8758 14.7554H18.695C19.9681 14.7554 21.0001 13.7268 21.0001 12.458V5.73192C21.0001 4.46313 19.9681 3.43457 18.695 3.43457H9.47455C8.20147 3.43457 7.16943 4.46313 7.16943 5.73192V7.15142" stroke="black" stroke-width="1.5" stroke-linecap="round" stroke-linejoin="round"/>
</svg>
