<svg width="24" height="24" viewBox="0 0 24 24" fill="none" xmlns="http://www.w3.org/2000/svg">
<path fill-rule="evenodd" clip-rule="evenodd" d="M12.3802 8.1046L13.0067 9.35764C13.069 9.48119 13.1877 9.56583 13.3248 9.58432L14.7267 9.78667C14.9544 9.81683 15.1149 10.025 15.0847 10.2527C15.0721 10.3461 15.0283 10.4326 14.9612 10.4969L13.9465 11.4717C13.8473 11.567 13.8015 11.7051 13.8249 11.8404L14.0652 13.216C14.1021 13.4456 13.9455 13.6616 13.7159 13.6985C13.6254 13.7131 13.533 13.6985 13.4523 13.6557L12.1992 13.0059C12.0757 12.9426 11.9298 12.9426 11.8062 13.0059L10.5522 13.6557C10.3469 13.7647 10.092 13.6859 9.98307 13.4806C9.94026 13.3999 9.9247 13.3074 9.94026 13.216L10.1796 11.8404C10.2039 11.7051 10.1582 11.567 10.059 11.4717L9.04329 10.4978C8.8779 10.3383 8.87304 10.0756 9.03259 9.91022C9.09777 9.8431 9.18338 9.79932 9.27677 9.78667L10.6796 9.58529C10.8168 9.56583 10.9355 9.48119 10.9978 9.35764L11.6253 8.1046C11.7332 7.89641 11.9901 7.81469 12.1983 7.92267C12.2761 7.96256 12.3393 8.02677 12.3802 8.1046Z" stroke="black" stroke-width="1.5" stroke-linecap="round" stroke-linejoin="round"/>
<path d="M21 6.32972C21 4.67846 19.6569 3.33984 18 3.33984H6C4.34315 3.33984 3 4.67846 3 6.32972V15.0834C3 16.7347 4.34315 18.0733 6 18.0733H8.16198C8.5598 18.0733 8.94134 18.2308 9.22264 18.5111L10.9393 20.222C11.5251 20.8058 12.4749 20.8058 13.0607 20.222L14.7774 18.5111C15.0587 18.2308 15.4402 18.0733 15.838 18.0733H18C19.6569 18.0733 21 16.7347 21 15.0834V6.32972Z" stroke="black" stroke-width="1.5" stroke-linecap="round" stroke-linejoin="round"/>
</svg>
