<svg width="24" height="24" viewBox="0 0 24 24" fill="none" xmlns="http://www.w3.org/2000/svg">
<path d="M8.78661 4.91602H6.43876C4.9031 4.91602 3.6582 6.15672 3.6582 7.68721V15.8006C3.6582 17.3311 4.9031 18.5718 6.43877 18.5718H8.4426C8.81133 18.5718 9.16495 18.7178 9.42568 18.9776L11.0168 20.5634C11.5597 21.1045 12.44 21.1045 12.983 20.5634L14.5741 18.9776C14.8348 18.7178 15.1884 18.5718 15.5572 18.5718H17.561C19.0967 18.5718 20.3416 17.3311 20.3416 15.8006V13.7723" stroke="black" stroke-width="1.5" stroke-linecap="round" stroke-linejoin="round"/>
<path d="M13.543 6.80254L11.7117 4.91641L13.543 3.03027" stroke="black" stroke-width="1.5" stroke-linecap="round" stroke-linejoin="round"/>
<path d="M12 4.91602H17.5611C19.0968 4.91602 20.3417 6.15672 20.3417 7.68721V10.7864" stroke="black" stroke-width="1.5" stroke-linecap="round" stroke-linejoin="round"/>
</svg>
