<svg width="24" height="24" viewBox="0 0 24 24" fill="none" xmlns="http://www.w3.org/2000/svg">
<path d="M7.2536 15.4543H10.2527M11.0874 16.9837L8.75342 11.623L6.41943 16.9837" stroke="black" stroke-width="1.5" stroke-linecap="round" stroke-linejoin="round"/>
<path d="M10.4484 7.64549C8.50753 7.43506 6.4919 8.07517 5.00584 9.56585C2.96645 11.6129 2.52479 14.6447 3.66862 17.124C3.81511 17.4911 3.92913 17.7858 3.92913 18.0718C3.92913 18.8712 3.16057 19.861 3.67295 20.3752C4.18532 20.8893 5.17182 20.1181 5.9642 20.1138C6.24853 20.1138 6.54802 20.2325 6.91317 20.3802C9.38412 21.5272 12.4064 21.0848 14.4458 19.0377C15.939 17.5395 16.5775 15.5065 16.359 13.551" stroke="black" stroke-width="1.5" stroke-linecap="round" stroke-linejoin="round"/>
<path d="M17.9198 13.0207C15.9812 13.9203 13.6106 13.5733 12.0105 11.9677C9.96766 9.91801 9.96369 6.59098 12.0105 4.53729C14.0533 2.48757 17.3725 2.48757 19.4159 4.53729C21.0155 6.14287 21.3619 8.52143 20.4647 10.4666C20.3498 10.754 20.2604 10.9857 20.2604 11.2101C20.2604 11.8371 20.8632 12.6135 20.4613 13.0167C20.0594 13.42 19.2851 12.8151 18.6642 12.8117C18.4406 12.8117 18.2063 12.9048 17.9198 13.0207Z" stroke="black" stroke-width="1.5" stroke-linecap="round" stroke-linejoin="round"/>
<path d="M13.6826 6.63203H17.7438M15.7133 5.93164V6.63211M14.8611 8.21141C15.2358 8.89275 16.0214 9.92073 17.4558 10.2423M16.9626 6.63203C16.9989 6.70734 16.8149 9.67654 13.8676 10.5808" stroke="black" stroke-width="1.5" stroke-linecap="round" stroke-linejoin="round"/>
</svg>
