<svg width="24" height="24" viewBox="0 0 24 24" fill="none" xmlns="http://www.w3.org/2000/svg">
<path d="M16.4024 11.0576V12.2029C16.4024 12.3622 16.5489 12.4818 16.7037 12.4416C18.8491 11.8844 20.7382 9.98214 20.9803 7.71868C21.0088 7.45296 21.004 7.19517 20.9844 6.92975C20.7696 4.88228 19.0292 3.28613 16.914 3.28613C14.7988 3.28613 13.0583 4.88228 12.8436 6.92975C12.8239 7.19532 12.8187 7.45296 12.8497 7.71868C13.062 9.53638 14.4501 10.9613 16.4024 11.0576Z" stroke="black" stroke-width="1.5" stroke-linecap="round" stroke-linejoin="round"/>
<path d="M8.64314 19.0054V20.411C8.64314 20.6064 8.46337 20.7532 8.2733 20.7039C5.64042 20.02 3.32198 17.6855 3.02483 14.9076C2.98995 14.5815 2.99579 14.2652 3.01992 13.9394C3.28344 11.4266 5.41939 9.46777 8.0153 9.46777C10.6112 9.46777 12.7472 11.4266 13.0107 13.9394C13.0348 14.2653 13.0413 14.5815 13.0032 14.9076C12.7427 17.1384 11.0391 18.8871 8.64314 19.0054Z" stroke="black" stroke-width="1.5" stroke-linecap="round" stroke-linejoin="round"/>
<path d="M6.10156 14.6554L7.37763 15.9314L9.9292 13.3799" stroke="black" stroke-width="1.5" stroke-linecap="round" stroke-linejoin="round"/>
<path d="M15.9192 8.19493L17.9085 6.20557M17.9083 8.19493L15.9189 6.20557" stroke="black" stroke-width="1.5" stroke-linecap="round" stroke-linejoin="round"/>
</svg>
