<svg width="24" height="24" viewBox="0 0 24 24" fill="none" xmlns="http://www.w3.org/2000/svg">
<path d="M14.8096 11.9444V12.0139M15.0925 11.9593C15.0925 12.1159 14.965 12.2429 14.8079 12.2429C14.6507 12.2429 14.5234 12.1159 14.5234 11.9593C14.5234 11.8027 14.6507 11.6758 14.8079 11.6758C14.965 11.6758 15.0925 11.8027 15.0925 11.9593Z" stroke="black" stroke-width="1.5" stroke-linecap="round" stroke-linejoin="round"/>
<path d="M9.19436 11.9444V12.0139M9.47723 11.9593C9.47723 12.1159 9.34975 12.2429 9.19263 12.2429C9.03551 12.2429 8.9082 12.1159 8.9082 11.9593C8.9082 11.8027 9.03551 11.6758 9.19263 11.6758C9.34975 11.6758 9.47723 11.8027 9.47723 11.9593Z" stroke="black" stroke-width="1.5" stroke-linecap="round" stroke-linejoin="round"/>
<path d="M12 21C16.9706 21 21 16.9706 21 12C21 7.02944 16.9706 3 12 3C7.02944 3 3 7.02944 3 12C3 14.149 3.75317 16.122 5.00993 17.6696C5.16017 17.8546 5.17217 18.1188 5.0287 18.3091L3.96627 19.7184C3.56888 20.2456 3.94494 21 4.60508 21H12Z" stroke="black" stroke-width="1.5" stroke-linejoin="round"/>
</svg>
