<svg width="24" height="24" viewBox="0 0 24 24" fill="none" xmlns="http://www.w3.org/2000/svg">
<path d="M12.0001 21.0001C10.58 21.0001 9.23677 20.6712 8.04233 20.0855C6.96586 19.5682 5.78685 20.0535 4.70879 20.3254C4.11717 20.4747 3.52546 19.883 3.67471 19.2914C3.93662 18.2125 4.43146 17.0333 3.9147 15.9578C3.32891 14.7634 3 13.4201 3 12C3 7.02944 7.02944 3 12 3C16.9706 3 21.0001 7.02951 21.0001 12.0001" stroke="black" stroke-width="1.5" stroke-linecap="round" stroke-linejoin="round"/>
<path d="M17.3052 13L20.109 15.8039C21.2977 16.9925 21.2977 18.9198 20.109 20.1085C18.9204 21.2972 16.9931 21.2972 15.8044 20.1085L13.852 18.156C13.0624 17.3664 13.0624 16.0861 13.852 15.2965C14.6416 14.5069 15.9219 14.5069 16.7115 15.2965L18.616 17.201C19.0144 17.5995 19.0147 18.2461 18.6163 18.6446C18.2175 19.0434 17.5709 19.0431 17.1724 18.6446L15.3752 16.8474" stroke="black" stroke-width="1.5" stroke-linecap="round" stroke-linejoin="round"/>
<path d="M7.92181 9.21631H13.3139M7.87598 13.0937H10.7936" stroke="black" stroke-width="1.5" stroke-linecap="round" stroke-linejoin="round"/>
</svg>
