<svg width="24" height="24" viewBox="0 0 24 24" fill="none" xmlns="http://www.w3.org/2000/svg">
<path d="M12 15.9867C14.209 15.9867 16 14.2016 16 12.0002C16 9.79877 14.209 8.01367 12 8.01367C9.79114 8.01367 8 9.79877 8 12.0002C8 14.2016 9.79114 15.9867 12 15.9867Z" stroke="black" stroke-width="1.5" stroke-linecap="round" stroke-linejoin="round"/>
<path d="M13.2438 13.0378L11.979 12.2846V10.665" stroke="black" stroke-width="1.5" stroke-linecap="round" stroke-linejoin="round"/>
<path d="M8.04233 20.0855C9.23677 20.6712 10.58 21.0001 12.0001 21.0001C16.9707 21.0001 21.0001 16.9707 21.0001 12.0001C21.0001 7.02951 16.9706 3 12 3C7.02944 3 3 7.02944 3 12C3 13.4201 3.32891 14.7634 3.9147 15.9578C4.43146 17.0333 3.93662 18.2125 3.67471 19.2914C3.52546 19.883 4.11717 20.4747 4.70879 20.3254C5.78685 20.0535 6.96586 19.5682 8.04233 20.0855Z" stroke="black" stroke-width="1.5" stroke-linecap="round" stroke-linejoin="round"/>
</svg>
