<svg width="24" height="24" viewBox="0 0 24 24" fill="none" xmlns="http://www.w3.org/2000/svg">
<path d="M3.48584 3.98877L18.9508 19.4547" stroke="black" stroke-width="1.5" stroke-linecap="round" stroke-linejoin="round"/>
<path d="M16.8369 17.4447C14.0935 19.4737 10.9586 20.4711 10.9586 20.4711V17.4447H9.91724C6.09698 17.4447 3.00005 14.3295 3.00005 10.4866C3.00005 8.55817 3.77991 6.81298 5.0397 5.55273" stroke="black" stroke-width="1.5" stroke-linecap="round" stroke-linejoin="round"/>
<path d="M16.8369 17.4447C14.0935 19.4737 10.9586 20.4711 10.9586 20.4711V17.4447H9.91724C6.09698 17.4447 3.00005 14.3295 3.00005 10.4866C3.00005 8.55817 3.77991 6.81298 5.0397 5.55273" stroke="black" stroke-width="1.5" stroke-linecap="round" stroke-linejoin="round"/>
<path d="M16.8369 17.4447C14.0935 19.4737 10.9586 20.4711 10.9586 20.4711V17.4447H9.91724C6.09698 17.4447 3.00005 14.3295 3.00005 10.4866C3.00005 8.55817 3.77991 6.81298 5.0397 5.55273" stroke="black" stroke-width="1.5" stroke-linecap="round" stroke-linejoin="round"/>
<path d="M8.63863 3.52881H14.0828C17.9031 3.52881 21 6.64408 21 10.487C21 12.0604 20.4808 13.5118 19.6054 14.6774" stroke="black" stroke-width="1.5" stroke-linecap="round" stroke-linejoin="round"/>
<path d="M8.63863 3.52881H14.0828C17.9031 3.52881 21 6.64408 21 10.487C21 12.0604 20.4808 13.5118 19.6054 14.6774" stroke="black" stroke-width="1.5" stroke-linecap="round" stroke-linejoin="round"/>
<path d="M8.63863 3.52881H14.0828C17.9031 3.52881 21 6.64408 21 10.487C21 12.0604 20.4808 13.5118 19.6054 14.6774" stroke="black" stroke-width="1.5" stroke-linecap="round" stroke-linejoin="round"/>
</svg>
