<svg width="24" height="24" viewBox="0 0 24 24" fill="none" xmlns="http://www.w3.org/2000/svg">
<path d="M7.999 12.271V12.3406M7.71613 12.286C7.71613 12.4426 7.84361 12.5695 8.00073 12.5695C8.15785 12.5695 8.28516 12.4426 8.28516 12.286C8.28516 12.1294 8.15785 12.0024 8.00073 12.0024C7.84361 12.0024 7.71613 12.1294 7.71613 12.286Z" stroke="black" stroke-width="1.5" stroke-linecap="round" stroke-linejoin="round"/>
<path d="M12.0049 12.271V12.3406M11.722 12.286C11.722 12.4426 11.8495 12.5695 12.0066 12.5695C12.1637 12.5695 12.291 12.4426 12.291 12.286C12.291 12.1294 12.1637 12.0024 12.0066 12.0024C11.8495 12.0024 11.722 12.1294 11.722 12.286Z" stroke="black" stroke-width="1.5" stroke-linecap="round" stroke-linejoin="round"/>
<path d="M16.0107 12.271V12.3406M15.7279 12.286C15.7279 12.4426 15.8553 12.5695 16.0125 12.5695C16.1696 12.5695 16.2969 12.4426 16.2969 12.286C16.2969 12.1294 16.1696 12.0024 16.0125 12.0024C15.8553 12.0024 15.7279 12.1294 15.7279 12.286Z" stroke="black" stroke-width="1.5" stroke-linecap="round" stroke-linejoin="round"/>
<path d="M15.9578 20.0855C14.7634 20.6712 13.4201 21.0001 12 21.0001C7.02944 21.0001 3 16.9707 3 12.0001C3 7.02951 7.02951 3 12.0001 3C16.9707 3 21.0001 7.02944 21.0001 12C21.0001 13.4201 20.6712 14.7634 20.0855 15.9578C19.5687 17.0333 20.0635 18.2125 20.3254 19.2914C20.4747 19.883 19.883 20.4747 19.2914 20.3254C18.2133 20.0535 17.0343 19.5682 15.9578 20.0855Z" stroke="black" stroke-width="1.5" stroke-linecap="round" stroke-linejoin="round"/>
</svg>
