<svg width="24" height="24" viewBox="0 0 24 24" fill="none" xmlns="http://www.w3.org/2000/svg">
<path fill-rule="evenodd" clip-rule="evenodd" d="M9.76588 10.6493C8.73063 10.6587 7.89404 11.3544 7.89404 12.5384C7.89404 13.3045 8.3506 13.9631 9.00575 14.2598C9.28095 14.3716 9.55607 14.4146 9.7642 14.4146H14.232C14.4409 14.4146 14.716 14.3733 14.9954 14.2615C15.6507 13.9657 16.1056 13.3045 16.1056 12.5384C16.1056 11.3544 15.2689 10.6587 14.2336 10.6493C14.2336 9.90466 13.6498 8.41455 11.9998 8.41455C10.3497 8.41455 9.76588 9.90466 9.76588 10.6493Z" stroke="black" stroke-width="1.5" stroke-linecap="round" stroke-linejoin="round"/>
<path d="M12 21C16.9706 21 21 16.9706 21 12C21 7.02944 16.9706 3 12 3C7.02944 3 3 7.02944 3 12C3 14.149 3.75317 16.122 5.00993 17.6696C5.16017 17.8546 5.17217 18.1188 5.0287 18.3091L3.96627 19.7184C3.56888 20.2456 3.94494 21 4.60508 21H12Z" stroke="black" stroke-width="1.5" stroke-linejoin="round"/>
</svg>
