<svg width="24" height="24" viewBox="0 0 24 24" fill="none" xmlns="http://www.w3.org/2000/svg">
<path fill-rule="evenodd" clip-rule="evenodd" d="M11.7299 7.33421L9.12631 10.9204C8.94053 11.1762 9.12329 11.5345 9.43923 11.5345H11.5691V13.7862C11.5691 14.1608 12.0493 14.3171 12.2695 14.0133L14.8731 10.4274C15.0588 10.1716 14.8761 9.81293 14.5601 9.81293H12.4299V7.56161C12.4299 7.18664 11.9501 7.03075 11.7299 7.33421Z" stroke="black" stroke-width="1.5" stroke-linecap="round" stroke-linejoin="round"/>
<path d="M10.9984 18.2447V20.487C10.9984 20.7987 11.2852 21.033 11.5884 20.9542C15.7884 19.8634 19.4868 16.1392 19.9608 11.708C20.0164 11.1878 20.0071 10.6831 19.9686 10.1635C19.5483 6.15509 16.141 3.03027 11.9999 3.03027C7.85891 3.03027 4.45162 6.15509 4.03125 10.1635C3.9927 10.6834 3.98248 11.1878 4.04323 11.708C4.45879 15.2666 7.17636 18.0562 10.9984 18.2447Z" stroke="black" stroke-width="1.5" stroke-linecap="round" stroke-linejoin="round"/>
</svg>
