<svg width="24" height="24" viewBox="0 0 24 24" fill="none" xmlns="http://www.w3.org/2000/svg">
<path fill-rule="evenodd" clip-rule="evenodd" d="M13.007 15.5H10.9939C10.7442 15.5 10.5421 15.2979 10.5421 15.0481V13.4616H8.95182C8.70299 13.4616 8.5 13.2586 8.5 13.0089V10.9911C8.5 10.7414 8.70299 10.5393 8.95182 10.5393H10.5421V8.95182C10.5421 8.70205 10.7442 8.5 10.9939 8.5H13.007C13.2567 8.5 13.4588 8.70205 13.4588 8.95182V10.5393H15.0482C15.2979 10.5393 15.4999 10.7414 15.4999 10.9911V13.0089C15.4999 13.2586 15.2979 13.4616 15.0482 13.4616H13.4588V15.0481C13.4588 15.2979 13.2567 15.5 13.007 15.5Z" stroke="black" stroke-width="1.5" stroke-linecap="round" stroke-linejoin="round"/>
<path d="M3 12C3 7.02944 7.02944 3 12 3C16.9706 3 21 7.02944 21 12C21 16.9706 16.9706 21 12 21H4C3.44772 21 3 20.5523 3 20V12Z" stroke="black" stroke-width="1.5" stroke-linecap="round" stroke-linejoin="round"/>
</svg>
