<svg width="24" height="24" viewBox="0 0 24 24" fill="none" xmlns="http://www.w3.org/2000/svg">
<path d="M6.58793 17.1323H9.98535M6.56104 14.5715H8.27302" stroke="black" stroke-width="1.5" stroke-linecap="round" stroke-linejoin="round"/>
<path d="M16.6239 8.17773H11.6744M16.6631 11.0413H14.169" stroke="black" stroke-width="1.5" stroke-linecap="round" stroke-linejoin="round"/>
<path d="M12.9889 17.9371C13.1205 17.944 13.2529 17.9475 13.3861 17.9475H19.527C20.0752 17.9475 20.3875 17.321 20.0575 16.8832L19.1752 15.7129C19.0561 15.5549 19.066 15.3355 19.1908 15.1818C20.2344 13.8967 20.8599 12.2583 20.8599 10.4737C20.8599 6.34611 17.5138 3 13.3861 3C9.25849 3 5.91238 6.34611 5.91238 10.4737C5.91238 10.7418 5.92649 11.0065 5.95401 11.2672" stroke="black" stroke-width="1.5" stroke-linejoin="round"/>
<path d="M8.27264 20.9999C11.1075 20.9999 13.4056 18.7018 13.4056 15.8669C13.4056 13.032 11.1075 10.7339 8.27264 10.7339C5.43777 10.7339 3.13965 13.032 3.13965 15.8669C3.13965 17.0925 3.5692 18.2178 4.28598 19.1004C4.37166 19.2059 4.37851 19.3566 4.29668 19.4652L3.69074 20.269C3.4641 20.5696 3.67858 20.9999 4.05508 20.9999H8.27264Z" stroke="black" stroke-width="1.5" stroke-linejoin="round"/>
</svg>
