<svg width="24" height="24" viewBox="0 0 24 24" fill="none" xmlns="http://www.w3.org/2000/svg">
<path d="M15.1205 10.3172L15.9523 10.1781C16.3999 10.1032 16.8085 9.87749 17.11 9.53991L20.696 5.6261C21.125 5.16399 21.0968 4.44116 20.6337 4.01213L19.8691 3.30389C19.406 2.87583 18.6832 2.90307 18.2541 3.36615L14.6283 7.32374C14.351 7.63505 14.1778 8.02517 14.1321 8.43863L14.0397 9.29767C13.9735 9.91154 14.5115 10.4194 15.1205 10.3172Z" stroke="black" stroke-width="1.5" stroke-linecap="round" stroke-linejoin="round"/>
<path d="M7.92181 14.208H13.3139M7.87598 10.3306H10.7936" stroke="black" stroke-width="1.5" stroke-linecap="round" stroke-linejoin="round"/>
<path d="M3 12C3 7.02944 7.02944 3 12 3C16.9706 3 21 7.02944 21 12C21 16.9706 16.9706 21 12 21H4C3.44772 21 3 20.5523 3 20V12Z" stroke="black" stroke-width="1.5" stroke-linecap="round" stroke-linejoin="round"/>
</svg>
