<svg width="24" height="24" viewBox="0 0 24 24" fill="none" xmlns="http://www.w3.org/2000/svg">
<path d="M21 10.5222C21 6.66634 17.9031 3.54053 14.0828 3.54053H9.91719C6.09693 3.54053 3 6.66634 3 10.5222C3 14.3781 6.09693 17.5039 9.91719 17.5039H10.9586V20.5405C10.9586 20.5405 16.9347 18.6326 19.6054 14.7268C20.4808 13.5573 21 12.1009 21 10.5222Z" stroke="black" stroke-width="1.5" stroke-linecap="round" stroke-linejoin="round"/>
<path d="M21 10.5222C21 6.66634 17.9031 3.54053 14.0828 3.54053H9.91719C6.09693 3.54053 3 6.66634 3 10.5222C3 14.3781 6.09693 17.5039 9.91719 17.5039H10.9586V20.5405C10.9586 20.5405 16.9347 18.6326 19.6054 14.7268C20.4808 13.5573 21 12.1009 21 10.5222Z" stroke="black" stroke-width="1.5" stroke-linecap="round" stroke-linejoin="round"/>
<path d="M21 10.5222C21 6.66634 17.9031 3.54053 14.0828 3.54053H9.91719C6.09693 3.54053 3 6.66634 3 10.5222C3 14.3781 6.09693 17.5039 9.91719 17.5039H10.9586V20.5405C10.9586 20.5405 16.9347 18.6326 19.6054 14.7268C20.4808 13.5573 21 12.1009 21 10.5222Z" stroke="black" stroke-width="1.5" stroke-linecap="round" stroke-linejoin="round"/>
</svg>
