<svg width="24" height="24" viewBox="0 0 24 24" fill="none" xmlns="http://www.w3.org/2000/svg">
<path d="M8.85077 14.9452C9.78288 14.2768 10.4756 13.2795 10.7773 12.1713C10.9884 11.3958 10.9923 10.5065 10.5282 9.84878C10.0845 9.21926 9.22731 8.91278 8.48493 9.11905C7.12958 9.49364 6.68883 11.2168 7.60537 12.2481C7.95369 12.6402 8.4645 12.8835 8.98893 12.9078" stroke="black" stroke-width="1.5" stroke-linecap="round" stroke-linejoin="round"/>
<path d="M14.8137 14.9452C15.7467 14.2768 16.4385 13.2795 16.7401 12.1713C16.9513 11.3958 16.9552 10.5065 16.4911 9.84878C16.0474 9.21926 15.1902 8.91278 14.4478 9.11905C13.0925 9.49364 12.6517 11.2168 13.5683 12.2481C13.9166 12.6402 14.4274 12.8835 14.9518 12.9078" stroke="black" stroke-width="1.5" stroke-linecap="round" stroke-linejoin="round"/>
<path d="M12 21C16.9706 21 21 16.9706 21 12C21 7.02944 16.9706 3 12 3C7.02944 3 3 7.02944 3 12C3 14.149 3.75317 16.122 5.00993 17.6696C5.16017 17.8546 5.17217 18.1188 5.0287 18.3091L3.96627 19.7184C3.56888 20.2456 3.94494 21 4.60508 21H12Z" stroke="black" stroke-width="1.5" stroke-linejoin="round"/>
</svg>
