<svg width="24" height="24" viewBox="0 0 24 24" fill="none" xmlns="http://www.w3.org/2000/svg">
<path d="M3 5.37256L18.5802 20.9527" stroke="black" stroke-width="1.5" stroke-linecap="round" stroke-linejoin="round"/>
<path d="M17.1043 19.4134C15.6539 20.414 13.8954 20.9999 12 20.9999H4.60508C3.94494 20.9999 3.56888 20.2455 3.96627 19.7183L5.0287 18.309C5.17217 18.1187 5.16017 17.8545 5.00993 17.6695C3.75317 16.1219 3 14.1489 3 11.9999C3 10.0928 3.59317 8.32424 4.60508 6.86865" stroke="black" stroke-width="1.5" stroke-linecap="round" stroke-linejoin="round"/>
<path d="M19.7515 16.5761C20.5448 15.2353 21.0001 13.6708 21.0001 12C21.0001 7.02944 16.9706 3 12.0001 3C10.5299 3 9.14214 3.35249 7.91656 3.97757L7.56152 4.17506" stroke="black" stroke-width="1.5" stroke-linecap="round" stroke-linejoin="round"/>
</svg>
