<svg width="24" height="24" viewBox="0 0 24 24" fill="none" xmlns="http://www.w3.org/2000/svg">
<path d="M6.58793 17.1323H9.98535M6.56104 14.5715H8.27302" stroke="black" stroke-width="1.5" stroke-linecap="round" stroke-linejoin="round"/>
<path d="M16.6239 8.17773H11.6744M16.6631 11.0413H14.169" stroke="black" stroke-width="1.5" stroke-linecap="round" stroke-linejoin="round"/>
<path d="M3.06982 15.8264C3.06982 12.9858 5.38034 10.6831 8.23051 10.6831C11.0807 10.6831 13.3912 12.9858 13.3912 15.8264C13.3912 18.667 11.0807 20.9697 8.23051 20.9697H3.64323C3.32655 20.9697 3.06982 20.7138 3.06982 20.3982V15.8264Z" stroke="black" stroke-width="1.5" stroke-linecap="round" stroke-linejoin="round"/>
<path d="M13.1642 17.9038H20.1011C20.559 17.9038 20.9302 17.5339 20.9302 17.0775V10.4671C20.9302 6.35983 17.5893 3.03027 13.4682 3.03027C9.34711 3.03027 6.00629 6.35983 6.00629 10.4671C6.00629 10.6752 6.01487 10.8813 6.03169 11.0851" stroke="black" stroke-width="1.5" stroke-linecap="round" stroke-linejoin="round"/>
</svg>
