<svg width="24" height="24" viewBox="0 0 24 24" fill="none" xmlns="http://www.w3.org/2000/svg">
<path d="M13.2759 11.0794L11.6894 9.44547M11.6894 9.44547L13.2759 7.81152M11.6894 9.44547L16.9614 9.44467" stroke="black" stroke-width="1.5" stroke-linecap="round" stroke-linejoin="round"/>
<path d="M10.7241 16.3504L12.3106 14.7165M12.3106 14.7165L10.7241 13.0825M12.3106 14.7165L7.03857 14.7157" stroke="black" stroke-width="1.5" stroke-linecap="round" stroke-linejoin="round"/>
<path d="M12 21C16.9706 21 21 16.9706 21 12C21 7.02944 16.9706 3 12 3C7.02944 3 3 7.02944 3 12C3 14.149 3.75317 16.122 5.00993 17.6696C5.16017 17.8546 5.17217 18.1188 5.0287 18.3091L3.96627 19.7184C3.56888 20.2456 3.94494 21 4.60508 21H12Z" stroke="black" stroke-width="1.5" stroke-linejoin="round"/>
</svg>
