<svg width="24" height="24" viewBox="0 0 24 24" fill="none" xmlns="http://www.w3.org/2000/svg">
<path d="M14.5855 11.8697V11.9392M14.8683 11.8846C14.8683 12.0412 14.7409 12.1681 14.5837 12.1681C14.4266 12.1681 14.2993 12.0412 14.2993 11.8846C14.2993 11.728 14.4266 11.6011 14.5837 11.6011C14.7409 11.6011 14.8683 11.728 14.8683 11.8846Z" stroke="black" stroke-width="1.5" stroke-linecap="round" stroke-linejoin="round"/>
<path d="M8.88235 11.8697V11.9392M9.16521 11.8846C9.16521 12.0412 9.03774 12.1681 8.88062 12.1681C8.72349 12.1681 8.59619 12.0412 8.59619 11.8846C8.59619 11.728 8.72349 11.6011 8.88062 11.6011C9.03774 11.6011 9.16521 11.728 9.16521 11.8846Z" stroke="black" stroke-width="1.5" stroke-linecap="round" stroke-linejoin="round"/>
<path fill-rule="evenodd" clip-rule="evenodd" d="M16.158 6.54588C15.8641 5.62951 16.2076 4.58223 17.1728 4.27193C17.6807 4.10999 18.2353 4.20308 18.6624 4.52211C19.0895 4.20599 19.6422 4.11387 20.1501 4.27193C21.1143 4.58223 21.4617 5.62951 21.1669 6.54588C20.7086 7.99752 18.6624 9.11559 18.6624 9.11559C18.6624 9.11559 16.6318 8.01401 16.158 6.54588Z" stroke="black" stroke-width="1.5" stroke-linecap="round" stroke-linejoin="round"/>
<path d="M20.7311 12.0001C20.7311 16.9707 16.7017 21.0001 11.7311 21.0001C10.311 21.0001 8.96772 20.6712 7.77329 20.0855C6.69682 19.5682 5.51781 20.0535 4.43975 20.3254C3.84813 20.4747 3.25641 19.883 3.40567 19.2914C3.66758 18.2125 4.16242 17.0333 3.64565 15.9578C3.05986 14.7634 2.73096 13.4201 2.73096 12C2.73096 7.02944 6.76039 3 11.731 3C12.2792 3 12.816 3.04902 13.3372 3.14291" stroke="black" stroke-width="1.5" stroke-linecap="round" stroke-linejoin="round"/>
</svg>
