<svg width="24" height="24" viewBox="0 0 24 24" fill="none" xmlns="http://www.w3.org/2000/svg">
<path d="M15.1104 11.9444V12.0139M15.3932 11.9593C15.3932 12.1159 15.2658 12.2429 15.1086 12.2429C14.9515 12.2429 14.8242 12.1159 14.8242 11.9593C14.8242 11.8027 14.9515 11.6758 15.1086 11.6758C15.2658 11.6758 15.3932 11.8027 15.3932 11.9593Z" stroke="black" stroke-width="1.5" stroke-linecap="round" stroke-linejoin="round"/>
<path d="M9.49515 11.9444V12.0139M9.77801 11.9593C9.77801 12.1159 9.65053 12.2429 9.49341 12.2429C9.33629 12.2429 9.20898 12.1159 9.20898 11.9593C9.20898 11.8027 9.33629 11.6758 9.49341 11.6758C9.65053 11.6758 9.77801 11.8027 9.77801 11.9593Z" stroke="black" stroke-width="1.5" stroke-linecap="round" stroke-linejoin="round"/>
<path d="M21 11.9999C21 7.04613 16.9706 3.03027 12 3.03027C7.02944 3.03027 3 7.04613 3 11.9999C3 16.9537 7.02944 20.9696 12 20.9696H20C20.5523 20.9696 21 20.5234 21 19.973V11.9999Z" stroke="black" stroke-width="1.5" stroke-linecap="round" stroke-linejoin="round"/>
</svg>
