<svg width="24" height="24" viewBox="0 0 24 24" fill="none" xmlns="http://www.w3.org/2000/svg">
<path fill-rule="evenodd" clip-rule="evenodd" d="M11.7031 8.36546L8.83791 12.312C8.63346 12.5935 8.83457 12.9878 9.18226 12.9878H11.5261V15.4658C11.5261 15.878 12.0545 16.05 12.2969 15.7156L15.1621 11.7695C15.3665 11.488 15.1654 11.0933 14.8177 11.0933H12.4734V8.61571C12.4734 8.20307 11.9455 8.03151 11.7031 8.36546Z" stroke="black" stroke-width="1.5" stroke-linecap="round" stroke-linejoin="round"/>
<path d="M12 21C16.9706 21 21 16.9706 21 12C21 7.02944 16.9706 3 12 3C7.02944 3 3 7.02944 3 12C3 14.149 3.75317 16.122 5.00993 17.6696C5.16017 17.8546 5.17217 18.1188 5.0287 18.3091L3.96627 19.7184C3.56888 20.2456 3.94494 21 4.60508 21H12Z" stroke="black" stroke-width="1.5" stroke-linejoin="round"/>
</svg>
