<svg width="24" height="24" viewBox="0 0 24 24" fill="none" xmlns="http://www.w3.org/2000/svg">
<path fill-rule="evenodd" clip-rule="evenodd" d="M7.1123 11.9999C7.1123 13.041 7.95685 13.8855 8.99793 13.8855C10.04 13.8855 10.8835 13.041 10.8835 11.9999C10.8835 10.9588 10.04 10.1143 8.99793 10.1143C7.95685 10.1143 7.1123 10.9588 7.1123 11.9999Z" stroke="black" stroke-width="1.5" stroke-linecap="round" stroke-linejoin="round"/>
<path fill-rule="evenodd" clip-rule="evenodd" d="M13.1162 11.9999C13.1162 13.041 13.9608 13.8855 15.0018 13.8855C16.0439 13.8855 16.8875 13.041 16.8875 11.9999C16.8875 10.9588 16.0439 10.1143 15.0018 10.1143C13.9608 10.1143 13.1162 10.9588 13.1162 11.9999Z" stroke="black" stroke-width="1.5" stroke-linecap="round" stroke-linejoin="round"/>
<path d="M15.0021 13.8848H8.99707" stroke="black" stroke-width="1.5" stroke-linecap="round" stroke-linejoin="round"/>
<path d="M3 11.9594C3 7.0056 7.02944 2.98975 12 2.98975C16.9706 2.98975 21 7.0056 21 11.9594C21 16.9132 16.9706 20.9291 12 20.9291H4C3.44772 20.9291 3 20.4829 3 19.9324V11.9594Z" stroke="black" stroke-width="1.5" stroke-linecap="round" stroke-linejoin="round"/>
</svg>
