<svg width="24" height="24" viewBox="0 0 24 24" fill="none" xmlns="http://www.w3.org/2000/svg">
<path d="M8.04233 20.0855C9.23677 20.6712 10.58 21.0001 12.0001 21.0001C16.9707 21.0001 21.0001 16.9707 21.0001 12.0001C21.0001 7.02951 16.9706 3 12 3C7.02944 3 3 7.02944 3 12C3 13.4201 3.32891 14.7634 3.9147 15.9578C4.43146 17.0333 3.93662 18.2125 3.67471 19.2914C3.52546 19.883 4.11717 20.4747 4.70879 20.3254C5.78685 20.0535 6.96586 19.5682 8.04233 20.0855Z" stroke="black" stroke-width="1.5" stroke-linecap="round" stroke-linejoin="round"/>
<path d="M9.36133 16.5003V13.8892" stroke="black" stroke-width="1.5" stroke-linecap="round" stroke-linejoin="round"/>
<path fill-rule="evenodd" clip-rule="evenodd" d="M9.78644 13.8892H8.93564C8.48051 13.8892 8.11133 13.5214 8.11133 13.0675V9.71034C8.11133 9.2564 8.48051 8.88916 8.93564 8.88916H9.78644C10.2421 8.88916 10.6113 9.2564 10.6113 9.71034V13.0675C10.6113 13.5214 10.2421 13.8892 9.78644 13.8892Z" stroke="black" stroke-width="1.5" stroke-linecap="round" stroke-linejoin="round"/>
<path d="M9.36133 8.88889V7.5" stroke="black" stroke-width="1.5" stroke-linecap="round" stroke-linejoin="round"/>
<path d="M14.6392 16.5002V15.1113" stroke="black" stroke-width="1.5" stroke-linecap="round" stroke-linejoin="round"/>
<path fill-rule="evenodd" clip-rule="evenodd" d="M15.0643 15.1114H14.2135C13.7583 15.1114 13.3892 14.7435 13.3892 14.2896V10.9325C13.3892 10.4786 13.7583 10.1113 14.2135 10.1113H15.0643C15.5199 10.1113 15.8891 10.4786 15.8891 10.9325V14.2896C15.8891 14.7435 15.5199 15.1114 15.0643 15.1114Z" stroke="black" stroke-width="1.5" stroke-linecap="round" stroke-linejoin="round"/>
<path d="M14.6392 10.1111V7.5" stroke="black" stroke-width="1.5" stroke-linecap="round" stroke-linejoin="round"/>
</svg>
