<svg width="24" height="24" viewBox="0 0 24 24" fill="none" xmlns="http://www.w3.org/2000/svg">
<path d="M10.5163 15.7086H13.4794C14.2914 15.7086 14.9498 15.0503 14.9498 14.2383V12.5744C14.9498 11.7624 14.2914 11.104 13.4794 11.104H10.5163C9.70328 11.104 9.04492 11.7624 9.04492 12.5744V14.2383C9.04492 15.0503 9.70328 15.7086 10.5163 15.7086Z" stroke="black" stroke-width="1.5" stroke-linecap="round" stroke-linejoin="round"/>
<path d="M13.7664 11.1322V10.0382C13.7547 9.06085 12.9524 8.27899 11.976 8.29066C11.0191 8.30233 10.245 9.07349 10.2285 10.0294V11.1322" stroke="black" stroke-width="1.5" stroke-linecap="round" stroke-linejoin="round"/>
<path d="M12 21C16.9706 21 21 16.9706 21 12C21 7.02944 16.9706 3 12 3C7.02944 3 3 7.02944 3 12C3 14.149 3.75317 16.122 5.00993 17.6696C5.16017 17.8546 5.17217 18.1188 5.0287 18.3091L3.96627 19.7184C3.56888 20.2456 3.94494 21 4.60508 21H12Z" stroke="black" stroke-width="1.5" stroke-linejoin="round"/>
</svg>
