<svg width="24" height="24" viewBox="0 0 24 24" fill="none" xmlns="http://www.w3.org/2000/svg">
<path d="M9.86822 10.2845C9.21453 10.2845 8.68457 9.73617 8.68457 9.06004C8.68457 8.38334 9.21453 7.83496 9.86822 7.83496C11.5254 7.83496 11.9988 10.2845 11.9988 10.2845" stroke="black" stroke-width="1.5" stroke-linecap="round" stroke-linejoin="round"/>
<path d="M14.1299 10.2845C14.7835 10.2845 15.3135 9.73617 15.3135 9.06004C15.3135 8.38334 14.7835 7.83496 14.1299 7.83496C12.4726 7.83496 11.999 10.2845 11.999 10.2845" stroke="black" stroke-width="1.5" stroke-linecap="round" stroke-linejoin="round"/>
<path d="M14.3319 15.9461H9.66817C8.6397 15.9461 8 15.1798 8 14.094V12.1358C8 11.0505 8.6397 10.2842 9.66863 10.2842H14.3319C15.3603 10.2842 16 11.0505 16 12.1358V14.094C16 15.1798 15.3571 15.9461 14.3319 15.9461Z" stroke="black" stroke-width="1.5" stroke-linecap="round" stroke-linejoin="round"/>
<path d="M12 10.2852V12.6377" stroke="black" stroke-width="1.5" stroke-linecap="round" stroke-linejoin="round"/>
<path d="M12 21C16.9706 21 21 16.9706 21 12C21 7.02944 16.9706 3 12 3C7.02944 3 3 7.02944 3 12C3 14.149 3.75317 16.122 5.00993 17.6696C5.16017 17.8546 5.17217 18.1188 5.0287 18.3091L3.96627 19.7184C3.56888 20.2456 3.94494 21 4.60508 21H12Z" stroke="black" stroke-width="1.5" stroke-linejoin="round"/>
</svg>
