<svg width="24" height="24" viewBox="0 0 24 24" fill="none" xmlns="http://www.w3.org/2000/svg">
<path d="M10.9984 18.2447V20.487C10.9984 20.7987 11.2852 21.033 11.5884 20.9542C15.7884 19.8634 19.4868 16.1392 19.9608 11.708C20.0164 11.1878 20.0071 10.6831 19.9686 10.1635C19.5483 6.15509 16.141 3.03027 11.9999 3.03027C7.85891 3.03027 4.45162 6.15509 4.03125 10.1635C3.9927 10.6834 3.98248 11.1878 4.04323 11.708C4.45879 15.2666 7.17636 18.0562 10.9984 18.2447Z" stroke="black" stroke-width="1.5" stroke-linecap="round" stroke-linejoin="round"/>
<path d="M9.09449 13.5427C9.95447 12.926 10.5936 12.0058 10.8719 10.9834C11.0667 10.2679 11.0703 9.44743 10.6421 8.84059C10.2328 8.25979 9.44189 7.97702 8.75696 8.16733C7.50648 8.51294 7.09983 10.1027 7.94545 11.0543C8.26682 11.4161 8.7381 11.6405 9.22196 11.6629" stroke="black" stroke-width="1.5" stroke-linecap="round" stroke-linejoin="round"/>
<path d="M14.596 13.5427C15.4568 12.926 16.0951 12.0058 16.3734 10.9834C16.5682 10.2679 16.5718 9.44743 16.1436 8.84059C15.7342 8.25979 14.9434 7.97702 14.2584 8.16733C13.0079 8.51294 12.6013 10.1027 13.4469 11.0543C13.7683 11.4161 14.2396 11.6405 14.7234 11.6629" stroke="black" stroke-width="1.5" stroke-linecap="round" stroke-linejoin="round"/>
</svg>
