<svg width="24" height="24" viewBox="0 0 24 24" fill="none" xmlns="http://www.w3.org/2000/svg">
<path d="M8.22001 9.24512H13.5959M8.17432 13.1108H11.0831" stroke="black" stroke-width="1.5" stroke-linecap="round" stroke-linejoin="round"/>
<path fill-rule="evenodd" clip-rule="evenodd" d="M17.8953 20.9695C17.8953 20.9695 20.9856 20.0369 20.9856 17.4661C20.9856 14.8949 21.0976 14.6942 20.8494 14.4469C20.6017 14.1996 18.3005 13.3999 17.8953 13.3999C17.4901 13.3999 15.1889 14.1996 14.9408 14.4469C14.6931 14.6942 14.805 14.8949 14.805 17.4661C14.805 20.0369 17.8953 20.9695 17.8953 20.9695Z" stroke="black" stroke-width="1.5" stroke-linecap="round" stroke-linejoin="round"/>
<path d="M11.8301 19.8296C11.7016 19.8354 11.5722 19.8384 11.4422 19.8384C10.116 19.8384 8.86153 19.5312 7.74606 18.9842C6.74076 18.5011 5.6397 18.9543 4.63292 19.2083C4.08042 19.3477 3.52782 18.7951 3.66721 18.2426C3.9118 17.2351 4.37393 16.1338 3.89133 15.1294C3.34427 14.014 3.03711 12.7595 3.03711 11.4333C3.03711 6.79135 6.80014 3.02832 11.4421 3.02832C15.8765 3.02832 19.5089 6.46241 19.8249 10.8162" stroke="black" stroke-width="1.5" stroke-linecap="round" stroke-linejoin="round"/>
</svg>
