<svg width="24" height="24" viewBox="0 0 24 24" fill="none" xmlns="http://www.w3.org/2000/svg">
<path d="M16.9904 3.44922C19.3616 3.82062 20.8091 5.72524 20.8091 8.29647V16.0768C20.8091 18.9623 19.0093 21.0003 16.1238 21.0003H7.86724C4.98175 21.0003 3.19141 18.9623 3.19141 16.0768V8.29647C3.19141 5.71571 4.63892 3.8111 7.01016 3.44922" stroke="black" stroke-width="1.5" stroke-linecap="round" stroke-linejoin="round"/>
<path d="M9.25586 5.64932L12.0023 3L14.7478 5.64932" stroke="black" stroke-width="1.5" stroke-linecap="round" stroke-linejoin="round"/>
<path d="M12 3.00391V10.2157" stroke="black" stroke-width="1.5" stroke-linecap="round" stroke-linejoin="round"/>
<path d="M20.8017 13.3086H16.6087C15.7402 13.3086 14.9479 13.8 14.5622 14.578C14.0946 15.5199 13.1223 16.1684 11.9986 16.1684C10.8748 16.1684 9.90252 15.5199 9.43494 14.578C9.04925 13.8 8.25693 13.3086 7.38842 13.3086H3.19922" stroke="black" stroke-width="1.5" stroke-linecap="round" stroke-linejoin="round"/>
</svg>
