<svg width="24" height="24" viewBox="0 0 24 24" fill="none" xmlns="http://www.w3.org/2000/svg">
<path d="M21 12C21 7.03005 16.9709 3 12 3C7.02908 3 3 7.03005 3 12C3 16.9709 7.02908 21 12 21C16.9709 21 21 16.9709 21 12Z" stroke="black" stroke-width="1.5" stroke-linecap="round" stroke-linejoin="round"/>
<path d="M10.0211 16.0425C10.6183 16.3354 11.2899 16.4999 12 16.4999C14.4852 16.4999 16.4999 14.4852 16.4999 12C16.4999 9.51471 14.4851 7.5 11.9999 7.5C9.51467 7.5 7.5 9.51467 7.5 11.9999C7.5 12.7099 7.66445 13.3815 7.95734 13.9787C8.21571 14.5165 7.9683 15.1061 7.83735 15.6455C7.76272 15.9413 8.05857 16.2371 8.35437 16.1625C8.89339 16.0265 9.48288 15.7839 10.0211 16.0425Z" stroke="black" stroke-width="1.5" stroke-linecap="round" stroke-linejoin="round"/>
</svg>
