<svg width="24" height="24" viewBox="0 0 24 24" fill="none" xmlns="http://www.w3.org/2000/svg">
<path d="M21 12C21 7.03005 16.9709 3 12 3C7.02908 3 3 7.03005 3 12C3 16.9709 7.02908 21 12 21C16.9709 21 21 16.9709 21 12Z" stroke="black" stroke-width="1.5" stroke-linecap="round" stroke-linejoin="round"/>
<path d="M11.9998 16.5181C14.4949 16.5181 16.5176 14.4954 16.5176 12.0002C16.5176 9.50512 14.4949 7.48242 11.9998 7.48242C9.50463 7.48242 7.48193 9.50512 7.48193 12.0002C7.48193 13.079 7.86001 14.0694 8.49088 14.8463C8.56629 14.9391 8.57232 15.0717 8.5003 15.1673L7.96698 15.8747C7.7675 16.1394 7.95627 16.5181 8.28765 16.5181H11.9998Z" stroke="black" stroke-width="1.5" stroke-linejoin="round"/>
</svg>
