<svg width="24" height="24" viewBox="0 0 24 24" fill="none" xmlns="http://www.w3.org/2000/svg">
<path d="M21 12C21 7.03005 16.9709 3 12 3C7.02908 3 3 7.03005 3 12C3 16.9709 7.02908 21 12 21C16.9709 21 21 16.9709 21 12Z" stroke="black" stroke-width="1.5" stroke-linecap="round" stroke-linejoin="round"/>
<path d="M7.5 11.2408C7.5 9.31288 9.04847 7.74998 10.9586 7.74998H13.0414C14.9515 7.74998 16.5 9.31288 16.5 11.2408C16.5 13.1688 14.9515 14.7317 13.0414 14.7317H12.5207V16.25C12.5207 16.25 9.53263 15.296 8.19728 13.3431C7.75958 12.7584 7.5 12.0302 7.5 11.2408Z" stroke="black" stroke-width="1.5" stroke-linecap="round" stroke-linejoin="round"/>
<path d="M7.5 11.2408C7.5 9.31288 9.04847 7.74998 10.9586 7.74998H13.0414C14.9515 7.74998 16.5 9.31288 16.5 11.2408C16.5 13.1688 14.9515 14.7317 13.0414 14.7317H12.5207V16.25C12.5207 16.25 9.53263 15.296 8.19728 13.3431C7.75958 12.7584 7.5 12.0302 7.5 11.2408Z" stroke="black" stroke-width="1.5" stroke-linecap="round" stroke-linejoin="round"/>
<path d="M7.5 11.2408C7.5 9.31288 9.04847 7.74998 10.9586 7.74998H13.0414C14.9515 7.74998 16.5 9.31288 16.5 11.2408C16.5 13.1688 14.9515 14.7317 13.0414 14.7317H12.5207V16.25C12.5207 16.25 9.53263 15.296 8.19728 13.3431C7.75958 12.7584 7.5 12.0302 7.5 11.2408Z" stroke="black" stroke-width="1.5" stroke-linecap="round" stroke-linejoin="round"/>
</svg>
