<svg width="24" height="24" viewBox="0 0 24 24" fill="none" xmlns="http://www.w3.org/2000/svg">
<path fill-rule="evenodd" clip-rule="evenodd" d="M9.76588 10.0336C8.73063 10.043 7.89404 10.7386 7.89404 11.9226C7.89404 12.6888 8.3506 13.3474 9.00575 13.6441C9.28095 13.7558 9.55607 13.7988 9.7642 13.7988H14.232C14.4409 13.7988 14.716 13.7576 14.9954 13.6458C15.6507 13.35 16.1056 12.6888 16.1056 11.9226C16.1056 10.7386 15.2689 10.043 14.2336 10.0336C14.2336 9.28894 13.6498 7.79883 11.9998 7.79883C10.3497 7.79883 9.76588 9.28894 9.76588 10.0336Z" stroke="black" stroke-width="1.5" stroke-linecap="round" stroke-linejoin="round"/>
<path d="M21 6.30957C21 4.65272 19.6569 3.30957 18 3.30957H6C4.34315 3.30957 3 4.65272 3 6.30957V15.0929C3 16.7497 4.34315 18.0929 6 18.0929H8.16198C8.5598 18.0929 8.94134 18.2509 9.22264 18.5322L10.9393 20.2489C11.5251 20.8347 12.4749 20.8347 13.0607 20.2489L14.7774 18.5322C15.0587 18.2509 15.4402 18.0929 15.838 18.0929H18C19.6569 18.0929 21 16.7497 21 15.0929V6.30957Z" stroke="black" stroke-width="1.5" stroke-linecap="round" stroke-linejoin="round"/>
</svg>
