<svg width="24" height="24" viewBox="0 0 24 24" fill="none" xmlns="http://www.w3.org/2000/svg">
<path d="M8.85077 13.6996C9.78288 13.0312 10.4756 12.0339 10.7773 10.9257C10.9884 10.1502 10.9923 9.2609 10.5282 8.60317C10.0845 7.97366 9.22731 7.66717 8.48493 7.87344C7.12958 8.24804 6.68883 9.97117 7.60537 11.0025C7.95369 11.3946 8.4645 11.6379 8.98893 11.6622" stroke="black" stroke-width="1.5" stroke-linecap="round" stroke-linejoin="round"/>
<path d="M14.8137 13.6996C15.7467 13.0312 16.4385 12.0339 16.7401 10.9257C16.9513 10.1502 16.9552 9.2609 16.4911 8.60317C16.0474 7.97366 15.1902 7.66717 14.4478 7.87344C13.0925 8.24804 12.6517 9.97117 13.5683 11.0025C13.9166 11.3946 14.4274 11.6379 14.9518 11.6622" stroke="black" stroke-width="1.5" stroke-linecap="round" stroke-linejoin="round"/>
<path d="M21 6.76527C21 5.11401 19.6569 3.77539 18 3.77539H6C4.34315 3.77539 3 5.11401 3 6.76527V19.2254C3 20.0279 3.9031 20.5013 4.56659 20.0466L7.5582 17.9965C7.80826 17.8251 8.10461 17.7334 8.40809 17.7334H18C19.6569 17.7334 21 16.3948 21 14.7435V6.76527Z" stroke="black" stroke-width="1.5" stroke-linecap="round" stroke-linejoin="round"/>
</svg>
