<svg width="24" height="24" viewBox="0 0 24 24" fill="none" xmlns="http://www.w3.org/2000/svg">
<path d="M7.99661 10.7978V10.7283M8.27947 10.7829C8.27947 10.6263 8.152 10.4993 7.99487 10.4993C7.83775 10.4993 7.71045 10.6263 7.71045 10.7829C7.71045 10.9395 7.83775 11.0664 7.99487 11.0664C8.152 11.0664 8.27947 10.9395 8.27947 10.7829Z" stroke="black" stroke-width="1.5" stroke-linecap="round" stroke-linejoin="round"/>
<path d="M12.0025 10.7978V10.7283M12.2853 10.7829C12.2853 10.6263 12.1579 10.4993 12.0007 10.4993C11.8436 10.4993 11.7163 10.6263 11.7163 10.7829C11.7163 10.9395 11.8436 11.0664 12.0007 11.0664C12.1579 11.0664 12.2853 10.9395 12.2853 10.7829Z" stroke="black" stroke-width="1.5" stroke-linecap="round" stroke-linejoin="round"/>
<path d="M16.0083 10.7978V10.7283M16.2912 10.7829C16.2912 10.6263 16.1637 10.4993 16.0066 10.4993C15.8495 10.4993 15.7222 10.6263 15.7222 10.7829C15.7222 10.9395 15.8495 11.0664 16.0066 11.0664C16.1637 11.0664 16.2912 10.9395 16.2912 10.7829Z" stroke="black" stroke-width="1.5" stroke-linecap="round" stroke-linejoin="round"/>
<path d="M3 6.78809C3 5.13123 4.34315 3.78809 6 3.78809H18C19.6569 3.78809 21 5.13123 21 6.78809V19.2904C21 20.0956 20.0969 20.5706 19.4334 20.1144L16.4418 18.0573C16.1917 17.8854 15.8954 17.7933 15.5919 17.7933H6C4.34315 17.7933 3 16.4502 3 14.7933V6.78809Z" stroke="black" stroke-width="1.5" stroke-linecap="round" stroke-linejoin="round"/>
</svg>
