<svg width="24" height="24" viewBox="0 0 24 24" fill="none" xmlns="http://www.w3.org/2000/svg">
<path d="M14.8091 11.0518V11.1214M15.092 11.0667C15.092 11.2233 14.9645 11.3503 14.8074 11.3503C14.6503 11.3503 14.5229 11.2233 14.5229 11.0667C14.5229 10.9101 14.6503 10.7832 14.8074 10.7832C14.9645 10.7832 15.092 10.9101 15.092 11.0667Z" stroke="black" stroke-width="1.5" stroke-linecap="round" stroke-linejoin="round"/>
<path d="M9.19388 11.0518V11.1214M9.47674 11.0667C9.47674 11.2233 9.34926 11.3503 9.19214 11.3503C9.03502 11.3503 8.90771 11.2233 8.90771 11.0667C8.90771 10.9101 9.03502 10.7832 9.19214 10.7832C9.34926 10.7832 9.47674 10.9101 9.47674 11.0667Z" stroke="black" stroke-width="1.5" stroke-linecap="round" stroke-linejoin="round"/>
<path d="M3 6.76528C3 5.11401 4.34315 3.77539 6 3.77539H18C19.6569 3.77539 21 5.11401 21 6.76528V19.2254C21 20.0279 20.0969 20.5014 19.4334 20.0467L16.4418 17.9965C16.1917 17.8252 15.8954 17.7334 15.5919 17.7334H6C4.34315 17.7334 3 16.3948 3 14.7435V6.76528Z" stroke="black" stroke-width="1.5" stroke-linecap="round" stroke-linejoin="round"/>
</svg>
