<svg width="24" height="24" viewBox="0 0 24 24" fill="none" xmlns="http://www.w3.org/2000/svg">
<path d="M16.3369 7.78613H10.7798M16.3369 11.6036H13.9381" stroke="black" stroke-width="1.5" stroke-linecap="round" stroke-linejoin="round"/>
<path d="M14.8547 17.085H15.5919C15.8954 17.085 16.1917 17.1767 16.4418 17.3481L19.4334 19.3982C20.0969 19.8529 21 19.3795 21 18.577V6.11685C21 4.46557 19.6569 3.12695 18 3.12695H6C4.34315 3.12695 3 4.46557 3 6.11684V12.046" stroke="black" stroke-width="1.5" stroke-linecap="round" stroke-linejoin="round"/>
<path fill-rule="evenodd" clip-rule="evenodd" d="M7.87138 14.7305H4.90387C3.75174 14.7305 3.0293 15.5443 3.0293 16.6944V18.9097C3.0293 20.0608 3.74785 20.8736 4.90387 20.8736H7.87138C9.0273 20.8736 9.74695 20.0608 9.74695 18.9097V16.6944C9.74695 15.5443 9.0273 14.7305 7.87138 14.7305Z" stroke="black" stroke-width="1.5" stroke-linecap="round" stroke-linejoin="round"/>
<path d="M9.74365 17.2688L11.4029 15.9156C11.6716 15.6962 12.0682 15.7349 12.2883 16.0026C12.3804 16.1147 12.4309 16.2559 12.4309 16.4008L12.4241 19.1999C12.4241 19.5459 12.1419 19.8262 11.7947 19.8252C11.6492 19.8252 11.5087 19.7749 11.3962 19.6831L9.74365 18.33" stroke="black" stroke-width="1.5" stroke-linecap="round" stroke-linejoin="round"/>
</svg>
