<svg width="24" height="24" viewBox="0 0 24 24" fill="none" xmlns="http://www.w3.org/2000/svg">
<path d="M10.1494 12.6027C11.211 11.6959 12.7901 11.6959 13.8574 12.5969" stroke="black" stroke-width="1.5" stroke-linecap="round" stroke-linejoin="round"/>
<path d="M8.3584 10.3505C10.4824 8.6488 13.5171 8.6488 15.6411 10.3505" stroke="black" stroke-width="1.5" stroke-linecap="round" stroke-linejoin="round"/>
<path d="M12.0025 14.766V14.803M12.1526 14.774C12.1526 14.8573 12.0849 14.9249 12.0015 14.9249C11.9182 14.9249 11.8506 14.8573 11.8506 14.774C11.8506 14.6906 11.9182 14.623 12.0015 14.623C12.0849 14.623 12.1526 14.6906 12.1526 14.774Z" stroke="black" stroke-width="1.5" stroke-linecap="round" stroke-linejoin="round"/>
<path d="M21 9.17578C21 6.41436 18.7614 4.17578 16 4.17578H8C5.23858 4.17578 3 6.41436 3 9.17578V18.8242C3 19.3765 3.44772 19.8242 4 19.8242H16C18.7614 19.8242 21 17.5856 21 14.8242V9.17578Z" stroke="black" stroke-width="1.5" stroke-linecap="round" stroke-linejoin="round"/>
</svg>
