<svg width="24" height="24" viewBox="0 0 24 24" fill="none" xmlns="http://www.w3.org/2000/svg">
<path d="M7.66309 7.71191H13.2202M7.66309 11.5294H10.0619" stroke="black" stroke-width="1.5" stroke-linecap="round" stroke-linejoin="round"/>
<path d="M11.3722 17.0108H8.40809C8.10461 17.0108 7.80826 17.1025 7.5582 17.2739L4.56659 19.324C3.9031 19.7787 3 19.3053 3 18.5028V6.04263C3 4.39136 4.34315 3.05273 6 3.05273H18C19.6569 3.05273 21 4.39135 21 6.04263V11.031" stroke="black" stroke-width="1.5" stroke-linecap="round" stroke-linejoin="round"/>
<path d="M20.9999 15.208H14.1826" stroke="black" stroke-width="1.44" stroke-linecap="round" stroke-linejoin="round"/>
<path d="M20.4433 15.2079L20.1909 19.6018C20.1387 20.3599 19.5436 20.9474 18.8266 20.9474H16.3549C15.6383 20.9474 15.0428 20.3599 14.9906 19.6014L14.7383 15.2079" stroke="black" stroke-width="1.44" stroke-linecap="round" stroke-linejoin="round"/>
<path d="M19.329 15.2081L18.9912 13.7118C18.9284 13.478 18.7156 13.3154 18.473 13.3154H16.7016C16.4577 13.3146 16.244 13.4771 16.1809 13.7118L15.8517 15.2081" stroke="black" stroke-width="1.44" stroke-linecap="round" stroke-linejoin="round"/>
</svg>
