<svg width="24" height="24" viewBox="0 0 24 24" fill="none" xmlns="http://www.w3.org/2000/svg">
<path d="M7.63281 14.3392L8.90718 12.9956C9.13094 12.7601 9.50842 12.7655 9.72491 13.0066L10.7791 14.1808C11.0047 14.4319 11.3995 14.4265 11.6178 14.169L13.8 11.5921C14.0128 11.3411 14.3957 11.3284 14.625 11.5657L16.3669 13.3714" stroke="black" stroke-width="1.5" stroke-linecap="round" stroke-linejoin="round"/>
<path d="M11.1265 8.19238C11.1265 8.88305 10.5663 9.44238 9.87584 9.44238C9.18538 9.44238 8.62598 8.88305 8.62598 8.19238C8.62598 7.50172 9.18538 6.94238 9.87584 6.94238C10.5663 6.94238 11.1265 7.50172 11.1265 8.19238Z" stroke="black" stroke-width="1.5" stroke-linecap="round" stroke-linejoin="round"/>
<path d="M21 6.31055C21 4.65369 19.6569 3.31055 18 3.31055H6C4.34315 3.31055 3 4.65369 3 6.31055V15.0938C3 16.7507 4.34315 18.0938 6 18.0938H8.16198C8.5598 18.0938 8.94134 18.2519 9.22264 18.5332L10.9393 20.2499C11.5251 20.8357 12.4749 20.8357 13.0607 20.2499L14.7774 18.5332C15.0587 18.2519 15.4402 18.0938 15.838 18.0938H18C19.6569 18.0938 21 16.7507 21 15.0938V6.31055Z" stroke="black" stroke-width="1.5" stroke-linecap="round" stroke-linejoin="round"/>
</svg>
