<svg width="24" height="24" viewBox="0 0 24 24" fill="none" xmlns="http://www.w3.org/2000/svg">
<path d="M18.8283 18.8283L16.719 20.9376L16.2712 20.4898L16.09 18.88L13.5413 16.3312M18.8283 18.8283L20.9375 16.7191L20.4898 16.2712L18.8799 16.0901L16.3311 13.5414M18.8283 18.8283L18.8134 18.8134M18.8283 18.8283L21 21M13.5413 16.3312L16.3311 13.5414M13.5413 16.3312L12.9999 16.8726M16.3311 13.5414L16.8725 13" stroke="black" stroke-width="1.5" stroke-linecap="round" stroke-linejoin="round"/>
<path d="M7.92181 9.31445H13.3139M7.87598 13.1918H10.7936" stroke="black" stroke-width="1.5" stroke-linecap="round" stroke-linejoin="round"/>
<path d="M11 19.8242H4C3.44772 19.8242 3 19.3765 3 18.8242V9.17578C3 6.41436 5.23858 4.17578 8 4.17578H16C18.7614 4.17578 21 6.41436 21 9.17578V11.8242" stroke="black" stroke-width="1.5" stroke-linecap="round" stroke-linejoin="round"/>
</svg>
