<svg width="24" height="24" viewBox="0 0 24 24" fill="none" xmlns="http://www.w3.org/2000/svg">
<path d="M14.8096 10.2666V10.3362M15.0925 10.2816C15.0925 10.4382 14.965 10.5651 14.8079 10.5651C14.6507 10.5651 14.5234 10.4382 14.5234 10.2816C14.5234 10.125 14.6507 9.99805 14.8079 9.99805C14.965 9.99805 15.0925 10.125 15.0925 10.2816Z" stroke="black" stroke-width="1.5" stroke-linecap="round" stroke-linejoin="round"/>
<path d="M9.19436 10.2666V10.3362M9.47723 10.2816C9.47723 10.4382 9.34975 10.5651 9.19263 10.5651C9.03551 10.5651 8.9082 10.4382 8.9082 10.2816C8.9082 10.125 9.03551 9.99805 9.19263 9.99805C9.34975 9.99805 9.47723 10.125 9.47723 10.2816Z" stroke="black" stroke-width="1.5" stroke-linecap="round" stroke-linejoin="round"/>
<path fill-rule="evenodd" clip-rule="evenodd" d="M11.7158 17.6002C11.8989 17.4375 12.1353 17.3477 12.3802 17.3477H18C19.657 17.3477 21 16.0047 21 14.3477V6.34766C21 4.69066 19.657 3.34766 18 3.34766H6C4.343 3.34766 3 4.69066 3 6.34766V14.3477C3 16.0047 4.343 17.3477 6 17.3477H7C7.27614 17.3477 7.5 17.5715 7.5 17.8477V20.2342C7.5 20.6657 8.00973 20.8946 8.33218 20.6079L11.7158 17.6002Z" stroke="black" stroke-width="1.5" stroke-linecap="round" stroke-linejoin="round"/>
</svg>
