<svg width="24" height="24" viewBox="0 0 24 24" fill="none" xmlns="http://www.w3.org/2000/svg">
<path d="M12.0001 12.1349H14.7829L14.7829 11.5441L13.8405 10.3626V7M12.0001 12.1349H9.21733L9.21729 11.5441L10.1598 10.3626V7M12.0001 12.1349V12.1151M12.0001 12.1349V15M9.44554 7H14.5547" stroke="black" stroke-width="1.5" stroke-linecap="round" stroke-linejoin="round"/>
<path d="M21 6.31055C21 4.65369 19.6569 3.31055 18 3.31055H6C4.34315 3.31055 3 4.65369 3 6.31055V15.0938C3 16.7507 4.34315 18.0938 6 18.0938H8.16198C8.5598 18.0938 8.94134 18.2519 9.22264 18.5332L10.9393 20.2499C11.5251 20.8357 12.4749 20.8357 13.0607 20.2499L14.7774 18.5332C15.0587 18.2519 15.4402 18.0938 15.838 18.0938H18C19.6569 18.0938 21 16.7507 21 15.0938V6.31055Z" stroke="black" stroke-width="1.5" stroke-linecap="round" stroke-linejoin="round"/>
</svg>
