<svg width="24" height="24" viewBox="0 0 24 24" fill="none" xmlns="http://www.w3.org/2000/svg">
<path d="M7.40848 8.71875H12.7829M7.36279 12.5834H9.54834" stroke="black" stroke-width="1.5" stroke-linecap="round" stroke-linejoin="round"/>
<path d="M14.5118 14.6133L14.5219 14.6234M20.8873 18.5954L18.0093 15.7168C18.0574 15.497 18.0905 15.2756 18.0905 15.0414C18.0905 13.2916 16.672 11.8731 14.9222 11.873C13.1724 11.873 11.7539 13.2916 11.7539 15.0414C11.7539 16.7912 13.1724 18.2097 14.9222 18.2097C15.2619 18.2096 15.5904 18.1562 15.8972 18.0572L16.5495 18.7081L17.3072 18.7081L17.3071 19.8633L18.4814 19.8634L18.4815 20.6148C18.4814 20.8274 18.6537 20.9997 18.8663 20.9997L20.6151 20.9998C20.8277 20.9998 21.0001 20.8274 21.0001 20.6148L21.0001 18.8674C21.0001 18.7654 20.9595 18.6675 20.8873 18.5954Z" stroke="black" stroke-width="1.5" stroke-linecap="round" stroke-linejoin="round"/>
<path d="M21 12.8876V6.74805C21 5.09119 19.6569 3.74805 18 3.74805H6C4.34315 3.74805 3 5.09119 3 6.74805V19.2504C3 20.0556 3.9031 20.5306 4.56659 20.0744L7.5582 18.0173C7.80826 17.8453 8.10461 17.7533 8.40809 17.7533H9.99787" stroke="black" stroke-width="1.5" stroke-linecap="round" stroke-linejoin="round"/>
</svg>
