<svg width="24" height="24" viewBox="0 0 24 24" fill="none" xmlns="http://www.w3.org/2000/svg">
<path d="M8.5 11.315C8.5 13.8055 11.4398 16.1855 12 16.1855C12.5601 16.1855 15.5 13.8055 15.5 11.315C15.5 9.38144 13.933 7.81445 12 7.81445C10.067 7.81445 8.5 9.38144 8.5 11.315Z" stroke="black" stroke-width="1.5" stroke-linecap="round" stroke-linejoin="round"/>
<path d="M12.0065 10.8938V10.8394M11.9994 10.6777C11.8684 10.6777 11.7616 10.7845 11.7627 10.9155C11.7627 11.0465 11.8694 11.1532 12.0004 11.1532C12.1315 11.1532 12.2382 11.0465 12.2382 10.9155C12.2382 10.7834 12.1315 10.6777 11.9994 10.6777Z" stroke="black" stroke-width="1.5" stroke-linecap="round" stroke-linejoin="round"/>
<path d="M21 9.17578C21 6.41436 18.7614 4.17578 16 4.17578H8C5.23858 4.17578 3 6.41436 3 9.17578V18.8242C3 19.3765 3.44772 19.8242 4 19.8242H16C18.7614 19.8242 21 17.5856 21 14.8242V9.17578Z" stroke="black" stroke-width="1.5" stroke-linecap="round" stroke-linejoin="round"/>
</svg>
