<svg width="24" height="24" viewBox="0 0 24 24" fill="none" xmlns="http://www.w3.org/2000/svg">
<path fill-rule="evenodd" clip-rule="evenodd" d="M14.4696 10.0439H9.53011C8.66841 10.0439 8.12793 10.6542 8.12793 11.5175V13.5261C8.12793 14.3894 8.66611 14.9996 9.53011 14.9996H14.4696C15.3344 14.9996 15.8718 14.3894 15.8718 13.5261V11.5175C15.8718 10.6542 15.3344 10.0439 14.4696 10.0439Z" stroke="black" stroke-width="1.5" stroke-linecap="round" stroke-linejoin="round"/>
<path d="M15.4646 7H8.53564" stroke="black" stroke-width="1.5" stroke-linecap="round" stroke-linejoin="round"/>
<path d="M21 6.30957C21 4.65272 19.6569 3.30957 18 3.30957H6C4.34315 3.30957 3 4.65272 3 6.30957V15.0929C3 16.7497 4.34315 18.0929 6 18.0929H8.16198C8.5598 18.0929 8.94134 18.2509 9.22264 18.5322L10.9393 20.2489C11.5251 20.8347 12.4749 20.8347 13.0607 20.2489L14.7774 18.5322C15.0587 18.2509 15.4402 18.0929 15.838 18.0929H18C19.6569 18.0929 21 16.7497 21 15.0929V6.30957Z" stroke="black" stroke-width="1.5" stroke-linecap="round" stroke-linejoin="round"/>
</svg>
