<svg width="24" height="24" viewBox="0 0 24 24" fill="none" xmlns="http://www.w3.org/2000/svg">
<path d="M15.876 9.6875H18.879C20.0503 9.6875 20.9999 10.6339 20.9999 11.8012L21 19.5868C21 20.1516 20.3667 20.4868 19.8972 20.1706L17.8257 18.7755C17.6326 18.6454 17.4048 18.5759 17.1718 18.5759H10.3956C9.22424 18.5759 8.27468 17.6296 8.27468 16.4622V12.6264" stroke="black" stroke-width="1.5" stroke-linecap="round" stroke-linejoin="round"/>
<path d="M13.6044 3.70801H5.12099C3.94965 3.70801 3.0001 4.65437 3.0001 5.82176L3 13.6073C2.99998 14.1721 3.63328 14.5073 4.1028 14.1911L6.17432 12.796C6.36742 12.6659 6.59515 12.5964 6.82821 12.5964H13.6044C14.7758 12.5964 15.7253 11.6501 15.7253 10.4827V5.82175C15.7253 4.65436 14.7758 3.70801 13.6044 3.70801Z" stroke="black" stroke-width="1.5" stroke-linecap="round" stroke-linejoin="round"/>
</svg>
