<svg width="24" height="24" viewBox="0 0 24 24" fill="none" xmlns="http://www.w3.org/2000/svg">
<path fill-rule="evenodd" clip-rule="evenodd" d="M10.2239 15.267C10.3756 15.1321 10.5715 15.0576 10.7745 15.0576H15.4323C16.8057 15.0576 17.9188 13.9445 17.9188 12.5711V5.94057C17.9188 4.56721 16.8057 3.4541 15.4323 3.4541H5.48647C4.11311 3.4541 3 4.56721 3 5.94057V12.5711C3 13.9445 4.11311 15.0576 5.48647 15.0576H6.31529C6.54416 15.0576 6.7297 15.2431 6.7297 15.472V17.4501C6.7297 17.8076 7.15217 17.9974 7.41943 17.7598L10.2239 15.267Z" stroke="black" stroke-width="1.5" stroke-linecap="round" stroke-linejoin="round"/>
<path fill-rule="evenodd" clip-rule="evenodd" d="M10.2239 15.267C10.3756 15.1321 10.5715 15.0576 10.7745 15.0576H15.4323C16.8057 15.0576 17.9188 13.9445 17.9188 12.5711V5.94057C17.9188 4.56721 16.8057 3.4541 15.4323 3.4541H5.48647C4.11311 3.4541 3 4.56721 3 5.94057V12.5711C3 13.9445 4.11311 15.0576 5.48647 15.0576H6.31529C6.54416 15.0576 6.7297 15.2431 6.7297 15.472V17.4501C6.7297 17.8076 7.15217 17.9974 7.41943 17.7598L10.2239 15.267Z" stroke="black" stroke-width="1.5" stroke-linecap="round" stroke-linejoin="round"/>
<path fill-rule="evenodd" clip-rule="evenodd" d="M10.2239 15.267C10.3756 15.1321 10.5715 15.0576 10.7745 15.0576H15.4323C16.8057 15.0576 17.9188 13.9445 17.9188 12.5711V5.94057C17.9188 4.56721 16.8057 3.4541 15.4323 3.4541H5.48647C4.11311 3.4541 3 4.56721 3 5.94057V12.5711C3 13.9445 4.11311 15.0576 5.48647 15.0576H6.31529C6.54416 15.0576 6.7297 15.2431 6.7297 15.472V17.4501C6.7297 17.8076 7.15217 17.9974 7.41943 17.7598L10.2239 15.267Z" stroke="black" stroke-width="1.5" stroke-linecap="round" stroke-linejoin="round"/>
<path d="M11.2746 18.1385H14.3322C14.5063 18.1385 14.6744 18.2024 14.8045 18.3181L17.2097 20.4561C17.4389 20.6598 17.8012 20.4971 17.8012 20.1904V18.494C17.8012 18.2977 17.9604 18.1385 18.1567 18.1385H18.8675C20.0453 18.1385 21 17.1839 21 16.006V10.3193" stroke="black" stroke-width="1.5" stroke-linecap="round" stroke-linejoin="round"/>
<path d="M11.2746 18.1385H14.3322C14.5063 18.1385 14.6744 18.2024 14.8045 18.3181L17.2097 20.4561C17.4389 20.6598 17.8012 20.4971 17.8012 20.1904V18.494C17.8012 18.2977 17.9604 18.1385 18.1567 18.1385H18.8675C20.0453 18.1385 21 17.1839 21 16.006V10.3193" stroke="black" stroke-width="1.5" stroke-linecap="round" stroke-linejoin="round"/>
<path d="M11.2746 18.1385H14.3322C14.5063 18.1385 14.6744 18.2024 14.8045 18.3181L17.2097 20.4561C17.4389 20.6598 17.8012 20.4971 17.8012 20.1904V18.494C17.8012 18.2977 17.9604 18.1385 18.1567 18.1385H18.8675C20.0453 18.1385 21 17.1839 21 16.006V10.3193" stroke="black" stroke-width="1.5" stroke-linecap="round" stroke-linejoin="round"/>
</svg>
