<svg width="24" height="24" viewBox="0 0 24 24" fill="none" xmlns="http://www.w3.org/2000/svg">
<path d="M15.876 9.89355H18.879C20.0503 9.89355 20.9999 10.8399 20.9999 12.0073L21 19.7928C21 20.3576 20.3667 20.6929 19.8972 20.3767L17.8257 18.9815C17.6326 18.8515 17.4048 18.782 17.1718 18.782H10.3956C9.22424 18.782 8.27468 17.8356 8.27468 16.6682V12.4078" stroke="black" stroke-width="1.5" stroke-linecap="round" stroke-linejoin="round"/>
<path d="M13.6044 3.50195H5.12099C3.94965 3.50195 3.0001 4.44831 3.0001 5.6157L3 13.4012C2.99998 13.966 3.63328 14.3013 4.1028 13.9851L6.17432 12.5899C6.36742 12.4599 6.59515 12.3904 6.82821 12.3904H13.6044C14.7758 12.3904 15.7253 11.444 15.7253 10.2766V5.6157C15.7253 4.44831 14.7758 3.50195 13.6044 3.50195Z" stroke="black" stroke-width="1.5" stroke-linecap="round" stroke-linejoin="round"/>
<path d="M12.7236 14.9757L13.9997 16.2518L16.5513 13.7002" stroke="black" stroke-width="1.5" stroke-linecap="round" stroke-linejoin="round"/>
<path d="M7.85086 9.15173L10.3424 6.66016M10.3422 9.15173L7.85059 6.66016" stroke="black" stroke-width="1.5" stroke-linecap="round" stroke-linejoin="round"/>
</svg>
