<svg width="24" height="24" viewBox="0 0 24 24" fill="none" xmlns="http://www.w3.org/2000/svg">
<path fill-rule="evenodd" clip-rule="evenodd" d="M11.0454 13.4075V17.8028C11.0454 19.4313 12.0645 20.58 13.693 20.58H18.3577C19.9862 20.58 20.9999 19.4313 20.9999 17.8028V13.4075C20.9999 11.779 19.9808 10.6309 18.3577 10.6309H13.693C12.0645 10.6309 11.0454 11.779 11.0454 13.4075Z" stroke="black" stroke-width="1.5" stroke-linecap="round" stroke-linejoin="round"/>
<path d="M21.0002 17.8135L19.0049 15.9043C18.4763 15.3976 17.6406 15.4138 17.1286 15.9365L12.8145 20.3588" stroke="black" stroke-width="1.5" stroke-linecap="round" stroke-linejoin="round"/>
<path d="M14.1714 13.9573V13.9031M14.1643 13.7422C14.0339 13.7422 13.9277 13.8484 13.9287 13.9788C13.9287 14.1093 14.035 14.2155 14.1654 14.2155C14.2958 14.2155 14.402 14.1093 14.402 13.9788C14.402 13.8474 14.2958 13.7422 14.1643 13.7422Z" stroke="black" stroke-width="1.5" stroke-linecap="round" stroke-linejoin="round"/>
<path d="M6.98655 7.13867H12.3541M6.94092 10.9984H8.84523" stroke="black" stroke-width="1.5" stroke-linecap="round" stroke-linejoin="round"/>
<path d="M11.0033 16.7859C10.5373 17.2519 9.78178 17.2519 9.31579 16.7859L7.95014 15.4202C7.72636 15.1965 7.42286 15.0707 7.10638 15.0707H5.38652C4.06848 15.0707 3 14.0023 3 12.6842V5.69706C3 4.37903 4.06848 3.31055 5.38652 3.31055H14.9326C16.2506 3.31055 17.3191 4.37903 17.3191 5.69706V10.5951" stroke="black" stroke-width="1.5" stroke-linecap="round" stroke-linejoin="round"/>
</svg>
