<svg width="24" height="24" viewBox="0 0 24 24" fill="none" xmlns="http://www.w3.org/2000/svg">
<path d="M13.0127 14.6133H8.57227" stroke="black" stroke-width="1.5" stroke-linecap="round" stroke-linejoin="round"/>
<path d="M10.9878 9.38281H15.4282" stroke="black" stroke-width="1.5" stroke-linecap="round" stroke-linejoin="round"/>
<path fill-rule="evenodd" clip-rule="evenodd" d="M10.9881 9.3268C10.9881 10.0593 10.3939 10.6536 9.66176 10.6536C8.92908 10.6536 8.33496 10.0593 8.33496 9.3268C8.33496 8.59429 8.92908 8 9.66176 8C10.3939 8 10.9881 8.59429 10.9881 9.3268Z" stroke="black" stroke-width="1.5" stroke-linecap="round" stroke-linejoin="round"/>
<path fill-rule="evenodd" clip-rule="evenodd" d="M13.0122 14.6735C13.0122 13.941 13.6058 13.3467 14.3385 13.3467C15.0712 13.3467 15.6653 13.941 15.6653 14.6735C15.6653 15.406 15.0712 16.0003 14.3385 16.0003C13.6058 16.0003 13.0122 15.406 13.0122 14.6735Z" stroke="black" stroke-width="1.5" stroke-linecap="round" stroke-linejoin="round"/>
<path d="M21 9.17578C21 6.41436 18.7614 4.17578 16 4.17578H8C5.23858 4.17578 3 6.41436 3 9.17578V18.8242C3 19.3765 3.44772 19.8242 4 19.8242H16C18.7614 19.8242 21 17.5856 21 14.8242V9.17578Z" stroke="black" stroke-width="1.5" stroke-linecap="round" stroke-linejoin="round"/>
</svg>
