<svg width="24" height="24" viewBox="0 0 24 24" fill="none" xmlns="http://www.w3.org/2000/svg">
<path fill-rule="evenodd" clip-rule="evenodd" d="M11.7158 17.6002C11.8989 17.4375 12.1353 17.3477 12.3802 17.3477H18C19.657 17.3477 21 16.0047 21 14.3477V6.34766C21 4.69066 19.657 3.34766 18 3.34766H6C4.343 3.34766 3 4.69066 3 6.34766V14.3477C3 16.0047 4.343 17.3477 6 17.3477H7C7.27614 17.3477 7.5 17.5715 7.5 17.8477V20.2342C7.5 20.6657 8.00973 20.8946 8.33218 20.6079L11.7158 17.6002Z" stroke="black" stroke-width="1.5" stroke-linecap="round" stroke-linejoin="round"/>
<path d="M10.3926 11.7335C14.0463 15.3863 15.0858 13.8039 15.2498 13.6724C16.5557 12.3665 15.9632 12.1599 14.932 11.1291C14.3564 10.554 13.946 10.8855 13.4278 11.0525C12.9255 11.2143 12.6653 11.0906 11.8518 10.2744M10.3917 11.7327C6.739 8.07904 8.32144 7.03946 8.45286 6.8755C9.7588 5.56956 9.96538 6.16211 10.9962 7.19333C11.5713 7.7689 11.2398 8.17934 11.0728 8.6975C10.911 9.19975 11.0347 9.45997 11.8509 10.2735" stroke="black" stroke-width="1.5" stroke-linecap="round" stroke-linejoin="round"/>
</svg>
