<svg width="24" height="24" viewBox="0 0 24 24" fill="none" xmlns="http://www.w3.org/2000/svg">
<path d="M7.66309 7.9375H13.2202M7.66309 11.755H10.0619" stroke="black" stroke-width="1.5" stroke-linecap="round" stroke-linejoin="round"/>
<path d="M11.163 17.2354H8.40809C8.10461 17.2354 7.80826 17.3271 7.5582 17.4985L4.56659 19.5486C3.9031 20.0033 3 19.5299 3 18.7274V6.26724C3 4.61596 4.34315 3.27734 6 3.27734H18C19.6569 3.27734 21 4.61596 21 6.26723V11.2556" stroke="black" stroke-width="1.5" stroke-linecap="round" stroke-linejoin="round"/>
<path d="M13.4166 14.0133L15.2414 20.2343C15.407 20.7981 16.1621 20.8997 16.4706 20.3994L18.2286 18.0012L20.6451 16.2249C21.1453 15.9164 21.0437 15.1613 20.48 14.9958L14.259 13.1709C13.7436 13.0197 13.2654 13.4983 13.4166 14.0133Z" stroke="black" stroke-width="1.5" stroke-linecap="round" stroke-linejoin="round"/>
<path d="M16.3837 16.2021L18.2065 18.0188" stroke="black" stroke-width="1.5" stroke-linecap="round" stroke-linejoin="round"/>
</svg>
