<svg width="24" height="24" viewBox="0 0 24 24" fill="none" xmlns="http://www.w3.org/2000/svg">
<path fill-rule="evenodd" clip-rule="evenodd" d="M15.2767 10.4247C16.4895 12.7845 15.5141 15.9461 12.7281 16.4054C9.07999 17.2047 6.64616 12.7505 9.38696 10.1391C9.53339 9.99464 9.93668 9.62054 10.105 9.50038C10.105 9.75043 10.3259 11.6871 10.6713 11.5406C12.0923 11.5406 12.4737 9.00029 12.2776 7.5C13.5565 8.16841 14.6399 9.09953 15.2767 10.4247Z" stroke="black" stroke-width="1.5" stroke-linecap="round" stroke-linejoin="round"/>
<path d="M21 9.17578C21 6.41436 18.7614 4.17578 16 4.17578H8C5.23858 4.17578 3 6.41436 3 9.17578V18.8242C3 19.3765 3.44772 19.8242 4 19.8242H16C18.7614 19.8242 21 17.5856 21 14.8242V9.17578Z" stroke="black" stroke-width="1.5" stroke-linecap="round" stroke-linejoin="round"/>
</svg>
