<svg width="24" height="24" viewBox="0 0 24 24" fill="none" xmlns="http://www.w3.org/2000/svg">
<path d="M20.0093 17.2605L20.0072 17.2645C19.9431 17.3759 19.9033 17.5 19.9054 17.6289L19.9128 18.0485C19.9162 18.2651 19.8156 18.4715 19.6409 18.5984C19.4533 18.734 19.253 18.85 19.0411 18.9438C18.8441 19.0315 18.6147 19.0153 18.4298 18.904L18.0702 18.6888C17.9596 18.622 17.8321 18.5936 17.7026 18.5943H17.6985C17.5696 18.5943 17.4428 18.622 17.3322 18.6881L16.9719 18.904C16.7863 19.0153 16.5576 19.0315 16.36 18.9438C16.1488 18.8493 15.9477 18.7333 15.7608 18.5977C15.5861 18.4702 15.4862 18.2637 15.4896 18.0478L15.497 17.6289C15.4991 17.4993 15.4593 17.3752 15.3945 17.2632L15.3925 17.2591C15.3277 17.1478 15.24 17.052 15.128 16.9899L14.761 16.7862C14.5673 16.6782 14.4412 16.4812 14.4189 16.2613C14.3967 16.0407 14.3967 15.818 14.4196 15.5974C14.4419 15.3775 14.568 15.1805 14.7617 15.0732L15.1273 14.8701C15.2407 14.8074 15.3284 14.7109 15.3931 14.5989L15.3952 14.5955C15.4593 14.4835 15.4991 14.3594 15.497 14.2305L15.4896 13.8116C15.4862 13.595 15.5868 13.3885 15.7622 13.261C15.9491 13.1254 16.1495 13.0094 16.3613 12.9156C16.5583 12.8279 16.7877 12.8441 16.9726 12.9554L17.3322 13.1713C17.4428 13.2374 17.5703 13.2657 17.6992 13.2651H17.7039C17.8328 13.2651 17.9596 13.2374 18.0702 13.1713L18.4298 12.9554C18.6154 12.8441 18.8448 12.8279 19.0425 12.9156C19.2536 13.01 19.4547 13.1261 19.6416 13.2617C19.8163 13.3892 19.9162 13.5957 19.9128 13.8116L19.9054 14.2305C19.9033 14.3601 19.9431 14.4842 20.0079 14.5955L20.0099 14.6002C20.0747 14.7116 20.1624 14.8074 20.2751 14.8701L20.6414 15.0732C20.8351 15.1811 20.9612 15.3781 20.9835 15.5981C21.0058 15.8194 21.0058 16.0413 20.9828 16.2626C20.9606 16.4826 20.8344 16.6789 20.6408 16.7862L20.2751 16.9893C20.1617 17.052 20.074 17.1485 20.0093 17.2605Z" stroke="black" stroke-width="1.5" stroke-linecap="round" stroke-linejoin="round"/>
<path d="M17.7068 15.9483V15.9973M17.7005 16.1426C17.5827 16.1426 17.4868 16.0467 17.4878 15.9289C17.4878 15.8112 17.5837 15.7153 17.7014 15.7153C17.8192 15.7153 17.9151 15.8112 17.9151 15.9289C17.9151 16.0476 17.8192 16.1426 17.7005 16.1426Z" stroke="black" stroke-width="1.5" stroke-linecap="round" stroke-linejoin="round"/>
<path d="M10.9171 12.7246V11.8165M10.9171 8.18391V7.27581M8.55518 11.3625L9.33927 10.9085M12.4937 9.09181L13.277 8.63771M8.55518 8.63771L9.33927 9.09181M12.4937 10.9085L13.277 11.3625M12.2006 11.2852C12.9095 10.5763 12.9095 9.42501 12.2006 8.71601C11.4916 8.00711 10.3412 8.00711 9.63226 8.71601C8.92329 9.42501 8.92329 10.5763 9.63226 11.2852C10.3412 11.9933 11.4916 11.9933 12.2006 11.2852Z" stroke="black" stroke-width="1.5" stroke-linecap="round" stroke-linejoin="round"/>
<path d="M21 10.0938V6.31055C21 4.65369 19.6569 3.31055 18 3.31055H6C4.34315 3.31055 3 4.65369 3 6.31055V15.0938C3 16.7507 4.34315 18.0938 6 18.0938H8.16198C8.5598 18.0938 8.94134 18.2519 9.22264 18.5332L10.9393 20.2499C11.5251 20.8357 12.4749 20.8357 13.0607 20.2499" stroke="black" stroke-width="1.5" stroke-linecap="round" stroke-linejoin="round"/>
</svg>
