<svg width="24" height="24" viewBox="0 0 24 24" fill="none" xmlns="http://www.w3.org/2000/svg">
<path fill-rule="evenodd" clip-rule="evenodd" d="M11.0454 13.4075V17.8028C11.0454 19.4313 12.0645 20.58 13.693 20.58H18.3577C19.9862 20.58 20.9999 19.4313 20.9999 17.8028V13.4075C20.9999 11.779 19.9808 10.6309 18.3577 10.6309H13.693C12.0645 10.6309 11.0454 11.779 11.0454 13.4075Z" stroke="black" stroke-width="1.5" stroke-linecap="round" stroke-linejoin="round"/>
<path d="M21.0002 17.8144L19.0049 15.9053C18.4763 15.3986 17.6406 15.4148 17.1286 15.9375L12.8145 20.3598" stroke="black" stroke-width="1.5" stroke-linecap="round" stroke-linejoin="round"/>
<path d="M14.1714 13.9573V13.9031M14.1643 13.7422C14.0339 13.7422 13.9277 13.8484 13.9287 13.9788C13.9287 14.1093 14.035 14.2155 14.1654 14.2155C14.2958 14.2155 14.402 14.1093 14.402 13.9788C14.402 13.8474 14.2958 13.7422 14.1643 13.7422Z" stroke="black" stroke-width="1.5" stroke-linecap="round" stroke-linejoin="round"/>
<path d="M6.63254 7.48828H12.0001M6.58691 11.348H8.76372" stroke="black" stroke-width="1.5" stroke-linecap="round" stroke-linejoin="round"/>
<path d="M10.9199 14.9081L7.30868 14.9081C7.06689 14.9081 6.83079 14.9814 6.63156 15.1184L4.24812 16.7573C3.71951 17.1208 3 16.7424 3 16.1008V6.14013C3 4.8201 4.0701 3.75 5.39013 3.75H14.9507C16.2707 3.75 17.3408 4.8201 17.3408 6.14013V10.4682" stroke="black" stroke-width="1.5" stroke-linecap="round" stroke-linejoin="round"/>
</svg>
