<svg width="24" height="24" viewBox="0 0 24 24" fill="none" xmlns="http://www.w3.org/2000/svg">
<path d="M9.68262 12.0601L11.9145 14.292C12.0292 14.4066 12.2145 14.4066 12.3286 14.292L17.0001 9.62109" stroke="black" stroke-width="1.5" stroke-linecap="round" stroke-linejoin="round"/>
<path d="M14.0735 9.62109L12.1221 11.5725" stroke="black" stroke-width="1.5" stroke-linecap="round" stroke-linejoin="round"/>
<path d="M7 12.3047L8.98816 14.2928C9.10275 14.4074 9.28762 14.4074 9.40222 14.2928L10.6585 13.0366" stroke="black" stroke-width="1.5" stroke-linecap="round" stroke-linejoin="round"/>
<path d="M21 9.17578C21 6.41436 18.7614 4.17578 16 4.17578H8C5.23858 4.17578 3 6.41436 3 9.17578V18.8242C3 19.3765 3.44772 19.8242 4 19.8242H16C18.7614 19.8242 21 17.5856 21 14.8242V9.17578Z" stroke="black" stroke-width="1.5" stroke-linecap="round" stroke-linejoin="round"/>
</svg>
