<svg width="24" height="24" viewBox="0 0 24 24" fill="none" xmlns="http://www.w3.org/2000/svg">
<path d="M9.36133 14.8933V12.2822" stroke="black" stroke-width="1.5" stroke-linecap="round" stroke-linejoin="round"/>
<path fill-rule="evenodd" clip-rule="evenodd" d="M9.78644 12.2823H8.93564C8.48051 12.2823 8.11133 11.9144 8.11133 11.4605V9.1034C8.11133 8.64947 8.48051 8.28223 8.93564 8.28223H9.78644C10.2421 8.28223 10.6113 8.64947 10.6113 9.1034V11.4605C10.6113 11.9144 10.2421 12.2823 9.78644 12.2823Z" stroke="black" stroke-width="1.5" stroke-linecap="round" stroke-linejoin="round"/>
<path d="M9.36133 8.28244V6.89355" stroke="black" stroke-width="1.5" stroke-linecap="round" stroke-linejoin="round"/>
<path d="M14.6392 14.8938V13.5049" stroke="black" stroke-width="1.5" stroke-linecap="round" stroke-linejoin="round"/>
<path fill-rule="evenodd" clip-rule="evenodd" d="M15.0643 13.5049H14.2135C13.7583 13.5049 13.3892 13.1371 13.3892 12.6832V10.3261C13.3892 9.87213 13.7583 9.50488 14.2135 9.50488H15.0643C15.5199 9.50488 15.8891 9.87213 15.8891 10.3261V12.6832C15.8891 13.1371 15.5199 13.5049 15.0643 13.5049Z" stroke="black" stroke-width="1.5" stroke-linecap="round" stroke-linejoin="round"/>
<path d="M14.6392 9.50467V6.89355" stroke="black" stroke-width="1.5" stroke-linecap="round" stroke-linejoin="round"/>
<path d="M21 6.75C21 5.09315 19.6569 3.75 18 3.75H6C4.34315 3.75 3 5.09315 3 6.75V19.2523C3 20.0575 3.9031 20.5325 4.56659 20.0763L7.5582 18.0192C7.80826 17.8473 8.10461 17.7552 8.40809 17.7552H18C19.6569 17.7552 21 16.4121 21 14.7552V6.75Z" stroke="black" stroke-width="1.5" stroke-linecap="round" stroke-linejoin="round"/>
</svg>
