<svg width="24" height="24" viewBox="0 0 24 24" fill="none" xmlns="http://www.w3.org/2000/svg">
<path d="M10.21 11.4512C10.21 10.6227 9.53839 9.95117 8.70996 9.95117C7.88153 9.95117 7.20996 10.6227 7.20996 11.4512" stroke="black" stroke-width="1.5" stroke-linecap="round" stroke-linejoin="round"/>
<path d="M16.79 11.4512C16.79 10.6227 16.1185 9.95117 15.29 9.95117C14.4616 9.95117 13.79 10.6227 13.79 11.4512" stroke="black" stroke-width="1.5" stroke-linecap="round" stroke-linejoin="round"/>
<path d="M3 9.50852C3 6.75641 5.23858 4.52539 8 4.52539H16C18.7614 4.52539 21 6.75642 21 9.50852V18.4782C21 19.0286 20.5523 19.4748 20 19.4748H8C5.23858 19.4748 3 17.2438 3 14.4917V9.50852Z" stroke="black" stroke-width="1.5" stroke-linecap="round" stroke-linejoin="round"/>
</svg>
