<svg width="24" height="24" viewBox="0 0 24 24" fill="none" xmlns="http://www.w3.org/2000/svg">
<path fill-rule="evenodd" clip-rule="evenodd" d="M16.543 9.981C16.505 9.987 16.468 9.989 16.431 9.989C16.065 9.989 15.746 9.723 15.689 9.351C15.647 9.059 15.397 8.847 15.099 8.847C14.81 8.847 14.562 9.061 14.522 9.344C14.464 9.755 14.073 10.036 13.675 9.982C13.265 9.924 12.979 9.544 13.037 9.134C13.181 8.116 14.066 7.347 15.099 7.347C16.146 7.347 17.019 8.096 17.173 9.128C17.234 9.538 16.952 9.919 16.543 9.981ZM12 17.476C9.731 17.476 7.886 15.672 7.886 13.456C7.886 13.203 8.109 12.998 8.386 12.998H15.615C15.892 12.998 16.115 13.203 16.115 13.456C16.115 15.672 14.27 17.476 12 17.476ZM7.567 9.989C7.53 9.989 7.492 9.986 7.454 9.981C7.045 9.919 6.763 9.537 6.825 9.127C6.981 8.096 7.851 7.347 8.893 7.347C9.944 7.347 10.814 8.099 10.962 9.133C11.021 9.544 10.735 9.923 10.325 9.982C9.926 10.035 9.535 9.755 9.478 9.345C9.437 9.057 9.19 8.847 8.893 8.847C8.598 8.847 8.353 9.06 8.308 9.352C8.252 9.723 7.932 9.989 7.567 9.989ZM16.217 2.5H7.782C4.623 2.5 2.5 4.72 2.5 8.025V15.973C2.5 19.279 4.623 21.5 7.782 21.5H16.216C19.376 21.5 21.5 19.279 21.5 15.973V8.025C21.5 4.72 19.377 2.5 16.217 2.5Z" fill="black"/>
</svg>