<svg width="24" height="24" viewBox="0 0 24 24" fill="none" xmlns="http://www.w3.org/2000/svg">
<path fill-rule="evenodd" clip-rule="evenodd" d="M15.225 9.8C14.688 9.8 14.25 9.363 14.25 8.825C14.248 8.57 14.349 8.323 14.533 8.138C14.717 7.952 14.962 7.85 15.224 7.85C15.762 7.85 16.201 8.287 16.201 8.825C16.201 9.363 15.763 9.8 15.225 9.8ZM12 17.242C9.732 17.242 7.886 15.274 7.886 12.855C7.886 12.579 8.11 12.355 8.386 12.355H15.616C15.892 12.355 16.116 12.579 16.116 12.855C16.116 15.274 14.27 17.242 12 17.242ZM7.75 8.825C7.748 8.57 7.849 8.323 8.033 8.138C8.217 7.952 8.462 7.85 8.724 7.85C9.262 7.85 9.701 8.287 9.701 8.825C9.701 9.363 9.263 9.8 8.725 9.8C8.188 9.8 7.75 9.363 7.75 8.825ZM16.217 2.5H7.783C4.623 2.5 2.5 4.721 2.5 8.026V15.974C2.5 19.279 4.623 21.5 7.783 21.5H16.216C19.376 21.5 21.5 19.279 21.5 15.974V8.026C21.5 4.721 19.377 2.5 16.217 2.5Z" fill="black"/>
</svg>