<svg width="24" height="24" viewBox="0 0 24 24" fill="none" xmlns="http://www.w3.org/2000/svg">
<path fill-rule="evenodd" clip-rule="evenodd" d="M15.275 9.227C14.737 9.227 14.299 8.79 14.299 8.252C14.297 7.997 14.398 7.751 14.582 7.565C14.766 7.379 15.012 7.277 15.274 7.277C15.812 7.277 16.25 7.714 16.25 8.252C16.25 8.79 15.812 9.227 15.275 9.227ZM13.821 12.531H10.278C9.864 12.531 9.528 12.195 9.528 11.781C9.528 11.367 9.864 11.031 10.278 11.031H13.821C14.235 11.031 14.571 11.367 14.571 11.781C14.571 12.195 14.235 12.531 13.821 12.531ZM8.775 9.227C8.237 9.227 7.799 8.79 7.799 8.252C7.797 7.997 7.898 7.751 8.082 7.565C8.266 7.379 8.512 7.277 8.774 7.277C9.312 7.277 9.75 7.714 9.75 8.252C9.75 8.79 9.312 9.227 8.775 9.227ZM16.216 2.5H7.782C4.623 2.5 2.5 4.721 2.5 8.026V15.974C2.5 19.279 4.623 21.5 7.782 21.5H16.215C19.376 21.5 21.5 19.279 21.5 15.974V8.026C21.5 4.721 19.377 2.5 16.216 2.5Z" fill="black"/>
</svg>