<svg width="24" height="24" viewBox="0 0 24 24" fill="none" xmlns="http://www.w3.org/2000/svg">
<path fill-rule="evenodd" clip-rule="evenodd" d="M12.0014 13.2073C11.4384 13.2073 10.9804 13.6653 10.9804 14.2293C10.9804 14.7923 11.4384 15.2513 12.0014 15.2513C12.5644 15.2513 13.0224 14.7923 13.0224 14.2293C13.0224 13.6653 12.5644 13.2073 12.0014 13.2073Z" fill="black"/>
<path fill-rule="evenodd" clip-rule="evenodd" d="M15.225 9.2C14.688 9.2 14.25 8.763 14.25 8.225C14.248 7.97 14.349 7.724 14.533 7.538C14.717 7.352 14.962 7.25 15.224 7.25C15.762 7.25 16.201 7.687 16.201 8.225C16.201 8.763 15.763 9.2 15.225 9.2ZM12.001 16.751C10.611 16.751 9.48 15.62 9.48 14.229C9.48 12.839 10.611 11.707 12.001 11.707C13.392 11.707 14.523 12.839 14.523 14.229C14.523 15.62 13.392 16.751 12.001 16.751ZM8.725 9.2C8.188 9.2 7.75 8.763 7.75 8.225C7.748 7.97 7.849 7.724 8.033 7.538C8.217 7.352 8.462 7.25 8.724 7.25C9.262 7.25 9.701 7.687 9.701 8.225C9.701 8.763 9.263 9.2 8.725 9.2ZM16.217 2.5H7.783C4.623 2.5 2.5 4.721 2.5 8.026V15.974C2.5 19.28 4.623 21.5 7.783 21.5H16.216C19.376 21.5 21.5 19.28 21.5 15.974V8.026C21.5 4.721 19.377 2.5 16.217 2.5Z" fill="black"/>
</svg>