<svg width="24" height="24" viewBox="0 0 24 24" fill="none" xmlns="http://www.w3.org/2000/svg">
<path fill-rule="evenodd" clip-rule="evenodd" d="M14.9641 16.5745C14.3771 16.9395 14.0191 17.5815 14.0191 18.2735C14.0191 18.8085 14.2319 19.2807 14.5817 19.6475C14.7474 19.8212 14.7174 20.1294 14.4914 20.21C13.549 20.5463 12.5343 20.7305 11.4771 20.7305C6.51505 20.7305 2.47705 16.6935 2.47705 11.7305C2.47705 6.76847 6.51505 2.73047 11.4771 2.73047C16.4401 2.73047 20.4771 6.76847 20.4771 11.7305C20.4771 12.5065 20.3762 13.2592 20.1895 13.9777C20.1303 14.2056 19.8337 14.2673 19.6409 14.132C19.3164 13.9041 18.9291 13.7735 18.5191 13.7735C17.8281 13.7735 17.1851 14.1305 16.8201 14.7175L16.146 15.803C16.1217 15.8421 16.0887 15.8751 16.0496 15.8995L14.9641 16.5745ZM7.52713 9.34145C7.52513 9.08746 7.62613 8.84046 7.80913 8.65546C7.99413 8.46946 8.24013 8.36646 8.50213 8.36646C9.04013 8.36646 9.47713 8.80446 9.47713 9.34145C9.47713 9.87946 9.04013 10.3175 8.50313 10.3175C7.96513 10.3175 7.52713 9.87946 7.52713 9.34145ZM7.97314 13.3185C7.97314 13.0385 8.20314 12.8185 8.47314 12.8185H14.5831C14.8531 12.8185 15.0831 13.0385 15.0831 13.3185C15.0831 15.0285 13.4831 16.4185 11.5331 16.4185C9.57314 16.4185 7.97314 15.0285 7.97314 13.3185ZM15.0021 8.36646C14.7401 8.36646 14.4941 8.46946 14.3091 8.65546C14.1261 8.84046 14.0251 9.08746 14.0271 9.34145C14.0271 9.87946 14.4651 10.3175 15.0031 10.3175C15.5401 10.3175 15.9771 9.87946 15.9771 9.34145C15.9771 8.80446 15.5401 8.36646 15.0021 8.36646Z" fill="black"/>
<path fill-rule="evenodd" clip-rule="evenodd" d="M21.2829 17.8485L19.8429 16.9485L19.3229 16.1185L18.9429 15.5085C18.7629 15.2185 18.2829 15.2185 18.0929 15.5085L17.2029 16.9485L15.7529 17.8485C15.6129 17.9385 15.5229 18.0985 15.5229 18.2685C15.5229 18.4485 15.6129 18.6085 15.7529 18.6985L16.5229 19.1785L17.2029 19.5985L18.0929 21.0385C18.1829 21.1885 18.3429 21.2685 18.5229 21.2685C18.6929 21.2685 18.8529 21.1885 18.9429 21.0385L19.8429 19.5985L21.2829 18.6985C21.4329 18.6085 21.5229 18.4485 21.5229 18.2685C21.5229 18.0985 21.4329 17.9385 21.2829 17.8485Z" fill="black"/>
</svg>