<svg width="24" height="24" viewBox="0 0 24 24" fill="none" xmlns="http://www.w3.org/2000/svg">
<path fill-rule="evenodd" clip-rule="evenodd" d="M15.2933 8.6134C14.5513 8.6134 13.9473 9.2174 13.9473 9.9594C13.9473 10.7014 14.5513 11.3054 15.2933 11.3054C16.0313 11.3054 16.6323 10.7074 16.6383 9.9704C16.6373 9.9674 16.6363 9.9644 16.6363 9.9614C16.6363 9.9574 16.6383 9.9544 16.6383 9.9504C16.6333 9.2134 16.0323 8.6134 15.2933 8.6134Z" fill="black"/>
<path fill-rule="evenodd" clip-rule="evenodd" d="M8.80787 11.3053C9.54787 11.3053 10.1489 10.7043 10.1529 9.96528C10.1529 9.96528 10.1519 9.96328 10.1519 9.96128C10.1519 9.95928 10.1529 9.95828 10.1529 9.95528C10.1509 9.21528 9.54887 8.61328 8.80787 8.61328C8.06687 8.61328 7.46387 9.21628 7.46387 9.95828V9.96328C7.46587 10.7033 8.06787 11.3053 8.80787 11.3053Z" fill="black"/>
<path d="M6.14477 8.99356C6.09871 9.12055 5.98182 9.21147 5.84674 9.21147H3.03145C2.86576 9.21147 2.73145 9.07715 2.73145 8.91147V8.12847C2.73145 4.89947 4.80445 2.73047 7.89045 2.73047H16.1074C19.1944 2.73047 21.2684 4.89947 21.2684 8.12847V9.01135C21.2684 9.13307 21.1472 9.21147 21.0254 9.21147H18.2562C18.1211 9.21147 18.0042 9.12055 17.9581 8.99357C17.5614 7.90036 16.5213 7.11347 15.2934 7.11347C14.0647 7.11347 13.0254 7.90036 12.6288 8.99356C12.5827 9.12055 12.4658 9.21147 12.3307 9.21147H11.7702C11.6351 9.21147 11.5182 9.12055 11.4721 8.99356C11.0755 7.90036 10.0362 7.11347 8.80745 7.11347C7.57961 7.11347 6.54123 7.90036 6.14477 8.99356Z" fill="black"/>
<path fill-rule="evenodd" clip-rule="evenodd" d="M18.2544 10.7113H21.0259C21.1477 10.7113 21.2689 10.7897 21.2689 10.9114V15.8703C21.2689 19.0983 19.1949 21.2673 16.1079 21.2673H7.89093C4.80493 21.2673 2.73193 19.0983 2.73193 15.8703V11.0113C2.73193 10.8456 2.86625 10.7113 3.03193 10.7113H5.84851C5.98346 10.7113 6.10027 10.802 6.14642 10.9289C6.54361 12.0202 7.58104 12.8053 8.80793 12.8053C10.0348 12.8053 11.0731 12.0202 11.4704 10.9288C11.5166 10.802 11.6334 10.7113 11.7684 10.7113H12.3325C12.4675 10.7113 12.5843 10.802 12.6304 10.9288C13.0277 12.0202 14.066 12.8053 15.2929 12.8053C16.5208 12.8053 17.5591 12.0202 17.9564 10.9288C18.0026 10.802 18.1194 10.7113 18.2544 10.7113ZM11.6219 16.5703C12.1529 16.0103 12.8579 15.7313 13.5569 15.8033C13.9609 15.8433 14.3369 15.5473 14.3799 15.1353C14.4229 14.7223 14.1229 14.3543 13.7109 14.3113C12.5459 14.1873 11.3849 14.6363 10.5329 15.5383C10.2479 15.8403 10.2609 16.3143 10.5619 16.5993C10.7069 16.7363 10.8919 16.8043 11.0779 16.8043C11.2769 16.8043 11.4749 16.7253 11.6219 16.5703Z" fill="black"/>
</svg>