<svg width="24" height="24" viewBox="0 0 24 24" fill="none" xmlns="http://www.w3.org/2000/svg">
<path fill-rule="evenodd" clip-rule="evenodd" d="M14.194 8.99789C14.0112 9.00039 13.8731 9.16443 13.9019 9.34499L14.1346 10.8084C14.158 10.9555 14.2859 11.0632 14.4349 11.0612L16.11 11.0391C16.2598 11.0371 16.3852 10.9249 16.4037 10.7762L16.5868 9.30639C16.6093 9.12574 16.4671 8.96684 16.285 8.96933L14.194 8.99789Z" fill="black"/>
<path fill-rule="evenodd" clip-rule="evenodd" d="M7.68134 8.99789C7.49853 9.00039 7.36045 9.16443 7.38917 9.34499L7.62194 10.8084C7.64535 10.9555 7.7732 11.0632 7.92218 11.0612L9.59716 11.0391C9.74704 11.0371 9.87246 10.9248 9.89092 10.7761L10.0733 9.30625C10.0957 9.12564 9.95347 8.96684 9.7715 8.96933L7.68134 8.99789Z" fill="black"/>
<path d="M5.87451 8.87577C5.86098 9.05724 5.72359 9.21919 5.54161 9.21919H3.16538C2.9997 9.21919 2.86633 9.08487 2.86633 8.91919V8.18919C2.86633 5.00619 4.91133 2.86719 7.95433 2.86719H16.0453C19.0883 2.86719 21.1333 5.00619 21.1333 8.18919V8.91919C21.1333 9.08487 21 9.21919 20.8343 9.21919H18.453C18.2717 9.21919 18.1347 9.05849 18.1214 8.87769C18.0977 8.55634 17.9794 8.2452 17.7623 7.99919C17.4843 7.68319 17.0833 7.50219 16.6633 7.50219H13.8473C13.4213 7.50219 13.0173 7.68619 12.7393 8.00719C12.5274 8.25101 12.4106 8.55856 12.3873 8.87577C12.3739 9.05726 12.2361 9.21919 12.0541 9.21919H11.9396C11.7583 9.21919 11.6207 9.05851 11.6077 8.87769C11.5845 8.55603 11.467 8.24484 11.2493 7.99819C10.9713 7.68319 10.5703 7.50219 10.1493 7.50219H7.33433C6.90933 7.50219 6.50433 7.68619 6.22633 8.00719C6.01536 8.25079 5.89816 8.55865 5.87451 8.87577Z" fill="black"/>
<path fill-rule="evenodd" clip-rule="evenodd" d="M17.8932 10.951L17.8572 11.2481C17.7672 11.9811 17.1422 12.5351 16.4022 12.5351H14.1422C13.4162 12.5351 12.7912 11.9931 12.6902 11.2731L12.6456 10.9466C12.6253 10.7979 12.4984 10.6871 12.3484 10.6871H11.678C11.5263 10.6871 11.3985 10.8004 11.3802 10.951L11.3442 11.2481C11.2542 11.9811 10.6292 12.5351 9.88921 12.5351H7.62921C6.90321 12.5351 6.27821 11.9931 6.17721 11.2731L6.13263 10.9466C6.11234 10.7979 5.98539 10.6871 5.83538 10.6871H3.16621C3.00053 10.6871 2.86621 10.8214 2.86621 10.9871V15.8121C2.86621 18.9961 4.91121 21.1341 7.95421 21.1341H16.0442C19.0882 21.1341 21.1332 18.9961 21.1332 15.8121V10.9871C21.1332 10.8214 20.9989 10.6871 20.8332 10.6871H18.191C18.0393 10.6871 17.9115 10.8004 17.8932 10.951ZM11.9992 17.2642C12.9962 17.2642 13.9412 16.9132 14.7312 16.2472C15.0472 15.9802 15.0882 15.5072 14.8212 15.1902C14.5532 14.8742 14.0812 14.8342 13.7642 15.1002C12.5602 16.1162 10.7532 15.8932 9.7552 14.5982C9.5022 14.2702 9.0342 14.2072 8.7032 14.4612C8.3752 14.7142 8.3142 15.1852 8.5662 15.5132C9.4232 16.6262 10.6742 17.2642 11.9992 17.2642Z" fill="black"/>
</svg>