<svg width="24" height="24" viewBox="0 0 24 24" fill="none" xmlns="http://www.w3.org/2000/svg">
<path opacity="0.4" d="M18.5637 17.0903C19.9998 16.4413 21 14.9955 21 13.3162C21 10.7203 19.1698 9.17712 16.897 9.17518C16.897 7.54253 15.6165 4.27723 12 4.27723C8.38346 4.27723 7.10303 7.54253 7.10303 9.17518C4.83308 9.19561 3 10.7203 3 13.3162C3 14.9955 3.99924 16.4413 5.43632 17.0903" stroke="black" stroke-width="1.5" stroke-linecap="round" stroke-linejoin="round"/>
<path fill-rule="evenodd" clip-rule="evenodd" d="M14.1531 16.4901C14.1531 17.68 13.1897 18.6444 11.9997 18.6444C10.8108 18.6444 9.8457 17.68 9.8457 16.4901C9.8457 15.3001 10.8108 14.3359 11.9997 14.3359C13.1897 14.3359 14.1531 15.3001 14.1531 16.4901Z" stroke="black" stroke-width="1.5" stroke-linecap="round" stroke-linejoin="round"/>
<path d="M9.20117 14.875L10.1343 15.4131M13.8646 17.5673L14.7977 18.1063" stroke="black" stroke-width="1.5" stroke-linecap="round" stroke-linejoin="round"/>
<path d="M9.20117 18.1058L10.1343 17.5668M13.8646 15.4131L14.7977 14.875" stroke="black" stroke-width="1.5" stroke-linecap="round" stroke-linejoin="round"/>
<path d="M12 13.2617V14.3378M12 18.6463V19.7234" stroke="black" stroke-width="1.5" stroke-linecap="round" stroke-linejoin="round"/>
</svg>
