<svg width="24" height="24" viewBox="0 0 24 24" fill="none" xmlns="http://www.w3.org/2000/svg">
<path opacity="0.4" d="M18.5637 16.9553C19.9998 16.3063 21 14.8605 21 13.1811C21 10.5852 19.1698 9.04209 16.897 9.04014C16.897 7.40749 15.6165 4.1422 12 4.1422C8.38346 4.1422 7.10303 7.40749 7.10303 9.04014C4.83308 9.06057 3 10.5852 3 13.1811C3 14.8605 3.99924 16.3063 5.43632 16.9553" stroke="black" stroke-width="1.5" stroke-linecap="round" stroke-linejoin="round"/>
<path d="M15.0666 13.7812V15.5813H13.2656" stroke="black" stroke-width="1.5" stroke-linecap="round" stroke-linejoin="round"/>
<path d="M11.34 18.1836H9.53906V19.8581" stroke="black" stroke-width="1.5" stroke-linecap="round" stroke-linejoin="round"/>
<path d="M14.6705 18.3539C14.1665 19.2266 13.2218 19.8124 12.1408 19.8124C10.5295 19.8124 9.53906 18.1914 9.53906 18.1914" stroke="black" stroke-width="1.5" stroke-linecap="round" stroke-linejoin="round"/>
<path d="M9.60156 15.436C10.1056 14.5535 11.0513 13.9688 12.14 13.9688C14.0938 13.9688 15.0668 15.5887 15.0668 15.5887" stroke="black" stroke-width="1.5" stroke-linecap="round" stroke-linejoin="round"/>
</svg>
