<svg width="24" height="24" viewBox="0 0 24 24" fill="none" xmlns="http://www.w3.org/2000/svg">
<path d="M12.078 20.2323H7.05901C6.43974 20.2323 5.86561 19.9054 5.54763 19.3735L3.24818 15.5166C2.91744 14.9621 2.91744 14.2702 3.24719 13.7147L8.89033 4.2352C9.20732 3.70328 9.78145 3.37647 10.4017 3.37548L13.7523 3.37352C14.3735 3.37254 14.9486 3.69935 15.2656 4.23324L19.7055 11.6949" stroke="black" stroke-width="1.5" stroke-linecap="round" stroke-linejoin="round"/>
<path d="M17.1216 18.8867H15.248V20.6287" stroke="black" stroke-width="1.5" stroke-linecap="round" stroke-linejoin="round"/>
<path opacity="0.4" d="M13.9166 12.254L12.0716 8.67188L9.04883 14.5309H12.523" stroke="black" stroke-width="1.5" stroke-linecap="round" stroke-linejoin="round"/>
<path d="M21.0005 14.3047V16.1782H19.127" stroke="black" stroke-width="1.5" stroke-linecap="round" stroke-linejoin="round"/>
<path opacity="0.4" d="M20.5879 19.0633C20.0638 19.9721 19.0795 20.5816 17.9558 20.5816C16.2785 20.5816 15.248 18.8945 15.248 18.8945" stroke="black" stroke-width="1.5" stroke-linecap="round" stroke-linejoin="round"/>
<path opacity="0.4" d="M15.3145 16.0271C15.8385 15.1095 16.8219 14.5 17.9564 14.5C19.9889 14.5 21.0008 16.1861 21.0008 16.1861" stroke="black" stroke-width="1.5" stroke-linecap="round" stroke-linejoin="round"/>
</svg>
