<svg width="24" height="24" viewBox="0 0 24 24" fill="none" xmlns="http://www.w3.org/2000/svg">
<path fill-rule="evenodd" clip-rule="evenodd" d="M10.3379 3.64508L13.6596 3.64314C14.2755 3.64216 14.8457 3.96616 15.1609 4.49546L20.7546 13.8963C21.0815 14.4461 21.0815 15.131 20.7546 15.6808L18.4798 19.5036C18.1655 20.0329 17.5953 20.3569 16.9804 20.3569H7.02495C6.41003 20.3569 5.84084 20.0329 5.52559 19.5055L3.24592 15.6817C2.91803 15.131 2.91803 14.4461 3.24592 13.8954L8.83954 4.49741C9.15381 3.96908 9.723 3.64508 10.3379 3.64508Z" stroke="black" stroke-width="1.5" stroke-linecap="round" stroke-linejoin="round"/>
<path opacity="0.4" d="M21 14.7031H3M9.42969 3.90625L17.7904 20.1024M14.5707 3.90234L6.2168 20.1023" stroke="black" stroke-width="1.5" stroke-linecap="round" stroke-linejoin="round"/>
</svg>
