<svg width="24" height="24" viewBox="0 0 24 24" fill="none" xmlns="http://www.w3.org/2000/svg">
<path fill-rule="evenodd" clip-rule="evenodd" d="M10.0263 7.57129C10.0263 7.15708 10.3621 6.82129 10.7763 6.82129L13.2239 6.82129C13.6381 6.82129 13.9739 7.15708 13.9739 7.57129C13.9739 7.9855 13.6381 8.32129 13.2239 8.32129H10.7763C10.3621 8.32129 10.0263 7.9855 10.0263 7.57129ZM8.17822 10.3973C8.17822 9.98308 8.51401 9.64729 8.92822 9.64729H15.072C15.4862 9.64729 15.822 9.98308 15.822 10.3973C15.822 10.8115 15.4862 11.1473 15.072 11.1473H8.92822C8.51401 11.1473 8.17822 10.8115 8.17822 10.3973ZM10.0263 13.2233C10.0263 12.8091 10.3621 12.4733 10.7763 12.4733H13.2238C13.6381 12.4733 13.9738 12.8091 13.9738 13.2233C13.9738 13.6375 13.6381 13.9733 13.2238 13.9733H10.7763C10.3621 13.9733 10.0263 13.6375 10.0263 13.2233Z" fill="black"/>
<path fill-rule="evenodd" clip-rule="evenodd" d="M2.25 10.4865C2.25 6.23355 5.67855 2.77832 9.91719 2.77832H14.0828C18.3214 2.77832 21.75 6.23355 21.75 10.4865C21.75 14.7394 18.3214 18.1946 14.0828 18.1946H13.7914V20.471C13.7914 20.7102 13.6772 20.9352 13.4841 21.0764C13.291 21.2176 13.042 21.2582 12.814 21.1857L13.0414 20.471C12.814 21.1857 12.8138 21.1856 12.8136 21.1855L12.8131 21.1854L12.8116 21.1849L12.8071 21.1834L12.7915 21.1784L12.7355 21.1598C12.6873 21.1437 12.6179 21.12 12.5295 21.0888C12.3527 21.0263 12.0998 20.9335 11.7891 20.8101C11.1683 20.5635 10.3127 20.1934 9.37021 19.6974C7.50815 18.7174 5.2239 17.2037 3.78518 15.1144C2.82123 13.8253 2.25 12.2217 2.25 10.4865ZM12.2914 19.3955V17.4446C12.2914 17.0304 12.6272 16.6946 13.0414 16.6946H14.0828C17.4847 16.6946 20.25 13.9193 20.25 10.4865C20.25 7.05362 17.4847 4.27832 14.0828 4.27832H9.91719C6.51531 4.27832 3.75 7.05362 3.75 10.4865C3.75 11.8922 4.21326 13.1866 4.99426 14.2265C5.00069 14.235 5.00694 14.2437 5.013 14.2526C6.24551 16.049 8.279 17.4281 10.0688 18.37C10.9285 18.8224 11.7127 19.1641 12.2914 19.3955Z" fill="black"/>
<path fill-rule="evenodd" clip-rule="evenodd" d="M2.25 10.4865C2.25 6.23355 5.67855 2.77832 9.91719 2.77832H14.0828C18.3214 2.77832 21.75 6.23355 21.75 10.4865C21.75 14.7394 18.3214 18.1946 14.0828 18.1946H13.7914V20.471C13.7914 20.7102 13.6772 20.9352 13.4841 21.0764C13.291 21.2176 13.042 21.2582 12.814 21.1857L13.0414 20.471C12.814 21.1857 12.8138 21.1856 12.8136 21.1855L12.8131 21.1854L12.8116 21.1849L12.8071 21.1834L12.7915 21.1784L12.7355 21.1598C12.6873 21.1437 12.6179 21.12 12.5295 21.0888C12.3527 21.0263 12.0998 20.9335 11.7891 20.8101C11.1683 20.5635 10.3127 20.1934 9.37021 19.6974C7.50815 18.7174 5.2239 17.2037 3.78518 15.1144C2.82123 13.8253 2.25 12.2217 2.25 10.4865ZM12.2914 19.3955V17.4446C12.2914 17.0304 12.6272 16.6946 13.0414 16.6946H14.0828C17.4847 16.6946 20.25 13.9193 20.25 10.4865C20.25 7.05362 17.4847 4.27832 14.0828 4.27832H9.91719C6.51531 4.27832 3.75 7.05362 3.75 10.4865C3.75 11.8922 4.21326 13.1866 4.99426 14.2265C5.00069 14.235 5.00694 14.2437 5.013 14.2526C6.24551 16.049 8.279 17.4281 10.0688 18.37C10.9285 18.8224 11.7127 19.1641 12.2914 19.3955Z" fill="black"/>
<path fill-rule="evenodd" clip-rule="evenodd" d="M2.25 10.4865C2.25 6.23355 5.67855 2.77832 9.91719 2.77832H14.0828C18.3214 2.77832 21.75 6.23355 21.75 10.4865C21.75 14.7394 18.3214 18.1946 14.0828 18.1946H13.7914V20.471C13.7914 20.7102 13.6772 20.9352 13.4841 21.0764C13.291 21.2176 13.042 21.2582 12.814 21.1857L13.0414 20.471C12.814 21.1857 12.8138 21.1856 12.8136 21.1855L12.8131 21.1854L12.8116 21.1849L12.8071 21.1834L12.7915 21.1784L12.7355 21.1598C12.6873 21.1437 12.6179 21.12 12.5295 21.0888C12.3527 21.0263 12.0998 20.9335 11.7891 20.8101C11.1683 20.5635 10.3127 20.1934 9.37021 19.6974C7.50815 18.7174 5.2239 17.2037 3.78518 15.1144C2.82123 13.8253 2.25 12.2217 2.25 10.4865ZM12.2914 19.3955V17.4446C12.2914 17.0304 12.6272 16.6946 13.0414 16.6946H14.0828C17.4847 16.6946 20.25 13.9193 20.25 10.4865C20.25 7.05362 17.4847 4.27832 14.0828 4.27832H9.91719C6.51531 4.27832 3.75 7.05362 3.75 10.4865C3.75 11.8922 4.21326 13.1866 4.99426 14.2265C5.00069 14.235 5.00694 14.2437 5.013 14.2526C6.24551 16.049 8.279 17.4281 10.0688 18.37C10.9285 18.8224 11.7127 19.1641 12.2914 19.3955Z" fill="black"/>
</svg>
