<svg width="24" height="24" viewBox="0 0 24 24" fill="none" xmlns="http://www.w3.org/2000/svg">
<path fill-rule="evenodd" clip-rule="evenodd" d="M12.0755 7.33166C12.3678 7.03813 12.8426 7.0371 13.1362 7.32936L15.6698 9.85204C15.8112 9.99278 15.8906 10.184 15.8906 10.3835C15.8906 10.583 15.8112 10.7742 15.6698 10.915L13.1362 13.4378C12.8427 13.7301 12.3678 13.7291 12.0755 13.4355C11.7833 13.142 11.7843 12.6671 12.0778 12.3749L13.3244 11.1336L8.85991 11.1339C8.4457 11.1339 8.10989 10.7982 8.10986 10.384C8.10984 9.96974 8.4456 9.63394 8.85982 9.63391L13.3245 9.63363L12.0778 8.39232C11.7843 8.10006 11.7832 7.62519 12.0755 7.33166Z" fill="black"/>
<path fill-rule="evenodd" clip-rule="evenodd" d="M2.25 10.486C2.25 6.23308 5.67855 2.77783 9.91719 2.77783H14.0828C18.3214 2.77783 21.75 6.23308 21.75 10.486C21.75 14.7389 18.3214 18.1942 14.0828 18.1942H13.7914V20.4705C13.7914 20.7098 13.6772 20.9347 13.4841 21.076C13.291 21.2172 13.042 21.2578 12.814 21.1852L13.0414 20.4705C12.814 21.1852 12.8138 21.1852 12.8136 21.1851L12.8131 21.1849L12.8116 21.1845L12.8071 21.183L12.7915 21.178L12.7355 21.1594C12.6873 21.1433 12.6179 21.1196 12.5295 21.0884C12.3527 21.0259 12.0998 20.9331 11.7891 20.8097C11.1683 20.5631 10.3127 20.1929 9.37021 19.6969C7.50815 18.717 5.2239 17.2033 3.78518 15.1139C2.82123 13.8248 2.25 12.2212 2.25 10.486ZM12.2914 19.3951V17.4442C12.2914 17.0299 12.6272 16.6942 13.0414 16.6942H14.0828C17.4847 16.6942 20.25 13.9189 20.25 10.486C20.25 7.05314 17.4847 4.27783 14.0828 4.27783H9.91719C6.51532 4.27783 3.75 7.05314 3.75 10.486C3.75 11.8918 4.21327 13.1861 4.99426 14.226C5.00069 14.2346 5.00694 14.2433 5.013 14.2521C6.24552 16.0486 8.279 17.4276 10.0688 18.3695C10.9285 18.8219 11.7127 19.1636 12.2914 19.3951Z" fill="black"/>
<path fill-rule="evenodd" clip-rule="evenodd" d="M2.25 10.486C2.25 6.23308 5.67855 2.77783 9.91719 2.77783H14.0828C18.3214 2.77783 21.75 6.23308 21.75 10.486C21.75 14.7389 18.3214 18.1942 14.0828 18.1942H13.7914V20.4705C13.7914 20.7098 13.6772 20.9347 13.4841 21.076C13.291 21.2172 13.042 21.2578 12.814 21.1852L13.0414 20.4705C12.814 21.1852 12.8138 21.1852 12.8136 21.1851L12.8131 21.1849L12.8116 21.1845L12.8071 21.183L12.7915 21.178L12.7355 21.1594C12.6873 21.1433 12.6179 21.1196 12.5295 21.0884C12.3527 21.0259 12.0998 20.9331 11.7891 20.8097C11.1683 20.5631 10.3127 20.1929 9.37021 19.6969C7.50815 18.717 5.2239 17.2033 3.78518 15.1139C2.82123 13.8248 2.25 12.2212 2.25 10.486ZM12.2914 19.3951V17.4442C12.2914 17.0299 12.6272 16.6942 13.0414 16.6942H14.0828C17.4847 16.6942 20.25 13.9189 20.25 10.486C20.25 7.05314 17.4847 4.27783 14.0828 4.27783H9.91719C6.51532 4.27783 3.75 7.05314 3.75 10.486C3.75 11.8918 4.21327 13.1861 4.99426 14.226C5.00069 14.2346 5.00694 14.2433 5.013 14.2521C6.24552 16.0486 8.279 17.4276 10.0688 18.3695C10.9285 18.8219 11.7127 19.1636 12.2914 19.3951Z" fill="black"/>
<path fill-rule="evenodd" clip-rule="evenodd" d="M2.25 10.486C2.25 6.23308 5.67855 2.77783 9.91719 2.77783H14.0828C18.3214 2.77783 21.75 6.23308 21.75 10.486C21.75 14.7389 18.3214 18.1942 14.0828 18.1942H13.7914V20.4705C13.7914 20.7098 13.6772 20.9347 13.4841 21.076C13.291 21.2172 13.042 21.2578 12.814 21.1852L13.0414 20.4705C12.814 21.1852 12.8138 21.1852 12.8136 21.1851L12.8131 21.1849L12.8116 21.1845L12.8071 21.183L12.7915 21.178L12.7355 21.1594C12.6873 21.1433 12.6179 21.1196 12.5295 21.0884C12.3527 21.0259 12.0998 20.9331 11.7891 20.8097C11.1683 20.5631 10.3127 20.1929 9.37021 19.6969C7.50815 18.717 5.2239 17.2033 3.78518 15.1139C2.82123 13.8248 2.25 12.2212 2.25 10.486ZM12.2914 19.3951V17.4442C12.2914 17.0299 12.6272 16.6942 13.0414 16.6942H14.0828C17.4847 16.6942 20.25 13.9189 20.25 10.486C20.25 7.05314 17.4847 4.27783 14.0828 4.27783H9.91719C6.51532 4.27783 3.75 7.05314 3.75 10.486C3.75 11.8918 4.21327 13.1861 4.99426 14.226C5.00069 14.2346 5.00694 14.2433 5.013 14.2521C6.24552 16.0486 8.279 17.4276 10.0688 18.3695C10.9285 18.8219 11.7127 19.1636 12.2914 19.3951Z" fill="black"/>
</svg>
