<svg width="24" height="24" viewBox="0 0 24 24" fill="none" xmlns="http://www.w3.org/2000/svg">
<path fill-rule="evenodd" clip-rule="evenodd" d="M11.9986 6.75586C12.2967 6.75586 12.5665 6.93243 12.6859 7.20561L15.5556 13.7746C15.7215 14.1542 15.5482 14.5963 15.1686 14.7622C14.789 14.928 14.3469 14.7547 14.1811 14.3751L13.3515 12.4762H10.6457L9.81613 14.3751C9.65031 14.7547 9.20818 14.928 8.82861 14.7622C8.44903 14.5963 8.27575 14.1542 8.44157 13.7746L9.45596 11.4527C9.46293 11.4349 9.47057 11.4174 9.47884 11.4003L11.3113 7.20561C11.4307 6.93243 11.7005 6.75586 11.9986 6.75586ZM11.301 10.9762H12.6962L11.9986 9.37932L11.301 10.9762Z" fill="black"/>
<path fill-rule="evenodd" clip-rule="evenodd" d="M2.25 6.32973C2.25 4.26186 3.93132 2.58984 6 2.58984H18C20.0687 2.58984 21.75 4.26186 21.75 6.32973V15.0834C21.75 17.1513 20.0687 18.8233 18 18.8233H15.838C15.6383 18.8233 15.4473 18.9024 15.3068 19.0424L13.5901 20.7533C12.7116 21.6288 11.2884 21.6288 10.4099 20.7533L8.69321 19.0424C8.55275 18.9024 8.36171 18.8233 8.16198 18.8233H6C3.93132 18.8233 2.25 17.1513 2.25 15.0834V6.32973ZM6 4.08984C4.75497 4.08984 3.75 5.09506 3.75 6.32973V15.0834C3.75 16.3181 4.75497 17.3233 6 17.3233H8.16198C8.7579 17.3233 9.32992 17.5592 9.75207 17.9799L11.4688 19.6908C11.7619 19.983 12.2381 19.983 12.5312 19.6908L14.2479 17.9799C14.6701 17.5592 15.2421 17.3233 15.838 17.3233H18C19.245 17.3233 20.25 16.3181 20.25 15.0834V6.32973C20.25 5.09506 19.245 4.08984 18 4.08984H6Z" fill="black"/>
</svg>
