<svg width="24" height="24" viewBox="0 0 24 24" fill="none" xmlns="http://www.w3.org/2000/svg">
<path d="M11.9998 21.4097C11.3998 21.4097 10.8298 21.1698 10.4098 20.7498L8.69977 19.0398C8.55977 18.8998 8.36977 18.8298 8.16977 18.8298H6.00977C3.93977 18.8298 2.25977 17.1498 2.25977 15.0898V6.32983C2.25977 4.26983 3.93977 2.58984 6.00977 2.58984H18.0098C20.0798 2.58984 21.7598 4.26983 21.7598 6.32983V15.0898C21.7598 17.1498 20.0798 18.8298 18.0098 18.8298H15.8498C15.6398 18.8298 15.4598 18.9098 15.3198 19.0398L13.5998 20.7498C13.1798 21.1798 12.6098 21.4097 12.0098 21.4097H11.9998ZM5.99976 4.08984C4.75976 4.08984 3.74976 5.08983 3.74976 6.32983V15.0898C3.74976 16.3298 4.75976 17.3298 5.99976 17.3298H8.15976C8.76976 17.3298 9.32976 17.5597 9.74976 17.9797L11.4698 19.6897C11.7598 19.9797 12.2498 19.9797 12.5298 19.6897L14.2498 17.9797C14.6698 17.5597 15.2298 17.3298 15.8398 17.3298H17.9998C19.2398 17.3298 20.2498 16.3298 20.2498 15.0898V6.32983C20.2498 5.08983 19.2398 4.08984 17.9998 4.08984H5.99976Z" fill="black"/>
<path d="M15.0401 14.1994C14.1901 14.1994 13.3501 13.7896 12.8601 13.0896C12.3201 12.3196 12.1901 11.2694 12.5001 10.1294C12.8501 8.84936 13.6401 7.71943 14.7101 6.94943C15.0501 6.70943 15.5201 6.7896 15.7601 7.1196C16.0001 7.4496 15.9301 7.9194 15.5901 8.1694C15.3101 8.3694 15.0501 8.6096 14.8301 8.8696C14.9001 8.8496 14.9701 8.83958 15.0401 8.84958C15.7601 8.87958 16.4601 9.20949 16.9601 9.75949C17.5801 10.4495 17.7901 11.4095 17.5201 12.3195C17.2601 13.1995 16.5901 13.8696 15.7201 14.1196C15.5001 14.1796 15.2701 14.2094 15.0401 14.2094V14.1994ZM14.2701 9.69943C14.1301 9.95943 14.0201 10.2395 13.9501 10.5195C13.7601 11.2095 13.8101 11.8294 14.0901 12.2194C14.3501 12.5894 14.8801 12.7694 15.3201 12.6594C15.6901 12.5594 15.9601 12.2794 16.0801 11.8894C16.2001 11.4794 16.1101 11.0595 15.8401 10.7495C15.6201 10.4995 15.3001 10.3496 14.9901 10.3396C14.6201 10.3296 14.3301 10.0494 14.2801 9.69943H14.2701Z" fill="black"/>
<path d="M9.08012 14.1994C8.23012 14.1994 7.39013 13.7896 6.90013 13.0896C6.36013 12.3196 6.23015 11.2694 6.54015 10.1294C6.89015 8.84936 7.67014 7.71943 8.75014 6.94943C9.09014 6.70943 9.56013 6.7896 9.80013 7.1196C10.0401 7.4496 9.97014 7.9194 9.63014 8.1694C9.35014 8.3694 9.09013 8.6096 8.87013 8.8696C8.94013 8.8496 9.01012 8.83958 9.08012 8.84958C9.80012 8.87958 10.5001 9.20949 11.0001 9.75949C11.6201 10.4495 11.8301 11.4095 11.5601 12.3195C11.3001 13.1995 10.6301 13.8696 9.76015 14.1096C9.54015 14.1696 9.31012 14.1994 9.08012 14.1994ZM8.31014 9.69943C8.17014 9.95943 8.06013 10.2395 7.99013 10.5195C7.80013 11.2095 7.85014 11.8294 8.13014 12.2194C8.39014 12.5894 8.92012 12.7694 9.36012 12.6594C9.73012 12.5594 10.0001 12.2794 10.1201 11.8894C10.2401 11.4794 10.1501 11.0595 9.88014 10.7495C9.66014 10.4995 9.34014 10.3496 9.03014 10.3396C8.66014 10.3296 8.37015 10.0494 8.32015 9.69943H8.31014Z" fill="black"/>
</svg>
