<svg width="24" height="24" viewBox="0 0 24 24" fill="none" xmlns="http://www.w3.org/2000/svg">
<path fill-rule="evenodd" clip-rule="evenodd" d="M11.6668 13.4551C12.0754 13.3872 12.4616 13.6634 12.5295 14.072L12.535 14.1049C12.6029 14.5135 12.3267 14.8998 11.918 14.9677C11.5094 15.0356 11.1232 14.7593 11.0553 14.3507L11.0498 14.3178C10.9819 13.9092 11.2581 13.523 11.6668 13.4551Z" fill="black"/>
<path fill-rule="evenodd" clip-rule="evenodd" d="M9.2041 9.0616C9.2041 7.51262 10.4506 6.26611 11.9996 6.26611C13.5396 6.26611 14.7951 7.51089 14.7951 9.0616C14.7951 10.1595 14.1637 10.9338 13.3574 11.3801C13.3064 11.4092 13.2583 11.4363 13.2128 11.4619C12.9876 11.5888 12.8266 11.6796 12.6943 11.7985C12.571 11.9094 12.5386 11.9879 12.54 12.0969C12.5454 12.5111 12.214 12.8512 11.7999 12.8566C11.3857 12.8621 11.0455 12.5307 11.0401 12.1165C11.0316 11.4627 11.3411 10.9982 11.6913 10.6833C11.9597 10.4418 12.2937 10.2559 12.516 10.1321C12.5535 10.1113 12.5879 10.0922 12.6182 10.0749L12.628 10.0692L12.6281 10.0693C13.0765 9.82212 13.2951 9.49249 13.2951 9.0616C13.2951 8.34278 12.7146 7.76611 11.9996 7.76611C11.279 7.76611 10.7041 8.34105 10.7041 9.0616C10.7041 9.47582 10.3683 9.8116 9.9541 9.8116C9.53989 9.8116 9.2041 9.47582 9.2041 9.0616Z" fill="black"/>
<path fill-rule="evenodd" clip-rule="evenodd" d="M2.25 10.486C2.25 6.23307 5.67855 2.77783 9.91719 2.77783H14.0828C18.3214 2.77783 21.75 6.23307 21.75 10.486C21.75 14.7389 18.3214 18.1941 14.0828 18.1941H13.7914V20.4705C13.7914 20.7098 13.6772 20.9347 13.4841 21.0759C13.291 21.2171 13.042 21.2577 12.814 21.1852L13.0414 20.4705C12.814 21.1852 12.8138 21.1851 12.8136 21.1851L12.8131 21.1849L12.8116 21.1844L12.8071 21.183L12.7915 21.1779L12.7355 21.1594C12.6873 21.1432 12.6179 21.1196 12.5295 21.0883C12.3527 21.0259 12.0998 20.933 11.7891 20.8096C11.1683 20.5631 10.3127 20.1929 9.37021 19.6969C7.50815 18.717 5.2239 17.2033 3.78518 15.1139C2.82123 13.8248 2.25 12.2212 2.25 10.486ZM12.2914 19.3951V17.4441C12.2914 17.0299 12.6272 16.6941 13.0414 16.6941H14.0828C17.4847 16.6941 20.25 13.9188 20.25 10.486C20.25 7.05313 17.4847 4.27783 14.0828 4.27783H9.91719C6.51531 4.27783 3.75 7.05313 3.75 10.486C3.75 11.8918 4.21326 13.1861 4.99426 14.226C5.00069 14.2346 5.00694 14.2433 5.013 14.2521C6.24551 16.0485 8.279 17.4276 10.0688 18.3695C10.9285 18.8219 11.7127 19.1636 12.2914 19.3951Z" fill="black"/>
<path fill-rule="evenodd" clip-rule="evenodd" d="M2.25 10.486C2.25 6.23307 5.67855 2.77783 9.91719 2.77783H14.0828C18.3214 2.77783 21.75 6.23307 21.75 10.486C21.75 14.7389 18.3214 18.1941 14.0828 18.1941H13.7914V20.4705C13.7914 20.7098 13.6772 20.9347 13.4841 21.0759C13.291 21.2171 13.042 21.2577 12.814 21.1852L13.0414 20.4705C12.814 21.1852 12.8138 21.1851 12.8136 21.1851L12.8131 21.1849L12.8116 21.1844L12.8071 21.183L12.7915 21.1779L12.7355 21.1594C12.6873 21.1432 12.6179 21.1196 12.5295 21.0883C12.3527 21.0259 12.0998 20.933 11.7891 20.8096C11.1683 20.5631 10.3127 20.1929 9.37021 19.6969C7.50815 18.717 5.2239 17.2033 3.78518 15.1139C2.82123 13.8248 2.25 12.2212 2.25 10.486ZM12.2914 19.3951V17.4441C12.2914 17.0299 12.6272 16.6941 13.0414 16.6941H14.0828C17.4847 16.6941 20.25 13.9188 20.25 10.486C20.25 7.05313 17.4847 4.27783 14.0828 4.27783H9.91719C6.51531 4.27783 3.75 7.05313 3.75 10.486C3.75 11.8918 4.21326 13.1861 4.99426 14.226C5.00069 14.2346 5.00694 14.2433 5.013 14.2521C6.24551 16.0485 8.279 17.4276 10.0688 18.3695C10.9285 18.8219 11.7127 19.1636 12.2914 19.3951Z" fill="black"/>
<path fill-rule="evenodd" clip-rule="evenodd" d="M2.25 10.486C2.25 6.23307 5.67855 2.77783 9.91719 2.77783H14.0828C18.3214 2.77783 21.75 6.23307 21.75 10.486C21.75 14.7389 18.3214 18.1941 14.0828 18.1941H13.7914V20.4705C13.7914 20.7098 13.6772 20.9347 13.4841 21.0759C13.291 21.2171 13.042 21.2577 12.814 21.1852L13.0414 20.4705C12.814 21.1852 12.8138 21.1851 12.8136 21.1851L12.8131 21.1849L12.8116 21.1844L12.8071 21.183L12.7915 21.1779L12.7355 21.1594C12.6873 21.1432 12.6179 21.1196 12.5295 21.0883C12.3527 21.0259 12.0998 20.933 11.7891 20.8096C11.1683 20.5631 10.3127 20.1929 9.37021 19.6969C7.50815 18.717 5.2239 17.2033 3.78518 15.1139C2.82123 13.8248 2.25 12.2212 2.25 10.486ZM12.2914 19.3951V17.4441C12.2914 17.0299 12.6272 16.6941 13.0414 16.6941H14.0828C17.4847 16.6941 20.25 13.9188 20.25 10.486C20.25 7.05313 17.4847 4.27783 14.0828 4.27783H9.91719C6.51531 4.27783 3.75 7.05313 3.75 10.486C3.75 11.8918 4.21326 13.1861 4.99426 14.226C5.00069 14.2346 5.00694 14.2433 5.013 14.2521C6.24551 16.0485 8.279 17.4276 10.0688 18.3695C10.9285 18.8219 11.7127 19.1636 12.2914 19.3951Z" fill="black"/>
</svg>
