<svg width="24" height="24" viewBox="0 0 24 24" fill="none" xmlns="http://www.w3.org/2000/svg">
<path fill-rule="evenodd" clip-rule="evenodd" d="M4.34963 3.73623C4.64902 4.02248 4.65967 4.49723 4.37343 4.79662C3.98651 5.2013 3.75 5.74785 3.75 6.35122V15.1345C3.75 16.3772 4.75736 17.3845 6 17.3845H8.16198C8.75872 17.3845 9.33101 17.6216 9.75297 18.0435L11.4697 19.7602C11.7626 20.0531 12.2374 20.0531 12.5303 19.7602L14.247 18.0435C14.669 17.6216 15.2413 17.3845 15.838 17.3845H17.6882C18.1024 17.3845 18.4382 17.7203 18.4382 18.1345C18.4382 18.5487 18.1024 18.8845 17.6882 18.8845H15.838C15.6391 18.8845 15.4483 18.9635 15.3077 19.1042L13.591 20.8209C12.7123 21.6996 11.2877 21.6996 10.409 20.8209L8.69231 19.1042C8.55166 18.9635 8.36089 18.8845 8.16198 18.8845H6C3.92893 18.8845 2.25 17.2056 2.25 15.1345V6.35122C2.25 5.34645 2.64615 4.43263 3.28924 3.76002C3.57549 3.46063 4.05024 3.44998 4.34963 3.73623Z" fill="black"/>
<path fill-rule="evenodd" clip-rule="evenodd" d="M2.47034 2.82032C2.76374 2.52793 3.23861 2.52875 3.531 2.82215L19.5926 18.9391C19.885 19.2325 19.8842 19.7074 19.5908 19.9997C19.2974 20.2921 18.8225 20.2913 18.5301 19.9979L2.46851 3.88098C2.17613 3.58758 2.17694 3.11271 2.47034 2.82032Z" fill="black"/>
<path fill-rule="evenodd" clip-rule="evenodd" d="M6.55029 3.35156C6.55029 2.93735 6.88608 2.60156 7.30029 2.60156H18C20.071 2.60156 21.75 4.28049 21.75 6.35156V15.1349C21.75 15.7237 21.6137 16.2829 21.3702 16.7807C21.1883 17.1528 20.7391 17.3069 20.367 17.1249C19.9949 16.9429 19.8408 16.4938 20.0228 16.1217C20.168 15.8246 20.25 15.4904 20.25 15.1349V6.35156C20.25 5.10892 19.2426 4.10156 18 4.10156H7.30029C6.88608 4.10156 6.55029 3.76578 6.55029 3.35156Z" fill="black"/>
</svg>
