<svg width="24" height="24" viewBox="0 0 24 24" fill="none" xmlns="http://www.w3.org/2000/svg">
<path d="M9.70996 21.7501C8.64996 21.7501 7.58992 21.5302 6.59992 21.0602C6.35992 20.9602 6.10991 20.8605 5.96991 20.8605C5.79991 20.8605 5.52995 20.9604 5.25995 21.0504C4.67995 21.2504 3.78996 21.5605 3.13996 20.9005C2.49996 20.2605 2.79994 19.3902 2.99994 18.8102C3.08994 18.5402 3.18994 18.2602 3.18994 18.0802C3.18994 17.9302 3.07992 17.6503 2.97992 17.4103C1.68992 14.6203 2.28992 11.2504 4.47992 9.05041C6.19992 7.31041 8.67992 6.54035 11.0999 6.99035C11.5099 7.07035 11.78 7.46024 11.7 7.87024C11.62 8.28024 11.2299 8.55034 10.8199 8.47034C8.88995 8.11033 6.91992 8.72047 5.53992 10.1105C3.78992 11.8605 3.30992 14.5604 4.34992 16.8204C4.51992 17.2504 4.67993 17.6502 4.67993 18.0802C4.67993 18.5102 4.53992 18.9302 4.40991 19.2902C4.35992 19.4302 4.28995 19.6402 4.25995 19.7902C4.40995 19.7602 4.61995 19.6805 4.75995 19.6305C5.11995 19.5105 5.51995 19.3705 5.94995 19.3605C6.39995 19.3605 6.77994 19.5205 7.18994 19.6905C9.46994 20.7505 12.1499 20.2704 13.9099 18.5104C15.3199 17.0904 15.92 15.0805 15.52 13.1105C15.44 12.7005 15.6999 12.3103 16.0999 12.2203C16.5099 12.1403 16.8999 12.4004 16.9799 12.8004C17.4799 15.2604 16.73 17.7902 14.96 19.5602C13.54 20.9802 11.6199 21.7404 9.68994 21.7404L9.70996 21.7501Z" fill="black"/>
<path d="M16.0191 13.6602C14.5391 13.6602 13.069 13.0802 11.989 11.9902C9.77904 9.76023 9.77904 6.14041 11.989 3.92041C13.069 2.84041 14.4891 2.25 16.0091 2.25C17.5291 2.25 18.9591 2.84041 20.0291 3.92041C21.7091 5.60041 22.169 8.1901 21.169 10.3501C21.129 10.4501 21.049 10.6602 21.049 10.7402C21.049 10.8402 21.119 11.0502 21.179 11.2202C21.329 11.6702 21.5891 12.4205 21.0191 12.9805C20.4491 13.5505 19.6991 13.2904 19.2491 13.1304C19.0891 13.0704 18.8791 13 18.7791 13C18.7291 13 18.5391 13.0801 18.3891 13.1401C17.6291 13.4901 16.8291 13.6602 16.0191 13.6602ZM16.0091 3.76025C14.8891 3.76025 13.839 4.20023 13.049 4.99023C11.419 6.63023 11.419 9.30043 13.049 10.9404C14.289 12.1804 16.1891 12.5103 17.7691 11.7803C17.7791 11.7803 17.789 11.78 17.799 11.77C18.119 11.64 18.429 11.5103 18.789 11.5103C19.149 11.5103 19.459 11.6302 19.739 11.7202C19.739 11.7202 19.7391 11.7202 19.7591 11.7202C19.7591 11.7202 19.7591 11.7102 19.7591 11.7002C19.6591 11.4102 19.549 11.0902 19.549 10.7402C19.549 10.3902 19.679 10.0503 19.799 9.76025C20.549 8.13025 20.219 6.22047 18.979 4.98047C18.189 4.19047 17.1391 3.75 16.0191 3.75L16.0091 3.76025Z" fill="black"/>
<path d="M10.4498 18.0103H8.3598C7.3698 18.0103 6.56982 17.2102 6.56982 16.2202V15.0503C6.56982 14.0603 7.3698 13.25 8.3598 13.25H10.4498C11.4398 13.25 12.2398 14.0603 12.2398 15.0503V16.2202C12.2398 17.2102 11.4398 18.0103 10.4498 18.0103ZM8.3598 14.75C8.1998 14.75 8.06982 14.8803 8.06982 15.0503V16.2202C8.06982 16.3802 8.1998 16.5103 8.3598 16.5103H10.4498C10.6098 16.5103 10.7398 16.3802 10.7398 16.2202V15.0503C10.7398 14.8803 10.6098 14.75 10.4498 14.75H8.3598Z" fill="black"/>
<path d="M10.6497 14.7701C10.2397 14.7701 9.89972 14.4301 9.89972 14.0201V13.2501C9.89972 13.1201 9.83969 13.0005 9.74969 12.9005C9.65969 12.8105 9.53972 12.7704 9.39972 12.7604C9.12972 12.7604 8.90967 12.9901 8.90967 13.2501V14.0201C8.90967 14.4301 8.56967 14.7701 8.15967 14.7701C7.74967 14.7701 7.40967 14.4301 7.40967 14.0201V13.2403C7.42967 12.1603 8.3097 11.2804 9.3797 11.2604C9.9497 11.2204 10.4197 11.4502 10.7997 11.8302C11.1897 12.2102 11.3997 12.7101 11.4097 13.2501V14.0304C11.4097 14.4404 11.0697 14.7804 10.6597 14.7804L10.6497 14.7701Z" fill="black"/>
<path d="M15.0597 9.68066C14.0097 9.68066 13.1597 8.83076 13.1597 7.78076C13.1597 6.73076 14.0097 5.88086 15.0597 5.88086C16.1097 5.88086 16.9597 6.73076 16.9597 7.78076C16.9597 8.83076 16.1097 9.68066 15.0597 9.68066ZM15.0597 7.38086C14.8397 7.38086 14.6597 7.56076 14.6597 7.78076C14.6597 8.00076 14.8397 8.18066 15.0597 8.18066C15.2797 8.18066 15.4597 8.00076 15.4597 7.78076C15.4597 7.56076 15.2797 7.38086 15.0597 7.38086Z" fill="black"/>
<path d="M18.1198 8.57031H16.2798C15.8698 8.57031 15.5298 8.23031 15.5298 7.82031C15.5298 7.41031 15.8698 7.07031 16.2798 7.07031H18.1198C18.5298 7.07031 18.8698 7.41031 18.8698 7.82031C18.8698 8.23031 18.5298 8.57031 18.1198 8.57031Z" fill="black"/>
</svg>
