<svg width="24" height="24" viewBox="0 0 24 24" fill="none" xmlns="http://www.w3.org/2000/svg">
<path d="M9.7099 21.7501C8.6499 21.7501 7.58992 21.5302 6.59992 21.0602C6.35992 20.9602 6.10991 20.8605 5.96991 20.8605C5.79991 20.8605 5.52992 20.9604 5.25992 21.0504C4.67992 21.2504 3.78993 21.5605 3.13993 20.9005C2.49993 20.2605 2.79991 19.3902 2.99991 18.8102C3.08991 18.5402 3.18991 18.2602 3.18991 18.0802C3.18991 17.9302 3.07992 17.6503 2.97992 17.4103C1.68992 14.6203 2.28992 11.2504 4.47992 9.05041C6.19992 7.31041 8.67992 6.54035 11.0999 6.99035C11.5099 7.07035 11.7799 7.46024 11.6999 7.87024C11.6199 8.28024 11.2299 8.55034 10.8199 8.47034C8.88992 8.11033 6.91992 8.72047 5.53992 10.1105C3.78992 11.8605 3.30992 14.5604 4.34992 16.8204C4.51992 17.2504 4.6799 17.6502 4.6799 18.0802C4.6799 18.5102 4.53992 18.9302 4.40991 19.2902C4.35992 19.4302 4.28992 19.6402 4.25992 19.7902C4.40992 19.7602 4.61992 19.6805 4.75992 19.6305C5.11992 19.5105 5.51992 19.3705 5.94992 19.3605C6.39992 19.3605 6.77991 19.5205 7.18991 19.6905C9.46991 20.7505 12.1499 20.2704 13.9099 18.5104C15.3199 17.0904 15.9199 15.0805 15.5199 13.1105C15.4399 12.7005 15.6999 12.3103 16.0999 12.2203C16.5099 12.1403 16.8999 12.4004 16.9799 12.8004C17.4799 15.2604 16.7299 17.7902 14.9599 19.5602C13.5399 20.9802 11.6199 21.7404 9.68991 21.7404L9.7099 21.7501Z" fill="black"/>
<path d="M11.4591 17.7202C11.2691 17.7202 11.0791 17.65 10.9291 17.5L10.2491 16.8203C9.85915 17.0303 9.40915 17.1504 8.93915 17.1504C7.39915 17.1504 6.13916 15.8903 6.13916 14.3403C6.13916 12.7903 7.39915 11.5303 8.93915 11.5303C10.4791 11.5303 11.7391 12.7903 11.7391 14.3403C11.7391 14.8703 11.5891 15.37 11.3391 15.79L11.9891 16.4404C12.2791 16.7304 12.2791 17.21 11.9891 17.5C11.8391 17.65 11.6491 17.7202 11.4591 17.7202ZM8.93915 13.0303C8.21915 13.0303 7.63916 13.6203 7.63916 14.3403C7.63916 15.0603 8.21915 15.6504 8.93915 15.6504C9.65915 15.6504 10.2391 15.0603 10.2391 14.3403C10.2391 13.6203 9.65915 13.0303 8.93915 13.0303Z" fill="black"/>
<path d="M16.019 13.6602C14.539 13.6602 13.069 13.0802 11.989 11.9902C9.77904 9.76023 9.77904 6.14041 11.989 3.92041C13.069 2.84041 14.4891 2.25 16.0091 2.25C17.5291 2.25 18.9591 2.84041 20.0291 3.92041C21.7091 5.60041 22.1691 8.1901 21.1691 10.3501C21.1291 10.4501 21.049 10.6602 21.049 10.7402C21.049 10.8402 21.119 11.0502 21.179 11.2202C21.329 11.6702 21.589 12.4205 21.019 12.9805C20.449 13.5505 19.6991 13.2904 19.2491 13.1304C19.0891 13.0704 18.8791 13 18.7791 13C18.7291 13 18.5391 13.0801 18.3891 13.1401C17.6291 13.4901 16.829 13.6602 16.019 13.6602ZM16.0091 3.76025C14.8891 3.76025 13.839 4.20023 13.049 4.99023C11.419 6.63023 11.419 9.30043 13.049 10.9404C14.289 12.1804 16.189 12.5203 17.769 11.7803C17.779 11.7803 17.789 11.78 17.799 11.77C18.119 11.64 18.4291 11.5103 18.7891 11.5103C19.1491 11.5103 19.459 11.6302 19.739 11.7202C19.739 11.7202 19.7391 11.7202 19.7591 11.7202C19.7591 11.7202 19.7591 11.7102 19.7591 11.7002C19.6591 11.4102 19.549 11.0902 19.549 10.7402C19.549 10.3902 19.679 10.0503 19.799 9.76025C20.549 8.13025 20.2191 6.22047 18.9791 4.98047C18.1891 4.19047 17.139 3.75 16.019 3.75L16.0091 3.76025Z" fill="black"/>
<path d="M17.2592 9.96066C17.0692 9.96066 16.8792 9.89045 16.7292 9.74045L16.0192 9.02023L15.3092 9.74045C15.0192 10.0304 14.5392 10.0304 14.2492 9.74045C13.9592 9.45045 13.9592 8.97039 14.2492 8.68039L14.9692 7.96066L14.2492 7.24045C13.9592 6.95045 13.9592 6.47039 14.2492 6.18039C14.5392 5.89039 15.0192 5.89039 15.3092 6.18039L16.0192 6.90061L16.7292 6.18039C17.0192 5.89039 17.4992 5.89039 17.7892 6.18039C18.0792 6.47039 18.0792 6.95045 17.7892 7.24045L17.0692 7.96066L17.7892 8.68039C18.0792 8.97039 18.0792 9.45045 17.7892 9.74045C17.6392 9.89045 17.4492 9.96066 17.2592 9.96066Z" fill="black"/>
</svg>
