<svg width="24" height="24" viewBox="0 0 24 24" fill="none" xmlns="http://www.w3.org/2000/svg">
<path d="M9.70992 21.7502C8.64992 21.7502 7.58992 21.5302 6.59992 21.0602C6.36992 20.9702 6.10992 20.8605 5.96992 20.8605C5.79992 20.8605 5.51992 20.9605 5.25992 21.0505C4.67992 21.2505 3.79992 21.5603 3.14992 20.9103C2.50992 20.2603 2.78992 19.4105 2.99992 18.8005C3.08992 18.5305 3.18992 18.2505 3.18992 18.0705C3.18992 17.9205 3.07992 17.6406 2.97992 17.4006C1.68992 14.6106 2.28992 11.2402 4.47992 9.0402C6.20992 7.3002 8.68992 6.53063 11.0999 6.98063C11.5099 7.06063 11.7799 7.45052 11.6999 7.86052C11.6199 8.27052 11.2299 8.54061 10.8199 8.46061C8.89992 8.10061 6.91992 8.71026 5.53992 10.1003C3.78992 11.8503 3.30992 14.5502 4.34992 16.8102C4.51992 17.2402 4.67992 17.6405 4.67992 18.0705C4.67992 18.5005 4.53992 18.9204 4.40992 19.2804C4.35992 19.4204 4.28992 19.6304 4.25992 19.7804C4.40992 19.7504 4.61992 19.6703 4.75992 19.6203C5.11992 19.5003 5.52992 19.3503 5.94992 19.3503C6.39992 19.3503 6.77992 19.5103 7.18992 19.6803C9.45992 20.7403 12.1499 20.2602 13.9099 18.5002C15.3199 17.0902 15.9299 15.0703 15.5299 13.1003C15.4499 12.6903 15.7099 12.3004 16.1199 12.2204C16.5199 12.1404 16.9199 12.4002 16.9999 12.8102C17.4999 15.2702 16.7399 17.8005 14.9799 19.5705C13.5599 20.9905 11.6499 21.7502 9.70992 21.7502Z" fill="black"/>
<path d="M9.01909 18.1197C8.64909 18.1197 8.32909 17.85 8.27909 17.48C8.21909 17.07 8.49909 16.6699 8.90909 16.6099C9.31909 16.5499 9.69909 16.82 9.75909 17.23V17.2598C9.82909 17.6698 9.53909 18.0499 9.12909 18.1099C9.08909 18.1099 9.04909 18.1099 9.01909 18.1099V18.1197Z" fill="black"/>
<path d="M9.16908 16.0703C9.01908 16.0703 8.87908 16.0304 8.74908 15.9404C8.40908 15.7104 8.31909 15.2404 8.54909 14.9004C8.81909 14.5004 9.21908 14.2804 9.51908 14.1104L9.60909 14.0601C10.0291 13.8301 10.0691 13.5604 10.0691 13.3804C10.0691 12.8904 9.67909 12.5 9.18909 12.5C8.69909 12.5 8.30908 12.8904 8.30908 13.3804C8.30908 13.7904 7.96908 14.1304 7.55908 14.1304C7.14908 14.1304 6.80908 13.7904 6.80908 13.3804C6.80908 12.0704 7.87909 11 9.18909 11C10.4991 11 11.5691 12.0704 11.5691 13.3804C11.5691 14.2204 11.1391 14.9204 10.3491 15.3604L10.2491 15.4102C10.0791 15.5102 9.85909 15.6305 9.78909 15.7305C9.63909 15.9405 9.40908 16.0601 9.16908 16.0601V16.0703Z" fill="black"/>
<path d="M16.019 13.6602C14.539 13.6602 13.069 13.0802 11.989 11.9902C9.77904 9.76023 9.77904 6.14041 11.989 3.92041C13.059 2.84041 14.489 2.25 16.009 2.25C17.529 2.25 18.959 2.84041 20.029 3.92041C21.709 5.60041 22.169 8.1901 21.169 10.3501C21.129 10.4501 21.049 10.6602 21.049 10.7402C21.049 10.8402 21.119 11.0502 21.179 11.2202C21.329 11.6702 21.579 12.4205 21.019 12.9805C20.449 13.5505 19.699 13.2904 19.249 13.1304C19.089 13.0704 18.879 13 18.779 13C18.729 13 18.539 13.0801 18.389 13.1401C17.629 13.4901 16.819 13.6602 16.019 13.6602ZM16.009 3.76025C14.889 3.76025 13.839 4.20023 13.049 4.99023C11.419 6.63023 11.419 9.30043 13.049 10.9404C14.289 12.1804 16.189 12.5203 17.779 11.7803C17.789 11.7803 17.799 11.78 17.809 11.77C18.119 11.64 18.439 11.5103 18.799 11.5103C19.159 11.5103 19.469 11.6302 19.749 11.7202C19.749 11.7202 19.759 11.7202 19.769 11.7202C19.769 11.7202 19.769 11.7102 19.769 11.7002C19.669 11.4102 19.559 11.0902 19.559 10.7402C19.559 10.3902 19.689 10.0503 19.809 9.76025C20.559 8.13025 20.229 6.22047 18.989 4.98047C18.199 4.19047 17.149 3.75 16.029 3.75L16.009 3.76025Z" fill="black"/>
<path d="M15.5993 9.93039C15.3993 9.93039 15.2093 9.85066 15.0693 9.71066L14.0393 8.68039C13.7493 8.39039 13.7493 7.91033 14.0393 7.62033C14.3293 7.33033 14.8093 7.33033 15.0993 7.62033L15.5993 8.12033L17.1193 6.59055C17.4093 6.30055 17.8893 6.30055 18.1793 6.59055C18.4693 6.88055 18.4693 7.36061 18.1793 7.65061L16.1293 9.71066C15.9893 9.85066 15.7993 9.93039 15.5993 9.93039Z" fill="black"/>
</svg>
