<svg width="24" height="24" viewBox="0 0 24 24" fill="none" xmlns="http://www.w3.org/2000/svg">
<path fill-rule="evenodd" clip-rule="evenodd" d="M7.25 12C7.25 9.37698 9.37643 7.25 12 7.25C14.6235 7.25 16.75 9.37697 16.75 12C16.75 14.6235 14.6235 16.75 12 16.75C9.37648 16.75 7.25 14.6235 7.25 12ZM12 8.75C10.205 8.75 8.75 10.2053 8.75 12C8.75 13.7951 10.2049 15.25 12 15.25C13.7951 15.25 15.25 13.7951 15.25 12C15.25 10.2053 13.795 8.75 12 8.75Z" fill="black"/>
<path fill-rule="evenodd" clip-rule="evenodd" d="M11.8621 7.25195C12.2763 7.25195 12.6121 7.58774 12.6121 8.00195V11.3873H15.9974C16.4116 11.3873 16.7474 11.7231 16.7474 12.1373C16.7474 12.5515 16.4116 12.8873 15.9974 12.8873H12.3065C11.6468 12.8873 11.1121 12.3525 11.1121 11.6929V8.00195C11.1121 7.58774 11.4478 7.25195 11.8621 7.25195Z" fill="black"/>
<path fill-rule="evenodd" clip-rule="evenodd" d="M12 3.75C7.44365 3.75 3.75 7.44365 3.75 12C3.75 13.9706 4.43995 15.778 5.59213 17.1968C5.94678 17.6335 5.99069 18.2789 5.62759 18.7606L4.56516 20.1699C4.55882 20.1783 4.5564 20.1839 4.55543 20.1865C4.55439 20.1893 4.55389 20.1917 4.55371 20.1943C4.5533 20.2001 4.55437 20.2104 4.56033 20.2223C4.56629 20.2343 4.57382 20.2413 4.5787 20.2444C4.58089 20.2459 4.58314 20.2469 4.58598 20.2478C4.58864 20.2486 4.59456 20.25 4.60508 20.25H12C16.5563 20.25 20.25 16.5563 20.25 12C20.25 7.44365 16.5563 3.75 12 3.75ZM2.25 12C2.25 6.61522 6.61522 2.25 12 2.25C17.3848 2.25 21.75 6.61522 21.75 12C21.75 17.3848 17.3848 21.75 12 21.75H4.60508C3.32606 21.75 2.59744 20.2883 3.36737 19.267L4.31845 18.0053C3.02281 16.3502 2.25 14.2644 2.25 12Z" fill="black"/>
</svg>
