<svg width="24" height="24" viewBox="0 0 24 24" fill="none" xmlns="http://www.w3.org/2000/svg">
<path fill-rule="evenodd" clip-rule="evenodd" d="M6.71391 9.01221C6.71391 8.59799 7.04969 8.26221 7.46391 8.26221H12.6383C13.0525 8.26221 13.3883 8.59799 13.3883 9.01221C13.3883 9.42642 13.0525 9.76221 12.6383 9.76221H7.46391C7.04969 9.76221 6.71391 9.42642 6.71391 9.01221ZM6.66992 12.733C6.66992 12.3188 7.00571 11.983 7.41992 11.983H10.2197C10.6339 11.983 10.9697 12.3188 10.9697 12.733C10.9697 13.1472 10.6339 13.483 10.2197 13.483H7.41992C7.00571 13.483 6.66992 13.1472 6.66992 12.733Z" fill="black"/>
<path fill-rule="evenodd" clip-rule="evenodd" d="M12.697 14.4721C12.697 14.4721 12.697 14.472 12.697 14.4721L14.5218 20.693C14.8669 21.8683 16.4296 22.0896 17.0903 21.0701L18.7655 18.7849L21.0688 17.0919C22.0877 16.431 21.8664 14.8687 20.6913 14.5237L14.4701 12.6988C13.3854 12.3806 12.3789 13.3881 12.697 14.4721ZM14.173 14.1749L15.9198 20.1298L17.6238 17.8053C17.6688 17.7439 17.723 17.6896 17.7844 17.6445L20.1281 15.9217L14.173 14.1749Z" fill="black"/>
<path fill-rule="evenodd" clip-rule="evenodd" d="M15.8524 15.9198C15.56 16.2132 15.5608 16.6881 15.8542 16.9804L17.6771 18.7971C17.9705 19.0895 18.4454 19.0887 18.7378 18.7953C19.0302 18.5019 19.0294 18.0271 18.736 17.7347L16.9131 15.918C16.6197 15.6256 16.1448 15.6264 15.8524 15.9198Z" fill="black"/>
<path fill-rule="evenodd" clip-rule="evenodd" d="M2.30566 11.1193C2.30566 6.23765 6.26304 2.28027 11.1447 2.28027C16.0264 2.28027 19.9839 6.23771 19.9839 11.1195C19.9839 11.5337 19.6481 11.8695 19.2339 11.8695C18.8197 11.8695 18.4839 11.5337 18.4839 11.1195C18.4839 7.06614 15.198 3.78027 11.1447 3.78027C7.09147 3.78027 3.80566 7.06608 3.80566 11.1193C3.80566 12.2787 4.07396 13.3733 4.55116 14.3463L4.55381 14.3517L4.55379 14.3517C4.87852 15.0275 4.86803 15.7081 4.77263 16.294C4.7125 16.6633 4.59949 17.0752 4.50386 17.4238C4.46168 17.5776 4.42288 17.719 4.39349 17.839C4.39378 17.8395 4.39408 17.84 4.39441 17.8406C4.39749 17.8455 4.40184 17.8512 4.40741 17.8567C4.41298 17.8623 4.41864 17.8667 4.42361 17.8697C4.42407 17.87 4.42453 17.8703 4.42496 17.8706C4.53822 17.8417 4.66709 17.8057 4.80579 17.767C5.16197 17.6676 5.58299 17.5501 5.97109 17.4877C6.55869 17.3933 7.23807 17.3863 7.91244 17.7104L7.91788 17.713L7.91787 17.713C8.89088 18.1902 9.98546 18.4585 11.1448 18.4585C11.5591 18.4585 11.8948 18.7943 11.8948 19.2085C11.8948 19.6227 11.5591 19.9585 11.1448 19.9585C9.75272 19.9585 8.43377 19.6361 7.26048 19.0613C6.9679 18.9214 6.63432 18.9004 6.2091 18.9687C5.90494 19.0176 5.62834 19.0953 5.31643 19.1829C5.1493 19.2298 4.97204 19.2796 4.77496 19.3293C4.2088 19.4721 3.68136 19.252 3.34675 18.9174C3.01287 18.5835 2.79299 18.0576 2.93395 17.4929C2.98673 17.2757 3.03956 17.0854 3.08905 16.9071C3.17098 16.6121 3.24378 16.3499 3.29213 16.0529C3.36165 15.626 3.34161 15.294 3.2029 15.0037C2.62804 13.8304 2.30566 12.5114 2.30566 11.1193Z" fill="black"/>
</svg>
