<svg width="24" height="24" viewBox="0 0 24 24" fill="none" xmlns="http://www.w3.org/2000/svg">
<path fill-rule="evenodd" clip-rule="evenodd" d="M16.6094 18.7798C17.0236 18.7798 17.3594 19.1156 17.3594 19.5298V21.0003C17.3594 21.4146 17.0236 21.7503 16.6094 21.7503C16.1952 21.7503 15.8594 21.4146 15.8594 21.0003V19.5298C15.8594 19.1156 16.1952 18.7798 16.6094 18.7798Z" fill="black"/>
<path fill-rule="evenodd" clip-rule="evenodd" d="M16.6095 12.7505C16.0898 12.7505 15.6624 13.1749 15.6624 13.7056V15.664C15.6624 16.1944 16.0895 16.6186 16.6095 16.6186C17.1299 16.6186 17.5567 16.1945 17.5567 15.664V13.7056C17.5567 13.1748 17.1296 12.7505 16.6095 12.7505ZM14.1624 13.7056C14.1624 12.353 15.2548 11.2505 16.6095 11.2505C17.9648 11.2505 19.0567 12.3532 19.0567 13.7056V15.664C19.0567 17.0166 17.9646 18.1186 16.6095 18.1186C15.2551 18.1186 14.1624 17.0167 14.1624 15.664V13.7056Z" fill="black"/>
<path fill-rule="evenodd" clip-rule="evenodd" d="M12.8877 15.04C13.3019 15.04 13.6377 15.3758 13.6377 15.79C13.6377 17.4443 14.9714 18.7794 16.6092 18.7794C18.2477 18.7794 19.5813 17.4442 19.5813 15.79C19.5813 15.3758 19.9171 15.04 20.3313 15.04C20.7455 15.04 21.0813 15.3758 21.0813 15.79C21.0813 18.266 19.0828 20.2794 16.6092 20.2794C14.1361 20.2794 12.1377 18.2659 12.1377 15.79C12.1377 15.3758 12.4735 15.04 12.8877 15.04Z" fill="black"/>
<path fill-rule="evenodd" clip-rule="evenodd" d="M7.17181 9.31445C7.17181 8.90024 7.5076 8.56445 7.92181 8.56445H13.3139C13.7281 8.56445 14.0639 8.90024 14.0639 9.31445C14.0639 9.72867 13.7281 10.0645 13.3139 10.0645H7.92181C7.5076 10.0645 7.17181 9.72867 7.17181 9.31445ZM7.12598 13.1918C7.12598 12.7776 7.46176 12.4418 7.87598 12.4418H10.7936C11.2078 12.4418 11.5436 12.7776 11.5436 13.1918C11.5436 13.6061 11.2078 13.9418 10.7936 13.9418H7.87598C7.46176 13.9418 7.12598 13.6061 7.12598 13.1918Z" fill="black"/>
<path fill-rule="evenodd" clip-rule="evenodd" d="M12 3.75C7.44365 3.75 3.75 7.44365 3.75 12C3.75 13.9706 4.43995 15.778 5.59213 17.1968C5.94678 17.6335 5.99069 18.2789 5.62759 18.7606L4.56516 20.1699C4.55882 20.1783 4.5564 20.1839 4.55543 20.1865C4.55439 20.1893 4.55389 20.1917 4.55371 20.1943C4.5533 20.2001 4.55437 20.2104 4.56033 20.2223C4.56629 20.2343 4.57382 20.2413 4.5787 20.2444C4.58089 20.2459 4.58314 20.2469 4.58598 20.2478C4.58864 20.2486 4.59456 20.25 4.60508 20.25H12C12.4142 20.25 12.75 20.5858 12.75 21C12.75 21.4142 12.4142 21.75 12 21.75H4.60508C3.32606 21.75 2.59744 20.2883 3.36737 19.267L4.31845 18.0053C3.02281 16.3502 2.25 14.2644 2.25 12C2.25 6.61522 6.61522 2.25 12 2.25C17.3848 2.25 21.75 6.61522 21.75 12C21.75 12.4142 21.4142 12.75 21 12.75C20.5858 12.75 20.25 12.4142 20.25 12C20.25 7.44365 16.5563 3.75 12 3.75Z" fill="black"/>
</svg>
