<svg width="24" height="24" viewBox="0 0 24 24" fill="none" xmlns="http://www.w3.org/2000/svg">
<path fill-rule="evenodd" clip-rule="evenodd" d="M2.25 12C2.25 6.61522 6.61522 2.25 12 2.25C17.3849 2.25 21.7501 6.6153 21.7501 12.0001C21.7501 17.3849 17.3849 21.7501 12.0001 21.7501C10.4643 21.7501 9.00934 21.3945 7.71514 20.7603C7.36811 20.5943 6.9775 20.5725 6.49516 20.65C6.15223 20.7051 5.83711 20.7935 5.48677 20.8919C5.30155 20.9439 5.10648 20.9986 4.89226 21.0526C4.29616 21.203 3.73877 20.9717 3.38359 20.6166C3.02914 20.2621 2.79806 19.7063 2.94658 19.1116C3.00388 18.8758 3.06203 18.6661 3.11694 18.4682C3.20907 18.1361 3.29204 17.837 3.34646 17.5028C3.42529 17.0187 3.40467 16.6297 3.23984 16.285C2.60567 14.9908 2.25 13.5359 2.25 12ZM12 3.75C7.44365 3.75 3.75 7.44365 3.75 12C3.75 13.3031 4.05159 14.5337 4.58808 15.6276L4.59073 15.633L4.59071 15.633C4.94159 16.3632 4.93165 17.1009 4.82696 17.7439C4.76077 18.1503 4.63761 18.5991 4.53175 18.9849C4.48289 19.1629 4.43773 19.3275 4.40354 19.4683L4.40196 19.4748L4.40193 19.4748L4.40188 19.475C4.40144 19.4767 4.40017 19.4816 4.40429 19.4945C4.40936 19.5103 4.42174 19.5334 4.44425 19.5559C4.46677 19.5784 4.48987 19.5908 4.5057 19.5959C4.51853 19.6 4.52344 19.5987 4.52516 19.5983L4.52532 19.5982C4.65979 19.5643 4.81238 19.5217 4.97611 19.476C5.37081 19.3658 5.83031 19.2376 6.25715 19.169C6.90185 19.0654 7.6383 19.0592 8.36715 19.4094L8.37259 19.4121L8.37258 19.4121C9.46649 19.9486 10.697 20.2501 12.0001 20.2501C16.5565 20.2501 20.2501 16.5565 20.2501 12.0001C20.2501 7.44372 16.5564 3.75 12 3.75Z" fill="black"/>
<path fill-rule="evenodd" clip-rule="evenodd" d="M11.0683 7.28028H12.9242C13.5024 7.28028 14.0121 7.66759 14.1628 8.22911C14.1653 8.23842 14.1676 8.24779 14.1697 8.25719L14.5239 9.8257C14.6114 10.2136 14.368 10.599 13.9801 10.6866C13.5922 10.7742 13.2068 10.5307 13.1192 10.1428L12.798 8.72028H11.1918L10.8796 10.139C10.7942 10.5273 10.4101 10.7729 10.0217 10.6874C9.63338 10.602 9.38782 10.2179 9.47327 9.82955L9.81837 8.26104C9.82076 8.25019 9.8234 8.23939 9.82629 8.22866C9.97773 7.6659 10.4889 7.27895 11.0683 7.28028Z" fill="black"/>
<path fill-rule="evenodd" clip-rule="evenodd" d="M7.70679 9.98367C7.70679 9.58603 8.02914 9.26367 8.42679 9.26367H15.5729C15.9705 9.26367 16.2929 9.58603 16.2929 9.98367C16.2929 10.3813 15.9705 10.7037 15.5729 10.7037H8.42679C8.02914 10.7037 7.70679 10.3813 7.70679 9.98367Z" fill="black"/>
<path fill-rule="evenodd" clip-rule="evenodd" d="M8.96853 9.26488C9.36552 9.24207 9.70583 9.54541 9.72863 9.9424L9.9929 14.5431C10.0256 14.9953 10.3682 15.2799 10.7044 15.2799H13.2953C13.6319 15.2799 13.9741 14.9953 14.0068 14.5435L14.2711 9.9424C14.2939 9.54541 14.6343 9.24207 15.0312 9.26488C15.4282 9.28768 15.7316 9.62799 15.7088 10.025L15.4437 14.6389C15.3656 15.7745 14.4611 16.7199 13.2953 16.7199H10.7044C9.53905 16.7199 8.63416 15.7745 8.55604 14.6384L8.55549 14.6303L8.291 10.025C8.2682 9.62799 8.57154 9.28768 8.96853 9.26488Z" fill="black"/>
</svg>
