<svg width="24" height="24" viewBox="0 0 24 24" fill="none" xmlns="http://www.w3.org/2000/svg">
<path fill-rule="evenodd" clip-rule="evenodd" d="M9.59848 9.33297C9.37652 9.72965 9.25 10.187 9.25 10.6738C9.25 12.1926 10.4812 13.4238 12 13.4238C12.4869 13.4238 12.9442 13.2973 13.3409 13.0754L9.59848 9.33297ZM8.99523 7.6682C8.22587 8.43733 7.75 9.5 7.75 10.6738C7.75 13.021 9.65279 14.9238 12 14.9238C13.1727 14.9238 14.2345 14.4488 15.0035 13.6807C15.0041 13.6802 15.0046 13.6796 15.0052 13.679M15.0058 13.6784C15.7746 12.9094 16.25 11.8471 16.25 10.6738C16.25 8.32662 14.3472 6.42383 12 6.42383C10.8266 6.42383 9.76429 6.89935 8.99523 7.6682M10.6591 8.27231L14.4015 12.0147C14.6235 11.618 14.75 11.1607 14.75 10.6738C14.75 9.15505 13.5188 7.92383 12 7.92383C11.5131 7.92383 11.0558 8.05035 10.6591 8.27231Z" fill="black"/>
<path fill-rule="evenodd" clip-rule="evenodd" d="M4.77835 10.2305C4.74239 10.7209 4.73546 11.1697 4.78816 11.621C5.16355 14.8356 7.59916 17.3261 11.0354 17.4956C11.4347 17.5153 11.7484 17.8449 11.7484 18.2447V20.131C15.5441 18.9965 18.7919 15.584 19.215 11.6282C19.2638 11.1719 19.2573 10.7193 19.2215 10.2305C18.8359 6.60847 15.7523 3.78027 11.9999 3.78027C8.24755 3.78027 5.16395 6.60848 4.77835 10.2305ZM3.28534 10.0853C3.74567 5.69586 7.47416 2.28027 11.9999 2.28027C16.5257 2.28027 20.2542 5.69586 20.7145 10.0853C20.7153 10.0929 20.716 10.1005 20.7166 10.1081C20.757 10.6541 20.7686 11.2073 20.7065 11.7878C20.1945 16.5739 16.2332 20.5227 11.7769 21.6801C10.9727 21.889 10.2484 21.2622 10.2484 20.487V18.9299C6.41729 18.4286 3.72784 15.4734 3.29829 11.795C3.22991 11.2094 3.2429 10.653 3.2833 10.108C3.28387 10.1004 3.28455 10.0928 3.28534 10.0853Z" fill="black"/>
</svg>
