<svg width="24" height="24" viewBox="0 0 24 24" fill="none" xmlns="http://www.w3.org/2000/svg">
<path fill-rule="evenodd" clip-rule="evenodd" d="M2.25 10.5222C2.25 6.2587 5.67617 2.79053 9.91719 2.79053H14.0828C18.3238 2.79053 21.75 6.2587 21.75 10.5222C21.75 14.7857 18.3238 18.2539 14.0828 18.2539H13.7914V20.5405C13.7914 20.7799 13.6771 21.0049 13.4838 21.1462C13.2905 21.2874 13.0414 21.3278 12.8133 21.255L13.0414 20.5405C12.8133 21.255 12.8131 21.2549 12.8129 21.2549L12.8124 21.2547L12.8109 21.2542L12.8063 21.2528L12.7908 21.2477L12.7347 21.2291C12.6866 21.2129 12.6171 21.1891 12.5287 21.1578C12.352 21.0951 12.099 21.002 11.7883 20.8781C11.1674 20.6307 10.3118 20.2593 9.36928 19.7616C7.50703 18.7782 5.22293 17.2594 3.78449 15.1633C2.82083 13.8703 2.25 12.2621 2.25 10.5222ZM12.2914 19.4638V17.5039C12.2914 17.0897 12.6272 16.7539 13.0414 16.7539H14.0828C17.4823 16.7539 20.25 13.9705 20.25 10.5222C20.25 7.07397 17.4823 4.29053 14.0828 4.29053H9.91719C6.51769 4.29053 3.75 7.07397 3.75 10.5222C3.75 11.934 4.21368 13.2336 4.99499 14.2774C5.0014 14.2859 5.00763 14.2946 5.01367 14.3035C6.24645 16.1064 8.28011 17.4901 10.0697 18.4351C10.9289 18.8889 11.7129 19.2316 12.2914 19.4638Z" fill="black"/>
<path fill-rule="evenodd" clip-rule="evenodd" d="M2.25 10.5222C2.25 6.2587 5.67617 2.79053 9.91719 2.79053H14.0828C18.3238 2.79053 21.75 6.2587 21.75 10.5222C21.75 14.7857 18.3238 18.2539 14.0828 18.2539H13.7914V20.5405C13.7914 20.7799 13.6771 21.0049 13.4838 21.1462C13.2905 21.2874 13.0414 21.3278 12.8133 21.255L13.0414 20.5405C12.8133 21.255 12.8131 21.2549 12.8129 21.2549L12.8124 21.2547L12.8109 21.2542L12.8063 21.2528L12.7908 21.2477L12.7347 21.2291C12.6866 21.2129 12.6171 21.1891 12.5287 21.1578C12.352 21.0951 12.099 21.002 11.7883 20.8781C11.1674 20.6307 10.3118 20.2593 9.36928 19.7616C7.50703 18.7782 5.22293 17.2594 3.78449 15.1633C2.82083 13.8703 2.25 12.2621 2.25 10.5222ZM12.2914 19.4638V17.5039C12.2914 17.0897 12.6272 16.7539 13.0414 16.7539H14.0828C17.4823 16.7539 20.25 13.9705 20.25 10.5222C20.25 7.07397 17.4823 4.29053 14.0828 4.29053H9.91719C6.51769 4.29053 3.75 7.07397 3.75 10.5222C3.75 11.934 4.21368 13.2336 4.99499 14.2774C5.0014 14.2859 5.00763 14.2946 5.01367 14.3035C6.24645 16.1064 8.28011 17.4901 10.0697 18.4351C10.9289 18.8889 11.7129 19.2316 12.2914 19.4638Z" fill="black"/>
<path fill-rule="evenodd" clip-rule="evenodd" d="M2.25 10.5222C2.25 6.2587 5.67617 2.79053 9.91719 2.79053H14.0828C18.3238 2.79053 21.75 6.2587 21.75 10.5222C21.75 14.7857 18.3238 18.2539 14.0828 18.2539H13.7914V20.5405C13.7914 20.7799 13.6771 21.0049 13.4838 21.1462C13.2905 21.2874 13.0414 21.3278 12.8133 21.255L13.0414 20.5405C12.8133 21.255 12.8131 21.2549 12.8129 21.2549L12.8124 21.2547L12.8109 21.2542L12.8063 21.2528L12.7908 21.2477L12.7347 21.2291C12.6866 21.2129 12.6171 21.1891 12.5287 21.1578C12.352 21.0951 12.099 21.002 11.7883 20.8781C11.1674 20.6307 10.3118 20.2593 9.36928 19.7616C7.50703 18.7782 5.22293 17.2594 3.78449 15.1633C2.82083 13.8703 2.25 12.2621 2.25 10.5222ZM12.2914 19.4638V17.5039C12.2914 17.0897 12.6272 16.7539 13.0414 16.7539H14.0828C17.4823 16.7539 20.25 13.9705 20.25 10.5222C20.25 7.07397 17.4823 4.29053 14.0828 4.29053H9.91719C6.51769 4.29053 3.75 7.07397 3.75 10.5222C3.75 11.934 4.21368 13.2336 4.99499 14.2774C5.0014 14.2859 5.00763 14.2946 5.01367 14.3035C6.24645 16.1064 8.28011 17.4901 10.0697 18.4351C10.9289 18.8889 11.7129 19.2316 12.2914 19.4638Z" fill="black"/>
</svg>
