<svg width="24" height="24" viewBox="0 0 24 24" fill="none" xmlns="http://www.w3.org/2000/svg">
<path fill-rule="evenodd" clip-rule="evenodd" d="M2.25 12C2.25 6.61522 6.61522 2.25 12 2.25C17.3849 2.25 21.7501 6.6153 21.7501 12.0001C21.7501 17.3849 17.3849 21.7501 12.0001 21.7501C10.4643 21.7501 9.00934 21.3945 7.71514 20.7603C7.36811 20.5943 6.9775 20.5725 6.49516 20.65C6.15223 20.7051 5.83711 20.7935 5.48677 20.8919C5.30155 20.9439 5.10648 20.9986 4.89226 21.0526C4.29616 21.203 3.73877 20.9717 3.38359 20.6166C3.02914 20.2621 2.79806 19.7063 2.94658 19.1116C3.00388 18.8758 3.06203 18.6661 3.11694 18.4682C3.20907 18.1361 3.29204 17.837 3.34646 17.5028C3.42529 17.0187 3.40467 16.6297 3.23984 16.285C2.60567 14.9908 2.25 13.5359 2.25 12ZM12 3.75C7.44365 3.75 3.75 7.44365 3.75 12C3.75 13.3031 4.05159 14.5337 4.58808 15.6276L4.59073 15.633L4.59071 15.633C4.94159 16.3632 4.93165 17.1009 4.82696 17.7439C4.76077 18.1503 4.63761 18.5991 4.53175 18.9849C4.48289 19.1629 4.43773 19.3275 4.40354 19.4683L4.40196 19.4748L4.40193 19.4748L4.40188 19.475C4.40144 19.4767 4.40017 19.4816 4.40429 19.4945C4.40936 19.5103 4.42174 19.5334 4.44425 19.5559C4.46677 19.5784 4.48987 19.5908 4.5057 19.5959C4.51853 19.6 4.52344 19.5987 4.52516 19.5983L4.52532 19.5982C4.65979 19.5643 4.81238 19.5217 4.97611 19.476C5.37081 19.3658 5.83031 19.2376 6.25715 19.169C6.90185 19.0654 7.6383 19.0592 8.36715 19.4094L8.37259 19.4121L8.37258 19.4121C9.46649 19.9486 10.697 20.2501 12.0001 20.2501C16.5565 20.2501 20.2501 16.5565 20.2501 12.0001C20.2501 7.44372 16.5564 3.75 12 3.75Z" fill="black"/>
<path fill-rule="evenodd" clip-rule="evenodd" d="M9.36108 13.1392C9.7753 13.1392 10.1111 13.4749 10.1111 13.8892V16.5003C10.1111 16.9145 9.7753 17.2503 9.36108 17.2503C8.94687 17.2503 8.61108 16.9145 8.61108 16.5003V13.8892C8.61108 13.4749 8.94687 13.1392 9.36108 13.1392Z" fill="black"/>
<path fill-rule="evenodd" clip-rule="evenodd" d="M8.9354 9.63916C8.89147 9.63916 8.86108 9.67363 8.86108 9.71034V13.0675C8.86108 13.1048 8.89214 13.1392 8.9354 13.1392H9.7862C9.83032 13.1392 9.86105 13.1045 9.86105 13.0675V9.71034C9.86105 9.67395 9.83099 9.63916 9.7862 9.63916H8.9354ZM7.36108 9.71034C7.36108 8.83918 8.06907 8.13916 8.9354 8.13916H9.7862C10.6527 8.13916 11.3611 8.83886 11.3611 9.71034V13.0675C11.3611 13.9382 10.6534 14.6392 9.7862 14.6392H8.9354C8.06839 14.6392 7.36108 13.9379 7.36108 13.0675V9.71034Z" fill="black"/>
<path fill-rule="evenodd" clip-rule="evenodd" d="M9.36108 6.75C9.7753 6.75 10.1111 7.08579 10.1111 7.5V8.88889C10.1111 9.3031 9.7753 9.63889 9.36108 9.63889C8.94687 9.63889 8.61108 9.3031 8.61108 8.88889V7.5C8.61108 7.08579 8.94687 6.75 9.36108 6.75Z" fill="black"/>
<path fill-rule="evenodd" clip-rule="evenodd" d="M14.6389 14.3613C15.0531 14.3613 15.3889 14.6971 15.3889 15.1113V16.5002C15.3889 16.9144 15.0531 17.2502 14.6389 17.2502C14.2247 17.2502 13.8889 16.9144 13.8889 16.5002V15.1113C13.8889 14.6971 14.2247 14.3613 14.6389 14.3613Z" fill="black"/>
<path fill-rule="evenodd" clip-rule="evenodd" d="M14.2132 10.8613C14.1693 10.8613 14.1389 10.8958 14.1389 10.9325V14.2896C14.1389 14.327 14.17 14.3614 14.2132 14.3614H15.064C15.1081 14.3614 15.1389 14.3267 15.1389 14.2896V10.9325C15.1389 10.8961 15.1088 10.8613 15.064 10.8613H14.2132ZM12.6389 10.9325C12.6389 10.0614 13.3469 9.36133 14.2132 9.36133H15.064C15.9306 9.36133 16.6389 10.0611 16.6389 10.9325V14.2896C16.6389 15.1604 15.9313 15.8614 15.064 15.8614H14.2132C13.3462 15.8614 12.6389 15.1601 12.6389 14.2896V10.9325Z" fill="black"/>
<path fill-rule="evenodd" clip-rule="evenodd" d="M14.6389 6.75C15.0531 6.75 15.3889 7.08579 15.3889 7.5V10.1111C15.3889 10.5253 15.0531 10.8611 14.6389 10.8611C14.2247 10.8611 13.8889 10.5253 13.8889 10.1111V7.5C13.8889 7.08579 14.2247 6.75 14.6389 6.75Z" fill="black"/>
</svg>
