<svg width="24" height="24" viewBox="0 0 24 24" fill="none" xmlns="http://www.w3.org/2000/svg">
<path fill-rule="evenodd" clip-rule="evenodd" d="M2.25 12C2.25 6.61522 6.61522 2.25 12 2.25C17.3849 2.25 21.7501 6.6153 21.7501 12.0001C21.7501 17.3849 17.3849 21.7501 12.0001 21.7501C10.4643 21.7501 9.00934 21.3945 7.71514 20.7603C7.36811 20.5943 6.9775 20.5725 6.49516 20.65C6.15223 20.7051 5.83711 20.7935 5.48677 20.8919C5.30155 20.9439 5.10648 20.9986 4.89226 21.0526C4.29616 21.203 3.73877 20.9717 3.38359 20.6166C3.02914 20.2621 2.79806 19.7063 2.94658 19.1116C3.00388 18.8758 3.06203 18.6661 3.11694 18.4682C3.20907 18.1361 3.29204 17.837 3.34646 17.5028C3.42529 17.0187 3.40467 16.6297 3.23984 16.285C2.60567 14.9908 2.25 13.5359 2.25 12ZM12 3.75C7.44365 3.75 3.75 7.44365 3.75 12C3.75 13.3031 4.05159 14.5337 4.58808 15.6276L4.59073 15.633L4.59071 15.633C4.94159 16.3632 4.93165 17.1009 4.82696 17.7439C4.76077 18.1503 4.63761 18.5991 4.53175 18.9849C4.48289 19.1629 4.43773 19.3275 4.40354 19.4683L4.40196 19.4748L4.40193 19.4748L4.40188 19.475C4.40144 19.4767 4.40017 19.4816 4.40429 19.4945C4.40936 19.5103 4.42174 19.5334 4.44425 19.5559C4.46677 19.5784 4.48987 19.5908 4.5057 19.5959C4.51853 19.6 4.52344 19.5987 4.52516 19.5983L4.52532 19.5982C4.65979 19.5643 4.81238 19.5217 4.97611 19.476C5.37081 19.3658 5.83031 19.2376 6.25715 19.169C6.90185 19.0654 7.6383 19.0592 8.36715 19.4094L8.37259 19.4121L8.37258 19.4121C9.46649 19.9486 10.697 20.2501 12.0001 20.2501C16.5565 20.2501 20.2501 16.5565 20.2501 12.0001C20.2501 7.44372 16.5564 3.75 12 3.75Z" fill="black"/>
<path fill-rule="evenodd" clip-rule="evenodd" d="M15.3412 8.44029C15.5136 8.53953 15.6396 8.70322 15.6913 8.89533L16.3033 11.1682C16.411 11.5682 16.1741 11.9797 15.7741 12.0874C15.3741 12.1951 14.9626 11.9582 14.8549 11.5582L14.714 11.0349L12.9902 14.0323C12.7837 14.3914 12.3252 14.5151 11.9661 14.3086L10.2119 13.2998L9.07091 15.2837C8.8644 15.6427 8.40591 15.7664 8.04685 15.5599C7.68779 15.3534 7.56413 14.8949 7.77065 14.5358L9.28557 11.9019C9.49207 11.5429 9.95053 11.4192 10.3096 11.6257L12.0637 12.6344L13.4144 10.2858L12.8895 10.4274C12.4895 10.5352 12.0779 10.2984 11.9701 9.8985C11.8622 9.49857 12.099 9.08694 12.4989 8.9791L14.7718 8.3662C14.9639 8.3144 15.1687 8.34105 15.3412 8.44029Z" fill="black"/>
</svg>
