<svg width="24" height="24" viewBox="0 0 24 24" fill="none" xmlns="http://www.w3.org/2000/svg">
<path fill-rule="evenodd" clip-rule="evenodd" d="M2.25 12C2.25 6.61522 6.61522 2.25 12 2.25C17.3849 2.25 21.7501 6.6153 21.7501 12.0001C21.7501 17.3849 17.3849 21.7501 12.0001 21.7501C10.4643 21.7501 9.00934 21.3945 7.71514 20.7603C7.36811 20.5943 6.9775 20.5725 6.49516 20.65C6.15223 20.7051 5.83711 20.7935 5.48677 20.8919C5.30155 20.9439 5.10648 20.9986 4.89226 21.0526C4.29616 21.203 3.73877 20.9717 3.38359 20.6166C3.02914 20.2621 2.79806 19.7063 2.94658 19.1116C3.00388 18.8758 3.06203 18.6661 3.11694 18.4682C3.20907 18.1361 3.29204 17.837 3.34646 17.5028C3.42529 17.0187 3.40467 16.6297 3.23984 16.285C2.60567 14.9908 2.25 13.5359 2.25 12ZM12 3.75C7.44365 3.75 3.75 7.44365 3.75 12C3.75 13.3031 4.05159 14.5337 4.58808 15.6276L4.59073 15.633L4.59071 15.633C4.94159 16.3632 4.93165 17.1009 4.82696 17.7439C4.76077 18.1503 4.63761 18.5991 4.53175 18.9849C4.48289 19.1629 4.43773 19.3275 4.40354 19.4683L4.40196 19.4748L4.40193 19.4748L4.40188 19.475C4.40144 19.4767 4.40017 19.4816 4.40429 19.4945C4.40936 19.5103 4.42174 19.5334 4.44425 19.5559C4.46677 19.5784 4.48987 19.5908 4.5057 19.5959C4.51853 19.6 4.52344 19.5987 4.52516 19.5983L4.52532 19.5982C4.65979 19.5643 4.81238 19.5217 4.97611 19.476C5.37081 19.3658 5.83031 19.2376 6.25715 19.169C6.90185 19.0654 7.6383 19.0592 8.36715 19.4094L8.37259 19.4121L8.37258 19.4121C9.46649 19.9486 10.697 20.2501 12.0001 20.2501C16.5565 20.2501 20.2501 16.5565 20.2501 12.0001C20.2501 7.44372 16.5564 3.75 12 3.75Z" fill="black"/>
<path fill-rule="evenodd" clip-rule="evenodd" d="M9.29942 9.09912C9.07067 9.09912 8.88672 9.2837 8.88672 9.51088C8.88672 9.87745 9.11332 10.306 9.67975 10.6782C10.0822 10.9426 10.6178 11.1472 11.2368 11.2414C11.1282 9.94638 10.2109 9.09912 9.29942 9.09912ZM11.9995 12.2496C11.9998 12.2496 12.0001 12.2496 12.0004 12.2496C12.4146 12.2496 12.7504 11.9138 12.7504 11.4996C12.7504 11.4118 12.7541 11.3257 12.7611 11.2415C13.38 11.1474 13.9157 10.9427 14.3182 10.6782C14.8846 10.306 15.1112 9.87746 15.1112 9.51088C15.1112 9.28293 14.9274 9.09912 14.6994 9.09912C13.7869 9.09912 12.8697 9.94653 12.7611 11.2415C12.7541 11.2426 12.7471 11.2437 12.74 11.2447C12.6932 10.4472 12.4284 9.68898 11.999 9.07267C12.6137 8.19054 13.5659 7.59912 14.6994 7.59912C15.7558 7.59912 16.6112 8.45444 16.6112 9.51088C16.6112 10.5454 15.9733 11.3855 15.142 11.9318C14.3043 12.4822 13.1911 12.7983 11.9995 12.7983C10.8073 12.7983 9.69391 12.4823 8.8561 11.9318C8.0246 11.3855 7.38672 10.5454 7.38672 9.51088C7.38672 8.45367 8.24385 7.59912 9.29942 7.59912C10.4324 7.59912 11.3843 8.19056 11.999 9.07267" fill="black"/>
<path fill-rule="evenodd" clip-rule="evenodd" d="M12.0007 11.2983C12.212 11.2984 12.4134 11.3874 12.5555 11.5437L15.4214 14.6942C15.7001 15.0006 15.6777 15.4749 15.3713 15.7537C15.0649 16.0324 14.5905 16.01 14.3118 15.7036L12.0006 13.1628L9.68851 15.7036C9.40973 16.01 8.93538 16.0324 8.62902 15.7536C8.32266 15.4748 8.3003 15.0005 8.57908 14.6941L11.446 11.5436C11.5881 11.3874 11.7895 11.2983 12.0007 11.2983Z" fill="black"/>
<path fill-rule="evenodd" clip-rule="evenodd" d="M2.25 12C2.25 11.5858 2.58579 11.25 3 11.25H21C21.4142 11.25 21.75 11.5858 21.75 12C21.75 12.4142 21.4142 12.75 21 12.75H3C2.58579 12.75 2.25 12.4142 2.25 12Z" fill="black"/>
<path fill-rule="evenodd" clip-rule="evenodd" d="M12 2.25C12.4142 2.25 12.75 2.58579 12.75 3V21C12.75 21.4142 12.4142 21.75 12 21.75C11.5858 21.75 11.25 21.4142 11.25 21V3C11.25 2.58579 11.5858 2.25 12 2.25Z" fill="black"/>
</svg>
