<svg width="24" height="24" viewBox="0 0 24 24" fill="none" xmlns="http://www.w3.org/2000/svg">
<path fill-rule="evenodd" clip-rule="evenodd" d="M2.25 12C2.25 6.61522 6.61523 2.25 12 2.25C17.3848 2.25 21.75 6.61522 21.75 12C21.75 14.2644 20.9772 16.3502 19.6816 18.0053L20.6326 19.267C21.4026 20.2883 20.6739 21.75 19.3949 21.75H12C6.61523 21.75 2.25 17.3848 2.25 12ZM12 3.75C7.44365 3.75 3.75 7.44365 3.75 12C3.75 16.5563 7.44365 20.25 12 20.25H19.3949C19.4054 20.25 19.4114 20.2486 19.414 20.2478C19.4169 20.2469 19.4191 20.2459 19.4213 20.2444C19.4262 20.2413 19.4337 20.2343 19.4397 20.2223C19.4456 20.2104 19.4467 20.2001 19.4463 20.1943C19.4461 20.1917 19.4456 20.1893 19.4446 20.1865C19.4436 20.1839 19.4412 20.1783 19.4348 20.1699L18.3724 18.7606C18.0093 18.2789 18.0532 17.6335 18.4079 17.1968C19.5601 15.778 20.25 13.9706 20.25 12C20.25 7.44365 16.5564 3.75 12 3.75Z" fill="black"/>
</svg>
