<svg width="24" height="24" viewBox="0 0 24 24" fill="none" xmlns="http://www.w3.org/2000/svg">
<path fill-rule="evenodd" clip-rule="evenodd" d="M11.0057 11.2427C10.389 11.1685 9.83227 11.6067 9.7582 12.2165C9.68496 12.8262 10.1208 13.383 10.7366 13.4566M11.185 9.75344L11.1022 10.4414L11.185 9.75344C12.6198 9.92613 13.6481 11.2261 13.4739 12.6631C13.2999 14.0991 11.9929 15.1175 10.5586 14.946L10.5585 14.946C9.12227 14.7742 8.09619 13.4724 8.26899 12.0369L8.26906 12.0363C8.44302 10.601 9.74962 9.58069 11.185 9.75344ZM11.0057 11.2427L11.0954 10.4981L11.0057 11.2427C11.6232 11.317 12.0586 11.8742 11.9848 12.4826L11.0057 11.2427ZM11.9848 12.4826C11.911 13.0919 11.3546 13.5305 10.7367 13.4566L11.9848 12.4826Z" fill="black"/>
<path fill-rule="evenodd" clip-rule="evenodd" d="M14.1292 6.83017C14.1292 6.83017 14.1292 6.83017 14.1292 6.83017L14.1292 6.83008L14.1291 6.82962L14.1288 6.82861L14.1284 6.82691M14.1292 6.83017C14.1292 6.83014 14.1292 6.83011 14.1292 6.83008L14.1292 6.83017ZM13.9156 9.01628L13.4746 12.6625C13.4249 13.0737 13.0512 13.3667 12.64 13.317C12.2288 13.2673 11.9357 12.8936 11.9855 12.4824L12.6577 6.92461C12.7011 6.56595 12.994 6.28918 13.3545 6.26618C13.7131 6.24331 14.0373 6.47797 14.1279 6.82513" fill="black"/>
<path fill-rule="evenodd" clip-rule="evenodd" d="M4.77835 10.2305C4.74239 10.7209 4.73546 11.1697 4.78816 11.621C5.16355 14.8356 7.59916 17.3261 11.0354 17.4956C11.4347 17.5153 11.7484 17.8449 11.7484 18.2447V20.131C15.5441 18.9965 18.7919 15.584 19.215 11.6282C19.2638 11.1719 19.2573 10.7193 19.2215 10.2305C18.8359 6.60847 15.7523 3.78027 11.9999 3.78027C8.24755 3.78027 5.16395 6.60848 4.77835 10.2305ZM3.28534 10.0853C3.74567 5.69586 7.47416 2.28027 11.9999 2.28027C16.5257 2.28027 20.2542 5.69586 20.7145 10.0853C20.7153 10.0929 20.716 10.1005 20.7166 10.1081C20.757 10.6541 20.7686 11.2073 20.7065 11.7878C20.1945 16.5739 16.2332 20.5227 11.7769 21.6801C10.9727 21.889 10.2484 21.2622 10.2484 20.487V18.9299C6.41729 18.4286 3.72784 15.4734 3.29829 11.795C3.22991 11.2094 3.2429 10.653 3.2833 10.108C3.28387 10.1004 3.28455 10.0928 3.28534 10.0853Z" fill="black"/>
</svg>
