<svg width="24" height="24" viewBox="0 0 24 24" fill="none" xmlns="http://www.w3.org/2000/svg">
<path fill-rule="evenodd" clip-rule="evenodd" d="M11.8466 8.62954C12.1389 8.92308 12.1378 9.39795 11.8443 9.6902L10.2769 11.2506H15.5376C15.9518 11.2506 16.2876 11.5864 16.2876 12.0006C16.2876 12.4148 15.9518 12.7506 15.5376 12.7506H10.2772L11.8444 14.3114C12.1379 14.6037 12.1388 15.0785 11.8466 15.372C11.5543 15.6655 11.0794 15.6665 10.7859 15.3742L7.9317 12.5317C7.79036 12.3909 7.71092 12.1997 7.71094 12.0002C7.71095 11.8007 7.79043 11.6095 7.93179 11.4687L10.786 8.62719C11.0795 8.33494 11.5544 8.336 11.8466 8.62954Z" fill="black"/>
<path fill-rule="evenodd" clip-rule="evenodd" d="M2.25 11.9594C2.25 6.589 6.61761 2.23975 12 2.23975C17.3824 2.23975 21.75 6.589 21.75 11.9594C21.75 17.3298 17.3824 21.6791 12 21.6791H4C3.03589 21.6791 2.25 20.8995 2.25 19.9324V11.9594ZM12 3.73975C7.44126 3.73975 3.75 7.4222 3.75 11.9594V19.9324C3.75 20.0663 3.85954 20.1791 4 20.1791H12C16.5587 20.1791 20.25 16.4966 20.25 11.9594C20.25 7.4222 16.5587 3.73975 12 3.73975Z" fill="black"/>
</svg>
