<svg width="24" height="24" viewBox="0 0 24 24" fill="none" xmlns="http://www.w3.org/2000/svg">
<path fill-rule="evenodd" clip-rule="evenodd" d="M16.894 4.98926C16.894 4.57504 17.2298 4.23926 17.644 4.23926H20.3205C20.7347 4.23926 21.0705 4.57504 21.0705 4.98926C21.0705 5.40347 20.7347 5.73926 20.3205 5.73926H18.394V7.65665C18.394 8.07087 18.0583 8.40665 17.644 8.40665C17.2298 8.40665 16.894 8.07087 16.894 7.65665V4.98926Z" fill="black"/>
<path fill-rule="evenodd" clip-rule="evenodd" d="M2.25 12C2.25 6.61522 6.61522 2.25 12 2.25C12.6942 2.25 13.3723 2.32267 14.0268 2.46109C14.432 2.54681 14.691 2.94481 14.6053 3.35006C14.5196 3.7553 14.1216 4.01434 13.7164 3.92863C13.1634 3.81166 12.5893 3.75 12 3.75C7.44365 3.75 3.75 7.44365 3.75 12C3.75 13.3031 4.05159 14.5337 4.58808 15.6276L4.59073 15.633L4.59071 15.633C4.94159 16.3632 4.93165 17.1009 4.82696 17.7439C4.76077 18.1503 4.63761 18.5991 4.53175 18.9849C4.48289 19.1629 4.43773 19.3275 4.40354 19.4683L4.40196 19.4748L4.40193 19.4748L4.40188 19.475C4.40144 19.4767 4.40017 19.4816 4.40429 19.4945C4.40936 19.5103 4.42174 19.5334 4.44425 19.5559C4.46677 19.5784 4.48987 19.5908 4.5057 19.5959C4.51853 19.6 4.52344 19.5987 4.52516 19.5983L4.52532 19.5982C4.65979 19.5643 4.81238 19.5217 4.97611 19.476C5.37081 19.3658 5.83031 19.2376 6.25715 19.169C6.90185 19.0654 7.6383 19.0592 8.36715 19.4094L8.37259 19.4121L8.37258 19.4121C9.46649 19.9486 10.697 20.2501 12.0001 20.2501C13.4074 20.2501 14.7304 19.8984 15.888 19.2786C16.2532 19.0831 16.7077 19.2207 16.9032 19.5859C17.0987 19.951 16.9611 20.4055 16.596 20.601C15.2259 21.3345 13.6605 21.7501 12.0001 21.7501C10.4643 21.7501 9.00934 21.3945 7.71514 20.7603C7.36811 20.5943 6.9775 20.5725 6.49516 20.65C6.15223 20.7051 5.83711 20.7935 5.48677 20.8919C5.30155 20.9439 5.10648 20.9986 4.89226 21.0526C4.29616 21.203 3.73877 20.9717 3.38359 20.6166C3.02914 20.2621 2.79806 19.7063 2.94658 19.1116C3.00388 18.8758 3.06203 18.6661 3.11694 18.4682C3.20907 18.1361 3.29204 17.837 3.34646 17.5028C3.42529 17.0187 3.40467 16.6297 3.23984 16.285C2.60567 14.9908 2.25 13.5359 2.25 12Z" fill="black"/>
<path fill-rule="evenodd" clip-rule="evenodd" d="M17.0601 4.51861C17.3201 4.19612 17.7922 4.14541 18.1147 4.40536C20.3305 6.19138 21.7502 8.93028 21.7502 12.0002C21.7502 13.7778 21.2738 15.4464 20.4413 16.8829C20.2336 17.2412 19.7747 17.3634 19.4163 17.1557C19.0579 16.948 18.9358 16.4891 19.1435 16.1307C19.8471 14.9166 20.2502 13.5066 20.2502 12.0002C20.2502 9.40317 19.0511 7.08672 17.1734 5.57321C16.8509 5.31326 16.8002 4.8411 17.0601 4.51861Z" fill="black"/>
</svg>
