<svg width="24" height="24" viewBox="0 0 24 24" fill="none" xmlns="http://www.w3.org/2000/svg">
<path fill-rule="evenodd" clip-rule="evenodd" d="M7.5541 9.2207C7.5541 8.80649 7.88989 8.4707 8.3041 8.4707H13.6344C14.0486 8.4707 14.3844 8.80649 14.3844 9.2207C14.3844 9.63492 14.0486 9.9707 13.6344 9.9707H8.3041C7.88989 9.9707 7.5541 9.63492 7.5541 9.2207ZM7.50879 13.0537C7.50879 12.6394 7.84458 12.3037 8.25879 12.3037H11.1429C11.5572 12.3037 11.8929 12.6394 11.8929 13.0537C11.8929 13.4679 11.5572 13.8037 11.1429 13.8037H8.25879C7.84458 13.8037 7.50879 13.4679 7.50879 13.0537Z" fill="black"/>
<path fill-rule="evenodd" clip-rule="evenodd" d="M14.7817 15.8032C14.5291 16.2348 14.3845 16.7366 14.3845 17.2715C14.3845 18.882 15.6952 20.1919 17.3173 20.1919C17.8544 20.1919 18.3573 20.0483 18.7898 19.7978L14.7817 15.8032ZM14.1846 14.1441C13.3816 14.9438 12.8845 16.0492 12.8845 17.2715C12.8845 19.7152 14.8716 21.6919 17.3173 21.6919C18.5398 21.6919 19.6477 21.1981 20.4501 20.3989C21.2531 19.5992 21.7502 18.4938 21.7502 17.2715C21.7502 14.8278 19.7631 12.8511 17.3173 12.8511C16.0949 12.8511 14.987 13.3449 14.1846 14.1441ZM15.8449 14.7452L19.853 18.7397C20.1056 18.3081 20.2502 17.8064 20.2502 17.2715C20.2502 15.661 18.9395 14.3511 17.3173 14.3511C16.7803 14.3511 16.2774 14.4946 15.8449 14.7452Z" fill="black"/>
<path fill-rule="evenodd" clip-rule="evenodd" d="M2.28711 11.4333C2.28711 6.43351 6.34025 2.38037 11.3401 2.38037C15.8699 2.38037 19.6215 5.70659 20.288 10.05C20.3508 10.4594 20.0698 10.8422 19.6604 10.9051C19.251 10.9679 18.8682 10.6869 18.8053 10.2775C18.2495 6.65495 15.1181 3.88037 11.3401 3.88037C7.16868 3.88037 3.78711 7.26194 3.78711 11.4333C3.78711 12.6264 4.06322 13.753 4.55434 14.7544L4.557 14.7598L4.55697 14.7598C4.88785 15.4484 4.87748 16.1424 4.7799 16.7417C4.71836 17.1196 4.60296 17.5403 4.50492 17.8976C4.46066 18.0589 4.41994 18.2074 4.38931 18.3331C4.39214 18.3397 4.39854 18.3509 4.41058 18.3629C4.42255 18.3749 4.43372 18.3813 4.44027 18.3842C4.55916 18.354 4.69457 18.3162 4.8403 18.2755C5.20554 18.1736 5.63559 18.0535 6.03277 17.9897C6.63378 17.8931 7.32656 17.8864 8.01373 18.2165L8.01916 18.2191L8.01915 18.2192C8.84851 18.6259 9.76339 18.885 10.7304 18.9622C11.1433 18.9951 11.4513 19.3565 11.4184 19.7694C11.3854 20.1824 11.024 20.4904 10.6111 20.4574C9.45343 20.3651 8.35634 20.0547 7.36175 19.5674C7.05639 19.4214 6.70942 19.4002 6.27079 19.4707C5.95752 19.5211 5.67188 19.6013 5.35094 19.6914C5.17956 19.7395 4.99811 19.7904 4.79702 19.8412C4.22383 19.9858 3.68936 19.763 3.34992 19.4236C3.0112 19.0849 2.78869 18.552 2.93143 17.9802C2.98527 17.7586 3.03935 17.5638 3.09012 17.3809C3.17444 17.0771 3.24963 16.8063 3.2994 16.5006C3.37111 16.0602 3.35093 15.7148 3.20609 15.4118C2.6173 14.2101 2.28711 12.8592 2.28711 11.4333Z" fill="black"/>
</svg>
