<svg width="24" height="24" viewBox="0 0 24 24" fill="none" xmlns="http://www.w3.org/2000/svg">
<path fill-rule="evenodd" clip-rule="evenodd" d="M12.0686 7.61672C12.3609 7.32325 12.8357 7.3223 13.1292 7.61461L15.6306 10.1061C15.7719 10.2468 15.8513 10.438 15.8513 10.6374C15.8513 10.8369 15.7719 11.0281 15.6306 11.1688L13.1292 13.6605C12.8358 13.9528 12.3609 13.9519 12.0686 13.6584C11.7763 13.365 11.7772 12.8901 12.0706 12.5978L13.2857 11.3875H8.89819C8.48398 11.3875 8.14819 11.0517 8.14819 10.6375C8.14819 10.2232 8.48398 9.88745 8.89819 9.88745H13.2856L12.0707 8.67738C11.7772 8.38507 11.7762 7.9102 12.0686 7.61672Z" fill="black"/>
<path fill-rule="evenodd" clip-rule="evenodd" d="M4.77835 10.2305C4.74239 10.7209 4.73546 11.1697 4.78816 11.621C5.16355 14.8355 7.59916 17.3261 11.0354 17.4956C11.4347 17.5153 11.7484 17.8449 11.7484 18.2447V20.131C15.5441 18.9965 18.7919 15.584 19.215 11.6282C19.2638 11.1719 19.2573 10.7193 19.2215 10.2305C18.8359 6.60847 15.7523 3.78027 11.9999 3.78027C8.24755 3.78027 5.16395 6.60848 4.77835 10.2305ZM3.28534 10.0853C3.74567 5.69585 7.47416 2.28027 11.9999 2.28027C16.5257 2.28027 20.2542 5.69585 20.7145 10.0853C20.7153 10.0929 20.716 10.1005 20.7166 10.1081C20.757 10.6541 20.7686 11.2073 20.7065 11.7878C20.1945 16.5739 16.2332 20.5227 11.7769 21.6801C10.9727 21.889 10.2484 21.2622 10.2484 20.487V18.9299C6.41729 18.4286 3.72784 15.4734 3.29829 11.795C3.22991 11.2094 3.2429 10.653 3.2833 10.108C3.28387 10.1004 3.28455 10.0928 3.28534 10.0853Z" fill="black"/>
</svg>
