<svg width="24" height="24" viewBox="0 0 24 24" fill="none" xmlns="http://www.w3.org/2000/svg">
<path fill-rule="evenodd" clip-rule="evenodd" d="M2.25 12C2.25 6.61522 6.61522 2.25 12 2.25C17.3849 2.25 21.7501 6.6153 21.7501 12.0001C21.7501 17.3849 17.3849 21.7501 12.0001 21.7501C10.4643 21.7501 9.00934 21.3945 7.71514 20.7603C7.36811 20.5943 6.9775 20.5725 6.49516 20.65C6.15223 20.7051 5.83711 20.7935 5.48677 20.8919C5.30155 20.9439 5.10648 20.9986 4.89226 21.0526C4.29616 21.203 3.73877 20.9717 3.38359 20.6166C3.02914 20.2621 2.79806 19.7063 2.94658 19.1116C3.00388 18.8758 3.06203 18.6661 3.11694 18.4682C3.20907 18.1361 3.29204 17.837 3.34646 17.5028C3.42529 17.0187 3.40467 16.6297 3.23984 16.285C2.60567 14.9908 2.25 13.5359 2.25 12ZM12 3.75C7.44365 3.75 3.75 7.44365 3.75 12C3.75 13.3031 4.05159 14.5337 4.58808 15.6276L4.59073 15.633L4.59071 15.633C4.94159 16.3632 4.93165 17.1009 4.82696 17.7439C4.76077 18.1503 4.63761 18.5991 4.53175 18.9849C4.48289 19.1629 4.43773 19.3275 4.40354 19.4683L4.40196 19.4748L4.40193 19.4748L4.40188 19.475C4.40144 19.4767 4.40017 19.4816 4.40429 19.4945C4.40936 19.5103 4.42174 19.5334 4.44425 19.5559C4.46677 19.5784 4.48987 19.5908 4.5057 19.5959C4.51853 19.6 4.52344 19.5987 4.52516 19.5983L4.52532 19.5982C4.65979 19.5643 4.81238 19.5217 4.97611 19.476C5.37081 19.3658 5.83031 19.2376 6.25715 19.169C6.90185 19.0654 7.6383 19.0592 8.36715 19.4094L8.37259 19.4121L8.37258 19.4121C9.46649 19.9486 10.697 20.2501 12.0001 20.2501C16.5565 20.2501 20.2501 16.5565 20.2501 12.0001C20.2501 7.44372 16.5564 3.75 12 3.75Z" fill="black"/>
<path fill-rule="evenodd" clip-rule="evenodd" d="M8.69554 8C8.69554 7.58579 9.03133 7.25 9.44554 7.25H14.5547C14.9689 7.25 15.3047 7.58579 15.3047 8C15.3047 8.40222 14.9881 8.73049 14.5905 8.74916V11.1001L15.3692 12.0764C15.4751 12.2092 15.5329 12.3741 15.5329 12.544L15.5329 13.1348C15.5329 13.3337 15.4539 13.5245 15.3133 13.6652C15.1726 13.8058 14.9818 13.8849 14.7829 13.8849H12.7501V16C12.7501 16.4142 12.4143 16.75 12.0001 16.75C11.5859 16.75 11.2501 16.4142 11.2501 16V13.8849H9.21733C8.80313 13.8849 8.46735 13.5491 8.46733 13.1349L8.46729 12.5441C8.46727 12.3741 8.52499 12.2092 8.63099 12.0763L9.40977 11.1001V8.74916C9.01217 8.73049 8.69554 8.40222 8.69554 8ZM10.9098 8.75V11.3626C10.9098 11.5325 10.8521 11.6975 10.7461 11.8303L10.3037 12.3849H11.8284C11.8835 12.3719 11.941 12.3651 12.0001 12.3651C12.0591 12.3651 12.1166 12.3719 12.1717 12.3849H13.6965L13.2541 11.8303C13.1482 11.6974 13.0905 11.5325 13.0905 11.3626V8.75H10.9098Z" fill="black"/>
</svg>
