<svg width="24" height="24" viewBox="0 0 24 24" fill="none" xmlns="http://www.w3.org/2000/svg">
<path fill-rule="evenodd" clip-rule="evenodd" d="M2.25 12C2.25 6.61522 6.61522 2.25 12 2.25C17.3849 2.25 21.7501 6.6153 21.7501 12.0001C21.7501 17.3849 17.3849 21.7501 12.0001 21.7501C10.4643 21.7501 9.00934 21.3945 7.71514 20.7603C7.36811 20.5943 6.9775 20.5725 6.49516 20.65C6.15223 20.7051 5.83711 20.7935 5.48677 20.8919C5.30155 20.9439 5.10648 20.9986 4.89226 21.0526C4.29616 21.203 3.73877 20.9717 3.38359 20.6166C3.02914 20.2621 2.79806 19.7063 2.94658 19.1116C3.00388 18.8758 3.06203 18.6661 3.11694 18.4682C3.20907 18.1361 3.29204 17.837 3.34646 17.5028C3.42529 17.0187 3.40467 16.6297 3.23984 16.285C2.60567 14.9908 2.25 13.5359 2.25 12ZM12 3.75C7.44365 3.75 3.75 7.44365 3.75 12C3.75 13.3031 4.05159 14.5337 4.58808 15.6276L4.59073 15.633L4.59071 15.633C4.94159 16.3632 4.93165 17.1009 4.82696 17.7439C4.76077 18.1503 4.63761 18.5991 4.53175 18.9849C4.48289 19.1629 4.43773 19.3275 4.40354 19.4683L4.40196 19.4748L4.40193 19.4748L4.40188 19.475C4.40144 19.4767 4.40017 19.4816 4.40429 19.4945C4.40936 19.5103 4.42174 19.5334 4.44425 19.5559C4.46677 19.5784 4.48987 19.5908 4.5057 19.5959C4.51853 19.6 4.52344 19.5987 4.52516 19.5983L4.52532 19.5982C4.65979 19.5643 4.81238 19.5217 4.97611 19.476C5.37081 19.3658 5.83031 19.2376 6.25715 19.169C6.90185 19.0654 7.6383 19.0592 8.36715 19.4094L8.37259 19.4121L8.37258 19.4121C9.46649 19.9486 10.697 20.2501 12.0001 20.2501C16.5565 20.2501 20.2501 16.5565 20.2501 12.0001C20.2501 7.44372 16.5564 3.75 12 3.75Z" fill="black"/>
<path fill-rule="evenodd" clip-rule="evenodd" d="M14.1799 7.94499C14.5908 7.99705 14.8817 8.37237 14.8297 8.7833L14.7236 9.6205H15.5C15.9142 9.6205 16.25 9.95629 16.25 10.3705C16.25 10.7847 15.9142 11.1205 15.5 11.1205H14.5336L14.3106 12.8804H15.2128C15.627 12.8804 15.9628 13.2162 15.9628 13.6304C15.9628 14.0446 15.627 14.3804 15.2128 14.3804H14.1206L13.9908 15.4053C13.9387 15.8162 13.5634 16.1072 13.1525 16.0551C12.7416 16.003 12.4506 15.6277 12.5027 15.2168L12.6086 14.3804H10.8097L10.6799 15.4053C10.6279 15.8162 10.2525 16.1072 9.84161 16.0551C9.43068 16.0031 9.13975 15.6277 9.1918 15.2168L9.29774 14.3804H8.5C8.08579 14.3804 7.75 14.0446 7.75 13.6304C7.75 13.2162 8.08579 12.8804 8.5 12.8804H9.48773L9.71064 11.1205H8.78726C8.37304 11.1205 8.03726 10.7847 8.03726 10.3705C8.03726 9.95629 8.37304 9.6205 8.78726 9.6205H9.90063L10.0305 8.5948C10.0826 8.18387 10.4579 7.89294 10.8688 7.94499C11.2798 7.99704 11.5707 8.37236 11.5187 8.78329L11.4126 9.6205H13.2116L13.3415 8.59479C13.3936 8.18386 13.7689 7.89294 14.1799 7.94499ZM13.0216 11.1205H11.2226L10.9997 12.8804H12.7987L13.0216 11.1205Z" fill="black"/>
</svg>
