<svg width="24" height="24" viewBox="0 0 24 24" fill="none" xmlns="http://www.w3.org/2000/svg">
<path fill-rule="evenodd" clip-rule="evenodd" d="M6.75 10.6375C6.75 9.26472 7.86336 8.15137 9.2361 8.15137C10.61 8.15137 11.7222 9.26498 11.7222 10.6375C11.7222 12.01 10.61 13.1236 9.2361 13.1236C7.86336 13.1236 6.75 12.0102 6.75 10.6375ZM9.2361 9.65137C8.69178 9.65137 8.25 10.0932 8.25 10.6375C8.25 11.1818 8.69178 11.6236 9.2361 11.6236C9.78105 11.6236 10.2222 11.182 10.2222 10.6375C10.2222 10.0929 9.78105 9.65137 9.2361 9.65137Z" fill="black"/>
<path fill-rule="evenodd" clip-rule="evenodd" d="M12.2778 10.6375C12.2778 9.26472 13.3912 8.15137 14.7639 8.15137C16.1378 8.15137 17.25 9.26498 17.25 10.6375C17.25 12.0099 16.1378 13.1236 14.7639 13.1236C13.3912 13.1236 12.2778 12.0102 12.2778 10.6375ZM14.7639 9.65137C14.2196 9.65137 13.7778 10.0932 13.7778 10.6375C13.7778 11.1818 14.2196 11.6236 14.7639 11.6236C15.3089 11.6236 15.75 11.182 15.75 10.6375C15.75 10.0929 15.3089 9.65137 14.7639 9.65137Z" fill="black"/>
<path fill-rule="evenodd" clip-rule="evenodd" d="M8.48535 12.373C8.48535 11.9588 8.82114 11.623 9.23535 11.623H14.7642C15.1784 11.623 15.5142 11.9588 15.5142 12.373C15.5142 12.7873 15.1784 13.123 14.7642 13.123H9.23535C8.82114 13.123 8.48535 12.7873 8.48535 12.373Z" fill="black"/>
<path fill-rule="evenodd" clip-rule="evenodd" d="M4.77835 10.2305C4.74239 10.7209 4.73546 11.1697 4.78816 11.621C5.16355 14.8356 7.59916 17.3261 11.0354 17.4956C11.4347 17.5153 11.7484 17.8449 11.7484 18.2447V20.131C15.5441 18.9965 18.7919 15.584 19.215 11.6282C19.2638 11.1719 19.2573 10.7193 19.2215 10.2305C18.8359 6.60847 15.7523 3.78027 11.9999 3.78027C8.24755 3.78027 5.16395 6.60848 4.77835 10.2305ZM3.28534 10.0853C3.74567 5.69586 7.47416 2.28027 11.9999 2.28027C16.5257 2.28027 20.2542 5.69586 20.7145 10.0853C20.7153 10.0929 20.716 10.1005 20.7166 10.1081C20.757 10.6541 20.7686 11.2073 20.7065 11.7878C20.1945 16.5739 16.2332 20.5227 11.7769 21.6801C10.9727 21.889 10.2484 21.2622 10.2484 20.487V18.9299C6.41729 18.4286 3.72784 15.4734 3.29829 11.795C3.22991 11.2094 3.2429 10.653 3.2833 10.108C3.28387 10.1004 3.28455 10.0928 3.28534 10.0853Z" fill="black"/>
</svg>
