<svg width="24" height="24" viewBox="0 0 24 24" fill="none" xmlns="http://www.w3.org/2000/svg">
<path fill-rule="evenodd" clip-rule="evenodd" d="M6.3623 11.9999C6.3623 10.5446 7.54263 9.36426 8.99793 9.36426C10.4544 9.36426 11.6335 10.5448 11.6335 11.9999C11.6335 13.4549 10.4544 14.6355 8.99793 14.6355C7.54263 14.6355 6.3623 13.4552 6.3623 11.9999ZM8.99793 10.8643C8.37106 10.8643 7.8623 11.373 7.8623 11.9999C7.8623 12.6267 8.37106 13.1355 8.99793 13.1355C9.62552 13.1355 10.1335 12.627 10.1335 11.9999C10.1335 11.3728 9.62552 10.8643 8.99793 10.8643Z" fill="black"/>
<path fill-rule="evenodd" clip-rule="evenodd" d="M12.3662 11.9999C12.3662 10.5446 13.5465 9.36426 15.0018 9.36426C16.4584 9.36426 17.6375 10.5448 17.6375 11.9999C17.6375 13.4549 16.4584 14.6355 15.0018 14.6355C13.5465 14.6355 12.3662 13.4552 12.3662 11.9999ZM15.0018 10.8643C14.375 10.8643 13.8662 11.373 13.8662 11.9999C13.8662 12.6267 14.375 13.1355 15.0018 13.1355C15.6294 13.1355 16.1375 12.627 16.1375 11.9999C16.1375 11.3728 15.6294 10.8643 15.0018 10.8643Z" fill="black"/>
<path fill-rule="evenodd" clip-rule="evenodd" d="M8.24707 13.8848C8.24707 13.4706 8.58286 13.1348 8.99707 13.1348H15.0021C15.4164 13.1348 15.7521 13.4706 15.7521 13.8848C15.7521 14.299 15.4164 14.6348 15.0021 14.6348H8.99707C8.58286 14.6348 8.24707 14.299 8.24707 13.8848Z" fill="black"/>
<path fill-rule="evenodd" clip-rule="evenodd" d="M2.25 12C2.25 6.61522 6.61522 2.25 12 2.25C17.3849 2.25 21.7501 6.6153 21.7501 12.0001C21.7501 17.3849 17.3849 21.7501 12.0001 21.7501C10.4643 21.7501 9.00934 21.3945 7.71514 20.7603C7.36811 20.5943 6.9775 20.5725 6.49516 20.65C6.15223 20.7051 5.83711 20.7935 5.48677 20.8919C5.30155 20.9439 5.10648 20.9986 4.89226 21.0526C4.29616 21.203 3.73877 20.9717 3.38359 20.6166C3.02914 20.2621 2.79806 19.7063 2.94658 19.1116C3.00388 18.8758 3.06203 18.6661 3.11694 18.4682C3.20907 18.1361 3.29204 17.837 3.34646 17.5028C3.42529 17.0187 3.40467 16.6297 3.23984 16.285C2.60567 14.9908 2.25 13.5359 2.25 12ZM12 3.75C7.44365 3.75 3.75 7.44365 3.75 12C3.75 13.3031 4.05159 14.5337 4.58808 15.6276L4.59073 15.633L4.59071 15.633C4.94159 16.3632 4.93165 17.1009 4.82696 17.7439C4.76077 18.1503 4.63761 18.5991 4.53175 18.9849C4.48289 19.1629 4.43773 19.3275 4.40354 19.4683L4.40196 19.4748L4.40193 19.4748L4.40188 19.475C4.40144 19.4767 4.40017 19.4816 4.40429 19.4945C4.40936 19.5103 4.42174 19.5334 4.44425 19.5559C4.46677 19.5784 4.48987 19.5908 4.5057 19.5959C4.51853 19.6 4.52344 19.5987 4.52516 19.5983L4.52532 19.5982C4.65979 19.5643 4.81238 19.5217 4.97611 19.476C5.37081 19.3658 5.83031 19.2376 6.25715 19.169C6.90185 19.0654 7.6383 19.0592 8.36715 19.4094L8.37259 19.4121L8.37258 19.4121C9.46649 19.9486 10.697 20.2501 12.0001 20.2501C16.5565 20.2501 20.2501 16.5565 20.2501 12.0001C20.2501 7.44372 16.5564 3.75 12 3.75Z" fill="black"/>
</svg>
