<svg width="24" height="24" viewBox="0 0 24 24" fill="none" xmlns="http://www.w3.org/2000/svg">
<path fill-rule="evenodd" clip-rule="evenodd" d="M2.25 12C2.25 6.61522 6.61522 2.25 12 2.25C17.3849 2.25 21.7501 6.6153 21.7501 12.0001C21.7501 17.3849 17.3849 21.7501 12.0001 21.7501C10.4643 21.7501 9.00934 21.3945 7.71514 20.7603C7.36811 20.5943 6.9775 20.5725 6.49516 20.65C6.15223 20.7051 5.83711 20.7935 5.48677 20.8919C5.30155 20.9439 5.10648 20.9986 4.89226 21.0526C4.29616 21.203 3.73877 20.9717 3.38359 20.6166C3.02914 20.2621 2.79806 19.7063 2.94658 19.1116C3.00388 18.8758 3.06203 18.6661 3.11694 18.4682C3.20907 18.1361 3.29204 17.837 3.34646 17.5028C3.42529 17.0187 3.40467 16.6297 3.23984 16.285C2.60567 14.9908 2.25 13.5359 2.25 12ZM12 3.75C7.44365 3.75 3.75 7.44365 3.75 12C3.75 13.3031 4.05159 14.5337 4.58808 15.6276L4.59073 15.633L4.59071 15.633C4.94159 16.3632 4.93165 17.1009 4.82696 17.7439C4.76077 18.1503 4.63761 18.5991 4.53175 18.9849C4.48289 19.1629 4.43773 19.3275 4.40354 19.4683L4.40196 19.4748L4.40193 19.4748L4.40188 19.475C4.40144 19.4767 4.40017 19.4816 4.40429 19.4945C4.40936 19.5103 4.42174 19.5334 4.44425 19.5559C4.46677 19.5784 4.48987 19.5908 4.5057 19.5959C4.51853 19.6 4.52344 19.5987 4.52516 19.5983L4.52532 19.5982C4.65979 19.5643 4.81238 19.5217 4.97611 19.476C5.37081 19.3658 5.83031 19.2376 6.25715 19.169C6.90185 19.0654 7.6383 19.0592 8.36715 19.4094L8.37259 19.4121L8.37258 19.4121C9.46649 19.9486 10.697 20.2501 12.0001 20.2501C16.5565 20.2501 20.2501 16.5565 20.2501 12.0001C20.2501 7.44372 16.5564 3.75 12 3.75Z" fill="black"/>
<path fill-rule="evenodd" clip-rule="evenodd" d="M9.66616 8.80021C10.1436 8.16907 10.9139 7.66455 12 7.66455C13.0862 7.66455 13.8564 8.16909 14.3339 8.80022C14.615 9.17186 14.7971 9.5888 14.8951 9.9782C15.335 10.0832 15.7429 10.2931 16.0758 10.6108C16.5758 11.0879 16.8558 11.7602 16.8558 12.5384C16.8558 13.6081 16.2201 14.5317 15.3043 14.9451C15.2944 14.9496 15.2843 14.9538 15.2742 14.9579C14.9013 15.107 14.5311 15.1646 14.2322 15.1646H9.76445C9.46352 15.1646 9.0922 15.1043 8.72376 14.9546C8.71464 14.9509 8.7056 14.9471 8.69663 14.943C7.78392 14.5297 7.14429 13.6106 7.14429 12.5384C7.14429 11.7602 7.42425 11.0879 7.92419 10.6108C8.25707 10.2931 8.66504 10.0832 9.10491 9.9782C9.2029 9.5888 9.38503 9.17185 9.66616 8.80021ZM10.8624 9.70516C10.6123 10.0358 10.5161 10.4344 10.5161 10.6493C10.5161 11.0608 10.1845 11.3955 9.77298 11.3993C9.42066 11.4025 9.14335 11.5208 8.95978 11.696C8.78262 11.865 8.64429 12.1325 8.64429 12.5384C8.64429 12.9933 8.91173 13.3877 9.30213 13.5705C9.47927 13.6401 9.65205 13.6646 9.76445 13.6646H14.2322C14.3479 13.6646 14.5213 13.6409 14.7017 13.5712C15.0885 13.3899 15.3558 12.9952 15.3558 12.5384C15.3558 12.1325 15.2175 11.865 15.0403 11.696C14.8567 11.5208 14.5793 11.4025 14.227 11.3993C13.8155 11.3955 13.4839 11.0608 13.4839 10.6493C13.4839 10.4344 13.3877 10.0358 13.1376 9.70515C12.9106 9.40507 12.5639 9.16455 12 9.16455C11.4361 9.16455 11.0894 9.40508 10.8624 9.70516Z" fill="black"/>
</svg>
