<svg width="24" height="24" viewBox="0 0 24 24" fill="none" xmlns="http://www.w3.org/2000/svg">
<path d="M11.99 21.7551C10.49 21.7551 9.03999 21.4251 7.70999 20.7551C7.05999 20.4551 6.26999 20.6652 5.42999 20.9052C5.24999 20.9552 5.06998 21.0052 4.88998 21.0552C4.34998 21.1852 3.79 21.0251 3.38 20.6151C2.97 20.2051 2.80998 19.6451 2.94998 19.1051C2.99998 18.9151 3.04998 18.7251 3.09998 18.5251C3.32998 17.6951 3.53999 16.9152 3.23999 16.2852C2.57999 14.9452 2.25 13.4951 2.25 11.9951C2.25 6.61512 6.62 2.24512 12 2.24512C17.38 2.24512 21.75 6.61512 21.75 11.9951C21.75 17.3751 17.38 21.7451 12 21.7451L11.99 21.7551ZM6.97998 19.1051C7.42998 19.1051 7.88998 19.1852 8.34998 19.4052C8.34998 19.4052 8.34999 19.4052 8.35999 19.4052C9.48999 19.9652 10.71 20.2451 11.99 20.2451C16.54 20.2451 20.24 16.5451 20.24 11.9951C20.24 7.44512 16.54 3.74512 11.99 3.74512C7.43999 3.74512 3.73999 7.44512 3.73999 11.9951C3.73999 13.2651 4.01999 14.4851 4.57999 15.6251C5.12999 16.7651 4.81998 17.9052 4.53998 18.9152C4.48998 19.0952 4.43999 19.2851 4.39999 19.4551L4.51999 19.5851C4.68999 19.5451 4.84999 19.4951 5.01999 19.4451C5.62999 19.2751 6.29998 19.0951 6.97998 19.0951V19.1051Z" fill="black"/>
<path d="M11.9801 17.245C11.4901 17.245 11.0301 17.0549 10.6801 16.7049C10.6701 16.6949 10.6501 16.675 10.6401 16.665L10.3201 16.3449C10.2601 16.2849 10.1701 16.245 10.0801 16.245H9.58007C8.56007 16.245 7.73007 15.415 7.73007 14.395V13.895C7.73007 13.805 7.69007 13.715 7.64007 13.665L7.28008 13.305C6.56008 12.585 6.55008 11.4049 7.28008 10.6849C7.30008 10.6649 7.32008 10.645 7.34008 10.625L7.64007 10.3249C7.70007 10.2649 7.74008 10.1649 7.74008 10.0749V9.57493C7.74008 8.55493 8.57008 7.72495 9.59008 7.72495H10.0901C10.1601 7.72495 10.2501 7.70498 10.3301 7.62498L10.6801 7.275C11.3801 6.575 12.6001 6.575 13.3001 7.275L13.6501 7.62498C13.7401 7.71498 13.8301 7.72495 13.9001 7.72495H14.4001C15.4201 7.72495 16.2501 8.55493 16.2501 9.57493V10.0749C16.2501 10.1649 16.2901 10.2649 16.3601 10.3349L16.7001 10.675C17.0501 11.025 17.2401 11.485 17.2401 11.975C17.2401 12.445 17.0701 12.885 16.7601 13.225C16.7401 13.245 16.7201 13.275 16.7001 13.295L16.3501 13.645C16.2801 13.705 16.2501 13.795 16.2501 13.885V14.385C16.2501 15.405 15.4201 16.235 14.4001 16.235H13.9001C13.8101 16.235 13.7201 16.2749 13.6501 16.3449L13.3101 16.6849C12.9601 17.0349 12.4901 17.235 12.0001 17.235L11.9801 17.245ZM11.7701 15.675C11.9101 15.785 12.1101 15.775 12.2401 15.645L12.5901 15.295C12.9401 14.945 13.4201 14.755 13.9001 14.755H14.4001C14.5901 14.755 14.7501 14.595 14.7501 14.405V13.905C14.7501 13.415 14.9501 12.9349 15.3001 12.5949L15.6001 12.295C15.6001 12.295 15.6301 12.255 15.6501 12.235C15.7201 12.165 15.7501 12.085 15.7501 11.995C15.7501 11.905 15.7101 11.815 15.6501 11.745L15.3001 11.395C14.9501 11.035 14.7601 10.5749 14.7601 10.0849V9.58494C14.7601 9.38494 14.6101 9.23496 14.4101 9.23496H13.9101C13.4101 9.23496 12.9401 9.04492 12.6001 8.69492L12.2501 8.35496C12.1101 8.21496 11.8901 8.21496 11.7501 8.35496L11.4001 8.70493C11.0601 9.05493 10.5901 9.24497 10.1001 9.24497H9.60006C9.41006 9.24497 9.25009 9.40495 9.25009 9.59495V10.0949C9.25009 10.5849 9.06009 11.045 8.72009 11.395L8.36007 11.755C8.36007 11.755 8.34007 11.775 8.33007 11.785C8.22007 11.925 8.23007 12.125 8.36007 12.255L8.71008 12.605C9.05008 12.935 9.25009 13.415 9.25009 13.905V14.405C9.25009 14.595 9.41006 14.755 9.60006 14.755H10.1001C10.5801 14.755 11.0501 14.945 11.4001 15.285L11.7601 15.645C11.7601 15.645 11.7801 15.665 11.7901 15.675H11.7701Z" fill="black"/>
<path d="M11.4699 13.7749C11.2699 13.7749 11.0799 13.6949 10.9399 13.5549L9.94992 12.5648C9.65992 12.2748 9.65992 11.7949 9.94992 11.5049C10.2399 11.2149 10.7199 11.2149 11.0099 11.5049L11.4699 11.9648L12.9799 10.4548C13.2699 10.1648 13.7499 10.1648 14.0399 10.4548C14.3299 10.7448 14.3299 11.2249 14.0399 11.5149L11.9999 13.5549C11.8599 13.6949 11.6699 13.7749 11.4699 13.7749Z" fill="black"/>
</svg>
