<svg width="24" height="24" viewBox="0 0 24 24" fill="none" xmlns="http://www.w3.org/2000/svg">
<path fill-rule="evenodd" clip-rule="evenodd" d="M2.25 12C2.25 6.61522 6.61522 2.25 12 2.25C17.3849 2.25 21.7501 6.6153 21.7501 12.0001C21.7501 17.3849 17.3849 21.7501 12.0001 21.7501C10.4643 21.7501 9.00934 21.3945 7.71514 20.7603C7.36811 20.5943 6.9775 20.5725 6.49516 20.65C6.15223 20.7051 5.83711 20.7935 5.48677 20.8919C5.30155 20.9439 5.10648 20.9986 4.89226 21.0526C4.29616 21.203 3.73877 20.9717 3.38359 20.6166C3.02914 20.2621 2.79806 19.7063 2.94658 19.1116C3.00388 18.8758 3.06203 18.6661 3.11694 18.4682C3.20907 18.1361 3.29204 17.837 3.34646 17.5028C3.42529 17.0187 3.40467 16.6297 3.23984 16.285C2.60567 14.9908 2.25 13.5359 2.25 12ZM12 3.75C7.44365 3.75 3.75 7.44365 3.75 12C3.75 13.3031 4.05159 14.5337 4.58808 15.6276L4.59073 15.633L4.59071 15.633C4.94159 16.3632 4.93165 17.1009 4.82696 17.7439C4.76077 18.1503 4.63761 18.5991 4.53175 18.9849C4.48289 19.1629 4.43773 19.3275 4.40354 19.4683L4.40196 19.4748L4.40193 19.4748L4.40188 19.475C4.40144 19.4767 4.40017 19.4816 4.40429 19.4945C4.40936 19.5103 4.42174 19.5334 4.44425 19.5559C4.46677 19.5784 4.48987 19.5908 4.5057 19.5959C4.51853 19.6 4.52344 19.5987 4.52516 19.5983L4.52532 19.5982C4.65979 19.5643 4.81238 19.5217 4.97611 19.476C5.37081 19.3658 5.83031 19.2376 6.25715 19.169C6.90185 19.0654 7.6383 19.0592 8.36715 19.4094L8.37259 19.4121L8.37258 19.4121C9.46649 19.9486 10.697 20.2501 12.0001 20.2501C16.5565 20.2501 20.2501 16.5565 20.2501 12.0001C20.2501 7.44372 16.5564 3.75 12 3.75Z" fill="black"/>
<path fill-rule="evenodd" clip-rule="evenodd" d="M10.8798 8.07389C11.5364 7.5548 12.4637 7.5548 13.1203 8.07389L16.4655 10.722C16.7903 10.9791 16.8452 11.4508 16.5881 11.7755C16.412 11.9979 16.1353 12.0938 15.8741 12.0495V14.2891C15.8741 15.4078 14.9671 16.3148 13.8484 16.3148H10.1513C9.03264 16.3148 8.12564 15.4078 8.12564 14.2891V12.0496C7.8645 12.0937 7.58796 11.9978 7.41198 11.7755C7.15489 11.4508 7.20975 10.9791 7.53453 10.722L10.8798 8.07389ZM9.62564 10.9797V14.2891C9.62564 14.5794 9.86107 14.8148 10.1513 14.8148H13.8484C14.1387 14.8148 14.3741 14.5794 14.3741 14.2891V10.9795L12.1901 9.2506C12.19 9.25057 12.1901 9.25063 12.1901 9.2506C12.0787 9.16269 11.9214 9.16259 11.8101 9.25051C11.8101 9.25054 11.8102 9.25048 11.8101 9.25051L9.62564 10.9797Z" fill="black"/>
</svg>
