<svg width="24" height="24" viewBox="0 0 24 24" fill="none" xmlns="http://www.w3.org/2000/svg">
<path fill-rule="evenodd" clip-rule="evenodd" d="M17.5304 9.09079C17.8233 9.3837 17.8233 9.85858 17.5304 10.1515L12.8601 14.8212C12.8598 14.8215 12.8596 14.8217 12.8593 14.822C12.4513 15.2309 11.7909 15.2288 11.3844 14.8225L11.3842 14.8224L9.15228 12.5904C8.85939 12.2975 8.8594 11.8226 9.15229 11.5297C9.44519 11.2368 9.92006 11.2368 10.213 11.5297L12.1216 13.4384L16.4698 9.09073C16.7627 8.79786 17.2376 8.79788 17.5304 9.09079Z" fill="black"/>
<path fill-rule="evenodd" clip-rule="evenodd" d="M14.6038 9.09077C14.8967 9.38366 14.8967 9.85854 14.6038 10.1514L12.6524 12.1028C12.3595 12.3957 11.8846 12.3957 11.5917 12.1028C11.2988 11.8099 11.2988 11.335 11.5917 11.0421L13.5432 9.09076C13.8361 8.79787 14.3109 8.79787 14.6038 9.09077Z" fill="black"/>
<path fill-rule="evenodd" clip-rule="evenodd" d="M6.46967 11.7744C6.76256 11.4815 7.23744 11.4815 7.53033 11.7744L9.19519 13.4392L10.1281 12.5063C10.421 12.2134 10.8959 12.2134 11.1888 12.5062C11.4817 12.7991 11.4817 13.274 11.1888 13.5669L9.93255 14.8232C9.52508 15.2305 8.86537 15.2306 8.4579 14.8233L6.46967 12.835C6.17678 12.5421 6.17678 12.0672 6.46967 11.7744Z" fill="black"/>
<path fill-rule="evenodd" clip-rule="evenodd" d="M2.25 12C2.25 6.61522 6.61522 2.25 12 2.25C17.3848 2.25 21.75 6.61522 21.75 12C21.75 17.3848 17.3848 21.75 12 21.75H4C3.0335 21.75 2.25 20.9665 2.25 20V12ZM12 3.75C7.44365 3.75 3.75 7.44365 3.75 12V20C3.75 20.1381 3.86193 20.25 4 20.25H12C16.5563 20.25 20.25 16.5563 20.25 12C20.25 7.44365 16.5563 3.75 12 3.75Z" fill="black"/>
</svg>
