<svg width="24" height="24" viewBox="0 0 24 24" fill="none" xmlns="http://www.w3.org/2000/svg">
<path fill-rule="evenodd" clip-rule="evenodd" d="M6.77934 8.66748C6.77934 8.25327 7.11512 7.91748 7.52934 7.91748H12.7037C13.1179 7.91748 13.4537 8.25327 13.4537 8.66748C13.4537 9.08169 13.1179 9.41748 12.7037 9.41748H7.52934C7.11512 9.41748 6.77934 9.08169 6.77934 8.66748ZM6.73535 12.3883C6.73535 11.9741 7.07114 11.6383 7.48535 11.6383H10.2851C10.6993 11.6383 11.0351 11.9741 11.0351 12.3883C11.0351 12.8025 10.6993 13.1383 10.2851 13.1383H7.48535C7.07114 13.1383 6.73535 12.8025 6.73535 12.3883Z" fill="black"/>
<path fill-rule="evenodd" clip-rule="evenodd" d="M11.9531 16.8516C11.9531 14.1606 14.141 11.9829 16.8349 11.9829C19.5239 11.9829 21.7175 14.1135 21.7175 16.8512C21.7175 17.4689 21.5745 18.0576 21.2314 18.511C20.8709 18.9874 20.3369 19.248 19.7279 19.248C18.6312 19.248 17.7382 18.3617 17.7382 17.2626V15.3143C17.7382 14.9001 18.074 14.5643 18.4882 14.5643C18.9024 14.5643 19.2382 14.9001 19.2382 15.3143V17.2626C19.2382 17.5285 19.4548 17.748 19.7279 17.748C19.8805 17.748 19.9663 17.697 20.0352 17.6059C20.1216 17.4918 20.2175 17.257 20.2175 16.8512C20.2175 14.9568 18.7104 13.4829 16.8349 13.4829C14.965 13.4829 13.4531 14.9934 13.4531 16.8516C13.4531 18.709 14.9651 20.2195 16.8358 20.2195C17.518 20.2195 18.1826 20.0141 18.743 19.6327C19.0854 19.3996 19.552 19.4882 19.785 19.8306C20.0181 20.1731 19.9294 20.6396 19.587 20.8727C18.7777 21.4235 17.819 21.7195 16.8358 21.7195C14.1418 21.7195 11.9531 19.5426 11.9531 16.8516Z" fill="black"/>
<path fill-rule="evenodd" clip-rule="evenodd" d="M16.8365 15.9536C16.3356 15.9536 15.9336 16.3579 15.9336 16.8509C15.9336 17.3442 16.3355 17.7482 16.8365 17.7482C17.3375 17.7482 17.7394 17.3442 17.7394 16.8509C17.7394 16.3579 17.3373 15.9536 16.8365 15.9536ZM14.4336 16.8509C14.4336 15.5247 15.512 14.4536 16.8365 14.4536C18.161 14.4536 19.2394 15.5247 19.2394 16.8509C19.2394 18.1777 18.1608 19.2482 16.8365 19.2482C15.5121 19.2482 14.4336 18.1777 14.4336 16.8509Z" fill="black"/>
<path fill-rule="evenodd" clip-rule="evenodd" d="M2.30566 11.0984C2.30566 6.22828 6.25367 2.28027 11.1238 2.28027C15.55 2.28027 19.2134 5.54063 19.8456 9.79094C19.9066 10.2006 19.6239 10.5822 19.2142 10.6431C18.8044 10.7041 18.4229 10.4214 18.362 10.0116C17.8374 6.48556 14.7959 3.78027 11.1238 3.78027C7.08209 3.78027 3.80566 7.0567 3.80566 11.0984C3.80566 12.2545 4.07319 13.3459 4.54903 14.3162L4.55168 14.3216L4.55166 14.3216C4.87579 14.9961 4.86529 15.6754 4.7701 16.26C4.71012 16.6284 4.59733 17.0395 4.50194 17.3873C4.45997 17.5403 4.42136 17.681 4.3921 17.8004C4.39226 17.8007 4.39243 17.8009 4.3926 17.8012C4.39559 17.806 4.39984 17.8116 4.40529 17.817C4.41074 17.8225 4.41627 17.8267 4.42109 17.8297C4.4213 17.8298 4.42151 17.83 4.42172 17.8301C4.53441 17.8013 4.66261 17.7655 4.80059 17.727C5.15589 17.6279 5.57603 17.5106 5.96323 17.4484C6.54953 17.3542 7.22759 17.3472 7.90071 17.6706L7.90615 17.6732L7.90614 17.6733C8.65557 18.0408 9.47702 18.2839 10.3442 18.3756C10.7561 18.4192 11.0547 18.7885 11.0111 19.2004C10.9676 19.6123 10.5983 19.9109 10.1864 19.8673C9.14235 19.7569 8.15212 19.4641 7.24875 19.0215C6.95742 18.8823 6.62515 18.8613 6.20125 18.9294C5.89797 18.9781 5.62225 19.0556 5.31122 19.1429C5.14452 19.1897 4.96766 19.2394 4.77099 19.289C4.20551 19.4317 3.67876 19.2118 3.34463 18.8777C3.01121 18.5442 2.79159 18.0191 2.93238 17.455C2.98506 17.2382 3.03777 17.0484 3.08713 16.8706C3.16883 16.5763 3.24139 16.315 3.2896 16.0189C3.35891 15.5933 3.33888 15.2626 3.20077 14.9736C2.62727 13.8031 2.30566 12.4872 2.30566 11.0984Z" fill="black"/>
</svg>
