<svg width="24" height="24" viewBox="0 0 24 24" fill="none" xmlns="http://www.w3.org/2000/svg">
<path fill-rule="evenodd" clip-rule="evenodd" d="M15.0331 9.02338C15.326 9.31628 15.326 9.79115 15.0331 10.084L10.1358 14.9813C9.8429 15.2741 9.36803 15.2741 9.07513 14.9812C8.78224 14.6884 8.78225 14.2135 9.07514 13.9206L13.9724 9.02338C14.2653 8.73049 14.7402 8.73049 15.0331 9.02338Z" fill="black"/>
<path fill-rule="evenodd" clip-rule="evenodd" d="M13.4355 14.3826C13.4355 13.8606 13.8585 13.4365 14.3815 13.4365C14.9041 13.4365 15.3276 13.8601 15.3276 14.3826C15.3276 14.9053 14.9038 15.3286 14.3815 15.3286C13.8588 15.3286 13.4355 14.9048 13.4355 14.3826Z" fill="black"/>
<path fill-rule="evenodd" clip-rule="evenodd" d="M8.67188 9.61695C8.67188 9.09468 9.09516 8.6709 9.61788 8.6709C10.14 8.6709 10.564 9.09406 10.564 9.61695C10.564 10.1398 10.14 10.563 9.61788 10.563C9.09514 10.563 8.67188 10.1392 8.67188 9.61695Z" fill="black"/>
<path fill-rule="evenodd" clip-rule="evenodd" d="M12 3.75C7.44365 3.75 3.75 7.44365 3.75 12C3.75 13.9706 4.43995 15.778 5.59213 17.1968C5.94678 17.6335 5.99069 18.2789 5.62759 18.7606L4.56516 20.1699C4.55882 20.1783 4.5564 20.1839 4.55543 20.1865C4.55439 20.1893 4.55389 20.1917 4.55371 20.1943C4.5533 20.2001 4.55437 20.2104 4.56033 20.2223C4.56629 20.2343 4.57382 20.2413 4.5787 20.2444C4.58089 20.2459 4.58314 20.2469 4.58598 20.2478C4.58864 20.2486 4.59456 20.25 4.60508 20.25H12C16.5563 20.25 20.25 16.5563 20.25 12C20.25 7.44365 16.5563 3.75 12 3.75ZM2.25 12C2.25 6.61522 6.61522 2.25 12 2.25C17.3848 2.25 21.75 6.61522 21.75 12C21.75 17.3848 17.3848 21.75 12 21.75H4.60508C3.32606 21.75 2.59744 20.2883 3.36737 19.267L4.31845 18.0053C3.02281 16.3502 2.25 14.2644 2.25 12Z" fill="black"/>
</svg>
