<svg width="24" height="24" viewBox="0 0 24 24" fill="none" xmlns="http://www.w3.org/2000/svg">
<path fill-rule="evenodd" clip-rule="evenodd" d="M10.7284 8.08774C11.4738 7.49875 12.5261 7.49875 13.2715 8.08774L17.3906 11.3486C17.7154 11.6057 17.7703 12.0774 17.5132 12.4022C17.2561 12.7269 16.7844 12.7818 16.4596 12.5247L12.3416 9.26469C12.3415 9.26462 12.3416 9.26476 12.3416 9.26469C12.1414 9.10671 11.8588 9.1065 11.6586 9.26448C11.6585 9.26455 11.6586 9.26441 11.6586 9.26448L7.54025 12.5247C7.21549 12.7818 6.74379 12.7269 6.48669 12.4022C6.2296 12.0774 6.28445 11.6057 6.60922 11.3486L10.7284 8.08774Z" fill="black"/>
<path fill-rule="evenodd" clip-rule="evenodd" d="M8.57275 10.0596C8.98697 10.0596 9.32275 10.3954 9.32275 10.8096V14.7696C9.32275 15.1838 8.98697 15.5196 8.57275 15.5196C8.15854 15.5196 7.82275 15.1838 7.82275 14.7696V10.8096C7.82275 10.3954 8.15854 10.0596 8.57275 10.0596ZM15.4235 10.0596C15.8377 10.0596 16.1735 10.3954 16.1735 10.8096V14.7696C16.1735 15.1838 15.8377 15.5196 15.4235 15.5196C15.0093 15.5196 14.6735 15.1838 14.6735 14.7696V10.8096C14.6735 10.3954 15.0093 10.0596 15.4235 10.0596Z" fill="black"/>
<path fill-rule="evenodd" clip-rule="evenodd" d="M2.25 11.9594C2.25 6.589 6.61761 2.23975 12 2.23975C17.3824 2.23975 21.75 6.589 21.75 11.9594C21.75 17.3298 17.3824 21.6791 12 21.6791H4C3.03589 21.6791 2.25 20.8995 2.25 19.9324V11.9594ZM12 3.73975C7.44126 3.73975 3.75 7.4222 3.75 11.9594V19.9324C3.75 20.0663 3.85954 20.1791 4 20.1791H12C16.5587 20.1791 20.25 16.4966 20.25 11.9594C20.25 7.4222 16.5587 3.73975 12 3.73975Z" fill="black"/>
</svg>
