<svg width="24" height="24" viewBox="0 0 24 24" fill="none" xmlns="http://www.w3.org/2000/svg">
<path d="M11.9561 14.9348C11.8361 14.9348 11.7161 14.9148 11.6061 14.8748C11.1361 14.7248 10.8161 14.2847 10.8161 13.7947V12.2947H9.43609C9.00609 12.2947 8.61608 12.0547 8.42608 11.6747C8.22608 11.2947 8.2661 10.8347 8.5161 10.4947L11.1161 6.90475C11.4061 6.50475 11.9161 6.33475 12.3861 6.49475C12.8561 6.64475 13.1761 7.08474 13.1761 7.57474V9.07474H14.5561C14.9861 9.07474 15.3761 9.31476 15.5661 9.69476C15.7561 10.0748 15.7261 10.5348 15.4761 10.8848L12.8661 14.4748C12.6461 14.7748 12.3061 14.9448 11.9461 14.9448L11.9561 14.9348ZM10.1461 10.7947H11.5661C11.9761 10.7947 12.3161 11.1347 12.3161 11.5447V12.6747L13.8461 10.5747H12.4261C12.0161 10.5747 11.6761 10.2347 11.6761 9.82474V8.69476L10.1461 10.7947Z" fill="black"/>
<path d="M11.4663 21.7249C11.1963 21.7249 10.9363 21.6349 10.7263 21.4649C10.4263 21.2249 10.2464 20.8749 10.2464 20.4849V18.9249C6.55635 18.4349 3.73634 15.5849 3.29634 11.7949C3.23634 11.2949 3.23633 10.7749 3.28633 10.1049C3.75633 5.63492 7.50636 2.2749 12.0064 2.2749C16.5064 2.2749 20.2563 5.62489 20.7163 10.0749C20.7663 10.7349 20.7563 11.2649 20.7163 11.7749C20.2363 16.2949 16.4763 20.4549 11.7863 21.6649C11.6863 21.6949 11.5763 21.7049 11.4763 21.7049L11.4663 21.7249ZM11.9964 3.78491C8.26635 3.78491 5.15638 6.5649 4.77638 10.2449C4.73638 10.7849 4.73633 11.2149 4.78633 11.6249C5.17633 14.9749 7.68633 17.3349 11.0363 17.5049C11.4363 17.5249 11.7464 17.8549 11.7464 18.2549V20.1449C15.6964 18.9649 18.8063 15.4449 19.2163 11.6449C19.2563 11.2249 19.2663 10.7849 19.2163 10.2349C18.8363 6.57489 15.7264 3.79489 11.9964 3.79489V3.78491Z" fill="black"/>
</svg>
