<svg width="24" height="24" viewBox="0 0 24 24" fill="none" xmlns="http://www.w3.org/2000/svg">
<path d="M13.4897 16.0403H10.7697C10.0497 16.0403 9.65972 16.0404 9.25972 15.8404C8.91972 15.6904 8.60972 15.3803 8.41972 15.0103C8.21972 14.6103 8.21973 14.2203 8.21973 13.5003V10.9002C8.21973 10.6602 8.21972 10.5003 8.25972 10.3203C8.29972 10.1403 8.36972 9.99014 8.42972 9.87014C8.52972 9.71014 8.61973 9.60017 8.79973 9.40017C9.36973 8.79017 10.3897 7.67024 10.9897 6.97024C11.4597 6.49024 11.8697 6.51034 12.2397 6.58034C12.6697 6.67034 13.0097 6.9203 13.2297 7.2903C13.5397 7.8203 13.5797 8.59013 13.3397 9.61013H13.4197C14.4697 9.61013 15.0497 9.61019 15.5597 9.92019C15.9997 10.1802 16.3397 10.6101 16.4897 11.1301C16.6497 11.6901 16.4897 12.2503 16.2197 13.2603L15.9897 14.1101C15.8397 14.6801 15.7497 14.9903 15.5297 15.2803C15.3197 15.5503 15.0397 15.7602 14.7297 15.8902C14.3697 16.0302 14.0397 16.0303 13.4797 16.0303L13.4897 16.0403ZM11.9697 8.14016C11.3597 8.84016 10.4397 9.84018 9.91972 10.4102C9.81972 10.5202 9.76972 10.5701 9.72972 10.6301C9.72972 10.7201 9.72972 10.7802 9.72972 10.9002V13.5003C9.72972 13.8903 9.72973 14.2504 9.76973 14.3404C9.79973 14.4104 9.85973 14.4603 9.90973 14.4903C10.0197 14.5403 10.3997 14.5403 10.7697 14.5403H13.4897C13.8297 14.5403 14.0997 14.5403 14.1797 14.5103C14.2297 14.4903 14.2997 14.4401 14.3497 14.3801C14.3897 14.3301 14.4597 14.0503 14.5397 13.7803L14.7797 12.8801C14.9497 12.2501 15.0997 11.7103 15.0497 11.5503C15.0097 11.4003 14.9197 11.2902 14.7897 11.2102C14.6297 11.1102 14.0997 11.1101 13.4197 11.1101H12.5497C12.1397 11.1101 11.9097 10.9203 11.7897 10.7503C11.6697 10.5903 11.5597 10.3102 11.6897 9.92019C12.0497 8.80019 12.0097 8.31014 11.9597 8.12014L11.9697 8.14016Z" fill="black"/>
<path d="M12 21.75H4C3.04 21.75 2.25 20.96 2.25 20V12C2.25 6.62 6.62 2.25 12 2.25C17.38 2.25 21.75 6.62 21.75 12C21.75 17.38 17.38 21.75 12 21.75ZM12 3.75C7.45 3.75 3.75 7.45 3.75 12V20C3.75 20.14 3.86 20.25 4 20.25H12C16.55 20.25 20.25 16.55 20.25 12C20.25 7.45 16.55 3.75 12 3.75Z" fill="black"/>
</svg>
