<svg width="24" height="24" viewBox="0 0 24 24" fill="none" xmlns="http://www.w3.org/2000/svg">
<path fill-rule="evenodd" clip-rule="evenodd" d="M17.4028 12.4697C17.1099 12.1768 16.6351 12.1768 16.3422 12.4697L12.4696 16.3422C12.1767 16.6351 12.1767 17.11 12.4696 17.4029C12.7625 17.6958 13.2374 17.6958 13.5303 17.4029L13.5413 17.3919L15.3741 19.2247L15.5259 20.5737C15.5449 20.7425 15.6207 20.8999 15.7409 21.0201L16.1886 21.4679C16.3293 21.6086 16.5201 21.6876 16.719 21.6876C16.9179 21.6876 17.1087 21.6086 17.2493 21.4679L18.8283 19.889L20.4697 21.5303C20.7626 21.8232 21.2374 21.8232 21.5303 21.5303C21.8232 21.2374 21.8232 20.7626 21.5303 20.4697L19.889 18.8283L21.4679 17.2494C21.7608 16.9565 21.7608 16.4817 21.4679 16.1888L21.0201 15.7409C20.9 15.6208 20.7425 15.5449 20.5736 15.5259L19.2246 15.3742L17.3918 13.5414L17.4028 13.5303C17.6957 13.2374 17.6957 12.7626 17.4028 12.4697ZM16.3311 14.602L18.3496 16.6204C18.4697 16.7406 18.6271 16.8164 18.796 16.8354L19.663 16.9329L18.4236 18.1724C18.3735 18.2029 18.3263 18.2397 18.283 18.283C18.2398 18.3263 18.2029 18.3735 18.1724 18.4236L16.9329 19.663L16.8353 18.7961C16.8163 18.6272 16.7405 18.4698 16.6204 18.3496L14.602 16.3312L16.3311 14.602Z" fill="black"/>
<path fill-rule="evenodd" clip-rule="evenodd" d="M7.17181 9.31445C7.17181 8.90024 7.5076 8.56445 7.92181 8.56445H13.3139C13.7281 8.56445 14.0639 8.90024 14.0639 9.31445C14.0639 9.72867 13.7281 10.0645 13.3139 10.0645H7.92181C7.5076 10.0645 7.17181 9.72867 7.17181 9.31445ZM7.12598 13.1918C7.12598 12.7776 7.46176 12.4418 7.87598 12.4418H10.7936C11.2078 12.4418 11.5436 12.7776 11.5436 13.1918C11.5436 13.6061 11.2078 13.9418 10.7936 13.9418H7.87598C7.46176 13.9418 7.12598 13.6061 7.12598 13.1918Z" fill="black"/>
<path fill-rule="evenodd" clip-rule="evenodd" d="M2.25 12C2.25 6.61522 6.61522 2.25 12 2.25C17.3848 2.25 21.75 6.61522 21.75 12C21.75 12.4142 21.4142 12.75 21 12.75C20.5858 12.75 20.25 12.4142 20.25 12C20.25 7.44365 16.5563 3.75 12 3.75C7.44365 3.75 3.75 7.44365 3.75 12V20C3.75 20.1381 3.86193 20.25 4 20.25H12C12.4142 20.25 12.75 20.5858 12.75 21C12.75 21.4142 12.4142 21.75 12 21.75H4C3.0335 21.75 2.25 20.9665 2.25 20V12Z" fill="black"/>
</svg>
