<svg width="24" height="24" viewBox="0 0 24 24" fill="none" xmlns="http://www.w3.org/2000/svg">
<path fill-rule="evenodd" clip-rule="evenodd" d="M2.25 12C2.25 6.61522 6.61522 2.25 12 2.25C17.3849 2.25 21.7501 6.6153 21.7501 12.0001C21.7501 17.3849 17.3849 21.7501 12.0001 21.7501C10.4643 21.7501 9.00934 21.3945 7.71514 20.7603C7.36811 20.5943 6.9775 20.5725 6.49516 20.65C6.15223 20.7051 5.83711 20.7935 5.48677 20.8919C5.30155 20.9439 5.10648 20.9986 4.89226 21.0526C4.29616 21.203 3.73877 20.9717 3.38359 20.6166C3.02914 20.2621 2.79806 19.7063 2.94658 19.1116C3.00388 18.8758 3.06203 18.6661 3.11694 18.4682C3.20907 18.1361 3.29204 17.837 3.34646 17.5028C3.42529 17.0187 3.40467 16.6297 3.23984 16.285C2.60567 14.9908 2.25 13.5359 2.25 12ZM12 3.75C7.44365 3.75 3.75 7.44365 3.75 12C3.75 13.3031 4.05159 14.5337 4.58808 15.6276L4.59073 15.633L4.59071 15.633C4.94159 16.3632 4.93165 17.1009 4.82696 17.7439C4.76077 18.1503 4.63761 18.5991 4.53175 18.9849C4.48289 19.1629 4.43773 19.3275 4.40354 19.4683L4.40196 19.4748L4.40193 19.4748L4.40188 19.475C4.40144 19.4767 4.40017 19.4816 4.40429 19.4945C4.40936 19.5103 4.42174 19.5334 4.44425 19.5559C4.46677 19.5784 4.48987 19.5908 4.5057 19.5959C4.51853 19.6 4.52344 19.5987 4.52516 19.5983L4.52532 19.5982C4.65979 19.5643 4.81238 19.5217 4.97611 19.476C5.37081 19.3658 5.83031 19.2376 6.25715 19.169C6.90185 19.0654 7.6383 19.0592 8.36715 19.4094L8.37259 19.4121L8.37258 19.4121C9.46649 19.9486 10.697 20.2501 12.0001 20.2501C16.5565 20.2501 20.2501 16.5565 20.2501 12.0001C20.2501 7.44372 16.5564 3.75 12 3.75Z" fill="black"/>
<path fill-rule="evenodd" clip-rule="evenodd" d="M15.0331 9.02338C15.326 9.31628 15.326 9.79115 15.0331 10.084L10.1358 14.9813C9.8429 15.2741 9.36803 15.2741 9.07513 14.9812C8.78224 14.6884 8.78225 14.2135 9.07514 13.9206L13.9724 9.02338C14.2653 8.73049 14.7402 8.73049 15.0331 9.02338Z" fill="black"/>
<path fill-rule="evenodd" clip-rule="evenodd" d="M13.4355 14.3826C13.4355 13.8606 13.8585 13.4365 14.3815 13.4365C14.9041 13.4365 15.3276 13.8601 15.3276 14.3826C15.3276 14.9053 14.9038 15.3286 14.3815 15.3286C13.8588 15.3286 13.4355 14.9048 13.4355 14.3826Z" fill="black"/>
<path fill-rule="evenodd" clip-rule="evenodd" d="M8.67188 9.61695C8.67188 9.09468 9.09516 8.6709 9.61788 8.6709C10.14 8.6709 10.564 9.09406 10.564 9.61695C10.564 10.1398 10.14 10.563 9.61788 10.563C9.09514 10.563 8.67188 10.1392 8.67188 9.61695Z" fill="black"/>
</svg>
