<svg width="24" height="24" viewBox="0 0 24 24" fill="none" xmlns="http://www.w3.org/2000/svg">
<path fill-rule="evenodd" clip-rule="evenodd" d="M4.77835 10.2305C4.74239 10.7209 4.73546 11.1697 4.78816 11.621C5.16355 14.8356 7.59916 17.3261 11.0354 17.4956C11.4347 17.5153 11.7484 17.8449 11.7484 18.2447V20.131C15.5441 18.9965 18.7919 15.584 19.215 11.6282C19.2638 11.1719 19.2573 10.7193 19.2215 10.2305C18.8359 6.60847 15.7523 3.78027 11.9999 3.78027C8.24755 3.78027 5.16395 6.60848 4.77835 10.2305ZM3.28534 10.0853C3.74567 5.69586 7.47416 2.28027 11.9999 2.28027C16.5257 2.28027 20.2542 5.69586 20.7145 10.0853C20.7153 10.0929 20.716 10.1005 20.7166 10.1081C20.757 10.6541 20.7686 11.2073 20.7065 11.7878C20.1945 16.5739 16.2332 20.5227 11.7769 21.6801C10.9727 21.889 10.2484 21.2622 10.2484 20.487V18.9299C6.41729 18.4286 3.72784 15.4734 3.29829 11.795C3.22991 11.2094 3.2429 10.653 3.2833 10.108C3.28387 10.1004 3.28455 10.0928 3.28534 10.0853Z" fill="black"/>
<path fill-rule="evenodd" clip-rule="evenodd" d="M9.25 8.67334C9.66421 8.67334 10 9.00913 10 9.42334V11.9233C10 12.3376 9.66421 12.6733 9.25 12.6733C8.83579 12.6733 8.5 12.3376 8.5 11.9233V9.42334C8.5 9.00913 8.83579 8.67334 9.25 8.67334ZM14.75 8.67334C15.1642 8.67334 15.5 9.00913 15.5 9.42334V11.9233C15.5 12.3376 15.1642 12.6733 14.75 12.6733C14.3358 12.6733 14 12.3376 14 11.9233V9.42334C14 9.00913 14.3358 8.67334 14.75 8.67334Z" fill="black"/>
</svg>
