<svg width="24" height="24" viewBox="0 0 24 24" fill="none" xmlns="http://www.w3.org/2000/svg">
<path d="M14.4963 12.0449C13.9263 12.0449 13.4663 11.5849 13.4663 11.0149C13.4663 10.4449 13.9263 9.98486 14.4963 9.98486C15.0663 9.98486 15.5363 10.4449 15.5363 11.0149C15.5363 11.5849 15.0763 12.0449 14.4963 12.0449Z" fill="black"/>
<path d="M9.58615 12.0449C9.01615 12.0449 8.55615 11.5849 8.55615 11.0149C8.55615 10.4449 9.01615 9.98486 9.58615 9.98486C10.1562 9.98486 10.6262 10.4449 10.6262 11.0149C10.6262 11.5849 10.1662 12.0449 9.58615 12.0449Z" fill="black"/>
<path d="M17.387 8.70506C17.267 8.70506 17.1369 8.67507 17.0269 8.61507C16.7869 8.48507 14.7169 7.32507 14.1669 5.61507C13.7269 4.22507 14.3769 2.81506 15.6669 2.39506C16.2369 2.21506 16.857 2.25507 17.387 2.49507C17.9169 2.25507 18.527 2.21506 19.097 2.39506C20.397 2.81506 21.047 4.22507 20.607 5.61507C20.077 7.30507 17.987 8.48507 17.747 8.61507C17.637 8.67507 17.5069 8.70506 17.387 8.70506ZM15.597 5.15506C15.847 5.93506 16.787 6.68506 17.387 7.07506C17.997 6.67506 18.9369 5.92506 19.1769 5.15506C19.3469 4.64506 19.2069 4.00506 18.6469 3.82506C18.3769 3.74506 18.0669 3.79506 17.8369 3.96506C17.5669 4.16506 17.207 4.16506 16.937 3.96506C16.707 3.79506 16.397 3.74506 16.127 3.82506C15.567 4.00506 15.437 4.64506 15.597 5.15506Z" fill="black"/>
<path d="M11.4668 21.7149C11.2068 21.7149 10.9468 21.6249 10.7268 21.4649C10.4268 21.2249 10.2468 20.8749 10.2468 20.4849V18.9249C6.55683 18.4349 3.73683 15.5849 3.29683 11.7949C3.23683 11.2949 3.23682 10.7749 3.28682 10.1049C3.75682 5.6349 7.50682 2.2749 12.0068 2.2749C12.4168 2.2749 12.7568 2.6149 12.7568 3.0249C12.7568 3.4349 12.4168 3.7749 12.0068 3.7749C8.27682 3.7749 5.16682 6.55489 4.78682 10.2349C4.74682 10.7749 4.74683 11.2049 4.79683 11.6149C5.18683 14.9649 7.69683 17.3249 11.0468 17.4949C11.4468 17.5149 11.7568 17.8449 11.7568 18.2449V20.1349C15.7068 18.9549 18.8168 15.4349 19.2268 11.6349C19.2668 11.2149 19.2768 10.7849 19.2268 10.2249C19.1968 9.8149 19.5068 9.4549 19.9168 9.4249C20.3268 9.3949 20.6868 9.7049 20.7168 10.1149C20.7668 10.7549 20.7568 11.2849 20.7068 11.7949C20.2268 16.3049 16.4668 20.4649 11.7768 21.6849C11.6768 21.7149 11.5668 21.7249 11.4668 21.7249V21.7149Z" fill="black"/>
</svg>
