<svg width="24" height="24" viewBox="0 0 24 24" fill="none" xmlns="http://www.w3.org/2000/svg">
<path d="M11.9963 14.8802C11.9263 14.8802 11.8463 14.8702 11.7763 14.8502C11.6363 14.8102 8.29629 13.7602 8.29629 10.7802C8.29629 10.0202 8.2963 9.51016 8.2763 9.15016C8.2563 8.28016 8.25631 8.02016 8.63631 7.63016C9.06631 7.20016 11.4763 6.41016 11.9863 6.41016C12.4963 6.41016 14.9063 7.20016 15.3363 7.63016C15.7263 8.02016 15.7163 8.28016 15.7063 9.16016C15.7063 9.52016 15.6863 10.0302 15.6863 10.7802C15.6863 13.7602 12.3463 14.8102 12.2063 14.8502C12.1363 14.8702 12.0663 14.8802 11.9863 14.8802H11.9963ZM9.7763 8.67017C9.7763 8.77017 9.7763 8.92016 9.7763 9.12016C9.7763 9.48016 9.79629 10.0102 9.79629 10.7802C9.79629 12.3102 11.3963 13.1002 11.9963 13.3402C12.5863 13.1002 14.1963 12.3102 14.1963 10.7802C14.1963 10.0102 14.2063 9.49016 14.2163 9.13016C14.2163 8.92016 14.2163 8.78017 14.2163 8.67017C13.7863 8.46017 12.3063 7.95016 11.9663 7.91016C11.6863 7.95016 10.2663 8.44016 9.76629 8.68016L9.7763 8.67017Z" fill="black"/>
<path d="M11.4663 21.7198C11.2063 21.7198 10.9463 21.6298 10.7263 21.4698C10.4263 21.2298 10.2463 20.8798 10.2463 20.4898V18.9298C6.55634 18.4398 3.73632 15.5898 3.29632 11.7998C3.23632 11.2998 3.23635 10.7798 3.28635 10.1098C3.75635 5.63979 7.50635 2.27979 12.0063 2.27979C16.5063 2.27979 20.2563 5.62979 20.7163 10.0798C20.7663 10.7398 20.7563 11.2698 20.7163 11.7798C20.2363 16.2898 16.4763 20.4498 11.7863 21.6698C11.6863 21.6998 11.5763 21.7098 11.4763 21.7098L11.4663 21.7198ZM11.9963 3.77979C8.26634 3.77979 5.15634 6.55978 4.77634 10.2398C4.73634 10.7798 4.73635 11.2098 4.78635 11.6198C5.17634 14.9698 7.68635 17.3298 11.0363 17.4898C11.4363 17.5098 11.7463 17.8398 11.7463 18.2398V20.1298C15.6963 18.9498 18.8063 15.4298 19.2163 11.6298C19.2563 11.2098 19.2663 10.7698 19.2163 10.2198C18.8363 6.55979 15.7263 3.77979 11.9963 3.77979Z" fill="black"/>
</svg>
