<svg width="24" height="24" viewBox="0 0 24 24" fill="none" xmlns="http://www.w3.org/2000/svg">
<path fill-rule="evenodd" clip-rule="evenodd" d="M12.5219 6.93744C12.8148 6.64455 13.2897 6.64455 13.5826 6.93744L15.778 9.13289C15.9187 9.27354 15.9977 9.46431 15.9977 9.66322C15.9977 9.86213 15.9187 10.0529 15.778 10.1935L13.5826 12.389C13.2897 12.6819 12.8148 12.6819 12.5219 12.389C12.229 12.0961 12.229 11.6212 12.5219 11.3283L14.187 9.66322L12.5219 7.9981C12.229 7.70521 12.229 7.23034 12.5219 6.93744Z" fill="black"/>
<path fill-rule="evenodd" clip-rule="evenodd" d="M7.90137 12.5653C7.90137 10.5483 9.53654 8.91309 11.5536 8.91309H15.2476C15.6618 8.91309 15.9976 9.24887 15.9976 9.66309C15.9976 10.0773 15.6618 10.4131 15.2476 10.4131H11.5536C10.365 10.4131 9.40137 11.3767 9.40137 12.5653C9.40137 13.754 10.365 14.7176 11.5536 14.7176H15.2476C15.6618 14.7176 15.9976 15.0534 15.9976 15.4676C15.9976 15.8818 15.6618 16.2176 15.2476 16.2176H11.5536C9.53654 16.2176 7.90137 14.5824 7.90137 12.5653Z" fill="black"/>
<path fill-rule="evenodd" clip-rule="evenodd" d="M12 3.75C7.44365 3.75 3.75 7.44365 3.75 12C3.75 13.9706 4.43995 15.778 5.59213 17.1968C5.94678 17.6335 5.99069 18.2789 5.62759 18.7606L4.56516 20.1699C4.55882 20.1783 4.5564 20.1839 4.55543 20.1865C4.55439 20.1893 4.55389 20.1917 4.55371 20.1943C4.5533 20.2001 4.55437 20.2104 4.56033 20.2223C4.56629 20.2343 4.57382 20.2413 4.5787 20.2444C4.58089 20.2459 4.58314 20.2469 4.58598 20.2478C4.58864 20.2486 4.59456 20.25 4.60508 20.25H12C16.5563 20.25 20.25 16.5563 20.25 12C20.25 7.44365 16.5563 3.75 12 3.75ZM2.25 12C2.25 6.61522 6.61522 2.25 12 2.25C17.3848 2.25 21.75 6.61522 21.75 12C21.75 17.3848 17.3848 21.75 12 21.75H4.60508C3.32606 21.75 2.59744 20.2883 3.36737 19.267L4.31845 18.0053C3.02281 16.3502 2.25 14.2644 2.25 12Z" fill="black"/>
</svg>
