<svg width="24" height="24" viewBox="0 0 24 24" fill="none" xmlns="http://www.w3.org/2000/svg">
<path fill-rule="evenodd" clip-rule="evenodd" d="M16.4399 9.27974C16.7673 9.53344 16.8271 10.0045 16.5734 10.332L14.0756 13.5556C13.9533 13.7135 13.773 13.816 13.5748 13.8405C13.3765 13.865 13.1767 13.8095 13.0196 13.6861L10.7041 11.8682L8.61373 14.585C8.36114 14.9132 7.89025 14.9746 7.56196 14.722C7.23368 14.4694 7.17232 13.9985 7.42492 13.6702L9.97714 10.3532C10.0992 10.1946 10.2796 10.0913 10.4783 10.0664C10.6769 10.0415 10.8772 10.0971 11.0347 10.2207L13.3522 12.0402L15.3877 9.41322C15.6414 9.0858 16.1125 9.02603 16.4399 9.27974Z" fill="black"/>
<path fill-rule="evenodd" clip-rule="evenodd" d="M2.25 12C2.25 6.61522 6.61522 2.25 12 2.25C17.3848 2.25 21.75 6.61522 21.75 12C21.75 17.3848 17.3848 21.75 12 21.75H4C3.0335 21.75 2.25 20.9665 2.25 20V12ZM12 3.75C7.44365 3.75 3.75 7.44365 3.75 12V20C3.75 20.1381 3.86193 20.25 4 20.25H12C16.5563 20.25 20.25 16.5563 20.25 12C20.25 7.44365 16.5563 3.75 12 3.75Z" fill="black"/>
</svg>
