<svg width="24" height="24" viewBox="0 0 24 24" fill="none" xmlns="http://www.w3.org/2000/svg">
<path fill-rule="evenodd" clip-rule="evenodd" d="M9.36108 13.1392C9.7753 13.1392 10.1111 13.4749 10.1111 13.8892V16.5003C10.1111 16.9145 9.7753 17.2503 9.36108 17.2503C8.94687 17.2503 8.61108 16.9145 8.61108 16.5003V13.8892C8.61108 13.4749 8.94687 13.1392 9.36108 13.1392Z" fill="black"/>
<path fill-rule="evenodd" clip-rule="evenodd" d="M8.9354 9.63916C8.89147 9.63916 8.86108 9.67363 8.86108 9.71034V13.0675C8.86108 13.1048 8.89214 13.1392 8.9354 13.1392H9.7862C9.83032 13.1392 9.86105 13.1045 9.86105 13.0675V9.71034C9.86105 9.67395 9.83099 9.63916 9.7862 9.63916H8.9354ZM7.36108 9.71034C7.36108 8.83918 8.06907 8.13916 8.9354 8.13916H9.7862C10.6527 8.13916 11.3611 8.83886 11.3611 9.71034V13.0675C11.3611 13.9382 10.6534 14.6392 9.7862 14.6392H8.9354C8.06839 14.6392 7.36108 13.9379 7.36108 13.0675V9.71034Z" fill="black"/>
<path fill-rule="evenodd" clip-rule="evenodd" d="M9.36108 6.75C9.7753 6.75 10.1111 7.08579 10.1111 7.5V8.88889C10.1111 9.3031 9.7753 9.63889 9.36108 9.63889C8.94687 9.63889 8.61108 9.3031 8.61108 8.88889V7.5C8.61108 7.08579 8.94687 6.75 9.36108 6.75Z" fill="black"/>
<path fill-rule="evenodd" clip-rule="evenodd" d="M14.6389 14.3613C15.0531 14.3613 15.3889 14.6971 15.3889 15.1113V16.5002C15.3889 16.9144 15.0531 17.2502 14.6389 17.2502C14.2247 17.2502 13.8889 16.9144 13.8889 16.5002V15.1113C13.8889 14.6971 14.2247 14.3613 14.6389 14.3613Z" fill="black"/>
<path fill-rule="evenodd" clip-rule="evenodd" d="M14.2132 10.8613C14.1693 10.8613 14.1389 10.8958 14.1389 10.9325V14.2896C14.1389 14.327 14.17 14.3614 14.2132 14.3614H15.064C15.1081 14.3614 15.1389 14.3267 15.1389 14.2896V10.9325C15.1389 10.8961 15.1088 10.8613 15.064 10.8613H14.2132ZM12.6389 10.9325C12.6389 10.0614 13.3469 9.36133 14.2132 9.36133H15.064C15.9306 9.36133 16.6389 10.0611 16.6389 10.9325V14.2896C16.6389 15.1604 15.9313 15.8614 15.064 15.8614H14.2132C13.3462 15.8614 12.6389 15.1601 12.6389 14.2896V10.9325Z" fill="black"/>
<path fill-rule="evenodd" clip-rule="evenodd" d="M14.6389 6.75C15.0531 6.75 15.3889 7.08579 15.3889 7.5V10.1111C15.3889 10.5253 15.0531 10.8611 14.6389 10.8611C14.2247 10.8611 13.8889 10.5253 13.8889 10.1111V7.5C13.8889 7.08579 14.2247 6.75 14.6389 6.75Z" fill="black"/>
<path fill-rule="evenodd" clip-rule="evenodd" d="M2.25 12C2.25 6.61522 6.61522 2.25 12 2.25C17.3848 2.25 21.75 6.61522 21.75 12C21.75 17.3848 17.3848 21.75 12 21.75H4C3.0335 21.75 2.25 20.9665 2.25 20V12ZM12 3.75C7.44365 3.75 3.75 7.44365 3.75 12V20C3.75 20.1381 3.86193 20.25 4 20.25H12C16.5563 20.25 20.25 16.5563 20.25 12C20.25 7.44365 16.5563 3.75 12 3.75Z" fill="black"/>
</svg>
