<svg width="24" height="24" viewBox="0 0 24 24" fill="none" xmlns="http://www.w3.org/2000/svg">
<path fill-rule="evenodd" clip-rule="evenodd" d="M7.75 11.315C7.75 8.9673 9.6527 7.06445 12 7.06445C14.3473 7.06445 16.25 8.9673 16.25 11.315C16.25 12.8344 15.3698 14.2263 14.5208 15.1822C14.0851 15.6728 13.6269 16.0836 13.2291 16.3778C13.031 16.5243 12.8366 16.6502 12.6583 16.7433C12.5162 16.8174 12.2675 16.9355 12 16.9355C11.7325 16.9355 11.4838 16.8174 11.3417 16.7433C11.1634 16.6502 10.969 16.5243 10.7709 16.3778C10.373 16.0836 9.91481 15.6728 9.47916 15.1822C8.63012 14.2263 7.75 12.8344 7.75 11.315ZM12 8.56445C10.4813 8.56445 9.25 9.79558 9.25 11.315C9.25 12.2861 9.83977 13.3294 10.6007 14.1861C10.97 14.602 11.3517 14.9418 11.6627 15.1717C11.7992 15.2726 11.9135 15.346 12 15.3942C12.0865 15.346 12.2008 15.2726 12.3373 15.1717C12.6482 14.9418 13.03 14.602 13.3993 14.1861C14.1602 13.3294 14.75 12.286 14.75 11.315C14.75 9.79558 13.5187 8.56445 12 8.56445ZM11.8853 15.4498C11.8853 15.4498 11.886 15.4495 11.8875 15.4491C11.886 15.4496 11.8852 15.4498 11.8853 15.4498ZM12.1124 15.449C12.1139 15.4495 12.1147 15.4498 12.1147 15.4498C12.1147 15.4498 12.114 15.4496 12.1124 15.449Z" fill="black"/>
<path fill-rule="evenodd" clip-rule="evenodd" d="M12 3.75C7.44365 3.75 3.75 7.44365 3.75 12C3.75 13.9706 4.43995 15.778 5.59213 17.1968C5.94678 17.6335 5.99069 18.2789 5.62759 18.7606L4.56516 20.1699C4.55882 20.1783 4.5564 20.1839 4.55543 20.1865C4.55439 20.1893 4.55389 20.1917 4.55371 20.1943C4.5533 20.2001 4.55437 20.2104 4.56033 20.2223C4.56629 20.2343 4.57382 20.2413 4.5787 20.2444C4.58089 20.2459 4.58314 20.2469 4.58598 20.2478C4.58864 20.2486 4.59456 20.25 4.60508 20.25H12C16.5563 20.25 20.25 16.5563 20.25 12C20.25 7.44365 16.5563 3.75 12 3.75ZM2.25 12C2.25 6.61522 6.61522 2.25 12 2.25C17.3848 2.25 21.75 6.61522 21.75 12C21.75 17.3848 17.3848 21.75 12 21.75H4.60508C3.32606 21.75 2.59744 20.2883 3.36737 19.267L4.31845 18.0053C3.02281 16.3502 2.25 14.2644 2.25 12Z" fill="black"/>
</svg>
