<svg width="24" height="24" viewBox="0 0 24 24" fill="none" xmlns="http://www.w3.org/2000/svg">
<path fill-rule="evenodd" clip-rule="evenodd" d="M2.25 12C2.25 6.61522 6.61522 2.25 12 2.25C17.3849 2.25 21.7501 6.6153 21.7501 12.0001C21.7501 12.4144 21.4144 12.7501 21.0001 12.7501C20.5859 12.7501 20.2501 12.4144 20.2501 12.0001C20.2501 7.44372 16.5564 3.75 12 3.75C7.44365 3.75 3.75 7.44365 3.75 12C3.75 13.3031 4.05159 14.5337 4.58808 15.6276L4.59073 15.633L4.59071 15.633C4.94159 16.3632 4.93165 17.1009 4.82696 17.7439C4.76077 18.1503 4.63761 18.5991 4.53175 18.9849C4.48289 19.1629 4.43773 19.3275 4.40354 19.4683L4.40196 19.4748L4.40193 19.4748L4.40188 19.475C4.40144 19.4767 4.40017 19.4816 4.40429 19.4945C4.40936 19.5103 4.42174 19.5334 4.44425 19.5559C4.46677 19.5784 4.48987 19.5908 4.5057 19.5959C4.51853 19.6 4.52344 19.5987 4.52516 19.5983L4.52532 19.5982C4.65979 19.5643 4.81238 19.5217 4.97611 19.476C5.37081 19.3658 5.83031 19.2376 6.25715 19.169C6.90185 19.0654 7.6383 19.0592 8.36715 19.4094L8.37259 19.4121L8.37258 19.4121C9.46649 19.9486 10.697 20.2501 12.0001 20.2501C12.4144 20.2501 12.7501 20.5859 12.7501 21.0001C12.7501 21.4144 12.4144 21.7501 12.0001 21.7501C10.4643 21.7501 9.00934 21.3945 7.71514 20.7603C7.36811 20.5943 6.9775 20.5725 6.49516 20.65C6.15223 20.7051 5.83711 20.7935 5.48677 20.8919C5.30155 20.9439 5.10648 20.9986 4.89226 21.0526C4.29616 21.203 3.73877 20.9717 3.38359 20.6166C3.02914 20.2621 2.79806 19.7063 2.94658 19.1116C3.00388 18.8758 3.06203 18.6661 3.11694 18.4682C3.20907 18.1361 3.29204 17.837 3.34646 17.5028C3.42529 17.0187 3.40467 16.6297 3.23984 16.285C2.60567 14.9908 2.25 13.5359 2.25 12Z" fill="black"/>
<path fill-rule="evenodd" clip-rule="evenodd" d="M17.4028 12.4697C17.1099 12.1768 16.6351 12.1768 16.3422 12.4697L12.4696 16.3422C12.1767 16.6351 12.1767 17.11 12.4696 17.4029C12.7625 17.6958 13.2374 17.6958 13.5303 17.4029L13.5413 17.3919L15.3741 19.2247L15.5259 20.5737C15.5449 20.7425 15.6207 20.8999 15.7409 21.0201L16.1886 21.4679C16.3293 21.6086 16.5201 21.6876 16.719 21.6876C16.9179 21.6876 17.1087 21.6086 17.2493 21.4679L18.8283 19.889L20.4697 21.5303C20.7626 21.8232 21.2374 21.8232 21.5303 21.5303C21.8232 21.2374 21.8232 20.7626 21.5303 20.4697L19.889 18.8283L21.4679 17.2494C21.7608 16.9565 21.7608 16.4817 21.4679 16.1888L21.0201 15.7409C20.9 15.6208 20.7425 15.5449 20.5736 15.5259L19.2246 15.3742L17.3918 13.5414L17.4028 13.5303C17.6957 13.2374 17.6957 12.7626 17.4028 12.4697ZM16.3311 14.602L18.3496 16.6204C18.4697 16.7406 18.6271 16.8164 18.796 16.8354L19.663 16.9329L18.4236 18.1724C18.3735 18.2029 18.3263 18.2397 18.283 18.283C18.2398 18.3263 18.2029 18.3735 18.1724 18.4236L16.9329 19.663L16.8353 18.7961C16.8163 18.6272 16.7405 18.4698 16.6204 18.3496L14.602 16.3312L16.3311 14.602Z" fill="black"/>
<path fill-rule="evenodd" clip-rule="evenodd" d="M7.17181 9.31445C7.17181 8.90024 7.5076 8.56445 7.92181 8.56445H13.3139C13.7281 8.56445 14.0639 8.90024 14.0639 9.31445C14.0639 9.72867 13.7281 10.0645 13.3139 10.0645H7.92181C7.5076 10.0645 7.17181 9.72867 7.17181 9.31445ZM7.12598 13.1918C7.12598 12.7776 7.46176 12.4418 7.87598 12.4418H10.7936C11.2078 12.4418 11.5436 12.7776 11.5436 13.1918C11.5436 13.6061 11.2078 13.9418 10.7936 13.9418H7.87598C7.46176 13.9418 7.12598 13.6061 7.12598 13.1918Z" fill="black"/>
</svg>
