<svg width="24" height="24" viewBox="0 0 24 24" fill="none" xmlns="http://www.w3.org/2000/svg">
<path d="M15.0401 15.7297C14.1901 15.7297 13.3501 15.3198 12.8601 14.6198C12.3201 13.8498 12.1901 12.7996 12.5001 11.6696C12.8501 10.3896 13.6301 9.2497 14.7101 8.4797C15.0501 8.2397 15.5201 8.31987 15.7601 8.64987C16.0001 8.98987 15.9301 9.45967 15.5901 9.69967C15.3101 9.89967 15.0601 10.1399 14.8301 10.3999C14.9001 10.3799 14.9701 10.3698 15.0401 10.3798C15.7601 10.4098 16.4601 10.7398 16.9601 11.2898C17.5801 11.9798 17.7901 12.9398 17.5201 13.8498C17.2601 14.7298 16.5901 15.3999 15.7201 15.6399C15.5001 15.6999 15.2701 15.7297 15.0401 15.7297ZM14.2701 11.2397C14.1301 11.4997 14.0201 11.7798 13.9501 12.0698C13.8601 12.3898 13.7001 13.1997 14.0901 13.7597C14.3501 14.1297 14.8801 14.3197 15.3201 14.1997C15.6901 14.0997 15.9601 13.8197 16.0801 13.4297C16.2001 13.0197 16.1101 12.5998 15.8401 12.2898C15.6201 12.0498 15.3001 11.8898 14.9901 11.8798C14.6201 11.8698 14.3301 11.5897 14.2801 11.2397H14.2701Z" fill="black"/>
<path d="M9.08012 15.7297C8.23012 15.7297 7.39013 15.3198 6.90013 14.6198C6.36013 13.8498 6.23015 12.7996 6.54015 11.6696C6.89015 10.3896 7.67014 9.2497 8.75014 8.4797C9.09014 8.2397 9.56013 8.31987 9.80013 8.64987C10.0401 8.97987 9.97014 9.45967 9.63014 9.69967C9.35014 9.89967 9.10013 10.1399 8.87013 10.3999C8.94013 10.3799 9.01012 10.3698 9.08012 10.3798C9.80012 10.4098 10.5001 10.7398 11.0001 11.2898C11.6201 11.9798 11.8301 12.9398 11.5601 13.8498C11.3001 14.7298 10.6301 15.3999 9.76015 15.6399C9.54015 15.6999 9.31012 15.7297 9.08012 15.7297ZM8.31014 11.2397C8.17014 11.4997 8.06013 11.7798 7.99013 12.0698C7.90013 12.3898 7.74014 13.2097 8.13014 13.7597C8.39014 14.1297 8.92012 14.3197 9.36012 14.1997C9.73012 14.0997 10.0001 13.8197 10.1201 13.4297C10.2401 13.0197 10.1501 12.5998 9.88014 12.2898C9.66014 12.0498 9.34014 11.8898 9.03014 11.8798C8.66014 11.8698 8.37015 11.5897 8.32015 11.2397H8.31014Z" fill="black"/>
<path d="M12 21.7202H4C3.04 21.7202 2.25 20.9302 2.25 19.9702V12.0002C2.25 6.64024 6.62 2.28027 12 2.28027C17.38 2.28027 21.75 6.64024 21.75 12.0002C21.75 17.3602 17.38 21.7202 12 21.7202ZM12 3.78027C7.45 3.78027 3.75 7.47024 3.75 12.0002V19.9702C3.75 20.1102 3.86 20.2202 4 20.2202H12C16.55 20.2202 20.25 16.5302 20.25 12.0002C20.25 7.47024 16.55 3.78027 12 3.78027Z" fill="black"/>
</svg>
