<svg width="24" height="24" viewBox="0 0 24 24" fill="none" xmlns="http://www.w3.org/2000/svg">
<path fill-rule="evenodd" clip-rule="evenodd" d="M11.6135 7.74139C11.7161 7.71889 11.8637 7.68994 12.0013 7.68994C12.1388 7.68994 12.2862 7.71878 12.3888 7.74124C12.509 7.76755 12.6461 7.80344 12.7893 7.84428C13.0766 7.92627 13.4161 8.03623 13.7464 8.15254C14.0762 8.26867 14.4077 8.39491 14.6778 8.51073C14.8121 8.56828 14.9403 8.62718 15.0493 8.68425C15.1307 8.72686 15.2891 8.8119 15.4105 8.9342C15.4133 8.9371 15.4165 8.94026 15.4199 8.94369C15.4808 9.00446 15.6242 9.14771 15.7064 9.37537C15.7786 9.57522 15.784 9.78494 15.7855 9.94264C15.7867 10.0784 15.7832 10.2592 15.7786 10.4896C15.7773 10.5581 15.7758 10.6309 15.7744 10.7081C15.768 11.0544 15.7613 11.5156 15.7613 12.1377C15.7613 13.7349 14.7949 14.7884 13.9446 15.4008C13.5149 15.7103 13.09 15.9271 12.7748 16.0664C12.6162 16.1365 12.4825 16.1883 12.3862 16.2232C12.338 16.2406 12.299 16.254 12.2706 16.2634L12.2361 16.2745L12.2252 16.2779L12.2214 16.2791L12.2199 16.2796L12.2193 16.2798C12.219 16.2799 12.2187 16.2799 12.0013 15.5621C11.7839 16.2799 11.7836 16.2799 11.7834 16.2798L11.7827 16.2796L11.7812 16.2791L11.7774 16.2779L11.7665 16.2745L11.732 16.2634C11.7037 16.254 11.6646 16.2406 11.6164 16.2232C11.5201 16.1883 11.3865 16.1365 11.2278 16.0664C10.9126 15.9271 10.4877 15.7103 10.058 15.4008C9.20772 14.7884 8.24133 13.7349 8.24133 12.1377C8.24133 11.5156 8.23459 11.0543 8.2282 10.7079C8.22676 10.6296 8.2253 10.5559 8.22393 10.4866C8.21939 10.2574 8.21582 10.0774 8.21704 9.9422C8.21845 9.78477 8.22366 9.5751 8.29544 9.37553C8.37777 9.14665 8.52179 9.00329 8.58293 8.94243C8.58629 8.93908 8.5894 8.93599 8.59224 8.93314L8.5933 8.93207L8.5933 8.93207C8.71428 8.8111 8.87212 8.7267 8.95328 8.68434C9.062 8.62758 9.1901 8.56887 9.32425 8.51142C9.59423 8.3958 9.92569 8.26956 10.2556 8.15332C10.5859 8.03693 10.9255 7.92678 11.2129 7.84465C11.3561 7.80372 11.4932 7.76776 11.6135 7.74139ZM12.0013 15.5621L11.7839 16.2799C11.9257 16.3229 12.0769 16.3229 12.2187 16.2799L12.0013 15.5621ZM12.0013 14.7648C12.0506 14.7451 12.1068 14.7217 12.1684 14.6945C12.4176 14.5843 12.7452 14.4162 13.068 14.1837C13.7227 13.7121 14.2613 13.0534 14.2613 12.1377C14.2613 11.5039 14.2682 11.0332 14.2747 10.6805C14.2763 10.5919 14.2779 10.5122 14.2793 10.4401C14.2833 10.2326 14.2862 10.0885 14.2857 9.97915C14.2319 9.95323 14.1654 9.92309 14.0867 9.88934C13.8565 9.79065 13.558 9.67648 13.2482 9.5674C12.9389 9.45849 12.6291 9.35844 12.3777 9.28672C12.2515 9.25071 12.1469 9.22381 12.0681 9.20656C12.0375 9.19986 12.0157 9.19574 12.0014 9.19324C11.9871 9.19574 11.9654 9.19987 11.9348 9.20657C11.856 9.22386 11.7513 9.25082 11.6251 9.2869C11.3736 9.35877 11.0636 9.45901 10.7541 9.56807C10.4441 9.67729 10.1453 9.79158 9.91477 9.89029C9.83666 9.92374 9.77051 9.95366 9.71682 9.97944C9.71639 10.0883 9.71921 10.2315 9.72326 10.4367C9.7247 10.5096 9.72629 10.5904 9.72795 10.6802C9.73445 11.0331 9.74133 11.5039 9.74133 12.1377C9.74133 13.0534 10.2799 13.7121 10.9347 14.1837C11.2574 14.4162 11.585 14.5843 11.8342 14.6945C11.8958 14.7217 11.952 14.7451 12.0013 14.7648Z" fill="black"/>
<path fill-rule="evenodd" clip-rule="evenodd" d="M2.25 12C2.25 6.61522 6.61522 2.25 12 2.25C17.3849 2.25 21.7501 6.6153 21.7501 12.0001C21.7501 17.3849 17.3849 21.7501 12.0001 21.7501C10.4643 21.7501 9.00934 21.3945 7.71514 20.7603C7.36811 20.5943 6.9775 20.5725 6.49516 20.65C6.15223 20.7051 5.83711 20.7935 5.48677 20.8919C5.30155 20.9439 5.10648 20.9986 4.89226 21.0526C4.29616 21.203 3.73877 20.9717 3.38359 20.6166C3.02914 20.2621 2.79806 19.7063 2.94658 19.1116C3.00388 18.8758 3.06203 18.6661 3.11694 18.4682C3.20907 18.1361 3.29204 17.837 3.34646 17.5028C3.42529 17.0187 3.40467 16.6297 3.23984 16.285C2.60567 14.9908 2.25 13.5359 2.25 12ZM12 3.75C7.44365 3.75 3.75 7.44365 3.75 12C3.75 13.3031 4.05159 14.5337 4.58808 15.6276L4.59073 15.633L4.59071 15.633C4.94159 16.3632 4.93165 17.1009 4.82696 17.7439C4.76077 18.1503 4.63761 18.5991 4.53175 18.9849C4.48289 19.1629 4.43773 19.3275 4.40354 19.4683L4.40196 19.4748L4.40193 19.4748L4.40188 19.475C4.40144 19.4767 4.40017 19.4816 4.40429 19.4945C4.40936 19.5103 4.42174 19.5334 4.44425 19.5559C4.46677 19.5784 4.48987 19.5908 4.5057 19.5959C4.51853 19.6 4.52344 19.5987 4.52516 19.5983L4.52532 19.5982C4.65979 19.5643 4.81238 19.5217 4.97611 19.476C5.37081 19.3658 5.83031 19.2376 6.25715 19.169C6.90185 19.0654 7.6383 19.0592 8.36715 19.4094L8.37259 19.4121L8.37258 19.4121C9.46649 19.9486 10.697 20.2501 12.0001 20.2501C16.5565 20.2501 20.2501 16.5565 20.2501 12.0001C20.2501 7.44372 16.5564 3.75 12 3.75Z" fill="black"/>
</svg>
