<svg width="24" height="24" viewBox="0 0 24 24" fill="none" xmlns="http://www.w3.org/2000/svg">
<path fill-rule="evenodd" clip-rule="evenodd" d="M15.3412 8.44029C15.5136 8.53953 15.6396 8.70322 15.6913 8.89533L16.3033 11.1682C16.411 11.5682 16.1741 11.9797 15.7741 12.0874C15.3741 12.1951 14.9626 11.9582 14.8549 11.5582L14.714 11.0349L12.9902 14.0323C12.7837 14.3914 12.3252 14.5151 11.9661 14.3086L10.2119 13.2998L9.07091 15.2837C8.8644 15.6427 8.40591 15.7664 8.04685 15.5599C7.68779 15.3534 7.56413 14.8949 7.77065 14.5358L9.28557 11.9019C9.49207 11.5429 9.95053 11.4192 10.3096 11.6257L12.0637 12.6344L13.4144 10.2858L12.8895 10.4274C12.4895 10.5352 12.0779 10.2984 11.9701 9.8985C11.8622 9.49857 12.099 9.08694 12.4989 8.9791L14.7718 8.3662C14.9639 8.3144 15.1687 8.34105 15.3412 8.44029Z" fill="black"/>
<path fill-rule="evenodd" clip-rule="evenodd" d="M12 3.75C7.44365 3.75 3.75 7.44365 3.75 12C3.75 13.9706 4.43995 15.778 5.59213 17.1968C5.94678 17.6335 5.99069 18.2789 5.62759 18.7606L4.56516 20.1699C4.55882 20.1783 4.5564 20.1839 4.55543 20.1865C4.55439 20.1893 4.55389 20.1917 4.55371 20.1943C4.5533 20.2001 4.55437 20.2104 4.56033 20.2223C4.56629 20.2343 4.57382 20.2413 4.5787 20.2444C4.58089 20.2459 4.58314 20.2469 4.58598 20.2478C4.58864 20.2486 4.59456 20.25 4.60508 20.25H12C16.5563 20.25 20.25 16.5563 20.25 12C20.25 7.44365 16.5563 3.75 12 3.75ZM2.25 12C2.25 6.61522 6.61522 2.25 12 2.25C17.3848 2.25 21.75 6.61522 21.75 12C21.75 17.3848 17.3848 21.75 12 21.75H4.60508C3.32606 21.75 2.59744 20.2883 3.36737 19.267L4.31845 18.0053C3.02281 16.3502 2.25 14.2644 2.25 12Z" fill="black"/>
</svg>
