<svg width="24" height="24" viewBox="0 0 24 24" fill="none" xmlns="http://www.w3.org/2000/svg">
<path d="M11.4663 21.7249C11.1963 21.7249 10.9363 21.6349 10.7263 21.4649C10.4263 21.2249 10.2463 20.8749 10.2463 20.4849V18.9249C6.55634 18.4349 3.73632 15.5849 3.29632 11.7949C3.23632 11.2949 3.23635 10.7749 3.28635 10.1049C3.75635 5.63492 7.50635 2.2749 12.0063 2.2749C16.5063 2.2749 20.2563 5.62489 20.7163 10.0749C20.7663 10.7349 20.7563 11.2649 20.7163 11.7749C20.2363 16.2949 16.4763 20.4549 11.7863 21.6649C11.6863 21.6949 11.5763 21.7049 11.4763 21.7049L11.4663 21.7249ZM11.9963 3.78491C8.26634 3.78491 5.15634 6.5649 4.77634 10.2449C4.73634 10.7849 4.73635 11.2149 4.78635 11.6249C5.17634 14.9749 7.68635 17.3349 11.0363 17.5049C11.4363 17.5249 11.7463 17.8549 11.7463 18.2549V20.1449C15.6963 18.9649 18.8063 15.4449 19.2163 11.6449C19.2563 11.2249 19.2663 10.7849 19.2163 10.2349C18.8363 6.57489 15.7263 3.79489 11.9963 3.79489V3.78491Z" fill="black"/>
<path d="M9.08594 14.3048C8.85594 14.3048 8.62596 14.1948 8.47596 13.9948C8.23596 13.6548 8.31594 13.1848 8.64594 12.9448C8.85594 12.7948 9.05594 12.6148 9.23594 12.4248C9.21594 12.4248 9.19594 12.4248 9.17594 12.4248C8.48594 12.3948 7.83595 12.0848 7.37595 11.5648C6.79595 10.9048 6.59595 10.0048 6.84595 9.1448C7.09595 8.3148 7.72593 7.6848 8.54593 7.4548C9.54593 7.1748 10.6459 7.5748 11.2459 8.4248C11.7559 9.1448 11.8759 10.1348 11.5859 11.1948C11.2559 12.3948 10.5259 13.4448 9.52595 14.1648C9.39595 14.2648 9.23594 14.3048 9.08594 14.3048ZM9.18595 8.8648C9.10595 8.8648 9.02596 8.8748 8.94596 8.8948C8.48596 9.0248 8.33595 9.40482 8.28595 9.56482C8.17595 9.92482 8.25595 10.2948 8.49595 10.5648C8.68595 10.7748 8.96595 10.9048 9.24595 10.9248C9.55595 10.9348 9.80596 11.1348 9.91596 11.4048C10.006 11.2048 10.086 11.0048 10.136 10.7948C10.306 10.1748 10.2559 9.62482 10.0159 9.28482C9.83594 9.02482 9.50595 8.8648 9.18595 8.8648Z" fill="black"/>
<path d="M14.5957 14.3048C14.3657 14.3048 14.1357 14.1948 13.9857 13.9948C13.7457 13.6548 13.8257 13.1848 14.1557 12.9448C14.3657 12.7948 14.5657 12.6148 14.7457 12.4248C14.7257 12.4248 14.7057 12.4248 14.6857 12.4248C13.9957 12.3948 13.3357 12.0748 12.8857 11.5648C12.3057 10.9148 12.1057 10.0048 12.3557 9.1448C12.6057 8.3148 13.2357 7.6848 14.0557 7.4548C15.0457 7.1748 16.1557 7.5748 16.7557 8.4248C17.2657 9.1448 17.3857 10.1348 17.0957 11.1948C16.7657 12.3948 16.0357 13.4448 15.0357 14.1648C14.9057 14.2548 14.7457 14.3048 14.5957 14.3048ZM14.6957 8.8648C14.6157 8.8648 14.5357 8.8748 14.4557 8.8948C13.9957 9.0248 13.8357 9.40482 13.7957 9.56482C13.6857 9.92482 13.7657 10.2948 14.0057 10.5648C14.1957 10.7748 14.4757 10.9148 14.7557 10.9248C15.0657 10.9348 15.3157 11.1348 15.4257 11.4048C15.5157 11.2048 15.5957 11.0048 15.6457 10.7948C15.8157 10.1748 15.7657 9.62482 15.5257 9.28482C15.3457 9.02482 15.0157 8.8648 14.6957 8.8648Z" fill="black"/>
</svg>
