<svg width="24" height="24" viewBox="0 0 24 24" fill="none" xmlns="http://www.w3.org/2000/svg">
<path d="M16.2149 21.75H7.78488C4.47488 21.75 2.25488 19.4297 2.25488 15.9697V8.02979C2.25488 4.56979 4.47488 2.25 7.78488 2.25H16.2149C19.5249 2.25 21.7449 4.56979 21.7449 8.02979V15.9697C21.7449 19.4297 19.5249 21.75 16.2149 21.75ZM7.78488 3.75C5.33488 3.75 3.75488 5.42979 3.75488 8.02979V15.9697C3.75488 18.5697 5.33488 20.25 7.78488 20.25H16.2149C18.6649 20.25 20.2449 18.5697 20.2449 15.9697V8.02979C20.2449 5.42979 18.6649 3.75 16.2149 3.75H7.78488Z" fill="black"/>
<path d="M11.9949 16.8203C10.5849 16.8203 9.32489 16.0305 8.7049 14.7705C8.4349 14.2305 7.89488 13.9004 7.28488 13.9004H3.00488C2.59488 13.9004 2.25488 13.5604 2.25488 13.1504C2.25488 12.7404 2.59488 12.4004 3.00488 12.4004H7.28488C8.46488 12.4004 9.52489 13.0506 10.0449 14.1006C10.4149 14.8506 11.1649 15.3203 11.9949 15.3203C12.8249 15.3203 13.5749 14.8604 13.9449 14.1104C14.4749 13.0504 15.5349 12.4004 16.7049 12.4004H20.9849C21.3949 12.4004 21.7349 12.7404 21.7349 13.1504C21.7349 13.5604 21.3949 13.9004 20.9849 13.9004H16.7049C16.0949 13.9004 15.5549 14.2305 15.2849 14.7705C14.6649 16.0305 13.4049 16.8203 11.9949 16.8203Z" fill="black"/>
<path d="M11.4149 11.0295C11.2149 11.0295 11.0249 10.9498 10.8849 10.8098L9.28488 9.20969C8.99488 8.91969 8.99488 8.43963 9.28488 8.14963C9.57488 7.85963 10.0549 7.85963 10.3449 8.14963L11.4149 9.21945L14.1749 6.45969C14.4649 6.16969 14.9449 6.16969 15.2349 6.45969C15.5249 6.74969 15.5249 7.22975 15.2349 7.51975L11.9449 10.8098C11.8049 10.9498 11.6149 11.0295 11.4149 11.0295Z" fill="black"/>
</svg>
