<svg width="24" height="24" viewBox="0 0 24 24" fill="none" xmlns="http://www.w3.org/2000/svg">
<path d="M16.21 21.75H7.78C4.47 21.75 2.25 19.4297 2.25 15.9697V8.02979C2.25 4.56979 4.47 2.25 7.78 2.25H16.22C19.53 2.25 21.75 4.56979 21.75 8.02979V15.9697C21.75 19.4297 19.53 21.75 16.22 21.75H16.21ZM7.78 3.75C5.33 3.75 3.75 5.42979 3.75 8.02979V15.9697C3.75 18.5697 5.33 20.25 7.78 20.25H16.21C18.66 20.25 20.24 18.5697 20.24 15.9697V8.02979C20.24 5.42979 18.66 3.75 16.21 3.75H7.76999H7.78Z" fill="black"/>
<path d="M15.0402 8.64062H8.9502C8.5402 8.64062 8.2002 8.30062 8.2002 7.89062C8.2002 7.48063 8.5402 7.14062 8.9502 7.14062H15.0402C15.4502 7.14062 15.7902 7.48063 15.7902 7.89062C15.7902 8.30062 15.4502 8.64062 15.0402 8.64062Z" fill="black"/>
<path d="M11.99 16.1196C10.58 16.1196 9.32001 15.3293 8.70001 14.0693C8.43001 13.5293 7.89 13.1992 7.28 13.1992H3C2.59 13.1992 2.25 12.8592 2.25 12.4492C2.25 12.0392 2.59 11.6992 3 11.6992H7.28C8.46 11.6992 9.52001 12.3492 10.04 13.4092C10.41 14.1592 11.16 14.6196 11.99 14.6196C12.82 14.6196 13.57 14.1592 13.94 13.4092C14.47 12.3592 15.52 11.6992 16.7 11.6992H20.98C21.39 11.6992 21.73 12.0392 21.73 12.4492C21.73 12.8592 21.39 13.1992 20.98 13.1992H16.7C16.09 13.1992 15.55 13.5296 15.28 14.0796C14.66 15.3396 13.4 16.1294 11.99 16.1294V16.1196Z" fill="black"/>
</svg>
