<svg width="24" height="24" viewBox="0 0 24 24" fill="none" xmlns="http://www.w3.org/2000/svg">
<path d="M16.2149 21.75H7.78488C4.47488 21.75 2.25488 19.4305 2.25488 15.9805V8.03027C2.25488 4.57027 4.47488 2.25 7.78488 2.25H16.2149C19.5249 2.25 21.7449 4.57027 21.7449 8.03027V15.9805C21.7449 19.4305 19.5249 21.75 16.2149 21.75ZM7.78488 3.75C5.33488 3.75 3.75488 5.43027 3.75488 8.03027V15.9805C3.75488 18.5705 5.33488 20.25 7.78488 20.25H16.2149C18.6649 20.25 20.2449 18.5705 20.2449 15.9805V8.03027C20.2449 5.43027 18.6649 3.75 16.2149 3.75H7.78488Z" fill="black"/>
<path d="M11.9951 17.25C11.1851 17.25 10.4051 17.0702 9.68512 16.7202C9.48512 16.6202 9.14512 16.7203 8.79512 16.8203L8.53512 16.8901C8.11512 16.9901 7.70512 16.8601 7.41512 16.5601C7.12512 16.2601 7.00512 15.8502 7.10512 15.4502L7.18512 15.1504C7.27512 14.8104 7.36512 14.48 7.27512 14.29C6.92512 13.59 6.74512 12.7902 6.74512 11.9902C6.74512 9.10023 9.09512 6.74023 11.9951 6.74023C14.8951 6.74023 17.2451 9.10023 17.2451 11.9902C17.2451 14.8802 14.8951 17.2402 11.9951 17.2402V17.25ZM9.48512 15.1802C9.76512 15.1802 10.0551 15.2301 10.3451 15.3701C10.8551 15.6201 11.4151 15.75 11.9951 15.75C14.0651 15.75 15.7451 14.07 15.7451 12C15.7451 9.93 14.0651 8.25 11.9951 8.25C9.92512 8.25 8.24512 9.93 8.24512 12C8.24512 12.58 8.37512 13.1504 8.62512 13.6504C8.90512 14.2404 8.82512 14.8203 8.70512 15.3003C8.94512 15.2403 9.21512 15.1904 9.48512 15.1904V15.1802Z" fill="black"/>
</svg>
