<svg width="24" height="24" viewBox="0 0 24 24" fill="none" xmlns="http://www.w3.org/2000/svg">
<path fill-rule="evenodd" clip-rule="evenodd" d="M12.001 8.44727C12.4152 8.44727 12.751 8.78305 12.751 9.19727V12.0105C12.751 12.4247 12.4152 12.7605 12.001 12.7605C11.5868 12.7605 11.251 12.4247 11.251 12.0105V9.19727C11.251 8.78305 11.5868 8.44727 12.001 8.44727ZM11.999 14.0597C12.4132 14.0597 12.749 14.3955 12.749 14.8097V14.8829C12.749 15.2972 12.4132 15.6329 11.999 15.6329C11.5848 15.6329 11.249 15.2972 11.249 14.8829V14.8097C11.249 14.3955 11.5848 14.0597 11.999 14.0597Z" fill="black"/>
<path fill-rule="evenodd" clip-rule="evenodd" d="M2.25 9.50854C2.25 6.33982 4.82675 3.77539 8 3.77539H16C19.1732 3.77539 21.75 6.33983 21.75 9.50854V18.4782C21.75 19.4452 20.9641 20.2248 20 20.2248H8C4.82675 20.2248 2.25 17.6604 2.25 14.4917V9.50854ZM8 5.27539C5.6504 5.27539 3.75 7.17302 3.75 9.50854V14.4917C3.75 16.8272 5.6504 18.7248 8 18.7248H20C20.1405 18.7248 20.25 18.612 20.25 18.4782V9.50854C20.25 7.17302 18.3496 5.27539 16 5.27539H8Z" fill="black"/>
</svg>
