<svg width="24" height="24" viewBox="0 0 24 24" fill="none" xmlns="http://www.w3.org/2000/svg">
<path fill-rule="evenodd" clip-rule="evenodd" d="M11.0683 7.28028H12.9242C13.5024 7.28028 14.0121 7.66759 14.1628 8.22911C14.1653 8.23842 14.1676 8.24779 14.1697 8.25719L14.5239 9.8257C14.6114 10.2136 14.368 10.599 13.9801 10.6866C13.5922 10.7742 13.2068 10.5307 13.1192 10.1428L12.798 8.72028H11.1918L10.8796 10.139C10.7942 10.5273 10.4101 10.7729 10.0217 10.6874C9.63338 10.602 9.38782 10.2179 9.47327 9.82955L9.81837 8.26104C9.82076 8.25019 9.8234 8.23939 9.82629 8.22866C9.97773 7.6659 10.4889 7.27895 11.0683 7.28028Z" fill="black"/>
<path fill-rule="evenodd" clip-rule="evenodd" d="M7.70679 9.98367C7.70679 9.58603 8.02914 9.26367 8.42679 9.26367H15.5729C15.9705 9.26367 16.2929 9.58603 16.2929 9.98367C16.2929 10.3813 15.9705 10.7037 15.5729 10.7037H8.42679C8.02914 10.7037 7.70679 10.3813 7.70679 9.98367Z" fill="black"/>
<path fill-rule="evenodd" clip-rule="evenodd" d="M8.96853 9.26488C9.36552 9.24207 9.70583 9.54541 9.72863 9.9424L9.9929 14.5431C10.0256 14.9953 10.3682 15.2799 10.7044 15.2799H13.2953C13.6319 15.2799 13.9741 14.9953 14.0068 14.5435L14.2711 9.9424C14.2939 9.54541 14.6343 9.24207 15.0312 9.26488C15.4282 9.28768 15.7316 9.62799 15.7088 10.025L15.4437 14.6389C15.3656 15.7745 14.4611 16.7199 13.2953 16.7199H10.7044C9.53905 16.7199 8.63416 15.7745 8.55604 14.6384L8.55549 14.6303L8.291 10.025C8.2682 9.62799 8.57154 9.28768 8.96853 9.26488Z" fill="black"/>
<path fill-rule="evenodd" clip-rule="evenodd" d="M2.25 9.17578C2.25 6.00014 4.82436 3.42578 8 3.42578H16C19.1756 3.42578 21.75 6.00014 21.75 9.17578V14.8242C21.75 17.9998 19.1756 20.5742 16 20.5742H4C3.0335 20.5742 2.25 19.7907 2.25 18.8242V9.17578ZM8 4.92578C5.65279 4.92578 3.75 6.82857 3.75 9.17578V18.8242C3.75 18.9623 3.86193 19.0742 4 19.0742H16C18.3472 19.0742 20.25 17.1714 20.25 14.8242V9.17578C20.25 6.82857 18.3472 4.92578 16 4.92578H8Z" fill="black"/>
</svg>
