<svg width="24" height="24" viewBox="0 0 24 24" fill="none" xmlns="http://www.w3.org/2000/svg">
<path fill-rule="evenodd" clip-rule="evenodd" d="M12.0001 7.25C12.3302 7.25 12.6215 7.46583 12.7176 7.78164C13.2281 9.45925 14.5408 10.7719 16.2183 11.2825C16.5341 11.3786 16.7499 11.6699 16.7499 12C16.7499 12.3301 16.5341 12.6213 16.2183 12.7175C14.5408 13.2282 13.2281 14.5409 12.7176 16.2184C12.6214 16.5342 12.3302 16.75 12.0001 16.75C11.67 16.75 11.3787 16.5342 11.2826 16.2184C10.772 14.5409 9.45929 13.2282 7.78181 12.7175C7.46603 12.6213 7.25023 12.3301 7.25024 12C7.25026 11.6699 7.46608 11.3786 7.78186 11.2825C9.45928 10.772 10.772 9.45925 11.2825 7.78164C11.3787 7.46583 11.67 7.25 12.0001 7.25ZM9.80568 12C10.6971 12.5513 11.4488 13.3031 12.0001 14.1945C12.5513 13.3031 13.303 12.5513 14.1944 12C13.303 11.4488 12.5513 10.6971 12.0001 9.80562C11.4488 10.6971 10.6971 11.4488 9.80568 12Z" fill="black"/>
<path fill-rule="evenodd" clip-rule="evenodd" d="M2.25 9.17578C2.25 6.00014 4.82436 3.42578 8 3.42578H16C19.1756 3.42578 21.75 6.00014 21.75 9.17578V14.8242C21.75 17.9998 19.1756 20.5742 16 20.5742H4C3.0335 20.5742 2.25 19.7907 2.25 18.8242V9.17578ZM8 4.92578C5.65279 4.92578 3.75 6.82857 3.75 9.17578V18.8242C3.75 18.9623 3.86193 19.0742 4 19.0742H16C18.3472 19.0742 20.25 17.1714 20.25 14.8242V9.17578C20.25 6.82857 18.3472 4.92578 16 4.92578H8Z" fill="black"/>
</svg>
