<svg width="24" height="24" viewBox="0 0 24 24" fill="none" xmlns="http://www.w3.org/2000/svg">
<path d="M13.0903 15.5505H10.3703C9.65032 15.5505 9.26031 15.5503 8.86031 15.3503C8.50031 15.1703 8.20031 14.8705 8.02031 14.5105C7.82031 14.1305 7.82031 13.7305 7.82031 13.0105V10.4206C7.82031 10.1806 7.82031 10.0206 7.86031 9.84056C7.90031 9.66056 7.97031 9.50032 8.05031 9.35032C8.13031 9.20032 8.24031 9.08062 8.41031 8.90062C8.93031 8.34062 9.98032 7.2107 10.5903 6.4807C11.0803 6.0007 11.4803 6.01056 11.8403 6.09056C12.2603 6.18056 12.6103 6.43052 12.8303 6.80052C13.1403 7.34052 13.1803 8.1006 12.9403 9.1306H13.0303C14.0803 9.1306 14.6503 9.13064 15.1503 9.42064C15.6203 9.70064 15.9503 10.1406 16.0903 10.6506C16.2503 11.2106 16.1003 11.7505 15.8403 12.7405L15.6003 13.6203C15.4503 14.1603 15.3703 14.4903 15.1403 14.7903C14.9203 15.0603 14.6503 15.2706 14.3403 15.4006C14.0003 15.5506 13.6603 15.5505 13.0903 15.5505ZM11.5703 7.64036C10.9503 8.36036 10.0003 9.39038 9.51031 9.91038C9.43031 10.0004 9.38032 10.0503 9.34032 10.1003C9.31032 10.2103 9.31032 10.2804 9.31032 10.4104V13.0002C9.31032 13.3602 9.31031 13.7403 9.35031 13.8303C9.39031 13.9103 9.45031 13.9805 9.52031 14.0105C9.60031 14.0505 9.99031 14.0505 10.3603 14.0505H13.0803C13.3903 14.0505 13.6803 14.0502 13.7503 14.0202C13.8303 13.9902 13.9003 13.9403 13.9503 13.8703C13.9903 13.8203 14.0703 13.5307 14.1503 13.2307L14.3803 12.3806C14.5603 11.7206 14.6903 11.2203 14.6503 11.0603C14.6103 10.9103 14.5103 10.7907 14.3803 10.7107C14.2403 10.6307 13.7103 10.6306 13.0303 10.6306H12.1603C11.7303 10.6306 11.5003 10.4102 11.4003 10.2702C11.3003 10.1402 11.1603 9.85066 11.3003 9.44066C11.6603 8.33066 11.6203 7.84062 11.5703 7.65062V7.64036Z" fill="black"/>
<path d="M3.99001 21C3.71001 21 3.43001 20.9303 3.18001 20.8003C2.60001 20.5003 2.25 19.9 2.25 19.25V6.75C2.25 4.68 3.93 3 6 3H18C20.07 3 21.75 4.68 21.75 6.75V14.75C21.75 16.82 20.07 18.5 18 18.5H8.41C8.27 18.5 8.11001 18.5501 7.98001 18.6401L4.99001 20.6904C4.69001 20.9004 4.34 21 4 21H3.99001ZM5.99001 4.5C4.75001 4.5 3.74001 5.51 3.74001 6.75V19.25C3.74001 19.38 3.82001 19.4502 3.87001 19.4702C3.92001 19.5002 4.02 19.5302 4.13 19.4502L7.12001 17.4004C7.51001 17.1404 7.95 17 8.39 17H17.98C19.22 17 20.23 15.99 20.23 14.75V6.75C20.23 5.51 19.22 4.5 17.98 4.5H5.98001H5.99001Z" fill="black"/>
</svg>
