<svg width="24" height="24" viewBox="0 0 24 24" fill="none" xmlns="http://www.w3.org/2000/svg">
<path fill-rule="evenodd" clip-rule="evenodd" d="M7.25 12C7.25 9.37698 9.37643 7.25 12 7.25C14.6235 7.25 16.75 9.37697 16.75 12C16.75 14.6235 14.6235 16.75 12 16.75C9.37648 16.75 7.25 14.6235 7.25 12ZM12 8.75C10.205 8.75 8.75 10.2053 8.75 12C8.75 13.7951 10.2049 15.25 12 15.25C13.7951 15.25 15.25 13.7951 15.25 12C15.25 10.2053 13.795 8.75 12 8.75Z" fill="black"/>
<path fill-rule="evenodd" clip-rule="evenodd" d="M11.8621 7.25195C12.2763 7.25195 12.6121 7.58774 12.6121 8.00195V11.3873H15.9974C16.4116 11.3873 16.7474 11.7231 16.7474 12.1373C16.7474 12.5515 16.4116 12.8873 15.9974 12.8873H12.3065C11.6468 12.8873 11.1121 12.3525 11.1121 11.6929V8.00195C11.1121 7.58774 11.4478 7.25195 11.8621 7.25195Z" fill="black"/>
<path fill-rule="evenodd" clip-rule="evenodd" d="M2.25 9.17578C2.25 6.00014 4.82436 3.42578 8 3.42578H16C19.1756 3.42578 21.75 6.00014 21.75 9.17578V14.8242C21.75 17.9998 19.1756 20.5742 16 20.5742H4C3.0335 20.5742 2.25 19.7907 2.25 18.8242V9.17578ZM8 4.92578C5.65279 4.92578 3.75 6.82857 3.75 9.17578V18.8242C3.75 18.9623 3.86193 19.0742 4 19.0742H16C18.3472 19.0742 20.25 17.1714 20.25 14.8242V9.17578C20.25 6.82857 18.3472 4.92578 16 4.92578H8Z" fill="black"/>
</svg>
