<svg width="24" height="24" viewBox="0 0 24 24" fill="none" xmlns="http://www.w3.org/2000/svg">
<path fill-rule="evenodd" clip-rule="evenodd" d="M14.9426 10.0254C14.9426 9.61118 15.2784 9.27539 15.6926 9.27539H17.7514C19.9574 9.27539 21.75 11.0584 21.75 13.2631V19.5108C21.75 20.285 21.1209 20.9083 20.3503 20.9083H11.599C9.39298 20.9083 7.60034 19.1254 7.60034 16.9206V14.0416C7.60034 13.6274 7.93613 13.2916 8.35034 13.2916C8.76456 13.2916 9.10034 13.6274 9.10034 14.0416V16.9206C9.10034 18.2922 10.2166 19.4083 11.599 19.4083H20.25V13.2631C20.25 11.8916 19.1337 10.7754 17.7514 10.7754H15.6926C15.2784 10.7754 14.9426 10.4396 14.9426 10.0254Z" fill="black"/>
<path fill-rule="evenodd" clip-rule="evenodd" d="M16.3997 7.07949C16.3997 4.87476 14.607 3.0918 12.401 3.0918H6.24861C4.04261 3.0918 2.24997 4.87476 2.24997 7.07949V13.3272C2.24997 14.1014 2.87904 14.7247 3.6497 14.7247H12.401C14.607 14.7247 16.3997 12.9418 16.3997 10.7371V7.07949ZM12.401 4.5918C13.7834 4.5918 14.8997 5.70796 14.8997 7.07949V10.7371C14.8997 12.1086 13.7834 13.2247 12.401 13.2247H3.74997V7.07949C3.74997 5.70796 4.86626 4.5918 6.24861 4.5918H12.401Z" fill="black"/>
<path fill-rule="evenodd" clip-rule="evenodd" d="M5.12024 10.3398C5.12024 10.7541 5.45602 11.0898 5.87024 11.0898H10.8198C11.234 11.0898 11.5698 10.7541 11.5698 10.3398C11.5698 9.92563 11.234 9.58984 10.8198 9.58984H5.87024C5.45602 9.58984 5.12024 9.92563 5.12024 10.3398ZM5.08105 7.47632C5.08105 7.89054 5.41684 8.22632 5.83105 8.22632H8.32517C8.73938 8.22632 9.07517 7.89054 9.07517 7.47632C9.07517 7.06211 8.73938 6.72632 8.32517 6.72632H5.83105C5.41684 6.72632 5.08105 7.06211 5.08105 7.47632Z" fill="black"/>
<path fill-rule="evenodd" clip-rule="evenodd" d="M18.7672 16.8379C18.7672 17.2521 18.4314 17.5879 18.0172 17.5879H14.0677C13.6535 17.5879 13.3177 17.2521 13.3177 16.8379C13.3177 16.4237 13.6535 16.0879 14.0677 16.0879H18.0172C18.4314 16.0879 18.7672 16.4237 18.7672 16.8379ZM18.8064 13.9744C18.8064 14.3886 18.4706 14.7244 18.0564 14.7244H16.8874C16.4732 14.7244 16.1374 14.3886 16.1374 13.9744C16.1374 13.5602 16.4732 13.2244 16.8874 13.2244H18.0564C18.4706 13.2244 18.8064 13.5602 18.8064 13.9744Z" fill="black"/>
</svg>
