<svg width="24" height="24" viewBox="0 0 24 24" fill="none" xmlns="http://www.w3.org/2000/svg">
<path fill-rule="evenodd" clip-rule="evenodd" d="M8.70996 10.7012C8.29575 10.7012 7.95996 11.037 7.95996 11.4512C7.95996 11.8654 7.62417 12.2012 7.20996 12.2012C6.79575 12.2012 6.45996 11.8654 6.45996 11.4512C6.45996 10.2085 7.46732 9.20117 8.70996 9.20117C9.9526 9.20117 10.96 10.2085 10.96 11.4512C10.96 11.8654 10.6242 12.2012 10.21 12.2012C9.79575 12.2012 9.45996 11.8654 9.45996 11.4512C9.45996 11.037 9.12417 10.7012 8.70996 10.7012Z" fill="black"/>
<path fill-rule="evenodd" clip-rule="evenodd" d="M15.29 10.7012C14.8758 10.7012 14.54 11.037 14.54 11.4512C14.54 11.8654 14.2043 12.2012 13.79 12.2012C13.3758 12.2012 13.04 11.8654 13.04 11.4512C13.04 10.2085 14.0474 9.20117 15.29 9.20117C16.5327 9.20117 17.54 10.2085 17.54 11.4512C17.54 11.8654 17.2043 12.2012 16.79 12.2012C16.3758 12.2012 16.04 11.8654 16.04 11.4512C16.04 11.037 15.7043 10.7012 15.29 10.7012Z" fill="black"/>
<path fill-rule="evenodd" clip-rule="evenodd" d="M2.25 9.50852C2.25 6.33981 4.82675 3.77539 8 3.77539H16C19.1732 3.77539 21.75 6.33981 21.75 9.50852V18.4782C21.75 19.4452 20.9641 20.2248 20 20.2248H8C4.82675 20.2248 2.25 17.6604 2.25 14.4917V9.50852ZM8 5.27539C5.6504 5.27539 3.75 7.17302 3.75 9.50852V14.4917C3.75 16.8272 5.6504 18.7248 8 18.7248H20C20.1405 18.7248 20.25 18.612 20.25 18.4782V9.50852C20.25 7.17302 18.3496 5.27539 16 5.27539H8Z" fill="black"/>
</svg>
