<svg width="24" height="24" viewBox="0 0 24 24" fill="none" xmlns="http://www.w3.org/2000/svg">
<path fill-rule="evenodd" clip-rule="evenodd" d="M15.0331 7.82221C15.326 8.11511 15.326 8.58998 15.0331 8.88287L10.1358 13.7801C9.8429 14.073 9.36803 14.073 9.07513 13.7801C8.78224 13.4872 8.78225 13.0123 9.07514 12.7194L13.9724 7.82221C14.2653 7.52931 14.7402 7.52932 15.0331 7.82221Z" fill="black"/>
<path fill-rule="evenodd" clip-rule="evenodd" d="M13.4355 13.1815C13.4355 12.6594 13.8585 12.2354 14.3815 12.2354C14.9041 12.2354 15.3276 12.6589 15.3276 13.1815C15.3276 13.7041 14.9038 14.1275 14.3815 14.1275C13.8588 14.1275 13.4355 13.7036 13.4355 13.1815Z" fill="black"/>
<path fill-rule="evenodd" clip-rule="evenodd" d="M8.67188 8.41578C8.67188 7.89351 9.09516 7.46973 9.61788 7.46973C10.14 7.46973 10.564 7.89289 10.564 8.41578C10.564 8.93863 10.14 9.36183 9.61788 9.36183C9.09514 9.36183 8.67188 8.93801 8.67188 8.41578Z" fill="black"/>
<path fill-rule="evenodd" clip-rule="evenodd" d="M2.25 6.30957C2.25 4.2385 3.92893 2.55957 6 2.55957H18C20.0711 2.55957 21.75 4.2385 21.75 6.30957V15.0929C21.75 17.1639 20.0711 18.8429 18 18.8429H15.838C15.6391 18.8429 15.4483 18.9219 15.3077 19.0625L13.591 20.7792C12.7123 21.6579 11.2877 21.6579 10.409 20.7792L8.69231 19.0625C8.55166 18.9219 8.36089 18.8429 8.16198 18.8429H6C3.92893 18.8429 2.25 17.1639 2.25 15.0929V6.30957ZM6 4.05957C4.75736 4.05957 3.75 5.06693 3.75 6.30957V15.0929C3.75 16.3355 4.75736 17.3429 6 17.3429H8.16198C8.75872 17.3429 9.33101 17.5799 9.75297 18.0019L11.4697 19.7186C11.7626 20.0115 12.2374 20.0115 12.5303 19.7186L14.247 18.0019C14.669 17.5799 15.2413 17.3429 15.838 17.3429H18C19.2426 17.3429 20.25 16.3355 20.25 15.0929V6.30957C20.25 5.06693 19.2426 4.05957 18 4.05957H6Z" fill="black"/>
</svg>
