<svg width="24" height="24" viewBox="0 0 24 24" fill="none" xmlns="http://www.w3.org/2000/svg">
<path fill-rule="evenodd" clip-rule="evenodd" d="M16.25 10.0068C16.25 9.59262 15.9142 9.25684 15.5 9.25684H10.5C10.0858 9.25684 9.75 9.59262 9.75 10.0068C9.75 10.421 10.0858 10.7568 10.5 10.7568H15.5C15.9142 10.7568 16.25 10.421 16.25 10.0068ZM14.25 13.9934C14.25 13.5791 13.9142 13.2434 13.5 13.2434H8.5C8.08579 13.2434 7.75 13.5791 7.75 13.9934C7.75 14.4076 8.08579 14.7434 8.5 14.7434H13.5C13.9142 14.7434 14.25 14.4076 14.25 13.9934Z" fill="black"/>
<path fill-rule="evenodd" clip-rule="evenodd" d="M2.25 6.75C2.25 4.67893 3.92893 3 6 3H18C20.0711 3 21.75 4.67893 21.75 6.75V14.7552C21.75 16.8263 20.0711 18.5052 18 18.5052H8.40809C8.25635 18.5052 8.10817 18.5513 7.98314 18.6372L4.99154 20.6943C3.83042 21.4927 2.25 20.6614 2.25 19.2523V6.75ZM6 4.5C4.75736 4.5 3.75 5.50736 3.75 6.75V19.2523C3.75 19.4536 3.97578 19.5724 4.14165 19.4583L7.13325 17.4012C7.50835 17.1433 7.95287 17.0052 8.40809 17.0052H18C19.2426 17.0052 20.25 15.9979 20.25 14.7552V6.75C20.25 5.50736 19.2426 4.5 18 4.5H6Z" fill="black"/>
</svg>
