<svg width="24" height="24" viewBox="0 0 24 24" fill="none" xmlns="http://www.w3.org/2000/svg">
<path fill-rule="evenodd" clip-rule="evenodd" d="M12.0001 7.75C12.2983 7.75 12.5681 7.92656 12.6874 8.19974L15.7456 15.1997C15.9114 15.5793 15.7382 16.0214 15.3586 16.1873C14.979 16.3531 14.5369 16.1798 14.371 15.8003L13.4744 13.7478H10.5258L9.62911 15.8003C9.46328 16.1798 9.02114 16.3531 8.64157 16.1873C8.262 16.0214 8.08874 15.5793 8.25457 15.1997L11.3129 8.19973C11.4322 7.92655 11.702 7.75 12.0001 7.75ZM11.1812 12.2478H12.819L12.0001 10.3734L11.1812 12.2478Z" fill="black"/>
<path fill-rule="evenodd" clip-rule="evenodd" d="M2.25 9.17578C2.25 6.00014 4.82436 3.42578 8 3.42578H16C19.1756 3.42578 21.75 6.00014 21.75 9.17578V14.8242C21.75 17.9998 19.1756 20.5742 16 20.5742H4C3.0335 20.5742 2.25 19.7907 2.25 18.8242V9.17578ZM8 4.92578C5.65279 4.92578 3.75 6.82857 3.75 9.17578V18.8242C3.75 18.9623 3.86193 19.0742 4 19.0742H16C18.3472 19.0742 20.25 17.1714 20.25 14.8242V9.17578C20.25 6.82857 18.3472 4.92578 16 4.92578H8Z" fill="black"/>
</svg>
