<svg width="24" height="24" viewBox="0 0 24 24" fill="none" xmlns="http://www.w3.org/2000/svg">
<path fill-rule="evenodd" clip-rule="evenodd" d="M9.99713 10.2021C9.99713 9.78793 10.3329 9.45215 10.7471 9.45215H14.7041C15.0011 9.45215 15.2702 9.62743 15.3902 9.89913C15.5102 10.1708 15.4585 10.4877 15.2585 10.7073L12.4022 13.842H14.7041C15.1183 13.842 15.4541 14.1778 15.4541 14.592C15.4541 15.0062 15.1183 15.342 14.7041 15.342H10.7041C10.4071 15.342 10.1381 15.1667 10.0181 14.895C9.89805 14.6233 9.94969 14.3064 10.1497 14.0868L13.0061 10.9521H10.7471C10.3329 10.9521 9.99713 10.6164 9.99713 10.2021Z" fill="black"/>
<path fill-rule="evenodd" clip-rule="evenodd" d="M4.43224 5.05273C4.43224 4.63852 4.76803 4.30273 5.18224 4.30273H7.88644C8.18346 4.30273 8.4525 4.47802 8.5725 4.74971C8.69251 5.02141 8.64087 5.33833 8.44081 5.55788L6.8509 7.30273H7.88644C8.30066 7.30273 8.63644 7.63852 8.63644 8.05273C8.63644 8.46695 8.30066 8.80273 7.88644 8.80273H5.15285C4.85583 8.80273 4.58679 8.62745 4.46679 8.35575C4.34678 8.08406 4.39842 7.76714 4.59847 7.54759L6.18838 5.80273H5.18224C4.76803 5.80273 4.43224 5.46695 4.43224 5.05273Z" fill="black"/>
<path fill-rule="evenodd" clip-rule="evenodd" d="M11.25 4.17578C11.25 3.76157 11.5858 3.42578 12 3.42578H16C19.1756 3.42578 21.75 6.00014 21.75 9.17578V14.8242C21.75 17.9998 19.1756 20.5742 16 20.5742H4C3.0335 20.5742 2.25 19.7907 2.25 18.8242V12C2.25 11.5858 2.58579 11.25 3 11.25C3.41421 11.25 3.75 11.5858 3.75 12V18.8242C3.75 18.9623 3.86193 19.0742 4 19.0742H16C18.3472 19.0742 20.25 17.1714 20.25 14.8242V9.17578C20.25 6.82857 18.3472 4.92578 16 4.92578H12C11.5858 4.92578 11.25 4.58999 11.25 4.17578Z" fill="black"/>
</svg>
