<svg width="24" height="24" viewBox="0 0 24 24" fill="none" xmlns="http://www.w3.org/2000/svg">
<path fill-rule="evenodd" clip-rule="evenodd" d="M10.7225 8.31993C11.0944 8.50229 11.248 8.95162 11.0657 9.32353L9.33788 12.8472C9.15552 13.2191 8.70619 13.3728 8.33428 13.1904C7.96237 13.0081 7.80871 12.5587 7.99107 12.1868L9.71887 8.66314C9.90123 8.29123 10.3506 8.13757 10.7225 8.31993ZM15.6658 8.31993C16.0377 8.50229 16.1914 8.95162 16.009 9.32353L14.2812 12.8472C14.0989 13.2191 13.6496 13.3728 13.2776 13.1904C12.9057 13.0081 12.7521 12.5587 12.9344 12.1868L14.6622 8.66314C14.8446 8.29123 15.2939 8.13757 15.6658 8.31993Z" fill="black"/>
<path fill-rule="evenodd" clip-rule="evenodd" d="M2.25 6.76527C2.25 4.69741 3.93132 3.02539 6 3.02539H18C20.0687 3.02539 21.75 4.6974 21.75 6.76527V14.7435C21.75 16.8114 20.0687 18.4834 18 18.4834H8.40809C8.25577 18.4834 8.10725 18.5294 7.98217 18.6152L4.99057 20.6653C3.83321 21.4584 2.25 20.6359 2.25 19.2254V6.76527ZM6 4.52539C4.75497 4.52539 3.75 5.53061 3.75 6.76527V19.2254C3.75 19.4199 3.97299 19.5442 4.14262 19.428L7.13422 17.3778C7.50927 17.1208 7.95344 16.9834 8.40809 16.9834H18C19.245 16.9834 20.25 15.9782 20.25 14.7435V6.76527C20.25 5.53061 19.245 4.52539 18 4.52539H6Z" fill="black"/>
</svg>
