<svg width="24" height="24" viewBox="0 0 24 24" fill="none" xmlns="http://www.w3.org/2000/svg">
<path fill-rule="evenodd" clip-rule="evenodd" d="M14.2338 12.3574L15.8271 14.0091C16.1147 14.3072 16.5895 14.3157 16.8876 14.0281C17.1857 13.7405 17.1942 13.2657 16.9066 12.9676L15.1648 11.162C14.6273 10.6057 13.7277 10.6346 13.2279 11.2241L11.189 13.6318L10.283 12.6225C9.77379 12.0555 8.88828 12.0435 8.36341 12.5961L7.08867 13.94C6.80361 14.2405 6.81615 14.7152 7.11667 15.0003C7.41719 15.2853 7.8919 15.2728 8.17696 14.9723L9.30708 13.7809L10.221 14.7989C10.75 15.3876 11.6772 15.3756 12.1898 14.7711L14.2338 12.3574Z" fill="black"/>
<path fill-rule="evenodd" clip-rule="evenodd" d="M9.87584 7.80957C9.59962 7.80957 9.37598 8.03309 9.37598 8.30957C9.37598 8.58605 9.59962 8.80957 9.87584 8.80957C10.1527 8.80957 10.3765 8.58543 10.3765 8.30957C10.3765 8.03371 10.1527 7.80957 9.87584 7.80957ZM7.87598 8.30957C7.87598 7.20472 8.77114 6.30957 9.87584 6.30957C10.9799 6.30957 11.8765 7.2041 11.8765 8.30957C11.8765 9.41505 10.9799 10.3096 9.87584 10.3096C8.77114 10.3096 7.87598 9.41442 7.87598 8.30957Z" fill="black"/>
<path fill-rule="evenodd" clip-rule="evenodd" d="M2.25 6.75C2.25 4.67893 3.92893 3 6 3H18C20.0711 3 21.75 4.67893 21.75 6.75V14.7552C21.75 16.8263 20.0711 18.5052 18 18.5052H8.40809C8.25635 18.5052 8.10817 18.5513 7.98314 18.6372L4.99154 20.6943C3.83042 21.4927 2.25 20.6614 2.25 19.2523V6.75ZM6 4.5C4.75736 4.5 3.75 5.50736 3.75 6.75V19.2523C3.75 19.4536 3.97578 19.5724 4.14165 19.4583L7.13325 17.4012C7.50835 17.1433 7.95287 17.0052 8.40809 17.0052H18C19.2426 17.0052 20.25 15.9979 20.25 14.7552V6.75C20.25 5.50736 19.2426 4.5 18 4.5H6Z" fill="black"/>
</svg>
