<svg width="24" height="24" viewBox="0 0 24 24" fill="none" xmlns="http://www.w3.org/2000/svg">
<path d="M16.63 21.1495C16.44 21.1495 16.26 21.1091 16.08 21.0391C15.75 20.8791 15.52 20.7494 15.31 20.5894C14.94 20.3194 14.73 19.8893 14.74 19.4293V19.0391L14.4 18.8492C13.99 18.6092 13.72 18.1993 13.67 17.7393C13.64 17.4693 13.64 17.1993 13.67 16.9293C13.72 16.4493 14 16.0394 14.42 15.8194L14.75 15.6294V15.2291C14.73 14.7691 14.94 14.3391 15.31 14.0591C15.58 13.8691 15.82 13.7294 16.06 13.6294C16.46 13.4494 16.95 13.4793 17.35 13.7193L17.7 13.9293L18.04 13.7193C18.43 13.4793 18.92 13.4595 19.34 13.6495C19.56 13.7395 19.8 13.8791 20.06 14.0591C20.45 14.3491 20.66 14.7793 20.65 15.2393V15.6592L21 15.8492C21.39 16.0492 21.66 16.4595 21.71 16.9395C21.74 17.2195 21.74 17.4893 21.71 17.7593C21.66 18.2193 21.4 18.6294 20.99 18.8594L20.64 19.0494C20.64 19.0494 20.64 19.0491 20.64 19.0591V19.4493C20.65 19.9193 20.44 20.3392 20.07 20.6192C19.86 20.7692 19.63 20.9094 19.34 21.0494C18.88 21.2394 18.41 21.1991 18.03 20.9791L17.66 20.7491L17.35 20.9693C17.12 21.0993 16.87 21.1695 16.61 21.1695L16.63 21.1495ZM17.7 19.2491C18 19.2491 18.26 19.3195 18.47 19.4595L18.82 19.6695C18.92 19.5795 19.06 19.4895 19.19 19.3995L19.15 19.0494C19.15 18.8094 19.2 18.5794 19.32 18.3594C19.33 18.3294 19.35 18.3094 19.36 18.2793C19.51 18.0293 19.69 17.8491 19.92 17.7291L20.28 17.5293C20.25 17.4093 20.25 17.2394 20.24 17.0694L19.9 16.9092C19.7 16.8092 19.51 16.6192 19.36 16.3692C19.22 16.1492 19.15 15.8694 19.15 15.6094V15.1895C19.04 15.1495 18.89 15.0691 18.74 14.9991L18.44 15.2095C18.05 15.4595 17.37 15.4793 16.92 15.1993L16.58 14.9991C16.5 15.0591 16.35 15.1491 16.18 15.2691L16.24 15.6094C16.24 15.8694 16.17 16.1292 16.04 16.3692C15.88 16.6292 15.69 16.8093 15.47 16.9293L15.14 17.1192C15.15 17.2392 15.15 17.4092 15.17 17.5792L15.49 17.7291C15.7 17.8391 15.9 18.0291 16.04 18.2691C16.06 18.2991 16.07 18.3192 16.08 18.3492C16.19 18.5692 16.25 18.7993 16.25 19.0293V19.4493C16.33 19.4793 16.46 19.5494 16.63 19.6294L16.95 19.4395C17.16 19.3095 17.41 19.2393 17.71 19.2393L17.7 19.2491Z" fill="black"/>
<path d="M17.7005 18.2891C17.4405 18.2891 17.2005 18.189 17.0105 17.999C16.8305 17.819 16.7305 17.5793 16.7305 17.3193C16.7305 16.7993 17.1605 16.3691 17.6905 16.3691C18.2205 16.3691 18.6505 16.7991 18.6505 17.3291C18.6505 17.8591 18.2205 18.2891 17.6905 18.2891H17.7005Z" fill="black"/>
<path d="M10.9201 14.8799C10.5101 14.8799 10.1701 14.5399 10.1701 14.1299V13.8496C9.80006 13.7396 9.46007 13.5495 9.16007 13.2695L8.93006 13.3999C8.57006 13.6099 8.11007 13.4796 7.91007 13.1196C7.70007 12.7596 7.83007 12.2996 8.19007 12.0996L8.42006 11.9697C8.33006 11.5897 8.34006 11.1998 8.42006 10.8198L8.18006 10.6797C7.82006 10.4697 7.70006 10.0097 7.90006 9.65967C8.10006 9.30967 8.57006 9.17988 8.92006 9.37988L9.16007 9.51953C9.45007 9.24953 9.79007 9.04994 10.1601 8.93994V8.66992C10.1601 8.25992 10.5001 7.91992 10.9101 7.91992C11.3201 7.91992 11.6601 8.25992 11.6601 8.66992V8.93994C12.0301 9.04994 12.3701 9.24953 12.6601 9.51953L12.9001 9.37988C13.2601 9.16988 13.7201 9.29967 13.9201 9.65967C14.1201 10.0197 14.0001 10.4797 13.6401 10.6797L13.4001 10.8096C13.4901 11.1896 13.4901 11.58 13.4001 11.96L13.6301 12.0898C13.9901 12.2998 14.1101 12.7499 13.9101 13.1099C13.7001 13.4699 13.2401 13.5896 12.8901 13.3896L12.6601 13.2598C12.3701 13.5298 12.0201 13.7298 11.6501 13.8398V14.1196C11.6501 14.5296 11.3101 14.8696 10.9001 14.8696L10.9201 14.8799ZM10.8801 10.3398C10.6101 10.3498 10.3601 10.4599 10.1701 10.6499C9.75006 11.0699 9.75006 11.7397 10.1701 12.1597C10.5801 12.5697 11.2601 12.5697 11.6801 12.1597C12.0901 11.7397 12.0901 11.0699 11.6801 10.6499C11.4901 10.4599 11.2401 10.3498 10.9701 10.3398C10.9401 10.3398 10.9101 10.3398 10.8801 10.3398Z" fill="black"/>
<path d="M11 19.979H4C3.04 19.979 2.25 19.189 2.25 18.229V8.5791C2.25 5.4091 4.83 2.8291 8 2.8291H16C19.17 2.8291 21.75 5.4091 21.75 8.5791V11.229C21.75 11.639 21.41 11.979 21 11.979C20.59 11.979 20.25 11.639 20.25 11.229V8.5791C20.25 6.2391 18.34 4.3291 16 4.3291H8C5.66 4.3291 3.75 6.2391 3.75 8.5791V18.229C3.75 18.369 3.86 18.479 4 18.479H11C11.41 18.479 11.75 18.819 11.75 19.229C11.75 19.639 11.41 19.979 11 19.979Z" fill="black"/>
</svg>
