<svg width="24" height="24" viewBox="0 0 24 24" fill="none" xmlns="http://www.w3.org/2000/svg">
<path fill-rule="evenodd" clip-rule="evenodd" d="M18.0182 13.0664C18.4324 13.0664 18.7682 13.4022 18.7682 13.8164V14.0915H19.8363C19.847 14.0913 19.8577 14.0913 19.8683 14.0915H21C21.4142 14.0915 21.75 14.4273 21.75 14.8415C21.75 15.2557 21.4142 15.5915 21 15.5915H20.5384C20.53 15.6415 20.5206 15.6933 20.5103 15.7468C20.4152 16.2406 20.2337 16.898 19.9007 17.5983C19.72 17.9782 19.4942 18.3712 19.2137 18.7571C19.644 19.0344 20.1496 19.2613 20.7406 19.3934C21.1449 19.4837 21.3994 19.8846 21.3091 20.2889C21.2187 20.6931 20.8178 20.9476 20.4136 20.8573C19.531 20.6601 18.7973 20.304 18.1924 19.8783C17.5081 20.4788 16.6356 20.9991 15.5271 21.338C15.131 21.4592 14.7117 21.2362 14.5906 20.8401C14.4694 20.444 14.6924 20.0247 15.0885 19.9036C15.8992 19.6557 16.5468 19.2909 17.0645 18.8679C16.6407 18.3922 16.3291 17.9123 16.1101 17.5153C15.91 17.1527 16.0418 16.6964 16.4045 16.4963C16.7671 16.2962 17.2234 16.428 17.4235 16.7907C17.5863 17.0859 17.8035 17.4225 18.085 17.7562C18.2688 17.4888 18.4206 17.218 18.5461 16.9541C18.7867 16.4481 18.9294 15.9686 19.0111 15.5915H18.0312C18.0269 15.5916 18.0226 15.5916 18.0182 15.5916C18.0139 15.5916 18.0096 15.5916 18.0053 15.5915H15.0361C14.6219 15.5915 14.2861 15.2557 14.2861 14.8415C14.2861 14.4273 14.6219 14.0915 15.0361 14.0915H17.2682V13.8164C17.2682 13.4022 17.604 13.0664 18.0182 13.0664Z" fill="black"/>
<path fill-rule="evenodd" clip-rule="evenodd" d="M12.1166 6.70801C12.4147 6.70801 12.6845 6.88457 12.8038 7.15776L15.0834 12.3758C15.2492 12.7554 15.076 13.1976 14.6964 13.3634C14.3168 13.5292 13.8747 13.3559 13.7089 12.9763L13.4104 12.2931H10.8228L10.0261 14.1167C9.86027 14.4963 9.41814 14.6695 9.03857 14.5037C8.65899 14.3379 8.48571 13.8958 8.65153 13.5162L9.63314 11.2692C9.64005 11.2516 9.64761 11.2343 9.65579 11.2174L11.4293 7.15776C11.5486 6.88457 11.8184 6.70801 12.1166 6.70801ZM11.478 10.7931H12.7551L12.1166 9.33148L11.478 10.7931Z" fill="black"/>
<path fill-rule="evenodd" clip-rule="evenodd" d="M2.25 6.31055C2.25 4.23948 3.92893 2.56055 6 2.56055H18C20.0711 2.56055 21.75 4.23948 21.75 6.31055V10.7022C21.75 11.1164 21.4142 11.4522 21 11.4522C20.5858 11.4522 20.25 11.1164 20.25 10.7022V6.31055C20.25 5.06791 19.2426 4.06055 18 4.06055H6C4.75736 4.06055 3.75 5.06791 3.75 6.31055V15.0938C3.75 16.3365 4.75736 17.3438 6 17.3438H8.16198C8.75872 17.3438 9.33101 17.5809 9.75297 18.0029L11.4697 19.7196C11.7626 20.0124 11.7626 20.4873 11.4697 20.7802C11.1768 21.0731 10.7019 21.0731 10.409 20.7802L8.69231 19.0635C8.55166 18.9229 8.36089 18.8438 8.16198 18.8438H6C3.92893 18.8438 2.25 17.1649 2.25 15.0938V6.31055Z" fill="black"/>
</svg>
