<svg width="24" height="24" viewBox="0 0 24 24" fill="none" xmlns="http://www.w3.org/2000/svg">
<path fill-rule="evenodd" clip-rule="evenodd" d="M9.17993 10.6712C9.17993 9.53635 10.1021 8.61914 11.2364 8.61914H13.7182C14.1158 8.61914 14.4382 8.9415 14.4382 9.33914C14.4382 9.73679 14.1158 10.0591 13.7182 10.0591H11.2364C10.8935 10.0591 10.6199 10.3355 10.6199 10.6712C10.6199 11.0068 10.8935 11.2832 11.2364 11.2832H12.7634C13.8978 11.2832 14.8199 12.2004 14.8199 13.3352C14.8199 14.4713 13.8974 15.3872 12.7634 15.3872H10.2817C9.88404 15.3872 9.56168 15.0649 9.56168 14.6672C9.56168 14.2696 9.88404 13.9472 10.2817 13.9472H12.7634C13.1067 13.9472 13.3799 13.6715 13.3799 13.3352C13.3799 12.9995 13.1063 12.7232 12.7634 12.7232H11.2364C10.1021 12.7232 9.17993 11.806 9.17993 10.6712Z" fill="black"/>
<path fill-rule="evenodd" clip-rule="evenodd" d="M11.9991 7.49512C12.3967 7.49512 12.7191 7.81747 12.7191 8.21512V9.34363C12.7191 9.74127 12.3967 10.0636 11.9991 10.0636C11.6014 10.0636 11.2791 9.74127 11.2791 9.34363V8.21512C11.2791 7.81747 11.6014 7.49512 11.9991 7.49512ZM11.9991 13.9472C12.3967 13.9472 12.7191 14.2696 12.7191 14.6672V15.7856C12.7191 16.1833 12.3967 16.5056 11.9991 16.5056C11.6014 16.5056 11.2791 16.1833 11.2791 15.7856V14.6672C11.2791 14.2696 11.6014 13.9472 11.9991 13.9472Z" fill="black"/>
<path fill-rule="evenodd" clip-rule="evenodd" d="M2.25 9.50854C2.25 6.33982 4.82675 3.77539 8 3.77539H16C19.1732 3.77539 21.75 6.33983 21.75 9.50854V18.4782C21.75 19.4452 20.9641 20.2248 20 20.2248H8C4.82675 20.2248 2.25 17.6604 2.25 14.4917V9.50854ZM8 5.27539C5.6504 5.27539 3.75 7.17302 3.75 9.50854V14.4917C3.75 16.8272 5.6504 18.7248 8 18.7248H20C20.1405 18.7248 20.25 18.612 20.25 18.4782V9.50854C20.25 7.17302 18.3496 5.27539 16 5.27539H8Z" fill="black"/>
</svg>
