<svg width="24" height="24" viewBox="0 0 24 24" fill="none" xmlns="http://www.w3.org/2000/svg">
<path d="M18.7602 19.7499C18.5002 19.7499 18.2402 19.68 18.0102 19.53L17.6802 19.34L17.3402 19.55C16.9702 19.79 16.4702 19.8198 16.0402 19.6198C15.8202 19.5298 15.5802 19.3899 15.3202 19.2099C14.9302 18.9199 14.7202 18.49 14.7302 18.03V17.6098L14.3902 17.4399C13.9802 17.1999 13.7102 16.79 13.6602 16.33C13.6302 16.06 13.6302 15.7899 13.6602 15.5199C13.7102 15.0599 13.9802 14.6398 14.3802 14.4098L14.7502 14.2099L14.7202 13.82C14.7202 13.36 14.9302 12.9298 15.3002 12.6498C15.5702 12.4598 15.8102 12.3199 16.0502 12.2199C16.4702 12.0299 16.9702 12.06 17.3602 12.32L17.6902 12.5099L18.0302 12.3C18.4002 12.06 18.8902 12.0299 19.3302 12.2299C19.5502 12.3199 19.7902 12.4598 20.0502 12.6398C20.4402 12.9298 20.6502 13.36 20.6402 13.82V14.2399L20.9802 14.4098C21.3902 14.6398 21.6602 15.0499 21.7102 15.5199C21.7402 15.7999 21.7402 16.07 21.7102 16.34C21.6602 16.8 21.4002 17.2099 20.9902 17.4399L20.6302 17.6498V18.03C20.6502 18.5 20.4402 18.9199 20.0702 19.1999C19.8002 19.3899 19.5602 19.5298 19.3202 19.6298C19.1402 19.7098 18.9502 19.7499 18.7602 19.7499ZM16.6202 13.6398C16.4802 13.6998 16.3402 13.7898 16.1902 13.8898L16.2502 14.2299C16.2502 14.4799 16.1902 14.7199 16.0602 14.9699C15.8902 15.2499 15.7002 15.43 15.4802 15.55L15.1302 15.7399C15.1602 15.8599 15.1602 16.0299 15.1702 16.1999L15.4902 16.35C15.7002 16.46 15.9002 16.6498 16.0402 16.8898C16.1902 17.1598 16.2502 17.3998 16.2502 17.6498V18.07C16.3502 18.11 16.4902 18.1799 16.6302 18.2399L16.9602 18.05C17.3702 17.79 18.0402 17.78 18.4802 18.06L18.7902 18.2399C18.9402 18.1699 19.0702 18.0899 19.2202 17.9899L19.1602 17.6498C19.1602 17.3998 19.2202 17.1598 19.3502 16.9098C19.3502 16.8998 19.3602 16.8898 19.3702 16.8798C19.5202 16.6298 19.7002 16.45 19.9302 16.33L20.2902 16.1298C20.2602 16.0098 20.2602 15.8398 20.2502 15.6698L19.9302 15.5199C19.7102 15.4099 19.5302 15.2199 19.3802 14.9699C19.2302 14.7099 19.1702 14.4599 19.1702 14.2099V13.79C19.0702 13.75 18.9302 13.6798 18.7902 13.6198L18.4602 13.82C18.0702 14.07 17.3902 14.08 16.9402 13.81L16.6302 13.6298L16.6202 13.6398ZM18.8502 13.6198H18.8402C18.8402 13.6198 18.8402 13.6198 18.8502 13.6198Z" fill="black"/>
<path d="M17.6907 16.8896C17.4307 16.8896 17.1907 16.7899 17.0007 16.5999C16.8207 16.4199 16.7207 16.1797 16.7207 15.9197C16.7207 15.3997 17.1507 14.9697 17.6807 14.9697C18.2107 14.9697 18.6407 15.3997 18.6407 15.9297C18.6407 16.4597 18.2107 16.8896 17.6807 16.8896H17.6907Z" fill="black"/>
<path d="M10.9101 13.4702C10.5001 13.4702 10.1601 13.1302 10.1601 12.7202V12.4502C9.79005 12.3402 9.45005 12.1401 9.16005 11.8701L8.92005 12.0103C8.56005 12.2203 8.10006 12.0902 7.90006 11.7302C7.70006 11.3702 7.82006 10.9102 8.18006 10.7102L8.41005 10.5803C8.37005 10.3903 8.35005 10.2002 8.35005 10.0002C8.35005 9.80024 8.37005 9.61017 8.41005 9.42017L8.18006 9.29028C7.82006 9.08028 7.70006 8.62026 7.90006 8.27026C8.10006 7.92026 8.57005 7.79023 8.92005 7.99023L9.16005 8.13013C9.45005 7.86013 9.79005 7.66029 10.1601 7.55029V7.28027C10.1601 6.87027 10.5001 6.53027 10.9101 6.53027C11.3201 6.53027 11.6601 6.87027 11.6601 7.28027V7.55029C12.0301 7.66029 12.3701 7.86013 12.6601 8.13013L12.9001 7.99023C13.2601 7.79023 13.72 7.91026 13.92 8.27026C14.12 8.63026 14 9.09028 13.64 9.29028L13.4101 9.42017C13.4501 9.61017 13.47 9.80024 13.47 10.0002C13.47 10.2002 13.4501 10.3903 13.4101 10.5803L13.64 10.7102C14 10.9202 14.12 11.3802 13.92 11.7302C13.72 12.0802 13.2601 12.2103 12.9001 12.0103L12.6601 11.8701C12.3701 12.1401 12.0301 12.3402 11.6601 12.4502V12.7202C11.6601 13.1302 11.3201 13.4702 10.9101 13.4702ZM10.9101 8.94019C10.6201 8.94019 10.3601 9.05024 10.1601 9.25024C9.96005 9.45024 9.85005 9.71024 9.85005 10.0002C9.85005 10.2902 9.96005 10.5502 10.1601 10.7502C10.5701 11.1602 11.27 11.1602 11.67 10.7502C11.87 10.5502 11.9801 10.2902 11.9801 10.0002C11.9801 9.71024 11.87 9.45024 11.67 9.25024C11.46 9.04024 11.2001 8.93018 10.9101 8.93018V8.94019Z" fill="black"/>
<path d="M11.99 21.4404C11.39 21.4404 10.82 21.2005 10.4 20.7805L8.69 19.0605C8.55 18.9205 8.36 18.8406 8.16 18.8406H6C3.93 18.8406 2.25 17.1606 2.25 15.0906V6.31055C2.25 4.24055 3.93 2.56055 6 2.56055H18C20.07 2.56055 21.75 4.24055 21.75 6.31055V10.0906C21.75 10.5006 21.41 10.8406 21 10.8406C20.59 10.8406 20.25 10.5006 20.25 10.0906V6.31055C20.25 5.07055 19.24 4.06055 18 4.06055H6C4.76 4.06055 3.75 5.07055 3.75 6.31055V15.0906C3.75 16.3306 4.76 17.3406 6 17.3406H8.16C8.76 17.3406 9.32 17.5705 9.75 18.0005L11.47 19.7205C11.76 20.0105 12.25 20.0105 12.53 19.7205C12.82 19.4305 13.3 19.4205 13.59 19.7205C13.88 20.0105 13.89 20.4905 13.59 20.7805C13.16 21.2105 12.6 21.4404 12 21.4404H11.99Z" fill="black"/>
</svg>
