<svg width="24" height="24" viewBox="0 0 24 24" fill="none" xmlns="http://www.w3.org/2000/svg">
<path fill-rule="evenodd" clip-rule="evenodd" d="M13.7729 11.0667C13.7729 10.4938 14.2382 10.0332 14.8074 10.0332C15.376 10.0332 15.842 10.4932 15.842 11.0667C15.842 11.6403 15.376 12.1003 14.8074 12.1003C14.2382 12.1003 13.7729 11.6397 13.7729 11.0667Z" fill="black"/>
<path fill-rule="evenodd" clip-rule="evenodd" d="M8.15771 11.0667C8.15771 10.4938 8.62296 10.0332 9.19214 10.0332C9.76073 10.0332 10.2267 10.4932 10.2267 11.0667C10.2267 11.6403 9.76073 12.1003 9.19214 12.1003C8.62295 12.1003 8.15771 11.6397 8.15771 11.0667Z" fill="black"/>
<path fill-rule="evenodd" clip-rule="evenodd" d="M2.25 6.76528C2.25 4.69741 3.93132 3.02539 6 3.02539H18C20.0687 3.02539 21.75 4.69741 21.75 6.76528V19.2254C21.75 20.636 20.1668 21.4585 19.0094 20.6653L16.0178 18.6152C15.8927 18.5295 15.7442 18.4834 15.5919 18.4834H6C3.93132 18.4834 2.25 16.8114 2.25 14.7435V6.76528ZM6 4.52539C4.75497 4.52539 3.75 5.53061 3.75 6.76528V14.7435C3.75 15.9782 4.75497 16.9834 6 16.9834H15.5919C16.0466 16.9834 16.4907 17.1208 16.8658 17.3779L19.8574 19.428C20.027 19.5442 20.25 19.4199 20.25 19.2254V6.76528C20.25 5.53061 19.245 4.52539 18 4.52539H6Z" fill="black"/>
</svg>
