<svg width="24" height="24" viewBox="0 0 24 24" fill="none" xmlns="http://www.w3.org/2000/svg">
<path fill-rule="evenodd" clip-rule="evenodd" d="M14.3477 9.49793C14.6401 9.20453 15.1149 9.20371 15.4083 9.4961L17.5291 11.6096C17.6703 11.7503 17.7497 11.9415 17.7497 12.1408C17.7497 12.3402 17.6703 12.5313 17.5291 12.672L15.4083 14.7856C15.115 15.078 14.6401 15.0772 14.3477 14.7838C14.0553 14.4905 14.0561 14.0156 14.3495 13.7232L15.9372 12.1408L14.3495 10.5586C14.0561 10.2662 14.0553 9.79132 14.3477 9.49793Z" fill="black"/>
<path fill-rule="evenodd" clip-rule="evenodd" d="M9.65185 9.49793C9.35946 9.20453 8.88458 9.20371 8.59119 9.4961L6.47044 11.6096C6.32923 11.7503 6.24986 11.9415 6.24986 12.1408C6.24986 12.3402 6.32922 12.5313 6.47042 12.672L8.59117 14.7856C8.88456 15.078 9.35943 15.0772 9.65183 14.7838C9.94423 14.4905 9.94343 14.0156 9.65004 13.7232L8.06233 12.1408L9.65002 10.5586C9.94342 10.2662 9.94424 9.79132 9.65185 9.49793Z" fill="black"/>
<path fill-rule="evenodd" clip-rule="evenodd" d="M12.9903 8.20615C13.3911 8.31078 13.6312 8.7205 13.5265 9.12128L11.9243 15.2581C11.8197 15.6589 11.41 15.899 11.0092 15.7943C10.6084 15.6897 10.3684 15.28 10.473 14.8792L12.0752 8.74237C12.1798 8.34159 12.5895 8.10151 12.9903 8.20615Z" fill="black"/>
<path fill-rule="evenodd" clip-rule="evenodd" d="M2.25 9.54102C2.25 6.36538 4.82436 3.79102 8 3.79102H16C19.1756 3.79102 21.75 6.36538 21.75 9.54102V18.541C21.75 19.5075 20.9665 20.291 20 20.291H8C4.82436 20.291 2.25 17.7167 2.25 14.541V9.54102ZM8 5.29102C5.65279 5.29102 3.75 7.19381 3.75 9.54102V14.541C3.75 16.8882 5.65279 18.791 8 18.791H20C20.1381 18.791 20.25 18.6791 20.25 18.541V9.54102C20.25 7.19381 18.3472 5.29102 16 5.29102H8Z" fill="black"/>
</svg>
