<svg width="24" height="24" viewBox="0 0 24 24" fill="none" xmlns="http://www.w3.org/2000/svg">
<path fill-rule="evenodd" clip-rule="evenodd" d="M10.7284 8.50522C11.4738 7.91623 12.5261 7.91623 13.2715 8.50522L17.3906 11.7661C17.7154 12.0232 17.7703 12.4949 17.5132 12.8196C17.2561 13.1444 16.7844 13.1993 16.4596 12.9422L12.3416 9.68217C12.3415 9.68216 12.3416 9.68218 12.3416 9.68217C12.1413 9.52397 11.8586 9.52393 11.6584 9.68213C11.6583 9.68214 11.6584 9.68211 11.6584 9.68213L7.54025 12.9422C7.21549 13.1993 6.74379 13.1444 6.48669 12.8196C6.2296 12.4949 6.28445 12.0232 6.60922 11.7661L10.7284 8.50522Z" fill="black"/>
<path fill-rule="evenodd" clip-rule="evenodd" d="M8.57275 10.4766C8.98697 10.4766 9.32275 10.8123 9.32275 11.2266V15.1866C9.32275 15.6008 8.98697 15.9366 8.57275 15.9366C8.15854 15.9366 7.82275 15.6008 7.82275 15.1866V11.2266C7.82275 10.8123 8.15854 10.4766 8.57275 10.4766ZM15.4235 10.4766C15.8377 10.4766 16.1735 10.8123 16.1735 11.2266V15.1866C16.1735 15.6008 15.8377 15.9366 15.4235 15.9366C15.0093 15.9366 14.6735 15.6008 14.6735 15.1866V11.2266C14.6735 10.8123 15.0093 10.4766 15.4235 10.4766Z" fill="black"/>
<path fill-rule="evenodd" clip-rule="evenodd" d="M2.25 9.54102C2.25 6.36538 4.82436 3.79102 8 3.79102H16C19.1756 3.79102 21.75 6.36538 21.75 9.54102V18.541C21.75 19.5075 20.9665 20.291 20 20.291H8C4.82436 20.291 2.25 17.7167 2.25 14.541V9.54102ZM8 5.29102C5.65279 5.29102 3.75 7.19381 3.75 9.54102V14.541C3.75 16.8882 5.65279 18.791 8 18.791H20C20.1381 18.791 20.25 18.6791 20.25 18.541V9.54102C20.25 7.19381 18.3472 5.29102 16 5.29102H8Z" fill="black"/>
</svg>
