<svg width="24" height="24" viewBox="0 0 24 24" fill="none" xmlns="http://www.w3.org/2000/svg">
<path fill-rule="evenodd" clip-rule="evenodd" d="M2.60535 3.52931C2.89875 3.23692 3.37362 3.23773 3.66601 3.53113L19.7276 19.6481C20.02 19.9415 20.0192 20.4163 19.7258 20.7087C19.4324 21.0011 18.9575 21.0003 18.6651 20.7069L2.60352 4.58996C2.31114 4.29657 2.31195 3.82169 2.60535 3.52931Z" fill="black"/>
<path fill-rule="evenodd" clip-rule="evenodd" d="M4.98748 4.84372C5.2809 5.13609 5.28175 5.61096 4.98938 5.90438C4.22265 6.67386 3.75 7.73309 3.75 8.90416V18.5526C3.75 18.6906 3.86193 18.8026 4 18.8026H16C16.6346 18.8026 17.2347 18.664 17.7736 18.4161C18.1499 18.243 18.5953 18.4078 18.7684 18.7841C18.9415 19.1604 18.7767 19.6058 18.4004 19.7789C17.6689 20.1153 16.8553 20.3026 16 20.3026H4C3.0335 20.3026 2.25 19.5191 2.25 18.5526V8.90416C2.25 7.32028 2.89139 5.88477 3.92682 4.84562C4.21919 4.5522 4.69406 4.55135 4.98748 4.84372Z" fill="black"/>
<path fill-rule="evenodd" clip-rule="evenodd" d="M7.25 3.90332C7.25 3.48911 7.58579 3.15332 8 3.15332H16C19.1756 3.15332 21.75 5.72768 21.75 8.90332V14.5517C21.75 15.2822 21.6134 15.9826 21.3637 16.6275C21.2141 17.0138 20.7797 17.2057 20.3935 17.0561C20.0072 16.9065 19.8153 16.4721 19.9649 16.0859C20.1488 15.611 20.25 15.0941 20.25 14.5517V8.90332C20.25 6.55611 18.3472 4.65332 16 4.65332H8C7.58579 4.65332 7.25 4.31753 7.25 3.90332Z" fill="black"/>
</svg>
