<svg width="24" height="24" viewBox="0 0 24 24" fill="none" xmlns="http://www.w3.org/2000/svg">
<path d="M13.64 14.4252C13.48 14.4252 13.2899 14.3851 13.1199 14.2951L11.9999 13.7152L10.9 14.2851C10.35 14.5851 9.62996 14.3751 9.32996 13.8051C9.20996 13.5851 9.15996 13.3151 9.20996 13.0551L9.41992 11.8551L8.52997 10.9953C8.29997 10.7753 8.17992 10.4852 8.16992 10.1652C8.16992 9.85518 8.28995 9.56511 8.50995 9.34511C8.64995 9.18511 8.87994 9.06528 9.12994 9.01528L10.4099 8.8351L10.96 7.73525C11.11 7.44525 11.35 7.24516 11.65 7.14516C11.95 7.04516 12.2699 7.07524 12.5499 7.22524C12.7599 7.33524 12.9399 7.50524 13.0499 7.72524L13.5999 8.82509L14.83 9.00527C15.46 9.08527 15.91 9.67508 15.83 10.3151C15.79 10.5951 15.66 10.8453 15.46 11.0153L14.5999 11.8451L14.8099 13.0351C14.8599 13.3551 14.78 13.6852 14.59 13.9352C14.4 14.1852 14.1299 14.3552 13.8199 14.3952C13.7699 14.4052 13.71 14.4152 13.65 14.4152L13.64 14.4252ZM11.9999 12.1752C12.1799 12.1752 12.36 12.2151 12.52 12.2951L13.2 12.6452L13.08 11.9352C13.01 11.5352 13.1499 11.1451 13.4399 10.8751L13.9399 10.3852L13.21 10.2851C12.82 10.2351 12.4899 9.98515 12.3199 9.63515L11.9899 8.97524L11.6599 9.64516C11.4999 9.98516 11.16 10.2251 10.78 10.2851L10.0499 10.3852L10.5699 10.8852C10.8499 11.1352 10.9799 11.5252 10.9099 11.9252L10.7899 12.6352L11.46 12.2851C11.64 12.2051 11.8199 12.1552 12.0099 12.1552L11.9999 12.1752ZM9.52997 11.9752C9.52997 11.9752 9.52993 11.9853 9.54993 11.9953L9.52997 11.9752ZM14.4699 11.9652H14.46C14.46 11.9652 14.4599 11.9652 14.4699 11.9652ZM14.4299 9.92519C14.4299 9.92519 14.4199 9.92521 14.4099 9.94521L14.4299 9.92519Z" fill="black"/>
<path d="M4 20.9753C3.72 20.9753 3.43999 20.9054 3.17999 20.7654C2.60999 20.4654 2.25 19.8753 2.25 19.2253V6.76538C2.25 4.70538 3.93 3.02539 6 3.02539H18C20.07 3.02539 21.75 4.70538 21.75 6.76538V14.7454C21.75 16.8054 20.07 18.4854 18 18.4854H8.40997C8.25997 18.4854 8.09998 18.5352 7.97998 18.6152L4.98999 20.6653C4.68999 20.8653 4.35 20.9753 4 20.9753ZM6 4.53516C4.76 4.53516 3.75 5.53539 3.75 6.77539V19.2354C3.75 19.3554 3.82 19.4153 3.88 19.4453C3.93 19.4753 4.03002 19.5053 4.15002 19.4353L7.14001 17.3853C7.52001 17.1253 7.95997 16.9954 8.40997 16.9954H18C19.24 16.9954 20.25 15.9954 20.25 14.7554V6.77539C20.25 5.54539 19.24 4.53516 18 4.53516H6Z" fill="black"/>
</svg>
