<svg width="24" height="24" viewBox="0 0 24 24" fill="none" xmlns="http://www.w3.org/2000/svg">
<path fill-rule="evenodd" clip-rule="evenodd" d="M14.1799 6.9445C14.5908 6.99656 14.8817 7.37188 14.8297 7.78281L14.7236 8.62002H15.5C15.9142 8.62002 16.25 8.9558 16.25 9.37002C16.25 9.78423 15.9142 10.12 15.5 10.12H14.5336L14.3106 11.8799H15.2128C15.627 11.8799 15.9628 12.2157 15.9628 12.6299C15.9628 13.0441 15.627 13.3799 15.2128 13.3799H14.1206L13.9908 14.4048C13.9387 14.8157 13.5634 15.1067 13.1525 15.0546C12.7416 15.0026 12.4506 14.6272 12.5027 14.2163L12.6086 13.3799H10.8097L10.6799 14.4048C10.6279 14.8157 10.2525 15.1067 9.84161 15.0546C9.43068 15.0026 9.13975 14.6272 9.1918 14.2163L9.29774 13.3799H8.5C8.08579 13.3799 7.75 13.0441 7.75 12.6299C7.75 12.2157 8.08579 11.8799 8.5 11.8799H9.48773L9.71064 10.12H8.78726C8.37304 10.12 8.03726 9.78423 8.03726 9.37002C8.03726 8.9558 8.37304 8.62002 8.78726 8.62002H9.90063L10.0305 7.59431C10.0826 7.18338 10.4579 6.89245 10.8688 6.9445C11.2798 6.99655 11.5707 7.37187 11.5187 7.7828L11.4126 8.62002H13.2116L13.3415 7.5943C13.3936 7.18337 13.7689 6.89245 14.1799 6.9445ZM13.0216 10.12H11.2226L10.9997 11.8799H12.7987L13.0216 10.12Z" fill="black"/>
<path fill-rule="evenodd" clip-rule="evenodd" d="M2.25 6.30957C2.25 4.2385 3.92893 2.55957 6 2.55957H18C20.0711 2.55957 21.75 4.2385 21.75 6.30957V15.0929C21.75 17.1639 20.0711 18.8429 18 18.8429H15.838C15.6391 18.8429 15.4483 18.9219 15.3077 19.0625L13.591 20.7792C12.7123 21.6579 11.2877 21.6579 10.409 20.7792L8.69231 19.0625C8.55166 18.9219 8.36089 18.8429 8.16198 18.8429H6C3.92893 18.8429 2.25 17.1639 2.25 15.0929V6.30957ZM6 4.05957C4.75736 4.05957 3.75 5.06693 3.75 6.30957V15.0929C3.75 16.3355 4.75736 17.3429 6 17.3429H8.16198C8.75872 17.3429 9.33101 17.5799 9.75297 18.0019L11.4697 19.7186C11.7626 20.0115 12.2374 20.0115 12.5303 19.7186L14.247 18.0019C14.669 17.5799 15.2413 17.3429 15.838 17.3429H18C19.2426 17.3429 20.25 16.3355 20.25 15.0929V6.30957C20.25 5.06693 19.2426 4.05957 18 4.05957H6Z" fill="black"/>
</svg>
