<svg width="24" height="24" viewBox="0 0 24 24" fill="none" xmlns="http://www.w3.org/2000/svg">
<path fill-rule="evenodd" clip-rule="evenodd" d="M15.7504 8.07807C16.0433 8.37096 16.0433 8.84584 15.7504 9.13873L11.4572 13.432C11.3166 13.5726 11.1258 13.6516 10.9269 13.6516C10.728 13.6516 10.5372 13.5726 10.3966 13.432L8.24946 11.2849C7.95656 10.992 7.95656 10.5171 8.24946 10.2242C8.54235 9.9313 9.01722 9.9313 9.31012 10.2242L10.9269 11.841L14.6898 8.07807C14.9827 7.78518 15.4575 7.78518 15.7504 8.07807Z" fill="black"/>
<path fill-rule="evenodd" clip-rule="evenodd" d="M2.25 6.76528C2.25 4.69741 3.93132 3.02539 6 3.02539H18C20.0687 3.02539 21.75 4.69741 21.75 6.76528V14.7435C21.75 16.8114 20.0687 18.4834 18 18.4834H8.40809C8.25577 18.4834 8.10725 18.5295 7.98217 18.6152L4.99057 20.6653C3.83321 21.4585 2.25 20.636 2.25 19.2255V6.76528ZM6 4.52539C4.75497 4.52539 3.75 5.53061 3.75 6.76528V19.2255C3.75 19.4199 3.97299 19.5443 4.14262 19.428L7.13422 17.3779C7.50927 17.1209 7.95344 16.9834 8.40809 16.9834H18C19.245 16.9834 20.25 15.9782 20.25 14.7435V6.76528C20.25 5.53061 19.245 4.52539 18 4.52539H6Z" fill="black"/>
</svg>
