<svg width="24" height="24" viewBox="0 0 24 24" fill="none" xmlns="http://www.w3.org/2000/svg">
<path fill-rule="evenodd" clip-rule="evenodd" d="M10.8677 8.13178C11.1606 8.42467 11.1606 8.89954 10.8677 9.19244L9.06066 10.9995L10.8677 12.8065C11.1606 13.0994 11.1606 13.5742 10.8677 13.8671C10.5748 14.16 10.0999 14.16 9.80702 13.8671L7.46967 11.5298C7.32902 11.3891 7.25 11.1984 7.25 10.9995C7.25 10.8006 7.32902 10.6098 7.46967 10.4691L9.80701 8.13178C10.0999 7.83889 10.5748 7.83889 10.8677 8.13178ZM13.1323 8.13178C13.4252 7.83888 13.9001 7.83889 14.193 8.13178L16.5303 10.4691C16.8232 10.762 16.8232 11.2369 16.5303 11.5298L14.193 13.8671C13.9001 14.16 13.4252 14.16 13.1323 13.8671C12.8394 13.5742 12.8394 13.0994 13.1323 12.8065L14.9393 10.9995L13.1323 9.19244C12.8394 8.89954 12.8395 8.42467 13.1323 8.13178Z" fill="black"/>
<path fill-rule="evenodd" clip-rule="evenodd" d="M2.25 6.30957C2.25 4.2385 3.92893 2.55957 6 2.55957H18C20.0711 2.55957 21.75 4.2385 21.75 6.30957V15.0929C21.75 17.1639 20.0711 18.8429 18 18.8429H15.838C15.6391 18.8429 15.4483 18.9219 15.3077 19.0625L13.591 20.7792C12.7123 21.6579 11.2877 21.6579 10.409 20.7792L8.69231 19.0625C8.55166 18.9219 8.36089 18.8429 8.16198 18.8429H6C3.92893 18.8429 2.25 17.1639 2.25 15.0929V6.30957ZM6 4.05957C4.75736 4.05957 3.75 5.06693 3.75 6.30957V15.0929C3.75 16.3355 4.75736 17.3429 6 17.3429H8.16198C8.75872 17.3429 9.33101 17.5799 9.75297 18.0019L11.4697 19.7186C11.7626 20.0115 12.2374 20.0115 12.5303 19.7186L14.247 18.0019C14.669 17.5799 15.2413 17.3429 15.838 17.3429H18C19.2426 17.3429 20.25 16.3355 20.25 15.0929V6.30957C20.25 5.06693 19.2426 4.05957 18 4.05957H6Z" fill="black"/>
</svg>
