<svg width="24" height="24" viewBox="0 0 24 24" fill="none" xmlns="http://www.w3.org/2000/svg">
<path d="M19.7151 21.1548C19.1751 21.1548 18.6151 20.9446 18.1951 20.5146L16.6051 18.9248C15.2251 19.2848 13.7351 18.895 12.7151 17.875C11.5551 16.715 11.2151 14.9949 11.8251 13.4849C11.9251 13.2549 12.1251 13.0847 12.3751 13.0347C12.6251 12.9847 12.8751 13.0646 13.0551 13.2446L14.6551 14.8447L15.2951 14.7246L15.4251 14.085L13.8251 12.4849C13.6451 12.3049 13.5751 12.0547 13.6251 11.8047C13.6751 11.5547 13.8451 11.3549 14.0751 11.2549C15.5851 10.6549 17.3051 10.9948 18.4551 12.1348C19.4851 13.1748 19.8751 14.6549 19.5151 16.0449L21.1551 17.6948C21.5451 18.0848 21.7651 18.6348 21.7551 19.1948C21.7451 19.7548 21.5051 20.2748 21.0851 20.6548C20.7051 21.0048 20.2251 21.1748 19.7351 21.1748L19.7151 21.1548ZM16.8051 17.3149C17.0051 17.3149 17.1951 17.3947 17.3351 17.5347L19.2551 19.4551C19.4851 19.6851 19.8451 19.7149 20.0551 19.5249C20.1751 19.4149 20.2351 19.2848 20.2351 19.1348C20.2351 18.9848 20.1851 18.8449 20.0751 18.7349L18.1051 16.7646C17.8951 16.5546 17.8251 16.2351 17.9351 15.9551C18.3151 14.9951 18.0951 13.9151 17.3751 13.1851C16.9751 12.7851 16.4651 12.5446 15.9251 12.4746L16.5051 13.0649C16.8251 13.3649 16.9751 13.8447 16.8851 14.3047L16.7351 15.085C16.6251 15.635 16.1951 16.0648 15.6451 16.1748L14.8651 16.3247C14.4051 16.4147 13.9451 16.2748 13.6251 15.9448L13.0451 15.3647C13.1151 15.9047 13.3651 16.4147 13.7651 16.8247C14.4851 17.5447 15.5751 17.7648 16.5251 17.3848C16.6151 17.3448 16.7051 17.335 16.8051 17.335V17.3149Z" fill="black"/>
<path d="M8.74435 13.3848H7.21436C6.80436 13.3848 6.46436 13.0448 6.46436 12.6348C6.46436 12.2248 6.80436 11.8848 7.21436 11.8848H8.74435C9.15435 11.8848 9.49435 12.2248 9.49435 12.6348C9.49435 13.0448 9.15435 13.3848 8.74435 13.3848ZM12.6544 9.50488H7.26434C6.85434 9.50488 6.51434 9.16488 6.51434 8.75488C6.51434 8.34488 6.85434 8.00488 7.26434 8.00488H12.6544C13.0644 8.00488 13.4044 8.34488 13.4044 8.75488C13.4044 9.16488 13.0644 9.50488 12.6544 9.50488Z" fill="black"/>
<path d="M9.99463 19.9751H3.99463C3.03463 19.9751 2.24463 19.1851 2.24463 18.2251V8.5752C2.24463 5.4052 4.82463 2.8252 7.99463 2.8252H15.9946C19.1646 2.8252 21.7446 5.4052 21.7446 8.5752V11.3955C21.7446 11.8055 21.4046 12.1455 20.9946 12.1455C20.5846 12.1455 20.2446 11.8055 20.2446 11.3955V8.5752C20.2446 6.2352 18.3346 4.3252 15.9946 4.3252H7.99463C5.65463 4.3252 3.74463 6.2352 3.74463 8.5752V18.2251C3.74463 18.3651 3.85463 18.4751 3.99463 18.4751H9.99463C10.4046 18.4751 10.7446 18.8151 10.7446 19.2251C10.7446 19.6351 10.4046 19.9751 9.99463 19.9751Z" fill="black"/>
</svg>
