<svg width="24" height="24" viewBox="0 0 24 24" fill="none" xmlns="http://www.w3.org/2000/svg">
<path fill-rule="evenodd" clip-rule="evenodd" d="M12.001 7.20703C12.4152 7.20703 12.751 7.54282 12.751 7.95703V8.03C12.751 8.44421 12.4152 8.78 12.001 8.78C11.5868 8.78 11.251 8.44421 11.251 8.03V7.95703C11.251 7.54282 11.5868 7.20703 12.001 7.20703ZM11.999 10.0698C12.4132 10.0698 12.749 10.4056 12.749 10.8198V13.6235C12.749 14.0378 12.4132 14.3735 11.999 14.3735C11.5848 14.3735 11.249 14.0378 11.249 13.6235V10.8198C11.249 10.4056 11.5848 10.0698 11.999 10.0698Z" fill="black"/>
<path fill-rule="evenodd" clip-rule="evenodd" d="M2.25 6.76528C2.25 4.69741 3.93132 3.02539 6 3.02539H18C20.0687 3.02539 21.75 4.69741 21.75 6.76528V14.7435C21.75 16.8114 20.0687 18.4834 18 18.4834H8.40809C8.25577 18.4834 8.10725 18.5295 7.98217 18.6152L4.99057 20.6653C3.83321 21.4585 2.25 20.636 2.25 19.2255V6.76528ZM6 4.52539C4.75497 4.52539 3.75 5.53061 3.75 6.76528V19.2255C3.75 19.4199 3.97299 19.5443 4.14262 19.428L7.13422 17.3779C7.50927 17.1209 7.95344 16.9834 8.40809 16.9834H18C19.245 16.9834 20.25 15.9782 20.25 14.7435V6.76528C20.25 5.53061 19.245 4.52539 18 4.52539H6Z" fill="black"/>
</svg>
