<svg width="24" height="24" viewBox="0 0 24 24" fill="none" xmlns="http://www.w3.org/2000/svg">
<path fill-rule="evenodd" clip-rule="evenodd" d="M6 4.09766C4.75721 4.09766 3.75 5.10487 3.75 6.34766V14.3477C3.75 15.5904 4.75721 16.5977 6 16.5977H11.6198C12.0484 16.5977 12.4621 16.7549 12.7824 17.0397L15.75 19.6775V17.8477C15.75 17.1573 16.3096 16.5977 17 16.5977H18C19.2428 16.5977 20.25 15.5904 20.25 14.3477V6.34766C20.25 5.10487 19.2428 4.09766 18 4.09766H6ZM2.25 6.34766C2.25 4.27644 3.92879 2.59766 6 2.59766H18C20.0712 2.59766 21.75 4.27644 21.75 6.34766V14.3477C21.75 16.4189 20.0712 18.0977 18 18.0977H17.25V20.2342C17.25 21.3128 15.9757 21.8851 15.1695 21.1685L11.7859 18.1608C11.7401 18.1201 11.681 18.0977 11.6198 18.0977H6C3.92879 18.0977 2.25 16.4189 2.25 14.3477V6.34766Z" fill="black"/>
</svg>
