<svg width="24" height="24" viewBox="0 0 24 24" fill="none" xmlns="http://www.w3.org/2000/svg">
<path fill-rule="evenodd" clip-rule="evenodd" d="M10.7284 7.2601C11.4738 6.67111 12.5261 6.67111 13.2715 7.2601L17.3906 10.521C17.7154 10.7781 17.7703 11.2497 17.5132 11.5745C17.2561 11.8993 16.7844 11.9541 16.4596 11.697L12.3416 8.43705C12.3415 8.43704 12.3416 8.43707 12.3416 8.43705C12.1413 8.27885 11.8586 8.27881 11.6584 8.43701C11.6583 8.43702 11.6584 8.437 11.6584 8.43701L7.54025 11.697C7.21549 11.9541 6.74379 11.8993 6.48669 11.5745C6.2296 11.2497 6.28445 10.7781 6.60922 10.521L10.7284 7.2601Z" fill="black"/>
<path fill-rule="evenodd" clip-rule="evenodd" d="M8.57275 9.23145C8.98697 9.23145 9.32275 9.56723 9.32275 9.98145V13.9414C9.32275 14.3556 8.98697 14.6914 8.57275 14.6914C8.15854 14.6914 7.82275 14.3556 7.82275 13.9414V9.98145C7.82275 9.56723 8.15854 9.23145 8.57275 9.23145ZM15.4235 9.23145C15.8377 9.23145 16.1735 9.56723 16.1735 9.98145V13.9414C16.1735 14.3556 15.8377 14.6914 15.4235 14.6914C15.0093 14.6914 14.6735 14.3556 14.6735 13.9414V9.98145C14.6735 9.56723 15.0093 9.23145 15.4235 9.23145Z" fill="black"/>
<path fill-rule="evenodd" clip-rule="evenodd" d="M2.25 6.76527C2.25 4.69741 3.93132 3.02539 6 3.02539H18C20.0687 3.02539 21.75 4.6974 21.75 6.76527V14.7435C21.75 16.8114 20.0687 18.4834 18 18.4834H8.40809C8.25577 18.4834 8.10725 18.5294 7.98217 18.6152L4.99057 20.6653C3.83321 21.4584 2.25 20.6359 2.25 19.2254V6.76527ZM6 4.52539C4.75497 4.52539 3.75 5.53061 3.75 6.76527V19.2254C3.75 19.4199 3.97299 19.5442 4.14262 19.428L7.13422 17.3778C7.50927 17.1208 7.95344 16.9834 8.40809 16.9834H18C19.245 16.9834 20.25 15.9782 20.25 14.7435V6.76527C20.25 5.53061 19.245 4.52539 18 4.52539H6Z" fill="black"/>
</svg>
