<svg width="24" height="24" viewBox="0 0 24 24" fill="none" xmlns="http://www.w3.org/2000/svg">
<path fill-rule="evenodd" clip-rule="evenodd" d="M11.9996 7.99414C12.298 7.99414 12.5681 8.1711 12.6872 8.44475L15.557 15.036C15.7223 15.4158 15.5485 15.8577 15.1687 16.023C14.789 16.1884 14.347 16.0146 14.1817 15.6348L13.3518 13.7288H10.6473L9.81748 15.6348C9.65213 16.0146 9.21021 16.1884 8.83043 16.023C8.45066 15.8577 8.27683 15.4158 8.44218 15.036L9.45659 12.7061C9.46355 12.6883 9.47117 12.6708 9.47943 12.6537L11.3119 8.44475C11.4311 8.1711 11.7011 7.99414 11.9996 7.99414ZM11.3004 12.2288H12.6988L11.9996 10.6229L11.3004 12.2288Z" fill="black"/>
<path fill-rule="evenodd" clip-rule="evenodd" d="M2.25 9.50853C2.25 6.33982 4.82675 3.77539 8 3.77539H16C19.1732 3.77539 21.75 6.33982 21.75 9.50853V18.4782C21.75 19.4452 20.9641 20.2248 20 20.2248H8C4.82675 20.2248 2.25 17.6604 2.25 14.4917V9.50853ZM8 5.27539C5.6504 5.27539 3.75 7.17302 3.75 9.50853V14.4917C3.75 16.8272 5.6504 18.7248 8 18.7248H20C20.1405 18.7248 20.25 18.612 20.25 18.4782V9.50853C20.25 7.17302 18.3496 5.27539 16 5.27539H8Z" fill="black"/>
</svg>
