<svg width="24" height="24" viewBox="0 0 24 24" fill="none" xmlns="http://www.w3.org/2000/svg">
<path fill-rule="evenodd" clip-rule="evenodd" d="M8.15682 10.3192C8.53291 10.1456 8.9785 10.3098 9.15209 10.6859C10.2953 13.1627 13.7037 13.1627 14.8469 10.6859C15.0205 10.3098 15.4661 10.1456 15.8421 10.3192C16.2182 10.4928 16.3824 10.9384 16.2088 11.3145C14.5294 14.9532 9.46964 14.9531 7.79017 11.3145C7.61658 10.9384 7.78073 10.4928 8.15682 10.3192Z" fill="black"/>
<path fill-rule="evenodd" clip-rule="evenodd" d="M10.1749 11.9551C10.5099 12.1988 10.5838 12.6679 10.3401 13.0029L9.07915 14.7357C8.83544 15.0707 8.36635 15.1446 8.03143 14.9009C7.6965 14.6572 7.62256 14.1881 7.86627 13.8532L9.12722 12.1203C9.37093 11.7854 9.84001 11.7114 10.1749 11.9551Z" fill="black"/>
<path fill-rule="evenodd" clip-rule="evenodd" d="M13.8272 11.9551C14.1621 11.7114 14.6312 11.7854 14.8749 12.1204L16.1354 13.8533C16.3791 14.1882 16.3051 14.6573 15.9701 14.901C15.6351 15.1446 15.1661 15.0706 14.9224 14.7356L13.6619 13.0028C13.4182 12.6678 13.4922 12.1987 13.8272 11.9551Z" fill="black"/>
<path fill-rule="evenodd" clip-rule="evenodd" d="M11.9998 12.5449C12.414 12.5449 12.7498 12.8807 12.7498 13.2949V15C12.7498 15.4142 12.414 15.75 11.9998 15.75C11.5855 15.75 11.2498 15.4142 11.2498 15V13.2949C11.2498 12.8807 11.5855 12.5449 11.9998 12.5449Z" fill="black"/>
<path fill-rule="evenodd" clip-rule="evenodd" d="M2.25 9.17578C2.25 6.00014 4.82436 3.42578 8 3.42578H16C19.1756 3.42578 21.75 6.00014 21.75 9.17578V14.8242C21.75 17.9998 19.1756 20.5742 16 20.5742H4C3.0335 20.5742 2.25 19.7907 2.25 18.8242V9.17578ZM8 4.92578C5.65279 4.92578 3.75 6.82857 3.75 9.17578V18.8242C3.75 18.9623 3.86193 19.0742 4 19.0742H16C18.3472 19.0742 20.25 17.1714 20.25 14.8242V9.17578C20.25 6.82857 18.3472 4.92578 16 4.92578H8Z" fill="black"/>
</svg>
