<svg width="24" height="24" viewBox="0 0 24 24" fill="none" xmlns="http://www.w3.org/2000/svg">
<path fill-rule="evenodd" clip-rule="evenodd" d="M8.90527 11.1402V14.6272C8.90527 15.0414 9.24106 15.3772 9.65527 15.3772C10.0695 15.3772 10.4053 15.0414 10.4053 14.6272V11.1384L10.7748 11.4949C11.0729 11.7825 11.5477 11.7739 11.8353 11.4758C12.1229 11.1777 12.1144 10.7029 11.8163 10.4154L10.1773 8.83425C10.0319 8.69394 9.84389 8.62386 9.65595 8.62402C9.65573 8.62402 9.6555 8.62402 9.65527 8.62402C9.43967 8.62402 9.24531 8.715 9.10849 8.86067L7.49606 10.4152C7.19786 10.7027 7.18917 11.1775 7.47666 11.4757C7.76415 11.7739 8.23895 11.7825 8.53715 11.4951L8.90527 11.1402Z" fill="black"/>
<path fill-rule="evenodd" clip-rule="evenodd" d="M14.3427 8.62305C14.7569 8.62298 15.0927 8.95872 15.0928 9.37293L15.0933 12.8623L15.4624 12.5063C15.7606 12.2188 16.2354 12.2274 16.5229 12.5255C16.8104 12.8237 16.8018 13.2985 16.5037 13.586L14.8642 15.1671C14.5737 15.4473 14.1135 15.4473 13.8229 15.1671L12.1835 13.586C11.8853 13.2985 11.8767 12.8237 12.1642 12.5255C12.4518 12.2274 12.9266 12.2188 13.2247 12.5063L13.5933 12.8618L13.5928 9.37316C13.5927 8.95895 13.9284 8.62311 14.3427 8.62305Z" fill="black"/>
<path fill-rule="evenodd" clip-rule="evenodd" d="M2.25 9.50852C2.25 6.33981 4.82675 3.77539 8 3.77539H16C19.1732 3.77539 21.75 6.33981 21.75 9.50852V18.4782C21.75 19.4452 20.9641 20.2248 20 20.2248H8C4.82675 20.2248 2.25 17.6604 2.25 14.4917V9.50852ZM8 5.27539C5.6504 5.27539 3.75 7.17302 3.75 9.50852V14.4917C3.75 16.8272 5.6504 18.7248 8 18.7248H20C20.1405 18.7248 20.25 18.612 20.25 18.4782V9.50852C20.25 7.17302 18.3496 5.27539 16 5.27539H8Z" fill="black"/>
</svg>
