<svg width="24" height="24" viewBox="0 0 24 24" fill="none" xmlns="http://www.w3.org/2000/svg">
<path fill-rule="evenodd" clip-rule="evenodd" d="M11.6735 8.25781C10.5144 8.25781 9.57495 9.19761 9.57495 10.3554C9.57495 11.5143 10.5146 12.4539 11.6735 12.4539C12.8324 12.4539 13.772 11.5143 13.772 10.3554C13.772 9.19761 12.8325 8.25781 11.6735 8.25781ZM8.07495 10.3554C8.07495 8.36885 9.68632 6.75781 11.6735 6.75781C13.6606 6.75781 15.272 8.36885 15.272 10.3554C15.272 11.1155 15.0363 11.8206 14.6339 12.4016L15.7047 13.471C15.9977 13.7637 15.998 14.2386 15.7053 14.5317C15.4126 14.8247 14.9377 14.825 14.6447 14.5323L13.5422 13.4312C12.9975 13.7629 12.3578 13.9539 11.6735 13.9539C9.68615 13.9539 8.07495 12.3427 8.07495 10.3554Z" fill="black"/>
<path fill-rule="evenodd" clip-rule="evenodd" d="M2.25 6.76527C2.25 4.69741 3.93132 3.02539 6 3.02539H18C20.0687 3.02539 21.75 4.6974 21.75 6.76527V14.7435C21.75 16.8114 20.0687 18.4834 18 18.4834H8.40809C8.25577 18.4834 8.10725 18.5294 7.98217 18.6152L4.99057 20.6653C3.83321 21.4584 2.25 20.6359 2.25 19.2254V6.76527ZM6 4.52539C4.75497 4.52539 3.75 5.53061 3.75 6.76527V19.2254C3.75 19.4199 3.97299 19.5442 4.14262 19.428L7.13422 17.3778C7.50927 17.1208 7.95344 16.9834 8.40809 16.9834H18C19.245 16.9834 20.25 15.9782 20.25 14.7435V6.76527C20.25 5.53061 19.245 4.52539 18 4.52539H6Z" fill="black"/>
</svg>
