<svg width="24" height="24" viewBox="0 0 24 24" fill="none" xmlns="http://www.w3.org/2000/svg">
<path fill-rule="evenodd" clip-rule="evenodd" d="M7.9573 9.94555C8.35646 9.5174 8.91343 9.29395 9.53011 9.29395H14.4696C15.0872 9.29395 15.6447 9.51702 16.044 9.94599C16.4376 10.3689 16.6218 10.9311 16.6218 11.5175V13.5261C16.6218 14.1125 16.4376 14.6747 16.044 15.0976C15.6447 15.5266 15.0872 15.7496 14.4696 15.7496H9.53011C8.91272 15.7496 8.35538 15.5265 7.95614 15.0977C7.5625 14.675 7.37793 14.1128 7.37793 13.5261V11.5175C7.37793 10.93 7.56358 10.3679 7.9573 9.94555ZM9.05446 10.9684C8.96252 11.067 8.87793 11.2417 8.87793 11.5175V13.5261C8.87793 13.8028 8.96244 13.9773 9.0539 14.0755C9.13975 14.1677 9.2835 14.2496 9.53011 14.2496H14.4696C14.7168 14.2496 14.8604 14.1676 14.946 14.0756C15.0373 13.9775 15.1218 13.8031 15.1218 13.5261V11.5175C15.1218 11.2405 15.0373 11.0661 14.946 10.968C14.8604 10.876 14.7168 10.7939 14.4696 10.7939H9.53011C9.28509 10.7939 9.14097 10.8756 9.05446 10.9684Z" fill="black"/>
<path fill-rule="evenodd" clip-rule="evenodd" d="M7.78564 7C7.78564 6.58579 8.12143 6.25 8.53564 6.25H15.4646C15.8788 6.25 16.2146 6.58579 16.2146 7C16.2146 7.41421 15.8788 7.75 15.4646 7.75H8.53564C8.12143 7.75 7.78564 7.41421 7.78564 7Z" fill="black"/>
<path fill-rule="evenodd" clip-rule="evenodd" d="M2.25 6.30957C2.25 4.2385 3.92893 2.55957 6 2.55957H18C20.0711 2.55957 21.75 4.2385 21.75 6.30957V15.0929C21.75 17.1639 20.0711 18.8429 18 18.8429H15.838C15.6391 18.8429 15.4483 18.9219 15.3077 19.0625L13.591 20.7792C12.7123 21.6579 11.2877 21.6579 10.409 20.7792L8.69231 19.0625C8.55166 18.9219 8.36089 18.8429 8.16198 18.8429H6C3.92893 18.8429 2.25 17.1639 2.25 15.0929V6.30957ZM6 4.05957C4.75736 4.05957 3.75 5.06693 3.75 6.30957V15.0929C3.75 16.3355 4.75736 17.3429 6 17.3429H8.16198C8.75872 17.3429 9.33101 17.5799 9.75297 18.0019L11.4697 19.7186C11.7626 20.0115 12.2374 20.0115 12.5303 19.7186L14.247 18.0019C14.669 17.5799 15.2413 17.3429 15.838 17.3429H18C19.2426 17.3429 20.25 16.3355 20.25 15.0929V6.30957C20.25 5.06693 19.2426 4.05957 18 4.05957H6Z" fill="black"/>
</svg>
