<svg width="24" height="24" viewBox="0 0 24 24" fill="none" xmlns="http://www.w3.org/2000/svg">
<path fill-rule="evenodd" clip-rule="evenodd" d="M16.6094 18.7793C17.0236 18.7793 17.3594 19.1151 17.3594 19.5293V20.9999C17.3594 21.4141 17.0236 21.7499 16.6094 21.7499C16.1952 21.7499 15.8594 21.4141 15.8594 20.9999V19.5293C15.8594 19.1151 16.1952 18.7793 16.6094 18.7793Z" fill="black"/>
<path fill-rule="evenodd" clip-rule="evenodd" d="M16.6095 12.75C16.0898 12.75 15.6624 13.1744 15.6624 13.7051V15.6635C15.6624 16.1939 16.0895 16.6181 16.6095 16.6181C17.1299 16.6181 17.5567 16.194 17.5567 15.6635V13.7051C17.5567 13.1743 17.1296 12.75 16.6095 12.75ZM14.1624 13.7051C14.1624 12.3525 15.2548 11.25 16.6095 11.25C17.9648 11.25 19.0567 12.3527 19.0567 13.7051V15.6635C19.0567 17.0161 17.9646 18.1181 16.6095 18.1181C15.2551 18.1181 14.1624 17.0163 14.1624 15.6635V13.7051Z" fill="black"/>
<path fill-rule="evenodd" clip-rule="evenodd" d="M12.8877 15.04C13.3019 15.04 13.6377 15.3758 13.6377 15.79C13.6377 17.4443 14.9714 18.7794 16.6092 18.7794C18.2477 18.7794 19.5813 17.4442 19.5813 15.79C19.5813 15.3758 19.9171 15.04 20.3313 15.04C20.7455 15.04 21.0813 15.3758 21.0813 15.79C21.0813 18.266 19.0828 20.2794 16.6092 20.2794C14.1361 20.2794 12.1377 18.2659 12.1377 15.79C12.1377 15.3758 12.4735 15.04 12.8877 15.04Z" fill="black"/>
<path fill-rule="evenodd" clip-rule="evenodd" d="M6.74554 8.71289C6.74554 8.29868 7.08133 7.96289 7.49554 7.96289H12.8876C13.3019 7.96289 13.6376 8.29868 13.6376 8.71289C13.6376 9.1271 13.3019 9.46289 12.8876 9.46289H7.49554C7.08133 9.46289 6.74554 9.1271 6.74554 8.71289ZM6.69971 12.5903C6.69971 12.1761 7.03549 11.8403 7.44971 11.8403H10.3673C10.7815 11.8403 11.1173 12.1761 11.1173 12.5903C11.1173 13.0045 10.7815 13.3403 10.3673 13.3403H7.44971C7.03549 13.3403 6.69971 13.0045 6.69971 12.5903Z" fill="black"/>
<path fill-rule="evenodd" clip-rule="evenodd" d="M2.25 6.75C2.25 4.67893 3.92893 3 6 3H18C20.0711 3 21.75 4.67893 21.75 6.75V11.3448C21.75 11.759 21.4142 12.0948 21 12.0948C20.5858 12.0948 20.25 11.759 20.25 11.3448V6.75C20.25 5.50736 19.2426 4.5 18 4.5H6C4.75736 4.5 3.75 5.50736 3.75 6.75V19.2523C3.75 19.4536 3.97578 19.5724 4.14165 19.4583L7.13325 17.4012C7.50835 17.1433 7.95287 17.0052 8.40809 17.0052H9.87556C10.2898 17.0052 10.6256 17.341 10.6256 17.7552C10.6256 18.1694 10.2898 18.5052 9.87556 18.5052H8.40809C8.25635 18.5052 8.10817 18.5513 7.98314 18.6372L4.99154 20.6943C3.83042 21.4927 2.25 20.6614 2.25 19.2523V6.75Z" fill="black"/>
</svg>
