<svg width="24" height="24" viewBox="0 0 24 24" fill="none" xmlns="http://www.w3.org/2000/svg">
<path fill-rule="evenodd" clip-rule="evenodd" d="M9 9.79102C9.41421 9.79102 9.75 10.1268 9.75 10.541V13.541C9.75 13.9552 9.41421 14.291 9 14.291C8.58579 14.291 8.25 13.9552 8.25 13.541V10.541C8.25 10.1268 8.58579 9.79102 9 9.79102ZM15 9.79102C15.4142 9.79102 15.75 10.1268 15.75 10.541V13.541C15.75 13.9552 15.4142 14.291 15 14.291C14.5858 14.291 14.25 13.9552 14.25 13.541V10.541C14.25 10.1268 14.5858 9.79102 15 9.79102Z" fill="black"/>
<path fill-rule="evenodd" clip-rule="evenodd" d="M2.25 9.54102C2.25 6.36538 4.82436 3.79102 8 3.79102H16C19.1756 3.79102 21.75 6.36538 21.75 9.54102V18.541C21.75 19.5075 20.9665 20.291 20 20.291H8C4.82436 20.291 2.25 17.7167 2.25 14.541V9.54102ZM8 5.29102C5.65279 5.29102 3.75 7.19381 3.75 9.54102V14.541C3.75 16.8882 5.65279 18.791 8 18.791H20C20.1381 18.791 20.25 18.6791 20.25 18.541V9.54102C20.25 7.19381 18.3472 5.29102 16 5.29102H8Z" fill="black"/>
</svg>
