<svg width="24" height="24" viewBox="0 0 24 24" fill="none" xmlns="http://www.w3.org/2000/svg">
<path fill-rule="evenodd" clip-rule="evenodd" d="M18.8052 3.87473L15.1851 7.82603C15.0137 8.02 14.9062 8.26276 14.8776 8.52009C14.8775 8.52042 14.8776 8.51976 14.8776 8.52009L14.7853 9.37789C14.7723 9.49842 14.8779 9.59742 14.9964 9.57755L15.8284 9.43839C16.1074 9.39169 16.3625 9.25083 16.5506 9.04023L16.5569 9.0332L20.1429 5.11944L20.1462 5.1158C20.2922 4.95862 20.284 4.71072 20.124 4.56237C20.1239 4.56235 20.124 4.56239 20.124 4.56237L19.3598 3.85463C19.3598 3.85455 19.3599 3.85472 19.3598 3.85463C19.2006 3.70769 18.9526 3.7169 18.8052 3.87473ZM17.7038 2.85643C18.4146 2.08928 19.6115 2.04457 20.378 2.75314L21.1432 3.46188C21.9086 4.17097 21.9575 5.36727 21.2474 6.13435L17.6658 10.0434C17.2511 10.5058 16.6904 10.815 16.076 10.9178L15.2445 11.0569C15.2444 11.0569 15.2446 11.0569 15.2445 11.0569C14.1451 11.2411 13.1747 10.3245 13.2939 9.21744C13.2939 9.21748 13.2939 9.21739 13.2939 9.21744L13.3863 8.3584L13.3865 8.35619C13.4493 7.7885 13.687 7.25276 14.0681 6.82492L14.0751 6.81704L17.7038 2.85643Z" fill="black"/>
<path fill-rule="evenodd" clip-rule="evenodd" d="M6.89203 13.208C6.89203 13.6222 7.22781 13.958 7.64203 13.958H13.0341C13.4483 13.958 13.7841 13.6222 13.7841 13.208C13.7841 12.7938 13.4483 12.458 13.0341 12.458H7.64203C7.22781 12.458 6.89203 12.7938 6.89203 13.208ZM6.84619 9.33062C6.84619 9.74484 7.18198 10.0806 7.59619 10.0806H10.5138C10.928 10.0806 11.2638 9.74484 11.2638 9.33062C11.2638 8.91641 10.928 8.58062 10.5138 8.58062H7.59619C7.18198 8.58062 6.84619 8.91641 6.84619 9.33062Z" fill="black"/>
<path fill-rule="evenodd" clip-rule="evenodd" d="M2.25 6.31055C2.25 4.23948 3.92893 2.56055 6 2.56055H18C18.1182 2.56055 18.2354 2.56604 18.3512 2.57683C18.7636 2.61523 19.0668 2.9807 19.0284 3.39313C18.99 3.80556 18.6246 4.10877 18.2121 4.07036C18.1425 4.06388 18.0717 4.06055 18 4.06055H6C4.75736 4.06055 3.75 5.06791 3.75 6.31055V15.0938C3.75 16.3365 4.75736 17.3438 6 17.3438H8.16198C8.75872 17.3438 9.33101 17.5809 9.75297 18.0029L11.4697 19.7196C11.7626 20.0124 12.2374 20.0124 12.5303 19.7196L14.247 18.0029C14.669 17.5809 15.2413 17.3438 15.838 17.3438H18C19.2426 17.3438 20.25 16.3365 20.25 15.0938V6.31055C20.25 6.08809 20.2179 5.87443 20.1587 5.67327C20.0416 5.27594 20.2688 4.85895 20.6662 4.7419C21.0635 4.62485 21.4805 4.85206 21.5975 5.24939C21.6969 5.58675 21.75 5.94311 21.75 6.31055V15.0938C21.75 17.1649 20.0711 18.8438 18 18.8438H15.838C15.6391 18.8438 15.4483 18.9229 15.3077 19.0635L13.591 20.7802C12.7123 21.6589 11.2877 21.6589 10.409 20.7802L8.69231 19.0635C8.55166 18.9229 8.36089 18.8438 8.16198 18.8438H6C3.92893 18.8438 2.25 17.1649 2.25 15.0938V6.31055Z" fill="black"/>
</svg>
