<svg width="24" height="24" viewBox="0 0 24 24" fill="none" xmlns="http://www.w3.org/2000/svg">
<path d="M13.1001 16.7501H10.3801C9.66008 16.7501 9.27007 16.7499 8.87007 16.5499C8.50007 16.3599 8.21008 16.0803 8.03008 15.7203C7.83008 15.3203 7.83008 14.9303 7.83008 14.2203V11.6202C7.83008 11.3802 7.83007 11.2202 7.87007 11.0402C7.91007 10.8602 7.98007 10.7002 8.06007 10.5602C8.15007 10.4002 8.27007 10.2802 8.43007 10.1002C8.80007 9.70022 9.95008 8.45007 10.6001 7.69007C11.1101 7.20007 11.5101 7.24018 11.8501 7.31018C12.2701 7.39018 12.6201 7.63989 12.8401 8.00989C13.1601 8.53989 13.1901 9.30997 12.9501 10.34H13.0401C14.0901 10.34 14.6601 10.34 15.1601 10.63C15.6301 10.92 15.9601 11.35 16.1101 11.86C16.2701 12.42 16.1201 12.9799 15.8501 13.9899L15.6201 14.84C15.4701 15.38 15.3801 15.7001 15.1601 16.0001C14.9501 16.2901 14.6601 16.5002 14.3301 16.6202C14.0201 16.7502 13.6801 16.7501 13.1101 16.7501H13.1001ZM11.5801 8.83997C10.9301 9.59997 9.89008 10.73 9.53008 11.11C9.44008 11.2 9.39008 11.2499 9.36008 11.2999C9.33008 11.3999 9.34007 11.4802 9.34007 11.6002V14.2003C9.34007 14.5703 9.34008 14.9502 9.38008 15.0402C9.41008 15.1102 9.47008 15.1603 9.55008 15.2003C9.63008 15.2403 10.0101 15.2399 10.3901 15.2399H13.1101C13.4201 15.2399 13.7101 15.2401 13.7801 15.2101C13.8701 15.1701 13.9201 15.1402 13.9601 15.0802C14.0101 15.0102 14.0801 14.7501 14.1701 14.4401L14.4001 13.5802C14.5701 12.9502 14.7201 12.4101 14.6701 12.2501C14.6301 12.1001 14.5301 11.9703 14.3901 11.8903C14.2601 11.8103 13.7201 11.8102 13.0401 11.8102H12.1701C11.7601 11.8102 11.5301 11.6203 11.4101 11.4503C11.2901 11.2903 11.1801 11.0102 11.3101 10.6202C11.6701 9.50024 11.6301 8.99995 11.5801 8.81995V8.83997Z" fill="black"/>
<path d="M16 20.5693H4C3.04 20.5693 2.25 19.7793 2.25 18.8193V9.17969C2.25 6.00969 4.83 3.42969 8 3.42969H16C19.17 3.42969 21.75 6.00969 21.75 9.17969V14.8193C21.75 17.9893 19.17 20.5693 16 20.5693ZM8 4.92969C5.66 4.92969 3.75 6.83969 3.75 9.17969V18.8193C3.75 18.9593 3.86 19.0693 4 19.0693H16C18.34 19.0693 20.25 17.1593 20.25 14.8193V9.17969C20.25 6.83969 18.34 4.92969 16 4.92969H8Z" fill="black"/>
</svg>
