<svg width="24" height="24" viewBox="0 0 24 24" fill="none" xmlns="http://www.w3.org/2000/svg">
<path fill-rule="evenodd" clip-rule="evenodd" d="M6.91309 7.67969C6.91309 7.26547 7.24887 6.92969 7.66309 6.92969H13.2202C13.6344 6.92969 13.9702 7.26547 13.9702 7.67969C13.9702 8.0939 13.6344 8.42969 13.2202 8.42969H7.66309C7.24887 8.42969 6.91309 8.0939 6.91309 7.67969ZM6.91309 11.4972C6.91309 11.083 7.24887 10.7472 7.66309 10.7472H10.0619C10.4761 10.7472 10.8119 11.083 10.8119 11.4972C10.8119 11.9114 10.4761 12.2472 10.0619 12.2472H7.66309C7.24887 12.2472 6.91309 11.9114 6.91309 11.4972Z" fill="black"/>
<path fill-rule="evenodd" clip-rule="evenodd" d="M2.25 6.00942C2.25 3.94155 3.93132 2.26953 6 2.26953H18C20.0687 2.26953 21.75 3.94155 21.75 6.00942V10.9978C21.75 11.412 21.4142 11.7478 21 11.7478C20.5858 11.7478 20.25 11.412 20.25 10.9978V6.00942C20.25 4.77475 19.245 3.76953 18 3.76953H6C4.75497 3.76953 3.75 4.77475 3.75 6.00942V18.4696C3.75 18.6641 3.97299 18.7884 4.14262 18.6722L7.13422 16.622C7.50927 16.365 7.95344 16.2276 8.40809 16.2276H10.0112C10.4255 16.2276 10.7612 16.5633 10.7612 16.9776C10.7612 17.3918 10.4255 17.7276 10.0112 17.7276H8.40809C8.25577 17.7276 8.10725 17.7736 7.98217 17.8593L4.99057 19.9095C3.83321 20.7026 2.25 19.8801 2.25 18.4696V6.00942Z" fill="black"/>
<path fill-rule="evenodd" clip-rule="evenodd" d="M14.7819 15.8418C14.5294 16.2734 14.3848 16.7752 14.3848 17.3101C14.3848 18.9206 15.6954 20.2305 17.3176 20.2305C17.8546 20.2305 18.3575 20.0869 18.79 19.8364L14.7819 15.8418ZM14.1848 14.1826C13.3819 14.9823 12.8848 16.0878 12.8848 17.3101C12.8848 19.7538 14.8718 21.7305 17.3176 21.7305C18.5401 21.7305 19.6479 21.2366 20.4503 20.4375C21.2533 19.6378 21.7504 18.5323 21.7504 17.3101C21.7504 14.8663 19.7634 12.8896 17.3176 12.8896C16.0951 12.8896 14.9872 13.3835 14.1848 14.1826ZM15.8452 14.7837L19.8533 18.7783C20.1058 18.3467 20.2504 17.845 20.2504 17.3101C20.2504 15.6995 18.9397 14.3896 17.3176 14.3896C16.7806 14.3896 16.2777 14.5332 15.8452 14.7837Z" fill="black"/>
</svg>
