<svg width="24" height="24" viewBox="0 0 24 24" fill="none" xmlns="http://www.w3.org/2000/svg">
<path fill-rule="evenodd" clip-rule="evenodd" d="M16.9623 12.6445C17.3766 12.6445 17.7123 12.9803 17.7123 13.3945V13.7748H18.9686C18.9793 13.7745 18.99 13.7745 19.0006 13.7748H20.25C20.6642 13.7748 21 14.1105 21 14.5248C21 14.939 20.6642 15.2748 20.25 15.2748H19.6757C19.6639 15.3487 19.6502 15.4267 19.6345 15.5084C19.5306 16.0477 19.3324 16.7661 18.9684 17.5314C18.7609 17.9677 18.4989 18.4198 18.1703 18.8619C18.6661 19.1924 19.2541 19.4639 19.9473 19.6187C20.3515 19.7091 20.606 20.11 20.5157 20.5142C20.4254 20.9185 20.0244 21.173 19.6202 21.0826C18.634 20.8623 17.8182 20.4599 17.1492 19.9801C16.3954 20.6527 15.4286 21.2364 14.1931 21.6142C13.797 21.7353 13.3777 21.5124 13.2566 21.1163C13.1355 20.7202 13.3584 20.3009 13.7545 20.1798C14.6915 19.8932 15.4335 19.4665 16.0215 18.9724C15.5318 18.434 15.1745 17.8864 14.9258 17.4358C14.7257 17.0731 14.8575 16.6169 15.2202 16.4168C15.5829 16.2167 16.0391 16.3484 16.2392 16.7111C16.4328 17.062 16.6958 17.4666 17.0421 17.8638C17.2732 17.539 17.461 17.2085 17.6138 16.8871C17.9023 16.2806 18.0646 15.7082 18.1517 15.2748H16.9759C16.9714 15.2748 16.9669 15.2749 16.9623 15.2749C16.9578 15.2749 16.9533 15.2748 16.9488 15.2748H13.6743C13.2601 15.2748 12.9243 14.939 12.9243 14.5248C12.9243 14.1105 13.2601 13.7748 13.6743 13.7748H16.2123V13.3945C16.2123 12.9803 16.5481 12.6445 16.9623 12.6445Z" fill="black"/>
<path fill-rule="evenodd" clip-rule="evenodd" d="M11.0419 6.38477C11.3401 6.38477 11.6099 6.56133 11.7292 6.83452L13.4192 10.703C13.4201 10.705 13.421 10.707 13.4218 10.709L13.8895 11.7794C14.0553 12.159 13.882 12.6011 13.5024 12.7669C13.1228 12.9328 12.6807 12.7595 12.5149 12.3799L12.2423 11.756H9.84156L9.09689 13.4606C8.93107 13.8401 8.48894 14.0134 8.10937 13.8476C7.72979 13.6818 7.55651 13.2396 7.72233 12.8601L8.65215 10.7317C8.65895 10.7144 8.66638 10.6974 8.67441 10.6807L10.3547 6.83452C10.474 6.56133 10.7438 6.38477 11.0419 6.38477ZM10.4969 10.256H11.587L11.0419 9.00823L10.4969 10.256Z" fill="black"/>
<path fill-rule="evenodd" clip-rule="evenodd" d="M2.25 8.10352C2.25 4.92788 4.82436 2.35352 8 2.35352H16C19.1756 2.35352 21.75 4.92788 21.75 8.10352V10.7519C21.75 11.1661 21.4142 11.5019 21 11.5019C20.5858 11.5019 20.25 11.1661 20.25 10.7519V8.10352C20.25 5.75631 18.3472 3.85352 16 3.85352H8C5.65279 3.85352 3.75 5.75631 3.75 8.10352V17.7519C3.75 17.89 3.86193 18.0019 4 18.0019H11C11.4142 18.0019 11.75 18.3377 11.75 18.7519C11.75 19.1661 11.4142 19.5019 11 19.5019H4C3.0335 19.5019 2.25 18.7184 2.25 17.7519V8.10352Z" fill="black"/>
</svg>
