<svg width="24" height="24" viewBox="0 0 24 24" fill="none" xmlns="http://www.w3.org/2000/svg">
<path fill-rule="evenodd" clip-rule="evenodd" d="M7.25 10.7988C7.25 8.1758 9.37643 6.04883 12 6.04883C14.6235 6.04883 16.75 8.1758 16.75 10.7988C16.75 13.4223 14.6235 15.5488 12 15.5488C9.37648 15.5488 7.25 13.4223 7.25 10.7988ZM12 7.54883C10.205 7.54883 8.75 9.00412 8.75 10.7988C8.75 12.5939 10.2049 14.0488 12 14.0488C13.7951 14.0488 15.25 12.5939 15.25 10.7988C15.25 9.00412 13.795 7.54883 12 7.54883Z" fill="black"/>
<path fill-rule="evenodd" clip-rule="evenodd" d="M11.8618 6.05078C12.276 6.05078 12.6118 6.38657 12.6118 6.80078V10.1861H15.9971C16.4114 10.1861 16.7471 10.5219 16.7471 10.9361C16.7471 11.3503 16.4114 11.6861 15.9971 11.6861H12.3063C11.6466 11.6861 11.1118 11.1514 11.1118 10.4917V6.80078C11.1118 6.38657 11.4476 6.05078 11.8618 6.05078Z" fill="black"/>
<path fill-rule="evenodd" clip-rule="evenodd" d="M2.25 6.30957C2.25 4.2385 3.92893 2.55957 6 2.55957H18C20.0711 2.55957 21.75 4.2385 21.75 6.30957V15.0929C21.75 17.1639 20.0711 18.8429 18 18.8429H15.838C15.6391 18.8429 15.4483 18.9219 15.3077 19.0625L13.591 20.7792C12.7123 21.6579 11.2877 21.6579 10.409 20.7792L8.69231 19.0625C8.55166 18.9219 8.36089 18.8429 8.16198 18.8429H6C3.92893 18.8429 2.25 17.1639 2.25 15.0929V6.30957ZM6 4.05957C4.75736 4.05957 3.75 5.06693 3.75 6.30957V15.0929C3.75 16.3355 4.75736 17.3429 6 17.3429H8.16198C8.75872 17.3429 9.33101 17.5799 9.75297 18.0019L11.4697 19.7186C11.7626 20.0115 12.2374 20.0115 12.5303 19.7186L14.247 18.0019C14.669 17.5799 15.2413 17.3429 15.838 17.3429H18C19.2426 17.3429 20.25 16.3355 20.25 15.0929V6.30957C20.25 5.06693 19.2426 4.05957 18 4.05957H6Z" fill="black"/>
</svg>
