<svg width="24" height="24" viewBox="0 0 24 24" fill="none" xmlns="http://www.w3.org/2000/svg">
<path fill-rule="evenodd" clip-rule="evenodd" d="M2.25 6.78906C2.25 4.718 3.92893 3.03906 6 3.03906H18C20.0711 3.03906 21.75 4.71799 21.75 6.78906V14.7943C21.75 16.8654 20.0711 18.5443 18 18.5443H8.40809C8.25635 18.5443 8.10817 18.5903 7.98314 18.6763L4.99154 20.7334C3.83042 21.5318 2.25 20.7005 2.25 19.2914V6.78906ZM6 4.53906C4.75736 4.53906 3.75 5.54642 3.75 6.78906V19.2914C3.75 19.4927 3.97578 19.6114 4.14165 19.4974L7.13325 17.4403C7.50835 17.1824 7.95287 17.0443 8.40809 17.0443H18C19.2426 17.0443 20.25 16.0369 20.25 14.7943V6.78906C20.25 5.54642 19.2426 4.53906 18 4.53906H6Z" fill="black"/>
<path fill-rule="evenodd" clip-rule="evenodd" d="M10.1344 8.79663C10.0037 9.96715 10.0002 11.2276 10.1351 12.5516C10.1698 12.8183 10.2834 12.9381 10.3736 12.9892C10.4676 13.0424 10.6565 13.0883 10.9605 12.9684C11.9803 12.5543 12.9107 11.9446 13.6549 11.2678C13.8952 11.0448 13.9651 10.8305 13.9643 10.6677C13.9634 10.5033 13.89 10.2933 13.6574 10.0816L13.6539 10.0785L13.6539 10.0785C12.8722 9.35818 11.9691 8.79362 10.9537 8.3751L10.9471 8.37241L10.9472 8.37238C10.7 8.26777 10.5078 8.29646 10.3928 8.35722C10.2891 8.41201 10.1702 8.53268 10.1344 8.79663ZM11.5283 6.98953C10.9241 6.73489 10.2562 6.73297 9.69219 7.03089C9.11657 7.33495 8.73774 7.90523 8.64615 8.60881L8.64603 8.6088L8.64454 8.62208C8.49996 9.91191 8.4977 11.2854 8.64377 12.7131L8.64555 12.7288C8.72772 13.393 9.06582 13.9726 9.6347 14.2946C10.2004 14.6148 10.8776 14.6149 11.516 14.3617L11.516 14.3617L11.5214 14.3596C12.7177 13.8743 13.7993 13.1647 14.667 12.375L14.667 12.375L14.6714 12.3709C15.174 11.9061 15.4676 11.3056 15.4642 10.66C15.4609 10.0162 15.1629 9.42435 14.6688 8.97391C13.7491 8.12679 12.6942 7.47047 11.5283 6.98953Z" fill="black"/>
</svg>
