<svg width="24" height="24" viewBox="0 0 24 24" fill="none" xmlns="http://www.w3.org/2000/svg">
<path fill-rule="evenodd" clip-rule="evenodd" d="M11.8484 6.88508C12.0778 6.72491 12.3773 6.70572 12.6252 6.83531C13.9994 7.55355 15.2219 8.58472 15.9486 10.0909C16.6471 11.4566 16.7192 13.0556 16.202 14.3975C15.6786 15.7553 14.5426 16.8594 12.8697 17.1422C8.51361 18.0791 5.57217 12.7458 8.86512 9.6006C9.01379 9.45438 9.44879 9.04748 9.66944 8.88997C9.89806 8.72676 10.1987 8.70499 10.4485 8.83356C10.6982 8.96213 10.8552 9.21948 10.8552 9.50039C10.8552 9.49939 10.8552 9.50006 10.8554 9.50255C10.8558 9.51121 10.8574 9.5418 10.8625 9.60037C10.8684 9.66738 10.8774 9.7545 10.8896 9.85464C10.9141 10.056 10.9499 10.2979 10.9945 10.5236C10.9996 10.5491 11.0046 10.5738 11.0097 10.5978C11.1364 10.4452 11.2617 10.2015 11.3631 9.86608C11.5768 9.15851 11.6203 8.25682 11.5341 7.59718C11.4979 7.31977 11.6191 7.04525 11.8484 6.88508ZM11.1409 11.0544C11.1409 11.0545 11.1399 11.0527 11.138 11.0489C11.14 11.0524 11.141 11.0543 11.1409 11.0544ZM13.0532 8.87696C13.0168 9.35912 12.9348 9.85025 12.799 10.2998C12.6574 10.7687 12.4414 11.2458 12.1101 11.6185C11.7818 11.9879 11.3299 12.2615 10.7638 12.2885C10.6419 12.3075 10.5153 12.2999 10.3919 12.2628C10.2152 12.2095 10.0914 12.1101 10.0154 12.0334C9.87329 11.8901 9.79147 11.718 9.74582 11.6093C9.675 11.4408 9.6184 11.2421 9.57315 11.0482C7.94829 13.1458 9.80624 16.2778 12.5677 15.6728C12.5805 15.67 12.5934 15.6675 12.6063 15.6654C13.7087 15.4837 14.4467 14.7806 14.8023 13.858C15.1649 12.9173 15.1198 11.7597 14.6098 10.7675L14.6009 10.7495C14.2409 10.0004 13.7102 9.38561 13.0532 8.87696Z" fill="black"/>
<path fill-rule="evenodd" clip-rule="evenodd" d="M2.25 9.17578C2.25 6.00014 4.82436 3.42578 8 3.42578H16C19.1756 3.42578 21.75 6.00014 21.75 9.17578V14.8242C21.75 17.9998 19.1756 20.5742 16 20.5742H4C3.0335 20.5742 2.25 19.7907 2.25 18.8242V9.17578ZM8 4.92578C5.65279 4.92578 3.75 6.82857 3.75 9.17578V18.8242C3.75 18.9623 3.86193 19.0742 4 19.0742H16C18.3472 19.0742 20.25 17.1714 20.25 14.8242V9.17578C20.25 6.82857 18.3472 4.92578 16 4.92578H8Z" fill="black"/>
</svg>
