<svg width="24" height="24" viewBox="0 0 24 24" fill="none" xmlns="http://www.w3.org/2000/svg">
<path fill-rule="evenodd" clip-rule="evenodd" d="M6.38527 3.64663C6.67751 3.94017 6.67645 4.41505 6.38291 4.70729L4.81615 6.26711L10.0756 6.26773C10.4898 6.26778 10.8256 6.60361 10.8255 7.01782C10.8255 7.43204 10.4897 7.76778 10.0754 7.76774L4.81614 7.76711L6.383 9.32756C6.67649 9.61985 6.67747 10.0947 6.38518 10.3882C6.09288 10.6817 5.61801 10.6827 5.32452 10.3904L2.47076 7.54831C2.32942 7.40755 2.24998 7.21629 2.25 7.01683C2.25002 6.81736 2.32949 6.62612 2.47085 6.48538L5.32461 3.64427C5.61815 3.35203 6.09302 3.35309 6.38527 3.64663Z" fill="black"/>
<path fill-rule="evenodd" clip-rule="evenodd" d="M16.5088 14.5078C16.5088 14.922 16.173 15.2578 15.7588 15.2578H9.03831C8.62409 15.2578 8.28831 14.922 8.28831 14.5078C8.28831 14.0936 8.62409 13.7578 9.03831 13.7578H15.7588C16.173 13.7578 16.5088 14.0936 16.5088 14.5078ZM16.562 10.6197C16.562 11.0339 16.2262 11.3697 15.812 11.3697H12.4255C12.0113 11.3697 11.6755 11.0339 11.6755 10.6197C11.6755 10.2055 12.0113 9.86971 12.4255 9.86971H15.812C16.2262 9.86971 16.562 10.2055 16.562 10.6197Z" fill="black"/>
<path fill-rule="evenodd" clip-rule="evenodd" d="M11.25 4.17578C11.25 3.76157 11.5858 3.42578 12 3.42578H16C19.1756 3.42578 21.75 6.00014 21.75 9.17578V14.8242C21.75 17.9998 19.1756 20.5742 16 20.5742H4C3.0335 20.5742 2.25 19.7907 2.25 18.8242V13C2.25 12.5858 2.58579 12.25 3 12.25C3.41421 12.25 3.75 12.5858 3.75 13V18.8242C3.75 18.9623 3.86193 19.0742 4 19.0742H16C18.3472 19.0742 20.25 17.1714 20.25 14.8242V9.17578C20.25 6.82857 18.3472 4.92578 16 4.92578H12C11.5858 4.92578 11.25 4.58999 11.25 4.17578Z" fill="black"/>
</svg>
