<svg width="24" height="24" viewBox="0 0 24 24" fill="none" xmlns="http://www.w3.org/2000/svg">
<path fill-rule="evenodd" clip-rule="evenodd" d="M8.25049 13.0938C8.25049 12.6795 8.58627 12.3438 9.00049 12.3438H12.8858C13.3 12.3438 13.6358 12.6795 13.6358 13.0938C13.6358 13.508 13.3 13.8438 12.8858 13.8438H9.00049C8.58627 13.8438 8.25049 13.508 8.25049 13.0938Z" fill="black"/>
<path fill-rule="evenodd" clip-rule="evenodd" d="M10.3643 8.5166C10.3643 8.10239 10.7 7.7666 11.1143 7.7666H14.9996C15.4138 7.7666 15.7496 8.10239 15.7496 8.5166C15.7496 8.93082 15.4138 9.2666 14.9996 9.2666H11.1143C10.7 9.2666 10.3643 8.93082 10.3643 8.5166Z" fill="black"/>
<path fill-rule="evenodd" clip-rule="evenodd" d="M9.95391 8.05664C9.7271 8.05664 9.54297 8.24079 9.54297 8.46758C9.54297 8.69437 9.7271 8.87852 9.95391 8.87852C10.1801 8.87852 10.3644 8.69455 10.3644 8.46758C10.3644 8.2406 10.1801 8.05664 9.95391 8.05664ZM8.04297 8.46758C8.04297 7.41249 8.89854 6.55664 9.95391 6.55664C11.009 6.55664 11.8644 7.41268 11.8644 8.46758C11.8644 9.52247 11.009 10.3785 9.95391 10.3785C8.89854 10.3785 8.04297 9.52266 8.04297 8.46758Z" fill="black"/>
<path fill-rule="evenodd" clip-rule="evenodd" d="M14.046 12.7344C13.8196 12.7344 13.6355 12.9181 13.6355 13.1453C13.6355 13.3725 13.8196 13.5563 14.046 13.5563C14.2728 13.5563 14.4569 13.3722 14.4569 13.1453C14.4569 12.9185 14.2728 12.7344 14.046 12.7344ZM12.1355 13.1453C12.1355 12.0906 12.9902 11.2344 14.046 11.2344C15.1014 11.2344 15.9569 12.0903 15.9569 13.1453C15.9569 14.2004 15.1014 15.0563 14.046 15.0563C12.9902 15.0563 12.1355 14.2001 12.1355 13.1453Z" fill="black"/>
<path fill-rule="evenodd" clip-rule="evenodd" d="M2.25 6.75C2.25 4.67893 3.92893 3 6 3H18C20.0711 3 21.75 4.67893 21.75 6.75V14.7552C21.75 16.8263 20.0711 18.5052 18 18.5052H8.40809C8.25635 18.5052 8.10817 18.5513 7.98314 18.6372L4.99154 20.6943C3.83042 21.4927 2.25 20.6614 2.25 19.2523V6.75ZM6 4.5C4.75736 4.5 3.75 5.50736 3.75 6.75V19.2523C3.75 19.4536 3.97578 19.5724 4.14165 19.4583L7.13325 17.4012C7.50835 17.1433 7.95287 17.0052 8.40809 17.0052H18C19.2426 17.0052 20.25 15.9979 20.25 14.7552V6.75C20.25 5.50736 19.2426 4.5 18 4.5H6Z" fill="black"/>
</svg>
