<svg width="24" height="24" viewBox="0 0 24 24" fill="none" xmlns="http://www.w3.org/2000/svg">
<path fill-rule="evenodd" clip-rule="evenodd" d="M2.25 9.50854C2.25 6.33982 4.82675 3.77539 8 3.77539H16C19.1732 3.77539 21.75 6.33982 21.75 9.50854V14.4917C21.75 17.6604 19.1732 20.2248 16 20.2248H4C3.03589 20.2248 2.25 19.4452 2.25 18.4782V9.50854ZM8 5.27539C5.6504 5.27539 3.75 7.17302 3.75 9.50854V18.4782C3.75 18.612 3.85954 18.7248 4 18.7248H16C18.3496 18.7248 20.25 16.8272 20.25 14.4917V9.50854C20.25 7.17302 18.3496 5.27539 16 5.27539H8Z" fill="black"/>
<path fill-rule="evenodd" clip-rule="evenodd" d="M14.7554 11.9994C14.7554 11.4264 15.2206 10.9658 15.7898 10.9658C16.3584 10.9658 16.8244 11.4258 16.8244 11.9994C16.8244 12.5729 16.3584 13.0329 15.7898 13.0329C15.2206 13.0329 14.7554 12.5723 14.7554 11.9994Z" fill="black"/>
<path fill-rule="evenodd" clip-rule="evenodd" d="M10.7495 11.9994C10.7495 11.4264 11.2148 10.9658 11.7839 10.9658C12.3525 10.9658 12.8185 11.4258 12.8185 11.9994C12.8185 12.5729 12.3525 13.0329 11.7839 13.0329C11.2147 13.0329 10.7495 12.5723 10.7495 11.9994Z" fill="black"/>
<path fill-rule="evenodd" clip-rule="evenodd" d="M6.74365 11.9994C6.74365 11.4264 7.20889 10.9658 7.77808 10.9658C8.34666 10.9658 8.81267 11.4258 8.81267 11.9994C8.81267 12.5729 8.34667 13.0329 7.77808 13.0329C7.20889 13.0329 6.74365 12.5723 6.74365 11.9994Z" fill="black"/>
</svg>
