<svg width="24" height="24" viewBox="0 0 24 24" fill="none" xmlns="http://www.w3.org/2000/svg">
<path fill-rule="evenodd" clip-rule="evenodd" d="M4.779 13.7058C3.47095 14.4631 2.6865 16.031 3.11994 17.7163C3.44865 18.9962 4.52883 20.0085 5.82623 20.2635C6.01919 20.3013 6.20924 20.3246 6.39541 20.3324C7.33791 20.3731 8.04769 19.4762 7.82855 18.5589L6.88605 14.6231C6.664 13.6942 5.60611 13.2268 4.779 13.7058Z" stroke="black" stroke-width="1.5" stroke-linecap="round" stroke-linejoin="round"/>
<path fill-rule="evenodd" clip-rule="evenodd" d="M19.2204 13.7062C20.5285 14.4635 21.3129 16.0314 20.8795 17.7167C20.5508 18.9966 19.4706 20.0089 18.1732 20.2639C17.9802 20.3018 17.7902 20.325 17.604 20.3328C16.6615 20.3735 15.9517 19.4766 16.1709 18.5593L17.1134 14.6235C17.3354 13.6946 18.3933 13.2272 19.2204 13.7062Z" stroke="black" stroke-width="1.5" stroke-linecap="round" stroke-linejoin="round"/>
<path fill-rule="evenodd" clip-rule="evenodd" d="M5.60403 8.20276C5.12115 7.71987 5.09109 6.93252 5.5604 6.43606C5.6147 6.37885 5.66997 6.32164 5.72718 6.26443C9.19173 2.79988 14.8079 2.79988 18.2725 6.26443C18.3287 6.32067 18.383 6.37691 18.4373 6.43412C18.9076 6.93155 18.8776 7.72084 18.3937 8.2047C17.8808 8.71764 17.0575 8.68952 16.5552 8.16688C16.5252 8.13585 16.4951 8.10483 16.4641 8.0738C13.9983 5.59828 10.0024 5.59828 7.52685 8.0738C7.49679 8.10386 7.46673 8.13391 7.43764 8.16494C6.93633 8.68661 6.11601 8.71376 5.60403 8.20276Z" stroke="black" stroke-width="1.5" stroke-linecap="round" stroke-linejoin="round"/>
<path opacity="0.4" d="M4.37695 13.9736V12.0566C4.37695 10.5982 4.79099 9.23007 5.50175 8.07812" stroke="black" stroke-width="1.5" stroke-linecap="round" stroke-linejoin="round"/>
<path opacity="0.4" d="M18.4971 8.07812C19.2078 9.23007 19.6219 10.5982 19.6219 12.0566V13.9736" stroke="black" stroke-width="1.5" stroke-linecap="round" stroke-linejoin="round"/>
</svg>
