<svg width="24" height="24" viewBox="0 0 24 24" fill="none" xmlns="http://www.w3.org/2000/svg">
<path fill-rule="evenodd" clip-rule="evenodd" d="M5.17157 19.7555C5.69129 20.6573 6.84515 20.9656 7.74593 20.4449C8.64575 19.9242 8.95409 18.7733 8.43437 17.8725L6.85194 15.1304C6.33222 14.2296 5.18127 13.9203 4.27952 14.44L4.05844 14.567C3.49315 14.8938 3.20808 15.5648 3.40103 16.1883C3.74428 17.2994 4.33285 18.495 5.17157 19.7555Z" stroke="black" stroke-width="1.5" stroke-linecap="round" stroke-linejoin="round"/>
<path fill-rule="evenodd" clip-rule="evenodd" d="M18.8415 19.7552C18.3217 20.657 17.1679 20.9653 16.2671 20.4446C15.3673 19.9239 15.059 18.773 15.5787 17.8722L17.1611 15.1301C17.6808 14.2293 18.8318 13.92 19.7335 14.4397L19.9546 14.5667C20.5199 14.8935 20.805 15.5645 20.612 16.188C20.2688 17.2991 19.6802 18.4947 18.8415 19.7552Z" stroke="black" stroke-width="1.5" stroke-linecap="round" stroke-linejoin="round"/>
<path fill-rule="evenodd" clip-rule="evenodd" d="M5.60793 7.83938C5.12506 7.3565 5.095 6.56917 5.5643 6.07272C5.6186 6.01551 5.67387 5.9583 5.73107 5.90109C9.19555 2.43661 14.8116 2.43661 18.2761 5.90109C18.3323 5.95733 18.3866 6.01357 18.4409 6.07078C18.9112 6.5682 18.8812 7.35747 18.3973 7.84132C17.8844 8.35425 17.0612 8.3271 16.5589 7.8035C16.5288 7.77247 16.4988 7.74145 16.4678 7.71042C14.002 5.23496 10.0062 5.23496 7.5307 7.71042C7.50064 7.74048 7.47156 7.77053 7.4415 7.80156C6.9402 8.32322 6.11989 8.35134 5.60793 7.83938Z" stroke="black" stroke-width="1.5" stroke-linecap="round" stroke-linejoin="round"/>
<path opacity="0.4" d="M18.6426 7.48242C20.1096 9.08425 21.0007 11.2077 21.0007 13.5474C21.0007 14.3939 20.8834 15.2133 20.6584 15.987" stroke="black" stroke-width="1.5" stroke-linecap="round" stroke-linejoin="round"/>
<path opacity="0.4" d="M3.38688 16.1218C3.12605 15.3112 3 14.4385 3 13.5474C3 11.2077 3.89109 9.08425 5.35813 7.48242" stroke="black" stroke-width="1.5" stroke-linecap="round" stroke-linejoin="round"/>
</svg>
