<svg width="24" height="24" viewBox="0 0 24 24" fill="none" xmlns="http://www.w3.org/2000/svg">
<path opacity="0.4" d="M11.7439 3H8.92906C6.93058 3 5.31058 4.62097 5.31058 6.61849L5.31155 17.3825C5.31155 19.38 6.93155 21 8.93004 21H14.4448C16.4433 21 18.0633 19.38 18.0624 17.3815V12.0185" stroke="black" stroke-width="1.5" stroke-linecap="round" stroke-linejoin="round"/>
<path d="M14.2715 5.47403V7.07262" stroke="black" stroke-width="1.5" stroke-linecap="round" stroke-linejoin="round"/>
<path d="M18.6895 5.47461V7.0732" stroke="black" stroke-width="1.5" stroke-linecap="round" stroke-linejoin="round"/>
<path d="M16.4805 3.99414V8.55252" stroke="black" stroke-width="1.5" stroke-linecap="round" stroke-linejoin="round"/>
<path d="M11.6277 17.264V17.2872M11.6866 17.0288C11.7439 17.029 11.7998 17.0462 11.8472 17.0781C11.8947 17.1101 11.9317 17.1554 11.9534 17.2083C11.9752 17.2612 11.9807 17.3194 11.9694 17.3755C11.9581 17.4316 11.9305 17.4831 11.8899 17.5235C11.8494 17.5639 11.7978 17.5914 11.7416 17.6025C11.6855 17.6135 11.6273 17.6077 11.5745 17.5858C11.5216 17.5638 11.4764 17.5267 11.4447 17.4791C11.4129 17.4315 11.3959 17.3756 11.3959 17.3184C11.3957 17.2802 11.4031 17.2423 11.4177 17.207C11.4322 17.1717 11.4536 17.1397 11.4807 17.1127C11.5077 17.0858 11.5399 17.0645 11.5752 17.0501C11.6106 17.0357 11.6485 17.0284 11.6866 17.0288Z" stroke="black" stroke-width="1.5" stroke-linecap="round" stroke-linejoin="round"/>
</svg>
