<svg width="24" height="24" viewBox="0 0 24 24" fill="none" xmlns="http://www.w3.org/2000/svg">
<path d="M7.46796 7.65855H16.5311C19.2853 7.65855 21 9.60277 21 12.3551V16.144C21 18.8954 19.2853 20.8406 16.5301 20.8406H7.46796C4.71374 20.8406 3 18.8954 3 16.144V12.3551C3 9.60277 4.72139 7.65855 7.46796 7.65855Z" stroke="black" stroke-width="1.5" stroke-linecap="round" stroke-linejoin="round"/>
<path d="M8.39788 12.1011L6.89453 12.0801" stroke="black" stroke-width="1.5" stroke-linecap="round" stroke-linejoin="round"/>
<path opacity="0.4" fill-rule="evenodd" clip-rule="evenodd" d="M10.9746 14.2497C10.9746 12.5082 12.3871 11.0957 14.1286 11.0957C15.871 11.0957 17.2825 12.5082 17.2825 14.2497C17.2825 15.9921 15.871 17.4036 14.1286 17.4036C12.3871 17.4036 10.9746 15.9921 10.9746 14.2497Z" stroke="black" stroke-width="1.5" stroke-linecap="round" stroke-linejoin="round"/>
<path d="M7.12632 16.4267V16.4499M7.18524 16.1914C7.24247 16.1916 7.29835 16.2088 7.34583 16.2408C7.39331 16.2727 7.43025 16.318 7.452 16.371C7.47375 16.4239 7.47932 16.4821 7.46802 16.5382C7.45672 16.5943 7.42905 16.6458 7.38851 16.6862C7.34797 16.7266 7.29637 16.754 7.24022 16.7651C7.18408 16.7762 7.1259 16.7704 7.07305 16.7485C7.0202 16.7265 6.97504 16.6894 6.94327 16.6418C6.91149 16.5942 6.89454 16.5382 6.89454 16.481C6.89433 16.4428 6.90172 16.405 6.91627 16.3697C6.93082 16.3344 6.95225 16.3023 6.9793 16.2754C7.00635 16.2484 7.03848 16.2271 7.07384 16.2127C7.10919 16.1983 7.14706 16.1911 7.18524 16.1914Z" stroke="black" stroke-width="1.5" stroke-linecap="round" stroke-linejoin="round"/>
<path opacity="0.4" d="M7.46875 7.6702L11.9797 3.16016" stroke="black" stroke-width="1.5" stroke-linecap="round" stroke-linejoin="round"/>
</svg>
