<svg width="24" height="24" viewBox="0 0 24 24" fill="none" xmlns="http://www.w3.org/2000/svg">
<path fill-rule="evenodd" clip-rule="evenodd" d="M9.38019 18.2137C9.38019 19.753 8.13315 21 6.5939 21C5.05563 21 3.80859 19.753 3.80859 18.2137C3.80859 16.6754 5.05563 15.4274 6.5939 15.4274C8.13315 15.4274 9.38019 16.6754 9.38019 18.2137Z" stroke="black" stroke-width="1.5" stroke-linecap="round" stroke-linejoin="round"/>
<path fill-rule="evenodd" clip-rule="evenodd" d="M20.1927 16.2277C20.1927 17.766 18.9457 19.014 17.4064 19.014C15.8681 19.014 14.6211 17.766 14.6211 16.2277C14.6211 14.6884 15.8681 13.4414 17.4064 13.4414C18.9457 13.4414 20.1927 14.6884 20.1927 16.2277Z" stroke="black" stroke-width="1.5" stroke-linecap="round" stroke-linejoin="round"/>
<path opacity="0.4" d="M20.1927 16.2271L20.1929 3C16.6512 4.6448 12.9882 5.26929 9.38103 4.98685L9.38086 18.2137" stroke="black" stroke-width="1.5" stroke-linecap="round" stroke-linejoin="round"/>
</svg>
