<svg width="24" height="24" viewBox="0 0 24 24" fill="none" xmlns="http://www.w3.org/2000/svg">
<path opacity="0.4" d="M8.73934 21H15.2612C17.2957 21 18.9448 19.3508 18.9448 17.3163V6.68465C18.9448 4.64919 17.2957 3 15.2612 3H8.73934C6.70388 3 5.05469 4.64919 5.05469 6.68465V17.3163C5.05469 19.3508 6.70388 21 8.73934 21Z" stroke="black" stroke-width="1.5" stroke-linecap="round" stroke-linejoin="round"/>
<path fill-rule="evenodd" clip-rule="evenodd" d="M11.9994 10.4647C13.9111 10.4647 15.4618 12.0145 15.4618 13.9271C15.4618 15.8387 13.9111 17.3885 11.9994 17.3885C10.0878 17.3885 8.53705 15.8387 8.53705 13.9271C8.53705 12.0145 10.0878 10.4647 11.9994 10.4647Z" stroke="black" stroke-width="1.5" stroke-linecap="round" stroke-linejoin="round"/>
<path d="M11.9417 6.80921V6.83238M12.0007 6.57393C12.0579 6.57415 12.1138 6.59132 12.1613 6.62327C12.2087 6.65523 12.2457 6.70053 12.2674 6.75347C12.2892 6.8064 12.2948 6.8646 12.2835 6.9207C12.2722 6.9768 12.2445 7.0283 12.2039 7.06869C12.1634 7.10907 12.1118 7.13654 12.0557 7.14763C11.9995 7.15871 11.9413 7.15292 11.8885 7.13096C11.8356 7.10901 11.7905 7.07189 11.7587 7.02429C11.7269 6.97669 11.71 6.92075 11.71 6.86352C11.7098 6.82534 11.7172 6.7875 11.7317 6.7522C11.7463 6.7169 11.7677 6.68484 11.7947 6.65789C11.8218 6.63095 11.8539 6.60965 11.8893 6.59523C11.9246 6.58082 11.9625 6.57358 12.0007 6.57393Z" stroke="black" stroke-width="1.5" stroke-linecap="round" stroke-linejoin="round"/>
</svg>
