<svg width="24" height="24" viewBox="0 0 24 24" fill="none" xmlns="http://www.w3.org/2000/svg">
<path opacity="0.4" fill-rule="evenodd" clip-rule="evenodd" d="M5.7298 7.10226C6.14246 7.10226 6.62634 6.986 6.9772 6.76606L9.99673 4.87872C11.8087 3.74653 14.0207 5.106 14.1495 7.21642C14.381 10.4056 14.381 13.5948 14.1495 16.784C14.0385 18.8913 11.8087 20.2539 9.99673 19.1217L6.9772 17.2344C6.62634 17.0144 6.14875 16.8982 5.73504 16.8982C4.18705 16.7819 3.6906 16.9642 2.837 16.2603C1.93418 15.5042 2.00121 13.4828 2.00121 11.9997C2.00121 10.5177 1.93209 8.49629 2.837 7.7401C3.68432 7.03523 4.18914 7.21642 5.7298 7.10226Z" stroke="black" stroke-width="1.5" stroke-linecap="round" stroke-linejoin="round"/>
<path d="M17.5723 8.30664C18.8857 10.593 18.8857 13.4062 17.5723 15.6926" stroke="black" stroke-width="1.5" stroke-linecap="round" stroke-linejoin="round"/>
<path d="M20.0801 5.89258C22.6398 9.56252 22.6398 14.439 20.0801 18.1089" stroke="black" stroke-width="1.5" stroke-linecap="round" stroke-linejoin="round"/>
</svg>
