<svg width="24" height="24" viewBox="0 0 24 24" fill="none" xmlns="http://www.w3.org/2000/svg">
<path fill-rule="evenodd" clip-rule="evenodd" d="M12 3.75C7.44329 3.75 3.75 7.44329 3.75 12C3.75 16.5558 7.44335 20.25 12 20.25C16.5567 20.25 20.25 16.5558 20.25 12C20.25 7.44329 16.5567 3.75 12 3.75ZM2.25 12C2.25 6.61487 6.61487 2.25 12 2.25C17.3851 2.25 21.75 6.61487 21.75 12C21.75 17.3841 17.3852 21.75 12 21.75C6.61481 21.75 2.25 17.3841 2.25 12Z" fill="black"/>
<path fill-rule="evenodd" clip-rule="evenodd" d="M15.9931 9.16059C16.2859 9.45348 16.2859 9.92835 15.9931 10.2212L11.3753 14.839C11.0825 15.1318 10.6077 15.1319 10.3148 14.8391L8.00494 12.5302C7.71198 12.2374 7.71188 11.7625 8.00471 11.4696C8.29755 11.1766 8.77242 11.1765 9.06537 11.4693L10.8449 13.2481L14.9324 9.16059C15.2253 8.86769 15.7002 8.86769 15.9931 9.16059Z" fill="black"/>
</svg>
