<svg width="24" height="24" viewBox="0 0 24 24" fill="none" xmlns="http://www.w3.org/2000/svg">
<path fill-rule="evenodd" clip-rule="evenodd" d="M3.67616 4.53362C4.62201 3.51328 5.9709 2.94288 7.56659 2.94288H12.4971C12.9113 2.94288 13.2471 3.27867 13.2471 3.69288C13.2471 4.10709 12.9113 4.44288 12.4971 4.44288H7.56659C6.34331 4.44288 5.40891 4.87084 4.77621 5.55337C4.13756 6.24231 3.75 7.25251 3.75 8.5076V16.0732C3.75 17.3326 4.13125 18.3399 4.76419 19.0247C5.39053 19.7024 6.32326 20.1301 7.56659 20.1301H15.6168C16.8411 20.1301 17.7758 19.7036 18.4083 19.0231C19.0466 18.3365 19.4343 17.3286 19.4343 16.0732V11.3577C19.4343 10.9435 19.7701 10.6077 20.1843 10.6077C20.5985 10.6077 20.9343 10.9435 20.9343 11.3577V16.0732C20.9343 17.6367 20.4477 19.0324 19.507 20.0444C18.5605 21.0626 17.2114 21.6301 15.6168 21.6301H7.56659C5.9569 21.6301 4.60634 21.0639 3.66263 20.0428C2.72553 19.0289 2.25 17.6328 2.25 16.0732V8.5076C2.25 6.9447 2.73626 5.54754 3.67616 4.53362Z" fill="black"/>
<path fill-rule="evenodd" clip-rule="evenodd" d="M18.6449 3.87012C17.7581 3.87012 17.0391 4.58913 17.0391 5.47591C17.0391 6.36268 17.7581 7.0817 18.6449 7.0817C19.5316 7.0817 20.2506 6.36268 20.2506 5.47591C20.2506 4.58913 19.5316 3.87012 18.6449 3.87012ZM15.5391 5.47591C15.5391 3.76071 16.9297 2.37012 18.6449 2.37012C20.3601 2.37012 21.7506 3.76071 21.7506 5.47591C21.7506 7.19111 20.3601 8.5817 18.6449 8.5817C16.9297 8.5817 15.5391 7.19111 15.5391 5.47591Z" fill="black"/>
</svg>
