<svg width="24" height="24" viewBox="0 0 24 24" fill="none" xmlns="http://www.w3.org/2000/svg">
<path fill-rule="evenodd" clip-rule="evenodd" d="M3.69439 4.33393C4.65193 3.30122 6.01765 2.72365 7.63397 2.72365H11.5616C11.9758 2.72365 12.3116 3.05943 12.3116 3.47365C12.3116 3.88786 11.9758 4.22365 11.5616 4.22365H7.63397C6.38994 4.22365 5.43868 4.65887 4.79432 5.35381C4.14403 6.05515 3.75 7.08288 3.75 8.35863V16.0359C3.75 17.3153 4.13766 18.3399 4.78226 19.0371C5.42029 19.7271 6.36994 20.1621 7.63397 20.1621H15.8025C17.047 20.1621 17.9984 19.7284 18.6425 19.0356C19.2924 18.3366 19.6865 17.3114 19.6865 16.0359V11.8864C19.6865 11.4722 20.0223 11.1364 20.4365 11.1364C20.8507 11.1364 21.1865 11.4722 21.1865 11.8864V16.0359C21.1865 17.6197 20.6933 19.0327 19.7411 20.0569C18.783 21.0874 17.4174 21.6621 15.8025 21.6621H7.63397C6.0036 21.6621 4.63626 21.0887 3.68091 20.0554C2.73213 19.0293 2.25 17.6158 2.25 16.0359V8.35863C2.25 6.775 2.74278 5.36024 3.69439 4.33393Z" fill="black"/>
<path fill-rule="evenodd" clip-rule="evenodd" d="M7.21875 10.7817C7.21875 10.3675 7.55454 10.0317 7.96875 10.0317H9.94181C10.356 10.0317 10.6918 10.3675 10.6918 10.7817C10.6918 11.196 10.356 11.5317 9.94181 11.5317H7.96875C7.55454 11.5317 7.21875 11.196 7.21875 10.7817ZM7.21875 15.0344C7.21875 14.6202 7.55454 14.2844 7.96875 14.2844H12.8051C13.2193 14.2844 13.5551 14.6202 13.5551 15.0344C13.5551 15.4486 13.2193 15.7844 12.8051 15.7844H7.96875C7.55454 15.7844 7.21875 15.4486 7.21875 15.0344Z" fill="black"/>
<path fill-rule="evenodd" clip-rule="evenodd" d="M16.9113 3.88415C16.4015 4.04957 16.1046 4.64794 16.3275 5.34567C16.5086 5.90717 17.0246 6.47156 17.5941 6.9342C17.837 7.13157 18.0699 7.2946 18.253 7.4144C18.4382 7.29299 18.6739 7.12763 18.9194 6.92792C19.4934 6.46108 20.0055 5.89837 20.1779 5.34999L20.1791 5.34632C20.4016 4.65083 20.1047 4.05095 19.5936 3.88447C19.2892 3.78964 18.9574 3.84628 18.701 4.03666C18.4348 4.23427 18.0705 4.2337 17.8049 4.03525C17.549 3.844 17.2168 3.78769 16.9113 3.88415ZM18.2539 8.29319C17.8952 8.95187 17.8951 8.95178 17.8949 8.95169L17.8936 8.951L17.8913 8.9497L17.8842 8.94581L17.8611 8.93289C17.8419 8.92203 17.815 8.90667 17.7815 8.887C17.7145 8.84769 17.6205 8.79098 17.5071 8.71837C17.2813 8.5737 16.9741 8.36311 16.6483 8.09844C16.0228 7.59031 15.2187 6.79582 14.8995 5.80479L14.8991 5.80344C14.5019 4.56217 14.93 2.94703 16.4525 2.45604L16.4556 2.45502C17.0542 2.26491 17.6957 2.30899 18.255 2.56703C18.8114 2.31184 19.4494 2.26665 20.0463 2.4544L20.0515 2.45602C21.5715 2.94621 22.0051 4.55851 21.6083 5.80161C21.2977 6.78763 20.4907 7.5834 19.8659 8.09159C19.5394 8.35717 19.231 8.56927 19.0042 8.71515C18.8903 8.78838 18.7959 8.84564 18.7286 8.88534C18.6949 8.9052 18.6679 8.92072 18.6486 8.93168L18.6255 8.9447L18.6185 8.94861L18.6161 8.94991L18.6153 8.9504C18.6151 8.95049 18.6146 8.95077 18.2539 8.29319ZM18.2539 8.29319L18.6153 8.9504C18.3913 9.07324 18.1192 9.07385 17.8949 8.95169L18.2539 8.29319ZM17.8924 7.63604C17.8923 7.63612 17.8923 7.63611 17.8924 7.63604V7.63604Z" fill="black"/>
</svg>
