<svg width="24" height="24" viewBox="0 0 24 24" fill="none" xmlns="http://www.w3.org/2000/svg">
<path fill-rule="evenodd" clip-rule="evenodd" d="M11.6171 2.8639C11.6923 3.27124 11.423 3.66238 11.0157 3.73755C8.50319 4.20119 6.95264 6.40313 6.95264 8.2802C6.95264 9.14898 6.84593 9.81857 6.67256 10.3791C6.49948 10.9387 6.26844 11.3598 6.06439 11.716C6.04423 11.7512 6.02454 11.7855 6.00531 11.8189C5.82511 12.1324 5.68478 12.3765 5.57528 12.6752C5.46203 12.9842 5.37765 13.3691 5.3746 13.9269C5.42311 14.4615 5.5688 14.8439 5.78329 15.1334C6.00241 15.429 6.33463 15.6834 6.84248 15.8909C7.89672 16.3215 9.55073 16.4911 11.9995 16.4911C14.449 16.4911 16.1028 16.3239 17.1572 15.8943C17.6649 15.6874 17.9969 15.4334 18.2159 15.1377C18.4305 14.8479 18.5765 14.4643 18.6253 13.9269C18.62 12.9451 18.3665 12.466 18.0488 11.9119C18.0309 11.8808 18.0129 11.8494 17.9946 11.8176C17.645 11.2109 17.2262 10.4841 17.0922 9.1955C17.0493 8.78351 17.3486 8.41478 17.7605 8.37193C18.1725 8.32908 18.5413 8.62832 18.5841 9.04032C18.685 10.01 18.9722 10.5091 19.299 11.077C19.3159 11.1064 19.333 11.1359 19.3501 11.1658C19.7358 11.8386 20.1254 12.5874 20.1254 13.9583C20.1254 13.979 20.1245 13.9997 20.1228 14.0204C20.0593 14.7856 19.8417 15.4628 19.4213 16.0304C19.0014 16.5974 18.4205 16.9993 17.7232 17.2834C16.3676 17.8357 14.4429 17.9911 11.9995 17.9911C9.55524 17.9911 7.63074 17.8332 6.27523 17.2795C5.57821 16.9947 4.99774 16.5927 4.57815 16.0265C4.15799 15.4595 3.94038 14.7836 3.87708 14.0203C3.87537 13.9997 3.87451 13.979 3.87451 13.9583C3.87451 13.2211 3.98638 12.6515 4.1669 12.159C4.32323 11.7325 4.52829 11.3771 4.70264 11.075C4.72315 11.0394 4.74323 11.0046 4.76276 10.9705C4.95324 10.638 5.11673 10.3329 5.23954 9.93582C5.36208 9.53966 5.45264 9.02213 5.45264 8.2802C5.45264 5.67975 7.5195 2.85739 10.7435 2.26245C11.1508 2.18729 11.542 2.45657 11.6171 2.8639Z" fill="black"/>
<path fill-rule="evenodd" clip-rule="evenodd" d="M9.45327 19.3822C9.77667 19.1234 10.2486 19.1757 10.5075 19.4991C10.8825 19.9678 11.4327 20.2501 12.0303 20.2501C12.6382 20.2501 13.1888 19.9665 13.5628 19.4991C13.8216 19.1757 14.2936 19.1234 14.617 19.3822C14.9404 19.641 14.9928 20.113 14.734 20.4364C14.0941 21.2359 13.1231 21.7501 12.0303 21.7501C10.9446 21.7501 9.97509 21.2345 9.33634 20.4364C9.07752 20.113 9.12987 19.641 9.45327 19.3822Z" fill="black"/>
<path fill-rule="evenodd" clip-rule="evenodd" d="M15.6596 3.84521C15.1132 3.84521 14.6699 4.28806 14.6699 4.83485C14.6699 5.38094 15.1135 5.82448 15.6596 5.82448C16.2056 5.82448 16.6492 5.38093 16.6492 4.83485C16.6492 4.28806 16.2059 3.84521 15.6596 3.84521ZM13.1699 4.83485C13.1699 3.45909 14.2853 2.34521 15.6596 2.34521C17.0338 2.34521 18.1492 3.45909 18.1492 4.83485C18.1492 6.20936 17.0341 7.32448 15.6596 7.32448C14.285 7.32448 13.1699 6.20936 13.1699 4.83485Z" fill="black"/>
</svg>
