<svg width="24" height="24" viewBox="0 0 24 24" fill="none" xmlns="http://www.w3.org/2000/svg">
<path fill-rule="evenodd" clip-rule="evenodd" d="M9.26807 21C9.26807 20.5858 9.60385 20.25 10.0181 20.25H13.981C14.3952 20.25 14.731 20.5858 14.731 21C14.731 21.4142 14.3952 21.75 13.981 21.75H10.0181C9.60385 21.75 9.26807 21.4142 9.26807 21Z" fill="black"/>
<path fill-rule="evenodd" clip-rule="evenodd" d="M9.26758 3C9.26758 2.58579 9.60336 2.25 10.0176 2.25H13.9805C14.3947 2.25 14.7305 2.58579 14.7305 3C14.7305 3.41421 14.3947 3.75 13.9805 3.75H10.0176C9.60336 3.75 9.26758 3.41421 9.26758 3Z" fill="black"/>
<path fill-rule="evenodd" clip-rule="evenodd" d="M3 9.26953C3.41421 9.26953 3.75 9.60532 3.75 10.0195V13.9815C3.75 14.3957 3.41421 14.7315 3 14.7315C2.58579 14.7315 2.25 14.3957 2.25 13.9815V10.0195C2.25 9.60532 2.58579 9.26953 3 9.26953Z" fill="black"/>
<path fill-rule="evenodd" clip-rule="evenodd" d="M21 9.26953C21.4142 9.26953 21.75 9.60532 21.75 10.0195V13.9815C21.75 14.3957 21.4142 14.7315 21 14.7315C20.5858 14.7315 20.25 14.3957 20.25 13.9815V10.0195C20.25 9.60532 20.5858 9.26953 21 9.26953Z" fill="black"/>
<path fill-rule="evenodd" clip-rule="evenodd" d="M11.7363 15.7876C12.1505 15.7876 12.4863 16.1234 12.4863 16.5376V16.5814C12.4863 16.9956 12.1505 17.3314 11.7363 17.3314C11.3221 17.3314 10.9863 16.9956 10.9863 16.5814V16.5376C10.9863 16.1234 11.3221 15.7876 11.7363 15.7876Z" fill="black"/>
<path fill-rule="evenodd" clip-rule="evenodd" d="M8.66211 10.0422C8.66211 8.19189 10.1499 6.7041 12.0002 6.7041C13.8393 6.7041 15.3374 8.19042 15.3374 10.0422C15.3374 11.3439 14.593 12.2644 13.6192 12.8029C13.5598 12.8367 13.5027 12.8688 13.4477 12.8997C13.1594 13.0616 12.9315 13.1896 12.7457 13.3568C12.5597 13.5242 12.4818 13.6749 12.4845 13.8854C12.49 14.2995 12.1586 14.6397 11.7444 14.6451C11.3302 14.6505 10.9901 14.3192 10.9847 13.905C10.9748 13.1502 11.3293 12.6136 11.7422 12.2419C12.0647 11.9516 12.465 11.729 12.7488 11.5712C12.7966 11.5446 12.8411 11.5198 12.8814 11.4969L12.8903 11.4918L12.8903 11.4919C13.506 11.1525 13.8374 10.6767 13.8374 10.0422C13.8374 9.02178 13.0139 8.2041 12.0002 8.2041C10.9783 8.2041 10.1621 9.02032 10.1621 10.0422C10.1621 10.4564 9.82632 10.7922 9.41211 10.7922C8.9979 10.7922 8.66211 10.4564 8.66211 10.0422Z" fill="black"/>
<path fill-rule="evenodd" clip-rule="evenodd" d="M2.92355 16.1713C3.33377 16.1139 3.71283 16.4 3.77021 16.8102C4.03899 18.7319 5.27364 20.0151 7.16092 20.2352C7.57234 20.2832 7.86697 20.6556 7.81898 21.067C7.771 21.4784 7.39857 21.7731 6.98715 21.7251C4.36956 21.4198 2.64053 19.5622 2.28467 17.018C2.22729 16.6077 2.51333 16.2287 2.92355 16.1713Z" fill="black"/>
<path fill-rule="evenodd" clip-rule="evenodd" d="M21.0315 16.1718C21.4417 16.2292 21.7277 16.6082 21.6703 17.0184C21.3147 19.5607 19.5971 21.4189 16.9779 21.7255C16.5665 21.7737 16.1939 21.4792 16.1458 21.0678C16.0976 20.6564 16.3921 20.2839 16.8035 20.2357C18.6891 20.015 19.9157 18.7344 20.1848 16.8107C20.2422 16.4004 20.6212 16.1144 21.0315 16.1718Z" fill="black"/>
<path fill-rule="evenodd" clip-rule="evenodd" d="M7.81894 2.93233C7.86711 3.34373 7.57264 3.71628 7.16123 3.76444C5.27555 3.98518 4.03927 5.27555 3.77021 7.1992C3.71283 7.60942 3.33377 7.89546 2.92355 7.83808C2.51333 7.7807 2.22729 7.40164 2.28467 6.99142C2.64026 4.44912 4.36764 2.58122 6.98683 2.27461C7.39823 2.22645 7.77078 2.52092 7.81894 2.93233Z" fill="black"/>
<path fill-rule="evenodd" clip-rule="evenodd" d="M16.1458 2.93233C16.1939 2.52092 16.5665 2.22645 16.9779 2.27461C19.5992 2.58147 21.3151 4.4514 21.6703 6.99142C21.7277 7.40164 21.4417 7.7807 21.0315 7.83808C20.6212 7.89546 20.2422 7.60942 20.1848 7.1992C19.9154 5.27328 18.687 3.98493 16.8035 3.76444C16.3921 3.71628 16.0976 3.34373 16.1458 2.93233Z" fill="black"/>
</svg>
