<svg width="24" height="24" viewBox="0 0 24 24" fill="none" xmlns="http://www.w3.org/2000/svg">
<path fill-rule="evenodd" clip-rule="evenodd" d="M13.8586 3.84345C10.8168 3.2768 8.41566 5.39689 8.02674 7.48639L8.02674 7.48641C7.86724 8.34319 7.63905 8.98388 7.36519 9.50471C7.09178 10.0247 6.78663 10.3975 6.5199 10.7115C6.49355 10.7425 6.46782 10.7727 6.44269 10.8022C6.20735 11.0783 6.02393 11.2935 5.86093 11.5682C5.69229 11.8525 5.5383 12.2169 5.43287 12.7668C5.38249 13.3036 5.45603 13.7082 5.61475 14.0337C5.77686 14.3661 6.05824 14.6784 6.52141 14.9765C7.48277 15.5951 9.08373 16.066 11.4993 16.5154L11.4994 16.5154C13.9153 16.965 15.5777 17.1039 16.697 16.8737C17.2361 16.7629 17.6106 16.5732 17.8815 16.3213C18.1467 16.0746 18.3615 15.7225 18.5085 15.2009C18.6081 14.6493 18.5957 14.2536 18.5407 13.9276C18.4875 13.6123 18.3938 13.3455 18.2735 13.003C18.2607 12.9667 18.2477 12.9295 18.2343 12.8913C18.0985 12.5025 17.948 12.045 17.88 11.4616C17.8119 10.8772 17.8295 10.1975 17.989 9.34071C18.3779 7.25137 16.9007 4.41016 13.8586 3.84345ZM6.55207 7.21189C7.08747 4.33548 10.2496 1.64534 14.1333 2.36882C18.0166 3.09223 19.9991 6.73862 19.4637 9.61519L19.4637 9.61522C19.3274 10.3473 19.3217 10.8746 19.3699 11.288C19.4182 11.7024 19.5235 12.0334 19.6504 12.3965C19.6634 12.4336 19.6767 12.4715 19.6904 12.5102C19.8069 12.8404 19.944 13.2286 20.0198 13.6781C20.1073 14.1969 20.1129 14.7792 19.9774 15.5065C19.9736 15.5268 19.969 15.547 19.9635 15.567C19.7604 16.3099 19.4216 16.9374 18.9031 17.4196C18.3851 17.9014 17.7388 18.1909 16.9992 18.343C15.5612 18.6387 13.6348 18.4385 11.2249 17.9901C8.81379 17.5415 6.94474 17.0326 5.70968 16.2378C5.07464 15.8292 4.57621 15.3263 4.2665 14.6912C3.95639 14.0552 3.86586 13.349 3.94354 12.5846C3.94563 12.5641 3.94857 12.5436 3.95235 12.5232C4.08762 11.7964 4.30246 11.2554 4.57085 10.8029C4.80327 10.4111 5.07071 10.0984 5.29823 9.83232C5.325 9.80102 5.35121 9.77037 5.37674 9.74031C5.6258 9.44716 5.8433 9.17602 6.03754 8.80662C6.23133 8.43806 6.41579 7.94393 6.55207 7.21191" fill="black"/>
<path fill-rule="evenodd" clip-rule="evenodd" d="M14.9291 19.379C15.2527 19.6377 15.3053 20.1096 15.0467 20.4331C14.4056 21.2351 13.4323 21.7501 12.3359 21.7501C11.2485 21.7501 10.2761 21.2337 9.63534 20.4337C9.3764 20.1104 9.42858 19.6384 9.75188 19.3795C10.0752 19.1205 10.5472 19.1727 10.8061 19.496C11.1831 19.9666 11.7362 20.2501 12.3359 20.2501C12.948 20.2501 13.5003 19.9653 13.875 19.4965C14.1336 19.173 14.6056 19.1204 14.9291 19.379Z" fill="black"/>
</svg>
