<svg width="24" height="24" viewBox="0 0 24 24" fill="none" xmlns="http://www.w3.org/2000/svg">
<path d="M17.4721 18.0932H6.5291C6.01835 18.0932 5.51588 17.9642 5.06828 17.7182C4.62067 17.4722 4.24244 17.1172 3.96866 16.686C3.69488 16.2549 3.53442 15.7615 3.50215 15.2518C3.46989 14.7421 3.56686 14.2324 3.7841 13.7702L4.2511 12.7792C4.53486 12.1732 4.68232 11.5124 4.6831 10.8432V9.52321C4.70561 7.59757 5.48636 5.75844 6.85603 4.40469C8.22569 3.05095 10.0738 2.29175 11.9996 2.29175C13.9254 2.29175 15.7735 3.05095 17.1432 4.40469C18.5128 5.75844 19.2936 7.59757 19.3161 9.52321V10.8412C19.3166 11.5108 19.4645 12.1721 19.7491 12.7782L20.2151 13.7692C20.4323 14.2315 20.5293 14.7411 20.497 15.2508C20.4648 15.7605 20.3043 16.2538 20.0305 16.685C19.7568 17.1162 19.3785 17.4712 18.9309 17.7172C18.4833 17.9632 17.9808 18.0922 17.4701 18.0922L17.4721 18.0932ZM12.0011 3.70821C10.459 3.70979 8.9805 4.32302 7.88997 5.41336C6.79944 6.5037 6.18595 7.9821 6.1841 9.5242V10.8432C6.18272 11.7329 5.98646 12.6115 5.6091 13.4172L5.1431 14.4082C5.03304 14.6418 4.9838 14.8994 4.99996 15.1571C5.01612 15.4148 5.09717 15.6642 5.23555 15.8822C5.37393 16.1002 5.56516 16.2797 5.79149 16.404C6.01782 16.5283 6.27189 16.5934 6.5301 16.5932H17.4721C17.7303 16.5934 17.9844 16.5283 18.2107 16.404C18.437 16.2797 18.6283 16.1002 18.7666 15.8822C18.905 15.6642 18.9861 15.4148 19.0022 15.1571C19.0184 14.8994 18.9692 14.6418 18.8591 14.4082L18.3931 13.4172C18.0157 12.6115 17.8195 11.7329 17.8181 10.8432V9.5242C17.8162 7.9821 17.2028 6.5037 16.1122 5.41336C15.0217 4.32302 13.5432 3.70979 12.0011 3.70821Z" fill="black"/>
<path d="M12.002 13.175C11.8031 13.175 11.6123 13.096 11.4716 12.9553C11.331 12.8147 11.252 12.6239 11.252 12.425V11.219H10.043C9.84406 11.219 9.65329 11.14 9.51264 10.9993C9.37199 10.8587 9.29297 10.6679 9.29297 10.469C9.29297 10.2701 9.37199 10.0793 9.51264 9.93866C9.65329 9.79801 9.84406 9.71899 10.043 9.71899H11.251V8.51099C11.251 8.31207 11.33 8.12132 11.4706 7.98067C11.6113 7.84001 11.8021 7.76099 12.001 7.76099C12.1999 7.76099 12.3906 7.84001 12.5313 7.98067C12.6719 8.12132 12.751 8.31207 12.751 8.51099V9.71899H13.957C14.1559 9.71899 14.3466 9.79801 14.4873 9.93866C14.6279 10.0793 14.707 10.2701 14.707 10.469C14.707 10.6679 14.6279 10.8587 14.4873 10.9993C14.3466 11.14 14.1559 11.219 13.957 11.219H12.751V12.425C12.751 12.6237 12.6721 12.8143 12.5317 12.955C12.3912 13.0956 12.2007 13.1747 12.002 13.175Z" fill="black"/>
<path d="M12.0013 21.7082C10.9808 21.7068 10.0024 21.3008 9.2808 20.579C8.55923 19.8572 8.1534 18.8787 8.15234 17.8582C8.15234 17.6592 8.23136 17.4685 8.37201 17.3278C8.51266 17.1872 8.70343 17.1082 8.90234 17.1082C9.10126 17.1082 9.29202 17.1872 9.43267 17.3278C9.57332 17.4685 9.65234 17.6592 9.65234 17.8582C9.65234 18.4814 9.89993 19.0792 10.3406 19.5199C10.7814 19.9606 11.3791 20.2082 12.0023 20.2082C12.6256 20.2082 13.2233 19.9606 13.664 19.5199C14.1048 19.0792 14.3523 18.4814 14.3523 17.8582C14.3523 17.6592 14.4314 17.4685 14.572 17.3278C14.7127 17.1872 14.9034 17.1082 15.1023 17.1082C15.3013 17.1082 15.492 17.1872 15.6327 17.3278C15.7733 17.4685 15.8523 17.6592 15.8523 17.8582C15.8513 18.8791 15.4452 19.8579 14.7232 20.5797C14.0012 21.3015 13.0223 21.7074 12.0013 21.7082Z" fill="black"/>
</svg>
