<svg width="24" height="24" viewBox="0 0 24 24" fill="none" xmlns="http://www.w3.org/2000/svg">
<path d="M16.9457 18.9517H7.05565C6.58199 18.9517 6.11598 18.8322 5.70087 18.6041C5.28576 18.3759 4.935 18.0467 4.68114 17.6468C4.42728 17.2469 4.27854 16.7893 4.24874 16.3166C4.21893 15.8439 4.30903 15.3713 4.51065 14.9427L4.93166 14.0427C5.18392 13.505 5.31501 12.9185 5.31566 12.3247V11.1367C5.33717 9.37826 6.05079 7.69915 7.30185 6.4633C8.55291 5.22745 10.2406 4.53442 11.9992 4.53442C13.7577 4.53442 15.4454 5.22745 16.6965 6.4633C17.9475 7.69915 18.6612 9.37826 18.6827 11.1367V12.3287C18.6835 12.9224 18.8142 13.5088 19.0657 14.0467L19.4877 14.9467C19.6898 15.3752 19.7803 15.8479 19.7507 16.3208C19.7212 16.7937 19.5726 17.2514 19.3188 17.6515C19.065 18.0516 18.7142 18.3811 18.2989 18.6092C17.8837 18.8374 17.4175 18.9569 16.9437 18.9567L16.9457 18.9517ZM12.0007 5.95167C10.6264 5.95326 9.30895 6.4998 8.33713 7.47143C7.36531 8.44306 6.81851 9.76045 6.81665 11.1347V12.3267C6.81581 13.1415 6.63591 13.9461 6.28966 14.6837L5.86966 15.5777C5.77521 15.7776 5.73285 15.9982 5.74655 16.2189C5.76026 16.4396 5.82956 16.6533 5.94802 16.84C6.06648 17.0267 6.23025 17.1804 6.42409 17.2869C6.61793 17.3933 6.83553 17.4489 7.05666 17.4487H16.9467C17.1676 17.4484 17.3849 17.3924 17.5784 17.2859C17.772 17.1793 17.9355 17.0256 18.0538 16.8391C18.1722 16.6525 18.2416 16.4391 18.2555 16.2186C18.2695 15.9981 18.2275 15.7777 18.1337 15.5777L17.7127 14.6837C17.3663 13.9458 17.1864 13.1408 17.1857 12.3257V11.1377C17.1843 9.76302 16.6376 8.44507 15.6655 7.47314C14.6934 6.50121 13.3753 5.95473 12.0007 5.95367V5.95167Z" fill="black"/>
<path d="M12.0002 21.7524C11.0591 21.7511 10.1569 21.3766 9.49142 20.7112C8.82596 20.0457 8.45152 19.1435 8.4502 18.2024C8.4502 18.0035 8.52921 17.8127 8.66986 17.6721C8.81051 17.5314 9.00128 17.4524 9.2002 17.4524C9.39911 17.4524 9.58988 17.5314 9.73053 17.6721C9.87118 17.8127 9.9502 18.0035 9.9502 18.2024C9.9502 18.7461 10.1662 19.2675 10.5506 19.652C10.9351 20.0364 11.4565 20.2524 12.0002 20.2524C12.5439 20.2524 13.0653 20.0364 13.4498 19.652C13.8342 19.2675 14.0502 18.7461 14.0502 18.2024C14.0502 18.0035 14.1292 17.8127 14.2699 17.6721C14.4105 17.5314 14.6013 17.4524 14.8002 17.4524C14.9991 17.4524 15.1899 17.5314 15.3305 17.6721C15.4712 17.8127 15.5502 18.0035 15.5502 18.2024C15.5489 19.1435 15.1744 20.0457 14.509 20.7112C13.8435 21.3766 12.9413 21.7511 12.0002 21.7524Z" fill="black"/>
<path d="M13.6006 6.16631C13.4017 6.16631 13.2109 6.08728 13.0703 5.94663C12.9296 5.80598 12.8506 5.61522 12.8506 5.41631V4.6023C12.8506 4.37567 12.7606 4.15833 12.6003 3.99809C12.4401 3.83784 12.2227 3.7478 11.9961 3.7478C11.7695 3.7478 11.5521 3.83784 11.3919 3.99809C11.2316 4.15833 11.1416 4.37567 11.1416 4.6023V5.41231C11.1416 5.61122 11.0626 5.80198 10.9219 5.94263C10.7813 6.08329 10.5905 6.16231 10.3916 6.16231C10.1927 6.16231 10.0019 6.08329 9.86127 5.94263C9.72061 5.80198 9.6416 5.61122 9.6416 5.41231V4.6023C9.6416 3.97785 9.88965 3.37898 10.3312 2.93742C10.7728 2.49587 11.3716 2.2478 11.9961 2.2478C12.6205 2.2478 13.2194 2.49587 13.661 2.93742C14.1025 3.37898 14.3506 3.97785 14.3506 4.6023V5.41231C14.3511 5.51114 14.3321 5.60909 14.2947 5.70055C14.2572 5.792 14.202 5.87515 14.1323 5.94522C14.0626 6.01529 13.9798 6.07089 13.8885 6.10883C13.7973 6.14677 13.6994 6.16631 13.6006 6.16631Z" fill="black"/>
</svg>
