<svg width="24" height="24" viewBox="0 0 24 24" fill="none" xmlns="http://www.w3.org/2000/svg">
<path d="M8.08835 16.5957C7.17462 16.5417 6.29675 16.2211 5.56327 15.6735C4.8298 15.1259 4.27287 14.3754 3.96134 13.5147C3.62328 12.6107 3.57812 11.6233 3.83225 10.6922C4.08637 9.76117 4.62691 8.93361 5.37735 8.32672C6.34235 7.67472 13.9314 3.00072 14.2544 2.80272C14.3382 2.74808 14.4322 2.71079 14.5307 2.69304C14.6292 2.67529 14.7303 2.67744 14.828 2.69937C14.9257 2.7213 15.018 2.76256 15.0995 2.82072C15.1809 2.87888 15.2499 2.95277 15.3024 3.03802C15.3549 3.12327 15.3898 3.21818 15.405 3.31712C15.4202 3.41606 15.4155 3.51705 15.391 3.61413C15.3666 3.71122 15.323 3.80242 15.2628 3.88238C15.2025 3.96234 15.1269 4.02944 15.0403 4.07971C14.9613 4.12871 7.15635 8.93471 6.21735 9.56971C5.75164 9.99349 5.4225 10.5462 5.27179 11.1576C5.12108 11.7689 5.15561 12.4113 5.37099 13.003C5.58637 13.5946 5.97287 14.1089 6.48132 14.4803C6.98977 14.8517 7.59719 15.0635 8.22634 15.0887C9.35234 14.9707 18.4663 13.6307 18.5583 13.6167C18.7551 13.5877 18.9554 13.638 19.1151 13.7566C19.2748 13.8752 19.3808 14.0524 19.4098 14.2492C19.4389 14.446 19.3886 14.6463 19.2699 14.806C19.1513 14.9657 18.9741 15.0717 18.7773 15.1007C18.4003 15.1567 9.53934 16.4597 8.37735 16.5807C8.28133 16.5907 8.18488 16.5957 8.08835 16.5957Z" fill="black"/>
<path d="M12.0021 21.9978C11.4156 21.9962 10.8437 21.8147 10.3634 21.4781C9.88318 21.1414 9.51766 20.6656 9.31609 20.1148L7.8401 16.0588C7.78323 15.8749 7.79929 15.6761 7.88497 15.5036C7.97065 15.3312 8.11937 15.1983 8.30033 15.1325C8.48129 15.0667 8.68064 15.073 8.85707 15.1501C9.0335 15.2273 9.17351 15.3693 9.24809 15.5468L10.7251 19.6028C10.8483 19.9419 11.1011 20.2182 11.428 20.3708C11.7549 20.5235 12.129 20.54 12.4681 20.4168C12.8072 20.2936 13.0834 20.0408 13.2361 19.7139C13.3887 19.387 13.4053 19.0129 13.2821 18.6738L12.1321 15.5138C12.0966 15.4209 12.0799 15.3219 12.083 15.2225C12.0862 15.1231 12.109 15.0253 12.1503 14.9348C12.1916 14.8443 12.2505 14.763 12.3235 14.6954C12.3965 14.6279 12.4822 14.5756 12.5756 14.5415C12.6691 14.5074 12.7684 14.4923 12.8677 14.4969C12.967 14.5016 13.0645 14.5259 13.1543 14.5686C13.2442 14.6112 13.3246 14.6713 13.391 14.7454C13.4574 14.8194 13.5084 14.9059 13.5411 14.9998L14.6911 18.1598C14.8478 18.5922 14.8981 19.0559 14.8377 19.5118C14.7774 19.9677 14.6081 20.4024 14.3442 20.779C14.0804 21.1557 13.7297 21.4633 13.3218 21.6758C12.914 21.8883 12.461 21.9994 12.0011 21.9998L12.0021 21.9978Z" fill="black"/>
<path d="M18.4711 15.1198C16.7901 15.1198 14.8491 13.0698 13.7181 9.96477C12.4331 6.43377 12.8271 3.27477 14.6341 2.61577C15.5881 2.26977 16.6951 2.67977 17.7571 3.77077C19.7786 6.07157 20.8622 9.04781 20.7931 12.1098C20.6821 13.6288 20.0931 14.6558 19.1431 15.0028C18.9277 15.0809 18.7002 15.1205 18.4711 15.1198ZM15.3211 3.99677C15.2618 3.9963 15.203 4.00612 15.1471 4.02578C14.4301 4.28678 14.0651 6.52577 15.1271 9.45077C16.1891 12.3758 17.9101 13.8628 18.6271 13.5928C18.9761 13.4658 19.2271 12.8558 19.2941 12.0008C19.3321 9.36628 18.4015 6.80952 16.6791 4.81577C16.3384 4.38968 15.8569 4.09923 15.3211 3.99677Z" fill="black"/>
</svg>
