<svg width="24" height="24" viewBox="0 0 24 24" fill="none" xmlns="http://www.w3.org/2000/svg">
<path fill-rule="evenodd" clip-rule="evenodd" d="M5.25 17.1716C5.25 16.7574 5.58579 16.4216 6 16.4216H18C18.4142 16.4216 18.75 16.7574 18.75 17.1716C18.75 17.5858 18.4142 17.9216 18 17.9216H6C5.58579 17.9216 5.25 17.5858 5.25 17.1716Z" fill="black"/>
<path fill-rule="evenodd" clip-rule="evenodd" d="M12.8836 4.11612C12.3954 3.62796 11.604 3.62796 11.1158 4.11612L4.94424 10.2877C4.45609 10.7758 4.45609 11.5673 4.94424 12.0555L9.53003 16.6412C9.82292 16.9341 9.82292 17.409 9.53003 17.7019C9.23713 17.9948 8.76226 17.9948 8.46937 17.7019L3.88358 13.1161C2.80964 12.0422 2.80964 10.301 3.88358 9.22703L10.0552 3.05546C11.1291 1.98151 12.8703 1.98152 13.9442 3.05546L16.03 5.14124C16.3229 5.43414 16.3229 5.90901 16.03 6.2019C15.7371 6.4948 15.2623 6.4948 14.9694 6.2019L12.8836 4.11612Z" fill="black"/>
<path fill-rule="evenodd" clip-rule="evenodd" d="M19.0555 9.22684C19.3484 8.93395 19.8232 8.93395 20.1161 9.22684C21.1901 10.3008 21.1901 12.042 20.1161 13.1159L15.5303 17.7017C15.2374 17.9946 14.7626 17.9946 14.4697 17.7017C14.1768 17.4088 14.1768 16.9339 14.4697 16.6411L19.0555 12.0553C19.5436 11.5671 19.5436 10.7757 19.0555 10.2875C18.7626 9.99461 18.7626 9.51973 19.0555 9.22684Z" fill="black"/>
<path fill-rule="evenodd" clip-rule="evenodd" d="M19.7731 5.77436C20.066 6.06725 20.066 6.54212 19.7731 6.83502L12.906 13.7021C12.6131 13.995 12.1382 13.995 11.8453 13.7021L9.30365 11.1605C9.01076 10.8676 9.01076 10.3927 9.30365 10.0998C9.59655 9.80693 10.0714 9.80693 10.3643 10.0998L12.3757 12.1112L18.7125 5.77436C19.0053 5.48146 19.4802 5.48146 19.7731 5.77436Z" fill="black"/>
<path fill-rule="evenodd" clip-rule="evenodd" d="M2.25 16.1714C2.25 14.6526 3.48122 13.4214 5 13.4214H6C6.41421 13.4214 6.75 13.7572 6.75 14.1714C6.75 14.5856 6.41421 14.9214 6 14.9214H5C4.30964 14.9214 3.75 15.481 3.75 16.1714V18.1714C3.75 18.8617 4.30964 19.4214 5 19.4214H19C19.6904 19.4214 20.25 18.8617 20.25 18.1714V16.1714C20.25 15.481 19.6904 14.9214 19 14.9214H18C17.5858 14.9214 17.25 14.5856 17.25 14.1714C17.25 13.7572 17.5858 13.4214 18 13.4214H19C20.5188 13.4214 21.75 14.6526 21.75 16.1714V18.1714C21.75 19.6902 20.5188 20.9214 19 20.9214H5C3.48122 20.9214 2.25 19.6902 2.25 18.1714V16.1714Z" fill="black"/>
</svg>
