<svg width="24" height="24" viewBox="0 0 24 24" fill="none" xmlns="http://www.w3.org/2000/svg">
<path fill-rule="evenodd" clip-rule="evenodd" d="M2.25 19.5091C2.25 19.0949 2.58579 18.7591 3 18.7591H21C21.4142 18.7591 21.75 19.0949 21.75 19.5091C21.75 19.9233 21.4142 20.2591 21 20.2591H3C2.58579 20.2591 2.25 19.9233 2.25 19.5091Z" fill="black"/>
<path fill-rule="evenodd" clip-rule="evenodd" d="M7.08569 8.92139C7.08569 8.50717 7.42148 8.17139 7.83569 8.17139H8.69969C9.11391 8.17139 9.44969 8.50717 9.44969 8.92139C9.44969 9.3356 9.11391 9.67139 8.69969 9.67139H7.83569C7.42148 9.67139 7.08569 9.3356 7.08569 8.92139ZM7.08569 12.2441C7.08569 11.8299 7.42148 11.4941 7.83569 11.4941H8.69969C9.11391 11.4941 9.44969 11.8299 9.44969 12.2441C9.44969 12.6583 9.11391 12.9941 8.69969 12.9941H7.83569C7.42148 12.9941 7.08569 12.6583 7.08569 12.2441ZM7.08569 15.5669C7.08569 15.1527 7.42148 14.8169 7.83569 14.8169H8.69969C9.11391 14.8169 9.44969 15.1527 9.44969 15.5669C9.44969 15.9811 9.11391 16.3169 8.69969 16.3169H7.83569C7.42148 16.3169 7.08569 15.9811 7.08569 15.5669Z" fill="black"/>
<path fill-rule="evenodd" clip-rule="evenodd" d="M15.0254 13.3521C15.0254 12.9378 15.3612 12.6021 15.7754 12.6021H16.6394C17.0536 12.6021 17.3894 12.9378 17.3894 13.3521C17.3894 13.7663 17.0536 14.1021 16.6394 14.1021H15.7754C15.3612 14.1021 15.0254 13.7663 15.0254 13.3521ZM15.0254 16.6748C15.0254 16.2606 15.3612 15.9248 15.7754 15.9248H16.6394C17.0536 15.9248 17.3894 16.2606 17.3894 16.6748C17.3894 17.089 17.0536 17.4248 16.6394 17.4248H15.7754C15.3612 17.4248 15.0254 17.089 15.0254 16.6748Z" fill="black"/>
<path fill-rule="evenodd" clip-rule="evenodd" d="M3.52515 6.36856C3.52515 4.91716 4.70158 3.74072 6.15298 3.74072H10.3815C11.8329 3.74072 13.0094 4.91716 13.0094 6.36856V19.5095C13.0094 19.9237 12.6736 20.2595 12.2594 20.2595C11.8451 20.2595 11.5094 19.9237 11.5094 19.5095V6.36856C11.5094 5.74558 11.0045 5.24072 10.3815 5.24072H6.15298C5.53001 5.24072 5.02515 5.74558 5.02515 6.36856V19.5095C5.02515 19.9237 4.68936 20.2595 4.27515 20.2595C3.86093 20.2595 3.52515 19.9237 3.52515 19.5095V6.36856Z" fill="black"/>
<path fill-rule="evenodd" clip-rule="evenodd" d="M11.5093 10.3047C11.5093 9.89047 11.8451 9.55469 12.2593 9.55469H17.9366C19.388 9.55469 20.5644 10.7311 20.5644 12.1825V19.509C20.5644 19.9232 20.2286 20.259 19.8144 20.259C19.4002 20.259 19.0644 19.9232 19.0644 19.509V12.1825C19.0644 11.5595 18.5596 11.0547 17.9366 11.0547H13.0093V19.509C13.0093 19.9232 12.6735 20.259 12.2593 20.259C11.8451 20.259 11.5093 19.9232 11.5093 19.509V10.3047Z" fill="black"/>
</svg>
