<svg width="24" height="24" viewBox="0 0 24 24" fill="none" xmlns="http://www.w3.org/2000/svg">
<path fill-rule="evenodd" clip-rule="evenodd" d="M3.63916 5.24013C3.63916 3.64128 4.93483 2.34375 6.53457 2.34375H17.4688C19.0686 2.34375 20.3642 3.64128 20.3642 5.24013V20.906C20.3642 21.3202 20.0285 21.656 19.6142 21.656C19.2 21.656 18.8642 21.3202 18.8642 20.906V5.24013C18.8642 4.46882 18.2393 3.84375 17.4688 3.84375H6.53457C5.76414 3.84375 5.13916 4.46882 5.13916 5.24013V20.906C5.13916 21.3202 4.80337 21.656 4.38916 21.656C3.97495 21.656 3.63916 21.3202 3.63916 20.906V5.24013Z" fill="black"/>
<path fill-rule="evenodd" clip-rule="evenodd" d="M2.25 20.9055C2.25 20.4913 2.58579 20.1555 3 20.1555H21C21.4142 20.1555 21.75 20.4913 21.75 20.9055C21.75 21.3197 21.4142 21.6555 21 21.6555H3C2.58579 21.6555 2.25 21.3197 2.25 20.9055Z" fill="black"/>
<path fill-rule="evenodd" clip-rule="evenodd" d="M10.7556 15.2373C10.5787 15.2373 10.4353 15.3807 10.4353 15.5576V20.906C10.4353 21.3202 10.0995 21.656 9.6853 21.656C9.27109 21.656 8.9353 21.3202 8.9353 20.906V15.5576C8.9353 14.5514 9.75121 13.7373 10.7556 13.7373H13.2474C14.2523 13.7373 15.0686 14.5509 15.0686 15.5576V20.906C15.0686 21.3202 14.7328 21.656 14.3186 21.656C13.9044 21.656 13.5686 21.3202 13.5686 20.906V15.5576C13.5686 15.3811 13.4256 15.2373 13.2474 15.2373H10.7556Z" fill="black"/>
<path fill-rule="evenodd" clip-rule="evenodd" d="M11.9999 5.8374C12.4141 5.8374 12.7499 6.17319 12.7499 6.5874V7.84416H14.0067C14.4209 7.84416 14.7567 8.17995 14.7567 8.59416C14.7567 9.00837 14.4209 9.34416 14.0067 9.34416H12.7499V10.6009C12.7499 11.0151 12.4141 11.3509 11.9999 11.3509C11.5857 11.3509 11.2499 11.0151 11.2499 10.6009V9.34416H9.99316C9.57895 9.34416 9.24316 9.00837 9.24316 8.59416C9.24316 8.17995 9.57895 7.84416 9.99316 7.84416H11.2499V6.5874C11.2499 6.17319 11.5857 5.8374 11.9999 5.8374Z" fill="black"/>
</svg>
