<svg width="24" height="24" viewBox="0 0 24 24" fill="none" xmlns="http://www.w3.org/2000/svg">
<path fill-rule="evenodd" clip-rule="evenodd" d="M3.24603 6.91682C3.43623 5.91851 4.3093 5.1983 5.32344 5.1983H18.6908C19.7095 5.1983 20.5827 5.92355 20.7697 6.92464L21.3896 10.2354C21.6233 11.2838 20.8258 12.283 19.7474 12.283H4.2532C3.17421 12.283 2.37644 11.2827 2.61132 10.2338L3.24603 6.91682C3.24605 6.91669 3.246 6.91696 3.24603 6.91682ZM5.32344 6.6983C5.02814 6.6983 4.77463 6.90802 4.7195 7.19769L4.08208 10.5288C4.08013 10.539 4.07798 10.5491 4.07562 10.5592C4.04881 10.6734 4.13554 10.783 4.2532 10.783H19.7474C19.865 10.783 19.9518 10.6734 19.925 10.5592C19.9224 10.5481 19.92 10.537 19.9179 10.5259L19.2953 7.20035C19.2409 6.90937 18.9874 6.6983 18.6908 6.6983H5.32344Z" fill="black"/>
<path fill-rule="evenodd" clip-rule="evenodd" d="M6.50098 3C6.50098 2.58579 6.83676 2.25 7.25098 2.25H16.7499C17.1641 2.25 17.4999 2.58579 17.4999 3C17.4999 3.41421 17.1641 3.75 16.7499 3.75H7.25098C6.83676 3.75 6.50098 3.41421 6.50098 3Z" fill="black"/>
<path fill-rule="evenodd" clip-rule="evenodd" d="M8.96606 5.19824C9.38028 5.19824 9.71606 5.53403 9.71606 5.94824V11.3306C9.71606 11.7448 9.38028 12.0806 8.96606 12.0806C8.55185 12.0806 8.21606 11.7448 8.21606 11.3306V5.94824C8.21606 5.53403 8.55185 5.19824 8.96606 5.19824ZM15.0916 5.19824C15.5058 5.19824 15.8416 5.53403 15.8416 5.94824V11.533C15.8416 11.9472 15.5058 12.283 15.0916 12.283C14.6774 12.283 14.3416 11.9472 14.3416 11.533V5.94824C14.3416 5.53403 14.6774 5.19824 15.0916 5.19824Z" fill="black"/>
<path fill-rule="evenodd" clip-rule="evenodd" d="M4.25537 10.7832C4.66958 10.7832 5.00537 11.119 5.00537 11.5332V19.1485C5.00537 19.7571 5.49879 20.25 6.10591 20.25H11.9943C12.0053 20.2495 12.0164 20.2492 12.0275 20.2492H16.0205C16.0316 20.2492 16.0427 20.2495 16.0537 20.25H17.8951C18.5022 20.25 18.9956 19.7571 18.9956 19.1485V11.5332C18.9956 11.119 19.3314 10.7832 19.7456 10.7832C20.1599 10.7832 20.4956 11.119 20.4956 11.5332V19.1485C20.4956 20.585 19.3312 21.75 17.8951 21.75H6.10591C4.66985 21.75 3.50537 20.585 3.50537 19.1485V11.5332C3.50537 11.119 3.84116 10.7832 4.25537 10.7832Z" fill="black"/>
<path fill-rule="evenodd" clip-rule="evenodd" d="M6.71289 15.9846C6.71289 15.5704 7.04868 15.2346 7.46289 15.2346H8.574C8.98821 15.2346 9.324 15.5704 9.324 15.9846C9.324 16.3988 8.98821 16.7346 8.574 16.7346H7.46289C7.04868 16.7346 6.71289 16.3988 6.71289 15.9846Z" fill="black"/>
<path fill-rule="evenodd" clip-rule="evenodd" d="M14.0238 15.7998C13.3357 15.7998 12.7773 16.3582 12.7773 17.0463V20.9994C12.7773 21.4136 12.4416 21.7494 12.0273 21.7494C11.6131 21.7494 11.2773 21.4136 11.2773 20.9994V17.0463C11.2773 15.5297 12.5073 14.2998 14.0238 14.2998C15.5404 14.2998 16.7703 15.5297 16.7703 17.0463V20.9994C16.7703 21.4136 16.4345 21.7494 16.0203 21.7494C15.6061 21.7494 15.2703 21.4136 15.2703 20.9994V17.0463C15.2703 16.3582 14.712 15.7998 14.0238 15.7998Z" fill="black"/>
</svg>
