<svg width="24" height="24" viewBox="0 0 24 24" fill="none" xmlns="http://www.w3.org/2000/svg">
<path fill-rule="evenodd" clip-rule="evenodd" d="M4.53833 13.4168C4.95254 13.4168 5.28833 13.7526 5.28833 14.1668V16.0261C5.28833 17.0924 5.61861 17.9403 6.15315 18.5145C6.68206 19.0826 7.46639 19.4433 8.50318 19.4433H15.4949C16.5323 19.4433 17.3169 19.0826 17.8459 18.5144C18.3805 17.9403 18.7108 17.0924 18.7108 16.0261V14.1668C18.7108 13.7526 19.0465 13.4168 19.4608 13.4168C19.875 13.4168 20.2108 13.7526 20.2108 14.1668V16.0261C20.2108 17.402 19.7807 18.6377 18.9436 19.5366C18.101 20.4416 16.9026 20.9433 15.4949 20.9433H8.50318C7.09587 20.9433 5.89778 20.4415 5.05528 19.5366C4.21842 18.6377 3.78833 17.402 3.78833 16.0261V14.1668C3.78833 13.7526 4.12412 13.4168 4.53833 13.4168Z" fill="black"/>
<path fill-rule="evenodd" clip-rule="evenodd" d="M9.47217 15.9468C9.47217 15.5326 9.80795 15.1968 10.2222 15.1968H13.7492C14.1634 15.1968 14.4992 15.5326 14.4992 15.9468C14.4992 16.361 14.1634 16.6968 13.7492 16.6968H10.2222C9.80795 16.6968 9.47217 16.361 9.47217 15.9468Z" fill="black"/>
<path fill-rule="evenodd" clip-rule="evenodd" d="M3.15812 5.16696C3.57971 3.90503 4.75972 3.05713 6.08877 3.05713H17.924C19.2582 3.05713 20.4433 3.91259 20.8599 5.18271C21.1901 6.19168 21.5939 7.52254 21.7214 8.40412C21.8742 9.46417 21.4032 10.4048 20.7232 11.0487C19.7301 11.9885 18.3051 12.1826 17.093 11.827L16.819 11.7463C16.8188 11.7463 16.8191 11.7463 16.819 11.7463C16.5514 11.668 16.2633 11.6892 16.01 11.8064C16.01 11.8064 16.0101 11.8064 16.01 11.8064L13.8261 12.8191C12.6679 13.3552 11.3317 13.3556 10.1742 12.8191L7.98923 11.8064C7.73618 11.6893 7.4494 11.6678 7.18065 11.7462C7.18034 11.7463 7.18095 11.7461 7.18065 11.7462L6.90708 11.827C5.6951 12.1826 4.26918 11.9887 3.27605 11.0488C2.59549 10.4044 2.12603 9.46398 2.27865 8.40462M3.15812 5.16696C2.82024 6.17772 2.4065 7.51627 2.27865 8.40462L3.15812 5.16696ZM6.08877 4.55713C5.40384 4.55713 4.79753 4.99346 4.5808 5.64235C4.23764 6.66889 3.86904 7.88373 3.76336 8.61825C3.69617 9.08439 3.8903 9.56464 4.30713 9.95935C4.83952 10.4632 5.68037 10.6235 6.48424 10.3878C6.48407 10.3878 6.4844 10.3878 6.48424 10.3878L6.75685 10.3073L6.75888 10.3067C7.37527 10.1265 8.03579 10.1752 8.61922 10.4452L10.8049 11.4582C10.8048 11.4582 10.8049 11.4582 10.8049 11.4582C11.5621 11.8091 12.4369 11.8092 13.1955 11.4581L15.3794 10.4454C15.9627 10.1754 16.6249 10.1264 17.2407 10.3068L17.5154 10.3877C18.3193 10.6236 19.1594 10.4634 19.692 9.95935C20.1093 9.56421 20.3038 9.08418 20.2368 8.61875C20.1308 7.8853 19.7698 6.67458 19.4345 5.65013C19.2206 4.99766 18.6116 4.55713 17.924 4.55713H6.08877Z" fill="black"/>
</svg>
