<svg width="24" height="24" viewBox="0 0 24 24" fill="none" xmlns="http://www.w3.org/2000/svg">
<path d="M14.0537 21.5V20.1725C14.0537 19.8254 14.3253 19.5388 14.672 19.5203L17.2769 19.3982C17.8015 19.3701 18.2394 18.9881 18.3384 18.4722L18.458 16.1444C18.6764 15.0069 20.4976 15.6918 20.2971 14.4213C20.0216 13.2939 19.2065 12.177 19.0038 11.1307C18.5544 8.81119 18.8407 5.98843 16.4826 3.99959C15.0415 2.78417 13.2914 2.46236 11.4478 2.50339C8.37253 2.57173 5.49649 3.87741 4.2119 6.83871C2.95797 9.72798 4.21161 12.1275 5.29207 14.7298C6.12054 16.7251 5.61413 21.5 5.61413 21.5" stroke="black" stroke-width="1.5" stroke-linecap="round"/>
<path fill-rule="evenodd" clip-rule="evenodd" d="M13.6957 7.55088C14.26 8.12629 14.6075 8.91416 14.6075 9.78373C14.6075 11.5461 13.1797 12.9739 11.4173 12.9739C10.5254 12.9739 9.71858 12.6075 9.13973 12.0166" stroke="black" stroke-width="1.5" stroke-linecap="round" stroke-linejoin="round"/>
<path fill-rule="evenodd" clip-rule="evenodd" d="M13.6957 7.55088C13.1169 6.95998 12.3105 6.59375 11.4177 6.59375C9.65619 6.59375 8.22754 8.0224 8.22754 9.78391C8.22754 10.6535 8.57549 11.4412 9.13973 12.0166" stroke="black" stroke-width="1.5" stroke-linecap="round" stroke-linejoin="round"/>
<path d="M13.6957 7.55078L9.13965 12.0165" stroke="black" stroke-width="1.5" stroke-linecap="round" stroke-linejoin="round"/>
</svg>