<svg width="24" height="24" viewBox="0 0 24 24" fill="none" xmlns="http://www.w3.org/2000/svg">
<path d="M15.1872 19.3145C14.1962 19.8355 13.8896 21.5009 13.8896 21.5009" stroke="black" stroke-width="1.5" stroke-linecap="round"/>
<path d="M11.5103 2.50345C13.3868 2.46169 15.168 2.78923 16.6348 4.02633C18.5178 5.61445 19.6192 7.55752 19.0489 10.1413C18.745 11.5186 19.7505 13.083 20.463 14.0401C20.7767 14.4615 20.6186 15.026 20.1285 15.215L19.201 15.5727C18.9334 15.6759 18.7379 15.9098 18.6838 16.1914L18.3736 18.8346C18.2707 19.5205 17.6876 19.8464 17.0359 19.7092L14.2515 19.0814C13.341 18.8807 13.3809 18.0571 13.143 17.1952" stroke="black" stroke-width="1.5" stroke-linecap="round"/>
<path d="M5.026 8.21353C5.938 8.21353 6.67596 7.47503 6.67596 6.56332C6.67596 5.6516 5.938 4.91211 5.026 4.91211C4.114 4.91211 3.375 5.6516 3.375 6.56332C3.375 7.47503 4.114 8.21353 5.026 8.21353Z" stroke="black" stroke-width="1.5" stroke-linecap="round" stroke-linejoin="round"/>
<path d="M6.67578 6.5638L6.67682 2.5C6.67682 2.5 7.10577 3.61508 8.25977 3.85055" stroke="black" stroke-width="1.5" stroke-linecap="round" stroke-linejoin="round"/>
<path d="M9.52587 12.606C10.2253 12.606 10.7912 12.0396 10.7912 11.3405C10.7912 10.6413 10.2253 10.0742 9.52587 10.0742C8.82648 10.0742 8.25977 10.6413 8.25977 11.3405C8.25977 12.0396 8.82648 12.606 9.52587 12.606Z" stroke="black" stroke-width="1.5" stroke-linecap="round" stroke-linejoin="round"/>
<path d="M10.791 11.3415L10.7919 7.73047C10.7919 7.73047 11.1731 8.72131 12.1985 8.93054" stroke="black" stroke-width="1.5" stroke-linecap="round" stroke-linejoin="round"/>
<path d="M4.30859 12.8633C5.7638 15.468 6.43596 18.4308 5.19335 21.2646" stroke="black" stroke-width="1.5" stroke-linecap="round"/>
</svg>