<svg width="24" height="24" viewBox="0 0 24 24" fill="none" xmlns="http://www.w3.org/2000/svg">
<path d="M14.0537 21.5V20.1725C14.0537 19.8254 14.3253 19.5388 14.672 19.5203L17.2769 19.3982C17.8015 19.3701 18.2394 18.9881 18.3384 18.4722L18.458 16.1444C18.6764 15.0069 20.4976 15.6918 20.2971 14.4213C20.0216 13.2939 19.2065 12.177 19.0038 11.1307C18.5544 8.81119 18.8407 5.98843 16.4826 3.99959C15.0415 2.78417 13.2914 2.46236 11.4478 2.50339C8.37253 2.57173 5.49649 3.87741 4.2119 6.83871C2.95797 9.72798 4.21161 12.1275 5.29207 14.7298C6.12054 16.7251 5.61413 21.5 5.61413 21.5" stroke="black" stroke-width="1.5" stroke-linecap="round"/>
<path d="M8.14609 12.6171C8.15037 12.8254 8.31819 12.9932 8.52646 12.9975L9.7964 13.0235C10.0925 13.0296 10.3783 12.9146 10.5877 12.7052L14.0652 9.22768C14.49 8.80296 14.49 8.11435 14.0652 7.68963L13.4539 7.07831C13.0292 6.65359 12.3406 6.65359 11.9159 7.07831L8.43835 10.5558C8.22892 10.7653 8.11397 11.051 8.12004 11.3472L8.14609 12.6171Z" stroke="black" stroke-width="1.5" stroke-linecap="round" stroke-linejoin="round"/>
<path d="M10.7944 8.24805L12.8961 10.3493" stroke="black" stroke-width="1.5"/>
</svg>