<svg width="24" height="24" viewBox="0 0 24 24" fill="none" xmlns="http://www.w3.org/2000/svg">
<path d="M18.364 5.63604C21.8787 9.15076 21.8787 14.8492 18.364 18.364C14.8492 21.8787 9.15076 21.8787 5.63604 18.364C2.12132 14.8492 2.12132 9.15076 5.63604 5.63604C9.15076 2.12132 14.8492 2.12132 18.364 5.63604Z" stroke="black" stroke-width="1.5" stroke-linecap="round" stroke-linejoin="round"/>
<path d="M10.0541 13.9785L9.9531 13.7051C9.57223 12.6743 8.76071 11.8616 7.73139 11.4802L7.45845 11.379L7.73139 11.2779C8.76071 10.8965 9.57223 10.0837 9.9531 9.05293L10.0541 8.77953L10.1551 9.05293C10.536 10.0837 11.3475 10.8965 12.3768 11.2779L12.6498 11.379L12.3768 11.4802C11.3475 11.8616 10.536 12.6743 10.1551 13.7051L10.0541 13.9785Z" stroke="black" stroke-width="1.5" stroke-linecap="round" stroke-linejoin="round"/>
<path d="M15.3648 15.2206C15.1932 14.6559 14.752 14.214 14.1882 14.0421C14.752 13.8703 15.1932 13.4283 15.3648 12.8637C15.5364 13.4283 15.9777 13.8703 16.5415 14.0421C15.9777 14.214 15.5364 14.6559 15.3648 15.2206Z" stroke="black" stroke-width="1.5" stroke-linecap="round" stroke-linejoin="round"/>
</svg>
