<svg width="24" height="24" viewBox="0 0 24 24" fill="none" xmlns="http://www.w3.org/2000/svg">
<path fill-rule="evenodd" clip-rule="evenodd" d="M13.9654 4.13672C14.7905 4.13672 15.5455 4.59207 15.9347 5.31888C16.1877 5.79272 16.465 6.27142 16.643 6.46699C16.9816 6.82212 17.4467 7.03229 17.9381 7.0498C19.6291 7.0498 21 8.42072 21 10.1117V10.1137V15.756C21 18.024 19.1611 19.8629 16.8941 19.8629H7.10595C4.83795 19.8629 3 18.024 3 15.756V10.1137C3.00195 8.42364 4.37189 7.05564 6.06195 7.05564C6.5533 7.03618 7.01741 6.82699 7.35697 6.47088C7.53892 6.27045 7.83178 5.77326 8.09935 5.28969C8.49243 4.57845 9.23968 4.13672 10.0531 4.13672H13.9654Z" stroke="black" stroke-width="1.5" stroke-linecap="round" stroke-linejoin="round"/>
<path d="M9.95264 14.4244L9.85558 14.1618C9.48961 13.1713 8.70984 12.3903 7.72077 12.0238L7.45852 11.9266L7.72077 11.8294C8.70984 11.4629 9.48961 10.682 9.85558 9.69152L9.95264 9.42881L10.0497 9.69152C10.4157 10.682 11.1954 11.4629 12.1845 11.8294L12.4468 11.9266L12.1845 12.0238C11.1954 12.3903 10.4157 13.1713 10.0497 14.1618L9.95264 14.4244Z" stroke="black" stroke-width="1.5" stroke-linecap="round" stroke-linejoin="round"/>
<path d="M15.3649 15.8699C15.1933 15.3052 14.752 14.8633 14.1882 14.6914C14.752 14.5196 15.1933 14.0776 15.3649 13.513C15.5365 14.0776 15.9777 14.5196 16.5415 14.6914C15.9777 14.8633 15.5365 15.3052 15.3649 15.8699Z" stroke="black" stroke-width="1.5" stroke-linecap="round" stroke-linejoin="round"/>
</svg>
