<svg width="24" height="24" viewBox="0 0 24 24" fill="none" xmlns="http://www.w3.org/2000/svg">
<path d="M10.9984 18.2449V20.4871C10.9984 20.7988 11.2852 21.0331 11.5884 20.9544C15.7884 19.8635 19.4868 16.1394 19.9608 11.7081C20.0164 11.1879 20.0071 10.6832 19.9686 10.1636C19.5483 6.15521 16.141 3.0304 11.9999 3.0304C7.85891 3.0304 4.45162 6.15521 4.03125 10.1636C3.9927 10.6835 3.98248 11.1879 4.04323 11.7081C4.45879 15.2667 7.17636 18.0563 10.9984 18.2449Z" stroke="black" stroke-width="1.5" stroke-linecap="round" stroke-linejoin="round"/>
<path d="M10.0541 12.6768L9.95311 12.4034C9.57224 11.3726 8.76073 10.5599 7.7314 10.1784L7.45847 10.0773L7.7314 9.97613C8.76073 9.59471 9.57224 8.78198 9.95311 7.75119L10.0541 7.47778L10.1551 7.75119C10.536 8.78198 11.3475 9.59471 12.3768 9.97613L12.6499 10.0773L12.3768 10.1784C11.3475 10.5599 10.536 11.3726 10.1551 12.4034L10.0541 12.6768Z" stroke="black" stroke-width="1.5" stroke-linecap="round" stroke-linejoin="round"/>
<path d="M15.3649 13.9188C15.1933 13.3541 14.752 12.9122 14.1882 12.7403C14.752 12.5685 15.1933 12.1266 15.3649 11.5619C15.5365 12.1266 15.9777 12.5685 16.5415 12.7403C15.9777 12.9122 15.5365 13.3541 15.3649 13.9188Z" stroke="black" stroke-width="1.5" stroke-linecap="round" stroke-linejoin="round"/>
</svg>
