<svg width="24" height="24" viewBox="0 0 24 24" fill="none" xmlns="http://www.w3.org/2000/svg">
<path d="M3 11.9595C3 7.00572 7.02944 2.98987 12 2.98987C16.9706 2.98987 21 7.00572 21 11.9595C21 16.9133 16.9706 20.9292 12 20.9292H4C3.44772 20.9292 3 20.483 3 19.9326V11.9595Z" stroke="black" stroke-width="1.5" stroke-linecap="round" stroke-linejoin="round"/>
<path d="M13.9459 13.9784L14.0469 13.705C14.4277 12.6742 15.2393 11.8615 16.2686 11.4801L16.5415 11.3789L16.2686 11.2778C15.2393 10.8963 14.4277 10.0836 14.0469 9.05282L13.9459 8.77942L13.8448 9.05282C13.464 10.0836 12.6525 10.8963 11.6231 11.2778L11.3501 11.3789L11.6231 11.4801C12.6525 11.8615 13.464 12.6742 13.8448 13.705L13.9459 13.9784Z" stroke="black" stroke-width="1.5" stroke-linecap="round" stroke-linejoin="round"/>
<path d="M8.63514 15.2205C8.80675 14.6559 9.248 14.214 9.8118 14.0421C9.248 13.8702 8.80675 13.4283 8.63514 12.8636C8.46353 13.4283 8.02228 13.8702 7.45847 14.0421C8.02228 14.214 8.46353 14.6559 8.63514 15.2205Z" stroke="black" stroke-width="1.5" stroke-linecap="round" stroke-linejoin="round"/>
</svg>
