<svg width="24" height="24" viewBox="0 0 24 24" fill="none" xmlns="http://www.w3.org/2000/svg">
<path d="M11.6561 3C10.3049 3 9.20946 4.09543 9.20946 5.44668L9.44842 7.41827C9.5946 8.6224 8.65566 9.68222 7.44309 9.68222H5.77043C4.82962 9.68222 4.06591 10.4431 4.06403 11.3839V11.3905C4.06122 12.3379 4.82774 13.1053 5.77418 13.1053H17.5503C18.4949 13.1053 19.2604 12.3397 19.2604 11.3952C19.2604 10.4497 18.493 9.68316 17.5475 9.68503L15.8739 9.68784C14.6641 9.68972 13.7252 8.63364 13.8676 7.43326L14.1038 5.44668C14.1038 4.09543 13.0074 3 11.6561 3Z" stroke="black" stroke-width="1.5" stroke-linecap="round" stroke-linejoin="round"/>
<path d="M9.40273 20.3352C7.07318 20.3342 4.66833 20.3324 4.6599 20.3296C4.14451 20.2077 3.92524 19.6774 4.20073 19.2257C4.27008 19.1123 5.26337 17.718 5.17716 15.5749V13.1119" stroke="black" stroke-width="1.5" stroke-linecap="round" stroke-linejoin="round"/>
<path d="M11.6611 5.49853V5.48853" stroke="black" stroke-width="1.5" stroke-linecap="round" stroke-linejoin="round"/>
<path d="M17.4362 20.7673L17.5335 20.5041C17.9003 19.5114 18.6818 18.7287 19.6731 18.3613L19.936 18.2639L19.6731 18.1665C18.6818 17.7992 17.9003 17.0165 17.5335 16.0238L17.4362 15.7605L17.339 16.0238C16.9722 17.0165 16.1906 17.7992 15.1994 18.1665L14.9364 18.2639L15.1994 18.3613C16.1906 18.7287 16.9722 19.5114 17.339 20.5041L17.4362 20.7673Z" stroke="black" stroke-width="1.5" stroke-linecap="round" stroke-linejoin="round"/>
<path d="M11.4588 18.2639C11.6536 17.623 12.1544 17.1213 12.7944 16.9263C12.1544 16.7312 11.6536 16.2296 11.4588 15.5886C11.264 16.2296 10.7631 16.7312 10.1231 16.9263C10.7631 17.1213 11.264 17.623 11.4588 18.2639Z" stroke="black" stroke-width="1.5" stroke-linecap="round" stroke-linejoin="round"/>
<path d="M13.01 21H13.02" stroke="black" stroke-width="1.5" stroke-linecap="round" stroke-linejoin="round"/>
</svg>
