<svg width="24" height="24" viewBox="0 0 24 24" fill="none" xmlns="http://www.w3.org/2000/svg">
<path d="M11.998 19.1122C15.703 19.1122 19.092 16.4482 21 12.0092C19.092 7.57025 15.703 4.90625 11.998 4.90625C8.297 4.90625 4.908 7.57025 3 12.0092C4.908 16.4502 8.297 19.1122 12.002 19.1122H11.998Z" stroke="black" stroke-width="1.5" stroke-linecap="round" stroke-linejoin="round"/>
<path d="M10.3023 13.7261L10.2141 13.4876C9.88182 12.5882 9.17378 11.8791 8.27569 11.5463L8.03756 11.458L8.27569 11.3698C9.17378 11.037 9.88182 10.3279 10.2141 9.42853L10.3023 9.18999L10.3904 9.42853C10.7227 10.3279 11.4307 11.037 12.3288 11.3698L12.567 11.458L12.3288 11.5463C11.4307 11.8791 10.7227 12.5882 10.3904 13.4876L10.3023 13.7261Z" stroke="black" stroke-width="1.5" stroke-linecap="round" stroke-linejoin="round"/>
<path d="M14.9358 14.8098C14.7861 14.3171 14.4011 13.9316 13.9092 13.7816C14.4011 13.6317 14.7861 13.2461 14.9358 12.7534C15.0856 13.2461 15.4706 13.6317 15.9625 13.7816C15.4706 13.9316 15.0856 14.3171 14.9358 14.8098Z" stroke="black" stroke-width="1.5" stroke-linecap="round" stroke-linejoin="round"/>
</svg>
