<svg width="24" height="24" viewBox="0 0 24 24" fill="none" xmlns="http://www.w3.org/2000/svg">
<path d="M17.5681 3.02436C17.5748 2.99188 17.6212 2.99188 17.6278 3.02436C17.9724 4.71016 19.2898 6.0276 20.9756 6.37217C21.0081 6.37881 21.0081 6.42521 20.9756 6.43185C19.2898 6.77642 17.9724 8.09386 17.6278 9.77966C17.6212 9.81214 17.5748 9.81214 17.5681 9.77966C17.2236 8.09386 15.9061 6.77642 14.2203 6.43185C14.1879 6.42521 14.1879 6.37881 14.2203 6.37217C15.9061 6.0276 17.2236 4.71016 17.5681 3.02436Z" stroke="black" stroke-width="1.5"/>
<path d="M3 6.40203H10.5507M3 18.4831H20.1149M17.598 21V13.4493M5.5169 21V3.88513" stroke="black" stroke-width="1.5" stroke-linecap="round"/>
</svg>
