<svg width="24" height="24" viewBox="0 0 24 24" fill="none" xmlns="http://www.w3.org/2000/svg">
<path d="M10.6835 20.1565H7.42699C4.70074 20.1565 3 18.2407 3 15.5145V8.16371C3 5.43844 4.70074 3.51294 7.42699 3.51294H15.2175C17.9525 3.51294 19.6435 5.43844 19.6435 8.16371V12.3717" stroke="black" stroke-width="1.5" stroke-linecap="round" stroke-linejoin="round"/>
<path d="M3.0019 9.06383H19.6435M3 14.6517H6.03924M14.1288 6.81057V3.52344M8.53849 3.52724V20.1572" stroke="black" stroke-width="1.5" stroke-linecap="round" stroke-linejoin="round"/>
<path d="M16.4218 20.1565L16.2964 19.8172C15.8237 18.5378 14.8164 17.529 13.5388 17.0556L13.2001 16.9301L13.5388 16.8045C14.8164 16.3311 15.8237 15.3223 16.2964 14.0429L16.4218 13.7036L16.5471 14.0429C17.0199 15.3223 18.0271 16.3311 19.3047 16.8045L19.6436 16.9301L19.3047 17.0556C18.0271 17.529 17.0199 18.5378 16.5471 19.8172L16.4218 20.1565Z" stroke="black" stroke-width="1.5" stroke-linecap="round" stroke-linejoin="round"/>
<path d="M12.4526 13.7036C12.281 13.1389 11.8397 12.697 11.2759 12.5252C11.8397 12.3533 12.281 11.9114 12.4526 11.3467C12.6242 11.9114 13.0654 12.3533 13.6292 12.5252C13.0654 12.697 12.6242 13.1389 12.4526 13.7036Z" stroke="black" stroke-width="1.5" stroke-linecap="round" stroke-linejoin="round"/>
</svg>
