<svg width="24" height="24" viewBox="0 0 24 24" fill="none" xmlns="http://www.w3.org/2000/svg">
<path d="M17.957 20.8245L17.8385 20.504C17.392 19.2956 16.4407 18.3428 15.234 17.8956L14.914 17.777L15.234 17.6584C16.4407 17.2113 17.392 16.2585 17.8385 15.0501L17.957 14.7296L18.0754 15.0501C18.5219 16.2585 19.4732 17.2113 20.68 17.6584L21 17.777L20.68 17.8956C19.4732 18.3428 18.5219 19.2956 18.0754 20.504L17.957 20.8245Z" stroke="black" stroke-width="1.5" stroke-linecap="round" stroke-linejoin="round"/>
<path d="M12.8796 3.84928C13.7646 2.64519 14.993 3.28918 15.9226 3.97243C16.8522 4.65567 17.8335 5.63586 16.9485 6.83994L7.39968 19.8068C7.13075 20.1727 6.72683 20.4161 6.27766 20.4828L4.01887 20.8182C3.71057 20.864 3.42302 20.6527 3.37469 20.3448L3.0206 18.0888C2.95019 17.6402 3.06186 17.1821 3.33079 16.8162L12.8796 3.84928Z" stroke="black" stroke-width="1.5" stroke-linecap="round" stroke-linejoin="round"/>
<path d="M11.5 20.4292H11.51" stroke="black" stroke-width="1.5" stroke-linecap="round" stroke-linejoin="round"/>
<path d="M11.4208 6.1427L15.3103 9.00092" stroke="black" stroke-width="1.5" stroke-linecap="round" stroke-linejoin="round"/>
</svg>
