<svg width="24" height="24" viewBox="0 0 24 24" fill="none" xmlns="http://www.w3.org/2000/svg">
<path d="M3 8.46907V6.89189C3 4.74259 4.74259 3 6.89286 3H8.18205" stroke="black" stroke-width="1.5" stroke-linecap="round" stroke-linejoin="round"/>
<path d="M3 15.5312V17.1084C3 19.2577 4.74259 21.0003 6.89286 21.0003H8.14994" stroke="black" stroke-width="1.5" stroke-linecap="round" stroke-linejoin="round"/>
<path d="M21.0004 15.5312V17.1084C21.0004 19.2577 19.2578 21.0003 17.1075 21.0003H15.8184" stroke="black" stroke-width="1.5" stroke-linecap="round" stroke-linejoin="round"/>
<path d="M20.9995 8.46907V6.89189C20.9995 4.74259 19.257 3 17.1067 3H15.8496" stroke="black" stroke-width="1.5" stroke-linecap="round" stroke-linejoin="round"/>
<path d="M7.02637 12.4694C9.01574 8.15865 14.9839 8.15865 16.9732 12.4694" stroke="black" stroke-width="1.5" stroke-linecap="round" stroke-linejoin="round"/>
<path fill-rule="evenodd" clip-rule="evenodd" d="M12.0023 14.788C11.2115 14.788 10.5649 14.1446 10.5649 13.3501C10.5649 12.5562 11.2115 11.9121 12.0023 11.9121C12.7937 11.9121 13.4402 12.5562 13.4402 13.3501C13.4402 14.1446 12.7937 14.788 12.0023 14.788Z" stroke="black" stroke-width="1.5" stroke-linecap="round" stroke-linejoin="round"/>
</svg>