<svg width="24" height="24" viewBox="0 0 24 24" fill="none" xmlns="http://www.w3.org/2000/svg">
<path d="M3 8.46907V6.89189C3 4.74259 4.74259 3 6.89286 3H8.18205" stroke="black" stroke-width="1.5" stroke-linecap="round" stroke-linejoin="round"/>
<path d="M3 15.5312V17.1084C3 19.2577 4.74259 21.0003 6.89286 21.0003H8.14994" stroke="black" stroke-width="1.5" stroke-linecap="round" stroke-linejoin="round"/>
<path d="M21.0004 15.5312V17.1084C21.0004 19.2577 19.2578 21.0003 17.1075 21.0003H15.8184" stroke="black" stroke-width="1.5" stroke-linecap="round" stroke-linejoin="round"/>
<path d="M20.9995 8.46907V6.89189C20.9995 4.74259 19.257 3 17.1067 3H15.8496" stroke="black" stroke-width="1.5" stroke-linecap="round" stroke-linejoin="round"/>
<path d="M7.15283 9.25195C9.09147 13.4521 14.9074 13.4521 16.846 9.25195" stroke="black" stroke-width="1.5" stroke-linecap="round" stroke-linejoin="round"/>
<path d="M8.88684 11.3965L7.15479 13.7768" stroke="black" stroke-width="1.5" stroke-linecap="round" stroke-linejoin="round"/>
<path d="M15.1157 11.3965L16.8472 13.7768" stroke="black" stroke-width="1.5" stroke-linecap="round" stroke-linejoin="round"/>
<path d="M11.9995 12.4043V14.7464" stroke="black" stroke-width="1.5" stroke-linecap="round" stroke-linejoin="round"/>
</svg>