<svg width="24" height="24" viewBox="0 0 24 24" fill="none" xmlns="http://www.w3.org/2000/svg">
<path fill-rule="evenodd" clip-rule="evenodd" d="M10.8423 9.77815C10.8423 10.715 10.083 11.4752 9.14517 11.4752C8.20834 11.4752 7.44904 10.715 7.44904 9.77815C7.44904 8.84036 8.20834 8.08105 9.14517 8.08105C10.083 8.08105 10.8423 8.84036 10.8423 9.77815Z" stroke="black" stroke-width="1.5" stroke-linecap="round" stroke-linejoin="round"/>
<path d="M20.8586 14.1942V8.05838C20.8586 5.13694 19.0303 3.07612 16.1088 3.07612H7.7401C4.81866 3.07612 3 5.13694 3 8.05838V15.9437C3 18.8662 4.82831 20.925 7.7401 20.925H13.2067" stroke="black" stroke-width="1.5" stroke-linecap="round" stroke-linejoin="round"/>
<path d="M8.70243 20.9228C8.05504 15.626 15.4339 12.9882 20.8532 12.6602" stroke="black" stroke-width="1.5" stroke-linecap="round" stroke-linejoin="round"/>
<path d="M17.3536 15.7238L17.4546 15.9971C17.8355 17.0279 18.647 17.8406 19.6764 18.2221L19.9493 18.3232L19.6764 18.4244C18.647 18.8058 17.8355 19.6185 17.4546 20.6493L17.3536 20.9227L17.2526 20.6493C16.8718 19.6185 16.0602 18.8058 15.0309 18.4244L14.7579 18.3232L15.0309 18.2221C16.0602 17.8406 16.8718 17.0279 17.2526 15.9971L17.3536 15.7238Z" stroke="black" stroke-width="1.5" stroke-linecap="round" stroke-linejoin="round"/>
</svg>
