<svg width="24" height="24" viewBox="0 0 24 24" fill="none" xmlns="http://www.w3.org/2000/svg">
<path d="M12.4868 21H7.88862C5.61316 21 3.76953 19.155 3.76953 16.88V7.11899C3.76953 4.84499 5.61316 3 7.88862 3H14.9847C17.2601 3 19.1047 4.84499 19.1047 7.11899V12.4567" stroke="black" stroke-width="1.5" stroke-linecap="round" stroke-linejoin="round"/>
<path fill-rule="evenodd" clip-rule="evenodd" d="M9.63257 10.4219C10.6286 10.4219 11.4346 9.61529 11.4346 8.61999C11.4346 7.62459 10.6286 6.81799 9.63257 6.81799C8.63757 6.81799 7.83057 7.6246 7.83057 8.62L7.83057 8.62389C7.83257 9.61729 8.63957 10.4219 9.63257 10.4219Z" stroke="black" stroke-width="1.5" stroke-linecap="round" stroke-linejoin="round"/>
<path d="M9.63525 10.4703L9.63525 16.1461L11.4373 16.1461" stroke="black" stroke-width="1.5" stroke-linecap="round" stroke-linejoin="round"/>
<path d="M11.4373 13.3942L9.63525 13.3942" stroke="black" stroke-width="1.5" stroke-linecap="round" stroke-linejoin="round"/>
<path d="M17.646 15.7217L17.5434 15.9992C17.1567 17.0458 16.3328 17.8709 15.2877 18.2582L15.0106 18.3609L15.2877 18.4636C16.3328 18.8509 17.1567 19.676 17.5434 20.7226L17.646 21.0001L17.7485 20.7226C18.1352 19.676 18.9591 18.8509 20.0042 18.4636L20.2814 18.3609L20.0042 18.2582C18.9591 17.8709 18.1352 17.0458 17.7485 15.9992L17.646 15.7217Z" stroke="black" stroke-width="1.5" stroke-linecap="round" stroke-linejoin="round"/>
</svg>
