<svg width="24" height="24" viewBox="0 0 24 24" fill="none" xmlns="http://www.w3.org/2000/svg">
<path d="M16.4478 9.45811V7.36212C16.4176 4.90512 14.4004 2.93811 11.9442 2.96911C9.53778 2.99911 7.59168 4.93711 7.55078 7.34211V9.45811" stroke="black" stroke-width="1.5" stroke-linecap="round" stroke-linejoin="round"/>
<path d="M9.30375 21.0129H14.6956C16.2909 21.0129 17.0886 21.0129 17.7043 20.7169C18.319 20.4219 18.8148 19.9259 19.11 19.3119C19.4056 18.6959 19.4056 17.8979 19.4056 16.3029V14.1709C19.4056 12.5759 19.4056 11.7779 19.11 11.1629C18.8148 10.5479 18.319 10.0519 17.7043 9.75694C17.0886 9.46094 16.2909 9.46094 14.6956 9.46094H9.30375C7.70845 9.46094 6.91075 9.46094 6.29515 9.75694C5.68035 10.0519 5.18455 10.5479 4.88935 11.1629C4.59375 11.7779 4.59375 12.5759 4.59375 14.1709V16.3029C4.59375 17.8979 4.59375 18.6959 4.88935 19.3119C5.18455 19.9259 5.68035 20.4219 6.29515 20.7169C6.91075 21.0129 7.70845 21.0129 9.30375 21.0129Z" stroke="black" stroke-width="1.5" stroke-linecap="round" stroke-linejoin="round"/>
<path d="M10.3256 16.9392L10.2386 16.704C9.91096 15.8171 9.21276 15.1179 8.32716 14.7897L8.09234 14.7027L8.32716 14.6157C9.21276 14.2875 9.91096 13.5883 10.2386 12.7014L10.3256 12.4662L10.4125 12.7014C10.7402 13.5883 11.4384 14.2875 12.324 14.6157L12.5588 14.7027L12.324 14.7897C11.4384 15.1179 10.7402 15.8171 10.4125 16.704L10.3256 16.9392Z" stroke="black" stroke-width="1.5" stroke-linecap="round" stroke-linejoin="round"/>
<path d="M14.8947 18.0078C14.7471 17.522 14.3674 17.1418 13.8824 16.9939C14.3674 16.846 14.7471 16.4658 14.8947 15.98C15.0424 16.4658 15.422 16.846 15.9071 16.9939C15.422 17.1418 15.0424 17.522 14.8947 18.0078Z" stroke="black" stroke-width="1.5" stroke-linecap="round" stroke-linejoin="round"/>
</svg>
