<svg width="24" height="24" viewBox="0 0 24 24" fill="none" xmlns="http://www.w3.org/2000/svg">
<path d="M17.3819 3.62077C18.2096 2.79308 19.5515 2.79308 20.3792 3.62077C21.2069 4.44847 21.2069 5.79044 20.3792 6.61814L6.61814 20.3792C5.79044 21.2069 4.44847 21.2069 3.62077 20.3792C2.79308 19.5515 2.79308 18.2096 3.62077 17.3819L17.3819 3.62077Z" stroke="black" stroke-width="1.5" stroke-linecap="round" stroke-linejoin="round"/>
<path d="M5.73061 9.56128L5.62434 9.27369C5.22368 8.18931 4.36997 7.33433 3.28712 6.93307L3 6.82666L3.28712 6.72024C4.36997 6.31898 5.22368 5.464 5.62434 4.37962L5.73061 4.092L5.83688 4.37962C6.23754 5.464 7.09125 6.31898 8.17409 6.72024L8.46129 6.82666L8.17409 6.93307C7.09125 7.33433 6.23754 8.18931 5.83688 9.27369L5.73061 9.56128Z" stroke="black" stroke-width="1.5" stroke-linecap="round" stroke-linejoin="round"/>
<path d="M19.5006 12.8972C19.656 13.4083 20.0554 13.8084 20.5657 13.9639C20.0554 14.1195 19.656 14.5195 19.5006 15.0306C19.3453 14.5195 18.9459 14.1195 18.4355 13.9639C18.9459 13.8084 19.3453 13.4083 19.5006 12.8972Z" stroke="black" stroke-width="1.5" stroke-linecap="round" stroke-linejoin="round"/>
<path d="M15.4185 5.64771L18.3413 8.57046" stroke="black" stroke-width="1.5" stroke-linecap="round" stroke-linejoin="round"/>
<path d="M16.1784 18.3367H16.1684" stroke="black" stroke-width="1.5" stroke-linecap="round" stroke-linejoin="round"/>
<path d="M11.1869 3.58691H11.1969" stroke="black" stroke-width="1.5" stroke-linecap="round" stroke-linejoin="round"/>
</svg>
