<svg width="24" height="24" viewBox="0 0 24 24" fill="none" xmlns="http://www.w3.org/2000/svg">
<path d="M11.3064 20.9896C6.66868 20.6149 3.0332 16.7362 3.0332 12.004C3.0332 7.03834 7.06181 3 12.0372 3C16.638 3 20.4224 6.44864 20.9663 10.8986" stroke="black" stroke-width="1.5" stroke-linecap="round" stroke-linejoin="round"/>
<path d="M15.1752 8.87456C14.7061 5.44538 13.479 3 12.036 3C10.6026 3 9.36579 5.44538 8.89773 8.87456C8.75663 9.84863 8.6817 10.8976 8.6817 12.004C8.6817 13.1095 8.75663 14.1682 8.89773 15.1423C9.22566 17.5224 10.2377 19.818 11.3052 20.9886" stroke="black" stroke-width="1.5" stroke-linecap="round" stroke-linejoin="round"/>
<path d="M3.0332 12.012L10.4675 12.012" stroke="black" stroke-width="1.5" stroke-linecap="round" stroke-linejoin="round"/>
<path d="M18.5141 14.8224L18.6151 15.0958C18.996 16.1266 19.8075 16.9393 20.8369 17.3207L21.1098 17.4219L20.8369 17.523C19.8075 17.9045 18.996 18.7172 18.6151 19.748L18.5141 20.0214L18.4131 19.748C18.0322 18.7172 17.2207 17.9045 16.1914 17.523L15.9184 17.4219L16.1914 17.3207C17.2207 16.9393 18.0322 16.1266 18.4131 15.0958L18.5141 14.8224Z" stroke="black" stroke-width="1.5" stroke-linecap="round" stroke-linejoin="round"/>
<path d="M13.2034 13.5803C13.375 14.145 13.8163 14.5869 14.3801 14.7588C13.8163 14.9306 13.375 15.3726 13.2034 15.9372C13.0318 15.3726 12.5905 14.9306 12.0267 14.7588C12.5905 14.5869 13.0318 14.145 13.2034 13.5803Z" stroke="black" stroke-width="1.5" stroke-linecap="round" stroke-linejoin="round"/>
</svg>
