<svg width="24" height="24" viewBox="0 0 24 24" fill="none" xmlns="http://www.w3.org/2000/svg">
<path fill-rule="evenodd" clip-rule="evenodd" d="M9.20951 2.99951H14.7915C15.3898 2.99951 15.9639 3.23692 16.3881 3.66113L20.3394 7.61238C20.7626 8.03562 21 8.60967 21 9.20903V14.79C21 15.3893 20.7626 15.9634 20.3394 16.3866L16.3881 20.3379C15.9639 20.7621 15.3898 20.9995 14.7915 20.9995H9.20951C8.61114 20.9995 8.03611 20.7621 7.61287 20.3379L3.66162 16.3866C3.23838 15.9634 3 15.3893 3 14.79V9.20903C3 8.60967 3.23838 8.03562 3.66162 7.61238L7.61287 3.66113C8.03611 3.23692 8.61114 2.99951 9.20951 2.99951Z" stroke="black" stroke-width="1.5" stroke-linecap="round" stroke-linejoin="round"/>
<path d="M14.3849 9.85864L14.4787 10.1125C14.8323 11.0696 15.5858 11.8243 16.5416 12.1784L16.795 12.2724L16.5416 12.3663C15.5858 12.7205 14.8323 13.4751 14.4787 14.4323L14.3849 14.6861L14.2911 14.4323C13.9374 13.4751 13.1839 12.7205 12.2281 12.3663L11.9746 12.2724L12.2281 12.1784C13.1839 11.8243 13.9374 11.0696 14.2911 10.1125L14.3849 9.85864Z" stroke="black" stroke-width="1.5" stroke-linecap="round" stroke-linejoin="round"/>
<path d="M8.29755 9.31384C8.4569 9.83816 8.86662 10.2485 9.39013 10.4081C8.86662 10.5677 8.4569 10.978 8.29755 11.5023C8.1382 10.978 7.72848 10.5677 7.20496 10.4081C7.72848 10.2485 8.1382 9.83816 8.29755 9.31384Z" stroke="black" stroke-width="1.5" stroke-linecap="round" stroke-linejoin="round"/>
</svg>
