<svg width="24" height="24" viewBox="0 0 24 24" fill="none" xmlns="http://www.w3.org/2000/svg">
<path d="M20.4122 12.0781V8.1552C20.4122 5.30619 18.6371 3.29297 15.7852 3.29297H7.62599C4.78263 3.29297 3 5.30619 3 8.1552V15.8429C3 18.6919 4.77322 20.7051 7.62599 20.7051H12.1476" stroke="black" stroke-width="1.5" stroke-linecap="round" stroke-linejoin="round"/>
<path d="M15.1675 8.92383C15.1675 10.8363 13.6174 12.3865 11.7049 12.3865V12.3865C9.79234 12.3865 8.24219 10.8363 8.24219 8.92383" stroke="black" stroke-width="1.5" stroke-linecap="round" stroke-linejoin="round"/>
<path d="M17.5601 20.7051L17.6711 20.4047C18.0896 19.2721 18.9812 18.3791 20.1122 17.96L20.4121 17.8489L20.1122 17.7377C18.9812 17.3186 18.0896 16.4256 17.6711 15.293L17.5601 14.9926L17.4491 15.293C17.0306 16.4256 16.139 17.3186 15.008 17.7377L14.708 17.8489L15.008 17.96C16.139 18.3791 17.0306 19.2721 17.4491 20.4047L17.5601 20.7051Z" stroke="black" stroke-width="1.5" stroke-linecap="round" stroke-linejoin="round"/>
</svg>
