<svg width="24" height="24" viewBox="0 0 24 24" fill="none" xmlns="http://www.w3.org/2000/svg">
<path d="M17.4474 14.9586C17.4474 14.9586 18.9838 16.495 19.9685 17.4798C18.9838 18.4636 17.4474 20 17.4474 20" stroke="black" stroke-width="1.5" stroke-linecap="round" stroke-linejoin="round"/>
<path d="M17.4473 4C17.4473 4 18.9837 5.53642 19.9684 6.52114C18.9837 7.50498 17.4473 9.0414 17.4473 9.0414" stroke="black" stroke-width="1.5" stroke-linecap="round" stroke-linejoin="round"/>
<path d="M13.9668 15.8867C15.791 17.4807 17.9872 17.4807 19.9708 17.4807" stroke="black" stroke-width="1.5" stroke-linecap="round" stroke-linejoin="round"/>
<path d="M19.9685 6.51953C16.9798 6.51953 13.494 6.51925 11.5006 11.9981C9.50815 17.4778 7.01801 17.4778 4.0293 17.4778" stroke="black" stroke-width="1.5" stroke-linecap="round" stroke-linejoin="round"/>
<path d="M6.89661 9.73914L6.7851 9.43736C6.36466 8.29945 5.46882 7.40228 4.33253 6.98122L4.03124 6.86955L4.33253 6.75788C5.46882 6.33682 6.36466 5.43965 6.7851 4.30175L6.89661 3.99993L7.00812 4.30175C7.42856 5.43965 8.3244 6.33682 9.46068 6.75788L9.76205 6.86955L9.46068 6.98122C8.3244 7.40228 7.42856 8.29945 7.00812 9.43736L6.89661 9.73914Z" stroke="black" stroke-width="1.5" stroke-linecap="round" stroke-linejoin="round"/>
</svg>
