<svg width="24" height="24" viewBox="0 0 24 24" fill="none" xmlns="http://www.w3.org/2000/svg">
<path d="M11.0329 3H14.7574C16.7549 3 18.3749 4.62 18.3749 6.61751L18.3759 17.3815C18.3759 19.38 16.7559 21 14.7574 21H9.2426C7.24509 21 5.62509 19.38 5.62509 17.3825L5.62509 11.5918" stroke="black" stroke-width="1.5" stroke-linecap="round" stroke-linejoin="round"/>
<path d="M12.0002 17.3306V17.2824M12.0002 17.0293C11.862 17.0293 11.75 17.1413 11.75 17.2791C11.75 17.4173 11.862 17.5293 12.0002 17.5293C12.1385 17.5293 12.2505 17.4173 12.2505 17.2791C12.2505 17.1413 12.1385 17.0293 12.0002 17.0293Z" stroke="black" stroke-width="1.5" stroke-linecap="round" stroke-linejoin="round"/>
<path d="M7.16834 8.78357L7.06732 8.5102C6.68646 7.4794 5.87494 6.66668 4.84561 6.28525L4.57268 6.18409L4.84561 6.08293C5.87494 5.70151 6.68646 4.88878 7.06732 3.85799L7.16834 3.58458L7.26936 3.85799C7.65022 4.88878 8.46174 5.70151 9.49107 6.08293L9.76407 6.18409L9.49107 6.28525C8.46174 6.66668 7.65022 7.4794 7.26936 8.5102L7.16834 8.78357Z" stroke="black" stroke-width="1.5" stroke-linecap="round" stroke-linejoin="round"/>
<path d="M12.4791 10.0256C12.3074 9.46097 11.8662 9.01905 11.3024 8.84719C11.8662 8.67532 12.3074 8.2334 12.4791 7.66874C12.6507 8.2334 13.0919 8.67532 13.6557 8.84719C13.0919 9.01905 12.6507 9.46097 12.4791 10.0256Z" stroke="black" stroke-width="1.5" stroke-linecap="round" stroke-linejoin="round"/>
</svg>
