<svg width="24" height="24" viewBox="0 0 24 24" fill="none" xmlns="http://www.w3.org/2000/svg">
<path fill-rule="evenodd" clip-rule="evenodd" d="M11.7158 17.5998C11.8989 17.437 12.1353 17.3472 12.3802 17.3472H18C19.657 17.3472 21 16.0042 21 14.3472V6.34717C21 4.69017 19.657 3.34717 18 3.34717H6C4.343 3.34717 3 4.69017 3 6.34717V14.3472C3 16.0042 4.343 17.3472 6 17.3472H7C7.27614 17.3472 7.5 17.571 7.5 17.8472V20.2337C7.5 20.6652 8.00973 20.8941 8.33218 20.6075L11.7158 17.5998Z" stroke="black" stroke-width="1.5" stroke-linecap="round" stroke-linejoin="round"/>
<path d="M13.9459 12.2079L14.0469 11.9345C14.4277 10.9037 15.2393 10.091 16.2686 9.70958L16.5415 9.60842L16.2686 9.50726C15.2393 9.12583 14.4277 8.31311 14.0469 7.28231L13.9459 7.00891L13.8448 7.28231C13.464 8.31311 12.6525 9.12583 11.6231 9.50726L11.3501 9.60842L11.6231 9.70958C12.6525 10.091 13.464 10.9037 13.8448 11.9345L13.9459 12.2079Z" stroke="black" stroke-width="1.5" stroke-linecap="round" stroke-linejoin="round"/>
<path d="M8.63515 13.4499C8.80676 12.8853 9.24801 12.4433 9.81181 12.2715C9.24801 12.0996 8.80676 11.6577 8.63515 11.093C8.46354 11.6577 8.02229 12.0996 7.45847 12.2715C8.02229 12.4433 8.46354 12.8853 8.63515 13.4499Z" stroke="black" stroke-width="1.5" stroke-linecap="round" stroke-linejoin="round"/>
</svg>
