<svg width="24" height="24" viewBox="0 0 24 24" fill="none" xmlns="http://www.w3.org/2000/svg">
<path d="M10.2823 20.4819H16.7186C19.3503 20.4819 21 18.6191 21 15.9819V8.01899C21 5.38181 19.3585 3.51807 16.7186 3.51807H7.28322C4.64329 3.51807 3 5.38181 3 8.01899V12.9819" stroke="black" stroke-width="1.5" stroke-linecap="round" stroke-linejoin="round"/>
<path fill-rule="evenodd" clip-rule="evenodd" d="M13.9469 13.0263C13.2208 13.6832 12.3144 14.2748 11.3163 14.6773C10.4664 15.0126 9.75492 14.5945 9.65064 13.7573C9.52296 12.5224 9.52588 11.3411 9.65064 10.2387C9.76467 9.36837 10.5483 8.99897 11.3163 9.32256C12.2988 9.72509 13.1809 10.2709 13.9469 10.9736C14.6019 11.5672 14.6175 12.4103 13.9469 13.0263Z" stroke="black" stroke-width="1.5" stroke-linecap="round" stroke-linejoin="round"/>
<path d="M5.26359 15.2829L5.14965 15.5912C4.72006 16.7539 3.80473 17.6706 2.64372 18.1008L2.33588 18.2149L2.64372 18.329C3.80473 18.7592 4.72006 19.6759 5.14965 20.8386L5.26359 21.147L5.37753 20.8386C5.80712 19.6759 6.72245 18.7592 7.88346 18.329L8.19139 18.2149L7.88346 18.1008C6.72245 17.6706 5.80712 16.7539 5.37753 15.5912L5.26359 15.2829Z" stroke="black" stroke-width="1.5" stroke-linecap="round" stroke-linejoin="round"/>
</svg>
