<svg width="24" height="24" viewBox="0 0 24 24" fill="none" xmlns="http://www.w3.org/2000/svg">
<path d="M20.9999 12.5384V8.0273C20.9999 5.08117 19.1659 3 16.2178 3H7.78221C4.84289 3 3.00009 5.08117 3.00009 8.0273V15.9735C3.00009 18.9196 4.83413 20.9998 7.78221 20.9998H10.3648" stroke="black" stroke-width="1.5" stroke-linecap="round" stroke-linejoin="round"/>
<path d="M6.34452 6.5498H6.28906M8.83014 6.5498H8.77468M11.3158 6.5498H11.2603" stroke="black" stroke-width="1.5" stroke-linecap="round" stroke-linejoin="round"/>
<path d="M20.9998 9.49146H3" stroke="black" stroke-width="1.5" stroke-linecap="round" stroke-linejoin="round"/>
<path d="M18.4042 15.8009L18.5052 16.0743C18.8861 17.1051 19.6976 17.9178 20.727 18.2992L20.9999 18.4004L20.727 18.5015C19.6976 18.883 18.8861 19.6957 18.5052 20.7265L18.4042 20.9999L18.3032 20.7265C17.9224 19.6957 17.1108 18.883 16.0815 18.5015L15.8085 18.4004L16.0815 18.2992C17.1108 17.9178 17.9224 17.1051 18.3032 16.0743L18.4042 15.8009Z" stroke="black" stroke-width="1.5" stroke-linecap="round" stroke-linejoin="round"/>
<path d="M12.793 13.9568C13.0084 14.6657 13.5624 15.2205 14.2702 15.4363C13.5624 15.652 13.0084 16.2068 12.793 16.9157C12.5775 16.2068 12.0236 15.652 11.3157 15.4363C12.0236 15.2205 12.5775 14.6657 12.793 13.9568Z" stroke="black" stroke-width="1.5" stroke-linecap="round" stroke-linejoin="round"/>
</svg>
