<svg width="25" height="24" viewBox="0 0 25 24" fill="none" xmlns="http://www.w3.org/2000/svg">
<path opacity="0.4" fill-rule="evenodd" clip-rule="evenodd" d="M18.2436 8.26383C18.1031 8.24487 17.9909 8.13667 17.9674 7.99688C17.6511 6.10873 16.1341 3.17969 12.4999 3.17969C8.86674 3.17969 7.34972 6.10872 7.03342 7.99687C7.01 8.13667 6.89771 8.24487 6.75724 8.26382C4.36653 8.58628 2.75293 10.4361 2.75293 12.9677C2.75293 14.8347 3.85193 16.5377 5.57193 17.3157C6.0427 17.5027 6.55383 17.6211 7.0314 17.667C7.19987 17.6832 7.33914 17.5466 7.34786 17.3775C7.41548 16.0654 7.91626 14.8386 8.86493 13.8947L10.7839 11.9707C11.2529 11.5007 11.8889 11.2367 12.5529 11.2367C13.2159 11.2367 13.8539 11.4997 14.3219 11.9687L16.2499 13.8987C17.1959 14.8409 17.694 16.0659 17.7627 17.3744C17.7717 17.5461 17.9152 17.6838 18.0859 17.6636C18.4565 17.6195 18.9293 17.5209 19.4539 17.3067C21.1499 16.5387 22.2469 14.8357 22.2469 12.9677C22.2469 10.4361 20.6334 8.58633 18.2436 8.26383Z" fill="black"/>
<path fill-rule="evenodd" clip-rule="evenodd" d="M12.9075 13.3843C12.8135 13.2903 12.6865 13.2383 12.5535 13.2383C12.4215 13.2383 12.2945 13.2903 12.2005 13.3843L10.2765 15.3133C9.66654 15.9203 9.33055 16.7303 9.33155 17.5923C9.33155 18.4553 9.66754 19.2653 10.2755 19.8703C10.8845 20.4823 11.6935 20.8203 12.5555 20.8203H12.5565C13.4185 20.8203 14.2285 20.4833 14.8365 19.8713C15.4455 19.2643 15.7805 18.4553 15.7805 17.5933C15.7805 16.7303 15.4445 15.9203 14.8355 15.3143L12.9075 13.3843Z" fill="black"/>
</svg>