<svg width="25" height="24" viewBox="0 0 25 24" fill="none" xmlns="http://www.w3.org/2000/svg">
<path opacity="0.4" fill-rule="evenodd" clip-rule="evenodd" d="M18.2431 8.17789C18.1026 8.15893 17.9903 8.05073 17.9669 7.91094C17.6506 6.02279 16.1336 3.09375 12.4994 3.09375C8.86616 3.09375 7.34915 6.02289 7.03289 7.91103C7.00949 8.05079 6.89726 8.15897 6.75684 8.17797C4.36703 8.50127 2.75342 10.3502 2.75342 12.8818C2.75342 14.7487 3.85142 16.4517 5.57142 17.2297C6.07401 17.4294 6.60327 17.5483 7.10119 17.5885C7.24551 17.6001 7.37677 17.5121 7.44509 17.3845C7.51547 17.253 7.51402 17.0937 7.44065 16.9639C7.14752 16.4451 7.03955 15.8203 7.18442 15.1908L7.19042 15.1608C7.49942 13.8158 8.83342 12.9717 10.1874 13.2837C10.9445 13.4572 11.5424 13.9591 11.8646 14.6041C11.9052 14.6852 11.995 14.7309 12.0844 14.7157C12.3435 14.6708 12.6002 14.6679 12.8485 14.7012C12.9926 14.7205 13.1357 14.6485 13.2063 14.5215C13.5382 13.9235 14.1101 13.4626 14.8264 13.2978C16.1704 12.9898 17.5104 13.8148 17.8184 15.1608L17.8254 15.1908C17.9692 15.8167 17.8647 16.441 17.5754 16.9615C17.502 17.0935 17.5021 17.2559 17.5747 17.3884C17.6459 17.5182 17.7798 17.6068 17.9273 17.5941C18.3151 17.5608 18.8493 17.4676 19.4534 17.2207C21.1494 16.4528 22.2464 14.7498 22.2464 12.8818C22.2464 10.3502 20.6329 8.50039 18.2431 8.17789Z" fill="black"/>
<path fill-rule="evenodd" clip-rule="evenodd" d="M9.4343 16.5609C9.4963 16.5749 9.5573 16.5819 9.6193 16.5819C10.0093 16.5819 10.3653 16.3039 10.4553 15.9079C10.5613 15.4499 10.2753 14.9939 9.8183 14.8889C9.3613 14.7839 8.9043 15.0689 8.7993 15.5279L8.7923 15.5579C8.6873 16.0149 8.9763 16.4559 9.4343 16.5609Z" fill="black"/>
<path fill-rule="evenodd" clip-rule="evenodd" d="M12.6511 19.1997C12.1991 19.1217 11.7501 19.4307 11.6711 19.8947L11.6641 19.9347C11.5851 20.3977 11.8991 20.8167 12.3621 20.8957C12.4081 20.9037 12.4541 20.9077 12.5001 20.9077C12.9101 20.9077 13.2751 20.5967 13.3461 20.1807C13.4251 19.7177 13.1141 19.2787 12.6511 19.1997Z" fill="black"/>
<path fill-rule="evenodd" clip-rule="evenodd" d="M9.77023 17.7598C9.31623 17.6858 8.86923 17.9918 8.79023 18.4548L8.78323 18.4948C8.70423 18.9578 9.01823 19.3768 9.48123 19.4558C9.52723 19.4638 9.57323 19.4678 9.61923 19.4678C10.0292 19.4678 10.3942 19.1568 10.4652 18.7408C10.5442 18.2778 10.2332 17.8388 9.77023 17.7598Z" fill="black"/>
<path fill-rule="evenodd" clip-rule="evenodd" d="M15.3884 16.5977C15.4514 16.5977 15.5154 16.5907 15.5794 16.5767C16.0364 16.4717 16.3234 16.0147 16.2174 15.5577L16.2104 15.5277C16.1064 15.0707 15.6564 14.7967 15.1964 14.9047C14.7384 15.0097 14.4554 15.4797 14.5614 15.9377C14.6514 16.3307 15.0014 16.5977 15.3884 16.5977Z" fill="black"/>
<path fill-rule="evenodd" clip-rule="evenodd" d="M12.362 16.3399C11.899 16.4189 11.591 16.8779 11.671 17.3409C11.741 17.7559 12.101 18.0479 12.508 18.0479C12.555 18.0479 12.603 18.0439 12.651 18.0359C13.114 17.9569 13.425 17.5179 13.346 17.0549L13.34 17.0149C13.26 16.5519 12.822 16.2569 12.362 16.3399Z" fill="black"/>
<path fill-rule="evenodd" clip-rule="evenodd" d="M15.5319 17.7598C15.0809 17.6858 14.6309 17.9918 14.5519 18.4548L14.5449 18.4948C14.4659 18.9578 14.7799 19.3768 15.2429 19.4558C15.2889 19.4638 15.3349 19.4678 15.3809 19.4678C15.7909 19.4678 16.1559 19.1568 16.2269 18.7408C16.3059 18.2778 15.9949 17.8388 15.5319 17.7598Z" fill="black"/>
</svg>