<svg width="25" height="24" viewBox="0 0 25 24" fill="none" xmlns="http://www.w3.org/2000/svg">
<path opacity="0.4" d="M20.4151 10.1031C20.1581 9.60106 19.6481 9.28906 19.0841 9.28906H14.1061L10.8931 14.7081V19.9991C10.8931 20.6611 11.2991 21.2211 11.9271 21.4251C12.0851 21.4771 12.2451 21.5021 12.4021 21.5021C12.8681 21.5021 13.3091 21.2821 13.5991 20.8821L20.2941 11.6621C20.6261 11.2031 20.6721 10.6061 20.4151 10.1031Z" fill="black"/>
<path d="M14.106 4.00068V9.29068L10.893 14.7097H5.91597C5.35197 14.7097 4.84197 14.3977 4.58497 13.8967C4.32797 13.3927 4.37397 12.7957 4.70597 12.3367L11.401 3.11668H11.402C11.79 2.58268 12.441 2.36768 13.072 2.57268C13.7 2.77668 14.106 3.33768 14.106 4.00068Z" fill="black"/>
</svg>