<svg width="25" height="24" viewBox="0 0 25 24" fill="none" xmlns="http://www.w3.org/2000/svg">
<path opacity="0.4" fill-rule="evenodd" clip-rule="evenodd" d="M20.7262 14.0872C20.7153 14.0922 20.7052 14.0972 20.6943 14.1032C17.7803 15.6582 14.1082 15.1102 11.7653 12.7712C9.42225 10.4222 8.86725 6.7492 10.4253 3.8202C10.5192 3.6242 10.4952 3.3962 10.3612 3.2262C10.2352 3.0662 9.96825 2.9752 9.77125 3.0332C5.72925 4.1932 2.90625 7.9402 2.90625 12.1442C2.90625 17.3712 7.15725 21.6242 12.3833 21.6242C16.5913 21.6242 20.3372 18.7972 21.4963 14.7452C21.5473 14.5592 21.4672 14.2992 21.3202 14.1742C21.1742 14.0482 20.9012 14.0082 20.7262 14.0872Z" fill="black"/>
<path fill-rule="evenodd" clip-rule="evenodd" d="M12.375 2.375C11.961 2.375 11.625 2.711 11.625 3.125C11.625 3.539 11.961 3.875 12.375 3.875C16.907 3.875 20.594 7.562 20.594 12.095C20.594 12.509 20.93 12.845 21.344 12.845C21.758 12.845 22.094 12.509 22.094 12.095C22.094 6.735 17.734 2.375 12.375 2.375Z" fill="black"/>
</svg>