<svg width="25" height="24" viewBox="0 0 25 24" fill="none" xmlns="http://www.w3.org/2000/svg">
<path opacity="0.4" fill-rule="evenodd" clip-rule="evenodd" d="M17.949 12.819L13.218 11.283L11.68 6.55C11.548 6.14 11.183 5.875 10.752 5.875C10.32 5.875 9.954 6.14 9.82 6.55L8.296 11.279L3.554 12.818C3.148 12.947 2.875 13.321 2.875 13.75C2.875 14.178 3.148 14.552 3.552 14.68L8.282 16.209L9.82 20.95C9.954 21.36 10.319 21.625 10.751 21.625C11.182 21.624 11.548 21.359 11.68 20.949L13.205 16.22L17.946 14.681C18.352 14.552 18.626 14.178 18.626 13.75C18.626 13.321 18.352 12.947 17.949 12.819Z" fill="black"/>
<path fill-rule="evenodd" clip-rule="evenodd" d="M21.375 8.3549H20.797V7.7749C20.797 7.3609 20.461 7.0249 20.047 7.0249C19.633 7.0249 19.297 7.3609 19.297 7.7749V8.3549H18.719C18.305 8.3549 17.969 8.6909 17.969 9.1049C17.969 9.5189 18.305 9.8549 18.719 9.8549H19.297V10.4249C19.297 10.8389 19.633 11.1749 20.047 11.1749C20.461 11.1749 20.797 10.8389 20.797 10.4249V9.8549H21.375C21.789 9.8549 22.125 9.5189 22.125 9.1049C22.125 8.6909 21.789 8.3549 21.375 8.3549Z" fill="black"/>
<path fill-rule="evenodd" clip-rule="evenodd" d="M14.0703 5.865H15.3123V7.105C15.3123 7.519 15.6483 7.855 16.0623 7.855C16.4763 7.855 16.8123 7.519 16.8123 7.105V5.865H18.0543C18.4683 5.865 18.8043 5.529 18.8043 5.115C18.8043 4.701 18.4683 4.365 18.0543 4.365H16.8123V3.125C16.8123 2.711 16.4763 2.375 16.0623 2.375C15.6483 2.375 15.3123 2.711 15.3123 3.125V4.365H14.0703C13.6563 4.365 13.3203 4.701 13.3203 5.115C13.3203 5.529 13.6563 5.865 14.0703 5.865Z" fill="black"/>
</svg>