<svg width="24" height="24" viewBox="0 0 24 24" fill="none" xmlns="http://www.w3.org/2000/svg">
<path opacity="0.4" fill-rule="evenodd" clip-rule="evenodd" d="M16.218 2.5H7.784C4.623 2.5 2.5 4.723 2.5 8.031V15.97C2.5 19.278 4.623 21.5 7.784 21.5H16.217C19.377 21.5 21.5 19.278 21.5 15.97V8.031C21.5 4.723 19.378 2.5 16.218 2.5Z" fill="black"/>
<path fill-rule="evenodd" clip-rule="evenodd" d="M16.9929 13.0223L13.9889 13.9993L13.0219 16.9833C12.8789 17.4273 12.4689 17.7263 12.0009 17.7263C11.5339 17.7263 11.1239 17.4273 10.9799 16.9803L10.0139 13.9993L7.01786 13.0253C6.57186 12.8753 6.27686 12.4643 6.27686 12.0013C6.27686 11.5393 6.57186 11.1283 7.01086 10.9803L10.0109 10.0153L10.9809 7.02034C11.1239 6.57634 11.5339 6.27734 12.0009 6.27734C12.4689 6.27734 12.8789 6.57634 13.0229 7.02234L13.9929 10.0153L16.9829 10.9783C17.4309 11.1293 17.7249 11.5393 17.7249 12.0013C17.7249 12.4643 17.4309 12.8743 16.9929 13.0223ZM12.6318 10.6828C12.7318 10.9908 12.9588 11.2298 13.2708 11.3568C13.2888 11.3638 13.3058 11.3708 13.3228 11.3758L15.2748 12.0038L13.3358 12.6338C13.0018 12.7348 12.7388 12.9918 12.6318 13.3198L12.0018 15.2658L11.3708 13.3208C11.2648 12.9918 11.0018 12.7358 10.6818 12.6388L8.72675 12.0028L10.7328 11.3568C11.0408 11.2308 11.2728 10.9858 11.3708 10.6838L12.0008 8.73779L12.6318 10.6828Z" fill="black"/>
</svg>