<svg width="24" height="24" viewBox="0 0 24 24" fill="none" xmlns="http://www.w3.org/2000/svg">
<path d="M9.74888 16.5391C9.74888 16.1191 10.0848 15.7891 10.4989 15.7891H12.8021C13.2162 15.7891 13.5521 16.1191 13.5521 16.5391C13.5521 16.9492 13.2162 17.2891 12.8021 17.2891H10.4989C10.0848 17.2891 9.74888 16.9492 9.74888 16.5391Z" fill="black"/>
<path fill-rule="evenodd" clip-rule="evenodd" d="M15.0179 12.8535C15.6224 12.9883 16.1507 13.2817 16.5599 13.7192C17.1351 14.3394 17.4212 15.1689 17.4232 16.0791L17.432 19.269C17.4349 20.1689 17.1532 21.0093 16.5809 21.6289C16.0043 22.249 15.1869 22.5889 14.2489 22.5889L9.07701 22.5991C8.13902 22.5991 7.32115 22.269 6.74107 21.6494C6.16587 21.0293 5.88023 20.1992 5.87681 19.2891L5.869 16.1094C5.86607 15.1992 6.14878 14.3589 6.72203 13.749C7.13462 13.2988 7.66929 12.9966 8.28306 12.8608L5.02525 10.0293C4.28013 9.50928 3.8441 8.60938 3.98619 7.6792C4.55503 3.94922 7.76988 1.09912 11.6522 1.09912C15.535 1.09912 18.7499 3.94922 19.3192 7.6792C19.4593 8.59082 19.0433 9.47363 18.3241 9.99805C18.3094 10.0088 18.2948 10.019 18.2801 10.0293L15.0179 12.8535ZM13.1336 14.271C13.1102 14.272 13.0863 14.2725 13.0628 14.2715L10.3002 14.2769C10.2362 14.2852 10.1712 14.2856 10.1068 14.2773L9.05503 14.2793C8.49107 14.2793 8.08726 14.479 7.82115 14.769C7.55015 15.0591 7.36705 15.5093 7.369 16.0991L7.37681 19.2891C7.37925 19.8892 7.56382 20.3291 7.8358 20.6191C8.10191 20.9092 8.50621 21.0991 9.0731 21.0991L14.246 21.0889C14.8128 21.0889 15.2162 20.8892 15.4808 20.6094C15.6283 20.4512 15.7499 20.2451 15.8294 19.9932C15.8959 19.7832 15.933 19.5415 15.932 19.269L15.9232 16.0791C15.9212 15.4893 15.7362 15.0391 15.4652 14.749C15.1991 14.4692 14.7948 14.269 14.2279 14.269L13.1336 14.271ZM17.8412 8.10938C17.848 8.03955 17.8465 7.96875 17.8358 7.89941C17.3778 4.89941 14.7831 2.59912 11.6522 2.59912C8.52183 2.59912 5.92808 4.89941 5.4691 7.89941C5.45835 7.96924 5.45738 8.03955 5.46421 8.10938H17.8412ZM10.9022 9.60938H6.82798L10.4691 12.7764L10.9022 12.7754V9.60938ZM12.4022 12.7725L12.8231 12.772L16.4754 9.60938H12.4022V12.7725Z" fill="black"/>
</svg>
