<svg width="24" height="24" viewBox="0 0 24 24" fill="none" xmlns="http://www.w3.org/2000/svg">
<path fill-rule="evenodd" clip-rule="evenodd" d="M14.4211 2.27548L7.62921 2.29162C6.01679 2.29547 4.65104 2.87435 3.69312 3.90665C2.74063 4.93311 2.24625 6.34776 2.25002 7.93317L2.26851 15.6463C2.27228 17.2307 2.77066 18.6432 3.72699 19.6658C4.68899 20.6943 6.05768 21.2667 7.67364 21.2628C8.08785 21.2618 8.42284 20.9253 8.42185 20.5111C8.42087 20.0968 8.08428 19.7619 7.67007 19.7628C6.42475 19.7658 5.47017 19.3336 4.82251 18.6412C4.1692 17.9426 3.77154 16.9176 3.7685 15.6427L3.75002 7.92959C3.75002 7.92959 3.75002 7.9296 3.75002 7.92959C3.74699 6.65567 4.14134 5.62884 4.79266 4.92696C5.43855 4.23091 6.3917 3.79458 7.63277 3.79162C7.63277 3.79162 7.63278 3.79162 7.63277 3.79162L8.23088 3.7902L8.23863 9.51917C8.23896 9.75964 8.35457 9.98537 8.54951 10.1262C8.74446 10.267 8.99509 10.3057 9.22347 10.2304L11.7579 9.39485L14.2764 10.2157C14.5051 10.2902 14.7557 10.2505 14.9502 10.109C15.1446 9.96744 15.2594 9.74121 15.2588 9.50067L15.2442 3.77353L15.8197 3.77216C17.065 3.7692 18.0196 4.20137 18.6673 4.89376C19.3206 5.59219 19.7182 6.61699 19.7212 7.89133L19.7397 11.4115C19.7419 11.8257 20.0795 12.1597 20.4937 12.1575C20.9079 12.1553 21.2419 11.8178 21.2397 11.4036L21.2212 7.88776C21.2212 7.88732 21.2212 7.88688 21.2212 7.88644C21.2172 6.30295 20.7188 4.89116 19.7627 3.86907C18.8007 2.84065 17.4321 2.26832 15.8161 2.27216L14.5599 2.27515C14.537 2.2731 14.5138 2.27209 14.4904 2.27215C14.467 2.27221 14.4439 2.27333 14.4211 2.27548ZM9.73088 3.78663L9.73723 8.48163L11.5217 7.89329C11.6734 7.84328 11.8371 7.843 11.9889 7.89249L13.7562 8.46847L13.7442 3.77709L9.73088 3.78663ZM13.3785 14.3196C13.9273 13.5945 14.8106 13.0148 16.0635 13.0148C17.3164 13.0148 18.1997 13.5945 18.7485 14.3196C19.0959 14.7786 19.3122 15.2975 19.419 15.7713C19.9586 15.8837 20.4577 16.1308 20.8593 16.514C21.4277 17.0565 21.75 17.8239 21.75 18.7217C21.75 19.9468 21.0223 21.0034 19.9747 21.4781C19.9645 21.4827 19.9542 21.4871 19.9437 21.4913C19.5131 21.6635 19.0871 21.7279 18.7478 21.7279H13.3754C13.0316 21.7279 12.6059 21.659 12.1815 21.4873C12.1723 21.4835 12.1631 21.4796 12.154 21.4755C11.1069 21.0023 10.3771 19.948 10.3771 18.7217C10.3771 17.8239 10.6994 17.0565 11.2678 16.514C11.6694 16.1308 12.1685 15.8837 12.7081 15.7713C12.8149 15.2975 13.0312 14.7786 13.3785 14.3196ZM14.5746 15.2249C14.2531 15.6497 14.1274 16.161 14.1274 16.451C14.1274 16.8627 13.7955 17.1974 13.3838 17.201C12.9272 17.2049 12.5554 17.3587 12.3034 17.5992C12.0577 17.8336 11.8771 18.1962 11.8771 18.7217C11.8771 19.3329 12.2366 19.8605 12.7583 20.1024C12.9925 20.1949 13.2204 20.2279 13.3754 20.2279H18.7478C18.9069 20.2279 19.1356 20.1963 19.3708 20.1049C19.8911 19.8621 20.25 19.3333 20.25 18.7217C20.25 18.1962 20.0693 17.8336 19.8237 17.5992C19.5717 17.3587 19.1998 17.2049 18.7432 17.201C18.3316 17.1974 17.9997 16.8627 17.9997 16.451C17.9997 16.161 17.874 15.6497 17.5525 15.2249C17.2541 14.8307 16.7944 14.5148 16.0635 14.5148C15.3327 14.5148 14.8729 14.8307 14.5746 15.2249Z" fill="black"/>
</svg>
