<svg width="24" height="24" viewBox="0 0 24 24" fill="none" xmlns="http://www.w3.org/2000/svg">
<path fill-rule="evenodd" clip-rule="evenodd" d="M10.9273 17.6549C12.0594 17.6213 13.008 18.5083 13.0419 19.6412C13.0758 20.7755 12.1786 21.7155 11.0487 21.7491L11.0477 21.7492C9.91857 21.7812 8.96766 20.8969 8.935 19.7614C8.90136 18.6273 9.79747 17.6885 10.9272 17.6549L10.9273 17.6549ZM8.935 19.7614C8.93499 19.7612 8.93499 19.761 8.93498 19.7608L9.68468 19.7395L8.93501 19.7619C8.93501 19.7617 8.935 19.7616 8.935 19.7614ZM10.9718 19.1542C10.6618 19.1635 10.4254 19.4192 10.4343 19.7171L10.4344 19.7181C10.4429 20.0163 10.6942 20.2583 11.0046 20.2498C11.3145 20.2403 11.5515 19.9837 11.5426 19.686C11.5336 19.3867 11.2816 19.1451 10.9718 19.1542" fill="black"/>
<path fill-rule="evenodd" clip-rule="evenodd" d="M3.09283 6.52847C3.20951 6.13103 3.62629 5.90344 4.02373 6.02012L6.1049 6.63114C6.3246 6.69565 6.50281 6.85698 6.58877 7.06921L11.1199 18.2563C11.2754 18.6403 11.0902 19.0775 10.7063 19.233C10.3223 19.3885 9.88506 19.2034 9.72956 18.8194L5.33455 7.96828L3.60117 7.45937C3.20373 7.34269 2.97614 6.92591 3.09283 6.52847Z" fill="black"/>
<path fill-rule="evenodd" clip-rule="evenodd" d="M20.8853 15.7351C21.0394 16.1196 20.8527 16.5562 20.4682 16.7103L12.4802 19.9123C12.0957 20.0665 11.6591 19.8797 11.505 19.4952C11.3509 19.1108 11.5376 18.6741 11.9221 18.52L19.9101 15.318C20.2946 15.1639 20.7312 15.3506 20.8853 15.7351Z" fill="black"/>
<path fill-rule="evenodd" clip-rule="evenodd" d="M13.7149 5.21295C13.5481 5.13256 13.32 5.10564 13.0219 5.22075L10.3346 6.25793C10.3346 6.25794 10.3346 6.25791 10.3346 6.25793C10.0362 6.37317 9.88745 6.5455 9.81972 6.71421C9.74941 6.88935 9.73449 7.14215 9.85821 7.46184L12.7993 14.6591C12.9243 14.9799 13.1086 15.1599 13.2835 15.244C13.4516 15.3248 13.6799 15.3511 13.9752 15.2369L16.6639 14.1996C16.962 14.0844 17.1106 13.9122 17.1783 13.7435C17.2486 13.5683 17.2635 13.3153 17.1402 12.9954L14.1982 5.79846C14.0728 5.47648 13.8888 5.29672 13.7149 5.21295ZM15.5936 5.24772C15.3547 4.63844 14.9369 4.13664 14.366 3.86159C13.7861 3.58224 13.1235 3.57363 12.4817 3.8214C12.4817 3.82141 12.4818 3.82138 12.4817 3.8214L9.7944 4.85858C9.15298 5.10625 8.66767 5.55765 8.42771 6.15537C8.19068 6.74579 8.22387 7.40052 8.46294 8.01254L11.4039 15.2098C11.6432 15.8202 12.0626 16.3213 12.6335 16.5958C13.2131 16.8745 13.8756 16.8837 14.5162 16.6359L17.204 15.599C17.8456 15.3512 18.3307 14.8997 18.5705 14.302C18.8073 13.7117 18.7741 13.0573 18.5358 12.4456L15.5936 5.24772Z" fill="black"/>
<path fill-rule="evenodd" clip-rule="evenodd" d="M13.6652 6.94896C13.8143 7.33539 13.622 7.76956 13.2355 7.91871L12.0603 8.37229C11.6739 8.52144 11.2397 8.32908 11.0905 7.94265C10.9414 7.55622 11.1338 7.12205 11.5202 6.9729L12.6954 6.51932C13.0819 6.37017 13.516 6.56253 13.6652 6.94896Z" fill="black"/>
</svg>
