<svg width="24" height="24" viewBox="0 0 24 24" fill="none" xmlns="http://www.w3.org/2000/svg">
<path fill-rule="evenodd" clip-rule="evenodd" d="M9.622 3.12931C7.67776 2.79015 6.18115 3.60242 5.39893 5.12208C5.27037 5.37185 5.01301 5.52884 4.73209 5.52884H2.15384C1.73962 5.52884 1.40384 5.19305 1.40384 4.77884C1.40384 4.36462 1.73962 4.02884 2.15384 4.02884H4.29519C5.44067 2.17863 7.47421 1.23152 9.88109 1.65186L9.88325 1.65223L16.8442 2.88886L16.8471 2.88938L18.1902 3.12249C19.8277 3.41303 21.1079 4.23867 21.8933 5.45128C22.6741 6.65702 22.9205 8.17432 22.635 9.77797L21.2523 17.6162C21.2523 17.6163 21.2524 17.6161 21.2523 17.6162C20.9725 19.2201 20.2199 20.5621 19.0722 21.4275C17.9179 22.2979 16.4308 22.6354 14.7926 22.3448C14.7925 22.3448 14.7927 22.3448 14.7926 22.3448L6.48762 20.8749C6.48719 20.8748 6.48676 20.8747 6.48633 20.8746C3.94092 20.4314 2.31981 18.6955 1.98802 16.3852C1.92913 15.9752 2.21378 15.5951 2.62378 15.5362C3.03379 15.4773 3.4139 15.7619 3.47278 16.172C3.71015 17.8247 4.82328 19.0628 6.74469 19.3971L6.74687 19.3974L15.054 20.8677C16.3278 21.0937 17.3829 20.8227 18.1691 20.2299C18.9618 19.6322 19.5483 18.6561 19.7747 17.3585L19.7749 17.3571L21.158 9.51624L21.1582 9.5151C21.3895 8.21598 21.1732 7.09885 20.6342 6.26667C20.0999 5.44164 19.2035 4.82602 17.9295 4.59966C17.929 4.59958 17.9286 4.5995 17.9282 4.59943L17.7497 4.56846L16.539 11.4134C16.4971 11.6502 16.3442 11.8526 16.1279 11.9575C15.9116 12.0625 15.658 12.0574 15.4461 11.9438L13.032 10.6495L10.3001 11.0381C10.062 11.072 9.82207 10.9896 9.65499 10.8166C9.48791 10.6436 9.41393 10.401 9.45606 10.1642L10.6746 3.3163L9.62304 3.12949C9.62269 3.12943 9.62234 3.12937 9.622 3.12931ZM12.1514 3.57867L11.1143 9.40719L13.0641 9.12984C13.2222 9.10735 13.3833 9.13591 13.5241 9.21137L15.2423 10.1325L16.272 4.31069L12.1514 3.57867ZM2.9853 8.74172C2.9853 8.32751 3.32108 7.99172 3.7353 7.99172H7.05499C7.46921 7.99172 7.80499 8.32751 7.80499 8.74172C7.80499 9.15593 7.46921 9.49172 7.05499 9.49172H3.7353C3.32108 9.49172 2.9853 9.15593 2.9853 8.74172ZM1.25 12.6861C1.25 12.2719 1.58579 11.9361 2 11.9361H5.57909C5.99331 11.9361 6.32909 12.2719 6.32909 12.6861C6.32909 13.1004 5.99331 13.4361 5.57909 13.4361H2C1.58579 13.4361 1.25 13.1004 1.25 12.6861Z" fill="black"/>
</svg>
