<svg width="24" height="24" viewBox="0 0 24 24" fill="none" xmlns="http://www.w3.org/2000/svg">
<path d="M5.15382 16.8691C4.73975 16.8691 4.40382 17.209 4.40382 17.6191C4.40382 17.75 4.43653 17.8721 4.49391 17.978C4.54005 18.0635 4.60206 18.1387 4.67628 18.1992C4.80616 18.3057 4.97242 18.3691 5.15382 18.3691H6.97389C7.1797 18.3691 7.36622 18.2876 7.50172 18.1538C7.57911 18.0776 7.6399 17.9844 7.67823 17.8794C7.70777 17.7983 7.72389 17.7109 7.72389 17.6191C7.72389 17.209 7.38795 16.8691 6.97389 16.8691H5.15382Z" fill="black"/>
<path fill-rule="evenodd" clip-rule="evenodd" d="M5.4878 21.0391L11.1021 21.0195C11.1323 21.0244 11.1631 21.0278 11.1943 21.0293H11.2398L17.3958 21.019C18.5879 21.019 19.6108 20.5889 20.3308 19.8091C21.0449 19.0391 21.4058 17.9893 21.4028 16.8291L21.3889 6.83887C21.387 5.6792 21.0217 4.62891 20.304 3.85938C19.5808 3.08936 18.5559 2.65918 17.3648 2.65918L16.4993 2.66211C16.4771 2.66016 16.4546 2.65918 16.4319 2.65918H16.4265L16.4067 2.66016L16.3892 2.66113L16.3745 2.6626L12.5559 2.6792H11.606C10.4158 2.6792 9.39478 3.10938 8.67481 3.88916C8.4004 4.18457 8.17799 4.521 8.00807 4.88916C7.91309 5.09521 7.83448 5.31104 7.77247 5.53516C7.6565 5.95459 7.59864 6.40283 7.59986 6.86914L7.60987 8.93555L6.67286 8.93945H5.45899C4.40797 8.93945 3.49879 9.31885 2.85694 10.0088C2.21974 10.6992 1.90089 11.6294 1.90284 12.6592L1.91383 17.3291C1.91676 18.3589 2.23878 19.2891 2.87794 19.9692C3.52271 20.6592 4.43482 21.0391 5.4878 21.0391ZM13.3079 4.17334L15.686 4.16504L15.6929 6.48877L14.742 6.1792C14.5899 6.12939 14.4268 6.12939 14.2749 6.1792L13.3113 6.50098L13.3079 4.17334ZM11.6089 4.1792L11.8079 4.17871L11.8128 7.53906C11.8128 7.7793 11.929 8.00928 12.1238 8.14941C12.3189 8.28906 12.5698 8.3291 12.7979 8.24902L14.5125 7.68555L16.2139 8.23926C16.4429 8.31885 16.6929 8.2793 16.8879 8.12891C17.0818 7.98926 17.1968 7.76904 17.1958 7.5293L17.186 4.15967L17.3679 4.15918C18.189 4.15918 18.7998 4.44922 19.209 4.87891C19.6228 5.3291 19.8879 5.98926 19.8889 6.83887L19.9028 16.8291C19.9048 17.6792 19.6428 18.3491 19.231 18.7891C18.8237 19.229 18.2149 19.519 17.3928 19.519L14.1782 19.5244C14.2654 19.3921 14.3433 19.2539 14.4121 19.1104C14.6699 18.5723 14.7981 17.959 14.7969 17.3091L14.7859 12.6289C14.7839 11.6094 14.4619 10.6689 13.8218 9.98926C13.1768 9.29883 12.2649 8.91943 11.2119 8.9292L10.0711 8.93115C10.0525 8.92969 10.0337 8.9292 10.0149 8.9292C9.99537 8.9292 9.97584 8.93018 9.9568 8.93164L9.10987 8.93311L9.09986 6.86914V6.85938C9.09986 6.01367 9.36231 5.34766 9.77393 4.90918C10.1819 4.46924 10.7908 4.1792 11.6089 4.1792ZM5.46192 10.4395L5.92481 10.4385L5.92896 13.2793C5.92896 13.519 6.04493 13.7393 6.23976 13.8892C6.43482 14.0293 6.68482 14.0591 6.91383 13.9893L8.36085 13.5156L9.79395 13.979C10.023 14.0591 10.2739 14.019 10.4678 13.8691C10.6629 13.729 10.7769 13.5093 10.7769 13.269L10.7691 10.4302L11.2149 10.4292C11.897 10.4292 12.3958 10.6592 12.7268 11.0088C13.0637 11.3691 13.2849 11.9189 13.2859 12.6289L13.2969 17.3091C13.2981 17.7871 13.1992 18.1929 13.0325 18.5166C12.9841 18.6104 12.9302 18.6973 12.8713 18.7769C12.8313 18.8311 12.7891 18.8818 12.7449 18.9292C12.4158 19.2793 11.9209 19.519 11.2368 19.519L5.48487 19.5391C4.80177 19.5391 4.30494 19.2993 3.97389 18.9492C3.63673 18.5894 3.41578 18.0391 3.41383 17.3291L3.40284 12.6494C3.40089 11.939 3.62086 11.3989 3.9568 11.0293C4.28687 10.6792 4.78297 10.4395 5.46192 10.4395ZM7.42481 10.436L9.26905 10.4326L9.27393 12.23L8.59083 12.0088C8.43873 11.959 8.27491 11.959 8.12281 12.0088L7.4275 12.2368L7.42481 10.436Z" fill="black"/>
</svg>
