<svg width="24" height="24" viewBox="0 0 24 24" fill="none" xmlns="http://www.w3.org/2000/svg">
<path d="M2.26115 3.09047C2.33097 2.68032 2.71915 2.4103 3.12736 2.48061L5.15324 2.83071C5.49015 2.89028 5.74406 3.1603 5.77335 3.50063L6.71036 14.6803C6.75333 15.2003 7.19035 15.6007 7.71622 15.6007H18.3393C18.8393 15.6007 19.2631 15.2306 19.3329 14.7404V14.7306L20.2572 8.35073C20.3173 7.94057 20.6972 7.6603 21.1073 7.71059C21.517 7.77016 21.8012 8.15053 21.7421 8.56069L20.8183 14.9503C20.643 16.1803 19.5839 17.1007 18.3383 17.1007H7.71818C6.413 17.1007 5.32218 16.1002 5.21525 14.8004L4.32706 4.21205L2.87199 3.96059C2.46427 3.88051 2.19035 3.50063 2.26115 3.09047Z" fill="black"/>
<path d="M11.3119 6.71059C11.3119 6.30043 11.6484 5.96059 12.0619 5.96059H14.0092C14.4233 5.96059 14.7592 6.30043 14.7592 6.71059C14.7592 7.12026 14.4233 7.46059 14.0092 7.46059H12.0619C11.8319 7.46059 11.6259 7.35512 11.4882 7.19106C11.3783 7.0602 11.3119 6.89223 11.3119 6.71059Z" fill="black"/>
<path fill-rule="evenodd" clip-rule="evenodd" d="M15.079 13.3107L10.9721 13.3004C10.0712 13.3004 9.28312 12.9704 8.72404 12.3707C8.17228 11.7706 7.89933 10.9704 7.90128 10.0905L7.91007 6.22035C7.91202 5.35024 8.18693 4.55043 8.74308 3.95034C9.30411 3.35024 10.0942 3.03041 10.997 3.03041L15.1029 3.04067C15.4589 3.04457 15.7968 3.09633 16.1098 3.19448C16.5917 3.34584 17.0146 3.60659 17.3529 3.97035C17.9052 4.57045 18.1762 5.38051 18.1752 6.25063L18.165 10.1207C18.163 10.9904 17.8881 11.7902 17.3329 12.3903C16.7724 12.9904 15.9823 13.3107 15.079 13.3107ZM10.975 11.8004L15.0819 11.8107C15.6151 11.8107 15.9901 11.6305 16.2372 11.3605C16.4892 11.0905 16.664 10.6803 16.665 10.1105L16.6752 6.24037C16.6762 5.68032 16.5033 5.26039 16.2524 4.99037C16.0761 4.80336 15.8324 4.65248 15.5111 4.58315C15.3861 4.5558 15.2494 4.54067 15.099 4.54067L10.9931 4.53041C10.4599 4.53041 10.0849 4.71059 9.83829 4.98061C9.58634 5.25063 9.41202 5.6603 9.41007 6.23061L9.40128 10.1007C9.40031 10.6603 9.57316 11.0807 9.82413 11.3507C10.0702 11.6105 10.4462 11.8004 10.975 11.8004Z" fill="black"/>
<path d="M7.30607 18.9704C8.01603 18.9704 8.58829 19.5504 8.59025 20.2506C8.5922 20.9606 8.01701 21.5304 7.3129 21.5304C6.60294 21.5407 6.03214 20.9606 6.02921 20.2604V20.2506C6.02921 19.5504 6.60294 18.9704 7.30607 18.9704Z" fill="black"/>
<path d="M19.06 19.2228C19.3749 19.4577 19.579 19.8327 19.58 20.2506C19.5829 20.9606 19.0082 21.5304 18.3041 21.5304C17.5942 21.5407 17.0219 20.9606 17.0199 20.2604V20.2506C17.0209 19.9132 17.1532 19.6041 17.3695 19.3742C17.602 19.1261 17.932 18.9704 18.2973 18.9704C18.5834 18.9704 18.8471 19.0646 19.06 19.2228Z" fill="black"/>
</svg>
