<svg width="24" height="24" viewBox="0 0 24 24" fill="none" xmlns="http://www.w3.org/2000/svg">
<path d="M4.66748 6.8291C4.66748 6.41895 5.00342 6.0791 5.41748 6.0791H7.05664C7.30762 6.0791 7.5293 6.20361 7.66553 6.39258C7.75439 6.51611 7.80664 6.66699 7.80664 6.8291C7.80664 7.24902 7.47119 7.5791 7.05664 7.5791H5.41748C5.00342 7.5791 4.66748 7.24902 4.66748 6.8291Z" fill="black"/>
<path fill-rule="evenodd" clip-rule="evenodd" d="M3.62744 17.209C3.90381 18.7363 5.23438 19.8892 6.83984 19.8892C8.43506 19.8892 9.77295 18.7363 10.0513 17.209H14.1904C14.4668 18.7363 15.7983 19.8892 17.4028 19.8892C19.1978 19.8892 20.6675 18.4292 20.6675 16.6191C20.6675 15.439 20.0312 14.4048 19.0845 13.8335C19.1284 13.7534 19.1665 13.6699 19.1978 13.5845C19.5088 13.7144 19.8247 13.9136 20.0269 14.2192C20.2549 14.5591 20.7202 14.6592 21.0659 14.4292C21.4116 14.1992 21.5068 13.7393 21.2788 13.3892C20.8418 12.729 20.2104 12.3691 19.7339 12.1895C19.6265 12.145 19.5239 12.1084 19.4297 12.0791C19.3101 12.042 19.2031 12.0156 19.1147 11.999C19.0898 11.9927 19.0664 11.9873 19.0439 11.9829L18.5161 10.6909C18.8906 10.7588 19.2808 10.7573 19.6514 10.6689C19.9004 10.6094 20.1035 10.4292 20.1895 10.1895C20.4536 9.44922 20.5269 8.71924 20.3628 7.99902C20.3101 7.77051 20.2344 7.55029 20.1372 7.33838C19.9321 6.8916 19.6323 6.48193 19.2529 6.10938C19.0703 5.9292 18.8086 5.85938 18.5591 5.91895C17.9292 6.06445 17.3691 6.45361 16.9878 6.9502L16.9688 6.90283C16.9595 6.87549 16.9482 6.84863 16.936 6.82275L16.187 4.98926C16.0386 4.62891 15.7666 4.33936 15.479 4.14941C15.1919 3.94922 14.8242 3.80908 14.4331 3.80908H12.3047C11.8906 3.80908 11.5547 4.14893 11.5547 4.55908C11.5547 4.96924 11.8906 5.30908 12.3047 5.30908H14.4331C14.4648 5.30908 14.5464 5.3291 14.6431 5.38916C14.7397 5.45898 14.7866 5.5293 14.7988 5.55908L15.1426 6.40234C13.9854 6.45996 13.0708 7.42578 13.0879 8.59912L13.1538 12.9326C13.1274 13.1714 12.9263 13.3594 12.6821 13.3594H11.7222C11.4067 13.3594 11.1187 13.1792 10.979 12.8994L10.3213 11.5693C10.1826 11.2866 10.002 11.0342 9.78906 10.8174C9.82959 10.7798 9.86865 10.7402 9.90674 10.6992C10.3569 10.2192 10.5723 9.55908 10.5708 8.86914L10.564 6.49902C10.562 5.80908 10.3442 5.15918 9.89111 4.6792C9.43262 4.18896 8.79053 3.9292 8.07031 3.9292L4.38672 3.93945C3.66699 3.93945 3.02637 4.19922 2.57031 4.69922C2.37158 4.91064 2.21826 5.15479 2.10938 5.4209C1.97119 5.75928 1.90381 6.13281 1.90479 6.51904L1.91162 8.88916C1.9126 9.5791 2.13086 10.229 2.5835 10.7192C2.73193 10.8779 2.89941 11.0122 3.08252 11.1211C2.354 11.8457 1.90283 12.8491 1.90283 13.959V16.459C1.90283 16.8691 2.23877 17.209 2.65283 17.209H3.62744ZM8.50391 17.209C8.26074 17.8975 7.60498 18.3892 6.83984 18.3892C6.06836 18.3892 5.41553 17.8975 5.17432 17.209H8.50391ZM4.30762 15.709C4.32471 15.709 4.3418 15.709 4.35889 15.709H9.32031C9.3374 15.709 9.35449 15.709 9.37158 15.709H14.8047C14.8745 15.709 14.9434 15.6792 14.9961 15.6289L15.8667 14.8491L17.7104 13.1895L17.7119 13.1792C17.8003 13.0991 17.8301 12.979 17.7842 12.8691L15.7544 7.89941H15.2524C14.8813 7.89941 14.5825 8.19922 14.5879 8.56934L14.6538 12.9492C14.6543 12.9609 14.6538 12.9727 14.6533 12.9839L14.6528 13.0088C14.5884 14.0488 13.7241 14.8594 12.6821 14.8594H11.7222C10.8364 14.8594 10.0273 14.3589 9.63379 13.5591L8.97656 12.229C8.74414 11.7588 8.26514 11.459 7.74072 11.459H5.89941C4.52051 11.459 3.40283 12.5791 3.40283 13.959V15.709H4.30762ZM16.2856 16.4917L15.9995 16.749C15.8994 16.8379 15.7905 16.915 15.6743 16.98C15.8398 17.7861 16.5493 18.3892 17.4028 18.3892C18.3726 18.3892 19.1675 17.5991 19.1675 16.6191C19.1675 15.8599 18.6704 15.2002 17.978 14.9644L17.4014 15.4849L17.9717 16.1494C18.2412 16.4692 18.2051 16.9395 17.8906 17.209C17.5762 17.479 17.1025 17.439 16.833 17.1289L16.2856 16.4917ZM18.9053 9.22949C18.9688 8.90234 18.9619 8.6084 18.9014 8.33887C18.8403 8.07715 18.7183 7.81104 18.52 7.54346C18.3853 7.63135 18.2588 7.74805 18.1553 7.88916C18.0576 8.02197 17.9961 8.1499 17.9639 8.26855C17.9302 8.39062 17.9277 8.50244 17.9492 8.59912C17.9897 8.76904 18.1343 8.95898 18.4146 9.09912C18.5679 9.16943 18.7378 9.21338 18.9053 9.22949ZM8.07324 5.4292L4.38965 5.43945C4.0415 5.43945 3.81396 5.55908 3.66943 5.71924C3.52002 5.87939 3.40381 6.13916 3.40479 6.51904L3.41162 8.88916C3.41211 9.26904 3.5293 9.5293 3.6792 9.68945C3.82324 9.84912 4.05127 9.95898 4.40283 9.95898H8.08594C8.43555 9.95898 8.6626 9.83936 8.80615 9.6792C8.84229 9.64062 8.87646 9.59619 8.90771 9.54541C9.00488 9.38623 9.07178 9.16748 9.0708 8.87891L9.06396 6.50879C9.06299 6.12891 8.9458 5.86914 8.7959 5.70898C8.65137 5.54932 8.42383 5.4292 8.07324 5.4292Z" fill="black"/>
</svg>
