<svg width="24" height="24" viewBox="0 0 24 24" fill="none" xmlns="http://www.w3.org/2000/svg">
<path fill-rule="evenodd" clip-rule="evenodd" d="M9.65321 3.06102C11.0212 1.97976 12.9522 1.9795 14.3196 3.06122L14.3222 3.06329L20.5488 8.03432C21.2922 8.60206 21.7338 9.47864 21.7492 10.4134L21.7494 10.4257L21.7493 20.9993C21.7493 21.4135 21.4135 21.7493 20.9993 21.7493C20.5851 21.7493 20.2493 21.4135 20.2493 20.9993V10.4324C20.2397 9.95604 20.0133 9.51083 19.6344 9.22336L19.6197 9.21197L13.3889 4.23761C13.3885 4.23729 13.3881 4.23697 13.3877 4.23664C12.5668 3.58809 11.4078 3.58762 10.5854 4.23622L4.38151 9.21468C4.37571 9.21933 4.36984 9.2239 4.36391 9.22837C3.98308 9.51579 3.75685 9.96265 3.75049 10.439V20.9993C3.75049 21.4135 3.4147 21.7493 3.00049 21.7493C2.58627 21.7493 2.25049 21.4135 2.25049 20.9993V10.4263C2.26078 9.48752 2.70394 8.60655 3.45078 8.0383L9.65321 3.06102ZM7.85128 12.7445C8.39407 12.1619 9.15852 11.848 10.0304 11.848H13.9677C14.841 11.848 15.606 12.1616 16.1489 12.7447C16.6862 13.3217 16.9506 14.1022 16.9506 14.9446V18.6533C16.9506 19.4957 16.6862 20.2762 16.1489 20.8533C15.606 21.4364 14.841 21.75 13.9677 21.75H10.0304C9.15667 21.75 8.39174 21.4364 7.84906 20.853C7.31209 20.2758 7.04852 19.4953 7.04852 18.6533V14.9446C7.04852 14.1016 7.31397 13.3212 7.85128 12.7445ZM8.94876 13.767C8.7131 14.02 8.54852 14.4129 8.54852 14.9446V18.6533C8.54852 19.1861 8.71255 19.579 8.94734 19.8314C9.17642 20.0776 9.52741 20.25 10.0304 20.25H13.9677C14.4701 20.25 14.8216 20.0777 15.0511 19.8311C15.2863 19.5785 15.4506 19.1857 15.4506 18.6533V14.9446C15.4506 14.4123 15.2863 14.0194 15.0511 13.7669C14.8216 13.5203 14.4701 13.348 13.9677 13.348H10.0304C9.53042 13.348 9.17895 13.52 8.94876 13.767ZM10.0927 15.9452C10.0927 15.531 10.4284 15.1952 10.8427 15.1952H13.1572C13.5714 15.1952 13.9072 15.531 13.9072 15.9452C13.9072 16.3594 13.5714 16.6952 13.1572 16.6952H10.8427C10.4284 16.6952 10.0927 16.3594 10.0927 15.9452Z" fill="black"/>
</svg>
