<svg width="24" height="24" viewBox="0 0 24 24" fill="none" xmlns="http://www.w3.org/2000/svg">
<path fill-rule="evenodd" clip-rule="evenodd" d="M11.7852 16.1511C11.4785 16.1511 11.1719 16.0715 10.8975 15.9109L8.44434 14.5012C7.89551 14.1814 7.55713 13.5911 7.55713 12.9612V10.1311C7.55713 9.49097 7.89551 8.91138 8.44434 8.59155L10.8975 7.17114L10.9019 7.17847C11.4497 6.86108 12.1235 6.86206 12.6714 7.17114L15.1245 8.59155C15.6714 8.91138 16.0103 9.49097 16.0103 10.1311V12.9612C16.0103 13.3752 15.8638 13.7722 15.6084 14.0867C15.4751 14.2507 15.312 14.3918 15.1235 14.5012L12.6704 15.9109C12.3965 16.0706 12.0908 16.1511 11.7852 16.1511ZM9.05713 10.8196V12.9612C9.05713 13.0613 9.10938 13.1511 9.19434 13.2009L11.0352 14.259V11.9656L9.05713 10.8196ZM12.5352 11.9631V14.2576L14.3735 13.2009C14.4585 13.1511 14.5103 13.0613 14.5103 12.9612V10.8181L12.5352 11.9631ZM13.7437 9.52661L11.9204 8.47144C11.8667 8.43921 11.8042 8.43188 11.7446 8.44116C11.7109 8.44604 11.6777 8.45679 11.6475 8.47144L9.82275 9.52759L11.7827 10.6633L13.7437 9.52661Z" fill="black"/>
<path fill-rule="evenodd" clip-rule="evenodd" d="M17.3271 18.6062C15.7632 19.8489 13.7847 20.5916 11.6323 20.5916C6.56836 20.5916 2.46436 16.4812 2.46436 11.4211C2.46436 6.35132 6.56934 2.25122 11.6323 2.25122C16.6953 2.25122 20.7993 6.35132 20.7993 11.4211C20.7993 13.7913 19.8989 15.9534 18.4214 17.5818L21.3154 20.4714C21.6084 20.761 21.6094 21.2415 21.3164 21.531C21.0244 21.821 20.5493 21.821 20.2554 21.531L17.3271 18.6062ZM16.9106 16.9822C18.3818 15.5837 19.2993 13.6077 19.2993 11.4211C19.2993 7.18091 15.8662 3.75122 11.6323 3.75122C7.39746 3.75122 3.96436 7.18091 3.96436 11.4211C3.96436 15.6511 7.39746 19.0916 11.6323 19.0916C13.6201 19.0916 15.4312 18.3328 16.7935 17.0906C16.8047 17.0774 16.8169 17.0642 16.8296 17.0515C16.8555 17.0261 16.8823 17.0032 16.9106 16.9822Z" fill="black"/>
</svg>
