<svg width="24" height="24" viewBox="0 0 24 24" fill="none" xmlns="http://www.w3.org/2000/svg">
<path fill-rule="evenodd" clip-rule="evenodd" d="M5.04806 5.65072C4.33147 5.65072 3.75 6.23168 3.75 6.94878V15.104C3.75 15.6422 4.07013 16.1058 4.53028 16.3149C4.89031 15.2681 5.88363 14.5159 7.05264 14.5159C8.26505 14.5159 9.28848 15.325 9.61245 16.4327L13.6369 16.4332C13.8911 15.5631 14.5769 14.8772 15.4469 14.6228L15.4471 6.97991C15.4471 6.97991 15.4471 6.97992 15.4471 6.97991C15.4471 6.24606 14.8517 5.65072 14.1179 5.65072H5.04806ZM16.9469 14.6228C17.8166 14.8772 18.5023 15.5629 18.7567 16.4327L18.9208 16.4328C18.9207 16.4328 18.9209 16.4328 18.9208 16.4328C19.6546 16.4327 20.25 15.8374 20.25 15.1036V13.1607H18.5985C18.1843 13.1607 17.8485 12.8249 17.8485 12.4107C17.8485 11.9965 18.1843 11.6607 18.5985 11.6607H20.25C20.25 11.0216 19.8725 10.4421 19.2886 10.1847L16.947 9.1515L16.9469 14.6228ZM16.9471 7.512L16.9471 6.97993C16.9471 5.41764 15.6802 4.15072 14.1179 4.15072H5.04806C3.50351 4.15072 2.25 5.40279 2.25 6.94878V15.104C2.25 16.459 3.20291 17.5917 4.47499 17.8685C4.77768 19.0089 5.81702 19.8493 7.05264 19.8493C8.26499 19.8493 9.28838 19.0403 9.61241 17.9327L13.6372 17.9332C13.9614 19.0405 14.9847 19.8493 16.1968 19.8493C17.4092 19.8493 18.4325 19.0403 18.7566 17.9327L18.9206 17.9328C20.4829 17.9328 21.75 16.6659 21.75 15.1036V11.6603C21.75 10.4275 21.0223 9.30982 19.8939 8.81224C19.8939 8.81221 19.894 8.81227 19.8939 8.81224L16.9471 7.512ZM15.0305 17.213C15.0466 17.8433 15.5626 18.3493 16.1968 18.3493C16.8412 18.3493 17.3635 17.8269 17.3635 17.1826C17.3635 16.5382 16.8412 16.0159 16.1968 16.0159C15.5624 16.0159 15.0462 16.5223 15.0305 17.153C15.0309 17.1631 15.0311 17.1732 15.0311 17.1833C15.0311 17.1933 15.0309 17.2031 15.0305 17.213ZM7.05264 16.0159C6.40828 16.0159 5.88593 16.5382 5.88593 17.1826C5.88593 17.8269 6.40828 18.3493 7.05264 18.3493C7.69699 18.3493 8.21935 17.8269 8.21935 17.1826C8.21935 16.5382 7.69699 16.0159 7.05264 16.0159Z" fill="black"/>
</svg>
