<svg width="24" height="24" viewBox="0 0 24 24" fill="none" xmlns="http://www.w3.org/2000/svg">
<path d="M12.9136 19.9432C14.083 20.5629 15.3605 21.0212 16.5679 20.7867C17.9544 20.5172 18.9371 19.2786 19.6308 18.1568C23.398 12.0652 18.9303 4.34487 11.8492 3.27268C10.1913 3.02166 8.37768 3.15107 6.80053 3.73192C5.35765 4.26315 3.60245 5.41317 3.15197 6.96502C2.62269 8.79027 3.56937 10.6126 4.55302 12.1012C6.71783 15.3752 9.4236 18.0916 12.9136 19.9432Z" stroke="black" stroke-width="1.5" stroke-linecap="round" stroke-linejoin="round"/>
<path d="M15.637 4.66432C15.637 4.66432 13.5412 4.30628 11.7637 6.27844" stroke="black" stroke-width="1.5" stroke-linecap="round" stroke-linejoin="round"/>
<path d="M14.5215 9.39722C16.2037 7.56127 18.1856 7.3696 18.8764 7.4056" stroke="black" stroke-width="1.5" stroke-linecap="round" stroke-linejoin="round"/>
<path d="M20.5992 11.143C20.5992 11.143 18.7049 11.0719 16.8105 12.8602" stroke="black" stroke-width="1.5" stroke-linecap="round" stroke-linejoin="round"/>
</svg>
