<svg width="24" height="24" viewBox="0 0 24 24" fill="none" xmlns="http://www.w3.org/2000/svg">
<path d="M8.75979 9.31796V13.0261M10.4234 21C6.73373 21 3.74268 18.0089 3.74268 14.3193V12.0259C3.74268 10.5303 4.95505 9.31796 6.45058 9.31796H14.3962C15.8918 9.31796 17.1041 10.5303 17.1041 12.0259V14.3193C17.1041 18.0089 14.1131 21 10.4234 21Z" stroke="black" stroke-width="1.5" stroke-linecap="round" stroke-linejoin="round"/>
<path d="M16.5566 16.9731C16.5566 16.9731 20.6667 15.8463 20.2239 12.611C19.8007 10.5268 17.1044 11.1719 17.1044 11.1719" stroke="black" stroke-width="1.5" stroke-linecap="round" stroke-linejoin="round"/>
<path d="M7.79755 4.69043C7.3305 5.15748 7.3305 5.91449 7.79755 6.38056" stroke="black" stroke-width="1.5" stroke-linecap="round" stroke-linejoin="round"/>
<path d="M12.5143 3C12.9814 3.46705 12.9814 4.22406 12.5143 4.69013C12.0473 5.15718 12.0473 5.91419 12.5143 6.38026" stroke="black" stroke-width="1.5" stroke-linecap="round" stroke-linejoin="round"/>
</svg>
