<svg width="24" height="24" viewBox="0 0 24 24" fill="none" xmlns="http://www.w3.org/2000/svg">
<path fill-rule="evenodd" clip-rule="evenodd" d="M11.5583 21H9.21342C6.20102 21 3.75977 18.5587 3.75977 15.5463V10.2056C3.75977 8.72174 4.96239 7.51912 6.44524 7.51912H14.3255C15.8094 7.51912 17.012 8.72174 17.012 10.2056V15.5463C17.012 18.5587 14.5698 21 11.5583 21Z" stroke="black" stroke-width="1.5" stroke-linecap="round" stroke-linejoin="round"/>
<path d="M7.11133 11.2771V14.1951" stroke="black" stroke-width="1.5" stroke-linecap="round" stroke-linejoin="round"/>
<path d="M7.1532 3C6.66962 3.75699 6.81849 4.57139 6.81849 4.57139" stroke="black" stroke-width="1.5" stroke-linecap="round" stroke-linejoin="round"/>
<path d="M10.5927 3C10.1091 3.75699 10.2579 4.57139 10.2579 4.57139" stroke="black" stroke-width="1.5" stroke-linecap="round" stroke-linejoin="round"/>
<path d="M14.0321 3C13.5485 3.75699 13.6974 4.57139 13.6974 4.57139" stroke="black" stroke-width="1.5" stroke-linecap="round" stroke-linejoin="round"/>
<path d="M17.0117 9.94775H18.516C19.4685 9.94775 20.2401 10.7193 20.2401 11.6719V13.3863C20.2401 14.3389 19.4685 15.1105 18.516 15.1105H17.0117" stroke="black" stroke-width="1.5" stroke-linecap="round" stroke-linejoin="round"/>
</svg>
