<svg width="24" height="24" viewBox="0 0 24 24" fill="none" xmlns="http://www.w3.org/2000/svg">
<path d="M10.8188 20.6957C12.5988 21.2902 14.3316 20.9712 15.7286 20.1065C17.176 19.329 18.3186 17.9879 18.6937 16.1491C19.3104 13.3826 17.939 10.4571 15.4026 9.17402C14.36 8.64715 13.3171 8.17629 12.6882 7.08077C10.3829 3.09631 7.17704 5.0806 7.08481 5.13506C6.99153 5.1877 3.67015 6.97193 5.96815 10.9606C6.60247 12.053 6.48876 13.1916 6.42375 14.358C6.26669 17.1961 8.11461 19.8466 10.8188 20.6957Z" stroke="black" stroke-width="1.5" stroke-linecap="round" stroke-linejoin="round"/>
<path fill-rule="evenodd" clip-rule="evenodd" d="M14.4652 13.3135C13.8289 12.2114 12.4203 11.834 11.3182 12.4703C10.217 13.1061 9.83866 14.5151 10.475 15.6173C11.1113 16.7194 12.5207 17.0963 13.6219 16.4605C14.7241 15.8242 15.1015 14.4156 14.4652 13.3135Z" stroke="black" stroke-width="1.5" stroke-linecap="round" stroke-linejoin="round"/>
<path d="M7.08448 5.13506C6.4859 4.19909 6.51188 3 6.51188 3" stroke="black" stroke-width="1.5" stroke-linecap="round" stroke-linejoin="round"/>
</svg>
