<svg width="24" height="24" viewBox="0 0 24 24" fill="none" xmlns="http://www.w3.org/2000/svg">
<path fill-rule="evenodd" clip-rule="evenodd" d="M20.0492 2.68341C19.1532 2.31441 18.1712 2.51041 17.4882 3.19741L3.19316 17.4874C2.50716 18.1744 2.31316 19.1574 2.68416 20.0514C3.05516 20.9454 3.88716 21.4994 4.85516 21.4994H7.01216C7.12261 21.4994 7.21216 21.4099 7.21216 21.2994V17.4374C7.21216 17.0234 7.54816 16.6874 7.96216 16.6874C8.37616 16.6874 8.71216 17.0234 8.71216 17.4374V21.2994C8.71216 21.4099 8.8017 21.4994 8.91216 21.4994H19.1502C20.4462 21.4994 21.5012 20.4464 21.5012 19.1504V4.84941C21.5012 3.88341 20.9452 3.05341 20.0492 2.68341Z" fill="black"/>
</svg>