<svg width="24" height="24" viewBox="0 0 24 24" fill="none" xmlns="http://www.w3.org/2000/svg">
<path fill-rule="evenodd" clip-rule="evenodd" d="M13.996 13.6H12.749V14.85C12.749 15.264 12.413 15.6 11.999 15.6C11.585 15.6 11.249 15.264 11.249 14.85V13.6H10.004C9.59 13.6 9.254 13.264 9.254 12.85C9.254 12.436 9.59 12.1 10.004 12.1H11.249V10.861C11.249 10.447 11.585 10.111 11.999 10.111C12.413 10.111 12.749 10.447 12.749 10.861V12.1H13.996C14.41 12.1 14.746 12.436 14.746 12.85C14.746 13.264 14.41 13.6 13.996 13.6ZM19.105 7.234L15.312 3.283C14.83 2.786 14.161 2.5 13.474 2.5H8.405C6.078 2.5 4.185 4.393 4.185 6.72V17.281C4.185 19.608 6.078 21.5 8.404 21.5H15.595C17.922 21.5 19.815 19.608 19.815 17.281V9C19.815 8.337 19.562 7.709 19.105 7.234Z" fill="black"/>
</svg>