<svg width="25" height="24" viewBox="0 0 25 24" fill="none" xmlns="http://www.w3.org/2000/svg">
<path d="M5.31584 11.1948L13.7151 19.594C15.5905 21.4683 18.6291 21.4683 20.5045 19.594C22.3787 17.7198 22.3787 14.68 20.5045 12.8047L12.1052 4.40653C10.2298 2.53116 7.19122 2.53116 5.31584 4.40653C3.44159 6.28078 3.44159 9.32053 5.31584 11.1948Z" stroke="black" stroke-width="1.5" stroke-linecap="round" stroke-linejoin="round"/>
<path opacity="0.4" d="M7.31445 13.108L14.024 6.39844" stroke="black" stroke-width="1.5" stroke-linecap="round" stroke-linejoin="round"/>
<path opacity="0.4" d="M11.8672 17.6589L18.5768 10.9492" stroke="black" stroke-width="1.5" stroke-linecap="round" stroke-linejoin="round"/>
<path opacity="0.4" d="M12.8526 11.9889V12.0356M13.0419 11.999C13.0419 12.1041 12.9566 12.1893 12.8514 12.1893C12.7463 12.1893 12.6611 12.1041 12.6611 11.999C12.6611 11.8938 12.7463 11.8086 12.8514 11.8086C12.9566 11.8086 13.0419 11.8938 13.0419 11.999Z" stroke="black" stroke-width="1.5" stroke-linecap="round" stroke-linejoin="round"/>
</svg>