<svg width="25" height="24" viewBox="0 0 25 24" fill="none" xmlns="http://www.w3.org/2000/svg">
<path d="M17.1281 3H8.69522C5.74773 3 3.91406 5.08075 3.91406 8.02629V15.9709C3.91406 18.9155 5.74773 20.9962 8.69619 20.9962H17.1281C20.0756 20.9962 21.9103 18.9155 21.9103 15.9709V8.02629C21.9103 5.08075 20.0669 3 17.1281 3Z" stroke="black" stroke-width="1.5" stroke-linecap="round" stroke-linejoin="round"/>
<path opacity="0.4" d="M19.037 20.6544L17.6654 17.454C18.7354 16.9968 19.2218 15.7614 18.7646 14.6914C18.3074 13.631 17.072 13.1349 16.002 13.5921C15.2335 13.9229 14.7665 14.6719 14.7374 15.4598C14.1537 14.9345 13.2879 14.7595 12.5097 15.0902C11.4494 15.5474 10.9533 16.7828 11.4105 17.8529C11.8677 18.9229 13.1031 19.4093 14.1731 18.9521C14.1731 18.9521 14.1829 18.9521 14.1829 18.9424L15.0681 20.9949" stroke="black" stroke-width="1.5" stroke-linecap="round" stroke-linejoin="round"/>
<path fill-rule="evenodd" clip-rule="evenodd" d="M17.8426 7.8311L15.9564 6.54899C15.6363 6.33206 15.2005 6.53829 15.1655 6.92351L14.9593 9.2027C14.9233 9.59375 15.3279 9.87586 15.683 9.7066L17.7754 8.70854C18.1295 8.54025 18.1665 8.05192 17.8426 7.8311Z" stroke="black" stroke-width="1.5" stroke-linecap="round" stroke-linejoin="round"/>
<path opacity="0.4" d="M3.93934 7.37487L7.32457 8.19199C7.59695 7.06358 8.73508 6.37292 9.86349 6.64529C10.9919 6.91767 11.6826 8.05581 11.4102 9.18422C11.2156 10.0013 10.5542 10.585 9.77595 10.7406C10.3985 11.2368 10.7098 12.0539 10.5152 12.871C10.2429 13.9994 9.10473 14.6901 7.97632 14.4177C6.84791 14.1453 6.15725 13.0072 6.42962 11.8788L6.43935 11.8691L3.91016 11.2562" stroke="black" stroke-width="1.5" stroke-linecap="round" stroke-linejoin="round"/>
</svg>