<svg width="25" height="24" viewBox="0 0 25 24" fill="none" xmlns="http://www.w3.org/2000/svg">
<path d="M8.07422 14.6922C8.17077 16.8667 10.797 17.322 12.0716 16.0855C12.6741 17.2531 13.919 17.2477 14.4661 17.099L15.6623 19.9294C15.6747 19.9587 15.7024 19.9776 15.7329 19.9776H17.4206C17.4633 19.9776 17.4979 19.9413 17.4979 19.8965V18.1734C22.6153 17.8693 21.9587 14.2138 20.7035 13.5718C22.9822 11.4028 21.4759 9.44325 20.7035 8.66619C20.4191 7.86491 19.7959 6.65933 18.4248 6.25391" stroke="black" stroke-width="1.5" stroke-linecap="round" stroke-linejoin="round"/>
<path d="M3.61246 9.51953C2.36112 11.3845 2.84999 13.668 4.53938 14.6942C5.66229 15.3762 7.25235 15.2784 8.07326 14.6942C8.92498 14.088 9.40712 13.0414 9.32846 12.2156" stroke="black" stroke-width="1.5" stroke-linecap="round" stroke-linejoin="round"/>
<path d="M7.39648 5.54738C8.57302 4.8543 11.0269 3.34028 14.1553 4.37411" stroke="black" stroke-width="1.5" stroke-linecap="round" stroke-linejoin="round"/>
<path d="M17.8841 7.8156C19.7954 5.30098 15.3733 2.13866 13.0107 5.66398" stroke="black" stroke-width="1.5" stroke-linecap="round" stroke-linejoin="round"/>
<path d="M5.68705 11.3837C1.78628 10.3904 4.45116 3.66035 9.14368 6.0929" stroke="black" stroke-width="1.5" stroke-linecap="round" stroke-linejoin="round"/>
<path opacity="0.4" d="M8.18848 9.11578C8.67125 9.90636 11.2782 10.028 11.2782 7.65625" stroke="black" stroke-width="1.5" stroke-linecap="round" stroke-linejoin="round"/>
<path opacity="0.4" d="M10.6416 9.29688C10.854 9.77663 11.5569 10.6672 12.6692 10.3915" stroke="black" stroke-width="1.5" stroke-linecap="round" stroke-linejoin="round"/>
<path opacity="0.4" d="M18.2305 11.3229L19.5243 11.0391" stroke="black" stroke-width="1.5" stroke-linecap="round" stroke-linejoin="round"/>
<path opacity="0.4" d="M15.2559 9.69922C15.7515 10.1317 16.5111 11.2682 15.6614 13.0034" stroke="black" stroke-width="1.5" stroke-linecap="round" stroke-linejoin="round"/>
<path opacity="0.4" d="M12.6699 13.7756C13.5775 12.3566 17.4011 12.4174 17.5362 15.5798" stroke="black" stroke-width="1.5" stroke-linecap="round" stroke-linejoin="round"/>
</svg>