<svg width="25" height="24" viewBox="0 0 25 24" fill="none" xmlns="http://www.w3.org/2000/svg">
<path opacity="0.4" d="M3.91016 9.46314C3.97828 7.04952 5.28242 4.81108 7.7739 3.99356C8.64008 3.73079 9.55492 3.66266 10.4503 3.81838C11.3457 3.96436 12.1827 4.5775 12.9126 5.12251C13.6425 4.5775 14.4892 3.96436 15.3846 3.80864C16.2702 3.65293 17.1948 3.72105 18.0513 3.99356C21.3895 5.07385 22.5768 8.73322 21.5549 11.9157C19.881 17.0252 12.9126 20.2758 12.9126 20.2758C12.9126 20.2758 6.00261 17.0446 4.31892 12.0909" stroke="black" stroke-width="1.5" stroke-linecap="round" stroke-linejoin="round"/>
<path d="M4.31836 12.0899H8.8731L10.3524 9.25781L13.3305 14.9318L14.8098 12.0899H17.8366" stroke="black" stroke-width="1.5" stroke-linecap="round" stroke-linejoin="round"/>
</svg>