<svg width="25" height="24" viewBox="0 0 25 24" fill="none" xmlns="http://www.w3.org/2000/svg">
<path d="M16.7612 20.2557C16.3049 20.7315 15.6744 21 15.0157 21H8.69232C5.75297 21 3.91016 18.9188 3.91016 15.9726V8.02638C3.91016 5.08022 5.74421 3 8.69232 3H17.126C20.0761 3 21.9102 5.08022 21.9102 8.02638V13.9187C21.9102 14.5434 21.6689 15.1437 21.2359 15.5942L16.7612 20.2557Z" stroke="black" stroke-width="1.5" stroke-linecap="round" stroke-linejoin="round"/>
<path opacity="0.4" d="M15.5859 20.9284V17.5142C15.585 15.8475 16.9335 14.4961 18.6002 14.4922H21.8334" stroke="black" stroke-width="1.5" stroke-linecap="round" stroke-linejoin="round"/>
<path fill-rule="evenodd" clip-rule="evenodd" d="M13.0572 14.7344H11.2309C10.9429 14.7344 10.7104 14.5009 10.7104 14.2129V12.73H9.22367C8.93567 12.73 8.70312 12.4965 8.70312 12.2085V10.3774C8.70312 10.0904 8.93567 9.85686 9.22367 9.85686H10.7104V8.37308C10.7104 8.08508 10.9429 7.85156 11.2309 7.85156H13.0572C13.3452 7.85156 13.5777 8.08508 13.5777 8.37308V9.85686H15.0644C15.3524 9.85686 15.585 10.0904 15.585 10.3774V12.2085C15.585 12.4965 15.3524 12.73 15.0644 12.73H13.5777V14.2129C13.5777 14.5009 13.3452 14.7344 13.0572 14.7344Z" stroke="black" stroke-width="1.5" stroke-linecap="round" stroke-linejoin="round"/>
</svg>