<svg width="25" height="24" viewBox="0 0 25 24" fill="none" xmlns="http://www.w3.org/2000/svg">
<path d="M6.56382 13.2241C6.77009 14.0307 7.80633 18.9161 12.899 18.9161C17.9917 18.9161 19.0279 14.0307 19.2342 13.2241L19.2356 13.2186C19.3318 12.8417 20.4831 8.33063 18.7049 8.09637C16.683 7.82977 14.9948 5.08203 12.899 5.08203C10.8032 5.08203 9.11502 7.82977 7.09313 8.09637C5.31492 8.33063 6.46622 12.8417 6.56241 13.2186L6.56382 13.2241Z" stroke="black" stroke-width="1.5" stroke-linecap="round" stroke-linejoin="round"/>
<path opacity="0.4" d="M18.8887 14.4091C19.8772 14.1337 20.9894 13.7056 21.9108 12.2422" stroke="black" stroke-width="1.5" stroke-linecap="round" stroke-linejoin="round"/>
<path opacity="0.4" d="M3.91016 12.2422C4.82283 13.6968 5.92523 14.124 6.90407 14.3993" stroke="black" stroke-width="1.5" stroke-linecap="round" stroke-linejoin="round"/>
<path opacity="0.4" d="M6.58428 8.34306C5.63463 7.88381 4.81148 7.19979 4.26562 6.02344" stroke="black" stroke-width="1.5" stroke-linecap="round" stroke-linejoin="round"/>
<path opacity="0.4" d="M19.2344 8.34306C20.184 7.88381 21.0072 7.19979 21.553 6.02344" stroke="black" stroke-width="1.5" stroke-linecap="round" stroke-linejoin="round"/>
<path d="M11.7266 13.478C12.5127 13.3729 13.2931 13.371 14.0695 13.478" stroke="black" stroke-width="1.5" stroke-linecap="round" stroke-linejoin="round"/>
<path d="M10.5684 10.4872C12.131 10.2245 13.6839 10.2216 15.2271 10.4872" stroke="black" stroke-width="1.5" stroke-linecap="round" stroke-linejoin="round"/>
</svg>