<svg width="25" height="24" viewBox="0 0 25 24" fill="none" xmlns="http://www.w3.org/2000/svg">
<path d="M8.48523 6.01562H8.44339L6.50705 7.89067C6.02734 8.35578 5.75684 8.99506 5.75684 9.66257V18.5328C5.75684 19.895 6.86123 20.9994 8.22348 20.9994H12.1331" stroke="black" stroke-width="1.5" stroke-linecap="round" stroke-linejoin="round"/>
<path opacity="0.4" d="M15.4151 16.3393L19.1827 17.8086M15.823 20.8613C14.7828 20.4555 14.2681 19.283 14.6739 18.2428L16.1587 14.4363C16.5645 13.3961 17.736 12.8814 18.7772 13.2871C19.8173 13.6929 20.3311 14.8654 19.9253 15.9056L18.4415 19.7121C18.0357 20.7523 16.8632 21.267 15.823 20.8613Z" stroke="black" stroke-width="1.5" stroke-linecap="round" stroke-linejoin="round"/>
<path opacity="0.4" d="M11.5284 12.0195V15.3969M13.2163 13.7071H9.83887" stroke="black" stroke-width="1.5" stroke-linecap="round" stroke-linejoin="round"/>
<path d="M5.81348 9.66647H17.2992C17.2992 8.998 17.0287 8.35968 16.549 7.89457L14.6126 6.01953H14.5708" stroke="black" stroke-width="1.5" stroke-linecap="round" stroke-linejoin="round"/>
<path d="M5.81348 17.8185H10.9414" stroke="black" stroke-width="1.5" stroke-linecap="round" stroke-linejoin="round"/>
<path fill-rule="evenodd" clip-rule="evenodd" d="M7.52283 6.01739H15.5319C16.07 6.01739 16.5069 5.58049 16.5069 5.04338V3.97401C16.5069 3.43689 16.07 3 15.5319 3H7.52283C6.98475 3 6.54785 3.43689 6.54785 3.97401V5.04338C6.54785 5.58049 6.98475 6.01739 7.52283 6.01739Z" stroke="black" stroke-width="1.5" stroke-linecap="round" stroke-linejoin="round"/>
</svg>