<svg width="25" height="24" viewBox="0 0 25 24" fill="none" xmlns="http://www.w3.org/2000/svg">
<path d="M8.65267 20.8991C11.2722 20.8991 13.3952 18.7761 13.3952 16.1566C13.3952 13.537 11.2722 11.4141 8.65267 11.4141C6.03312 11.4141 3.91016 13.537 3.91016 16.1566C3.91016 18.7761 6.03312 20.8991 8.65267 20.8991Z" stroke="black" stroke-width="1.5" stroke-linecap="round" stroke-linejoin="round"/>
<path d="M19.4436 20.9029C20.8064 20.9029 21.9107 19.7985 21.9107 18.4358C21.9107 17.0731 20.8064 15.9688 19.4436 15.9688C18.0809 15.9688 16.9766 17.0731 16.9766 18.4358C16.9766 19.7985 18.0809 20.9029 19.4436 20.9029Z" stroke="black" stroke-width="1.5" stroke-linecap="round" stroke-linejoin="round"/>
<path d="M19.4428 15.9671L18.7719 9.45507C18.6819 8.752 18.0837 8.2247 17.3743 8.2247L7.60547 8.21094" stroke="black" stroke-width="1.5" stroke-linecap="round" stroke-linejoin="round"/>
<path opacity="0.4" d="M19.0752 13.1016H12.2754" stroke="black" stroke-width="1.5" stroke-linecap="round" stroke-linejoin="round"/>
<path d="M5.56055 3.10156H7.6221L7.58504 11.4176" stroke="black" stroke-width="1.5" stroke-linecap="round" stroke-linejoin="round"/>
</svg>