<svg width="24" height="24" viewBox="0 0 24 24" fill="none" xmlns="http://www.w3.org/2000/svg">
<path fill-rule="evenodd" clip-rule="evenodd" d="M12.3827 8.40283C12.741 8.61061 12.8631 9.06953 12.6553 9.42786L11.5987 11.2499H13.6995C13.9678 11.2499 14.2157 11.3932 14.3495 11.6257C14.4834 11.8582 14.4828 12.1445 14.3481 12.3765L12.6366 15.3238C12.4285 15.682 11.9695 15.8038 11.6113 15.5958C11.2532 15.3877 11.1314 14.9287 11.3394 14.5705L12.3967 12.7499H10.2969C10.0287 12.7499 9.78088 12.6067 9.647 12.3743C9.51312 12.1419 9.51353 11.8557 9.64806 11.6237L11.3577 8.67541C11.5654 8.31708 12.0244 8.19504 12.3827 8.40283Z" fill="black"/>
<path fill-rule="evenodd" clip-rule="evenodd" d="M6.57081 6.62869C6.07886 7.1561 5.77148 7.9371 5.77148 8.92331V15.0845C5.77148 16.0677 6.07738 16.8465 6.56819 17.3726C7.05353 17.8928 7.77454 18.2256 8.73162 18.2256H15.2694C16.2268 18.2256 16.9457 17.8929 17.429 17.3734C17.9181 16.8477 18.2227 16.0688 18.2227 15.0845V8.92331C18.2227 7.93507 17.9177 7.15411 17.4286 6.62755C16.9453 6.10725 16.2267 5.77441 15.2694 5.77441H8.73162C7.77861 5.77441 7.05739 6.10703 6.57081 6.62869ZM5.47391 5.60555C6.27294 4.74892 7.40678 4.27441 8.73162 4.27441H15.2694C16.5977 4.27441 17.7307 4.7487 18.5276 5.60669C19.3188 6.45841 19.7227 7.6269 19.7227 8.92331V15.0845C19.7227 16.3781 19.3184 17.5447 18.5272 18.3951C17.7303 19.2517 16.5975 19.7256 15.2694 19.7256H8.73162C7.40404 19.7256 6.26999 19.2518 5.47142 18.3959C4.67833 17.5458 4.27148 16.3791 4.27148 15.0845V8.92331C4.27148 7.62487 4.68025 6.45642 5.47391 5.60555Z" fill="black"/>
<path fill-rule="evenodd" clip-rule="evenodd" d="M9.61328 18.2256C10.0275 18.2256 10.3633 18.5614 10.3633 18.9756V20.9966C10.3633 21.4108 10.0275 21.7466 9.61328 21.7466C9.19907 21.7466 8.86328 21.4108 8.86328 20.9966V18.9756C8.86328 18.5614 9.19907 18.2256 9.61328 18.2256ZM14.3872 18.2256C14.8014 18.2256 15.1372 18.5614 15.1372 18.9756V20.9966C15.1372 21.4108 14.8014 21.7466 14.3872 21.7466C13.973 21.7466 13.6372 21.4108 13.6372 20.9966V18.9756C13.6372 18.5614 13.973 18.2256 14.3872 18.2256Z" fill="black"/>
<path fill-rule="evenodd" clip-rule="evenodd" d="M2.25 9.61719C2.25 9.20297 2.58579 8.86719 3 8.86719H5.02097C5.43518 8.86719 5.77097 9.20297 5.77097 9.61719C5.77097 10.0314 5.43518 10.3672 5.02097 10.3672H3C2.58579 10.3672 2.25 10.0314 2.25 9.61719ZM2.25 14.3835C2.25 13.9693 2.58579 13.6335 3 13.6335H5.02097C5.43518 13.6335 5.77097 13.9693 5.77097 14.3835C5.77097 14.7977 5.43518 15.1335 5.02097 15.1335H3C2.58579 15.1335 2.25 14.7977 2.25 14.3835Z" fill="black"/>
<path fill-rule="evenodd" clip-rule="evenodd" d="M9.61328 2.25293C10.0275 2.25293 10.3633 2.58872 10.3633 3.00293V5.0239C10.3633 5.43811 10.0275 5.7739 9.61328 5.7739C9.19907 5.7739 8.86328 5.43811 8.86328 5.0239V3.00293C8.86328 2.58872 9.19907 2.25293 9.61328 2.25293ZM14.3872 2.25293C14.8014 2.25293 15.1372 2.58872 15.1372 3.00293V5.0239C15.1372 5.43811 14.8014 5.7739 14.3872 5.7739C13.973 5.7739 13.6372 5.43811 13.6372 5.0239V3.00293C13.6372 2.58872 13.973 2.25293 14.3872 2.25293Z" fill="black"/>
<path fill-rule="evenodd" clip-rule="evenodd" d="M18.2207 9.61621C18.2207 9.202 18.5565 8.86621 18.9707 8.86621H20.9995C21.4137 8.86621 21.7495 9.202 21.7495 9.61621C21.7495 10.0304 21.4137 10.3662 20.9995 10.3662H18.9707C18.5565 10.3662 18.2207 10.0304 18.2207 9.61621ZM18.2207 14.3825C18.2207 13.9683 18.5565 13.6325 18.9707 13.6325H20.9995C21.4137 13.6325 21.7495 13.9683 21.7495 14.3825C21.7495 14.7967 21.4137 15.1325 20.9995 15.1325H18.9707C18.5565 15.1325 18.2207 14.7967 18.2207 14.3825Z" fill="black"/>
</svg>
