<svg width="24" height="24" viewBox="0 0 24 24" fill="none" xmlns="http://www.w3.org/2000/svg">
<path fill-rule="evenodd" clip-rule="evenodd" d="M2.25 6.2267C2.25 4.15244 3.93254 2.47021 6.00746 2.47021H17.9935C20.0688 2.47021 21.75 4.15275 21.75 6.2267V13.7274C21.75 15.8021 20.0689 17.4848 17.9935 17.4848H6.00746C3.93238 17.4848 2.25 15.8024 2.25 13.7274V6.2267ZM6.00746 3.97021C4.76065 3.97021 3.75 4.98118 3.75 6.2267V13.7274C3.75 14.974 4.76081 15.9848 6.00746 15.9848H17.9935C19.2398 15.9848 20.25 14.9743 20.25 13.7274V6.2267C20.25 4.98086 19.24 3.97021 17.9935 3.97021H6.00746Z" fill="black"/>
<path fill-rule="evenodd" clip-rule="evenodd" d="M13.7256 16.0827C14.0855 15.8776 14.5435 16.003 14.7486 16.3628L16.3565 19.1832C16.9519 20.2375 16.1907 21.5591 14.9679 21.5591H9.03566C7.8034 21.5591 7.03951 20.2359 7.64794 19.1711L7.64991 19.1677L9.27478 16.3587C9.48218 16.0002 9.94098 15.8776 10.2995 16.0851C10.6581 16.2925 10.7806 16.7512 10.5732 17.1098L8.94979 19.9163C8.91309 19.9819 8.95673 20.0591 9.03566 20.0591H14.9679C14.9906 20.0591 15.0038 20.0537 15.0133 20.048C15.0249 20.0411 15.0376 20.0292 15.0476 20.012C15.0576 19.9947 15.0618 19.9775 15.0622 19.9636C15.0625 19.9522 15.0605 19.939 15.0508 19.9215C15.0507 19.9213 15.0509 19.9218 15.0508 19.9215L13.4455 17.1057C13.2404 16.7459 13.3658 16.2879 13.7256 16.0827Z" fill="black"/>
<path fill-rule="evenodd" clip-rule="evenodd" d="M2.25 12.6758C2.25 12.2616 2.58579 11.9258 3 11.9258H21C21.4142 11.9258 21.75 12.2616 21.75 12.6758C21.75 13.09 21.4142 13.4258 21 13.4258H3C2.58579 13.4258 2.25 13.09 2.25 12.6758Z" fill="black"/>
</svg>
