<svg width="24" height="24" viewBox="0 0 24 24" fill="none" xmlns="http://www.w3.org/2000/svg">
<path fill-rule="evenodd" clip-rule="evenodd" d="M2.25 6.2892C2.25 4.21494 3.93254 2.53271 6.00746 2.53271H17.9935C20.0688 2.53271 21.75 4.21525 21.75 6.2892V13.7899C21.75 15.8646 20.0689 17.5473 17.9935 17.5473H6.00746C3.93238 17.5473 2.25 15.8649 2.25 13.7899V6.2892ZM6.00746 4.03271C4.76065 4.03271 3.75 5.04368 3.75 6.2892V13.7899C3.75 15.0365 4.76081 16.0473 6.00746 16.0473H17.9935C19.2398 16.0473 20.25 15.0368 20.25 13.7899V6.2892C20.25 5.04336 19.24 4.03271 17.9935 4.03271H6.00746Z" fill="black"/>
<path fill-rule="evenodd" clip-rule="evenodd" d="M7.30469 20.7168C7.30469 20.3026 7.64047 19.9668 8.05469 19.9668H15.9445C16.3587 19.9668 16.6945 20.3026 16.6945 20.7168C16.6945 21.131 16.3587 21.4668 15.9445 21.4668H8.05469C7.64047 21.4668 7.30469 21.131 7.30469 20.7168Z" fill="black"/>
<path fill-rule="evenodd" clip-rule="evenodd" d="M12 16.2539C12.4142 16.2539 12.75 16.5897 12.75 17.0039V20.7168C12.75 21.131 12.4142 21.4668 12 21.4668C11.5858 21.4668 11.25 21.131 11.25 20.7168V17.0039C11.25 16.5897 11.5858 16.2539 12 16.2539Z" fill="black"/>
</svg>
