<svg width="24" height="24" viewBox="0 0 24 24" fill="none" xmlns="http://www.w3.org/2000/svg">
<path fill-rule="evenodd" clip-rule="evenodd" d="M2.26862 6.00026C2.26862 3.92943 3.94837 2.25 6.01985 2.25H17.9811C20.0529 2.25 21.7313 3.92975 21.7313 6.00026V13.4854C21.7313 15.5567 20.053 17.2366 17.9811 17.2366H6.01985C3.94821 17.2366 2.26862 15.557 2.26862 13.4854V6.00026ZM6.01985 3.75C4.77648 3.75 3.76862 4.75818 3.76862 6.00026V13.4854C3.76862 14.7286 4.77663 15.7366 6.01985 15.7366H17.9811C19.224 15.7366 20.2313 14.7289 20.2313 13.4854V6.00026C20.2313 4.75786 19.2241 3.75 17.9811 3.75H6.01985Z" fill="black"/>
<path fill-rule="evenodd" clip-rule="evenodd" d="M12.0018 20.8545C9.78126 20.8545 7.59557 21.1475 5.96284 21.7094C5.57117 21.8442 5.14439 21.6359 5.00959 21.2443C4.8748 20.8526 5.08304 20.4258 5.47471 20.291C7.31218 19.6587 9.67445 19.3545 12.0018 19.3545C14.3292 19.3545 16.6915 19.6587 18.529 20.291C18.9206 20.4258 19.1289 20.8526 18.9941 21.2443C18.8593 21.6359 18.4325 21.8442 18.0408 21.7094C16.4081 21.1475 14.2224 20.8545 12.0018 20.8545Z" fill="black"/>
</svg>
