<svg width="24" height="24" viewBox="0 0 24 24" fill="none" xmlns="http://www.w3.org/2000/svg">
<path fill-rule="evenodd" clip-rule="evenodd" d="M4.5542 9.29729C4.5531 5.36279 7.93066 2.25 11.9991 2.25C16.0664 2.25 19.4441 5.36058 19.4452 9.29493L19.4462 14.7027C19.4462 14.7027 19.4462 14.7027 19.4462 14.7027C19.4473 18.6372 16.0696 21.75 12.0012 21.75C7.93409 21.75 4.5563 18.6396 4.55615 14.7061C4.55615 14.706 4.55615 14.7062 4.55615 14.7061L4.5542 9.29729ZM6.0542 9.29687C6.0542 9.29685 6.0542 9.29689 6.0542 9.29687L6.05615 14.7056C6.05615 17.7248 8.67375 20.25 12.0012 20.25C15.3293 20.25 17.947 17.7234 17.9462 14.7031L17.9452 9.29534C17.9452 9.29532 17.9452 9.29537 17.9452 9.29534C17.9443 6.27491 15.3264 3.75 11.9991 3.75C8.671 3.75 6.05339 6.27659 6.0542 9.29687Z" fill="black"/>
<path fill-rule="evenodd" clip-rule="evenodd" d="M12.0427 7.17285C11.8274 7.17285 11.6523 7.34788 11.6523 7.56318V9.23572C11.6523 9.45102 11.8274 9.62604 12.0427 9.62604C12.258 9.62604 12.433 9.45102 12.433 9.23572V7.56318C12.433 7.34788 12.258 7.17285 12.0427 7.17285ZM10.1523 7.56318C10.1523 6.51945 10.9989 5.67285 12.0427 5.67285C13.0864 5.67285 13.933 6.51945 13.933 7.56318V9.23572C13.933 10.2794 13.0864 11.126 12.0427 11.126C10.9989 11.126 10.1523 10.2794 10.1523 9.23572V7.56318Z" fill="black"/>
<path fill-rule="evenodd" clip-rule="evenodd" d="M12 2.25C12.4142 2.25 12.75 2.58579 12.75 3V6.30908C12.75 6.72329 12.4142 7.05908 12 7.05908C11.5858 7.05908 11.25 6.72329 11.25 6.30908V3C11.25 2.58579 11.5858 2.25 12 2.25Z" fill="black"/>
</svg>
