<svg width="24" height="24" viewBox="0 0 24 24" fill="none" xmlns="http://www.w3.org/2000/svg">
<path fill-rule="evenodd" clip-rule="evenodd" d="M2.25 11.3089C2.25 8.66946 4.38968 6.52979 7.02908 6.52979H16.9719C19.6104 6.52979 21.75 8.66958 21.75 11.3089V16.7653C21.75 19.4046 19.6104 21.5444 16.9719 21.5444H7.02908C4.38968 21.5444 2.25 19.4047 2.25 16.7653V11.3089ZM7.02908 8.02979C5.21811 8.02979 3.75 9.49789 3.75 11.3089V16.7653C3.75 18.5763 5.21811 20.0444 7.02908 20.0444H16.9719C18.7818 20.0444 20.25 18.5764 20.25 16.7653V11.3089C20.25 9.49777 18.7818 8.02979 16.9719 8.02979H7.02908Z" fill="black"/>
<path fill-rule="evenodd" clip-rule="evenodd" d="M12 16.168C12.4142 16.168 12.75 16.5038 12.75 16.918V16.928C12.75 17.3422 12.4142 17.678 12 17.678C11.5858 17.678 11.25 17.3422 11.25 16.928V16.918C11.25 16.5038 11.5858 16.168 12 16.168Z" fill="black"/>
<path fill-rule="evenodd" clip-rule="evenodd" d="M12 10.3516C12.4142 10.3516 12.75 10.6873 12.75 11.1016V14.3143C12.75 14.7285 12.4142 15.0643 12 15.0643C11.5858 15.0643 11.25 14.7285 11.25 14.3143V11.1016C11.25 10.6873 11.5858 10.3516 12 10.3516Z" fill="black"/>
<path fill-rule="evenodd" clip-rule="evenodd" d="M17.055 2.70489C17.3312 3.01353 17.305 3.48767 16.9963 3.76393L12.4438 7.83874C12.1563 8.09605 11.7205 8.09328 11.4363 7.83233L6.9986 3.75752C6.6935 3.47737 6.67327 3.00293 6.95343 2.69783C7.23358 2.39272 7.70802 2.3725 8.01312 2.65265L11.95 6.26759L15.9959 2.64624C16.3046 2.36999 16.7787 2.39625 17.055 2.70489Z" fill="black"/>
</svg>
