<svg width="24" height="24" viewBox="0 0 24 24" fill="none" xmlns="http://www.w3.org/2000/svg">
<path fill-rule="evenodd" clip-rule="evenodd" d="M2.25 6.61977C2.25 4.5455 3.93254 2.86328 6.00746 2.86328H17.9935C20.0688 2.86328 21.75 4.54582 21.75 6.61977V14.1204C21.75 16.1952 20.0689 17.8779 17.9935 17.8779H6.00746C3.93238 17.8779 2.25 16.1955 2.25 14.1204V6.61977ZM6.00746 4.36328C4.76065 4.36328 3.75 5.37425 3.75 6.61977V14.1204C3.75 15.3671 4.76081 16.3779 6.00746 16.3779H17.9935C19.2398 16.3779 20.25 15.3674 20.25 14.1204V6.61977C20.25 5.37393 19.24 4.36328 17.9935 4.36328H6.00746Z" fill="black"/>
<path fill-rule="evenodd" clip-rule="evenodd" d="M11.6077 17.2685C11.8487 17.1201 12.1528 17.1201 12.3939 17.2685L16.422 19.7476C16.7747 19.9647 16.8847 20.4267 16.6676 20.7795C16.4505 21.1322 15.9885 21.2422 15.6358 21.0251L12.0008 18.7879L8.36578 21.0251C8.01302 21.2422 7.55105 21.1322 7.33395 20.7795C7.11684 20.4267 7.22681 19.9647 7.57956 19.7476L11.6077 17.2685Z" fill="black"/>
</svg>
