<svg width="24" height="24" viewBox="0 0 24 24" fill="none" xmlns="http://www.w3.org/2000/svg">
<path fill-rule="evenodd" clip-rule="evenodd" d="M7.8521 4.33897C8.96229 3.30508 10.4573 2.73267 12.006 2.73267C13.5546 2.73267 15.0496 3.30508 16.1598 4.33897C17.274 5.37659 17.9075 6.81092 17.9075 8.29722C17.9075 8.8683 17.6267 9.32731 17.2502 9.66201C16.8854 9.9863 16.4038 10.2228 15.8858 10.398C14.8454 10.7498 13.4653 10.9175 11.9953 10.9175C10.5255 10.9175 9.14764 10.7498 8.10958 10.3978C7.59263 10.2225 7.11219 9.98574 6.74839 9.66107C6.37275 9.32584 6.09375 8.86703 6.09375 8.29722C6.09375 6.80683 6.741 5.3737 7.8521 4.33897ZM12.006 4.23267C10.822 4.23267 9.6964 4.67115 8.87437 5.43668C8.05325 6.20136 7.59375 7.24285 7.59375 8.29722C7.59375 8.33427 7.60233 8.41268 7.74714 8.54192C7.90379 8.68172 8.17668 8.83666 8.59125 8.97723C9.41624 9.25696 10.6142 9.4175 11.9953 9.4175C13.3764 9.4175 14.5773 9.25697 15.4053 8.97702C15.8215 8.83632 16.0959 8.68115 16.2536 8.54097C16.3995 8.41121 16.4075 8.333 16.4075 8.29722C16.4075 7.23875 15.9556 6.19848 15.1375 5.43668C14.3155 4.67115 13.1899 4.23267 12.006 4.23267Z" fill="black"/>
<path fill-rule="evenodd" clip-rule="evenodd" d="M7.8032 6.59361C7.92474 6.98959 7.70226 7.40912 7.30628 7.53066C5.99867 7.93201 4.95642 8.48214 4.25602 9.09651C3.55582 9.7107 3.25 10.3367 3.25 10.9197C3.25 11.8131 3.98424 12.8168 5.62105 13.6418C7.2153 14.4453 9.46983 14.9631 12 14.9631C14.5302 14.9631 16.7847 14.4453 18.3789 13.6418C20.0158 12.8168 20.75 11.8131 20.75 10.9197C20.75 10.3351 20.4448 9.71075 19.7468 9.09902C19.048 8.48668 18.0077 7.93875 16.7012 7.53783C16.3052 7.41632 16.0827 6.9968 16.2042 6.60081C16.3258 6.20482 16.7453 5.98232 17.1413 6.10383C18.5826 6.54612 19.8317 7.17895 20.7354 7.97092C21.6398 8.76348 22.25 9.76693 22.25 10.9197C22.25 12.68 20.8562 14.073 19.0541 14.9813C17.2093 15.911 14.7138 16.4631 12 16.4631C9.28617 16.4631 6.7907 15.911 4.94595 14.9813C3.14376 14.073 1.75 12.68 1.75 10.9197C1.75 9.76764 2.36174 8.76282 3.26687 7.96886C4.1718 7.17508 5.42265 6.53974 6.86615 6.09669C7.26213 5.97515 7.68166 6.19763 7.8032 6.59361Z" fill="black"/>
<path fill-rule="evenodd" clip-rule="evenodd" d="M17.0449 19.9622C16.6307 19.9622 16.2949 19.6264 16.2949 19.2122V17.9069C16.2949 17.4927 16.6307 17.1569 17.0449 17.1569C17.4591 17.1569 17.7949 17.4927 17.7949 17.9069V19.2122C17.7949 19.6264 17.4591 19.9622 17.0449 19.9622Z" fill="black"/>
<path fill-rule="evenodd" clip-rule="evenodd" d="M6.95605 19.9622C7.37027 19.9622 7.70605 19.6264 7.70605 19.2122V17.9069C7.70605 17.4927 7.37027 17.1569 6.95605 17.1569C6.54184 17.1569 6.20605 17.4927 6.20605 17.9069V19.2122C6.20605 19.6264 6.54184 19.9622 6.95605 19.9622Z" fill="black"/>
<path fill-rule="evenodd" clip-rule="evenodd" d="M12.001 21.2673C11.5868 21.2673 11.251 20.9315 11.251 20.5173L11.251 17.907C11.251 17.4928 11.5868 17.157 12.001 17.157C12.4152 17.157 12.751 17.4928 12.751 17.907L12.751 20.5173C12.751 20.9315 12.4152 21.2673 12.001 21.2673Z" fill="black"/>
</svg>
