<svg width="24" height="24" viewBox="0 0 24 24" fill="none" xmlns="http://www.w3.org/2000/svg">
<path fill-rule="evenodd" clip-rule="evenodd" d="M11.9996 10.2681C11.0431 10.2681 10.2676 11.0435 10.2676 12.0001C10.2676 12.9567 11.0431 13.7322 11.9996 13.7322C12.9562 13.7322 13.7317 12.9567 13.7317 12.0001C13.7317 11.0435 12.9562 10.2681 11.9996 10.2681ZM8.76758 12.0001C8.76758 10.2151 10.2146 8.76807 11.9996 8.76807C13.7847 8.76807 15.2317 10.2151 15.2317 12.0001C15.2317 13.7852 13.7847 15.2322 11.9996 15.2322C10.2146 15.2322 8.76758 13.7852 8.76758 12.0001Z" fill="black"/>
<path fill-rule="evenodd" clip-rule="evenodd" d="M17.0102 15.3861C17.3218 15.6589 17.3533 16.1327 17.0805 16.4444C15.8443 17.8564 14.0261 18.75 12 18.75C11.5858 18.75 11.25 18.4142 11.25 18C11.25 17.5858 11.5858 17.25 12 17.25C13.5756 17.25 14.9884 16.5569 15.9518 15.4564C16.2247 15.1447 16.6985 15.1132 17.0102 15.3861Z" fill="black"/>
<path fill-rule="evenodd" clip-rule="evenodd" d="M6.02267 5.23006C6.32163 5.51677 6.33155 5.99154 6.04485 6.29049C4.62275 7.77334 3.75 9.78398 3.75 12C3.75 12.4142 3.41421 12.75 3 12.75C2.58579 12.75 2.25 12.4142 2.25 12C2.25 9.38174 3.28306 7.00316 4.96224 5.25224C5.24895 4.95328 5.72372 4.94336 6.02267 5.23006Z" fill="black"/>
<path fill-rule="evenodd" clip-rule="evenodd" d="M21.0002 11.25C21.4144 11.25 21.7502 11.5858 21.7502 12C21.7502 14.4579 20.8397 16.705 19.3387 18.4196C19.0659 18.7312 18.5921 18.7627 18.2804 18.4899C17.9687 18.217 17.9373 17.7432 18.2101 17.4315C19.4809 15.9799 20.2502 14.0807 20.2502 12C20.2502 11.5858 20.586 11.25 21.0002 11.25Z" fill="black"/>
<path fill-rule="evenodd" clip-rule="evenodd" d="M11.25 3C11.25 2.58579 11.5858 2.25 12 2.25C14.6373 2.25 17.0313 3.29809 18.7858 4.99885C19.0832 5.28716 19.0905 5.76197 18.8022 6.05938C18.5139 6.35679 18.0391 6.36416 17.7417 6.07585C16.2558 4.63543 14.2321 3.75 12 3.75C11.5858 3.75 11.25 3.41421 11.25 3Z" fill="black"/>
<path fill-rule="evenodd" clip-rule="evenodd" d="M4.98478 17.6875C5.28373 17.4008 5.7585 17.4107 6.04521 17.7096C7.54766 19.2763 9.65965 20.2501 12.0004 20.2501C12.4146 20.2501 12.7504 20.5859 12.7504 21.0001C12.7504 21.4143 12.4146 21.7501 12.0004 21.7501C9.23429 21.7501 6.73621 20.5973 4.9626 18.7479C4.6759 18.4489 4.68583 17.9742 4.98478 17.6875Z" fill="black"/>
<path fill-rule="evenodd" clip-rule="evenodd" d="M15.6373 7.16956C15.9256 6.87215 16.4004 6.86478 16.6978 7.15309C17.9625 8.37908 18.75 10.0982 18.75 12C18.75 12.4142 18.4142 12.75 18 12.75C17.5857 12.75 17.25 12.4142 17.25 12C17.25 10.5206 16.639 9.18524 15.6538 8.23009C15.3563 7.94178 15.349 7.46697 15.6373 7.16956Z" fill="black"/>
<path fill-rule="evenodd" clip-rule="evenodd" d="M11.9999 6.75C10.5103 6.75 9.16669 7.36938 8.21025 8.36668C7.92354 8.66563 7.44877 8.67556 7.14982 8.38886C6.85087 8.10215 6.84094 7.62738 7.12764 7.32843C8.35524 6.04839 10.085 5.25 11.9999 5.25C12.4141 5.25 12.7499 5.58579 12.7499 6C12.7499 6.41421 12.4141 6.75 11.9999 6.75Z" fill="black"/>
<path fill-rule="evenodd" clip-rule="evenodd" d="M6 11.25C6.41421 11.25 6.75 11.5858 6.75 12C6.75 13.4103 7.30511 14.6894 8.21033 15.6333C8.49704 15.9323 8.48711 16.407 8.18816 16.6937C7.8892 16.9805 7.41443 16.9705 7.12773 16.6716C5.96542 15.4596 5.25 13.8126 5.25 12C5.25 11.5858 5.58579 11.25 6 11.25Z" fill="black"/>
</svg>
