<svg width="24" height="24" viewBox="0 0 24 24" fill="none" xmlns="http://www.w3.org/2000/svg">
<path fill-rule="evenodd" clip-rule="evenodd" d="M15.086 5.10693C15.4158 5.10693 15.7069 5.3224 15.8033 5.63783C16.6291 8.34139 18.7531 10.4586 21.4688 11.2822C21.7849 11.3781 22.0011 11.6696 22.0011 12C22.0011 12.3303 21.7849 12.6218 21.4688 12.7177C18.7531 13.5413 16.6291 15.6585 15.8033 18.3621C15.7069 18.6775 15.4158 18.893 15.086 18.893C14.7562 18.893 14.4651 18.6775 14.3687 18.3621C13.5429 15.6585 11.4189 13.5413 8.70323 12.7177C8.38708 12.6218 8.1709 12.3303 8.1709 12C8.1709 11.6696 8.38708 11.3781 8.70323 11.2822C11.4189 10.4586 13.5429 8.34139 14.3687 5.63783C14.4651 5.3224 14.7562 5.10693 15.086 5.10693ZM10.8903 12C12.6799 12.9394 14.144 14.3991 15.086 16.1838C16.028 14.3991 17.4921 12.9394 19.2817 12C17.4921 11.0605 16.028 9.6008 15.086 7.81609C14.144 9.6008 12.6799 11.0605 10.8903 12Z" fill="black"/>
<path fill-rule="evenodd" clip-rule="evenodd" d="M8.2458 17.7517C7.28861 17.6785 6.25928 17.8994 5.26174 18.2837C4.87521 18.4326 4.44117 18.2399 4.29227 17.8534C4.14338 17.4669 4.33602 17.0328 4.72255 16.8839C5.84534 16.4514 7.10662 16.1602 8.36024 16.2561C8.77325 16.2877 9.08244 16.6481 9.05084 17.0612C9.01923 17.4742 8.65881 17.7833 8.2458 17.7517Z" fill="black"/>
<path fill-rule="evenodd" clip-rule="evenodd" d="M5.95086 12.6268C6.0205 13.0351 5.74594 13.4225 5.33762 13.4922C4.56762 13.6235 3.79156 13.8889 3.06125 14.221C2.68421 14.3925 2.23953 14.2259 2.06804 13.8488C1.89655 13.4718 2.06318 13.0271 2.44023 12.8556C3.25485 12.4851 4.15656 12.1719 5.08545 12.0135C5.49377 11.9439 5.88123 12.2184 5.95086 12.6268Z" fill="black"/>
<path fill-rule="evenodd" clip-rule="evenodd" d="M11.3051 6.73143C11.2937 7.14548 10.9488 7.47188 10.5347 7.46045C8.41642 7.40199 6.36787 8.02863 4.61152 9.09161C4.25715 9.30608 3.79602 9.19268 3.58155 8.83831C3.36708 8.48394 3.48049 8.02281 3.83485 7.80834C5.80497 6.61598 8.13424 5.89363 10.5761 5.96102C10.9902 5.97245 11.3166 6.31737 11.3051 6.73143Z" fill="black"/>
</svg>
