<svg width="24" height="24" viewBox="0 0 24 24" fill="none" xmlns="http://www.w3.org/2000/svg">
<path fill-rule="evenodd" clip-rule="evenodd" d="M5.94727 3.09839C6.36148 3.09839 6.69727 3.43418 6.69727 3.84839V9.59638C6.69727 10.0106 6.36148 10.3464 5.94727 10.3464C5.53305 10.3464 5.19727 10.0106 5.19727 9.59638V3.84839C5.19727 3.43418 5.53305 3.09839 5.94727 3.09839Z" fill="black"/>
<path fill-rule="evenodd" clip-rule="evenodd" d="M12 2C12.4142 2 12.75 2.33579 12.75 2.75V4.19242C12.75 4.60663 12.4142 4.94242 12 4.94242C11.5858 4.94242 11.25 4.60663 11.25 4.19242V2.75C11.25 2.33579 11.5858 2 12 2Z" fill="black"/>
<path fill-rule="evenodd" clip-rule="evenodd" d="M18.0527 3.09839C18.4669 3.09839 18.8027 3.43418 18.8027 3.84839V9.59638C18.8027 10.0106 18.4669 10.3464 18.0527 10.3464C17.6385 10.3464 17.3027 10.0106 17.3027 9.59638V3.84839C17.3027 3.43418 17.6385 3.09839 18.0527 3.09839Z" fill="black"/>
<path fill-rule="evenodd" clip-rule="evenodd" d="M11.9997 7.54712C12.3295 7.54712 12.6206 7.76259 12.717 8.07802C13.5916 10.9413 15.841 13.1836 18.7171 14.0558C19.0332 14.1517 19.2494 14.4432 19.2494 14.7735C19.2494 15.1039 19.0332 15.3954 18.7171 15.4912C15.841 16.3635 13.5916 18.6057 12.717 21.469C12.6206 21.7845 12.3295 21.9999 11.9997 21.9999C11.6699 21.9999 11.3788 21.7845 11.2824 21.469C10.4078 18.6057 8.15837 16.3635 5.28233 15.4912C4.96618 15.3954 4.75 15.1039 4.75 14.7735C4.75 14.4432 4.96618 14.1517 5.28233 14.0558C8.15837 13.1836 10.4078 10.9413 11.2824 8.07802C11.3788 7.76259 11.6699 7.54712 11.9997 7.54712ZM7.48813 14.7735C9.42207 15.7705 11 17.3436 11.9997 19.2723C12.9994 17.3436 14.5773 15.7705 16.5112 14.7735C14.5773 13.7765 12.9994 12.2034 11.9997 10.2748C11 12.2034 9.42207 13.7765 7.48813 14.7735Z" fill="black"/>
</svg>
