<svg width="24" height="24" viewBox="0 0 24 24" fill="none" xmlns="http://www.w3.org/2000/svg">
<path fill-rule="evenodd" clip-rule="evenodd" d="M11.9559 14.8767C8.73764 14.8842 5.65406 15.9469 3.95706 17.8944C3.68494 18.2067 3.21118 18.2393 2.89889 17.9671C2.58661 17.695 2.55405 17.2213 2.82617 16.909C4.90722 14.5208 8.48167 13.3848 11.9524 13.3768C15.4251 13.3687 19.0279 14.4891 21.1707 16.9039C21.4456 17.2137 21.4173 17.6878 21.1075 17.9627C20.7977 18.2376 20.3236 18.2093 20.0487 17.8995C18.2895 15.9168 15.1723 14.8693 11.9559 14.8767Z" fill="black"/>
<path fill-rule="evenodd" clip-rule="evenodd" d="M9.04471 3.8754C9.45612 3.82724 9.82867 4.12171 9.87682 4.53312L11.2165 15.9777C11.2646 16.3891 10.9701 16.7617 10.5587 16.8098C10.1473 16.858 9.77478 16.5635 9.72663 16.1521L8.38699 4.70751C8.33884 4.2961 8.63331 3.92355 9.04471 3.8754Z" fill="black"/>
<path fill-rule="evenodd" clip-rule="evenodd" d="M13.4702 4.83419C13.6695 4.95383 13.8021 5.15916 13.8292 5.3901L14.3044 9.45014C14.3436 9.78458 14.155 10.1041 13.8433 10.2316C13.0921 10.5387 12.4593 10.7399 11.7884 10.8199C11.1165 10.9001 10.4513 10.8534 9.64012 10.7226C9.23119 10.6566 8.95314 10.2717 9.01908 9.86273C9.08503 9.4538 9.46999 9.17575 9.87892 9.2417C10.62 9.3612 11.1321 9.38756 11.6108 9.33046C11.9591 9.28891 12.3133 9.20038 12.7469 9.04641L12.4483 6.49523C12.0604 6.61209 11.6893 6.6941 11.3071 6.73942C10.6385 6.8187 9.97659 6.78092 9.17611 6.66426C8.76623 6.60452 8.48238 6.22382 8.54212 5.81393C8.60186 5.40405 8.98256 5.1202 9.39244 5.17994C10.1224 5.28632 10.6413 5.30787 11.1305 5.24986C11.6205 5.19174 12.1213 5.04902 12.8107 4.77897C13.0272 4.69416 13.2708 4.71456 13.4702 4.83419Z" fill="black"/>
<path fill-rule="evenodd" clip-rule="evenodd" d="M17.5386 5.82804C17.7494 6.01351 17.8389 6.30119 17.7706 6.57353L17.3057 8.42793L18.1828 10.1033C18.2808 10.2904 18.2953 10.5101 18.2229 10.7085C18.1504 10.9068 17.9977 11.0655 17.8022 11.1454C17.051 11.4525 16.4182 11.6537 15.7473 11.7337C15.0754 11.8139 14.4102 11.7672 13.599 11.6364C13.2679 11.583 13.0125 11.3163 12.9735 10.9832L12.4983 6.92312C12.4712 6.69161 12.5532 6.46066 12.7204 6.29817C12.8875 6.13569 13.1207 6.06015 13.3513 6.09377C14.0813 6.20015 14.6002 6.2217 15.0894 6.16368C15.5794 6.10557 16.0802 5.96285 16.7696 5.6928C17.031 5.59038 17.3278 5.64257 17.5386 5.82804ZM14.0973 7.68149L14.3959 10.2326C14.8551 10.2832 15.2212 10.2859 15.5697 10.2443C15.8494 10.2109 16.133 10.1472 16.4585 10.0437L15.8442 8.87055C15.7589 8.70751 15.7364 8.51877 15.7812 8.34026L15.986 7.52342C15.7457 7.58111 15.5081 7.62454 15.266 7.65325C14.8833 7.69863 14.5028 7.70566 14.0973 7.68149Z" fill="black"/>
<path fill-rule="evenodd" clip-rule="evenodd" d="M6.91433 20.6273C6.50012 20.6273 6.16433 20.2915 6.16433 19.8773C6.16433 19.3177 6.49443 18.8927 6.86187 18.6397C7.23255 18.3844 7.70352 18.2506 8.1875 18.2506C8.60171 18.2506 8.9375 18.5864 8.9375 19.0006C8.9375 19.4148 8.60171 19.7506 8.1875 19.7506C7.96833 19.7506 7.80271 19.813 7.71259 19.8751C7.68712 19.8926 7.67196 19.9064 7.66337 19.9156C7.64345 20.312 7.31571 20.6273 6.91433 20.6273ZM7.65348 19.9288C7.65325 19.9287 7.65403 19.927 7.65651 19.9237C7.65494 19.9272 7.65371 19.9288 7.65348 19.9288Z" fill="black"/>
<path fill-rule="evenodd" clip-rule="evenodd" d="M14.0661 18.0989C14.0657 18.0988 14.0674 18.0962 14.0721 18.0912C14.0689 18.0965 14.0665 18.099 14.0661 18.0989ZM14.2332 17.9929C14.3688 17.9337 14.5665 17.886 14.8072 17.886C15.0478 17.886 15.2455 17.9337 15.3812 17.9929C15.2455 18.0522 15.0478 18.0999 14.8072 18.0999C14.5665 18.0999 14.3688 18.0522 14.2332 17.9929ZM15.5482 18.0989C15.5478 18.099 15.5454 18.0965 15.5422 18.0912C15.547 18.0962 15.5486 18.0988 15.5482 18.0989ZM15.5422 17.8947C15.5454 17.8894 15.5478 17.8869 15.5482 17.887C15.5486 17.8871 15.547 17.8897 15.5422 17.8947ZM14.0721 17.8947C14.0674 17.8897 14.0657 17.8871 14.0661 17.887C14.0665 17.8869 14.0689 17.8894 14.0721 17.8947ZM13.3934 16.7398C13.7921 16.5063 14.2936 16.386 14.8072 16.386C15.3207 16.386 15.8222 16.5063 16.2209 16.7398C16.6017 16.9628 17.0206 17.3803 17.0206 17.9929C17.0206 18.6056 16.6017 19.0231 16.2209 19.2461C15.8222 19.4796 15.3207 19.5999 14.8072 19.5999C14.2936 19.5999 13.7921 19.4796 13.3934 19.2461C13.0126 19.0231 12.5938 18.6056 12.5938 17.9929C12.5938 17.3803 13.0126 16.9628 13.3934 16.7398Z" fill="black"/>
<path fill-rule="evenodd" clip-rule="evenodd" d="M12 20.24C12.4142 20.24 12.75 20.5758 12.75 20.99V21C12.75 21.4142 12.4142 21.75 12 21.75C11.5858 21.75 11.25 21.4142 11.25 21V20.99C11.25 20.5758 11.5858 20.24 12 20.24Z" fill="black"/>
<path fill-rule="evenodd" clip-rule="evenodd" d="M5.36914 8.94385C5.78335 8.94385 6.11914 9.27963 6.11914 9.69385V9.70385C6.11914 10.1181 5.78335 10.4538 5.36914 10.4538C4.95493 10.4538 4.61914 10.1181 4.61914 9.70385V9.69385C4.61914 9.27963 4.95493 8.94385 5.36914 8.94385Z" fill="black"/>
<path fill-rule="evenodd" clip-rule="evenodd" d="M18.5439 2.25C18.9582 2.25 19.2939 2.58579 19.2939 3V3.01C19.2939 3.42421 18.9582 3.76 18.5439 3.76C18.1297 3.76 17.7939 3.42421 17.7939 3.01V3C17.7939 2.58579 18.1297 2.25 18.5439 2.25Z" fill="black"/>
</svg>
