<svg width="24" height="24" viewBox="0 0 24 24" fill="none" xmlns="http://www.w3.org/2000/svg">
<path fill-rule="evenodd" clip-rule="evenodd" d="M10.6426 3.43799C11.0568 3.43799 11.3926 3.77377 11.3926 4.18799V4.1994C11.3926 4.61362 11.0568 4.9494 10.6426 4.9494C10.2284 4.9494 9.89258 4.61362 9.89258 4.1994V4.18799C9.89258 3.77377 10.2284 3.43799 10.6426 3.43799Z" fill="black"/>
<path fill-rule="evenodd" clip-rule="evenodd" d="M4.69211 14.5952L4.69209 14.5952C4.6918 14.5965 4.69079 14.6009 4.69173 14.6116C4.69274 14.6231 4.69634 14.6449 4.70868 14.6784C4.73454 14.7486 4.79322 14.8548 4.91177 14.9934C5.15211 15.2744 5.56638 15.6054 6.16145 15.9535C7.34354 16.6451 9.08883 17.3178 11.1143 17.7831C13.1397 18.2484 15.0036 18.4048 16.369 18.2984C17.0564 18.2448 17.5735 18.1278 17.9124 17.9799C18.0796 17.9069 18.1787 17.837 18.2326 17.7851C18.2583 17.7603 18.2711 17.7422 18.277 17.7324C18.2825 17.7232 18.2835 17.7187 18.2838 17.7175C18.284 17.7166 18.2858 17.7099 18.2831 17.6923C18.2802 17.6729 18.2715 17.6377 18.2464 17.5853C18.1939 17.4759 18.085 17.323 17.8888 17.1351C17.4952 16.7584 16.8513 16.3364 15.9845 15.9213C15.611 15.7424 15.4532 15.2945 15.6321 14.921C15.811 14.5474 16.2589 14.3896 16.6325 14.5685C17.5728 15.0189 18.3728 15.522 18.926 16.0516C19.443 16.5465 19.9302 17.2502 19.7458 18.0533C19.5929 18.7189 19.0486 19.1206 18.5126 19.3546C17.9601 19.5958 17.2583 19.7336 16.4855 19.7938C14.9307 19.915 12.91 19.7346 10.7785 19.245C8.64694 18.7554 6.75006 18.0358 5.40399 17.2482C4.73497 16.8568 4.16368 16.4265 3.77184 15.9684C3.39167 15.5239 3.07728 14.925 3.23017 14.2594C3.41359 13.4609 4.1519 13.0407 4.82792 12.8204C5.55036 12.585 6.48116 12.48 7.51421 12.4825C7.92842 12.4835 8.2634 12.8201 8.2624 13.2343C8.2614 13.6485 7.9248 13.9835 7.51059 13.9825C6.55924 13.9802 5.80464 14.0798 5.29265 14.2466C5.03741 14.3298 4.87526 14.4192 4.78186 14.494C4.73719 14.5298 4.71438 14.5573 4.70354 14.5731C4.69387 14.5873 4.69237 14.594 4.69211 14.5952Z" fill="black"/>
<path fill-rule="evenodd" clip-rule="evenodd" d="M9.61446 10.887C12.5247 9.8527 15.7223 11.3735 16.7566 14.2837C17.7908 17.1939 16.27 20.3916 13.3598 21.4258C10.4496 22.4601 7.25195 20.9393 6.2177 18.0291C5.18345 15.1188 6.70424 11.9212 9.61446 10.887ZM15.3432 14.786C14.5863 12.6564 12.2464 11.5435 10.1168 12.3004C7.98713 13.0572 6.87427 15.3971 7.6311 17.5268C8.38793 19.6564 10.7279 20.7692 12.8575 20.0124C14.9871 19.2556 16.1 16.9156 15.3432 14.786Z" fill="black"/>
<path fill-rule="evenodd" clip-rule="evenodd" d="M5.4802 5.92847C4.55915 5.92847 3.8125 6.67512 3.8125 7.59616C3.8125 8.51721 4.55915 9.26386 5.4802 9.26386C6.40124 9.26386 7.14789 8.51721 7.14789 7.59616C7.14789 6.67512 6.40124 5.92847 5.4802 5.92847ZM2.3125 7.59616C2.3125 5.84669 3.73073 4.42847 5.4802 4.42847C7.22967 4.42847 8.64789 5.84669 8.64789 7.59616C8.64789 9.34563 7.22967 10.7639 5.4802 10.7639C3.73073 10.7639 2.3125 9.34563 2.3125 7.59616Z" fill="black"/>
<path fill-rule="evenodd" clip-rule="evenodd" d="M18.1791 3.90869C16.6312 3.38226 14.9497 4.21026 14.4233 5.75808C13.8968 7.3059 14.7248 8.98742 16.2727 9.51386C17.8205 10.0403 19.502 9.21229 20.0284 7.66447C20.5549 6.11665 19.7269 4.43513 18.1791 3.90869ZM13.0032 5.27508C13.7964 2.94295 16.3299 1.69539 18.6621 2.48858C20.9942 3.28177 22.2417 5.81534 21.4486 8.14747C20.6554 10.4796 18.1218 11.7272 15.7897 10.934C13.4575 10.1408 12.21 7.60721 13.0032 5.27508Z" fill="black"/>
<path fill-rule="evenodd" clip-rule="evenodd" d="M13.8553 4.05534C13.9887 3.66318 14.4147 3.4534 14.8069 3.58678L17.5973 4.53582C17.9894 4.6692 18.1992 5.09523 18.0658 5.48738C17.9324 5.87953 17.5064 6.08931 17.1143 5.95593L14.3239 5.00689C13.9317 4.87351 13.722 4.44749 13.8553 4.05534Z" fill="black"/>
<path fill-rule="evenodd" clip-rule="evenodd" d="M16.2267 8.28574C16.36 7.89359 16.7861 7.68381 17.1782 7.81719L19.9686 8.76623C20.3608 8.89961 20.5705 9.32563 20.4372 9.71779C20.3038 10.1099 19.8778 10.3197 19.4856 10.1863L16.6952 9.2373C16.3031 9.10392 16.0933 8.6779 16.2267 8.28574Z" fill="black"/>
</svg>
