<svg width="24" height="24" viewBox="0 0 24 24" fill="none" xmlns="http://www.w3.org/2000/svg">
<path fill-rule="evenodd" clip-rule="evenodd" d="M7.07499 2.36621C7.40011 2.36622 7.6882 2.5757 7.78843 2.88498C8.34078 4.58928 9.67679 5.9253 11.3812 6.47774C11.6905 6.57799 11.8999 6.86608 11.8999 7.1912C11.8999 7.51632 11.6905 7.80442 11.3812 7.90466C9.67679 8.45709 8.34078 9.79311 7.78843 11.4974C7.6882 11.8067 7.40011 12.0162 7.07499 12.0162C6.74987 12.0162 6.46177 11.8067 6.36151 11.4974C5.80905 9.79311 4.47301 8.45708 2.76874 7.90466C2.45947 7.80441 2.25 7.51632 2.25 7.1912C2.25 6.86609 2.45946 6.578 2.76874 6.47775C4.47301 5.92531 5.80905 4.58929 6.36151 2.88495C6.46177 2.57567 6.74987 2.3662 7.07499 2.36621ZM4.77264 7.1912C5.70802 7.76944 6.49667 8.5581 7.07493 9.49349C7.65316 8.55809 8.44182 7.76944 9.37723 7.1912C8.44182 6.61295 7.65317 5.8243 7.07493 4.8889C6.49667 5.8243 5.70802 6.61295 4.77264 7.1912Z" fill="black"/>
<path fill-rule="evenodd" clip-rule="evenodd" d="M11.6663 13.2485C11.9914 13.2485 12.2795 13.458 12.3798 13.7673C12.8349 15.1717 13.9358 16.2725 15.3402 16.7278C15.6495 16.828 15.8589 17.1161 15.8589 17.4412C15.8589 17.7663 15.6495 18.0544 15.3402 18.1547C13.9358 18.6099 12.8349 19.7108 12.3798 21.1151C12.2795 21.4244 11.9914 21.6339 11.6663 21.6339C11.3412 21.6339 11.0531 21.4244 10.9528 21.1151C10.4976 19.7108 9.3967 18.6099 7.99237 18.1547C7.6831 18.0544 7.47363 17.7663 7.47363 17.4412C7.47363 17.1161 7.6831 16.828 7.99237 16.7278C9.3967 16.2725 10.4976 15.1717 10.9528 13.7673C11.0531 13.458 11.3412 13.2485 11.6663 13.2485ZM9.93727 17.4412C10.6241 17.895 11.2125 18.4833 11.6663 19.1702C12.12 18.4833 12.7084 17.895 13.3953 17.4412C12.7084 16.9875 12.12 16.3991 11.6663 15.7122C11.2125 16.3991 10.6241 16.9875 9.93727 17.4412Z" fill="black"/>
<path fill-rule="evenodd" clip-rule="evenodd" d="M18.0487 6.36279C18.3738 6.3628 18.6619 6.57228 18.7621 6.88157C19.1417 8.05269 20.0597 8.97075 21.2309 9.35037C21.5402 9.45061 21.7497 9.73871 21.7497 10.0638C21.7497 10.3889 21.5402 10.677 21.2309 10.7773C20.0597 11.1569 19.1417 12.075 18.7621 13.2461C18.6619 13.5554 18.3738 13.7648 18.0487 13.7648C17.7236 13.7649 17.4355 13.5554 17.3352 13.2461C16.9556 12.075 16.0375 11.1569 14.8664 10.7773C14.5571 10.677 14.3477 10.3889 14.3477 10.0638C14.3477 9.73871 14.5571 9.45062 14.8664 9.35037C16.0375 8.97076 16.9556 8.05269 17.3352 6.88153C17.4355 6.57225 17.7236 6.36278 18.0487 6.36279ZM16.7566 10.0638C17.2582 10.417 17.6954 10.8543 18.0486 11.3559C18.4019 10.8543 18.8391 10.417 19.3407 10.0638C18.8391 9.71061 18.4019 9.27338 18.0486 8.77179C17.6954 9.27338 17.2582 9.71061 16.7566 10.0638Z" fill="black"/>
<path fill-rule="evenodd" clip-rule="evenodd" d="M15.1494 4.89697C14.7352 4.89697 14.3994 4.56119 14.3994 4.14697V4.13697C14.3994 3.72276 14.7352 3.38697 15.1494 3.38697C15.5636 3.38697 15.8994 3.72276 15.8994 4.13697V4.14697C15.8994 4.56119 15.5636 4.89697 15.1494 4.89697Z" fill="black"/>
<path fill-rule="evenodd" clip-rule="evenodd" d="M19.0322 18.6094C18.618 18.6094 18.2822 18.2736 18.2822 17.8594V17.8494C18.2822 17.4352 18.618 17.0994 19.0322 17.0994C19.4464 17.0994 19.7822 17.4352 19.7822 17.8494V17.8594C19.7822 18.2736 19.4464 18.6094 19.0322 18.6094Z" fill="black"/>
<path fill-rule="evenodd" clip-rule="evenodd" d="M4.27832 15.7666C3.86411 15.7666 3.52832 15.4308 3.52832 15.0166V15.0066C3.52832 14.5924 3.86411 14.2566 4.27832 14.2566C4.69253 14.2566 5.02832 14.5924 5.02832 15.0066V15.0166C5.02832 15.4308 4.69253 15.7666 4.27832 15.7666Z" fill="black"/>
</svg>
