<svg width="24" height="24" viewBox="0 0 24 24" fill="none" xmlns="http://www.w3.org/2000/svg">
<path fill-rule="evenodd" clip-rule="evenodd" d="M3.74072 3.89744C4.72544 2.84116 6.12768 2.25 7.78313 2.25H16.2178C17.8772 2.25 19.2796 2.84086 20.2635 3.89789C21.2416 4.94883 21.75 6.39954 21.75 8.02735V15.9736C21.75 17.6014 21.2416 19.052 20.2632 20.1027C19.2792 21.1595 17.8765 21.75 16.2169 21.75H7.78313C6.1239 21.75 4.72126 21.1595 3.73717 20.1028C2.7587 19.0521 2.25 17.6015 2.25 15.9736V8.02735C2.25 6.3985 2.76144 4.9479 3.74072 3.89744ZM4.8379 4.92029C4.16046 5.64696 3.75 6.71004 3.75 8.02735V15.9736C3.75 17.2919 4.15882 18.3545 4.83488 19.0805C5.50534 19.8004 6.49426 20.25 7.78313 20.25H16.2169C17.5063 20.25 18.4952 19.8004 19.1654 19.0805C19.8414 18.3546 20.25 17.292 20.25 15.9736V8.02735C20.25 6.709 19.8414 5.64603 19.1655 4.91984C18.4952 4.19973 17.5066 3.75 16.2178 3.75H7.78313C6.49924 3.75 5.50991 4.19944 4.8379 4.92029Z" fill="black"/>
<path fill-rule="evenodd" clip-rule="evenodd" d="M12.3664 11.3532C12.124 11.2522 11.8512 11.2522 11.6088 11.3532C11.2306 11.5108 10.7964 11.3319 10.6388 10.9538C10.4812 10.5757 10.6601 10.1414 11.0382 9.98383C11.6458 9.73065 12.3294 9.73065 12.937 9.98383C13.3152 10.1414 13.494 10.5757 13.3364 10.9538C13.1789 11.3319 12.7446 11.5108 12.3664 11.3532Z" fill="black"/>
<path fill-rule="evenodd" clip-rule="evenodd" d="M14.869 12.496C15.1884 12.2322 15.6611 12.2772 15.9249 12.5966L17.151 14.0808C17.7816 14.8442 18.513 15.5186 19.3251 16.0853L19.6879 16.3385C20.5157 16.9162 21.0089 17.8619 21.0089 18.8713C21.0089 19.2856 20.6731 19.6213 20.2589 19.6213C19.8447 19.6213 19.5089 19.2856 19.5089 18.8713C19.5089 18.3521 19.2552 17.8657 18.8294 17.5686L18.4666 17.3154C17.5433 16.6709 16.7116 15.9042 15.9945 15.0361L14.7685 13.5519C14.5047 13.2325 14.5497 12.7598 14.869 12.496Z" fill="black"/>
<path fill-rule="evenodd" clip-rule="evenodd" d="M9.13231 12.4959C9.45165 12.7597 9.49668 13.2324 9.23288 13.5518L8.00684 15.036C7.28972 15.9041 6.45809 16.6708 5.53472 17.3152L5.17191 17.5684C4.74614 17.8656 4.49243 18.352 4.49243 18.8712C4.49243 19.2854 4.15665 19.6212 3.74243 19.6212C3.32822 19.6212 2.99243 19.2854 2.99243 18.8712C2.99243 17.8618 3.48569 16.9161 4.31346 16.3384L4.67627 16.0852C5.48833 15.5184 6.21971 14.8441 6.85039 14.0806L8.07642 12.5965C8.34023 12.2771 8.81296 12.2321 9.13231 12.4959Z" fill="black"/>
<path fill-rule="evenodd" clip-rule="evenodd" d="M12.0449 16.7258C12.4591 16.7258 12.7949 17.0616 12.7949 17.4758V20.9999C12.7949 21.4141 12.4591 21.7499 12.0449 21.7499C11.6307 21.7499 11.2949 21.4141 11.2949 20.9999V17.4758C11.2949 17.0616 11.6307 16.7258 12.0449 16.7258Z" fill="black"/>
<path fill-rule="evenodd" clip-rule="evenodd" d="M12.044 7.06079C11.7169 7.06079 11.4032 7.19074 11.1719 7.42205C10.1064 8.48753 9.50781 9.93263 9.50781 11.4394V20.3823C9.50781 20.7965 9.17203 21.1323 8.75781 21.1323C8.3436 21.1323 8.00781 20.7965 8.00781 20.3823V11.4394C8.00781 9.5348 8.76443 7.70817 10.1112 6.36139C10.6238 5.84877 11.3191 5.56079 12.044 5.56079C12.769 5.56079 13.4642 5.84877 13.9768 6.36139C15.3236 7.70817 16.0802 9.53481 16.0802 11.4395V20.3823C16.0802 20.7965 15.7444 21.1323 15.3302 21.1323C14.916 21.1323 14.5802 20.7965 14.5802 20.3823V11.4395C14.5802 9.93263 13.9817 8.48753 12.9162 7.42205C12.6849 7.19074 12.3711 7.06079 12.044 7.06079Z" fill="black"/>
</svg>
