<svg width="24" height="24" viewBox="0 0 24 24" fill="none" xmlns="http://www.w3.org/2000/svg">
<path fill-rule="evenodd" clip-rule="evenodd" d="M5.79368 12.3153C6.20188 12.245 6.5898 12.5189 6.66013 12.9271C7.04797 15.1782 8.82728 16.9556 11.0793 17.3406C11.4876 17.4104 11.762 17.798 11.6922 18.2063C11.6224 18.6146 11.2348 18.889 10.8265 18.8192C7.94789 18.327 5.67766 16.0592 5.18191 13.1818C5.11158 12.7736 5.38548 12.3857 5.79368 12.3153Z" fill="black"/>
<path fill-rule="evenodd" clip-rule="evenodd" d="M18.2075 12.3096C18.6157 12.3796 18.89 12.7672 18.82 13.1755C18.3265 16.0558 16.0551 18.3266 13.1744 18.8191C12.7661 18.8889 12.3785 18.6145 12.3087 18.2062C12.2389 17.798 12.5133 17.4104 12.9216 17.3406C15.1752 16.9553 16.9555 15.1755 17.3416 12.9222C17.4115 12.5139 17.7992 12.2396 18.2075 12.3096Z" fill="black"/>
<path fill-rule="evenodd" clip-rule="evenodd" d="M12.3127 5.79343C12.3829 5.38521 12.7708 5.11118 13.179 5.18138C16.0566 5.6762 18.325 7.94571 18.8182 10.8239C18.8881 11.2322 18.6139 11.6198 18.2056 11.6898C17.7974 11.7597 17.4097 11.4855 17.3397 11.0772C16.9539 8.82554 15.176 7.0468 12.9248 6.65968C12.5166 6.58949 12.2425 6.20165 12.3127 5.79343Z" fill="black"/>
<path fill-rule="evenodd" clip-rule="evenodd" d="M11.6863 5.79331C11.7565 6.20153 11.4825 6.58937 11.0742 6.65956C8.82461 7.0464 7.04768 8.82284 6.66013 11.0722C6.5898 11.4804 6.20188 11.7543 5.79368 11.684C5.38548 11.6137 5.11158 11.2257 5.18191 10.8175C5.67729 7.94231 7.94449 5.67572 10.82 5.18126C11.2283 5.11106 11.6161 5.38509 11.6863 5.79331Z" fill="black"/>
<path fill-rule="evenodd" clip-rule="evenodd" d="M12.001 2C11.678 2 11.3913 2.20676 11.2893 2.51321L9.09859 9.09734L2.51417 11.2884C2.20773 11.3903 2.00098 11.677 2.00098 12C2.00098 12.323 2.20773 12.6097 2.51418 12.7116L9.09855 14.9026L11.2893 21.4868C11.3913 21.7932 11.678 22 12.001 22C12.3239 22 12.6106 21.7933 12.7126 21.4868L14.9037 14.9024L21.4878 12.7116C21.7942 12.6097 22.001 12.323 22.001 12C22.001 11.677 21.7942 11.3903 21.4878 11.2884L14.9036 9.09755L12.7126 2.5132C12.6106 2.20675 12.3239 2 12.001 2ZM12.001 5.12548L13.5989 9.92744C13.6735 10.1517 13.8495 10.3277 14.0738 10.4023L18.8754 12L14.0738 13.5977C13.8495 13.6723 13.6736 13.8483 13.5989 14.0725L12.001 18.8745L10.4033 14.0727C10.3287 13.8485 10.1527 13.6725 9.92844 13.5979L5.12638 12L9.92848 10.4021C10.1527 10.3274 10.3287 10.1515 10.4033 9.9272L12.001 5.12548Z" fill="black"/>
<path fill-rule="evenodd" clip-rule="evenodd" d="M14.8752 9.14119C15.1684 9.43379 15.1689 9.90866 14.8763 10.2018L10.1971 14.8905C9.90453 15.1837 9.42966 15.1842 9.13647 14.8916C8.84328 14.599 8.8428 14.1241 9.13539 13.8309L13.8145 9.14227C14.1071 8.84908 14.582 8.84859 14.8752 9.14119Z" fill="black"/>
<path fill-rule="evenodd" clip-rule="evenodd" d="M9.13678 9.14119C8.84359 9.43379 8.84311 9.90866 9.13571 10.2018L13.8148 14.8905C14.1074 15.1837 14.5823 15.1842 14.8755 14.8916C15.1687 14.599 15.1692 14.1241 14.8766 13.8309L10.1974 9.14227C9.90485 8.84908 9.42997 8.84859 9.13678 9.14119Z" fill="black"/>
</svg>
