<svg width="24" height="24" viewBox="0 0 24 24" fill="none" xmlns="http://www.w3.org/2000/svg">
<path fill-rule="evenodd" clip-rule="evenodd" d="M11.7773 11.8907C12.0556 11.8907 12.311 12.0449 12.4408 12.2911L16.3587 19.7266C16.5518 20.0931 16.4113 20.5467 16.0448 20.7397C15.6784 20.9328 15.2248 20.7923 15.0317 20.4258L11.7773 14.2496L8.5228 20.4259C8.32971 20.7923 7.87611 20.9328 7.50965 20.7397C7.1432 20.5466 7.00267 20.093 7.19576 19.7266L11.1137 12.2911C11.2435 12.0449 11.4989 11.8907 11.7773 11.8907Z" fill="black"/>
<path fill-rule="evenodd" clip-rule="evenodd" d="M11.7773 11.8907C12.1916 11.8907 12.5273 12.2265 12.5273 12.6407V20.0468C12.5273 20.461 12.1916 20.7968 11.7773 20.7968C11.3631 20.7968 11.0273 20.461 11.0273 20.0468V12.6407C11.0273 12.2265 11.3631 11.8907 11.7773 11.8907Z" fill="black"/>
<path fill-rule="evenodd" clip-rule="evenodd" d="M19.769 4.87697C19.7108 4.71694 19.5338 4.63443 19.3738 4.69267L12.9694 7.02369C12.2601 7.28185 11.8944 8.06612 12.1525 8.77541L12.8898 10.801C13.148 11.5103 13.9322 11.876 14.6415 11.6179L21.0459 9.28686C21.206 9.22861 21.2885 9.05167 21.2302 8.89164L19.769 4.87697ZM18.8608 3.28313C19.7993 2.94155 20.837 3.42544 21.1785 4.36394L22.6398 8.37861C22.9813 9.31711 22.4975 10.3548 21.559 10.6964L15.1546 13.0274C13.6668 13.5689 12.0218 12.8018 11.4803 11.3141L10.743 9.28844C10.2015 7.80068 10.9686 6.15565 12.4563 5.61415L18.8608 3.28313Z" fill="black"/>
<path fill-rule="evenodd" clip-rule="evenodd" d="M11.7008 7.53446C11.8425 7.92369 11.6418 8.35408 11.2525 8.49575L7.18203 9.97729C6.47274 10.2354 6.10702 11.0197 6.36518 11.729L6.55805 12.2589C6.81621 12.9682 7.60049 13.3339 8.30978 13.0758L12.3803 11.5942C12.7695 11.4525 13.1999 11.6532 13.3416 12.0425C13.4832 12.4317 13.2825 12.8621 12.8933 13.0037L8.82281 14.4853C7.33505 15.0268 5.69001 14.2597 5.14852 12.7719L4.95565 12.242C4.41415 10.7543 5.18124 9.10925 6.669 8.56775L10.7395 7.08621C11.1287 6.94454 11.5591 7.14523 11.7008 7.53446Z" fill="black"/>
<path fill-rule="evenodd" clip-rule="evenodd" d="M6.10185 11.0035C6.24352 11.3927 6.04282 11.8231 5.65359 11.9647L2.95006 12.9487C2.79265 13.006 2.71149 13.1801 2.76878 13.3375C2.82607 13.4949 3.00012 13.5761 3.15753 13.5188L5.86106 12.5348C6.25029 12.3931 6.68068 12.5938 6.82235 12.983C6.96402 13.3722 6.76332 13.8026 6.37409 13.9443L3.67056 14.9283C2.73468 15.2689 1.69987 14.7864 1.35924 13.8505C1.01861 12.9146 1.50115 11.8798 2.43703 11.5392L5.14056 10.5552C5.52979 10.4135 5.96018 10.6142 6.10185 11.0035Z" fill="black"/>
</svg>
