<svg width="24" height="24" viewBox="0 0 24 24" fill="none" xmlns="http://www.w3.org/2000/svg">
<path d="M12 21.75C6.62 21.75 2.25 17.38 2.25 12C2.25 6.62 6.62 2.25 12 2.25C17.38 2.25 21.75 6.62 21.75 12C21.75 17.38 17.38 21.75 12 21.75ZM12 3.75C7.45 3.75 3.75 7.45 3.75 12C3.75 16.55 7.45 20.25 12 20.25C16.55 20.25 20.25 16.55 20.25 12C20.25 7.45 16.55 3.75 12 3.75Z" fill="black"/>
<path d="M6.75977 19.9502C6.34977 19.9502 6.00977 19.6102 6.00977 19.2002C6.00977 18.7902 6.34977 18.4502 6.75977 18.4502C9.82977 18.4502 10.9097 17.6302 12.1697 16.6902C12.9597 16.0902 13.8697 15.4102 15.2897 14.9302C17.9497 14.0202 20.3697 14.5102 20.4697 14.5302C20.8797 14.6102 21.1297 15.0102 21.0497 15.4202C20.9697 15.8302 20.5597 16.0902 20.1697 16.0002C20.1497 16.0002 18.0397 15.5802 15.7797 16.3502C14.5797 16.7602 13.8497 17.3102 13.0797 17.8902C11.7297 18.9002 10.3397 19.9502 6.76971 19.9502H6.75977Z" fill="black"/>
<path d="M3.64971 9.89002C3.41971 9.89002 3.18972 9.78002 3.03972 9.58002C2.79972 9.24002 2.8697 8.78 3.2097 8.53C6.1297 6.43 7.70974 6.58002 9.24974 6.74002C10.1597 6.83002 11.0197 6.91 12.2797 6.53C14.4497 5.87 15.1297 3.74 15.1397 3.72C15.2597 3.32 15.6797 3.10001 16.0797 3.23001C16.4797 3.35001 16.6998 3.77001 16.5698 4.17001C16.5298 4.29001 15.6297 7.08 12.7197 7.97C11.1797 8.44 10.0797 8.33002 9.10973 8.24002C7.67973 8.10002 6.54971 7.99001 4.08971 9.76001C3.95971 9.86001 3.79971 9.9 3.64971 9.9V9.89002Z" fill="black"/>
<path d="M3.82004 16.39C3.63004 16.39 3.43 16.31 3.28 16.17C2.99 15.88 2.99 15.4 3.28 15.11C3.37 15.02 5.55001 12.91 8.92001 12.07C10.72 11.62 12.11 11.73 13.34 11.82C15.34 11.97 17.06 12.1 20.35 9.99C20.7 9.77 21.16 9.86998 21.39 10.22C21.61 10.57 21.51 11.03 21.16 11.26C17.45 13.64 15.3 13.48 13.23 13.33C12 13.24 10.85 13.15 9.28 13.54C6.32 14.27 4.34999 16.17 4.32999 16.19C4.17999 16.33 3.99002 16.4 3.80002 16.4L3.82004 16.39Z" fill="black"/>
</svg>
