<svg width="24" height="24" viewBox="0 0 24 24" fill="none" xmlns="http://www.w3.org/2000/svg">
<path d="M9.60074 12.99L11.9997 7.498L14.3997 12.99L15.2727 14.99L17.1997 19.4C17.3647 19.776 17.7317 20 18.1167 20C18.2507 20 18.3867 19.973 18.5167 19.916C19.0227 19.695 19.2537 19.105 19.0327 18.599L16.8527 13.61C16.8507 13.603 16.8477 13.598 16.8447 13.591L12.9167 4.599C12.7577 4.235 12.3977 4 11.9997 4C11.6027 4 11.2427 4.235 11.0837 4.599L7.15574 13.591C7.15274 13.598 7.14974 13.603 7.14674 13.61L4.96774 18.599C4.74574 19.105 4.97774 19.695 5.48374 19.916C5.98974 20.139 6.57974 19.907 6.80074 19.4L8.72674 14.99L9.60074 12.99Z" fill="black"/>
<path opacity="0.4" d="M9.60075 12.9902H14.3997L15.2727 14.9902H8.72675L9.60075 12.9902Z" fill="black"/>
</svg>