<svg width="24" height="24" viewBox="0 0 24 24" fill="none" xmlns="http://www.w3.org/2000/svg">
<g opacity="0.4">
<path fill-rule="evenodd" clip-rule="evenodd" d="M8.946 21.9956C7.085 21.9956 5.339 21.2746 4.031 19.9666C2.723 18.6636 2.002 16.9236 2 15.0656C1.998 13.2046 2.718 11.4556 4.03 10.1416L5.179 9.00062C5.571 8.60962 6.204 8.61262 6.593 9.00462C6.983 9.39562 6.981 10.0296 6.59 10.4186L5.443 11.5576C4.511 12.4906 3.999 13.7366 4 15.0636C4.002 16.3866 4.514 17.6246 5.444 18.5516C6.376 19.4826 7.619 19.9956 8.946 19.9956C10.27 19.9956 11.512 19.4826 12.441 18.5526L13.591 17.4106C13.982 17.0196 14.615 17.0226 15.005 17.4146C15.394 17.8066 15.392 18.4396 15.001 18.8286L13.854 19.9686C12.55 21.2746 10.805 21.9956 8.946 21.9956Z" fill="black"/>
<path fill-rule="evenodd" clip-rule="evenodd" d="M18.1149 15.2999C17.8589 15.2999 17.6039 15.2019 17.4089 15.0079C17.0169 14.6179 17.0169 13.9849 17.4069 13.5939L18.5529 12.4449C19.4869 11.5139 19.9999 10.2739 19.9999 8.94891C19.9999 7.62391 19.4859 6.37991 18.5529 5.44691C16.6289 3.52091 13.4889 3.52091 11.5559 5.44791L10.4119 6.59591C10.0209 6.98791 9.38792 6.98691 8.99792 6.59791C8.60592 6.20791 8.60593 5.57391 8.99592 5.18391L10.1419 4.03391C12.8569 1.32691 17.2649 1.32791 19.9689 4.03291C21.2779 5.34491 21.9999 7.08991 21.9999 8.94891C21.9999 10.8089 21.2779 12.5519 19.9679 13.8589L18.8229 15.0059C18.6279 15.2019 18.3709 15.2999 18.1149 15.2999Z" fill="black"/>
</g>
<path fill-rule="evenodd" clip-rule="evenodd" d="M9.40406 15.6904C9.14806 15.6904 8.89206 15.5924 8.69706 15.3974C8.30606 15.0064 8.30606 14.3744 8.69706 13.9834L13.9281 8.75344C14.3191 8.36344 14.9521 8.36344 15.3421 8.75344C15.7331 9.14444 15.7331 9.77744 15.3421 10.1684L10.1111 15.3974C9.91606 15.5924 9.66006 15.6904 9.40406 15.6904Z" fill="black"/>
</svg>