<svg width="24" height="24" viewBox="0 0 24 24" fill="none" xmlns="http://www.w3.org/2000/svg">
<path opacity="0.4" fill-rule="evenodd" clip-rule="evenodd" d="M16.218 2.5H7.783C4.623 2.5 2.5 4.722 2.5 8.03V15.969C2.5 19.277 4.623 21.5 7.783 21.5H16.217C19.377 21.5 21.5 19.277 21.5 15.969V8.03C21.5 4.722 19.378 2.5 16.218 2.5Z" fill="black"/>
<path fill-rule="evenodd" clip-rule="evenodd" d="M13.9451 14.3235C14.2421 14.0365 14.7161 14.0395 15.0061 14.3375C15.2951 14.6335 15.2891 15.1075 14.9931 15.3975L12.5271 17.8035C12.4581 17.8725 12.3791 17.9245 12.2951 17.9595C12.2931 17.9605 12.2921 17.9615 12.2901 17.9625H12.2881C12.2041 17.9975 12.1111 18.0175 12.0141 18.0195H11.9871C11.8931 18.0175 11.8031 17.9995 11.7201 17.9665L11.7071 17.9605C11.6231 17.9255 11.5431 17.8725 11.4741 17.8035L9.00805 15.3975C8.71105 15.1075 8.70505 14.6335 8.99505 14.3375C9.28505 14.0395 9.75905 14.0365 10.0551 14.3235L11.2501 15.4895V8.51147L10.0551 9.67747C9.75905 9.96547 9.28505 9.96247 8.99505 9.66347C8.70505 9.36747 8.71105 8.89247 9.00805 8.60247L11.4741 6.19647C11.5431 6.12847 11.6211 6.07647 11.7051 6.04147C11.7071 6.04047 11.7101 6.03847 11.7101 6.03847H11.7111C11.7961 6.00347 11.8891 5.98247 11.9871 5.98047H12.0141C12.1081 5.98247 12.1971 6.00147 12.2801 6.03447L12.2931 6.04047C12.3781 6.07547 12.4571 6.12847 12.5271 6.19647L14.9931 8.60247C15.2891 8.89247 15.2951 9.36747 15.0061 9.66347C14.7161 9.96247 14.2421 9.96547 13.9451 9.67747L12.7501 8.51147V15.4895L13.9451 14.3235Z" fill="black"/>
</svg>