<svg width="24" height="24" viewBox="0 0 24 24" fill="none" xmlns="http://www.w3.org/2000/svg">
<path opacity="0.4" fill-rule="evenodd" clip-rule="evenodd" d="M17.583 5.07031H6.416C4.074 5.07031 2.5 6.71431 2.5 9.16031V14.8403C2.5 17.2863 4.074 18.9303 6.417 18.9303H17.583C19.926 18.9303 21.5 17.2863 21.5 14.8403V9.16031C21.5 6.71431 19.926 5.07031 17.583 5.07031Z" fill="black"/>
<path fill-rule="evenodd" clip-rule="evenodd" d="M18.288 13.4213C18.288 14.7752 17.38 15.7212 16.079 15.7212H13.064C11.763 15.7212 10.854 14.7752 10.854 13.4213V10.5813C10.854 9.22725 11.763 8.28125 13.064 8.28125H16.079C17.38 8.28125 18.288 9.22725 18.288 10.5813V13.4213Z" fill="black"/>
</svg>