<svg width="24" height="24" viewBox="0 0 24 24" fill="none" xmlns="http://www.w3.org/2000/svg">
<path opacity="0.4" fill-rule="evenodd" clip-rule="evenodd" d="M16.218 2.5H7.783C4.623 2.5 2.5 4.723 2.5 8.031V15.97C2.5 19.278 4.623 21.5 7.783 21.5H16.217C19.377 21.5 21.5 19.278 21.5 15.97V8.031C21.5 4.723 19.377 2.5 16.218 2.5Z" fill="black"/>
<path fill-rule="evenodd" clip-rule="evenodd" d="M16.907 16.9703C17.021 16.9703 17.138 16.9443 17.247 16.8883C17.616 16.7003 17.763 16.2483 17.574 15.8792L15.124 11.0793C14.868 10.5773 14.044 10.5773 13.788 11.0793L11.339 15.8792C11.15 16.2483 11.297 16.7003 11.666 16.8883C12.033 17.0753 12.487 16.9303 12.675 16.5613L13.012 15.8993C13.517 16.0382 13.971 16.0713 14.627 16.0713C15.029 16.0713 15.472 15.9663 15.882 15.8623L16.238 16.5613C16.371 16.8212 16.634 16.9703 16.907 16.9703ZM9.99402 14.1252C10.087 14.2162 10.18 14.3073 10.272 14.3872C10.414 14.5103 10.589 14.5712 10.763 14.5712C10.973 14.5712 11.182 14.4832 11.33 14.3123C11.601 13.9993 11.567 13.5262 11.254 13.2542C11.2369 13.2392 11.2187 13.2196 11.2004 13.1999C11.1834 13.1816 11.1664 13.1632 11.15 13.1483C11.815 12.4543 12.268 11.7242 12.559 11.0852C12.795 10.5662 12.994 9.93525 13.095 9.39025H14.042C14.456 9.39025 14.792 9.05425 14.792 8.64025C14.792 8.22625 14.456 7.89025 14.042 7.89025H12.403H12.396H11.139V7.78125C11.139 7.36725 10.803 7.03125 10.389 7.03125C9.97502 7.03125 9.63902 7.36725 9.63902 7.78125V7.89025H7.09302C6.67902 7.89025 6.34302 8.22625 6.34302 8.64025C6.34302 9.05425 6.67902 9.39025 7.09302 9.39025H11.557C11.403 10.0363 11.037 11.0402 10.196 11.9742C9.90102 11.4832 9.67302 10.9502 9.53802 10.3942C9.44002 9.99225 9.03502 9.74325 8.63202 9.84225C8.22902 9.94025 7.98202 10.3453 8.08002 10.7472C8.27002 11.5323 8.59702 12.2843 9.04002 12.9662C8.52502 13.3073 7.91202 13.6073 7.17502 13.8323C6.77902 13.9532 6.55602 14.3733 6.67702 14.7692C6.77502 15.0922 7.07302 15.3003 7.39302 15.3003C7.46602 15.3003 7.54002 15.2893 7.61302 15.2683C8.56602 14.9773 9.34102 14.5752 9.99402 14.1252ZM14.6269 14.5696C14.2389 14.5696 13.9649 14.5606 13.7149 14.5216L14.4559 13.0686L15.1809 14.4886C14.9729 14.5346 14.7739 14.5696 14.6269 14.5696Z" fill="black"/>
</svg>