<svg width="24" height="24" viewBox="0 0 24 24" fill="none" xmlns="http://www.w3.org/2000/svg">
<path fill-rule="evenodd" clip-rule="evenodd" d="M13.3539 9.00826C13.2308 9.20821 13.3753 9.46466 13.6101 9.46466H20.8967C21.1068 9.46466 21.2535 9.25246 21.148 9.07074C21.1248 9.03078 21.1002 8.99138 21.0739 8.95266L18.1309 4.63466C17.8224 4.17814 17.375 3.849 16.8665 3.68215C16.7436 3.64183 16.6129 3.69705 16.5454 3.80733C16.0989 4.53595 14.4247 7.26756 13.3539 9.00826Z" fill="black"/>
<path fill-rule="evenodd" clip-rule="evenodd" d="M11.144 9.46469C11.2482 9.46469 11.3449 9.41068 11.3995 9.32201L14.6699 4.01201C14.793 3.81214 14.6492 3.55469 14.4145 3.55469H7.9106C7.0946 3.55469 6.3346 3.95869 5.8786 4.63269L2.9276 8.95269C2.90148 8.99116 2.877 9.03025 2.85393 9.06986C2.74803 9.25177 2.89475 9.46469 3.10524 9.46469H11.144Z" fill="black"/>
<path fill-rule="evenodd" clip-rule="evenodd" d="M10.1356 10.9647C9.93252 10.9647 9.78812 11.1622 9.84967 11.3557L12.6776 20.2455C12.7304 20.4115 12.9144 20.4994 13.0651 20.4121C13.245 20.308 13.4099 20.1776 13.5523 20.0207L20.8583 11.9917C21.041 11.7918 21.1835 11.5684 21.2874 11.3319C21.3664 11.1518 21.2228 10.9647 21.026 10.9647H10.1356Z" fill="black"/>
<path fill-rule="evenodd" clip-rule="evenodd" d="M8.21734 11.1738C8.17773 11.0493 8.0621 10.9647 7.93146 10.9647H2.97411C2.77706 10.9647 2.63329 11.1524 2.71268 11.3327C2.81647 11.5685 2.95841 11.7911 3.14083 11.9907L10.4468 20.0207C10.5097 20.0902 10.577 20.1546 10.6481 20.2138C10.844 20.3772 11.0806 20.1732 11.0033 19.9301L8.21734 11.1738Z" fill="black"/>
</svg>