<svg width="24" height="24" viewBox="0 0 24 24" fill="none" xmlns="http://www.w3.org/2000/svg">
<path fill-rule="evenodd" clip-rule="evenodd" d="M19.6096 14.7833C19.6096 14.8008 19.605 14.818 19.5963 14.8332L16.5075 20.1989C16.4896 20.2299 16.4566 20.249 16.4208 20.249H14.9206C14.8437 20.249 14.7955 20.1658 14.8339 20.0991L19.423 12.1273C19.474 12.0385 19.6096 12.0748 19.6096 12.1772V14.7833ZM9.99158 20.249C9.91465 20.249 9.86653 20.1658 9.90491 20.0991L16.9002 7.94712C16.9184 7.91558 16.9522 7.89627 16.9886 7.89753C17.5035 7.91532 17.9545 8.04812 18.3321 8.28052C18.3769 8.30807 18.3903 8.36636 18.364 8.41192L11.5795 20.1989C11.5616 20.2299 11.5286 20.249 11.4928 20.249H9.99158ZM6.66492 20.1444C6.64426 20.1803 6.60356 20.1999 6.56283 20.1925C6.07967 20.1048 5.6681 19.9015 5.33405 19.6013C5.29983 19.5705 5.29276 19.52 5.31572 19.4801L11.9598 7.9421C11.9776 7.9111 12.0107 7.892 12.0464 7.892H13.5467C13.6236 7.892 13.6717 7.97523 13.6333 8.0419L6.66492 20.1444ZM4.39062 12.5427C4.39062 12.5252 4.39522 12.508 4.40395 12.4928L7.01996 7.94609C7.03717 7.91618 7.06858 7.89722 7.10307 7.89615C7.52979 7.88283 7.95845 7.891 8.38562 7.891C8.38862 7.891 8.39163 7.892 8.39463 7.892H8.6097C8.68662 7.892 8.73474 7.97521 8.69637 8.04188L4.5773 15.1996C4.52623 15.2884 4.39062 15.2521 4.39062 15.1497V12.5427ZM8.39463 3.75C9.84363 3.75 10.6396 5.343 11.0056 6.391H8.39062C7.70262 6.388 7.14463 5.797 7.14463 5.071C7.14463 4.342 7.70563 3.75 8.39463 3.75ZM15.6016 3.75C16.2916 3.75 16.8516 4.342 16.8516 5.071C16.8516 5.797 16.2936 6.388 15.6066 6.391H12.9906C13.3576 5.343 14.1526 3.75 15.6016 3.75ZM17.9456 6.525C18.1986 6.099 18.3516 5.605 18.3516 5.071C18.3516 3.516 17.1186 2.25 15.6016 2.25C13.7436 2.25 12.6326 3.623 11.9986 4.894C11.3646 3.623 10.2526 2.25 8.39463 2.25C6.87863 2.25 5.64462 3.516 5.64462 5.071C5.64462 5.605 5.79863 6.1 6.05163 6.527C4.12762 6.983 2.89062 8.663 2.89062 11.01V17.128C2.89062 19.892 4.59262 21.749 7.12762 21.749H16.8736C19.3676 21.749 21.1096 19.849 21.1096 17.128V11.01C21.1096 8.661 19.8716 6.98 17.9456 6.525Z" fill="black"/>
</svg>