<svg width="24" height="24" viewBox="0 0 24 24" fill="none" xmlns="http://www.w3.org/2000/svg">
<path fill-rule="evenodd" clip-rule="evenodd" d="M8.39267 3.875C9.84167 3.875 10.6377 5.468 11.0037 6.515H8.39267C7.70267 6.515 7.14167 5.923 7.14167 5.195C7.14167 4.467 7.70267 3.875 8.39267 3.875ZM15.5987 3.875C16.2887 3.875 16.8497 4.467 16.8497 5.195C16.8497 5.923 16.2887 6.515 15.5987 6.515H12.9877C13.3537 5.468 14.1497 3.875 15.5987 3.875ZM17.8007 6.868C18.1407 6.399 18.3497 5.823 18.3497 5.195C18.3497 3.64 17.1157 2.375 15.5987 2.375C13.7407 2.375 12.6297 3.748 11.9957 5.019C11.3617 3.748 10.2507 2.375 8.39267 2.375C6.87567 2.375 5.64167 3.64 5.64167 5.195C5.64167 5.824 5.84967 6.399 6.19067 6.869C4.15659 7.30824 3.20314 9.15423 3.14184 11.085C3.13833 11.1954 3.22821 11.285 3.33867 11.285H9.18567V8.215C9.18567 8.10454 9.27521 8.015 9.38567 8.015H10.4857C10.5961 8.015 10.6857 8.10454 10.6857 8.215V12.947L11.7597 12.593C11.8377 12.567 11.9137 12.541 11.9957 12.555H11.9987C12.0497 12.544 12.1567 12.566 12.2357 12.592L13.3127 12.942L13.304 8.21537C13.3038 8.10477 13.3934 8.015 13.504 8.015H14.604C14.7143 8.015 14.8038 8.10436 14.804 8.21469L14.8087 11.285H20.6617C20.7721 11.285 20.862 11.1954 20.8585 11.085C20.7969 9.15051 19.8376 7.30666 17.8007 6.868Z" fill="black"/>
<path fill-rule="evenodd" clip-rule="evenodd" d="M14.8126 13.975C14.8126 14.215 14.6976 14.441 14.5036 14.582C14.3086 14.724 14.0566 14.762 13.8306 14.688L12.7456 14.335V21.425C12.7456 21.5355 12.8351 21.625 12.9456 21.625H16.8676C19.2566 21.625 20.8616 19.869 20.8616 17.255V12.985C20.8616 12.8746 20.772 12.785 20.6616 12.785H14.8106L14.8126 13.975Z" fill="black"/>
<path fill-rule="evenodd" clip-rule="evenodd" d="M9.93518 14.7349C9.77918 14.7349 9.62518 14.6859 9.49618 14.5929C9.30018 14.4519 9.18518 14.2259 9.18518 13.9849V12.7849H3.33818C3.22773 12.7849 3.13818 12.8745 3.13818 12.9849V17.2549C3.13818 19.8689 4.73918 21.6249 7.12218 21.6249H11.0462C11.1566 21.6249 11.2462 21.5354 11.2462 21.4249V14.3419L10.1702 14.6969C10.0932 14.7229 10.0142 14.7349 9.93518 14.7349Z" fill="black"/>
</svg>