<svg width="24" height="24" viewBox="0 0 24 24" fill="none" xmlns="http://www.w3.org/2000/svg">
<path fill-rule="evenodd" clip-rule="evenodd" d="M17.8159 6.86361C19.6705 7.2675 20.8591 8.88282 20.8591 11.1351V17.2551C20.8591 19.8691 19.2581 21.6251 16.8731 21.6251H7.12711C4.74211 21.6251 3.14111 19.8691 3.14111 17.2551V11.1351C3.14111 8.88563 4.3275 7.27152 6.17833 6.86513C5.84176 6.39731 5.6427 5.81955 5.6427 5.195C5.6427 3.64 6.8767 2.375 8.3947 2.375C10.2485 2.375 11.3628 3.74251 11.9974 5.0107C12.632 3.74265 13.746 2.37506 15.5993 2.37506C17.1163 2.37506 18.3503 3.64006 18.3503 5.19506C18.3503 5.81891 18.1517 6.39608 17.8159 6.86361ZM7.1427 5.195C7.1427 4.467 7.7047 3.875 8.3947 3.875C9.8437 3.875 10.6397 5.468 11.0057 6.515H8.3947C7.7047 6.515 7.1427 5.923 7.1427 5.195ZM15.5993 6.51506H12.9883C13.3553 5.46806 14.1513 3.87506 15.5993 3.87506C16.2893 3.87506 16.8503 4.46706 16.8503 5.19506C16.8503 5.92306 16.2893 6.51506 15.5993 6.51506ZM12.0002 17.415C11.5862 17.415 11.2502 17.079 11.2502 16.665V14.855H9.43347C9.01947 14.855 8.68347 14.519 8.68347 14.105C8.68347 13.691 9.01947 13.355 9.43347 13.355H11.2502V11.535C11.2502 11.121 11.5862 10.785 12.0002 10.785C12.4142 10.785 12.7502 11.121 12.7502 11.535V13.355H14.5675C14.9815 13.355 15.3175 13.691 15.3175 14.105C15.3175 14.519 14.9815 14.855 14.5675 14.855H12.7502V16.665C12.7502 17.079 12.4142 17.415 12.0002 17.415Z" fill="black"/>
</svg>