<svg width="25" height="24" viewBox="0 0 25 24" fill="none" xmlns="http://www.w3.org/2000/svg">
<path fill-rule="evenodd" clip-rule="evenodd" d="M5.698 21H8.302C9.516 21 10.5 20.016 10.5 18.802V5.198C10.5 3.984 9.516 3 8.302 3H5.698C4.484 3 3.5 3.984 3.5 5.198V18.802C3.5 20.016 4.484 21 5.698 21Z" stroke="black" stroke-width="1.5" stroke-linecap="round" stroke-linejoin="round"/>
<path opacity="0.4" fill-rule="evenodd" clip-rule="evenodd" d="M16.698 17.5H19.302C20.516 17.5 21.5 16.516 21.5 15.302V8.698C21.5 7.484 20.516 6.5 19.302 6.5H16.698C15.484 6.5 14.5 7.484 14.5 8.698V15.302C14.5 16.516 15.484 17.5 16.698 17.5Z" stroke="black" stroke-width="1.5" stroke-linecap="round" stroke-linejoin="round"/>
</svg>