<svg width="25" height="24" viewBox="0 0 25 24" fill="none" xmlns="http://www.w3.org/2000/svg">
<path opacity="0.4" fill-rule="evenodd" clip-rule="evenodd" d="M8.16228 10.3198H5.63405C4.45537 10.3198 3.5 9.3644 3.5 8.18572V5.65748C3.5 4.47881 4.45537 3.52344 5.63405 3.52344H8.16228C9.34096 3.52344 10.2963 4.47881 10.2963 5.65748V8.18572C10.2963 9.3644 9.34096 10.3198 8.16228 10.3198Z" stroke="black" stroke-width="1.5" stroke-linecap="round" stroke-linejoin="round"/>
<path fill-rule="evenodd" clip-rule="evenodd" d="M16.0685 10.2182L14.281 8.43075C13.448 7.59772 13.448 6.24622 14.281 5.41221L16.0685 3.62478C16.9015 2.79174 18.253 2.79174 19.087 3.62478L20.8744 5.41221C21.7075 6.24622 21.7075 7.59772 20.8744 8.43075L19.087 10.2182C18.253 11.0522 16.9015 11.0522 16.0685 10.2182Z" stroke="black" stroke-width="1.5" stroke-linecap="round" stroke-linejoin="round"/>
<path opacity="0.4" fill-rule="evenodd" clip-rule="evenodd" d="M18.842 20.9995H16.3137C15.1351 20.9995 14.1797 20.0441 14.1797 18.8654V16.3372C14.1797 15.1585 15.1351 14.2031 16.3137 14.2031H18.842C20.0206 14.2031 20.976 15.1585 20.976 16.3372V18.8654C20.976 20.0441 20.0206 20.9995 18.842 20.9995Z" stroke="black" stroke-width="1.5" stroke-linecap="round" stroke-linejoin="round"/>
<path fill-rule="evenodd" clip-rule="evenodd" d="M8.16228 20.9995H5.63405C4.45537 20.9995 3.5 20.0441 3.5 18.8654V16.3372C3.5 15.1585 4.45537 14.2031 5.63405 14.2031H8.16228C9.34096 14.2031 10.2963 15.1585 10.2963 16.3372V18.8654C10.2963 20.0441 9.34096 20.9995 8.16228 20.9995Z" stroke="black" stroke-width="1.5" stroke-linecap="round" stroke-linejoin="round"/>
</svg>