<svg width="25" height="24" viewBox="0 0 25 24" fill="none" xmlns="http://www.w3.org/2000/svg">
<path opacity="0.4" fill-rule="evenodd" clip-rule="evenodd" d="M16.716 2.5H8.282C5.122 2.5 3 4.723 3 8.031V15.97C3 19.278 5.122 21.5 8.282 21.5H16.715C19.876 21.5 22 19.278 22 15.97V8.031C22 4.723 19.877 2.5 16.716 2.5Z" fill="black"/>
<path fill-rule="evenodd" clip-rule="evenodd" d="M17.0889 12.2842L13.6159 16.0962C13.3289 16.4092 12.9219 16.5882 12.4989 16.5882H12.4969C12.0729 16.5872 11.6669 16.4082 11.3819 16.0962L7.90993 12.2862L7.90793 12.2842C7.38393 11.7052 7.32393 10.8482 7.76293 10.2002L9.16793 8.14716C9.48893 7.68416 10.0069 7.41016 10.5559 7.41016H14.4449C14.9969 7.41016 15.5149 7.68416 15.8319 8.14316L17.2329 10.1982C17.6729 10.8482 17.6129 11.7052 17.0889 12.2842ZM14.4457 8.91068C14.5017 8.91068 14.5617 8.94468 14.5957 8.99268L15.9917 11.0407C16.0407 11.1137 16.0347 11.2137 15.9787 11.2757L12.4907 15.0847L9.0197 11.2767C8.9627 11.2127 8.9557 11.1137 9.0037 11.0437L10.4027 8.99868C10.4387 8.94568 10.5007 8.91068 10.5557 8.91068H14.4457Z" fill="black"/>
</svg>