<svg width="25" height="24" viewBox="0 0 25 24" fill="none" xmlns="http://www.w3.org/2000/svg">
<path opacity="0.4" fill-rule="evenodd" clip-rule="evenodd" d="M21.3601 11.1591V17.2791C21.3601 19.8891 19.7601 21.6491 17.3701 21.6491H7.63014C5.24014 21.6491 3.64014 19.8891 3.64014 17.2791V11.1591C3.64014 8.53906 5.24014 6.78906 7.63014 6.78906H17.3701C19.7601 6.78906 21.3601 8.53906 21.3601 11.1591Z" fill="black"/>
<path fill-rule="evenodd" clip-rule="evenodd" d="M3.64014 17.1392H21.3601V15.6392H3.64014V17.1392Z" fill="black"/>
<path fill-rule="evenodd" clip-rule="evenodd" d="M8.89613 3.85156C10.3441 3.85156 11.1401 5.44456 11.5061 6.49156H8.89613C8.20613 6.49156 7.64413 5.89856 7.64413 5.17156C7.64413 4.44356 8.20613 3.85156 8.89613 3.85156ZM16.1011 3.85156C16.7911 3.85156 17.3521 4.44356 17.3521 5.17156C17.3521 5.89856 16.7911 6.49156 16.1011 6.49156H13.4901C13.8561 5.44456 14.6521 3.85156 16.1011 3.85156ZM8.89613 7.99156H11.1991L9.62813 10.6006C9.41513 10.9556 9.52913 11.4156 9.88413 11.6296C10.0051 11.7026 10.1391 11.7376 10.2711 11.7376C10.5251 11.7376 10.7731 11.6076 10.9141 11.3736L12.4981 8.74156L14.0831 11.3736C14.2231 11.6076 14.4711 11.7376 14.7261 11.7376C14.8571 11.7376 14.9911 11.7026 15.1121 11.6296C15.4671 11.4156 15.5811 10.9556 15.3681 10.6006L13.7971 7.99156H16.1011C17.6181 7.99156 18.8521 6.72656 18.8521 5.17156C18.8521 3.61656 17.6181 2.35156 16.1011 2.35156C14.2471 2.35156 13.1331 3.72056 12.4981 4.98856C11.8641 3.72056 10.7501 2.35156 8.89613 2.35156C7.37813 2.35156 6.14413 3.61656 6.14413 5.17156C6.14413 6.72656 7.37813 7.99156 8.89613 7.99156Z" fill="black"/>
</svg>