<svg width="25" height="24" viewBox="0 0 25 24" fill="none" xmlns="http://www.w3.org/2000/svg">
<path opacity="0.4" fill-rule="evenodd" clip-rule="evenodd" d="M22 8.03V15.97C22 19.27 19.88 21.5 16.72 21.5H8.28C5.12 21.5 3 19.27 3 15.97V8.03C3 4.72 5.12 2.5 8.28 2.5H16.72C19.88 2.5 22 4.72 22 8.03Z" fill="black"/>
<path fill-rule="evenodd" clip-rule="evenodd" d="M13.25 11.2C13.29 9.44 14.48 8.03 15.94 8.03C16.35 8.03 16.68 8.35 16.68 8.76C16.68 9.95 15.17 10.99 13.25 11.2ZM8.32 8.76C8.32 8.35 8.65 8.03 9.06 8.03C10.51 8.03 11.71 9.44 11.75 11.2C9.83 10.99 8.32 9.95 8.32 8.76ZM22 11.25H16.96C17.72 10.57 18.18 9.71 18.18 8.76C18.18 7.53 17.17 6.53 15.94 6.53C14.92 6.53 13.98 6.95 13.25 7.65V2.5H11.75V7.65C11.02 6.95 10.08 6.53 9.06 6.53C7.83 6.53 6.82 7.53 6.82 8.76C6.82 9.71 7.28 10.57 8.04 11.25H3V12.75H10.21C9.13 13.7 8.43 14.72 8.12 15.81C8.01 16.21 8.24 16.62 8.64 16.74C8.71 16.76 8.78 16.77 8.84 16.77C9.17 16.77 9.47 16.55 9.57 16.22C9.84 15.24 10.57 14.32 11.75 13.42V21.5H13.25V13.54C14.27 14.42 15.01 15.34 15.48 16.34C15.65 16.71 16.1 16.87 16.47 16.7C16.85 16.52 17.01 16.07 16.83 15.7C16.34 14.64 15.58 13.67 14.6 12.75H22V11.25Z" fill="black"/>
</svg>