<svg width="25" height="24" viewBox="0 0 25 24" fill="none" xmlns="http://www.w3.org/2000/svg">
<path opacity="0.4" fill-rule="evenodd" clip-rule="evenodd" d="M21.3601 11.1356V17.2556C21.3601 19.8756 19.7601 21.6256 17.3701 21.6256H7.62014C5.24014 21.6256 3.64014 19.8756 3.64014 17.2556V11.1356C3.64014 8.88562 4.82014 7.27562 6.68014 6.86563C6.98014 6.79563 7.30014 6.76562 7.63014 6.76562H17.3701C17.7001 6.76562 18.0101 6.79563 18.3101 6.86563C20.1701 7.26562 21.3601 8.88562 21.3601 11.1356Z" fill="black"/>
<path fill-rule="evenodd" clip-rule="evenodd" d="M16.1051 8.01501H8.89508C7.99506 8.01501 7.18506 7.565 6.68506 6.86499C6.34509 6.40503 6.14508 5.82501 6.14508 5.19501C6.14508 3.64502 7.38507 2.375 8.89508 2.375C10.7551 2.375 11.8651 3.745 12.5051 5.01501C13.1351 3.745 14.2451 2.375 16.1051 2.375C17.6251 2.375 18.8551 3.64502 18.8551 5.19501C18.8551 5.82501 18.6551 6.40503 18.3151 6.86499C17.8151 7.565 17.0151 8.01501 16.1051 8.01501ZM11.5051 6.51501C11.1451 5.47498 10.3451 3.875 8.89508 3.875C8.20508 3.875 7.64508 4.46503 7.64508 5.19501C7.64508 5.92499 8.20508 6.51501 8.89508 6.51501H11.5051ZM17.3551 5.19501C17.3551 4.46503 16.7951 3.875 16.1051 3.875C14.6751 3.875 13.8651 5.47498 13.4951 6.51501H16.1051C16.7951 6.51501 17.3551 5.92499 17.3551 5.19501Z" fill="black"/>
<path d="M11.7288 9.2152C11.7288 9.10474 11.8184 9.0152 11.9288 9.0152C12.0699 9.0152 12.2736 9.0152 12.5001 9.0152C12.7266 9.0152 12.9303 9.0152 13.0714 9.0152C13.1818 9.0152 13.2714 9.10474 13.2714 9.2152V13.1006H21.36V14.6431H13.2714V21.6251H11.7288V14.6431H3.64014V13.1006H11.7288V9.2152Z" fill="black"/>
</svg>