<svg width="25" height="24" viewBox="0 0 25 24" fill="none" xmlns="http://www.w3.org/2000/svg">
<circle cx="12.5" cy="4.7998" r="1.81934" fill="black"/>
<path opacity="0.4" d="M4.77559 7.42605C4.41958 7.13705 3.93458 7.10005 3.53758 7.33405C3.14158 7.56705 2.93759 8.00905 3.01759 8.46105C3.29782 10.058 4.08279 13.9659 4.48325 15.9497L4.70703 17.0225L20.2966 17.0131L20.3162 16.9165L20.3163 16.9164C20.5513 15.7618 21.6423 10.4027 21.9826 8.46105C22.0626 8.00905 21.8586 7.56705 21.4636 7.33405C21.0666 7.10005 20.5816 7.13705 20.2246 7.42605L20.0663 7.55438L20.0651 7.5553C18.7938 8.58579 17.3614 9.74681 16.6906 10.2881L13.3146 6.49305C13.3038 6.48063 13.2903 6.47287 13.2768 6.46505C13.2703 6.46127 13.2637 6.45747 13.2574 6.45312C13.0268 6.55881 12.7703 6.61772 12.5001 6.61772C12.2301 6.61772 11.9738 6.55889 11.7434 6.45335C11.737 6.45763 11.7304 6.46137 11.7238 6.46511C11.71 6.47291 11.6964 6.48065 11.6856 6.49305L8.30959 10.2881C7.83141 9.90167 6.96463 9.19944 6.04492 8.45432L4.77559 7.42605Z" fill="black"/>
<path d="M4.43703 17.9017L4.17853 18.7556C4.01553 19.2916 4.11353 19.8576 4.44753 20.3086C4.78053 20.7586 5.29353 21.0176 5.85353 21.0176H19.1465C19.7065 21.0176 20.2195 20.7586 20.5535 20.3086C20.8875 19.8586 20.9855 19.2926 20.8225 18.7566L20.2965 17.0126L4.70698 17.022L4.43703 17.9017Z" fill="black"/>
</svg>