<svg width="25" height="24" viewBox="0 0 25 24" fill="none" xmlns="http://www.w3.org/2000/svg">
<path opacity="0.4" fill-rule="evenodd" clip-rule="evenodd" d="M19.0881 15.0942C19.0881 18.6942 16.1581 21.6242 12.5681 21.6242C8.96809 21.6242 6.03809 18.6942 6.03809 15.0942C6.03809 12.8842 7.13809 10.9342 8.82809 9.75422C9.23809 9.46422 9.67809 9.22422 10.1481 9.04422C10.7181 8.80422 11.3381 8.65422 11.9781 8.60422C12.1781 8.58422 12.3681 8.57422 12.5681 8.57422C12.9681 8.57422 13.3681 8.61422 13.7481 8.68422C14.2381 8.77422 14.7081 8.91422 15.1581 9.11422C15.6281 9.31422 16.0581 9.56422 16.4581 9.87422C18.0481 11.0542 19.0881 12.9542 19.0881 15.0942Z" fill="black"/>
<path fill-rule="evenodd" clip-rule="evenodd" d="M19.2682 4.275L16.4582 9.875C16.0582 9.565 15.6282 9.315 15.1582 9.115L17.7882 3.875H15.7982L13.5582 8.345L13.7482 8.685C13.3682 8.615 12.9682 8.575 12.5682 8.575C12.3682 8.575 12.1782 8.585 11.9782 8.605L9.35818 3.885H7.22818L10.1482 9.045C9.67818 9.225 9.23818 9.465 8.82818 9.755L5.75818 4.335C5.52818 3.925 5.52818 3.435 5.76818 3.035C6.00818 2.625 6.42818 2.385 6.89818 2.385H9.46818C9.94818 2.385 10.3882 2.645 10.6182 3.055L12.6682 6.765L14.5182 3.095C14.7482 2.645 15.1882 2.375 15.6882 2.375H18.1082C18.5582 2.375 18.9782 2.615 19.2182 3.005C19.4582 3.385 19.4782 3.865 19.2682 4.275Z" fill="black"/>
</svg>