<svg width="24" height="24" viewBox="0 0 24 24" fill="none" xmlns="http://www.w3.org/2000/svg">
<path d="M18.5662 13.508L20.7292 11.4299C20.8732 11.2909 20.9661 11.1067 20.9924 10.9085C21.056 10.4237 20.7153 9.97837 20.2305 9.91473L17.2397 9.48405C16.948 9.4431 16.6942 9.26175 16.5619 8.99851L15.2252 6.32733C15.1389 6.16062 15.0036 6.02534 14.8376 5.93979C14.3931 5.70945 13.8461 5.88275 13.6158 6.32733L12.2769 8.99924C12.1438 9.26248 11.8901 9.44383 11.5983 9.48478L8.60757 9.91546C8.40868 9.94181 8.22441 10.0347 8.08548 10.1787C7.74619 10.5312 7.75716 11.0913 8.10888 11.4306L10.274 13.5087C10.4861 13.7113 10.5834 14.006 10.5329 14.2948L10.021 17.2292C9.98959 17.4223 10.0225 17.6197 10.1139 17.793C10.3464 18.231 10.8897 18.3977 11.3277 18.1651L14.0011 16.7795C14.2644 16.6435 14.5766 16.6435 14.8398 16.7795L17.5118 18.1645C17.6843 18.2559 17.8818 18.2888 18.0748 18.2581C18.5647 18.1791 18.8982 17.7184 18.8192 17.2285" stroke="black" stroke-width="1.5" stroke-linecap="round" stroke-linejoin="round"/>
<path d="M4.9873 16.1374C5.92824 15.7749 6.94473 15.5476 7.92582 15.6227" stroke="black" stroke-width="1.5" stroke-linecap="round" stroke-linejoin="round"/>
<path d="M3.00098 12.5477C3.68657 12.2359 4.43111 11.9792 5.18502 11.8506" stroke="black" stroke-width="1.5" stroke-linecap="round" stroke-linejoin="round"/>
<path d="M4.30957 8.03161C5.96326 7.03076 7.90599 6.43212 9.92965 6.48797" stroke="black" stroke-width="1.5" stroke-linecap="round" stroke-linejoin="round"/>
</svg>