<svg width="24" height="24" viewBox="0 0 24 24" fill="none" xmlns="http://www.w3.org/2000/svg">
<path d="M7.66436 20.3034C7.71893 20.4824 7.83062 20.639 7.98103 20.75C8.36546 21.0293 8.90255 20.9451 9.1828 20.5617L10.9037 18.2471C11.073 18.0202 11.3419 17.8887 11.6254 17.8957L14.5069 17.9676C14.6941 17.9734 14.8772 17.9189 15.031 17.8112C15.419 17.5382 15.5132 17.0011 15.2402 16.6128L13.5686 14.301C13.4035 14.074 13.3636 13.7787 13.4617 13.515L14.4523 10.8193C14.5181 10.6388 14.5215 10.4418 14.4605 10.2592C14.3125 9.81516 13.832 9.57546 13.3879 9.72312L10.6322 10.6078C10.3635 10.6943 10.07 10.6443 9.8451 10.473L7.57365 8.73383C7.4301 8.6274 7.25585 8.56733 7.07807 8.56276C6.59804 8.55126 6.19952 8.92927 6.18737 9.40909L6.15552 12.2715C6.15162 12.5532 6.00958 12.816 5.77528 12.9738L3.38029 14.5991C3.22043 14.7048 3.10099 14.8621 3.04136 15.0444C2.89737 15.4897 3.1413 15.9681 3.58738 16.1123L6.3228 16.9933" stroke="black" stroke-width="1.5" stroke-linecap="round" stroke-linejoin="round"/>
<path d="M14.6194 3.08496L13.2053 4.49912M11.3076 6.39729L10.7285 6.97636" stroke="black" stroke-width="1.5" stroke-linecap="round" stroke-linejoin="round"/>
<path d="M18.0854 5.87793L16.7793 7.18443" stroke="black" stroke-width="1.5" stroke-linecap="round" stroke-linejoin="round"/>
<path d="M20.9995 9.14746L20.2471 9.89982M18.5279 11.6189L16.6914 13.4554" stroke="black" stroke-width="1.5" stroke-linecap="round" stroke-linejoin="round"/>
</svg>