<svg width="24" height="24" viewBox="0 0 24 24" fill="none" xmlns="http://www.w3.org/2000/svg">
<path d="M17.6806 5.92413C18.6992 6.49022 19.6704 7.21692 20.567 8.10426C21.1031 8.63453 21.1489 9.4927 20.6624 10.0706L13.1014 19.059C12.5263 19.743 11.4736 19.743 10.8985 19.059L3.33752 10.0706C2.85103 9.4927 2.89676 8.63453 3.43385 8.10426C6.20933 5.35767 9.69838 4.15004 13.1014 4.48135" stroke="black" stroke-width="1.5" stroke-linecap="round" stroke-linejoin="round"/>
<path d="M8.0625 15.694C10.3023 13.3043 13.6912 13.3043 15.9407 15.6833" stroke="black" stroke-width="1.5" stroke-linecap="round" stroke-linejoin="round"/>
<path d="M11.3013 9.20518C13.9538 8.98185 16.669 10.031 18.7434 12.3511" stroke="black" stroke-width="1.5" stroke-linecap="round" stroke-linejoin="round"/>
<path d="M5.25586 12.3612C6.05241 11.4662 6.94428 10.7599 7.89136 10.2422" stroke="black" stroke-width="1.5" stroke-linecap="round" stroke-linejoin="round"/>
</svg>