<svg width="25" height="24" viewBox="0 0 25 24" fill="none" xmlns="http://www.w3.org/2000/svg">
<path d="M6.13305 6.69922C5.04335 7.17499 4.00912 7.8181 3.04883 8.59256" stroke="black" stroke-width="1.5" stroke-linecap="round" stroke-linejoin="round"/>
<path d="M9.81373 10.3848C8.43507 10.6922 7.11187 11.3275 5.94727 12.2596" stroke="black" stroke-width="1.5" stroke-linecap="round" stroke-linejoin="round"/>
<path d="M8.94727 16.0381C10.7268 14.5174 13.3722 14.5174 15.1614 16.0294" stroke="black" stroke-width="1.5" stroke-linecap="round" stroke-linejoin="round"/>
<path d="M18.1515 12.2597C17.2758 11.5602 16.3165 11.028 15.3008 10.6738" stroke="black" stroke-width="1.5" stroke-linecap="round" stroke-linejoin="round"/>
<path d="M10.1582 5.52491C13.9595 5.02093 17.9184 6.04738 21.0493 8.59356" stroke="black" stroke-width="1.5" stroke-linecap="round" stroke-linejoin="round"/>
<path d="M3.25195 3.81641L17.8908 18.4747" stroke="black" stroke-width="1.5" stroke-linecap="round" stroke-linejoin="round"/>
<path d="M12.0502 19.7634V19.8276M12.3104 19.7772C12.3104 19.9217 12.1931 20.0388 12.0487 20.0388C11.9042 20.0388 11.7871 19.9217 11.7871 19.7772C11.7871 19.6328 11.9042 19.5156 12.0487 19.5156C12.1931 19.5156 12.3104 19.6328 12.3104 19.7772Z" stroke="black" stroke-width="1.5" stroke-linecap="round" stroke-linejoin="round"/>
</svg>