<svg width="25" height="24" viewBox="0 0 25 24" fill="none" xmlns="http://www.w3.org/2000/svg">
<path d="M8.94727 15.2471C10.7268 13.7264 13.3723 13.7264 15.1616 15.2384" stroke="black" stroke-width="1.5" stroke-linecap="round" stroke-linejoin="round"/>
<path d="M12.03 9.32619C14.1981 9.32182 16.3673 10.0355 18.1523 11.4672" stroke="black" stroke-width="1.5" stroke-linecap="round" stroke-linejoin="round"/>
<path d="M5.94727 11.4669C6.80657 10.7777 7.75492 10.2549 8.74932 9.89844" stroke="black" stroke-width="1.5" stroke-linecap="round" stroke-linejoin="round"/>
<path d="M3.04883 7.80048C5.85677 5.51854 9.32436 4.46045 12.744 4.62621" stroke="black" stroke-width="1.5" stroke-linecap="round" stroke-linejoin="round"/>
<path d="M16.9219 5.46289C18.388 5.9941 19.7851 6.77311 21.0486 7.79992" stroke="black" stroke-width="1.5" stroke-linecap="round" stroke-linejoin="round"/>
<path d="M12.0561 18.9119V18.9761M12.3162 18.9257C12.3162 19.0702 12.199 19.1873 12.0545 19.1873C11.91 19.1873 11.793 19.0702 11.793 18.9257C11.793 18.7812 11.91 18.6641 12.0545 18.6641C12.199 18.6641 12.3162 18.7812 12.3162 18.9257Z" stroke="black" stroke-width="1.5" stroke-linecap="round" stroke-linejoin="round"/>
</svg>