<svg width="24" height="24" viewBox="0 0 24 24" fill="none" xmlns="http://www.w3.org/2000/svg">
<path fill-rule="evenodd" clip-rule="evenodd" d="M11.7506 17.95C9.64123 17.95 7.93273 16.24 7.93273 14.13V13.7C7.93273 12.72 8.7257 11.9301 9.70568 11.9301H13.796C14.776 11.9301 15.5685 12.72 15.5685 13.7V14.13C15.5685 16.24 13.86 17.95 11.7506 17.95ZM9.43273 14.13C9.43273 15.41 10.4698 16.45 11.7506 16.45C13.0314 16.45 14.0685 15.41 14.0685 14.13V13.7C14.0685 13.55 13.9464 13.4301 13.796 13.4301H9.70568C9.67346 13.4301 9.64221 13.4356 9.6134 13.4458C9.5592 13.465 9.51281 13.5006 9.48059 13.5468C9.45031 13.5902 9.43273 13.6429 9.43273 13.7V14.13Z" fill="black"/>
<path fill-rule="evenodd" clip-rule="evenodd" d="M14.5529 2C14.9669 2 15.3029 2.34 15.3029 2.75C15.3029 4.67999 15.4044 6.05005 15.8605 7.17004C16.2985 8.24005 17.0978 9.15004 18.6764 10.04C19.5231 10.51 20.0387 11.43 19.9703 12.42L19.5104 19.02C19.4235 20.27 18.4405 21.28 17.1803 21.38C14.2853 21.59 9.20324 21.53 6.22766 21.2C5.00988 21.0703 4.06701 20.0854 3.97863 18.86C3.97863 18.8567 3.97863 18.8533 3.97863 18.85L3.5299 12.42C3.46203 11.43 3.97717 10.51 4.82385 10.04C6.40295 9.15004 7.20227 8.24005 7.64025 7.17004C8.09631 6.05005 8.19738 4.67999 8.19738 2.75C8.19738 2.34 8.53332 2 8.94738 2C9.36193 2 9.69738 2.34 9.69738 2.75C9.69738 3.7677 9.67199 4.70953 9.56213 5.57996H12.3077H13.9381C13.8444 4.83719 13.8121 4.04245 13.8048 3.19293C13.8048 3.13068 13.8033 3.06812 13.8033 3.00528C13.8033 2.92072 13.8029 2.83563 13.8029 2.75C13.8029 2.34 14.1388 2 14.5529 2ZM14.2433 7.07996H11.3668H9.25695C9.24084 7.13339 9.22521 7.18445 9.20813 7.23724C9.18371 7.31326 9.15832 7.38864 9.13146 7.46335C9.10021 7.54895 9.0675 7.6337 9.03332 7.71762C9.03186 7.72174 9.0299 7.72586 9.02844 7.72998C8.43176 9.19998 7.35314 10.33 5.56018 11.34C5.20422 11.54 4.99914 11.9201 5.02648 12.3101L5.33215 16.6935L5.33264 16.7014L5.47521 18.75C5.50939 19.25 5.89465 19.65 6.39172 19.71C9.26965 20.03 14.2599 20.09 17.0699 19.88C17.5734 19.84 17.9777 19.44 18.0138 18.92L18.4738 12.3101C18.5011 11.9201 18.2965 11.54 17.9405 11.34C16.1471 10.33 15.0685 9.19998 14.4718 7.72998C14.3849 7.51874 14.3092 7.30209 14.2433 7.07996Z" fill="black"/>
</svg>
