<svg width="24" height="24" viewBox="0 0 24 24" fill="none" xmlns="http://www.w3.org/2000/svg">
<path fill-rule="evenodd" clip-rule="evenodd" d="M20.271 17.4386C21.1743 17.7189 21.729 18.7038 21.4087 19.6601C21.0527 20.7301 20.0518 21.45 18.9258 21.45H4.57373C3.44775 21.45 2.44678 20.7301 2.08984 19.6601C1.771 18.704 2.3252 17.7192 3.22852 17.4387L3.22266 17.32C3.01465 13.1553 5.81592 9.56594 9.67676 8.60322V8.07999C9.67676 6.93998 10.604 6.01005 11.75 6.01005C12.894 6.01005 13.8218 6.93998 13.8218 8.07999V8.60299C17.6826 9.56536 20.4844 13.1549 20.2769 17.32L20.271 17.4386ZM4.72656 17.36L4.7207 17.24C4.54199 13.664 7.05908 10.6023 10.4502 9.96966C10.521 9.96748 10.5894 9.95536 10.6538 9.93472C11.0107 9.87896 11.377 9.85001 11.75 9.85001C12.1226 9.85001 12.4873 9.87885 12.8438 9.93438C12.9092 9.95539 12.9785 9.96766 13.0503 9.9697C16.4414 10.6024 18.9575 13.6641 18.7788 17.24L18.7729 17.36H4.72656ZM19.4487 18.86H4.04981C4.0249 18.8612 4.00098 18.8612 3.97656 18.86H3.75293C3.58106 18.86 3.45898 19.03 3.51367 19.19C3.66504 19.65 4.09277 19.95 4.57373 19.95H18.9258C19.4067 19.95 19.835 19.65 19.9858 19.19C20.0215 19.0864 19.9829 18.9787 19.9048 18.9156C19.8623 18.8812 19.8076 18.86 19.7471 18.86H19.522C19.498 18.8612 19.4731 18.8612 19.4487 18.86ZM12.3218 8.36883V8.07999C12.3218 7.76998 12.0649 7.51005 11.75 7.51005C11.4341 7.51005 11.1768 7.76998 11.1768 8.07999V8.36892C11.3662 8.35639 11.5571 8.35001 11.75 8.35001C11.9424 8.35001 12.1328 8.35635 12.3218 8.36883Z" fill="black"/>
<path d="M2.89307 6.27006C3.18604 5.97004 3.66113 5.97004 3.9541 6.27006C4.71289 7.03004 4.71387 8.26005 3.95313 9.02006C3.65967 9.31005 3.18506 9.31005 2.89209 9.02006C2.6001 8.72005 2.6001 8.24999 2.89404 7.96C3.0669 7.77999 3.0669 7.49998 2.89307 7.32999C2.6001 7.02998 2.6001 6.56007 2.89307 6.27006Z" fill="black"/>
<path d="M18.3037 4.57999C18.5967 4.87 18.5967 5.34003 18.3037 5.64005C18.1289 5.81004 18.1299 6.09007 18.3027 6.27006C18.5957 6.56007 18.5967 7.02998 18.3037 7.32999C18.0117 7.62 17.5371 7.62 17.2437 7.32999C16.4829 6.56998 16.4829 5.33997 17.2427 4.57999C17.5361 4.27998 18.0107 4.27998 18.3037 4.57999Z" fill="black"/>
<path d="M7.35596 2.27006C7.64893 1.97004 8.12402 1.97004 8.41699 2.27006C9.17578 3.03004 9.17676 4.26005 8.41602 5.02006C8.2417 5.19004 8.24268 5.47007 8.41602 5.65006C8.70898 5.94007 8.70996 6.40998 8.41699 6.71C8.125 7.00001 7.6499 7.00001 7.35596 6.71C6.59473 5.94999 6.5957 4.71998 7.35596 3.96C7.52979 3.78001 7.52979 3.49998 7.35596 3.32999C7.06299 3.02998 7.06299 2.56007 7.35596 2.27006Z" fill="black"/>
</svg>
