<svg width="24" height="24" viewBox="0 0 24 24" fill="none" xmlns="http://www.w3.org/2000/svg">
<path fill-rule="evenodd" clip-rule="evenodd" d="M13.3442 19.4252C13.3344 19.437 13.3237 19.4486 13.313 19.4599C13.3022 19.4715 13.291 19.4826 13.2793 19.4932L11.978 20.86C11.1992 21.6799 9.90427 21.7199 9.08494 20.9399L2.75437 14.91C1.93601 14.14 1.9033 12.84 2.6821 12.02L4.01707 10.62L4.15623 10.4799L4.15916 10.4699L3.84421 5.21994C3.74412 3.51992 5.06589 2.08999 6.76121 2.04C8.27683 2.00406 9.55222 3.09796 9.79246 4.54593L10.3193 3.98996C12.7602 1.42996 16.8203 1.32998 19.3872 3.76999C21.9551 6.20999 22.0561 10.2699 19.6142 12.8399L13.3442 19.4252ZM8.80222 7.07992C8.51707 6.96991 8.33005 6.68997 8.33103 6.37997L8.33298 5.04C8.33494 4.20001 7.64109 3.52002 6.79929 3.54C5.95212 3.55999 5.29099 4.27996 5.34128 5.12997L5.65427 10.39C5.66794 10.613 5.62937 10.833 5.54636 11.0357L12.7431 17.8825L18.5283 11.8C20.3979 9.83001 20.3213 6.71994 18.354 4.84994C16.3872 2.97995 13.2763 3.05999 11.4062 5.03L9.624 6.89999C9.41306 7.11999 9.08738 7.18991 8.80222 7.07992ZM4.58689 12.1964L3.76902 13.06C3.56101 13.27 3.57029 13.6199 3.78806 13.8299L10.1191 19.8499C10.3384 20.0599 10.6831 20.0499 10.8911 19.8299L11.7075 18.9713L4.58689 12.1964Z" fill="black"/>
</svg>
