<svg width="24" height="24" viewBox="0 0 24 24" fill="none" xmlns="http://www.w3.org/2000/svg">
<path fill-rule="evenodd" clip-rule="evenodd" d="M3.63477 8.29C3.63477 7.88 3.9707 7.54 4.38477 7.54H19.1138C19.5288 7.54 19.8638 7.88 19.8638 8.29C19.8638 11.5932 17.8975 14.431 15.0732 15.7003L16.063 18.6743C16.0669 18.6846 16.0698 18.695 16.0732 18.7055L16.6738 20.51C16.8047 20.91 16.5918 21.3299 16.1987 21.4599C15.8057 21.5899 15.3818 21.38 15.251 20.99L14.8159 19.68H8.62061L8.18555 20.99C8.05469 21.38 7.63086 21.5899 7.23779 21.4599C6.84473 21.3299 6.63184 20.91 6.76172 20.51L8.37012 15.6757C5.57568 14.3945 3.63477 11.572 3.63477 8.29ZM9.78613 16.1712L9.11865 18.18H14.3179L13.6553 16.185C13.0439 16.3321 12.4053 16.41 11.7485 16.41C11.0718 16.41 10.4146 16.3272 9.78613 16.1712ZM14.0601 14.4951C16.3501 13.6414 18.0391 11.5555 18.3218 9.04H5.17676C5.4624 11.5776 7.17969 13.6783 9.49951 14.5175C9.51318 14.5213 9.52734 14.5254 9.54102 14.53C9.56445 14.5377 9.58691 14.5464 9.60889 14.5561C10.2803 14.7856 10.9995 14.91 11.7485 14.91C12.4399 14.91 13.1069 14.8032 13.7334 14.6066C13.7832 14.5752 13.8379 14.5493 13.896 14.53C13.9502 14.512 14.0054 14.5005 14.0601 14.4951Z" fill="black"/>
<path d="M8.94189 3.79C9.23486 4.09001 9.23584 4.55995 8.94287 4.84994C8.80078 4.99994 8.80078 5.21997 8.94287 5.36996C9.23584 5.65997 9.23486 6.13002 8.94189 6.43002C8.64893 6.72003 8.17383 6.72003 7.88086 6.43002C7.15479 5.70002 7.15479 4.52 7.88086 3.79C8.17383 3.50001 8.64893 3.50001 8.94189 3.79Z" fill="black"/>
<path d="M15.9419 3.79C16.2358 4.09001 16.2358 4.55995 15.9438 4.84994C15.8018 4.99994 15.8018 5.21997 15.9438 5.36996C16.2358 5.65997 16.2358 6.13002 15.9419 6.43002C15.6489 6.72003 15.1738 6.72003 14.8818 6.43002C14.1558 5.70002 14.1558 4.52 14.8818 3.79C15.1738 3.50001 15.6489 3.50001 15.9419 3.79Z" fill="black"/>
<path d="M11.3818 2.21994C11.6748 1.92994 12.1499 1.92994 12.4419 2.21994C13.1689 2.94993 13.1689 4.12994 12.4419 4.84994C12.3008 4.98994 12.3018 5.21997 12.4419 5.36996C12.7349 5.65997 12.7349 6.13002 12.4419 6.43002C12.1499 6.72003 11.6748 6.72003 11.3818 6.43002C10.6548 5.70002 10.6558 4.52 11.3818 3.79C11.5229 3.65001 11.5229 3.41999 11.3818 3.27999C11.0889 2.99 11.0889 2.50994 11.3818 2.21994Z" fill="black"/>
</svg>
