<svg width="24" height="24" viewBox="0 0 24 24" fill="none" xmlns="http://www.w3.org/2000/svg">
<path fill-rule="evenodd" clip-rule="evenodd" d="M13.9938 5.21501C13.8742 5.1848 13.7535 5.15701 13.632 5.13168C13.7135 4.91324 13.7579 4.67685 13.7579 4.43005C13.7579 3.32005 12.8585 2.42004 11.7487 2.42004C10.6398 2.42004 9.7389 3.32005 9.7389 4.43005C9.7389 4.55962 9.75111 4.68631 9.77454 4.80905C9.78382 4.85796 9.79505 4.90623 9.80775 4.95381L9.83411 5.04196C9.84241 5.06859 9.8512 5.09497 9.86097 5.12111L9.86439 5.12976C7.30775 5.65944 5.20618 7.27541 4.39906 9.69679C4.34827 9.84808 4.30286 10.0025 4.26283 10.16H3.33411C2.52943 10.16 1.90345 10.8701 2.01234 11.67L2.19251 13.03L2.19349 13.04C2.31068 13.88 3.03187 14.52 3.89271 14.52H4.04359V16.4399C4.04359 17.7299 4.44788 18.9 5.23792 19.75C6.03431 20.6 7.16468 21.08 8.4889 21.08H15.007C16.3312 21.08 17.4625 20.6 18.2584 19.75C19.049 18.9 19.4533 17.7299 19.4533 16.4399L19.4493 14.52H19.608C20.4694 14.52 21.191 13.88 21.3082 13.04L21.3092 13.03L21.4889 11.67C21.568 11.0755 21.2443 10.5306 20.7423 10.29C20.569 10.2069 20.3742 10.16 20.1676 10.16H19.2243C18.5734 7.60458 16.5382 5.85872 13.9938 5.21501ZM17.9435 11.96L17.9474 13.661C17.942 13.6965 17.9396 13.7329 17.9396 13.77C17.9396 13.8053 17.942 13.84 17.9469 13.874L17.9479 13.8801L17.9533 16.4399C17.9533 17.4299 17.6486 18.2 17.1608 18.73C16.6784 19.24 15.9611 19.58 15.007 19.58H8.4889C7.53529 19.58 6.81849 19.24 6.33607 18.73C5.84827 18.2 5.54359 17.4299 5.54359 16.4399V11.96C5.54359 11.908 5.54456 11.8562 5.54603 11.8048L5.55042 11.6702L5.55091 11.66H17.9362C17.941 11.7589 17.9435 11.8589 17.9435 11.96ZM17.6559 10.16H5.83118C6.61048 7.86339 8.8971 6.43994 11.7438 6.43994C14.3917 6.43994 16.5548 7.67183 17.4713 9.69261C17.5402 9.84406 17.6017 9.99992 17.6559 10.16ZM3.52454 11.66H4.04945C4.04554 11.7591 4.04359 11.8591 4.04359 11.96V13.02H3.89271C3.87952 13.02 3.86634 13.0188 3.85413 13.0164C3.76575 12.9995 3.69251 12.9262 3.67982 12.83L3.52454 11.66ZM19.608 13.02C19.714 13.02 19.8077 12.94 19.8229 12.83L19.9767 11.66H19.4376L19.4386 11.6819C19.442 11.7738 19.4435 11.8665 19.4435 11.96L19.4459 13.02H19.608ZM11.2389 4.43005C11.2389 4.71005 11.4664 4.93994 11.7487 4.93994C12.0304 4.93994 12.2579 4.71005 12.2579 4.43005C12.2579 4.15005 12.0304 3.92004 11.7487 3.92004C11.4664 3.92004 11.2389 4.15005 11.2389 4.43005Z" fill="black"/>
</svg>
