<svg width="24" height="24" viewBox="0 0 24 24" fill="none" xmlns="http://www.w3.org/2000/svg">
<path fill-rule="evenodd" clip-rule="evenodd" d="M11.8438 2.80005C12.2578 2.80005 12.5938 3.14005 12.5938 3.55005V4.41257C15.9585 4.75449 18.7148 7.12384 19.4858 10.34H20.75C21.1641 10.34 21.5 10.67 21.5 11.09C21.5 11.5 21.1641 11.84 20.75 11.84H19.6938C19.6987 11.9526 19.7012 12.066 19.7012 12.1801L19.7109 15.92V15.9301C19.7109 17.2601 19.2939 18.46 18.48 19.33C17.6611 20.21 16.4971 20.7 15.1318 20.7H8.37891C7.01416 20.7 5.8501 20.21 5.03125 19.33C4.2168 18.46 3.80078 17.2601 3.80078 15.9301V12.1801C3.80078 12.066 3.80322 11.9526 3.80811 11.84H2.75C2.33594 11.84 2 11.5 2 11.09C2 10.67 2.33594 10.34 2.75 10.34H4.01611C4.80127 7.06485 7.64453 4.66788 11.0938 4.39581V3.55005C11.0938 3.14005 11.4302 2.80005 11.8438 2.80005ZM5.30957 11.84C5.30371 11.9525 5.30078 12.0659 5.30078 12.1801V15.9301C5.30078 16.9501 5.61816 17.7601 6.12891 18.3101C6.63379 18.8501 7.38379 19.2 8.37891 19.2H15.1318C16.127 19.2 16.877 18.8501 17.3828 18.3101C17.894 17.7601 18.2109 16.9501 18.2109 15.9301L18.2012 12.1801C18.2012 12.0659 18.1982 11.9525 18.1924 11.84H5.30957ZM17.9302 10.34C17.1357 7.72549 14.6816 5.87 11.751 5.87C8.81934 5.87 6.36621 7.72549 5.57178 10.34H17.9302Z" fill="black"/>
</svg>
