<svg width="24" height="24" viewBox="0 0 24 24" fill="none" xmlns="http://www.w3.org/2000/svg">
<path d="M10.2821 2.00272C10.6952 1.98273 11.0463 2.30271 11.0639 2.72269C11.1303 4.2027 11.203 5.69278 11.2631 7.18277C11.309 8.35279 10.8993 9.40268 9.99697 10.2027C9.24794 10.8627 9.03408 11.6728 9.15126 12.7827C9.21083 13.3507 9.2665 13.8644 9.31923 14.3507C9.48378 15.868 9.61904 17.118 9.74697 18.9128C9.84804 20.3427 8.60097 21.4427 7.35195 21.4427C6.10292 21.4427 4.85732 20.3427 4.9579 18.9128C5.08486 17.1184 5.22109 15.8687 5.38613 14.3519C5.43886 13.8653 5.49452 13.3511 5.5541 12.7827C5.67031 11.6728 5.4579 10.8627 4.70693 10.2027C3.80702 9.40268 3.39492 8.35279 3.44326 7.18277C3.48329 6.14752 3.53066 5.11222 3.57802 4.08029L3.64003 2.72269C3.65908 2.30271 4.00917 1.98273 4.42324 2.00272C4.8373 2.02271 5.15712 2.37274 5.13906 2.78275L5.07949 4.0864C5.03115 5.13822 4.98281 6.18796 4.9413 7.24271C4.91103 7.99271 5.15908 8.60266 5.70107 9.08267C6.92324 10.1627 7.19521 11.5127 7.04531 12.9427C6.79824 15.3027 6.62001 16.6727 6.454 19.0227C6.42128 19.4827 6.8749 19.9427 7.35195 19.9427C7.829 19.9427 8.2831 19.4827 8.2499 19.0227C8.12294 17.2289 7.99013 16.006 7.82411 14.478C7.77236 14.0042 7.71767 13.5012 7.65908 12.9427C7.50917 11.5027 7.78212 10.1627 9.00429 9.08267C9.54628 8.60266 9.79433 7.99271 9.76406 7.24271C9.73085 6.40586 9.69326 5.57218 9.65517 4.7381C9.62538 4.08713 9.59511 3.43589 9.5663 2.78275C9.54726 2.37274 9.86806 2.02271 10.2821 2.00272Z" fill="black"/>
<path d="M7.34511 7.10269C6.93105 7.10269 6.59609 6.77271 6.59706 6.35269L6.60732 2.83267C6.60829 2.41269 6.94521 2.08267 7.35927 2.08267C7.77333 2.08267 8.10829 2.42267 8.10732 2.83267L8.09706 6.3627C8.09609 6.77271 7.75917 7.1127 7.34511 7.10269Z" fill="black"/>
<path fill-rule="evenodd" clip-rule="evenodd" d="M13.8842 12.4527C14.1972 12.1127 14.3651 11.6827 14.351 11.2627C14.3114 10.1163 14.1913 8.80585 14.0643 7.4187C13.9784 6.4827 13.8891 5.51178 13.8192 4.53275C13.7182 3.10276 14.9643 2.00272 16.2143 2.00272C17.4633 2.00272 18.7089 3.10276 18.6083 4.53275C18.539 5.49848 18.4506 6.45941 18.3651 7.38764C18.2367 8.7854 18.1151 10.1089 18.0761 11.2627C18.0619 11.6827 18.2299 12.1127 18.5429 12.4627L19.2079 13.1927C19.7543 13.8027 20.0702 14.5928 20.0609 15.4228C20.0521 16.2528 19.8959 17.6927 19.39 18.9427C18.8949 20.1727 17.9379 21.5027 16.2143 21.5027C14.4901 21.5027 13.5321 20.1727 13.037 18.9427C12.5311 17.6927 12.3739 16.2528 12.3661 15.4228C12.3583 14.5928 12.6742 13.8027 13.2182 13.1927L13.8842 12.4527ZM15.85 11.2127C15.8793 12.0727 15.5351 12.8627 14.9979 13.4627L14.3329 14.2027C14.0292 14.5427 13.8622 14.9728 13.8661 15.4128C13.8729 16.1227 14.0141 17.3527 14.4281 18.3827C14.8529 19.4327 15.4359 20.0027 16.2143 20.0027C16.9911 20.0027 17.5751 19.4327 17.9989 18.3827C18.413 17.3527 18.5541 16.1227 18.5609 15.4128C18.5663 14.9728 18.3993 14.5427 18.0941 14.2027L17.4281 13.4627C16.893 12.8627 16.5482 12.0727 16.5761 11.2127C16.6166 10.0355 16.745 8.63385 16.8764 7.19968C16.9613 6.27027 17.0477 5.32718 17.1122 4.42276C17.1381 3.95624 16.6879 3.50272 16.2143 3.50272C15.7396 3.50272 15.2899 3.95624 15.3163 4.42276C15.3808 5.33683 15.4677 6.29038 15.5536 7.2294C15.6835 8.6532 15.8104 10.0437 15.85 11.2127Z" fill="black"/>
</svg>
