<svg width="24" height="24" viewBox="0 0 24 24" fill="none" xmlns="http://www.w3.org/2000/svg">
<path d="M19.7014 20.6673V18.8748C19.7014 18.3168 19.2491 17.8645 18.6911 17.8645H5.30912C4.75115 17.8645 4.29883 18.3168 4.29883 18.8748V20.6673" stroke="black" stroke-width="1.5" stroke-linecap="round" stroke-linejoin="round"/>
<path d="M18.29 17.7791V5.68974C18.29 5.32606 18.093 4.98857 17.7692 4.82305C13.7971 2.79283 9.95562 2.77396 6.20465 4.81846C5.89502 4.98723 5.70996 5.31648 5.70996 5.66912V17.7791" stroke="black" stroke-width="1.5" stroke-linecap="round" stroke-linejoin="round"/>
<path fill-rule="evenodd" clip-rule="evenodd" d="M12.3096 8.75131L12.8229 9.79033C12.8729 9.89198 12.9696 9.9628 13.082 9.97947L14.2294 10.1469C14.5135 10.1886 14.626 10.5369 14.421 10.736L13.5911 11.5442C13.5095 11.6234 13.4728 11.7375 13.4911 11.85L13.6869 12.9915C13.7353 13.274 13.4395 13.489 13.1862 13.3556L12.1605 12.8166C12.0597 12.7632 11.9397 12.7632 11.8389 12.8166L10.814 13.3556C10.5599 13.489 10.2641 13.274 10.3124 12.9915L10.5082 11.85C10.5274 11.7375 10.4899 11.6234 10.4083 11.5442L9.57921 10.736C9.37424 10.5369 9.48672 10.1886 9.77001 10.1469L10.9173 9.97947C11.0298 9.9628 11.1273 9.89198 11.1773 9.79033L11.6897 8.75131C11.8164 8.49468 12.183 8.49468 12.3096 8.75131Z" stroke="black" stroke-width="1.5" stroke-linecap="round" stroke-linejoin="round"/>
<path d="M21 20.7073H3" stroke="black" stroke-width="1.5" stroke-linecap="round" stroke-linejoin="round"/>
</svg>
