<svg width="24" height="24" viewBox="0 0 24 24" fill="none" xmlns="http://www.w3.org/2000/svg">
<path d="M19.3112 16.9559C20.3724 15.5237 20.9999 13.7513 20.9999 11.8341C20.9999 7.9007 18.3695 4.58637 14.7621 3.55646C14.7155 3.54277 14.6762 3.5939 14.699 3.63681C16.2557 6.56584 15.791 10.2984 13.3221 12.7681C10.8524 15.2369 7.11992 15.7017 4.1909 14.1359C4.14799 14.113 4.09686 14.1523 4.11055 14.1998C5.14137 17.8062 8.46391 20.4458 12.3881 20.4458C13.0273 20.4458 13.6501 20.3762 14.2494 20.2442" stroke="black" stroke-width="1.5" stroke-linecap="round" stroke-linejoin="round"/>
<path fill-rule="evenodd" clip-rule="evenodd" d="M19.2886 17.0037C20.2352 17.0121 21 17.6481 21 18.7303C21 19.4312 20.5827 20.0341 19.9837 20.3046C19.7316 20.4069 19.4806 20.4459 19.2902 20.4459H15.205C15.014 20.4459 14.7625 20.4091 14.5072 20.3067C13.9076 20.0357 13.4926 19.4312 13.4926 18.7303C13.4926 17.6481 14.2567 17.0121 15.2034 17.0037C15.2034 16.3228 15.7377 14.9606 17.246 14.9606C18.7543 14.9606 19.2886 16.3228 19.2886 17.0037Z" stroke="black" stroke-width="1.5" stroke-linecap="round" stroke-linejoin="round"/>
<path d="M11.6974 9.35716C11.4201 8.07628 12.1962 6.531 12.5541 6.16007L8.86641 7.33199L9.34697 5.77104L8.56954 6.21989C8.17375 5.85992 7.91904 5.78061 7.39354 5.90478L6.94468 5.12735L6.46578 6.68988L3.85663 3.82959C3.98115 4.3298 3.88057 6.05606 2.99997 7.02668C3.48638 7.22165 4.28206 7.75804 3.74434 8.99291C5.69386 8.57867 6.34454 9.58751 6.64837 10.9122C7.52054 9.90261 8.58682 9.35279 10.0697 10.6878C10.2214 9.34949 11.1787 9.2828 11.6974 9.35716Z" stroke="black" stroke-width="1.5" stroke-linecap="round" stroke-linejoin="round"/>
</svg>
