<svg width="24" height="24" viewBox="0 0 24 24" fill="none" xmlns="http://www.w3.org/2000/svg">
<path d="M5.0426 11.9833C5.0426 7.57682 8.61479 4.00464 13.0213 4.00464C17.4278 4.00464 21 7.57682 21 11.9833C21 15.5132 18.7078 18.5077 15.5306 19.5594" stroke="black" stroke-width="1.5" stroke-linecap="round" stroke-linejoin="round"/>
<path d="M4.03299 18.1203C4.36739 16.5758 3.43162 14.7124 3 14.2651L7.44678 15.6783L6.86729 13.796L7.80475 14.3373C8.28201 13.9032 8.58915 13.8076 9.22282 13.9573L9.76407 13.0198L10.3416 14.904L13.4878 11.455C13.3376 12.0581 13.4589 14.1397 14.5208 15.3101C13.9342 15.5452 12.9748 16.192 13.6232 17.6811C11.2724 17.1816 10.4877 18.3981 10.1214 19.9955C9.06967 18.7781 7.78391 18.1151 5.99581 19.7248C5.81282 18.1111 4.6585 18.0307 4.03299 18.1203Z" stroke="black" stroke-width="1.5" stroke-linecap="round" stroke-linejoin="round"/>
</svg>
