<svg width="24" height="24" viewBox="0 0 24 24" fill="none" xmlns="http://www.w3.org/2000/svg">
<path d="M14.3064 13.5116L20.3632 9.63379C19.8993 10.4714 19.2498 13.6173 20.3632 15.7822C19.3967 15.8982 17.7111 16.4781 18.0823 18.9524C14.7834 17.2718 13.1308 18.7691 11.9487 21C10.8692 18.7691 9.2203 17.2699 5.91774 18.9524C6.28888 16.4781 4.60329 15.8982 3.63678 15.7822C4.75019 13.6173 4.1007 10.4714 3.63678 9.63379L9.69021 13.5096L9.69003 10.9024L10.8692 12.0816C11.7524 11.626 12.2476 11.6062 13.1308 12.0816L14.31 10.9024V13.2529C14.31 14.5315 13.2735 15.568 11.9948 15.568" stroke="black" stroke-width="1.5" stroke-linecap="round" stroke-linejoin="round"/>
<path d="M12.2998 6.73015V7.80283M12.2998 6.73015C13.0336 6.73015 13.6285 6.13521 13.6285 5.40139M12.2998 6.73015C11.566 6.73015 10.9711 6.13521 10.9711 5.40139M12.2998 3V4.07269M12.2998 4.07269C11.566 4.07269 10.9711 4.66756 10.9711 5.40139M12.2998 4.07269C13.0336 4.07269 13.6285 4.66756 13.6285 5.40139M10.9711 5.40139H9.89841M14.7012 5.40139H13.6285M11.3603 6.34107L10.6018 7.09957M13.9978 3.70351L13.2393 4.46202M11.3603 4.46193L10.6018 3.70343M13.9978 7.09948L13.2393 6.34098" stroke="black" stroke-width="1.5" stroke-linecap="round" stroke-linejoin="round"/>
<path d="M17.9817 5.80115V7.36409M18.7632 6.58262L17.2003 6.58262" stroke="black" stroke-width="1.5" stroke-linecap="round" stroke-linejoin="round"/>
<path d="M6.01823 5.8009V7.36407M6.79982 6.58249L5.23665 6.58249" stroke="black" stroke-width="1.5" stroke-linecap="round" stroke-linejoin="round"/>
</svg>
