<svg width="24" height="24" viewBox="0 0 24 24" fill="none" xmlns="http://www.w3.org/2000/svg">
<path d="M15.4402 15.5549C15.4402 12.7574 13.9009 11.6548 12.002 11.6548C10.1031 11.6548 8.56378 12.7574 8.56378 15.5549C8.56378 18.3523 10.1031 20.6201 12.002 20.6201C13.9009 20.6201 15.4402 18.3523 15.4402 15.5549Z" stroke="black" stroke-width="1.5" stroke-linecap="round" stroke-linejoin="round"/>
<path d="M14.0637 8.61749C14.0637 6.94004 13.1407 6.27889 12.002 6.27889C10.8634 6.27889 9.94037 6.94004 9.94037 8.61749C9.94037 10.2949 10.8634 11.6548 12.002 11.6548C13.1407 11.6548 14.0637 10.2949 14.0637 8.61749Z" stroke="black" stroke-width="1.5" stroke-linecap="round" stroke-linejoin="round"/>
<path d="M15.2582 14.0591L18.6601 15.3317C19.1104 15.5002 19.3668 15.9726 19.2764 16.4447C18.966 18.0658 18.9102 19.1901 19.4434 21" stroke="black" stroke-width="1.5" stroke-linecap="round" stroke-linejoin="round"/>
<path d="M13.2946 6.66783C14.2266 5.92815 14.7369 4.75684 15.1989 3.60356C15.3932 3.11852 15.9356 2.87892 16.4255 3.06072L17.6451 3.51333" stroke="black" stroke-width="1.5" stroke-linecap="round" stroke-linejoin="round"/>
<path d="M20.8221 7.30891L18.4871 6.55108C18.1453 6.44013 17.7728 6.53077 17.5014 6.76629C16.4464 7.68153 15.5879 7.9965 14.0948 8.33201" stroke="black" stroke-width="1.5" stroke-linecap="round" stroke-linejoin="round"/>
<path d="M20.3872 13.2141L19.0647 10.9246C18.8432 10.541 18.3909 10.3615 17.9581 10.4562C16.516 10.772 15.4888 10.6771 13.7997 10.0951" stroke="black" stroke-width="1.5" stroke-linecap="round" stroke-linejoin="round"/>
<path d="M8.74186 14.0591L5.33997 15.3317C4.88971 15.5002 4.63324 15.9726 4.72366 16.4447C5.03411 18.0658 5.08985 19.1901 4.5567 21" stroke="black" stroke-width="1.5" stroke-linecap="round" stroke-linejoin="round"/>
<path d="M10.7054 6.66783C9.77347 5.92815 9.26319 4.75684 8.8012 3.60356C8.6069 3.11852 8.06441 2.87892 7.57455 3.06072L6.35495 3.51333" stroke="black" stroke-width="1.5" stroke-linecap="round" stroke-linejoin="round"/>
<path d="M3.17798 7.30891L5.51294 6.55108C5.85478 6.44013 6.22722 6.53077 6.49868 6.76629C7.55361 7.68153 8.41214 7.9965 9.9053 8.33201" stroke="black" stroke-width="1.5" stroke-linecap="round" stroke-linejoin="round"/>
<path d="M3.61285 13.2141L4.93529 10.9246C5.15686 10.541 5.60915 10.3615 6.04189 10.4562C7.48404 10.772 8.51123 10.6771 10.2003 10.0951" stroke="black" stroke-width="1.5" stroke-linecap="round" stroke-linejoin="round"/>
</svg>
