<svg width="24" height="24" viewBox="0 0 24 24" fill="none" xmlns="http://www.w3.org/2000/svg">
<path d="M15.5095 15.6014C15.5095 12.7475 13.9391 11.6227 12.0019 11.6227C10.0647 11.6227 8.49434 12.7475 8.49434 15.6014C8.49434 18.4553 10.0647 20.7688 12.0019 20.7688C13.9391 20.7688 15.5095 18.4553 15.5095 15.6014Z" stroke="black" stroke-width="1.5" stroke-linecap="round" stroke-linejoin="round"/>
<path d="M14.1051 8.52414C14.1051 6.81286 13.1635 6.13837 12.0019 6.13837C10.8403 6.13837 9.89864 6.81286 9.89864 8.52414C9.89864 10.2354 10.8403 11.6227 12.0019 11.6227C13.1635 11.6227 14.1051 10.2354 14.1051 8.52414Z" stroke="black" stroke-width="1.5" stroke-linecap="round" stroke-linejoin="round"/>
<path d="M13.9366 9.85034L17.6386 12.0735C17.9807 12.2789 18.1597 12.6738 18.098 13.068C17.8234 14.822 17.7948 15.9837 18.2062 17.898" stroke="black" stroke-width="1.5" stroke-linecap="round" stroke-linejoin="round"/>
<path d="M10.0632 9.85034L6.33284 12.0905C6.00499 12.2874 5.82538 12.6592 5.86686 13.0394C6.06685 14.8721 6.04545 16.032 5.79359 17.898" stroke="black" stroke-width="1.5" stroke-linecap="round" stroke-linejoin="round"/>
<path d="M13.7573 7.03368L16.2057 3.81583C16.3756 3.5925 16.6342 3.45404 16.9143 3.4364L20.1722 3.23132" stroke="black" stroke-width="1.5" stroke-linecap="round" stroke-linejoin="round"/>
<path d="M10.2425 7.03368L7.79408 3.81583C7.62415 3.5925 7.36556 3.45404 7.08548 3.4364L3.82759 3.23132" stroke="black" stroke-width="1.5" stroke-linecap="round" stroke-linejoin="round"/>
<path d="M20.9999 7.18895L18.4325 6.35569C18.1883 6.27644 17.9226 6.29757 17.6941 6.41441L14.1369 8.23269" stroke="black" stroke-width="1.5" stroke-linecap="round" stroke-linejoin="round"/>
<path d="M2.99988 7.18895L5.56727 6.35569C5.81145 6.27644 6.07712 6.29757 6.3057 6.41441L9.86287 8.23269" stroke="black" stroke-width="1.5" stroke-linecap="round" stroke-linejoin="round"/>
<path d="M20.8186 12.2082L19.353 9.67083C19.1866 9.38267 18.8836 9.20037 18.5511 9.18827L14.0983 9.02625" stroke="black" stroke-width="1.5" stroke-linecap="round" stroke-linejoin="round"/>
<path d="M3.18102 12.2082L4.64659 9.67083C4.81303 9.38267 5.11599 9.20037 5.44855 9.18827L9.90133 9.02625" stroke="black" stroke-width="1.5" stroke-linecap="round" stroke-linejoin="round"/>
</svg>
