<svg width="24" height="24" viewBox="0 0 24 24" fill="none" xmlns="http://www.w3.org/2000/svg">
<path d="M17.4192 3.74072L17.6941 7.91964C17.7155 8.24534 17.57 8.55962 17.3078 8.75397L15.0995 10.3907" stroke="black" stroke-width="1.5" stroke-linecap="round" stroke-linejoin="round"/>
<path d="M20.6405 7.7085L20.4456 9.50974C20.4077 9.85961 20.1814 10.1607 19.8559 10.2945L15.7106 11.9976" stroke="black" stroke-width="1.5" stroke-linecap="round" stroke-linejoin="round"/>
<path d="M4.11988 19.0407L3.98481 15.9081C3.96712 15.4979 4.21223 15.1219 4.59466 14.9725L8.24122 13.548" stroke="black" stroke-width="1.5" stroke-linecap="round" stroke-linejoin="round"/>
<path d="M9.15975 16.7003L7.51153 17.5922C7.14376 17.7912 6.94709 18.2053 7.02529 18.6161L7.4791 21" stroke="black" stroke-width="1.5" stroke-linecap="round" stroke-linejoin="round"/>
<path d="M14.7991 16.7003L16.4473 17.5922C16.815 17.7912 17.0117 18.2053 16.9335 18.6161L16.4797 21" stroke="black" stroke-width="1.5" stroke-linecap="round" stroke-linejoin="round"/>
<ellipse cx="2.48292" cy="2.48292" rx="2.48292" ry="2.48292" transform="matrix(1 0 0 -1 9.56857 9.67908)" stroke="black" stroke-width="1.5" stroke-linecap="round" stroke-linejoin="round"/>
<ellipse cx="2.48292" cy="2.48292" rx="2.48292" ry="2.48292" transform="matrix(1 0 0 -1 9.56857 9.67908)" stroke="black" stroke-width="1.5" stroke-linecap="round" stroke-linejoin="round"/>
<path d="M13.7838 9.01336C14.9728 9.77403 15.782 11.2763 15.782 13.0052C15.782 17.588 12.0116 19.2138 12.0116 19.2138C12.0116 19.2138 8.2412 17.8447 8.2412 13.0052C8.2412 11.2763 9.0504 9.77403 10.2394 9.01336" stroke="black" stroke-width="1.5" stroke-linecap="round" stroke-linejoin="round"/>
<path d="M19.9032 19.0407L20.0383 15.9081C20.056 15.4979 19.8109 15.1219 19.4284 14.9725L15.7819 13.548" stroke="black" stroke-width="1.5" stroke-linecap="round" stroke-linejoin="round"/>
<path d="M6.58068 3.74072L6.30578 7.91964C6.28435 8.24534 6.42987 8.55962 6.69211 8.75397L8.90033 10.3907" stroke="black" stroke-width="1.5" stroke-linecap="round" stroke-linejoin="round"/>
<path d="M3.35925 7.7085L3.55419 9.50974C3.59206 9.85961 3.81832 10.1607 4.14383 10.2945L8.28915 11.9976" stroke="black" stroke-width="1.5" stroke-linecap="round" stroke-linejoin="round"/>
<path d="M10.5562 5.06117C10.4505 4.67362 10.3395 3.71883 10.7412 3" stroke="black" stroke-width="1.5" stroke-linecap="round" stroke-linejoin="round"/>
<path d="M13.4436 5.06117C13.5493 4.67362 13.6603 3.71883 13.2586 3" stroke="black" stroke-width="1.5" stroke-linecap="round" stroke-linejoin="round"/>
</svg>
