<svg width="24" height="24" viewBox="0 0 24 24" fill="none" xmlns="http://www.w3.org/2000/svg">
<path d="M17.0022 11.9289C17.0022 14.7092 14.7483 15.8051 11.968 15.8051C9.18767 15.8051 6.93376 14.7092 6.93376 11.9289C6.93376 9.14856 9.18767 6.89465 11.968 6.89465C14.7483 6.89465 17.0022 9.14856 17.0022 11.9289Z" stroke="black" stroke-width="1.5" stroke-linecap="round" stroke-linejoin="round"/>
<path d="M14.8263 19.9907L16.3798 17.5454C16.593 17.2097 16.5856 16.7791 16.3607 16.451L15.426 15.0869" stroke="black" stroke-width="1.5" stroke-linecap="round" stroke-linejoin="round"/>
<path d="M9.17401 19.9907L7.62055 17.5454C7.40727 17.2097 7.41475 16.7791 7.63958 16.451L8.57426 15.0869" stroke="black" stroke-width="1.5" stroke-linecap="round" stroke-linejoin="round"/>
<path d="M20.6825 19.9907C19.6186 17.3372 19.4611 15.6619 19.4941 13.1888C19.5021 12.5876 18.9868 12.1099 18.389 12.174L17.0488 12.3175" stroke="black" stroke-width="1.5" stroke-linecap="round" stroke-linejoin="round"/>
<path d="M3.31766 19.9907C4.29673 17.5012 4.51715 15.8177 4.50055 13.1867C4.49676 12.5863 5.01175 12.1098 5.60871 12.1737L6.95141 12.3175" stroke="black" stroke-width="1.5" stroke-linecap="round" stroke-linejoin="round"/>
<path d="M21.0001 9.19518L19.3586 7.1372C18.9788 6.66115 18.2641 6.63557 17.8513 7.08324L16.1316 8.94833" stroke="black" stroke-width="1.5" stroke-linecap="round" stroke-linejoin="round"/>
<path d="M3.00012 9.19518L4.64167 7.1372C5.02139 6.66115 5.7361 6.63557 6.14889 7.08324L7.86865 8.94833" stroke="black" stroke-width="1.5" stroke-linecap="round" stroke-linejoin="round"/>
<path d="M13.8031 7.21967L14.5929 6.29438C14.861 5.9802 14.9084 5.53347 14.7121 5.17002L14.0853 4.00916" stroke="black" stroke-width="1.5" stroke-linecap="round" stroke-linejoin="round"/>
<path d="M10.1971 7.21967L9.40728 6.29438C9.13912 5.9802 9.09172 5.53347 9.28799 5.17002L9.91487 4.00916" stroke="black" stroke-width="1.5" stroke-linecap="round" stroke-linejoin="round"/>
<path d="M13.1328 18.1914V15.8278" stroke="black" stroke-width="1.5" stroke-linecap="round" stroke-linejoin="round"/>
<path d="M10.8674 18.1914V15.8278" stroke="black" stroke-width="1.5" stroke-linecap="round" stroke-linejoin="round"/>
</svg>
