<svg width="25" height="24" viewBox="0 0 25 24" fill="none" xmlns="http://www.w3.org/2000/svg">
<path d="M21.7527 20.8709C20.3058 22.317 16.7039 21.1858 12.8827 18.341C14.0115 17.5007 15.1593 16.5109 16.2764 15.3938C17.3936 14.2766 18.3835 13.1286 19.2238 11.9998C22.0686 15.821 23.1996 19.4232 21.7527 20.8709Z" fill="black"/>
<path d="M6.54166 11.9998C3.69685 15.821 2.56582 19.4232 4.01275 20.8709C5.45966 22.317 9.06156 21.1858 12.8827 18.341C11.754 17.5007 10.6061 16.5109 9.48904 15.3938C8.37189 14.2766 7.382 13.1286 6.54166 11.9998Z" fill="black"/>
<path d="M12.8827 5.65875C14.0116 6.49914 15.1595 7.48905 16.2766 8.60618C17.3937 9.72324 18.3835 10.8711 19.2238 11.9998C22.0685 8.17844 23.1996 4.57619 21.7535 3.13009C20.3066 1.6824 16.7041 2.8138 12.8827 5.65875Z" fill="black"/>
<path d="M12.8827 5.65875C9.06132 2.8138 5.45884 1.6824 4.01193 3.13009C2.56583 4.57619 3.69696 8.17844 6.54166 11.9998C7.38195 10.8711 8.37176 9.72324 9.48883 8.60618C10.606 7.48905 11.7539 6.49914 12.8827 5.65875Z" fill="black"/>
<path d="M12.8832 10.6019C12.1102 10.6019 11.4843 11.2286 11.4843 12.0008C11.4843 12.773 12.1102 13.3997 12.8832 13.3997C13.6552 13.3997 14.2821 12.7739 14.2821 12.0008C14.2821 11.2277 13.6552 10.6019 12.8832 10.6019Z" fill="black"/>
</svg>