<svg width="25" height="24" viewBox="0 0 25 24" fill="none" xmlns="http://www.w3.org/2000/svg">
<path d="M13.6384 12.085H17.7827C19.0127 12.085 19.9676 13.1573 19.8251 14.3797L19.6707 15.7061H11.1034C10.6892 15.7061 10.3534 16.0418 10.3534 16.4561C10.3534 16.8703 10.6892 17.2061 11.1034 17.2061H19.4961L19.2085 19.6761C19.0878 20.7136 18.209 21.4944 17.1661 21.4944H8.60052C7.55648 21.4944 6.67882 20.7136 6.5581 19.6761L5.94038 14.3797C5.79791 13.1573 6.75278 12.085 7.98279 12.085H12.132C12.1323 11.7067 12.1331 11.3415 12.1347 11.2074C9.99848 11.1425 8.11713 10.4547 6.76117 9.18759C5.24799 7.77353 4.46967 5.71262 4.65815 3.23264C4.68598 2.8646 4.97748 2.57163 5.34516 2.5416C6.19867 2.47263 7.08149 2.49362 7.95307 2.6666C10.1181 3.09458 11.9824 4.56284 12.874 6.53928C13.7538 4.55051 15.6581 3.09201 17.8124 2.6666C18.6835 2.49362 19.5668 2.47263 20.4204 2.5416C20.788 2.57163 21.0795 2.8646 21.1074 3.23264C21.2958 5.71262 20.5175 7.77353 19.0043 9.18759C17.6503 10.453 15.7719 11.1407 13.6396 11.2071C13.6401 11.3416 13.6393 11.7068 13.6384 12.085Z" fill="black"/>
</svg>