<svg width="25" height="24" viewBox="0 0 25 24" fill="none" xmlns="http://www.w3.org/2000/svg">
<path fill-rule="evenodd" clip-rule="evenodd" d="M10.6002 6.29969C10.6002 5.25024 11.4505 4.4 12.4999 4.4C13.5498 4.4 14.4005 5.25064 14.4005 6.29969V12.0213C14.4005 12.319 14.5401 12.5996 14.7777 12.7791C15.7038 13.4791 16.3 14.5686 16.3 15.7999C16.3 17.8985 14.5985 19.6 12.4999 19.6C10.4013 19.6 8.6998 17.8985 8.6998 15.7999C8.6998 14.569 9.29664 13.4793 10.223 12.7791C10.4606 12.5996 10.6002 12.319 10.6002 12.0213V6.29969ZM12.4999 2.5C10.4011 2.5 8.70022 4.2009 8.70022 6.29969V11.5741C7.5449 12.6101 6.7998 14.1099 6.7998 15.7999C6.7998 18.9478 9.352 21.5 12.4999 21.5C15.6478 21.5 18.2 18.9478 18.2 15.7999C18.2 14.1102 17.4559 12.6103 16.3005 11.5741V6.29969C16.3005 4.2005 14.5983 2.5 12.4999 2.5ZM13.4499 13.9123V8.2C13.4499 7.67533 13.0246 7.25 12.4999 7.25C11.9753 7.25 11.5499 7.67533 11.5499 8.2V13.9115C10.8597 14.2594 10.3865 14.9746 10.3865 15.7995C10.3865 16.966 11.3325 17.9114 12.4994 17.9114C13.6656 17.9114 14.6113 16.9657 14.6113 15.7995C14.6113 14.9754 14.139 14.2606 13.4499 13.9123Z" fill="black"/>
</svg>