<svg width="25" height="24" viewBox="0 0 25 24" fill="none" xmlns="http://www.w3.org/2000/svg">
<path fill-rule="evenodd" clip-rule="evenodd" d="M5.31104 10.0723C5.31104 5.89081 8.70079 2.5 12.8833 2.5C17.0649 2.5 20.4546 5.89086 20.4546 10.0723C20.4546 14.0088 17.4504 17.2446 13.6094 17.6102V14.1822L15.685 12.4487C16.0029 12.1832 16.0454 11.7102 15.7799 11.3923C15.5144 11.0744 15.0414 11.0319 14.7235 11.2974L13.6305 12.2102C13.6355 12.1325 13.6283 12.0543 13.6094 11.9788V8.83008C13.6094 8.41586 13.2736 8.08008 12.8594 8.08008C12.4452 8.08008 12.1094 8.41586 12.1094 8.83008V10.5393L11.0433 9.64896C10.7254 9.38344 10.2524 9.42593 9.98687 9.74385C9.72135 10.0618 9.76384 10.5347 10.0818 10.8003L12.1094 12.4936V17.6055C8.2905 17.2178 5.31104 13.9925 5.31104 10.0723ZM12.1094 17.6055V20.9996C12.1094 21.4138 12.4452 21.7496 12.8594 21.7496C13.2736 21.7496 13.6094 21.4138 13.6094 20.9996V17.6102C13.3704 17.6329 13.1282 17.6446 12.8833 17.6446C12.622 17.6446 12.3639 17.6313 12.1094 17.6055Z" fill="black"/>
</svg>