<svg width="25" height="24" viewBox="0 0 25 24" fill="none" xmlns="http://www.w3.org/2000/svg">
<path fill-rule="evenodd" clip-rule="evenodd" d="M14.6777 3.67388C13.9933 2.10914 11.7723 2.10822 11.0886 3.67405L6.15819 14.9575C5.59417 16.2513 6.5406 17.7006 7.95345 17.7006H17.8129C19.2245 17.7006 20.1726 16.2514 19.6071 14.9571L14.6777 3.67388ZM13.6661 9.00781C13.6661 8.5936 13.3304 8.25781 12.9161 8.25781C12.5019 8.25781 12.1661 8.5936 12.1661 9.00781V21.0001C12.1661 21.4144 12.5019 21.7501 12.9161 21.7501C13.3304 21.7501 13.6661 21.4144 13.6661 21.0001V14.3852L15.5972 12.4542C15.8901 12.1613 15.8901 11.6864 15.5972 11.3935C15.3043 11.1006 14.8294 11.1006 14.5365 11.3935L13.6661 12.2639V9.00781Z" fill="black"/>
</svg>