<svg width="24" height="24" viewBox="0 0 24 24" fill="none" xmlns="http://www.w3.org/2000/svg">
<path d="M15.1581 20.671H7.14406C5.81544 20.7151 4.52263 20.2357 3.54405 19.336C3.11282 18.8869 2.77622 18.3558 2.55427 17.7741C2.33233 17.1925 2.22956 16.5721 2.25206 15.95V10.667C2.25191 10.0685 2.4055 9.48003 2.69807 8.95796C2.95836 8.48744 3.32219 8.08223 3.76207 7.77296L9.32805 3.89896C9.85944 3.52556 10.4931 3.3252 11.1426 3.3252C11.792 3.3252 12.4257 3.52556 12.957 3.89896L15.345 5.55595C15.5086 5.66947 15.6203 5.84329 15.6556 6.03917C15.691 6.23505 15.6471 6.43696 15.5336 6.60046C15.42 6.76397 15.2462 6.87569 15.0503 6.91104C14.8545 6.94639 14.6526 6.90247 14.4891 6.78896L12.0971 5.12897C11.818 4.93177 11.4847 4.82588 11.143 4.82588C10.8014 4.82588 10.4681 4.93177 10.1891 5.12897L4.61906 9.00696C4.36609 9.1856 4.15715 9.41952 4.00807 9.69096C3.8389 9.98906 3.75064 10.3262 3.75206 10.669V15.952C3.73177 16.3763 3.79652 16.8004 3.94249 17.1993C4.08846 17.5982 4.31272 17.9639 4.60206 18.275C4.94095 18.5913 5.34137 18.8345 5.77836 18.9894C6.21536 19.1442 6.67959 19.2074 7.14207 19.175H15.1551C15.6145 19.1993 16.0743 19.1322 16.5077 18.9778C16.9411 18.8233 17.3396 18.5844 17.6801 18.275C17.969 17.9637 18.193 17.598 18.3388 17.1991C18.4846 16.8002 18.5493 16.3762 18.5291 15.952V14.421C18.5291 14.222 18.6081 14.0313 18.7487 13.8906C18.8894 13.75 19.0802 13.671 19.2791 13.671C19.478 13.671 19.6687 13.75 19.8094 13.8906C19.9501 14.0313 20.0291 14.222 20.0291 14.421V15.952C20.0515 16.574 19.9488 17.1943 19.7271 17.7759C19.5053 18.3576 19.169 18.8888 18.7381 19.338C18.26 19.7871 17.6971 20.1363 17.0824 20.3652C16.4677 20.5941 15.8135 20.6981 15.1581 20.671Z" fill="black"/>
<path d="M16.6893 12.6081C16.4904 12.6081 16.2996 12.5291 16.1589 12.3885C16.0183 12.2478 15.9393 12.057 15.9393 11.8581V11.1581H15.2393C15.0403 11.1581 14.8496 11.0791 14.7089 10.9385C14.5683 10.7978 14.4893 10.607 14.4893 10.4081C14.4893 10.2092 14.5683 10.0184 14.7089 9.87779C14.8496 9.73714 15.0403 9.65813 15.2393 9.65813H15.9393V8.95312C15.9393 8.75421 16.0183 8.56346 16.1589 8.42281C16.2996 8.28215 16.4904 8.20312 16.6893 8.20312C16.8882 8.20312 17.0789 8.28215 17.2196 8.42281C17.3602 8.56346 17.4393 8.75421 17.4393 8.95312V9.65813H18.1463C18.3452 9.65813 18.5359 9.73714 18.6766 9.87779C18.8172 10.0184 18.8963 10.2092 18.8963 10.4081C18.8963 10.607 18.8172 10.7978 18.6766 10.9385C18.5359 11.0791 18.3452 11.1581 18.1463 11.1581H17.4393V11.8581C17.4393 12.057 17.3602 12.2478 17.2196 12.3885C17.0789 12.5291 16.8882 12.6081 16.6893 12.6081Z" fill="black"/>
<path d="M16.689 15.4648C15.6878 15.4646 14.7092 15.1675 13.8768 14.6112C13.0445 14.0548 12.3958 13.2641 12.0129 12.339C11.6299 11.414 11.5299 10.3962 11.7254 9.41429C11.9209 8.43239 12.4032 7.53053 13.1113 6.82273C13.8194 6.11494 14.7214 5.63302 15.7034 5.43789C16.6854 5.24277 17.7031 5.34321 18.628 5.72653C19.5529 6.10984 20.3433 6.7588 20.8994 7.59135C21.4555 8.4239 21.7521 9.40265 21.7519 10.4038C21.7504 11.7459 21.2164 13.0326 20.2671 13.9814C19.3179 14.9303 18.0311 15.4638 16.689 15.4648ZM16.689 6.84182C15.9845 6.84202 15.2959 7.05109 14.7103 7.44261C14.1247 7.83413 13.6682 8.39051 13.3988 9.04139C13.1293 9.69228 13.0589 10.4085 13.1965 11.0993C13.334 11.7902 13.6734 12.4248 14.1716 12.9229C14.6698 13.4209 15.3045 13.7601 15.9954 13.8975C16.6863 14.0348 17.4025 13.9642 18.0533 13.6946C18.7041 13.4249 19.2603 12.9684 19.6517 12.3827C20.043 11.7969 20.2519 11.1083 20.2519 10.4038C20.2511 9.45919 19.8755 8.55349 19.2074 7.88563C18.5394 7.21777 17.6336 6.84235 16.689 6.84182Z" fill="black"/>
<path d="M11.1697 15.5085C10.3123 15.5072 9.48035 15.2165 8.80871 14.6835L2.88571 9.90947C2.73082 9.78455 2.63191 9.60323 2.61072 9.40538C2.58952 9.20753 2.64779 9.00936 2.7727 8.85447C2.89762 8.69959 3.07897 8.60066 3.27682 8.57946C3.47467 8.55827 3.67284 8.61655 3.82773 8.74147L9.74371 13.5105C10.1494 13.8334 10.6526 14.0093 11.1712 14.0093C11.6898 14.0093 12.193 13.8334 12.5987 13.5105L13.2767 12.9605C13.3533 12.8985 13.4413 12.8522 13.5357 12.8242C13.6302 12.7962 13.7292 12.7872 13.8272 12.7975C13.9252 12.8078 14.0202 12.8373 14.1067 12.8843C14.1933 12.9313 14.2697 12.9949 14.3317 13.0715C14.3937 13.148 14.44 13.236 14.468 13.3305C14.4959 13.425 14.505 13.524 14.4947 13.622C14.4844 13.7199 14.4549 13.8149 14.4079 13.9015C14.3609 13.988 14.2973 14.0645 14.2207 14.1265L13.5367 14.6795C12.8646 15.2163 12.0299 15.5086 11.1697 15.5085Z" fill="black"/>
</svg>
