<svg width="24" height="24" viewBox="0 0 24 24" fill="none" xmlns="http://www.w3.org/2000/svg">
<path d="M16.431 20.8499H7.56701C6.89159 20.8593 6.22114 20.733 5.59539 20.4787C4.96963 20.2243 4.40129 19.8469 3.92401 19.3689C3.37586 18.8018 2.94565 18.1316 2.65831 17.3971C2.37096 16.6626 2.23218 15.8784 2.25001 15.0899V8.9129C2.20606 8.18075 2.31067 7.44727 2.55756 6.7566C2.80445 6.06593 3.1885 5.43235 3.68662 4.89396C4.18474 4.35558 4.78662 3.92353 5.45606 3.62381C6.1255 3.32408 6.84865 3.16288 7.58201 3.1499H16.418C17.1514 3.16288 17.8745 3.32408 18.544 3.62381C19.2134 3.92353 19.8153 4.35558 20.3134 4.89396C20.8115 5.43235 21.1956 6.06593 21.4424 6.7566C21.6893 7.44727 21.794 8.18075 21.75 8.9129V15.0899C21.7673 15.8777 21.6283 16.6612 21.3409 17.395C21.0536 18.1287 20.6237 18.7983 20.076 19.3649C19.5988 19.8438 19.0303 20.222 18.4041 20.4771C17.778 20.7322 17.107 20.859 16.431 20.8499ZM7.58001 19.3499H16.429C16.9081 19.3582 17.384 19.2702 17.8284 19.091C18.2728 18.9119 18.6767 18.6452 19.016 18.3069C19.4241 17.8788 19.7432 17.3741 19.955 16.8219C20.1668 16.2697 20.2671 15.6811 20.25 15.0899V8.9129C20.25 6.4429 18.639 4.6499 16.418 4.6499H7.58201C5.36101 4.6499 3.75001 6.4429 3.75001 8.9129V15.0899C3.73345 15.6804 3.83396 16.2683 4.04575 16.8198C4.25755 17.3712 4.57643 17.8753 4.98401 18.3029C5.32308 18.641 5.72661 18.9076 6.17066 19.0867C6.61471 19.2659 7.09024 19.354 7.56901 19.3459L7.58001 19.3499Z" fill="black"/>
<path d="M12.0253 13.6188C11.3889 13.6185 10.7715 13.402 10.2743 13.0048L6.2363 9.74979C6.08142 9.62488 5.98249 9.44355 5.9613 9.2457C5.94011 9.04785 5.99839 8.84968 6.1233 8.69479C6.24822 8.53991 6.42955 8.44099 6.6274 8.4198C6.82525 8.39861 7.02342 8.45688 7.1783 8.58179L11.2113 11.8338C11.4435 12.0194 11.732 12.1206 12.0293 12.1206C12.3266 12.1206 12.6151 12.0194 12.8473 11.8338L16.8393 8.58779C16.9937 8.46221 17.1916 8.4031 17.3895 8.42344C17.5875 8.44379 17.7692 8.54194 17.8948 8.69629C18.0204 8.85065 18.0795 9.04857 18.0592 9.24652C18.0388 9.44446 17.9407 9.62621 17.7863 9.75179L13.7863 13.0038C13.2858 13.4021 12.665 13.6189 12.0253 13.6188Z" fill="black"/>
</svg>
