<svg width="24" height="24" viewBox="0 0 24 24" fill="none" xmlns="http://www.w3.org/2000/svg">
<path d="M16.431 20.8499H7.58198C6.90493 20.856 6.23335 20.7283 5.60578 20.4741C4.97821 20.22 4.40703 19.8444 3.92499 19.3689C3.37653 18.802 2.94604 18.1318 2.65851 17.3973C2.37099 16.6628 2.23215 15.8785 2.25001 15.0899V8.9129C2.20606 8.18074 2.31067 7.44727 2.55756 6.7566C2.80445 6.06593 3.18853 5.43234 3.68665 4.89396C4.18477 4.35558 4.78662 3.92353 5.45606 3.6238C6.1255 3.32408 6.84862 3.16288 7.58198 3.1499H16.418C17.1514 3.16288 17.8745 3.32408 18.544 3.6238C19.2134 3.92353 19.8152 4.35558 20.3134 4.89396C20.8115 5.43234 21.1956 6.06593 21.4424 6.7566C21.6893 7.44727 21.794 8.18074 21.75 8.9129V15.0899C21.7673 15.8778 21.6282 16.6614 21.3407 17.3952C21.0532 18.129 20.623 18.7985 20.075 19.3649C19.5981 19.8439 19.0297 20.2221 18.4038 20.4772C17.7778 20.7323 17.1069 20.8591 16.431 20.8499ZM7.58002 19.3499H16.429C16.9082 19.358 17.3842 19.2699 17.8287 19.0908C18.2733 18.9116 18.6774 18.6451 19.017 18.3069C19.4248 17.8786 19.7436 17.3739 19.9553 16.8217C20.1669 16.2696 20.2671 15.681 20.25 15.0899V8.9129C20.25 6.4429 18.639 4.6499 16.418 4.6499H7.58198C5.36098 4.6499 3.75001 6.4429 3.75001 8.9129V15.0899C3.73348 15.6803 3.83393 16.2682 4.04554 16.8196C4.25715 17.371 4.57572 17.8751 4.98298 18.3029C5.68275 18.9714 6.61227 19.3461 7.58002 19.3499Z" fill="black"/>
<path d="M12.9915 16.6323H6.69141C6.49249 16.6323 6.30172 16.5533 6.16107 16.4126C6.02042 16.272 5.94141 16.0812 5.94141 15.8823C5.94141 15.6834 6.02042 15.4926 6.16107 15.352C6.30172 15.2113 6.49249 15.1323 6.69141 15.1323H12.9915C13.1904 15.1323 13.3811 15.2113 13.5217 15.352C13.6624 15.4926 13.7415 15.6834 13.7415 15.8823C13.7415 16.0812 13.6624 16.272 13.5217 16.4126C13.3811 16.5533 13.1904 16.6323 12.9915 16.6323ZM9.39142 13.7583H6.69141C6.49249 13.7583 6.30172 13.6793 6.16107 13.5386C6.02042 13.398 5.94141 13.2072 5.94141 13.0083C5.94141 12.8094 6.02042 12.6186 6.16107 12.478C6.30172 12.3373 6.49249 12.2583 6.69141 12.2583H9.39142C9.59033 12.2583 9.7811 12.3373 9.92175 12.478C10.0624 12.6186 10.1414 12.8094 10.1414 13.0083C10.1414 13.2072 10.0624 13.398 9.92175 13.5386C9.7811 13.6793 9.59033 13.7583 9.39142 13.7583Z" fill="black"/>
<path d="M16.751 11.5664H14.266C13.9194 11.5662 13.5872 11.4284 13.3421 11.1833C13.097 10.9383 12.9592 10.606 12.959 10.2594V8.22643C12.9592 7.87988 13.097 7.54759 13.3421 7.30254C13.5872 7.05748 13.9194 6.9197 14.266 6.91943H16.751C17.0976 6.9197 17.43 7.05745 17.6752 7.30247C17.9204 7.5475 18.0585 7.87978 18.059 8.22643V10.2594C18.0585 10.6061 17.9204 10.9384 17.6752 11.1834C17.43 11.4284 17.0976 11.5662 16.751 11.5664ZM14.459 10.0664H16.559V8.41943H14.459V10.0664Z" fill="black"/>
</svg>
