<svg width="24" height="24" viewBox="0 0 24 24" fill="none" xmlns="http://www.w3.org/2000/svg">
<path fill-rule="evenodd" clip-rule="evenodd" d="M6.75391 20.3438C6.75391 19.9295 7.08969 19.5938 7.50391 19.5938H16.4942C16.9084 19.5938 17.2442 19.9295 17.2442 20.3438C17.2442 20.758 16.9084 21.0938 16.4942 21.0938H7.50391C7.08969 21.0938 6.75391 20.758 6.75391 20.3438Z" fill="black"/>
<path fill-rule="evenodd" clip-rule="evenodd" d="M2.25 7.68533C2.25 5.04605 4.38956 2.90625 7.02811 2.90625H16.9709C19.6103 2.90625 21.75 5.04593 21.75 7.68533V13.1418C21.75 15.7812 19.6103 17.9208 16.9709 17.9208H7.02811C4.38956 17.9208 2.25 15.781 2.25 13.1418V7.68533ZM7.02811 4.40625C5.21822 4.40625 3.75 5.87424 3.75 7.68533V13.1418C3.75 14.9529 5.21822 16.4208 7.02811 16.4208H16.9709C18.7819 16.4208 20.25 14.9527 20.25 13.1418V7.68533C20.25 5.87436 18.7819 4.40625 16.9709 4.40625H7.02811Z" fill="black"/>
<path fill-rule="evenodd" clip-rule="evenodd" d="M10.0587 7.21589C10.3686 7.31575 10.5787 7.60415 10.5787 7.92974V11.0152H10.7871C11.2013 11.0152 11.5371 11.351 11.5371 11.7652C11.5371 12.1794 11.2013 12.5152 10.7871 12.5152H10.5787V12.8968C10.5787 13.311 10.2429 13.6468 9.82869 13.6468C9.41448 13.6468 9.07869 13.311 9.07869 12.8968V12.5152H7.07032C6.78894 12.5152 6.53123 12.3577 6.40289 12.1073C6.27454 11.8569 6.29714 11.5557 6.46143 11.3273L9.21981 7.49184C9.40991 7.22751 9.74884 7.11603 10.0587 7.21589ZM9.07869 11.0152V10.2571L8.53351 11.0152H9.07869Z" fill="black"/>
<path fill-rule="evenodd" clip-rule="evenodd" d="M13.0469 7.33594C13.4611 7.33594 13.7969 7.67172 13.7969 8.08594V12.7367C13.7969 13.151 13.4611 13.4867 13.0469 13.4867C12.6327 13.4867 12.2969 13.151 12.2969 12.7367V8.08594C12.2969 7.67172 12.6327 7.33594 13.0469 7.33594Z" fill="black"/>
<path fill-rule="evenodd" clip-rule="evenodd" d="M16.7654 7.77201C17.0315 8.0894 16.99 8.56246 16.6726 8.82861L14.7844 10.412L16.6726 11.9953C16.99 12.2615 17.0315 12.7346 16.7654 13.0519C16.4992 13.3693 16.0262 13.4109 15.7088 13.1447L13.1353 10.9867C12.9653 10.8442 12.8672 10.6338 12.8672 10.412C12.8672 10.1902 12.9653 9.97979 13.1353 9.83729L15.7088 7.67924C16.0262 7.41309 16.4992 7.45462 16.7654 7.77201Z" fill="black"/>
</svg>
