<svg width="24" height="24" viewBox="0 0 24 24" fill="none" xmlns="http://www.w3.org/2000/svg">
<path fill-rule="evenodd" clip-rule="evenodd" d="M3.7402 3.89737C4.72468 2.84117 6.12669 2.25 7.78216 2.25H16.2169C17.8762 2.25 19.2788 2.84084 20.2629 3.89765C21.2413 4.94841 21.75 6.39889 21.75 8.02638V15.9736C21.75 17.6011 21.2413 19.0516 20.2627 20.1024C19.2785 21.1592 17.8756 21.75 16.2159 21.75H7.78216C6.1228 21.75 4.72038 21.1591 3.73657 20.1023C2.75842 19.0515 2.25 17.601 2.25 15.9736V8.02638C2.25 6.39806 2.76117 4.94771 3.7402 3.89737ZM4.83745 4.92012C4.16024 5.64666 3.75 6.70951 3.75 8.02638V15.9736C3.75 17.2914 4.15861 18.3541 4.83451 19.0802C5.50475 19.8003 6.49341 20.25 7.78216 20.25H16.2159C17.5052 20.25 18.4944 19.8002 19.165 19.0801C19.8412 18.354 20.25 17.2913 20.25 15.9736V8.02638C20.25 6.70868 19.8412 5.64597 19.1651 4.91984C18.4946 4.19975 17.5056 3.75 16.2169 3.75H7.78216C6.49828 3.75 5.50921 4.19943 4.83745 4.92012Z" fill="black"/>
<path fill-rule="evenodd" clip-rule="evenodd" d="M10.2825 8.60261C10.5924 8.70247 10.8025 8.99087 10.8025 9.31646V12.7133H11.0887C11.5029 12.7133 11.8387 13.0491 11.8387 13.4633C11.8387 13.8775 11.5029 14.2133 11.0887 14.2133H10.8025V14.6863C10.8025 15.1005 10.4667 15.4363 10.0525 15.4363C9.63826 15.4363 9.30248 15.1005 9.30248 14.6863V14.2133H7.07032C6.78894 14.2133 6.53124 14.0558 6.40289 13.8054C6.27454 13.555 6.29714 13.2538 6.46142 13.0254L9.44358 8.87857C9.63368 8.61424 9.97261 8.50274 10.2825 8.60261ZM9.30248 12.7133V11.6439L8.53348 12.7133H9.30248Z" fill="black"/>
<path fill-rule="evenodd" clip-rule="evenodd" d="M13.5293 8.73438C13.9435 8.73438 14.2793 9.07016 14.2793 9.48438V14.5117C14.2793 14.9259 13.9435 15.2617 13.5293 15.2617C13.1151 15.2617 12.7793 14.9259 12.7793 14.5117V9.48438C12.7793 9.07016 13.1151 8.73438 13.5293 8.73438Z" fill="black"/>
<path fill-rule="evenodd" clip-rule="evenodd" d="M17.5029 9.18613C17.7691 9.50354 17.7275 9.97659 17.4101 10.2427L15.3137 12.0003L17.4102 13.7588C17.7275 14.0249 17.769 14.498 17.5028 14.8154C17.2367 15.1327 16.7636 15.1742 16.4462 14.908L13.6645 12.5748C13.4946 12.4323 13.3965 12.2219 13.3965 12.0001C13.3965 11.7784 13.4947 11.568 13.6646 11.4255L16.4464 9.09326C16.7638 8.82713 17.2368 8.86872 17.5029 9.18613Z" fill="black"/>
</svg>
