<svg width="24" height="24" viewBox="0 0 24 24" fill="none" xmlns="http://www.w3.org/2000/svg">
<path fill-rule="evenodd" clip-rule="evenodd" d="M12.7497 4.5C8.66424 4.5 5.34198 7.76647 5.25177 11.8295C5.24258 12.2436 4.89942 12.5718 4.48531 12.5627C4.0712 12.5535 3.74295 12.2103 3.75214 11.7962C3.86041 6.91974 7.84696 3 12.7497 3C17.7203 3 21.7493 7.03014 21.7493 11.9996C21.7493 16.9702 17.7202 20.9993 12.7497 20.9993C9.67635 20.9993 6.96313 19.4589 5.3404 17.1097C5.10498 16.7689 5.19042 16.3017 5.53124 16.0663C5.87205 15.8309 6.33917 15.9164 6.57459 16.2572C7.92908 18.2181 10.1896 19.4993 12.7497 19.4993C16.8918 19.4993 20.2493 16.1418 20.2493 11.9996C20.2493 7.85845 16.8917 4.5 12.7497 4.5Z" fill="black"/>
<path fill-rule="evenodd" clip-rule="evenodd" d="M2.62545 9.1512C2.98427 8.94427 3.4429 9.06741 3.64983 9.42623L4.5555 10.9967L6.11337 10.0979C6.47216 9.89096 6.93081 10.014 7.1378 10.3728C7.34478 10.7316 7.22172 11.1902 6.86294 11.3972L4.65531 12.6708C4.483 12.7702 4.27825 12.7971 4.08611 12.7455C3.89398 12.694 3.7302 12.5682 3.63082 12.3959L2.35042 10.1756C2.14349 9.81676 2.26663 9.35813 2.62545 9.1512Z" fill="black"/>
<path fill-rule="evenodd" clip-rule="evenodd" d="M8.17383 10.5552C8.17383 9.34217 9.15663 8.35938 10.3696 8.35938C11.5813 8.35938 12.5654 9.34184 12.5654 10.5552C12.5654 11.1088 12.3603 11.6144 12.022 12.0004C12.36 12.3866 12.5649 12.8923 12.5649 13.4455C12.5649 14.6569 11.5828 15.6413 10.3701 15.6413C9.15677 15.6413 8.1743 14.6572 8.1743 13.4455C8.1743 13.0313 8.51009 12.6955 8.9243 12.6955C9.33852 12.6955 9.6743 13.0313 9.6743 13.4455C9.6743 13.8295 9.98586 14.1413 10.3701 14.1413C10.7531 14.1413 11.0649 13.8298 11.0649 13.4455C11.0649 13.0618 10.7531 12.75 10.3696 12.75C9.95542 12.75 9.61963 12.4142 9.61963 12C9.61963 11.5858 9.95542 11.25 10.3696 11.25C10.7539 11.25 11.0654 10.9381 11.0654 10.5552C11.0654 10.1709 10.7536 9.85938 10.3696 9.85938C9.98505 9.85938 9.67383 10.1706 9.67383 10.5552C9.67383 10.9694 9.33804 11.3052 8.92383 11.3052C8.50961 11.3052 8.17383 10.9694 8.17383 10.5552Z" fill="black"/>
<path fill-rule="evenodd" clip-rule="evenodd" d="M15.5406 9.90234C15.024 9.90234 14.6055 10.3213 14.6055 10.8375V13.1609C14.6055 13.6771 15.024 14.096 15.5406 14.096C16.0572 14.096 16.4758 13.6771 16.4758 13.1609V10.8375C16.4758 10.3213 16.0572 9.90234 15.5406 9.90234ZM13.1055 10.8375C13.1055 9.49342 14.195 8.40234 15.5406 8.40234C16.8862 8.40234 17.9758 9.49342 17.9758 10.8375V13.1609C17.9758 14.505 16.8862 15.596 15.5406 15.596C14.195 15.596 13.1055 14.505 13.1055 13.1609V10.8375Z" fill="black"/>
</svg>
