<svg width="24" height="24" viewBox="0 0 24 24" fill="none" xmlns="http://www.w3.org/2000/svg">
<path fill-rule="evenodd" clip-rule="evenodd" d="M4.45587 17.1343C4.7787 16.8747 5.25079 16.926 5.51033 17.2488C5.82948 17.6458 6.19307 18.0097 6.58449 18.3315C6.90446 18.5945 6.95061 19.0672 6.68757 19.3871C6.42453 19.7071 5.9519 19.7532 5.63193 19.4902C5.16482 19.1062 4.7279 18.6696 4.34129 18.1887C4.08175 17.8659 4.13305 17.3938 4.45587 17.1343Z" fill="black"/>
<path fill-rule="evenodd" clip-rule="evenodd" d="M2.88735 12.6883C3.29685 12.626 3.6793 12.9075 3.74158 13.317C3.82824 13.8869 3.98409 14.4447 4.18669 14.9731C4.33499 15.3598 4.14168 15.7936 3.75493 15.9419C3.36817 16.0902 2.93442 15.8969 2.78612 15.5101C2.5498 14.8938 2.3634 14.2315 2.25863 13.5426C2.19635 13.133 2.47784 12.7506 2.88735 12.6883Z" fill="black"/>
<path fill-rule="evenodd" clip-rule="evenodd" d="M3.83091 7.91294C4.21349 8.0717 4.39493 8.51055 4.23617 8.89313C4.00312 9.45473 3.83721 10.0533 3.74157 10.682C3.67928 11.0915 3.29682 11.373 2.88732 11.3107C2.47781 11.2484 2.19634 10.866 2.25863 10.4565C2.37183 9.71231 2.56944 8.99604 2.85073 8.3182C3.00949 7.93562 3.44833 7.75418 3.83091 7.91294Z" fill="black"/>
<path fill-rule="evenodd" clip-rule="evenodd" d="M6.80149 4.49505C7.06527 4.81441 7.02022 5.28714 6.70087 5.55093C6.29359 5.88734 5.92581 6.24672 5.59448 6.63901C5.32721 6.95546 4.85401 6.99533 4.53756 6.72806C4.22112 6.46079 4.18125 5.98759 4.44852 5.67114C4.8423 5.20491 5.27503 4.78312 5.74561 4.39443C6.06497 4.13064 6.5377 4.17569 6.80149 4.49505Z" fill="black"/>
<path fill-rule="evenodd" clip-rule="evenodd" d="M11.2543 2.94422C11.3175 3.35358 11.0369 3.73669 10.6276 3.79991C10.0607 3.88747 9.50413 4.03585 8.97504 4.24326C8.58941 4.39444 8.15423 4.20438 8.00305 3.81874C7.85187 3.4331 8.04193 2.99792 8.42757 2.84674C9.06252 2.59783 9.7261 2.42136 10.3986 2.31749C10.808 2.25426 11.1911 2.53486 11.2543 2.94422ZM7.79883 20.401C7.79883 19.9868 8.13461 19.651 8.54883 19.651H8.5585C8.65715 19.651 8.75484 19.6705 8.84596 19.7083C9.40796 19.9415 10.0071 20.1075 10.6268 20.2031C11.0361 20.2663 11.3168 20.6494 11.2536 21.0587C11.1905 21.4681 10.8074 21.7488 10.398 21.6856C9.68762 21.576 8.99414 21.3874 8.33596 21.1204C8.02543 21.0286 7.79883 20.7413 7.79883 20.401Z" fill="black"/>
<path fill-rule="evenodd" clip-rule="evenodd" d="M12.6321 2.94331C12.6958 2.53402 13.0793 2.2539 13.4885 2.31763C14.2185 2.43129 14.9328 2.62665 15.6092 2.9067C16.5811 3.29022 17.477 3.83743 18.26 4.50574C18.7337 4.89648 19.1679 5.33156 19.5524 5.80848C20.2006 6.60223 20.7271 7.49965 21.0995 8.47994C21.3487 9.11395 21.5234 9.77566 21.627 10.4548C21.7098 10.9621 21.7503 11.4779 21.7503 12.0016C21.7503 12.5256 21.7097 13.0416 21.6269 13.549C21.5158 14.2709 21.3274 14.9469 21.0614 15.6014C21.0553 15.6216 21.0484 15.6415 21.0407 15.6612C20.6568 16.6362 20.1089 17.5243 19.4419 18.3056C19.0536 18.787 18.6076 19.2212 18.1364 19.6011C17.3429 20.2491 16.4346 20.7865 15.4509 21.1595L15.4496 21.16C14.827 21.3948 14.1664 21.581 13.4876 21.6858C13.0783 21.749 12.6952 21.4684 12.6319 21.0591C12.5687 20.6497 12.8493 20.2666 13.2587 20.2034C13.8193 20.1168 14.3788 19.9607 14.9202 19.7566C15.7451 19.4435 16.514 18.9897 17.1893 18.4379L17.1933 18.4347L17.1933 18.4347C17.5943 18.1116 17.9648 17.7488 18.2801 17.3567C18.2835 17.3525 18.287 17.3482 18.2905 17.3441C18.2919 17.3424 18.2933 17.3407 18.2948 17.339C18.8505 16.6896 19.303 15.9603 19.6223 15.1685C19.6301 15.1416 19.6394 15.1152 19.6501 15.0893C19.8843 14.525 20.0487 13.9442 20.1449 13.3177L20.146 13.3105L20.146 13.3105C20.2156 12.8851 20.2503 12.449 20.2503 12.0016C20.2503 11.5543 20.2156 11.1182 20.146 10.6928L20.1447 10.6845L20.1447 10.6845C20.057 10.1079 19.9096 9.55241 19.702 9.02502L19.6986 9.01627L19.6986 9.01625C19.385 8.18919 18.94 7.42974 18.3892 6.75561L18.386 6.75163L18.386 6.75162C18.0665 6.35516 17.7026 5.98993 17.301 5.65916L17.2906 5.65052L17.2906 5.65043C16.6264 5.08275 15.8692 4.62118 15.0533 4.2999L15.0405 4.29488L15.0406 4.29477C14.4794 4.06188 13.8791 3.89652 13.2578 3.79977C12.8485 3.73604 12.5684 3.35259 12.6321 2.94331Z" fill="black"/>
<path fill-rule="evenodd" clip-rule="evenodd" d="M12 7.78125C12.1994 7.7813 12.3906 7.86074 12.5313 8.00204L15.2356 10.7178C15.5279 11.0113 15.5269 11.4862 15.2334 11.7784C14.9399 12.0707 14.465 12.0697 14.1727 11.7762L12.7498 10.3473V15.4681C12.7498 15.8823 12.414 16.2181 11.9998 16.2181C11.5856 16.2181 11.2498 15.8823 11.2498 15.4681V10.3461L9.82417 11.7765C9.53175 12.0698 9.05688 12.0706 8.76351 11.7782C8.47014 11.4858 8.46936 11.0109 8.76177 10.7175L11.4686 8.00179C11.6094 7.86056 11.8006 7.7812 12 7.78125Z" fill="black"/>
</svg>
