<svg width="24" height="24" viewBox="0 0 24 24" fill="none" xmlns="http://www.w3.org/2000/svg">
<path fill-rule="evenodd" clip-rule="evenodd" d="M3.7402 3.89737C4.72468 2.84117 6.12669 2.25 7.78216 2.25H16.2169C17.8762 2.25 19.2788 2.84084 20.2629 3.89765C21.2413 4.94841 21.75 6.39889 21.75 8.02638V15.9736C21.75 17.6011 21.2413 19.0516 20.2627 20.1024C19.2785 21.1592 17.8756 21.75 16.2159 21.75H7.78216C6.1228 21.75 4.72038 21.1591 3.73657 20.1023C2.75842 19.0515 2.25 17.601 2.25 15.9736V8.02638C2.25 6.39806 2.76117 4.94771 3.7402 3.89737ZM4.83745 4.92012C4.16024 5.64666 3.75 6.70951 3.75 8.02638V15.9736C3.75 17.2914 4.15861 18.3541 4.83451 19.0802C5.50475 19.8003 6.49341 20.25 7.78216 20.25H16.2159C17.5052 20.25 18.4944 19.8002 19.165 19.0801C19.8412 18.354 20.25 17.2913 20.25 15.9736V8.02638C20.25 6.70868 19.8412 5.64597 19.1651 4.91984C18.4946 4.19975 17.5056 3.75 16.2169 3.75H7.78216C6.49828 3.75 5.50921 4.19943 4.83745 4.92012Z" fill="black"/>
<path fill-rule="evenodd" clip-rule="evenodd" d="M12.8496 9.30078C12.8496 8.88657 13.1854 8.55078 13.5996 8.55078H14.4986C16.4028 8.55078 17.9457 10.0954 17.9457 11.9988C17.9457 13.9027 16.4025 15.4459 14.4986 15.4459H13.5996C13.1854 15.4459 12.8496 15.1101 12.8496 14.6959V9.30078ZM14.3496 10.0508V13.9459H14.4986C15.574 13.9459 16.4457 13.0742 16.4457 11.9988C16.4457 10.9231 15.5737 10.0508 14.4986 10.0508H14.3496Z" fill="black"/>
<path fill-rule="evenodd" clip-rule="evenodd" d="M7.30664 8.55078C7.72085 8.55078 8.05664 8.88657 8.05664 9.30078V11.2485H10.1535V9.30078C10.1535 8.88657 10.4893 8.55078 10.9035 8.55078C11.3177 8.55078 11.6535 8.88657 11.6535 9.30078V11.9803C11.6536 11.9864 11.6537 11.9925 11.6537 11.9985C11.6537 12.0046 11.6536 12.0107 11.6535 12.0168V14.6959C11.6535 15.1101 11.3177 15.4459 10.9035 15.4459C10.4893 15.4459 10.1535 15.1101 10.1535 14.6959V12.7485H8.05664V14.6959C8.05664 15.1101 7.72085 15.4459 7.30664 15.4459C6.89243 15.4459 6.55664 15.1101 6.55664 14.6959V9.30078C6.55664 8.88657 6.89243 8.55078 7.30664 8.55078Z" fill="black"/>
</svg>
