<svg width="24" height="24" viewBox="0 0 24 24" fill="none" xmlns="http://www.w3.org/2000/svg">
<path fill-rule="evenodd" clip-rule="evenodd" d="M4.12426 3.82747C5.06708 2.81495 6.41012 2.25 7.99601 2.25H16.0077C17.5936 2.25 18.9363 2.81498 19.8786 3.82764C20.8153 4.8342 21.3006 6.22201 21.3006 7.77583V16.2251C21.3006 17.78 20.8125 19.1674 19.8749 20.1733C18.9318 21.185 17.5896 21.75 16.0077 21.75H7.99503C6.40967 21.75 5.06689 21.1853 4.12418 20.1731C3.18707 19.1668 2.70117 17.7792 2.70117 16.2251V7.77583C2.70117 6.22179 3.18707 4.83396 4.12426 3.82747ZM5.22204 4.84967C4.58711 5.53154 4.20117 6.53162 4.20117 7.77583V16.2251C4.20117 17.4693 4.5871 18.4692 5.22188 19.1508C5.85105 19.8264 6.78019 20.25 7.99503 20.25H16.0077C17.2182 20.25 18.1474 19.8267 18.7777 19.1505C19.4134 18.4685 19.8006 17.4686 19.8006 16.2251V7.77583C19.8006 6.5314 19.415 5.5313 18.7805 4.8495C18.1517 4.17381 17.223 3.75 16.0077 3.75H7.99601C6.78072 3.75 5.85134 4.17384 5.22204 4.84967Z" fill="black"/>
<path fill-rule="evenodd" clip-rule="evenodd" d="M13.2628 13.8711C12.8866 13.8711 12.582 14.1757 12.582 14.5519V15.8677C12.582 16.2439 12.8866 16.5485 13.2628 16.5485H15.4392C15.8155 16.5485 16.12 16.2439 16.12 15.8677V14.5519C16.12 14.1757 15.8155 13.8711 15.4392 13.8711H13.2628ZM11.082 14.5519C11.082 13.3472 12.0582 12.3711 13.2628 12.3711H15.4392C16.6439 12.3711 17.62 13.3472 17.62 14.5519V15.8677C17.62 17.0723 16.6439 18.0485 15.4392 18.0485H13.2628C12.0582 18.0485 11.082 17.0723 11.082 15.8677V14.5519Z" fill="black"/>
<path fill-rule="evenodd" clip-rule="evenodd" d="M9.02344 2.25C9.43765 2.25 9.77344 2.58579 9.77344 3V7.47563C9.77344 7.88985 9.43765 8.22563 9.02344 8.22563C8.60922 8.22563 8.27344 7.88985 8.27344 7.47563V3C8.27344 2.58579 8.60922 2.25 9.02344 2.25ZM14.9766 2.25C15.3908 2.25 15.7266 2.58579 15.7266 3V7.47563C15.7266 7.88985 15.3908 8.22563 14.9766 8.22563C14.5624 8.22563 14.2266 7.88985 14.2266 7.47563V3C14.2266 2.58579 14.5624 2.25 14.9766 2.25Z" fill="black"/>
<path fill-rule="evenodd" clip-rule="evenodd" d="M2.70703 7.47656C2.70703 7.06235 3.04282 6.72656 3.45703 6.72656H20.5428C20.957 6.72656 21.2928 7.06235 21.2928 7.47656C21.2928 7.89078 20.957 8.22656 20.5428 8.22656H3.45703C3.04282 8.22656 2.70703 7.89078 2.70703 7.47656Z" fill="black"/>
</svg>
