<svg width="24" height="24" viewBox="0 0 24 24" fill="none" xmlns="http://www.w3.org/2000/svg">
<path d="M12.6527 20.8953C10.8529 20.8953 9.09354 20.3616 7.59705 19.3617C6.10057 18.3618 4.93419 16.9405 4.24543 15.2777C3.55667 13.6149 3.37647 11.7852 3.72759 10.02C4.07872 8.25478 4.94541 6.6333 6.21807 5.36065C7.49073 4.08799 9.11219 3.22129 10.8774 2.87017C12.6426 2.51904 14.4723 2.69926 16.1352 3.38802C17.798 4.07678 19.2192 5.24316 20.2191 6.73964C21.219 8.23613 21.7527 9.9955 21.7527 11.7953C21.7509 14.2082 20.7915 16.5218 19.0854 18.228C17.3792 19.9341 15.0656 20.8935 12.6527 20.8953ZM12.6527 4.19533C11.1496 4.19533 9.68023 4.64106 8.43041 5.47616C7.1806 6.31125 6.20648 7.4982 5.63125 8.88692C5.05602 10.2756 4.90552 11.8037 5.19877 13.278C5.49202 14.7523 6.21585 16.1065 7.27873 17.1693C8.3416 18.2322 9.6958 18.956 11.1701 19.2493C12.6443 19.5425 14.1724 19.392 15.5611 18.8168C16.9499 18.2416 18.1368 17.2675 18.9719 16.0177C19.807 14.7678 20.2527 13.2984 20.2527 11.7953C20.2485 9.78179 19.4462 7.85209 18.0215 6.42916C16.5969 5.00623 14.6663 4.20618 12.6527 4.20434V4.19533Z" fill="black"/>
<path d="M12.6513 9.9784C12.2316 9.9784 11.8213 9.85393 11.4724 9.62076C11.1234 9.38759 10.8514 9.05617 10.6908 8.66843C10.5302 8.28068 10.4882 7.85404 10.5701 7.44242C10.6519 7.03079 10.8541 6.65267 11.1508 6.3559C11.4476 6.05913 11.8257 5.85703 12.2373 5.77515C12.6489 5.69327 13.0756 5.7353 13.4634 5.89591C13.8511 6.05652 14.1825 6.3285 14.4157 6.67746C14.6488 7.02642 14.7733 7.43669 14.7733 7.85639C14.7725 8.41893 14.5487 8.95821 14.1509 9.35599C13.7531 9.75377 13.2138 9.9776 12.6513 9.9784ZM12.6513 7.2334C12.5283 7.2334 12.4081 7.26983 12.3058 7.33814C12.2036 7.40644 12.1238 7.50353 12.0767 7.61713C12.0296 7.73073 12.0173 7.85575 12.0412 7.97638C12.0651 8.09701 12.1242 8.20784 12.2111 8.29486C12.298 8.38189 12.4087 8.44119 12.5293 8.4653C12.6499 8.48942 12.775 8.47725 12.8886 8.43033C13.0023 8.38341 13.0995 8.30385 13.168 8.20169C13.2365 8.09954 13.2731 7.97936 13.2733 7.85639C13.273 7.69141 13.2074 7.53326 13.0909 7.41651C12.9743 7.29976 12.8163 7.23393 12.6513 7.2334V7.2334Z" fill="black"/>
<path d="M12.6513 17.8534C12.2316 17.8534 11.8213 17.7289 11.4724 17.4958C11.1234 17.2626 10.8514 16.9312 10.6908 16.5434C10.5302 16.1557 10.4882 15.729 10.5701 15.3174C10.6519 14.9058 10.8541 14.5277 11.1508 14.2309C11.4476 13.9341 11.8257 13.732 12.2373 13.6501C12.6489 13.5683 13.0756 13.6103 13.4634 13.7709C13.8511 13.9315 14.1825 14.2035 14.4157 14.5525C14.6488 14.9014 14.7733 15.3117 14.7733 15.7314C14.7728 16.294 14.549 16.8334 14.1512 17.2313C13.7533 17.6291 13.2139 17.8528 12.6513 17.8534V17.8534ZM12.6513 15.1094C12.5283 15.1094 12.408 15.1459 12.3057 15.2142C12.2034 15.2826 12.1237 15.3797 12.0766 15.4933C12.0296 15.607 12.0172 15.7321 12.0412 15.8527C12.0652 15.9734 12.1245 16.0842 12.2115 16.1712C12.2985 16.2582 12.4093 16.3174 12.5299 16.3414C12.6506 16.3654 12.7757 16.3531 12.8893 16.306C13.003 16.259 13.1001 16.1792 13.1685 16.0769C13.2368 15.9746 13.2733 15.8544 13.2733 15.7314C13.273 15.5665 13.2074 15.4084 13.0908 15.2918C12.9742 15.1753 12.8162 15.1096 12.6513 15.1094Z" fill="black"/>
<path d="M8.71381 13.9159C8.29412 13.9159 7.88384 13.7914 7.53488 13.5583C7.18592 13.3251 6.91394 12.9937 6.75333 12.6059C6.59272 12.2182 6.55069 11.7915 6.63257 11.3799C6.71445 10.9683 6.91655 10.5902 7.21332 10.2934C7.51009 9.99663 7.88819 9.79453 8.29982 9.71265C8.71145 9.63077 9.13812 9.6728 9.52587 9.83341C9.91361 9.99402 10.245 10.266 10.4782 10.615C10.7114 10.9639 10.8358 11.3742 10.8358 11.7939C10.835 12.3564 10.6112 12.8957 10.2134 13.2935C9.81563 13.6913 9.27635 13.9151 8.71381 13.9159ZM8.71381 11.1719C8.59079 11.1719 8.47053 11.2084 8.36824 11.2767C8.26596 11.3451 8.18622 11.4422 8.13915 11.5558C8.09207 11.6695 8.07976 11.7946 8.10376 11.9152C8.12776 12.0359 8.187 12.1467 8.27399 12.2337C8.36098 12.3207 8.4718 12.3799 8.59246 12.4039C8.71311 12.4279 8.83817 12.4156 8.95183 12.3685C9.06549 12.3215 9.16263 12.2417 9.23097 12.1394C9.29932 12.0371 9.3358 11.9169 9.3358 11.7939C9.33554 11.629 9.26993 11.4709 9.15334 11.3543C9.03675 11.2378 8.87869 11.1721 8.71381 11.1719Z" fill="black"/>
<path d="M16.5927 13.9159C16.173 13.9159 15.7627 13.7914 15.4138 13.5583C15.0648 13.3251 14.7928 12.9937 14.6322 12.6059C14.4716 12.2182 14.4296 11.7915 14.5115 11.3799C14.5934 10.9683 14.7954 10.5902 15.0922 10.2934C15.389 9.99663 15.7671 9.79453 16.1787 9.71265C16.5903 9.63077 17.017 9.6728 17.4048 9.83341C17.7925 9.99402 18.1239 10.266 18.3571 10.615C18.5902 10.9639 18.7147 11.3742 18.7147 11.7939C18.7139 12.3564 18.4901 12.8957 18.0923 13.2935C17.6945 13.6913 17.1552 13.9151 16.5927 13.9159V13.9159ZM16.5927 11.1719C16.4697 11.1719 16.3494 11.2084 16.2471 11.2767C16.1448 11.3451 16.0651 11.4422 16.018 11.5558C15.971 11.6695 15.9587 11.7946 15.9827 11.9152C16.0067 12.0359 16.0659 12.1467 16.1529 12.2337C16.2399 12.3207 16.3507 12.3799 16.4713 12.4039C16.592 12.4279 16.7171 12.4156 16.8307 12.3685C16.9444 12.3215 17.0415 12.2417 17.1099 12.1394C17.1782 12.0371 17.2147 11.9169 17.2147 11.7939C17.2144 11.629 17.1488 11.4709 17.0322 11.3543C16.9156 11.2378 16.7576 11.1721 16.5927 11.1719Z" fill="black"/>
<path d="M7.31437 21.3098C6.59216 21.303 5.89395 21.0497 5.33538 20.5918C5.14031 20.4202 4.90558 20.3 4.65238 20.2418C4.23055 20.2265 3.81754 20.3651 3.49038 20.6318C3.34013 20.7623 3.14421 20.8278 2.9457 20.8138C2.74719 20.7998 2.56236 20.7076 2.43188 20.5573C2.30139 20.4071 2.23593 20.2111 2.2499 20.0126C2.26387 19.8141 2.35612 19.6293 2.50637 19.4988C2.82802 19.2268 3.20022 19.021 3.6016 18.8931C4.00298 18.7653 4.42565 18.7179 4.84537 18.7538C5.34386 18.8381 5.81204 19.05 6.20437 19.3688C6.50953 19.6441 6.90346 19.8007 7.31437 19.8098C7.92757 19.771 8.50375 19.5029 8.92838 19.0588C9.06195 18.9174 9.24524 18.8334 9.43957 18.8246C9.6339 18.8157 9.82406 18.8827 9.96992 19.0115C10.1158 19.1402 10.2059 19.3206 10.2213 19.5145C10.2367 19.7084 10.1761 19.9007 10.0524 20.0508C9.34241 20.8165 8.35773 21.2692 7.31437 21.3098V21.3098Z" fill="black"/>
</svg>
