<svg width="24" height="24" viewBox="0 0 24 24" fill="none" xmlns="http://www.w3.org/2000/svg">
<path fill-rule="evenodd" clip-rule="evenodd" d="M3.7402 3.89737C4.72468 2.84117 6.12669 2.25 7.78216 2.25H16.2169C17.8762 2.25 19.2788 2.84084 20.2629 3.89765C21.2413 4.94841 21.75 6.39889 21.75 8.02638V15.9736C21.75 17.6011 21.2413 19.0516 20.2627 20.1024C19.2785 21.1592 17.8756 21.75 16.2159 21.75H7.78216C6.1228 21.75 4.72038 21.1591 3.73657 20.1023C2.75842 19.0515 2.25 17.601 2.25 15.9736V8.02638C2.25 6.39806 2.76117 4.94771 3.7402 3.89737ZM4.83745 4.92012C4.16024 5.64666 3.75 6.70951 3.75 8.02638V15.9736C3.75 17.2914 4.15861 18.3541 4.83451 19.0802C5.50475 19.8003 6.49341 20.25 7.78216 20.25H16.2159C17.5052 20.25 18.4944 19.8002 19.165 19.0801C19.8412 18.354 20.25 17.2913 20.25 15.9736V8.02638C20.25 6.70868 19.8412 5.64597 19.1651 4.91984C18.4946 4.19975 17.5056 3.75 16.2169 3.75H7.78216C6.49828 3.75 5.50921 4.19943 4.83745 4.92012Z" fill="black"/>
<path fill-rule="evenodd" clip-rule="evenodd" d="M10.1555 11.2591C10.6361 10.7435 11.3108 10.4688 12.0722 10.4688H15.3764C16.1392 10.4688 16.8144 10.7431 17.2953 11.2593C17.7705 11.7696 18.0004 12.4555 18.0004 13.1871V15.3276C18.0004 16.0595 17.7706 16.7457 17.2954 17.2561C16.8145 17.7725 16.1392 18.0469 15.3764 18.0469H12.0722C11.3094 18.0469 10.6342 17.7725 10.1535 17.2559C9.67855 16.7454 9.44922 16.0592 9.44922 15.3276V13.1871C9.44922 12.4547 9.68025 11.7689 10.1555 11.2591ZM11.2527 12.282C11.0792 12.4681 10.9492 12.7664 10.9492 13.1871V15.3276C10.9492 15.7499 11.0789 16.0484 11.2517 16.2341C11.4188 16.4137 11.6801 16.5469 12.0722 16.5469H15.3764C15.7686 16.5469 16.0302 16.4136 16.1976 16.2339C16.3706 16.0481 16.5004 15.7497 16.5004 15.3276V13.1871C16.5004 12.7657 16.3707 12.4675 16.1977 12.2817C16.0303 12.102 15.7686 11.9688 15.3764 11.9688H12.0722C11.6826 11.9688 11.4207 12.1017 11.2527 12.282Z" fill="black"/>
</svg>
