<svg width="24" height="24" viewBox="0 0 24 24" fill="none" xmlns="http://www.w3.org/2000/svg">
<path d="M16.0712 7.63915C15.8722 7.64499 15.6792 7.57158 15.5344 7.43505C15.3896 7.29852 15.305 7.11007 15.2992 6.91116C15.2933 6.71224 15.3667 6.51916 15.5033 6.37438C15.6398 6.2296 15.8282 6.14499 16.0271 6.13915L18.6672 5.98415L18.5112 3.32616C18.4994 3.12831 18.5664 2.93383 18.6976 2.78524C18.8287 2.63665 19.0134 2.54601 19.2111 2.53315C19.3094 2.5261 19.408 2.53871 19.5013 2.57023C19.5946 2.60175 19.6807 2.65155 19.7546 2.71673C19.8284 2.7819 19.8885 2.86115 19.9313 2.94982C19.9742 3.03849 19.999 3.13482 20.0042 3.23316L20.2041 6.64115C20.2157 6.83894 20.1486 7.03327 20.0174 7.1818C19.8863 7.33033 19.7018 7.42103 19.5042 7.43415L16.1152 7.63416L16.0712 7.63915Z" fill="black"/>
<path d="M12.0054 21.7479C10.3379 21.7483 8.69822 21.321 7.2431 20.5067C5.78799 19.6925 4.56609 18.5185 3.69427 17.0971C2.82244 15.6757 2.32984 14.0544 2.26356 12.3883C2.19729 10.7222 2.55956 9.06689 3.31573 7.58076C4.0719 6.09462 5.19669 4.82732 6.58253 3.90005C7.96838 2.97277 9.56894 2.41652 11.2312 2.28451C12.8934 2.15249 14.5617 2.44911 16.0765 3.146C17.5914 3.8429 18.9021 4.91677 19.8834 6.26491C19.9414 6.3445 19.9832 6.43473 20.0064 6.53046C20.0296 6.6262 20.0336 6.72557 20.0184 6.82288C20.0032 6.9202 19.9689 7.01355 19.9176 7.09763C19.8663 7.18171 19.7989 7.25487 19.7194 7.31292C19.6398 7.37096 19.5495 7.41276 19.4538 7.43593C19.3581 7.45911 19.2587 7.46319 19.1614 7.44796C19.0641 7.43273 18.9707 7.39848 18.8866 7.34717C18.8026 7.29586 18.7294 7.2285 18.6714 7.14892C17.5173 5.56036 15.8344 4.43562 13.9253 3.9769C12.0161 3.51819 10.0059 3.7556 8.25617 4.64646C6.5064 5.53732 5.13184 7.02317 4.37963 8.83686C3.62742 10.6506 3.5469 12.6731 4.15257 14.5409C4.75823 16.4086 6.01033 17.999 7.68375 19.0261C9.35716 20.0533 11.3421 20.4497 13.2817 20.1442C15.2213 19.8387 16.9882 18.8513 18.2649 17.3595C19.5416 15.8677 20.2442 13.9694 20.2464 12.0059C20.2464 11.9075 20.2658 11.81 20.3035 11.719C20.3412 11.6281 20.3964 11.5455 20.4661 11.4759C20.5358 11.4064 20.6184 11.3512 20.7094 11.3136C20.8004 11.2761 20.8979 11.2568 20.9964 11.2569C21.0949 11.257 21.1924 11.2766 21.2833 11.3144C21.3742 11.3522 21.4568 11.4075 21.5264 11.4773C21.596 11.547 21.6511 11.6298 21.6887 11.7208C21.7262 11.8119 21.7455 11.9094 21.7454 12.0079C21.7409 14.5895 20.713 17.0641 18.887 18.8891C17.0611 20.7141 14.586 21.7407 12.0044 21.7439L12.0054 21.7479Z" fill="black"/>
<path d="M11.161 15.9781C10.8033 15.9805 10.4516 15.8861 10.143 15.7051C9.86735 15.5362 9.635 15.3052 9.4645 15.0305C9.29399 14.7558 9.19007 14.4451 9.16101 14.1231C9.01143 12.7161 9.01143 11.2971 9.16101 9.89009C9.19127 9.5637 9.2985 9.24915 9.4739 8.97223C9.64929 8.69532 9.88786 8.46395 10.17 8.29711C10.4645 8.13576 10.7925 8.04525 11.128 8.03275C11.4635 8.02025 11.7974 8.08611 12.103 8.2251C13.2903 8.70994 14.382 9.40205 15.327 10.2691C15.5747 10.4844 15.7747 10.749 15.9142 11.046C16.0537 11.3431 16.1296 11.666 16.137 11.9941C16.131 12.3252 16.0559 12.6515 15.9166 12.952C15.7773 13.2524 15.5768 13.5205 15.328 13.7391V13.7391C14.3788 14.6044 13.2853 15.2966 12.097 15.7841C11.8002 15.9077 11.4825 15.9736 11.161 15.9781V15.9781ZM11.186 9.53209C11.0934 9.53028 11.002 9.55306 10.921 9.5981C10.8437 9.65114 10.7795 9.72115 10.7334 9.80278C10.6873 9.88442 10.6605 9.9755 10.655 10.0691C10.5175 11.3611 10.5175 12.6641 10.655 13.9561C10.661 14.046 10.6865 14.1335 10.7297 14.2126C10.7728 14.2917 10.8327 14.3604 10.905 14.4141C11.0045 14.4589 11.1129 14.4806 11.222 14.4776C11.331 14.4747 11.438 14.4472 11.535 14.3971C12.5561 13.9767 13.4959 13.3811 14.312 12.6371C14.4068 12.5586 14.4847 12.4617 14.5409 12.3522C14.5972 12.2427 14.6305 12.1229 14.639 12.0001C14.6304 11.879 14.5971 11.7609 14.5412 11.6531C14.4853 11.5452 14.408 11.45 14.314 11.3731C13.4965 10.6244 12.5525 10.0268 11.526 9.6081C11.4181 9.5606 11.3019 9.53478 11.184 9.53209H11.186Z" fill="black"/>
</svg>
