<svg width="24" height="24" viewBox="0 0 24 24" fill="none" xmlns="http://www.w3.org/2000/svg">
<path fill-rule="evenodd" clip-rule="evenodd" d="M3.77272 4.41315C4.77344 3.45773 6.17113 3.00781 7.77423 3.00781H16.2329C17.8398 3.00781 19.2382 3.4574 20.2374 4.41384C21.2416 5.37518 21.7451 6.7554 21.7406 8.41706V11.3856C21.7406 11.7998 21.4048 12.1356 20.9906 12.1356C20.5764 12.1356 20.2406 11.7998 20.2406 11.3856V8.41623L20.2406 8.41405C20.2445 7.05924 19.8408 6.11074 19.2001 5.4974C18.554 4.87889 17.5692 4.50781 16.2329 4.50781H7.77423C6.44295 4.50781 5.45743 4.87857 4.80854 5.49808C4.16499 6.1125 3.75781 7.06197 3.75781 8.41623V15.4992C3.75781 16.8803 4.16724 17.853 4.81374 18.4822C5.46353 19.1147 6.44747 19.4923 7.77423 19.4923H11.9987C12.4129 19.4923 12.7487 19.8281 12.7487 20.2423C12.7487 20.6565 12.4129 20.9923 11.9987 20.9923H7.77423C6.16661 20.9923 4.76734 20.5302 3.76752 19.5571C2.76441 18.5808 2.25781 17.1819 2.25781 15.4992V8.41623C2.25781 6.75342 2.76665 5.37368 3.77272 4.41315Z" fill="black"/>
<path fill-rule="evenodd" clip-rule="evenodd" d="M2.25 8.57422C2.25 8.16001 2.58579 7.82422 3 7.82422H20.9993C21.4135 7.82422 21.7493 8.16001 21.7493 8.57422C21.7493 8.98843 21.4135 9.32422 20.9993 9.32422H3C2.58579 9.32422 2.25 8.98843 2.25 8.57422Z" fill="black"/>
<path fill-rule="evenodd" clip-rule="evenodd" d="M6.51203 12.375C6.51203 11.9608 6.84782 11.625 7.26203 11.625H8.91602C9.33024 11.625 9.66602 11.9608 9.66602 12.375C9.66602 12.7892 9.33024 13.125 8.91602 13.125H7.26203C6.84782 13.125 6.51203 12.7892 6.51203 12.375ZM10.8707 12.375C10.8707 11.9608 11.2065 11.625 11.6207 11.625H12.1558C12.57 11.625 12.9058 11.9608 12.9058 12.375C12.9058 12.7892 12.57 13.125 12.1558 13.125H11.6207C11.2065 13.125 10.8707 12.7892 10.8707 12.375ZM6.45312 15.8316C6.45312 15.4174 6.78891 15.0816 7.20312 15.0816H9.41364C9.82785 15.0816 10.1636 15.4174 10.1636 15.8316C10.1636 16.2458 9.82785 16.5816 9.41364 16.5816H7.20312C6.78891 16.5816 6.45312 16.2458 6.45312 15.8316Z" fill="black"/>
<path fill-rule="evenodd" clip-rule="evenodd" d="M17.5467 14.4766C16.3509 14.4766 15.3809 15.4463 15.3809 16.6434C15.3809 17.8394 16.3508 18.8093 17.5467 18.8093C18.1117 18.8093 18.6262 18.5929 19.0118 18.2385C19.0181 18.2325 19.0244 18.2266 19.0308 18.2209C19.4505 17.8258 19.7126 17.2652 19.7126 16.6434C19.7126 15.4463 18.7426 14.4766 17.5467 14.4766ZM20.5543 18.7398C20.9692 18.1457 21.2126 17.423 21.2126 16.6434C21.2126 14.6182 19.5713 12.9766 17.5467 12.9766C15.5222 12.9766 13.8809 14.6182 13.8809 16.6434C13.8809 18.6678 15.5223 20.3093 17.5467 20.3093C18.2489 20.3093 18.905 20.1118 19.4625 19.7694L20.4702 20.7744C20.7635 21.0669 21.2383 21.0663 21.5308 20.773C21.8233 20.4797 21.8227 20.0049 21.5294 19.7124L20.5543 18.7398Z" fill="black"/>
</svg>
