<svg width="24" height="24" viewBox="0 0 24 24" fill="none" xmlns="http://www.w3.org/2000/svg">
<path fill-rule="evenodd" clip-rule="evenodd" d="M2.25 7.23221C2.25 4.59292 4.38956 2.45312 7.02811 2.45312H16.9709C19.6103 2.45312 21.75 4.5928 21.75 7.23221V12.6886C21.75 15.328 19.6103 17.4677 16.9709 17.4677C16.5567 17.4677 16.2209 17.1319 16.2209 16.7177C16.2209 16.3035 16.5567 15.9677 16.9709 15.9677C18.7819 15.9677 20.25 14.4996 20.25 12.6886V7.23221C20.25 5.42123 18.7819 3.95312 16.9709 3.95312H7.02811C5.21822 3.95312 3.75 5.42111 3.75 7.23221V12.6886C3.75 14.4997 5.21822 15.9677 7.02811 15.9677C7.44232 15.9677 7.77811 16.3035 7.77811 16.7177C7.77811 17.1319 7.44232 17.4677 7.02811 17.4677C4.38956 17.4677 2.25 15.3279 2.25 12.6886V7.23221Z" fill="black"/>
<path fill-rule="evenodd" clip-rule="evenodd" d="M12.0001 17.3949L14.4138 21.0493C14.6421 21.395 15.1073 21.4901 15.4529 21.2618C15.7986 21.0335 15.8937 20.5683 15.6654 20.2226L13.0432 16.2525C12.5492 15.5045 11.4516 15.5043 10.9574 16.2521L8.33535 20.219C8.10694 20.5645 8.20191 21.0298 8.54746 21.2582C8.89301 21.4866 9.35829 21.3916 9.58669 21.0461L12.0001 17.3949Z" fill="black"/>
<path fill-rule="evenodd" clip-rule="evenodd" d="M6.59961 7.98828C6.59961 7.57407 6.9354 7.23828 7.34961 7.23828H10.837C11.2512 7.23828 11.587 7.57407 11.587 7.98828C11.587 8.40249 11.2512 8.73828 10.837 8.73828H7.34961C6.9354 8.73828 6.59961 8.40249 6.59961 7.98828Z" fill="black"/>
<path fill-rule="evenodd" clip-rule="evenodd" d="M9.09375 7.23828C9.50796 7.23828 9.84375 7.57407 9.84375 7.98828L9.84375 11.9315C9.84375 12.3457 9.50796 12.6815 9.09375 12.6815C8.67954 12.6815 8.34375 12.3457 8.34375 11.9315L8.34375 7.98828C8.34375 7.57407 8.67954 7.23828 9.09375 7.23828Z" fill="black"/>
<path fill-rule="evenodd" clip-rule="evenodd" d="M16.966 7.30819C17.3417 7.4826 17.5049 7.92856 17.3305 8.30426L15.4999 12.2475C15.377 12.5123 15.1116 12.6817 14.8197 12.6817C14.5277 12.6817 14.2623 12.5123 14.1394 12.2475L12.3088 8.30426C12.1344 7.92856 12.2976 7.4826 12.6733 7.30819C13.049 7.13378 13.495 7.29696 13.6694 7.67266L14.8197 10.1505L15.9699 7.67266C16.1444 7.29696 16.5903 7.13378 16.966 7.30819Z" fill="black"/>
</svg>
