<svg width="24" height="24" viewBox="0 0 24 24" fill="none" xmlns="http://www.w3.org/2000/svg">
<path fill-rule="evenodd" clip-rule="evenodd" d="M9.01568 4.6875C7.70391 4.6875 6.64062 5.75079 6.64062 7.06256V16.9398C6.64062 18.2504 7.70376 19.3138 9.01568 19.3138H15.0012C16.3131 19.3138 17.3762 18.2504 17.3762 16.9398V7.06256C17.3762 5.75079 16.3129 4.6875 15.0012 4.6875H9.01568ZM5.14062 7.06256C5.14062 4.92236 6.87549 3.1875 9.01568 3.1875H15.0012C17.1414 3.1875 18.8762 4.92236 18.8762 7.06256V16.9398C18.8762 19.0791 17.1412 20.8138 15.0012 20.8138H9.01568C6.87564 20.8138 5.14062 19.0791 5.14062 16.9398V7.06256Z" fill="black"/>
<path fill-rule="evenodd" clip-rule="evenodd" d="M5.3399 7.53516C4.46234 7.53516 3.75 8.24401 3.75 9.13479V14.8692C3.75 15.7527 4.46376 16.4679 5.3399 16.4679H5.89058C6.30479 16.4679 6.64058 16.8037 6.64058 17.2179C6.64058 17.6321 6.30479 17.9679 5.89058 17.9679H5.3399C3.62804 17.9679 2.25 16.5738 2.25 14.8692V9.13479C2.25 7.42005 3.62946 6.03516 5.3399 6.03516H5.89058C6.30479 6.03516 6.64058 6.37094 6.64058 6.78516C6.64058 7.19937 6.30479 7.53516 5.89058 7.53516H5.3399Z" fill="black"/>
<path fill-rule="evenodd" clip-rule="evenodd" d="M17.3594 6.78516C17.3594 6.37094 17.6952 6.03516 18.1094 6.03516H18.6601C20.3705 6.03516 21.75 7.42005 21.75 9.13479V14.8692C21.75 16.5738 20.3719 17.9679 18.6601 17.9679H18.1094C17.6952 17.9679 17.3594 17.6321 17.3594 17.2179C17.3594 16.8037 17.6952 16.4679 18.1094 16.4679H18.6601C19.5362 16.4679 20.25 15.7527 20.25 14.8692V9.13479C20.25 8.24401 19.5376 7.53516 18.6601 7.53516H18.1094C17.6952 7.53516 17.3594 7.19937 17.3594 6.78516Z" fill="black"/>
<path fill-rule="evenodd" clip-rule="evenodd" d="M11.1294 10.5863C11.031 11.4663 11.0284 12.4163 11.1301 13.4156C11.1509 13.5693 11.2105 13.6081 11.2259 13.6167C11.2451 13.6276 11.3357 13.6675 11.5311 13.5911C12.2944 13.2834 12.9923 12.8281 13.5511 12.3234C13.7054 12.1805 13.7319 12.0626 13.7315 11.9966C13.7311 11.929 13.702 11.8136 13.5532 11.6788L13.55 11.6758L13.55 11.6758C12.9651 11.1397 12.288 10.7187 11.5244 10.4064L11.5171 10.4034L11.5171 10.4034C11.3671 10.3402 11.2728 10.3657 11.2354 10.3853C11.2154 10.3958 11.1967 10.4113 11.1796 10.4367C11.1628 10.4619 11.1403 10.5081 11.1294 10.5863ZM12.0956 9.01944C11.5908 8.80796 11.0238 8.80262 10.539 9.05673C10.0418 9.31735 9.7187 9.8058 9.6413 10.3971L9.64118 10.3971L9.63966 10.4106C9.52712 11.4111 9.52588 12.4749 9.63886 13.5782L9.64076 13.595C9.71031 14.1506 9.99793 14.6469 10.4902 14.9239C10.9787 15.1988 11.5545 15.1941 12.0833 14.9857L12.0834 14.9857L12.0884 14.9837C13.0293 14.605 13.8783 14.0499 14.5599 13.4335L14.5599 13.4335L14.5647 13.4291C14.9815 13.0455 15.2345 12.5405 15.2315 11.9883C15.2284 11.4381 14.9717 10.9407 14.5621 10.5688C13.8386 9.90581 13.0094 9.39362 12.0956 9.01944Z" fill="black"/>
</svg>
