<svg width="25" height="24" viewBox="0 0 25 24" fill="none" xmlns="http://www.w3.org/2000/svg">
<path fill-rule="evenodd" clip-rule="evenodd" d="M13.1825 20.3404C13.1825 19.9765 12.876 19.6816 12.4985 19.6816C12.1209 19.6816 11.8145 19.9765 11.8145 20.3404C11.8145 20.7043 12.1209 20.9991 12.4985 20.9991C12.876 20.9991 13.1825 20.7043 13.1825 20.3404Z" stroke="black" stroke-width="1.5" stroke-linecap="round" stroke-linejoin="round"/>
<path fill-rule="evenodd" clip-rule="evenodd" d="M5.16686 3.65872C5.16686 3.29482 4.86037 3 4.48285 3C4.10532 3 3.79883 3.29482 3.79883 3.65872C3.79883 4.02262 4.10532 4.31744 4.48285 4.31744C4.86037 4.31744 5.16686 4.02262 5.16686 3.65872Z" stroke="black" stroke-width="1.5" stroke-linecap="round" stroke-linejoin="round"/>
<path fill-rule="evenodd" clip-rule="evenodd" d="M21.202 3.65872C21.202 3.29482 20.8955 3 20.518 3C20.1405 3 19.834 3.29482 19.834 3.65872C19.834 4.02262 20.1405 4.31744 20.518 4.31744C20.8955 4.31744 21.202 4.02262 21.202 3.65872Z" stroke="black" stroke-width="1.5" stroke-linecap="round" stroke-linejoin="round"/>
<path fill-rule="evenodd" clip-rule="evenodd" d="M9.12194 12.0083C9.12194 11.6444 8.81545 11.3496 8.43792 11.3496C8.0604 11.3496 7.75391 11.6444 7.75391 12.0083C7.75391 12.3722 8.0604 12.667 8.43792 12.667C8.81545 12.667 9.12194 12.3722 9.12194 12.0083Z" stroke="black" stroke-width="1.5" stroke-linecap="round" stroke-linejoin="round"/>
<path fill-rule="evenodd" clip-rule="evenodd" d="M17.2469 12.0083C17.2469 11.6444 16.9404 11.3496 16.5629 11.3496C16.1854 11.3496 15.8789 11.6444 15.8789 12.0083C15.8789 12.3722 16.1854 12.667 16.5629 12.667C16.9404 12.667 17.2469 12.3722 17.2469 12.0083Z" stroke="black" stroke-width="1.5" stroke-linecap="round" stroke-linejoin="round"/>
<path d="M14.5028 16.4101L12.498 20.6614L4.47852 3.65625H8.48824" stroke="black" stroke-width="1.5" stroke-linecap="round" stroke-linejoin="round"/>
<path d="M16.5078 12.1588L20.5175 3.65625H12.498" stroke="black" stroke-width="1.5" stroke-linecap="round" stroke-linejoin="round"/>
<path d="M16.5612 12.0591L4.48242 3.6582" stroke="black" stroke-width="1.5" stroke-linecap="round" stroke-linejoin="round"/>
<path d="M8.43945 12.0591L20.5183 3.6582" stroke="black" stroke-width="1.5" stroke-linecap="round" stroke-linejoin="round"/>
</svg>