<svg width="25" height="24" viewBox="0 0 25 24" fill="none" xmlns="http://www.w3.org/2000/svg">
<path d="M9.46191 15.8644C10.1488 16.2575 10.9564 16.1106 11.4254 15.4655C11.8681 14.8584 11.9878 13.9924 12.1794 13.2753L12.8196 10.7232C13.0113 10.0071 13.132 9.14116 13.5747 8.53305C14.0436 7.88895 14.8512 7.74105 15.5381 8.13511" stroke="black" stroke-width="1.5" stroke-linecap="round" stroke-linejoin="round"/>
<path d="M10.6074 12.6953L14.3913 13.4085" stroke="black" stroke-width="1.5" stroke-linecap="round" stroke-linejoin="round"/>
<path d="M10.6074 10.5898L14.3913 11.303" stroke="black" stroke-width="1.5" stroke-linecap="round" stroke-linejoin="round"/>
<path d="M12.5 21C7.52944 21 3.5 16.9706 3.5 12C3.5 7.02944 7.52944 3 12.5 3C17.4706 3 21.5 7.02944 21.5 12C21.5 15.4651 19.5417 18.4729 16.6715 19.9769" stroke="black" stroke-width="1.5" stroke-linecap="round" stroke-linejoin="round"/>
</svg>