<svg width="25" height="24" viewBox="0 0 25 24" fill="none" xmlns="http://www.w3.org/2000/svg">
<path d="M8.46289 9.01953C10.1082 9.01953 11.4421 10.3535 11.4421 11.9988C11.4421 13.6441 10.1082 14.977 8.46289 14.977" stroke="black" stroke-width="1.5" stroke-linecap="round" stroke-linejoin="round"/>
<path d="M16.5378 9.01953C14.8925 9.01953 13.5586 10.3535 13.5586 11.9988C13.5586 13.6441 14.8925 14.977 16.5378 14.977" stroke="black" stroke-width="1.5" stroke-linecap="round" stroke-linejoin="round"/>
<path d="M10.127 12H14.8721" stroke="black" stroke-width="1.5" stroke-linecap="round" stroke-linejoin="round"/>
<path d="M12.499 21H8.28216C5.33405 21 3.5 18.9188 3.5 15.9736V8.02638C3.5 5.08119 5.34281 3 8.28216 3H16.7169C19.665 3 21.5 5.08119 21.5 8.02638V15.9736C21.5 18.9188 19.665 21 16.7159 21H16.3409" stroke="black" stroke-width="1.5" stroke-linecap="round" stroke-linejoin="round"/>
</svg>