<svg width="25" height="24" viewBox="0 0 25 24" fill="none" xmlns="http://www.w3.org/2000/svg">
<path d="M17.9913 17.4912L15.5865 19.8964C14.1144 21.3685 11.7267 21.3685 10.2546 19.8964L16.6568 13.4941C17.4226 12.7284 17.4226 11.4859 16.6568 10.7192L16.6354 10.6987L11.5126 15.8215C10.0405 17.2946 7.65279 17.2946 6.18066 15.8215L8.31978 13.6826" stroke="black" stroke-width="1.5" stroke-linecap="round" stroke-linejoin="round"/>
<path d="M20.3957 15.086C21.8678 13.6139 21.8678 11.2272 20.3957 9.75504L17.9068 7.26614C17.0311 6.39045 15.6115 6.39045 14.7368 7.26614L11.3037 10.6988" stroke="black" stroke-width="1.5" stroke-linecap="round" stroke-linejoin="round"/>
<path d="M9.41357 4.1041C10.8857 2.63197 13.2724 2.63197 14.7446 4.1041L4.6041 14.2455C3.13197 12.7734 3.13197 10.3857 4.6041 8.91357L7.00883 6.50883" stroke="black" stroke-width="1.5" stroke-linecap="round" stroke-linejoin="round"/>
</svg>