<svg width="24" height="24" viewBox="0 0 24 24" fill="none" xmlns="http://www.w3.org/2000/svg">
<path fill-rule="evenodd" clip-rule="evenodd" d="M8.18182 6C8.73382 6 9.18182 5.552 9.18182 5C9.18182 4.448 8.73382 4 8.18182 4H4.99982C4.44782 4 3.99982 4.448 3.99982 5V18.999C3.99982 19.551 4.44782 19.999 4.99982 19.999H8.18182C8.73382 19.999 9.18182 19.551 9.18182 18.999C9.18182 18.447 8.73382 17.999 8.18182 17.999H5.99982V6H8.18182Z" fill="black"/>
<path opacity="0.4" fill-rule="evenodd" clip-rule="evenodd" d="M19.0002 4H15.8182C15.2662 4 14.8182 4.448 14.8182 5C14.8182 5.552 15.2662 6 15.8182 6H18.0002V17.999H15.8182C15.2662 17.999 14.8182 18.447 14.8182 18.999C14.8182 19.551 15.2662 19.999 15.8182 19.999H19.0002C19.5522 19.999 20.0002 19.551 20.0002 18.999V5C20.0002 4.448 19.5522 4 19.0002 4Z" fill="black"/>
</svg>