<svg width="24" height="24" viewBox="0 0 24 24" fill="none" xmlns="http://www.w3.org/2000/svg">
<path opacity="0.4" fill-rule="evenodd" clip-rule="evenodd" d="M16.218 2.5H7.783C4.623 2.5 2.5 4.72 2.5 8.026V15.973C2.5 19.279 4.623 21.5 7.783 21.5H16.217C19.377 21.5 21.5 19.279 21.5 15.973V8.026C21.5 4.72 19.377 2.5 16.218 2.5Z" fill="black"/>
<path fill-rule="evenodd" clip-rule="evenodd" d="M15.148 17.0454C15.027 17.1184 14.894 17.1524 14.763 17.1524C14.508 17.1524 14.26 17.0224 14.119 16.7884C13.906 16.4334 14.021 15.9724 14.377 15.7594C14.436 15.7214 15.987 14.7164 15.987 12.0604C15.987 9.40239 14.436 8.39839 14.371 8.35739C14.022 8.13839 13.912 7.67839 14.127 7.32739C14.341 6.97839 14.795 6.86239 15.148 7.07439C15.244 7.13139 17.487 8.51739 17.487 12.0604C17.487 15.6014 15.244 16.9884 15.148 17.0454ZM9.62896 15.7634C9.97696 15.9824 10.087 16.4424 9.87296 16.7934C9.73096 17.0244 9.48496 17.1514 9.23296 17.1514C9.10296 17.1514 8.97096 17.1174 8.85096 17.0454C8.75496 16.9884 6.51196 15.6014 6.51196 12.0604C6.51196 8.51739 8.75496 7.13139 8.85096 7.07439C9.20896 6.85939 9.66796 6.97739 9.87996 7.33239C10.092 7.68539 9.97896 8.14339 9.62796 8.35739C9.55296 8.40439 8.01196 9.41139 8.01196 12.0604C8.01196 14.7164 9.56296 15.7214 9.62896 15.7634Z" fill="black"/>
</svg>