<svg width="25" height="24" viewBox="0 0 25 24" fill="none" xmlns="http://www.w3.org/2000/svg">
<path d="M5.88025 7.675C5.88025 9.907 7.69725 11.724 9.93025 11.724C12.1632 11.724 13.9802 9.907 13.9802 7.675C13.9802 5.441 12.1632 3.625 9.93025 3.625C7.69725 3.625 5.88025 5.441 5.88025 7.675Z" fill="black"/>
<path d="M20.9 11.2227H16.17C15.617 11.2227 15.17 10.7757 15.17 10.2227C15.17 9.66966 15.617 9.22266 16.17 9.22266H20.9C21.453 9.22266 21.9 9.66966 21.9 10.2227C21.9 10.7757 21.453 11.2227 20.9 11.2227Z" fill="black"/>
<path d="M5.22076 20.3767H14.6308C16.2298 20.3767 17.3618 19.3087 17.4498 17.6947C17.4668 13.7522 11.7941 13.6977 9.91793 13.6797L9.91576 13.6797L9.91208 13.6797C8.0503 13.6937 2.39976 13.7363 2.40076 17.7157C2.47676 19.3077 3.60976 20.3767 5.22076 20.3767Z" fill="black"/>
</svg>