<svg width="25" height="24" viewBox="0 0 25 24" fill="none" xmlns="http://www.w3.org/2000/svg">
<path fill-rule="evenodd" clip-rule="evenodd" d="M11.1872 3.17773C13.7642 3.17773 15.8522 5.26573 15.8522 7.84273C15.8522 10.4197 13.7642 12.5077 11.1872 12.5077C8.61022 12.5077 6.52222 10.4197 6.52222 7.84273C6.52222 5.26573 8.61022 3.17773 11.1872 3.17773Z" fill="black"/>
<path fill-rule="evenodd" clip-rule="evenodd" d="M10.1731 14.5352C8.75313 14.5352 7.43513 14.7382 6.42113 15.0422C5.81213 15.2452 5.20413 15.5492 4.79813 15.9552C4.39313 16.3602 4.08813 16.9692 4.08813 17.6792C4.08813 18.3892 4.29113 18.8962 4.79813 19.4032C5.20413 19.8082 5.81213 20.1132 6.42113 20.3152C7.43513 20.6202 8.75313 20.8222 10.1731 20.8222C10.7811 20.8222 11.1871 20.4172 11.1871 19.8082V15.5492C11.1871 14.9412 10.7811 14.5352 10.1731 14.5352Z" fill="black"/>
<path fill-rule="evenodd" clip-rule="evenodd" d="M20.2127 16.9679C20.2127 16.7649 20.2127 16.5619 20.1117 16.3599C20.0097 16.1569 19.8067 16.0549 19.6047 16.0549L18.0827 15.8519L17.4747 14.5339C17.3727 14.4329 17.2717 14.2299 17.1707 14.2299C16.9677 14.1289 16.7647 14.1289 16.5617 14.1289C16.3587 14.2299 16.1567 14.3309 16.0547 14.5339L15.3447 15.8519L13.9257 16.0549C13.7227 16.0549 13.6207 16.1569 13.5197 16.2579C13.2157 16.5619 13.2157 17.0689 13.5197 17.3739L14.5337 18.3879L14.3307 19.8069C14.3307 20.0099 14.3307 20.1119 14.4327 20.3149C14.5337 20.6189 14.8377 20.7199 15.1427 20.7199C15.2437 20.7199 15.3447 20.7199 15.5477 20.6189L16.8657 19.9089L18.1847 20.5169C18.2857 20.6189 18.4887 20.6189 18.6917 20.6189C19.0967 20.5169 19.4017 20.1119 19.2997 19.7059L19.0967 18.2859L20.1117 17.2719C20.1117 17.2719 20.1117 17.0689 20.2127 16.9679Z" fill="black"/>
</svg>