<svg width="25" height="25" viewBox="0 0 25 25" fill="none" xmlns="http://www.w3.org/2000/svg">
<path d="M17.5806 8.93753C17.5806 5.87653 15.0986 3.39453 12.0376 3.39453C8.97663 3.39453 6.49463 5.87653 6.49463 8.93753C6.49463 11.9985 8.97663 14.4795 12.0376 14.4795C15.0986 14.4795 17.5806 11.9985 17.5806 8.93753Z" fill="black"/>
<path d="M9.58105 14.8125H14.631C17.495 14.8125 19.818 17.1345 19.818 19.9995C19.818 20.1025 19.819 20.2065 19.82 20.3085C19.836 21.4575 18.902 22.2925 17.753 22.2925H17.5203C17.3546 22.2925 17.2203 22.1583 17.2203 21.9927C17.2203 21.4314 17.2203 20.2177 17.2203 19.5371C17.2203 19.1231 16.8843 18.7871 16.4703 18.7871C16.0563 18.7871 15.7237 19.1231 15.7237 19.5371C15.7237 20.2177 15.7237 21.4314 15.7237 21.9927C15.7237 22.1583 15.5894 22.2925 15.4237 22.2925H8.79176C8.62608 22.2925 8.49176 22.1583 8.49176 21.9927C8.49176 21.4314 8.49176 20.2177 8.49176 19.5371C8.49176 19.1231 8.15576 18.7871 7.74176 18.7871C7.32776 18.7871 6.99176 19.1231 6.99176 19.5371C6.99176 20.2177 6.99176 21.4314 6.99176 21.9927C6.99176 22.1583 6.85745 22.2925 6.69176 22.2925H6.45805C5.30905 22.2925 4.37605 21.4575 4.39105 20.3085C4.39305 20.2065 4.39405 20.1025 4.39405 19.9995C4.39405 17.1345 6.71605 14.8125 9.58105 14.8125Z" fill="black"/>
</svg>