<svg width="25" height="24" viewBox="0 0 25 24" fill="none" xmlns="http://www.w3.org/2000/svg">
<path fill-rule="evenodd" clip-rule="evenodd" d="M12.1004 3.34961C14.6414 3.34961 16.7004 5.40961 16.7004 7.94961C16.7004 10.4906 14.6414 12.5496 12.1004 12.5496C9.55937 12.5496 7.50037 10.4906 7.50037 7.94961C7.50037 5.40961 9.55937 3.34961 12.1004 3.34961Z" fill="black"/>
<path fill-rule="evenodd" clip-rule="evenodd" d="M14.5004 13.8496H9.80037C7.20037 13.8496 5.00037 16.0496 5.00037 18.6496C5.00037 19.1496 5.00037 19.7496 5.10037 20.2496C5.10037 20.4496 5.30037 20.6496 5.60037 20.6496H18.7004C18.9004 20.6496 19.1004 20.4496 19.2004 20.2496C19.3004 19.7496 19.3004 19.1496 19.3004 18.6496C19.2004 15.9496 17.1004 13.8496 14.5004 13.8496Z" fill="black"/>
</svg>