<svg width="25" height="24" viewBox="0 0 25 24" fill="none" xmlns="http://www.w3.org/2000/svg">
<path fill-rule="evenodd" clip-rule="evenodd" d="M16.1035 15.7709C16.1055 15.8629 16.1085 15.9739 16.1115 16.1089C16.1175 16.4419 16.1245 16.8939 16.1245 17.5189C16.1245 18.4769 17.0925 19.0339 17.5945 19.2579C18.0965 19.0339 19.0645 18.4769 19.0645 17.5189C19.0645 16.8689 19.0735 16.4049 19.0805 16.0689C19.0825 15.9499 19.0845 15.8509 19.0865 15.7669C18.6495 15.5879 17.9045 15.3339 17.5965 15.2659C17.2875 15.3349 16.5375 15.5919 16.1035 15.7709ZM17.5945 21.3309C17.4975 21.3309 17.3995 21.3159 17.3045 21.2879C16.1245 20.9299 14.1245 19.7339 14.1245 17.5189C14.1245 16.9109 14.1175 16.4689 14.1115 16.1449C14.0945 15.2399 14.0875 14.8269 14.5315 14.3859C14.9875 13.9309 17.1325 13.2559 17.5945 13.2559C18.0595 13.2559 20.2125 13.9309 20.6715 14.3899C21.1035 14.8409 21.0955 15.2379 21.0795 16.1069C21.0735 16.4339 21.0645 16.8859 21.0645 17.5189C21.0645 19.7339 19.0655 20.9299 17.8845 21.2879C17.7905 21.3159 17.6925 21.3309 17.5945 21.3309Z" fill="black"/>
<path fill-rule="evenodd" clip-rule="evenodd" d="M10.4984 2.66992C7.8924 2.66992 5.7804 4.81392 5.7804 7.45592C5.7804 10.0999 7.8924 12.2419 10.4984 12.2419C13.1044 12.2419 15.2164 10.0999 15.2164 7.45592C15.2164 4.81392 13.1044 2.66992 10.4984 2.66992Z" fill="black"/>
<path fill-rule="evenodd" clip-rule="evenodd" d="M11.7619 13.5938H8.13894C5.47194 13.5938 3.21594 15.8827 3.21594 18.5877C3.21594 19.0917 3.21594 19.6927 3.30894 20.2017C3.31494 20.2357 3.31694 20.2707 3.32194 20.3037C3.35294 20.4937 3.54894 20.6688 3.83094 20.6688H9.55394C9.87194 20.6688 10.1579 20.4757 10.2759 20.1807L12.4889 14.6698C12.6959 14.1548 12.3169 13.5938 11.7619 13.5938Z" fill="black"/>
</svg>