<svg width="25" height="24" viewBox="0 0 25 24" fill="none" xmlns="http://www.w3.org/2000/svg">
<path d="M5.97937 7.674C5.97937 9.907 7.79737 11.725 10.0304 11.725C12.2634 11.725 14.0804 9.907 14.0804 7.674C14.0804 5.441 12.2634 3.625 10.0304 3.625C7.79737 3.625 5.97937 5.441 5.97937 7.674Z" fill="black"/>
<path d="M5.31986 20.3767H14.7299C16.3279 20.3767 17.4609 19.3087 17.5499 17.6937C17.5648 13.7562 11.9 13.6988 10.0209 13.6797L10.0159 13.6797L10.0122 13.6797C8.15039 13.6937 2.49986 13.7363 2.50085 17.7147C2.57585 19.3067 3.70785 20.3767 5.31986 20.3767Z" fill="black"/>
<path d="M19.5599 18.5871C19.1459 18.5871 18.7589 18.3281 18.6159 17.9151C18.4339 17.3941 18.7099 16.8231 19.2318 16.6431C19.6688 16.4901 19.7838 16.0771 19.8018 15.7581L19.8019 15.7566C19.8029 15.4143 19.8056 14.4964 17.5949 14.0331C17.0548 13.9201 16.7079 13.3911 16.8218 12.8501C16.9348 12.3091 17.4658 11.9631 18.0049 12.0761C21.1579 12.7351 21.8088 14.4781 21.7999 15.8231C21.7239 17.1491 21.0089 18.1421 19.8878 18.5311C19.7799 18.5691 19.6679 18.5871 19.5599 18.5871Z" fill="black"/>
<path d="M14.9732 10.9272C15.1142 11.3442 15.5032 11.6072 15.9202 11.6072C16.0262 11.6072 16.1352 11.5902 16.2402 11.5542C17.7242 11.0522 18.7202 9.66221 18.7202 8.09321C18.7202 6.41321 17.5812 4.95521 15.9522 4.54821C15.4082 4.41821 14.8732 4.74221 14.7392 5.27721C14.6072 5.81321 14.9332 6.35621 15.4682 6.49021C16.2052 6.67321 16.7202 7.33321 16.7202 8.09321C16.7202 8.80321 16.2702 9.43321 15.6002 9.66021C15.0762 9.83621 14.7962 10.4052 14.9732 10.9272Z" fill="black"/>
</svg>