<svg width="25" height="24" viewBox="0 0 25 24" fill="none" xmlns="http://www.w3.org/2000/svg">
<path d="M5.86951 7.675C5.86951 9.907 7.68651 11.724 9.91951 11.724C12.1525 11.724 13.9705 9.907 13.9705 7.675C13.9705 5.441 12.1525 3.625 9.91951 3.625C7.68651 3.625 5.86951 5.441 5.86951 7.675Z" fill="black"/>
<path d="M17.9196 12.1944H17.9186C17.6526 12.1944 17.3986 12.0884 17.2116 11.9004L15.7626 10.4464C15.3716 10.0544 15.3736 9.42237 15.7646 9.03237C16.1556 8.64138 16.7886 8.64237 17.1786 9.03438L17.9206 9.77938L20.2026 7.49638C20.5936 7.10538 21.2266 7.10538 21.6166 7.49638C22.0076 7.88637 22.0076 8.51937 21.6166 8.91038L18.6266 11.9014C18.4396 12.0894 18.1856 12.1944 17.9196 12.1944Z" fill="black"/>
<path d="M5.21099 20.3767H14.62C16.218 20.3767 17.351 19.3097 17.44 17.6947C17.455 13.7522 11.7843 13.6977 9.90814 13.6797L9.90599 13.6797L9.90231 13.6797C8.04053 13.6937 2.38999 13.7363 2.39099 17.7157C2.46599 19.3077 3.59799 20.3767 5.21099 20.3767Z" fill="black"/>
</svg>