<svg width="25" height="24" viewBox="0 0 25 24" fill="none" xmlns="http://www.w3.org/2000/svg">
<path fill-rule="evenodd" clip-rule="evenodd" d="M19.2838 20.7938C19.0278 20.7938 18.7718 20.6958 18.5778 20.5018L17.4788 19.4048L16.4208 20.4638C16.0298 20.8548 15.3968 20.8548 15.0068 20.4638C14.6158 20.0728 14.6158 19.4398 15.0068 19.0498L16.0628 17.9918L14.9678 16.8978C14.5758 16.5068 14.5758 15.8738 14.9658 15.4828C15.3558 15.0908 15.9908 15.0928 16.3798 15.4818L17.4768 16.5768L18.5368 15.5178C18.9278 15.1268 19.5598 15.1268 19.9508 15.5178C20.3418 15.9078 20.3418 16.5408 19.9508 16.9318L18.8928 17.9898L19.9898 19.0858C20.3818 19.4768 20.3818 20.1088 19.9918 20.4998C19.7968 20.6958 19.5398 20.7938 19.2838 20.7938Z" fill="black"/>
<path fill-rule="evenodd" clip-rule="evenodd" d="M11.2993 3C8.6933 3 6.5813 5.144 6.5813 7.786C6.5813 10.43 8.6933 12.572 11.2993 12.572C13.9053 12.572 16.0173 10.43 16.0173 7.786C16.0173 5.144 13.9053 3 11.2993 3Z" fill="black"/>
<path fill-rule="evenodd" clip-rule="evenodd" d="M12.5628 13.9258H8.93985C6.27285 13.9258 4.01685 16.2148 4.01685 18.9198C4.01685 19.4238 4.01685 20.0248 4.10985 20.5338C4.11585 20.5678 4.11785 20.6028 4.12285 20.6358C4.15385 20.8258 4.34985 21.0008 4.63185 21.0008H10.3548C10.6728 21.0008 10.9588 20.8078 11.0768 20.5128L13.2898 15.0018C13.4968 14.4868 13.1178 13.9258 12.5628 13.9258Z" fill="black"/>
</svg>