<svg width="25" height="24" viewBox="0 0 25 24" fill="none" xmlns="http://www.w3.org/2000/svg">
<path fill-rule="evenodd" clip-rule="evenodd" d="M21.3972 14.7492L20.2972 12.7492C20.1972 12.5492 19.9972 12.4492 19.8972 12.4492H15.3972C15.1972 12.4492 14.9972 12.5492 14.9972 12.7492L13.8972 14.7492C13.7972 14.9492 13.7972 15.1492 13.9972 15.3492L17.3972 19.0492C17.4972 19.1492 17.5972 19.2492 17.7972 19.2492C17.8972 19.2492 18.0972 19.1492 18.1972 19.0492L21.4972 15.3492C21.4972 15.1492 21.4972 14.8492 21.3972 14.7492Z" fill="black"/>
<path fill-rule="evenodd" clip-rule="evenodd" d="M10.7974 3.64844C8.59736 3.64844 6.79736 5.44844 6.79736 7.74844C6.79736 9.94844 8.59736 11.7484 10.7974 11.7484C12.9974 11.7484 14.7974 9.94844 14.7974 7.74844C14.8974 5.44844 13.0974 3.64844 10.7974 3.64844Z" fill="black"/>
<path fill-rule="evenodd" clip-rule="evenodd" d="M11.0972 14.3499C10.9972 13.9499 10.5972 13.6499 10.1972 13.7499C8.39722 13.8499 6.79722 14.0499 5.59722 14.5499C4.89722 14.8499 4.39722 15.2499 3.99722 15.7499C3.59722 16.2499 3.39722 16.9498 3.39722 17.6498C3.39722 18.3498 3.69722 19.0499 4.19722 19.5499C4.69722 20.0499 5.39722 20.3498 6.19722 20.3498H11.9972C12.6972 20.3498 13.1972 19.6498 12.8972 18.9499L11.0972 14.3499Z" fill="black"/>
</svg>