<svg width="24" height="24" viewBox="0 0 24 24" fill="none" xmlns="http://www.w3.org/2000/svg">
<path d="M8.54285 11.4362C8.80057 10.568 9.37151 9.79118 10.2034 9.31121L14.1781 7.01646C15.9057 6.01899 18.1789 6.63691 19.1704 8.35414C20.5235 10.6968 20.7444 13.3932 20.0521 15.9769C19.4733 18.1365 17.1843 19.4568 15.0251 18.8763C14.1747 18.6484 13.4759 18.3367 12.7216 17.9268" stroke="black" stroke-width="1.5" stroke-linecap="round" stroke-linejoin="round"/>
<path opacity="0.4" d="M16.7034 12.9624L16.9724 13.2315" stroke="black" stroke-width="1.5" stroke-linecap="round" stroke-linejoin="round"/>
<path opacity="0.4" d="M16.6543 9.90283L16.923 10.1716" stroke="black" stroke-width="1.5" stroke-linecap="round" stroke-linejoin="round"/>
<path opacity="0.4" d="M13.7117 11.2876L13.9804 11.5563" stroke="black" stroke-width="1.5" stroke-linecap="round" stroke-linejoin="round"/>
<path opacity="0.4" d="M16.0205 15.7026L16.2892 15.9714" stroke="black" stroke-width="1.5" stroke-linecap="round" stroke-linejoin="round"/>
<path opacity="0.4" d="M9.50196 3.50637C8.80597 5.09468 9.40786 6.19175 9.7958 6.54174C9.4267 6.33526 8.28621 6.21517 6.677 7.38665C7.29275 8.45241 9.27387 9.84812 12.191 8.16392C15.0189 6.53124 14.89 4.06613 14.2749 3C12.4558 3.80787 11.9895 4.85562 11.9838 5.2785C11.8747 4.76754 11.2255 3.69778 9.50196 3.50637Z" stroke="black" stroke-width="1.5" stroke-linecap="round" stroke-linejoin="round"/>
<circle cx="8.26285" cy="16.3024" r="4.69742" stroke="black" stroke-width="1.5" stroke-linecap="round" stroke-linejoin="round"/>
<path opacity="0.4" d="M8.5542 14.2383C8.36723 14.6449 8.36723 15.1129 8.5542 15.5195C8.14758 15.3326 7.67957 15.3326 7.27295 15.5195C7.45992 15.1129 7.45992 14.6449 7.27295 14.2383C7.67957 14.4253 8.14758 14.4253 8.5542 14.2383Z" stroke="black" stroke-width="1.5" stroke-linecap="round" stroke-linejoin="round"/>
</svg>
