<svg width="24" height="24" viewBox="0 0 24 24" fill="none" xmlns="http://www.w3.org/2000/svg">
<g opacity="0.4">
<circle cx="8.23861" cy="13.7286" r="5.23861" stroke="black" stroke-width="1.5" stroke-linecap="round" stroke-linejoin="round"/>
<path d="M10.6777 9.00165C11.2453 6.72195 13.3061 5.03271 15.7614 5.03271C18.6546 5.03271 21 7.37812 21 10.2713C21 13.1645 18.6546 15.5099 15.7614 15.5099C14.9217 15.5099 14.1281 15.3123 13.4246 14.9611" stroke="black" stroke-width="1.5" stroke-linecap="round" stroke-linejoin="round"/>
</g>
<path d="M9.38068 11.1692C9.01532 11.9638 9.01532 12.8783 9.38068 13.6729C8.58611 13.3075 7.67158 13.3075 6.87701 13.6729C7.24237 12.8783 7.24237 11.9638 6.87701 11.1692C7.67158 11.5345 8.58611 11.5345 9.38068 11.1692Z" stroke="black" stroke-width="1.5" stroke-linecap="round" stroke-linejoin="round"/>
<path d="M16.3654 8.25007C16.1891 8.63341 16.1891 9.07463 16.3654 9.45798C15.982 9.28171 15.5408 9.28171 15.1575 9.45798C15.3337 9.07463 15.3337 8.63341 15.1575 8.25007C15.5408 8.42634 15.982 8.42634 16.3654 8.25007Z" stroke="black" stroke-width="1.5" stroke-linecap="round" stroke-linejoin="round"/>
</svg>
