<svg width="24" height="24" viewBox="0 0 24 24" fill="none" xmlns="http://www.w3.org/2000/svg">
<path d="M7.77493 12.291C8.22055 14.6077 14.4894 22.3816 17.2078 20.786C20.0566 19.4365 17.1582 9.88003 15.4925 8.20848C14.7248 7.43887 13.2858 6.39585 10.4019 7.92146C7.51904 9.44707 7.57158 11.2227 7.77493 12.291Z" stroke="black" stroke-width="1.5" stroke-linecap="round" stroke-linejoin="round"/>
<path opacity="0.4" d="M8.10155 9.93191C6.0807 9.54564 4.06136 6.63391 7.25269 6.4218C6.04426 3.18572 8.93397 1.66109 10.9295 4.4749C12.9455 1.96368 14.1207 5.24398 13.3549 7.15002" stroke="black" stroke-width="1.5" stroke-linecap="round" stroke-linejoin="round"/>
<path opacity="0.4" d="M13.5143 11.5768L16.5558 9.96753" stroke="black" stroke-width="1.5" stroke-linecap="round" stroke-linejoin="round"/>
<path opacity="0.4" d="M15.7656 16.9229L18.2253 15.6211" stroke="black" stroke-width="1.5" stroke-linecap="round" stroke-linejoin="round"/>
<path opacity="0.4" d="M12.8036 14.8835L10.1289 16.2982" stroke="black" stroke-width="1.5" stroke-linecap="round" stroke-linejoin="round"/>
</svg>
