<svg width="24" height="24" viewBox="0 0 24 24" fill="none" xmlns="http://www.w3.org/2000/svg">
<path d="M14.382 4.44203L14.471 4.01372C14.4999 3.8743 14.3584 3.76096 14.2287 3.8197L13.9161 3.96127C13.8533 3.98972 13.7796 3.9784 13.7282 3.93242L13.2311 3.48768C13.1368 3.40331 12.9869 3.44452 12.9489 3.56523L12.7599 4.16656C12.7402 4.22938 12.6867 4.27568 12.6217 4.28622L12.1084 4.36946C11.9579 4.39387 11.9092 4.58622 12.03 4.67926L12.3535 4.92839C11.9579 5.30601 11.7114 5.83852 11.7114 6.42859C11.7114 7.57388 12.6399 8.50232 13.7852 8.50232C14.9304 8.50232 15.8589 7.57388 15.8589 6.42859C15.8589 5.49077 15.2364 4.69835 14.382 4.44203Z" stroke="black" stroke-width="1.5" stroke-linecap="round" stroke-linejoin="round"/>
<path d="M7.48105 8.02074L7.2635 7.6891C7.19269 7.58114 7.02928 7.59922 6.98377 7.72005L6.87413 8.01121C6.85209 8.06973 6.79759 8.10972 6.73515 8.11319L6.13136 8.14674C6.01681 8.1531 5.94709 8.27566 6.00016 8.37737L6.26452 8.88406C6.29213 8.93699 6.28752 9.00097 6.25261 9.04939L5.97689 9.43185C5.89604 9.54399 5.98816 9.69851 6.12525 9.68072L6.49233 9.63308C6.48082 10.1288 6.66421 10.6282 7.04252 11.0065C7.77678 11.7408 8.96725 11.7408 9.70152 11.0065C10.4358 10.2722 10.4358 9.08176 9.70152 8.3475C9.10027 7.74625 8.19312 7.63733 7.48105 8.02074Z" stroke="black" stroke-width="1.5" stroke-linecap="round" stroke-linejoin="round"/>
<path d="M4.17734 14.3673L3.82311 14.1888C3.70781 14.1307 3.57533 14.2281 3.59634 14.3555L3.64696 14.6625C3.65714 14.7242 3.62993 14.786 3.5776 14.8203L3.07147 15.1512C2.97545 15.214 2.97635 15.355 3.07316 15.4165L3.55545 15.7232C3.60583 15.7552 3.63383 15.8129 3.62781 15.8723L3.58025 16.3414C3.56631 16.4789 3.72334 16.5667 3.83317 16.4827L4.12725 16.2579C4.36514 16.693 4.77367 17.0338 5.29043 17.1723C6.29346 17.441 7.32444 16.8458 7.5932 15.8428C7.86196 14.8397 7.26672 13.8088 6.2637 13.54C5.44238 13.3199 4.60231 13.6792 4.17734 14.3673Z" stroke="black" stroke-width="1.5" stroke-linecap="round" stroke-linejoin="round"/>
<g opacity="0.4">
<path d="M14.0184 15.6573C14.8667 13.2144 18.2962 12.3187 21 14.5268C20.0424 14.339 17.9188 14.4817 17.0851 16.5546C16.2514 18.6275 14.731 19.288 12.4576 18.8808" stroke="black" stroke-width="1.5" stroke-linecap="round" stroke-linejoin="round"/>
<path d="M11.0184 20.5568C12.8491 18.4913 16.0881 13.1888 14.3982 8.5022" stroke="black" stroke-width="1.5" stroke-linecap="round" stroke-linejoin="round"/>
<path d="M9.85925 10.8032C11.7069 12.7635 12.8321 16.8474 12.6255 17.9364C12.2312 16.8098 9.38843 15.7431 7.75488 15.5151" stroke="black" stroke-width="1.5" stroke-linecap="round" stroke-linejoin="round"/>
</g>
</svg>
