<svg width="24" height="24" viewBox="0 0 24 24" fill="none" xmlns="http://www.w3.org/2000/svg">
<path d="M12.7889 15.0082C12.1965 18.189 9.6588 20.3844 7.12089 19.9117C4.58297 19.439 3.00585 16.4772 3.59829 13.2964C4.19074 10.1156 6.7284 7.92019 9.26631 8.39289C11.8042 8.86559 13.3813 11.8274 12.7889 15.0082Z" stroke="black" stroke-width="1.5" stroke-linecap="round" stroke-linejoin="round"/>
<path d="M11.8334 10.0172C12.3136 9.3336 12.9636 8.81049 13.7545 8.53124C16.1887 7.67165 19.0354 9.44806 20.1128 12.499C21.1901 15.5499 20.0901 18.72 17.6559 19.5795C15.7177 20.2639 13.5181 19.2773 12.1583 17.3068" stroke="black" stroke-width="1.5" stroke-linecap="round" stroke-linejoin="round"/>
<path d="M10.1035 14.2512C9.51101 17.4321 8.30966 20.1331 7.12072 19.9117C5.93179 19.6902 5.66741 16.9515 6.25985 13.7707C6.85229 10.5898 8.07722 8.17141 9.26615 8.39286C10.4551 8.6143 10.6959 11.0704 10.1035 14.2512Z" stroke="black" stroke-width="1.5" stroke-linecap="round" stroke-linejoin="round"/>
<g opacity="0.4">
<path d="M9.33337 8.39635C9.39551 7.13874 11.3939 3.75265 15.4392 3" stroke="black" stroke-width="1.5" stroke-linecap="round" stroke-linejoin="round"/>
<path d="M13.6853 7.98712C13.4286 7.60822 13.003 5.83787 13.4301 3.96899" stroke="black" stroke-width="1.5" stroke-linecap="round" stroke-linejoin="round"/>
<path d="M6.72284 19.9209L6.27344 20.7513" stroke="black" stroke-width="1.5" stroke-linecap="round" stroke-linejoin="round"/>
<path d="M7.48883 20.0635L7.60914 21" stroke="black" stroke-width="1.5" stroke-linecap="round" stroke-linejoin="round"/>
<path d="M19.2172 18.9293L19.9412 19.5355" stroke="black" stroke-width="1.5" stroke-linecap="round" stroke-linejoin="round"/>
<path d="M18.5577 19.3441L18.7913 20.259" stroke="black" stroke-width="1.5" stroke-linecap="round" stroke-linejoin="round"/>
</g>
</svg>
