<svg width="24" height="24" viewBox="0 0 24 24" fill="none" xmlns="http://www.w3.org/2000/svg">
<path opacity="0.4" d="M17.9331 11.8838C18.0084 10.6237 18.4781 10.0335 19.8031 9.29004C19.6184 7.99951 19.8698 7.41172 21 6.53726C20.431 5.71117 20.3689 5.17227 20.5786 4.12217C19.4489 4.32834 18.9017 4.2545 18.1537 3.64209C17.3203 4.85642 16.6929 5.09184 15.2943 4.89698C14.7068 5.93101 14.2119 6.5026 12.9585 6.95319" stroke="black" stroke-width="1.5" stroke-linecap="round" stroke-linejoin="round"/>
<path opacity="0.4" d="M11.172 7.31265C10.0636 7.01947 9.49436 6.50562 8.7865 5.61463C7.33378 6.05305 6.62866 5.90695 5.54274 4.75562C4.84994 5.52966 4.28121 5.69864 3.04766 5.66674C3.44408 6.74698 3.46745 7.32943 3 8.30072C4.34478 9.04208 4.57164 10.0964 4.58917 11.4972C5.82763 11.564 6.85281 12.1442 7.14135 13.4697C8.00863 13.0288 8.57137 12.8761 9.38007 13.026" stroke="black" stroke-width="1.5" stroke-linecap="round" stroke-linejoin="round"/>
<path d="M6.51587 16.8994C6.51587 18.8095 8.06429 20.3579 9.97437 20.3579C11.8845 20.3579 13.4329 18.8095 13.4329 16.8994C13.4329 14.9893 11.8845 13.4409 9.97437 13.4409C8.06429 13.4409 6.51587 14.9893 6.51587 16.8994Z" stroke="black" stroke-width="1.5" stroke-linecap="round" stroke-linejoin="round"/>
<path d="M12.416 14.4328C12.8986 12.8379 14.3798 11.6768 16.1322 11.6768C18.2762 11.6768 20.0142 13.4148 20.0142 15.5588C20.0142 17.7027 18.2762 19.4408 16.1322 19.4408C14.9793 19.4408 13.9438 18.9382 13.2328 18.1402" stroke="black" stroke-width="1.5" stroke-linecap="round" stroke-linejoin="round"/>
<path d="M9.71335 13.4697C9.10851 12.7851 8.74146 11.8856 8.74146 10.9003C8.74146 8.75634 10.4795 7.01831 12.6235 7.01831C14.7674 7.01831 16.5055 8.75634 16.5055 10.9003C16.5055 11.1045 16.4897 11.305 16.4593 11.5006" stroke="black" stroke-width="1.5" stroke-linecap="round" stroke-linejoin="round"/>
<path opacity="0.4" d="M12.1068 9.42212V9.43212" stroke="black" stroke-width="1.5" stroke-linecap="round" stroke-linejoin="round"/>
<path opacity="0.4" d="M8.98877 16.8994V16.9094" stroke="black" stroke-width="1.5" stroke-linecap="round" stroke-linejoin="round"/>
<path opacity="0.4" d="M17.6003 15.5588V15.5688" stroke="black" stroke-width="1.5" stroke-linecap="round" stroke-linejoin="round"/>
</svg>
