<svg width="24" height="24" viewBox="0 0 24 24" fill="none" xmlns="http://www.w3.org/2000/svg">
<circle opacity="0.4" cx="12" cy="12" r="9" stroke="black" stroke-width="1.5" stroke-linecap="round" stroke-linejoin="round"/>
<path d="M12.0001 7.70947L12.1708 8.46543C12.3934 9.45096 13.5244 9.91942 14.3787 9.37995L15.034 8.96616L14.6202 9.62144C14.0807 10.4757 14.5492 11.6067 15.5347 11.8293L16.2906 12.0001L15.5347 12.1708C14.5492 12.3934 14.0807 13.5244 14.6202 14.3787L15.034 15.034L14.3787 14.6202C13.5244 14.0807 12.3934 14.5492 12.1708 15.5347L12.0001 16.2906L11.8293 15.5347C11.6067 14.5492 10.4757 14.0807 9.62144 14.6202L8.96616 15.034L9.37995 14.3787C9.91942 13.5244 9.45096 12.3934 8.46543 12.1708L7.70947 12.0001L8.46543 11.8293C9.45096 11.6067 9.91942 10.4757 9.37995 9.62144L8.96616 8.96616L9.62144 9.37995C10.4757 9.91942 11.6067 9.45096 11.8293 8.46543L12.0001 7.70947Z" stroke="black" stroke-width="1.5" stroke-linecap="round" stroke-linejoin="round"/>
<path d="M18.1753 9.55737V9.56737" stroke="black" stroke-width="1.5" stroke-linecap="round" stroke-linejoin="round"/>
<path d="M5.88586 9.55737V9.56737" stroke="black" stroke-width="1.5" stroke-linecap="round" stroke-linejoin="round"/>
<path d="M14.406 17.8418V17.8518" stroke="black" stroke-width="1.5" stroke-linecap="round" stroke-linejoin="round"/>
<path d="M10.0085 17.8418V17.8518" stroke="black" stroke-width="1.5" stroke-linecap="round" stroke-linejoin="round"/>
<path d="M10.0085 6.01917V6.02917" stroke="black" stroke-width="1.5" stroke-linecap="round" stroke-linejoin="round"/>
</svg>
