<svg width="24" height="24" viewBox="0 0 24 24" fill="none" xmlns="http://www.w3.org/2000/svg">
<path d="M16.8767 17.0447C16.3544 17.7341 14.9582 20.5832 13.782 19.8813C13.1834 19.524 12.7907 19.1374 12.4348 18.5326C11.7545 17.3766 14.5556 15.9348 15.2322 15.4001" stroke="black" stroke-width="1.5" stroke-linecap="round" stroke-linejoin="round"/>
<path d="M19.8972 12.4517C18.2802 10.8347 16.0471 10.4345 14.3508 11.772C11.9781 13.6427 19.2632 19.7573 20.6407 17.9148C22.0183 16.0723 21.4878 14.0423 19.8972 12.4517Z" stroke="black" stroke-width="1.5"/>
<g opacity="0.4">
<path d="M7.16748 13.9134C7.58623 14.4661 8.7056 16.7503 9.64856 16.1875C10.1285 15.9011 10.4433 15.5911 10.7286 15.1062C11.274 14.1795 9.02837 13.0236 8.48592 12.595" stroke="black" stroke-width="1.5" stroke-linecap="round" stroke-linejoin="round"/>
<path d="M15.04 6.86385C14.6213 7.41658 13.5019 9.70069 12.5589 9.13795C12.079 8.85155 11.7642 8.54158 11.4789 8.05669C10.9335 7.12995 13.1791 5.97401 13.7216 5.54541" stroke="black" stroke-width="1.5" stroke-linecap="round" stroke-linejoin="round"/>
<path d="M4.7461 10.2313C6.04243 8.93496 7.83268 8.61413 9.19261 9.68637C11.0948 11.1861 5.25437 16.0882 4.14998 14.6111C3.04559 13.134 3.47085 11.5065 4.7461 10.2313Z" stroke="black" stroke-width="1.5"/>
<path d="M17.4614 3.18172C16.1651 1.88539 14.3748 1.56457 13.0149 2.63681C11.1127 4.13659 16.9532 9.03868 18.0575 7.56155C19.1619 6.08442 18.7367 4.45697 17.4614 3.18172Z" stroke="black" stroke-width="1.5"/>
</g>
</svg>
