<svg width="24" height="24" viewBox="0 0 24 24" fill="none" xmlns="http://www.w3.org/2000/svg">
<path d="M20.1012 7.44025C20.1012 8.72906 19.6296 9.8648 18.3689 10.1326C14.7 10.912 11.2731 10.9418 7.58744 10.1326C6.37785 9.86705 5.87366 8.76966 5.87366 7.53125C5.87366 4.16193 10.5242 3 13.194 3C15.8316 3 20.1012 4.13183 20.1012 7.44025Z" stroke="black" stroke-width="1.5" stroke-linecap="round" stroke-linejoin="round"/>
<path d="M10.5355 14.885C10.5355 15.4662 10.3155 15.9783 9.72742 16.0991C8.01601 16.4506 6.41746 16.464 4.69823 16.0991C4.13399 15.9794 3.8988 15.4845 3.8988 14.926C3.8988 13.4066 6.06811 12.8826 7.3135 12.8826C8.54386 12.8826 10.5355 13.393 10.5355 14.885Z" stroke="black" stroke-width="1.5" stroke-linecap="round" stroke-linejoin="round"/>
<path opacity="0.4" d="M15.8762 10.6257C16.1171 12.6808 18.4233 19.8796 15.3078 20.6867C13.6777 21.109 12.3555 21.0988 10.7337 20.6893C10.2534 20.568 9.12454 19.7998 9.05607 19.2749" stroke="black" stroke-width="1.5" stroke-linecap="round" stroke-linejoin="round"/>
<path opacity="0.4" d="M9.76331 13.0989C9.9966 12.0592 10.2212 11.1653 10.2956 10.6257" stroke="black" stroke-width="1.5" stroke-linecap="round" stroke-linejoin="round"/>
<path d="M5.96145 16.3215C5.82919 17.2487 4.67935 20.4969 6.16578 20.8598C6.92226 21.0445 7.53904 21.0491 8.29944 20.8587C9.7527 20.4947 8.67696 17.2483 8.56457 16.3215" stroke="black" stroke-width="1.5" stroke-linecap="round" stroke-linejoin="round"/>
<path opacity="0.4" d="M16.1453 6.19897C15.8357 6.01839 14.9999 5.65724 14.1331 5.65723" stroke="black" stroke-width="1.5" stroke-linecap="round" stroke-linejoin="round"/>
</svg>
