<svg width="24" height="24" viewBox="0 0 24 24" fill="none" xmlns="http://www.w3.org/2000/svg">
<ellipse cx="6.91052" cy="16.66" rx="3.10962" ry="3.85213" transform="rotate(10.1552 6.91052 16.66)" stroke="black" stroke-width="1.5" stroke-linecap="round" stroke-linejoin="round"/>
<ellipse cx="16.514" cy="15.5347" rx="3.10962" ry="3.85213" transform="rotate(-21.7511 16.514 15.5347)" stroke="black" stroke-width="1.5" stroke-linecap="round" stroke-linejoin="round"/>
<path d="M17.2456 16.6599V16.6699" stroke="black" stroke-width="1.5" stroke-linecap="round" stroke-linejoin="round"/>
<path d="M6.68445 18.1654V18.1754" stroke="black" stroke-width="1.5" stroke-linecap="round" stroke-linejoin="round"/>
<g opacity="0.4">
<path d="M4.09717 5.35437C5.99018 6.99253 11.7639 9.65727 19.7147 7.21094" stroke="black" stroke-width="1.5" stroke-linecap="round" stroke-linejoin="round"/>
<path d="M8.05951 12.9653C8.99077 11.1562 9.46396 10.1166 9.50558 7.86597" stroke="black" stroke-width="1.5" stroke-linecap="round" stroke-linejoin="round"/>
<path d="M14.9672 11.9125C14.371 10.3041 13.9868 9.57287 13.1106 8.19934" stroke="black" stroke-width="1.5" stroke-linecap="round" stroke-linejoin="round"/>
<path d="M11.2405 7.86603C12.2101 3.96004 16.2804 2.99453 18.1944 3.00002C17.5101 6.88824 14.3024 7.04558 11.2405 7.86603Z" stroke="black" stroke-width="1.5" stroke-linecap="round" stroke-linejoin="round"/>
</g>
</svg>
