<svg width="24" height="24" viewBox="0 0 24 24" fill="none" xmlns="http://www.w3.org/2000/svg">
<path fill-rule="evenodd" clip-rule="evenodd" d="M17.8137 18.285C13.64 22.4551 6.55784 17.4418 4.50483 19.4949C6.55786 17.4418 1.54454 10.3597 5.71472 6.18596C8.38755 3.51313 13.2628 4.05481 16.6038 7.39586C19.9448 10.7369 20.4866 15.6121 17.8137 18.285Z" stroke="black" stroke-width="1.5" stroke-linecap="round" stroke-linejoin="round"/>
<g opacity="0.4">
<path fill-rule="evenodd" clip-rule="evenodd" d="M14.2911 14.7628C10.1184 18.934 6.55791 17.4423 4.50488 19.4953C6.55792 17.4423 5.0662 13.8818 9.23742 9.70908C11.9103 7.03625 15.2083 6.0008 16.6039 7.39634C17.9994 8.79188 16.964 12.09 14.2911 14.7628Z" stroke="black" stroke-width="1.5" stroke-linecap="round" stroke-linejoin="round"/>
<path d="M18.8866 5.11353L16.6593 7.34087" stroke="black" stroke-width="1.5" stroke-linecap="round" stroke-linejoin="round"/>
<path d="M16.6591 4V7.34102L20.0003 7.3406" stroke="black" stroke-width="1.5" stroke-linecap="round" stroke-linejoin="round"/>
</g>
</svg>
