<svg width="24" height="24" viewBox="0 0 24 24" fill="none" xmlns="http://www.w3.org/2000/svg">
<path d="M10.2483 11.9201C10.0625 10.7313 10.3331 9.62078 11.1431 8.81079C12.4112 7.54263 13.9615 8.25058 15.7132 8.60228C17.1113 8.88301 17.9738 8.95207 19.3429 10.201C21.6381 12.4961 21.3616 15.21 19.658 16.9137C18.5846 17.987 16.9009 18.1938 15.228 17.626" stroke="black" stroke-width="1.5" stroke-linecap="round" stroke-linejoin="round"/>
<path d="M11.4643 12.0781C10.3454 12.3042 9.23137 11.6698 8.85486 10.5921C8.15797 8.59758 5.12575 8.47749 3.88105 9.95165C2.06037 12.108 3.37136 16.1512 5.0167 17.8971C7.28648 20.3057 10.9722 21.3607 13.6924 19.4309C14.8005 18.6448 15.3417 17.4522 15.4725 16.1338C15.6822 14.0201 13.7152 11.6233 11.4643 12.0781Z" stroke="black" stroke-width="1.5" stroke-linecap="round" stroke-linejoin="round"/>
<g opacity="0.4">
<path d="M16.2477 8.51708C14.2639 6.79064 12.9829 2.9604 9.62483 3.38425C6.67784 3.75622 4.97341 5.66558 6.07859 8.95484" stroke="black" stroke-width="1.5" stroke-linecap="round" stroke-linejoin="round"/>
<path d="M17.1234 11.3186C17.319 10.8103 17.5087 10.5781 18.105 10.337" stroke="black" stroke-width="1.5" stroke-linecap="round" stroke-linejoin="round"/>
<path d="M5.05725 13.4502C4.86168 13.9585 4.67201 14.1907 4.07563 14.4318" stroke="black" stroke-width="1.5" stroke-linecap="round" stroke-linejoin="round"/>
<path d="M9.21069 19.7737C9.40626 19.2654 9.59593 19.0331 10.1923 18.7921" stroke="black" stroke-width="1.5" stroke-linecap="round" stroke-linejoin="round"/>
<path d="M18.698 13.4503C18.4617 14.0644 18.2326 14.3449 17.5121 14.6361" stroke="black" stroke-width="1.5" stroke-linecap="round" stroke-linejoin="round"/>
<path d="M9.00635 7.3183C9.24261 6.70418 9.47176 6.42364 10.1923 6.13245" stroke="black" stroke-width="1.5" stroke-linecap="round" stroke-linejoin="round"/>
<path d="M13.3887 13.5071C13.1524 14.1213 12.9233 14.4018 12.2028 14.693" stroke="black" stroke-width="1.5" stroke-linecap="round" stroke-linejoin="round"/>
<path d="M8.05798 15.4135C8.29425 14.7994 8.5234 14.5189 9.2439 14.2277" stroke="black" stroke-width="1.5" stroke-linecap="round" stroke-linejoin="round"/>
</g>
</svg>
