<svg width="24" height="24" viewBox="0 0 24 24" fill="none" xmlns="http://www.w3.org/2000/svg">
<g opacity="0.4">
<path d="M10.7291 7.67791C10.2869 6.50112 10.1704 4.2707 7.27722 4.27063" stroke="black" stroke-width="1.5" stroke-linecap="round" stroke-linejoin="round"/>
<path d="M10.5712 7.56889C7.66028 6.74813 6.11365 9.0308 3.75018 8.03049C3.91268 9.40628 4.91533 11.9529 7.626 11.1332" stroke="black" stroke-width="1.5" stroke-linecap="round" stroke-linejoin="round"/>
<path d="M10.7497 7.51417C10.7056 5.59296 13.0684 5.56633 14.0028 3C15.1584 4.30234 15.0817 5.97839 14.8396 6.9062" stroke="black" stroke-width="1.5" stroke-linecap="round" stroke-linejoin="round"/>
<path d="M17.8018 7.45709C18.2137 6.91525 18.8691 5.47433 18.1958 4.04541C17.2019 5.39549 15.8983 5.40436 15.1691 6.0115" stroke="black" stroke-width="1.5" stroke-linecap="round" stroke-linejoin="round"/>
<path d="M6.37349 14.2902C5.71043 14.3586 4.17134 14.1726 3.3194 12.8813C4.95495 12.738 5.62662 11.6523 6.50597 11.3518" stroke="black" stroke-width="1.5" stroke-linecap="round" stroke-linejoin="round"/>
<path d="M13.5591 10.8864C13.9342 11.9091 12.502 12.8041 11.6955 11.9694C12.0594 13.1018 10.4099 13.947 9.72435 13.0768" stroke="black" stroke-width="1.5" stroke-linecap="round" stroke-linejoin="round"/>
<path d="M17.5152 12.2098C17.8774 13.1976 16.4941 14.0621 15.7152 13.2559" stroke="black" stroke-width="1.5" stroke-linecap="round" stroke-linejoin="round"/>
<path d="M15.0546 16.0049C15.4064 16.9642 14.063 17.8037 13.3066 17.0208" stroke="black" stroke-width="1.5" stroke-linecap="round" stroke-linejoin="round"/>
</g>
<path d="M6.43652 14.0782C6.33837 12.6688 7.10112 11.4566 8.26358 10.9595C8.44859 9.87603 9.22097 8.68048 10.2432 8.07753C11.2272 7.41399 12.5578 7.28197 13.6155 7.58095C14.5643 6.74531 15.9867 6.57805 17.2168 7.27284C18.198 7.82698 18.8299 8.80129 18.9956 9.84065C19.022 9.85457 19.0483 9.86892 19.0745 9.88372C20.841 10.8814 21.1655 13.3097 19.9729 14.6088C20.7357 16.0262 20.2917 17.6976 19.1503 18.4635C19.0081 20.1725 17.4384 21.2232 15.7077 20.6367C14.5253 21.3378 12.8255 21.0198 11.8739 19.7215C10.1882 20.2394 8.13556 18.902 7.99461 16.8781C7.99252 16.8481 7.99087 16.8182 7.98964 16.7884C7.1226 16.1918 6.5148 15.2022 6.43652 14.0782Z" stroke="black" stroke-width="1.5" stroke-linecap="round" stroke-linejoin="round"/>
</svg>
