<svg width="24" height="24" viewBox="0 0 24 24" fill="none" xmlns="http://www.w3.org/2000/svg">
<path opacity="0.4" fill-rule="evenodd" clip-rule="evenodd" d="M15.026 19.7642C16.9985 17.7918 18.2051 15.2413 18.2045 12.4199C18.2045 10.352 16.4736 8.60864 14.3932 8.60864L9.60689 8.60864C7.52614 8.60798 5.7946 10.3517 5.79559 12.4199C5.79574 15.2403 7.00225 17.7898 8.97404 19.7616C10.6214 21.4117 13.3772 21.4129 15.026 19.7642Z" stroke="black" stroke-width="1.5" stroke-linecap="round" stroke-linejoin="round"/>
<path fill-rule="evenodd" clip-rule="evenodd" d="M12.5482 15.5436C12.9325 14.7845 13.1676 13.8029 13.1675 12.717C13.1675 10.7372 10.7494 10.8382 10.7498 12.717C10.7498 13.8025 10.9849 14.7837 11.3691 15.5426C11.69 16.1777 12.227 16.1782 12.5482 15.5436Z" stroke="black" stroke-width="1.5" stroke-linecap="round" stroke-linejoin="round"/>
<path d="M12 3C10.5432 4.07157 10.5147 5.37624 10.6826 5.89463C10.4569 5.51568 9.48951 4.81253 7.42529 5.03146C7.42568 6.31508 8.48716 8.60865 12 8.60865C15.4053 8.60865 16.5744 6.31508 16.5747 5.03146C14.5105 4.81253 13.5431 5.51568 13.3174 5.89463C13.4853 5.37624 13.4568 4.07157 12 3Z" stroke="black" stroke-width="1.5" stroke-linecap="round" stroke-linejoin="round"/>
<path d="M15.3594 12.0995L15.368 12.1045" stroke="black" stroke-width="1.5" stroke-linecap="round" stroke-linejoin="round"/>
<path d="M9.05029 16.1001L9.05895 16.1051" stroke="black" stroke-width="1.5" stroke-linecap="round" stroke-linejoin="round"/>
<path d="M12.0646 18.3851L12.0733 18.3901" stroke="black" stroke-width="1.5" stroke-linecap="round" stroke-linejoin="round"/>
<path d="M15.0194 15.9056L15.0281 15.9106" stroke="black" stroke-width="1.5" stroke-linecap="round" stroke-linejoin="round"/>
<path d="M8.44775 12.1534L8.45641 12.1584" stroke="black" stroke-width="1.5" stroke-linecap="round" stroke-linejoin="round"/>
</svg>
