<svg width="24" height="24" viewBox="0 0 24 24" fill="none" xmlns="http://www.w3.org/2000/svg">
<path fill-rule="evenodd" clip-rule="evenodd" d="M18.1725 19.1936C19.9271 17.4389 21.0005 15.17 21 12.6602C21 10.8207 19.4603 9.26978 17.6095 9.26978H13.3518C11.5008 9.26918 9.96042 10.8203 9.9613 12.6602C9.96144 15.1692 11.0347 17.4371 12.7888 19.1912C14.2542 20.6591 16.7058 20.6602 18.1725 19.1936Z" stroke="black" stroke-width="1.5" stroke-linecap="round" stroke-linejoin="round"/>
<path d="M16.9133 14.6273L17.0047 14.9684" stroke="black" stroke-width="1.5" stroke-linecap="round" stroke-linejoin="round"/>
<path d="M18.3918 12.6003L18.4831 12.941" stroke="black" stroke-width="1.5" stroke-linecap="round" stroke-linejoin="round"/>
<path d="M15.4349 12.6003L15.5262 12.941" stroke="black" stroke-width="1.5" stroke-linecap="round" stroke-linejoin="round"/>
<path d="M12.4781 12.6003L12.5694 12.941" stroke="black" stroke-width="1.5" stroke-linecap="round" stroke-linejoin="round"/>
<path d="M13.9565 14.6273L14.0479 14.9684" stroke="black" stroke-width="1.5" stroke-linecap="round" stroke-linejoin="round"/>
<path d="M15.4349 16.5819L15.5262 16.9226" stroke="black" stroke-width="1.5" stroke-linecap="round" stroke-linejoin="round"/>
<path d="M15.4807 4.2804C14.1848 5.23365 14.1595 6.39425 14.3088 6.8554C14.108 6.5183 13.2474 5.89278 11.4111 6.08754C11.4115 7.22942 12.3557 9.26974 15.4807 9.26974C18.51 9.26974 19.55 7.22942 19.5503 6.08754C17.714 5.89278 16.8534 6.5183 16.6526 6.8554C16.802 6.39425 16.7766 5.23365 15.4807 4.2804Z" stroke="black" stroke-width="1.5" stroke-linecap="round" stroke-linejoin="round"/>
<g opacity="0.4">
<path d="M11.5486 6.99048C11.0038 7.00303 10.457 7.14587 9.95905 7.43337L6.27171 9.56226C4.6684 10.4872 4.11 12.6007 5.03071 14.1937C6.28532 16.3665 8.34876 17.7939 10.7449 18.4359C11.176 18.5519 11.6128 18.5861 12.0381 18.5484" stroke="black" stroke-width="1.5" stroke-linecap="round" stroke-linejoin="round"/>
<path d="M9.36316 10.9385L9.61256 11.1879" stroke="black" stroke-width="1.5" stroke-linecap="round" stroke-linejoin="round"/>
<path d="M7.25659 12.6003L7.50599 12.8497" stroke="black" stroke-width="1.5" stroke-linecap="round" stroke-linejoin="round"/>
<path d="M9.31738 14.6731L9.56707 14.9228" stroke="black" stroke-width="1.5" stroke-linecap="round" stroke-linejoin="round"/>
<path d="M5.62077 4.1768C4.97508 5.65031 5.53347 6.66808 5.89337 6.99277C5.55095 6.80122 4.49289 6.68981 3 7.77662C3.57124 8.76534 5.40916 10.0602 8.11544 8.4977C10.7389 6.98304 10.6194 4.6961 10.0487 3.70703C8.36108 4.45651 7.92853 5.42852 7.92321 5.82084C7.82197 5.34681 7.2197 4.35438 5.62077 4.1768Z" stroke="black" stroke-width="1.5" stroke-linecap="round" stroke-linejoin="round"/>
</g>
</svg>
