<svg width="25" height="24" viewBox="0 0 25 24" fill="none" xmlns="http://www.w3.org/2000/svg">
<path d="M20.2054 21.5245L4.38281 4.78516" stroke="black" stroke-width="1.5" stroke-linecap="round" stroke-linejoin="round"/>
<path d="M13.183 14.361C13.0077 14.3564 12.83 14.3533 12.65 14.3516C8.09287 14.3841 5.06836 15.348 5.06836 18.1424C5.13334 19.5152 6.05126 20.5008 7.57028 20.5008H17.7296C18.2225 20.5008 18.6517 20.3966 19.0089 20.2089" stroke="black" stroke-width="1.5" stroke-miterlimit="10" stroke-linecap="round" stroke-linejoin="round"/>
<path opacity="0.4" d="M20.2316 18.1441C20.2419 16.3767 19.0229 15.3428 16.9629 14.8125" stroke="black" stroke-width="1.5" stroke-miterlimit="10" stroke-linecap="round" stroke-linejoin="round"/>
<path opacity="0.4" d="M13.9003 10.9569C15.4065 10.4408 16.4893 9.01255 16.4893 7.33141C16.4893 5.21538 14.7739 3.5 12.6579 3.5C10.9776 3.5 9.54993 4.58164 9.0332 6.08662" stroke="black" stroke-width="1.5" stroke-miterlimit="10" stroke-linecap="round" stroke-linejoin="round"/>
</svg>