<svg width="25" height="24" viewBox="0 0 25 24" fill="none" xmlns="http://www.w3.org/2000/svg">
<path opacity="0.4" d="M21.6504 8.59639C21.6504 6.06666 20.081 4.28125 17.5522 4.28125H7.75634C5.23634 4.28125 3.65039 6.06666 3.65039 8.59639V15.415C3.65039 17.936 5.22758 19.7214 7.75634 19.7214H17.5435C20.081 19.7214 21.6504 17.936 21.6504 15.415V8.59639Z" stroke="black" stroke-width="1.5" stroke-linecap="round" stroke-linejoin="round"/>
<path d="M6.85938 16.0173C6.85938 15.0453 7.62608 13.8359 9.8357 13.8359C12.0453 13.8359 12.812 15.0366 12.812 16.0086" stroke="black" stroke-width="1.5" stroke-linecap="round" stroke-linejoin="round"/>
<path fill-rule="evenodd" clip-rule="evenodd" d="M11.7369 9.88166C11.7369 10.9315 10.8856 11.7828 9.83576 11.7828C8.78592 11.7828 7.93457 10.9315 7.93457 9.88166C7.93457 8.83182 8.78592 7.98047 9.83576 7.98047C10.8856 7.98047 11.7369 8.83182 11.7369 9.88166Z" stroke="black" stroke-width="1.5" stroke-linecap="round" stroke-linejoin="round"/>
<path d="M14.7715 10.3477L18.244 10.3953M16.0732 14.0496H18.2439" stroke="black" stroke-width="1.5" stroke-linecap="round" stroke-linejoin="round"/>
</svg>