<svg width="25" height="24" viewBox="0 0 25 24" fill="none" xmlns="http://www.w3.org/2000/svg">
<path d="M21.2739 11.1961C21.2978 11.4615 21.3102 11.7307 21.3102 12.0018C21.3102 16.8787 17.3572 20.8317 12.4803 20.8317C7.60332 20.8317 3.65039 16.8787 3.65039 12.0018C3.65039 7.12576 7.60332 3.17188 12.4803 3.17188C12.8526 3.17188 13.2201 3.19574 13.5809 3.2406" stroke="black" stroke-width="1.5" stroke-linecap="round" stroke-linejoin="round"/>
<path d="M16.123 6.18738L17.9291 7.99631L21.6501 4.27344" stroke="black" stroke-width="1.5" stroke-linecap="round" stroke-linejoin="round"/>
<path opacity="0.4" d="M8.14062 19.6896C8.3134 18.3465 9.50854 16.8555 12.4744 16.8555C15.4728 16.8555 16.6593 18.3551 16.8245 19.7144" stroke="black" stroke-width="1.5" stroke-linecap="round" stroke-linejoin="round"/>
<path opacity="0.4" fill-rule="evenodd" clip-rule="evenodd" d="M14.9936 11.9656C14.9936 13.3535 13.8682 14.479 12.4802 14.479C11.0922 14.479 9.9668 13.3535 9.9668 11.9656C9.9668 10.5776 11.0922 9.45312 12.4802 9.45312C13.8682 9.45312 14.9936 10.5776 14.9936 11.9656Z" stroke="black" stroke-width="1.5" stroke-linecap="round" stroke-linejoin="round"/>
</svg>