<svg width="25" height="24" viewBox="0 0 25 24" fill="none" xmlns="http://www.w3.org/2000/svg">
<circle cx="11.2271" cy="8.17728" r="4.70071" stroke="black" stroke-width="1.5" stroke-linecap="round" stroke-linejoin="round"/>
<path d="M4.81174 19.5032C4.70089 18.865 4.74667 18.2036 4.74667 17.5589C4.74667 15.1296 6.71608 13.1602 9.14546 13.1602H13.4288C13.7553 13.1602 14.0735 13.1957 14.3797 13.2632" stroke="black" stroke-width="1.5" stroke-linecap="round" stroke-linejoin="round"/>
<path opacity="0.4" fill-rule="evenodd" clip-rule="evenodd" d="M18.0728 20.5234C18.0728 20.5234 20.5436 19.7747 20.5436 17.7124C20.5436 15.6491 20.6337 15.4889 20.4356 15.2899C20.2366 15.0899 18.3969 14.4492 18.0728 14.4492C17.7487 14.4492 15.9081 15.0909 15.71 15.2899C15.5119 15.488 15.601 15.6491 15.601 17.7124C15.601 19.7747 18.0728 20.5234 18.0728 20.5234Z" stroke="black" stroke-width="1.5" stroke-linecap="round" stroke-linejoin="round"/>
</svg>