<svg width="25" height="24" viewBox="0 0 25 24" fill="none" xmlns="http://www.w3.org/2000/svg">
<path d="M5.37184 19.5447C4.14406 19.5447 3.40213 18.6623 3.34961 17.4331C3.34961 14.9312 5.79424 14.0682 9.47759 14.0391C13.1675 14.0779 15.6187 14.9409 15.6056 17.4331C15.5465 18.6623 14.8089 19.5447 13.5833 19.5447H5.37184Z" stroke="black" stroke-width="1.5" stroke-miterlimit="10"/>
<path opacity="0.4" d="M18.1429 18.8155H19.7088C20.7028 18.8155 21.301 18.0998 21.3489 17.1029C21.3582 15.3462 19.8577 14.5876 17.5 14.3984" stroke="black" stroke-width="1.5" stroke-miterlimit="10" stroke-linecap="round"/>
<path d="M9.45838 10.9011C11.2379 10.9011 12.6804 9.45857 12.6804 7.67908C12.6804 5.89959 11.2379 4.45703 9.45838 4.45703C7.67889 4.45703 6.23633 5.89959 6.23633 7.67908C6.23633 9.45857 7.67889 10.9011 9.45838 10.9011Z" stroke="black" stroke-width="1.5" stroke-miterlimit="10"/>
<path opacity="0.4" d="M17.4854 10.7598C18.6444 10.7598 19.584 9.82018 19.584 8.66113C19.584 7.50209 18.6444 6.5625 17.4854 6.5625C16.3263 6.5625 15.3867 7.50209 15.3867 8.66113C15.3867 9.82018 16.3263 10.7598 17.4854 10.7598Z" stroke="black" stroke-width="1.5" stroke-miterlimit="10"/>
</svg>