<svg width="25" height="25" viewBox="0 0 25 25" fill="none" xmlns="http://www.w3.org/2000/svg">
<path opacity="0.4" d="M8.28232 3.76562H16.7167C19.6649 3.76562 21.5 5.84699 21.5 8.79236V16.7389C21.5 19.6843 19.6649 21.7656 16.7158 21.7656H8.28232C5.33411 21.7656 3.5 19.6843 3.5 16.7389V8.79236C3.5 5.84699 5.34263 3.76562 8.28232 3.76562Z" stroke="black" stroke-width="1.5" stroke-linecap="round" stroke-linejoin="round"/>
<path fill-rule="evenodd" clip-rule="evenodd" d="M10.1543 8.875H12.662C13.6785 8.875 14.5861 9.61774 14.6827 10.6295C14.7936 11.7901 13.8841 12.7668 12.7463 12.7668H10.1543V8.875Z" stroke="black" stroke-width="1.5" stroke-linecap="round" stroke-linejoin="round"/>
<path fill-rule="evenodd" clip-rule="evenodd" d="M10.1543 12.7656L13.3592 12.766C14.3758 12.766 15.2833 13.5087 15.38 14.5205C15.4908 15.6811 14.5814 16.6578 13.4436 16.6578H10.1543V12.7656Z" stroke="black" stroke-width="1.5" stroke-linecap="round" stroke-linejoin="round"/>
</svg>