<svg width="25" height="25" viewBox="0 0 25 25" fill="none" xmlns="http://www.w3.org/2000/svg">
<path opacity="0.4" d="M8.28313 3.76562H16.7178C19.6659 3.76562 21.5 5.84584 21.5 8.792V16.7392C21.5 19.6844 19.6659 21.7656 16.7169 21.7656H8.28313C5.33503 21.7656 3.5 19.6844 3.5 16.7392V8.792C3.5 5.84584 5.34378 3.76562 8.28313 3.76562Z" stroke="black" stroke-width="1.5" stroke-linecap="round" stroke-linejoin="round"/>
<path d="M9.80762 15.1874C9.80762 16.5252 11.0141 17.6091 12.5018 17.6091C13.9904 17.6091 15.1959 16.5252 15.1959 15.1874C15.1959 13.7483 14.1558 13.1908 13.0029 12.7656" stroke="black" stroke-width="1.5" stroke-linecap="round" stroke-linejoin="round"/>
<path d="M8.26758 12.7656H16.7354" stroke="black" stroke-width="1.5" stroke-linecap="round" stroke-linejoin="round"/>
<path d="M10.0145 10.8281C9.97457 10.6715 9.95414 10.508 9.95511 10.3436C9.95511 9.00674 11.0118 7.92188 12.5004 7.92188C13.6446 7.92188 14.5329 8.56306 14.8832 9.46696" stroke="black" stroke-width="1.5" stroke-linecap="round" stroke-linejoin="round"/>
</svg>