<svg width="25" height="25" viewBox="0 0 25 25" fill="none" xmlns="http://www.w3.org/2000/svg">
<path d="M6.91708 6.33594H18.0839C20.1904 6.33594 21.5 7.82264 21.5 9.92621V15.6035C21.5 17.708 20.1904 19.1938 18.0829 19.1938H6.91708C4.81059 19.1938 3.5 17.708 3.5 15.6035V9.92621C3.5 7.82264 4.81741 6.33594 6.91708 6.33594Z" stroke="black" stroke-width="1.5" stroke-linecap="round" stroke-linejoin="round"/>
<path opacity="0.4" fill-rule="evenodd" clip-rule="evenodd" d="M11.437 9.54688H8.42173C7.37092 9.54688 6.71221 10.2912 6.71221 11.344V14.1841C6.71221 15.2378 7.368 15.9811 8.42173 15.9811H11.437C12.4907 15.9811 13.1465 15.2378 13.1465 14.1841V11.344C13.1465 10.2912 12.4907 9.54688 11.437 9.54688Z" stroke="black" stroke-width="1.5" stroke-linecap="round" stroke-linejoin="round"/>
</svg>