<svg width="25" height="24" viewBox="0 0 25 24" fill="none" xmlns="http://www.w3.org/2000/svg">
<path opacity="0.4" fill-rule="evenodd" clip-rule="evenodd" d="M16.717 2.5H8.283C5.123 2.5 3 4.721 3 8.026V15.974C3 19.279 5.123 21.5 8.283 21.5H16.716C19.876 21.5 22 19.279 22 15.974V8.026C22 4.721 19.877 2.5 16.717 2.5Z" fill="black"/>
<path fill-rule="evenodd" clip-rule="evenodd" d="M15.725 10.0008C15.188 10.0008 14.75 9.56378 14.75 9.02578C14.748 8.77078 14.849 8.52378 15.033 8.33878C15.217 8.15278 15.462 8.05078 15.724 8.05078C16.262 8.05078 16.701 8.48778 16.701 9.02578C16.701 9.56378 16.263 10.0008 15.725 10.0008Z" fill="black"/>
<path fill-rule="evenodd" clip-rule="evenodd" d="M15.388 16.4958H9.61401C9.33701 16.4958 9.11401 16.2918 9.11401 16.0398C9.11401 14.2288 10.633 12.7558 12.5 12.7558C14.369 12.7558 15.888 14.2288 15.888 16.0398C15.888 16.2918 15.664 16.4958 15.388 16.4958Z" fill="black"/>
<path fill-rule="evenodd" clip-rule="evenodd" d="M8.25003 9.02578C8.24803 8.77078 8.34903 8.52378 8.53303 8.33878C8.71703 8.15278 8.96203 8.05078 9.22403 8.05078C9.76203 8.05078 10.201 8.48778 10.201 9.02578C10.201 9.56378 9.76303 10.0008 9.22503 10.0008C8.68803 10.0008 8.25003 9.56378 8.25003 9.02578Z" fill="black"/>
</svg>