<svg width="25" height="24" viewBox="0 0 25 24" fill="none" xmlns="http://www.w3.org/2000/svg">
<path opacity="0.4" fill-rule="evenodd" clip-rule="evenodd" d="M16.716 21.5H8.282C5.123 21.5 3 19.279 3 15.974V8.026C3 4.721 5.123 2.5 8.282 2.5H16.717C19.877 2.5 22 4.721 22 8.026V15.974C22 19.279 19.876 21.5 16.716 21.5Z" fill="black"/>
<path fill-rule="evenodd" clip-rule="evenodd" d="M11.2259 16.325C11.0289 16.325 10.8399 16.247 10.6999 16.109L9.91895 15.34L9.21595 16.089C8.93195 16.39 8.45595 16.405 8.15595 16.121C7.85395 15.838 7.83895 15.363 8.12195 15.061L9.35195 13.753C9.49095 13.606 9.68195 13.52 9.88395 13.516C10.1069 13.527 10.2809 13.591 10.4249 13.732L11.2149 14.511L11.9599 13.743C12.2439 13.453 12.7529 13.453 13.0369 13.743L13.7829 14.511L14.5729 13.732C14.7169 13.59 14.9169 13.527 15.1139 13.516C15.3149 13.52 15.5069 13.605 15.6459 13.753L16.8759 15.061C17.1599 15.363 17.1449 15.838 16.8429 16.121C16.5429 16.405 16.0689 16.391 15.7829 16.089L15.0789 15.34L14.2969 16.109C14.1549 16.249 13.9539 16.321 13.7629 16.325C13.5629 16.323 13.3719 16.241 13.2329 16.098L12.4979 15.342L11.7639 16.098C11.6239 16.241 11.4339 16.323 11.2339 16.325H11.2259Z" fill="black"/>
<path fill-rule="evenodd" clip-rule="evenodd" d="M8.17522 11.4544C7.92522 11.4544 7.68122 11.3294 7.53822 11.1014C7.31922 10.7504 7.42522 10.2874 7.77722 10.0684L8.59322 9.5584L7.77822 9.0514C7.42622 8.8324 7.31922 8.3704 7.53722 8.0184C7.75522 7.6664 8.21622 7.5584 8.57122 7.7774L10.4062 8.9194C10.6262 9.0564 10.7602 9.2964 10.7602 9.5554C10.7602 9.8144 10.6272 10.0554 10.4072 10.1924L8.57122 11.3404C8.44822 11.4174 8.31122 11.4544 8.17522 11.4544Z" fill="black"/>
<path fill-rule="evenodd" clip-rule="evenodd" d="M16.8235 11.4544C16.6875 11.4544 16.5505 11.4174 16.4275 11.3404L14.5915 10.1924C14.3715 10.0554 14.2385 9.8144 14.2385 9.5554C14.2385 9.2964 14.3725 9.0564 14.5925 8.9194L16.4275 7.7774C16.7835 7.5584 17.2435 7.6664 17.4615 8.0184C17.6795 8.3704 17.5725 8.8324 17.2205 9.0514L16.4055 9.5584L17.2215 10.0684C17.5735 10.2874 17.6795 10.7504 17.4605 11.1014C17.3175 11.3294 17.0735 11.4544 16.8235 11.4544Z" fill="black"/>
</svg>