<svg width="25" height="24" viewBox="0 0 25 24" fill="none" xmlns="http://www.w3.org/2000/svg">
<path opacity="0.4" fill-rule="evenodd" clip-rule="evenodd" d="M16.716 2.5H8.282C5.123 2.5 3 4.721 3 8.026V15.974C3 19.28 5.123 21.5 8.282 21.5H16.715C19.876 21.5 22 19.28 22 15.974V8.026C22 4.721 19.877 2.5 16.716 2.5Z" fill="black"/>
<path fill-rule="evenodd" clip-rule="evenodd" d="M16.0672 10.0742H14.2832C13.8692 10.0742 13.5332 9.73822 13.5332 9.32422C13.5332 8.91022 13.8692 8.57422 14.2832 8.57422H16.0672C16.4812 8.57422 16.8172 8.91022 16.8172 9.32422C16.8172 9.73822 16.4812 10.0742 16.0672 10.0742Z" fill="black"/>
<path fill-rule="evenodd" clip-rule="evenodd" d="M15.3994 15.6312H9.59937C9.18537 15.6312 8.84937 15.2952 8.84937 14.8812C8.84937 14.4672 9.18537 14.1312 9.59937 14.1312H15.3994C15.8134 14.1312 16.1494 14.4672 16.1494 14.8812C16.1494 15.2952 15.8134 15.6312 15.3994 15.6312Z" fill="black"/>
<path fill-rule="evenodd" clip-rule="evenodd" d="M8.18115 9.32422C8.18115 8.91022 8.51715 8.57422 8.93115 8.57422H10.7152C11.1302 8.57422 11.4652 8.91022 11.4652 9.32422C11.4652 9.73822 11.1302 10.0742 10.7152 10.0742H8.93115C8.51715 10.0742 8.18115 9.73822 8.18115 9.32422Z" fill="black"/>
</svg>