<svg width="25" height="24" viewBox="0 0 25 24" fill="none" xmlns="http://www.w3.org/2000/svg">
<path opacity="0.4" fill-rule="evenodd" clip-rule="evenodd" d="M6.28555 13.356C6.33266 13.3853 6.38982 13.3937 6.44332 13.3791C7.85876 12.9911 9.26013 12.489 10.7134 11.8379C11.9194 11.3039 13.2984 11.3049 14.5024 11.8359C16.0143 12.5098 17.3773 13.0206 18.5758 13.3729C18.6303 13.3889 18.689 13.3807 18.7372 13.3506L21.9034 11.3727C21.9619 11.3361 21.9974 11.272 21.9974 11.203V8.02891C21.9974 4.72391 19.8754 2.50391 16.7164 2.50391H8.28442C5.12542 2.50391 3.00342 4.72391 3.00342 8.02891V11.2057C3.00342 11.2749 3.03914 11.3391 3.09787 11.3756L6.28555 13.356Z" fill="black"/>
<path fill-rule="evenodd" clip-rule="evenodd" d="M8.5291 7.90519C8.7141 7.71919 8.9591 7.61719 9.2201 7.61719C9.7581 7.61719 10.1971 8.05419 10.1971 8.59219C10.1971 9.12919 9.7591 9.56719 9.2211 9.56719C8.6841 9.56719 8.2471 9.12919 8.2471 8.59219C8.2451 8.33619 8.3451 8.09019 8.5291 7.90519Z" fill="black"/>
<path fill-rule="evenodd" clip-rule="evenodd" d="M15.0291 7.90519C15.2141 7.71919 15.4591 7.61719 15.7201 7.61719C16.2581 7.61719 16.6971 8.05419 16.6971 8.59219C16.6971 9.12919 16.2591 9.56719 15.7211 9.56719C15.1841 9.56719 14.7471 9.12919 14.7471 8.59219C14.7451 8.33619 14.8451 8.09019 15.0291 7.90519Z" fill="black"/>
<path fill-rule="evenodd" clip-rule="evenodd" d="M19.5465 14.615C19.496 14.6465 19.4622 14.6989 19.4543 14.758L18.6338 20.8629C18.614 21.01 18.7559 21.1259 18.8932 21.0694C20.8053 20.2836 21.9968 18.4383 21.9968 15.9738V13.4446C21.9968 13.2875 21.824 13.1918 21.6908 13.275L19.5465 14.615Z" fill="black"/>
<path fill-rule="evenodd" clip-rule="evenodd" d="M5.55812 14.7579C5.55041 14.6983 5.51634 14.6454 5.46533 14.6137L3.30848 13.2736C3.17525 13.1909 3.00293 13.2867 3.00293 13.4435V15.9738C3.00293 18.4314 4.18694 20.2734 6.08838 21.0626C6.2254 21.1194 6.36758 21.0043 6.34851 20.8572L5.55812 14.7579Z" fill="black"/>
<path fill-rule="evenodd" clip-rule="evenodd" d="M17.0568 21.3391L17.9201 14.9176C17.9332 14.8205 17.874 14.7283 17.7804 14.6991C16.6103 14.3344 15.3119 13.8398 13.8938 13.2081C13.0778 12.8471 12.1388 12.8471 11.3238 13.2091C9.93828 13.8298 8.59248 14.3203 7.2376 14.7126C7.14239 14.7402 7.08121 14.8329 7.09394 14.9312L7.92478 21.3431C7.93446 21.4109 7.97091 21.4696 8.0389 21.4779C8.11938 21.4876 8.19898 21.4991 8.28478 21.4991H16.7148C16.7915 21.4991 16.8636 21.4892 16.9358 21.4804C17.0074 21.4716 17.047 21.4106 17.0568 21.3391Z" fill="black"/>
</svg>