<svg width="25" height="24" viewBox="0 0 25 24" fill="none" xmlns="http://www.w3.org/2000/svg">
<path opacity="0.4" fill-rule="evenodd" clip-rule="evenodd" d="M16.717 2.5H8.283C5.123 2.5 3 4.721 3 8.026V15.974C3 19.279 5.123 21.5 8.283 21.5H16.716C19.876 21.5 22 19.279 22 15.974V8.026C22 4.721 19.877 2.5 16.717 2.5Z" fill="black"/>
<path fill-rule="evenodd" clip-rule="evenodd" d="M15.725 14.0008C15.188 14.0008 14.75 13.5638 14.75 13.0258C14.748 12.7708 14.849 12.5238 15.033 12.3388C15.217 12.1528 15.462 12.0508 15.724 12.0508C16.262 12.0508 16.701 12.4878 16.701 13.0258C16.701 13.5638 16.263 14.0008 15.725 14.0008Z" fill="black"/>
<path fill-rule="evenodd" clip-rule="evenodd" d="M14.2841 17.7708H10.7161C10.3021 17.7708 9.96606 17.4348 9.96606 17.0208C9.96606 16.6068 10.3021 16.2708 10.7161 16.2708H14.2841C14.6981 16.2708 15.0341 16.6068 15.0341 17.0208C15.0341 17.4348 14.6981 17.7708 14.2841 17.7708Z" fill="black"/>
<path fill-rule="evenodd" clip-rule="evenodd" d="M9.22503 14.0008C8.68803 14.0008 8.25003 13.5638 8.25003 13.0258C8.24803 12.7708 8.34903 12.5238 8.53303 12.3388C8.71703 12.1528 8.96203 12.0508 9.22403 12.0508C9.76203 12.0508 10.201 12.4878 10.201 13.0258C10.201 13.5638 9.76303 14.0008 9.22503 14.0008Z" fill="black"/>
</svg>