<svg width="25" height="24" viewBox="0 0 25 24" fill="none" xmlns="http://www.w3.org/2000/svg">
<path opacity="0.4" fill-rule="evenodd" clip-rule="evenodd" d="M16.717 2.5H8.283C5.123 2.5 3 4.721 3 8.026V15.974C3 19.28 5.123 21.5 8.283 21.5H16.716C19.876 21.5 22 19.28 22 15.974V8.026C22 4.721 19.877 2.5 16.717 2.5Z" fill="black"/>
<path fill-rule="evenodd" clip-rule="evenodd" d="M15.725 10.2C15.188 10.2 14.75 9.763 14.75 9.225C14.748 8.97 14.849 8.724 15.033 8.538C15.217 8.352 15.462 8.25 15.724 8.25C16.262 8.25 16.701 8.687 16.701 9.225C16.701 9.763 16.263 10.2 15.725 10.2Z" fill="black"/>
<path fill-rule="evenodd" clip-rule="evenodd" d="M15.38 15.611H9.62097C9.20597 15.611 8.87097 15.275 8.87097 14.861C8.87097 14.447 9.20597 14.111 9.62097 14.111H15.38C15.794 14.111 16.13 14.447 16.13 14.861C16.13 15.275 15.794 15.611 15.38 15.611Z" fill="black"/>
<path fill-rule="evenodd" clip-rule="evenodd" d="M8.25003 9.225C8.24803 8.97 8.34903 8.724 8.53303 8.538C8.71703 8.352 8.96203 8.25 9.22403 8.25C9.76203 8.25 10.201 8.687 10.201 9.225C10.201 9.763 9.76303 10.2 9.22503 10.2C8.68803 10.2 8.25003 9.763 8.25003 9.225Z" fill="black"/>
</svg>