<svg width="25" height="24" viewBox="0 0 25 24" fill="none" xmlns="http://www.w3.org/2000/svg">
<path opacity="0.4" fill-rule="evenodd" clip-rule="evenodd" d="M16.717 2.5H8.282C5.123 2.5 3 4.721 3 8.026V15.974C3 19.279 5.123 21.5 8.282 21.5H16.716C19.876 21.5 22 19.279 22 15.974V8.026C22 4.721 19.877 2.5 16.717 2.5Z" fill="black"/>
<path fill-rule="evenodd" clip-rule="evenodd" d="M16.8807 10.0045C16.5527 10.2575 16.0807 10.1945 15.8297 9.8655C15.7487 9.7605 15.5737 9.5845 15.3077 9.5845C15.0407 9.5845 14.8667 9.7595 14.7867 9.8645C14.6397 10.0575 14.4167 10.1595 14.1907 10.1595C14.0317 10.1595 13.8717 10.1085 13.7357 10.0045C13.4067 9.7535 13.3437 9.2825 13.5957 8.9535C14.4387 7.8495 16.1727 7.8485 17.0197 8.9525C17.2727 9.2815 17.2097 9.7525 16.8807 10.0045Z" fill="black"/>
<path fill-rule="evenodd" clip-rule="evenodd" d="M16.1137 14.8055C15.2277 15.9585 13.9327 16.6195 12.5627 16.6195C11.1907 16.6195 9.89573 15.9585 9.00973 14.8055C8.75773 14.4765 8.81873 14.0055 9.14773 13.7535C9.47773 13.5005 9.94673 13.5635 10.1987 13.8915C10.7987 14.6715 11.6597 15.1195 12.5627 15.1195C13.4637 15.1195 14.3237 14.6715 14.9247 13.8915C15.1757 13.5635 15.6487 13.5005 15.9767 13.7535C16.3047 14.0065 16.3657 14.4775 16.1137 14.8055Z" fill="black"/>
<path fill-rule="evenodd" clip-rule="evenodd" d="M8.11871 10.0045C7.78971 9.7535 7.72671 9.2825 7.97871 8.9535C8.81971 7.8515 10.5537 7.8465 11.4017 8.9525C11.6547 9.2815 11.5927 9.7525 11.2637 10.0045C10.9357 10.2575 10.4637 10.1945 10.2127 9.8655C10.1317 9.7605 9.95671 9.5845 9.69171 9.5845C9.42371 9.5845 9.24971 9.7595 9.16971 9.8645C9.02271 10.0575 8.79971 10.1595 8.57271 10.1595C8.41471 10.1595 8.25471 10.1085 8.11871 10.0045Z" fill="black"/>
</svg>