<svg width="25" height="24" viewBox="0 0 25 24" fill="none" xmlns="http://www.w3.org/2000/svg">
<path opacity="0.4" fill-rule="evenodd" clip-rule="evenodd" d="M16.717 2.5H8.283C5.123 2.5 3 4.721 3 8.026V15.974C3 19.279 5.123 21.5 8.283 21.5H16.716C19.876 21.5 22 19.279 22 15.974V8.026C22 4.721 19.877 2.5 16.717 2.5Z" fill="black"/>
<path fill-rule="evenodd" clip-rule="evenodd" d="M15.725 10.3953C15.188 10.3953 14.75 9.95831 14.75 9.42031C14.748 9.16531 14.849 8.91831 15.033 8.73331C15.217 8.54731 15.462 8.44531 15.724 8.44531C16.262 8.44531 16.701 8.88231 16.701 9.42031C16.701 9.95831 16.263 10.3953 15.725 10.3953Z" fill="black"/>
<path fill-rule="evenodd" clip-rule="evenodd" d="M16.0521 14.8053C15.1661 15.9583 13.8711 16.6193 12.4991 16.6193C11.1271 16.6193 9.83206 15.9583 8.94706 14.8053C8.69506 14.4773 8.75606 14.0063 9.08406 13.7533C9.41506 13.5003 9.88406 13.5643 10.1361 13.8913C10.7361 14.6713 11.5971 15.1193 12.4991 15.1193C13.4021 15.1193 14.2631 14.6713 14.8631 13.8913C15.1151 13.5643 15.5841 13.5003 15.9141 13.7533C16.2431 14.0063 16.3041 14.4773 16.0521 14.8053Z" fill="black"/>
<path fill-rule="evenodd" clip-rule="evenodd" d="M8.25003 9.42031C8.24803 9.16531 8.34903 8.91831 8.53303 8.73331C8.71703 8.54731 8.96203 8.44531 9.22403 8.44531C9.76203 8.44531 10.201 8.88231 10.201 9.42031C10.201 9.95831 9.76303 10.3953 9.22503 10.3953C8.68803 10.3953 8.25003 9.95831 8.25003 9.42031Z" fill="black"/>
</svg>