<svg width="25" height="24" viewBox="0 0 25 24" fill="none" xmlns="http://www.w3.org/2000/svg">
<path opacity="0.4" fill-rule="evenodd" clip-rule="evenodd" d="M16.716 2.5H8.283C5.123 2.5 3 4.721 3 8.026V15.974C3 19.28 5.123 21.5 8.283 21.5H16.717C19.877 21.5 22 19.28 22 15.974V8.026C22 4.721 19.876 2.5 16.716 2.5Z" fill="black"/>
<path fill-rule="evenodd" clip-rule="evenodd" d="M15.724 15.549C15.462 15.549 15.217 15.447 15.033 15.261C14.849 15.075 14.748 14.829 14.75 14.568C14.75 14.036 15.188 13.599 15.725 13.599C16.263 13.599 16.701 14.036 16.701 14.574C16.701 15.112 16.262 15.549 15.724 15.549Z" fill="black"/>
<path fill-rule="evenodd" clip-rule="evenodd" d="M12.4991 8.875C11.5971 8.875 10.7361 9.323 10.1361 10.103C9.88506 10.43 9.41506 10.493 9.08406 10.241C8.75606 9.988 8.69506 9.518 8.94706 9.189C9.83206 8.036 11.1271 7.375 12.4991 7.375C13.8711 7.375 15.1661 8.036 16.0521 9.189C16.3041 9.518 16.2431 9.988 15.9141 10.241C15.7781 10.345 15.6181 10.396 15.4581 10.396C15.2331 10.396 15.0101 10.295 14.8631 10.103C14.2631 9.323 13.4021 8.875 12.4991 8.875Z" fill="black"/>
<path fill-rule="evenodd" clip-rule="evenodd" d="M9.22403 15.549C8.96203 15.549 8.71703 15.447 8.53303 15.261C8.34903 15.075 8.24803 14.829 8.25003 14.568C8.25003 14.036 8.68803 13.599 9.22503 13.599C9.76303 13.599 10.201 14.036 10.201 14.574C10.201 15.112 9.76203 15.549 9.22403 15.549Z" fill="black"/>
</svg>