<svg width="24" height="24" viewBox="0 0 24 24" fill="none" xmlns="http://www.w3.org/2000/svg">
<path fill-rule="evenodd" clip-rule="evenodd" d="M5.63502 3.89844C6.04923 3.89844 6.38502 4.23422 6.38502 4.64844C6.38502 4.84735 6.306 5.03909 6.16535 5.17974C2.94488 8.40021 2.94488 13.621 6.16535 16.8415C6.45824 17.1344 6.45824 17.6093 6.16535 17.9022C5.87246 18.1951 5.39758 18.1951 5.10469 17.9022C1.30616 14.1036 1.29845 7.95038 5.08156 4.14229C5.21868 3.99243 5.41588 3.89844 5.63502 3.89844ZM17.8347 4.11811C18.1275 3.82521 18.6024 3.82521 18.8953 4.11811C22.7016 7.92436 22.7016 14.0949 18.8953 17.9012C18.6024 18.1941 18.1275 18.1941 17.8347 17.9012C17.5418 17.6083 17.5418 17.1334 17.8347 16.8405C21.0551 13.6201 21.0551 8.39923 17.8347 5.17877C17.5418 4.88587 17.5418 4.411 17.8347 4.11811ZM15.0915 7.30066C15.3844 7.00776 15.8593 7.00776 16.1522 7.30066C18.0784 9.22684 18.1853 12.2723 16.5052 14.3368C16.2437 14.658 15.7713 14.7065 15.4501 14.445C15.1288 14.1836 15.0803 13.7112 15.3418 13.3899C16.5455 11.9108 16.4637 9.73347 15.0915 8.36132C14.7987 8.06842 14.7987 7.59355 15.0915 7.30066ZM8.91675 7.30269C9.20878 7.59645 9.20738 8.07132 8.91363 8.36335C7.53368 9.73521 7.45214 11.9102 8.66339 13.3885C8.9259 13.7089 8.87898 14.1814 8.55857 14.444C8.23817 14.7065 7.76562 14.6595 7.5031 14.3391C5.81103 12.274 5.91825 9.22605 7.85609 7.29957C8.14985 7.00754 8.62472 7.00894 8.91675 7.30269ZM12.0002 10.4086C11.6669 10.4086 11.3978 10.6784 11.3978 11.0101C11.3978 11.327 11.6423 11.5865 11.9545 11.6098C11.9692 11.6089 11.9841 11.6085 11.999 11.6085C12.0144 11.6085 12.0296 11.609 12.0448 11.6099C12.3563 11.5871 12.6017 11.3277 12.6017 11.0101C12.6017 10.678 12.3323 10.4086 12.0002 10.4086ZM12.9947 12.8619C13.6536 12.5075 14.1017 11.8116 14.1017 11.0101C14.1017 9.84958 13.1607 8.90861 12.0002 8.90861C10.8391 8.90861 9.89781 9.84923 9.89781 11.0101C9.89781 11.8112 10.3453 12.5064 11.0035 12.861L8.62097 19.084C8.47287 19.4708 8.6664 19.9044 9.05323 20.0525C9.44006 20.2006 9.87371 20.0071 10.0218 19.6203L11.9989 14.4564L13.9751 19.6202C14.1232 20.007 14.5568 20.2006 14.9437 20.0526C15.3305 19.9045 15.5241 19.4709 15.376 19.084L12.9947 12.8619Z" fill="black"/>
</svg>
