<svg width="24" height="24" viewBox="0 0 24 24" fill="none" xmlns="http://www.w3.org/2000/svg">
<path fill-rule="evenodd" clip-rule="evenodd" d="M11.4936 6.11537C10.972 5.90021 10.4133 5.78993 9.84932 5.79102C9.4351 5.79182 9.09867 5.45669 9.09787 5.04247C9.09707 4.62826 9.43221 4.29183 9.84642 4.29103C10.6078 4.28956 11.3619 4.43845 12.0656 4.72872C12.7693 5.01901 13.4088 5.4451 13.9477 5.98295C14.4866 6.52077 14.9141 7.15971 15.2057 7.86287C15.4974 8.56607 15.6475 9.3199 15.6475 10.0812C15.6475 10.4954 15.3118 10.8312 14.8975 10.8312C14.4833 10.8312 14.1475 10.4954 14.1475 10.0812C14.1475 9.51713 14.0363 8.95859 13.8202 8.43756C13.6041 7.91649 13.2873 7.44307 12.8881 7.04463C12.4889 6.6462 12.0151 6.3305 11.4936 6.11537ZM6.97456 4.44304C7.38877 4.44304 7.72456 4.77883 7.72456 5.19304V11.5883H18.4936C20.2926 11.5883 21.75 13.0471 21.75 14.8447V16.452C21.75 18.2508 20.2924 19.7084 18.4936 19.7084H5.50638C3.70762 19.7084 2.25 18.2508 2.25 16.452V14.8447C2.25 13.0471 3.70743 11.5883 5.50638 11.5883H6.22456V5.19304C6.22456 4.77883 6.56034 4.44304 6.97456 4.44304ZM6.95527 13.0883H5.50638C4.53624 13.0883 3.75 13.8751 3.75 14.8447V16.452C3.75 17.4224 4.53605 18.2084 5.50638 18.2084H18.4936C19.4639 18.2084 20.25 17.4224 20.25 16.452V14.8447C20.25 13.8751 19.4638 13.0883 18.4936 13.0883H6.99384C6.98743 13.0885 6.98101 13.0886 6.97456 13.0886C6.96811 13.0886 6.96168 13.0885 6.95527 13.0883ZM10.5301 8.4437C10.3145 8.35511 10.0837 8.30998 9.85076 8.31088C9.43655 8.31248 9.09947 7.97799 9.09787 7.56378C9.09627 7.14957 9.43076 6.81249 9.84497 6.81089C10.2756 6.80923 10.7021 6.89268 11.1001 7.05623C11.4983 7.21979 11.8604 7.46039 12.1654 7.76425C12.4703 8.06801 12.7123 8.42886 12.8774 8.82649C13.0426 9.22425 13.1275 9.6507 13.1275 10.081C13.1275 10.4952 12.7917 10.831 12.3774 10.831C11.9632 10.831 11.6275 10.4952 11.6275 10.081C11.6275 9.84773 11.5815 9.61685 11.4922 9.40185C11.4028 9.18673 11.2719 8.99146 11.1068 8.82695C10.9417 8.66254 10.7457 8.53227 10.5301 8.4437ZM9.84787 9.29175C10.2621 9.29175 10.5979 9.62754 10.5979 10.0418V10.0807C10.5979 10.4949 10.2621 10.8307 9.84787 10.8307C9.43365 10.8307 9.09787 10.4949 9.09787 10.0807V10.0418C9.09787 9.62754 9.43365 9.29175 9.84787 9.29175ZM5.49884 15.6487C5.49884 15.2345 5.83463 14.8987 6.24884 14.8987H6.75771C7.17192 14.8987 7.50771 15.2345 7.50771 15.6487C7.50771 16.0629 7.17192 16.3987 6.75771 16.3987H6.24884C5.83463 16.3987 5.49884 16.0629 5.49884 15.6487ZM8.55363 15.6487C8.55363 15.2345 8.88942 14.8987 9.30363 14.8987H9.8125C10.2267 14.8987 10.5625 15.2345 10.5625 15.6487C10.5625 16.0629 10.2267 16.3987 9.8125 16.3987H9.30363C8.88942 16.3987 8.55363 16.0629 8.55363 15.6487Z" fill="black"/>
</svg>
