<svg width="24" height="24" viewBox="0 0 24 24" fill="none" xmlns="http://www.w3.org/2000/svg">
<path fill-rule="evenodd" clip-rule="evenodd" d="M4.75845 12.9222C4.7565 12.9205 4.75503 12.919 4.75308 12.9173C4.69937 12.8694 4.65396 12.8152 4.61782 12.7569L2.76382 10.5523C2.02163 9.67218 2.09585 8.37213 2.9064 7.57233C8.152 2.38214 15.8493 2.38214 21.0944 7.57233C21.9044 8.37213 21.9782 9.67218 21.2365 10.5523L19.3454 12.8008C19.3161 12.8404 19.2824 12.8777 19.2443 12.9122L16.5382 16.1385C16.5133 16.1714 16.486 16.2027 16.4552 16.2322L13.6754 19.5423C12.8009 20.5823 11.1994 20.5823 10.3249 19.5423L7.54898 16.2422C7.50259 16.1993 7.46255 16.1512 7.42984 16.1002L4.75845 12.9222ZM9.09292 15.7527L11.4728 18.5823C11.6569 18.7962 11.943 18.867 12.195 18.795C12.32 18.7591 12.4362 18.6883 12.5275 18.5823L14.9118 15.7474C13.1544 14.2847 10.8429 14.2845 9.09292 15.7527ZM15.8766 14.6002L17.7394 12.3853C14.4025 9.10919 9.59536 9.10822 6.26529 12.3904L8.12564 14.6026C10.4342 12.6653 13.5626 12.6724 15.8766 14.6002ZM18.7077 11.2339L20.089 9.59235C20.32 9.31232 20.3024 8.90216 20.0397 8.64215C15.3786 4.02203 8.62271 4.02203 3.96109 8.64215C3.69839 8.90216 3.68081 9.31232 3.91177 9.59235L5.29556 11.2379C9.17935 7.48883 14.8185 7.49005 18.7077 11.2339Z" fill="black"/>
</svg>
