<svg width="24" height="24" viewBox="0 0 24 24" fill="none" xmlns="http://www.w3.org/2000/svg">
<path fill-rule="evenodd" clip-rule="evenodd" d="M3.7402 3.89737C4.72468 2.84117 6.12669 2.25 7.78216 2.25H16.2169C17.8762 2.25 19.2788 2.84084 20.2629 3.89765C21.2413 4.94841 21.75 6.39889 21.75 8.02638V15.9736C21.75 17.6011 21.2413 19.0516 20.2627 20.1024C19.2785 21.1592 17.8757 21.75 16.2159 21.75H7.78216C6.12237 21.75 4.7199 21.1592 3.73617 20.1022C2.75811 19.0514 2.25 17.6009 2.25 15.9736V8.02638C2.25 6.39806 2.76117 4.94771 3.7402 3.89737ZM4.83745 4.92012C4.16024 5.64667 3.75 6.70951 3.75 8.02638V15.9736C3.75 17.2915 4.15843 18.3542 4.83418 19.0803C5.50426 19.8002 6.49287 20.25 7.78216 20.25H16.2159C17.5052 20.25 18.4944 19.8002 19.165 19.0801C19.8412 18.354 20.25 17.2913 20.25 15.9736V8.02638C20.25 6.70868 19.8412 5.64597 19.1651 4.91984C18.4946 4.19975 17.5056 3.75 16.2169 3.75H7.78216C6.49828 3.75 5.50921 4.19943 4.83745 4.92012ZM11.997 9.25195C10.3668 9.25195 8.87639 9.88512 7.77524 10.9204C7.47345 11.2041 6.9988 11.1895 6.71508 10.8877C6.43136 10.5859 6.446 10.1112 6.74778 9.82753C8.11798 8.53932 9.97263 7.75195 11.997 7.75195C14.0216 7.75195 15.8754 8.53952 17.2515 9.82612C17.554 10.109 17.57 10.5836 17.2871 10.8862C17.0042 11.1887 16.5296 11.2047 16.227 10.9218C15.1181 9.88493 13.6268 9.25195 11.997 9.25195ZM11.9963 12.5571C11.0994 12.5571 10.2744 12.9086 9.66911 13.4781C9.36742 13.762 8.89276 13.7475 8.60894 13.4458C8.32511 13.1441 8.33959 12.6694 8.64128 12.3856C9.51486 11.5638 10.7039 11.0571 11.9963 11.0571C13.2885 11.0571 14.4835 11.563 15.3587 12.3853C15.6606 12.6689 15.6754 13.1436 15.3917 13.4454C15.1081 13.7473 14.6335 13.7621 14.3316 13.4785C13.7259 12.9094 12.8952 12.5571 11.9963 12.5571ZM12.0003 15.8548C11.8225 15.8548 11.6564 15.9244 11.5313 16.0424C11.23 16.3267 10.7554 16.3129 10.4711 16.0117C10.1868 15.7104 10.2006 15.2357 10.5018 14.9515C10.8944 14.5811 11.4249 14.3548 12.0003 14.3548C12.5763 14.3548 13.1069 14.5809 13.4996 14.9515C13.8009 15.2357 13.8147 15.7104 13.5304 16.0117C13.2461 16.3129 12.7714 16.3267 12.4702 16.0424C12.3453 15.9246 12.1792 15.8548 12.0003 15.8548Z" fill="black"/>
</svg>
