<svg width="24" height="24" viewBox="0 0 24 24" fill="none" xmlns="http://www.w3.org/2000/svg">
<path d="M12.0602 20.5914C16.6631 20.5914 20.3938 16.8607 20.3938 12.2578C20.3938 7.65493 16.6631 3.92419 12.0602 3.92419C7.45835 3.92419 3.72656 7.65493 3.72656 12.2578C3.72656 16.8607 7.45835 20.5914 12.0602 20.5914Z" stroke="black" stroke-width="1.5" stroke-linecap="round" stroke-linejoin="round"/>
<path d="M14.7053 14.7291L12.0605 12.2124V7.56104" stroke="black" stroke-width="1.5" stroke-linecap="round" stroke-linejoin="round"/>
<path d="M19.1563 7.72665L20.0889 6.64327C21.5191 4.99979 17.8557 1.9513 16.5153 3.49392L15.5828 4.57729" stroke="black" stroke-width="1.5" stroke-linecap="round" stroke-linejoin="round"/>
<path d="M4.84415 7.72665L3.91163 6.64327C2.48135 4.99979 6.14482 1.9513 7.4852 3.49392L8.41772 4.57729" stroke="black" stroke-width="1.5" stroke-linecap="round" stroke-linejoin="round"/>
<path d="M17.8511 18.1984L19.4805 21" stroke="black" stroke-width="1.5" stroke-linecap="round" stroke-linejoin="round"/>
<path d="M6.14844 18.1984L4.51899 21" stroke="black" stroke-width="1.5" stroke-linecap="round" stroke-linejoin="round"/>
</svg>
