<svg width="24" height="24" viewBox="0 0 24 24" fill="none" xmlns="http://www.w3.org/2000/svg">
<path d="M21 12C21 7.02908 16.9709 3 12 3C7.02908 3 3 7.02908 3 12C3 16.9699 7.02908 21 12 21" stroke="black" stroke-width="1.5" stroke-linecap="round" stroke-linejoin="round"/>
<path d="M9.1543 14.5843L12.3291 12.6861V8.58789" stroke="black" stroke-width="1.5" stroke-linecap="round" stroke-linejoin="round"/>
<path fill-rule="evenodd" clip-rule="evenodd" d="M20.5776 15.991C21.5775 17.9366 20.7733 20.5434 18.4763 20.9221C15.4684 21.5811 13.4617 17.9086 15.7215 15.7555C15.8422 15.6364 16.1747 15.328 16.3135 15.2289C16.3135 15.4351 16.4956 17.0318 16.7804 16.9111C17.952 16.9111 18.2665 14.8166 18.1048 13.5796C19.1593 14.1307 20.0525 14.8984 20.5776 15.991Z" stroke="black" stroke-width="1.5" stroke-linecap="round" stroke-linejoin="round"/>
</svg>
