<svg width="24" height="24" viewBox="0 0 24 24" fill="none" xmlns="http://www.w3.org/2000/svg">
<path d="M21 12C21 7.02908 16.9709 3 12 3C7.02908 3 3 7.02908 3 12C3 16.9699 7.02908 21 12 21" stroke="black" stroke-width="1.5" stroke-linecap="round" stroke-linejoin="round"/>
<path d="M9.1543 14.5843L12.3291 12.6861V8.58789" stroke="black" stroke-width="1.5" stroke-linecap="round" stroke-linejoin="round"/>
<path fill-rule="evenodd" clip-rule="evenodd" d="M18.2981 16.0125L20.8242 16.8312C21.0584 16.9081 21.0584 17.2399 20.8242 17.3159L18.2981 18.1346C18.2206 18.16 18.1599 18.2207 18.1345 18.2982L17.3157 20.8243C17.2398 21.0586 16.9072 21.0586 16.8311 20.8243L16.0124 18.2982C15.9871 18.2207 15.9264 18.16 15.8488 18.1346L13.3227 17.3159C13.0877 17.2399 13.0877 16.9081 13.3227 16.8312L15.8488 16.0125C15.9264 15.9872 15.9871 15.9265 16.0124 15.849L16.8311 13.3236C16.9072 13.0886 17.2398 13.0886 17.3157 13.3236L18.1345 15.849C18.1599 15.9265 18.2206 15.9872 18.2981 16.0125Z" stroke="black" stroke-width="1.5" stroke-linecap="round" stroke-linejoin="round"/>
</svg>
