<svg width="24" height="24" viewBox="0 0 24 24" fill="none" xmlns="http://www.w3.org/2000/svg">
<path d="M12.0003 15.1179C14.4034 15.1179 16.3512 13.1697 16.3512 10.767C16.3512 8.36392 14.4034 6.41614 12.0003 6.41614C9.5972 6.41614 7.64941 8.36392 7.64941 10.767C7.64941 13.1697 9.5972 15.1179 12.0003 15.1179Z" stroke="black" stroke-width="1.5" stroke-linecap="round" stroke-linejoin="round"/>
<path d="M12 3C7.71003 3 4.23291 6.47712 4.23291 10.7671V19C4.23291 20.1046 5.12834 21 6.23291 21H17.767C18.8716 21 19.767 20.1046 19.767 19V10.7671C19.767 6.47712 16.2899 3 12 3Z" stroke="black" stroke-width="1.5" stroke-linecap="round" stroke-linejoin="round"/>
<path d="M15.4912 17.9937L16.6902 17.9937" stroke="black" stroke-width="1.5" stroke-linecap="round" stroke-linejoin="round"/>
<path d="M12 17.9937L13.1989 17.9937" stroke="black" stroke-width="1.5" stroke-linecap="round" stroke-linejoin="round"/>
<path d="M13.3761 12.0102L11.8413 11.093V9.11182" stroke="black" stroke-width="1.5" stroke-linecap="round" stroke-linejoin="round"/>
</svg>
