<svg width="24" height="24" viewBox="0 0 24 24" fill="none" xmlns="http://www.w3.org/2000/svg">
<path d="M5.61554 5.9281C5.24889 6.34369 4.92352 6.7804 4.64038 7.24783" stroke="black" stroke-width="1.5" stroke-linecap="round" stroke-linejoin="round"/>
<path d="M4.5469 16.2195C4.24936 15.7022 3.99118 15.1417 3.80401 14.5514" stroke="black" stroke-width="1.5" stroke-linecap="round" stroke-linejoin="round"/>
<path d="M10.1965 20.4087L10.2061 20.4077C10.8406 20.5604 11.5009 20.6343 12.168 20.6323" stroke="black" stroke-width="1.5" stroke-linecap="round" stroke-linejoin="round"/>
<path d="M9.44745 3.43463C8.86581 3.62083 8.30432 3.86942 7.78027 4.17751" stroke="black" stroke-width="1.5" stroke-linecap="round" stroke-linejoin="round"/>
<path d="M12.1987 3.00004C12.8658 2.99812 13.5252 3.07202 14.1606 3.22463C15.0762 3.42811 15.9506 3.78707 16.7415 4.27273C17.2175 4.55491 17.6638 4.87932 18.0698 5.24693C18.759 5.8612 19.3521 6.58489 19.8205 7.40264C20.1286 7.92765 20.3772 8.48913 20.5653 9.07941C20.7093 9.51804 20.8187 9.9701 20.8926 10.4375C20.9665 10.9049 21.002 11.3695 21.0001 11.8302C21.0039 12.5059 20.9262 13.147 20.7736 13.7824L20.7745 13.792C20.572 14.7067 20.2111 15.5725 19.7255 16.3633C19.4529 16.8384 19.1198 17.2857 18.7522 17.6917C18.137 18.3808 17.4066 18.9845 16.5879 19.4529C16.0619 19.7524 15.5014 20.0096 14.9198 20.1958" stroke="black" stroke-width="1.5" stroke-linecap="round" stroke-linejoin="round"/>
<path d="M7.62469 19.3486C7.15823 19.0741 6.71288 18.7507 6.30688 18.3831" stroke="black" stroke-width="1.5" stroke-linecap="round" stroke-linejoin="round"/>
<path d="M3.59179 9.83105C3.43822 10.4664 3.36432 11.1258 3.36815 11.8025" stroke="black" stroke-width="1.5" stroke-linecap="round" stroke-linejoin="round"/>
<path d="M17.0337 20.7549L14.9375 20.1771L15.5287 18.0944" stroke="black" stroke-width="1.5" stroke-linecap="round" stroke-linejoin="round"/>
<path d="M8.68843 13.9805L12 12.0015V7.72681" stroke="black" stroke-width="1.5" stroke-linecap="round" stroke-linejoin="round"/>
</svg>
