<svg width="24" height="24" viewBox="0 0 24 24" fill="none" xmlns="http://www.w3.org/2000/svg">
<path d="M21 12H19.379M12 3V4.62195M18.3642 5.63599L17.2173 6.78288" stroke="black" stroke-width="1.5" stroke-linecap="round" stroke-linejoin="round"/>
<path d="M12 21C16.9709 21 21 16.9699 21 12C21 7.02908 16.9709 3 12 3C7.02908 3 3 7.02908 3 12C3 16.9699 7.02908 21 12 21Z" stroke="black" stroke-width="1.5" stroke-linecap="round" stroke-linejoin="round"/>
<path d="M12.6189 14.5072H14.398C15.1095 14.5072 15.6865 13.9301 15.6865 13.2187C15.6865 12.5072 15.1095 11.931 14.398 11.931H12.6189V9.49292H15.4417" stroke="black" stroke-width="1.5" stroke-linecap="round" stroke-linejoin="round"/>
<path d="M8.31372 10.2768L9.92077 9.49292V14.5072" stroke="black" stroke-width="1.5" stroke-linecap="round" stroke-linejoin="round"/>
</svg>
