<svg width="24" height="24" viewBox="0 0 24 24" fill="none" xmlns="http://www.w3.org/2000/svg">
<path d="M12 21C7.02908 21 3 16.9699 3 12C3 7.02908 7.02908 3 12 3C16.2323 3 19.7819 5.92072 20.7433 9.8567" stroke="black" stroke-width="1.5" stroke-linecap="round" stroke-linejoin="round"/>
<path d="M9.1543 14.5843L12.3291 12.6861V8.58789" stroke="black" stroke-width="1.5" stroke-linecap="round" stroke-linejoin="round"/>
<path d="M16.9136 21H18.7337" stroke="black" stroke-width="1.5" stroke-linecap="round" stroke-linejoin="round"/>
<path d="M14.6475 17.8594C14.7218 18.7442 15.4517 18.921 16.2191 18.921H19.4308C20.1992 18.921 20.9261 18.7443 21.0002 17.8594C21.0002 16.7316 20.3202 16.8042 20.3202 15.4221C20.3202 14.3415 19.335 13.113 17.8237 13.113C16.3126 13.113 15.3274 14.3415 15.3274 15.4221C15.3274 16.8042 14.6475 16.7323 14.6475 17.8594Z" stroke="black" stroke-width="1.5" stroke-linecap="round" stroke-linejoin="round"/>
</svg>
