<svg width="24" height="24" viewBox="0 0 24 24" fill="none" xmlns="http://www.w3.org/2000/svg">
<path d="M12.0003 16.8647C14.8319 16.8647 17.127 14.569 17.127 11.7379C17.127 8.90632 14.8319 6.61121 12.0003 6.61121C9.16865 6.61121 6.87354 8.90632 6.87354 11.7379C6.87354 14.569 9.16865 16.8647 12.0003 16.8647Z" stroke="black" stroke-width="1.5" stroke-linecap="round" stroke-linejoin="round"/>
<path d="M11.9999 3C7.17373 3 3.26196 6.91177 3.26196 11.7379V18.75C3.26196 19.9926 4.26932 21 5.51196 21H18.4879C19.7305 21 20.7379 19.9926 20.7379 18.75V11.7379C20.7379 6.91177 16.8261 3 11.9999 3Z" stroke="black" stroke-width="1.5" stroke-linecap="round" stroke-linejoin="round"/>
<path d="M13.6212 13.2028L11.8127 12.1221V9.7876" stroke="black" stroke-width="1.5" stroke-linecap="round" stroke-linejoin="round"/>
</svg>
