<svg width="24" height="24" viewBox="0 0 24 24" fill="none" xmlns="http://www.w3.org/2000/svg">
<path d="M4.41877 11.3623C4.41877 6.74358 8.16235 3 12.781 3C17.3997 3 21.1433 6.74358 21.1433 11.3623C21.1433 15.9801 17.3997 19.7245 12.781 19.7245" stroke="black" stroke-width="1.5" stroke-linecap="round" stroke-linejoin="round"/>
<path d="M15.425 13.7517L12.4752 11.9888V8.18103" stroke="black" stroke-width="1.5" stroke-linecap="round" stroke-linejoin="round"/>
<path fill-rule="evenodd" clip-rule="evenodd" d="M6.37382 19.9702C6.29953 19.9041 6.20356 19.8677 6.1041 19.8677H3.82267C3.14999 19.8677 2.60478 19.3225 2.60478 18.6498V15.4021C2.60478 14.7294 3.14999 14.1842 3.82267 14.1842H8.69422C9.3669 14.1842 9.91211 14.7294 9.91211 15.4021V18.6498C9.91211 19.3225 9.3669 19.8677 8.69422 19.8677H8.28826C8.17616 19.8677 8.08528 19.9585 8.08528 20.0707V21.0395C8.08528 21.2147 7.87832 21.3076 7.74744 21.1912L6.37382 19.9702Z" stroke="black" stroke-width="1.5" stroke-linecap="round" stroke-linejoin="round"/>
</svg>
