<svg width="24" height="24" viewBox="0 0 24 24" fill="none" xmlns="http://www.w3.org/2000/svg">
<path d="M4.00792 19.4389L4.00537 16.502L6.92557 16.4995" stroke="black" stroke-width="1.5" stroke-linecap="round" stroke-linejoin="round"/>
<path d="M19.9921 4.42991L19.9946 7.36676L17.0744 7.36926" stroke="black" stroke-width="1.5" stroke-linecap="round" stroke-linejoin="round"/>
<path d="M4.61719 16.9049C7.25213 20.9624 12.6621 22.1845 16.7936 19.6215C19.3808 18.017 20.8608 15.3033 20.9999 12.4767" stroke="black" stroke-width="1.5" stroke-linecap="round" stroke-linejoin="round"/>
<path d="M19.3828 6.96389C16.7479 2.90639 11.3379 1.68429 7.2064 4.24729C4.6192 5.85179 3.1392 8.56549 3.0001 11.3921" stroke="black" stroke-width="1.5" stroke-linecap="round" stroke-linejoin="round"/>
<path d="M12 16.1047C14.2671 16.1047 16.1047 14.2667 16.1047 12C16.1047 9.73285 14.2671 7.89526 12 7.89526C9.73285 7.89526 7.89526 9.73285 7.89526 12C7.89526 14.2667 9.73285 16.1047 12 16.1047Z" stroke="black" stroke-width="1.5" stroke-linecap="round" stroke-linejoin="round"/>
<path d="M13.2983 13.1729L11.8503 12.3076V10.4385" stroke="black" stroke-width="1.5" stroke-linecap="round" stroke-linejoin="round"/>
</svg>
