<svg width="24" height="24" viewBox="0 0 24 24" fill="none" xmlns="http://www.w3.org/2000/svg">
<path d="M4.11572 11.6977C3.40533 12.3854 3 13.1794 3 14.0251C3 16.6455 6.89112 18.7698 11.6911 18.7698C16.491 18.7698 20.3821 16.6455 20.3821 14.0251C20.3821 13.1794 19.9768 12.3854 19.2664 11.6977L18.684 11.0651" stroke="black" stroke-width="1.5" stroke-linecap="round" stroke-linejoin="round"/>
<path d="M18.4958 13.3555L18.6093 10.9521L21 11.065" stroke="black" stroke-width="1.5" stroke-linecap="round" stroke-linejoin="round"/>
<path d="M9.491 11.4296V10.0175M9.491 10.0175H10.6873M9.491 10.0175H6.04883L9.491 5.23022V10.0175Z" stroke="black" stroke-width="1.5" stroke-linecap="round" stroke-linejoin="round"/>
<path d="M12.291 11.2767H14.406C15.2518 11.2767 15.9378 10.5907 15.9378 9.74488C15.9378 8.89908 15.2518 8.2141 14.406 8.2141H12.291V5.31567H15.6468" stroke="black" stroke-width="1.5" stroke-linecap="round" stroke-linejoin="round"/>
</svg>
