<svg width="24" height="24" viewBox="0 0 24 24" fill="none" xmlns="http://www.w3.org/2000/svg">
<path d="M4.11572 11.7576C3.40533 12.4452 3 13.2392 3 14.085C3 16.7053 6.89112 18.8296 11.6911 18.8296C16.491 18.8296 20.3821 16.7053 20.3821 14.085C20.3821 13.2392 19.9768 12.4452 19.2664 11.7576L18.684 11.1249" stroke="black" stroke-width="1.5" stroke-linecap="round" stroke-linejoin="round"/>
<path d="M18.4958 13.4154L18.6093 11.012L21 11.1249" stroke="black" stroke-width="1.5" stroke-linecap="round" stroke-linejoin="round"/>
<path d="M7.83981 11.4503V5.52771L5.9873 7.02813" stroke="black" stroke-width="1.5" stroke-linecap="round" stroke-linejoin="round"/>
<path fill-rule="evenodd" clip-rule="evenodd" d="M13.3405 11.5675C12.295 11.5675 11.4468 10.7193 11.4468 9.67385V7.06409C11.4468 6.01758 12.295 5.17041 13.3405 5.17041C14.387 5.17041 15.2341 6.01758 15.2341 7.06409V9.67385C15.2341 10.7193 14.387 11.5675 13.3405 11.5675Z" stroke="black" stroke-width="1.5" stroke-linecap="round" stroke-linejoin="round"/>
</svg>
