<svg width="24" height="24" viewBox="0 0 24 24" fill="none" xmlns="http://www.w3.org/2000/svg">
<path d="M4.11548 11.7576C3.40509 12.4452 2.99976 13.2392 2.99976 14.085C2.99976 16.7053 6.89088 18.8296 11.6908 18.8296C16.4908 18.8296 20.3819 16.7053 20.3819 14.085C20.3819 13.2392 19.9766 12.4452 19.2662 11.7576L18.6837 11.1249" stroke="black" stroke-width="1.5" stroke-linecap="round" stroke-linejoin="round"/>
<path d="M18.4956 13.4154L18.609 11.012L20.9997 11.1249" stroke="black" stroke-width="1.5" stroke-linecap="round" stroke-linejoin="round"/>
<path fill-rule="evenodd" clip-rule="evenodd" d="M14.2509 11.5675C13.2054 11.5675 12.3572 10.7193 12.3572 9.67385V7.06409C12.3572 6.01758 13.2054 5.17041 14.2509 5.17041C15.2974 5.17041 16.1445 6.01758 16.1445 7.06409V9.67385C16.1445 10.7193 15.2974 11.5675 14.2509 11.5675Z" stroke="black" stroke-width="1.5" stroke-linecap="round" stroke-linejoin="round"/>
<path d="M6.74878 6.95585C6.74878 6.05437 7.48043 5.32166 8.38298 5.32166C9.28446 5.32166 10.0161 6.05437 10.0161 6.95585C10.0161 8.99807 6.74985 8.99807 6.74985 11.4163H10.0161" stroke="black" stroke-width="1.5" stroke-linecap="round" stroke-linejoin="round"/>
</svg>
