<svg width="24" height="24" viewBox="0 0 24 24" fill="none" xmlns="http://www.w3.org/2000/svg">
<path d="M15.3456 14.0799C14.6084 13.1871 13.7291 12.4745 12.7541 11.9992C15.1636 10.8244 16.9884 8.20125 17.53 4.99124C17.7138 3.90207 16.8 3 15.6954 3H5.81215C4.70758 3 3.7938 3.90206 3.97752 4.99124C4.51892 8.20111 6.34283 10.8243 8.75189 11.9992C6.3426 13.174 4.51879 15.7983 3.97747 19.0088C3.79382 20.0979 4.70759 21 5.81216 21H10.7538" stroke="black" stroke-width="1.5" stroke-linecap="round" stroke-linejoin="round"/>
<path d="M16.5044 21.0001C18.4605 21.0001 20.046 19.4142 20.046 17.4585C20.046 15.5025 18.4605 13.917 16.5044 13.917C14.5483 13.917 12.9629 15.5025 12.9629 17.4585C12.9629 19.4142 14.5483 21.0001 16.5044 21.0001Z" stroke="black" stroke-width="1.5" stroke-linecap="round" stroke-linejoin="round"/>
<path d="M17.6248 18.4704L16.3755 17.7238V16.1112" stroke="black" stroke-width="1.5" stroke-linecap="round" stroke-linejoin="round"/>
</svg>
