<svg width="24" height="24" viewBox="0 0 24 24" fill="none" xmlns="http://www.w3.org/2000/svg">
<path d="M17.999 19.8867C17.999 15.7949 16.2684 13.8249 13.2074 12.1406C16.5579 10.5604 17.999 8.19478 17.999 4.07959" stroke="black" stroke-width="1.5" stroke-linecap="round" stroke-linejoin="round"/>
<path d="M6.00024 19.8867C6.00024 15.7949 7.73084 13.8249 10.7919 12.1406C7.44138 10.5604 6.00028 8.19478 6.00028 4.07959" stroke="black" stroke-width="1.5" stroke-linecap="round" stroke-linejoin="round"/>
<ellipse cx="12" cy="4.11339" rx="6" ry="1.11339" stroke="black" stroke-width="1.5" stroke-linecap="round" stroke-linejoin="round"/>
<path d="M18 19.8867C18 20.5016 15.3137 21.0001 12 21.0001C8.68629 21.0001 6 20.5016 6 19.8867" stroke="black" stroke-width="1.5" stroke-linecap="round" stroke-linejoin="round"/>
<path d="M6 19.7746C6 19.7746 9.40246 16.7476 12.0416 16.7284C14.7169 16.7088 17.999 19.7746 17.999 19.7746" stroke="black" stroke-width="1.5" stroke-linecap="round" stroke-linejoin="round"/>
</svg>
