<svg width="24" height="24" viewBox="0 0 24 24" fill="none" xmlns="http://www.w3.org/2000/svg">
<path d="M11.9986 21C16.1159 21 19.4527 17.6622 19.4527 13.5458C19.4527 9.4285 16.1159 6.09167 11.9986 6.09167C7.88223 6.09167 4.54541 9.4285 4.54541 13.5458C4.54541 17.6622 7.88223 21 11.9986 21Z" stroke="black" stroke-width="1.5" stroke-linecap="round" stroke-linejoin="round"/>
<path d="M17.3447 8.32749L19.004 6.66821" stroke="black" stroke-width="1.5" stroke-linecap="round" stroke-linejoin="round"/>
<path d="M6.65479 8.32749L4.99551 6.66821" stroke="black" stroke-width="1.5" stroke-linecap="round" stroke-linejoin="round"/>
<path d="M18.3804 5.98743L19.6753 7.28223" stroke="black" stroke-width="1.5" stroke-linecap="round" stroke-linejoin="round"/>
<path d="M5.61914 5.98743L4.32421 7.28223" stroke="black" stroke-width="1.5" stroke-linecap="round" stroke-linejoin="round"/>
<path d="M11.9994 14.9217C12.7594 14.9217 13.3753 14.3056 13.3753 13.5459C13.3753 12.7859 12.7594 12.17 11.9994 12.17C11.2397 12.17 10.6238 12.7859 10.6238 13.5459C10.6238 14.3056 11.2397 14.9217 11.9994 14.9217Z" stroke="black" stroke-width="1.5" stroke-linecap="round" stroke-linejoin="round"/>
<path d="M13.0132 12.6242L15.2681 10.3691" stroke="black" stroke-width="1.5" stroke-linecap="round" stroke-linejoin="round"/>
<path d="M9.69336 3H14.0383" stroke="black" stroke-width="1.5" stroke-linecap="round" stroke-linejoin="round"/>
</svg>
