<svg width="24" height="24" viewBox="0 0 24 24" fill="none" xmlns="http://www.w3.org/2000/svg">
<path fill-rule="evenodd" clip-rule="evenodd" d="M20.4443 12.6649C20.4443 17.2688 16.712 21.0001 12.1081 21.0001C7.50419 21.0001 3.77295 17.2688 3.77295 12.6649C3.77295 8.06106 7.50419 4.32874 12.1081 4.32874C16.712 4.32874 20.4443 8.06106 20.4443 12.6649Z" stroke="black" stroke-width="1.5" stroke-linecap="round" stroke-linejoin="round"/>
<path d="M20.6518 5.24685C19.7672 4.26396 19.2284 3.80909 18.1658 3.13123" stroke="black" stroke-width="1.5" stroke-linecap="round" stroke-linejoin="round"/>
<path d="M3.34824 5.24685C4.23279 4.26396 4.77158 3.80909 5.83423 3.13123" stroke="black" stroke-width="1.5" stroke-linecap="round" stroke-linejoin="round"/>
<path fill-rule="evenodd" clip-rule="evenodd" d="M14.8105 11.3655C15.8104 13.3112 15.0062 15.9179 12.7092 16.2966C9.70131 16.9556 7.69462 13.2831 9.9544 11.13C10.0751 11.0109 10.4076 10.7025 10.5464 10.6034C10.5464 10.8096 10.7286 12.4064 11.0133 12.2856C12.1849 12.2856 12.4994 10.1911 12.3377 8.9541C13.3922 9.5052 14.2854 10.2729 14.8105 11.3655Z" stroke="black" stroke-width="1.5" stroke-linecap="round" stroke-linejoin="round"/>
</svg>
