<svg width="24" height="24" viewBox="0 0 24 24" fill="none" xmlns="http://www.w3.org/2000/svg">
<path d="M12 14.4791C15.1701 14.4791 17.7396 11.909 17.7396 8.73954C17.7396 5.56945 15.1701 3 12 3C8.82995 3 6.2605 5.56945 6.2605 8.73954C6.2605 11.909 8.82995 14.4791 12 14.4791Z" stroke="black" stroke-width="1.5" stroke-linecap="round" stroke-linejoin="round"/>
<path d="M14.1121 10.0026L12.0002 8.74049V6.0144" stroke="black" stroke-width="1.5" stroke-linecap="round" stroke-linejoin="round"/>
<path d="M15.4958 18.8348C16.7333 18.141 17.7437 17.0902 18.3874 15.822" stroke="black" stroke-width="1.5" stroke-linecap="round" stroke-linejoin="round"/>
<path d="M8.50464 18.8348C7.26714 18.141 6.2568 17.0902 5.61305 15.822" stroke="black" stroke-width="1.5" stroke-linecap="round" stroke-linejoin="round"/>
<path d="M12.0002 21C12.6074 21 13.0996 20.5077 13.0996 19.9006C13.0996 19.2934 12.6074 18.8013 12.0002 18.8013C11.393 18.8013 10.9009 19.2934 10.9009 19.9006C10.9009 20.5077 11.393 21 12.0002 21Z" stroke="black" stroke-width="1.5" stroke-linecap="round" stroke-linejoin="round"/>
<path d="M12 18.8012L12 14.479" stroke="black" stroke-width="1.5" stroke-linecap="round" stroke-linejoin="round"/>
</svg>
