<svg width="24" height="24" viewBox="0 0 24 24" fill="none" xmlns="http://www.w3.org/2000/svg">
<path d="M12 21.75C10.0716 21.75 8.18657 21.1782 6.58319 20.1068C4.97981 19.0355 3.73014 17.5128 2.99219 15.7312C2.25423 13.9496 2.06114 11.9892 2.43735 10.0979C2.81355 8.20656 3.74215 6.46928 5.10571 5.10572C6.46927 3.74215 8.20655 2.81356 10.0979 2.43735C11.9892 2.06114 13.9496 2.25422 15.7312 2.99217C17.5127 3.73013 19.0355 4.97981 20.1068 6.58319C21.1782 8.18657 21.75 10.0716 21.75 12C21.7471 14.585 20.7189 17.0632 18.8911 18.8911C17.0632 20.7189 14.585 21.7471 12 21.75ZM12 3.75C10.3683 3.75 8.77324 4.23386 7.41653 5.14038C6.05983 6.0469 5.00241 7.33538 4.37799 8.84287C3.75357 10.3504 3.59018 12.0092 3.90851 13.6095C4.22683 15.2098 5.0126 16.6799 6.16638 17.8336C7.32016 18.9874 8.79016 19.7731 10.3905 20.0915C11.9908 20.4098 13.6496 20.2464 15.1571 19.622C16.6646 18.9976 17.9531 17.9402 18.8596 16.5835C19.7661 15.2267 20.25 13.6317 20.25 12C20.2476 9.8127 19.3777 7.71567 17.831 6.16901C16.2843 4.62235 14.1873 3.75238 12 3.75Z" fill="black"/>
<path d="M15.225 9.89922C14.9665 9.89895 14.7187 9.79615 14.5359 9.61336C14.3531 9.43057 14.2503 9.18273 14.25 8.92423C14.2497 8.7962 14.2747 8.66937 14.3236 8.55103C14.3724 8.43268 14.4442 8.32514 14.5346 8.23456C14.6251 8.14398 14.7326 8.07216 14.8509 8.02319C14.9692 7.97423 15.096 7.94909 15.224 7.94922C15.4826 7.94922 15.7306 8.05194 15.9134 8.23479C16.0963 8.41764 16.199 8.66564 16.199 8.92423C16.199 9.18281 16.0963 9.4308 15.9134 9.61365C15.7306 9.7965 15.4826 9.89922 15.224 9.89922H15.225Z" fill="black"/>
<path d="M8.72501 9.89922C8.4665 9.89895 8.21865 9.79615 8.03586 9.61336C7.85307 9.43057 7.75027 9.18273 7.75 8.92423C7.74974 8.7962 7.77474 8.66937 7.82358 8.55103C7.87242 8.43268 7.94416 8.32514 8.03464 8.23456C8.12512 8.14398 8.2326 8.07216 8.35089 8.02319C8.46919 7.97423 8.59597 7.94909 8.724 7.94922C8.98259 7.94922 9.23058 8.05194 9.41342 8.23479C9.59627 8.41764 9.69901 8.66564 9.69901 8.92423C9.69901 9.18281 9.59627 9.4308 9.41342 9.61365C9.23058 9.7965 8.98259 9.89922 8.724 9.89922H8.72501Z" fill="black"/>
<path d="M10.2283 15.4062H7.57031C7.3714 15.4062 7.18063 15.3272 7.03998 15.1866C6.89933 15.0459 6.82031 14.8552 6.82031 14.6562C6.82031 14.4573 6.89933 14.2666 7.03998 14.1259C7.18063 13.9853 7.3714 13.9062 7.57031 13.9062H10.2283C10.4272 13.9062 10.618 13.9853 10.7586 14.1259C10.8993 14.2666 10.9783 14.4573 10.9783 14.6562C10.9783 14.8552 10.8993 15.0459 10.7586 15.1866C10.618 15.3272 10.4272 15.4062 10.2283 15.4062Z" fill="black"/>
</svg>
