<svg width="24" height="24" viewBox="0 0 24 24" fill="none" xmlns="http://www.w3.org/2000/svg">
<path fill-rule="evenodd" clip-rule="evenodd" d="M12 3.75C7.44329 3.75 3.75 7.44329 3.75 12C3.75 16.5558 7.44335 20.25 12 20.25C16.5567 20.25 20.25 16.5558 20.25 12C20.25 7.44329 16.5567 3.75 12 3.75ZM2.25 12C2.25 6.61487 6.61487 2.25 12 2.25C17.3851 2.25 21.75 6.61487 21.75 12C21.75 17.3841 17.3852 21.75 12 21.75C6.61481 21.75 2.25 17.3841 2.25 12Z" fill="black"/>
<path fill-rule="evenodd" clip-rule="evenodd" d="M8.37012 15.2881C8.37012 14.8739 8.7059 14.5381 9.12012 14.5381H14.8801C15.2943 14.5381 15.6301 14.8739 15.6301 15.2881C15.6301 16.2572 14.9553 17.0068 14.2984 17.4641C13.6238 17.9337 12.7572 18.2501 12.0001 18.2501C11.243 18.2501 10.3764 17.9337 9.7018 17.4641C9.04492 17.0068 8.37012 16.2572 8.37012 15.2881ZM10.3106 16.0381C10.3831 16.1029 10.4656 16.1682 10.5588 16.233C11.0377 16.5664 11.611 16.7501 12.0001 16.7501C12.3892 16.7501 12.9625 16.5664 13.4414 16.233C13.5346 16.1682 13.6171 16.1029 13.6896 16.0381H10.3106Z" fill="black"/>
<path fill-rule="evenodd" clip-rule="evenodd" d="M8.42956 7.73563C8.77241 7.51528 9.18371 7.41344 9.59873 7.45512L9.60015 7.45526C10.7873 7.57675 11.3183 8.68443 11.2266 9.59421C11.1524 10.3208 10.7232 10.9605 10.4014 11.3592C10.2299 11.5717 10.0634 11.7467 9.93972 11.8688C9.87751 11.9303 9.82517 11.9793 9.78721 12.0139C9.76821 12.0313 9.75273 12.0451 9.74134 12.0551L9.72736 12.0674L9.72279 12.0714L9.72112 12.0728L9.72015 12.0736C9.72001 12.0737 9.71988 12.0739 9.23212 11.5041C9.01592 12.2223 9.01575 12.2222 9.01558 12.2222L9.01437 12.2218L9.01229 12.2212L9.00652 12.2194L8.98878 12.2138C8.97428 12.2092 8.95448 12.2028 8.92998 12.1946C8.88106 12.1782 8.81307 12.1545 8.73094 12.1233C8.56767 12.0615 8.34359 11.9686 8.10012 11.8438C7.64554 11.6109 6.9908 11.2014 6.63272 10.5688C6.17894 9.77322 6.21817 8.54716 7.2511 7.95457L7.25573 7.95191C7.61618 7.74853 8.0298 7.67544 8.42956 7.73563ZM9.23212 11.5041L9.01558 12.2222C9.2602 12.2958 9.52609 12.2398 9.72015 12.0736L9.23212 11.5041ZM9.04781 10.6333C8.96578 10.5977 8.87641 10.5561 8.78416 10.5089C8.38792 10.3058 8.06974 10.0629 7.93779 9.82935L7.9359 9.82604C7.86025 9.6937 7.84181 9.55561 7.86026 9.45358C7.87627 9.36508 7.91737 9.30243 7.99518 9.25702C8.0879 9.20565 8.19899 9.20144 8.29499 9.24537C8.5968 9.38346 8.95348 9.30677 9.17185 9.05683C9.24067 8.97806 9.34336 8.93725 9.44816 8.94755C9.53835 8.95695 9.60133 8.99721 9.65201 9.07182C9.71008 9.15734 9.74941 9.29112 9.73419 9.44331C9.70569 9.72086 9.51072 10.0745 9.2342 10.4171C9.17044 10.4961 9.10704 10.5688 9.04781 10.6333Z" fill="black"/>
<path fill-rule="evenodd" clip-rule="evenodd" d="M15.4657 7.73563C15.1229 7.51528 14.7116 7.41344 14.2965 7.45512L14.2951 7.45526C13.108 7.57675 12.577 8.68443 12.6687 9.59421C12.7428 10.3208 13.172 10.9605 13.4938 11.3592C13.6653 11.5717 13.8318 11.7467 13.9555 11.8688C14.0178 11.9303 14.0701 11.9793 14.1081 12.0139C14.1271 12.0313 14.1425 12.0451 14.1539 12.0551L14.1679 12.0674L14.1725 12.0714L14.1741 12.0728L14.1751 12.0736C14.1753 12.0737 14.1754 12.0739 14.6631 11.5041C14.8793 12.2223 14.8795 12.2222 14.8797 12.2222L14.8809 12.2218L14.883 12.2212L14.8887 12.2194L14.9065 12.2138C14.921 12.2092 14.9408 12.2028 14.9653 12.1946C15.0142 12.1782 15.0822 12.1545 15.1643 12.1233C15.3276 12.0615 15.5517 11.9686 15.7951 11.8438C16.2497 11.6109 16.9045 11.2014 17.2625 10.5688C17.7163 9.77322 17.6771 8.54716 16.6442 7.95457L16.6395 7.95191C16.2791 7.74853 15.8655 7.67544 15.4657 7.73563ZM14.6631 11.5041L14.8797 12.2222C14.6351 12.2958 14.3692 12.2398 14.1751 12.0736L14.6631 11.5041ZM14.8475 10.6333C14.9295 10.5977 15.0189 10.5561 15.1111 10.5089C15.5073 10.3058 15.8255 10.0629 15.9575 9.82935L15.9594 9.82604C16.035 9.6937 16.0535 9.55561 16.035 9.45358C16.019 9.36508 15.9779 9.30243 15.9001 9.25702C15.8074 9.20565 15.6963 9.20144 15.6003 9.24537C15.2985 9.38346 14.9418 9.30677 14.7234 9.05683C14.6546 8.97806 14.5519 8.93725 14.4471 8.94755C14.3569 8.95695 14.2939 8.99721 14.2433 9.07182C14.1852 9.15734 14.1458 9.29112 14.1611 9.44331C14.1896 9.72086 14.3845 10.0745 14.6611 10.4171C14.7248 10.4961 14.7882 10.5688 14.8475 10.6333Z" fill="black"/>
</svg>
