<svg width="24" height="24" viewBox="0 0 24 24" fill="none" xmlns="http://www.w3.org/2000/svg">
<path d="M12 21.75C10.0717 21.75 8.18659 21.1782 6.58321 20.1068C4.97983 19.0355 3.73016 17.5127 2.99221 15.7312C2.25425 13.9496 2.06113 11.9892 2.43734 10.0979C2.81354 8.20656 3.74217 6.46928 5.10573 5.10571C6.4693 3.74215 8.20655 2.81355 10.0979 2.43735C11.9892 2.06114 13.9496 2.25422 15.7312 2.99218C17.5127 3.73013 19.0355 4.97982 20.1068 6.58319C21.1782 8.18657 21.75 10.0716 21.75 12C21.7471 14.585 20.7189 17.0632 18.8911 18.8911C17.0632 20.7189 14.585 21.7471 12 21.75ZM12 3.75C10.3683 3.75 8.77329 4.23386 7.41659 5.14038C6.05988 6.0469 5.00243 7.33538 4.37801 8.84287C3.75359 10.3504 3.5902 12.0092 3.90853 13.6095C4.22686 15.2098 5.01262 16.6799 6.1664 17.8336C7.32019 18.9874 8.79018 19.7732 10.3905 20.0915C11.9909 20.4098 13.6497 20.2464 15.1572 19.622C16.6647 18.9976 17.9531 17.9402 18.8596 16.5835C19.7662 15.2268 20.25 13.6317 20.25 12C20.2476 9.8127 19.3777 7.71566 17.831 6.169C16.2844 4.62235 14.1873 3.75239 12 3.75Z" fill="black"/>
<path d="M8.72498 8.80156C8.46647 8.8013 8.21868 8.69849 8.03589 8.5157C7.8531 8.33291 7.75027 8.08507 7.75 7.82656C7.74974 7.69853 7.77477 7.57171 7.82361 7.45337C7.87245 7.33502 7.94413 7.22748 8.03461 7.1369C8.12509 7.04632 8.2326 6.9745 8.35089 6.92553C8.46919 6.87657 8.59597 6.85143 8.724 6.85156C8.85204 6.85156 8.97882 6.87678 9.09711 6.92578C9.2154 6.97478 9.32292 7.0466 9.41345 7.13713C9.50399 7.22767 9.57576 7.33515 9.62476 7.45345C9.67376 7.57174 9.69898 7.69852 9.69898 7.82656C9.69898 7.9546 9.67376 8.08139 9.62476 8.19968C9.57576 8.31797 9.50399 8.42546 9.41345 8.51599C9.32292 8.60653 9.2154 8.67835 9.09711 8.72735C8.97882 8.77634 8.85204 8.80156 8.724 8.80156H8.72498Z" fill="black"/>
<path d="M15.225 8.80156C14.9665 8.8013 14.7187 8.69849 14.5359 8.5157C14.3531 8.33291 14.2503 8.08507 14.25 7.82656C14.2497 7.69853 14.2748 7.57171 14.3236 7.45337C14.3725 7.33502 14.4441 7.22748 14.5346 7.1369C14.6251 7.04632 14.7326 6.9745 14.8509 6.92553C14.9692 6.87657 15.096 6.85143 15.224 6.85156C15.352 6.85156 15.4788 6.87678 15.5971 6.92578C15.7154 6.97478 15.8229 7.0466 15.9135 7.13713C16.004 7.22767 16.0758 7.33515 16.1248 7.45345C16.1738 7.57174 16.199 7.69852 16.199 7.82656C16.199 7.9546 16.1738 8.08139 16.1248 8.19968C16.0758 8.31797 16.004 8.42546 15.9135 8.51599C15.8229 8.60653 15.7154 8.67835 15.5971 8.72735C15.4788 8.77634 15.352 8.80156 15.224 8.80156H15.225Z" fill="black"/>
<path d="M13.7705 12.1016H10.2285C10.0296 12.1016 9.83883 12.0225 9.69818 11.8819C9.55753 11.7412 9.47852 11.5505 9.47852 11.3516C9.47852 11.1527 9.55753 10.9619 9.69818 10.8212C9.83883 10.6806 10.0296 10.6016 10.2285 10.6016H13.7705C13.9694 10.6016 14.1602 10.6806 14.3008 10.8212C14.4415 10.9619 14.5205 11.1527 14.5205 11.3516C14.5205 11.5505 14.4415 11.7412 14.3008 11.8819C14.1602 12.0225 13.9694 12.1016 13.7705 12.1016Z" fill="black"/>
</svg>
