<svg width="24" height="24" viewBox="0 0 24 24" fill="none" xmlns="http://www.w3.org/2000/svg">
<path fill-rule="evenodd" clip-rule="evenodd" d="M12 3.75C7.44329 3.75 3.75 7.44329 3.75 12C3.75 16.5558 7.44335 20.25 12 20.25C16.5567 20.25 20.25 16.5558 20.25 12C20.25 7.44329 16.5567 3.75 12 3.75ZM2.25 12C2.25 6.61487 6.61487 2.25 12 2.25C17.3851 2.25 21.75 6.61487 21.75 12C21.75 17.3841 17.3852 21.75 12 21.75C6.61481 21.75 2.25 17.3841 2.25 12Z" fill="black"/>
<path fill-rule="evenodd" clip-rule="evenodd" d="M9.2055 9.99805C9.03253 9.99805 8.85243 10.0823 8.71243 10.2645C8.46006 10.5929 7.98921 10.6546 7.66076 10.4022C7.3323 10.1499 7.27062 9.679 7.523 9.35055C7.91229 8.84389 8.51251 8.49805 9.2055 8.49805C9.89848 8.49805 10.4987 8.84389 10.888 9.35055C11.1404 9.679 11.0787 10.1499 10.7502 10.4022C10.4218 10.6546 9.95093 10.5929 9.69856 10.2645C9.55856 10.0823 9.37846 9.99805 9.2055 9.99805Z" fill="black"/>
<path fill-rule="evenodd" clip-rule="evenodd" d="M14.6738 9.99805C14.5008 9.99805 14.3207 10.0823 14.1807 10.2645C13.9283 10.5929 13.4575 10.6546 13.129 10.4022C12.8006 10.1499 12.7389 9.679 12.9913 9.35055C13.3806 8.84389 13.9808 8.49805 14.6738 8.49805C15.3667 8.49805 15.967 8.84389 16.3563 9.35055C16.6086 9.679 16.547 10.1499 16.2185 10.4022C15.89 10.6546 15.4192 10.5929 15.1668 10.2645C15.0268 10.0823 14.8467 9.99805 14.6738 9.99805Z" fill="black"/>
<path fill-rule="evenodd" clip-rule="evenodd" d="M15.3368 13.6932C15.6654 13.9454 15.7273 14.4162 15.4751 14.7448C14.6498 15.82 13.4063 16.5199 12.0002 16.5199C10.5938 16.5199 9.3515 15.8197 8.52552 14.7452C8.27309 14.4168 8.33468 13.9459 8.66309 13.6935C8.99149 13.441 9.46236 13.5026 9.71479 13.831C10.2918 14.5818 11.1142 15.0199 12.0002 15.0199C12.8864 15.0199 13.7094 14.5815 14.2852 13.8314C14.5374 13.5028 15.0082 13.4409 15.3368 13.6932Z" fill="black"/>
<path fill-rule="evenodd" clip-rule="evenodd" d="M1.46968 1.46967C1.64958 1.28977 1.9084 1.21334 2.15716 1.26665L9.15716 2.76665C9.56218 2.85344 9.82016 3.25213 9.73337 3.65714C9.64658 4.06216 9.24789 4.32014 8.84287 4.23335L2.97623 2.97621L4.23337 8.84285C4.32015 9.24787 4.06218 9.64656 3.65716 9.73335C3.25214 9.82014 2.85345 9.56216 2.76666 9.15715L1.26666 2.15714C1.21336 1.90838 1.28979 1.64956 1.46968 1.46967Z" fill="black"/>
<path fill-rule="evenodd" clip-rule="evenodd" d="M6.03033 2.46967C6.32322 2.76256 6.32322 3.23744 6.03033 3.53033L3.53033 6.03033C3.23744 6.32322 2.76256 6.32322 2.46967 6.03033C2.17678 5.73744 2.17678 5.26256 2.46967 4.96967L4.96967 2.46967C5.26256 2.17678 5.73744 2.17678 6.03033 2.46967Z" fill="black"/>
</svg>
