<svg width="24" height="24" viewBox="0 0 24 24" fill="none" xmlns="http://www.w3.org/2000/svg">
<path fill-rule="evenodd" clip-rule="evenodd" d="M3.7402 3.89737C4.72468 2.84117 6.12669 2.25 7.78216 2.25H16.2169C17.8762 2.25 19.2788 2.84084 20.2629 3.89765C21.2413 4.94841 21.75 6.39889 21.75 8.02638V15.9736C21.75 17.6011 21.2413 19.0516 20.2627 20.1024C19.2785 21.1592 17.8756 21.75 16.2159 21.75H7.78216C6.1228 21.75 4.72038 21.1591 3.73657 20.1023C2.75842 19.0515 2.25 17.601 2.25 15.9736V8.02638C2.25 6.39806 2.76117 4.94771 3.7402 3.89737ZM4.83745 4.92012C4.16024 5.64666 3.75 6.70951 3.75 8.02638V15.9736C3.75 17.2914 4.15861 18.3541 4.83451 19.0802C5.50475 19.8003 6.49341 20.25 7.78216 20.25H16.2159C17.5052 20.25 18.4944 19.8002 19.165 19.0801C19.8412 18.354 20.25 17.2913 20.25 15.9736V8.02638C20.25 6.70868 19.8412 5.64597 19.1651 4.91984C18.4946 4.19975 17.5056 3.75 16.2169 3.75H7.78216C6.49828 3.75 5.50921 4.19943 4.83745 4.92012Z" fill="black"/>
<path fill-rule="evenodd" clip-rule="evenodd" d="M8.64706 13.7552C8.9755 13.5028 9.44635 13.5644 9.69874 13.8929C10.2942 14.6678 11.1448 15.1216 12.0619 15.1216C12.4761 15.1216 12.8119 15.4574 12.8119 15.8716C12.8119 16.2858 12.4761 16.6216 12.0619 16.6216C10.6244 16.6216 9.35387 15.9059 8.50934 14.8068C8.25696 14.4784 8.31861 14.0075 8.64706 13.7552Z" fill="black"/>
<path fill-rule="evenodd" clip-rule="evenodd" d="M14.8084 9.58545C14.6237 9.58545 14.4333 9.67549 14.2867 9.86673C14.0347 10.1955 13.5639 10.2577 13.2352 10.0057C12.9064 9.75375 12.8442 9.28297 13.0962 8.95422C13.4925 8.43714 14.1038 8.08545 14.8084 8.08545C15.513 8.08545 16.1243 8.43714 16.5206 8.95422C16.7726 9.28297 16.7104 9.75375 16.3816 10.0057C16.0529 10.2577 15.5821 10.1955 15.3301 9.86673C15.1836 9.67549 14.9931 9.58545 14.8084 9.58545Z" fill="black"/>
<path fill-rule="evenodd" clip-rule="evenodd" d="M9.19074 9.58545C9.00607 9.58545 8.81561 9.67549 8.66903 9.86673C8.41704 10.1955 7.94627 10.2577 7.61751 10.0057C7.28876 9.75375 7.22653 9.28297 7.47851 8.95422C7.87485 8.43714 8.48611 8.08545 9.19074 8.08545C9.89537 8.08545 10.5066 8.43714 10.903 8.95422C11.155 9.28297 11.0927 9.75375 10.764 10.0057C10.4352 10.2577 9.96444 10.1955 9.71246 9.86673C9.56588 9.67549 9.37541 9.58545 9.19074 9.58545Z" fill="black"/>
</svg>
