<svg width="24" height="24" viewBox="0 0 24 24" fill="none" xmlns="http://www.w3.org/2000/svg">
<path fill-rule="evenodd" clip-rule="evenodd" d="M12 3.75C7.44329 3.75 3.75 7.44329 3.75 12C3.75 16.5558 7.44335 20.25 12 20.25C16.5567 20.25 20.25 16.5558 20.25 12C20.25 7.44329 16.5567 3.75 12 3.75ZM2.25 12C2.25 6.61487 6.61487 2.25 12 2.25C17.3851 2.25 21.75 6.61487 21.75 12C21.75 17.3841 17.3852 21.75 12 21.75C6.61481 21.75 2.25 17.3841 2.25 12Z" fill="black"/>
<path fill-rule="evenodd" clip-rule="evenodd" d="M7.65978 8.65334C7.98823 8.40097 8.45908 8.46264 8.71145 8.7911C8.85146 8.9733 9.03156 9.05751 9.20452 9.05751C9.37748 9.05751 9.55759 8.9733 9.69759 8.7911C9.94996 8.46264 10.4208 8.40097 10.7493 8.65334C11.0777 8.90571 11.1394 9.37656 10.887 9.70501C10.4977 10.2117 9.8975 10.5575 9.20452 10.5575C8.51154 10.5575 7.91132 10.2117 7.52202 9.70501C7.26965 9.37656 7.33133 8.90571 7.65978 8.65334Z" fill="black"/>
<path fill-rule="evenodd" clip-rule="evenodd" d="M13.129 8.65334C13.4575 8.40097 13.9283 8.46264 14.1807 8.7911C14.3207 8.9733 14.5008 9.05751 14.6738 9.05751C14.8467 9.05751 15.0268 8.9733 15.1668 8.7911C15.4192 8.46264 15.89 8.40097 16.2185 8.65334C16.547 8.90571 16.6086 9.37656 16.3563 9.70501C15.967 10.2117 15.3667 10.5575 14.6738 10.5575C13.9808 10.5575 13.3806 10.2117 12.9913 9.70501C12.7389 9.37656 12.8006 8.90571 13.129 8.65334Z" fill="black"/>
<path fill-rule="evenodd" clip-rule="evenodd" d="M8.37012 14.845C8.37012 14.4308 8.7059 14.095 9.12012 14.095H14.8801C15.2943 14.095 15.6301 14.4308 15.6301 14.845C15.6301 15.2592 15.2943 15.595 14.8801 15.595H9.12012C8.7059 15.595 8.37012 15.2592 8.37012 14.845Z" fill="black"/>
</svg>
