<svg width="24" height="24" viewBox="0 0 24 24" fill="none" xmlns="http://www.w3.org/2000/svg">
<path d="M16.216 21.75H7.782C4.473 21.75 2.25 19.429 2.25 15.974V8.026C2.25 4.571 4.473 2.25 7.782 2.25H16.217C19.526 2.25 21.75 4.571 21.75 8.026V15.974C21.75 19.429 19.526 21.75 16.216 21.75ZM7.782 3.75C5.333 3.75 3.75 5.429 3.75 8.026V15.974C3.75 18.574 5.333 20.25 7.782 20.25H16.216C18.667 20.25 20.25 18.571 20.25 15.974V8.026C20.25 5.426 18.667 3.75 16.217 3.75H7.782Z" fill="black"/>
<path d="M8.725 10.5008C8.46658 10.5003 8.21889 10.3974 8.03615 10.2146C7.85342 10.0319 7.75053 9.78421 7.75 9.52579C7.75 9.26737 7.85259 9.01955 8.03522 8.83673C8.21785 8.65391 8.46559 8.55105 8.724 8.55078C8.98259 8.55078 9.23058 8.65352 9.41343 8.83636C9.59628 9.01921 9.699 9.2672 9.699 9.52579C9.699 9.78437 9.59628 10.0324 9.41343 10.2152C9.23058 10.3981 8.98259 10.5008 8.724 10.5008H8.725Z" fill="black"/>
<path d="M15.225 10.5008C14.9666 10.5003 14.7189 10.3974 14.5362 10.2146C14.3534 10.0319 14.2505 9.78421 14.25 9.52579C14.25 9.26737 14.3526 9.01955 14.5352 8.83673C14.7178 8.65391 14.9656 8.55105 15.224 8.55078C15.4826 8.55078 15.7306 8.65352 15.9134 8.83636C16.0963 9.01921 16.199 9.2672 16.199 9.52579C16.199 9.78437 16.0963 10.0324 15.9134 10.2152C15.7306 10.3981 15.4826 10.5008 15.224 10.5008H15.225Z" fill="black"/>
<path d="M9.04228 16.1652C8.90231 16.1651 8.76517 16.1258 8.64637 16.0518C8.52757 15.9778 8.43185 15.872 8.37004 15.7464C8.30824 15.6208 8.28281 15.4804 8.29664 15.3412C8.31046 15.2019 8.36299 15.0692 8.44828 14.9583C8.85492 14.3967 9.38891 13.9394 10.0064 13.6242C10.624 13.3089 11.3074 13.1445 12.0008 13.1445C12.6941 13.1445 13.3776 13.3089 13.9951 13.6242C14.6127 13.9394 15.1466 14.3967 15.5533 14.9583C15.6156 15.0361 15.6618 15.1256 15.6891 15.2215C15.7165 15.3175 15.7244 15.4179 15.7124 15.5169C15.7005 15.6159 15.6689 15.7115 15.6195 15.7982C15.5702 15.8849 15.504 15.9608 15.4249 16.0216C15.3459 16.0824 15.2554 16.1268 15.159 16.1523C15.0625 16.1777 14.962 16.1836 14.8632 16.1697C14.7645 16.1558 14.6695 16.1223 14.5838 16.0712C14.4981 16.0202 14.4235 15.9525 14.3643 15.8722C14.0978 15.493 13.744 15.1835 13.3327 14.9698C12.9214 14.7561 12.4648 14.6446 12.0013 14.6446C11.5378 14.6446 11.0811 14.7561 10.6698 14.9698C10.2586 15.1835 9.90474 15.493 9.63828 15.8722C9.56811 15.9635 9.47784 16.0375 9.37448 16.0883C9.27113 16.1391 9.15746 16.1654 9.04228 16.1652Z" fill="black"/>
</svg>
