<svg width="24" height="24" viewBox="0 0 24 24" fill="none" xmlns="http://www.w3.org/2000/svg">
<path d="M11.8877 21.75C9.30183 21.75 6.82189 20.7228 4.99341 18.8943C3.16493 17.0658 2.1377 14.5859 2.1377 12C2.1377 9.41414 3.16493 6.93419 4.99341 5.10571C6.82189 3.27723 9.30183 2.25 11.8877 2.25C12.0866 2.25 12.2774 2.32902 12.418 2.46967C12.5587 2.61032 12.6377 2.80109 12.6377 3C12.6377 3.19891 12.5587 3.38968 12.418 3.53033C12.2774 3.67098 12.0866 3.75 11.8877 3.75C10.256 3.75 8.66095 4.23385 7.30424 5.14038C5.94754 6.0469 4.89011 7.33537 4.26569 8.84286C3.64126 10.3504 3.47789 12.0092 3.79622 13.6095C4.11455 15.2098 4.90028 16.6798 6.05406 17.8336C7.20785 18.9874 8.67786 19.7731 10.2782 20.0915C11.8785 20.4098 13.5373 20.2464 15.0448 19.622C16.5523 18.9976 17.8408 17.9402 18.7473 16.5835C19.6538 15.2267 20.1377 13.6317 20.1377 12C20.1377 11.8011 20.2167 11.6103 20.3574 11.4697C20.498 11.329 20.6888 11.25 20.8877 11.25C21.0866 11.25 21.2774 11.329 21.418 11.4697C21.5587 11.6103 21.6377 11.8011 21.6377 12C21.6348 14.585 20.6066 17.0632 18.7788 18.8911C16.9509 20.7189 14.4727 21.7471 11.8877 21.75Z" fill="black"/>
<path d="M8.91348 11.0008C8.65498 11.0005 8.40714 10.8977 8.22435 10.7149C8.04156 10.5321 7.93874 10.2843 7.93848 10.0258C7.93822 9.89775 7.96323 9.77093 8.01207 9.65259C8.06091 9.53424 8.13263 9.4267 8.22312 9.33612C8.3136 9.24554 8.42107 9.17371 8.53937 9.12475C8.65767 9.07579 8.78445 9.05065 8.91248 9.05078C9.04052 9.05078 9.16731 9.076 9.2856 9.125C9.40389 9.174 9.51138 9.24582 9.60192 9.33635C9.69245 9.42689 9.76427 9.53437 9.81326 9.65267C9.86226 9.77096 9.88748 9.89774 9.88748 10.0258C9.88748 10.1538 9.86226 10.2806 9.81326 10.3989C9.76427 10.5172 9.69245 10.6247 9.60192 10.7152C9.51138 10.8057 9.40389 10.8776 9.2856 10.9266C9.16731 10.9756 9.04052 11.0008 8.91248 11.0008H8.91348Z" fill="black"/>
<path d="M15.4135 11.0008C15.155 11.0005 14.9071 10.8977 14.7244 10.7149C14.5416 10.5321 14.4387 10.2843 14.4385 10.0258C14.4382 9.89775 14.4632 9.77093 14.5121 9.65259C14.5609 9.53424 14.6326 9.4267 14.7231 9.33612C14.8136 9.24554 14.9211 9.17371 15.0394 9.12475C15.1577 9.07579 15.2844 9.05065 15.4125 9.05078C15.5405 9.05078 15.6673 9.076 15.7856 9.125C15.9039 9.174 16.0114 9.24582 16.1019 9.33635C16.1925 9.42689 16.2643 9.53437 16.3133 9.65267C16.3623 9.77096 16.3875 9.89774 16.3875 10.0258C16.3875 10.1538 16.3623 10.2806 16.3133 10.3989C16.2643 10.5172 16.1925 10.6247 16.1019 10.7152C16.0114 10.8057 15.9039 10.8776 15.7856 10.9266C15.6673 10.9756 15.5405 11.0008 15.4125 11.0008H15.4135Z" fill="black"/>
<path d="M11.8871 16.5213C11.2102 16.5137 10.5442 16.3495 9.94131 16.0415C9.33844 15.7336 8.81503 15.2903 8.41208 14.7463C8.29087 14.5885 8.23733 14.389 8.26321 14.1917C8.28909 13.9944 8.39227 13.8155 8.55008 13.6943C8.70788 13.5731 8.90737 13.5196 9.10466 13.5454C9.30195 13.5713 9.48088 13.6745 9.60208 13.8323C9.85937 14.1995 10.2014 14.4994 10.5991 14.7064C10.9969 14.9133 11.4387 15.0214 11.8871 15.0214C12.3355 15.0214 12.7773 14.9133 13.175 14.7064C13.5728 14.4994 13.9148 14.1995 14.1721 13.8323C14.2933 13.6745 14.4722 13.5713 14.6695 13.5454C14.8668 13.5196 15.0663 13.5731 15.2241 13.6943C15.3819 13.8155 15.4851 13.9944 15.511 14.1917C15.5368 14.389 15.4833 14.5885 15.3621 14.7463C14.9591 15.2903 14.4357 15.7336 13.8329 16.0415C13.23 16.3495 12.564 16.5137 11.8871 16.5213Z" fill="black"/>
<path d="M18.9778 8.35022C18.7789 8.35022 18.5881 8.2712 18.4474 8.13055C18.3068 7.9899 18.2278 7.79913 18.2278 7.60022V6.21022H16.8428C16.6439 6.21022 16.4531 6.1312 16.3124 5.99055C16.1718 5.8499 16.0928 5.65913 16.0928 5.46022C16.0928 5.26131 16.1718 5.07054 16.3124 4.92989C16.4531 4.78924 16.6439 4.71022 16.8428 4.71022H18.2278V3.32422C18.2278 3.12531 18.3068 2.93454 18.4474 2.79389C18.5881 2.65324 18.7789 2.57422 18.9778 2.57422C19.1767 2.57422 19.3675 2.65324 19.5081 2.79389C19.6488 2.93454 19.7278 3.12531 19.7278 3.32422V4.71022H21.1118C21.3107 4.71022 21.5015 4.78924 21.6421 4.92989C21.7828 5.07054 21.8618 5.26131 21.8618 5.46022C21.8618 5.65913 21.7828 5.8499 21.6421 5.99055C21.5015 6.1312 21.3107 6.21022 21.1118 6.21022H19.7278V7.60022C19.7278 7.79913 19.6488 7.9899 19.5081 8.13055C19.3675 8.2712 19.1767 8.35022 18.9778 8.35022Z" fill="black"/>
</svg>
