<svg width="24" height="24" viewBox="0 0 24 24" fill="none" xmlns="http://www.w3.org/2000/svg">
<path d="M16.217 21.75H7.78201C4.47401 21.75 2.25 19.429 2.25 15.974V8.026C2.25 4.571 4.47401 2.25 7.78201 2.25H16.216C19.526 2.25 21.75 4.571 21.75 8.026V15.974C21.75 19.429 19.526 21.75 16.217 21.75ZM7.78201 3.75C5.33301 3.75 3.75 5.429 3.75 8.026V15.974C3.75 18.574 5.33301 20.25 7.78201 20.25H16.217C18.667 20.25 20.25 18.571 20.25 15.974V8.026C20.25 5.426 18.666 3.75 16.216 3.75H7.78201Z" fill="black"/>
<path d="M8.72399 15.5516C8.5312 15.5514 8.34279 15.494 8.18258 15.3868C8.02237 15.2795 7.89758 15.1272 7.82394 14.949C7.7503 14.7708 7.73112 14.5748 7.76885 14.3857C7.80659 14.1967 7.89952 14.023 8.03591 13.8868C8.17231 13.7505 8.34605 13.6578 8.53515 13.6202C8.72425 13.5827 8.92025 13.6021 9.09835 13.6759C9.27645 13.7497 9.42867 13.8747 9.53576 14.035C9.64285 14.1953 9.70001 14.3838 9.70001 14.5766C9.7004 14.7048 9.67541 14.8319 9.62649 14.9504C9.57757 15.0689 9.50566 15.1766 9.41494 15.2672C9.32422 15.3579 9.21648 15.4296 9.09789 15.4784C8.97931 15.5272 8.85223 15.5521 8.72399 15.5516Z" fill="black"/>
<path d="M15.224 15.5516C15.0312 15.5514 14.8428 15.494 14.6826 15.3868C14.5224 15.2795 14.3976 15.1272 14.3239 14.949C14.2503 14.7708 14.2311 14.5748 14.2689 14.3857C14.3066 14.1967 14.3995 14.023 14.5359 13.8868C14.6723 13.7505 14.846 13.6578 15.0352 13.6202C15.2243 13.5827 15.4203 13.6021 15.5984 13.6759C15.7765 13.7497 15.9287 13.8747 16.0358 14.035C16.1429 14.1953 16.2 14.3838 16.2 14.5766C16.2004 14.7048 16.1754 14.8319 16.1265 14.9504C16.0776 15.0689 16.0057 15.1766 15.9149 15.2672C15.8242 15.3579 15.7165 15.4296 15.5979 15.4784C15.4793 15.5272 15.3522 15.5521 15.224 15.5516Z" fill="black"/>
<path d="M14.9584 10.3996C14.8425 10.4006 14.7279 10.3747 14.6238 10.3239C14.5197 10.273 14.4288 10.1986 14.3584 10.1066C14.0919 9.72737 13.7381 9.41787 13.3268 9.20419C12.9155 8.99052 12.4588 8.87897 11.9954 8.87897C11.5319 8.87897 11.0752 8.99052 10.6639 9.20419C10.2526 9.41787 9.89881 9.72737 9.63235 10.1066C9.57233 10.1847 9.49754 10.2503 9.41219 10.2995C9.32685 10.3487 9.23263 10.3807 9.13494 10.3935C9.03725 10.4063 8.93801 10.3998 8.84286 10.3742C8.7477 10.3487 8.65848 10.3046 8.58035 10.2446C8.50221 10.1846 8.43667 10.1098 8.38744 10.0244C8.33822 9.93907 8.3063 9.84488 8.29348 9.74719C8.28067 9.64951 8.28722 9.55023 8.31277 9.45508C8.33831 9.35992 8.38233 9.27073 8.44235 9.1926C8.84909 8.631 9.38318 8.17382 10.0008 7.85855C10.6184 7.54328 11.3019 7.37891 11.9954 7.37891C12.6888 7.37891 13.3723 7.54328 13.9899 7.85855C14.6075 8.17382 15.1416 8.631 15.5484 9.1926C15.6337 9.30358 15.6862 9.43624 15.7 9.57553C15.7138 9.71482 15.6884 9.85519 15.6266 9.98077C15.5648 10.1064 15.4691 10.2121 15.3503 10.2862C15.2315 10.3602 15.0943 10.3995 14.9544 10.3996H14.9584Z" fill="black"/>
</svg>
