<svg width="24" height="24" viewBox="0 0 24 24" fill="none" xmlns="http://www.w3.org/2000/svg">
<path d="M12 21.75C10.0716 21.75 8.18657 21.1782 6.58319 20.1068C4.97981 19.0355 3.73014 17.5128 2.99219 15.7312C2.25423 13.9496 2.06114 11.9892 2.43735 10.0979C2.81355 8.20656 3.74215 6.46928 5.10571 5.10572C6.46927 3.74215 8.20655 2.81356 10.0979 2.43735C11.9892 2.06114 13.9496 2.25422 15.7312 2.99217C17.5127 3.73013 19.0355 4.97981 20.1068 6.58319C21.1782 8.18657 21.75 10.0716 21.75 12C21.7471 14.585 20.7189 17.0632 18.8911 18.8911C17.0632 20.7189 14.585 21.7471 12 21.75ZM12 3.75C10.3683 3.75 8.77324 4.23386 7.41653 5.14038C6.05983 6.0469 5.00241 7.33538 4.37799 8.84287C3.75357 10.3504 3.59018 12.0092 3.90851 13.6095C4.22683 15.2098 5.0126 16.6799 6.16638 17.8336C7.32016 18.9874 8.79016 19.7731 10.3905 20.0915C11.9908 20.4098 13.6496 20.2464 15.1571 19.622C16.6646 18.9976 17.9531 17.9402 18.8596 16.5835C19.7661 15.2267 20.25 13.6317 20.25 12C20.2476 9.8127 19.3777 7.71567 17.831 6.16901C16.2843 4.62235 14.1873 3.75238 12 3.75Z" fill="black"/>
<path d="M9.99115 9.26953H8.41016C8.21124 9.26953 8.02047 9.1905 7.87982 9.04985C7.73917 8.9092 7.66016 8.71844 7.66016 8.51953C7.66016 8.32062 7.73917 8.12985 7.87982 7.9892C8.02047 7.84854 8.21124 7.76953 8.41016 7.76953H9.99115C10.1901 7.76953 10.3808 7.84854 10.5215 7.9892C10.6621 8.12985 10.7411 8.32062 10.7411 8.51953C10.7411 8.71844 10.6621 8.9092 10.5215 9.04985C10.3808 9.1905 10.1901 9.26953 9.99115 9.26953Z" fill="black"/>
<path d="M15.0258 9.50078C14.7673 9.50051 14.5194 9.39771 14.3366 9.21492C14.1539 9.03213 14.051 8.78428 14.0508 8.52577C14.0505 8.39774 14.0755 8.27093 14.1244 8.15259C14.1732 8.03424 14.2449 7.9267 14.3354 7.83612C14.4259 7.74554 14.5334 7.67371 14.6517 7.62474C14.77 7.57578 14.8968 7.55065 15.0248 7.55078C15.2834 7.55078 15.5314 7.6535 15.7142 7.83635C15.8971 8.0192 15.9998 8.26719 15.9998 8.52577C15.9998 8.78436 15.8971 9.03236 15.7142 9.21521C15.5314 9.39806 15.2834 9.50078 15.0248 9.50078H15.0258Z" fill="black"/>
<path d="M12.0002 16.7705C11.0128 16.7399 10.0778 16.3194 9.39974 15.6011C8.72168 14.8827 8.3558 13.925 8.38219 12.9375C8.38219 12.7386 8.46124 12.5478 8.60189 12.4072C8.74254 12.2665 8.93328 12.1875 9.13219 12.1875H14.8682C15.0671 12.1875 15.2579 12.2665 15.3985 12.4072C15.5392 12.5478 15.6182 12.7386 15.6182 12.9375C15.6446 13.925 15.2787 14.8827 14.6007 15.6011C13.9226 16.3194 12.9876 16.7399 12.0002 16.7705ZM9.99419 13.6875C10.1024 14.1381 10.3591 14.5391 10.723 14.826C11.0869 15.1129 11.5368 15.2689 12.0002 15.2689C12.4636 15.2689 12.9135 15.1129 13.2774 14.826C13.6413 14.5391 13.898 14.1381 14.0062 13.6875H9.99419Z" fill="black"/>
</svg>
