<svg width="24" height="24" viewBox="0 0 24 24" fill="none" xmlns="http://www.w3.org/2000/svg">
<path d="M16.6243 18.6098C15.5783 19.8161 13.4348 19.007 13.3831 17.3617C13.3228 15.4378 16.6231 13.1484 16.6231 13.1484C16.6231 13.1484 19.9225 15.4378 19.8621 17.3617C19.8105 19.007 17.667 19.8161 16.621 18.6098" stroke="black" stroke-width="1.5" stroke-linecap="round" stroke-linejoin="round"/>
<path d="M15.2448 21H18.0004" stroke="black" stroke-width="1.5" stroke-linecap="round" stroke-linejoin="round"/>
<path d="M5.49536 4.67887C5.49536 3.74549 6.26114 3.00069 7.19445 3L7.19555 3.00011C8.12878 3.00076 8.87439 3.74556 8.87439 4.67895C8.87439 5.07122 8.73682 5.43433 8.51268 5.72122C8.58967 5.71033 8.66597 5.69982 8.74592 5.69982C9.67969 5.69982 10.4259 6.46625 10.4259 7.40005C10.4259 8.33385 9.67976 9.10028 8.74596 9.10028C8.3503 9.10028 7.58153 8.97036 7.17716 8.43742C6.70944 9.00266 6.02482 9.10021 5.64408 9.10021C4.71028 9.10021 3.94385 8.33374 3.94385 7.39998C3.94385 6.46614 4.71028 5.69971 5.64408 5.69971C5.7168 5.69971 5.78552 5.71231 5.85585 5.72114C5.63498 5.4354 5.49536 5.06799 5.49536 4.67887Z" stroke="black" stroke-width="1.5" stroke-linecap="round" stroke-linejoin="round"/>
<path d="M5.80615 10.8018H8.56175" stroke="black" stroke-width="1.5" stroke-linecap="round" stroke-linejoin="round"/>
<path d="M13.2982 5.83069C13.1143 7.70426 14.7525 9.45804 16.6211 10.1971C18.4896 9.45804 20.1279 7.70426 19.944 5.83069C19.7641 3.95712 17.7212 3.06777 16.6211 4.43209C15.5209 3.06777 13.4781 3.95712 13.2982 5.83069Z" stroke="black" stroke-width="1.5" stroke-linecap="round" stroke-linejoin="round"/>
<path d="M6.46832 13.8798C6.84127 13.4037 7.5287 13.4037 7.90163 13.8798L10.0437 16.615C10.331 16.9818 10.332 17.5143 10.0461 17.8824L7.90401 20.6398C7.53094 21.1201 6.83903 21.1201 6.46594 20.6398L4.32369 17.8824C4.03773 17.5143 4.03873 16.9818 4.32607 16.6149L6.46832 13.8798Z" stroke="black" stroke-width="1.5" stroke-linecap="round" stroke-linejoin="round"/>
</svg>
