<svg width="24" height="24" viewBox="0 0 24 24" fill="none" xmlns="http://www.w3.org/2000/svg">
<path d="M8.55066 14.616C8.55066 12.8722 9.6388 12.1953 10.5989 12.1953H11.9999H13.4009C14.3615 12.1953 15.4493 12.9162 15.4493 14.616" stroke="black" stroke-width="1.5" stroke-linecap="round" stroke-linejoin="round"/>
<path d="M12.0004 12.1824L12.0004 8.80371" stroke="black" stroke-width="1.5" stroke-linecap="round" stroke-linejoin="round"/>
<path d="M16.4913 17.8076H16.4813" stroke="black" stroke-width="1.5" stroke-linecap="round" stroke-linejoin="round"/>
<path d="M13.3234 17.8076H13.3134" stroke="black" stroke-width="1.5" stroke-linecap="round" stroke-linejoin="round"/>
<circle cx="12.0004" cy="5.90184" r="2.90184" stroke="black" stroke-width="1.5" stroke-linecap="round" stroke-linejoin="round"/>
<path d="M4.08643 12L6.56939 12" stroke="black" stroke-width="1.5" stroke-linecap="round" stroke-linejoin="round"/>
<path d="M19.8369 16.5995L18.382 15.1445C18.0432 14.8056 17.5836 14.6152 17.1043 14.6152H6.89556C6.41636 14.6152 5.95678 14.8056 5.61794 15.1444L4.16287 16.5995C3.82403 16.9384 3.63367 17.3979 3.63367 17.8771V19.1933C3.63367 20.1912 4.44261 21.0001 5.4405 21.0001H18.5592C19.5571 21.0001 20.3661 20.1912 20.3661 19.1933V17.8771C20.3661 17.3979 20.1757 16.9384 19.8369 16.5995Z" stroke="black" stroke-width="1.5" stroke-linecap="round" stroke-linejoin="round"/>
</svg>
