<svg width="24" height="24" viewBox="0 0 24 24" fill="none" xmlns="http://www.w3.org/2000/svg">
<path d="M14.9776 11.1631L16.3224 11.7009L19.012 12.7764C19.8183 13.0987 19.8182 14.137 19.012 14.4593L13.6325 16.6098C12.5917 17.0258 11.4063 17.0259 10.3655 16.6099L4.98528 14.4593C4.17894 14.137 4.17888 13.0987 4.98519 12.7763L7.67518 11.7008L9.02017 11.1631" stroke="black" stroke-width="1.5" stroke-linecap="round" stroke-linejoin="round"/>
<path d="M19.6193 13.6277V17.3684C19.6193 17.9126 19.2667 18.406 18.7192 18.6278L13.654 20.6805C12.6026 21.1066 11.401 21.1066 10.3496 20.6806L5.28358 18.6278C4.73603 18.406 4.38342 17.9126 4.38342 17.3684V13.6277" stroke="black" stroke-width="1.5" stroke-linecap="round" stroke-linejoin="round"/>
<path d="M10.3511 13.3274C11.26 14.114 12.684 14.1047 13.6493 13.3274" stroke="black" stroke-width="1.5" stroke-linecap="round" stroke-linejoin="round"/>
<path d="M14.7521 5.75075C14.7521 7.26995 13.5206 8.5015 12.0014 8.5015C10.4822 8.5015 9.25061 7.26995 9.25061 5.75075C9.25061 4.23155 10.4822 3 12.0014 3C13.5206 3 14.7521 4.23155 14.7521 5.75075Z" stroke="black" stroke-width="1.5"/>
<path d="M12.0012 8.50122V13.9141" stroke="black" stroke-width="1.5" stroke-linecap="round" stroke-linejoin="round"/>
</svg>
