<svg width="24" height="24" viewBox="0 0 24 24" fill="none" xmlns="http://www.w3.org/2000/svg">
<path d="M5.22939 14.1819H18.7702C20.1445 14.1819 21 15.1521 21 16.5251V18.6212C21 19.9942 20.1445 20.9644 18.7697 20.9644H5.22939C3.85456 20.9644 3 19.9942 3 18.6212V16.5251C3 15.1521 3.8591 14.1819 5.22939 14.1819Z" stroke="black" stroke-width="1.5" stroke-linecap="round" stroke-linejoin="round"/>
<path d="M9.87561 14.1821V13.5091C9.87561 13.0683 10.1514 12.7568 10.5914 12.7568H14.9386C15.3798 12.7568 15.6545 13.0683 15.6545 13.5091V14.1821" stroke="black" stroke-width="1.5" stroke-linecap="round" stroke-linejoin="round"/>
<path d="M5.18616 14.1818L5.18689 13.7645C5.18689 13.4137 5.40642 13.1657 5.75657 13.1657H5.81766C6.16886 13.1657 6.38746 13.4137 6.38746 13.7645L6.38673 14.1818" stroke="black" stroke-width="1.5" stroke-linecap="round" stroke-linejoin="round"/>
<path d="M12.7653 12.7576L14.1901 8.29745" stroke="black" stroke-width="1.5" stroke-linecap="round" stroke-linejoin="round"/>
<path d="M17.4402 17.5732H17.4302" stroke="black" stroke-width="1.5" stroke-linecap="round" stroke-linejoin="round"/>
<path d="M14.2696 17.5732H14.2596" stroke="black" stroke-width="1.5" stroke-linecap="round" stroke-linejoin="round"/>
<circle cx="14.7654" cy="5.70039" r="2.66474" stroke="black" stroke-width="1.5" stroke-linecap="round" stroke-linejoin="round"/>
</svg>
