<svg width="24" height="24" viewBox="0 0 24 24" fill="none" xmlns="http://www.w3.org/2000/svg">
<path d="M16 6V6.01" stroke="black" stroke-width="1.5" stroke-linecap="round" stroke-linejoin="round"/>
<path d="M8 18V18.01" stroke="black" stroke-width="1.5" stroke-linecap="round" stroke-linejoin="round"/>
<path d="M11.973 13.4699C12.5 14.1699 13.2133 14.2641 13.6737 14.2749C13.8901 14.2834 13.9846 14.2691 14.1849 14.2001M11.973 13.4699C11.5 14.1699 10.6576 14.269 10.1705 14.2681C9.48054 14.2638 8.84653 13.8181 8.6051 13.1727C8.29074 12.3436 8.70606 11.3748 9.52441 11.0263C9.9038 10.8636 10.3015 10.8662 10.6933 10.9673C10.4912 10.7249 10.3633 10.6441 10.3116 10.3404M11.973 13.4699C11.973 15.4351 11.9766 15.8782 11.9766 15.8782M11.5696 8.21741C12.3182 8.03236 13.1843 8.36693 13.5337 9.05304C13.6475 9.27638 13.9789 10.2599 13.5337 10.7768C14.4953 10.5716 15.023 11.1814 15.1929 11.6986" stroke="black" stroke-width="1.5" stroke-linecap="round" stroke-linejoin="round"/>
<path d="M3 3L21 21" stroke="black" stroke-width="1.5" stroke-linecap="round" stroke-linejoin="round"/>
<path d="M18.7262 18.7089C18.2083 20.107 16.9827 21 15.279 21H8.71946C6.42573 21 5 19.3813 5 17.0906V6.90941C5 6.32279 5.09399 5.78025 5.27224 5.29767M19 14.7618V6.90941C19 4.6187 17.5728 3 15.2798 3H8.71946C8.29341 3 7.89698 3.05622 7.53392 3.16253" stroke="black" stroke-width="1.5" stroke-linecap="round" stroke-linejoin="round"/>
</svg>
