<svg width="24" height="24" viewBox="0 0 24 24" fill="none" xmlns="http://www.w3.org/2000/svg">
<path fill-rule="evenodd" clip-rule="evenodd" d="M10.3401 16.6656C9.51013 17.0556 8.68013 17.1356 8.05013 17.1556C6.51013 17.2156 5.02013 16.3656 4.33013 14.9656C3.33013 12.9456 4.31013 10.3956 6.42013 9.5656C7.26013 9.2456 8.20013 9.2156 9.05013 9.4856C8.02013 8.2856 7.79013 6.5356 8.52013 5.1156C9.33013 3.5256 11.2001 2.6656 12.9401 3.0956C14.2801 3.4256 15.3901 4.4756 15.7701 5.8056C16.1501 7.0856 15.8201 8.4556 14.9701 9.4756C15.8801 9.2456 16.8001 9.2356 17.6901 9.6156C19.5801 10.4256 20.5501 12.6756 19.8201 14.5956C19.2601 16.0956 17.7901 17.1256 16.1801 17.1356C15.5101 17.1456 14.5701 17.0656 13.6701 16.6656C13.725 18.2633 14.692 19.7153 15.2945 20.4701C15.4612 20.679 15.3131 21.0156 15.0459 21.0156H8.95187C8.68496 21.0156 8.53712 20.68 8.70351 20.4713C9.30645 19.7151 10.2783 18.2587 10.3401 16.6656Z" stroke="black" stroke-width="1.5" stroke-linecap="round" stroke-linejoin="round"/>
</svg>
