<svg width="24" height="24" viewBox="0 0 24 24" fill="none" xmlns="http://www.w3.org/2000/svg">
<path d="M14.8844 4.08569C17.1264 5.16181 18.6743 7.45336 18.6743 10.1064C18.6743 13.7927 15.686 16.781 11.9998 16.781C8.3135 16.781 5.3252 13.7927 5.3252 10.1064C5.3252 7.45336 6.87314 5.16181 9.11515 4.08569" stroke="black" stroke-width="1.5" stroke-linecap="round" stroke-linejoin="round"/>
<path d="M12 4L11.5 3H12.5L12 4Z" stroke="black" stroke-width="1.5" stroke-linecap="round" stroke-linejoin="round"/>
<circle cx="4.17161" cy="4.17161" r="4.17161" transform="matrix(1 0 0 -1 7.82812 14.2778)" stroke="black" stroke-width="1.5" stroke-linecap="round" stroke-linejoin="round"/>
<circle cx="11.9995" cy="10.1062" r="1.25148" stroke="black" stroke-width="1.5" stroke-linecap="round" stroke-linejoin="round"/>
<path d="M8.32181 15.8232L7.06539 17.4992H6.46035C5.98179 17.4992 5.59299 17.8871 5.59299 18.3657V19.2575C5.5932 19.7359 5.98192 20.124 6.46035 20.124H17.5395C18.0179 20.124 18.4058 19.7359 18.406 19.2575V18.3657C18.406 17.8871 18.0181 17.4992 17.5395 17.4992H16.8786L15.6218 15.8232" stroke="black" stroke-width="1.5" stroke-linecap="round" stroke-linejoin="round"/>
<path d="M11.9995 14.2778L11.9995 11.4374" stroke="black" stroke-width="1.5" stroke-linecap="round" stroke-linejoin="round"/>
<path d="M11.9995 8.85474L11.9995 6.01426" stroke="black" stroke-width="1.5" stroke-linecap="round" stroke-linejoin="round"/>
<path d="M8.42383 12.2085L10.8838 10.7883" stroke="black" stroke-width="1.5" stroke-linecap="round" stroke-linejoin="round"/>
<path d="M13.1201 9.49683L15.58 8.07659" stroke="black" stroke-width="1.5" stroke-linecap="round" stroke-linejoin="round"/>
<path d="M8.42383 8.07666L10.8838 9.4969" stroke="black" stroke-width="1.5" stroke-linecap="round" stroke-linejoin="round"/>
<path d="M13.1201 10.7881L15.58 12.2083" stroke="black" stroke-width="1.5" stroke-linecap="round" stroke-linejoin="round"/>
</svg>
