<svg width="24" height="24" viewBox="0 0 24 24" fill="none" xmlns="http://www.w3.org/2000/svg">
<path d="M16 6V6.01" stroke="black" stroke-width="1.5" stroke-linecap="round" stroke-linejoin="round"/>
<path d="M8 18V18.01" stroke="black" stroke-width="1.5" stroke-linecap="round" stroke-linejoin="round"/>
<path d="M9.97656 9.99878L8.86768 11.3342C8.5529 11.712 8.55181 12.2604 8.86508 12.6394L11.2119 15.4789C11.6207 15.9734 12.3787 15.9734 12.7874 15.4789L13.9607 14.0591" stroke="black" stroke-width="1.5" stroke-linecap="round" stroke-linejoin="round"/>
<path d="M15.3678 11.9667C15.3631 11.7416 15.2842 11.5178 15.1313 11.3342L12.7846 8.51767C12.5812 8.2736 12.2925 8.15101 12.0034 8.1499" stroke="black" stroke-width="1.5" stroke-linecap="round" stroke-linejoin="round"/>
<path d="M18.7262 18.7089C18.2083 20.107 16.9827 21 15.279 21H8.71946C6.42573 21 5 19.3813 5 17.0906V6.90941C5 6.32279 5.09399 5.78025 5.27224 5.29767M19 14.7618V6.90941C19 4.6187 17.5728 3 15.2798 3H8.71946C8.29341 3 7.89698 3.05622 7.53392 3.16253" stroke="black" stroke-width="1.5" stroke-linecap="round" stroke-linejoin="round"/>
<path d="M3 3L21 21" stroke="black" stroke-width="1.5" stroke-linecap="round" stroke-linejoin="round"/>
</svg>
