<svg width="24" height="24" viewBox="0 0 24 24" fill="none" xmlns="http://www.w3.org/2000/svg">
<path d="M16 6V6.01" stroke="black" stroke-width="1.5" stroke-linecap="round" stroke-linejoin="round"/>
<path d="M8 18V18.01" stroke="black" stroke-width="1.5" stroke-linecap="round" stroke-linejoin="round"/>
<path d="M11.2144 8.51765C11.623 8.02731 12.3761 8.02732 12.7846 8.51768L15.1313 11.3342C15.4461 11.712 15.4472 12.2604 15.1339 12.6394L12.7872 15.4789C12.3785 15.9734 11.6206 15.9734 11.2118 15.4789L8.86496 12.6394C8.55169 12.2604 8.55278 11.712 8.86756 11.3342L11.2144 8.51765Z" stroke="black" stroke-width="1.5" stroke-linecap="round" stroke-linejoin="round"/>
<path d="M8.71946 3H15.2798C17.5728 3 19 4.6187 19 6.90941V17.0906C19 19.3813 17.5728 21 15.279 21H8.71946C6.42573 21 5 19.3813 5 17.0906V6.90941C5 4.6187 6.4333 3 8.71946 3Z" stroke="black" stroke-width="1.5" stroke-linecap="round" stroke-linejoin="round"/>
</svg>
