<svg width="24" height="24" viewBox="0 0 24 24" fill="none" xmlns="http://www.w3.org/2000/svg">
<path d="M16 6V6.01" stroke="black" stroke-width="1.5" stroke-linecap="round" stroke-linejoin="round"/>
<path d="M8 18V18.01" stroke="black" stroke-width="1.5" stroke-linecap="round" stroke-linejoin="round"/>
<path d="M10.5467 10.2741C10.5467 12.0478 13.7066 11.479 13.7066 13.4079C13.7066 15.4381 10.2933 15.4524 10.2933 13.4079C10.2933 11.5635 13.2907 11.9878 13.2907 10.2741C13.2907 8.65135 10.5467 8.67049 10.5467 10.2741Z" stroke="black" stroke-width="1.5" stroke-linecap="round" stroke-linejoin="round"/>
<path d="M8.71946 3H15.2798C17.5728 3 19 4.6187 19 6.90941V17.0906C19 19.3813 17.5728 21 15.279 21H8.71946C6.42573 21 5 19.3813 5 17.0906V6.90941C5 4.6187 6.4333 3 8.71946 3Z" stroke="black" stroke-width="1.5" stroke-linecap="round" stroke-linejoin="round"/>
</svg>
