<svg width="24" height="24" viewBox="0 0 24 24" fill="none" xmlns="http://www.w3.org/2000/svg">
<path d="M16 6V6.01" stroke="black" stroke-width="1.5" stroke-linecap="round" stroke-linejoin="round"/>
<path d="M8 18V18.01" stroke="black" stroke-width="1.5" stroke-linecap="round" stroke-linejoin="round"/>
<path d="M10.2568 13.9698C10.5694 14.5449 11.1836 14.9359 11.8902 14.9359C12.9136 14.9359 13.7432 14.1157 13.7432 13.1038C13.7432 12.092 12.9136 11.2717 11.8902 11.2717C11.4635 11.2717 10.9336 11.4236 10.6204 11.6632L11.1021 9.06417H13.4023" stroke="black" stroke-width="1.5" stroke-linecap="round" stroke-linejoin="round"/>
<path d="M8.71946 3H15.2798C17.5728 3 19 4.6187 19 6.90941V17.0906C19 19.3813 17.5728 21 15.279 21H8.71946C6.42573 21 5 19.3813 5 17.0906V6.90941C5 4.6187 6.4333 3 8.71946 3Z" stroke="black" stroke-width="1.5" stroke-linecap="round" stroke-linejoin="round"/>
</svg>
