<svg width="24" height="24" viewBox="0 0 24 24" fill="none" xmlns="http://www.w3.org/2000/svg">
<path d="M14.6089 18.3262C14.6089 19.803 13.4118 21.0002 11.935 21.0002C10.4583 21.0002 9.26111 19.803 9.26111 18.3262C9.26111 16.8495 10.4583 15.6523 11.935 15.6523C13.4118 15.6523 14.6089 16.8495 14.6089 18.3262Z" stroke="black" stroke-width="1.5" stroke-linecap="round" stroke-linejoin="round"/>
<path d="M8.34818 12.0653C8.34818 13.542 7.15103 14.7392 5.67427 14.7392C4.19751 14.7392 3.00037 13.542 3.00037 12.0653C3.00037 10.5885 4.19751 9.39136 5.67427 9.39136C7.15103 9.39136 8.34818 10.5885 8.34818 12.0653Z" stroke="black" stroke-width="1.5" stroke-linecap="round" stroke-linejoin="round"/>
<path d="M21 12.0653C21 13.542 19.8029 14.7392 18.3261 14.7392C16.8494 14.7392 15.6522 13.542 15.6522 12.0653C15.6522 10.5885 16.8494 9.39136 18.3261 9.39136C19.8029 9.39136 21 10.5885 21 12.0653Z" stroke="black" stroke-width="1.5" stroke-linecap="round" stroke-linejoin="round"/>
<circle cx="2.67391" cy="2.67391" r="2.67391" transform="matrix(4.37114e-08 1 1 -4.37114e-08 9.32617 3)" stroke="black" stroke-width="1.5" stroke-linecap="round" stroke-linejoin="round"/>
<path d="M12 5.67077V5.67716M12.3888 5.67391C12.3888 5.45921 12.2148 5.28516 12.0001 5.28516C11.7854 5.28516 11.6113 5.45921 11.6113 5.67391C11.6113 5.88861 11.7854 6.06266 12.0001 6.06266C12.2148 6.06266 12.3888 5.88861 12.3888 5.67391Z" stroke="black" stroke-width="1.5" stroke-linecap="round" stroke-linejoin="round"/>
</svg>
