<svg width="24" height="24" viewBox="0 0 24 24" fill="none" xmlns="http://www.w3.org/2000/svg">
<path d="M14.6089 18.3262C14.6089 16.8495 13.4118 15.6523 11.935 15.6523C10.4583 15.6523 9.26111 16.8495 9.26111 18.3262C9.26111 19.803 10.4583 21.0002 11.935 21.0002C13.4118 21.0002 14.6089 19.803 14.6089 18.3262Z" stroke="black" stroke-width="1.5" stroke-linecap="round" stroke-linejoin="round"/>
<path d="M14.6089 5.67391C14.6089 4.19715 13.4118 3 11.935 3C10.4583 3 9.26111 4.19715 9.26111 5.67391C9.26111 7.15066 10.4583 8.34781 11.935 8.34781C13.4118 8.34781 14.6089 7.15066 14.6089 5.67391Z" stroke="black" stroke-width="1.5" stroke-linecap="round" stroke-linejoin="round"/>
<path d="M8.34818 11.9349C8.34818 10.4581 7.15103 9.26099 5.67427 9.26099C4.19751 9.26099 3.00037 10.4581 3.00037 11.9349C3.00037 13.4116 4.19751 14.6088 5.67427 14.6088C7.15103 14.6088 8.34818 13.4116 8.34818 11.9349Z" stroke="black" stroke-width="1.5" stroke-linecap="round" stroke-linejoin="round"/>
<path d="M21 11.9349C21 10.4581 19.8029 9.26099 18.3261 9.26099C16.8494 9.26099 15.6522 10.4581 15.6522 11.9349C15.6522 13.4116 16.8494 14.6088 18.3261 14.6088C19.8029 14.6088 21 13.4116 21 11.9349Z" stroke="black" stroke-width="1.5" stroke-linecap="round" stroke-linejoin="round"/>
<path d="M11.9344 18.3231V18.3295M12.3233 18.3262C12.3233 18.1115 12.1492 17.9375 11.9345 17.9375C11.7198 17.9375 11.5458 18.1115 11.5458 18.3262C11.5458 18.541 11.7198 18.715 11.9345 18.715C12.1492 18.715 12.3233 18.541 12.3233 18.3262Z" stroke="black" stroke-width="1.5" stroke-linecap="round" stroke-linejoin="round"/>
</svg>
