<svg width="24" height="24" viewBox="0 0 24 24" fill="none" xmlns="http://www.w3.org/2000/svg">
<path d="M12.0005 17.1634L12.6952 17.8582L12.6951 18.7844L11.3057 18.7844L11.3058 17.8582L12.0005 17.1634Z" stroke="black" stroke-width="1.5" stroke-linecap="round" stroke-linejoin="round"/>
<path d="M13.874 12L16.6351 14.7611C16.8227 14.9487 17.077 15.054 17.3422 15.054H19.644C20.3928 15.054 20.9999 14.447 20.9999 13.6981V10.3019C20.9999 9.5531 20.3928 8.94605 19.644 8.94605L17.3422 8.94604C17.077 8.94604 16.8227 9.0514 16.6351 9.23894L13.874 12Z" stroke="black" stroke-width="1.5" stroke-linecap="round" stroke-linejoin="round"/>
<path d="M10.1259 12L7.36477 14.7611C7.17724 14.9487 6.92288 15.054 6.65766 15.054H4.3559C3.60706 15.054 3 14.447 3 13.6981V10.3019C3 9.5531 3.60705 8.94605 4.3559 8.94605L6.65766 8.94604C6.92288 8.94604 7.17723 9.0514 7.36477 9.23894L10.1259 12Z" stroke="black" stroke-width="1.5" stroke-linecap="round" stroke-linejoin="round"/>
<path d="M11.9997 10.126L9.23862 7.36488C9.05108 7.17734 8.94573 6.92299 8.94573 6.65777L8.94573 4.356C8.94573 3.60716 9.55278 3.00011 10.3016 3.00011L13.6978 3.00011C14.4467 3.00011 15.0537 3.60716 15.0537 4.356L15.0537 6.65777C15.0537 6.92299 14.9484 7.17734 14.7608 7.36488L11.9997 10.126Z" stroke="black" stroke-width="1.5" stroke-linecap="round" stroke-linejoin="round"/>
<path d="M11.9997 13.8741L9.23862 16.6352C9.05108 16.8228 8.94573 17.0771 8.94573 17.3423L8.94573 19.6441C8.94573 20.3929 9.55278 21 10.3016 21L13.6978 21C14.4467 21 15.0537 20.3929 15.0537 19.6441L15.0537 17.3423C15.0537 17.0771 14.9484 16.8228 14.7608 16.6352L11.9997 13.8741Z" stroke="black" stroke-width="1.5" stroke-linecap="round" stroke-linejoin="round"/>
</svg>
