<svg width="24" height="24" viewBox="0 0 24 24" fill="none" xmlns="http://www.w3.org/2000/svg">
<path d="M9.73645 9.49902V14.501H12.228" stroke="black" stroke-width="1.5" stroke-linecap="round" stroke-linejoin="round"/>
<path d="M14.2374 10.8402C14.2374 10.0999 14.8384 9.49902 15.5787 9.49902C16.319 9.49902 16.9199 10.0999 16.9199 10.8402C16.9199 11.234 16.8162 11.5093 16.6544 11.7863C16.3229 12.3536 15.7362 12.9019 15.2913 13.377L14.2384 14.5012H16.9199" stroke="black" stroke-width="1.5" stroke-linecap="round" stroke-linejoin="round"/>
<path d="M21 5.5C21 4.11929 19.8807 3 18.5 3H8.3125C6.93179 3 5.8125 4.11898 5.8125 5.49969C5.8125 7.09896 5.8125 9.13891 5.8125 10.5937C5.8125 15.9375 3 17.3437 3 19.3125C3 20.2445 3.75552 21 4.6875 21H14.25C17.9779 21 21 17.9779 21 14.25V5.5Z" stroke="black" stroke-width="1.5" stroke-linecap="round" stroke-linejoin="round"/>
</svg>
