<svg width="24" height="24" viewBox="0 0 24 24" fill="none" xmlns="http://www.w3.org/2000/svg">
<path d="M11.9933 13.1268C12.2799 13.3362 12.7574 13.7444 13.3791 13.7011C13.9419 13.6619 14.3993 13.2749 14.5746 12.7243C14.6872 12.3751 14.7021 11.99 14.597 11.6374C14.451 11.149 14.1536 10.7395 13.7761 10.4152L12.1745 8.99019C12.1252 8.94595 12.066 8.90484 11.9983 8.90454C11.9305 8.90417 11.871 8.9452 11.8215 8.98937L10.1537 10.4733C9.81592 10.7867 9.53932 11.1753 9.40329 11.6274C9.28858 12.0167 9.31398 12.4493 9.46197 12.8259C9.61284 13.2114 9.91266 13.5189 10.3001 13.6406C11.2348 13.9125 11.6259 13.3975 11.9933 13.1238M11.9961 13.1239V15.0955" stroke="black" stroke-width="1.5" stroke-linecap="round" stroke-linejoin="round"/>
<circle cx="12" cy="12" r="6" stroke="black" stroke-width="1.5" stroke-linecap="round" stroke-linejoin="round"/>
<circle cx="12" cy="12" r="9" stroke="black" stroke-width="1.5" stroke-linecap="round" stroke-linejoin="round"/>
<path d="M12 6L12 3" stroke="black" stroke-width="1.5" stroke-linecap="round" stroke-linejoin="round"/>
<path d="M12 21L12 18" stroke="black" stroke-width="1.5" stroke-linecap="round" stroke-linejoin="round"/>
<path d="M17.1988 8.99561L19.7969 7.49561" stroke="black" stroke-width="1.5" stroke-linecap="round" stroke-linejoin="round"/>
<path d="M4.20808 16.4956L6.80615 14.9956" stroke="black" stroke-width="1.5" stroke-linecap="round" stroke-linejoin="round"/>
<path d="M17.1988 14.9956L19.7969 16.4956" stroke="black" stroke-width="1.5" stroke-linecap="round" stroke-linejoin="round"/>
<path d="M4.20808 7.49561L6.80615 8.99561" stroke="black" stroke-width="1.5" stroke-linecap="round" stroke-linejoin="round"/>
</svg>
