<svg width="24" height="24" viewBox="0 0 24 24" fill="none" xmlns="http://www.w3.org/2000/svg">
<path d="M14.3145 18.6855C18.0068 18.6855 21 15.6924 21 12C20.9999 8.30771 18.0067 5.31454 14.3145 5.31445H9.68555C5.99326 5.31454 3.00009 8.30771 3 12C3 15.6924 5.99321 18.6855 9.68555 18.6855H14.3145Z" stroke="black" stroke-width="1.5" stroke-linecap="round" stroke-linejoin="round"/>
<path d="M13.9938 7.88599C15.9513 7.88608 17.5382 9.72798 17.5382 12.0001C17.5382 14.2723 15.9514 16.1141 13.9938 16.1142H10.0059C8.04836 16.1141 6.46149 14.2723 6.46149 12.0001C6.46156 9.72798 8.04841 7.88608 10.0059 7.88599H13.9938Z" stroke="black" stroke-width="1.5" stroke-linecap="round" stroke-linejoin="round"/>
<path d="M12 7.88599V5.32275" stroke="black" stroke-width="1.5" stroke-linecap="round" stroke-linejoin="round"/>
<path d="M12 18.6775V16.1143" stroke="black" stroke-width="1.5" stroke-linecap="round" stroke-linejoin="round"/>
<path d="M12 7.88599V5.32275" stroke="black" stroke-width="1.5" stroke-linecap="round" stroke-linejoin="round"/>
<path d="M15.4323 8.02619L16.0957 5.55029" stroke="black" stroke-width="1.5" stroke-linecap="round" stroke-linejoin="round"/>
<path d="M17.7129 9.62083L19.5254 7.80835" stroke="black" stroke-width="1.5" stroke-linecap="round" stroke-linejoin="round"/>
<path d="M12 18.6775V16.1143" stroke="black" stroke-width="1.5" stroke-linecap="round" stroke-linejoin="round"/>
<path d="M18.4368 11.9951L21 11.9951" stroke="black" stroke-width="1.5" stroke-linecap="round" stroke-linejoin="round"/>
<path d="M3.00806 11.9951L5.57129 11.9951" stroke="black" stroke-width="1.5" stroke-linecap="round" stroke-linejoin="round"/>
<path d="M15.4323 15.9638L16.0957 18.4397" stroke="black" stroke-width="1.5" stroke-linecap="round" stroke-linejoin="round"/>
<path d="M17.7129 14.3692L19.5254 16.1816" stroke="black" stroke-width="1.5" stroke-linecap="round" stroke-linejoin="round"/>
<path d="M8.65609 8.02619L7.99268 5.55029" stroke="black" stroke-width="1.5" stroke-linecap="round" stroke-linejoin="round"/>
<path d="M6.37547 9.54978L4.56299 7.7373" stroke="black" stroke-width="1.5" stroke-linecap="round" stroke-linejoin="round"/>
<path d="M8.65609 15.9638L7.99268 18.4397" stroke="black" stroke-width="1.5" stroke-linecap="round" stroke-linejoin="round"/>
<path d="M6.37547 14.43L4.56299 16.2424" stroke="black" stroke-width="1.5" stroke-linecap="round" stroke-linejoin="round"/>
</svg>
