<svg width="24" height="24" viewBox="0 0 24 24" fill="none" xmlns="http://www.w3.org/2000/svg">
<path d="M13.2909 14.0487C13.5702 14.3289 13.9565 14.5011 14.3826 14.5011C15.2349 14.5011 15.9258 13.8103 15.9258 12.959C15.9258 12.1067 15.2349 11.4159 14.3826 11.4159L15.6564 9.49902L13.2374 9.4991" stroke="black" stroke-width="1.5" stroke-linecap="round" stroke-linejoin="round"/>
<path d="M8.07434 14.503V12.369M8.07434 12.369V9.55163L9.75108 9.49683C10.5172 9.49683 11.1429 10.1091 11.1594 10.8751C11.1765 11.6648 10.541 12.3142 9.75107 12.3142L8.07434 12.369ZM9.79041 12.3496L11.0314 14.499" stroke="black" stroke-width="1.5" stroke-linecap="round" stroke-linejoin="round"/>
<path d="M21 11.5333C21 7.92507 18.2299 5 14.8127 5H5.65168C4.1872 5 3 6.2536 3 7.8V16.2C3 17.7464 4.1872 19 5.65168 19H18.3483C19.8128 19 21 17.7464 21 16.2V11.5333Z" stroke="black" stroke-width="1.5" stroke-linecap="round" stroke-linejoin="round"/>
</svg>
