<svg width="24" height="24" viewBox="0 0 24 24" fill="none" xmlns="http://www.w3.org/2000/svg">
<path d="M13.9077 5.30937L16.9007 3L15.747 7.402H8.03805L6.94302 3.17587L9.68158 5.30937L11.7952 3.05862L13.9077 5.30937Z" stroke="black" stroke-width="1.5" stroke-linecap="round" stroke-linejoin="round"/>
<path d="M12.0012 11.1199C11.5737 10.6412 11.0246 10.2717 10.4185 10.059C8.08104 9.2304 5.89687 10.8874 5.64983 13.2102C5.30396 16.7105 9.05102 18.8632 11.3886 20.7827C11.6518 21.0021 12.0363 21.0624 12.3533 20.931C12.5054 20.8733 12.6278 20.7637 12.7517 20.6619C15.1094 18.7297 18.8344 16.5087 18.3254 12.9832C17.9484 10.5206 15.3777 9.13792 13.1605 10.2366C12.7224 10.4536 12.3261 10.7547 12.0012 11.1199Z" stroke="black" stroke-width="1.5" stroke-linecap="round" stroke-linejoin="round"/>
</svg>
