<svg width="24" height="24" viewBox="0 0 24 24" fill="none" xmlns="http://www.w3.org/2000/svg">
<path d="M5.98779 12.1362H8.45045C7.92423 12.7211 7.02239 14.2575 6.87179 15.6129M10.7686 12.1362H13.2312C12.705 12.7211 11.8032 14.2575 11.6526 15.6129M15.5493 12.1362H18.012C17.4858 12.7211 16.5839 14.2575 16.4333 15.6129" stroke="black" stroke-width="1.5" stroke-linecap="round" stroke-linejoin="round"/>
<path d="M18.3838 9.37378H5.61617C2.32379 9.37378 1.93744 18.3738 5.61617 18.3738H18.3838C22.0626 18.3738 21.6762 9.37378 18.3838 9.37378Z" stroke="black" stroke-width="1.5" stroke-linecap="round" stroke-linejoin="round"/>
<path d="M6.96484 21.0278H17.0351" stroke="black" stroke-width="1.5" stroke-linecap="round" stroke-linejoin="round"/>
<path d="M8.19323 9.37378L6.91846 5.27143C7.90062 6.73202 10.292 8.231 12 4.72559C13.7081 8.231 16.0994 6.73202 17.0816 5.27143L15.8068 9.37378" stroke="black" stroke-width="1.5" stroke-linecap="round" stroke-linejoin="round"/>
<circle cx="11.9998" cy="3.84888" r="0.876709" stroke="black" stroke-width="1.5" stroke-linecap="round" stroke-linejoin="round"/>
</svg>
