<svg width="24" height="24" viewBox="0 0 24 24" fill="none" xmlns="http://www.w3.org/2000/svg">
<path d="M7.51369 5.69043H13.0934C15.0437 5.69043 16.2576 7.06718 16.2576 9.01549V17.6749C16.2576 19.6232 15.0437 20.9999 13.0928 20.9999H7.51369C5.56281 20.9999 4.35019 19.6232 4.35019 17.6749V9.01549C4.35019 7.06718 5.56925 5.69043 7.51369 5.69043Z" stroke="black" stroke-width="1.5" stroke-linecap="round" stroke-linejoin="round"/>
<path d="M8.00189 5.52128C8.50615 3.63937 10.04 2.62504 11.9182 3.1283L17.3078 4.57244C19.1916 5.0772 20.0078 6.72122 19.5035 8.60314L17.2623 16.9675C17.0556 17.7392 16.6765 18.3652 16.1713 18.8004" stroke="black" stroke-width="1.5" stroke-linecap="round" stroke-linejoin="round"/>
<path d="M10.2973 14.472C10.5839 14.6814 11.0614 15.0897 11.6831 15.0463C12.2459 15.0071 12.7032 14.6201 12.8786 14.0695C12.9912 13.7203 13.0061 13.3352 12.901 12.9826C12.755 12.4942 12.4576 12.0847 12.0801 11.7604L10.4785 10.3354C10.4291 10.2912 10.37 10.2501 10.3023 10.2498C10.2344 10.2494 10.175 10.2904 10.1255 10.3346L8.45772 11.8185C8.11991 12.1319 7.8433 12.5205 7.70727 12.9726C7.59257 13.3619 7.61796 13.7945 7.76596 14.1711C7.91682 14.5566 8.21665 14.8641 8.60413 14.9858C9.5388 15.2577 9.92987 14.7427 10.2973 14.4691M10.3001 14.4691V16.4407" stroke="black" stroke-width="1.5" stroke-linecap="round" stroke-linejoin="round"/>
</svg>
