<svg width="24" height="24" viewBox="0 0 24 24" fill="none" xmlns="http://www.w3.org/2000/svg">
<path d="M7.78216 3H16.2169C19.165 3 21 5.08119 21 8.02638V15.9736C21 18.9188 19.165 21 16.2159 21H7.78216C4.83308 21 3 18.9188 3 15.9736V8.02638C3 5.08119 4.84281 3 7.78216 3Z" stroke="black" stroke-width="1.5" stroke-linecap="round" stroke-linejoin="round"/>
<path fill-rule="evenodd" clip-rule="evenodd" d="M11.3054 14.3347C10.8601 14.6365 10.3022 14.8876 9.4061 14.6624C8.50501 14.4831 7.97252 13.5257 7.88037 12.6759C7.75733 11.5089 8.4537 10.5515 9.29353 9.8297L12.0018 7.5L14.7101 9.8297C15.4269 10.403 16.041 11.217 16.1227 12.1539C16.1436 12.3791 16.1332 12.6147 16.0973 12.8398C15.9593 13.6692 15.4418 14.4522 14.5975 14.6624C13.7064 14.8876 13.1534 14.642 12.7081 14.3451C12.6975 15.1343 13.1297 15.862 13.3976 16.2362C13.4729 16.3414 13.3981 16.5 13.2688 16.5H10.7387C10.6095 16.5 10.5347 16.342 10.6099 16.2369C10.8792 15.8605 11.3161 15.1259 11.3054 14.3347Z" stroke="black" stroke-width="1.5" stroke-linecap="round" stroke-linejoin="round"/>
</svg>
