<svg width="24" height="24" viewBox="0 0 24 24" fill="none" xmlns="http://www.w3.org/2000/svg">
<path d="M5.98779 14.3779H8.45045C7.92423 14.9628 7.02239 16.4992 6.87179 17.8546M10.7686 14.3779H13.2312C12.705 14.9628 11.8032 16.4992 11.6526 17.8546M15.5493 14.3779H18.012C17.4858 14.9628 16.5839 16.4992 16.4333 17.8546" stroke="black" stroke-width="1.5" stroke-linecap="round" stroke-linejoin="round"/>
<path d="M18.3838 11.6155H5.61617C2.32379 11.6155 1.93744 20.6155 5.61617 20.6155H18.3838C22.0626 20.6155 21.6762 11.6155 18.3838 11.6155Z" stroke="black" stroke-width="1.5" stroke-linecap="round" stroke-linejoin="round"/>
<path d="M6.32236 6.92833L5.87402 6.01562L5.42569 6.92833L4.40088 7.07243L5.14546 7.785L4.96933 8.78578L5.87402 8.30541L6.77872 8.78579L6.60258 7.785L7.34717 7.07244L6.32236 6.92833Z" stroke="black" stroke-width="1.5" stroke-linecap="round" stroke-linejoin="round"/>
<path d="M18.5748 6.92833L18.1265 6.01562L17.6781 6.92833L16.6533 7.07243L17.3979 7.785L17.2218 8.78578L18.1265 8.30541L19.0312 8.78579L18.855 7.785L19.5996 7.07244L18.5748 6.92833Z" stroke="black" stroke-width="1.5" stroke-linecap="round" stroke-linejoin="round"/>
<path d="M12.7057 4.81907L12.001 3.38452L11.2963 4.81906L9.68561 5.04556L10.8559 6.16553L10.5791 7.73852L12.001 6.98349L13.423 7.73853L13.1461 6.16554L14.3164 5.04557L12.7057 4.81907Z" stroke="black" stroke-width="1.5" stroke-linecap="round" stroke-linejoin="round"/>
</svg>
