<svg width="24" height="24" viewBox="0 0 24 24" fill="none" xmlns="http://www.w3.org/2000/svg">
<path fill-rule="evenodd" clip-rule="evenodd" d="M5.71665 3.25C5.91557 3.25 6.10633 3.32902 6.24698 3.46967L7.46364 4.68633C7.75654 4.97922 7.75654 5.45409 7.46364 5.74699C7.19113 6.0195 6.76109 6.03846 6.46665 5.80388V9.20184C6.76108 8.96726 7.19111 8.98622 7.46363 9.25872C7.75653 9.5516 7.75655 10.0265 7.46366 10.3194L6.247 11.5361C6.10635 11.6768 5.91558 11.7558 5.71665 11.7558C5.51773 11.7558 5.32696 11.6768 5.18631 11.5361L3.96965 10.3194C3.67677 10.0265 3.67678 9.5516 3.96969 9.25871C4.2422 8.98622 4.67223 8.96726 4.96665 9.20183V5.80389C4.67222 6.03846 4.24218 6.0195 3.96967 5.74699C3.67678 5.4541 3.67678 4.97922 3.96967 4.68633L5.18632 3.46967C5.32698 3.32902 5.51774 3.25 5.71665 3.25Z" fill="black"/>
<path fill-rule="evenodd" clip-rule="evenodd" d="M11.1482 4.19922C10.6853 4.19922 10.3101 4.57444 10.3101 5.0373V14.403C10.3101 15.4488 9.17787 16.1024 8.27227 15.5793L7.10805 14.9068C6.46273 14.5341 5.64116 14.8953 5.4795 15.6228C5.38931 16.0286 5.53481 16.4285 5.84 16.6612C6.7929 17.3877 8.35217 18.497 9.8149 19.1954C10.8673 19.6979 12.2879 19.8999 13.6705 19.7524C15.0605 19.6041 16.2922 19.1167 17.0379 18.3709C17.7107 17.6981 18.2735 16.6296 18.5566 15.4229C18.839 14.2191 18.8246 12.9564 18.4352 11.9053C18.1093 11.0256 17.3656 10.5534 16.282 10.2803C15.4632 10.074 14.5828 10.0101 13.7015 9.94613C13.3761 9.92252 13.0505 9.89889 12.7279 9.86808C12.3474 9.83175 12.0551 9.51514 12.0493 9.13299L11.9862 5.02443C11.9791 4.56664 11.606 4.19922 11.1482 4.19922ZM8.81009 5.0373C8.81009 3.74601 9.85689 2.69922 11.1482 2.69922C12.4255 2.69922 13.4664 3.72426 13.486 5.0014L13.5386 8.42893C13.5903 8.43269 13.6426 8.43647 13.6954 8.44029C14.6093 8.50628 15.6904 8.58435 16.6485 8.8258C17.9542 9.15485 19.269 9.83813 19.8418 11.3842L19.8418 11.3842C20.3568 12.7743 20.3496 14.3475 20.017 15.7655C19.685 17.1805 19.0105 18.5196 18.0985 19.4316C17.028 20.5022 15.4231 21.0739 13.8297 21.2439C12.2289 21.4147 10.5194 21.194 9.16857 20.549C7.56164 19.7817 5.90267 18.5952 4.93051 17.854C4.13508 17.2475 3.80516 16.2426 4.01521 15.2974C4.3967 13.5807 6.33546 12.7284 7.85828 13.6079L8.81009 14.1577V5.0373ZM9.0225 14.2804L9.0221 14.2802L9.0225 14.2804Z" fill="black"/>
</svg>
