<svg width="24" height="24" viewBox="0 0 24 24" fill="none" xmlns="http://www.w3.org/2000/svg">
<path fill-rule="evenodd" clip-rule="evenodd" d="M13.0339 2.87637C13.0502 2.87648 13.0663 2.87659 13.0823 2.87667C13.3011 2.87773 13.5649 2.88889 13.791 2.93538C14.7368 3.12977 15.527 3.81446 15.849 5.01246C16.1287 6.05284 16.0538 7.45696 15.5269 9.28758H16.045C17.0056 9.28757 17.7758 9.28757 18.3882 9.3411C19.0133 9.39573 19.5622 9.51143 20.0426 9.80007C20.8226 10.2688 21.3953 11.0165 21.6447 11.8917C21.7983 12.4306 21.7671 12.9907 21.6571 13.6084C21.5493 14.2137 21.3487 14.9573 21.0985 15.8847L20.6076 17.7049C20.5949 17.7521 20.5824 17.7985 20.5701 17.8444C20.3343 18.721 20.1614 19.3636 19.784 19.861C19.4383 20.3167 18.9761 20.6707 18.4461 20.8858C17.8676 21.1207 17.2021 21.1203 16.2944 21.1196C16.2469 21.1196 16.1988 21.1196 16.15 21.1196H11.8801C11.865 21.1196 11.85 21.1196 11.8353 21.1196C11.5369 21.1197 11.3168 21.1197 11.0971 21.0891C10.8946 21.0608 10.6953 21.0131 10.502 20.9466C10.2922 20.8745 10.096 20.7748 9.82984 20.6396C9.81674 20.633 9.80346 20.6262 9.79001 20.6194L7.32177 19.3663C6.95243 19.1788 6.80503 18.7274 6.99254 18.358C7.18005 17.9887 7.63147 17.8413 8.00081 18.0288L10.469 19.2819C10.7913 19.4455 10.8906 19.4941 10.9897 19.5282C11.0919 19.5633 11.1973 19.5885 11.3043 19.6034C11.4081 19.6179 11.5187 19.6196 11.8801 19.6196H16.15C17.2664 19.6196 17.6106 19.6061 17.8819 19.496C18.162 19.3823 18.4063 19.1952 18.5891 18.9543C18.766 18.7211 18.8686 18.3922 19.1594 17.3143L19.641 15.5285C19.9026 14.5588 20.0854 13.8784 20.1803 13.3454C20.2744 12.8172 20.2643 12.5207 20.2022 12.3028C20.0571 11.7936 19.7238 11.3585 19.2699 11.0858C19.0757 10.9691 18.792 10.8821 18.2576 10.8354C17.7182 10.7883 17.0138 10.7876 16.0094 10.7876H14.9543C14.9496 10.7876 14.9448 10.7876 14.9398 10.7876C14.8781 10.7876 14.7909 10.7877 14.7132 10.781C14.6273 10.7735 14.4563 10.7521 14.2828 10.6445C14.0714 10.5133 13.9206 10.3064 13.8605 10.0649C13.8108 9.86495 13.844 9.69393 13.863 9.61136C13.8805 9.53526 13.9075 9.45175 13.9268 9.39169C13.9284 9.3869 13.9299 9.38225 13.9313 9.37778C14.5698 7.39409 14.5989 6.13994 14.4005 5.40181C14.2171 4.71949 13.8472 4.47829 13.489 4.40466C13.4132 4.38908 13.2705 4.3776 13.0751 4.37665C12.9266 4.37593 12.8543 4.37604 12.7993 4.37987C12.76 4.38261 12.7493 4.38616 12.7417 4.38869C12.7138 4.39795 12.6615 4.42961 12.6405 4.45012L12.6392 4.4515C12.6384 4.45244 12.6365 4.45458 12.6336 4.45847C12.6275 4.46663 12.6167 4.48223 12.5994 4.5112C12.5608 4.57615 12.5149 4.66491 12.4333 4.82411C11.9951 5.67949 11.2476 7.07369 10.4527 8.26188C10.0571 8.8532 9.63221 9.42036 9.21224 9.84796C9.00232 10.0617 8.7752 10.2597 8.53602 10.4084C8.30303 10.5532 8.00266 10.6862 7.66129 10.6862C7.24708 10.6862 6.91129 10.3505 6.91129 9.93625C6.91129 9.52855 7.2366 9.19683 7.6418 9.1865C7.65269 9.18292 7.68583 9.17067 7.74407 9.13447C7.84621 9.07097 7.97986 8.96205 8.14207 8.79689C8.46636 8.46671 8.83113 7.98817 9.20597 7.42785C9.95192 6.31277 10.6681 4.9799 11.0984 4.14011C11.1084 4.12061 11.1184 4.10095 11.1284 4.08118C11.2517 3.83912 11.3835 3.58041 11.5939 3.37552C11.7775 3.1967 12.0257 3.04581 12.269 2.96511C12.5466 2.87303 12.8014 2.87478 13.0339 2.87637Z" fill="black"/>
<path fill-rule="evenodd" clip-rule="evenodd" d="M5.22762 7.96875H5.43378C5.80036 7.96874 6.11896 7.96873 6.38199 7.98986C6.66025 8.01222 6.94058 8.0618 7.21207 8.19745C7.63217 8.40736 7.97278 8.74798 8.1827 9.16808C8.31835 9.43957 8.36792 9.71989 8.39029 9.99816C8.41142 10.2612 8.41141 10.5798 8.4114 10.9464V18.1446C8.41141 18.5112 8.41142 18.8298 8.39029 19.0928C8.36792 19.3711 8.31835 19.6514 8.1827 19.9229C7.97278 20.343 7.63217 20.6836 7.21207 20.8935C6.94058 21.0292 6.66025 21.0788 6.38199 21.1011C6.11896 21.1223 5.80037 21.1223 5.43379 21.1222H5.2276C4.86103 21.1223 4.54243 21.1223 4.27941 21.1011C4.00115 21.0788 3.72082 21.0292 3.44933 20.8935C3.02923 20.6836 2.68861 20.343 2.4787 19.9229C2.34305 19.6514 2.29347 19.3711 2.27111 19.0928C2.24998 18.8298 2.24999 18.5112 2.25 18.1446V10.9464C2.24999 10.5798 2.24998 10.2612 2.27111 9.99816C2.29347 9.71989 2.34305 9.43957 2.4787 9.16808C2.68861 8.74798 3.02923 8.40736 3.44933 8.19745C3.72082 8.0618 4.00114 8.01222 4.27941 7.98986C4.54244 7.96873 4.86104 7.96874 5.22762 7.96875ZM4.39956 9.48504C4.21239 9.50008 4.14772 9.52531 4.1198 9.53927C3.99027 9.60399 3.88524 9.70901 3.82052 9.83855C3.80656 9.86647 3.78133 9.93114 3.76629 10.1183C3.75057 10.314 3.75 10.5717 3.75 10.9745V18.1165C3.75 18.5193 3.75057 18.777 3.76629 18.9727C3.78133 19.1598 3.80656 19.2245 3.82052 19.2524C3.88524 19.382 3.99027 19.487 4.1198 19.5517C4.14772 19.5657 4.21239 19.5909 4.39956 19.6059C4.59526 19.6217 4.85297 19.6222 5.25571 19.6222H5.40569C5.80843 19.6222 6.06613 19.6217 6.26184 19.6059C6.44901 19.5909 6.51367 19.5657 6.5416 19.5517C6.67113 19.487 6.77616 19.382 6.84088 19.2524C6.85483 19.2245 6.88006 19.1598 6.8951 18.9727C6.91083 18.777 6.9114 18.5193 6.9114 18.1165V10.9745C6.9114 10.5717 6.91083 10.314 6.8951 10.1183C6.88006 9.93114 6.85483 9.86647 6.84088 9.83855C6.77615 9.70901 6.67113 9.60399 6.5416 9.53927C6.51367 9.52531 6.44901 9.50008 6.26184 9.48504C6.06613 9.46932 5.80843 9.46875 5.40569 9.46875H5.25571C4.85297 9.46875 4.59527 9.46932 4.39956 9.48504Z" fill="black"/>
</svg>
