<svg width="24" height="24" viewBox="0 0 24 24" fill="none" xmlns="http://www.w3.org/2000/svg">
<path fill-rule="evenodd" clip-rule="evenodd" d="M11.3355 19.5424C12.6253 18.024 14.7691 15.6812 15.9349 14.4167C16.2614 14.0627 16.3439 13.9669 16.4003 13.8695C16.4621 13.7629 16.5059 13.6509 16.5327 13.5306C16.5573 13.4207 16.5615 13.2953 16.5615 12.8164V7.36251C16.5615 6.69888 16.5609 6.24551 16.5327 5.89436C16.5052 5.55175 16.4549 5.37186 16.391 5.24394C16.2346 4.93084 15.9807 4.67698 15.6676 4.52054C15.5397 4.45662 15.3598 4.4064 15.0172 4.37887C14.6661 4.35065 14.2127 4.35009 13.5491 4.35009H7.84983C6.73344 4.35009 6.38915 4.36352 6.11792 4.47364C5.83779 4.58737 5.59349 4.77451 5.41073 5.01536C5.23378 5.24856 5.13115 5.57748 4.84044 6.65534L4.35877 8.44115C4.09723 9.41087 3.91442 10.0912 3.81948 10.6243C3.72541 11.1524 3.7355 11.449 3.7976 11.6669C3.94274 12.1761 4.27599 12.6111 4.72986 12.8839C4.92408 13.0006 5.20776 13.0876 5.74215 13.1343C6.28155 13.1814 6.98603 13.1821 7.99042 13.1821H9.81071C9.99686 13.1821 10.4744 13.2008 10.7531 13.6194C10.8908 13.8261 10.9154 14.0423 10.9093 14.1982C10.9034 14.3491 10.8675 14.4866 10.8336 14.5919C10.1887 16.5957 10.0726 17.8837 10.2082 18.6544C10.274 19.0281 10.3928 19.2454 10.5052 19.3717C10.6128 19.4927 10.7499 19.5708 10.9347 19.6087C11.0534 19.6331 11.1234 19.6443 11.172 19.6483C11.1873 19.6496 11.1978 19.6499 11.2045 19.6499C11.2221 19.6393 11.2631 19.6108 11.3355 19.5424ZM11.5358 21.1143C11.1976 21.1899 10.8751 21.1278 10.6327 21.078C10.1655 20.982 9.72923 20.7562 9.38462 20.3689C9.04486 19.987 8.83256 19.4918 8.73094 18.9144C8.54974 17.8848 8.70225 16.4931 9.23612 14.6821H7.95481C6.99424 14.6821 6.22401 14.6821 5.61155 14.6286C4.98653 14.5739 4.43756 14.4582 3.95724 14.1696C3.17722 13.7009 2.60449 12.9532 2.35505 12.078C2.20145 11.5391 2.2327 10.9789 2.34272 10.3613C2.45053 9.75598 2.65111 9.01232 2.90125 8.08491L3.39219 6.26472C3.40489 6.21762 3.41739 6.17117 3.42971 6.12536C3.6655 5.24872 3.83837 4.60604 4.2158 4.10864C4.56154 3.653 5.0237 3.29898 5.55366 3.08382C6.13217 2.84894 6.79766 2.8494 7.70542 2.85002C7.75289 2.85006 7.80102 2.85009 7.84983 2.85009H13.5797C14.2051 2.85008 14.719 2.85007 15.1374 2.88369C15.5711 2.91854 15.9666 2.9931 16.3381 3.17872C16.9418 3.48036 17.4312 3.9698 17.7328 4.57347C17.9185 4.94495 17.993 5.3405 18.0279 5.77421C18.0615 6.19256 18.0615 6.70644 18.0615 7.33185L18.0615 12.8164C18.0615 12.839 18.0615 12.8614 18.0615 12.8835C18.0617 13.2636 18.0619 13.5655 17.9967 13.8576C17.9365 14.1271 17.8367 14.3824 17.6983 14.6214C17.5482 14.8804 17.3426 15.1031 17.0836 15.3838C17.0685 15.4001 17.0532 15.4167 17.0377 15.4335C15.8612 16.7095 13.7182 19.0521 12.4546 20.542C12.4392 20.5601 12.4229 20.5775 12.4059 20.5941C12.1709 20.8229 11.8993 21.0331 11.5358 21.1143ZM9.83651 14.683C9.8365 14.683 9.83595 14.6829 9.8349 14.6828L9.83651 14.683Z" fill="black"/>
<path fill-rule="evenodd" clip-rule="evenodd" d="M21 13.793C20.5858 13.793 20.25 13.4572 20.25 13.043V3.99432C20.25 3.58011 20.5858 3.24432 21 3.24432C21.4142 3.24432 21.75 3.58011 21.75 3.99432V13.043C21.75 13.4572 21.4142 13.793 21 13.793Z" fill="black"/>
</svg>
