<svg width="24" height="24" viewBox="0 0 24 24" fill="none" xmlns="http://www.w3.org/2000/svg">
<path fill-rule="evenodd" clip-rule="evenodd" d="M4.88865 9.24971C4.61697 9.22788 4.26364 9.22731 3.7334 9.22731C3.31918 9.22731 2.9834 8.89152 2.9834 8.47731C2.9834 8.0631 3.31918 7.72731 3.7334 7.72731C3.7433 7.72731 3.75318 7.72731 3.76302 7.72731C4.25588 7.7273 4.66987 7.72729 5.0088 7.75453C5.36303 7.78299 5.69967 7.84478 6.02003 8.00485C6.52985 8.25959 6.9432 8.67294 7.19794 9.18276C7.35802 9.50312 7.4198 9.83976 7.44826 10.194C7.4755 10.5329 7.47549 10.9469 7.47548 11.4398V17.5375C7.47549 18.0304 7.4755 18.4444 7.44826 18.7833C7.4198 19.1376 7.35802 19.4742 7.19794 19.7945C6.9432 20.3044 6.52985 20.7177 6.02003 20.9725C5.69967 21.1325 5.36303 21.1943 5.0088 21.2228C4.66988 21.25 4.25589 21.25 3.76304 21.25H3.7334C3.31919 21.25 2.9834 20.9142 2.9834 20.5C2.9834 20.0858 3.31919 19.75 3.7334 19.75C4.26364 19.75 4.61698 19.7494 4.88865 19.7276C5.15179 19.7065 5.27277 19.669 5.34956 19.6306C5.56881 19.5211 5.74657 19.3433 5.85612 19.1241C5.8945 19.0473 5.93194 18.9263 5.95308 18.6632C5.97492 18.3915 5.97548 18.0382 5.97548 17.5079V11.4694C5.97548 10.9391 5.97492 10.5858 5.95308 10.3141C5.93194 10.051 5.8945 9.93002 5.85612 9.85323C5.74657 9.63398 5.56881 9.45622 5.34956 9.34667C5.27277 9.30829 5.15179 9.27085 4.88865 9.24971Z" fill="black"/>
<path fill-rule="evenodd" clip-rule="evenodd" d="M11.6594 2.7985C11.7442 2.76643 11.8341 2.75 11.9247 2.75C13.0304 2.75 13.884 3.14003 14.4723 3.81387C15.0381 4.46199 15.2948 5.29924 15.3866 6.09919C15.4791 6.90588 15.4123 7.74146 15.27 8.46231C15.2242 8.69461 15.1691 8.92212 15.1061 9.13867H16.6081C17.6706 9.13867 18.5351 9.34485 19.2142 9.77087C19.9033 10.2031 20.3311 10.8175 20.5917 11.5005C20.8467 12.1688 20.9463 12.9135 20.9879 13.6449C21.021 14.227 21.0186 14.8424 21.0163 15.4351C21.0157 15.5846 21.0151 15.7327 21.0151 15.8784C21.0151 17.4679 20.5008 18.8138 19.5459 19.7637C18.5923 20.7122 17.2676 21.1977 15.7744 21.1977H11.1793C10.2624 21.1977 9.38836 20.9191 8.60932 20.5988C8.21715 20.4376 7.83321 20.2588 7.47295 20.0905L7.44369 20.0769C7.08877 19.9111 6.75895 19.7571 6.43946 19.6247C6.05679 19.4662 5.87509 19.0274 6.03362 18.6448C6.19216 18.2621 6.6309 18.0804 7.01357 18.2389C7.3644 18.3843 7.72107 18.5509 8.06601 18.712L8.10767 18.7315C8.47131 18.9013 8.82476 19.0656 9.17971 19.2115C9.89489 19.5056 10.554 19.6977 11.1793 19.6977H15.7744C16.9404 19.6977 17.8611 19.3238 18.4881 18.7002C19.1136 18.0779 19.5151 17.1392 19.5151 15.8784C19.5151 15.7185 19.5157 15.5609 19.5163 15.4055C19.5185 14.8182 19.5205 14.2621 19.4903 13.73C19.4522 13.0593 19.3647 12.4925 19.1902 12.0353C19.0214 11.5928 18.7773 11.2675 18.4171 11.0415C18.047 10.8093 17.4848 10.6387 16.6081 10.6387H13.9924C13.7211 10.6387 13.4709 10.4921 13.3382 10.2554C13.2055 10.0187 13.211 9.72883 13.3526 9.49735C13.4965 9.26202 13.6768 8.7881 13.7984 8.17185C13.9177 7.56741 13.9676 6.89076 13.8964 6.27017C13.8244 5.64284 13.6369 5.13775 13.3423 4.80035C13.089 4.51022 12.705 4.28335 12.0703 4.25337C12.0482 4.26466 12.0323 4.27419 12.0211 4.28169C12.0089 4.28983 12.0026 4.29532 11.9998 4.29787C11.9973 4.30027 11.9961 4.30174 11.9951 4.30304C11.9888 4.31142 11.9572 4.35669 11.9066 4.58419C11.0223 8.56069 8.65592 10.4819 6.72651 10.4819C6.3123 10.4819 5.97651 10.1461 5.97651 9.73185C5.97651 9.31764 6.3123 8.98185 6.72651 8.98185C7.65964 8.98185 9.63626 7.88338 10.4423 4.25858C10.5001 3.99882 10.5852 3.68115 10.7977 3.39952C11.0233 3.10057 11.3264 2.92446 11.6594 2.7985Z" fill="black"/>
</svg>
