<svg width="24" height="24" viewBox="0 0 24 24" fill="none" xmlns="http://www.w3.org/2000/svg">
<path d="M10.1514 13.3585H7.05147C6.48596 13.42 5.91392 13.3464 5.38246 13.1435C4.98725 12.9465 4.66707 12.626 4.47047 12.2306C4.26763 11.6991 4.19391 11.1271 4.25545 10.5615V7.59457C4.24532 7.38029 4.25978 7.16555 4.29848 6.95455C4.33807 6.77357 4.40556 6.59984 4.49849 6.43957C4.60756 6.26561 4.73639 6.10486 4.88246 5.96057C5.68246 5.09257 6.74646 3.92356 7.38246 3.17156C7.54087 2.98478 7.74949 2.84727 7.9836 2.77532C8.2177 2.70337 8.46747 2.69998 8.70344 2.76556C8.92401 2.80888 9.1327 2.89919 9.31526 3.03033C9.49782 3.16147 9.65001 3.33038 9.76149 3.52557C10.1329 4.38667 10.1614 5.35706 9.84144 6.23855H10.0715C10.8761 6.1357 11.6935 6.24822 12.4404 6.56457C12.9397 6.86485 13.3064 7.34339 13.4664 7.90356C13.5778 8.70356 13.4743 9.5188 13.1665 10.2656L12.9005 11.2486C12.8195 11.708 12.6474 12.1466 12.3945 12.5386C12.1703 12.8348 11.8704 13.0652 11.5264 13.2056C11.0829 13.3475 10.6154 13.3995 10.1514 13.3585ZM8.42848 4.26455C7.78048 5.01655 6.76148 6.13556 6.00648 6.95556C5.90648 7.06456 5.81244 7.16656 5.79744 7.19256C5.76176 7.32272 5.74759 7.45782 5.75545 7.59255V10.5596C5.73229 10.8939 5.75113 11.2299 5.81148 11.5596C5.86404 11.6633 5.94848 11.7474 6.05244 11.7996C6.3821 11.8602 6.71808 11.879 7.05244 11.8556H10.1525C10.4242 11.8729 10.697 11.8589 10.9655 11.8136C11.0605 11.7754 11.1435 11.7121 11.2055 11.6305C11.3197 11.383 11.4046 11.1229 11.4584 10.8556L11.7225 9.88256C11.9066 9.37817 12.0079 8.84732 12.0225 8.31057C11.9676 8.11659 11.8406 7.95094 11.6675 7.84756C11.1436 7.72504 10.6034 7.68723 10.0675 7.73556H9.07747C8.92783 7.74605 8.77797 7.71834 8.64198 7.65502C8.506 7.5917 8.38834 7.49483 8.30006 7.37356C8.21178 7.25228 8.15575 7.11056 8.13728 6.96169C8.11881 6.81283 8.13851 6.66172 8.19447 6.52255C8.72647 4.86655 8.50946 4.36357 8.46046 4.27957L8.42848 4.26455Z" fill="black"/>
<path d="M16.9458 21.2624H13.8459C13.3806 21.3042 12.9116 21.2522 12.4668 21.1094C12.1222 20.9693 11.8216 20.7389 11.5968 20.4424C11.3441 20.0496 11.1721 19.6104 11.0909 19.1504L10.8288 18.1814C10.5193 17.4305 10.4157 16.6107 10.5288 15.8064C10.6886 15.248 11.0537 14.7707 11.5509 14.4704C12.2989 14.1528 13.1178 14.0396 13.9239 14.1424H14.1538C13.8334 13.2606 13.8624 12.2896 14.2348 11.4284C14.3462 11.2331 14.4985 11.0642 14.6813 10.9334C14.8641 10.8025 15.0731 10.7128 15.2939 10.6704C15.5174 10.6059 15.7544 10.6047 15.9786 10.6668C16.2028 10.7289 16.4054 10.8521 16.5639 11.0224C17.3039 11.8884 18.4638 13.1594 19.0968 13.8454C19.2485 13.9966 19.3827 14.1643 19.4969 14.3454C19.5898 14.5053 19.6573 14.6787 19.6969 14.8594C19.7357 15.0701 19.7501 15.2845 19.7398 15.4984V18.4644C19.8017 19.0307 19.7276 19.6035 19.5238 20.1354C19.3268 20.5306 19.0063 20.8508 18.6109 21.0474C18.0807 21.2497 17.51 21.3234 16.9458 21.2624ZM13.9219 15.6424C13.3859 15.5941 12.8456 15.6326 12.3219 15.7564C12.1504 15.8603 12.0249 16.0254 11.9709 16.2184C11.985 16.7552 12.0863 17.2861 12.2709 17.7904L12.5339 18.7604C12.5884 19.0279 12.6733 19.2882 12.7868 19.5364C12.8495 19.6184 12.9331 19.682 13.0288 19.7204C13.297 19.7658 13.5695 19.7799 13.8409 19.7624H16.9408C17.2752 19.7861 17.6112 19.7672 17.9408 19.7064C18.0454 19.6553 18.1304 19.5714 18.1828 19.4674C18.2441 19.1379 18.2632 18.8018 18.2398 18.4674V15.5014C18.2398 15.3624 18.2398 15.2204 18.2328 15.1874C18.1731 15.0725 18.0955 14.9679 18.0028 14.8774C17.3818 14.2034 16.2838 13.0034 15.5688 12.1704L15.5259 12.1874C15.4769 12.2714 15.2588 12.7744 15.7918 14.4304C15.848 14.5696 15.8678 14.7207 15.8495 14.8696C15.8312 15.0185 15.7753 15.1603 15.6871 15.2817C15.5989 15.4031 15.4813 15.5001 15.3454 15.5635C15.2094 15.627 15.0595 15.6548 14.9098 15.6444L13.9219 15.6424Z" fill="black"/>
<path d="M3 13.1407C2.80109 13.1407 2.61032 13.0617 2.46967 12.9211C2.32901 12.7804 2.25 12.5897 2.25 12.3907V7.46875C2.25 7.26984 2.32901 7.07907 2.46967 6.93842C2.61032 6.79776 2.80109 6.71875 3 6.71875C3.19891 6.71875 3.38968 6.79776 3.53033 6.93842C3.67099 7.07907 3.75 7.26984 3.75 7.46875V12.3918C3.74973 12.5905 3.67059 12.781 3.52997 12.9214C3.38934 13.0619 3.19874 13.1407 3 13.1407Z" fill="black"/>
<path d="M21 21.0431C20.8011 21.0431 20.6103 20.9641 20.4697 20.8234C20.329 20.6828 20.25 20.492 20.25 20.2931V15.3711C20.25 15.1722 20.329 14.9814 20.4697 14.8408C20.6103 14.7001 20.8011 14.6211 21 14.6211C21.1989 14.6211 21.3897 14.7001 21.5303 14.8408C21.671 14.9814 21.75 15.1722 21.75 15.3711V20.2921C21.7501 20.3907 21.7308 20.4883 21.6932 20.5794C21.6555 20.6705 21.6004 20.7533 21.5307 20.8231C21.461 20.8928 21.3783 20.9481 21.2872 20.9859C21.1962 21.0237 21.0986 21.0431 21 21.0431Z" fill="black"/>
<path d="M19.0847 8.3014C18.9312 8.30155 18.7813 8.25461 18.6554 8.16688C18.5294 8.07915 18.4334 7.95487 18.3803 7.81083C18.3272 7.6668 18.3196 7.50994 18.3584 7.36143C18.3973 7.21293 18.4808 7.07995 18.5977 6.98042L19.6087 6.11741C19.76 5.98812 19.9565 5.92423 20.1549 5.9398C20.3533 5.95537 20.5374 6.04911 20.6667 6.20042C20.796 6.35173 20.8599 6.54818 20.8443 6.74659C20.8288 6.94501 20.735 7.12911 20.5837 7.2584L19.5717 8.12141C19.4362 8.23794 19.2634 8.30183 19.0847 8.3014Z" fill="black"/>
<path d="M3.99876 18.4655C3.84525 18.4656 3.69541 18.4187 3.56944 18.3309C3.44346 18.2432 3.34745 18.1189 3.29435 17.9749C3.24125 17.8309 3.23362 17.674 3.2725 17.5255C3.31138 17.377 3.39489 17.244 3.51176 17.1445L4.52274 16.2815C4.67405 16.1522 4.87053 16.0883 5.06895 16.1039C5.26736 16.1194 5.45144 16.2132 5.58073 16.3645C5.71002 16.5158 5.77397 16.7122 5.7584 16.9107C5.74284 17.1091 5.64909 17.2932 5.49778 17.4225L4.48576 18.2855C4.35026 18.4019 4.17742 18.4658 3.99876 18.4655Z" fill="black"/>
<path d="M16.577 6.47127C16.4571 6.47109 16.339 6.44218 16.2326 6.38695C16.1262 6.33172 16.0346 6.25177 15.9654 6.15382C15.8963 6.05588 15.8516 5.94278 15.8352 5.82402C15.8188 5.70526 15.8311 5.5843 15.871 5.47127L16.319 4.21925C16.3893 4.03641 16.5283 3.88832 16.7063 3.80663C16.8843 3.72493 17.0872 3.71613 17.2717 3.78209C17.4561 3.84805 17.6074 3.98356 17.6932 4.15962C17.7791 4.33569 17.7926 4.53833 17.731 4.72426L17.283 5.97627C17.2307 6.12147 17.1348 6.24695 17.0084 6.33556C16.882 6.42416 16.7314 6.47155 16.577 6.47127Z" fill="black"/>
<path d="M7.07431 20.6815C6.98835 20.6821 6.90298 20.6672 6.8223 20.6375C6.72946 20.6046 6.64407 20.5537 6.57096 20.4876C6.49785 20.4216 6.43852 20.3418 6.39634 20.2528C6.35415 20.1638 6.32991 20.0673 6.32511 19.9689C6.32031 19.8706 6.335 19.7722 6.36832 19.6795L6.81534 18.4285C6.84739 18.3348 6.89768 18.2484 6.96335 18.1742C7.02902 18.1001 7.10875 18.0397 7.19791 17.9966C7.28707 17.9535 7.38393 17.9285 7.48282 17.923C7.58171 17.9176 7.68066 17.9318 7.77402 17.9648C7.86738 17.9979 7.95328 18.0491 8.02671 18.1156C8.10013 18.1821 8.1596 18.2624 8.20176 18.3521C8.24391 18.4417 8.26793 18.5388 8.27231 18.6377C8.2767 18.7367 8.26139 18.8355 8.22733 18.9285L7.78031 20.1805C7.72896 20.3268 7.63351 20.4536 7.50705 20.5433C7.3806 20.633 7.22938 20.6813 7.07431 20.6815Z" fill="black"/>
</svg>
