<svg width="24" height="24" viewBox="0 0 24 24" fill="none" xmlns="http://www.w3.org/2000/svg">
<path fill-rule="evenodd" clip-rule="evenodd" d="M12.5611 4.11101C12.0891 4.11101 11.7065 4.49362 11.7065 4.96559V14.4286C11.7065 15.4793 10.569 16.1359 9.6592 15.6104L8.48288 14.9309C7.8263 14.5517 6.99038 14.9192 6.8259 15.6593C6.73416 16.0722 6.88213 16.4794 7.19303 16.7165C8.15594 17.4506 9.73193 18.5718 11.2106 19.2778C12.2755 19.7863 13.7123 19.9905 15.1105 19.8413C16.5159 19.6914 17.7623 19.1984 18.5175 18.4433C19.1986 17.7622 19.7678 16.6812 20.0541 15.4609C20.3397 14.2435 20.3252 12.9661 19.9311 11.9022C19.6006 11.01 18.8462 10.5318 17.7501 10.2555C16.9221 10.0469 16.0316 9.98224 15.1409 9.9176C14.8122 9.89375 14.4835 9.8699 14.1579 9.83881C13.7775 9.80247 13.4852 9.48586 13.4793 9.10372L13.4156 4.95247C13.4084 4.48567 13.0279 4.11101 12.5611 4.11101ZM10.2065 4.96559C10.2065 3.66519 11.2607 2.61101 12.5611 2.61101C13.8474 2.61101 14.8956 3.64328 14.9154 4.92943L14.9687 8.39972C15.0234 8.40371 15.0788 8.40771 15.1348 8.41176C16.0581 8.47843 17.1494 8.55724 18.1167 8.80101C19.4348 9.13319 20.7603 9.82248 21.3377 11.3811L21.3377 11.3811C21.8574 12.784 21.8503 14.3719 21.5145 15.8035C21.1793 17.2321 20.4983 18.5838 19.5782 19.5039C18.4982 20.5839 16.8785 21.1612 15.2696 21.3329C13.6534 21.5053 11.9276 21.2824 10.5643 20.6315C8.94139 19.8566 7.26571 18.6581 6.28355 17.9093C5.4824 17.2984 5.15 16.2862 5.36162 15.3339C5.74593 13.6045 7.69903 12.746 9.23311 13.632L10.2065 14.1943V4.96559Z" fill="black"/>
<path fill-rule="evenodd" clip-rule="evenodd" d="M6.41406 4.64062C6.82828 4.64062 7.16406 4.97641 7.16406 5.39062V6.59202H8.36546C8.77967 6.59202 9.11546 6.92781 9.11546 7.34202C9.11546 7.75623 8.77967 8.09202 8.36546 8.09202H6.41406C5.99985 8.09202 5.66406 7.75623 5.66406 7.34202V5.39062C5.66406 4.97641 5.99985 4.64062 6.41406 4.64062Z" fill="black"/>
<path fill-rule="evenodd" clip-rule="evenodd" d="M2.25 8.80859C2.25 8.39438 2.58579 8.05859 3 8.05859H4.9514C5.36561 8.05859 5.7014 8.39438 5.7014 8.80859V10.76C5.7014 11.1742 5.36561 11.51 4.9514 11.51C4.53718 11.51 4.2014 11.1742 4.2014 10.76V9.55859H3C2.58579 9.55859 2.25 9.22281 2.25 8.80859Z" fill="black"/>
<path fill-rule="evenodd" clip-rule="evenodd" d="M5.48173 8.27826C5.77462 8.57116 5.77462 9.04603 5.48173 9.33892L3.53033 11.2903C3.23744 11.5832 2.76256 11.5832 2.46967 11.2903C2.17678 10.9974 2.17678 10.5226 2.46967 10.2297L4.42107 8.27826C4.71396 7.98537 5.18883 7.98537 5.48173 8.27826Z" fill="black"/>
<path fill-rule="evenodd" clip-rule="evenodd" d="M8.89579 4.8603C9.18868 5.15319 9.18868 5.62806 8.89579 5.92096L6.94439 7.87235C6.6515 8.16524 6.17663 8.16524 5.88373 7.87235C5.59084 7.57946 5.59084 7.10458 5.88373 6.81169L7.83513 4.86029C8.12802 4.5674 8.6029 4.5674 8.89579 4.8603Z" fill="black"/>
<path fill-rule="evenodd" clip-rule="evenodd" d="M12.5824 4.15625C12.1151 4.15625 11.7362 4.5351 11.7362 5.00243V14.4159C11.7362 15.4641 10.6014 16.1191 9.69375 15.5949L8.52359 14.919C7.87275 14.5431 7.04413 14.9073 6.88109 15.641C6.79014 16.0503 6.93685 16.4538 7.24484 16.6886C8.20265 17.4189 9.77013 18.534 11.2407 19.2362C12.2992 19.7416 13.7278 19.9447 15.118 19.7964C16.5156 19.6473 17.7545 19.1571 18.5048 18.4068C19.1818 17.7298 19.7477 16.6553 20.0324 15.4418C20.3163 14.2314 20.3019 12.9615 19.9102 11.9041C19.582 11.0183 18.8331 10.5431 17.7433 10.2685C16.92 10.061 16.0347 9.99674 15.1487 9.93245C14.8217 9.90872 14.4946 9.88498 14.1705 9.85403C13.7901 9.8177 13.4978 9.50109 13.4919 9.11895L13.4285 4.98944C13.4214 4.52722 13.0447 4.15625 12.5824 4.15625ZM10.2362 5.00243C10.2362 3.70667 11.2866 2.65625 12.5824 2.65625C13.8641 2.65625 14.9086 3.68484 14.9283 4.9664L14.9813 8.41492C15.0344 8.41879 15.0883 8.42268 15.1427 8.42661C16.0611 8.49293 17.1473 8.57136 18.1099 8.81396C19.4217 9.14454 20.7417 9.83077 21.3167 11.383L21.3167 11.383C21.834 12.7794 21.8269 14.3598 21.4927 15.7844C21.1592 17.2061 20.4815 18.5514 19.5655 19.4674C18.4903 20.5426 16.8782 21.1171 15.2772 21.2879C13.6688 21.4595 11.9513 21.2377 10.5944 20.5898C8.9796 19.8188 7.31242 18.6264 6.33536 17.8815C5.53712 17.2728 5.20598 16.2643 5.41681 15.3156C5.79968 13.5927 7.74548 12.7373 9.27382 13.6201L10.2362 14.176V5.00243Z" fill="black"/>
<path fill-rule="evenodd" clip-rule="evenodd" d="M6.44238 4.62891C6.8566 4.62891 7.19238 4.96469 7.19238 5.37891V6.60973H8.38431C8.79852 6.60973 9.13431 6.94551 9.13431 7.35973C9.13431 7.77394 8.79852 8.10973 8.38431 8.10973H6.44238C6.02817 8.10973 5.69238 7.77394 5.69238 7.35973V5.37891C5.69238 4.96469 6.02817 4.62891 6.44238 4.62891Z" fill="black"/>
<path fill-rule="evenodd" clip-rule="evenodd" d="M4.96387 11.5156C4.54965 11.5156 4.21387 11.1798 4.21387 10.7656L4.21387 9.53481L3.02194 9.53481C2.60773 9.53481 2.27194 9.19902 2.27194 8.78481C2.27194 8.37059 2.60773 8.03481 3.02194 8.03481L4.96387 8.03481C5.37808 8.03481 5.71387 8.37059 5.71387 8.78481L5.71387 10.7656C5.71387 11.1798 5.37808 11.5156 4.96387 11.5156Z" fill="black"/>
<path fill-rule="evenodd" clip-rule="evenodd" d="M8.90935 4.84334C9.20514 5.13332 9.20984 5.60817 8.91987 5.90395L6.97795 7.88477C6.68797 8.18055 6.21312 8.18526 5.91734 7.89529C5.62155 7.60531 5.61685 7.13046 5.90682 6.83468L7.84874 4.85386C8.13872 4.55808 8.61357 4.55337 8.90935 4.84334Z" fill="black"/>
<path fill-rule="evenodd" clip-rule="evenodd" d="M2.4969 11.3012C2.20111 11.0112 2.19641 10.5364 2.48638 10.2406L4.42831 8.25976C4.71828 7.96398 5.19313 7.95927 5.48891 8.24924C5.7847 8.53922 5.7894 9.01407 5.49943 9.30985L3.55751 11.2907C3.26753 11.5865 2.79268 11.5912 2.4969 11.3012Z" fill="black"/>
</svg>
