<svg width="24" height="24" viewBox="0 0 24 24" fill="none" xmlns="http://www.w3.org/2000/svg">
<path d="M7.78216 3H16.2169C19.165 3 21 5.08119 21 8.02638V15.9736C21 18.9188 19.165 21 16.2159 21H7.78216C4.83405 21 3 18.9188 3 15.9736V8.02638C3 5.08119 4.84281 3 7.78216 3Z" stroke="black" stroke-width="1.5" stroke-linecap="round" stroke-linejoin="round"/>
<path fill-rule="evenodd" clip-rule="evenodd" d="M9.01007 16.8014C8.03125 16.8014 7.23828 16.0045 7.23828 15.0296C7.23828 14.0547 8.03125 13.2578 9.01007 13.2578C9.98888 13.2578 10.7818 14.0547 10.7818 15.0296C10.7818 16.0045 9.98888 16.8014 9.01007 16.8014Z" stroke="black" stroke-width="1.5" stroke-linecap="round" stroke-linejoin="round"/>
<path d="M8.76953 9.00533V8.95377M8.72401 8.80078C8.60001 8.80078 8.49901 8.90178 8.50001 9.02578C8.50001 9.14978 8.60101 9.25078 8.72501 9.25078C8.84901 9.25078 8.95001 9.14978 8.95001 9.02578C8.95001 8.90078 8.84901 8.80078 8.72401 8.80078Z" stroke="black" stroke-width="1.5" stroke-linecap="round" stroke-linejoin="round"/>
<path d="M15.2307 9.00533V8.95377M15.224 8.80078C15.1 8.80078 14.999 8.90178 15 9.02578C15 9.14978 15.101 9.25078 15.225 9.25078C15.349 9.25078 15.45 9.14978 15.45 9.02578C15.45 8.90078 15.349 8.80078 15.224 8.80078Z" stroke="black" stroke-width="1.5" stroke-linecap="round" stroke-linejoin="round"/>
</svg>