<svg width="24" height="24" viewBox="0 0 24 24" fill="none" xmlns="http://www.w3.org/2000/svg">
<path d="M7.78216 3H16.2169C19.165 3 21 5.08119 21 8.02638V15.9736C21 18.9188 19.165 21 16.2159 21H7.78216C4.83405 21 3 18.9188 3 15.9736V8.02638C3 5.08119 4.84281 3 7.78216 3Z" stroke="black" stroke-width="1.5" stroke-linecap="round" stroke-linejoin="round"/>
<path d="M9.10352 14.3516C9.82352 15.2885 10.8841 15.8733 12.0614 15.8733" stroke="black" stroke-width="1.5" stroke-linecap="round" stroke-linejoin="round"/>
<path d="M13.6914 9.41096C13.9629 9.0568 14.3637 8.83594 14.8084 8.83594C15.253 8.83594 15.6539 9.0568 15.9254 9.41096" stroke="black" stroke-width="1.5" stroke-linecap="round" stroke-linejoin="round"/>
<path d="M8.07422 9.41096C8.34568 9.0568 8.74654 8.83594 9.19119 8.83594C9.63584 8.83594 10.0367 9.0568 10.3082 9.41096" stroke="black" stroke-width="1.5" stroke-linecap="round" stroke-linejoin="round"/>
</svg>