<svg width="24" height="24" viewBox="0 0 24 24" fill="none" xmlns="http://www.w3.org/2000/svg">
<path d="M12 21C16.9709 21 21 16.9699 21 12C21 7.02908 16.9709 3 12 3C7.02908 3 3 7.02908 3 12C3 16.9699 7.02908 21 12 21Z" stroke="black" stroke-width="1.5" stroke-linecap="round" stroke-linejoin="round"/>
<path d="M9.12012 14.2891C9.82163 15.2017 10.854 15.7709 12.0001 15.7709" stroke="black" stroke-width="1.5" stroke-linecap="round" stroke-linejoin="round"/>
<path d="M8.11719 9.25C8.38184 9.59443 8.772 9.80946 9.20497 9.80946C9.63794 9.80946 10.0281 9.59443 10.2928 9.25" stroke="black" stroke-width="1.5" stroke-linecap="round" stroke-linejoin="round"/>
<path d="M13.5859 9.25C13.8506 9.59443 14.2407 9.80946 14.6737 9.80946C15.1067 9.80946 15.4969 9.59443 15.7615 9.25" stroke="black" stroke-width="1.5" stroke-linecap="round" stroke-linejoin="round"/>
</svg>