<svg width="24" height="24" viewBox="0 0 24 24" fill="none" xmlns="http://www.w3.org/2000/svg">
<path d="M7.78216 3H16.2169C19.165 3 21 5.08119 21 8.02638V15.9736C21 18.9188 19.165 21 16.2159 21H7.78216C4.83405 21 3 18.9188 3 15.9736V8.02638C3 5.08119 4.84281 3 7.78216 3Z" stroke="black" stroke-width="1.5" stroke-linecap="round" stroke-linejoin="round"/>
<path d="M8.76953 9.50533V9.45377M8.72401 9.30078C8.60001 9.30078 8.49901 9.40178 8.50001 9.52578C8.50001 9.64978 8.60101 9.75078 8.72501 9.75078C8.84901 9.75078 8.95001 9.64978 8.95001 9.52578C8.95001 9.40078 8.84901 9.30078 8.72401 9.30078Z" stroke="black" stroke-width="1.5" stroke-linecap="round" stroke-linejoin="round"/>
<path d="M15.2307 9.50533V9.45377M15.224 9.30078C15.1 9.30078 14.999 9.40178 15 9.52578C15 9.64978 15.101 9.75078 15.225 9.75078C15.349 9.75078 15.45 9.64978 15.45 9.52578C15.45 9.40078 15.349 9.30078 15.224 9.30078Z" stroke="black" stroke-width="1.5" stroke-linecap="round" stroke-linejoin="round"/>
<path d="M9.04199 15.4163C9.76199 14.4793 10.8225 13.8945 11.9998 13.8945C13.1771 13.8945 14.2377 14.4793 14.9577 15.4163" stroke="black" stroke-width="1.5" stroke-linecap="round" stroke-linejoin="round"/>
</svg>