<svg width="24" height="24" viewBox="0 0 24 24" fill="none" xmlns="http://www.w3.org/2000/svg">
<path d="M12 21C16.9709 21 21 16.9699 21 12C21 7.02908 16.9709 3 12 3C7.02908 3 3 7.02908 3 12C3 16.9699 7.02908 21 12 21Z" stroke="black" stroke-width="1.5" stroke-linecap="round" stroke-linejoin="round"/>
<path d="M9.12012 15.3256C9.82163 14.4129 10.854 13.8438 12.0001 13.8438C13.1463 13.8438 14.1786 14.4129 14.8801 15.3256" stroke="black" stroke-width="1.5" stroke-linecap="round" stroke-linejoin="round"/>
<path d="M8.11719 10.25C8.38184 10.5944 8.772 10.8095 9.20497 10.8095C9.63794 10.8095 10.0281 10.5944 10.2928 10.25" stroke="black" stroke-width="1.5" stroke-linecap="round" stroke-linejoin="round"/>
<path d="M13.5859 10.25C13.8506 10.5944 14.2407 10.8095 14.6737 10.8095C15.1067 10.8095 15.4969 10.5944 15.7615 10.25" stroke="black" stroke-width="1.5" stroke-linecap="round" stroke-linejoin="round"/>
</svg>