<svg width="24" height="24" viewBox="0 0 24 24" fill="none" xmlns="http://www.w3.org/2000/svg">
<path d="M11.3781 9.01078C15.4248 9.01078 18.7053 7.68741 18.7053 6.05495C18.7053 4.42249 15.4248 3.09912 11.3781 3.09912C7.33131 3.09912 4.05078 4.42249 4.05078 6.05495C4.05078 7.68741 7.33131 9.01078 11.3781 9.01078Z" stroke="black" stroke-width="1.5"/>
<path d="M4.05078 6.18225V17.7292C4.05078 17.7292 4.05078 20.6551 11.4428 20.6551" stroke="black" stroke-width="1.5" stroke-linecap="round" stroke-linejoin="round"/>
<path d="M18.7058 11.0453V6.0249" stroke="black" stroke-width="1.5" stroke-linecap="round" stroke-linejoin="round"/>
<path opacity="0.4" d="M4.05078 11.8767C4.05078 11.8767 4.05078 14.6037 10.7024 14.7927" stroke="black" stroke-width="1.5" stroke-linecap="round" stroke-linejoin="round"/>
<path opacity="0.4" fill-rule="evenodd" clip-rule="evenodd" d="M16.9377 20.9008C16.9377 20.9008 19.925 19.9962 19.925 17.5018C19.925 15.0085 20.0339 15.0876 19.7934 14.8461C19.5538 14.6046 17.3297 13.8306 16.9377 13.8306C16.5458 13.8306 14.3207 14.6066 14.0811 14.8461C13.8416 15.0857 13.9505 15.0075 13.9505 17.5018C13.9505 19.9962 16.9377 20.9008 16.9377 20.9008Z" stroke="black" stroke-width="1.5" stroke-linecap="round" stroke-linejoin="round"/>
</svg>
