<svg width="25" height="24" viewBox="0 0 25 24" fill="none" xmlns="http://www.w3.org/2000/svg">
<g opacity="0.4">
<path d="M15.0763 16.5774C15.0973 16.6194 15.1183 16.6614 15.1393 16.6924C15.7573 17.8764 15.5683 19.3534 14.5843 20.3384C13.3683 21.5534 11.3883 21.5534 10.1733 20.3384C9.21025 19.3644 9.02125 17.9084 9.59725 16.7444C9.63925 16.6614 9.68125 16.5774 9.73325 16.5044" stroke="black" stroke-width="1.5" stroke-linecap="round" stroke-linejoin="round"/>
<path d="M9.73176 16.5043C9.68976 16.5873 9.64776 16.6713 9.59576 16.7453C8.91476 17.8663 7.56376 18.4523 6.23276 18.1383C4.55676 17.7403 3.52976 16.0643 3.92876 14.3983C4.26376 12.9633 5.53076 12.0103 6.93476 12.0103H6.94576" stroke="black" stroke-width="1.5" stroke-linecap="round" stroke-linejoin="round"/>
<path d="M17.8202 12.0103H17.8302C19.2342 12.0103 20.5022 12.9633 20.8372 14.3983C21.2352 16.0643 20.2082 17.7403 18.5432 18.1383C17.1812 18.4633 15.8192 17.8453 15.1382 16.7033C15.1172 16.6723 15.0962 16.6303 15.0752 16.5883" stroke="black" stroke-width="1.5" stroke-linecap="round" stroke-linejoin="round"/>
<path d="M17.8194 11.9895H17.8294C19.2334 11.9895 20.5014 11.0365 20.8364 9.60049C21.2344 7.93549 20.2074 6.25949 18.5424 5.86149C17.1804 5.53649 15.7874 6.21749 15.1064 7.35949C15.1064 7.35949 15.1274 7.31749 15.1064 7.35949C15.1274 7.31749 15.0854 7.39049 15.1064 7.35949C15.7244 6.17549 15.5674 4.64649 14.5824 3.66149C13.3674 2.44649 11.3874 2.44649 10.1724 3.66149C9.20839 4.63549 9.01939 6.09149 9.59639 7.25449L9.73239 7.49549C9.69039 7.41149 9.64839 7.32749 9.59639 7.25449C8.91539 6.13349 7.56339 5.54749 6.23339 5.86149C4.55739 6.25949 3.53039 7.93549 3.92839 9.60049C4.26339 11.0365 5.53139 11.9895 6.93539 11.9895H6.94539" stroke="black" stroke-width="1.5" stroke-linecap="round" stroke-linejoin="round"/>
</g>
<path fill-rule="evenodd" clip-rule="evenodd" d="M14.1133 11.9993C14.1133 11.0443 13.3383 10.2693 12.3833 10.2693C11.4273 10.2693 10.6533 11.0443 10.6533 11.9993C10.6533 12.9553 11.4273 13.7293 12.3833 13.7293C13.3383 13.7293 14.1133 12.9553 14.1133 11.9993Z" stroke="black" stroke-width="1.5" stroke-linecap="round" stroke-linejoin="round"/>
</svg>