<svg width="25" height="24" viewBox="0 0 25 24" fill="none" xmlns="http://www.w3.org/2000/svg">
<path opacity="0.4" d="M12.9582 10.2029C17.4993 10.3459 20.7064 7.60098 20.359 3.03456C19.5582 2.96936 18.7467 2.99077 17.9576 3.14743C15.6155 3.61059 13.6364 5.42918 13.1985 7.74596C12.8424 9.63267 12.8823 10.6534 12.8823 12.5819C12.8823 10.6534 12.9622 9.64337 12.5661 7.74596C12.0835 5.43794 10.1491 3.61059 7.80705 3.14743C7.01792 2.99077 6.20641 2.96936 5.40561 3.03456C5.05824 7.60098 8.26534 10.3459 12.8065 10.2029" stroke="black" stroke-width="1.5" stroke-linecap="round" stroke-linejoin="round"/>
<path d="M7.2235 19.373L6.67082 14.6344C6.54336 13.5407 7.39768 12.5813 8.49817 12.5813H17.2661C18.3666 12.5813 19.221 13.5407 19.0935 14.6344L18.5418 19.373C18.4338 20.3013 17.6476 21 16.7144 21H9.05085C8.11675 21 7.33151 20.3013 7.2235 19.373Z" stroke="black" stroke-width="1.5" stroke-linecap="round" stroke-linejoin="round"/>
<path d="M10.1465 16.4562H18.8823" stroke="black" stroke-width="1.5" stroke-linecap="round" stroke-linejoin="round"/>
</svg>