<svg width="25" height="24" viewBox="0 0 25 24" fill="none" xmlns="http://www.w3.org/2000/svg">
<path opacity="0.4" d="M9.50043 5.99968V12.0224C8.29297 12.935 7.5 14.3692 7.5 15.9999C7.5 18.7612 9.73881 21 12.5001 21C15.2614 21 17.5002 18.7612 17.5002 15.9999C17.5002 14.3692 16.7082 12.935 15.5008 12.0224V5.99968C15.5008 4.3427 14.1571 3 12.5001 3C10.8431 3 9.50043 4.3427 9.50043 5.99968Z" stroke="black" stroke-width="1.5" stroke-linecap="round" stroke-linejoin="round"/>
<path fill-rule="evenodd" clip-rule="evenodd" d="M13.9725 15.9998C13.9725 16.8132 13.3128 17.4729 12.4994 17.4729C11.6851 17.4729 11.0254 16.8132 11.0254 15.9998C11.0254 15.1864 11.6851 14.5258 12.4994 14.5258C13.3128 14.5258 13.9725 15.1864 13.9725 15.9998Z" stroke="black" stroke-width="1.5" stroke-linecap="round" stroke-linejoin="round"/>
<path d="M12.5 8V14.5267" stroke="black" stroke-width="1.5" stroke-linecap="round" stroke-linejoin="round"/>
</svg>