<svg width="24" height="24" viewBox="0 0 24 24" fill="none" xmlns="http://www.w3.org/2000/svg">
<path d="M8.99886 6.8139H15.001C17.0987 6.8139 18.4044 8.29474 18.4044 10.3905V14.1831C18.4044 16.2798 17.0987 17.7597 15.0001 17.7597H8.99886C6.90117 17.7597 5.59546 16.2798 5.59546 14.1831V10.3905C5.59546 8.29474 6.907 6.8139 8.99886 6.8139Z" stroke="black" stroke-width="1.5" stroke-linecap="round" stroke-linejoin="round"/>
<path opacity="0.4" d="M18.4043 10.3723H18.5561C19.6137 10.3723 20.4709 11.2295 20.4709 12.2871C20.4709 13.3437 19.6137 14.2019 18.5561 14.2019H18.4043" stroke="black" stroke-width="1.5" stroke-linecap="round" stroke-linejoin="round"/>
<path opacity="0.4" d="M14.3012 10.4629V10.4529M9.69775 10.4629V10.4529" stroke="black" stroke-width="1.5" stroke-linecap="round" stroke-linejoin="round"/>
<path opacity="0.4" d="M10.5889 14.0098C11.4538 14.8154 12.741 14.6957 13.4114 14.0098" stroke="black" stroke-width="1.5" stroke-linecap="round" stroke-linejoin="round"/>
<path opacity="0.4" d="M5.59586 10.3723H5.44407C4.38647 10.3723 3.5293 11.2295 3.5293 12.2871C3.5293 13.3437 4.38647 14.2019 5.44407 14.2019H5.59586" stroke="black" stroke-width="1.5" stroke-linecap="round" stroke-linejoin="round"/>
<path d="M9.69824 6.8134V4.68555" stroke="black" stroke-width="1.5" stroke-linecap="round" stroke-linejoin="round"/>
<path d="M14.3018 6.81399V3" stroke="black" stroke-width="1.5" stroke-linecap="round" stroke-linejoin="round"/>
<path opacity="0.4" d="M7.95166 21C8.91489 20.4415 10.3763 20.0815 12.005 20.0815C13.6328 20.0815 15.0863 20.4415 16.0486 21" stroke="black" stroke-width="1.5" stroke-linecap="round" stroke-linejoin="round"/>
</svg>
