<svg width="24" height="24" viewBox="0 0 24 24" fill="none" xmlns="http://www.w3.org/2000/svg">
<path fill-rule="evenodd" clip-rule="evenodd" d="M3.74076 3.89729C4.72547 2.84115 6.12768 2.25 7.78313 2.25H16.2178C17.8772 2.25 19.2796 2.84086 20.2634 3.89773C21.2416 4.94853 21.75 6.39899 21.75 8.02638V15.9736C21.75 17.6014 21.2416 19.052 20.2632 20.1027C19.2792 21.1595 17.8765 21.75 16.2169 21.75H7.78313C6.1239 21.75 4.72126 21.1595 3.73717 20.1028C2.7587 19.0521 2.25 17.6015 2.25 15.9736V8.02638C2.25 6.39795 2.76147 4.9476 3.74076 3.89729ZM4.83786 4.9202C4.16042 5.64678 3.75 6.70962 3.75 8.02638V15.9736C3.75 17.2919 4.15882 18.3545 4.83488 19.0805C5.50534 19.8004 6.49426 20.25 7.78313 20.25H16.2169C17.5063 20.25 18.4952 19.8004 19.1654 19.0805C19.8414 18.3546 20.25 17.292 20.25 15.9736V8.02638C20.25 6.70857 19.8414 5.64585 19.1655 4.91976C18.4952 4.19973 17.5066 3.75 16.2178 3.75H7.78313C6.49924 3.75 5.50988 4.19944 4.83786 4.9202Z" fill="black"/>
<path fill-rule="evenodd" clip-rule="evenodd" d="M11.0635 10.4008C11.3564 10.6937 11.3564 11.1686 11.0635 11.4615L8.94445 13.5806L11.0635 15.6996C11.3564 15.9925 11.3564 16.4674 11.0635 16.7603C10.7706 17.0532 10.2958 17.0532 10.0029 16.7603L7.35346 14.1109C7.21281 13.9702 7.13379 13.7795 7.13379 13.5806C7.13379 13.3816 7.21281 13.1909 7.35346 13.0502L10.0029 10.4008C10.2958 10.1079 10.7706 10.1079 11.0635 10.4008Z" fill="black"/>
<path fill-rule="evenodd" clip-rule="evenodd" d="M12.9374 7.23945C13.2303 6.94655 13.7052 6.94655 13.9981 7.23945L16.6475 9.88885C16.9404 10.1817 16.9404 10.6566 16.6475 10.9495L13.9981 13.5989C13.7052 13.8918 13.2303 13.8918 12.9374 13.5989C12.6446 13.306 12.6446 12.8311 12.9374 12.5383L15.0565 10.4192L12.9374 8.30011C12.6446 8.00721 12.6446 7.53234 12.9374 7.23945Z" fill="black"/>
</svg>
