<svg width="24" height="24" viewBox="0 0 24 24" fill="none" xmlns="http://www.w3.org/2000/svg">
<path fill-rule="evenodd" clip-rule="evenodd" d="M3.25977 10.206C3.25977 8.44613 4.68613 7.01953 6.44524 7.01953H14.3255C16.0855 7.01953 17.512 8.44601 17.512 10.206V15.5468C17.512 18.8354 14.8459 21.5004 11.5583 21.5004H9.21342C5.92487 21.5004 3.25977 18.8353 3.25977 15.5468V10.206ZM7.86133 11.2776C7.86133 10.8634 7.52554 10.5276 7.11133 10.5276C6.69711 10.5276 6.36133 10.8634 6.36133 11.2776V14.1956C6.36133 14.6098 6.69711 14.9456 7.11133 14.9456C7.52554 14.9456 7.86133 14.6098 7.86133 14.1956V11.2776Z" fill="black"/>
<g opacity="0.4">
<path d="M11.2238 3.40106C11.447 3.05121 11.3449 2.591 10.9958 2.37103C10.8664 2.28558 10.7209 2.24701 10.5778 2.25018C10.4504 2.25311 10.3249 2.28924 10.2141 2.35467C10.1145 2.41375 10.0266 2.49676 9.96017 2.60101C9.634 3.11102 9.52511 3.63104 9.49581 4.01117C9.48898 4.09833 9.48605 4.18133 9.48605 4.25726C9.48605 4.30731 9.48702 4.35443 9.48849 4.39764L9.49386 4.49115C9.49776 4.55096 9.50314 4.60101 9.50802 4.63104L9.51144 4.65643L9.51485 4.68109L9.51778 4.70111C9.51778 4.70111 9.51876 4.70111 9.52023 4.71112C9.59396 5.11102 9.98507 5.38104 10.3918 5.31122C10.8 5.23114 11.07 4.841 10.9948 4.4411L10.99 4.38104C10.986 4.32098 10.9831 4.23114 10.9909 4.13104C10.9958 4.0683 11.0041 4.00238 11.0173 3.93426C11.05 3.76361 11.112 3.57977 11.2238 3.40106Z" fill="black"/>
<path d="M14.6638 3.40106C14.8869 3.05121 14.7849 2.591 14.4362 2.37103C14.0861 2.14105 13.6228 2.25116 13.4001 2.60101C13.073 3.11102 12.965 3.63104 12.9348 4.01117C12.9201 4.20111 12.925 4.37103 12.9328 4.49115L12.9406 4.57611C12.9431 4.59808 12.9455 4.61688 12.948 4.63104C12.9499 4.65106 12.9528 4.67108 12.9548 4.68109L12.9558 4.68939L12.9567 4.70111C12.9567 4.70111 12.9592 4.70111 12.9592 4.71112C13.0339 5.11102 13.424 5.38104 13.8317 5.31122C14.239 5.23114 14.509 4.841 14.4348 4.4411L14.4333 4.43109L14.4289 4.38104C14.4265 4.34686 14.425 4.30292 14.4255 4.25311C14.426 4.21527 14.4275 4.17401 14.4309 4.13104C14.4338 4.0954 14.4377 4.05853 14.4431 4.02093L14.4514 3.96527C14.4587 3.92279 14.468 3.87933 14.4792 3.83539C14.5149 3.69378 14.573 3.54584 14.6638 3.40106Z" fill="black"/>
<path d="M7.86446 2.76849C7.81319 2.60956 7.70773 2.46722 7.55489 2.37103C7.20577 2.14105 6.74191 2.25116 6.51876 2.60101C6.36398 2.84344 6.25851 3.08807 6.18722 3.31878C6.10812 3.57367 6.07101 3.8117 6.05489 4.01117C6.03976 4.20111 6.04415 4.37103 6.05294 4.49115C6.05685 4.55096 6.06319 4.60101 6.06808 4.63104C6.07003 4.65106 6.07198 4.67108 6.07394 4.68109L6.07687 4.70111C6.07687 4.70111 6.07882 4.70111 6.07882 4.71112C6.092 4.78363 6.11593 4.85174 6.14864 4.91449C6.18478 4.98407 6.23116 5.04706 6.28585 5.10125C6.45431 5.268 6.69991 5.35443 6.95187 5.31122C7.35909 5.23114 7.62911 4.841 7.55392 4.4411L7.55343 4.42962L7.54903 4.38104C7.54513 4.32098 7.5422 4.23114 7.55001 4.13104C7.5671 3.91107 7.62618 3.65106 7.78292 3.40106C7.90841 3.20428 7.93087 2.97259 7.86446 2.76849Z" fill="black"/>
<path d="M17.0117 9.19849C16.5975 9.19849 16.2617 9.53427 16.2617 9.94849C16.2617 10.3627 16.5975 10.6985 17.0117 10.6985H18.516C19.0543 10.6985 19.4901 11.1343 19.4901 11.6726V13.3871C19.4901 13.9254 19.0543 14.3612 18.516 14.3612H17.0117C16.5975 14.3612 16.2617 14.697 16.2617 15.1112C16.2617 15.5254 16.5975 15.8612 17.0117 15.8612H18.516C19.8827 15.8612 20.9901 14.7538 20.9901 13.3871V11.6726C20.9901 10.3059 19.8828 9.19849 18.516 9.19849H17.0117Z" fill="black"/>
</g>
</svg>