<svg width="25" height="24" viewBox="0 0 25 24" fill="none" xmlns="http://www.w3.org/2000/svg">
<g opacity="0.4">
<path d="M9.97949 4C9.97949 3.58579 9.64371 3.25 9.22949 3.25C8.81528 3.25 8.47949 3.58579 8.47949 4V5.54897C8.47949 5.96319 8.81528 6.29897 9.22949 6.29897C9.64371 6.29897 9.97949 5.96319 9.97949 5.54897V4Z" fill="black"/>
<path d="M13.2498 4C13.2498 3.58579 12.914 3.25 12.4998 3.25C12.0855 3.25 11.7498 3.58579 11.7498 4V5.54897C11.7498 5.96319 12.0855 6.29897 12.4998 6.29897C12.914 6.29897 13.2498 5.96319 13.2498 5.54897V4Z" fill="black"/>
<path d="M16.52 4C16.52 3.58579 16.1842 3.25 15.77 3.25C15.3558 3.25 15.02 3.58579 15.02 4V5.54897C15.02 5.96319 15.3558 6.29897 15.77 6.29897C16.1842 6.29897 16.52 5.96319 16.52 5.54897V4Z" fill="black"/>
<path d="M5.38379 19.25C4.96958 19.25 4.63379 19.5858 4.63379 20C4.63379 20.4142 4.96958 20.75 5.38379 20.75H19.6143C20.0285 20.75 20.3643 20.4142 20.3643 20C20.3643 19.5858 20.0285 19.25 19.6143 19.25H5.38379Z" fill="black"/>
</g>
<path d="M7.29211 7.92383C5.86397 7.92383 4.70605 9.08174 4.70605 10.5099V12.7049C4.70605 17.0096 8.19564 20.4992 12.5003 20.4992C16.805 20.4992 20.2946 17.0096 20.2946 12.7049V10.5099C20.2946 9.08174 19.1367 7.92383 17.7085 7.92383H7.29211Z" fill="black"/>
</svg>