<svg width="25" height="25" viewBox="0 0 25 25" fill="none" xmlns="http://www.w3.org/2000/svg">
<path d="M4.54101 19.5866L4.53906 17.3535L6.75949 17.3516" stroke="black" stroke-width="1.5" stroke-linecap="round" stroke-linejoin="round"/>
<path d="M19.8279 5.41211L19.8298 7.64519L17.6094 7.64714" stroke="black" stroke-width="1.5" stroke-linecap="round" stroke-linejoin="round"/>
<path fill-rule="evenodd" clip-rule="evenodd" d="M15.065 12.5569C15.065 10.966 13.7747 9.67578 12.1838 9.67578C10.593 9.67578 9.30273 10.966 9.30273 12.5569C9.30273 14.1478 10.593 15.438 12.1838 15.438C13.7747 15.438 15.065 14.1478 15.065 12.5569Z" stroke="black" stroke-width="1.5" stroke-linecap="round" stroke-linejoin="round"/>
<path d="M4.80273 17.4043C6.71293 20.3447 10.0795 21.796 13.3607 21.3969" stroke="black" stroke-width="1.5" stroke-linecap="round" stroke-linejoin="round"/>
<path d="M16.9795 20.1214C19.5668 18.5169 21.0467 15.8032 21.1859 12.9766" stroke="black" stroke-width="1.5" stroke-linecap="round" stroke-linejoin="round"/>
<path d="M19.5682 7.59477C17.6512 4.64405 14.2678 3.19285 10.9756 3.6064" stroke="black" stroke-width="1.5" stroke-linecap="round" stroke-linejoin="round"/>
<path d="M7.39191 4.87891C4.80465 6.48342 3.32469 9.19717 3.18555 12.0238" stroke="black" stroke-width="1.5" stroke-linecap="round" stroke-linejoin="round"/>
</svg>