<svg width="25" height="24" viewBox="0 0 25 24" fill="none" xmlns="http://www.w3.org/2000/svg">
<path fill-rule="evenodd" clip-rule="evenodd" d="M16.6865 4.19482V6.30228C16.6865 7.03591 17.2061 7.4971 17.9426 7.4971H19.9275C20.6631 7.4971 21.1836 7.03883 21.1836 6.30228V4.19482C21.1836 3.45827 20.6631 3 19.9275 3H17.9426C17.2061 3 16.6865 3.45827 16.6865 4.19482Z" stroke="black" stroke-width="1.5" stroke-linecap="round" stroke-linejoin="round"/>
<path fill-rule="evenodd" clip-rule="evenodd" d="M3.18359 4.19482V6.30228C3.18359 7.03591 3.70316 7.4971 4.43971 7.4971H6.42458C7.16015 7.4971 7.68069 7.03883 7.68069 6.30228V4.19482C7.68069 3.45827 7.16015 3 6.42458 3H4.43971C3.70316 3 3.18359 3.45827 3.18359 4.19482Z" stroke="black" stroke-width="1.5" stroke-linecap="round" stroke-linejoin="round"/>
<path fill-rule="evenodd" clip-rule="evenodd" d="M16.6865 17.6977V19.8052C16.6865 20.5388 17.2061 21 17.9426 21H19.9275C20.6631 21 21.1836 20.5417 21.1836 19.8052V17.6977C21.1836 16.9612 20.6631 16.5029 19.9275 16.5029H17.9426C17.2061 16.5029 16.6865 16.9612 16.6865 17.6977Z" stroke="black" stroke-width="1.5" stroke-linecap="round" stroke-linejoin="round"/>
<path fill-rule="evenodd" clip-rule="evenodd" d="M3.18359 17.6977V19.8052C3.18359 20.5388 3.70316 21 4.43971 21H6.42458C7.16015 21 7.68069 20.5417 7.68069 19.8052V17.6977C7.68069 16.9612 7.16015 16.5029 6.42458 16.5029H4.43971C3.70316 16.5029 3.18359 16.9612 3.18359 17.6977Z" stroke="black" stroke-width="1.5" stroke-linecap="round" stroke-linejoin="round"/>
<path d="M10.6246 5.17578H16.6641M7.69853 18.696H13.9534M5.46875 7.44182V13.0085M18.9358 10.2052V16.4482" stroke="black" stroke-width="1.5" stroke-linecap="round" stroke-linejoin="round"/>
</svg>