<svg width="25" height="25" viewBox="0 0 25 25" fill="none" xmlns="http://www.w3.org/2000/svg">
<path d="M8.36663 21.1684C9.52641 21.1684 10.4673 20.2276 10.4673 19.0688V15.9874C10.4673 14.8276 9.52641 13.8867 8.3676 13.8867H5.28522C4.12544 13.8867 3.18555 14.8276 3.18555 15.9874V19.0688C3.18555 20.2286 4.12544 21.1684 5.28522 21.1684" stroke="black" stroke-width="1.5" stroke-linecap="round" stroke-linejoin="round"/>
<path d="M3.18555 10.7085V8.45117" stroke="black" stroke-width="1.5" stroke-linecap="round" stroke-linejoin="round"/>
<path d="M21.1855 8.64648V10.7092" stroke="black" stroke-width="1.5" stroke-linecap="round" stroke-linejoin="round"/>
<path d="M21.1855 13.627V15.8745" stroke="black" stroke-width="1.5" stroke-linecap="round" stroke-linejoin="round"/>
<path d="M13.6455 3.16797H15.9028" stroke="black" stroke-width="1.5" stroke-linecap="round" stroke-linejoin="round"/>
<path d="M15.7189 21.168H13.6465" stroke="black" stroke-width="1.5" stroke-linecap="round" stroke-linejoin="round"/>
<path d="M8.66406 3.16797H10.7268" stroke="black" stroke-width="1.5" stroke-linecap="round" stroke-linejoin="round"/>
<path d="M18.918 3.80859C19.6574 4.21724 20.2315 4.83995 20.6012 5.60859" stroke="black" stroke-width="1.5" stroke-linecap="round" stroke-linejoin="round"/>
<path d="M3.85645 5.44478C4.26509 4.69559 4.85861 4.10208 5.6078 3.71289" stroke="black" stroke-width="1.5" stroke-linecap="round" stroke-linejoin="round"/>
<path d="M20.5238 18.8809C20.1152 19.63 19.5217 20.2236 18.7725 20.6225" stroke="black" stroke-width="1.5" stroke-linecap="round" stroke-linejoin="round"/>
</svg>