<svg width="24" height="24" viewBox="0 0 24 24" fill="none" xmlns="http://www.w3.org/2000/svg">
<g opacity="0.4">
<path fill-rule="evenodd" clip-rule="evenodd" d="M19.1426 12.5107C17.8426 12.5107 16.7866 13.5697 16.7866 14.8707V18.4307C16.7866 19.7327 17.8426 20.7907 19.1426 20.7907C20.4426 20.7907 21.4996 19.7327 21.4996 18.4307V14.8707C21.4996 13.5697 20.4426 12.5107 19.1426 12.5107Z" fill="black"/>
<path fill-rule="evenodd" clip-rule="evenodd" d="M4.85749 3.21094C3.55749 3.21094 2.50049 4.26994 2.50049 5.57094V18.4309C2.50049 19.7319 3.55749 20.7909 4.85749 20.7909C6.15749 20.7909 7.21349 19.7319 7.21349 18.4309V5.57094C7.21349 4.26994 6.15749 3.21094 4.85749 3.21094Z" fill="black"/>
</g>
<path fill-rule="evenodd" clip-rule="evenodd" d="M12.0001 8.78906C10.7001 8.78906 9.64307 9.84306 9.64307 11.1391V18.4291C9.64307 19.7301 10.7001 20.7891 12.0001 20.7891C13.3001 20.7891 14.3571 19.7301 14.3571 18.4291V11.1391C14.3571 9.84306 13.3001 8.78906 12.0001 8.78906Z" fill="black"/>
</svg>