<svg width="24" height="24" viewBox="0 0 24 24" fill="none" xmlns="http://www.w3.org/2000/svg">
<path fill-rule="evenodd" clip-rule="evenodd" d="M12.0002 11.1875C10.8692 11.1875 9.94824 12.1075 9.94824 13.2385V19.4485C9.94824 20.5785 10.8692 21.4985 12.0002 21.4985C13.1312 21.4985 14.0522 20.5785 14.0522 19.4485V13.2385C14.0522 12.1075 13.1312 11.1875 12.0002 11.1875Z" fill="black"/>
<g opacity="0.4">
<path fill-rule="evenodd" clip-rule="evenodd" d="M4.552 14.9102C3.42 14.9102 2.5 15.8342 2.5 16.9702V19.4502C2.5 20.5802 3.42 21.5002 4.552 21.5002C5.683 21.5002 6.604 20.5802 6.604 19.4502V16.9702C6.604 15.8342 5.683 14.9102 4.552 14.9102Z" fill="black"/>
<path fill-rule="evenodd" clip-rule="evenodd" d="M19.4475 2.5C18.3165 2.5 17.3955 3.42 17.3955 4.55V19.45C17.3955 20.58 18.3165 21.5 19.4475 21.5C20.5795 21.5 21.4995 20.58 21.4995 19.45V4.55C21.4995 3.42 20.5795 2.5 19.4475 2.5Z" fill="black"/>
</g>
</svg>