<svg width="24" height="24" viewBox="0 0 24 24" fill="none" xmlns="http://www.w3.org/2000/svg">
<path fill-rule="evenodd" clip-rule="evenodd" d="M12.3019 12.875C12.2309 12.875 12.1641 12.8986 12.11 12.9444C10.2751 14.4969 6.55418 17.6422 5.56379 18.4794C5.42965 18.5928 5.42341 18.7949 5.55183 18.9147C7.2499 20.4992 9.52713 21.471 12.027 21.471C16.8474 21.471 20.838 17.8607 21.445 13.2032C21.4679 13.0278 21.329 12.875 21.1521 12.875H12.3019Z" fill="black"/>
<g opacity="0.4">
<path fill-rule="evenodd" clip-rule="evenodd" d="M12.667 11.074C12.667 11.2396 12.8013 11.374 12.967 11.374H21.1777C21.3507 11.374 21.4883 11.2275 21.4718 11.0553C21.0403 6.56296 17.473 2.98183 12.9871 2.52884C12.8144 2.5114 12.667 2.64916 12.667 2.82275V11.074Z" fill="black"/>
<path fill-rule="evenodd" clip-rule="evenodd" d="M11.0623 11.8647C11.1297 11.8077 11.1669 11.7253 11.1669 11.637V2.84152C11.1669 2.66517 11.015 2.52649 10.84 2.54842C6.16056 3.13501 2.52686 7.13421 2.52686 11.9702C2.52686 13.9387 3.13627 15.7636 4.16715 17.2813C4.26508 17.4255 4.46353 17.4515 4.59652 17.3388C5.55672 16.5257 9.12102 13.5074 11.0623 11.8647Z" fill="black"/>
</g>
</svg>