<svg width="24" height="24" viewBox="0 0 24 24" fill="none" xmlns="http://www.w3.org/2000/svg">
<g opacity="0.4">
<path fill-rule="evenodd" clip-rule="evenodd" d="M19.3232 15.0352C18.1922 15.0352 17.2712 15.9592 17.2712 17.0952V19.5752C17.2712 20.7052 18.1922 21.6252 19.3232 21.6252C20.4542 21.6252 21.3742 20.7052 21.3742 19.5752V17.0952C21.3742 15.9592 20.4542 15.0352 19.3232 15.0352Z" fill="black"/>
<path fill-rule="evenodd" clip-rule="evenodd" d="M11.874 11.3145C10.743 11.3145 9.82202 12.2345 9.82202 13.3655V19.5755C9.82202 20.7055 10.743 21.6255 11.874 21.6255C13.005 21.6255 13.926 20.7055 13.926 19.5755V13.3655C13.926 12.2345 13.005 11.3145 11.874 11.3145Z" fill="black"/>
<path fill-rule="evenodd" clip-rule="evenodd" d="M4.42676 2.625C3.29576 2.625 2.37476 3.545 2.37476 4.675V19.575C2.37476 20.705 3.29576 21.625 4.42676 21.625C5.55776 21.625 6.47876 20.705 6.47876 19.575V4.675C6.47876 3.545 5.55776 2.625 4.42676 2.625Z" fill="black"/>
</g>
<path fill-rule="evenodd" clip-rule="evenodd" d="M20.8751 4.85575C20.4611 4.85575 20.1251 5.19175 20.1251 5.60575L20.1241 8.14475L14.5771 2.59475C14.2851 2.30275 13.8111 2.30075 13.5171 2.59475C13.2241 2.88775 13.2241 3.36275 13.5171 3.65575L19.0631 9.20575H16.5311C16.1171 9.20575 15.7811 9.54175 15.7811 9.95575C15.7811 10.3698 16.1171 10.7058 16.5311 10.7058H20.8741C20.9791 10.7058 21.0801 10.6838 21.1711 10.6438H21.1731C21.2491 10.6108 21.3211 10.5638 21.3861 10.5028H21.3871C21.3981 10.4928 21.4101 10.4808 21.4211 10.4688V10.4678H21.4221C21.4831 10.4018 21.5311 10.3268 21.5641 10.2478C21.6021 10.1608 21.6231 10.0658 21.6241 9.96475L21.6251 5.60575C21.6251 5.19175 21.2891 4.85575 20.8751 4.85575Z" fill="black"/>
</svg>