<svg width="24" height="24" viewBox="0 0 24 24" fill="none" xmlns="http://www.w3.org/2000/svg">
<path opacity="0.4" fill-rule="evenodd" clip-rule="evenodd" d="M20.3658 4.45725C20.7568 4.06725 20.7568 3.43425 20.3658 3.04325C19.9748 2.65225 19.3428 2.65225 18.9518 3.04325L13.6348 8.35625L10.7258 5.45225C10.3358 5.06325 9.70276 5.06225 9.31276 5.45325L2.29276 12.4733C1.90176 12.8633 1.90176 13.4963 2.29276 13.8872C2.48776 14.0822 2.74376 14.1803 2.99976 14.1803C3.25576 14.1803 3.51176 14.0822 3.70676 13.8872L10.0198 7.57425L12.9278 10.4783C13.3178 10.8663 13.9508 10.8673 14.3418 10.4773L20.3658 4.45725Z" fill="black"/>
<path fill-rule="evenodd" clip-rule="evenodd" d="M21.6979 14.3235L18.5549 11.2635C18.5139 11.2235 18.4609 11.2045 18.4149 11.1725C18.3559 11.1325 18.3039 11.0845 18.2369 11.0575C18.1209 11.0095 17.9969 10.9855 17.8719 10.9835C17.8669 10.9835 17.8629 10.9805 17.8569 10.9805C17.8299 10.9805 17.8079 10.9935 17.7819 10.9955C17.6799 11.0035 17.5779 11.0175 17.4809 11.0565C17.3909 11.0935 17.3149 11.1525 17.2409 11.2125C17.2149 11.2325 17.1849 11.2405 17.1609 11.2635L17.1539 11.2705C17.1519 11.2725 17.1499 11.2745 17.1479 11.2765L14.0169 14.3235C13.6219 14.7095 13.6129 15.3425 13.9979 15.7375C14.1939 15.9385 14.4539 16.0405 14.7149 16.0405C14.9659 16.0405 15.2179 15.9465 15.4119 15.7575L16.8569 14.3505V20.2505C16.8569 20.8025 17.3039 21.2505 17.8569 21.2505C18.4099 21.2505 18.8569 20.8025 18.8569 20.2505V14.3485L20.3029 15.7575C20.6989 16.1425 21.3319 16.1335 21.7179 15.7375C22.1019 15.3425 22.0939 14.7095 21.6979 14.3235Z" fill="black"/>
</svg>