<svg width="24" height="24" viewBox="0 0 24 24" fill="none" xmlns="http://www.w3.org/2000/svg">
<path opacity="0.4" fill-rule="evenodd" clip-rule="evenodd" d="M2.99989 17.9101C2.74389 17.9101 2.48789 17.8121 2.29289 17.6171C1.90189 17.2261 1.90189 16.5941 2.29189 16.2031L8.42989 10.0621C8.80589 9.68709 9.46889 9.68709 9.84389 10.0621L13.2269 13.4461L20.2929 6.38309C20.6839 5.99209 21.3159 5.99209 21.7069 6.38309C22.0979 6.77309 22.0979 7.40609 21.7069 7.79709L13.9339 15.5671C13.5429 15.9581 12.9099 15.9581 12.5199 15.5671L9.13689 12.1831L3.70789 17.6171C3.51189 17.8121 3.25589 17.9101 2.99989 17.9101Z" fill="black"/>
<path fill-rule="evenodd" clip-rule="evenodd" d="M21.0003 12.9998C20.4473 12.9998 20.0003 12.5528 20.0003 11.9998V8.08984H16.0913C15.5383 8.08984 15.0913 7.64284 15.0913 7.08984C15.0913 6.53684 15.5383 6.08984 16.0913 6.08984H21.0003C21.5533 6.08984 22.0003 6.53684 22.0003 7.08984V11.9998C22.0003 12.5528 21.5533 12.9998 21.0003 12.9998Z" fill="black"/>
</svg>