<svg width="24" height="24" viewBox="0 0 24 24" fill="none" xmlns="http://www.w3.org/2000/svg">
<path d="M3.62842 9.22831C3.62842 8.45771 4.25312 7.83301 5.02372 7.83301H18.9767C19.7474 7.83301 20.3721 8.45771 20.3721 9.22831C20.3721 9.99892 19.7474 10.6236 18.9767 10.6236H5.02372C4.25312 10.6236 3.62842 9.99892 3.62842 9.22831Z" stroke="black" stroke-width="1.5" stroke-linecap="round" stroke-linejoin="round"/>
<path d="M17.8945 20.9999L6.81609 10.6318M6.10596 20.9999L17.1844 10.6318" stroke="black" stroke-width="1.5" stroke-linecap="round" stroke-linejoin="round"/>
<path d="M13.5086 3.0208L16.8035 2.99998C17.4206 2.99998 17.6917 3.34811 17.8161 3.88877L18.5678 7.3732C18.6033 7.61602 18.4102 7.83319 18.1588 7.83319H11.6919C11.3078 7.83319 11.2871 7.4872 11.3487 7.21331C11.6323 5.95148 12.7154 5.01099 14.0602 5.01099H18.0541" stroke="black" stroke-width="1.5" stroke-linecap="round" stroke-linejoin="round"/>
</svg>
