<svg width="24" height="24" viewBox="0 0 24 24" fill="none" xmlns="http://www.w3.org/2000/svg">
<path d="M7.1715 20.9743C3 20.9743 4.7225 17.3417 3 15.6602L21 15.6603C19.2775 17.3419 21 20.9745 16.8285 20.9745L7.1715 20.9743Z" stroke="black" stroke-width="1.5" stroke-linecap="round" stroke-linejoin="round"/>
<path d="M11.9033 12.9752C11.6066 12.6218 11.2228 12.244 11.2228 11.0244" stroke="black" stroke-width="1.5" stroke-linecap="round" stroke-linejoin="round"/>
<path d="M6.01611 12.9752C6.31283 12.6218 6.69662 12.244 6.69662 11.0244" stroke="black" stroke-width="1.5" stroke-linecap="round" stroke-linejoin="round"/>
<path d="M8.95947 11.4131V12.9341" stroke="black" stroke-width="1.5" stroke-linecap="round" stroke-linejoin="round"/>
<path d="M15.0369 15.6601V8.15093C15.0369 7.38065 14.4124 6.75622 13.6422 6.75622H11.8298C11.0595 6.75622 10.435 7.38065 10.435 8.15093L10.4349 8.16688C10.4348 8.93709 9.81044 8.83767 9.04022 8.83767C8.26999 8.83767 7.64559 8.93709 7.64551 8.16688L7.64562 8.15093C7.64562 5.8401 9.51892 3.9668 11.8298 3.9668H13.6422C15.953 3.9668 17.8263 5.8401 17.8263 8.15093V15.6601" stroke="black" stroke-width="1.5" stroke-linecap="round" stroke-linejoin="round"/>
</svg>
