<svg width="24" height="24" viewBox="0 0 24 24" fill="none" xmlns="http://www.w3.org/2000/svg">
<path d="M10.1659 5.97915V10.5801C9.42737 11.1382 8.94238 12.0154 8.94238 13.0127C8.94238 14.7016 10.3116 16.0708 12.0005 16.0708C13.6893 16.0708 15.0585 14.7016 15.0585 13.0127C15.0585 12.0154 14.5742 11.1382 13.8357 10.5801V5.97915C13.8357 4.96573 13.0139 4.14453 12.0005 4.14453C10.987 4.14453 10.1659 4.96573 10.1659 5.97915Z" stroke="black" stroke-width="1.5" stroke-linecap="round" stroke-linejoin="round"/>
<path d="M11.9787 12.9985H11.9875M12.7505 12.989C12.7505 13.403 12.4147 13.7388 12.0007 13.7388C11.5863 13.7388 11.2505 13.403 11.2505 12.989C11.2505 12.575 11.5863 12.2388 12.0007 12.2388C12.4147 12.2388 12.7505 12.575 12.7505 12.989Z" stroke="black" stroke-width="1.5" stroke-linecap="round" stroke-linejoin="round"/>
<path d="M12 8.48975V12.2387" stroke="black" stroke-width="1.5" stroke-linecap="round" stroke-linejoin="round"/>
<path d="M7.41991 6.24561H5.89321C3.7338 6.24561 2.79376 8.03959 3.03764 9.78052L3.86673 15.7877C4.19184 17.7925 4.88429 19.7312 7.36046 19.7312H16.6395C19.1157 19.7312 19.8082 17.7925 20.1333 15.7877L20.9624 9.78052C21.2062 8.03959 20.2662 6.24561 18.1068 6.24561H16.5801" stroke="black" stroke-width="1.5" stroke-linecap="round" stroke-linejoin="round"/>
<path d="M20.501 12.5402C19.6235 12.5402 18.8315 12.1803 18.2617 11.6005C17.968 11.3018 17.366 11.3018 17.0724 11.6006C16.5522 12.1299 15.847 12.4759 15.0605 12.5321M3.5 12.5402C4.37727 12.5401 5.16879 12.1802 5.73838 11.6006C6.03198 11.3018 6.63404 11.3018 6.92769 11.6005C7.44996 12.1319 8.15886 12.4786 8.94913 12.5327" stroke="black" stroke-width="1.5" stroke-linecap="round" stroke-linejoin="round"/>
</svg>
