<svg width="24" height="24" viewBox="0 0 24 24" fill="none" xmlns="http://www.w3.org/2000/svg">
<path d="M11.0779 2.46967C10.785 2.17678 10.3101 2.17678 10.0172 2.46967C9.72433 2.76256 9.72433 3.23744 10.0172 3.53033C10.1917 3.70479 10.1909 3.9865 10.0178 4.15925C9.25814 4.91888 9.25679 6.15174 10.0178 6.91114C10.311 7.20373 10.7858 7.20324 11.0784 6.91004C11.371 6.61684 11.3705 6.14197 11.0773 5.84938C10.9043 5.67668 10.9034 5.39511 11.0777 5.22063C11.8383 4.4612 11.8374 3.22918 11.0779 2.46967Z" fill="black"/>
<path d="M7.31421 5.22076C7.6071 4.92787 7.6071 4.45299 7.31421 4.1601C7.02132 3.86721 6.54644 3.86721 6.25355 4.1601C5.49391 4.91973 5.49312 6.15204 6.2541 6.91144C6.5473 7.20403 7.02217 7.20354 7.31476 6.91034C7.60735 6.61714 7.60685 6.14226 7.31366 5.84968C7.14055 5.67693 7.13975 5.39522 7.31421 5.22076Z" fill="black"/>
<path fill-rule="evenodd" clip-rule="evenodd" d="M6.39931 8.81787C4.62764 8.81787 3.19141 10.2541 3.19141 12.0258V15.5014C3.19141 18.8143 5.877 21.4999 9.18992 21.4999H11.5544C14.0823 21.4999 16.245 19.9362 17.128 17.7232H17.7056C19.557 17.7232 21.0584 16.2218 21.0584 14.3704C21.0584 12.519 19.557 11.0176 17.7056 11.0176H17.3912C16.9686 9.73982 15.7644 8.81787 14.345 8.81787H6.39931ZM17.7056 16.2232H17.5099C17.5383 15.9866 17.5529 15.7457 17.5529 15.5014V12.5176H17.7056C18.7286 12.5176 19.5584 13.3475 19.5584 14.3704C19.5584 15.3933 18.7286 16.2232 17.7056 16.2232Z" fill="black"/>
<path d="M14.8396 4.1601C15.1325 4.45299 15.1325 4.92787 14.8396 5.22076C14.6651 5.39522 14.6659 5.67693 14.839 5.84968C15.1322 6.14226 15.1327 6.61714 14.8402 6.91034C14.5476 7.20354 14.0727 7.20403 13.7795 6.91144C13.0185 6.15204 13.0193 4.91973 13.7789 4.1601C14.0718 3.86721 14.5467 3.86721 14.8396 4.1601Z" fill="black"/>
</svg>