<svg width="24" height="24" viewBox="0 0 24 24" fill="none" xmlns="http://www.w3.org/2000/svg">
<path fill-rule="evenodd" clip-rule="evenodd" d="M7.87578 3.5C8.04147 3.5 8.17578 3.63431 8.17578 3.8V6.30889C8.17578 6.42373 8.11022 6.5285 8.00693 6.5787L7.60028 6.77635C7.20371 6.96999 6.94922 7.37353 6.94922 7.81623V9.55944C6.94922 10.1982 7.46685 10.7158 8.10557 10.7158H9.74997C10.3887 10.7158 10.9063 10.1982 10.9063 9.55944V7.81623C10.9063 7.37353 10.6526 6.97039 10.2561 6.77675L9.84464 6.57678C9.74135 6.52657 9.67578 6.4218 9.67578 6.30696V3.8C9.67578 3.63431 9.8101 3.5 9.97578 3.5H14.1652C15.4761 3.5 16.5905 4.34015 16.9993 5.51147H18.0669C19.3677 5.51147 20.4225 6.56624 20.4225 7.86706V8.58163C20.4225 9.88298 19.3672 10.9363 18.0669 10.9363H17.1662V11.4748C17.1662 14.5554 14.669 17.0527 11.5883 17.0527H9.40493C6.32442 17.0527 3.82617 14.5555 3.82617 11.4748V6.501C3.82617 4.84324 5.17052 3.5 6.82718 3.5H7.87578ZM17.1662 9.43633V7.01147H18.0669C18.5393 7.01147 18.9225 7.39467 18.9225 7.86706V8.58163C18.9225 9.05348 18.5399 9.43633 18.0669 9.43633H17.1662Z" fill="black"/>
<path d="M4.98438 19.25C4.57016 19.25 4.23438 19.5858 4.23438 20C4.23438 20.4142 4.57016 20.75 4.98438 20.75H17.3729C17.7872 20.75 18.1229 20.4142 18.1229 20C18.1229 19.5858 17.7872 19.25 17.3729 19.25H4.98438Z" fill="black"/>
</svg>