<svg width="25" height="24" viewBox="0 0 25 24" fill="none" xmlns="http://www.w3.org/2000/svg">
<path d="M5.51048 16.3752L4.04619 17.8405C2.87962 19.0061 3.70566 20.9997 5.35384 20.9997H19.6494C20.671 20.9997 21.5 20.1717 21.5 19.1491V15.5754" stroke="black" stroke-width="1.5" stroke-linecap="round" stroke-linejoin="round"/>
<path d="M17.0957 4.7909L18.3411 3.54552C19.5067 2.37992 21.5003 3.20596 21.5003 4.85414V12.0015" stroke="black" stroke-width="1.5" stroke-linecap="round" stroke-linejoin="round"/>
<path d="M10.9946 12.6172H9.00195V14.4707" stroke="black" stroke-width="1.5" stroke-linecap="round" stroke-linejoin="round"/>
<path d="M15.1196 7.74414V9.73772H13.127" stroke="black" stroke-width="1.5" stroke-linecap="round" stroke-linejoin="round"/>
<path d="M14.6811 12.807C14.1236 13.7731 13.0777 14.4211 11.8809 14.4211C10.0975 14.4211 9.00195 12.627 9.00195 12.627" stroke="black" stroke-width="1.5" stroke-linecap="round" stroke-linejoin="round"/>
<path d="M9.07227 9.57698C9.63074 8.60111 10.6767 7.95312 11.8822 7.95312C14.045 7.95312 15.1211 9.74725 15.1211 9.74725" stroke="black" stroke-width="1.5" stroke-linecap="round" stroke-linejoin="round"/>
</svg>