<svg width="25" height="24" viewBox="0 0 25 24" fill="none" xmlns="http://www.w3.org/2000/svg">
<path d="M12.4978 10.6875V17.1733M15.952 13.9304H9.04297M10.6931 10.6875H14.3019C15.3157 10.6875 15.952 11.4056 15.952 12.4213V15.4395C15.952 16.4553 15.3196 17.1733 14.3019 17.1733H10.6931C9.67637 17.1733 9.04297 16.4553 9.04297 15.4395V12.4213C9.04297 11.4056 9.67637 10.6875 10.6931 10.6875Z" stroke="black" stroke-width="1.5" stroke-linecap="round" stroke-linejoin="round"/>
<path d="M16.0945 21C18.1494 21 19.8152 19.3343 19.8152 17.2794V8.99935C19.8152 8.47005 19.6099 7.96119 19.244 7.57978L15.4524 3.63049C15.0661 3.22768 14.5319 3 13.9734 3H8.90522C6.8503 3 5.18457 4.66573 5.18457 6.72065V17.2784C5.18457 19.3333 6.84933 21 8.90425 21H12.4994" stroke="black" stroke-width="1.5" stroke-linecap="round" stroke-linejoin="round"/>
</svg>