<svg width="25" height="24" viewBox="0 0 25 24" fill="none" xmlns="http://www.w3.org/2000/svg">
<path d="M10.699 11.6367C9.68223 11.6367 9.04883 12.3548 9.04883 13.3706V15.441C9.04883 16.4578 9.68223 17.1749 10.699 17.1749H14.3077C15.3255 17.1749 15.9579 16.4578 15.9579 15.441V13.3706C15.9579 12.3548 15.3216 11.6367 14.3077 11.6367H13.3259" stroke="black" stroke-width="1.5" stroke-linecap="round" stroke-linejoin="round"/>
<path d="M16.0945 21C18.1494 21 19.8152 19.3343 19.8152 17.2794V8.99935C19.8152 8.47005 19.6099 7.96119 19.244 7.57978L15.4524 3.63049C15.0661 3.22768 14.5319 3 13.9734 3H8.90522C6.8503 3 5.18457 4.66573 5.18457 6.72065V17.2784C5.18457 19.3333 6.84933 21 8.90425 21H12.4994" stroke="black" stroke-width="1.5" stroke-linecap="round" stroke-linejoin="round"/>
</svg>