<svg width="24" height="25" viewBox="0 0 24 25" fill="none" xmlns="http://www.w3.org/2000/svg">
<path fill-rule="evenodd" clip-rule="evenodd" d="M9.612 12.3912C8.305 12.3912 7.241 11.3282 7.241 10.0212C7.241 8.70822 8.305 7.64122 9.612 7.64122C10.919 7.64122 11.982 8.70822 11.982 10.0212C11.982 11.3282 10.919 12.3912 9.612 12.3912ZM20.385 16.5352L20.203 16.3532C20.0859 16.2361 19.8961 16.236 19.7789 16.353L18.799 17.3312C18.653 17.4782 18.461 17.5512 18.269 17.5512C18.077 17.5512 17.885 17.4782 17.738 17.3312C17.592 17.1852 17.519 16.9932 17.519 16.8002C17.519 16.6092 17.593 16.4162 17.739 16.2712L18.7172 15.2946C18.8347 15.1774 18.8346 14.9871 18.7171 14.8699L18.354 14.5077C18.2369 14.3909 18.0472 14.3909 17.9301 14.5079L16.955 15.4822C16.809 15.6282 16.617 15.7022 16.425 15.7022C16.233 15.7022 16.041 15.6282 15.894 15.4822C15.602 15.1892 15.602 14.7132 15.895 14.4212L16.8683 13.4496C16.9857 13.3324 16.9857 13.1421 16.8682 13.0249L16.3138 12.4717C16.2315 12.3896 16.2046 12.2675 16.2409 12.157C17.0525 9.6836 16.412 6.9503 14.563 5.10522C13.256 3.79522 11.518 3.07422 9.67 3.07422C7.821 3.07422 6.084 3.79522 4.777 5.10522C3.469 6.41022 2.75 8.14722 2.75 9.99622C2.75 11.8462 3.469 13.5832 4.776 14.8882C6.62009 16.7362 9.35429 17.3786 11.8278 16.5634C11.9382 16.527 12.0605 16.5537 12.1427 16.636L16.211 20.7082C16.769 21.2682 17.51 21.5772 18.299 21.5772C19.087 21.5772 19.828 21.2682 20.384 20.7082C20.943 20.1542 21.25 19.4132 21.25 18.6242C21.25 17.8362 20.943 17.0942 20.385 16.5352Z" fill="black"/>
<path fill-rule="evenodd" clip-rule="evenodd" d="M9.61197 9.1416C9.13197 9.1416 8.74097 9.5366 8.74097 10.0216C8.74097 10.5006 9.13197 10.8916 9.61197 10.8916C10.092 10.8916 10.482 10.5006 10.482 10.0216C10.482 9.5366 10.092 9.1416 9.61197 9.1416Z" fill="black"/>
</svg>