<svg width="24" height="25" viewBox="0 0 24 25" fill="none" xmlns="http://www.w3.org/2000/svg">
<path fill-rule="evenodd" clip-rule="evenodd" d="M7.065 15.3878C5.375 15.3878 4 14.0158 4 12.3278C4 10.6348 5.375 9.25781 7.065 9.25781C8.754 9.25781 10.129 10.6348 10.129 12.3278C10.129 14.0158 8.754 15.3878 7.065 15.3878ZM20.206 11.3278H12.028C11.563 9.00981 9.515 7.25781 7.065 7.25781C4.272 7.25781 2 9.53281 2 12.3278C2 15.1178 4.272 17.3878 7.065 17.3878C9.515 17.3878 11.562 15.6408 12.028 13.3278H16V15.8078C16 16.3608 16.448 16.8078 17 16.8078C17.552 16.8078 18 16.3608 18 15.8078V13.3278H20V15.8078C20 16.3608 20.448 16.8078 21 16.8078C21.552 16.8078 22 16.3608 22 15.8078V13.1178C22 12.1308 21.195 11.3278 20.206 11.3278Z" fill="black"/>
</svg>