<svg width="24" height="25" viewBox="0 0 24 25" fill="none" xmlns="http://www.w3.org/2000/svg">
<path fill-rule="evenodd" clip-rule="evenodd" d="M11.7781 4.91927C12.1521 4.91927 12.4441 5.21327 12.4441 5.58927C12.4441 5.95327 12.1451 6.24927 11.7781 6.24927C11.4111 6.24927 11.1131 5.95327 11.1131 5.58927C11.1131 5.21327 11.4051 4.91927 11.7781 4.91927ZM3.28811 7.74927C3.32911 7.74927 3.37111 7.74626 3.41211 7.73926L9.90811 6.65927C10.1591 7.09327 10.5521 7.43127 11.0291 7.60827V16.0713L9.39911 17.1213L8.71011 17.6293C8.44911 17.8213 8.34211 18.1593 8.44311 18.4673C8.54411 18.7743 8.83211 18.9823 9.15511 18.9823H14.5041C14.8281 18.9823 15.1151 18.7743 15.2161 18.4673C15.3181 18.1593 15.2101 17.8213 14.9491 17.6293L14.2111 17.0873L12.5291 16.0463V7.60726C13.2311 7.34727 13.7621 6.73827 13.9041 5.98827L20.3941 4.90927C20.7611 4.84827 21.0221 4.52927 21.0211 4.17027C21.0211 4.12927 21.0181 4.08827 21.0111 4.04627C20.9431 3.63727 20.5501 3.35727 20.1481 3.42927L13.6461 4.50927C13.2711 3.86127 12.5781 3.41927 11.7781 3.41927C10.7241 3.41927 9.84611 4.17927 9.65411 5.18027L3.16611 6.25927C2.75711 6.32727 2.48211 6.71427 2.54911 7.12227C2.61111 7.48926 2.92811 7.74927 3.28811 7.74927Z" fill="black"/>
<path fill-rule="evenodd" clip-rule="evenodd" d="M18.9192 19.7295H4.64124C4.22724 19.7295 3.89124 20.0655 3.89124 20.4795C3.89124 20.8935 4.22724 21.2295 4.64124 21.2295H18.9192C19.3332 21.2295 19.6692 20.8935 19.6692 20.4795C19.6692 20.0655 19.3332 19.7295 18.9192 19.7295Z" fill="black"/>
<path fill-rule="evenodd" clip-rule="evenodd" d="M5.54427 16.3431C6.77127 16.3431 7.96127 15.6991 8.77027 14.5841C8.87927 14.4341 8.89627 14.2361 8.81427 14.0691L6.11527 8.60908C6.03127 8.43908 5.85727 8.33008 5.66727 8.33008C5.47627 8.33008 5.30127 8.44008 5.21827 8.61108L2.55127 14.0711C2.48127 14.2121 2.48327 14.3781 2.55527 14.5191C3.09227 15.5661 4.10927 16.2431 5.27627 16.3331C5.36527 16.3401 5.45527 16.3431 5.54427 16.3431Z" fill="black"/>
<path fill-rule="evenodd" clip-rule="evenodd" d="M21.4485 12.0075L18.7505 6.54753C18.6655 6.37753 18.4925 6.26953 18.3025 6.26953C18.1115 6.26953 17.9365 6.37853 17.8525 6.54953L15.1855 12.0095C15.1165 12.1515 15.1185 12.3175 15.1905 12.4575C15.7275 13.5045 16.7445 14.1835 17.9105 14.2725C18.0005 14.2785 18.0895 14.2825 18.1785 14.2825C19.4065 14.2825 20.5955 13.6385 21.4055 12.5235C21.5135 12.3725 21.5305 12.1745 21.4485 12.0075Z" fill="black"/>
</svg>