<svg width="24" height="25" viewBox="0 0 24 25" fill="none" xmlns="http://www.w3.org/2000/svg">
<path fill-rule="evenodd" clip-rule="evenodd" d="M15.9269 20.5742H8.10689C7.69289 20.5742 7.35689 20.9102 7.35689 21.3242C7.35689 21.7382 7.69289 22.0742 8.10689 22.0742H15.9269C16.3409 22.0742 16.6769 21.7382 16.6769 21.3242C16.6769 20.9102 16.3409 20.5742 15.9269 20.5742Z" fill="black"/>
<path fill-rule="evenodd" clip-rule="evenodd" d="M8.11722 9.83209C8.02828 9.65182 8.13834 9.43679 8.33658 9.4035L15.2832 8.23697C15.5239 8.19654 15.7096 8.44529 15.6024 8.66461L14.0699 11.7985C13.9724 11.9978 14.1175 12.2303 14.3394 12.2303H20.0357C20.2582 12.2303 20.4032 11.9967 20.3047 11.7973L17.8588 6.85059C17.8521 6.83716 17.8439 6.82482 17.8368 6.81158C17.8326 6.80359 17.8262 6.79652 17.8212 6.78899C17.8037 6.76276 17.7862 6.73654 17.7687 6.71031C17.7387 6.67031 17.6987 6.64031 17.6687 6.61031C17.6387 6.58031 17.6187 6.56031 17.5887 6.54031C17.5187 6.50031 17.4487 6.46031 17.3787 6.44031C17.364 6.43539 17.3492 6.43289 17.3356 6.43162C17.3112 6.42934 17.2868 6.42705 17.2629 6.42161C17.2348 6.41523 17.2068 6.41031 17.1787 6.41031C17.1554 6.41031 17.1321 6.41636 17.1087 6.42376C17.0954 6.42797 17.0817 6.42872 17.069 6.42301C17.0624 6.42004 17.0552 6.42092 17.048 6.42213L13.2688 7.06113C13.0857 7.09209 12.9187 6.951 12.9187 6.76533V3.32031C12.9187 2.91031 12.5887 2.57031 12.1687 2.57031C11.7587 2.57031 11.4187 2.91031 11.4187 3.32031V7.11663C11.4187 7.26308 11.313 7.38813 11.1686 7.41246L6.78874 8.15031C6.56375 8.16009 6.36747 8.26557 6.22797 8.43866C6.22177 8.44635 6.21537 8.45747 6.20988 8.46568C6.19694 8.48505 6.18532 8.50213 6.17355 8.52223C6.16458 8.53756 6.15482 8.55209 6.14874 8.57031L3.71983 13.5385C3.62239 13.7379 3.7675 13.9703 3.98934 13.9703H9.67622C9.89854 13.9703 10.0436 13.737 9.94526 13.5376L8.11722 9.83209Z" fill="black"/>
<path fill-rule="evenodd" clip-rule="evenodd" d="M10.9389 15.665C10.897 15.5594 10.7908 15.4961 10.6771 15.4961H2.93797C2.82434 15.4961 2.71808 15.5593 2.67553 15.6647C2.58523 15.8883 2.54799 16.1183 2.67256 16.3561C3.38256 17.7361 4.73256 18.6261 6.27256 18.7461C6.39256 18.7561 6.51256 18.7561 6.63256 18.7561C8.25256 18.7561 9.82256 17.9161 10.8826 16.4561C11.0734 16.198 11.0429 15.9275 10.9389 15.665Z" fill="black"/>
<path fill-rule="evenodd" clip-rule="evenodd" d="M21.325 13.8887C21.2831 13.783 21.1769 13.7197 21.0633 13.7197H13.3241C13.2104 13.7197 13.1042 13.783 13.0616 13.8883C12.9713 14.1119 12.9341 14.3419 13.0587 14.5797C13.7687 15.9597 15.1187 16.8497 16.6587 16.9697C16.7787 16.9797 16.8987 16.9797 17.0187 16.9797C18.6387 16.9797 20.2087 16.1397 21.2687 14.6797C21.4595 14.4216 21.4291 14.1511 21.325 13.8887Z" fill="black"/>
</svg>