<svg width="24" height="25" viewBox="0 0 24 25" fill="none" xmlns="http://www.w3.org/2000/svg">
<path fill-rule="evenodd" clip-rule="evenodd" d="M16.4255 10.8053C16.3406 10.8902 16.3152 11.0172 16.3559 11.1302C16.5577 11.6902 16.6735 12.291 16.6735 12.9202C16.6735 15.8592 14.2815 18.2502 11.3395 18.2502C8.39853 18.2502 6.00454 15.8592 6.00454 12.9202C6.00454 9.97522 8.39853 7.58022 11.3395 7.58022C12.044 7.58022 12.7124 7.72453 13.3269 7.97529C13.4425 8.02245 13.576 7.99878 13.6642 7.91049L15.9252 5.64865C16.0602 5.51358 16.0364 5.28819 15.872 5.19108C14.5412 4.40523 12.993 3.94922 11.3385 3.94922C6.39554 3.94922 2.37354 7.97322 2.37354 12.9202C2.37354 17.8602 6.39554 21.8802 11.3385 21.8802C16.2815 21.8802 20.3025 17.8602 20.3025 12.9202C20.3025 11.3441 19.8872 9.86801 19.1706 8.58088C19.0762 8.41133 18.8466 8.38418 18.7094 8.5214L16.4255 10.8053Z" fill="black"/>
<path fill-rule="evenodd" clip-rule="evenodd" d="M11.9787 9.59542C12.1415 9.43259 12.0671 9.15524 11.8396 9.11962C11.6765 9.09407 11.5101 9.0791 11.34 9.0791C9.22501 9.0791 7.505 10.8021 7.505 12.9191C7.505 15.0321 9.22501 16.7491 11.34 16.7491C13.454 16.7491 15.174 15.0321 15.174 12.9191C15.174 12.8417 15.1716 12.7649 15.1669 12.6887C15.1522 12.4503 14.8681 12.362 14.6992 12.531L13.017 14.2131C12.627 14.6041 12.115 14.7991 11.603 14.7991C11.092 14.7991 10.58 14.6041 10.189 14.2131C9.408 13.4331 9.408 12.1661 10.189 11.3851L11.9787 9.59542Z" fill="black"/>
<path fill-rule="evenodd" clip-rule="evenodd" d="M20.8769 4.88953H19.8129C19.6472 4.88953 19.5129 4.75522 19.5129 4.58953V3.51953C19.5129 3.10553 19.1769 2.76953 18.7629 2.76953C18.3489 2.76953 18.0129 3.10553 18.0129 3.51953V5.20428C18.0129 5.28384 17.9813 5.36014 17.925 5.4164L11.0729 12.2695C10.7799 12.5625 10.7799 13.0365 11.0729 13.3295C11.2199 13.4765 11.4109 13.5495 11.6039 13.5495C11.7959 13.5495 11.9869 13.4765 12.1339 13.3295L18.985 6.47741C19.0413 6.42114 19.1176 6.38953 19.1972 6.38953H20.8769C21.2909 6.38953 21.6269 6.05353 21.6269 5.63953C21.6269 5.22553 21.2909 4.88953 20.8769 4.88953Z" fill="black"/>
</svg>