<svg width="24" height="24" viewBox="0 0 24 24" fill="none" xmlns="http://www.w3.org/2000/svg">
<path fill-rule="evenodd" clip-rule="evenodd" d="M3.74072 3.89744C4.72544 2.84116 6.12768 2.25 7.78313 2.25H16.2178C17.8772 2.25 19.2796 2.84086 20.2635 3.89789C21.2416 4.94883 21.75 6.39954 21.75 8.02735V15.9736C21.75 17.601 21.2416 19.0515 20.2633 20.1023C19.2793 21.1592 17.8766 21.75 16.2169 21.75H7.78313C6.12379 21.75 4.72117 21.1592 3.73714 20.1024C2.75872 19.0516 2.25 17.6011 2.25 15.9736V8.02735C2.25 6.3985 2.76144 4.9479 3.74072 3.89744ZM7.8959 3.75H7.78313C6.49924 3.75 5.50991 4.19944 4.8379 4.92028C4.16046 5.64696 3.75 6.71004 3.75 8.02735V15.9736C3.75 17.2913 4.15879 18.354 4.83492 19.0802C5.50542 19.8003 6.49437 20.25 7.78313 20.25H16.2169C17.5062 20.25 18.4951 19.8002 19.1654 19.0802C19.8414 18.3541 20.25 17.2914 20.25 15.9736V8.02735C20.25 6.709 19.8414 5.64603 19.1655 4.91984C18.4952 4.19973 17.5066 3.75 16.2178 3.75H16.1037L16.1055 11.8977C16.1056 12.1581 15.9706 12.3998 15.7489 12.5364C15.5272 12.673 15.2505 12.6848 15.018 12.5676L12.0121 11.0528L8.98139 12.5686C8.7489 12.6849 8.47278 12.6725 8.25164 12.5358C8.03051 12.3992 7.8959 12.1578 7.8959 11.8978V3.75ZM14.6037 3.75H9.3959V10.6842L11.6779 9.54284C11.8898 9.43686 12.1393 9.43724 12.3509 9.54386L14.6053 10.6799L14.6037 3.75ZM7.42557 16.5732C7.42557 16.1589 7.76136 15.8232 8.17557 15.8232H15.8251C16.2393 15.8232 16.5751 16.1589 16.5751 16.5732C16.5751 16.9874 16.2393 17.3232 15.8251 17.3232H8.17557C7.76136 17.3232 7.42557 16.9874 7.42557 16.5732Z" fill="black"/>
</svg>
