<svg width="24" height="24" viewBox="0 0 24 24" fill="none" xmlns="http://www.w3.org/2000/svg">
<path fill-rule="evenodd" clip-rule="evenodd" d="M12 3.75C7.44335 3.75 3.75 7.44421 3.75 12C3.75 16.5558 7.44335 20.25 12 20.25C16.5567 20.25 20.25 16.5558 20.25 12C20.25 7.44421 16.5567 3.75 12 3.75ZM2.25 12C2.25 6.61589 6.61481 2.25 12 2.25C17.3852 2.25 21.75 6.61589 21.75 12C21.75 17.3841 17.3852 21.75 12 21.75C6.61481 21.75 2.25 17.3841 2.25 12ZM9.07521 7.99074C9.56951 7.63682 10.1908 7.52581 10.7749 7.52581H13.2238C13.828 7.52581 14.4589 7.64557 14.9539 8.02441C15.484 8.43013 15.7407 9.04106 15.7408 9.75934L15.7427 15.3568C15.7427 15.5531 15.6909 15.7406 15.599 15.9043L15.5984 15.9053C15.2959 16.4421 14.6159 16.6324 14.0787 16.3296L12.009 15.1601L9.91411 16.3344C9.75167 16.4243 9.56481 16.4749 9.37184 16.4749C8.75539 16.4749 8.2552 15.9745 8.25697 15.3577L8.25698 15.3554L8.25697 15.3591V15.3577V9.68857C8.25697 8.96763 8.53984 8.37406 9.07521 7.99074ZM9.94844 9.21035C9.85259 9.27898 9.75697 9.39179 9.75697 9.68857V14.7029L11.6438 13.6453C11.8724 13.5171 12.1514 13.5176 12.3795 13.6465L14.2425 14.6993L14.2408 9.75986C14.2408 9.41771 14.135 9.28658 14.0422 9.21559C13.9143 9.11768 13.6618 9.02581 13.2238 9.02581H10.7749C10.3481 9.02581 10.0854 9.11232 9.94844 9.21035Z" fill="black"/>
</svg>
