<svg width="24" height="24" viewBox="0 0 24 24" fill="none" xmlns="http://www.w3.org/2000/svg">
<path fill-rule="evenodd" clip-rule="evenodd" d="M7.67188 2.25089C7.70884 2.2503 7.74592 2.25 7.78313 2.25H16.2178C17.8772 2.25 19.2796 2.84086 20.2635 3.89789C21.2416 4.94883 21.75 6.39954 21.75 8.02735V15.9736C21.75 17.601 21.2416 19.0515 20.2633 20.1023C19.2793 21.1592 17.8766 21.75 16.2169 21.75H7.78313C7.7459 21.75 7.70879 21.7497 7.67181 21.7491C7.65959 21.7497 7.64729 21.75 7.63492 21.75C7.61013 21.75 7.58562 21.7488 7.56144 21.7464C5.99882 21.6961 4.67704 21.1118 3.73714 20.1024C2.75872 19.0516 2.25 17.6011 2.25 15.9736V8.02735C2.25 6.3985 2.76144 4.9479 3.74072 3.89744C4.68112 2.8887 6.0023 2.30416 7.56116 2.25358C7.58543 2.25121 7.61004 2.25 7.63492 2.25C7.64732 2.25 7.65964 2.2503 7.67188 2.25089ZM6.88492 3.82978C6.02928 3.98891 5.3437 4.37772 4.8379 4.92028C4.16046 5.64696 3.75 6.71004 3.75 8.02735V15.9736C3.75 17.2913 4.15879 18.354 4.83492 19.0802C5.34012 19.6227 6.02611 20.0118 6.88492 20.1707V3.82978ZM8.38492 20.25V3.75H10.9878V11.4999C10.9878 11.7598 11.1224 12.0013 11.3435 12.1379C11.5646 12.2746 11.8408 12.287 12.0733 12.1707L14.2167 11.0985L16.343 12.1697C16.5756 12.2868 16.8522 12.275 17.0739 12.1384C17.2955 12.0019 17.4305 11.7601 17.4305 11.4997L17.4287 3.89922C18.1427 4.08745 18.7233 4.44482 19.1655 4.91984C19.8414 5.64603 20.25 6.709 20.25 8.02735V15.9736C20.25 17.2914 19.8414 18.3541 19.1654 19.0802C18.4951 19.8002 17.5062 20.25 16.2169 20.25H8.38492ZM15.9287 3.75H12.4878V10.2862L13.8823 9.58858C14.0942 9.4826 14.3437 9.48296 14.5553 9.58954L15.9302 10.2821L15.9287 3.75Z" fill="black"/>
</svg>
