<svg width="24" height="24" viewBox="0 0 24 24" fill="none" xmlns="http://www.w3.org/2000/svg">
<path fill-rule="evenodd" clip-rule="evenodd" d="M13.7459 4.50673L11.8986 5.3281C11.294 5.59131 10.6049 5.58365 10.0057 5.26978L10.0038 5.26875L9.35598 4.927C9.2786 4.88835 9.20233 4.89411 9.12572 4.94672C9.04352 5.00317 8.96805 5.11484 8.96805 5.27676V17.8213C8.96805 18.5067 8.7625 19.144 8.40964 19.675H17.7512C18.6148 19.675 19.2026 19.3913 19.5859 18.9488C19.9824 18.491 20.2412 17.7686 20.2412 16.753L20.25 5.27676C20.25 5.27663 20.25 5.27689 20.25 5.27676C20.2499 5.10871 20.173 4.99849 20.094 4.94455C20.0197 4.89386 19.9427 4.88668 19.8621 4.92698L19.2143 5.26875L19.2116 5.27014C18.6121 5.5834 17.9243 5.59142 17.3195 5.32808L17.3142 5.32577L15.4722 4.50674C14.9145 4.26446 14.3036 4.26446 13.7459 4.50673ZM5.61341 19.675C6.6384 19.675 7.46805 18.845 7.46805 17.8213V10.2736L6.6811 10.6247C6.07696 10.8884 5.38762 10.8804 4.78864 10.5666L4.78669 10.5656L4.13888 10.2239C4.05795 10.1834 3.98049 10.1906 3.9061 10.2413C3.82707 10.2952 3.75 10.405 3.75 10.5736V17.8213C3.75 18.328 3.95603 18.7928 4.29898 19.1357C4.63034 19.4671 5.09403 19.675 5.61341 19.675ZM7.46805 8.64663C7.41973 8.65829 7.36942 8.67486 7.31836 8.69794L6.07874 9.25093C5.87249 9.34019 5.66211 9.33053 5.48548 9.23833C5.48521 9.23819 5.48576 9.23848 5.48548 9.23833L4.83375 8.89449L4.82596 8.89045C3.5541 8.23835 2.25 9.27908 2.25 10.5736V17.8213C2.25 18.7448 2.62776 19.5858 3.23832 20.1964C3.84296 20.801 4.68499 21.175 5.61341 21.175H17.7512C18.9718 21.175 20.004 20.7572 20.7197 19.9309C21.422 19.12 21.7411 18.0066 21.7412 16.7535M21.7412 16.7535L21.75 5.27733C21.75 3.98512 20.448 2.9409 19.175 3.59358L18.517 3.94067C18.5166 3.94086 18.5163 3.94105 18.5159 3.94124C18.3379 4.03383 18.128 4.04336 17.9205 3.95375L16.0789 3.1349L16.0738 3.13267C15.1326 2.72248 14.0855 2.72248 13.1443 3.13267L11.2975 3.95376C11.0896 4.04353 10.879 4.03356 10.7025 3.94146C10.7023 3.94132 10.7028 3.9416 10.7025 3.94146L10.0508 3.59763L10.043 3.59358C8.76572 2.93868 7.46805 3.99848 7.46805 5.27676V8.64663M11.098 9.86515C11.098 9.45093 11.4338 9.11515 11.848 9.11515H17.247C17.6612 9.11515 17.997 9.45093 17.997 9.86515C17.997 10.2794 17.6612 10.6151 17.247 10.6151H11.848C11.4338 10.6151 11.098 10.2794 11.098 9.86515ZM11.098 14.0592C11.098 13.645 11.4338 13.3092 11.848 13.3092H17.247C17.6612 13.3092 17.997 13.645 17.997 14.0592C17.997 14.4734 17.6612 14.8092 17.247 14.8092H11.848C11.4338 14.8092 11.098 14.4734 11.098 14.0592Z" fill="black"/>
</svg>
