<svg width="24" height="24" viewBox="0 0 24 24" fill="none" xmlns="http://www.w3.org/2000/svg">
<path d="M15.0239 15.4531C15.0239 15.8672 14.688 16.2031 14.2739 16.2031H9.66113C9.24707 16.2031 8.91113 15.8672 8.91113 15.4531C8.91113 15.1641 9.07568 14.9121 9.31641 14.7871C9.41992 14.7344 9.53711 14.7031 9.66113 14.7031H14.2739C14.688 14.7031 15.0239 15.0391 15.0239 15.4531Z" fill="black"/>
<path d="M13.4863 11.8691C13.4863 12.2832 13.1499 12.6191 12.7363 12.6191H9.66113C9.24707 12.6191 8.91113 12.2832 8.91113 11.8691C8.91113 11.4551 9.24707 11.1191 9.66113 11.1191H12.7363C13.1499 11.1191 13.4863 11.4551 13.4863 11.8691Z" fill="black"/>
<path fill-rule="evenodd" clip-rule="evenodd" d="M5.17285 11.6289H5.01904C3.68213 11.6289 2.6001 10.5469 2.6001 9.20898V4.66992C2.6001 3.33008 3.68311 2.25 5.01904 2.25H18.9141C20.251 2.25 21.3311 3.33008 21.3311 4.66992V9.20898C21.3311 10.0898 20.8623 10.8613 20.1602 11.2852C19.7964 11.5039 19.3701 11.6289 18.9141 11.6289H18.7549L18.7642 19.5137C18.7661 20.7871 17.4351 21.627 16.2852 21.0762L15.6709 20.7812C15.4922 20.6953 15.2842 20.6895 15.1011 20.7637L13.3501 21.4785C12.4629 21.8418 11.4702 21.8418 10.583 21.4785L8.83496 20.7656C8.73682 20.7246 8.63232 20.707 8.52979 20.7129C8.43896 20.7188 8.34912 20.7402 8.26514 20.7812L7.64502 21.0781C6.49707 21.6289 5.16602 20.7891 5.16797 19.5156L5.17285 11.6289ZM5.17529 7.21094C5.17627 6.79688 5.51123 6.46094 5.92529 6.46094H18C18.4141 6.46094 18.749 6.79492 18.75 7.20898L18.7534 10.1289H18.9141C19.4209 10.1289 19.8311 9.71875 19.8311 9.20898V4.66992C19.8311 4.1582 19.4219 3.75 18.9141 3.75H5.01904C4.51025 3.75 4.1001 4.16016 4.1001 4.66992V9.20898C4.1001 9.71875 4.51123 10.1289 5.01904 10.1289H5.17334L5.17529 7.21094ZM17.2539 10.7832L17.251 7.96094H6.6748L6.67334 10.8008C6.67627 10.8262 6.67725 10.8516 6.67725 10.8789C6.67725 10.9062 6.67578 10.9316 6.67285 10.957L6.66797 19.5156C6.66699 19.6855 6.84521 19.7988 6.99805 19.7246L7.61719 19.4277C7.94141 19.2734 8.29443 19.2012 8.646 19.2129C8.90332 19.2227 9.15967 19.2773 9.40332 19.377L11.1499 20.0898C11.4175 20.1992 11.7017 20.252 11.9854 20.248C12.2563 20.2461 12.5273 20.1934 12.7842 20.0898L14.5342 19.375C15.1089 19.1406 15.7583 19.1602 16.3188 19.4297L16.9341 19.7227C17.0879 19.7969 17.2651 19.6836 17.2642 19.5156L17.2544 10.9766C17.2505 10.9453 17.248 10.9121 17.248 10.8789C17.248 10.8457 17.25 10.8145 17.2539 10.7832Z" fill="black"/>
</svg>
