<svg width="24" height="24" viewBox="0 0 24 24" fill="none" xmlns="http://www.w3.org/2000/svg">
<path d="M8.84693 14.4531C8.84693 14.0371 9.18335 13.7031 9.59693 13.7031H14.2849C14.699 13.7031 15.0349 14.0371 15.0349 14.4531C15.0349 14.8672 14.699 15.2031 14.2849 15.2031H9.59693C9.18335 15.2031 8.84693 14.8672 8.84693 14.4531Z" fill="black"/>
<path d="M13.9939 11.9668C13.7009 12.2598 13.2263 12.2598 12.9334 11.9668L11.9646 10.998L10.9939 11.9688C10.7009 12.2617 10.2263 12.2617 9.93335 11.9688C9.64087 11.6758 9.64087 11.1992 9.93335 10.9062L10.9031 9.9375L9.93189 8.9668C9.63892 8.67383 9.63892 8.19922 9.93091 7.90625C10.2239 7.61328 10.699 7.61328 10.9919 7.9043L11.9641 8.87695L12.9353 7.90625C13.2283 7.61328 13.7029 7.61328 13.9963 7.90625C14.135 8.04492 14.2083 8.22461 14.2156 8.40625C14.2234 8.60742 14.1506 8.8125 13.9963 8.9668L13.0251 9.9375L13.9939 10.9062C14.2869 11.1992 14.2869 11.6738 13.9939 11.9668Z" fill="black"/>
<path fill-rule="evenodd" clip-rule="evenodd" d="M7.35132 20.5801L6.59693 20.9414C5.29907 21.5625 3.7981 20.6152 3.80005 19.1758L3.81812 6.92383C3.81812 6.11914 3.94946 5.37109 4.2273 4.7168C4.41236 4.2793 4.66236 3.88477 4.9812 3.54297C5.78589 2.67969 6.93921 2.25 8.31128 2.25H15.6101C16.9783 2.25 18.135 2.67969 18.946 3.53906C19.7502 4.39258 20.1262 5.57812 20.1262 6.92578L20.136 19.1797C20.137 20.6172 18.637 21.5645 17.3401 20.9434L16.5803 20.5781C16.3171 20.4531 16.0139 20.4434 15.7429 20.5547L13.6013 21.4297C12.554 21.8574 11.3811 21.8574 10.3342 21.4297L8.18726 20.5547C7.91724 20.4434 7.61402 20.4531 7.3523 20.5781L7.35132 20.5801ZM17.2283 19.2266L17.988 19.5898C18.2878 19.7324 18.636 19.5137 18.636 19.1797L18.6262 6.92578C18.6262 6.25977 18.5125 5.70898 18.3147 5.26758C18.1917 4.99219 18.0359 4.75977 17.8542 4.56836C17.386 4.07227 16.6599 3.75 15.6101 3.75H8.31128C7.25708 3.75 6.53931 4.07227 6.07788 4.56445C5.61109 5.06641 5.31812 5.84375 5.31812 6.92578L5.30005 19.1777C5.30005 19.5137 5.6482 19.7324 5.94898 19.5879L6.70191 19.2266C7.08228 19.043 7.4978 18.9609 7.91089 18.9785C8.198 18.9922 8.48364 19.0547 8.75415 19.166L10.9011 20.041C11.2009 20.1641 11.5164 20.2324 11.8342 20.2461C12.241 20.2656 12.6506 20.1973 13.0339 20.041L15.176 19.166C15.8381 18.8945 16.5833 18.918 17.2283 19.2266Z" fill="black"/>
</svg>
