<svg width="24" height="24" viewBox="0 0 24 24" fill="none" xmlns="http://www.w3.org/2000/svg">
<path opacity="0.4" d="M9.53758 21.0671L9.53759 12.059C9.53759 11.9079 9.48712 11.7611 9.3942 11.642L7.97656 9.82422" stroke="black" stroke-width="1.5" stroke-linecap="round" stroke-linejoin="round"/>
<circle cx="1.0478" cy="1.0478" r="1.0478" transform="matrix(-1 -1.74846e-07 -1.74846e-07 1 8.20996 7.91406)" stroke="black" stroke-width="1.5" stroke-linecap="round" stroke-linejoin="round"/>
<circle cx="1.0478" cy="1.0478" r="1.0478" transform="matrix(-1 -1.74846e-07 -1.74846e-07 1 5.0957 13.125)" stroke="black" stroke-width="1.5" stroke-linecap="round" stroke-linejoin="round"/>
<path opacity="0.4" d="M7.00012 19.0508L7.00012 15.8134C7.00012 15.6104 6.87613 15.4279 6.68735 15.3532L5.04102 14.5058" stroke="black" stroke-width="1.5" stroke-linecap="round" stroke-linejoin="round"/>
<path opacity="0.4" d="M14.4614 21.0671L14.4614 12.059C14.4614 11.9079 14.5119 11.7611 14.6048 11.642L16.0225 9.82422" stroke="black" stroke-width="1.5" stroke-linecap="round" stroke-linejoin="round"/>
<circle cx="16.8378" cy="8.96187" r="1.0478" stroke="black" stroke-width="1.5" stroke-linecap="round" stroke-linejoin="round"/>
<circle cx="19.9521" cy="14.1728" r="1.0478" stroke="black" stroke-width="1.5" stroke-linecap="round" stroke-linejoin="round"/>
<path opacity="0.4" d="M16.9999 19.0508L16.9999 15.8134C16.9999 15.6104 17.1239 15.4279 17.3127 15.3532L18.959 14.5058" stroke="black" stroke-width="1.5" stroke-linecap="round" stroke-linejoin="round"/>
<path opacity="0.4" d="M12 6.1095L12 19.0677" stroke="black" stroke-width="1.5" stroke-linecap="round" stroke-linejoin="round"/>
<circle cx="12" cy="4.9814" r="1.0478" stroke="black" stroke-width="1.5" stroke-linecap="round" stroke-linejoin="round"/>
</svg>
