<svg width="24" height="24" viewBox="0 0 24 24" fill="none" xmlns="http://www.w3.org/2000/svg">
<g opacity="0.4">
<path d="M13.548 12H16.3533" stroke="black" stroke-width="1.5" stroke-linecap="round" stroke-linejoin="round"/>
<path d="M10.4527 12H7.6474" stroke="black" stroke-width="1.5" stroke-linecap="round" stroke-linejoin="round"/>
<path d="M17.5145 18.2858L14.4166 16.9998C13.8907 16.7814 13.5479 16.2679 13.5479 15.6984V8.30219C13.5479 7.7327 13.8907 7.2192 14.4166 7.00086L17.5145 5.71484" stroke="black" stroke-width="1.5" stroke-linecap="round" stroke-linejoin="round"/>
<path d="M6.48595 18.2858L9.58385 16.9998C10.1098 16.7814 10.4526 16.2679 10.4526 15.6984V8.30219C10.4526 7.7327 10.1098 7.2192 9.58385 7.00086L6.48595 5.71484" stroke="black" stroke-width="1.5" stroke-linecap="round" stroke-linejoin="round"/>
</g>
<circle cx="19.0078" cy="5.16066" r="1.49269" stroke="black" stroke-width="1.5" stroke-linecap="round" stroke-linejoin="round"/>
<circle cx="19.0078" cy="18.8404" r="1.49269" stroke="black" stroke-width="1.5" stroke-linecap="round" stroke-linejoin="round"/>
<circle cx="1.49269" cy="1.49269" r="1.49269" transform="matrix(-1 0 0 1 6.48584 3.66797)" stroke="black" stroke-width="1.5" stroke-linecap="round" stroke-linejoin="round"/>
<circle cx="1.49269" cy="1.49269" r="1.49269" transform="matrix(-1 0 0 1 6.48584 17.3477)" stroke="black" stroke-width="1.5" stroke-linecap="round" stroke-linejoin="round"/>
<circle cx="17.8467" cy="12.0005" r="1.49269" stroke="black" stroke-width="1.5" stroke-linecap="round" stroke-linejoin="round"/>
<circle cx="1.49269" cy="1.49269" r="1.49269" transform="matrix(-1 0 0 1 7.64697 10.5078)" stroke="black" stroke-width="1.5" stroke-linecap="round" stroke-linejoin="round"/>
</svg>
