<svg width="24" height="24" viewBox="0 0 24 24" fill="none" xmlns="http://www.w3.org/2000/svg">
<path opacity="0.4" d="M7.78216 3H16.2169C19.165 3 21 5.08119 21 8.02638V15.9736C21 18.9188 19.165 21 16.2159 21H7.78216C4.83405 21 3 18.9188 3 15.9736V8.02638C3 5.08119 4.84281 3 7.78216 3Z" stroke="black" stroke-width="1.5" stroke-linecap="round" stroke-linejoin="round"/>
<path d="M10.0542 13.9785L9.95316 13.7051C9.57229 12.6743 8.76077 11.8616 7.73145 11.4802L7.45852 11.379L7.73145 11.2779C8.76077 10.8965 9.57229 10.0837 9.95316 9.05293L10.0542 8.77953L10.1552 9.05293C10.5361 10.0837 11.3476 10.8965 12.3769 11.2779L12.6499 11.379L12.3769 11.4802C11.3476 11.8616 10.5361 12.6743 10.1552 13.7051L10.0542 13.9785Z" stroke="black" stroke-width="1.5" stroke-linecap="round" stroke-linejoin="round"/>
<path d="M15.3648 15.2206C15.1932 14.6559 14.752 14.214 14.1882 14.0421C14.752 13.8703 15.1932 13.4283 15.3648 12.8637C15.5364 13.4283 15.9777 13.8703 16.5415 14.0421C15.9777 14.214 15.5364 14.6559 15.3648 15.2206Z" stroke="black" stroke-width="1.5" stroke-linecap="round" stroke-linejoin="round"/>
</svg>
