<svg width="24" height="24" viewBox="0 0 24 24" fill="none" xmlns="http://www.w3.org/2000/svg">
<path d="M3.6531 10.9119C3.64337 14.9009 6.86939 18.1425 10.8594 18.1522C13.4583 18.1459 15.7338 16.7679 17.0017 14.7051" stroke="black" stroke-width="1.5" stroke-linecap="round" stroke-linejoin="round"/>
<path d="M10.8601 21.0002V18.1523" stroke="black" stroke-width="1.5" stroke-linecap="round" stroke-linejoin="round"/>
<path opacity="0.4" d="M10.8592 3C8.8384 3 7.19996 4.63844 7.19996 6.65926V10.8818C7.19607 12.9075 8.83354 14.5528 10.8592 14.5567H10.8612C12.469 14.5528 13.8326 13.5145 14.3236 12.0732" stroke="black" stroke-width="1.5" stroke-linecap="round" stroke-linejoin="round"/>
<path opacity="0.4" d="M14.8617 8.19897L14.7607 7.9256C14.3798 6.8948 13.5683 6.08208 12.5389 5.70065L12.266 5.5995L12.5389 5.49834C13.5683 5.11691 14.3798 4.30419 14.7607 3.27339L14.8617 2.99999L14.9627 3.27339C15.3435 4.30419 16.1551 5.11691 17.1844 5.49834L17.4574 5.5995L17.1844 5.70065C16.1551 6.08208 15.3435 6.8948 14.9627 7.9256L14.8617 8.19897Z" stroke="black" stroke-width="1.5" stroke-linecap="round" stroke-linejoin="round"/>
<path opacity="0.4" d="M19.1702 10.7131C18.9986 10.1485 18.5574 9.70655 17.9936 9.53469C18.5574 9.36282 18.9986 8.9209 19.1702 8.35624C19.3419 8.9209 19.7831 9.36282 20.3469 9.53469C19.7831 9.70655 19.3419 10.1485 19.1702 10.7131Z" stroke="black" stroke-width="1.5" stroke-linecap="round" stroke-linejoin="round"/>
</svg>
