<svg width="24" height="24" viewBox="0 0 24 24" fill="none" xmlns="http://www.w3.org/2000/svg">
<circle cx="1.04873" cy="1.04873" r="1.04873" transform="matrix(4.37114e-08 -1 -1 -4.37114e-08 19.918 8.41211)" stroke="black" stroke-width="1.5" stroke-linecap="round" stroke-linejoin="round"/>
<circle cx="1.04873" cy="1.04873" r="1.04873" transform="matrix(4.37114e-08 -1 -1 -4.37114e-08 16.6953 5.09766)" stroke="black" stroke-width="1.5" stroke-linecap="round" stroke-linejoin="round"/>
<path d="M11.7549 7.55849H14.0033C14.2065 7.55849 14.3891 7.43438 14.4639 7.24544L15.3121 5.04301" stroke="black" stroke-width="1.5" stroke-linecap="round" stroke-linejoin="round"/>
<path d="M18.7803 12.0078L11.7556 12.0078" stroke="black" stroke-width="1.5" stroke-linecap="round" stroke-linejoin="round"/>
<path d="M18.0071 8.17969L16.1878 9.59858C16.0685 9.69158 15.9216 9.74209 15.7704 9.74209L11.8253 9.74209C10.5783 9.74209 9.56738 10.753 9.56738 12C9.56738 13.247 10.5783 14.2579 11.8253 14.2579H15.7704C15.9216 14.2579 16.0685 14.3084 16.1878 14.4014L18.0071 15.8203" stroke="black" stroke-width="1.5" stroke-linecap="round" stroke-linejoin="round"/>
<circle cx="18.8692" cy="16.6366" r="1.04873" transform="rotate(90 18.8692 16.6366)" stroke="black" stroke-width="1.5" stroke-linecap="round" stroke-linejoin="round"/>
<circle cx="1.04873" cy="1.04873" r="1.04873" transform="matrix(-4.37114e-08 -1 -1 4.37114e-08 20.958 13.0566)" stroke="black" stroke-width="1.5" stroke-linecap="round" stroke-linejoin="round"/>
<circle cx="15.6466" cy="19.9512" r="1.04873" transform="rotate(90 15.6466 19.9512)" stroke="black" stroke-width="1.5" stroke-linecap="round" stroke-linejoin="round"/>
<path d="M11.7549 16.4415H14.0033C14.2065 16.4415 14.3891 16.5656 14.4639 16.7546L15.3121 18.957" stroke="black" stroke-width="1.5" stroke-linecap="round" stroke-linejoin="round"/>
<path opacity="0.4" d="M12.3236 20.9958C12.0305 21.0044 11.7364 20.9994 11.4435 20.9799C11.0164 20.9514 10.6288 20.7163 10.4168 20.3439L9.77251 19.211C9.63218 18.9635 9.40875 18.7797 9.1473 18.667L9.13883 18.6633C8.87813 18.5489 8.59128 18.5108 8.31457 18.577L7.04573 18.8779C6.62841 18.9776 6.1925 18.8536 5.87958 18.5603C5.66643 18.3597 5.4622 18.1479 5.26906 17.9268C4.98689 17.6046 4.8789 17.1645 4.99264 16.7523L5.33808 15.4944C5.41321 15.2197 5.38538 14.9314 5.28143 14.6675C5.27962 14.6647 5.27903 14.6614 5.27808 14.659C5.17365 14.3938 4.99828 14.1643 4.7556 14.0155L3.64517 13.331C3.28044 13.1058 3.05934 12.7103 3.04596 12.2822C3.03648 11.9888 3.04229 11.695 3.06181 11.4021C3.0903 10.975 3.32455 10.587 3.69659 10.3758L4.83875 9.72652C5.07736 9.5904 5.26405 9.3813 5.37184 9.12881C5.3791 9.1098 5.38721 9.09115 5.39531 9.07251C5.50284 8.82293 5.52981 8.54537 5.46641 8.28093L5.16298 7.00394C5.06409 6.58699 5.18815 6.15108 5.48147 5.83817C5.68202 5.62502 5.89296 5.42041 6.11403 5.22727C6.43717 4.94547 6.87638 4.83712 7.28941 4.95122L8.54607 5.29714C8.82081 5.37228 9.1091 5.34444 9.37424 5.24001C9.37704 5.23821 9.38032 5.23762 9.38276 5.23666C9.64705 5.13187 9.87653 4.95649 10.0263 4.71418L10.7108 3.60376C10.9351 3.23865 11.3314 3.01792 11.7596 3.00455C12.053 2.99506 12.3459 3.00051 12.6388 3.02003" stroke="black" stroke-width="1.5" stroke-linecap="round" stroke-linejoin="round"/>
</svg>
