<svg width="24" height="24" viewBox="0 0 24 24" fill="none" xmlns="http://www.w3.org/2000/svg">
<path opacity="0.4" d="M14.5928 11.373H16.2285" stroke="black" stroke-width="1.5" stroke-linecap="round" stroke-linejoin="round"/>
<path opacity="0.4" d="M6.51025 11.373H8.14598" stroke="black" stroke-width="1.5" stroke-linecap="round" stroke-linejoin="round"/>
<path d="M3.18628 7.5614C8.61156 8.33065 14.1182 8.33065 19.5435 7.5614" stroke="black" stroke-width="1.5" stroke-linecap="round" stroke-linejoin="round"/>
<path d="M19.5608 11.1254C19.5602 10.3876 19.3249 9.66892 18.8888 9.07383L17.8278 7.65C17.7429 7.53005 17.6745 7.39967 17.6245 7.26145L16.6695 4.60892C16.4305 3.92713 15.8089 3.40657 15.0957 3.2913C12.6323 2.9029 10.1233 2.9029 7.65984 3.2913C6.94981 3.40951 6.33239 3.92945 6.09483 4.60892L5.13986 7.26145C5.08972 7.39411 5.02128 7.51903 4.93651 7.63273L3.85785 9.11787C3.43121 9.70666 3.20216 10.4156 3.20357 11.1427L3.18873 15.8801C3.18715 16.3839 3.59507 16.7931 4.09882 16.7931H5.90201C6.40464 16.7931 6.81211 16.3856 6.81211 15.883V15.51C6.81211 15.0074 7.21957 14.5999 7.72221 14.5999H12.203" stroke="black" stroke-width="1.5" stroke-linecap="round" stroke-linejoin="round"/>
<path opacity="0.4" d="M18.1135 19.7079L18.2186 19.4235C18.6148 18.3512 19.459 17.5057 20.5298 17.1089L20.8137 17.0037L20.5298 16.8985C19.459 16.5017 18.6148 15.6562 18.2186 14.5839L18.1135 14.2995L18.0084 14.5839C17.6122 15.6562 16.768 16.5017 15.6972 16.8985L15.4132 17.0037L15.6972 17.1089C16.768 17.5057 17.6122 18.3512 18.0084 19.4235L18.1135 19.7079Z" stroke="black" stroke-width="1.5" stroke-linecap="round" stroke-linejoin="round"/>
<path opacity="0.4" d="M12.5889 21C12.7675 20.4126 13.2265 19.9529 13.813 19.7741C13.2265 19.5953 12.7675 19.1356 12.5889 18.5482C12.4104 19.1356 11.9514 19.5953 11.3649 19.7741C11.9514 19.9529 12.4104 20.4126 12.5889 21Z" stroke="black" stroke-width="1.5" stroke-linecap="round" stroke-linejoin="round"/>
</svg>
