<svg width="24" height="24" viewBox="0 0 24 24" fill="none" xmlns="http://www.w3.org/2000/svg">
<circle cx="1.30217" cy="1.30217" r="1.30217" transform="matrix(1 0 0 -1 18.3955 6.24609)" stroke="black" stroke-width="1.5" stroke-linecap="round" stroke-linejoin="round"/>
<circle cx="4.30232" cy="4.94392" r="1.30217" transform="rotate(180 4.30232 4.94392)" stroke="black" stroke-width="1.5" stroke-linecap="round" stroke-linejoin="round"/>
<circle cx="1.30217" cy="1.30217" r="1.30217" transform="matrix(1 0 0 -1 18.3955 20.3594)" stroke="black" stroke-width="1.5" stroke-linecap="round" stroke-linejoin="round"/>
<circle cx="4.30232" cy="19.0572" r="1.30217" transform="rotate(180 4.30232 19.0572)" stroke="black" stroke-width="1.5" stroke-linecap="round" stroke-linejoin="round"/>
<path fill-rule="evenodd" clip-rule="evenodd" d="M12.0052 17.1631C12.0052 17.1631 16.2072 15.8909 16.2072 12.3836C16.2072 8.87625 16.3598 8.6044 16.0224 8.26444C15.6845 7.92392 12.5565 6.83594 12.0052 6.83594C11.4544 6.83594 8.32584 7.92671 7.98791 8.26444C7.65056 8.6016 7.80374 8.87569 7.80374 12.3836C7.80374 15.8915 12.0052 17.1631 12.0052 17.1631Z" stroke="black" stroke-width="1.5" stroke-linecap="round" stroke-linejoin="round"/>
<path opacity="0.4" d="M19.6978 17.7541V15.2821C19.6978 14.7455 19.2628 14.3105 18.7262 14.3105L15.7482 14.3105" stroke="black" stroke-width="1.5" stroke-linecap="round" stroke-linejoin="round"/>
<path opacity="0.4" d="M4.30176 17.7541L4.30176 15.2821C4.30176 14.7455 4.73673 14.3105 5.2733 14.3105L8.23405 14.3105" stroke="black" stroke-width="1.5" stroke-linecap="round" stroke-linejoin="round"/>
<path opacity="0.4" d="M19.6978 6.24609L19.6978 8.70581C19.6978 9.24238 19.2628 9.67735 18.7263 9.67735H16.2544" stroke="black" stroke-width="1.5" stroke-linecap="round" stroke-linejoin="round"/>
<path opacity="0.4" d="M4.30176 6.24609L4.30176 8.70581C4.30176 9.24238 4.73673 9.67735 5.2733 9.67735H7.75719" stroke="black" stroke-width="1.5" stroke-linecap="round" stroke-linejoin="round"/>
</svg>
