<svg width="24" height="24" viewBox="0 0 24 24" fill="none" xmlns="http://www.w3.org/2000/svg">
<g opacity="0.4">
<path d="M12 3C16.9706 3 21 7.02944 21 12C21 16.9706 16.9706 21 12 21C7.02944 21 3 16.9706 3 12C3 10.9026 3.19641 9.85105 3.55601 8.87863" stroke="black" stroke-width="1.5" stroke-linecap="round"/>
<path d="M3 11.8958L6.2217 12.5104C6.2217 12.5104 8.00133 14.3371 8.69054 14.6134V17.0823L7.43528 19.5327" stroke="black" stroke-width="1.5" stroke-linecap="round" stroke-linejoin="round"/>
<path d="M20.9176 11.3862C18.4749 12.1819 19.1439 10.1595 17.6022 9.54135C17.233 9.38238 14.4232 8.51622 14.3069 8.85471C13.5658 10.8868 12.9982 9.85538 14.7736 11.6181C16.802 13.4907 14.4642 14.2223 14.3069 15.8951C14.1594 17.4643 12.868 18.8681 14.0903 20.6831" stroke="black" stroke-width="1.5" stroke-linecap="round" stroke-linejoin="round"/>
</g>
<path d="M9.21418 4.45776L9.30381 4.7003C9.64172 5.61484 10.3617 6.3359 11.2749 6.67431L11.5171 6.76406L11.2749 6.85381C10.3617 7.19222 9.64172 7.91328 9.30381 8.82782L9.21418 9.07038L9.12456 8.82782C8.78665 7.91328 8.06666 7.19222 7.15343 6.85381L6.91121 6.76406L7.15343 6.67431C8.06666 6.3359 8.78665 5.61484 9.12456 4.7003L9.21418 4.45776Z" stroke="black" stroke-width="1.5" stroke-linecap="round" stroke-linejoin="round"/>
<path d="M4.17673 2.65161C4.34834 3.21628 4.78959 3.65819 5.35339 3.83006C4.78959 4.00193 4.34834 4.44384 4.17673 5.00851C4.00512 4.44384 3.56387 4.00193 3.00006 3.83006C3.56387 3.65819 4.00512 3.21628 4.17673 2.65161Z" stroke="black" stroke-width="1.5" stroke-linecap="round" stroke-linejoin="round"/>
</svg>
