<svg width="24" height="24" viewBox="0 0 24 24" fill="none" xmlns="http://www.w3.org/2000/svg">
<path opacity="0.4" d="M11.6902 21C10.2901 20.6945 8.87891 20.088 7.57226 19.1731C4.40936 16.9584 2.73513 13.55 3.01207 10.5254" stroke="black" stroke-width="1.5" stroke-linecap="round"/>
<path opacity="0.4" d="M18.6878 8.8103C21.1402 11.8021 21.248 15.0228 20.2922 16.4565C18.3807 19.3238 14.5576 17.4123 14.5576 17.4123" stroke="black" stroke-width="1.5" stroke-linecap="round"/>
<path opacity="0.4" d="M15.0381 5.85047C13.5902 5.09075 12.0668 4.67663 10.6066 4.59924" stroke="black" stroke-width="1.5" stroke-linecap="round"/>
<path d="M17.3432 3.48766C18.2202 2.516 19.2342 3.18506 19.9843 3.86209C20.7345 4.53913 21.5037 5.47949 20.6267 6.45115L12.6724 14.8327C12.4059 15.128 12.0326 15.3046 11.6353 15.3233L9.63731 15.4174C9.36462 15.4302 9.13257 15.2208 9.11748 14.9482L9.00692 12.9511C8.98494 12.554 9.12247 12.1645 9.38896 11.8693L17.3432 3.48766Z" stroke="black" stroke-width="1.5" stroke-linecap="round" stroke-linejoin="round"/>
<path d="M6.1851 4.40076L6.27078 4.63262C6.59381 5.50689 7.2821 6.19621 8.15513 6.51972L8.38662 6.60552L8.15513 6.69131C7.2821 7.01482 6.59381 7.70414 6.27078 8.57841L6.1851 8.8103L6.09942 8.57841C5.77639 7.70414 5.0881 7.01482 4.21507 6.69131L3.98352 6.60552L4.21507 6.51972C5.0881 6.19621 5.77639 5.50689 6.09942 4.63262L6.1851 4.40076Z" stroke="black" stroke-width="1.5" stroke-linecap="round" stroke-linejoin="round"/>
</svg>
