<svg width="24" height="24" viewBox="0 0 24 24" fill="none" xmlns="http://www.w3.org/2000/svg">
<path opacity="0.4" fill-rule="evenodd" clip-rule="evenodd" d="M10.8158 19.553L3.50961 11.5258C2.89954 10.8545 2.82948 9.85131 3.34128 9.10211L6.2914 4.77909C6.65627 4.24394 7.26245 3.92383 7.91046 3.92383H16.0972C16.7453 3.92383 17.3524 4.24492 17.7173 4.78006L20.6596 9.10211C21.1704 9.85229 21.1004 10.8545 20.4893 11.5249L13.1822 19.553C12.5478 20.2507 11.4502 20.2507 10.8158 19.553Z" stroke="black" stroke-width="1.5" stroke-linecap="round" stroke-linejoin="round"/>
<path d="M9.67688 11.7438L9.58647 11.4991C9.2456 10.5766 8.51931 9.8492 7.59808 9.50783L7.35382 9.4173L7.59808 9.32676C8.51931 8.98539 9.2456 8.25802 9.58647 7.33548L9.67688 7.09079L9.76728 7.33548C10.1081 8.25802 10.8344 8.98539 11.7557 9.32676L12 9.4173L11.7557 9.50783C10.8344 9.8492 10.1081 10.5766 9.76728 11.4991L9.67688 11.7438Z" stroke="black" stroke-width="1.5" stroke-linecap="round" stroke-linejoin="round"/>
<path d="M14.3401 13.0795C14.1829 12.5622 13.7787 12.1575 13.2623 12C13.7787 11.8426 14.1829 11.4378 14.3401 10.9206C14.4973 11.4378 14.9015 11.8426 15.4179 12C14.9015 12.1575 14.4973 12.5622 14.3401 13.0795Z" stroke="black" stroke-width="1.5" stroke-linecap="round" stroke-linejoin="round"/>
</svg>
