<svg width="24" height="24" viewBox="0 0 24 24" fill="none" xmlns="http://www.w3.org/2000/svg">
<path fill-rule="evenodd" clip-rule="evenodd" d="M12.6403 4.75391H5.84984C3.48329 4.75391 2 6.42963 2 8.80051V15.1985C2 17.5694 3.47572 19.2451 5.84984 19.2451H12.6392C15.0133 19.2451 16.4912 17.5694 16.4912 15.1985V8.80051C16.4912 6.42963 15.0133 4.75391 12.6403 4.75391Z" stroke="black" stroke-width="1.5" stroke-linecap="round" stroke-linejoin="round"/>
<path d="M16.4844 9.99068L19.891 7.20249C20.4423 6.75058 21.2564 6.83167 21.7083 7.38304C21.8975 7.61439 22.0013 7.90413 22.0002 8.20252L21.9883 15.8038C21.9862 16.5174 21.4078 17.0947 20.6942 17.0925C20.3969 17.0925 20.1083 16.9887 19.878 16.7995L16.4844 14.0124" stroke="black" stroke-width="1.5" stroke-linecap="round" stroke-linejoin="round"/>
<path opacity="0.4" d="M7.48194 13.7927L7.39039 13.545C7.04519 12.6107 6.30967 11.8741 5.37673 11.5284L5.12936 11.4367L5.37673 11.345C6.30967 10.9993 7.04519 10.2627 7.39039 9.3284L7.48194 9.0806L7.5735 9.3284C7.9187 10.2627 8.65422 10.9993 9.58716 11.345L9.83459 11.4367L9.58716 11.5284C8.65422 11.8741 7.9187 12.6107 7.5735 13.545L7.48194 13.7927Z" stroke="black" stroke-width="1.5" stroke-linecap="round" stroke-linejoin="round"/>
<path opacity="0.4" d="M12.2953 14.9185C12.1398 14.4067 11.7399 14.0061 11.2289 13.8504C11.7399 13.6946 12.1398 13.2941 12.2953 12.7823C12.4509 13.2941 12.8508 13.6946 13.3618 13.8504C12.8508 14.0061 12.4509 14.4067 12.2953 14.9185Z" stroke="black" stroke-width="1.5" stroke-linecap="round" stroke-linejoin="round"/>
</svg>
