<svg width="24" height="24" viewBox="0 0 24 24" fill="none" xmlns="http://www.w3.org/2000/svg">
<path d="M13.3917 3.14453C15.9737 3.67255 18.0625 5.74975 18.6022 8.33269C19.3026 11.7072 17.4657 14.8181 14.6425 16.0118V18.2556C14.6425 19.7234 13.4411 20.9248 11.9743 20.9248C10.5065 20.9248 9.30514 19.7234 9.30514 18.2556V16.0001C7.55058 15.2604 6.1758 13.7978 5.55127 11.983" stroke="black" stroke-width="1.5" stroke-linecap="round" stroke-linejoin="round"/>
<path d="M9.2959 16.0156H14.6391" stroke="black" stroke-width="1.5" stroke-linecap="round" stroke-linejoin="round"/>
<path opacity="0.4" d="M10.0452 4.65601L10.0432 4.65198C9.97939 4.54113 9.93976 4.41751 9.94177 4.28919L9.94916 3.87132C9.95252 3.65566 9.85242 3.45008 9.67841 3.32377C9.49165 3.18874 9.29211 3.07318 9.08116 2.9798C8.88498 2.89246 8.65656 2.90858 8.47248 3.01944L8.1144 3.23375C8.00422 3.30026 7.87724 3.32848 7.74825 3.32781H7.74422C7.6159 3.32781 7.4896 3.30026 7.37942 3.23442L7.02066 3.01944C6.83591 2.90858 6.60816 2.89246 6.41131 2.9798C6.20103 3.07385 6.00082 3.18941 5.81473 3.32445C5.64072 3.45142 5.54129 3.657 5.54465 3.87199L5.55204 4.28919C5.55406 4.41818 5.51442 4.5418 5.44992 4.65332L5.44791 4.65736C5.38341 4.76821 5.29607 4.86361 5.18455 4.92542L4.81908 5.12831C4.62626 5.2358 4.50063 5.43197 4.47846 5.65099C4.45629 5.87068 4.45629 6.09238 4.47913 6.31207C4.5013 6.53109 4.62693 6.72726 4.81975 6.83408L5.18388 7.0363C5.29675 7.09878 5.38408 7.19485 5.44858 7.30638L5.4506 7.30974C5.51442 7.42126 5.55406 7.54488 5.55204 7.67319L5.54465 8.0904C5.54129 8.30606 5.64139 8.51164 5.81607 8.63861C6.00217 8.77365 6.2017 8.88921 6.41265 8.98259C6.60883 9.06993 6.83725 9.0538 7.02133 8.94295L7.37942 8.72797C7.4896 8.66213 7.61657 8.63391 7.74489 8.63458H7.74959C7.87791 8.63458 8.00422 8.66213 8.1144 8.72797L8.47248 8.94295C8.65723 9.0538 8.88566 9.06993 9.0825 8.98259C9.29278 8.88853 9.49299 8.77298 9.67909 8.63794C9.85309 8.51097 9.95252 8.30539 9.94916 8.0904L9.94177 7.67319C9.93976 7.5442 9.97939 7.42059 10.0439 7.30974L10.0459 7.30503C10.1104 7.19418 10.1977 7.09878 10.3099 7.0363L10.6747 6.83408C10.8676 6.72659 10.9932 6.53041 11.0154 6.3114C11.0375 6.09104 11.0375 5.87001 11.0147 5.64965C10.9925 5.43063 10.8669 5.23513 10.6741 5.12831L10.3099 4.92609C10.1971 4.86361 10.1097 4.76754 10.0452 4.65601Z" stroke="black" stroke-width="1.5" stroke-linecap="round" stroke-linejoin="round"/>
<path d="M7.75182 5.961V5.91224M7.74551 5.76758C7.62826 5.76758 7.53275 5.86308 7.5337 5.98033C7.5337 6.09758 7.6292 6.19309 7.74645 6.19309C7.8637 6.19309 7.95921 6.09758 7.95921 5.98033C7.95921 5.86214 7.8637 5.76758 7.74551 5.76758Z" stroke="black" stroke-width="1.5" stroke-linecap="round" stroke-linejoin="round"/>
<path opacity="0.4" d="M13.5054 8.72852V9.46804M13.5054 12.426V13.1656M11.582 9.83767L12.2205 10.2074M14.7893 11.6868L15.4271 12.0565M11.582 12.0565L12.2205 11.6868M14.7893 10.2074L15.4271 9.83767M14.5505 9.90063C15.1279 10.478 15.1279 11.4154 14.5505 11.9927C13.9732 12.5701 13.0364 12.5701 12.4591 11.9927C11.8818 11.4154 11.8818 10.478 12.4591 9.90063C13.0364 9.324 13.9732 9.324 14.5505 9.90063Z" stroke="black" stroke-width="1.5" stroke-linecap="round" stroke-linejoin="round"/>
</svg>
