<svg width="24" height="24" viewBox="0 0 24 24" fill="none" xmlns="http://www.w3.org/2000/svg">
<path opacity="0.4" d="M16.7738 19.6883C16.3331 19.0297 15.4302 18.8597 14.758 19.3092L13.818 19.9384C12.7783 20.6292 11.3869 20.3674 10.7019 19.3541L10.0062 18.3135" stroke="black" stroke-width="1.5" stroke-linecap="round" stroke-linejoin="round"/>
<path opacity="0.4" d="M14.9004 13.7521C16.5097 13.9964 18.205 13.4932 19.444 12.2552C21.5233 10.1759 21.5165 6.80481 19.4372 4.72452C18.1092 3.39712 16.2488 2.9171 14.5365 3.28986" stroke="black" stroke-width="1.5" stroke-linecap="round" stroke-linejoin="round"/>
<path d="M3.95921 17.0655L10.3613 9.25342L14.8717 13.7638L7.20813 20.2607C5.08289 22.0625 2.19355 19.22 3.95921 17.0655Z" stroke="black" stroke-width="1.5" stroke-linecap="round" stroke-linejoin="round"/>
<path d="M5.45385 9.54041L5.35836 9.28197C4.99831 8.30751 4.23115 7.53921 3.25807 7.17863L3.00006 7.083L3.25807 6.98737C4.23115 6.62679 4.99831 5.85849 5.35836 4.88403L5.45385 4.62557L5.54935 4.88403C5.9094 5.85849 6.67656 6.62679 7.64963 6.98737L7.90771 7.083L7.64963 7.17863C6.67656 7.53921 5.9094 8.30751 5.54935 9.28197L5.45385 9.54041Z" stroke="black" stroke-width="1.5" stroke-linecap="round" stroke-linejoin="round"/>
<path d="M11.6913 6.57251C11.5229 6.01835 11.0898 5.58465 10.5365 5.41598C11.0898 5.24731 11.5229 4.81362 11.6913 4.25945C11.8597 4.81362 12.2927 5.24731 12.8461 5.41598C12.2927 5.58465 11.8597 6.01835 11.6913 6.57251Z" stroke="black" stroke-width="1.5" stroke-linecap="round" stroke-linejoin="round"/>
</svg>
