<svg width="24" height="24" viewBox="0 0 24 24" fill="none" xmlns="http://www.w3.org/2000/svg">
<path d="M20.1282 10.3537V7.76655C20.1282 4.97414 18.3886 3 15.5932 3H7.59547C4.79819 3 3.05853 4.97414 3.05853 7.76655V15.38C3.05853 18.1724 4.79819 20.1465 7.59449 20.1465H10.203" stroke="black" stroke-width="1.5" stroke-linecap="round" stroke-linejoin="round"/>
<path d="M3.06641 7.46875H20.1234" stroke="black" stroke-width="1.5" stroke-linecap="round" stroke-linejoin="round"/>
<path opacity="0.4" d="M8.62305 7.46785V3M14.5654 7.46785V3" stroke="black" stroke-width="1.5" stroke-linecap="round" stroke-linejoin="round"/>
<path opacity="0.4" d="M17.0262 13.9333L17.1469 14.2601C17.6021 15.4919 18.5719 16.4632 19.8021 16.9191L20.1282 17.04L19.8021 17.1609C18.5719 17.6167 17.6021 18.588 17.1469 19.8199L17.0262 20.1466L16.9055 19.8199C16.4503 18.588 15.4805 17.6167 14.2503 17.1609L13.9241 17.04L14.2503 16.9191C15.4805 16.4632 16.4503 15.4919 16.9055 14.2601L17.0262 13.9333Z" stroke="black" stroke-width="1.5" stroke-linecap="round" stroke-linejoin="round"/>
<path opacity="0.4" d="M10.3544 11.7976C10.6069 12.6285 11.2562 13.2787 12.0858 13.5316C11.2562 13.7845 10.6069 14.4347 10.3544 15.2656C10.1019 14.4347 9.45265 13.7845 8.62305 13.5316C9.45265 13.2787 10.1019 12.6285 10.3544 11.7976Z" stroke="black" stroke-width="1.5" stroke-linecap="round" stroke-linejoin="round"/>
</svg>
