<svg width="24" height="24" viewBox="0 0 24 24" fill="none" xmlns="http://www.w3.org/2000/svg">
<path d="M19.123 8.7072C19.123 6.37444 17.6695 4.72656 15.3349 4.72656H8.65433C6.32697 4.72656 4.86719 6.37444 4.86719 8.7072V11.9553" stroke="black" stroke-width="1.5" stroke-linecap="round" stroke-linejoin="round"/>
<g opacity="0.4">
<path d="M4.86914 15.291C4.86914 17.6238 6.32172 19.2717 8.65629 19.2717H15.336C17.6715 19.2717 19.1249 17.6238 19.1249 15.291V12.043" stroke="black" stroke-width="1.5" stroke-linecap="round" stroke-linejoin="round"/>
<path d="M21.0013 13.9284L19.1158 12.043L17.2402 13.9185" stroke="black" stroke-width="1.5" stroke-linecap="round" stroke-linejoin="round"/>
</g>
<path d="M3 10.0703L4.88547 11.9558L6.76105 10.0811" stroke="black" stroke-width="1.5" stroke-linecap="round" stroke-linejoin="round"/>
<path d="M10.359 11.5769L10.2796 11.7917C9.98042 12.6014 9.34293 13.2399 8.53433 13.5395L8.31992 13.619L8.53433 13.6984C9.34293 13.9981 9.98042 14.6365 10.2796 15.4462L10.359 15.661L10.4383 15.4462C10.7375 14.6365 11.375 13.9981 12.1836 13.6984L12.3981 13.619L12.1836 13.5395C11.375 13.2399 10.7375 12.6014 10.4383 11.7917L10.359 11.5769Z" stroke="black" stroke-width="1.5" stroke-linecap="round" stroke-linejoin="round"/>
<path d="M14.5034 8.33887C14.3318 8.90353 13.8905 9.34545 13.3267 9.51732C13.8905 9.68918 14.3318 10.1311 14.5034 10.6958C14.675 10.1311 15.1162 9.68918 15.6801 9.51732C15.1162 9.34545 14.675 8.90353 14.5034 8.33887Z" stroke="black" stroke-width="1.5" stroke-linecap="round" stroke-linejoin="round"/>
</svg>
