<svg width="24" height="24" viewBox="0 0 24 24" fill="none" xmlns="http://www.w3.org/2000/svg">
<path d="M20.0499 11.4175C20.0499 6.76847 16.2814 3 11.6324 3C6.98331 3 3.21484 6.76847 3.21484 11.4175C3.21484 16.0666 6.98331 19.836 11.6324 19.836C16.2814 19.836 20.0499 16.0666 20.0499 11.4175Z" stroke="black" stroke-width="1.5" stroke-linecap="round" stroke-linejoin="round"/>
<path d="M17.3613 17.584L20.7863 21.0002" stroke="black" stroke-width="1.5" stroke-linecap="round" stroke-linejoin="round"/>
<path opacity="0.4" d="M9.6865 12.962L9.58548 12.6887C9.20462 11.6579 8.3931 10.8451 7.36377 10.4637L7.09084 10.3626L7.36377 10.2614C8.3931 9.87997 9.20462 9.06725 9.58548 8.03645L9.6865 7.76305L9.78751 8.03645C10.1684 9.06725 10.9799 9.87997 12.0092 10.2614L12.2822 10.3626L12.0092 10.4637C10.9799 10.8451 10.1684 11.6579 9.78751 12.6887L9.6865 12.962Z" stroke="black" stroke-width="1.5" stroke-linecap="round" stroke-linejoin="round"/>
<path opacity="0.4" d="M14.9972 14.2041C14.8255 13.6394 14.3843 13.1975 13.8205 13.0257C14.3843 12.8538 14.8255 12.4119 14.9972 11.8472C15.1688 12.4119 15.61 12.8538 16.1738 13.0257C15.61 13.1975 15.1688 13.6394 14.9972 14.2041Z" stroke="black" stroke-width="1.5" stroke-linecap="round" stroke-linejoin="round"/>
</svg>
