<svg width="24" height="24" viewBox="0 0 24 24" fill="none" xmlns="http://www.w3.org/2000/svg">
<path opacity="0.4" d="M12 21C7.02908 21 3 16.9709 3 12C3 7.03005 7.02908 3 12 3C15.6064 3 18.7171 5.12122 20.1531 8.18363" stroke="black" stroke-width="1.5" stroke-linecap="round" stroke-linejoin="round"/>
<path fill-rule="evenodd" clip-rule="evenodd" d="M12.8193 14.2077C12.6801 15.3607 11.6332 16.1828 10.4803 16.0437C9.32728 15.9055 8.50512 14.8577 8.64426 13.7047C8.78339 12.5517 9.83031 11.7305 10.9833 11.8687C12.1363 12.0078 12.9584 13.0547 12.8193 14.2077Z" stroke="black" stroke-width="1.5" stroke-linecap="round" stroke-linejoin="round"/>
<path d="M12.8203 14.2074L13.5757 7.94141C13.5757 7.94141 13.9474 9.41838 15.3708 9.89027" stroke="black" stroke-width="1.5" stroke-linecap="round" stroke-linejoin="round"/>
<path d="M18.1704 15.6655L18.2719 15.9402C18.6546 16.9758 19.4699 17.7924 20.5041 18.1756L20.7783 18.2772L20.5041 18.3789C19.4699 18.7621 18.6546 19.5786 18.2719 20.6143L18.1704 20.889L18.069 20.6143C17.6863 19.5786 16.871 18.7621 15.8368 18.3789L15.5625 18.2772L15.8368 18.1756C16.871 17.7924 17.6863 16.9758 18.069 15.9402L18.1704 15.6655Z" stroke="black" stroke-width="1.5" stroke-linecap="round" stroke-linejoin="round"/>
<path d="M21.0576 11.0745C21.2489 11.7037 21.7406 12.1962 22.3689 12.3877C21.7406 12.5793 21.2489 13.0717 21.0576 13.701C20.8664 13.0717 20.3747 12.5793 19.7463 12.3877C20.3747 12.1962 20.8664 11.7037 21.0576 11.0745Z" stroke="black" stroke-width="1.5" stroke-linecap="round" stroke-linejoin="round"/>
</svg>
