<svg width="24" height="24" viewBox="0 0 24 24" fill="none" xmlns="http://www.w3.org/2000/svg">
<path opacity="0.4" fill-rule="evenodd" clip-rule="evenodd" d="M12.2842 17.5998C12.1011 17.437 11.8647 17.3472 11.6198 17.3472H6C4.343 17.3472 3 16.0042 3 14.3472V6.34717C3 4.69017 4.343 3.34717 6 3.34717H18C19.657 3.34717 21 4.69017 21 6.34717V14.3472C21 16.0042 19.657 17.3472 18 17.3472H17C16.7239 17.3472 16.5 17.571 16.5 17.8472V20.2337C16.5 20.6652 15.9903 20.8941 15.6678 20.6075L12.2842 17.5998Z" stroke="black" stroke-width="1.5" stroke-linecap="round" stroke-linejoin="round"/>
<path d="M9.56783 12.3169L9.46681 12.0435C9.08594 11.0127 8.27443 10.2 7.2451 9.81858L6.97217 9.71743L7.2451 9.61627C8.27443 9.23484 9.08594 8.42212 9.46681 7.39132L9.56783 7.11792L9.66884 7.39132C10.0497 8.42212 10.8612 9.23484 11.8906 9.61627L12.1636 9.71743L11.8906 9.81858C10.8612 10.2 10.0497 11.0127 9.66884 12.0435L9.56783 12.3169Z" stroke="black" stroke-width="1.5" stroke-linecap="round" stroke-linejoin="round"/>
<path d="M15.4709 13.2194C15.2992 12.6548 14.858 12.2129 14.2942 12.041C14.858 11.8691 15.2992 11.4272 15.4709 10.8625C15.6425 11.4272 16.0837 11.8691 16.6475 12.041C16.0837 12.2129 15.6425 12.6548 15.4709 13.2194Z" stroke="black" stroke-width="1.5" stroke-linecap="round" stroke-linejoin="round"/>
</svg>
