<svg width="24" height="24" viewBox="0 0 24 24" fill="none" xmlns="http://www.w3.org/2000/svg">
<path d="M20.1364 11.4147V8.58629C20.1448 5.71246 18.4081 4.14905 15.6047 4.14905H7.54756C4.7525 4.14905 3.00745 5.71246 3.00745 8.58629V15.333C3.00745 18.2513 4.7525 19.8509 7.54756 19.8509H14.4621" stroke="black" stroke-width="1.5" stroke-linecap="round" stroke-linejoin="round"/>
<path opacity="0.4" d="M20.1448 8.73682H3" stroke="black" stroke-width="1.5" stroke-linecap="round" stroke-linejoin="round"/>
<path opacity="0.4" d="M11.2893 15.6497H10.7796M6.57178 12.3572H8.67734M8.20335 15.6497H6.62789" stroke="black" stroke-width="1.5" stroke-linecap="round" stroke-linejoin="round"/>
<path d="M18.5275 14.0034L18.6238 14.2638C18.9865 15.2457 19.7595 16.0198 20.74 16.3831L21 16.4795L20.74 16.5758C19.7595 16.9392 18.9865 17.7133 18.6238 18.6951L18.5275 18.9556L18.4313 18.6951C18.0685 17.7133 17.2956 16.9392 16.3151 16.5758L16.0551 16.4795L16.3151 16.3831C17.2956 16.0198 18.0685 15.2457 18.4313 14.2638L18.5275 14.0034Z" stroke="black" stroke-width="1.5" stroke-linecap="round" stroke-linejoin="round"/>
<path d="M14.2326 11.7584C14.3961 12.2963 14.8164 12.7172 15.3534 12.8809C14.8164 13.0446 14.3961 13.4656 14.2326 14.0034C14.0692 13.4656 13.6489 13.0446 13.1118 12.8809C13.6489 12.7172 14.0692 12.2963 14.2326 11.7584Z" stroke="black" stroke-width="1.5" stroke-linecap="round" stroke-linejoin="round"/>
</svg>
