<svg width="24" height="24" viewBox="0 0 24 24" fill="none" xmlns="http://www.w3.org/2000/svg">
<path opacity="0.4" d="M12.0848 20.9999L7.31369 21C4.7653 21 3.40234 19.095 3.40234 16.3995V10.0194L19.3303 10.0203C20.13 10.0203 20.7782 10.7067 20.7782 11.5534V14.4005" stroke="black" stroke-width="1.5" stroke-linecap="round" stroke-linejoin="round"/>
<path d="M20.1509 5.29725C19.649 3.59026 18.786 2.70344 16.8036 3.08944L5.79653 5.2526C3.29017 5.74063 2.93328 7.46681 3.39371 10.1178L19.0588 7.0667C19.8453 6.91352 20.3886 6.10569 20.1509 5.29725Z" stroke="black" stroke-width="1.5" stroke-linecap="round" stroke-linejoin="round"/>
<path d="M15.5902 3.68659C15.6849 3.28334 15.4348 2.87969 15.0315 2.785C14.6283 2.69031 14.2246 2.94044 14.13 3.34369L15.5902 3.68659ZM13.0576 7.91049C12.9629 8.31374 13.213 8.7174 13.6163 8.81209C14.0195 8.90678 14.4232 8.65664 14.5179 8.2534L13.0576 7.91049ZM10.2574 4.68223C10.352 4.27899 10.1019 3.87533 9.69866 3.78064C9.29542 3.68595 8.89176 3.93608 8.79707 4.33933L10.2574 4.68223ZM7.72469 8.90614C7.63 9.30938 7.88014 9.71304 8.28338 9.80773C8.68663 9.90242 9.09028 9.65229 9.18497 9.24904L7.72469 8.90614ZM14.13 3.34369L13.0576 7.91049L14.5179 8.2534L15.5902 3.68659L14.13 3.34369ZM8.79707 4.33933L7.72469 8.90614L9.18497 9.24904L10.2574 4.68223L8.79707 4.33933Z" fill="black"/>
<path d="M18.1684 16.2534L18.2699 16.5283C18.6529 17.5647 19.4688 18.3819 20.5038 18.7654L20.7782 18.8671L20.5038 18.9688C19.4688 19.3523 18.6529 20.1695 18.2699 21.2059L18.1684 21.4808L18.0668 21.2059C17.6839 20.1695 16.8679 19.3523 15.833 18.9688L15.5585 18.8671L15.833 18.7654C16.8679 18.3819 17.6839 17.5647 18.0668 16.5283L18.1684 16.2534Z" stroke="black" stroke-width="1.5" stroke-linecap="round" stroke-linejoin="round"/>
<path d="M12.8025 13.618C13.0351 14.3834 13.6332 14.9823 14.3973 15.2153C13.6332 15.4482 13.0351 16.0472 12.8025 16.8125C12.5699 16.0472 11.9719 15.4482 11.2077 15.2153C11.9719 14.9823 12.5699 14.3834 12.8025 13.618Z" stroke="black" stroke-width="1.5" stroke-linecap="round" stroke-linejoin="round"/>
</svg>
