<svg width="24" height="24" viewBox="0 0 24 24" fill="none" xmlns="http://www.w3.org/2000/svg">
<path d="M17.3014 21.7452C16.6649 21.7452 16.0545 21.4923 15.6044 21.0422C15.1543 20.5921 14.9014 19.9817 14.9014 19.3452V14.2952C14.9014 14.0317 14.7969 13.779 14.6107 13.5926C14.4245 13.4063 14.1719 13.3014 13.9084 13.3012H10.0834C9.81998 13.3014 9.56742 13.4063 9.38123 13.5926C9.19503 13.779 9.09042 14.0317 9.09042 14.2952V19.3542C9.09043 19.9898 8.83826 20.5995 8.38925 21.0494C7.94025 21.4994 7.33109 21.7528 6.69543 21.7542H5.58743C4.74203 21.7513 3.93214 21.4139 3.33463 20.8159C2.73711 20.2178 2.40055 19.4076 2.39844 18.5622V9.23916C2.39949 8.63298 2.55965 8.0377 2.86288 7.51282C3.16612 6.98794 3.60182 6.55186 4.12643 6.24816L10.2764 2.70516C10.8008 2.40436 11.3949 2.24609 11.9994 2.24609C12.604 2.24609 13.198 2.40436 13.7224 2.70516L19.8724 6.24816C20.3971 6.55188 20.8329 6.98795 21.1363 7.5128C21.4397 8.03765 21.6001 8.63292 21.6014 9.23916V18.5522C21.5993 19.3974 21.2629 20.2075 20.6656 20.8055C20.0683 21.4035 19.2586 21.741 18.4134 21.7442H17.3014V21.7452ZM10.0844 11.7952H13.9094C14.5711 11.7973 15.2049 12.0616 15.672 12.5302C16.1391 12.9988 16.4014 13.6335 16.4014 14.2952V19.3542C16.4014 19.5929 16.4963 19.8218 16.665 19.9906C16.8338 20.1593 17.0627 20.2542 17.3014 20.2542H18.4154C18.8638 20.2534 19.2934 20.0748 19.6103 19.7576C19.9271 19.4404 20.1052 19.0105 20.1054 18.5622V9.23916C20.1051 8.89638 20.0147 8.55972 19.8432 8.26292C19.6717 7.96612 19.4252 7.71963 19.1284 7.54816L12.9744 4.00516C12.6778 3.83564 12.3421 3.74647 12.0004 3.74647C11.6588 3.74647 11.3231 3.83564 11.0264 4.00516L4.87643 7.54816C4.57984 7.71986 4.3335 7.96641 4.16205 8.26315C3.9906 8.5599 3.90006 8.89644 3.89944 9.23916V18.5522C3.89971 19.0005 4.07777 19.4304 4.39459 19.7476C4.71141 20.0648 5.14113 20.2434 5.58945 20.2442H6.69543C6.93413 20.2442 7.16303 20.1493 7.33182 19.9806C7.5006 19.8118 7.59543 19.5829 7.59543 19.3442V14.2952C7.59542 13.634 7.8573 12.9998 8.32376 12.5313C8.79023 12.0627 9.42331 11.7981 10.0844 11.7952Z" fill="black"/>
</svg>
