<svg width="24" height="24" viewBox="0 0 24 24" fill="none" xmlns="http://www.w3.org/2000/svg">
<path fill-rule="evenodd" clip-rule="evenodd" d="M9.65352 3.06019C11.0216 1.98008 12.9522 1.98008 14.3202 3.06019L14.3234 3.06274L20.5498 8.03432C21.2924 8.6026 21.7345 9.47783 21.7499 10.4132L21.7501 10.4256L21.75 20.9999C21.75 21.4141 21.4142 21.7499 21 21.7499C20.5858 21.7499 20.25 21.4141 20.25 20.9999V10.4324C20.2405 9.95642 20.0144 9.51155 19.6344 9.22262L19.6203 9.21168L13.3907 4.23749C13.3902 4.23709 13.3897 4.23669 13.3892 4.23629C12.5669 3.58822 11.4077 3.58804 10.5852 4.23576L4.38114 9.21536C4.37511 9.2202 4.369 9.22494 4.36283 9.22959C3.9834 9.5153 3.75717 9.9616 3.75 10.4394V20.9999C3.75 21.4141 3.41421 21.7499 3 21.7499C2.58579 21.7499 2.25 21.4141 2.25 20.9999V10.4251C2.26155 9.48809 2.70268 8.60681 3.45063 8.03881L9.65352 3.06019Z" fill="black"/>
<path fill-rule="evenodd" clip-rule="evenodd" d="M7.85178 12.7436C8.39469 12.1612 9.15917 11.8477 10.0308 11.8477H13.9684C14.8416 11.8477 15.6066 12.1609 16.1496 12.7438C16.6871 13.3207 16.9514 14.101 16.9514 14.9435V18.6534C16.9514 19.4959 16.6871 20.2764 16.1498 20.8535C15.6068 21.4366 14.8418 21.7502 13.9684 21.7502H10.0308C9.15745 21.7502 8.39258 21.4366 7.84985 20.8533C7.31279 20.2761 7.04883 19.4956 7.04883 18.6534V14.9435C7.04883 14.1004 7.31431 13.3201 7.85178 12.7436ZM8.94896 13.7664C8.7134 14.0191 8.54883 14.4118 8.54883 14.9435V18.6534C8.54883 19.186 8.71298 19.5789 8.94797 19.8315C9.1773 20.0779 9.52842 20.2502 10.0308 20.2502H13.9684C14.4709 20.2502 14.8224 20.0779 15.052 19.8313C15.2872 19.5787 15.4514 19.1858 15.4514 18.6534V14.9435C15.4514 14.4111 15.2872 14.0186 15.0521 13.7663C14.8226 13.5199 14.4711 13.3477 13.9684 13.3477H10.0308C9.5306 13.3477 9.17908 13.5196 8.94896 13.7664Z" fill="black"/>
<path fill-rule="evenodd" clip-rule="evenodd" d="M12 11.8477C12.4142 11.8477 12.75 12.1834 12.75 12.5977V14.8997C12.75 15.3139 12.4142 15.6497 12 15.6497C11.5858 15.6497 11.25 15.3139 11.25 14.8997V12.5977C11.25 12.1834 11.5858 11.8477 12 11.8477ZM12 17.9477C12.4142 17.9477 12.75 18.2835 12.75 18.6977V20.9998C12.75 21.414 12.4142 21.7498 12 21.7498C11.5858 21.7498 11.25 21.414 11.25 20.9998V18.6977C11.25 18.2835 11.5858 17.9477 12 17.9477Z" fill="black"/>
</svg>
