<svg width="24" height="24" viewBox="0 0 24 24" fill="none" xmlns="http://www.w3.org/2000/svg">
<path d="M16.6216 21.7491C15.985 21.7491 15.3746 21.4962 14.9245 21.0461C14.4744 20.596 14.2216 19.9856 14.2216 19.3491V16.0991C14.2213 15.836 14.1167 15.5837 13.9308 15.3976C13.7448 15.2114 13.4927 15.1066 13.2296 15.1061H10.7755C10.5123 15.1063 10.2599 15.211 10.0737 15.3972C9.88753 15.5834 9.78283 15.8358 9.78256 16.0991V19.3491C9.78256 19.9856 9.52971 20.596 9.07962 21.0461C8.62953 21.4962 8.01909 21.7491 7.38257 21.7491H5.58255C4.73715 21.7462 3.92725 21.4088 3.32974 20.8108C2.73223 20.2127 2.39566 19.4025 2.39355 18.5571V9.24306C2.39461 8.63689 2.55476 8.0416 2.858 7.51673C3.16124 6.99185 3.59694 6.55576 4.12155 6.25206L10.2715 2.70906C10.796 2.40827 11.39 2.25 11.9946 2.25C12.5991 2.25 13.1931 2.40827 13.7176 2.70906L19.8686 6.25206C20.3946 6.55486 20.832 6.9905 21.1368 7.51541C21.4416 8.04031 21.6033 8.63607 21.6056 9.24306V18.5561C21.6035 19.4013 21.267 20.2114 20.6697 20.8094C20.0724 21.4075 19.2628 21.7449 18.4175 21.7481H16.6176L16.6216 21.7491ZM10.7786 13.6101H13.2325C13.893 13.6122 14.5258 13.8755 14.9927 14.3426C15.4596 14.8097 15.7227 15.4426 15.7245 16.1031V19.3531C15.7245 19.5918 15.8194 19.8207 15.9882 19.9895C16.1569 20.1582 16.3858 20.2531 16.6245 20.2531H18.4246C18.8727 20.252 19.3021 20.0733 19.6187 19.7561C19.9354 19.439 20.1133 19.0092 20.1136 18.5611V9.24306C20.1129 8.90035 20.0224 8.5638 19.8509 8.26706C19.6795 7.97031 19.4332 7.72377 19.1366 7.55206L12.9865 4.00906C12.6898 3.83946 12.3539 3.75024 12.0121 3.75024C11.6702 3.75024 11.3343 3.83946 11.0376 4.00906L4.88754 7.55206C4.59095 7.72377 4.34464 7.97031 4.17319 8.26706C4.00174 8.5638 3.91117 8.90035 3.91055 9.24306V18.5561C3.91082 19.0044 4.08888 19.4343 4.4057 19.7515C4.72252 20.0687 5.15224 20.2473 5.60056 20.2481H7.39557C7.63426 20.2481 7.86317 20.1532 8.03195 19.9845C8.20073 19.8157 8.29556 19.5868 8.29556 19.3481V16.0991C8.29844 15.4409 8.56078 14.8104 9.02563 14.3444C9.49049 13.8784 10.1204 13.6145 10.7786 13.6101Z" fill="black"/>
</svg>
