<svg width="24" height="24" viewBox="0 0 24 24" fill="none" xmlns="http://www.w3.org/2000/svg">
<path d="M20.994 21.7496C20.7951 21.7496 20.6043 21.6706 20.4637 21.5299C20.323 21.3893 20.244 21.1985 20.244 20.9996V10.4246C20.239 10.191 20.1809 9.96157 20.0742 9.75368C19.9675 9.5458 19.8149 9.36488 19.628 9.22461L13.382 4.23661C12.9835 3.92124 12.4902 3.74966 11.982 3.74966C11.4738 3.74966 10.9805 3.92124 10.582 4.23661L4.38202 9.21461C4.18976 9.35732 4.03279 9.54223 3.92322 9.75513C3.81365 9.96802 3.75439 10.2032 3.75 10.4426V20.9996C3.75 21.1985 3.67099 21.3893 3.53033 21.5299C3.38968 21.6706 3.19891 21.7496 3 21.7496C2.80109 21.7496 2.61032 21.6706 2.46967 21.5299C2.32901 21.3893 2.25 21.1985 2.25 20.9996V10.4336C2.25651 9.9679 2.36892 9.50978 2.57874 9.09397C2.78855 8.67815 3.09026 8.31554 3.461 8.03361L9.64801 3.06661C10.3121 2.53849 11.1355 2.25098 11.984 2.25098C12.8325 2.25098 13.6559 2.53849 14.32 3.06661L20.556 8.04561C20.9222 8.32448 21.2201 8.68312 21.4269 9.09429C21.6338 9.50546 21.7443 9.95836 21.75 10.4186V20.9996C21.75 21.0986 21.7304 21.1966 21.6924 21.288C21.6543 21.3794 21.5985 21.4624 21.5283 21.5321C21.458 21.6018 21.3746 21.6569 21.2829 21.6943C21.1912 21.7316 21.093 21.7504 20.994 21.7496Z" fill="black"/>
<path d="M14.7417 21.7485C14.5433 21.7477 14.3533 21.6684 14.2133 21.5278C14.0733 21.3872 13.9947 21.1969 13.9947 20.9985V15.0305C13.9931 14.8724 13.9292 14.7214 13.8168 14.6101C13.7045 14.4989 13.5528 14.4365 13.3947 14.4365H10.6547C10.4955 14.4365 10.3429 14.4997 10.2304 14.6123C10.1179 14.7248 10.0547 14.8774 10.0547 15.0365V20.9985C10.0547 21.1974 9.97567 21.3882 9.83502 21.5289C9.69437 21.6695 9.5036 21.7485 9.30469 21.7485C9.10578 21.7485 8.91501 21.6695 8.77435 21.5289C8.6337 21.3882 8.55469 21.1974 8.55469 20.9985V15.0305C8.55785 14.4751 8.78033 13.9434 9.17365 13.5512C9.56696 13.159 10.0992 12.9381 10.6547 12.9365H13.3947C13.9499 12.9365 14.4826 13.1564 14.8761 13.5481C15.2696 13.9397 15.492 14.4713 15.4947 15.0265V20.9985C15.4947 21.0973 15.4752 21.195 15.4373 21.2862C15.3994 21.3774 15.3439 21.4602 15.274 21.5299C15.204 21.5996 15.1209 21.6548 15.0296 21.6923C14.9383 21.7298 14.8404 21.7489 14.7417 21.7485Z" fill="black"/>
</svg>
