<svg width="24" height="24" viewBox="0 0 24 24" fill="none" xmlns="http://www.w3.org/2000/svg">
<path fill-rule="evenodd" clip-rule="evenodd" d="M11.0008 11.4634C11.3727 11.6459 11.5262 12.0952 11.3438 12.4671L9.91543 15.3782C9.73298 15.7501 9.28362 15.9036 8.91175 15.7212C8.53989 15.5387 8.38634 15.0894 8.56879 14.7175L9.99711 11.8064C10.1796 11.4345 10.6289 11.2809 11.0008 11.4634ZM15.0865 11.4634C15.4584 11.6459 15.6119 12.0952 15.4295 12.4671L14.0012 15.3782C13.8187 15.7501 13.3693 15.9036 12.9975 15.7212C12.6256 15.5387 12.4721 15.0894 12.6545 14.7175L14.0828 11.8064C14.2653 11.4345 14.7147 11.2809 15.0865 11.4634Z" fill="black"/>
<path d="M17.2159 21.7495H6.78489C5.70533 21.7481 4.67038 21.3187 3.90702 20.5553C3.14366 19.792 2.71422 18.757 2.71289 17.6775V10.4995C2.71206 9.94787 2.83455 9.40308 3.07142 8.90495C3.30828 8.40682 3.65353 7.96795 4.08188 7.62045L9.65488 3.07945C10.3188 2.54277 11.1467 2.25 12.0004 2.25C12.8541 2.25 13.682 2.54277 14.3459 3.07945L19.9189 7.62045C20.3472 7.96795 20.6925 8.40682 20.9294 8.90495C21.1662 9.40308 21.2887 9.94787 21.2879 10.4995V17.6735C21.2876 18.7537 20.8586 19.7897 20.0952 20.5539C19.3317 21.3181 18.2961 21.7481 17.2159 21.7495ZM11.9999 3.74945C11.4894 3.74912 10.9947 3.92583 10.5999 4.24945L5.02588 8.79045C4.77027 8.99731 4.56428 9.25884 4.42307 9.55581C4.28186 9.85277 4.209 10.1776 4.20987 10.5065V17.6805C4.21067 18.3623 4.48191 19.0161 4.96409 19.4983C5.44626 19.9804 6.1 20.2517 6.7819 20.2524H17.2129C17.8948 20.2517 18.5485 19.9804 19.0307 19.4983C19.5128 19.0161 19.7841 18.3623 19.7849 17.6805V10.4995C19.7858 10.1706 19.7129 9.84578 19.5717 9.54881C19.4305 9.25185 19.2245 8.99031 18.9689 8.78345L13.3999 4.24645C13.0043 3.92485 12.5097 3.74996 11.9999 3.75145V3.74945Z" fill="black"/>
</svg>
