<svg width="24" height="24" viewBox="0 0 24 24" fill="none" xmlns="http://www.w3.org/2000/svg">
<path fill-rule="evenodd" clip-rule="evenodd" d="M10.0609 3.40966C11.1975 2.51111 12.8026 2.51111 13.9392 3.40966L21.4655 9.36748C21.7903 9.62457 21.8452 10.0963 21.5881 10.421C21.331 10.7458 20.8593 10.8007 20.5345 10.5436L20.2537 10.3213V17.4504C20.2537 19.5566 18.546 21.2643 16.4398 21.2643H7.56044C5.45422 21.2643 3.74655 19.5566 3.74655 17.4504V10.3211L3.46553 10.5436C3.14076 10.8007 2.66907 10.7458 2.41198 10.421C2.15489 10.0963 2.20975 9.62457 2.53453 9.36748L10.0609 3.40966ZM5.24655 9.13374V17.4504C5.24655 18.7282 6.28265 19.7643 7.56044 19.7643H16.4398C17.7176 19.7643 18.7537 18.7282 18.7537 17.4504V9.13387L13.009 4.58638C13.0088 4.58627 13.0091 4.58648 13.009 4.58638C12.4177 4.11921 11.5825 4.11897 10.9912 4.58627C10.9912 4.5863 10.9913 4.58623 10.9912 4.58627L5.24655 9.13374Z" fill="black"/>
<path fill-rule="evenodd" clip-rule="evenodd" d="M11.9992 14.591C10.9851 14.591 10.1621 15.414 10.1621 16.4281C10.1621 16.8424 9.82632 17.1781 9.41211 17.1781C8.9979 17.1781 8.66211 16.8424 8.66211 16.4281C8.66211 14.5856 10.1567 13.091 11.9992 13.091C13.8426 13.091 15.3374 14.5854 15.3374 16.4281C15.3374 16.8424 15.0016 17.1781 14.5874 17.1781C14.1731 17.1781 13.8374 16.8424 13.8374 16.4281C13.8374 15.4142 13.0145 14.591 11.9992 14.591Z" fill="black"/>
<path fill-rule="evenodd" clip-rule="evenodd" d="M12 9.50977C12.4142 9.50977 12.75 9.84555 12.75 10.2598V10.2698C12.75 10.684 12.4142 11.0198 12 11.0198C11.5858 11.0198 11.25 10.684 11.25 10.2698V10.2598C11.25 9.84555 11.5858 9.50977 12 9.50977Z" fill="black"/>
</svg>
