<svg width="24" height="24" viewBox="0 0 24 24" fill="none" xmlns="http://www.w3.org/2000/svg">
<path fill-rule="evenodd" clip-rule="evenodd" d="M11.5481 11.5671C11.2164 11.3175 10.7844 11.2447 10.3893 11.3722C9.70531 11.5927 9.34554 12.3783 9.61657 13.2391C9.78141 13.7094 10.0506 14.1368 10.4032 14.4887C10.8942 14.9662 11.4289 15.3969 11.9997 15.7751C12.5696 15.3979 13.1037 14.9676 13.5959 14.4905C13.9486 14.1375 14.2176 13.71 14.3823 13.2393C14.6528 12.3806 14.2925 11.5938 13.6076 11.3724C13.2121 11.2462 12.7805 11.319 12.4492 11.5676C12.1822 11.768 11.8149 11.7678 11.5481 11.5671ZM11.9995 10.0924C11.3608 9.78028 10.6191 9.72198 9.9289 9.94455C8.23138 10.4919 7.74088 12.2976 8.19053 13.7044L8.19643 13.7221C8.43619 14.4126 8.83032 15.0395 9.34778 15.5546L9.35382 15.5606C10.0132 16.2024 10.7418 16.7695 11.5251 17.2516L11.6151 17.3057C11.8563 17.4504 12.1582 17.448 12.397 17.2994L12.4751 17.2509C13.2584 16.7695 13.9852 16.2028 14.6443 15.5633L14.6517 15.556C15.1687 15.0402 15.5628 14.4134 15.8026 13.7217L15.8084 13.7044C16.2586 12.2958 15.7631 10.4914 14.0671 9.94454L14.0654 9.94401C13.3774 9.72393 12.6376 9.78148 11.9995 10.0924Z" fill="black"/>
<path d="M17.2159 21.7495H6.78489C5.70533 21.7481 4.67038 21.3187 3.90702 20.5553C3.14366 19.792 2.71422 18.757 2.71289 17.6775V10.4995C2.71206 9.94787 2.83455 9.40308 3.07142 8.90495C3.30828 8.40682 3.65353 7.96795 4.08188 7.62045L9.65488 3.07945C10.3188 2.54277 11.1467 2.25 12.0004 2.25C12.8541 2.25 13.682 2.54277 14.3459 3.07945L19.9189 7.62045C20.3472 7.96795 20.6925 8.40682 20.9294 8.90495C21.1662 9.40308 21.2887 9.94787 21.2879 10.4995V17.6735C21.2876 18.7537 20.8586 19.7897 20.0952 20.5539C19.3317 21.3181 18.2961 21.7481 17.2159 21.7495ZM11.9999 3.74945C11.4894 3.74912 10.9947 3.92583 10.5999 4.24945L5.02588 8.79045C4.77027 8.99731 4.56428 9.25884 4.42307 9.55581C4.28186 9.85277 4.209 10.1776 4.20987 10.5065V17.6805C4.21067 18.3623 4.48191 19.0161 4.96409 19.4983C5.44626 19.9804 6.1 20.2517 6.7819 20.2524H17.2129C17.8948 20.2517 18.5485 19.9804 19.0307 19.4983C19.5128 19.0161 19.7841 18.3623 19.7849 17.6805V10.4995C19.7858 10.1706 19.7129 9.84578 19.5717 9.54881C19.4305 9.25185 19.2245 8.99031 18.9689 8.78345L13.3999 4.24645C13.0043 3.92485 12.5097 3.74996 11.9999 3.75145V3.74945Z" fill="black"/>
</svg>
