<svg width="24" height="24" viewBox="0 0 24 24" fill="none" xmlns="http://www.w3.org/2000/svg">
<path fill-rule="evenodd" clip-rule="evenodd" d="M10.0609 3.40966C11.1975 2.51111 12.8026 2.51111 13.9392 3.40966L21.4655 9.36748C21.7903 9.62457 21.8452 10.0963 21.5881 10.421C21.331 10.7458 20.8593 10.8007 20.5345 10.5436L13.009 4.58638C13.0088 4.58627 13.0091 4.58648 13.009 4.58638C12.4177 4.11921 11.5825 4.11897 10.9912 4.58627C10.9912 4.5863 10.9913 4.58623 10.9912 4.58627L3.46553 10.5436C3.14076 10.8007 2.66907 10.7458 2.41198 10.421C2.15489 10.0963 2.20975 9.62457 2.53453 9.36748L10.0609 3.40966Z" fill="black"/>
<path fill-rule="evenodd" clip-rule="evenodd" d="M4.49609 8.02539C4.91031 8.02539 5.24609 8.36118 5.24609 8.77539V17.4504C5.24609 18.7282 6.2822 19.7643 7.55999 19.7643H16.4393C17.7171 19.7643 18.7532 18.7282 18.7532 17.4504V8.77539C18.7532 8.36118 19.089 8.02539 19.5032 8.02539C19.9174 8.02539 20.2532 8.36118 20.2532 8.77539V17.4504C20.2532 19.5566 18.5456 21.2643 16.4393 21.2643H7.55999C5.45377 21.2643 3.74609 19.5566 3.74609 17.4504V8.77539C3.74609 8.36118 4.08188 8.02539 4.49609 8.02539Z" fill="black"/>
<path fill-rule="evenodd" clip-rule="evenodd" d="M8.19357 13.5302C8.52206 13.2779 8.9929 13.3397 9.24522 13.6681C9.93594 14.5674 10.9265 15.0981 11.9994 15.0981C13.0723 15.0981 14.0629 14.5674 14.7536 13.6681C15.0059 13.3397 15.4767 13.2779 15.8052 13.5302C16.1337 13.7825 16.1955 14.2534 15.9432 14.5819C15.0032 15.8056 13.5925 16.5981 11.9994 16.5981C10.4063 16.5981 8.99562 15.8056 8.05564 14.5819C7.80332 14.2534 7.86507 13.7825 8.19357 13.5302Z" fill="black"/>
</svg>
