<svg width="24" height="24" viewBox="0 0 24 24" fill="none" xmlns="http://www.w3.org/2000/svg">
<path fill-rule="evenodd" clip-rule="evenodd" d="M9.65352 3.0602C11.0215 1.98019 12.9522 1.97993 14.3195 3.0604L14.3224 3.06272L20.55 8.03452C21.2909 8.60232 21.7345 9.47715 21.7499 10.4132L21.7501 10.4256L21.75 20.9999C21.75 21.4141 21.4142 21.7499 21 21.7499C20.5858 21.7499 20.25 21.4141 20.25 20.9999V10.4324C20.2405 9.95702 20.0138 9.51166 19.6339 9.22225L19.6204 9.21173L13.3895 4.2373C13.389 4.23695 13.3886 4.2366 13.3882 4.23625C12.5671 3.5884 11.4078 3.58792 10.5852 4.23577L4.38114 9.21537C4.37511 9.22021 4.369 9.22496 4.36283 9.22961C3.9834 9.51532 3.75717 9.96162 3.75 10.4394V20.9999C3.75 21.4141 3.41421 21.7499 3 21.7499C2.58579 21.7499 2.25 21.4141 2.25 20.9999V10.4251C2.26155 9.4881 2.70268 8.60683 3.45063 8.03882L9.65352 3.0602Z" fill="black"/>
<path fill-rule="evenodd" clip-rule="evenodd" d="M7.85178 12.7436C8.39469 12.1612 9.15917 11.8477 10.0308 11.8477H13.9684C14.8416 11.8477 15.6066 12.1609 16.1496 12.7438C16.6871 13.3207 16.9514 14.101 16.9514 14.9435V18.6534C16.9514 19.4959 16.6871 20.2764 16.1498 20.8535C15.6068 21.4366 14.8418 21.7503 13.9684 21.7503H10.0308C9.15708 21.7503 8.39211 21.4366 7.8494 20.8532C7.31241 20.276 7.04883 19.4954 7.04883 18.6534V14.9435C7.04883 14.1004 7.31431 13.3201 7.85178 12.7436ZM8.94896 13.7664C8.7134 14.0191 8.54883 14.4118 8.54883 14.9435V18.6534C8.54883 19.1863 8.71287 19.5791 8.94769 19.8316C9.17679 20.0779 9.52782 20.2503 10.0308 20.2503H13.9684C14.4709 20.2503 14.8224 20.0779 15.052 19.8313C15.2872 19.5787 15.4514 19.1858 15.4514 18.6534V14.9435C15.4514 14.4111 15.2872 14.0186 15.0521 13.7663C14.8226 13.5199 14.4711 13.3477 13.9684 13.3477H10.0308C9.5306 13.3477 9.17908 13.5196 8.94896 13.7664Z" fill="black"/>
</svg>
