<svg width="24" height="24" viewBox="0 0 24 24" fill="none" xmlns="http://www.w3.org/2000/svg">
<path fill-rule="evenodd" clip-rule="evenodd" d="M9.74732 3.02825C11.0601 1.99058 12.9142 1.99058 14.2269 3.02825L14.2298 3.03051L20.1446 7.75286C20.8596 8.29907 21.285 9.14261 21.2993 10.0419L21.2995 10.0539L21.2994 17.9078L21.2994 17.912C21.2873 20.0429 19.5505 21.7608 17.4191 21.7499H6.57727C4.44654 21.7597 2.70986 20.0394 2.7002 17.9083L2.7002 17.9049V10.054C2.71061 9.15202 3.13573 8.30412 3.85366 7.75696L9.74732 3.02825ZM10.6795 4.20345L4.78453 8.93322C4.77889 8.93774 4.77319 8.94218 4.76742 8.94654C4.41587 9.21227 4.20648 9.62614 4.2002 10.0674V17.903C4.20695 19.2052 5.26911 20.2566 6.57159 20.2499L6.57541 20.2499L17.4212 20.2499L17.4255 20.2499C18.729 20.2573 19.791 19.2076 19.7994 17.9054V10.0604C19.7907 9.62044 19.5812 9.20817 19.2301 8.94186L19.2155 8.93045L13.2968 4.20501C13.2963 4.20464 13.2958 4.20428 13.2954 4.20392C12.5286 3.59885 11.4464 3.59869 10.6795 4.20345Z" fill="black"/>
<path fill-rule="evenodd" clip-rule="evenodd" d="M6.78516 12.5624C6.78516 11.5498 7.60646 10.7285 8.61906 10.7285H15.3784C16.391 10.7285 17.2123 11.5498 17.2123 12.5624V20.9991C17.2123 21.4133 16.8765 21.7491 16.4623 21.7491C16.048 21.7491 15.7123 21.4133 15.7123 20.9991V12.5624C15.7123 12.3782 15.5625 12.2285 15.3784 12.2285H8.61906C8.43489 12.2285 8.28516 12.3782 8.28516 12.5624V20.9991C8.28516 21.4133 7.94937 21.7491 7.53516 21.7491C7.12094 21.7491 6.78516 21.4133 6.78516 20.9991V12.5624Z" fill="black"/>
<path fill-rule="evenodd" clip-rule="evenodd" d="M6.78516 14.6191C6.78516 14.2049 7.12094 13.8691 7.53516 13.8691H16.4623C16.8765 13.8691 17.2123 14.2049 17.2123 14.6191C17.2123 15.0334 16.8765 15.3691 16.4623 15.3691H7.53516C7.12094 15.3691 6.78516 15.0334 6.78516 14.6191ZM6.78516 17.7585C6.78516 17.3443 7.12094 17.0085 7.53516 17.0085H16.4623C16.8765 17.0085 17.2123 17.3443 17.2123 17.7585C17.2123 18.1727 16.8765 18.5085 16.4623 18.5085H7.53516C7.12094 18.5085 6.78516 18.1727 6.78516 17.7585Z" fill="black"/>
</svg>
