<svg width="24" height="24" viewBox="0 0 24 24" fill="none" xmlns="http://www.w3.org/2000/svg">
<path fill-rule="evenodd" clip-rule="evenodd" d="M10.0609 3.40966C11.1975 2.51111 12.8026 2.51111 13.9392 3.40966L21.4655 9.36747C21.7903 9.62456 21.8452 10.0963 21.5881 10.421C21.331 10.7458 20.8593 10.8007 20.5345 10.5436L13.009 4.58637C13.0088 4.58627 13.0091 4.58647 13.009 4.58637C12.4177 4.11921 11.5825 4.11897 10.9912 4.58627C10.9912 4.5863 10.9913 4.58623 10.9912 4.58627L3.46553 10.5436C3.14076 10.8007 2.66907 10.7458 2.41198 10.421C2.15489 10.0963 2.20975 9.62456 2.53453 9.36747L10.0609 3.40966Z" fill="black"/>
<path fill-rule="evenodd" clip-rule="evenodd" d="M4.49609 8.02539C4.91031 8.02539 5.24609 8.36118 5.24609 8.77539V17.4504C5.24609 18.7282 6.2822 19.7643 7.55999 19.7643H16.4393C17.7171 19.7643 18.7532 18.7282 18.7532 17.4504V8.77539C18.7532 8.36118 19.089 8.02539 19.5032 8.02539C19.9174 8.02539 20.2532 8.36118 20.2532 8.77539V17.4504C20.2532 19.5566 18.5456 21.2643 16.4393 21.2643H7.55999C5.45377 21.2643 3.74609 19.5566 3.74609 17.4504V8.77539C3.74609 8.36118 4.08188 8.02539 4.49609 8.02539Z" fill="black"/>
<path fill-rule="evenodd" clip-rule="evenodd" d="M10.0508 11.4219C10.465 11.4219 10.8008 11.7577 10.8008 12.1719V15.7271C10.8008 16.1413 10.465 16.4771 10.0508 16.4771C9.63657 16.4771 9.30078 16.1413 9.30078 15.7271V12.1719C9.30078 11.7577 9.63657 11.4219 10.0508 11.4219ZM13.9484 11.4219C14.3626 11.4219 14.6984 11.7577 14.6984 12.1719V15.7271C14.6984 16.1413 14.3626 16.4771 13.9484 16.4771C13.5342 16.4771 13.1984 16.1413 13.1984 15.7271V12.1719C13.1984 11.7577 13.5342 11.4219 13.9484 11.4219Z" fill="black"/>
</svg>
