<svg width="24" height="24" viewBox="0 0 24 24" fill="none" xmlns="http://www.w3.org/2000/svg">
<path fill-rule="evenodd" clip-rule="evenodd" d="M10.0609 3.40966C11.1975 2.51111 12.8026 2.51111 13.9392 3.40966L21.4655 9.36748C21.7903 9.62457 21.8452 10.0963 21.5881 10.421C21.331 10.7458 20.8593 10.8007 20.5345 10.5436L13.009 4.58638C13.0088 4.58627 13.0091 4.58648 13.009 4.58638C12.4177 4.11921 11.5825 4.11897 10.9912 4.58627C10.9912 4.5863 10.9913 4.58623 10.9912 4.58627L3.46553 10.5436C3.14076 10.8007 2.66907 10.7458 2.41198 10.421C2.15489 10.0963 2.20975 9.62457 2.53453 9.36748L10.0609 3.40966Z" fill="black"/>
<path fill-rule="evenodd" clip-rule="evenodd" d="M4.49609 8.02539C4.91031 8.02539 5.24609 8.36118 5.24609 8.77539V17.4504C5.24609 18.7282 6.2822 19.7643 7.55999 19.7643H16.4393C17.7171 19.7643 18.7532 18.7282 18.7532 17.4504V8.77539C18.7532 8.36118 19.089 8.02539 19.5032 8.02539C19.9174 8.02539 20.2532 8.36118 20.2532 8.77539V17.4504C20.2532 19.5566 18.5456 21.2643 16.4393 21.2643H7.55999C5.45377 21.2643 3.74609 19.5566 3.74609 17.4504V8.77539C3.74609 8.36118 4.08188 8.02539 4.49609 8.02539Z" fill="black"/>
<path fill-rule="evenodd" clip-rule="evenodd" d="M9.33789 12C9.33789 11.5858 9.67368 11.25 10.0879 11.25H13.9126C14.3269 11.25 14.6626 11.5858 14.6626 12C14.6626 12.4142 14.3269 12.75 13.9126 12.75H10.0879C9.67368 12.75 9.33789 12.4142 9.33789 12ZM9.33789 15.8976C9.33789 15.4834 9.67368 15.1476 10.0879 15.1476H13.9126C14.3269 15.1476 14.6626 15.4834 14.6626 15.8976C14.6626 16.3118 14.3269 16.6476 13.9126 16.6476H10.0879C9.67368 16.6476 9.33789 16.3118 9.33789 15.8976Z" fill="black"/>
</svg>
