<svg width="24" height="24" viewBox="0 0 24 24" fill="none" xmlns="http://www.w3.org/2000/svg">
<path fill-rule="evenodd" clip-rule="evenodd" d="M11.998 14.9785C12.4123 14.9785 12.748 15.3143 12.748 15.7285V21.0008C12.748 21.415 12.4123 21.7508 11.998 21.7508C11.5838 21.7508 11.248 21.415 11.248 21.0008V15.7285C11.248 15.3143 11.5838 14.9785 11.998 14.9785Z" fill="black"/>
<path d="M17.2159 21.7495H6.78489C5.70533 21.7481 4.67038 21.3187 3.90702 20.5553C3.14366 19.792 2.71422 18.757 2.71289 17.6775V10.4995C2.71206 9.94787 2.83455 9.40308 3.07142 8.90495C3.30828 8.40682 3.65353 7.96795 4.08188 7.62045L9.65488 3.07945C10.3188 2.54277 11.1467 2.25 12.0004 2.25C12.8541 2.25 13.682 2.54277 14.3459 3.07945L19.9189 7.62045C20.3472 7.96795 20.6925 8.40682 20.9294 8.90495C21.1662 9.40308 21.2887 9.94787 21.2879 10.4995V17.6735C21.2876 18.7537 20.8586 19.7897 20.0952 20.5539C19.3317 21.3181 18.2961 21.7481 17.2159 21.7495ZM11.9999 3.74945C11.4894 3.74912 10.9947 3.92583 10.5999 4.24945L5.02588 8.79045C4.77027 8.99731 4.56428 9.25884 4.42307 9.55581C4.28186 9.85277 4.209 10.1776 4.20987 10.5065V17.6805C4.21067 18.3623 4.48191 19.0161 4.96409 19.4983C5.44626 19.9804 6.1 20.2517 6.7819 20.2524H17.2129C17.8948 20.2517 18.5485 19.9804 19.0307 19.4983C19.5128 19.0161 19.7841 18.3623 19.7849 17.6805V10.4995C19.7858 10.1706 19.7129 9.84578 19.5717 9.54881C19.4305 9.25185 19.2245 8.99031 18.9689 8.78345L13.3999 4.24645C13.0043 3.92485 12.5097 3.74996 11.9999 3.75145V3.74945Z" fill="black"/>
</svg>
