<svg width="24" height="24" viewBox="0 0 24 24" fill="none" xmlns="http://www.w3.org/2000/svg">
<path fill-rule="evenodd" clip-rule="evenodd" d="M19.0986 4.52637C18.4636 4.52637 17.9473 5.04202 17.9473 5.68005C17.9473 6.31809 18.4636 6.83374 19.0986 6.83374C19.7336 6.83374 20.2499 6.31809 20.2499 5.68005C20.2499 5.04202 19.7336 4.52637 19.0986 4.52637ZM16.4473 5.68005C16.4473 4.21534 17.6334 3.02637 19.0986 3.02637C20.5638 3.02637 21.7499 4.21534 21.7499 5.68005C21.7499 7.14477 20.5638 8.33374 19.0986 8.33374C17.6334 8.33374 16.4473 7.14477 16.4473 5.68005Z" fill="black"/>
<path fill-rule="evenodd" clip-rule="evenodd" d="M19.0989 9.53369C19.5131 9.53369 19.8489 9.86948 19.8489 10.2837V10.2937C19.8489 10.7079 19.5131 11.0437 19.0989 11.0437C18.6847 11.0437 18.3489 10.7079 18.3489 10.2937V10.2837C18.3489 9.86948 18.6847 9.53369 19.0989 9.53369Z" fill="black"/>
<path fill-rule="evenodd" clip-rule="evenodd" d="M19.0989 12.8438C19.5131 12.8438 19.8489 13.1795 19.8489 13.5938V13.6037C19.8489 14.018 19.5131 14.3537 19.0989 14.3537C18.6847 14.3537 18.3489 14.018 18.3489 13.6037V13.5938C18.3489 13.1795 18.6847 12.8438 19.0989 12.8438Z" fill="black"/>
<path fill-rule="evenodd" clip-rule="evenodd" d="M19.0989 16.1538C19.5131 16.1538 19.8489 16.4896 19.8489 16.9038V16.9138C19.8489 17.328 19.5131 17.6638 19.0989 17.6638C18.6847 17.6638 18.3489 17.328 18.3489 16.9138V16.9038C18.3489 16.4896 18.6847 16.1538 19.0989 16.1538Z" fill="black"/>
<path fill-rule="evenodd" clip-rule="evenodd" d="M19.0986 19.4634C19.5128 19.4634 19.8486 19.7992 19.8486 20.2134V20.2234C19.8486 20.6376 19.5128 20.9734 19.0986 20.9734C18.6844 20.9734 18.3486 20.6376 18.3486 20.2234V20.2134C18.3486 19.7992 18.6844 19.4634 19.0986 19.4634Z" fill="black"/>
<path fill-rule="evenodd" clip-rule="evenodd" d="M12 7.83643C11.365 7.83643 10.8486 8.35208 10.8486 8.99011C10.8486 9.62815 11.365 10.1438 12 10.1438C12.635 10.1438 13.1513 9.62815 13.1513 8.99011C13.1513 8.35208 12.635 7.83643 12 7.83643ZM9.34863 8.99011C9.34863 7.52539 10.5348 6.33643 12 6.33643C13.4651 6.33643 14.6513 7.52539 14.6513 8.99011C14.6513 10.4548 13.4651 11.6438 12 11.6438C10.5348 11.6438 9.34863 10.4548 9.34863 8.99011Z" fill="black"/>
<path fill-rule="evenodd" clip-rule="evenodd" d="M12 12.8433C12.4142 12.8433 12.75 13.179 12.75 13.5933V13.6033C12.75 14.0175 12.4142 14.3533 12 14.3533C11.5858 14.3533 11.25 14.0175 11.25 13.6033V13.5933C11.25 13.179 11.5858 12.8433 12 12.8433Z" fill="black"/>
<path fill-rule="evenodd" clip-rule="evenodd" d="M12 16.1538C12.4142 16.1538 12.75 16.4896 12.75 16.9038V16.9138C12.75 17.328 12.4142 17.6638 12 17.6638C11.5858 17.6638 11.25 17.328 11.25 16.9138V16.9038C11.25 16.4896 11.5858 16.1538 12 16.1538Z" fill="black"/>
<path fill-rule="evenodd" clip-rule="evenodd" d="M12 19.4634C12.4142 19.4634 12.75 19.7992 12.75 20.2134V20.2234C12.75 20.6376 12.4142 20.9734 12 20.9734C11.5858 20.9734 11.25 20.6376 11.25 20.2234V20.2134C11.25 19.7992 11.5858 19.4634 12 19.4634Z" fill="black"/>
<path fill-rule="evenodd" clip-rule="evenodd" d="M4.90134 11.146C4.26634 11.146 3.75 11.6616 3.75 12.2997C3.75 12.9377 4.26634 13.4534 4.90134 13.4534C5.53634 13.4534 6.05268 12.9377 6.05268 12.2997C6.05268 11.6616 5.53634 11.146 4.90134 11.146ZM2.25 12.2997C2.25 10.835 3.43617 9.646 4.90134 9.646C6.36651 9.646 7.55268 10.835 7.55268 12.2997C7.55268 13.7644 6.36651 14.9534 4.90134 14.9534C3.43617 14.9534 2.25 13.7644 2.25 12.2997Z" fill="black"/>
<path fill-rule="evenodd" clip-rule="evenodd" d="M4.90137 16.1538C5.31558 16.1538 5.65137 16.4896 5.65137 16.9038V16.9138C5.65137 17.328 5.31558 17.6638 4.90137 17.6638C4.48715 17.6638 4.15137 17.328 4.15137 16.9138V16.9038C4.15137 16.4896 4.48715 16.1538 4.90137 16.1538Z" fill="black"/>
<path fill-rule="evenodd" clip-rule="evenodd" d="M4.90137 19.4634C5.31558 19.4634 5.65137 19.7992 5.65137 20.2134V20.2234C5.65137 20.6376 5.31558 20.9734 4.90137 20.9734C4.48715 20.9734 4.15137 20.6376 4.15137 20.2234V20.2134C4.15137 19.7992 4.48715 19.4634 4.90137 19.4634Z" fill="black"/>
</svg>
