<svg width="24" height="24" viewBox="0 0 24 24" fill="none" xmlns="http://www.w3.org/2000/svg">
<path fill-rule="evenodd" clip-rule="evenodd" d="M4.5391 4.95314C5.45808 4.07929 6.73718 3.67188 8.19413 3.67188H15.8145C17.2747 3.67188 18.5545 4.07898 19.4722 4.95382C20.3953 5.83394 20.8545 7.09459 20.8504 8.60159V14.6041C20.8504 15.362 20.5576 16.09 20.0325 16.6372L15.9897 20.8484C15.4362 21.4241 14.6717 21.7514 13.8714 21.7514H8.19413C6.73267 21.7514 5.45195 21.3328 4.53385 20.4427C3.61206 19.549 3.15039 18.2716 3.15039 16.7456V8.6008C3.15039 7.09265 3.61437 5.83246 4.5391 4.95314ZM5.57274 6.04015C5.0115 6.57383 4.65039 7.40311 4.65039 8.6008V16.7456C4.65039 17.9682 5.01381 18.8187 5.57799 19.3658C6.14586 19.9163 7.01201 20.2514 8.19413 20.2514H13.8714C14.2621 20.2514 14.6363 20.0918 14.908 19.8092L18.9501 15.5988C18.9501 15.5988 18.9502 15.5987 18.9501 15.5988C19.2073 15.3307 19.3504 14.9746 19.3504 14.6041V8.6008L19.3504 8.59864C19.3539 7.40041 18.9958 6.5721 18.4371 6.03948C17.8726 5.50132 17.0056 5.17188 15.8145 5.17188H8.19413C7.00751 5.17188 6.13974 5.501 5.57274 6.04015Z" fill="black"/>
<path fill-rule="evenodd" clip-rule="evenodd" d="M17.1081 14.3711L17.1101 14.3711L20.0309 14.3711C20.4452 14.3711 20.7809 14.7069 20.7809 15.1211C20.7809 15.5353 20.4452 15.8711 20.0309 15.8711H17.1111C16.0194 15.8744 15.136 16.7601 15.1367 17.8518L15.1367 20.9366C15.1367 21.3508 14.8009 21.6866 14.3867 21.6866C13.9725 21.6866 13.6367 21.3508 13.6367 20.9366V17.8525C13.6367 17.8524 13.6367 17.8526 13.6367 17.8525C13.6357 15.9324 15.19 14.3761 17.1081 14.3711Z" fill="black"/>
<path fill-rule="evenodd" clip-rule="evenodd" d="M8.36914 2.25C8.78335 2.25 9.11914 2.58579 9.11914 3V5.96174C9.11914 6.37595 8.78335 6.71174 8.36914 6.71174C7.95493 6.71174 7.61914 6.37595 7.61914 5.96174V3C7.61914 2.58579 7.95493 2.25 8.36914 2.25ZM15.6403 2.25C16.0545 2.25 16.3903 2.58579 16.3903 3V5.96174C16.3903 6.37595 16.0545 6.71174 15.6403 6.71174C15.2261 6.71174 14.8903 6.37595 14.8903 5.96174V3C14.8903 2.58579 15.2261 2.25 15.6403 2.25Z" fill="black"/>
<path fill-rule="evenodd" clip-rule="evenodd" d="M10.0732 13.4141C10.4875 13.4141 10.8232 13.7498 10.8232 14.1641V17.0247C10.8232 17.4389 10.4875 17.7747 10.0732 17.7747C9.65903 17.7747 9.32324 17.4389 9.32324 17.0247V14.1641C9.32324 13.7498 9.65903 13.4141 10.0732 13.4141Z" fill="black"/>
<path fill-rule="evenodd" clip-rule="evenodd" d="M12.6882 15.5005C13.1024 15.5005 13.4382 15.8363 13.4382 16.2505V17.0242C13.4382 17.4384 13.1024 17.7742 12.6882 17.7742C12.274 17.7742 11.9382 17.4384 11.9382 17.0242V16.2505C11.9382 15.8363 12.274 15.5005 12.6882 15.5005Z" fill="black"/>
<path fill-rule="evenodd" clip-rule="evenodd" d="M7.38306 15.5005C7.79727 15.5005 8.13306 15.8363 8.13306 16.2505V17.0242C8.13306 17.4384 7.79727 17.7742 7.38306 17.7742C6.96884 17.7742 6.63306 17.4384 6.63306 17.0242V16.2505C6.63306 15.8363 6.96884 15.5005 7.38306 15.5005Z" fill="black"/>
<path fill-rule="evenodd" clip-rule="evenodd" d="M16.1508 8.67801C16.4543 8.95989 16.4718 9.43444 16.1899 9.73794L13.491 12.6438C13.2422 12.9117 12.8366 12.9611 12.5307 12.7609L9.91506 11.0487L7.5873 13.571C7.30638 13.8754 6.83189 13.8944 6.52749 13.6135C6.22309 13.3326 6.20406 12.8581 6.48498 12.5537L9.24338 9.56477C9.49192 9.29545 9.89869 9.24519 10.2053 9.4459L12.8227 11.1592L15.0908 8.71714C15.3727 8.41364 15.8473 8.39612 16.1508 8.67801Z" fill="black"/>
</svg>
