<svg width="24" height="24" viewBox="0 0 24 24" fill="none" xmlns="http://www.w3.org/2000/svg">
<path fill-rule="evenodd" clip-rule="evenodd" d="M4.53915 4.95273C5.45818 4.07898 6.7373 3.67188 8.19413 3.67188H15.8145C17.2746 3.67188 18.5544 4.07866 19.4721 4.95341C20.3953 5.83345 20.8545 7.09417 20.8504 8.60159V16.8137C20.8504 18.3212 20.3891 19.5833 19.4658 20.465C18.5477 21.3417 17.2681 21.7514 15.8067 21.7514H8.19413C6.73267 21.7514 5.45195 21.3328 4.53385 20.4427C3.61206 19.549 3.15039 18.2716 3.15039 16.7456V8.6008C3.15039 7.09223 3.61433 5.83198 4.53915 4.95273ZM5.57269 6.03983C5.01153 6.57334 4.65039 7.40256 4.65039 8.6008V16.7456C4.65039 17.9682 5.01381 18.8187 5.57799 19.3658C6.14586 19.9163 7.01201 20.2514 8.19413 20.2514H15.8067C16.9967 20.2514 17.8639 19.9206 18.4298 19.3802C18.9905 18.8448 19.3504 18.013 19.3504 16.8137V8.6008L19.3504 8.59865C19.3539 7.39986 18.9957 6.5716 18.4371 6.03916C17.8727 5.50114 17.0057 5.17188 15.8145 5.17188H8.19413C7.00738 5.17188 6.13963 5.50083 5.57269 6.03983Z" fill="black"/>
<path fill-rule="evenodd" clip-rule="evenodd" d="M8.36914 2.25C8.78335 2.25 9.11914 2.58579 9.11914 3V5.57644C9.11914 5.99065 8.78335 6.32644 8.36914 6.32644C7.95493 6.32644 7.61914 5.99065 7.61914 5.57644V3C7.61914 2.58579 7.95493 2.25 8.36914 2.25ZM15.6403 2.25C16.0545 2.25 16.3903 2.58579 16.3903 3V5.57644C16.3903 5.99065 16.0545 6.32644 15.6403 6.32644C15.2261 6.32644 14.8903 5.99065 14.8903 5.57644V3C14.8903 2.58579 15.2261 2.25 15.6403 2.25Z" fill="black"/>
<path fill-rule="evenodd" clip-rule="evenodd" d="M15.9639 13.7666C16.3781 13.7666 16.7139 14.1024 16.7139 14.5166V16.6099C16.7139 17.0241 16.3781 17.3599 15.9639 17.3599C15.5497 17.3599 15.2139 17.0241 15.2139 16.6099V14.5166C15.2139 14.1024 15.5497 13.7666 15.9639 13.7666Z" fill="black"/>
<path fill-rule="evenodd" clip-rule="evenodd" d="M10.7349 13C11.1491 13 11.4849 13.3358 11.4849 13.75V16.6107C11.4849 17.0249 11.1491 17.3607 10.7349 17.3607C10.3206 17.3607 9.98486 17.0249 9.98486 16.6107V13.75C9.98486 13.3358 10.3206 13 10.7349 13Z" fill="black"/>
<path fill-rule="evenodd" clip-rule="evenodd" d="M13.3499 15.0864C13.7641 15.0864 14.0999 15.4222 14.0999 15.8364V16.6101C14.0999 17.0243 13.7641 17.3601 13.3499 17.3601C12.9356 17.3601 12.5999 17.0243 12.5999 16.6101V15.8364C12.5999 15.4222 12.9356 15.0864 13.3499 15.0864Z" fill="black"/>
<path fill-rule="evenodd" clip-rule="evenodd" d="M8.04443 15.0864C8.45865 15.0864 8.79443 15.4222 8.79443 15.8364V16.6101C8.79443 17.0243 8.45865 17.3601 8.04443 17.3601C7.63022 17.3601 7.29443 17.0243 7.29443 16.6101V15.8364C7.29443 15.4222 7.63022 15.0864 8.04443 15.0864Z" fill="black"/>
<path fill-rule="evenodd" clip-rule="evenodd" d="M16.8124 8.26394C17.1159 8.54583 17.1334 9.02038 16.8515 9.32388L14.1526 12.2297C13.9039 12.4976 13.4982 12.5471 13.1923 12.3468L10.5767 10.6346L8.24892 13.1569C7.968 13.4613 7.49351 13.4804 7.18911 13.1995C6.88471 12.9185 6.86568 12.444 7.1466 12.1396L9.905 9.1507C10.1535 8.88139 10.5603 8.83113 10.8669 9.03184L13.4843 10.7452L15.7525 8.30308C16.0344 7.99958 16.5089 7.98206 16.8124 8.26394Z" fill="black"/>
</svg>
