<svg width="24" height="24" viewBox="0 0 24 24" fill="none" xmlns="http://www.w3.org/2000/svg">
<path fill-rule="evenodd" clip-rule="evenodd" d="M11.5337 7.1875C11.9479 7.1875 12.2837 7.52329 12.2837 7.9375V17.0659C12.2837 17.4801 11.9479 17.8159 11.5337 17.8159C11.1195 17.8159 10.7837 17.4801 10.7837 17.0659V7.9375C10.7837 7.52329 11.1195 7.1875 11.5337 7.1875ZM7.33398 10.1416C7.7482 10.1416 8.08398 10.4774 8.08398 10.8916V17.0661C8.08398 17.4803 7.7482 17.8161 7.33398 17.8161C6.91977 17.8161 6.58398 17.4803 6.58398 17.0661V10.8916C6.58398 10.4774 6.91977 10.1416 7.33398 10.1416ZM15.6651 13.4045C16.0793 13.4045 16.4151 13.7402 16.4151 14.1545V17.0656C16.4151 17.4798 16.0793 17.8156 15.6651 17.8156C15.2509 17.8156 14.9151 17.4798 14.9151 17.0656V14.1545C14.9151 13.7402 15.2509 13.4045 15.6651 13.4045Z" fill="black"/>
<path fill-rule="evenodd" clip-rule="evenodd" d="M3.24072 4.39744C4.22544 3.34116 5.62768 2.75 7.28313 2.75H11.7178C12.1321 2.75 12.4678 3.08579 12.4678 3.5C12.4678 3.91421 12.1321 4.25 11.7178 4.25H7.28313C5.99924 4.25 5.00991 4.69944 4.3379 5.42029C3.66046 6.14696 3.25 7.21004 3.25 8.52735V16.4736C3.25 17.7919 3.65882 18.8545 4.33488 19.5805C5.00534 20.3004 5.99426 20.75 7.28313 20.75H15.7169C17.0063 20.75 17.9952 20.3004 18.6654 19.5805C19.3414 18.8546 19.75 17.792 19.75 16.4736V12.5274C19.75 12.1131 20.0858 11.7774 20.5 11.7774C20.9142 11.7774 21.25 12.1131 21.25 12.5274V16.4736C21.25 18.1014 20.7416 19.552 19.7632 20.6027C18.7792 21.6595 17.3765 22.25 15.7169 22.25H7.28313C5.6239 22.25 4.22126 21.6595 3.23717 20.6028C2.2587 19.5521 1.75 18.1015 1.75 16.4736V8.52735C1.75 6.8985 2.26144 5.4479 3.24072 4.39744Z" fill="black"/>
<path d="M16.5302 9.25C16.1702 9.25 15.8202 9.06 15.6402 8.72C15.5302 8.51 15.4902 8.28 15.5302 8.07L15.7902 6.61L14.7202 5.58C14.5202 5.38 14.4102 5.12 14.4102 4.85C14.4102 4.58 14.5202 4.33 14.7102 4.13C14.8802 3.97 15.0602 3.88 15.2602 3.85L16.7602 3.63L17.4202 2.3C17.5302 2.06 17.7502 1.87 18.0102 1.79C18.2602 1.7 18.5502 1.73 18.7902 1.85C18.9802 1.94 19.1302 2.09 19.2302 2.29C19.2302 2.29 19.2302 2.3 19.2302 2.31L19.8902 3.64L21.3702 3.85C21.6302 3.89 21.8702 4.03 22.0302 4.24C22.3502 4.65 22.3002 5.23 21.9202 5.59L20.8602 6.61L21.1102 8.06C21.1902 8.63 20.8202 9.14 20.2802 9.23C20.0502 9.26 19.8402 9.23 19.6502 9.13L18.3302 8.44L17.0002 9.13C16.8502 9.21 16.6902 9.24 16.5302 9.24V9.25ZM18.1102 8.32C18.1102 8.32 18.1102 8.32 18.1202 8.32H18.1102ZM18.5702 8.31H18.5602C18.5602 8.31 18.5602 8.31 18.5702 8.31ZM16.4802 5.19L17.0202 5.71C17.2702 5.95 17.3702 6.29 17.3102 6.62L17.1802 7.35L17.8602 6.99C18.1502 6.83 18.5102 6.83 18.8102 6.99L19.4702 7.34L19.3402 6.61C19.2802 6.28 19.3902 5.94 19.6402 5.7L20.1702 5.19L19.4202 5.08C19.0902 5.03 18.8002 4.83 18.6602 4.53L18.3202 3.85L17.9802 4.53C17.8302 4.83 17.5502 5.03 17.2202 5.08L16.4702 5.19H16.4802ZM20.8202 6.33V6.35C20.8202 6.35 20.8202 6.34 20.8202 6.33Z" fill="black"/>
</svg>
