<svg width="24" height="24" viewBox="0 0 24 24" fill="none" xmlns="http://www.w3.org/2000/svg">
<path fill-rule="evenodd" clip-rule="evenodd" d="M11.5337 8.1875C11.9479 8.1875 12.2837 8.52329 12.2837 8.9375V17.0659C12.2837 17.4801 11.9479 17.8159 11.5337 17.8159C11.1195 17.8159 10.7837 17.4801 10.7837 17.0659V8.9375C10.7837 8.52329 11.1195 8.1875 11.5337 8.1875ZM7.33398 11.1416C7.7482 11.1416 8.08398 11.4774 8.08398 11.8916V17.0661C8.08398 17.4803 7.7482 17.8161 7.33398 17.8161C6.91977 17.8161 6.58398 17.4803 6.58398 17.0661V11.8916C6.58398 11.4774 6.91977 11.1416 7.33398 11.1416ZM15.6651 13.4045C16.0793 13.4045 16.4151 13.7402 16.4151 14.1545V17.0656C16.4151 17.4798 16.0793 17.8156 15.6651 17.8156C15.2509 17.8156 14.9151 17.4798 14.9151 17.0656V14.1545C14.9151 13.7402 15.2509 13.4045 15.6651 13.4045Z" fill="black"/>
<path fill-rule="evenodd" clip-rule="evenodd" d="M3.24072 4.39744C4.22544 3.34116 5.62768 2.75 7.28313 2.75H10.7178C11.1321 2.75 11.4678 3.08579 11.4678 3.5C11.4678 3.91421 11.1321 4.25 10.7178 4.25H7.28313C5.99924 4.25 5.00991 4.69944 4.3379 5.42029C3.66046 6.14696 3.25 7.21004 3.25 8.52735V16.4736C3.25 17.7919 3.65882 18.8545 4.33488 19.5805C5.00534 20.3004 5.99426 20.75 7.28313 20.75H15.7169C17.0063 20.75 17.9952 20.3004 18.6654 19.5805C19.3414 18.8546 19.75 17.792 19.75 16.4736V13.5274C19.75 13.1131 20.0858 12.7774 20.5 12.7774C20.9142 12.7774 21.25 13.1131 21.25 13.5274V16.4736C21.25 18.1014 20.7416 19.552 19.7632 20.6027C18.7792 21.6595 17.3765 22.25 15.7169 22.25H7.28313C5.6239 22.25 4.22126 21.6595 3.23717 20.6028C2.2587 19.5521 1.75 18.1015 1.75 16.4736V8.52735C1.75 6.8985 2.26144 5.4479 3.24072 4.39744Z" fill="black"/>
<path fill-rule="evenodd" clip-rule="evenodd" d="M17.9979 3.25C16.4785 3.25 15.2468 4.48209 15.2468 6.00195C15.2468 7.52181 16.4785 8.75391 17.9979 8.75391C19.5176 8.75391 20.7499 7.52158 20.7499 6.00195C20.7499 4.48233 19.5176 3.25 17.9979 3.25ZM13.7468 6.00195C13.7468 3.65414 15.6496 1.75 17.9979 1.75C20.346 1.75 22.2499 3.6539 22.2499 6.00195C22.2499 8.35001 20.346 10.2539 17.9979 10.2539C15.6496 10.2539 13.7468 8.34977 13.7468 6.00195Z" fill="black"/>
<path fill-rule="evenodd" clip-rule="evenodd" d="M17.979 4.07721C18.3932 4.07721 18.729 4.413 18.729 4.82721V5.82474L19.4711 6.26832C19.8267 6.48083 19.9426 6.94133 19.7301 7.29687C19.5176 7.65242 19.0571 7.76837 18.7016 7.55586L17.5942 6.89399C17.3677 6.7586 17.229 6.51412 17.229 6.25022V4.82721C17.229 4.413 17.5648 4.07721 17.979 4.07721Z" fill="black"/>
</svg>
