<svg width="24" height="24" viewBox="0 0 24 24" fill="none" xmlns="http://www.w3.org/2000/svg">
<path fill-rule="evenodd" clip-rule="evenodd" d="M13.3978 4.24757C12.5839 3.58414 11.4163 3.58414 10.6025 4.24757L5.02833 8.78744C5.02827 8.78748 5.02838 8.78739 5.02833 8.78744C4.51213 9.20848 4.21265 9.83877 4.21265 10.5044V17.6782C4.21265 19.0982 5.36373 20.25 6.78442 20.25H17.2158C18.6365 20.25 19.7876 19.0982 19.7876 17.6782V10.5044C19.7876 9.83877 19.4883 9.20861 18.9721 8.78757C18.972 8.78753 18.9721 8.78762 18.9721 8.78757L13.3978 4.24757ZM14.3453 3.08472C12.9797 1.97176 11.0205 1.97176 9.65495 3.08472C9.65486 3.08479 9.65503 3.08465 9.65495 3.08472L4.08071 7.62468C3.21537 8.33035 2.71265 9.38759 2.71265 10.5044V17.6782C2.71265 19.9264 4.53501 21.75 6.78442 21.75H17.2158C19.4652 21.75 21.2876 19.9264 21.2876 17.6782V10.5044C21.2876 9.38759 20.7852 8.33065 19.9199 7.62497L14.3453 3.08472C14.3454 3.08479 14.3452 3.08465 14.3453 3.08472Z" fill="black"/>
<path fill-rule="evenodd" clip-rule="evenodd" d="M15.3422 10.2367C15.5147 10.3359 15.6406 10.4996 15.6924 10.6917L16.3044 12.9646C16.4121 13.3646 16.1751 13.7761 15.7752 13.8838C15.3752 13.9915 14.9637 13.7546 14.856 13.3546L14.439 11.8062L12.8905 12.2238C12.4906 12.3317 12.079 12.0949 11.9711 11.695C11.8633 11.2951 12.1 10.8834 12.5 10.7756L14.7729 10.1626C14.965 10.1108 15.1698 10.1374 15.3422 10.2367Z" fill="black"/>
<path fill-rule="evenodd" clip-rule="evenodd" d="M15.343 10.2366C15.702 10.4432 15.8256 10.9017 15.6191 11.2607L12.991 15.8289C12.7845 16.1879 12.3261 16.3115 11.9671 16.1051L10.2129 15.0963L9.07189 17.0801C8.86537 17.4391 8.40688 17.5628 8.04782 17.3563C7.68876 17.1498 7.56511 16.6913 7.77163 16.3322L9.28657 13.6983C9.49308 13.3393 9.95153 13.2156 10.3106 13.4221L12.0648 14.4309L14.3189 10.5127C14.5254 10.1537 14.9839 10.0301 15.343 10.2366Z" fill="black"/>
</svg>
