<svg width="24" height="24" viewBox="0 0 24 24" fill="none" xmlns="http://www.w3.org/2000/svg">
<path fill-rule="evenodd" clip-rule="evenodd" d="M11.6326 3.75C7.39783 3.75 3.96509 7.1836 3.96509 11.4175C3.96509 15.6534 7.39783 19.086 11.6326 19.086C15.8674 19.086 19.3001 15.6534 19.3001 11.4175C19.3001 7.1836 15.8674 3.75 11.6326 3.75ZM2.46509 11.4175C2.46509 6.35529 6.56929 2.25 11.6326 2.25C16.6959 2.25 20.8001 6.35529 20.8001 11.4175C20.8001 16.4817 16.6959 20.586 11.6326 20.586C6.56929 20.586 2.46509 16.4817 2.46509 11.4175Z" fill="black"/>
<path fill-rule="evenodd" clip-rule="evenodd" d="M16.8284 17.0524C17.1209 16.7591 17.5958 16.7585 17.889 17.051L21.314 20.4673C21.6073 20.7598 21.6079 21.2347 21.3154 21.5279C21.0229 21.8212 20.548 21.8218 20.2547 21.5293L16.8297 18.113C16.5365 17.8205 16.5358 17.3456 16.8284 17.0524Z" fill="black"/>
<path fill-rule="evenodd" clip-rule="evenodd" d="M15.9675 8.69618C16.2949 8.94988 16.3546 9.42097 16.1009 9.7484L13.6032 12.972C13.4809 13.1299 13.3006 13.2324 13.1024 13.257C12.9042 13.2815 12.7043 13.2259 12.5472 13.1025L10.2317 11.2846L8.14132 14.0014C7.88873 14.3297 7.41784 14.391 7.08955 14.1384C6.76127 13.8858 6.69991 13.4149 6.9525 13.0867L9.50471 9.76966C9.62678 9.61101 9.80721 9.50774 10.0058 9.48284C10.2045 9.45795 10.4048 9.51349 10.5623 9.6371L12.8798 11.4566L14.9152 8.82967C15.1689 8.50224 15.64 8.44248 15.9675 8.69618Z" fill="black"/>
</svg>
