<svg width="24" height="24" viewBox="0 0 24 24" fill="none" xmlns="http://www.w3.org/2000/svg">
<path fill-rule="evenodd" clip-rule="evenodd" d="M3.74072 3.89744C4.72544 2.84116 6.12768 2.25 7.78313 2.25H16.2178C17.8772 2.25 19.2796 2.84086 20.2635 3.89789C21.2416 4.94883 21.75 6.39954 21.75 8.02735V15.9736C21.75 17.6014 21.2416 19.052 20.2632 20.1027C19.2792 21.1595 17.8765 21.75 16.2169 21.75H7.78313C6.1239 21.75 4.72126 21.1595 3.73717 20.1028C2.7587 19.0521 2.25 17.6015 2.25 15.9736V8.02735C2.25 6.3985 2.76144 4.9479 3.74072 3.89744ZM4.8379 4.92029C4.16046 5.64696 3.75 6.71004 3.75 8.02735V15.9736C3.75 17.2919 4.15882 18.3545 4.83488 19.0805C5.50534 19.8004 6.49426 20.25 7.78313 20.25H16.2169C17.5063 20.25 18.4952 19.8004 19.1654 19.0805C19.8414 18.3546 20.25 17.292 20.25 15.9736V8.02735C20.25 6.709 19.8414 5.64603 19.1655 4.91984C18.4952 4.19973 17.5066 3.75 16.2178 3.75H7.78313C6.49924 3.75 5.50991 4.19944 4.8379 4.92029Z" fill="black"/>
<path fill-rule="evenodd" clip-rule="evenodd" d="M16.1651 6.6875C16.5793 6.6875 16.9151 7.02329 16.9151 7.4375V16.5659C16.9151 16.9801 16.5793 17.3159 16.1651 17.3159C15.7509 17.3159 15.4151 16.9801 15.4151 16.5659V7.4375C15.4151 7.02329 15.7509 6.6875 16.1651 6.6875ZM12.0337 10.2877C12.4479 10.2877 12.7837 10.6235 12.7837 11.0377V16.5661C12.7837 16.9803 12.4479 17.3161 12.0337 17.3161C11.6195 17.3161 11.2837 16.9803 11.2837 16.5661V11.0377C11.2837 10.6235 11.6195 10.2877 12.0337 10.2877ZM7.83398 12.9871C8.2482 12.9871 8.58398 13.3229 8.58398 13.7371V16.5656C8.58398 16.9798 8.2482 17.3156 7.83398 17.3156C7.41977 17.3156 7.08398 16.9798 7.08398 16.5656V13.7371C7.08398 13.3229 7.41977 12.9871 7.83398 12.9871Z" fill="black"/>
</svg>
