<svg width="24" height="24" viewBox="0 0 24 24" fill="none" xmlns="http://www.w3.org/2000/svg">
<path fill-rule="evenodd" clip-rule="evenodd" d="M4 3.25C4.41421 3.25 4.75 3.58579 4.75 4V18C4.75 18.6904 5.30964 19.25 6 19.25H20C20.4142 19.25 20.75 19.5858 20.75 20C20.75 20.4142 20.4142 20.75 20 20.75H6C4.48122 20.75 3.25 19.5188 3.25 18V4C3.25 3.58579 3.58579 3.25 4 3.25Z" fill="black"/>
<path fill-rule="evenodd" clip-rule="evenodd" d="M7.25 8C7.25 7.0335 8.0335 6.25 9 6.25H10C10.9665 6.25 11.75 7.0335 11.75 8V20C11.75 20.4142 11.4142 20.75 11 20.75C10.5858 20.75 10.25 20.4142 10.25 20V8C10.25 7.86193 10.1381 7.75 10 7.75H9C8.86193 7.75 8.75 7.86193 8.75 8V20C8.75 20.4142 8.41421 20.75 8 20.75C7.58579 20.75 7.25 20.4142 7.25 20V8Z" fill="black"/>
<path fill-rule="evenodd" clip-rule="evenodd" d="M13.75 13.084C13.75 12.1175 14.5335 11.334 15.5 11.334H16.5C17.4665 11.334 18.25 12.1175 18.25 13.084V20C18.25 20.4142 17.9142 20.75 17.5 20.75C17.0858 20.75 16.75 20.4142 16.75 20V13.084C16.75 12.9459 16.6381 12.834 16.5 12.834H15.5C15.3619 12.834 15.25 12.9459 15.25 13.084V20C15.25 20.4142 14.9142 20.75 14.5 20.75C14.0858 20.75 13.75 20.4142 13.75 20V13.084Z" fill="black"/>
</svg>
