<svg width="24" height="24" viewBox="0 0 24 24" fill="none" xmlns="http://www.w3.org/2000/svg">
<path fill-rule="evenodd" clip-rule="evenodd" d="M12.0002 9.85742C12.4144 9.85742 12.7502 10.1932 12.7502 10.6074V19.9974C12.7502 20.4116 12.4144 20.7474 12.0002 20.7474C11.5859 20.7474 11.2502 20.4116 11.2502 19.9974V10.6074C11.2502 10.1932 11.5859 9.85742 12.0002 9.85742ZM4.68848 12.6744C5.10269 12.6744 5.43848 13.0102 5.43848 13.4244V19.9974C5.43848 20.4116 5.10269 20.7474 4.68848 20.7474C4.27426 20.7474 3.93848 20.4116 3.93848 19.9974V13.4244C3.93848 13.0102 4.27426 12.6744 4.68848 12.6744ZM19.3118 15.4914C19.7261 15.4914 20.0618 15.8272 20.0618 16.2414V19.9974C20.0618 20.4116 19.7261 20.7474 19.3118 20.7474C18.8976 20.7474 18.5618 20.4116 18.5618 19.9974V16.2414C18.5618 15.8272 18.8976 15.4914 19.3118 15.4914Z" fill="black"/>
<path fill-rule="evenodd" clip-rule="evenodd" d="M11.0741 5.88726C11.2237 6.2735 11.0319 6.70791 10.6457 6.85755L6.53799 8.44895C6.15175 8.59859 5.71734 8.40678 5.5677 8.02054C5.41806 7.6343 5.60986 7.19989 5.9961 7.05025L10.1038 5.45885C10.49 5.30922 10.9244 5.50102 11.0741 5.88726Z" fill="black"/>
<path fill-rule="evenodd" clip-rule="evenodd" d="M12.8269 6.11949C13.0788 5.79071 13.5496 5.72843 13.8784 5.98038L18.3698 9.42232C18.6986 9.67427 18.7608 10.145 18.5089 10.4738C18.2569 10.8026 17.7862 10.8649 17.4574 10.6129L12.966 7.17098C12.6372 6.91903 12.5749 6.44826 12.8269 6.11949Z" fill="black"/>
<path fill-rule="evenodd" clip-rule="evenodd" d="M10.2762 3.96611C11.2284 3.0139 12.7722 3.0139 13.7244 3.96611C14.6766 4.91832 14.6766 6.46216 13.7244 7.41437C12.7722 8.36658 11.2284 8.36658 10.2762 7.41437C9.32396 6.46216 9.32396 4.91832 10.2762 3.96611ZM12.6638 5.02677C12.2973 4.66035 11.7033 4.66035 11.3368 5.02677C10.9704 5.3932 10.9704 5.98729 11.3368 6.35371C11.7033 6.72013 12.2973 6.72013 12.6638 6.35371C13.0302 5.98729 13.0302 5.3932 12.6638 5.02677Z" fill="black"/>
<path fill-rule="evenodd" clip-rule="evenodd" d="M17.5877 9.2625C18.5399 8.31029 20.0837 8.31029 21.036 9.2625C21.9882 10.2147 21.9882 11.7585 21.036 12.7108C20.0837 13.663 18.5399 13.663 17.5877 12.7108C16.6355 11.7585 16.6355 10.2147 17.5877 9.2625ZM19.9753 10.3232C19.6089 9.95673 19.0148 9.95673 18.6484 10.3232C18.2819 10.6896 18.2819 11.2837 18.6484 11.6501C19.0148 12.0165 19.6089 12.0165 19.9753 11.6501C20.3417 11.2837 20.3417 10.6896 19.9753 10.3232Z" fill="black"/>
<path fill-rule="evenodd" clip-rule="evenodd" d="M2.96416 6.59892C3.91637 5.64671 5.46021 5.64671 6.41242 6.59892C7.36463 7.55113 7.36463 9.09497 6.41242 10.0472C5.46021 10.9994 3.91637 10.9994 2.96416 10.0472C2.01195 9.09497 2.01195 7.55113 2.96416 6.59892ZM5.35176 7.65958C4.98533 7.29316 4.39124 7.29316 4.02482 7.65958C3.65839 8.02601 3.65839 8.6201 4.02482 8.98652C4.39124 9.35295 4.98533 9.35295 5.35176 8.98652C5.71818 8.6201 5.71818 8.02601 5.35176 7.65958Z" fill="black"/>
</svg>
