<svg width="24" height="24" viewBox="0 0 24 24" fill="none" xmlns="http://www.w3.org/2000/svg">
<path fill-rule="evenodd" clip-rule="evenodd" d="M7.16545 9.06923C7.49289 8.81554 7.96398 8.87533 8.21767 9.20276L10.5006 12.1493L13.1069 10.103C13.2643 9.97938 13.4646 9.92383 13.6632 9.94871C13.8619 9.97359 14.0423 10.0768 14.1644 10.2355L16.9697 13.8806C17.2223 14.2088 17.161 14.6797 16.8328 14.9324C16.5045 15.185 16.0336 15.1237 15.781 14.7954L13.4375 11.7505L10.8332 13.7953C10.6761 13.9186 10.4762 13.9742 10.278 13.9497C10.0797 13.9252 9.89947 13.8226 9.77713 13.6647L7.03191 10.1214C6.77823 9.79401 6.83801 9.32292 7.16545 9.06923Z" fill="black"/>
<path fill-rule="evenodd" clip-rule="evenodd" d="M12 3.75C7.44335 3.75 3.75 7.44421 3.75 12C3.75 16.5567 7.44329 20.25 12 20.25C16.5567 20.25 20.25 16.5567 20.25 12C20.25 7.44421 16.5567 3.75 12 3.75ZM2.25 12C2.25 6.61589 6.61481 2.25 12 2.25C17.3852 2.25 21.75 6.61589 21.75 12C21.75 17.3851 17.3851 21.75 12 21.75C6.61487 21.75 2.25 17.3851 2.25 12Z" fill="black"/>
</svg>
