<svg width="24" height="24" viewBox="0 0 24 24" fill="none" xmlns="http://www.w3.org/2000/svg">
<path fill-rule="evenodd" clip-rule="evenodd" d="M7.16545 9.06923C7.49289 8.81554 7.96398 8.87533 8.21767 9.20276L10.5006 12.1493L13.1069 10.103C13.2643 9.97938 13.4646 9.92383 13.6632 9.94871C13.8619 9.97359 14.0423 10.0768 14.1644 10.2355L16.9697 13.8806C17.2223 14.2088 17.161 14.6797 16.8328 14.9324C16.5045 15.185 16.0336 15.1237 15.781 14.7954L13.4375 11.7505L10.8332 13.7953C10.6761 13.9186 10.4762 13.9742 10.278 13.9497C10.0797 13.9252 9.89947 13.8226 9.77713 13.6647L7.03191 10.1214C6.77823 9.79401 6.83801 9.32292 7.16545 9.06923Z" fill="black"/>
<path fill-rule="evenodd" clip-rule="evenodd" d="M12 3.75C7.44335 3.75 3.75 7.44421 3.75 12C3.75 16.5567 7.44329 20.25 12 20.25C16.5567 20.25 20.25 16.5567 20.25 12C20.25 11.3143 20.1665 10.6492 20.0095 10.0137C19.9101 9.6116 20.1555 9.20506 20.5576 9.10569C20.9598 9.00632 21.3663 9.25175 21.4657 9.65386C21.6516 10.4061 21.75 11.1921 21.75 12C21.75 17.3851 17.3851 21.75 12 21.75C6.61487 21.75 2.25 17.3851 2.25 12C2.25 6.61589 6.61481 2.25 12 2.25C12.7707 2.25 13.5215 2.33958 14.2421 2.50922C14.6453 2.60413 14.8952 3.00793 14.8003 3.41112C14.7054 3.81431 14.3016 4.06422 13.8984 3.9693C13.2896 3.82599 12.6542 3.75 12 3.75Z" fill="black"/>
<path fill-rule="evenodd" clip-rule="evenodd" d="M19.1982 3.75C18.6175 3.75 18.1465 4.221 18.1465 4.8017C18.1465 5.3824 18.6175 5.8534 19.1982 5.8534C19.7789 5.8534 20.2499 5.3824 20.2499 4.8017C20.2499 4.221 19.7789 3.75 19.1982 3.75ZM16.6465 4.8017C16.6465 3.39258 17.7891 2.25 19.1982 2.25C20.6073 2.25 21.7499 3.39258 21.7499 4.8017C21.7499 6.21083 20.6073 7.3534 19.1982 7.3534C17.7891 7.3534 16.6465 6.21083 16.6465 4.8017Z" fill="black"/>
</svg>
