<svg width="24" height="24" viewBox="0 0 24 24" fill="none" xmlns="http://www.w3.org/2000/svg">
<path fill-rule="evenodd" clip-rule="evenodd" d="M7.75781 9.99707C7.75781 10.4113 8.0936 10.7471 8.50781 10.7471L11.69 10.7471C12.1042 10.7471 12.44 10.4113 12.44 9.99707C12.44 9.58286 12.1042 9.24707 11.69 9.24707L8.50781 9.24707C8.0936 9.24707 7.75781 9.58286 7.75781 9.99707Z" fill="black"/>
<path fill-rule="evenodd" clip-rule="evenodd" d="M7.75879 5.22461C7.75879 5.63882 8.09458 5.97461 8.50879 5.97461L18.1239 5.97461C18.5381 5.97461 18.8739 5.63882 18.8739 5.22461C18.8739 4.8104 18.5381 4.47461 18.1239 4.47461L8.50879 4.47461C8.09458 4.47461 7.75879 4.8104 7.75879 5.22461Z" fill="black"/>
<path fill-rule="evenodd" clip-rule="evenodd" d="M7.75635 14.7678C7.75635 15.182 8.09213 15.5178 8.50635 15.5178L13.2557 15.5178C13.6699 15.5178 14.0057 15.182 14.0057 14.7678C14.0057 14.3536 13.6699 14.0178 13.2557 14.0178L8.50635 14.0178C8.09213 14.0178 7.75635 14.3536 7.75635 14.7678Z" fill="black"/>
<path fill-rule="evenodd" clip-rule="evenodd" d="M4 3.25C4.41421 3.25 4.75 3.58579 4.75 4V18C4.75 18.6904 5.30964 19.25 6 19.25H20C20.4142 19.25 20.75 19.5858 20.75 20C20.75 20.4142 20.4142 20.75 20 20.75H6C4.48122 20.75 3.25 19.5188 3.25 18V4C3.25 3.58579 3.58579 3.25 4 3.25Z" fill="black"/>
</svg>
