<svg width="24" height="24" viewBox="0 0 24 24" fill="none" xmlns="http://www.w3.org/2000/svg">
<path fill-rule="evenodd" clip-rule="evenodd" d="M18.9195 8.69417C19.2858 8.88758 19.4259 9.3413 19.2325 9.70759L16.4156 15.0423C16.2663 15.325 15.9542 15.482 15.6382 15.4333L12.146 14.895L9.70475 17.5599C9.50003 17.7834 9.18094 17.8617 8.89604 17.7584L4.01259 15.9875C3.62319 15.8462 3.42199 15.4161 3.5632 15.0267C3.70441 14.6373 4.13456 14.4361 4.52396 14.5773L8.93682 16.1776L11.3108 13.5861C11.4801 13.4013 11.7304 13.3133 11.9781 13.3515L15.3386 13.8694L17.9061 9.00719C18.0995 8.6409 18.5532 8.50076 18.9195 8.69417Z" fill="black"/>
<path fill-rule="evenodd" clip-rule="evenodd" d="M19.0651 4.24097C19.3759 4.5148 19.4059 4.98872 19.1321 5.29952L14.961 10.0338C14.7286 10.2976 14.3441 10.3645 14.0362 10.1948L10.3962 8.18772L8.16398 10.7814C8.0215 10.9469 7.81394 11.0422 7.59553 11.0422H4C3.58579 11.0422 3.25 10.7064 3.25 10.2922C3.25 9.87794 3.58579 9.54216 4 9.54216H7.25149L9.65662 6.74763C9.88811 6.47865 10.2764 6.40874 10.5872 6.5801L14.2334 8.5906L18.0066 4.30792C18.2804 3.99713 18.7543 3.96715 19.0651 4.24097Z" fill="black"/>
<path fill-rule="evenodd" clip-rule="evenodd" d="M4 3.25C4.41421 3.25 4.75 3.58579 4.75 4V18C4.75 18.6904 5.30964 19.25 6 19.25H20C20.4142 19.25 20.75 19.5858 20.75 20C20.75 20.4142 20.4142 20.75 20 20.75H6C4.48122 20.75 3.25 19.5188 3.25 18V4C3.25 3.58579 3.58579 3.25 4 3.25Z" fill="black"/>
<path fill-rule="evenodd" clip-rule="evenodd" d="M9.00808 7.38269C9.00428 6.70766 9.55276 6.16455 10.2211 6.16455C10.8894 6.16455 11.4383 6.70272 11.4383 7.37966C11.4383 8.0502 10.8937 8.59478 10.2232 8.59478C9.55365 8.59478 9.00971 8.05184 9.00808 7.38269ZM9.47112 7.38198L9.0081 7.38571C9.00809 7.3847 9.00808 7.3837 9.00808 7.38269C9.00807 7.38168 9.00807 7.38067 9.00807 7.37966H9.47112V7.38198ZM9.47112 7.38198L9.75807 7.37966H9.47112V7.31426C9.47112 6.90004 9.8069 6.56426 10.2211 6.56426C10.6353 6.56426 10.9711 6.90004 10.9711 7.31426V7.42086C10.9711 7.83438 10.6364 8.16974 10.2232 8.17085C10.2225 8.17085 10.2218 8.17086 10.2211 8.17086C9.8069 8.17086 9.47112 7.83507 9.47112 7.42086V7.38198Z" fill="black"/>
<path fill-rule="evenodd" clip-rule="evenodd" d="M13.2842 9.36023C13.2804 8.6852 13.8289 8.14209 14.4972 8.14209C15.1655 8.14209 15.7144 8.68026 15.7144 9.3572C15.7144 10.0277 15.1699 10.5723 14.4993 10.5723C13.8298 10.5723 13.2858 10.0294 13.2842 9.36023ZM13.7472 9.35952L13.2842 9.36325C13.2842 9.36224 13.2842 9.36124 13.2842 9.36023C13.2842 9.35922 13.2842 9.35821 13.2842 9.3572H13.7472V9.35952ZM13.7472 9.35952L14.0342 9.3572H13.7472V9.2918C13.7472 8.87758 14.083 8.5418 14.4972 8.5418C14.9115 8.5418 15.2472 8.87758 15.2472 9.2918V9.39839C15.2472 9.81192 14.9126 10.1473 14.4993 10.1484C14.4986 10.1484 14.4979 10.1484 14.4972 10.1484C14.083 10.1484 13.7472 9.81261 13.7472 9.39839V9.35952Z" fill="black"/>
<path fill-rule="evenodd" clip-rule="evenodd" d="M6.4258 10.0824C6.422 9.40736 6.97048 8.86426 7.63884 8.86426C8.30711 8.86426 8.85602 9.40243 8.85602 10.0794C8.85602 10.7499 8.31146 11.2945 7.64091 11.2945C6.97138 11.2945 6.42744 10.7516 6.4258 10.0824ZM6.88884 10.0817L6.42582 10.0854C6.42581 10.0844 6.42581 10.0834 6.4258 10.0824C6.4258 10.0814 6.4258 10.0804 6.4258 10.0794H6.88884V10.0817ZM6.88884 10.0817L7.1758 10.0794H6.88884V10.014C6.88884 9.59975 7.22463 9.26396 7.63884 9.26396C8.05306 9.26396 8.38884 9.59975 8.38884 10.014V10.1206C8.38884 10.5341 8.05417 10.8694 7.64091 10.8706C7.64022 10.8706 7.63953 10.8706 7.63884 10.8706C7.22463 10.8706 6.88884 10.5348 6.88884 10.1206V10.0817Z" fill="black"/>
<path fill-rule="evenodd" clip-rule="evenodd" d="M7.86965 17.056C7.86585 16.381 8.41433 15.8379 9.08269 15.8379C9.75096 15.8379 10.2999 16.3761 10.2999 17.053C10.2999 17.7235 9.75531 18.2681 9.08476 18.2681C8.41522 18.2681 7.87128 17.7252 7.86965 17.056ZM8.33269 17.0553L7.86967 17.0591C7.86966 17.058 7.86965 17.057 7.86965 17.056C7.86965 17.055 7.86964 17.054 7.86964 17.053H8.33269V17.0553ZM8.33269 17.0553L8.61964 17.053H8.33269V16.9876C8.33269 16.5734 8.66848 16.2376 9.08269 16.2376C9.4969 16.2376 9.83269 16.5734 9.83269 16.9876V17.0942C9.83269 17.5077 9.49802 17.8431 9.08476 17.8442C9.08407 17.8442 9.08338 17.8442 9.08269 17.8442C8.66848 17.8442 8.33269 17.5084 8.33269 17.0942V17.0553Z" fill="black"/>
<path fill-rule="evenodd" clip-rule="evenodd" d="M10.6687 14.0848C10.6649 13.4098 11.2134 12.8667 11.8818 12.8667C12.55 12.8667 13.0989 13.4049 13.0989 14.0818C13.0989 14.7524 12.5544 15.2969 11.8838 15.2969C11.2143 15.2969 10.6704 14.754 10.6687 14.0848ZM11.1318 14.0841L10.6687 14.0879C10.6687 14.0869 10.6687 14.0858 10.6687 14.0848C10.6687 14.0838 10.6687 14.0828 10.6687 14.0818H11.1318V14.0841ZM11.1318 14.0841L11.4187 14.0818H11.1318V14.0164C11.1318 13.6022 11.4675 13.2664 11.8818 13.2664C12.296 13.2664 12.6318 13.6022 12.6318 14.0164V14.123C12.6318 14.5365 12.2971 14.8719 11.8838 14.873C11.8831 14.873 11.8825 14.873 11.8818 14.873C11.4675 14.873 11.1318 14.5372 11.1318 14.123V14.0841Z" fill="black"/>
<path fill-rule="evenodd" clip-rule="evenodd" d="M14.5005 14.5499C14.4967 13.8749 15.0452 13.3318 15.7135 13.3318C16.3818 13.3318 16.9307 13.87 16.9307 14.5469C16.9307 15.2174 16.3862 15.762 15.7156 15.762C15.0461 15.762 14.5021 15.2191 14.5005 14.5499ZM14.9635 14.5492L14.5005 14.5529C14.5005 14.5519 14.5005 14.5509 14.5005 14.5499C14.5005 14.5489 14.5005 14.5479 14.5005 14.5469H14.9635V14.5492ZM14.9635 14.5492L15.2505 14.5469H14.9635V14.4815C14.9635 14.0673 15.2993 13.7315 15.7135 13.7315C16.1278 13.7315 16.4635 14.0673 16.4635 14.4815V14.5881C16.4635 15.0016 16.1289 15.337 15.7156 15.3381C15.7149 15.3381 15.7142 15.3381 15.7135 15.3381C15.2993 15.3381 14.9635 15.0023 14.9635 14.5881V14.5492Z" fill="black"/>
</svg>
