<svg width="24" height="24" viewBox="0 0 24 24" fill="none" xmlns="http://www.w3.org/2000/svg">
<path fill-rule="evenodd" clip-rule="evenodd" d="M4 3.25C4.41421 3.25 4.75 3.58579 4.75 4V18C4.75 18.6904 5.30964 19.25 6 19.25H20C20.4142 19.25 20.75 19.5858 20.75 20C20.75 20.4142 20.4142 20.75 20 20.75H6C4.48122 20.75 3.25 19.5188 3.25 18V4C3.25 3.58579 3.58579 3.25 4 3.25Z" fill="black"/>
<path fill-rule="evenodd" clip-rule="evenodd" d="M19.9496 7.71451C20.3271 7.88505 20.4949 8.32931 20.3243 8.70679L19.6409 8.39799C20.3243 8.70679 20.3244 8.7066 20.3243 8.70679L20.3234 8.70876L20.3219 8.71206L20.3171 8.72254L20.3003 8.7585C20.286 8.78891 20.2654 8.83194 20.2388 8.88582C20.1856 8.99346 20.1083 9.14493 20.0089 9.3257C19.811 9.68552 19.5213 10.1699 19.1568 10.6588C18.795 11.1439 18.3413 11.6579 17.8096 12.0565C17.2791 12.4541 16.6219 12.7727 15.8715 12.7727C14.5499 12.7727 13.5894 11.9475 12.8979 11.3534L12.8917 11.348C12.8696 11.3291 12.8479 11.3104 12.8263 11.2918C12.4791 10.9933 12.1962 10.75 11.9088 10.571C11.6169 10.3891 11.3825 10.3151 11.1593 10.3215C10.4029 10.3432 9.67869 10.9086 9.0754 11.6585C8.78918 12.0142 8.56237 12.372 8.40673 12.6426C8.32937 12.777 8.27077 12.8879 8.23227 12.9635C8.21305 13.0012 8.19892 13.03 8.19005 13.0484L8.18073 13.0679L8.17947 13.0706C8.0064 13.4467 7.56107 13.6118 7.18481 13.4389C6.80844 13.266 6.64354 12.8206 6.8165 12.4443L7.49798 12.7574C6.8165 12.4443 6.8164 12.4445 6.8165 12.4443L6.81747 12.4421L6.81898 12.4389L6.8236 12.429L6.83922 12.3963C6.85244 12.3689 6.87129 12.3305 6.89561 12.2828C6.9442 12.1874 7.01492 12.0538 7.10654 11.8946C7.28883 11.5777 7.55854 11.1509 7.90667 10.7182C8.57205 9.89114 9.66781 8.8637 11.1164 8.82216C11.7367 8.80438 12.2635 9.02467 12.702 9.29783C13.0921 9.54089 13.4605 9.85827 13.7833 10.1364C13.8123 10.1614 13.8409 10.186 13.8692 10.2103C14.6176 10.8533 15.1786 11.2727 15.8715 11.2727C16.1869 11.2727 16.5338 11.1382 16.9099 10.8563C17.2849 10.5752 17.6403 10.1831 17.9544 9.76196C18.2657 9.3446 18.5186 8.92284 18.6944 8.60301C18.7819 8.44397 18.8491 8.31225 18.8938 8.22167C18.9162 8.17643 18.9328 8.14159 18.9435 8.1189L18.9551 8.09424L18.9574 8.0892C19.128 7.71192 19.5723 7.54401 19.9496 7.71451Z" fill="black"/>
</svg>
