<svg width="24" height="24" viewBox="0 0 24 24" fill="none" xmlns="http://www.w3.org/2000/svg">
<path fill-rule="evenodd" clip-rule="evenodd" d="M4 3.25C4.41421 3.25 4.75 3.58579 4.75 4V18C4.75 18.6904 5.30964 19.25 6 19.25H20C20.4142 19.25 20.75 19.5858 20.75 20C20.75 20.4142 20.4142 20.75 20 20.75H6C4.48122 20.75 3.25 19.5188 3.25 18V4C3.25 3.58579 3.58579 3.25 4 3.25Z" fill="black"/>
<path fill-rule="evenodd" clip-rule="evenodd" d="M18.0193 12.2793C18.4335 12.2793 18.7693 12.6151 18.7693 13.0293V15.7786C18.7693 16.1928 18.4335 16.5286 18.0193 16.5286C17.6051 16.5286 17.2693 16.1928 17.2693 15.7786V13.0293C17.2693 12.6151 17.6051 12.2793 18.0193 12.2793Z" fill="black"/>
<path fill-rule="evenodd" clip-rule="evenodd" d="M11.1519 11.2715C11.5661 11.2715 11.9019 11.6073 11.9019 12.0215V15.7786C11.9019 16.1928 11.5661 16.5286 11.1519 16.5286C10.7376 16.5286 10.4019 16.1928 10.4019 15.7786V12.0215C10.4019 11.6073 10.7376 11.2715 11.1519 11.2715Z" fill="black"/>
<path fill-rule="evenodd" clip-rule="evenodd" d="M14.5857 14.0122C14.9999 14.0122 15.3357 14.348 15.3357 14.7622V15.7784C15.3357 16.1926 14.9999 16.5284 14.5857 16.5284C14.1715 16.5284 13.8357 16.1926 13.8357 15.7784V14.7622C13.8357 14.348 14.1715 14.0122 14.5857 14.0122Z" fill="black"/>
<path fill-rule="evenodd" clip-rule="evenodd" d="M7.61816 14.0122C8.03238 14.0122 8.36816 14.348 8.36816 14.7622V15.7784C8.36816 16.1926 8.03238 16.5284 7.61816 16.5284C7.20395 16.5284 6.86816 16.1926 6.86816 15.7784V14.7622C6.86816 14.348 7.20395 14.0122 7.61816 14.0122Z" fill="black"/>
<path fill-rule="evenodd" clip-rule="evenodd" d="M19.5747 5.29708C19.8879 5.56813 19.9221 6.04177 19.651 6.35499L15.9118 10.6759C15.6599 10.967 15.2285 11.0201 14.9135 10.7988L11.11 8.12661L7.73177 12.0554C7.46171 12.3695 6.98818 12.4052 6.67411 12.1351C6.36004 11.865 6.32436 11.3915 6.59442 11.0774L10.4161 6.633C10.6676 6.34043 11.1002 6.28648 11.4159 6.5083L15.2211 9.18172L18.5168 5.37343C18.7878 5.06021 19.2615 5.02603 19.5747 5.29708Z" fill="black"/>
</svg>
