<svg width="24" height="24" viewBox="0 0 24 24" fill="none" xmlns="http://www.w3.org/2000/svg">
<path fill-rule="evenodd" clip-rule="evenodd" d="M10.3572 4.40219C6.66628 4.7904 3.75 8.02427 3.75 12.0001C3.75 14.5799 4.98081 16.8537 6.85725 18.2347C7.86715 18.978 9.06308 19.4621 10.3572 19.598V4.40219ZM10.5595 2.88023C11.2979 2.83371 11.8572 3.43561 11.8572 4.1135V19.8867C11.8572 20.5638 11.299 21.1665 10.5599 21.12C8.8524 21.0124 7.27651 20.4058 5.9681 19.4428C3.7137 17.7835 2.25 15.0643 2.25 12.0001C2.25 7.16551 5.90088 3.17378 10.5595 2.88023Z" fill="black"/>
<path fill-rule="evenodd" clip-rule="evenodd" d="M13.5239 14.1443C13.5239 13.4537 14.0838 12.8939 14.7744 12.8939H20.5167C21.1917 12.8939 21.8016 13.4523 21.7469 14.1989C21.528 17.1848 19.5612 19.682 16.8678 20.6758C16.2245 20.9131 15.5401 21.0647 14.8288 21.1168C14.0819 21.1716 13.5239 20.5613 13.5239 19.8866V14.1443ZM15.0239 14.3939V19.5907C15.484 19.5334 15.9275 19.4239 16.3485 19.2685C18.4119 18.5072 19.9402 16.6429 20.2208 14.3939H15.0239Z" fill="black"/>
<path fill-rule="evenodd" clip-rule="evenodd" d="M13.5239 4.11345C13.5239 3.43782 14.0833 2.82855 14.8293 2.88328C18.5255 3.15446 21.4757 6.10469 21.7469 9.80085C21.8016 10.5468 21.1923 11.1062 20.5167 11.1062H14.7744C14.0838 11.1062 13.5239 10.5464 13.5239 9.85576V4.11345ZM15.0239 4.40938V9.60623H20.2208C19.8827 6.89631 17.7339 4.74745 15.0239 4.40938Z" fill="black"/>
</svg>
