<svg width="24" height="24" viewBox="0 0 24 24" fill="none" xmlns="http://www.w3.org/2000/svg">
<path fill-rule="evenodd" clip-rule="evenodd" d="M4.58828 12.7861C5.05122 12.7861 5.42651 12.4108 5.42651 11.9479C5.42651 11.485 5.05122 11.1097 4.58828 11.1097C4.12533 11.1097 3.75004 11.485 3.75004 11.9479C3.75004 12.4108 4.12533 12.7861 4.58828 12.7861ZM6.92651 11.9479C6.92651 13.2393 5.87965 14.2861 4.58828 14.2861C3.29691 14.2861 2.25004 13.2393 2.25004 11.9479C2.25004 10.6565 3.29691 9.60966 4.58828 9.60966C5.87965 9.60966 6.92651 10.6565 6.92651 11.9479Z" fill="black"/>
<path fill-rule="evenodd" clip-rule="evenodd" d="M11.9999 12.7861C12.4628 12.7861 12.8381 12.4108 12.8381 11.9479C12.8381 11.485 12.4628 11.1097 11.9999 11.1097C11.537 11.1097 11.1617 11.485 11.1617 11.9479C11.1617 12.4108 11.537 12.7861 11.9999 12.7861ZM14.3381 11.9479C14.3381 13.2393 13.2913 14.2861 11.9999 14.2861C10.7085 14.2861 9.66166 13.2393 9.66166 11.9479C9.66166 10.6565 10.7085 9.60966 11.9999 9.60966C13.2913 9.60966 14.3381 10.6565 14.3381 11.9479Z" fill="black"/>
<path fill-rule="evenodd" clip-rule="evenodd" d="M19.4118 12.7861C19.8747 12.7861 20.25 12.4108 20.25 11.9479C20.25 11.485 19.8747 11.1097 19.4118 11.1097C18.9488 11.1097 18.5735 11.485 18.5735 11.9479C18.5735 12.4108 18.9488 12.7861 19.4118 12.7861ZM21.75 11.9479C21.75 13.2393 20.7031 14.2861 19.4118 14.2861C18.1204 14.2861 17.0735 13.2393 17.0735 11.9479C17.0735 10.6565 18.1204 9.60966 19.4118 9.60966C20.7031 9.60966 21.75 10.6565 21.75 11.9479Z" fill="black"/>
<path fill-rule="evenodd" clip-rule="evenodd" d="M12.8381 11.9482C12.8381 11.534 13.1739 11.1982 13.5881 11.1982H17.8234C18.2376 11.1982 18.5734 11.534 18.5734 11.9482C18.5734 12.3625 18.2376 12.6982 17.8234 12.6982H13.5881C13.1739 12.6982 12.8381 12.3625 12.8381 11.9482Z" fill="black"/>
<path fill-rule="evenodd" clip-rule="evenodd" d="M5.42651 11.9482C5.42651 11.534 5.7623 11.1982 6.17651 11.1982H10.4118C10.826 11.1982 11.1618 11.534 11.1618 11.9482C11.1618 12.3625 10.826 12.6982 10.4118 12.6982H6.17651C5.7623 12.6982 5.42651 12.3625 5.42651 11.9482Z" fill="black"/>
<path fill-rule="evenodd" clip-rule="evenodd" d="M11.7058 18.7578C11.7058 17.7913 12.4893 17.0078 13.4558 17.0078H17.9558C18.9223 17.0078 19.7058 17.7913 19.7058 18.7578V19.9578C19.7058 20.9243 18.9223 21.7078 17.9558 21.7078H13.4558C12.4893 21.7078 11.7058 20.9243 11.7058 19.9578V18.7578ZM13.4558 18.5078C13.3177 18.5078 13.2058 18.6197 13.2058 18.7578V19.9578C13.2058 20.0959 13.3177 20.2078 13.4558 20.2078H17.9558C18.0939 20.2078 18.2058 20.0959 18.2058 19.9578V18.7578C18.2058 18.6197 18.0939 18.5078 17.9558 18.5078H13.4558Z" fill="black"/>
<path fill-rule="evenodd" clip-rule="evenodd" d="M15.7058 14.2861C15.2916 14.2861 14.9558 13.9503 14.9558 13.5361V11.9478C14.9558 11.5336 15.2916 11.1978 15.7058 11.1978C16.12 11.1978 16.4558 11.5336 16.4558 11.9478V13.5361C16.4558 13.9503 16.12 14.2861 15.7058 14.2861Z" fill="black"/>
<path fill-rule="evenodd" clip-rule="evenodd" d="M15.7058 18.5078C15.2916 18.5078 14.9558 18.172 14.9558 17.7578V15.7578C14.9558 15.3436 15.2916 15.0078 15.7058 15.0078C16.12 15.0078 16.4558 15.3436 16.4558 15.7578V17.7578C16.4558 18.172 16.12 18.5078 15.7058 18.5078Z" fill="black"/>
<path fill-rule="evenodd" clip-rule="evenodd" d="M8.29419 12.6982C7.87998 12.6982 7.54419 12.3625 7.54419 11.9482V10.3599C7.54419 9.94572 7.87998 9.60994 8.29419 9.60994C8.7084 9.60994 9.04419 9.94572 9.04419 10.3599V11.9482C9.04419 12.3625 8.7084 12.6982 8.29419 12.6982Z" fill="black"/>
<path fill-rule="evenodd" clip-rule="evenodd" d="M4.29419 4.04193C4.29419 3.07543 5.07769 2.29193 6.04419 2.29193H10.5442C11.5107 2.29193 12.2942 3.07543 12.2942 4.04193V5.24193C12.2942 6.20843 11.5107 6.99193 10.5442 6.99193H6.04419C5.07769 6.99193 4.29419 6.20843 4.29419 5.24193V4.04193ZM6.04419 3.79193C5.90612 3.79193 5.79419 3.90386 5.79419 4.04193V5.24193C5.79419 5.38 5.90612 5.49193 6.04419 5.49193H10.5442C10.6823 5.49193 10.7942 5.38 10.7942 5.24193V4.04193C10.7942 3.90386 10.6823 3.79193 10.5442 3.79193H6.04419Z" fill="black"/>
<path fill-rule="evenodd" clip-rule="evenodd" d="M8.29419 5.49219C7.87998 5.49219 7.54419 5.82797 7.54419 6.24219V8.24219C7.54419 8.6564 7.87998 8.99219 8.29419 8.99219C8.7084 8.99219 9.04419 8.6564 9.04419 8.24219V6.24219C9.04419 5.82797 8.7084 5.49219 8.29419 5.49219Z" fill="black"/>
</svg>
