<svg width="24" height="24" viewBox="0 0 24 24" fill="none" xmlns="http://www.w3.org/2000/svg">
<path fill-rule="evenodd" clip-rule="evenodd" d="M5.25 2.25C5.66421 2.25 6 2.58579 6 3V5C6 5.41421 5.66421 5.75 5.25 5.75C4.83579 5.75 4.5 5.41421 4.5 5V3C4.5 2.58579 4.83579 2.25 5.25 2.25Z" fill="black"/>
<path fill-rule="evenodd" clip-rule="evenodd" d="M2.25 6.47909C2.25 5.24542 3.2527 4.25 4.48376 4.25H6.0152C7.24692 4.25 8.24994 5.2451 8.24994 6.47909V9.52188C8.24994 10.7565 7.24628 11.75 6.0152 11.75H4.48376C3.25334 11.75 2.25 10.7562 2.25 9.52188V6.47909ZM4.48376 5.75C4.07637 5.75 3.75 6.07859 3.75 6.47909V9.52188C3.75 9.92174 4.07573 10.25 4.48376 10.25H6.0152C6.42453 10.25 6.74994 9.92142 6.74994 9.52188V6.47909C6.74994 6.07891 6.42389 5.75 6.0152 5.75H4.48376Z" fill="black"/>
<path fill-rule="evenodd" clip-rule="evenodd" d="M5.25 10.25C5.66421 10.25 6 10.5858 6 11V13C6 13.4142 5.66421 13.75 5.25 13.75C4.83579 13.75 4.5 13.4142 4.5 13V11C4.5 10.5858 4.83579 10.25 5.25 10.25Z" fill="black"/>
<path fill-rule="evenodd" clip-rule="evenodd" d="M12 5.25C12.4142 5.25 12.75 5.58579 12.75 6V8.5C12.75 8.91421 12.4142 9.25 12 9.25C11.5858 9.25 11.25 8.91421 11.25 8.5V6C11.25 5.58579 11.5858 5.25 12 5.25Z" fill="black"/>
<path fill-rule="evenodd" clip-rule="evenodd" d="M9 9.97909C9 8.74542 10.0027 7.75 11.2338 7.75H12.7652C13.9969 7.75 14.9999 8.7451 14.9999 9.97909V17.0219C14.9999 18.2565 13.9963 19.25 12.7652 19.25H11.2338C10.0033 19.25 9 18.2562 9 17.0219V9.97909ZM11.2338 9.25C10.8264 9.25 10.5 9.57859 10.5 9.97909V17.0219C10.5 17.4217 10.8257 17.75 11.2338 17.75H12.7652C13.1745 17.75 13.4999 17.4214 13.4999 17.0219V9.97909C13.4999 9.57891 13.1739 9.25 12.7652 9.25H11.2338Z" fill="black"/>
<path fill-rule="evenodd" clip-rule="evenodd" d="M12 17.75C12.4142 17.75 12.75 18.0858 12.75 18.5V21C12.75 21.4142 12.4142 21.75 12 21.75C11.5858 21.75 11.25 21.4142 11.25 21V18.5C11.25 18.0858 11.5858 17.75 12 17.75Z" fill="black"/>
<path fill-rule="evenodd" clip-rule="evenodd" d="M18.75 4.25C19.1642 4.25 19.5 4.58579 19.5 5V7.5C19.5 7.91421 19.1642 8.25 18.75 8.25C18.3358 8.25 18 7.91421 18 7.5V5C18 4.58579 18.3358 4.25 18.75 4.25Z" fill="black"/>
<path fill-rule="evenodd" clip-rule="evenodd" d="M15.75 8.97909C15.75 7.74542 16.7527 6.75 17.9838 6.75H19.5152C20.7469 6.75 21.7499 7.7451 21.7499 8.97909V9.02188C21.7499 10.2565 20.7463 11.25 19.5152 11.25H17.9838C16.7533 11.25 15.75 10.2562 15.75 9.02188V8.97909ZM17.9838 8.25C17.5764 8.25 17.25 8.57859 17.25 8.97909V9.02188C17.25 9.42174 17.5757 9.75 17.9838 9.75H19.5152C19.9245 9.75 20.2499 9.42142 20.2499 9.02188V8.97909C20.2499 8.57891 19.9239 8.25 19.5152 8.25H17.9838Z" fill="black"/>
<path fill-rule="evenodd" clip-rule="evenodd" d="M18.75 9.75C19.1642 9.75 19.5 10.0858 19.5 10.5V13C19.5 13.4142 19.1642 13.75 18.75 13.75C18.3358 13.75 18 13.4142 18 13V10.5C18 10.0858 18.3358 9.75 18.75 9.75Z" fill="black"/>
</svg>
