<svg width="24" height="24" viewBox="0 0 24 24" fill="none" xmlns="http://www.w3.org/2000/svg">
<path fill-rule="evenodd" clip-rule="evenodd" d="M8.61328 7.74219C8.61328 7.32797 8.94907 6.99219 9.36328 6.99219L15.6353 6.99219C16.0495 6.99219 16.3853 7.32797 16.3853 7.74219C16.3853 8.1564 16.0495 8.49219 15.6353 8.49219H9.36328C8.94907 8.49219 8.61328 8.1564 8.61328 7.74219Z" fill="black"/>
<path fill-rule="evenodd" clip-rule="evenodd" d="M6.61328 10.7422C6.61328 10.328 6.94907 9.99219 7.36328 9.99219H9.84464C10.2589 9.99219 10.5946 10.328 10.5946 10.7422C10.5946 11.1564 10.2589 11.4922 9.84464 11.4922H7.36328C6.94907 11.4922 6.61328 11.1564 6.61328 10.7422Z" fill="black"/>
<path fill-rule="evenodd" clip-rule="evenodd" d="M8.94949 12.9844C8.53528 12.985 8.20001 13.3213 8.20064 13.7355L8.20486 16.4976C8.20516 16.6966 8.28448 16.8872 8.42536 17.0277C8.56625 17.1681 8.75716 17.2468 8.95608 17.2465L11.718 17.242C12.1322 17.2413 12.4675 16.9049 12.4668 16.4907C12.4661 16.0765 12.1298 15.7413 11.7156 15.742L9.70371 15.7453L9.70064 13.7332C9.70001 13.319 9.36371 12.9837 8.94949 12.9844Z" fill="black"/>
<path fill-rule="evenodd" clip-rule="evenodd" d="M20.9657 8.69821C20.6674 8.4108 20.1927 8.4196 19.9052 8.71788L16.1531 12.6118L14.3885 10.8525C14.2458 10.7103 14.0519 10.6315 13.8505 10.6337C13.649 10.636 13.457 10.7192 13.3176 10.8646L8.41059 15.9828C8.12393 16.2818 8.13393 16.7566 8.43293 17.0433C8.73193 17.3299 9.2067 17.3199 9.49336 17.0209L13.871 12.4548L15.6343 14.2127C15.7767 14.3547 15.9702 14.4336 16.1713 14.4316C16.3725 14.4295 16.5643 14.3468 16.7039 14.202L20.9854 9.75869C21.2728 9.46041 21.264 8.98562 20.9657 8.69821Z" fill="black"/>
<path fill-rule="evenodd" clip-rule="evenodd" d="M12 20.25C16.5567 20.25 20.25 16.5558 20.25 12C20.25 7.44329 16.5567 3.75 12 3.75C7.44329 3.75 3.75 7.44329 3.75 12C3.75 16.5558 7.44335 20.25 12 20.25ZM21.75 12C21.75 17.3841 17.3852 21.75 12 21.75C6.61481 21.75 2.25 17.3841 2.25 12C2.25 6.61487 6.61487 2.25 12 2.25C17.3851 2.25 21.75 6.61487 21.75 12Z" fill="black"/>
</svg>
