<svg width="24" height="24" viewBox="0 0 24 24" fill="none" xmlns="http://www.w3.org/2000/svg">
<path fill-rule="evenodd" clip-rule="evenodd" d="M19.2986 17.4025C18.8844 17.4025 18.5486 17.7383 18.5486 18.1525L18.5486 21.0001C18.5486 21.4143 18.8844 21.7501 19.2986 21.7501C19.7128 21.7501 20.0486 21.4143 20.0486 21.0001L20.0486 18.1525C20.0486 17.7383 19.7128 17.4025 19.2986 17.4025Z" fill="black"/>
<path fill-rule="evenodd" clip-rule="evenodd" d="M14.1672 16.0464C13.753 16.0464 13.4172 16.3822 13.4172 16.7964L13.4172 21C13.4172 21.4142 13.753 21.75 14.1672 21.75C14.5814 21.75 14.9172 21.4142 14.9172 21L14.9172 16.7964C14.9172 16.3822 14.5814 16.0464 14.1672 16.0464Z" fill="black"/>
<path fill-rule="evenodd" clip-rule="evenodd" d="M9.03564 13.3345C8.62143 13.3345 8.28564 13.6703 8.28564 14.0845L8.28564 21.0001C8.28564 21.4143 8.62143 21.7501 9.03564 21.7501C9.44986 21.7501 9.78564 21.4143 9.78564 21.0001L9.78564 14.0845C9.78564 13.6703 9.44986 13.3345 9.03564 13.3345Z" fill="black"/>
<path fill-rule="evenodd" clip-rule="evenodd" d="M3.90405 9.40186C3.48984 9.40186 3.15405 9.73764 3.15405 10.1519L3.15405 20.9998C3.15405 21.414 3.48984 21.7498 3.90405 21.7498C4.31827 21.7498 4.65405 21.414 4.65405 20.9998L4.65405 10.1519C4.65405 9.73764 4.31827 9.40186 3.90405 9.40186Z" fill="black"/>
<path fill-rule="evenodd" clip-rule="evenodd" d="M17.9956 9.56906C18.3142 9.3044 18.7871 9.34814 19.0517 9.66677L21.0732 12.1004C21.2017 12.2551 21.2627 12.4549 21.2425 12.655C21.2223 12.855 21.1226 13.0386 20.9658 13.1645L18.7586 14.9365C18.4356 15.1958 17.9636 15.1442 17.7042 14.8212C17.4449 14.4982 17.4966 14.0262 17.8196 13.7668L19.4321 12.4723L17.8979 10.6252C17.6332 10.3066 17.6769 9.83373 17.9956 9.56906Z" fill="black"/>
<path fill-rule="evenodd" clip-rule="evenodd" d="M3.94831 2.96427L3.94942 2.96629L3.95709 2.98009C3.96457 2.99344 3.97679 3.01499 3.99384 3.04421C4.02795 3.10265 4.08132 3.1917 4.15458 3.30707C4.30115 3.53787 4.52702 3.87354 4.83709 4.27983C5.45765 5.09296 6.41264 6.18522 7.74071 7.28564C10.3904 9.48115 14.5331 11.7174 20.5101 11.8298C20.9243 11.8376 21.2537 12.1797 21.2459 12.5938C21.2381 13.0079 20.8961 13.3374 20.4819 13.3296C14.1122 13.2097 9.65105 10.8165 6.78367 8.44067C5.35321 7.2554 4.32134 6.07648 3.64468 5.18986C3.30614 4.74627 3.0558 4.37492 2.88832 4.11117C2.80455 3.97926 2.74144 3.87415 2.69831 3.80025C2.67675 3.7633 2.66017 3.73414 2.6485 3.71331L2.63467 3.68839L2.63049 3.68075L2.62908 3.67816L2.62855 3.67717C2.62833 3.67676 2.62813 3.67639 3.28848 3.3208L2.62813 3.67639C2.43174 3.31169 2.56819 2.85684 2.93289 2.66045C3.29724 2.46425 3.75158 2.60026 3.94827 2.96418" fill="black"/>
</svg>
