<svg width="24" height="24" viewBox="0 0 24 24" fill="none" xmlns="http://www.w3.org/2000/svg">
<path fill-rule="evenodd" clip-rule="evenodd" d="M20.9991 11.2504C21.4133 11.2503 21.7492 11.586 21.7492 12.0002L21.7501 16.909C21.7501 17.1079 21.6711 17.2987 21.5305 17.4394C21.3898 17.5801 21.199 17.6591 21.0001 17.6591L16.0906 17.659C15.6763 17.659 15.3406 17.3232 15.3406 16.909C15.3406 16.4948 15.6764 16.159 16.0906 16.159L20.25 16.1591L20.2492 12.0005C20.2492 11.5863 20.5849 11.2505 20.9991 11.2504Z" fill="black"/>
<path fill-rule="evenodd" clip-rule="evenodd" d="M2.46967 6.55951C2.76256 6.26662 3.23744 6.26662 3.53033 6.55951L9.13654 12.1657L12.6966 8.60568C12.9895 8.3128 13.4643 8.31278 13.7572 8.60564L21.5303 16.3778C21.8232 16.6706 21.8232 17.1455 21.5304 17.4384C21.2375 17.7313 20.7626 17.7314 20.4697 17.4385L13.227 10.1966L9.66687 13.7567C9.37398 14.0496 8.8991 14.0496 8.60621 13.7567L2.46967 7.62017C2.17678 7.32728 2.17678 6.85241 2.46967 6.55951Z" fill="black"/>
</svg>
