<svg width="25" height="24" viewBox="0 0 25 24" fill="none" xmlns="http://www.w3.org/2000/svg">
<path fill-rule="evenodd" clip-rule="evenodd" d="M16.3917 5.77569C16.3917 5.85272 16.4542 5.91516 16.5312 5.91516H17.4862C20.0542 5.91516 21.7792 7.72016 21.7792 10.4052V12.1139C21.7792 12.2398 21.7013 12.3523 21.5827 12.3944C15.957 14.3928 8.61028 14.3927 2.98381 12.3943C2.86516 12.3522 2.78723 12.2397 2.78723 12.1138V10.4052C2.78723 7.72016 4.51223 5.91516 7.08023 5.91516H8.03625C8.11328 5.91516 8.17572 5.85272 8.17572 5.77569C8.17572 4.13769 9.50772 2.80469 11.1437 2.80469H13.4237C15.0607 2.80469 16.3917 4.13769 16.3917 5.77569ZM14.7522 5.91516C14.8293 5.91516 14.8917 5.85272 14.8917 5.77569C14.8917 4.96469 14.2337 4.30469 13.4237 4.30469H11.1437C10.3347 4.30469 9.67572 4.96469 9.67572 5.77569C9.67572 5.85272 9.73816 5.91516 9.81519 5.91516H14.7522ZM14.2522 11.635H10.3162C9.90216 11.635 9.56616 11.299 9.56616 10.885C9.56616 10.471 9.90216 10.135 10.3162 10.135H14.2522C14.6662 10.135 15.0022 10.471 15.0022 10.885C15.0022 11.299 14.6662 11.635 14.2522 11.635Z" fill="black"/>
<path d="M3.1846 14.0444C2.98893 13.9819 2.78723 14.1267 2.78723 14.3321V16.7052C2.78723 19.3912 4.51223 21.1952 7.08023 21.1952H17.4852C20.0542 21.1952 21.7792 19.3912 21.7792 16.7052V14.3323C21.7792 14.1268 21.5775 13.982 21.3818 14.0446C18.5856 14.9388 15.4347 15.3859 12.2838 15.3859C9.13275 15.3859 5.98168 14.9388 3.1846 14.0444Z" fill="black"/>
</svg>