<svg width="25" height="24" viewBox="0 0 25 24" fill="none" xmlns="http://www.w3.org/2000/svg">
<path d="M3.35339 17.61C3.35339 17.6283 3.35405 17.6464 3.35533 17.6643C3.38452 19.9224 5.23211 21.75 7.49798 21.75H19.246C20.331 21.75 21.213 20.866 21.213 19.78V7.12C21.213 6.706 20.877 6.37 20.463 6.37C20.049 6.37 19.713 6.706 19.713 7.12V19.78C19.713 20.044 19.508 20.25 19.246 20.25H7.49798C6.04098 20.25 4.85498 19.065 4.85498 17.61C4.85498 17.5954 4.85456 17.5809 4.85374 17.5666C4.87695 16.1245 6.05386 14.96 7.49739 14.96H16.2504C17.3354 14.96 18.2174 14.081 18.2174 13V4.22C18.2174 3.134 17.3354 2.25 16.2504 2.25H7.35339C5.14739 2.25 3.35339 4.044 3.35339 6.25V17.61Z" fill="black"/>
<path d="M7.82605 18.37H17.281C17.695 18.37 18.031 18.034 18.031 17.62C18.031 17.206 17.695 16.87 17.281 16.87H7.82605C7.41205 16.87 7.07605 17.206 7.07605 17.62C7.07605 18.034 7.41205 18.37 7.82605 18.37Z" fill="black"/>
</svg>