<svg width="25" height="24" viewBox="0 0 25 24" fill="none" xmlns="http://www.w3.org/2000/svg">
<path fill-rule="evenodd" clip-rule="evenodd" d="M9.39211 16.4805C9.39211 16.6462 9.52643 16.7805 9.69211 16.7805H18.6726C18.8381 16.7805 18.9723 16.9145 18.9726 17.08C18.9726 17.08 18.9733 17.5254 18.9738 17.8108C18.9748 18.3966 18.9763 19.3108 18.9763 19.3108L18.9771 19.8085C18.9761 20.0515 18.7751 20.2505 18.5281 20.2505H7.32611C6.36811 20.2505 5.58911 19.4695 5.58911 18.5095C5.58911 17.5555 6.36811 16.7805 7.32611 16.7805H7.59211C7.7578 16.7805 7.89211 16.6462 7.89211 16.4805V2.55C7.89211 2.38431 7.7578 2.25 7.59211 2.25H7.43033C5.58833 2.25 4.08932 3.748 4.08932 5.59V18.4721L4.08911 18.5095C4.08911 20.2975 5.54111 21.7505 7.32611 21.7505H18.5281C19.5991 21.7505 20.4741 20.8815 20.4771 19.8095L20.4701 16.0476L20.4703 16.031V4.2C20.4703 3.125 19.5963 2.25 18.5213 2.25H9.69211C9.52643 2.25 9.39211 2.38431 9.39211 2.55V16.4805ZM12.2633 7.88013H13.7363C14.1503 7.88013 14.4863 7.54413 14.4863 7.13013C14.4863 6.71613 14.1503 6.38013 13.7363 6.38013H12.2633C11.8493 6.38013 11.5133 6.71613 11.5133 7.13013C11.5133 7.54413 11.8493 7.88013 12.2633 7.88013ZM12.2633 10.7701H15.5913C16.0063 10.7701 16.3413 10.4341 16.3413 10.0201C16.3413 9.60613 16.0063 9.27013 15.5913 9.27013H12.2633C11.8493 9.27013 11.5133 9.60613 11.5133 10.0201C11.5133 10.4341 11.8493 10.7701 12.2633 10.7701Z" fill="black"/>
</svg>