<svg width="24" height="24" viewBox="0 0 24 24" fill="none" xmlns="http://www.w3.org/2000/svg">
<path fill-rule="evenodd" clip-rule="evenodd" d="M8.1875 9.19336C8.1875 8.77915 8.52329 8.44336 8.9375 8.44336H11.9597C12.2486 8.44336 12.5118 8.60926 12.6364 8.86988C12.7609 9.1305 12.7248 9.43951 12.5434 9.66432L11.5053 10.9509C12.2245 11.3856 12.7048 12.1752 12.7048 13.0767C12.7048 14.4468 11.5951 15.5587 10.2238 15.5587C9.53787 15.5587 8.91502 15.279 8.46668 14.8293C8.17424 14.5359 8.17497 14.0611 8.46832 13.7686C8.76167 13.4762 9.23654 13.4769 9.52898 13.7703C9.70726 13.9491 9.95234 14.0587 10.2238 14.0587C10.7655 14.0587 11.2048 13.6195 11.2048 13.0767C11.2048 12.5339 10.7655 12.0947 10.2238 12.0947C9.93496 12.0947 9.67177 11.9288 9.54718 11.6682C9.42259 11.4076 9.45875 11.0986 9.64014 10.8737L10.3908 9.94336H8.9375C8.52329 9.94336 8.1875 9.60757 8.1875 9.19336Z" fill="black"/>
<path fill-rule="evenodd" clip-rule="evenodd" d="M15.0625 8.44336C15.4767 8.44336 15.8125 8.77915 15.8125 9.19336V14.6043C15.8125 15.0185 15.4767 15.3543 15.0625 15.3543C14.6483 15.3543 14.3125 15.0185 14.3125 14.6043V9.19336C14.3125 8.77915 14.6483 8.44336 15.0625 8.44336Z" fill="black"/>
<path fill-rule="evenodd" clip-rule="evenodd" d="M19.6436 4.16406C20.0578 4.1637 20.3939 4.4992 20.3943 4.91341L20.3962 7.14649C20.3966 7.5607 20.0611 7.89678 19.6469 7.89714L17.4264 7.89909C17.0122 7.89945 16.6761 7.56396 16.6758 7.14975C16.6754 6.73553 17.0109 6.39945 17.4251 6.39909L18.8956 6.3978L18.8943 4.91472C18.8939 4.5005 19.2294 4.16442 19.6436 4.16406Z" fill="black"/>
<path fill-rule="evenodd" clip-rule="evenodd" d="M6.8111 3.73888C11.2901 0.96041 17.1539 2.28539 20.0117 6.68435C20.2373 7.0317 20.1387 7.49621 19.7913 7.72186C19.444 7.94752 18.9795 7.84886 18.7538 7.50151C16.3398 3.78551 11.3856 2.66625 7.60175 5.01358L7.60166 5.01364C5.23264 6.4828 3.87665 8.967 3.74911 11.558C3.72874 11.9717 3.37685 12.2906 2.96314 12.2702C2.54943 12.2499 2.23056 11.898 2.25092 11.4843C2.40166 8.42207 4.00557 5.47879 6.81102 3.73893" fill="black"/>
<path fill-rule="evenodd" clip-rule="evenodd" d="M7.3259 16.8509C7.32626 17.2651 6.99077 17.6012 6.57656 17.6016L5.10612 17.6029L5.10741 19.0859C5.10778 19.5001 4.77228 19.8362 4.35807 19.8366C3.94386 19.8369 3.60778 19.5015 3.60742 19.0872L3.60547 16.8542C3.60511 16.44 3.9406 16.1039 4.35481 16.1035L6.57524 16.1016C6.98946 16.1012 7.32554 16.4367 7.3259 16.8509Z" fill="black"/>
<path fill-rule="evenodd" clip-rule="evenodd" d="M21.0369 11.7275C21.4506 11.7479 21.7695 12.0997 21.7491 12.5135C21.5984 15.5757 19.9944 18.519 17.1889 20.2588C12.71 23.0373 6.8451 21.7124 3.98827 17.3133C3.76268 16.9659 3.86141 16.5014 4.2088 16.2758C4.55619 16.0502 5.02069 16.1489 5.24628 16.4963C7.65933 20.2121 12.6143 21.3315 16.3983 18.9841L16.3984 18.9841C18.7674 17.5149 20.1234 15.0307 20.2509 12.4397C20.2713 12.026 20.6232 11.7071 21.0369 11.7275Z" fill="black"/>
</svg>
