<svg width="24" height="24" viewBox="0 0 24 24" fill="none" xmlns="http://www.w3.org/2000/svg">
<path fill-rule="evenodd" clip-rule="evenodd" d="M15.0996 3C15.0996 2.58579 15.4354 2.25 15.8496 2.25H17.1067C19.671 2.25 21.7495 4.32826 21.7495 6.89189V8.46907C21.7495 8.88329 21.4138 9.21907 20.9995 9.21907C20.5853 9.21907 20.2495 8.88329 20.2495 8.46907V6.89189C20.2495 5.15693 18.8429 3.75 17.1067 3.75H15.8496C15.4354 3.75 15.0996 3.41421 15.0996 3Z" fill="black"/>
<path fill-rule="evenodd" clip-rule="evenodd" d="M6.89286 3.75C5.15668 3.75 3.75 5.15693 3.75 6.89189V8.46907C3.75 8.88329 3.41421 9.21907 3 9.21907C2.58579 9.21907 2.25 8.88329 2.25 8.46907V6.89189C2.25 4.32826 4.3285 2.25 6.89286 2.25H8.18205C8.59626 2.25 8.93205 2.58579 8.93205 3C8.93205 3.41421 8.59626 3.75 8.18205 3.75H6.89286Z" fill="black"/>
<path fill-rule="evenodd" clip-rule="evenodd" d="M3 14.7812C3.41421 14.7812 3.75 15.117 3.75 15.5312V17.1084C3.75 18.8434 5.15668 20.2503 6.89286 20.2503H8.14994C8.56415 20.2503 8.89994 20.5861 8.89994 21.0003C8.89994 21.4145 8.56415 21.7503 8.14994 21.7503H6.89286C4.3285 21.7503 2.25 19.6721 2.25 17.1084V15.5312C2.25 15.117 2.58579 14.7812 3 14.7812Z" fill="black"/>
<path fill-rule="evenodd" clip-rule="evenodd" d="M20.9985 14.7812C21.4127 14.7812 21.7485 15.117 21.7485 15.5312V17.1084C21.7485 19.6721 19.67 21.7503 17.1056 21.7503H15.8164C15.4022 21.7503 15.0664 21.4145 15.0664 21.0003C15.0664 20.5861 15.4022 20.2503 15.8164 20.2503H17.1056C18.8418 20.2503 20.2485 18.8434 20.2485 17.1084V15.5312C20.2485 15.117 20.5842 14.7812 20.9985 14.7812Z" fill="black"/>
<path fill-rule="evenodd" clip-rule="evenodd" d="M6.75 16.7128C6.75 16.2986 7.08579 15.9628 7.5 15.9628H16.5C16.9142 15.9628 17.25 16.2986 17.25 16.7128C17.25 17.127 16.9142 17.4628 16.5 17.4628H7.5C7.08579 17.4628 6.75 17.127 6.75 16.7128Z" fill="black"/>
<path fill-rule="evenodd" clip-rule="evenodd" d="M6.75 8.98786C6.75 7.63404 7.84637 6.53711 9.19978 6.53711H14.7992C16.1521 6.53711 17.25 7.63348 17.25 8.98786V11.3668C17.25 12.7205 16.1518 13.8166 14.7992 13.8166H9.19978C7.84665 13.8166 6.75 12.7199 6.75 11.3668V8.98786ZM9.19978 8.03711C8.67536 8.03711 8.25 8.46191 8.25 8.98786V11.3668C8.25 11.8915 8.67508 12.3166 9.19978 12.3166H14.7992C15.3245 12.3166 15.75 11.8909 15.75 11.3668V8.98786C15.75 8.46247 15.3242 8.03711 14.7992 8.03711H9.19978Z" fill="black"/>
</svg>
