<svg width="24" height="24" viewBox="0 0 24 24" fill="none" xmlns="http://www.w3.org/2000/svg">
<path fill-rule="evenodd" clip-rule="evenodd" d="M3.74011 3.89727C4.72454 2.84113 6.12647 2.25 7.78184 2.25H12.8312C13.2454 2.25 13.5812 2.58579 13.5812 3C13.5812 3.41421 13.2454 3.75 12.8312 3.75H7.78184C6.49806 3.75 5.50907 4.19939 4.83737 4.92003C4.16021 5.64651 3.75 6.70927 3.75 8.02604V15.9727C3.75 17.2905 4.15858 18.3531 4.83442 19.0791C5.50461 19.7991 6.49319 20.2488 7.78184 20.2488H16.215C17.5042 20.2488 18.4933 19.799 19.1639 19.079C19.84 18.3529 20.2488 17.2903 20.2488 15.9727V12.8906C20.2488 12.4764 20.5846 12.1406 20.9988 12.1406C21.413 12.1406 21.7488 12.4764 21.7488 12.8906V15.9727C21.7488 17.6001 21.2401 19.0506 20.2616 20.1013C19.2774 21.158 17.8747 21.7488 16.215 21.7488H7.78184C6.12258 21.7488 4.72024 21.158 3.73649 20.1012C2.75839 19.0504 2.25 17.6 2.25 15.9727V8.02604C2.25 6.39782 2.76113 4.94756 3.74011 3.89727Z" fill="black"/>
<path fill-rule="evenodd" clip-rule="evenodd" d="M18.5215 2.25C18.9357 2.25 19.2715 2.58579 19.2715 3V8.84134C19.2715 9.25555 18.9357 9.59134 18.5215 9.59134C18.1073 9.59134 17.7715 9.25555 17.7715 8.84134V3C17.7715 2.58579 18.1073 2.25 18.5215 2.25Z" fill="black"/>
<path fill-rule="evenodd" clip-rule="evenodd" d="M15.5137 5.82215C15.8071 5.52983 16.282 5.53076 16.5743 5.82423L18.5218 7.77936L20.4685 5.82433C20.7607 5.53081 21.2356 5.52978 21.5291 5.82204C21.8226 6.11431 21.8237 6.58918 21.5314 6.8827L19.0534 9.3714C18.9127 9.51273 18.7215 9.59219 18.522 9.59221C18.3226 9.59223 18.1313 9.51281 17.9906 9.3715L15.5116 6.88281C15.2193 6.58934 15.2202 6.11447 15.5137 5.82215Z" fill="black"/>
<path fill-rule="evenodd" clip-rule="evenodd" d="M14.0425 9.94819C14.3354 10.2411 14.3354 10.716 14.0425 11.0088L9.14556 15.9058C8.85267 16.1987 8.3778 16.1987 8.0849 15.9058C7.79201 15.6129 7.79201 15.138 8.0849 14.8451L12.9818 9.94819C13.2747 9.65529 13.7496 9.65529 14.0425 9.94819Z" fill="black"/>
<path fill-rule="evenodd" clip-rule="evenodd" d="M12.4453 15.3074C12.4453 14.7851 12.8686 14.3613 13.3913 14.3613C13.9134 14.3613 14.3374 14.7845 14.3374 15.3074C14.3374 15.8302 13.9134 16.2534 13.3913 16.2534C12.8686 16.2534 12.4453 15.8296 12.4453 15.3074Z" fill="black"/>
<path fill-rule="evenodd" clip-rule="evenodd" d="M7.68164 10.5456C7.68164 10.0234 8.10491 9.59961 8.62763 9.59961C9.14976 9.59961 9.57374 10.0228 9.57374 10.5456C9.57374 11.0685 9.14976 11.4917 8.62763 11.4917C8.10491 11.4917 7.68164 11.0679 7.68164 10.5456Z" fill="black"/>
</svg>
