<svg width="24" height="24" viewBox="0 0 24 24" fill="none" xmlns="http://www.w3.org/2000/svg">
<path fill-rule="evenodd" clip-rule="evenodd" d="M18.5285 5.46967C18.8214 5.76256 18.8214 6.23744 18.5285 6.53033L6.53033 18.5285C6.23744 18.8214 5.76256 18.8214 5.46967 18.5285C5.17678 18.2356 5.17678 17.7607 5.46967 17.4678L17.4678 5.46967C17.7607 5.17678 18.2356 5.17678 18.5285 5.46967Z" fill="black"/>
<path fill-rule="evenodd" clip-rule="evenodd" d="M16.5729 15.8945C16.1986 15.8945 15.8945 16.1986 15.8945 16.5729C15.8945 16.9471 16.1986 17.2512 16.5729 17.2512C16.9471 17.2512 17.2512 16.9471 17.2512 16.5729C17.2512 16.1986 16.9471 15.8945 16.5729 15.8945ZM14.3945 16.5729C14.3945 15.3702 15.3702 14.3945 16.5729 14.3945C17.7755 14.3945 18.7512 15.3702 18.7512 16.5729C18.7512 17.7755 17.7755 18.7512 16.5729 18.7512C15.3702 18.7512 14.3945 17.7755 14.3945 16.5729Z" fill="black"/>
<path fill-rule="evenodd" clip-rule="evenodd" d="M7.42835 6.75C7.05411 6.75 6.75 7.05411 6.75 7.42835C6.75 7.80258 7.05411 8.1067 7.42835 8.1067C7.80258 8.1067 8.1067 7.80258 8.1067 7.42835C8.1067 7.05411 7.80258 6.75 7.42835 6.75ZM5.25 7.42835C5.25 6.22569 6.22569 5.25 7.42835 5.25C8.63101 5.25 9.6067 6.22569 9.6067 7.42835C9.6067 8.63101 8.63101 9.6067 7.42835 9.6067C6.22569 9.6067 5.25 8.63101 5.25 7.42835Z" fill="black"/>
</svg>
