<svg width="24" height="24" viewBox="0 0 24 24" fill="none" xmlns="http://www.w3.org/2000/svg">
<path d="M7.7001 17.1211C7.07285 17.1174 6.46963 16.8795 6.00877 16.4539C5.54792 16.0284 5.26271 15.4461 5.2091 14.8211L4.3211 4.2361L2.8681 3.9851C2.77105 3.96829 2.67827 3.93253 2.59504 3.87986C2.51181 3.82719 2.43977 3.75865 2.38303 3.67814C2.3263 3.59763 2.28598 3.50674 2.26437 3.41065C2.24276 3.31455 2.24029 3.21514 2.2571 3.1181C2.27391 3.02105 2.30967 2.92827 2.36234 2.84504C2.415 2.76181 2.48355 2.68977 2.56406 2.63303C2.64457 2.5763 2.73546 2.53598 2.83155 2.51437C2.92764 2.49276 3.02705 2.49029 3.1241 2.5071L5.1481 2.8571C5.31166 2.88552 5.46115 2.96741 5.57317 3.08993C5.68519 3.21244 5.75339 3.36866 5.7671 3.5341L6.0001 6.2441C19.8751 6.2491 19.9181 6.2551 19.9881 6.2651C20.2554 6.30345 20.5125 6.39411 20.7447 6.53189C20.977 6.66967 21.1798 6.85187 21.3416 7.06807C21.5034 7.28428 21.6209 7.53024 21.6876 7.79192C21.7543 8.05359 21.7687 8.32584 21.7301 8.5931L20.8061 14.9741C20.7186 15.5688 20.4207 16.1125 19.9666 16.5064C19.5125 16.9003 18.9322 17.1184 18.3311 17.1211H7.7001ZM6.1211 7.7451L6.7041 14.7001C6.7282 14.9498 6.84355 15.1818 7.02806 15.3517C7.21257 15.5217 7.45328 15.6176 7.7041 15.6211H18.3241C18.565 15.62 18.7975 15.5325 18.9794 15.3745C19.1613 15.2165 19.2804 14.9985 19.3151 14.7601L20.2391 8.3781C20.2496 8.30606 20.2457 8.23267 20.2278 8.16212C20.2099 8.09156 20.1783 8.02523 20.1347 7.96691C20.0912 7.90858 20.0366 7.85942 19.974 7.82222C19.9114 7.78502 19.8421 7.76051 19.7701 7.7501C19.5741 7.7511 11.1571 7.7471 6.1251 7.7451H6.1211Z" fill="black"/>
<path d="M14.6293 12.3027H11.4883C11.2894 12.3027 11.0986 12.2237 10.958 12.0831C10.8173 11.9424 10.7383 11.7516 10.7383 11.5527C10.7383 11.3538 10.8173 11.1631 10.958 11.0224C11.0986 10.8817 11.2894 10.8027 11.4883 10.8027H14.6293C14.8282 10.8027 15.019 10.8817 15.1596 11.0224C15.3003 11.1631 15.3793 11.3538 15.3793 11.5527C15.3793 11.7516 15.3003 11.9424 15.1596 12.0831C15.019 12.2237 14.8282 12.3027 14.6293 12.3027Z" fill="black"/>
<path d="M7.23491 21.503C7.91477 21.503 8.46591 20.9519 8.46591 20.272C8.46591 19.5922 7.91477 19.041 7.23491 19.041C6.55504 19.041 6.00391 19.5922 6.00391 20.272C6.00391 20.9519 6.55504 21.503 7.23491 21.503Z" fill="black"/>
<path d="M18.2613 21.503C18.0178 21.5028 17.7799 21.4305 17.5776 21.2951C17.3753 21.1597 17.2177 20.9674 17.1247 20.7424C17.0317 20.5174 17.0074 20.27 17.055 20.0312C17.1026 19.7925 17.22 19.5733 17.3922 19.4012C17.5644 19.2292 17.7837 19.112 18.0225 19.0646C18.2612 19.0172 18.5087 19.0416 18.7336 19.1348C18.9584 19.228 19.1506 19.3858 19.2859 19.5882C19.4211 19.7906 19.4932 20.0286 19.4932 20.272C19.4927 20.5985 19.3627 20.9115 19.1318 21.1422C18.9008 21.373 18.5877 21.5027 18.2613 21.503Z" fill="black"/>
</svg>
