<svg width="24" height="24" viewBox="0 0 24 24" fill="none" xmlns="http://www.w3.org/2000/svg">
<path fill-rule="evenodd" clip-rule="evenodd" d="M3.67165 3.79889C4.61216 2.78996 5.95072 2.22656 7.52831 2.22656H15.5146C17.0956 2.22656 18.4348 2.78966 19.3749 3.79914C20.3095 4.80261 20.7939 6.18624 20.7939 7.73547V10.6544C20.7939 11.0687 20.4581 11.4044 20.0439 11.4044C19.6297 11.4044 19.2939 11.0687 19.2939 10.6544V7.73547C19.2939 6.4961 18.9095 5.50028 18.2772 4.82144C17.6506 4.14862 16.7251 3.72656 15.5146 3.72656H7.52831C6.32216 3.72656 5.39657 4.14832 4.76886 4.82169C4.1357 5.50092 3.75 6.49687 3.75 7.73547V15.2606C3.75 16.5002 4.13411 17.4963 4.76601 18.1753C5.39223 18.8482 6.31738 19.2705 7.52831 19.2705H10.9075C11.3217 19.2705 11.6575 19.6063 11.6575 20.0205C11.6575 20.4347 11.3217 20.7705 10.9075 20.7705H7.52831C5.94674 20.7705 4.60774 20.2071 3.66794 19.1972C2.7338 18.1934 2.25 16.8096 2.25 15.2606V7.73547C2.25 6.18547 2.73659 4.80197 3.67165 3.79889Z" fill="black"/>
<path fill-rule="evenodd" clip-rule="evenodd" d="M8.13281 7.73633C8.54703 7.73633 8.88281 8.07211 8.88281 8.48633C8.88281 9.94387 10.0646 11.1253 11.5227 11.1253C12.9797 11.1253 14.1617 9.94401 14.1617 8.48633C14.1617 8.07211 14.4974 7.73633 14.9117 7.73633C15.3259 7.73633 15.6617 8.07211 15.6617 8.48633C15.6617 10.7727 13.8079 12.6253 11.5227 12.6253C9.23675 12.6253 7.38281 10.7729 7.38281 8.48633C7.38281 8.07211 7.7186 7.73633 8.13281 7.73633Z" fill="black"/>
<path fill-rule="evenodd" clip-rule="evenodd" d="M17.2979 14.3711C15.6668 14.3711 14.3457 15.6924 14.3457 17.3224C14.3457 18.9523 15.6668 20.2736 17.2979 20.2736C18.928 20.2736 20.2492 18.9524 20.2492 17.3224C20.2492 15.6923 18.928 14.3711 17.2979 14.3711ZM12.8457 17.3224C12.8457 14.8638 14.8386 12.8711 17.2979 12.8711C19.7564 12.8711 21.7492 14.8639 21.7492 17.3224C21.7492 19.7808 19.7564 21.7736 17.2979 21.7736C14.8386 21.7736 12.8457 19.781 12.8457 17.3224Z" fill="black"/>
<path fill-rule="evenodd" clip-rule="evenodd" d="M18.7471 15.8699C19.04 16.1627 19.0402 16.6376 18.7474 16.9306L16.9094 18.7695C16.6166 19.0625 16.1417 19.0626 15.8487 18.7698C15.5557 18.477 15.5556 18.0021 15.8484 17.7092L17.6864 15.8702C17.9792 15.5772 18.4541 15.5771 18.7471 15.8699Z" fill="black"/>
<path fill-rule="evenodd" clip-rule="evenodd" d="M15.8487 15.8699C16.1417 15.5771 16.6166 15.5772 16.9094 15.8702L18.7474 17.7092C19.0402 18.0021 19.04 18.477 18.7471 18.7698C18.4541 19.0626 17.9792 19.0625 17.6864 18.7695L15.8484 16.9306C15.5556 16.6376 15.5557 16.1627 15.8487 15.8699Z" fill="black"/>
</svg>
