<svg width="24" height="24" viewBox="0 0 24 24" fill="none" xmlns="http://www.w3.org/2000/svg">
<path fill-rule="evenodd" clip-rule="evenodd" d="M3.25661 6.65915C3.51468 4.19688 5.59112 2.32812 8.06664 2.32812H15.9273C18.4021 2.32812 20.4771 4.19599 20.7373 6.65668L21.721 15.9652C22.0432 19.0137 19.6537 21.6697 16.588 21.6697H7.41183C4.34824 21.6697 1.95889 19.016 2.27876 15.9687L3.25661 6.65915C3.25662 6.65909 3.2566 6.65922 3.25661 6.65915ZM8.06664 3.82812C6.35842 3.82812 4.92633 5.11756 4.74842 6.81565L3.77056 16.1253C3.77056 16.1253 3.77056 16.1253 3.77056 16.1253C3.54365 18.2873 5.23885 20.1697 7.41183 20.1697H16.588C18.7627 20.1697 20.4579 18.2857 20.2293 16.1229L19.2456 6.81443C19.2456 6.81441 19.2456 6.81445 19.2456 6.81443C19.0661 5.11664 17.6345 3.82812 15.9273 3.82812H8.06664Z" fill="black"/>
<path fill-rule="evenodd" clip-rule="evenodd" d="M8.90234 6.95508C9.31656 6.95508 9.65234 7.29086 9.65234 7.70508C9.65234 9.00167 10.7034 10.053 11.9993 10.053C13.2964 10.053 14.3473 9.00152 14.3473 7.70508C14.3473 7.29086 14.6831 6.95508 15.0973 6.95508C15.5115 6.95508 15.8473 7.29086 15.8473 7.70508C15.8473 9.82964 14.1252 11.553 11.9993 11.553C9.87432 11.553 8.15234 9.82948 8.15234 7.70508C8.15234 7.29086 8.48813 6.95508 8.90234 6.95508Z" fill="black"/>
</svg>
