<svg width="24" height="24" viewBox="0 0 24 24" fill="none" xmlns="http://www.w3.org/2000/svg">
<path d="M9.82608 16.8524C9.15357 16.8506 8.50121 16.6229 7.97366 16.2058C7.44612 15.7886 7.074 15.2064 6.91708 14.5524L4.39609 3.89844H2.99609C2.79718 3.89844 2.60641 3.81942 2.46576 3.67877C2.32511 3.53812 2.24609 3.34735 2.24609 3.14844C2.24609 2.94953 2.32511 2.75876 2.46576 2.61811C2.60641 2.47746 2.79718 2.39844 2.99609 2.39844H4.99609C5.16505 2.39862 5.32902 2.45577 5.46149 2.56065C5.59395 2.66553 5.68718 2.81202 5.7261 2.97644L6.35208 5.62344L19.8721 5.51344C20.1641 5.5107 20.4527 5.57668 20.7144 5.70605C20.9762 5.83542 21.2039 6.02455 21.3792 6.25816C21.5544 6.49177 21.6722 6.76331 21.7231 7.05086C21.7739 7.3384 21.7565 7.63388 21.6721 7.91344L19.8391 13.9134C19.6531 14.5292 19.287 15.0751 18.7879 15.4809C18.2889 15.8867 17.6798 16.1339 17.0391 16.1904L10.1021 16.8334C10.0091 16.8484 9.91708 16.8524 9.82608 16.8524ZM6.70209 7.11844L8.3761 14.2064C8.46076 14.5545 8.66723 14.8609 8.95813 15.07C9.24903 15.279 9.60516 15.3771 9.9621 15.3464L16.8961 14.6984C17.2394 14.6682 17.5657 14.5358 17.8331 14.3183C18.1005 14.1009 18.2965 13.8084 18.3961 13.4784L20.2291 7.47244C20.2457 7.41867 20.2494 7.36177 20.24 7.3063C20.2306 7.25084 20.2083 7.19834 20.175 7.15303C20.1416 7.10772 20.0981 7.07086 20.048 7.0454C19.9978 7.01995 19.9424 7.0066 19.8861 7.00644L6.70209 7.11844Z" fill="black"/>
<path d="M12.4134 12.8475C12.2651 12.8474 12.1203 12.8033 11.9971 12.7209C11.8739 12.6385 11.7778 12.5214 11.7211 12.3844C11.6644 12.2475 11.6495 12.0968 11.6784 11.9514C11.7073 11.806 11.7786 11.6724 11.8834 11.5675L14.1024 9.3475C14.2438 9.21081 14.4332 9.13513 14.6298 9.13674C14.8265 9.13836 15.0147 9.21715 15.1538 9.35614C15.2929 9.49513 15.3719 9.6832 15.3737 9.87985C15.3755 10.0765 15.2999 10.266 15.1634 10.4075L12.9434 12.6275C12.874 12.6974 12.7914 12.7529 12.7005 12.7907C12.6095 12.8284 12.5119 12.8477 12.4134 12.8475Z" fill="black"/>
<path d="M14.6349 12.8458C14.5362 12.8461 14.4385 12.8268 14.3473 12.789C14.2562 12.7513 14.1735 12.6958 14.1039 12.6258L11.8849 10.4058C11.7524 10.2636 11.6803 10.0756 11.6837 9.8813C11.6871 9.687 11.7659 9.50161 11.9033 9.3642C12.0407 9.22679 12.2261 9.14808 12.4204 9.14465C12.6147 9.14122 12.8027 9.21334 12.9449 9.34582L15.1649 11.5658C15.2696 11.6707 15.341 11.8043 15.3699 11.9497C15.3988 12.0951 15.3839 12.2458 15.3272 12.3827C15.2705 12.5197 15.1744 12.6368 15.0512 12.7192C14.928 12.8016 14.7831 12.8457 14.6349 12.8458Z" fill="black"/>
<path d="M8.86381 21.5987C9.54367 21.5987 10.0948 21.0476 10.0948 20.3677C10.0948 19.6879 9.54367 19.1367 8.86381 19.1367C8.18395 19.1367 7.63281 19.6879 7.63281 20.3677C7.63281 21.0476 8.18395 21.5987 8.86381 21.5987Z" fill="black"/>
<path d="M18.0747 21.5987C18.7546 21.5987 19.3057 21.0476 19.3057 20.3677C19.3057 19.6879 18.7546 19.1367 18.0747 19.1367C17.3949 19.1367 16.8438 19.6879 16.8438 20.3677C16.8438 21.0476 17.3949 21.5987 18.0747 21.5987Z" fill="black"/>
</svg>
