<svg width="24" height="24" viewBox="0 0 24 24" fill="none" xmlns="http://www.w3.org/2000/svg">
<path fill-rule="evenodd" clip-rule="evenodd" d="M15.9375 12.3008C16.3517 12.3008 16.6875 12.6366 16.6875 13.0508V16.7179C16.6875 17.1321 16.3517 17.4679 15.9375 17.4679C15.5233 17.4679 15.1875 17.1321 15.1875 16.7179V13.0508C15.1875 12.6366 15.5233 12.3008 15.9375 12.3008Z" fill="black"/>
<path fill-rule="evenodd" clip-rule="evenodd" d="M12.0781 12.3008C12.4923 12.3008 12.8281 12.6366 12.8281 13.0508V16.7179C12.8281 17.1321 12.4923 17.4679 12.0781 17.4679C11.6639 17.4679 11.3281 17.1321 11.3281 16.7179V13.0508C11.3281 12.6366 11.6639 12.3008 12.0781 12.3008Z" fill="black"/>
<path fill-rule="evenodd" clip-rule="evenodd" d="M8.2168 12.3008C8.63101 12.3008 8.9668 12.6366 8.9668 13.0508V16.7179C8.9668 17.1321 8.63101 17.4679 8.2168 17.4679C7.80258 17.4679 7.4668 17.1321 7.4668 16.7179V13.0508C7.4668 12.6366 7.80258 12.3008 8.2168 12.3008Z" fill="black"/>
<path fill-rule="evenodd" clip-rule="evenodd" d="M4.1 10.5704C3.78133 10.9893 3.6038 11.742 3.90225 13.0272L3.9059 13.0438L4.87596 17.6965L4.87945 17.7144C5.18034 19.3555 6.32584 19.895 7.12098 19.895H16.8779C17.6731 19.895 18.8186 19.3555 19.1195 17.7144L19.123 17.6965L20.093 13.0438L20.0967 13.027C20.3956 11.7418 20.2182 10.9892 19.8997 10.5704C19.5863 10.1586 18.9823 9.86914 17.9511 9.86914H6.0478C5.01728 9.86914 4.41337 10.1585 4.1 10.5704ZM2.90622 9.6622C3.61569 8.72968 4.77237 8.36914 6.0478 8.36914H17.9511C19.2269 8.36914 20.3839 8.72961 21.0934 9.6622C21.7964 10.5861 21.9045 11.8692 21.5597 13.3582L20.5932 17.9941C20.1497 20.39 18.3441 21.395 16.8779 21.395H7.12098C5.65488 21.395 3.84919 20.39 3.40574 17.9941L2.43917 13.3581C2.09491 11.869 2.20338 10.586 2.90622 9.6622Z" fill="black"/>
<path fill-rule="evenodd" clip-rule="evenodd" d="M5.28889 2.68329C5.65914 2.49757 6.10984 2.64716 6.29555 3.01741L9.18723 8.78227C9.37294 9.15252 9.22335 9.60321 8.85311 9.78893C8.48286 9.97465 8.03216 9.82506 7.84645 9.45481L4.95477 3.68995C4.76906 3.3197 4.91865 2.86901 5.28889 2.68329Z" fill="black"/>
<path fill-rule="evenodd" clip-rule="evenodd" d="M18.7105 2.68329C19.0808 2.86901 19.2304 3.3197 19.0446 3.68995L16.153 9.45481C15.9673 9.82506 15.5166 9.97465 15.1463 9.78893C14.7761 9.60321 14.6265 9.15252 14.8122 8.78227L17.7039 3.01741C17.8896 2.64716 18.3403 2.49757 18.7105 2.68329Z" fill="black"/>
</svg>
