<svg width="25" height="24" viewBox="0 0 25 24" fill="none" xmlns="http://www.w3.org/2000/svg">
<path d="M15.7307 8.70455V8.65298M15.724 8.5C15.6 8.5 15.499 8.601 15.5 8.725C15.5 8.849 15.601 8.95 15.725 8.95C15.849 8.95 15.95 8.849 15.95 8.725C15.95 8.6 15.849 8.5 15.724 8.5Z" stroke="black" stroke-width="1.5" stroke-linecap="round" stroke-linejoin="round"/>
<path d="M9.26953 8.70455V8.65298M9.22401 8.5C9.10001 8.5 8.99901 8.601 9.00001 8.725C9.00001 8.849 9.10101 8.95 9.22501 8.95C9.34901 8.95 9.45001 8.849 9.45001 8.725C9.45001 8.6 9.34901 8.5 9.22401 8.5Z" stroke="black" stroke-width="1.5" stroke-linecap="round" stroke-linejoin="round"/>
<path opacity="0.4" d="M8.28651 3.00391H16.7185C19.6657 3.00391 21.5002 5.08444 21.5002 8.02869V15.9734C21.5002 18.9177 19.6657 20.9982 16.7176 20.9982H8.28651C5.33933 20.9982 3.50586 18.9177 3.50586 15.9734V8.02869C3.50586 5.08444 5.34809 3.00391 8.28651 3.00391Z" stroke="black" stroke-width="1.5" stroke-linecap="round" stroke-linejoin="round"/>
<path d="M7.76319 20.912L6.92902 14.4755L3.5 12.3438" stroke="black" stroke-width="1.5" stroke-linecap="round" stroke-linejoin="round"/>
<path d="M17.2236 20.9139L18.0893 14.4775L21.4965 12.3477" stroke="black" stroke-width="1.5" stroke-linecap="round" stroke-linejoin="round"/>
<path d="M6.92969 14.4769C8.0288 14.1929 9.44986 13.7474 11.1832 12.9702C12.0838 12.5724 13.1158 12.5724 14.0165 12.9702C15.6555 13.6997 17.0104 14.1832 18.09 14.4769" stroke="black" stroke-width="1.5" stroke-linecap="round" stroke-linejoin="round"/>
</svg>