<svg width="25" height="24" viewBox="0 0 25 24" fill="none" xmlns="http://www.w3.org/2000/svg">
<path opacity="0.4" d="M12.5 21C7.52908 21 3.5 16.9699 3.5 12C3.5 7.02908 7.52908 3 12.5 3C17.4709 3 21.5 7.02908 21.5 12C21.5 16.9699 17.4709 21 12.5 21Z" stroke="black" stroke-width="1.5" stroke-linecap="round" stroke-linejoin="round"/>
<path d="M9.26953 9.00533V8.95377M9.22401 8.80078C9.10001 8.80078 8.99901 8.90178 9.00001 9.02578C9.00001 9.14978 9.10101 9.25078 9.22501 9.25078C9.34901 9.25078 9.45001 9.14978 9.45001 9.02578C9.45001 8.90078 9.34901 8.80078 9.22401 8.80078Z" stroke="black" stroke-width="1.5" stroke-linecap="round" stroke-linejoin="round"/>
<path d="M15.7307 9.00533V8.95377M15.724 8.80078C15.6 8.80078 15.499 8.90178 15.5 9.02578C15.5 9.14978 15.601 9.25078 15.725 9.25078C15.849 9.25078 15.95 9.14978 15.95 9.02578C15.95 8.90078 15.849 8.80078 15.724 8.80078Z" stroke="black" stroke-width="1.5" stroke-linecap="round" stroke-linejoin="round"/>
<path fill-rule="evenodd" clip-rule="evenodd" d="M12.5003 16.8014C13.4791 16.8014 14.2721 16.0045 14.2721 15.0296C14.2721 14.0547 13.4791 13.2578 12.5003 13.2578C11.5215 13.2578 10.7285 14.0547 10.7285 15.0296C10.7285 16.0045 11.5215 16.8014 12.5003 16.8014Z" stroke="black" stroke-width="1.5" stroke-linecap="round" stroke-linejoin="round"/>
</svg>