<svg width="25" height="24" viewBox="0 0 25 24" fill="none" xmlns="http://www.w3.org/2000/svg">
<path opacity="0.4" d="M8.28216 3H16.7169C19.665 3 21.5 5.08119 21.5 8.02638V15.9736C21.5 18.9188 19.665 21 16.7159 21H8.28216C5.33405 21 3.5 18.9188 3.5 15.9736V8.02638C3.5 5.08119 5.34281 3 8.28216 3Z" stroke="black" stroke-width="1.5" stroke-linecap="round" stroke-linejoin="round"/>
<path d="M9.54102 14.3516C10.261 15.2885 11.3216 15.8733 12.4989 15.8733C13.6762 15.8733 14.7367 15.2885 15.4567 14.3516" stroke="black" stroke-width="1.5" stroke-linecap="round" stroke-linejoin="round"/>
<path d="M9.26953 9.40377V9.3522M9.22401 9.19922C9.10001 9.19922 8.99901 9.30022 9.00001 9.42422C9.00001 9.54822 9.10101 9.64922 9.22501 9.64922C9.34901 9.64922 9.45001 9.54822 9.45001 9.42422C9.45001 9.29922 9.34901 9.19922 9.22401 9.19922Z" stroke="black" stroke-width="1.5" stroke-linecap="round" stroke-linejoin="round"/>
<path d="M15.7307 9.40377V9.3522M15.724 9.19922C15.6 9.19922 15.499 9.30022 15.5 9.42422C15.5 9.54822 15.601 9.64922 15.725 9.64922C15.849 9.64922 15.95 9.54822 15.95 9.42422C15.95 9.29922 15.849 9.19922 15.724 9.19922Z" stroke="black" stroke-width="1.5" stroke-linecap="round" stroke-linejoin="round"/>
</svg>