<svg width="25" height="24" viewBox="0 0 25 24" fill="none" xmlns="http://www.w3.org/2000/svg">
<path opacity="0.4" d="M8.47701 3.36719H16.5681C19.3961 3.36719 21.1564 5.3636 21.1564 8.18882V15.8123C21.1564 18.6376 19.3961 20.634 16.5672 20.634H8.47701C5.64899 20.634 3.88965 18.6376 3.88965 15.8123V8.18882C3.88965 5.3636 5.65739 3.36719 8.47701 3.36719Z" stroke="black" stroke-width="1.5" stroke-linecap="round" stroke-linejoin="round"/>
<path fill-rule="evenodd" clip-rule="evenodd" d="M10.4126 11.7866H8.15295C7.79548 11.7866 7.49307 11.5234 7.44267 11.1697L7.14774 9.07058C7.08707 8.63844 7.42214 8.25391 7.85801 8.25391H10.673C11.1042 8.25391 11.4374 8.63098 11.3842 9.05938L11.1238 11.1575C11.0799 11.5169 10.7747 11.7866 10.4126 11.7866Z" stroke="black" stroke-width="1.5" stroke-linecap="round" stroke-linejoin="round"/>
<path fill-rule="evenodd" clip-rule="evenodd" d="M16.9262 11.7866H14.6666C14.3091 11.7866 14.0067 11.5234 13.9563 11.1697L13.6614 9.07058C13.6007 8.63844 13.9358 8.25391 14.3717 8.25391H17.1866C17.6178 8.25391 17.951 8.63098 17.8978 9.05938L17.6374 11.1575C17.5936 11.5169 17.2884 11.7866 16.9262 11.7866Z" stroke="black" stroke-width="1.5" stroke-linecap="round" stroke-linejoin="round"/>
<path d="M9.68555 15.0547C10.3762 15.9535 11.3936 16.5144 12.5229 16.5144C13.3638 16.5144 14.1432 16.2027 14.7713 15.6735" stroke="black" stroke-width="1.5" stroke-linecap="round" stroke-linejoin="round"/>
<path d="M13.7935 9.95312H11.2734" stroke="black" stroke-width="1.5" stroke-linecap="round" stroke-linejoin="round"/>
<path d="M17.7881 9.95312H21.5M7.26882 9.95312H3.5" stroke="black" stroke-width="1.5" stroke-linecap="round" stroke-linejoin="round"/>
</svg>