<svg width="24" height="24" viewBox="0 0 24 24" fill="none" xmlns="http://www.w3.org/2000/svg">
<path d="M11.9995 16.2461C10.2167 16.2461 8.77148 14.8009 8.77148 13.0181L8.77148 11.0034C8.77148 10.65 9.05795 10.3636 9.41131 10.3636L14.5877 10.3636C14.9411 10.3636 15.2275 10.65 15.2275 11.0034L15.2275 13.0181C15.2275 14.8009 13.7823 16.2461 11.9995 16.2461Z" stroke="black" stroke-width="1.5" stroke-linecap="round" stroke-linejoin="round"/>
<path d="M10.3164 10.3633L10.3164 8.36328M13.6839 10.3633L13.6839 8.36328" stroke="black" stroke-width="1.5" stroke-linecap="round" stroke-linejoin="round"/>
<path d="M12 16.2516V19.5C12 20.3284 12.6716 21 13.5 21H16.2159C19.165 21 21 18.9188 21 15.9736V8.02638C21 5.08119 19.165 3 16.2169 3H7.78216C4.84281 3 3 5.08119 3 8.02638V15.9736C3 18.9188 4.83405 21 7.78216 21" stroke="black" stroke-width="1.5" stroke-linecap="round" stroke-linejoin="round"/>
</svg>
