<svg width="24" height="24" viewBox="0 0 24 24" fill="none" xmlns="http://www.w3.org/2000/svg">
<path d="M16.4999 6.00291C17.7425 7.15472 17.7425 9.02217 16.4999 10.174C15.2573 11.3258 13.2426 11.3258 12 10.174C13.2436 7.78889 14.2192 6.83074 16.4999 6.00291ZM16.4999 6.00291V3" stroke="black" stroke-width="1.5" stroke-linecap="round" stroke-linejoin="round"/>
<path d="M7.50012 6.00291C6.25751 7.15472 6.25751 9.02217 7.50012 10.174C8.74273 11.3258 10.7574 11.3258 12 10.174C10.7564 7.78889 9.78077 6.83074 7.50012 6.00291ZM7.50012 6.00291V3" stroke="black" stroke-width="1.5" stroke-linecap="round" stroke-linejoin="round"/>
<path opacity="0.4" d="M16.5037 10.2832C15.3887 12.7847 16.7033 15.4619 17.5 16.4879C16.225 16.8037 13.4974 18.1281 12.7867 20.8992C12.1599 21.0306 11.8165 21.0366 11.2133 20.8992C10.5026 18.1281 7.77496 16.8037 6.5 16.4879C7.29668 15.4619 8.61129 12.7847 7.49629 10.2832" stroke="black" stroke-width="1.5" stroke-linecap="round" stroke-linejoin="round"/>
</svg>
