<svg width="24" height="24" viewBox="0 0 24 24" fill="none" xmlns="http://www.w3.org/2000/svg">
<path d="M6.59665 10.5914L6.59654 18.865C6.58762 19.6739 7.12576 19.8078 7.9061 20.021C10.5986 20.6579 13.4026 20.6578 16.0951 20.0208C16.8754 19.8076 17.4134 19.6736 17.4045 18.8648L17.4043 10.5914" stroke="black" stroke-width="1.5" stroke-linecap="round" stroke-linejoin="round"/>
<path d="M17.3928 13.2897C17.3928 13.2897 21.3164 12.347 20.9795 10.999L19.461 6.20751C19.3164 5.75135 18.9963 5.37145 18.5712 5.15166L15.8038 3.72063C15.3888 3.506 14.9077 3.46746 14.4532 3.57571C12.7889 3.97206 11.2842 3.94536 9.51777 3.55039C9.08329 3.45323 8.62671 3.49869 8.23074 3.70223L5.41353 5.15036C4.9846 5.37084 4.66199 5.75413 4.51794 6.21439L3.02052 10.999C2.6846 12.3428 6.58478 13.2844 6.58478 13.2844" stroke="black" stroke-width="1.5" stroke-linecap="round" stroke-linejoin="round"/>
<g opacity="0.4">
<path d="M15.1523 3.56909C15.1523 8.6787 8.84766 8.7163 8.84766 3.56909" stroke="black" stroke-width="1.5" stroke-linecap="round" stroke-linejoin="round"/>
<path d="M12 7.41553L12 20.4985" stroke="black" stroke-width="1.5" stroke-linecap="round" stroke-linejoin="round"/>
</g>
</svg>
