<svg width="24" height="24" viewBox="0 0 24 24" fill="none" xmlns="http://www.w3.org/2000/svg">
<path d="M12.0201 7.11273L7.98203 3.20434C7.82475 3.05211 7.60854 2.95158 7.402 3.024C7.26008 3.07377 7.12968 3.15501 7.02131 3.26337L5.94326 4.34141C5.61568 4.66898 5.55238 5.17717 5.7896 5.57508L7.99603 9.27623C8.33073 9.83768 9.10197 9.93923 9.57061 9.48356L12.0201 7.11273ZM12.0201 7.11273L14.4696 9.48356C14.9382 9.93923 15.7095 9.83768 16.0442 9.27623L18.2506 5.57508C18.4878 5.17717 18.4245 4.66898 18.097 4.34141L17.0189 3.26337C16.9105 3.15501 16.7801 3.07377 16.6382 3.024C16.4317 2.95158 16.2155 3.05211 16.0582 3.20434L12.0201 7.11273Z" stroke="black" stroke-width="1.5" stroke-linecap="round" stroke-linejoin="round"/>
<path d="M7.57581 3L16.4522 3" stroke="black" stroke-width="1.5" stroke-linecap="round" stroke-linejoin="round"/>
<path opacity="0.4" d="M17.9679 6.09492C19.8587 6.48836 20.9975 8.06988 20.9975 10.1876V16.8086C20.9975 19.2623 19.4687 20.9962 17.0117 20.9962H6.98659C4.53044 20.9962 3.00244 19.2623 3.00244 16.8086V10.1876C3.00244 8.05052 4.16704 6.45948 6.08549 6.08443" stroke="black" stroke-width="1.5" stroke-linecap="round" stroke-linejoin="round"/>
<path d="M10.499 12.0002H13.5003" stroke="black" stroke-width="1.5" stroke-linecap="round" stroke-linejoin="round"/>
<path d="M10.4996 12L8.99902 21.0037" stroke="black" stroke-width="1.5" stroke-linecap="round" stroke-linejoin="round"/>
<path d="M13.501 12L15.0016 21.0037" stroke="black" stroke-width="1.5" stroke-linecap="round" stroke-linejoin="round"/>
<path d="M14.6682 9.66577L13.501 12.0001" stroke="black" stroke-width="1.5" stroke-linecap="round" stroke-linejoin="round"/>
<path d="M9.33203 9.66577L10.4992 12.0001" stroke="black" stroke-width="1.5" stroke-linecap="round" stroke-linejoin="round"/>
</svg>
