<svg width="24" height="24" viewBox="0 0 24 24" fill="none" xmlns="http://www.w3.org/2000/svg">
<path d="M15.4993 14.0003H17.5001" stroke="black" stroke-width="1.5" stroke-linecap="round" stroke-linejoin="round"/>
<path d="M12.0202 7.11273L7.98215 3.20434C7.82488 3.05211 7.60867 2.95158 7.40212 3.024C7.26021 3.07377 7.1298 3.15501 7.02143 3.26337L5.94338 4.34141C5.6158 4.66898 5.55251 5.17717 5.78972 5.57508L7.99615 9.27623C8.33085 9.83768 9.1021 9.93923 9.57073 9.48356L12.0202 7.11273ZM12.0202 7.11273L14.4697 9.48356C14.9384 9.93923 15.7096 9.83768 16.0443 9.27623L18.2507 5.57508C18.4879 5.17717 18.4247 4.66898 18.0971 4.34141L17.019 3.26337C16.9107 3.15501 16.7802 3.07377 16.6383 3.024C16.4318 2.95158 16.2156 3.05211 16.0583 3.20434L12.0202 7.11273Z" stroke="black" stroke-width="1.5" stroke-linecap="round" stroke-linejoin="round"/>
<path d="M7.57568 3L16.4521 3" stroke="black" stroke-width="1.5" stroke-linecap="round" stroke-linejoin="round"/>
<g opacity="0.4">
<path d="M12.0203 21V7.33551" stroke="black" stroke-width="1.5" stroke-linecap="round" stroke-linejoin="round"/>
<path d="M17.9679 6.09491C19.8587 6.48835 20.9975 8.06987 20.9975 10.1876V16.8086C20.9975 19.2623 19.4687 20.9962 17.0117 20.9962H6.98659C4.53044 20.9962 3.00244 19.2623 3.00244 16.8086V10.1876C3.00244 8.0505 4.16704 6.45947 6.08549 6.08441" stroke="black" stroke-width="1.5" stroke-linecap="round" stroke-linejoin="round"/>
</g>
</svg>
