<svg width="24" height="24" viewBox="0 0 24 24" fill="none" xmlns="http://www.w3.org/2000/svg">
<path d="M15.1523 3.56909C15.1523 8.6787 8.84766 8.7163 8.84766 3.56909" stroke="black" stroke-width="1.5" stroke-linecap="round" stroke-linejoin="round"/>
<path opacity="0.4" d="M6.58017 17.3281C5.0683 17.6929 3.26907 16.9173 3.22241 16.4478C3.1833 16.0544 3.62219 11.0993 3.95531 7.49031C4.03276 6.65113 4.43202 5.8901 5.0478 5.3511C5.29225 5.13712 5.57083 4.95814 5.87695 4.82314L8.23855 3.70223C8.41952 3.6092 8.61315 3.5492 8.81155 3.52074M17.4205 17.3283C18.9323 17.693 20.7316 16.9174 20.7782 16.448C20.8173 16.0545 20.3784 11.0995 20.0453 7.49043C19.9679 6.65125 19.5686 5.89023 18.9528 5.35122C18.7084 5.13725 18.4298 4.95826 18.1237 4.82326L15.7621 3.70235C15.5664 3.60177 15.3542 3.54287 15.1372 3.52074" stroke="black" stroke-width="1.5" stroke-linecap="round" stroke-linejoin="round"/>
<path d="M14.2524 6.40997L16.249 8.26888C16.9867 8.95565 17.405 9.91815 17.405 10.926L17.4045 18.8648C17.4134 19.6736 16.8754 19.8076 16.0951 20.0208C13.4026 20.6578 10.5986 20.6579 7.9061 20.021C7.12576 19.8078 6.58762 19.6739 6.59654 18.865L6.59665 10.926C6.59667 9.91816 7.01562 8.95559 7.75326 8.26881L9.7499 6.40991" stroke="black" stroke-width="1.5" stroke-linecap="round" stroke-linejoin="round"/>
<path d="M8.81152 3.52074C9.04722 3.48693 9.28964 3.49764 9.52555 3.55039C11.292 3.94536 12.8037 3.95945 14.468 3.56311C14.6878 3.51397 14.915 3.49809 15.1371 3.52074" stroke="black" stroke-width="1.5" stroke-linecap="round" stroke-linejoin="round"/>
</svg>
