<svg width="24" height="24" viewBox="0 0 24 24" fill="none" xmlns="http://www.w3.org/2000/svg">
<g opacity="0.4">
<path d="M15.3848 6.28891C15.9391 5.32206 15.1455 4.40474 15.9388 2.9917" stroke="black" stroke-width="1.5" stroke-linecap="round" stroke-linejoin="round"/>
<path d="M8.63208 6.28891C8.07774 5.32206 8.87135 4.40474 8.078 2.9917" stroke="black" stroke-width="1.5" stroke-linecap="round" stroke-linejoin="round"/>
</g>
<path d="M16.2663 12.4449C15.3355 14.8883 17.8641 16.3958 17.8657 19.6196C15.2398 21.4824 8.72356 21.4378 6.13428 19.6196C6.13588 16.3958 8.66448 14.8883 7.73373 12.4449C7.40036 11.5698 5.44523 8.14488 8.60598 6.26395C8.60598 6.26395 10.8992 6.26395 12.1728 7.98618C13.1858 6.26395 15.394 6.26395 15.394 6.26395C18.5548 8.14488 16.5996 11.5698 16.2663 12.4449Z" stroke="black" stroke-width="1.5" stroke-linecap="round" stroke-linejoin="round"/>
</svg>
