<svg width="25" height="24" viewBox="0 0 25 24" fill="none" xmlns="http://www.w3.org/2000/svg">
<path d="M7.68939 18.5297C7.68939 19.342 7.03048 19.9999 6.21822 19.9999C5.40696 19.9999 4.74805 19.342 4.74805 18.5297C4.74805 17.7175 5.40696 17.0596 6.21822 17.0596" stroke="black" stroke-width="1.5" stroke-linecap="round" stroke-linejoin="round"/>
<path d="M17.3096 18.5307C17.3096 19.343 17.9675 20.0009 18.7797 20.0009C19.592 20.0009 20.2509 19.343 20.2509 18.5307C20.2509 17.7185 19.592 17.0605 18.7797 17.0605" stroke="black" stroke-width="1.5" stroke-linecap="round" stroke-linejoin="round"/>
<path fill-rule="evenodd" clip-rule="evenodd" d="M11.0293 18.5307C11.0293 19.343 11.6872 20.0009 12.4995 20.0009C13.3117 20.0009 13.9706 19.343 13.9706 18.5307C13.9706 17.7185 13.3117 17.0605 12.4995 17.0605C11.6872 17.0605 11.0293 17.7185 11.0293 18.5307Z" stroke="black" stroke-width="1.5" stroke-linecap="round" stroke-linejoin="round"/>
<path fill-rule="evenodd" clip-rule="evenodd" d="M4.74805 11.9995C4.74805 12.8117 5.40696 13.4697 6.21822 13.4697C7.03048 13.4697 7.68939 12.8117 7.68939 11.9995C7.68939 11.1872 7.03048 10.5293 6.21822 10.5293C5.40696 10.5293 4.74805 11.1872 4.74805 11.9995Z" stroke="black" stroke-width="1.5" stroke-linecap="round" stroke-linejoin="round"/>
<path fill-rule="evenodd" clip-rule="evenodd" d="M17.3096 11.9995C17.3096 12.8117 17.9675 13.4697 18.7797 13.4697C19.592 13.4697 20.2509 12.8117 20.2509 11.9995C20.2509 11.1872 19.592 10.5293 18.7797 10.5293C17.9675 10.5293 17.3096 11.1872 17.3096 11.9995Z" stroke="black" stroke-width="1.5" stroke-linecap="round" stroke-linejoin="round"/>
<path d="M13.9706 11.9995C13.9706 12.8117 13.3117 13.4697 12.4995 13.4697C11.6872 13.4697 11.0293 12.8117 11.0293 11.9995C11.0293 11.1872 11.6872 10.5293 12.4995 10.5293" stroke="black" stroke-width="1.5" stroke-linecap="round" stroke-linejoin="round"/>
<path d="M4.74805 5.47018C4.74805 6.28244 5.40696 6.94036 6.21822 6.94036C7.03048 6.94036 7.68939 6.28244 7.68939 5.47018C7.68939 4.65792 7.03048 4 6.21822 4" stroke="black" stroke-width="1.5" stroke-linecap="round" stroke-linejoin="round"/>
<path fill-rule="evenodd" clip-rule="evenodd" d="M11.0293 5.47018C11.0293 6.28244 11.6872 6.94036 12.4995 6.94036C13.3117 6.94036 13.9706 6.28244 13.9706 5.47018C13.9706 4.65792 13.3117 4 12.4995 4C11.6872 4 11.0293 4.65792 11.0293 5.47018Z" stroke="black" stroke-width="1.5" stroke-linecap="round" stroke-linejoin="round"/>
<path d="M20.2509 5.47018C20.2509 6.28244 19.592 6.94036 18.7797 6.94036C17.9675 6.94036 17.3096 6.28244 17.3096 5.47018C17.3096 4.65792 17.9675 4 18.7797 4" stroke="black" stroke-width="1.5" stroke-linecap="round" stroke-linejoin="round"/>
</svg>