<svg width="25" height="24" viewBox="0 0 25 24" fill="none" xmlns="http://www.w3.org/2000/svg">
<path d="M4.5 11.9997C4.5 13.7545 5.92271 15.1781 7.6784 15.1781C9.43322 15.1781 10.8559 13.7545 10.8559 11.9997C10.8559 10.2449 9.43322 8.82129 7.6784 8.82129C7.11588 8.82129 6.58754 8.96743 6.12922 9.22378" stroke="black" stroke-width="1.5" stroke-linecap="round" stroke-linejoin="round"/>
<path d="M20.5005 12.0007C20.5005 13.7555 19.0778 15.1791 17.3229 15.1791C15.5672 15.1791 14.1445 13.7555 14.1445 12.0007C14.1445 10.2458 15.5672 8.82227 17.3229 8.82227C18.0663 8.82227 18.7501 9.07774 19.2914 9.50566" stroke="black" stroke-width="1.5" stroke-linecap="round" stroke-linejoin="round"/>
<path d="M5.47656 19.2754H19.5229" stroke="black" stroke-width="1.5" stroke-linecap="round" stroke-linejoin="round"/>
<path d="M5.47656 4.72461H19.5229" stroke="black" stroke-width="1.5" stroke-linecap="round" stroke-linejoin="round"/>
<path d="M17.3218 15.1777H7.67773" stroke="black" stroke-width="1.5" stroke-linecap="round" stroke-linejoin="round"/>
</svg>