<svg width="24" height="24" viewBox="0 0 24 24" fill="none" xmlns="http://www.w3.org/2000/svg">
<path fill-rule="evenodd" clip-rule="evenodd" d="M7.32 3.6875H16.68C19.0657 3.6875 21 5.62177 21 8.0075V15.9888C21 18.3745 19.0657 20.3088 16.68 20.3088H7.32C4.93427 20.3088 3 18.3745 3 15.9888V8.0075C3 5.62177 4.93427 3.6875 7.32 3.6875Z" stroke="black" stroke-width="1.5" stroke-linecap="round" stroke-linejoin="round"/>
<path fill-rule="evenodd" clip-rule="evenodd" d="M17.5688 14.009C17.5688 14.9976 16.7671 15.7993 15.7786 15.7993C14.79 15.7993 13.9893 14.9976 13.9893 14.009C13.9893 13.0205 14.79 12.2188 15.7786 12.2188C16.7671 12.2188 17.5688 13.0205 17.5688 14.009Z" stroke="black" stroke-width="1.5" stroke-linecap="round" stroke-linejoin="round"/>
<path d="M6.23242 9.34314H6.24215L6.25091 9.33341L11.2637 6.19265C12.7873 5.24303 14.8092 5.70324 15.7685 7.23665L17.1424 9.42778" stroke="black" stroke-width="1.5" stroke-linecap="round" stroke-linejoin="round"/>
<path d="M3 9.42789H21" stroke="black" stroke-width="1.5" stroke-linecap="round" stroke-linejoin="round"/>
</svg>