<svg width="24" height="24" viewBox="0 0 24 24" fill="none" xmlns="http://www.w3.org/2000/svg">
<path d="M20.9991 14.4061H17.1918C15.7937 14.4061 14.6602 13.2726 14.6602 11.8745C14.6602 10.4773 15.7937 9.34375 17.1918 9.34375H20.9991" stroke="black" stroke-width="1.5" stroke-linecap="round" stroke-linejoin="round"/>
<path d="M16.9966 11.8146H16.9936" stroke="black" stroke-width="1.5" stroke-linecap="round" stroke-linejoin="round"/>
<path d="M3 10.6705V8.62339C3 5.89712 5.20962 3.6875 7.93589 3.6875H16.0641C18.7904 3.6875 21 5.89712 21 8.62339V15.3729C21 18.0992 18.7904 20.3088 16.0641 20.3088H12.6383" stroke="black" stroke-width="1.5" stroke-linecap="round" stroke-linejoin="round"/>
<path d="M8.38638 14.6347C7.81524 14.1297 7.06411 13.8242 6.24195 13.8242C4.4507 13.8242 3 15.2759 3 17.0662" stroke="black" stroke-width="1.5" stroke-linecap="round" stroke-linejoin="round"/>
<path d="M4.09668 19.4979C4.66781 20.0028 5.41895 20.3084 6.24111 20.3084C8.03236 20.3084 9.48306 18.8567 9.48306 17.0664" stroke="black" stroke-width="1.5" stroke-linecap="round" stroke-linejoin="round"/>
</svg>