<svg width="24" height="24" viewBox="0 0 24 24" fill="none" xmlns="http://www.w3.org/2000/svg">
<path d="M20.5153 16.2863H16.9132C15.5899 16.2863 14.5176 15.214 14.5176 13.8907C14.5176 12.5684 15.5899 11.4961 16.9132 11.4961H20.5153" stroke="black" stroke-width="1.5" stroke-linecap="round" stroke-linejoin="round"/>
<path d="M16.7025 13.8381H16.6998" stroke="black" stroke-width="1.5" stroke-linecap="round" stroke-linejoin="round"/>
<path fill-rule="evenodd" clip-rule="evenodd" d="M8.12183 6.163L15.8136 6.12895C18.3931 6.11824 20.4929 8.19955 20.5046 10.7791L20.5289 16.2767C20.5396 18.8562 18.4583 20.956 15.8788 20.9676L8.18703 21.0007C5.60753 21.0124 3.50676 18.9301 3.49605 16.3516L3.47173 10.854C3.46005 8.27448 5.54233 6.17468 8.12183 6.163Z" stroke="black" stroke-width="1.5" stroke-linecap="round" stroke-linejoin="round"/>
<path d="M7.51953 10.1818H12.3253" stroke="black" stroke-width="1.5" stroke-linecap="round" stroke-linejoin="round"/>
<path d="M4.7991 7.56904C4.78159 5.78937 5.60477 4.30161 7.41071 4.035L14.3494 3.03862C16.3246 2.74574 17.6149 4.15176 17.9077 6.13577L17.9798 6.57266" stroke="black" stroke-width="1.5" stroke-linecap="round" stroke-linejoin="round"/>
</svg>