<svg width="24" height="24" viewBox="0 0 24 24" fill="none" xmlns="http://www.w3.org/2000/svg">
<path d="M15.1616 6.22363V3C15.1616 2.58585 15.4975 2.2501 15.9116 2.25C16.3258 2.25 16.6616 2.58579 16.6616 3V6.22363C16.6614 6.63767 16.3257 6.97363 15.9116 6.97363C15.4976 6.97353 15.1618 6.63761 15.1616 6.22363Z" fill="black"/>
<path d="M7.33691 6.22363V3C7.33691 2.58585 7.67279 2.2501 8.08691 2.25C8.50113 2.25 8.83691 2.58579 8.83691 3V6.22363C8.83671 6.63767 8.501 6.97363 8.08691 6.97363C7.67291 6.97353 7.33712 6.63761 7.33691 6.22363Z" fill="black"/>
<path d="M2.49512 16.762V8.64868C2.49514 7.14608 2.95723 5.89018 3.87891 5.01392C4.79491 4.1432 6.07004 3.7376 7.52148 3.73755L16.4854 3.73657L16.7559 3.74146C18.0983 3.7891 19.2732 4.19653 20.1309 5.01392C21.0508 5.8908 21.5087 7.14659 21.5049 8.64771V16.8293C21.5048 18.3313 21.0445 19.5894 20.124 20.468C19.2089 21.3414 17.9333 21.7483 16.4775 21.7483L7.52148 21.7502C6.06558 21.7502 4.78915 21.3334 3.87402 20.4465C2.9551 19.5559 2.49512 18.2825 2.49512 16.762ZM3.99512 16.762C3.99512 17.9792 4.35682 18.8255 4.91797 19.3694C5.4828 19.9168 6.34469 20.2502 7.52148 20.2502L16.4775 20.2493L16.6963 20.2454C17.7694 20.2072 18.5611 19.8868 19.0889 19.3831C19.6465 18.8508 20.0048 18.0232 20.0049 16.8293V8.64575C20.0083 7.45294 19.6513 6.6294 19.0957 6.09985C18.5693 5.59814 17.7783 5.27842 16.7041 5.24048L16.4854 5.23657L7.52148 5.23755C6.34034 5.2376 5.47705 5.56491 4.91309 6.10083C4.3549 6.63142 3.99514 7.45644 3.99512 8.64868V16.762Z" fill="black"/>
<path d="M14.8867 10.6942C14.8865 10.4389 14.6791 10.2323 14.4238 10.2323C14.1686 10.2325 13.9621 10.439 13.9619 10.6942C13.9619 10.9496 14.1685 11.1569 14.4238 11.1571C14.6793 11.1571 14.8867 10.9497 14.8867 10.6942ZM16.3867 10.6942C16.3867 11.7781 15.5077 12.6571 14.4238 12.6571C13.3401 12.6569 12.4619 11.778 12.4619 10.6942C12.4621 9.61058 13.3402 8.73249 14.4238 8.7323C15.5076 8.7323 16.3865 9.61049 16.3867 10.6942Z" fill="black"/>
<path d="M10.0376 13.5226C10.0374 13.2673 9.83007 13.0607 9.57471 13.0607C9.3195 13.0608 9.11297 13.2674 9.11279 13.5226C9.11279 13.778 9.31939 13.9853 9.57471 13.9855C9.83018 13.9855 10.0376 13.7781 10.0376 13.5226ZM11.5376 13.5226C11.5376 14.6065 10.6586 15.4855 9.57471 15.4855C8.49096 15.4853 7.61279 14.6064 7.61279 13.5226C7.61297 12.439 8.49107 11.5608 9.57471 11.5607C10.6585 11.5607 11.5374 12.4389 11.5376 13.5226Z" fill="black"/>
<path d="M14.8867 16.3514C14.8866 16.0961 14.6792 15.8895 14.4238 15.8895C14.1686 15.8897 13.9621 16.0963 13.9619 16.3514C13.9619 16.6065 14.1687 16.8141 14.4238 16.8143C14.6791 16.8143 14.8867 16.6067 14.8867 16.3514ZM16.3867 16.3514C16.3867 17.4347 15.5079 18.3143 14.4238 18.3143C13.3399 18.3141 12.4619 17.4346 12.4619 16.3514C12.4621 15.2678 13.3402 14.3897 14.4238 14.3895C15.5076 14.3895 16.3866 15.2677 16.3867 16.3514Z" fill="black"/>
<path d="M12.9989 10.6571C13.3567 10.4483 13.8165 10.5689 14.0253 10.9266C14.2338 11.2844 14.1124 11.7433 13.7547 11.952L11.0633 13.5223L13.7587 15.0936C14.1165 15.3022 14.2377 15.7611 14.0292 16.119C13.8206 16.4768 13.3616 16.598 13.0038 16.3895L10.244 14.7811C9.88622 14.5726 9.76515 14.1136 9.9735 13.7557C10.0292 13.6601 10.1036 13.5823 10.1883 13.5223C10.1039 13.4625 10.0291 13.3861 9.9735 13.2909C9.76475 12.9331 9.88526 12.4733 10.243 12.2645L12.9989 10.6571Z" fill="black"/>
</svg>
