<svg width="24" height="24" viewBox="0 0 24 24" fill="none" xmlns="http://www.w3.org/2000/svg">
<path d="M20.2944 7.43078C20.7084 7.43105 21.0444 7.76673 21.0444 8.18078C21.0444 8.59484 20.7084 8.93052 20.2944 8.93078L3.70557 8.93079C3.29135 8.93079 2.95557 8.595 2.95557 8.18079C2.95557 7.76657 3.29135 7.43079 3.70557 7.43079L20.2944 7.43078Z" fill="black"/>
<path d="M14.4775 4.93018C14.8918 4.93018 15.2275 5.26596 15.2275 5.68018C15.2275 6.09439 14.8918 6.43018 14.4775 6.43018L9.52148 6.43018C9.10727 6.43018 8.77148 6.09439 8.77148 5.68018C8.77148 5.26596 9.10727 4.93018 9.52148 4.93018L14.4775 4.93018Z" fill="black"/>
<path d="M2.95557 16.6436V7.27832C2.95557 5.73772 3.42992 4.45268 4.37256 3.55664C5.30934 2.66626 6.6137 2.25004 8.10205 2.25H15.9058C17.3973 2.25008 18.7029 2.66538 19.6382 3.55664C20.5791 4.45335 21.0485 5.73914 21.0444 7.27832V16.7129C21.0444 18.2528 20.5726 19.54 19.6313 20.4385C18.6955 21.3317 17.3899 21.75 15.897 21.75H8.10205C6.60919 21.75 5.30261 21.323 4.3667 20.416C3.42709 19.5053 2.95565 18.2023 2.95557 16.6436ZM4.45557 16.6436C4.45564 17.899 4.82879 18.7749 5.41064 19.3389C5.99626 19.9064 6.8883 20.25 8.10205 20.25H15.897C17.1189 20.25 18.0125 19.9107 18.5962 19.3535C19.1745 18.8014 19.5444 17.9446 19.5444 16.7129V7.27637C19.548 6.0457 19.1794 5.19187 18.603 4.64258C18.0209 4.08797 17.1283 3.75008 15.9058 3.75H8.10205C6.88383 3.75004 5.9905 4.08782 5.40576 4.64355C4.82679 5.1939 4.45557 6.0482 4.45557 7.27832V16.6436Z" fill="black"/>
<path d="M14.9482 15.2812C14.9482 14.7876 14.5477 14.3868 14.0537 14.3867C13.7648 14.3867 13.5015 14.2206 13.377 13.96C13.2526 13.6995 13.2885 13.3907 13.4697 13.166L14.1328 12.3438H12.833C12.4188 12.3438 12.083 12.008 12.083 11.5938C12.083 11.1795 12.4188 10.8438 12.833 10.8438H15.7021L15.8096 10.8516C16.055 10.887 16.27 11.0426 16.3789 11.2705C16.5034 11.531 16.4673 11.8397 16.2861 12.0645L15.3252 13.2549C15.999 13.6787 16.4482 14.427 16.4482 15.2812C16.4482 16.6039 15.3764 17.6757 14.0537 17.6758C13.3919 17.6758 12.792 17.4062 12.3594 16.9736C12.0665 16.6808 12.0666 16.206 12.3594 15.9131C12.6523 15.6202 13.127 15.6202 13.4199 15.9131C13.583 16.0762 13.8061 16.1758 14.0537 16.1758C14.548 16.1757 14.9482 15.7755 14.9482 15.2812Z" fill="black"/>
<path d="M9.0911 16.9239V12.8506L8.6536 13.087C8.2891 13.2837 7.83376 13.1477 7.637 12.7832C7.44032 12.4188 7.57624 11.9634 7.94071 11.7666L9.48466 10.9336C9.71694 10.8083 9.99819 10.8141 10.2249 10.9493C10.4517 11.0846 10.5911 11.3297 10.5911 11.5938V16.9239C10.591 17.3379 10.2551 17.6737 9.8411 17.6739C9.42694 17.6739 9.09119 17.338 9.0911 16.9239Z" fill="black"/>
</svg>
