<svg width="24" height="24" viewBox="0 0 24 24" fill="none" xmlns="http://www.w3.org/2000/svg">
<path d="M13.5664 12.313C13.5664 11.8937 13.4366 11.5967 13.2637 11.4116C13.1171 11.2548 12.898 11.1329 12.582 11.105L12.4404 11.0991H9.47363C9.08277 11.0991 8.81952 11.2318 8.65137 11.4116C8.47795 11.5971 8.34864 11.8945 8.34863 12.313V14.5288C8.34873 14.9488 8.47794 15.2455 8.65039 15.4302C8.81744 15.6091 9.07998 15.7427 9.47363 15.7427H12.4404C12.8338 15.7427 13.0963 15.6091 13.2637 15.4302C13.4364 15.2454 13.5663 14.9485 13.5664 14.5288V12.313ZM15.0664 14.5288C15.0663 15.2596 14.836 15.9444 14.3604 16.4536C13.8789 16.9687 13.2027 17.2427 12.4404 17.2427H9.47363C8.71131 17.2427 8.03591 16.9689 7.55469 16.4536C7.07903 15.9443 6.84874 15.2595 6.84863 14.5288V12.313C6.84864 11.5814 7.07984 10.8961 7.55566 10.3872C8.03677 9.87264 8.71239 9.59912 9.47363 9.59912H12.4404L12.7227 9.61182C13.3693 9.67126 13.9393 9.9375 14.3604 10.3882C14.836 10.8975 15.0664 11.5824 15.0664 12.313V14.5288Z" fill="black"/>
<path d="M15.4985 10.9535C16.0492 10.5044 16.8464 10.5495 17.3422 11.0414L17.4369 11.1459L17.5082 11.2416C17.6649 11.4701 17.7503 11.7413 17.7504 12.0199V12.0219L17.7436 14.8207C17.7429 15.5831 17.122 16.1949 16.3637 16.1938C16.0453 16.1937 15.7376 16.0847 15.4916 15.8842L15.4907 15.8832L13.8373 14.5297C13.5172 14.2672 13.4705 13.7944 13.7328 13.474C13.7489 13.4544 13.766 13.4359 13.7836 13.4184C13.7659 13.4006 13.7481 13.3826 13.7319 13.3627C13.4701 13.0417 13.5183 12.5688 13.8393 12.307L15.4985 10.9535ZM14.8481 13.4184L16.2436 14.5609L16.2494 12.2758L14.8481 13.4184Z" fill="black"/>
<path d="M14.8901 5.96191V3C14.8901 2.58583 15.226 2.25007 15.6401 2.25C16.0544 2.25 16.3901 2.58579 16.3901 3V5.96191C16.39 6.37597 16.0542 6.71191 15.6401 6.71191C15.2261 6.71184 14.8903 6.37593 14.8901 5.96191Z" fill="black"/>
<path d="M7.61768 5.96191V3C7.61768 2.58583 7.95352 2.25007 8.36768 2.25C8.78189 2.25 9.11768 2.58579 9.11768 3V5.96191C9.11749 6.37597 8.78178 6.71191 8.36768 6.71191C7.95364 6.71184 7.61786 6.37593 7.61768 5.96191Z" fill="black"/>
<path d="M3.15039 16.7446V8.6001C3.15039 7.09202 3.61437 5.83192 4.53906 4.95264C5.458 4.07883 6.73745 3.67139 8.19434 3.67139H15.8135C17.2736 3.67139 18.5541 4.07881 19.4717 4.95361C20.3944 5.83353 20.8535 7.0937 20.8496 8.6001V16.813C20.8495 18.3202 20.388 19.5818 19.4648 20.4634C18.5468 21.34 17.267 21.7505 15.8057 21.7505H8.19434C6.73295 21.7505 5.45224 21.331 4.53418 20.4409C3.61248 19.5473 3.15043 18.2704 3.15039 16.7446ZM4.65039 16.7446C4.65043 17.9671 5.01401 18.8178 5.57812 19.3647C6.14596 19.9151 7.01246 20.2505 8.19434 20.2505H15.8057C16.9956 20.2505 17.8628 19.9188 18.4287 19.3784C18.9893 18.8431 19.3495 18.012 19.3496 16.813V8.59814C19.3531 7.39998 18.9951 6.57115 18.4365 6.03857C17.8721 5.50049 17.0045 5.17139 15.8135 5.17139H8.19434C7.00779 5.17139 6.13923 5.50043 5.57227 6.03955C5.01117 6.5732 4.65039 7.40261 4.65039 8.6001V16.7446Z" fill="black"/>
</svg>
