<svg width="24" height="24" viewBox="0 0 24 24" fill="none" xmlns="http://www.w3.org/2000/svg">
<path d="M11.1844 11.8811C12.6193 12.0537 13.6476 13.3545 13.4735 14.7913C13.2994 16.2269 11.9925 17.2449 10.5585 17.0735C9.12242 16.9017 8.09593 15.6005 8.26843 14.1653V14.1643C8.44238 12.7291 9.7493 11.7085 11.1844 11.8811ZM11.0057 13.3704C10.389 13.2961 9.83159 13.7352 9.75769 14.345C9.68482 14.9544 10.1208 15.5105 10.7362 15.5842C11.3539 15.6581 11.9104 15.2197 11.9842 14.6106C12.058 14.0022 11.6229 13.4447 11.0057 13.3704Z" fill="black"/>
<path d="M13.3541 8.39583C13.7128 8.37295 14.0369 8.60725 14.1276 8.95442V8.9554C14.1279 8.95647 14.1279 8.95819 14.1286 8.96028L14.1295 8.9593L14.1286 8.95833V8.95637L14.1276 8.9554C14.1284 8.95839 14.1311 8.96538 14.1344 8.9759C14.1413 8.99762 14.1532 9.03378 14.1715 9.0804C14.2088 9.17519 14.2692 9.30812 14.359 9.44954C14.5397 9.73412 14.8159 10.0219 15.235 10.1605C15.6283 10.2904 15.8415 10.7144 15.7116 11.1077C15.5815 11.5009 15.1575 11.7142 14.7643 11.5843C14.4336 11.475 14.1536 11.3189 13.9157 11.1429L13.4743 14.7913C13.4245 15.2024 13.0514 15.4952 12.6403 15.4456C12.2291 15.3959 11.9362 15.0219 11.986 14.6107L12.6578 9.05403C12.7012 8.69549 12.9938 8.41899 13.3541 8.39583Z" fill="black"/>
<path d="M14.8901 5.96191V3C14.8901 2.58583 15.226 2.25007 15.6401 2.25C16.0544 2.25 16.3901 2.58579 16.3901 3V5.96191C16.39 6.37597 16.0542 6.71191 15.6401 6.71191C15.2261 6.71184 14.8903 6.37593 14.8901 5.96191Z" fill="black"/>
<path d="M7.61768 5.96191V3C7.61768 2.58583 7.95352 2.25007 8.36768 2.25C8.78189 2.25 9.11768 2.58579 9.11768 3V5.96191C9.11749 6.37597 8.78178 6.71191 8.36768 6.71191C7.95364 6.71184 7.61786 6.37593 7.61768 5.96191Z" fill="black"/>
<path d="M3.15039 16.7446V8.6001C3.15039 7.09202 3.61437 5.83192 4.53906 4.95264C5.458 4.07883 6.73745 3.67139 8.19434 3.67139H15.8135C17.2736 3.67139 18.5541 4.07881 19.4717 4.95361C20.3944 5.83353 20.8535 7.0937 20.8496 8.6001V16.813C20.8495 18.3202 20.388 19.5818 19.4648 20.4634C18.5468 21.34 17.267 21.7505 15.8057 21.7505H8.19434C6.73295 21.7505 5.45224 21.331 4.53418 20.4409C3.61248 19.5473 3.15043 18.2704 3.15039 16.7446ZM4.65039 16.7446C4.65043 17.9671 5.01401 18.8178 5.57812 19.3647C6.14596 19.9151 7.01246 20.2505 8.19434 20.2505H15.8057C16.9956 20.2505 17.8628 19.9188 18.4287 19.3784C18.9893 18.8431 19.3495 18.012 19.3496 16.813V8.59814C19.3531 7.39998 18.9951 6.57115 18.4365 6.03857C17.8721 5.50049 17.0045 5.17139 15.8135 5.17139H8.19434C7.00779 5.17139 6.13923 5.50043 5.57227 6.03955C5.01117 6.5732 4.65039 7.40261 4.65039 8.6001V16.7446Z" fill="black"/>
</svg>
