<svg width="24" height="24" viewBox="0 0 24 24" fill="none" xmlns="http://www.w3.org/2000/svg">
<path d="M14.8901 5.96191V3C14.8901 2.58583 15.226 2.25007 15.6401 2.25C16.0544 2.25 16.3901 2.58579 16.3901 3V5.96191C16.39 6.37597 16.0542 6.71191 15.6401 6.71191C15.2261 6.71184 14.8903 6.37593 14.8901 5.96191Z" fill="black"/>
<path d="M7.61768 5.96191V3C7.61768 2.58583 7.95352 2.25007 8.36768 2.25C8.78189 2.25 9.11768 2.58579 9.11768 3V5.96191C9.11749 6.37597 8.78178 6.71191 8.36768 6.71191C7.95364 6.71184 7.61786 6.37593 7.61768 5.96191Z" fill="black"/>
<path d="M3.18311 16.7446V8.6001C3.18311 7.09202 3.64709 5.83192 4.57178 4.95264C5.49071 4.07883 6.77017 3.67139 8.22705 3.67139H15.8462C17.3063 3.67139 18.5868 4.07881 19.5044 4.95361C20.4271 5.83353 20.8862 7.0937 20.8823 8.6001V16.813C20.8822 18.3202 20.4207 19.5818 19.4976 20.4634C18.5795 21.34 17.2997 21.7505 15.8384 21.7505H8.22705C6.76567 21.7505 5.48496 21.331 4.56689 20.4409C3.6452 19.5473 3.18314 18.2704 3.18311 16.7446ZM4.68311 16.7446C4.68314 17.9671 5.04672 18.8178 5.61084 19.3647C6.17868 19.9151 7.04518 20.2505 8.22705 20.2505H15.8384C17.0283 20.2505 17.8955 19.9188 18.4614 19.3784C19.022 18.8431 19.3822 18.012 19.3823 16.813V8.59814C19.3858 7.39998 19.0279 6.57115 18.4692 6.03857C17.9048 5.50049 17.0372 5.17139 15.8462 5.17139H8.22705C7.0405 5.17139 6.17194 5.50043 5.60498 6.03955C5.04389 6.5732 4.68311 7.40261 4.68311 8.6001V16.7446Z" fill="black"/>
<path d="M14.9165 16.8103V14.7175C14.9165 14.5796 14.8044 14.4677 14.6665 14.4675H9.33447C9.1964 14.4675 9.08447 14.5795 9.08447 14.7175V16.8103C9.08447 17.2245 8.74869 17.5603 8.33447 17.5603C7.92026 17.5603 7.58447 17.2245 7.58447 16.8103V14.7175C7.58447 13.751 8.36798 12.9675 9.33447 12.9675H14.6665C15.6329 12.9677 16.4165 13.7511 16.4165 14.7175V16.8103C16.4165 17.2244 16.0806 17.5601 15.6665 17.5603C15.2523 17.5603 14.9165 17.2245 14.9165 16.8103Z" fill="black"/>
<path d="M16.5098 16.0605L16.5869 16.0645C16.9651 16.1029 17.2598 16.4222 17.2598 16.8105C17.2598 17.1989 16.9651 17.5182 16.5869 17.5566L16.5098 17.5605H7.49023C7.07602 17.5605 6.74023 17.2248 6.74023 16.8105C6.74023 16.3963 7.07602 16.0605 7.49023 16.0605H16.5098Z" fill="black"/>
<path d="M13.6919 13.717V12.0647C13.6919 11.9266 13.58 11.8147 13.4419 11.8147H10.5581C10.42 11.8147 10.3081 11.9266 10.3081 12.0647V13.717C10.3081 14.1313 9.97232 14.467 9.55811 14.467C9.14389 14.467 8.80811 14.1313 8.80811 13.717V12.0647C8.80811 11.0982 9.59161 10.3147 10.5581 10.3147H13.4419C14.4084 10.3147 15.1919 11.0982 15.1919 12.0647V13.717C15.1919 14.1313 14.8561 14.467 14.4419 14.467C14.0278 14.4669 13.6919 14.1312 13.6919 13.717Z" fill="black"/>
<path d="M11.25 11.0647L11.25 9.1438C11.25 8.72959 11.5858 8.3938 12 8.3938C12.4142 8.3938 12.75 8.72959 12.75 9.1438L12.75 11.0647C12.75 11.4789 12.4142 11.8147 12 11.8147C11.5858 11.8147 11.25 11.4789 11.25 11.0647Z" fill="black"/>
</svg>
