<svg width="24" height="24" viewBox="0 0 24 24" fill="none" xmlns="http://www.w3.org/2000/svg">
<path d="M20.0249 8.91431C20.4391 8.91431 20.7748 9.25017 20.7749 9.66431C20.7749 10.0785 20.4391 10.4143 20.0249 10.4143H3.98389C3.56967 10.4143 3.23389 10.0785 3.23389 9.66431C3.23397 9.25017 3.56973 8.91431 3.98389 8.91431H20.0249Z" fill="black"/>
<path d="M14.8906 5.96191V3C14.8906 2.58584 15.2265 2.25009 15.6406 2.25C16.0548 2.25 16.3906 2.58579 16.3906 3V5.96191C16.3905 6.37605 16.0548 6.71191 15.6406 6.71191C15.2265 6.71183 14.8907 6.37599 14.8906 5.96191Z" fill="black"/>
<path d="M7.61963 5.96191V3C7.61963 2.58584 7.95549 2.25009 8.36963 2.25C8.78384 2.25 9.11963 2.58579 9.11963 3V5.96191C9.11953 6.37605 8.78378 6.71191 8.36963 6.71191C7.95555 6.71183 7.61972 6.37599 7.61963 5.96191Z" fill="black"/>
<path d="M3.15039 16.7448V8.59924C3.15044 7.09118 3.61429 5.83084 4.53906 4.95178C5.45807 4.07828 6.73758 3.67151 8.19434 3.67151H15.8145C17.2744 3.67151 18.554 4.07835 19.4717 4.95276C20.3947 5.83246 20.8544 7.09268 20.8506 8.59924V11.8317C20.8505 12.2458 20.5147 12.5816 20.1006 12.5817C19.6864 12.5817 19.3507 12.2458 19.3506 11.8317V8.59729C19.354 7.39918 18.996 6.57105 18.4375 6.0387C17.8731 5.50076 17.0057 5.17151 15.8145 5.17151H8.19434C7.00759 5.17151 6.13922 5.50074 5.57227 6.03967C5.01134 6.57307 4.65044 7.40192 4.65039 8.59924V16.7448C4.65039 17.9674 5.01402 18.8181 5.57812 19.3649C6.14596 19.9151 7.01218 20.2496 8.19434 20.2496H10.6582C11.0723 20.2496 11.408 20.5856 11.4082 20.9996C11.4082 21.4138 11.0724 21.7496 10.6582 21.7496H8.19434C6.73309 21.7496 5.45232 21.3318 4.53418 20.442C3.6123 19.5485 3.15039 18.2707 3.15039 16.7448Z" fill="black"/>
<path d="M7.67578 12.1914C8.08999 12.1914 8.42578 12.5272 8.42578 12.9414C8.42578 13.3556 8.08999 13.6914 7.67578 13.6914H7.66602C7.2518 13.6914 6.91602 13.3556 6.91602 12.9414C6.91602 12.5272 7.2518 12.1914 7.66602 12.1914H7.67578Z" fill="black"/>
<path d="M7.67578 15.668C8.08999 15.668 8.42578 16.0038 8.42578 16.418C8.42578 16.8322 8.08999 17.168 7.67578 17.168H7.66602C7.2518 17.168 6.91602 16.8322 6.91602 16.418C6.91602 16.0038 7.2518 15.668 7.66602 15.668H7.67578Z" fill="black"/>
<path d="M11.3438 12.1914C11.758 12.1914 12.0938 12.5272 12.0938 12.9414C12.0938 13.3556 11.758 13.6914 11.3438 13.6914H11.334C10.9198 13.6914 10.584 13.3556 10.584 12.9414C10.584 12.5272 10.9198 12.1914 11.334 12.1914H11.3438Z" fill="black"/>
<path d="M16.4409 13.8271L16.8374 13.5888C17.2486 13.342 17.7613 13.3043 18.2095 13.5028L18.2105 13.5019C18.4255 13.5971 18.6314 13.7092 18.8267 13.8359L19.0181 13.9667L19.0191 13.9677C19.4178 14.2572 19.6407 14.7221 19.6333 15.2021V15.204L19.6245 15.662L19.6392 15.6943L19.6421 15.7011C19.6491 15.7127 19.6546 15.7199 19.6577 15.7235L20.0601 15.9472H20.0611C20.499 16.1897 20.7787 16.6303 20.8277 17.1142H20.8267C20.8575 17.4128 20.8575 17.7117 20.8277 18.0087V18.0097C20.7786 18.4927 20.5007 18.9332 20.064 19.1767L20.062 19.1776L19.6587 19.4003C19.6558 19.4034 19.6497 19.4105 19.6421 19.4228C19.6403 19.426 19.6401 19.4303 19.6382 19.4335C19.629 19.4493 19.6256 19.4593 19.6245 19.4628L19.6333 19.9208V19.9228C19.6406 20.4009 19.4191 20.8648 19.021 21.1552L19.02 21.1562C18.7685 21.3388 18.4979 21.4952 18.2144 21.622L18.2124 21.623C17.7628 21.8223 17.2486 21.7832 16.8365 21.536L16.4419 21.2978C16.4372 21.2968 16.4264 21.2958 16.4097 21.2958H16.4009C16.3849 21.2957 16.3751 21.2979 16.3716 21.2987C16.3687 21.2995 16.3717 21.2988 16.3784 21.2948L16.3775 21.2939L15.9771 21.536L15.9761 21.5351C15.5647 21.7822 15.0517 21.8213 14.6031 21.622V21.623C14.3881 21.5278 14.1822 21.4159 13.9868 21.289L13.7954 21.1571C13.3965 20.8672 13.1739 20.4028 13.1812 19.9228V19.9208L13.188 19.4589C13.1862 19.4537 13.183 19.4447 13.1763 19.4325L13.1734 19.4276C13.1639 19.4113 13.1566 19.4032 13.1538 19.4003H13.1548L12.7525 19.1767V19.1776C12.3146 18.935 12.0364 18.4942 11.9868 18.0126L11.9693 17.788C11.9576 17.5636 11.9634 17.3389 11.9859 17.1161V17.1151C12.0349 16.6322 12.3129 16.1916 12.7495 15.9482H12.7505L13.1538 15.7235C13.1568 15.7204 13.1644 15.7126 13.1734 15.6972C13.1739 15.6962 13.1747 15.6953 13.1753 15.6943C13.1833 15.6804 13.1863 15.67 13.188 15.665L13.1812 15.204V15.203C13.1738 14.7249 13.3943 14.2602 13.7925 13.9696L13.7945 13.9687C14.0459 13.7863 14.3159 13.6296 14.5991 13.5028L14.6011 13.5019C15.0507 13.3026 15.564 13.3417 15.9761 13.5888L16.3706 13.8271C16.3748 13.828 16.3857 13.829 16.4038 13.829H16.4126C16.428 13.8291 16.4373 13.8279 16.4409 13.8271ZM15.2036 14.8749C15.0189 14.9582 14.8435 15.0607 14.6802 15.1786L14.689 15.6464V15.6484C14.6935 15.9389 14.6066 16.195 14.4927 16.4042L14.4947 16.4052L14.4927 16.4091C14.4857 16.4231 14.4781 16.4375 14.4702 16.4511C14.345 16.6664 14.1567 16.8818 13.8892 17.0302L13.481 17.2587L13.4781 17.2665C13.4632 17.4142 13.4596 17.5625 13.4673 17.7099L13.479 17.8573V17.8593C13.4794 17.8622 13.4793 17.8647 13.48 17.8661L13.8892 18.0927H13.8882C14.1585 18.2423 14.3463 18.4602 14.4712 18.6757L14.4761 18.6835C14.5982 18.897 14.6938 19.168 14.689 19.4765V19.4784L14.6802 19.9452V19.9462C14.845 20.0654 15.0212 20.1658 15.2056 20.248L15.6079 20.0077H15.6089C15.87 19.8515 16.1513 19.795 16.4048 19.7958H16.4097C16.6588 19.7958 16.9416 19.8497 17.2056 20.0077H17.2066L17.6079 20.2489H17.6089C17.7936 20.1658 17.9691 20.0642 18.1323 19.9462L18.1245 19.4784V19.4765C18.1198 19.1699 18.2138 18.8992 18.3384 18.6835C18.3402 18.6803 18.3415 18.6769 18.3433 18.6737C18.4686 18.4584 18.6563 18.2425 18.9234 18.0937L18.9253 18.0927L19.3325 17.8661C19.3334 17.8648 19.335 17.8624 19.3355 17.8583L19.3472 17.7109C19.3546 17.5626 19.3507 17.4147 19.3355 17.2675L19.3345 17.2655C19.3341 17.2618 19.333 17.2595 19.3325 17.2587L18.9243 17.0321V17.0312C18.6545 16.8813 18.4661 16.664 18.3413 16.4482C18.3338 16.4351 18.3266 16.4216 18.3198 16.4081L18.3179 16.4032V16.4023C18.2054 16.1945 18.12 15.9381 18.1245 15.6484V15.6464L18.1323 15.1776C17.9666 15.0585 17.7909 14.9577 17.607 14.8759L17.2056 15.1171L17.2046 15.1161C16.9429 15.2734 16.6617 15.3288 16.4087 15.328V15.329H16.4038C16.1548 15.329 15.8727 15.2757 15.6089 15.1181L15.6079 15.1171L15.2046 14.8759L15.2036 14.8749Z" fill="black"/>
<path d="M16.5073 16.5791C17.0038 16.6293 17.397 17.0467 17.397 17.5635C17.397 18.1094 16.9537 18.5527 16.4077 18.5527C15.8961 18.5527 15.4742 18.1635 15.4233 17.665L15.4185 17.5635C15.4174 17.0149 15.8632 16.5742 16.4067 16.5742L16.5073 16.5791Z" fill="black"/>
</svg>
