<svg width="24" height="24" viewBox="0 0 24 24" fill="none" xmlns="http://www.w3.org/2000/svg">
<path d="M14.8906 5.96191V3C14.8906 2.58584 15.2265 2.25009 15.6406 2.25C16.0548 2.25 16.3906 2.58579 16.3906 3V5.96191C16.3905 6.37605 16.0548 6.71191 15.6406 6.71191C15.2265 6.71183 14.8907 6.37599 14.8906 5.96191Z" fill="black"/>
<path d="M7.61963 5.96191V3C7.61963 2.58584 7.95549 2.25009 8.36963 2.25C8.78384 2.25 9.11963 2.58579 9.11963 3V5.96191C9.11953 6.37605 8.78378 6.71191 8.36963 6.71191C7.95555 6.71183 7.61972 6.37599 7.61963 5.96191Z" fill="black"/>
<path d="M3.15039 16.7448V8.59924C3.15044 7.09118 3.61429 5.83084 4.53906 4.95178C5.45807 4.07828 6.73758 3.67151 8.19434 3.67151H15.8145C17.2744 3.67151 18.554 4.07835 19.4717 4.95276C20.3947 5.83246 20.8544 7.09268 20.8506 8.59924V16.8131C20.8506 18.3206 20.3893 19.583 19.4658 20.4645C18.5477 21.3409 17.2679 21.7496 15.8066 21.7496H8.19434C6.73309 21.7496 5.45232 21.3318 4.53418 20.442C3.6123 19.5485 3.15039 18.2707 3.15039 16.7448ZM4.65039 16.7448C4.65039 17.9674 5.01402 18.8181 5.57812 19.3649C6.14596 19.9151 7.01218 20.2496 8.19434 20.2496H15.8066C16.9966 20.2496 17.8638 19.9196 18.4297 19.3795C18.9903 18.8444 19.3506 18.0124 19.3506 16.8131V8.59729C19.354 7.39918 18.996 6.57105 18.4375 6.0387C17.8731 5.50076 17.0057 5.17151 15.8145 5.17151H8.19434C7.00759 5.17151 6.13922 5.50074 5.57227 6.03967C5.01134 6.57307 4.65044 7.40192 4.65039 8.59924V16.7448Z" fill="black"/>
<path d="M13.875 11.4719C13.875 10.6755 13.6321 10.1587 13.3262 9.84497C13.0179 9.52892 12.5827 9.35288 12.0732 9.35278C11.5585 9.35278 11.0754 9.53264 10.7266 9.8645C10.3871 10.1875 10.125 10.7015 10.125 11.4719C10.1251 12.2689 10.3913 13.0368 10.7881 13.592C11.1958 14.1625 11.655 14.4025 12.0098 14.4026C12.3628 14.4026 12.8167 14.1645 13.2197 13.595C13.6121 13.0404 13.8749 12.2717 13.875 11.4719ZM15.375 11.4719C15.3749 12.5811 15.0164 13.6525 14.4443 14.4612C13.8826 15.2551 13.0288 15.9026 12.0098 15.9026C10.9925 15.9025 10.134 15.2569 9.56738 14.4641C8.99005 13.6562 8.62509 12.5837 8.625 11.4719C8.625 10.333 9.02599 9.4116 9.69238 8.77759C10.3494 8.15253 11.216 7.85278 12.0732 7.85278C12.9353 7.85288 13.7756 8.1566 14.4004 8.79712C15.0277 9.44038 15.375 10.359 15.375 11.4719Z" fill="black"/>
<path d="M11.7986 14.6298C12.1554 14.4194 12.6155 14.5387 12.8259 14.8955C13.2579 15.6279 13.1322 16.5608 12.5222 17.1533C12.412 17.2605 12.387 17.4284 12.4607 17.5634L12.4783 17.5956C12.6766 17.9592 12.5428 18.4148 12.1794 18.6132C11.8158 18.8116 11.3602 18.678 11.1619 18.3144L11.1433 18.2812C10.7474 17.5549 10.8839 16.6535 11.4773 16.0771C11.5907 15.9669 11.6143 15.7934 11.5339 15.6572C11.3236 15.3004 11.4419 14.8402 11.7986 14.6298Z" fill="black"/>
<path d="M17.2515 10.4901C17.6657 10.4901 18.0015 10.8259 18.0015 11.2401C18.0015 11.6543 17.6657 11.9901 17.2515 11.9901H17.2417C16.8275 11.9901 16.4917 11.6543 16.4917 11.2401C16.4917 10.8259 16.8275 10.4901 17.2417 10.4901H17.2515Z" fill="black"/>
<path d="M15.1543 16.7644C15.5685 16.7644 15.9043 17.1002 15.9043 17.5144C15.9043 17.9286 15.5685 18.2644 15.1543 18.2644H15.1445C14.7303 18.2644 14.3945 17.9286 14.3945 17.5144C14.3945 17.1002 14.7303 16.7644 15.1445 16.7644H15.1543Z" fill="black"/>
<path d="M7.8833 14.5264C8.29751 14.5264 8.6333 14.8622 8.6333 15.2764C8.6333 15.6906 8.29751 16.0264 7.8833 16.0264H7.87354C7.45932 16.0264 7.12354 15.6906 7.12354 15.2764C7.12354 14.8622 7.45932 14.5264 7.87354 14.5264H7.8833Z" fill="black"/>
</svg>
