<svg width="24" height="24" viewBox="0 0 24 24" fill="none" xmlns="http://www.w3.org/2000/svg">
<path d="M20.0249 8.91431C20.4391 8.91431 20.7748 9.25017 20.7749 9.66431C20.7749 10.0785 20.4391 10.4143 20.0249 10.4143H3.98389C3.56967 10.4143 3.23389 10.0785 3.23389 9.66431C3.23397 9.25017 3.56973 8.91431 3.98389 8.91431H20.0249Z" fill="black"/>
<path d="M14.8906 5.96191V3C14.8906 2.58584 15.2265 2.25009 15.6406 2.25C16.0548 2.25 16.3906 2.58579 16.3906 3V5.96191C16.3905 6.37605 16.0548 6.71191 15.6406 6.71191C15.2265 6.71183 14.8907 6.37599 14.8906 5.96191Z" fill="black"/>
<path d="M7.61963 5.96191V3C7.61963 2.58584 7.95549 2.25009 8.36963 2.25C8.78384 2.25 9.11963 2.58579 9.11963 3V5.96191C9.11953 6.37605 8.78378 6.71191 8.36963 6.71191C7.95555 6.71183 7.61972 6.37599 7.61963 5.96191Z" fill="black"/>
<path d="M3.15039 16.7448V8.59924C3.15044 7.09118 3.61429 5.83084 4.53906 4.95178C5.45807 4.07828 6.73758 3.67151 8.19434 3.67151H15.8145C17.2744 3.67151 18.554 4.07835 19.4717 4.95276C20.3947 5.83246 20.8544 7.09268 20.8506 8.59924V11.8317C20.8505 12.2458 20.5147 12.5816 20.1006 12.5817C19.6864 12.5817 19.3507 12.2458 19.3506 11.8317V8.59729C19.354 7.39918 18.996 6.57105 18.4375 6.0387C17.8731 5.50076 17.0057 5.17151 15.8145 5.17151H8.19434C7.00759 5.17151 6.13922 5.50074 5.57227 6.03967C5.01134 6.57307 4.65044 7.40192 4.65039 8.59924V16.7448C4.65039 17.9674 5.01402 18.8181 5.57812 19.3649C6.14596 19.9151 7.01218 20.2496 8.19434 20.2496H10.375C10.789 20.2497 11.1248 20.5856 11.125 20.9996C11.125 21.4138 10.7892 21.7496 10.375 21.7496H8.19434C6.73309 21.7496 5.45232 21.3318 4.53418 20.442C3.6123 19.5485 3.15039 18.2707 3.15039 16.7448Z" fill="black"/>
<path d="M7.67578 12.1914C8.08999 12.1914 8.42578 12.5272 8.42578 12.9414C8.42578 13.3556 8.08999 13.6914 7.67578 13.6914H7.66602C7.2518 13.6914 6.91602 13.3556 6.91602 12.9414C6.91602 12.5272 7.2518 12.1914 7.66602 12.1914H7.67578Z" fill="black"/>
<path d="M7.67578 15.668C8.08999 15.668 8.42578 16.0038 8.42578 16.418C8.42578 16.8322 8.08999 17.168 7.67578 17.168H7.66602C7.2518 17.168 6.91602 16.8322 6.91602 16.418C6.91602 16.0038 7.2518 15.668 7.66602 15.668H7.67578Z" fill="black"/>
<path d="M11.3438 12.1914C11.758 12.1914 12.0938 12.5272 12.0938 12.9414C12.0938 13.3556 11.758 13.6914 11.3438 13.6914H11.334C10.9198 13.6914 10.584 13.3556 10.584 12.9414C10.584 12.5272 10.9198 12.1914 11.334 12.1914H11.3438Z" fill="black"/>
<path d="M15.9372 12.2177C16.1895 12.1615 16.4194 12.2103 16.5319 12.2333C16.8283 12.294 17.1147 12.4403 17.3414 12.6943C17.5634 12.9429 17.6896 13.2514 17.7477 13.58C17.8295 14.0433 17.7869 14.6067 17.6305 15.2714H17.7164C18.176 15.2714 18.5693 15.2702 18.8864 15.2978C19.2084 15.3258 19.5394 15.3892 19.8434 15.5712C20.3014 15.8454 20.6381 16.2829 20.7848 16.7958C20.8824 17.137 20.8572 17.4732 20.8004 17.7909C20.7725 17.9474 20.732 18.1203 20.6842 18.3095L20.5211 18.9247L20.2907 19.7753C20.1917 20.1408 20.1032 20.5075 19.9166 20.8115L19.8307 20.9374C19.6228 21.2104 19.3452 21.4229 19.027 21.5517C18.7432 21.6666 18.4301 21.6879 18.108 21.6913H15.0602C14.7611 21.6913 14.4925 21.6916 14.2702 21.6738C14.097 21.6599 13.9155 21.6336 13.734 21.5702L13.5534 21.4941C13.1891 21.3128 12.8939 21.0179 12.7116 20.6542C12.5908 20.4133 12.5485 20.168 12.5299 19.9374C12.5121 19.7155 12.5123 19.4473 12.5123 19.1493V16.5527C12.5123 16.3741 12.5077 16.1703 12.5524 15.9706L12.5856 15.8466C12.623 15.7241 12.6741 15.6065 12.7389 15.495L12.8229 15.3681C12.9119 15.2458 13.0146 15.1379 13.1061 15.039C13.669 14.4305 14.6872 13.3213 15.2848 12.6191C15.3002 12.601 15.3166 12.5829 15.3336 12.5663C15.4659 12.438 15.6593 12.2796 15.9372 12.2177ZM14.0123 19.1493C14.0123 19.4718 14.0131 19.6696 14.025 19.8173C14.0306 19.886 14.0377 19.9278 14.0436 19.9531C14.0464 19.965 14.0481 19.9725 14.0495 19.9765C14.0508 19.9803 14.0523 19.9821 14.0524 19.9824C14.0889 20.055 14.1479 20.1147 14.2213 20.1513H14.2223C14.2229 20.1516 14.2248 20.1521 14.2282 20.1533C14.2324 20.1547 14.2403 20.1573 14.2526 20.1601C14.2783 20.166 14.3203 20.1731 14.3893 20.1786C14.5379 20.1905 14.7368 20.1913 15.0602 20.1913H17.7829C18.3511 20.1913 18.4227 20.178 18.4645 20.1611L18.5602 20.1064C18.5891 20.0842 18.6151 20.0583 18.6373 20.0292L18.6598 19.9902C18.6867 19.9319 18.7324 19.7937 18.8434 19.3837L19.0729 18.5331C19.1997 18.0644 19.2822 17.7601 19.3239 17.5273C19.3646 17.2994 19.3479 17.2271 19.3424 17.2079C19.3005 17.0619 19.2044 16.9361 19.0729 16.8574C19.0541 16.8462 18.9867 16.813 18.7565 16.7929C18.5197 16.7723 18.2031 16.7714 17.7164 16.7714H16.8463C16.7496 16.7714 16.3256 16.7696 16.0709 16.3886C15.9451 16.2002 15.9253 16.0067 15.9303 15.8788C15.9352 15.7562 15.9636 15.6521 15.985 15.5859L16.0856 15.2538C16.2931 14.5215 16.3131 14.0787 16.2711 13.8408C16.2675 13.82 16.2595 13.8028 16.2555 13.787C15.6283 14.5108 14.719 15.5048 14.2077 16.0575C14.131 16.1404 14.0883 16.1862 14.0582 16.2216L14.0358 16.249C14.0265 16.2649 14.0202 16.2809 14.0163 16.2988C14.0181 16.2903 14.016 16.2944 14.0143 16.3339C14.0124 16.3797 14.0123 16.4409 14.0123 16.5527V19.1493Z" fill="black"/>
</svg>
