<svg width="24" height="24" viewBox="0 0 24 24" fill="none" xmlns="http://www.w3.org/2000/svg">
<path d="M20.0249 8.91431C20.4391 8.91431 20.7748 9.25017 20.7749 9.66431C20.7749 10.0785 20.4391 10.4143 20.0249 10.4143H3.98389C3.56967 10.4143 3.23389 10.0785 3.23389 9.66431C3.23397 9.25017 3.56973 8.91431 3.98389 8.91431H20.0249Z" fill="black"/>
<path d="M14.8906 5.96191V3C14.8906 2.58584 15.2265 2.25009 15.6406 2.25C16.0548 2.25 16.3906 2.58579 16.3906 3V5.96191C16.3905 6.37605 16.0548 6.71191 15.6406 6.71191C15.2265 6.71183 14.8907 6.37599 14.8906 5.96191Z" fill="black"/>
<path d="M7.61963 5.96191V3C7.61963 2.58584 7.95549 2.25009 8.36963 2.25C8.78384 2.25 9.11963 2.58579 9.11963 3V5.96191C9.11953 6.37605 8.78378 6.71191 8.36963 6.71191C7.95555 6.71183 7.61972 6.37599 7.61963 5.96191Z" fill="black"/>
<path d="M3.15039 16.7446V8.59912C3.15044 7.09106 3.61429 5.83072 4.53906 4.95166C5.45807 4.07816 6.73758 3.67139 8.19434 3.67139H15.8145C17.2744 3.67139 18.554 4.07823 19.4717 4.95264C20.3947 5.83234 20.8544 7.09256 20.8506 8.59912V11.8315C20.8505 12.2456 20.5147 12.5815 20.1006 12.5815C19.6864 12.5815 19.3507 12.2457 19.3506 11.8315V8.59717C19.354 7.39905 18.996 6.57093 18.4375 6.03857C17.8731 5.50064 17.0057 5.17139 15.8145 5.17139H8.19434C7.00759 5.17139 6.13922 5.50062 5.57227 6.03955C5.01134 6.57294 4.65044 7.4018 4.65039 8.59912V16.7446C4.65039 17.9673 5.01402 18.818 5.57812 19.3647C6.14596 19.915 7.01218 20.2495 8.19434 20.2495H10.375C10.789 20.2495 11.1248 20.5855 11.125 20.9995C11.125 21.4137 10.7892 21.7495 10.375 21.7495H8.19434C6.73309 21.7495 5.45232 21.3317 4.53418 20.4419C3.6123 19.5484 3.15039 18.2706 3.15039 16.7446Z" fill="black"/>
<path d="M7.67578 12.1914C8.08999 12.1914 8.42578 12.5272 8.42578 12.9414C8.42578 13.3556 8.08999 13.6914 7.67578 13.6914H7.66602C7.2518 13.6914 6.91602 13.3556 6.91602 12.9414C6.91602 12.5272 7.2518 12.1914 7.66602 12.1914H7.67578Z" fill="black"/>
<path d="M7.67578 15.668C8.08999 15.668 8.42578 16.0038 8.42578 16.418C8.42578 16.8322 8.08999 17.168 7.67578 17.168H7.66602C7.2518 17.168 6.91602 16.8322 6.91602 16.418C6.91602 16.0038 7.2518 15.668 7.66602 15.668H7.67578Z" fill="black"/>
<path d="M13.0163 12.4362C13.3745 12.2532 13.7639 12.1882 14.1648 12.3209C14.5106 12.4355 14.7777 12.6731 14.9724 12.8629C15.0767 12.9646 15.1842 13.0781 15.2888 13.1881C15.3964 13.3013 15.5065 13.4165 15.6277 13.5377C15.8277 13.7379 15.9854 13.9601 16.0788 14.2125C16.1746 14.4714 16.1875 14.7191 16.1579 14.9411C16.1301 15.1495 16.0643 15.3338 16.0144 15.4655C15.9551 15.6221 15.9227 15.6961 15.8884 15.8024C15.8699 15.8599 15.8653 15.889 15.864 15.9C15.8653 15.9032 15.8672 15.9073 15.8699 15.9127C15.9068 15.988 15.9968 16.1109 16.2165 16.3444L16.4822 16.6178L16.4841 16.6188C16.9024 17.0385 17.0878 17.1817 17.1882 17.2311C17.1945 17.2342 17.1996 17.2356 17.2029 17.2369C17.2151 17.2353 17.2447 17.2312 17.2996 17.2135C17.4058 17.1793 17.4797 17.1459 17.6365 17.0866C17.7682 17.0367 17.9523 16.9717 18.1609 16.944C18.3827 16.9145 18.6297 16.9264 18.8884 17.0221C19.0778 17.0922 19.2501 17.1986 19.4089 17.3317L19.5632 17.4733C19.6845 17.5945 19.8006 17.7045 19.9138 17.8121C20.0237 17.9167 20.1373 18.0243 20.239 18.1286C20.4288 18.3232 20.6665 18.5905 20.781 18.9362C20.9137 19.337 20.8478 19.7265 20.6648 20.0846C20.4981 20.4107 20.2232 20.7362 19.8816 21.0778C19.8623 21.0971 19.8414 21.1154 19.8201 21.1325C19.8536 21.1055 19.8772 21.0795 19.8464 21.111C19.8302 21.1276 19.7987 21.1596 19.7615 21.195C19.6849 21.2677 19.5754 21.3613 19.4304 21.4508C19.1302 21.6362 18.7185 21.7771 18.1853 21.7448C17.164 21.6828 15.8232 20.9973 13.9636 19.1383H13.9626C12.1033 17.2785 11.4181 15.937 11.3562 14.9157C11.3239 14.3824 11.4647 13.9707 11.6501 13.6705C11.7397 13.5256 11.8332 13.4161 11.906 13.3395C11.9413 13.3023 11.9733 13.2718 11.99 13.2555C12.0221 13.2241 11.9956 13.2471 11.9685 13.2809C11.9857 13.2595 12.0048 13.2388 12.0242 13.2194C12.3656 12.8779 12.6904 12.6028 13.0163 12.4362ZM13.699 13.7721C13.5868 13.8294 13.396 13.9696 13.0847 14.2809L13.0828 14.2789C13.0587 14.3044 13.0418 14.3249 13.0388 14.3278C13.0196 14.3465 13.0072 14.3587 12.9939 14.3727C12.9693 14.3986 12.9466 14.4261 12.9265 14.4586C12.8925 14.5137 12.8409 14.621 12.8533 14.8248C12.8807 15.2779 13.2308 16.284 15.0242 18.0778C16.8175 19.8705 17.823 20.2202 18.2761 20.2477C18.4796 20.26 18.5871 20.2094 18.6423 20.1754C18.6749 20.1553 18.7023 20.1317 18.7283 20.1071C18.7422 20.0938 18.7546 20.0821 18.7732 20.0631C18.7753 20.0609 18.7957 20.0421 18.822 20.0172L18.821 20.0162C19.1321 19.7051 19.2725 19.5141 19.3298 19.402C19.3339 19.394 19.3359 19.3864 19.3386 19.3805C19.3167 19.3477 19.2691 19.2834 19.1648 19.1764C19.0864 19.096 18.9943 19.0081 18.8796 18.8991C18.7681 18.793 18.6392 18.6703 18.5027 18.5338V18.5328C18.4158 18.4462 18.3705 18.4303 18.3679 18.4293C18.3659 18.4295 18.363 18.4298 18.3591 18.4303C18.3285 18.4344 18.2764 18.4478 18.1677 18.4889C18.084 18.5206 17.9121 18.592 17.7595 18.6412C17.5928 18.6949 17.3946 18.7423 17.1736 18.7389C16.9428 18.7353 16.7295 18.6772 16.5271 18.5778C16.1682 18.4014 15.8163 18.0744 15.4216 17.6784V17.6774C15.0265 17.2834 14.6993 16.9331 14.5232 16.5748C14.4237 16.3723 14.3665 16.1584 14.363 15.9274C14.3597 15.7064 14.407 15.5091 14.4607 15.3424C14.5098 15.19 14.5803 15.0181 14.6121 14.9342C14.6532 14.8256 14.6665 14.7735 14.6706 14.7428C14.6714 14.737 14.6706 14.7331 14.6706 14.7311C14.6661 14.7205 14.6448 14.676 14.5671 14.5983C14.4307 14.4618 14.3089 14.3328 14.2029 14.2213C14.0938 14.1066 14.0059 14.0146 13.9255 13.9362C13.8176 13.8309 13.753 13.783 13.7204 13.7614C13.7144 13.7642 13.7073 13.7679 13.699 13.7721Z" fill="black"/>
</svg>
