<svg width="24" height="24" viewBox="0 0 24 24" fill="none" xmlns="http://www.w3.org/2000/svg">
<path d="M16.2485 8.85352C16.6627 8.85355 16.9984 9.1894 16.9985 9.60352C16.9985 10.0177 16.6627 10.3535 16.2485 10.3535H7.75244C7.33823 10.3535 7.00244 10.0177 7.00244 9.60352C7.00253 9.18938 7.33828 8.85352 7.75244 8.85352H16.2485Z" fill="black"/>
<path d="M14.8887 5.57617V3C14.8887 2.58584 15.2245 2.25009 15.6387 2.25C16.0529 2.25 16.3887 2.58579 16.3887 3V5.57617C16.3887 5.99039 16.0529 6.32617 15.6387 6.32617C15.2245 6.32609 14.8887 5.99033 14.8887 5.57617Z" fill="black"/>
<path d="M7.61816 5.57617V3C7.61816 2.58584 7.95402 2.25009 8.36816 2.25C8.78238 2.25 9.11816 2.58579 9.11816 3V5.57617C9.11816 5.99039 8.78238 6.32617 8.36816 6.32617C7.95402 6.32609 7.61816 5.99033 7.61816 5.57617Z" fill="black"/>
<path d="M3.15039 16.7448V8.59924C3.15044 7.09118 3.61429 5.83084 4.53906 4.95178C5.45807 4.07828 6.73758 3.67151 8.19434 3.67151H15.8145C17.2744 3.67151 18.554 4.07835 19.4717 4.95276C20.3947 5.83246 20.8544 7.09268 20.8506 8.59924V16.8131C20.8506 18.3206 20.3893 19.583 19.4658 20.4645C18.5477 21.3409 17.2679 21.7496 15.8066 21.7496H8.19434C6.73309 21.7496 5.45232 21.3318 4.53418 20.442C3.6123 19.5485 3.15039 18.2707 3.15039 16.7448ZM4.65039 16.7448C4.65039 17.9674 5.01402 18.8181 5.57812 19.3649C6.14596 19.9151 7.01218 20.2496 8.19434 20.2496H15.8066C16.9966 20.2496 17.8638 19.9196 18.4297 19.3795C18.9903 18.8444 19.3506 18.0124 19.3506 16.8131V8.59729C19.354 7.39918 18.996 6.57105 18.4375 6.0387C17.8731 5.50076 17.0057 5.17151 15.8145 5.17151H8.19434C7.00759 5.17151 6.13922 5.50074 5.57227 6.03967C5.01134 6.57307 4.65044 7.40192 4.65039 8.59924V16.7448Z" fill="black"/>
<path d="M15.4141 14.5109C15.8282 14.5109 16.164 14.8467 16.1641 15.2609C16.1641 15.6751 15.8283 16.0109 15.4141 16.0109H8.61523C8.20102 16.0109 7.86523 15.6751 7.86523 15.2609C7.86532 14.8467 8.20107 14.5109 8.61523 14.5109H15.4141Z" fill="black"/>
<path d="M10.1387 12.7871C10.4416 12.5051 10.9159 12.5215 11.1982 12.8242C11.4807 13.1272 11.4641 13.6024 11.1611 13.8848L9.68457 15.2608L11.1611 16.6367C11.4639 16.9192 11.4805 17.3934 11.1982 17.6963C10.9158 17.9993 10.4417 18.0157 10.1387 17.7334L8.07324 15.8096C7.92112 15.6678 7.83503 15.4687 7.83496 15.2608C7.83496 15.0528 7.92118 14.8538 8.07324 14.7119L10.1387 12.7871Z" fill="black"/>
</svg>
