<svg width="24" height="24" viewBox="0 0 24 24" fill="none" xmlns="http://www.w3.org/2000/svg">
<path d="M20.0249 9.91772C20.4391 9.91772 20.7748 10.2536 20.7749 10.6677C20.7749 11.0819 20.4391 11.4177 20.0249 11.4177H3.98389C3.56967 11.4177 3.23389 11.0819 3.23389 10.6677C3.23397 10.2536 3.56973 9.91772 3.98389 9.91772H20.0249Z" fill="black"/>
<path d="M14.8887 5.96191V3C14.8887 2.58584 15.2245 2.25009 15.6387 2.25C16.0529 2.25 16.3887 2.58579 16.3887 3V5.96191C16.3886 6.37605 16.0528 6.71191 15.6387 6.71191C15.2246 6.71183 14.8888 6.37599 14.8887 5.96191Z" fill="black"/>
<path d="M7.61816 5.96191V3C7.61816 2.58584 7.95402 2.25009 8.36816 2.25C8.78238 2.25 9.11816 2.58579 9.11816 3V5.96191C9.11807 6.37605 8.78232 6.71191 8.36816 6.71191C7.95408 6.71183 7.61826 6.37599 7.61816 5.96191Z" fill="black"/>
<path d="M3.15039 16.7448V8.59924C3.15044 7.09118 3.61429 5.83084 4.53906 4.95178C5.45807 4.07828 6.73758 3.67151 8.19434 3.67151H15.8145C17.2744 3.67151 18.554 4.07835 19.4717 4.95276C20.3947 5.83246 20.8544 7.09268 20.8506 8.59924V16.8131C20.8506 18.3206 20.3893 19.583 19.4658 20.4645C18.5477 21.3409 17.2679 21.7496 15.8066 21.7496H8.19434C6.73309 21.7496 5.45232 21.3318 4.53418 20.442C3.6123 19.5485 3.15039 18.2707 3.15039 16.7448ZM4.65039 16.7448C4.65039 17.9674 5.01402 18.8181 5.57812 19.3649C6.14596 19.9151 7.01218 20.2496 8.19434 20.2496H15.8066C16.9966 20.2496 17.8638 19.9196 18.4297 19.3795C18.9903 18.8444 19.3506 18.0124 19.3506 16.8131V8.59729C19.354 7.39918 18.996 6.57105 18.4375 6.0387C17.8731 5.50076 17.0057 5.17151 15.8145 5.17151H8.19434C7.00759 5.17151 6.13922 5.50074 5.57227 6.03967C5.01134 6.57307 4.65044 7.40192 4.65039 8.59924V16.7448Z" fill="black"/>
<path d="M16.1182 14.7522C16.5322 14.7523 16.8681 15.0881 16.8682 15.5022C16.8682 15.9163 16.5323 16.2521 16.1182 16.2522H11.2754C10.8612 16.2522 10.5254 15.9164 10.5254 15.5022C10.5255 15.0881 10.8612 14.7522 11.2754 14.7522H16.1182Z" fill="black"/>
<path d="M8.30518 14.7522C8.71928 14.7523 9.05509 15.0881 9.05518 15.5022C9.05518 15.9164 8.71934 16.2521 8.30518 16.2522H7.89111C7.4771 16.252 7.14111 15.9163 7.14111 15.5022C7.1412 15.0882 7.47715 14.7524 7.89111 14.7522H8.30518Z" fill="black"/>
</svg>
