<svg width="24" height="24" viewBox="0 0 24 24" fill="none" xmlns="http://www.w3.org/2000/svg">
<path d="M20.0249 8.91431C20.4391 8.91431 20.7748 9.25017 20.7749 9.66431C20.7749 10.0785 20.4391 10.4143 20.0249 10.4143H3.98389C3.56967 10.4143 3.23389 10.0785 3.23389 9.66431C3.23397 9.25017 3.56973 8.91431 3.98389 8.91431H20.0249Z" fill="black"/>
<path d="M14.8906 5.96191V3C14.8906 2.58584 15.2265 2.25009 15.6406 2.25C16.0548 2.25 16.3906 2.58579 16.3906 3V5.96191C16.3905 6.37605 16.0548 6.71191 15.6406 6.71191C15.2265 6.71183 14.8907 6.37599 14.8906 5.96191Z" fill="black"/>
<path d="M7.61963 5.96191V3C7.61963 2.58584 7.95549 2.25009 8.36963 2.25C8.78384 2.25 9.11963 2.58579 9.11963 3V5.96191C9.11953 6.37605 8.78378 6.71191 8.36963 6.71191C7.95555 6.71183 7.61972 6.37599 7.61963 5.96191Z" fill="black"/>
<path d="M3.15039 16.7448V8.59924C3.15044 7.09118 3.61429 5.83084 4.53906 4.95178C5.45807 4.07828 6.73758 3.67151 8.19434 3.67151H15.8145C17.2744 3.67151 18.554 4.07835 19.4717 4.95276C20.3947 5.83246 20.8544 7.09268 20.8506 8.59924V16.8131C20.8506 18.3206 20.3893 19.583 19.4658 20.4645C18.5477 21.3409 17.2679 21.7496 15.8066 21.7496H8.19434C6.73309 21.7496 5.45232 21.3318 4.53418 20.442C3.6123 19.5485 3.15039 18.2707 3.15039 16.7448ZM4.65039 16.7448C4.65039 17.9674 5.01402 18.8181 5.57812 19.3649C6.14596 19.9151 7.01218 20.2496 8.19434 20.2496H15.8066C16.9966 20.2496 17.8638 19.9196 18.4297 19.3795C18.9903 18.8444 19.3506 18.0124 19.3506 16.8131V8.59729C19.354 7.39918 18.996 6.57105 18.4375 6.0387C17.8731 5.50076 17.0057 5.17151 15.8145 5.17151H8.19434C7.00759 5.17151 6.13922 5.50074 5.57227 6.03967C5.01134 6.57307 4.65044 7.40192 4.65039 8.59924V16.7448Z" fill="black"/>
<path d="M8.67036 12.3289C8.98841 12.2079 10.2009 11.8918 11.604 11.9744C12.5865 12.0325 13.6705 12.4113 14.4086 13.2381L14.5405 13.3953C14.8417 13.779 15.0942 14.2801 15.1606 14.8738C15.2383 15.5683 15.0523 16.315 14.5209 17.0525C13.9897 17.7899 13.3409 18.2032 12.6577 18.3494C11.9899 18.4922 11.3596 18.3652 10.8676 18.1531V18.1541C9.84982 17.716 9.14668 16.8067 8.78071 15.8934C8.25773 14.5885 8.17385 13.3388 8.18794 12.9988L8.20063 12.8885C8.24908 12.6357 8.42496 12.4223 8.67036 12.3289ZM11.5151 13.4715C10.8048 13.4297 10.1583 13.5146 9.72797 13.5994C9.78391 14.0343 9.9084 14.6749 10.1733 15.3357C10.4347 15.988 10.9012 16.5354 11.4604 16.7762H11.4614C11.7363 16.8946 12.046 16.9461 12.3432 16.8826C12.625 16.8223 12.9666 16.6441 13.3041 16.1756C13.6414 15.7073 13.7023 15.3272 13.6704 15.0408C13.6365 14.7385 13.4898 14.4603 13.2905 14.2371H13.2895C12.8835 13.7824 12.2171 13.5129 11.5151 13.4715Z" fill="black"/>
<path d="M12.1963 15.0927C12.5312 14.849 13.0005 14.9229 13.2442 15.2577L13.2432 15.2568C13.2438 15.2576 13.2448 15.2589 13.2461 15.2607C13.2504 15.2663 13.2585 15.277 13.2696 15.2909C13.2917 15.3189 13.3272 15.3621 13.375 15.4169C13.4718 15.5278 13.6187 15.6842 13.8086 15.8544C14.193 16.1987 14.7315 16.5793 15.3819 16.7861C15.7762 16.9117 15.9944 17.333 15.8692 17.7275C15.7437 18.1222 15.3216 18.3402 14.9268 18.2148C14.009 17.923 13.2893 17.4031 12.8077 16.9716C12.5646 16.7538 12.3751 16.5522 12.2452 16.4032C12.1802 16.3287 12.1295 16.2667 12.0938 16.2216C12.0759 16.199 12.0612 16.1806 12.0508 16.1669C12.0457 16.1602 12.0414 16.1547 12.0381 16.1503C12.0366 16.1482 12.0354 16.146 12.0342 16.1445L12.0323 16.1425V16.1415L12.0313 16.1406C11.7876 15.8056 11.8615 15.3364 12.1963 15.0927Z" fill="black"/>
</svg>
