<svg width="24" height="24" viewBox="0 0 24 24" fill="none" xmlns="http://www.w3.org/2000/svg">
<path d="M20.0249 8.91431C20.4391 8.91431 20.7748 9.25017 20.7749 9.66431C20.7749 10.0785 20.4391 10.4143 20.0249 10.4143H3.98389C3.56967 10.4143 3.23389 10.0785 3.23389 9.66431C3.23397 9.25017 3.56973 8.91431 3.98389 8.91431H20.0249Z" fill="black"/>
<path d="M14.8906 5.96191V3C14.8906 2.58584 15.2265 2.25009 15.6406 2.25C16.0548 2.25 16.3906 2.58579 16.3906 3V5.96191C16.3905 6.37605 16.0548 6.71191 15.6406 6.71191C15.2265 6.71183 14.8907 6.37599 14.8906 5.96191Z" fill="black"/>
<path d="M7.61963 5.96191V3C7.61963 2.58584 7.95549 2.25009 8.36963 2.25C8.78384 2.25 9.11963 2.58579 9.11963 3V5.96191C9.11953 6.37605 8.78378 6.71191 8.36963 6.71191C7.95555 6.71183 7.61972 6.37599 7.61963 5.96191Z" fill="black"/>
<path d="M3.15039 16.7446V8.59912C3.15044 7.09106 3.61429 5.83072 4.53906 4.95166C5.45807 4.07816 6.73758 3.67139 8.19434 3.67139H15.8145C17.2744 3.67139 18.554 4.07823 19.4717 4.95264C20.3947 5.83234 20.8544 7.09256 20.8506 8.59912V16.813C20.8506 18.3205 20.3893 19.5829 19.4658 20.4644C18.5477 21.3408 17.2679 21.7495 15.8066 21.7495H8.19434C6.73309 21.7495 5.45232 21.3317 4.53418 20.4419C3.6123 19.5484 3.15039 18.2706 3.15039 16.7446ZM4.65039 16.7446C4.65039 17.9673 5.01402 18.818 5.57812 19.3647C6.14596 19.915 7.01218 20.2495 8.19434 20.2495H15.8066C16.9966 20.2495 17.8638 19.9195 18.4297 19.3794C18.9903 18.8442 19.3506 18.0123 19.3506 16.813V8.59717C19.354 7.39905 18.996 6.57093 18.4375 6.03857C17.8731 5.50064 17.0057 5.17139 15.8145 5.17139H8.19434C7.00759 5.17139 6.13922 5.50062 5.57227 6.03955C5.01134 6.57294 4.65044 7.4018 4.65039 8.59912V16.7446Z" fill="black"/>
<path d="M13.2607 14.3484C13.2605 13.6493 12.693 13.0828 11.9941 13.0828C11.2946 13.0828 10.7278 13.6494 10.7275 14.3484C10.7275 15.0476 11.2944 15.6149 11.9941 15.615C12.6932 15.615 13.2607 15.0477 13.2607 14.3484ZM14.7607 14.3484C14.7607 15.8764 13.5213 17.115 11.9941 17.115C10.4666 17.1149 9.22754 15.8766 9.22754 14.3484C9.22779 12.8204 10.4667 11.5828 11.9941 11.5828C13.5212 11.5828 14.7605 12.8205 14.7607 14.3484Z" fill="black"/>
<path d="M11.9935 17.7114C13.1058 17.7114 13.9877 18.001 14.64 18.5015C15.2909 19.001 15.6588 19.6688 15.8129 20.3286C15.9278 20.821 15.728 21.3311 15.3285 21.6128C14.99 21.8514 14.5223 21.7705 14.2836 21.4321C14.0862 21.1523 14.1095 20.7859 14.3138 20.5317C14.2144 20.2177 14.0266 19.9208 13.7269 19.6909C13.385 19.4286 12.8422 19.2114 11.9935 19.2114C11.1576 19.2114 10.6187 19.4264 10.2767 19.687C9.97725 19.9155 9.78797 20.2099 9.68689 20.519C9.88879 20.7747 9.90962 21.1405 9.71033 21.4185C9.46878 21.7549 8.99995 21.8319 8.66346 21.5903C8.26716 21.3058 8.07069 20.7949 8.18982 20.3032L8.25916 20.0581C8.44498 19.487 8.79977 18.927 9.36658 18.4946C10.0161 17.9992 10.8919 17.7114 11.9935 17.7114Z" fill="black"/>
</svg>
