<svg width="24" height="24" viewBox="0 0 24 24" fill="none" xmlns="http://www.w3.org/2000/svg">
<path d="M20.0947 8.91431C20.5088 8.91436 20.8446 9.2502 20.8447 9.66431C20.8447 10.0785 20.5089 10.4142 20.0947 10.4143H3.9043C3.49008 10.4143 3.1543 10.0785 3.1543 9.66431C3.15438 9.25017 3.49014 8.91431 3.9043 8.91431H20.0947Z" fill="black"/>
<path d="M14.8906 5.96191V3C14.8906 2.58584 15.2265 2.25009 15.6406 2.25C16.0548 2.25 16.3906 2.58579 16.3906 3V5.96191C16.3905 6.37605 16.0548 6.71191 15.6406 6.71191C15.2265 6.71183 14.8907 6.37599 14.8906 5.96191Z" fill="black"/>
<path d="M7.61963 5.96191V3C7.61963 2.58584 7.95549 2.25009 8.36963 2.25C8.78384 2.25 9.11963 2.58579 9.11963 3V5.96191C9.11953 6.37605 8.78378 6.71191 8.36963 6.71191C7.95555 6.71183 7.61972 6.37599 7.61963 5.96191Z" fill="black"/>
<path d="M3.15039 16.7446V8.59912C3.15044 7.09106 3.61429 5.83072 4.53906 4.95166C5.45807 4.07816 6.73758 3.67139 8.19434 3.67139H15.8145C17.2744 3.67139 18.554 4.07823 19.4717 4.95264C20.3947 5.83234 20.8544 7.09256 20.8506 8.59912V16.813C20.8506 18.3205 20.3893 19.5829 19.4658 20.4644C18.5477 21.3408 17.2679 21.7495 15.8066 21.7495H8.19434C6.73309 21.7495 5.45232 21.3317 4.53418 20.4419C3.6123 19.5484 3.15039 18.2706 3.15039 16.7446ZM4.65039 16.7446C4.65039 17.9673 5.01402 18.818 5.57812 19.3647C6.14596 19.915 7.01218 20.2495 8.19434 20.2495H15.8066C16.9966 20.2495 17.8638 19.9195 18.4297 19.3794C18.9903 18.8442 19.3506 18.0123 19.3506 16.813V8.59717C19.354 7.39905 18.996 6.57093 18.4375 6.03857C17.8731 5.50064 17.0057 5.17139 15.8145 5.17139H8.19434C7.00759 5.17139 6.13922 5.50062 5.57227 6.03955C5.01134 6.57294 4.65044 7.4018 4.65039 8.59912V16.7446Z" fill="black"/>
<path d="M10.5093 13.7107C10.5093 13.5726 10.3973 13.4607 10.2593 13.4607H8.8833C8.74523 13.4607 8.6333 13.5726 8.6333 13.7107V15.0867C8.6333 15.2247 8.74523 15.3367 8.8833 15.3367H10.2593C10.3973 15.3367 10.5093 15.2247 10.5093 15.0867V13.7107ZM12.0093 15.0867C12.0093 16.0532 11.2258 16.8367 10.2593 16.8367H8.8833C7.9168 16.8367 7.1333 16.0532 7.1333 15.0867V13.7107C7.1333 12.7442 7.9168 11.9607 8.8833 11.9607H10.2593C11.2258 11.9607 12.0093 12.7442 12.0093 13.7107V15.0867Z" fill="black"/>
</svg>
