<svg width="24" height="24" viewBox="0 0 24 24" fill="none" xmlns="http://www.w3.org/2000/svg">
<path d="M20.0249 8.91431C20.4391 8.91431 20.7748 9.25017 20.7749 9.66431C20.7749 10.0785 20.4391 10.4143 20.0249 10.4143H3.98389C3.56967 10.4143 3.23389 10.0785 3.23389 9.66431C3.23397 9.25017 3.56973 8.91431 3.98389 8.91431H20.0249Z" fill="black"/>
<path d="M14.8906 5.96191V3C14.8906 2.58584 15.2265 2.25009 15.6406 2.25C16.0548 2.25 16.3906 2.58579 16.3906 3V5.96191C16.3905 6.37605 16.0548 6.71191 15.6406 6.71191C15.2265 6.71183 14.8907 6.37599 14.8906 5.96191Z" fill="black"/>
<path d="M7.61963 5.96191V3C7.61963 2.58584 7.95549 2.25009 8.36963 2.25C8.78384 2.25 9.11963 2.58579 9.11963 3V5.96191C9.11953 6.37605 8.78378 6.71191 8.36963 6.71191C7.95555 6.71183 7.61972 6.37599 7.61963 5.96191Z" fill="black"/>
<path d="M3.15039 8.59924C3.15044 7.09118 3.61429 5.83084 4.53906 4.95178C5.45807 4.07828 6.73758 3.67151 8.19434 3.67151H15.8145C17.2744 3.67151 18.554 4.07835 19.4717 4.95276C20.3947 5.83246 20.8544 7.09268 20.8506 8.59924V15.9703C20.8505 16.7116 20.5512 17.4216 20.0205 17.9391L16.9131 20.9694C16.3995 21.4701 15.7104 21.7496 14.9932 21.7496H8.19434C6.73309 21.7496 5.45232 21.3318 4.53418 20.442C3.6123 19.5485 3.15039 18.2707 3.15039 16.7448V8.59924ZM4.65039 16.7448C4.65039 17.9674 5.01402 18.8181 5.57812 19.3649C6.14596 19.9151 7.01218 20.2496 8.19434 20.2496H14.9932C15.319 20.2496 15.6319 20.1226 15.8652 19.8951L18.9727 16.8649C19.2139 16.6297 19.3505 16.3072 19.3506 15.9703V8.59729C19.354 7.39918 18.996 6.57105 18.4375 6.0387C17.8731 5.50076 17.0057 5.17151 15.8145 5.17151H8.19434C7.00759 5.17151 6.13922 5.50074 5.57227 6.03967C5.01134 6.57307 4.65044 7.40192 4.65039 8.59924V16.7448Z" fill="black"/>
<path d="M14.0586 20.9998V18.3406C14.0586 17.3019 14.3799 16.4043 15.0469 15.7703C15.708 15.1418 16.6142 14.8621 17.6123 14.8621H20.1006C20.5148 14.8621 20.8506 15.1978 20.8506 15.6121C20.8506 16.0263 20.5148 16.3621 20.1006 16.3621H17.6123C16.8844 16.3621 16.3892 16.5634 16.0801 16.8572C15.7767 17.1455 15.5586 17.6123 15.5586 18.3406V20.9998C15.5586 21.414 15.2228 21.7498 14.8086 21.7498C14.3944 21.7498 14.0586 21.414 14.0586 20.9998Z" fill="black"/>
</svg>
