<svg width="24" height="24" viewBox="0 0 24 24" fill="none" xmlns="http://www.w3.org/2000/svg">
<path d="M20.0244 16.6128C20.4386 16.6128 20.7743 16.9487 20.7744 17.3628C20.7744 17.777 20.4386 18.1128 20.0244 18.1128H3.9834C3.56918 18.1128 3.2334 17.777 3.2334 17.3628C3.23348 16.9487 3.56924 16.6128 3.9834 16.6128H20.0244Z" fill="black"/>
<path d="M14.8848 13.7456V11.2456C14.8848 10.8314 15.2206 10.4957 15.6348 10.4956C16.049 10.4956 16.3848 10.8314 16.3848 11.2456V13.7456C16.3848 14.1598 16.049 14.4956 15.6348 14.4956C15.2206 14.4955 14.8848 14.1598 14.8848 13.7456Z" fill="black"/>
<path d="M7.61377 13.7456V11.2456C7.61377 10.8314 7.94961 10.4957 8.36377 10.4956C8.77798 10.4956 9.11377 10.8314 9.11377 11.2456V13.7456C9.11377 14.1598 8.77798 14.4956 8.36377 14.4956C7.94961 14.4955 7.61377 14.1598 7.61377 13.7456Z" fill="black"/>
<path d="M3.14941 16.8447C3.14946 15.3367 3.61331 14.0763 4.53809 13.1973C5.4571 12.3238 6.7366 11.917 8.19336 11.917H15.8135C17.2734 11.917 18.5531 12.3238 19.4707 13.1982C20.3937 14.0779 20.8535 15.3382 20.8496 16.8447V21.0381C20.8497 21.4523 20.5138 21.789 20.0996 21.7891C19.6857 21.7889 19.3498 21.453 19.3496 21.0391V16.8428C19.3531 15.6447 18.995 14.8165 18.4365 14.2842C17.8721 13.7462 17.0048 13.417 15.8135 13.417H8.19336C7.00661 13.417 6.13825 13.7462 5.57129 14.2852C5.01036 14.8186 4.64946 15.6474 4.64941 16.8447V21.0381C4.64946 21.4522 4.31442 21.7888 3.90039 21.7891C3.48629 21.7891 3.15062 21.4531 3.15039 21.0391L3.14941 16.8447Z" fill="black"/>
<path d="M8.36914 19.6501C8.78335 19.6501 9.11914 19.9859 9.11914 20.4001C9.11914 20.8144 8.78335 21.1501 8.36914 21.1501H8.35938C7.94516 21.1501 7.60938 20.8144 7.60938 20.4001C7.60938 19.9859 7.94516 19.6501 8.35938 19.6501H8.36914Z" fill="black"/>
<path d="M12.0044 19.6501C12.4186 19.6501 12.7544 19.9859 12.7544 20.4001C12.7544 20.8144 12.4186 21.1501 12.0044 21.1501H11.9946C11.5804 21.1501 11.2446 20.8144 11.2446 20.4001C11.2446 19.9859 11.5804 19.6501 11.9946 19.6501H12.0044Z" fill="black"/>
<path d="M15.6396 19.6501C16.0539 19.6501 16.3896 19.9859 16.3896 20.4001C16.3896 20.8144 16.0539 21.1501 15.6396 21.1501H15.6299C15.2157 21.1501 14.8799 20.8144 14.8799 20.4001C14.8799 19.9859 15.2157 19.6501 15.6299 19.6501H15.6396Z" fill="black"/>
<path d="M5.13379 6.57861C5.13355 6.3271 4.92928 6.12364 4.67773 6.12354H4.3418C3.26166 6.12354 2.38584 5.2476 2.38574 4.16748C2.38574 3.08728 3.2616 2.21143 4.3418 2.21143H5.44336C5.85757 2.21143 6.19336 2.54721 6.19336 2.96143C6.19336 3.37564 5.85757 3.71143 5.44336 3.71143H4.3418C4.09002 3.71143 3.88574 3.91571 3.88574 4.16748C3.88584 4.41917 4.09008 4.62354 4.3418 4.62354H4.67773C5.7577 4.62364 6.63355 5.49868 6.63379 6.57861C6.63379 7.65875 5.75785 8.53457 4.67773 8.53467H3.44531C3.03124 8.5345 2.69531 8.19878 2.69531 7.78467C2.69546 7.37069 3.03133 7.03484 3.44531 7.03467H4.67773C4.92942 7.03457 5.13379 6.83033 5.13379 6.57861Z" fill="black"/>
<path d="M15.0469 4.18506C15.0468 4.02589 14.9889 3.92934 14.9082 3.86084C14.8159 3.78251 14.6535 3.71146 14.4229 3.71143C14.1921 3.71143 14.0288 3.78246 13.9365 3.86084C13.856 3.92933 13.7989 4.02608 13.7988 4.18506V6.53271C13.7989 6.69456 13.8588 6.80254 13.9463 6.87939C14.0423 6.96365 14.2034 7.03467 14.4229 7.03467C14.6422 7.03463 14.8035 6.96363 14.8994 6.87939C14.9868 6.80255 15.0468 6.69444 15.0469 6.53271V4.18506ZM16.5469 6.53271C16.5467 7.79405 15.5011 8.53459 14.4229 8.53467C13.3446 8.53467 12.299 7.79412 12.2988 6.53271V4.18506C12.2989 3.58591 12.5494 3.07098 12.9658 2.71729C13.3708 2.37337 13.8949 2.21143 14.4229 2.21143C14.9507 2.21146 15.475 2.37336 15.8799 2.71729C16.2962 3.07098 16.5468 3.58597 16.5469 4.18506V6.53271Z" fill="black"/>
<path d="M9.97998 4.18506C9.97988 4.02589 9.92196 3.92934 9.84131 3.86084C9.74904 3.78251 9.58659 3.71146 9.35596 3.71143C9.12516 3.71143 8.9619 3.78246 8.86963 3.86084C8.78912 3.92933 8.73204 4.02608 8.73193 4.18506V6.53271C8.73202 6.69456 8.79187 6.80254 8.87939 6.87939C8.97536 6.96365 9.13652 7.03467 9.35596 7.03467C9.57532 7.03463 9.73658 6.96363 9.83252 6.87939C9.91994 6.80255 9.97989 6.69444 9.97998 6.53271V4.18506ZM11.48 6.53271C11.4798 7.79405 10.4342 8.53459 9.35596 8.53467C8.27769 8.53467 7.23213 7.79412 7.23193 6.53271V4.18506C7.23205 3.58591 7.48252 3.07098 7.89893 2.71729C8.30387 2.37337 8.82804 2.21143 9.35596 2.21143C9.88385 2.21146 10.4081 2.37336 10.813 2.71729C11.2293 3.07098 11.4799 3.58597 11.48 4.18506V6.53271Z" fill="black"/>
<path d="M17.3662 7.78467V2.96143C17.3662 2.62132 17.5951 2.32408 17.9238 2.23682C18.2527 2.1497 18.5991 2.29469 18.7676 2.59033L20.1143 4.95361V2.96143C20.1143 2.54721 20.45 2.21143 20.8643 2.21143C21.2784 2.21155 21.6143 2.54729 21.6143 2.96143V7.78467C21.6143 8.12493 21.3846 8.42314 21.0557 8.51025C20.7269 8.59713 20.3803 8.45128 20.2119 8.15576L18.8662 5.79248V7.78467C18.8662 8.19888 18.5304 8.53467 18.1162 8.53467C17.702 8.53467 17.3662 8.19888 17.3662 7.78467Z" fill="black"/>
</svg>
