<svg width="24" height="24" viewBox="0 0 24 24" fill="none" xmlns="http://www.w3.org/2000/svg">
<path d="M18.9287 17.1155C19.3428 17.1156 19.6787 17.4514 19.6787 17.8655C19.6787 18.2796 19.3428 18.6153 18.9287 18.6155H5.08008C4.66586 18.6155 4.33008 18.2797 4.33008 17.8655C4.33011 17.4513 4.66588 17.1155 5.08008 17.1155H18.9287Z" fill="black"/>
<path d="M14.3882 14.7427V12.5845C14.3882 12.1704 14.7242 11.8347 15.1382 11.8345C15.5524 11.8345 15.8882 12.1703 15.8882 12.5845V14.7427C15.8882 15.1569 15.5524 15.4927 15.1382 15.4927C14.7242 15.4925 14.3882 15.1568 14.3882 14.7427Z" fill="black"/>
<path d="M8.11084 14.7427V12.5845C8.11084 12.1704 8.44681 11.8347 8.86084 11.8345C9.27505 11.8345 9.61084 12.1703 9.61084 12.5845V14.7427C9.61084 15.1569 9.27505 15.4927 8.86084 15.4927C8.44681 15.4925 8.11084 15.1568 8.11084 14.7427Z" fill="black"/>
<path d="M4.25732 17.418C4.25739 16.095 4.66473 14.9778 5.48779 14.1953C6.30523 13.4183 7.43824 13.0615 8.71436 13.0615H15.2925C16.5713 13.0615 17.7047 13.4183 18.521 14.1963C19.3425 14.9794 19.746 16.0965 19.7427 17.418V21.0381C19.7427 21.4523 19.4069 21.789 18.9927 21.7891C18.5788 21.7889 18.2429 21.453 18.2427 21.0391V17.416C18.2456 16.4029 17.943 15.718 17.4858 15.2822C17.0227 14.8408 16.3025 14.5615 15.2925 14.5615H8.71436C7.70857 14.5615 6.98736 14.84 6.52197 15.2822C6.06244 15.719 5.75739 16.4054 5.75732 17.418V21.0381C5.75737 21.4521 5.4223 21.7888 5.0083 21.7891C4.5942 21.7891 4.25755 21.4531 4.25732 21.0391V17.418Z" fill="black"/>
<path d="M8.86621 19.7373C9.28042 19.7373 9.61621 20.0731 9.61621 20.4873C9.61621 20.9015 9.28042 21.2373 8.86621 21.2373H8.85742C8.44321 21.2373 8.10742 20.9015 8.10742 20.4873C8.10742 20.0731 8.44321 19.7373 8.85742 19.7373H8.86621Z" fill="black"/>
<path d="M12.0044 19.7373C12.4186 19.7373 12.7544 20.0731 12.7544 20.4873C12.7544 20.9015 12.4186 21.2373 12.0044 21.2373H11.9956C11.5814 21.2373 11.2456 20.9015 11.2456 20.4873C11.2456 20.0731 11.5814 19.7373 11.9956 19.7373H12.0044Z" fill="black"/>
<path d="M15.1431 19.7373C15.5573 19.7373 15.8931 20.0731 15.8931 20.4873C15.8931 20.9015 15.5573 21.2373 15.1431 21.2373H15.1343C14.7201 21.2373 14.3843 20.9015 14.3843 20.4873C14.3843 20.0731 14.7201 19.7373 15.1343 19.7373H15.1431Z" fill="black"/>
<path d="M15.2798 6.99097C15.2798 5.1797 13.8118 3.71167 12.0005 3.71167C10.1892 3.71169 8.72121 5.17971 8.72119 6.99097C8.72119 8.80223 10.1892 10.2702 12.0005 10.2703C13.8118 10.2703 15.2798 8.80224 15.2798 6.99097ZM16.7798 6.99097C16.7798 9.63067 14.6402 11.7703 12.0005 11.7703C9.36079 11.7702 7.22119 9.63066 7.22119 6.99097C7.22121 4.35128 9.3608 2.21169 12.0005 2.21167C14.6402 2.21167 16.7798 4.35127 16.7798 6.99097Z" fill="black"/>
<path d="M12.585 6.99072C12.585 5.93579 12.4426 5.01181 12.2324 4.37744C12.1533 4.13854 12.0719 3.96347 12 3.84424C11.9281 3.96347 11.8467 4.13862 11.7676 4.37744C11.5574 5.01181 11.415 5.93584 11.415 6.99072C11.415 8.04559 11.5574 8.96963 11.7676 9.604C11.8465 9.84232 11.9282 10.017 12 10.1362C12.0718 10.017 12.1534 9.8424 12.2324 9.604C12.4426 8.96963 12.585 8.04563 12.585 6.99072ZM14.085 6.99072C14.085 8.16116 13.9292 9.25179 13.6562 10.0757C13.5211 10.4835 13.3436 10.8677 13.1104 11.1655C12.884 11.4544 12.5146 11.77 12 11.77C11.4855 11.77 11.116 11.4544 10.8896 11.1655C10.6565 10.8678 10.4789 10.4835 10.3438 10.0757C10.0708 9.2518 9.91504 8.16112 9.91504 6.99072C9.91504 5.82031 10.0708 4.72964 10.3438 3.90576C10.4789 3.49798 10.6565 3.11369 10.8896 2.81592C11.116 2.52704 11.4855 2.21149 12 2.21143C12.5146 2.21143 12.884 2.52701 13.1104 2.81592C13.3436 3.11371 13.5211 3.49791 13.6562 3.90576C13.9292 4.72965 14.085 5.82027 14.085 6.99072Z" fill="black"/>
<path d="M16.0288 6.23999C16.443 6.23999 16.7788 6.57578 16.7788 6.98999C16.7788 7.4042 16.443 7.73999 16.0288 7.73999H7.97021C7.556 7.73999 7.22021 7.4042 7.22021 6.98999C7.22021 6.57578 7.556 6.23999 7.97021 6.23999H16.0288Z" fill="black"/>
</svg>
