<svg width="24" height="24" viewBox="0 0 24 24" fill="none" xmlns="http://www.w3.org/2000/svg">
<path d="M3.24365 7.61353V13.5383C3.24365 13.9525 3.57944 14.2883 3.99365 14.2883C4.40787 14.2883 4.74365 13.9525 4.74365 13.5383V7.61353C4.74365 6.76573 4.99455 6.2052 5.35596 5.85474C5.72122 5.50072 6.2949 5.26787 7.1167 5.26782H16.8833C17.7119 5.26787 18.2863 5.4979 18.6499 5.84497C19.0082 6.18703 19.2563 6.73332 19.2563 7.56372V13.5383C19.2563 13.9525 19.5921 14.2883 20.0063 14.2883C20.4205 14.2883 20.7563 13.9525 20.7563 13.5383V7.56372C20.7563 6.42526 20.4071 5.44842 19.686 4.76001C18.9703 4.07672 17.9831 3.76788 16.8833 3.76782H7.1167C6.01578 3.76787 5.02757 4.08405 4.31201 4.77759C3.59286 5.47478 3.24365 6.46231 3.24365 7.61353Z" fill="black"/>
<path d="M3.24365 12.0361V17.9609C3.24365 19.1003 3.59559 20.0751 4.31787 20.7617C5.0343 21.4427 6.02028 21.75 7.1167 21.75H16.8892C17.9875 21.7499 18.9744 21.4435 19.6899 20.7617C20.411 20.0745 20.7592 19.0988 20.7563 17.9609V11.9863C20.7563 10.8479 20.4071 9.87103 19.686 9.18262C18.9703 8.49933 17.9831 8.19048 16.8833 8.19043H7.1167C6.01578 8.19048 5.02757 8.50666 4.31201 9.2002C3.59286 9.89738 3.24365 10.8849 3.24365 12.0361ZM4.74365 12.0361C4.74365 11.1883 4.99455 10.6278 5.35596 10.2773C5.72122 9.92333 6.2949 9.69048 7.1167 9.69043H16.8833C17.7119 9.69048 18.2863 9.9205 18.6499 10.2676C19.0082 10.6096 19.2563 11.1559 19.2563 11.9863V17.9629C19.2587 18.7922 19.0123 19.3359 18.6558 19.6758C18.2934 20.0211 17.7188 20.2499 16.8892 20.25H7.1167C6.2904 20.25 5.71546 20.0212 5.35107 19.6748C4.99245 19.3339 4.74365 18.7898 4.74365 17.9609V12.0361Z" fill="black"/>
<path d="M7.30566 14.0247V15.9436C7.30567 16.5836 7.50517 17.173 7.95312 17.5989C8.39539 18.0193 8.98604 18.1907 9.59473 18.1907H14.4082C15.0176 18.1906 15.6087 18.0202 16.0508 17.5989C16.4983 17.1724 16.6947 16.5823 16.6934 15.9436V14.0002C16.6934 13.3613 16.496 12.771 16.0488 12.344C15.6068 11.9221 15.0159 11.7503 14.4053 11.7502H9.59473C8.98154 11.7502 8.38866 11.9269 7.94727 12.3547C7.50243 12.7861 7.30566 13.3807 7.30566 14.0247ZM8.80566 14.0247C8.80566 13.6839 8.90483 13.5165 8.99219 13.4319C9.08329 13.3436 9.26071 13.2502 9.59473 13.2502H14.4053C14.7446 13.2503 14.9229 13.3433 15.0127 13.429C15.0972 13.5096 15.1934 13.6694 15.1934 14.0002V15.9456C15.1943 16.2757 15.0987 16.4338 15.0156 16.5129C14.9267 16.5976 14.7485 16.6906 14.4082 16.6907H9.59473C9.25612 16.6907 9.07654 16.5977 8.98633 16.512C8.90196 16.4317 8.80567 16.2729 8.80566 15.9436V14.0247Z" fill="black"/>
<path d="M8.14697 5.8291L8.14697 3C8.14697 2.58579 8.48276 2.25 8.89697 2.25C9.31119 2.25 9.64697 2.58579 9.64697 3L9.64697 5.8291C9.64697 6.24332 9.31119 6.5791 8.89697 6.5791C8.48276 6.5791 8.14697 6.24332 8.14697 5.8291Z" fill="black"/>
<path d="M14.3535 5.8291L14.3535 3C14.3535 2.58579 14.6893 2.25 15.1035 2.25C15.5177 2.25 15.8535 2.58579 15.8535 3L15.8535 5.8291C15.8535 6.24332 15.5177 6.5791 15.1035 6.5791C14.6893 6.5791 14.3535 6.24332 14.3535 5.8291Z" fill="black"/>
</svg>
