<svg width="24" height="24" viewBox="0 0 24 24" fill="none" xmlns="http://www.w3.org/2000/svg">
<path d="M20.0249 8.91431C20.4391 8.91431 20.7748 9.25017 20.7749 9.66431C20.7749 10.0785 20.4391 10.4143 20.0249 10.4143H3.98389C3.56967 10.4143 3.23389 10.0785 3.23389 9.66431C3.23397 9.25017 3.56973 8.91431 3.98389 8.91431H20.0249Z" fill="black"/>
<path d="M14.8906 5.96191V3C14.8906 2.58584 15.2265 2.25009 15.6406 2.25C16.0548 2.25 16.3906 2.58579 16.3906 3V5.96191C16.3905 6.37605 16.0548 6.71191 15.6406 6.71191C15.2265 6.71183 14.8907 6.37599 14.8906 5.96191Z" fill="black"/>
<path d="M7.61963 5.96191V3C7.61963 2.58584 7.95549 2.25009 8.36963 2.25C8.78384 2.25 9.11963 2.58579 9.11963 3V5.96191C9.11953 6.37605 8.78378 6.71191 8.36963 6.71191C7.95555 6.71183 7.61972 6.37599 7.61963 5.96191Z" fill="black"/>
<path d="M3.15039 16.7448V8.59924C3.15044 7.09118 3.61429 5.83084 4.53906 4.95178C5.45807 4.07828 6.73758 3.67151 8.19434 3.67151H15.8145C17.2744 3.67151 18.554 4.07835 19.4717 4.95276C20.3947 5.83246 20.8544 7.09268 20.8506 8.59924V16.8131C20.8506 18.3206 20.3893 19.583 19.4658 20.4645C18.5477 21.3409 17.2679 21.7496 15.8066 21.7496H8.19434C6.73309 21.7496 5.45232 21.3318 4.53418 20.442C3.6123 19.5485 3.15039 18.2707 3.15039 16.7448ZM4.65039 16.7448C4.65039 17.9674 5.01402 18.8181 5.57812 19.3649C6.14596 19.9151 7.01218 20.2496 8.19434 20.2496H15.8066C16.9966 20.2496 17.8638 19.9196 18.4297 19.3795C18.9903 18.8444 19.3506 18.0124 19.3506 16.8131V8.59729C19.354 7.39918 18.996 6.57105 18.4375 6.0387C17.8731 5.50076 17.0057 5.17151 15.8145 5.17151H8.19434C7.00759 5.17151 6.13922 5.50074 5.57227 6.03967C5.01134 6.57307 4.65044 7.40192 4.65039 8.59924V16.7448Z" fill="black"/>
<path d="M14.0688 15.1492C14.0686 14.0072 13.143 13.0809 12.0005 13.0808C10.8587 13.0808 9.93239 14.007 9.93213 15.1492C9.93213 16.2914 10.8583 17.2175 12.0005 17.2175C13.1434 17.2174 14.0688 16.2912 14.0688 15.1492ZM15.5688 15.1492C15.5688 17.1198 13.9716 18.7174 12.0005 18.7175C10.0299 18.7175 8.43213 17.1198 8.43213 15.1492C8.43239 13.179 10.0298 11.5808 12.0005 11.5808C13.9717 11.5809 15.5686 13.179 15.5688 15.1492Z" fill="black"/>
<path d="M9.5141 12.6633C9.80699 12.3704 10.2817 12.3704 10.5746 12.6633L14.4868 16.5744C14.7795 16.8672 14.7792 17.342 14.4868 17.6349C14.1939 17.9278 13.7191 17.9278 13.4262 17.6349L9.5141 13.7238C9.22121 13.4309 9.22121 12.9562 9.5141 12.6633Z" fill="black"/>
</svg>
