<svg width="24" height="24" viewBox="0 0 24 24" fill="none" xmlns="http://www.w3.org/2000/svg">
<path d="M8.74577 17.6652V13.8664L8.38835 14.0597C8.02385 14.2565 7.56851 14.1205 7.37175 13.756C7.17519 13.3917 7.31128 12.9372 7.67546 12.7404L9.1403 11.9494C9.37262 11.8242 9.65387 11.8298 9.88054 11.965C10.1074 12.1003 10.2458 12.3454 10.2458 12.6095V17.6652C10.2458 18.0794 9.90999 18.4152 9.49577 18.4152C9.0817 18.415 8.74577 18.0793 8.74577 17.6652Z" fill="black"/>
<path d="M15.2178 13.9648C15.2177 13.6309 14.9463 13.3594 14.6123 13.3594C14.3496 13.3595 14.123 13.5281 14.04 13.7656C13.9034 14.1565 13.4759 14.3631 13.085 14.2266C12.6939 14.0899 12.4874 13.6615 12.624 13.2705C12.9107 12.4503 13.6918 11.8595 14.6123 11.8594C15.7747 11.8594 16.7177 12.8025 16.7178 13.9648C16.7178 14.6222 16.4435 15.116 16.0908 15.4902C15.7676 15.8332 15.3454 16.1063 15.0361 16.3174C14.7115 16.539 14.4681 16.7246 14.2988 16.915H15.9678C16.382 16.915 16.7177 17.2509 16.7178 17.665C16.7178 18.0793 16.382 18.415 15.9678 18.415H13.2578C12.8436 18.415 12.5078 18.0793 12.5078 17.665C12.5079 16.2303 13.5328 15.528 14.1904 15.0791C14.5586 14.8278 14.8142 14.658 14.999 14.4619C15.1545 14.297 15.2178 14.1545 15.2178 13.9648Z" fill="black"/>
<path d="M3.24365 7.61353V13.5383C3.24365 13.9525 3.57944 14.2883 3.99365 14.2883C4.40787 14.2883 4.74365 13.9525 4.74365 13.5383V7.61353C4.74365 6.76573 4.99455 6.2052 5.35596 5.85474C5.72122 5.50072 6.2949 5.26787 7.1167 5.26782H16.8833C17.7119 5.26787 18.2863 5.4979 18.6499 5.84497C19.0082 6.18703 19.2563 6.73332 19.2563 7.56372V13.5383C19.2563 13.9525 19.5921 14.2883 20.0063 14.2883C20.4205 14.2883 20.7563 13.9525 20.7563 13.5383V7.56372C20.7563 6.42526 20.4071 5.44842 19.686 4.76001C18.9703 4.07672 17.9831 3.76788 16.8833 3.76782H7.1167C6.01578 3.76787 5.02757 4.08405 4.31201 4.77759C3.59286 5.47478 3.24365 6.46231 3.24365 7.61353Z" fill="black"/>
<path d="M3.24365 12.0361V17.9609C3.24365 19.1003 3.59559 20.0751 4.31787 20.7617C5.0343 21.4427 6.02028 21.75 7.1167 21.75H16.8892C17.9875 21.7499 18.9744 21.4435 19.6899 20.7617C20.411 20.0745 20.7592 19.0988 20.7563 17.9609V11.9863C20.7563 10.8479 20.4071 9.87103 19.686 9.18262C18.9703 8.49933 17.9831 8.19048 16.8833 8.19043H7.1167C6.01578 8.19048 5.02757 8.50666 4.31201 9.2002C3.59286 9.89738 3.24365 10.8849 3.24365 12.0361ZM4.74365 12.0361C4.74365 11.1883 4.99455 10.6278 5.35596 10.2773C5.72122 9.92333 6.2949 9.69048 7.1167 9.69043H16.8833C17.7119 9.69048 18.2863 9.9205 18.6499 10.2676C19.0082 10.6096 19.2563 11.1559 19.2563 11.9863V17.9629C19.2587 18.7922 19.0123 19.3359 18.6558 19.6758C18.2934 20.0211 17.7188 20.2499 16.8892 20.25H7.1167C6.2904 20.25 5.71546 20.0212 5.35107 19.6748C4.99245 19.3339 4.74365 18.7898 4.74365 17.9609V12.0361Z" fill="black"/>
<path d="M8.14697 5.8291L8.14697 3C8.14697 2.58579 8.48276 2.25 8.89697 2.25C9.31119 2.25 9.64697 2.58579 9.64697 3L9.64697 5.8291C9.64697 6.24332 9.31119 6.5791 8.89697 6.5791C8.48276 6.5791 8.14697 6.24332 8.14697 5.8291Z" fill="black"/>
<path d="M14.3535 5.8291L14.3535 3C14.3535 2.58579 14.6893 2.25 15.1035 2.25C15.5177 2.25 15.8535 2.58579 15.8535 3L15.8535 5.8291C15.8535 6.24332 15.5177 6.5791 15.1035 6.5791C14.6893 6.5791 14.3535 6.24332 14.3535 5.8291Z" fill="black"/>
</svg>
