<svg width="24" height="24" viewBox="0 0 24 24" fill="none" xmlns="http://www.w3.org/2000/svg">
<path d="M17.3367 4.54492C18.7605 4.54492 19.9332 5.62033 20.1492 7.02441L20.5408 9.56738C20.6037 9.97662 20.3229 10.3597 19.9138 10.4229C19.5044 10.4858 19.1213 10.2052 19.0583 9.7959L18.6667 7.25195C18.556 6.53202 17.973 6.04492 17.3367 6.04492H7.21654C6.42256 6.04521 5.74681 6.80434 5.88744 7.71875L7.45189 17.8945C7.56276 18.6143 8.14578 19.1016 8.78197 19.1016H11.3122C11.7263 19.1017 12.0622 19.4375 12.0622 19.8516C12.062 20.2655 11.7262 20.6014 11.3122 20.6016H8.78197C7.35809 20.6016 6.18541 19.5262 5.96947 18.1221L4.40502 7.94629C4.13636 6.19872 5.42866 4.5452 7.21654 4.54492H17.3367Z" fill="black"/>
<path d="M10.2 4.54492C10.6142 4.54492 10.95 4.88071 10.95 5.29492C10.95 5.70914 10.6142 6.04492 10.2 6.04492H6.66286C6.02655 6.04492 5.4435 6.53202 5.33278 7.25195L3.76833 17.4277C3.6278 18.3421 4.3035 19.1013 5.09743 19.1016H8.36208C8.77628 19.1016 9.11208 19.4374 9.11208 19.8516C9.11184 20.2656 8.77613 20.6015 8.36208 20.6016H5.09743C3.30948 20.6013 2.01713 18.9469 2.28591 17.1992L3.85036 7.02441C4.0663 5.62033 5.23898 4.54492 6.66286 4.54492H10.2Z" fill="black"/>
<path d="M9.20898 11.3608C9.6232 11.3608 9.95898 11.6966 9.95898 12.1108C9.95898 12.5251 9.6232 12.8608 9.20898 12.8608H9.19922C8.78501 12.8608 8.44922 12.5251 8.44922 12.1108C8.44922 11.6966 8.78501 11.3608 9.19922 11.3608H9.20898Z" fill="black"/>
<path d="M12.6172 11.3608C13.0314 11.3608 13.3672 11.6966 13.3672 12.1108C13.3672 12.5251 13.0314 12.8608 12.6172 12.8608H12.6074C12.1932 12.8608 11.8574 12.5251 11.8574 12.1108C11.8574 11.6966 12.1932 11.3608 12.6074 11.3608H12.6172Z" fill="black"/>
<path d="M10.1382 14.8164C10.5524 14.8164 10.8882 15.1522 10.8882 15.5664C10.8882 15.9806 10.5524 16.3164 10.1382 16.3164H10.1284C9.7142 16.3164 9.37842 15.9806 9.37842 15.5664C9.37842 15.1522 9.7142 14.8164 10.1284 14.8164H10.1382Z" fill="black"/>
<path d="M10.0208 5.19821C10.0208 5.65663 9.91163 6.0347 9.77473 6.27243C9.66574 6.46169 9.58735 6.49422 9.57551 6.49802C9.55861 6.49809 9.5425 6.49779 9.52766 6.49802C9.25584 6.25073 8.8374 6.23355 8.54622 6.47458C8.22732 6.73892 8.18324 7.21232 8.44758 7.53122L8.58137 7.67478C8.72491 7.80983 8.89875 7.91649 9.1175 7.96677C9.24012 7.99494 9.34963 7.99863 9.42024 7.99899C9.4557 7.99917 9.49118 7.9985 9.51692 7.99802C9.54534 7.99748 9.5681 7.99704 9.59114 7.99704C10.2991 7.99687 10.797 7.50504 11.0755 7.02146C11.3656 6.51769 11.5208 5.87124 11.5208 5.19821C11.5208 4.52525 11.3655 3.87875 11.0755 3.37497C10.797 2.89137 10.2992 2.39858 9.59114 2.39841C9.41254 2.39841 9.11157 2.40221 8.81575 2.55368C8.50059 2.71512 8.30216 2.98137 8.15754 3.25974C7.96695 3.62721 8.11047 4.07958 8.47786 4.27048C8.84542 4.46144 9.29861 4.31871 9.48958 3.95114C9.5006 3.92993 9.51175 3.91386 9.51985 3.90036C9.53588 3.89982 9.55444 3.89948 9.57649 3.89938C9.59212 3.90498 9.66938 3.94018 9.77473 4.12302C9.91165 4.3608 10.0208 4.73966 10.0208 5.19821Z" fill="black"/>
<path d="M15.9295 5.19821C15.9295 5.65663 15.8203 6.0347 15.6834 6.27243C15.5744 6.46169 15.496 6.49422 15.4842 6.49802C15.4673 6.49809 15.4512 6.49779 15.4364 6.49802C15.1645 6.25073 14.7461 6.23355 14.4549 6.47458C14.136 6.73892 14.0919 7.21232 14.3563 7.53122L14.4901 7.67478C14.6336 7.80983 14.8074 7.91649 15.0262 7.96677C15.1488 7.99494 15.2583 7.99863 15.3289 7.99899C15.3644 7.99917 15.3999 7.9985 15.4256 7.99802C15.454 7.99748 15.4768 7.99704 15.4998 7.99704C16.2078 7.99687 16.7057 7.50504 16.9842 7.02146C17.2743 6.51769 17.4295 5.87124 17.4295 5.19821C17.4295 4.52525 17.2742 3.87875 16.9842 3.37497C16.7057 2.89137 16.2078 2.39858 15.4998 2.39841C15.3212 2.39841 15.0203 2.40221 14.7244 2.55368C14.4093 2.71512 14.2109 2.98137 14.0662 3.25974C13.8756 3.62721 14.0192 4.07958 14.3865 4.27048C14.7541 4.46144 15.2073 4.31871 15.3983 3.95114C15.4093 3.92993 15.4204 3.91386 15.4285 3.90036C15.4446 3.89982 15.4631 3.89948 15.4852 3.89938C15.5008 3.90498 15.5781 3.94018 15.6834 4.12302C15.8203 4.3608 15.9295 4.73966 15.9295 5.19821Z" fill="black"/>
<path d="M18.6519 20.1013C19.0659 20.1015 19.4019 20.4372 19.4019 20.8513C19.4019 21.2654 19.0659 21.6011 18.6519 21.6013H16.6509C16.2367 21.6013 15.9009 21.2655 15.9009 20.8513C15.9009 20.4371 16.2367 20.1013 16.6509 20.1013H18.6519Z" fill="black"/>
<path d="M19.6455 14.7205C19.6455 13.9357 18.887 12.9324 17.6514 12.9324C16.4159 12.9324 15.6572 13.9357 15.6572 14.7205C15.6572 15.1638 15.6025 15.5199 15.5068 15.8279C15.4115 16.1349 15.2838 16.3646 15.1836 16.5388C15.0786 16.7215 15.0236 16.8131 14.9805 16.9304C14.945 17.027 14.9141 17.1578 14.9111 17.3669C14.925 17.4882 14.9552 17.5526 14.9766 17.5857C14.9989 17.6203 15.0322 17.6541 15.0938 17.6873C15.2415 17.7666 15.4985 17.8162 15.8877 17.8162H19.418C19.8077 17.8161 20.0634 17.7662 20.21 17.6873C20.2709 17.6544 20.304 17.6212 20.3262 17.5867C20.3475 17.5535 20.3768 17.4888 20.3906 17.3669C20.3876 17.1577 20.3577 17.027 20.3223 16.9304C20.2792 16.8132 20.2241 16.7213 20.1191 16.5388C20.019 16.3646 19.8913 16.1349 19.7959 15.8279C19.7002 15.5199 19.6455 15.1638 19.6455 14.7205ZM21.1455 14.7205C21.1455 15.0363 21.1841 15.2396 21.2285 15.3826C21.2733 15.5266 21.3323 15.6401 21.4189 15.7908C21.5007 15.9329 21.6325 16.149 21.7295 16.4128C21.8323 16.6925 21.8926 17.008 21.8926 17.3992C21.8926 17.42 21.8914 17.4409 21.8896 17.4617C21.8287 18.1903 21.4693 18.7124 20.9219 19.0076C20.4376 19.2686 19.8722 19.3161 19.418 19.3162H15.8877C15.4337 19.3162 14.8676 19.2684 14.3828 19.0076C13.8354 18.713 13.4744 18.1914 13.4131 17.4617C13.4114 17.4409 13.4102 17.42 13.4102 17.3992C13.4102 17.0081 13.4704 16.6924 13.5732 16.4128C13.6702 16.1491 13.8021 15.9329 13.8838 15.7908C13.9702 15.6404 14.0295 15.5273 14.0742 15.3835C14.1187 15.2404 14.1572 15.0364 14.1572 14.7205C14.1572 13.1298 15.565 11.4324 17.6514 11.4324C19.7378 11.4324 21.1455 13.1298 21.1455 14.7205Z" fill="black"/>
</svg>
