<svg width="24" height="24" viewBox="0 0 24 24" fill="none" xmlns="http://www.w3.org/2000/svg">
<path d="M17.3367 4.99707C18.7605 4.99707 19.9332 6.07248 20.1492 7.47656L21.7146 17.6514C21.9834 19.3991 20.6902 21.0536 18.9021 21.0537H8.78197C7.35809 21.0537 6.18541 19.9783 5.96947 18.5742L4.40502 8.39844C4.13636 6.65087 5.42866 4.99734 7.21654 4.99707H17.3367ZM7.21654 6.49707C6.42256 6.49735 5.74681 7.25649 5.88744 8.1709L7.45189 18.3467C7.56276 19.0664 8.14578 19.5537 8.78197 19.5537H18.9021C19.6961 19.5536 20.3727 18.7943 20.2322 17.8799L18.6667 7.7041C18.556 6.98417 17.973 6.49707 17.3367 6.49707H7.21654Z" fill="black"/>
<path d="M10.2005 4.99707C10.6147 4.99707 10.9505 5.33286 10.9505 5.74707C10.9505 6.16128 10.6147 6.49707 10.2005 6.49707H6.66335C6.02704 6.49707 5.44399 6.98417 5.33327 7.7041L3.76882 17.8799C3.62829 18.7942 4.30398 19.5534 5.09792 19.5537H8.36257C8.77677 19.5537 9.11257 19.8895 9.11257 20.3037C9.11233 20.7177 8.77662 21.0537 8.36257 21.0537H5.09792C3.30997 21.0534 2.01762 19.399 2.28639 17.6514L3.85085 7.47656C4.06679 6.07248 5.23947 4.99707 6.66335 4.99707H10.2005Z" fill="black"/>
<path d="M10.0208 5.65012C10.0208 6.10854 9.91163 6.4866 9.77473 6.72434C9.66574 6.91359 9.58735 6.94613 9.57551 6.94992C9.55861 6.95 9.5425 6.9497 9.52766 6.94992C9.25584 6.70263 8.8374 6.68546 8.54622 6.92648C8.22732 7.19083 8.18324 7.66423 8.44758 7.98313L8.58137 8.12668C8.72491 8.26174 8.89875 8.36839 9.1175 8.41867C9.24012 8.44684 9.34963 8.45053 9.42024 8.4509C9.4557 8.45108 9.49118 8.45041 9.51692 8.44992C9.54534 8.44939 9.5681 8.44895 9.59114 8.44895C10.2991 8.44877 10.797 7.95694 11.0755 7.47336C11.3656 6.9696 11.5208 6.32314 11.5208 5.65012C11.5208 4.97716 11.3655 4.33066 11.0755 3.82688C10.797 3.34327 10.2992 2.85048 9.59114 2.85031C9.41254 2.85031 9.11157 2.85411 8.81575 3.00559C8.50059 3.16702 8.30216 3.43328 8.15754 3.71164C7.96695 4.07911 8.11047 4.53149 8.47786 4.72238C8.84542 4.91335 9.29861 4.77061 9.48958 4.40305C9.5006 4.38184 9.51175 4.36577 9.51985 4.35227C9.53588 4.35172 9.55444 4.35138 9.57649 4.35129C9.59212 4.35689 9.66938 4.39209 9.77473 4.57492C9.91165 4.81271 10.0208 5.19157 10.0208 5.65012Z" fill="black"/>
<path d="M15.9295 5.65012C15.9295 6.10854 15.8203 6.4866 15.6834 6.72434C15.5744 6.91359 15.496 6.94613 15.4842 6.94992C15.4673 6.95 15.4512 6.9497 15.4364 6.94992C15.1645 6.70263 14.7461 6.68546 14.4549 6.92648C14.136 7.19083 14.0919 7.66423 14.3563 7.98313L14.4901 8.12668C14.6336 8.26174 14.8074 8.36839 15.0262 8.41867C15.1488 8.44684 15.2583 8.45053 15.3289 8.4509C15.3644 8.45108 15.3999 8.45041 15.4256 8.44992C15.454 8.44939 15.4768 8.44895 15.4998 8.44895C16.2078 8.44877 16.7057 7.95694 16.9842 7.47336C17.2743 6.9696 17.4295 6.32314 17.4295 5.65012C17.4295 4.97716 17.2742 4.33066 16.9842 3.82688C16.7057 3.34327 16.2078 2.85048 15.4998 2.85031C15.3212 2.85031 15.0203 2.85411 14.7244 3.00559C14.4093 3.16702 14.2109 3.43328 14.0662 3.71164C13.8756 4.07911 14.0192 4.53149 14.3865 4.72238C14.7541 4.91335 15.2073 4.77061 15.3983 4.40305C15.4093 4.38184 15.4204 4.36577 15.4285 4.35227C15.4446 4.35172 15.4631 4.35138 15.4852 4.35129C15.5008 4.35689 15.5781 4.39209 15.6834 4.57492C15.8203 4.81271 15.9295 5.19157 15.9295 5.65012Z" fill="black"/>
<path d="M16.6408 10.5591C17.0135 10.3786 17.4622 10.534 17.6427 10.9067C17.8232 11.2795 17.6669 11.7282 17.2941 11.9087C15.0907 12.9755 13.7172 14.9415 13.0792 16.1401C12.952 16.3791 12.7063 16.531 12.4357 16.5376C12.1652 16.5441 11.9122 16.4046 11.7736 16.1724C11.3848 15.5199 10.8904 14.9374 10.2863 14.4272C9.97025 14.1599 9.93031 13.6869 10.1974 13.3706C10.4646 13.0541 10.9385 13.0145 11.255 13.2817C11.6665 13.6292 12.0362 14.008 12.3673 14.4145C13.2234 13.128 14.6186 11.5382 16.6408 10.5591Z" fill="black"/>
</svg>
