<svg width="24" height="24" viewBox="0 0 24 24" fill="none" xmlns="http://www.w3.org/2000/svg">
<path d="M17.3367 4.99707C18.7605 4.99707 19.9332 6.07248 20.1492 7.47656L20.5408 10.0195C20.6037 10.4288 20.3229 10.8118 19.9138 10.875C19.5044 10.938 19.1213 10.6574 19.0583 10.248L18.6667 7.7041C18.556 6.98417 17.973 6.49707 17.3367 6.49707H7.21654C6.42256 6.49735 5.74681 7.25649 5.88744 8.1709L7.45189 18.3467C7.56276 19.0664 8.14578 19.5537 8.78197 19.5537H11.3122C11.7263 19.5539 12.0622 19.8896 12.0622 20.3037C12.062 20.7176 11.7262 21.0535 11.3122 21.0537H8.78197C7.35809 21.0537 6.18541 19.9783 5.96947 18.5742L4.40502 8.39844C4.13636 6.65087 5.42866 4.99734 7.21654 4.99707H17.3367Z" fill="black"/>
<path d="M10.2 4.99707C10.6142 4.99707 10.95 5.33286 10.95 5.74707C10.95 6.16128 10.6142 6.49707 10.2 6.49707H6.66286C6.02655 6.49707 5.4435 6.98417 5.33278 7.7041L3.76833 17.8799C3.6278 18.7942 4.3035 19.5534 5.09743 19.5537H8.36208C8.77628 19.5537 9.11208 19.8895 9.11208 20.3037C9.11184 20.7177 8.77613 21.0537 8.36208 21.0537H5.09743C3.30948 21.0534 2.01713 19.399 2.28591 17.6514L3.85036 7.47656C4.0663 6.07248 5.23898 4.99707 6.66286 4.99707H10.2Z" fill="black"/>
<path d="M9.20898 11.8127C9.6232 11.8127 9.95898 12.1485 9.95898 12.5627C9.95898 12.977 9.6232 13.3127 9.20898 13.3127H9.19922C8.78501 13.3127 8.44922 12.977 8.44922 12.5627C8.44922 12.1485 8.78501 11.8127 9.19922 11.8127H9.20898Z" fill="black"/>
<path d="M12.6172 11.8127C13.0314 11.8127 13.3672 12.1485 13.3672 12.5627C13.3672 12.977 13.0314 13.3127 12.6172 13.3127H12.6074C12.1932 13.3127 11.8574 12.977 11.8574 12.5627C11.8574 12.1485 12.1932 11.8127 12.6074 11.8127H12.6172Z" fill="black"/>
<path d="M10.1382 15.2686C10.5524 15.2686 10.8882 15.6043 10.8882 16.0186C10.8882 16.4328 10.5524 16.7686 10.1382 16.7686H10.1284C9.7142 16.7686 9.37842 16.4328 9.37842 16.0186C9.37842 15.6043 9.7142 15.2686 10.1284 15.2686H10.1382Z" fill="black"/>
<path d="M20.2494 12.6021C20.9874 12.6021 21.7178 13.225 21.5951 14.1011C21.4453 15.1686 20.9709 16.1409 20.265 16.8276C20.9708 17.5146 21.4453 18.4867 21.5951 19.5542C21.7179 20.4303 20.9874 21.0532 20.2494 21.0532H16.182C15.4441 21.053 14.7146 20.4301 14.8373 19.5542L14.8842 19.2759C15.0717 18.3183 15.5217 17.4535 16.1654 16.8267C15.4604 16.1399 14.987 15.168 14.8373 14.1011C14.7146 13.2251 15.4442 12.6023 16.182 12.6021H20.2494ZM16.3588 14.1021C16.5554 15.0956 17.1216 15.8357 17.7719 16.1528C18.0296 16.2785 18.1928 16.5409 18.1928 16.8276C18.1927 17.1142 18.0295 17.3758 17.7719 17.5015C17.1216 17.8185 16.5544 18.5592 16.3578 19.5532H20.0736C19.8769 18.5593 19.31 17.8185 18.6596 17.5015C18.402 17.3758 18.2388 17.1142 18.2387 16.8276C18.2387 16.5409 18.4018 16.2785 18.6596 16.1528C19.3101 15.8357 19.8769 15.0956 20.0736 14.1021H16.3588Z" fill="black"/>
<path d="M9.87776 5.65012C9.87771 6.10854 9.76856 6.4866 9.63166 6.72434C9.52267 6.91359 9.44429 6.94613 9.43245 6.94992C9.41555 6.95 9.39943 6.9497 9.38459 6.94992C9.11277 6.70263 8.69434 6.68546 8.40315 6.92648C8.08425 7.19083 8.04017 7.66423 8.30452 7.98313L8.43831 8.12668C8.58185 8.26174 8.75568 8.36839 8.97444 8.41867C9.09705 8.44684 9.20657 8.45053 9.27717 8.4509C9.31263 8.45108 9.34811 8.45041 9.37385 8.44992C9.40227 8.44939 9.42503 8.44895 9.44807 8.44895C10.1561 8.44877 10.654 7.95694 10.9324 7.47336C11.2225 6.9696 11.3777 6.32314 11.3778 5.65012C11.3778 4.97716 11.2224 4.33066 10.9324 3.82688C10.654 3.34327 10.1561 2.85048 9.44807 2.85031C9.26947 2.85031 8.96851 2.85411 8.67268 3.00559C8.35753 3.16702 8.1591 3.43328 8.01448 3.71164C7.82388 4.07911 7.96741 4.53149 8.33479 4.72238C8.70236 4.91335 9.15554 4.77061 9.34651 4.40305C9.35753 4.38184 9.36869 4.36577 9.37678 4.35227C9.39281 4.35172 9.41137 4.35138 9.43342 4.35129C9.44905 4.35689 9.52631 4.39209 9.63166 4.57492C9.76859 4.81271 9.87776 5.19157 9.87776 5.65012Z" fill="black"/>
<path d="M15.7865 5.65012C15.7864 6.10854 15.6773 6.4866 15.5404 6.72434C15.4314 6.91359 15.353 6.94613 15.3411 6.94992C15.3242 6.95 15.3081 6.9497 15.2933 6.94992C15.0215 6.70263 14.603 6.68546 14.3118 6.92648C13.9929 7.19083 13.9489 7.66423 14.2132 7.98313L14.347 8.12668C14.4905 8.26174 14.6644 8.36839 14.8831 8.41867C15.0057 8.44684 15.1153 8.45053 15.1859 8.4509C15.2213 8.45108 15.2568 8.45041 15.2825 8.44992C15.311 8.44939 15.3337 8.44895 15.3568 8.44895C16.0647 8.44877 16.5627 7.95694 16.8411 7.47336C17.1312 6.9696 17.2864 6.32314 17.2865 5.65012C17.2865 4.97716 17.1311 4.33066 16.8411 3.82688C16.5627 3.34327 16.0648 2.85048 15.3568 2.85031C15.1782 2.85031 14.8772 2.85411 14.5814 3.00559C14.2662 3.16702 14.0678 3.43328 13.9232 3.71164C13.7326 4.07911 13.8761 4.53149 14.2435 4.72238C14.611 4.91335 15.0642 4.77061 15.2552 4.40305C15.2662 4.38184 15.2774 4.36577 15.2855 4.35227C15.3015 4.35172 15.3201 4.35138 15.3421 4.35129C15.3577 4.35689 15.435 4.39209 15.5404 4.57492C15.6773 4.81271 15.7865 5.19157 15.7865 5.65012Z" fill="black"/>
</svg>
