<svg width="24" height="24" viewBox="0 0 24 24" fill="none" xmlns="http://www.w3.org/2000/svg">
<path d="M17.3367 3.97192C18.7605 3.97192 19.9332 5.04733 20.1492 6.45142L21.7146 16.6262C21.9834 18.374 20.6902 20.0285 18.9021 20.0286H8.78197C7.35809 20.0286 6.18541 18.9532 5.96947 17.5491L4.40502 7.37329C4.13636 5.62572 5.42866 3.9722 7.21654 3.97192H17.3367ZM7.21654 5.47192C6.42256 5.47221 5.74681 6.23134 5.88744 7.14575L7.45189 17.3215C7.56276 18.0413 8.14578 18.5286 8.78197 18.5286H18.9021C19.6961 18.5285 20.3727 17.7692 20.2322 16.8547L18.6667 6.67896C18.556 5.95903 17.973 5.47192 17.3367 5.47192H7.21654Z" fill="black"/>
<path d="M10.2 3.97192C10.6142 3.97192 10.95 4.30771 10.95 4.72192C10.95 5.13614 10.6142 5.47192 10.2 5.47192H6.66286C6.02655 5.47192 5.4435 5.95902 5.33278 6.67896L3.76833 16.8547C3.6278 17.7691 4.3035 18.5283 5.09743 18.5286H8.36208C8.77628 18.5286 9.11208 18.8644 9.11208 19.2786C9.11184 19.6926 8.77613 20.0285 8.36208 20.0286H5.09743C3.30948 20.0283 2.01713 18.3739 2.28591 16.6262L3.85036 6.45142C4.0663 5.04733 5.23898 3.97192 6.66286 3.97192H10.2Z" fill="black"/>
<path d="M19.7651 9.38452C20.1791 9.38479 20.5151 9.72047 20.5151 10.1345C20.5151 10.5486 20.1791 10.8843 19.7651 10.8845H5.78174C5.36752 10.8845 5.03174 10.5487 5.03174 10.1345C5.03174 9.72031 5.36752 9.38452 5.78174 9.38452H19.7651Z" fill="black"/>
<path d="M9.76025 6.77905C10.138 6.77927 10.4438 7.08579 10.4438 7.46362C10.4438 7.84145 10.138 8.14798 9.76025 8.14819H9.74463C9.36666 8.14819 9.06006 7.84159 9.06006 7.46362C9.06006 7.08566 9.36666 6.77905 9.74463 6.77905H9.76025Z" fill="black"/>
<path d="M15.8022 6.77905C16.18 6.77927 16.4858 7.08579 16.4858 7.46362C16.4858 7.84145 16.18 8.14798 15.8022 8.14819H15.7866C15.4087 8.14819 15.1021 7.84159 15.1021 7.46362C15.1021 7.08566 15.4087 6.77905 15.7866 6.77905H15.8022Z" fill="black"/>
</svg>
