<svg width="24" height="24" viewBox="0 0 24 24" fill="none" xmlns="http://www.w3.org/2000/svg">
<path d="M17.3367 4.99707C18.7605 4.99707 19.9332 6.07248 20.1492 7.47656L21.7146 17.6514C21.9834 19.3991 20.6902 21.0536 18.9021 21.0537H8.78197C7.35809 21.0537 6.18541 19.9783 5.96947 18.5742L4.40502 8.39844C4.13636 6.65087 5.42866 4.99734 7.21654 4.99707H17.3367ZM7.21654 6.49707C6.42256 6.49735 5.74681 7.25649 5.88744 8.1709L7.45189 18.3467C7.56276 19.0664 8.14578 19.5537 8.78197 19.5537H18.9021C19.6961 19.5536 20.3727 18.7943 20.2322 17.8799L18.6667 7.7041C18.556 6.98417 17.973 6.49707 17.3367 6.49707H7.21654Z" fill="black"/>
<path d="M10.2005 4.99707C10.6147 4.99707 10.9505 5.33286 10.9505 5.74707C10.9505 6.16128 10.6147 6.49707 10.2005 6.49707H6.66335C6.02704 6.49707 5.44399 6.98417 5.33327 7.7041L3.76882 17.8799C3.62829 18.7942 4.30398 19.5534 5.09792 19.5537H8.36257C8.77677 19.5537 9.11257 19.8895 9.11257 20.3037C9.11233 20.7177 8.77662 21.0537 8.36257 21.0537H5.09792C3.30997 21.0534 2.01762 19.399 2.28639 17.6514L3.85085 7.47656C4.06679 6.07248 5.23947 4.99707 6.66335 4.99707H10.2005Z" fill="black"/>
<path d="M9.87776 5.65012C9.87771 6.10854 9.76856 6.4866 9.63166 6.72434C9.52267 6.91359 9.44429 6.94613 9.43245 6.94992C9.41555 6.95 9.39943 6.9497 9.38459 6.94992C9.11277 6.70263 8.69434 6.68546 8.40315 6.92648C8.08425 7.19083 8.04017 7.66423 8.30452 7.98313L8.43831 8.12668C8.58185 8.26174 8.75568 8.36839 8.97444 8.41867C9.09705 8.44684 9.20657 8.45053 9.27717 8.4509C9.31263 8.45108 9.34811 8.45041 9.37385 8.44992C9.40227 8.44939 9.42503 8.44895 9.44807 8.44895C10.1561 8.44877 10.654 7.95694 10.9324 7.47336C11.2225 6.9696 11.3777 6.32314 11.3778 5.65012C11.3778 4.97716 11.2224 4.33066 10.9324 3.82688C10.654 3.34327 10.1561 2.85048 9.44807 2.85031C9.26947 2.85031 8.96851 2.85411 8.67268 3.00559C8.35753 3.16702 8.1591 3.43328 8.01448 3.71164C7.82388 4.07911 7.96741 4.53149 8.33479 4.72238C8.70236 4.91335 9.15554 4.77061 9.34651 4.40305C9.35753 4.38184 9.36869 4.36577 9.37678 4.35227C9.39281 4.35172 9.41137 4.35138 9.43342 4.35129C9.44905 4.35689 9.52631 4.39209 9.63166 4.57492C9.76859 4.81271 9.87776 5.19157 9.87776 5.65012Z" fill="black"/>
<path d="M15.7865 5.65012C15.7864 6.10854 15.6773 6.4866 15.5404 6.72434C15.4314 6.91359 15.353 6.94613 15.3411 6.94992C15.3242 6.95 15.3081 6.9497 15.2933 6.94992C15.0215 6.70263 14.603 6.68546 14.3118 6.92648C13.9929 7.19083 13.9489 7.66423 14.2132 7.98313L14.347 8.12668C14.4905 8.26174 14.6644 8.36839 14.8831 8.41867C15.0057 8.44684 15.1153 8.45053 15.1859 8.4509C15.2213 8.45108 15.2568 8.45041 15.2825 8.44992C15.311 8.44939 15.3337 8.44895 15.3568 8.44895C16.0647 8.44877 16.5627 7.95694 16.8411 7.47336C17.1312 6.9696 17.2864 6.32314 17.2865 5.65012C17.2865 4.97716 17.1311 4.33066 16.8411 3.82688C16.5627 3.34327 16.0648 2.85048 15.3568 2.85031C15.1782 2.85031 14.8772 2.85411 14.5814 3.00559C14.2662 3.16702 14.0678 3.43328 13.9232 3.71164C13.7326 4.07911 13.8761 4.53149 14.2435 4.72238C14.611 4.91335 15.0642 4.77061 15.2552 4.40305C15.2662 4.38184 15.2774 4.36577 15.2855 4.35227C15.3015 4.35172 15.3201 4.35138 15.3421 4.35129C15.3577 4.35689 15.435 4.39209 15.5404 4.57492C15.6773 4.81271 15.7865 5.19157 15.7865 5.65012Z" fill="black"/>
<path d="M12.9367 10.6516C13.2255 10.6516 13.4889 10.8178 13.6135 11.0784C14.2728 12.4568 15.0018 13.6902 15.8342 14.7141C16.0167 14.9385 16.054 15.2478 15.9299 15.509C15.8324 15.714 15.6489 15.8596 15.4348 15.9133C15.6807 16.3056 15.9468 16.6646 16.2346 16.9895C16.4302 17.2103 16.4785 17.5252 16.3576 17.7942C16.2365 18.0633 15.9682 18.2366 15.6731 18.2366H10.2004C9.90525 18.2366 9.63791 18.0634 9.51682 17.7942C9.39585 17.5251 9.44331 17.2103 9.63889 16.9895C9.9268 16.6647 10.1928 16.3056 10.4387 15.9133C10.2247 15.8595 10.041 15.7139 9.94357 15.509C9.81951 15.2478 9.85687 14.9385 10.0393 14.7141C10.872 13.6903 11.6013 12.4571 12.261 11.0784L12.3137 10.9846C12.4515 10.7786 12.6843 10.6517 12.9367 10.6516ZM12.9367 13.0403C12.653 13.5556 12.3536 14.0518 12.0363 14.5247C12.1499 14.5846 12.2485 14.6736 12.3196 14.7854C12.4569 15.0019 12.4744 15.274 12.3654 15.5061C12.1621 15.9396 11.9369 16.3494 11.6926 16.7366H14.1809C13.9367 16.3496 13.7123 15.9395 13.509 15.5061C13.4001 15.2739 13.4174 15.0019 13.5549 14.7854C13.6258 14.6738 13.7229 14.5837 13.8362 14.5237C13.5192 14.0512 13.2202 13.5552 12.9367 13.0403Z" fill="black"/>
<path d="M12.187 20.303V17.4866C12.187 17.0724 12.5228 16.7366 12.937 16.7366C13.3512 16.7366 13.687 17.0724 13.687 17.4866V20.303C13.687 20.7172 13.3512 21.053 12.937 21.053C12.5228 21.053 12.187 20.7172 12.187 20.303Z" fill="black"/>
<path d="M17.7319 15.4511C18.0248 15.1582 18.4995 15.1582 18.7924 15.4511L18.8022 15.4609C19.0951 15.7538 19.0951 16.2285 18.8022 16.5214C18.5093 16.8143 18.0345 16.8143 17.7416 16.5214L17.7319 16.5117C17.439 16.2188 17.439 15.744 17.7319 15.4511Z" fill="black"/>
<path d="M8.72845 11.5649C9.02152 11.2722 9.49629 11.2718 9.789 11.5649C10.0817 11.8579 10.081 12.3327 9.78802 12.6254L9.21087 13.2026C8.91781 13.4953 8.44304 13.4947 8.15033 13.2016C7.85762 12.9085 7.85727 12.4338 8.15033 12.141L8.72845 11.5649Z" fill="black"/>
<path d="M16.7006 10.1776C16.9935 9.8849 17.4683 9.88472 17.7611 10.1776C18.0537 10.4704 18.0537 10.9453 17.7611 11.2381L17.0668 11.9325C16.7738 12.2251 16.299 12.2244 16.0062 11.9315C15.7135 11.6386 15.7133 11.1638 16.0062 10.871L16.7006 10.1776Z" fill="black"/>
</svg>
