<svg width="25" height="24" viewBox="0 0 25 24" fill="none" xmlns="http://www.w3.org/2000/svg">
<path d="M10.7187 11.3516C10.1291 11.3516 9.65039 11.8293 9.65039 12.4189V15.98C9.65039 16.5696 10.1291 17.0473 10.7187 17.0473H14.2788C14.8684 17.0473 15.3462 16.5696 15.3462 15.98V12.4189C15.3462 11.8293 14.8684 11.3516 14.2788 11.3516" stroke="black" stroke-width="1.5" stroke-linecap="round" stroke-linejoin="round"/>
<path d="M12.5002 21H7.28462C5.44959 21 3.96289 19.5123 3.96289 17.6783V10.5045C3.96289 9.6133 4.36376 8.76973 5.05457 8.20638L10.6287 3.66551C11.7185 2.77816 13.282 2.77816 14.3718 3.66551L19.9459 8.20638C20.6367 8.76973 21.0376 9.6133 21.0376 10.5045V17.6783C21.0376 19.5123 19.5509 21 17.7159 21H16.3811" stroke="black" stroke-width="1.5" stroke-linecap="round" stroke-linejoin="round"/>
</svg>