<svg width="25" height="24" viewBox="0 0 25 24" fill="none" xmlns="http://www.w3.org/2000/svg">
<path d="M16.1505 19.3537C16.1505 20.2634 16.889 21.001 17.7987 21L18.9119 20.999C20.2595 20.9981 21.3512 19.9044 21.3512 18.5568V9.24422C21.3512 8.27803 20.8355 7.38579 19.9987 6.90319L13.8484 3.3605C13.0135 2.87983 11.986 2.87983 11.1512 3.3605L8.07605 5.13184" stroke="black" stroke-width="1.5" stroke-linecap="round" stroke-linejoin="round"/>
<path d="M5.00091 6.90234C4.16413 7.38495 3.64844 8.27719 3.64844 9.24338V18.556C3.64844 19.9036 4.74014 20.9972 6.08775 20.9982L7.19307 20.9992C8.10283 21.0001 8.84036 20.2626 8.84036 19.3528V14.2942C8.84036 13.3309 9.62071 12.5506 10.583 12.5506H14.4079C15.3702 12.5506 16.1505 13.3309 16.1505 14.2942V15.9331" stroke="black" stroke-width="1.5" stroke-linecap="round" stroke-linejoin="round"/>
</svg>