<svg width="25" height="24" viewBox="0 0 25 24" fill="none" xmlns="http://www.w3.org/2000/svg">
<path d="M21.3512 13.9005V9.24422C21.3512 8.27803 20.8355 7.38579 19.9987 6.90319L13.8484 3.3605C13.0136 2.87983 11.9861 2.87983 11.1512 3.3605L5.00091 6.90319C4.16413 7.38579 3.64844 8.27803 3.64844 9.24422V18.5568C3.64844 19.9044 4.74014 20.9981 6.08775 20.999L7.88196 21C8.79268 21.001 9.53022 20.2634 9.53022 19.3537V16.1039C9.53022 15.1416 10.3106 14.3612 11.2729 14.3612H13.7268C14.6891 14.3612 15.4694 15.1416 15.4694 16.1039V19.3537C15.4694 20.2634 16.2079 21.001 17.1177 21L18.9119 20.999C20.2595 20.9981 21.3512 19.9044 21.3512 18.5568V17.5312" stroke="black" stroke-width="1.5" stroke-linecap="round" stroke-linejoin="round"/>
</svg>