<svg width="25" height="25" viewBox="0 0 25 25" fill="none" xmlns="http://www.w3.org/2000/svg">
<path d="M12.5 3.38281C15.6253 3.38281 18.1611 5.91861 18.1611 9.04389C18.1611 10.8116 17.4253 12.1385 16.4648 13.1576C15.6583 14.0133 14.6263 14.7136 13.7743 15.2916C13.6862 15.3514 13.6 15.4099 13.5161 15.4672C12.3066 16.2928 11.4266 16.9672 10.9254 17.7828H16.3611C17.3552 17.7828 18.1611 18.5887 18.1611 19.5828C18.1611 20.5769 17.3552 21.3828 16.3611 21.3828H8.64155C7.64744 21.3828 6.84155 20.5769 6.84155 19.5828" stroke="black" stroke-width="1.5" stroke-linecap="round" stroke-linejoin="round"/>
<path opacity="0.4" d="M12.4999 3.38281C9.37467 3.38281 6.83887 5.91861 6.83887 9.04389C6.83887 10.038 7.64475 10.8439 8.63887 10.8439C9.63298 10.8439 10.4389 10.038 10.4389 9.04389C10.4389 7.90684 11.3629 6.98281 12.4999 6.98281C13.637 6.98281 14.561 7.90684 14.561 9.04389C14.561 9.68903 14.3319 10.1718 13.8449 10.6885C13.3238 11.2414 12.621 11.7204 11.6855 12.3581C11.6203 12.4026 11.5539 12.4478 11.4865 12.4939C9.60434 13.7786 6.84152 15.6897 6.84152 19.5828" stroke="black" stroke-width="1.5" stroke-linecap="round" stroke-linejoin="round"/>
</svg>