<svg width="25" height="25" viewBox="0 0 25 25" fill="none" xmlns="http://www.w3.org/2000/svg">
<path d="M12.5083 9.12308C12.3091 9.12308 12.112 9.13259 11.9176 9.15117C11.9401 9.12003 11.9626 9.08911 11.9851 9.05841C12.5674 8.26548 13.1657 7.64693 13.6156 7.2295C13.8386 7.02256 14.0702 6.82691 14.3098 6.63971C15.1122 6.05747 15.2929 4.93535 14.7128 4.13048C14.1316 3.32402 13.0066 3.14144 12.2001 3.72269C11.8436 3.99844 11.4978 4.28363 11.1671 4.59052C10.5897 5.12617 9.8289 5.91265 9.08357 6.92754C7.59927 8.94866 6.10283 11.983 6.39915 15.7767C6.40184 15.8112 6.40549 15.8454 6.41007 15.8792C6.72377 18.9705 9.33434 21.3828 12.5083 21.3828C15.8938 21.3828 18.6382 18.6384 18.6382 15.2529C18.6382 11.8675 15.8938 9.12308 12.5083 9.12308Z" stroke="black" stroke-width="1.5" stroke-linecap="round" stroke-linejoin="round"/>
<path opacity="0.4" d="M9.97852 15.2526C9.97852 13.8553 11.1112 12.7227 12.5084 12.7227C13.9057 12.7227 15.0384 13.8553 15.0384 15.2526C15.0384 16.6498 13.9057 17.7825 12.5084 17.7825C11.1112 17.7825 9.97852 16.6498 9.97852 15.2526Z" stroke="black" stroke-width="1.5" stroke-linecap="round" stroke-linejoin="round"/>
</svg>