<svg width="25" height="25" viewBox="0 0 25 25" fill="none" xmlns="http://www.w3.org/2000/svg">
<path opacity="0.4" d="M7.10088 8.78152C7.10088 9.77563 7.90677 10.5815 8.90088 10.5815C9.89499 10.5815 10.7009 9.77563 10.7009 8.78152C10.7009 7.7879 11.506 6.98281 12.4996 6.98281C13.4932 6.98281 14.2983 7.7879 14.2983 8.78152C14.2983 9.77683 13.4915 10.5828 12.4996 10.5828C11.5055 10.5828 10.6996 11.3887 10.6996 12.3828C10.6996 13.3769 11.5055 14.1828 12.4996 14.1828C13.4958 14.1828 14.2996 14.9879 14.2996 15.9815C14.2996 16.9777 13.4945 17.7828 12.4983 17.7828C11.5055 17.7828 10.6996 16.9786 10.6996 15.9815C10.6996 14.9874 9.89372 14.1815 8.89961 14.1815C7.9055 14.1815 7.09961 14.9874 7.09961 15.9815" stroke="black" stroke-width="1.5" stroke-linecap="round" stroke-linejoin="round"/>
<path d="M7.10088 8.78152C7.10088 5.79967 9.51774 3.38281 12.4996 3.38281C15.4814 3.38281 17.8983 5.79967 17.8983 8.78152C17.8983 10.1635 17.3789 11.4253 16.5243 12.3812C17.3797 13.3364 17.8996 14.5982 17.8996 15.9815C17.8996 18.966 15.4828 21.3828 12.4983 21.3828C9.51562 21.3828 7.09961 18.9651 7.09961 15.9815" stroke="black" stroke-width="1.5" stroke-linecap="round" stroke-linejoin="round"/>
</svg>