<svg width="25" height="25" viewBox="0 0 25 25" fill="none" xmlns="http://www.w3.org/2000/svg">
<path d="M12.4993 3.38281C9.1266 3.38281 6.39246 6.11696 6.39246 9.4897C6.39246 12.8624 9.1266 15.5966 12.4993 15.5966C13.3259 15.5966 14.1142 15.4324 14.8332 15.1347C14.3498 16.6697 12.9152 17.7828 11.2205 17.7828H9.90786C8.91375 17.7828 8.10786 18.5887 8.10786 19.5828C8.10786 20.5769 8.91375 21.3828 9.90786 21.3828H11.2205C15.3002 21.3828 18.6075 18.0756 18.6075 13.9959V9.93241C18.6075 9.78285 18.6062 9.63788 18.6062 9.4897C18.6062 6.11696 15.8721 3.38281 12.4993 3.38281Z" stroke="black" stroke-width="1.5" stroke-linecap="round" stroke-linejoin="round"/>
<path opacity="0.4" d="M9.99219 9.49127C9.99219 8.10675 11.1146 6.98438 12.4991 6.98438C13.8836 6.98438 15.006 8.10675 15.006 9.49127C15.006 10.8758 13.8836 11.9982 12.4991 11.9982C11.1146 11.9982 9.99219 10.8758 9.99219 9.49127Z" stroke="black" stroke-width="1.5" stroke-linecap="round" stroke-linejoin="round"/>
</svg>