<svg width="25" height="25" viewBox="0 0 25 25" fill="none" xmlns="http://www.w3.org/2000/svg">
<path d="M10.0824 10.3846H13.0177C16.0533 10.3846 18.5181 12.8434 18.5181 15.8824C18.5181 18.9197 16.0549 21.3828 13.0177 21.3828H8.28242C7.28831 21.3828 6.48242 20.5769 6.48242 19.5828C6.48242 18.5887 7.28831 17.7828 8.28242 17.7828H13.0177C14.0667 17.7828 14.9181 16.9314 14.9181 15.8824C14.9181 14.835 14.0684 13.9846 13.0177 13.9846H8.28242C7.28831 13.9846 6.48242 13.1787 6.48242 12.1846" stroke="black" stroke-width="1.5" stroke-linecap="round" stroke-linejoin="round"/>
<path opacity="0.4" d="M10.0824 10.3846V6.98281H16.389C17.3831 6.98281 18.189 6.17693 18.189 5.18281C18.189 4.1887 17.3831 3.38281 16.389 3.38281H8.28242C7.28831 3.38281 6.48242 4.1887 6.48242 5.18281V12.1846" stroke="black" stroke-width="1.5" stroke-linecap="round" stroke-linejoin="round"/>
</svg>