<svg width="25" height="25" viewBox="0 0 25 25" fill="none" xmlns="http://www.w3.org/2000/svg">
<path d="M14.7501 5.18295C14.7501 4.37544 14.2124 3.66676 13.4347 3.4494C12.657 3.23204 11.8297 3.55921 11.411 4.24969C10.9045 5.08507 10.5288 5.59588 10.1263 6.00266C9.73074 6.40238 9.2453 6.76599 8.45163 7.22326C7.59026 7.71953 7.2943 8.82011 7.79057 9.68148C8.28684 10.5428 9.38742 10.8388 10.2488 10.3425C10.5686 10.1583 10.8677 9.97475 11.1502 9.78602" stroke="black" stroke-width="1.5" stroke-linecap="round" stroke-linejoin="round"/>
<path opacity="0.4" d="M14.7502 5.18359V17.7835H15.6501C16.6442 17.7835 17.4501 18.5894 17.4501 19.5835C17.4501 20.5776 16.6442 21.3835 15.6501 21.3835H10.2502C9.25607 21.3835 8.4502 20.5776 8.4502 19.5835C8.4502 18.5894 9.25607 17.7835 10.2502 17.7835H11.1502V9.78667" stroke="black" stroke-width="1.5" stroke-linecap="round" stroke-linejoin="round"/>
</svg>