<svg width="24" height="24" viewBox="0 0 24 24" fill="none" xmlns="http://www.w3.org/2000/svg">
<path d="M11.4292 6.68018L11.4371 6.68728" stroke="black" stroke-width="1.5" stroke-linecap="round" stroke-linejoin="round"/>
<path d="M8.52892 10.5317C8.5928 9.99553 9.61433 6.82053 8.32861 4.96893C8.32861 4.96893 9.35375 4.97366 9.70191 4.99042C10.6896 3.52748 12.5762 3.99806 13.1876 4.94028C14.0176 6.22462 13.6054 7.6778 13.5469 8.97313C13.3801 12.6679 15.0439 14.9861 22.0002 17.7468C19.5457 20.4345 13.7018 21.0965 11.1592 17.2052" stroke="black" stroke-width="1.5" stroke-linecap="round" stroke-linejoin="round"/>
<path d="M10.4624 10.2192C8.29227 11.4354 6.07636 10.8683 2.00049 9.08057C2.74547 15.2965 6.31862 18.0706 12.6721 16.8975" stroke="black" stroke-width="1.5" stroke-linecap="round" stroke-linejoin="round"/>
<path d="M14.0156 10.1918C17.4093 10.2561 19.7766 9.18526 21.687 7.39771C21.3971 10.301 19.7102 14.0803 16.9832 14.8778" stroke="black" stroke-width="1.5" stroke-linecap="round" stroke-linejoin="round"/>
</svg>
