<svg width="24" height="24" viewBox="0 0 24 24" fill="none" xmlns="http://www.w3.org/2000/svg">
<path d="M21.25 18.9411C20.1925 16.5388 18.549 15.6219 16.7911 14.919C15.9146 14.5685 15.1952 13.7967 15.1952 12.8526V11.5595C15.1952 7.28204 12.5017 4.13584 8.88195 2.6372V5.46973C7.14173 5.46973 5.66328 5.92518 4.93161 7.70512C4.50958 8.73182 3.81372 9.27812 2.7994 9.27812C2.52339 10.3958 3.40763 12.741 5.35979 12.741C6.82953 12.741 8.09529 13.9776 7.78821 15.716C7.4213 17.793 7.22622 19.4575 7.15351 20.9154C8.80007 20.8855 12.7136 20.2352 15.1952 17.8724" stroke="black" stroke-width="1.5" stroke-linecap="round" stroke-linejoin="round"/>
<path d="M8.27734 8.78564V8.80053" stroke="black" stroke-width="1.5" stroke-linecap="round" stroke-linejoin="round"/>
</svg>
