<svg width="24" height="24" viewBox="0 0 24 24" fill="none" xmlns="http://www.w3.org/2000/svg">
<path d="M15.4282 12.2061C14.795 12.2064 14.2818 12.7196 14.2815 13.3528L9.72311 13.3528C9.72343 12.7196 9.20992 12.2061 8.5764 12.2061C7.94351 12.2061 7.43 12.7196 7.42969 13.3528C7.42969 13.8133 7.70318 14.2074 8.09416 14.3899C7.70318 14.5725 7.43 14.9669 7.43032 15.4271C7.43 16.0603 7.94351 16.5738 8.57672 16.5735C9.20992 16.5738 9.72343 16.0603 9.72311 15.4271L14.2815 15.427C14.2818 16.0602 14.7947 16.5737 15.4282 16.5737C16.0614 16.5734 16.5746 16.0602 16.5749 15.427C16.5749 14.9666 16.3017 14.5721 15.9105 14.3899C16.3017 14.2077 16.5749 13.8132 16.5749 13.3528C16.5746 12.7196 16.0611 12.2061 15.4282 12.2061Z" stroke="black" stroke-width="1.5" stroke-linecap="round" stroke-linejoin="round"/>
<ellipse cx="12.0014" cy="7.37692" rx="8.50876" ry="2.76657" stroke="black" stroke-width="1.5"/>
<path d="M20.5115 7.43948L21.2476 15.4847C21.3773 17.9141 16.2776 19.3892 12 19.3892C7.72243 19.3892 2.6227 17.9141 2.75243 15.4847L3.48851 7.43948" stroke="black" stroke-width="1.5"/>
</svg>
