<svg width="24" height="24" viewBox="0 0 24 24" fill="none" xmlns="http://www.w3.org/2000/svg">
<path d="M4 19.4248L4.755 15.1418C4.89583 14.1565 5.73971 13.4247 6.735 13.4248H17.265C18.2603 13.4247 19.1042 14.1565 19.245 15.1418L20 19.4248" stroke="black" stroke-width="1.5" stroke-linecap="round" stroke-linejoin="round"/>
<path d="M3 19.4248H21" stroke="black" stroke-width="1.5" stroke-linecap="round" stroke-linejoin="round"/>
<path d="M12.6858 13.4127L8.39309 7.88381C9.15887 7.29243 9.29976 6.19174 8.70771 5.42587C8.11624 4.66077 7.01555 4.51988 6.24977 5.11125C5.69312 5.54157 5.47223 6.24054 5.61694 6.88378C5.03089 6.58172 4.29873 6.6201 3.74276 7.05051C2.97697 7.64188 2.83608 8.74257 3.42822 9.50777C4.0196 10.2735 5.1203 10.4144 5.88549 9.8223L8.59888 13.4127" stroke="black" stroke-width="1.5" stroke-linecap="round" stroke-linejoin="round"/>
<path d="M16.6375 13.4155L17.9955 8.93926C18.9196 9.22603 19.9013 8.7087 20.1871 7.78434C20.4739 6.86027 19.9566 5.87856 19.0322 5.59272C18.3608 5.3842 17.6615 5.60457 17.2183 6.0927C17.1286 5.43949 16.677 4.86209 16.005 4.65389C15.0806 4.36804 14.0989 4.88537 13.8127 5.80912C13.5263 6.7338 14.0436 7.71551 14.968 8.00136L13.249 13.4155" stroke="black" stroke-width="1.5" stroke-linecap="round" stroke-linejoin="round"/>
</svg>
