<svg width="24" height="24" viewBox="0 0 24 24" fill="none" xmlns="http://www.w3.org/2000/svg">
<path d="M13.8455 21.0698L8.74674 21.0698" stroke="black" stroke-width="1.5" stroke-linecap="round" stroke-linejoin="round"/>
<path d="M11.4267 9.50805C11.1799 10.6721 10.0106 11.4237 8.66409 12.8066C6.36992 15.1627 6.3184 19.0554 6.55286 21.25C3.40383 20.686 2.91705 17.1163 4.94243 14.9633" stroke="black" stroke-width="1.5" stroke-linecap="round" stroke-linejoin="round"/>
<path d="M10.4521 14.9019C12.5786 14.9019 13.97 18.5348 11.9467 20.8799" stroke="black" stroke-width="1.5" stroke-linecap="round" stroke-linejoin="round"/>
<path d="M18.5708 21.1322H16.6141C16.4878 19.5755 15.7651 18.5217 16.6141 15.0106C17.2084 12.5527 16.8632 11.1652 16.4092 8.74408H18.084C19.6992 8.74408 20.194 6.96596 20.2725 6.02871L17.8111 4.80503C17.6647 4.33255 17.5274 3.15015 16.0039 2.95719L14.9277 2.79156C13.6039 2.5976 12.1741 3.03399 11.462 5.13835C10.2965 8.58289 11.3108 9.61332 11.9636 9.69797C14.2712 10.1255 14.2205 6.95308 14.0449 5.56978" stroke="black" stroke-width="1.5" stroke-linecap="round" stroke-linejoin="round"/>
<path d="M16.1602 5.97559V5.98559" stroke="black" stroke-width="1.5" stroke-linecap="round" stroke-linejoin="round"/>
</svg>
