<svg width="24" height="24" viewBox="0 0 24 24" fill="none" xmlns="http://www.w3.org/2000/svg">
<ellipse cx="12.0014" cy="7.37692" rx="8.50876" ry="2.76657" stroke="black" stroke-width="1.5"/>
<path d="M20.5115 7.43948L21.2476 15.4847C21.3773 17.9141 16.2776 19.3892 12 19.3892C7.72243 19.3892 2.6227 17.9141 2.75243 15.4847L3.48851 7.43948" stroke="black" stroke-width="1.5"/>
<path d="M12.0035 14.5223C13.1737 14.5223 14.1223 15.3131 14.1223 16.2885C14.1223 16.6136 13.9325 17.117 13.4161 16.8772C12.3081 16.5679 11.6966 16.5484 10.591 16.8772C10.0884 17.0813 9.88477 16.6136 9.88477 16.2885C9.88477 15.3131 10.8334 14.5223 12.0035 14.5223Z" stroke="black" stroke-width="1.5" stroke-linecap="round" stroke-linejoin="round"/>
<path d="M14.458 13.1455H14.4658" stroke="black" stroke-width="1.5" stroke-linecap="round" stroke-linejoin="round"/>
<path d="M9.53711 13.1455H9.54495" stroke="black" stroke-width="1.5" stroke-linecap="round" stroke-linejoin="round"/>
<path d="M11.9976 12.3252H12.0054" stroke="black" stroke-width="1.5" stroke-linecap="round" stroke-linejoin="round"/>
</svg>
