<svg width="24" height="24" viewBox="0 0 24 24" fill="none" xmlns="http://www.w3.org/2000/svg">
<path fill-rule="evenodd" clip-rule="evenodd" d="M14.3233 6.28561H9.67659C8.92742 6.28561 8.32031 5.67849 8.32031 4.92933V4.35627C8.32031 3.60711 8.92742 3 9.67659 3H14.3233C15.0725 3 15.6796 3.60711 15.6796 4.35627V4.92933C15.6796 5.67849 15.0725 6.28561 14.3233 6.28561Z" stroke="black" stroke-width="1.5" stroke-linecap="round" stroke-linejoin="round"/>
<path d="M15.6803 4.59375C17.7536 4.59375 19.4348 6.27498 19.4348 8.34831V17.2458C19.4348 19.3191 17.7536 21.0004 15.6803 21.0004H8.32097C6.24764 21.0004 4.56641 19.3191 4.56641 17.2458V8.34831C4.56641 6.27498 6.24764 4.59375 8.32097 4.59375" stroke="black" stroke-width="1.5" stroke-linecap="round" stroke-linejoin="round"/>
<path d="M11.9983 9.90426V9.85269M11.9916 9.69971C11.8676 9.69971 11.7666 9.80071 11.7676 9.92471C11.7676 10.0487 11.8686 10.1497 11.9926 10.1497C12.1166 10.1497 12.2176 10.0487 12.2176 9.92471C12.2176 9.79971 12.1166 9.69971 11.9916 9.69971Z" stroke="black" stroke-width="1.5" stroke-linecap="round" stroke-linejoin="round"/>
<path d="M15.2629 11.5625V11.5109M15.2562 11.3579C15.1322 11.3579 15.0312 11.4589 15.0322 11.5829C15.0322 11.7069 15.1332 11.8079 15.2572 11.8079C15.3812 11.8079 15.4822 11.7069 15.4822 11.5829C15.4822 11.4579 15.3812 11.3579 15.2562 11.3579Z" stroke="black" stroke-width="1.5" stroke-linecap="round" stroke-linejoin="round"/>
<path d="M8.74826 11.5625V11.5109M8.74159 11.3579C8.61759 11.3579 8.51659 11.4589 8.51759 11.5829C8.51759 11.7069 8.61859 11.8079 8.74259 11.8079C8.86659 11.8079 8.96759 11.7069 8.96759 11.5829C8.96759 11.4579 8.86659 11.3579 8.74159 11.3579Z" stroke="black" stroke-width="1.5" stroke-linecap="round" stroke-linejoin="round"/>
<path d="M12.0301 16.4867C13.3976 16.4867 15.1323 17.6719 15.1073 15.8478C15.0972 14.4798 13.6725 13.1959 12.0301 13.1943C10.3779 13.1943 8.73698 14.5894 8.96459 16.0119C9.21656 17.6612 10.818 16.4867 12.0301 16.4867Z" stroke="black" stroke-width="1.5"/>
</svg>
