<svg width="24" height="24" viewBox="0 0 24 24" fill="none" xmlns="http://www.w3.org/2000/svg">
<path fill-rule="evenodd" clip-rule="evenodd" d="M13.5234 14.4055C13.4074 14.2445 13.3784 14.0405 13.4474 13.8575L14.4384 11.1565C14.5244 10.9205 14.5274 10.6625 14.4494 10.4315C14.2584 9.86652 13.6364 9.55352 13.0614 9.73352L10.3114 10.6225C10.1194 10.6805 9.90644 10.6425 9.74844 10.5235L7.47744 8.78352C7.47344 8.78052 7.47044 8.77852 7.46744 8.77652C7.28444 8.64952 7.06844 8.57452 6.83444 8.56152C6.19744 8.56452 5.70544 9.03852 5.68844 9.65852L5.65744 12.5185C5.65444 12.7195 5.55244 12.9075 5.38544 13.0145L2.99844 14.6395C2.79244 14.7685 2.63444 14.9725 2.55344 15.2155C2.46244 15.4995 2.48844 15.8015 2.62544 16.0635C2.75844 16.3225 2.98544 16.5125 3.26144 16.5995L5.99444 17.4785C6.18544 17.5435 6.33344 17.6935 6.38644 17.8815L7.17544 20.6245C7.24644 20.8555 7.39144 21.0615 7.58544 21.2035C7.77844 21.3445 8.00444 21.4185 8.23844 21.4185C8.29744 21.4185 8.35744 21.4135 8.41644 21.4045C8.70844 21.3575 8.96344 21.1985 9.13344 20.9615L10.8564 18.6495C10.9764 18.4865 11.1674 18.3885 11.3704 18.4015L14.2574 18.4715C14.5064 18.4715 14.7384 18.4005 14.9244 18.2665C15.1664 18.0985 15.3284 17.8455 15.3794 17.5535C15.4324 17.2595 15.3674 16.9635 15.1934 16.7155L13.5234 14.4055Z" fill="black"/>
<path fill-rule="evenodd" clip-rule="evenodd" d="M12.956 5.50178C13.148 5.50178 13.341 5.42778 13.487 5.28078L14.901 3.86078C15.193 3.56778 15.192 3.09278 14.899 2.80078C14.606 2.50778 14.132 2.50978 13.839 2.80278L12.425 4.22278C12.133 4.51578 12.134 4.99078 12.427 5.28278C12.573 5.42878 12.765 5.50178 12.956 5.50178Z" fill="black"/>
<path fill-rule="evenodd" clip-rule="evenodd" d="M10.4786 7.98162C10.6706 7.98162 10.8636 7.90862 11.0096 7.76162L11.5886 7.18162C11.8806 6.88862 11.8806 6.41362 11.5876 6.12062C11.2936 5.82762 10.8186 5.82862 10.5266 6.12162L9.94757 6.70162C9.65557 6.99462 9.65557 7.46962 9.94857 7.76262C10.0946 7.90862 10.2876 7.98162 10.4786 7.98162Z" fill="black"/>
<path fill-rule="evenodd" clip-rule="evenodd" d="M16.5302 8.18171C16.7212 8.18171 16.9132 8.10871 17.0592 7.96371L18.3652 6.66371C18.6582 6.37071 18.6602 5.89671 18.3672 5.60271C18.0742 5.30871 17.5992 5.30871 17.3062 5.59971L16.0012 6.89971C15.7082 7.19271 15.7062 7.66671 15.9992 7.96071C16.1452 8.10771 16.3382 8.18171 16.5302 8.18171Z" fill="black"/>
<path fill-rule="evenodd" clip-rule="evenodd" d="M21.2812 8.87162C20.9892 8.57862 20.5142 8.57762 20.2202 8.87062L19.4692 9.62062C19.1752 9.91362 19.1752 10.3876 19.4672 10.6816C19.6132 10.8286 19.8052 10.9016 19.9982 10.9016C20.1892 10.9016 20.3812 10.8286 20.5272 10.6826L21.2792 9.93262C21.5732 9.63962 21.5732 9.16462 21.2812 8.87162Z" fill="black"/>
<path fill-rule="evenodd" clip-rule="evenodd" d="M17.7471 11.3419L15.9111 13.1819C15.6191 13.4749 15.6191 13.9499 15.9131 14.2419C16.0591 14.3879 16.2511 14.4619 16.4421 14.4619C16.6351 14.4619 16.8271 14.3879 16.9741 14.2409L18.8091 12.4019C19.1011 12.1079 19.1011 11.6339 18.8081 11.3409C18.5161 11.0489 18.0391 11.0489 17.7471 11.3419Z" fill="black"/>
</svg>