<svg width="24" height="25" viewBox="0 0 24 25" fill="none" xmlns="http://www.w3.org/2000/svg">
<path fill-rule="evenodd" clip-rule="evenodd" d="M12.5189 11.6149C12.5189 11.8081 12.7668 11.889 12.8817 11.7333L15.3782 8.3513C15.4228 8.29082 15.4297 8.21055 15.396 8.14342L13.5917 4.55078C13.4045 4.19665 13.1121 3.93036 12.7714 3.76978C12.6496 3.71234 12.5189 3.80822 12.5189 3.94245V11.6149Z" fill="black"/>
<path fill-rule="evenodd" clip-rule="evenodd" d="M6.06332 16.1827C5.99188 16.2053 5.93898 16.2656 5.92612 16.3391L5.28011 20.0304C5.20717 20.4787 5.31477 20.9115 5.54567 21.2663C5.61593 21.3743 5.77 21.3685 5.84651 21.2648L10.3059 15.223C10.4211 15.067 10.2687 14.8554 10.0833 14.9139L6.06332 16.1827Z" fill="black"/>
<path fill-rule="evenodd" clip-rule="evenodd" d="M18.1404 21.2902C18.216 21.3934 18.3687 21.4005 18.4393 21.2938C18.6779 20.9333 18.7905 20.4788 18.7165 20.0252L18.0725 16.3468C18.0596 16.2733 18.0068 16.213 17.9353 16.1905L13.9249 14.9246C13.7399 14.8662 13.5876 15.077 13.7019 15.2331L18.1404 21.2902Z" fill="black"/>
<path fill-rule="evenodd" clip-rule="evenodd" d="M13.7449 12.2999C13.6298 12.4559 13.7822 12.6676 13.9675 12.609L21.3387 10.2822C21.4604 10.2438 21.516 10.1028 21.4384 10.0018C21.1578 9.63625 20.7478 9.39551 20.2782 9.3266L16.4751 8.78071C16.4017 8.77017 16.3285 8.80073 16.2846 8.86021L13.7449 12.2999Z" fill="black"/>
<path fill-rule="evenodd" clip-rule="evenodd" d="M11.1235 11.7132C11.238 11.8696 11.4867 11.7889 11.4867 11.5954V3.93379C11.4867 3.8001 11.3571 3.70458 11.2359 3.76227C10.893 3.92555 10.5916 4.20376 10.4069 4.54594C10.4049 4.54994 10.4019 4.55494 10.3998 4.55994L8.61931 8.11207C8.58578 8.17895 8.59251 8.25885 8.63676 8.31924L11.1235 11.7132Z" fill="black"/>
<path fill-rule="evenodd" clip-rule="evenodd" d="M12.8821 15.8579C12.7675 15.7015 12.5189 15.7822 12.5189 15.9757V19.9055C12.5189 19.9803 12.5608 20.0488 12.6275 20.0832L16.1209 21.8822C16.4305 22.0457 16.773 22.1116 17.1138 22.0795C17.2547 22.0662 17.3133 21.9051 17.2299 21.7913L12.8821 15.8579Z" fill="black"/>
<path fill-rule="evenodd" clip-rule="evenodd" d="M14.2996 13.5831C14.1127 13.6421 14.1127 13.9053 14.2996 13.9644L18.1461 15.1788C18.2163 15.2009 18.2931 15.1831 18.3461 15.1322L21.2653 12.3347C21.5036 12.1075 21.6654 11.8234 21.7444 11.5112C21.7794 11.3731 21.6439 11.264 21.5075 11.3071L14.2996 13.5831Z" fill="black"/>
<path fill-rule="evenodd" clip-rule="evenodd" d="M11.4867 15.9701C11.4867 15.7769 11.2388 15.696 11.1239 15.8517L6.74201 21.7875C6.65911 21.8998 6.71489 22.0593 6.85394 22.0754C7.20978 22.1164 7.57108 22.0502 7.87068 21.8853L11.3781 20.0792C11.4448 20.0448 11.4867 19.9763 11.4867 19.9016V15.9701Z" fill="black"/>
<path fill-rule="evenodd" clip-rule="evenodd" d="M10.0659 12.6273C10.2509 12.6857 10.4033 12.4749 10.289 12.3188L7.75129 8.85503C7.70743 8.79517 7.63394 8.76435 7.56029 8.77494L3.72652 9.32574C3.24272 9.39092 2.8345 9.64886 2.56094 10.0092C2.48413 10.1104 2.53975 10.2507 2.66118 10.2891L10.0659 12.6273Z" fill="black"/>
<path fill-rule="evenodd" clip-rule="evenodd" d="M9.67667 13.9642C9.86357 13.9052 9.86358 13.6419 9.67669 13.5829L2.49077 11.3142C2.35502 11.2713 2.22021 11.3793 2.25578 11.5166C2.33554 11.8244 2.50126 12.1097 2.73424 12.3335L5.65445 15.1243C5.70751 15.175 5.78417 15.1928 5.85428 15.1706L9.67667 13.9642Z" fill="black"/>
</svg>