<svg width="24" height="25" viewBox="0 0 24 25" fill="none" xmlns="http://www.w3.org/2000/svg">
<path fill-rule="evenodd" clip-rule="evenodd" d="M15.3119 17.252L16.9449 15.686C17.0979 15.545 17.1959 15.353 17.2229 15.145C17.2899 14.639 16.9349 14.172 16.4339 14.104L14.1689 13.784C14.0299 13.765 13.9089 13.678 13.8459 13.55L12.8329 11.53C12.7489 11.361 12.6129 11.221 12.4289 11.118C11.9679 10.884 11.4019 11.069 11.1659 11.529L10.1539 13.549C10.0889 13.677 9.96794 13.765 9.82794 13.784L7.56594 14.104C7.35994 14.131 7.16794 14.229 7.02194 14.379C6.67094 14.752 6.68194 15.323 7.04994 15.682L8.68494 17.25C8.78894 17.353 8.83494 17.491 8.81094 17.628L8.42294 19.852C8.38994 20.057 8.42394 20.261 8.51994 20.44C8.63894 20.661 8.83494 20.822 9.07494 20.894C9.16294 20.92 9.25294 20.933 9.34194 20.933C9.49294 20.933 9.64194 20.896 9.77494 20.823L11.7939 19.775C11.9219 19.711 12.0759 19.711 12.2019 19.773L14.2229 20.822C14.3949 20.914 14.5949 20.947 14.8069 20.919C15.3129 20.837 15.6589 20.358 15.5769 19.848L15.1879 17.629C15.1639 17.491 15.2099 17.353 15.3119 17.252Z" fill="black"/>
<path fill-rule="evenodd" clip-rule="evenodd" d="M21.9881 14.383C22.0391 14.009 21.9391 13.637 21.7081 13.335C21.4771 13.034 21.1441 12.84 20.7731 12.79L18.5611 12.506L17.5521 10.492C17.4241 10.231 17.2171 10.015 16.9241 9.852C16.2171 9.496 15.3501 9.779 14.9921 10.486L14.4941 11.475C14.3081 11.845 14.4571 12.296 14.8271 12.482C15.1961 12.67 15.6471 12.519 15.8341 12.149L16.2701 11.282L17.2201 13.177C17.4311 13.6 17.8361 13.891 18.3001 13.955L20.4081 14.253L18.8791 15.72C18.5441 16.053 18.3931 16.525 18.4741 16.981L18.8361 19.055L17.7941 18.516C17.4261 18.325 16.9731 18.469 16.7831 18.837C16.5921 19.205 16.7371 19.657 17.1041 19.848L18.2581 20.445C18.4611 20.552 18.6871 20.609 18.9291 20.609C19.0041 20.609 19.0801 20.603 19.1571 20.592C19.5331 20.531 19.8641 20.327 20.0881 20.017C20.3121 19.707 20.4021 19.329 20.3391 18.944L19.9271 16.793L21.5741 15.214C21.7991 14.989 21.9461 14.694 21.9881 14.383Z" fill="black"/>
<path fill-rule="evenodd" clip-rule="evenodd" d="M11.9549 7.47186H11.9679C12.3759 7.47186 12.7109 7.14386 12.7179 6.73486L12.7359 5.66486V5.65286C12.7359 5.24386 12.4089 4.90886 11.9979 4.90186C11.5749 4.87486 11.2429 5.22486 11.2359 5.63886L11.2179 6.70886V6.72186C11.2169 7.12986 11.5449 7.46486 11.9549 7.47186Z" fill="black"/>
<path fill-rule="evenodd" clip-rule="evenodd" d="M14.5448 9.15187C14.7348 9.15187 14.9248 9.07987 15.0708 8.93687L15.8328 8.18687C16.1278 7.89587 16.1318 7.42087 15.8418 7.12587C15.5508 6.83087 15.0758 6.82787 14.7808 7.11687L14.0188 7.86687C13.7238 8.15787 13.7198 8.63287 14.0098 8.92787C14.1568 9.07687 14.3508 9.15187 14.5448 9.15187Z" fill="black"/>
<path fill-rule="evenodd" clip-rule="evenodd" d="M8.78263 8.91522C8.93063 9.09722 9.14663 9.19122 9.36463 9.19122C9.53163 9.19122 9.69863 9.13622 9.83763 9.02322C10.0196 8.87522 10.1146 8.65922 10.1146 8.44122C10.1146 8.27522 10.0586 8.10722 9.94563 7.96822L9.27063 7.13822C9.00863 6.81622 8.53563 6.76822 8.21563 7.03022C8.03363 7.17822 7.93863 7.39422 7.93863 7.61222C7.93863 7.77822 7.99363 7.94622 8.10763 8.08522L8.78263 8.91522Z" fill="black"/>
<path fill-rule="evenodd" clip-rule="evenodd" d="M6.20594 18.5154L5.16394 19.0574L5.52494 16.9824C5.60694 16.5244 5.45594 16.0524 5.11094 15.7104L3.57594 14.2554L5.69694 13.9544C6.16394 13.8904 6.56793 13.5994 6.77893 13.1774L7.72794 11.2784L8.16594 12.1484C8.35193 12.5184 8.80394 12.6694 9.17294 12.4814C9.54293 12.2954 9.69194 11.8444 9.50594 11.4744L9.00594 10.4824C8.64994 9.77839 7.78294 9.49539 7.04694 9.86739C6.78294 10.0144 6.57594 10.2304 6.45094 10.4864L5.48994 12.4694L3.23094 12.7884C2.85594 12.8394 2.52194 13.0334 2.29094 13.3344C2.05994 13.6364 1.96094 14.0084 2.01194 14.3814C2.05294 14.6934 2.20094 14.9884 2.43594 15.2224L4.04794 16.7234L3.65994 18.9524C3.59794 19.3284 3.68794 19.7064 3.91194 20.0164C4.13594 20.3274 4.46594 20.5314 4.86194 20.5954C4.93194 20.6044 5.00194 20.6094 5.07194 20.6094C5.30794 20.6094 5.53593 20.5544 5.73494 20.4484L6.89494 19.8474C7.26294 19.6574 7.40694 19.2044 7.21694 18.8364C7.02594 18.4684 6.57493 18.3244 6.20594 18.5154Z" fill="black"/>
</svg>