<svg width="24" height="24" viewBox="0 0 24 24" fill="none" xmlns="http://www.w3.org/2000/svg">
<path fill-rule="evenodd" clip-rule="evenodd" d="M12.2917 19.6634C12.2703 18.9473 11.67 18.383 10.949 18.4044C10.229 18.4258 9.66278 19.0232 9.68418 19.7393C9.70461 20.4564 10.3059 21.0197 11.0259 20.9993C11.7459 20.9779 12.3131 20.3795 12.2917 19.6634Z" stroke="black" stroke-width="1.5" stroke-linecap="round" stroke-linejoin="round"/>
<path d="M8.93164 14.8521L10.4245 18.538" stroke="black" stroke-width="1.5" stroke-linecap="round" stroke-linejoin="round"/>
<path d="M3.8125 6.73975L5.89367 7.35077L8.01058 12.5774" stroke="black" stroke-width="1.5" stroke-linecap="round" stroke-linejoin="round"/>
<path d="M12.2012 19.2162L20.1892 16.0142" stroke="black" stroke-width="1.5" stroke-linecap="round" stroke-linejoin="round"/>
<path d="M14.2457 15.9364C13.3097 16.2984 12.4642 15.8654 12.1003 14.9314L11.4581 13.2501C11.0933 12.316 11.4212 11.4316 12.361 11.0687L15.0484 10.0315C15.9883 9.6686 16.8299 10.1025 17.1938 11.0366L17.8369 12.7179C18.2008 13.6519 17.8739 14.5363 16.934 14.8993" stroke="black" stroke-width="1.5" stroke-linecap="round" stroke-linejoin="round"/>
<path d="M11.4488 9.03262C10.5128 9.39457 9.6673 8.9616 9.30342 8.02755L8.66126 6.34627C8.2964 5.41223 8.62429 4.5278 9.56417 4.16489L12.2515 3.12771C13.1914 2.7648 14.033 3.19874 14.3969 4.13278L15.04 5.81406C15.4039 6.74713 15.077 7.63253 14.1371 7.99544" stroke="black" stroke-width="1.5" stroke-linecap="round" stroke-linejoin="round"/>
</svg>