<svg width="24" height="25" viewBox="0 0 24 25" fill="none" xmlns="http://www.w3.org/2000/svg">
<path fill-rule="evenodd" clip-rule="evenodd" d="M15.578 12.553C15.578 12.967 15.242 13.303 14.828 13.303C14.414 13.303 14.078 12.967 14.078 12.553V9.68005C14.078 9.26605 14.414 8.93005 14.828 8.93005C15.242 8.93005 15.578 9.26605 15.578 9.68005V12.553ZM9.922 12.553C9.922 12.967 9.586 13.303 9.172 13.303C8.758 13.303 8.422 12.967 8.422 12.553V9.68005C8.422 9.26605 8.758 8.93005 9.172 8.93005C9.586 8.93005 9.922 9.26605 9.922 9.68005V12.553ZM17.06 3.12305H6.94C4.63 3.12305 2.75 5.00805 2.75 7.32505V14.264C2.75 16.581 4.63 18.467 6.94 18.467H8.008C8.517 18.467 8.996 18.666 9.357 19.027L10.778 20.453C11.104 20.781 11.539 20.962 12 20.962H12.001C12.462 20.962 12.895 20.781 13.222 20.453L14.643 19.028C15.005 18.666 15.483 18.467 15.993 18.467H17.06C19.371 18.467 21.25 16.581 21.25 14.264V7.32505C21.25 5.00805 19.371 3.12305 17.06 3.12305Z" fill="black"/>
</svg>