<svg width="24" height="25" viewBox="0 0 24 25" fill="none" xmlns="http://www.w3.org/2000/svg">
<path fill-rule="evenodd" clip-rule="evenodd" d="M8.755 9.60473H15.245C15.659 9.60473 15.995 9.94073 15.995 10.3547C15.995 10.7687 15.659 11.1047 15.245 11.1047H8.755C8.341 11.1047 8.005 10.7687 8.005 10.3547C8.005 9.94073 8.341 9.60473 8.755 9.60473ZM10.674 6.27473H13.326C13.74 6.27473 14.076 6.61073 14.076 7.02473C14.076 7.43873 13.74 7.77473 13.326 7.77473H10.674C10.26 7.77473 9.924 7.43873 9.924 7.02473C9.924 6.61073 10.26 6.27473 10.674 6.27473ZM7.288 13.1817C8.47 13.1817 9.528 13.8407 10.052 14.9007C10.421 15.6477 11.167 16.1127 11.998 16.1127C12.83 16.1127 13.575 15.6477 13.944 14.9007C14.468 13.8407 15.526 13.1817 16.708 13.1817H21.3C21.4105 13.1817 21.5 13.0922 21.5 12.9817V8.18973C21.5 4.87473 19.377 2.64673 16.217 2.64673H7.782C4.623 2.64673 2.5 4.87473 2.5 8.18973V12.9817C2.5 13.0922 2.58954 13.1817 2.7 13.1817H7.288Z" fill="black"/>
<path fill-rule="evenodd" clip-rule="evenodd" d="M16.7081 14.6816C16.1021 14.6816 15.5591 15.0196 15.2901 15.5636C14.6661 16.8276 13.4051 17.6126 11.9981 17.6126C10.5931 17.6126 9.33106 16.8276 8.70706 15.5646C8.43706 15.0196 7.89506 14.6816 7.28806 14.6816H2.70006C2.5896 14.6816 2.50006 14.7712 2.50006 14.8816V16.1636C2.50006 19.4796 4.62306 21.7076 7.78206 21.7076H16.2161C19.3761 21.7076 21.5001 19.4796 21.5001 16.1636V14.8816C21.5001 14.7712 21.4105 14.6816 21.3001 14.6816H16.7081Z" fill="black"/>
</svg>