<svg width="24" height="25" viewBox="0 0 24 25" fill="none" xmlns="http://www.w3.org/2000/svg">
<path fill-rule="evenodd" clip-rule="evenodd" d="M14.5655 13.4915H12.7395V15.3335C12.7395 15.7475 12.4035 16.0835 11.9895 16.0835C11.5755 16.0835 11.2395 15.7475 11.2395 15.3335V13.4915H9.41247C8.99847 13.4915 8.66247 13.1555 8.66247 12.7415C8.66247 12.3275 8.99847 11.9915 9.41247 11.9915H11.2395V10.1545C11.2395 9.74048 11.5755 9.40448 11.9895 9.40448C12.4035 9.40448 12.7395 9.74048 12.7395 10.1545V11.9915H14.5655C14.9795 11.9915 15.3155 12.3275 15.3155 12.7415C15.3155 13.1555 14.9795 13.4915 14.5655 13.4915ZM19.4725 6.85848C17.7805 4.70948 15.2585 3.38748 12.5535 3.22948C9.84147 3.07148 7.19247 4.08248 5.27847 6.00348C2.47247 8.81748 1.70747 13.1395 3.36447 16.7345C3.40447 16.8345 3.52647 17.1385 4.35347 18.5805C4.44647 18.7415 4.43747 18.9375 4.33047 19.0905C4.10847 19.4035 3.82747 19.8055 3.60847 20.1345C3.32547 20.5595 3.29847 21.1035 3.53947 21.5525C3.77847 21.9975 4.24047 22.2745 4.74447 22.2745H4.74647L5.36147 22.2735C7.73247 22.2725 11.1465 22.2705 11.9645 22.2745H11.9975C14.7995 22.2745 17.4485 21.0375 19.2695 18.8775C22.1675 15.4405 22.2525 10.3855 19.4725 6.85848Z" fill="black"/>
</svg>