<svg width="25" height="25" viewBox="0 0 25 25" fill="none" xmlns="http://www.w3.org/2000/svg">
<path fill-rule="evenodd" clip-rule="evenodd" d="M16.7979 14.0009L15.1579 15.5879C15.0919 15.6519 15.0159 15.6969 14.9359 15.7309C14.9329 15.7329 14.9299 15.7359 14.9259 15.7379C14.8339 15.7769 14.7359 15.7989 14.6369 15.7989C14.5389 15.7989 14.4409 15.7769 14.3489 15.7389C14.3089 15.7229 14.2779 15.6929 14.2419 15.6699C14.1989 15.6429 14.1529 15.6239 14.1149 15.5879L12.4749 14.0009C12.1769 13.7129 12.1689 13.2379 12.4569 12.9399C12.7449 12.6439 13.2199 12.6339 13.5179 12.9229L13.8849 13.2779V9.77387C13.8849 9.35987 14.2209 9.02387 14.6349 9.02387C15.0489 9.02387 15.3849 9.35987 15.3849 9.77387V13.2809L15.7549 12.9229C16.0529 12.6359 16.5269 12.6429 16.8159 12.9399C17.1039 13.2379 17.0959 13.7129 16.7979 14.0009ZM11.5889 11.6409C11.4009 11.6409 11.2129 11.5709 11.0669 11.4299L10.6969 11.0729V14.5749C10.6969 14.9889 10.3609 15.3249 9.94692 15.3249C9.53292 15.3249 9.19692 14.9889 9.19692 14.5749V11.0739L8.82992 11.4299C8.53192 11.7169 8.05692 11.7099 7.76892 11.4129C7.48092 11.1149 7.48892 10.6399 7.78692 10.3519L9.41592 8.77587C9.41692 8.77487 9.41792 8.77387 9.41892 8.77187L9.42692 8.76487C9.44992 8.74287 9.47992 8.73287 9.50492 8.71487C9.55592 8.67587 9.60492 8.63587 9.66492 8.61087C9.74992 8.57587 9.83992 8.55987 9.93092 8.55787C9.93692 8.55687 9.94192 8.55387 9.94692 8.55387C10.0439 8.55387 10.1409 8.57387 10.2329 8.61187C10.2749 8.62887 10.3069 8.65987 10.3449 8.68387C10.3869 8.71087 10.4329 8.72887 10.4699 8.76487L12.1099 10.3519C12.4079 10.6399 12.4159 11.1149 12.1279 11.4129C11.9809 11.5639 11.7839 11.6409 11.5889 11.6409ZM19.7739 6.29087C18.0819 4.14287 15.5599 2.81987 12.8539 2.66287C10.1419 2.50887 7.49292 3.51487 5.57892 5.43587C2.77292 8.25087 2.00792 12.5719 3.66592 16.1669C3.77492 16.4389 4.10792 17.0609 4.65492 18.0139C4.74792 18.1749 4.73892 18.3699 4.63092 18.5229C4.40892 18.8359 4.12692 19.2379 3.90792 19.5679C3.62592 19.9919 3.59892 20.5339 3.83892 20.9829C4.07792 21.4299 4.54092 21.7069 5.04792 21.7069H6.41892C8.70392 21.7049 11.5299 21.7029 12.2649 21.7069H12.2979C15.1009 21.7069 17.7489 20.4699 19.5689 18.3089C22.4679 14.8719 22.5539 9.81687 19.7739 6.29087Z" fill="black"/>
</svg>