<svg width="25" height="25" viewBox="0 0 25 25" fill="none" xmlns="http://www.w3.org/2000/svg">
<path fill-rule="evenodd" clip-rule="evenodd" d="M14.516 13.7071C14.37 13.8531 14.178 13.9261 13.987 13.9261C13.794 13.9261 13.602 13.8521 13.455 13.7051L12.302 12.5471L11.151 13.7011C10.859 13.9941 10.383 13.9961 10.091 13.7031C9.79695 13.4111 9.79595 12.9361 10.089 12.6431L11.243 11.4851L10.087 10.3251C9.79395 10.0321 9.79495 9.55706 10.089 9.26506C10.381 8.97206 10.857 8.97306 11.149 9.26706L12.302 10.4221L13.453 9.26806C13.745 8.97406 14.22 8.97306 14.513 9.26606C14.807 9.55806 14.808 10.0331 14.515 10.3261L13.36 11.4851L14.518 12.6461C14.81 12.9401 14.809 13.4151 14.516 13.7071ZM20.916 10.7821C20.517 6.72506 17.32 3.45306 13.315 3.00206C10.933 2.73606 8.63195 3.42706 6.83795 4.95606C4.93595 6.57706 3.77595 8.99906 3.65395 11.6011C3.41195 16.7981 7.61595 20.7501 11.893 21.9671C11.983 21.9931 12.075 22.0061 12.165 22.0061C12.378 22.0061 12.586 21.9371 12.763 21.8041C13.018 21.6111 13.171 21.3051 13.171 20.9851L13.17 19.4991C13.17 19.4991 13.175 19.4921 13.189 19.4901C18.184 18.8881 21.3619 15.3081 20.916 10.7821Z" fill="black"/>
</svg>