<svg width="24" height="24" viewBox="0 0 24 24" fill="none" xmlns="http://www.w3.org/2000/svg">
<path d="M7.61523 11.75C7.61523 11.3358 7.9502 11 8.36523 11H15.1348C15.5498 11 15.8848 11.3358 15.8848 11.75C15.8848 12.1642 15.5498 12.5 15.1348 12.5H8.36523C7.9502 12.5 7.61523 12.1642 7.61523 11.75Z" fill="black"/>
<path d="M12.5527 15.1355C12.5527 15.5497 12.2168 15.8855 11.8027 15.8855H11.751C11.3369 15.8855 11.001 15.5497 11.001 15.1355C11.001 14.7212 11.3369 14.3855 11.751 14.3855H11.8027C12.2168 14.3855 12.5527 14.7212 12.5527 15.1355Z" fill="black"/>
<path d="M12.5527 8.3645C12.5527 8.77881 12.2168 9.1145 11.8027 9.1145H11.751C11.3369 9.1145 11.001 8.77881 11.001 8.3645C11.001 7.95032 11.3369 7.6145 11.751 7.6145H11.8027C12.2168 7.6145 12.5527 7.95032 12.5527 8.3645Z" fill="black"/>
<path fill-rule="evenodd" clip-rule="evenodd" d="M3.49121 3.64734C4.4751 2.59119 5.87793 2 7.5332 2H15.9678C17.627 2 19.0298 2.59082 20.0132 3.64771C20.9922 4.69849 21.5 6.14905 21.5 7.77637V15.7236C21.5 17.351 20.9922 18.8015 20.0132 19.8523C19.0288 20.9092 17.627 21.5 15.9668 21.5H7.5332C5.87402 21.5 4.47119 20.9092 3.48682 19.8524C2.50879 18.8016 2 17.3511 2 15.7236V7.77637C2 6.14795 2.51123 4.69763 3.49121 3.64734ZM4.58789 4.67017C3.91016 5.39673 3.5 6.45959 3.5 7.77637V15.7236C3.5 17.0413 3.90918 18.104 4.58496 18.8302C5.25488 19.5503 6.24414 20 7.5332 20H15.9668C17.2559 20 18.2451 19.5502 18.915 18.8302C19.5908 18.1041 20 17.0414 20 15.7236V7.77637C20 6.45862 19.5908 5.39587 18.915 4.6698C18.2451 3.94971 17.2568 3.5 15.9678 3.5H7.5332C6.24902 3.5 5.26025 3.94946 4.58789 4.67017Z" fill="black"/>
</svg>
