<svg width="24" height="24" viewBox="0 0 24 24" fill="none" xmlns="http://www.w3.org/2000/svg">
<path d="M15.7998 11.752C15.7998 12.1661 15.4639 12.502 15.0498 12.502H8.4502C8.03613 12.502 7.7002 12.1661 7.7002 11.752C7.7002 11.3376 8.03613 11.002 8.4502 11.002H15.0498C15.4639 11.002 15.7998 11.3376 15.7998 11.752Z" fill="black"/>
<path fill-rule="evenodd" clip-rule="evenodd" d="M11.75 2C17.1348 2 21.5 6.36487 21.5 11.75C21.5 17.1342 17.1348 21.5 11.75 21.5C6.36523 21.5 2 17.1342 2 11.75C2 6.36487 6.36523 2 11.75 2ZM20 11.75C20 7.19324 16.3071 3.5 11.75 3.5C7.19287 3.5 3.5 7.19324 3.5 11.75C3.5 16.3058 7.19287 20 11.75 20C16.3071 20 20 16.3058 20 11.75Z" fill="black"/>
</svg>
