<svg width="25" height="24" viewBox="0 0 25 24" fill="none" xmlns="http://www.w3.org/2000/svg">
<path d="M18.0925 14.1245V15.3523M18.0925 15.3523C16.8719 15.3523 15.8825 16.3417 15.8825 17.5623C15.8825 18.7828 16.8719 19.7722 18.0925 19.7722M18.0925 15.3523C19.313 15.3523 20.3025 16.3417 20.3025 17.5623C20.3025 18.7828 19.313 19.7722 18.0925 19.7722M18.0925 19.7722V21M20.0064 18.6673L21.0391 19.2635M21.0391 15.861L20.0064 16.4573M16.1786 16.4573L15.1458 15.861M15.1458 19.2635L16.1786 18.6673" stroke="black" stroke-width="1.5" stroke-linecap="round" stroke-linejoin="round"/>
<path opacity="0.4" d="M14.8236 11.338H16.4524" stroke="black" stroke-width="1.5" stroke-linecap="round" stroke-linejoin="round"/>
<path opacity="0.4" d="M6.77493 11.338H8.4038" stroke="black" stroke-width="1.5" stroke-linecap="round" stroke-linejoin="round"/>
<path opacity="0.4" d="M3.46484 7.5423C8.8674 8.30832 14.351 8.30832 19.7536 7.5423" stroke="black" stroke-width="1.5" stroke-linecap="round" stroke-linejoin="round"/>
<path d="M12.4439 14.5513H7.9819C7.48138 14.5513 7.07562 14.9571 7.07562 15.4576V15.829C7.07562 16.3296 6.66986 16.7353 6.16933 16.7353H4.37369C3.87206 16.7353 3.46584 16.3278 3.46741 15.8262L3.48219 11.1086C3.48079 10.3845 3.70888 9.67857 4.13373 9.09224L5.20788 7.61333C5.29229 7.50011 5.36044 7.3757 5.41037 7.2436L6.36135 4.60218C6.59791 3.92556 7.21275 3.4078 7.9198 3.29008C10.3729 2.90331 12.8714 2.90331 15.3245 3.29008C16.0347 3.40487 16.6538 3.92324 16.8917 4.60218L17.8427 7.2436C17.8925 7.38125 17.9606 7.51107 18.0452 7.63052L19.1017 9.04839C19.536 9.64099 19.7704 10.3567 19.7709 11.0914V11.8413" stroke="black" stroke-width="1.5" stroke-linecap="round" stroke-linejoin="round"/>
</svg>