<svg width="25" height="24" viewBox="0 0 25 24" fill="none" xmlns="http://www.w3.org/2000/svg">
<path d="M9.37969 17.2915C9.37731 17.4773 9.35152 17.6623 9.30364 17.8413C9.19019 18.2671 8.94546 18.6428 8.60648 18.9103C8.2675 19.1778 7.85313 19.3221 7.42712 19.3221C7.00111 19.3221 6.58674 19.1778 6.24776 18.9103C5.90878 18.6428 5.66405 18.2671 5.5506 17.8413C5.50272 17.6623 5.47693 17.4773 5.47455 17.2915C5.51125 16.7807 5.73303 16.3028 6.09513 15.9543C6.45722 15.6057 6.93306 15.4121 7.42712 15.4121C7.92119 15.4121 8.39702 15.6057 8.75912 15.9543C9.12121 16.3028 9.34299 16.7807 9.37969 17.2915Z" stroke="black" stroke-width="1.5" stroke-linecap="round" stroke-linejoin="round"/>
<path d="M19.9957 17.3589C19.9987 17.5384 19.9732 17.7176 19.9199 17.8891C19.806 18.2998 19.5597 18.6621 19.2194 18.9201C18.879 19.1781 18.463 19.3173 18.0353 19.3173C17.6076 19.3173 17.192 19.1781 16.8517 18.9201C16.5114 18.6621 16.2651 18.2998 16.1512 17.8891C16.1068 17.716 16.0848 17.5376 16.086 17.3589C16.086 16.8425 16.2921 16.3476 16.6587 15.9825C17.0253 15.6174 17.5227 15.4121 18.0411 15.4121C18.5596 15.4121 19.0564 15.6174 19.423 15.9825C19.7896 16.3476 19.9957 16.8425 19.9957 17.3589V17.3589Z" stroke="black" stroke-width="1.5" stroke-linecap="round" stroke-linejoin="round"/>
<path d="M19.1578 11.5614L16.9945 7.47356C16.8892 7.27972 16.7321 7.1184 16.5413 7.00773C16.3505 6.89706 16.1334 6.84124 15.9128 6.84612H13.1976C13.0968 6.84612 12.9971 6.86562 12.904 6.90422C12.8108 6.94281 12.726 6.9998 12.6547 7.07111C12.5834 7.14242 12.5269 7.22722 12.4883 7.3204C12.4497 7.41357 12.4297 7.5132 12.4297 7.61405V11.5614" stroke="black" stroke-width="1.5" stroke-linecap="round" stroke-linejoin="round"/>
<path d="M16.0959 17.3262H9.37891" stroke="black" stroke-width="1.5" stroke-linecap="round" stroke-linejoin="round"/>
<path d="M2.5 11.6152H20.3367C20.9104 11.6152 21.4605 11.8423 21.8662 12.248C22.2719 12.6537 22.5 13.2048 22.5 13.7785V15.4549C22.5 16.0286 22.2719 16.5787 21.8662 16.9844C21.4605 17.3901 20.9104 17.6182 20.3367 17.6182H19.9797" stroke="black" stroke-width="1.5" stroke-linecap="round" stroke-linejoin="round"/>
<path opacity="0.4" d="M2.50977 11.6152V6.84494C2.50977 6.2712 2.73732 5.72112 3.14302 5.31542C3.54872 4.90972 4.09933 4.68164 4.67307 4.68164H15.7383C15.9899 4.68445 16.2301 4.78577 16.408 4.96367C16.5859 5.14157 16.6873 5.38179 16.6901 5.63337V5.63337V6.85551" stroke="black" stroke-width="1.5" stroke-linecap="round" stroke-linejoin="round"/>
<path d="M5.43106 17.6397H4.68479C4.11104 17.6397 3.56096 17.4116 3.15526 17.0059C2.74957 16.6002 2.52148 16.0501 2.52148 15.4764V11.7012" stroke="black" stroke-width="1.5" stroke-linecap="round" stroke-linejoin="round"/>
<path opacity="0.4" d="M12.6582 13.6699H13.729" stroke="black" stroke-width="1.5" stroke-linecap="round" stroke-linejoin="round"/>
<path opacity="0.4" d="M12.3653 8.50012H8.94727" stroke="black" stroke-width="1.5" stroke-linecap="round" stroke-linejoin="round"/>
</svg>