<svg width="25" height="25" viewBox="0 0 25 25" fill="none" xmlns="http://www.w3.org/2000/svg">
<path d="M15.6665 10.4329C15.6665 10.4329 16.8395 17.4355 12.5412 17.4355C10.0113 17.4355 6.75981 17.407 6.31836 17.4355C4.8143 17.4355 3.05075 14.9493 5.44311 12.5569C9.30659 8.69347 15.1597 10.5702 20.244 10.1986M20.244 10.1986L21.25 8.63196M20.244 10.1986L21.0759 11.7606" stroke="black" stroke-width="1.5" stroke-linecap="round" stroke-linejoin="round"/>
<path opacity="0.4" d="M13.9937 20.7126H5.78482C4.82579 20.7126 3.50491 20.0721 3.24996 19.1476" stroke="black" stroke-width="1.5" stroke-linecap="round" stroke-linejoin="round"/>
<path d="M4.48828 14.6108L9.37088 14.6108C11.0136 14.6108 11.7787 14.4097 12.534 10.1158" stroke="black" stroke-width="1.5" stroke-linecap="round" stroke-linejoin="round"/>
<g opacity="0.4">
<path d="M11.3594 6.89628V10.1157" stroke="black" stroke-width="1.5" stroke-linecap="round" stroke-linejoin="round"/>
<path d="M11.368 7.83134C15.1675 7.83134 18.2476 7.21026 18.2476 6.44411C18.2476 5.67797 15.1675 5.05688 11.368 5.05688C7.56854 5.05688 4.48846 5.67797 4.48846 6.44411C4.48846 7.02215 6.24174 7.51761 8.73444 7.72606" stroke="black" stroke-width="1.5" stroke-linecap="round" stroke-linejoin="round"/>
</g>
</svg>