<svg width="25" height="24" viewBox="0 0 25 24" fill="none" xmlns="http://www.w3.org/2000/svg">
<path d="M5.66785 6.12125L4.77795 12.6854C4.70653 13.1958 4.74534 13.7151 4.89211 14.2092C5.03889 14.7032 5.29016 15.16 5.62868 15.5486C5.9672 15.9372 6.38515 16.2487 6.85438 16.4619C7.32362 16.675 7.83317 16.7846 8.34854 16.7838H17.153C17.6678 16.783 18.1763 16.6717 18.6447 16.458C19.1132 16.2444 19.5308 15.933 19.869 15.5447C20.2072 15.1565 20.4582 14.7006 20.6056 14.2073C20.753 13.7139 20.7933 13.1955 20.7235 12.6854L19.8236 6.12125C19.7055 5.25764 19.2791 4.46509 18.6228 3.89149C17.9664 3.31789 17.1247 3.00156 16.253 3.00015H9.27761C8.39924 2.99206 7.54804 3.3046 6.88352 3.87907C6.21901 4.45354 5.78684 5.25094 5.66785 6.12125V6.12125Z" stroke="black" stroke-width="1.5" stroke-linecap="round" stroke-linejoin="round"/>
<path opacity="0.4" d="M8.39756 16.7832L5.51172 20.9995M17.0742 16.7832L19.9601 20.9995M18.972 19.5518H6.49902" stroke="black" stroke-width="1.5" stroke-linecap="round" stroke-linejoin="round"/>
<path d="M8.58362 3.05859L10.3056 9.09444C10.3967 9.35409 10.5657 9.57986 10.79 9.73929C11.0142 9.89872 11.2824 9.98413 11.5576 9.98482H13.9053C14.1805 9.98413 14.4487 9.89872 14.673 9.73929C14.8972 9.57986 15.0668 9.35409 15.1578 9.09444L16.8793 3.05859" stroke="black" stroke-width="1.5" stroke-linecap="round" stroke-linejoin="round"/>
<path opacity="0.4" d="M16.7002 13.1053V13.1533M8.9753 13.1053V13.1533M9.16983 13.1156C9.16983 13.2236 9.08217 13.3112 8.97411 13.3112C8.86605 13.3112 8.7785 13.2236 8.7785 13.1156C8.7785 13.0075 8.86605 12.9199 8.97411 12.9199C9.08217 12.9199 9.16983 13.0075 9.16983 13.1156ZM16.889 13.1156C16.889 13.2236 16.8013 13.3112 16.6933 13.3112C16.5852 13.3112 16.4977 13.2236 16.4977 13.1156C16.4977 13.0075 16.5852 12.9199 16.6933 12.9199C16.8013 12.9199 16.889 13.0075 16.889 13.1156Z" stroke="black" stroke-width="1.5" stroke-linecap="round" stroke-linejoin="round"/>
</svg>