<svg width="25" height="24" viewBox="0 0 25 24" fill="none" xmlns="http://www.w3.org/2000/svg">
<path opacity="0.4" d="M18.98 10.3818L16.6499 6.08106C16.5441 5.88122 16.3858 5.71497 16.1919 5.59864C15.998 5.48231 15.7759 5.42115 15.5498 5.42188H12.9697C12.8647 5.42188 12.7606 5.44222 12.6636 5.48243C12.5665 5.52263 12.4786 5.58197 12.4043 5.65626C12.33 5.73054 12.2712 5.81799 12.231 5.91505C12.1908 6.01211 12.1699 6.11663 12.1699 6.22169V10.3916" stroke="black" stroke-width="1.5" stroke-linecap="round" stroke-linejoin="round"/>
<path d="M5.58008 16.8105H4.79004C4.1835 16.8079 3.60223 16.5656 3.17334 16.1367C2.74445 15.7078 2.50263 15.127 2.5 14.5205V10.4609H20.2197C20.8253 10.4636 21.4052 10.7056 21.8325 11.1348C22.2598 11.5639 22.5 12.1454 22.5 12.751V14.5205C22.5 15.1261 22.2598 15.7075 21.8325 16.1367C21.4052 16.5659 20.8253 16.8079 20.2197 16.8105H19.8696" stroke="black" stroke-width="1.5" stroke-linecap="round" stroke-linejoin="round"/>
<path d="M9.75 16.3711H15.75" stroke="black" stroke-width="1.5" stroke-linecap="round" stroke-linejoin="round"/>
<path opacity="0.4" d="M12.5117 12.7812H13.6517" stroke="black" stroke-width="1.5" stroke-linecap="round" stroke-linejoin="round"/>
<path d="M9.64982 16.9772C9.53976 17.4182 9.28375 17.8097 8.92211 18.0898C8.56048 18.3699 8.11407 18.5223 7.65471 18.5223C7.19536 18.5223 6.74944 18.3699 6.3878 18.0898C6.02617 17.8097 5.76967 17.4182 5.65961 16.9772C5.61131 16.797 5.58799 16.6107 5.58996 16.4243C5.58996 15.888 5.80557 15.374 6.18907 14.9948C6.57258 14.6155 7.09238 14.4023 7.63474 14.4023C8.17711 14.4023 8.69739 14.6155 9.0809 14.9948C9.58947 15.4977 9.83138 16.3 9.64982 16.9772Z" stroke="black" stroke-width="1.5" stroke-linecap="round" stroke-linejoin="round"/>
<path d="M19.8529 16.3769C19.8517 16.56 19.8252 16.7425 19.7734 16.9186C19.6533 17.3356 19.3952 17.7033 19.0385 17.9651C18.6819 18.227 18.2463 18.368 17.7984 18.368C17.3504 18.368 16.9148 18.227 16.5582 17.9651C16.2015 17.7033 15.9434 17.3356 15.8234 16.9186C15.7716 16.7425 15.7446 16.56 15.7433 16.3769C15.7236 16.1045 15.7622 15.8313 15.8566 15.5739C15.9509 15.3165 16.0988 15.0809 16.2916 14.8812C16.4843 14.6815 16.7179 14.5221 16.9771 14.4132C17.2363 14.3043 17.5158 14.248 17.7984 14.248C18.0809 14.248 18.3604 14.3043 18.6196 14.4132C18.8788 14.5221 19.1119 14.6815 19.3046 14.8812C19.4974 15.0809 19.6458 15.3165 19.7402 15.5739C19.8345 15.8313 19.8726 16.1045 19.8529 16.3769Z" stroke="black" stroke-width="1.5" stroke-linecap="round" stroke-linejoin="round"/>
</svg>