<svg width="24" height="24" viewBox="0 0 24 24" fill="none" xmlns="http://www.w3.org/2000/svg">
<path fill-rule="evenodd" clip-rule="evenodd" d="M15.8511 18.9655C16.0438 19.3321 15.9029 19.7856 15.5363 19.9783C15.2819 20.1121 15.0433 20.4493 14.8592 20.8914C14.7747 21.0942 14.7153 21.286 14.6773 21.4275C14.6584 21.4976 14.6452 21.5537 14.637 21.5906C14.6329 21.609 14.6301 21.6225 14.6285 21.6304L14.6272 21.637C14.5521 22.0442 14.1611 22.3135 13.7539 22.2385C13.3465 22.1635 13.0771 21.7725 13.1521 21.3651L13.8897 21.5009C13.1521 21.3651 13.152 21.3653 13.1521 21.3651L13.1524 21.3633L13.1528 21.3609L13.1541 21.3542L13.1582 21.3337C13.1615 21.317 13.1663 21.2942 13.1725 21.266C13.185 21.2098 13.2035 21.1317 13.2288 21.0376C13.2792 20.8505 13.3584 20.5934 13.4745 20.3147C13.6914 19.7939 14.1016 19.0379 14.8382 18.6506C15.2048 18.4579 15.6583 18.5988 15.8511 18.9655Z" fill="black"/>
<path fill-rule="evenodd" clip-rule="evenodd" d="M11.4937 1.75363C13.4618 1.70983 15.4553 2.05027 17.1185 3.45301C18.1164 4.29465 18.9498 5.26537 19.4494 6.41053C19.9544 7.56811 20.0995 8.86182 19.7814 10.303C19.6789 10.7675 19.7875 11.3278 20.0607 11.9446C20.3296 12.5517 20.7204 13.1296 21.0647 13.5922C21.6694 14.4045 21.36 15.544 20.3985 15.9148L19.471 16.2724C19.4489 16.2809 19.4319 16.2985 19.424 16.3203L19.1172 18.9339L19.1154 18.9458C19.0339 19.4894 18.7476 19.9419 18.3082 20.2166C17.8789 20.4849 17.3665 20.5452 16.8815 20.4431L16.871 20.4409L14.0902 19.8138C14.0896 19.8137 14.0891 19.8135 14.0885 19.8134C13.7495 19.7384 13.4559 19.5943 13.2173 19.3727C12.9829 19.155 12.8412 18.8991 12.7474 18.6614C12.6564 18.4306 12.6002 18.1883 12.5558 17.9851C12.5455 17.9375 12.5357 17.8917 12.5262 17.8473C12.4917 17.6863 12.4611 17.5432 12.4202 17.3948C12.3099 16.9955 12.5443 16.5825 12.9436 16.4723C13.3429 16.3621 13.7559 16.5964 13.8661 16.9957C13.92 17.191 13.9622 17.3889 13.9975 17.5543C14.0059 17.5934 14.0138 17.6306 14.0214 17.6656C14.065 17.8654 14.1003 18.0032 14.1428 18.1111C14.1827 18.2121 14.2166 18.2536 14.2381 18.2736C14.2552 18.2895 14.2975 18.3235 14.4131 18.3489L14.4166 18.3497L17.1949 18.9762C17.3591 19.0098 17.4627 18.9761 17.5132 18.9446C17.553 18.9197 17.6081 18.8681 17.6305 18.7329L17.9422 16.0768L17.9474 16.05C18.0503 15.5142 18.4222 15.0692 18.9313 14.8729L19.8588 14.5152C19.8658 14.5125 19.8705 14.51 19.8735 14.5082C19.8732 14.5076 19.873 14.507 19.8726 14.5063C19.871 14.5024 19.8677 14.4962 19.8616 14.4879C19.4934 13.9934 19.0252 13.3107 18.6892 12.552C18.3574 11.8029 18.1153 10.8924 18.3167 9.97967C18.5689 8.83701 18.4484 7.86729 18.0746 7.01034C17.6953 6.14099 17.0365 5.34611 16.1514 4.59964C14.881 3.52819 13.312 3.21354 11.5271 3.25326C11.113 3.26247 10.7698 2.93424 10.7606 2.52013C10.7514 2.10602 11.0796 1.76284 11.4937 1.75363Z" fill="black"/>
<path fill-rule="evenodd" clip-rule="evenodd" d="M3.94281 12.2085C4.30442 12.0065 4.76133 12.1359 4.96336 12.4975C6.48098 15.214 7.2531 18.435 5.88023 21.5658C5.71388 21.9451 5.27151 22.1178 4.89217 21.9514C4.51282 21.7851 4.34015 21.3427 4.5065 20.9634C5.61885 18.4267 5.04666 15.7221 3.65386 13.2291C3.45184 12.8675 3.58121 12.4106 3.94281 12.2085Z" fill="black"/>
<path fill-rule="evenodd" clip-rule="evenodd" d="M5.35347 2.36914C5.66743 2.36914 5.94817 2.5647 6.05699 2.85921L6.158 3.1326C6.158 3.1326 6.158 3.13261 6.158 3.1326C6.4631 3.95833 7.11299 4.60895 7.93678 4.91422C7.93678 4.91422 7.93679 4.91422 7.93678 4.91422L8.20979 5.01537C8.50395 5.12437 8.6992 5.40494 8.6992 5.71865C8.6992 6.03236 8.50395 6.31293 8.20979 6.42192L7.9368 6.52307C7.93679 6.52308 7.93681 6.52307 7.9368 6.52307C7.11301 6.82834 6.4631 7.47896 6.158 8.30469L6.05698 8.57809C5.94816 8.87258 5.66742 9.06813 5.35347 9.06813C5.03951 9.06813 4.75878 8.87258 4.64996 8.57808L4.54895 8.30471C4.24385 7.47898 3.59394 6.82834 2.77014 6.52307L2.49717 6.4219C2.20303 6.31289 2.00781 6.03234 2.00781 5.71865C2.00781 5.40496 2.20303 5.12441 2.49717 5.0154L2.7701 4.91424C3.5939 4.60897 4.24384 3.95834 4.54894 3.13261C4.54894 3.13261 4.54894 3.13261 4.54894 3.13261L4.64995 2.85921C4.75877 2.5647 5.0395 2.36914 5.35347 2.36914ZM5.35347 4.76914C5.08633 5.13113 4.76651 5.45125 4.40481 5.71865C4.76651 5.98604 5.08633 6.30617 5.35347 6.66816C5.62062 6.30617 5.94043 5.98604 6.30213 5.71865C5.94043 5.45125 5.62062 5.13113 5.35347 4.76914Z" fill="black"/>
<path fill-rule="evenodd" clip-rule="evenodd" d="M11.1903 6.64465C11.5205 6.64465 11.8119 6.86062 11.9079 7.17657C12.007 7.50241 12.2614 7.75683 12.5857 7.85569C12.9013 7.95191 13.117 8.24312 13.117 8.5731C13.117 8.90308 12.9013 9.1943 12.5857 9.29051C12.2614 9.38938 12.007 9.64379 11.9079 9.96964C11.8119 10.2856 11.5205 10.5016 11.1903 10.5016C10.8601 10.5016 10.5688 10.2856 10.4727 9.96964C10.3737 9.64379 10.1193 9.38937 9.79498 9.29051C9.47934 9.19429 9.26367 8.90308 9.26367 8.5731C9.26367 8.24313 9.47934 7.95191 9.79498 7.8557C10.1193 7.75683 10.3737 7.50241 10.4727 7.17657C10.5688 6.86062 10.8601 6.64465 11.1903 6.64465Z" fill="black"/>
</svg>
