<svg width="24" height="24" viewBox="0 0 24 24" fill="none" xmlns="http://www.w3.org/2000/svg">
<path d="M5.71053 22.2304C5.71053 22.2304 5.66054 22.2304 5.63054 22.2304C5.22054 22.1904 4.92053 21.8204 4.96053 21.4104C5.09053 20.1304 5.31054 16.5004 4.69054 15.0104L4.41054 14.3404C3.39054 11.9404 2.35053 9.4704 3.62053 6.5304C4.90053 3.5704 7.79054 1.83042 11.5305 1.74042C13.8805 1.70042 15.6505 2.2204 17.0605 3.4104C19.1205 5.1404 19.3805 7.41042 19.6105 9.40042C19.6705 9.94042 19.7305 10.4704 19.8305 10.9704C19.9205 11.4104 20.1605 11.9204 20.4105 12.4504C20.6805 13.0204 20.9605 13.6004 21.1105 14.2204C21.3305 15.6104 20.2205 15.9204 19.7505 16.0504C19.6005 16.0904 19.3405 16.1704 19.2905 16.2204L19.1605 18.5804C19.0005 19.4404 18.2705 20.0704 17.4005 20.1104L14.8905 20.2304V21.4704C14.8905 21.8804 14.5505 22.2204 14.1405 22.2204C13.7305 22.2204 13.3905 21.8804 13.3905 21.4704V20.1404C13.3905 19.3904 13.9705 18.7804 14.7205 18.7404L17.3305 18.6204C17.4905 18.6204 17.6305 18.5004 17.6805 18.3404L17.8105 15.9704C18.0005 14.9804 18.8805 14.7304 19.3505 14.6004C19.4405 14.5804 19.5505 14.5404 19.6305 14.5104C19.5205 14.0504 19.2905 13.5804 19.0605 13.0804C18.7705 12.4804 18.4805 11.8704 18.3605 11.2404C18.2605 10.7004 18.1905 10.1304 18.1205 9.5604C17.9005 7.6704 17.6905 5.89041 16.0905 4.54041C14.9705 3.60041 13.5405 3.1704 11.5605 3.2204C8.43054 3.2904 6.04054 4.7104 5.00054 7.1004C3.98054 9.4404 4.82053 11.4304 5.80053 13.7204L6.09054 14.4004C6.97054 16.5104 6.52054 21.0304 6.47054 21.5404C6.43054 21.9304 6.10055 22.2104 5.73055 22.2104L5.71053 22.2304Z" fill="black"/>
<path d="M12.9301 13.8103C12.5201 13.8103 12.1801 13.4703 12.1801 13.0603V10.0803C12.1801 9.80032 11.9501 9.57031 11.6701 9.57031C11.3901 9.57031 11.1602 9.80032 11.1602 10.0803V10.4203C11.1602 10.8303 10.8202 11.1703 10.4102 11.1703C10.0002 11.1703 9.66016 10.8303 9.66016 10.4203V10.0803C9.66016 8.97032 10.5601 8.07031 11.6701 8.07031C12.7801 8.07031 13.6801 8.97032 13.6801 10.0803V13.0603C13.6801 13.4703 13.3401 13.8103 12.9301 13.8103Z" fill="black"/>
<path d="M8.64043 8.86008C8.51043 8.86008 8.39044 8.83007 8.27044 8.76007C7.91044 8.56007 7.78044 8.10008 7.99044 7.74008C8.75044 6.41008 10.1704 5.58008 11.7004 5.58008C12.2704 5.58008 12.8305 5.69006 13.3505 5.91006C13.7305 6.07006 13.9104 6.51008 13.7504 6.89008C13.5904 7.27008 13.1504 7.45007 12.7704 7.29007C11.5404 6.77007 9.97044 7.29007 9.30044 8.48007C9.16044 8.72007 8.91044 8.86008 8.65044 8.86008H8.64043Z" fill="black"/>
<path d="M15.2204 13.2106C14.8104 13.2106 14.4704 12.8706 14.4704 12.4606V9.8506C14.4704 9.2706 14.3004 8.7206 13.9704 8.2606C13.7304 7.9206 13.8104 7.45061 14.1504 7.21061C14.4904 6.97061 14.9604 7.0506 15.2004 7.3906C15.7104 8.1106 15.9804 8.9606 15.9804 9.8506V12.4606C15.9804 12.8706 15.6404 13.2106 15.2304 13.2106H15.2204Z" fill="black"/>
<path d="M10.4204 14.3702C10.0104 14.3702 9.67041 14.0302 9.67041 13.6202V12.4902C9.67041 12.0802 10.0104 11.7402 10.4204 11.7402C10.8304 11.7402 11.1704 12.0802 11.1704 12.4902V13.6202C11.1704 14.0302 10.8304 14.3702 10.4204 14.3702Z" fill="black"/>
<path d="M8.19043 13.1995C7.78043 13.1995 7.44043 12.8595 7.44043 12.4495V10.2695C7.44043 9.85953 7.78043 9.51953 8.19043 9.51953C8.60043 9.51953 8.94043 9.85953 8.94043 10.2695V12.4495C8.94043 12.8595 8.60043 13.1995 8.19043 13.1995Z" fill="black"/>
</svg>