<svg width="24" height="24" viewBox="0 0 24 24" fill="none" xmlns="http://www.w3.org/2000/svg">
<path d="M14.3303 22.3806C14.2303 22.3806 14.1304 22.3606 14.0404 22.3206C13.6604 22.1606 13.4803 21.7206 13.6403 21.3406L13.7703 21.0306C14.1703 20.0506 14.6303 18.9406 16.4003 18.9406C16.5603 18.9406 16.7303 18.9506 16.9003 18.9706C17.1703 18.9906 17.4204 19.0106 17.5704 18.9506C17.6004 18.9406 17.7004 18.9006 17.7304 18.7106L18.0404 16.0906C18.1504 15.5006 18.5303 15.0506 19.0303 14.8606L19.9603 14.5006C18.6503 12.7006 18.1403 11.2306 18.4203 9.9606C18.8703 7.9206 18.1803 6.21059 16.2503 4.58059C15.1103 3.62059 13.6303 3.18062 11.6303 3.23062C8.36035 3.30062 5.77034 4.81064 4.71034 7.25064C3.97034 8.96064 4.09035 10.7206 5.07035 12.4706C6.86035 15.6806 7.18033 18.8206 5.99033 21.5406C5.82033 21.9206 5.38034 22.0906 5.00034 21.9306C4.62034 21.7606 4.45033 21.3206 4.61033 20.9406C5.62033 18.6306 5.34035 16.0306 3.76035 13.2106C2.56035 11.0606 2.41034 8.79061 3.34034 6.66061C4.64034 3.66061 7.73035 1.82062 11.6004 1.73062C13.9904 1.69062 15.7903 2.22063 17.2203 3.43063C19.5903 5.43063 20.4603 7.6706 19.8803 10.2806C19.7003 11.0806 20.1403 12.1906 21.1603 13.5706C21.4503 13.9606 21.5403 14.4506 21.4103 14.9006C21.2803 15.3506 20.9403 15.7106 20.4903 15.8906L19.5603 16.2506L19.2103 18.9006C19.1103 19.5806 18.7103 20.1006 18.1203 20.3406C17.6403 20.5306 17.1603 20.4906 16.7703 20.4606C16.6403 20.4506 16.5203 20.4406 16.3903 20.4406C15.6503 20.4406 15.5503 20.6206 15.1503 21.6006L15.0104 21.9306C14.8904 22.2206 14.6104 22.3906 14.3204 22.3906L14.3303 22.3806Z" fill="black"/>
<path d="M13.9601 11.9812H7.84009C7.57009 11.9812 7.3301 11.8412 7.1901 11.6112L4.03009 6.2212C3.82009 5.8612 3.94008 5.40123 4.30008 5.19123C4.66008 4.98123 5.12008 5.10119 5.33008 5.46119L8.27008 10.4812H13.9601C14.3701 10.4812 14.7101 10.8212 14.7101 11.2312C14.7101 11.6412 14.3701 11.9812 13.9601 11.9812Z" fill="black"/>
<path d="M14.4507 8.09031H11.6807C11.2707 8.09031 10.9307 7.75031 10.9307 7.34031C10.9307 6.93031 11.2707 6.59031 11.6807 6.59031H14.0107L15.7507 3.45029C15.9507 3.09029 16.4107 2.96031 16.7707 3.16031C17.1307 3.36031 17.2607 3.82033 17.0607 4.18033L15.1007 7.7103C14.9707 7.9503 14.7207 8.10032 14.4407 8.10032L14.4507 8.09031Z" fill="black"/>
<path d="M10.8105 16.4502C10.6205 16.4502 10.4305 16.3802 10.2805 16.2302L9.04047 14.9902H5.23047C4.82047 14.9902 4.48047 14.6502 4.48047 14.2402C4.48047 13.8302 4.82047 13.4902 5.23047 13.4902H9.35046C9.55046 13.4902 9.74046 13.5702 9.88046 13.7102L11.3405 15.1702C11.6305 15.4602 11.6305 15.9402 11.3405 16.2302C11.1905 16.3802 11.0005 16.4502 10.8105 16.4502Z" fill="black"/>
<path d="M10.9307 8.83984C10.1007 8.83984 9.43066 8.16984 9.43066 7.33984C9.43066 6.50984 10.1007 5.83984 10.9307 5.83984C11.7607 5.83984 12.4307 6.50984 12.4307 7.33984C12.4307 8.16984 11.7607 8.83984 10.9307 8.83984Z" fill="black"/>
<path d="M11.3403 17.7305C10.5103 17.7305 9.84033 17.0605 9.84033 16.2305C9.84033 15.4005 10.5103 14.7305 11.3403 14.7305C12.1703 14.7305 12.8403 15.4005 12.8403 16.2305C12.8403 17.0605 12.1703 17.7305 11.3403 17.7305Z" fill="black"/>
<path d="M14.8506 12.7305C14.0206 12.7305 13.3506 12.0605 13.3506 11.2305C13.3506 10.4005 14.0206 9.73047 14.8506 9.73047C15.6806 9.73047 16.3506 10.4005 16.3506 11.2305C16.3506 12.0605 15.6806 12.7305 14.8506 12.7305Z" fill="black"/>
</svg>