<svg width="24" height="24" viewBox="0 0 24 24" fill="none" xmlns="http://www.w3.org/2000/svg">
<path fill-rule="evenodd" clip-rule="evenodd" d="M7.52362 5.14428C6.18055 6.35314 5.44404 8.04552 5.89196 10.075C6.09533 10.9964 5.85095 11.9163 5.51535 12.674C5.17549 13.4413 4.70185 14.1321 4.32919 14.6326C4.31645 14.6498 4.31423 14.6601 4.31381 14.6623C4.31381 14.6623 4.31573 14.6643 4.31741 14.6654C4.32059 14.6676 4.32651 14.6711 4.33621 14.6748C4.41191 14.704 4.48869 14.7293 4.58597 14.7614C4.63148 14.7765 4.68148 14.793 4.73795 14.812C4.89664 14.8656 5.09028 14.9347 5.27918 15.028C5.65335 15.2127 6.1387 15.5595 6.26588 16.222C6.30831 16.4429 6.34078 16.7212 6.37191 16.9879C6.38145 17.0696 6.39086 17.1502 6.40039 17.2278C6.4443 17.5852 6.49571 17.9316 6.57741 18.2386C6.66098 18.5527 6.76088 18.764 6.8643 18.8893C6.94684 18.9893 7.02802 19.0354 7.16234 19.0426L10.1479 19.2025C10.3954 19.2158 10.5571 19.1701 10.6707 19.111C10.7876 19.0502 10.8975 18.9521 11.0051 18.7992C11.2408 18.4642 11.3896 17.988 11.5646 17.3969L11.5668 17.3894C11.6844 16.9923 12.1017 16.7656 12.4989 16.8832C12.896 17.0008 13.1227 17.4182 13.0051 17.8153L13.0029 17.8227C12.998 17.8391 12.9931 17.8559 12.9881 17.8727C12.8325 18.3992 12.6238 19.1053 12.232 19.6623C12.0195 19.9643 11.739 20.2461 11.3629 20.4417C10.9837 20.639 10.55 20.7262 10.0677 20.7004L7.0821 20.5404C6.48743 20.5086 6.02954 20.2344 5.70739 19.844C5.40612 19.479 5.23572 19.0298 5.12785 18.6243C5.01811 18.2119 4.95693 17.7798 4.91159 17.4108C4.8984 17.3034 4.88677 17.204 4.87596 17.1117C4.84694 16.8637 4.8239 16.6669 4.79278 16.5048C4.79129 16.4969 4.79043 16.4924 4.77798 16.4793C4.75748 16.4577 4.71096 16.4203 4.61505 16.373C4.51921 16.3256 4.40323 16.2822 4.25811 16.2332C4.2261 16.2224 4.19039 16.2106 4.15247 16.1981C4.04036 16.1611 3.90891 16.1177 3.79652 16.0744C2.82877 15.7012 2.51734 14.5545 3.126 13.7369C3.47488 13.2683 3.87113 12.6823 4.14384 12.0666C4.42081 11.4412 4.53166 10.8715 4.42721 10.3983C3.84659 7.76756 4.83504 5.54607 6.52013 4.02938C8.18426 2.53155 10.5384 1.70162 12.8105 1.75218C15.7682 1.81791 18.4077 3.20707 19.9056 5.35904C21.4222 7.5378 21.7232 10.4385 20.0927 13.358C18.6814 15.884 18.1007 18.6263 19.2288 21.1988C19.3951 21.5781 19.2225 22.0205 18.8431 22.1869C18.4638 22.3532 18.0214 22.1805 17.855 21.8012C16.4664 18.6345 17.2471 15.376 18.7831 12.6265C20.1391 10.1986 19.8572 7.91506 18.6745 6.21597C17.4732 4.49009 15.2974 3.30782 12.7771 3.25181C10.8649 3.20926 8.88764 3.91657 7.52362 5.14428Z" fill="black"/>
<path d="M8.4985 22.2306C8.4385 22.2306 8.3785 22.2307 8.3085 22.2107C7.9085 22.1107 7.66852 21.7007 7.76852 21.3007C7.88852 20.8407 7.80852 20.2506 7.76852 20.0606C7.67852 19.6606 7.93846 19.2607 8.33846 19.1707C8.74846 19.0807 9.13848 19.3307 9.22848 19.7407C9.24848 19.8407 9.44848 20.7807 9.22848 21.6807C9.13848 22.0207 8.8385 22.2407 8.4985 22.2407V22.2306Z" fill="black"/>
<path d="M9.67853 12.0913C9.03853 12.0913 8.44852 11.8713 8.04852 11.1313C7.93852 10.9313 7.74854 10.3313 7.74854 9.75131C7.74854 6.91131 10.0585 4.61133 12.8885 4.61133C15.7185 4.61133 18.0285 6.92131 18.0285 9.75131C18.0285 10.2813 18.0285 10.6713 17.6985 11.1813C17.0085 12.2413 15.9085 11.9913 14.9285 11.7813C14.3885 11.6613 13.8285 11.5113 13.1085 11.5313C12.3985 11.5313 11.7285 11.7013 11.1285 11.8513C10.6685 11.9713 10.1485 12.0913 9.65851 12.0913H9.67853ZM12.8985 6.11133C10.8885 6.11133 9.25854 7.74131 9.25854 9.75131C9.25854 10.0613 9.3785 10.4013 9.3985 10.4613C9.4985 10.6413 9.62851 10.6813 10.7885 10.3913C11.4285 10.2313 12.2285 10.0313 13.1285 10.0313C13.9185 10.0313 14.6985 10.1913 15.2785 10.3213C16.1985 10.5313 16.3585 10.5213 16.4585 10.3713C16.5385 10.2413 16.5485 10.2313 16.5485 9.83133C16.5485 7.75133 14.9185 6.11133 12.9085 6.11133H12.8985Z" fill="black"/>
</svg>