<svg width="24" height="24" viewBox="0 0 24 24" fill="none" xmlns="http://www.w3.org/2000/svg">
<path d="M5.71031 22.2304C5.71031 22.2304 5.6603 22.2304 5.6303 22.2304C5.2203 22.1904 4.92031 21.8204 4.96031 21.4104C5.10031 20.1304 5.31029 16.5004 4.69029 15.0104L4.41033 14.3404C3.39033 11.9404 2.34035 9.4704 3.62035 6.5304C4.90035 3.5704 7.79032 1.83042 11.5303 1.74042C13.8803 1.70042 15.6503 2.2204 17.0703 3.4104C19.1203 5.1404 19.3903 7.40042 19.6203 9.40042C19.6803 9.94042 19.7403 10.4704 19.8403 10.9704C19.9303 11.4104 20.1703 11.9204 20.4203 12.4504C20.6903 13.0104 20.9703 13.6004 21.1203 14.2204C21.3403 15.6104 20.2303 15.9204 19.7603 16.0504C19.6203 16.0904 19.3503 16.1704 19.3003 16.2204L19.1703 18.5804C19.0103 19.4404 18.2803 20.0704 17.4103 20.1104L14.9003 20.2304V21.4704C14.9003 21.8804 14.5603 22.2204 14.1503 22.2204C13.7403 22.2204 13.4003 21.8804 13.4003 21.4704V20.1404C13.4003 19.3904 13.9803 18.7804 14.7303 18.7404L17.3403 18.6204C17.5003 18.6204 17.6403 18.5004 17.6903 18.3404L17.8203 15.9704C18.0103 14.9804 18.8903 14.7304 19.3603 14.6004C19.4503 14.5804 19.5603 14.5404 19.6503 14.5104C19.5403 14.0504 19.3103 13.5804 19.0803 13.0904C18.7903 12.4904 18.5003 11.8804 18.3803 11.2504C18.2803 10.7104 18.2103 10.1404 18.1403 9.57041C17.9203 7.68041 17.7103 5.90042 16.1103 4.55042C14.9903 3.61042 13.5603 3.18041 11.5703 3.23041C8.4403 3.30041 6.0403 4.72041 5.0103 7.11041C3.9903 9.45041 4.83029 11.4404 5.81029 13.7304L6.10033 14.4104C6.98033 16.5204 6.53033 21.0404 6.48033 21.5504C6.44033 21.9404 6.11033 22.2204 5.73033 22.2204L5.71031 22.2304Z" fill="black"/>
<path d="M11.4402 14.4511C11.0302 14.4511 10.6902 14.1111 10.6902 13.7011V13.1811C10.1402 13.0511 9.64028 12.7611 9.23028 12.3611C9.22028 12.3511 9.20024 12.3311 9.19024 12.3211L8.73028 12.5811C8.37028 12.7911 7.91025 12.6611 7.70025 12.3111C7.49025 11.9511 7.62027 11.4911 7.97027 11.2911L8.43029 11.0211C8.35029 10.7411 8.31024 10.4511 8.31024 10.1611C8.31024 9.87107 8.35029 9.58109 8.43029 9.30109L7.97027 9.04108C7.61027 8.83108 7.49025 8.37109 7.70025 8.02109C7.91025 7.66109 8.37028 7.54107 8.73028 7.75107L9.19024 8.01108C9.19024 8.01108 9.22028 7.98107 9.23028 7.97107C9.65028 7.55107 10.1502 7.28109 10.6902 7.15109V6.62109C10.6902 6.21109 11.0302 5.87109 11.4402 5.87109C11.8502 5.87109 12.1902 6.21109 12.1902 6.62109V7.15109C12.7202 7.28109 13.2303 7.55107 13.6403 7.97107C13.6403 7.97107 13.6703 8.00108 13.6803 8.01108L14.1403 7.75107C14.5003 7.54107 14.9603 7.67109 15.1603 8.02109C15.3703 8.38109 15.2503 8.84109 14.8903 9.05109L14.4303 9.31107C14.5103 9.59107 14.5503 9.88108 14.5503 10.1711C14.5503 10.4611 14.5103 10.7611 14.4303 11.0311L14.8903 11.2911C15.2503 11.5011 15.3703 11.9611 15.1603 12.3211C14.9503 12.6811 14.5003 12.8011 14.1403 12.5911L13.6803 12.3311C13.6803 12.3311 13.6503 12.3611 13.6403 12.3711C13.2303 12.7811 12.7302 13.0611 12.1902 13.1911V13.7111C12.1902 14.1211 11.8502 14.4611 11.4402 14.4611V14.4511ZM11.4402 8.53107C11.0302 8.53107 10.6103 8.69107 10.3003 9.00107C9.67029 9.63107 9.67029 10.6611 10.3003 11.2911C10.9103 11.9011 11.9803 11.9011 12.5903 11.2911C12.9003 10.9811 13.0602 10.5811 13.0602 10.1511C13.0602 9.72109 12.8903 9.31108 12.5903 9.01108C12.2703 8.70108 11.8603 8.54108 11.4503 8.54108L11.4402 8.53107Z" fill="black"/>
</svg>