<svg width="24" height="24" viewBox="0 0 24 24" fill="none" xmlns="http://www.w3.org/2000/svg">
<path d="M13.8976 22.2784C13.8976 22.2784 13.8076 22.2784 13.7576 22.2684C13.3476 22.1884 13.0876 21.7984 13.1576 21.3984C13.1976 21.1884 13.5676 19.3584 14.8476 18.6884C15.2176 18.4984 15.6676 18.6384 15.8576 18.9984C16.0476 19.3684 15.9076 19.8184 15.5376 20.0084C15.0376 20.2684 14.7076 21.2384 14.6276 21.6684C14.5576 22.0284 14.2476 22.2784 13.8876 22.2784H13.8976Z" fill="black"/>
<path d="M5.19756 22.0386C5.09756 22.0386 4.99757 22.0186 4.89757 21.9786C4.51757 21.8086 4.34756 21.3686 4.50756 20.9886C5.51756 18.6786 5.22755 16.0786 3.65755 13.2586C2.45755 11.1086 2.30757 8.83856 3.23757 6.70856C4.53757 3.70856 7.62755 1.86856 11.4975 1.77856C13.8875 1.72856 15.6875 2.26856 17.1175 3.47856C19.4875 5.47856 20.3575 7.71856 19.7775 10.3286C19.5975 11.1286 20.0275 12.2386 21.0575 13.6186C21.3475 14.0086 21.4375 14.4986 21.3075 14.9486C21.1775 15.3986 20.8376 15.7586 20.3876 15.9386L19.4576 16.2986L19.1076 18.9486C19.0276 19.4886 18.7675 19.9186 18.3675 20.1986C17.9475 20.4886 17.4175 20.5886 16.8675 20.4686L14.0776 19.8386C12.8776 19.5786 12.6676 18.5986 12.5176 17.8886C12.4876 17.7386 12.4476 17.5786 12.4076 17.4286C12.2976 17.0286 12.5276 16.6186 12.9276 16.5086C13.3376 16.3986 13.7376 16.6286 13.8476 17.0286C13.8976 17.2186 13.9376 17.3986 13.9776 17.5786C14.1276 18.2986 14.1876 18.3386 14.3976 18.3786L17.1876 19.0086C17.3076 19.0386 17.4376 19.0186 17.5076 18.9686C17.5676 18.9286 17.5975 18.8586 17.6175 18.7586L17.9276 16.1386C18.0376 15.5386 18.4076 15.0986 18.9176 14.9086L19.8476 14.5486C18.5276 12.7486 18.0275 11.2786 18.3075 10.0086C18.7575 7.96856 18.0676 6.25856 16.1376 4.62856C14.9976 3.66856 13.5176 3.22856 11.5176 3.27856C8.24757 3.34856 5.65755 4.85856 4.59755 7.29856C3.85755 9.00856 3.97757 10.7686 4.95757 12.5186C6.74757 15.7286 7.06755 18.8686 5.87755 21.5886C5.75755 21.8686 5.47755 22.0386 5.18755 22.0386H5.19756Z" fill="black"/>
<path d="M11.3076 13.6489C10.8976 13.6489 10.5576 13.3089 10.5576 12.8989C10.5576 12.4889 10.8976 12.1289 11.3076 12.1289C11.7176 12.1289 12.0576 12.4489 12.0576 12.8589V12.8989C12.0576 13.3089 11.7176 13.6489 11.3076 13.6489Z" fill="black"/>
<path d="M15.0077 9.13883C14.8377 9.13883 14.6777 9.08883 14.5377 8.97883C12.6677 7.47883 9.95765 7.47883 8.08765 8.97883C7.76765 9.23883 7.29766 9.18883 7.03766 8.85883C6.77766 8.53883 6.82765 8.06883 7.15765 7.80883C9.56765 5.87883 13.0677 5.87883 15.4777 7.80883C15.7977 8.06883 15.8577 8.53883 15.5977 8.85883C15.4477 9.04883 15.2277 9.13883 15.0177 9.13883H15.0077Z" fill="black"/>
<path d="M9.43757 11.4184C9.22757 11.4184 9.01756 11.3284 8.86756 11.1584C8.59756 10.8484 8.63758 10.3684 8.94758 10.0984C10.3076 8.93836 12.2976 8.92836 13.6776 10.0984C13.9976 10.3684 14.0376 10.8384 13.7676 11.1584C13.4976 11.4784 13.0276 11.5084 12.7076 11.2484C11.9076 10.5784 10.7076 10.5784 9.91758 11.2484C9.77758 11.3684 9.60759 11.4284 9.42759 11.4284L9.43757 11.4184Z" fill="black"/>
</svg>