<svg width="24" height="24" viewBox="0 0 24 24" fill="none" xmlns="http://www.w3.org/2000/svg">
<path d="M5.71026 22.2302C5.71026 22.2302 5.66025 22.2302 5.63025 22.2302C5.22025 22.1902 4.92026 21.8202 4.96026 21.4102C5.10026 20.1302 5.31024 16.5002 4.69024 15.0102L4.41028 14.3402C3.39028 11.9402 2.3503 9.47019 3.6203 6.54019C4.9003 3.58019 7.79027 1.84018 11.5303 1.75018C13.9003 1.71018 15.6502 2.23019 17.0702 3.42019C19.1202 5.15019 19.3903 7.42019 19.6203 9.41019C19.6803 9.95019 19.7403 10.4802 19.8403 10.9802C19.9303 11.4202 20.1703 11.9302 20.4203 12.4602C20.6903 13.0202 20.9703 13.6102 21.1203 14.2302C21.3403 15.6202 20.2303 15.9302 19.7603 16.0602C19.6103 16.1002 19.3403 16.1802 19.3003 16.2302L19.1703 18.5902C19.0103 19.4502 18.2803 20.0802 17.4103 20.1202L14.9003 20.2402V21.4702C14.9003 21.8802 14.5603 22.2202 14.1503 22.2202C13.7403 22.2202 13.4003 21.8802 13.4003 21.4702V20.1402C13.4003 19.3902 13.9803 18.7802 14.7303 18.7402L17.3403 18.6202C17.5003 18.6202 17.6402 18.5002 17.6902 18.3402L17.8202 15.9702C18.0102 14.9702 18.8903 14.7302 19.3603 14.6002C19.4503 14.5802 19.5603 14.5402 19.6403 14.5102C19.5203 14.0502 19.3002 13.5802 19.0602 13.0802C18.7802 12.4802 18.4803 11.8702 18.3603 11.2402C18.2603 10.7002 18.1903 10.1302 18.1203 9.56019C17.9003 7.67019 17.6903 5.89019 16.0903 4.54019C14.9703 3.60019 13.5403 3.17019 11.5503 3.22019C8.42029 3.29019 6.03029 4.70019 4.99029 7.10019C3.97029 9.44019 4.81028 11.4302 5.79028 13.7202L6.08026 14.4002C6.96026 16.5102 6.51026 21.0302 6.46026 21.5402C6.42026 21.9302 6.09026 22.2102 5.71026 22.2102V22.2302Z" fill="black"/>
<path d="M11.4402 13.9197C9.24019 13.9197 7.4502 12.1297 7.4502 9.92969C7.4502 9.51969 7.7902 9.17969 8.2002 9.17969C8.6102 9.17969 8.9502 9.51969 8.9502 9.92969C8.9502 11.2997 10.0702 12.4197 11.4402 12.4197C11.6102 12.4197 11.7802 12.3997 11.9502 12.3697L11.6502 12.2197C11.2802 12.0297 11.1302 11.5797 11.3202 11.2097C11.5102 10.8397 11.9602 10.6897 12.3302 10.8797L13.9302 11.6897C14.1502 11.7997 14.3002 12.0197 14.3302 12.2597C14.3602 12.4997 14.2702 12.7497 14.0802 12.9197C13.3502 13.5597 12.4102 13.9197 11.4402 13.9197Z" fill="black"/>
<path d="M14.6904 10.6814C14.2804 10.6814 13.9404 10.3414 13.9404 9.9314C13.9404 8.5614 12.8204 7.44141 11.4504 7.44141C11.2804 7.44141 11.1104 7.46141 10.9404 7.49141L11.2404 7.64141C11.6104 7.83141 11.7604 8.28141 11.5704 8.65141C11.3804 9.02141 10.9304 9.17141 10.5604 8.98141L8.96038 8.17141C8.74038 8.06141 8.59035 7.84141 8.56035 7.60141C8.53035 7.36141 8.62035 7.11141 8.81035 6.94141C9.54035 6.30141 10.4804 5.94141 11.4504 5.94141C13.6504 5.94141 15.4404 7.7314 15.4404 9.9314C15.4404 10.3414 15.1004 10.6814 14.6904 10.6814Z" fill="black"/>
</svg>