<svg width="24" height="24" viewBox="0 0 24 24" fill="none" xmlns="http://www.w3.org/2000/svg">
<path d="M16.9027 20.7201H15.2127C14.9227 20.7201 14.5826 20.5001 14.4526 20.2301L13.4726 17.9101C12.8126 17.9101 12.0026 17.7501 11.3826 17.1201C10.5426 17.5701 9.50266 17.6401 8.59265 17.2801C7.52265 16.8601 6.85265 15.9001 6.80265 14.7201C6.78265 14.3101 7.10265 13.9601 7.52265 13.9401C7.93265 13.9001 8.28265 14.2401 8.30265 14.6601C8.33265 15.4101 8.78264 15.7401 9.14264 15.8901C9.77264 16.1401 10.5626 16.0001 11.0226 15.5501C11.1926 15.3801 11.4326 15.3101 11.6626 15.3501C11.8926 15.3901 12.1026 15.5401 12.2126 15.7501C12.6826 16.6601 13.7326 16.3901 13.7426 16.3801C14.1026 16.2801 14.4826 16.4701 14.6326 16.8101L15.6527 19.2301H16.2226V18.1801C16.2226 17.7801 16.5327 17.4501 16.9327 17.4301C18.8527 17.3201 20.0726 16.6701 20.2926 15.6501C20.4426 14.9501 20.0827 14.3701 19.8427 14.2501C19.4727 14.0601 19.3226 13.6101 19.5126 13.2401C19.7026 12.8701 20.1526 12.7301 20.5226 12.9101C21.4726 13.3901 22.0126 14.7301 21.7526 15.9601C21.5926 16.7201 20.8826 18.4601 17.7226 18.8701V19.9101C17.7226 20.3701 17.3526 20.7401 16.8926 20.7401L16.9027 20.7201Z" fill="black"/>
<path d="M5.84268 15.9094C5.07268 15.9094 4.27266 15.7195 3.63266 15.3295C2.66266 14.7395 1.99268 13.7994 1.74268 12.6794C1.47268 11.4694 1.74266 10.1894 2.47266 9.09943C2.70266 8.75943 3.17266 8.66947 3.51266 8.88947C3.85266 9.11947 3.95268 9.58945 3.71268 9.92945C3.20268 10.6794 3.02267 11.5494 3.20267 12.3494C3.36267 13.0694 3.78268 13.6694 4.40268 14.0394C5.27268 14.5694 6.53267 14.4795 7.11267 14.0695C7.50267 13.7995 7.80268 13.3794 7.96268 12.9194C8.09268 12.5294 8.52266 12.3195 8.91266 12.4495C9.30266 12.5795 9.51266 13.0094 9.38266 13.3994C9.12266 14.1594 8.63267 14.8194 7.98267 15.2794C7.40267 15.6894 6.63267 15.8994 5.83267 15.8994L5.84268 15.9094Z" fill="black"/>
<path d="M7.34253 6.12733L6.88251 5.52729L6.58252 4.83729C7.65252 4.20729 9.65252 3.02731 12.2725 3.29731C12.6825 3.33731 12.9825 3.70732 12.9425 4.11732C12.9025 4.52732 12.5325 4.8273 12.1225 4.7873C9.99253 4.5573 8.34251 5.54733 7.35251 6.12733H7.34253Z" fill="black"/>
<path d="M5.17253 12.1184C5.11253 12.1184 5.05253 12.1184 4.98253 12.0984C3.71253 11.7784 2.84252 10.8984 2.60252 9.68843C2.31252 8.23843 2.99252 6.55841 4.25252 5.60841C5.57252 4.61841 7.28252 4.54841 8.97252 5.41841C9.34252 5.60841 9.48253 6.05842 9.29253 6.42842C9.10253 6.79842 8.65255 6.93842 8.28255 6.74842C7.11255 6.14842 6.01252 6.16841 5.16252 6.79841C4.35252 7.40841 3.90254 8.49844 4.08254 9.38844C4.21254 10.0384 4.64253 10.4584 5.36253 10.6384C5.76253 10.7384 6.00254 11.1484 5.90254 11.5484C5.81254 11.8884 5.51253 12.1084 5.17253 12.1084V12.1184Z" fill="black"/>
<path d="M14.2524 12.1192C14.0624 12.1192 13.8724 12.0492 13.7224 11.8992C13.4324 11.6092 13.4324 11.1292 13.7224 10.8392L15.0124 9.5492C13.9424 7.9792 14.1024 5.82922 15.4924 4.43922C17.0624 2.86922 19.6124 2.86922 21.1824 4.43922C22.7524 6.00922 22.7524 8.55922 21.1824 10.1292C19.7924 11.5192 17.6424 11.6792 16.0724 10.6092L14.7824 11.8992C14.6324 12.0492 14.4424 12.1192 14.2524 12.1192ZM16.5524 9.06922C17.5324 10.0492 19.1324 10.0492 20.1224 9.06922C21.1024 8.08922 21.1024 6.48922 20.1224 5.49922C19.1424 4.51922 17.5424 4.51922 16.5524 5.49922C15.5724 6.47922 15.5724 8.07922 16.5524 9.06922Z" fill="black"/>
<path d="M8.47251 10.3686C7.67251 10.3686 6.93252 10.0386 6.60252 9.49855C6.38252 9.14855 6.50252 8.68853 6.85252 8.46853C7.20252 8.25853 7.66254 8.35852 7.87254 8.70852C7.96254 8.79852 8.39254 8.94856 8.84254 8.81856C9.24254 8.70856 9.65253 8.93852 9.77253 9.33852C9.89253 9.73852 9.65251 10.1486 9.25251 10.2686C8.99251 10.3386 8.73251 10.3786 8.47251 10.3786V10.3686Z" fill="black"/>
</svg>