<svg width="24" height="24" viewBox="0 0 24 24" fill="none" xmlns="http://www.w3.org/2000/svg">
<path fill-rule="evenodd" clip-rule="evenodd" d="M7.00885 7.11669C7.64269 6.43713 8.53818 6.06641 9.57036 6.06641H14.4275C15.4622 6.06641 16.3573 6.43691 16.9897 7.11787C17.6163 7.79254 17.9289 8.71058 17.9289 9.71345V14.2912C17.9289 15.2918 17.6159 16.2083 16.9893 16.882C16.357 17.5619 15.4622 17.9323 14.4275 17.9323H9.57036C8.53612 17.9323 7.64044 17.562 7.00692 16.8828C6.3789 16.2095 6.06372 15.2929 6.06372 14.2912V9.71345C6.06372 8.70849 6.38039 7.79049 7.00885 7.11669ZM8.10577 8.13981C7.77907 8.49008 7.56372 9.0206 7.56372 9.71345V14.2912C7.56372 14.9814 7.77796 15.5103 8.1038 15.8596C8.42415 16.2031 8.90678 16.4323 9.57036 16.4323H14.4275C15.0914 16.4323 15.5722 16.2032 15.891 15.8604C16.2155 15.5115 16.4289 14.9826 16.4289 14.2912V9.71345C16.4289 9.0185 16.2151 8.48803 15.8906 8.13863C15.572 7.79552 15.0913 7.56641 14.4275 7.56641H9.57036C8.90993 7.56641 8.4271 7.7953 8.10577 8.13981Z" fill="black"/>
<path fill-rule="evenodd" clip-rule="evenodd" d="M14.276 9.65656C14.6506 10.006 14.8428 10.491 14.8428 11.0191L14.8428 12.9835C14.8428 13.5124 14.6508 13.9978 14.2748 14.347C13.9051 14.6904 13.4184 14.8462 12.9211 14.8462L11.0698 14.8462C10.5731 14.8462 10.087 14.69 9.71779 14.3466C9.34244 13.9975 9.15054 13.5124 9.15054 12.9835L9.15054 11.0191C9.15054 10.4905 9.34235 10.0053 9.71699 9.6558C10.0857 9.31182 10.5719 9.1543 11.0698 9.1543L12.9211 9.1543C13.4205 9.1543 13.9072 9.31254 14.276 9.65656ZM13.2529 10.7535C13.2076 10.7112 13.1084 10.6543 12.9211 10.6543L11.0698 10.6543C10.8834 10.6543 10.785 10.7109 10.7402 10.7527C10.7012 10.789 10.6505 10.8612 10.6505 11.0191L10.6505 12.9835C10.6505 13.1415 10.7011 13.2127 10.7394 13.2483C10.7837 13.2896 10.8823 13.3462 11.0698 13.3462L12.9211 13.3462C13.1105 13.3462 13.2096 13.2892 13.2541 13.2479C13.2922 13.2125 13.3428 13.1415 13.3428 12.9835L13.3428 11.0191C13.3428 10.8628 13.2924 10.7904 13.2529 10.7535Z" fill="black"/>
<path fill-rule="evenodd" clip-rule="evenodd" d="M10.3799 2.75C10.7941 2.75 11.1299 3.08579 11.1299 3.5L11.1299 6.81745C11.1299 7.23166 10.7941 7.56745 10.3799 7.56745C9.96567 7.56745 9.62988 7.23166 9.62988 6.81745L9.62988 3.5C9.62988 3.08579 9.96567 2.75 10.3799 2.75Z" fill="black"/>
<path fill-rule="evenodd" clip-rule="evenodd" d="M13.6191 2.75C14.0334 2.75 14.3691 3.08579 14.3691 3.5V6.81744C14.3691 7.23166 14.0334 7.56744 13.6191 7.56744C13.2049 7.56744 12.8691 7.23166 12.8691 6.81744V3.5C12.8691 3.08579 13.2049 2.75 13.6191 2.75Z" fill="black"/>
<path fill-rule="evenodd" clip-rule="evenodd" d="M10.3799 16.4316C10.7941 16.4316 11.1299 16.7674 11.1299 17.1816L11.1299 20.4991C11.1299 20.9133 10.7941 21.2491 10.3799 21.2491C9.96567 21.2491 9.62988 20.9133 9.62988 20.4991L9.62988 17.1816C9.62988 16.7674 9.96567 16.4316 10.3799 16.4316Z" fill="black"/>
<path fill-rule="evenodd" clip-rule="evenodd" d="M13.6191 16.4316C14.0334 16.4316 14.3691 16.7674 14.3691 17.1816V20.4991C14.3691 20.9133 14.0334 21.2491 13.6191 21.2491C13.2049 21.2491 12.8691 20.9133 12.8691 20.4991V17.1816C12.8691 16.7674 13.2049 16.4316 13.6191 16.4316Z" fill="black"/>
<path fill-rule="evenodd" clip-rule="evenodd" d="M21.25 10.3809C21.25 10.7951 20.9142 11.1309 20.5 11.1309L17.1825 11.1309C16.7683 11.1309 16.4325 10.7951 16.4325 10.3809C16.4325 9.96665 16.7683 9.63086 17.1825 9.63086L20.5 9.63086C20.9142 9.63086 21.25 9.96665 21.25 10.3809Z" fill="black"/>
<path fill-rule="evenodd" clip-rule="evenodd" d="M21.25 13.6191C21.25 14.0334 20.9142 14.3691 20.5 14.3691L17.1826 14.3691C16.7683 14.3691 16.4326 14.0334 16.4326 13.6191C16.4326 13.2049 16.7683 12.8691 17.1826 12.8691L20.5 12.8691C20.9142 12.8691 21.25 13.2049 21.25 13.6191Z" fill="black"/>
<path fill-rule="evenodd" clip-rule="evenodd" d="M7.56738 10.3809C7.56738 10.7951 7.2316 11.1309 6.81738 11.1309L3.49993 11.1309C3.08572 11.1309 2.74993 10.7951 2.74993 10.3809C2.74993 9.96665 3.08572 9.63086 3.49993 9.63086L6.81738 9.63086C7.2316 9.63086 7.56738 9.96665 7.56738 10.3809Z" fill="black"/>
<path fill-rule="evenodd" clip-rule="evenodd" d="M7.56738 13.6191C7.56738 14.0334 7.2316 14.3691 6.81738 14.3691L3.49994 14.3691C3.08573 14.3691 2.74994 14.0334 2.74994 13.6191C2.74994 13.2049 3.08573 12.8691 3.49994 12.8691L6.81738 12.8691C7.2316 12.8691 7.56738 13.2049 7.56738 13.6191Z" fill="black"/>
</svg>