<svg width="24" height="24" viewBox="0 0 24 24" fill="none" xmlns="http://www.w3.org/2000/svg">
<path fill-rule="evenodd" clip-rule="evenodd" d="M19.4146 3.93555C18.9532 3.93555 18.5791 4.30961 18.5791 4.77105C18.5791 5.23249 18.9532 5.60655 19.4146 5.60655C19.876 5.60655 20.2501 5.23249 20.2501 4.77105C20.2501 4.30961 19.876 3.93555 19.4146 3.93555ZM17.0791 4.77105C17.0791 3.48119 18.1247 2.43555 19.4146 2.43555C20.7045 2.43555 21.7501 3.48119 21.7501 4.77105C21.7501 6.06091 20.7045 7.10655 19.4146 7.10655C18.1247 7.10655 17.0791 6.06091 17.0791 4.77105Z" fill="black"/>
<path fill-rule="evenodd" clip-rule="evenodd" d="M6.14893 4.45117C6.14893 4.03696 6.48471 3.70117 6.89893 3.70117H17.7755C18.1897 3.70117 18.5255 4.03696 18.5255 4.45117C18.5255 4.86539 18.1897 5.20117 17.7755 5.20117H6.89893C6.48471 5.20117 6.14893 4.86539 6.14893 4.45117Z" fill="black"/>
<path fill-rule="evenodd" clip-rule="evenodd" d="M17.4522 18.0449C16.9908 18.0449 16.6167 18.419 16.6167 18.8804C16.6167 19.3419 16.9908 19.7159 17.4522 19.7159C17.9136 19.7159 18.2877 19.3419 18.2877 18.8804C18.2877 18.419 17.9136 18.0449 17.4522 18.0449ZM15.1167 18.8804C15.1167 17.5906 16.1623 16.5449 17.4522 16.5449C18.7421 16.5449 19.7877 17.5906 19.7877 18.8804C19.7877 20.1703 18.7421 21.2159 17.4522 21.2159C16.1623 21.2159 15.1167 20.1703 15.1167 18.8804Z" fill="black"/>
<path fill-rule="evenodd" clip-rule="evenodd" d="M5.48246 3.93555C5.79795 3.93555 6.05371 4.19131 6.05371 4.5068C6.05371 4.82229 5.79795 5.07805 5.48246 5.07805C5.16696 5.07805 4.91121 4.82229 4.91121 4.5068C4.91121 4.19131 5.16696 3.93555 5.48246 3.93555ZM7.55371 4.5068C7.55371 3.36288 6.62638 2.43555 5.48246 2.43555C4.33854 2.43555 3.41121 3.36288 3.41121 4.5068C3.41121 5.65072 4.33854 6.57805 5.48246 6.57805C6.62638 6.57805 7.55371 5.65072 7.55371 4.5068Z" fill="black"/>
<path fill-rule="evenodd" clip-rule="evenodd" d="M4.5854 18.3945C5.04683 18.3945 5.4209 18.7686 5.4209 19.23C5.4209 19.6915 5.04683 20.0655 4.5854 20.0655C4.12396 20.0655 3.74989 19.6915 3.74989 19.23C3.74989 18.7686 4.12396 18.3945 4.5854 18.3945ZM6.9209 19.23C6.9209 17.9402 5.87526 16.8945 4.5854 16.8945C3.29553 16.8945 2.24989 17.9402 2.24989 19.23C2.24989 20.5199 3.29553 21.5655 4.5854 21.5655C5.87526 21.5655 6.9209 20.5199 6.9209 19.23Z" fill="black"/>
<path fill-rule="evenodd" clip-rule="evenodd" d="M18.5556 12.3633C18.2401 12.3633 17.9844 12.619 17.9844 12.9345C17.9844 13.25 18.2401 13.5058 18.5556 13.5058C18.8711 13.5058 19.1269 13.25 19.1269 12.9345C19.1269 12.619 18.8711 12.3633 18.5556 12.3633ZM16.4844 12.9345C16.4844 11.7906 17.4117 10.8633 18.5556 10.8633C19.6995 10.8633 20.6269 11.7906 20.6269 12.9345C20.6269 14.0785 19.6995 15.0058 18.5556 15.0058C17.4117 15.0058 16.4844 14.0785 16.4844 12.9345Z" fill="black"/>
<path fill-rule="evenodd" clip-rule="evenodd" d="M9.65668 11.7715C10.1181 11.7715 10.4922 12.1456 10.4922 12.607C10.4922 13.0684 10.1181 13.4425 9.65668 13.4425C9.19525 13.4425 8.82118 13.0684 8.82118 12.607C8.82118 12.1456 9.19525 11.7715 9.65668 11.7715ZM11.9922 12.607C11.9922 11.3171 10.9465 10.2715 9.65668 10.2715C8.36682 10.2715 7.32118 11.3171 7.32118 12.607C7.32118 13.8969 8.36682 14.9425 9.65668 14.9425C10.9465 14.9425 11.9922 13.8969 11.9922 12.607Z" fill="black"/>
<path fill-rule="evenodd" clip-rule="evenodd" d="M18.7147 5.26762C18.9693 5.59437 18.9107 6.06563 18.584 6.32019L11.3047 11.9913C10.978 12.2458 10.5067 12.1873 10.2521 11.8605C9.99758 11.5338 10.0561 11.0625 10.3829 10.808L17.6621 5.13691C17.9889 4.88234 18.4601 4.94086 18.7147 5.26762Z" fill="black"/>
<path fill-rule="evenodd" clip-rule="evenodd" d="M10.3109 13.2455C10.5765 12.9277 11.0495 12.8855 11.3673 13.1512L16.5305 17.468C16.8483 17.7337 16.8905 18.2066 16.6248 18.5244C16.3592 18.8422 15.8862 18.8844 15.5684 18.6188L10.4052 14.302C10.0874 14.0363 10.0452 13.5633 10.3109 13.2455Z" fill="black"/>
<path fill-rule="evenodd" clip-rule="evenodd" d="M17.9216 12.7916C18.0874 13.1712 17.9142 13.6133 17.5347 13.7792L6.10791 18.7731C5.72836 18.939 5.2862 18.7658 5.12033 18.3863C4.95445 18.0067 5.12767 17.5646 5.50722 17.3987L16.934 12.4048C17.3135 12.2389 17.7557 12.4121 17.9216 12.7916Z" fill="black"/>
<path fill-rule="evenodd" clip-rule="evenodd" d="M6.02409 4.82377C6.24983 4.47647 6.71437 4.37794 7.06166 4.60368L17.7228 11.5335C18.0701 11.7592 18.1687 12.2237 17.9429 12.571C17.7172 12.9183 17.2526 13.0169 16.9054 12.7911L6.24418 5.86134C5.89688 5.6356 5.79835 5.17106 6.02409 4.82377Z" fill="black"/>
<path fill-rule="evenodd" clip-rule="evenodd" d="M5.77523 5.20741C6.14294 5.01672 6.59561 5.16021 6.78631 5.52792L9.52272 10.8044C9.71341 11.1721 9.56992 11.6247 9.20221 11.8154C8.8345 12.0061 8.38183 11.8626 8.19113 11.4949L5.45473 6.21849C5.26403 5.85078 5.40752 5.39811 5.77523 5.20741Z" fill="black"/>
<path fill-rule="evenodd" clip-rule="evenodd" d="M8.65967 13.0478C9.00545 13.2759 9.10087 13.7411 8.8728 14.0869L6.17352 18.1793C5.94546 18.525 5.48027 18.6205 5.1345 18.3924C4.78872 18.1643 4.6933 17.6991 4.92137 17.3534L7.62065 13.261C7.84871 12.9152 8.3139 12.8198 8.65967 13.0478Z" fill="black"/>
</svg>