<svg width="24" height="24" viewBox="0 0 24 24" fill="none" xmlns="http://www.w3.org/2000/svg">
<path fill-rule="evenodd" clip-rule="evenodd" d="M14.7109 9.80293C14.7109 10.2171 15.0467 10.5529 15.4609 10.5529C17.4735 10.5529 19.1139 8.93124 19.1139 6.91992C19.1139 6.50571 18.7781 6.16992 18.3639 6.16992C17.9497 6.16992 17.6139 6.50571 17.6139 6.91992C17.6139 8.09309 16.6548 9.05293 15.4609 9.05293C15.0467 9.05293 14.7109 9.38872 14.7109 9.80293Z" fill="black"/>
<path fill-rule="evenodd" clip-rule="evenodd" d="M6.77441 4.03711C6.77441 4.45132 7.1102 4.78711 7.52441 4.78711C8.71832 4.78711 9.67735 5.74695 9.67735 6.92012C9.67735 7.29467 9.58055 7.64476 9.4107 7.94942C9.20899 8.3112 9.33876 8.768 9.70055 8.96971C10.0623 9.17141 10.5191 9.04164 10.7208 8.67986C11.0118 8.15798 11.1773 7.55724 11.1773 6.92012C11.1773 4.9088 9.53699 3.28711 7.52441 3.28711C7.1102 3.28711 6.77441 3.6229 6.77441 4.03711Z" fill="black"/>
<path fill-rule="evenodd" clip-rule="evenodd" d="M12.7581 8.52437C13.0457 8.22538 13.0367 7.75103 12.738 7.46488C12.1892 6.93899 11.5024 6.54045 10.7164 6.33127C10.3161 6.22475 9.90412 6.46259 9.79622 6.86251C9.68832 7.26242 9.92535 7.67297 10.3256 7.77949C10.8615 7.92208 11.3259 8.19224 11.6967 8.5476C11.9954 8.83376 12.4706 8.82336 12.7581 8.52437Z" fill="black"/>
<path fill-rule="evenodd" clip-rule="evenodd" d="M3.40186 10.0219C3.40186 9.23761 4.01704 8.58766 4.80458 8.53576C5.03452 8.5206 5.24472 8.40059 5.37466 8.21028C5.5046 8.01998 5.53984 7.78051 5.47023 7.56084C5.40628 7.359 5.37159 7.14397 5.37159 6.92017C5.37159 5.74654 6.33073 4.78673 7.52452 4.78673C8.06624 4.78673 8.55854 4.98355 8.93628 5.30927C9.12608 5.47294 9.38508 5.53098 9.62658 5.46398C9.86807 5.39697 10.0601 5.21377 10.1385 4.9757C10.3221 4.41778 10.8527 4.01172 11.482 4.01172C12.1143 4.01172 12.6477 4.42287 12.8284 4.98544C12.9056 5.22592 13.0987 5.41137 13.3421 5.47882C13.5856 5.54628 13.8466 5.48669 14.0366 5.32027C14.416 4.98802 14.9133 4.78673 15.4607 4.78673C16.6545 4.78673 17.6137 5.74654 17.6137 6.92017C17.6137 7.14272 17.5794 7.35636 17.5162 7.55665C17.445 7.78265 17.4847 8.02902 17.6234 8.22115C17.7621 8.41327 17.9834 8.52856 18.2204 8.53208C19.0451 8.54433 19.7019 9.21132 19.7019 10.0219C19.7019 10.8398 19.0328 11.5117 18.1967 11.5117L4.907 11.5117C4.07087 11.5117 3.40186 10.8398 3.40186 10.0219ZM3.88315 7.21057C2.72955 7.62652 1.90186 8.72527 1.90186 10.0219C1.90186 11.6778 3.25206 13.0117 4.907 13.0117L18.1967 13.0117C19.8516 13.0117 21.2019 11.6778 21.2019 10.0219C21.2019 8.68255 20.3186 7.55356 19.105 7.17099C19.1108 7.08805 19.1137 7.00441 19.1137 6.92017C19.1137 4.90853 17.4733 3.28673 15.4607 3.28673C14.8696 3.28673 14.3102 3.42675 13.8154 3.67546C13.2839 2.96849 12.436 2.51172 11.482 2.51172C10.5315 2.51172 9.68611 2.96467 9.15417 3.66744C8.66315 3.42369 8.10939 3.28673 7.52452 3.28673C5.51191 3.28673 3.87159 4.90853 3.87159 6.92017C3.87159 7.01782 3.87549 7.11468 3.88315 7.21057Z" fill="black"/>
<path fill-rule="evenodd" clip-rule="evenodd" d="M5.62795 9.57703C5.52143 9.97731 5.75957 10.3882 6.15985 10.4947C7.05174 10.732 7.97524 10.2078 8.21704 9.3116C8.32651 8.90584 8.27618 8.49291 8.10441 8.14261C7.92204 7.77071 7.47271 7.61706 7.1008 7.79943C6.7289 7.9818 6.57525 8.43113 6.75762 8.80304C6.77528 8.83905 6.78009 8.87912 6.76882 8.92087C6.74451 9.01098 6.64712 9.07214 6.54559 9.04512C6.14531 8.9386 5.73447 9.17675 5.62795 9.57703Z" fill="black"/>
<path fill-rule="evenodd" clip-rule="evenodd" d="M16.9004 16.4238C17.3146 16.4238 17.6504 16.088 17.6504 15.6738L17.6504 12.2617C17.6504 11.8475 17.3146 11.5117 16.9004 11.5117C16.4862 11.5117 16.1504 11.8475 16.1504 12.2617L16.1504 15.6738C16.1504 16.088 16.4862 16.4238 16.9004 16.4238Z" fill="black"/>
<path fill-rule="evenodd" clip-rule="evenodd" d="M17.0131 17.123C16.8198 17.123 16.6631 16.9663 16.6631 16.773C16.6631 16.5797 16.8198 16.423 17.0131 16.423C17.2064 16.423 17.3631 16.5797 17.3631 16.773C17.3631 16.9663 17.2064 17.123 17.0131 17.123ZM15.1631 16.773C15.1631 17.7948 15.9914 18.623 17.0131 18.623C18.0348 18.623 18.8631 17.7948 18.8631 16.773C18.8631 15.7513 18.0348 14.923 17.0131 14.923C15.9914 14.923 15.1631 15.7513 15.1631 16.773Z" fill="black"/>
<path fill-rule="evenodd" clip-rule="evenodd" d="M6.34473 16.4238C6.75894 16.4238 7.09473 16.088 7.09473 15.6738L7.09473 12.2617C7.09473 11.8475 6.75894 11.5117 6.34473 11.5117C5.93051 11.5117 5.59473 11.8475 5.59473 12.2617L5.59473 15.6738C5.59473 16.088 5.93051 16.4238 6.34473 16.4238Z" fill="black"/>
<path fill-rule="evenodd" clip-rule="evenodd" d="M6.45742 17.123C6.26412 17.123 6.10742 16.9663 6.10742 16.773C6.10742 16.5797 6.26412 16.423 6.45742 16.423C6.65072 16.423 6.80742 16.5797 6.80742 16.773C6.80742 16.9663 6.65072 17.123 6.45742 17.123ZM4.60742 16.773C4.60742 17.7948 5.4357 18.623 6.45742 18.623C7.47915 18.623 8.30742 17.7948 8.30742 16.773C8.30742 15.7513 7.47915 14.923 6.45742 14.923C5.4357 14.923 4.60742 15.7513 4.60742 16.773Z" fill="black"/>
<path fill-rule="evenodd" clip-rule="evenodd" d="M11.7353 19.168C12.1496 19.168 12.4853 18.8322 12.4854 18.418L12.4855 12.3157C12.4855 11.9015 12.1497 11.5657 11.7355 11.5657C11.3213 11.5657 10.9855 11.9014 10.9855 12.3156L10.9854 18.418C10.9853 18.8322 11.3211 19.168 11.7353 19.168Z" fill="black"/>
<path fill-rule="evenodd" clip-rule="evenodd" d="M11.7353 19.9883C11.542 19.9883 11.3853 19.8316 11.3853 19.6383C11.3853 19.445 11.542 19.2883 11.7353 19.2883C11.9286 19.2883 12.0853 19.445 12.0853 19.6383C12.0853 19.8316 11.9286 19.9883 11.7353 19.9883ZM9.88525 19.6383C9.88525 20.66 10.7135 21.4883 11.7353 21.4883C12.757 21.4883 13.5853 20.66 13.5853 19.6383C13.5853 18.6166 12.757 17.7883 11.7353 17.7883C10.7135 17.7883 9.88525 18.6166 9.88525 19.6383Z" fill="black"/>
</svg>