<svg width="24" height="24" viewBox="0 0 24 24" fill="none" xmlns="http://www.w3.org/2000/svg">
<path fill-rule="evenodd" clip-rule="evenodd" d="M7.74041 2.47101C7.88117 2.32954 8.07251 2.25 8.27208 2.25H10.4503C10.6497 2.25 10.8409 2.32938 10.9816 2.47061L12 3.49261L13.0184 2.47061C13.1591 2.32938 13.3503 2.25 13.5497 2.25H15.7279C15.9275 2.25 16.1188 2.32954 16.2596 2.47101L17.796 4.01516C17.9358 4.1557 18.0143 4.34589 18.0143 4.54415V5.9857H19.4558C19.6541 5.9857 19.8443 6.0642 19.9848 6.20403L21.529 7.74041C21.6705 7.88117 21.75 8.07251 21.75 8.27208V10.4503C21.75 10.6497 21.6706 10.8409 21.5294 10.9816L20.5074 12L21.5294 13.0184C21.6706 13.1591 21.75 13.3503 21.75 13.5497V15.7279C21.75 15.9275 21.6705 16.1188 21.529 16.2596L19.9848 17.796C19.8443 17.9358 19.6541 18.0143 19.4559 18.0143H18.0143V19.4558C18.0143 19.6541 17.9358 19.8443 17.796 19.9848L16.2596 21.529C16.1188 21.6705 15.9275 21.75 15.7279 21.75H13.5496C13.3503 21.75 13.1591 21.6706 13.0184 21.5294L12 20.5074L10.9816 21.5294C10.8409 21.6706 10.6497 21.75 10.4503 21.75H8.27208C8.07251 21.75 7.88117 21.6705 7.74041 21.529L6.20403 19.9848C6.06419 19.8443 5.98569 19.6541 5.98569 19.4558V18.0143H4.54416C4.3459 18.0143 4.15571 17.9358 4.01517 17.796L2.47101 16.2596C2.32954 16.1188 2.25 15.9275 2.25 15.7279V13.5496C2.25 13.3503 2.32938 13.1591 2.47061 13.0184L3.49261 12L2.47061 10.9816C2.32938 10.8409 2.25 10.6497 2.25 10.4503V8.27208C2.25 8.07251 2.32954 7.88117 2.47101 7.74041L4.01517 6.20403C4.15572 6.06419 4.34591 5.98569 4.54416 5.98569L5.9857 5.98569V4.54416C5.9857 4.3459 6.0642 4.15571 6.20403 4.01517L7.74041 2.47101ZM8.58385 3.75L7.4857 4.85371V6.73569C7.4857 6.93461 7.40668 7.12537 7.26603 7.26602C7.12538 7.40668 6.93461 7.48569 6.7357 7.48569L4.85371 7.48569L3.75 8.58385V10.1389L5.08454 11.4687C5.22577 11.6095 5.30515 11.8006 5.30515 12C5.30515 12.1994 5.22577 12.3905 5.08454 12.5313L3.75 13.8611V15.4162L4.85371 16.5143H6.73569C7.14991 16.5143 7.48569 16.8501 7.48569 17.2643V19.1463L8.58385 20.25H10.1389L11.4687 18.9155C11.6095 18.7742 11.8006 18.6949 12 18.6949C12.1994 18.6949 12.3905 18.7742 12.5313 18.9155L13.8611 20.25H15.4162L16.5143 19.1463V17.2643C16.5143 16.8501 16.8501 16.5143 17.2643 16.5143H19.1463L20.25 15.4162V13.8611L18.9155 12.5313C18.7742 12.3905 18.6948 12.1994 18.6948 12C18.6948 11.8006 18.7742 11.6095 18.9155 11.4687L20.25 10.1389V8.58385L19.1463 7.4857H17.2643C16.8501 7.4857 16.5143 7.14991 16.5143 6.7357V4.8537L15.4162 3.75H13.8611L12.5313 5.08455C12.3905 5.22578 12.1994 5.30516 12 5.30516C11.8006 5.30516 11.6095 5.22578 11.4687 5.08455L10.1389 3.75H8.58385Z" fill="black"/>
<path fill-rule="evenodd" clip-rule="evenodd" d="M17.7004 17.8772C17.3622 18.1164 16.8942 18.0361 16.655 17.698L15.257 15.7214C15.0179 15.3833 15.0981 14.9152 15.4363 14.676C15.7745 14.4369 16.2425 14.5171 16.4817 14.8553L17.8796 16.8318C18.1188 17.17 18.0386 17.638 17.7004 17.8772Z" fill="black"/>
<path fill-rule="evenodd" clip-rule="evenodd" d="M6.31817 17.8772C6.65634 18.1164 7.12439 18.0361 7.36357 17.698L8.76151 15.7214C9.00069 15.3833 8.92044 14.9152 8.58226 14.676C8.24408 14.4369 7.77604 14.5171 7.53686 14.8553L6.13892 16.8318C5.89974 17.17 5.97999 17.638 6.31817 17.8772Z" fill="black"/>
<path fill-rule="evenodd" clip-rule="evenodd" d="M15.5583 14.5547C15.7536 14.3595 15.7536 14.0429 15.5583 13.8476C15.3631 13.6524 15.0465 13.6524 14.8512 13.8476C14.656 14.0429 14.656 14.3595 14.8512 14.5547C15.0465 14.75 15.3631 14.75 15.5583 14.5547ZM16.619 12.787C17.4 13.568 17.4 14.8343 16.619 15.6154C15.8379 16.3964 14.5716 16.3964 13.7906 15.6154C13.0095 14.8343 13.0095 13.568 13.7906 12.787C14.5716 12.0059 15.8379 12.0059 16.619 12.787Z" fill="black"/>
<path fill-rule="evenodd" clip-rule="evenodd" d="M8.46023 14.5547C8.26496 14.3595 8.26496 14.0429 8.46023 13.8476C8.65549 13.6524 8.97207 13.6524 9.16733 13.8476C9.36259 14.0429 9.36259 14.3595 9.16733 14.5547C8.97207 14.75 8.65549 14.75 8.46023 14.5547ZM7.39957 12.787C6.61852 13.568 6.61852 14.8343 7.39957 15.6154C8.18061 16.3964 9.44694 16.3964 10.228 15.6154C11.009 14.8343 11.009 13.568 10.228 12.787C9.44694 12.0059 8.18061 12.0059 7.39957 12.787Z" fill="black"/>
<path fill-rule="evenodd" clip-rule="evenodd" d="M12 3.81348C11.5858 3.81348 11.25 4.14926 11.25 4.56348L11.25 7.64657C11.25 8.06078 11.5858 8.39657 12 8.39657C12.4142 8.39657 12.75 8.06078 12.75 7.64657L12.75 4.56348C12.75 4.14926 12.4142 3.81348 12 3.81348Z" fill="black"/>
<path fill-rule="evenodd" clip-rule="evenodd" d="M12 8.39648C12.2761 8.39648 12.5 8.62034 12.5 8.89648C12.5 9.17263 12.2761 9.39648 12 9.39648C11.7239 9.39648 11.5 9.17263 11.5 8.89648C11.5 8.62034 11.7239 8.39648 12 8.39648ZM14 8.89648C14 7.79191 13.1046 6.89648 12 6.89648C10.8954 6.89648 10 7.79191 10 8.89648C10 10.0011 10.8954 10.8965 12 10.8965C13.1046 10.8965 14 10.0011 14 8.89648Z" fill="black"/>
</svg>