<svg width="24" height="24" viewBox="0 0 24 24" fill="none" xmlns="http://www.w3.org/2000/svg">
<path d="M14.7351 21.7534C14.2951 21.7534 13.8551 21.6133 13.4951 21.3433L12.3951 20.5134C12.1451 20.3334 11.8551 20.3434 11.6251 20.5134L10.5251 21.3433C9.96508 21.7633 9.23508 21.8734 8.56508 21.6334C8.24508 21.5234 7.93509 21.3934 7.62509 21.2334C7.00509 20.9434 6.55508 20.3534 6.45508 19.6634L6.26509 18.3034C6.24509 18.1734 6.17509 18.0634 6.11509 17.9934C6.09509 17.9734 6.07509 17.9633 6.05509 17.9433C5.95509 17.8433 5.83509 17.7734 5.69509 17.7534L4.35509 17.5634C3.66509 17.4734 3.06509 17.0234 2.76509 16.3734C2.62509 16.0734 2.49508 15.7633 2.38508 15.4433C2.14508 14.7833 2.25509 14.0534 2.67509 13.4934L3.50509 12.3834C3.58509 12.2834 3.62509 12.1634 3.61509 12.0334C3.61509 11.8334 3.57508 11.7134 3.49508 11.6134L2.66509 10.5034C2.24509 9.94338 2.13509 9.21342 2.37509 8.55342C2.48509 8.24342 2.61509 7.93337 2.75509 7.62337C3.06509 6.97337 3.65509 6.53332 4.35509 6.44332L5.71509 6.25338C5.83509 6.23338 5.95509 6.17343 6.05509 6.06343C6.07509 6.04343 6.09509 6.02338 6.11509 6.01338C6.17509 5.94338 6.24509 5.83333 6.26509 5.70333L6.45508 4.34334C6.55508 3.66334 6.99509 3.07337 7.62509 2.75337C7.94509 2.60337 8.25508 2.47336 8.56508 2.36336C9.22508 2.13336 9.95509 2.2334 10.5151 2.6534L11.6151 3.48336C11.8651 3.67336 12.1551 3.65336 12.3851 3.48336L13.4851 2.6534C14.0451 2.2334 14.7751 2.12336 15.4451 2.36336C15.7551 2.47336 16.0651 2.60337 16.3651 2.74337C17.0151 3.06337 17.4551 3.65333 17.5551 4.33333L17.7451 5.69332C17.7651 5.82332 17.8251 5.93337 17.8951 6.00337C17.9151 6.02337 17.9351 6.04343 17.9551 6.06343C18.0551 6.16343 18.1751 6.23338 18.3151 6.25338L19.6551 6.44332C20.3451 6.53332 20.9451 6.98337 21.2451 7.62337C21.3851 7.92337 21.5151 8.24342 21.6251 8.55342C21.8651 9.21342 21.7551 9.94338 21.3351 10.5034L20.5051 11.6134C20.4251 11.7134 20.3851 11.8333 20.3851 11.9633C20.3851 12.1633 20.4251 12.2834 20.5051 12.3834L21.3351 13.4934C21.7551 14.0534 21.8651 14.7833 21.6251 15.4433C21.5151 15.7533 21.3851 16.0634 21.2451 16.3734C20.9451 17.0234 20.3451 17.4634 19.6551 17.5534L18.2951 17.7534C18.1651 17.7734 18.0551 17.8234 17.9751 17.9134C17.9551 17.9334 17.9351 17.9533 17.9151 17.9633C17.8351 18.0433 17.7751 18.1634 17.7551 18.2934L17.5651 19.6634C17.4651 20.3434 17.0251 20.9434 16.3951 21.2534C16.0751 21.4034 15.7651 21.5334 15.4551 21.6434C15.2251 21.7234 14.9851 21.7634 14.7451 21.7634L14.7351 21.7534ZM12.0051 18.9034C12.4951 18.9034 12.9351 19.0434 13.2951 19.3134L14.3951 20.1434C14.5451 20.2534 14.7551 20.2833 14.9551 20.2133C15.2251 20.1233 15.4951 20.0134 15.7451 19.8934C15.9251 19.8034 16.0551 19.6333 16.0751 19.4433L16.2651 18.0733C16.3351 17.6233 16.5451 17.2034 16.8551 16.8934C16.8551 16.8934 16.8951 16.8533 16.9151 16.8433C17.2351 16.5233 17.6351 16.3334 18.0751 16.2634L19.4351 16.0634C19.6351 16.0334 19.7951 15.9133 19.8851 15.7233C20.0051 15.4633 20.1151 15.1934 20.2151 14.9334C20.2851 14.7434 20.2551 14.5434 20.1351 14.3834L19.3051 13.2734C19.0351 12.9134 18.8951 12.4734 18.8951 12.0334C18.8951 11.5034 19.0351 11.0733 19.3151 10.7133L20.1451 9.60335C20.2651 9.44335 20.2951 9.24342 20.2251 9.05342C20.1251 8.78342 20.0151 8.51338 19.8951 8.25338C19.8051 8.07338 19.6451 7.94342 19.4551 7.92342L18.0951 7.73336C17.6551 7.65336 17.2651 7.46342 16.9551 7.17342C16.9351 7.15342 16.9151 7.13336 16.8951 7.11336C16.5551 6.77336 16.3451 6.3534 16.2751 5.9034L16.0851 4.54341C16.0551 4.35341 15.9251 4.18334 15.7351 4.09334C15.4951 3.98334 15.2351 3.8734 14.9651 3.7834C14.7651 3.7134 14.5551 3.74335 14.3951 3.85335L13.2951 4.68343C12.5651 5.23343 11.4251 5.21343 10.7251 4.68343L9.62509 3.85335C9.47509 3.74335 9.26508 3.7134 9.06508 3.7834C8.79508 3.8734 8.53508 3.98335 8.27508 4.10335C8.09508 4.19335 7.96509 4.36342 7.94509 4.55342L7.75509 5.91341C7.69509 6.36341 7.47508 6.78336 7.13508 7.11336C7.11508 7.13336 7.09508 7.15342 7.06508 7.17342C6.75508 7.47342 6.36509 7.66336 5.94509 7.73336L4.56508 7.92342C4.37508 7.95342 4.20509 8.07338 4.12509 8.26338C4.00509 8.52339 3.89509 8.79342 3.79509 9.05342C3.72509 9.24342 3.75509 9.44335 3.87509 9.60335L4.70508 10.7133C4.97508 11.0733 5.11509 11.5033 5.11509 11.9533C5.11509 12.4733 4.97508 12.9134 4.70508 13.2734L3.87509 14.3834C3.75509 14.5434 3.72509 14.7434 3.79509 14.9334C3.89509 15.2034 4.00509 15.4733 4.12509 15.7233C4.21509 15.9133 4.37508 16.0334 4.56508 16.0634L5.92509 16.2534C6.36509 16.3234 6.75508 16.5233 7.06508 16.8233C7.08508 16.8433 7.10509 16.8634 7.12509 16.8834C7.46509 17.2234 7.67509 17.6333 7.73509 18.0833L7.92509 19.4433C7.95509 19.6333 8.07509 19.7934 8.25509 19.8834C8.52509 20.0134 8.77509 20.1233 9.03509 20.2133C9.23509 20.2833 9.44509 20.2534 9.60509 20.1434L10.6951 19.3134C11.0551 19.0434 11.4951 18.9034 11.9751 18.9034H12.0051Z" fill="black"/>
<path d="M12.0054 20.2932C11.5954 20.2932 11.2554 19.9532 11.2554 19.5432V10.2031C11.2554 9.79313 11.5954 9.45312 12.0054 9.45312C12.4154 9.45312 12.7554 9.79313 12.7554 10.2031V19.5432C12.7554 19.9532 12.4154 20.2932 12.0054 20.2932Z" fill="black"/>
<path d="M15.9253 13.053C15.8753 13.053 15.8153 13.053 15.7553 13.033C15.3553 12.943 15.0953 12.5429 15.1853 12.1329L16.4853 6.37294C16.5753 5.97294 16.9753 5.71299 17.3853 5.80299C17.7853 5.89299 18.0453 6.29289 17.9553 6.70289L16.6553 12.4629C16.5753 12.8129 16.2653 13.043 15.9253 13.043V13.053Z" fill="black"/>
<path d="M8.08493 13.0513C7.74493 13.0513 7.43493 12.8112 7.35493 12.4712L6.05493 6.71118C5.96493 6.31118 6.21493 5.90128 6.62493 5.81128C7.03493 5.72128 7.43492 5.97123 7.52492 6.38123L8.82493 12.1412C8.91493 12.5412 8.66493 12.9513 8.25493 13.0413C8.19493 13.0513 8.14493 13.0613 8.08493 13.0613V13.0513Z" fill="black"/>
<path d="M15.6452 15.5222C15.4952 15.5222 15.3552 15.5021 15.2052 15.4721C14.6852 15.3521 14.2452 15.0421 13.9552 14.5921C13.6652 14.1421 13.5752 13.6021 13.6952 13.0821C13.9352 12.0021 15.0052 11.3321 16.0852 11.5721C17.1652 11.8221 17.8352 12.8921 17.5952 13.9621C17.3852 14.8921 16.5552 15.5222 15.6452 15.5222ZM15.6452 13.0222C15.4152 13.0222 15.2052 13.1822 15.1552 13.4122C15.1252 13.5422 15.1552 13.6722 15.2152 13.7922C15.2852 13.9022 15.3952 13.9822 15.5252 14.0122C15.7952 14.0722 16.0652 13.9022 16.1252 13.6322C16.1852 13.3622 16.0152 13.0922 15.7452 13.0322C15.7052 13.0322 15.6752 13.0222 15.6352 13.0222H15.6452Z" fill="black"/>
<path d="M8.35543 15.5222C7.98543 15.5222 7.61543 15.4221 7.29543 15.2121C6.84543 14.9221 6.52543 14.4821 6.41543 13.9621C6.29543 13.4421 6.38543 12.9021 6.67543 12.4521C6.96543 12.0021 7.40543 11.6821 7.92543 11.5721C9.00543 11.3321 10.0754 12.0021 10.3154 13.0821C10.5554 14.1621 9.88543 15.2321 8.80543 15.4721C8.65543 15.5021 8.50543 15.5222 8.35543 15.5222ZM8.35543 13.0222C8.35543 13.0222 8.28543 13.0222 8.24543 13.0322C8.11543 13.0622 8.00543 13.1422 7.93543 13.2522C7.86543 13.3622 7.84543 13.5022 7.87543 13.6322C7.90543 13.7622 7.98543 13.8721 8.09543 13.9421C8.20543 14.0121 8.33543 14.0322 8.47543 14.0022C8.74543 13.9422 8.91543 13.6722 8.85543 13.4022C8.80543 13.1722 8.59543 13.0122 8.36543 13.0122L8.35543 13.0222Z" fill="black"/>
<path d="M12.0054 10.9531C10.9054 10.9531 10.0054 10.0531 10.0054 8.95312C10.0054 7.85312 10.9054 6.95312 12.0054 6.95312C13.1054 6.95312 14.0054 7.85312 14.0054 8.95312C14.0054 10.0531 13.1054 10.9531 12.0054 10.9531ZM12.0054 8.45312C11.7254 8.45312 11.5054 8.67313 11.5054 8.95312C11.5054 9.23312 11.7254 9.45312 12.0054 9.45312C12.2854 9.45312 12.5054 9.23312 12.5054 8.95312C12.5054 8.67313 12.2854 8.45312 12.0054 8.45312Z" fill="black"/>
</svg>