<svg width="24" height="24" viewBox="0 0 24 24" fill="none" xmlns="http://www.w3.org/2000/svg">
<path fill-rule="evenodd" clip-rule="evenodd" d="M10.0531 4.88672C9.51465 4.88672 9.0175 5.18018 8.75597 5.65213C8.6196 5.89994 8.47303 6.15672 8.33459 6.38095C8.20421 6.59214 8.05451 6.81853 7.91351 6.97462C7.90876 6.97987 7.90394 6.98505 7.89905 6.99017C7.42495 7.486 6.77707 7.7779 6.09163 7.80505C6.08174 7.80544 6.07184 7.80564 6.06195 7.80564C4.7866 7.80564 3.75168 8.83844 3.75 10.1142V15.7569C3.75 17.6099 5.25227 19.1129 7.10595 19.1129H16.8941C18.7477 19.1129 20.25 17.6099 20.25 15.7569V12.0596C20.25 11.6454 20.5858 11.3096 21 11.3096C21.4142 11.3096 21.75 11.6454 21.75 12.0596V15.7569C21.75 18.4381 19.5764 20.6129 16.8941 20.6129H7.10595C4.42362 20.6129 2.25 18.4381 2.25 15.7569V10.1137C2.25242 8.01532 3.94981 6.31508 6.04447 6.30568C6.33314 6.29118 6.60502 6.16851 6.80644 5.96229C6.84965 5.91223 6.93555 5.79169 7.05825 5.59295C7.1787 5.39785 7.31215 5.1646 7.44225 4.92815L7.44314 4.92653C7.96788 3.97836 8.96692 3.38672 10.0531 3.38672H13.9654C14.3796 3.38672 14.7154 3.72251 14.7154 4.13672C14.7154 4.55093 14.3796 4.88672 13.9654 4.88672H10.0531Z" fill="black"/>
<path fill-rule="evenodd" clip-rule="evenodd" d="M10.3716 10.6937C10.6945 10.9531 10.746 11.4252 10.4866 11.7482C9.67604 12.7572 9.8369 14.2317 10.846 15.0422C11.8551 15.8528 13.3295 15.6919 14.1401 14.6828C14.524 14.2049 14.6898 13.6238 14.6509 13.0561C14.6226 12.6429 14.9346 12.2849 15.3479 12.2566C15.7611 12.2283 16.1191 12.5403 16.1474 12.9536C16.211 13.8825 15.9386 14.839 15.3095 15.6222C13.9801 17.2772 11.5616 17.541 9.90662 16.2117C8.25166 14.8823 7.9878 12.4637 9.31716 10.8088C9.57656 10.4859 10.0486 10.4344 10.3716 10.6937Z" fill="black"/>
<path fill-rule="evenodd" clip-rule="evenodd" d="M18.4043 10.0857C18.7183 10.0857 18.999 9.89014 19.1078 9.59565L19.2088 9.32228C19.5139 8.49654 20.1639 7.84591 20.9877 7.54064L21.2606 7.43947C21.5548 7.33045 21.75 7.0499 21.75 6.73622C21.75 6.42253 21.5548 6.14198 21.2606 6.03296L20.9877 5.93181C20.1639 5.62654 19.514 4.97591 19.2089 4.15018C19.2089 4.15017 19.2089 4.15018 19.2089 4.15018L19.1078 3.87677C18.999 3.58227 18.7183 3.38671 18.4043 3.38671C18.0904 3.38671 17.8096 3.58227 17.7008 3.87677L17.5998 4.15017C17.5998 4.15017 17.5998 4.15017 17.5998 4.15017C17.2947 4.9759 16.6448 5.62651 15.821 5.93178C15.821 5.93179 15.821 5.93178 15.821 5.93178L15.548 6.03294C15.2538 6.14194 15.0586 6.4225 15.0586 6.73622C15.0586 7.04993 15.2538 7.33049 15.548 7.43949L15.821 7.54064C15.821 7.54064 15.821 7.54064 15.821 7.54064C16.6448 7.84591 17.2947 8.49653 17.5998 9.32226L17.7008 9.59565C17.8096 9.89015 18.0904 10.0857 18.4043 10.0857ZM17.4557 6.73621C17.8174 6.46882 18.1372 6.1487 18.4043 5.7867C18.6715 6.1487 18.9913 6.46882 19.353 6.73621C18.9913 7.00361 18.6715 7.32373 18.4043 7.68573C18.1372 7.32373 17.8174 7.00361 17.4557 6.73621Z" fill="black"/>
<path fill-rule="evenodd" clip-rule="evenodd" d="M13.0937 11.3278C13.4239 11.3278 13.7152 11.1118 13.8113 10.7958C13.9103 10.47 14.1647 10.2156 14.489 10.1167C14.8047 10.0205 15.0203 9.72929 15.0203 9.39931C15.0203 9.06933 14.8047 8.77812 14.489 8.6819C14.1647 8.58304 13.9103 8.32862 13.8113 8.00277C13.7152 7.68683 13.4239 7.47086 13.0937 7.47086C12.7635 7.47086 12.4721 7.68683 12.3761 8.00277C12.277 8.32862 12.0226 8.58304 11.6983 8.6819C11.3827 8.77812 11.167 9.06933 11.167 9.39931C11.167 9.72929 11.3827 10.0205 11.6983 10.1167C12.0226 10.2156 12.277 10.47 12.3761 10.7958C12.4721 11.1118 12.7635 11.3278 13.0937 11.3278Z" fill="black"/>
</svg>
