<svg width="24" height="24" viewBox="0 0 24 24" fill="none" xmlns="http://www.w3.org/2000/svg">
<path fill-rule="evenodd" clip-rule="evenodd" d="M3.41125 10.5887C3.41125 5.84588 7.2562 2 12 2C16.7437 2 20.5887 5.84588 20.5887 10.5887C20.5887 13.8918 18.7242 16.7579 15.9937 18.1943C15.886 18.2509 15.7662 18.2805 15.6445 18.2805H8.35542C8.23376 18.2805 8.11392 18.2509 8.00625 18.1943C5.2757 16.7579 3.41125 13.8918 3.41125 10.5887ZM12 3.5C8.08473 3.5 4.91125 6.6742 4.91125 10.5887C4.91125 13.2486 6.37572 15.5673 8.54562 16.7805H15.4543C17.6242 15.5673 19.0887 13.2486 19.0887 10.5887C19.0887 6.6742 15.9152 3.5 12 3.5Z" fill="black"/>
<path fill-rule="evenodd" clip-rule="evenodd" d="M15.2223 16.9271C15.5711 16.7036 16.035 16.8052 16.2584 17.1539L17.0735 18.4261C17.3107 18.7961 17.5156 19.1159 17.6552 19.3842C17.7954 19.6536 17.9335 19.9847 17.9104 20.3578C17.8784 20.8771 17.6169 21.3553 17.1969 21.6625C16.8952 21.8831 16.5419 21.9455 16.2394 21.9728C15.9382 22 15.5584 22 15.1189 22H8.88697C8.44749 22 8.06764 22 7.76644 21.9728C7.464 21.9455 7.11066 21.8831 6.80899 21.6625C6.38899 21.3553 6.12748 20.8771 6.09542 20.3578C6.0724 19.9847 6.21047 19.6535 6.35067 19.3842C6.49029 19.1159 6.69524 18.7961 6.93236 18.4261C6.93843 18.4166 6.94453 18.4071 6.95065 18.3975L7.74405 17.1593C7.96752 16.8105 8.4314 16.709 8.78016 16.9325C9.12892 17.1559 9.23049 17.6198 9.00702 17.9686L8.21362 19.2068C7.95298 19.6135 7.78577 19.8759 7.68125 20.0767C7.61571 20.2026 7.5982 20.2626 7.59386 20.2796C7.60148 20.3435 7.63351 20.4021 7.68324 20.443C7.6999 20.4485 7.75984 20.4661 7.90122 20.4789C8.1267 20.4992 8.43778 20.5 8.92088 20.5H15.085C15.5681 20.5 15.8792 20.4992 16.1047 20.4789C16.246 20.4661 16.306 20.4485 16.3226 20.443C16.3724 20.4021 16.4044 20.3435 16.412 20.2796C16.4077 20.2626 16.3902 20.2026 16.3246 20.0767C16.2201 19.8759 16.0529 19.6135 15.7923 19.2068L14.9955 17.9632C14.772 17.6144 14.8736 17.1505 15.2223 16.9271Z" fill="black"/>
<path fill-rule="evenodd" clip-rule="evenodd" d="M10.0033 12.1285C9.68932 12.1285 9.40859 11.933 9.29977 11.6385L9.21174 11.4003C8.95561 10.7071 8.41004 10.1609 7.71859 9.90471L7.4807 9.81654C7.18657 9.70752 6.99135 9.42697 6.99135 9.11329C6.99135 8.7996 7.18657 8.51905 7.4807 8.41004L7.71854 8.32188C8.41 8.06566 8.9556 7.51952 9.21173 6.82633C9.21173 6.82632 9.21173 6.82633 9.21173 6.82633L9.29976 6.58808C9.40857 6.29357 9.68931 6.09801 10.0033 6.09801C10.3172 6.09801 10.598 6.29357 10.7068 6.58807L10.7948 6.82632C11.0509 7.51952 11.5965 8.06563 12.2879 8.32186C12.2879 8.32186 12.2879 8.32186 12.2879 8.32186L12.5258 8.41001C12.82 8.51901 13.0153 8.79958 13.0153 9.11329C13.0153 9.427 12.82 9.70756 12.5258 9.81656L12.288 9.90471C12.288 9.9047 12.288 9.90471 12.288 9.90471C11.5965 10.1609 11.0509 10.7071 10.7948 11.4003L10.7068 11.6385C10.598 11.933 10.3172 12.1285 10.0033 12.1285ZM10.6712 9.11329C10.4231 8.91746 10.1989 8.69306 10.0033 8.44484C9.80762 8.69306 9.58342 8.91746 9.33539 9.11329C9.58342 9.30912 9.80762 9.53351 10.0033 9.78174C10.1989 9.53351 10.4231 9.30912 10.6712 9.11329Z" fill="black"/>
<path fill-rule="evenodd" clip-rule="evenodd" d="M14.6311 14.1825C14.3009 14.1825 14.0095 13.9665 13.9135 13.6506C13.8366 13.3973 13.6389 13.1997 13.387 13.123C13.0714 13.0268 12.8557 12.7355 12.8557 12.4056C12.8557 12.0756 13.0714 11.7844 13.387 11.6882C13.6389 11.6114 13.8366 11.4138 13.9135 11.1605C14.0095 10.8446 14.3009 10.6286 14.6311 10.6286C14.9613 10.6286 15.2527 10.8446 15.3487 11.1605C15.4257 11.4138 15.6233 11.6114 15.8752 11.6882C16.1908 11.7844 16.4065 12.0756 16.4065 12.4056C16.4065 12.7355 16.1908 13.0268 15.8752 13.123C15.6233 13.1997 15.4257 13.3973 15.3487 13.6506C15.2527 13.9665 14.9613 14.1825 14.6311 14.1825Z" fill="black"/>
</svg>
