<svg width="24" height="24" viewBox="0 0 24 24" fill="none" xmlns="http://www.w3.org/2000/svg">
<path fill-rule="evenodd" clip-rule="evenodd" d="M10.4348 8.43823C10.0797 8.43823 9.7414 8.58925 9.5043 8.85358L8.59956 9.86223C8.4573 10.0208 8.2543 10.1114 8.04125 10.1114H3.51831C3.1041 10.1114 2.76831 9.77565 2.76831 9.36144C2.76831 8.94723 3.1041 8.61144 3.51831 8.61144H7.70648L8.38768 7.85199L8.94065 8.34799L8.38769 7.85199C8.9093 7.27047 9.65363 6.93823 10.4348 6.93823H13.5664C14.3476 6.93823 15.0919 7.2705 15.6136 7.85205L16.2947 8.61144H20.4829C20.8971 8.61144 21.2329 8.94723 21.2329 9.36144C21.2329 9.77565 20.8971 10.1114 20.4829 10.1114H15.9599C15.7468 10.1114 15.5438 10.0208 15.4016 9.86221L14.4969 8.85361C14.2598 8.58926 13.9215 8.43823 13.5664 8.43823H10.4348Z" fill="black"/>
<path fill-rule="evenodd" clip-rule="evenodd" d="M12 3.75C7.44365 3.75 3.75 7.44365 3.75 12C3.75 16.5563 7.44365 20.25 12 20.25C12.4142 20.25 12.75 20.5858 12.75 21C12.75 21.4142 12.4142 21.75 12 21.75C6.61522 21.75 2.25 17.3848 2.25 12C2.25 6.61522 6.61522 2.25 12 2.25C17.3848 2.25 21.75 6.61522 21.75 12C21.75 12.4142 21.4142 12.75 21 12.75C20.5858 12.75 20.25 12.4142 20.25 12C20.25 7.44365 16.5563 3.75 12 3.75Z" fill="black"/>
<path fill-rule="evenodd" clip-rule="evenodd" d="M7.84438 15.9353C8.76151 16.9494 9.24194 18.5224 9.24194 20.7585C9.24194 21.1727 9.57773 21.5085 9.99194 21.5085C10.4062 21.5085 10.7419 21.1727 10.7419 20.7585C10.7419 18.3455 10.2289 16.3357 8.9569 14.9292C7.6711 13.5074 5.73946 12.8428 3.22228 12.8428C2.80807 12.8428 2.47228 13.1786 2.47228 13.5928C2.47228 14.007 2.80807 14.3428 3.22228 14.3428C5.48784 14.3428 6.94103 14.9365 7.84438 15.9353Z" fill="black"/>
<path fill-rule="evenodd" clip-rule="evenodd" d="M17.7537 13.7479C18.0676 13.7479 18.3483 13.9435 18.4572 14.238L18.5835 14.5799C18.9841 15.664 19.8374 16.5183 20.9192 16.9192L21.2605 17.0457C21.5547 17.1547 21.7499 17.4353 21.7499 17.7489C21.7499 18.0626 21.5547 18.3432 21.2605 18.4522L20.9192 18.5787C19.8374 18.9796 18.9841 19.8339 18.5835 20.918C18.5835 20.918 18.5835 20.918 18.5835 20.918L18.4572 21.2599C18.3484 21.5544 18.0676 21.75 17.7537 21.75C17.4397 21.75 17.159 21.5544 17.0501 21.2599L16.9238 20.918C16.9238 20.918 16.9238 20.918 16.9238 20.918C16.5232 19.8339 15.67 18.9796 14.5882 18.5787C14.5882 18.5787 14.5882 18.5787 14.5882 18.5787L14.2467 18.4522C13.9526 18.3432 13.7573 18.0627 13.7573 17.7489C13.7573 17.4352 13.9526 17.1547 14.2467 17.0457L14.5882 16.9192C14.5881 16.9192 14.5882 16.9192 14.5882 16.9192C15.6699 16.5183 16.5232 15.664 16.9238 14.5799L17.0501 14.238C17.159 13.9435 17.4397 13.7479 17.7537 13.7479ZM16.2403 17.7489C16.8397 18.1488 17.3542 18.6639 17.7537 19.2637C18.1531 18.6639 18.6676 18.1488 19.267 17.7489C18.6676 17.3491 18.1531 16.834 17.7537 16.2342C17.3542 16.834 16.8397 17.3491 16.2403 17.7489Z" fill="black"/>
<path fill-rule="evenodd" clip-rule="evenodd" d="M12.2497 10.8531C12.5799 10.8531 12.8713 11.0691 12.9673 11.3851C13.1562 12.0069 13.6419 12.4929 14.2617 12.6818C14.5774 12.778 14.793 13.0693 14.793 13.3992C14.793 13.7292 14.5774 14.0204 14.2617 14.1166C13.6419 14.3056 13.1562 14.7916 12.9673 15.4134C12.8713 15.7294 12.5799 15.9453 12.2497 15.9453C11.9195 15.9453 11.6281 15.7294 11.5321 15.4134C11.3431 14.7916 10.8574 14.3056 10.2376 14.1166C9.92197 14.0204 9.7063 13.7292 9.7063 13.3992C9.7063 13.0693 9.92197 12.778 10.2376 12.6818C10.8574 12.4929 11.3431 12.0069 11.5321 11.3851C11.6281 11.0691 11.9195 10.8531 12.2497 10.8531ZM11.9555 13.3992C12.0594 13.4914 12.1576 13.5897 12.2497 13.6937C12.3417 13.5897 12.44 13.4914 12.5438 13.3992C12.44 13.3071 12.3417 13.2088 12.2497 13.1048C12.1576 13.2088 12.0594 13.3071 11.9555 13.3992Z" fill="black"/>
</svg>
