<svg width="24" height="24" viewBox="0 0 24 24" fill="none" xmlns="http://www.w3.org/2000/svg">
<path fill-rule="evenodd" clip-rule="evenodd" d="M3.08059 9.77844C3.49307 9.81621 3.79684 10.1812 3.75908 10.5937C3.51103 13.3028 5.0179 16.4688 8.00257 18.5587C9.22933 19.4177 10.5489 19.9833 11.8502 20.2672C12.2549 20.3555 12.5114 20.7551 12.4231 21.1598C12.3348 21.5645 11.9351 21.821 11.5304 21.7327C10.0316 21.4057 8.52876 20.7583 7.14221 19.7874C3.80108 17.4479 1.9595 13.7971 2.26533 10.4569C2.30309 10.0444 2.6681 9.74067 3.08059 9.77844Z" fill="black"/>
<path fill-rule="evenodd" clip-rule="evenodd" d="M18.2123 8.23029C18.5326 7.9677 19.0052 8.01452 19.2678 8.33487C20.5741 9.9285 21.273 11.6041 21.5089 13.101C21.7413 14.5758 21.5319 15.949 20.9162 16.8725C19.7481 18.6247 17.9806 18.8906 16.6334 18.7559C15.961 18.6887 15.3642 18.5219 14.9394 18.3749C14.7256 18.3009 14.5515 18.2305 14.4287 18.1776C14.3672 18.1511 14.3183 18.1288 14.2835 18.1125C14.266 18.1044 14.2521 18.0977 14.2418 18.0928L14.2292 18.0866L14.2249 18.0845L14.2234 18.0837C14.2231 18.0836 14.2221 18.0831 14.5575 17.4123L14.2221 18.0831C13.8516 17.8979 13.7015 17.4473 13.8867 17.0769C14.0717 16.7069 14.5213 16.5566 14.8915 16.7407L14.8953 16.7426L14.9184 16.7535C14.9405 16.7639 14.9756 16.7799 15.0224 16.8001C15.1162 16.8405 15.2557 16.897 15.4301 16.9574C15.7819 17.0792 16.2603 17.2111 16.7827 17.2634C17.8249 17.3676 18.9247 17.1556 19.6681 16.0405C20.0082 15.5304 20.2228 14.5764 20.0272 13.3345C19.835 12.1146 19.2538 10.684 18.1077 9.28578C17.8451 8.96544 17.8919 8.49288 18.2123 8.23029Z" fill="black"/>
<path fill-rule="evenodd" clip-rule="evenodd" d="M9.85776 4.55957C9.87968 4.14594 10.2328 3.82839 10.6464 3.85031C12.2191 3.93366 13.8474 4.37868 15.3868 5.18636C15.7535 5.37881 15.8949 5.83217 15.7024 6.19896C15.51 6.56575 15.0566 6.70707 14.6898 6.51462C13.3333 5.80285 11.9147 5.41964 10.567 5.34821C10.1534 5.32629 9.83584 4.9732 9.85776 4.55957Z" fill="black"/>
<path fill-rule="evenodd" clip-rule="evenodd" d="M18.9172 2.33544C19.5505 2.51625 20.0998 2.95598 20.4869 3.30534C20.8739 3.65471 21.3675 4.15613 21.6121 4.76766C21.7405 5.08871 21.8081 5.45875 21.7414 5.85603C21.6745 6.25492 21.4819 6.62298 21.1834 6.95368L21.1707 6.96745L13.2223 15.3429C12.8223 15.782 12.2642 16.0445 11.6706 16.0725L9.67259 16.1666C8.98854 16.1988 8.40648 15.6734 8.36863 14.9897L8.25807 12.9926C8.22503 12.3958 8.43171 11.8105 8.83219 11.3668L8.84494 11.353L16.7932 2.97769C17.0902 2.65101 17.4343 2.42447 17.8213 2.31795C18.2097 2.21104 18.5847 2.24052 18.9172 2.33544ZM18.2194 3.76416C18.1492 3.7835 18.04 3.83505 17.9 3.99019L17.8872 4.00396L9.94055 12.3776C9.81145 12.5236 9.74499 12.7148 9.75578 12.9097L9.85248 14.6564L11.6 14.5742C11.7975 14.5649 11.9832 14.4771 12.1157 14.3302L12.1284 14.3165L20.0755 5.94242C20.211 5.79047 20.2502 5.6787 20.2621 5.60781C20.2744 5.53433 20.2673 5.44478 20.2193 5.32465C20.111 5.05383 19.8449 4.74655 19.4818 4.41887C19.1188 4.0912 18.7859 3.85789 18.5055 3.77782C18.381 3.7423 18.2912 3.74439 18.2194 3.76416Z" fill="black"/>
<path fill-rule="evenodd" clip-rule="evenodd" d="M6.18522 3.65076C6.49918 3.65076 6.77991 3.84631 6.88873 4.1408L6.97441 4.37266C7.22167 5.04187 7.74835 5.5691 8.41586 5.81645L8.64739 5.90227C8.94152 6.01128 9.13674 6.29183 9.13674 6.60552C9.13674 6.9192 8.94152 7.19975 8.64739 7.30877L8.4159 7.39457C7.7484 7.64192 7.22168 8.16914 6.97442 8.83835C6.97442 8.83835 6.97442 8.83835 6.97442 8.83835L6.88874 9.07024C6.77993 9.36474 6.49919 9.5603 6.18522 9.5603C5.87126 9.5603 5.59052 9.36474 5.48171 9.07024L5.39603 8.83835C5.14877 8.16915 4.6221 7.64194 3.9546 7.39459C3.9546 7.39459 3.95461 7.39459 3.9546 7.39459L3.72306 7.30879C3.42889 7.19979 3.23364 6.91923 3.23364 6.60552C3.23364 6.29181 3.42889 6.01124 3.72306 5.90224L3.95459 5.81645C3.95458 5.81646 3.95459 5.81645 3.95459 5.81645C4.62208 5.5691 5.14877 5.04189 5.39603 4.37268L5.48172 4.1408C5.59054 3.8463 5.87127 3.65076 6.18522 3.65076ZM5.56737 6.60552C5.79557 6.78808 6.00282 6.99551 6.18522 7.22389C6.36762 6.99551 6.57487 6.78808 6.80308 6.60552C6.57487 6.42296 6.36762 6.21552 6.18522 5.98714C6.00282 6.21552 5.79557 6.42296 5.56737 6.60552Z" fill="black"/>
</svg>
