<svg width="24" height="24" viewBox="0 0 24 24" fill="none" xmlns="http://www.w3.org/2000/svg">
<path fill-rule="evenodd" clip-rule="evenodd" d="M16.8334 2.87417C17.0035 2.04193 18.1926 2.04195 18.3627 2.87417C18.6471 4.26559 19.7345 5.35296 21.1259 5.63736C21.9581 5.80746 21.9581 6.99656 21.1259 7.16666C19.7345 7.45105 18.6471 8.53843 18.3627 9.92985C18.1926 10.7621 17.0035 10.7621 16.8334 9.92985C16.549 8.53843 15.4616 7.45105 14.0702 7.16666C13.238 6.99656 13.238 5.80746 14.0702 5.63736C15.4616 5.35296 16.549 4.26559 16.8334 2.87417ZM17.5981 4.90183C17.21 5.50222 16.6983 6.01399 16.0979 6.40201C16.6983 6.79003 17.21 7.3018 17.5981 7.90219C17.9861 7.3018 18.4978 6.79003 19.0982 6.40201C18.4978 6.01399 17.9861 5.50222 17.5981 4.90183Z" fill="black"/>
<path fill-rule="evenodd" clip-rule="evenodd" d="M5.5169 3.13513C5.93111 3.13513 6.2669 3.47092 6.2669 3.88513V5.65203H10.5507C10.9649 5.65203 11.3007 5.98782 11.3007 6.40203C11.3007 6.81624 10.9649 7.15203 10.5507 7.15203H6.2669V17.7331H16.848V13.4493C16.848 13.0351 17.1838 12.6993 17.598 12.6993C18.0122 12.6993 18.348 13.0351 18.348 13.4493V17.7331H20.1149C20.5291 17.7331 20.8649 18.0689 20.8649 18.4831C20.8649 18.8974 20.5291 19.2331 20.1149 19.2331H18.348V21C18.348 21.4143 18.0122 21.75 17.598 21.75C17.1838 21.75 16.848 21.4143 16.848 21V19.2331H6.2669V21C6.2669 21.4143 5.93111 21.75 5.5169 21.75C5.10268 21.75 4.7669 21.4143 4.7669 21V19.2331H3C2.58579 19.2331 2.25 18.8974 2.25 18.4831C2.25 18.0689 2.58579 17.7331 3 17.7331H4.7669V7.15203H3C2.58579 7.15203 2.25 6.81624 2.25 6.40203C2.25 5.98782 2.58579 5.65203 3 5.65203H4.7669V3.88513C4.7669 3.47092 5.10268 3.13513 5.5169 3.13513Z" fill="black"/>
</svg>
