<svg width="24" height="24" viewBox="0 0 24 24" fill="none" xmlns="http://www.w3.org/2000/svg">
<path d="M12.64 20H5.85001C3.10001 20 1.25 18.07 1.25 15.2V8.8C1.25 5.98 3.14001 4 5.85001 4H12.64C15.35 4 17.24 5.97 17.24 8.8V15.2C17.24 18.07 15.39 20 12.64 20ZM5.85001 5.5C3.97001 5.5 2.75 6.79 2.75 8.8V15.2C2.75 17.23 3.94001 18.5 5.85001 18.5H12.64C14.55 18.5 15.74 17.24 15.74 15.2V8.8C15.74 6.77 14.55 5.5 12.64 5.5H5.85001Z" fill="black"/>
<path d="M20.7 17.8401C20.23 17.8401 19.77 17.6701 19.41 17.3801L16.02 14.5901C15.7 14.3301 15.65 13.8501 15.92 13.5301C16.18 13.2101 16.66 13.1601 16.98 13.4301L20.37 16.2201C20.47 16.3001 20.62 16.3801 20.71 16.3401C20.86 16.3401 20.99 16.2801 21.09 16.1801C21.19 16.0801 21.25 15.9401 21.25 15.8001V8.20006C21.26 8.07006 21.22 7.95006 21.14 7.86006C21.05 7.75006 20.92 7.68005 20.77 7.66005C20.63 7.65005 20.49 7.69005 20.37 7.78005L16.96 10.5701C16.64 10.8301 16.17 10.7901 15.9 10.4601C15.64 10.1401 15.69 9.67006 16.01 9.40006L19.42 6.61006C19.84 6.26006 20.37 6.10005 20.91 6.16005C21.45 6.21005 21.94 6.48006 22.29 6.90006C22.59 7.26006 22.75 7.73006 22.75 8.20006V15.8001C22.74 16.3501 22.52 16.8601 22.14 17.2401C21.76 17.6201 21.24 17.8301 20.7 17.8301V17.8401Z" fill="black"/>
<path d="M7.47987 14.54C7.16987 14.54 6.88988 14.34 6.77988 14.05L6.68988 13.8C6.41988 13.07 5.84987 12.5 5.11987 12.23L4.86987 12.14C4.57987 12.03 4.37988 11.75 4.37988 11.44C4.37988 11.13 4.57987 10.85 4.86987 10.74L5.11987 10.65C5.84987 10.38 6.41988 9.80997 6.68988 9.07997L6.77988 8.82997C6.88988 8.53997 7.16987 8.33997 7.47987 8.33997C7.78987 8.33997 8.06987 8.53997 8.17987 8.82997L8.26988 9.07997C8.53988 9.80997 9.10987 10.38 9.83987 10.65L10.0899 10.74C10.3799 10.85 10.5799 11.13 10.5799 11.44C10.5799 11.75 10.3799 12.03 10.0899 12.14L9.83987 12.23C9.10987 12.5 8.53988 13.07 8.26988 13.8L8.17987 14.05C8.06987 14.34 7.78987 14.54 7.47987 14.54ZM6.73988 11.44C7.01988 11.66 7.26987 11.91 7.47987 12.18C7.69987 11.9 7.93988 11.65 8.21988 11.44C7.93988 11.22 7.68987 10.97 7.47987 10.7C7.25987 10.98 7.01988 11.23 6.73988 11.44Z" fill="black"/>
<path d="M12.29 15.67C11.96 15.67 11.67 15.45 11.57 15.14C11.49 14.87 11.28 14.65 11 14.57C10.68 14.47 10.47 14.18 10.47 13.85C10.47 13.52 10.69 13.23 11 13.13C11.27 13.05 11.48 12.83 11.57 12.56C11.67 12.24 11.96 12.03 12.29 12.03C12.61 11.99 12.91 12.24 13.01 12.56C13.09 12.83 13.31 13.05 13.58 13.13C13.9 13.23 14.11 13.52 14.11 13.85C14.11 14.18 13.89 14.47 13.58 14.57C13.31 14.65 13.1 14.87 13.01 15.14C12.91 15.46 12.62 15.67 12.29 15.67Z" fill="black"/>
</svg>
