<svg width="24" height="24" viewBox="0 0 24 24" fill="none" xmlns="http://www.w3.org/2000/svg">
<path d="M6.46001 21.5349C6.46001 21.5349 6.40001 21.5349 6.37001 21.5349C6.15001 21.5349 5.91001 21.4949 5.68001 21.4549C4.09001 21.1449 2.80001 19.9249 2.40001 18.3649C1.91001 16.4449 2.72002 14.4949 4.41002 13.5149C5.01002 13.1649 5.72002 13.1249 6.35002 13.4049C6.99002 13.6849 7.46001 14.2349 7.62001 14.9149L8.56002 18.8449C8.72002 19.5249 8.56001 20.2249 8.12001 20.7549C7.70001 21.2549 7.11001 21.5449 6.46001 21.5449V21.5349ZM5.49001 14.7149C5.37001 14.7149 5.26002 14.7449 5.16002 14.8049C4.24002 15.3349 3.48002 16.5249 3.85002 17.9849C4.11002 18.9849 4.96002 19.7849 5.97002 19.9849C6.13002 20.0149 6.28001 20.0349 6.43001 20.0449C6.70001 20.0449 6.88001 19.8949 6.96001 19.8049C7.10001 19.6349 7.15002 19.4049 7.10002 19.1949L6.16002 15.2649C6.11002 15.0549 5.96003 14.8749 5.76003 14.7849C5.67003 14.7449 5.58001 14.7249 5.49001 14.7249V14.7149Z" fill="black"/>
<path d="M17.5399 21.535C16.8999 21.535 16.2999 21.255 15.8899 20.745C15.4499 20.205 15.2799 19.505 15.4399 18.835L16.3799 14.895C16.5399 14.215 16.9999 13.665 17.6499 13.395C18.2899 13.125 18.9899 13.165 19.5899 13.505C21.2799 14.485 22.0899 16.435 21.5999 18.355C21.1999 19.925 19.9099 21.135 18.3099 21.455C18.0799 21.505 17.8499 21.525 17.6299 21.535C17.5999 21.535 17.5699 21.535 17.5399 21.535ZM18.5099 14.725C18.4199 14.725 18.3299 14.745 18.2399 14.785C18.0399 14.875 17.8899 15.045 17.8399 15.265L16.8999 19.205C16.8499 19.415 16.8999 19.645 17.0399 19.815C17.1199 19.905 17.2699 20.055 17.5699 20.055C17.7199 20.055 17.8699 20.035 18.0199 20.005C19.0399 19.805 19.8999 19.005 20.1499 18.005C20.5199 16.555 19.7599 15.365 18.8399 14.835C18.7399 14.775 18.6199 14.745 18.5099 14.745V14.725Z" fill="black"/>
<path d="M19.6301 15.175C19.2201 15.175 18.8801 14.835 18.8801 14.425V12.505C18.8801 11.305 18.5701 10.125 17.9701 9.09503C17.7601 8.73503 17.8901 8.27504 18.2501 8.07504C18.6101 7.86504 19.0701 7.99504 19.2701 8.35504C19.9901 9.61504 20.3701 11.055 20.3701 12.515V14.435C20.3701 14.845 20.0301 15.185 19.6201 15.185L19.6301 15.175ZM4.37012 15.175C3.96012 15.175 3.62012 14.835 3.62012 14.425V12.505C3.62012 10.905 4.07011 9.35504 4.93011 8.01504C5.15011 7.66504 5.61012 7.56503 5.97012 7.78503C6.32012 8.00503 6.42013 8.47504 6.20013 8.82504C5.50013 9.92504 5.13013 11.195 5.13013 12.515V14.435C5.13013 14.845 4.79013 15.185 4.38013 15.185L4.37012 15.175Z" fill="black"/>
<path d="M14.23 9.97498C13.82 9.97498 13.48 9.64498 13.48 9.22498C13.48 8.80498 13.82 8.46497 14.23 8.46497C14.64 8.46497 14.98 8.80497 14.98 9.21497C14.98 9.62497 14.64 9.96497 14.23 9.96497V9.97498Z" fill="black"/>
<path d="M9.95001 8.89496C9.64001 8.89496 9.36 8.70494 9.25 8.40494L9.14999 8.14496C8.85999 7.36496 8.25999 6.76495 7.48999 6.47495L7.23001 6.37494C6.94001 6.26494 6.73999 5.98496 6.73999 5.67496C6.73999 5.36496 6.94001 5.08494 7.23001 4.97495L7.48999 4.87494C8.25999 4.58494 8.86999 3.98496 9.14999 3.20496L9.25 2.94495C9.36 2.65495 9.64001 2.45496 9.95001 2.45496C10.26 2.45496 10.54 2.65495 10.65 2.94495L10.75 3.20496C11.04 3.97496 11.64 4.58494 12.41 4.87494L12.67 4.97495C12.96 5.08494 13.16 5.36496 13.16 5.67496C13.16 5.98496 12.97 6.26494 12.67 6.37494L12.41 6.47495C11.64 6.76495 11.03 7.36496 10.74 8.14496L10.64 8.40494C10.53 8.69494 10.25 8.89496 9.94 8.89496H9.95001ZM9.10999 5.68494C9.42999 5.92494 9.71 6.20495 9.94 6.51495C10.18 6.19495 10.46 5.91494 10.77 5.68494C10.45 5.44494 10.17 5.16495 9.94 4.85495C9.7 5.17495 9.41999 5.45494 9.10999 5.68494Z" fill="black"/>
<path d="M16.44 6.78497C16.11 6.78497 15.82 6.56497 15.72 6.25497C15.59 5.82497 15.25 5.48497 14.81 5.34497C14.49 5.24497 14.28 4.95497 14.28 4.62497C14.28 4.29497 14.5 4.00497 14.81 3.90497C15.24 3.77497 15.58 3.43496 15.72 2.99496C15.82 2.67496 16.11 2.46497 16.44 2.46497C16.77 2.46497 17.06 2.68496 17.16 2.99496C17.29 3.43496 17.63 3.77497 18.07 3.90497C18.39 4.00497 18.6 4.29497 18.6 4.62497C18.6 4.95497 18.39 5.24497 18.07 5.34497C17.63 5.47497 17.29 5.81497 17.16 6.25497C17.06 6.57497 16.77 6.78497 16.44 6.78497Z" fill="black"/>
</svg>
