<svg width="24" height="24" viewBox="0 0 24 24" fill="none" xmlns="http://www.w3.org/2000/svg">
<path fill-rule="evenodd" clip-rule="evenodd" d="M10.9393 3.31067C10.9393 2.89646 11.2751 2.56067 11.6893 2.56067C13.8294 2.56067 15.9059 3.2879 17.5784 4.62311C19.2509 5.95831 20.4201 7.82222 20.8941 9.90916C20.9858 10.3131 20.7328 10.7149 20.3288 10.8067C19.9249 10.8984 19.5231 10.6453 19.4313 10.2414C19.0326 8.48611 18.0493 6.91839 16.6426 5.79536C15.2359 4.67234 13.4893 4.06067 11.6893 4.06067C11.2751 4.06067 10.9393 3.72488 10.9393 3.31067ZM5.38858 5.96941C5.71134 6.22903 5.76253 6.70113 5.50292 7.02389C4.37474 8.42648 3.75666 10.1708 3.75005 11.9708C3.74345 13.7708 4.3487 15.5196 5.46656 16.9304C6.58441 18.3413 8.14851 19.3304 9.90233 19.7355C11.6562 20.1406 13.4956 19.9378 15.119 19.1602C15.4926 18.9813 15.9404 19.139 16.1194 19.5126C16.2983 19.8862 16.1405 20.3341 15.767 20.513C13.8369 21.4375 11.6499 21.6787 9.56472 21.197C7.47954 20.7153 5.61993 19.5394 4.29087 17.862C2.96182 16.1846 2.24221 14.1054 2.25006 11.9653C2.25792 9.82522 2.99277 7.75133 4.3341 6.08375C4.59372 5.76099 5.06582 5.7098 5.38858 5.96941Z" fill="black"/>
<path fill-rule="evenodd" clip-rule="evenodd" d="M13.9581 16.8595C14.0791 17.2556 13.8561 17.6748 13.4599 17.7959C12.3388 18.1384 11.1425 18.1484 10.0158 17.8246C8.88913 17.5009 7.88053 16.8574 7.11224 15.972C6.34395 15.0866 5.84893 13.9974 5.68719 12.8363C5.52544 11.6753 5.70391 10.4923 6.20096 9.43062C6.69801 8.36896 7.4923 7.47425 8.48759 6.85492C9.48288 6.23558 10.6364 5.9182 11.8085 5.94124C12.9805 5.96429 14.1207 6.32676 15.0908 6.98474C16.061 7.64272 16.8195 8.56795 17.2745 9.64833C17.4352 10.0301 17.2561 10.4699 16.8743 10.6306C16.4926 10.7914 16.0528 10.6122 15.892 10.2305C15.5497 9.4175 14.9789 8.72128 14.2489 8.22616C13.5189 7.73105 12.6609 7.45829 11.779 7.44095C10.897 7.42362 10.029 7.66244 9.28009 8.12847C8.53115 8.59451 7.93346 9.26776 7.55944 10.0666C7.18542 10.8655 7.05113 11.7557 7.17284 12.6294C7.29455 13.503 7.66704 14.3226 8.24516 14.9889C8.82329 15.6551 9.58224 16.1394 10.43 16.383C11.2778 16.6266 12.1781 16.619 13.0217 16.3613C13.4178 16.2403 13.8371 16.4633 13.9581 16.8595Z" fill="black"/>
<path fill-rule="evenodd" clip-rule="evenodd" d="M18.3009 11.7543C18.6149 11.7543 18.8956 11.9498 19.0044 12.2443L19.1095 12.5286C19.4297 13.3954 20.112 14.0784 20.9768 14.3988L21.2606 14.504C21.5547 14.613 21.75 14.8936 21.75 15.2073C21.75 15.521 21.5547 15.8015 21.2606 15.9105L20.9768 16.0157C20.112 16.3362 19.4297 17.0192 19.1095 17.886C19.1095 17.886 19.1095 17.886 19.1095 17.886L19.0044 18.1703C18.8956 18.4648 18.6149 18.6603 18.3009 18.6603C17.987 18.6603 17.7062 18.4648 17.5974 18.1703L17.4924 17.886C17.4924 17.886 17.4924 17.886 17.4924 17.886C17.1721 17.0192 16.4899 16.3362 15.6251 16.0157C15.6251 16.0157 15.6251 16.0157 15.6251 16.0157L15.3412 15.9106C15.0471 15.8016 14.8518 15.521 14.8518 15.2073C14.8518 14.8936 15.0471 14.613 15.3412 14.504L15.6251 14.3988C15.6251 14.3988 15.6251 14.3988 15.6251 14.3988C16.4899 14.0784 17.1721 13.3954 17.4924 12.5286L17.5974 12.2443C17.7062 11.9498 17.987 11.7543 18.3009 11.7543ZM17.2639 15.2073C17.6621 15.4963 18.0122 15.8467 18.3009 16.2452C18.5897 15.8467 18.9397 15.4963 19.3379 15.2073C18.9397 14.9183 18.5897 14.5679 18.3009 14.1693C18.0122 14.5679 17.6621 14.9183 17.2639 15.2073Z" fill="black"/>
<path fill-rule="evenodd" clip-rule="evenodd" d="M11.8753 9.46045C12.2055 9.46045 12.4968 9.67642 12.5929 9.99236C12.7872 10.6319 13.2868 11.1318 13.9243 11.3261C14.2399 11.4224 14.4556 11.7136 14.4556 12.0436C14.4556 12.3735 14.2399 12.6647 13.9243 12.761C13.2868 12.9553 12.7872 13.4552 12.5929 14.0947C12.4968 14.4107 12.2055 14.6267 11.8753 14.6267C11.5451 14.6267 11.2537 14.4107 11.1577 14.0947C10.9633 13.4552 10.4638 12.9553 9.82623 12.761C9.51059 12.6647 9.29492 12.3735 9.29492 12.0436C9.29492 11.7136 9.51059 11.4224 9.82623 11.3261C10.4638 11.1318 10.9633 10.6319 11.1577 9.99236C11.2537 9.67642 11.5451 9.46045 11.8753 9.46045ZM11.5517 12.0436C11.6665 12.1443 11.7746 12.2525 11.8753 12.3674C11.976 12.2525 12.0841 12.1443 12.1989 12.0436C12.0841 11.9428 11.976 11.8346 11.8753 11.7197C11.7746 11.8346 11.6665 11.9428 11.5517 12.0436Z" fill="black"/>
</svg>
