<svg width="24" height="24" viewBox="0 0 24 24" fill="none" xmlns="http://www.w3.org/2000/svg">
<path fill-rule="evenodd" clip-rule="evenodd" d="M2.25 16.4164C2.25 15.6986 2.83195 15.1167 3.54973 15.1167H20.4493C21.1672 15.1167 21.75 15.6978 21.75 16.4164V16.9233C21.75 18.6783 20.3264 20.1019 18.5715 20.1019H5.42854C3.67357 20.1019 2.25 18.6783 2.25 16.9233V16.4164ZM3.75 16.6167V16.9233C3.75 17.8499 4.502 18.6019 5.42854 18.6019H18.5715C19.498 18.6019 20.25 17.8499 20.25 16.9233V16.6167H3.75Z" fill="black"/>
<path fill-rule="evenodd" clip-rule="evenodd" d="M3.57812 7.66076C3.57812 5.58276 5.26245 3.89844 7.34045 3.89844H16.6567C18.7338 3.89844 20.418 5.58292 20.418 7.66076V15.8668C20.418 16.281 20.0822 16.6168 19.668 16.6168C19.2538 16.6168 18.918 16.281 18.918 15.8668V7.66076C18.918 6.41103 17.9051 5.39844 16.6567 5.39844H7.34045C6.09088 5.39844 5.07812 6.41119 5.07812 7.66076V15.8668C5.07812 16.281 4.74234 16.6168 4.32812 16.6168C3.91391 16.6168 3.57812 16.281 3.57812 15.8668V7.66076Z" fill="black"/>
<path fill-rule="evenodd" clip-rule="evenodd" d="M10.1543 6.78638C10.4682 6.78638 10.749 6.98194 10.8578 7.27644L10.9422 7.50493C10.9422 7.50493 10.9422 7.50493 10.9422 7.50493C11.1848 8.16134 11.7014 8.67846 12.3561 8.92108C12.3561 8.92108 12.3561 8.92108 12.3561 8.92108L12.5842 9.00562C12.8784 9.11462 13.0736 9.39519 13.0736 9.7089C13.0736 10.0226 12.8784 10.3032 12.5842 10.4122L12.3561 10.4967C12.3561 10.4967 12.3561 10.4967 12.3561 10.4967C11.7014 10.7393 11.1848 11.2564 10.9422 11.9129L10.8578 12.1413C10.749 12.4358 10.4682 12.6314 10.1543 12.6314C9.84033 12.6314 9.5596 12.4358 9.45078 12.1413L9.36636 11.9129C9.12382 11.2565 8.60721 10.7393 7.95248 10.4967L7.72434 10.4121C7.4302 10.3031 7.23499 10.0226 7.23499 9.7089C7.23499 9.39521 7.4302 9.11466 7.72434 9.00564L7.95244 8.9211C8.60716 8.67849 9.12381 8.16135 9.36635 7.50494C9.36635 7.50494 9.36635 7.50494 9.36635 7.50494L9.45077 7.27644C9.55958 6.98194 9.84032 6.78638 10.1543 6.78638ZM10.1543 9.11712C9.979 9.33502 9.78074 9.53345 9.56301 9.70889C9.78074 9.88434 9.979 10.0828 10.1543 10.3007C10.3296 10.0828 10.5278 9.88434 10.7456 9.70889C10.5278 9.53345 10.3296 9.33502 10.1543 9.11712Z" fill="black"/>
<path fill-rule="evenodd" clip-rule="evenodd" d="M14.9714 10.09C15.3016 10.09 15.593 10.3059 15.689 10.6219C15.7681 10.882 15.9712 11.085 16.2299 11.1639C16.5455 11.2601 16.7612 11.5513 16.7612 11.8813C16.7612 12.2113 16.5455 12.5025 16.2299 12.5987C15.9712 12.6776 15.7681 12.8806 15.689 13.1408C15.593 13.4567 15.3016 13.6727 14.9714 13.6727C14.6412 13.6727 14.3498 13.4567 14.2538 13.1408C14.1748 12.8806 13.9717 12.6776 13.7129 12.5987C13.3973 12.5025 13.1816 12.2113 13.1816 11.8813C13.1816 11.5513 13.3973 11.2601 13.7129 11.1639C13.9717 11.085 14.1748 10.882 14.2538 10.6219C14.3498 10.3059 14.6412 10.09 14.9714 10.09Z" fill="black"/>
</svg>
