<svg width="24" height="24" viewBox="0 0 24 24" fill="none" xmlns="http://www.w3.org/2000/svg">
<path fill-rule="evenodd" clip-rule="evenodd" d="M13.7174 3.41695C13.791 3.00933 14.181 2.73853 14.5887 2.8121C17.2689 3.29589 19.6244 4.94755 20.7341 7.51448C22.0171 10.4822 21.2691 13.8175 19.181 16.2354C18.9103 16.5489 18.4367 16.5836 18.1232 16.3129C17.8097 16.0421 17.775 15.5685 18.0458 15.255C19.815 13.2063 20.3792 10.4735 19.3573 8.10972C18.4719 6.06166 16.5736 4.69463 14.3222 4.28825C13.9146 4.21467 13.6438 3.82458 13.7174 3.41695Z" fill="black"/>
<path fill-rule="evenodd" clip-rule="evenodd" d="M10.3541 11.1418C10.0555 10.7155 9.46786 10.6118 9.0415 10.9104C8.61513 11.2089 8.51151 11.7966 8.81005 12.223L14.1492 19.848C14.4477 20.2744 15.0354 20.378 15.4618 20.0795C15.8881 19.7809 15.9917 19.1933 15.6932 18.7669L10.3541 11.1418ZM8.18113 9.68167C9.28611 8.90795 10.8091 9.1765 11.5828 10.2815L16.9219 17.9065C17.6956 19.0115 17.4271 20.5345 16.3221 21.3082C15.2171 22.0819 13.6942 21.8134 12.9204 20.7084L7.58133 13.0833C6.80761 11.9784 7.07615 10.4554 8.18113 9.68167Z" fill="black"/>
<path fill-rule="evenodd" clip-rule="evenodd" d="M12.7962 12.0143C13.0338 12.3536 12.9514 12.8213 12.6121 13.0589L9.8393 15.0004C9.5 15.238 9.03234 15.1555 8.79476 14.8162C8.55717 14.4769 8.63964 14.0092 8.97894 13.7717L11.7517 11.8302C12.091 11.5926 12.5586 11.675 12.7962 12.0143Z" fill="black"/>
<path fill-rule="evenodd" clip-rule="evenodd" d="M5.56867 6.8357C5.89539 7.09031 5.95384 7.56158 5.69923 7.88829C4.45713 9.48217 3.9099 11.4364 4.22017 13.2917C4.28849 13.7002 4.01269 14.0868 3.60416 14.1551C3.19562 14.2234 2.80904 13.9476 2.74072 13.5391C2.35389 11.2261 3.04441 8.85471 4.51608 6.96627C4.77069 6.63955 5.24195 6.58109 5.56867 6.8357Z" fill="black"/>
<path fill-rule="evenodd" clip-rule="evenodd" d="M10.1671 2.25C10.4811 2.25 10.7618 2.44555 10.8707 2.74004L10.9529 2.96261C11.1872 3.59677 11.6863 4.09636 12.3188 4.33074L12.541 4.41311C12.8352 4.52213 13.0304 4.80268 13.0304 5.11637C13.0304 5.43005 12.8352 5.7106 12.541 5.81962L12.3188 5.90197C11.6863 6.13635 11.1872 6.63594 10.9529 7.2701C10.9529 7.2701 10.9529 7.2701 10.9529 7.2701L10.8707 7.49269C10.7618 7.78719 10.4811 7.98276 10.1671 7.98276C9.85318 7.98276 9.57245 7.7872 9.46363 7.49269L9.38139 7.2701C9.38139 7.2701 9.38139 7.2701 9.38139 7.2701C9.14708 6.63595 8.648 6.13638 8.01551 5.902C8.01551 5.90199 8.01552 5.902 8.01551 5.902L7.79325 5.81964C7.49908 5.71064 7.30383 5.43008 7.30383 5.11637C7.30383 4.80266 7.49908 4.52209 7.79325 4.41309L8.0155 4.33074C8.01549 4.33074 8.0155 4.33074 8.0155 4.33074C8.64799 4.09636 9.14708 3.59678 9.38139 2.96263L9.46364 2.74004C9.57246 2.44555 9.85319 2.25 10.1671 2.25ZM9.62191 5.11637C9.8216 5.27935 10.0043 5.46221 10.1671 5.66206C10.33 5.46221 10.5127 5.27935 10.7124 5.11637C10.5127 4.95338 10.33 4.77052 10.1671 4.57067C10.0043 4.77052 9.8216 4.95338 9.62191 5.11637Z" fill="black"/>
</svg>
