<svg width="24" height="24" viewBox="0 0 24 24" fill="none" xmlns="http://www.w3.org/2000/svg">
<path fill-rule="evenodd" clip-rule="evenodd" d="M16.7058 20.7876C16.7058 20.3734 17.0416 20.0376 17.4558 20.0376H19.2675C19.6817 20.0376 20.0175 20.3734 20.0175 20.7876C20.0175 21.2018 19.6817 21.5376 19.2675 21.5376H17.4558C17.0416 21.5376 16.7058 21.2018 16.7058 20.7876Z" fill="black"/>
<path fill-rule="evenodd" clip-rule="evenodd" d="M3.96875 20.7881C3.96875 20.3739 4.30454 20.0381 4.71875 20.0381H13.7022C14.1164 20.0381 14.4522 20.3739 14.4522 20.7881C14.4522 21.2023 14.1164 21.5381 13.7022 21.5381H4.71875C4.30454 21.5381 3.96875 21.2023 3.96875 20.7881Z" fill="black"/>
<path fill-rule="evenodd" clip-rule="evenodd" d="M3.41827 3.75742C4.19583 2.92324 5.29911 2.46191 6.58735 2.46191H17.4117C18.7028 2.46191 19.8067 2.9229 20.584 3.75769C21.3558 4.58645 21.75 5.72288 21.75 6.98218V12.9446C21.75 14.2043 21.3558 15.341 20.5839 16.1699C19.8064 17.0049 18.7022 17.4658 17.4107 17.4658H6.58735C5.2962 17.4658 4.19247 17.0048 3.41532 16.1698C2.64383 15.3408 2.25 14.2041 2.25 12.9446V6.98218C2.25 5.72205 2.64616 4.58576 3.41827 3.75742ZM4.51552 4.78019C4.04514 5.28482 3.75 6.03367 3.75 6.98218V12.9446C3.75 13.8946 4.04406 14.6436 4.51336 15.1478C4.97699 15.646 5.66693 15.9658 6.58735 15.9658H17.4107C18.3317 15.9658 19.0222 15.6459 19.4862 15.1477C19.9558 14.6434 20.25 13.8945 20.25 12.9446V6.98218C20.25 6.03284 19.9558 5.28413 19.4863 4.77992C19.0224 4.28174 18.3321 3.96191 17.4117 3.96191H6.58735C5.67084 3.96191 4.98044 4.2814 4.51552 4.78019Z" fill="black"/>
<path fill-rule="evenodd" clip-rule="evenodd" d="M10.0542 5.99329C10.3681 5.99329 10.6489 6.18885 10.7577 6.48335L10.8587 6.75675C10.8587 6.75675 10.8587 6.75675 10.8587 6.75675C11.1638 7.58248 11.8137 8.23309 12.6375 8.53836C12.6375 8.53836 12.6375 8.53836 12.6375 8.53836L12.9105 8.63952C13.2046 8.74852 13.3999 9.02908 13.3999 9.34279C13.3999 9.6565 13.2046 9.93707 12.9105 10.0461L12.6375 10.1472C12.6375 10.1472 12.6375 10.1472 12.6375 10.1472C11.8137 10.4525 11.1638 11.1031 10.8587 11.9288L10.7577 12.2022C10.6488 12.4967 10.3681 12.6923 10.0542 12.6923C9.7402 12.6923 9.45947 12.4967 9.35065 12.2022L9.24963 11.9289C8.94453 11.1031 8.29463 10.4525 7.47082 10.1472L7.19785 10.046C6.90372 9.93703 6.7085 9.65648 6.7085 9.34279C6.7085 9.02911 6.90371 8.74856 7.19785 8.63954L7.47078 8.53839C8.29458 8.23312 8.94452 7.58249 9.24962 6.75676C9.24962 6.75676 9.24962 6.75675 9.24962 6.75676L9.35064 6.48335C9.45945 6.18885 9.74019 5.99329 10.0542 5.99329ZM10.0542 8.39328C9.78701 8.75528 9.46719 9.0754 9.10549 9.34279C9.46719 9.61019 9.78701 9.93031 10.0542 10.2923C10.3213 9.93031 10.6411 9.61019 11.0028 9.34279C10.6411 9.0754 10.3213 8.75528 10.0542 8.39328Z" fill="black"/>
<path fill-rule="evenodd" clip-rule="evenodd" d="M15.3649 10.0775C15.6951 10.0775 15.9865 10.2935 16.0825 10.6094C16.1815 10.9353 16.4359 11.1897 16.7603 11.2886C17.0759 11.3848 17.2916 11.676 17.2916 12.006C17.2916 12.3359 17.0759 12.6272 16.7603 12.7234C16.4359 12.8222 16.1815 13.0767 16.0825 13.4025C15.9865 13.7184 15.6951 13.9344 15.3649 13.9344C15.0347 13.9344 14.7433 13.7184 14.6473 13.4025C14.5483 13.0767 14.2939 12.8222 13.9695 12.7234C13.6539 12.6272 13.4382 12.3359 13.4382 12.006C13.4382 11.676 13.6539 11.3848 13.9695 11.2886C14.2939 11.1897 14.5483 10.9353 14.6473 10.6094C14.7433 10.2935 15.0347 10.0775 15.3649 10.0775Z" fill="black"/>
</svg>
