<svg width="24" height="24" viewBox="0 0 24 24" fill="none" xmlns="http://www.w3.org/2000/svg">
<path fill-rule="evenodd" clip-rule="evenodd" d="M7.37096 9.68713C7.057 9.68713 6.77627 9.49158 6.66745 9.19709L6.57823 8.95565C6.31763 8.25034 5.76252 7.69464 5.05897 7.43394L4.81788 7.34458C4.52375 7.23556 4.32853 6.95501 4.32853 6.64133C4.32853 6.32764 4.52374 6.04709 4.81788 5.93808L5.05893 5.84874C5.76248 5.58803 6.31762 5.03234 6.57823 4.32703C6.57823 4.32702 6.57823 4.32703 6.57823 4.32703L6.66744 4.08556C6.77625 3.79106 7.05699 3.5955 7.37096 3.5955C7.68492 3.5955 7.96566 3.79106 8.07447 4.08556L8.16369 4.32702C8.16369 4.32702 8.16369 4.32702 8.16369 4.32702C8.42429 5.03233 8.97938 5.588 9.68293 5.84871C9.68293 5.84872 9.68292 5.84871 9.68293 5.84871L9.92404 5.93805C10.2182 6.04705 10.4135 6.32762 10.4135 6.64133C10.4135 6.95504 10.2182 7.2356 9.92404 7.3446L9.68294 7.43394C9.68295 7.43393 9.68294 7.43394 9.68294 7.43394C8.9794 7.69465 8.42429 8.25032 8.16369 8.95563L8.07446 9.19709C7.96564 9.49159 7.68491 9.68713 7.37096 9.68713ZM8.0642 6.64133C7.80606 6.43884 7.57326 6.20583 7.37096 5.94749C7.16865 6.20583 6.93585 6.43884 6.67771 6.64133C6.93585 6.84382 7.16865 7.07683 7.37096 7.33517C7.57326 7.07683 7.80606 6.84382 8.0642 6.64133Z" fill="black"/>
<path fill-rule="evenodd" clip-rule="evenodd" d="M4.03928 13.8802C3.70907 13.8802 3.4177 13.6643 3.32168 13.3483C3.2427 13.0885 3.03983 12.8857 2.78138 12.8069C2.46574 12.7107 2.25007 12.4194 2.25007 12.0895C2.25007 11.7595 2.46574 11.4683 2.78138 11.3721C3.03983 11.2933 3.2427 11.0905 3.32168 10.8306C3.4177 10.5147 3.70907 10.2987 4.03928 10.2987C4.36949 10.2987 4.66085 10.5147 4.75687 10.8306C4.83585 11.0905 5.03872 11.2933 5.29718 11.3721C5.61282 11.4683 5.82849 11.7595 5.82849 12.0895C5.82849 12.4194 5.61282 12.7107 5.29718 12.8069C5.03872 12.8857 4.83585 13.0885 4.75687 13.3483C4.66085 13.6643 4.36949 13.8802 4.03928 13.8802Z" fill="black"/>
<path fill-rule="evenodd" clip-rule="evenodd" d="M14.3025 7.19717C14.5478 6.86338 15.0172 6.79164 15.351 7.03692L19.6805 10.2184C20.0143 10.4637 20.086 10.9331 19.8408 11.2669C19.5955 11.6007 19.1261 11.6725 18.7923 11.4272L14.4628 8.24565C14.129 8.00037 14.0573 7.53095 14.3025 7.19717Z" fill="black"/>
<path fill-rule="evenodd" clip-rule="evenodd" d="M17.9089 4.33064C18.6811 4.46971 19.3967 4.92961 19.9246 5.31803C20.4526 5.70645 21.1046 6.25281 21.4672 6.94864C21.656 7.31117 21.7762 7.73226 21.7453 8.19736C21.7143 8.6641 21.535 9.1162 21.2196 9.54492L21.211 9.55644L13.9949 18.9794C13.5781 19.5423 12.9545 19.9164 12.2614 20.019L9.75809 20.3896C9.00905 20.5005 8.31071 19.9867 8.19366 19.2386L7.80246 16.7384L8.54345 16.6224L7.80246 16.7384C7.69376 16.0436 7.86703 15.3342 8.28376 14.7678L8.29242 14.7563L15.5084 5.33345C15.8229 4.90795 16.1997 4.60439 16.6339 4.4367C17.0688 4.26879 17.5065 4.25819 17.9089 4.33064ZM17.1743 5.836C17.0472 5.88505 16.8874 5.9903 16.7121 6.22853L16.7034 6.24005L9.48826 15.6618C9.31124 15.9052 9.23788 16.209 9.28443 16.5065L9.65709 18.8882L12.0418 18.5352C12.3418 18.4908 12.6116 18.3284 12.7913 18.0842L12.7999 18.0727L20.0153 8.65064C20.1875 8.415 20.2396 8.23277 20.2486 8.09793C20.2577 7.96043 20.2258 7.81238 20.1369 7.64177C19.9439 7.27135 19.5375 6.89549 19.0357 6.52625C18.5338 6.15701 18.0541 5.88092 17.643 5.80689C17.4537 5.7728 17.3028 5.78636 17.1743 5.836ZM9.67563 19.0067L9.6756 19.0065L9.67563 19.0067Z" fill="black"/>
</svg>
