<svg width="24" height="24" viewBox="0 0 24 24" fill="none" xmlns="http://www.w3.org/2000/svg">
<path fill-rule="evenodd" clip-rule="evenodd" d="M11.7823 4.04233C11.8143 4.4553 11.5054 4.81602 11.0924 4.84802C7.39837 5.13421 4.49023 8.2225 4.49023 11.99C4.49023 15.9463 7.69797 19.154 11.6543 19.154C15.391 19.154 18.4608 16.2925 18.7893 12.6418C18.8264 12.2293 19.1909 11.9249 19.6034 11.962C20.016 11.9991 20.3203 12.3637 20.2832 12.7762C19.8858 17.1933 16.1741 20.654 11.6543 20.654C6.86954 20.654 2.99023 16.7747 2.99023 11.99C2.99023 7.43283 6.50753 3.69873 10.9766 3.3525C11.3896 3.3205 11.7503 3.62935 11.7823 4.04233Z" fill="black"/>
<path fill-rule="evenodd" clip-rule="evenodd" d="M16.5081 17.2574C16.8006 16.9642 17.2755 16.9636 17.5688 17.2561L20.7892 20.4689C21.0825 20.7614 21.0831 21.2363 20.7905 21.5295C20.498 21.8228 20.0231 21.8233 19.7299 21.5308L16.5094 18.3181C16.2161 18.0255 16.2156 17.5507 16.5081 17.2574Z" fill="black"/>
<path fill-rule="evenodd" clip-rule="evenodd" d="M16.7474 10.4362C17.0613 10.4362 17.3421 10.2406 17.4509 9.94611L17.5594 9.6524C17.8929 8.74996 18.6032 8.03884 19.5036 7.70519L19.7968 7.59649C20.091 7.48748 20.2862 7.20693 20.2862 6.89324C20.2862 6.57955 20.091 6.299 19.7968 6.18999L19.5036 6.0813C18.6032 5.74765 17.8929 5.03654 17.5594 4.13411C17.5594 4.1341 17.5594 4.13411 17.5594 4.13411L17.4509 3.84036C17.3421 3.54585 17.0614 3.35029 16.7474 3.35029C16.4334 3.35029 16.1527 3.54585 16.0439 3.84036L15.9353 4.1341C15.9353 4.1341 15.9353 4.1341 15.9353 4.1341C15.6019 5.03653 14.8916 5.74763 13.9912 6.08128C13.9912 6.08128 13.9912 6.08128 13.9912 6.08128L13.6979 6.18997C13.4037 6.29896 13.2085 6.57953 13.2085 6.89324C13.2085 7.20695 13.4037 7.48752 13.6979 7.59651L13.9912 7.70519C13.9912 7.70519 13.9912 7.70519 13.9912 7.70519C14.8916 8.03885 15.6019 8.74994 15.9353 9.65238L16.0439 9.94612C16.1527 10.2406 16.4334 10.4362 16.7474 10.4362ZM15.6332 6.89324C16.0635 6.58563 16.4401 6.20869 16.7474 5.77805C17.0547 6.20869 17.4313 6.58563 17.8615 6.89324C17.4313 7.20085 17.0547 7.57779 16.7474 8.00842C16.4401 7.57779 16.0635 7.20085 15.6332 6.89324Z" fill="black"/>
<path fill-rule="evenodd" clip-rule="evenodd" d="M11.2906 13.6379C11.6208 13.6379 11.9122 13.422 12.0082 13.106C12.1417 12.6668 12.4847 12.3237 12.9222 12.1903C13.2378 12.0941 13.4535 11.8029 13.4535 11.4729C13.4535 11.1429 13.2378 10.8517 12.9222 10.7555C12.4847 10.6221 12.1417 10.279 12.0082 9.83978C11.9122 9.52384 11.6208 9.30787 11.2906 9.30787C10.9604 9.30787 10.669 9.52384 10.573 9.83978C10.4395 10.279 10.0965 10.6221 9.659 10.7555C9.34336 10.8517 9.12769 11.1429 9.12769 11.4729C9.12769 11.8029 9.34336 12.0941 9.659 12.1903C10.0965 12.3237 10.4395 12.6668 10.573 13.106C10.669 13.422 10.9604 13.6379 11.2906 13.6379Z" fill="black"/>
</svg>
