<svg width="24" height="24" viewBox="0 0 24 24" fill="none" xmlns="http://www.w3.org/2000/svg">
<path fill-rule="evenodd" clip-rule="evenodd" d="M3.17261 14.1676C3.76609 13.6151 4.56976 13.3427 5.43924 13.3427H7.68897C8.10318 13.3427 8.43897 13.6784 8.43897 14.0927C8.43897 14.5069 8.10318 14.8427 7.68897 14.8427H5.43924C4.87943 14.8427 4.46348 15.0153 4.19466 15.2655C3.93189 15.5101 3.75 15.8834 3.75 16.4132V18.5936C3.75 19.124 3.93196 19.4972 4.19457 19.7416C4.46329 19.9916 4.87921 20.1642 5.43924 20.1642H13.0976C13.5118 20.1642 13.8476 20.5 13.8476 20.9142C13.8476 21.3284 13.5118 21.6642 13.0976 21.6642H5.43924C4.56997 21.6642 3.76628 21.392 3.1727 20.8396C2.57301 20.2816 2.25 19.4945 2.25 18.5936V16.4132C2.25 15.5127 2.57308 14.7257 3.17261 14.1676Z" fill="black"/>
<path fill-rule="evenodd" clip-rule="evenodd" d="M3.17261 3.1609C3.76609 2.60844 4.56976 2.33594 5.43924 2.33594H18.5608C19.4311 2.33594 20.2347 2.60992 20.8277 3.16266C21.4266 3.72087 21.75 4.50749 21.75 5.40648V7.58691C21.75 8.4874 21.4269 9.27439 20.8274 9.83249C20.2339 10.385 19.4302 10.6575 18.5608 10.6575H5.43924C4.56976 10.6575 3.76609 10.385 3.17261 9.83249C2.57308 9.27439 2.25 8.4874 2.25 7.58691V5.40648C2.25 4.50599 2.57308 3.719 3.17261 3.1609ZM4.19466 4.25882C3.93189 4.50342 3.75 4.87669 3.75 5.40648V7.58691C3.75 8.11669 3.93189 8.48997 4.19466 8.73457C4.46348 8.98481 4.87943 9.15745 5.43924 9.15745H18.5608C19.1206 9.15745 19.5365 8.98481 19.8053 8.73457C20.0681 8.48997 20.25 8.11669 20.25 7.58691V5.40648C20.25 4.87909 20.0684 4.50544 19.805 4.25997C19.5358 4.00904 19.1197 3.83594 18.5608 3.83594H5.43924C4.87943 3.83594 4.46348 4.00857 4.19466 4.25882Z" fill="black"/>
<path fill-rule="evenodd" clip-rule="evenodd" d="M5.83789 17.5038C5.83789 17.0896 6.17368 16.7538 6.58789 16.7538H7.56184C7.97605 16.7538 8.31184 17.0896 8.31184 17.5038C8.31184 17.918 7.97605 18.2538 7.56184 18.2538H6.58789C6.17368 18.2538 5.83789 17.918 5.83789 17.5038Z" fill="black"/>
<path fill-rule="evenodd" clip-rule="evenodd" d="M5.83789 6.49707C5.83789 6.08286 6.17368 5.74707 6.58789 5.74707H7.56184C7.97605 5.74707 8.31184 6.08286 8.31184 6.49707C8.31184 6.91128 7.97605 7.24707 7.56184 7.24707H6.58789C6.17368 7.24707 5.83789 6.91128 5.83789 6.49707Z" fill="black"/>
<path fill-rule="evenodd" clip-rule="evenodd" d="M18.1077 14.3711C18.4216 14.3711 18.7024 14.5666 18.8112 14.8611L18.9238 15.1657C19.2724 16.1093 20.015 16.8528 20.9564 17.2016L21.2606 17.3144C21.5547 17.4234 21.75 17.7039 21.75 18.0176C21.75 18.3313 21.5547 18.6119 21.2606 18.7209L20.9565 18.8336C20.0151 19.1824 19.2724 19.926 18.9238 20.8695C18.9238 20.8695 18.9238 20.8695 18.9238 20.8695L18.8112 21.1741C18.7024 21.4686 18.4217 21.6642 18.1077 21.6642C17.7937 21.6642 17.513 21.4686 17.4042 21.1741L17.2916 20.8695C16.943 19.926 16.2004 19.1825 15.2589 18.8336C15.2589 18.8336 15.259 18.8336 15.2589 18.8336L14.9547 18.7209C14.6606 18.6119 14.4653 18.3313 14.4653 18.0176C14.4653 17.7039 14.6606 17.4233 14.9547 17.3143L15.2589 17.2016C15.2589 17.2016 15.2589 17.2016 15.2589 17.2016C16.2003 16.8528 16.943 16.1093 17.2916 15.1658L17.4042 14.8611C17.513 14.5666 17.7937 14.3711 18.1077 14.3711ZM16.9041 18.0176C17.3718 18.3465 17.7792 18.7542 18.1077 19.2223C18.4362 18.7542 18.8435 18.3465 19.3113 18.0176C18.8435 17.6888 18.4362 17.281 18.1077 16.8129C17.7792 17.281 17.3718 17.6888 16.9041 18.0176Z" fill="black"/>
<path fill-rule="evenodd" clip-rule="evenodd" d="M12.6196 12.4456C12.9498 12.4456 13.2412 12.6615 13.3372 12.9775C13.4558 13.3678 13.7607 13.6728 14.1494 13.7913C14.4651 13.8875 14.6807 14.1787 14.6807 14.5087C14.6807 14.8386 14.4651 15.1299 14.1494 15.2261C13.7607 15.3446 13.4558 15.6495 13.3372 16.0399C13.2412 16.3558 12.9498 16.5718 12.6196 16.5718C12.2894 16.5718 11.998 16.3558 11.902 16.0399C11.7834 15.6495 11.4785 15.3446 11.0898 15.2261C10.7741 15.1299 10.5585 14.8387 10.5585 14.5087C10.5585 14.1787 10.7741 13.8875 11.0898 13.7913C11.4785 13.6728 11.7834 13.3678 11.902 12.9775C11.998 12.6615 12.2894 12.4456 12.6196 12.4456Z" fill="black"/>
</svg>
