<svg width="24" height="24" viewBox="0 0 24 24" fill="none" xmlns="http://www.w3.org/2000/svg">
<path fill-rule="evenodd" clip-rule="evenodd" d="M3.89771 3.73656C4.9485 2.75841 6.39896 2.25 8.02633 2.25H15.9735C17.6018 2.25 19.0521 2.76116 20.1025 3.74018C21.1587 4.72466 21.7498 6.12666 21.7498 7.78211V13.7874C21.7498 14.2016 21.414 14.5374 20.9998 14.5374C20.5856 14.5374 20.2498 14.2016 20.2498 13.7874V7.78211C20.2498 6.49825 19.8004 5.50919 19.0797 4.83744C18.3532 4.16024 17.2903 3.75 15.9735 3.75H8.02633C6.70854 3.75 5.64583 4.15861 4.91974 4.83449C4.19973 5.50473 3.75 6.49338 3.75 7.78211V16.2158C3.75 17.5051 4.19979 18.4942 4.91987 19.1648C5.64597 19.841 6.70864 20.2498 8.02633 20.2498H8.94286C9.35707 20.2498 9.69286 20.5856 9.69286 20.9998C9.69286 21.414 9.35707 21.7498 8.94286 21.7498H8.02633C6.39885 21.7498 4.94836 21.2411 3.89759 20.2625C2.84079 19.2784 2.25 17.8755 2.25 16.2158V7.78211C2.25 6.12277 2.84085 4.72036 3.89771 3.73656Z" fill="black"/>
<path fill-rule="evenodd" clip-rule="evenodd" d="M2.27344 12C2.27344 11.5858 2.60922 11.25 3.02344 11.25H11.1301C11.5443 11.25 11.8801 11.5858 11.8801 12C11.8801 12.4142 11.5443 12.75 11.1301 12.75H3.02344C2.60922 12.75 2.27344 12.4142 2.27344 12Z" fill="black"/>
<path fill-rule="evenodd" clip-rule="evenodd" d="M6.61328 16.1348C6.61328 15.7206 6.94907 15.3848 7.36328 15.3848H7.88576C8.29998 15.3848 8.63576 15.7206 8.63576 16.1348C8.63576 16.549 8.29998 16.8848 7.88576 16.8848H7.36328C6.94907 16.8848 6.61328 16.549 6.61328 16.1348Z" fill="black"/>
<path fill-rule="evenodd" clip-rule="evenodd" d="M6.61328 7.86523C6.61328 7.45102 6.94907 7.11523 7.36328 7.11523H7.88576C8.29998 7.11523 8.63576 7.45102 8.63576 7.86523C8.63576 8.27945 8.29998 8.61523 7.88576 8.61523H7.36328C6.94907 8.61523 6.61328 8.27945 6.61328 7.86523ZM11.3517 7.86523C11.3517 7.45102 11.6875 7.11523 12.1017 7.11523H16.6357C17.0499 7.11523 17.3857 7.45102 17.3857 7.86523C17.3857 8.27945 17.0499 8.61523 16.6357 8.61523H12.1017C11.6875 8.61523 11.3517 8.27945 11.3517 7.86523Z" fill="black"/>
<path fill-rule="evenodd" clip-rule="evenodd" d="M14.5127 20.5078C14.1987 20.5078 13.918 20.3123 13.8092 20.0178L13.7081 19.7444C13.403 18.9187 12.7531 18.268 11.9293 17.9628L11.6564 17.8616C11.3622 17.7526 11.167 17.472 11.167 17.1583C11.167 16.8446 11.3622 16.5641 11.6564 16.4551L11.9293 16.3539C12.7531 16.0487 13.403 15.398 13.7081 14.5723C13.7081 14.5723 13.7081 14.5723 13.7081 14.5723L13.8092 14.2989C13.918 14.0044 14.1987 13.8088 14.5127 13.8088C14.8266 13.8088 15.1074 14.0044 15.2162 14.2989L15.3172 14.5723C15.3172 14.5723 15.3172 14.5723 15.3172 14.5723C15.6223 15.398 16.2722 16.0486 17.096 16.3539C17.096 16.3539 17.096 16.3539 17.096 16.3539L17.369 16.4551C17.6632 16.5641 17.8584 16.8446 17.8584 17.1583C17.8584 17.472 17.6632 17.7526 17.369 17.8616L17.096 17.9628C17.096 17.9628 17.096 17.9628 17.096 17.9628C16.2722 18.268 15.6223 18.9186 15.3172 19.7444L15.2162 20.0178C15.1074 20.3123 14.8266 20.5078 14.5127 20.5078ZM15.4613 17.1583C15.0996 16.8909 14.7798 16.5708 14.5127 16.2088C14.2455 16.5708 13.9257 16.8909 13.564 17.1583C13.9257 17.4257 14.2455 17.7459 14.5127 18.1078C14.7798 17.7459 15.0996 17.4257 15.4613 17.1583Z" fill="black"/>
<path fill-rule="evenodd" clip-rule="evenodd" d="M19.8233 21.7499C19.4931 21.7499 19.2018 21.5339 19.1057 21.218C19.0067 20.8921 18.7523 20.6377 18.428 20.5388C18.1123 20.4426 17.8967 20.1514 17.8967 19.8214C17.8967 19.4915 18.1123 19.2002 18.428 19.104C18.7523 19.0052 19.0067 18.7507 19.1057 18.4249C19.2018 18.1089 19.4931 17.893 19.8233 17.893C20.1535 17.893 20.4449 18.1089 20.5409 18.4249C20.6399 18.7507 20.8944 19.0052 21.2187 19.104C21.5343 19.2002 21.75 19.4914 21.75 19.8214C21.75 20.1514 21.5343 20.4426 21.2187 20.5388C20.8944 20.6377 20.6399 20.8921 20.5409 21.218C20.4449 21.5339 20.1535 21.7499 19.8233 21.7499Z" fill="black"/>
</svg>
