<svg width="24" height="24" viewBox="0 0 24 24" fill="none" xmlns="http://www.w3.org/2000/svg">
<path d="M12.01 21.75C11.94 21.75 11.86 21.74 11.79 21.72C11.47 21.62 3.92997 19.27 3.92997 12.67C3.92997 10.84 3.90997 9.51 3.88997 8.54C3.84997 6.11 3.83997 5.6 4.46997 4.96C5.21997 4.21 10.92 2.25 12 2.25C13.15 2.25 18.77 4.19 19.53 4.96C20.16 5.6 20.15 6.11 20.11 8.54C20.09 9.51 20.07 10.83 20.07 12.67C20.07 19.26 12.53 21.62 12.21 21.72C12.14 21.74 12.07 21.75 11.99 21.75H12.01ZM12.01 3.75C11.21 3.75 6.11997 5.55 5.52997 6.03C5.36997 6.19 5.35997 6.52 5.39997 8.51C5.41997 9.49 5.43998 10.82 5.43998 12.67C5.43998 17.58 10.85 19.79 12.01 20.21C13.17 19.79 18.58 17.58 18.58 12.67C18.58 10.83 18.6 9.5 18.62 8.52C18.66 6.53 18.65 6.2 18.47 6.02C17.9 5.55 12.81 3.75 12 3.75H12.01Z" fill="black"/>
<path d="M10.51 12.9902C10.2 12.9902 9.91999 12.7902 9.80999 12.5002L9.71999 12.2602C9.45999 11.5602 8.90999 11.0102 8.21999 10.7502L7.97999 10.6602C7.68999 10.5502 7.48999 10.2702 7.48999 9.96017C7.48999 9.65017 7.68999 9.37018 7.97999 9.26018L8.21999 9.17017C8.91999 8.91017 9.45999 8.36018 9.71999 7.66018L9.80999 7.42017C9.91999 7.13017 10.2 6.93018 10.51 6.93018C10.82 6.93018 11.1 7.13017 11.21 7.42017L11.3 7.66018C11.56 8.36018 12.11 8.91017 12.8 9.17017L13.04 9.26018C13.33 9.37018 13.53 9.65017 13.53 9.96017C13.53 10.2702 13.34 10.5502 13.04 10.6602L12.8 10.7502C12.1 11.0102 11.55 11.5602 11.29 12.2602L11.2 12.5002C11.09 12.7902 10.81 12.9902 10.5 12.9902H10.51ZM9.82999 9.97018C10.08 10.1702 10.31 10.4002 10.51 10.6502C10.71 10.4002 10.94 10.1702 11.19 9.97018C10.94 9.77018 10.71 9.54018 10.51 9.29018C10.31 9.54018 10.08 9.77018 9.82999 9.97018Z" fill="black"/>
<path d="M14.76 15.06C14.43 15.06 14.14 14.84 14.04 14.53C13.96 14.27 13.76 14.07 13.51 14C13.19 13.9 12.98 13.61 12.98 13.28C12.98 12.95 13.2 12.66 13.51 12.56C13.77 12.48 13.96 12.28 14.04 12.03C14.14 11.71 14.43 11.5 14.76 11.5C15.09 11.5 15.38 11.72 15.48 12.03C15.56 12.29 15.76 12.49 16.01 12.56C16.33 12.66 16.54 12.95 16.54 13.28C16.54 13.61 16.33 13.9 16.01 14C15.75 14.08 15.55 14.28 15.48 14.53C15.38 14.85 15.09 15.06 14.76 15.06Z" fill="black"/>
</svg>
