<svg width="24" height="24" viewBox="0 0 24 24" fill="none" xmlns="http://www.w3.org/2000/svg">
<path fill-rule="evenodd" clip-rule="evenodd" d="M10.8969 3.75781C7.64106 3.75781 5.00195 6.39709 5.00195 9.65181V14.3368C5.00195 14.5908 5.01873 14.8424 5.04999 15.0898C5.10192 15.5007 4.81087 15.876 4.39993 15.9279C3.98898 15.9798 3.61375 15.6888 3.56182 15.2778C3.52309 14.9712 3.50195 14.6568 3.50195 14.3368V9.65181C3.50195 5.56853 6.81277 2.25781 10.8969 2.25781C14.9801 2.25781 18.2909 5.5686 18.2909 9.65181C18.2909 10.066 17.9551 10.4018 17.5409 10.4018C17.1267 10.4018 16.7909 10.066 16.7909 9.65181C16.7909 6.39702 14.1517 3.75781 10.8969 3.75781Z" fill="black"/>
<path fill-rule="evenodd" clip-rule="evenodd" d="M6.70898 10.1401C6.70898 7.82776 8.58493 5.95312 10.896 5.95312C11.3102 5.95312 11.646 6.28891 11.646 6.70312C11.646 7.11734 11.3102 7.45312 10.896 7.45312C9.41306 7.45312 8.20898 8.65648 8.20898 10.1401V11.0771C8.20898 11.4913 7.8732 11.8271 7.45898 11.8271C7.04477 11.8271 6.70898 11.4913 6.70898 11.0771V10.1401Z" fill="black"/>
<path fill-rule="evenodd" clip-rule="evenodd" d="M7.45898 13.125C7.8732 13.125 8.20898 13.4608 8.20898 13.875C8.20898 14.7375 8.61506 15.5047 9.24828 15.9968C9.57533 16.251 9.63439 16.7222 9.3802 17.0492C9.12601 17.3763 8.65482 17.4354 8.32777 17.1812C7.34499 16.4173 6.70898 15.2205 6.70898 13.875C6.70898 13.4608 7.04477 13.125 7.45898 13.125Z" fill="black"/>
<path fill-rule="evenodd" clip-rule="evenodd" d="M12.9107 7.26188C13.2148 6.98064 13.6893 6.99917 13.9705 7.30327C14.6601 8.04883 15.0809 9.04796 15.0809 10.1425C15.0809 10.5567 14.7451 10.8925 14.3309 10.8925C13.9167 10.8925 13.5809 10.5567 13.5809 10.1425C13.5809 9.43905 13.3118 8.80018 12.8693 8.32174C12.5881 8.01764 12.6066 7.54313 12.9107 7.26188Z" fill="black"/>
<path fill-rule="evenodd" clip-rule="evenodd" d="M4.86179 17.2471C5.21288 17.0273 5.67567 17.1337 5.89546 17.4848C6.93927 19.1523 8.78911 20.2588 10.8977 20.2588C11.312 20.2588 11.6477 20.5946 11.6477 21.0088C11.6477 21.423 11.312 21.7588 10.8977 21.7588C8.25038 21.7588 5.93022 20.3673 4.62403 18.2807C4.40425 17.9297 4.51069 17.4669 4.86179 17.2471Z" fill="black"/>
<path fill-rule="evenodd" clip-rule="evenodd" d="M17.1526 14.3374C17.4666 14.3374 17.7473 14.533 17.8561 14.8274L17.9571 15.1008C18.2622 15.9266 18.9121 16.5772 19.7359 16.8825L20.0089 16.9836C20.3031 17.0926 20.4983 17.3732 20.4983 17.6869C20.4983 18.0006 20.3031 18.2811 20.0089 18.3901L19.736 18.4913C18.9122 18.7966 18.2622 19.4472 17.9571 20.2729C17.9571 20.2729 17.9571 20.2729 17.9571 20.2729L17.8561 20.5463C17.7473 20.8408 17.4666 21.0364 17.1526 21.0364C16.8387 21.0364 16.5579 20.8408 16.4491 20.5463L16.3481 20.2729C16.3481 20.2729 16.3481 20.2729 16.3481 20.2729C16.043 19.4472 15.3931 18.7966 14.5693 18.4913C14.5693 18.4913 14.5693 18.4913 14.5693 18.4913L14.2963 18.3902C14.0021 18.2812 13.8069 18.0006 13.8069 17.6869C13.8069 17.3732 14.0021 17.0926 14.2963 16.9836L14.5693 16.8825C14.5693 16.8825 14.5693 16.8825 14.5693 16.8825C15.3931 16.5772 16.043 15.9266 16.3481 15.1008L16.4491 14.8274C16.5579 14.533 16.8387 14.3374 17.1526 14.3374ZM16.204 17.6869C16.5657 17.9543 16.8855 18.2744 17.1526 18.6364C17.4198 18.2744 17.7396 17.9543 18.1013 17.6869C17.7396 17.4195 17.4198 17.0994 17.1526 16.7374C16.8855 17.0994 16.5657 17.4195 16.204 17.6869Z" fill="black"/>
<path fill-rule="evenodd" clip-rule="evenodd" d="M12.471 11.9805C12.8012 11.9805 13.0925 12.1964 13.1885 12.5124C13.3208 12.9475 13.6606 13.2875 14.0941 13.4196C14.4097 13.5158 14.6254 13.807 14.6254 14.137C14.6254 14.467 14.4097 14.7582 14.0941 14.8544C13.6606 14.9866 13.3208 15.3265 13.1885 15.7616C13.0925 16.0776 12.8012 16.2936 12.471 16.2936C12.1407 16.2936 11.8494 16.0776 11.7534 15.7616C11.6211 15.3265 11.2813 14.9866 10.8478 14.8544C10.5322 14.7582 10.3165 14.467 10.3165 14.137C10.3165 13.807 10.5322 13.5158 10.8478 13.4196C11.2813 13.2875 11.6211 12.9475 11.7534 12.5124C11.8494 12.1964 12.1407 11.9805 12.471 11.9805Z" fill="black"/>
</svg>
