<svg width="24" height="24" viewBox="0 0 24 24" fill="none" xmlns="http://www.w3.org/2000/svg">
<path fill-rule="evenodd" clip-rule="evenodd" d="M5.40941 9.56435C5.11716 9.27081 4.64229 9.26976 4.34875 9.56201L2.34025 11.5617C2.1989 11.7024 2.11943 11.8936 2.11941 12.0931C2.1194 12.2926 2.19883 12.4838 2.34016 12.6246L4.34866 14.6249C4.64214 14.9172 5.11702 14.9162 5.40931 14.6228C5.70161 14.3293 5.70065 13.8544 5.40716 13.5621L4.68529 12.8432H8.35498C8.76919 12.8432 9.10498 12.5074 9.10498 12.0932C9.10498 11.6789 8.76919 11.3432 8.35498 11.3432H4.68574L5.40707 10.625C5.7006 10.3328 5.70165 9.85789 5.40941 9.56435Z" fill="black"/>
<path fill-rule="evenodd" clip-rule="evenodd" d="M9.53899 3.5C8.60672 3.5 7.88037 4.23429 7.88037 5.10422V6.90711C7.88037 7.32132 7.54458 7.65711 7.13037 7.65711C6.71616 7.65711 6.38037 7.32132 6.38037 6.90711L6.38037 5.10422C6.38037 3.37375 7.81078 2 9.53899 2L18.7218 2C20.45 2 21.8804 3.37375 21.8804 5.10422V17.437C21.8804 17.8512 21.5446 18.187 21.1304 18.187C20.7162 18.187 20.3804 17.8512 20.3804 17.437V5.10422C20.3804 4.23429 19.654 3.5 18.7218 3.5L9.53899 3.5Z" fill="black"/>
<path fill-rule="evenodd" clip-rule="evenodd" d="M7.13037 16.7627C7.54458 16.7627 7.88037 17.0985 7.88037 17.5127L7.88037 20.3156C7.88037 20.7298 7.54458 21.0656 7.13037 21.0656C6.71616 21.0656 6.38037 20.7298 6.38037 20.3156L6.38037 17.5127C6.38037 17.0985 6.71616 16.7627 7.13037 16.7627Z" fill="black"/>
<path fill-rule="evenodd" clip-rule="evenodd" d="M17.8286 2.81692C19.8976 2.39752 21.8805 3.93772 21.8805 6.05556V18.6921C21.8805 20.8099 19.8976 22.3501 17.8286 21.9307L12.6972 20.8905L12.8462 20.1555L12.6972 20.8905C11.144 20.5757 10.009 19.2327 10.009 17.6519V7.09577C10.009 5.51495 11.144 4.17198 12.6972 3.85713L17.8286 2.81692ZM20.3805 6.05556C20.3805 4.93074 19.3108 4.04697 18.1266 4.28702L12.9952 5.32723C12.1171 5.50525 11.509 6.25303 11.509 7.09577V17.6519C11.509 18.4946 12.1171 19.2424 12.9952 19.4204L18.1266 20.4606C19.3108 20.7007 20.3805 19.8169 20.3805 18.6921V6.05556Z" fill="black"/>
<path fill-rule="evenodd" clip-rule="evenodd" d="M14.1304 10.783C14.5446 10.783 14.8804 11.1187 14.8804 11.533V13.2149C14.8804 13.6291 14.5446 13.9649 14.1304 13.9649C13.7162 13.9649 13.3804 13.6291 13.3804 13.2149V11.533C13.3804 11.1187 13.7162 10.783 14.1304 10.783Z" fill="black"/>
</svg>