<svg width="24" height="24" viewBox="0 0 24 24" fill="none" xmlns="http://www.w3.org/2000/svg">
<path d="M5.25 21.0005V18.5005" stroke="black" stroke-width="1.5" stroke-linecap="round" stroke-linejoin="round"/>
<path fill-rule="evenodd" clip-rule="evenodd" d="M6.0152 18.5005H4.48376C3.66453 18.5005 3 17.8385 3 17.0214V13.9786C3 13.1615 3.66453 12.5005 4.48376 12.5005H6.0152C6.83541 12.5005 7.49994 13.1615 7.49994 13.9786V17.0214C7.49994 17.8385 6.83541 18.5005 6.0152 18.5005Z" stroke="black" stroke-width="1.5" stroke-linecap="round" stroke-linejoin="round"/>
<path d="M5.25 12.5005V5.00049" stroke="black" stroke-width="1.5" stroke-linecap="round" stroke-linejoin="round"/>
<path d="M12 18.0005V10.5005" stroke="black" stroke-width="1.5" stroke-linecap="round" stroke-linejoin="round"/>
<path fill-rule="evenodd" clip-rule="evenodd" d="M12.7652 10.5005H11.2338C10.4145 10.5005 9.75 9.83849 9.75 9.0214V6.97861C9.75 6.16152 10.4145 5.50049 11.2338 5.50049H12.7652C13.5854 5.50049 14.2499 6.16152 14.2499 6.97861V9.0214C14.2499 9.83849 13.5854 10.5005 12.7652 10.5005Z" stroke="black" stroke-width="1.5" stroke-linecap="round" stroke-linejoin="round"/>
<path d="M12 5.50049V3.00049" stroke="black" stroke-width="1.5" stroke-linecap="round" stroke-linejoin="round"/>
<path d="M18.75 21.0005V18.5005" stroke="black" stroke-width="1.5" stroke-linecap="round" stroke-linejoin="round"/>
<path fill-rule="evenodd" clip-rule="evenodd" d="M19.5152 18.5005H17.9838C17.1645 18.5005 16.5 17.8385 16.5 17.0214V12.9786C16.5 12.1615 17.1645 11.5005 17.9838 11.5005H19.5152C20.3354 11.5005 20.9999 12.1615 20.9999 12.9786V17.0214C20.9999 17.8385 20.3354 18.5005 19.5152 18.5005Z" stroke="black" stroke-width="1.5" stroke-linecap="round" stroke-linejoin="round"/>
<path d="M18.75 11.5005V6.00049" stroke="black" stroke-width="1.5" stroke-linecap="round" stroke-linejoin="round"/>
</svg>
