<svg width="24" height="24" viewBox="0 0 24 24" fill="none" xmlns="http://www.w3.org/2000/svg">
<path d="M16.2169 21.0005H7.78216C4.83405 21.0005 3 18.9203 3 15.9741V8.02784C3 5.08168 4.83405 3.00049 7.78313 3.00049H16.2169C19.165 3.00049 21 5.08168 21 8.02784V15.9741C21 18.9203 19.1562 21.0005 16.2169 21.0005Z" stroke="black" stroke-width="1.5" stroke-linecap="round" stroke-linejoin="round"/>
<path d="M9 9.00049L21 9.00049" stroke="black" stroke-width="1.5" stroke-linecap="round"/>
<path d="M3 12.0005H9" stroke="black" stroke-width="1.5" stroke-linecap="round"/>
<path d="M15 14.0954L21 14.0954" stroke="black" stroke-width="1.5" stroke-linecap="round"/>
<path d="M9 16.8362L15 16.8362" stroke="black" stroke-width="1.5" stroke-linecap="round"/>
<path d="M15 9.00049L15 21.0005" stroke="black" stroke-width="1.5" stroke-linecap="round"/>
<path d="M13 3.00049L13 9.00049" stroke="black" stroke-width="1.5" stroke-linecap="round"/>
<path d="M17 3.104L17 9.00049" stroke="black" stroke-width="1.5" stroke-linecap="round"/>
<path d="M9 3.00049L9 21.0005" stroke="black" stroke-width="1.5" stroke-linecap="round"/>
</svg>
