<svg width="25" height="24" viewBox="0 0 25 24" fill="none" xmlns="http://www.w3.org/2000/svg">
<path opacity="0.4" fill-rule="evenodd" clip-rule="evenodd" d="M9.00747 2.5H16.9545C20.2595 2.5 22.4805 4.623 22.4805 7.783V16.217C22.4805 19.377 20.2595 21.5 16.9545 21.5H9.00747C5.70147 21.5 3.48047 19.377 3.48047 16.216V7.783C3.48047 4.623 5.70147 2.5 9.00747 2.5Z" fill="black"/>
<path fill-rule="evenodd" clip-rule="evenodd" d="M18.0306 9.78522C18.0306 10.5192 17.7186 11.2222 17.1736 11.7142L14.7866 14.0742L14.7606 15.0752C14.7606 15.6942 14.3886 16.2432 13.8136 16.4722L12.8906 16.8382C12.7116 16.9102 12.5226 16.9452 12.3346 16.9452C12.0386 16.9452 11.7446 16.8582 11.4916 16.6862C11.0786 16.4062 10.8316 15.9412 10.8316 15.4422V13.8632L8.72462 11.9872C8.20362 11.4672 7.93262 10.8152 7.93262 10.1212V9.11822C7.93262 7.97922 8.85862 7.05322 9.99662 7.05322H15.9656C17.1046 7.05322 18.0306 7.97922 18.0306 9.11822V9.78522ZM9.99658 8.55345H15.9656C16.2776 8.55345 16.5306 8.80645 16.5306 9.11745V9.78545C16.5306 10.0954 16.3986 10.3924 16.1436 10.6244L13.7576 12.9844C13.4416 13.2684 13.2606 13.6764 13.2606 14.1014L13.2586 15.0784L12.3316 15.4424V13.8634C12.3316 13.4694 12.1716 13.0824 11.8596 12.7694L9.75358 10.8964C9.54658 10.6894 9.43258 10.4144 9.43258 10.1214V9.11745C9.43258 8.80645 9.68558 8.55345 9.99658 8.55345Z" fill="black"/>
</svg>