<svg width="25" height="24" viewBox="0 0 25 24" fill="none" xmlns="http://www.w3.org/2000/svg">
<path opacity="0.4" d="M9.00747 21.5H16.9545C20.2595 21.5 22.4805 19.377 22.4805 16.217V7.782C22.4805 4.623 20.2595 2.5 16.9545 2.5H9.00747C5.70147 2.5 3.48047 4.623 3.48047 7.782V16.216C3.48047 19.376 5.70147 21.5 9.00747 21.5Z" fill="black"/>
<path fill-rule="evenodd" clip-rule="evenodd" d="M15.3834 11.8092C15.0163 11.6917 14.6803 11.4872 14.4009 11.2059C13.9429 10.7449 13.6919 10.1329 13.6939 9.48192C13.7029 8.12892 14.7969 7.04492 16.1349 7.04492H16.1509C17.4949 7.05492 18.5819 8.15692 18.5739 9.50192C18.5699 10.1539 18.3109 10.7659 17.8469 11.2239C17.5708 11.4952 17.2417 11.6934 16.8834 11.8085V16.204C16.8834 16.618 16.5474 16.954 16.1334 16.954C15.7194 16.954 15.3834 16.618 15.3834 16.204V11.8092ZM15.1939 9.47792C15.1969 8.96192 15.6189 8.54492 16.1339 8.54492H16.1399C16.6579 8.54892 17.0769 8.97392 17.0739 9.49192C17.0719 9.74292 16.9729 9.97892 16.7939 10.1549C16.6231 10.3228 16.4001 10.4181 16.1619 10.4246C16.1524 10.4242 16.1429 10.424 16.1334 10.424C16.1236 10.424 16.1138 10.4242 16.104 10.4246C15.5986 10.4115 15.1919 9.99579 15.1939 9.47792Z" fill="black"/>
<path fill-rule="evenodd" clip-rule="evenodd" d="M7.3897 14.4982C7.39769 13.4225 8.11721 12.4962 9.08069 12.185V7.79514C9.08069 7.38114 9.41669 7.04514 9.83069 7.04514C10.2447 7.04514 10.5807 7.38114 10.5807 7.79514V12.1899C10.9476 12.3073 11.2832 12.5119 11.5627 12.7932C12.0207 13.2542 12.2717 13.8662 12.2697 14.5162C12.2617 15.8702 11.1677 16.9542 9.8287 16.9542H9.8127C9.1617 16.9502 8.5497 16.6922 8.0927 16.2282C7.6347 15.7632 7.3857 15.1492 7.3897 14.4982ZM8.8897 14.5082C8.89363 14.0002 9.29921 13.5888 9.8019 13.5746C9.81145 13.575 9.82105 13.5751 9.83069 13.5751C9.84055 13.5751 9.85038 13.5749 9.86015 13.5746C10.1017 13.5812 10.3279 13.6785 10.4977 13.8502C10.6737 14.0272 10.7707 14.2622 10.7697 14.5212C10.7657 15.0382 10.3227 15.4242 9.8227 15.4542C9.5717 15.4522 9.3367 15.3532 9.1607 15.1752C8.9837 14.9962 8.8877 14.7592 8.8897 14.5082Z" fill="black"/>
</svg>