<svg width="25" height="24" viewBox="0 0 25 24" fill="none" xmlns="http://www.w3.org/2000/svg">
<path d="M20.0307 21.6011C19.4777 21.6011 19.0307 21.1531 19.0307 20.6011V11.3072H18.0839C17.5309 11.3072 17.0839 10.8592 17.0839 10.3072C17.0839 9.75522 17.5309 9.30722 18.0839 9.30722H20.017L20.0307 9.30713L20.0444 9.30722H21.9809C22.5339 9.30722 22.9809 9.75522 22.9809 10.3072C22.9809 10.8592 22.5339 11.3072 21.9809 11.3072H21.0307V20.6011C21.0307 21.1531 20.5837 21.6011 20.0307 21.6011Z" fill="black"/>
<path d="M4.92725 11.73H3.98047C3.42747 11.73 2.98047 11.282 2.98047 10.73C2.98047 10.178 3.42747 9.73001 3.98047 9.73001H7.87647C8.42947 9.73001 8.87647 10.178 8.87647 10.73C8.87647 11.282 8.42947 11.73 7.87647 11.73H6.92725V20.6011C6.92725 21.1531 6.48025 21.6011 5.92725 21.6011C5.37425 21.6011 4.92725 21.1531 4.92725 20.6011V11.73Z" fill="black"/>
<path d="M14.9272 18.2578H13.98V20.6021C13.98 21.1541 13.533 21.6021 12.98 21.6021C12.427 21.6021 11.98 21.1541 11.98 20.6021V18.2578H11.0312C10.4783 18.2578 10.0312 17.8098 10.0312 17.2578C10.0312 16.7058 10.4783 16.2578 11.0312 16.2578H14.9272C15.4802 16.2578 15.9272 16.7058 15.9272 17.2578C15.9272 17.8098 15.4802 18.2578 14.9272 18.2578Z" fill="black"/>
<g opacity="0.4">
<path d="M20.0312 7.23695C19.4782 7.23695 19.0312 6.78895 19.0312 6.23695V3.39795C19.0312 2.84595 19.4782 2.39795 20.0312 2.39795C20.5842 2.39795 21.0312 2.84595 21.0312 3.39795V6.23695C21.0312 6.78895 20.5842 7.23695 20.0312 7.23695Z" fill="black"/>
<path d="M4.92773 6.66216C4.92773 7.21416 5.37473 7.66216 5.92773 7.66216C6.48073 7.66216 6.92773 7.21416 6.92773 6.66216V3.39816C6.92773 2.84616 6.48073 2.39816 5.92773 2.39816C5.37473 2.39816 4.92773 2.84616 4.92773 3.39816V6.66216Z" fill="black"/>
<path d="M11.9785 13.188C11.9785 13.74 12.4255 14.188 12.9785 14.188C13.5315 14.188 13.9785 13.74 13.9785 13.188V3.39804C13.9785 2.84604 13.5315 2.39804 12.9785 2.39804C12.4255 2.39804 11.9785 2.84604 11.9785 3.39804V13.188Z" fill="black"/>
</g>
</svg>