<svg width="25" height="24" viewBox="0 0 25 24" fill="none" xmlns="http://www.w3.org/2000/svg">
<path opacity="0.4" d="M22.4805 15.973L22.4805 8.026C22.4805 4.721 20.3575 2.5 17.1975 2.5L8.76247 2.5C5.60347 2.5 3.48047 4.721 3.48047 8.026L3.48047 15.973C3.48047 19.279 5.60347 21.5 8.76247 21.5L17.1965 21.5C20.3565 21.5 22.4805 19.279 22.4805 15.973Z" fill="black"/>
<path fill-rule="evenodd" clip-rule="evenodd" d="M12.7897 9.59705C12.6722 9.96416 12.4676 10.3001 12.1864 10.5795C11.7254 11.0375 11.1134 11.2885 10.4624 11.2865C9.10939 11.2775 8.02539 10.1835 8.02539 8.84555L8.02539 8.82955C8.03539 7.48555 9.13739 6.39855 10.4824 6.40655C11.1344 6.41055 11.7464 6.66955 12.2044 7.13355C12.4757 7.40968 12.6739 7.73877 12.789 8.09705L17.1845 8.09705C17.5985 8.09705 17.9345 8.43304 17.9345 8.84705C17.9345 9.26105 17.5985 9.59705 17.1845 9.59705L12.7897 9.59705ZM10.4584 9.78655C9.94239 9.78355 9.52539 9.36155 9.52539 8.84655L9.52539 8.84055C9.52939 8.32255 9.95439 7.90355 10.4724 7.90655C10.7234 7.90855 10.9594 8.00755 11.1354 8.18655C11.3033 8.35737 11.3986 8.58034 11.405 8.81862C11.4047 8.82805 11.4045 8.83753 11.4045 8.84705C11.4045 8.8569 11.4047 8.86672 11.4051 8.87648C11.392 9.38183 10.9763 9.78852 10.4584 9.78655Z" fill="black"/>
<path fill-rule="evenodd" clip-rule="evenodd" d="M15.4787 17.5908C14.403 17.5828 13.4767 16.8633 13.1654 15.8998L8.7756 15.8998C8.3616 15.8998 8.0256 15.5638 8.0256 15.1498C8.0256 14.7358 8.3616 14.3998 8.7756 14.3998L13.1704 14.3998C13.2878 14.0329 13.4924 13.6972 13.7737 13.4178C14.2347 12.9598 14.8467 12.7088 15.4967 12.7108C16.8507 12.7188 17.9347 13.8128 17.9347 15.1518L17.9347 15.1678C17.9307 15.8188 17.6727 16.4308 17.2087 16.8878C16.7437 17.3458 16.1297 17.5948 15.4787 17.5908ZM15.4887 16.0908C14.9807 16.0868 14.5692 15.6813 14.5551 15.1786C14.5554 15.169 14.5556 15.1594 14.5556 15.1498C14.5556 15.1399 14.5554 15.1301 14.555 15.1203C14.5616 14.8787 14.659 14.6525 14.8307 14.4828C15.0077 14.3068 15.2427 14.2098 15.5017 14.2108C16.0187 14.2148 16.4047 14.6578 16.4347 15.1578C16.4327 15.4088 16.3337 15.6438 16.1557 15.8198C15.9767 15.9968 15.7397 16.0928 15.4887 16.0908Z" fill="black"/>
</svg>