<svg width="25" height="24" viewBox="0 0 25 24" fill="none" xmlns="http://www.w3.org/2000/svg">
<path opacity="0.4" fill-rule="evenodd" clip-rule="evenodd" d="M16.9535 2.5H9.00647C5.70047 2.5 3.48047 4.623 3.48047 7.783V16.216C3.48047 19.377 5.70047 21.5 9.00647 21.5H16.9535C20.2595 21.5 22.4805 19.377 22.4805 16.217V7.783C22.4805 4.623 20.2595 2.5 16.9535 2.5Z" fill="black"/>
<path d="M15.7178 10.6189C16.1538 10.6189 16.5658 10.4499 16.8778 10.1429C17.1908 9.83289 17.3658 9.41989 17.3688 8.97789C17.3718 8.53789 17.2028 8.12189 16.8938 7.80889C16.5828 7.49389 16.1698 7.31989 15.7288 7.31689H15.7178C15.2808 7.31689 14.8698 7.48589 14.5588 7.79289C14.2438 8.10189 14.0698 8.51589 14.0668 8.96589C14.0648 9.87489 14.8008 10.6159 15.7078 10.6189H15.7178Z" fill="black"/>
<path d="M15.7168 16.9309C16.1308 16.9309 16.4668 16.5949 16.4668 16.1809V13.1119C16.4668 12.6979 16.1308 12.3619 15.7168 12.3619C15.3028 12.3619 14.9668 12.6979 14.9668 13.1119V16.1809C14.9668 16.5949 15.3028 16.9309 15.7168 16.9309Z" fill="black"/>
<path d="M10.2458 16.6819C10.6828 16.6819 11.0938 16.5129 11.4048 16.2049C11.7198 15.8949 11.8938 15.4819 11.8968 15.0319C11.8978 14.5919 11.7278 14.1779 11.4178 13.8659C11.1078 13.5539 10.6948 13.3809 10.2558 13.3789H10.2448C9.80877 13.3789 9.39777 13.5479 9.08577 13.8549C8.77177 14.1649 8.59677 14.5789 8.59377 15.0199C8.58977 15.9309 9.32577 16.6759 10.2348 16.6819H10.2458Z" fill="black"/>
<path d="M10.2438 7.06689C9.82977 7.06689 9.49377 7.40289 9.49377 7.81689V10.8859C9.49377 11.2999 9.82977 11.6359 10.2438 11.6359C10.6578 11.6359 10.9938 11.2999 10.9938 10.8859V7.81689C10.9938 7.40289 10.6578 7.06689 10.2438 7.06689Z" fill="black"/>
</svg>