<svg width="25" height="24" viewBox="0 0 25 24" fill="none" xmlns="http://www.w3.org/2000/svg">
<path opacity="0.4" d="M12.225 21.5H13.734C15.164 21.5 16.327 20.337 16.327 18.907C16.327 18.573 16.551 18.408 16.647 18.352C16.743 18.297 16.998 18.184 17.288 18.352C18.525 19.068 20.116 18.642 20.83 17.403L21.584 16.097C21.93 15.497 22.022 14.799 21.843 14.13C21.664 13.461 21.234 12.902 20.635 12.555C20.346 12.389 20.315 12.112 20.314 12C20.314 11.889 20.346 11.612 20.635 11.445C21.234 11.098 21.663 10.54 21.843 9.871C22.022 9.201 21.93 8.503 21.584 7.903L20.83 6.597C20.484 5.998 19.925 5.569 19.256 5.389C18.587 5.209 17.888 5.301 17.288 5.648C17.001 5.814 16.745 5.704 16.648 5.648C16.552 5.593 16.327 5.427 16.327 5.093C16.327 3.663 15.164 2.5 13.734 2.5H12.225C10.796 2.5 9.63302 3.663 9.63302 5.093C9.63302 5.427 9.40902 5.593 9.31202 5.648C9.21602 5.703 8.96302 5.815 8.67202 5.647C8.07202 5.302 7.37302 5.21 6.70402 5.389C6.03502 5.569 5.47602 5.998 5.13102 6.597L4.37502 7.904C3.66102 9.142 4.08702 10.731 5.32502 11.444C5.61402 11.612 5.64502 11.889 5.64502 12C5.64502 12.112 5.61402 12.388 5.32502 12.555C4.08702 13.27 3.66102 14.859 4.37602 16.097L5.13002 17.403C5.47602 18.003 6.03502 18.432 6.70402 18.611C7.37202 18.791 8.07202 18.698 8.67202 18.352C8.96002 18.186 9.21602 18.296 9.31202 18.352C9.40902 18.408 9.63302 18.573 9.63302 18.907C9.63302 20.337 10.796 21.5 12.225 21.5Z" fill="black"/>
<path fill-rule="evenodd" clip-rule="evenodd" d="M16.1916 12.0006C16.1916 10.2256 14.7536 8.7876 12.9786 8.7876C11.2046 8.7876 9.7666 10.2256 9.7666 12.0006C9.7666 13.7756 11.2046 15.2136 12.9786 15.2136C14.7536 15.2136 16.1916 13.7756 16.1916 12.0006Z" fill="black"/>
</svg>