<svg width="25" height="24" viewBox="0 0 25 24" fill="none" xmlns="http://www.w3.org/2000/svg">
<path opacity="0.4" fill-rule="evenodd" clip-rule="evenodd" d="M17.3225 15.8668C16.1215 15.8668 15.1435 14.8888 15.1435 13.6868C15.1435 12.4848 16.1215 11.5078 17.3225 11.5078C18.5235 11.5078 19.5005 12.4848 19.5005 13.6868C19.5005 14.8888 18.5235 15.8668 17.3225 15.8668ZM5.49951 13.6868C5.49951 12.4848 6.47551 11.5078 7.67651 11.5078C8.87851 11.5078 9.85551 12.4848 9.85551 13.6868C9.85551 14.8888 8.87851 15.8668 7.67651 15.8668C6.47551 15.8668 5.49951 14.8888 5.49951 13.6868ZM17.3225 9.50781C15.0185 9.50781 13.1435 11.3828 13.1435 13.6868C13.1435 14.4878 13.3815 15.2298 13.7735 15.8668H11.2255C11.6175 15.2298 11.8555 14.4878 11.8555 13.6868C11.8555 11.3828 9.98051 9.50781 7.67651 9.50781C5.37351 9.50781 3.49951 11.3828 3.49951 13.6868C3.49951 15.9918 5.37351 17.8668 7.67651 17.8668H17.3215H17.3225C19.6265 17.8668 21.5005 15.9918 21.5005 13.6868C21.5005 11.3828 19.6265 9.50781 17.3225 9.50781Z" fill="black"/>
<path fill-rule="evenodd" clip-rule="evenodd" d="M7.03564 7.13477C7.03564 6.58248 7.48336 6.13477 8.03564 6.13477L16.9241 6.13477C17.4764 6.13477 17.9241 6.58248 17.9241 7.13477C17.9241 7.68705 17.4764 8.13477 16.9241 8.13477L8.03564 8.13477C7.48336 8.13477 7.03564 7.68705 7.03564 7.13477Z" fill="black"/>
</svg>