<svg width="24" height="24" viewBox="0 0 24 24" fill="none" xmlns="http://www.w3.org/2000/svg">
<path fill-rule="evenodd" clip-rule="evenodd" d="M3.52032 4.84916C4.3634 3.94516 5.56105 3.44336 6.96486 3.44336H17.0361C18.4433 3.44336 19.6412 3.94484 20.4835 4.84964C21.3202 5.74838 21.75 6.98387 21.75 8.35963V14.9476C21.75 16.323 21.3202 17.5584 20.4834 18.4573C19.641 19.3621 18.4429 19.8639 17.0351 19.8639C16.6209 19.8639 16.2851 19.5281 16.2851 19.1139C16.2851 18.6997 16.6209 18.3639 17.0351 18.3639C18.0725 18.3639 18.8568 18.0031 19.3855 17.4352C19.9199 16.8611 20.25 16.0135 20.25 14.9476V8.35963C20.25 7.29322 19.9199 6.44559 19.3857 5.87172C18.8571 5.30393 18.073 4.94336 17.0361 4.94336H6.96486C5.93235 4.94336 5.14757 5.30362 4.6173 5.87221C4.08162 6.4466 3.75 7.29436 3.75 8.35963V14.9476C3.75 16.0134 4.08024 16.861 4.61479 17.4351C5.1437 18.0032 5.92806 18.3639 6.96486 18.3639C7.37908 18.3639 7.71486 18.6997 7.71486 19.1139C7.71486 19.5281 7.37908 19.8639 6.96486 19.8639C5.55756 19.8639 4.35949 19.3621 3.517 18.4573C2.68014 17.5585 2.25 16.3231 2.25 14.9476V8.35963C2.25 6.98274 2.68265 5.74736 3.52032 4.84916Z" fill="black"/>
<path fill-rule="evenodd" clip-rule="evenodd" d="M12 13.0021C12.4142 13.0021 12.75 13.3379 12.75 13.7521V19.8059C12.75 20.2201 12.4142 20.5559 12 20.5559C11.5858 20.5559 11.25 20.2201 11.25 19.8059V13.7521C11.25 13.3379 11.5858 13.0021 12 13.0021Z" fill="black"/>
<path fill-rule="evenodd" clip-rule="evenodd" d="M9.18662 16.9795C9.48013 16.6872 9.95501 16.6882 10.2473 16.9817L11.9995 18.7414L13.7526 16.9816C14.0449 16.6882 14.5198 16.6872 14.8132 16.9796C15.1067 17.2719 15.1076 17.7468 14.8153 18.0402L12.5307 20.3335C12.39 20.4748 12.1987 20.5542 11.9993 20.5542C11.7999 20.5542 11.6087 20.4747 11.4679 20.3334L9.18436 18.0401C8.89209 17.7466 8.8931 17.2717 9.18662 16.9795Z" fill="black"/>
<path fill-rule="evenodd" clip-rule="evenodd" d="M2.25 9.49152C2.25 9.0773 2.58579 8.74152 3 8.74152H21C21.4142 8.74152 21.75 9.0773 21.75 9.49152C21.75 9.90573 21.4142 10.2415 21 10.2415H3C2.58579 10.2415 2.25 9.90573 2.25 9.49152Z" fill="black"/>
</svg>
