<svg width="24" height="24" viewBox="0 0 24 24" fill="none" xmlns="http://www.w3.org/2000/svg">
<path d="M17.1265 20.8626C16.9935 20.8637 16.8627 20.8292 16.7475 20.7626L16.6565 20.7096L16.6465 20.7036C15.787 20.1801 14.9875 19.5637 14.2625 18.8656C13.6949 18.308 13.2616 17.6285 12.9955 16.8786C12.8449 16.4918 12.7727 16.0788 12.7832 15.6638C12.7937 15.2489 12.8867 14.8401 13.0568 14.4614C13.2268 14.0827 13.4705 13.7416 13.7736 13.458C14.0768 13.1745 14.4334 12.954 14.8225 12.8096C15.5666 12.5661 16.3765 12.6239 17.0785 12.9706C17.7753 12.6158 18.5832 12.5476 19.3295 12.7806C19.7201 12.9184 20.0794 13.1325 20.3866 13.4103C20.6937 13.6882 20.9426 14.0243 21.1187 14.3992C21.2948 14.774 21.3947 15.1802 21.4125 15.594C21.4304 16.0078 21.3658 16.421 21.2225 16.8096C20.9682 17.567 20.5444 18.2565 19.9835 18.8256C19.2635 19.5339 18.4681 20.1613 17.6115 20.6966L17.5215 20.7516C17.4028 20.8247 17.266 20.8632 17.1265 20.8626V20.8626ZM15.7545 14.1566C15.5972 14.1563 15.4409 14.1813 15.2915 14.2306C15.0905 14.3134 14.9079 14.4354 14.7544 14.5895C14.601 14.7436 14.4797 14.9266 14.3977 15.128C14.3158 15.3295 14.2747 15.5452 14.2769 15.7626C14.279 15.98 14.3245 16.1949 14.4105 16.3946C14.5994 16.9206 14.9047 17.3971 15.3035 17.7886C15.8616 18.3248 16.4697 18.8063 17.1195 19.2266C17.7661 18.7964 18.3705 18.3059 18.9245 17.7616C19.3179 17.3603 19.6159 16.8757 19.7965 16.3436C19.8778 16.1433 19.9185 15.9288 19.9163 15.7126C19.9141 15.4965 19.869 15.2829 19.7837 15.0842C19.6985 14.8856 19.5746 14.7058 19.4194 14.5554C19.2642 14.4049 19.0807 14.2867 18.8795 14.2076C18.6532 14.137 18.4133 14.1215 18.1799 14.1626C17.9464 14.2036 17.7261 14.3 17.5375 14.4436C17.4076 14.5406 17.2497 14.5931 17.0875 14.5931C16.9253 14.5931 16.7675 14.5406 16.6375 14.4436C16.3815 14.2559 16.072 14.1553 15.7545 14.1566V14.1566Z" fill="black"/>
<path d="M7.00262 19.6083C6.36828 19.6286 5.73671 19.516 5.14844 19.2779C4.56016 19.0397 4.02817 18.6812 3.58662 18.2253C2.7244 17.267 2.26361 16.0139 2.29962 14.7253L2.25662 8.14629C2.20951 7.50763 2.29612 6.86616 2.51093 6.26286C2.72574 5.65957 3.06402 5.10771 3.50416 4.64254C3.9443 4.17736 4.47662 3.80911 5.06712 3.56129C5.65763 3.31347 6.29333 3.19154 6.93362 3.20329L16.9946 3.13829C17.6341 3.12176 18.2701 3.23579 18.864 3.47341C19.4579 3.71103 19.9971 4.06724 20.4486 4.52029C21.3103 5.47903 21.7716 6.73166 21.7376 8.02029L21.7566 10.9393C21.7573 11.0378 21.7385 11.1354 21.7014 11.2267C21.6644 11.3179 21.6097 11.401 21.5405 11.4711C21.4713 11.5412 21.389 11.597 21.2983 11.6353C21.2075 11.6736 21.1101 11.6936 21.0116 11.6943H21.0066C20.8086 11.6943 20.6186 11.616 20.4781 11.4764C20.3375 11.3368 20.2579 11.1473 20.2566 10.9493L20.2376 8.03029C20.2712 7.12166 19.9564 6.23454 19.3576 5.55029C19.0506 5.24307 18.6828 5.00328 18.2778 4.84624C17.8728 4.68921 17.4395 4.61838 17.0056 4.63829L6.94362 4.70329C6.49994 4.68922 6.05841 4.77042 5.64876 4.94141C5.23912 5.1124 4.87089 5.36921 4.56888 5.69453C4.26687 6.01985 4.03809 6.40613 3.89798 6.82733C3.75787 7.24854 3.70966 7.69488 3.75662 8.13629L3.79962 14.7163C3.76476 15.6249 4.07931 16.5124 4.67862 17.1963C4.98427 17.5057 5.35195 17.747 5.7575 17.9042C6.16304 18.0613 6.59727 18.1309 7.03162 18.1083L10.0566 18.0893C10.2555 18.0886 10.4466 18.167 10.5877 18.3072C10.7288 18.4474 10.8085 18.6379 10.8091 18.8368C10.8098 19.0357 10.7314 19.2267 10.5912 19.3679C10.451 19.509 10.2605 19.5886 10.0616 19.5893L7.03562 19.6083H7.00262Z" fill="black"/>
<path d="M3.01367 10.0193C2.81476 10.0193 2.624 9.94033 2.48334 9.79968C2.34269 9.65903 2.26367 9.46826 2.26367 9.26935C2.26367 9.07044 2.34269 8.87967 2.48334 8.73902C2.624 8.59837 2.81476 8.51935 3.01367 8.51935L20.9947 8.40235C21.0932 8.40202 21.1908 8.4211 21.2819 8.45848C21.373 8.49587 21.4559 8.55084 21.5257 8.62025C21.5956 8.68966 21.6511 8.77216 21.6891 8.86303C21.7271 8.95389 21.7468 9.05136 21.7472 9.14985C21.7475 9.24834 21.7284 9.34593 21.691 9.43705C21.6537 9.52817 21.5987 9.61103 21.5293 9.68091C21.4599 9.75079 21.3774 9.80631 21.2865 9.8443C21.1956 9.8823 21.0982 9.90202 20.9997 9.90235L3.01867 10.0193H3.01367Z" fill="black"/>
</svg>
