<svg width="24" height="24" viewBox="0 0 24 24" fill="none" xmlns="http://www.w3.org/2000/svg">
<path fill-rule="evenodd" clip-rule="evenodd" d="M3.51983 5.19549C4.36279 4.29115 5.5605 3.78906 6.96486 3.78906H17.0351C18.4424 3.78906 19.6405 4.29086 20.483 5.19583C21.3199 6.09473 21.75 7.33043 21.75 8.70631V12.1973C21.75 12.6115 21.4142 12.9473 21 12.9473C20.5858 12.9473 20.25 12.6115 20.25 12.1973V8.70631C20.25 7.64002 19.9197 6.7921 19.3852 6.21792C18.8563 5.6498 18.0719 5.28906 17.0351 5.28906H6.96486C5.93193 5.28906 5.14721 5.64951 4.61707 6.21826C4.08146 6.79286 3.75 7.6409 3.75 8.70631V15.2933C3.75 16.3596 4.08028 17.2075 4.61483 17.7817C5.14373 18.3498 5.92807 18.7106 6.96486 18.7106H10.7137C11.1279 18.7106 11.4637 19.0464 11.4637 19.4606C11.4637 19.8748 11.1279 20.2106 10.7137 20.2106H6.96486C5.55755 20.2106 4.35946 19.7088 3.51696 18.8038C2.68009 17.9049 2.25 16.6692 2.25 15.2933V8.70631C2.25 7.32955 2.68232 6.09397 3.51983 5.19549Z" fill="black"/>
<path fill-rule="evenodd" clip-rule="evenodd" d="M2.25 9.83337C2.25 9.41916 2.58579 9.08337 3 9.08337H21C21.4142 9.08337 21.75 9.41916 21.75 9.83337C21.75 10.2476 21.4142 10.5834 21 10.5834H3C2.58579 10.5834 2.25 10.2476 2.25 9.83337Z" fill="black"/>
<path fill-rule="evenodd" clip-rule="evenodd" d="M16.0959 17.0433C16.0959 16.6291 16.4317 16.2933 16.8459 16.2933H20.9996C21.4138 16.2933 21.7496 16.6291 21.7496 17.0433C21.7496 17.4575 21.4138 17.7933 20.9996 17.7933H16.8459C16.4317 17.7933 16.0959 17.4575 16.0959 17.0433Z" fill="black"/>
<path fill-rule="evenodd" clip-rule="evenodd" d="M17.197 14.3706C17.4418 14.5009 17.5947 14.7555 17.5947 15.0327V19.056C17.5947 19.3332 17.4418 19.5877 17.1971 19.718C16.9524 19.8483 16.6559 19.8329 16.4259 19.6782L13.4379 17.667C13.2309 17.5277 13.1067 17.2945 13.1067 17.0449C13.1067 16.7953 13.2308 16.5621 13.4378 16.4227L16.4258 14.4106C16.6557 14.2558 16.9523 14.2404 17.197 14.3706ZM15.1997 17.0447L16.0947 17.6471V16.442L15.1997 17.0447Z" fill="black"/>
<path fill-rule="evenodd" clip-rule="evenodd" d="M6.42896 15.1962C6.42896 14.782 6.76474 14.4462 7.17896 14.4462H10.1475C10.5617 14.4462 10.8975 14.782 10.8975 15.1962C10.8975 15.6104 10.5617 15.9462 10.1475 15.9462H7.17896C6.76474 15.9462 6.42896 15.6104 6.42896 15.1962Z" fill="black"/>
</svg>
