<svg width="24" height="24" viewBox="0 0 24 24" fill="none" xmlns="http://www.w3.org/2000/svg">
<path fill-rule="evenodd" clip-rule="evenodd" d="M3.51987 5.0254C4.36282 4.12123 5.5605 3.61914 6.96486 3.61914H17.0351C18.4424 3.61914 19.6405 4.12094 20.483 5.02574C21.3199 5.92449 21.75 7.15995 21.75 8.53541V11.611C21.75 12.0252 21.4142 12.361 21 12.361C20.5858 12.361 20.25 12.0252 20.25 11.611V8.53541C20.25 7.46968 19.9198 6.622 19.3852 6.04792C18.8563 5.47989 18.0719 5.11914 17.0351 5.11914H6.96486C5.93193 5.11914 5.14718 5.4796 4.61702 6.04826C4.08142 6.62277 3.75 7.47056 3.75 8.53541V15.1234C3.75 16.1891 4.08024 17.0368 4.61479 17.6109C5.1437 18.1789 5.92806 18.5397 6.96486 18.5397H11.7665C12.1807 18.5397 12.5165 18.8755 12.5165 19.2897C12.5165 19.7039 12.1807 20.0397 11.7665 20.0397H6.96486C5.55756 20.0397 4.35949 19.5379 3.517 18.6331C2.68014 17.7343 2.25 16.4989 2.25 15.1234V8.53541C2.25 7.15907 2.68237 5.92373 3.51987 5.0254Z" fill="black"/>
<path fill-rule="evenodd" clip-rule="evenodd" d="M6.20068 9.34424C6.20068 8.93002 6.53647 8.59424 6.95068 8.59424H17.0482C17.4624 8.59424 17.7982 8.93002 17.7982 9.34424C17.7982 9.75845 17.4624 10.0942 17.0482 10.0942H6.95068C6.53647 10.0942 6.20068 9.75845 6.20068 9.34424Z" fill="black"/>
<path fill-rule="evenodd" clip-rule="evenodd" d="M13.9275 17.5841C13.9275 17.1699 14.2633 16.8341 14.6775 16.8341H20.9989C21.4131 16.8341 21.7489 17.1699 21.7489 17.5841C21.7489 17.9983 21.4131 18.3341 20.9989 18.3341H14.6775C14.2633 18.3341 13.9275 17.9983 13.9275 17.5841Z" fill="black"/>
<path fill-rule="evenodd" clip-rule="evenodd" d="M18.4124 15.0063C18.7047 14.7128 19.1795 14.7118 19.473 15.0041L21.5289 17.0512C21.6703 17.1919 21.7497 17.3831 21.7497 17.5826C21.7498 17.782 21.6704 17.9732 21.5291 18.114L19.4732 20.1621C19.1797 20.4544 18.7048 20.4535 18.4125 20.1601C18.1202 19.8666 18.1211 19.3918 18.4145 19.0994L19.9369 17.5828L18.4147 16.067C18.1211 15.7747 18.1201 15.2998 18.4124 15.0063Z" fill="black"/>
</svg>
