<svg width="24" height="24" viewBox="0 0 24 24" fill="none" xmlns="http://www.w3.org/2000/svg">
<path fill-rule="evenodd" clip-rule="evenodd" d="M3.52154 5.1972C4.36426 4.29311 5.5616 3.79102 6.96543 3.79102H17.0356C18.4428 3.79102 19.6408 4.29277 20.4832 5.19749C21.32 6.09617 21.7501 7.33152 21.7501 8.70685V15.2942C21.7501 16.6699 21.32 17.9053 20.483 18.804C19.6403 19.7086 18.4421 20.21 17.0346 20.21H6.96543C5.55835 20.21 4.36056 19.7085 3.5183 18.8038C2.6817 17.9052 2.25195 16.6698 2.25195 15.2942V8.70685C2.25195 7.33064 2.68428 6.09543 3.52154 5.1972ZM4.61879 6.21996C4.08333 6.79441 3.75195 7.64212 3.75195 8.70685V15.2942C3.75195 16.3604 4.08202 17.208 4.61619 17.7817C5.14471 18.3495 5.92865 18.71 6.96543 18.71H17.0346C18.072 18.71 18.8565 18.3494 19.3853 17.7816C19.9198 17.2078 20.2501 16.3603 20.2501 15.2942V8.70685C20.2501 7.64124 19.9199 6.79368 19.3854 6.21967C18.8565 5.65171 18.0723 5.29102 17.0356 5.29102H6.96543C5.93319 5.29102 5.14879 5.65137 4.61879 6.21996Z" fill="black"/>
<path fill-rule="evenodd" clip-rule="evenodd" d="M2.25 9.12415C2.25 8.70993 2.58579 8.37415 3 8.37415H20.9981C21.4123 8.37415 21.7481 8.70993 21.7481 9.12415C21.7481 9.53836 21.4123 9.87415 20.9981 9.87415H3C2.58579 9.87415 2.25 9.53836 2.25 9.12415Z" fill="black"/>
<path fill-rule="evenodd" clip-rule="evenodd" d="M5.67969 15.4364C5.67969 15.0222 6.01547 14.6864 6.42969 14.6864H9.84252C10.2567 14.6864 10.5925 15.0222 10.5925 15.4364C10.5925 15.8506 10.2567 16.1864 9.84252 16.1864H6.42969C6.01547 16.1864 5.67969 15.8506 5.67969 15.4364Z" fill="black"/>
<path fill-rule="evenodd" clip-rule="evenodd" d="M5.67969 12.7154C5.67969 12.3012 6.01547 11.9654 6.42969 11.9654H8.96401C9.37823 11.9654 9.71401 12.3012 9.71401 12.7154C9.71401 13.1296 9.37823 13.4654 8.96401 13.4654H6.42969C6.01547 13.4654 5.67969 13.1296 5.67969 12.7154Z" fill="black"/>
<path fill-rule="evenodd" clip-rule="evenodd" d="M13.5671 13.4493C13.5671 12.4893 14.3456 11.7108 15.3056 11.7108H16.581C17.541 11.7108 18.3194 12.4893 18.3194 13.4493V14.7013C18.3194 15.6613 17.541 16.4398 16.581 16.4398H15.3056C14.3456 16.4398 13.5671 15.6613 13.5671 14.7013V13.4493ZM15.3056 13.2108C15.174 13.2108 15.0671 13.3177 15.0671 13.4493V14.7013C15.0671 14.8329 15.174 14.9398 15.3056 14.9398H16.581C16.7126 14.9398 16.8194 14.8329 16.8194 14.7013V13.4493C16.8194 13.3177 16.7126 13.2108 16.581 13.2108H15.3056Z" fill="black"/>
</svg>
