<svg width="24" height="24" viewBox="0 0 24 24" fill="none" xmlns="http://www.w3.org/2000/svg">
<path fill-rule="evenodd" clip-rule="evenodd" d="M13.7209 14.9652C14.3618 13.6942 15.6801 12.8181 17.2054 12.8181C19.3584 12.8181 21.1039 14.5638 21.1039 16.7176C21.1039 18.8705 19.3583 20.6161 17.2054 20.6161C15.7904 20.6161 14.5509 19.862 13.8687 18.7359C13.6541 18.3816 13.7673 17.9204 14.1216 17.7058C14.4759 17.4912 14.9371 17.6044 15.1517 17.9587C15.5729 18.654 16.3357 19.1161 17.2054 19.1161C18.5298 19.1161 19.6039 18.0421 19.6039 16.7176C19.6039 15.392 18.5297 14.3181 17.2054 14.3181C16.269 14.3181 15.4565 14.8547 15.0602 15.6406C14.8737 16.0104 14.4227 16.159 14.0529 15.9725C13.683 15.786 13.5344 15.335 13.7209 14.9652Z" fill="black"/>
<path fill-rule="evenodd" clip-rule="evenodd" d="M14.3906 12.8181C14.8048 12.8181 15.1406 13.1538 15.1406 13.5681V14.5519H16.1342C16.5484 14.5519 16.8842 14.8877 16.8842 15.3019C16.8842 15.7161 16.5484 16.0519 16.1342 16.0519H14.3906C13.9764 16.0519 13.6406 15.7161 13.6406 15.3019V13.5681C13.6406 13.1538 13.9764 12.8181 14.3906 12.8181Z" fill="black"/>
<path fill-rule="evenodd" clip-rule="evenodd" d="M3.51983 4.79119C4.36279 3.88686 5.5605 3.38477 6.96486 3.38477H17.0351C18.4424 3.38477 19.6405 3.88657 20.483 4.79153C21.3199 5.69043 21.75 6.92614 21.75 8.30201V11.5955C21.75 12.0097 21.4142 12.3455 21 12.3455C20.5858 12.3455 20.25 12.0097 20.25 11.5955V8.30201C20.25 7.23572 19.9197 6.3878 19.3852 5.81362C18.8563 5.2455 18.0719 4.88477 17.0351 4.88477H6.96486C5.93193 4.88477 5.14721 5.24522 4.61707 5.81396C4.08146 6.38856 3.75 7.2366 3.75 8.30201V14.889C3.75 15.9553 4.08028 16.8032 4.61483 17.3774C5.14373 17.9455 5.92807 18.3063 6.96486 18.3063H10.2915C10.7057 18.3063 11.0415 18.6421 11.0415 19.0563C11.0415 19.4705 10.7057 19.8063 10.2915 19.8063H6.96486C5.55755 19.8063 4.35946 19.3045 3.51696 18.3995C2.68009 17.5006 2.25 16.2649 2.25 14.889V8.30201C2.25 6.92526 2.68232 5.68967 3.51983 4.79119Z" fill="black"/>
<path fill-rule="evenodd" clip-rule="evenodd" d="M2.25 9.43292C2.25 9.01871 2.58579 8.68292 3 8.68292H21C21.4142 8.68292 21.75 9.01871 21.75 9.43292C21.75 9.84714 21.4142 10.1829 21 10.1829H3C2.58579 10.1829 2.25 9.84714 2.25 9.43292Z" fill="black"/>
</svg>
