<svg width="24" height="24" viewBox="0 0 24 24" fill="none" xmlns="http://www.w3.org/2000/svg">
<path fill-rule="evenodd" clip-rule="evenodd" d="M3.51983 5.19549C4.36279 4.29115 5.5605 3.78906 6.96486 3.78906H17.0351C18.4424 3.78906 19.6405 4.29086 20.483 5.19583C21.3199 6.09473 21.75 7.33043 21.75 8.70631V12.1973C21.75 12.6115 21.4142 12.9473 21 12.9473C20.5858 12.9473 20.25 12.6115 20.25 12.1973V8.70631C20.25 7.64002 19.9197 6.7921 19.3852 6.21792C18.8563 5.6498 18.0719 5.28906 17.0351 5.28906H6.96486C5.93193 5.28906 5.14721 5.64951 4.61707 6.21826C4.08146 6.79286 3.75 7.6409 3.75 8.70631V15.2933C3.75 16.3596 4.08028 17.2075 4.61483 17.7817C5.14373 18.3498 5.92807 18.7106 6.96486 18.7106H10.7137C11.1279 18.7106 11.4637 19.0464 11.4637 19.4606C11.4637 19.8748 11.1279 20.2106 10.7137 20.2106H6.96486C5.55755 20.2106 4.35946 19.7088 3.51696 18.8038C2.68009 17.9049 2.25 16.6692 2.25 15.2933V8.70631C2.25 7.32955 2.68232 6.09397 3.51983 5.19549Z" fill="black"/>
<path fill-rule="evenodd" clip-rule="evenodd" d="M2.25 9.83337C2.25 9.41916 2.58579 9.08337 3 9.08337H21C21.4142 9.08337 21.75 9.41916 21.75 9.83337C21.75 10.2476 21.4142 10.5834 21 10.5834H3C2.58579 10.5834 2.25 10.2476 2.25 9.83337Z" fill="black"/>
<path fill-rule="evenodd" clip-rule="evenodd" d="M13.3499 16.9673C13.3499 16.5531 13.6856 16.2173 14.0999 16.2173H20.717C21.1313 16.2173 21.467 16.5531 21.467 16.9673C21.467 17.3815 21.1313 17.7173 20.717 17.7173H14.0999C13.6856 17.7173 13.3499 17.3815 13.3499 16.9673Z" fill="black"/>
<path fill-rule="evenodd" clip-rule="evenodd" d="M17.8499 14.1082C18.1422 13.8147 18.6171 13.8137 18.9106 14.106L21.2477 16.4334C21.389 16.5741 21.4684 16.7654 21.4684 16.9649C21.4684 17.1644 21.3889 17.3556 21.2475 17.4963L18.9105 19.8227C18.6169 20.1149 18.142 20.1139 17.8498 19.8203C17.5576 19.5267 17.5587 19.0519 17.8522 18.7596L19.6554 16.9647L17.8521 15.1689C17.5586 14.8766 17.5576 14.4017 17.8499 14.1082Z" fill="black"/>
</svg>
