<svg width="24" height="24" viewBox="0 0 24 24" fill="none" xmlns="http://www.w3.org/2000/svg">
<path fill-rule="evenodd" clip-rule="evenodd" d="M3.7402 3.89737C4.72468 2.84117 6.12669 2.25 7.78216 2.25H16.2169C17.8762 2.25 19.2788 2.84084 20.2629 3.89765C21.2413 4.94841 21.75 6.39889 21.75 8.02638V15.9736C21.75 17.6011 21.2413 19.0516 20.2627 20.1024C19.2785 21.1592 17.8757 21.75 16.2159 21.75H7.78216C6.1228 21.75 4.72038 21.1591 3.73657 20.1023C2.75842 19.0515 2.25 17.601 2.25 15.9736V8.02638C2.25 6.39806 2.76117 4.94771 3.7402 3.89737ZM4.83745 4.92012C4.16024 5.64666 3.75 6.70951 3.75 8.02638V15.9736C3.75 17.2914 4.15861 18.3541 4.83451 19.0802C5.50475 19.8003 6.49341 20.25 7.78216 20.25H16.2159C17.5052 20.25 18.4944 19.8002 19.165 19.0801C19.8412 18.354 20.25 17.2913 20.25 15.9736V8.02638C20.25 6.70868 19.8412 5.64597 19.1651 4.91984C18.4946 4.19975 17.5056 3.75 16.2169 3.75H7.78216C6.49828 3.75 5.50921 4.19943 4.83745 4.92012Z" fill="black"/>
<path fill-rule="evenodd" clip-rule="evenodd" d="M7.62572 6.7437C8.1933 6.13581 8.99317 5.80743 9.90823 5.80743H14.092C15.0108 5.80743 15.8116 6.13512 16.3789 6.74451C16.9404 7.34767 17.2161 8.16457 17.2161 9.04824V10.6342C17.2161 11.0484 16.8803 11.3842 16.4661 11.3842C16.0519 11.3842 15.7161 11.0484 15.7161 10.6342V9.04824C15.7161 8.47246 15.5393 8.04396 15.281 7.76658C15.0286 7.49542 14.6424 7.30743 14.092 7.30743H9.90823C9.36383 7.30743 8.97668 7.49473 8.7221 7.76739C8.46216 8.04578 8.28418 8.47456 8.28418 9.04824V10.6342C8.28418 11.0484 7.94839 11.3842 7.53418 11.3842C7.11997 11.3842 6.78418 11.0484 6.78418 10.6342V9.04824C6.78418 8.16247 7.06349 7.34584 7.62572 6.7437Z" fill="black"/>
<path fill-rule="evenodd" clip-rule="evenodd" d="M4.92944 10.6393C4.92944 10.2251 5.26523 9.88934 5.67944 9.88934H18.3203C18.7345 9.88934 19.0703 10.2251 19.0703 10.6393C19.0703 11.0536 18.7345 11.3893 18.3203 11.3893H5.67944C5.26523 11.3893 4.92944 11.0536 4.92944 10.6393Z" fill="black"/>
<path fill-rule="evenodd" clip-rule="evenodd" d="M8.9165 16.6901C8.9165 16.2758 9.25229 15.9401 9.6665 15.9401H14.3339C14.7481 15.9401 15.0839 16.2758 15.0839 16.6901C15.0839 17.1043 14.7481 17.4401 14.3339 17.4401H9.6665C9.25229 17.4401 8.9165 17.1043 8.9165 16.6901Z" fill="black"/>
</svg>
