<svg width="24" height="24" viewBox="0 0 24 24" fill="none" xmlns="http://www.w3.org/2000/svg">
<path fill-rule="evenodd" clip-rule="evenodd" d="M17.1921 10.0948C16.2079 10.0948 15.4104 10.8928 15.4104 11.8756C15.4104 12.8595 16.2081 13.6572 17.1921 13.6572H20.9993C21.4135 13.6572 21.7493 13.993 21.7493 14.4072C21.7493 14.8214 21.4135 15.1572 20.9993 15.1572H17.1921C15.3797 15.1572 13.9104 13.6879 13.9104 11.8756C13.9104 10.064 15.3799 8.59485 17.1921 8.59485H20.9993C21.4135 8.59485 21.7493 8.93064 21.7493 9.34485C21.7493 9.75906 21.4135 10.0948 20.9993 10.0948H17.1921Z" fill="black"/>
<path fill-rule="evenodd" clip-rule="evenodd" d="M16.2437 11.8153C16.2437 11.4011 16.5794 11.0653 16.9937 11.0653H16.9966C17.4108 11.0653 17.7466 11.4011 17.7466 11.8153C17.7466 12.2295 17.4108 12.5653 16.9966 12.5653H16.9937C16.5794 12.5653 16.2437 12.2295 16.2437 11.8153Z" fill="black"/>
<path fill-rule="evenodd" clip-rule="evenodd" d="M7.93589 4.43945C5.62384 4.43945 3.75 6.31329 3.75 8.62535V10.6725C3.75 11.0867 3.41421 11.4225 3 11.4225C2.58579 11.4225 2.25 11.0867 2.25 10.6725V8.62535C2.25 5.48486 4.79541 2.93945 7.93589 2.93945H16.0641C19.2046 2.93945 21.75 5.48486 21.75 8.62535V15.3749C21.75 18.5153 19.2046 21.0608 16.0641 21.0608H12.6383C12.2241 21.0608 11.8883 20.725 11.8883 20.3108C11.8883 19.8965 12.2241 19.5608 12.6383 19.5608H16.0641C18.3762 19.5608 20.25 17.6869 20.25 15.3749V8.62535C20.25 6.31329 18.3762 4.43945 16.0641 4.43945H7.93589Z" fill="black"/>
<path fill-rule="evenodd" clip-rule="evenodd" d="M2.25 17.0678C2.25 14.8635 4.03634 13.0759 6.24195 13.0759C7.25334 13.0759 8.17967 13.4525 8.88316 14.0745C9.19348 14.3488 9.22262 14.8228 8.94825 15.1331C8.67389 15.4435 8.19991 15.4726 7.88959 15.1982C7.45081 14.8103 6.87487 14.5759 6.24195 14.5759C4.86506 14.5759 3.75 15.6916 3.75 17.0678C3.75 17.482 3.41421 17.8178 3 17.8178C2.58579 17.8178 2.25 17.482 2.25 17.0678Z" fill="black"/>
<path fill-rule="evenodd" clip-rule="evenodd" d="M9.48282 16.3178C9.89704 16.3178 10.2328 16.6536 10.2328 17.0678C10.2328 19.2721 8.44648 21.0598 6.24088 21.0598C5.22948 21.0598 4.30315 20.6831 3.59966 20.0611C3.28934 19.7868 3.2602 19.3128 3.53457 19.0025C3.80894 18.6922 4.28291 18.663 4.59323 18.9374C5.03201 19.3253 5.60795 19.5598 6.24088 19.5598C7.61776 19.5598 8.73282 18.444 8.73282 17.0678C8.73282 16.6536 9.06861 16.3178 9.48282 16.3178Z" fill="black"/>
</svg>
