<svg width="24" height="24" viewBox="0 0 24 24" fill="none" xmlns="http://www.w3.org/2000/svg">
<path fill-rule="evenodd" clip-rule="evenodd" d="M12 7.97327C12.4142 7.97327 12.75 8.30905 12.75 8.72327V8.72561C12.75 9.13983 12.4142 9.47561 12 9.47561C11.5858 9.47561 11.25 9.13983 11.25 8.72561V8.72327C11.25 8.30905 11.5858 7.97327 12 7.97327Z" fill="black"/>
<path fill-rule="evenodd" clip-rule="evenodd" d="M7.80454 5.80194C5.56536 5.80194 3.75 7.61652 3.75 9.85648V15.9327C3.75 18.1716 5.56526 19.9863 7.80454 19.9863H16.2052C18.4346 19.9863 20.25 18.1727 20.25 15.9327V9.85648C20.25 7.61543 18.4345 5.80194 16.2052 5.80194H14.4548C14.0406 5.80194 13.7048 5.46615 13.7048 5.05194C13.7048 4.63773 14.0406 4.30194 14.4548 4.30194H16.2052C19.2649 4.30194 21.75 6.78899 21.75 9.85648V15.9327C21.75 18.9993 19.2648 21.4863 16.2052 21.4863H7.80454C4.73723 21.4863 2.25 19.0004 2.25 15.9327V9.85648C2.25 6.7879 4.73713 4.30194 7.80454 4.30194H9.53351C9.94773 4.30194 10.2835 4.63773 10.2835 5.05194C10.2835 5.46615 9.94773 5.80194 9.53351 5.80194H7.80454Z" fill="black"/>
<path fill-rule="evenodd" clip-rule="evenodd" d="M11.4393 4.01562C10.8044 4.01562 10.2891 4.53047 10.2891 5.16584V9.41871C10.2891 10.0541 10.8044 10.5689 11.4393 10.5689H12.5611C13.1967 10.5689 13.7113 10.0543 13.7113 9.41871V5.16584C13.7113 4.53022 13.1967 4.01562 12.5611 4.01562H11.4393ZM8.78906 5.16584C8.78906 3.70154 9.97645 2.51562 11.4393 2.51562H12.5611C14.0252 2.51562 15.2113 3.70179 15.2113 5.16584V9.41871C15.2113 10.8828 14.0252 12.0689 12.5611 12.0689H11.4393C9.97645 12.0689 8.78906 10.883 8.78906 9.41871V5.16584Z" fill="black"/>
</svg>
