<svg width="24" height="24" viewBox="0 0 24 24" fill="none" xmlns="http://www.w3.org/2000/svg">
<path fill-rule="evenodd" clip-rule="evenodd" d="M17.1904 10.0948C16.2062 10.0948 15.4087 10.8928 15.4087 11.8756C15.4087 12.8595 16.2064 13.6572 17.1904 13.6572H20.9976C21.4118 13.6572 21.7476 13.993 21.7476 14.4072C21.7476 14.8214 21.4118 15.1572 20.9976 15.1572H17.1904C15.378 15.1572 13.9087 13.6879 13.9087 11.8756C13.9087 10.064 15.3782 8.59485 17.1904 8.59485H20.9976C21.4118 8.59485 21.7476 8.93064 21.7476 9.34485C21.7476 9.75906 21.4118 10.0948 20.9976 10.0948H17.1904Z" fill="black"/>
<path fill-rule="evenodd" clip-rule="evenodd" d="M16.2437 11.8191C16.2437 11.4049 16.5794 11.0691 16.9937 11.0691H16.9966C17.4108 11.0691 17.7466 11.4049 17.7466 11.8191C17.7466 12.2333 17.4108 12.5691 16.9966 12.5691H16.9937C16.5794 12.5691 16.2437 12.2333 16.2437 11.8191Z" fill="black"/>
<path fill-rule="evenodd" clip-rule="evenodd" d="M7.93589 4.43945C5.62384 4.43945 3.75 6.31329 3.75 8.62535V11.6133C3.75 12.0276 3.41421 12.3633 3 12.3633C2.58579 12.3633 2.25 12.0276 2.25 11.6133V8.62535C2.25 5.48486 4.79541 2.93945 7.93589 2.93945H16.0641C19.2046 2.93945 21.75 5.48486 21.75 8.62535V15.3749C21.75 18.5153 19.2046 21.0608 16.0641 21.0608H12.6383C12.2241 21.0608 11.8883 20.725 11.8883 20.3108C11.8883 19.8965 12.2241 19.5608 12.6383 19.5608H16.0641C18.3762 19.5608 20.25 17.6869 20.25 15.3749V8.62535C20.25 6.31329 18.3762 4.43945 16.0641 4.43945H7.93589Z" fill="black"/>
<path fill-rule="evenodd" clip-rule="evenodd" d="M8.19671 15.1122C8.4896 15.4051 8.4896 15.88 8.19671 16.1729L3.53033 20.8393C3.23744 21.1322 2.76256 21.1322 2.46967 20.8393C2.17678 20.5464 2.17678 20.0715 2.46967 19.7786L7.13605 15.1122C7.42894 14.8194 7.90382 14.8194 8.19671 15.1122Z" fill="black"/>
<path fill-rule="evenodd" clip-rule="evenodd" d="M8.19713 15.1122C8.33817 15.2533 8.41722 15.4447 8.4168 15.6441L8.40902 19.4008C8.40816 19.815 8.07168 20.1501 7.65747 20.1492C7.24325 20.1484 6.90816 19.8119 6.90902 19.3977L6.91525 16.3941L3.91171 16.4004C3.4975 16.4012 3.16102 16.0661 3.16016 15.6519C3.1593 15.2377 3.49439 14.9012 3.9086 14.9004L7.66525 14.8926C7.8647 14.8922 8.0561 14.9712 8.19713 15.1122Z" fill="black"/>
</svg>
