<svg width="24" height="24" viewBox="0 0 24 24" fill="none" xmlns="http://www.w3.org/2000/svg">
<path fill-rule="evenodd" clip-rule="evenodd" d="M9.39567 4.91355C9.67846 4.79869 10.0027 4.86667 10.2155 5.08545L10.9781 5.86935C11.6322 5.6019 12.3678 5.6019 13.022 5.86935L13.7846 5.08545C13.9974 4.86667 14.3216 4.79869 14.6044 4.91355C14.8872 5.02841 15.0722 5.30319 15.0722 5.60842V8.31184C15.3952 8.30321 15.6771 8.26294 15.9581 8.14987C16.4005 7.97182 16.9377 7.56567 17.5438 6.52179C17.6471 6.34373 17.8192 6.21599 18.0195 6.16855C18.2199 6.1211 18.431 6.15811 18.6032 6.27091C21.2045 7.97421 22.4 10.7388 21.3993 13.596C21.3205 13.821 21.1394 13.9951 20.9115 14.0651C20.6835 14.135 20.4359 14.0924 20.2445 13.9503C19.8136 13.6304 19.1127 13.5361 18.4778 13.7935C17.8853 14.0337 17.3499 14.5847 17.2473 15.5907C17.2062 15.9937 16.8525 16.2912 16.4484 16.2627C15.6989 16.2098 14.8715 16.5557 14.1277 17.1095C13.3818 17.6648 12.8554 18.3284 12.6809 18.7061C12.5566 18.9753 12.2853 19.146 11.9888 19.1416C11.6923 19.1372 11.4263 18.9585 11.31 18.6856C11.1513 18.3131 10.6356 17.656 9.88514 17.1023C9.14014 16.5527 8.30467 16.2095 7.5517 16.2627C7.14759 16.2912 6.79386 15.9937 6.75275 15.5907C6.64599 14.5441 6.13655 13.9758 5.59275 13.7365C5.02605 13.4871 4.32262 13.5479 3.74277 13.9596C3.55064 14.096 3.30556 14.1342 3.08103 14.0627C2.8565 13.9912 2.67862 13.8184 2.60073 13.596C1.60002 10.7388 2.79555 7.97421 5.39684 6.27091C5.5691 6.15811 5.78016 6.1211 5.98052 6.16855C6.18088 6.21599 6.35293 6.34373 6.45631 6.52179C7.06235 7.56567 7.59959 7.97182 8.04198 8.14987C8.32294 8.26294 8.6049 8.30321 8.92791 8.31184V5.60842C8.92791 5.30319 9.11288 5.02841 9.39567 4.91355ZM13.5722 7.42936C13.3143 7.59845 12.9715 7.59482 12.7147 7.40461C12.2901 7.09015 11.7099 7.09015 11.2854 7.40461C11.0286 7.59482 10.6857 7.59845 10.4279 7.42936V9.04826C10.4279 9.45123 10.1095 9.78217 9.70681 9.7977C9.67956 9.79875 9.65193 9.79985 9.62392 9.80097C9.02759 9.82475 8.26186 9.85529 7.48194 9.5414C6.81211 9.27181 6.19392 8.77985 5.60955 7.97241C4.18808 9.14142 3.55472 10.6735 3.80448 12.2639C4.58903 12.0029 5.44063 12.0307 6.19697 12.3636C7.12484 12.7719 7.8415 13.6069 8.13177 14.7804C9.12654 14.8883 10.0497 15.3597 10.7756 15.8952C11.2437 16.2405 11.669 16.6416 12.0099 17.046C12.3483 16.6495 12.7678 16.2519 13.2319 15.9063C13.9546 15.3683 14.8752 14.8896 15.8724 14.7805C16.1839 13.586 16.9729 12.785 17.9142 12.4034C18.6402 12.1091 19.4599 12.0654 20.193 12.2801C20.4496 10.684 19.8168 9.14539 18.3905 7.97241C17.8061 8.77985 17.188 9.27181 16.5181 9.5414C15.7382 9.85529 14.9725 9.82475 14.3761 9.80097C14.3481 9.79985 14.3205 9.79875 14.2933 9.7977C13.8906 9.78217 13.5722 9.45123 13.5722 9.04826V7.42936Z" fill="black"/>
<path fill-rule="evenodd" clip-rule="evenodd" d="M9.68213 8.6084C10.0963 8.6084 10.4321 8.94418 10.4321 9.3584C10.4321 9.9294 10.637 10.4632 10.981 10.8454C11.3227 11.225 11.7682 11.4209 12.2136 11.4209C12.6279 11.4209 12.9636 11.7567 12.9636 12.1709C12.9636 12.5851 12.6279 12.9209 12.2136 12.9209C11.3163 12.9209 10.474 12.5242 9.86614 11.8489C9.26066 11.1762 8.93213 10.2792 8.93213 9.3584C8.93213 8.94418 9.26792 8.6084 9.68213 8.6084Z" fill="black"/>
<path fill-rule="evenodd" clip-rule="evenodd" d="M18.4297 17.6316C18.8439 17.6316 19.1797 17.9674 19.1797 18.3816V18.3916C19.1797 18.8058 18.8439 19.1416 18.4297 19.1416C18.0155 19.1416 17.6797 18.8058 17.6797 18.3916V18.3816C17.6797 17.9674 18.0155 17.6316 18.4297 17.6316Z" fill="black"/>
<path fill-rule="evenodd" clip-rule="evenodd" d="M5.57031 17.6216C5.98453 17.6216 6.32031 17.9574 6.32031 18.3716V18.3816C6.32031 18.7958 5.98453 19.1316 5.57031 19.1316C5.1561 19.1316 4.82031 18.7958 4.82031 18.3816V18.3716C4.82031 17.9574 5.1561 17.6216 5.57031 17.6216Z" fill="black"/>
</svg>
