<svg width="24" height="24" viewBox="0 0 24 24" fill="none" xmlns="http://www.w3.org/2000/svg">
<path fill-rule="evenodd" clip-rule="evenodd" d="M16.1143 4.37986C16.0941 4.36822 16.069 4.36974 16.0504 4.3837L11.8669 7.52324C11.8565 7.531 11.8491 7.54198 11.8457 7.55445L9.64146 15.6564C9.63454 15.6819 9.64563 15.7088 9.66847 15.722L13.6213 18.0041C13.6441 18.0173 13.673 18.0135 13.6915 17.9947L19.6059 12.0348C19.615 12.0257 19.6208 12.0137 19.6224 12.0009L20.2495 6.80809C20.2523 6.78499 20.2411 6.76246 20.2209 6.75082L16.1143 4.37986ZM15.15 3.18397C15.6492 2.80935 16.3238 2.76876 16.8643 3.08082L20.9709 5.45179C21.5114 5.76385 21.8136 6.36833 21.7387 6.98795L21.1115 12.1807L20.4948 12.1063L21.1115 12.1807C21.07 12.5249 20.9148 12.8454 20.6707 13.0914L14.7563 19.0513C14.258 19.5535 13.4839 19.6569 12.8713 19.3032L8.91847 17.021C8.30583 16.6673 8.00836 15.9453 8.19407 15.2627L10.3983 7.16067C10.4893 6.82618 10.6893 6.53158 10.9665 6.32351L11.3604 6.84841L10.9665 6.32351L15.15 3.18397Z" fill="black"/>
<path fill-rule="evenodd" clip-rule="evenodd" d="M5.86133 6.5824C5.83807 6.5824 5.81705 6.59628 5.80791 6.61768L3.75466 11.4284C3.74959 11.4402 3.74863 11.4535 3.75192 11.466L5.89399 19.5846C5.90072 19.6101 5.92378 19.6279 5.95015 19.6279H10.5145C10.5408 19.6279 10.5639 19.6101 10.5706 19.5846L11.0656 17.7086C11.1713 17.3081 11.5816 17.0691 11.9821 17.1747C12.3826 17.2804 12.6216 17.6908 12.516 18.0913L12.021 19.9673C11.8405 20.6513 11.2219 21.1279 10.5145 21.1279H5.95015C5.24273 21.1279 4.6241 20.6513 4.44362 19.9673L2.30156 11.8486C2.21312 11.5135 2.23899 11.1584 2.37507 10.8395L4.42832 6.02885C4.67332 5.45483 5.23721 5.0824 5.86133 5.0824H10.6033C11.2274 5.0824 11.7913 5.45483 12.0363 6.02885L12.0415 6.04096L12.0413 6.04101L12.2426 6.53634C12.3984 6.9201 12.2137 7.35757 11.83 7.51346C11.4462 7.66935 11.0087 7.48462 10.8528 7.10086L10.6555 6.61514C10.6459 6.59519 10.6256 6.5824 10.6033 6.5824H5.86133Z" fill="black"/>
<path fill-rule="evenodd" clip-rule="evenodd" d="M17.0509 7.49941C17.4096 7.70652 17.5325 8.16521 17.3254 8.52393L16.6752 9.64999L17.7294 10.2586C18.0881 10.4657 18.211 10.9244 18.0039 11.2831C17.7968 11.6418 17.3381 11.7647 16.9794 11.5576L15.9252 10.949L14.139 14.0429C13.9319 14.4016 13.4732 14.5245 13.1145 14.3174C12.7558 14.1103 12.6329 13.6516 12.84 13.2929L14.6262 10.199L13.5721 9.59042C13.2134 9.38332 13.0905 8.92462 13.2976 8.5659C13.5047 8.20718 13.9634 8.08428 14.3221 8.29138L15.3762 8.89999L16.0263 7.77393C16.2334 7.41521 16.6921 7.2923 17.0509 7.49941Z" fill="black"/>
</svg>
