<svg width="24" height="24" viewBox="0 0 24 24" fill="none" xmlns="http://www.w3.org/2000/svg">
<path d="M12.683 21.7892C11.693 21.7892 10.713 21.4592 9.74297 21.1392C8.56297 20.7492 7.44297 20.3692 6.48297 20.6692C5.51297 20.9592 4.54296 21.1592 3.97296 20.5592C3.37296 19.9392 3.68293 19.0292 4.07293 17.8892C4.39293 16.9792 4.78295 15.8492 4.78295 14.7092V11.0192C4.78295 10.6092 5.12295 10.2692 5.53295 10.2692C5.94295 10.2692 6.28295 10.6092 6.28295 11.0192V14.7092C6.28295 16.0992 5.84297 17.3592 5.49297 18.3792C5.37297 18.7192 5.22296 19.1492 5.16296 19.4292C5.33296 19.4092 5.60296 19.3592 6.04296 19.2192C7.46296 18.7892 8.86295 19.2492 10.2129 19.6992C11.4529 20.1092 12.6129 20.4993 13.5829 20.0993C13.8229 19.9993 13.8729 19.8592 13.9529 19.3992C14.0029 19.0692 14.0929 18.5292 14.6329 18.3192C15.2229 18.0892 15.8129 18.4992 16.4629 19.0092C17.2329 19.6192 18.9929 19.9192 19.3229 19.6892C19.3029 19.6892 19.293 19.4492 18.983 18.9492L16.973 15.7192C15.883 13.9692 15.513 11.7892 15.933 9.57923C16.213 8.08923 15.783 6.55925 14.743 5.37925C13.733 4.22925 12.3129 3.61924 10.8329 3.70924C8.63294 3.83924 6.71296 5.72923 6.35296 8.10923C6.29296 8.51923 5.91298 8.79923 5.50298 8.73923C5.09298 8.67923 4.81298 8.29923 4.87298 7.88923C5.33298 4.82923 7.85297 2.38925 10.743 2.21925C12.683 2.11925 14.543 2.89924 15.863 4.39924C17.213 5.92924 17.7729 7.92924 17.4029 9.86924C17.0529 11.7092 17.353 13.5092 18.243 14.9392L20.253 18.1692C21.203 19.6892 20.7129 20.4792 20.3329 20.8192C19.2229 21.8092 16.553 21.0092 15.533 20.1992C15.473 20.1492 15.413 20.1092 15.363 20.0692C15.243 20.5492 14.953 21.1792 14.163 21.5092C13.673 21.7092 13.173 21.7892 12.683 21.7892Z" fill="black"/>
<path d="M11.0129 11.6492H9.97295C9.38295 11.6492 8.83293 11.2992 8.58293 10.7592L8.18297 9.89919L7.79296 10.7892C7.56296 11.3092 7.05296 11.6492 6.48296 11.6492H5.23296C4.51296 11.6492 3.90298 11.1092 3.81298 10.3992L3.67296 9.28918C3.65296 9.12918 3.65292 9.0392 3.63292 8.9692C3.33292 8.8292 3.16293 8.52918 3.20293 8.19918C3.24293 7.86918 3.52295 7.62918 3.85295 7.57918C5.43295 7.35918 6.34296 7.35918 7.86296 7.57918C8.07296 7.60918 8.25294 7.60918 8.46294 7.57918C10.0129 7.37918 10.763 7.37918 12.313 7.57918C12.593 7.61918 12.823 7.7992 12.913 8.0592C13.013 8.3192 12.9529 8.60917 12.7629 8.81917C12.7629 8.81917 12.673 8.91918 12.613 8.97918C12.543 9.03918 12.503 9.24917 12.503 9.31917L12.423 10.3292C12.363 11.0692 11.743 11.6492 10.993 11.6492H11.0129ZM5.15294 8.94918C5.15294 8.94918 5.16296 9.03919 5.17296 9.08919L5.31298 10.2092L6.49297 10.1492L6.97295 8.97918C6.32295 8.91918 5.78295 8.90918 5.16295 8.94918H5.15294ZM9.41295 8.97918L9.97295 10.1492H11.0129V9.25918C11.0129 9.25918 11.013 9.10918 11.053 8.94918C10.493 8.90918 10.023 8.91918 9.41295 8.97918Z" fill="black"/>
<path d="M10.0929 15.4492C9.97288 15.4492 9.86291 15.4492 9.74291 15.4192C9.33291 15.3492 9.05291 14.9692 9.12291 14.5592C9.19291 14.1492 9.5729 13.8692 9.9829 13.9392C10.1029 13.9592 10.3829 14.0092 10.5829 13.5892C10.7629 13.2192 11.2029 13.0492 11.5829 13.2292C11.9629 13.4092 12.1229 13.8492 11.9429 14.2292C11.5829 15.0092 10.8929 15.4592 10.1029 15.4592L10.0929 15.4492Z" fill="black"/>
</svg>
