<svg width="24" height="24" viewBox="0 0 24 24" fill="none" xmlns="http://www.w3.org/2000/svg">
<path fill-rule="evenodd" clip-rule="evenodd" d="M9.30862 3.75C6.44538 3.75 4.2071 5.99573 3.82008 9.58959C3.65302 11.1409 3.90021 12.9983 4.58966 14.7089C5.27871 16.4186 6.38693 17.9282 7.89615 18.8539L7.89618 18.854C10.8733 20.6803 13.5443 20.4914 15.6907 19.5583C17.3894 18.82 18.7706 17.6073 19.6836 16.5165C17.8729 15.9691 16.6772 14.8082 15.9271 13.5145C15.0399 11.9845 14.7754 10.2769 14.7754 9.15964C14.7754 7.29833 14.1302 5.96939 13.1691 5.09959C12.1962 4.21924 10.8332 3.75 9.30862 3.75ZM2.3287 9.42898C2.77412 5.29279 5.47689 2.25 9.30862 2.25C11.1316 2.25 12.8769 2.81214 14.1755 3.98739C15.4859 5.17319 16.2754 6.92407 16.2754 9.15964C16.2754 10.0857 16.5024 11.5165 17.2247 12.7621C17.9296 13.9777 19.1045 15.0238 21.0787 15.2855C21.3339 15.3193 21.5539 15.4816 21.6615 15.7154C21.7691 15.9492 21.7493 16.2219 21.609 16.4377C20.6709 17.881 18.7992 19.8427 16.2887 20.934C13.7377 22.0429 10.546 22.2392 7.11183 20.1325C5.2626 18.9982 3.97503 17.1966 3.1984 15.2696C2.42216 13.3436 2.13378 11.239 2.3287 9.42898Z" fill="black"/>
<path fill-rule="evenodd" clip-rule="evenodd" d="M9.00122 8.65333C9.00122 8.10228 9.44768 7.65356 10.001 7.65356C10.5525 7.65356 11.0012 8.10048 11.0012 8.65333C11.0012 9.20575 10.5534 9.65356 10.001 9.65356C9.44678 9.65356 9.00122 9.20395 9.00122 8.65333Z" fill="black"/>
<path fill-rule="evenodd" clip-rule="evenodd" d="M5.64331 8.65333C5.64331 8.10228 6.08977 7.65356 6.64308 7.65356C7.1946 7.65356 7.64331 8.10048 7.64331 8.65333C7.64331 9.20575 7.19549 9.65356 6.64308 9.65356C6.08887 9.65356 5.64331 9.20395 5.64331 8.65333Z" fill="black"/>
</svg>
