<svg width="24" height="24" viewBox="0 0 24 24" fill="none" xmlns="http://www.w3.org/2000/svg">
<path fill-rule="evenodd" clip-rule="evenodd" d="M11.532 9.15006C11.532 8.60041 11.9773 8.15283 12.5292 8.15283C13.0793 8.15283 13.5269 8.59861 13.5269 9.15006C13.5269 9.70106 13.0802 10.1477 12.5292 10.1477C11.9764 10.1477 11.532 9.69927 11.532 9.15006Z" fill="black"/>
<path fill-rule="evenodd" clip-rule="evenodd" d="M8.20825 9.15006C8.20825 8.60041 8.65357 8.15283 9.20548 8.15283C9.75559 8.15283 10.2032 8.59861 10.2032 9.15006C10.2032 9.70106 9.75648 10.1477 9.20548 10.1477C8.65268 10.1477 8.20825 9.69927 8.20825 9.15006Z" fill="black"/>
<path fill-rule="evenodd" clip-rule="evenodd" d="M15.7008 9.63294C16.2823 6.55097 13.7257 3.56978 10.5985 3.75882C8.10459 3.90958 6.06473 6.29918 6.06473 8.90631V14.7511C6.06473 15.7059 5.85324 16.6094 5.61963 17.3794C5.50612 17.7535 5.38429 18.1056 5.27662 18.4167L5.26668 18.4454C5.15388 18.7714 5.06151 19.0405 4.99754 19.2706C4.97541 19.3502 4.9589 19.4177 4.94679 19.4745C5.14302 19.4524 5.42761 19.3912 5.82821 19.2692C7.26075 18.8333 8.73832 19.3287 9.93036 19.7284C9.99371 19.7496 10.0563 19.7706 10.1179 19.7911C11.4692 20.2412 12.4773 20.5202 13.37 20.1542C13.6241 20.05 13.6494 19.9136 13.7282 19.4907C13.7411 19.4213 13.7554 19.3443 13.7725 19.2584C13.7942 19.1489 13.8416 18.92 13.9821 18.7186C14.063 18.6028 14.1827 18.4832 14.3522 18.4024C14.5215 18.3217 14.6928 18.3023 14.8422 18.3132C15.1098 18.3328 15.3516 18.4527 15.5373 18.5626C15.7409 18.683 15.9744 18.8517 16.2431 19.0654C16.4566 19.2351 16.8556 19.4372 17.3459 19.5934C17.8307 19.748 18.3234 19.8317 18.6987 19.8204C18.9298 19.8134 19.0376 19.7762 19.0816 19.755C19.0786 19.6793 19.0438 19.4566 18.7593 19.0008L16.7447 15.7727C15.5786 13.9041 15.3093 11.7079 15.7008 9.63294ZM10.508 2.26155C14.6426 2.01162 17.9314 5.90092 17.1748 9.91106C16.841 11.6803 17.0826 13.4809 18.0172 14.9785L20.0318 18.2066C20.496 18.9504 20.7793 19.7595 20.4244 20.4528C20.065 21.1551 19.279 21.3036 18.7439 21.3197C18.1475 21.3377 17.4794 21.2103 16.8903 21.0226C16.3068 20.8366 15.7192 20.5652 15.3095 20.2394C15.2493 20.1916 15.1936 20.1483 15.142 20.1091C15.0177 20.5848 14.722 21.2211 13.9391 21.5421C12.4548 22.1506 10.902 21.6333 9.66601 21.2216L9.64395 21.2143C8.27558 20.7585 7.22314 20.4126 6.26495 20.7043C5.7749 20.8534 5.35176 20.9493 4.99577 20.9764C4.65847 21.0021 4.25425 20.9768 3.91879 20.7404C3.53851 20.4724 3.42934 20.0709 3.41818 19.7528C3.40771 19.4548 3.4763 19.1423 3.55236 18.8688C3.63119 18.5852 3.7402 18.2698 3.84913 17.955L3.85617 17.9346C3.96567 17.6182 4.07927 17.2899 4.18425 16.9439C4.39913 16.2356 4.56473 15.4935 4.56473 14.7511V8.90631C4.56473 5.61685 7.11606 2.46659 10.508 2.26155Z" fill="black"/>
<path fill-rule="evenodd" clip-rule="evenodd" d="M9.29063 14.207C9.62445 14.4523 10.0939 14.3805 10.3391 14.0466C10.4573 13.8857 10.6449 13.7992 10.8701 13.8047C11.1049 13.8103 11.319 13.9166 11.4414 14.0702C11.6997 14.394 12.1715 14.4473 12.4954 14.189C12.8193 13.9308 12.8725 13.459 12.6143 13.1351C11.8031 12.1175 10.0317 11.9315 9.13024 13.1586C8.88501 13.4924 8.95682 13.9618 9.29063 14.207Z" fill="black"/>
</svg>
