<svg width="24" height="24" viewBox="0 0 24 24" fill="none" xmlns="http://www.w3.org/2000/svg">
<path fill-rule="evenodd" clip-rule="evenodd" d="M10.6792 9.08446C10.6792 8.53424 11.1299 8.11243 11.6558 8.11243C12.18 8.11243 12.6329 8.53247 12.6329 9.08446C12.6329 9.63598 12.1809 10.0569 11.6558 10.0569C11.129 10.0569 10.6792 9.6342 10.6792 9.08446Z" fill="black"/>
<path fill-rule="evenodd" clip-rule="evenodd" d="M7.63208 9.08446C7.63208 8.53424 8.08279 8.11243 8.60872 8.11243C9.13284 8.11243 9.58578 8.53247 9.58578 9.08446C9.58578 9.63598 9.13374 10.0569 8.60872 10.0569C8.08189 10.0569 7.63208 9.6342 7.63208 9.08446Z" fill="black"/>
<path fill-rule="evenodd" clip-rule="evenodd" d="M7.60427 6.09475C6.82297 6.99836 6.29269 8.31849 6.11586 9.92716C6.11347 9.94891 6.11117 9.97073 6.10897 9.99264C6.07618 10.3187 5.83555 10.5856 5.51468 10.652C5.14745 10.728 4.57242 10.7777 3.93274 10.6148C4.23897 11.328 4.77988 11.8602 5.43547 11.8599C5.80636 11.8598 6.12167 12.1307 6.17731 12.4974C6.52491 14.7883 7.71845 16.8411 9.77609 18.0776L9.77612 18.0776C12.4677 19.6952 14.7109 19.5148 16.4677 18.7082C17.8152 18.0895 18.9105 17.084 19.6913 16.1435C18.9122 15.9276 18.2469 15.6103 17.6862 15.2001C16.8513 14.5893 16.2876 13.8011 15.9209 12.9245C15.8308 12.7092 15.8461 12.4643 15.9622 12.2618C16.0783 12.0594 16.2821 11.9226 16.5134 11.8917C16.7528 11.8596 17.0088 11.7169 17.262 11.4476C17.487 11.2084 17.6758 10.9036 17.8093 10.6008C17.0838 10.7974 16.39 10.727 15.8611 10.5822C15.5494 10.4969 15.3274 10.2215 15.3102 9.89877C15.3034 9.7722 15.3002 9.65042 15.3002 9.53439C15.3002 6.35296 12.9691 4.69006 10.6984 4.69006C9.40499 4.69006 8.37192 5.20692 7.60427 6.09475ZM18.7242 10.2022C18.7241 10.2023 18.7213 10.204 18.7162 10.2065C18.7216 10.2032 18.7242 10.202 18.7242 10.2022ZM3.75386 9.85929C3.75419 9.85975 3.75361 9.8662 3.7511 9.87726C3.75226 9.86436 3.75352 9.85883 3.75386 9.85929ZM2.97711 10.2092C2.97698 10.2091 2.97687 10.2091 2.97677 10.209L2.97675 10.209C2.97687 10.2091 2.97699 10.2091 2.97711 10.2092ZM6.4696 5.11366C7.51218 3.90787 8.9543 3.19006 10.6984 3.19006C13.6243 3.19006 16.6402 5.31765 16.7941 9.22019C17.1572 9.23498 17.551 9.16233 17.9255 8.9317C18.122 8.81071 18.5162 8.62996 18.9397 8.82924C19.3608 9.02739 19.4664 9.43944 19.4947 9.63847C19.556 10.0699 19.4278 10.5967 19.2486 11.0468C19.0583 11.5246 18.7592 12.0452 18.3548 12.4752C18.1601 12.6823 17.9309 12.8785 17.6684 13.0364C17.9067 13.4005 18.2037 13.7201 18.5719 13.9895C19.1607 14.4202 19.9708 14.751 21.0965 14.8971C21.3534 14.9305 21.5748 15.094 21.6823 15.3297C21.7898 15.5653 21.7681 15.8397 21.6249 16.0555C20.7865 17.3191 19.2425 19.0848 17.0936 20.0714C14.8969 21.08 12.1295 21.242 9.00345 19.3633C6.68534 17.9703 5.3042 15.7344 4.79556 13.2866C3.60881 13.0057 2.8776 11.9747 2.54142 11.1761C2.34139 10.7009 2.21983 10.1759 2.25651 9.74998C2.27184 9.57184 2.33203 9.19085 2.66211 8.94352C3.08605 8.62586 3.5409 8.7948 3.76327 8.93173C4.08729 9.13126 4.41656 9.20589 4.69762 9.22058C4.95298 7.61367 5.54369 6.18453 6.4696 5.11366Z" fill="black"/>
</svg>
