<svg width="24" height="24" viewBox="0 0 24 24" fill="none" xmlns="http://www.w3.org/2000/svg">
<path fill-rule="evenodd" clip-rule="evenodd" d="M10.1723 2.73334C15.0779 1.41891 20.1201 4.33008 21.4346 9.23562L20.722 9.42657L21.4346 9.23564C22.749 14.1411 19.8378 19.1835 14.9323 20.4979C14.5322 20.6051 14.1209 20.3677 14.0137 19.9676C13.9065 19.5674 14.144 19.1562 14.5441 19.049C18.6494 17.949 21.0857 13.7292 19.9857 9.62385C18.8857 5.5185 14.6659 3.08221 10.5605 4.18223C6.45514 5.28226 4.01885 9.50205 5.11888 13.6074C5.22608 14.0075 4.98865 14.4188 4.58855 14.526C4.18845 14.6332 3.77719 14.3958 3.66999 13.9957C2.35555 9.09008 5.26671 4.04778 10.1723 2.73334L10.3493 3.39417L10.1723 2.73334Z" fill="black"/>
<path fill-rule="evenodd" clip-rule="evenodd" d="M15.6436 8.21507C15.8691 8.15464 16.1009 8.28854 16.1613 8.51394L15.6436 8.21507ZM15.2553 6.76618C16.281 6.49137 17.3354 7.1 17.6102 8.12577L17.6102 8.12578C17.885 9.15145 17.2763 10.2057 16.2506 10.4806L16.2506 10.4806C15.225 10.7554 14.1706 10.1467 13.8958 9.12098C13.621 8.09535 14.2296 7.04104 15.2553 6.76619L15.2553 6.76618ZM15.6435 8.21508C15.4181 8.27549 15.2843 8.50725 15.3447 8.73282C15.4051 8.95828 15.6369 9.09211 15.8623 9.03174M16.1613 8.51394C16.2217 8.73946 16.0879 8.97125 15.8624 9.03173L16.1613 8.51394Z" fill="black"/>
<path fill-rule="evenodd" clip-rule="evenodd" d="M6.04307 5.32928C6.11701 4.92171 6.50734 4.65125 6.9149 4.72519C7.77693 4.88156 8.51775 5.51881 8.76036 6.42426L8.76036 6.42426C9.09519 7.67384 8.35363 8.95825 7.10405 9.29308C6.04006 9.57818 4.95263 9.08312 4.44528 8.15997C4.24578 7.79697 4.37832 7.34096 4.74133 7.14146C5.10433 6.94196 5.56033 7.07451 5.75983 7.43751C5.94233 7.76957 6.33449 7.94637 6.71582 7.84419L6.88418 8.4725L6.71582 7.84419C7.1652 7.72378 7.43189 7.26187 7.31148 6.81249C7.22462 6.48834 6.95973 6.2578 6.64716 6.2011C6.2396 6.12717 5.96914 5.73684 6.04307 5.32928Z" fill="black"/>
<path fill-rule="evenodd" clip-rule="evenodd" d="M10.3615 8.62329C10.3615 8.20908 10.6972 7.87329 11.1115 7.87329H11.1215C11.5357 7.87329 11.8715 8.20908 11.8715 8.62329C11.8715 9.0375 11.5357 9.37329 11.1215 9.37329H11.1115C10.6972 9.37329 10.3615 9.0375 10.3615 8.62329Z" fill="black"/>
<path fill-rule="evenodd" clip-rule="evenodd" d="M17.0741 13.2847C17.0741 12.8705 17.4099 12.5347 17.8241 12.5347H17.8341C18.2483 12.5347 18.5841 12.8705 18.5841 13.2847C18.5841 13.6989 18.2483 14.0347 17.8341 14.0347H17.8241C17.4099 14.0347 17.0741 13.6989 17.0741 13.2847Z" fill="black"/>
<path fill-rule="evenodd" clip-rule="evenodd" d="M7.57739 11.6155C7.57739 11.2013 7.91318 10.8655 8.32739 10.8655H8.33739C8.75161 10.8655 9.08739 11.2013 9.08739 11.6155C9.08739 12.0297 8.75161 12.3655 8.33739 12.3655H8.32739C7.91318 12.3655 7.57739 12.0297 7.57739 11.6155Z" fill="black"/>
<path fill-rule="evenodd" clip-rule="evenodd" d="M12.6223 12.6236C12.925 12.7857 13.0789 13.1327 12.996 13.4659C12.9668 13.583 12.942 14.054 13.0592 14.657C13.1735 15.245 13.3963 15.8126 13.7365 16.1876C13.9015 16.3695 13.967 16.6206 13.9119 16.8599C13.8568 17.0992 13.688 17.2964 13.4601 17.3877C13.2678 17.4648 13.0978 17.5804 13.014 17.7167C12.9609 17.8028 12.8675 18.0097 13.0755 18.4874C13.1876 18.7449 13.1465 19.0436 12.9688 19.2612C12.7911 19.4788 12.5067 19.5788 12.232 19.5204C11.3307 19.3289 10.8987 19.4966 10.6598 19.6934C10.3828 19.9216 10.1758 20.339 10.0243 20.9997C9.96109 21.2752 9.7484 21.4918 9.4741 21.5599C9.1998 21.6281 8.91048 21.5362 8.72571 21.3223C8.29739 20.8265 7.92534 20.573 7.58688 20.5146C7.29292 20.4639 6.83677 20.5313 6.14926 21.1503C5.94048 21.3382 5.64418 21.3938 5.38152 21.2942C5.11885 21.1946 4.93387 20.9565 4.90222 20.6774C4.84353 20.1598 4.65914 20.0273 4.57018 19.9792C4.42938 19.9031 4.22437 19.888 4.0193 19.9174C3.77622 19.9522 3.53148 19.8659 3.3641 19.6862C3.19672 19.5065 3.1279 19.2563 3.17986 19.0163C3.287 18.5214 3.19614 17.9184 3.00115 17.3521C2.80119 16.7712 2.5441 16.3757 2.46032 16.2889C2.22188 16.0418 2.1817 15.6644 2.36277 15.3726C2.54384 15.0808 2.89991 14.9493 3.22716 15.0533L5.79128 15.8682L5.70078 15.5742C5.61004 15.2795 5.70897 14.9592 5.95012 14.767C6.19128 14.5748 6.52551 14.5498 6.79258 14.704L7.19071 14.9339C7.32109 14.8561 7.46342 14.791 7.62146 14.7475C7.78383 14.7027 7.94334 14.6858 8.09981 14.6878L8.32798 14.2926C8.47723 14.0341 8.76556 13.8887 9.06214 13.9224C9.35873 13.9561 9.60711 14.1624 9.69458 14.4478L9.81968 14.856L11.7141 12.7793C11.9455 12.5256 12.3196 12.4614 12.6223 12.6236ZM8.67077 16.2262C8.56016 16.2522 8.44268 16.2534 8.32673 16.226C8.10099 16.1726 8.03601 16.1891 8.0201 16.1935C7.99904 16.1993 7.93095 16.2227 7.75066 16.3867C7.69264 16.4395 7.62801 16.4818 7.55938 16.5133L7.64648 16.7962C7.7286 17.0629 7.65583 17.3532 7.45761 17.5496C7.25939 17.7461 6.9685 17.8162 6.70253 17.7317L4.47185 17.0228C4.60674 17.4514 4.71124 17.9454 4.7241 18.4559C4.90744 18.4949 5.09738 18.5591 5.28345 18.6597C5.59033 18.8255 5.84662 19.0679 6.03754 19.3867C6.63725 19.0547 7.23969 18.9326 7.8419 19.0365C8.25835 19.1083 8.62845 19.2816 8.9564 19.5073C9.13614 19.1448 9.37655 18.8071 9.70607 18.5357C10.1791 18.146 10.7616 17.9501 11.4469 17.9375C11.4528 17.5658 11.5536 17.2277 11.7365 16.9306C11.8473 16.7504 11.9797 16.5999 12.119 16.4744C11.8749 16.0259 11.7183 15.5458 11.6209 15.1072L10.0419 16.8381C9.86042 17.0371 9.58616 17.1235 9.32339 17.0644C9.06062 17.0054 8.84968 16.81 8.77076 16.5525L8.67077 16.2262Z" fill="black"/>
</svg>
