<svg width="24" height="24" viewBox="0 0 24 24" fill="none" xmlns="http://www.w3.org/2000/svg">
<path d="M12.5063 17.3892H11.5063C11.1663 17.3892 10.8563 17.2092 10.6863 16.9092C10.5163 16.6192 10.5163 16.2492 10.6863 15.9592L11.1863 15.1092C11.3563 14.8192 11.6663 14.6392 12.0063 14.6392C12.3463 14.6392 12.6564 14.8192 12.8264 15.1092L13.3264 15.9492C13.4964 16.2392 13.4964 16.6092 13.3264 16.8992C13.1564 17.1892 12.8463 17.3792 12.5063 17.3792V17.3892Z" fill="black"/>
<path d="M11.8963 21.7491C10.1563 21.7491 7.61628 20.7891 6.50628 19.1991C6.16628 18.7191 6.1163 18.1791 6.0863 17.7391C6.0663 17.5591 6.0563 17.3891 6.0263 17.2491C4.1963 15.5591 3.1463 13.0991 3.2063 10.6291C3.3163 6.08915 7.33626 2.24915 11.9863 2.24915L12.0063 2.99915V2.24915C16.7663 2.24915 20.7963 6.21915 20.7963 10.9191C20.7963 13.3491 19.7663 15.6591 17.9563 17.2991C17.9263 17.4291 17.9163 17.5891 17.9063 17.7491C17.8663 18.1891 17.8263 18.7291 17.4763 19.2091C16.3863 20.7691 13.7763 21.7991 11.9763 21.7491C11.9463 21.7491 11.9163 21.7491 11.8963 21.7491ZM11.9963 3.74915C8.12627 3.74915 4.78629 6.91915 4.69629 10.6691C4.63629 12.7691 5.55631 14.8591 7.15631 16.2591C7.23631 16.3291 7.30631 16.4191 7.34631 16.5191C7.50631 16.8891 7.53628 17.2691 7.56628 17.6091C7.59628 17.9091 7.61632 18.1791 7.72632 18.3391C8.49632 19.4491 10.5563 20.2491 11.9163 20.2491C11.9563 20.2491 11.9963 20.2491 12.0263 20.2491C13.3563 20.2491 15.4963 19.4091 16.2463 18.3391C16.3563 18.1791 16.3763 17.9091 16.4063 17.6091C16.4363 17.2991 16.4663 16.9391 16.5963 16.5991C16.6363 16.4891 16.7163 16.3791 16.8063 16.2991C18.3863 14.9391 19.2863 12.9791 19.2863 10.9091C19.2863 7.02915 15.9463 3.73915 11.9963 3.73915H11.9863L11.9963 3.74915Z" fill="black"/>
<path d="M14.8162 14.3491C13.8462 14.3491 12.9062 13.8491 12.3862 12.9491C12.2862 12.7791 12.2562 12.5691 12.3062 12.3791C12.3562 12.1891 12.4863 12.0191 12.6563 11.9191L16.1962 9.86913C16.3662 9.76913 16.5762 9.73913 16.7662 9.78913C16.9562 9.83913 17.1263 9.96913 17.2263 10.1391C17.9963 11.4691 17.5362 13.1891 16.2062 13.9591C15.7662 14.2091 15.2862 14.3291 14.8162 14.3291V14.3491ZM14.2763 12.7291C14.6463 12.8991 15.0863 12.8891 15.4663 12.6691C15.8463 12.4491 16.0662 12.0691 16.1062 11.6691L14.2763 12.7291Z" fill="black"/>
<path d="M9.18622 14.3492C8.71622 14.3492 8.2362 14.2292 7.7962 13.9792C6.4662 13.2092 6.00624 11.4992 6.77624 10.1592C6.87624 9.98915 7.0362 9.85915 7.2362 9.80915C7.4262 9.75915 7.63621 9.78915 7.80621 9.88915L11.3463 11.9392C11.5163 12.0392 11.6462 12.1992 11.6962 12.3992C11.7462 12.5992 11.7162 12.7992 11.6162 12.9692C11.0962 13.8692 10.1562 14.3692 9.18622 14.3692V14.3492ZM7.90625 11.6792C7.94625 12.0792 8.1662 12.4592 8.5462 12.6792C8.9262 12.8992 9.3662 12.8992 9.7362 12.7392L7.90625 11.6792Z" fill="black"/>
</svg>
