<svg width="24" height="24" viewBox="0 0 24 24" fill="none" xmlns="http://www.w3.org/2000/svg">
<path d="M5.86101 21.7495C5.05101 21.7495 4.601 21.4295 4.351 21.1295C3.781 20.4395 3.94102 19.4895 4.12102 18.9195C3.43102 17.7995 3.62101 16.3795 3.70101 15.9595L3.62102 15.8395C3.31102 15.2695 3.45101 14.5695 3.96101 14.1595L4.101 14.0495C3.281 13.3995 2.91101 12.7195 2.99101 12.0295C3.05101 11.4795 3.43101 11.1595 3.74101 10.8995C4.18101 10.5295 4.52101 10.2295 4.24101 9.09954C3.95101 7.91954 4.27102 6.56954 5.12102 5.40954C6.45102 3.58954 8.821 2.44954 11.601 2.27954C19.611 1.77954 20.711 7.88954 20.811 8.57954C21.231 11.4895 21.361 15.5095 17.731 16.7895C17.071 17.0795 15.401 17.8095 13.971 15.4095C13.841 15.1895 13.671 15.0095 13.441 14.8695C13.081 15.3295 13.041 16.0195 13.031 16.9495C13.031 17.2195 13.031 17.4895 13.011 17.7295C13.031 18.9595 12.231 20.9195 9.941 21.0195C8.761 21.0695 8.58099 21.1395 8.31099 21.2395C8.01099 21.3495 7.601 21.5095 6.411 21.6895C6.211 21.7195 6.03101 21.7295 5.86101 21.7295V21.7495ZM5.011 15.2595L5.05101 15.3195C5.20101 15.5895 5.251 15.9195 5.191 16.2395C5.091 16.8095 5.091 17.6595 5.441 18.1895C5.661 18.5195 5.72102 18.9395 5.59102 19.3095C5.43102 19.7695 5.45101 20.0995 5.52101 20.1695C5.55101 20.2095 5.73101 20.2895 6.20101 20.2195C7.241 20.0595 7.55101 19.9395 7.80101 19.8495C8.23101 19.6895 8.54102 19.5895 9.90102 19.5295C11.541 19.4595 11.541 17.7695 11.531 17.6995C11.551 17.4195 11.551 17.1795 11.551 16.9395C11.551 16.1895 11.561 15.2495 11.961 14.4395C10.991 14.3695 9.801 14.5695 8.661 14.9995C8.241 15.1595 7.76102 15.0595 7.43102 14.7595L6.84102 14.2095C6.54102 13.9295 6.52099 13.4495 6.81099 13.1495C7.09099 12.8495 7.57102 12.8395 7.87102 13.1195L8.31099 13.5395C9.85099 12.9895 12.001 12.6495 13.611 13.2795C14.341 13.5695 14.901 14.0295 15.271 14.6495C16.021 15.9195 16.551 15.6895 17.111 15.4395C17.131 15.4395 17.221 15.3895 17.241 15.3895C19.241 14.6795 19.891 12.6495 19.341 8.79954C19.211 7.88954 18.251 3.37954 11.711 3.77954C9.37101 3.91954 7.421 4.83954 6.351 6.29954C5.761 7.10954 5.53101 7.99954 5.71101 8.74954C6.22101 10.7895 5.251 11.6095 4.731 12.0595C4.641 12.1395 4.511 12.2495 4.481 12.2895C4.511 12.2895 4.59099 12.5795 5.28099 13.0595C5.60099 13.2795 5.79101 13.6395 5.80101 14.0295C5.81101 14.4095 5.65101 14.7595 5.36101 14.9995L5.03099 15.2695L5.011 15.2595Z" fill="black"/>
<path d="M8.95127 11.7396C7.99127 11.7396 7.59127 11.2196 7.45127 10.9596C7.17127 10.4396 7.27128 9.76957 7.68128 9.36957C7.61128 9.39957 7.63128 9.19957 7.58128 9.06957C7.41128 8.50957 7.48127 7.77957 7.98127 7.29957C8.25127 7.04957 8.85129 6.68957 9.87129 7.06957C10.8713 7.43957 11.5013 8.42957 11.4213 9.53957C11.3413 10.6096 10.6513 11.4496 9.64127 11.6596C9.38127 11.7196 9.15126 11.7396 8.94126 11.7396H8.95127ZM8.90128 10.2396C8.99128 10.2396 9.13128 10.2396 9.33128 10.1896C9.84128 10.0796 9.91127 9.57957 9.92127 9.42957C9.94127 9.07957 9.81127 8.64957 9.35127 8.47957C9.09127 8.38957 8.99128 8.40957 8.99128 8.40957C8.99128 8.40957 8.98127 8.50957 9.01127 8.60957C9.17127 9.05957 9.22128 9.73957 8.90128 10.2396Z" fill="black"/>
<path d="M13.961 11.5595C13.511 11.5595 13.051 11.4695 12.671 11.1495C12.221 10.7695 11.991 10.1695 11.981 9.30953C11.981 8.74953 11.781 8.26953 11.691 8.12953C11.431 7.85953 11.411 7.43953 11.641 7.14953C11.901 6.82953 12.371 6.76953 12.691 7.02953C13.101 7.35953 13.461 8.38953 13.471 9.29953C13.471 9.86953 13.611 9.99953 13.621 10.0095C13.651 10.0395 13.811 10.1195 14.441 10.0195C15.411 9.85953 16.441 9.93953 16.901 10.0195C17.311 10.0895 17.591 10.4695 17.521 10.8795C17.451 11.2895 17.071 11.5695 16.661 11.4995C16.391 11.4595 15.491 11.3695 14.681 11.4995C14.451 11.5395 14.201 11.5695 13.941 11.5695L13.961 11.5595Z" fill="black"/>
<path d="M5.97124 17.9495C5.42124 17.9495 4.93124 17.9195 4.56124 17.8695C4.15124 17.8195 3.86125 17.4395 3.91125 17.0295C3.96125 16.6195 4.33124 16.3295 4.75124 16.3795C5.85124 16.5195 7.99127 16.4895 9.34127 15.8395C9.72127 15.6595 10.1613 15.8195 10.3413 16.1895C10.5213 16.5595 10.3613 17.0095 9.99126 17.1895C8.77126 17.7795 7.21124 17.9495 5.97124 17.9495Z" fill="black"/>
</svg>
