<svg width="24" height="24" viewBox="0 0 24 24" fill="none" xmlns="http://www.w3.org/2000/svg">
<path fill-rule="evenodd" clip-rule="evenodd" d="M21 21.75C21.4142 21.75 21.75 21.4142 21.75 21V3.00011C21.75 2.5859 21.4142 2.25011 21 2.25011H3C2.58579 2.25011 2.25 2.5859 2.25 3.00011C2.25 3.41432 2.58579 3.75011 3 3.75011H20.25V21C20.25 21.4142 20.5858 21.75 21 21.75Z" fill="black"/>
<path fill-rule="evenodd" clip-rule="evenodd" d="M5.84711 18.1529C6.14 18.4458 6.61488 18.4458 6.90777 18.1529L21.5303 3.53033C21.8232 3.23744 21.8232 2.76256 21.5303 2.46967C21.2374 2.17678 20.7626 2.17678 20.4697 2.46967L5.84711 17.0922C5.55422 17.3851 5.55422 17.86 5.84711 18.1529Z" fill="black"/>
<path fill-rule="evenodd" clip-rule="evenodd" d="M5.00293 3C5.00293 2.58579 5.33872 2.25 5.75293 2.25C8.8847 2.25 10.9307 4.5084 11.7248 7.09072C12.2313 8.73794 12.264 10.6154 11.7189 12.2812C13.3847 11.7361 15.2622 11.7688 16.9094 12.2754C19.4917 13.0694 21.7501 15.1154 21.7501 18.2472C21.7501 18.6614 21.4143 18.9972 21.0001 18.9972C20.5859 18.9972 20.2501 18.6614 20.2501 18.2472C20.2501 15.9768 18.6394 14.3766 16.4685 13.7091C14.2792 13.0359 11.7636 13.3995 10.2403 14.8368C9.94139 15.1188 9.47191 15.1075 9.18692 14.8132C8.89264 14.5282 8.88133 14.0587 9.16331 13.7599C10.6006 12.2366 10.9642 9.72095 10.291 7.53159C9.6235 5.36072 8.02328 3.75 5.75293 3.75C5.33872 3.75 5.00293 3.41421 5.00293 3Z" fill="black"/>
<path fill-rule="evenodd" clip-rule="evenodd" d="M11.678 3C11.678 2.58579 12.0138 2.25 12.428 2.25C14.3772 2.25 15.6251 3.66144 16.0992 5.2033C16.3454 6.00406 16.4066 6.90548 16.2395 7.76043C17.0945 7.59331 17.9959 7.65452 18.7966 7.90075C20.3385 8.37485 21.7499 9.62271 21.7499 11.572C21.7499 11.9862 21.4142 12.322 20.9999 12.322C20.5857 12.322 20.2499 11.9862 20.2499 11.572C20.2499 10.4841 19.4862 9.68208 18.3558 9.3345C17.2069 8.98123 15.9253 9.18659 15.1761 9.89347C14.8785 10.1743 14.4117 10.1642 14.1264 9.87356C13.8357 9.58823 13.8257 9.12145 14.1065 8.82385C14.8133 8.07465 15.0187 6.79304 14.6654 5.64416C14.3179 4.51377 13.5158 3.75 12.428 3.75C12.0138 3.75 11.678 3.41421 11.678 3Z" fill="black"/>
</svg>
