<svg width="24" height="24" viewBox="0 0 24 24" fill="none" xmlns="http://www.w3.org/2000/svg">
<path fill-rule="evenodd" clip-rule="evenodd" d="M14.6259 12.7297C14.8725 12.397 15.3423 12.3271 15.675 12.5738L17.9751 14.2785C18.4531 14.6328 18.7183 15.2056 18.6793 15.7993L18.3929 20.152C18.3657 20.5653 18.0086 20.8784 17.5953 20.8512C17.182 20.824 16.869 20.4669 16.8962 20.0536L17.1825 15.7009C17.1881 15.616 17.1502 15.5342 17.0819 15.4836L14.7819 13.7789C14.4491 13.5322 14.3793 13.0625 14.6259 12.7297Z" fill="black"/>
<path fill-rule="evenodd" clip-rule="evenodd" d="M15.1149 11.5024C15.1149 11.0882 15.4507 10.7524 15.8649 10.7524H19.1221C19.7782 10.7524 20.3792 11.1194 20.6789 11.7031L21.667 13.6273C21.8562 13.9958 21.7108 14.4479 21.3424 14.6371C20.9739 14.8263 20.5218 14.681 20.3326 14.3125L19.3445 12.3882C19.3017 12.3049 19.2158 12.2524 19.1221 12.2524H15.8649C15.4507 12.2524 15.1149 11.9167 15.1149 11.5024Z" fill="black"/>
<path fill-rule="evenodd" clip-rule="evenodd" d="M4.82447 2.41721C5.2383 2.43506 5.5593 2.785 5.54146 3.19883L5.39196 6.66602C5.38851 6.74611 5.42367 6.82299 5.4865 6.87276L8.55056 9.2997C8.87526 9.55688 8.92999 10.0286 8.67281 10.3533C8.41562 10.678 7.94391 10.7327 7.61921 10.4755L4.55516 8.0486C4.1153 7.7002 3.86918 7.16201 3.89335 6.6014L4.04285 3.13421C4.0607 2.72038 4.41064 2.39937 4.82447 2.41721Z" fill="black"/>
<path fill-rule="evenodd" clip-rule="evenodd" d="M15.4903 2.40085C15.8906 2.29443 16.3014 2.53268 16.4078 2.93299L16.9192 4.85676C17.0898 5.49846 16.8826 6.18142 16.3841 6.62008L15.2526 7.61588C14.9416 7.88952 14.4677 7.85929 14.1941 7.54834C13.9204 7.23739 13.9507 6.76348 14.2616 6.48983L15.3931 5.49403C15.4643 5.43137 15.494 5.3338 15.4696 5.24213L14.9582 3.31836C14.8518 2.91805 15.09 2.50726 15.4903 2.40085Z" fill="black"/>
<path fill-rule="evenodd" clip-rule="evenodd" d="M8.54496 2.40085C8.14465 2.29443 7.73387 2.53268 7.62745 2.93299L7.11604 4.85676C6.94546 5.49846 7.15272 6.18142 7.65117 6.62008L8.7827 7.61588C9.09365 7.88952 9.56756 7.85929 9.84121 7.54834C10.1149 7.23739 10.0846 6.76348 9.77367 6.48983L8.64214 5.49403C8.57094 5.43137 8.54133 5.3338 8.5657 5.24213L9.0771 3.31836C9.18352 2.91805 8.94527 2.50726 8.54496 2.40085Z" fill="black"/>
<path fill-rule="evenodd" clip-rule="evenodd" d="M12.0536 14.6675C11.0395 14.6675 10.2174 15.4896 10.2174 16.5037C10.2174 17.5177 11.0395 18.3398 12.0536 18.3398C13.0677 18.3398 13.8897 17.5177 13.8897 16.5037C13.8897 15.4896 13.0677 14.6675 12.0536 14.6675ZM8.71741 16.5037C8.71741 14.6611 10.2111 13.1675 12.0536 13.1675C13.8961 13.1675 15.3897 14.6611 15.3897 16.5037C15.3897 18.3462 13.8961 19.8398 12.0536 19.8398C10.2111 19.8398 8.71741 18.3462 8.71741 16.5037Z" fill="black"/>
<path fill-rule="evenodd" clip-rule="evenodd" d="M12.012 6.4939C10.3791 6.4939 8.83484 8.13325 8.83484 10.4533C8.83484 12.0316 9.57392 13.3419 10.5703 13.9793C10.9192 14.2026 11.0211 14.6664 10.7979 15.0153C10.5747 15.3642 10.1109 15.4661 9.76196 15.2429C8.28146 14.2957 7.33484 12.4766 7.33484 10.4533C7.33484 7.57148 9.30709 4.9939 12.012 4.9939C14.717 4.9939 16.6892 7.57148 16.6892 10.4533C16.6892 12.4766 15.7426 14.2957 14.2621 15.2429C13.9132 15.4661 13.4494 15.3642 13.2261 15.0153C13.0029 14.6664 13.1048 14.2026 13.4537 13.9793C14.4501 13.3419 15.1892 12.0316 15.1892 10.4533C15.1892 8.13325 13.6449 6.4939 12.012 6.4939Z" fill="black"/>
<path fill-rule="evenodd" clip-rule="evenodd" d="M19.1997 2.41721C19.6135 2.39937 19.9634 2.72038 19.9813 3.13421L20.1308 6.6014C20.1549 7.16201 19.9088 7.7002 19.469 8.0486L16.4049 10.4755C16.0802 10.7327 15.6085 10.678 15.3513 10.3533C15.0941 10.0286 15.1489 9.55688 15.4736 9.2997L18.5376 6.87276C18.6005 6.82299 18.6356 6.74611 18.6322 6.66602L18.4827 3.19883C18.4648 2.785 18.7858 2.43506 19.1997 2.41721Z" fill="black"/>
<path fill-rule="evenodd" clip-rule="evenodd" d="M9.37393 12.7297C9.62057 13.0625 9.55075 13.5322 9.21797 13.7789L6.91792 15.4836L6.47133 14.8811L6.91792 15.4836C6.84964 15.5342 6.81174 15.616 6.81732 15.7009L7.10366 20.0536C7.13085 20.4669 6.81783 20.824 6.40451 20.8512C5.99119 20.8784 5.63408 20.5653 5.60689 20.152L5.32056 15.7993C5.2815 15.2056 5.54675 14.6328 6.02474 14.2785L8.3248 12.5738C8.65757 12.3271 9.12729 12.397 9.37393 12.7297Z" fill="black"/>
<path fill-rule="evenodd" clip-rule="evenodd" d="M4.8776 12.2524C4.78387 12.2524 4.69802 12.3049 4.6552 12.3882L3.99822 12.0509L4.6552 12.3882L3.66709 14.3125C3.47788 14.681 3.02579 14.8263 2.65732 14.6371C2.28885 14.4479 2.14352 13.9958 2.33273 13.6273L3.32084 11.7031C3.32084 11.7031 3.32084 11.7031 3.32084 11.7031C3.62054 11.1194 4.22151 10.7524 4.8776 10.7524H8.13483C8.54904 10.7524 8.88483 11.0882 8.88483 11.5024C8.88483 11.9167 8.54904 12.2524 8.13483 12.2524H4.8776Z" fill="black"/>
<path fill-rule="evenodd" clip-rule="evenodd" d="M10.6936 18.0037C11.0932 18.1127 11.3288 18.525 11.2198 18.9246C11.1837 19.057 11.1363 19.3339 11.1442 19.6529C11.152 19.9741 11.2144 20.277 11.3436 20.5083C11.5457 20.8699 11.4163 21.3268 11.0547 21.5288C10.6931 21.7309 10.2362 21.6016 10.0342 21.24C9.74506 20.7226 9.656 20.1538 9.64462 19.6897C9.63318 19.2233 9.69868 18.8011 9.77267 18.5299C9.88166 18.1303 10.294 17.8947 10.6936 18.0037Z" fill="black"/>
<path fill-rule="evenodd" clip-rule="evenodd" d="M13.3062 18.0037C12.9066 18.1127 12.671 18.525 12.78 18.9246C12.8161 19.057 12.8634 19.3339 12.8556 19.6529C12.8477 19.9741 12.7854 20.277 12.6561 20.5083C12.4541 20.8699 12.5834 21.3268 12.945 21.5288C13.3066 21.7309 13.7635 21.6016 13.9656 21.24C14.2547 20.7226 14.3438 20.1538 14.3551 19.6897C14.3666 19.2233 14.3011 18.8011 14.2271 18.5299C14.1181 18.1303 13.7058 17.8947 13.3062 18.0037Z" fill="black"/>
</svg>
