<svg width="24" height="24" viewBox="0 0 24 24" fill="none" xmlns="http://www.w3.org/2000/svg">
<path d="M16.8877 18.9756C14.1879 21.6754 9.81061 21.6754 7.1108 18.9756C4.41098 16.2758 4.41098 11.8985 7.1108 9.19869C9.81061 6.49887 14.1879 6.49887 16.8877 9.19869C19.5875 11.8985 19.5875 16.2758 16.8877 18.9756Z" stroke="black" stroke-width="1.5" stroke-linecap="round" stroke-linejoin="round"/>
<path opacity="0.4" d="M15.7881 8.27186C16.325 7.44805 17.3196 4.55697 14.7936 3.5811C13.0819 2.80337 10.9222 2.80924 9.20773 3.5811C6.68167 4.55697 7.6763 7.44805 8.21318 8.27186" stroke="black" stroke-width="1.5" stroke-linecap="round" stroke-linejoin="round"/>
<path opacity="0.4" d="M9.79861 16.5027V11.6865L8.79688 12.5457" stroke="black" stroke-width="1.5" stroke-linecap="round" stroke-linejoin="round"/>
<path opacity="0.4" fill-rule="evenodd" clip-rule="evenodd" d="M13.724 16.5937C12.9069 16.5937 12.2441 15.931 12.2441 15.1139V13.0745C12.2441 12.2565 12.9069 11.5938 13.724 11.5938C14.541 11.5938 15.2038 12.2565 15.2038 13.0745V15.1139C15.2038 15.931 14.541 16.5937 13.724 16.5937Z" stroke="black" stroke-width="1.5" stroke-linecap="round" stroke-linejoin="round"/>
</svg>