<svg width="25" height="24" viewBox="0 0 25 24" fill="none" xmlns="http://www.w3.org/2000/svg">
<path d="M13.1925 13.3163C13.2125 13.3173 13.2335 13.3183 13.2535 13.3183C13.5075 13.3183 13.7475 13.1893 13.8855 12.9723L14.6845 11.7223H15.3355C15.7495 11.7223 16.0855 11.3863 16.0855 10.9723C16.0855 10.5583 15.7495 10.2223 15.3355 10.2223H14.2735C14.0175 10.2223 13.7795 10.3533 13.6415 10.5683L13.3845 10.9713L12.5735 9.08033C12.4635 8.82533 12.2215 8.65133 11.9445 8.62933C11.6645 8.60733 11.4015 8.73933 11.2515 8.97233L10.4535 10.2223H9.80151C9.38751 10.2223 9.05151 10.5583 9.05151 10.9723C9.05151 11.3863 9.38751 11.7223 9.80151 11.7223H10.8645C11.1205 11.7223 11.3585 11.5923 11.4975 11.3763L11.7535 10.9743L12.5645 12.8643C12.6735 13.1193 12.9155 13.2933 13.1925 13.3163Z" fill="black"/>
<path d="M6.68715 20.7335C6.91415 20.7945 7.14515 20.8245 7.37415 20.8245C7.83115 20.8245 8.28215 20.7055 8.68815 20.4695C9.94315 19.7435 10.3751 18.1305 9.65115 16.8745L8.06815 14.1305C7.71615 13.5215 7.14915 13.0855 6.47015 12.9035C5.79215 12.7215 5.08115 12.8145 4.47615 13.1645L4.24915 13.2935C3.37915 13.7955 2.95915 14.8445 3.25115 15.7855C3.61715 16.9715 4.24015 18.2305 5.10215 19.5275C5.45315 20.1255 6.01515 20.5535 6.68715 20.7335Z" fill="black"/>
<path d="M16.4569 20.4706C16.8629 20.7056 17.3139 20.8246 17.7709 20.8246C17.9999 20.8246 18.2309 20.7946 18.4579 20.7336C19.1299 20.5536 19.6919 20.1266 20.0449 19.5276C20.9059 18.2306 21.5279 16.9706 21.8939 15.7856C22.1859 14.8436 21.7659 13.7956 20.8949 13.2936L20.6739 13.1666C19.4179 12.4416 17.8029 12.8736 17.0769 14.1316L15.4949 16.8736C14.7699 18.1296 15.2009 19.7426 16.4569 20.4706Z" fill="black"/>
<path opacity="0.4" fill-rule="evenodd" clip-rule="evenodd" d="M20.7961 17.3188C20.6941 17.3188 20.5911 17.2978 20.4921 17.2538C20.1131 17.0858 19.9431 16.6428 20.1111 16.2638C20.5821 15.2068 20.8201 14.0828 20.8201 12.9208C20.8201 8.37381 17.1171 4.6748 12.5661 4.6748C8.01907 4.6748 4.32007 8.37381 4.32007 12.9208C4.32007 13.9358 4.50107 14.9228 4.85807 15.8518C5.00607 16.2388 4.81407 16.6728 4.42707 16.8208C4.04007 16.9678 3.60607 16.7768 3.45807 16.3898C3.03407 15.2878 2.82007 14.1208 2.82007 12.9208C2.82007 7.5468 7.19207 3.1748 12.5661 3.1748C17.9441 3.1748 22.3201 7.5468 22.3201 12.9208C22.3201 14.2938 22.0381 15.6238 21.4821 16.8738C21.3581 17.1528 21.0831 17.3188 20.7961 17.3188Z" fill="black"/>
</svg>