<svg width="25" height="24" viewBox="0 0 25 24" fill="none" xmlns="http://www.w3.org/2000/svg">
<path opacity="0.4" d="M21.9289 15.6594C21.9187 15.7018 21.9071 15.744 21.894 15.7861C21.528 16.9711 20.906 18.2311 20.045 19.5281C19.692 20.1271 19.13 20.5541 18.458 20.7341C18.231 20.7951 18 20.8251 17.771 20.8251C17.314 20.8251 16.863 20.7061 16.457 20.4711C15.201 19.7431 14.77 18.1301 15.495 16.8741L17.077 14.1321C17.803 12.8741 19.418 12.4421 20.674 13.1671L20.8138 13.2474C20.818 13.139 20.8201 13.0303 20.8201 12.9213C20.8201 8.37429 17.1171 4.67529 12.5671 4.67529C8.01907 4.67529 4.32007 8.37429 4.32007 12.9213C4.32007 13.0307 4.32217 13.1398 4.32637 13.2486L4.47234 13.1651C5.72934 12.4391 7.34234 12.8741 8.06834 14.1301L9.65034 16.8741C10.3753 18.1291 9.94434 19.7421 8.68834 20.4691C8.28234 20.7041 7.83134 20.8241 7.37434 20.8241C7.14534 20.8241 6.91534 20.7941 6.68834 20.7331C6.01634 20.5531 5.45334 20.1261 5.10134 19.5271C4.38427 18.4482 3.83327 17.3949 3.45758 16.389C3.0339 15.2874 2.82007 14.1208 2.82007 12.9213C2.82007 7.54729 7.19207 3.17529 12.5671 3.17529C17.9441 3.17529 22.3201 7.54729 22.3201 12.9213C22.3201 13.8579 22.1888 14.7745 21.9289 15.6594Z" fill="black"/>
<path d="M6.68465 20.7344C6.91165 20.7954 7.14265 20.8254 7.37065 20.8254C7.82765 20.8254 8.27965 20.7054 8.68465 20.4704C9.94165 19.7444 10.3727 18.1304 9.64665 16.8754L8.06465 14.1324C7.33865 12.8754 5.72465 12.4414 4.47165 13.1654L4.24565 13.2944C3.36265 13.8064 2.95265 14.8314 3.24765 15.7864C3.61365 16.9694 4.23565 18.2294 5.09865 19.5294C5.45065 20.1274 6.01265 20.5544 6.68465 20.7344Z" fill="black"/>
<path d="M16.4558 20.4714C16.8618 20.7054 17.3128 20.8254 17.7688 20.8254C17.9988 20.8254 18.2298 20.7944 18.4578 20.7334C19.1288 20.5534 19.6898 20.1264 20.0418 19.5284C20.9028 18.2324 21.5258 16.9724 21.8928 15.7864C22.1878 14.8304 21.7768 13.8064 20.8928 13.2944L20.6718 13.1674C19.4148 12.4434 17.8008 12.8754 17.0748 14.1314L15.4928 16.8744C14.7678 18.1304 15.1988 19.7444 16.4558 20.4714Z" fill="black"/>
</svg>