<svg width="25" height="24" viewBox="0 0 25 24" fill="none" xmlns="http://www.w3.org/2000/svg">
<path opacity="0.4" fill-rule="evenodd" clip-rule="evenodd" d="M17.1001 6.90842H9.86007L13.0791 3.69042C13.3721 3.39742 13.3721 2.92242 13.0791 2.62942C12.7861 2.33642 12.3121 2.33642 12.0191 2.62942L7.70907 6.93842C4.77607 7.09142 2.82007 9.21642 2.82007 12.3544V16.1434C2.82007 19.4014 4.91607 21.5904 8.03707 21.5904H17.0991C20.2221 21.5904 22.3201 19.4014 22.3201 16.1434V12.3544C22.3201 9.09742 20.2221 6.90842 17.1001 6.90842Z" fill="black"/>
<path fill-rule="evenodd" clip-rule="evenodd" d="M14.6979 18.1532C12.5459 18.1532 10.7939 16.4022 10.7939 14.2492C10.7939 12.0972 12.5459 10.3452 14.6979 10.3452C16.8499 10.3452 18.6019 12.0972 18.6019 14.2492C18.6019 16.4022 16.8499 18.1532 14.6979 18.1532ZM12.2939 14.2495C12.2939 12.9235 13.3719 11.8455 14.6979 11.8455C16.0239 11.8455 17.1019 12.9235 17.1019 14.2495C17.1019 15.5745 16.0239 16.6535 14.6979 16.6535C13.3719 16.6535 12.2939 15.5745 12.2939 14.2495Z" fill="black"/>
<path d="M8.77295 16.6842C8.73195 16.8892 8.63195 17.0732 8.48495 17.2192C8.34495 17.3602 8.15995 17.4592 7.95495 17.5002C7.88795 17.5132 7.81995 17.5202 7.75295 17.5202C7.61595 17.5202 7.48095 17.4922 7.35395 17.4402C7.17295 17.3672 7.00895 17.2362 6.89095 17.0622C6.77295 16.8822 6.71395 16.6842 6.71395 16.4802C6.71395 16.3412 6.74095 16.2052 6.79495 16.0772C6.84295 15.9582 6.91995 15.8422 7.01795 15.7442C7.11795 15.6442 7.23495 15.5682 7.36595 15.5152C7.47795 15.4662 7.62095 15.4402 7.76695 15.4402C7.96995 15.4442 8.16495 15.5052 8.33295 15.6172C8.50895 15.7362 8.63995 15.8992 8.71695 16.0902C8.79295 16.2732 8.81395 16.4812 8.77295 16.6842Z" fill="black"/>
<path d="M8.96695 12.8502H8.95695L7.45295 12.8292C7.03895 12.8232 6.70795 12.4832 6.71395 12.0692C6.71995 11.6552 7.04895 11.3182 7.47395 11.3292L8.97695 11.3502C9.39195 11.3562 9.72295 11.6962 9.71695 12.1112C9.71095 12.5212 9.37695 12.8502 8.96695 12.8502Z" fill="black"/>
</svg>