<svg width="25" height="24" viewBox="0 0 25 24" fill="none" xmlns="http://www.w3.org/2000/svg">
<path opacity="0.4" fill-rule="evenodd" clip-rule="evenodd" d="M12.5712 7.68311C9.46115 7.68311 6.93115 10.2121 6.93115 13.3201C6.93115 16.4281 9.46115 18.9581 12.5712 18.9581C15.6812 18.9581 18.2112 16.4281 18.2112 13.3201C18.2112 10.2121 15.6812 7.68311 12.5712 7.68311Z" fill="black"/>
<path fill-rule="evenodd" clip-rule="evenodd" d="M3.57007 12.3735C3.01807 12.3735 2.57007 12.8255 2.57007 13.3775C2.57007 13.9305 3.01807 14.3775 3.57007 14.3775C4.12207 14.3775 4.57007 13.9305 4.57007 13.3775V13.3695C4.57007 12.8165 4.12207 12.3735 3.57007 12.3735Z" fill="black"/>
<path fill-rule="evenodd" clip-rule="evenodd" d="M6.22778 7.99621C6.77978 7.99621 7.22778 7.54821 7.22778 6.99621V6.98721C7.22778 6.43421 6.77978 5.99121 6.22778 5.99121C5.67578 5.99121 5.22778 6.44421 5.22778 6.99621C5.22778 7.54821 5.67578 7.99621 6.22778 7.99621Z" fill="black"/>
<path fill-rule="evenodd" clip-rule="evenodd" d="M6.22778 18.6743C5.67578 18.6743 5.22778 19.1273 5.22778 19.6793C5.22778 20.2313 5.67578 20.6793 6.22778 20.6793C6.77978 20.6793 7.22778 20.2313 7.22778 19.6793V19.6703C7.22778 19.1173 6.77978 18.6743 6.22778 18.6743Z" fill="black"/>
<path fill-rule="evenodd" clip-rule="evenodd" d="M12.571 5.32431C13.123 5.32431 13.571 4.87631 13.571 4.32431V4.31531C13.571 3.76231 13.123 3.32031 12.571 3.32031C12.019 3.32031 11.571 3.77231 11.571 4.32431C11.571 4.87631 12.019 5.32431 12.571 5.32431Z" fill="black"/>
<path fill-rule="evenodd" clip-rule="evenodd" d="M18.9338 18.6743C18.3818 18.6743 17.9338 19.1273 17.9338 19.6793C17.9338 20.2313 18.3818 20.6793 18.9338 20.6793C19.4858 20.6793 19.9338 20.2313 19.9338 19.6793V19.6703C19.9338 19.1173 19.4858 18.6743 18.9338 18.6743Z" fill="black"/>
<path fill-rule="evenodd" clip-rule="evenodd" d="M18.9338 5.99121C18.3818 5.99121 17.9338 6.44421 17.9338 6.99621C17.9338 7.54821 18.3818 7.99621 18.9338 7.99621C19.4858 7.99621 19.9338 7.54821 19.9338 6.99621V6.98721C19.9338 6.43421 19.4858 5.99121 18.9338 5.99121Z" fill="black"/>
<path fill-rule="evenodd" clip-rule="evenodd" d="M21.5701 12.3735C21.0181 12.3735 20.5701 12.8255 20.5701 13.3775C20.5701 13.9305 21.0181 14.3775 21.5701 14.3775C22.1221 14.3775 22.5701 13.9305 22.5701 13.3775V13.3695C22.5701 12.8165 22.1221 12.3735 21.5701 12.3735Z" fill="black"/>
<path d="M13.8811 13.582L15.2811 11.928C15.5491 11.612 15.5101 11.138 15.1941 10.871C14.8771 10.602 14.4041 10.643 14.1361 10.958L12.7361 12.612C12.4681 12.928 12.5081 13.402 12.8231 13.669C12.9651 13.789 13.1371 13.847 13.3081 13.847C13.5211 13.847 13.7321 13.757 13.8811 13.582Z" fill="black"/>
</svg>