<svg width="24" height="24" viewBox="0 0 24 24" fill="none" xmlns="http://www.w3.org/2000/svg">
<path fill-rule="evenodd" clip-rule="evenodd" d="M5.85088 8.3987C5.85088 5.00265 8.60353 2.25 11.9996 2.25C15.3956 2.25 18.1483 5.00265 18.1483 8.3987C18.1483 9.74157 17.717 10.9858 16.9859 11.998C17.7179 13.01 18.1496 14.2546 18.1496 15.5987C18.1496 18.9974 15.397 21.75 11.9983 21.75C8.60102 21.75 5.84961 18.9961 5.84961 15.5987C5.84961 14.1904 6.99128 13.0487 8.39961 13.0487C9.04698 13.0487 9.63801 13.2899 10.0877 13.6874C9.69058 13.2378 9.44958 12.6471 9.44958 12C9.44958 11.3496 9.69306 10.7561 10.0938 10.3057C9.64354 10.7057 9.05058 10.9487 8.40088 10.9487C6.99255 10.9487 5.85088 9.80703 5.85088 8.3987ZM10.3066 10.093C10.7569 9.69298 11.3499 9.45001 11.9996 9.45001C12.5768 9.45001 13.0483 8.98029 13.0483 8.3987C13.0483 7.8193 12.579 7.35 11.9996 7.35C11.4202 7.35 10.9509 7.8193 10.9509 8.3987C10.9509 9.04907 10.7074 9.64257 10.3066 10.093ZM10.3115 13.9113C10.7086 14.3609 10.9496 14.9517 10.9496 15.5987C10.9496 16.1818 11.42 16.65 11.9983 16.65C12.5803 16.65 13.0496 16.1807 13.0496 15.5987C13.0496 15.0193 12.5816 14.55 11.9996 14.55C11.3522 14.55 10.7612 14.3088 10.3115 13.9113ZM11.9996 3.75C9.43195 3.75 7.35088 5.83107 7.35088 8.3987C7.35088 8.9786 7.82098 9.4487 8.40088 9.4487C8.98078 9.4487 9.45088 8.9786 9.45088 8.3987C9.45088 6.99087 10.5918 5.85 11.9996 5.85C13.4074 5.85 14.5483 6.99087 14.5483 8.3987C14.5483 9.80774 13.4062 10.95 11.9996 10.95C11.4197 10.95 10.9496 11.4201 10.9496 12C10.9496 12.5799 11.4197 13.05 11.9996 13.05C13.41 13.05 14.5496 14.1909 14.5496 15.5987C14.5496 17.0091 13.4087 18.15 11.9983 18.15C10.5911 18.15 9.44961 17.0097 9.44961 15.5987C9.44961 15.0188 8.97951 14.5487 8.39961 14.5487C7.81971 14.5487 7.34961 15.0188 7.34961 15.5987C7.34961 18.1685 9.43023 20.25 11.9983 20.25C14.5685 20.25 16.6496 18.1689 16.6496 15.5987C16.6496 14.4069 16.2025 13.3216 15.4656 12.4987C15.2107 12.2141 15.2105 11.7833 15.4652 11.4985C16.2016 10.6748 16.6483 9.58924 16.6483 8.3987C16.6483 5.83107 14.5672 3.75 11.9996 3.75Z" fill="black"/>
</svg>
