<svg width="24" height="24" viewBox="0 0 24 24" fill="none" xmlns="http://www.w3.org/2000/svg">
<path fill-rule="evenodd" clip-rule="evenodd" d="M9.25071 9.99928C9.25071 8.48077 10.4815 7.25 12 7.25C13.5185 7.25 14.7493 8.48077 14.7493 9.99928C14.7493 10.7867 14.4182 11.4975 13.8874 11.9992C14.4186 12.5005 14.75 13.2111 14.75 13.9993C14.75 15.5192 13.5192 16.75 11.9993 16.75C10.4804 16.75 9.25 15.5189 9.25 13.9993C9.25 13.5851 9.58579 13.2493 10 13.2493C10.4142 13.2493 10.75 13.5851 10.75 13.9993C10.75 14.6912 11.3096 15.25 11.9993 15.25C12.6908 15.25 13.25 14.6908 13.25 13.9993C13.25 13.3092 12.6915 12.75 12 12.75C11.5858 12.75 11.25 12.4142 11.25 12C11.25 11.5858 11.5858 11.25 12 11.25C12.6894 11.25 13.2493 10.6901 13.2493 9.99928C13.2493 9.3092 12.6901 8.75 12 8.75C11.3099 8.75 10.7507 9.3092 10.7507 9.99928C10.7507 10.4135 10.4149 10.7493 10.0007 10.7493C9.58649 10.7493 9.25071 10.4135 9.25071 9.99928Z" fill="black"/>
<path fill-rule="evenodd" clip-rule="evenodd" d="M12 3.75C7.44337 3.75 3.75 7.44337 3.75 12C3.75 16.5566 7.44337 20.25 12 20.25C16.5566 20.25 20.25 16.5566 20.25 12C20.25 7.44337 16.5566 3.75 12 3.75ZM2.25 12C2.25 6.61494 6.61494 2.25 12 2.25C17.3851 2.25 21.75 6.61494 21.75 12C21.75 17.3851 17.3851 21.75 12 21.75C6.61494 21.75 2.25 17.3851 2.25 12Z" fill="black"/>
</svg>
