<svg width="24" height="24" viewBox="0 0 24 24" fill="none" xmlns="http://www.w3.org/2000/svg">
<path d="M11.9998 13.5544C10.2598 13.5544 8.83984 12.1344 8.83984 10.3944C8.83984 8.65438 10.2598 7.23438 11.9998 7.23438C13.7398 7.23438 15.1598 8.65438 15.1598 10.3944C15.1598 12.1344 13.7398 13.5544 11.9998 13.5544ZM11.9998 8.74438C11.0898 8.74438 10.3398 9.48439 10.3398 10.4044C10.3398 11.3244 11.0798 12.0644 11.9998 12.0644C12.9198 12.0644 13.6598 11.3244 13.6598 10.4044C13.6598 9.48439 12.9198 8.74438 11.9998 8.74438Z" fill="black"/>
<path d="M11.5799 16.7477C11.3499 16.7477 11.1199 16.6378 10.9699 16.4378C10.7299 16.0978 10.7999 15.6378 11.1399 15.3878C11.1699 15.3678 13.8899 13.3477 13.6399 10.2477C13.6099 9.83775 13.9199 9.47775 14.3299 9.43775C14.7499 9.42775 15.0999 9.71775 15.1399 10.1278C15.4499 14.0878 12.1599 16.4978 12.0199 16.5978C11.8899 16.6978 11.7299 16.7377 11.5799 16.7377V16.7477Z" fill="black"/>
<path d="M12 21.75C6.62 21.75 2.25 17.38 2.25 12C2.25 6.62 6.62 2.25 12 2.25C17.38 2.25 21.75 6.62 21.75 12C21.75 17.38 17.38 21.75 12 21.75ZM12 3.75C7.45 3.75 3.75 7.45 3.75 12C3.75 16.55 7.45 20.25 12 20.25C16.55 20.25 20.25 16.55 20.25 12C20.25 7.45 16.55 3.75 12 3.75Z" fill="black"/>
</svg>
