<svg width="24" height="24" viewBox="0 0 24 24" fill="none" xmlns="http://www.w3.org/2000/svg">
<path fill-rule="evenodd" clip-rule="evenodd" d="M3.74079 3.89688C4.72556 2.84084 6.12779 2.25 7.78313 2.25H16.2178C17.8771 2.25 19.2795 2.84054 20.2634 3.89733C21.2416 4.94805 21.75 6.39856 21.75 8.02638V15.9736C21.75 17.601 21.2416 19.0515 20.2633 20.1023C19.2793 21.1592 17.8766 21.75 16.2169 21.75H7.78313C6.12379 21.75 4.72117 21.1592 3.73714 20.1024C2.75872 19.0516 2.25 17.6011 2.25 15.9736V8.02638C2.25 6.39751 2.76145 4.94712 3.74079 3.89688ZM4.83783 4.91987C4.16045 5.64629 3.75 6.70908 3.75 8.02638V15.9736C3.75 17.2913 4.15879 18.354 4.83492 19.0802C5.50542 19.8003 6.49437 20.25 7.78313 20.25H16.2169C17.5062 20.25 18.4951 19.8002 19.1654 19.0802C19.8414 18.3541 20.25 17.2914 20.25 15.9736V8.02638C20.25 6.70804 19.8414 5.64536 19.1655 4.91943C18.4953 4.19956 17.5067 3.75 16.2178 3.75H7.78313C6.49913 3.75 5.50979 4.19927 4.83783 4.91987Z" fill="black"/>
<path fill-rule="evenodd" clip-rule="evenodd" d="M14.3927 9.88672C14.8069 9.88672 15.1427 10.2225 15.1427 10.6367V12.8942C15.1427 15.0226 13.4173 16.7481 11.2888 16.7481H10.5596C10.1454 16.7481 9.80957 16.4123 9.80957 15.9981C9.80957 15.5839 10.1454 15.2481 10.5596 15.2481H11.2888C12.5889 15.2481 13.6427 14.1942 13.6427 12.8942V10.6367C13.6427 10.2225 13.9785 9.88672 14.3927 9.88672Z" fill="black"/>
<path fill-rule="evenodd" clip-rule="evenodd" d="M11.9992 8.75C11.0919 8.75 10.3564 9.48548 10.3564 10.3927C10.3564 11.3 11.0919 12.0355 11.9992 12.0355C12.9064 12.0355 13.6419 11.3 13.6419 10.3927C13.6419 9.48548 12.9064 8.75 11.9992 8.75ZM8.85645 10.3927C8.85645 8.65705 10.2635 7.25 11.9992 7.25C13.7349 7.25 15.1419 8.65705 15.1419 10.3927C15.1419 12.1284 13.7349 13.5355 11.9992 13.5355C10.2635 13.5355 8.85645 12.1284 8.85645 10.3927Z" fill="black"/>
</svg>
