<svg width="24" height="24" viewBox="0 0 24 24" fill="none" xmlns="http://www.w3.org/2000/svg">
<path fill-rule="evenodd" clip-rule="evenodd" d="M12.0003 8.75C11.3891 8.75 10.8936 9.24551 10.8936 9.85675C10.8936 10.468 11.3891 10.9635 12.0003 10.9635C12.6116 10.9635 13.1071 10.468 13.1071 9.85675C13.1071 9.24551 12.6116 8.75 12.0003 8.75ZM9.39355 9.85675C9.39355 8.41708 10.5606 7.25 12.0003 7.25C13.44 7.25 14.6071 8.41708 14.6071 9.85675C14.6071 11.2964 13.44 12.4635 12.0003 12.4635C10.5606 12.4635 9.39355 11.2964 9.39355 9.85675Z" fill="black"/>
<path fill-rule="evenodd" clip-rule="evenodd" d="M11.9997 12.4648C11.2302 12.4648 10.6064 13.0886 10.6064 13.8581C10.6064 14.6276 11.2302 15.2513 11.9997 15.2513C12.7692 15.2513 13.3929 14.6276 13.3929 13.8581C13.3929 13.0886 12.7692 12.4648 11.9997 12.4648ZM9.10645 13.8581C9.10645 12.2602 10.4018 10.9648 11.9997 10.9648C13.5976 10.9648 14.8929 12.2602 14.8929 13.8581C14.8929 15.456 13.5976 16.7513 11.9997 16.7513C10.4018 16.7513 9.10645 15.456 9.10645 13.8581Z" fill="black"/>
<path fill-rule="evenodd" clip-rule="evenodd" d="M12 3.75C7.44337 3.75 3.75 7.44337 3.75 12C3.75 16.5566 7.44337 20.25 12 20.25C16.5566 20.25 20.25 16.5566 20.25 12C20.25 7.44337 16.5566 3.75 12 3.75ZM2.25 12C2.25 6.61494 6.61494 2.25 12 2.25C17.3851 2.25 21.75 6.61494 21.75 12C21.75 17.3851 17.3851 21.75 12 21.75C6.61494 21.75 2.25 17.3851 2.25 12Z" fill="black"/>
</svg>
