<svg width="24" height="24" viewBox="0 0 24 24" fill="none" xmlns="http://www.w3.org/2000/svg">
<path fill-rule="evenodd" clip-rule="evenodd" d="M6.91409 5.65866C7.8517 3.9918 9.54845 2.25 12.0004 2.25C14.4523 2.25 16.1491 3.9918 17.0867 5.65866C18.0716 7.40965 18.6004 9.65685 18.6004 12C18.6004 14.3431 18.0716 16.5904 17.0867 18.3413C16.1491 20.0082 14.4523 21.75 12.0004 21.75C9.54845 21.75 7.8517 20.0082 6.91409 18.3413C5.92916 16.5904 5.40039 14.3431 5.40039 12C5.40039 9.65685 5.92916 7.40965 6.91409 5.65866ZM12.0004 3.75C10.3374 3.75 9.04194 4.93542 8.22145 6.39406C7.38482 7.88141 6.90039 9.86552 6.90039 12C6.90039 14.1345 7.38482 16.1186 8.22145 17.6059C9.04194 19.0646 10.3374 20.25 12.0004 20.25C13.6634 20.25 14.9588 19.0646 15.7793 17.6059C16.616 16.1186 17.1004 14.1345 17.1004 12C17.1004 9.86552 16.616 7.88141 15.7793 6.39406C14.9588 4.93542 13.6634 3.75 12.0004 3.75Z" fill="black"/>
<path fill-rule="evenodd" clip-rule="evenodd" d="M12 7.37708C11.8945 7.43967 11.6592 7.62639 11.3587 8.16056C10.8778 9.0156 10.5 10.3685 10.5 12.0016C10.5 13.6347 10.8778 14.9875 11.3587 15.8426C11.6592 16.3767 11.8945 16.5634 12 16.626C12.1055 16.5634 12.3408 16.3767 12.6413 15.8426C13.1222 14.9875 13.5 13.6347 13.5 12.0016C13.5 10.3685 13.1222 9.0156 12.6413 8.16056C12.3408 7.62639 12.1055 7.43967 12 7.37708ZM10.0514 7.42517C10.7066 6.26031 11.44 5.85156 12 5.85156C12.56 5.85156 13.2934 6.26031 13.9486 7.42517C14.5777 8.54357 15 10.1594 15 12.0016C15 13.8437 14.5777 15.4596 13.9486 16.578C13.2934 17.7428 12.56 18.1516 12 18.1516C11.44 18.1516 10.7066 17.7428 10.0514 16.578C9.42227 15.4596 9 13.8437 9 12.0016C9 10.1594 9.42227 8.54357 10.0514 7.42517Z" fill="black"/>
</svg>
