<svg width="24" height="24" viewBox="0 0 24 24" fill="none" xmlns="http://www.w3.org/2000/svg">
<path fill-rule="evenodd" clip-rule="evenodd" d="M12.0005 8.75C11.2307 8.75 10.6055 9.37528 10.6055 10.145C10.6055 10.5593 10.2697 10.895 9.85547 10.895C9.44126 10.895 9.10547 10.5593 9.10547 10.145C9.10547 8.54685 10.4023 7.25 12.0005 7.25C13.5987 7.25 14.8956 8.54685 14.8956 10.145C14.8956 10.9362 14.6784 11.5061 14.3685 12.0365C13.8964 12.8443 13.1297 13.6355 12.5082 14.2768C12.3577 14.4322 12.2156 14.5788 12.0883 14.7146L11.5869 15.25H14.1456C14.5598 15.25 14.8956 15.5858 14.8956 16C14.8956 16.4142 14.5598 16.75 14.1456 16.75H9.85695C9.55806 16.75 9.28771 16.5725 9.16883 16.2983C9.04994 16.0241 9.10523 15.7055 9.30954 15.4873L10.9935 13.6893C11.1614 13.5101 11.3323 13.3331 11.5019 13.1575C12.1109 12.5269 12.7028 11.914 13.0734 11.2798C13.2812 10.9241 13.3956 10.6132 13.3956 10.145C13.3956 9.37528 12.7703 8.75 12.0005 8.75Z" fill="black"/>
<path fill-rule="evenodd" clip-rule="evenodd" d="M3.74079 3.89688C4.72556 2.84084 6.12779 2.25 7.78313 2.25H16.2178C17.8771 2.25 19.2795 2.84054 20.2634 3.89733C21.2416 4.94805 21.75 6.39856 21.75 8.02638V15.9736C21.75 17.601 21.2416 19.0515 20.2633 20.1023C19.2793 21.1592 17.8766 21.75 16.2169 21.75H7.78313C6.12379 21.75 4.72117 21.1592 3.73714 20.1024C2.75872 19.0516 2.25 17.6011 2.25 15.9736V8.02638C2.25 6.39751 2.76145 4.94712 3.74079 3.89688ZM4.83783 4.91987C4.16045 5.64629 3.75 6.70908 3.75 8.02638V15.9736C3.75 17.2913 4.15879 18.354 4.83492 19.0802C5.50542 19.8003 6.49437 20.25 7.78313 20.25H16.2169C17.5062 20.25 18.4951 19.8002 19.1654 19.0802C19.8414 18.3541 20.25 17.2914 20.25 15.9736V8.02638C20.25 6.70804 19.8414 5.64536 19.1655 4.91943C18.4953 4.19956 17.5067 3.75 16.2178 3.75H7.78313C6.49913 3.75 5.50979 4.19927 4.83783 4.91987Z" fill="black"/>
</svg>
