<svg width="24" height="24" viewBox="0 0 24 24" fill="none" xmlns="http://www.w3.org/2000/svg">
<path fill-rule="evenodd" clip-rule="evenodd" d="M12.0001 19.25C14.1096 19.25 15.8215 17.5398 15.8215 15.4286C15.8215 13.3194 14.1093 11.6071 12.0001 11.6071H8.17868V15.4286C8.17868 17.5401 9.8886 19.25 12.0001 19.25ZM6.67868 15.4286C6.67868 18.3685 9.06018 20.75 12.0001 20.75C14.9375 20.75 17.3215 18.3687 17.3215 15.4286C17.3215 12.4909 14.9377 10.1071 12.0001 10.1071H8.17868V8.57143C8.17868 6.46197 9.88885 4.75 12.0001 4.75H15.2435C15.6577 4.75 15.9935 4.41421 15.9935 4C15.9935 3.58579 15.6577 3.25 15.2435 3.25H12.0001C9.05993 3.25 6.67868 5.63403 6.67868 8.57143V15.4286Z" fill="black"/>
</svg>
