<svg width="24" height="24" viewBox="0 0 24 24" fill="none" xmlns="http://www.w3.org/2000/svg">
<path fill-rule="evenodd" clip-rule="evenodd" d="M12 3.75C7.44337 3.75 3.75 7.44337 3.75 12C3.75 16.5566 7.44337 20.25 12 20.25C16.5566 20.25 20.25 16.5566 20.25 12C20.25 7.44337 16.5566 3.75 12 3.75ZM2.25 12C2.25 6.61494 6.61494 2.25 12 2.25C17.3851 2.25 21.75 6.61494 21.75 12C21.75 17.3851 17.3851 21.75 12 21.75C6.61494 21.75 2.25 17.3851 2.25 12Z" fill="black"/>
<path fill-rule="evenodd" clip-rule="evenodd" d="M10.0392 7.86324C10.105 7.5078 10.4151 7.24994 10.7766 7.24994H13.9105C14.3247 7.24994 14.6605 7.58573 14.6605 7.99994C14.6605 8.41415 14.3247 8.74994 13.9105 8.74994H11.4003L11.1065 10.3349C11.3626 10.2838 11.6164 10.2576 11.8503 10.2576C13.6508 10.2576 15.1249 11.703 15.1249 13.5038C15.1249 15.3046 13.6508 16.75 11.8503 16.75C10.6049 16.75 9.51927 16.06 8.96593 15.0418C8.76814 14.6779 8.90282 14.2225 9.26676 14.0247C9.6307 13.8269 10.0861 13.9616 10.2839 14.3255C10.5822 14.8745 11.1703 15.25 11.8503 15.25C12.8384 15.25 13.6249 14.4602 13.6249 13.5038C13.6249 12.5474 12.8384 11.7576 11.8503 11.7576C11.3967 11.7576 10.8453 11.9306 10.5759 12.1367C10.3294 12.3253 9.99231 12.3426 9.72785 12.1802C9.46338 12.0179 9.3262 11.7095 9.38275 11.4043L10.0392 7.86324Z" fill="black"/>
</svg>
