<svg width="24" height="24" viewBox="0 0 24 24" fill="none" xmlns="http://www.w3.org/2000/svg">
<path fill-rule="evenodd" clip-rule="evenodd" d="M11.0627 9.53927C10.7296 10.1314 10.5 10.9998 10.5 12C10.5 13.0002 10.7296 13.8686 11.0627 14.4607C11.409 15.0763 11.77 15.25 12 15.25C12.23 15.25 12.591 15.0763 12.9373 14.4607C13.2704 13.8686 13.5 13.0002 13.5 12C13.5 10.9998 13.2704 10.1314 12.9373 9.53927C12.591 8.92366 12.23 8.75 12 8.75C11.77 8.75 11.409 8.92366 11.0627 9.53927ZM9.75533 8.80388C10.2234 7.97177 10.9874 7.25 12 7.25C13.0126 7.25 13.7766 7.97177 14.2447 8.80388C14.726 9.65949 15 10.791 15 12C15 13.209 14.726 14.3405 14.2447 15.1961C13.7766 16.0282 13.0126 16.75 12 16.75C10.9874 16.75 10.2234 16.0282 9.75533 15.1961C9.27404 14.3405 9 13.209 9 12C9 10.791 9.27404 9.65949 9.75533 8.80388Z" fill="black"/>
<path fill-rule="evenodd" clip-rule="evenodd" d="M3.74079 3.89688C4.72556 2.84084 6.12779 2.25 7.78313 2.25H16.2178C17.8771 2.25 19.2795 2.84054 20.2634 3.89733C21.2416 4.94805 21.75 6.39856 21.75 8.02638V15.9736C21.75 17.601 21.2416 19.0515 20.2633 20.1023C19.2793 21.1592 17.8766 21.75 16.2169 21.75H7.78313C6.12379 21.75 4.72117 21.1592 3.73714 20.1024C2.75872 19.0516 2.25 17.6011 2.25 15.9736V8.02638C2.25 6.39751 2.76145 4.94712 3.74079 3.89688ZM4.83783 4.91987C4.16045 5.64629 3.75 6.70908 3.75 8.02638V15.9736C3.75 17.2913 4.15879 18.354 4.83492 19.0802C5.50542 19.8003 6.49437 20.25 7.78313 20.25H16.2169C17.5062 20.25 18.4951 19.8002 19.1654 19.0802C19.8414 18.3541 20.25 17.2914 20.25 15.9736V8.02638C20.25 6.70804 19.8414 5.64536 19.1655 4.91943C18.4953 4.19956 17.5067 3.75 16.2178 3.75H7.78313C6.49913 3.75 5.50979 4.19927 4.83783 4.91987Z" fill="black"/>
</svg>
