<svg width="24" height="24" viewBox="0 0 24 24" fill="none" xmlns="http://www.w3.org/2000/svg">
<path fill-rule="evenodd" clip-rule="evenodd" d="M9.4717 6.71084C8.73148 8.0268 8.25 9.89527 8.25 12C8.25 14.1047 8.73148 15.9732 9.4717 17.2892C10.2251 18.6286 11.1487 19.25 12 19.25C12.8513 19.25 13.7749 18.6286 14.5283 17.2892C15.2685 15.9732 15.75 14.1047 15.75 12C15.75 9.89527 15.2685 8.0268 14.5283 6.71084C13.7749 5.37138 12.8513 4.75 12 4.75C11.1487 4.75 10.2251 5.37138 9.4717 6.71084ZM8.16434 5.97545C9.03957 4.41948 10.3661 3.25 12 3.25C13.6339 3.25 14.9604 4.41948 15.8357 5.97545C16.7241 7.55492 17.25 9.68645 17.25 12C17.25 14.3136 16.7241 16.4451 15.8357 18.0246C14.9604 19.5805 13.6339 20.75 12 20.75C10.3661 20.75 9.03957 19.5805 8.16434 18.0246C7.27588 16.4451 6.75 14.3136 6.75 12C6.75 9.68645 7.27588 7.55492 8.16434 5.97545Z" fill="black"/>
</svg>
