<svg width="24" height="24" viewBox="0 0 24 24" fill="none" xmlns="http://www.w3.org/2000/svg">
<path fill-rule="evenodd" clip-rule="evenodd" d="M12.0004 15.25C12.8482 15.25 13.5361 14.5627 13.5361 13.7143C13.5361 12.8668 12.8479 12.1786 12.0004 12.1786H10.4647V13.7143C10.4647 14.5629 11.1518 15.25 12.0004 15.25ZM8.9647 13.7143C8.9647 15.3914 10.3233 16.75 12.0004 16.75C13.6761 16.75 15.0361 15.3916 15.0361 13.7143C15.0361 12.0384 13.6763 10.6786 12.0004 10.6786H10.4647V10.2857C10.4647 9.43797 11.152 8.75 12.0004 8.75H13.6221C14.0363 8.75 14.3721 8.41421 14.3721 8C14.3721 7.58579 14.0363 7.25 13.6221 7.25H12.0004C10.3231 7.25 8.9647 8.61003 8.9647 10.2857V13.7143Z" fill="black"/>
<path fill-rule="evenodd" clip-rule="evenodd" d="M12 3.75C7.44337 3.75 3.75 7.44337 3.75 12C3.75 16.5566 7.44337 20.25 12 20.25C16.5566 20.25 20.25 16.5566 20.25 12C20.25 7.44337 16.5566 3.75 12 3.75ZM2.25 12C2.25 6.61494 6.61494 2.25 12 2.25C17.3851 2.25 21.75 6.61494 21.75 12C21.75 17.3851 17.3851 21.75 12 21.75C6.61494 21.75 2.25 17.3851 2.25 12Z" fill="black"/>
</svg>
