<svg width="24" height="24" viewBox="0 0 24 24" fill="none" xmlns="http://www.w3.org/2000/svg">
<path fill-rule="evenodd" clip-rule="evenodd" d="M11.9996 4.75C10.3629 4.75 9.03613 6.07678 9.03613 7.71346C9.03613 9.35013 10.3629 10.6769 11.9996 10.6769C13.6363 10.6769 14.963 9.35013 14.963 7.71346C14.963 6.07678 13.6363 4.75 11.9996 4.75ZM7.53613 7.71346C7.53613 5.24836 9.53449 3.25 11.9996 3.25C14.4647 3.25 16.463 5.24836 16.463 7.71346C16.463 10.1786 14.4647 12.1769 11.9996 12.1769C9.53449 12.1769 7.53613 10.1786 7.53613 7.71346Z" fill="black"/>
<path fill-rule="evenodd" clip-rule="evenodd" d="M12.0003 12.1758C10.0472 12.1758 8.46387 13.7591 8.46387 15.7122C8.46387 17.6653 10.0472 19.2486 12.0003 19.2486C13.9534 19.2486 15.5367 17.6653 15.5367 15.7122C15.5367 13.7591 13.9534 12.1758 12.0003 12.1758ZM6.96387 15.7122C6.96387 12.9307 9.21875 10.6758 12.0003 10.6758C14.7818 10.6758 17.0367 12.9307 17.0367 15.7122C17.0367 18.4938 14.7818 20.7486 12.0003 20.7486C9.21875 20.7486 6.96387 18.4938 6.96387 15.7122Z" fill="black"/>
</svg>
