<svg width="24" height="24" viewBox="0 0 24 24" fill="none" xmlns="http://www.w3.org/2000/svg">
<path fill-rule="evenodd" clip-rule="evenodd" d="M7.21363 15.4725C6.79942 15.4725 6.46363 15.1367 6.46363 14.7225V10.2076C6.46363 6.36493 9.5787 3.24985 13.4213 3.24985H14.8799C15.2941 3.24985 15.6299 3.58564 15.6299 3.99985C15.6299 4.41407 15.2941 4.74985 14.8799 4.74985H13.4213C10.4071 4.74985 7.96363 7.19335 7.96363 10.2076V14.7225C7.96363 15.1367 7.62784 15.4725 7.21363 15.4725Z" fill="black"/>
<path fill-rule="evenodd" clip-rule="evenodd" d="M12.0007 19.2499C14.2294 19.2499 16.0361 17.4432 16.0361 15.2144C16.0361 12.9857 14.2294 11.179 12.0007 11.179C9.77198 11.179 7.96526 12.9857 7.96526 15.2144C7.96526 17.4432 9.77198 19.2499 12.0007 19.2499ZM17.5361 15.2144C17.5361 18.2716 15.0578 20.7499 12.0007 20.7499C8.94356 20.7499 6.46526 18.2716 6.46526 15.2144C6.46526 12.1573 8.94356 9.679 12.0007 9.679C15.0578 9.679 17.5361 12.1573 17.5361 15.2144Z" fill="black"/>
</svg>
