<svg width="24" height="24" viewBox="0 0 24 24" fill="none" xmlns="http://www.w3.org/2000/svg">
<path fill-rule="evenodd" clip-rule="evenodd" d="M12 3.75C7.44337 3.75 3.75 7.44337 3.75 12C3.75 16.5566 7.44337 20.25 12 20.25C16.5566 20.25 20.25 16.5566 20.25 12C20.25 7.44337 16.5566 3.75 12 3.75ZM2.25 12C2.25 6.61494 6.61494 2.25 12 2.25C17.3851 2.25 21.75 6.61494 21.75 12C21.75 17.3851 17.3851 21.75 12 21.75C6.61494 21.75 2.25 17.3851 2.25 12Z" fill="black"/>
<path fill-rule="evenodd" clip-rule="evenodd" d="M12.4518 7.27769C12.7758 7.36825 12.9999 7.66354 12.9999 8V16C12.9999 16.4142 12.6641 16.75 12.2499 16.75C11.8357 16.75 11.4999 16.4142 11.4999 16V10.0668C11.2417 10.2721 10.9555 10.459 10.6243 10.6499C10.2654 10.8566 9.80681 10.7333 9.60002 10.3744C9.39324 10.0155 9.51656 9.55693 9.87547 9.35015C10.3282 9.08929 10.6181 8.87441 10.8587 8.63124C11.1023 8.38514 11.3228 8.08246 11.6086 7.61114C11.783 7.32344 12.1277 7.18712 12.4518 7.27769Z" fill="black"/>
<path fill-rule="evenodd" clip-rule="evenodd" d="M10 16C10 15.5858 10.3358 15.25 10.75 15.25H13.75C14.1642 15.25 14.5 15.5858 14.5 16C14.5 16.4142 14.1642 16.75 13.75 16.75H10.75C10.3358 16.75 10 16.4142 10 16Z" fill="black"/>
</svg>
