<svg width="24" height="24" viewBox="0 0 24 24" fill="none" xmlns="http://www.w3.org/2000/svg">
<path d="M11.9907 14.37C8.92066 14.37 6.43066 11.88 6.43066 8.81C6.43066 5.74 8.93066 3.25 11.9907 3.25C15.0507 3.25 17.5507 5.74 17.5507 8.81C17.5507 11.88 15.0607 14.37 11.9907 14.37ZM11.9907 4.75C9.75066 4.75 7.93066 6.57 7.93066 8.81C7.93066 11.05 9.75066 12.87 11.9907 12.87C14.2307 12.87 16.0507 11.05 16.0507 8.81C16.0507 6.57 14.2307 4.75 11.9907 4.75Z" fill="black"/>
<path d="M11.1609 20.7484C10.9309 20.7484 10.701 20.6384 10.551 20.4384C10.311 20.0984 10.3809 19.6384 10.7209 19.3884C10.7809 19.3484 16.551 15.0784 16.031 8.43839C16.001 8.02839 16.3109 7.66838 16.7209 7.62838C17.1509 7.58838 17.491 7.90838 17.531 8.31838C18.111 15.8084 11.8609 20.4084 11.6009 20.5984C11.4709 20.6984 11.3109 20.7384 11.1609 20.7384V20.7484Z" fill="black"/>
</svg>
