<svg width="25" height="24" viewBox="0 0 25 24" fill="none" xmlns="http://www.w3.org/2000/svg">
<path d="M21.1669 9.58503C21.015 9.22621 20.7293 8.9406 20.3705 8.78865C20.0901 8.66992 19.7336 8.66992 19.0206 8.66992L18.746 8.66992C18.033 8.66992 17.6765 8.66992 17.3961 8.78865C17.0372 8.9406 16.7516 9.22621 16.5997 9.58503C16.481 9.86542 16.481 10.2219 16.481 10.9349L16.481 13.0661C16.481 13.7791 16.481 14.1356 16.5997 14.416C16.7516 14.7748 17.0372 15.0604 17.3961 15.2124C17.6765 15.3311 18.033 15.3311 18.746 15.3311H19.0206C19.7336 15.3311 20.0901 15.3311 20.3705 15.2124C20.7293 15.0604 21.015 14.7748 21.1669 14.416C21.2856 14.1356 21.2856 13.7791 21.2856 13.0661" stroke="black" stroke-width="1.5" stroke-linecap="round"/>
<path d="M3.33406 19.5762C3.48601 19.935 3.77162 20.2206 4.13044 20.3725C4.41083 20.4913 4.76733 20.4913 5.48033 20.4913H5.75501C6.468 20.4913 6.8245 20.4913 7.1049 20.3725C7.46372 20.2206 7.74933 19.935 7.90128 19.5762C8.02001 19.2958 8.02001 18.9393 8.02001 18.2263V16.0951C8.02001 15.3821 8.02001 15.0256 7.90128 14.7452C7.74933 14.3864 7.46372 14.1008 7.1049 13.9488C6.8245 13.8301 6.46801 13.8301 5.75501 13.8301L5.48033 13.8301C4.76733 13.8301 4.41084 13.8301 4.13044 13.9488C3.77162 14.1008 3.48601 14.3864 3.33406 14.7452C3.21533 15.0256 3.21533 15.3821 3.21533 16.0951" stroke="black" stroke-width="1.5" stroke-linecap="round"/>
<path d="M3.33406 9.25586C3.48601 9.61468 3.77162 9.90029 4.13044 10.0522C4.41083 10.171 4.76733 10.171 5.48033 10.171H5.75501C6.468 10.171 6.8245 10.171 7.1049 10.0522C7.46372 9.90029 7.74933 9.61468 7.90128 9.25586C8.02001 8.97546 8.02001 8.61896 8.02001 7.90597V5.77477C8.02001 5.06177 8.02001 4.70527 7.90128 4.42487C7.74933 4.06605 7.46372 3.78044 7.1049 3.6285C6.8245 3.50977 6.46801 3.50977 5.75501 3.50977L5.48033 3.50977C4.76733 3.50977 4.41084 3.50977 4.13044 3.6285C3.77162 3.78044 3.48601 4.06605 3.33406 4.42487C3.21533 4.70527 3.21533 5.06177 3.21533 5.77477" stroke="black" stroke-width="1.5" stroke-linecap="round"/>
<path d="M8.0127 6.84013L9.80212 6.83984C10.6577 6.83984 11.0855 6.83984 11.422 6.98232C11.8526 7.16465 12.1953 7.50739 12.3776 7.93797C12.5201 8.27445 12.5201 8.70225 12.5201 9.55784L12.5201 14.4417C12.5201 15.2973 12.5201 15.7251 12.3776 16.0615C12.1953 16.4921 11.8526 16.8349 11.422 17.0172C11.0855 17.1597 10.6577 17.1597 9.80212 17.1597L8.0127 17.16" stroke="black" stroke-width="1.5"/>
<path d="M16.4419 12L12.5571 12" stroke="black" stroke-width="1.5" stroke-linecap="round" stroke-linejoin="round"/>
</svg>