<svg width="25" height="24" viewBox="0 0 25 24" fill="none" xmlns="http://www.w3.org/2000/svg">
<path d="M21.25 12V8.02638C21.25 5.08119 19.415 3 16.4669 3H8.03216C5.09281 3 3.25 5.08119 3.25 8.02638V15.9736C3.25 18.9188 5.08405 21 8.03216 21H16.4659C19.415 21 21.25 18.9188 21.25 15.9736V15.6207" stroke="black" stroke-width="1.5" stroke-linecap="round" stroke-linejoin="round"/>
<path d="M14.8526 8.89648C15.7866 9.65638 16.386 10.8103 16.386 12.1112C16.386 14.3967 14.5354 16.2473 12.2499 16.2473C9.96534 16.2473 8.11377 14.3967 8.11377 12.1112C8.11377 10.8103 8.71312 9.65638 9.64815 8.89648" stroke="black" stroke-width="1.5" stroke-linecap="round" stroke-linejoin="round"/>
<path d="M12.2505 7.75195V11.3558" stroke="black" stroke-width="1.5" stroke-linecap="round" stroke-linejoin="round"/>
</svg>