<svg width="24" height="24" viewBox="0 0 24 24" fill="none" xmlns="http://www.w3.org/2000/svg">
<path d="M19.603 16.6819V7.3171C19.603 4.9323 17.67 3 15.286 3H8.317C5.934 3 4 4.9323 4 7.3171V16.6819C4 19.0667 5.934 21 8.317 21H15.286C17.67 21 19.603 19.0667 19.603 16.6819Z" stroke="black" stroke-width="1.5" stroke-linecap="round" stroke-linejoin="round"/>
<path d="M7.78809 8.16321H15.8151" stroke="black" stroke-width="1.5" stroke-linecap="round" stroke-linejoin="round"/>
<path d="M11.8028 16.2381V16.2861M11.9973 16.2484C11.9973 16.3565 11.9096 16.4441 11.8016 16.4441C11.6935 16.4441 11.606 16.3565 11.606 16.2484C11.606 16.1404 11.6935 16.0528 11.8016 16.0528C11.9096 16.0528 11.9973 16.1404 11.9973 16.2484Z" stroke="black" stroke-width="1.5" stroke-linecap="round" stroke-linejoin="round"/>
</svg>
