<svg width="24" height="25" viewBox="0 0 24 25" fill="none" xmlns="http://www.w3.org/2000/svg">
<path fill-rule="evenodd" clip-rule="evenodd" d="M8.61859 14.3115L7.22259 15.0105C7.11559 15.0645 7.00059 15.0895 6.88859 15.0895C6.61259 15.0895 6.34759 14.9385 6.21659 14.6755C6.03059 14.3055 6.18059 13.8545 6.55159 13.6685L7.94659 12.9695C8.31659 12.7855 8.76759 12.9355 8.95359 13.3045C9.13959 13.6745 8.98859 14.1255 8.61859 14.3115ZM11.2516 13.1331C11.2516 13.0405 11.1672 12.9925 11.0746 12.9925C10.7986 12.9925 10.5336 12.8395 10.4016 12.5765C10.2176 12.2055 10.3686 11.7545 10.7396 11.5705L11.0853 11.3983C11.1872 11.3476 11.2516 11.2436 11.2516 11.1298V3.26287C11.2516 3.04791 11.0313 2.90493 10.8565 3.0301C10.6809 3.15595 10.5258 3.31148 10.4016 3.4975L2.82559 14.8665C2.76927 14.9503 2.72074 15.0379 2.6797 15.1283C2.58014 15.3476 2.81654 15.5263 3.03224 15.4191L3.76559 15.0545C4.13959 14.8705 4.58759 15.0225 4.77159 15.3925C4.95659 15.7635 4.80559 16.2135 4.43359 16.3985L3.26755 16.9784C3.09535 17.0641 3.04723 17.2888 3.19519 17.4117C3.30779 17.5052 3.43155 17.5862 3.56459 17.6525L10.7086 21.2205C10.7645 21.2488 10.8215 21.2742 10.8792 21.2973C11.0626 21.3707 11.2516 21.2242 11.2516 21.0267V13.1331Z" fill="black"/>
<path opacity="0.4" fill-rule="evenodd" clip-rule="evenodd" d="M15.3814 14.3125L16.7774 15.0115C16.8844 15.0655 16.9994 15.0905 17.1114 15.0905C17.3874 15.0905 17.6524 14.9395 17.7834 14.6765C17.9694 14.3065 17.8194 13.8555 17.4484 13.6695L16.0534 12.9705C15.6834 12.7865 15.2324 12.9365 15.0464 13.3055C14.8604 13.6755 15.0114 14.1265 15.3814 14.3125ZM12.7484 13.134C12.7484 13.0414 12.8328 12.9935 12.9254 12.9935C13.2014 12.9935 13.4664 12.8405 13.5984 12.5775C13.7824 12.2065 13.6314 11.7555 13.2604 11.5715L12.9147 11.3993C12.8128 11.3485 12.7484 11.2445 12.7484 11.1307V3.26385C12.7484 3.04889 12.9687 2.90591 13.1435 3.03108C13.3192 3.15693 13.4742 3.31245 13.5984 3.49847L21.1744 14.8675C21.2307 14.9513 21.2793 15.0388 21.3203 15.1292C21.4199 15.3486 21.1835 15.5273 20.9678 15.4201L20.2344 15.0555C19.8604 14.8715 19.4124 15.0235 19.2284 15.3935C19.0434 15.7645 19.1944 16.2145 19.5664 16.3995L20.7325 16.9794C20.9047 17.065 20.9528 17.2898 20.8048 17.4127C20.6922 17.5062 20.5685 17.5872 20.4354 17.6535L13.2914 21.2215C13.2355 21.2498 13.1785 21.2752 13.1208 21.2983C12.9374 21.3717 12.7484 21.2252 12.7484 21.0276V13.134Z" fill="black"/>
</svg>