<svg width="24" height="24" viewBox="0 0 24 24" fill="none" xmlns="http://www.w3.org/2000/svg">
<path fill-rule="evenodd" clip-rule="evenodd" d="M16.4178 11.1403C16.1778 11.0103 15.8978 11.0003 15.6578 11.1203C15.3578 11.2603 14.9978 11.1903 14.7778 10.9403C14.5978 10.7403 14.3378 10.6403 14.0678 10.6703C13.5278 10.7403 13.2978 11.3003 13.3478 11.8003C13.4478 12.5703 14.1678 13.4203 14.6578 13.9103C15.2978 13.6403 16.2978 13.1203 16.6578 12.4503C16.8078 12.1703 16.8578 11.8503 16.7778 11.5803C16.7178 11.3903 16.5978 11.2403 16.4178 11.1403Z" fill="black"/>
<path fill-rule="evenodd" clip-rule="evenodd" d="M17.9778 13.1704C17.1578 14.6704 14.9678 15.4104 14.7178 15.4804C14.6478 15.5104 14.5678 15.5204 14.4878 15.5204C14.3178 15.5204 14.1478 15.4604 14.0078 15.3504C13.8178 15.1804 12.0678 13.7004 11.8578 11.9804C11.8478 11.8704 11.8378 11.7604 11.8378 11.6504C11.8378 10.3904 12.6878 9.34037 13.8878 9.19037C14.4578 9.12037 15.0378 9.27037 15.4978 9.59037C16.0578 9.47037 16.6378 9.55037 17.1378 9.83037C17.6578 10.1104 18.0478 10.5804 18.2178 11.1604C18.4078 11.8104 18.3178 12.5404 17.9778 13.1704ZM20.6078 6.18037C20.0778 5.50037 19.2878 5.07037 18.3378 4.95037L13.2478 4.30037C12.2878 4.18037 11.4178 4.39037 10.7378 4.92037C10.0178 5.48037 9.54783 6.36037 9.41783 7.40037L8.20783 16.8604C7.92783 18.9604 9.10783 20.5504 11.1278 20.8204L16.2178 21.4704C16.3978 21.4904 16.5678 21.5004 16.7378 21.5004C17.5278 21.5004 18.2378 21.2604 18.8178 20.7804C19.4878 20.2204 19.9178 19.3904 20.0478 18.3704L21.2578 8.91037C21.3978 7.87037 21.1578 6.90037 20.6078 6.18037Z" fill="black"/>
<path opacity="0.4" fill-rule="evenodd" clip-rule="evenodd" d="M6.71605 16.664L7.92705 7.20602C8.11205 5.76702 8.78305 4.53502 9.81705 3.73602C10.4541 3.24503 11.2124 2.94019 12.0294 2.83079C12.2536 2.80076 12.2952 2.53024 12.0698 2.51203C11.8099 2.49105 11.541 2.49719 11.265 2.53302L5.84105 3.22502C4.82505 3.35202 3.99105 3.80402 3.42905 4.53102C2.84405 5.28802 2.60005 6.30902 2.74305 7.40302L4.03305 17.515C4.17605 18.617 4.67205 19.545 5.42905 20.127C6.01805 20.58 6.73505 20.812 7.52705 20.812C7.53571 20.812 7.54438 20.812 7.55307 20.8119C7.7177 20.81 7.79395 20.6098 7.69273 20.4799C6.90871 19.4742 6.52499 18.1445 6.71605 16.664Z" fill="black"/>
</svg>
