<svg width="24" height="24" viewBox="0 0 24 24" fill="none" xmlns="http://www.w3.org/2000/svg">
<path fill-rule="evenodd" clip-rule="evenodd" d="M21.4222 3.67922C21.1292 3.38622 20.6542 3.38622 20.3612 3.67922L5.66116 18.3792C5.36816 18.6722 5.36816 19.1472 5.66116 19.4402C5.80816 19.5862 6.00016 19.6592 6.19216 19.6592C6.38316 19.6592 6.57516 19.5862 6.72216 19.4402L7.85616 18.3062C9.82716 19.6762 11.4922 20.5182 11.5682 20.5562C11.6382 20.5912 11.7152 20.6092 11.7922 20.6092C11.8632 20.6092 11.9352 20.5932 12.0022 20.5622C12.2922 20.4282 19.1202 17.2112 20.7732 12.0472C21.3772 9.93122 21.1062 7.71322 20.0862 6.07522L21.4222 4.74022C21.7152 4.44722 21.7152 3.97222 21.4222 3.67922Z" fill="black"/>
<path opacity="0.4" fill-rule="evenodd" clip-rule="evenodd" d="M16.6468 4.36091C16.7798 4.22691 16.8258 4.02891 16.7658 3.84991C16.7058 3.67091 16.5498 3.54091 16.3618 3.51391C15.5338 3.39691 14.7248 3.30891 14.0368 3.51191C13.1418 3.61191 12.3698 4.10791 11.6678 4.67691C11.0068 4.20791 10.2628 3.71391 9.3998 3.52091C8.4588 3.31291 7.4598 3.38691 6.5338 3.73491C2.8388 4.96591 1.6908 8.98691 2.7168 12.1679C3.0918 13.2909 3.7408 14.4209 4.7008 15.6219C4.7908 15.7329 4.9228 15.8009 5.0648 15.8079C5.0738 15.8089 5.0828 15.8089 5.0918 15.8089C5.2248 15.8089 5.3528 15.7569 5.4468 15.6609L16.6468 4.36091Z" fill="black"/>
</svg>
