<svg width="24" height="24" viewBox="0 0 24 24" fill="none" xmlns="http://www.w3.org/2000/svg">
<g opacity="0.4">
<path fill-rule="evenodd" clip-rule="evenodd" d="M21.7094 10.7428C21.6974 10.3768 21.6864 10.0168 21.6794 9.66678C21.6544 8.51178 20.6984 7.57178 19.5464 7.57178C18.3834 7.57178 17.4264 8.51878 17.4124 9.68478C17.4054 10.4608 17.3924 11.1348 17.3754 11.7188C16.5954 11.6728 15.8504 11.8498 15.1844 12.2638C13.8994 13.0608 13.2354 14.4938 13.0574 15.4758C12.8514 16.5938 12.8364 19.8638 12.8434 20.6788C12.8474 21.0908 13.1824 21.4218 13.5934 21.4218H13.6004C14.0144 21.4178 14.3474 21.0788 14.3434 20.6648C14.3294 19.1468 14.3894 16.5228 14.5324 15.7458C14.6664 15.0108 15.1644 14.0418 15.9764 13.5388C16.3824 13.2858 16.8304 13.1808 17.3115 13.2138C17.2865 13.6078 17.2594 13.8678 17.2344 13.9618C17.0234 14.6468 16.7864 15.1728 16.3124 15.5118C15.9754 15.7518 15.8964 16.2208 16.1374 16.5568C16.3774 16.8938 16.8454 16.9738 17.1834 16.7318C18.0514 16.1128 18.4214 15.2068 18.6684 14.4018C18.8404 13.8398 18.8964 11.5338 18.9124 9.70078C18.9164 9.35378 19.2004 9.07178 19.5464 9.07178C19.8884 9.07178 20.1724 9.35278 20.1794 9.69678C20.1864 10.0528 20.1974 10.4188 20.2104 10.7918C20.2714 12.6178 20.3334 14.5058 19.8174 16.0788C19.2864 17.7048 18.2214 19.0738 16.8184 19.9318C16.4654 20.1478 16.3554 20.6098 16.5704 20.9638C16.7124 21.1948 16.9584 21.3218 17.2114 21.3218C17.3444 21.3218 17.4804 21.2868 17.6024 21.2118C19.3084 20.1668 20.6025 18.5098 21.2435 16.5448C21.8415 14.7208 21.7714 12.6068 21.7094 10.7428Z" fill="black"/>
<path fill-rule="evenodd" clip-rule="evenodd" d="M8.81204 12.2638C8.14504 11.8518 7.40104 11.6748 6.62404 11.7198C6.60804 11.1458 6.59404 10.4768 6.58504 9.68475C6.57404 8.51975 5.61704 7.57275 4.45304 7.57275C3.29904 7.57275 2.34304 8.51275 2.32104 9.66775C2.31404 10.0158 2.30204 10.3728 2.29104 10.7378C2.22804 12.6038 2.15804 14.7188 2.75504 16.5448C3.39904 18.5118 4.69204 20.1688 6.39704 21.2118C6.51904 21.2868 6.65504 21.3228 6.78804 21.3228C7.04104 21.3228 7.28704 21.1958 7.42804 20.9638C7.64404 20.6108 7.53404 20.1488 7.18004 19.9328C5.77904 19.0758 4.71404 17.7058 4.18104 16.0778C3.66604 14.5038 3.72804 12.6148 3.79004 10.7868C3.80104 10.4158 3.81404 10.0518 3.82104 9.69775C3.82804 9.35275 4.11104 9.07275 4.45304 9.07275C4.79804 9.07275 5.08204 9.35375 5.08504 9.70075C5.12804 13.7428 5.28104 14.2398 5.33104 14.4038C5.59104 15.2488 5.95304 16.1178 6.81604 16.7328C7.15404 16.9748 7.62204 16.8948 7.86204 16.5578C8.10304 16.2208 8.02404 15.7518 7.68704 15.5118C7.21304 15.1738 6.97604 14.6478 6.76604 13.9668C6.74104 13.8718 6.71304 13.6188 6.68804 13.2158C7.16704 13.1838 7.61504 13.2868 8.02104 13.5378C8.83304 14.0418 9.33104 15.0108 9.46504 15.7488C9.62104 16.5908 9.66604 19.3678 9.65604 20.6658C9.65304 21.0798 9.98604 21.4188 10.4 21.4218H10.406C10.817 21.4218 11.153 21.0898 11.156 20.6778C11.163 19.8608 11.145 16.5818 10.941 15.4788C10.761 14.4938 10.097 13.0618 8.81204 12.2638Z" fill="black"/>
</g>
<path fill-rule="evenodd" clip-rule="evenodd" d="M15.7884 4.0182C15.4925 3.28775 14.922 2.75545 14.1828 2.51819C13.7791 2.38696 13.3416 2.35698 12.9179 2.42824C12.5299 2.49299 12.1783 2.72547 11.8828 2.94143C11.5978 2.73459 11.2376 2.4982 10.8478 2.43259C10.4276 2.36133 9.99088 2.39087 9.58372 2.51819C7.96292 3.04267 7.46364 4.81644 7.91686 6.2265C8.62254 8.49129 11.6621 9.9309 11.7912 9.9913C11.8203 10.0048 11.8516 10.0117 11.8833 10.0117C11.9141 10.0117 11.9458 10.0048 11.975 9.9913C12.1018 9.9322 15.0966 8.51736 15.8445 6.22954C15.8445 6.22911 15.8445 6.22867 15.8449 6.22867C16.0843 5.48301 16.0639 4.69781 15.7884 4.0182Z" fill="black"/>
</svg>
