<svg width="24" height="24" viewBox="0 0 24 24" fill="none" xmlns="http://www.w3.org/2000/svg">
<path opacity="0.4" fill-rule="evenodd" clip-rule="evenodd" d="M17.061 2.86182H6.939C4.492 2.86182 2.5 4.85482 2.5 7.30282V14.2128C2.5 16.6608 4.492 18.6528 6.939 18.6528H8.007C8.441 18.6528 8.87 18.8298 9.179 19.1348L10.601 20.5658L10.604 20.5688C10.989 20.9478 11.494 21.1378 11.999 21.1378C12.506 21.1378 13.013 20.9468 13.4 20.5658L14.818 19.1388C15.131 18.8298 15.56 18.6528 15.994 18.6528H17.061C19.509 18.6528 21.5 16.6608 21.5 14.2128V7.30282C21.5 4.85482 19.509 2.86182 17.061 2.86182Z" fill="black"/>
<path fill-rule="evenodd" clip-rule="evenodd" d="M15.7605 9.23624C15.4772 8.53706 14.9311 8.02755 14.2236 7.80045C13.8372 7.67484 13.4184 7.64614 13.0129 7.71435C12.6414 7.77633 12.305 7.99885 12.0221 8.20557C11.7493 8.00758 11.4045 7.78132 11.0314 7.71851C10.6292 7.6503 10.2112 7.67858 9.82144 7.80045C8.27003 8.30248 7.79213 10.0003 8.22594 11.35C8.90141 13.5178 11.8108 14.8958 11.9344 14.9536C11.9622 14.9665 11.9922 14.9731 12.0225 14.9731C12.0521 14.9731 12.0824 14.9665 12.1103 14.9536C12.2318 14.897 15.0983 13.5428 15.8141 11.3529C15.8141 11.3525 15.8141 11.3521 15.8146 11.3521C16.0437 10.6383 16.0242 9.88675 15.7605 9.23624Z" fill="black"/>
</svg>
