<svg width="24" height="24" viewBox="0 0 24 24" fill="none" xmlns="http://www.w3.org/2000/svg">
<path d="M15.5264 15.0545C14.2637 16.3171 12.2165 16.3171 10.9538 15.0545C9.69117 13.7918 9.69117 11.7446 10.9538 10.4819C12.2165 9.21924 14.2637 9.21924 15.5264 10.4819" stroke="black" stroke-width="1.5" stroke-linecap="round" stroke-linejoin="round"/>
<path d="M8.29921 8.49637V8.54438M8.48801 8.50669C8.48801 8.61475 8.40034 8.70234 8.29229 8.70234C8.18423 8.70234 8.09668 8.61475 8.09668 8.50669C8.09668 8.39863 8.18423 8.31104 8.29229 8.31104C8.40034 8.31104 8.48801 8.39863 8.48801 8.50669Z" stroke="black" stroke-width="1.5" stroke-linecap="round" stroke-linejoin="round"/>
<path d="M7.72259 3H16.1573C19.1054 3 20.9404 5.08119 20.9404 8.02638V15.9736C20.9404 18.9188 19.1054 21 16.1563 21H7.72259C4.77448 21 2.94043 18.9188 2.94043 15.9736V8.02638C2.94043 5.08119 4.78324 3 7.72259 3Z" stroke="black" stroke-width="1.5" stroke-linecap="round" stroke-linejoin="round"/>
</svg>
