<svg width="24" height="24" viewBox="0 0 24 24" fill="none" xmlns="http://www.w3.org/2000/svg">
<path d="M5.7436 5.99968V12.0224C4.53614 12.935 3.74316 14.3692 3.74316 15.9999C3.74316 18.7612 5.98197 21 8.74327 21C11.5046 21 13.7434 18.7612 13.7434 15.9999C13.7434 14.3692 12.9514 12.935 11.7439 12.0224V5.99968C11.7439 4.3427 10.4002 3 8.74327 3C7.0863 3 5.7436 4.3427 5.7436 5.99968Z" stroke="black" stroke-width="1.5" stroke-linecap="round" stroke-linejoin="round"/>
<path fill-rule="evenodd" clip-rule="evenodd" d="M10.2176 15.9998C10.2176 16.8132 9.55797 17.4729 8.74456 17.4729C7.93018 17.4729 7.27051 16.8132 7.27051 15.9998C7.27051 15.1864 7.92984 14.5266 8.74422 14.5266C9.55763 14.5266 10.2176 15.1864 10.2176 15.9998Z" stroke="black" stroke-width="1.5" stroke-linecap="round" stroke-linejoin="round"/>
<path d="M8.74316 6.72729V14.5266" stroke="black" stroke-width="1.5" stroke-linecap="round" stroke-linejoin="round"/>
<path d="M18.257 4.63707V10.0005M18.257 4.63707L20.2568 6.63788M18.257 4.63707L16.2568 6.63788" stroke="black" stroke-width="1.5" stroke-linecap="round" stroke-linejoin="round"/>
<path d="M18.257 19.3629V13.9995M18.257 19.3629L20.2568 17.3621M18.257 19.3629L16.2568 17.3621" stroke="black" stroke-width="1.5" stroke-linecap="round" stroke-linejoin="round"/>
</svg>
