<svg width="24" height="24" viewBox="0 0 24 24" fill="none" xmlns="http://www.w3.org/2000/svg">
<path fill-rule="evenodd" clip-rule="evenodd" d="M9.27946 10.7827C8.01892 10.7941 7 11.6406 7 13.0827C7 14.0157 7.55568 14.8189 8.35351 15.1795C8.68919 15.3157 9.02378 15.3681 9.27784 15.3681H14.7189C14.973 15.3681 15.3086 15.3184 15.6486 15.1822C16.4465 14.8216 17 14.0157 17 13.0827C17 11.6406 15.9816 10.7941 14.7211 10.7827C14.7211 9.8757 14.0092 8.06165 12 8.06165C9.99081 8.06165 9.27946 9.8757 9.27946 10.7827Z" stroke="black" stroke-width="1.5" stroke-linecap="round" stroke-linejoin="round"/>
<path d="M18.364 5.6361C21.8787 9.15082 21.8787 14.8493 18.364 18.364C14.8492 21.8787 9.15076 21.8787 5.63604 18.364C2.12132 14.8493 2.12132 9.15082 5.63604 5.6361C9.15076 2.12138 14.8492 2.12138 18.364 5.6361Z" stroke="black" stroke-width="1.5" stroke-linecap="round" stroke-linejoin="round"/>
</svg>
