<svg width="24" height="24" viewBox="0 0 24 24" fill="none" xmlns="http://www.w3.org/2000/svg">
<path fill-rule="evenodd" clip-rule="evenodd" d="M16.4528 13.2708C16.4762 13.2584 16.504 13.2798 16.4966 13.3057C15.9347 15.2716 14.1235 16.7105 11.9844 16.7105C9.38985 16.7105 7.29004 14.6057 7.29004 12.0161C7.29004 9.872 8.72393 8.06533 10.6904 7.50392C10.7157 7.49645 10.7371 7.52433 10.7247 7.54772C9.87611 9.14435 10.1294 11.179 11.4752 12.5253C12.8215 13.8711 14.8561 14.1244 16.4528 13.2708Z" stroke="black" stroke-width="1.34265" stroke-linecap="round" stroke-linejoin="round"/>
<path d="M12.0001 3V4.3719M12.0001 19.6281V21M21 12.0001H19.6281M4.3719 12.0001H3M18.3639 5.63582L17.3938 6.60589M6.60636 17.3938L5.6363 18.3639M18.3639 18.3639L17.3938 17.3938M6.60636 6.60636L5.6363 5.6363" stroke="black" stroke-width="1.5" stroke-linecap="round" stroke-linejoin="round"/>
</svg>
