<svg width="24" height="24" viewBox="0 0 24 24" fill="none" xmlns="http://www.w3.org/2000/svg">
<path d="M14.581 10.8516C14.581 10.8516 16.3234 8.09291 18.5681 7.66183C17.8369 12.1327 21.9873 15.5971 17.2594 19.3571C14.1295 21.8463 8.85494 21.4682 6.11705 18.486C3.43183 15.5611 4.76075 11.0674 6.11705 8.75966C6.87479 11.0321 8.54142 11.8997 8.54142 11.8997C8.71797 7.45532 10.6936 7.36515 10.6936 3C15.2032 4.62972 14.9644 9.0191 14.581 10.8516Z" stroke="black" stroke-width="1.5" stroke-linecap="round" stroke-linejoin="round"/>
<path d="M12.4729 16.3496C13.6083 16.0899 14.1267 14.3338 14.1267 14.3338C14.9395 14.8803 16.8294 18.2706 14.3758 20.222C12.0551 22.0676 8.3098 20.4393 8.76558 17.3394C9.05671 15.3592 10.1882 14.965 11.4083 12.8558C12.6487 14.3338 12.4729 16.3496 12.4729 16.3496Z" stroke="black" stroke-width="1.5" stroke-linecap="round" stroke-linejoin="round"/>
</svg>
