<svg width="24" height="24" viewBox="0 0 24 24" fill="none" xmlns="http://www.w3.org/2000/svg">
<path d="M18.6897 7.74781C17.3138 12.2729 23.3618 16.7768 15.2397 21C16.5334 17.4377 15.2397 16.1723 14.2881 15.0788C14.1517 16.3066 13.0565 17.864 12.526 17.9777C13.1513 15.4483 11.2187 13.5062 10.4513 13.6293C10.7923 15.8462 7.97859 18.063 9.96811 21C2.41952 18.916 4.19009 11.9607 6.00901 8.86589C5.87259 11.1396 7.25859 12.9756 7.97859 13.4872C7.63754 7.98494 12.0712 9.02514 10.67 3C15.2628 4.65978 15.3779 9.09592 14.9875 10.9622C15.5966 8.80224 17.7534 7.87608 18.6897 7.74781Z" stroke="black" stroke-width="1.5" stroke-linecap="round" stroke-linejoin="round"/>
</svg>
