<svg width="24" height="24" viewBox="0 0 24 24" fill="none" xmlns="http://www.w3.org/2000/svg">
<path d="M19.0428 7.05151C19.0428 7.05151 19.0078 6.08768 17.6738 5.07495" stroke="black" stroke-width="1.5" stroke-linecap="round" stroke-linejoin="round"/>
<path d="M4.79472 5.93467C4.79472 5.93467 4.83032 4.95197 6.19043 3.91943" stroke="black" stroke-width="1.5" stroke-linecap="round" stroke-linejoin="round"/>
<path d="M8.82227 15.9391C8.88677 16.8249 9.986 17.6207 10.809 16.7174C11.7636 15.3026 10.2168 13.9715 11.6445 11.7354C12.3369 14.1405 15.2984 14.0129 13.8148 17.2979C14.7136 17.4398 15.2984 17.07 15.2984 17.07" stroke="black" stroke-width="1.5" stroke-linecap="round" stroke-linejoin="round"/>
<path d="M15.179 10.2842C15.2392 7.26415 11.6736 8.25362 12.8556 3C9.38597 4.36296 10.4426 7.11751 9.2759 9.60232C8.82171 9.69516 7.85729 8.78235 8.10353 7.38975C6.49398 8.92254 6.66876 11.021 7.23347 13.3424C5.36748 12.9383 4.95025 11.204 4.95025 11.204C3.07865 16.6645 7.40776 20.8378 11.2062 20.9935C16.4667 21.2091 21.3512 16.0482 18.8049 11.204C18.8049 11.204 17.8207 13.5499 16.5621 13.4298C16.5621 13.4298 17.6018 10.1149 16.5128 8.59667C16.5128 8.59667 15.7371 10.235 15.179 10.2842Z" stroke="black" stroke-width="1.5" stroke-linecap="round" stroke-linejoin="round"/>
</svg>
