<svg width="24" height="24" viewBox="0 0 24 24" fill="none" xmlns="http://www.w3.org/2000/svg">
<path d="M10.7061 16.9375C11.4284 16.8323 12.1637 16.9385 12.893 16.9216C14.5847 16.8809 15.9104 15.4511 17.1983 14.4807C17.8562 13.9856 18.778 14.0511 19.3594 14.6355C20.0054 15.2834 20.0054 16.3352 19.3594 16.9831C17.9683 18.3792 16.7399 19.6751 14.8546 20.4084C12.2391 21.4254 9.81205 20.9313 7.16276 20.4084C6.13778 20.2049 5.19316 20.193 4.15527 20.193" stroke="black" stroke-width="1.5" stroke-linecap="round" stroke-linejoin="round"/>
<path d="M10.7041 16.8963H12.1319C13.1519 16.8963 13.9755 16.163 13.9755 15.143C13.9755 14.2956 13.402 13.6179 12.5804 13.4115C11.4046 13.1168 10.2308 12.8856 9.00338 12.9144C7.05759 12.962 5.69722 14.0456 4.15527 15.0785" stroke="black" stroke-width="1.5" stroke-linecap="round" stroke-linejoin="round"/>
<path d="M15.9251 11.6809C16.8199 10.2451 16.933 8.23473 15.6246 6.20096C15.3277 7.43309 14.2677 8.04565 14.2677 8.04565C13.2657 5.86337 12.9512 3 12.9512 3C10.8127 3.94967 10.2423 6.45018 10.4717 7.54711C9.61576 6.49458 8.80847 5.93876 8.25815 5.86337C8.25815 7.07723 7.33357 8.8368 7.74511 10.5726" stroke="black" stroke-width="1.5" stroke-linecap="round" stroke-linejoin="round"/>
<path d="M5.01367 8.03931C5.01367 8.97798 4.29871 10.3386 4.61695 11.6809" stroke="black" stroke-width="1.5" stroke-linecap="round" stroke-linejoin="round"/>
<path d="M19.1579 7.83203C20.0768 9.26046 19.9974 10.6725 19.3689 11.6809" stroke="black" stroke-width="1.5" stroke-linecap="round" stroke-linejoin="round"/>
</svg>
