<svg width="24" height="24" viewBox="0 0 24 24" fill="none" xmlns="http://www.w3.org/2000/svg">
<path d="M12.4805 3.29677L14.5362 7.40829C14.6272 7.59017 14.8131 7.70506 15.0164 7.70506H19.5164C19.9588 7.70506 20.2113 8.21013 19.9459 8.56405L17.6105 11.6779C17.4674 11.8688 17.4674 12.1312 17.6105 12.3221L19.9459 15.4359C20.2113 15.7899 19.9588 16.2949 19.5164 16.2949H15.0164C14.8131 16.2949 14.6272 16.4098 14.5362 16.5917L12.4805 20.7032C12.2826 21.0989 11.7179 21.0989 11.5201 20.7032L9.46432 16.5917C9.37338 16.4098 9.18748 16.2949 8.98413 16.2949H4.48413C4.04173 16.2949 3.7892 15.7899 4.05464 15.4359L6.39001 12.3221C6.53317 12.1312 6.53317 11.8688 6.39001 11.6779L4.05464 8.56405C3.7892 8.21013 4.04173 7.70506 4.48413 7.70506H8.98413C9.18748 7.70506 9.37338 7.59017 9.46432 7.40829L11.5201 3.29677C11.7179 2.90108 12.2826 2.90108 12.4805 3.29677Z" stroke="black" stroke-width="1.5" stroke-linecap="round" stroke-linejoin="round"/>
<path d="M12.0005 12L14.6848 7.70508M12.0005 12L9.31617 7.70508M12.0005 12H6.63184M12.0005 12L9.31617 16.2949M12.0005 12L14.6848 16.2949M12.0005 12H17.3692" stroke="black" stroke-width="1.5" stroke-linecap="round" stroke-linejoin="round"/>
</svg>
