<svg width="24" height="24" viewBox="0 0 24 24" fill="none" xmlns="http://www.w3.org/2000/svg">
<path d="M17.8764 12.7524L19.7368 13.1371L21.0001 11.7182L20.4031 9.91472L18.5427 9.53003L17.2793 10.9489L17.8764 12.7524Z" stroke="black" stroke-width="1.5" stroke-linecap="round" stroke-linejoin="round"/>
<path d="M10.4778 16.0497L12.2212 16.8045L13.7466 15.6722L13.5286 13.7849L11.7852 13.0301L10.2598 14.1625L10.4778 16.0497Z" stroke="black" stroke-width="1.5" stroke-linecap="round" stroke-linejoin="round"/>
<path d="M6.10716 12.772L4.24093 13.1274L3 11.6889L3.6253 9.89499L5.49152 9.53955L6.73245 10.978L6.10716 12.772Z" stroke="black" stroke-width="1.5" stroke-linecap="round" stroke-linejoin="round"/>
<path d="M17.4624 14.9174C16.1885 16.7589 16.2335 18.6654 16.326 19.4638" stroke="black" stroke-width="1.5" stroke-linecap="round" stroke-linejoin="round"/>
<path d="M13.3602 4.49023C11.5073 6.96992 11.9586 9.84213 11.9586 9.84213" stroke="black" stroke-width="1.5" stroke-linecap="round" stroke-linejoin="round"/>
<path d="M6.41895 15.4762C7.38031 16.9874 7.49687 18.5076 7.44199 19.462" stroke="black" stroke-width="1.5" stroke-linecap="round" stroke-linejoin="round"/>
<path d="M3.4209 19.5099H19.9498" stroke="black" stroke-width="1.5" stroke-linecap="round" stroke-linejoin="round"/>
</svg>
