<svg width="24" height="24" viewBox="0 0 24 24" fill="none" xmlns="http://www.w3.org/2000/svg">
<path fill-rule="evenodd" clip-rule="evenodd" d="M20.1202 15.2824V8.71759C20.1202 7.84773 19.6561 7.04306 18.903 6.60812L13.2168 3.3262C12.4637 2.89127 11.5354 2.89127 10.7823 3.3262L5.09613 6.60812C4.34303 7.04306 3.87891 7.84773 3.87891 8.71759V15.2824C3.87891 16.1523 4.34303 16.956 5.09613 17.3909L10.7823 20.6738C11.5354 21.1087 12.4637 21.1087 13.2168 20.6738L18.903 17.3909C19.6561 16.956 20.1202 16.1523 20.1202 15.2824Z" stroke="black" stroke-width="1.5" stroke-linecap="round" stroke-linejoin="round"/>
<path d="M8.29921 8.49637V8.54438M8.48801 8.50669C8.48801 8.61475 8.40034 8.70234 8.29229 8.70234C8.18423 8.70234 8.09668 8.61475 8.09668 8.50669C8.09668 8.39863 8.18423 8.31104 8.29229 8.31104C8.40034 8.31104 8.48801 8.39863 8.48801 8.50669Z" stroke="black" stroke-width="1.5" stroke-linecap="round" stroke-linejoin="round"/>
<path d="M10.4922 9.81567V16.118" stroke="black" stroke-width="1.5" stroke-linecap="round" stroke-linejoin="round"/>
<path d="M15.0388 9.81567L10.4991 13.5938" stroke="black" stroke-width="1.5" stroke-linecap="round" stroke-linejoin="round"/>
<path d="M15.0404 16.1178L11.876 12.512" stroke="black" stroke-width="1.5" stroke-linecap="round" stroke-linejoin="round"/>
</svg>
