<svg width="24" height="24" viewBox="0 0 24 24" fill="none" xmlns="http://www.w3.org/2000/svg">
<path fill-rule="evenodd" clip-rule="evenodd" d="M3.59839 14.6756C3.5546 14.6523 3.50498 14.6922 3.51763 14.7389C4.55093 18.3545 7.88046 21 11.8152 21C16.5847 21 20.4464 17.1285 20.4464 12.3677C20.4464 8.42524 17.8087 5.10447 14.1941 4.07215C14.1474 4.05853 14.1075 4.10912 14.1309 4.15193C15.6915 7.08837 15.2255 10.8295 12.7502 13.3037C10.2759 15.779 6.53483 16.2451 3.59839 14.6756Z" stroke="black" stroke-width="1.5" stroke-linecap="round" stroke-linejoin="round"/>
<path d="M6.74784 3.04529C6.27645 4.59411 5.06438 5.80624 3.51562 6.27765C5.06438 6.74907 6.27645 7.96119 6.74784 9.51002C7.21923 7.96119 8.43129 6.74907 9.98005 6.27765C8.43129 5.80624 7.21923 4.59411 6.74784 3.04529Z" stroke="black" stroke-width="1.5" stroke-linecap="round" stroke-linejoin="round"/>
</svg>
