<svg width="24" height="24" viewBox="0 0 24 24" fill="none" xmlns="http://www.w3.org/2000/svg">
<path d="M3.30695 14.3643C2.02047 9.56313 4.86971 4.62809 9.67091 3.34162C11.4195 2.87307 13.1859 2.95312 14.7873 3.47626" stroke="black" stroke-width="1.5" stroke-linecap="round" stroke-linejoin="round"/>
<path d="M16.9639 11.5569C17.1426 12.2236 16.7469 12.9088 16.0803 13.0875C15.4136 13.2661 14.7284 12.8705 14.5497 12.2038C14.3711 11.5371 14.7667 10.8519 15.4334 10.6733C16.1001 10.4946 16.7853 10.8903 16.9639 11.5569Z" stroke="black" stroke-width="1.5" stroke-linecap="round" stroke-linejoin="round"/>
<path d="M5.85018 5.44287C6.47602 5.5564 7.01188 6.01878 7.18743 6.67393C7.42999 7.57917 6.89278 8.50965 5.98754 8.75221C5.21744 8.95856 4.42909 8.60058 4.06152 7.93178" stroke="black" stroke-width="1.5" stroke-linecap="round" stroke-linejoin="round"/>
<path d="M10.7861 8.81042H10.7961" stroke="black" stroke-width="1.5" stroke-linecap="round" stroke-linejoin="round"/>
<path d="M14.5068 16.1902H14.5168" stroke="black" stroke-width="1.5" stroke-linecap="round" stroke-linejoin="round"/>
<path d="M7.23535 11.8805H7.24535" stroke="black" stroke-width="1.5" stroke-linecap="round" stroke-linejoin="round"/>
<path d="M8.60645 20.7283C10.2633 20.7283 11.6064 19.3851 11.6064 17.7283C11.6064 16.0714 10.2633 14.7283 8.60645 14.7283C7.24439 14.7283 6.0942 15.636 5.72809 16.8796C5.50051 16.7893 5.2525 16.7396 4.99283 16.7396C3.89129 16.7396 2.9984 17.6325 2.9984 18.734C2.9984 19.8354 3.89129 20.7283 4.99283 20.7283C6.42268 20.7283 7.07376 20.7283 8.60645 20.7283Z" stroke="black" stroke-width="1.5" stroke-linecap="round" stroke-linejoin="round"/>
<path d="M16.7697 7.56042C15.5194 7.56042 14.5059 6.54687 14.5059 5.29657C14.5059 4.04627 15.5194 3.03271 16.7697 3.03271C17.7975 3.03271 18.6655 3.71772 18.9418 4.65615C19.1135 4.58801 19.3007 4.55053 19.4966 4.55053C20.3279 4.55053 21.0016 5.22431 21.0016 6.05549C21.0016 6.88664 20.3279 7.56042 19.4966 7.56042C18.4176 7.56042 17.9263 7.56042 16.7697 7.56042Z" stroke="black" stroke-width="1.5" stroke-linecap="round" stroke-linejoin="round"/>
<path d="M14.3296 20.7283C19.1308 19.4418 21.98 14.5068 20.6936 9.70559C20.5046 9.00054 20.237 8.33758 19.9027 7.72363" stroke="black" stroke-width="1.5" stroke-linecap="round" stroke-linejoin="round"/>
</svg>
