<svg width="24" height="24" viewBox="0 0 24 24" fill="none" xmlns="http://www.w3.org/2000/svg">
<path d="M9.12363 19.7035C12.5641 20.9247 16.3532 19.8103 18.6136 17.0816C18.6452 17.0437 18.6142 16.9873 18.5658 16.9909C15.2597 17.2478 12.0335 15.3257 10.7657 12.0778C9.49902 8.82948 10.5712 5.23046 13.1694 3.17686C13.2075 3.14678 13.1921 3.08429 13.144 3.07813C9.43266 2.57283 5.69825 4.54803 4.12057 8.1443C2.84349 11.0554 3.30873 14.2953 5.06464 16.6903" stroke="black" stroke-width="1.5" stroke-linecap="round" stroke-linejoin="round"/>
<path d="M18.2935 8.08521C18.2935 8.08521 20.64 10.2478 20.6051 12.4188L20.6051 12.4213C20.6293 13.6571 19.4384 14.5571 18.2936 14.5425C17.1488 14.5571 15.9578 13.6571 15.982 12.4213L15.982 12.4188C15.9471 10.2478 18.2935 8.08521 18.2935 8.08521Z" stroke="black" stroke-width="1.5" stroke-linecap="round" stroke-linejoin="round"/>
<path d="M6.87363 14.5426C6.87363 14.5426 9.22013 16.7052 9.18513 18.8762L9.18519 18.8787C9.20934 20.1145 8.01845 21.0145 6.87364 20.9999C5.72883 21.0145 4.53792 20.1145 4.56207 18.8787L4.56212 18.8761C4.52713 16.7052 6.87363 14.5426 6.87363 14.5426Z" stroke="black" stroke-width="1.5" stroke-linecap="round" stroke-linejoin="round"/>
</svg>
