<svg width="24" height="24" viewBox="0 0 24 24" fill="none" xmlns="http://www.w3.org/2000/svg">
<path d="M12.5361 6.76768C12.7313 4.7565 14.3459 3.16535 16.3635 3C15.1222 6.35324 17.6058 8.81018 20.8856 7.51811C20.7276 9.49786 19.1889 11.0934 17.2306 11.3373" stroke="black" stroke-width="1.5" stroke-linecap="round" stroke-linejoin="round"/>
<path d="M16.7718 17.813C18.032 17.2435 18.9097 15.9748 18.9097 14.5011C18.9097 12.2231 17.3037 10.869 15.3092 10.8673C15.3092 9.4346 14.1856 6.56921 11.012 6.56921C7.83838 6.56921 6.71477 9.4346 6.71477 10.8673C4.72283 10.8852 3.11426 12.2231 3.11426 14.5011C3.11426 15.9748 3.99112 17.2435 5.2522 17.813" stroke="black" stroke-width="1.5" stroke-linecap="round" stroke-linejoin="round"/>
<path d="M10.3762 20.5556L10.8074 19.239M6.67383 20.9999L6.95217 19.9335M13.8078 20.9999L14.0861 19.9335M12.9844 18.0567L13.4087 16.6334M8.89461 18.0567L9.31895 16.6334" stroke="black" stroke-width="1.5" stroke-linecap="round" stroke-linejoin="round"/>
<path d="M5.84253 4.76548L5.81543 4.75806" stroke="black" stroke-width="1.5" stroke-linecap="round" stroke-linejoin="round"/>
</svg>
