<svg width="24" height="24" viewBox="0 0 24 24" fill="none" xmlns="http://www.w3.org/2000/svg">
<path d="M14.0127 17.6163C13.6049 18.6747 12.6532 19.3732 11.6032 19.5909C9.82596 19.9594 7.80773 18.6392 7.62328 16.4081C7.21097 11.3136 13.0829 8.23303 13.0829 8.23303C13.0829 8.23303 12.8434 10.6936 13.3633 13.165C13.671 14.6277 14.5964 16.1013 14.0127 17.6163Z" stroke="black" stroke-width="1.5" stroke-linecap="round" stroke-linejoin="round"/>
<path d="M5.46849 9.6496C4.61864 9.67545 3.85941 9.22089 3.40384 8.55867C2.63273 7.4378 2.95827 5.65965 4.44627 4.88374C7.84644 3.11821 11.6815 6.28003 11.6815 6.28003C11.6815 6.28003 9.91184 6.82971 8.35534 7.90718C7.43409 8.54491 6.68491 9.61261 5.46849 9.6496Z" stroke="black" stroke-width="1.5" stroke-linecap="round" stroke-linejoin="round"/>
<path d="M20.621 10.3951C21.0278 10.9156 21.0919 11.6002 20.8864 12.1899C20.5385 13.1881 19.2749 13.8014 18.1049 13.2257C15.4362 11.9068 15.6547 8.05103 15.6547 8.05103C15.6547 8.05103 16.8124 8.90714 18.2027 9.38715C19.0256 9.67125 20.0389 9.64995 20.621 10.3951Z" stroke="black" stroke-width="1.5" stroke-linecap="round" stroke-linejoin="round"/>
</svg>
