<svg width="24" height="24" viewBox="0 0 24 24" fill="none" xmlns="http://www.w3.org/2000/svg">
<path fill-rule="evenodd" clip-rule="evenodd" d="M18.1973 18.3626C18.2481 18.3644 18.2738 18.4266 18.2366 18.4624C15.4221 21.185 11.0402 21.8371 7.49227 19.7887C3.18897 17.3042 1.72175 11.8024 4.20149 7.50736C6.25469 3.95113 10.363 2.32766 14.1621 3.27955C14.2114 3.29148 14.2202 3.3582 14.1771 3.38508C11.8271 4.85412 10.379 7.4643 10.3778 10.2534C10.3775 10.9493 12.8916 11.7158 13.0799 12.4191C13.2955 13.2234 11.201 13.908 11.6228 14.5789C13.0479 16.8452 15.5233 18.2753 18.1973 18.3626Z" stroke="black" stroke-width="1.5" stroke-linecap="round" stroke-linejoin="round"/>
<path d="M20.6936 9.66969C21.9801 14.4709 19.1308 19.4059 14.3297 20.6924C9.52846 21.9789 4.59342 19.1296 3.30695 14.3284C2.02047 9.52724 4.86971 4.5922 9.67091 3.30573C14.4721 2.01925 19.4071 4.86849 20.6936 9.66969Z" stroke="black" stroke-width="1.5" stroke-linecap="round" stroke-linejoin="round"/>
<path d="M10.6891 18.213C11.0396 16.7823 12.0006 16.2382 12.7787 16.0848" stroke="black" stroke-width="1.5" stroke-linecap="round" stroke-linejoin="round"/>
<path d="M7.62305 10.3049C7.45397 9.48782 6.49095 9.39719 6.05469 9.97471" stroke="black" stroke-width="1.5" stroke-linecap="round" stroke-linejoin="round"/>
</svg>
