<svg width="24" height="24" viewBox="0 0 24 24" fill="none" xmlns="http://www.w3.org/2000/svg">
<path d="M14.1687 3.02107L12.0114 5.17837L9.83203 3" stroke="black" stroke-width="1.5" stroke-linecap="round" stroke-linejoin="round"/>
<path d="M14.1687 20.9803L12.0114 18.823L9.83203 21.0014" stroke="black" stroke-width="1.5" stroke-linecap="round" stroke-linejoin="round"/>
<path d="M20.8221 9.26485L17.8643 8.51607L18.6197 5.52954" stroke="black" stroke-width="1.5" stroke-linecap="round" stroke-linejoin="round"/>
<path d="M5.39885 18.4585L6.14668 15.5007L3.16016 14.7443" stroke="black" stroke-width="1.5" stroke-linecap="round" stroke-linejoin="round"/>
<path d="M18.6545 18.4017L17.8779 15.4506L20.8578 14.6674" stroke="black" stroke-width="1.5" stroke-linecap="round" stroke-linejoin="round"/>
<path d="M3.14258 9.35122L6.09367 8.57467L5.30946 5.59485" stroke="black" stroke-width="1.5" stroke-linecap="round" stroke-linejoin="round"/>
<path fill-rule="evenodd" clip-rule="evenodd" d="M14.906 11.9983C14.906 13.6031 13.6057 14.9034 12.0008 14.9034C10.396 14.9034 9.0957 13.6031 9.0957 11.9983C9.0957 10.3944 10.396 9.09314 12.0008 9.09314C13.6057 9.09314 14.906 10.3944 14.906 11.9983Z" stroke="black" stroke-width="1.5" stroke-linecap="round" stroke-linejoin="round"/>
</svg>
