<svg width="24" height="24" viewBox="0 0 24 24" fill="none" xmlns="http://www.w3.org/2000/svg">
<path d="M18.364 5.6361C21.8787 9.15082 21.8787 14.8493 18.364 18.364C14.8492 21.8787 9.15076 21.8787 5.63604 18.364C2.12132 14.8493 2.12132 9.15082 5.63604 5.6361C9.15076 2.12138 14.8492 2.12138 18.364 5.6361Z" stroke="black" stroke-width="1.5" stroke-linecap="round" stroke-linejoin="round"/>
<path d="M12 17.4892V17.5M12 6.5V6.51078M6.51078 12H6.5M17.5 12H17.4892M8.11836 15.8815L8.11074 15.8891M15.8889 8.11089L15.8813 8.11851M8.11833 8.11855L8.1107 8.11093M15.8889 15.8891L15.8813 15.8814" stroke="black" stroke-width="1.5" stroke-linecap="round" stroke-linejoin="round"/>
<path fill-rule="evenodd" clip-rule="evenodd" d="M12.0001 9.20312C13.5452 9.20312 14.7971 10.4557 14.7971 12.0001C14.7971 13.5452 13.5452 14.7978 12.0001 14.7978C10.455 14.7978 9.20312 13.5452 9.20312 12.0001C9.20312 10.4557 10.455 9.20312 12.0001 9.20312Z" stroke="black" stroke-width="1.5" stroke-linecap="round" stroke-linejoin="round"/>
</svg>
