<svg width="24" height="24" viewBox="0 0 24 24" fill="none" xmlns="http://www.w3.org/2000/svg">
<path d="M16.9043 4.45166L16.8988 4.4717M12.4707 5.0162L12.4795 5.03168M20.4157 7.20591L20.452 7.18518M21.0003 11.6407L20.9736 11.6333" stroke="black" stroke-width="1.5" stroke-linecap="round" stroke-linejoin="round"/>
<path d="M12.3936 8.28895C13.0013 7.28993 14.1005 6.62256 15.3555 6.62256C17.2687 6.62256 18.8191 8.17359 18.8191 10.0862C18.8191 11.2843 18.2111 12.3404 17.2867 12.9625" stroke="black" stroke-width="1.5" stroke-linecap="round" stroke-linejoin="round"/>
<path d="M18.2995 15.6087C18.2995 13.4383 16.7669 12.1644 14.8699 12.1473C14.8699 10.7823 13.7985 8.05225 10.7748 8.05225C9.27574 8.05225 8.25674 8.72324 7.61025 9.56625L7.28906 10.0289" stroke="black" stroke-width="1.5" stroke-linecap="round" stroke-linejoin="round"/>
<path d="M4.248 16.5928C3.51236 16.2603 3 15.5197 3 14.6595C3 13.3297 3.93949 12.5492 5.10177 12.5387C5.10177 11.7024 5.75767 10.0298 7.61024 10.0298C9.4628 10.0298 10.1192 11.7024 10.1192 12.5387" stroke="black" stroke-width="1.5" stroke-linecap="round" stroke-linejoin="round"/>
<path d="M9.21287 8.16681C9.21287 6.92022 8.20232 5.90967 6.95574 5.90967C5.78267 5.90967 4.81861 6.80454 4.70898 7.94888" stroke="black" stroke-width="1.5" stroke-linecap="round" stroke-linejoin="round"/>
<path d="M3 9.07118C3 8.41729 3.53008 7.88721 4.18397 7.88721C4.69339 7.88721 5.12766 8.20893 5.29469 8.66028" stroke="black" stroke-width="1.5" stroke-linecap="round" stroke-linejoin="round"/>
<path d="M7.54199 19.98V18.7255V14.9624M14.1273 19.98V18.7255V14.9624M10.8352 21.2341V19.9796V16.2169" stroke="black" stroke-width="1.5" stroke-linecap="round" stroke-linejoin="round"/>
</svg>
