<svg width="24" height="24" viewBox="0 0 24 24" fill="none" xmlns="http://www.w3.org/2000/svg">
<path d="M10.1017 8.4782C8.73509 9.21318 7.91378 10.6863 8.00579 12.2338" stroke="black" stroke-width="1.5" stroke-linecap="round" stroke-linejoin="round"/>
<path d="M11.9999 3C11.5424 5.46826 8.53085 6.44676 6.70987 4.71885C7.79051 6.98465 5.92927 9.54642 3.44043 9.21885C5.64649 10.4167 5.64649 13.5833 3.44043 14.7812" stroke="black" stroke-width="1.5" stroke-linecap="round" stroke-linejoin="round"/>
<path fill-rule="evenodd" clip-rule="evenodd" d="M14.3832 5.17717C13.3745 5.18616 12.5596 5.86393 12.5596 7.01714C12.5596 7.76403 13.0041 8.40639 13.6425 8.6947C13.9112 8.80372 14.1787 8.84531 14.3816 8.84531H18.7348C18.9382 8.84531 19.2063 8.80597 19.4783 8.69694C20.1173 8.40808 20.5596 7.76403 20.5596 7.01714C20.5596 5.86393 19.7452 5.18616 18.7365 5.17717C18.7365 4.45163 18.1672 3 16.5599 3C14.9525 3 14.3832 4.45163 14.3832 5.17717Z" stroke="black" stroke-width="1.5" stroke-linecap="round" stroke-linejoin="round"/>
<path fill-rule="evenodd" clip-rule="evenodd" d="M5.2641 17.3318C4.25532 17.3408 3.44043 18.0186 3.44043 19.1718C3.44043 19.9187 3.88497 20.5611 4.52339 20.8494C4.79203 20.9584 5.05954 21 5.26242 21H9.61563C9.81907 21 10.0871 20.9606 10.3592 20.8516C10.9981 20.5627 11.4404 19.9187 11.4404 19.1718C11.4404 18.0186 10.6261 17.3408 9.61732 17.3318C9.61732 16.6063 9.04802 15.1547 7.44071 15.1547C5.83341 15.1547 5.2641 16.6063 5.2641 17.3318Z" stroke="black" stroke-width="1.5" stroke-linecap="round" stroke-linejoin="round"/>
<path d="M13.1009 15.8455C14.9306 15.3217 16.0956 13.6058 15.9947 11.7825" stroke="black" stroke-width="1.5" stroke-linecap="round" stroke-linejoin="round"/>
<path d="M14.6602 18.4436C15.5626 18.3105 16.5298 18.5602 17.2897 19.2813C16.2091 17.0155 18.0703 14.4537 20.5591 14.7813C19.3493 14.1243 18.8029 12.8753 18.9201 11.6836" stroke="black" stroke-width="1.5" stroke-linecap="round" stroke-linejoin="round"/>
</svg>
