<svg width="24" height="24" viewBox="0 0 24 24" fill="none" xmlns="http://www.w3.org/2000/svg">
<path d="M16.9043 4.45142L16.8988 4.47146M12.4707 5.01596L12.4795 5.03143M20.4157 7.20566L20.452 7.18494M21.0003 11.6404L20.9736 11.6331" stroke="black" stroke-width="1.5" stroke-linecap="round" stroke-linejoin="round"/>
<path d="M12.3936 8.28895C13.0013 7.28993 14.1005 6.62256 15.3555 6.62256C17.2687 6.62256 18.8191 8.17359 18.8191 10.0862C18.8191 11.2843 18.2111 12.3404 17.2867 12.9625" stroke="black" stroke-width="1.5" stroke-linecap="round" stroke-linejoin="round"/>
<path d="M18.2995 15.6087C18.2995 13.4383 16.7669 12.1644 14.8699 12.1473C14.8699 10.7823 13.7985 8.05225 10.7748 8.05225C9.27574 8.05225 8.25674 8.72324 7.61025 9.56625L7.28906 10.0289" stroke="black" stroke-width="1.5" stroke-linecap="round" stroke-linejoin="round"/>
<path d="M4.248 16.593C3.51236 16.2606 3 15.5199 3 14.6597C3 13.33 3.93949 12.5495 5.10177 12.539C5.10177 11.7027 5.75767 10.03 7.61024 10.03C9.4628 10.03 10.1192 11.7027 10.1192 12.539" stroke="black" stroke-width="1.5" stroke-linecap="round" stroke-linejoin="round"/>
<path d="M9.21287 8.16681C9.21287 6.92022 8.20232 5.90967 6.95574 5.90967C5.78267 5.90967 4.81861 6.80454 4.70898 7.94888" stroke="black" stroke-width="1.5" stroke-linecap="round" stroke-linejoin="round"/>
<path d="M3 9.07093C3 8.41704 3.53008 7.88696 4.18397 7.88696C4.69339 7.88696 5.12766 8.20869 5.29469 8.66003" stroke="black" stroke-width="1.5" stroke-linecap="round" stroke-linejoin="round"/>
<path d="M7.54199 18.7255V19.98M7.54199 14.9624V16.2169M14.1273 18.7255V19.98M14.1273 14.9624V16.2169M10.8352 19.9796V21.2341M10.8352 16.2169V17.4714" stroke="black" stroke-width="1.5" stroke-linecap="round" stroke-linejoin="round"/>
</svg>
