<svg width="24" height="24" viewBox="0 0 24 24" fill="none" xmlns="http://www.w3.org/2000/svg">
<path d="M19.111 15.7244C20.2742 14.6253 21 13.0682 21 11.3416C21 8.01192 18.3008 5.31273 14.9711 5.31273C12.2339 5.31273 9.92246 7.13697 9.18671 9.6361C8.72938 9.45463 8.23096 9.35481 7.70912 9.35481C5.49545 9.35481 3.70108 11.1492 3.70108 13.3627C3.70108 15.5761 5.49545 17.3705 7.70912 17.3705C8.59809 17.3705 9.33726 17.3705 10.0254 17.3705" stroke="black" stroke-width="1.5" stroke-linecap="round" stroke-linejoin="round"/>
<path d="M13.8788 20.7298C11.7749 20.7298 10.0693 19.0243 10.0693 16.9204C10.0693 14.8165 11.7749 13.1109 13.8788 13.1109C15.6083 13.1109 17.0688 14.2636 17.5337 15.8427C17.8227 15.7281 18.1376 15.665 18.4674 15.665C19.8661 15.665 20.9999 16.7988 20.9999 18.1974C20.9999 19.596 19.8661 20.7298 18.4674 20.7298C16.6517 20.7298 15.825 20.7298 13.8788 20.7298Z" stroke="black" stroke-width="1.5" stroke-linecap="round" stroke-linejoin="round"/>
<path d="M6.99985 3.27026L7.00416 3.28878M11.0334 3.94366L11.0248 3.95749M3.69176 5.6639L3.65925 5.64366M3 9.6978L3.02469 9.69206" stroke="black" stroke-width="1.5" stroke-linecap="round" stroke-linejoin="round"/>
<path d="M10.9951 6.77883C10.4383 5.86802 9.43446 5.26001 8.28862 5.26001C6.53805 5.26001 5.11952 6.67916 5.11952 8.42911C5.11952 8.99065 5.26548 9.51809 5.52154 9.97552" stroke="black" stroke-width="1.5" stroke-linecap="round" stroke-linejoin="round"/>
</svg>
