<svg width="24" height="24" viewBox="0 0 24 24" fill="none" xmlns="http://www.w3.org/2000/svg">
<path d="M15.1154 18.9993C18.3654 18.9993 21 16.3647 21 13.1147C21 9.86466 18.3654 7.23005 15.1154 7.23005C12.4436 7.23005 10.1875 9.01065 9.46935 11.45C9.02296 11.2728 8.53647 11.1754 8.02711 11.1754C5.8664 11.1754 4.11496 12.9269 4.11496 15.0874C4.11496 17.2479 5.8664 18.9993 8.02711 18.9993C10.8318 18.9993 12.1089 18.9993 15.1154 18.9993Z" stroke="black" stroke-width="1.5" stroke-linecap="round" stroke-linejoin="round"/>
<path d="M7.03207 4.99707L7.03656 5.01634M11.2291 5.69776L11.2201 5.71215M3.58992 7.48771L3.55609 7.46666M2.87012 11.6851L2.89581 11.6791" stroke="black" stroke-width="1.5" stroke-linecap="round" stroke-linejoin="round"/>
<path d="M11.1904 8.64776C10.611 7.70003 9.56652 7.06738 8.37425 7.06738C6.55273 7.06738 5.07671 8.54405 5.07671 10.3649C5.07671 10.9492 5.22859 11.498 5.49502 11.974" stroke="black" stroke-width="1.5" stroke-linecap="round" stroke-linejoin="round"/>
</svg>
