<svg width="24" height="24" viewBox="0 0 24 24" fill="none" xmlns="http://www.w3.org/2000/svg">
<path d="M12.0001 3V4.3719M12.0001 19.6281V21M4.3719 12.0001H3M18.3639 18.3639L17.3938 17.3938M6.60636 6.60636L5.6363 5.6363" stroke="black" stroke-width="1.5" stroke-linecap="round" stroke-linejoin="round"/>
<path d="M14.5004 16.3304C13.0046 17.1923 11.1031 17.2553 9.50037 16.3299C7.10864 14.9491 6.29017 11.8913 7.67104 9.49961C8.75213 7.62711 10.862 6.71815 12.8751 7.07555" stroke="black" stroke-width="1.5" stroke-linecap="round" stroke-linejoin="round"/>
<path fill-rule="evenodd" clip-rule="evenodd" d="M14.8237 9.98186C13.8149 9.99085 13 10.6686 13 11.8218C13 12.5687 13.4445 13.2111 14.083 13.4994C14.3516 13.6084 14.6191 13.65 14.822 13.65H19.1752C19.3786 13.65 19.6467 13.6107 19.9187 13.5016C20.5577 13.2128 21 12.5687 21 11.8218C21 10.6686 20.1857 9.99085 19.1769 9.98186C19.1769 9.25632 18.6076 7.80469 17.0003 7.80469C15.393 7.80469 14.8237 9.25632 14.8237 9.98186Z" stroke="black" stroke-width="1.5" stroke-linecap="round" stroke-linejoin="round"/>
<path fill-rule="evenodd" clip-rule="evenodd" d="M4.09555 18.3075C3.48974 18.3129 3.00036 18.7199 3.00036 19.4125C3.00036 19.861 3.26732 20.2468 3.65072 20.4199C3.81205 20.4854 3.9727 20.5103 4.09454 20.5103H6.70882C6.831 20.5103 6.99198 20.4867 7.15534 20.4212C7.53907 20.2478 7.80469 19.861 7.80469 19.4125C7.80469 18.7199 7.31565 18.3129 6.70983 18.3075C6.70983 17.8718 6.36794 17 5.40269 17C4.43744 17 4.09555 17.8718 4.09555 18.3075Z" stroke="black" stroke-width="1.5" stroke-linecap="round" stroke-linejoin="round"/>
</svg>
