<svg width="24" height="24" viewBox="0 0 24 24" fill="none" xmlns="http://www.w3.org/2000/svg">
<path d="M15.9387 3.22302L15.9246 3.25414M8.59558 3L8.60592 3.02739M20.9315 8.59708L20.9959 8.57278M8.02291 20.7398L8.03698 20.7086M3.00293 15.376L3.03032 15.3656M3.25011 8.04324L3.20201 8.02151M20.7407 15.9472L20.6992 15.9284M15.3557 20.9356L15.38 21" stroke="black" stroke-width="1.5" stroke-linecap="round" stroke-linejoin="round"/>
<path fill-rule="evenodd" clip-rule="evenodd" d="M12.0006 5.5C15.5908 5.5 18.5 8.41047 18.5 11.9994C18.5 15.5895 15.5908 18.5 12.0006 18.5C8.41047 18.5 5.5 15.5895 5.5 11.9994C5.5 8.41047 8.41047 5.5 12.0006 5.5Z" stroke="black" stroke-width="1.5" stroke-linecap="round" stroke-linejoin="round"/>
<path d="M8.75 11.9997C8.75 10.2052 10.2052 8.75 12.0003 8.75" stroke="black" stroke-width="1.5" stroke-linecap="round" stroke-linejoin="round"/>
</svg>
