<svg width="24" height="24" viewBox="0 0 24 24" fill="none" xmlns="http://www.w3.org/2000/svg">
<path d="M7.31738 12.3476C7.31738 9.7612 9.41398 7.66553 11.9995 7.66553C14.586 7.66553 16.6825 9.7612 16.6825 12.3476" stroke="black" stroke-width="1.5" stroke-linecap="round" stroke-linejoin="round"/>
<path d="M12.0043 3.80457V3.83495" stroke="black" stroke-width="1.5" stroke-linecap="round" stroke-linejoin="round"/>
<path d="M5.96876 6.31519L5.98717 6.33361" stroke="black" stroke-width="1.5" stroke-linecap="round" stroke-linejoin="round"/>
<path d="M3.48387 12.3484H3.43691" stroke="black" stroke-width="1.5" stroke-linecap="round" stroke-linejoin="round"/>
<path d="M20.5588 12.3484H20.5183" stroke="black" stroke-width="1.5" stroke-linecap="round" stroke-linejoin="round"/>
<path d="M18.0198 6.33084L18.0631 6.28756" stroke="black" stroke-width="1.5" stroke-linecap="round" stroke-linejoin="round"/>
<path d="M3.96875 16.3635C4.51293 16.579 4.8619 16.8874 5.8683 16.8874C7.40875 16.8874 7.40875 16.1481 8.94828 16.1481C10.4887 16.1481 10.4887 16.8874 12.0181 16.8874C13.5586 16.8874 13.5586 16.1481 15.099 16.1481C16.6496 16.1481 16.6496 16.8874 18.1891 16.8874C19.2987 16.8874 19.6062 16.5072 20.2636 16.2917" stroke="black" stroke-width="1.5" stroke-linecap="round" stroke-linejoin="round"/>
<path d="M6.75879 20.4593C7.56999 20.2742 7.82688 19.812 9.03862 19.812C10.568 19.812 10.568 20.5514 12.1085 20.5514C13.648 20.5514 13.648 19.812 15.1885 19.812C16.4103 19.812 16.6672 20.2742 17.4784 20.4593" stroke="black" stroke-width="1.5" stroke-linecap="round" stroke-linejoin="round"/>
</svg>
