<svg width="24" height="24" viewBox="0 0 24 24" fill="none" xmlns="http://www.w3.org/2000/svg">
<path d="M12.0001 3V4.3719M21 12.0001H19.6281M4.3719 12.0001H3M18.3639 5.63582L17.3938 6.60589M6.60636 17.3938L5.6363 18.3639M6.60636 6.60636L5.6363 5.6363" stroke="black" stroke-width="1.5" stroke-linecap="round" stroke-linejoin="round"/>
<path d="M16.0528 13.0867C16.6526 10.848 15.3238 8.5479 13.0861 7.9483C10.8474 7.34845 8.5466 8.67604 7.94675 10.9147C7.48283 12.6461 8.17249 14.4142 9.54445 15.4041" stroke="black" stroke-width="1.5" stroke-linecap="round" stroke-linejoin="round"/>
<path d="M15.1916 16.5118V19.5219C15.1916 20.3382 14.5298 21 13.7135 21C12.8971 21 12.2354 20.3382 12.2354 19.5219V16.5118" stroke="black" stroke-width="1.5" stroke-linecap="round" stroke-linejoin="round"/>
<path d="M17.5 16.5117L19.2495 21L21.0001 16.5117" stroke="black" stroke-width="1.5" stroke-linecap="round" stroke-linejoin="round"/>
</svg>
