<svg width="24" height="24" viewBox="0 0 24 24" fill="none" xmlns="http://www.w3.org/2000/svg">
<path d="M15.0391 10.1077C18.17 11.2898 20.3967 14.3144 20.3967 17.8591C18.7183 17.8897 17.8654 18.0852 16.6161 19.0002C13.0547 17.6444 11.161 17.6196 7.60343 19.0002C6.44121 18.1861 5.5734 17.938 3.83105 17.8591C3.83105 14.6508 5.65519 11.8685 8.32291 10.4928" stroke="black" stroke-width="1.5" stroke-linecap="round" stroke-linejoin="round"/>
<path d="M12.1143 17.99V20.9999" stroke="black" stroke-width="1.5" stroke-linecap="round" stroke-linejoin="round"/>
<path d="M19.136 8.70134L20.3955 6.79391H18.1943L19.4351 4.94373" stroke="black" stroke-width="1.5" stroke-linecap="round" stroke-linejoin="round"/>
<path d="M4.77272 8.70134L6.03223 6.79391H3.83105L5.07183 4.94373" stroke="black" stroke-width="1.5" stroke-linecap="round" stroke-linejoin="round"/>
<path d="M8.97325 7.23021L10.6557 3.12486C10.6935 3.02192 10.7915 2.95349 10.9011 2.95349H13.1567C13.3371 2.95349 13.4632 3.13191 13.4031 3.302L12.4057 5.64302C12.3455 5.81311 12.4717 5.99152 12.6521 5.99152H14.7819C15.0065 5.99152 15.1265 6.2562 14.9785 6.42518L10.9346 11.0409C10.7524 11.2489 10.4142 11.0684 10.4855 10.8013L11.2563 7.91038C11.3006 7.74443 11.1755 7.58163 11.0038 7.58163H9.21866C9.03694 7.58163 8.91067 7.40081 8.97325 7.23021Z" stroke="black" stroke-width="1.5" stroke-linecap="round" stroke-linejoin="round"/>
</svg>
