<svg width="24" height="24" viewBox="0 0 24 24" fill="none" xmlns="http://www.w3.org/2000/svg">
<path d="M4.42992 15.0656C5.01028 16.3726 6.60458 16.959 7.99619 16.3683C9.38781 15.7776 10.0425 14.2419 9.46098 12.9307C8.33453 10.3918 4.70189 8.92908 4.70189 8.92908C4.70189 8.92908 3.30346 12.5268 4.42992 15.0656Z" stroke="black" stroke-width="1.5" stroke-linecap="round" stroke-linejoin="round"/>
<path d="M14.8875 8.99361C15.4543 10.2702 17.0115 10.8429 18.3707 10.266C19.7299 9.68904 20.3693 8.18907 19.8014 6.9084C18.7012 4.42869 15.1531 3 15.1531 3C15.1531 3 13.7873 6.5139 14.8875 8.99361Z" stroke="black" stroke-width="1.5" stroke-linecap="round" stroke-linejoin="round"/>
<path d="M13.4566 19.4866C14.0296 20.7771 15.6037 21.3561 16.9776 20.7728C18.3516 20.1896 18.9979 18.6734 18.4238 17.3788C17.3117 14.8722 13.7251 13.428 13.7251 13.428C13.7251 13.428 12.3444 16.98 13.4566 19.4866Z" stroke="black" stroke-width="1.5" stroke-linecap="round" stroke-linejoin="round"/>
</svg>
