<svg width="24" height="24" viewBox="0 0 24 24" fill="none" xmlns="http://www.w3.org/2000/svg">
<path d="M20.4463 6.66916C19.3835 6.02304 18.0198 6.02306 16.9571 6.6692C15.8943 7.31534 14.5306 7.31534 13.4679 6.6692C12.4051 6.02306 11.0414 6.02306 9.97863 6.6692C8.91588 7.31534 7.55217 7.31534 6.48942 6.6692C5.42666 6.02306 4.06296 6.02306 3.0002 6.6692" stroke="black" stroke-width="1.5" stroke-linecap="round" stroke-linejoin="round"/>
<path d="M3.00012 12.4846C4.06288 11.8385 5.42658 11.8385 6.48934 12.4846C7.5521 13.1307 8.9158 13.1307 9.97856 12.4846C11.0413 11.8385 12.405 11.8385 13.4678 12.4846" stroke="black" stroke-width="1.5" stroke-linecap="round" stroke-linejoin="round"/>
<path d="M20.4463 18.2999C19.3835 17.6538 18.0198 17.6538 16.9571 18.2999C15.8943 18.9461 14.5306 18.9461 13.4679 18.2999C12.4051 17.6538 11.0414 17.6538 9.97863 18.2999C8.91588 18.9461 7.55217 18.9461 6.48942 18.2999C5.42666 17.6538 4.06296 17.6538 3.0002 18.2999" stroke="black" stroke-width="1.5" stroke-linecap="round" stroke-linejoin="round"/>
<path d="M18.6352 8.36138L21.0001 6.19509L18.6123 4.00787" stroke="black" stroke-width="1.5" stroke-linecap="round" stroke-linejoin="round"/>
<path d="M18.6352 19.9921L21.0001 17.8258L18.6123 15.6386" stroke="black" stroke-width="1.5" stroke-linecap="round" stroke-linejoin="round"/>
<path d="M11.6576 14.1767L14.0225 12.0105L11.6348 9.82324" stroke="black" stroke-width="1.5" stroke-linecap="round" stroke-linejoin="round"/>
</svg>
