<svg width="24" height="24" viewBox="0 0 24 24" fill="none" xmlns="http://www.w3.org/2000/svg">
<path d="M8.44246 4.34226C8.82145 3.91802 9.37287 3.6517 9.98575 3.6517C11.1296 3.6517 12.0566 4.5787 12.0566 5.72166C12.0566 6.86547 11.2141 7.79247 9.98575 7.79247H5.16406" stroke="black" stroke-width="1.5" stroke-linecap="round" stroke-linejoin="round"/>
<path d="M13.8296 19.2025C14.297 19.8938 15.088 20.3483 15.9852 20.3483C17.4215 20.3483 18.5845 19.1843 18.5845 17.749C18.5845 16.3127 17.5362 15.1487 15.9852 15.1487H5.85254" stroke="black" stroke-width="1.5" stroke-linecap="round" stroke-linejoin="round"/>
<path d="M3 11.4706H10.7778" stroke="black" stroke-width="1.5" stroke-linecap="round" stroke-linejoin="round"/>
<path d="M16.2637 6.82918C16.7639 6.30397 17.47 5.97641 18.2532 5.97641C19.7704 5.97641 20.9999 7.20685 20.9999 8.72402C20.9999 10.2403 19.9931 11.4419 18.2532 11.4707H13.4316" stroke="black" stroke-width="1.5" stroke-linecap="round" stroke-linejoin="round"/>
<path d="M9.3623 18.5528H4.23242" stroke="black" stroke-width="1.5" stroke-linecap="round" stroke-linejoin="round"/>
</svg>
