<svg width="24" height="24" viewBox="0 0 24 24" fill="none" xmlns="http://www.w3.org/2000/svg">
<path d="M10.4434 8.1534C9.8251 10.461 8.59113 12.1353 7.68728 11.8931C6.78343 11.651 6.55195 9.58395 7.17027 7.27637C7.78859 4.96878 9.02255 3.29444 9.9264 3.53662C10.8303 3.77881 11.0617 5.84581 10.4434 8.1534Z" stroke="black" stroke-width="1.5" stroke-linecap="round" stroke-linejoin="round"/>
<path d="M10.0655 3.5893L20.6621 8.8463C21.0112 8.95224 21.0474 10.0812 20.743 11.368C20.4385 12.6547 19.9087 13.6119 19.5596 13.506L7.78027 11.9134" stroke="black" stroke-width="1.5" stroke-linecap="round" stroke-linejoin="round"/>
<path d="M3.05078 3V21" stroke="black" stroke-width="1.5" stroke-linecap="round" stroke-linejoin="round"/>
<path d="M9.08677 3.7373L3.0507 7.99922L7.59097 11.8522" stroke="black" stroke-width="1.5" stroke-linecap="round" stroke-linejoin="round"/>
<path d="M8.25879 16.3374L12.6265 16.8079" stroke="black" stroke-width="1.5" stroke-linecap="round" stroke-linejoin="round"/>
<path d="M12.4102 19.6816L15.3203 19.9951" stroke="black" stroke-width="1.5" stroke-linecap="round" stroke-linejoin="round"/>
</svg>
