<svg width="24" height="24" viewBox="0 0 24 24" fill="none" xmlns="http://www.w3.org/2000/svg">
<path d="M8.44246 4.5683C8.82145 4.14407 9.37287 3.87775 9.98575 3.87775C11.1296 3.87775 12.0566 4.80475 12.0566 5.9477C12.0566 7.09151 11.2141 8.01851 9.98575 8.01851H5.16406" stroke="black" stroke-width="1.5" stroke-linecap="round" stroke-linejoin="round"/>
<path d="M13.8293 19.4286C14.2966 20.1199 15.0876 20.5744 15.9848 20.5744C17.4211 20.5744 18.5841 19.4104 18.5841 17.9751C18.5841 16.5388 17.5358 15.3748 15.9848 15.3748H11.956" stroke="black" stroke-width="1.5" stroke-linecap="round" stroke-linejoin="round"/>
<path d="M5.52263 17.786H2.99981" stroke="black" stroke-width="1.5" stroke-linecap="round" stroke-linejoin="round"/>
<path d="M3 11.6966H10.7778" stroke="black" stroke-width="1.5" stroke-linecap="round" stroke-linejoin="round"/>
<path d="M20.9999 8.95001C20.9999 10.4663 19.9931 11.6679 18.2532 11.6967H13.4316" stroke="black" stroke-width="1.5" stroke-linecap="round" stroke-linejoin="round"/>
<path d="M7.93515 14.1169C7.93515 14.1169 10.2816 16.2794 10.2467 18.4504L10.2467 18.453C10.2709 19.6888 9.07997 20.5887 7.93516 20.5742C6.79036 20.5887 5.59944 19.6888 5.62359 18.453L5.62364 18.4504C5.58866 16.2794 7.93515 14.1169 7.93515 14.1169Z" stroke="black" stroke-width="1.5" stroke-linecap="round" stroke-linejoin="round"/>
<path d="M16.5966 3.42566C16.5966 3.42566 18.6147 5.28555 18.5846 7.1527L18.5847 7.15491C18.6054 8.21775 17.5812 8.99173 16.5966 8.97919C15.612 8.99173 14.5878 8.21775 14.6086 7.15491L14.6086 7.15269C14.5785 5.28555 16.5966 3.42566 16.5966 3.42566Z" stroke="black" stroke-width="1.5" stroke-linecap="round" stroke-linejoin="round"/>
</svg>
