<svg width="25" height="25" viewBox="0 0 25 25" fill="none" xmlns="http://www.w3.org/2000/svg">
<path d="M10.1373 20.4659C9.58268 20.3399 9.03877 20.1554 8.51529 19.9123C8.06868 19.7327 7.7038 19.5872 7.35741 19.5872C6.39024 19.5921 5.18565 20.5333 4.56098 19.9065C3.93534 19.2787 4.87332 18.071 4.87332 17.0947C4.87332 16.7462 4.73418 16.3859 4.55514 15.9388C3.6256 13.9225 3.55413 11.6073 4.34618 9.54785" stroke="black" stroke-width="1.5" stroke-linecap="round" stroke-linejoin="round"/>
<path d="M6.1875 6.71445C9.36535 3.52487 14.5291 3.52487 17.7079 6.71445" stroke="black" stroke-width="1.5" stroke-linecap="round" stroke-linejoin="round"/>
<path d="M13.0167 11.6532C15.024 9.63905 18.2856 9.63905 20.2929 11.6532C21.8643 13.2309 22.2048 15.5681 21.3233 17.4797C21.2104 17.7619 21.1229 17.9894 21.1229 18.209C21.1229 18.8261 21.7144 19.5885 21.3194 19.9849C20.9253 20.3813 20.1644 19.7867 19.5544 19.7828C19.3345 19.7838 19.1039 19.8746 18.8227 19.9888C16.9175 20.8724 14.5891 20.5317 13.0167 18.9539C11.8641 17.7974 11.372 16.2272 11.5428 14.7176" stroke="black" stroke-width="1.5" stroke-linecap="round" stroke-linejoin="round"/>
</svg>