<svg width="25" height="24" viewBox="0 0 25 24" fill="none" xmlns="http://www.w3.org/2000/svg">
<path d="M9.198 2.75C7.84593 2.75 6.75 3.84593 6.75 5.198V7.802C6.75 9.15407 7.84593 10.25 9.198 10.25H15.802C17.1541 10.25 18.25 9.15407 18.25 7.802V5.198C18.25 3.84593 17.1541 2.75 15.802 2.75H9.198Z" fill="black"/>
<path opacity="0.4" d="M5.698 13.75C4.34593 13.75 3.25 14.8459 3.25 16.198V18.802C3.25 20.1541 4.34593 21.25 5.698 21.25H19.302C20.6541 21.25 21.75 20.1541 21.75 18.802V16.198C21.75 14.8459 20.6541 13.75 19.302 13.75H5.698Z" fill="black"/>
</svg>