<svg width="25" height="24" viewBox="0 0 25 24" fill="none" xmlns="http://www.w3.org/2000/svg">
<g opacity="0.4">
<path fill-rule="evenodd" clip-rule="evenodd" d="M7 13.5C4.794 13.5 3 15.294 3 17.5C3 19.706 4.794 21.5 7 21.5C9.206 21.5 11 19.706 11 17.5C11 15.294 9.206 13.5 7 13.5Z" fill="black"/>
<path fill-rule="evenodd" clip-rule="evenodd" d="M18 13.5C15.794 13.5 14 15.294 14 17.5C14 19.706 15.794 21.5 18 21.5C20.206 21.5 22 19.706 22 17.5C22 15.294 20.206 13.5 18 13.5Z" fill="black"/>
</g>
<path fill-rule="evenodd" clip-rule="evenodd" d="M16.5 6.5C16.5 4.294 14.706 2.5 12.5 2.5C10.294 2.5 8.5 4.294 8.5 6.5C8.5 8.706 10.294 10.5 12.5 10.5C14.706 10.5 16.5 8.706 16.5 6.5Z" fill="black"/>
</svg>