<svg width="25" height="24" viewBox="0 0 25 24" fill="none" xmlns="http://www.w3.org/2000/svg">
<g opacity="0.4">
<path fill-rule="evenodd" clip-rule="evenodd" d="M8.302 2.5H5.698C4.211 2.5 3 3.71 3 5.198V7.802C3 9.29 4.211 10.5 5.698 10.5H8.302C9.79 10.5 11 9.29 11 7.802V5.198C11 3.71 9.79 2.5 8.302 2.5Z" fill="black"/>
<path fill-rule="evenodd" clip-rule="evenodd" d="M19.302 13.5H16.698C15.211 13.5 14 14.71 14 16.198V18.802C14 20.29 15.211 21.5 16.698 21.5H19.302C20.79 21.5 22 20.29 22 18.802V16.198C22 14.71 20.79 13.5 19.302 13.5Z" fill="black"/>
<path fill-rule="evenodd" clip-rule="evenodd" d="M8.302 13.5H5.698C4.211 13.5 3 14.71 3 16.198V18.802C3 20.29 4.211 21.5 5.698 21.5H8.302C9.79 21.5 11 20.29 11 18.802V16.198C11 14.71 9.79 13.5 8.302 13.5Z" fill="black"/>
</g>
<path fill-rule="evenodd" clip-rule="evenodd" d="M14.8379 9.59967C15.0279 9.70667 15.2439 9.76367 15.4609 9.76367H20.7429C21.4359 9.76367 21.9999 9.20067 21.9999 8.50767C21.9999 8.28767 21.9419 8.07167 21.8339 7.88167L19.1939 3.26767C18.8489 2.66667 18.0799 2.45867 17.4809 2.80267C17.2859 2.91267 17.1249 3.07467 17.0129 3.26767L14.3699 7.88167C14.0259 8.48267 14.2339 9.25167 14.8379 9.59967Z" fill="black"/>
</svg>