<svg width="25" height="24" viewBox="0 0 25 24" fill="none" xmlns="http://www.w3.org/2000/svg">
<path fill-rule="evenodd" clip-rule="evenodd" d="M8.19843 14.5711C8.08943 14.3771 7.92743 14.2151 7.73143 14.1031C7.13243 13.7591 6.36243 13.9661 6.01643 14.5691L3.37643 19.1821C3.26743 19.3731 3.21143 19.5891 3.21143 19.8071C3.21143 20.5011 3.77443 21.0641 4.46843 21.0641H9.75043C9.96943 21.0641 10.1844 21.0071 10.3754 20.8971C10.9764 20.5531 11.1854 19.7831 10.8414 19.1801L8.19843 14.5711Z" fill="black"/>
<path fill-rule="evenodd" clip-rule="evenodd" d="M16.8996 9.13272C17.1316 9.53672 17.5566 9.76472 17.9926 9.76472C18.2046 9.76472 18.4176 9.71072 18.6126 9.59872C18.8086 9.48772 18.9706 9.32572 19.0806 9.13272L21.7236 4.51972C22.0686 3.91872 21.8596 3.14972 21.2566 2.80272C21.0656 2.69472 20.8496 2.63672 20.6326 2.63672H15.3506C14.6576 2.63672 14.0936 3.19972 14.0936 3.89272C14.0936 4.11372 14.1516 4.33072 14.2606 4.51972L16.8996 9.13272Z" fill="black"/>
<g opacity="0.4">
<path fill-rule="evenodd" clip-rule="evenodd" d="M19.1936 13.5H16.5896C15.1006 13.5 13.8906 14.71 13.8906 16.198V18.802C13.8906 20.29 15.1006 21.5 16.5896 21.5H19.1936C20.6806 21.5 21.8906 20.29 21.8906 18.802V16.198C21.8906 14.71 20.6806 13.5 19.1936 13.5Z" fill="black"/>
<path fill-rule="evenodd" clip-rule="evenodd" d="M8.41138 2.5H5.80737C4.31937 2.5 3.10938 3.71 3.10938 5.198V7.802C3.10938 9.29 4.31937 10.5 5.80737 10.5H8.41138C9.89937 10.5 11.1094 9.29 11.1094 7.802V5.198C11.1094 3.71 9.89937 2.5 8.41138 2.5Z" fill="black"/>
</g>
</svg>