<svg width="25" height="24" viewBox="0 0 25 24" fill="none" xmlns="http://www.w3.org/2000/svg">
<path d="M2.75 19.6035C2.75 20.0175 3.086 20.3535 3.5 20.3535C3.914 20.3535 4.25 20.0175 4.25 19.6035V4.39648C4.25 3.98248 3.914 3.64648 3.5 3.64648C3.086 3.64648 2.75 3.98248 2.75 4.39648V19.6035Z" fill="black"/>
<path d="M20.75 19.6035C20.75 20.0175 21.086 20.3535 21.5 20.3535C21.914 20.3535 22.25 20.0175 22.25 19.6035V4.39648C22.25 3.98248 21.914 3.64648 21.5 3.64648C21.086 3.64648 20.75 3.98248 20.75 4.39648V19.6035Z" fill="black"/>
<path opacity="0.4" d="M9.97541 21.0327H15.0494C17.0504 21.0327 18.6784 19.4058 18.6784 17.4058V6.59675C18.6784 4.59675 17.0504 2.96875 15.0494 2.96875H9.97541C7.97541 2.96875 6.34741 4.59675 6.34741 6.59675V17.4058C6.34741 19.4058 7.97541 21.0327 9.97541 21.0327Z" fill="black"/>
</svg>