<svg width="24" height="24" viewBox="0 0 24 24" fill="none" xmlns="http://www.w3.org/2000/svg">
<path fill-rule="evenodd" clip-rule="evenodd" d="M12.4901 8.1871L13.3025 9.81051C13.3829 9.97049 13.5371 10.0807 13.7144 10.1056L15.532 10.3673C15.8267 10.406 16.0338 10.6767 15.9951 10.9713C15.9791 11.0917 15.9227 11.2037 15.8351 11.2882L14.5206 12.5512C14.3913 12.6743 14.3322 12.8533 14.3633 13.0293L14.6744 14.8123C14.7224 15.11 14.5197 15.39 14.222 15.438C14.1046 15.4567 13.9846 15.4367 13.8798 15.3811L12.2559 14.5394C12.0959 14.4568 11.9062 14.4568 11.7462 14.5394L10.1214 15.3815C9.85524 15.5228 9.52506 15.4215 9.38374 15.1554C9.32819 15.05 9.30818 14.93 9.32729 14.8127L9.63838 13.0293C9.66904 12.8538 9.60993 12.6747 9.48106 12.5516L8.16518 11.2886C7.95142 11.0824 7.94476 10.742 8.15096 10.5278C8.2354 10.4402 8.34738 10.3838 8.46826 10.3678L10.2859 10.106C10.4632 10.0812 10.6174 9.97094 10.6983 9.81095L11.512 8.1871C11.652 7.91691 11.9844 7.81159 12.2546 7.95157C12.3555 8.00357 12.4377 8.08578 12.4901 8.1871Z" stroke="black" stroke-width="1.5" stroke-linecap="round" stroke-linejoin="round"/>
<path d="M10.6153 3.12135C11.4729 2.62622 12.5295 2.62622 13.3871 3.12135L18.9974 6.36044C19.855 6.85558 20.3833 7.77063 20.3833 8.76091V15.2391C20.3833 16.2294 19.855 17.1444 18.9974 17.6396L13.3871 20.8786C12.5295 21.3738 11.4729 21.3738 10.6153 20.8786L5.00505 17.6396C4.14745 17.1444 3.61914 16.2294 3.61914 15.2391V8.76091C3.61914 7.77063 4.14745 6.85558 5.00505 6.36044L10.6153 3.12135Z" stroke="black" stroke-width="1.5" stroke-linecap="round" stroke-linejoin="round"/>
</svg>
