<svg width="24" height="24" viewBox="0 0 24 24" fill="none" xmlns="http://www.w3.org/2000/svg">
<path fill-rule="evenodd" clip-rule="evenodd" d="M18.0762 14.8717L15.2422 16.2902C14.9622 16.4313 14.7692 16.6989 14.7262 17.0092L14.2692 20.183C14.2022 20.6977 13.7292 21.0597 13.2152 20.9916C13.0042 20.9633 12.8082 20.8651 12.6622 20.7113L10.4562 18.4171C10.2422 18.1914 9.92923 18.0882 9.62223 18.1418L6.50919 18.6856C5.98819 18.7683 5.49923 18.4152 5.41623 17.8946C5.38323 17.6903 5.41819 17.4811 5.51419 17.2982L6.98423 14.463C7.12823 14.1828 7.12823 13.852 6.98423 13.5728L5.51322 10.7356C5.26722 10.2705 5.44421 9.69448 5.90921 9.44738C6.09221 9.35008 6.30221 9.31608 6.50821 9.34908L9.62119 9.89208C9.92819 9.94648 10.2412 9.84338 10.4562 9.61768L12.6612 7.3205C13.0212 6.94592 13.6152 6.93521 13.9892 7.29521C14.1422 7.4431 14.2412 7.63769 14.2692 7.84882L14.7252 11.0226C14.7692 11.333 14.9622 11.6015 15.2412 11.7426L18.0762 13.1641C18.5482 13.4083 18.7322 13.9882 18.4882 14.4601C18.3962 14.6362 18.2522 14.7802 18.0762 14.8717Z" stroke="black" stroke-width="1.5" stroke-linecap="round" stroke-linejoin="round"/>
<path d="M5.86328 4.02832V5.80494" stroke="black" stroke-width="1.5" stroke-linecap="round" stroke-linejoin="round"/>
<path d="M18.1328 4.02832V8.26457" stroke="black" stroke-width="1.5" stroke-linecap="round" stroke-linejoin="round"/>
<path d="M12 3V4.34949" stroke="black" stroke-width="1.5" stroke-linecap="round" stroke-linejoin="round"/>
</svg>
