<svg width="24" height="24" viewBox="0 0 24 24" fill="none" xmlns="http://www.w3.org/2000/svg">
<path d="M6.26059 17.5L6.6856 15.0653C6.7546 14.6703 6.62159 14.2673 6.33159 13.9903L3.37059 11.1483C2.88959 10.6843 2.8746 9.91829 3.3386 9.43639C3.5286 9.23939 3.78058 9.11239 4.05258 9.07634L8.1426 8.48734C8.5416 8.43134 8.88859 8.18334 9.07059 7.82334L10.9016 4.16935C11.2166 3.56135 11.9646 3.32435 12.5726 3.63935C12.7996 3.75635 12.9846 3.94135 13.1026 4.16935L15.2596 8.50452" stroke="black" stroke-width="1.5" stroke-linecap="round" stroke-linejoin="round"/>
<path d="M7.77344 20.3579L11.4294 18.4629C11.7894 18.2769 12.2164 18.2769 12.5764 18.4629L16.2304 20.3569C16.4664 20.4819 16.7364 20.5269 17.0004 20.4849C17.6704 20.3769 18.1264 19.7469 18.0184 19.0769L17.3184 15.0649C17.2484 14.6689 17.3814 14.2659 17.6724 13.9889L20.6304 11.147C20.8274 10.957 20.9544 10.705 20.9904 10.434C21.0774 9.77099 20.6114 9.16199 19.9484 9.07494L19.0014 8.93848" stroke="black" stroke-width="1.5" stroke-linecap="round" stroke-linejoin="round"/>
<path d="M19.2672 4.49902L3.97656 19.7854" stroke="black" stroke-width="1.5" stroke-linecap="round" stroke-linejoin="round"/>
</svg>
