<svg width="24" height="24" viewBox="0 0 24 24" fill="none" xmlns="http://www.w3.org/2000/svg">
<path d="M4.7793 6.6348C5.2003 6.0618 5.68731 5.54221 6.23131 5.08301" stroke="black" stroke-width="1.5" stroke-linecap="round" stroke-linejoin="round"/>
<path d="M17.5621 19.0869C16.2061 20.1494 14.5311 20.8372 12.6841 20.9744C11.7741 21.0425 10.8861 20.9705 10.0391 20.7808" stroke="black" stroke-width="1.5" stroke-linecap="round" stroke-linejoin="round"/>
<path d="M6.84946 19.3609C5.49346 18.423 4.40847 17.1173 3.73047 15.5791" stroke="black" stroke-width="1.5" stroke-linecap="round" stroke-linejoin="round"/>
<path d="M3.3251 9.54395C3.0621 10.5071 2.94809 11.5257 3.02609 12.5774" stroke="black" stroke-width="1.5" stroke-linecap="round" stroke-linejoin="round"/>
<path d="M19.6456 16.7239C20.5556 15.2557 21.0616 13.5192 20.9906 11.6638C20.7996 6.69115 16.6146 2.81605 11.6426 3.00675" stroke="black" stroke-width="1.5" stroke-linecap="round" stroke-linejoin="round"/>
<path fill-rule="evenodd" clip-rule="evenodd" d="M12.4618 8.71577L13.2288 10.2481C13.3048 10.3989 13.4508 10.503 13.6178 10.5264L15.3338 10.7735C15.6118 10.8105 15.8068 11.0654 15.7698 11.3436C15.7558 11.4575 15.7018 11.5626 15.6198 11.6423L14.3788 12.8351C14.2578 12.9509 14.2008 13.1202 14.2298 13.2856L14.5238 14.9687C14.5688 15.2499 14.3778 15.5146 14.0968 15.5593C13.9858 15.5778 13.8728 15.5583 13.7738 15.5058L12.2418 14.7119C12.0908 14.6341 11.9108 14.6341 11.7598 14.7119L10.2268 15.5068C9.97584 15.6401 9.66284 15.5447 9.52984 15.2927C9.47784 15.1935 9.45884 15.0806 9.47684 14.9697L9.76984 13.2866C9.79984 13.1202 9.74384 12.9519 9.62284 12.8351L8.37984 11.6433C8.17884 11.4487 8.17184 11.1277 8.36584 10.9253C8.44584 10.8426 8.55184 10.7891 8.66584 10.7735L10.3818 10.5274C10.5498 10.503 10.6948 10.3989 10.7708 10.2481L11.5388 8.71577C11.6718 8.46087 11.9848 8.36067 12.2398 8.49297C12.3348 8.54257 12.4128 8.62037 12.4618 8.71577Z" stroke="black" stroke-width="1.5" stroke-linecap="round" stroke-linejoin="round"/>
</svg>
