<svg width="24" height="24" viewBox="0 0 24 24" fill="none" xmlns="http://www.w3.org/2000/svg">
<path fill-rule="evenodd" clip-rule="evenodd" d="M13.056 3.82012L14.8077 7.32068C14.9812 7.66566 15.3137 7.90331 15.6961 7.95697L19.6154 8.52138C20.2507 8.60478 20.6973 9.18837 20.6139 9.8237C20.5794 10.0834 20.4577 10.3249 20.2689 10.5069L17.4343 13.2304C17.1555 13.4958 17.028 13.882 17.0951 14.2615L17.7659 18.106C17.8694 18.7481 17.4324 19.3518 16.7904 19.4553C16.5374 19.4955 16.2787 19.4524 16.0525 19.3326L12.551 17.5177C12.206 17.3394 11.7968 17.3394 11.4519 17.5177L7.94843 19.3335C7.37442 19.6382 6.66244 19.4197 6.35771 18.8458C6.23793 18.6187 6.19479 18.36 6.236 18.107L6.9068 14.2615C6.97292 13.8829 6.84546 13.4968 6.56757 13.2313L3.73013 10.5079C3.2692 10.0633 3.25483 9.32923 3.69947 8.86735C3.88154 8.67857 4.12301 8.55687 4.38366 8.52234L8.303 7.95793C8.68535 7.90427 9.01786 7.66661 9.19227 7.32164L10.9469 3.82012C11.2487 3.2375 11.9655 3.01039 12.5481 3.31224C12.7657 3.42436 12.9429 3.60164 13.056 3.82012Z" stroke="black" stroke-width="1.5" stroke-linecap="round" stroke-linejoin="round"/>
<path d="M21 12C21 7.03005 16.9709 3 12 3C7.0291 3 3 7.03005 3 12C3 16.9709 7.0291 21 12 21C16.9709 21 21 16.9709 21 12Z" stroke="black" stroke-width="1.5" stroke-linecap="round" stroke-linejoin="round"/>
</svg>
