<svg width="24" height="24" viewBox="0 0 24 24" fill="none" xmlns="http://www.w3.org/2000/svg">
<path d="M5.52148 18.5227L6.52148 17.5225" stroke="black" stroke-width="1.5" stroke-linecap="round" stroke-linejoin="round"/>
<path d="M18.5205 18.5002L17.5195 17.5" stroke="black" stroke-width="1.5" stroke-linecap="round" stroke-linejoin="round"/>
<path d="M5.49805 5.52246L6.49805 6.52166" stroke="black" stroke-width="1.5" stroke-linecap="round" stroke-linejoin="round"/>
<path d="M18.4991 5.5L17.498 6.5002" stroke="black" stroke-width="1.5" stroke-linecap="round" stroke-linejoin="round"/>
<path d="M12 20V21.0002" stroke="black" stroke-width="1.5" stroke-linecap="round" stroke-linejoin="round"/>
<path d="M12 3V4.0002" stroke="black" stroke-width="1.5" stroke-linecap="round" stroke-linejoin="round"/>
<path d="M4.04501 12H3" stroke="black" stroke-width="1.5" stroke-linecap="round" stroke-linejoin="round"/>
<path d="M21.0001 12H19.9551" stroke="black" stroke-width="1.5" stroke-linecap="round" stroke-linejoin="round"/>
<path fill-rule="evenodd" clip-rule="evenodd" d="M12.4629 8.69189L13.2288 10.2244C13.3048 10.3752 13.4508 10.4793 13.6178 10.5036L15.3339 10.7498C15.6119 10.7867 15.8078 11.0426 15.7708 11.3199C15.7558 11.4337 15.7028 11.5398 15.6198 11.6196L14.3788 12.8115C14.2578 12.9282 14.2008 13.0965 14.2298 13.2629L14.5238 14.9461C14.5688 15.2264 14.3778 15.491 14.0968 15.5367C13.9858 15.5543 13.8728 15.5358 13.7738 15.4832L12.2418 14.6883C12.0908 14.6105 11.9108 14.6105 11.7598 14.6883L10.2268 15.4832C9.97583 15.6165 9.66284 15.5212 9.52984 15.2701C9.47784 15.1709 9.45883 15.0571 9.47683 14.9461L9.76983 13.2629C9.79983 13.0975 9.74385 12.9282 9.62185 12.8115L8.37984 11.6196C8.17884 11.425 8.17184 11.1039 8.36584 10.9015C8.44584 10.8188 8.55182 10.7653 8.66582 10.7507L10.3818 10.5036C10.5498 10.4802 10.6948 10.3761 10.7708 10.2253L11.5388 8.69189C11.6718 8.43699 11.9848 8.33779 12.2398 8.46909C12.3348 8.51869 12.4129 8.59659 12.4629 8.69189Z" stroke="black" stroke-width="1.5" stroke-linecap="round" stroke-linejoin="round"/>
</svg>
