<svg width="24" height="24" viewBox="0 0 24 24" fill="none" xmlns="http://www.w3.org/2000/svg">
<path fill-rule="evenodd" clip-rule="evenodd" d="M6.74639 4.27743L10.4874 5.66842C10.8574 5.80496 11.2694 5.75168 11.5924 5.52632L14.9064 3.21948C15.4384 2.84092 16.1774 2.96415 16.5564 3.4959C16.7124 3.71459 16.7884 3.9788 16.7744 4.24634L16.5554 8.24724C16.5324 8.63912 16.7064 9.01656 17.0194 9.25188L20.1944 11.652C20.7174 12.0583 20.8114 12.8132 20.4054 13.3361C20.2444 13.5426 20.0224 13.6902 19.7704 13.759L15.8974 14.8414C15.5164 14.948 15.2114 15.2333 15.0784 15.6052L13.7294 19.3963C13.5124 20.0224 12.8304 20.3543 12.2034 20.1389C11.9574 20.0524 11.7444 19.8892 11.5984 19.6727L9.42537 16.339C9.21137 16.0104 8.84637 15.8106 8.45537 15.8061L4.4464 15.7495C3.7924 15.7395 3.27139 15.2011 3.28139 14.5483C3.28639 14.2808 3.38138 14.0221 3.55138 13.8157L6.08138 10.6684C6.32938 10.3621 6.41138 9.95348 6.30138 9.57608L5.17339 5.74502C4.99339 5.10003 5.3704 4.43285 6.0154 4.25189C6.2544 4.18529 6.51139 4.19417 6.74639 4.27743Z" stroke="black" stroke-width="1.5" stroke-linecap="round" stroke-linejoin="round"/>
<path d="M18.1836 18.2822L20.7186 20.9998" stroke="black" stroke-width="1.5" stroke-linecap="round" stroke-linejoin="round"/>
</svg>
