<svg width="24" height="24" viewBox="0 0 24 24" fill="none" xmlns="http://www.w3.org/2000/svg">
<path fill-rule="evenodd" clip-rule="evenodd" d="M3.43804 5.52363C4.22828 4.67608 5.34979 4.20703 6.66032 4.20703H17.3397C18.6531 4.20703 19.775 4.67577 20.5649 5.52399C21.349 6.36618 21.75 7.5216 21.75 8.80319V15.1956C21.75 16.4776 21.3491 17.6333 20.5647 18.4757C19.7747 19.3241 18.6525 19.7928 17.3387 19.7928H6.66032C5.34687 19.7928 4.22492 19.324 3.4351 18.4756C2.65092 17.6333 2.25 16.4776 2.25 15.1956V8.80319C2.25 7.52065 2.65324 6.36535 3.43804 5.52363ZM4.53515 6.54654C4.05217 7.06455 3.75 7.83233 3.75 8.80319V15.1956C3.75 16.168 4.05108 16.9359 4.53298 17.4535C5.00924 17.9651 5.71745 18.2928 6.66032 18.2928H17.3387C18.2822 18.2928 18.9906 17.9651 19.4669 17.4535C19.9489 16.9359 20.25 16.168 20.25 15.1956V8.80319C20.25 7.83138 19.949 7.06372 19.4671 6.54618C18.9908 6.03468 18.2826 5.70703 17.3397 5.70703H6.66032C5.72135 5.70703 5.01269 6.03436 4.53515 6.54654Z" fill="black"/>
<path fill-rule="evenodd" clip-rule="evenodd" d="M5.17261 9.8067C5.17261 9.39249 5.50839 9.0567 5.92261 9.0567H8.61482C8.90371 9.0567 9.16692 9.22262 9.2915 9.48327C9.41608 9.74392 9.37989 10.0529 9.19845 10.2777L8.33105 11.3524C8.95162 11.7628 9.36093 12.4669 9.36093 13.2666C9.36093 14.5325 8.33403 15.5588 7.0678 15.5588C6.43549 15.5588 5.85998 15.3023 5.44487 14.8857C5.15249 14.5923 5.15331 14.1175 5.44671 13.8251C5.74012 13.5327 6.21499 13.5335 6.50737 13.8269C6.65075 13.9708 6.84778 14.0588 7.0678 14.0588C7.50622 14.0588 7.86093 13.7034 7.86093 13.2666C7.86093 12.8285 7.50591 12.4735 7.0678 12.4735C6.77891 12.4735 6.5157 12.3075 6.39112 12.0469C6.26654 11.7862 6.30273 11.4772 6.48417 11.2524L7.04569 10.5567H5.92261C5.50839 10.5567 5.17261 10.2209 5.17261 9.8067Z" fill="black"/>
<path fill-rule="evenodd" clip-rule="evenodd" d="M13.2566 9.21582C13.5809 9.4736 13.6347 9.94541 13.377 10.2696L11.3425 12.8286C11.0847 13.1528 10.6129 13.2066 10.2887 12.9489C9.96442 12.6911 9.91056 12.2193 10.1683 11.8951L12.2028 9.33614C12.4606 9.01191 12.9324 8.95804 13.2566 9.21582Z" fill="black"/>
<path fill-rule="evenodd" clip-rule="evenodd" d="M9.74121 13.2171C9.74121 11.969 10.7532 10.957 12.0013 10.957C13.2493 10.957 14.2613 11.969 14.2613 13.2171C14.2613 14.4651 13.2493 15.4771 12.0013 15.4771C10.7532 15.4771 9.74121 14.4651 9.74121 13.2171ZM12.0013 12.457C11.5816 12.457 11.2412 12.7975 11.2412 13.2171C11.2412 13.6367 11.5816 13.9771 12.0013 13.9771C12.4209 13.9771 12.7613 13.6367 12.7613 13.2171C12.7613 12.7975 12.4209 12.457 12.0013 12.457Z" fill="black"/>
<path fill-rule="evenodd" clip-rule="evenodd" d="M16.7311 10.5567C16.4013 10.5567 16.1345 10.8239 16.1345 11.1523V13.3834C16.1345 13.7125 16.402 13.9799 16.7311 13.9799C17.0603 13.9799 17.3277 13.7125 17.3277 13.3834V11.1523C17.3277 10.8239 17.061 10.5567 16.7311 10.5567ZM14.6345 11.1523C14.6345 9.99405 15.5743 9.0567 16.7311 9.0567C17.888 9.0567 18.8277 9.99405 18.8277 11.1523V13.3834C18.8277 14.5409 17.8887 15.4799 16.7311 15.4799C15.5736 15.4799 14.6345 14.5409 14.6345 13.3834V11.1523Z" fill="black"/>
<path fill-rule="evenodd" clip-rule="evenodd" d="M18.2883 7.20531C18.7025 7.20531 19.0383 7.54109 19.0383 7.95531V7.99423C19.0383 8.40844 18.7025 8.74423 18.2883 8.74423C17.8741 8.74423 17.5383 8.40844 17.5383 7.99423V7.95531C17.5383 7.54109 17.8741 7.20531 18.2883 7.20531Z" fill="black"/>
</svg>
