<svg width="24" height="24" viewBox="0 0 24 24" fill="none" xmlns="http://www.w3.org/2000/svg">
<path fill-rule="evenodd" clip-rule="evenodd" d="M10.0531 4.88672C9.5131 4.88672 9.01704 5.17974 8.75577 5.65247C8.61941 5.89892 8.47267 6.15601 8.33439 6.3802C8.20464 6.59056 8.0545 6.81833 7.91229 6.97498L7.89976 6.98846C7.42544 7.48587 6.77718 7.7779 6.09163 7.80505C6.08174 7.80544 6.07184 7.80564 6.06195 7.80564C4.78578 7.80564 3.75168 8.83829 3.75 10.1142V15.756C3.75 17.61 5.25239 19.1129 7.10595 19.1129H16.8941C18.7468 19.1129 20.25 17.6099 20.25 15.756V10.1117C20.25 8.83493 19.2149 7.7998 17.9381 7.7998C17.9291 7.7998 17.9202 7.79964 17.9113 7.79932C17.2233 7.7748 16.5733 7.48074 16.1002 6.98453L16.0884 6.97191C15.946 6.81547 15.8001 6.5915 15.6755 6.38592C15.5427 6.16664 15.4031 5.91561 15.2733 5.67244C15.0137 5.18803 14.5119 4.88672 13.9654 4.88672H10.0531ZM7.44311 4.92658C7.96806 3.97702 8.96638 3.38672 10.0531 3.38672H13.9654C15.0689 3.38672 16.077 3.99591 16.5959 4.96484C16.719 5.1954 16.8449 5.42133 16.9584 5.60865C17.0752 5.80142 17.1551 5.91339 17.1929 5.95681C17.3938 6.16377 17.6665 6.28678 17.9538 6.29983C20.0518 6.30832 21.75 8.01176 21.75 10.1117V15.756C21.75 18.4381 19.5754 20.6129 16.8941 20.6129H7.10595C4.4235 20.6129 2.25 18.4379 2.25 15.756V10.1137C2.25242 8.01547 3.9487 6.31508 6.04447 6.30568C6.33352 6.29116 6.60549 6.1682 6.80679 5.96099C6.84863 5.91291 6.93396 5.79336 7.05772 5.59273C7.17825 5.39732 7.31191 5.1637 7.44311 4.92658Z" fill="black"/>
<path fill-rule="evenodd" clip-rule="evenodd" d="M9.48828 13.7486C9.48828 13.3344 9.82407 12.9986 10.2383 12.9986H13.7595C14.1737 12.9986 14.5095 13.3344 14.5095 13.7486C14.5095 14.1628 14.1737 14.4986 13.7595 14.4986H10.2383C9.82407 14.4986 9.48828 14.1628 9.48828 13.7486Z" fill="black"/>
<path fill-rule="evenodd" clip-rule="evenodd" d="M11.9982 8.96991C12.2963 8.96989 12.5662 9.14644 12.6855 9.41963L15.1287 15.0113C15.2945 15.3909 15.1212 15.833 14.7417 15.9989C14.3621 16.1647 13.92 15.9914 13.7541 15.6119L11.9984 11.5935L10.2434 15.6118C10.0776 15.9914 9.63551 16.1647 9.25592 15.9989C8.87633 15.8331 8.70301 15.391 8.86879 15.0114L11.311 9.41973C11.4303 9.14653 11.7001 8.96993 11.9982 8.96991Z" fill="black"/>
</svg>
