<svg width="24" height="24" viewBox="0 0 24 24" fill="none" xmlns="http://www.w3.org/2000/svg">
<path fill-rule="evenodd" clip-rule="evenodd" d="M12.3841 7.95934C12.7479 8.15746 12.8822 8.61296 12.6841 8.97672L11.4363 11.2676H13.8546C14.1191 11.2676 14.3641 11.4069 14.4993 11.6343C14.6345 11.8616 14.6399 12.1434 14.5136 12.3758L12.6639 15.7783C12.4661 16.1422 12.0107 16.2769 11.6468 16.0791C11.2829 15.8812 11.1482 15.4258 11.3461 15.0619L12.5933 12.7676H10.1738C9.90921 12.7676 9.66417 12.6281 9.52902 12.4006C9.39387 12.1731 9.38861 11.8913 9.51518 11.6589L11.3668 8.25926C11.5649 7.8955 12.0204 7.76122 12.3841 7.95934Z" fill="black"/>
<path fill-rule="evenodd" clip-rule="evenodd" d="M6.52473 14.835C6.9283 14.9283 7.17979 15.3311 7.08646 15.7347L6.45888 18.4483C6.41406 18.6422 6.29407 18.8102 6.12531 18.9156C5.95656 19.0209 5.75286 19.0549 5.55905 19.01L2.8308 18.3786C2.42726 18.2852 2.17584 17.8823 2.26924 17.4788C2.36264 17.0752 2.7655 16.8238 3.16904 16.9172L5.16648 17.3795L5.62503 15.3967C5.71836 14.9932 6.12117 14.7417 6.52473 14.835Z" fill="black"/>
<path fill-rule="evenodd" clip-rule="evenodd" d="M13.3861 4.17539C10.9056 3.73142 8.25759 4.47363 6.35046 6.39587L6.35045 6.39588C3.30399 9.46634 3.28362 14.401 6.27457 17.4951C6.56246 17.7929 6.55442 18.2677 6.2566 18.5556C5.95879 18.8434 5.48399 18.8354 5.1961 18.5376C1.63886 14.8577 1.66325 8.99031 5.28563 5.33939C7.55455 3.0525 10.7055 2.17178 13.6504 2.69885C14.0581 2.77183 14.3295 3.16152 14.2565 3.56926C14.1835 3.97699 13.7938 4.24837 13.3861 4.17539Z" fill="black"/>
<path fill-rule="evenodd" clip-rule="evenodd" d="M17.5411 5.5528C17.6344 5.14931 18.0371 4.89785 18.4407 4.99111L21.1689 5.6216C21.5725 5.71487 21.824 6.11764 21.7308 6.52121C21.6375 6.92479 21.2347 7.17635 20.8312 7.08308L18.8335 6.62142L18.3749 8.60357C18.2815 9.00713 17.8787 9.25859 17.4752 9.16523C17.0716 9.07187 16.8201 8.66904 16.9135 8.26548L17.5411 5.5528Z" fill="black"/>
<path fill-rule="evenodd" clip-rule="evenodd" d="M17.7435 5.44477C18.0414 5.15693 18.5162 5.16504 18.804 5.46289C22.3611 9.14363 22.3369 15.011 18.7143 18.6611C16.4454 20.9479 13.2945 21.8286 10.3497 21.3016C9.94195 21.2286 9.67057 20.8389 9.74355 20.4311C9.81653 20.0234 10.2062 19.752 10.614 19.825C13.0945 20.269 15.7425 19.5268 17.6496 17.6045L17.6497 17.6044C20.696 14.5351 20.7165 9.60041 17.7254 6.50528C17.4376 6.20742 17.4457 5.73262 17.7435 5.44477Z" fill="black"/>
</svg>
