<svg width="24" height="24" viewBox="0 0 24 24" fill="none" xmlns="http://www.w3.org/2000/svg">
<path fill-rule="evenodd" clip-rule="evenodd" d="M14.5337 17.421C14.5379 17.0068 14.877 16.6744 15.2912 16.6786L21.0074 16.736C21.4216 16.7401 21.754 17.0793 21.7498 17.4935C21.7457 17.9077 21.4065 18.2401 20.9923 18.2359L15.2762 18.1785C14.862 18.1743 14.5296 17.8352 14.5337 17.421Z" fill="black"/>
<path fill-rule="evenodd" clip-rule="evenodd" d="M15.2917 16.6769C15.7059 16.6812 16.0382 17.0205 16.0338 17.4347C16.0281 17.9825 16.2338 18.5294 16.6509 18.9465C17.4738 19.7694 18.8087 19.7698 19.6329 18.9465C20.0393 18.5401 20.245 18.0104 20.25 17.4771C20.254 17.063 20.5929 16.7304 21.0071 16.7343C21.4213 16.7382 21.7539 17.0771 21.75 17.4913C21.7414 18.4019 21.3886 19.3122 20.6936 20.0072L20.6934 20.0074C19.2837 21.4159 16.9993 21.4162 15.5903 20.0072C14.8768 19.2937 14.5241 18.3539 14.5339 17.4189C14.5382 17.0048 14.8775 16.6725 15.2917 16.6769Z" fill="black"/>
<path fill-rule="evenodd" clip-rule="evenodd" d="M15.5904 14.9063C17.0002 13.4967 19.2837 13.4968 20.6934 14.9065C21.4068 15.6199 21.7596 16.5597 21.7498 17.4938C21.7455 17.908 21.4062 18.2402 20.992 18.2359C20.5778 18.2315 20.2455 17.8922 20.2499 17.4781C20.2556 16.9313 20.05 16.3844 19.6328 15.9672C18.8087 15.1431 17.4748 15.1431 16.6508 15.9672L16.6503 15.9677C16.2444 16.3728 16.0387 16.9022 16.0337 17.4356C16.0298 17.8498 15.6908 18.1824 15.2766 18.1785C14.8624 18.1746 14.5298 17.8357 14.5337 17.4215C14.5423 16.511 14.895 15.6006 15.5904 14.9063Z" fill="black"/>
<path fill-rule="evenodd" clip-rule="evenodd" d="M8.53025 3.61462C9.46197 2.3312 11.4916 2.98973 11.4916 4.57582V8.98545H15.6219C16.96 8.98545 17.7314 10.5015 16.9473 11.5834L10.9807 19.8007C10.0494 21.0819 8.01936 20.4264 8.01936 18.8385V14.4298H3.88799C2.55174 14.4298 1.7776 12.914 2.5641 11.8312L8.53025 3.61462C8.53027 3.61459 8.53023 3.61465 8.53025 3.61462ZM9.81145 4.44215C9.79596 4.44668 9.77228 4.45702 9.74409 4.49586L3.77781 12.7126C3.71199 12.8032 3.77648 12.9298 3.88799 12.9298H8.76936C9.18357 12.9298 9.51936 13.2656 9.51936 13.6798V18.8385C9.51936 18.8867 9.5325 18.909 9.54232 18.9217C9.55567 18.939 9.57961 18.9579 9.61374 18.9689C9.64789 18.98 9.67853 18.9788 9.6997 18.9727C9.71534 18.9681 9.73901 18.9577 9.7671 18.9191C9.7671 18.9191 9.7671 18.919 9.7671 18.9191L15.7327 10.7032C15.7326 10.7033 15.7328 10.7031 15.7327 10.7032C15.7986 10.6118 15.7335 10.4855 15.6219 10.4855H10.7416C10.3273 10.4855 9.99155 10.1497 9.99155 9.73545V4.57582C9.99155 4.52804 9.97853 4.50588 9.96869 4.49316C9.95531 4.47587 9.93132 4.45695 9.89717 4.44587C9.86302 4.43478 9.83248 4.43599 9.81145 4.44215Z" fill="black"/>
</svg>
