<svg width="24" height="24" viewBox="0 0 24 24" fill="none" xmlns="http://www.w3.org/2000/svg">
<path fill-rule="evenodd" clip-rule="evenodd" d="M15.1001 2.99805C15.1001 2.58383 15.4359 2.24805 15.8501 2.24805H17.1072C19.6717 2.24805 21.75 4.32643 21.75 6.89091V8.46809C21.75 8.88231 21.4142 9.21809 21 9.21809C20.5858 9.21809 20.25 8.88231 20.25 8.46809V6.89091C20.25 5.15485 18.8432 3.74805 17.1072 3.74805H15.8501C15.4359 3.74805 15.1001 3.41226 15.1001 2.99805Z" fill="black"/>
<path fill-rule="evenodd" clip-rule="evenodd" d="M6.89286 3.74805C5.15681 3.74805 3.75 5.15485 3.75 6.89091V8.46809C3.75 8.88231 3.41421 9.21809 3 9.21809C2.58579 9.21809 2.25 8.88231 2.25 8.46809V6.89091C2.25 4.32643 4.32838 2.24805 6.89286 2.24805H8.18205C8.59626 2.24805 8.93205 2.58383 8.93205 2.99805C8.93205 3.41226 8.59626 3.74805 8.18205 3.74805H6.89286Z" fill="black"/>
<path fill-rule="evenodd" clip-rule="evenodd" d="M3 14.7827C3.41421 14.7827 3.75 15.1184 3.75 15.5327V17.1098C3.75 18.8448 5.15668 20.2517 6.89286 20.2517H8.14994C8.56415 20.2517 8.89994 20.5875 8.89994 21.0017C8.89994 21.4159 8.56415 21.7517 8.14994 21.7517H6.89286C4.3285 21.7517 2.25 19.6735 2.25 17.1098V15.5327C2.25 15.1184 2.58579 14.7827 3 14.7827Z" fill="black"/>
<path fill-rule="evenodd" clip-rule="evenodd" d="M20.9999 14.7827C21.4141 14.7827 21.7499 15.1184 21.7499 15.5327V17.1098C21.7499 19.6735 19.6714 21.7517 17.1071 21.7517H15.8179C15.4037 21.7517 15.0679 21.4159 15.0679 21.0017C15.0679 20.5875 15.4037 20.2517 15.8179 20.2517H17.1071C18.8432 20.2517 20.2499 18.8448 20.2499 17.1098V15.5327C20.2499 15.1184 20.5857 14.7827 20.9999 14.7827Z" fill="black"/>
<path fill-rule="evenodd" clip-rule="evenodd" d="M6.40601 12.0018C6.40601 11.5876 6.74179 11.2518 7.15601 11.2518H16.8439C17.2581 11.2518 17.5939 11.5876 17.5939 12.0018C17.5939 12.416 17.2581 12.7518 16.8439 12.7518H7.15601C6.74179 12.7518 6.40601 12.416 6.40601 12.0018Z" fill="black"/>
<path fill-rule="evenodd" clip-rule="evenodd" d="M11.9992 8.68892C10.1707 8.68892 8.68896 10.1706 8.68896 11.9991C8.68896 13.8278 10.1709 15.3103 11.9992 15.3103C13.8277 15.3103 15.3104 13.8276 15.3104 11.9991C15.3104 10.1709 13.8279 8.68892 11.9992 8.68892ZM7.18896 11.9991C7.18896 9.34222 9.34226 7.18892 11.9992 7.18892C14.6559 7.18892 16.8104 9.34198 16.8104 11.9991C16.8104 14.656 14.6561 16.8103 11.9992 16.8103C9.34203 16.8103 7.18896 14.6558 7.18896 11.9991Z" fill="black"/>
</svg>
