<svg width="24" height="24" viewBox="0 0 24 24" fill="none" xmlns="http://www.w3.org/2000/svg">
<path fill-rule="evenodd" clip-rule="evenodd" d="M15.1001 2.99805C15.1001 2.58383 15.4359 2.24805 15.8501 2.24805H17.1072C19.6717 2.24805 21.75 4.32643 21.75 6.89091V8.46809C21.75 8.88231 21.4142 9.21809 21 9.21809C20.5858 9.21809 20.25 8.88231 20.25 8.46809V6.89091C20.25 5.15485 18.8432 3.74805 17.1072 3.74805H15.8501C15.4359 3.74805 15.1001 3.41226 15.1001 2.99805Z" fill="black"/>
<path fill-rule="evenodd" clip-rule="evenodd" d="M6.89286 3.74805C5.15681 3.74805 3.75 5.15485 3.75 6.89091V8.46809C3.75 8.88231 3.41421 9.21809 3 9.21809C2.58579 9.21809 2.25 8.88231 2.25 8.46809V6.89091C2.25 4.32643 4.32838 2.24805 6.89286 2.24805H8.18205C8.59626 2.24805 8.93205 2.58383 8.93205 2.99805C8.93205 3.41226 8.59626 3.74805 8.18205 3.74805H6.89286Z" fill="black"/>
<path fill-rule="evenodd" clip-rule="evenodd" d="M3 14.7827C3.41421 14.7827 3.75 15.1184 3.75 15.5327V17.1098C3.75 18.8448 5.15668 20.2517 6.89286 20.2517H8.14994C8.56415 20.2517 8.89994 20.5875 8.89994 21.0017C8.89994 21.4159 8.56415 21.7517 8.14994 21.7517H6.89286C4.3285 21.7517 2.25 19.6735 2.25 17.1098V15.5327C2.25 15.1184 2.58579 14.7827 3 14.7827Z" fill="black"/>
<path fill-rule="evenodd" clip-rule="evenodd" d="M20.9999 14.7827C21.4141 14.7827 21.7499 15.1184 21.7499 15.5327V17.1098C21.7499 19.6735 19.6714 21.7517 17.1071 21.7517H15.8179C15.4037 21.7517 15.0679 21.4159 15.0679 21.0017C15.0679 20.5875 15.4037 20.2517 15.8179 20.2517H17.1071C18.8432 20.2517 20.2499 18.8448 20.2499 17.1098V15.5327C20.2499 15.1184 20.5857 14.7827 20.9999 14.7827Z" fill="black"/>
<path fill-rule="evenodd" clip-rule="evenodd" d="M9.80047 10.3498C8.8891 10.3498 8.15112 11.0876 8.15112 11.9982C8.15112 12.9092 8.8895 13.6475 9.80047 13.6475H14.1993C15.1102 13.6475 15.8486 12.9092 15.8486 11.9982C15.8486 11.0876 15.1106 10.3498 14.1993 10.3498H9.80047ZM6.65112 11.9982C6.65112 10.2584 8.06147 8.84981 9.80047 8.84981H14.1993C15.9383 8.84981 17.3486 10.2584 17.3486 11.9982C17.3486 13.7376 15.9387 15.1475 14.1993 15.1475H9.80047C8.06107 15.1475 6.65112 13.7376 6.65112 11.9982Z" fill="black"/>
</svg>
