<svg width="24" height="24" viewBox="0 0 24 24" fill="none" xmlns="http://www.w3.org/2000/svg">
<path fill-rule="evenodd" clip-rule="evenodd" d="M11.2712 13.4922C10.1792 12.5349 8.57061 12.458 7.39365 13.3131L3.44433 16.1802C3.10913 16.4236 2.64013 16.3491 2.39679 16.0139C2.15344 15.6787 2.22791 15.2097 2.5631 14.9664L6.51197 12.0996C6.5119 12.0996 6.51205 12.0995 6.51197 12.0996C8.25933 10.8302 10.6469 10.9469 12.264 12.3677L12.2699 12.3729L19.9637 19.2755C20.272 19.5522 20.2977 20.0263 20.0211 20.3346C19.7445 20.643 19.2703 20.6687 18.962 20.3921L11.2712 13.4922Z" fill="black"/>
<path fill-rule="evenodd" clip-rule="evenodd" d="M21.4592 14.8787C21.4757 14.8939 21.4917 14.9087 21.5075 14.9231C21.8125 15.2034 21.8326 15.6778 21.5523 15.9828C21.2721 16.2878 20.7976 16.3079 20.4926 16.0277C20.0557 15.6262 19.6101 15.2193 19.0922 14.9942C18.6257 14.7915 18.0989 14.7357 17.4364 15.0922C16.5468 15.5738 15.7595 16.0778 15.3246 16.3702C14.9809 16.6014 14.5149 16.5101 14.2837 16.1664C14.0526 15.8227 14.1438 15.3566 14.4876 15.1255C14.9498 14.8147 15.7795 14.2834 16.7231 13.7726L16.7246 13.7718L16.7246 13.7718C17.8367 13.173 18.8503 13.2535 19.6901 13.6185C20.4478 13.9479 21.0562 14.5078 21.4592 14.8787Z" fill="black"/>
<path fill-rule="evenodd" clip-rule="evenodd" d="M4.8369 4.92391C4.16026 5.64928 3.75 6.71082 3.75 8.02738V15.9742C3.75 17.2918 4.15845 18.3532 4.83363 19.0781C5.5032 19.797 6.49089 20.2458 7.77823 20.2458H16.2117C17.4992 20.2458 18.4897 19.7968 19.1619 19.0773C19.8394 18.3521 20.2496 17.2908 20.2496 15.9742V10.9517C20.2496 10.5375 20.5854 10.2017 20.9996 10.2017C21.4138 10.2017 21.7496 10.5375 21.7496 10.9517V15.9742C21.7496 17.6025 21.2383 19.052 20.258 20.1013C19.2724 21.1563 17.869 21.7458 16.2117 21.7458H7.77823C6.12078 21.7458 4.71935 21.1562 3.73601 20.1005C2.75827 19.0508 2.25 17.6014 2.25 15.9742V8.02738C2.25 6.39915 2.76132 4.94993 3.74004 3.90074C4.72413 2.84577 6.12511 2.25586 7.77823 2.25586H11.9784C12.3926 2.25586 12.7284 2.59165 12.7284 3.00586C12.7284 3.42007 12.3926 3.75586 11.9784 3.75586H7.77823C6.4963 3.75586 5.50816 4.20431 4.8369 4.92391Z" fill="black"/>
<path fill-rule="evenodd" clip-rule="evenodd" d="M18.3691 2.32809C18.7834 2.32809 19.1191 2.66387 19.1191 3.07809V7.95266C19.1191 8.36688 18.7834 8.70266 18.3691 8.70266C17.9549 8.70266 17.6191 8.36688 17.6191 7.95266V3.07809C17.6191 2.66387 17.9549 2.32809 18.3691 2.32809Z" fill="black"/>
<path fill-rule="evenodd" clip-rule="evenodd" d="M15.1824 5.51479C15.1824 5.10058 15.5182 4.76479 15.9324 4.76479H20.8079C21.2221 4.76479 21.5579 5.10058 21.5579 5.51479C21.5579 5.92901 21.2221 6.26479 20.8079 6.26479H15.9324C15.5182 6.26479 15.1824 5.92901 15.1824 5.51479Z" fill="black"/>
</svg>
