<svg width="24" height="24" viewBox="0 0 24 24" fill="none" xmlns="http://www.w3.org/2000/svg">
<path fill-rule="evenodd" clip-rule="evenodd" d="M9.87597 12.2644C9.38813 11.5796 8.35995 11.6143 7.91942 12.3297L4.14343 18.4611C3.66131 19.244 4.22419 20.2514 5.14337 20.2514H18.8556C19.7738 20.2514 20.3362 19.2462 19.8576 18.4647L18.004 15.4343C18.004 15.4342 18.004 15.4343 18.004 15.4343C17.5873 14.7536 16.6265 14.6776 16.1076 15.2851C14.9779 16.6099 12.904 16.5179 11.895 15.1001L9.87597 12.2644C9.87599 12.2645 9.87595 12.2644 9.87597 12.2644ZM6.64218 11.5431C7.64579 9.91336 9.98722 9.83491 11.0978 11.3943L13.117 14.2303C13.5602 14.853 14.4709 14.893 14.9665 14.3115C16.1468 12.9297 18.3341 13.1 19.2834 14.6513L21.1368 17.6813C21.1368 17.6812 21.1369 17.6814 21.1368 17.6813C22.2275 19.463 20.9449 21.7514 18.8556 21.7514H5.14337C3.05082 21.7514 1.76841 19.4571 2.8662 17.6746M2.8662 17.6746L6.64218 11.5431C6.64217 11.5431 6.64218 11.5431 6.64218 11.5431" fill="black"/>
<path fill-rule="evenodd" clip-rule="evenodd" d="M13.3691 5.7587C13.3691 3.82113 14.9403 2.25 16.8778 2.25C18.8154 2.25 20.3865 3.82113 20.3865 5.7587C20.3865 7.69626 18.8154 9.2674 16.8778 9.2674C14.9403 9.2674 13.3691 7.69626 13.3691 5.7587ZM16.8778 3.75C15.7687 3.75 14.8691 4.64956 14.8691 5.7587C14.8691 6.86784 15.7687 7.7674 16.8778 7.7674C17.987 7.7674 18.8865 6.86784 18.8865 5.7587C18.8865 4.64956 17.987 3.75 16.8778 3.75Z" fill="black"/>
</svg>
