<svg width="24" height="24" viewBox="0 0 24 24" fill="none" xmlns="http://www.w3.org/2000/svg">
<path fill-rule="evenodd" clip-rule="evenodd" d="M5.82431 4.53276C6.21833 4.40501 6.64131 4.62087 6.76906 5.01489L8.50095 10.3565L10.0967 15.2798C10.2244 15.6739 10.0085 16.0968 9.61443 16.2245C9.2204 16.3522 8.79744 16.1363 8.66973 15.7423L5.34218 5.47752C5.21443 5.08349 5.43029 4.66051 5.82431 4.53276Z" fill="black"/>
<path fill-rule="evenodd" clip-rule="evenodd" d="M17.1626 3.79499C17.4057 4.13034 17.3309 4.5993 16.9956 4.84243L8.22889 11.1961C7.89345 11.4391 7.42452 11.3642 7.18151 11.0287C6.9385 10.6933 7.01342 10.2244 7.34886 9.98137L16.1151 3.62801C16.4505 3.38488 16.9194 3.45964 17.1626 3.79499Z" fill="black"/>
<path fill-rule="evenodd" clip-rule="evenodd" d="M11.2759 7.17901C11.5182 6.84309 11.987 6.76724 12.3229 7.00959L16.5845 10.0842C16.6146 10.1059 16.6427 10.1296 16.6689 10.155L21.2072 13.4417C21.5427 13.6847 21.6177 14.1536 21.3748 14.4891C21.1318 14.8246 20.6629 14.8996 20.3274 14.6566L15.7058 11.3096C15.6765 11.2884 15.649 11.2653 15.6235 11.2405L11.4453 8.22605C11.1094 7.9837 11.0335 7.51492 11.2759 7.17901Z" fill="black"/>
<path fill-rule="evenodd" clip-rule="evenodd" d="M16.1468 9.94257C16.561 9.94257 16.8968 10.2784 16.8968 10.6926V10.7023C16.8968 10.7811 16.8844 10.8594 16.86 10.9344L13.5227 21.1895C13.3945 21.5834 12.9713 21.7988 12.5774 21.6706C12.1836 21.5424 11.9682 21.1192 12.0963 20.7253L15.4152 10.527C15.4906 10.1924 15.7895 9.94257 16.1468 9.94257Z" fill="black"/>
<path fill-rule="evenodd" clip-rule="evenodd" d="M3.01025 15.6182C3.01025 15.204 3.34604 14.8682 3.76025 14.8682H14.5116C14.9258 14.8682 15.2616 15.204 15.2616 15.6182C15.2616 16.0325 14.9258 16.3682 14.5116 16.3682H3.76025C3.34604 16.3682 3.01025 16.0325 3.01025 15.6182Z" fill="black"/>
<path fill-rule="evenodd" clip-rule="evenodd" d="M12 3.75C7.44335 3.75 3.75 7.44421 3.75 12C3.75 16.5567 7.44329 20.25 12 20.25C16.5567 20.25 20.25 16.5567 20.25 12C20.25 7.44421 16.5567 3.75 12 3.75ZM2.25 12C2.25 6.61589 6.61481 2.25 12 2.25C17.3852 2.25 21.75 6.61589 21.75 12C21.75 17.3851 17.3851 21.75 12 21.75C6.61487 21.75 2.25 17.3851 2.25 12Z" fill="black"/>
</svg>
