<svg width="24" height="24" viewBox="0 0 24 24" fill="none" xmlns="http://www.w3.org/2000/svg">
<path d="M8.34452 20.9869C4.981 20.9869 3 19.0088 3 15.654V8.34112C3 4.99023 4.23193 3.01311 7.58768 3.01311H9.46278C10.1361 3.01311 10.7695 3.33081 11.1737 3.86905L12.0296 5.00772C12.4348 5.54499 13.0682 5.86269 13.7415 5.86366H16.3948C19.7584 5.86366 21 7.57554 21 10.9993L20.9738 12.8414" stroke="black" stroke-width="1.5" stroke-linecap="round" stroke-linejoin="round"/>
<path d="M17.2769 19.496L18.7702 20.9863M15.2581 14.3555C16.8972 14.3555 18.2253 15.6846 18.2253 17.3226C18.2253 18.9616 16.8972 20.2897 15.2581 20.2897C13.6191 20.2897 12.291 18.9616 12.291 17.3226C12.291 15.6846 13.6191 14.3555 15.2581 14.3555Z" stroke="black" stroke-width="1.5" stroke-linecap="round" stroke-linejoin="round"/>
</svg>
