<svg width="24" height="24" viewBox="0 0 24 24" fill="none" xmlns="http://www.w3.org/2000/svg">
<path fill-rule="evenodd" clip-rule="evenodd" d="M13.741 7.23218C13.514 7.23118 13.291 7.19518 13.08 7.12618C12.477 6.92918 12.038 6.40418 11.834 5.80418L11.368 4.43918C11.163 3.83918 10.725 3.31318 10.122 3.11718C9.911 3.04918 9.689 3.01318 9.462 3.01318H7.587C4.232 3.01318 3 4.99018 3 8.34118V15.6542C3 19.0092 4.981 20.9872 8.344 20.9872H15.641C18.996 20.9872 20.973 19.0092 20.973 15.6542L21 12.3662C21 8.94418 19.758 7.23218 16.394 7.23218H13.741Z" stroke="black" stroke-width="1.5" stroke-linecap="round" stroke-linejoin="round"/>
<path d="M20.9999 15.6587V8.3457C20.9999 4.9907 19.0189 3.0127 15.6559 3.0127H8.35889" stroke="black" stroke-width="1.5" stroke-linecap="round" stroke-linejoin="round"/>
</svg>
