<svg width="24" height="24" viewBox="0 0 24 24" fill="none" xmlns="http://www.w3.org/2000/svg">
<path d="M3.00292 10.2585C4.38352 10.2663 7.12137 10.2508 8.52532 10.2585C8.54186 8.18132 8.55938 6.14691 8.57592 4.03076C9.25892 4.07065 9.90495 4.05411 10.5315 4.15724C11.2622 4.27886 11.7059 4.82176 12.0143 5.45612C12.7206 6.91164 13.4231 8.36813 14.0925 9.84018C14.2618 10.2128 14.47 10.3296 14.8631 10.3228C15.9926 10.3052 17.1251 10.2907 18.2528 10.351C19.5565 10.4201 21.1852 11.0583 20.9828 12.6539C20.8223 13.9129 19.4485 14.4626 18.3228 14.4616C14.5916 14.4597 10.8594 14.4451 7.12818 14.377C4.47108 14.3293 3.00876 12.7736 3 10.1058C3 9.86645 3.00778 8.92368 3.00973 8.68433" stroke="black" stroke-width="1.5" stroke-linecap="round" stroke-linejoin="round"/>
<path d="M5.24609 19.9697H18.7563" stroke="black" stroke-width="1.5" stroke-linecap="round" stroke-linejoin="round"/>
</svg>
