<svg width="24" height="24" viewBox="0 0 24 24" fill="none" xmlns="http://www.w3.org/2000/svg">
<path d="M3.57308 12.2016C4.77858 11.7005 7.15944 10.6789 8.3844 10.1691C7.63522 8.35254 6.90063 6.57395 6.13685 4.72337C6.74592 4.5064 7.30246 4.2544 7.88721 4.11429C8.56829 3.95181 9.15499 4.26024 9.65704 4.70002C10.8081 5.70801 11.9562 6.71892 13.0809 7.75513C13.366 8.01784 13.5907 8.04216 13.9303 7.89232C14.9081 7.46032 15.8899 7.03125 16.894 6.66833C18.0557 6.24898 19.7097 6.2052 20.1203 7.67049C20.4443 8.82637 19.449 9.81101 18.4682 10.2245C15.2166 11.5964 11.9591 12.9576 8.68407 14.2711C6.34993 15.2071 4.50421 14.3908 3.5147 12.0693C3.42616 11.8611 3.08659 11.037 3 10.8278" stroke="black" stroke-width="1.5" stroke-linecap="round" stroke-linejoin="round"/>
<path d="M4.86523 19.3643H12.1401" stroke="black" stroke-width="1.5" stroke-linecap="round" stroke-linejoin="round"/>
<path fill-rule="evenodd" clip-rule="evenodd" d="M19.7981 19.9305H17.3745C16.7099 19.9305 16.1719 19.3924 16.1719 18.7279V17.3677C16.1719 16.7032 16.7099 16.1641 17.3745 16.1641H19.7981C20.4627 16.1641 21.0007 16.7032 21.0007 17.3677V18.7279C21.0007 19.3924 20.4627 19.9305 19.7981 19.9305Z" stroke="black" stroke-width="1.5" stroke-linecap="round" stroke-linejoin="round"/>
<path d="M20.0333 16.1878V15.2927C20.0235 14.4939 19.3677 13.8546 18.5689 13.8644C17.7867 13.8741 17.1533 14.5046 17.1406 15.2868V16.1878" stroke="black" stroke-width="1.5" stroke-linecap="round" stroke-linejoin="round"/>
</svg>
