<svg width="24" height="24" viewBox="0 0 24 24" fill="none" xmlns="http://www.w3.org/2000/svg">
<path d="M3.60035 12.5073C4.86332 11.9819 7.35714 10.9116 8.64054 10.3784C7.85533 8.47516 7.08665 6.61184 6.28586 4.6736C6.92415 4.44689 7.50699 4.18223 8.11901 4.03531C8.8332 3.86503 9.44814 4.18904 9.97357 4.64928C11.1791 5.705 12.3827 6.7646 13.5611 7.84951C13.8588 8.12487 14.0943 8.15017 14.4504 7.99254C15.475 7.54107 16.5025 7.09154 17.5553 6.71109C18.7715 6.27129 20.5045 6.22653 20.9345 7.76097C21.2741 8.97139 20.232 10.0028 19.2045 10.4367C15.798 11.8729 12.3857 13.2984 8.95385 14.6762C6.50965 15.656 4.57628 14.7997 3.53905 12.3682C3.44564 12.1502 3.09049 11.2872 3 11.0682" stroke="black" stroke-width="1.5" stroke-linecap="round" stroke-linejoin="round"/>
<path d="M4.95508 20.0107H19.0443" stroke="black" stroke-width="1.5" stroke-linecap="round" stroke-linejoin="round"/>
</svg>
