<svg width="24" height="24" viewBox="0 0 24 24" fill="none" xmlns="http://www.w3.org/2000/svg">
<path d="M19.3861 19.5546L20.827 12.4933C20.9252 12.0121 20.6594 11.5308 20.1999 11.3576L12.7057 8.53328C12.2511 8.36195 11.7497 8.36195 11.2951 8.53328L3.80078 11.3576C3.34123 11.5308 3.07545 12.0121 3.17362 12.4932L4.61409 19.5546" stroke="black" stroke-width="1.5" stroke-linecap="round" stroke-linejoin="round"/>
<path d="M3.24121 20.4002C3.73521 20.0422 4.16421 19.6353 5.13821 19.6353C6.87821 19.6353 6.88021 20.9333 8.62021 20.9333C10.3592 20.9333 10.3612 19.6353 12.1012 19.6353C13.8422 19.6353 13.8422 20.9333 15.5832 20.9333C17.3252 20.9333 17.3252 19.6353 19.0672 19.6353C19.8942 19.6353 20.3272 19.9272 20.7422 20.2332M19.3712 19.6453V19.6353V19.6453Z" stroke="black" stroke-width="1.5" stroke-linecap="round" stroke-linejoin="round"/>
<path d="M11.9951 8.4585V16.9305" stroke="black" stroke-width="1.5" stroke-linecap="round" stroke-linejoin="round"/>
<path d="M10.1514 3.06689H13.8374" stroke="black" stroke-width="1.5" stroke-linecap="round" stroke-linejoin="round"/>
<path d="M6.83887 9.73676V6.36377C6.83887 5.81177 7.28687 5.36377 7.83887 5.36377H16.1479C16.7009 5.36377 17.1479 5.81177 17.1479 6.36377V9.73676" stroke="black" stroke-width="1.5" stroke-linecap="round" stroke-linejoin="round"/>
</svg>
