<svg width="24" height="24" viewBox="0 0 24 24" fill="none" xmlns="http://www.w3.org/2000/svg">
<path fill-rule="evenodd" clip-rule="evenodd" d="M3.04369 11.1783C2.72749 9.09336 4.16159 7.1475 6.24658 6.83227C8.33156 6.51607 10.2774 7.95017 10.5927 10.0352C10.5927 10.0352 10.8651 14.2995 10.9867 16.5898C11.0781 18.3128 9.78804 19.6886 8.22941 19.9221C6.67175 20.1604 5.03139 19.2284 4.60816 17.5569C4.04678 15.3328 3.04369 11.1783 3.04369 11.1783Z" stroke="black" stroke-width="1.5" stroke-linecap="round" stroke-linejoin="round"/>
<path d="M10.8189 13.6834C10.061 9.07565 3.19017 10.2899 3.94905 14.8977" stroke="black" stroke-width="1.5" stroke-linecap="round" stroke-linejoin="round"/>
<path d="M17.7526 4.08471C19.8376 4.39993 21.2717 6.34579 20.9555 8.43078C20.9555 8.43078 19.9524 12.5842 19.39 14.8083C18.9678 16.4808 17.3274 17.4129 15.7698 17.1745C14.2111 16.941 12.9201 15.5653 13.0125 13.8422C13.1341 11.5519 13.4065 7.28759 13.4065 7.28759C13.7218 5.2026 15.6676 3.7685 17.7526 4.08471Z" stroke="black" stroke-width="1.5" stroke-linecap="round" stroke-linejoin="round"/>
<path d="M13.1797 10.935C13.9386 6.32817 20.8084 7.54141 20.0505 12.1492" stroke="black" stroke-width="1.5" stroke-linecap="round" stroke-linejoin="round"/>
</svg>
