<svg width="24" height="24" viewBox="0 0 24 24" fill="none" xmlns="http://www.w3.org/2000/svg">
<path fill-rule="evenodd" clip-rule="evenodd" d="M2.5 12C2.5 6.75586 6.75586 2.5 12 2.5C17.2441 2.5 21.5 6.75586 21.5 12C21.5 17.2441 17.2441 21.5 12 21.5C6.75586 21.5 2.5 17.2441 2.5 12ZM7.9559 10.6621C8.59999 10.0111 9.62674 9.95243 10.3453 10.4983C10.6752 10.7488 11.1457 10.6845 11.3962 10.3547C11.6468 10.0249 11.5825 9.55436 11.2527 9.3038C9.94842 8.31309 8.07755 8.40919 6.89231 9.60434C5.58538 10.9016 5.58997 13.0111 6.89244 14.3135C8.07703 15.4981 9.94543 15.5944 11.249 14.6167C11.5804 14.3682 11.6475 13.8981 11.399 13.5667C11.1505 13.2353 10.6804 13.1682 10.349 13.4167C9.62875 13.9569 8.59769 13.8975 7.9531 13.2529C7.23268 12.5324 7.23638 11.3747 7.95053 10.6674L7.9559 10.6621ZM14.2198 10.6621C14.8638 10.0111 15.8906 9.95243 16.6092 10.4983C16.939 10.7488 17.4095 10.6845 17.6601 10.3547C17.9106 10.0249 17.8463 9.55436 17.5165 9.3038C16.2123 8.31309 14.3414 8.40919 13.1562 9.60435C11.8492 10.9016 11.8538 13.0111 13.1563 14.3135C14.3409 15.4981 16.2093 15.5944 17.5128 14.6167C17.8442 14.3682 17.9114 13.8981 17.6628 13.5667C17.4143 13.2353 16.9442 13.1682 16.6128 13.4167C15.8926 13.9569 14.8615 13.8975 14.217 13.2529C13.4965 12.5324 13.5002 11.3747 14.2144 10.6674L14.2198 10.6621Z" fill="black"/>
</svg>