<svg width="24" height="24" viewBox="0 0 24 24" fill="none" xmlns="http://www.w3.org/2000/svg">
<path d="M13.1682 11.669H10.576V8.79163H13.1682C13.9634 8.79163 14.6074 9.43562 14.6074 10.2308C14.6074 11.0248 13.9636 11.669 13.1682 11.669Z" fill="black"/>
<path fill-rule="evenodd" clip-rule="evenodd" d="M2.5 12C2.5 6.75329 6.75329 2.5 12 2.5C17.2467 2.5 21.5 6.75329 21.5 12C21.5 17.2467 17.2467 21.5 12 21.5C6.75329 21.5 2.5 17.2467 2.5 12ZM9.82601 7.29163C9.4118 7.29163 9.07601 7.62741 9.07601 8.04163V15.9587C9.07601 16.3729 9.4118 16.7087 9.82601 16.7087C10.2402 16.7087 10.576 16.3729 10.576 15.9587V13.169H13.1682C14.7916 13.169 16.1074 11.8537 16.1074 10.2308C16.1074 8.6072 14.7918 7.29163 13.1682 7.29163H9.82601Z" fill="black"/>
</svg>