<svg width="25" height="24" viewBox="0 0 25 24" fill="none" xmlns="http://www.w3.org/2000/svg">
<path opacity="0.4" d="M12.5 3C17.4706 3 21.5 7.02944 21.5 12C21.5 16.9706 17.4706 21 12.5 21C7.52944 21 3.5 16.9706 3.5 12C3.5 7.02944 7.52944 3 12.5 3Z" stroke="black" stroke-width="1.5" stroke-linecap="round" stroke-linejoin="round"/>
<path d="M14.0996 9.3999L16.0996 12.1999M16.0996 12.1999L18.0996 14.9999M16.0996 12.1999L18.0996 9.3999M16.0996 12.1999L14.0997 14.9999" stroke="black" stroke-width="1.5" stroke-linecap="round" stroke-linejoin="round"/>
<path d="M7.09961 9.3999V12.9499C7.09961 14.1925 8.10697 15.1999 9.34961 15.1999C10.5923 15.1999 11.5996 14.1925 11.5996 12.9499V9.3999" stroke="black" stroke-width="1.5" stroke-linecap="round" stroke-linejoin="round"/>
</svg>