<svg width="25" height="25" viewBox="0 0 25 25" fill="none" xmlns="http://www.w3.org/2000/svg">
<path opacity="0.4" d="M20.0991 6.93427C19.7928 6.45157 19.429 5.9948 19.0079 5.57369C18.7926 5.35834 18.5679 5.158 18.3352 4.97266" stroke="black" stroke-width="1.5" stroke-linecap="round" stroke-linejoin="round"/>
<path d="M6.85751 12.2879L10.3101 3.86339C10.3876 3.65215 10.5887 3.51172 10.8137 3.51172H15.4422C15.8124 3.51172 16.0713 3.87784 15.9479 4.22688L13.9011 9.03082C13.7777 9.37986 14.0366 9.74599 14.4068 9.74599H18.7773C19.2383 9.74599 19.4845 10.2891 19.1807 10.6359L10.8824 20.1076C10.5085 20.5344 9.81448 20.1642 9.96067 19.6159L11.5426 13.6836C11.6334 13.3431 11.3767 13.009 11.0243 13.009H7.3611C6.98821 13.009 6.72908 12.6379 6.85751 12.2879Z" stroke="black" stroke-width="1.5" stroke-linecap="round" stroke-linejoin="round"/>
<path opacity="0.4" d="M6.21556 18.2825C2.69117 14.7581 2.69117 9.04393 6.21556 5.51953" stroke="black" stroke-width="1.5" stroke-linecap="round" stroke-linejoin="round"/>
<path opacity="0.4" d="M21.5724 12.8477C21.3642 14.8322 20.4996 16.7609 18.9787 18.2818C17.6539 19.6066 16.0196 20.4334 14.3086 20.7622" stroke="black" stroke-width="1.5" stroke-linecap="round" stroke-linejoin="round"/>
</svg>