<svg width="25" height="25" viewBox="0 0 25 25" fill="none" xmlns="http://www.w3.org/2000/svg">
<path d="M12.8168 19.6719C11.2993 19.6719 10.0691 18.4417 10.0691 16.9242L10.0691 15.6533C10.0691 15.3526 10.3129 15.1087 10.6137 15.1087L15.0199 15.1087C15.3207 15.1087 15.5645 15.3526 15.5645 15.6533L15.5645 16.9242C15.5645 18.4417 14.3343 19.6719 12.8168 19.6719Z" stroke="black" stroke-width="1.5" stroke-linecap="round" stroke-linejoin="round"/>
<path d="M12.8164 19.6719V21.4984" stroke="black" stroke-width="1.5" stroke-linecap="round" stroke-linejoin="round"/>
<path d="M11.3834 15.1094L11.3834 12.9814M14.2498 15.1094L14.2498 12.9814" stroke="black" stroke-width="1.5" stroke-linecap="round" stroke-linejoin="round"/>
<g opacity="0.4">
<path d="M12.8164 3.5V5.32656" stroke="black" stroke-width="1.5" stroke-linecap="round" stroke-linejoin="round"/>
<path d="M17.7839 15.4917C20.5272 12.7484 20.5272 8.30071 17.7839 5.55745C15.0407 2.81418 10.5929 2.81418 7.84968 5.55745C5.10642 8.30071 5.10642 12.7484 7.84968 15.4917" stroke="black" stroke-width="1.5" stroke-linecap="round" stroke-linejoin="round"/>
</g>
<path d="M11.3359 9.77587V9.78125M14.2961 9.77587V9.78125" stroke="black" stroke-width="1.5" stroke-linecap="round" stroke-linejoin="round"/>
</svg>