<svg width="24" height="24" viewBox="0 0 24 24" fill="none" xmlns="http://www.w3.org/2000/svg">
<path d="M5.47514 8.15062C5.91514 8.45062 6.43514 8.62063 7.00514 8.62063C8.51514 8.62063 9.74515 7.39063 9.74515 5.88063C9.74515 4.37063 8.51514 3.14062 7.00514 3.14062C5.49514 3.14062 4.26514 4.37063 4.26514 5.88063" stroke="black" stroke-width="1.5" stroke-linecap="round" stroke-linejoin="round"/>
<path d="M3.51529 17.7706C3.16529 18.5906 2.9953 19.0006 3.0053 19.3406C3.0253 19.9406 3.3753 20.4706 3.9153 20.7206C4.2153 20.8606 4.6653 20.8606 5.5553 20.8606H8.40529C9.29529 20.8606 9.73529 20.8606 10.0453 20.7206C10.5853 20.4806 10.9453 19.9406 10.9653 19.3506C10.9653 19.0206 10.8053 18.6106 10.4553 17.7906L9.0353 14.3806C8.5253 13.1506 8.2653 12.5406 7.9553 12.2906C7.3953 11.8406 6.5953 11.8406 6.0253 12.2906C5.7153 12.5406 5.45529 13.1506 4.93529 14.3806" stroke="black" stroke-width="1.5" stroke-linecap="round" stroke-linejoin="round"/>
<path d="M17.0354 3.14062C15.5254 3.14062 14.2954 4.37063 14.2954 5.88063C14.2954 7.39063 15.5254 8.62063 17.0354 8.62063C18.5454 8.62063 19.7754 7.39063 19.7754 5.88063C19.7754 5.36063 19.6254 4.87063 19.3754 4.46063" stroke="black" stroke-width="1.5" stroke-linecap="round" stroke-linejoin="round"/>
<path d="M19.0751 18.4219C18.5651 19.6519 18.3051 20.2619 17.9951 20.5119C17.4351 20.9619 16.6351 20.9619 16.0651 20.5119C15.7551 20.2619 15.4951 19.6519 14.9751 18.4219L13.5451 15.0119C13.1951 14.1919 13.0251 13.7819 13.0351 13.4419C13.0551 12.8419 13.4051 12.3119 13.9451 12.0619C14.2451 11.9219 14.6951 11.9219 15.5851 11.9219H18.4351C19.3251 11.9219 19.7651 11.9219 20.0751 12.0619C20.6151 12.3019 20.9751 12.8419 20.9951 13.4319C20.9951 13.7619 20.8351 14.1719 20.4851 15.0019" stroke="black" stroke-width="1.5" stroke-linecap="round" stroke-linejoin="round"/>
</svg>