<svg width="24" height="24" viewBox="0 0 24 24" fill="none" xmlns="http://www.w3.org/2000/svg">
<path fill-rule="evenodd" clip-rule="evenodd" d="M5.42456 4.85345C5.83877 4.85345 6.17456 5.18924 6.17456 5.60345V9.04676C6.17481 9.04832 6.17512 9.05011 6.17548 9.05211C6.17943 9.07403 6.19038 9.12222 6.21851 9.18903C6.27274 9.3178 6.4011 9.54053 6.71197 9.78659C7.34473 10.2874 8.79101 10.9258 12 10.9258C15.2089 10.9258 16.6552 10.2874 17.288 9.78659C17.5988 9.54053 17.7272 9.3178 17.7814 9.18903C17.8095 9.12222 17.8205 9.07403 17.8244 9.05211C17.8248 9.05011 17.8251 9.04832 17.8254 9.04676V5.60345C17.8254 5.18924 18.1611 4.85345 18.5754 4.85345C18.9896 4.85345 19.3254 5.18924 19.3254 5.60345V9.0735H18.5754C19.3254 9.0735 19.3254 9.07443 19.3254 9.07538L19.3254 9.07733L19.3253 9.08143L19.3252 9.09042L19.3245 9.1115C19.3239 9.12691 19.3229 9.14503 19.3211 9.16567C19.3176 9.20693 19.3115 9.25839 19.3006 9.31853C19.2789 9.43892 19.2384 9.59404 19.1638 9.7712C19.0126 10.1304 18.73 10.5582 18.2189 10.9627C17.2078 11.763 15.3664 12.4258 12 12.4258C8.63351 12.4258 6.79209 11.763 5.78101 10.9627C5.26994 10.5582 4.98734 10.1304 4.83609 9.7712C4.76149 9.59404 4.72106 9.43892 4.69933 9.31853C4.68847 9.25839 4.68229 9.20693 4.67881 9.16567C4.67707 9.14503 4.67601 9.12691 4.67538 9.1115L4.67474 9.09042L4.6746 9.08143L4.67457 9.07733L4.67456 9.07538C4.67456 9.07443 4.67456 9.0735 5.42456 9.0735H4.67456V5.60345C4.67456 5.18924 5.01035 4.85345 5.42456 4.85345Z" fill="black"/>
<path fill-rule="evenodd" clip-rule="evenodd" d="M5.42383 8.32324C5.83804 8.32324 6.17383 8.65903 6.17383 9.07324V12.5162C6.17408 12.5178 6.17439 12.5196 6.17476 12.5216C6.17872 12.5436 6.18968 12.5919 6.21783 12.6588C6.2721 12.7877 6.40051 13.0106 6.71138 13.2568C7.34413 13.7579 8.79034 14.3966 11.9992 14.3966C15.2081 14.3966 16.6543 13.7579 17.2871 13.2568C17.5979 13.0106 17.7264 12.7877 17.7806 12.6588C17.8088 12.5919 17.8197 12.5436 17.8237 12.5216C17.8241 12.5196 17.8244 12.5178 17.8246 12.5162V9.07324C17.8246 8.65903 18.1604 8.32324 18.5746 8.32324C18.9888 8.32324 19.3246 8.65903 19.3246 9.07324V12.5429H18.5746C19.3246 12.5429 19.3246 12.5438 19.3246 12.5448L19.3246 12.5467L19.3246 12.5508L19.3245 12.5598L19.3238 12.5809C19.3232 12.5963 19.3221 12.6144 19.3204 12.635C19.3169 12.6763 19.3107 12.7278 19.2999 12.7879C19.2782 12.9083 19.2377 13.0635 19.1632 13.2407C19.0119 13.5999 18.7294 14.028 18.2183 14.4327C17.2072 15.2334 15.3657 15.8966 11.9992 15.8966C8.63271 15.8966 6.79122 15.2334 5.78012 14.4327C5.26907 14.028 4.98651 13.5999 4.8353 13.2407C4.76072 13.0635 4.7203 12.9083 4.69858 12.7879C4.68773 12.7278 4.68155 12.6763 4.67808 12.635C4.67634 12.6144 4.67528 12.5963 4.67465 12.5809L4.674 12.5598L4.67387 12.5508L4.67384 12.5467L4.67383 12.5448C4.67383 12.5438 4.67383 12.5429 5.42383 12.5429H4.67383V9.07324C4.67383 8.65903 5.00961 8.32324 5.42383 8.32324Z" fill="black"/>
<path fill-rule="evenodd" clip-rule="evenodd" d="M6.45247 5.13453C6.21306 5.35813 6.17383 5.51507 6.17383 5.59745C6.17383 5.67983 6.21306 5.83677 6.45247 6.06037C6.69308 6.28508 7.08201 6.52198 7.62527 6.73658C8.70736 7.16403 10.2535 7.4449 11.9992 7.4449C13.745 7.4449 15.2911 7.16403 16.3732 6.73658C16.9165 6.52198 17.3054 6.28508 17.546 6.06037C17.7854 5.83677 17.8246 5.67983 17.8246 5.59745C17.8246 5.51507 17.7854 5.35813 17.546 5.13453C17.3054 4.90982 16.9165 4.67293 16.3732 4.45832C15.2911 4.03087 13.745 3.75 11.9992 3.75C10.2535 3.75 8.70736 4.03087 7.62527 4.45832C7.08201 4.67293 6.69308 4.90982 6.45247 5.13453ZM7.07417 3.06323C8.3719 2.55059 10.1135 2.25 11.9992 2.25C13.885 2.25 15.6266 2.55059 16.9243 3.06323C17.5709 3.31867 18.145 3.64148 18.5698 4.03828C18.9959 4.43619 19.3246 4.96257 19.3246 5.59745C19.3246 6.23234 18.9959 6.75871 18.5698 7.15662C18.145 7.55342 17.5709 7.87623 16.9243 8.13167C15.6266 8.64431 13.885 8.9449 11.9992 8.9449C10.1135 8.9449 8.3719 8.64431 7.07417 8.13167C6.42752 7.87623 5.8535 7.55342 5.42864 7.15662C5.00259 6.75871 4.67383 6.23234 4.67383 5.59745C4.67383 4.96257 5.00259 4.43619 5.42864 4.03828C5.8535 3.64148 6.42752 3.31867 7.07417 3.06323Z" fill="black"/>
<path fill-rule="evenodd" clip-rule="evenodd" d="M11.998 18.5566C11.5307 18.5566 11.1514 18.936 11.1514 19.4032C11.1514 19.8705 11.5307 20.2498 11.998 20.2498C12.4652 20.2498 12.8445 19.8705 12.8445 19.4032C12.8445 18.936 12.4652 18.5566 11.998 18.5566ZM9.65137 19.4032C9.65137 18.1075 10.7023 17.0566 11.998 17.0566C13.2936 17.0566 14.3445 18.1075 14.3445 19.4032C14.3445 20.6989 13.2936 21.7498 11.998 21.7498C10.7023 21.7498 9.65137 20.6989 9.65137 19.4032Z" fill="black"/>
<path fill-rule="evenodd" clip-rule="evenodd" d="M5.0498 19.4033C5.0498 18.9891 5.38559 18.6533 5.7998 18.6533H10.4183C10.8325 18.6533 11.1683 18.9891 11.1683 19.4033C11.1683 19.8175 10.8325 20.1533 10.4183 20.1533H5.7998C5.38559 20.1533 5.0498 19.8175 5.0498 19.4033ZM12.8228 19.4033C12.8228 18.9891 13.1586 18.6533 13.5728 18.6533H18.2011C18.6153 18.6533 18.9511 18.9891 18.9511 19.4033C18.9511 19.8175 18.6153 20.1533 18.2011 20.1533H13.5728C13.1586 20.1533 12.8228 19.8175 12.8228 19.4033Z" fill="black"/>
<path fill-rule="evenodd" clip-rule="evenodd" d="M11.999 14.4085C12.4132 14.4085 12.749 14.7443 12.749 15.1585V17.8018C12.749 18.2161 12.4132 18.5518 11.999 18.5518C11.5848 18.5518 11.249 18.2161 11.249 17.8018V15.1585C11.249 14.7443 11.5848 14.4085 11.999 14.4085Z" fill="black"/>
</svg>
