<svg width="24" height="24" viewBox="0 0 24 24" fill="none" xmlns="http://www.w3.org/2000/svg">
<path fill-rule="evenodd" clip-rule="evenodd" d="M6.68478 4.51071C6.30099 4.9924 6.08057 5.775 6.08057 6.94814V11.3983C6.08057 12.4944 6.40126 13.2724 6.90598 13.776C7.41091 14.2798 8.19146 14.6004 9.29136 14.6004H14.6989C15.7948 14.6004 16.5728 14.2802 17.0762 13.7766C17.5797 13.273 17.9 12.4948 17.9 11.3983V11.3924L17.9194 8.91541C17.9191 7.71153 17.695 6.9817 17.3274 6.55131C16.9828 6.14777 16.3843 5.8632 15.2574 5.8632L13.2896 5.8632C12.5552 5.86177 11.8639 5.51545 11.4229 4.92863C11.4229 4.92854 11.423 4.92873 11.4229 4.92863L10.7888 4.08643L10.7878 4.08509C10.63 3.8744 10.3832 3.75071 10.1194 3.75H8.73095C7.63973 3.75 7.04021 4.06462 6.68478 4.51071ZM5.51163 3.57598C6.2347 2.66848 7.33536 2.25 8.73095 2.25H10.1218C10.8557 2.25143 11.5463 2.59638 11.9877 3.18485C11.9875 3.18461 11.9878 3.18508 11.9877 3.18485L12.6215 4.02677C12.7798 4.23742 13.0285 4.36249 13.2919 4.3632H15.2574C16.622 4.3632 17.7296 4.71249 18.4681 5.57716C19.1833 6.41464 19.4194 7.58654 19.4194 8.91832V8.92421L19.4 11.4014C19.3994 12.7904 18.9869 13.9871 18.137 14.8372C17.2864 15.6879 16.0888 16.1004 14.6989 16.1004H9.29136C7.89861 16.1004 6.69877 15.6883 5.84646 14.8378C4.99395 13.9871 4.58057 12.7891 4.58057 11.3983V6.94814C4.58057 5.63935 4.81693 4.44788 5.51163 3.57598Z" fill="black"/>
<path fill-rule="evenodd" clip-rule="evenodd" d="M11.9993 18.7549C11.5865 18.7549 11.252 19.0894 11.252 19.5022C11.252 19.915 11.5865 20.2496 11.9993 20.2496C12.4121 20.2496 12.7466 19.915 12.7466 19.5022C12.7466 19.0894 12.4121 18.7549 11.9993 18.7549ZM9.75195 19.5022C9.75195 18.261 10.7581 17.2549 11.9993 17.2549C13.2405 17.2549 14.2466 18.261 14.2466 19.5022C14.2466 20.7434 13.2405 21.7496 11.9993 21.7496C10.7581 21.7496 9.75195 20.7434 9.75195 19.5022Z" fill="black"/>
<path fill-rule="evenodd" clip-rule="evenodd" d="M5.43359 19.5029C5.43359 19.0887 5.76938 18.7529 6.18359 18.7529H10.4991C10.9133 18.7529 11.2491 19.0887 11.2491 19.5029C11.2491 19.9171 10.9133 20.2529 10.4991 20.2529H6.18359C5.76938 20.2529 5.43359 19.9171 5.43359 19.5029ZM12.7452 19.5029C12.7452 19.0887 13.081 18.7529 13.4952 18.7529H17.8141C18.2284 18.7529 18.5641 19.0887 18.5641 19.5029C18.5641 19.9171 18.2284 20.2529 17.8141 20.2529H13.4952C13.081 20.2529 12.7452 19.9171 12.7452 19.5029Z" fill="black"/>
<path fill-rule="evenodd" clip-rule="evenodd" d="M11.998 14.6133C12.4123 14.6133 12.748 14.9491 12.748 15.3633V18.0009C12.748 18.4151 12.4123 18.7509 11.998 18.7509C11.5838 18.7509 11.248 18.4151 11.248 18.0009V15.3633C11.248 14.9491 11.5838 14.6133 11.998 14.6133Z" fill="black"/>
</svg>
