<svg width="24" height="24" viewBox="0 0 24 24" fill="none" xmlns="http://www.w3.org/2000/svg">
<path fill-rule="evenodd" clip-rule="evenodd" d="M6.72116 14.3624C5.09543 14.3624 3.77734 15.6805 3.77734 17.3062C3.77734 18.9319 5.09543 20.25 6.72116 20.25H17.2788C18.9045 20.25 20.2226 18.9319 20.2226 17.3062C20.2226 15.6805 18.9045 14.3624 17.2788 14.3624H6.72116ZM2.27734 17.3062C2.27734 14.852 4.267 12.8624 6.72116 12.8624H17.2788C19.7329 12.8624 21.7226 14.852 21.7226 17.3062C21.7226 19.7603 19.7329 21.75 17.2788 21.75H6.72116C4.267 21.75 2.27734 19.7603 2.27734 17.3062Z" fill="black"/>
<path fill-rule="evenodd" clip-rule="evenodd" d="M6.72116 3.75C5.09517 3.75 3.77734 5.06737 3.77734 6.69284C3.77734 8.31857 5.09543 9.63666 6.72116 9.63666H17.2788C18.9045 9.63666 20.2226 8.31857 20.2226 6.69284C20.2226 5.06737 18.9048 3.75 17.2788 3.75H6.72116ZM2.27734 6.69284C2.27734 4.23843 4.26726 2.25 6.72116 2.25H17.2788C19.7327 2.25 21.7226 4.23843 21.7226 6.69284C21.7226 9.147 19.7329 11.1367 17.2788 11.1367H6.72116C4.267 11.1367 2.27734 9.147 2.27734 6.69284Z" fill="black"/>
<path fill-rule="evenodd" clip-rule="evenodd" d="M6.64062 17.3057C6.64062 16.8915 6.97641 16.5557 7.39062 16.5557H7.91346C8.32768 16.5557 8.66346 16.8915 8.66346 17.3057C8.66346 17.7199 8.32768 18.0557 7.91346 18.0557H7.39062C6.97641 18.0557 6.64062 17.7199 6.64062 17.3057Z" fill="black"/>
<path fill-rule="evenodd" clip-rule="evenodd" d="M6.64062 6.69336C6.64062 6.27915 6.97641 5.94336 7.39062 5.94336H7.91346C8.32768 5.94336 8.66346 6.27915 8.66346 6.69336C8.66346 7.10757 8.32768 7.44336 7.91346 7.44336H7.39062C6.97641 7.44336 6.64062 7.10757 6.64062 6.69336Z" fill="black"/>
<path fill-rule="evenodd" clip-rule="evenodd" d="M12.3535 17.3057C12.3535 16.8915 12.6893 16.5557 13.1035 16.5557H16.6644C17.0786 16.5557 17.4144 16.8915 17.4144 17.3057C17.4144 17.7199 17.0786 18.0557 16.6644 18.0557H13.1035C12.6893 18.0557 12.3535 17.7199 12.3535 17.3057Z" fill="black"/>
<path fill-rule="evenodd" clip-rule="evenodd" d="M12.3535 6.69336C12.3535 6.27915 12.6893 5.94336 13.1035 5.94336H16.6644C17.0786 5.94336 17.4144 6.27915 17.4144 6.69336C17.4144 7.10757 17.0786 7.44336 16.6644 7.44336H13.1035C12.6893 7.44336 12.3535 7.10757 12.3535 6.69336Z" fill="black"/>
</svg>
