<svg width="24" height="24" viewBox="0 0 24 24" fill="none" xmlns="http://www.w3.org/2000/svg">
<path fill-rule="evenodd" clip-rule="evenodd" d="M6.70508 5.23859C5.07288 5.23859 3.75 6.561 3.75 8.19269C3.75 9.82464 5.07313 11.1478 6.70508 11.1478H17.2949C18.9269 11.1478 20.25 9.82464 20.25 8.19269C20.25 6.561 18.9271 5.23859 17.2949 5.23859H6.70508ZM2.25 8.19269C2.25 5.73206 4.24496 3.73859 6.70508 3.73859H17.2949C19.755 3.73859 21.75 5.73206 21.75 8.19269C21.75 10.6531 19.7553 12.6478 17.2949 12.6478H6.70508C4.24471 12.6478 2.25 10.6531 2.25 8.19269Z" fill="black"/>
<path fill-rule="evenodd" clip-rule="evenodd" d="M6.62695 8.19336C6.62695 7.77915 6.96274 7.44336 7.37695 7.44336H7.90138C8.3156 7.44336 8.65138 7.77915 8.65138 8.19336C8.65138 8.60757 8.3156 8.94336 7.90138 8.94336H7.37695C6.96274 8.94336 6.62695 8.60757 6.62695 8.19336ZM12.3555 8.19336C12.3555 7.77915 12.6913 7.44336 13.1055 7.44336H16.6773C17.0915 7.44336 17.4273 7.77915 17.4273 8.19336C17.4273 8.60757 17.0915 8.94336 16.6773 8.94336H13.1055C12.6913 8.94336 12.3555 8.60757 12.3555 8.19336Z" fill="black"/>
<path fill-rule="evenodd" clip-rule="evenodd" d="M12.0009 17.0488C11.5278 17.0488 11.1445 17.4321 11.1445 17.9052C11.1445 18.3783 11.5278 18.7616 12.0009 18.7616C12.474 18.7616 12.8573 18.3783 12.8573 17.9052C12.8573 17.4321 12.474 17.0488 12.0009 17.0488ZM9.64453 17.9052C9.64453 16.6036 10.6993 15.5488 12.0009 15.5488C13.3025 15.5488 14.3573 16.6036 14.3573 17.9052C14.3573 19.2068 13.3025 20.2616 12.0009 20.2616C10.6993 20.2616 9.64453 19.2068 9.64453 17.9052Z" fill="black"/>
<path fill-rule="evenodd" clip-rule="evenodd" d="M5.00977 17.9043C5.00977 17.4901 5.34555 17.1543 5.75977 17.1543H10.4077C10.8219 17.1543 11.1577 17.4901 11.1577 17.9043C11.1577 18.3185 10.8219 18.6543 10.4077 18.6543H5.75977C5.34555 18.6543 5.00977 18.3185 5.00977 17.9043ZM12.8325 17.9043C12.8325 17.4901 13.1683 17.1543 13.5825 17.1543H18.2401C18.6543 17.1543 18.9901 17.4901 18.9901 17.9043C18.9901 18.3185 18.6543 18.6543 18.2401 18.6543H13.5825C13.1683 18.6543 12.8325 18.3185 12.8325 17.9043Z" fill="black"/>
<path fill-rule="evenodd" clip-rule="evenodd" d="M12 11.2666C12.4142 11.2666 12.75 11.6024 12.75 12.0166V16.2938C12.75 16.708 12.4142 17.0438 12 17.0438C11.5858 17.0438 11.25 16.708 11.25 16.2938V12.0166C11.25 11.6024 11.5858 11.2666 12 11.2666Z" fill="black"/>
</svg>
