<svg width="24" height="24" viewBox="0 0 24 24" fill="none" xmlns="http://www.w3.org/2000/svg">
<path fill-rule="evenodd" clip-rule="evenodd" d="M2.75 12C2.75 9.92893 4.42893 8.25 6.5 8.25H17.5C19.5711 8.25 21.25 9.92893 21.25 12C21.25 14.0711 19.5711 15.75 17.5 15.75H6.5C4.42893 15.75 2.75 14.0711 2.75 12ZM6.5 9.75C5.25736 9.75 4.25 10.7574 4.25 12C4.25 13.2426 5.25736 14.25 6.5 14.25H17.5C18.7426 14.25 19.75 13.2426 19.75 12C19.75 10.7574 18.7426 9.75 17.5 9.75H6.5Z" fill="black"/>
<path fill-rule="evenodd" clip-rule="evenodd" d="M6.88281 12C6.88281 11.5858 7.2186 11.25 7.63281 11.25H7.63458C8.04879 11.25 8.38458 11.5858 8.38458 12C8.38458 12.4142 8.04879 12.75 7.63458 12.75H7.63281C7.2186 12.75 6.88281 12.4142 6.88281 12Z" fill="black"/>
<path fill-rule="evenodd" clip-rule="evenodd" d="M12.2949 12C12.2949 11.5858 12.6307 11.25 13.0449 11.25H15.4453C15.8595 11.25 16.1953 11.5858 16.1953 12C16.1953 12.4142 15.8595 12.75 15.4453 12.75H13.0449C12.6307 12.75 12.2949 12.4142 12.2949 12Z" fill="black"/>
<path fill-rule="evenodd" clip-rule="evenodd" d="M2.75 18C2.75 15.9289 4.42893 14.25 6.5 14.25H17.5C19.5711 14.25 21.25 15.9289 21.25 18C21.25 20.0711 19.5711 21.75 17.5 21.75H6.5C4.42893 21.75 2.75 20.0711 2.75 18ZM6.5 15.75C5.25736 15.75 4.25 16.7574 4.25 18C4.25 19.2426 5.25736 20.25 6.5 20.25H17.5C18.7426 20.25 19.75 19.2426 19.75 18C19.75 16.7574 18.7426 15.75 17.5 15.75H6.5Z" fill="black"/>
<path fill-rule="evenodd" clip-rule="evenodd" d="M6.88281 18C6.88281 17.5858 7.2186 17.25 7.63281 17.25H7.63458C8.04879 17.25 8.38458 17.5858 8.38458 18C8.38458 18.4142 8.04879 18.75 7.63458 18.75H7.63281C7.2186 18.75 6.88281 18.4142 6.88281 18Z" fill="black"/>
<path fill-rule="evenodd" clip-rule="evenodd" d="M12.2949 18C12.2949 17.5858 12.6307 17.25 13.0449 17.25H15.4453C15.8595 17.25 16.1953 17.5858 16.1953 18C16.1953 18.4142 15.8595 18.75 15.4453 18.75H13.0449C12.6307 18.75 12.2949 18.4142 12.2949 18Z" fill="black"/>
<path fill-rule="evenodd" clip-rule="evenodd" d="M2.75 6C2.75 3.92893 4.42893 2.25 6.5 2.25H17.5C19.5711 2.25 21.25 3.92893 21.25 6C21.25 8.07107 19.5711 9.75 17.5 9.75H6.5C4.42893 9.75 2.75 8.07107 2.75 6ZM6.5 3.75C5.25736 3.75 4.25 4.75736 4.25 6C4.25 7.24264 5.25736 8.25 6.5 8.25H17.5C18.7426 8.25 19.75 7.24264 19.75 6C19.75 4.75736 18.7426 3.75 17.5 3.75H6.5Z" fill="black"/>
<path fill-rule="evenodd" clip-rule="evenodd" d="M6.88281 6C6.88281 5.58579 7.2186 5.25 7.63281 5.25H7.63458C8.04879 5.25 8.38458 5.58579 8.38458 6C8.38458 6.41421 8.04879 6.75 7.63458 6.75H7.63281C7.2186 6.75 6.88281 6.41421 6.88281 6Z" fill="black"/>
<path fill-rule="evenodd" clip-rule="evenodd" d="M12.2949 6C12.2949 5.58579 12.6307 5.25 13.0449 5.25H15.4453C15.8595 5.25 16.1953 5.58579 16.1953 6C16.1953 6.41421 15.8595 6.75 15.4453 6.75H13.0449C12.6307 6.75 12.2949 6.41421 12.2949 6Z" fill="black"/>
</svg>
