<svg width="24" height="24" viewBox="0 0 24 24" fill="none" xmlns="http://www.w3.org/2000/svg">
<path fill-rule="evenodd" clip-rule="evenodd" d="M2.27734 16.5224C2.27734 14.501 3.916 12.8624 5.93739 12.8624H18.0626C20.0839 12.8624 21.7226 14.501 21.7226 16.5224V18.0899C21.7226 20.1113 20.0839 21.75 18.0626 21.75H5.93739C3.916 21.75 2.27734 20.1113 2.27734 18.09V16.5224ZM5.93739 14.3624C4.74443 14.3624 3.77734 15.3295 3.77734 16.5224V18.09C3.77734 19.2829 4.74443 20.25 5.93739 20.25H18.0626C19.2555 20.25 20.2226 19.2829 20.2226 18.0899V16.5224C20.2226 15.3294 19.2555 14.3624 18.0626 14.3624H5.93739Z" fill="black"/>
<path fill-rule="evenodd" clip-rule="evenodd" d="M6.64062 17.3057C6.64062 16.8915 6.97641 16.5557 7.39062 16.5557H7.91346C8.32768 16.5557 8.66346 16.8915 8.66346 17.3057C8.66346 17.7199 8.32768 18.0557 7.91346 18.0557H7.39062C6.97641 18.0557 6.64062 17.7199 6.64062 17.3057ZM12.3527 17.3057C12.3527 16.8915 12.6885 16.5557 13.1027 16.5557H16.6636C17.0778 16.5557 17.4136 16.8915 17.4136 17.3057C17.4136 17.7199 17.0778 18.0557 16.6636 18.0557H13.1027C12.6885 18.0557 12.3527 17.7199 12.3527 17.3057Z" fill="black"/>
<path fill-rule="evenodd" clip-rule="evenodd" d="M2.27734 5.91004C2.27734 3.88865 3.916 2.25 5.93739 2.25H18.0626C20.0839 2.25 21.7226 3.88866 21.7226 5.91004V7.47662C21.7226 9.498 20.0839 11.1367 18.0626 11.1367H5.93739C3.916 11.1367 2.27734 9.498 2.27734 7.47661V5.91004ZM5.93739 3.75C4.74443 3.75 3.77734 4.71708 3.77734 5.91004V7.47661C3.77734 8.66957 4.74443 9.63666 5.93739 9.63666H18.0626C19.2555 9.63666 20.2226 8.66957 20.2226 7.47662V5.91004C20.2226 4.71708 19.2555 3.75 18.0626 3.75H5.93739Z" fill="black"/>
<path fill-rule="evenodd" clip-rule="evenodd" d="M6.64062 6.69336C6.64062 6.27915 6.97641 5.94336 7.39062 5.94336H7.91346C8.32768 5.94336 8.66346 6.27915 8.66346 6.69336C8.66346 7.10757 8.32768 7.44336 7.91346 7.44336H7.39062C6.97641 7.44336 6.64062 7.10757 6.64062 6.69336ZM12.3527 6.69336C12.3527 6.27915 12.6885 5.94336 13.1027 5.94336H16.6636C17.0778 5.94336 17.4136 6.27915 17.4136 6.69336C17.4136 7.10757 17.0778 7.44336 16.6636 7.44336H13.1027C12.6885 7.44336 12.3527 7.10757 12.3527 6.69336Z" fill="black"/>
</svg>
