<svg width="25" height="24" viewBox="0 0 25 24" fill="none" xmlns="http://www.w3.org/2000/svg">
<path d="M12.25 21H16.2236C19.1688 21 21.25 19.165 21.25 16.2169V7.78216C21.25 4.84281 19.1688 3 16.2236 3L8.27638 3C5.33119 3 3.25 4.83405 3.25 7.78216L3.25 16.2159C3.25 19.165 5.33119 21 8.27638 21H8.62933" stroke="black" stroke-width="1.5" stroke-linecap="round" stroke-linejoin="round"/>
<path d="M11.146 13.0391C12.0314 14.2222 13.7078 14.4645 14.891 13.5791C14.9931 13.5022 15.0904 13.4185 15.1809 13.328L16.4078 12.1011C17.4343 11.0377 17.4051 9.34469 16.3417 8.31723C15.4465 7.45323 14.099 7.33453 13.0803 7.96307" stroke="black" stroke-width="1.5" stroke-linecap="round" stroke-linejoin="round"/>
<path d="M13.3562 10.962C12.4708 9.77882 10.7943 9.53655 9.61118 10.422C9.50902 10.4988 9.41172 10.5825 9.32124 10.673L8.09432 11.8999C7.06783 12.9634 7.09702 14.6573 8.16048 15.6838C9.06729 16.5595 10.4392 16.6694 11.4628 16.0117" stroke="black" stroke-width="1.5" stroke-linecap="round" stroke-linejoin="round"/>
</svg>