<svg width="25" height="24" viewBox="0 0 25 24" fill="none" xmlns="http://www.w3.org/2000/svg">
<path d="M12.25 21C7.27916 21 3.25 16.9708 3.25 12C3.25 7.02916 7.27916 3 12.25 3C17.2208 3 21.25 7.02916 21.25 12C21.25 15.4831 19.2717 18.5038 16.3774 20" stroke="black" stroke-width="1.5" stroke-linecap="round" stroke-linejoin="round"/>
<path d="M15.6687 8.62891C14.601 9.39438 13.8081 10.536 13.4642 11.8035C13.2217 12.6922 13.2179 13.7096 13.7484 14.4619C14.2571 15.1828 15.2377 15.5333 16.0875 15.2984C17.6393 14.8692 18.1433 12.8959 17.0945 11.7164C16.6957 11.2673 16.1111 10.9888 15.5105 10.9613" stroke="black" stroke-width="1.5" stroke-linecap="round" stroke-linejoin="round"/>
<path d="M9.21482 8.62891C8.14714 9.39438 7.35419 10.536 7.00935 11.8035C6.76777 12.6922 6.76398 13.7096 7.29451 14.4619C7.80324 15.1828 8.78282 15.5333 9.63356 15.2984C11.1853 14.8692 11.6893 12.8959 10.6406 11.7164C10.2418 11.2673 9.65724 10.9888 9.05661 10.9613" stroke="black" stroke-width="1.5" stroke-linecap="round" stroke-linejoin="round"/>
</svg>