<svg width="25" height="24" viewBox="0 0 25 24" fill="none" xmlns="http://www.w3.org/2000/svg">
<path d="M12.25 21C7.27916 21 3.25 16.9708 3.25 12C3.25 7.02916 7.27916 3 12.25 3C17.2208 3 21.25 7.02916 21.25 12C21.25 15.4831 19.2717 18.5038 16.3774 20" stroke="black" stroke-width="1.5" stroke-linecap="round" stroke-linejoin="round"/>
<path d="M8.83278 15.3709C9.90046 14.6055 10.6934 13.4639 11.0383 12.1963C11.2798 11.3077 11.2836 10.2902 10.7531 9.53799C10.2444 8.81704 9.26478 8.46651 8.41404 8.70146C6.86225 9.13062 6.35825 11.104 7.40699 12.2835C7.80583 12.7325 8.39036 13.011 8.99099 13.0385" stroke="black" stroke-width="1.5" stroke-linecap="round" stroke-linejoin="round"/>
<path d="M15.2849 15.3709C16.3526 14.6055 17.1456 13.4639 17.4895 12.1963C17.732 11.3077 17.7358 10.2902 17.2052 9.53799C16.6965 8.81704 15.716 8.46651 14.8662 8.70146C13.3144 9.13062 12.8104 11.104 13.8591 12.2835C14.258 12.7325 14.8425 13.011 15.4431 13.0385" stroke="black" stroke-width="1.5" stroke-linecap="round" stroke-linejoin="round"/>
</svg>