<svg width="24" height="24" viewBox="0 0 24 24" fill="none" xmlns="http://www.w3.org/2000/svg">
<path fill-rule="evenodd" clip-rule="evenodd" d="M20.6814 13.514L17.9254 14.251L14.0184 11.995L17.9264 9.738L20.6814 10.475C20.7684 10.499 20.8554 10.51 20.9414 10.51C21.3824 10.51 21.7864 10.215 21.9064 9.768C22.0484 9.235 21.7324 8.686 21.1994 8.544L19.0274 7.962L19.6184 5.759C19.7614 5.225 19.4454 4.677 18.9104 4.534C18.3784 4.39 17.8294 4.707 17.6864 5.241L16.9474 7.994L13.0094 10.269V5.743L15.0254 3.727C15.4154 3.336 15.4154 2.703 15.0254 2.313C14.6344 1.922 14.0014 1.922 13.6114 2.313L12.0194 3.905L10.4084 2.293C10.0174 1.902 9.38444 1.903 8.99344 2.292C8.60344 2.683 8.60344 3.316 8.99344 3.707L11.0094 5.724V10.257L7.09044 7.993L6.35444 5.242C6.21144 4.707 5.66444 4.39 5.12944 4.534C4.59644 4.677 4.28044 5.224 4.42244 5.758L5.00344 7.933L2.80144 8.524C2.26744 8.667 1.95144 9.216 2.09444 9.749C2.21444 10.196 2.61844 10.491 3.05944 10.491C3.14544 10.491 3.23344 10.479 3.31944 10.456L6.07544 9.716L10.0204 11.995L6.07544 14.274L3.31944 13.534C2.78644 13.391 2.23844 13.707 2.09444 14.241C1.95144 14.774 2.26744 15.323 2.80144 15.466L5.00344 16.057L4.42244 18.232C4.28044 18.765 4.59644 19.313 5.12944 19.456C5.21644 19.479 5.30344 19.491 5.38944 19.491C5.83044 19.491 6.23544 19.196 6.35444 18.748L7.09044 15.996L11.0094 13.733V18.276L8.99344 20.293C8.60344 20.683 8.60344 21.317 8.99344 21.707C9.18944 21.902 9.44544 22 9.70144 22C9.95644 22 10.2124 21.902 10.4084 21.707L12.0194 20.095L13.6114 21.687C14.0014 22.077 14.6344 22.077 15.0254 21.687C15.4154 21.297 15.4154 20.663 15.0254 20.273L13.0094 18.256V13.721L16.9474 15.996L17.6864 18.749C17.8064 19.196 18.2094 19.491 18.6514 19.491C18.7374 19.491 18.8244 19.479 18.9104 19.456C19.4454 19.313 19.7614 18.764 19.6184 18.231L19.0274 16.027L21.1994 15.446C21.7324 15.303 22.0484 14.755 21.9064 14.222C21.7644 13.687 21.2154 13.369 20.6814 13.514Z" fill="black"/>
</svg>