<svg width="25" height="24" viewBox="0 0 25 24" fill="none" xmlns="http://www.w3.org/2000/svg">
<g opacity="0.4">
<path d="M21.7527 20.8709C20.3058 22.317 16.7039 21.1858 12.8827 18.341C14.0115 17.5007 15.1593 16.5109 16.2764 15.3938C17.3936 14.2766 18.3835 13.1286 19.2238 11.9998C22.0686 15.821 23.1996 19.4232 21.7527 20.8709Z" fill="black"/>
<path d="M6.54166 11.9998C3.69685 15.821 2.56582 19.4232 4.01275 20.8709C5.45966 22.317 9.06156 21.1858 12.8827 18.341C11.754 17.5007 10.6061 16.5109 9.48904 15.3938C8.37189 14.2766 7.382 13.1286 6.54166 11.9998Z" fill="black"/>
<path d="M12.8827 5.65875C14.0116 6.49914 15.1595 7.48905 16.2766 8.60618C17.3937 9.72324 18.3835 10.8711 19.2238 11.9998C22.0685 8.17844 23.1996 4.57619 21.7535 3.13009C20.3066 1.6824 16.7041 2.8138 12.8827 5.65875Z" fill="black"/>
<path d="M12.8827 5.65875C9.06132 2.8138 5.45884 1.6824 4.01193 3.13009C2.56583 4.57619 3.69696 8.17844 6.54166 11.9998C7.38195 10.8711 8.37176 9.72324 9.48883 8.60618C10.606 7.48905 11.7539 6.49914 12.8827 5.65875Z" fill="black"/>
</g>
<path fill-rule="evenodd" clip-rule="evenodd" d="M12.8826 18.3405C14.0113 17.5002 15.1592 16.5103 16.2763 15.3932C17.3934 14.2761 18.3833 13.1281 19.2237 11.9992C18.3834 10.8705 17.3935 9.7227 16.2765 8.60563C15.1594 7.48851 14.0114 6.49859 12.8826 5.6582C11.7537 6.49859 10.6058 7.48851 9.48868 8.60563C8.37161 9.7227 7.3818 10.8705 6.5415 11.9992C7.38185 13.1281 8.37174 14.2761 9.48889 15.3932C10.606 16.5103 11.7539 17.5002 12.8826 18.3405ZM11.4842 12.0005C11.4842 11.2282 12.1101 10.6016 12.883 10.6016C13.6551 10.6016 14.282 11.2273 14.282 12.0005C14.282 12.7736 13.6551 13.3993 12.883 13.3993C12.1101 13.3993 11.4842 12.7727 11.4842 12.0005Z" fill="black"/>
</svg>