<svg width="25" height="24" viewBox="0 0 25 24" fill="none" xmlns="http://www.w3.org/2000/svg">
<path opacity="0.4" d="M12.57 2.61367C12.751 2.46211 13.0146 2.46211 13.1956 2.61367L13.1966 2.61457L13.1984 2.61606L13.204 2.6208L13.2231 2.6372C13.2392 2.65116 13.262 2.67112 13.2905 2.69669C13.3475 2.7478 13.4275 2.82152 13.5228 2.91469C13.713 3.10045 13.9672 3.36648 14.2227 3.68734C14.7159 4.30688 15.2859 5.21972 15.2875 6.1947C15.9783 5.50661 17.0262 5.26404 17.8128 5.17458C18.2203 5.12824 18.5881 5.11987 18.8538 5.12293C18.9871 5.12446 19.0958 5.12889 19.1722 5.13302C19.2104 5.13509 19.2406 5.13708 19.2619 5.13862L19.287 5.14052L19.2943 5.14113L19.2966 5.14132L19.298 5.14144C19.5331 5.16223 19.7195 5.34882 19.7404 5.58391L19.7407 5.58735L19.7413 5.59466L19.7432 5.61977C19.7448 5.64105 19.7468 5.67129 19.7489 5.70952C19.753 5.78595 19.7575 5.89465 19.7591 6.02797C19.7622 6.2938 19.754 6.66171 19.7078 7.06924C19.6185 7.85617 19.3761 8.90492 18.6871 9.59532C19.6626 9.59687 20.5756 10.1668 21.1953 10.6601C21.5162 10.9155 21.7823 11.1698 21.9681 11.36C22.0613 11.4553 22.135 11.5353 22.1861 11.5923C22.2117 11.6208 22.2316 11.6436 22.2456 11.6597L22.262 11.6788L22.2668 11.6844L22.2682 11.6862L22.2691 11.6873C22.4207 11.8682 22.4205 12.132 22.269 12.313L22.2682 12.3139L22.2668 12.3157L22.262 12.3213L22.2456 12.3404C22.2316 12.3565 22.2117 12.3793 22.1861 12.4078C22.135 12.4648 22.0613 12.5448 21.9681 12.6401C21.7823 12.8303 21.5162 13.0845 21.1953 13.34C20.5758 13.8331 19.6632 14.4028 18.6881 14.4048C19.3763 15.0956 19.6186 16.144 19.7078 16.9307C19.754 17.3383 19.7622 17.7063 19.7591 17.9721C19.7575 18.1054 19.753 18.2141 19.7489 18.2906C19.7468 18.3288 19.7448 18.359 19.7432 18.3803L19.7413 18.4054L19.7407 18.4127L19.7404 18.4164C19.7195 18.6515 19.5329 18.8379 19.2978 18.8587L19.2966 18.8588L19.2943 18.859L19.287 18.8596L19.2619 18.8615C19.2406 18.863 19.2104 18.865 19.1722 18.8671C19.0958 18.8712 18.9871 18.8756 18.8538 18.8772C18.5881 18.8802 18.2203 18.8718 17.8128 18.8255C17.0262 18.736 15.9783 18.4935 15.2875 17.8054C15.2856 18.7804 14.7158 19.6931 14.2227 20.3126C13.9673 20.6335 13.713 20.8996 13.5229 21.0854C13.4275 21.1785 13.3475 21.2523 13.2905 21.3034C13.262 21.329 13.2392 21.3489 13.2231 21.3629L13.204 21.3793L13.1984 21.384L13.1966 21.3855L13.1956 21.3864C13.0146 21.538 12.7508 21.5378 12.5698 21.3862L12.5689 21.3855L12.5671 21.384L12.5616 21.3793L12.5424 21.3629C12.5263 21.3489 12.5035 21.329 12.475 21.3034C12.4181 21.2523 12.3381 21.1785 12.2427 21.0854C12.0525 20.8996 11.7983 20.6335 11.5428 20.3126C11.0496 19.6929 10.4796 18.7798 10.4781 17.8044C9.78771 18.4933 8.73904 18.736 7.95212 18.8255C7.5446 18.8718 7.1767 18.8802 6.91088 18.8772C6.77756 18.8756 6.66886 18.8712 6.59244 18.8671C6.5542 18.865 6.52397 18.863 6.50269 18.8615L6.47758 18.8596L6.47027 18.859L6.46796 18.8588L6.46657 18.8586C6.23139 18.8379 6.04493 18.6512 6.02415 18.416L6.02405 18.4149L6.02385 18.4125L6.02325 18.4052L6.02134 18.3801C6.01981 18.3589 6.01781 18.3286 6.01574 18.2904C6.01161 18.214 6.00718 18.1053 6.00564 17.972C6.00256 17.7061 6.01091 17.3382 6.05718 16.9307C6.1465 16.1439 6.3888 15.0956 7.07646 14.4048C6.10184 14.4028 5.1894 13.833 4.57007 13.34C4.2492 13.0845 3.98318 12.8303 3.79742 12.6401C3.70425 12.5447 3.63053 12.4647 3.57942 12.4078C3.55385 12.3793 3.53389 12.3565 3.51993 12.3404L3.50353 12.3213L3.49878 12.3157L3.49729 12.3139L3.49639 12.3128C3.34484 12.1318 3.34501 11.868 3.49656 11.6871L3.49729 11.6862L3.49878 11.6844L3.50353 11.6788L3.51993 11.6597C3.53389 11.6436 3.55385 11.6208 3.57942 11.5923C3.63053 11.5353 3.70425 11.4553 3.79742 11.36C3.98318 11.1698 4.2492 10.9156 4.57007 10.6601C5.1896 10.1669 6.10244 9.59687 7.07742 9.59532C6.38899 8.90496 6.14653 7.85623 6.05718 7.06931C6.01091 6.66182 6.00256 6.29393 6.00564 6.02812C6.00718 5.89481 6.01161 5.78611 6.01574 5.70969C6.01781 5.67146 6.01981 5.64123 6.02134 5.61995L6.02325 5.59485L6.02385 5.58754L6.02405 5.58523L6.02417 5.58384C6.04496 5.34866 6.23165 5.16221 6.46683 5.14142L6.46796 5.14132L6.47027 5.14112L6.47758 5.14052L6.50269 5.13862C6.52397 5.13708 6.5542 5.13508 6.59244 5.13302C6.66886 5.12889 6.77756 5.12446 6.91088 5.12293C7.1767 5.11987 7.5446 5.12824 7.95212 5.17458C8.73904 5.26406 9.7877 5.50677 10.478 6.19566C10.4792 5.22032 11.0495 4.30708 11.5429 3.68734C11.7983 3.36648 12.0526 3.10045 12.2427 2.91469C12.3381 2.82152 12.4181 2.7478 12.475 2.69669C12.5035 2.67112 12.5263 2.65116 12.5424 2.6372L12.5616 2.6208L12.5671 2.61606L12.5689 2.61457L12.57 2.61367Z" fill="black"/>
<path fill-rule="evenodd" clip-rule="evenodd" d="M12.8838 8.42041C14.8607 8.42041 16.4636 10.0232 16.4636 12.0002C16.4636 13.9772 14.8607 15.58 12.8838 15.58C10.9058 15.58 9.30298 13.9772 9.30298 12.0002C9.30298 10.0232 10.9058 8.42041 12.8838 8.42041Z" fill="black"/>
<path fill-rule="evenodd" clip-rule="evenodd" d="M12.8838 8.42041C14.8607 8.42041 16.4636 10.0232 16.4636 12.0002C16.4636 13.9772 14.8607 15.58 12.8838 15.58C10.9058 15.58 9.30298 13.9772 9.30298 12.0002C9.30298 10.0232 10.9058 8.42041 12.8838 8.42041Z" fill="black"/>
</svg>