<svg width="25" height="24" viewBox="0 0 25 24" fill="none" xmlns="http://www.w3.org/2000/svg">
<path opacity="0.4" fill-rule="evenodd" clip-rule="evenodd" d="M9.54459 2.5C7.44579 2.5 5.74489 4.2009 5.74489 6.29969V11.5741C4.58958 12.6101 3.84448 14.1099 3.84448 15.7999C3.84448 18.9478 6.39668 21.5 9.54459 21.5C12.6925 21.5 15.2447 18.9478 15.2447 15.7999C15.2447 14.1102 14.5006 12.6103 13.3452 11.5741V6.29969C13.3452 4.2005 11.643 2.5 9.54459 2.5ZM7.64489 6.29969C7.64489 5.25024 8.49513 4.4 9.54459 4.4C10.5944 4.4 11.4452 5.25064 11.4452 6.29969V12.0213C11.4452 12.319 11.5848 12.5996 11.8224 12.7791C12.7484 13.4791 13.3447 14.5686 13.3447 15.7999C13.3447 17.8985 11.6431 19.6 9.54459 19.6C7.44602 19.6 5.74448 17.8985 5.74448 15.7999C5.74448 14.569 6.34132 13.4793 7.26772 12.7791C7.50527 12.5996 7.64489 12.319 7.64489 12.0213V6.29969Z" fill="black"/>
<path d="M10.4945 13.9123V8.2C10.4945 7.67533 10.0692 7.25 9.54453 7.25C9.01986 7.25 8.59453 7.67533 8.59453 8.2V13.9115C7.90431 14.2594 7.43115 14.9746 7.43115 15.7995C7.43115 16.966 8.37715 17.9114 9.544 17.9114C10.7102 17.9114 11.6559 16.9657 11.6559 15.7995C11.6559 14.9754 11.1836 14.2606 10.4945 13.9123Z" fill="black"/>
<path d="M18.047 4.43945C18.5993 4.43945 19.047 4.88717 19.047 5.43945V6.42429L19.9824 6.12014C20.5076 5.94936 21.0719 6.2367 21.2426 6.76192C21.4134 7.28714 21.1261 7.85135 20.6009 8.02212L19.6652 8.32635L20.2435 9.12232C20.5681 9.56913 20.469 10.1945 20.0222 10.5191C19.5754 10.8437 18.95 10.7447 18.6254 10.2979L18.0472 9.50199L17.4687 10.298C17.144 10.7448 16.5186 10.8437 16.0718 10.519C15.6251 10.1943 15.5261 9.56894 15.8508 9.12218L16.4292 8.32633L15.4935 8.02214C14.9683 7.85139 14.6809 7.28719 14.8517 6.76196C15.0224 6.23673 15.5866 5.94937 16.1119 6.12012L17.047 6.42413V5.43945C17.047 4.88717 17.4947 4.43945 18.047 4.43945Z" fill="black"/>
</svg>