<svg width="24" height="25" viewBox="0 0 24 25" fill="none" xmlns="http://www.w3.org/2000/svg">
<path opacity="0.4" fill-rule="evenodd" clip-rule="evenodd" d="M7.288 13.1817C8.47 13.1817 9.528 13.8407 10.052 14.9007C10.421 15.6477 11.167 16.1127 11.998 16.1127C12.83 16.1127 13.575 15.6477 13.944 14.9007C14.468 13.8407 15.526 13.1817 16.708 13.1817H21.3C21.4105 13.1817 21.5 13.0922 21.5 12.9817V8.18973C21.5 4.87473 19.377 2.64673 16.217 2.64673H7.782C4.623 2.64673 2.5 4.87473 2.5 8.18973V12.9817C2.5 13.0922 2.58954 13.1817 2.7 13.1817H7.288Z" fill="black"/>
<path fill-rule="evenodd" clip-rule="evenodd" d="M8.755 9.60466H15.245C15.659 9.60466 15.995 9.94066 15.995 10.3547C15.995 10.7687 15.659 11.1047 15.245 11.1047H8.755C8.341 11.1047 8.005 10.7687 8.005 10.3547C8.005 9.94066 8.341 9.60466 8.755 9.60466ZM10.674 6.27466H13.326C13.74 6.27466 14.076 6.61066 14.076 7.02466C14.076 7.43866 13.74 7.77466 13.326 7.77466H10.674C10.26 7.77466 9.924 7.43866 9.924 7.02466C9.924 6.61066 10.26 6.27466 10.674 6.27466Z" fill="black"/>
<path fill-rule="evenodd" clip-rule="evenodd" d="M16.708 14.6816C16.102 14.6816 15.559 15.0196 15.29 15.5636C14.666 16.8276 13.405 17.6126 11.998 17.6126C10.593 17.6126 9.331 16.8276 8.707 15.5646C8.437 15.0196 7.895 14.6816 7.288 14.6816H2.7C2.58954 14.6816 2.5 14.7712 2.5 14.8816V16.1636C2.5 19.4796 4.623 21.7076 7.782 21.7076H16.216C19.376 21.7076 21.5 19.4796 21.5 16.1636V14.8816C21.5 14.7712 21.4105 14.6816 21.3 14.6816H16.708Z" fill="black"/>
</svg>