<svg width="25" height="25" viewBox="0 0 25 25" fill="none" xmlns="http://www.w3.org/2000/svg">
<path opacity="0.4" fill-rule="evenodd" clip-rule="evenodd" d="M20.7391 8.76079C20.6761 8.63943 20.512 8.62035 20.42 8.72153L18.6072 10.7156C18.0872 11.2956 17.3672 11.6956 16.5972 11.8256L15.7772 11.9556C15.6472 11.9856 15.5072 11.9956 15.3772 11.9956C14.6872 11.9956 14.0372 11.6956 13.5772 11.1856C13.1172 10.6756 12.8972 9.99564 12.9672 9.30563L13.0672 8.46563C13.1372 7.73563 13.4372 7.06563 13.9372 6.50564L15.7264 4.5538C15.8196 4.45214 15.7843 4.28897 15.6558 4.23875C14.7696 3.89221 13.8217 3.68113 12.8572 3.63563C10.1372 3.47563 7.49719 4.48563 5.57719 6.40563C2.77719 9.21563 2.00719 13.5456 3.66719 17.1356C3.70719 17.2356 3.82719 17.5356 4.65719 18.9856C4.74719 19.1456 4.73719 19.3356 4.63719 19.4956C4.40719 19.8056 4.12719 20.2056 3.90719 20.5356C3.62719 20.9656 3.59719 21.5056 3.84719 21.9556C4.07719 22.3956 4.54719 22.6756 5.04719 22.6756H12.2972C15.0972 22.6756 17.7472 21.4356 19.5772 19.2756C22.0759 16.3084 22.4787 12.1123 20.7391 8.76079Z" fill="black"/>
<path fill-rule="evenodd" clip-rule="evenodd" d="M14.5571 8.62536L14.4671 9.47536C14.4071 10.0254 14.8371 10.4954 15.3771 10.4954C15.4271 10.4954 15.4771 10.4854 15.5271 10.4754L16.3471 10.3454C16.7871 10.2654 17.1871 10.0454 17.4871 9.71536L21.0271 5.84536C21.4471 5.38536 21.4171 4.66536 20.9671 4.24536L20.2071 3.54536C19.9871 3.34536 19.7171 3.24536 19.4471 3.24536C19.1371 3.24536 18.8371 3.36536 18.6171 3.60536L17.2971 5.04536L15.0471 7.51536C14.7671 7.82536 14.5971 8.21536 14.5571 8.62536Z" fill="black"/>
</svg>