<svg width="25" height="25" viewBox="0 0 25 25" fill="none" xmlns="http://www.w3.org/2000/svg">
<g opacity="0.4">
<path fill-rule="evenodd" clip-rule="evenodd" d="M10.0055 10.1453C10.0055 10.2513 10.0105 10.3983 10.0155 10.6103C10.0225 10.9823 10.0335 11.5203 10.0335 12.3143C10.0335 13.8953 11.6855 14.7073 12.2925 14.9523C12.8975 14.7083 14.5525 13.8963 14.5525 12.3143C14.5525 11.5223 14.5635 10.9853 14.5705 10.6133C14.5745 10.3953 14.5805 10.2453 14.5795 10.1383C14.1465 9.92527 12.6025 9.38827 12.2635 9.35327C11.9845 9.38727 10.5025 9.90427 10.0055 10.1453Z" fill="black"/>
<path fill-rule="evenodd" clip-rule="evenodd" d="M16.0704 10.6432C16.0634 11.0092 16.0524 11.5372 16.0524 12.3142C16.0524 15.3572 12.6544 16.4242 12.5094 16.4682C12.4394 16.4902 12.3654 16.5002 12.2924 16.5002C12.2184 16.5002 12.1454 16.4902 12.0744 16.4682C11.9294 16.4242 8.53339 15.3572 8.53339 12.3142C8.53339 11.5352 8.52239 11.0062 8.51539 10.6402C8.49739 9.76021 8.49239 9.49521 8.88139 9.10121C9.30739 8.67721 11.7814 7.85321 12.2924 7.85321C12.8194 7.85321 15.2674 8.66421 15.7024 9.10121C16.0934 9.49721 16.0884 9.76321 16.0704 10.6432ZM19.7744 6.2922C18.0824 4.1432 15.5594 2.8212 12.8544 2.6632C10.1414 2.5072 7.49339 3.5162 5.57939 5.4362C2.77339 8.25021 2.00739 12.5722 3.66539 16.1662C3.80139 16.5092 4.27839 17.3602 4.65439 18.0142C4.74839 18.1762 4.73939 18.3712 4.63139 18.5232C4.40839 18.8382 4.12639 19.2402 3.90939 19.5682C3.62639 19.9922 3.59939 20.5352 3.83939 20.9842C4.07839 21.4312 4.54039 21.7072 5.04539 21.7072H6.46639C8.74439 21.7062 11.5364 21.7052 12.2654 21.7072H12.2984C15.0994 21.7072 17.7494 20.4712 19.5704 18.3102C22.4684 14.8732 22.5534 9.8192 19.7744 6.2922Z" fill="black"/>
</g>
<path fill-rule="evenodd" clip-rule="evenodd" d="M16.0694 10.7026L16.0705 10.6433C16.0885 9.76327 16.0935 9.49727 15.7025 9.10127C15.2675 8.66427 12.8195 7.85327 12.2925 7.85327C11.7815 7.85327 9.30752 8.67727 8.88152 9.10127C8.49252 9.49527 8.49752 9.76027 8.51552 10.6403L8.51664 10.6984C8.52363 11.0617 8.53352 11.5756 8.53352 12.3143C8.53352 15.3573 11.9295 16.4243 12.0745 16.4683C12.1455 16.4903 12.2185 16.5003 12.2925 16.5003C12.3655 16.5003 12.4395 16.4903 12.5095 16.4683C12.6545 16.4243 16.0525 15.3573 16.0525 12.3143C16.0525 11.5784 16.0624 11.0659 16.0694 10.7028L16.0694 10.7027L16.0694 10.7026ZM10.0112 10.4362C10.0081 10.3137 10.0056 10.2194 10.0056 10.1453C10.5026 9.90427 11.9846 9.38727 12.2636 9.35327C12.6026 9.38827 14.1466 9.92527 14.5796 10.1383C14.5802 10.2042 14.5782 10.2866 14.5756 10.3911C14.574 10.4561 14.5721 10.5297 14.5706 10.6133C14.5702 10.6328 14.5699 10.6527 14.5695 10.6731C14.5625 11.0423 14.5526 11.5638 14.5526 12.3143C14.5526 13.8963 12.8976 14.7083 12.2926 14.9523C11.6856 14.7073 10.0336 13.8953 10.0336 12.3143C10.0336 11.561 10.0237 11.0381 10.0167 10.6688C10.0163 10.6489 10.016 10.6293 10.0156 10.6103C10.0141 10.5466 10.0126 10.4888 10.0112 10.4362Z" fill="black"/>
</svg>