<svg width="24" height="25" viewBox="0 0 24 25" fill="none" xmlns="http://www.w3.org/2000/svg">
<path fill-rule="evenodd" clip-rule="evenodd" d="M3.67853 5.46256C3.38653 5.16956 2.91053 5.16856 2.61753 5.46056C2.32453 5.75356 2.32353 6.22756 2.61653 6.52156L3.91853 7.82756C2.37353 10.4786 2.15053 13.7816 3.46553 16.6326C3.60353 16.9756 4.08053 17.8256 4.45553 18.4786C4.54853 18.6406 4.53953 18.8356 4.43253 18.9866C4.20953 19.3006 3.92853 19.7026 3.70953 20.0326C3.42653 20.4576 3.39953 20.9996 3.63953 21.4486C3.87853 21.8956 4.34153 22.1726 4.84753 22.1726L6.22053 22.1716C8.50353 22.1706 11.3295 22.1696 12.0655 22.1726H12.0985C13.8085 22.1726 15.4545 21.7016 16.8955 20.8486L18.1965 22.1536C18.3425 22.3006 18.5345 22.3746 18.7275 22.3746C18.9185 22.3746 19.1105 22.3016 19.2565 22.1556C19.5505 21.8636 19.5515 21.3886 19.2585 21.0956L3.67853 5.46256Z" fill="black"/>
<path opacity="0.4" fill-rule="evenodd" clip-rule="evenodd" d="M19.3704 18.775C22.2674 15.337 22.3544 10.282 19.5744 6.75598C17.8814 4.60798 15.3584 3.28498 12.6524 3.12798C10.2195 2.99098 7.83386 3.80082 5.98516 5.36212C5.89716 5.43644 5.89303 5.56984 5.97435 5.65142L19.0668 18.7878C19.148 18.8693 19.2869 18.8711 19.3624 18.7843C19.3651 18.7812 19.3678 18.7781 19.3704 18.775Z" fill="black"/>
</svg>