<svg width="24" height="25" viewBox="0 0 24 25" fill="none" xmlns="http://www.w3.org/2000/svg">
<path opacity="0.4" fill-rule="evenodd" clip-rule="evenodd" d="M19.4724 6.85848C17.7804 4.70948 15.2584 3.38748 12.5534 3.22948C9.84141 3.07148 7.19241 4.08248 5.27841 6.00348C2.47241 8.81748 1.70741 13.1395 3.36441 16.7345C3.40441 16.8345 3.52641 17.1385 4.35341 18.5805C4.44641 18.7415 4.43741 18.9375 4.33041 19.0905C4.10841 19.4035 3.82741 19.8055 3.60841 20.1345C3.32541 20.5595 3.29841 21.1035 3.53941 21.5525C3.77841 21.9975 4.24041 22.2745 4.74441 22.2745H4.74641L5.36141 22.2735C7.73241 22.2725 11.1464 22.2705 11.9644 22.2745H11.9974C14.7994 22.2745 17.4484 21.0375 19.2694 18.8775C22.1674 15.4405 22.2524 10.3855 19.4724 6.85848Z" fill="black"/>
<path fill-rule="evenodd" clip-rule="evenodd" d="M14.5655 13.4902H9.41248C8.99848 13.4902 8.66248 13.1542 8.66248 12.7402C8.66248 12.3262 8.99848 11.9902 9.41248 11.9902H14.5655C14.9795 11.9902 15.3155 12.3262 15.3155 12.7402C15.3155 13.1542 14.9795 13.4902 14.5655 13.4902Z" fill="black"/>
</svg>