<svg width="24" height="25" viewBox="0 0 24 25" fill="none" xmlns="http://www.w3.org/2000/svg">
<path opacity="0.4" fill-rule="evenodd" clip-rule="evenodd" d="M19.4724 6.85848C17.7804 4.70948 15.2584 3.38748 12.5534 3.22948C9.84141 3.07148 7.19241 4.08248 5.27841 6.00348C2.47241 8.81748 1.70741 13.1395 3.36441 16.7345C3.40441 16.8345 3.52641 17.1385 4.35341 18.5805C4.44641 18.7415 4.43741 18.9375 4.33041 19.0905C4.10841 19.4035 3.82741 19.8055 3.60841 20.1345C3.32541 20.5595 3.29841 21.1035 3.53941 21.5525C3.77841 21.9975 4.24041 22.2745 4.74441 22.2745H4.74641L5.36141 22.2735C7.73241 22.2725 11.1464 22.2705 11.9644 22.2745H11.9974C14.7994 22.2745 17.4484 21.0375 19.2694 18.8775C22.1674 15.4405 22.2524 10.3855 19.4724 6.85848Z" fill="black"/>
<path fill-rule="evenodd" clip-rule="evenodd" d="M16.2303 13.0347C16.1933 13.1217 16.1393 13.2037 16.0683 13.2747L13.2123 16.1267C13.0663 16.2727 12.8743 16.3467 12.6823 16.3467C12.4903 16.3467 12.2983 16.2727 12.1523 16.1257C11.8593 15.8327 11.8593 15.3587 12.1523 15.0657L13.7253 13.4947H8.4613C8.0473 13.4947 7.7113 13.1587 7.7113 12.7447C7.7113 12.3307 8.0473 11.9947 8.4613 11.9947H13.7253L12.1523 10.4237C11.8593 10.1307 11.8593 9.65669 12.1523 9.36369C12.4443 9.06969 12.9183 9.06969 13.2123 9.36269L16.0683 12.2147C16.1393 12.2857 16.1933 12.3677 16.2303 12.4547C16.2673 12.5437 16.2883 12.6417 16.2883 12.7447C16.2883 12.8477 16.2673 12.9457 16.2303 13.0347Z" fill="black"/>
</svg>