<svg width="24" height="25" viewBox="0 0 24 25" fill="none" xmlns="http://www.w3.org/2000/svg">
<path opacity="0.4" fill-rule="evenodd" clip-rule="evenodd" d="M17.0909 20.8913L21.4581 6.08434C21.4584 6.08344 21.4586 6.08253 21.4587 6.0816C21.4588 6.08068 21.459 6.07977 21.4593 6.07887C21.6797 5.32643 21.4816 4.54527 20.9277 3.9914C20.3733 3.43703 19.5905 3.23833 18.8361 3.45965L4.02712 7.82745C3.21253 8.06787 2.63695 8.73962 2.52381 9.58108C2.41209 10.4197 2.78615 11.2124 3.5081 11.6586L8.63445 14.8128C9.37318 15.2712 9.70707 15.5935 10.1239 16.314L13.2605 21.411C13.3503 21.5573 13.455 21.6889 13.5716 21.8055C14.0284 22.2623 14.6691 22.4829 15.3352 22.3939C16.178 22.2821 16.8498 21.7065 17.0909 20.8913Z" fill="black"/>
<path d="M15.8333 9.05469L10.859 14.0289" stroke="black" stroke-width="1.5" stroke-linecap="round" stroke-linejoin="round"/>
</svg>