<svg width="25" height="24" viewBox="0 0 25 24" fill="none" xmlns="http://www.w3.org/2000/svg">
<path fill-rule="evenodd" clip-rule="evenodd" d="M18.9072 13.7211H17.0672C15.4512 13.7211 14.1362 15.0361 14.1362 16.6531V18.4921C14.1362 20.1081 15.4512 21.4231 17.0672 21.4231H18.9072C20.5232 21.4231 21.8392 20.1081 21.8392 18.4921V16.6531C21.8392 15.0361 20.5232 13.7211 18.9072 13.7211Z" fill="black"/>
<path fill-rule="evenodd" clip-rule="evenodd" d="M6.0499 10.4061H7.8899C9.5059 10.4061 10.8209 9.0911 10.8209 7.4751V5.6351C10.8209 4.0191 9.5059 2.7041 7.8899 2.7041H6.0499C4.4339 2.7041 3.1189 4.0191 3.1189 5.6351V7.4751C3.1189 9.0911 4.4339 10.4061 6.0499 10.4061Z" fill="black"/>
<g opacity="0.4">
<path fill-rule="evenodd" clip-rule="evenodd" d="M11.0185 20.0464C7.28651 20.0464 4.24951 17.0094 4.24951 13.2764C4.24951 12.8624 3.91451 12.5264 3.49951 12.5264C3.08551 12.5264 2.74951 12.8624 2.74951 13.2764C2.74951 17.8364 6.45851 21.5464 11.0185 21.5464C11.4325 21.5464 11.7685 21.2104 11.7685 20.7964C11.7685 20.3824 11.4325 20.0464 11.0185 20.0464Z" fill="black"/>
<path fill-rule="evenodd" clip-rule="evenodd" d="M13.9805 2.4541C13.5665 2.4541 13.2305 2.7901 13.2305 3.2041C13.2305 3.6181 13.5665 3.9541 13.9805 3.9541C17.7125 3.9541 20.7505 6.9911 20.7505 10.7241C20.7505 11.1381 21.0855 11.4741 21.5005 11.4741C21.9145 11.4741 22.2505 11.1381 22.2505 10.7241C22.2505 6.1641 18.5405 2.4541 13.9805 2.4541Z" fill="black"/>
</g>
</svg>