<svg width="25" height="25" viewBox="0 0 25 25" fill="none" xmlns="http://www.w3.org/2000/svg">
<path fill-rule="evenodd" clip-rule="evenodd" d="M5.56838 10.1921H9.38138C10.0814 10.1921 10.7104 9.83107 11.0624 9.22507C11.4154 8.61907 11.4194 7.89307 11.0724 7.28207L9.17738 3.95807C8.82838 3.34507 8.19838 2.97807 7.49238 2.97607H7.48638C6.78238 2.97607 6.15338 3.33907 5.80138 3.94907L3.88338 7.27307C3.53138 7.88207 3.53138 8.60907 3.88338 9.21907C4.23538 9.82807 4.86438 10.1921 5.56838 10.1921Z" fill="black"/>
<path fill-rule="evenodd" clip-rule="evenodd" d="M18.1836 14.0758C16.0056 14.0758 14.2336 15.8468 14.2336 18.0248C14.2336 20.2028 16.0056 21.9748 18.1836 21.9748C20.3616 21.9748 22.1336 20.2028 22.1336 18.0248C22.1336 15.8468 20.3616 14.0758 18.1836 14.0758Z" fill="black"/>
<g opacity="0.4">
<path fill-rule="evenodd" clip-rule="evenodd" d="M11.2133 20.5234C7.5053 20.5234 4.4873 17.5064 4.4873 13.7974C4.4873 13.3834 4.1513 13.0474 3.7373 13.0474C3.3233 13.0474 2.9873 13.3834 2.9873 13.7974C2.9873 18.3334 6.6773 22.0234 11.2133 22.0234C11.6273 22.0234 11.9633 21.6874 11.9633 21.2734C11.9633 20.8594 11.6273 20.5234 11.2133 20.5234Z" fill="black"/>
<path fill-rule="evenodd" clip-rule="evenodd" d="M14.1577 3.03223C13.7437 3.03223 13.4077 3.36823 13.4077 3.78223C13.4077 4.19623 13.7437 4.53223 14.1577 4.53223C17.8657 4.53223 20.8837 7.54923 20.8837 11.2572C20.8837 11.6712 21.2197 12.0072 21.6337 12.0072C22.0477 12.0072 22.3837 11.6712 22.3837 11.2572C22.3837 6.72223 18.6937 3.03223 14.1577 3.03223Z" fill="black"/>
</g>
</svg>