<svg width="25" height="25" viewBox="0 0 25 25" fill="none" xmlns="http://www.w3.org/2000/svg">
<path fill-rule="evenodd" clip-rule="evenodd" d="M18.9774 7.8854C18.0674 5.4054 15.1674 4.9654 13.5574 6.5754L11.0448 9.06887C10.9696 9.14349 10.9271 9.24489 10.9266 9.35083L10.9074 13.2654L10.8974 14.5054V14.5154L10.8799 17.9595C10.879 18.1381 11.0948 18.2283 11.2212 18.1021L18.2374 11.0954C19.0774 10.2554 19.3874 9.0054 18.9774 7.8854Z" fill="black"/>
<path fill-rule="evenodd" clip-rule="evenodd" d="M19.173 14.7529H16.8918C16.7868 14.7529 16.686 14.7942 16.6112 14.8679L10.472 20.9104C10.3444 21.0359 10.4333 21.2529 10.6123 21.2529H19.284C20.47 21.2529 21.58 20.5889 22.078 19.5129C23.188 17.1099 21.451 14.7529 19.173 14.7529Z" fill="black"/>
<g opacity="0.4">
<path fill-rule="evenodd" clip-rule="evenodd" d="M6.19897 3.74805C4.40897 3.74805 2.94897 5.20805 2.94897 6.99805V8.67762C2.94897 8.78824 3.0384 8.87786 3.14902 8.87762C4.02317 8.8758 7.54002 8.86864 9.24961 8.86808C9.36006 8.86805 9.44897 8.7785 9.44897 8.66805V6.99805C9.44897 5.20805 7.99897 3.74805 6.19897 3.74805Z" fill="black"/>
<path fill-rule="evenodd" clip-rule="evenodd" d="M3.14902 10.3586C3.0384 10.3583 2.94897 10.448 2.94897 10.5586V13.6772C2.94897 13.7219 2.99421 13.7582 3.03897 13.7582H9.24897C9.35943 13.7582 9.44897 13.6686 9.44897 13.5582V10.5682C9.44897 10.4577 9.36006 10.3682 9.24961 10.3681C7.54002 10.3676 4.02317 10.3604 3.14902 10.3586Z" fill="black"/>
<path fill-rule="evenodd" clip-rule="evenodd" d="M3.14902 15.2487C3.0384 15.2484 2.94897 15.338 2.94897 15.4487V17.9982C2.94897 19.7982 4.40897 21.2482 6.19897 21.2482C7.99897 21.2482 9.44897 19.7982 9.44897 17.9982V15.4582C9.44897 15.3478 9.36013 15.2583 9.24972 15.2582C9.24965 15.2582 9.24968 15.2582 9.24961 15.2582C9.2471 15.2582 4.02296 15.2505 3.14902 15.2487Z" fill="black"/>
</g>
<path d="M7.09907 18.0484C7.09907 17.5584 6.69907 17.1484 6.19907 17.1484C5.70907 17.1484 5.29907 17.5584 5.29907 18.0484C5.29907 18.5484 5.70907 18.9484 6.19907 18.9484C6.69907 18.9484 7.09907 18.5484 7.09907 18.0484Z" fill="black"/>
</svg>