<svg width="25" height="25" viewBox="0 0 25 25" fill="none" xmlns="http://www.w3.org/2000/svg">
<path fill-rule="evenodd" clip-rule="evenodd" d="M15.8198 8.23584C13.9608 8.23584 12.2198 8.96684 10.9178 10.2948C10.5308 10.6888 10.5368 11.3218 10.9318 11.7088C11.3258 12.0948 11.9588 12.0898 12.3458 11.6948C13.2688 10.7538 14.5018 10.2358 15.8198 10.2358C18.5018 10.2358 20.6828 12.4178 20.6828 15.0988C20.6828 17.7808 18.5018 19.9628 15.8198 19.9628C15.2678 19.9628 14.8198 20.4108 14.8198 20.9628C14.8198 21.5148 15.2678 21.9628 15.8198 21.9628C19.6038 21.9628 22.6828 18.8838 22.6828 15.0988C22.6828 11.3148 19.6038 8.23584 15.8198 8.23584Z" fill="black"/>
<path fill-rule="evenodd" clip-rule="evenodd" d="M15.9316 12.5771C15.7286 12.0631 15.1486 11.8111 14.6346 12.0151C14.1206 12.2181 13.8686 12.7991 14.0726 13.3121C14.2966 13.8811 14.4106 14.4821 14.4106 15.0981C14.4106 17.7811 12.2296 19.9631 9.54757 19.9631C6.86657 19.9631 4.68457 17.7811 4.68457 15.0981C4.68457 14.2351 4.91357 13.3871 5.34657 12.6471C5.62457 12.1701 5.46457 11.5581 4.98757 11.2791C4.51157 11.0001 3.89757 11.1601 3.61957 11.6381C3.00857 12.6841 2.68457 13.8811 2.68457 15.0981C2.68457 18.8841 5.76357 21.9631 9.54757 21.9631C13.3326 21.9631 16.4106 18.8841 16.4106 15.0981C16.4106 14.2291 16.2496 13.3811 15.9316 12.5771Z" fill="black"/>
<path opacity="0.4" fill-rule="evenodd" clip-rule="evenodd" d="M12.4658 16.099C13.0178 16.099 13.4658 15.651 13.4658 15.099C13.4658 14.547 13.0178 14.099 12.4658 14.099C9.78478 14.099 7.60278 11.917 7.60278 9.23605C7.60278 6.55505 9.78478 4.37305 12.4658 4.37305C14.4628 4.37305 16.2348 5.56905 16.9798 7.42105C17.1858 7.93205 17.7668 8.18205 18.2808 7.97505C18.7928 7.76805 19.0408 7.18605 18.8348 6.67405C17.7828 4.06105 15.2828 2.37305 12.4658 2.37305C8.68178 2.37305 5.60278 5.45205 5.60278 9.23605C5.60278 13.02 8.68178 16.099 12.4658 16.099Z" fill="black"/>
</svg>