<svg width="25" height="24" viewBox="0 0 25 24" fill="none" xmlns="http://www.w3.org/2000/svg">
<path opacity="0.4" fill-rule="evenodd" clip-rule="evenodd" d="M16.717 2.5H8.283C5.123 2.5 3 4.72 3 8.026V15.973C3 19.279 5.123 21.5 8.283 21.5H16.716C19.877 21.5 22 19.279 22 15.973V8.026C22 4.72 19.877 2.5 16.717 2.5Z" fill="black"/>
<path fill-rule="evenodd" clip-rule="evenodd" d="M11.1581 17.2177C11.7101 17.2177 12.2691 16.9827 12.7381 16.5147L17.0171 12.2347C17.9351 11.3157 17.9551 10.0527 17.0671 9.16367L15.3361 7.43367C14.4601 6.55767 13.1681 6.57967 12.2651 7.48467L10.1401 9.60867C10.1376 9.61117 10.1343 9.61292 10.1311 9.61467C10.1278 9.61642 10.1246 9.61817 10.1221 9.62067C10.1198 9.62345 10.1181 9.62645 10.1165 9.62936C10.1146 9.63273 10.1128 9.63599 10.1101 9.63867L7.98509 11.7637C7.06709 12.6817 7.04709 13.9447 7.93609 14.8357L9.66509 16.5647C10.1011 17.0007 10.6271 17.2177 11.1581 17.2177ZM10.6553 11.2146L9.04628 12.8236C8.81828 13.0516 8.62428 13.4026 8.99728 13.7756L10.7253 15.5036C11.0973 15.8756 11.4473 15.6826 11.6773 15.4536L13.2863 13.8446L10.6553 11.2146ZM13.8403 8.28641C13.9773 8.28641 14.1253 8.34341 14.2763 8.49441L16.0063 10.2244C16.3783 10.5964 16.1833 10.9464 15.9563 11.1744L14.3463 12.7844L11.7163 10.1544L13.3263 8.54441C13.4613 8.40941 13.6393 8.28641 13.8403 8.28641Z" fill="black"/>
</svg>