<svg width="25" height="24" viewBox="0 0 25 24" fill="none" xmlns="http://www.w3.org/2000/svg">
<path opacity="0.4" fill-rule="evenodd" clip-rule="evenodd" d="M16.718 2.5H8.283C5.123 2.5 3 4.721 3 8.026V15.974C3 19.279 5.123 21.5 8.283 21.5H16.717C19.877 21.5 22 19.279 22 15.974V8.026C22 4.721 19.878 2.5 16.718 2.5Z" fill="black"/>
<path d="M12.8089 17.3285H15.4879C15.9019 17.3285 16.2379 16.9935 16.2379 16.5785C16.2379 16.1645 15.9019 15.8285 15.4879 15.8285H12.8089C12.3949 15.8285 12.0589 16.1645 12.0589 16.5785C12.0589 16.9935 12.3949 17.3285 12.8089 17.3285Z" fill="black"/>
<path fill-rule="evenodd" clip-rule="evenodd" d="M14.2369 12.9115C14.1169 13.0225 13.9639 13.0915 13.7999 13.1075L12.4519 13.2395L12.5869 13.7115C12.6739 14.0185 12.5579 14.3475 12.2969 14.5315C10.9669 15.4655 9.8969 15.7565 8.7849 15.8125C8.7269 16.2475 8.7229 16.5295 8.7229 16.5795C8.7219 16.9925 8.3869 17.3285 7.9739 17.3285C7.5609 17.3285 7.2249 16.9955 7.2229 16.5825C7.2229 16.5135 7.2809 9.59153 14.4309 6.95753C15.6689 6.62353 17.0839 6.38953 17.6219 7.36453C18.3489 8.68353 16.1819 11.1095 14.2369 12.9115ZM9.12844 14.2787C9.72744 12.3627 11.2104 9.74067 14.8834 8.38567C15.5544 8.20667 15.9474 8.16567 16.1664 8.16567C16.1954 8.16567 16.2224 8.16667 16.2454 8.16767C16.0334 8.80467 14.8134 10.3007 13.4004 11.6397L11.4104 11.8347C11.1894 11.8567 10.9894 11.9747 10.8634 12.1587C10.7384 12.3427 10.7014 12.5727 10.7624 12.7867L10.9924 13.5937C10.3094 14.0097 9.72844 14.2007 9.12844 14.2787Z" fill="black"/>
</svg>