<svg width="25" height="24" viewBox="0 0 25 24" fill="none" xmlns="http://www.w3.org/2000/svg">
<path opacity="0.4" fill-rule="evenodd" clip-rule="evenodd" d="M22.0704 3.53267C21.3334 2.12867 18.9094 2.56967 16.8144 3.13067C7.7074 6.48667 4.4854 13.3067 3.3534 17.3697C3.2974 17.4717 3.2634 17.5887 3.2604 17.7137C2.8124 19.4377 2.7514 20.5867 2.7504 20.6247C2.7334 21.0377 3.0544 21.3867 3.4674 21.4037C3.4784 21.4047 3.4894 21.4047 3.5004 21.4047C3.8994 21.4047 4.2314 21.0897 4.2494 20.6867C4.2544 20.5647 4.3004 19.7257 4.5834 18.4717C7.0914 18.3657 9.6164 17.4317 12.0964 15.6877C12.2904 15.5517 12.4084 15.3317 12.4154 15.0957C12.4224 14.8587 12.3164 14.6327 12.1314 14.4867L10.9874 13.5807L14.7414 13.2127C14.8944 13.1977 15.0384 13.1367 15.1554 13.0367C15.2364 12.9687 17.1474 11.3327 18.9654 9.42567C21.7304 6.52567 22.6874 4.70867 22.0704 3.53267Z" fill="black"/>
<path fill-rule="evenodd" clip-rule="evenodd" d="M17.6266 19.9053H11.2166C10.8026 19.9053 10.4666 20.2413 10.4666 20.6553C10.4666 21.0693 10.8026 21.4053 11.2166 21.4053H17.6266C18.0406 21.4053 18.3766 21.0693 18.3766 20.6553C18.3766 20.2413 18.0406 19.9053 17.6266 19.9053Z" fill="black"/>
</svg>