<svg width="25" height="24" viewBox="0 0 25 24" fill="none" xmlns="http://www.w3.org/2000/svg">
<path opacity="0.4" fill-rule="evenodd" clip-rule="evenodd" d="M14.167 12.752C13.753 12.752 13.417 12.416 13.417 12.002C13.417 11.588 13.753 11.252 14.167 11.252L16.167 11.252C16.581 11.252 16.917 11.588 16.917 12.002C16.917 12.416 16.581 12.752 16.167 12.752L14.167 12.752ZM8.833 12.752C8.419 12.752 8.083 12.416 8.083 12.002C8.083 11.588 8.419 11.252 8.833 11.252L10.833 11.252C11.247 11.252 11.583 11.588 11.583 12.002C11.583 12.416 11.247 12.752 10.833 12.752L8.833 12.752ZM22 16.217L22 13.052C22 12.8863 21.8657 12.752 21.7 12.752L19.499 12.752C19.085 12.752 18.749 12.416 18.749 12.002C18.749 11.588 19.085 11.252 19.499 11.252L21.7 11.252C21.8657 11.252 22 11.1177 22 10.952L22 7.782C22 4.623 19.779 2.5 16.474 2.5L8.526 2.5C5.221 2.5 3 4.623 3 7.782L3 10.952C3 11.1177 3.13431 11.252 3.3 11.252L5.501 11.252C5.915 11.252 6.251 11.588 6.251 12.002C6.251 12.416 5.915 12.752 5.501 12.752L3.3 12.752C3.13431 12.752 3 12.8863 3 13.052L3 16.216C3 19.377 5.221 21.5 8.526 21.5L16.474 21.5C19.779 21.5 22 19.377 22 16.217Z" fill="black"/>
<path d="M9.9529 17.9155C10.1089 18.2415 10.4299 18.4435 10.7909 18.4435L14.2089 18.4435C14.5699 18.4435 14.8919 18.2405 15.0489 17.9155C15.2049 17.5875 15.1619 17.2115 14.9359 16.9295L13.2269 14.7995C13.0489 14.5775 12.7839 14.4505 12.4999 14.4505C12.2159 14.4505 11.9509 14.5775 11.7729 14.7995L10.0649 16.9305C9.9289 17.0995 9.85889 17.3035 9.85889 17.5105C9.85889 17.6475 9.8899 17.7855 9.9529 17.9155Z" fill="black"/>
<path d="M10.0649 7.07455L11.7739 9.20555C11.9519 9.42655 12.2169 9.55255 12.4999 9.55255C12.7839 9.55255 13.0479 9.42655 13.2269 9.20555L13.2279 9.20455L14.9359 7.07355C15.1619 6.79155 15.2039 6.41355 15.0479 6.08755C14.8919 5.76255 14.5699 5.56055 14.2089 5.56055L10.7909 5.56055C10.4309 5.56055 10.1089 5.76255 9.9529 6.08755C9.8909 6.21755 9.8589 6.35555 9.8589 6.49355C9.8589 6.69955 9.9289 6.90355 10.0649 7.07455Z" fill="black"/>
</svg>