<svg width="25" height="24" viewBox="0 0 25 24" fill="none" xmlns="http://www.w3.org/2000/svg">
<path opacity="0.4" fill-rule="evenodd" clip-rule="evenodd" d="M22 8.02V15.97C22 16.46 21.95 16.92 21.86 17.35C21.36 19.88 19.42 21.5 16.72 21.5H8.28C5.12 21.5 3 19.28 3 15.97V8.02C3 4.72 5.12 2.5 8.28 2.5H16.72C17.6 2.5 18.41 2.67 19.1 3C19.6 3.22 20.04 3.53 20.42 3.9C21.42 4.88 22 6.3 22 8.02Z" fill="black"/>
<path fill-rule="evenodd" clip-rule="evenodd" d="M12.0001 14.35C11.9901 14.35 11.9901 14.36 11.9901 14.37C11.9901 14.38 11.9801 14.38 11.9801 14.39L11.3301 15.85H9.34006L10.2801 13.69V13.66C10.2901 13.65 10.3001 13.64 10.3001 13.63C11.0201 11.51 10.8101 9.8 10.4001 8.59L15.5501 10.77C14.4001 11.32 13.0201 12.36 12.0001 14.35ZM19.1001 3L17.3001 9.88L9.83006 6.72L12.3201 2.66C12.3501 2.61 12.3801 2.56 12.3801 2.5H10.6501L8.10006 6.68C8.09006 6.7 8.08006 6.72 8.08006 6.74C8.07006 6.75 8.05006 6.76 8.05006 6.78C8.04006 6.8 8.04006 6.82 8.04006 6.83C8.02006 6.89 8.01006 6.95 8.00006 7.01C8.00006 7.04 7.99006 7.07 7.99006 7.1C8.00006 7.17 8.01006 7.24 8.03006 7.3C8.04006 7.32 8.04006 7.34 8.05006 7.36C8.08006 7.44 8.13006 7.52 8.19006 7.58C8.21006 7.6 10.0601 9.67 8.88006 13.13L7.51006 16.31C7.41006 16.54 7.44006 16.8 7.58006 17.02C7.71006 17.23 7.95006 17.35 8.20006 17.35H11.8101C12.1101 17.35 12.3801 17.18 12.5001 16.91L13.3401 15.03C15.0001 11.8 17.7101 11.66 17.8201 11.66C17.8501 11.66 17.8801 11.64 17.9001 11.64C17.9501 11.63 17.9901 11.63 18.0301 11.62C18.0701 11.6 18.1101 11.58 18.1401 11.57C18.1701 11.55 18.2001 11.54 18.2301 11.52C18.2701 11.49 18.3001 11.46 18.3301 11.43C18.3501 11.41 18.3701 11.39 18.3901 11.36C18.4201 11.33 18.4401 11.28 18.4601 11.24C18.4701 11.23 18.4801 11.21 18.4901 11.2C18.4901 11.19 18.4901 11.18 18.5001 11.17C18.5101 11.14 18.5201 11.12 18.5301 11.1L20.4201 3.9C20.0401 3.53 19.6001 3.22 19.1001 3Z" fill="black"/>
<path fill-rule="evenodd" clip-rule="evenodd" d="M22.0001 15.85V15.97C22.0001 16.46 21.9501 16.92 21.8601 17.35H15.1501C14.7401 17.35 14.4001 17.02 14.4001 16.6C14.4001 16.19 14.7401 15.85 15.1501 15.85H22.0001Z" fill="black"/>
</svg>