<svg width="25" height="24" viewBox="0 0 25 24" fill="none" xmlns="http://www.w3.org/2000/svg">
<path opacity="0.4" d="M11.3199 8.10254C11.7054 8.37693 12.1757 8.53812 12.6831 8.53812C13.1706 8.53812 13.6237 8.38941 14.0003 8.13451L18.3036 15.6898C17.5019 16.0728 16.9471 16.8969 16.9471 17.8518C16.9471 17.996 16.9598 18.1373 16.9841 18.2745H8.38314C8.40742 18.1373 8.42009 17.996 8.42009 17.8518C8.42009 16.9231 7.89532 16.118 7.12891 15.7222L11.3199 8.10254Z" fill="black"/>
<path fill-rule="evenodd" clip-rule="evenodd" d="M12.6831 4.50781C11.7962 4.50781 11.0649 5.2357 11.0649 6.14843C11.0649 7.05998 11.796 7.78807 12.6831 7.78807C13.5702 7.78807 14.3014 7.05998 14.3014 6.14843C14.3014 5.2357 13.57 4.50781 12.6831 4.50781ZM9.56488 6.14843C9.56488 4.42048 10.9546 3.00781 12.6831 3.00781C14.4116 3.00781 15.8014 4.42048 15.8014 6.14843C15.8014 7.8756 14.4114 9.28807 12.6831 9.28807C10.9548 9.28807 9.56488 7.8756 9.56488 6.14843ZM6.05183 16.2111C5.16493 16.2111 4.43359 16.939 4.43359 17.8518C4.43359 18.7633 5.16474 19.4914 6.05183 19.4914C6.93893 19.4914 7.67007 18.7633 7.67007 17.8518C7.67007 16.939 6.93873 16.2111 6.05183 16.2111ZM2.93359 17.8518C2.93359 16.1238 4.32336 14.7111 6.05183 14.7111C7.78031 14.7111 9.17007 16.1238 9.17007 17.8518C9.17007 19.5789 7.78011 20.9914 6.05183 20.9914C4.32355 20.9914 2.93359 19.5789 2.93359 17.8518ZM19.3154 16.2111C18.4285 16.2111 17.6971 16.939 17.6971 17.8518C17.6971 18.7633 18.4283 19.4914 19.3154 19.4914C20.2025 19.4914 20.9336 18.7633 20.9336 17.8518C20.9336 16.939 20.2023 16.2111 19.3154 16.2111ZM16.1971 17.8518C16.1971 16.1238 17.5869 14.7111 19.3154 14.7111C21.0438 14.7111 22.4336 16.1238 22.4336 17.8518C22.4336 19.5789 21.0436 20.9914 19.3154 20.9914C17.5871 20.9914 16.1971 19.5789 16.1971 17.8518Z" fill="black"/>
</svg>