<svg width="25" height="24" viewBox="0 0 25 24" fill="none" xmlns="http://www.w3.org/2000/svg">
<path fill-rule="evenodd" clip-rule="evenodd" d="M12.6856 3.74854C11.3776 3.74854 10.3176 4.81954 10.3176 6.14154C10.3176 7.46354 11.3776 8.53453 12.6856 8.53453C13.9936 8.53453 15.0536 7.46354 15.0536 6.14154C15.0536 4.81954 13.9936 3.74854 12.6856 3.74854Z" fill="black"/>
<path fill-rule="evenodd" clip-rule="evenodd" d="M6.05355 15.4663C4.74555 15.4663 3.68555 16.5373 3.68555 17.8583C3.68555 19.1803 4.74555 20.2513 6.05355 20.2513C7.36055 20.2513 8.42155 19.1803 8.42155 17.8583C8.42155 16.5373 7.36055 15.4663 6.05355 15.4663Z" fill="black"/>
<path fill-rule="evenodd" clip-rule="evenodd" d="M19.3166 15.4663C18.0096 15.4663 16.9486 16.5373 16.9486 17.8583C16.9486 19.1803 18.0096 20.2513 19.3166 20.2513C20.6246 20.2513 21.6856 19.1803 21.6856 17.8583C21.6856 16.5373 20.6246 15.4663 19.3166 15.4663Z" fill="black"/>
<g opacity="0.4">
<path fill-rule="evenodd" clip-rule="evenodd" d="M9.61865 10.359C9.26365 10.143 8.80365 10.256 8.58765 10.609L7.58165 12.256C7.36565 12.61 7.47765 13.071 7.83165 13.287C7.95365 13.362 8.08865 13.397 8.22165 13.397C8.47365 13.397 8.72165 13.269 8.86265 13.038L9.86865 11.39C10.0847 11.036 9.97265 10.575 9.61865 10.359Z" fill="black"/>
<path fill-rule="evenodd" clip-rule="evenodd" d="M17.6938 13.2872C18.0478 13.0712 18.1598 12.6102 17.9438 12.2562L16.9378 10.6082C16.7218 10.2562 16.2598 10.1422 15.9068 10.3592C15.5528 10.5752 15.4408 11.0362 15.6568 11.3902L16.6628 13.0372C16.8038 13.2692 17.0508 13.3972 17.3038 13.3972C17.4368 13.3972 17.5718 13.3622 17.6938 13.2872Z" fill="black"/>
<path fill-rule="evenodd" clip-rule="evenodd" d="M13.6324 17.9615H11.7374C11.3234 17.9615 10.9874 18.2975 10.9874 18.7115C10.9874 19.1255 11.3234 19.4615 11.7374 19.4615H13.6324C14.0464 19.4615 14.3824 19.1255 14.3824 18.7115C14.3824 18.2975 14.0464 17.9615 13.6324 17.9615Z" fill="black"/>
</g>
</svg>