<svg width="25" height="24" viewBox="0 0 25 24" fill="none" xmlns="http://www.w3.org/2000/svg">
<path fill-rule="evenodd" clip-rule="evenodd" d="M20.4329 19.875H4.56689C4.15289 19.875 3.81689 20.211 3.81689 20.625C3.81689 21.039 4.15289 21.375 4.56689 21.375H20.4329C20.8469 21.375 21.1829 21.039 21.1829 20.625C21.1829 20.211 20.8469 19.875 20.4329 19.875Z" fill="black"/>
<path opacity="0.4" fill-rule="evenodd" clip-rule="evenodd" d="M5.87997 16.492C6.04997 17.141 6.64997 17.582 7.31997 17.551L9.39797 17.455C9.82697 17.435 10.223 17.223 10.477 16.877L17.698 7.053C18.362 6.148 18.168 4.879 17.265 4.214L15.638 3.019C14.734 2.356 13.463 2.549 12.799 3.453L5.57997 13.278C5.32597 13.623 5.24097 14.065 5.34997 14.481L5.87997 16.492Z" fill="black"/>
</svg>