<svg width="25" height="24" viewBox="0 0 25 24" fill="none" xmlns="http://www.w3.org/2000/svg">
<path fill-rule="evenodd" clip-rule="evenodd" d="M11.2553 14.3184C11.5553 14.0184 11.5553 13.5124 11.2553 13.2124C10.9473 12.9044 10.4493 12.9124 10.1493 13.2124C9.8413 13.5204 9.8413 14.0104 10.1493 14.3184C10.4493 14.6184 10.9473 14.6264 11.2553 14.3184Z" fill="black"/>
<path fill-rule="evenodd" clip-rule="evenodd" d="M16.3762 12.6047C16.3662 12.5957 16.3542 12.5887 16.3442 12.5797L11.8802 8.11468C11.8702 8.10568 11.8632 8.09368 11.8552 8.08368L11.2222 7.45068C11.0262 7.25468 10.7482 7.16568 10.4752 7.21068L5.81917 7.98068C5.02817 8.12368 4.47517 8.80268 4.49917 9.58468C4.53917 11.2997 4.55417 15.6297 3.64617 18.8617C3.62279 18.9465 3.6071 19.0321 3.59874 19.1177C3.57606 19.3501 3.84839 19.4341 4.01331 19.2689L8.32569 14.9562C8.41484 14.867 8.43701 14.7322 8.39367 14.6137C8.00372 13.5484 8.37279 12.2793 9.48917 11.6217C10.2062 11.1987 11.1332 11.1907 11.8612 11.5937C13.3682 12.4257 13.5612 14.3827 12.4402 15.5037C11.7424 16.2024 10.7286 16.3947 9.85313 16.0742C9.73471 16.0309 9.59983 16.053 9.51066 16.1422L5.21662 20.4362C5.04944 20.6034 5.1381 20.8777 5.37297 20.8505C5.45059 20.8415 5.52828 20.8267 5.60517 20.8057C8.99517 19.8657 13.5632 19.9287 14.8902 19.9767C15.6722 19.9847 16.3362 19.4307 16.4782 18.6407L17.2442 13.9787C17.2892 13.7057 17.2002 13.4277 17.0042 13.2327L16.3762 12.6047Z" fill="black"/>
<path opacity="0.4" fill-rule="evenodd" clip-rule="evenodd" d="M20.984 9.55172L14.997 3.56473C14.326 2.89373 13.197 3.05173 12.737 3.88373L12.045 5.13473C11.736 5.69273 11.834 6.38672 12.285 6.83672L17.712 12.2647C18.162 12.7147 18.857 12.8127 19.414 12.5047L20.665 11.8117C21.497 11.3517 21.656 10.2237 20.984 9.55172Z" fill="black"/>
</svg>