<svg width="25" height="25" viewBox="0 0 25 25" fill="none" xmlns="http://www.w3.org/2000/svg">
<path fill-rule="evenodd" clip-rule="evenodd" d="M4.4375 8.41597V10.673C4.4375 11.087 4.1015 11.423 3.6875 11.423C3.2735 11.423 2.9375 11.087 2.9375 10.673V8.41597C2.9375 8.00197 3.2735 7.66597 3.6875 7.66597C4.1015 7.66597 4.4375 8.00197 4.4375 8.41597Z" fill="black"/>
<path fill-rule="evenodd" clip-rule="evenodd" d="M21.6875 11.4229C21.2735 11.4229 20.9375 11.0869 20.9375 10.6729V8.60985C20.9375 8.19585 21.2735 7.85985 21.6875 7.85985C22.1015 7.85985 22.4375 8.19585 22.4375 8.60985V10.6729C22.4375 11.0869 22.1015 11.4229 21.6875 11.4229Z" fill="black"/>
<path fill-rule="evenodd" clip-rule="evenodd" d="M21.6875 16.5889C21.2735 16.5889 20.9375 16.2529 20.9375 15.8389V13.5909C20.9375 13.1769 21.2735 12.8409 21.6875 12.8409C22.1015 12.8409 22.4375 13.1769 22.4375 13.5909V15.8389C22.4375 16.2529 22.1015 16.5889 21.6875 16.5889Z" fill="black"/>
<path fill-rule="evenodd" clip-rule="evenodd" d="M16.4048 3.88184H14.1478C13.7338 3.88184 13.3978 3.54584 13.3978 3.13184C13.3978 2.71784 13.7338 2.38184 14.1478 2.38184H16.4048C16.8188 2.38184 17.1548 2.71784 17.1548 3.13184C17.1548 3.54584 16.8188 3.88184 16.4048 3.88184Z" fill="black"/>
<path fill-rule="evenodd" clip-rule="evenodd" d="M14.1484 20.3818H16.2214C16.6354 20.3818 16.9714 20.7178 16.9714 21.1318C16.9714 21.5458 16.6354 21.8818 16.2214 21.8818H14.1484C13.7344 21.8818 13.3984 21.5458 13.3984 21.1318C13.3984 20.7178 13.7344 20.3818 14.1484 20.3818Z" fill="black"/>
<path fill-rule="evenodd" clip-rule="evenodd" d="M11.2284 3.88184H9.16644C8.75244 3.88184 8.41644 3.54584 8.41644 3.13184C8.41644 2.71784 8.75244 2.38184 9.16644 2.38184H11.2284C11.6424 2.38184 11.9784 2.71784 11.9784 3.13184C11.9784 3.54584 11.6424 3.88184 11.2284 3.88184Z" fill="black"/>
<path fill-rule="evenodd" clip-rule="evenodd" d="M21.4281 6.24907C21.0561 6.43007 20.6071 6.27108 20.4281 5.89808C20.1231 5.26407 19.6491 4.75607 19.0571 4.42908C18.6951 4.22907 18.5631 3.77207 18.7641 3.41007C18.9011 3.16307 19.1571 3.02308 19.4211 3.02308C19.5441 3.02308 19.6681 3.05308 19.7831 3.11707C20.6491 3.59508 21.3391 4.33208 21.7791 5.24907C21.9591 5.62207 21.8021 6.07008 21.4281 6.24907Z" fill="black"/>
<path fill-rule="evenodd" clip-rule="evenodd" d="M6.45546 4.34276C5.84346 4.66076 5.35946 5.14076 5.01646 5.76876C4.81746 6.13276 4.36146 6.26676 3.99846 6.06776C3.63546 5.86876 3.50146 5.41276 3.70046 5.04976C4.18146 4.16776 4.89446 3.46376 5.76346 3.01176C5.87346 2.95476 5.99246 2.92676 6.10846 2.92676C6.37946 2.92676 6.64146 3.07376 6.77446 3.33076C6.96546 3.69876 6.82246 4.15176 6.45546 4.34276Z" fill="black"/>
<path fill-rule="evenodd" clip-rule="evenodd" d="M18.9218 19.9248C19.5408 19.5948 20.0268 19.1118 20.3668 18.4868C20.5028 18.2368 20.7598 18.0948 21.0258 18.0948C21.1468 18.0948 21.2698 18.1248 21.3838 18.1868C21.7478 18.3838 21.8818 18.8398 21.6838 19.2038C21.2018 20.0908 20.5098 20.7788 19.6268 21.2488C19.2618 21.4428 18.8078 21.3058 18.6118 20.9398C18.4178 20.5738 18.5558 20.1198 18.9218 19.9248Z" fill="black"/>
<path opacity="0.4" d="M11.7017 18.7891H15.5977C17.8077 18.7891 19.1837 17.2291 19.1837 15.0211V9.06306C19.1837 6.85506 17.8077 5.29506 15.5977 5.29506H9.2747C7.0647 5.29506 5.6897 6.85506 5.6897 9.06306V13.1393C5.71624 13.1386 5.74288 13.1382 5.76961 13.1382H8.85198C10.4252 13.1382 11.7017 14.4151 11.7017 15.9888V18.7891Z" fill="black"/>
<path fill-rule="evenodd" clip-rule="evenodd" d="M8.85101 20.4199C9.59681 20.4199 10.2017 19.8146 10.2017 19.0702V15.9888C10.2017 15.243 9.59636 14.6382 8.85198 14.6382H5.76961C5.02449 14.6382 4.41993 15.2428 4.41993 15.9888V19.0702C4.41993 19.8158 5.02404 20.4199 5.76961 20.4199H8.85101ZM11.7017 19.0702C11.7017 20.6435 10.4248 21.9199 8.85101 21.9199H5.76961C4.19561 21.9199 2.91993 20.6442 2.91993 19.0702V15.9888C2.91993 14.4153 4.19516 13.1382 5.76961 13.1382H8.85198C10.4252 13.1382 11.7017 14.4151 11.7017 15.9888V19.0702Z" fill="black"/>
</svg>