<svg width="24" height="24" viewBox="0 0 24 24" fill="none" xmlns="http://www.w3.org/2000/svg">
<path opacity="0.4" d="M4.54663 9.80723C4.54663 5.25348 8.78424 1.70697 13.5561 2.65406C16.394 3.22248 18.6939 5.45635 19.2892 8.25044C19.9387 11.3156 18.6044 14.1788 16.3125 15.7734C16.1408 15.8929 15.9322 15.9438 15.7231 15.936C14.9029 15.9054 14.0724 15.9354 13.2497 15.9463L10.7498 15.9482C9.9271 15.9429 9.10259 15.9282 8.28056 15.9433C8.08362 15.947 7.88838 15.8961 7.72574 15.785C5.80594 14.4732 4.54663 12.2886 4.54663 9.80723Z" fill="black"/>
<path d="M11.2498 11.7264V15.4494C11.2498 15.7231 11.0299 15.9454 10.7571 15.9476L13.2371 15.9457C12.9668 15.9425 12.7498 15.7213 12.7498 15.4494V11.7249C12.7498 11.5923 12.8024 11.4651 12.8962 11.3714L14.4032 9.86431C14.6961 9.57142 14.6961 9.09655 14.4032 8.80365C14.1103 8.51076 13.6355 8.51076 13.3426 8.80365L12.3526 9.79367C12.1573 9.98893 11.8407 9.98893 11.6455 9.79367L10.6555 8.80365C10.3626 8.51076 9.88768 8.51076 9.59479 8.80365C9.3019 9.09655 9.3019 9.57142 9.59479 9.86431L11.1033 11.3728C11.1971 11.4666 11.2498 11.5938 11.2498 11.7264Z" fill="black"/>
<path d="M15.2411 17.9492C15.2411 17.6731 15.0172 17.4492 14.7411 17.4492H9.2702C8.99406 17.4492 8.7702 17.6731 8.7702 17.9492V18.3187C8.7702 20.0784 10.2345 21.4992 12.0061 21.4992C13.7769 21.4992 15.2411 20.0783 15.2411 18.3187V17.9492Z" fill="black"/>
</svg>