<svg width="24" height="24" viewBox="0 0 24 24" fill="none" xmlns="http://www.w3.org/2000/svg">
<path opacity="0.4" d="M13.5291 2.6547C8.83482 1.70376 4.68799 5.26551 4.68799 9.80748C4.68799 12.1429 5.7834 14.2192 7.48779 15.5497C7.57261 15.616 7.6777 15.6502 7.7853 15.6502H9.71691H14.2592H16.2328C16.3413 15.6502 16.4473 15.6153 16.5325 15.548C18.5966 13.9167 19.7581 11.1737 19.1518 8.25262C18.569 5.46329 16.3173 3.2249 13.5291 2.6547Z" fill="black"/>
<path d="M13.9662 15.2863L15.4814 8.42065C15.5706 8.01617 15.3151 7.61591 14.9106 7.52664C14.5061 7.43738 14.1059 7.69292 14.0166 8.0974L14.0031 8.15881L13.3943 7.71172C13.1158 7.5072 12.7337 7.51938 12.4688 7.74121L11.8696 8.24303L11.322 7.75585C11.037 7.50227 10.607 7.50308 10.3229 7.75773L9.98898 8.05703L9.98399 8.03383C9.89688 7.62888 9.49798 7.37122 9.09303 7.45834C8.68808 7.54545 8.43043 7.94435 8.51754 8.34929L10.0102 15.2878C10.0504 15.4746 9.90797 15.6509 9.71687 15.6509H11.9871C11.7745 15.6509 11.5907 15.5024 11.5459 15.2945L10.3889 9.91605C10.3663 9.81078 10.4018 9.70145 10.4819 9.62957L10.6259 9.50054C10.7395 9.39868 10.9115 9.39835 11.0255 9.49979L11.3563 9.79405C11.6342 10.0412 12.0512 10.0475 12.3364 9.80869L12.8002 9.42019C12.9062 9.33145 13.0591 9.32658 13.1704 9.40839L13.4922 9.64466C13.5879 9.71496 13.6331 9.83513 13.6075 9.95111L12.4278 15.2969C12.3822 15.5037 12.1989 15.6509 11.9871 15.6509H14.2592C14.0674 15.6509 13.9249 15.4735 13.9662 15.2863Z" fill="black"/>
<path d="M9.32593 17.1504C9.04979 17.1504 8.82593 17.3742 8.82593 17.6504V18.3199C8.82593 20.0701 10.2562 21.5004 12.0064 21.5004C13.7557 21.5004 15.1859 20.07 15.1859 18.3199V17.6504C15.1859 17.3742 14.962 17.1504 14.6859 17.1504H9.32593Z" fill="black"/>
</svg>