<svg width="25" height="24" viewBox="0 0 25 24" fill="none" xmlns="http://www.w3.org/2000/svg">
<path opacity="0.4" d="M13 4C13 3.44772 12.5523 3 12 3C11.4477 3 11 3.44772 11 4V5.96008C6.71853 6.46031 3.39636 10.1007 3.39636 14.5164C3.39636 14.7925 3.62022 15.0164 3.89636 15.0164H20.1252C20.4013 15.0164 20.6252 14.7925 20.6252 14.5164C20.6252 10.0936 17.2915 6.44869 13 5.95771V4Z" fill="black"/>
<path d="M8.32214 15.0156C8.5102 16.8871 10.0898 18.3479 12.0109 18.3479C13.932 18.3479 15.5116 16.8871 15.6997 15.0156H8.32214Z" fill="black"/>
<g opacity="0.4">
<path d="M8.26291 19.6299C8.55581 19.337 8.55581 18.8622 8.26292 18.5693C7.97002 18.2764 7.49515 18.2764 7.20226 18.5693L6.79975 18.9718C6.50686 19.2647 6.50685 19.7395 6.79975 20.0324C7.09264 20.3253 7.56751 20.3253 7.86041 20.0324L8.26291 19.6299Z" fill="black"/>
<path d="M16.8427 18.5693C16.5498 18.2764 16.075 18.2764 15.7821 18.5693C15.4892 18.8622 15.4892 19.337 15.7821 19.6299L16.1846 20.0324C16.4775 20.3253 16.9523 20.3253 17.2452 20.0324C17.5381 19.7396 17.5381 19.2647 17.2452 18.9718L16.8427 18.5693Z" fill="black"/>
<path d="M12.7608 20.4321C12.7608 20.0179 12.425 19.6821 12.0108 19.6821C11.5966 19.6821 11.2608 20.0179 11.2608 20.4321V21.001C11.2608 21.4152 11.5966 21.751 12.0108 21.751C12.425 21.751 12.7608 21.4152 12.7608 21.001V20.4321Z" fill="black"/>
</g>
</svg>