<svg width="25" height="24" viewBox="0 0 25 24" fill="none" xmlns="http://www.w3.org/2000/svg">
<path d="M7.20508 11.8975H17.7949C19.8411 11.8975 21.5 10.2386 21.5 8.19239C21.5 6.14623 19.8411 4.48828 17.7949 4.48828H7.20508C5.15892 4.48828 3.5 6.14623 3.5 8.19239C3.5 10.2386 5.15892 11.8975 7.20508 11.8975Z" stroke="black" stroke-width="1.5" stroke-linecap="round" stroke-linejoin="round"/>
<path opacity="0.4" d="M7.87695 8.19336H8.40138M13.6055 8.19336H17.1773" stroke="black" stroke-width="1.5" stroke-linecap="round" stroke-linejoin="round"/>
<path fill-rule="evenodd" clip-rule="evenodd" d="M14.1073 17.9052C14.1073 18.7926 13.3883 19.5116 12.5009 19.5116C11.6136 19.5116 10.8945 18.7926 10.8945 17.9052C10.8945 17.0179 11.6136 16.2988 12.5009 16.2988C13.3883 16.2988 14.1073 17.0179 14.1073 17.9052Z" stroke="black" stroke-width="1.5" stroke-linecap="round" stroke-linejoin="round"/>
<path opacity="0.4" d="M18.7401 17.9043H14.0825M10.9077 17.9043H6.25977" stroke="black" stroke-width="1.5" stroke-linecap="round" stroke-linejoin="round"/>
<path opacity="0.4" d="M12.5 16.2938V12.0166" stroke="black" stroke-width="1.5" stroke-linecap="round" stroke-linejoin="round"/>
</svg>