<svg width="24" height="25" viewBox="0 0 24 25" fill="none" xmlns="http://www.w3.org/2000/svg">
<path d="M13.8939 18.0937C13.6768 18.2832 13.4094 18.375 13.1431 18.375C12.8242 18.375 12.5065 18.2421 12.2814 17.9843C11.8665 17.5078 11.9157 16.7851 12.3911 16.371L17.1178 12.25L12.3911 8.12886C11.9157 7.7148 11.8665 6.99214 12.2814 6.51558C12.6951 6.04097 13.4174 5.99214 13.8939 6.4062L19.608 11.3886C19.8571 11.6054 20 11.9199 20 12.25C20 12.58 19.8571 12.8945 19.608 13.1113L13.8939 18.0937Z" fill="black"/>
<path d="M5.89417 18.0937C5.67703 18.2832 5.40961 18.375 5.14333 18.375C4.82449 18.375 4.50678 18.2421 4.28165 17.9843C4.089 17.7636 3.99641 17.4882 4.00011 17.2167L4 7.20503H4.0017C4.01506 6.95894 4.10745 6.7148 4.28165 6.51558C4.69649 6.04097 5.41761 5.99214 5.89417 6.4062L11.6083 11.3886C11.8574 11.6054 12.0003 11.9199 12.0003 12.25C12.0003 12.58 11.8574 12.8945 11.6083 13.1113L5.89417 18.0937Z" fill="black"/>
</svg>