<svg width="24" height="25" viewBox="0 0 24 25" fill="none" xmlns="http://www.w3.org/2000/svg">
<path fill-rule="evenodd" clip-rule="evenodd" d="M17.82 13.866C18.113 14.159 18.113 14.634 17.82 14.927C17.674 15.073 17.482 15.146 17.29 15.146C17.098 15.146 16.906 15.073 16.759 14.927L14.614 12.782C14.321 12.489 14.321 12.014 14.614 11.721L16.759 9.575C17.052 9.282 17.527 9.282 17.82 9.575C18.113 9.867 18.113 10.343 17.82 10.636L16.205 12.251L17.82 13.866ZM12.75 17.012C12.75 17.427 12.414 17.762 12 17.762C11.586 17.762 11.25 17.427 11.25 17.012V7.488C11.25 7.074 11.586 6.738 12 6.738C12.414 6.738 12.75 7.074 12.75 7.488V17.012ZM9.384 12.782L7.239 14.927C7.092 15.073 6.901 15.146 6.709 15.146C6.517 15.146 6.325 15.073 6.178 14.927C5.885 14.634 5.885 14.159 6.178 13.866L7.793 12.251L6.178 10.636C5.885 10.343 5.885 9.867 6.178 9.575C6.471 9.282 6.946 9.282 7.239 9.575L9.384 11.721C9.677 12.014 9.677 12.489 9.384 12.782ZM15.974 2.75H8.026C4.72 2.75 2.5 4.874 2.5 8.034V16.468C2.5 19.628 4.72 21.75 8.026 21.75H15.974C19.279 21.75 21.5 19.628 21.5 16.468V8.033C21.5 4.873 19.279 2.75 15.974 2.75Z" fill="black"/>
</svg>