<svg width="24" height="25" viewBox="0 0 24 25" fill="none" xmlns="http://www.w3.org/2000/svg">
<path fill-rule="evenodd" clip-rule="evenodd" d="M17.9654 5.25059C17.7209 5.25887 17.4989 5.35477 17.3296 5.5078L10.35 11.4903C10.128 11.6803 10 11.9573 10 12.2493C10 12.5413 10.128 12.8183 10.35 13.0083L17.3109 18.9748C17.4902 19.1453 17.7327 19.25 18 19.25C18.553 19.25 19 18.802 19 18.25V6.25L19 6.24592C18.9994 6.01667 18.9202 5.78636 18.759 5.59834C18.5614 5.36824 18.2813 5.24995 17.9996 5.25" fill="black"/>
<path d="M5 18.25C5 18.802 5.447 19.25 6 19.25C6.553 19.25 7 18.802 7 18.25V6.25C7 5.698 6.553 5.25 6 5.25C5.447 5.25 5 5.698 5 6.25V18.25Z" fill="black"/>
</svg>