<svg width="24" height="24" viewBox="0 0 24 24" fill="none" xmlns="http://www.w3.org/2000/svg">
<path d="M8.99685 14.2998C9.31016 14.6141 9.74413 14.8087 10.2229 14.8087C11.1793 14.8087 11.9539 14.0332 11.9539 13.0767C11.9539 12.1202 11.1793 11.3447 10.2229 11.3447L11.9587 9.19336H8.93652" stroke="black" stroke-width="1.5" stroke-linecap="round" stroke-linejoin="round"/>
<path d="M15.0617 9.19336V14.6043" stroke="black" stroke-width="1.5" stroke-linecap="round" stroke-linejoin="round"/>
<path d="M19.6443 4.91406L19.6462 7.14714L17.4258 7.14909" stroke="black" stroke-width="1.5" stroke-linecap="round" stroke-linejoin="round"/>
<path d="M19.3827 7.09281C16.7468 3.03532 11.3378 1.81321 7.20636 4.37614C4.6191 5.98065 3.13914 8.6944 3 11.521" stroke="black" stroke-width="1.5" stroke-linecap="round" stroke-linejoin="round"/>
<path d="M19.6443 4.91406L19.6462 7.14714L17.4258 7.14909" stroke="black" stroke-width="1.5" stroke-linecap="round" stroke-linejoin="round"/>
<path d="M4.35741 19.0866L4.35547 16.8535L6.5759 16.8516" stroke="black" stroke-width="1.5" stroke-linecap="round" stroke-linejoin="round"/>
<path d="M4.61719 16.9048C7.25213 20.9623 12.6621 22.1844 16.7936 19.6214C19.3808 18.0169 20.8608 15.3032 20.9999 12.4766" stroke="black" stroke-width="1.5" stroke-linecap="round" stroke-linejoin="round"/>
</svg>
