<svg width="24" height="24" viewBox="0 0 24 24" fill="none" xmlns="http://www.w3.org/2000/svg">
<path d="M3 3.14844H4.99656L7.64988 14.3805C7.90674 15.4664 8.92351 16.1981 10.0347 16.0949L16.972 15.4518C17.9761 15.3584 18.8246 14.6676 19.1184 13.7024L20.9505 7.6981C21.1704 6.98101 20.6294 6.25614 19.8793 6.26295L17.0343 6.37679" stroke="black" stroke-width="1.5" stroke-linecap="round" stroke-linejoin="round"/>
<path d="M11.6992 5.57617V9.14117C11.6992 10.4965 12.7977 11.595 14.1521 11.595H15.452" stroke="black" stroke-width="1.5" stroke-linecap="round" stroke-linejoin="round"/>
<path d="M13.5935 7.38268L11.6991 5.48828L9.80469 7.38268" stroke="black" stroke-width="1.5" stroke-linecap="round" stroke-linejoin="round"/>
<path d="M8.86716 20.3448V20.463M9.34593 20.3702C9.34593 20.6361 9.13016 20.8517 8.86422 20.8517C8.59828 20.8517 8.38281 20.6361 8.38281 20.3702C8.38281 20.1043 8.59828 19.8887 8.86422 19.8887C9.13016 19.8887 9.34593 20.1043 9.34593 20.3702Z" stroke="black" stroke-width="1.5" stroke-linecap="round" stroke-linejoin="round"/>
<path d="M18.0781 20.3448V20.463M18.5569 20.3702C18.5569 20.6361 18.3411 20.8517 18.0752 20.8517C17.8092 20.8517 17.5938 20.6361 17.5938 20.3702C17.5938 20.1043 17.8092 19.8887 18.0752 19.8887C18.3411 19.8887 18.5569 20.1043 18.5569 20.3702Z" stroke="black" stroke-width="1.5" stroke-linecap="round" stroke-linejoin="round"/>
</svg>
