<svg width="24" height="24" viewBox="0 0 24 24" fill="none" xmlns="http://www.w3.org/2000/svg">
<path d="M20.0439 10.6544V7.73547C20.0439 4.94687 18.3061 2.97656 15.5146 2.97656H7.52831C4.74458 2.97656 3 4.94687 3 7.73547V15.2606C3 18.0492 4.73582 20.0205 7.52831 20.0205H10.9075" stroke="black" stroke-width="1.5" stroke-linecap="round" stroke-linejoin="round"/>
<path d="M14.9117 8.48633C14.9117 10.3584 13.3938 11.8753 11.5227 11.8753V11.8753C9.65068 11.8753 8.13281 10.3584 8.13281 8.48633" stroke="black" stroke-width="1.5" stroke-linecap="round" stroke-linejoin="round"/>
<path fill-rule="evenodd" clip-rule="evenodd" d="M20.9992 17.3224C20.9992 19.3666 19.3422 21.0236 17.2979 21.0236C15.2527 21.0236 13.5957 19.3666 13.5957 17.3224C13.5957 15.2781 15.2527 13.6211 17.2979 13.6211C19.3422 13.6211 20.9992 15.2781 20.9992 17.3224Z" stroke="black" stroke-width="1.5" stroke-linecap="round" stroke-linejoin="round"/>
<path d="M16.332 17.3205H18.2683" stroke="black" stroke-width="1.5" stroke-linecap="round" stroke-linejoin="round"/>
</svg>
