<svg width="24" height="24" viewBox="0 0 24 24" fill="none" xmlns="http://www.w3.org/2000/svg">
<path d="M4.75195 9.36859L4.75585 9.35205L5.25693 6.21518C5.42136 5.20037 6.29314 4.45508 7.3206 4.45508H8.13692" stroke="black" stroke-width="1.5" stroke-linecap="round" stroke-linejoin="round"/>
<path d="M15.8633 4.45496H16.6796C17.7071 4.45496 18.5827 5.20025 18.7433 6.21506L19.2444 9.35192L19.2483 9.36847" stroke="black" stroke-width="1.5" stroke-linecap="round" stroke-linejoin="round"/>
<path fill-rule="evenodd" clip-rule="evenodd" d="M14.7043 5.62324H9.29648C8.65237 5.62324 8.13086 5.10172 8.13086 4.45762C8.13086 3.81448 8.65237 3.29297 9.29648 3.29297H14.7043C15.3474 3.29297 15.8689 3.81448 15.8689 4.45762C15.8689 5.10172 15.3474 5.62324 14.7043 5.62324Z" stroke="black" stroke-width="1.5" stroke-linecap="round" stroke-linejoin="round"/>
<path fill-rule="evenodd" clip-rule="evenodd" d="M7.1213 20.7094C5.98974 20.7094 4.51276 19.9359 4.14206 17.9141L3.17201 13.2613C2.52693 10.4835 3.74217 9.18359 6.04811 9.18359H17.9515C20.2584 9.18359 21.4736 10.4835 20.8276 13.2613L19.8575 17.9141C19.4868 19.9359 18.0098 20.7094 16.8783 20.7094H7.1213Z" stroke="black" stroke-width="1.5" stroke-linecap="round" stroke-linejoin="round"/>
<path d="M16.1617 13.1603H7.83984" stroke="black" stroke-width="1.5" stroke-linecap="round" stroke-linejoin="round"/>
<path d="M13.9534 16.7287H10.0469" stroke="black" stroke-width="1.5" stroke-linecap="round" stroke-linejoin="round"/>
</svg>
