<svg width="24" height="24" viewBox="0 0 24 24" fill="none" xmlns="http://www.w3.org/2000/svg">
<path d="M8.26378 6.68759H15.7362C16.9145 6.68759 17.904 7.57299 18.0334 8.74348L19.1105 18.4333C19.2632 19.8023 18.191 21 16.8133 21H7.1867C5.80898 21 4.73676 19.8023 4.88952 18.4333L5.96562 8.74348C6.096 7.57299 7.08551 6.68759 8.26378 6.68759Z" stroke="black" stroke-width="1.5" stroke-linecap="round" stroke-linejoin="round"/>
<path d="M11.9491 16.0562H11.9996M10.2863 18.2682H10.3369M15.2604 16.0562H15.311M11.9491 11.6313H11.9996M10.2863 13.8442H10.3369M15.2604 11.6313H15.311M10.2863 9.41931H10.3369M8.63867 16.0562H8.68927M8.63867 11.6313H8.68927M13.6064 18.2682H13.6736M13.6064 13.8442H13.6736M13.6064 9.41931H13.6736" stroke="black" stroke-width="1.5" stroke-linecap="round" stroke-linejoin="round"/>
<path d="M8.47852 6.68756L8.73052 4.65794C8.8463 3.6227 9.721 3 10.7631 3H13.2373C14.2794 3 15.1541 3.6227 15.2699 4.65794L15.5219 6.68756" stroke="black" stroke-width="1.5" stroke-linecap="round" stroke-linejoin="round"/>
</svg>