<svg width="24" height="24" viewBox="0 0 24 24" fill="none" xmlns="http://www.w3.org/2000/svg">
<path d="M3 9.8785L4.19189 5.58769C4.29308 5.22282 4.62584 4.96985 5.0053 4.96985H18.9947C19.3742 4.96985 19.7069 5.22282 19.8081 5.58769L21 9.8785" stroke="black" stroke-width="1.5" stroke-linecap="round" stroke-linejoin="round"/>
<path d="M4.88477 4.9765L7.91752 9.55531C8.15882 9.92212 8.57428 10.144 9.01893 10.144H10.2264H14.9784C15.4221 10.144 15.8375 9.92212 16.0798 9.55531L19.1126 4.9765" stroke="black" stroke-width="1.5" stroke-linecap="round" stroke-linejoin="round"/>
<path d="M19.1222 4.9765L17.1812 17.9005C17.1325 18.2187 16.9778 18.4892 16.756 18.6925C16.5147 18.9046 16.2053 19.0301 15.8676 19.0301H7.93695C7.60905 19.0301 7.29965 18.9046 7.06808 18.7013C6.83651 18.4989 6.67208 18.2089 6.62343 17.881L4.875 4.9765" stroke="black" stroke-width="1.5" stroke-linecap="round" stroke-linejoin="round"/>
<path d="M7.06836 18.7013L12.3126 12.8772" stroke="black" stroke-width="1.5" stroke-linecap="round" stroke-linejoin="round"/>
<path d="M16.7564 18.6925L10.2266 10.144" stroke="black" stroke-width="1.5" stroke-linecap="round" stroke-linejoin="round"/>
</svg>