<svg width="24" height="25" viewBox="0 0 24 25" fill="none" xmlns="http://www.w3.org/2000/svg">
<path fill-rule="evenodd" clip-rule="evenodd" d="M11.999 21.1152C8.43345 21.1152 5.54297 18.2248 5.54297 14.6592C5.54297 11.0936 8.43345 8.2031 11.999 8.2031C15.5646 8.2031 18.4551 11.0936 18.4551 14.6592C18.4551 18.2248 15.5646 21.1152 11.999 21.1152ZM4.04297 14.6592C4.04297 19.0532 7.60502 22.6152 11.999 22.6152C16.3931 22.6152 19.9551 19.0532 19.9551 14.6592C19.9551 10.2651 16.3931 6.7031 11.999 6.7031C7.60502 6.7031 4.04297 10.2651 4.04297 14.6592Z" fill="black"/>
<path fill-rule="evenodd" clip-rule="evenodd" d="M12 2.61523C12.4142 2.61523 12.75 2.95102 12.75 3.36523V5.16208C12.75 5.5763 12.4142 5.91208 12 5.91208C11.5858 5.91208 11.25 5.5763 11.25 5.16208V3.36523C11.25 2.95102 11.5858 2.61523 12 2.61523Z" fill="black"/>
<path fill-rule="evenodd" clip-rule="evenodd" d="M8.80376 6.11461C8.4981 5.28986 9.10821 4.41309 9.98778 4.41309H14.012C14.8916 4.41309 15.5017 5.28986 15.196 6.11461L14.5358 7.89614C14.3918 8.28453 13.9603 8.4827 13.5719 8.33876C13.1835 8.19481 12.9853 7.76327 13.1292 7.37487L13.671 5.91309H10.3288L10.8705 7.37487C11.0145 7.76326 10.8163 8.19481 10.4279 8.33876C10.0395 8.4827 9.60796 8.28453 9.46402 7.89614L8.80376 6.11461Z" fill="black"/>
<path fill-rule="evenodd" clip-rule="evenodd" d="M16.7998 10.5719C16.1655 10.4019 15.5135 10.7783 15.3436 11.4126C14.9592 12.8471 13.4847 13.6984 12.0502 13.314C11.4159 13.1441 10.7639 13.5205 10.594 14.1548C10.2096 15.5893 8.73509 16.4406 7.30059 16.0562C6.66629 15.8863 6.0143 16.2627 5.84434 16.897C5.73714 17.2971 5.32588 17.5345 4.92578 17.4273C4.52568 17.3201 4.28825 16.9089 4.39545 16.5088C4.77983 15.0743 6.25432 14.223 7.68882 14.6073L7.4947 15.3318L7.68882 14.6073C8.32312 14.7773 8.9751 14.4009 9.14506 13.7666C9.52944 12.3321 11.0039 11.4808 12.4384 11.8652C13.0727 12.0351 13.7247 11.6587 13.8947 11.0244C14.279 9.58989 15.7535 8.73859 17.188 9.12297C17.5881 9.23017 17.8256 9.64143 17.7184 10.0415C17.6112 10.4416 17.1999 10.6791 16.7998 10.5719Z" fill="black"/>
<path fill-rule="evenodd" clip-rule="evenodd" d="M18.727 13.5079C18.0927 13.3379 17.4407 13.7144 17.2708 14.3487C16.8864 15.7832 15.4119 16.6345 13.9774 16.2501C13.3431 16.0801 12.6911 16.4565 12.5212 17.0908C12.1368 18.5253 10.6623 19.3766 9.22779 18.9923C8.59349 18.8223 7.9415 19.1987 7.77154 19.833C7.66434 20.2331 7.25308 20.4706 6.85298 20.3634C6.45289 20.2562 6.21545 19.8449 6.32265 19.4448C6.70703 18.0103 8.18152 17.159 9.61602 17.5434L9.4219 18.2678L9.61602 17.5434C10.2503 17.7133 10.9023 17.3369 11.0723 16.7026C11.4566 15.2681 12.9311 14.4168 14.3656 14.8012C14.9999 14.9712 15.6519 14.5947 15.8219 13.9604C16.2062 12.5259 17.6807 11.6746 19.1152 12.059C19.5153 12.1662 19.7528 12.5775 19.6456 12.9776C19.5384 13.3777 19.1271 13.6151 18.727 13.5079Z" fill="black"/>
</svg>