<svg width="24" height="25" viewBox="0 0 24 25" fill="none" xmlns="http://www.w3.org/2000/svg">
<path fill-rule="evenodd" clip-rule="evenodd" d="M11.999 10.9385C12.4132 10.9385 12.749 11.2743 12.749 11.6885V17.6299C12.749 18.0441 12.4132 18.3799 11.999 18.3799C11.5848 18.3799 11.249 18.0441 11.249 17.6299V11.6885C11.249 11.2743 11.5848 10.9385 11.999 10.9385Z" fill="black"/>
<path fill-rule="evenodd" clip-rule="evenodd" d="M15.2208 12.7989C15.4279 13.1577 15.305 13.6163 14.9463 13.8235L9.80085 16.7942C9.44213 17.0013 8.98344 16.8784 8.77633 16.5196C8.56923 16.1609 8.69213 15.7022 9.05085 15.4951L14.1963 12.5244C14.555 12.3173 15.0137 12.4402 15.2208 12.7989Z" fill="black"/>
<path fill-rule="evenodd" clip-rule="evenodd" d="M15.2208 16.5194C15.4279 16.1607 15.305 15.702 14.9463 15.4949L9.80085 12.5242C9.44213 12.3171 8.98344 12.44 8.77633 12.7987C8.56923 13.1574 8.69213 13.6161 9.05085 13.8232L14.1963 16.7939C14.555 17.0011 15.0137 16.8781 15.2208 16.5194Z" fill="black"/>
<path fill-rule="evenodd" clip-rule="evenodd" d="M12 21.1152C8.43443 21.1152 5.54395 18.2248 5.54395 14.6592C5.54395 11.0936 8.43443 8.2031 12 8.2031C15.5656 8.2031 18.4561 11.0936 18.4561 14.6592C18.4561 18.2248 15.5656 21.1152 12 21.1152ZM4.04395 14.6592C4.04395 19.0532 7.606 22.6152 12 22.6152C16.394 22.6152 19.9561 19.0532 19.9561 14.6592C19.9561 10.2651 16.394 6.7031 12 6.7031C7.606 6.7031 4.04395 10.2651 4.04395 14.6592Z" fill="black"/>
<path fill-rule="evenodd" clip-rule="evenodd" d="M8.88281 6.30273C8.88281 5.33624 9.66631 4.55273 10.6328 4.55273H13.3711C14.3376 4.55273 15.1211 5.33624 15.1211 6.30273V7.823C15.1211 8.23721 14.7853 8.573 14.3711 8.573C13.9569 8.573 13.6211 8.23721 13.6211 7.823V6.30273C13.6211 6.16466 13.5092 6.05273 13.3711 6.05273H10.6328C10.4947 6.05273 10.3828 6.16466 10.3828 6.30273V7.823C10.3828 8.23721 10.047 8.573 9.63281 8.573C9.2186 8.573 8.88281 8.23721 8.88281 7.823V6.30273Z" fill="black"/>
<path fill-rule="evenodd" clip-rule="evenodd" d="M10.2383 4.42773C10.2383 3.46124 11.0218 2.67773 11.9883 2.67773H12.0137C12.9802 2.67773 13.7637 3.46124 13.7637 4.42773V5.30273C13.7637 5.71695 13.4279 6.05273 13.0137 6.05273C12.5995 6.05273 12.2637 5.71695 12.2637 5.30273V4.42773C12.2637 4.28966 12.1517 4.17773 12.0137 4.17773H11.9883C11.8502 4.17773 11.7383 4.28966 11.7383 4.42773V5.30273C11.7383 5.71695 11.4025 6.05273 10.9883 6.05273C10.5741 6.05273 10.2383 5.71695 10.2383 5.30273V4.42773Z" fill="black"/>
</svg>