<svg width="24" height="25" viewBox="0 0 24 25" fill="none" xmlns="http://www.w3.org/2000/svg">
<path fill-rule="evenodd" clip-rule="evenodd" d="M11.9991 10.2231C10.8562 10.2231 9.92978 11.1496 9.92978 12.2924C9.92978 13.4353 10.8562 14.3617 11.9991 14.3617C13.1419 14.3617 14.0684 13.4353 14.0684 12.2924C14.0684 11.1496 13.1419 10.2231 11.9991 10.2231ZM8.42978 12.2924C8.42978 10.3212 10.0278 8.72314 11.9991 8.72314C13.9703 8.72314 15.5684 10.3212 15.5684 12.2924C15.5684 14.2637 13.9703 15.8617 11.9991 15.8617C10.0278 15.8617 8.42978 14.2637 8.42978 12.2924Z" fill="black"/>
<path fill-rule="evenodd" clip-rule="evenodd" d="M8.04102 7.59244C8.34445 7.87441 8.36185 8.34896 8.07988 8.65239C7.19215 9.6077 6.6503 10.8859 6.6503 12.2924C6.6503 12.7066 6.31451 13.0424 5.9003 13.0424C5.48609 13.0424 5.1503 12.7066 5.1503 12.2924C5.1503 10.4924 5.84568 8.85312 6.98107 7.63131C7.26303 7.32788 7.73759 7.31048 8.04102 7.59244Z" fill="black"/>
<path fill-rule="evenodd" clip-rule="evenodd" d="M12 3.79248C7.30558 3.79248 3.5 7.59806 3.5 12.2925C3.5 16.9869 7.30558 20.7925 12 20.7925C12.3933 20.7925 12.78 20.7658 13.1585 20.7143C13.0971 20.465 13.0645 20.2045 13.0645 19.9369C13.0645 19.2053 13.3078 18.5292 13.7165 17.9867C13.687 17.8115 13.671 17.6303 13.671 17.4451C13.671 15.655 15.1223 14.2032 16.9119 14.2032C17.036 14.2032 17.1587 14.2103 17.2795 14.224C17.848 13.731 18.591 13.4312 19.4047 13.4312C19.7523 13.4312 20.0876 13.4862 20.402 13.5879C20.4665 13.1658 20.5 12.7333 20.5 12.2925C20.5 7.59806 16.6944 3.79248 12 3.79248ZM2 12.2925C2 6.76963 6.47715 2.29248 12 2.29248C17.5228 2.29248 22 6.76963 22 12.2925C22 13.1935 21.8806 14.0679 21.6564 14.9C21.5911 15.1425 21.4087 15.3363 21.1705 15.416C20.9323 15.4958 20.67 15.4511 20.4718 15.2969C20.1768 15.0674 19.8075 14.9312 19.4047 14.9312C18.8815 14.9312 18.414 15.16 18.093 15.5255C17.9069 15.7374 17.6177 15.827 17.3443 15.7574C17.2058 15.7221 17.0608 15.7032 16.9119 15.7032C15.9511 15.7032 15.171 16.483 15.171 17.4451C15.171 17.5468 15.18 17.6475 15.1972 17.746C15.2111 17.8252 15.2281 17.8967 15.2486 17.962C15.3315 18.2267 15.2616 18.5155 15.0668 18.713C14.7555 19.0286 14.5645 19.4601 14.5645 19.9369C14.5645 20.283 14.6648 20.6035 14.8376 20.8736C14.9681 21.0775 14.9921 21.3319 14.9021 21.5566C14.8122 21.7813 14.6192 21.9488 14.3841 22.0063C13.6193 22.1935 12.8207 22.2925 12 22.2925C6.47715 22.2925 2 17.8153 2 12.2925Z" fill="black"/>
<path fill-rule="evenodd" clip-rule="evenodd" d="M17.3339 20.6928C16.9395 20.5662 16.7224 20.1439 16.8489 19.7495L16.852 19.74C16.9785 19.3456 17.4008 19.1284 17.7953 19.255C18.1897 19.3815 18.4068 19.8039 18.2802 20.1983L18.2772 20.2078C18.1506 20.6022 17.7283 20.8193 17.3339 20.6928Z" fill="black"/>
<path fill-rule="evenodd" clip-rule="evenodd" d="M20.2539 19.3812C19.8594 19.2547 19.6423 18.8324 19.7689 18.438L19.7719 18.4284C19.8985 18.034 20.3208 17.8169 20.7152 17.9435C21.1096 18.07 21.3267 18.4923 21.2002 18.8867L21.1971 18.8963C21.0706 19.2907 20.6483 19.5078 20.2539 19.3812Z" fill="black"/>
</svg>