<svg width="24" height="25" viewBox="0 0 24 25" fill="none" xmlns="http://www.w3.org/2000/svg">
<path fill-rule="evenodd" clip-rule="evenodd" d="M9.06203 7.63794C9.47624 7.63794 9.81203 7.97373 9.81203 8.38794V12.3317C9.81203 12.6416 9.64134 12.9263 9.368 13.0723L7.49943 14.0706C5.40057 15.1918 4.94175 18.0015 6.57489 19.7322C7.75887 20.9869 9.6651 21.2286 11.1247 20.309L16.2409 17.0858C16.874 16.6869 17.258 15.9911 17.258 15.2429V8.38794C17.258 7.97373 17.5938 7.63794 18.008 7.63794C18.4222 7.63794 18.758 7.97373 18.758 8.38794V15.2429C18.758 16.5064 18.1095 17.6814 17.0405 18.3549L11.9243 21.5782C9.85818 22.8798 7.15987 22.5377 5.48393 20.7617L6.02941 20.247L5.48393 20.7617C3.17219 18.3119 3.82167 14.3347 6.79264 12.7475L8.31203 11.9358V8.38794C8.31203 7.97373 8.64782 7.63794 9.06203 7.63794Z" fill="black"/>
<path fill-rule="evenodd" clip-rule="evenodd" d="M18.0056 12.6948C15.7807 12.6948 13.9771 14.4985 13.9771 16.7233C13.9771 17.5416 14.2202 18.3007 14.638 18.9352C14.8658 19.2812 14.7699 19.7463 14.424 19.9741C14.078 20.2019 13.6129 20.106 13.3851 19.7601C12.8111 18.8882 12.4771 17.8436 12.4771 16.7233C12.4771 13.67 14.9523 11.1948 18.0056 11.1948C18.4198 11.1948 18.7556 11.5306 18.7556 11.9448C18.7556 12.359 18.4198 12.6948 18.0056 12.6948Z" fill="black"/>
<path fill-rule="evenodd" clip-rule="evenodd" d="M7.64965 3.47702C8.15154 3.06254 8.80587 2.86475 9.47418 2.86475H17.291C17.9593 2.86475 18.6137 3.06254 19.1156 3.47702C19.6307 3.90246 19.9459 4.52703 19.9459 5.26857L19.945 6.62378C19.945 6.62395 19.945 6.6236 19.945 6.62378C19.9448 7.36509 19.6297 7.98998 19.1146 8.41533C18.6127 8.8298 17.9584 9.0276 17.2901 9.0276H9.47325C8.80494 9.0276 8.15061 8.8298 7.64872 8.41533C7.13354 7.98988 6.81836 7.36532 6.81836 6.62377L6.81929 5.26857C6.81944 4.52725 7.13459 3.90237 7.64965 3.47702ZM8.60479 4.63361C8.43053 4.77751 8.31929 4.97986 8.31929 5.26857L8.31836 6.62377C8.31836 6.62385 8.31836 6.6237 8.31836 6.62377C8.31842 6.91237 8.42965 7.11487 8.60386 7.25874C8.7914 7.41361 9.08952 7.5276 9.47325 7.5276H17.2901C17.6738 7.5276 17.9719 7.41361 18.1595 7.25874C18.3337 7.11483 18.445 6.91249 18.445 6.62378L18.4459 5.26857C18.4458 4.98014 18.3346 4.77743 18.1604 4.63361C17.9729 4.47873 17.6748 4.36475 17.291 4.36475H9.47418C9.09045 4.36475 8.79233 4.47873 8.60479 4.63361Z" fill="black"/>
</svg>