<svg width="25" height="24" viewBox="0 0 25 24" fill="none" xmlns="http://www.w3.org/2000/svg">
<path fill-rule="evenodd" clip-rule="evenodd" d="M17.535 2.98438H7.46398C4.79398 2.98438 3.00098 4.86138 3.00098 7.65438V7.73438C3.00098 7.90006 3.13529 8.03438 3.30098 8.03438H21.699C21.8647 8.03438 21.999 7.90006 21.999 7.73438V7.65438C21.999 4.86138 20.205 2.98438 17.535 2.98438Z" fill="black"/>
<path fill-rule="evenodd" clip-rule="evenodd" d="M19.5227 13.3047H18.6897V16.4037H21.8187V15.6957C21.8187 14.2877 20.8747 13.3047 19.5227 13.3047Z" fill="black"/>
<path fill-rule="evenodd" clip-rule="evenodd" d="M14.0608 15.6952V16.4032H17.1898V13.3042H16.3558C15.0038 13.3042 14.0608 14.2882 14.0608 15.6952Z" fill="black"/>
<path fill-rule="evenodd" clip-rule="evenodd" d="M14.0608 18.6248C14.0608 20.0318 15.0038 21.0148 16.3558 21.0148H17.1898V17.9028H14.0608V18.6248Z" fill="black"/>
<path fill-rule="evenodd" clip-rule="evenodd" d="M18.6897 21.0148H19.5227C20.8747 21.0148 21.8187 20.0328 21.8187 18.6248V17.9038H18.6897V21.0148Z" fill="black"/>
<path opacity="0.4" fill-rule="evenodd" clip-rule="evenodd" d="M3.00537 14.2312C3.00537 17.0312 4.79537 18.9012 7.46537 18.9012H11.7402C11.919 18.9012 12.0579 18.7458 12.0456 18.5674C11.9802 17.6196 12.0654 16.634 12.0654 15.6912C12.0654 13.1912 13.9054 11.3013 16.3554 11.3013H19.5254C20.2418 11.3013 20.9166 11.4674 21.4997 11.7631C21.7166 11.8732 21.9954 11.7255 21.9954 11.4823V9.83125C21.9954 9.66556 21.8611 9.53125 21.6954 9.53125H3.30537C3.13968 9.53125 3.00537 9.66556 3.00537 9.83125V14.2312Z" fill="black"/>
</svg>