<svg width="25" height="24" viewBox="0 0 25 24" fill="none" xmlns="http://www.w3.org/2000/svg">
<path opacity="0.4" fill-rule="evenodd" clip-rule="evenodd" d="M3.30146 9.875C3.13578 9.875 3.00146 10.0093 3.00146 10.175V14.575C3.00146 17.375 4.79146 19.245 7.46146 19.245H7.79414C8.05127 19.245 8.2028 18.929 8.09152 18.6972C7.64498 17.7671 7.81207 16.6144 8.58146 15.845C8.94184 15.4846 9.39354 15.2577 9.86001 15.1642C10.0123 15.1337 10.1315 15.0059 10.1315 14.8506V13.865C10.1315 12.475 11.2515 11.365 12.6315 11.365C14.0115 11.365 15.1315 12.475 15.1315 13.865V14.8506C15.1315 15.0059 15.2506 15.1337 15.4028 15.1649C15.8693 15.2606 16.3211 15.4946 16.6815 15.855C17.4507 16.6242 17.6179 17.7697 17.1717 18.6973C17.0603 18.9291 17.2117 19.245 17.4688 19.245H17.5315C20.2015 19.245 22.0015 17.375 22.0015 14.575V10.175C22.0015 10.0093 21.8672 9.875 21.7015 9.875H3.30146Z" fill="black"/>
<path fill-rule="evenodd" clip-rule="evenodd" d="M21.9965 7.99813C21.9965 5.20513 20.2025 3.32812 17.5325 3.32812H7.46153C4.79153 3.32812 2.99854 5.20513 2.99854 7.99813V8.07812C2.99854 8.24381 3.13285 8.37813 3.29854 8.37813H21.6965C21.8622 8.37813 21.9965 8.24381 21.9965 8.07812V7.99813Z" fill="black"/>
<path fill-rule="evenodd" clip-rule="evenodd" d="M14.3847 17.0918L13.3817 18.0968V13.8618C13.3817 13.4468 13.0457 13.1118 12.6317 13.1118C12.2177 13.1118 11.8817 13.4468 11.8817 13.8618V18.0978L10.8787 17.0918C10.5867 16.7978 10.1107 16.7978 9.81773 17.0898C9.52473 17.3828 9.52373 17.8578 9.81573 18.1508L12.0827 20.4238C12.2197 20.5738 12.4127 20.6708 12.6317 20.6708C12.8537 20.6708 13.0477 20.5698 13.1847 20.4168L15.4467 18.1508C15.7387 17.8578 15.7387 17.3828 15.4457 17.0898C15.1517 16.7978 14.6767 16.7958 14.3847 17.0918Z" fill="black"/>
</svg>