<svg width="25" height="24" viewBox="0 0 25 24" fill="none" xmlns="http://www.w3.org/2000/svg">
<path opacity="0.4" fill-rule="evenodd" clip-rule="evenodd" d="M15.1175 11.3931C15.1175 9.58312 16.5875 8.10313 18.3975 8.10313H22.4045C22.5714 8.10313 22.707 7.96671 22.6962 7.8002C22.5118 4.96084 20.1555 2.70312 17.2675 2.70312H9.13752C6.14752 2.70312 3.70752 5.14313 3.70752 8.14313V11.5331C3.70752 11.8214 4.12237 11.9808 4.36662 11.8277C4.74873 11.5881 5.20195 11.4491 5.68752 11.4431H5.69752C7.07752 11.4431 8.18752 12.5631 8.19752 13.9431V15.075C8.19752 15.2476 8.34327 15.3829 8.51547 15.3948C9.09111 15.4345 9.65993 15.674 10.1075 16.1131C11.0875 17.0831 11.0875 18.6731 10.1175 19.6531L9.95965 19.811C9.77066 20 9.90451 20.3231 10.1718 20.3231H17.2675C20.2901 20.3231 22.5535 17.8797 22.7 14.9731C22.7083 14.8076 22.5732 14.6731 22.4075 14.6731H18.3975C16.5875 14.6731 15.1175 13.2031 15.1175 11.3931Z" fill="black"/>
<path fill-rule="evenodd" clip-rule="evenodd" d="M19.2376 11.3316C19.2376 11.7516 18.9076 12.0816 18.4976 12.0816H18.4876C18.0776 12.0816 17.7376 11.7516 17.7376 11.3316C17.7376 10.9216 18.0776 10.5816 18.4876 10.5816C18.9076 10.5816 19.2376 10.9216 19.2376 11.3316ZM16.6176 11.3916C16.6176 12.3716 17.4176 13.1716 18.3976 13.1716H22.4076C22.5733 13.1716 22.7076 13.0372 22.7076 12.8716V9.90156C22.7076 9.73588 22.5733 9.60156 22.4076 9.60156H18.3976C17.4176 9.60156 16.6176 10.4016 16.6176 11.3916Z" fill="black"/>
<path fill-rule="evenodd" clip-rule="evenodd" d="M7.81361 17.3553L6.44561 18.7303L6.44261 13.9463C6.44261 13.5323 6.10661 13.1963 5.69261 13.1963C5.27861 13.1963 4.94261 13.5323 4.94261 13.9463L4.94561 18.7313L3.57361 17.3543C3.28161 17.0593 2.80761 17.0613 2.51361 17.3523C2.21961 17.6443 2.21861 18.1193 2.51161 18.4133L5.16461 21.0773H5.16561C5.23361 21.1463 5.31561 21.2013 5.40661 21.2393C5.49761 21.2773 5.59561 21.2973 5.69561 21.2973C5.71261 21.2973 5.72761 21.2893 5.74461 21.2883C5.82761 21.2823 5.90961 21.2713 5.98461 21.2393C6.07561 21.2013 6.15761 21.1463 6.22661 21.0773H6.22761L8.87661 18.4143C9.16861 18.1203 9.16761 17.6453 8.87461 17.3533C8.58161 17.0603 8.10561 17.0623 7.81361 17.3553Z" fill="black"/>
</svg>