<svg width="25" height="24" viewBox="0 0 25 24" fill="none" xmlns="http://www.w3.org/2000/svg">
<path opacity="0.4" fill-rule="evenodd" clip-rule="evenodd" d="M16.476 14.8385C14.911 14.8385 13.636 13.5635 13.636 11.9985C13.636 10.4335 14.911 9.1585 16.476 9.1585H21.7C21.8657 9.1585 22 9.02419 22 8.8585V8.2585C22 5.4625 19.727 3.1875 16.933 3.1875H8.066C5.272 3.1875 3 5.4625 3 8.2585V15.7385C3 18.5345 5.272 20.8095 8.066 20.8095H16.933C19.727 20.8095 22 18.5345 22 15.7385V15.1385C22 14.9728 21.8657 14.8385 21.7 14.8385H16.476Z" fill="black"/>
<path fill-rule="evenodd" clip-rule="evenodd" d="M15.1365 12.0024C15.1365 12.7414 15.7375 13.3424 16.4765 13.3424H21.6995C21.8652 13.3424 21.9995 13.2081 21.9995 13.0424V10.9624C21.9995 10.7968 21.8652 10.6624 21.6995 10.6624H16.4765C15.7375 10.6624 15.1365 11.2634 15.1365 12.0024Z" fill="black"/>
<path d="M9.36401 13.2122C9.36401 13.6262 9.02801 13.9622 8.61401 13.9622C8.20001 13.9622 7.86401 13.6262 7.86401 13.2122V10.7812C7.86401 10.3672 8.20001 10.0312 8.61401 10.0312C9.02801 10.0312 9.36401 10.3672 9.36401 10.7812V13.2122Z" fill="black"/>
</svg>