<svg width="25" height="24" viewBox="0 0 25 24" fill="none" xmlns="http://www.w3.org/2000/svg">
<path opacity="0.4" fill-rule="evenodd" clip-rule="evenodd" d="M15.945 15.3381C14.435 15.3381 13.205 14.1081 13.205 12.5881V11.4081C13.205 9.88812 14.435 8.65812 15.945 8.65812C17.1255 8.65812 19.4365 8.6647 20.2678 8.66719C20.4364 8.66769 20.5729 8.52895 20.5595 8.36093C20.346 5.68508 18.1114 3.57812 15.385 3.57812H8.53496C5.66496 3.57812 3.33496 5.91813 3.33496 8.78813V15.2181C3.33496 18.0881 5.66496 20.4181 8.53496 20.4181H15.385C18.1118 20.4181 20.3558 18.3106 20.5606 15.6343C20.5734 15.4666 20.437 15.3286 20.2689 15.3291C19.4384 15.3315 17.126 15.3381 15.945 15.3381Z" fill="black"/>
<path fill-rule="evenodd" clip-rule="evenodd" d="M16.7451 12.7102C16.3451 12.7102 16.0251 12.3902 16.0251 12.0002C16.0251 11.6102 16.3451 11.2902 16.7451 11.2902C17.1351 11.2902 17.4551 11.6102 17.4551 12.0002C17.4551 12.3902 17.1351 12.7102 16.7451 12.7102ZM20.4151 10.1602H15.9451C15.2551 10.1602 14.7051 10.7202 14.7051 11.4102V12.5902C14.7051 13.2802 15.2551 13.8402 15.9451 13.8402H20.4151C21.1051 13.8402 21.6651 13.2802 21.6651 12.5902V11.4102C21.6651 10.7202 21.1051 10.1602 20.4151 10.1602Z" fill="black"/>
</svg>