<svg width="25" height="24" viewBox="0 0 25 24" fill="none" xmlns="http://www.w3.org/2000/svg">
<path opacity="0.4" fill-rule="evenodd" clip-rule="evenodd" d="M19.9501 12.7497C19.5361 12.7497 19.2001 12.4137 19.2001 11.9997C19.2001 11.5857 19.5361 11.2497 19.9501 11.2497H21.7075C21.8825 11.2497 22.0207 11.1002 22.0011 10.9263C21.5056 6.5467 18.024 3.06519 13.6435 2.56974C13.4696 2.55007 13.3201 2.68831 13.3201 2.86327V4.62074C13.3201 5.03474 12.9841 5.37074 12.5701 5.37074C12.1561 5.37074 11.8201 5.03474 11.8201 4.62074V2.86327C11.8201 2.68831 11.6705 2.55008 11.4967 2.56975C7.11701 3.06523 3.63461 6.54672 3.13908 10.9263C3.11941 11.1002 3.25765 11.2497 3.43261 11.2497H5.19208C5.60608 11.2497 5.94208 11.5857 5.94208 11.9997C5.94208 12.4137 5.60608 12.7497 5.19208 12.7497H3.4326C3.25764 12.7497 3.11941 12.8993 3.13907 13.0731C3.63457 17.4537 7.11699 20.9353 11.4967 21.4307C11.6705 21.4504 11.8201 21.3122 11.8201 21.1372V19.3797C11.8201 18.9657 12.1561 18.6297 12.5701 18.6297C12.9841 18.6297 13.3201 18.9657 13.3201 19.3797V21.1372C13.3201 21.3122 13.4696 21.4504 13.6435 21.4307C18.0241 20.9353 21.5056 17.4537 22.0011 13.0731C22.0207 12.8993 21.8825 12.7497 21.7076 12.7497H19.9501Z" fill="black"/>
<path fill-rule="evenodd" clip-rule="evenodd" d="M16.0612 14.9556C15.9202 15.1906 15.6722 15.3206 15.4172 15.3206C15.2862 15.3206 15.1532 15.2866 15.0322 15.2136L11.8572 13.3136C11.6312 13.1786 11.4932 12.9336 11.4932 12.6696V8.58057C11.4932 8.16557 11.8292 7.83057 12.2432 7.83057C12.6572 7.83057 12.9932 8.16557 12.9932 8.58057V12.0745C12.9932 12.18 13.0486 12.2777 13.1391 12.3319L15.8032 13.9266C16.1582 14.1396 16.2742 14.6006 16.0612 14.9556Z" fill="black"/>
</svg>