<svg width="24" height="24" viewBox="0 0 24 24" fill="none" xmlns="http://www.w3.org/2000/svg">
<path fill-rule="evenodd" clip-rule="evenodd" d="M11.8948 7.8028C12.309 7.8028 12.6448 8.13858 12.6448 8.5528V12.2468L15.4708 13.9356C15.8264 14.148 15.9424 14.6085 15.7299 14.9641C15.5175 15.3197 15.057 15.4357 14.7014 15.2232L11.5101 13.3162C11.2835 13.1808 11.1448 12.9363 11.1448 12.6724V8.5528C11.1448 8.13858 11.4806 7.8028 11.8948 7.8028Z" fill="black"/>
<path fill-rule="evenodd" clip-rule="evenodd" d="M9.56785 2.8385C9.92303 3.05161 10.0382 3.51231 9.8251 3.86749L9.81926 3.87722C9.60615 4.23241 9.14545 4.34758 8.79027 4.13447C8.43508 3.92136 8.31991 3.46066 8.53302 3.10548L8.53886 3.09575C8.75197 2.74056 9.21266 2.62539 9.56785 2.8385Z" fill="black"/>
<path fill-rule="evenodd" clip-rule="evenodd" d="M5.75193 5.43817C6.10712 5.65128 6.22229 6.11198 6.00918 6.46716L6.00334 6.47689C5.79023 6.83208 5.32953 6.94725 4.97435 6.73414C4.61916 6.52103 4.50399 6.06033 4.7171 5.70515L4.72294 5.69542C4.93605 5.34023 5.39675 5.22506 5.75193 5.43817Z" fill="black"/>
<path fill-rule="evenodd" clip-rule="evenodd" d="M3.7053 9.58472C4.06049 9.79783 4.17566 10.2585 3.96255 10.6137L3.95671 10.6234C3.7436 10.9786 3.2829 11.0938 2.92772 10.8807C2.57253 10.6676 2.45736 10.2069 2.67047 9.85169L2.67631 9.84196C2.88942 9.48678 3.35012 9.3716 3.7053 9.58472Z" fill="black"/>
<path fill-rule="evenodd" clip-rule="evenodd" d="M3.94871 14.1531C4.30389 14.3662 4.41907 14.8269 4.20596 15.1821L4.20012 15.1919C3.98701 15.547 3.52631 15.6622 3.17113 15.4491C2.81594 15.236 2.70077 14.7753 2.91388 14.4201L2.91972 14.4104C3.13283 14.0552 3.59352 13.94 3.94871 14.1531Z" fill="black"/>
<path fill-rule="evenodd" clip-rule="evenodd" d="M6.46809 17.9658C6.81273 18.1955 6.90586 18.6612 6.6761 19.0058L6.67026 19.0146C6.44049 19.3592 5.97484 19.4524 5.6302 19.2226C5.28555 18.9928 5.19242 18.5272 5.42219 18.1825L5.42802 18.1738C5.65779 17.8291 6.12344 17.736 6.46809 17.9658Z" fill="black"/>
<path fill-rule="evenodd" clip-rule="evenodd" d="M11.4316 2.99897C11.4322 2.58476 11.7684 2.24943 12.1826 2.25C17.5678 2.25738 21.9263 6.62861 21.9189 12.0137C21.9116 17.3989 17.5403 21.7574 12.1553 21.75L12.155 21.75C10.9268 21.7479 9.74995 21.5194 8.66592 21.1014C8.27944 20.9524 8.08695 20.5183 8.23597 20.1318C8.38499 19.7453 8.8191 19.5528 9.20558 19.7018C10.12 20.0544 11.1147 20.2482 12.1573 20.25C16.7141 20.2562 20.4127 16.5682 20.4189 12.0116C20.4252 7.45484 16.7372 3.75624 12.1806 3.75C11.7663 3.74943 11.431 3.41319 11.4316 2.99897Z" fill="black"/>
</svg>
