<svg width="24" height="24" viewBox="0 0 24 24" fill="none" xmlns="http://www.w3.org/2000/svg">
<path fill-rule="evenodd" clip-rule="evenodd" d="M9.53032 2.25133C9.54517 2.25044 9.56004 2.25 9.57492 2.25H14.4252C14.4401 2.25 14.455 2.25044 14.4698 2.25133C15.6806 2.3235 16.6598 2.82463 17.305 3.6391C17.9422 4.44346 18.2021 5.48732 18.1171 6.56741L18.1161 6.57971L18.116 6.5797C18.034 7.44023 17.5955 8.19544 16.9837 8.94387C16.3767 9.68647 15.525 10.5083 14.5039 11.4887C14.2602 11.7456 14.2222 11.9128 14.2222 12.0001C14.2222 12.0875 14.2603 12.255 14.5041 12.5125C15.5251 13.4928 16.3766 14.3143 16.9836 15.0565C17.5954 15.8047 18.034 16.5597 18.116 17.4203L18.1172 17.4326L18.1171 17.4326C18.2021 18.5127 17.9422 19.5565 17.305 20.3609C16.6598 21.1754 15.6806 21.6765 14.4698 21.7487C14.455 21.7496 14.4401 21.75 14.4252 21.75H9.57492C9.56004 21.75 9.54517 21.7496 9.53032 21.7487C8.31918 21.6765 7.33962 21.1755 6.69434 20.3609C6.05706 19.5564 5.79743 18.5124 5.88305 17.4322L5.884 17.4203L5.88409 17.4203C5.96611 16.5597 6.4047 15.8047 7.01651 15.0565C7.62344 14.3143 8.47495 13.4929 9.49579 12.5127C9.73924 12.2552 9.77746 12.0876 9.77746 12.0001C9.77746 11.9129 9.73953 11.7458 9.49539 11.4888C8.47468 10.5083 7.62319 9.68644 7.01626 8.94381C6.40462 8.19541 5.96611 7.44021 5.88409 6.5797L5.88296 6.56781L5.88305 6.5678C5.79743 5.48761 6.05706 4.44358 6.69434 3.6391C7.33962 2.82453 8.31918 2.32349 9.53032 2.25133ZM9.59832 3.75C8.77971 3.80372 8.22034 4.12841 7.87013 4.57052C7.50987 5.0253 7.3181 5.67245 7.37787 6.44301C7.41987 6.86733 7.64289 7.34019 8.17772 7.99459C8.71736 8.65489 9.49833 9.41171 10.5459 10.418C10.553 10.4249 10.56 10.4318 10.5668 10.4389C10.9826 10.8711 11.2775 11.3945 11.2775 12.0001C11.2775 12.6054 10.983 13.1287 10.5689 13.5609C10.5617 13.5684 10.5543 13.5758 10.5468 13.5831C9.49864 14.5894 8.71746 15.346 8.17771 16.0061C7.64281 16.6602 7.41986 17.1328 7.37787 17.557C7.3181 18.3276 7.50987 18.9747 7.87013 19.4295C8.22034 19.8716 8.77971 20.1963 9.59832 20.25H14.4018C15.2198 20.1963 15.779 19.8717 16.1293 19.4295C16.4896 18.9746 16.6815 18.3274 16.6222 17.5568C16.5802 17.1326 16.3572 16.6601 15.8224 16.0061C15.2827 15.346 14.5015 14.5894 13.4533 13.5831C13.4459 13.576 13.4387 13.5687 13.4316 13.5613C13.0167 13.1289 12.7222 12.6055 12.7222 12.0001C12.7222 11.3946 13.0169 10.8713 13.4319 10.4393C13.4389 10.432 13.4461 10.4249 13.4533 10.4179C14.5014 9.41162 15.2826 8.6548 15.8223 7.99453C16.3572 7.34025 16.5802 6.86744 16.6222 6.44319C16.6815 5.67261 16.4896 5.02538 16.1293 4.57052C15.779 4.12832 15.2198 3.80371 14.4018 3.75H9.59832Z" fill="black"/>
</svg>
