<svg width="24" height="24" viewBox="0 0 24 24" fill="none" xmlns="http://www.w3.org/2000/svg">
<path fill-rule="evenodd" clip-rule="evenodd" d="M12 6.42581C8.183 6.42581 5.08789 9.52092 5.08789 13.3379C5.08789 17.1549 8.183 20.25 12 20.25C12.4142 20.25 12.75 20.5858 12.75 21C12.75 21.4142 12.4142 21.75 12 21.75C7.35457 21.75 3.58789 17.9833 3.58789 13.3379C3.58789 8.69249 7.35457 4.92581 12 4.92581C16.6454 4.92581 20.4121 8.69249 20.4121 13.3379C20.4121 13.7521 20.0763 14.0879 19.6621 14.0879C19.2479 14.0879 18.9121 13.7521 18.9121 13.3379C18.9121 9.52092 15.817 6.42581 12 6.42581Z" fill="black"/>
<path fill-rule="evenodd" clip-rule="evenodd" d="M9.14648 3C9.14648 2.58579 9.48227 2.25 9.89648 2.25H14.1042C14.5185 2.25 14.8542 2.58579 14.8542 3C14.8542 3.41421 14.5185 3.75 14.1042 3.75H9.89648C9.48227 3.75 9.14648 3.41421 9.14648 3Z" fill="black"/>
<path fill-rule="evenodd" clip-rule="evenodd" d="M15.4619 9.83881C15.7548 10.1317 15.7548 10.6066 15.4619 10.8995L12.5206 13.8408C12.2277 14.1337 11.7528 14.1337 11.4599 13.8408C11.167 13.5479 11.167 13.073 11.4599 12.7801L14.4012 9.83881C14.6941 9.54592 15.169 9.54592 15.4619 9.83881Z" fill="black"/>
<path fill-rule="evenodd" clip-rule="evenodd" d="M15.1307 16.5433C15.4776 16.1711 15.9592 15.9805 16.4831 15.9805H18.4238C18.9482 15.9805 19.4302 16.1708 19.7773 16.5437C20.1187 16.9105 20.2741 17.3936 20.2741 17.8875V19.7148C20.2741 20.2086 20.1187 20.6917 19.7773 21.0586C19.4302 21.4315 18.9482 21.6218 18.4238 21.6218H16.4831C15.9587 21.6218 15.4767 21.4315 15.1296 21.0586C14.7882 20.6917 14.6328 20.2086 14.6328 19.7148V17.8875C14.6328 17.3927 14.7892 16.9097 15.1307 16.5433ZM16.2281 17.566C16.1884 17.6085 16.1328 17.704 16.1328 17.8875V19.7148C16.1328 19.8991 16.1885 19.9945 16.2277 20.0366C16.2612 20.0727 16.3294 20.1218 16.4831 20.1218H18.4238C18.5776 20.1218 18.6457 20.0727 18.6793 20.0366C18.7184 19.9945 18.7741 19.8991 18.7741 19.7148V17.8875C18.7741 17.7031 18.7184 17.6077 18.6793 17.5656C18.6457 17.5296 18.5776 17.4805 18.4238 17.4805H16.4831C16.3308 17.4805 16.2623 17.5293 16.2281 17.566Z" fill="black"/>
</svg>
