<svg width="24" height="24" viewBox="0 0 24 24" fill="none" xmlns="http://www.w3.org/2000/svg">
<path fill-rule="evenodd" clip-rule="evenodd" d="M11.9571 6.41425C8.15839 6.41425 5.07812 9.49451 5.07812 13.2932C5.07812 17.0919 8.15839 20.1722 11.9571 20.1722C12.3713 20.1722 12.7071 20.508 12.7071 20.9222C12.7071 21.3364 12.3713 21.6722 11.9571 21.6722C7.32997 21.6722 3.57812 17.9203 3.57812 13.2932C3.57812 8.66609 7.32997 4.91425 11.9571 4.91425C16.5842 4.91425 20.3361 8.66609 20.3361 13.2932C20.3361 13.7074 20.0003 14.0432 19.5861 14.0432C19.1718 14.0432 18.8361 13.7074 18.8361 13.2932C18.8361 9.49451 15.7558 6.41425 11.9571 6.41425Z" fill="black"/>
<path fill-rule="evenodd" clip-rule="evenodd" d="M9.11328 3C9.11328 2.58579 9.44907 2.25 9.86328 2.25H14.0528C14.4671 2.25 14.8028 2.58579 14.8028 3C14.8028 3.41421 14.4671 3.75 14.0528 3.75H9.86328C9.44907 3.75 9.11328 3.41421 9.11328 3Z" fill="black"/>
<path fill-rule="evenodd" clip-rule="evenodd" d="M15.4062 9.80756C15.6991 10.1005 15.6991 10.5753 15.4062 10.8682L12.4776 13.7968C12.1847 14.0897 11.7098 14.0897 11.4169 13.7968C11.124 13.5039 11.124 13.0291 11.4169 12.7362L14.3455 9.80756C14.6384 9.51467 15.1133 9.51467 15.4062 9.80756Z" fill="black"/>
<path fill-rule="evenodd" clip-rule="evenodd" d="M16.3138 17.1579C16.2143 18.048 16.2117 19.0082 16.3144 20.0198C16.3359 20.1807 16.3981 20.2216 16.4133 20.2303C16.4312 20.2405 16.5196 20.2809 16.7139 20.2043C17.4789 19.8919 18.1787 19.4319 18.737 18.9222C18.8921 18.7776 18.9209 18.656 18.9206 18.5844C18.9202 18.5114 18.8887 18.3923 18.7394 18.2559L18.7356 18.2525L18.7356 18.2525C18.1497 17.71 17.4716 17.2847 16.7073 16.9689L16.7002 16.966L16.7002 16.9659C16.5512 16.9026 16.4589 16.9285 16.4229 16.9476C16.3974 16.9611 16.3351 17.0032 16.3138 17.1579ZM17.2833 15.5839C16.7766 15.3697 16.2069 15.3644 15.7205 15.6222C15.2226 15.886 14.9022 16.3782 14.8255 16.9704L14.8254 16.9704L14.824 16.983C14.7105 17.9931 14.7092 19.0666 14.8232 20.1816L14.825 20.1975C14.8939 20.754 15.179 21.2539 15.6717 21.5342C16.1619 21.8129 16.7402 21.8081 17.2708 21.5972L17.2708 21.5972L17.2769 21.5947C18.2181 21.2109 19.069 20.6507 19.751 20.0275L19.7511 20.0275L19.755 20.0239C20.1723 19.6369 20.4235 19.1293 20.4205 18.5762C20.4175 18.0253 20.1627 17.5253 19.7529 17.1501C19.0285 16.4799 18.1983 15.9624 17.2833 15.5839Z" fill="black"/>
</svg>
