<svg width="24" height="24" viewBox="0 0 24 24" fill="none" xmlns="http://www.w3.org/2000/svg">
<path fill-rule="evenodd" clip-rule="evenodd" d="M11.9952 6.15839C8.27699 6.15839 5.26367 9.1717 5.26367 12.8899C5.26367 16.608 8.27699 19.6214 11.9952 19.6214C15.7134 19.6214 18.7276 16.6079 18.7276 12.8899C18.7276 9.17183 15.7134 6.15839 11.9952 6.15839ZM3.76367 12.8899C3.76367 8.34328 7.44856 4.65839 11.9952 4.65839C16.5416 4.65839 20.2276 8.34315 20.2276 12.8899C20.2276 17.4366 16.5416 21.1214 11.9952 21.1214C7.44856 21.1214 3.76367 17.4365 3.76367 12.8899Z" fill="black"/>
<path fill-rule="evenodd" clip-rule="evenodd" d="M11.8242 9.2793C12.2384 9.2793 12.5742 9.61508 12.5742 10.0293V13.1377L14.9469 14.555C15.3025 14.7675 15.4186 15.2279 15.2061 15.5835C14.9937 15.9391 14.5332 16.0552 14.1776 15.8428L11.4396 14.2071C11.213 14.0718 11.0742 13.8272 11.0742 13.5633V10.0293C11.0742 9.61508 11.41 9.2793 11.8242 9.2793Z" fill="black"/>
<path fill-rule="evenodd" clip-rule="evenodd" d="M6.88267 3.24534C7.09991 3.59802 6.99011 4.06002 6.63743 4.27726C5.44677 5.01067 4.41134 5.99453 3.61838 7.14956C3.38395 7.49105 2.91707 7.57783 2.57559 7.34339C2.2341 7.10895 2.14732 6.64208 2.38176 6.30059C3.29352 4.9725 4.48239 3.84298 5.85075 3.00011C6.20342 2.78287 6.66543 2.89267 6.88267 3.24534Z" fill="black"/>
<path fill-rule="evenodd" clip-rule="evenodd" d="M17.1064 3.23749C17.3226 2.88416 17.7843 2.77296 18.1376 2.98912C19.5178 3.83352 20.7076 4.97404 21.6183 6.30053C21.8527 6.64201 21.7659 7.10889 21.4244 7.34333C21.0829 7.57776 20.6161 7.49098 20.3816 7.1495C19.5876 5.99286 18.5511 5.00054 17.3548 4.26866C17.0015 4.0525 16.8903 3.59083 17.1064 3.23749Z" fill="black"/>
</svg>
