<svg width="24" height="25" viewBox="0 0 24 25" fill="none" xmlns="http://www.w3.org/2000/svg">
<path fill-rule="evenodd" clip-rule="evenodd" d="M17.2872 8.97622C17.4748 9.0143 17.6516 8.87183 17.6515 8.68039L17.6507 6.84388C17.6507 6.45888 17.3967 6.12088 17.0457 6.02488C13.7407 5.03388 10.2487 5.03388 6.96167 6.02188C6.59667 6.11988 6.34167 6.45888 6.34167 6.84388V8.68642C6.34167 8.87785 6.51854 9.02024 6.70613 8.98206C10.2074 8.26952 13.7998 8.26839 17.2872 8.97622Z" fill="black"/>
<path fill-rule="evenodd" clip-rule="evenodd" d="M21.1901 20.1875C20.8617 19.9501 20.3973 19.6129 19.6421 19.4962C19.6256 19.4937 19.6091 19.4897 19.593 19.4851C19.5025 19.459 19.4062 19.449 19.3122 19.457C19.2961 19.4584 19.28 19.4591 19.2639 19.4585C19.2025 19.456 19.1397 19.4545 19.0761 19.4545C17.9581 19.4545 17.3641 19.8945 16.8871 20.2475C16.4821 20.5465 16.2151 20.7445 15.5911 20.7445C14.9681 20.7445 14.7011 20.5465 14.2961 20.2475C13.8201 19.8945 13.2271 19.4545 12.1101 19.4545C10.9921 19.4545 10.3991 19.8945 9.92208 20.2475C9.51808 20.5465 9.25108 20.7445 8.62808 20.7445C8.00508 20.7445 7.73908 20.5465 7.33408 20.2465C6.85708 19.8945 6.26408 19.4545 5.14708 19.4545C4.02008 19.4545 3.42508 19.8985 2.94708 20.2555L2.80808 20.3585C2.47308 20.6025 2.39908 21.0715 2.64308 21.4065C2.88608 21.7395 3.35508 21.8145 3.69108 21.5715L3.84408 21.4575C4.25108 21.1545 4.51808 20.9545 5.14708 20.9545C5.76908 20.9545 6.03708 21.1525 6.44108 21.4525C6.91808 21.8055 7.51008 22.2445 8.62808 22.2445C9.74608 22.2445 10.3381 21.8055 10.8151 21.4525C11.2201 21.1525 11.4871 20.9545 12.1101 20.9545C12.7321 20.9545 13.0001 21.1525 13.4041 21.4525C13.8801 21.8055 14.4731 22.2445 15.5911 22.2445C16.7101 22.2445 17.3031 21.8055 17.7801 21.4525C18.1851 21.1525 18.4521 20.9545 19.0761 20.9545C19.6921 20.9545 19.9791 21.1625 20.3111 21.4025C20.6471 21.6455 21.1161 21.5705 21.3581 21.2345C21.6011 20.8985 21.5261 20.4305 21.1901 20.1875Z" fill="black"/>
<path opacity="0.4" fill-rule="evenodd" clip-rule="evenodd" d="M14.6357 4.48009C14.8189 4.50657 14.9848 4.36581 14.9848 4.18073V3.33896C14.9848 3.01696 14.7868 2.73496 14.4478 2.60996C12.8428 2.13096 11.1488 2.13096 9.51284 2.61996C9.20584 2.73496 9.00684 3.01696 9.00684 3.33896V4.17974C9.00684 4.36481 9.17276 4.50558 9.35593 4.47912C11.1032 4.22671 12.8792 4.22612 14.6357 4.48009Z" fill="black"/>
<g opacity="0.4">
<path fill-rule="evenodd" clip-rule="evenodd" d="M3.81056 18.072C3.84821 18.2567 4.04496 18.3602 4.22638 18.3088C4.48797 18.2346 4.78879 18.1873 5.14716 18.1873C6.26416 18.1873 6.85716 18.6263 7.33416 18.9793C7.73816 19.2793 8.00516 19.4773 8.62816 19.4773C9.25016 19.4773 9.51816 19.2793 9.92216 18.9793C10.2131 18.7648 10.5561 18.5231 11.0278 18.3643C11.1577 18.3206 11.2512 18.2024 11.2512 18.0654V9.7633C11.2512 9.59414 11.1114 9.45826 10.9424 9.4652C8.27196 9.57488 5.61197 10.0839 3.06416 11.0323C2.69716 11.1823 2.48716 11.5703 2.56416 11.9543L3.81056 18.072Z" fill="black"/>
<path fill-rule="evenodd" clip-rule="evenodd" d="M12.7517 18.0006C12.7517 18.1457 12.8562 18.2685 12.9966 18.3052C13.5742 18.4564 13.9673 18.7353 14.2967 18.9793C14.7007 19.2793 14.9687 19.4773 15.5917 19.4773C16.2157 19.4773 16.4827 19.2793 16.8877 18.9793C17.3637 18.6263 17.9577 18.1873 19.0757 18.1873C19.138 18.1873 19.2002 18.1888 19.2599 18.1918C19.2784 18.1927 19.297 18.1919 19.3154 18.1903C19.408 18.1823 19.5035 18.1921 19.5904 18.2174C19.6073 18.2223 19.6245 18.2266 19.6419 18.2293C19.7007 18.2384 19.7577 18.2489 19.813 18.2606C19.9875 18.2976 20.1668 18.1938 20.2024 18.019L21.4387 11.9543C21.5157 11.5713 21.3057 11.1833 20.9237 11.0263C18.3836 10.0808 15.7286 9.57375 13.0604 9.46509C12.8914 9.45821 12.7517 9.59408 12.7517 9.76319V18.0006Z" fill="black"/>
</g>
</svg>