<svg width="24" height="25" viewBox="0 0 24 25" fill="none" xmlns="http://www.w3.org/2000/svg">
<path fill-rule="evenodd" clip-rule="evenodd" d="M19.7049 14.4998C19.7049 14.5798 19.7049 14.6698 19.6949 14.7498C19.6749 15.5098 19.5449 16.2398 19.3049 16.9298C19.1449 17.4098 18.9449 17.8698 18.6949 18.2998C17.3749 20.6298 14.8649 22.2098 11.9949 22.2098C9.15492 22.2098 6.66492 20.6598 5.33492 18.3598C5.08492 17.9298 4.87492 17.4698 4.71492 16.9898C4.46492 16.2898 4.32492 15.5498 4.30492 14.7798C4.29492 14.6898 4.29492 14.5898 4.29492 14.4998C4.29492 13.9898 4.34492 13.4898 4.44492 12.9998C4.95492 10.4298 6.74492 8.3098 9.13492 7.3498C10.0149 6.9998 10.9849 6.7998 11.9949 6.7998C13.0149 6.7998 13.9849 6.9998 14.8749 7.3598C17.2349 8.3098 19.0249 10.3998 19.5449 12.9398V12.9498C19.6549 13.4498 19.7049 13.9698 19.7049 14.4998Z" fill="black" fill-opacity="0.4"/>
<path fill-rule="evenodd" clip-rule="evenodd" d="M14.8748 6.15051V7.36051C13.9848 7.00051 13.0148 6.80051 11.9948 6.80051C10.9848 6.80051 10.0148 7.00051 9.13477 7.35051V6.15051C9.13477 5.32051 9.80477 4.65051 10.6348 4.65051H10.7348V4.27051C10.7348 3.58051 11.2948 3.02051 11.9848 3.02051C12.7048 3.02051 13.2648 3.58051 13.2648 4.27051V4.65051H13.3748C14.1948 4.65051 14.8748 5.32051 14.8748 6.15051Z" fill="black"/>
<path fill-rule="evenodd" clip-rule="evenodd" d="M19.3049 16.9307C19.1449 17.4107 18.9449 17.8707 18.6949 18.3007L15.9649 16.7507L12.4149 18.8007C12.3049 18.8707 12.1749 18.9007 12.0449 18.9007C11.9149 18.9007 11.7849 18.8707 11.6649 18.8007L8.12494 16.7507L5.33494 18.3607C5.08494 17.9307 4.87494 17.4707 4.71494 16.9907L7.74494 15.2407C7.97494 15.1007 8.26494 15.1007 8.49494 15.2407L12.0449 17.2907L15.5949 15.2407C15.8249 15.1007 16.1049 15.1007 16.3349 15.2407L19.3049 16.9307Z" fill="black"/>
<path fill-rule="evenodd" clip-rule="evenodd" d="M19.7049 14.5007C19.7049 14.5807 19.7049 14.6707 19.6949 14.7507C19.6649 14.7407 19.6349 14.7307 19.6149 14.7107L16.0349 12.6507L12.4149 14.7307C12.3049 14.8007 12.1749 14.8307 12.0449 14.8307C11.9149 14.8307 11.7849 14.8007 11.6649 14.7307L8.05492 12.6507L4.47492 14.7107C4.42492 14.7407 4.36492 14.7607 4.30492 14.7807C4.29492 14.6907 4.29492 14.5907 4.29492 14.5007C4.29492 13.9907 4.34492 13.4907 4.44492 13.0007L7.68492 11.1307C7.91492 11.0007 8.19492 11.0007 8.43492 11.1307L12.0449 13.2207L15.6549 11.1307C15.8849 11.0007 16.1749 11.0007 16.4049 11.1307L19.5449 12.9407V12.9507C19.6549 13.4507 19.7049 13.9707 19.7049 14.5007Z" fill="black"/>
</svg>