<svg width="24" height="25" viewBox="0 0 24 25" fill="none" xmlns="http://www.w3.org/2000/svg">
<path fill-rule="evenodd" clip-rule="evenodd" d="M19.7049 14.7901C19.7049 19.0301 16.2449 22.4901 12.0049 22.4901C7.75492 22.4901 4.29492 19.0301 4.29492 14.7901C4.29492 11.3301 6.59492 8.39008 9.74492 7.42008C10.4549 7.20008 11.2149 7.08008 12.0049 7.08008C12.7849 7.08008 13.5449 7.20008 14.2549 7.42008C17.4049 8.38008 19.7049 11.3201 19.7049 14.7901Z" fill="black" fill-opacity="0.4"/>
<path fill-rule="evenodd" clip-rule="evenodd" d="M15.5031 14.9572C15.0891 14.9572 14.7531 14.6212 14.7531 14.2072C14.7531 13.0082 13.7771 12.0332 12.5791 12.0332C12.1651 12.0332 11.8291 11.6972 11.8291 11.2832C11.8291 10.8692 12.1651 10.5332 12.5791 10.5332C14.6051 10.5332 16.2531 12.1812 16.2531 14.2072C16.2531 14.6212 15.9171 14.9572 15.5031 14.9572Z" fill="black"/>
<path fill-rule="evenodd" clip-rule="evenodd" d="M14.2551 6.67023V7.42023C13.5451 7.20023 12.7851 7.08023 12.0051 7.08023C11.2151 7.08023 10.4551 7.20023 9.74512 7.42023V6.67023C9.74512 5.69023 10.3751 4.86023 11.2451 4.55023V3.49023C11.2451 3.07023 11.5851 2.74023 11.9951 2.74023C12.4151 2.74023 12.7451 3.07023 12.7451 3.49023V4.55023C13.6251 4.86023 14.2551 5.69023 14.2551 6.67023Z" fill="black"/>
</svg>