<svg width="24" height="25" viewBox="0 0 24 25" fill="none" xmlns="http://www.w3.org/2000/svg">
<path fill-rule="evenodd" clip-rule="evenodd" d="M18.9091 15.7082C17.3491 14.7982 14.4491 14.8382 11.7391 15.5082C9.85914 15.9682 8.15914 16.7082 6.93914 17.5882C6.18914 18.1282 5.65914 18.7082 5.36914 19.2882C6.18914 17.8382 6.06914 15.8882 5.94914 14.0082C5.76914 11.1382 5.56914 7.89821 9.12914 6.83821C13.1191 5.94821 14.6991 8.98821 16.0991 11.6782C16.8891 13.1982 17.6991 14.7682 18.9091 15.7082Z" fill="black" fill-opacity="0.4"/>
<path fill-rule="evenodd" clip-rule="evenodd" d="M6.11409 8.34062C6.59909 8.49362 7.12909 8.56962 7.67909 8.56962C7.81165 8.56962 7.9454 8.56522 8.07997 8.55644L7.66214 10.4981C7.57514 10.9041 7.83314 11.3031 8.23714 11.3901C8.64514 11.4791 9.04114 11.2201 9.12914 10.8151L9.51914 9.00006C9.52075 9.00651 9.52238 9.01301 9.52402 9.01955C9.5356 9.06575 9.54775 9.11425 9.55914 9.16506C9.76014 10.0051 10.0371 11.1571 11.1481 11.5571C11.2321 11.5871 11.3181 11.6021 11.4031 11.6021C11.7101 11.6021 11.9991 11.4131 12.1081 11.1071C12.2491 10.7171 12.0481 10.2881 11.6581 10.1471C11.3321 10.0291 11.1921 9.54306 11.0181 8.81506C10.9482 8.52363 10.861 8.16332 10.7143 7.8222C11.3526 7.49186 11.9069 7.06736 12.3321 6.57562C13.0811 5.70862 13.3621 4.68962 13.1031 3.77962C12.9601 3.27762 12.6321 2.86162 12.1771 2.60762C11.7231 2.35562 11.1961 2.29462 10.6951 2.43562C9.76409 2.70062 9.01509 3.36162 8.58309 4.29862C8.52609 4.42262 8.47609 4.54962 8.43109 4.67862C7.55309 3.95562 6.41809 3.65062 5.33309 3.95962C4.29809 4.25262 3.69509 5.33262 3.98809 6.36862C4.24709 7.27962 5.02209 7.99862 6.11409 8.34062ZM11.1051 3.87962C11.1461 3.86762 11.1881 3.86162 11.2291 3.86162C11.3041 3.86162 11.3791 3.88062 11.4471 3.91862C11.5511 3.97662 11.6271 4.07262 11.6601 4.18862C11.8221 4.75762 11.4391 5.31362 11.1971 5.59362C10.8481 5.99862 10.3491 6.35062 9.77409 6.61062C9.65409 6.02162 9.71309 5.43062 9.94609 4.92562C10.1911 4.39362 10.6031 4.02162 11.1051 3.87962ZM5.74209 5.40262C5.89309 5.35962 6.04609 5.33962 6.20009 5.33962C7.07509 5.33962 7.93509 6.01062 8.31009 7.02662C7.68209 7.10662 7.07309 7.07062 6.56409 6.91062C6.21009 6.79962 5.59309 6.52762 5.43109 5.95962C5.36409 5.71962 5.50209 5.46962 5.74209 5.40262Z" fill="black"/>
<path fill-rule="evenodd" clip-rule="evenodd" d="M12.219 19.9582C12.139 19.9582 12.059 19.9682 11.979 19.9682C11.079 19.9682 10.259 19.5682 9.75904 18.9282C9.96904 18.8082 10.199 18.6982 10.449 18.5882C10.689 18.4782 10.969 18.3682 11.259 18.2782C11.579 18.1582 11.929 18.0582 12.299 17.9682C12.589 17.8982 12.869 17.8382 13.129 17.7982C13.429 17.7382 13.719 17.6982 13.989 17.6782C14.279 17.6482 14.539 17.6282 14.779 17.6282C14.449 19.2082 13.259 19.8682 12.219 19.9582ZM20.029 17.0982C19.939 16.7282 19.749 16.4082 19.479 16.1482C19.439 16.0982 19.389 16.0582 19.339 16.0182L19.079 15.8392C19.018 15.7982 18.974 15.7442 18.909 15.7082C17.349 14.7982 14.449 14.8382 11.739 15.5082C9.85904 15.9682 8.15904 16.7082 6.93904 17.5882C6.18904 18.1282 5.65904 18.7082 5.36904 19.2882C5.32904 19.3582 5.29904 19.4282 5.27904 19.4982C5.09904 19.9282 5.05904 20.3582 5.15904 20.7782C5.51904 22.2482 7.35904 22.8682 9.61904 22.8682C10.829 22.8682 12.159 22.6882 13.439 22.3682C15.329 21.9082 17.029 21.1682 18.249 20.2882C19.649 19.2682 20.289 18.1382 20.029 17.0982Z" fill="black"/>
</svg>