<svg width="24" height="25" viewBox="0 0 24 25" fill="none" xmlns="http://www.w3.org/2000/svg">
<path fill-rule="evenodd" clip-rule="evenodd" d="M17.385 4.45215H6.604C4 4.45215 2.25 6.37115 2.25 9.22915V16.0001C2.25 18.8581 4 20.7781 6.604 20.7781H17.385C19.996 20.7781 21.75 18.8581 21.75 16.0001V9.22915C21.75 6.37115 19.996 4.45215 17.385 4.45215Z" fill="black" fill-opacity="0.4"/>
<path fill-rule="evenodd" clip-rule="evenodd" d="M6.51219 14.6882L5.91919 15.2792C5.62619 15.5722 5.62519 16.0462 5.91819 16.3402C6.06519 16.4872 6.25719 16.5602 6.44919 16.5602C6.64019 16.5602 6.83219 16.4872 6.97919 16.3412L7.57219 15.7502C7.86519 15.4572 7.86619 14.9822 7.57319 14.6892C7.28019 14.3962 6.80519 14.3942 6.51219 14.6882Z" fill="black"/>
<path fill-rule="evenodd" clip-rule="evenodd" d="M6.46928 10.6169C6.76228 10.3239 6.76228 9.84894 6.46928 9.55594L6.45928 9.54694C6.16628 9.25294 5.69628 9.25894 5.40428 9.55194C5.11128 9.84494 5.11528 10.3239 5.40828 10.6169C5.55528 10.7629 5.74728 10.8369 5.93928 10.8369C6.13128 10.8369 6.32328 10.7629 6.46928 10.6169Z" fill="black"/>
<path fill-rule="evenodd" clip-rule="evenodd" d="M18.4619 15.28C18.1689 14.987 17.6939 14.988 17.4009 15.28L16.8239 15.856C16.5309 16.149 16.5309 16.624 16.8229 16.917C16.9699 17.064 17.1619 17.137 17.3539 17.137C17.5459 17.137 17.7379 17.064 17.8839 16.918L18.4619 16.341C18.7539 16.048 18.7539 15.573 18.4619 15.28Z" fill="black"/>
<path fill-rule="evenodd" clip-rule="evenodd" d="M10.5152 9.25415L11.2092 8.56115C11.5022 8.26815 11.5022 7.79315 11.2092 7.50015C10.9172 7.20715 10.4422 7.20715 10.1492 7.49915L9.45419 8.19315C9.16119 8.48615 9.16119 8.96115 9.45419 9.25415C9.60019 9.40015 9.79319 9.47415 9.98519 9.47415C10.1772 9.47415 10.3692 9.40015 10.5152 9.25415Z" fill="black"/>
<path fill-rule="evenodd" clip-rule="evenodd" d="M17.1128 10.6164C17.4058 10.9094 17.8808 10.9094 18.1738 10.6164C18.4668 10.3244 18.4668 9.84844 18.1738 9.55544L17.8498 9.23144L18.1738 8.90844C18.4668 8.61544 18.4668 8.14044 18.1738 7.84744C17.8808 7.55444 17.4058 7.55444 17.1128 7.84744L16.7888 8.17144L16.4648 7.84644C16.1718 7.55344 15.6968 7.55344 15.4038 7.84644C15.1108 8.13944 15.1108 8.61544 15.4038 8.90744L15.7278 9.23144L15.4028 9.55544C15.1098 9.84844 15.1098 10.3234 15.4028 10.6164C15.5488 10.7634 15.7408 10.8364 15.9328 10.8364C16.1248 10.8364 16.3168 10.7634 16.4638 10.6174L16.7888 10.2924L17.1128 10.6164Z" fill="black"/>
<path fill-rule="evenodd" clip-rule="evenodd" d="M15.2564 12.6838C15.0494 12.3248 14.5894 12.2028 14.2324 12.4098L13.2204 12.9938V11.8248C13.2204 11.4108 12.8844 11.0748 12.4704 11.0748C12.0564 11.0748 11.7204 11.4108 11.7204 11.8248V12.9948L10.7064 12.4098C10.3474 12.2028 9.8884 12.3248 9.6814 12.6838C9.4744 13.0428 9.5974 13.5008 9.9564 13.7078L10.9694 14.2928L9.9564 14.8778C9.5974 15.0848 9.4744 15.5438 9.6814 15.9028C9.8884 16.2618 10.3474 16.3848 10.7064 16.1768L11.7204 15.5918V16.7618C11.7204 17.1758 12.0564 17.5118 12.4704 17.5118C12.8844 17.5118 13.2204 17.1758 13.2204 16.7618V15.5928L14.2324 16.1768C14.5894 16.3848 15.0494 16.2618 15.2564 15.9028C15.4634 15.5438 15.3404 15.0848 14.9824 14.8778L13.9684 14.2928L14.9824 13.7078C15.3404 13.5008 15.4634 13.0428 15.2564 12.6838Z" fill="black"/>
</svg>