<svg width="25" height="24" viewBox="0 0 25 24" fill="none" xmlns="http://www.w3.org/2000/svg">
<path fill-rule="evenodd" clip-rule="evenodd" d="M18.0721 14.9516L15.0501 18.2226C14.9401 18.3466 14.8711 18.5026 14.8521 18.6706L14.7901 19.2506L15.3441 19.1576C15.5261 19.1266 15.6951 19.0336 15.8181 18.8956L18.7611 15.6546L18.0721 14.9516ZM14.6091 21.2826C14.1421 21.2826 13.6951 21.1056 13.3471 20.7776C12.9241 20.3786 12.7171 19.8156 12.7791 19.2356L12.8641 18.4566C12.9261 17.8726 13.1681 17.3276 13.5631 16.8856L16.5451 13.6006C16.9211 13.1946 17.4241 12.9636 17.9681 12.9416C18.5071 12.9166 19.0311 13.1126 19.4301 13.4836L20.1251 14.1256C20.5251 14.4966 20.7561 14.9996 20.7771 15.5426C20.7991 16.0876 20.6051 16.6066 20.2351 17.0076L17.3021 20.2356C16.8831 20.7046 16.3041 21.0226 15.6781 21.1296L15.6751 21.1306L14.9191 21.2566C14.8151 21.2736 14.7121 21.2826 14.6091 21.2826Z" fill="black"/>
<path fill-rule="evenodd" clip-rule="evenodd" d="M10.8049 2.71484C8.19891 2.71484 6.08691 4.85884 6.08691 7.50084C6.08691 10.1448 8.19891 12.2868 10.8049 12.2868C13.4109 12.2868 15.5229 10.1448 15.5229 7.50084C15.5229 4.85884 13.4109 2.71484 10.8049 2.71484Z" fill="black"/>
<path opacity="0.4" fill-rule="evenodd" clip-rule="evenodd" d="M12.0685 13.6387H8.44546C5.77846 13.6387 3.52246 15.9277 3.52246 18.6327C3.52246 19.1367 3.52246 19.7377 3.61546 20.2467C3.62146 20.2807 3.62346 20.3157 3.62846 20.3487C3.65946 20.5387 3.85546 20.7137 4.13746 20.7137H9.86046C10.1785 20.7137 10.4645 20.5207 10.5825 20.2257L12.7955 14.7147C13.0025 14.1997 12.6235 13.6387 12.0685 13.6387Z" fill="black"/>
</svg>