<svg width="25" height="24" viewBox="0 0 25 24" fill="none" xmlns="http://www.w3.org/2000/svg">
<path fill-rule="evenodd" clip-rule="evenodd" d="M18.2665 14.6356C18.0115 14.6356 17.7565 14.5386 17.5625 14.3446L15.6385 12.4356C15.6365 12.4336 15.6335 12.4306 15.6315 12.4276C15.6315 12.4276 15.6285 12.4276 15.6285 12.4256C15.4493 12.2464 15.3425 11.9762 15.3425 11.7256C15.3425 11.4782 15.4528 11.2069 15.6265 11.0266L15.6285 11.0256C15.6325 11.0226 15.6355 11.0186 15.6385 11.0146L17.5615 9.10558C17.9535 8.71558 18.5845 8.71758 18.9765 9.11058C19.3655 9.50158 19.3635 10.1356 18.9715 10.5246L18.7685 10.7256H21.1045C21.6575 10.7256 22.1045 11.1736 22.1045 11.7256C22.1045 12.2776 21.6575 12.7256 21.1045 12.7256H18.7695L18.9705 12.9266C19.3635 13.3156 19.3655 13.9486 18.9765 14.3406C18.7805 14.5366 18.5235 14.6356 18.2665 14.6356Z" fill="black"/>
<path fill-rule="evenodd" clip-rule="evenodd" d="M9.29104 12.5164C11.899 12.5164 14.021 10.3964 14.021 7.79141C14.021 5.18641 11.899 3.06641 9.29104 3.06641C6.68304 3.06641 4.56104 5.18641 4.56104 7.79141C4.56104 10.3964 6.68304 12.5164 9.29104 12.5164Z" fill="black"/>
<path opacity="0.4" fill-rule="evenodd" clip-rule="evenodd" d="M9.29129 14.4961C6.24629 14.4961 2.19629 14.8291 2.19629 17.7051C2.19629 20.9331 7.53629 20.9331 9.29129 20.9331C12.3363 20.9331 16.3853 20.6001 16.3853 17.7241C16.3853 14.4961 11.0463 14.4961 9.29129 14.4961Z" fill="black"/>
</svg>