<svg width="25" height="24" viewBox="0 0 25 24" fill="none" xmlns="http://www.w3.org/2000/svg">
<path d="M12.6032 12.7636C12.6061 12.7635 12.609 12.7634 12.6119 12.7633L19.4492 19.9937C19.4469 19.9942 19.4445 19.9947 19.4421 19.9952L20.0843 20.6742C20.4633 21.0752 20.4453 21.7082 20.0443 22.0882C19.8513 22.2702 19.6043 22.3612 19.3573 22.3612C19.0913 22.3612 18.8273 22.2572 18.6303 22.0492L16.7586 20.07H8.29978C6.53878 20.07 5.30478 18.902 5.22778 17.166C5.22778 14.4101 7.71676 13.3794 10.0639 12.9904L2.80026 5.30922C2.42026 4.90822 2.43926 4.27522 2.83926 3.89522C3.24026 3.51522 3.87426 3.53222 4.25326 3.93422L12.6032 12.7636Z" fill="black"/>
<g opacity="0.4">
<path d="M17.9447 6.07267C17.9447 8.53185 15.8536 10.5522 13.4215 10.5076C13.2951 10.5053 13.1765 10.4485 13.0897 10.3567L9.21269 6.25706C9.12543 6.16479 9.07528 6.04258 9.08044 5.91568C9.17565 3.57471 11.1396 1.63867 13.5107 1.63867C15.9557 1.63867 17.9447 3.62867 17.9447 6.07267Z" fill="black"/>
<path d="M15.9313 12.8627C15.7496 12.8444 15.6464 13.0601 15.7719 13.1928L21.0129 18.7348C21.0984 18.8253 21.2453 18.8165 21.3106 18.7106C21.5806 18.2726 21.7432 17.7439 21.7738 17.147C21.7956 14.0165 18.5206 13.124 15.9313 12.8627Z" fill="black"/>
</g>
</svg>