<svg width="25" height="24" viewBox="0 0 25 24" fill="none" xmlns="http://www.w3.org/2000/svg">
<path d="M12.0804 21.6814C6.74339 21.6814 2.40039 17.3384 2.40039 11.9994C2.40039 6.66036 6.74339 2.31836 12.0804 2.31836C12.4884 2.31836 12.8864 2.34236 13.2934 2.39336C13.7034 2.44436 13.9954 2.81936 13.9444 3.23036C13.8934 3.64036 13.5234 3.92736 13.1074 3.88136C12.7634 3.83836 12.4274 3.81836 12.0804 3.81836C7.56939 3.81836 3.90039 7.48836 3.90039 11.9994C3.90039 16.5114 7.56939 20.1814 12.0804 20.1814C16.5914 20.1814 20.2614 16.5114 20.2614 11.9994C20.2614 11.7434 20.2514 11.4904 20.2324 11.2394C20.2024 10.8254 20.5134 10.4664 20.9264 10.4364C21.3384 10.4174 21.6994 10.7164 21.7284 11.1294C21.7494 11.4174 21.7614 11.7064 21.7614 11.9994C21.7614 17.3384 17.4184 21.6814 12.0804 21.6814Z" fill="black"/>
<path d="M16.8206 7.05758C16.4096 7.05758 16.0746 6.72658 16.0706 6.31458C16.0666 5.90058 16.3996 5.56158 16.8136 5.55758L21.1436 5.51758H21.1506C21.5616 5.51758 21.8966 5.84858 21.9006 6.26058C21.9046 6.67458 21.5716 7.01358 21.1576 7.01758L16.8276 7.05758H16.8206Z" fill="black"/>
<path d="M15.2537 12.1025C15.2537 13.8465 13.8347 15.2655 12.0907 15.2655C10.3467 15.2655 8.92773 13.8465 8.92773 12.1025C8.92773 10.3575 10.3467 8.93945 12.0907 8.93945C13.8347 8.93945 15.2537 10.3575 15.2537 12.1025Z" fill="black"/>
<path opacity="0.4" d="M16.8505 18.6821C15.5127 19.6638 13.863 20.2441 12.0805 20.2441C10.3066 20.2441 8.66433 19.6694 7.33008 18.6964C7.89289 17.3068 9.42509 16.1699 12.0918 16.1699C14.755 16.1699 16.2861 17.2997 16.8505 18.6821Z" fill="black"/>
</svg>