<svg width="25" height="24" viewBox="0 0 25 24" fill="none" xmlns="http://www.w3.org/2000/svg">
<path fill-rule="evenodd" clip-rule="evenodd" d="M16.0688 20.7604H16.0668C15.8008 20.7604 15.5478 20.6544 15.3598 20.4654L13.5598 18.6564C13.1708 18.2654 13.1728 17.6324 13.5638 17.2424C13.9538 16.8524 14.5888 16.8554 14.9778 17.2464L16.0708 18.3454L19.0908 15.3284C19.4818 14.9404 20.1158 14.9394 20.5058 15.3294C20.8958 15.7214 20.8958 16.3544 20.5058 16.7444L16.7758 20.4684C16.5888 20.6554 16.3338 20.7604 16.0688 20.7604Z" fill="black"/>
<path fill-rule="evenodd" clip-rule="evenodd" d="M10.7849 3C8.17889 3 6.06689 5.144 6.06689 7.786C6.06689 10.43 8.17889 12.572 10.7849 12.572C13.3909 12.572 15.5029 10.43 15.5029 7.786C15.5029 5.144 13.3909 3 10.7849 3Z" fill="black"/>
<path opacity="0.4" fill-rule="evenodd" clip-rule="evenodd" d="M12.0484 13.9258H8.42544C5.75844 13.9258 3.50244 16.2148 3.50244 18.9198C3.50244 19.4238 3.50244 20.0248 3.59544 20.5338C3.60144 20.5678 3.60344 20.6028 3.60844 20.6358C3.63944 20.8258 3.83544 21.0008 4.11744 21.0008H9.84044C10.1584 21.0008 10.4444 20.8078 10.5624 20.5128L12.7754 15.0018C12.9824 14.4868 12.6034 13.9258 12.0484 13.9258Z" fill="black"/>
</svg>