<svg width="25" height="24" viewBox="0 0 25 24" fill="none" xmlns="http://www.w3.org/2000/svg">
<path opacity="0.4" fill-rule="evenodd" clip-rule="evenodd" d="M12.2004 2.30078C6.80039 2.30078 2.40039 6.70078 2.40039 12.1008C2.40039 13.9008 2.80039 15.4008 3.50039 16.7008C3.70039 17.1008 4.20039 17.2008 4.50039 17.0008C4.90039 16.8008 5.00039 16.3008 4.80039 16.0008C4.20039 15.0008 3.90039 13.7008 3.90039 12.2008C3.90039 7.70078 7.60039 4.00078 12.1004 4.00078C16.6004 4.00078 20.3004 7.70078 20.3004 12.2008C20.3004 13.5008 20.0004 14.7008 19.4004 16.1008C19.2004 16.5008 19.4004 16.9008 19.8004 17.1008C19.9004 17.1008 20.0004 17.2008 20.1004 17.2008C20.4004 17.2008 20.7004 17.0008 20.8004 16.8008C21.5004 15.2008 21.9004 13.8008 21.9004 12.3008C21.9004 6.70078 17.6004 2.30078 12.2004 2.30078Z" fill="black"/>
<path fill-rule="evenodd" clip-rule="evenodd" d="M15.8991 10.5012C15.8991 8.40117 14.1991 6.70117 12.0991 6.70117C9.99907 6.70117 8.29907 8.40117 8.29907 10.5012C8.29907 12.6012 9.99907 14.3012 12.0991 14.3012C14.1991 14.3012 15.8991 12.6012 15.8991 10.5012Z" fill="black"/>
<path fill-rule="evenodd" clip-rule="evenodd" d="M12.2001 15.8014C8.4001 15.8014 6.8001 17.7014 6.6001 19.5014C6.6001 19.7014 6.7001 19.9014 6.8001 20.0014C8.3001 21.1014 10.2001 21.7014 12.2001 21.7014C14.1001 21.7014 15.9001 21.1014 17.6001 20.0014C17.8001 19.9014 17.8001 19.7014 17.8001 19.5014C17.7001 18.6014 17.0001 15.7014 12.2001 15.8014Z" fill="black"/>
</svg>