<svg width="25" height="24" viewBox="0 0 25 24" fill="none" xmlns="http://www.w3.org/2000/svg">
<path fill-rule="evenodd" clip-rule="evenodd" d="M12.1005 3.34961C14.6415 3.34961 16.7005 5.40961 16.7005 7.94961C16.7005 10.4906 14.6415 12.5496 12.1005 12.5496C9.55949 12.5496 7.50049 10.4906 7.50049 7.94961C7.50049 5.40961 9.55949 3.34961 12.1005 3.34961Z" fill="black"/>
<path opacity="0.4" fill-rule="evenodd" clip-rule="evenodd" d="M14.5005 13.8496H9.80049C7.20049 13.8496 5.00049 16.0496 5.00049 18.6496C5.00049 19.1496 5.00049 19.7496 5.10049 20.2496C5.10049 20.4496 5.30049 20.6496 5.60049 20.6496H18.7005C18.9005 20.6496 19.1005 20.4496 19.2005 20.2496C19.3005 19.7496 19.3005 19.1496 19.3005 18.6496C19.2005 15.9496 17.1005 13.8496 14.5005 13.8496Z" fill="black"/>
</svg>