<svg width="25" height="24" viewBox="0 0 25 24" fill="none" xmlns="http://www.w3.org/2000/svg">
<path fill-rule="evenodd" clip-rule="evenodd" d="M8.0502 3.34961C10.5902 3.34961 12.6502 5.40961 12.6502 7.94961C12.6502 10.4906 10.5902 12.5496 8.0502 12.5496C5.5102 12.5496 3.4502 10.4906 3.4502 7.94961C3.4502 5.40961 5.5102 3.34961 8.0502 3.34961Z" fill="black"/>
<path fill-rule="evenodd" clip-rule="evenodd" d="M10.4502 13.8496H5.7502C3.1502 13.8496 0.950195 16.0496 0.950195 18.6496C0.950195 19.1436 0.950195 19.7346 1.0462 20.2306C1.0482 20.2436 1.0492 20.2566 1.0502 20.2696C1.0632 20.4626 1.2602 20.6496 1.5502 20.6496H14.6502C14.8422 20.6496 15.0342 20.4656 15.1372 20.2736C15.1462 20.2586 15.1512 20.2416 15.1552 20.2236C15.2502 19.7296 15.2502 19.1416 15.2502 18.6496C15.2502 15.9496 13.0502 13.8496 10.4502 13.8496Z" fill="black"/>
<g opacity="0.4">
<path fill-rule="evenodd" clip-rule="evenodd" d="M21.3501 10.3496C21.3501 8.44961 19.7501 6.84961 17.8501 6.84961C15.9501 6.84961 14.3501 8.44961 14.3501 10.3496C14.3501 12.2496 15.9501 13.8496 17.8501 13.8496C19.7501 13.8496 21.3501 12.2496 21.3501 10.3496Z" fill="black"/>
<path fill-rule="evenodd" clip-rule="evenodd" d="M19.6502 15.4492H16.2902C16.1372 15.4492 16.0402 15.6142 16.1062 15.7512C16.5122 16.5902 16.7502 17.5692 16.7502 18.5492C16.7502 19.1442 16.7502 19.7382 16.6522 20.3332C16.6512 20.3442 16.6502 20.3552 16.6502 20.3662V20.4492C16.6502 20.5602 16.7392 20.6492 16.8502 20.6492H22.9502C23.1352 20.6492 23.2352 20.5632 23.3282 20.3912C23.3432 20.3642 23.3502 20.3332 23.3502 20.3022V19.0492C23.2502 17.1492 21.6502 15.4492 19.6502 15.4492Z" fill="black"/>
</g>
</svg>