<svg width="25" height="24" viewBox="0 0 25 24" fill="none" xmlns="http://www.w3.org/2000/svg">
<path fill-rule="evenodd" clip-rule="evenodd" d="M10.0296 12.5156C12.6396 12.5156 14.7626 10.3946 14.7626 7.78759C14.7626 5.18059 12.6396 3.05859 10.0296 3.05859C7.41963 3.05859 5.29663 5.18059 5.29663 7.78759C5.29663 10.3946 7.41963 12.5156 10.0296 12.5156Z" fill="black"/>
<path fill-rule="evenodd" clip-rule="evenodd" d="M10.0297 14.498C6.98169 14.498 2.92969 14.831 2.92969 17.709C2.92969 20.939 8.27369 20.939 10.0297 20.939C13.0777 20.939 17.1297 20.607 17.1297 17.728C17.1297 14.498 11.7857 14.498 10.0297 14.498Z" fill="black"/>
<g opacity="0.4">
<path fill-rule="evenodd" clip-rule="evenodd" d="M19.1497 18.6602C18.7457 18.6602 18.3647 18.4122 18.2137 18.0122C18.0187 17.4942 18.2807 16.9182 18.7977 16.7232C19.3707 16.5082 19.3707 16.3132 19.3707 16.2082C19.3707 15.7432 18.2817 15.5312 17.8137 15.4622C17.2667 15.3812 16.8897 14.8722 16.9707 14.3262C17.0527 13.7792 17.5587 13.4042 18.1067 13.4832C20.8037 13.8842 21.3707 15.1862 21.3707 16.2082C21.3707 16.8372 21.1277 17.9842 19.5017 18.5962C19.3857 18.6392 19.2667 18.6602 19.1497 18.6602Z" fill="black"/>
<path fill-rule="evenodd" clip-rule="evenodd" d="M16.0187 11.9471C15.5287 11.9471 15.1007 11.5871 15.0297 11.0881C14.9517 10.5411 15.3317 10.0351 15.8787 9.95711C16.8717 9.81611 17.6207 8.95611 17.6207 7.95911C17.6207 6.96411 16.9087 6.12411 15.9267 5.96311C15.3817 5.87311 15.0137 5.35811 15.1037 4.81311C15.1927 4.26811 15.6997 3.90311 16.2527 3.98911C18.2047 4.31111 19.6207 5.98011 19.6207 7.95911C19.6207 9.94611 18.1327 11.6561 16.1607 11.9371C16.1137 11.9441 16.0657 11.9471 16.0187 11.9471Z" fill="black"/>
</g>
</svg>