<svg width="25" height="24" viewBox="0 0 25 24" fill="none" xmlns="http://www.w3.org/2000/svg">
<path d="M10.6042 2.6543C7.99823 2.6543 5.88623 4.7983 5.88623 7.4403C5.88623 10.0843 7.99823 12.2263 10.6042 12.2263C13.2102 12.2263 15.3222 10.0843 15.3222 7.4403C15.3222 4.7983 13.2102 2.6543 10.6042 2.6543Z" fill="black"/>
<path fill-rule="evenodd" clip-rule="evenodd" d="M14.8032 15.644V15.3222C14.8272 13.9082 15.9392 12.8012 17.3342 12.7832H17.3652C18.0392 12.7832 18.6752 13.0412 19.1582 13.5122C19.6492 13.9902 19.9232 14.6322 19.9312 15.3182V15.6435C20.5617 16.0543 20.9791 16.7655 20.9791 17.5725V19.0425C20.9791 20.3115 19.9471 21.3435 18.6771 21.3435H16.0581C14.7881 21.3435 13.7561 20.3115 13.7561 19.0425V17.5725C13.7561 16.7658 14.1731 16.0549 14.8032 15.644ZM17.9271 15.2715C17.9117 15.1519 17.8543 15.0347 17.7612 14.9442C17.6532 14.8392 17.5412 14.7762 17.3592 14.7832C17.0763 14.7869 16.8455 14.9958 16.8084 15.2715H17.9271ZM15.9806 17.2816C15.9932 17.2793 16.0058 17.2768 16.0183 17.2741C16.0313 17.2724 16.0446 17.2715 16.0581 17.2715H18.6771C18.69 17.2715 18.7026 17.2723 18.7151 17.2739C18.7287 17.2768 18.7423 17.2796 18.7561 17.282C18.8842 17.3167 18.9791 17.4338 18.9791 17.5725V19.0425C18.9791 19.2085 18.8431 19.3435 18.6771 19.3435H16.0581C15.8921 19.3435 15.7561 19.2085 15.7561 19.0425V17.5725C15.7561 17.4332 15.8518 17.3158 15.9806 17.2816Z" fill="black"/>
<path opacity="0.4" d="M8.24478 13.5781H11.8678C12.4228 13.5781 12.8018 14.1391 12.5948 14.6541L10.3818 20.1651C10.2638 20.4601 9.97778 20.6531 9.65978 20.6531H3.93678C3.65478 20.6531 3.45878 20.4781 3.42778 20.2881C3.42558 20.2736 3.42396 20.2588 3.42233 20.2437C3.42025 20.2246 3.41814 20.2052 3.41478 20.1861C3.32178 19.6771 3.32178 19.0761 3.32178 18.5721C3.32178 15.8671 5.57778 13.5781 8.24478 13.5781Z" fill="black"/>
</svg>