<svg width="25" height="24" viewBox="0 0 25 24" fill="none" xmlns="http://www.w3.org/2000/svg">
<path d="M7.46094 7.75039C7.46094 5.45039 9.26094 3.65039 11.4609 3.65039C13.6609 3.65039 15.5609 5.45039 15.5609 7.75039C15.5609 9.95039 13.6609 11.7504 11.4609 11.7504C9.26094 11.7504 7.46094 9.95039 7.46094 7.75039Z" fill="black"/>
<path d="M18.1254 19.0339C18.0434 19.0339 17.9614 19.0139 17.8874 18.9739C17.7864 18.9189 15.4264 17.6209 14.8464 15.8029C14.6184 15.1069 14.6674 14.3569 14.9784 13.7449C15.2564 13.1989 15.7114 12.8109 16.2954 12.6209C16.9084 12.4269 17.5694 12.4899 18.1244 12.7859C18.6754 12.4919 19.3304 12.4269 19.9414 12.6199C20.5294 12.8109 20.9844 13.1989 21.2624 13.7449C21.5734 14.3569 21.6214 15.1069 21.3944 15.8039C20.8452 17.5866 18.499 18.8987 18.3688 18.9716L18.3664 18.9729C18.2904 19.0139 18.2084 19.0339 18.1254 19.0339Z" fill="black"/>
<path opacity="0.4" d="M10.7609 13.7499C11.1609 13.6498 11.5609 13.9499 11.6609 14.3499L13.4609 18.9499C13.7609 19.6498 13.2609 20.3498 12.5609 20.3498H6.76094C5.96094 20.3498 5.26094 20.0499 4.76094 19.5499C4.26094 19.0499 3.96094 18.3498 3.96094 17.6498C3.96094 16.9499 4.16094 16.2499 4.56094 15.7499C4.96094 15.2499 5.46094 14.8499 6.16094 14.5499C7.36094 14.0499 8.96094 13.8499 10.7609 13.7499Z" fill="black"/>
</svg>