<svg width="25" height="24" viewBox="0 0 25 24" fill="none" xmlns="http://www.w3.org/2000/svg">
<path opacity="0.4" fill-rule="evenodd" clip-rule="evenodd" d="M12.1994 2.44922C6.79941 2.44922 2.39941 6.84922 2.39941 12.2492C2.39941 14.0492 2.79941 15.5492 3.49941 16.8492C3.69941 17.2492 4.19941 17.3492 4.49941 17.1492C4.89941 16.9492 4.99941 16.4492 4.79941 16.1492C4.19941 15.1492 3.89941 13.8492 3.89941 12.3492C3.89941 7.84922 7.59941 4.14922 12.0994 4.14922C16.5994 4.14922 20.2994 7.84922 20.2994 12.3492C20.2994 13.6492 19.9994 14.8492 19.3994 16.2492C19.1994 16.6492 19.3994 17.0492 19.7994 17.2492C19.8994 17.2492 19.9994 17.3492 20.0994 17.3492C20.3994 17.3492 20.6994 17.1492 20.7994 16.9492C21.4994 15.3492 21.8994 13.9492 21.8994 12.4492C21.9994 6.84922 17.5994 2.44922 12.1994 2.44922Z" fill="black"/>
<path fill-rule="evenodd" clip-rule="evenodd" d="M16.2004 11.8496C16.3004 9.74961 14.5004 7.84961 12.2004 7.84961C10.0004 7.84961 8.20044 9.64961 8.20044 11.8496C8.20044 14.0496 10.0004 15.8496 12.2004 15.8496C14.4004 15.8496 16.2004 14.0496 16.2004 11.8496Z" fill="black"/>
<path fill-rule="evenodd" clip-rule="evenodd" d="M16.5003 17.9496C15.5003 17.3496 14.1003 16.8496 12.2003 16.8496C10.3003 16.8496 8.90029 17.3496 7.90029 18.0496C6.90029 18.8496 6.40029 19.8496 6.30029 20.8496C6.30029 20.9496 6.30029 21.1496 6.40029 21.2496C6.50029 21.5496 6.90029 21.5496 7.20029 21.5496H17.2003C17.5003 21.5496 17.8003 21.5496 18.0003 21.2496C18.1003 21.1496 18.1003 20.9496 18.1003 20.7496C18.0003 19.7496 17.5003 18.7496 16.5003 17.9496Z" fill="black"/>
</svg>