<svg width="25" height="24" viewBox="0 0 25 24" fill="none" xmlns="http://www.w3.org/2000/svg">
<path fill-rule="evenodd" clip-rule="evenodd" d="M21.3977 14.7492L20.2977 12.7492C20.1977 12.5492 19.9977 12.4492 19.8977 12.4492H15.3977C15.1977 12.4492 14.9977 12.5492 14.9977 12.7492L13.8977 14.7492C13.7977 14.9492 13.7977 15.1492 13.9977 15.3492L17.3977 19.0492C17.4977 19.1492 17.5977 19.2492 17.7977 19.2492C17.8977 19.2492 18.0977 19.1492 18.1977 19.0492L21.4977 15.3492C21.4977 15.1492 21.4977 14.8492 21.3977 14.7492Z" fill="black"/>
<path fill-rule="evenodd" clip-rule="evenodd" d="M10.7979 3.64844C8.59785 3.64844 6.79785 5.44844 6.79785 7.74844C6.79785 9.94844 8.59785 11.7484 10.7979 11.7484C12.9979 11.7484 14.7979 9.94844 14.7979 7.74844C14.8979 5.44844 13.0979 3.64844 10.7979 3.64844Z" fill="black"/>
<path opacity="0.4" fill-rule="evenodd" clip-rule="evenodd" d="M11.0975 14.3499C10.9975 13.9499 10.5975 13.6499 10.1975 13.7499C8.39746 13.8499 6.79746 14.0499 5.59746 14.5499C4.89746 14.8499 4.39746 15.2499 3.99746 15.7499C3.59746 16.2499 3.39746 16.9498 3.39746 17.6498C3.39746 18.3498 3.69746 19.0499 4.19746 19.5499C4.69746 20.0499 5.39746 20.3498 6.19746 20.3498H11.9975C12.6975 20.3498 13.1975 19.6498 12.8975 18.9499L11.0975 14.3499Z" fill="black"/>
</svg>