<svg width="24" height="25" viewBox="0 0 24 25" fill="none" xmlns="http://www.w3.org/2000/svg">
<path opacity="0.4" fill-rule="evenodd" clip-rule="evenodd" d="M15.1422 12.2676C15.0321 12.1921 14.8862 12.1921 14.7761 12.2676C13.9831 12.8115 13.0325 13.1401 12.0002 13.1401C10.9679 13.1401 10.0173 12.8115 9.22421 12.2676C9.11412 12.1921 8.96824 12.1921 8.85814 12.2676C8.06508 12.8115 7.11449 13.1401 6.08218 13.1401C5.34424 13.1401 4.64949 12.9674 4.0217 12.6725C3.81085 12.5735 3.55518 12.7199 3.55518 12.9529V18.4221C3.56018 19.3311 3.91718 20.1831 4.56318 20.8211C5.20218 21.4531 6.04518 21.8001 6.93918 21.8001H8.23718C8.40286 21.8001 8.53718 21.6658 8.53718 21.5001V18.7421C8.53718 16.8341 10.0902 15.2821 12.0002 15.2821C13.9112 15.2821 15.4652 16.8341 15.4652 18.7421V21.5001C15.4652 21.6658 15.5995 21.8001 15.7652 21.8001H17.0352C17.9532 21.7891 18.7932 21.4581 19.4382 20.8201C20.0832 20.1841 20.4402 19.3351 20.4452 18.4191V12.9529C20.4452 12.7199 20.1895 12.5735 19.9786 12.6725C19.3509 12.9674 18.6561 13.1401 17.9182 13.1401C16.8859 13.1401 15.9353 12.8115 15.1422 12.2676Z" fill="black"/>
<path d="M5.43007 2.80078H18.5701C20.1181 2.80078 21.3781 4.06078 21.3781 5.61078V8.18078C21.3781 10.0888 19.8261 11.6408 17.9181 11.6408C16.8373 11.6408 15.8787 11.1368 15.246 10.3554C15.1033 10.1791 14.8148 10.1791 14.6722 10.3554C14.0397 11.1368 13.0817 11.6408 12.0001 11.6408C10.9195 11.6408 9.96093 11.1369 9.32827 10.3557C9.18548 10.1794 8.89682 10.1795 8.75411 10.3559C8.12206 11.137 7.16347 11.6408 6.08207 11.6408C4.17407 11.6408 2.62207 10.0888 2.62207 8.18078V5.61078C2.62207 4.06078 3.88207 2.80078 5.43007 2.80078Z" fill="black"/>
<path d="M10.0372 18.7422C10.0372 17.6612 10.9172 16.7822 12.0002 16.7822C13.0832 16.7822 13.9652 17.6612 13.9652 18.7422V21.5002C13.9652 21.6659 13.8309 21.8002 13.6652 21.8002H10.3372C10.1715 21.8002 10.0372 21.6659 10.0372 21.5002V18.7422Z" fill="black"/>
</svg>