<svg width="24" height="25" viewBox="0 0 24 25" fill="none" xmlns="http://www.w3.org/2000/svg">
<path d="M20.7569 8.35617L21.4738 11.8662C21.5508 12.2362 21.4568 12.6172 21.2178 12.9122C21.0957 13.061 20.9432 13.1744 20.7734 13.2531C20.7435 13.267 20.7439 13.2776 20.5637 13.3115C20.1444 13.3903 19.2278 13.3762 19.2278 13.3762H3.75985C3.37985 13.3762 3.02485 13.2072 2.78485 12.9132C2.54485 12.6202 2.44985 12.2392 2.52485 11.8672L3.23994 8.35634C3.2684 8.2166 3.3913 8.11621 3.5339 8.11621H20.4629C20.6055 8.11621 20.7283 8.21651 20.7569 8.35617Z" fill="black"/>
<path fill-rule="evenodd" clip-rule="evenodd" d="M20.5862 4.67674C20.5932 4.33274 20.4652 4.00874 20.2262 3.76374C19.9882 3.52074 19.6692 3.38574 19.3272 3.38574H4.71017C4.01617 3.38574 3.45117 3.95074 3.45117 4.64574V6.31574C3.45117 6.48143 3.58549 6.61574 3.75117 6.61574H20.2506C20.4138 6.61574 20.547 6.48535 20.5505 6.32224L20.5862 4.67674Z" fill="black"/>
<g opacity="0.4">
<path d="M19.2279 20.4664V13.3764L20.7279 13.2734V20.4664C20.7279 20.8804 20.3919 21.2164 19.9779 21.2164C19.5639 21.2164 19.2279 20.8804 19.2279 20.4664Z" fill="black"/>
<path fill-rule="evenodd" clip-rule="evenodd" d="M14.1223 14.4463H11.7923C11.1117 14.4463 5.90822 14.4463 5.56426 14.4463H4.04126C3.76526 14.4463 3.54126 14.6703 3.54126 14.9463V19.4263C3.54126 20.2763 4.23126 20.9673 5.08026 20.9673H13.0843C13.9323 20.9673 14.6223 20.2763 14.6223 19.4263V14.9463C14.6223 14.6703 14.3983 14.4463 14.1223 14.4463Z" fill="black"/>
</g>
</svg>