<svg width="24" height="24" viewBox="0 0 24 24" fill="none" xmlns="http://www.w3.org/2000/svg">
<path fill-rule="evenodd" clip-rule="evenodd" d="M7.57365 8.73383L9.8451 10.473C10.07 10.6443 10.3635 10.6943 10.6322 10.6078L13.3879 9.72312C13.832 9.57546 14.3125 9.81516 14.4605 10.2592C14.5215 10.4418 14.5181 10.6388 14.4523 10.8193L13.4617 13.515C13.3636 13.7787 13.4035 14.074 13.5686 14.301L15.2402 16.6128C15.5132 17.0011 15.419 17.5382 15.031 17.8112C14.8772 17.9189 14.6941 17.9734 14.5069 17.9676L11.6254 17.8957C11.3419 17.8887 11.073 18.0202 10.9037 18.2471L9.1828 20.5617C8.90255 20.9451 8.36546 21.0293 7.98103 20.75C7.83062 20.639 7.71893 20.4824 7.66436 20.3034L6.87558 17.5623C6.79796 17.2922 6.58981 17.0786 6.3228 16.9933L3.58738 16.1123C3.1413 15.9681 2.89737 15.4897 3.04136 15.0444C3.10099 14.8621 3.22043 14.7048 3.38029 14.5991L5.77528 12.9738C6.00958 12.816 6.15162 12.5532 6.15552 12.2715L6.18737 9.40909C6.19952 8.92927 6.59804 8.55126 7.07807 8.56276C7.25585 8.56733 7.4301 8.6274 7.57365 8.73383Z" stroke="black" stroke-width="1.5" stroke-linecap="round" stroke-linejoin="round"/>
<path d="M14.6189 3.08496L13.2048 4.49912M10.728 6.97636L11.3071 6.39729" stroke="black" stroke-width="1.5" stroke-linecap="round" stroke-linejoin="round"/>
<path d="M16.7788 7.18443L18.0849 5.87793" stroke="black" stroke-width="1.5" stroke-linecap="round" stroke-linejoin="round"/>
<path d="M20.999 9.14746L20.2466 9.89982M16.6909 13.4554L18.5275 11.6189" stroke="black" stroke-width="1.5" stroke-linecap="round" stroke-linejoin="round"/>
</svg>
