<svg width="24" height="24" viewBox="0 0 24 24" fill="none" xmlns="http://www.w3.org/2000/svg">
<circle cx="9.34541" cy="13.0366" r="4.90498" stroke="black" stroke-width="1.5" stroke-linecap="round"/>
<path d="M13.9427 21.0001C14.7727 20.5209 15.4997 19.9318 16.116 19.2619" stroke="black" stroke-width="1.5" stroke-linecap="round"/>
<path d="M17.3465 8.50439C17.8342 9.36494 18.168 10.2713 18.3565 11.1916" stroke="black" stroke-width="1.5" stroke-linecap="round"/>
<path d="M18.4989 13.9208C18.4014 14.9207 18.1411 15.8996 17.7291 16.8157" stroke="black" stroke-width="1.5" stroke-linecap="round"/>
<path d="M14.2295 5.24317C13.2858 4.65293 12.2451 4.24109 11.1631 4.02253" stroke="black" stroke-width="1.5" stroke-linecap="round"/>
<path d="M4.74805 5.07331C5.83926 4.4433 7.00593 4.06236 8.18223 3.91287" stroke="black" stroke-width="1.5" stroke-linecap="round"/>
<ellipse cx="15.9502" cy="6.72829" rx="1.7588" ry="1.7588" stroke="black" stroke-width="1.5" stroke-linecap="round"/>
<path d="M4.44043 12.9798C5.77172 12.5461 5.45198 13.6613 6.29219 13.9982C7.19458 14.3867 8.49995 13.9129 8.20632 12.9753C8.16602 12.8466 8.1024 12.7165 8.00887 12.5878C7.90407 12.4437 7.77602 12.3146 7.6934 12.1566C7.61472 12.0063 7.56515 11.8616 7.53511 11.729C7.43248 11.2758 7.70053 10.856 7.97893 10.484C8.15301 10.2514 8.31401 10.0041 8.3239 9.87387C8.3536 9.48296 8.08302 9.0185 7.83381 8.43488" stroke="black" stroke-width="1.5" stroke-linecap="round" stroke-linejoin="round"/>
<path d="M14.2011 12.6253C13.0812 12.9901 12.4993 11.9608 11.5396 11.7506C10.2683 11.472 10.0595 12.7453 10.9087 13.5946C12.3581 15.3955 9.45665 16.2405 10.4892 17.7738" stroke="black" stroke-width="1.5" stroke-linecap="round" stroke-linejoin="round"/>
</svg>
