<svg width="24" height="24" viewBox="0 0 24 24" fill="none" xmlns="http://www.w3.org/2000/svg">
<path d="M7.05142 7.05195L5.58402 5.5843M11.8228 18.5702V20.6457V18.5702ZM11.8228 2.99963V5.07515V2.99963ZM5.07517 11.8227H3H5.07517ZM20.6456 11.8227H18.5704H20.6456ZM7.05142 16.5936L5.58402 18.0613L7.05142 16.5936ZM18.0626 5.58376L16.5941 7.0514L18.0626 5.58376Z" stroke="black" stroke-width="1.5" stroke-linecap="round" stroke-linejoin="round"/>
<path d="M21.0001 21.0004L14.4482 14.4493" stroke="black" stroke-width="1.5" stroke-linecap="round" stroke-linejoin="round"/>
<path d="M9.22239 9.22097C10.8498 10.0868 12.8046 10.0833 14.4352 9.21162C13.5635 10.8422 13.56 12.7969 14.4258 14.4244C12.7984 13.5586 10.8436 13.5621 9.21304 14.4337C10.0847 12.8032 10.0882 10.8484 9.22239 9.22097Z" stroke="black" stroke-width="1.5" stroke-linecap="round" stroke-linejoin="round"/>
</svg>
