<svg width="24" height="24" viewBox="0 0 24 24" fill="none" xmlns="http://www.w3.org/2000/svg">
<path d="M3 12C3 16.9706 7.02944 21 12 21C16.9706 21 21 16.9706 21 12C21 7.02944 16.9706 3 12 3C7.02944 3 3 7.02944 3 12Z" stroke="black" stroke-width="1.5" stroke-linecap="round"/>
<path d="M20.201 8.68286C17.8841 12.2272 13.8806 14.5691 9.33018 14.5691C7.08653 14.5691 4.97586 13.9997 3.13477 12.9976" stroke="black" stroke-width="1.5" stroke-linecap="round"/>
<path d="M20.9686 12.9478C18.2645 16.102 14.2508 18.1006 9.77029 18.1006C8.00383 18.1006 6.30993 17.79 4.74023 17.2203" stroke="black" stroke-width="1.5" stroke-linecap="round"/>
<path d="M17.7555 5.17017C16.0007 7.97588 12.8834 9.84207 9.33015 9.84207C7.35036 9.84207 5.50589 9.26271 3.95703 8.26429" stroke="black" stroke-width="1.5" stroke-linecap="round"/>
<path d="M14.8146 3.40405C13.4526 5.34684 11.1965 6.61697 8.64373 6.61697C7.50169 6.61697 6.41902 6.36276 5.44922 5.90784" stroke="black" stroke-width="1.5" stroke-linecap="round"/>
</svg>
