<svg width="24" height="24" viewBox="0 0 24 24" fill="none" xmlns="http://www.w3.org/2000/svg">
<path d="M10.8941 4.10597V5.30928M10.8941 18.6907V19.894M4.20332 12.0001H3M6.16319 16.731L5.31233 17.5818M16.4758 17.5818L15.625 16.731M6.16319 7.26916L5.31233 6.4183" stroke="black" stroke-width="1.5" stroke-linecap="round" stroke-linejoin="round"/>
<path d="M10.8944 7.88405C8.62065 7.88405 6.77832 9.72734 6.77832 12.0002C6.77832 14.274 8.62065 16.1173 10.8944 16.1173C11.8415 16.1173 12.7138 15.7975 13.4092 15.26" stroke="black" stroke-width="1.5" stroke-linecap="round" stroke-linejoin="round"/>
<path d="M20.8569 8.7038C21.4516 10.923 20.1346 13.204 17.9154 13.7987C15.6962 14.3933 13.4151 13.0763 12.8205 10.8571C12.2259 8.63795 13.5429 6.3569 15.762 5.76227C17.9812 5.16764 20.2623 6.4846 20.8569 8.7038Z" stroke="black" stroke-width="1.5" stroke-linecap="round" stroke-linejoin="round"/>
<path d="M14.2904 6.51001C14.8571 6.65095 15.3321 7.08736 15.4939 7.69134C15.7311 8.57643 15.2058 9.4862 14.3208 9.72336C13.7223 9.88373 13.1125 9.6955 12.707 9.28314" stroke="black" stroke-width="1.5" stroke-linecap="round" stroke-linejoin="round"/>
<path d="M20.6367 11.4702C20.1439 10.8891 19.3432 10.6103 18.5584 10.8206C17.4737 11.1112 16.83 12.2262 17.1206 13.3109C17.1767 13.5202 17.2635 13.7131 17.3748 13.886" stroke="black" stroke-width="1.5" stroke-linecap="round" stroke-linejoin="round"/>
<path d="M18.0713 8.42809H18.0772" stroke="black" stroke-width="1.5" stroke-linecap="round" stroke-linejoin="round"/>
</svg>
