<svg width="24" height="24" viewBox="0 0 24 24" fill="none" xmlns="http://www.w3.org/2000/svg">
<path d="M13.432 8.07734C14.0621 7.44727 15.0846 7.44831 15.7147 8.07838C16.3448 8.70845 16.3458 9.73103 15.7158 10.3611C15.0857 10.9912 14.0631 10.9901 13.433 10.3601C12.803 9.72999 12.8019 8.70741 13.432 8.07734Z" stroke="black" stroke-width="1.5" stroke-linecap="round" stroke-linejoin="round"/>
<path d="M19.8673 3.51925C14.4091 3.14852 7.67379 8.18667 6.94931 13.8564C6.93258 14.3517 7.11329 14.82 7.45169 15.1584L8.81891 16.5257C9.1573 16.864 9.62566 17.0448 10.1209 17.028C15.7906 16.303 20.8287 9.56817 20.4579 4.10994C20.436 3.78748 20.1897 3.54115 19.8673 3.51925Z" stroke="black" stroke-width="1.5" stroke-linecap="round" stroke-linejoin="round"/>
<path d="M16.4182 13.8273L16.1034 18.2577C16.1034 18.6423 15.8861 18.994 15.542 19.166L13.0886 20.3927C12.8253 20.5244 12.5178 20.5353 12.2458 20.4227C11.9738 20.31 11.7641 20.0849 11.671 19.8056L10.5234 17.0018" stroke="black" stroke-width="1.5" stroke-linecap="round" stroke-linejoin="round"/>
<path d="M10.2155 7.62828L5.78302 7.91252C5.39838 7.90987 5.04526 8.12477 4.87087 8.46762L3.62724 10.9126C3.49377 11.175 3.48075 11.4824 3.59153 11.7551C3.70231 12.0279 3.926 12.2391 4.20464 12.3341L7.00048 13.501" stroke="black" stroke-width="1.5" stroke-linecap="round" stroke-linejoin="round"/>
<path d="M7.36083 18.5094C7.09044 20.3089 4.98388 19.9732 3.61035 20.1796C3.8167 18.806 3.49261 16.711 5.29215 16.4407" stroke="black" stroke-width="1.5" stroke-linecap="round" stroke-linejoin="round"/>
</svg>
