<svg width="24" height="24" viewBox="0 0 24 24" fill="none" xmlns="http://www.w3.org/2000/svg">
<path d="M11.4326 7.50577C11.7808 7.36071 12.1724 7.36071 12.5206 7.50577" stroke="black" stroke-width="1.5" stroke-linecap="round" stroke-linejoin="round"/>
<path d="M14.8496 15.8935H18.4715C18.9166 15.8935 19.2774 15.5327 19.2774 15.0876V14.0889C19.2774 13.4141 18.9477 12.782 18.3944 12.3958L18.0741 12.1723C17.308 11.6376 16.6181 11.0015 16.0231 10.2813L14.9408 8.97104" stroke="black" stroke-width="1.5" stroke-linecap="round" stroke-linejoin="round"/>
<path d="M9.1241 15.8935H5.50217C5.0571 15.8935 4.69629 15.5327 4.69629 15.0876V14.0889C4.69629 13.4141 5.02601 12.782 5.57935 12.3958L5.89965 12.1723C6.6657 11.6376 7.35563 11.0015 7.95057 10.2813L9.03296 8.97104" stroke="black" stroke-width="1.5" stroke-linecap="round" stroke-linejoin="round"/>
<path d="M12.0264 12.857V14.6616" stroke="black" stroke-width="1.5" stroke-linecap="round" stroke-linejoin="round"/>
<path fill-rule="evenodd" clip-rule="evenodd" d="M10.1274 17.0586L9.57125 16.5025C9.2849 16.2162 9.12402 15.8278 9.12402 15.4228V7.52774C9.12402 6.02187 9.72223 4.57767 10.787 3.51286V3.51286C11.1154 3.18448 11.5608 3 12.0252 3V3C12.4896 3 12.935 3.18448 13.2634 3.51286V3.51286C14.3282 4.57767 14.9264 6.02187 14.9264 7.52775V15.4228C14.9264 15.8278 14.7655 16.2162 14.4791 16.5025L13.923 17.0586C13.6367 17.345 13.2483 17.5059 12.8433 17.5059H11.2071C10.8021 17.5059 10.4137 17.345 10.1274 17.0586Z" stroke="black" stroke-width="1.5" stroke-linecap="round" stroke-linejoin="round"/>
<path d="M10.4898 17.3442C10.5167 18.1879 10.2811 20.1001 9.12402 20.9999" stroke="black" stroke-width="1.5" stroke-linecap="round" stroke-linejoin="round"/>
<path d="M13.561 17.3442C13.5341 18.1879 13.7696 20.1001 14.9268 20.9999" stroke="black" stroke-width="1.5" stroke-linecap="round" stroke-linejoin="round"/>
<path d="M16.9717 18.844C17.7449 19.6802 18.2324 20.0365 19.3037 20.2839" stroke="black" stroke-width="1.5" stroke-linecap="round" stroke-linejoin="round"/>
<path d="M7.08008 18.844C6.30687 19.6802 5.8194 20.0365 4.74805 20.2838" stroke="black" stroke-width="1.5" stroke-linecap="round" stroke-linejoin="round"/>
</svg>
