<svg width="24" height="24" viewBox="0 0 24 24" fill="none" xmlns="http://www.w3.org/2000/svg">
<path fill-rule="evenodd" clip-rule="evenodd" d="M3 7.1912C4.93301 7.81777 6.44836 9.33311 7.07497 11.2662C7.70145 9.33311 9.21681 7.81777 11.1499 7.1912C9.21681 6.56462 7.70145 5.04928 7.07497 3.11621C6.44836 5.04928 4.93301 6.56462 3 7.1912Z" stroke="black" stroke-width="1.5" stroke-linecap="round" stroke-linejoin="round"/>
<path fill-rule="evenodd" clip-rule="evenodd" d="M8.22363 17.4412C9.8567 17.9705 11.1369 19.2507 11.6663 20.8839C12.1956 19.2507 13.4758 17.9705 15.1089 17.4412C13.4758 16.9118 12.1956 15.6316 11.6663 13.9985C11.1369 15.6316 9.8567 16.9118 8.22363 17.4412Z" stroke="black" stroke-width="1.5" stroke-linecap="round" stroke-linejoin="round"/>
<path fill-rule="evenodd" clip-rule="evenodd" d="M15.0977 10.0638C16.4975 10.5176 17.5949 11.615 18.0487 13.0148C18.5024 11.615 19.5998 10.5176 20.9997 10.0638C19.5998 9.61007 18.5024 8.51269 18.0487 7.11279C17.5949 8.51269 16.4975 9.61007 15.0977 10.0638Z" stroke="black" stroke-width="1.5" stroke-linecap="round" stroke-linejoin="round"/>
<path d="M15.1494 4.14697V4.13697" stroke="black" stroke-width="1.5" stroke-linecap="round" stroke-linejoin="round"/>
<path d="M19.0322 17.8594V17.8494" stroke="black" stroke-width="1.5" stroke-linecap="round" stroke-linejoin="round"/>
<path d="M4.27832 15.0166V15.0066" stroke="black" stroke-width="1.5" stroke-linecap="round" stroke-linejoin="round"/>
</svg>
