<svg width="24" height="24" viewBox="0 0 24 24" fill="none" xmlns="http://www.w3.org/2000/svg">
<path d="M18.364 5.63604C21.8787 9.15076 21.8787 14.8492 18.364 18.364C14.8492 21.8787 9.15076 21.8787 5.63604 18.364C2.12132 14.8492 2.12132 9.15076 5.63604 5.63604C9.15076 2.12132 14.8492 2.12132 18.364 5.63604Z" stroke="black" stroke-width="1.5" stroke-linecap="round" stroke-linejoin="round"/>
<path fill-rule="evenodd" clip-rule="evenodd" d="M7.04492 9.47059C8.16394 9.83331 9.04118 10.7105 9.40392 11.8296C9.7666 10.7105 10.6438 9.83331 11.7629 9.47059C10.6438 9.10786 9.7666 8.23063 9.40392 7.11157C9.04118 8.23063 8.16394 9.10786 7.04492 9.47059Z" stroke="black" stroke-width="1.5" stroke-linecap="round" stroke-linejoin="round"/>
<path fill-rule="evenodd" clip-rule="evenodd" d="M10.0684 15.4043C11.0137 15.7108 11.7549 16.4519 12.0613 17.3973C12.3677 16.4519 13.1088 15.7108 14.0543 15.4043C13.1088 15.0979 12.3677 14.3568 12.0613 13.4114C11.7549 14.3568 11.0137 15.0979 10.0684 15.4043Z" stroke="black" stroke-width="1.5" stroke-linecap="round" stroke-linejoin="round"/>
<path fill-rule="evenodd" clip-rule="evenodd" d="M14.0479 11.1336C14.8582 11.3963 15.4935 12.0316 15.7562 12.842C16.0188 12.0316 16.6541 11.3963 17.4645 11.1336C16.6541 10.871 16.0188 10.2357 15.7562 9.42529C15.4935 10.2357 14.8582 10.871 14.0479 11.1336Z" stroke="black" stroke-width="1.5" stroke-linecap="round" stroke-linejoin="round"/>
<path d="M14.0781 7.70825V7.70148" stroke="black" stroke-width="1.5" stroke-linecap="round" stroke-linejoin="round"/>
<path d="M16.3252 15.6465V15.6397" stroke="black" stroke-width="1.5" stroke-linecap="round" stroke-linejoin="round"/>
<path d="M7.78516 14.0009V13.9941" stroke="black" stroke-width="1.5" stroke-linecap="round" stroke-linejoin="round"/>
</svg>
