<svg width="24" height="24" viewBox="0 0 24 24" fill="none" xmlns="http://www.w3.org/2000/svg">
<path d="M4.7793 6.6348C5.2003 6.0618 5.68731 5.54221 6.23131 5.08301" stroke="black" stroke-width="1.5" stroke-linecap="round" stroke-linejoin="round"/>
<path d="M17.5621 19.0869C16.2061 20.1494 14.5311 20.8372 12.6841 20.9744C11.7741 21.0425 10.8861 20.9705 10.0391 20.7808" stroke="black" stroke-width="1.5" stroke-linecap="round" stroke-linejoin="round"/>
<path d="M6.84946 19.3609C5.49346 18.423 4.40847 17.1173 3.73047 15.5791" stroke="black" stroke-width="1.5" stroke-linecap="round" stroke-linejoin="round"/>
<path d="M3.3251 9.54395C3.0621 10.5071 2.94809 11.5257 3.02609 12.5774" stroke="black" stroke-width="1.5" stroke-linecap="round" stroke-linejoin="round"/>
<path d="M19.6456 16.7239C20.5556 15.2557 21.0616 13.5192 20.9906 11.6638C20.7996 6.69115 16.6146 2.81605 11.6426 3.00675" stroke="black" stroke-width="1.5" stroke-linecap="round" stroke-linejoin="round"/>
<path d="M12 7.74976C12.6198 9.78629 14.2136 11.3801 16.25 12C14.2136 12.6198 12.6198 14.2136 12 16.2502C11.3802 14.2136 9.78644 12.6198 7.75 12C9.78644 11.3801 11.3802 9.78629 12 7.74976Z" stroke="black" stroke-width="1.5" stroke-linecap="round" stroke-linejoin="round"/>
</svg>
