<svg width="24" height="24" viewBox="0 0 24 24" fill="none" xmlns="http://www.w3.org/2000/svg">
<path d="M6.23221 3.04526C6.7036 4.59408 7.91567 5.80621 9.46442 6.27762C7.91567 6.74904 6.7036 7.96116 6.23221 9.50999C5.76082 7.96116 4.54875 6.74904 3 6.27762C4.54875 5.80621 5.76082 4.59408 6.23221 3.04526Z" stroke="black" stroke-width="1.5" stroke-linecap="round" stroke-linejoin="round"/>
<path d="M14.4352 7.8246C15.4452 11.4437 17.2365 13.3393 21.0002 14.3897C17.3812 15.3997 15.4856 17.191 14.4352 20.9547C13.4252 17.3357 11.6338 15.4401 7.87012 14.3897C11.4892 13.3796 13.3848 11.5883 14.4352 7.8246Z" stroke="black" stroke-width="1.5" stroke-linecap="round" stroke-linejoin="round"/>
<path d="M4.89211 19.1055V19.1535M5.08664 19.1158C5.08664 19.2239 4.99898 19.3115 4.89092 19.3115C4.78286 19.3115 4.69531 19.2239 4.69531 19.1158C4.69531 19.0078 4.78286 18.9202 4.89092 18.9202C4.99898 18.9202 5.08664 19.0078 5.08664 19.1158Z" stroke="black" stroke-width="1.5" stroke-linecap="round" stroke-linejoin="round"/>
<path d="M18.1781 4.68628V4.73429M18.3669 4.6966C18.3669 4.80466 18.2792 4.89225 18.1712 4.89225C18.0631 4.89225 17.9756 4.80466 17.9756 4.6966C17.9756 4.58854 18.0631 4.50095 18.1712 4.50095C18.2792 4.50095 18.3669 4.58854 18.3669 4.6966Z" stroke="black" stroke-width="1.5" stroke-linecap="round" stroke-linejoin="round"/>
</svg>
