<svg width="24" height="24" viewBox="0 0 24 24" fill="none" xmlns="http://www.w3.org/2000/svg">
<path d="M20.999 12C20.999 16.9706 16.9696 21 11.999 21C7.02846 21 2.99902 16.9706 2.99902 12C2.99902 7.02944 7.02846 3 11.999 3" stroke="black" stroke-width="1.5" stroke-linecap="round" stroke-linejoin="round"/>
<path d="M20 3.99976L17.6836 6.31611" stroke="black" stroke-width="1.5" stroke-linecap="round" stroke-linejoin="round"/>
<path d="M16.001 3L14.5988 4.40164" stroke="black" stroke-width="1.5" stroke-linecap="round" stroke-linejoin="round"/>
<path d="M21.0012 7.99976L18.9675 10.0326" stroke="black" stroke-width="1.5" stroke-linecap="round" stroke-linejoin="round"/>
<path fill-rule="evenodd" clip-rule="evenodd" d="M13.1847 8.19262L11.5275 9.46146C11.3634 9.58644 11.1493 9.62295 10.9533 9.55979L8.94278 8.91438C8.61878 8.80665 8.26819 8.98153 8.16021 9.30548C8.11573 9.43873 8.11823 9.58247 8.16624 9.71409L8.88896 11.6808C8.96052 11.8732 8.93137 12.0886 8.81094 12.2543L7.59142 13.9409C7.39221 14.2242 7.46092 14.616 7.74405 14.8152C7.85619 14.8938 7.98982 14.9335 8.12635 14.9293L10.2286 14.8769C10.4355 14.8718 10.6317 14.9677 10.7552 15.1332L12.0107 16.8219C12.2152 17.1016 12.607 17.1631 12.8875 16.9593C12.9972 16.8783 13.0787 16.7641 13.1185 16.6334L13.694 14.6336C13.7506 14.4365 13.9025 14.2807 14.0973 14.2185L16.0929 13.5758C16.4184 13.4705 16.5964 13.1215 16.4913 12.7966C16.4478 12.6637 16.3607 12.5489 16.244 12.4717L14.4967 11.286C14.3258 11.1708 14.2222 10.9791 14.2193 10.7736L14.1961 8.68528C14.1872 8.33521 13.8965 8.05943 13.5462 8.06781C13.4165 8.07115 13.2894 8.11498 13.1847 8.19262Z" stroke="black" stroke-width="1.5" stroke-linecap="round" stroke-linejoin="round"/>
</svg>
