<svg width="24" height="24" viewBox="0 0 24 24" fill="none" xmlns="http://www.w3.org/2000/svg">
<path d="M12.001 8.73145L12.0859 8.96099C12.5923 10.3296 13.6714 11.4086 15.04 11.9151L15.2695 12L15.04 12.0849C13.6714 12.5914 12.5923 13.6704 12.0859 15.039L12.001 15.2686L11.916 15.039C11.4096 13.6704 10.3306 12.5914 8.96196 12.0849L8.73242 12L8.96196 11.9151C10.3306 11.4086 11.4096 10.3296 11.916 8.96099L12.001 8.73145Z" stroke="black" stroke-width="1.5" stroke-linecap="round" stroke-linejoin="round"/>
<path d="M12 2.75C12.7622 4.57988 15.05 5.19289 16.625 3.98927C16.3701 5.95508 18.0449 7.62986 20.0107 7.375C18.8071 8.95002 19.4201 11.2378 21.25 12C19.4201 12.7622 18.8071 15.05 20.0107 16.625C18.0449 16.3701 16.3701 18.0449 16.625 20.0107C15.05 18.8071 12.7622 19.4201 12 21.25C11.2378 19.4201 8.95002 18.8071 7.375 20.0107C7.62986 18.0449 5.95508 16.3701 3.98927 16.625C5.19289 15.05 4.57988 12.7622 2.75 12C4.57988 11.2378 5.19289 8.95002 3.98927 7.375C5.95508 7.62986 7.62986 5.95508 7.375 3.98927C8.95002 5.19289 11.2378 4.57988 12 2.75Z" stroke="black" stroke-width="1.5" stroke-linecap="round" stroke-linejoin="round"/>
</svg>
