<svg width="24" height="24" viewBox="0 0 24 24" fill="none" xmlns="http://www.w3.org/2000/svg">
<path d="M20.7909 10.3717L20.7724 8.05604C20.7656 5.14782 18.95 3.09678 16.0389 3.10457L7.7102 3.12403C4.80878 3.13084 2.99321 5.18966 3.00002 8.09788L3.01851 15.944C3.02532 18.8532 4.84186 20.9022 7.75301 20.8954L10.9395 20.876" stroke="black" stroke-width="1.5" stroke-linecap="round" stroke-linejoin="round"/>
<path fill-rule="evenodd" clip-rule="evenodd" d="M17.5221 13.7433L18.4386 15.5871C18.4844 15.6805 18.5739 15.7447 18.676 15.7603L20.728 16.057C20.8107 16.0677 20.8866 16.1115 20.9372 16.1777C21.0326 16.3022 21.018 16.4793 20.9032 16.5863L19.4165 18.0244C19.3406 18.0954 19.3075 18.1995 19.327 18.3017L19.6831 20.3313C19.7084 20.4996 19.5926 20.6563 19.4252 20.6845C19.3552 20.6952 19.2841 20.6835 19.2209 20.6524L17.3927 19.695C17.3012 19.6444 17.1913 19.6444 17.0998 19.695L15.258 20.6582C15.1042 20.7361 14.9155 20.6786 14.8318 20.5269C14.7997 20.4665 14.789 20.3975 14.7997 20.3294L15.1558 18.2997C15.1743 18.1985 15.1402 18.0944 15.0663 18.0224L13.5718 16.5853C13.4502 16.4637 13.4502 16.2662 13.5708 16.1456L13.5718 16.1446C13.6214 16.0989 13.6837 16.0687 13.7499 16.057L15.8028 15.7593C15.905 15.7427 15.9935 15.6785 16.0402 15.5861L16.9558 13.7433C16.9928 13.6684 17.058 13.611 17.1378 13.5847C17.2166 13.5584 17.3041 13.5652 17.3791 13.6022C17.4404 13.6333 17.49 13.682 17.5221 13.7433Z" stroke="black" stroke-width="1.5" stroke-linecap="round" stroke-linejoin="round"/>
<path d="M14.6912 3.10449L14.7078 9.6964L11.9085 8.78473L9.09274 9.71294L9.08398 3.12882" stroke="black" stroke-width="1.5" stroke-linecap="round" stroke-linejoin="round"/>
</svg>
