<svg width="24" height="24" viewBox="0 0 24 24" fill="none" xmlns="http://www.w3.org/2000/svg">
<path d="M20.0052 10.4134L19.9877 8.19945C19.9813 5.41989 18.2449 3.46034 15.4626 3.46676L7.50222 3.48513C4.72817 3.49156 2.99359 5.45938 3.00002 8.23985L3.01746 15.7402C3.02389 18.5197 4.75939 20.4793 7.54262 20.4728L11.2854 20.4545" stroke="black" stroke-width="1.5" stroke-linecap="round" stroke-linejoin="round"/>
<path d="M14.1743 3.46777L14.1899 9.76884L11.5141 8.89649L8.82272 9.78445L8.81445 3.49165" stroke="black" stroke-width="1.5" stroke-linecap="round" stroke-linejoin="round"/>
<path d="M17.3106 20.5334C19.3482 20.5334 21.0002 18.8815 21.0002 16.8438C21.0002 14.8062 19.3482 13.1543 17.3106 13.1543C15.273 13.1543 13.6211 14.8062 13.6211 16.8438C13.6211 18.8815 15.273 20.5334 17.3106 20.5334Z" stroke="black" stroke-width="1.5" stroke-linecap="round" stroke-linejoin="round"/>
<path d="M18.4572 17.8034L17.291 17.1064V15.6069" stroke="black" stroke-width="1.5" stroke-linecap="round" stroke-linejoin="round"/>
</svg>
