<svg width="24" height="24" viewBox="0 0 24 24" fill="none" xmlns="http://www.w3.org/2000/svg">
<path d="M20.7816 10.2776L20.7631 7.96283C20.7563 5.05648 18.9417 3.00734 16.0314 3.01415L7.70837 3.03361C4.80688 3.04042 2.99321 5.09832 3.00002 8.00467L3.01851 15.8471C3.02532 18.7544 4.83996 20.8035 7.75021 20.7967L11.1684 20.7772" stroke="black" stroke-width="1.5" stroke-linecap="round" stroke-linejoin="round"/>
<path d="M17.2009 20.9868C19.2987 20.9868 21.0005 19.285 21.0005 17.1863C21.0005 15.0875 19.2987 13.3857 17.2009 13.3857C15.1022 13.3857 13.4004 15.0875 13.4004 17.1863C13.4004 19.285 15.1022 20.9868 17.2009 20.9868Z" stroke="black" stroke-width="1.5" stroke-linecap="round" stroke-linejoin="round"/>
<path d="M17.2012 17.1869L18.2364 16.2148" stroke="black" stroke-width="1.5" stroke-linecap="round" stroke-linejoin="round"/>
<path d="M14.6846 3.01318L14.7011 9.60234L11.9028 8.68967L9.08883 9.61888L9.08008 3.03751" stroke="black" stroke-width="1.5" stroke-linecap="round" stroke-linejoin="round"/>
</svg>
