<svg width="25" height="24" viewBox="0 0 25 24" fill="none" xmlns="http://www.w3.org/2000/svg">
<path opacity="0.4" fill-rule="evenodd" clip-rule="evenodd" d="M12.5 2.5C7.262 2.5 3 6.761 3 12C3 17.238 7.262 21.5 12.5 21.5C17.738 21.5 22 17.238 22 12C22 6.761 17.738 2.5 12.5 2.5Z" fill="black"/>
<path fill-rule="evenodd" clip-rule="evenodd" d="M14.2731 16.4683V16.1543C15.4681 15.8923 16.3671 14.8253 16.3671 13.5493C16.3681 12.8413 16.0911 12.1733 15.5891 11.6703C15.5303 11.6107 15.4652 11.5608 15.3999 11.5107C15.3786 11.4944 15.3573 11.478 15.3361 11.4613C15.6261 11.0763 15.8051 10.6043 15.8051 10.0893C15.8051 9.0923 15.1631 8.2503 14.2731 7.9313V7.5293C14.2731 7.1143 13.9371 6.7793 13.5231 6.7793C13.1091 6.7793 12.7731 7.1143 12.7731 7.5293V7.7893H12.1661V7.5293C12.1661 7.1143 11.8301 6.7793 11.4161 6.7793C11.0021 6.7793 10.6661 7.1143 10.6661 7.5293V7.7893H9.9041C9.4901 7.7893 9.1541 8.1253 9.1541 8.5393C9.1541 8.8943 9.4061 9.1783 9.7381 9.2553V14.7513C9.4051 14.8283 9.1521 15.1123 9.1521 15.4683C9.1521 15.8833 9.4881 16.2183 9.9021 16.2183H10.6661V16.4683C10.6661 16.8833 11.0021 17.2183 11.4161 17.2183C11.8301 17.2183 12.1661 16.8833 12.1661 16.4683V16.2183H12.7731V16.4683C12.7731 16.8833 13.1091 17.2183 13.5231 17.2183C13.9371 17.2183 14.2731 16.8833 14.2731 16.4683ZM13.5001 9.28909H11.2381V10.8891H13.5121C13.9501 10.8841 14.3051 10.5251 14.3051 10.0891C14.3051 9.64809 13.9441 9.28909 13.5001 9.28909ZM11.2381 14.7187V12.3887H13.7061C14.0161 12.3887 14.3081 12.5097 14.5271 12.7297C14.7471 12.9497 14.8681 13.2407 14.8671 13.5487C14.8671 14.1937 14.3461 14.7187 13.7051 14.7187H11.2381Z" fill="black"/>
</svg>