<svg width="25" height="24" viewBox="0 0 25 24" fill="none" xmlns="http://www.w3.org/2000/svg">
<path fill-rule="evenodd" clip-rule="evenodd" d="M13.0059 14.7249C13.0316 14.8944 12.8935 15.0385 12.722 15.0385H3.30211C3.13066 15.0385 2.9925 14.8944 3.01837 14.7249C3.21056 13.4658 4.17264 12.6185 5.47706 12.6185H10.5571C11.8615 12.6185 12.815 13.4658 13.0059 14.7249Z" fill="black"/>
<path fill-rule="evenodd" clip-rule="evenodd" d="M12.7471 16.5385C12.9127 16.5385 13.0471 16.6728 13.0471 16.8385V18.5385C13.0471 20.0785 12.0271 21.1385 10.5571 21.1385H5.47705C4.00705 21.1385 2.97705 20.0785 2.97705 18.5385V16.8385C2.97705 16.6728 3.11137 16.5385 3.27705 16.5385H12.7471Z" fill="black"/>
<path fill-rule="evenodd" clip-rule="evenodd" d="M18.3369 10.0084H15.5769V7.9484H18.1769C18.2069 7.9484 18.2369 7.9484 18.2669 7.9384H18.3369C18.9069 7.9384 19.3669 8.4084 19.3669 8.9784C19.3669 9.5484 18.9069 10.0084 18.3369 10.0084ZM15.5769 5.0484H18.1469C18.5269 5.0484 18.8469 5.3684 18.8469 5.7484C18.8469 6.1184 18.5569 6.4084 18.2069 6.4384H18.0369C18.0169 6.4384 18.0069 6.4484 17.9869 6.4484H15.5769V5.0484ZM19.9269 7.0284C20.1869 6.6684 20.3469 6.2284 20.3469 5.7484C20.3469 4.8084 19.7469 4.0184 18.9169 3.6984V3.3584C18.9169 2.9484 18.5769 2.6084 18.1669 2.6084C17.7469 2.6084 17.4169 2.9484 17.4169 3.3584V3.5484H16.4369V3.3584C16.4369 2.9484 16.0969 2.6084 15.6869 2.6084C15.2669 2.6084 14.9369 2.9484 14.9369 3.3584V3.5484H14.2769C13.8669 3.5484 13.5269 3.8884 13.5269 4.2984C13.5269 4.6484 13.7569 4.9184 14.0769 5.0084V10.0584C13.7569 10.1484 13.5269 10.4184 13.5269 10.7584C13.5269 11.1784 13.8569 11.5084 14.2769 11.5084H14.9369V11.6884C14.9369 12.1084 15.2669 12.4384 15.6869 12.4384C16.0969 12.4384 16.4369 12.1084 16.4369 11.6884V11.5084H17.4169V11.6884C17.4169 12.1084 17.7469 12.4384 18.1669 12.4384C18.5769 12.4384 18.9169 12.1084 18.9169 11.6884V11.4384C20.0369 11.1784 20.8669 10.1784 20.8669 8.9784C20.8669 8.1884 20.4969 7.4884 19.9269 7.0284Z" fill="black"/>
<g opacity="0.4">
<path fill-rule="evenodd" clip-rule="evenodd" d="M22.0579 16.3099L20.6979 14.6489C20.5559 14.4759 20.3429 14.3739 20.1179 14.3739C19.8929 14.3739 19.6799 14.4759 19.5369 14.6499L18.1799 16.3099C17.9959 16.5349 17.9579 16.8449 18.0819 17.1059C18.2059 17.3679 18.4709 17.5349 18.7599 17.5349H19.3679V18.4249C19.3679 19.2349 18.7079 19.8939 17.8969 19.8939H16.7209C16.3069 19.8939 15.9709 20.2299 15.9709 20.6439C15.9709 21.0589 16.3069 21.3939 16.7209 21.3939H17.8969C19.5349 21.3939 20.8679 20.0619 20.8679 18.4249V17.5349H21.4779C21.7679 17.5349 22.0319 17.3679 22.1559 17.1059C22.2799 16.8439 22.2419 16.5339 22.0579 16.3099Z" fill="black"/>
<path fill-rule="evenodd" clip-rule="evenodd" d="M4.88208 9.68406C5.10708 9.68406 5.32008 9.58306 5.46308 9.40906L6.82008 7.74806C7.00408 7.52406 7.04208 7.21406 6.91808 6.95306C6.79408 6.69106 6.52908 6.52406 6.24008 6.52406H5.63208V5.63406C5.63208 4.82406 6.29208 4.16406 7.10308 4.16406H8.27908C8.69308 4.16406 9.02908 3.82806 9.02908 3.41406C9.02908 3.00006 8.69308 2.66406 8.27908 2.66406H7.10308C5.46508 2.66406 4.13208 3.99706 4.13208 5.63406V6.52406H3.52208C3.23208 6.52406 2.96808 6.69106 2.84408 6.95306C2.72008 7.21506 2.75808 7.52506 2.94208 7.74906L4.30208 9.40906C4.44408 9.58306 4.65708 9.68406 4.88208 9.68406Z" fill="black"/>
</g>
</svg>