<svg width="25" height="24" viewBox="0 0 25 24" fill="none" xmlns="http://www.w3.org/2000/svg">
<path opacity="0.4" fill-rule="evenodd" clip-rule="evenodd" d="M16.716 2.5H8.282C5.122 2.5 3 4.722 3 8.029V15.969C3 19.277 5.122 21.5 8.282 21.5H16.715C19.876 21.5 22 19.277 22 15.969V8.029C22 4.722 19.876 2.5 16.716 2.5Z" fill="black"/>
<path fill-rule="evenodd" clip-rule="evenodd" d="M15.39 15.7984C15.904 15.2324 16.156 14.4714 16.083 13.7094C16.02 13.0424 15.698 12.4494 15.223 12.0104C15.2441 11.9908 15.2663 11.9724 15.2885 11.954C15.324 11.9244 15.3596 11.8949 15.391 11.8604C15.904 11.2964 16.156 10.5344 16.083 9.76941C15.954 8.40641 14.754 7.33841 13.341 7.31441V6.89941C13.341 6.48541 13.005 6.14941 12.591 6.14941C12.177 6.14941 11.841 6.48541 11.841 6.89941V7.30941H10.541C10.126 7.30941 9.79102 7.64541 9.79102 8.05941V15.9394C9.79102 16.3534 10.126 16.6894 10.541 16.6894H11.841V17.0994C11.841 17.5134 12.177 17.8494 12.591 17.8494C13.005 17.8494 13.341 17.5134 13.341 17.0994V16.6894H13.377C14.142 16.6894 14.875 16.3644 15.39 15.7984ZM13.3774 11.25C13.7264 11.25 14.0474 11.108 14.2814 10.852C14.5134 10.596 14.6234 10.262 14.5894 9.91098C14.5314 9.29298 13.9614 8.80998 13.2924 8.80998H11.2904V11.25H13.3774ZM11.2904 12.7499H13.2924C13.9614 12.7499 14.5314 13.2329 14.5894 13.8519C14.6234 14.1989 14.5134 14.5329 14.2794 14.7899C14.0484 15.0429 13.7194 15.1889 13.3774 15.1889H11.2904V12.7499Z" fill="black"/>
</svg>