<svg width="25" height="24" viewBox="0 0 25 24" fill="none" xmlns="http://www.w3.org/2000/svg">
<path fill-rule="evenodd" clip-rule="evenodd" d="M20.9698 7.13496C20.9698 5.03496 19.2678 3.33496 17.1698 3.33496C15.0708 3.33496 13.3688 5.03496 13.3688 7.13496C13.3688 9.23496 15.0708 10.935 17.1698 10.935C19.2678 10.935 20.9698 9.23496 20.9698 7.13496Z" fill="black"/>
<path fill-rule="evenodd" clip-rule="evenodd" d="M9.85592 18.925H7.09192V16.865H9.85592C10.4249 16.865 10.8879 17.327 10.8879 17.895C10.8879 18.463 10.4249 18.925 9.85592 18.925ZM7.09192 15.365V13.965H9.66392C10.0489 13.965 10.3629 14.279 10.3629 14.665C10.3629 15.052 10.0599 15.36 9.68292 15.365H7.09192ZM11.4449 15.941C11.7049 15.58 11.8629 15.141 11.8629 14.665C11.8629 13.724 11.2669 12.926 10.4349 12.612V12.285C10.4349 11.871 10.0989 11.535 9.68492 11.535C9.27092 11.535 8.93492 11.871 8.93492 12.285V12.465H7.95492V12.285C7.95492 11.871 7.61892 11.535 7.20492 11.535C6.79092 11.535 6.45492 11.871 6.45492 12.285V12.465H5.79692C5.38292 12.465 5.04692 12.801 5.04692 13.215C5.04692 13.556 5.27992 13.833 5.59192 13.924V18.966C5.27892 19.056 5.04492 19.333 5.04492 19.675C5.04492 20.089 5.38092 20.425 5.79492 20.425H6.29092C6.30892 20.426 6.32392 20.435 6.34192 20.435C6.35992 20.435 6.37492 20.426 6.39292 20.425H6.45492V20.615C6.45492 21.029 6.79092 21.365 7.20492 21.365C7.61892 21.365 7.95492 21.029 7.95492 20.615V20.425H8.93492V20.615C8.93492 21.029 9.27092 21.365 9.68492 21.365C10.0989 21.365 10.4349 21.029 10.4349 20.615V20.352C11.5509 20.089 12.3879 19.091 12.3879 17.895C12.3879 17.104 12.0149 16.406 11.4449 15.941Z" fill="black"/>
<g opacity="0.4">
<path fill-rule="evenodd" clip-rule="evenodd" d="M22.0579 16.2802L20.6979 14.6192C20.5559 14.4462 20.3429 14.3442 20.1179 14.3442C19.8929 14.3442 19.6799 14.4462 19.5369 14.6202L18.1799 16.2802C17.9959 16.5052 17.9579 16.8152 18.0819 17.0762C18.2059 17.3382 18.4709 17.5052 18.7599 17.5052H19.3679V18.3952C19.3679 19.2052 18.7079 19.8642 17.8969 19.8642H16.7209C16.3069 19.8642 15.9709 20.2002 15.9709 20.6142C15.9709 21.0292 16.3069 21.3642 16.7209 21.3642H17.8969C19.5349 21.3642 20.8679 20.0322 20.8679 18.3952V17.5052H21.4779C21.7679 17.5052 22.0319 17.3382 22.1559 17.0762C22.2799 16.8142 22.2419 16.5042 22.0579 16.2802Z" fill="black"/>
<path fill-rule="evenodd" clip-rule="evenodd" d="M6.82057 7.71877C7.00457 7.49477 7.04157 7.18477 6.91757 6.92277C6.79357 6.66077 6.52957 6.49377 6.23957 6.49377H5.63257V5.60477C5.63257 4.79377 6.29257 4.13477 7.10357 4.13477H8.27857C8.69357 4.13477 9.02857 3.79877 9.02857 3.38477C9.02857 2.96977 8.69357 2.63477 8.27857 2.63477H7.10357C5.46557 2.63477 4.13257 3.96677 4.13257 5.60477V6.49377H3.52257C3.23257 6.49377 2.96857 6.66077 2.84457 6.92377C2.72057 7.18477 2.75857 7.49477 2.94257 7.71877L4.30157 9.37977C4.44457 9.55277 4.65757 9.65477 4.88257 9.65477C5.10757 9.65477 5.32057 9.55277 5.46257 9.37877L6.82057 7.71877Z" fill="black"/>
</g>
</svg>