<svg width="25" height="24" viewBox="0 0 25 24" fill="none" xmlns="http://www.w3.org/2000/svg">
<path opacity="0.4" fill-rule="evenodd" clip-rule="evenodd" d="M16.717 2.5H8.282C5.122 2.5 3 4.722 3 8.03V15.97C3 19.278 5.122 21.5 8.282 21.5H16.716C19.876 21.5 22 19.278 22 15.97V8.03C22 4.722 19.877 2.5 16.717 2.5Z" fill="#020202"/>
<path fill-rule="evenodd" clip-rule="evenodd" d="M12.9331 16.2602H10.2361C9.8221 16.2602 9.4861 15.9242 9.4861 15.5102V12.7502H8.9751C8.5611 12.7502 8.2251 12.4142 8.2251 12.0002C8.2251 11.5862 8.5611 11.2502 8.9751 11.2502H9.4861V8.49023C9.4861 8.07623 9.8221 7.74023 10.2361 7.74023H12.9331C15.2821 7.74023 17.1931 9.65123 17.1931 12.0002C17.1931 14.3492 15.2821 16.2602 12.9331 16.2602ZM10.9861 9.24022H12.9331C14.4551 9.24022 15.6931 10.4782 15.6931 12.0002C15.6931 13.5222 14.4551 14.7602 12.9331 14.7602H10.9861V12.7502H12.7121C13.1261 12.7502 13.4621 12.4142 13.4621 12.0002C13.4621 11.5862 13.1261 11.2502 12.7121 11.2502H10.9861V9.24022Z" fill="#020202"/>
</svg>