<svg width="25" height="24" viewBox="0 0 25 24" fill="none" xmlns="http://www.w3.org/2000/svg">
<path fill-rule="evenodd" clip-rule="evenodd" d="M19.449 14.4272C19.315 14.2262 19.055 14.1492 18.834 14.2452L12.5 16.9902L6.16596 14.2452C5.94496 14.1492 5.68596 14.2262 5.55096 14.4272C5.41696 14.6292 5.44596 14.8972 5.61996 15.0652L12.154 21.3552C12.25 21.4482 12.375 21.4942 12.5 21.4942C12.625 21.4942 12.75 21.4482 12.847 21.3552L19.38 15.0652C19.554 14.8972 19.583 14.6282 19.449 14.4272Z" fill="black"/>
<path opacity="0.4" fill-rule="evenodd" clip-rule="evenodd" d="M5.76876 12.2036L12.3018 15.0236C12.3658 15.0506 12.4328 15.0646 12.4998 15.0646C12.5678 15.0646 12.6348 15.0506 12.6988 15.0236L19.2308 12.2036C19.3718 12.1426 19.4768 12.0216 19.5158 11.8736C19.5558 11.7256 19.5248 11.5676 19.4338 11.4456L12.9008 2.69561C12.7118 2.44261 12.2888 2.44261 12.0998 2.69561L5.56576 11.4456C5.47476 11.5676 5.44476 11.7256 5.48376 11.8736C5.52376 12.0216 5.62876 12.1426 5.76876 12.2036Z" fill="black"/>
</svg>