<svg width="25" height="24" viewBox="0 0 25 24" fill="none" xmlns="http://www.w3.org/2000/svg">
<path opacity="0.4" fill-rule="evenodd" clip-rule="evenodd" d="M12.5 2.5C7.262 2.5 3 6.762 3 12C3 17.238 7.262 21.5 12.5 21.5C17.738 21.5 22 17.238 22 12C22 6.762 17.738 2.5 12.5 2.5Z" fill="black"/>
<path fill-rule="evenodd" clip-rule="evenodd" d="M14.628 7.91371L15.046 7.43071C15.317 7.11771 15.282 6.64371 14.97 6.37271C14.655 6.10071 14.184 6.13571 13.911 6.44971L13.517 6.90471C13.175 6.73971 12.797 6.63971 12.393 6.63971C10.947 6.63971 9.77197 7.81971 9.77197 9.26971C9.77197 10.4527 10.564 11.4427 11.643 11.7677V12.6927C10.564 13.0177 9.77197 14.0077 9.77197 15.1897C9.77197 16.6347 10.947 17.8097 12.393 17.8097C13.839 17.8097 15.015 16.6347 15.015 15.1897C15.015 14.0077 14.222 13.0177 13.143 12.6927V11.7677C14.222 11.4427 15.015 10.4527 15.015 9.26971C15.015 8.77271 14.868 8.31071 14.628 7.91371ZM12.3926 8.14023C11.7746 8.14023 11.2716 8.64723 11.2716 9.27023C11.2716 9.88823 11.7746 10.3902 12.3926 10.3902C13.0116 10.3902 13.5146 9.88823 13.5146 9.27023C13.5146 8.64723 13.0116 8.14023 12.3926 8.14023ZM12.3925 16.31C11.7745 16.31 11.2715 15.808 11.2715 15.19C11.2715 14.573 11.7745 14.07 12.3925 14.07C13.0115 14.07 13.5145 14.573 13.5145 15.19C13.5145 15.808 13.0115 16.31 12.3925 16.31Z" fill="black"/>
</svg>