<svg width="25" height="24" viewBox="0 0 25 24" fill="none" xmlns="http://www.w3.org/2000/svg">
<path opacity="0.4" fill-rule="evenodd" clip-rule="evenodd" d="M16.717 2.5H8.282C5.123 2.5 3 4.722 3 8.03V15.97C3 19.277 5.123 21.5 8.282 21.5H16.716C19.876 21.5 22 19.277 22 15.97V8.03C22 4.722 19.877 2.5 16.717 2.5Z" fill="black"/>
<path d="M15.6219 11.9995C15.6219 11.5855 15.2859 11.2495 14.8719 11.2495H14.4479C14.7569 10.3895 15.5729 9.76953 16.5379 9.76953C16.9519 9.76953 17.2879 9.43353 17.2879 9.01953C17.2879 8.60453 16.9519 8.26953 16.5379 8.26953C14.7379 8.26953 13.2319 9.55053 12.8839 11.2495H12.1169C11.7689 9.55053 10.2629 8.26953 8.46289 8.26953C8.04889 8.26953 7.71289 8.60453 7.71289 9.01953C7.71289 9.43353 8.04889 9.76953 8.46289 9.76953C9.42789 9.76953 10.2439 10.3895 10.5529 11.2495H10.1269C9.71289 11.2495 9.37689 11.5855 9.37689 11.9995C9.37689 12.4135 9.71289 12.7495 10.1269 12.7495H10.5529C10.2439 13.6095 9.42789 14.2285 8.46289 14.2285C8.04889 14.2285 7.71289 14.5645 7.71289 14.9785C7.71289 15.3935 8.04889 15.7285 8.46289 15.7285C10.2629 15.7285 11.7679 14.4475 12.1169 12.7495H12.8839C13.2319 14.4475 14.7379 15.7285 16.5379 15.7285C16.9519 15.7285 17.2879 15.3935 17.2879 14.9785C17.2879 14.5645 16.9519 14.2285 16.5379 14.2285C15.5729 14.2285 14.7569 13.6095 14.4479 12.7495H14.8719C15.2859 12.7495 15.6219 12.4135 15.6219 11.9995Z" fill="black"/>
</svg>