<svg width="25" height="24" viewBox="0 0 25 24" fill="none" xmlns="http://www.w3.org/2000/svg">
<path opacity="0.4" fill-rule="evenodd" clip-rule="evenodd" d="M16.717 2.5H8.282C5.123 2.5 3 4.722 3 8.03V15.97C3 19.278 5.123 21.5 8.282 21.5H16.716C19.876 21.5 22 19.278 22 15.97V8.03C22 4.722 19.877 2.5 16.717 2.5Z" fill="black"/>
<path d="M17.2561 7.96984C17.6701 7.96984 18.0061 7.63384 18.0061 7.21984V7.20984C18.0061 6.79584 17.6701 6.46484 17.2561 6.46484C16.8421 6.46484 16.5061 6.80584 16.5061 7.21984C16.5061 7.63384 16.8421 7.96984 17.2561 7.96984Z" fill="black"/>
<path d="M10.3691 16.4598C11.0031 16.7808 11.7371 16.9498 12.4901 16.9498C15.1581 16.9498 17.3281 14.7788 17.3281 12.1098C17.3281 11.3638 17.1641 10.6528 16.8411 9.99784C16.6571 9.62684 16.2071 9.47284 15.8361 9.65784C15.4651 9.84084 15.3131 10.2898 15.4951 10.6618C15.7161 11.1088 15.8281 11.5958 15.8281 12.1098C15.8281 13.9518 14.3311 15.4498 12.4901 15.4498C11.9711 15.4498 11.4711 15.3358 11.0451 15.1208C10.6741 14.9328 10.2241 15.0828 10.0381 15.4518C9.85109 15.8218 9.99909 16.2728 10.3691 16.4598Z" fill="black"/>
<path d="M8.76309 14.5398C8.87009 14.5398 8.98009 14.5168 9.08309 14.4678C9.45709 14.2898 9.61709 13.8428 9.44009 13.4688C9.25009 13.0708 9.15109 12.6008 9.15109 12.1098C9.15109 10.2738 10.6491 8.77984 12.4891 8.77984C12.9611 8.77984 13.4261 8.88284 13.8351 9.07684C14.2141 9.25684 14.6571 9.09484 14.8341 8.72184C15.0131 8.34784 14.8541 7.90084 14.4801 7.72284C13.8701 7.43284 13.1831 7.27984 12.4891 7.27984C9.82109 7.27984 7.65109 9.44684 7.65109 12.1098C7.65109 12.8218 7.80109 13.5138 8.08409 14.1118C8.21309 14.3818 8.48209 14.5398 8.76309 14.5398Z" fill="black"/>
<path d="M7.74609 17.4798C8.16009 17.4798 8.49609 17.1438 8.49609 16.7298V16.7198C8.49609 16.3058 8.16009 15.9748 7.74609 15.9748C7.33209 15.9748 6.99609 16.3158 6.99609 16.7298C6.99609 17.1438 7.33209 17.4798 7.74609 17.4798Z" fill="black"/>
</svg>