<svg width="25" height="24" viewBox="0 0 25 24" fill="none" xmlns="http://www.w3.org/2000/svg">
<path fill-rule="evenodd" clip-rule="evenodd" d="M12.4783 5.48975C13.4383 5.48975 14.3833 5.69575 15.2103 6.08475C15.7113 6.32075 16.3063 6.10475 16.5413 5.60575C16.7763 5.10575 16.5623 4.50975 16.0623 4.27475C14.9703 3.76075 13.7313 3.48975 12.4783 3.48975C7.65928 3.48975 3.73828 7.40575 3.73828 12.2197C3.73828 13.4937 4.00828 14.7387 4.52028 15.8177C4.69128 16.1787 5.04928 16.3897 5.42428 16.3897C5.56828 16.3897 5.71328 16.3587 5.85128 16.2937C6.35128 16.0567 6.56428 15.4607 6.32728 14.9617C5.94228 14.1477 5.73828 13.1997 5.73828 12.2197C5.73828 8.50875 8.76128 5.48975 12.4783 5.48975Z" fill="black"/>
<path fill-rule="evenodd" clip-rule="evenodd" d="M19.0038 7.9419C18.5078 8.1849 18.3038 8.7839 18.5468 9.2799C18.9918 10.1899 19.2188 11.1759 19.2188 12.2099C19.2188 15.9259 16.1948 18.9499 12.4788 18.9499C11.4418 18.9499 10.4298 18.7189 9.54879 18.2839C9.05179 18.0369 8.45379 18.2419 8.20879 18.7359C7.96379 19.2309 8.16679 19.8309 8.66179 20.0759C9.81579 20.6479 11.1358 20.9499 12.4788 20.9499C17.2978 20.9499 21.2188 17.0289 21.2188 12.2099C21.2188 10.8679 20.9238 9.5859 20.3418 8.3999C20.1008 7.9049 19.5018 7.6989 19.0038 7.9419Z" fill="black"/>
<g opacity="0.4">
<path fill-rule="evenodd" clip-rule="evenodd" d="M4.5 18.5C3.673 18.5 3 19.173 3 20C3 20.827 3.673 21.5 4.5 21.5C5.327 21.5 6 20.827 6 20C6 19.173 5.327 18.5 4.5 18.5Z" fill="black"/>
<path fill-rule="evenodd" clip-rule="evenodd" d="M20.5 2.5C19.673 2.5 19 3.173 19 4C19 4.827 19.673 5.5 20.5 5.5C21.327 5.5 22 4.827 22 4C22 3.173 21.327 2.5 20.5 2.5Z" fill="black"/>
</g>
</svg>