<svg width="25" height="24" viewBox="0 0 25 24" fill="none" xmlns="http://www.w3.org/2000/svg">
<path opacity="0.4" fill-rule="evenodd" clip-rule="evenodd" d="M12.5 2.5C7.261 2.5 3 6.761 3 12C3 17.238 7.261 21.5 12.5 21.5C17.738 21.5 22 17.238 22 12C22 6.761 17.738 2.5 12.5 2.5Z" fill="black"/>
<path d="M17.198 15.7539C17.298 15.7129 17.362 15.6169 17.362 15.5099V11.7039C17.362 9.15295 15.375 7.04195 12.938 6.99795C11.812 6.94995 10.676 7.35795 9.81696 8.11795C9.76296 8.16595 9.73096 8.23395 9.72896 8.30695C9.72696 8.37895 9.75396 8.44895 9.80496 8.50095L16.911 15.6949C16.962 15.7459 17.029 15.7729 17.098 15.7729C17.132 15.7729 17.166 15.7669 17.198 15.7539Z" fill="black"/>
<path d="M12.242 17.0049C13.307 17.0049 14.369 16.6009 15.182 15.8809C15.236 15.8329 15.268 15.7649 15.271 15.6929C15.273 15.6199 15.245 15.5499 15.195 15.4989L8.08796 8.30395C8.01296 8.22795 7.89796 8.20495 7.80096 8.24595C7.70196 8.28595 7.63796 8.38295 7.63796 8.48895L7.63696 12.2949C7.63696 14.8459 9.62496 16.9569 12.062 17.0009C12.122 17.0039 12.181 17.0049 12.242 17.0049Z" fill="black"/>
</svg>