<svg width="25" height="24" viewBox="0 0 25 24" fill="none" xmlns="http://www.w3.org/2000/svg">
<path opacity="0.4" fill-rule="evenodd" clip-rule="evenodd" d="M16.717 2.5H8.282C5.123 2.5 3 4.722 3 8.03V15.97C3 19.278 5.123 21.5 8.282 21.5H16.716C19.876 21.5 22 19.278 22 15.97V8.03C22 4.722 19.877 2.5 16.717 2.5Z" fill="black"/>
<path d="M17.4499 15.9556C17.5539 15.9126 17.6219 15.8116 17.6219 15.6986L17.6229 11.6896C17.6229 9.00259 15.5289 6.77859 12.9609 6.73259C11.7759 6.68159 10.5789 7.11159 9.67493 7.91259C9.61793 7.96259 9.58393 8.03459 9.58093 8.11059C9.57893 8.18759 9.60793 8.26159 9.66193 8.31559L17.1469 15.8936C17.1999 15.9476 17.2719 15.9766 17.3439 15.9766C17.3799 15.9766 17.4159 15.9696 17.4499 15.9556Z" fill="black"/>
<path d="M12.2279 17.2736C13.3509 17.2736 14.4699 16.8476 15.3259 16.0896C15.3829 16.0386 15.4159 15.9676 15.4189 15.8906C15.4209 15.8146 15.3929 15.7406 15.3389 15.6866L7.85293 8.10859C7.77393 8.02759 7.65193 8.00359 7.55093 8.04659C7.44593 8.08959 7.37793 8.19059 7.37793 8.30359V12.3116C7.37793 14.9996 9.47193 17.2236 12.0389 17.2696C12.1019 17.2726 12.1649 17.2736 12.2279 17.2736Z" fill="black"/>
</svg>