<svg width="25" height="24" viewBox="0 0 25 24" fill="none" xmlns="http://www.w3.org/2000/svg">
<path fill-rule="evenodd" clip-rule="evenodd" d="M9.46112 10.1035C10.2761 10.9185 11.3721 11.3265 12.4691 11.3265C13.5651 11.3255 14.6611 10.9185 15.4771 10.1035L20.5821 4.99651C21.0621 4.57651 21.2311 3.97451 21.0241 3.42351C20.8131 2.86251 20.2631 2.49951 19.6231 2.49951H17.8791C16.9821 2.49951 16.6111 2.87251 16.0291 3.45651L12.7891 6.69651C12.6331 6.85451 12.2991 6.84751 12.1521 6.70151L8.98212 3.44051C8.43512 2.89451 8.04012 2.49951 7.12012 2.49951H5.40312C4.77712 2.49951 4.22612 2.85551 3.99712 3.40651C3.77412 3.94451 3.90112 4.54451 4.32912 4.97351L9.46112 10.1035Z" fill="black"/>
<path opacity="0.4" fill-rule="evenodd" clip-rule="evenodd" d="M20.6066 19.0269L15.4766 13.8969C14.6856 13.1059 13.6176 12.6699 12.4686 12.6699C11.3196 12.6699 10.2516 13.1059 9.46061 13.8969L4.32961 19.0269C3.90161 19.4559 3.77461 20.0559 3.99761 20.5939C4.22561 21.1449 4.77761 21.5009 5.40361 21.5009H7.12061C8.03961 21.5009 8.43361 21.1069 9.00161 20.5389L12.1476 17.3039C12.3026 17.1469 12.6316 17.1459 12.7896 17.3039L16.0986 20.6129C16.6126 21.1289 16.9836 21.5009 17.8786 21.5009H19.6236C20.2626 21.5009 20.8126 21.1379 21.0236 20.5769C21.2306 20.0259 21.0616 19.4229 20.6066 19.0269Z" fill="black"/>
</svg>