<svg width="25" height="24" viewBox="0 0 25 24" fill="none" xmlns="http://www.w3.org/2000/svg">
<path opacity="0.4" fill-rule="evenodd" clip-rule="evenodd" d="M12.5 2.01367C7.262 2.01367 3 6.27567 3 11.5137C3 16.7517 7.262 21.0137 12.5 21.0137C17.738 21.0137 22 16.7517 22 11.5137C22 6.27567 17.738 2.01367 12.5 2.01367Z" fill="black"/>
<path fill-rule="evenodd" clip-rule="evenodd" d="M17.785 11.2965C17.928 11.1205 17.991 10.9125 18.015 10.7025C18.0203 10.6789 18.0222 10.6558 18.0241 10.632L18.026 10.6095C18.028 10.5415 18.028 10.4775 18.019 10.4115C18.0176 10.4049 18.0179 10.3986 18.0183 10.3922C18.0187 10.3851 18.0191 10.3779 18.017 10.3705C18.0153 10.3615 18.011 10.354 18.0067 10.3465C18.0035 10.3408 18.0002 10.335 17.998 10.3285C17.951 10.1135 17.86 9.90953 17.694 9.75853L16.078 8.11553C15.806 7.84253 15.441 7.66453 15.048 7.61053L9.039 6.82853C8.623 6.75053 8.196 6.90453 7.929 7.23553C7.66 7.56853 7.597 8.01853 7.764 8.40653L11.307 16.7775C11.468 17.1555 11.807 17.4145 12.214 17.4675C12.266 17.4745 12.319 17.4785 12.37 17.4785C12.721 17.4785 13.051 17.3205 13.272 17.0385L17.785 11.2965ZM13.553 12.2087L13.343 14.5197L15.531 11.7357L13.553 12.2087ZM15.3747 9.53804L15.9267 10.099L14.7277 10.386L15.3747 9.53804ZM10.5215 8.5326L12.7485 10.5076L13.9165 8.9756L10.5215 8.5326ZM10.1576 10.214L12.0736 11.914L11.8626 14.241L10.1576 10.214Z" fill="black"/>
</svg>