<svg width="25" height="24" viewBox="0 0 25 24" fill="none" xmlns="http://www.w3.org/2000/svg">
<path opacity="0.4" fill-rule="evenodd" clip-rule="evenodd" d="M16.717 2.50488H8.282C5.123 2.50488 3 4.72788 3 8.03488V15.9749C3 19.2819 5.123 21.5049 8.282 21.5049H16.716C19.877 21.5049 22 19.2819 22 15.9749V8.03488C22 4.72788 19.877 2.50488 16.717 2.50488Z" fill="black"/>
<path fill-rule="evenodd" clip-rule="evenodd" d="M14.544 16.6344C14.081 16.8854 13.556 17.1704 12.943 17.6124C12.812 17.7064 12.659 17.7534 12.505 17.7534C12.351 17.7534 12.198 17.7064 12.067 17.6124C11.4551 17.1722 10.9319 16.8875 10.4696 16.6358L10.467 16.6344C8.30697 15.4604 7.68097 14.8324 7.58797 8.33341C7.58497 8.13241 7.66297 7.93941 7.80397 7.79641C7.97997 7.61741 8.20597 7.57441 8.49997 7.57341C9.25997 7.57341 10.728 7.50741 12.025 6.42741C12.304 6.19541 12.708 6.19641 12.986 6.42841C14.3577 7.57416 15.9369 7.57362 16.5577 7.57341C16.566 7.57341 16.5741 7.57341 16.582 7.57341L16.682 7.57241C16.883 7.57241 17.076 7.65441 17.216 7.79641C17.357 7.94041 17.435 8.13341 17.432 8.33441C17.333 14.8314 16.705 15.4594 14.544 16.6344ZM11.184 15.3171C9.66805 14.4931 9.21205 14.2451 9.10105 9.05913C9.94105 9.00913 11.247 8.79813 12.504 7.94213C13.763 8.80013 15.075 9.01013 15.918 9.05913C15.798 14.2451 15.307 14.5121 13.828 15.3161L13.8061 15.3281C13.4377 15.5286 13.0002 15.7666 12.505 16.0931C12.0009 15.7607 11.5575 15.5199 11.1859 15.3181L11.184 15.3171Z" fill="black"/>
</svg>