<svg width="25" height="24" viewBox="0 0 25 24" fill="none" xmlns="http://www.w3.org/2000/svg">
<path opacity="0.4" fill-rule="evenodd" clip-rule="evenodd" d="M16.717 2.5H8.282C5.122 2.5 3 4.722 3 8.03V15.97C3 19.277 5.122 21.5 8.282 21.5H16.716C19.876 21.5 22 19.277 22 15.97V8.03C22 4.722 19.877 2.5 16.717 2.5Z" fill="black"/>
<path fill-rule="evenodd" clip-rule="evenodd" d="M17.574 8.16364C16.609 10.6206 14.526 16.0106 14.388 16.3686C14.367 16.4266 14.337 16.4826 14.301 16.5356C14.161 16.7386 13.93 16.8596 13.684 16.8596H13.673C13 16.8486 11.363 16.8596 11.363 16.8596H11.358C11.05 16.8596 10.773 16.6706 10.66 16.3846L7.42503 8.17364C7.33403 7.94364 7.36403 7.68264 7.50303 7.47764C7.64203 7.27264 7.87403 7.14964 8.12203 7.14964L10.447 7.13964H10.45C10.758 7.13964 11.035 7.32764 11.148 7.61464C11.148 7.61464 12.727 11.6276 13.678 14.0456C14.41 12.1546 15.538 9.24264 16.178 7.61564C16.329 7.22864 16.762 7.03964 17.15 7.19064C17.535 7.34264 17.725 7.77764 17.574 8.16364ZM11.8674 15.3567L9.22244 8.64473L9.30178 8.64442L9.93944 8.64173C10.2934 9.54054 11.0834 11.5488 11.7702 13.295C12.0768 14.0745 12.3629 14.8017 12.5804 15.3547C12.4593 15.3552 12.3387 15.3555 12.2233 15.3557C12.0967 15.356 11.9762 15.3562 11.8674 15.3567Z" fill="black"/>
</svg>