<svg width="24" height="24" viewBox="0 0 24 24" fill="none" xmlns="http://www.w3.org/2000/svg">
<path fill-rule="evenodd" clip-rule="evenodd" d="M11.0088 19.4243H10.9888C10.6888 19.4243 10.4388 19.1943 10.4288 18.8943C10.4188 18.6963 10.5278 18.5283 10.6848 18.4183C10.6918 18.4153 10.6978 18.4163 10.7048 18.4143C10.7048 18.4143 10.7068 18.4143 10.7088 18.4143C10.7388 18.3943 10.7588 18.3743 10.7888 18.3643C10.8488 18.3443 10.9088 18.3243 10.9688 18.3243H10.9788C11.1988 18.3243 11.3988 18.4643 11.4888 18.6543C11.4988 18.6643 11.4988 18.6643 11.4988 18.6743C11.5188 18.7343 11.5388 18.7943 11.5388 18.8643C11.5488 19.1643 11.3088 19.4243 11.0088 19.4243ZM20.8848 14.9093C20.7288 14.5243 20.2878 14.3383 19.9088 14.4933L12.4678 17.4833C12.0778 17.0643 11.5078 16.8143 10.9188 16.8243H10.8708L6.58784 6.24726C6.50184 6.03526 6.32284 5.87326 6.10284 5.80926L4.02184 5.19926C3.62284 5.08226 3.20784 5.31026 3.09184 5.70726C2.97584 6.10526 3.20284 6.52126 3.60084 6.63826L5.33384 7.14626L9.51084 17.4623L9.50884 17.4643C9.13884 17.8543 8.90884 18.3743 8.92884 18.9443C8.96884 20.0443 9.87884 20.9243 10.9888 20.9243H11.0488C12.1588 20.8943 13.0388 19.9743 13.0388 18.8743V18.8693L20.4678 15.8843C20.8528 15.7303 21.0388 15.2933 20.8848 14.9093Z" fill="black"/>
<path fill-rule="evenodd" clip-rule="evenodd" d="M11.519 6.1445L12.699 5.69449C13.089 5.55449 13.519 5.74449 13.669 6.13449C13.809 6.51449 13.619 6.95449 13.229 7.09449L12.059 7.54449C11.969 7.5845 11.879 7.59449 11.789 7.59449C11.489 7.59449 11.199 7.41449 11.089 7.11449C10.939 6.73449 11.129 6.29449 11.519 6.1445ZM11.629 14.2945C11.999 15.2145 12.749 15.7445 13.599 15.7445C13.869 15.7445 14.149 15.6945 14.429 15.5845L17.109 14.5445C17.679 14.3345 18.089 13.9545 18.309 13.4545C18.539 12.9345 18.539 12.3145 18.299 11.7045L15.359 4.52449C14.889 3.31449 13.749 2.78449 12.569 3.23449L9.88897 4.27449C9.31897 4.48449 8.90897 4.86449 8.68897 5.36449C8.45897 5.87449 8.45897 6.4945 8.69897 7.1045L11.629 14.2945Z" fill="black"/>
</svg>