<svg width="24" height="24" viewBox="0 0 24 24" fill="none" xmlns="http://www.w3.org/2000/svg">
<path fill-rule="evenodd" clip-rule="evenodd" d="M16.4414 12.1098H15.1154L13.9914 14.2568C13.8624 14.5048 13.6064 14.6598 13.3274 14.6598C13.0484 14.6598 12.7924 14.5058 12.6634 14.2578L10.6574 10.4328L9.98743 11.7088C9.85743 11.9558 9.60243 12.1098 9.32343 12.1098H7.54443C7.13043 12.1098 6.79443 11.7738 6.79443 11.3598C6.79443 10.9458 7.13043 10.6098 7.54443 10.6098H8.87043L9.99443 8.47085C10.1244 8.22385 10.3794 8.06985 10.6584 8.06985C10.9374 8.06985 11.1924 8.22485 11.3224 8.47085L13.3264 12.2938L13.9974 11.0118C14.1264 10.7648 14.3824 10.6098 14.6614 10.6098H16.4414C16.8554 10.6098 17.1914 10.9458 17.1914 11.3598C17.1914 11.7738 16.8554 12.1098 16.4414 12.1098ZM20.9854 6.97585C20.3044 5.29585 18.9914 4.06985 17.2884 3.52285C16.3624 3.22285 15.3574 3.15285 14.3794 3.31685C13.4854 3.46585 12.6764 4.00185 11.9964 4.49885C11.3404 4.02185 10.5104 3.47685 9.61443 3.32685C8.64943 3.16585 7.64443 3.23185 6.70643 3.52385C2.97643 4.73085 1.82743 8.81285 2.87043 12.0578C4.49343 17.2688 11.4894 20.5838 11.7864 20.7218C11.8534 20.7538 11.9254 20.7688 11.9974 20.7688C12.0694 20.7688 12.1414 20.7538 12.2084 20.7218C12.5014 20.5868 19.3924 17.3318 21.1144 12.0628C21.6654 10.3468 21.6194 8.54185 20.9854 6.97585Z" fill="black"/>
</svg>