<svg width="24" height="24" viewBox="0 0 24 24" fill="none" xmlns="http://www.w3.org/2000/svg">
<path d="M17.8465 15.435C18.6305 15.427 19.7205 15.424 20.6445 15.427C21.1185 15.428 21.3585 16 21.0305 16.344C20.5064 16.8937 19.7996 17.6363 19.0695 18.4034L18.7805 18.707C18.4759 19.0269 18.171 19.3473 17.8769 19.6564C17.3665 20.1927 16.8888 20.6946 16.5025 21.1C16.1655 21.453 15.5775 21.21 15.5775 20.721V17.726C15.5775 16.47 16.6025 15.435 17.8465 15.435Z" fill="black"/>
<path d="M10.7732 12.8395H9.40519V11.5795C9.40519 11.1655 9.06919 10.8295 8.65519 10.8295H7.39819V9.45949H8.65519C9.06919 9.45949 9.40519 9.12349 9.40519 8.70949V7.44849H10.7732V8.70949C10.7732 9.12349 11.1092 9.45949 11.5232 9.45949H12.7802V10.8295H11.5232C11.1092 10.8295 10.7732 11.1655 10.7732 11.5795V12.8395Z" fill="black"/>
<path fill-rule="evenodd" clip-rule="evenodd" d="M21.6555 13.264C21.6555 13.548 21.4305 13.776 21.1495 13.776H17.6965C15.6385 13.787 13.9405 15.491 13.9405 17.57V21.227C13.9405 21.511 13.7155 21.75 13.4225 21.75H7.41648C4.61648 21.75 2.34448 19.444 2.34448 16.627V7.6C2.34448 4.647 4.72848 2.25 7.65248 2.25H16.5945C19.3945 2.25 21.6555 4.533 21.6555 7.35V13.264ZM9.17619 14.3395H11.0022C11.7032 14.3395 12.2732 13.7655 12.2732 13.0595V12.3295H13.0092C13.7102 12.3295 14.2802 11.7595 14.2802 11.0595V9.22949C14.2802 8.52849 13.7102 7.95949 13.0092 7.95949H12.2732V7.22949C12.2732 6.52349 11.7032 5.94849 11.0022 5.94849H9.17619C8.47519 5.94849 7.90519 6.52349 7.90519 7.22949V7.95949H7.16919C6.46819 7.95949 5.89819 8.52849 5.89819 9.22949V11.0595C5.89819 11.7595 6.46819 12.3295 7.16919 12.3295H7.90519V13.0595C7.90519 13.7655 8.47519 14.3395 9.17619 14.3395Z" fill="black"/>
</svg>