<svg width="24" height="24" viewBox="0 0 24 24" fill="none" xmlns="http://www.w3.org/2000/svg">
<path d="M8.61084 6.13359H15.3878C15.6648 6.13359 15.8878 5.90959 15.8878 5.63359V3.74859C15.8878 2.88559 15.1848 2.18359 14.3198 2.18359H9.67784C8.81384 2.18359 8.11084 2.88559 8.11084 3.74859V5.63359C8.11084 5.90959 8.33484 6.13359 8.61084 6.13359Z" fill="black"/>
<path fill-rule="evenodd" clip-rule="evenodd" d="M17.5099 8.8172L15.9099 7.2672C15.8099 7.1772 15.6899 7.1272 15.5599 7.1272H8.43995C8.30995 7.1272 8.17995 7.1772 8.08995 7.2672L6.48995 8.8172C5.88995 9.3972 5.56995 10.1772 5.56995 10.9972V18.7772C5.56995 20.4572 6.92995 21.8172 8.59995 21.8172H15.3999C17.0699 21.8172 18.4299 20.4572 18.4299 18.7772V10.9972C18.4299 10.1772 18.0999 9.3972 17.5099 8.8172ZM8.55005 16.2972C8.55005 16.7572 8.92005 17.1272 9.38005 17.1272H14.61C15.07 17.1272 15.45 16.7572 15.45 16.2972V14.1872C15.45 13.7272 15.07 13.3572 14.62 13.3572H9.38005C8.92005 13.3572 8.55005 13.7272 8.55005 14.1872V16.2972Z" fill="black"/>
</svg>