<svg width="24" height="24" viewBox="0 0 24 24" fill="none" xmlns="http://www.w3.org/2000/svg">
<path fill-rule="evenodd" clip-rule="evenodd" d="M18.7307 13.7012C18.0297 13.7012 17.4597 13.1312 17.4597 12.4302C17.4597 11.7302 18.0297 11.1612 18.7307 11.1612C19.4307 11.1612 20.0007 11.7302 20.0007 12.4302C20.0007 13.1312 19.4307 13.7012 18.7307 13.7012ZM22.0007 12.4302C22.0007 10.6282 20.5337 9.16123 18.7307 9.16123C16.9267 9.16123 15.4597 10.6282 15.4597 12.4302C15.4597 13.8612 16.3887 15.0672 17.6707 15.5102C17.3857 17.5612 15.6377 19.1512 13.5077 19.1512C11.1797 19.1512 9.28673 17.2582 9.28673 14.9302V14.6782C10.7707 14.3772 12.1217 13.5292 13.0857 12.2502C14.2287 10.7342 14.6357 8.85023 14.2007 7.07623C14.0287 6.39723 13.7527 5.78723 13.4877 5.19723C13.3897 4.98123 13.2927 4.76423 13.2027 4.55123C13.0407 4.15623 12.8717 3.83223 12.7017 3.50823L12.6537 3.41723C12.3977 2.92923 11.7947 2.73723 11.3037 2.99523C10.8147 3.25123 10.6257 3.85523 10.8817 4.34523L10.9297 4.43723C11.0737 4.70923 11.2167 4.98023 11.3547 5.31623C11.4547 5.55423 11.5587 5.78723 11.6647 6.01923C11.9057 6.55423 12.1327 7.05823 12.2597 7.55923C12.5487 8.74123 12.2687 10.0122 11.4897 11.0462C10.6957 12.0982 9.48573 12.7552 8.25173 12.8022C8.21873 12.8032 8.18473 12.8052 8.15173 12.8102C6.92173 12.7712 5.71373 12.1282 4.91073 11.0832C4.10873 10.0422 3.81873 8.75823 4.11273 7.55523C4.22773 7.07923 4.44073 6.59923 4.66673 6.09323C4.78373 5.83123 4.89973 5.56823 5.00273 5.30923C5.12273 5.01823 5.25273 4.77623 5.37673 4.54523L5.49973 4.31223C5.75373 3.82223 5.56473 3.21923 5.07473 2.96423C4.58473 2.70623 3.97973 2.89923 3.72573 3.38823L3.61273 3.60223C3.45973 3.88923 3.29873 4.19123 3.14873 4.56023C3.05173 4.80323 2.94573 5.04223 2.83873 5.28023C2.58673 5.84723 2.32673 6.43223 2.16973 7.08323C1.72973 8.87423 2.15173 10.7762 3.32473 12.3032C4.31573 13.5912 5.74873 14.4502 7.28673 14.7172V14.9302C7.28673 18.3602 10.0777 21.1512 13.5077 21.1512C16.7337 21.1512 19.3927 18.6842 19.6987 15.5382C21.0277 15.1222 22.0007 13.8952 22.0007 12.4302Z" fill="black"/>
</svg>