<svg width="24" height="24" viewBox="0 0 24 24" fill="none" xmlns="http://www.w3.org/2000/svg">
<path fill-rule="evenodd" clip-rule="evenodd" d="M18.5325 20.1506C17.5865 20.1506 16.8155 19.3796 16.8155 18.4296C16.8155 17.4866 17.5865 16.7196 18.5325 16.7196C19.4795 16.7196 20.2505 17.4866 20.2505 18.4296C20.2505 19.3796 19.4795 20.1506 18.5325 20.1506ZM7.74251 20.1506C5.54051 20.1506 3.74951 18.3606 3.74951 16.1606C3.74951 13.9606 5.54051 12.1706 7.74251 12.1706C9.94351 12.1706 11.7345 13.9606 11.7345 16.1606C11.7345 18.3606 9.94351 20.1506 7.74251 20.1506ZM19.2175 15.2966L18.6055 9.36661C18.4695 8.28561 17.5485 7.46961 16.4645 7.46961L7.44151 7.46061L7.46151 3.10261C7.46251 2.90361 7.38351 2.71261 7.24251 2.57061C7.10151 2.42861 6.91051 2.34961 6.71151 2.34961H4.64951C4.23551 2.34961 3.89951 2.68561 3.89951 3.09961C3.89951 3.51361 4.23551 3.84961 4.64951 3.84961H5.95851L5.92651 10.9846C3.78851 11.7366 2.24951 13.7696 2.24951 16.1606C2.24951 19.1876 4.71351 21.6506 7.74251 21.6506C10.7705 21.6506 13.2345 19.1876 13.2345 16.1606C13.2345 15.3346 13.0455 14.5536 12.7175 13.8496H17.5595L17.7135 15.3386C16.3375 15.7026 15.3155 16.9446 15.3155 18.4296C15.3155 20.2066 16.7595 21.6506 18.5325 21.6506C20.3065 21.6506 21.7505 20.2066 21.7505 18.4296C21.7505 16.8956 20.6635 15.6116 19.2175 15.2966Z" fill="black"/>
</svg>