<svg width="25" height="24" viewBox="0 0 25 24" fill="none" xmlns="http://www.w3.org/2000/svg">
<path opacity="0.4" fill-rule="evenodd" clip-rule="evenodd" d="M19.4543 7.92109C19.4443 6.45109 18.3543 5.16109 16.9243 4.91109L12.5243 4.87109C11.2243 4.87109 10.0843 5.34109 9.15427 6.27109C7.39427 8.03109 5.63427 9.79109 3.87427 11.5611C2.63427 12.7911 2.62427 14.7211 3.85427 15.9511C5.34427 17.4711 6.85427 18.9711 8.36427 20.4711C8.97427 21.0811 9.76427 21.3811 10.5443 21.3811C11.3443 21.3811 12.1443 21.0711 12.7643 20.4511L13.4643 19.7511C15.0143 18.2111 16.5543 16.6611 18.0943 15.1111C18.8743 14.3311 19.3243 13.3911 19.4243 12.3111L19.4543 7.92109Z" fill="black"/>
<path d="M20.9598 9.09109C20.4998 9.54109 19.9498 9.87109 19.3498 10.0411L19.3398 8.43109C19.5398 8.33109 19.7298 8.19109 19.8998 8.03109C20.7898 7.13109 20.7898 5.66109 19.8998 4.76109C19.0298 3.89109 17.4998 3.89109 16.6198 4.76109C16.5798 4.80109 16.5398 4.84109 16.4998 4.89109C16.1898 4.88109 15.6498 4.87109 14.7698 4.87109C14.7698 4.87109 14.7698 4.87109 14.7698 4.87109C14.9498 4.44109 15.2198 4.05109 15.5598 3.70109C16.9998 2.26109 19.5198 2.26109 20.9598 3.70109C22.4298 5.19109 22.4298 7.61109 20.9598 9.09109Z" fill="black"/>
<path d="M14.7698 4.87109C14.7598 4.89109 14.7523 4.91109 14.7448 4.93109C14.7373 4.95109 14.7298 4.97109 14.7198 4.99109C14.1498 6.40109 14.4798 8.01109 15.5598 9.09109C15.8598 9.39109 16.3298 9.39109 16.6198 9.09109C16.9198 8.80109 16.9198 8.32109 16.6198 8.03109C15.9698 7.38109 15.7698 6.40109 16.1198 5.54109C16.2098 5.30109 16.3398 5.08109 16.4998 4.89109L14.7698 4.87109Z" fill="black"/>
<path d="M10.7243 16.5673C10.9143 16.5673 11.1143 16.4873 11.2543 16.3473C11.5543 16.0473 11.5543 15.5773 11.2543 15.2873L9.03434 13.0573C8.74434 12.7673 8.26434 12.7673 7.97434 13.0573C7.68434 13.3573 7.68434 13.8273 7.97434 14.1173L10.1943 16.3473C10.3443 16.4873 10.5343 16.5673 10.7243 16.5673Z" fill="black"/>
</svg>