<svg width="25" height="24" viewBox="0 0 25 24" fill="none" xmlns="http://www.w3.org/2000/svg">
<g opacity="0.4">
<path fill-rule="evenodd" clip-rule="evenodd" d="M20.1506 5.203C19.7916 3.963 18.8366 3.009 17.5946 2.649C17.0826 2.502 16.5016 2.499 15.3636 2.504C15.0996 2.505 14.9636 2.511 14.8766 2.528C14.5216 2.598 14.3946 2.675 14.1636 2.96C14.0936 3.047 14.0246 3.179 13.7936 3.614L13.7426 3.71C13.4956 4.179 13.0316 4.459 12.4626 4.459H12.4616C11.9646 4.442 11.5256 4.171 11.2846 3.734C10.9726 3.161 10.8986 3.03 10.8256 2.94C10.5906 2.658 10.4786 2.591 10.1186 2.522C10.0346 2.506 9.89164 2.5 9.60364 2.5C8.47964 2.5 7.91464 2.5 7.40464 2.646C6.16364 3.005 5.20864 3.96 4.85064 5.201C4.70264 5.71 4.70264 6.275 4.70264 7.401V16.594C4.70264 17.724 4.70264 18.291 4.85164 18.802C5.20964 20.039 6.16264 20.992 7.40164 21.351C7.91264 21.5 8.46364 21.494 9.61064 21.499C9.89264 21.499 10.0336 21.493 10.1256 21.476C10.4816 21.406 10.6086 21.329 10.8386 21.043C10.9096 20.955 10.9796 20.825 11.2606 20.29C11.5076 19.82 11.9726 19.539 12.5036 19.539C13.0326 19.539 13.4946 19.819 13.7406 20.291L13.8026 20.408C14.0256 20.83 14.0926 20.957 14.1636 21.046C14.3926 21.329 14.5196 21.405 14.8736 21.476C14.9916 21.5 15.1166 21.5 15.3916 21.5C16.5216 21.5 17.0886 21.5 17.6016 21.352C18.8376 20.992 19.7906 20.039 20.1506 18.803C20.2976 18.292 20.2976 17.725 20.2976 16.594V7.407C20.2976 6.279 20.2976 5.712 20.1506 5.203Z" fill="black"/>
<path fill-rule="evenodd" clip-rule="evenodd" d="M20.1506 5.203C19.7916 3.963 18.8366 3.009 17.5946 2.649C17.0826 2.502 16.5016 2.499 15.3636 2.504C15.0996 2.505 14.9636 2.511 14.8766 2.528C14.5216 2.598 14.3946 2.675 14.1636 2.96C14.0936 3.047 14.0246 3.179 13.7936 3.614L13.7426 3.71C13.4956 4.179 13.0316 4.459 12.4626 4.459H12.4616C11.9646 4.442 11.5256 4.171 11.2846 3.734C10.9726 3.161 10.8986 3.03 10.8256 2.94C10.5906 2.658 10.4786 2.591 10.1186 2.522C10.0346 2.506 9.89164 2.5 9.60364 2.5C8.47964 2.5 7.91464 2.5 7.40464 2.646C6.16364 3.005 5.20864 3.96 4.85064 5.201C4.70264 5.71 4.70264 6.275 4.70264 7.401V16.594C4.70264 17.724 4.70264 18.291 4.85164 18.802C5.20964 20.039 6.16264 20.992 7.40164 21.351C7.91264 21.5 8.46364 21.494 9.61064 21.499C9.89264 21.499 10.0336 21.493 10.1256 21.476C10.4816 21.406 10.6086 21.329 10.8386 21.043C10.9096 20.955 10.9796 20.825 11.2606 20.29C11.5076 19.82 11.9726 19.539 12.5036 19.539C13.0326 19.539 13.4946 19.819 13.7406 20.291L13.8026 20.408C14.0256 20.83 14.0926 20.957 14.1636 21.046C14.3926 21.329 14.5196 21.405 14.8736 21.476C14.9916 21.5 15.1166 21.5 15.3916 21.5C16.5216 21.5 17.0886 21.5 17.6016 21.352C18.8376 20.992 19.7906 20.039 20.1506 18.803C20.2976 18.292 20.2976 17.725 20.2976 16.594V7.407C20.2976 6.279 20.2976 5.712 20.1506 5.203Z" fill="black"/>
</g>
<path fill-rule="evenodd" clip-rule="evenodd" d="M14.4175 10.6562H10.5835C10.1695 10.6562 9.8335 10.3203 9.8335 9.90625C9.8335 9.49225 10.1695 9.15625 10.5835 9.15625H14.4175C14.8315 9.15625 15.1675 9.49225 15.1675 9.90625C15.1675 10.3203 14.8315 10.6562 14.4175 10.6562ZM14.4175 14.8403H10.5835C10.1695 14.8403 9.8335 14.5043 9.8335 14.0903C9.8335 13.6762 10.1695 13.3403 10.5835 13.3403H14.4175C14.8315 13.3403 15.1675 13.6762 15.1675 14.0903C15.1675 14.5043 14.8315 14.8403 14.4175 14.8403Z" fill="black"/>
<path fill-rule="evenodd" clip-rule="evenodd" d="M14.4175 10.6562H10.5835C10.1695 10.6562 9.8335 10.3203 9.8335 9.90625C9.8335 9.49225 10.1695 9.15625 10.5835 9.15625H14.4175C14.8315 9.15625 15.1675 9.49225 15.1675 9.90625C15.1675 10.3203 14.8315 10.6562 14.4175 10.6562ZM14.4175 14.8403H10.5835C10.1695 14.8403 9.8335 14.5043 9.8335 14.0903C9.8335 13.6762 10.1695 13.3403 10.5835 13.3403H14.4175C14.8315 13.3403 15.1675 13.6762 15.1675 14.0903C15.1675 14.5043 14.8315 14.8403 14.4175 14.8403Z" fill="black"/>
</svg>