<svg width="25" height="24" viewBox="0 0 25 24" fill="none" xmlns="http://www.w3.org/2000/svg">
<g opacity="0.4">
<path fill-rule="evenodd" clip-rule="evenodd" d="M10.6591 9.25012H9.51514C9.10114 9.25012 8.76514 8.91412 8.76514 8.50012C8.76514 8.08612 9.10114 7.75012 9.51514 7.75012H10.6591C11.0731 7.75012 11.4091 8.08612 11.4091 8.50012C11.4091 8.91412 11.0731 9.25012 10.6591 9.25012ZM10.6591 12.7501H7.47714C7.06314 12.7501 6.72714 12.4141 6.72714 12.0001C6.72714 11.5861 7.06314 11.2501 7.47714 11.2501H10.6591C11.0731 11.2501 11.4091 11.5861 11.4091 12.0001C11.4091 12.4141 11.0731 12.7501 10.6591 12.7501ZM10.6591 16.2501C10.2451 16.2501 9.90414 15.9141 9.90414 15.5001C9.90414 15.0861 10.2351 14.7501 10.6491 14.7501H10.6591C11.0731 14.7501 11.4091 15.0861 11.4091 15.5001C11.4091 15.9141 11.0731 16.2501 10.6591 16.2501ZM8.61114 16.2501H7.46714C7.05314 16.2501 6.71714 15.9141 6.71714 15.5001C6.71714 15.0861 7.05314 14.7501 7.46714 14.7501H8.61114C9.02514 14.7501 9.36114 15.0861 9.36114 15.5001C9.36114 15.9141 9.02514 16.2501 8.61114 16.2501ZM7.46714 7.75012C7.88114 7.75012 8.22214 8.08612 8.22214 8.50012C8.22214 8.91412 7.89114 9.25012 7.47714 9.25012H7.46714C7.05314 9.25012 6.71714 8.91412 6.71714 8.50012C6.71714 8.08612 7.05314 7.75012 7.46714 7.75012ZM14.0211 6.02113C14.1971 5.87113 14.2741 5.81113 14.3251 5.75013C14.5091 5.52713 14.5091 5.20113 14.3231 4.97613C14.2721 4.91413 14.1941 4.85513 14.0471 4.72913L13.1351 3.95312H8.22314C7.06914 3.95312 6.48914 3.95312 5.94414 4.11113C4.62514 4.49413 3.60914 5.51013 3.22414 6.83113C3.06714 7.37512 3.06714 7.95513 3.06714 9.10813C3.06714 9.42413 3.07714 9.58212 3.09514 9.67312C3.17814 10.0901 3.28514 10.2671 3.61214 10.5291C3.72514 10.6211 3.86614 10.6951 4.41114 10.9811C4.79814 11.1831 5.02814 11.5631 5.02814 11.9981C5.02814 12.4331 4.79714 12.8151 4.40914 13.0191C3.85814 13.3101 3.72414 13.3811 3.61514 13.4701C3.28414 13.7361 3.17714 13.9131 3.09414 14.3331C3.07714 14.4251 3.06814 14.5801 3.06814 14.8911C3.06714 16.0441 3.06714 16.6231 3.22614 17.1691C3.60814 18.4891 4.62514 19.5061 5.94614 19.8901C6.49114 20.0471 7.07014 20.0471 8.22314 20.0471H13.1351L14.0361 19.2811C14.1961 19.1431 14.2721 19.0841 14.3231 19.0241C14.5091 18.8001 14.5091 18.4731 14.3231 18.2501C14.2711 18.1871 14.1951 18.1281 14.0531 18.0061C13.7981 17.7891 13.6821 17.6841 13.6001 17.5851C13.0421 16.9141 13.0411 15.9361 13.6011 15.2621C13.6821 15.1651 13.7941 15.0631 14.0211 14.8681C14.1901 14.7251 14.2711 14.6611 14.3251 14.5981C14.5091 14.3751 14.5091 14.0491 14.3231 13.8251C14.2711 13.7631 14.1901 13.7001 14.0351 13.5671C13.7941 13.3621 13.6821 13.2591 13.6031 13.1651C13.0421 12.4891 13.0421 11.5111 13.6011 10.8371C13.6821 10.7411 13.7941 10.6381 14.0211 10.4441C14.1901 10.3001 14.2711 10.2371 14.3251 10.1741C14.5091 9.95113 14.5091 9.62512 14.3231 9.40013C14.2711 9.33913 14.1901 9.27513 14.0351 9.14313C13.7941 8.93713 13.6821 8.83512 13.6031 8.74013C13.0411 8.06413 13.0421 7.08612 13.6021 6.41412C13.6821 6.31813 13.7941 6.21513 14.0211 6.02113Z" fill="black"/>
<path fill-rule="evenodd" clip-rule="evenodd" d="M10.6591 9.25012H9.51514C9.10114 9.25012 8.76514 8.91412 8.76514 8.50012C8.76514 8.08612 9.10114 7.75012 9.51514 7.75012H10.6591C11.0731 7.75012 11.4091 8.08612 11.4091 8.50012C11.4091 8.91412 11.0731 9.25012 10.6591 9.25012ZM10.6591 12.7501H7.47714C7.06314 12.7501 6.72714 12.4141 6.72714 12.0001C6.72714 11.5861 7.06314 11.2501 7.47714 11.2501H10.6591C11.0731 11.2501 11.4091 11.5861 11.4091 12.0001C11.4091 12.4141 11.0731 12.7501 10.6591 12.7501ZM10.6591 16.2501C10.2451 16.2501 9.90414 15.9141 9.90414 15.5001C9.90414 15.0861 10.2351 14.7501 10.6491 14.7501H10.6591C11.0731 14.7501 11.4091 15.0861 11.4091 15.5001C11.4091 15.9141 11.0731 16.2501 10.6591 16.2501ZM8.61114 16.2501H7.46714C7.05314 16.2501 6.71714 15.9141 6.71714 15.5001C6.71714 15.0861 7.05314 14.7501 7.46714 14.7501H8.61114C9.02514 14.7501 9.36114 15.0861 9.36114 15.5001C9.36114 15.9141 9.02514 16.2501 8.61114 16.2501ZM7.46714 7.75012C7.88114 7.75012 8.22214 8.08612 8.22214 8.50012C8.22214 8.91412 7.89114 9.25012 7.47714 9.25012H7.46714C7.05314 9.25012 6.71714 8.91412 6.71714 8.50012C6.71714 8.08612 7.05314 7.75012 7.46714 7.75012ZM14.0211 6.02113C14.1971 5.87113 14.2741 5.81113 14.3251 5.75013C14.5091 5.52713 14.5091 5.20113 14.3231 4.97613C14.2721 4.91413 14.1941 4.85513 14.0471 4.72913L13.1351 3.95312H8.22314C7.06914 3.95312 6.48914 3.95312 5.94414 4.11113C4.62514 4.49413 3.60914 5.51013 3.22414 6.83113C3.06714 7.37512 3.06714 7.95513 3.06714 9.10813C3.06714 9.42413 3.07714 9.58212 3.09514 9.67312C3.17814 10.0901 3.28514 10.2671 3.61214 10.5291C3.72514 10.6211 3.86614 10.6951 4.41114 10.9811C4.79814 11.1831 5.02814 11.5631 5.02814 11.9981C5.02814 12.4331 4.79714 12.8151 4.40914 13.0191C3.85814 13.3101 3.72414 13.3811 3.61514 13.4701C3.28414 13.7361 3.17714 13.9131 3.09414 14.3331C3.07714 14.4251 3.06814 14.5801 3.06814 14.8911C3.06714 16.0441 3.06714 16.6231 3.22614 17.1691C3.60814 18.4891 4.62514 19.5061 5.94614 19.8901C6.49114 20.0471 7.07014 20.0471 8.22314 20.0471H13.1351L14.0361 19.2811C14.1961 19.1431 14.2721 19.0841 14.3231 19.0241C14.5091 18.8001 14.5091 18.4731 14.3231 18.2501C14.2711 18.1871 14.1951 18.1281 14.0531 18.0061C13.7981 17.7891 13.6821 17.6841 13.6001 17.5851C13.0421 16.9141 13.0411 15.9361 13.6011 15.2621C13.6821 15.1651 13.7941 15.0631 14.0211 14.8681C14.1901 14.7251 14.2711 14.6611 14.3251 14.5981C14.5091 14.3751 14.5091 14.0491 14.3231 13.8251C14.2711 13.7631 14.1901 13.7001 14.0351 13.5671C13.7941 13.3621 13.6821 13.2591 13.6031 13.1651C13.0421 12.4891 13.0421 11.5111 13.6011 10.8371C13.6821 10.7411 13.7941 10.6381 14.0211 10.4441C14.1901 10.3001 14.2711 10.2371 14.3251 10.1741C14.5091 9.95113 14.5091 9.62512 14.3231 9.40013C14.2711 9.33913 14.1901 9.27513 14.0351 9.14313C13.7941 8.93713 13.6821 8.83512 13.6031 8.74013C13.0411 8.06413 13.0421 7.08612 13.6021 6.41412C13.6821 6.31813 13.7941 6.21513 14.0211 6.02113Z" fill="black"/>
</g>
<path fill-rule="evenodd" clip-rule="evenodd" d="M10.659 9.25H9.51504C9.10104 9.25 8.76504 8.914 8.76504 8.5C8.76504 8.086 9.10104 7.75 9.51504 7.75H10.659C11.073 7.75 11.409 8.086 11.409 8.5C11.409 8.914 11.073 9.25 10.659 9.25ZM10.659 12.75H7.47704C7.06304 12.75 6.72704 12.414 6.72704 12C6.72704 11.586 7.06304 11.25 7.47704 11.25H10.659C11.073 11.25 11.409 11.586 11.409 12C11.409 12.414 11.073 12.75 10.659 12.75ZM10.659 16.25C10.245 16.25 9.90404 15.914 9.90404 15.5C9.90404 15.086 10.235 14.75 10.649 14.75H10.659C11.073 14.75 11.409 15.086 11.409 15.5C11.409 15.914 11.073 16.25 10.659 16.25ZM8.61104 16.25H7.46704C7.05304 16.25 6.71704 15.914 6.71704 15.5C6.71704 15.086 7.05304 14.75 7.46704 14.75H8.61104C9.02504 14.75 9.36104 15.086 9.36104 15.5C9.36104 15.914 9.02504 16.25 8.61104 16.25ZM7.46704 7.75C7.88104 7.75 8.22204 8.086 8.22204 8.5C8.22204 8.914 7.89104 9.25 7.47704 9.25H7.46704C7.05304 9.25 6.71704 8.914 6.71704 8.5C6.71704 8.086 7.05304 7.75 7.46704 7.75Z" fill="black"/>
<path fill-rule="evenodd" clip-rule="evenodd" d="M10.659 9.25H9.51504C9.10104 9.25 8.76504 8.914 8.76504 8.5C8.76504 8.086 9.10104 7.75 9.51504 7.75H10.659C11.073 7.75 11.409 8.086 11.409 8.5C11.409 8.914 11.073 9.25 10.659 9.25ZM10.659 12.75H7.47704C7.06304 12.75 6.72704 12.414 6.72704 12C6.72704 11.586 7.06304 11.25 7.47704 11.25H10.659C11.073 11.25 11.409 11.586 11.409 12C11.409 12.414 11.073 12.75 10.659 12.75ZM10.659 16.25C10.245 16.25 9.90404 15.914 9.90404 15.5C9.90404 15.086 10.235 14.75 10.649 14.75H10.659C11.073 14.75 11.409 15.086 11.409 15.5C11.409 15.914 11.073 16.25 10.659 16.25ZM8.61104 16.25H7.46704C7.05304 16.25 6.71704 15.914 6.71704 15.5C6.71704 15.086 7.05304 14.75 7.46704 14.75H8.61104C9.02504 14.75 9.36104 15.086 9.36104 15.5C9.36104 15.914 9.02504 16.25 8.61104 16.25ZM7.46704 7.75C7.88104 7.75 8.22204 8.086 8.22204 8.5C8.22204 8.914 7.89104 9.25 7.47704 9.25H7.46704C7.05304 9.25 6.71704 8.914 6.71704 8.5C6.71704 8.086 7.05304 7.75 7.46704 7.75Z" fill="black"/>
<path fill-rule="evenodd" clip-rule="evenodd" d="M16.4571 19.0667C16.4771 19.0267 16.4971 18.9867 16.5371 18.9567C16.5271 18.9767 16.5171 18.9967 16.4971 19.0167C16.4871 19.0367 16.4671 19.0467 16.4571 19.0667Z" fill="black"/>
<path fill-rule="evenodd" clip-rule="evenodd" d="M16.4971 4.97742C16.5171 4.99742 16.5271 5.01742 16.5371 5.03742C16.4971 5.00742 16.4771 4.96742 16.4571 4.92742C16.4671 4.94742 16.4871 4.95742 16.4971 4.97742Z" fill="black"/>
<path fill-rule="evenodd" clip-rule="evenodd" d="M21.7779 6.74494C21.7469 6.63194 21.7059 6.51794 21.6539 6.41494C21.6649 6.40494 21.6539 6.39394 21.6539 6.38394C21.2109 5.28094 20.3029 4.45594 19.1479 4.11494C18.6219 3.96094 18.5769 3.96094 17.8999 3.96094H15.7189C15.7189 3.96094 16.5329 4.84694 16.5439 4.85794C16.6779 5.07394 16.6569 5.36294 16.4919 5.55894C16.4299 5.62094 16.3579 5.68294 16.1719 5.83694C15.9449 6.04394 15.8219 6.14694 15.7389 6.23994C15.1619 6.94094 15.1619 7.94094 15.7389 8.64294C15.8219 8.74594 15.9449 8.84894 16.1929 9.05494C16.3479 9.19894 16.4299 9.26094 16.4819 9.32294C16.6779 9.55994 16.6779 9.88994 16.4919 10.1169C16.4299 10.1889 16.3479 10.2509 16.1719 10.3959C15.9449 10.6019 15.8219 10.7049 15.7389 10.8079C15.1619 11.4989 15.1619 12.5099 15.7389 13.2109C15.8219 13.3039 15.9449 13.4069 16.1929 13.6239C16.3479 13.7579 16.4299 13.8199 16.4819 13.8919C16.6779 14.1189 16.6779 14.4589 16.4919 14.6859C16.4299 14.7479 16.3479 14.8199 16.1719 14.9639C15.9449 15.1599 15.8219 15.2739 15.7389 15.3659C15.1619 16.0679 15.1619 17.0679 15.7389 17.7689C15.8219 17.8619 15.9449 17.9759 16.2029 18.2019C16.3579 18.3259 16.4299 18.3879 16.4819 18.4499C16.6569 18.6559 16.6779 18.9659 16.5229 19.1819C16.5129 19.2029 15.7189 20.0479 15.7189 20.0479H17.8999C18.5939 20.0479 18.6219 20.0479 19.1479 19.8939C20.3029 19.5529 21.2109 18.7279 21.6539 17.6249C21.6539 17.6149 21.6649 17.6039 21.6539 17.5939C21.7059 17.4909 21.7469 17.3769 21.7779 17.2639C21.9329 16.7379 21.9329 16.1499 21.9329 14.9849V9.02394C21.9329 7.85894 21.9329 7.27094 21.7779 6.74494Z" fill="black"/>
<path fill-rule="evenodd" clip-rule="evenodd" d="M16.4571 19.0667C16.4771 19.0267 16.4971 18.9867 16.5371 18.9567C16.5271 18.9767 16.5171 18.9967 16.4971 19.0167C16.4871 19.0367 16.4671 19.0467 16.4571 19.0667Z" fill="black"/>
<path fill-rule="evenodd" clip-rule="evenodd" d="M16.4971 4.97742C16.5171 4.99742 16.5271 5.01742 16.5371 5.03742C16.4971 5.00742 16.4771 4.96742 16.4571 4.92742C16.4671 4.94742 16.4871 4.95742 16.4971 4.97742Z" fill="black"/>
<path fill-rule="evenodd" clip-rule="evenodd" d="M21.7779 6.74494C21.7469 6.63194 21.7059 6.51794 21.6539 6.41494C21.6649 6.40494 21.6539 6.39394 21.6539 6.38394C21.2109 5.28094 20.3029 4.45594 19.1479 4.11494C18.6219 3.96094 18.5769 3.96094 17.8999 3.96094H15.7189C15.7189 3.96094 16.5329 4.84694 16.5439 4.85794C16.6779 5.07394 16.6569 5.36294 16.4919 5.55894C16.4299 5.62094 16.3579 5.68294 16.1719 5.83694C15.9449 6.04394 15.8219 6.14694 15.7389 6.23994C15.1619 6.94094 15.1619 7.94094 15.7389 8.64294C15.8219 8.74594 15.9449 8.84894 16.1929 9.05494C16.3479 9.19894 16.4299 9.26094 16.4819 9.32294C16.6779 9.55994 16.6779 9.88994 16.4919 10.1169C16.4299 10.1889 16.3479 10.2509 16.1719 10.3959C15.9449 10.6019 15.8219 10.7049 15.7389 10.8079C15.1619 11.4989 15.1619 12.5099 15.7389 13.2109C15.8219 13.3039 15.9449 13.4069 16.1929 13.6239C16.3479 13.7579 16.4299 13.8199 16.4819 13.8919C16.6779 14.1189 16.6779 14.4589 16.4919 14.6859C16.4299 14.7479 16.3479 14.8199 16.1719 14.9639C15.9449 15.1599 15.8219 15.2739 15.7389 15.3659C15.1619 16.0679 15.1619 17.0679 15.7389 17.7689C15.8219 17.8619 15.9449 17.9759 16.2029 18.2019C16.3579 18.3259 16.4299 18.3879 16.4819 18.4499C16.6569 18.6559 16.6779 18.9659 16.5229 19.1819C16.5129 19.2029 15.7189 20.0479 15.7189 20.0479H17.8999C18.5939 20.0479 18.6219 20.0479 19.1479 19.8939C20.3029 19.5529 21.2109 18.7279 21.6539 17.6249C21.6539 17.6149 21.6649 17.6039 21.6539 17.5939C21.7059 17.4909 21.7469 17.3769 21.7779 17.2639C21.9329 16.7379 21.9329 16.1499 21.9329 14.9849V9.02394C21.9329 7.85894 21.9329 7.27094 21.7779 6.74494Z" fill="black"/>
</svg>