<svg width="25" height="24" viewBox="0 0 25 24" fill="none" xmlns="http://www.w3.org/2000/svg">
<g opacity="0.4">
<path fill-rule="evenodd" clip-rule="evenodd" d="M14.372 15.0641C12.683 15.0641 11.309 13.6891 11.309 12.0011C11.309 10.3121 12.683 8.93813 14.372 8.93813C16.061 8.93813 17.435 10.3121 17.435 12.0011C17.435 13.6891 16.061 15.0641 14.372 15.0641ZM9.329 7.43613C9.329 7.85013 8.993 8.18613 8.579 8.18613C8.165 8.18613 7.829 7.85013 7.829 7.43613V6.93613C7.829 6.52213 8.165 6.18613 8.579 6.18613C8.993 6.18613 9.329 6.52213 9.329 6.93613V7.43613ZM9.329 10.6451C9.329 11.0591 8.993 11.3951 8.579 11.3951C8.165 11.3951 7.829 11.0591 7.829 10.6451V10.1451C7.829 9.73112 8.165 9.39512 8.579 9.39512C8.993 9.39512 9.329 9.73112 9.329 10.1451V10.6451ZM9.329 13.8561C9.329 14.2701 8.993 14.6061 8.579 14.6061C8.165 14.6061 7.829 14.2701 7.829 13.8561V13.3561C7.829 12.9411 8.165 12.6061 8.579 12.6061C8.993 12.6061 9.329 12.9411 9.329 13.3561V13.8561ZM9.329 17.0641C9.329 17.4791 8.993 17.8141 8.579 17.8141C8.165 17.8141 7.829 17.4791 7.829 17.0641V16.5641C7.829 16.1501 8.165 15.8141 8.579 15.8141C8.993 15.8141 9.329 16.1501 9.329 16.5641V17.0641ZM21.544 13.6631C21.453 13.5901 21.313 13.5161 20.791 13.2411C20.32 12.9931 20.039 12.5281 20.039 11.9981C20.039 11.4691 20.319 11.0061 20.846 10.7311C21.338 10.4721 21.457 10.4091 21.547 10.3371C21.828 10.1091 21.904 9.98312 21.976 9.62512C21.994 9.53912 22 9.39613 22 9.10913C22 7.97913 22 7.41112 21.852 6.90013C21.493 5.66413 20.54 4.71113 19.303 4.35113C18.792 4.20312 18.225 4.20312 17.094 4.20312H7.907C6.778 4.20312 6.212 4.20312 5.702 4.35113C4.463 4.71012 3.509 5.66513 3.149 6.90613C3.002 7.41813 3.003 7.98312 3.004 9.13812C3.005 9.40112 3.011 9.53612 3.027 9.62612C3.1 9.98212 3.176 10.1081 3.459 10.3361C3.546 10.4061 3.67 10.4731 4.21 10.7581C4.68 11.0061 4.96 11.4701 4.959 12.0401C4.942 12.5291 4.664 12.9801 4.233 13.2161C3.669 13.5261 3.532 13.6021 3.439 13.6761C3.157 13.9121 3.091 14.0241 3.021 14.3851C3.006 14.4681 3 14.6111 3 14.8971C3 16.0221 3 16.5871 3.146 17.0961C3.505 18.3371 4.46 19.2921 5.702 19.6511C6.21 19.7981 6.775 19.7981 7.901 19.7981H17.094C18.224 19.7981 18.791 19.7981 19.303 19.6491C20.54 19.2901 21.493 18.3371 21.851 17.1011C22.001 16.5871 22 16.0211 21.999 14.8921C21.999 14.6091 21.993 14.4681 21.976 14.3751C21.904 14.0201 21.828 13.8941 21.544 13.6631Z" fill="black"/>
<path fill-rule="evenodd" clip-rule="evenodd" d="M14.372 10.4375C13.51 10.4375 12.809 11.1385 12.809 12.0005C12.809 12.8625 13.51 13.5635 14.372 13.5635C15.234 13.5635 15.935 12.8625 15.935 12.0005C15.935 11.1385 15.234 10.4375 14.372 10.4375Z" fill="black"/>
<path fill-rule="evenodd" clip-rule="evenodd" d="M14.372 15.0641C12.683 15.0641 11.309 13.6891 11.309 12.0011C11.309 10.3121 12.683 8.93813 14.372 8.93813C16.061 8.93813 17.435 10.3121 17.435 12.0011C17.435 13.6891 16.061 15.0641 14.372 15.0641ZM9.329 7.43613C9.329 7.85013 8.993 8.18613 8.579 8.18613C8.165 8.18613 7.829 7.85013 7.829 7.43613V6.93613C7.829 6.52213 8.165 6.18613 8.579 6.18613C8.993 6.18613 9.329 6.52213 9.329 6.93613V7.43613ZM9.329 10.6451C9.329 11.0591 8.993 11.3951 8.579 11.3951C8.165 11.3951 7.829 11.0591 7.829 10.6451V10.1451C7.829 9.73112 8.165 9.39512 8.579 9.39512C8.993 9.39512 9.329 9.73112 9.329 10.1451V10.6451ZM9.329 13.8561C9.329 14.2701 8.993 14.6061 8.579 14.6061C8.165 14.6061 7.829 14.2701 7.829 13.8561V13.3561C7.829 12.9411 8.165 12.6061 8.579 12.6061C8.993 12.6061 9.329 12.9411 9.329 13.3561V13.8561ZM9.329 17.0641C9.329 17.4791 8.993 17.8141 8.579 17.8141C8.165 17.8141 7.829 17.4791 7.829 17.0641V16.5641C7.829 16.1501 8.165 15.8141 8.579 15.8141C8.993 15.8141 9.329 16.1501 9.329 16.5641V17.0641ZM21.544 13.6631C21.453 13.5901 21.313 13.5161 20.791 13.2411C20.32 12.9931 20.039 12.5281 20.039 11.9981C20.039 11.4691 20.319 11.0061 20.846 10.7311C21.338 10.4721 21.457 10.4091 21.547 10.3371C21.828 10.1091 21.904 9.98312 21.976 9.62512C21.994 9.53912 22 9.39613 22 9.10913C22 7.97913 22 7.41112 21.852 6.90013C21.493 5.66413 20.54 4.71113 19.303 4.35113C18.792 4.20312 18.225 4.20312 17.094 4.20312H7.907C6.778 4.20312 6.212 4.20312 5.702 4.35113C4.463 4.71012 3.509 5.66513 3.149 6.90613C3.002 7.41813 3.003 7.98312 3.004 9.13812C3.005 9.40112 3.011 9.53612 3.027 9.62612C3.1 9.98212 3.176 10.1081 3.459 10.3361C3.546 10.4061 3.67 10.4731 4.21 10.7581C4.68 11.0061 4.96 11.4701 4.959 12.0401C4.942 12.5291 4.664 12.9801 4.233 13.2161C3.669 13.5261 3.532 13.6021 3.439 13.6761C3.157 13.9121 3.091 14.0241 3.021 14.3851C3.006 14.4681 3 14.6111 3 14.8971C3 16.0221 3 16.5871 3.146 17.0961C3.505 18.3371 4.46 19.2921 5.702 19.6511C6.21 19.7981 6.775 19.7981 7.901 19.7981H17.094C18.224 19.7981 18.791 19.7981 19.303 19.6491C20.54 19.2901 21.493 18.3371 21.851 17.1011C22.001 16.5871 22 16.0211 21.999 14.8921C21.999 14.6091 21.993 14.4681 21.976 14.3751C21.904 14.0201 21.828 13.8941 21.544 13.6631Z" fill="black"/>
<path fill-rule="evenodd" clip-rule="evenodd" d="M14.372 10.4375C13.51 10.4375 12.809 11.1385 12.809 12.0005C12.809 12.8625 13.51 13.5635 14.372 13.5635C15.234 13.5635 15.935 12.8625 15.935 12.0005C15.935 11.1385 15.234 10.4375 14.372 10.4375Z" fill="black"/>
</g>
<path fill-rule="evenodd" clip-rule="evenodd" d="M11.3091 12.0025C11.3091 13.6905 12.6831 15.0655 14.3721 15.0655C16.0611 15.0655 17.4351 13.6905 17.4351 12.0025C17.4351 10.3135 16.0611 8.9395 14.3721 8.9395C12.6831 8.9395 11.3091 10.3135 11.3091 12.0025ZM8.5791 8.1875C8.9931 8.1875 9.3291 7.8515 9.3291 7.4375V6.9375C9.3291 6.5235 8.9931 6.1875 8.5791 6.1875C8.1651 6.1875 7.8291 6.5235 7.8291 6.9375V7.4375C7.8291 7.8515 8.1651 8.1875 8.5791 8.1875ZM8.5791 11.3965C8.9931 11.3965 9.3291 11.0605 9.3291 10.6465V10.1465C9.3291 9.7325 8.9931 9.3965 8.5791 9.3965C8.1651 9.3965 7.8291 9.7325 7.8291 10.1465V10.6465C7.8291 11.0605 8.1651 11.3965 8.5791 11.3965ZM8.5791 14.6075C8.9931 14.6075 9.3291 14.2715 9.3291 13.8575V13.3575C9.3291 12.9425 8.9931 12.6075 8.5791 12.6075C8.1651 12.6075 7.8291 12.9425 7.8291 13.3575V13.8575C7.8291 14.2715 8.1651 14.6075 8.5791 14.6075ZM8.5791 17.8155C8.9931 17.8155 9.3291 17.4805 9.3291 17.0655V16.5655C9.3291 16.1515 8.9931 15.8155 8.5791 15.8155C8.1651 15.8155 7.8291 16.1515 7.8291 16.5655V17.0655C7.8291 17.4805 8.1651 17.8155 8.5791 17.8155ZM12.8091 12.0019C12.8091 11.1399 13.5101 10.4389 14.3721 10.4389C15.2341 10.4389 15.9351 11.1399 15.9351 12.0019C15.9351 12.8639 15.2341 13.5649 14.3721 13.5649C13.5101 13.5649 12.8091 12.8639 12.8091 12.0019Z" fill="black"/>
</svg>