<svg width="25" height="24" viewBox="0 0 25 24" fill="none" xmlns="http://www.w3.org/2000/svg">
<g opacity="0.4">
<path fill-rule="evenodd" clip-rule="evenodd" d="M21.5943 9.09675C21.3693 8.68875 21.0243 8.34375 20.3233 7.64275C20.1563 7.47675 20.0673 7.39575 19.9993 7.34875C19.7233 7.16575 19.5843 7.13275 19.2673 7.16775C19.1613 7.17875 19.0353 7.21775 18.5353 7.37075C18.1273 7.49975 17.7053 7.39375 17.4043 7.09275C17.1043 6.79275 17.0013 6.37075 17.1273 5.96475C17.2833 5.46575 17.3213 5.34375 17.3323 5.23975C17.3673 4.91175 17.3343 4.77475 17.1543 4.50575C17.0943 4.41375 17.0213 4.34075 16.8313 4.14975C16.1503 3.46975 15.8083 3.12775 15.4033 2.90575C14.4173 2.36575 13.2403 2.36375 12.2543 2.90575C11.8483 3.12775 11.5073 3.46975 10.8133 4.16175L4.65827 10.3168C3.97327 11.0018 3.63027 11.3457 3.40727 11.7517C2.86227 12.7408 2.86327 13.9198 3.40827 14.9088C3.63227 15.3138 3.97727 15.6588 4.68127 16.3618C4.84927 16.5288 4.93927 16.6098 5.00127 16.6498C5.27627 16.8318 5.41427 16.8658 5.73327 16.8308C5.79727 16.8248 5.98927 16.7738 6.35627 16.6608L6.46227 16.6288C6.86627 16.4998 7.28927 16.6068 7.61327 16.9298C7.88527 17.2228 7.98127 17.6257 7.86927 18.0087C7.71227 18.5448 7.67527 18.6747 7.66527 18.7808C7.63427 19.1108 7.66627 19.2327 7.84927 19.5037C7.89027 19.5658 7.97127 19.6558 8.16427 19.8498C8.84527 20.5298 9.18727 20.8697 9.59227 21.0947C10.0863 21.3678 10.6283 21.5037 11.1703 21.5037C11.7123 21.5037 12.2553 21.3678 12.7503 21.0947C13.1533 20.8707 13.4953 20.5298 14.1823 19.8428L20.3373 13.6878C21.0253 12.9998 21.3703 12.6558 21.5943 12.2467C22.1373 11.2618 22.1373 10.0838 21.5943 9.09675Z" fill="black"/>
<path fill-rule="evenodd" clip-rule="evenodd" d="M21.5943 9.09675C21.3693 8.68875 21.0243 8.34375 20.3233 7.64275C20.1563 7.47675 20.0673 7.39575 19.9993 7.34875C19.7233 7.16575 19.5843 7.13275 19.2673 7.16775C19.1613 7.17875 19.0353 7.21775 18.5353 7.37075C18.1273 7.49975 17.7053 7.39375 17.4043 7.09275C17.1043 6.79275 17.0013 6.37075 17.1273 5.96475C17.2833 5.46575 17.3213 5.34375 17.3323 5.23975C17.3673 4.91175 17.3343 4.77475 17.1543 4.50575C17.0943 4.41375 17.0213 4.34075 16.8313 4.14975C16.1503 3.46975 15.8083 3.12775 15.4033 2.90575C14.4173 2.36575 13.2403 2.36375 12.2543 2.90575C11.8483 3.12775 11.5073 3.46975 10.8133 4.16175L4.65827 10.3168C3.97327 11.0018 3.63027 11.3457 3.40727 11.7517C2.86227 12.7408 2.86327 13.9198 3.40827 14.9088C3.63227 15.3138 3.97727 15.6588 4.68127 16.3618C4.84927 16.5288 4.93927 16.6098 5.00127 16.6498C5.27627 16.8318 5.41427 16.8658 5.73327 16.8308C5.79727 16.8248 5.98927 16.7738 6.35627 16.6608L6.46227 16.6288C6.86627 16.4998 7.28927 16.6068 7.61327 16.9298C7.88527 17.2228 7.98127 17.6257 7.86927 18.0087C7.71227 18.5448 7.67527 18.6747 7.66527 18.7808C7.63427 19.1108 7.66627 19.2327 7.84927 19.5037C7.89027 19.5658 7.97127 19.6558 8.16427 19.8498C8.84527 20.5298 9.18727 20.8697 9.59227 21.0947C10.0863 21.3678 10.6283 21.5037 11.1703 21.5037C11.7123 21.5037 12.2553 21.3678 12.7503 21.0947C13.1533 20.8707 13.4953 20.5298 14.1823 19.8428L20.3373 13.6878C21.0253 12.9998 21.3703 12.6558 21.5943 12.2467C22.1373 11.2618 22.1373 10.0838 21.5943 9.09675Z" fill="black"/>
</g>
</svg>