<svg width="25" height="24" viewBox="0 0 25 24" fill="none" xmlns="http://www.w3.org/2000/svg">
<g opacity="0.4">
<path fill-rule="evenodd" clip-rule="evenodd" d="M16.367 13.4926C16.367 13.9066 16.031 14.2426 15.617 14.2426C15.203 14.2426 14.867 13.9066 14.867 13.4926V10.5386C14.867 10.1246 15.203 9.78859 15.617 9.78859C16.031 9.78859 16.367 10.1246 16.367 10.5386V13.4926ZM12.068 10.8316H9.881C9.467 10.8316 9.131 10.4956 9.131 10.0816C9.131 9.66759 9.467 9.33159 9.881 9.33159H12.068C12.482 9.33159 12.818 9.66759 12.818 10.0816C12.818 10.4956 12.482 10.8316 12.068 10.8316ZM12.068 14.6676H7.693C7.279 14.6676 6.943 14.3316 6.943 13.9176C6.943 13.5036 7.279 13.1676 7.693 13.1676H12.068C12.482 13.1676 12.818 13.5036 12.818 13.9176C12.818 14.3316 12.482 14.6676 12.068 14.6676ZM19.892 7.31659C19.813 7.31659 19.75 7.25259 19.75 7.13559C19.75 5.92159 18.762 4.93359 17.547 4.93359H16.367V7.93259C16.367 8.34659 16.031 8.68259 15.617 8.68259C15.203 8.68259 14.867 8.34659 14.867 7.93259V4.93359H7.453C6.238 4.93359 5.25 5.92159 5.25 7.17459C5.25 7.25259 5.186 7.31659 5.107 7.31659C3.945 7.31659 3 8.26259 3 9.42459V14.5776C3 15.7396 3.945 16.6846 5.107 16.6846C5.186 16.6846 5.25 16.7486 5.25 16.8276V16.8656C5.25 18.0796 6.238 19.0686 7.453 19.0686H14.867V16.0676C14.867 15.6536 15.203 15.3176 15.617 15.3176C16.031 15.3176 16.367 15.6536 16.367 16.0676V19.0686H17.547C18.762 19.0686 19.75 18.0796 19.75 16.8276C19.75 16.7486 19.813 16.6846 19.892 16.6846C21.054 16.6846 22 15.7396 22 14.5776V9.42459C22 8.26259 21.054 7.31659 19.892 7.31659Z" fill="black"/>
<path fill-rule="evenodd" clip-rule="evenodd" d="M16.367 13.4926C16.367 13.9066 16.031 14.2426 15.617 14.2426C15.203 14.2426 14.867 13.9066 14.867 13.4926V10.5386C14.867 10.1246 15.203 9.78859 15.617 9.78859C16.031 9.78859 16.367 10.1246 16.367 10.5386V13.4926ZM12.068 10.8316H9.881C9.467 10.8316 9.131 10.4956 9.131 10.0816C9.131 9.66759 9.467 9.33159 9.881 9.33159H12.068C12.482 9.33159 12.818 9.66759 12.818 10.0816C12.818 10.4956 12.482 10.8316 12.068 10.8316ZM12.068 14.6676H7.693C7.279 14.6676 6.943 14.3316 6.943 13.9176C6.943 13.5036 7.279 13.1676 7.693 13.1676H12.068C12.482 13.1676 12.818 13.5036 12.818 13.9176C12.818 14.3316 12.482 14.6676 12.068 14.6676ZM19.892 7.31659C19.813 7.31659 19.75 7.25259 19.75 7.13559C19.75 5.92159 18.762 4.93359 17.547 4.93359H16.367V7.93259C16.367 8.34659 16.031 8.68259 15.617 8.68259C15.203 8.68259 14.867 8.34659 14.867 7.93259V4.93359H7.453C6.238 4.93359 5.25 5.92159 5.25 7.17459C5.25 7.25259 5.186 7.31659 5.107 7.31659C3.945 7.31659 3 8.26259 3 9.42459V14.5776C3 15.7396 3.945 16.6846 5.107 16.6846C5.186 16.6846 5.25 16.7486 5.25 16.8276V16.8656C5.25 18.0796 6.238 19.0686 7.453 19.0686H14.867V16.0676C14.867 15.6536 15.203 15.3176 15.617 15.3176C16.031 15.3176 16.367 15.6536 16.367 16.0676V19.0686H17.547C18.762 19.0686 19.75 18.0796 19.75 16.8276C19.75 16.7486 19.813 16.6846 19.892 16.6846C21.054 16.6846 22 15.7396 22 14.5776V9.42459C22 8.26259 21.054 7.31659 19.892 7.31659Z" fill="black"/>
</g>
<path fill-rule="evenodd" clip-rule="evenodd" d="M12.0681 10.832H9.88112C9.46712 10.832 9.13112 10.496 9.13112 10.082C9.13112 9.66803 9.46712 9.33203 9.88112 9.33203H12.0681C12.4821 9.33203 12.8181 9.66803 12.8181 10.082C12.8181 10.496 12.4821 10.832 12.0681 10.832ZM12.0681 14.668H7.69311C7.27911 14.668 6.94312 14.332 6.94312 13.918C6.94312 13.504 7.27911 13.168 7.69311 13.168H12.0681C12.4821 13.168 12.8181 13.504 12.8181 13.918C12.8181 14.332 12.4821 14.668 12.0681 14.668Z" fill="black"/>
<path fill-rule="evenodd" clip-rule="evenodd" d="M12.0681 10.832H9.88112C9.46712 10.832 9.13112 10.496 9.13112 10.082C9.13112 9.66803 9.46712 9.33203 9.88112 9.33203H12.0681C12.4821 9.33203 12.8181 9.66803 12.8181 10.082C12.8181 10.496 12.4821 10.832 12.0681 10.832ZM12.0681 14.668H7.69311C7.27911 14.668 6.94312 14.332 6.94312 13.918C6.94312 13.504 7.27911 13.168 7.69311 13.168H12.0681C12.4821 13.168 12.8181 13.504 12.8181 13.918C12.8181 14.332 12.4821 14.668 12.0681 14.668Z" fill="black"/>
</svg>