<svg width="25" height="24" viewBox="0 0 25 24" fill="none" xmlns="http://www.w3.org/2000/svg">
<path fill-rule="evenodd" clip-rule="evenodd" d="M14.0171 14.8341C14.4311 14.8341 14.7671 14.4981 14.7671 14.0841V9.91612C14.7671 9.50212 14.4311 9.16612 14.0171 9.16612V8.05312C14.4311 8.05312 14.7671 7.71712 14.7671 7.30312V4.20312H17.0941C18.2251 4.20312 18.7921 4.20312 19.3031 4.35213C20.5391 4.71113 21.4921 5.66413 21.8521 6.90013C22.0001 7.41112 22.0001 7.97913 22.0001 9.10913C22.0001 9.38413 22.0001 9.50913 21.9751 9.62813C21.9061 9.98213 21.8291 10.1091 21.5461 10.3371C21.4571 10.4091 21.3341 10.4741 20.8281 10.7401C20.3201 11.0061 20.0391 11.4691 20.0391 11.9981C20.0391 12.5281 20.3201 12.9931 20.7911 13.2411C21.3331 13.5261 21.4581 13.5941 21.5451 13.6641C21.8291 13.8941 21.9061 14.0211 21.9761 14.3761C21.9931 14.4651 21.9991 14.6071 21.9991 14.8921C22.0001 16.0211 22.0001 16.5871 21.8511 17.1011C21.4931 18.3371 20.5401 19.2901 19.3031 19.6491C18.7911 19.7981 18.2241 19.7981 17.0941 19.7981H14.7671V16.6971C14.7671 16.2831 14.4311 15.9471 14.0171 15.9471V14.8341Z" fill="black"/>
<path opacity="0.4" d="M13.267 14.0841C13.267 14.4981 13.603 14.8341 14.017 14.8341V15.9471C13.603 15.9471 13.267 16.2831 13.267 16.6971V19.7981H7.901C6.775 19.7981 6.21 19.7981 5.702 19.6511C4.461 19.2921 3.505 18.3371 3.146 17.0961C3 16.5871 3 16.0221 3 14.8971C3 14.6091 3.006 14.4651 3.022 14.3821C3.091 14.0231 3.158 13.9111 3.439 13.6761C3.53 13.6031 3.665 13.5281 4.222 13.2231C4.664 12.9801 4.942 12.5291 4.959 12.0401C4.959 11.4691 4.68 11.0061 4.21 10.7581C3.701 10.4901 3.551 10.4091 3.46 10.3371C3.175 10.1071 3.098 9.98012 3.028 9.62413C3.011 9.53912 3.005 9.40312 3.004 9.13713L3.00399 9.12522C3.00299 7.97923 3.00251 7.41636 3.149 6.90613C3.508 5.66513 4.463 4.71012 5.703 4.35113C6.212 4.20312 6.779 4.20312 7.907 4.20312H13.267V7.30312C13.267 7.71712 13.603 8.05312 14.017 8.05312V9.16612C13.603 9.16612 13.267 9.50212 13.267 9.91612V14.0841Z" fill="black"/>
</svg>