<svg width="25" height="24" viewBox="0 0 25 24" fill="none" xmlns="http://www.w3.org/2000/svg">
<path opacity="0.4" fill-rule="evenodd" clip-rule="evenodd" d="M6.92054 7.41406C6.24854 7.41806 5.83154 7.43906 5.45854 7.54806C4.31954 7.87706 3.44354 8.75406 3.11554 9.89306C2.97954 10.3631 2.98054 10.8781 2.98154 11.9311C2.98254 12.1681 2.98754 12.2891 3.00254 12.3771C3.06954 12.7081 3.14554 12.8331 3.41054 13.0491C3.49454 13.1161 3.61754 13.1811 4.09754 13.4351C4.50754 13.6511 4.75154 14.0551 4.75054 14.5521C4.73654 14.9781 4.49454 15.3711 4.11854 15.5771L4.00854 15.6361C3.63454 15.8421 3.44654 15.9551 3.39254 15.9991C3.12854 16.2181 3.06254 16.3311 2.99754 16.6681C2.98354 16.7451 2.97754 16.8761 2.97754 17.1401C2.97754 18.1641 2.97754 18.6781 3.11254 19.1441C3.44154 20.2851 4.31854 21.1611 5.45654 21.4891C5.92354 21.6251 6.43754 21.6251 7.46154 21.6251H17.5335C18.5615 21.6251 19.0775 21.6251 19.5455 21.4881C20.6835 21.1571 21.5585 20.2821 21.8845 19.1491C22.0235 18.6771 22.0225 18.1621 22.0215 17.1351C22.0215 16.8741 22.0155 16.7451 21.9995 16.6601C21.9355 16.3291 21.8595 16.2031 21.5965 15.9901C21.5105 15.9201 21.3925 15.8581 20.9035 15.5991C20.4925 15.3841 20.2465 14.9781 20.2465 14.5151C20.2465 14.0541 20.4925 13.6521 20.9385 13.4181C21.3885 13.1821 21.5095 13.1191 21.5945 13.0491C21.8595 12.8331 21.9355 12.7081 21.9995 12.3781C22.0155 12.2991 22.0225 12.1671 22.0225 11.9011C22.0225 10.8731 22.0225 10.3561 21.8865 9.88806C21.5575 8.75306 20.6825 7.87806 19.5475 7.55006C19.2315 7.45706 18.8815 7.42906 18.3815 7.41906L6.92054 7.41406Z" fill="black"/>
<path d="M12.7959 4.92998L9.46595 7.41398L7.02295 7.41598L7.03401 7.40108C7.07113 7.35098 7.10809 7.3011 7.15995 7.26198L11.8929 3.73198L11.898 3.72822C12.7376 3.10374 13.1559 2.79261 13.6429 2.60898C14.8259 2.16698 16.136 2.35898 17.1419 3.11898C17.558 3.43198 17.8699 3.84998 18.4909 4.68298C18.6729 4.92598 18.7499 5.04698 18.7889 5.12798C18.9619 5.49198 18.9809 5.69498 18.8839 6.07798C18.8482 6.21211 18.7897 6.3344 18.5742 6.78517L18.5699 6.79398C18.4629 7.01698 18.4529 7.22498 18.4839 7.42098L16.9649 7.41398C16.9399 7.00098 17.0079 6.58398 17.1909 6.19998L17.2372 6.10405C17.3197 5.93314 17.3741 5.8205 17.4089 5.74398C17.3828 5.70563 17.3529 5.66576 17.3158 5.61642L17.2989 5.59398C16.7689 4.88398 16.4829 4.50098 16.2389 4.31598C15.6419 3.86598 14.8679 3.75398 14.1699 4.01298C13.8819 4.12198 13.4959 4.40898 12.7959 4.92998Z" fill="black"/>
<path fill-rule="evenodd" clip-rule="evenodd" d="M14.9013 11.6328C13.2924 11.6328 11.985 12.9405 11.985 14.5498C11.985 16.1586 13.2925 17.4662 14.9013 17.4662C16.5101 17.4662 17.8176 16.1586 17.8176 14.5498C17.8176 12.9405 16.5102 11.6328 14.9013 11.6328ZM13.485 14.5498C13.485 13.7686 14.1211 13.1328 14.9013 13.1328C15.6815 13.1328 16.3176 13.7686 16.3176 14.5498C16.3176 15.3302 15.6816 15.9662 14.9013 15.9662C14.121 15.9662 13.485 15.3302 13.485 14.5498Z" fill="black"/>
<path d="M9.3064 10.3234C9.3064 10.7374 8.9704 11.0734 8.5564 11.0734C8.1424 11.0734 7.8064 10.7374 7.8064 10.3234C7.8064 9.90936 8.1424 9.56836 8.5564 9.56836C8.9704 9.56836 9.3064 9.89936 9.3064 10.3134V10.3234Z" fill="black"/>
<path d="M8.5564 13.8937C8.9704 13.8937 9.3064 13.5577 9.3064 13.1437V13.1347C9.3064 12.7197 8.9704 12.3887 8.5564 12.3887C8.1424 12.3887 7.8064 12.7297 7.8064 13.1437C7.8064 13.5577 8.1424 13.8937 8.5564 13.8937Z" fill="black"/>
<path d="M9.3064 15.9659C9.3064 16.3799 8.9704 16.7159 8.5564 16.7159C8.1424 16.7159 7.8064 16.3799 7.8064 15.9659C7.8064 15.5509 8.1424 15.2109 8.5564 15.2109C8.9704 15.2109 9.3064 15.5419 9.3064 15.9559V15.9659Z" fill="black"/>
<path d="M8.5564 19.5382C8.9704 19.5382 9.3064 19.2022 9.3064 18.7882V18.7782C9.3064 18.3642 8.9704 18.0332 8.5564 18.0332C8.1424 18.0332 7.8064 18.3742 7.8064 18.7882C7.8064 19.2022 8.1424 19.5382 8.5564 19.5382Z" fill="black"/>
</svg>