<svg width="25" height="24" viewBox="0 0 25 24" fill="none" xmlns="http://www.w3.org/2000/svg">
<g opacity="0.4">
<path fill-rule="evenodd" clip-rule="evenodd" d="M13.916 8.79494C13.916 9.20894 13.58 9.54494 13.166 9.54494C12.752 9.54494 12.416 9.20894 12.416 8.79494C12.416 8.38094 12.752 8.03994 13.166 8.03994C13.58 8.03994 13.916 8.37094 13.916 8.78494V8.79494ZM13.916 12.0059C13.916 12.4199 13.58 12.7559 13.166 12.7559C12.752 12.7559 12.416 12.4199 12.416 12.0059C12.416 11.5919 12.752 11.2509 13.166 11.2509C13.58 11.2509 13.916 11.5819 13.916 11.9959V12.0059ZM13.916 15.2129C13.916 15.6269 13.58 15.9629 13.166 15.9629C12.752 15.9629 12.416 15.6269 12.416 15.2129C12.416 14.7989 12.752 14.4579 13.166 14.4579C13.58 14.4579 13.916 14.7889 13.916 15.2029V15.2129ZM21.692 6.75294C21.272 5.73194 20.478 4.93794 19.458 4.51994C18.709 4.21094 17.842 4.21094 16.113 4.21094C15.757 4.21094 15.595 4.21094 15.415 4.25694C15.16 4.31994 15.086 4.35894 14.873 4.55594C14.763 4.65694 14.656 4.81794 14.221 5.48294L14.165 5.56994C13.642 6.36794 12.379 6.41994 11.798 5.67094C11.097 4.76494 10.925 4.54594 10.729 4.41394C10.631 4.34694 10.588 4.32494 10.438 4.27594C10.24 4.21094 10.032 4.21094 9.618 4.21094C7.172 4.21094 5.944 4.21094 4.959 4.81494C4.41 5.14994 3.941 5.61894 3.603 6.16994C3 7.15494 3 8.38294 3 10.8289V13.1709C3 15.6169 3 16.8449 3.603 17.8299C3.941 18.3809 4.41 18.8509 4.959 19.1859C5.944 19.7899 7.172 19.7899 9.618 19.7899C10.034 19.7899 10.243 19.7899 10.47 19.7139C10.585 19.6769 10.628 19.6559 10.759 19.5669C10.927 19.4539 11.098 19.2369 11.797 18.3339C12.073 17.9779 12.49 17.7739 12.987 17.7739C13.452 17.7889 13.871 18.0189 14.135 18.4039L14.2 18.4979C14.687 19.2079 14.794 19.3619 14.937 19.4889C15.112 19.6479 15.188 19.6879 15.459 19.7519C15.612 19.7899 15.772 19.7899 16.124 19.7899C17.842 19.7899 18.704 19.7899 19.449 19.4859C20.463 19.0719 21.282 18.2529 21.696 17.2389C22 16.4949 22 15.6319 22 13.9129V10.0979C22 8.36794 22 7.50094 21.692 6.75294Z" fill="black"/>
<path fill-rule="evenodd" clip-rule="evenodd" d="M13.916 8.79494C13.916 9.20894 13.58 9.54494 13.166 9.54494C12.752 9.54494 12.416 9.20894 12.416 8.79494C12.416 8.38094 12.752 8.03994 13.166 8.03994C13.58 8.03994 13.916 8.37094 13.916 8.78494V8.79494ZM13.916 12.0059C13.916 12.4199 13.58 12.7559 13.166 12.7559C12.752 12.7559 12.416 12.4199 12.416 12.0059C12.416 11.5919 12.752 11.2509 13.166 11.2509C13.58 11.2509 13.916 11.5819 13.916 11.9959V12.0059ZM13.916 15.2129C13.916 15.6269 13.58 15.9629 13.166 15.9629C12.752 15.9629 12.416 15.6269 12.416 15.2129C12.416 14.7989 12.752 14.4579 13.166 14.4579C13.58 14.4579 13.916 14.7889 13.916 15.2029V15.2129ZM21.692 6.75294C21.272 5.73194 20.478 4.93794 19.458 4.51994C18.709 4.21094 17.842 4.21094 16.113 4.21094C15.757 4.21094 15.595 4.21094 15.415 4.25694C15.16 4.31994 15.086 4.35894 14.873 4.55594C14.763 4.65694 14.656 4.81794 14.221 5.48294L14.165 5.56994C13.642 6.36794 12.379 6.41994 11.798 5.67094C11.097 4.76494 10.925 4.54594 10.729 4.41394C10.631 4.34694 10.588 4.32494 10.438 4.27594C10.24 4.21094 10.032 4.21094 9.618 4.21094C7.172 4.21094 5.944 4.21094 4.959 4.81494C4.41 5.14994 3.941 5.61894 3.603 6.16994C3 7.15494 3 8.38294 3 10.8289V13.1709C3 15.6169 3 16.8449 3.603 17.8299C3.941 18.3809 4.41 18.8509 4.959 19.1859C5.944 19.7899 7.172 19.7899 9.618 19.7899C10.034 19.7899 10.243 19.7899 10.47 19.7139C10.585 19.6769 10.628 19.6559 10.759 19.5669C10.927 19.4539 11.098 19.2369 11.797 18.3339C12.073 17.9779 12.49 17.7739 12.987 17.7739C13.452 17.7889 13.871 18.0189 14.135 18.4039L14.2 18.4979C14.687 19.2079 14.794 19.3619 14.937 19.4889C15.112 19.6479 15.188 19.6879 15.459 19.7519C15.612 19.7899 15.772 19.7899 16.124 19.7899C17.842 19.7899 18.704 19.7899 19.449 19.4859C20.463 19.0719 21.282 18.2529 21.696 17.2389C22 16.4949 22 15.6319 22 13.9129V10.0979C22 8.36794 22 7.50094 21.692 6.75294Z" fill="black"/>
</g>
<path fill-rule="evenodd" clip-rule="evenodd" d="M13.916 8.79406C13.916 9.20806 13.58 9.54406 13.166 9.54406C12.752 9.54406 12.416 9.20806 12.416 8.79406C12.416 8.38006 12.752 8.03906 13.166 8.03906C13.58 8.03906 13.916 8.37006 13.916 8.78406V8.79406ZM13.916 12.0051C13.916 12.4191 13.58 12.7551 13.166 12.7551C12.752 12.7551 12.416 12.4191 12.416 12.0051C12.416 11.5911 12.752 11.2501 13.166 11.2501C13.58 11.2501 13.916 11.5811 13.916 11.9951V12.0051ZM13.916 15.2121C13.916 15.6261 13.58 15.9621 13.166 15.9621C12.752 15.9621 12.416 15.6261 12.416 15.2121C12.416 14.7981 12.752 14.4571 13.166 14.4571C13.58 14.4571 13.916 14.7881 13.916 15.2021V15.2121Z" fill="black"/>
<path fill-rule="evenodd" clip-rule="evenodd" d="M13.916 8.79406C13.916 9.20806 13.58 9.54406 13.166 9.54406C12.752 9.54406 12.416 9.20806 12.416 8.79406C12.416 8.38006 12.752 8.03906 13.166 8.03906C13.58 8.03906 13.916 8.37006 13.916 8.78406V8.79406ZM13.916 12.0051C13.916 12.4191 13.58 12.7551 13.166 12.7551C12.752 12.7551 12.416 12.4191 12.416 12.0051C12.416 11.5911 12.752 11.2501 13.166 11.2501C13.58 11.2501 13.916 11.5811 13.916 11.9951V12.0051ZM13.916 15.2121C13.916 15.6261 13.58 15.9621 13.166 15.9621C12.752 15.9621 12.416 15.6261 12.416 15.2121C12.416 14.7981 12.752 14.4571 13.166 14.4571C13.58 14.4571 13.916 14.7881 13.916 15.2021V15.2121Z" fill="black"/>
</svg>