<svg width="24" height="24" viewBox="0 0 24 24" fill="none" xmlns="http://www.w3.org/2000/svg">
<path d="M6.78462 21H17.2159C19.0509 21 20.5376 19.5123 20.5376 17.6783V10.5045C20.5376 9.6133 20.1367 8.76973 19.4459 8.20638L13.8718 3.66551C12.782 2.77816 11.2185 2.77816 10.1287 3.66551L4.55457 8.20638C3.86376 8.76973 3.46289 9.6133 3.46289 10.5045V17.6783C3.46289 19.5123 4.94959 21 6.78462 21Z" stroke="black" stroke-width="1.5" stroke-linecap="round" stroke-linejoin="round"/>
<path fill-rule="evenodd" clip-rule="evenodd" d="M9.35804 14.4571C8.57188 14.4522 7.93069 15.0846 7.92582 15.8698C7.91998 16.656 8.55339 17.2972 9.33858 17.302C10.1247 17.3079 10.7659 16.6754 10.7708 15.8893V15.8795C10.7737 15.0963 10.1413 14.46 9.35804 14.4571Z" stroke="black" stroke-width="1.5" stroke-linecap="round" stroke-linejoin="round"/>
<path fill-rule="evenodd" clip-rule="evenodd" d="M14.6471 13.0677C15.4323 13.0725 16.0745 12.4401 16.0794 11.6549C16.0852 10.8688 15.4518 10.2276 14.6666 10.2227C13.8804 10.2169 13.2392 10.8493 13.2344 11.6355V11.6452C13.2315 12.4284 13.8639 13.0648 14.6471 13.0677Z" stroke="black" stroke-width="1.5" stroke-linecap="round" stroke-linejoin="round"/>
<path d="M9.34961 14.457V10.2227" stroke="black" stroke-width="1.5" stroke-linecap="round" stroke-linejoin="round"/>
<path d="M14.6582 13.0684V17.3027" stroke="black" stroke-width="1.5" stroke-linecap="round" stroke-linejoin="round"/>
</svg>