<svg width="24" height="24" viewBox="0 0 24 24" fill="none" xmlns="http://www.w3.org/2000/svg">
<path d="M18.1024 3.97012V7.0671M17.4896 21H6.51054C4.57919 21 3.01367 19.4345 3.01367 17.5031V10.8986C3.01367 9.96065 3.43594 9.07232 4.16275 8.47978L10.0298 3.70054C11.1769 2.76649 12.8232 2.76649 13.9703 3.70054L19.8373 8.47978C20.5642 9.07232 20.9864 9.96065 20.9864 10.8986V17.5031C20.9864 19.4345 19.4209 21 17.4896 21Z" stroke="black" stroke-width="1.5" stroke-linecap="round" stroke-linejoin="round"/>
<path d="M9.2832 21.0001V16.3435C9.2832 14.8432 10.4994 13.627 11.9997 13.627C13.4991 13.627 14.7153 14.8432 14.7153 16.3435V21.0001" stroke="black" stroke-width="1.5" stroke-linecap="round" stroke-linejoin="round"/>
</svg>