<svg width="25" height="25" viewBox="0 0 25 25" fill="none" xmlns="http://www.w3.org/2000/svg">
<path d="M18.8137 17.5181C20.2498 16.8701 21.25 15.4241 21.25 13.7441C21.25 11.1481 19.4199 9.60506 17.147 9.60306C17.147 7.97206 15.8666 4.70508 12.25 4.70508" stroke="black" stroke-width="1.5" stroke-linecap="round" stroke-linejoin="round"/>
<path d="M5.68632 17.5175C4.24924 16.8695 3.25 15.4235 3.25 13.7435C3.25 11.1475 5.08308 9.62345 7.35303 9.60245C7.35303 8.53866 7.89774 6.7789 9.28006 5.68359" stroke="black" stroke-width="1.5" stroke-linecap="round" stroke-linejoin="round"/>
<path d="M10.768 19.9431C9.95463 19.9431 9.29492 19.2831 9.29492 18.4701V16.8031C9.29492 15.9901 9.95463 15.3301 10.768 15.3301H13.7365C14.5499 15.3301 15.2096 15.9901 15.2096 16.8031V18.4701C15.2096 19.2831 14.5499 19.9431 13.7365 19.9431" stroke="black" stroke-width="1.5" stroke-linecap="round" stroke-linejoin="round"/>
<path d="M14.0221 15.3598V14.2638C14.0095 13.2848 13.2068 12.5008 12.2279 12.5138C11.2696 12.5258 10.4951 13.2968 10.4785 14.2558V15.3598" stroke="black" stroke-width="1.5" stroke-linecap="round" stroke-linejoin="round"/>
</svg>