<svg width="24" height="24" viewBox="0 0 24 24" fill="none" xmlns="http://www.w3.org/2000/svg">
<path fill-rule="evenodd" clip-rule="evenodd" d="M11.9998 7.14193H8.3969C7.29161 7.14193 6.39551 6.21469 6.39551 5.07145C6.39551 3.92724 7.29161 3 8.3969 3C11.1991 3 11.9998 7.14193 11.9998 7.14193Z" stroke="black" stroke-width="1.5" stroke-linecap="round" stroke-linejoin="round"/>
<path fill-rule="evenodd" clip-rule="evenodd" d="M12 7.14193H15.6027C16.708 7.14193 17.6041 6.21469 17.6041 5.07145C17.6041 3.92724 16.708 3 15.6027 3C12.8005 3 12 7.14193 12 7.14193Z" stroke="black" stroke-width="1.5" stroke-linecap="round" stroke-linejoin="round"/>
<path d="M16.875 20.9986H7.12872C4.97944 20.9986 3.64258 19.3971 3.64258 17.1281V11.0101C3.64258 8.74213 4.97944 7.14062 7.1297 7.14062H16.875C19.0242 7.14062 20.3611 8.74213 20.3611 11.0101V17.1281C20.3611 19.3971 19.0174 20.9986 16.875 20.9986Z" stroke="black" stroke-width="1.5" stroke-linecap="round" stroke-linejoin="round"/>
<path d="M13.2879 7.14062L9.40332 13.8877" stroke="black" stroke-width="1.5" stroke-linecap="round" stroke-linejoin="round"/>
<path d="M20.3559 12.0117L15.1846 20.9951" stroke="black" stroke-width="1.5" stroke-linecap="round" stroke-linejoin="round"/>
<path d="M8.35076 7.14062L3.63867 15.3301" stroke="black" stroke-width="1.5" stroke-linecap="round" stroke-linejoin="round"/>
<path d="M7.46182 17.2617L5.51953 20.6352" stroke="black" stroke-width="1.5" stroke-linecap="round" stroke-linejoin="round"/>
<path d="M13.7907 14.8555L10.2568 20.995" stroke="black" stroke-width="1.5" stroke-linecap="round" stroke-linejoin="round"/>
<path d="M18.1095 7.35156L15.9238 11.1489" stroke="black" stroke-width="1.5" stroke-linecap="round" stroke-linejoin="round"/>
</svg>