<svg width="24" height="24" viewBox="0 0 24 24" fill="none" xmlns="http://www.w3.org/2000/svg">
<path fill-rule="evenodd" clip-rule="evenodd" d="M12.3426 12.2751L12.9118 13.4115C12.9682 13.5234 13.0752 13.6012 13.1998 13.6178L14.4724 13.8017C14.6787 13.8289 14.8236 14.0177 14.7964 14.2239C14.7857 14.3086 14.7458 14.3864 14.6845 14.4458L13.7641 15.3302C13.6736 15.4168 13.6327 15.5423 13.6541 15.6649L13.8721 16.9132C13.9052 17.1214 13.7631 17.318 13.5549 17.3511C13.4732 17.3647 13.3885 17.3511 13.3155 17.3121L12.1781 16.7225C12.0663 16.6651 11.9339 16.6651 11.822 16.7225L10.6837 17.3121C10.4978 17.4114 10.2663 17.3404 10.168 17.1535C10.1291 17.0796 10.1145 16.9959 10.1281 16.9142L10.346 15.6649C10.3675 15.5423 10.3266 15.4168 10.2361 15.3312L9.3147 14.4458C9.16487 14.3018 9.16 14.0634 9.30497 13.9136C9.36335 13.8523 9.44216 13.8134 9.52681 13.8017L10.7995 13.6188C10.924 13.6012 11.031 13.5244 11.0874 13.4115L11.6576 12.2751C11.7559 12.0863 11.9884 12.0114 12.1772 12.1097C12.2482 12.1467 12.3056 12.2041 12.3426 12.2751Z" stroke="black" stroke-width="1.5" stroke-linecap="round" stroke-linejoin="round"/>
<path d="M12.091 20.9994C8.76834 20.9994 6.06738 18.3024 6.06738 14.9758C6.06738 11.6492 8.76834 8.95312 12.091 8.95312C15.4137 8.95312 18.1146 11.6492 18.1146 14.9758C18.1146 17.1231 16.9892 19.0082 15.2976 20.0748" stroke="black" stroke-width="1.5" stroke-linecap="round" stroke-linejoin="round"/>
<path d="M9.23316 9.66778L5.4707 3.01172" stroke="black" stroke-width="1.5" stroke-linecap="round" stroke-linejoin="round"/>
<path d="M9.32812 3.01172L12.6459 8.98962" stroke="black" stroke-width="1.5" stroke-linecap="round" stroke-linejoin="round"/>
<path d="M18.5295 3.01172L15.1592 9.73102" stroke="black" stroke-width="1.5" stroke-linecap="round" stroke-linejoin="round"/>
<path d="M14.8667 3L13.5518 5.6202" stroke="black" stroke-width="1.5" stroke-linecap="round" stroke-linejoin="round"/>
</svg>