<svg width="24" height="24" viewBox="0 0 24 24" fill="none" xmlns="http://www.w3.org/2000/svg">
<path d="M12.091 20.9994C8.76834 20.9994 6.06738 18.3024 6.06738 14.9758C6.06738 11.6492 8.76834 8.95312 12.091 8.95312C15.4137 8.95312 18.1146 11.6492 18.1146 14.9758C18.1146 17.1231 16.9892 19.0082 15.2976 20.0748" stroke="black" stroke-width="1.5" stroke-linecap="round" stroke-linejoin="round"/>
<path d="M13.3639 17.013H10.9791L12.8823 15.069C13.2646 14.6214 13.3814 14.2673 13.3814 13.9063C13.3814 13.1824 12.7684 12.5938 12.0046 12.5938C11.2302 12.5938 10.6172 13.1824 10.6172 13.9063" stroke="black" stroke-width="1.5" stroke-linecap="round" stroke-linejoin="round"/>
<path d="M9.23316 9.66778L5.4707 3.01172" stroke="black" stroke-width="1.5" stroke-linecap="round" stroke-linejoin="round"/>
<path d="M9.32812 3.01172L12.6459 8.98962" stroke="black" stroke-width="1.5" stroke-linecap="round" stroke-linejoin="round"/>
<path d="M18.5295 3.01172L15.1592 9.73102" stroke="black" stroke-width="1.5" stroke-linecap="round" stroke-linejoin="round"/>
<path d="M14.8667 3L13.5518 5.6202" stroke="black" stroke-width="1.5" stroke-linecap="round" stroke-linejoin="round"/>
</svg>