<svg width="24" height="24" viewBox="0 0 24 24" fill="none" xmlns="http://www.w3.org/2000/svg">
<path fill-rule="evenodd" clip-rule="evenodd" d="M7.80194 2.5H5.19794C3.70994 2.5 2.49994 3.71 2.49994 5.198V7.802C2.49994 9.29 3.70994 10.5 5.19794 10.5H7.80194C9.28994 10.5 10.4999 9.29 10.4999 7.802V5.198C10.4999 3.71 9.28994 2.5 7.80194 2.5Z" fill="black"/>
<path fill-rule="evenodd" clip-rule="evenodd" d="M18.8019 13.5H16.1979C14.7099 13.5 13.4999 14.71 13.4999 16.198V18.802C13.4999 20.29 14.7099 21.5 16.1979 21.5H18.8019C20.2899 21.5 21.4999 20.29 21.4999 18.802V16.198C21.4999 14.71 20.2899 13.5 18.8019 13.5Z" fill="black"/>
<path fill-rule="evenodd" clip-rule="evenodd" d="M6.50021 13.5C4.29421 13.5 2.50021 15.294 2.50021 17.5C2.50021 19.706 4.29421 21.5 6.50021 21.5C8.70621 21.5 10.5002 19.706 10.5002 17.5C10.5002 15.294 8.70621 13.5 6.50021 13.5Z" fill="black"/>
<path fill-rule="evenodd" clip-rule="evenodd" d="M14.3371 9.59882C14.5271 9.70682 14.7431 9.76482 14.9611 9.76482H20.2431C20.9371 9.76482 21.5001 9.20082 21.5001 8.50782C21.5001 8.28882 21.4431 8.07282 21.3341 7.88182L18.6941 3.26782C18.3491 2.66782 17.5801 2.45882 16.9771 2.80482C16.7811 2.91782 16.6211 3.07882 16.5141 3.26882L13.8701 7.88182C13.5251 8.48282 13.7341 9.25182 14.3371 9.59882Z" fill="black"/>
</svg>