<svg width="24" height="24" viewBox="0 0 24 24" fill="none" xmlns="http://www.w3.org/2000/svg">
<path fill-rule="evenodd" clip-rule="evenodd" d="M14.7512 4.8418H20.2492C20.6632 4.8418 20.9992 4.5058 20.9992 4.0918C20.9992 3.6778 20.6632 3.3418 20.2492 3.3418H14.7512C14.3372 3.3418 14.0012 3.6778 14.0012 4.0918C14.0012 4.5058 14.3372 4.8418 14.7512 4.8418Z" fill="black"/>
<path fill-rule="evenodd" clip-rule="evenodd" d="M14.7503 9.67285H20.2483C20.6623 9.67285 20.9983 9.33685 20.9983 8.92285C20.9983 8.50885 20.6623 8.17285 20.2483 8.17285H14.7503C14.3363 8.17285 14.0003 8.50885 14.0003 8.92285C14.0003 9.33685 14.3363 9.67285 14.7503 9.67285Z" fill="black"/>
<path fill-rule="evenodd" clip-rule="evenodd" d="M18.802 13.5H16.198C14.711 13.5 13.5 14.71 13.5 16.198V18.802C13.5 20.29 14.711 21.5 16.198 21.5H18.802C20.29 21.5 21.5 20.29 21.5 18.802V16.198C21.5 14.71 20.29 13.5 18.802 13.5Z" fill="black"/>
<path fill-rule="evenodd" clip-rule="evenodd" d="M7.802 13.5H5.198C3.711 13.5 2.5 14.71 2.5 16.198V18.802C2.5 20.29 3.711 21.5 5.198 21.5H7.802C9.29 21.5 10.5 20.29 10.5 18.802V16.198C10.5 14.71 9.29 13.5 7.802 13.5Z" fill="black"/>
<path fill-rule="evenodd" clip-rule="evenodd" d="M7.802 2.5H5.198C3.711 2.5 2.5 3.71 2.5 5.198V7.802C2.5 9.29 3.711 10.5 5.198 10.5H7.802C9.29 10.5 10.5 9.29 10.5 7.802V5.198C10.5 3.71 9.29 2.5 7.802 2.5Z" fill="black"/>
</svg>