<svg width="24" height="24" viewBox="0 0 24 24" fill="none" xmlns="http://www.w3.org/2000/svg">
<path fill-rule="evenodd" clip-rule="evenodd" d="M7.69849 14.5714C7.58949 14.3774 7.42749 14.2154 7.23149 14.1034C6.63249 13.7594 5.86249 13.9664 5.51649 14.5694L2.87649 19.1824C2.76749 19.3734 2.71149 19.5894 2.71149 19.8074C2.71149 20.5014 3.27449 21.0644 3.96849 21.0644H9.25049C9.46949 21.0644 9.68449 21.0074 9.87549 20.8974C10.4765 20.5534 10.6855 19.7834 10.3415 19.1804L7.69849 14.5714Z" fill="black"/>
<path fill-rule="evenodd" clip-rule="evenodd" d="M18.6936 13.5H16.0896C14.6006 13.5 13.3906 14.71 13.3906 16.198V18.802C13.3906 20.29 14.6006 21.5 16.0896 21.5H18.6936C20.1806 21.5 21.3906 20.29 21.3906 18.802V16.198C21.3906 14.71 20.1806 13.5 18.6936 13.5Z" fill="black"/>
<path fill-rule="evenodd" clip-rule="evenodd" d="M16.3997 9.13296C16.6317 9.53696 17.0567 9.76496 17.4927 9.76496C17.7047 9.76496 17.9177 9.71096 18.1127 9.59896C18.3087 9.48796 18.4707 9.32596 18.5807 9.13296L21.2237 4.51996C21.5687 3.91896 21.3597 3.14996 20.7567 2.80296C20.5657 2.69496 20.3497 2.63696 20.1327 2.63696H14.8507C14.1577 2.63696 13.5937 3.19996 13.5937 3.89296C13.5937 4.11396 13.6517 4.33096 13.7607 4.51996L16.3997 9.13296Z" fill="black"/>
<path fill-rule="evenodd" clip-rule="evenodd" d="M7.91138 2.5H5.30737C3.81937 2.5 2.60938 3.71 2.60938 5.198V7.802C2.60938 9.29 3.81937 10.5 5.30737 10.5H7.91138C9.39937 10.5 10.6094 9.29 10.6094 7.802V5.198C10.6094 3.71 9.39937 2.5 7.91138 2.5Z" fill="black"/>
</svg>