<svg width="24" height="24" viewBox="0 0 24 24" fill="none" xmlns="http://www.w3.org/2000/svg">
<path d="M16.8455 20.9995H7.15395C4.92297 20.9995 3.11426 19.1908 3.11426 16.3935V9.33476C3.11426 7.67004 4.92297 5.86133 7.15395 5.86133H16.8455C19.0765 5.86133 20.8852 7.67004 20.8852 9.33476V16.3935C20.8852 19.1908 19.0765 20.9995 16.8455 20.9995Z" stroke="black" stroke-width="1.5" stroke-linecap="round" stroke-linejoin="round"/>
<path d="M8.46484 14.3216V12.2969M15.5382 14.3216V12.2969" stroke="black" stroke-width="1.5" stroke-linecap="round" stroke-linejoin="round"/>
<path d="M15.3831 5.86145C15.3831 4.28138 14.1017 3 12.5216 3H11.4806C9.89954 3 8.61914 4.28138 8.61914 5.86145" stroke="black" stroke-width="1.5" stroke-linecap="round" stroke-linejoin="round"/>
<path d="M20.8397 12.5469C14.9475 13.7251 9.05626 13.7251 3.16406 12.5469" stroke="black" stroke-width="1.5" stroke-linecap="round" stroke-linejoin="round"/>
</svg>
