<svg width="24" height="24" viewBox="0 0 24 24" fill="none" xmlns="http://www.w3.org/2000/svg">
<path d="M8.31432 3H15.6856C18.4829 3 20.2225 4.97416 20.2225 7.76854V16.2315C20.2225 19.0258 18.4829 21 15.6846 21H8.31432C5.51799 21 3.77734 19.0258 3.77734 16.2315V7.76854C3.77734 4.97416 5.52578 3 8.31432 3Z" stroke="black" stroke-width="1.5" stroke-linecap="round" stroke-linejoin="round"/>
<path d="M7.64302 13.5313V13.5413M7.64302 17.2813V17.2913M11.893 13.5313V13.5413M11.893 17.2813V17.2913M16.143 13.5313V13.5413M16.143 17.2813V17.2913M7.66845 13.4297C7.69315 13.4298 7.71727 13.4372 7.73777 13.451C7.75826 13.4648 7.77421 13.4843 7.78359 13.5072C7.79298 13.53 7.79539 13.5552 7.79051 13.5794C7.78563 13.6036 7.77369 13.6258 7.75619 13.6432C7.73869 13.6607 7.71642 13.6725 7.69218 13.6773C7.66795 13.6821 7.64284 13.6796 7.62003 13.6701C7.59721 13.6607 7.57772 13.6446 7.564 13.6241C7.55029 13.6035 7.54297 13.5794 7.54297 13.5547C7.54288 13.5382 7.54607 13.5219 7.55235 13.5066C7.55863 13.4914 7.56788 13.4776 7.57956 13.4659C7.59123 13.4543 7.6051 13.4451 7.62036 13.4389C7.63562 13.4327 7.65197 13.4295 7.66845 13.4297ZM7.66845 17.1797C7.69315 17.1798 7.71727 17.1872 7.73777 17.201C7.75826 17.2148 7.77421 17.2343 7.78359 17.2572C7.79298 17.28 7.79539 17.3052 7.79051 17.3294C7.78563 17.3536 7.77369 17.3758 7.75619 17.3932C7.73869 17.4107 7.71642 17.4225 7.69218 17.4273C7.66795 17.4321 7.64284 17.4296 7.62003 17.4201C7.59721 17.4107 7.57772 17.3946 7.564 17.3741C7.55029 17.3535 7.54297 17.3294 7.54297 17.3047C7.54288 17.2882 7.54607 17.2719 7.55235 17.2566C7.55863 17.2414 7.56788 17.2276 7.57956 17.2159C7.59123 17.2043 7.6051 17.1951 7.62036 17.1889C7.63562 17.1827 7.65197 17.1795 7.66845 17.1797ZM11.9185 13.4297C11.9432 13.4298 11.9673 13.4372 11.9878 13.451C12.0083 13.4648 12.0242 13.4843 12.0336 13.5072C12.043 13.53 12.0454 13.5552 12.0405 13.5794C12.0356 13.6036 12.0237 13.6258 12.0062 13.6432C11.9887 13.6607 11.9664 13.6725 11.9422 13.6773C11.9179 13.6821 11.8928 13.6796 11.87 13.6701C11.8472 13.6607 11.8277 13.6446 11.814 13.6241C11.8003 13.6035 11.793 13.5794 11.793 13.5547C11.7929 13.5382 11.7961 13.5219 11.8024 13.5066C11.8086 13.4914 11.8179 13.4776 11.8296 13.4659C11.8412 13.4543 11.8551 13.4451 11.8704 13.4389C11.8856 13.4327 11.902 13.4295 11.9185 13.4297ZM11.9185 17.1797C11.9432 17.1798 11.9673 17.1872 11.9878 17.201C12.0083 17.2148 12.0242 17.2343 12.0336 17.2572C12.043 17.28 12.0454 17.3052 12.0405 17.3294C12.0356 17.3536 12.0237 17.3758 12.0062 17.3932C11.9887 17.4107 11.9664 17.4225 11.9422 17.4273C11.9179 17.4321 11.8928 17.4296 11.87 17.4201C11.8472 17.4107 11.8277 17.3946 11.814 17.3741C11.8003 17.3535 11.793 17.3294 11.793 17.3047C11.7929 17.2882 11.7961 17.2719 11.8024 17.2566C11.8086 17.2414 11.8179 17.2276 11.8296 17.2159C11.8412 17.2043 11.8551 17.1951 11.8704 17.1889C11.8856 17.1827 11.902 17.1795 11.9185 17.1797ZM16.1685 13.4297C16.1932 13.4298 16.2173 13.4372 16.2378 13.451C16.2583 13.4648 16.2742 13.4843 16.2836 13.5072C16.293 13.53 16.2954 13.5552 16.2905 13.5794C16.2856 13.6036 16.2737 13.6258 16.2562 13.6432C16.2387 13.6607 16.2164 13.6725 16.1922 13.6773C16.1679 13.6821 16.1428 13.6796 16.12 13.6701C16.0972 13.6607 16.0777 13.6446 16.064 13.6241C16.0503 13.6035 16.043 13.5794 16.043 13.5547C16.0429 13.5382 16.0461 13.5219 16.0524 13.5066C16.0586 13.4914 16.0679 13.4776 16.0796 13.4659C16.0912 13.4543 16.1051 13.4451 16.1204 13.4389C16.1356 13.4327 16.152 13.4295 16.1685 13.4297ZM16.1685 17.1797C16.1932 17.1798 16.2173 17.1872 16.2378 17.201C16.2583 17.2148 16.2742 17.2343 16.2836 17.2572C16.293 17.28 16.2954 17.3052 16.2905 17.3294C16.2856 17.3536 16.2737 17.3758 16.2562 17.3932C16.2387 17.4107 16.2164 17.4225 16.1922 17.4273C16.1679 17.4321 16.1428 17.4296 16.12 17.4201C16.0972 17.4107 16.0777 17.3946 16.064 17.3741C16.0503 17.3535 16.043 17.3294 16.043 17.3047C16.0429 17.2882 16.0461 17.2719 16.0524 17.2566C16.0586 17.2414 16.0679 17.2276 16.0796 17.2159C16.0912 17.2043 16.1051 17.1951 16.1204 17.1889C16.1356 17.1827 16.152 17.1795 16.1685 17.1797Z" stroke="black" stroke-width="1.5" stroke-linecap="round" stroke-linejoin="round"/>
<path fill-rule="evenodd" clip-rule="evenodd" d="M15.2183 6.40039H8.78402C7.77894 6.40039 7.15234 6.96277 7.15234 7.99509V8.28504C7.15234 9.3339 7.77894 9.90893 8.78402 9.90893H15.2154C16.2234 9.90893 16.847 9.34461 16.847 8.31131V7.99509C16.85 6.96277 16.2263 6.40039 15.2183 6.40039Z" stroke="black" stroke-width="1.5" stroke-linecap="round" stroke-linejoin="round"/>
</svg>
