<svg width="24" height="24" viewBox="0 0 24 24" fill="none" xmlns="http://www.w3.org/2000/svg">
<path d="M13.0525 3.05282L17.5039 3.7193C19.8838 4.07541 21.1126 5.9766 20.7565 8.35357L19.7972 14.7674C19.4411 17.1444 17.7101 18.6029 15.3293 18.2468L10.8789 17.5803C8.49901 17.2242 7.27015 15.3239 7.62528 12.946L8.58561 6.53217C8.94074 4.1552 10.6794 2.69866 13.0525 3.05282Z" stroke="black" stroke-width="1.5" stroke-linecap="round" stroke-linejoin="round"/>
<path d="M8.73478 5.875L5.87424 6.81976C3.58581 7.57284 2.68678 9.65305 3.44959 11.9415L5.47435 18.0985C6.2284 20.3781 8.18116 21.5223 10.4599 20.7693L14.7468 19.3614C15.4639 19.1347 16.0632 18.7533 16.4991 18.2716" stroke="black" stroke-width="1.5" stroke-linecap="round" stroke-linejoin="round"/>
</svg>
