<svg width="25" height="24" viewBox="0 0 25 24" fill="none" xmlns="http://www.w3.org/2000/svg">
<path d="M21.1143 20.0674C19.8516 21.3301 17.8044 21.3301 16.5417 20.0674C15.2791 18.8047 15.2791 16.7575 16.5417 15.4949C17.8044 14.2322 19.8516 14.2322 21.1143 15.4949" stroke="black" stroke-width="1.5" stroke-linecap="round" stroke-linejoin="round"/>
<path d="M13.8861 13.5091V13.5571M14.0749 13.5194C14.0749 13.6274 13.9873 13.715 13.8792 13.715C13.7711 13.715 13.6836 13.6274 13.6836 13.5194C13.6836 13.4113 13.7711 13.3237 13.8792 13.3237C13.9873 13.3237 14.0749 13.4113 14.0749 13.5194Z" stroke="black" stroke-width="1.5" stroke-linecap="round" stroke-linejoin="round"/>
<path d="M3.31679 3.17118V3.21918M3.50559 3.18149C3.50559 3.28955 3.41792 3.37715 3.30986 3.37715C3.20181 3.37715 3.11426 3.28955 3.11426 3.18149C3.11426 3.07344 3.20181 2.98584 3.30986 2.98584C3.41792 2.98584 3.50559 3.07344 3.50559 3.18149Z" stroke="black" stroke-width="1.5" stroke-linecap="round" stroke-linejoin="round"/>
<path d="M9.7543 4.01562H6.6543C6.37815 4.01562 6.1543 4.23948 6.1543 4.51562V10.8957" stroke="black" stroke-width="1.5" stroke-linecap="round" stroke-linejoin="round"/>
<path d="M9.7543 7.74658H6.1543" stroke="black" stroke-width="1.5" stroke-linecap="round" stroke-linejoin="round"/>
<g opacity="0.4">
<path d="M18.3965 8.15206L19.7547 9.51025L21.1138 8.15206" stroke="black" stroke-width="1.5" stroke-linecap="round" stroke-linejoin="round"/>
<path d="M19.7539 9.43213V6.20593C19.7539 4.97907 18.7596 3.98572 17.5337 3.98572H16.3574" stroke="black" stroke-width="1.5" stroke-linecap="round" stroke-linejoin="round"/>
<path d="M6.83203 16.8196L5.47383 15.4614L4.11467 16.8196" stroke="black" stroke-width="1.5" stroke-linecap="round" stroke-linejoin="round"/>
<path d="M5.47463 15.5396V18.7658C5.47463 19.9926 6.46895 20.986 7.69483 20.986H8.87109" stroke="black" stroke-width="1.5" stroke-linecap="round" stroke-linejoin="round"/>
</g>
</svg>