<svg width="25" height="24" viewBox="0 0 25 24" fill="none" xmlns="http://www.w3.org/2000/svg">
<path opacity="0.4" d="M12.0546 5.76562C8.51738 5.76562 7.26502 8.95933 7.26502 10.5562C5.04579 10.5762 3.25195 12.0664 3.25195 14.6054C3.25195 15.6531 3.65001 16.608 4.30286 17.3268" stroke="black" stroke-width="1.5" stroke-linecap="round" stroke-linejoin="round"/>
<path d="M8.66578 21C10.2652 21 11.5618 19.7034 11.5618 18.104C11.5618 16.5046 10.2652 15.208 8.66578 15.208C7.35095 15.208 6.24063 16.0843 5.88722 17.2848C5.66753 17.1976 5.42812 17.1496 5.17745 17.1496C4.1141 17.1496 3.25217 18.0116 3.25217 19.0748C3.25217 20.1381 4.1141 21 5.17745 21C6.55772 21 7.18623 21 8.66578 21Z" stroke="black" stroke-width="1.5" stroke-linecap="round" stroke-linejoin="round"/>
<path d="M14.9506 8.79198C13.3512 8.79198 12.0546 7.49541 12.0546 5.89599C12.0546 4.29656 13.3512 3 14.9506 3C16.2654 3 17.3758 3.87628 17.7292 5.07675C17.9489 4.98957 18.1883 4.94163 18.4389 4.94163C19.5023 4.94163 20.3642 5.80356 20.3642 6.86682C20.3642 7.93005 19.5023 8.79198 18.4389 8.79198C17.0587 8.79198 16.4302 8.79198 14.9506 8.79198Z" stroke="black" stroke-width="1.5" stroke-linecap="round" stroke-linejoin="round"/>
<path opacity="0.4" d="M11.584 18.6292H16.841C17.2882 18.6292 17.8792 18.5416 18.4778 18.3018C19.8824 17.667 20.8569 16.2482 20.8569 14.6056C20.8569 12.0666 19.064 10.5764 16.8448 10.5564C16.8448 10.0849 16.7355 9.47424 16.4905 8.84766" stroke="black" stroke-width="1.5" stroke-linecap="round" stroke-linejoin="round"/>
</svg>