<svg width="25" height="24" viewBox="0 0 25 24" fill="none" xmlns="http://www.w3.org/2000/svg">
<path opacity="0.4" d="M10.5031 3V3.03742M3.07141 6.09024L3.09409 6.11292M17.9124 6.11273L17.9657 6.05943M21.038 13.5369H20.9881M17.9124 20.9467L17.9657 21" stroke="black" stroke-width="1.5" stroke-linecap="round" stroke-linejoin="round"/>
<path fill-rule="evenodd" clip-rule="evenodd" d="M16.6142 15.2569C16.6462 15.2399 16.6845 15.2692 16.6742 15.3047C15.9038 18.0001 13.4207 19.9728 10.4879 19.9728C6.93067 19.9728 4.05176 17.0871 4.05176 13.5367C4.05176 10.597 6.01766 8.12004 8.7137 7.35033C8.7485 7.34009 8.77785 7.3783 8.76079 7.41037C7.59735 9.59941 7.94467 12.3889 9.7898 14.2347C11.6356 16.0799 14.4251 16.4272 16.6142 15.2569Z" stroke="black" stroke-width="1.5" stroke-linecap="round" stroke-linejoin="round"/>
<path opacity="0.4" d="M15.0504 8.97398C17.5665 11.4901 17.5665 15.5695 15.0504 18.0856C12.5343 20.6016 8.45492 20.6016 5.93883 18.0856C3.42274 15.5695 3.42274 11.4901 5.93883 8.97398C8.45492 6.45789 12.5343 6.45789 15.0504 8.97398Z" stroke="black" stroke-width="1.5" stroke-linecap="round" stroke-linejoin="round"/>
</svg>