<svg width="25" height="24" viewBox="0 0 25 24" fill="none" xmlns="http://www.w3.org/2000/svg">
<path opacity="0.4" fill-rule="evenodd" clip-rule="evenodd" d="M10.3164 7.66126C10.3164 6.89668 10.9362 6.27686 11.7008 6.27686H19.0877C19.8523 6.27686 20.4721 6.89668 20.4721 7.66126C20.4721 8.42585 19.8523 9.04567 19.0877 9.04567H13.0852V12.7595H18.1948C18.9594 12.7595 19.5792 13.3793 19.5792 14.1439C19.5792 14.9085 18.9594 15.5283 18.1948 15.5283H13.0852V19.6155C13.0852 20.3801 12.4654 20.9999 11.7008 20.9999C10.9362 20.9999 10.3164 20.3801 10.3164 19.6155V7.66126Z" stroke="black" stroke-width="1.5" stroke-linecap="round" stroke-linejoin="round"/>
<path d="M5.40337 6.29383C6.31288 6.29383 7.05078 5.55647 7.05078 4.64691C7.05078 3.73735 6.31288 3 5.40337 3C4.49386 3 3.75696 3.73735 3.75696 4.64691C3.75696 5.55647 4.49386 6.29383 5.40337 6.29383Z" stroke="black" stroke-width="1.5" stroke-linecap="round" stroke-linejoin="round"/>
</svg>