<svg width="25" height="24" viewBox="0 0 25 24" fill="none" xmlns="http://www.w3.org/2000/svg">
<path opacity="0.4" d="M15.354 21C23.476 16.7768 17.428 12.2729 18.804 7.74781C17.8677 7.87608 15.7109 8.80224 15.1018 10.9622C15.4922 9.09592 15.377 4.65978 10.7842 3C12.1855 9.02514 7.7518 7.98494 8.09285 13.4872C7.37285 12.9756 5.98684 11.1396 6.12326 8.86589C4.30435 11.9607 2.53378 18.916 10.0824 21" stroke="black" stroke-width="1.5" stroke-linecap="round" stroke-linejoin="round"/>
<path d="M15.3542 20.9998C16.6478 17.4375 15.3542 16.1721 14.4026 15.0785C14.2662 16.3063 13.171 17.8638 12.6405 17.9775C13.2658 15.448 11.3331 13.5059 10.5658 13.6291C10.9068 15.8459 8.09307 18.0627 10.0826 20.9998" stroke="black" stroke-width="1.5" stroke-linecap="round" stroke-linejoin="round"/>
</svg>