<svg width="25" height="24" viewBox="0 0 25 24" fill="none" xmlns="http://www.w3.org/2000/svg">
<path opacity="0.4" d="M14.6953 10.8516C14.6953 10.8516 16.4376 8.09291 18.6824 7.66183C17.9511 12.1327 22.1016 15.5971 17.3737 19.3571C14.2438 21.8463 8.96919 21.4682 6.23131 18.486C3.54609 15.5611 4.87501 11.0674 6.23131 8.75966C6.98905 11.0321 8.65568 11.8997 8.65568 11.8997C8.83223 7.45532 10.8079 7.36515 10.8079 3C15.3175 4.62972 15.0786 9.0191 14.6953 10.8516Z" stroke="black" stroke-width="1.5" stroke-linecap="round" stroke-linejoin="round"/>
<path d="M12.5872 16.3497C13.7226 16.0901 14.2409 14.3339 14.2409 14.3339C15.0537 14.8805 16.9437 18.2707 14.49 20.2221C12.1694 22.0677 8.42405 20.4394 8.87983 17.3395C9.17096 15.3594 10.3025 14.9651 11.5226 12.856C12.763 14.3339 12.5872 16.3497 12.5872 16.3497Z" stroke="black" stroke-width="1.5" stroke-linecap="round" stroke-linejoin="round"/>
</svg>