<svg width="25" height="24" viewBox="0 0 25 24" fill="none" xmlns="http://www.w3.org/2000/svg">
<path d="M21.1145 9.28093C21.1145 11.2061 19.9271 12.854 18.2447 13.5321C16.8717 13.9363 16.4062 12.8413 15.2699 12.5123C13.4963 11.9988 11.6885 11.0847 11.6885 8.55427C11.6885 6.02386 14.0024 4.69922 16.5328 4.69922C19.0632 4.69922 21.1145 6.75052 21.1145 9.28093Z" stroke="black" stroke-width="1.5" stroke-linecap="round" stroke-linejoin="round"/>
<path d="M8.10044 10.5906C9.26815 11.2648 9.85184 12.5621 9.67399 13.82C9.43832 14.7943 8.61118 14.6932 8.01373 15.2671C7.08117 16.1631 5.89363 16.9395 4.35883 16.0534C2.82403 15.1673 2.83087 13.2999 3.71699 11.7651C4.6031 10.2303 6.56564 9.70449 8.10044 10.5906Z" stroke="black" stroke-width="1.5" stroke-linecap="round" stroke-linejoin="round"/>
<path d="M11.9509 20.3462C11.1724 19.8968 10.7833 19.0319 10.9018 18.1933C11.0589 17.5438 11.6104 17.6112 12.0087 17.2285C12.6304 16.6312 13.4221 16.1136 14.4453 16.7043C15.4685 17.2951 15.4639 18.54 14.8732 19.5632C14.2824 20.5864 12.9741 20.937 11.9509 20.3462Z" stroke="black" stroke-width="1.5" stroke-linecap="round" stroke-linejoin="round"/>
<path d="M8.23311 3.59254C8.84506 3.94585 9.15094 4.6257 9.05774 5.28493C8.93424 5.79552 8.50077 5.74253 8.18766 6.04334C7.69895 6.51286 7.0766 6.91976 6.27228 6.45538C5.46795 5.991 5.47153 5.0124 5.93591 4.20808C6.40029 3.40375 7.42878 3.12817 8.23311 3.59254Z" stroke="black" stroke-width="1.5" stroke-linecap="round" stroke-linejoin="round"/>
</svg>