<svg width="25" height="24" viewBox="0 0 25 24" fill="none" xmlns="http://www.w3.org/2000/svg">
<path opacity="0.4" d="M9.81694 9.67199C10.7337 9.46098 11.8784 9.38392 13.1082 9.48485C15.0898 9.64749 16.778 10.23 17.6133 10.9532" stroke="black" stroke-width="1.5" stroke-linecap="round" stroke-linejoin="round"/>
<path d="M15.988 7.25025C12.7877 5.56896 5.58414 6.04485 4.90456 9.1183C4.67429 10.6722 6.54475 11.8724 8.90996 12.2045C10.4408 12.4195 12.1231 12.3816 13.6559 12.1816C17.4708 11.6838 20.3019 9.84704 20.3019 7.65728C20.3019 5.08514 16.3957 3 11.5772 3C8.281 3 5.41175 3.97571 3.92773 5.41557" stroke="black" stroke-width="1.5" stroke-linecap="round" stroke-linejoin="round"/>
<path opacity="0.4" d="M9.0878 15.1887C10.6186 15.4037 12.3009 15.3657 13.8337 15.1658C16.091 14.8713 18.0038 14.1079 19.1896 13.0801" stroke="black" stroke-width="1.5" stroke-linecap="round" stroke-linejoin="round"/>
<path opacity="0.4" d="M17.6253 17.042C15.5836 20.0889 11.8983 20.916 10.6524 20.9998C11.1235 20.4449 12.3169 19.1465 12.1285 17.4818" stroke="black" stroke-width="1.5" stroke-linecap="round" stroke-linejoin="round"/>
</svg>