<svg width="25" height="24" viewBox="0 0 25 24" fill="none" xmlns="http://www.w3.org/2000/svg">
<path opacity="0.4" fill-rule="evenodd" clip-rule="evenodd" d="M3.71272 14.6756C3.66894 14.6522 3.61932 14.6921 3.63196 14.7388C4.66527 18.3544 7.99479 20.9999 11.9295 20.9999C16.699 20.9999 20.5608 17.1285 20.5608 12.3677C20.5608 8.42518 17.923 5.10441 14.3084 4.07209C14.2617 4.05846 14.2218 4.10906 14.2452 4.15187C15.8058 7.08831 15.3398 10.8294 12.8645 13.3037C10.3903 15.7789 6.64916 16.245 3.71272 14.6756Z" stroke="black" stroke-width="1.5" stroke-linecap="round" stroke-linejoin="round"/>
<path d="M6.86203 3.04541C6.39064 4.59424 5.17857 5.80636 3.62982 6.27778C5.17857 6.74919 6.39064 7.96131 6.86203 9.51014C7.33342 7.96131 8.54549 6.74919 10.0942 6.27777C8.54549 5.80636 7.33342 4.59424 6.86203 3.04541Z" stroke="black" stroke-width="1.5" stroke-linecap="round" stroke-linejoin="round"/>
</svg>