<svg width="25" height="24" viewBox="0 0 25 24" fill="none" xmlns="http://www.w3.org/2000/svg">
<path d="M18.4138 16.1302C18.4138 13.9598 16.8812 12.6859 14.9841 12.6688C14.9841 11.3038 13.9128 8.57373 10.8891 8.57373C9.39 8.57373 8.371 9.24473 7.72451 10.0877L7.40332 10.5504" stroke="black" stroke-width="1.5" stroke-linecap="round" stroke-linejoin="round"/>
<path d="M4.36226 17.1147C3.62662 16.7823 3.11426 16.0417 3.11426 15.1814C3.11426 13.8517 4.05375 13.0712 5.21603 13.0607C5.21603 12.2244 5.87193 10.5518 7.72449 10.5518C9.57706 10.5518 10.2335 12.2244 10.2335 13.0607" stroke="black" stroke-width="1.5" stroke-linecap="round" stroke-linejoin="round"/>
<g opacity="0.4">
<path d="M12.843 17.7135C12.843 16.5153 11.8717 15.5439 10.6735 15.5439C9.47525 15.5439 8.50391 16.5153 8.50391 17.7135" stroke="black" stroke-width="1.5" stroke-linecap="round" stroke-linejoin="round"/>
<path d="M14.708 19.0273C14.708 18.3019 14.1199 17.7139 13.3945 17.7139C12.6691 17.7139 12.0811 18.3019 12.0811 19.0273" stroke="black" stroke-width="1.5" stroke-linecap="round" stroke-linejoin="round"/>
</g>
<path d="M9.32713 8.68829C9.32713 7.44171 8.31657 6.43115 7.06999 6.43115C5.89693 6.43115 4.93287 7.32603 4.82324 8.47036" stroke="black" stroke-width="1.5" stroke-linecap="round" stroke-linejoin="round"/>
<path d="M3.11426 9.59266C3.11426 8.93877 3.64434 8.40869 4.29823 8.40869C4.80765 8.40869 5.24192 8.73042 5.40895 9.18176" stroke="black" stroke-width="1.5" stroke-linecap="round" stroke-linejoin="round"/>
<path opacity="0.4" d="M20.4624 10.4282C18.7428 10.2802 17.1032 11.2635 16.4316 12.8671" stroke="black" stroke-width="1.5" stroke-linecap="round" stroke-linejoin="round"/>
<path opacity="0.4" d="M18.7325 7.92188C17.0386 8.31219 15.5294 9.32767 14.5341 10.7789" stroke="black" stroke-width="1.5" stroke-linecap="round" stroke-linejoin="round"/>
<path opacity="0.4" d="M21.1145 5.24398C17.8358 4.90387 14.6661 6.3862 12.8006 9.00311" stroke="black" stroke-width="1.5" stroke-linecap="round" stroke-linejoin="round"/>
</svg>