<svg width="25" height="24" viewBox="0 0 25 24" fill="none" xmlns="http://www.w3.org/2000/svg">
<path d="M16.4636 12.313C16.4636 14.1288 15.311 15.6752 13.6973 16.2598" stroke="black" stroke-width="1.5" stroke-linecap="round" stroke-linejoin="round"/>
<path d="M9.57485 4.00146L9.8028 5.15303M4.66719 12.8235L3.51562 13.0515M5.64661 7.9248L4.67117 7.27171" stroke="black" stroke-width="1.5" stroke-linecap="round" stroke-linejoin="round"/>
<path d="M14.7669 20.813L14.539 19.6614M19.6746 11.9909L20.8262 11.763M18.6952 16.8897L19.6706 17.5427" stroke="black" stroke-width="1.5" stroke-linecap="round" stroke-linejoin="round"/>
<path d="M8.07227 12.3128C8.07227 10.5483 9.16163 9.03778 10.705 8.41797" stroke="black" stroke-width="1.5" stroke-linecap="round" stroke-linejoin="round"/>
<path opacity="0.4" fill-rule="evenodd" clip-rule="evenodd" d="M15.3588 5.17717C14.35 5.18616 13.5352 5.86393 13.5352 7.01714C13.5352 7.76403 13.9797 8.40639 14.6181 8.6947C14.8868 8.80372 15.1543 8.84531 15.3571 8.84531H19.7104C19.9138 8.84531 20.1819 8.80597 20.4539 8.69694C21.0929 8.40808 21.5352 7.76403 21.5352 7.01714C21.5352 5.86393 20.7208 5.18616 19.712 5.17717C19.712 4.45163 19.1427 3 17.5354 3C15.9281 3 15.3588 4.45163 15.3588 5.17717Z" stroke="black" stroke-width="1.5" stroke-linecap="round" stroke-linejoin="round"/>
<path opacity="0.4" fill-rule="evenodd" clip-rule="evenodd" d="M5.35883 17.332C4.35005 17.3409 3.53516 18.0187 3.53516 19.1719C3.53516 19.9188 3.97969 20.5612 4.61812 20.8495C4.88675 20.9585 5.15426 21.0001 5.35714 21.0001H9.71036C9.9138 21.0001 10.1819 20.9608 10.4539 20.8517C11.0929 20.5629 11.5352 19.9188 11.5352 19.1719C11.5352 18.0187 10.7208 17.3409 9.71204 17.332C9.71204 16.6064 9.14274 15.1548 7.53544 15.1548C5.92813 15.1548 5.35883 16.6064 5.35883 17.332Z" stroke="black" stroke-width="1.5" stroke-linecap="round" stroke-linejoin="round"/>
</svg>