<svg width="25" height="24" viewBox="0 0 25 24" fill="none" xmlns="http://www.w3.org/2000/svg">
<path opacity="0.4" d="M19.9394 9.78034L21.0857 9.52751M17.0782 5.68516L17.71 4.6958" stroke="black" stroke-width="1.5" stroke-linecap="round" stroke-linejoin="round"/>
<path opacity="0.4" d="M5.85655 15.0342L4.71019 15.287M8.71769 19.1294L8.08588 20.1187" stroke="black" stroke-width="1.5" stroke-linecap="round" stroke-linejoin="round"/>
<path fill-rule="evenodd" clip-rule="evenodd" d="M11.3179 5.74342C12.589 5.75475 13.6159 6.6088 13.6159 8.06195C13.6159 9.0031 13.0557 9.81253 12.2512 10.1758C11.9127 10.3132 11.5756 10.3656 11.32 10.3656H5.83456C5.57821 10.3656 5.24041 10.316 4.89766 10.1786C4.09248 9.81465 3.53516 9.0031 3.53516 8.06195C3.53516 6.6088 4.56128 5.75475 5.83244 5.74342C5.83244 4.82918 6.54981 3 8.57515 3C10.6005 3 11.3179 4.82918 11.3179 5.74342Z" stroke="black" stroke-width="1.5" stroke-linecap="round" stroke-linejoin="round"/>
<path fill-rule="evenodd" clip-rule="evenodd" d="M19.2368 16.3777C20.508 16.389 21.5348 17.2431 21.5348 18.6962C21.5348 19.6374 20.9746 20.4468 20.1702 20.8101C19.8317 20.9475 19.4946 20.9999 19.2389 20.9999H13.7535C13.4972 20.9999 13.1594 20.9503 12.8166 20.8129C12.0114 20.4489 11.4541 19.6374 11.4541 18.6962C11.4541 17.2431 12.4802 16.389 13.7514 16.3777C13.7514 15.4635 14.4688 13.6343 16.4941 13.6343C18.5194 13.6343 19.2368 15.4635 19.2368 16.3777Z" stroke="black" stroke-width="1.5" stroke-linecap="round" stroke-linejoin="round"/>
<path opacity="0.4" d="M13.6289 8.10254C15.8169 8.54801 17.2912 10.639 16.9478 12.8688C16.9094 13.1179 16.85 13.3585 16.7715 13.5891" stroke="black" stroke-width="1.5" stroke-linecap="round" stroke-linejoin="round"/>
<path opacity="0.4" d="M8.98596 10.4111C8.81238 10.7744 8.6884 11.1689 8.62396 11.5874C8.26994 13.8861 9.84567 16.0365 12.1444 16.3905C12.4861 16.4432 12.8246 16.4531 13.1543 16.4244" stroke="black" stroke-width="1.5" stroke-linecap="round" stroke-linejoin="round"/>
</svg>