<svg width="25" height="24" viewBox="0 0 25 24" fill="none" xmlns="http://www.w3.org/2000/svg">
<path fill-rule="evenodd" clip-rule="evenodd" d="M4.7786 6.65865C3.54808 6.66962 2.55408 7.49636 2.55408 8.90305C2.55408 9.81411 3.09633 10.5977 3.87508 10.9493C4.20276 11.0823 4.52907 11.1331 4.77654 11.1331H10.0866C10.3348 11.1331 10.6618 11.0851 10.9936 10.9521C11.773 10.5997 12.3125 9.81411 12.3125 8.90305C12.3125 7.49636 11.3192 6.66962 10.0887 6.65865C10.0887 5.77364 9.39423 4.00293 7.43363 4.00293C5.47303 4.00293 4.7786 5.77364 4.7786 6.65865Z" stroke="black" stroke-width="1.5" stroke-linecap="round" stroke-linejoin="round"/>
<path opacity="0.4" d="M4.74051 11.2019C4.32032 13.5274 5.00902 16.014 6.80659 17.8116C9.49194 20.4969 13.7148 20.7076 16.6415 18.4437" stroke="black" stroke-width="1.5" stroke-linecap="round" stroke-linejoin="round"/>
<path opacity="0.4" d="M9.81836 5.4239C12.3911 4.60661 15.3195 5.21825 17.3601 7.25881C18.8501 8.74886 19.5783 10.7123 19.5445 12.665" stroke="black" stroke-width="1.5" stroke-linecap="round" stroke-linejoin="round"/>
<path d="M18.4551 18.3954C20.0904 18.3954 21.416 17.0698 21.416 15.4345C21.416 13.7993 20.0904 12.4736 18.4551 12.4736C17.1108 12.4736 15.9756 13.3696 15.6143 14.5969C15.3897 14.5078 15.1449 14.4588 14.8886 14.4588C13.8014 14.4588 12.9201 15.34 12.9201 16.4271C12.9201 17.5142 13.8014 18.3954 14.8886 18.3954C16.2998 18.3954 16.9424 18.3954 18.4551 18.3954Z" stroke="black" stroke-width="1.5" stroke-linecap="round" stroke-linejoin="round"/>
</svg>