<svg width="25" height="24" viewBox="0 0 25 24" fill="none" xmlns="http://www.w3.org/2000/svg">
<path opacity="0.4" d="M17.0186 4.45117L17.0131 4.47121M12.585 5.01572L12.5938 5.03119M20.5299 7.20542L20.5663 7.1847M21.1145 11.6402L21.0878 11.6329" stroke="black" stroke-width="1.5" stroke-linecap="round" stroke-linejoin="round"/>
<path opacity="0.4" d="M12.5077 8.28895C13.1155 7.28993 14.2146 6.62256 15.4696 6.62256C17.3829 6.62256 18.9332 8.17359 18.9332 10.0862C18.9332 11.2843 18.3252 12.3404 17.4008 12.9625" stroke="black" stroke-width="1.5" stroke-linecap="round" stroke-linejoin="round"/>
<path d="M18.4138 15.6087C18.4138 13.4383 16.8812 12.1644 14.9841 12.1473C14.9841 10.7823 13.9128 8.05225 10.8891 8.05225C9.39 8.05225 8.371 8.72324 7.72451 9.56625L7.40332 10.0289" stroke="black" stroke-width="1.5" stroke-linecap="round" stroke-linejoin="round"/>
<path d="M4.36226 16.5933C3.62662 16.2608 3.11426 15.5202 3.11426 14.6599C3.11426 13.3302 4.05375 12.5497 5.21603 12.5392C5.21603 11.7029 5.87193 10.0303 7.72449 10.0303C9.57706 10.0303 10.2335 11.7029 10.2335 12.5392" stroke="black" stroke-width="1.5" stroke-linecap="round" stroke-linejoin="round"/>
<path d="M9.32713 8.16681C9.32713 6.92022 8.31658 5.90967 7.06999 5.90967C5.89693 5.90967 4.93287 6.80454 4.82324 7.94888" stroke="black" stroke-width="1.5" stroke-linecap="round" stroke-linejoin="round"/>
<path d="M3.11426 9.07069C3.11426 8.4168 3.64434 7.88672 4.29823 7.88672C4.80765 7.88672 5.24192 8.20844 5.40895 8.65979" stroke="black" stroke-width="1.5" stroke-linecap="round" stroke-linejoin="round"/>
<path opacity="0.4" d="M6.93262 19.5483L7.23226 18.4819M14.6126 19.5483L14.9122 18.4819M13.7261 16.605L14.183 15.1817M9.78015 15.1816L9.17403 16.9672H11.4494L10.6354 19.1038" stroke="black" stroke-width="1.5" stroke-linecap="round" stroke-linejoin="round"/>
</svg>