<svg width="25" height="24" viewBox="0 0 25 24" fill="none" xmlns="http://www.w3.org/2000/svg">
<path d="M9.23741 13.7887C8.70518 12.9151 9.42995 11.5025 10.8562 10.6335C12.2825 9.76453 13.8702 9.76823 14.4025 10.6418C14.9347 11.5153 14.2099 12.928 12.7836 13.797C11.3573 14.6659 9.76964 14.6623 9.23741 13.7887Z" stroke="black" stroke-width="1.5" stroke-linecap="round" stroke-linejoin="round"/>
<path opacity="0.4" d="M21.1142 5.58903C19.509 2.95443 14.1842 2.83037 9.65696 5.58871C5.12969 8.34705 2.76086 12.7189 4.36604 15.3535C5.54118 17.2822 8.52042 17.7452 11.8088 16.7726" stroke="black" stroke-width="1.5" stroke-linecap="round" stroke-linejoin="round"/>
<path d="M3.11381 18.298C4.65634 20.9698 9.97673 21.2195 14.5679 18.5688C19.159 15.9181 21.6304 11.6034 20.0878 8.93166C18.9586 6.97569 15.9911 6.44252 12.6807 7.33727" stroke="black" stroke-width="1.5" stroke-linecap="round" stroke-linejoin="round"/>
</svg>