<svg width="25" height="24" viewBox="0 0 25 24" fill="none" xmlns="http://www.w3.org/2000/svg">
<path d="M12.2281 9.57617C7.65365 9.57617 3.94531 13.2845 3.94531 17.859C5.68766 17.9379 6.55547 18.1859 7.71769 19C11.2753 17.6195 13.1689 17.6443 16.7303 19C17.9796 18.0851 18.8325 17.8896 20.5109 17.859C20.5109 13.2845 16.8026 9.57617 12.2281 9.57617Z" stroke="black" stroke-width="1.5" stroke-linecap="round" stroke-linejoin="round"/>
<path opacity="0.4" d="M12.2285 17.9902V21.0002" stroke="black" stroke-width="1.5" stroke-linecap="round" stroke-linejoin="round"/>
<path d="M12.2285 8.04395L12.2285 9.5763" stroke="black" stroke-width="1.5" stroke-linecap="round" stroke-linejoin="round"/>
<path opacity="0.4" d="M15.8048 3L14.5391 6.6325" stroke="black" stroke-width="1.5" stroke-linecap="round" stroke-linejoin="round"/>
<path opacity="0.4" d="M11.0306 3L10.3721 4.88989" stroke="black" stroke-width="1.5" stroke-linecap="round" stroke-linejoin="round"/>
<path opacity="0.4" d="M19.3762 3L18.6299 5.14172" stroke="black" stroke-width="1.5" stroke-linecap="round" stroke-linejoin="round"/>
<path opacity="0.4" d="M20.51 7.43457L19.7637 9.57629" stroke="black" stroke-width="1.5" stroke-linecap="round" stroke-linejoin="round"/>
<path opacity="0.4" d="M5.84974 8.86545L6.86352 5.90606H3.71875L4.76517 2.95361" stroke="black" stroke-width="1.5" stroke-linecap="round" stroke-linejoin="round"/>
</svg>