<svg width="25" height="24" viewBox="0 0 25 24" fill="none" xmlns="http://www.w3.org/2000/svg">
<path opacity="0.4" d="M12.1144 11.3823C13.2638 9.2609 15.3801 8.61273 15.3801 6.0433L15.3802 6.03982C15.4143 4.36501 13.732 2.98048 12.1144 3.00025C10.4969 2.98048 8.81378 4.36501 8.84791 6.03982L8.84798 6.04332C8.84791 8.59654 11.1874 9.30733 12.1144 11.3823Z" stroke="black" stroke-width="1.5" stroke-linecap="round" stroke-linejoin="round"/>
<path d="M19.98 13.1696C20.4043 12.6267 20.4711 11.9128 20.2568 11.2977C19.894 10.2566 18.5761 9.61712 17.3559 10.2175C14.5727 11.593 14.8006 15.6143 14.8006 15.6143C14.8006 15.6143 16.0079 14.7214 17.4579 14.2208C18.3162 13.9245 19.3729 13.9467 19.98 13.1696Z" stroke="black" stroke-width="1.5" stroke-linecap="round" stroke-linejoin="round"/>
<path d="M4.24865 13.1696C3.82445 12.6267 3.75757 11.9128 3.97192 11.2977C4.33472 10.2566 5.65259 9.61712 6.87275 10.2175C9.656 11.593 9.42814 15.6143 9.42814 15.6143C9.42814 15.6143 8.2208 14.7214 6.77078 14.2208C5.91254 13.9245 4.85583 13.9467 4.24865 13.1696Z" stroke="black" stroke-width="1.5" stroke-linecap="round" stroke-linejoin="round"/>
<path opacity="0.4" d="M3.66504 20.9932C4.38285 21.0595 6.04381 20.6819 6.94519 18.6408C7.93938 20.0987 11.7498 20.397 12.1143 16.6528C12.4787 20.397 16.2893 20.0987 17.2835 18.6408C18.1849 20.6819 19.8458 21.0595 20.5636 20.9932" stroke="black" stroke-width="1.5" stroke-linecap="round" stroke-linejoin="round"/>
</svg>