<svg width="25" height="24" viewBox="0 0 25 24" fill="none" xmlns="http://www.w3.org/2000/svg">
<path opacity="0.4" d="M4.87498 14.2765H10.2364C11.05 14.2765 11.8636 14.5869 12.4834 15.2077C13.7249 16.4493 13.7249 18.461 12.4834 19.7026C11.2418 20.9442 9.23004 20.9442 7.98847 19.7026" stroke="black" stroke-width="1.5" stroke-linecap="round" stroke-linejoin="round"/>
<path d="M3.11426 9.01123H11.8965C12.619 9.01123 13.3415 8.73577 13.8925 8.18485C14.9943 7.08301 14.9943 5.2959 13.8925 4.19292C12.7906 3.08995 11.0035 3.09108 9.90054 4.19292" stroke="black" stroke-width="1.5" stroke-linecap="round" stroke-linejoin="round"/>
<path opacity="0.4" d="M15.1142 11.9334H18.7712C19.3712 11.9334 19.9702 12.1624 20.4282 12.6194C21.3432 13.5344 21.3432 15.0184 20.4282 15.9334C19.5132 16.8484 18.0292 16.8484 17.1142 15.9334" stroke="black" stroke-width="1.5" stroke-linecap="round" stroke-linejoin="round"/>
</svg>