<svg width="25" height="24" viewBox="0 0 25 24" fill="none" xmlns="http://www.w3.org/2000/svg">
<path d="M10.9484 19.2449C10.5977 19.7638 10.004 20.1048 9.33075 20.1048C8.25284 20.1048 7.38005 19.2312 7.38005 18.1541C7.38005 17.0762 8.16677 16.2026 9.33075 16.2026H21.1142" stroke="black" stroke-width="1.5" stroke-linecap="round" stroke-linejoin="round"/>
<path opacity="0.4" d="M7.83887 4.59503C8.12429 4.1728 8.6074 3.89524 9.15531 3.89524C10.0325 3.89524 10.7428 4.60616 10.7428 5.48269C10.7428 6.35988 10.1025 7.0708 9.15531 7.0708H4.0177" stroke="black" stroke-width="1.5" stroke-linecap="round" stroke-linejoin="round"/>
<path d="M5.16551 11.196C5.50155 10.6989 6.07034 10.3721 6.71543 10.3721C7.7482 10.3721 8.58443 11.2091 8.58443 12.2411C8.58443 13.2738 7.83067 14.1108 6.71543 14.1108H3.11425" stroke="black" stroke-width="1.5" stroke-linecap="round" stroke-linejoin="round"/>
<path opacity="0.4" d="M21.1147 13.2622H14.4225C12.6984 13.2622 11.5332 11.9683 11.5332 10.3717C11.5332 8.77635 12.8259 7.48242 14.4225 7.48242C15.8768 7.48242 16.5838 8.32868 16.5838 9.31971C16.5838 10.11 15.9324 10.9122 15.06 10.9122C14.6383 10.9122 14.2552 10.7469 13.972 10.4776" stroke="black" stroke-width="1.5" stroke-linecap="round" stroke-linejoin="round"/>
<path d="M16.3236 5.13867H20.0176" stroke="black" stroke-width="1.5" stroke-linecap="round" stroke-linejoin="round"/>
</svg>