<svg width="24" height="24" viewBox="0 0 24 24" fill="none" xmlns="http://www.w3.org/2000/svg">
<path d="M3.16016 10.1677C4.77176 15.7075 13.8876 24.1562 19.5843 18.7831C21.9143 16.5855 21.7717 11.8063 17.9714 10.6951C14.1978 9.59169 11.5241 9.16161 8.60308 6.55566C6.00008 4.23342 2.148 6.68843 3.16016 10.1677Z" stroke="black" stroke-width="1.5" stroke-linecap="round" stroke-linejoin="round"/>
<path d="M3.86554 6.67785C3.32481 6.08302 2.37314 4.56894 2.89223 3.27124" stroke="black" stroke-width="1.5" stroke-linecap="round" stroke-linejoin="round"/>
<path d="M8.91253 6.93262L8.63046 8.39949C8.55571 8.78826 8.21552 9.06926 7.81962 9.06926H6.94415C6.48813 9.06926 6.11845 9.43894 6.11845 9.89496V10.257C6.11845 10.713 5.74878 11.0827 5.29276 11.0827H3.65305" stroke="black" stroke-width="1.5" stroke-linecap="round" stroke-linejoin="round"/>
</svg>
