<svg width="24" height="24" viewBox="0 0 24 24" fill="none" xmlns="http://www.w3.org/2000/svg">
<path d="M11.8405 8.60143C12.5293 6.29412 12.605 4.05651 15.3978 4.08389C19.1941 4.04667 18.2158 7.88399 20.0896 11.0137C21.497 13.1671 21.2481 16.0809 19.5127 17.9701C18.3866 19.2417 16.8841 19.7757 15.3978 19.7301C15.0202 19.7417 14.6416 19.7159 14.2683 19.6501" stroke="black" stroke-width="1.5" stroke-linecap="round" stroke-linejoin="round"/>
<path d="M13.4667 19.7836C15.131 19.4441 16.3448 18.41 17.0484 17.1C17.8311 15.8356 18.1198 14.2674 17.5817 12.6564C16.8132 10.2089 14.4143 8.53644 11.8457 8.6786C8.19834 8.73655 5.3643 5.97059 3.49838 9.2769C1.568 12.546 5.77226 13.5597 7.15388 16.805C8.3151 19.1006 10.9629 20.3418 13.4667 19.7836Z" stroke="black" stroke-width="1.5" stroke-linecap="round" stroke-linejoin="round"/>
<path fill-rule="evenodd" clip-rule="evenodd" d="M13.1786 12.4599C11.9058 11.725 9.96933 12.0351 9.54522 12.7697C9.12112 13.5042 9.82079 15.3364 11.0936 16.0712C12.3663 16.8061 13.5778 16.4268 14.1532 15.4301C14.7291 14.4326 14.4513 13.1947 13.1786 12.4599Z" stroke="black" stroke-width="1.5" stroke-linecap="round" stroke-linejoin="round"/>
</svg>
