<svg width="24" height="24" viewBox="0 0 24 24" fill="none" xmlns="http://www.w3.org/2000/svg">
<path d="M7.26696 18.9725C8.56226 20.4351 10.2904 21.0494 12 20.9969C13.7096 21.0494 15.4377 20.4351 16.733 18.9725C18.729 16.7995 19.0154 13.4481 17.3965 10.9712C15.2412 7.37135 16.3666 2.95762 12 3.00043C7.63345 2.95762 9.04157 7.72853 6.60346 10.9712C4.9846 13.4481 5.27099 16.7995 7.26696 18.9725Z" stroke="black" stroke-width="1.5" stroke-linecap="round" stroke-linejoin="round"/>
<path fill-rule="evenodd" clip-rule="evenodd" d="M14.3967 14.4733C14.3967 12.7829 12.9741 11.0322 11.9985 11.0322C11.0229 11.0322 9.60022 12.7829 9.60022 14.4733C9.60022 16.1637 10.6748 17.1523 11.9985 17.1523C13.3233 17.1523 14.3967 16.1637 14.3967 14.4733Z" stroke="black" stroke-width="1.5" stroke-linecap="round" stroke-linejoin="round"/>
</svg>
