<svg width="24" height="24" viewBox="0 0 24 24" fill="none" xmlns="http://www.w3.org/2000/svg">
<path d="M11.3899 5.93576C13.2764 4.65153 15.1253 3.61755 16.8469 3.16965C19.0224 2.60309 19.8612 3.46152 19.2624 5.65553C18.7187 7.64941 17.4563 9.76885 15.8997 11.9262C15.1025 13.0318 14.2118 14.1044 12.9243 15.4118C9.91714 18.4435 5.93821 20.0094 4.16295 18.6841C2.61196 17.5267 3.20549 14.4697 5.43976 11.4173" stroke="black" stroke-width="1.5" stroke-linecap="round" stroke-linejoin="round"/>
<path d="M19.2702 3.52393C20.0209 4.32746 20.6133 5.65371 20.6885 7.0817C20.8303 9.76111 19.9731 12.2857 18.7005 14.7271C18.0491 15.9785 17.2443 17.1371 15.9663 18.4539C12.9708 21.4972 7.8511 21.9223 4.61012 19.1313C4.30303 18.8669 4.14404 18.7762 3.89033 18.4731" stroke="black" stroke-width="1.5" stroke-linecap="round" stroke-linejoin="round"/>
<path d="M9.97831 5.86743C7.46687 5.86743 5.43094 7.90336 5.43094 10.4148C5.43094 11.7408 5.99852 12.9343 6.904 13.7655C8.38475 15.1249 14.7445 9.12897 13.564 7.61775C12.7317 6.55237 11.435 5.86743 9.97831 5.86743Z" stroke="black" stroke-width="1.5" stroke-linecap="round" stroke-linejoin="round"/>
</svg>
