<svg width="24" height="24" viewBox="0 0 24 24" fill="none" xmlns="http://www.w3.org/2000/svg">
<path d="M7.18971 9.63131C8.19374 9.16351 9.56483 9.84371 9.47907 11.3374C9.441 12.7955 8.22908 13.9472 6.77089 13.9111H6.77739C4.94794 13.8462 3.51621 12.3127 3.57681 10.4831C3.70968 5.96203 7.47218 2.99999 11.9968 3C16.5214 3.00001 20.2902 5.96203 20.4231 10.4831C20.4837 12.3127 19.052 13.8462 17.2225 13.9111H17.229C15.7708 13.9472 14.5589 12.7955 14.5208 11.3374C14.452 10.1381 15.7771 9.02605 16.929 9.63131" stroke="black" stroke-width="1.5" stroke-linecap="round" stroke-linejoin="round"/>
<path d="M13.4683 7.07101C12.6092 6.26098 11.2038 6.32861 10.5316 7.24512" stroke="black" stroke-width="1.5" stroke-linecap="round" stroke-linejoin="round"/>
<path d="M14.5306 11.6187C14.787 13.4779 17.0161 19.9914 14.1345 20.719C12.6679 21.0894 11.4722 21.0986 9.99815 20.7167C7.18086 19.9869 9.26628 13.477 9.48417 11.6187" stroke="black" stroke-width="1.5" stroke-linecap="round" stroke-linejoin="round"/>
</svg>
