<svg width="24" height="24" viewBox="0 0 24 24" fill="none" xmlns="http://www.w3.org/2000/svg">
<path d="M16.3127 6.01233C18.6586 6.01233 20.675 8.867 20.675 12.2291C20.675 17.2611 16.7911 21.0001 12 21.0001C7.20897 21.0001 3.32508 17.2611 3.32508 12.2291C3.32508 9.37097 5.32012 6.01233 7.66602 6.01233H16.3127Z" stroke="black" stroke-width="1.5" stroke-linecap="round" stroke-linejoin="round"/>
<path d="M11.348 5.96552L10.8746 4.5018C10.7713 4.18239 10.5106 3.93882 10.1849 3.85741L6.75494 3" stroke="black" stroke-width="1.5" stroke-linecap="round" stroke-linejoin="round"/>
<path d="M20.2432 10.2456C19.4686 10.5042 18.5427 11.283 16.8957 11.399C16.2734 11.4429 15.5486 9.53322 14.8667 9.55608C14.2849 9.57559 12.849 11.395 12.2478 11.399C8.62874 11.4231 5.30993 10.7102 3.79312 10.1457" stroke="black" stroke-width="1.5" stroke-linecap="round" stroke-linejoin="round"/>
</svg>
