<svg width="24" height="24" viewBox="0 0 24 24" fill="none" xmlns="http://www.w3.org/2000/svg">
<path d="M18.845 5.15521C17.476 3.78378 15.463 3.23782 13.1819 3.61787C10.9826 3.98483 8.77915 5.17809 6.97864 6.9786C5.17813 8.77911 3.98487 10.9834 3.6179 13.1819C3.23786 15.463 3.78136 17.4735 5.15524 18.845C6.24143 19.932 7.72974 20.5 9.43544 20.5C9.89884 20.4987 10.3613 20.4593 10.8183 20.3823C13.0177 20.0153 15.2211 18.8221 17.0216 17.0216C18.8221 15.2211 20.0154 13.0168 20.3823 10.8183C20.7624 8.53719 20.2164 6.52418 18.845 5.15521Z" stroke="black" stroke-width="1.5" stroke-linecap="round" stroke-linejoin="round"/>
<path d="M18.3575 4.92932C17.3057 5.2963 16.3212 5.83341 15.4433 6.51925C13.6412 7.94212 12.4746 9.92812 11.9762 12.4219C11.0639 16.9814 7.78083 18.5395 5.64277 19.0707" stroke="black" stroke-width="1.5" stroke-linecap="round" stroke-linejoin="round"/>
</svg>
