<svg width="24" height="24" viewBox="0 0 24 24" fill="none" xmlns="http://www.w3.org/2000/svg">
<path d="M13.1231 11.6888C12.9346 9.78937 11.1658 8.40994 9.17231 8.60774C7.17881 8.80554 5.71554 10.5057 5.90401 12.4051C6.09247 14.3045 7.8613 15.6839 9.8548 15.4861C11.8483 15.2883 13.3116 13.5882 13.1231 11.6888Z" stroke="black" stroke-width="1.5" stroke-linecap="round" stroke-linejoin="round"/>
<path d="M8.38913 15.3915C7.89309 16.7241 8.23195 18.2453 9.34602 19.1582C10.7654 20.3214 12.9058 20.0567 14.1265 18.567C14.9068 17.6148 15.1226 16.3928 14.8062 15.3311" stroke="black" stroke-width="1.5" stroke-linecap="round" stroke-linejoin="round"/>
<path d="M12.6414 9.88903C13.8145 8.45746 15.8713 8.20307 17.2353 9.32082C18.5993 10.4386 18.754 12.5052 17.5809 13.9368C16.4078 15.3683 14.351 15.6227 12.987 14.505C12.8201 14.3682 12.6713 14.2172 12.5408 14.0549" stroke="black" stroke-width="1.5" stroke-linecap="round" stroke-linejoin="round"/>
<path d="M14.6363 17.7689C15.6735 19.2304 17.5447 20.2613 21 18.4431C20.4207 17.0373 19.6832 14.7749 17.1715 14.4154" stroke="black" stroke-width="1.5" stroke-linecap="round" stroke-linejoin="round"/>
<path d="M9.7997 8.46623C9.70572 7.20603 10.3039 5.72878 12.3242 4.1167C13.2788 5.10715 14.8236 6.49751 14.6069 8.56385" stroke="black" stroke-width="1.5" stroke-linecap="round" stroke-linejoin="round"/>
<path d="M8.51564 18.0989C7.59732 19.228 5.95751 19.9042 3 19.0327C3.31687 17.412 3.61815 14.764 6.62834 14.1479" stroke="black" stroke-width="1.5" stroke-linecap="round" stroke-linejoin="round"/>
<path d="M17.3786 16.8316C16.7232 16.5353 15.2921 15.8084 14.8108 15.2709" stroke="black" stroke-width="1.5" stroke-linecap="round" stroke-linejoin="round"/>
<path d="M6.35358 16.9356C6.87133 16.6266 7.9943 15.8853 8.34419 15.392" stroke="black" stroke-width="1.5" stroke-linecap="round" stroke-linejoin="round"/>
<path d="M12.5764 10.0989C12.5666 9.41565 12.4754 7.89346 12.1894 7.27051" stroke="black" stroke-width="1.5" stroke-linecap="round" stroke-linejoin="round"/>
</svg>
