<svg width="24" height="24" viewBox="0 0 24 24" fill="none" xmlns="http://www.w3.org/2000/svg">
<path d="M11.4514 11.2669H3.08544C2.84104 9.66133 3.07013 8.08282 4.442 6.96218C6.3508 5.65813 10.3797 5.66853 12.2836 6.96218C13.0256 7.56829 13.4483 8.3071 13.6395 9.11145" stroke="black" stroke-width="1.5" stroke-linecap="round" stroke-linejoin="round"/>
<path d="M8.38759 5.98798C8.14652 4.91081 8.87977 3.16418 10.4527 3.16418" stroke="black" stroke-width="1.5" stroke-linecap="round" stroke-linejoin="round"/>
<path d="M3.9077 11.2666C3.9077 15.7495 4.10461 16.7121 8.34253 18.5047C8.77561 18.3215 8.97812 18.2249 9.3309 18.0544" stroke="black" stroke-width="1.5" stroke-linecap="round" stroke-linejoin="round"/>
<path d="M20.9787 14.4635C20.5511 12.1917 17.6949 9.35021 15.4338 8.91866C13.669 8.74078 12.3564 9.65822 11.4039 10.9765L18.894 18.4666C20.2022 17.5041 21.1563 16.226 20.9787 14.4635Z" stroke="black" stroke-width="1.5" stroke-linecap="round" stroke-linejoin="round"/>
<path d="M18.8776 10.9846C19.8097 10.3934 20.5263 8.63984 19.414 7.52759" stroke="black" stroke-width="1.5" stroke-linecap="round" stroke-linejoin="round"/>
<path d="M18.3128 17.885C15.1428 21.0549 14.323 21.5962 10.0588 19.8672C8.32968 15.6029 8.87103 14.7831 12.041 11.6132" stroke="black" stroke-width="1.5" stroke-linecap="round" stroke-linejoin="round"/>
</svg>
