<svg width="24" height="24" viewBox="0 0 24 24" fill="none" xmlns="http://www.w3.org/2000/svg">
<path d="M12 18.5099C7.66196 18.5099 4.14529 15.6965 4.14529 12.2261C4.14686 8.56699 8.24071 6.41662 10.5827 4.82369C11.7078 4.05847 11.9663 2.99958 11.9663 2.99958C13.7443 6.2087 19.8528 7.79772 19.8547 12.2261C19.8547 15.6965 16.338 18.5099 12 18.5099Z" stroke="black" stroke-width="1.5" stroke-linecap="round" stroke-linejoin="round"/>
<path d="M12.0002 20.9995L12.0002 18.5706" stroke="black" stroke-width="1.5" stroke-linecap="round" stroke-linejoin="round"/>
<path d="M12.9822 18.5106L14.8638 20.3927" stroke="black" stroke-width="1.5" stroke-linecap="round" stroke-linejoin="round"/>
<path d="M11.0183 18.5106L9.13666 20.3927" stroke="black" stroke-width="1.5" stroke-linecap="round" stroke-linejoin="round"/>
<path fill-rule="evenodd" clip-rule="evenodd" d="M15.1625 12.0852C15.1616 6.86366 12 5.56902 12 2.99949C12 5.56903 8.83834 6.86365 8.8374 12.0852C8.8374 15.4305 10.2533 18.1423 12 18.1423C13.7466 18.1423 15.1625 15.4305 15.1625 12.0852Z" stroke="black" stroke-width="1.5" stroke-linecap="round" stroke-linejoin="round"/>
</svg>
