<svg width="24" height="24" viewBox="0 0 24 24" fill="none" xmlns="http://www.w3.org/2000/svg">
<path d="M5.41413 13.0981C7.07567 10.2202 9.33914 6.28436 13.0936 8.45203L14.2851 9.13992C18.0396 11.3076 15.7628 15.2357 14.1012 18.1136C11.1038 23.3053 2.31297 18.4695 5.41413 13.0981Z" stroke="black" stroke-width="1.5" stroke-linecap="round" stroke-linejoin="round"/>
<path d="M9.23656 8.57373L14.8282 16.8579" stroke="black" stroke-width="1.5" stroke-linecap="round" stroke-linejoin="round"/>
<path d="M6.30588 11.7297L11.8975 20.0139" stroke="black" stroke-width="1.5" stroke-linecap="round" stroke-linejoin="round"/>
<path d="M6.07878 12.0714L15.8711 11.3835" stroke="black" stroke-width="1.5" stroke-linecap="round" stroke-linejoin="round"/>
<path d="M5.22952 16.8579L15.1996 16.1575" stroke="black" stroke-width="1.5" stroke-linecap="round" stroke-linejoin="round"/>
<path d="M11.3665 7.84683C11.7412 7.19614 12.1874 5.5771 10.9748 4.30652C11.9937 4.43878 13.9117 5.13327 14.6011 6.86798" stroke="black" stroke-width="1.5" stroke-linecap="round" stroke-linejoin="round"/>
<path d="M15.9212 10.4421C16.3311 10.0608 17.4822 9.28039 18.8072 9.20876C18.6263 8.83489 18.0067 7.99547 16.9762 7.62869C17.2841 7.12514 18.1678 6.12052 19.2388 6.13038C18.655 5.58743 17.1298 4.6372 15.6985 5.1798C15.589 4.7099 15.1341 3.61607 14.1904 3" stroke="black" stroke-width="1.5" stroke-linecap="round" stroke-linejoin="round"/>
</svg>
