<svg width="25" height="24" viewBox="0 0 25 24" fill="none" xmlns="http://www.w3.org/2000/svg">
<path opacity="0.4" d="M20.2673 9.05678C21.1996 7.42799 21.2665 6.02243 20.9283 5.1471C20.1422 3.11261 15.6996 4.6872 11.0054 8.66405C6.31128 12.6409 3.14318 17.5141 3.92928 19.5485C4.56564 21.1955 7.59815 20.4774 11.2205 18.0344" stroke="black" stroke-width="1.5" stroke-linecap="round" stroke-linejoin="round"/>
<path d="M4.06462 7.10847C4.69874 6.40422 4.95844 5.43929 4.76033 4.51204C5.4643 5.14724 6.42912 5.40518 7.35676 5.20775C6.72157 5.91172 6.46294 6.87694 6.66105 7.80419" stroke="black" stroke-width="1.5" stroke-linecap="round" stroke-linejoin="round"/>
<path d="M13.0845 10.624C15.103 12.5111 17.929 13.2683 20.6205 12.6435C18.7336 14.6619 17.9764 17.4879 18.6014 20.1795C16.5829 18.2925 13.7569 17.5352 11.0654 18.1601C12.9523 16.1416 13.7095 13.3156 13.0845 10.624Z" stroke="black" stroke-width="1.5" stroke-linecap="round" stroke-linejoin="round"/>
</svg>