<svg width="25" height="24" viewBox="0 0 25 24" fill="none" xmlns="http://www.w3.org/2000/svg">
<path d="M2.91748 18.9399C2.62473 16.8738 3.39837 12.1642 8.83492 9.854" stroke="black" stroke-width="1.5" stroke-linecap="round" stroke-linejoin="round"/>
<path d="M6.85921 17.6166C6.69297 16.4434 7.13229 13.7689 10.2195 12.457" stroke="black" stroke-width="1.5" stroke-linecap="round" stroke-linejoin="round"/>
<path opacity="0.4" d="M16.8066 4C17.4265 6.03653 19.0202 7.63035 21.0566 8.2502C19.0202 8.87006 17.4265 10.4639 16.8066 12.5004C16.1868 10.4639 14.5931 8.87006 12.5566 8.2502C14.5931 7.63035 16.1868 6.03653 16.8066 4Z" stroke="black" stroke-width="1.5" stroke-linecap="round" stroke-linejoin="round"/>
<path opacity="0.4" d="M4.46622 4C4.74842 4.92721 5.47402 5.65285 6.40118 5.93506C5.47402 6.21727 4.74841 6.94291 4.46622 7.87012C4.18402 6.94291 3.45841 6.21727 2.53125 5.93506C3.45841 5.65285 4.18402 4.92721 4.46622 4Z" stroke="black" stroke-width="1.5" stroke-linecap="round" stroke-linejoin="round"/>
<path opacity="0.4" d="M13.9399 16.4536C14.2221 17.3808 14.9477 18.1065 15.8749 18.3887C14.9477 18.6709 14.2221 19.3965 13.9399 20.3237C13.6577 19.3965 12.9321 18.6709 12.005 18.3887C12.9321 18.1065 13.6577 17.3808 13.9399 16.4536Z" stroke="black" stroke-width="1.5" stroke-linecap="round" stroke-linejoin="round"/>
</svg>