<svg width="25" height="24" viewBox="0 0 25 24" fill="none" xmlns="http://www.w3.org/2000/svg">
<path fill-rule="evenodd" clip-rule="evenodd" d="M21.1143 6.01415C19.7561 6.45487 18.6917 7.51924 18.251 8.87742C17.8103 7.51924 16.7459 6.45487 15.3877 6.01415C16.7459 5.57342 17.8103 4.50906 18.251 3.15088C18.6917 4.50906 19.7561 5.57342 21.1143 6.01415Z" stroke="black" stroke-width="1.5" stroke-linecap="round" stroke-linejoin="round"/>
<path opacity="0.4" fill-rule="evenodd" clip-rule="evenodd" d="M12.7901 11.2313L17.5342 12.7695C17.9749 12.9125 17.9749 13.5362 17.5342 13.6792L12.7901 15.2175C12.6441 15.2651 12.5303 15.379 12.4826 15.5249L10.9444 20.269C10.8013 20.7098 10.1777 20.7098 10.0346 20.269L8.4964 15.5249C8.4497 15.379 8.33489 15.2651 8.18895 15.2175L3.44482 13.6792C3.00407 13.5362 3.00407 12.9125 3.44482 12.7695L8.18895 11.2313C8.33489 11.1836 8.4497 11.0698 8.4964 10.9238L10.0346 6.17968C10.1777 5.73893 10.8013 5.73893 10.9444 6.17968L12.4826 10.9238C12.5303 11.0698 12.6441 11.1836 12.7901 11.2313Z" stroke="black" stroke-width="1.5" stroke-linecap="round" stroke-linejoin="round"/>
</svg>