<svg width="25" height="24" viewBox="0 0 25 24" fill="none" xmlns="http://www.w3.org/2000/svg">
<path d="M12.6504 3.7876C13.2834 5.3074 15.1835 5.81653 16.4917 4.81686C16.28 6.44957 17.671 7.84055 19.3037 7.62887C18.304 8.937 18.8131 10.8371 20.3329 11.4701C18.8131 12.1032 18.304 14.0033 19.3037 15.3114C17.671 15.0997 16.28 16.4907 16.4917 18.1234C15.1835 17.1238 13.2834 17.6329 12.6504 19.1527C12.0173 17.6329 10.1172 17.1238 8.80911 18.1234C9.02078 16.4907 7.6298 15.0997 5.9971 15.3114C6.99677 14.0033 6.48763 12.1032 4.96783 11.4701C6.48763 10.8371 6.99677 8.937 5.9971 7.62887C7.6298 7.84055 9.02078 6.44957 8.80911 4.81686C10.1172 5.81653 12.0173 5.3074 12.6504 3.7876Z" stroke="black" stroke-width="1.5" stroke-linecap="round" stroke-linejoin="round"/>
<circle opacity="0.4" cx="12.6519" cy="11.47" r="3.69001" stroke="black" stroke-width="1.5" stroke-linecap="round" stroke-linejoin="round"/>
<path opacity="0.4" d="M13.8895 11.4702C13.8895 10.7875 13.3361 10.2341 12.6534 10.2341" stroke="black" stroke-width="1.5" stroke-linecap="round" stroke-linejoin="round"/>
<path d="M16.4492 5.00184L17.5864 3.29614" stroke="black" stroke-width="1.5" stroke-linecap="round" stroke-linejoin="round"/>
<path d="M16.508 18.0188L17.3904 19.3628" stroke="black" stroke-width="1.5" stroke-linecap="round" stroke-linejoin="round"/>
<path d="M6.18157 15.2642L4.89844 16.1624" stroke="black" stroke-width="1.5" stroke-linecap="round" stroke-linejoin="round"/>
<path d="M6.05467 7.65097L5.37012 7.09497" stroke="black" stroke-width="1.5" stroke-linecap="round" stroke-linejoin="round"/>
<path d="M20.2109 11.5864H21.3643" stroke="black" stroke-width="1.5" stroke-linecap="round" stroke-linejoin="round"/>
<path d="M7.92006 2.94225L8.78696 4.67702" stroke="black" stroke-width="1.5" stroke-linecap="round" stroke-linejoin="round"/>
<path d="M12.6672 21.0496V21.0578" stroke="black" stroke-width="1.5" stroke-linecap="round" stroke-linejoin="round"/>
<path d="M21.0362 6.70803V6.71624" stroke="black" stroke-width="1.5" stroke-linecap="round" stroke-linejoin="round"/>
<path d="M21.0263 16.4084L21.0363 16.4184" stroke="black" stroke-width="1.5" stroke-linecap="round" stroke-linejoin="round"/>
<path d="M2.87426 11.4592L2.86426 11.4592" stroke="black" stroke-width="1.5" stroke-linecap="round" stroke-linejoin="round"/>
</svg>