<svg width="25" height="25" viewBox="0 0 25 25" fill="none" xmlns="http://www.w3.org/2000/svg">
<path opacity="0.4" d="M11.7558 20.2771L10.3343 18.8507C9.92954 18.4446 9.38078 18.2171 8.80867 18.2171H7.74035C5.56478 18.2171 3.80078 16.4472 3.80078 14.2642V7.32496C3.80078 5.14204 5.56478 3.37305 7.74035 3.37305H17.8622C20.0378 3.37305 21.8008 5.14204 21.8008 7.32496V14.2642C21.8008 16.4472 20.0378 18.2171 17.8622 18.2171H16.7939C16.2218 18.2171 15.673 18.4446 15.2682 18.8507L13.8458 20.2771C13.2688 20.857 12.3338 20.857 11.7558 20.2771Z" stroke="black" stroke-width="1.5" stroke-linecap="round" stroke-linejoin="round"/>
<path d="M8.80273 13.177V9.71025M12.8001 13.1771V7.82422M16.7984 13.177V10.9678" stroke="black" stroke-width="1.5" stroke-linecap="round" stroke-linejoin="round"/>
</svg>