<svg width="25" height="26" viewBox="0 0 25 26" fill="none" xmlns="http://www.w3.org/2000/svg">
<path opacity="0.4" d="M12.5657 21.784C11.693 21.781 7.80607 21.783 5.51185 21.784C4.82981 21.784 4.42701 21.0225 4.80549 20.4533C5.01856 20.1341 5.29002 19.7456 5.50407 19.4439C5.71909 19.1403 5.73757 18.742 5.55271 18.4208C5.22677 17.8536 4.74127 16.9906 4.61479 16.6782C3.10866 13.4107 3.69048 9.41692 6.37778 6.72054C10.0546 3.03132 16.1929 3.29588 19.5165 7.51325C20.4155 8.6535 20.9876 9.97924 21.2357 11.3557" stroke="black" stroke-width="1.5" stroke-linecap="round" stroke-linejoin="round"/>
<path d="M9.19727 10.9219H13.8918M9.19727 14.4474H11.2239" stroke="black" stroke-width="1.5" stroke-linecap="round" stroke-linejoin="round"/>
<path d="M20.1622 19.5753L21.8006 21.2163M18.1286 14.3809C19.7787 14.3809 21.1165 15.7232 21.1165 17.3789C21.1165 19.0346 19.7787 20.3779 18.1286 20.3779C16.4784 20.3779 15.1406 19.0346 15.1406 17.3789C15.1406 15.7232 16.4784 14.3809 18.1286 14.3809Z" stroke="black" stroke-width="1.5" stroke-linecap="round" stroke-linejoin="round"/>
</svg>