<svg width="24" height="24" viewBox="0 0 24 24" fill="none" xmlns="http://www.w3.org/2000/svg">
<path d="M4.77686 6.63218C5.19717 6.05912 5.68461 5.53957 6.22849 5.08034" stroke="black" stroke-width="1.5" stroke-linecap="round" stroke-linejoin="round"/>
<path d="M3.32472 9.5459C3.06203 10.5091 2.94819 11.5278 3.02603 12.5795" stroke="black" stroke-width="1.5" stroke-linecap="round" stroke-linejoin="round"/>
<path d="M6.84973 19.3619C5.49344 18.424 4.40861 17.1183 3.73047 15.5791" stroke="black" stroke-width="1.5" stroke-linecap="round" stroke-linejoin="round"/>
<path d="M17.5599 19.0859C16.2036 20.1494 14.5292 20.8363 12.6816 20.9744C11.7719 21.0425 10.8836 20.9705 10.0371 20.7808" stroke="black" stroke-width="1.5" stroke-linecap="round" stroke-linejoin="round"/>
<path d="M19.6441 16.7243C20.5538 15.2561 21.0607 13.5194 20.9896 11.664C20.798 6.69129 16.6133 2.81605 11.6406 3.00675" stroke="black" stroke-width="1.5" stroke-linecap="round" stroke-linejoin="round"/>
<path fill-rule="evenodd" clip-rule="evenodd" d="M8.30274 12.243C7.8688 10.8858 8.37571 9.33492 9.8001 8.87666C10.5502 8.63634 11.3695 8.7745 11.9989 9.24638C12.6294 8.77839 13.4457 8.64121 14.1939 8.87666C15.6183 9.33492 16.1301 10.8858 15.6952 12.243C15.019 14.3923 11.9989 16.0502 11.9989 16.0502C11.9989 16.0502 9.00228 14.4176 8.30274 12.243Z" stroke="black" stroke-width="1.5" stroke-linecap="round" stroke-linejoin="round"/>
</svg>
