<svg width="24" height="24" viewBox="0 0 24 24" fill="none" xmlns="http://www.w3.org/2000/svg">
<path fill-rule="evenodd" clip-rule="evenodd" d="M12.8486 12.2499C12.8496 10.7184 13.879 9.29303 15.4834 9.29205C15.8979 9.29303 16.3066 9.39324 16.6743 9.58492C17.0421 9.77562 17.3243 10.1629 17.5636 10.5015C17.9567 10.3682 18.4111 10.2193 18.8207 10.2786C19.2303 10.338 19.6205 10.4927 19.9591 10.7311C21.2609 11.6719 21.2716 13.4272 20.3804 14.6716C18.9861 16.6516 15.4426 17.1001 15.4426 17.1001C15.4426 17.1001 12.8613 14.7105 12.8486 12.2499Z" stroke="black" stroke-width="1.5" stroke-linecap="round" stroke-linejoin="round"/>
<path d="M14.0872 15.6485C12.8602 17.2481 11.575 18.3076 11.575 18.3076C11.575 18.3076 5.89184 17.2384 3.83012 13.9205C2.50493 11.8199 2.70147 8.98368 4.89065 7.59039C5.45984 7.23623 6.10784 7.0212 6.77529 6.97158C7.43205 6.91223 8.15886 7.19731 8.77669 7.4425C9.19896 6.92293 9.69031 6.32456 10.3081 6.04921C10.9172 5.78359 11.5847 5.66586 12.2521 5.69602C14.382 5.82348 15.785 7.4425 16.1382 9.38649" stroke="black" stroke-width="1.5" stroke-linecap="round" stroke-linejoin="round"/>
</svg>
