<svg width="24" height="24" viewBox="0 0 24 24" fill="none" xmlns="http://www.w3.org/2000/svg">
<path d="M18.5003 5.50008L17.5001 6.50025M5.5228 18.5218L6.52298 17.5216M5.5 5.5224L6.50018 6.52258M18.5222 18.4997L17.522 17.4995" stroke="black" stroke-width="1.5" stroke-linecap="round" stroke-linejoin="round"/>
<path d="M21 11.9996H19.9551M4.04493 11.9996H3M11.9996 19.9993V20.9994M11.9996 3V4.00018" stroke="black" stroke-width="1.5" stroke-linecap="round" stroke-linejoin="round"/>
<path d="M10.0843 9.39234C8.84377 9.79221 8.40108 11.1436 8.77955 12.3267C9.38958 14.222 12.0009 15.6434 12.0009 15.6434C12.0009 15.6434 14.6327 14.1996 15.2213 12.3267C15.5998 11.1436 15.1542 9.79221 13.9137 9.39234C13.2609 9.18705 12.5497 9.30769 12.0009 9.71535C11.4522 9.3038 10.7381 9.18413 10.0843 9.39234Z" stroke="black" stroke-width="1.5" stroke-linecap="round" stroke-linejoin="round"/>
</svg>
