<svg width="24" height="24" viewBox="0 0 24 24" fill="none" xmlns="http://www.w3.org/2000/svg">
<path d="M6.79459 6.28729H17.2044C19.5435 6.28729 21 7.93843 21 10.2765V16.5823C21 18.9194 19.5435 20.5705 17.2035 20.5705H6.79459C4.45557 20.5705 3 18.9194 3 16.5823V10.2765C3 7.93843 4.46238 6.28729 6.79459 6.28729Z" stroke="black" stroke-width="1.5" stroke-linecap="round" stroke-linejoin="round"/>
<path d="M15.36 6.27174V5.64904C15.36 4.42309 14.3666 3.42969 13.1406 3.42969H10.86C9.63403 3.42969 8.64062 4.42309 8.64062 5.64904V6.27174" stroke="black" stroke-width="1.5" stroke-linecap="round" stroke-linejoin="round"/>
<path fill-rule="evenodd" clip-rule="evenodd" d="M15.1209 13.7051C15.4848 12.5697 15.0615 11.2688 13.8735 10.8855C13.5651 10.7872 13.2392 10.7648 12.921 10.8183C12.6028 10.8719 12.3022 11.0917 12.0434 11.2863C11.7836 11.0937 11.4829 10.8748 11.1648 10.8213C10.8476 10.7668 10.5217 10.7892 10.2132 10.8855C9.02425 11.2717 8.59808 12.5697 8.96198 13.7051C9.52338 15.5051 12.0434 16.6815 12.0434 16.6815C12.0434 16.6815 14.5245 15.5256 15.1209 13.7051Z" stroke="black" stroke-width="1.5" stroke-linecap="round" stroke-linejoin="round"/>
<path d="M17.0254 17.9011C17.1665 17.2307 17.7104 16.6625 18.3739 16.4922" stroke="black" stroke-width="1.5" stroke-linecap="round" stroke-linejoin="round"/>
<path d="M6.97549 17.9011C6.83441 17.2307 6.29052 16.6625 5.62695 16.4922" stroke="black" stroke-width="1.5" stroke-linecap="round" stroke-linejoin="round"/>
<path d="M6.97549 8.7207C6.83441 9.39108 6.29052 9.9593 5.62695 10.1296" stroke="black" stroke-width="1.5" stroke-linecap="round" stroke-linejoin="round"/>
<path d="M17.0254 8.7207C17.1665 9.39108 17.7104 9.9593 18.3739 10.1296" stroke="black" stroke-width="1.5" stroke-linecap="round" stroke-linejoin="round"/>
</svg>
