<svg width="24" height="24" viewBox="0 0 24 24" fill="none" xmlns="http://www.w3.org/2000/svg">
<path d="M6.79459 6.28729H17.2044C19.5435 6.28729 21 7.93843 21 10.2765V16.5823C21 18.9194 19.5435 20.5705 17.2035 20.5705H6.79459C4.45557 20.5705 3 18.9194 3 16.5823V10.2765C3 7.93843 4.46238 6.28729 6.79459 6.28729Z" stroke="black" stroke-width="1.5" stroke-linecap="round" stroke-linejoin="round"/>
<path fill-rule="evenodd" clip-rule="evenodd" d="M8.99351 13.3962C8.64032 12.2928 9.05286 11.0309 10.2117 10.6582C10.8208 10.4636 11.4872 10.5755 11.999 10.9599C12.5118 10.5785 13.1754 10.4666 13.7844 10.6582C14.9423 11.0309 15.3587 12.2928 15.0055 13.3962C14.4548 15.1436 11.999 16.4922 11.999 16.4922C11.999 16.4922 9.5627 15.1641 8.99351 13.3962Z" stroke="black" stroke-width="1.5" stroke-linecap="round" stroke-linejoin="round"/>
<path d="M15.36 6.27174V5.64904C15.36 4.42309 14.3666 3.42969 13.1406 3.42969H10.86C9.63403 3.42969 8.64062 4.42309 8.64062 5.64904V6.27174" stroke="black" stroke-width="1.5" stroke-linecap="round" stroke-linejoin="round"/>
<path d="M3 13.1006H8.87189" stroke="black" stroke-width="1.5" stroke-linecap="round" stroke-linejoin="round"/>
<path d="M15.1289 13.1006H21.0008" stroke="black" stroke-width="1.5" stroke-linecap="round" stroke-linejoin="round"/>
</svg>
