<svg width="24" height="24" viewBox="0 0 24 24" fill="none" xmlns="http://www.w3.org/2000/svg">
<path d="M17.1421 3.998C20.4794 5.07315 21.6665 8.72868 20.6448 11.9143C18.9713 17.0254 12.0037 20.2703 12.0037 20.2703C12.0037 20.2703 4.93007 16.967 3.35383 11.9143C2.33218 8.72868 3.52896 5.08288 6.86632 3.998C7.73034 3.72848 8.64592 3.66621 9.53816 3.81799C10.4304 3.96881 11.2749 4.58276 12.0037 5.12277C12.7296 4.5779 13.5751 3.96102 14.4683 3.80924C15.3615 3.65842 16.2781 3.72264 17.1421 3.998Z" stroke="black" stroke-width="1.5" stroke-linecap="round" stroke-linejoin="round"/>
<path fill-rule="evenodd" clip-rule="evenodd" d="M13.4057 10.8571C13.4057 10.0817 12.7771 9.45215 12.0007 9.45215C11.2252 9.45215 10.5957 10.0817 10.5957 10.8571C10.5957 11.6326 11.2252 12.2621 12.0007 12.2621C12.7771 12.2621 13.4057 11.6326 13.4057 10.8571Z" stroke="black" stroke-width="1.5" stroke-linecap="round" stroke-linejoin="round"/>
<path d="M12 14.5465V12.3145" stroke="black" stroke-width="1.5" stroke-linecap="round" stroke-linejoin="round"/>
</svg>
