<svg width="24" height="24" viewBox="0 0 24 24" fill="none" xmlns="http://www.w3.org/2000/svg">
<path d="M21 15.094C21 17.8592 19.1552 20.1068 16.4183 20.1H7.58173C4.84476 20.1068 3 17.8592 3 15.094V8.91275C3 6.15048 4.84476 3.89999 7.58173 3.89999H16.4183C19.1552 3.89999 21 6.15048 21 8.91275V15.094Z" stroke="black" stroke-width="1.5" stroke-linecap="round" stroke-linejoin="round"/>
<path d="M7.42561 15.1532L3.67285 17.7277" stroke="black" stroke-width="1.5" stroke-linecap="round" stroke-linejoin="round"/>
<path d="M20.3309 17.7268L16.5781 15.1523" stroke="black" stroke-width="1.5" stroke-linecap="round" stroke-linejoin="round"/>
<path d="M6.67836 8.3403L3.67188 6.27954" stroke="black" stroke-width="1.5" stroke-linecap="round" stroke-linejoin="round"/>
<path d="M20.3327 6.2793L17.3359 8.34005" stroke="black" stroke-width="1.5" stroke-linecap="round" stroke-linejoin="round"/>
<path fill-rule="evenodd" clip-rule="evenodd" d="M14.8987 11.4818C15.0972 10.3648 14.5329 9.19528 13.3605 8.98414C12.7446 8.8742 12.1121 9.06977 11.6655 9.50955C11.1187 9.20695 10.461 9.18458 9.89473 9.44922C8.8196 9.96198 8.58024 11.2395 9.06673 12.264C9.82857 13.8889 12.3855 14.8755 12.3855 14.8755C12.3855 14.8755 14.5767 13.2711 14.8987 11.4818Z" stroke="black" stroke-width="1.5" stroke-linecap="round" stroke-linejoin="round"/>
</svg>
