<svg width="24" height="24" viewBox="0 0 24 24" fill="none" xmlns="http://www.w3.org/2000/svg">
<path fill-rule="evenodd" clip-rule="evenodd" d="M15.5357 3.47276C12.4669 3.47276 9.97999 5.88479 9.97999 8.86018C9.97999 10.093 10.8849 11.0932 11.9999 11.0932C13.1159 11.0932 14.0208 10.093 14.0208 8.86018C14.0208 5.88479 11.5329 3.47276 8.46505 3.47276C7.91921 3.49806 7.38309 3.5866 6.85574 3.74325C3.52326 4.81646 2.33622 8.44472 3.35202 11.6205C4.98955 16.7092 12.0009 20.5272 12.0009 20.5272C12.0009 20.5272 19.0667 16.6499 20.6488 11.6205C21.6655 8.44472 20.4688 4.81646 17.1363 3.74325C16.6041 3.57201 16.0709 3.47374 15.5357 3.47276Z" stroke="black" stroke-width="1.5" stroke-linecap="round" stroke-linejoin="round"/>
</svg>
