<svg width="24" height="24" viewBox="0 0 24 24" fill="none" xmlns="http://www.w3.org/2000/svg">
<path fill-rule="evenodd" clip-rule="evenodd" d="M6.09101 7.76678C6.14076 7.80276 6.18733 7.84404 6.24554 7.86839C6.34292 7.90755 6.44453 7.92872 6.5472 7.92872H8.60268C9.04088 7.92872 9.39651 7.57308 9.39651 7.13489C9.39651 6.6967 9.04088 6.34106 8.60268 6.34106H8.43757L9.17 5.59381C9.47589 5.28051 9.4706 4.77881 9.15836 4.4708C8.84401 4.16492 8.34337 4.16915 8.03536 4.48245L7.34103 5.19054V5.03813C7.34103 4.59993 6.98645 4.2443 6.5472 4.2443C6.10901 4.2443 5.75337 4.59993 5.75337 5.03813V7.13489C5.75337 7.13701 5.75443 7.13912 5.75443 7.13912C5.75549 7.24285 5.7756 7.34552 5.81582 7.44184C5.85604 7.53921 5.91531 7.62495 5.9894 7.69798L5.99152 7.70221C6.02116 7.73079 6.0582 7.74349 6.09101 7.76678Z" fill="black"/>
<path fill-rule="evenodd" clip-rule="evenodd" d="M5.71432 8.33439C5.6741 8.23807 5.61482 8.15234 5.54179 8.0793C5.54179 8.0793 5.53968 8.07719 5.53862 8.07507C5.51427 8.05178 5.48252 8.04226 5.45606 8.02215C5.40102 7.97981 5.34704 7.93536 5.28142 7.9089C5.21368 7.88138 5.1417 7.87397 5.06973 7.86656C5.04009 7.86338 5.01363 7.84857 4.98294 7.84857H2.9264C2.4882 7.84857 2.13257 8.2042 2.13257 8.64239C2.13257 9.08059 2.4882 9.43622 2.9264 9.43622H3.09363L2.36013 10.1835C2.05319 10.4968 2.05742 10.9995 2.37072 11.3065C2.52631 11.4578 2.72635 11.533 2.9264 11.533C3.13279 11.533 3.33813 11.4536 3.49372 11.2948L4.18911 10.5857V10.7392C4.18911 11.1773 4.54475 11.533 4.98294 11.533C5.42113 11.533 5.77677 11.1773 5.77677 10.7392V8.64239L5.77571 8.63922C5.77571 8.53549 5.7556 8.43176 5.71432 8.33439Z" fill="black"/>
<path fill-rule="evenodd" clip-rule="evenodd" d="M21.484 11.6251C20.5335 9.05737 17.1275 9.17909 14.7746 8.95365L14.7079 4.60559C14.6941 3.68687 13.9458 2.9502 13.0271 2.9502C12.0988 2.9502 11.3463 3.70274 11.3463 4.63099V14.5443C11.3463 15.0397 10.8097 15.3498 10.3799 15.1021L9.14791 14.3898C8.00056 13.7272 6.53992 14.3697 6.25202 15.6631C6.09326 16.3786 6.34517 17.1216 6.92731 17.5661C7.94658 18.342 9.6496 19.5571 11.2743 20.3329C13.8177 21.548 17.9001 21.2283 19.8222 19.3052C21.4999 17.6275 22.4419 14.2088 21.484 11.6251Z" fill="black"/>
</svg>