<svg width="24" height="24" viewBox="0 0 24 24" fill="none" xmlns="http://www.w3.org/2000/svg">
<path d="M8.21805 5.27676V9.58411V17.8213C8.21805 19.2594 7.05243 20.425 5.6134 20.425H17.7512C19.8354 20.425 20.9912 19.0219 20.9912 16.753L21 5.27676C21 4.44681 20.2061 3.90778 19.5172 4.26097L18.8643 4.60541C18.4751 4.80876 18.0256 4.81751 17.6189 4.64043L15.7742 3.82022C15.024 3.4933 14.1941 3.4933 13.4439 3.82022L11.5982 4.64043C11.1924 4.81751 10.7419 4.80876 10.3537 4.60541L9.70086 4.26097C9.012 3.90778 8.21805 4.45557 8.21805 5.27676Z" stroke="black" stroke-width="1.5" stroke-linecap="round" stroke-linejoin="round"/>
<path opacity="0.4" d="M5.61341 20.4242C4.88951 20.4242 4.23665 20.1333 3.76865 19.6653C3.29189 19.1885 3 18.5356 3 17.8205V10.5728C3 9.74192 3.79492 9.20386 4.48378 9.55705L5.13665 9.90148C5.52487 10.1048 5.97535 10.1136 6.38108 9.93651L7.62649 9.38094C7.72281 9.33619 7.96995 9.451 8.21805 9.58332" stroke="black" stroke-width="1.5" stroke-linecap="round" stroke-linejoin="round"/>
<path opacity="0.4" d="M12.1855 9.94141H14.8894M12.1855 14.0556H17.4814" stroke="black" stroke-width="1.5" stroke-linecap="round" stroke-linejoin="round"/>
</svg>
