<svg width="24" height="24" viewBox="0 0 24 24" fill="none" xmlns="http://www.w3.org/2000/svg">
<path fill-rule="evenodd" clip-rule="evenodd" d="M8.10359 7.1153C6.10468 5.33199 3.06257 7.14792 3.88012 9.95819C4.62691 12.5253 7.17926 15.8879 10.2568 17.9441C11.7852 18.9653 13.3852 19.6241 14.8959 19.7347C16.3808 19.8434 17.8081 19.4272 19.0695 18.2375C20.0411 17.3211 20.5234 15.8261 20.3334 14.4331C20.148 13.0744 19.337 11.8758 17.7607 11.4149C17.2171 11.256 16.6911 11.1102 16.1795 10.9684C13.2134 10.1464 10.7294 9.45794 8.10359 7.1153ZM2.43982 10.3772C1.23304 6.22891 5.8951 3.13484 9.10217 5.996C11.4509 8.09143 13.5834 8.68574 16.5363 9.50871C17.0573 9.65392 17.6038 9.80625 18.1816 9.9752C20.4056 10.6255 21.5661 12.3721 21.8196 14.2303C22.0684 16.0541 21.4571 18.0475 20.0987 19.3287C18.5118 20.8255 16.6633 21.3681 14.7864 21.2307C12.9353 21.0952 11.0875 20.3031 9.42345 19.1913C6.11597 16.9815 3.30462 13.3499 2.43982 10.3772Z" fill="black"/>
<path fill-rule="evenodd" clip-rule="evenodd" d="M3.17068 2.57484C3.55526 2.72868 3.74232 3.16516 3.58848 3.54975C3.42765 3.9518 3.47527 4.44201 3.6798 4.96484C3.88233 5.48253 4.2021 5.93316 4.4204 6.17331C4.69903 6.47981 4.67643 6.95415 4.36993 7.23277C4.06342 7.51139 3.58909 7.48879 3.31047 7.18229C2.98805 6.82761 2.56161 6.22379 2.28289 5.51131C2.00618 4.80397 1.8375 3.88828 2.19577 2.99264C2.34961 2.60806 2.78609 2.421 3.17068 2.57484Z" fill="black"/>
<path fill-rule="evenodd" clip-rule="evenodd" d="M9.05395 6.19613C9.46071 6.27434 9.72704 6.6675 9.64883 7.07426L9.36676 8.54113C9.22409 9.28304 8.57491 9.81928 7.81941 9.81928H6.94394C6.90213 9.81928 6.86824 9.85317 6.86824 9.89498V10.257C6.86824 11.1272 6.16278 11.8327 5.29254 11.8327H3.65283C3.23862 11.8327 2.90283 11.4969 2.90283 11.0827C2.90283 10.6685 3.23862 10.3327 3.65283 10.3327H5.29254C5.33435 10.3327 5.36824 10.2988 5.36824 10.257V9.89498C5.36824 9.02474 6.0737 8.31928 6.94394 8.31928H7.81941C7.8557 8.31928 7.88689 8.29352 7.89374 8.25788L8.17581 6.79101C8.25403 6.38425 8.64718 6.11791 9.05395 6.19613Z" fill="black"/>
</svg>
