<svg width="24" height="24" viewBox="0 0 24 24" fill="none" xmlns="http://www.w3.org/2000/svg">
<path fill-rule="evenodd" clip-rule="evenodd" d="M6.45391 2.25018C6.86715 2.25914 7.19507 2.60069 7.18754 3.01362L7.18751 3.01686L7.18764 3.04141C7.18796 3.06532 7.18892 3.10359 7.19164 3.15359C7.19712 3.25411 7.20955 3.39907 7.23728 3.56817C7.29427 3.91585 7.40841 4.31881 7.62049 4.65043C7.84366 4.99939 7.74169 5.46318 7.39273 5.68635C7.04378 5.90952 6.57998 5.80755 6.35681 5.45859C5.9929 4.88955 5.83153 4.26525 5.75704 3.81085C5.71901 3.57891 5.7017 3.37911 5.69386 3.23514C5.68993 3.16289 5.68834 3.10398 5.68778 3.06127C5.68749 3.0399 5.68746 3.02253 5.68753 3.0095L5.68767 2.99325L5.68776 2.98764L5.6878 2.98548L5.68783 2.98414C5.68783 2.98395 5.68784 2.98375 6.43766 3L5.68783 2.98414C5.6968 2.57003 6.03979 2.2412 6.45391 2.25018Z" fill="black"/>
<path fill-rule="evenodd" clip-rule="evenodd" d="M9.1557 5.2996C8.70145 5.21496 8.13245 5.2867 7.34221 5.75333L7.32948 5.76068C6.54302 6.20452 6.22787 6.65803 6.09864 7.09162C5.95837 7.56225 5.99809 8.13335 6.16621 8.88434C6.24869 9.25277 6.35532 9.63803 6.47176 10.0588L6.47338 10.0647C6.58872 10.4814 6.71252 10.9292 6.8178 11.392C7.02697 12.3112 7.17351 13.3304 7.04628 14.411C6.91931 16.901 8.55002 19.2335 10.926 19.9796L10.939 19.9836L10.9389 19.9838C12.4904 20.502 13.9957 20.2281 15.2249 19.4672C15.2379 19.4591 15.2512 19.4515 15.2647 19.4442C16.5382 18.7602 17.5281 17.5934 17.855 15.9908L17.8578 15.9774L17.8579 15.9775C18.4014 13.5393 17.1876 10.9523 14.9546 9.82273C14.9458 9.81828 14.9371 9.81367 14.9285 9.80888C13.9641 9.27237 13.1745 8.58978 12.4918 7.9334C12.2127 7.6651 11.9628 7.41334 11.7272 7.1761C11.358 6.80416 11.0242 6.46788 10.669 6.15947C10.1105 5.67443 9.63546 5.38901 9.1557 5.2996ZM15.6456 8.4913C14.8511 8.04724 14.1731 7.46903 13.5314 6.85208C13.3107 6.63995 13.0838 6.41192 12.8552 6.18228C12.4507 5.77583 12.0411 5.36432 11.6525 5.02691C11.0213 4.47876 10.301 3.9872 9.43048 3.82499C8.53635 3.65837 7.60229 3.85922 6.58583 4.45798C5.54642 5.04614 4.92489 5.7782 4.66113 6.66317C4.40785 7.51294 4.51973 8.39586 4.70245 9.21203C4.79315 9.61721 4.9083 10.0332 5.02085 10.4399L5.02773 10.4647C5.14419 10.8856 5.25877 11.301 5.35519 11.7248C5.54775 12.571 5.65729 13.4084 5.55415 14.2558C5.55216 14.2721 5.55071 14.2885 5.5498 14.305C5.37354 17.4901 7.43925 20.4536 10.4701 21.4086C12.4743 22.0759 14.43 21.7163 15.9948 20.7547C17.6099 19.8804 18.8992 18.3665 19.3234 16.2972C20.0107 13.2 18.4831 9.93481 15.6456 8.4913Z" fill="black"/>
<path fill-rule="evenodd" clip-rule="evenodd" d="M12.9516 11.267C13.7707 11.6257 14.6224 12.2655 15.1275 13.1402C15.615 13.9846 15.7638 14.8671 15.5717 15.6718C15.3796 16.4766 14.8614 17.1366 14.1434 17.5511C13.4257 17.9655 12.5952 18.0841 11.8021 17.8482C11.0091 17.6124 10.3189 17.0425 9.8313 16.1979C9.32628 15.3232 9.1981 14.2656 9.29703 13.3769C9.34707 12.9275 9.45824 12.4904 9.63227 12.1146C9.80086 11.7505 10.0606 11.376 10.4488 11.1519C10.837 10.9278 11.2912 10.89 11.6908 10.9261C12.1032 10.9633 12.5374 11.0856 12.9516 11.267ZM11.556 12.42C11.3213 12.3989 11.2171 12.4403 11.1988 12.4509C11.1805 12.4615 11.0924 12.531 10.9934 12.7448C10.8998 12.9469 10.8236 13.2218 10.7878 13.5429C10.7152 14.1954 10.822 14.9139 11.1303 15.4479C11.456 16.012 11.8581 16.2999 12.2297 16.4105C12.6014 16.521 13.008 16.4746 13.3934 16.2521C13.7794 16.0292 14.0227 15.7004 14.1127 15.3235C14.2027 14.9465 14.1542 14.4545 13.8284 13.8902C13.5201 13.3562 12.9513 12.9044 12.3499 12.641C12.0539 12.5114 11.7778 12.44 11.556 12.42Z" fill="black"/>
</svg>
