<svg width="24" height="24" viewBox="0 0 24 24" fill="none" xmlns="http://www.w3.org/2000/svg">
<path d="M15.4966 21.315C14.4866 21.315 13.4666 20.995 12.6266 20.385C12.2966 20.135 12.2166 19.675 12.4666 19.335C12.7066 18.995 13.1766 18.925 13.5166 19.175C14.3866 19.805 15.5266 19.995 16.5066 19.655C17.3666 19.355 17.9766 18.695 18.2266 17.805C20.0466 11.285 19.4266 8.395 18.5966 7.125C18.1166 6.395 17.4266 5.98498 16.4766 5.85498C15.4166 5.72498 14.6166 6.33498 13.6866 7.04498L13.4566 7.21503C11.9366 8.37503 9.94665 8.71501 8.12665 8.13501C7.73665 8.00501 7.51665 7.58501 7.63665 7.19501C7.76665 6.79501 8.18665 6.58502 8.57665 6.70502C9.92665 7.13502 11.4066 6.87502 12.5366 6.02502L12.7566 5.85498C13.7966 5.05498 14.9766 4.13499 16.6566 4.36499C18.0466 4.54499 19.1166 5.19498 19.8366 6.29498C21.3066 8.52498 21.2466 12.525 19.6666 18.205C19.2866 19.565 18.3166 20.615 16.9966 21.065C16.5166 21.235 16.0066 21.315 15.4966 21.315Z" fill="black"/>
<path d="M9.98654 21.755C9.15654 21.755 8.27654 21.505 7.33654 20.995C4.78654 19.615 4.49654 17.055 4.20654 14.575C4.06654 13.325 3.91654 12.045 3.45654 10.975C2.50654 8.73496 3.53654 6.10496 5.75654 5.10496C8.03654 4.07496 10.9765 5.01502 12.2865 6.53502C12.5565 6.84502 12.5265 7.32502 12.2065 7.59502C11.8965 7.86502 11.4165 7.825 11.1465 7.515C10.3165 6.555 8.09654 5.68501 6.36654 6.46501C4.88654 7.13501 4.19654 8.88499 4.83654 10.385C5.37654 11.645 5.53654 13.045 5.69654 14.395C5.96654 16.685 6.18654 18.655 8.05654 19.665C9.08654 20.225 9.95654 20.375 10.7165 20.125C11.6665 19.815 12.5165 18.835 13.3165 17.135C13.4965 16.755 13.9365 16.595 14.3165 16.775C14.6965 16.955 14.8565 17.395 14.6765 17.775C13.6765 19.895 12.5765 21.105 11.1865 21.555C10.8065 21.685 10.4065 21.745 9.98654 21.745V21.755Z" fill="black"/>
<path d="M12.5865 7.58502C12.2265 7.58502 11.9165 7.33503 11.8465 6.96503C11.8365 6.88503 11.5865 5.405 12.1565 3.755H11.4965C11.5965 4.415 11.6665 5.30499 11.5165 6.05499C11.4365 6.46499 11.0365 6.72501 10.6265 6.63501C10.2165 6.55501 9.95649 6.155 10.0465 5.745C10.2165 4.905 9.97649 3.615 9.86649 3.185C9.80649 2.965 9.86649 2.72503 9.99649 2.53503C10.1265 2.34503 10.3565 2.245 10.5865 2.245H13.3265C13.5965 2.245 13.8465 2.385 13.9765 2.625C14.1065 2.855 14.1065 3.145 13.9765 3.375C13.0465 4.935 13.3365 6.67501 13.3365 6.69501C13.4065 7.10501 13.1365 7.495 12.7265 7.565C12.6865 7.565 12.6365 7.57501 12.5965 7.57501L12.5865 7.58502Z" fill="black"/>
</svg>
