<svg width="24" height="24" viewBox="0 0 24 24" fill="none" xmlns="http://www.w3.org/2000/svg">
<path fill-rule="evenodd" clip-rule="evenodd" d="M15.7062 6.06421C15.2164 6.06421 14.7607 6.20065 14.3726 6.4372C14.0189 6.65276 13.5574 6.54077 13.3418 6.18707C13.1263 5.83336 13.2383 5.37188 13.592 5.15632C14.2086 4.78053 14.9333 4.56421 15.7062 4.56421C17.9525 4.56421 19.7735 6.38519 19.7735 8.63148C19.7735 9.571 19.454 10.438 18.9182 11.1268C18.6639 11.4538 18.1927 11.5127 17.8658 11.2584C17.5388 11.0041 17.4799 10.5329 17.7342 10.2059C18.0724 9.77105 18.2735 9.2258 18.2735 8.63148C18.2735 7.21362 17.1241 6.06421 15.7062 6.06421Z" fill="black"/>
<path fill-rule="evenodd" clip-rule="evenodd" d="M12.1439 3.75C10.8586 3.75 9.74731 4.50146 9.22818 5.59233C9.05019 5.96636 8.6027 6.12527 8.22868 5.94728C7.85466 5.7693 7.69574 5.3218 7.87373 4.94778C8.63212 3.35412 10.2583 2.25 12.1439 2.25C14.0295 2.25 15.6558 3.35412 16.4141 4.94778C16.5921 5.3218 16.4332 5.7693 16.0592 5.94728C15.6852 6.12527 15.2377 5.96636 15.0597 5.59233C14.5406 4.50146 13.4293 3.75 12.1439 3.75Z" fill="black"/>
<path fill-rule="evenodd" clip-rule="evenodd" d="M8.50282 6.06421C7.08496 6.06421 5.93555 7.21362 5.93555 8.63148C5.93555 9.19344 6.11523 9.71122 6.42043 10.1334C6.6631 10.4691 6.58769 10.938 6.252 11.1806C5.91631 11.4233 5.44746 11.3479 5.2048 11.0122C4.72092 10.3428 4.43555 9.51937 4.43555 8.63148C4.43555 6.38519 6.25653 4.56421 8.50282 4.56421C10.2407 4.56421 11.7223 5.65389 12.305 7.18468C12.4524 7.57179 12.2581 8.00507 11.8709 8.15244C11.4838 8.29981 11.0505 8.10546 10.9032 7.71835C10.5346 6.75013 9.59787 6.06421 8.50282 6.06421Z" fill="black"/>
<path fill-rule="evenodd" clip-rule="evenodd" d="M12.9126 9.28221C12.19 8.55957 11.0183 8.55957 10.2957 9.28221C10.0028 9.57511 9.52794 9.57511 9.23505 9.28221C8.94216 8.98932 8.94216 8.51445 9.23505 8.22155C10.5435 6.91313 12.6649 6.91313 13.9733 8.22155C14.2662 8.51445 14.2662 8.98932 13.9733 9.28221C13.6804 9.57511 13.2055 9.57511 12.9126 9.28221Z" fill="black"/>
<path fill-rule="evenodd" clip-rule="evenodd" d="M7.80078 12.4045C7.80078 12.8188 8.13657 13.1545 8.55078 13.1545C9.72574 13.1545 10.6782 12.2021 10.6782 11.0271C10.6782 10.6129 10.3424 10.2771 9.92823 10.2771C9.51401 10.2771 9.17823 10.6129 9.17823 11.0271C9.17823 11.3736 8.89731 11.6545 8.55078 11.6545C8.13657 11.6545 7.80078 11.9903 7.80078 12.4045Z" fill="black"/>
<path fill-rule="evenodd" clip-rule="evenodd" d="M16.4313 15.1793C16.79 15.3864 17.2487 15.2635 17.4558 14.9048C18.121 13.7527 17.7262 12.2796 16.5742 11.6145C16.2154 11.4074 15.7568 11.5303 15.5496 11.889C15.3425 12.2477 15.4654 12.7064 15.8242 12.9135C16.2588 13.1644 16.4077 13.7202 16.1568 14.1548C15.9497 14.5135 16.0726 14.9722 16.4313 15.1793Z" fill="black"/>
<path fill-rule="evenodd" clip-rule="evenodd" d="M5.81587 8.73733C6.03576 9.08836 5.92945 9.55118 5.57843 9.77107C4.85197 10.2261 4.37158 11.0316 4.37158 11.9488C4.37158 12.4614 4.52103 12.9367 4.77847 13.3365C5.00276 13.6847 4.90227 14.1488 4.55403 14.3731C4.2058 14.5974 3.74168 14.4969 3.51739 14.1487C3.10866 13.5141 2.87158 12.758 2.87158 11.9488C2.87158 10.4936 3.63626 9.21767 4.78213 8.49988C5.13316 8.27999 5.59598 8.3863 5.81587 8.73733Z" fill="black"/>
<path fill-rule="evenodd" clip-rule="evenodd" d="M18.4263 8.74907C18.6498 8.40034 19.1137 8.29883 19.4624 8.52235C20.5884 9.24406 21.3373 10.5087 21.3373 11.9487C21.3373 12.7359 21.1129 13.4731 20.7242 14.097C20.5052 14.4485 20.0426 14.556 19.6911 14.3369C19.3395 14.1179 19.2321 13.6553 19.4511 13.3038C19.6958 12.911 19.8373 12.4475 19.8373 11.9487C19.8373 11.041 19.3669 10.2428 18.653 9.78521C18.3043 9.5617 18.2028 9.0978 18.4263 8.74907Z" fill="black"/>
<path fill-rule="evenodd" clip-rule="evenodd" d="M12.1044 12.1108C12.273 12.098 12.4469 12.1417 12.5955 12.2473C14.4624 13.5738 15.5083 15.1416 15.4617 16.8525C15.4157 18.5432 14.3076 20.0842 12.55 21.3826C12.2881 21.5761 11.9312 21.5784 11.6668 21.3884C10.0328 20.2143 8.94981 18.6765 8.85939 16.9774C8.76743 15.249 9.71274 13.5977 11.6134 12.2473C11.762 12.1417 11.9358 12.098 12.1044 12.1108ZM12.1059 13.7534C10.767 14.8239 10.3056 15.9267 10.3573 16.8977C10.4087 17.8647 10.9775 18.8971 12.1014 19.8303C13.3774 18.7737 13.9372 17.7353 13.9623 16.8117C13.9874 15.8879 13.4818 14.8358 12.1059 13.7534Z" fill="black"/>
<path fill-rule="evenodd" clip-rule="evenodd" d="M9.23018 14.9602C9.6584 15.3668 10.0198 15.8161 10.2001 16.2326C10.3647 16.6127 10.1899 17.0543 9.80981 17.2189C9.42969 17.3834 8.98813 17.2087 8.82356 16.8286C8.75808 16.6774 8.5591 16.3915 8.19733 16.048C7.8487 15.7169 7.39256 15.3741 6.87093 15.0931C5.97353 14.6097 4.95896 14.3463 3.98288 14.5409C4.16347 16.2146 5.1591 17.5697 6.58888 18.5567C8.18367 19.6577 10.2583 20.25 12.1046 20.25C13.9623 20.25 16.0366 19.6667 17.6275 18.572C19.0541 17.5904 20.0486 16.2346 20.2271 14.541C19.2548 14.3465 18.2537 14.6097 17.3709 15.0913C16.8571 15.3715 16.4083 15.7137 16.0648 16.0444C15.709 16.3869 15.5109 16.674 15.4439 16.8286C15.2794 17.2087 14.8378 17.3834 14.4577 17.2189C14.0776 17.0543 13.9028 16.6127 14.0674 16.2326C14.2463 15.8195 14.6012 15.3714 15.0245 14.9638C15.46 14.5444 16.0163 14.1215 16.6526 13.7745C17.9136 13.0866 19.59 12.6469 21.2723 13.2863C21.5634 13.3969 21.7559 13.6759 21.7559 13.9874C21.7559 16.5567 20.3514 18.5185 18.4778 19.8077C16.6164 21.0886 14.2401 21.75 12.1046 21.75C9.9744 21.75 7.5984 21.0764 5.7367 19.7912C3.8645 18.4987 2.45337 16.5379 2.45337 13.9872C2.45337 13.6758 2.64583 13.3968 2.93694 13.2862C4.61913 12.6469 6.3093 13.0867 7.58235 13.7725C8.22525 14.1189 8.7888 14.5411 9.23018 14.9602Z" fill="black"/>
</svg>
