<svg width="24" height="24" viewBox="0 0 24 24" fill="none" xmlns="http://www.w3.org/2000/svg">
<path fill-rule="evenodd" clip-rule="evenodd" d="M21.0747 12.6942C21.0767 12.7741 21.0778 12.8544 21.0778 12.935C21.0778 13.0004 21.0694 13.0639 21.0536 13.1244C20.8672 15.6991 19.6131 17.8909 17.7379 19.3029C17.407 19.5521 16.9368 19.4858 16.6876 19.1549C16.4385 18.824 16.5047 18.3538 16.8356 18.1047C18.4398 16.8967 19.5041 14.9802 19.5741 12.6945C19.4537 8.76639 16.3914 5.89734 12.6254 5.89734C10.0871 5.89734 7.87919 7.19912 6.66693 9.23243C6.45482 9.58821 5.99445 9.70468 5.63867 9.49256C5.28288 9.28044 5.16642 8.82007 5.37854 8.46429C6.8616 5.97677 9.55914 4.39734 12.6254 4.39734C17.0747 4.39734 20.7251 7.71964 21.0537 12.2645C21.0694 12.325 21.0778 12.3884 21.0778 12.4537C21.0778 12.5342 21.0767 12.6144 21.0747 12.6942Z" fill="black"/>
<path fill-rule="evenodd" clip-rule="evenodd" d="M14.8007 8.25864C15.206 8.17276 15.6041 8.43163 15.6899 8.83685C16.143 10.9744 15.8332 12.9799 15.4664 14.2368C15.3503 14.6344 14.9339 14.8626 14.5363 14.7466C14.1387 14.6306 13.9104 14.2141 14.0264 13.8165C14.345 12.7249 14.6106 10.9787 14.2225 9.14784C14.1367 8.74262 14.3955 8.34451 14.8007 8.25864Z" fill="black"/>
<path fill-rule="evenodd" clip-rule="evenodd" d="M10.0531 12.7086C9.63979 12.7361 9.32703 13.0934 9.35452 13.5067C9.42062 14.5004 9.58581 15.441 9.83367 16.2902C9.94972 16.6879 10.3661 16.9161 10.7638 16.8001C11.1614 16.684 11.3896 16.2676 11.2736 15.87C11.0584 15.1326 10.9106 14.3001 10.8512 13.4072C10.8237 12.9939 10.4664 12.6811 10.0531 12.7086Z" fill="black"/>
<path fill-rule="evenodd" clip-rule="evenodd" d="M5.90165 7.86368C6.25414 7.64615 6.71624 7.75557 6.93377 8.10807C7.18347 8.5127 7.69397 8.75118 8.34324 8.73176C8.99754 8.7122 9.60466 8.42991 9.91829 8.03529C10.0703 7.84401 10.306 7.73877 10.5499 7.75325C10.7938 7.76774 11.0154 7.90013 11.1437 8.10807C11.3934 8.5127 11.9039 8.75118 12.5532 8.73176C13.2075 8.7122 13.8146 8.42991 14.1282 8.03529C14.2802 7.84401 14.5159 7.73877 14.7598 7.75325C15.0037 7.76774 15.2253 7.90013 15.3536 8.10807C15.6033 8.5127 16.1138 8.75118 16.7631 8.73176C17.4174 8.7122 18.0245 8.42991 18.3381 8.03529C18.5958 7.71102 19.0676 7.65707 19.3919 7.91479C19.7162 8.17251 19.7701 8.64431 19.5124 8.96858C18.8664 9.78138 17.802 10.2014 16.8079 10.2311C16.075 10.253 15.2798 10.0623 14.6646 9.56433C14.0597 9.98784 13.3107 10.2098 12.598 10.2311C11.865 10.253 11.0699 10.0623 10.4547 9.56433C9.84974 9.98784 9.10081 10.2098 8.38807 10.2311C7.38897 10.261 6.27432 9.89573 5.65726 8.8958C5.43973 8.54331 5.54915 8.08121 5.90165 7.86368Z" fill="black"/>
<path fill-rule="evenodd" clip-rule="evenodd" d="M12.1901 2.7565C12.5609 2.5719 13.0111 2.72285 13.1957 3.09366C13.4787 3.66208 13.8882 5.07027 13.5919 6.69366C13.5175 7.10114 13.1269 7.37117 12.7194 7.2968C12.3119 7.22242 12.0419 6.8318 12.1162 6.42432C12.3475 5.15739 12.0096 4.07681 11.8529 3.76214C11.6683 3.39134 11.8193 2.94109 12.1901 2.7565Z" fill="black"/>
<path fill-rule="evenodd" clip-rule="evenodd" d="M14.9568 2.58057C15.1884 2.92398 15.0978 3.39012 14.7544 3.62174C14.32 3.91471 13.2155 4.37691 12.0449 3.94688C11.5488 3.76461 11.2555 3.81879 11.164 3.84872C10.7702 3.97745 10.3467 3.76265 10.218 3.36895C10.0893 2.97524 10.3041 2.55173 10.6978 2.423C11.1486 2.27558 11.7902 2.25526 12.5622 2.53888C13.1227 2.74479 13.717 2.51213 13.9156 2.37817C14.259 2.14655 14.7251 2.23717 14.9568 2.58057Z" fill="black"/>
<path fill-rule="evenodd" clip-rule="evenodd" d="M4.14031 8.06451C3.8206 8.27414 3.5453 8.6394 3.5453 9.1391V10.0895C3.5453 10.4011 3.47478 10.6186 3.36058 10.9107C3.34879 10.9409 3.33635 10.9722 3.32343 11.0047C3.20887 11.2931 3.05699 11.6754 2.99241 12.1767L3.73626 12.2726L2.9924 12.1767C2.6234 15.0409 3.72191 17.8983 5.91455 19.7777C7.4723 21.1129 9.98188 21.75 11.8277 21.75C12.5747 21.75 14.0388 21.5685 15.2795 21.1768C15.894 20.9828 16.5277 20.7149 16.9922 20.3404C17.4694 19.9555 17.8927 19.337 17.6787 18.5385C17.6014 18.25 17.4899 17.9882 17.2959 17.7715C17.1068 17.5602 16.8892 17.4523 16.7643 17.3905L16.7595 17.3881L16.4265 18.0602L16.7595 17.3881C16.2569 17.1391 15.6499 17.1309 15.2405 17.1254C15.2278 17.1252 15.2153 17.1251 15.203 17.1249C13.8661 17.1061 12.4468 16.6041 11.2192 15.9026C9.6139 14.9853 8.31607 13.6133 7.48923 11.9597C7.35073 11.6826 7.22151 11.4609 7.11306 11.2769C7.10616 11.2652 7.09939 11.2537 7.09276 11.2425C6.99114 11.0702 6.92014 10.9497 6.86126 10.8289C6.75766 10.6164 6.68528 10.3919 6.68528 9.93041V9.1391C6.68528 8.64084 6.41847 8.2694 6.08762 8.05446C5.78104 7.85529 5.42157 7.78424 5.10852 7.78707C4.7949 7.7899 4.4407 7.86756 4.14031 8.06451ZM5.18528 9.2905V9.93041C5.18528 10.6005 5.30143 11.0523 5.51289 11.4861C5.59925 11.6633 5.70045 11.8347 5.79372 11.9926C5.80283 12.0081 5.81187 12.0234 5.8208 12.0385C5.92538 12.216 6.03307 12.4014 6.14759 12.6305C7.10687 14.549 8.61258 16.1407 10.475 17.2049C11.8409 17.9854 13.5109 18.6013 15.1819 18.6248C15.6778 18.6317 15.9377 18.655 16.0936 18.7322C16.1387 18.7545 16.1647 18.7688 16.1786 18.7767C16.1886 18.7974 16.2072 18.8424 16.2298 18.9267C16.2373 18.9546 16.2347 18.9613 16.2276 18.977C16.2138 19.0077 16.1699 19.0765 16.0505 19.1728C15.8033 19.3722 15.3804 19.572 14.8279 19.7464C13.7344 20.0916 12.4226 20.25 11.8277 20.25C10.2171 20.25 8.09599 19.6719 6.89073 18.6388C5.08191 17.0884 4.1757 14.7312 4.48011 12.3684C4.51965 12.0615 4.60494 11.8449 4.7203 11.5519C4.73243 11.5211 4.74488 11.4895 4.75765 11.4568C4.89408 11.1078 5.04529 10.6822 5.0453 10.0895V9.29367C5.06867 9.28971 5.09463 9.28725 5.12206 9.28701C5.14462 9.2868 5.16589 9.28811 5.18528 9.2905ZM16.1706 18.7621C16.1706 18.7622 16.171 18.7628 16.1717 18.7639C16.171 18.7626 16.1706 18.7621 16.1706 18.7621Z" fill="black"/>
</svg>
