<svg width="24" height="24" viewBox="0 0 24 24" fill="none" xmlns="http://www.w3.org/2000/svg">
<path d="M13.7828 9.25038C12.2228 9.25038 10.9628 7.98037 10.9628 6.43037C10.9628 5.92037 11.0928 5.44039 11.3428 5.01039C11.2228 4.80039 11.1828 4.55038 11.2428 4.31038C11.3328 3.95038 11.6228 3.68038 11.9928 3.62038L12.1528 3.59041L12.2328 3.3304C12.3228 3.0304 12.5628 2.80035 12.8728 2.72035C13.1728 2.64035 13.4928 2.72036 13.7328 2.92036L13.9528 3.11037C14.2628 2.98037 14.6128 3.03037 14.8828 3.24037C15.1128 3.42037 15.2428 3.70036 15.2328 3.98036C16.0728 4.48036 16.6128 5.40035 16.6128 6.41035C16.6128 7.97035 15.3428 9.23036 13.7928 9.23036L13.7828 9.25038ZM13.1028 4.8904C13.1128 5.1104 13.0328 5.32035 12.8728 5.47035C12.6028 5.72035 12.4628 6.06037 12.4628 6.43037C12.4628 7.16037 13.0528 7.75038 13.7828 7.75038C14.5128 7.75038 15.1028 7.16037 15.1028 6.43037C15.1028 5.85037 14.7128 5.33035 14.1628 5.16035C13.9328 5.09035 13.7628 4.9204 13.6828 4.7104C13.5728 4.6904 13.4728 4.65036 13.3828 4.60036C13.3128 4.71036 13.2128 4.8104 13.1028 4.8904ZM12.5028 3.55037C12.5028 3.55037 12.5028 3.55037 12.4928 3.55037H12.5028Z" fill="black"/>
<path d="M8.37287 12.3103C7.70287 12.3103 7.02286 12.0503 6.51286 11.5403C6.19286 11.2203 5.96288 10.8203 5.84288 10.4003C5.63288 10.3403 5.45287 10.2003 5.33287 10.0003C5.14287 9.69031 5.16287 9.30031 5.37287 9.00031L5.43287 8.91029L5.33287 8.73029C5.19287 8.46029 5.19288 8.1303 5.34288 7.8603C5.49288 7.5903 5.77287 7.42034 6.08287 7.40034H6.31288C6.44288 7.11034 6.71288 6.91032 7.03288 6.88032C7.31288 6.85032 7.56286 6.94031 7.76286 7.12031C8.63286 6.91031 9.57286 7.15032 10.2329 7.82032C11.2529 8.85032 11.2529 10.5103 10.2329 11.5403C9.72286 12.0503 9.04287 12.3103 8.37287 12.3103ZM7.02287 9.10029C7.16287 9.24029 7.24287 9.44034 7.24287 9.65034C7.24287 9.96034 7.35286 10.2603 7.57286 10.4803C8.01286 10.9203 8.73286 10.9203 9.17286 10.4803C9.61286 10.0403 9.61286 9.32032 9.17286 8.88032C8.81286 8.52032 8.28288 8.45031 7.84288 8.68031C7.64287 8.79031 7.41288 8.80029 7.22288 8.72029C7.16288 8.76029 7.10288 8.79031 7.03288 8.81031C7.05288 8.91031 7.05288 9.00029 7.03288 9.10029H7.02287Z" fill="black"/>
<path d="M5.77255 17.9903C5.54255 17.9903 5.31255 17.9603 5.08255 17.9003C4.64255 17.7803 4.25256 17.5603 3.93256 17.2403C3.72256 17.2903 3.48256 17.2603 3.28256 17.1503C2.96256 16.9703 2.78254 16.6303 2.82254 16.2703V16.1602L2.66257 16.0503C2.40257 15.8903 2.24255 15.6003 2.24255 15.2903C2.24255 14.9803 2.39257 14.6903 2.66257 14.5203L2.84256 14.4003C2.82256 14.0803 2.95255 13.7803 3.21255 13.5903C3.43255 13.4303 3.70255 13.3803 3.96255 13.4403C4.61256 12.8303 5.56255 12.5703 6.45255 12.8103C7.13254 12.9903 7.70255 13.4303 8.05255 14.0403C8.40255 14.6503 8.49256 15.3603 8.31256 16.0403C8.13256 16.7203 7.69255 17.2903 7.08255 17.6403C6.67255 17.8703 6.23255 17.9903 5.77255 17.9903ZM4.31256 15.5403C4.51256 15.5903 4.68255 15.7203 4.77255 15.9003C4.92255 16.1703 5.17256 16.3703 5.47256 16.4503C5.76256 16.5303 6.07255 16.4903 6.33255 16.3403C6.59255 16.1903 6.78255 15.9503 6.86255 15.6503C6.94255 15.3503 6.90256 15.0503 6.75256 14.7903C6.60256 14.5303 6.36256 14.3403 6.06256 14.2603C5.58256 14.1403 5.06256 14.3403 4.81256 14.7603C4.69256 14.9503 4.50254 15.0703 4.29254 15.1103C4.26254 15.1703 4.22255 15.2303 4.17255 15.2903C4.23255 15.3703 4.28256 15.4503 4.31256 15.5403Z" fill="black"/>
<path d="M13.6126 19.7404C13.2026 19.7404 12.7726 19.7004 12.3226 19.6204C11.9126 19.5504 11.6426 19.1604 11.7126 18.7504C11.7826 18.3404 12.1826 18.0804 12.5826 18.1404C14.5726 18.5004 15.7126 17.9404 16.3826 16.2704C16.8426 15.1304 17.6226 14.4604 18.4526 14.1004C17.8526 13.9804 17.2426 13.9904 16.6726 14.1504C15.7326 14.4204 15.0226 15.0604 14.7226 15.9004C14.5826 16.2904 14.1526 16.5004 13.7726 16.3604C13.3826 16.2204 13.1726 15.8004 13.3126 15.4104C13.7726 14.0904 14.8526 13.1104 16.2726 12.7104C17.9926 12.2304 19.9326 12.6904 21.4826 13.9504C21.7526 14.1704 21.8326 14.5404 21.6826 14.8504C21.5326 15.1604 21.1926 15.3304 20.8626 15.2704C20.8426 15.2704 18.5926 14.8504 17.7826 16.8404C17.0026 18.7704 15.6126 19.7504 13.6226 19.7504L13.6126 19.7404Z" fill="black"/>
<path d="M11.0127 21.3104C10.8327 21.3104 10.6627 21.2504 10.5127 21.1204C10.2027 20.8404 10.1727 20.3704 10.4527 20.0604C12.2527 18.0304 15.2427 13.0604 13.6927 8.7604C13.5527 8.3704 13.7527 7.94038 14.1427 7.80038C14.5327 7.66038 14.9627 7.86039 15.1027 8.25039C16.8927 13.2204 13.5827 18.8004 11.5727 21.0604C11.4227 21.2304 11.2227 21.3104 11.0127 21.3104Z" fill="black"/>
<path d="M12.6229 18.6904C12.3029 18.6904 12.0229 18.4904 11.9129 18.1904C11.6929 17.5504 9.37285 16.5104 7.64285 16.2604C7.23285 16.2004 6.94286 15.8203 7.00286 15.4103C7.06286 15.0003 7.44284 14.7204 7.85284 14.7704C8.63284 14.8804 10.3129 15.3104 11.6329 16.0304C11.2429 14.5304 10.4329 12.5003 9.31286 11.3103C9.03286 11.0103 9.04286 10.5304 9.34286 10.2504C9.64286 9.97035 10.1229 9.98038 10.4029 10.2804C12.4229 12.4204 13.6128 16.7604 13.3628 18.0704C13.3028 18.4004 13.0229 18.6503 12.6829 18.6803C12.6629 18.6803 12.6429 18.6803 12.6229 18.6803V18.6904Z" fill="black"/>
</svg>
