<svg width="24" height="24" viewBox="0 0 24 24" fill="none" xmlns="http://www.w3.org/2000/svg">
<path fill-rule="evenodd" clip-rule="evenodd" d="M9.48938 3C9.48938 2.58579 9.82517 2.25 10.2394 2.25C13.2412 2.25 16.064 2.87216 18.1539 4.43463C20.28 6.0242 21.547 8.51192 21.547 11.9999C21.547 15.4879 20.28 17.9756 18.1539 19.5652C16.064 21.1276 13.2412 21.7498 10.2394 21.7498C9.82517 21.7498 9.48938 21.414 9.48938 20.9998C9.48938 20.5856 9.82517 20.2498 10.2394 20.2498C13.0684 20.2498 15.5244 19.6582 17.2557 18.3638C18.9507 17.0965 20.047 15.0843 20.047 11.9999C20.047 8.91549 18.9507 6.90326 17.2557 5.63598C15.5244 4.3416 13.0684 3.75 10.2394 3.75C9.82517 3.75 9.48938 3.41421 9.48938 3Z" fill="black"/>
<path fill-rule="evenodd" clip-rule="evenodd" d="M5.78694 6.08738C4.66746 7.57417 3.953 9.66216 3.953 12.0001C3.953 14.3381 4.66746 16.4261 5.78694 17.9129C6.90617 19.3993 8.39595 20.25 9.9795 20.25C11.563 20.25 13.0528 19.3993 14.1721 17.9129C15.2915 16.4261 16.006 14.3381 16.006 12.0001C16.006 9.66216 15.2915 7.57417 14.1721 6.08738C13.0528 4.60093 11.563 3.75024 9.9795 3.75024C8.39595 3.75024 6.90617 4.60093 5.78694 6.08738ZM4.58864 5.18512C5.92202 3.41425 7.82049 2.25024 9.9795 2.25024C12.1385 2.25024 14.037 3.41425 15.3704 5.18512C16.7035 6.95565 17.506 9.36761 17.506 12.0001C17.506 14.6327 16.7035 17.0446 15.3704 18.8151C14.037 20.586 12.1385 21.75 9.9795 21.75C7.82049 21.75 5.92202 20.586 4.58864 18.8151C3.25551 17.0446 2.453 14.6327 2.453 12.0001C2.453 9.36761 3.25551 6.95565 4.58864 5.18512Z" fill="black"/>
<path fill-rule="evenodd" clip-rule="evenodd" d="M9.53918 7.61206C9.9534 7.61206 10.2892 7.94785 10.2892 8.36206L10.2892 9.13091C10.2892 9.54513 9.9534 9.88091 9.53918 9.88091C9.12497 9.88091 8.78918 9.54513 8.78918 9.13091L8.78918 8.36206C8.78918 7.94785 9.12497 7.61206 9.53918 7.61206Z" fill="black"/>
<path fill-rule="evenodd" clip-rule="evenodd" d="M9.53918 14.1191C9.9534 14.1191 10.2892 14.4549 10.2892 14.8691L10.2892 15.638C10.2892 16.0522 9.9534 16.388 9.53918 16.388C9.12497 16.388 8.78918 16.0522 8.78918 15.638L8.78918 14.8691C8.78918 14.4549 9.12497 14.1191 9.53918 14.1191Z" fill="black"/>
<path fill-rule="evenodd" clip-rule="evenodd" d="M13.4858 12.0002C13.4858 12.4145 13.1501 12.7502 12.7358 12.7502H12.1091C11.6949 12.7502 11.3591 12.4145 11.3591 12.0002C11.3591 11.586 11.6949 11.2502 12.1091 11.2502H12.7358C13.1501 11.2502 13.4858 11.586 13.4858 12.0002Z" fill="black"/>
<path fill-rule="evenodd" clip-rule="evenodd" d="M7.78357 12C7.78357 12.4142 7.44778 12.75 7.03357 12.75L6.44669 12.75C6.03247 12.75 5.69669 12.4142 5.69669 12C5.69669 11.5858 6.03247 11.25 6.44669 11.25L7.03357 11.25C7.44778 11.25 7.78357 11.5858 7.78357 12Z" fill="black"/>
<path fill-rule="evenodd" clip-rule="evenodd" d="M12.5303 8.75555C12.8232 9.04844 12.8232 9.52332 12.5303 9.81621L12.0872 10.2594C11.7943 10.5523 11.3194 10.5523 11.0265 10.2594C10.7336 9.96649 10.7336 9.49162 11.0265 9.19872L11.4697 8.75555C11.7626 8.46266 12.2374 8.46266 12.5303 8.75555Z" fill="black"/>
<path fill-rule="evenodd" clip-rule="evenodd" d="M8.13116 13.7873C8.42405 14.0802 8.42405 14.5551 8.13116 14.8479L7.71617 15.2629C7.42328 15.5558 6.94841 15.5558 6.65551 15.2629C6.36262 14.97 6.36262 14.4952 6.65551 14.2023L7.0705 13.7873C7.36339 13.4944 7.83827 13.4944 8.13116 13.7873Z" fill="black"/>
<path fill-rule="evenodd" clip-rule="evenodd" d="M6.65558 8.75555C6.36269 9.04844 6.36269 9.52332 6.65558 9.81621L7.09876 10.2594C7.39165 10.5523 7.86652 10.5523 8.15942 10.2594C8.45231 9.96649 8.45231 9.49162 8.15942 9.19872L7.71624 8.75555C7.42335 8.46266 6.94848 8.46266 6.65558 8.75555Z" fill="black"/>
<path fill-rule="evenodd" clip-rule="evenodd" d="M11.0546 13.7873C10.7617 14.0802 10.7617 14.5551 11.0546 14.8479L11.4696 15.2629C11.7625 15.5558 12.2374 15.5558 12.5303 15.2629C12.8232 14.97 12.8232 14.4952 12.5303 14.2023L12.1153 13.7873C11.8224 13.4944 11.3475 13.4944 11.0546 13.7873Z" fill="black"/>
</svg>
