<svg width="24" height="24" viewBox="0 0 24 24" fill="none" xmlns="http://www.w3.org/2000/svg">
<path fill-rule="evenodd" clip-rule="evenodd" d="M10.459 5.3403C10.8468 5.48572 11.0433 5.91801 10.8979 6.30586L10.6395 6.99519C10.4941 7.38304 10.0618 7.57957 9.67391 7.43415C9.28607 7.28873 9.08954 6.85643 9.23495 6.46859L9.4934 5.77926C9.63882 5.39141 10.0711 5.19488 10.459 5.3403Z" fill="black"/>
<path fill-rule="evenodd" clip-rule="evenodd" d="M6.99927 7.87082C7.38711 8.01625 7.58363 8.44855 7.4382 8.8364L7.17975 9.52567C7.03433 9.91351 6.60202 10.11 6.21418 9.9646C5.82633 9.81918 5.62982 9.38687 5.77524 8.99903L6.03369 8.30976C6.17912 7.92191 6.61142 7.7254 6.99927 7.87082Z" fill="black"/>
<path fill-rule="evenodd" clip-rule="evenodd" d="M6.36987 14.6946C6.75772 14.84 6.95424 15.2723 6.80881 15.6601L6.55036 16.3494C6.40493 16.7372 5.97263 16.9338 5.58478 16.7883C5.19694 16.6429 5.00042 16.2106 5.14585 15.8228L5.4043 15.1335C5.54972 14.7456 5.98203 14.5491 6.36987 14.6946Z" fill="black"/>
<path fill-rule="evenodd" clip-rule="evenodd" d="M14.6189 8.69507C17.7289 8.69507 20.25 11.2162 20.25 14.3262C20.25 17.4362 17.7289 19.9573 14.6189 19.9573C11.5089 19.9573 8.98778 17.4362 8.98778 14.3262C8.98778 11.2162 11.5089 8.69507 14.6189 8.69507ZM21.75 14.3262C21.75 10.3878 18.5573 7.19507 14.6189 7.19507C10.6805 7.19507 7.48778 10.3878 7.48778 14.3262C7.48778 18.2646 10.6805 21.4573 14.6189 21.4573C18.5573 21.4573 21.75 18.2646 21.75 14.3262Z" fill="black"/>
<path fill-rule="evenodd" clip-rule="evenodd" d="M14.6191 10.0503C14.2685 10.0503 13.9647 10.2931 13.8875 10.635C13.7322 11.3225 13.5058 11.4586 13.4327 11.4854C13.3353 11.5211 13.0618 11.5371 12.5263 11.1989C12.2299 11.0117 11.8434 11.0548 11.5955 11.3027C11.3476 11.5506 11.3045 11.9371 11.4917 12.2335C11.868 12.8294 11.8042 13.0857 11.7714 13.1564C11.7278 13.2505 11.5457 13.4551 10.9278 13.5947C10.5859 13.6719 10.3431 13.9757 10.3431 14.3263C10.3431 14.6768 10.5859 14.9806 10.9278 15.0578C11.6153 15.2131 11.7514 15.4395 11.7782 15.5127C11.8139 15.61 11.8299 15.8835 11.4917 16.419C11.3045 16.7154 11.3476 17.102 11.5955 17.3498C11.8434 17.5977 12.2299 17.6408 12.5263 17.4536C13.1222 17.0773 13.3785 17.1412 13.4492 17.1739C13.5433 17.2175 13.7479 17.3996 13.8875 18.0175C13.9647 18.3594 14.2685 18.6022 14.6191 18.6022C14.9696 18.6022 15.2734 18.3594 15.3506 18.0175C15.5059 17.33 15.7323 17.1939 15.8055 17.1671C15.9028 17.1314 16.1763 17.1154 16.7118 17.4536C17.0082 17.6408 17.3947 17.5977 17.6426 17.3498C17.8905 17.102 17.9336 16.7154 17.7464 16.419C17.3701 15.8231 17.434 15.5668 17.4667 15.4961C17.5103 15.402 17.6924 15.1974 18.3103 15.0578C18.6522 14.9806 18.895 14.6768 18.895 14.3263C18.895 13.9757 18.6522 13.6719 18.3103 13.5947C17.6924 13.4551 17.5103 13.2505 17.4667 13.1564C17.434 13.0857 17.3701 12.8294 17.7464 12.2335C17.9336 11.9371 17.8905 11.5506 17.6426 11.3027C17.3947 11.0548 17.0082 11.0117 16.7118 11.1989C16.1159 11.5752 15.8596 11.5114 15.7889 11.4786C15.6948 11.435 15.4902 11.2529 15.3506 10.635C15.2734 10.2931 14.9696 10.0503 14.6191 10.0503ZM14.62 12.4584C14.7724 12.6131 14.9504 12.7433 15.1582 12.8396C15.4119 12.9571 15.674 13.0082 15.9392 13.0062C15.9371 13.2713 15.9882 13.5334 16.1058 13.7871C16.2023 13.9953 16.3328 14.1737 16.4878 14.3263C16.3328 14.4789 16.2023 14.6572 16.1058 14.8654C15.988 15.1195 15.9369 15.3821 15.9392 15.6477C15.7221 15.6461 15.5041 15.6799 15.2891 15.7588C15.0262 15.8552 14.8044 16.0047 14.6181 16.1941C14.4657 16.0395 14.2877 15.9093 14.0799 15.813C13.8258 15.6952 13.5632 15.6441 13.2976 15.6464C13.2992 15.4293 13.2654 15.2113 13.1865 14.9963C13.0902 14.7334 12.9406 14.5116 12.7512 14.3253C12.9059 14.1729 13.036 13.9949 13.1324 13.7871C13.2501 13.533 13.3012 13.2704 13.2989 13.0048C13.5161 13.0064 13.734 12.9726 13.949 12.8938C14.2119 12.7974 14.4338 12.6478 14.62 12.4584Z" fill="black"/>
<path fill-rule="evenodd" clip-rule="evenodd" d="M7.99635 4.50358C9.192 3.97479 10.6984 3.89103 12.2417 4.30455C14.6534 4.95076 16.1829 6.53498 16.3873 8.49102C16.4304 8.90299 16.7992 9.20205 17.2112 9.15899C17.6232 9.11593 17.9222 8.74706 17.8792 8.33509C17.5929 5.59641 15.4641 3.6151 12.6299 2.85566C10.8162 2.36969 8.95112 2.44117 7.38965 3.13175C5.81082 3.83 4.57938 5.1482 4.06887 7.05343L2.47141 13.0152C1.43294 16.8909 4.13752 20.0966 7.76463 21.0684C9.33234 21.4885 10.8903 21.4531 12.2528 20.9568C12.642 20.8151 12.8426 20.3846 12.7009 19.9954C12.5591 19.6062 12.1287 19.4056 11.7395 19.5474C10.7032 19.9248 9.46355 19.9707 8.15286 19.6196C5.06609 18.7925 3.15979 16.2417 3.9203 13.4035L5.51776 7.44166C5.90675 5.98994 6.81806 5.02468 7.99635 4.50358Z" fill="black"/>
</svg>
