<svg width="24" height="24" viewBox="0 0 24 24" fill="none" xmlns="http://www.w3.org/2000/svg">
<path fill-rule="evenodd" clip-rule="evenodd" d="M8.98022 7.24504C8.98015 7.24549 8.98009 7.24592 8.23712 7.14347C8.32239 7.8886 8.32202 7.88865 8.32164 7.88869L8.32079 7.88878L8.31881 7.88901L8.31369 7.88956L8.2989 7.89108C8.28707 7.89224 8.2713 7.8937 8.25186 7.8953C8.21301 7.89847 8.15935 7.90219 8.09305 7.90513C7.9608 7.911 7.77637 7.91387 7.55764 7.90283C7.12595 7.88106 6.53173 7.80379 5.93502 7.56802C5.33298 7.33014 4.70445 6.92044 4.261 6.22575C3.81568 5.52812 3.60544 4.6189 3.70643 3.47175C3.74043 3.08565 4.06303 2.78905 4.45062 2.78754C5.62717 2.78296 6.54226 3.02863 7.24093 3.45284C7.94338 3.87935 8.37608 4.45554 8.63435 5.02402C8.88894 5.5844 8.9733 6.13383 8.99695 6.53337C9.0089 6.73532 9.00571 6.90526 8.99916 7.02788C8.99587 7.08937 8.99171 7.13947 8.98808 7.17631C8.98626 7.19475 8.98457 7.20992 8.98319 7.22158L8.98135 7.23645L8.98064 7.24187L8.98035 7.24407L8.98022 7.24504ZM8.23712 7.14347L8.32239 7.8886C8.66264 7.84967 8.93331 7.58519 8.98009 7.24592L8.23712 7.14347ZM8.15251 6.39825L8.15456 6.39803C8.15459 6.39802 8.15438 6.39805 8.15393 6.3981L8.15308 6.39819L8.15251 6.39825ZM7.4777 6.39413C7.17429 6.36798 6.82125 6.30534 6.48623 6.17297C6.09748 6.01937 5.75766 5.78257 5.52537 5.41866C5.36499 5.16742 5.23249 4.81904 5.19324 4.32943C5.75784 4.40063 6.16604 4.55504 6.46244 4.735C6.87095 4.98304 7.11645 5.30938 7.26868 5.64446C7.38468 5.89979 7.44673 6.16176 7.4777 6.39413Z" fill="black"/>
<path fill-rule="evenodd" clip-rule="evenodd" d="M10.0474 8.098C7.63111 7.3447 5.54979 8.51209 4.63124 10.7122C3.73552 12.8577 4.03092 14.8821 4.91164 16.5319C5.80353 18.2026 7.28408 19.4622 8.68706 20.0213C9.53997 20.3611 10.2379 20.2863 10.6747 20.0318C11.0847 19.7929 11.3909 19.3243 11.3513 18.5514C11.3247 18.0323 11.3092 17.1866 11.4919 16.2576C11.5719 15.8512 11.9661 15.5866 12.3726 15.6665C12.779 15.7465 13.0436 16.1408 12.9637 16.5472C12.8154 17.3008 12.8254 18.006 12.8494 18.4747C12.9138 19.7341 12.3857 20.7709 11.4298 21.3278C10.5007 21.8692 9.30115 21.8807 8.13182 21.4147C6.38994 20.7207 4.64208 19.2121 3.58839 17.2383C2.52353 15.2436 2.1562 12.7471 3.24703 10.1343C4.42993 7.301 7.25712 5.65689 10.4938 6.66598C10.8893 6.78926 11.1099 7.20977 10.9866 7.60521C10.8633 8.00066 10.4428 8.22128 10.0474 8.098Z" fill="black"/>
<path fill-rule="evenodd" clip-rule="evenodd" d="M15.2829 7.77905C13.3552 6.08511 9.9963 7.24424 9.63978 10.2984C9.5849 10.7685 9.61178 10.9647 9.66754 11.372C9.67785 11.4473 9.68915 11.5298 9.7011 11.6226C9.95721 13.6108 10.9963 14.8576 12.29 15.5825C13.6122 16.3234 15.2221 16.5264 16.5495 16.3334C17.3631 16.2151 17.8428 15.8899 18.0432 15.5809C18.2103 15.3231 18.2714 14.9421 17.9161 14.3937C17.5096 13.7661 16.6892 12.3874 16.6892 10.7484C16.6892 9.33601 16.0449 8.4487 15.2829 7.77905ZM8.14989 10.1245C8.63377 5.97937 13.3545 4.08764 16.273 6.65228C17.2452 7.50662 18.1892 8.77312 18.1892 10.7484C18.1892 11.9252 18.7937 12.9893 19.1751 13.5782C19.7889 14.5258 19.8493 15.5524 19.3018 16.3969C18.7876 17.19 17.8387 17.6617 16.7654 17.8178C15.1586 18.0515 13.2068 17.8156 11.5568 16.8911C9.87814 15.9505 8.53426 14.3053 8.2134 11.8142C8.20342 11.7368 8.19319 11.663 8.18322 11.5911C8.12277 11.1551 8.07217 10.7902 8.14989 10.1245Z" fill="black"/>
<path fill-rule="evenodd" clip-rule="evenodd" d="M9.20451 2.29929C9.59147 2.44704 9.7854 2.88051 9.63766 3.26747C9.50982 3.6023 9.3179 4.21173 9.17859 4.90576C9.03785 5.60691 8.96184 6.34115 9.03066 6.94691C9.07742 7.35847 8.78169 7.73002 8.37012 7.77678C7.95856 7.82354 7.58701 7.52781 7.54025 7.11624C7.4462 6.28848 7.55344 5.38019 7.70792 4.61056C7.86384 3.83381 8.07912 3.14419 8.23632 2.73244C8.38407 2.34547 8.81754 2.15155 9.20451 2.29929Z" fill="black"/>
</svg>
