<svg width="24" height="24" viewBox="0 0 24 24" fill="none" xmlns="http://www.w3.org/2000/svg">
<path fill-rule="evenodd" clip-rule="evenodd" d="M8.5619 6.25405C10.7644 4.31862 13.8958 3.8882 16.3413 4.95817C16.3508 4.96231 16.3602 4.96664 16.3694 4.97116C17.781 5.65948 18.8217 6.97872 19.4221 8.50581C20.0245 10.0377 20.2086 11.8352 19.8585 13.5688C19.202 16.8201 17.056 19.0059 14.5815 20.285C12.123 21.5557 9.28268 21.9661 7.08265 21.6461C5.56565 21.4255 4.46702 20.726 4.09435 19.5418C3.74275 18.4246 4.13767 17.1573 4.88655 16.0011C5.36343 15.2649 5.81698 14.0371 5.81698 12.1282C5.81698 9.40979 7.20263 7.4485 8.5619 6.25405ZM15.7257 6.32613C13.8211 5.49999 11.3173 5.8296 9.55205 7.38082C8.41166 8.38293 7.31698 9.96389 7.31698 12.1282C7.31698 14.2778 6.80426 15.7996 6.14553 16.8166C5.49779 17.8166 5.37021 18.5992 5.52516 19.0915C5.65904 19.5169 6.096 19.9868 7.29853 20.1617C9.18161 20.4356 11.7062 20.0826 13.8927 18.9524C16.0631 17.8305 17.8419 15.9776 18.3882 13.2719C18.68 11.8266 18.5247 10.3226 18.0262 9.05471C17.528 7.78792 16.7117 6.81228 15.7257 6.32613Z" fill="black"/>
<path fill-rule="evenodd" clip-rule="evenodd" d="M15.9842 6.24694C15.5846 6.35593 15.1723 6.12033 15.0633 5.72071C14.6664 4.26531 15.3478 2.98011 16.371 2.35889C16.7251 2.14392 17.1864 2.25669 17.4014 2.61076C17.6163 2.96482 17.5036 3.42611 17.1495 3.64108C16.6463 3.94659 16.3051 4.57297 16.5105 5.32603C16.6195 5.72565 16.3839 6.13795 15.9842 6.24694Z" fill="black"/>
<path fill-rule="evenodd" clip-rule="evenodd" d="M11.8368 9.40534C12.5969 8.79594 13.6524 8.30311 14.6333 8.69322C15.6421 9.09437 15.9959 10.1899 16.069 11.1315C16.1467 12.1321 15.9488 13.2954 15.5371 14.3306C15.0889 15.4577 14.2493 16.2811 13.3492 16.7555C12.4725 17.2175 11.4228 17.4031 10.5615 17.0606C9.58944 16.6741 9.24972 15.7877 9.23435 14.906C9.21945 14.0513 9.49051 13.0574 9.87898 12.0805C10.3019 11.0171 11.0306 10.0517 11.8368 9.40534ZM12.7751 10.5756C12.1731 11.0583 11.6005 11.8108 11.2728 12.6348C10.9107 13.5454 10.7244 14.3204 10.7341 14.8798C10.7434 15.4122 10.9104 15.5851 11.1158 15.6668C11.4321 15.7926 12.0079 15.7668 12.6499 15.4285C13.2685 15.1025 13.8409 14.5367 14.1433 13.7763C14.4822 12.9239 14.6311 11.9898 14.5735 11.2476C14.5113 10.4465 14.2478 10.1542 14.0791 10.0871C13.8825 10.0089 13.4231 10.0561 12.7751 10.5756Z" fill="black"/>
</svg>
