<svg width="24" height="24" viewBox="0 0 24 24" fill="none" xmlns="http://www.w3.org/2000/svg">
<path fill-rule="evenodd" clip-rule="evenodd" d="M7.68535 4.65068C6.42467 5.27918 5.63623 6.18197 5.63623 7.44025C5.63623 8.00457 5.74119 8.46785 5.92959 8.79511C6.10397 9.09799 6.3621 9.31141 6.77436 9.39898C10.3444 10.1574 13.6632 10.1851 17.2391 9.40006C17.9479 9.24445 18.3638 8.60789 18.3638 7.53125C18.3638 6.2672 17.5118 5.33533 16.1327 4.67944C14.7591 4.02621 13.0444 3.75 11.7934 3.75C10.5587 3.75 8.95316 4.01862 7.68535 4.65068ZM7.01609 3.30826C8.54247 2.54729 10.3906 2.25 11.7934 2.25C13.2123 2.25 15.1577 2.55476 16.7769 3.32483C18.3905 4.09223 19.8638 5.42598 19.8638 7.53125C19.8638 8.93143 19.2712 10.4897 17.5608 10.8652C13.7655 11.6984 10.2304 11.6667 6.46266 10.8662C5.61424 10.686 5.00623 10.1976 4.62963 9.54351C4.26707 8.91374 4.13623 8.16474 4.13623 7.44025C4.13623 5.39011 5.48257 4.07278 7.01609 3.30826Z" fill="black"/>
<path fill-rule="evenodd" clip-rule="evenodd" d="M14.5894 9.88273C14.9997 9.82614 15.3783 10.1129 15.4348 10.5232C15.4843 10.882 15.608 11.4182 15.7653 12.1002C15.8149 12.3149 15.8677 12.5441 15.9227 12.7867C16.1448 13.7682 16.3875 14.9186 16.519 16.0393C16.6489 17.1457 16.6805 18.2973 16.4325 19.2546C16.1769 20.2413 15.5862 21.1263 14.4375 21.4164C12.6981 21.8556 11.248 21.8677 9.49168 21.4127C8.35989 21.1195 7.77758 20.2325 7.51792 19.2559C7.26454 18.3029 7.27936 17.1548 7.39069 16.0491C7.50339 14.9297 7.72362 13.7804 7.92589 12.7997C7.97397 12.5666 8.02035 12.3459 8.06392 12.1385C8.20957 11.4453 8.324 10.9008 8.36649 10.5384C8.41473 10.127 8.78733 9.83257 9.19873 9.8808C9.61012 9.92904 9.90452 10.3016 9.85628 10.713C9.80509 11.1497 9.66979 11.7926 9.52019 12.5036C9.47905 12.6991 9.43682 12.8998 9.39497 13.1027C9.19443 14.075 8.98767 15.1612 8.88315 16.1993C8.77726 17.251 8.78463 18.1824 8.96756 18.8705C9.14419 19.5348 9.44191 19.8503 9.86785 19.9607C11.3718 20.3503 12.5661 20.3419 14.0702 19.9621C14.5148 19.8498 14.8109 19.5328 14.9805 18.8784C15.1576 18.1945 15.1528 17.266 15.0293 16.2142C14.9075 15.1765 14.6798 14.0904 14.4597 13.1179C14.4121 12.9077 14.3641 12.6999 14.3174 12.4976C14.1551 11.795 14.0085 11.1601 13.9489 10.7282C13.8923 10.3178 14.1791 9.93933 14.5894 9.88273Z" fill="black"/>
<path fill-rule="evenodd" clip-rule="evenodd" d="M11.149 6.35486C10.224 6.35487 9.29536 6.75322 8.97615 6.93941C8.61836 7.14811 8.15912 7.02725 7.95042 6.66946C7.74172 6.31166 7.86259 5.85243 8.22038 5.64372C8.68601 5.37212 9.87647 4.85488 11.149 4.85486C11.5632 4.85485 11.899 5.19063 11.899 5.60485C11.899 6.01906 11.5632 6.35485 11.149 6.35486Z" fill="black"/>
</svg>
