<svg width="24" height="24" viewBox="0 0 24 24" fill="none" xmlns="http://www.w3.org/2000/svg">
<path fill-rule="evenodd" clip-rule="evenodd" d="M6.49405 12.474C5.43478 12.2843 4.121 13.2127 3.80965 14.9509C3.4983 16.6891 4.40814 18.0158 5.46741 18.2056C6.52668 18.3953 7.84046 17.4669 8.15181 15.7287C8.46316 13.9905 7.55332 12.6638 6.49405 12.474ZM2.33315 14.6864C2.73486 12.4438 4.60424 10.6117 6.75853 10.9975C8.91281 11.3834 10.03 13.7505 9.62831 15.9932C9.2266 18.2358 7.35723 20.068 5.20294 19.6821C3.04865 19.2962 1.93144 16.9291 2.33315 14.6864Z" fill="black"/>
<path fill-rule="evenodd" clip-rule="evenodd" d="M16.9888 15.9297C16.3344 14.2896 14.8608 13.6442 13.8613 14.043C12.8618 14.4418 12.2372 15.9243 12.8916 17.5644C13.5459 19.2046 15.0195 19.85 16.019 19.4512C17.0186 19.0524 17.6431 17.5699 16.9888 15.9297ZM13.3054 12.6498C15.3382 11.8387 17.5377 13.2577 18.382 15.3739C19.2263 17.49 18.6077 20.0333 16.5749 20.8444C14.5422 21.6554 12.3427 20.2364 11.4984 18.1203C10.654 16.0041 11.2727 13.4608 13.3054 12.6498Z" fill="black"/>
<path fill-rule="evenodd" clip-rule="evenodd" d="M15.2853 18.4563C14.8711 18.4563 14.5353 18.1205 14.5353 17.7063V17.6963C14.5353 17.2821 14.8711 16.9463 15.2853 16.9463C15.6995 16.9463 16.0353 17.2821 16.0353 17.6963V17.7063C16.0353 18.1205 15.6995 18.4563 15.2853 18.4563Z" fill="black"/>
<path fill-rule="evenodd" clip-rule="evenodd" d="M5.62341 17.4971C5.2092 17.4971 4.87341 17.1613 4.87341 16.7471V16.7371C4.87341 16.3229 5.2092 15.9871 5.62341 15.9871C6.03763 15.9871 6.37341 16.3229 6.37341 16.7371V16.7471C6.37341 17.1613 6.03763 17.4971 5.62341 17.4971Z" fill="black"/>
<path fill-rule="evenodd" clip-rule="evenodd" d="M6.45475 3.2796C6.59624 3.05497 6.84593 2.92188 7.11129 2.92964C7.47562 2.9403 7.84211 2.94127 8.21518 2.9412C8.25625 2.9412 8.29743 2.94118 8.3387 2.94116C8.66904 2.94099 9.00537 2.94083 9.33707 2.94721C10.0815 2.96154 10.8468 3.009 11.5793 3.17784C12.3191 3.3484 13.0388 3.64561 13.6838 4.16642C14.3297 4.68796 14.864 5.40419 15.2757 6.35993C15.3633 6.56315 15.3566 6.79466 15.2575 6.99251C15.1584 7.19036 14.977 7.33436 14.7618 7.38597C13.7777 7.62203 12.215 7.73616 10.6434 7.32815C9.05208 6.91501 7.41779 5.9538 6.42268 4.0229C6.30107 3.78692 6.31326 3.50423 6.45475 3.2796ZM8.52678 4.44111C9.23317 5.20104 10.1149 5.64121 11.0203 5.87628C11.8646 6.09545 12.7144 6.13069 13.4213 6.07665C13.2083 5.76781 12.9797 5.52583 12.7414 5.33345C12.312 4.98669 11.8148 4.77148 11.2423 4.63951C10.6624 4.50582 10.0199 4.46063 9.30821 4.44693C9.05213 4.44201 8.79282 4.44117 8.52678 4.44111Z" fill="black"/>
<path fill-rule="evenodd" clip-rule="evenodd" d="M21.6155 12.3023C21.4697 12.5116 21.2275 12.6325 20.9726 12.6232C20.6868 12.6127 20.3982 12.6117 20.1 12.6118C20.0673 12.6118 20.0344 12.6118 20.0014 12.6118C19.7377 12.612 19.4653 12.6122 19.1965 12.6057C18.5933 12.5912 17.9547 12.5429 17.3374 12.3649C16.7081 12.1835 16.1039 11.8682 15.5718 11.3307C15.0445 10.7982 14.6207 10.0806 14.2969 9.14054C14.2305 8.94752 14.2455 8.73575 14.3387 8.5541C14.4318 8.37245 14.595 8.23662 14.7905 8.17796C15.6192 7.92933 16.9254 7.81063 18.2397 8.23744C19.5875 8.67513 20.9061 9.67686 21.6934 11.588C21.7906 11.8238 21.7612 12.0929 21.6155 12.3023ZM19.7343 11.1117C19.1667 10.319 18.4646 9.88761 17.7764 9.6641C17.1773 9.46955 16.5739 9.42882 16.0617 9.46677C16.244 9.81283 16.439 10.0746 16.6377 10.2754C16.9645 10.6055 17.3332 10.8026 17.753 10.9237C18.1849 11.0482 18.6717 11.0926 19.2326 11.1061C19.3972 11.1101 19.5636 11.1114 19.7343 11.1117Z" fill="black"/>
<path fill-rule="evenodd" clip-rule="evenodd" d="M11.4687 8.62407C9.65367 9.53152 8.27871 10.7836 7.78128 11.9721C7.62135 12.3542 7.18196 12.5343 6.79986 12.3744C6.41777 12.2144 6.23766 11.775 6.39758 11.3929C7.09344 9.73035 8.83426 8.26416 10.7979 7.28241C12.7791 6.29191 15.149 5.71167 17.256 5.96657C17.6673 6.01632 17.9603 6.39 17.9105 6.80122C17.8608 7.21243 17.4871 7.50546 17.0759 7.45571C15.338 7.24547 13.2662 7.72537 11.4687 8.62407Z" fill="black"/>
<path fill-rule="evenodd" clip-rule="evenodd" d="M13.1732 6.75813C13.5488 6.93282 13.7116 7.3789 13.537 7.75447C13.0955 8.70363 13.0943 9.71293 13.2987 10.6234C13.5044 11.5399 13.9075 12.3026 14.1945 12.7009C14.4368 13.0369 14.3607 13.5056 14.0247 13.7478C13.6887 13.9901 13.22 13.914 12.9777 13.578C12.5798 13.026 12.0879 12.0783 11.8351 10.9519C11.5809 9.81932 11.5577 8.45312 12.1769 7.12186C12.3516 6.74629 12.7976 6.58344 13.1732 6.75813Z" fill="black"/>
</svg>
