<svg width="24" height="24" viewBox="0 0 24 24" fill="none" xmlns="http://www.w3.org/2000/svg">
<path d="M13.2845 20.7501C11.7845 20.7501 10.2645 20.4301 8.90452 20.1501C7.20452 19.8001 5.59452 19.4601 5.03452 20.0201C4.74452 20.3101 4.26452 20.3101 3.97452 20.0201C3.82452 19.8701 3.75452 19.6801 3.75452 19.4901C3.75452 19.3001 3.82452 19.1101 3.97452 18.9601C4.53452 18.4001 4.20452 16.7901 3.84452 15.1001C3.22452 12.1101 2.44452 8.40006 5.18452 5.66006C8.14452 2.70006 13.5045 3.24007 17.1345 6.87007C20.7645 10.5001 21.3045 15.8601 18.3445 18.8201C16.8545 20.3101 15.0745 20.7601 13.2845 20.7601V20.7501ZM6.10452 18.2201C7.01452 18.2201 8.07452 18.4401 9.21452 18.6801C11.9845 19.2601 15.1245 19.9101 17.2945 17.7501C19.6745 15.3701 19.1245 10.9601 16.0845 7.92006C13.0445 4.88006 8.63452 4.33006 6.25452 6.71006C4.09452 8.88006 4.74452 12.0201 5.32452 14.7901C5.59452 16.0701 5.83452 17.2501 5.77452 18.2301C5.88452 18.2301 5.99452 18.2201 6.10452 18.2201Z" fill="black"/>
<path d="M4.51453 20.24C4.32453 20.24 4.13453 20.17 3.98453 20.02C3.83453 19.87 3.76453 19.68 3.76453 19.49C3.76453 19.3 3.83453 19.11 3.98453 18.96C4.67453 18.27 4.89453 17.3 5.15453 16.08C5.57453 14.16 6.10452 11.78 8.71452 9.17C11.7245 6.16 15.4245 5.14 17.1445 6.86C18.8545 8.58 17.8445 12.28 14.8345 15.29C12.2245 17.9 9.84452 18.42 7.92452 18.85C6.70452 19.12 5.73453 19.33 5.04453 20.02C4.89453 20.17 4.70453 20.24 4.51453 20.24ZM14.8945 7.52C13.5845 7.52 11.6045 8.40001 9.77452 10.23C7.47452 12.53 7.02453 14.59 6.62453 16.4C6.52453 16.84 6.43452 17.27 6.31452 17.69C6.73452 17.57 7.16452 17.48 7.60452 17.38C9.42452 16.98 11.4745 16.52 13.7745 14.23C16.3145 11.69 17.0345 8.87 16.0845 7.92C15.8245 7.66 15.4045 7.52 14.8945 7.52Z" fill="black"/>
<path d="M16.6644 8.08003C16.4744 8.08003 16.2844 8.01003 16.1344 7.86003C15.8444 7.57003 15.8444 7.09003 16.1344 6.80003L18.3644 4.57004C18.6544 4.28004 19.1344 4.28004 19.4244 4.57004C19.7144 4.86004 19.7144 5.34004 19.4244 5.63004L17.1944 7.86003C17.0444 8.01003 16.8544 8.08003 16.6644 8.08003Z" fill="black"/>
<path d="M20.0044 8.07999H16.6644C16.2544 8.07999 15.9144 7.73999 15.9144 7.32999V3.98999C15.9144 3.57999 16.2544 3.23999 16.6644 3.23999C17.0744 3.23999 17.4144 3.57999 17.4144 3.98999V6.57999H20.0044C20.4144 6.57999 20.7544 6.91999 20.7544 7.32999C20.7544 7.73999 20.4144 8.07999 20.0044 8.07999Z" fill="black"/>
</svg>
