<svg width="24" height="24" viewBox="0 0 24 24" fill="none" xmlns="http://www.w3.org/2000/svg">
<path fill-rule="evenodd" clip-rule="evenodd" d="M3.7373 13.9292C3.7373 9.56769 7.48013 6.1084 12 6.1084C16.5199 6.1084 20.2627 9.56769 20.2627 13.9292C20.2627 18.2907 16.5199 21.75 12 21.75C7.48013 21.75 3.7373 18.2907 3.7373 13.9292ZM12 7.6084C8.22159 7.6084 5.2373 10.4805 5.2373 13.9292C5.2373 17.3779 8.22159 20.25 12 20.25C15.7784 20.25 18.7627 17.3779 18.7627 13.9292C18.7627 10.4805 15.7784 7.6084 12 7.6084Z" fill="black"/>
<path fill-rule="evenodd" clip-rule="evenodd" d="M15.5302 3.27452C15.4644 2.86556 15.0796 2.58732 14.6707 2.65305C13.3075 2.87216 12.3321 3.84687 11.7212 4.87355C11.109 5.90214 10.7801 7.1134 10.7801 8.05419C10.7801 8.4684 11.1159 8.80419 11.5301 8.80419C11.9443 8.80419 12.2801 8.4684 12.2801 8.05419C12.2801 7.40982 12.522 6.46097 13.0102 5.64064C13.4995 4.81839 14.1539 4.25536 14.9087 4.13404C15.3177 4.06831 15.5959 3.68349 15.5302 3.27452Z" fill="black"/>
<path fill-rule="evenodd" clip-rule="evenodd" d="M10.802 6.07294C9.13452 5.92804 8.47433 5.36594 8.16402 4.88968C7.96425 4.58309 7.85815 4.23716 7.78428 3.87079C7.77775 3.83843 7.7716 3.80662 7.76573 3.77518C9.91257 3.90144 10.4485 4.47355 10.6236 4.82906C10.7482 5.08202 10.7817 5.38399 10.7944 5.79327C10.7957 5.83504 10.7969 5.87974 10.798 5.92638C10.7992 5.97361 10.8004 6.02281 10.802 6.07294ZM11.9692 4.16621C11.3584 2.92616 9.85118 2.25 6.85033 2.25C6.60925 2.25 6.38286 2.36589 6.2419 2.56147C6.10093 2.75704 6.06258 3.00846 6.13882 3.23717C6.15925 3.29848 6.18051 3.39789 6.2101 3.57358C6.21619 3.60974 6.22263 3.64907 6.22947 3.69087C6.25235 3.83067 6.27977 3.99813 6.31387 4.16726C6.40451 4.61683 6.55886 5.17384 6.90725 5.70855C7.64406 6.83938 9.06213 7.6084 11.6735 7.6084C11.9256 7.6084 12.1608 7.48174 12.2996 7.27127C12.4384 7.0608 12.4621 6.79468 12.3628 6.56296C12.3479 6.52807 12.3275 6.45318 12.3148 6.30001C12.3052 6.18511 12.3023 6.06838 12.2986 5.92379C12.2972 5.86921 12.2957 5.81067 12.2937 5.74675C12.2806 5.3247 12.2489 4.73399 11.9692 4.16621Z" fill="black"/>
<path fill-rule="evenodd" clip-rule="evenodd" d="M13.1716 9.65811C13.3576 9.28801 13.8084 9.13878 14.1785 9.32479L14.1875 9.32928C14.5576 9.51529 14.7068 9.96611 14.5208 10.3362C14.3348 10.7063 13.8839 10.8555 13.5138 10.6695L13.5049 10.665C13.1348 10.479 12.9856 10.0282 13.1716 9.65811Z" fill="black"/>
<path fill-rule="evenodd" clip-rule="evenodd" d="M15.3294 11.3693C15.5154 10.9992 15.9663 10.85 16.3364 11.036L16.3453 11.0405C16.7154 11.2265 16.8646 11.6773 16.6786 12.0474C16.4926 12.4175 16.0418 12.5667 15.6717 12.3807L15.6628 12.3762C15.2927 12.1902 15.1434 11.7394 15.3294 11.3693Z" fill="black"/>
<path fill-rule="evenodd" clip-rule="evenodd" d="M13.1761 12.4691C13.3621 12.099 13.8129 11.9498 14.183 12.1358L14.192 12.1403C14.5621 12.3263 14.7113 12.7771 14.5253 13.1472C14.3393 13.5173 13.8885 13.6666 13.5184 13.4806L13.5094 13.4761C13.1393 13.2901 12.9901 12.8392 13.1761 12.4691Z" fill="black"/>
</svg>
