<svg width="24" height="24" viewBox="0 0 24 24" fill="none" xmlns="http://www.w3.org/2000/svg">
<path fill-rule="evenodd" clip-rule="evenodd" d="M2.25 13.9079C2.25 9.58946 5.95577 6.16504 10.4299 6.16504C14.9041 6.16504 18.6099 9.58946 18.6099 13.9079C18.6099 14.1845 18.5945 14.458 18.5645 14.7276C18.5187 15.1392 18.1479 15.4358 17.7362 15.39C17.3245 15.3442 17.0279 14.9734 17.0737 14.5617C17.0976 14.3471 17.1099 14.129 17.1099 13.9079C17.1099 10.5023 14.1627 7.66504 10.4299 7.66504C6.69723 7.66504 3.75 10.5023 3.75 13.9079C3.75 17.3136 6.69723 20.1508 10.4299 20.1508C11.1408 20.1508 11.8242 20.0472 12.4645 19.856C12.8614 19.7375 13.2792 19.9632 13.3977 20.3601C13.5162 20.757 13.2905 21.1749 12.8936 21.2934C12.1149 21.5258 11.287 21.6508 10.4299 21.6508C5.95577 21.6508 2.25 18.2264 2.25 13.9079Z" fill="black"/>
<path fill-rule="evenodd" clip-rule="evenodd" d="M13.9293 3.36937C13.8636 2.96041 13.4788 2.68216 13.0698 2.7479C11.7183 2.96513 10.7519 3.93137 10.147 4.94787C9.54098 5.96628 9.21521 7.16564 9.21521 8.09769C9.21521 8.51191 9.55099 8.84769 9.96521 8.84769C10.3794 8.84769 10.7152 8.51191 10.7152 8.09769C10.7152 7.46206 10.9539 6.52511 11.4361 5.71496C11.9193 4.90289 12.5648 4.34833 13.3079 4.22889C13.7168 4.16316 13.9951 3.77834 13.9293 3.36937Z" fill="black"/>
<path fill-rule="evenodd" clip-rule="evenodd" d="M9.2365 6.12917C7.59599 5.98476 6.9476 5.43085 6.64307 4.96347C6.44633 4.66151 6.34166 4.32056 6.26869 3.95869C6.26297 3.93028 6.25753 3.9023 6.25232 3.87463C8.36566 4.00068 8.89034 4.56475 9.06124 4.91168C9.18363 5.16012 9.21677 5.45717 9.22933 5.86188C9.23061 5.90308 9.23172 5.94722 9.23288 5.99329C9.23398 6.03713 9.23512 6.08271 9.2365 6.12917ZM10.4068 4.24883C9.80043 3.01782 8.30518 2.34912 5.33693 2.34912C5.09585 2.34912 4.86947 2.46501 4.7285 2.66059C4.58754 2.85616 4.54918 3.10758 4.62542 3.33629C4.6454 3.39624 4.66634 3.49397 4.69561 3.66775C4.70162 3.70346 4.70798 3.74231 4.71475 3.78363C4.73738 3.9219 4.76453 4.08773 4.79828 4.25516C4.88802 4.70023 5.04093 5.25227 5.38631 5.78234C6.11708 6.9039 7.52277 7.66501 10.1069 7.66501C10.359 7.66501 10.5943 7.53835 10.7331 7.32788C10.8718 7.11741 10.8956 6.8513 10.7963 6.61957C10.782 6.58627 10.762 6.51323 10.7494 6.36209C10.74 6.24871 10.7371 6.1336 10.7334 5.99071C10.7321 5.93669 10.7306 5.87871 10.7286 5.81536C10.7157 5.39788 10.6843 4.8121 10.4068 4.24883Z" fill="black"/>
<path fill-rule="evenodd" clip-rule="evenodd" d="M8.11414 15.9879C7.92625 14.9657 8.69091 13.9824 9.768 13.9824L20.0671 13.9832C20.0671 13.9832 20.0671 13.9832 20.0671 13.9832C21.1441 13.9832 21.9093 14.9669 21.7213 15.9892C21.1281 19.2078 18.3084 21.6486 14.9188 21.6508C11.5258 21.6491 8.70608 19.2097 8.11414 15.9879ZM9.76794 15.4824C9.66524 15.4825 9.5641 15.579 9.58943 15.7168C10.0529 18.2395 12.2619 20.1494 14.9186 20.1508M9.76794 15.4824L20.067 15.4832C20.1698 15.4832 20.2714 15.5803 20.246 15.718C19.7814 18.238 17.5712 20.1487 14.9186 20.1508M9.76794 15.4824C9.76792 15.4824 9.76796 15.4824 9.76794 15.4824V15.4824Z" fill="black"/>
<path fill-rule="evenodd" clip-rule="evenodd" d="M14.3328 14.2018C14.6167 13.9179 15.0739 13.908 15.3699 14.1793L19.9411 18.3699C20.2464 18.6498 20.267 19.1242 19.9871 19.4295C19.7072 19.7348 19.2327 19.7554 18.9274 19.4755L14.8857 15.7703L11.0601 19.5958C10.7672 19.8887 10.2923 19.8887 9.99946 19.5958C9.70656 19.303 9.70656 18.8281 9.99946 18.5352L14.3328 14.2018Z" fill="black"/>
<path fill-rule="evenodd" clip-rule="evenodd" d="M14.8637 13.9822C15.2779 13.9825 15.6135 14.3185 15.6132 14.7327L15.6091 20.8976C15.6089 21.3118 15.2729 21.6474 14.8586 21.6471C14.4444 21.6469 14.1089 21.3109 14.1091 20.8966L14.1132 14.7317C14.1135 14.3175 14.4495 13.9819 14.8637 13.9822Z" fill="black"/>
</svg>
