<svg width="24" height="24" viewBox="0 0 24 24" fill="none" xmlns="http://www.w3.org/2000/svg">
<path d="M12.19 21.7487C12.13 21.7487 12.06 21.7487 12 21.7487C9.38997 21.8287 7.03996 20.4887 5.82996 18.2887C4.71996 16.2587 4.85996 13.8687 6.20996 11.9087C6.39996 11.6387 6.63997 11.3487 6.90997 11.0587C7.60997 10.2587 8.40997 9.3587 8.40997 8.2887C8.40997 5.8187 9.78997 4.2887 12 4.2887C14.21 4.2887 15.47 5.72869 15.59 8.24869C15.59 9.43869 16.3699 10.2987 17.0699 11.0487C17.3399 11.3487 17.5999 11.6287 17.7899 11.9087C19.1399 13.8787 19.28 16.2587 18.17 18.2887C17 20.4387 14.7199 21.7487 12.2 21.7487H12.19ZM11.99 20.2487C11.99 20.2487 11.9999 20.2487 12.0099 20.2487C14.0699 20.2987 15.9 19.2787 16.84 17.5687C17.68 16.0187 17.5699 14.2687 16.5399 12.7487C16.4099 12.5487 16.1799 12.3087 15.95 12.0587C15.16 11.1987 14.08 10.0187 14.08 8.27869C13.97 6.04869 12.83 5.77869 11.99 5.77869C10.26 5.77869 9.89996 7.13869 9.89996 8.27869C9.89996 9.90869 8.81997 11.1387 8.02997 12.0387C7.79997 12.2987 7.58995 12.5387 7.44995 12.7487C6.40995 14.2687 6.29996 16.0187 7.14996 17.5687C8.07996 19.2787 9.91995 20.2987 11.9799 20.2487C11.9799 20.2487 11.99 20.2487 12 20.2487H11.99Z" fill="black"/>
<path d="M11.99 5.78877C11.59 5.78877 11.26 5.47876 11.24 5.06876C11.18 3.81876 11.82 2.72874 11.89 2.60874C12.1 2.25874 12.56 2.13874 12.92 2.35874C13.27 2.56874 13.39 3.03877 13.17 3.38877C13.17 3.38877 12.7 4.18876 12.73 4.99876C12.75 5.40876 12.43 5.75876 12.02 5.77876C12.01 5.77876 12 5.77876 11.98 5.77876L11.99 5.78877Z" fill="black"/>
<path d="M13.4 16.2788C13.03 16.2788 12.71 16.0088 12.66 15.6388L12.46 14.2888C12.4 13.8788 12.68 13.4988 13.09 13.4388C13.49 13.3788 13.88 13.6588 13.94 14.0688L14.14 15.4188C14.2 15.8288 13.92 16.2087 13.51 16.2687C13.47 16.2687 13.44 16.2687 13.4 16.2687V16.2788Z" fill="black"/>
<path d="M10.5801 16.2787C10.5801 16.2787 10.5101 16.2787 10.4701 16.2787C10.0601 16.2187 9.78012 15.8387 9.84012 15.4287L10.0401 14.0786C10.1001 13.6686 10.4901 13.3787 10.8901 13.4487C11.3001 13.5087 11.5801 13.8886 11.5201 14.2986L11.3201 15.6487C11.2701 16.0187 10.9401 16.2887 10.5801 16.2887V16.2787Z" fill="black"/>
</svg>
