<svg width="24" height="24" viewBox="0 0 24 24" fill="none" xmlns="http://www.w3.org/2000/svg">
<path d="M9.71531 21.7417C8.61531 21.7417 7.53531 21.4517 6.55531 20.8917C5.08531 20.0417 4.03531 18.6817 3.60531 17.0417C3.17531 15.4017 3.39532 13.7017 4.23532 12.2317C4.99532 10.9217 6.17532 9.87173 7.56532 9.28173C8.24532 8.99173 8.82531 8.48172 9.19531 7.83172C9.75531 6.86172 10.6953 6.14171 11.7753 5.85171C12.8553 5.56171 14.0253 5.72172 14.9953 6.27172C17.0253 7.44172 17.7153 10.0417 16.5453 12.0717C16.1753 12.7117 16.0253 13.4717 16.1053 14.2017C16.2853 15.7017 15.9753 17.2517 15.2153 18.5617C14.3653 20.0317 13.0053 21.0817 11.3653 21.5117C10.8153 21.6617 10.2653 21.7317 9.71531 21.7317V21.7417ZM12.8653 7.21173C12.6253 7.21173 12.3953 7.24172 12.1553 7.30172C11.4553 7.49172 10.8553 7.95172 10.4853 8.58172C9.95532 9.50172 9.12531 10.2417 8.14531 10.6517C7.05531 11.1217 6.11531 11.9417 5.52531 12.9717C4.87531 14.0917 4.70531 15.3917 5.04531 16.6417C5.37531 17.8917 6.17531 18.9317 7.29531 19.5817C8.41531 20.2317 9.71531 20.4017 10.9653 20.0617C12.2153 19.7317 13.2553 18.9217 13.9053 17.8017C14.4953 16.7717 14.7453 15.5517 14.6053 14.3717C14.4753 13.3117 14.7053 12.2317 15.2353 11.3117C15.9953 10.0017 15.5453 8.32173 14.2353 7.56173C13.8153 7.32173 13.3353 7.19174 12.8553 7.19174L12.8653 7.21173Z" fill="black"/>
<path d="M17.0154 8.50175C16.2054 8.50175 15.3054 8.20173 14.2354 7.58173C13.8754 7.37173 13.7554 6.91174 13.9654 6.56174C15.6154 3.70174 17.3754 3.22175 20.2354 4.88175C20.4054 4.98175 20.5354 5.14174 20.5854 5.34174C20.6354 5.53174 20.6054 5.74175 20.5054 5.91175C19.6654 7.37175 18.7854 8.17173 17.7254 8.42173C17.4954 8.48173 17.2554 8.50175 17.0054 8.50175H17.0154ZM15.6754 6.64173C16.3754 6.96173 16.9254 7.06173 17.3854 6.95173C17.8654 6.83173 18.3254 6.46173 18.7954 5.80173C17.3654 5.12173 16.5754 5.34173 15.6754 6.64173Z" fill="black"/>
<path d="M14.6156 7.68164C14.4856 7.68164 14.3556 7.65163 14.2456 7.58163C13.8856 7.37163 13.7656 6.91164 13.9756 6.56164L14.2156 6.14163C14.4356 5.76163 14.4956 5.31163 14.3756 4.89163C14.2656 4.46163 13.9856 4.11163 13.6056 3.89163L13.1856 3.65164C12.8256 3.44164 12.7056 2.98165 12.9156 2.63165C13.1256 2.27165 13.5856 2.15163 13.9356 2.36163L14.3556 2.60162C15.0856 3.02162 15.6056 3.70162 15.8256 4.51162C16.0356 5.31162 15.9256 6.18164 15.5156 6.90164L15.2756 7.32162C15.1356 7.56162 14.8856 7.70163 14.6256 7.70163L14.6156 7.68164Z" fill="black"/>
<path d="M7.70544 17.0917C7.44544 17.0917 7.19543 16.9617 7.05543 16.7217C6.21543 15.2617 6.71543 13.3917 8.17543 12.5517C8.53543 12.3417 8.99543 12.4717 9.19543 12.8217C9.40543 13.1817 9.27543 13.6417 8.92543 13.8417C8.18543 14.2717 7.92544 15.2217 8.35544 15.9617C8.56544 16.3217 8.43543 16.7817 8.08543 16.9817C7.96543 17.0517 7.83544 17.0817 7.71544 17.0817L7.70544 17.0917Z" fill="black"/>
</svg>
