<svg width="24" height="24" viewBox="0 0 24 24" fill="none" xmlns="http://www.w3.org/2000/svg">
<path fill-rule="evenodd" clip-rule="evenodd" d="M11.5556 2.39584C11.82 2.20139 12.1801 2.20139 12.4444 2.39584C13.4338 3.12359 13.9287 3.96683 14.1306 4.72466C14.8395 4.45532 15.798 4.31495 17.0092 4.44341C17.3907 4.48387 17.6802 4.80577 17.6801 5.18945C17.6797 6.48566 16.8384 8.37499 14.7248 9.27991C14.344 9.44294 13.9032 9.26642 13.7401 8.88564C13.5771 8.50485 13.7536 8.06401 14.1344 7.90098C15.2445 7.42569 15.8225 6.59589 16.0547 5.89499C15.4556 5.90163 15.0093 5.99852 14.6926 6.11593C14.4699 6.19851 14.3119 6.29091 14.2075 6.36904C14.1057 6.44522 14.0681 6.4977 14.0644 6.50286C14.0641 6.50327 14.064 6.50338 14.0642 6.50319C13.8688 6.83121 13.4582 6.96013 13.1104 6.80265C12.7626 6.64518 12.5886 6.25157 12.7063 5.88836C12.7775 5.66825 12.844 4.83142 12 3.98416C11.1561 4.8314 11.2226 5.66822 11.2939 5.88836C11.4115 6.25157 11.2375 6.64518 10.8897 6.80265C10.5419 6.96013 10.1313 6.83121 9.93599 6.50319C9.9361 6.50338 9.93602 6.50327 9.93573 6.50286C9.93202 6.49769 9.89442 6.44521 9.79266 6.36904C9.68828 6.29091 9.53023 6.19851 9.30749 6.11593C8.9888 5.99778 8.53891 5.9004 7.93397 5.89487C8.14616 6.58657 8.68011 7.39279 9.74291 7.86911C10.1209 8.03852 10.29 8.48227 10.1206 8.86026C9.95118 9.23825 9.50743 9.40733 9.12944 9.23793C7.05752 8.30934 6.32045 6.44475 6.32007 5.18945C6.31995 4.80577 6.60943 4.48387 6.99097 4.44341C8.20208 4.31495 9.16061 4.45531 9.86948 4.72465C10.0713 3.96683 10.5663 3.12359 11.5556 2.39584Z" fill="black"/>
<path fill-rule="evenodd" clip-rule="evenodd" d="M5.47291 11.0509C5.47291 9.21861 6.95824 7.73328 8.79049 7.73328C9.31318 7.73328 9.80887 7.85463 10.2497 8.07076C10.7912 7.85297 11.3823 7.73328 12 7.73328C12.6176 7.73328 13.2087 7.85297 13.7503 8.07078C14.1911 7.85463 14.6868 7.73328 15.2095 7.73328C17.0418 7.73328 18.5271 9.21861 18.5271 11.0509C18.5271 11.247 18.51 11.4395 18.4771 11.6268C19.3379 12.2256 19.9026 13.2223 19.9026 14.3521C19.9026 15.4614 19.358 16.4426 18.5237 17.0444C18.526 17.0942 18.5271 17.1443 18.5271 17.1946C18.5271 19.0269 17.0418 20.5122 15.2095 20.5122C15.0105 20.5122 14.8152 20.4946 14.6252 20.4608C14.0191 21.2442 13.069 21.7499 12 21.7499C10.9309 21.7499 9.98086 21.2442 9.37471 20.4608C9.18475 20.4946 8.98947 20.5122 8.79049 20.5122C6.95824 20.5122 5.47291 19.0269 5.47291 17.1946C5.47291 17.1443 5.47404 17.0942 5.47627 17.0444C4.64197 16.4426 4.09741 15.4614 4.09741 14.3521C4.09741 13.2223 4.66207 12.2255 5.52286 11.6268C5.49001 11.4395 5.47291 11.247 5.47291 11.0509ZM8.79049 9.23328C7.78667 9.23328 6.97291 10.047 6.97291 11.0509C6.97291 11.2875 7.01777 11.5119 7.09877 11.7173C7.24745 12.0943 7.06976 12.5212 6.6975 12.6814C6.04908 12.9604 5.59741 13.6044 5.59741 14.3521C5.59741 15.0663 6.00919 15.6856 6.61167 15.9832C6.91943 16.1351 7.08474 16.4767 7.01303 16.8123C6.98684 16.9349 6.97291 17.0627 6.97291 17.1946C6.97291 18.1985 7.78667 19.0122 8.79049 19.0122C9.02099 19.0122 9.23979 18.9697 9.44069 18.8927C9.79938 18.7552 10.204 18.911 10.3778 19.2535C10.6788 19.8464 11.2929 20.2499 12 20.2499C12.707 20.2499 13.3212 19.8463 13.6221 19.2535C13.796 18.911 14.2006 18.7552 14.5593 18.8927C14.7602 18.9697 14.979 19.0122 15.2095 19.0122C16.2133 19.0122 17.0271 18.1985 17.0271 17.1946C17.0271 17.0627 17.0132 16.9349 16.987 16.8123C16.9153 16.4767 17.0806 16.1351 17.3883 15.9832C17.9908 15.6856 18.4026 15.0663 18.4026 14.3521C18.4026 13.6044 17.9509 12.9604 17.3025 12.6814C16.9302 12.5212 16.7525 12.0943 16.9012 11.7173C16.9822 11.5119 17.0271 11.2875 17.0271 11.0509C17.0271 10.047 16.2133 9.23328 15.2095 9.23328C14.8366 9.23328 14.4921 9.34475 14.2045 9.53604C13.9789 9.68618 13.6898 9.70287 13.4483 9.57972C13.0145 9.35842 12.5229 9.23328 12 9.23328C11.477 9.23328 10.9855 9.35841 10.5516 9.57971C10.3102 9.70286 10.0211 9.68616 9.79544 9.53603C9.50791 9.34475 9.16336 9.23328 8.79049 9.23328Z" fill="black"/>
<path fill-rule="evenodd" clip-rule="evenodd" d="M7.4917 14.3375C7.4917 13.9233 7.82749 13.5875 8.2417 13.5875H8.2517C8.66591 13.5875 9.0017 13.9233 9.0017 14.3375C9.0017 14.7517 8.66591 15.0875 8.2517 15.0875H8.2417C7.82749 15.0875 7.4917 14.7517 7.4917 14.3375Z" fill="black"/>
<path fill-rule="evenodd" clip-rule="evenodd" d="M14.9993 14.3375C14.9993 13.9233 15.3351 13.5875 15.7493 13.5875H15.7593C16.1735 13.5875 16.5093 13.9233 16.5093 14.3375C16.5093 14.7517 16.1735 15.0875 15.7593 15.0875H15.7493C15.3351 15.0875 14.9993 14.7517 14.9993 14.3375Z" fill="black"/>
<path fill-rule="evenodd" clip-rule="evenodd" d="M11.0947 14.3375C11.0947 13.9233 11.4305 13.5875 11.8447 13.5875H11.8547C12.2689 13.5875 12.6047 13.9233 12.6047 14.3375C12.6047 14.7517 12.2689 15.0875 11.8547 15.0875H11.8447C11.4305 15.0875 11.0947 14.7517 11.0947 14.3375Z" fill="black"/>
<path fill-rule="evenodd" clip-rule="evenodd" d="M11.0947 17.9061C11.0947 17.4919 11.4305 17.1561 11.8447 17.1561H11.8547C12.2689 17.1561 12.6047 17.4919 12.6047 17.9061C12.6047 18.3203 12.2689 18.6561 11.8547 18.6561H11.8447C11.4305 18.6561 11.0947 18.3203 11.0947 17.9061Z" fill="black"/>
<path fill-rule="evenodd" clip-rule="evenodd" d="M11.0947 11.2385C11.0947 10.8243 11.4305 10.4885 11.8447 10.4885H11.8547C12.2689 10.4885 12.6047 10.8243 12.6047 11.2385C12.6047 11.6527 12.2689 11.9885 11.8547 11.9885H11.8447C11.4305 11.9885 11.0947 11.6527 11.0947 11.2385Z" fill="black"/>
<path fill-rule="evenodd" clip-rule="evenodd" d="M8.8122 11.1493C9.10509 10.8565 9.57997 10.8565 9.87286 11.1493L9.87993 11.1564C10.1728 11.4493 10.1728 11.9242 9.87993 12.2171C9.58704 12.51 9.11216 12.51 8.81927 12.2171L8.8122 12.21C8.51931 11.9171 8.51931 11.4422 8.8122 11.1493Z" fill="black"/>
<path fill-rule="evenodd" clip-rule="evenodd" d="M14.1208 16.4579C14.4137 16.165 14.8886 16.165 15.1815 16.4579L15.1885 16.465C15.4814 16.7579 15.4814 17.2328 15.1885 17.5257C14.8956 17.8186 14.4208 17.8186 14.1279 17.5257L14.1208 17.5186C13.8279 17.2257 13.8279 16.7508 14.1208 16.4579Z" fill="black"/>
<path fill-rule="evenodd" clip-rule="evenodd" d="M8.8122 17.5247C9.10509 17.8176 9.57997 17.8176 9.87286 17.5247L9.87993 17.5177C10.1728 17.2248 10.1728 16.7499 9.87993 16.457C9.58704 16.1641 9.11216 16.1641 8.81927 16.457L8.8122 16.4641C8.51931 16.757 8.51931 17.2318 8.8122 17.5247Z" fill="black"/>
<path fill-rule="evenodd" clip-rule="evenodd" d="M14.1208 12.2161C14.4137 12.509 14.8886 12.509 15.1815 12.2161L15.1885 12.2091C15.4814 11.9162 15.4814 11.4413 15.1885 11.1484C14.8956 10.8555 14.4208 10.8555 14.1279 11.1484L14.1208 11.1555C13.8279 11.4484 13.8279 11.9232 14.1208 12.2161Z" fill="black"/>
</svg>
