<svg width="25" height="24" viewBox="0 0 25 24" fill="none" xmlns="http://www.w3.org/2000/svg">
<path d="M12.25 3C17.2209 3 21.25 7.02908 21.25 12C21.25 16.9709 17.2209 21 12.25 21C7.27908 21 3.25 16.9709 3.25 12C3.25 8.58793 5.14831 5.61962 7.94651 4.09347" stroke="black" stroke-width="1.5" stroke-linecap="round" stroke-linejoin="round"/>
<path d="M12.2497 21C14.1003 21 15.5996 16.9709 15.5996 12C15.5996 7.02908 14.1003 3 12.2497 3C10.3991 3 8.89972 7.02908 8.89972 12C8.89972 14.329 9.22886 16.4513 9.76905 18.0493" stroke="black" stroke-width="1.5" stroke-linecap="round" stroke-linejoin="round"/>
<path d="M21.25 11.9974C21.25 13.848 17.2209 15.3474 12.25 15.3474C7.27908 15.3474 3.25 13.848 3.25 11.9974C3.25 10.1468 7.27908 8.64746 12.25 8.64746C14.5915 8.64746 16.7241 8.98014 18.325 9.5255" stroke="black" stroke-width="1.5" stroke-linecap="round" stroke-linejoin="round"/>
</svg>