<svg width="24" height="24" viewBox="0 0 24 24" fill="none" xmlns="http://www.w3.org/2000/svg">
<path d="M9.49177 14.6271C10.0075 15.4775 10.9415 16.0457 12.0089 16.0457C13.6327 16.0457 14.9502 14.7283 14.9502 13.1044C14.9502 11.4805 13.6327 10.1641 12.0089 10.1641C10.8598 10.1641 9.86442 10.8228 9.37988 11.7841" stroke="black" stroke-width="1.5" stroke-linecap="round" stroke-linejoin="round"/>
<path d="M11.0086 11.7831H9.38086V10.1641" stroke="black" stroke-width="1.5" stroke-linecap="round" stroke-linejoin="round"/>
<path fill-rule="evenodd" clip-rule="evenodd" d="M13.9654 4.13672C14.7905 4.13672 15.5455 4.59207 15.9347 5.31888C16.1877 5.79272 16.465 6.27142 16.643 6.46699C16.9816 6.82212 17.4467 7.03229 17.9381 7.0498C19.6291 7.0498 21 8.42072 21 10.1117V10.1137V15.756C21 18.024 19.1611 19.8629 16.8941 19.8629H7.10595C4.83795 19.8629 3 18.024 3 15.756V10.1137C3.00195 8.42364 4.37189 7.05564 6.06195 7.05564C6.5533 7.03618 7.01741 6.82699 7.35697 6.47088C7.53892 6.27045 7.83178 5.77326 8.09935 5.28969C8.49243 4.57845 9.23968 4.13672 10.0531 4.13672H13.9654Z" stroke="black" stroke-width="1.5" stroke-linecap="round" stroke-linejoin="round"/>
</svg>