<svg width="24" height="24" viewBox="0 0 24 24" fill="none" xmlns="http://www.w3.org/2000/svg">
<path d="M20.9994 17.4878L15.2832 17.4304" stroke="black" stroke-width="1.5" stroke-linecap="round" stroke-linejoin="round"/>
<path d="M20.9995 17.4832C20.9927 18.2051 20.7135 18.9251 20.1628 19.4758C19.0458 20.5918 17.2361 20.5918 16.1201 19.4758C15.5548 18.9105 15.2756 18.1672 15.2834 17.4258" stroke="black" stroke-width="1.5" stroke-linecap="round" stroke-linejoin="round"/>
<path d="M20.9994 17.4844C21.0072 16.744 20.7279 16.0007 20.1626 15.4354C19.0457 14.3184 17.2369 14.3184 16.12 15.4354C15.5693 15.9851 15.29 16.7051 15.2832 17.427" stroke="black" stroke-width="1.5" stroke-linecap="round" stroke-linejoin="round"/>
<path fill-rule="evenodd" clip-rule="evenodd" d="M9.13723 4.05528L3.17101 12.272C2.74485 12.8587 3.1642 13.6798 3.88809 13.6798H8.76945V18.8385C8.76945 19.6986 9.8689 20.0547 10.3739 19.36L16.3401 11.1433C16.7653 10.5566 16.3469 9.73545 15.622 9.73545H10.7416V4.57582C10.7416 3.71669 9.6422 3.35961 9.13723 4.05528Z" stroke="black" stroke-width="1.5" stroke-linecap="round" stroke-linejoin="round"/>
</svg>