<svg width="24" height="24" viewBox="0 0 24 24" fill="none" xmlns="http://www.w3.org/2000/svg">
<path d="M20.9995 8.47004V6.89286C20.9995 4.74259 19.257 3 17.1067 3H15.8496" stroke="black" stroke-width="1.5" stroke-linecap="round" stroke-linejoin="round"/>
<path d="M3 8.47004V6.89286C3 4.74259 4.74259 3 6.89286 3H8.18205" stroke="black" stroke-width="1.5" stroke-linecap="round" stroke-linejoin="round"/>
<path d="M3 15.5312V17.1084C3 19.2577 4.74259 21.0003 6.89286 21.0003H8.14994" stroke="black" stroke-width="1.5" stroke-linecap="round" stroke-linejoin="round"/>
<path d="M20.9994 15.5312V17.1084C20.9994 19.2577 19.2568 21.0003 17.1066 21.0003H15.8174" stroke="black" stroke-width="1.5" stroke-linecap="round" stroke-linejoin="round"/>
<path fill-rule="evenodd" clip-rule="evenodd" d="M13.9321 16.0395H10.0664C8.90179 16.0395 7.95801 15.0957 7.95801 13.9311V10.0655C7.95801 8.90081 8.90179 7.95703 10.0664 7.95703H13.9321C15.0967 7.95703 16.0405 8.90081 16.0405 10.0655V13.9311C16.0405 15.0957 15.0967 16.0395 13.9321 16.0395Z" stroke="black" stroke-width="1.5" stroke-linecap="round" stroke-linejoin="round"/>
</svg>