<svg width="24" height="24" viewBox="0 0 24 24" fill="none" xmlns="http://www.w3.org/2000/svg">
<path fill-rule="evenodd" clip-rule="evenodd" d="M21.0001 8.02741V15.9737C21.0001 18.9179 19.1573 20.9943 16.214 20.9943H7.78123C4.837 20.9943 3.00391 18.9179 3.00391 15.9737V8.02741C3.00391 5.08317 4.84673 3.00781 7.78123 3.00781H16.214C19.1573 3.00781 21.0001 5.08317 21.0001 8.02741Z" stroke="black" stroke-width="1.5" stroke-linecap="round" stroke-linejoin="round"/>
<path fill-rule="evenodd" clip-rule="evenodd" d="M10.9044 9.29546C10.9044 10.2402 10.1387 11.005 9.19487 11.005C8.25011 11.005 7.48438 10.2402 7.48438 9.29546C7.48438 8.3507 8.25011 7.58594 9.19487 7.58594C10.1387 7.58594 10.9044 8.3507 10.9044 9.29546Z" stroke="black" stroke-width="1.5" stroke-linecap="round" stroke-linejoin="round"/>
<path d="M20.9976 10.8164C16.591 10.9925 12.8187 13.6439 11.0245 17.4064C10.4982 18.5185 10.1469 19.7172 10.001 20.9938" stroke="black" stroke-width="1.5" stroke-linecap="round" stroke-linejoin="round"/>
<path d="M3 13.1719C6.23612 13.4356 9.09279 15.0244 11.0232 17.4034" stroke="black" stroke-width="1.5" stroke-linecap="round" stroke-linejoin="round"/>
</svg>