<svg width="24" height="24" viewBox="0 0 24 24" fill="none" xmlns="http://www.w3.org/2000/svg">
<path fill-rule="evenodd" clip-rule="evenodd" d="M6.79883 9.19692C6.79883 10.1336 7.55805 10.8938 8.49575 10.8938C9.43248 10.8938 10.1927 10.1336 10.1927 9.19692C10.1927 8.26019 9.43248 7.5 8.49575 7.5C7.55805 7.5 6.79883 8.26019 6.79883 9.19692Z" stroke="black" stroke-width="1.5" stroke-linecap="round" stroke-linejoin="round"/>
<path d="M20.8606 15.9597L17.2815 12.535C16.3332 11.6262 14.834 11.6551 13.9156 12.5928L6.17676 20.5256" stroke="black" stroke-width="1.5" stroke-linecap="round" stroke-linejoin="round"/>
<path d="M20.8567 10.9607V15.9434C20.8567 18.8646 19.0286 20.9252 16.1075 20.9252H7.7396C4.81847 20.9252 3 18.8646 3 15.9434V8.0589C3 5.13681 4.82812 3.07812 7.7396 3.07812H13.2056" stroke="black" stroke-width="1.5" stroke-linecap="round" stroke-linejoin="round"/>
<path d="M18.58 3.14453V7.98157" stroke="black" stroke-width="1.5" stroke-linecap="round" stroke-linejoin="round"/>
<path d="M21.0001 5.56438H16.1631" stroke="black" stroke-width="1.5" stroke-linecap="round" stroke-linejoin="round"/>
</svg>