<svg width="24" height="24" viewBox="0 0 24 24" fill="none" xmlns="http://www.w3.org/2000/svg">
<path fill-rule="evenodd" clip-rule="evenodd" d="M21 8.02465V15.9725C21 18.917 19.1572 20.9942 16.2126 20.9942H7.77763C4.83306 20.9942 3 18.917 3 15.9725V8.02465C3 5.08008 4.84279 3.00391 7.77763 3.00391H16.2126C19.1572 3.00391 21 5.08008 21 8.02465Z" stroke="black" stroke-width="1.5" stroke-linecap="round" stroke-linejoin="round"/>
<path d="M7.54304 20.9855L13.6763 14.0141C14.427 13.1651 14.3395 11.8688 13.4915 11.1269L12.38 10.1525C11.5213 9.39201 10.2338 9.47953 9.48307 10.3275L8.11873 11.8776L3.1748 17.475" stroke="black" stroke-width="1.5" stroke-linecap="round" stroke-linejoin="round"/>
<path d="M8.11719 11.8789L12.2909 15.5548" stroke="black" stroke-width="1.5" stroke-linecap="round" stroke-linejoin="round"/>
<path d="M16.6845 10.0838V10.0449" stroke="black" stroke-width="1.5" stroke-linecap="round" stroke-linejoin="round"/>
<path d="M15.3456 16.8652V16.9041" stroke="black" stroke-width="1.5" stroke-linecap="round" stroke-linejoin="round"/>
<path d="M6.82704 7.34942V7.31052" stroke="black" stroke-width="1.5" stroke-linecap="round" stroke-linejoin="round"/>
<path d="M16.2265 7.15802V7.11912" stroke="black" stroke-width="1.5" stroke-linecap="round" stroke-linejoin="round"/>
</svg>