<svg width="24" height="24" viewBox="0 0 24 24" fill="none" xmlns="http://www.w3.org/2000/svg">
<path fill-rule="evenodd" clip-rule="evenodd" d="M4.67107 21.094C4.93307 21.355 5.28007 21.5 5.65007 21.5C5.88707 21.5 6.12107 21.438 6.32807 21.323L12.0251 18.129L17.6671 21.316C17.9891 21.499 18.3621 21.543 18.7191 21.444C19.0751 21.346 19.3711 21.113 19.5531 20.791C19.6701 20.583 19.7321 20.349 19.7321 20.112L19.7271 6.586C19.7271 3.951 18.0331 2.5 14.9571 2.5H9.04007C6.00707 2.5 4.26807 3.927 4.26807 6.415V20.116C4.26707 20.485 4.41007 20.832 4.67107 21.094ZM13.2741 12.8496H10.7261C10.3121 12.8496 9.97607 12.5136 9.97607 12.0996C9.97607 11.6856 10.3121 11.3496 10.7261 11.3496H13.2741C13.6881 11.3496 14.0241 11.6856 14.0241 12.0996C14.0241 12.5136 13.6881 12.8496 13.2741 12.8496ZM9.37408 8.90625H14.6261C15.0401 8.90625 15.3761 8.57025 15.3761 8.15625C15.3761 7.74225 15.0401 7.40625 14.6261 7.40625H9.37408C8.96008 7.40625 8.62408 7.74225 8.62408 8.15625C8.62408 8.57025 8.96008 8.90625 9.37408 8.90625Z" fill="black"/>
</svg>