<svg width="24" height="24" viewBox="0 0 24 24" fill="none" xmlns="http://www.w3.org/2000/svg">
<path fill-rule="evenodd" clip-rule="evenodd" d="M16.217 21.5H7.783C4.623 21.5 2.5 19.279 2.5 15.974V8.027C2.5 4.721 4.623 2.5 7.783 2.5H16.218C19.377 2.5 21.5 4.721 21.5 8.027V15.974C21.5 19.279 19.377 21.5 16.217 21.5ZM16.6169 4.68662C17.0924 4.71571 17.4287 5.13411 17.4288 5.61051L17.4296 15.0564C17.4296 15.3224 17.2897 15.5684 17.0596 15.7024C16.8306 15.8384 16.5477 15.8404 16.3156 15.7114L14.0897 14.4724L11.8466 15.7124C11.7336 15.7754 11.6086 15.8064 11.4836 15.8064C11.4111 15.8064 11.3387 15.7958 11.2687 15.7749C11.2112 15.7577 11.1554 15.7335 11.1027 15.7024C10.8737 15.5674 10.7336 15.3224 10.7336 15.0564V5.67456C10.7336 5.12228 11.1814 4.67456 11.7336 4.67456H16.218C16.3529 4.67456 16.4859 4.67861 16.6169 4.68662Z" fill="black"/>
</svg>