<svg width="24" height="24" viewBox="0 0 24 24" fill="none" xmlns="http://www.w3.org/2000/svg">
<path d="M9.40173 9.41411C9.40173 9.14511 9.40173 8.58411 10.6287 8.58411H13.3687C14.5947 8.58411 14.5947 9.15311 14.5947 9.49411L14.5967 15.1711L12.3807 13.9181C12.1527 13.7891 11.8737 13.7891 11.6457 13.9171L9.40173 15.1751V9.41411Z" fill="black"/>
<path fill-rule="evenodd" clip-rule="evenodd" d="M16.216 21.5H7.782C4.622 21.5 2.5 19.279 2.5 15.974V8.026C2.5 4.721 4.622 2.5 7.782 2.5H16.217C19.377 2.5 21.5 4.721 21.5 8.026V15.974C21.5 19.279 19.376 21.5 16.216 21.5ZM7.90173 15.7571C7.90173 16.3961 8.42173 16.9161 9.06073 16.9161C9.26273 16.9161 9.46173 16.8631 9.62773 16.7681L12.0107 15.4321L14.3707 16.7661C14.9267 17.0801 15.6357 16.8781 15.9507 16.3191C16.0457 16.1461 16.0967 15.9511 16.0967 15.7551L16.0947 9.49411C16.0947 7.98511 15.0757 7.08411 13.3687 7.08411H10.6287C8.94673 7.08411 7.90173 7.97711 7.90173 9.41411V15.7571Z" fill="black"/>
</svg>