<svg width="24" height="24" viewBox="0 0 24 24" fill="none" xmlns="http://www.w3.org/2000/svg">
<path fill-rule="evenodd" clip-rule="evenodd" d="M15.641 21.5013H8.34303C5.68503 21.5013 4.09903 19.8473 4.09903 17.0773L4.08203 4.8253C4.08103 4.2353 4.37903 3.6963 4.87703 3.3823C5.37503 3.0693 5.98803 3.0333 6.52003 3.2863L7.27403 3.6463C7.60003 3.8053 7.97803 3.8163 8.31203 3.6783L10.462 2.8033C11.452 2.3963 12.546 2.3963 13.538 2.8033L15.681 3.6783C16.016 3.8133 16.395 3.8043 16.719 3.6483L16.72 3.6473L17.48 3.2843C18.012 3.0293 18.626 3.0643 19.123 3.3803C19.621 3.6933 19.919 4.2323 19.918 4.8223L19.908 17.0773C19.908 19.8053 18.273 21.5013 15.641 21.5013ZM9.17139 10.5538H12.0604C12.4744 10.5538 12.8104 10.2178 12.8104 9.80383C12.8104 9.38983 12.4744 9.05383 12.0604 9.05383H9.17139C8.75739 9.05383 8.42139 9.38983 8.42139 9.80383C8.42139 10.2178 8.75739 10.5538 9.17139 10.5538ZM9.17139 14.9488H14.8294C15.2434 14.9488 15.5794 14.6128 15.5794 14.1988C15.5794 13.7838 15.2434 13.4488 14.8294 13.4488H9.17139C8.75739 13.4488 8.42139 13.7838 8.42139 14.1988C8.42139 14.6128 8.75739 14.9488 9.17139 14.9488Z" fill="black"/>
</svg>