<svg width="24" height="24" viewBox="0 0 24 24" fill="none" xmlns="http://www.w3.org/2000/svg">
<path d="M4.45711 11.0158C4.45698 11.2152 4.26493 11.3586 4.08665 11.2693C3.3746 10.913 2.88452 10.176 2.88452 9.32719V4.78719C2.88452 3.59119 3.85752 2.61719 5.05352 2.61719H18.9475C20.1425 2.61719 21.1155 3.59119 21.1155 4.78719V9.32719C21.1155 10.1783 20.6228 10.917 19.9079 11.2722C19.7297 11.3608 19.5383 11.2175 19.538 11.0185L19.5335 7.32515C19.5325 6.49815 18.8615 5.82715 18.0335 5.82715H5.95951C5.13151 5.82715 4.46051 6.49815 4.45951 7.32615L4.45711 11.0158Z" fill="black"/>
<path fill-rule="evenodd" clip-rule="evenodd" d="M10.7465 21.1332C11.1515 21.2992 11.5765 21.3822 12.0015 21.3822C12.4255 21.3822 12.8495 21.2992 13.2525 21.1332L14.9395 20.4492C15.1795 20.3532 15.4465 20.3622 15.6785 20.4742L16.2705 20.7542C16.7255 20.9722 17.2495 20.9402 17.6725 20.6712C18.0925 20.4052 18.3435 19.9492 18.3425 19.4522L18.3285 7.56016C18.3275 7.28516 18.1045 7.06116 17.8285 7.06116H6.1645C5.8885 7.06116 5.6645 7.28516 5.6645 7.56116L5.6575 19.4532C5.6575 19.9502 5.9075 20.4052 6.3285 20.6712C6.7535 20.9402 7.2755 20.9702 7.7255 20.7562L8.3315 20.4722C8.5565 20.3622 8.8245 20.3532 9.0615 20.4472L10.7465 21.1332ZM12.7678 12.7374H9.69281C9.27881 12.7374 8.94281 12.4014 8.94281 11.9874C8.94281 11.5734 9.27881 11.2374 9.69281 11.2374H12.7678C13.1818 11.2374 13.5178 11.5734 13.5178 11.9874C13.5178 12.4014 13.1818 12.7374 12.7678 12.7374ZM14.3058 16.3174H9.69281C9.27881 16.3174 8.94281 15.9814 8.94281 15.5674C8.94281 15.1534 9.27881 14.8174 9.69281 14.8174H14.3058C14.7198 14.8174 15.0558 15.1534 15.0558 15.5674C15.0558 15.9814 14.7198 16.3174 14.3058 16.3174Z" fill="black"/>
</svg>