<svg width="24" height="24" viewBox="0 0 24 24" fill="none" xmlns="http://www.w3.org/2000/svg">
<path fill-rule="evenodd" clip-rule="evenodd" d="M5.61312 21.1743C5.62122 21.1743 5.62928 21.1742 5.63731 21.1739H17.7508C20.2128 21.1739 21.7418 19.4809 21.7418 16.7549L21.7498 5.28393C21.7498 4.60993 21.4198 4.00393 20.8658 3.66393C20.3498 3.34593 19.7178 3.32093 19.1708 3.59893L18.5068 3.94493C18.3278 4.04093 18.1218 4.04593 17.9228 3.95793L16.0758 3.13793C15.1298 2.72193 14.0878 2.72093 13.1398 3.13893L11.2928 3.95793C11.0958 4.04493 10.8888 4.04093 10.6998 3.93893L10.0398 3.59493C9.49983 3.32093 8.86883 3.34693 8.35283 3.66393C7.79883 4.00393 7.46783 4.60993 7.46783 5.28393V8.65191C7.41848 8.66318 7.36893 8.67881 7.31912 8.69932L6.08912 9.25232C5.88512 9.33832 5.66812 9.33432 5.48312 9.23932L4.83212 8.89932C4.29212 8.61932 3.65912 8.63732 3.14112 8.95232C2.58312 9.29032 2.25012 9.89632 2.25012 10.5743V17.8243C2.25012 18.7173 2.60012 19.5603 3.24312 20.2093C3.87612 20.8313 4.71812 21.1743 5.61312 21.1743ZM7.46783 17.8239V10.277L6.68812 10.6283C6.06112 10.8913 5.37512 10.8703 4.79412 10.5713L4.13812 10.2293L4.1363 10.2284C4.10479 10.2126 4.02107 10.1706 3.91812 10.2353C3.87812 10.2593 3.75012 10.3533 3.75012 10.5743V17.8243C3.75012 18.3183 3.94612 18.7873 4.30112 19.1453C4.64052 19.4788 5.1016 19.6692 5.59312 19.6742L5.61383 19.6739C6.63583 19.6739 7.46783 18.8439 7.46783 17.8239ZM11.2251 10.3936H11.5011C11.9151 10.3936 12.2511 10.0576 12.2511 9.64355C12.2511 9.22955 11.9151 8.89355 11.5011 8.89355H11.2251C10.8111 8.89355 10.4751 9.22955 10.4751 9.64355C10.4751 10.0576 10.8111 10.3936 11.2251 10.3936ZM14.1241 10.3936H18.0351C18.4491 10.3936 18.7851 10.0576 18.7851 9.64355C18.7851 9.22955 18.4491 8.89355 18.0351 8.89355H14.1241C13.7101 8.89355 13.3741 9.22955 13.3741 9.64355C13.3741 10.0576 13.7101 10.3936 14.1241 10.3936ZM11.2251 15.1146H11.5011C11.9151 15.1146 12.2511 14.7786 12.2511 14.3646C12.2511 13.9506 11.9151 13.6146 11.5011 13.6146H11.2251C10.8111 13.6146 10.4751 13.9506 10.4751 14.3646C10.4751 14.7786 10.8111 15.1146 11.2251 15.1146ZM14.1241 15.1146H18.0351C18.4491 15.1146 18.7851 14.7786 18.7851 14.3646C18.7851 13.9506 18.4491 13.6146 18.0351 13.6146H14.1241C13.7101 13.6146 13.3741 13.9506 13.3741 14.3646C13.3741 14.7786 13.7101 15.1146 14.1241 15.1146Z" fill="black"/>
</svg>