<svg width="24" height="25" viewBox="0 0 24 25" fill="none" xmlns="http://www.w3.org/2000/svg">
<path fill-rule="evenodd" clip-rule="evenodd" d="M20.5862 4.67674C20.5932 4.33274 20.4652 4.00874 20.2262 3.76374C19.9882 3.52074 19.6692 3.38574 19.3272 3.38574H4.7102C4.0162 3.38574 3.4512 3.95074 3.4512 4.64574V6.31574C3.4512 6.48143 3.58552 6.61574 3.7512 6.61574H20.2506C20.4138 6.61574 20.547 6.48535 20.5506 6.32224L20.5862 4.67674Z" fill="black"/>
<path fill-rule="evenodd" clip-rule="evenodd" d="M21.4739 11.8662L20.7569 8.35617C20.7284 8.21651 20.6055 8.11621 20.463 8.11621H3.53393C3.39133 8.11621 3.26843 8.2166 3.23997 8.35634L2.52488 11.8672C2.44988 12.2392 2.54488 12.6202 2.78488 12.9132C3.02488 13.2072 3.37988 13.3762 3.75988 13.3762H18.9279C19.0936 13.3762 19.2279 13.5105 19.2279 13.6762V20.4662C19.2279 20.8802 19.5639 21.2162 19.9779 21.2162C20.3919 21.2162 20.7279 20.8802 20.7279 20.4662V13.4726C20.7279 13.3518 20.8021 13.2456 20.9053 13.1827C21.0224 13.1114 21.1283 13.0213 21.2179 12.9122C21.4569 12.6172 21.5509 12.2362 21.4739 11.8662Z" fill="black"/>
<path fill-rule="evenodd" clip-rule="evenodd" d="M7.26468 16.4303C7.26468 16.596 7.39899 16.7303 7.56468 16.7303H9.79268C9.95836 16.7303 10.0927 16.596 10.0927 16.4303V14.7453C10.0927 14.5796 9.95836 14.4453 9.79268 14.4453H7.56468C7.39899 14.4453 7.26468 14.5796 7.26468 14.7453V16.4303Z" fill="black"/>
<path fill-rule="evenodd" clip-rule="evenodd" d="M14.1223 14.4463H11.7923C11.6266 14.4463 11.4923 14.5806 11.4923 14.7463V17.4313C11.4923 17.8183 11.1793 18.1313 10.7923 18.1313H6.56429C6.17729 18.1313 5.86429 17.8183 5.86429 17.4313V14.7463C5.86429 14.5806 5.72998 14.4463 5.56429 14.4463H4.04129C3.76529 14.4463 3.54129 14.6703 3.54129 14.9463V19.4263C3.54129 20.2763 4.23129 20.9673 5.08029 20.9673H13.0843C13.9323 20.9673 14.6223 20.2763 14.6223 19.4263V14.9463C14.6223 14.6703 14.3983 14.4463 14.1223 14.4463Z" fill="black"/>
</svg>