<svg width="25" height="25" viewBox="0 0 25 25" fill="none" xmlns="http://www.w3.org/2000/svg">
<path fill-rule="evenodd" clip-rule="evenodd" d="M13.1606 17.3184H11.8446C11.2806 17.3184 10.8216 17.7764 10.8216 18.3384V20.6904C10.8216 20.856 10.9559 20.9904 11.1216 20.9904H13.8186C13.9842 20.9904 14.1186 20.856 14.1186 20.6904V18.2784C14.1186 17.7494 13.6886 17.3184 13.1606 17.3184Z" fill="black"/>
<path fill-rule="evenodd" clip-rule="evenodd" d="M17.0497 13.2807C16.9786 13.2609 16.9027 13.2666 16.8361 13.2982L14.8196 14.2551C14.0726 14.5991 13.2706 14.7701 12.4696 14.7701C11.6696 14.7701 10.8706 14.6001 10.1256 14.2581L8.05327 13.3005C7.97816 13.2658 7.89227 13.2642 7.81453 13.2925C6.90672 13.6231 5.85397 13.6236 4.91589 13.3726C4.71516 13.3188 4.50858 13.4642 4.50858 13.672V16.3301C4.50858 19.1171 6.30358 20.9901 8.97458 20.9901H9.02158C9.18726 20.9901 9.32158 20.8558 9.32158 20.6901V18.3371C9.32158 16.9481 10.4526 15.8181 11.8446 15.8181H13.1606C14.5156 15.8181 15.6186 16.9211 15.6186 18.2781V20.6901C15.6186 20.8558 15.7529 20.9901 15.9186 20.9901H15.9666C18.6366 20.9901 20.4306 19.1171 20.4306 16.3301V13.6718C20.4306 13.464 20.2241 13.3188 20.0231 13.3713C19.0387 13.6285 18.0324 13.5546 17.0497 13.2807Z" fill="black"/>
<path fill-rule="evenodd" clip-rule="evenodd" d="M21.9443 8.73835C21.8443 8.04335 21.5513 6.96835 21.0743 5.54135C20.6873 4.38535 19.6043 3.61035 18.3813 3.61035H6.54634C5.31234 3.61035 4.22834 4.39635 3.84934 5.56335C3.52834 6.53035 3.12134 7.86735 2.99734 8.73835C2.87134 9.60435 3.20734 10.4884 3.91834 11.1624C4.70205 11.9109 5.87561 12.202 7.03524 11.954C7.14777 11.93 7.23218 11.8394 7.25427 11.7265C7.37289 11.1198 7.75638 9.16222 7.96534 8.14035C8.04834 7.73435 8.44834 7.47335 8.84934 7.55535C9.25534 7.63835 9.51734 8.03435 9.43434 8.44035L8.7639 11.7216C8.73604 11.858 8.80565 11.9956 8.93203 12.054L10.7513 12.8944C11.2983 13.1454 11.8843 13.2704 12.4703 13.2704C13.0573 13.2704 13.6443 13.1454 14.1903 12.8944L16.0077 12.055C16.134 11.9966 16.2037 11.859 16.1758 11.7226L15.5053 8.44035C15.4223 8.03435 15.6833 7.63835 16.0893 7.55535C16.4953 7.47335 16.8913 7.73435 16.9743 8.13935C17.1832 9.16113 17.5667 11.1186 17.6854 11.7254C17.7075 11.8384 17.792 11.929 17.9045 11.953C19.066 12.2012 20.2405 11.912 21.0233 11.1634C21.7343 10.4884 22.0693 9.60535 21.9443 8.73835Z" fill="black"/>
</svg>