<svg width="25" height="25" viewBox="0 0 25 25" fill="none" xmlns="http://www.w3.org/2000/svg">
<path fill-rule="evenodd" clip-rule="evenodd" d="M12.4699 17.7959C11.4409 17.7959 10.6039 18.6299 10.6039 19.6559V21.5859C10.6039 21.7516 10.7383 21.8859 10.9039 21.8859H14.0359C14.2016 21.8859 14.3359 21.7516 14.3359 21.5859V19.6559C14.3359 18.6299 13.4989 17.7959 12.4699 17.7959Z" fill="black"/>
<path fill-rule="evenodd" clip-rule="evenodd" d="M15.6645 12.275C15.5538 12.1979 15.4061 12.198 15.2953 12.2751C14.4902 12.8355 13.5232 13.1756 12.4709 13.1756C11.4185 13.1756 10.4514 12.8354 9.64624 12.2757C9.5356 12.1988 9.38811 12.1987 9.27747 12.2757C8.47447 12.8338 7.51705 13.1756 6.48989 13.1756C5.8179 13.1756 5.14912 13.0297 4.52687 12.7661C4.31806 12.6776 4.07489 12.8242 4.07489 13.0509V16.8056C4.07489 19.673 6.00121 21.7406 8.80378 21.8783C8.96927 21.8864 9.10389 21.7513 9.10389 21.5856V19.6556C9.10389 17.8026 10.6139 16.2956 12.4699 16.2956C14.3259 16.2956 15.8359 17.8026 15.8359 19.6556V21.5856C15.8359 21.7513 15.9704 21.8863 16.136 21.8792C19.015 21.7554 21.0879 19.8442 21.0879 16.8056V12.9605C21.0879 12.7275 20.8321 12.5809 20.6213 12.6802C19.9416 13.0004 19.1982 13.1756 18.4529 13.1756C17.4258 13.1756 16.4676 12.8339 15.6645 12.275Z" fill="black"/>
<path fill-rule="evenodd" clip-rule="evenodd" d="M21.9436 8.10482C21.8396 7.37582 21.5406 6.27482 21.0276 4.73582C20.6226 3.52782 19.4906 2.71582 18.2136 2.71582H6.7146C5.4276 2.71582 4.2956 3.53282 3.8956 4.74982C3.4056 6.24782 3.1036 7.37582 2.9986 8.10382C2.8816 8.90582 3.1376 9.71782 3.7186 10.3888C4.4066 11.1828 5.4676 11.6758 6.4896 11.6758C7.56653 11.6758 8.53988 11.1535 9.18498 10.3576C9.32762 10.1816 9.61541 10.183 9.75694 10.3598C10.3961 11.1587 11.3705 11.6758 12.4706 11.6758C13.5714 11.6758 14.5457 11.1581 15.1849 10.3587C15.3265 10.1816 15.6147 10.1803 15.7574 10.3566C16.4021 11.153 17.3761 11.6758 18.4536 11.6758C19.4736 11.6758 20.5346 11.1828 21.2206 10.3898C21.8026 9.71782 22.0586 8.90682 21.9436 8.10482Z" fill="black"/>
</svg>