<svg width="24" height="25" viewBox="0 0 24 25" fill="none" xmlns="http://www.w3.org/2000/svg">
<path fill-rule="evenodd" clip-rule="evenodd" d="M12.7505 21.1405C12.7505 21.3062 12.8848 21.4405 13.0505 21.4405H15.0905C15.2562 21.4405 15.3905 21.3062 15.3905 21.1405V17.3615C15.3905 17.1958 15.2562 17.0615 15.0905 17.0615H13.0505C12.8848 17.0615 12.7505 17.1958 12.7505 17.3615V21.1405Z" fill="black"/>
<path fill-rule="evenodd" clip-rule="evenodd" d="M8.41799 18.2611H7.26599C6.85199 18.2611 6.51599 17.9251 6.51599 17.5111C6.51599 17.0971 6.85199 16.7611 7.26599 16.7611H8.41799C8.83199 16.7611 9.16799 17.0971 9.16799 17.5111C9.16799 17.9251 8.83199 18.2611 8.41799 18.2611ZM3.96699 13.9281C3.91907 13.9281 3.87145 13.9263 3.82415 13.9231C3.63457 13.9099 3.45999 14.0492 3.45999 14.2392V19.0301C3.45999 20.3591 4.54499 21.4401 5.87799 21.4401H10.95C11.1157 21.4401 11.25 21.3058 11.25 21.1401V16.3111C11.25 15.8971 11.586 15.5611 12 15.5611H16.14C16.554 15.5611 16.89 15.8971 16.89 16.3111V21.1401C16.89 21.3058 17.0243 21.4401 17.19 21.4401H18.103C19.437 21.4401 20.522 20.3591 20.522 19.0301V14.239C20.522 14.0497 20.3488 13.9113 20.1598 13.9238C20.1175 13.9266 20.0749 13.9281 20.032 13.9281H3.96699Z" fill="black"/>
<path fill-rule="evenodd" clip-rule="evenodd" d="M20.6514 4.45016C20.6584 4.10916 20.5304 3.78716 20.2914 3.54216C20.0494 3.29616 19.7254 3.16016 19.3794 3.16016H4.65938C3.95838 3.16016 3.38638 3.73016 3.38638 4.43016V6.14033C3.38638 6.30595 3.52059 6.44023 3.68621 6.44033L20.3146 6.44999C20.4778 6.45008 20.6112 6.31964 20.6147 6.15643L20.6514 4.45016Z" fill="black"/>
<path fill-rule="evenodd" clip-rule="evenodd" d="M21.46 10.7454L20.8564 8.18155C20.8245 8.04611 20.7037 7.95037 20.5645 7.95029L3.43674 7.94056C3.29745 7.94049 3.17643 8.03629 3.14454 8.17188L2.53898 10.7464C2.43698 11.1874 2.53798 11.6424 2.81798 11.9954C3.09898 12.3484 3.51698 12.5504 3.96698 12.5504H20.032C20.482 12.5504 20.901 12.3484 21.182 11.9954C21.462 11.6424 21.564 11.1874 21.46 10.7454Z" fill="black"/>
</svg>