<svg width="24" height="25" viewBox="0 0 24 25" fill="none" xmlns="http://www.w3.org/2000/svg">
<path fill-rule="evenodd" clip-rule="evenodd" d="M18.697 5.84909C18.9827 5.84909 19.2572 5.8899 19.5228 5.95459C19.6667 5.98964 19.81 5.88416 19.81 5.73609C19.81 4.50109 18.802 3.49609 17.564 3.49609H6.43496C5.19696 3.49609 4.18896 4.50109 4.18896 5.73609C4.18896 5.88421 4.33224 5.98976 4.47615 5.95473C4.74225 5.88996 5.01673 5.84909 5.30196 5.84909H18.697Z" fill="black"/>
<path fill-rule="evenodd" clip-rule="evenodd" d="M11.9997 17.5635C11.2427 17.5635 10.6267 18.1825 10.6267 18.9435V20.8055C10.6267 20.9712 10.761 21.1055 10.9267 21.1055H13.0727C13.2384 21.1055 13.3727 20.9712 13.3727 20.8055V18.9435C13.3727 18.1825 12.7567 17.5635 11.9997 17.5635Z" fill="black"/>
<path fill-rule="evenodd" clip-rule="evenodd" d="M18.6228 14.7889C17.906 14.7889 17.242 14.5734 16.6799 14.2121C16.5705 14.1418 16.4292 14.1418 16.3198 14.2121C15.7577 14.5734 15.0937 14.7889 14.3768 14.7889H14.1228C13.406 14.7889 12.742 14.5734 12.1799 14.2121C12.0705 14.1418 11.9292 14.1418 11.8198 14.2121C11.2577 14.5734 10.5937 14.7889 9.87684 14.7889H9.62284C8.90597 14.7889 8.24195 14.5734 7.67991 14.2121C7.57047 14.1418 7.42921 14.1418 7.31978 14.2121C6.75773 14.5734 6.09371 14.7889 5.37684 14.7889H5.12284C4.93349 14.7889 4.74956 14.7695 4.56969 14.7375C4.37562 14.703 4.18884 14.8452 4.18884 15.0424V18.8559C4.18884 20.0969 5.19684 21.1059 6.43484 21.1059H8.82684C8.99253 21.1059 9.12684 20.9716 9.12684 20.8059V18.9429C9.12684 17.3549 10.4158 16.0629 11.9998 16.0629C13.5838 16.0629 14.8728 17.3549 14.8728 18.9429V20.8059C14.8728 20.9716 15.0072 21.1059 15.1728 21.1059H17.5638C18.8028 21.1059 19.8098 20.0969 19.8098 18.8559V15.0427C19.8098 14.8455 19.6229 14.7032 19.4287 14.7377C19.2494 14.7696 19.0658 14.7889 18.8768 14.7889H18.6228Z" fill="black"/>
<path fill-rule="evenodd" clip-rule="evenodd" d="M18.697 6.84961H5.302C3.757 6.84961 2.5 8.10561 2.5 9.64961V11.1696C2.5 12.6146 3.676 13.7896 5.123 13.7896H5.377C6.10308 13.7896 6.75754 13.4908 7.23184 13.0119C7.37571 12.8667 7.62429 12.8667 7.76816 13.0119C8.24246 13.4908 8.89692 13.7896 9.623 13.7896H9.877C10.6031 13.7896 11.2575 13.4908 11.7318 13.0119C11.8757 12.8667 12.1243 12.8667 12.2682 13.0119C12.7425 13.4908 13.3969 13.7896 14.123 13.7896H14.377C15.1031 13.7896 15.7575 13.4908 16.2318 13.0119C16.3757 12.8667 16.6243 12.8667 16.7682 13.0119C17.2425 13.4908 17.8969 13.7896 18.623 13.7896H18.877C20.323 13.7896 21.5 12.6146 21.5 11.1696V9.64961C21.5 8.10561 20.243 6.84961 18.697 6.84961Z" fill="black"/>
</svg>