<svg width="24" height="24" viewBox="0 0 24 24" fill="none" xmlns="http://www.w3.org/2000/svg">
<path d="M15.1089 14.055C15.4019 14.348 15.4019 14.823 15.1089 15.116C13.2539 16.971 10.2461 16.971 8.39111 15.116C6.53613 13.261 6.53613 10.253 8.39111 8.39801C10.2461 6.54303 13.2539 6.54303 15.1089 8.39801C15.4019 8.69104 15.4019 9.16595 15.1089 9.45898C14.8159 9.75201 14.3408 9.75201 14.0479 9.45898C12.7788 8.19 10.7212 8.19 9.45215 9.45898C8.18311 10.728 8.18311 12.786 9.45215 14.055C10.7212 15.324 12.7788 15.324 14.0479 14.055C14.3408 13.762 14.8159 13.762 15.1089 14.055Z" fill="black"/>
<path fill-rule="evenodd" clip-rule="evenodd" d="M11.75 2C17.1348 2 21.5 6.36499 21.5 11.75C21.5 17.135 17.1348 21.5 11.75 21.5C6.36523 21.5 2 17.135 2 11.75C2 6.36499 6.36523 2 11.75 2ZM20 11.75C20 7.19397 16.3062 3.5 11.75 3.5C7.19385 3.5 3.5 7.19397 3.5 11.75C3.5 16.306 7.19385 20 11.75 20C16.3062 20 20 16.306 20 11.75Z" fill="black"/>
</svg>
