<svg width="24" height="24" viewBox="0 0 24 24" fill="none" xmlns="http://www.w3.org/2000/svg">
<path fill-rule="evenodd" clip-rule="evenodd" d="M3.20283 19.588C2.93239 19.3174 2.93239 18.8791 3.20283 18.6086L4.16241 17.6491L3.29703 16.7837C3.02659 16.5132 3.02659 16.0748 3.29703 15.8043C3.56746 15.5338 4.006 15.5338 4.27644 15.8043L5.14137 16.67L6.56475 15.2467C5.59165 14.035 5.00931 12.4959 5.00931 10.8206C5.00931 6.91601 8.17563 3.7489 12.0811 3.7489C15.9875 3.7489 19.1534 6.91601 19.1534 10.8206C19.1534 14.7271 15.9875 17.8932 12.0811 17.8932C10.3494 17.8932 8.76291 17.2706 7.53335 16.237L6.12034 17.6494L6.98392 18.5135C7.25436 18.7841 7.25436 19.2225 6.98392 19.4929C6.71349 19.7625 6.27494 19.7626 6.00541 19.492L5.14137 18.6281L4.18134 19.588C3.91091 19.8585 3.47235 19.8575 3.20283 19.588ZM8.04762 14.8309C9.07752 15.8672 10.5041 16.5086 12.0811 16.5086C15.2231 16.5086 17.7688 13.9628 17.7688 10.8206C17.7688 7.68031 15.2231 5.13352 12.0811 5.13352C8.9396 5.13352 6.39393 7.68031 6.39393 10.8206C6.39393 12.3473 6.99519 13.7332 7.97326 14.7547C7.98452 14.7645 7.99489 14.7747 8.00571 14.7852C8.02058 14.8 8.03455 14.8152 8.04762 14.8309Z" fill="black"/>
</svg>
