<svg width="24" height="24" viewBox="0 0 24 24" fill="none" xmlns="http://www.w3.org/2000/svg">
<path fill-rule="evenodd" clip-rule="evenodd" d="M18.6439 4.85603C14.8368 1.04799 8.66296 1.04799 4.85583 4.85603C1.04773 8.66304 1.04773 14.837 4.85583 18.644C8.66296 22.452 14.8368 22.452 18.6439 18.644C22.452 14.837 22.452 8.66304 18.6439 4.85603ZM18.0902 6.46986C20.7953 9.71126 20.6263 14.5407 17.5839 17.584C14.5404 20.6264 9.7113 20.7951 6.4696 18.0902L18.0902 6.46986ZM5.40955 17.0302C2.70447 13.7887 2.87341 8.9593 5.91589 5.91603C8.95935 2.87367 13.7885 2.70491 17.0302 5.40987L5.40955 17.0302Z" fill="black"/>
</svg>
