<svg width="24" height="24" viewBox="0 0 24 24" fill="none" xmlns="http://www.w3.org/2000/svg">
<path fill-rule="evenodd" clip-rule="evenodd" d="M15.7598 18.8014C15.3777 18.8014 15.0675 18.4913 15.0675 18.1091V16.8021H13.948C13.5658 16.8021 13.2557 16.4928 13.2557 16.1098C13.2557 15.7277 13.5658 15.4175 13.948 15.4175H15.0675V13.1899C13.0136 12.8581 11.4456 11.0773 11.4456 8.93008C11.4456 6.54672 13.3774 4.6156 15.7617 4.6156C18.1451 4.6156 20.0769 6.54762 20.0769 8.93008C20.0769 11.0784 18.5075 12.86 16.4521 13.1905V15.4175H17.5717C17.9544 15.4175 18.2641 15.7277 18.2641 16.1098C18.2641 16.4928 17.9544 16.8021 17.5717 16.8021H16.4521V18.1091C16.4521 18.4913 16.1425 18.8014 15.7598 18.8014ZM15.7598 11.8608C17.3802 11.8608 18.6923 10.5492 18.6923 8.93008C18.6923 7.31193 17.3802 6.00022 15.7617 6.00022C14.1422 6.00022 12.8302 7.31193 12.8302 8.93008C12.8302 10.5492 14.1422 11.8608 15.7598 11.8608Z" fill="black"/>
<path fill-rule="evenodd" clip-rule="evenodd" d="M7.08532 6.88388L8.17831 7.98116C8.4483 8.25165 8.8864 8.25255 9.15728 7.98301C9.4282 7.71348 9.42903 7.27499 9.15954 7.0036L6.90819 4.74402C6.90007 4.73478 6.89151 4.7269 6.88249 4.71811C6.7644 4.60019 6.6044 4.52339 6.42636 4.51488C6.4151 4.51438 6.40428 4.5141 6.39301 4.5141C6.2019 4.5141 6.02703 4.5928 5.90172 4.71811L3.62423 7.0036C3.35425 7.27409 3.35515 7.71252 3.62603 7.98301C3.71888 8.07519 3.83111 8.13575 3.9492 8.16471C4.17681 8.22044 4.42742 8.15914 4.605 7.98116L5.7007 6.88157V10.4493C3.64587 10.7804 2.0769 12.5617 2.0769 14.7094C2.0769 17.0928 4.00869 19.0248 6.39301 19.0248C8.77642 19.0248 10.7082 17.0928 10.7082 14.7094C10.7082 12.5618 9.13971 10.7805 7.08532 10.4493V6.88388ZM3.46152 14.7094C3.46152 16.3276 4.77357 17.6402 6.39301 17.6402C8.01155 17.6402 9.32361 16.3276 9.32361 14.7094C9.32361 13.0904 8.01155 11.7788 6.39301 11.7788C4.77357 11.7788 3.46152 13.0904 3.46152 14.7094Z" fill="black"/>
</svg>
