<svg width="24" height="24" viewBox="0 0 24 24" fill="none" xmlns="http://www.w3.org/2000/svg">
<path d="M19.039 11.9975C19.039 11.2559 19.451 10.6349 20.058 10.317C20.47 10.1008 20.677 9.99272 20.732 9.94832C20.924 9.79362 20.938 9.76962 20.986 9.52782C21 9.45842 21 9.34202 21 9.10922C21 8.02452 21 7.48212 20.872 7.03942C20.562 5.97412 19.729 5.14112 18.664 4.83172C18.221 4.70312 17.679 4.70313 16.594 4.70313H7.407C6.325 4.70313 5.783 4.70313 5.342 4.83113C4.274 5.14063 3.439 5.97612 3.13 7.04442C3.003 7.48632 3.003 8.02763 3.004 9.11023C3.005 9.34163 3.005 9.45743 3.018 9.52633C3.066 9.76803 3.08 9.79132 3.272 9.94622C3.327 9.99042 3.532 10.0989 3.943 10.3157C4.549 10.6354 4.96 11.2586 4.959 11.9992V12.057C4.935 12.7501 4.541 13.3436 3.974 13.6542C3.534 13.8954 3.31399 14.016 3.25999 14.0602C3.06599 14.2218 3.061 14.2288 3.013 14.4772C3 14.5451 3 14.6625 3 14.8975C3 15.977 3 16.5168 3.127 16.9575C3.436 18.0262 4.272 18.8618 5.341 19.1706C5.781 19.298 6.321 19.298 7.401 19.298H16.594C17.678 19.298 18.22 19.298 18.663 19.1695C19.729 18.8601 20.562 18.0267 20.871 16.9608C21 16.5183 21 15.9761 20.999 14.8918C20.999 14.6592 20.999 14.543 20.986 14.4738C20.938 14.2319 20.924 14.2089 20.732 14.0538C20.677 14.0095 20.471 13.9006 20.058 13.683C19.45 13.3631 19.039 12.7387 19.039 11.9975Z" stroke="black" stroke-width="1.5" stroke-linecap="round" stroke-linejoin="round"/>
<path d="M7.78809 8.59622V4.70312" stroke="black" stroke-width="1.5" stroke-linecap="round" stroke-linejoin="round"/>
<path d="M7.78809 19.2993V15.4062" stroke="black" stroke-width="1.5" stroke-linecap="round" stroke-linejoin="round"/>
<path fill-rule="evenodd" clip-rule="evenodd" d="M13.7165 9.5673L14.2843 10.7021C14.3406 10.8139 14.4484 10.891 14.5723 10.9084L15.8429 11.0913C16.0488 11.1184 16.1936 11.3076 16.1665 11.5135C16.1554 11.5977 16.1159 11.676 16.0547 11.735L15.1358 12.6179C15.0454 12.7039 15.0041 12.8291 15.0258 12.9521L15.2433 14.1984C15.2769 14.4066 15.1352 14.6023 14.9271 14.6358C14.8451 14.6489 14.7612 14.6349 14.6879 14.5961L13.5528 14.0077C13.4409 13.9499 13.3083 13.9499 13.1964 14.0077L12.0607 14.5964C11.8746 14.6951 11.6438 14.6243 11.545 14.4383C11.5062 14.3646 11.4922 14.2808 11.5056 14.1988L11.723 12.9521C11.7445 12.8294 11.7032 12.7042 11.6131 12.6182L10.6932 11.7353C10.5438 11.5912 10.5392 11.3532 10.6833 11.2035C10.7423 11.1423 10.8206 11.1028 10.9051 11.0916L12.1757 10.9087C12.2996 10.8913 12.4074 10.8142 12.4639 10.7024L13.0327 9.5673C13.1306 9.37843 13.363 9.30481 13.5518 9.40266C13.6223 9.43901 13.6798 9.49648 13.7165 9.5673Z" stroke="black" stroke-width="1.5" stroke-linecap="round" stroke-linejoin="round"/>
</svg>