<svg width="24" height="24" viewBox="0 0 24 24" fill="none" xmlns="http://www.w3.org/2000/svg">
<path d="M17.2571 7.81548C17.0555 7.35396 17.0753 6.83957 17.2879 6.39696C17.4696 6.01849 17.5605 5.82919 17.5763 5.76747C17.6317 5.55234 17.6292 5.52719 17.5337 5.32667C17.5062 5.26914 17.4435 5.18505 17.3182 5.01688C16.7339 4.23325 16.4418 3.84144 16.1104 3.59088C15.3131 2.98795 14.2628 2.83486 13.3265 3.18511C12.9375 3.33066 12.5457 3.62279 11.762 4.20704L7.02734 7.73708" stroke="black" stroke-width="1.5" stroke-linecap="round" stroke-linejoin="round"/>
<path d="M8.0791 18.6523V18.6623" stroke="black" stroke-width="1.5" stroke-linecap="round" stroke-linejoin="round"/>
<path d="M8.0791 15.8281V15.8381" stroke="black" stroke-width="1.5" stroke-linecap="round" stroke-linejoin="round"/>
<path d="M8.0791 13.0078V13.0178" stroke="black" stroke-width="1.5" stroke-linecap="round" stroke-linejoin="round"/>
<path d="M8.0791 10.1875V10.1975" stroke="black" stroke-width="1.5" stroke-linecap="round" stroke-linejoin="round"/>
<circle cx="13.8718" cy="14.4226" r="2.31325" stroke="black" stroke-width="1.5" stroke-linecap="round" stroke-linejoin="round"/>
<path d="M19.2698 14.3926C19.2698 13.7212 19.6428 13.1591 20.1923 12.8713C20.5653 12.6755 20.7527 12.5777 20.8025 12.5375C20.9763 12.3974 20.989 12.3757 21.0324 12.1568C21.0451 12.094 21.0451 11.9886 21.0451 11.7779C21.0451 10.7959 21.0451 10.3049 20.9292 9.90409C20.6486 8.93968 19.8945 8.18558 18.9303 7.90548C18.5293 7.78906 18.0386 7.78906 17.0564 7.78906L6.9896 7.78906C6.01008 7.78906 5.51941 7.78906 5.12018 7.90494C4.15333 8.18513 3.39742 8.94149 3.11769 9.90861C3.00271 10.3087 3.00271 10.7987 3.00362 11.7788C3.00452 11.9882 3.00452 12.0931 3.01629 12.1555C3.05975 12.3743 3.07242 12.3954 3.24623 12.5356C3.29603 12.5756 3.48161 12.6738 3.85369 12.8701C4.40229 13.1595 4.77437 13.7237 4.77346 14.3941V14.4465C4.75173 15.0739 4.39505 15.6112 3.88175 15.8924C3.48342 16.1107 3.28426 16.2199 3.23537 16.2599C3.05974 16.4062 3.05522 16.4126 3.01177 16.6374C3 16.6989 3 16.8052 3 17.0179C3 17.9952 3 18.4839 3.11497 18.8828C3.3947 19.8503 4.15152 20.6068 5.11928 20.8863C5.5176 21.0017 6.00646 21.0017 6.98418 21.0017H17.0564C18.0377 21.0017 18.5284 21.0017 18.9294 20.8853C19.8945 20.6052 20.6486 19.8508 20.9283 18.8858C21.0451 18.4852 21.0451 17.9944 21.0442 17.0128C21.0442 16.8022 21.0442 16.697 21.0324 16.6344C20.989 16.4154 20.9763 16.3946 20.8025 16.2541C20.7527 16.214 20.5662 16.1155 20.1923 15.9185C19.6419 15.6289 19.2698 15.0636 19.2698 14.3926Z" stroke="black" stroke-width="1.5" stroke-linecap="round" stroke-linejoin="round"/>
</svg>