<svg width="24" height="24" viewBox="0 0 24 24" fill="none" xmlns="http://www.w3.org/2000/svg">
<path d="M5.25 16.828V16.8662C5.25 17.8066 6.01235 18.569 6.95275 18.569H17.0473C17.9877 18.569 18.75 17.8066 18.75 16.8662V16.828C18.75 16.473 19.0378 16.1851 19.3929 16.1851C20.2805 16.1851 21 15.4656 21 14.578V9.42459C21 8.53699 20.2805 7.81744 19.3929 7.81744C19.0378 7.81744 18.75 7.52963 18.75 7.17459V7.13634C18.75 6.19594 17.9877 5.43359 17.0473 5.43359H6.95275C6.01235 5.43359 5.25 6.19594 5.25 7.13634V7.17459C5.25 7.52963 4.96218 7.81744 4.60714 7.81744C3.71954 7.81744 3 8.53698 3 9.42458V14.578C3 15.4656 3.71954 16.1851 4.60714 16.1851C4.96218 16.1851 5.25 16.473 5.25 16.828Z" stroke="black" stroke-width="1.5" stroke-linecap="round" stroke-linejoin="round"/>
<path d="M7.19336 13.918L11.5679 13.918" stroke="black" stroke-width="1.5" stroke-linecap="round" stroke-linejoin="round"/>
<path d="M9.38086 10.082L11.5681 10.082" stroke="black" stroke-width="1.5" stroke-linecap="round" stroke-linejoin="round"/>
<path d="M15.1172 10.5391L15.1172 13.4928" stroke="black" stroke-width="1.5" stroke-linecap="round" stroke-linejoin="round"/>
<path d="M15.1172 5.43359L15.1172 7.93337" stroke="black" stroke-width="1.5" stroke-linecap="round" stroke-linejoin="round"/>
<path d="M15.1172 16.0703L15.1172 18.5701" stroke="black" stroke-width="1.5" stroke-linecap="round" stroke-linejoin="round"/>
</svg>