<svg width="24" height="24" viewBox="0 0 24 24" fill="none" xmlns="http://www.w3.org/2000/svg">
<path fill-rule="evenodd" clip-rule="evenodd" d="M3.73997 3.89765C4.7244 2.84134 6.12644 2.25 7.78221 2.25H16.2168C17.876 2.25 19.2786 2.84105 20.2627 3.8979C21.2411 4.94871 21.75 6.3992 21.75 8.02655V15.9744C21.75 17.6018 21.2411 19.0521 20.2625 20.1027C19.2782 21.1593 17.8754 21.75 16.2158 21.75H7.78221C6.12264 21.75 4.72019 21.1593 3.73641 20.1025C2.75827 19.0519 2.25 17.6016 2.25 15.9744V8.02655C2.25 6.39847 2.76102 4.9481 3.73997 3.89765ZM4.83732 4.92031C4.16014 5.64695 3.75 6.70986 3.75 8.02655V15.9744C3.75 17.2921 4.15849 18.3545 4.83429 19.0805C5.50444 19.8003 6.49309 20.25 7.78221 20.25H16.2158C17.505 20.25 18.4942 19.8003 19.1649 19.0803C19.8411 18.3543 20.25 17.2918 20.25 15.9744V8.02655C20.25 6.70913 19.8411 5.64634 19.1649 4.92007C18.4943 4.19984 17.5053 3.75 16.2168 3.75H7.78221C6.49809 3.75 5.50903 4.19955 4.83732 4.92031Z" fill="black"/>
<path fill-rule="evenodd" clip-rule="evenodd" d="M9.07422 10.4955C9.07422 9.1772 10.144 8.10742 11.4623 8.10742H12.8188C13.9824 8.10742 14.9244 9.05183 14.9244 10.214V10.2922C14.9244 10.7064 14.5887 11.0422 14.1744 11.0422C13.7602 11.0422 13.4244 10.7064 13.4244 10.2922V10.214C13.4244 9.87885 13.1526 9.60742 12.8188 9.60742H11.4623C10.9724 9.60742 10.5742 10.0056 10.5742 10.4955C10.5742 10.986 10.9721 11.3835 11.4623 11.3835H12.6009C13.8837 11.3835 14.9254 12.4237 14.9254 13.708C14.9254 14.9924 13.8837 16.0326 12.6009 16.0326H11.1808C10.0172 16.0326 9.0752 15.0882 9.0752 13.926C9.0752 13.5118 9.41098 13.176 9.8252 13.176C10.2394 13.176 10.5752 13.5118 10.5752 13.926C10.5752 14.2611 10.8471 14.5326 11.1808 14.5326H12.6009C13.0559 14.5326 13.4254 14.1634 13.4254 13.708C13.4254 13.2527 13.0559 12.8835 12.6009 12.8835H11.4623C10.1443 12.8835 9.07422 11.815 9.07422 10.4955Z" fill="black"/>
<path fill-rule="evenodd" clip-rule="evenodd" d="M12 6.9707C12.4142 6.9707 12.75 7.30649 12.75 7.7207V8.85346C12.75 9.26767 12.4142 9.60346 12 9.60346C11.5858 9.60346 11.25 9.26767 11.25 8.85346V7.7207C11.25 7.30649 11.5858 6.9707 12 6.9707ZM12 14.5376C12.4142 14.5376 12.75 14.8734 12.75 15.2876V16.2865C12.75 16.7007 12.4142 17.0365 12 17.0365C11.5858 17.0365 11.25 16.7007 11.25 16.2865V15.2876C11.25 14.8734 11.5858 14.5376 12 14.5376Z" fill="black"/>
</svg>
