<svg width="24" height="24" viewBox="0 0 24 24" fill="none" xmlns="http://www.w3.org/2000/svg">
<path fill-rule="evenodd" clip-rule="evenodd" d="M3.73657 3.89773C4.72038 2.84086 6.1228 2.25 7.78216 2.25H16.2159C17.8761 2.25 19.279 2.84076 20.2631 3.89765C21.2416 4.94848 21.75 6.39899 21.75 8.02638V13.9197C21.75 14.7378 21.4339 15.5244 20.8665 16.1148L16.3923 20.7748C15.7944 21.3982 14.9684 21.75 14.1055 21.75H7.78216C6.12669 21.75 4.72468 21.1588 3.7402 20.1026C2.76117 19.0523 2.25 17.6019 2.25 15.9736V8.02638C2.25 6.39899 2.75842 4.94853 3.73657 3.89773ZM4.83451 4.91976C4.15861 5.64585 3.75 6.70857 3.75 8.02638V15.9736C3.75 17.2905 4.16024 18.3533 4.83745 19.0799C5.50921 19.8006 6.49828 20.25 7.78216 20.25H14.1055C14.5601 20.25 14.995 20.0647 15.3097 19.7365L19.7847 15.0757C20.0832 14.7651 20.25 14.3509 20.25 13.9197V8.02638C20.25 6.70858 19.8414 5.6459 19.1653 4.91984C18.4949 4.19983 17.5058 3.75 16.2159 3.75H7.78216C6.49341 3.75 5.50475 4.19973 4.83451 4.91976Z" fill="black"/>
<path fill-rule="evenodd" clip-rule="evenodd" d="M17.6883 13.7412L17.6901 13.7412L20.9232 13.7412C21.3375 13.7412 21.6732 14.077 21.6732 14.4912C21.6732 14.9054 21.3375 15.2412 20.9232 15.2412H17.691C16.438 15.2446 15.4251 16.2604 15.4258 17.5128L15.4258 20.9274C15.4258 21.3416 15.09 21.6774 14.6758 21.6774C14.2616 21.6774 13.9258 21.3416 13.9258 20.9274V17.5135C13.9258 17.5134 13.9258 17.5136 13.9258 17.5135C13.9248 15.433 15.6084 13.7461 17.6883 13.7412Z" fill="black"/>
<path fill-rule="evenodd" clip-rule="evenodd" d="M6.95898 9.7461C6.95898 8.60216 7.88634 7.6748 9.03028 7.6748H11.4841C11.8983 7.6748 12.2341 8.01059 12.2341 8.4248C12.2341 8.83902 11.8983 9.1748 11.4841 9.1748H9.03028C8.71477 9.1748 8.45898 9.43059 8.45898 9.7461C8.45898 10.0616 8.71477 10.3174 9.03028 10.3174H10.5403C11.6843 10.3174 12.6116 11.2448 12.6116 12.3887C12.6116 13.5326 11.6843 14.46 10.5403 14.46H8.0865C7.67228 14.46 7.3365 14.1242 7.3365 13.71C7.3365 13.2958 7.67228 12.96 8.0865 12.96H10.5403C10.8559 12.96 11.1116 12.7042 11.1116 12.3887C11.1116 12.0732 10.8559 11.8174 10.5403 11.8174H9.03028C7.88634 11.8174 6.95898 10.89 6.95898 9.7461Z" fill="black"/>
<path fill-rule="evenodd" clip-rule="evenodd" d="M9.78516 6.55859C10.1994 6.55859 10.5352 6.89438 10.5352 7.30859V8.42751C10.5352 8.84173 10.1994 9.17751 9.78516 9.17751C9.37094 9.17751 9.03516 8.84173 9.03516 8.42751V7.30859C9.03516 6.89438 9.37094 6.55859 9.78516 6.55859ZM9.78516 12.9599C10.1994 12.9599 10.5352 13.2957 10.5352 13.7099V14.8191C10.5352 15.2333 10.1994 15.5691 9.78516 15.5691C9.37094 15.5691 9.03516 15.2333 9.03516 14.8191V13.7099C9.03516 13.2957 9.37094 12.9599 9.78516 12.9599Z" fill="black"/>
</svg>
