<svg width="24" height="24" viewBox="0 0 24 24" fill="none" xmlns="http://www.w3.org/2000/svg">
<path fill-rule="evenodd" clip-rule="evenodd" d="M12 3.75C7.44329 3.75 3.75 7.44329 3.75 12C3.75 16.5567 7.44329 20.25 12 20.25C16.5567 20.25 20.25 16.5567 20.25 12C20.25 7.44329 16.5567 3.75 12 3.75ZM2.25 12C2.25 6.61487 6.61487 2.25 12 2.25C17.3851 2.25 21.75 6.61487 21.75 12C21.75 17.3851 17.3851 21.75 12 21.75C6.61487 21.75 2.25 17.3851 2.25 12Z" fill="black"/>
<path fill-rule="evenodd" clip-rule="evenodd" d="M9.0293 10.5895C9.0293 9.39531 9.99718 8.42578 11.193 8.42578H13.8181C14.2323 8.42578 14.5681 8.76157 14.5681 9.17578C14.5681 9.58999 14.2323 9.92578 13.8181 9.92578H11.193C10.8263 9.92578 10.5293 10.2231 10.5293 10.5895C10.5293 10.956 10.8263 11.2532 11.193 11.2532H12.8082C14.004 11.2532 14.9719 12.2228 14.9719 13.417C14.9719 14.6125 14.0037 15.5807 12.8082 15.5807H10.1831C9.76887 15.5807 9.43308 15.2449 9.43308 14.8307C9.43308 14.4165 9.76887 14.0807 10.1831 14.0807H12.8082C13.1752 14.0807 13.4719 13.7841 13.4719 13.417C13.4719 13.0505 13.1749 12.7532 12.8082 12.7532H11.193C9.99718 12.7532 9.0293 11.7837 9.0293 10.5895Z" fill="black"/>
<path fill-rule="evenodd" clip-rule="evenodd" d="M12 7.23242C12.4142 7.23242 12.75 7.56821 12.75 7.98242V9.18015C12.75 9.59437 12.4142 9.93015 12 9.93015C11.5858 9.93015 11.25 9.59437 11.25 9.18015V7.98242C11.25 7.56821 11.5858 7.23242 12 7.23242ZM12 14.0803C12.4142 14.0803 12.75 14.4161 12.75 14.8303V16.0173C12.75 16.4315 12.4142 16.7673 12 16.7673C11.5858 16.7673 11.25 16.4315 11.25 16.0173V14.8303C11.25 14.4161 11.5858 14.0803 12 14.0803Z" fill="black"/>
</svg>
