<svg width="24" height="24" viewBox="0 0 24 24" fill="none" xmlns="http://www.w3.org/2000/svg">
<path fill-rule="evenodd" clip-rule="evenodd" d="M4.38665 15.8183C4.38664 15.8184 4.38667 15.8182 4.38665 15.8183L3.75535 18.9991C3.7248 19.1542 3.84375 19.3001 4.00331 19.3001H9.66882C9.82822 19.3001 9.94671 19.1539 9.91603 19.0002L9.28548 15.8183C9.28547 15.8183 9.28549 15.8184 9.28548 15.8183C9.26195 15.7006 9.15858 15.6152 9.03738 15.6152H4.63378C4.51402 15.6152 4.4103 15.7002 4.38665 15.8183ZM2.91555 15.5253C3.0788 14.7056 3.79819 14.1152 4.63378 14.1152H9.03738C9.87351 14.1152 10.5932 14.7052 10.7566 15.5253L11.387 18.7065C11.387 18.7066 11.387 18.7064 11.387 18.7065C11.6032 19.7903 10.7722 20.8001 9.66882 20.8001H4.00331C2.89811 20.8001 2.0695 19.7901 2.28395 18.7076L2.91555 15.5253Z" fill="black"/>
<path fill-rule="evenodd" clip-rule="evenodd" d="M14.6796 15.8183C14.6796 15.8184 14.6796 15.8182 14.6796 15.8183L14.0483 18.9991C14.0178 19.1542 14.1367 19.3001 14.2963 19.3001H19.9618C20.1212 19.3001 20.2397 19.1539 20.209 19.0002L19.5784 15.8183C19.5784 15.8183 19.5785 15.8184 19.5784 15.8183C19.5549 15.7006 19.4515 15.6152 19.3303 15.6152H14.9268C14.807 15.6152 14.7033 15.7002 14.6796 15.8183ZM13.2085 15.5253C13.3718 14.7056 14.0912 14.1152 14.9268 14.1152H19.3303C20.1665 14.1152 20.8862 14.7052 21.0496 15.5253L21.68 18.7065C21.68 18.7066 21.6799 18.7064 21.68 18.7065C21.8962 19.7903 21.0652 20.8001 19.9618 20.8001H14.2963C13.1911 20.8001 12.3625 19.7901 12.5769 18.7076L13.2085 15.5253Z" fill="black"/>
<path fill-rule="evenodd" clip-rule="evenodd" d="M9.15863 8.2148C9.15861 8.21488 9.15864 8.21472 9.15863 8.2148L8.52733 11.3956C8.49677 11.5506 8.61573 11.6966 8.77528 11.6966H14.4408C14.6002 11.6966 14.7187 11.5504 14.688 11.3967L14.0575 8.2148C14.0574 8.21475 14.0575 8.21485 14.0575 8.2148C14.0339 8.09705 13.9306 8.01172 13.8093 8.01172H9.40576C9.28599 8.01172 9.18227 8.09666 9.15863 8.2148ZM7.68752 7.9218C7.85077 7.10213 8.57016 6.51172 9.40576 6.51172H13.8093C14.6455 6.51172 15.3652 7.1017 15.5286 7.9218L16.159 11.103C16.159 11.1031 16.1589 11.1029 16.159 11.103C16.3752 12.1868 15.5442 13.1966 14.4408 13.1966H8.77528C7.67008 13.1966 6.84147 12.1866 7.05592 11.1041L7.68752 7.9218Z" fill="black"/>
<path fill-rule="evenodd" clip-rule="evenodd" d="M4.83077 3.2002C5.15585 3.2002 5.44393 3.40963 5.5442 3.71886C5.72497 4.27633 6.16157 4.71294 6.71905 4.89371C7.02828 4.99398 7.23771 5.28205 7.23771 5.60714C7.23771 5.93222 7.02828 6.2203 6.71905 6.32057C6.16157 6.50133 5.72497 6.93794 5.5442 7.49541C5.44393 7.80465 5.15585 8.01408 4.83077 8.01408C4.50568 8.01408 4.21761 7.80465 4.11734 7.49541C3.93657 6.93794 3.49997 6.50133 2.94249 6.32057C2.63326 6.2203 2.42383 5.93222 2.42383 5.60714C2.42383 5.28205 2.63326 4.99398 2.94249 4.89371C3.49997 4.71294 3.93657 4.27633 4.11734 3.71886C4.21761 3.40963 4.50568 3.2002 4.83077 3.2002ZM4.62857 5.60714C4.69883 5.67161 4.7663 5.73907 4.83077 5.80934C4.89524 5.73907 4.96271 5.67161 5.03297 5.60714C4.96271 5.54266 4.89524 5.4752 4.83077 5.40494C4.7663 5.4752 4.69883 5.54266 4.62857 5.60714Z" fill="black"/>
</svg>
