<svg width="24" height="24" viewBox="0 0 24 24" fill="none" xmlns="http://www.w3.org/2000/svg">
<path fill-rule="evenodd" clip-rule="evenodd" d="M3.7402 3.89737C4.72468 2.84117 6.12669 2.25 7.78216 2.25H16.2169C17.8762 2.25 19.2788 2.84084 20.2629 3.89765C21.2413 4.94841 21.75 6.39889 21.75 8.02638V15.9736C21.75 17.6011 21.2413 19.0516 20.2627 20.1024C19.2785 21.1592 17.8756 21.75 16.2159 21.75H7.78216C6.1228 21.75 4.72038 21.1591 3.73657 20.1023C2.75842 19.0515 2.25 17.601 2.25 15.9736V8.02638C2.25 6.39806 2.76117 4.94771 3.7402 3.89737ZM4.83745 4.92012C4.16024 5.64666 3.75 6.70951 3.75 8.02638V15.9736C3.75 17.2914 4.15861 18.3541 4.83451 19.0802C5.50475 19.8003 6.49341 20.25 7.78216 20.25H16.2159C17.5052 20.25 18.4944 19.8002 19.165 19.0801C19.8412 18.354 20.25 17.2913 20.25 15.9736V8.02638C20.25 6.70868 19.8412 5.64597 19.1651 4.91984C18.4946 4.19975 17.5056 3.75 16.2169 3.75H7.78216C6.49828 3.75 5.50921 4.19943 4.83745 4.92012Z" fill="black"/>
<path fill-rule="evenodd" clip-rule="evenodd" d="M10.7466 7.30762C11.1608 7.30762 11.4966 7.6434 11.4966 8.05762V12.8174C11.4966 14.1292 12.5599 15.1926 13.8718 15.1926H15.3497C15.7639 15.1926 16.0997 15.5284 16.0997 15.9426C16.0997 16.3568 15.7639 16.6926 15.3497 16.6926H13.8718C11.7315 16.6926 9.99658 14.9577 9.99658 12.8174V8.05762C9.99658 7.6434 10.3324 7.30762 10.7466 7.30762Z" fill="black"/>
<path fill-rule="evenodd" clip-rule="evenodd" d="M7.90039 12.2495C7.90039 11.8353 8.23618 11.4995 8.65039 11.4995H13.5406C13.9548 11.4995 14.2906 11.8353 14.2906 12.2495C14.2906 12.6637 13.9548 12.9995 13.5406 12.9995H8.65039C8.23618 12.9995 7.90039 12.6637 7.90039 12.2495Z" fill="black"/>
<path fill-rule="evenodd" clip-rule="evenodd" d="M7.90039 9.7373C7.90039 9.32309 8.23618 8.9873 8.65039 8.9873H13.5406C13.9548 8.9873 14.2906 9.32309 14.2906 9.7373C14.2906 10.1515 13.9548 10.4873 13.5406 10.4873H8.65039C8.23618 10.4873 7.90039 10.1515 7.90039 9.7373Z" fill="black"/>
</svg>
