<svg width="24" height="24" viewBox="0 0 24 24" fill="none" xmlns="http://www.w3.org/2000/svg">
<path fill-rule="evenodd" clip-rule="evenodd" d="M4.40612 6.40005C4.00582 6.83001 3.75 7.47386 3.75 8.30075V15.6992C3.75 16.5261 4.00582 17.1699 4.40618 17.5999C4.80092 18.0238 5.39141 18.3002 6.18941 18.3002H13.3116C13.7258 18.3002 14.0616 18.6359 14.0616 19.0502C14.0616 19.4644 13.7258 19.8002 13.3116 19.8002H6.18941C5.02103 19.8002 4.01681 19.3828 3.30844 18.6221C2.6057 17.8675 2.25 16.8358 2.25 15.6992V8.30075C2.25 7.16418 2.60569 6.13257 3.30826 5.37794C4.01646 4.61725 5.02043 4.19983 6.18843 4.19983H17.8116C18.9771 4.19983 19.9807 4.61756 20.6892 5.37757C21.3923 6.13175 21.75 7.16324 21.75 8.30075V10.2992C21.75 10.7134 21.4142 11.0492 21 11.0492C20.5858 11.0492 20.25 10.7134 20.25 10.2992V8.30075C20.25 7.4748 19.9933 6.83082 19.592 6.40041C19.1962 5.97583 18.6056 5.69983 17.8116 5.69983H6.18843C5.39103 5.69983 4.80078 5.97614 4.40612 6.40005Z" fill="black"/>
<path fill-rule="evenodd" clip-rule="evenodd" d="M18.2783 13.8593C18.5712 13.5664 19.046 13.5664 19.3389 13.8593L21.4756 15.996C21.6162 16.1366 21.6953 16.3274 21.6952 16.5264C21.6952 16.7253 21.6162 16.9161 21.4755 17.0567L19.3388 19.1924C19.0458 19.4853 18.571 19.4851 18.2781 19.1922C17.9853 18.8992 17.9854 18.4243 18.2784 18.1315L19.8845 16.5262L18.2783 14.92C17.9854 14.6271 17.9854 14.1522 18.2783 13.8593Z" fill="black"/>
<path fill-rule="evenodd" clip-rule="evenodd" d="M20.9444 17.2754L15.8946 17.2757C15.4804 17.2757 15.1446 16.9399 15.1445 16.5257C15.1445 16.1115 15.4803 15.7757 15.8945 15.7757L20.9444 15.7754C21.3586 15.7754 21.6944 16.1111 21.6944 16.5253C21.6944 16.9396 21.3587 17.2754 20.9444 17.2754Z" fill="black"/>
<path fill-rule="evenodd" clip-rule="evenodd" d="M5.46289 8.45117C5.46289 8.03696 5.79868 7.70117 6.21289 7.70117H7.61592C8.03013 7.70117 8.36592 8.03696 8.36592 8.45117C8.36592 8.86539 8.03013 9.20117 7.61592 9.20117H6.21289C5.79868 9.20117 5.46289 8.86539 5.46289 8.45117Z" fill="black"/>
<path fill-rule="evenodd" clip-rule="evenodd" d="M12.0003 10.4639C11.1514 10.4639 10.4629 11.1519 10.4629 12.0013C10.4629 12.8508 11.1514 13.5388 12.0003 13.5388C12.8504 13.5388 13.5388 12.8506 13.5388 12.0013C13.5388 11.1521 12.8504 10.4639 12.0003 10.4639ZM8.96289 12.0013C8.96289 10.323 10.3234 8.96387 12.0003 8.96387C13.678 8.96387 15.0388 10.3228 15.0388 12.0013C15.0388 13.6798 13.678 15.0388 12.0003 15.0388C10.3234 15.0388 8.96289 13.6796 8.96289 12.0013Z" fill="black"/>
</svg>
