<svg width="24" height="24" viewBox="0 0 24 24" fill="none" xmlns="http://www.w3.org/2000/svg">
<path fill-rule="evenodd" clip-rule="evenodd" d="M3.17468 4.92191C3.79578 4.25563 4.67312 3.89288 5.68348 3.89288H15.4687C16.4814 3.89288 17.3594 4.25523 17.9805 4.9222C18.5959 5.58311 18.9032 6.48221 18.9032 7.46355V13.6916C18.9032 14.6729 18.5959 15.5722 17.9804 16.2334C17.3593 16.9006 16.481 17.2632 15.4678 17.2632H5.68348C4.67098 17.2632 3.79322 16.9004 3.1724 16.2332C2.55725 15.5721 2.25 14.6729 2.25 13.6916V7.46355C2.25 6.48128 2.55903 5.58235 3.17468 4.92191ZM4.2719 5.94471C3.95811 6.28133 3.75 6.79273 3.75 7.46355V13.6916C3.75 14.3634 3.95746 14.875 4.27053 15.2114C4.57793 15.5418 5.04192 15.7632 5.68348 15.7632H15.4678C16.1106 15.7632 16.575 15.5416 16.8826 15.2113C17.1958 14.8749 17.4032 14.3634 17.4032 13.6916V7.46355C17.4032 6.79181 17.1958 6.28057 16.8827 5.94442C16.5754 5.61432 16.1111 5.39288 15.4687 5.39288H5.68348C5.04464 5.39288 4.58024 5.61393 4.2719 5.94471Z" fill="black"/>
<path fill-rule="evenodd" clip-rule="evenodd" d="M17.4 7.48535C17.4 7.07114 17.7358 6.73535 18.15 6.73535H18.3203C19.3321 6.73535 20.2089 7.0992 20.8288 7.76658C21.4429 8.42775 21.7499 9.32667 21.7499 10.307V16.535C21.7499 17.5158 21.4429 18.4152 20.8268 19.0766C20.2051 19.7441 19.3258 20.1067 18.3106 20.1067H8.53404C7.51882 20.1067 6.63937 19.7441 6.01741 19.0768C5.40108 18.4154 5.09375 17.516 5.09375 16.535C5.09375 16.1208 5.42954 15.785 5.84375 15.785C6.25796 15.785 6.59375 16.1208 6.59375 16.535C6.59375 17.2062 6.80113 17.7176 7.11473 18.0541C7.42269 18.3845 7.88838 18.6067 8.53404 18.6067H18.3106C18.9562 18.6067 19.4216 18.3845 19.7292 18.0542C20.0426 17.7178 20.2499 17.2064 20.2499 16.535V10.307C20.2499 9.63618 20.0426 9.12427 19.7297 8.78741C19.4226 8.45675 18.9596 8.23535 18.3203 8.23535H18.15C17.7358 8.23535 17.4 7.89957 17.4 7.48535Z" fill="black"/>
<path fill-rule="evenodd" clip-rule="evenodd" d="M4.95703 13.5655C4.95703 13.1513 5.29282 12.8155 5.70703 12.8155H6.88823C7.30244 12.8155 7.63823 13.1513 7.63823 13.5655C7.63823 13.9797 7.30244 14.3155 6.88823 14.3155H5.70703C5.29282 14.3155 4.95703 13.9797 4.95703 13.5655Z" fill="black"/>
<path fill-rule="evenodd" clip-rule="evenodd" d="M7.90234 10.5777C7.90234 9.09976 9.10044 7.90216 10.5788 7.90216C12.0565 7.90216 13.2544 9.10001 13.2544 10.5777C13.2544 12.0554 12.0565 13.2532 10.5788 13.2532C9.10044 13.2532 7.90234 12.0556 7.90234 10.5777ZM10.5788 9.40216C9.92837 9.40216 9.40234 9.92868 9.40234 10.5777C9.40234 11.2267 9.92837 11.7532 10.5788 11.7532C11.2281 11.7532 11.7544 11.2269 11.7544 10.5777C11.7544 9.92843 11.2281 9.40216 10.5788 9.40216Z" fill="black"/>
<path fill-rule="evenodd" clip-rule="evenodd" d="M13.5176 7.58984C13.5176 7.17563 13.8534 6.83984 14.2676 6.83984H15.4488C15.863 6.83984 16.1988 7.17563 16.1988 7.58984C16.1988 8.00406 15.863 8.33984 15.4488 8.33984H14.2676C13.8534 8.33984 13.5176 8.00406 13.5176 7.58984Z" fill="black"/>
</svg>
