<svg width="24" height="24" viewBox="0 0 24 24" fill="none" xmlns="http://www.w3.org/2000/svg">
<path fill-rule="evenodd" clip-rule="evenodd" d="M4.40611 6.39998C4.00582 6.82994 3.75 7.47379 3.75 8.30067V15.6991C3.75 16.526 4.00582 17.1698 4.40618 17.5998C4.80091 18.0237 5.3914 18.3 6.18939 18.3H12.4115C12.8257 18.3 13.1615 18.6358 13.1615 19.05C13.1615 19.4643 12.8257 19.8 12.4115 19.8H6.18939C5.02102 19.8 4.01681 19.3827 3.30844 18.622C2.6057 17.8673 2.25 16.8357 2.25 15.6991V8.30067C2.25 7.16411 2.60569 6.1325 3.30826 5.37787C4.01646 4.61719 5.02043 4.19977 6.18842 4.19977H17.8115C18.9771 4.19977 19.9806 4.61749 20.6891 5.37751C21.3922 6.13169 21.7499 7.16317 21.7499 8.30067V10.2992C21.7499 10.7134 21.4141 11.0492 20.9999 11.0492C20.5857 11.0492 20.2499 10.7134 20.2499 10.2992V8.30067C20.2499 7.47473 19.9932 6.83076 19.592 6.40034C19.1962 5.97577 18.6055 5.69977 17.8115 5.69977H6.18842C5.39102 5.69977 4.80077 5.97608 4.40611 6.39998Z" fill="black"/>
<path fill-rule="evenodd" clip-rule="evenodd" d="M5.46484 8.45117C5.46484 8.03696 5.80063 7.70117 6.21484 7.70117H7.61787C8.03208 7.70117 8.36787 8.03696 8.36787 8.45117C8.36787 8.86539 8.03208 9.20117 7.61787 9.20117H6.21484C5.80063 9.20117 5.46484 8.86539 5.46484 8.45117Z" fill="black"/>
<path fill-rule="evenodd" clip-rule="evenodd" d="M12.0003 10.4629C11.1514 10.4629 10.4629 11.1509 10.4629 12.0003C10.4629 12.8498 11.1514 13.5378 12.0003 13.5378C12.8504 13.5378 13.5388 12.8496 13.5388 12.0003C13.5388 11.1511 12.8504 10.4629 12.0003 10.4629ZM8.96289 12.0003C8.96289 10.322 10.3234 8.96289 12.0003 8.96289C13.678 8.96289 15.0388 10.3218 15.0388 12.0003C15.0388 13.6789 13.678 15.0378 12.0003 15.0378C10.3234 15.0378 8.96289 13.6786 8.96289 12.0003Z" fill="black"/>
<path fill-rule="evenodd" clip-rule="evenodd" d="M15.1543 16.225C15.1543 14.5588 16.5057 13.2061 18.1733 13.2061C19.8409 13.2061 21.1922 14.5588 21.1922 16.225C21.1922 16.7888 21.038 17.313 20.772 17.7631L21.5295 18.5206C21.8224 18.8135 21.8224 19.2883 21.5295 19.5812C21.2366 19.8741 20.7617 19.8741 20.4688 19.5812L19.7125 18.8249C19.2618 19.091 18.7349 19.244 18.1733 19.244C16.5057 19.244 15.1543 17.8912 15.1543 16.225ZM19.2475 17.3036C19.5263 17.0181 19.6922 16.642 19.6922 16.225C19.6922 15.3868 19.012 14.7061 18.1733 14.7061C17.3345 14.7061 16.6543 15.3868 16.6543 16.225C16.6543 17.0632 17.3345 17.744 18.1733 17.744C18.5949 17.744 18.9738 17.5752 19.2475 17.3036Z" fill="black"/>
</svg>
