<svg width="24" height="24" viewBox="0 0 24 24" fill="none" xmlns="http://www.w3.org/2000/svg">
<path d="M12 21.75C10.0717 21.75 8.18659 21.1782 6.58321 20.1068C4.97983 19.0355 3.73016 17.5127 2.99221 15.7312C2.25425 13.9496 2.06113 11.9892 2.43734 10.0979C2.81354 8.20658 3.74217 6.46927 5.10573 5.10571C6.4693 3.74215 8.20655 2.81355 10.0979 2.43735C11.9892 2.06114 13.9496 2.25423 15.7312 2.99219C17.5127 3.73014 19.0355 4.97984 20.1068 6.58322C21.1782 8.1866 21.75 10.0717 21.75 12C21.7471 14.585 20.7189 17.0632 18.8911 18.8911C17.0632 20.7189 14.585 21.7471 12 21.75ZM12 3.75003C10.3683 3.75003 8.77329 4.23386 7.41659 5.14038C6.05988 6.0469 5.00243 7.33537 4.37801 8.84286C3.75359 10.3504 3.5902 12.0092 3.90853 13.6095C4.22686 15.2099 5.01262 16.6799 6.1664 17.8336C7.32019 18.9874 8.79018 19.7732 10.3905 20.0915C11.9909 20.4098 13.6497 20.2464 15.1572 19.622C16.6647 18.9976 17.9531 17.9402 18.8596 16.5835C19.7662 15.2268 20.25 13.6317 20.25 12C20.2476 9.81272 19.3777 7.71566 17.831 6.169C16.2844 4.62235 14.1873 3.75241 12 3.75003V3.75003Z" fill="black"/>
<path d="M14.0861 16.3307H9.68605C9.5389 16.3308 9.39502 16.2876 9.27223 16.2065C9.14944 16.1254 9.05323 16.01 8.99556 15.8746C8.93789 15.7392 8.9213 15.5899 8.94789 15.4452C8.97448 15.3005 9.04307 15.1667 9.14509 15.0607C9.56013 14.6292 9.95102 14.1752 10.3161 13.7007C10.4761 13.4448 10.5513 13.145 10.531 12.8439C10.5107 12.5428 10.396 12.2558 10.2031 12.0237C10.0778 11.8691 10.019 11.671 10.0397 11.4731C10.0605 11.2751 10.1589 11.0935 10.3136 10.9682C10.4682 10.8429 10.6663 10.7841 10.8642 10.8049C11.0622 10.8256 11.2438 10.9241 11.3691 11.0787C11.7676 11.5664 11.9988 12.1692 12.0287 12.7983C12.0586 13.4274 11.8855 14.0494 11.535 14.5727C11.469 14.6607 11.4021 14.7467 11.3351 14.8307H14.0831C14.282 14.8307 14.4728 14.9097 14.6134 15.0504C14.7541 15.191 14.8331 15.3818 14.8331 15.5807C14.8331 15.7796 14.7541 15.9704 14.6134 16.111C14.4728 16.2517 14.282 16.3307 14.0831 16.3307H14.0861Z" fill="black"/>
<path d="M10.79 12.2987C10.6765 12.299 10.5644 12.2735 10.4622 12.2242C10.36 12.1748 10.2703 12.1028 10.2 12.0137C9.72723 11.405 9.51161 10.6355 9.59919 9.86974C9.68678 9.10403 10.0706 8.40303 10.6686 7.9168C11.2666 7.43058 12.0312 7.19776 12.7987 7.26821C13.5661 7.33866 14.2755 7.70676 14.775 8.29373C14.8391 8.36912 14.8877 8.45646 14.9179 8.55071C14.9481 8.64496 14.9593 8.74427 14.951 8.84289C14.9427 8.94151 14.9148 9.0375 14.8692 9.12533C14.8236 9.21316 14.7611 9.2911 14.6852 9.35464C14.6093 9.41818 14.5216 9.46608 14.4271 9.49557C14.3327 9.52506 14.2333 9.53555 14.1347 9.52645C14.0362 9.51735 13.9403 9.48882 13.8529 9.44253C13.7654 9.39624 13.688 9.3331 13.625 9.25674C13.3826 8.95877 13.0317 8.76929 12.6496 8.73C12.2675 8.69072 11.8854 8.80483 11.5875 9.04723C11.2895 9.28964 11.1 9.6405 11.0607 10.0226C11.0215 10.4047 11.1356 10.7868 11.378 11.0847C11.4654 11.1952 11.52 11.328 11.5354 11.468C11.5507 11.608 11.5263 11.7495 11.4649 11.8762C11.4035 12.003 11.3076 12.1099 11.1882 12.1846C11.0689 12.2593 10.9308 12.2989 10.79 12.2987V12.2987Z" fill="black"/>
<path d="M13.3531 12.667H8.95312C8.75421 12.667 8.56344 12.588 8.42279 12.4473C8.28214 12.3067 8.20312 12.1159 8.20312 11.917C8.20312 11.7181 8.28214 11.5273 8.42279 11.3867C8.56344 11.246 8.75421 11.167 8.95312 11.167H13.3531C13.552 11.167 13.7428 11.246 13.8834 11.3867C14.0241 11.5273 14.1031 11.7181 14.1031 11.917C14.1031 12.1159 14.0241 12.3067 13.8834 12.4473C13.7428 12.588 13.552 12.667 13.3531 12.667Z" fill="black"/>
</svg>
