<svg width="24" height="24" viewBox="0 0 24 24" fill="none" xmlns="http://www.w3.org/2000/svg">
<path fill-rule="evenodd" clip-rule="evenodd" d="M3.47411 6.89362C4.28761 6.02096 5.44272 5.53732 6.79459 5.53732H17.2044C18.5592 5.53732 19.7149 6.02064 20.5282 6.89387C21.3359 7.76109 21.75 8.95204 21.75 10.2755V16.5824C21.75 17.9058 21.3359 19.0968 20.528 19.9641C19.7146 20.8373 18.5586 21.3206 17.2035 21.3206H6.79459C5.4398 21.3206 4.28428 20.8372 3.47123 19.9639C2.66381 19.0966 2.25 17.9057 2.25 16.5824V10.2755C2.25 8.95126 2.66607 7.76044 3.47411 6.89362ZM4.57132 7.91643C4.06512 8.45945 3.75 9.26274 3.75 10.2755V16.5824C3.75 17.5961 4.06397 18.3992 4.5691 18.9418C5.06859 19.4783 5.81037 19.8206 6.79459 19.8206H17.2035C18.1883 19.8206 18.9306 19.4783 19.4304 18.9417C19.9359 18.3991 20.25 17.5959 20.25 16.5824V10.2755C20.25 9.26195 19.9359 8.45879 19.4305 7.91618C18.9308 7.37958 18.1887 7.03732 17.2044 7.03732H6.79459C5.81425 7.03732 5.07207 7.37926 4.57132 7.91643Z" fill="black"/>
<path fill-rule="evenodd" clip-rule="evenodd" d="M7.89062 5.64904C7.89062 4.00888 9.21982 2.67969 10.86 2.67969H13.1406C14.7808 2.67969 16.11 4.00888 16.11 5.64904V6.27734C16.11 6.69156 15.7742 7.02734 15.36 7.02734C14.9458 7.02734 14.61 6.69156 14.61 6.27734V5.64904C14.61 4.83731 13.9524 4.17969 13.1406 4.17969H10.86C10.0482 4.17969 9.39062 4.83731 9.39062 5.64904V6.27125C9.39062 6.68546 9.05484 7.02125 8.64062 7.02125C8.22641 7.02125 7.89062 6.68546 7.89062 6.27125V5.64904Z" fill="black"/>
<path fill-rule="evenodd" clip-rule="evenodd" d="M7.71094 5.53711C8.12515 5.53711 8.46094 5.8729 8.46094 6.28711V20.5508C8.46094 20.965 8.12515 21.3008 7.71094 21.3008C7.29672 21.3008 6.96094 20.965 6.96094 20.5508V6.28711C6.96094 5.8729 7.29672 5.53711 7.71094 5.53711Z" fill="black"/>
<path fill-rule="evenodd" clip-rule="evenodd" d="M16.2891 5.53711C16.7033 5.53711 17.0391 5.8729 17.0391 6.28711V20.5508C17.0391 20.965 16.7033 21.3008 16.2891 21.3008C15.8748 21.3008 15.5391 20.965 15.5391 20.5508V6.28711C15.5391 5.8729 15.8748 5.53711 16.2891 5.53711Z" fill="black"/>
</svg>
