<svg width="24" height="24" viewBox="0 0 24 24" fill="none" xmlns="http://www.w3.org/2000/svg">
<path fill-rule="evenodd" clip-rule="evenodd" d="M2.37405 15.5264C2.51286 15.3161 2.74801 15.1895 3 15.1895H21C21.272 15.1895 21.5226 15.3368 21.6551 15.5743C21.7875 15.8119 21.781 16.1025 21.638 16.3339L19.1475 20.363C18.69 21.1005 17.883 21.5515 17.0128 21.5515H6.24C5.23571 21.5515 4.32667 20.9524 3.93219 20.0277C3.93214 20.0276 3.93223 20.0278 3.93219 20.0277L2.31039 16.2344C2.21132 16.0027 2.23524 15.7367 2.37405 15.5264ZM4.13633 16.6895L5.31156 19.4383C5.4698 19.8094 5.83555 20.0515 6.24 20.0515H17.0128C17.3626 20.0515 17.6881 19.8701 17.8728 19.5724C17.8728 19.5724 17.8727 19.5725 17.8728 19.5724L19.6547 16.6895H4.13633Z" fill="black"/>
<path fill-rule="evenodd" clip-rule="evenodd" d="M10.4035 2.50615L10.1169 3.19922C10.4035 2.50615 10.4039 2.5063 10.4043 2.50647L10.4053 2.50688L10.4078 2.50791L10.4149 2.51091L10.4375 2.52062C10.4563 2.52876 10.4824 2.54025 10.5153 2.55518C10.581 2.58502 10.674 2.62864 10.7901 2.68673C11.0222 2.80287 11.3475 2.97725 11.7334 3.21563C12.504 3.69161 13.5235 4.42739 14.5243 5.47061C16.5371 7.56862 18.4624 10.9026 18.1431 15.7917C18.1161 16.205 17.7592 16.5182 17.3459 16.4912C16.9325 16.4642 16.6193 16.1073 16.6463 15.6939C16.9332 11.2999 15.2196 8.36204 13.4419 6.50905C12.5868 5.61776 11.7142 4.97577 11.0373 4.54928C11.4902 9.12775 10.9195 13.4368 9.66898 15.9056C9.48182 16.2751 9.03054 16.4229 8.66102 16.2357C8.29151 16.0486 8.14368 15.5973 8.33085 15.2278C9.51886 12.8823 10.0958 8.25444 9.37473 3.3074C9.33583 3.04049 9.44324 2.77325 9.65604 2.60751C9.86885 2.44177 10.1543 2.40307 10.4035 2.50615ZM9.82966 3.89204L9.8289 3.89172C9.82892 3.89173 9.82903 3.89178 9.82923 3.89186L9.82966 3.89204Z" fill="black"/>
</svg>
