<svg width="24" height="24" viewBox="0 0 24 24" fill="none" xmlns="http://www.w3.org/2000/svg">
<path fill-rule="evenodd" clip-rule="evenodd" d="M2.37405 15.5262C2.51286 15.3159 2.74801 15.1893 3 15.1893H21C21.272 15.1893 21.5226 15.3366 21.6551 15.5741C21.7875 15.8117 21.781 16.1023 21.638 16.3337L19.1475 20.3628C18.69 21.1003 17.883 21.5513 17.0128 21.5513H6.24C5.23571 21.5513 4.32667 20.9522 3.93219 20.0274C3.93214 20.0273 3.93223 20.0275 3.93219 20.0274L2.31039 16.2342C2.21132 16.0025 2.23524 15.7365 2.37405 15.5262ZM4.13633 16.6893L5.31156 19.4381C5.4698 19.8092 5.83555 20.0513 6.24 20.0513H17.0128C17.3626 20.0513 17.6881 19.8698 17.8728 19.5722C17.8728 19.5722 17.8727 19.5722 17.8728 19.5722L19.6547 16.6893H4.13633Z" fill="black"/>
<path fill-rule="evenodd" clip-rule="evenodd" d="M10.3426 2.48391L10.1171 3.19922C10.3426 2.48391 10.343 2.48402 10.3433 2.48414L10.3443 2.48443L10.3466 2.48519L10.3535 2.4874L10.3758 2.49469C10.3943 2.50082 10.4201 2.50953 10.4527 2.52091C10.5178 2.54366 10.6103 2.5771 10.7259 2.62194C10.957 2.71157 11.2818 2.84715 11.6674 3.03453C12.4365 3.40829 13.4592 3.99366 14.4661 4.84059C16.4911 6.54377 18.4696 9.3286 18.1427 13.5252C18.1119 13.9211 17.7778 14.2244 17.3808 14.2169L9.56199 14.069C9.31142 14.0642 9.07978 13.9347 8.94461 13.7236C8.80944 13.5126 8.78862 13.248 8.8891 13.0184C10.0044 10.4702 10.2271 7.23253 9.38429 3.35865C9.32744 3.09736 9.41402 2.82556 9.61152 2.64528C9.80902 2.46501 10.0876 2.40352 10.3426 2.48391ZM11.1143 4.43412C11.6055 7.48805 11.4523 10.2295 10.6603 12.5895L16.6778 12.7033C16.7032 9.51117 15.1477 7.37386 13.5006 5.98852C12.6557 5.27782 11.7907 4.77058 11.1143 4.43412Z" fill="black"/>
</svg>
