<svg width="24" height="24" viewBox="0 0 24 24" fill="none" xmlns="http://www.w3.org/2000/svg">
<path fill-rule="evenodd" clip-rule="evenodd" d="M2.25 20.493C2.25 20.0788 2.58579 19.743 3 19.743H21C21.4142 19.743 21.75 20.0788 21.75 20.493C21.75 20.9073 21.4142 21.243 21 21.243H3C2.58579 21.243 2.25 20.9073 2.25 20.493Z" fill="black"/>
<path fill-rule="evenodd" clip-rule="evenodd" d="M13.3874 2.84661C13.752 3.04312 13.8883 3.49802 13.6918 3.86265L4.53903 20.8459C4.34252 21.2105 3.88763 21.3468 3.52299 21.1503C3.15836 20.9538 3.02207 20.4989 3.21858 20.1343L12.3713 3.15102C12.5679 2.78639 13.0227 2.6501 13.3874 2.84661Z" fill="black"/>
<path fill-rule="evenodd" clip-rule="evenodd" d="M11.9997 15.2393C12.2754 15.2392 12.529 15.3906 12.6599 15.6333L15.0884 20.1372C15.285 20.5018 15.1488 20.9567 14.7842 21.1533C14.4196 21.3499 13.9647 21.2137 13.7681 20.8491L11.9999 17.5697L10.2324 20.849C10.0358 21.2136 9.58094 21.3499 9.21632 21.1534C8.8517 20.9568 8.71543 20.5019 8.91196 20.1373L11.3395 15.6334C11.4704 15.3906 11.7239 15.2393 11.9997 15.2393Z" fill="black"/>
<path fill-rule="evenodd" clip-rule="evenodd" d="M10.6151 2.84647C10.9798 2.6501 11.4346 2.78658 11.631 3.15129L20.775 20.1345C20.9713 20.4992 20.8349 20.9541 20.4702 21.1504C20.1054 21.3468 19.6506 21.2103 19.4542 20.8456L10.3102 3.86239C10.1139 3.49768 10.2503 3.04283 10.6151 2.84647Z" fill="black"/>
<path fill-rule="evenodd" clip-rule="evenodd" d="M7.7207 11.998C7.7207 11.5838 8.05649 11.248 8.4707 11.248H15.3778C15.7921 11.248 16.1278 11.5838 16.1278 11.998C16.1278 12.4123 15.7921 12.748 15.3778 12.748H8.4707C8.05649 12.748 7.7207 12.4123 7.7207 11.998Z" fill="black"/>
</svg>
