<svg width="24" height="24" viewBox="0 0 24 24" fill="none" xmlns="http://www.w3.org/2000/svg">
<path fill-rule="evenodd" clip-rule="evenodd" d="M9.70082 2.48045C9.91267 2.25989 10.2372 2.19005 10.5211 2.30396C13.1292 3.35066 15.4572 4.99331 17.3172 7.10105C17.3256 7.11057 17.3337 7.1203 17.3416 7.13023C18.9734 9.18025 19.8496 11.7296 19.822 14.3504C19.8253 14.3932 19.8253 14.4299 19.8246 14.4577C19.8759 18.4241 16.7082 21.6861 12.7396 21.749C12.4349 21.7542 12.1327 21.7391 11.8333 21.7059C10.1878 21.6519 8.59424 21.1128 7.25381 20.1558C7.24676 20.1508 7.2398 20.1457 7.23293 20.1404C5.41352 18.7438 4.29733 16.6206 4.18216 14.329L4.18176 14.3211C4.09249 12.0669 4.86517 9.86277 6.34233 8.15712C6.53969 7.92925 6.85429 7.84168 7.141 7.93481C7.42771 8.02795 7.63078 8.2837 7.65654 8.58405C7.70448 9.1433 7.92713 10.261 8.19908 11.285C8.20834 11.3199 8.21762 11.3545 8.22692 11.3889C8.31854 11.2202 8.41298 11.0573 8.50606 10.9024C8.74929 10.4976 9.00982 10.1062 9.24295 9.76029C9.28028 9.7049 9.31667 9.65101 9.35206 9.59861C9.53945 9.32114 9.69883 9.08514 9.82128 8.88688C10.5528 7.58495 10.6714 6.02555 10.1446 4.62728C10.0994 4.52094 9.95993 4.20695 9.82408 3.90269C9.75475 3.7474 9.68809 3.59848 9.63875 3.48836L9.55786 3.30794C9.43261 3.02893 9.48896 2.70102 9.70082 2.48045ZM11.687 4.5066C12.2057 6.21622 12.0057 8.07123 11.1203 9.63705C11.1158 9.64503 11.1111 9.65293 11.1063 9.66074C10.9645 9.89136 10.7806 10.1636 10.5907 10.4448C10.5562 10.4958 10.5215 10.5472 10.4868 10.5986C10.2554 10.942 10.0136 11.3059 9.79183 11.6749C9.32383 12.4539 9.03877 13.1104 9.02904 13.55C9.02334 13.8078 8.88563 14.0446 8.6644 14.177C8.44317 14.3094 8.16943 14.3189 7.93956 14.2021C7.77309 14.1175 7.6648 13.9953 7.60739 13.9231C7.54213 13.8409 7.4882 13.7528 7.44435 13.6728C7.3564 13.5122 7.27409 13.3194 7.19847 13.1193C7.04567 12.715 6.89034 12.201 6.74934 11.67C6.65727 11.3234 6.56854 10.9589 6.48882 10.6013C5.91383 11.7219 5.63057 12.9801 5.68047 14.2577C5.77439 16.1032 6.67192 17.814 8.13599 18.9426C9.24048 19.728 10.5537 20.1682 11.9088 20.2076C11.9301 20.2082 11.9515 20.2097 11.9727 20.2121C12.2209 20.2407 12.4682 20.2535 12.7147 20.2492L12.7158 20.2492C15.8628 20.1993 18.3735 17.6086 18.3245 14.4617C18.3244 14.4584 18.3244 14.4551 18.3244 14.4519C18.3221 14.4263 18.3212 14.4005 18.3216 14.3748C18.3549 12.0911 17.5977 9.86756 16.1798 8.07919C14.8992 6.63143 13.3774 5.42366 11.687 4.5066Z" fill="black"/>
<path fill-rule="evenodd" clip-rule="evenodd" d="M15.6483 11.4966C15.8535 11.7395 15.8831 12.0856 15.7222 12.3599C14.9099 13.7451 14.7541 14.7146 14.84 15.3862C14.9247 16.0495 15.2599 16.5391 15.6767 16.9409C15.8075 17.0661 15.9754 17.2166 16.1691 17.3903C16.2875 17.4964 16.4155 17.6112 16.5507 17.7341C16.8876 18.0407 17.2599 18.3907 17.5296 18.703C17.8003 19.0165 17.7656 19.4901 17.4521 19.7608C17.1386 20.0315 16.6649 19.9968 16.3942 19.6833C16.19 19.4468 15.8788 19.1508 15.5412 18.8436C15.4293 18.7418 15.3123 18.6368 15.1977 18.5341C14.9873 18.3454 14.7853 18.1642 14.6383 18.0233L14.6366 18.0218C14.0652 17.4711 13.4939 16.6868 13.352 15.5763C13.2753 14.9757 13.3287 14.315 13.5419 13.5845C12.1664 14.4972 11.6001 15.5599 11.3698 16.4331C11.2079 17.0471 11.2029 17.6043 11.239 18.0081C11.2569 18.2092 11.2848 18.369 11.3071 18.4747C11.3182 18.5274 11.3278 18.5663 11.3339 18.5897C11.337 18.6014 11.3391 18.6091 11.3402 18.6128L11.3401 18.6127L11.3399 18.6119C11.3402 18.6128 11.3405 18.6138 11.3407 18.6147C11.3409 18.6151 11.3409 18.6152 11.3409 18.6151L11.3405 18.6139L11.3402 18.6128C11.3404 18.6136 11.3406 18.6143 11.3407 18.6147C11.4604 19.0094 11.2387 19.4271 10.8441 19.5488C10.4483 19.671 10.0284 19.4491 9.90629 19.0533L10.623 18.8322C9.90629 19.0533 9.90615 19.0528 9.906 19.0523L9.90567 19.0512L9.90492 19.0488L9.90304 19.0425L9.89792 19.0249C9.89392 19.0109 9.88881 18.9925 9.88285 18.9697C9.87095 18.9243 9.85565 18.8616 9.83923 18.7836C9.80643 18.6277 9.76882 18.409 9.74493 18.1417C9.69729 17.609 9.70307 16.871 9.9194 16.0506C10.3636 14.366 11.6595 12.4731 14.8095 11.2792C15.1069 11.1664 15.4431 11.2536 15.6483 11.4966Z" fill="black"/>
</svg>
