<svg width="24" height="24" viewBox="0 0 24 24" fill="none" xmlns="http://www.w3.org/2000/svg">
<path d="M7.71864 20.7111C6.83891 20.7157 5.98294 20.4258 5.28706 19.8876C4.59117 19.3493 4.09535 18.5938 3.87861 17.7411C3.31661 15.5141 2.31165 11.3541 2.31165 11.3541C2.31165 11.3331 2.30361 11.3121 2.30061 11.2911C2.21072 10.6982 2.23852 10.0933 2.38239 9.51103C2.52627 8.92878 2.78343 8.38058 3.13917 7.89772C3.49491 7.41485 3.94225 7.00678 4.4557 6.69681C4.96914 6.38683 5.53862 6.18103 6.1316 6.09114C6.72458 6.00125 7.32951 6.02903 7.91175 6.17291C8.494 6.31679 9.04217 6.57394 9.52503 6.92969C10.0079 7.28543 10.416 7.7328 10.726 8.24624C11.0359 8.75969 11.2417 9.32915 11.3316 9.92213C11.3386 9.98713 11.6116 14.2561 11.7316 16.5501C11.7819 17.5368 11.4606 18.5065 10.8312 19.268C10.2019 20.0295 9.31007 20.5276 8.33161 20.6641C8.12876 20.6952 7.92386 20.7109 7.71864 20.7111ZM3.77863 11.0351C3.87363 11.4291 4.80163 15.2681 5.33363 17.3731C5.50291 17.9548 5.87764 18.4553 6.38819 18.7814C6.89874 19.1075 7.51036 19.2372 8.10932 19.1462C8.70828 19.0553 9.25387 18.7499 9.6446 18.287C10.0353 17.824 10.2447 17.2349 10.2337 16.6291C10.1117 14.3421 9.84065 10.0831 9.84065 10.0821C9.69821 9.2927 9.25242 8.59037 8.5987 8.12544C7.94498 7.66052 7.13524 7.46994 6.34278 7.59448C5.55032 7.71902 4.83806 8.14879 4.35847 8.79182C3.87887 9.43486 3.67004 10.2401 3.77662 11.0351H3.77863Z" fill="black"/>
<path d="M3.94783 15.6487C3.7703 15.6482 3.59868 15.5849 3.46339 15.4699C3.32811 15.355 3.23789 15.1958 3.20882 15.0207C3.09713 14.4631 3.10114 13.8885 3.2206 13.3326C3.34005 12.7766 3.57242 12.2511 3.90328 11.7886C4.23413 11.3262 4.65641 10.9366 5.144 10.644C5.63158 10.3514 6.17405 10.162 6.73781 10.0877C7.77437 9.90408 8.84223 10.1084 9.73781 10.6617C10.2321 10.9854 10.6505 11.4122 10.9645 11.9127C11.2785 12.4133 11.4805 12.9758 11.5568 13.5617C11.5892 13.758 11.5422 13.9592 11.4262 14.121C11.3102 14.2827 11.1347 14.3918 10.9383 14.4242C10.7419 14.4565 10.5407 14.4095 10.379 14.2935C10.2172 14.1775 10.1082 14.0021 10.0758 13.8057C10.0314 13.4286 9.90629 13.0656 9.70906 12.7412C9.51183 12.4168 9.2471 12.1386 8.93282 11.9257C8.34753 11.5705 7.65216 11.4427 6.97884 11.5667C6.61055 11.6113 6.25559 11.7321 5.93654 11.9214C5.61749 12.1107 5.34131 12.3644 5.12563 12.6662C4.90994 12.968 4.75951 13.3115 4.68379 13.6746C4.60807 14.0378 4.60872 14.4128 4.68581 14.7757C4.71816 14.9719 4.67127 15.173 4.55537 15.3347C4.43948 15.4963 4.26408 15.6053 4.06783 15.6377C4.0282 15.6446 3.98807 15.6483 3.94783 15.6487Z" fill="black"/>
<path d="M16.2754 17.9644C15.7357 17.9647 15.2016 17.8561 14.7048 17.6452C14.208 17.4343 13.7589 17.1254 13.3842 16.737C13.0095 16.3486 12.7169 15.8886 12.524 15.3846C12.3311 14.8805 12.2418 14.3428 12.2614 13.8034C12.3834 11.5094 12.6615 7.24043 12.6615 7.24043C12.7423 6.64037 12.9418 6.06242 13.2484 5.54028C13.5549 5.01814 13.9624 4.56227 14.447 4.19925C14.9316 3.83623 15.4836 3.57334 16.0708 3.42589C16.6581 3.27844 17.2689 3.24939 17.8675 3.34044V3.34044C18.4606 3.43007 19.0301 3.63571 19.5437 3.9456C20.0573 4.2555 20.5048 4.66357 20.8606 5.1465C21.2164 5.62942 21.4735 6.17773 21.6173 6.76008C21.761 7.34244 21.7886 7.94742 21.6985 8.54043C21.6875 8.60443 20.6824 12.7644 20.1194 14.9904C19.9033 15.8445 19.4073 16.6015 18.7105 17.1405C18.0137 17.6796 17.1564 17.9697 16.2754 17.9644V17.9644ZM14.1474 7.39943C14.1474 7.39943 13.8804 11.6124 13.7594 13.8834C13.7489 14.489 13.9586 15.0777 14.3495 15.5403C14.7404 16.0029 15.2859 16.3079 15.8847 16.3985C16.4835 16.4892 17.0949 16.3594 17.6053 16.0333C18.1156 15.7072 18.4902 15.2069 18.6595 14.6254C19.2225 12.4044 20.2234 8.25543 20.2234 8.25543C20.325 7.45973 20.1115 6.65584 19.6286 6.01536C19.1456 5.37489 18.4314 4.94858 17.6385 4.82744V4.82744C17.2403 4.7668 16.834 4.78524 16.443 4.88171C16.0519 4.97818 15.6837 5.15078 15.3593 5.38965C15.035 5.62852 14.761 5.92896 14.5529 6.27382C14.3448 6.61867 14.2067 7.00116 14.1465 7.39943H14.1474Z" fill="black"/>
<path d="M20.0508 12.9003C20.0099 12.9004 19.9691 12.897 19.9288 12.8903C19.8316 12.8745 19.7384 12.8397 19.6547 12.7878C19.5709 12.736 19.4982 12.6682 19.4407 12.5882C19.3832 12.5082 19.3421 12.4177 19.3196 12.3218C19.2971 12.2259 19.2938 12.1265 19.3098 12.0293C19.3869 11.6663 19.3876 11.2913 19.3118 10.9281C19.236 10.5648 19.0854 10.2214 18.8697 9.9195C18.6539 9.61764 18.3776 9.36401 18.0584 9.17476C17.7393 8.98552 17.3842 8.8648 17.0158 8.82029C16.6633 8.7419 16.2982 8.73904 15.9445 8.81189C15.5908 8.88475 15.2566 9.03166 14.9637 9.24297C14.6709 9.45428 14.4261 9.72521 14.2455 10.0379C14.0648 10.3506 13.9525 10.698 13.9158 11.0573C13.8834 11.2537 13.7744 11.4292 13.6126 11.5452C13.4509 11.6612 13.2497 11.7081 13.0533 11.6758C12.8569 11.6434 12.6815 11.5344 12.5655 11.3726C12.4495 11.2109 12.4024 11.0097 12.4348 10.8133C12.5061 10.2609 12.69 9.72892 12.9751 9.25042C13.2602 8.77191 13.6404 8.357 14.0923 8.03136C14.5442 7.70572 15.0582 7.47628 15.6023 7.35724C16.1465 7.2382 16.7092 7.23209 17.2558 7.33928C17.8195 7.41369 18.3619 7.60301 18.8495 7.89551C19.3371 8.18802 19.7595 8.57749 20.0905 9.03981C20.4215 9.50214 20.6541 10.0275 20.7738 10.5833C20.8936 11.1392 20.8981 11.7137 20.7868 12.2713C20.7581 12.4461 20.6684 12.6051 20.5337 12.7202C20.399 12.8353 20.228 12.8991 20.0508 12.9003V12.9003Z" fill="black"/>
</svg>
