<svg width="24" height="24" viewBox="0 0 24 24" fill="none" xmlns="http://www.w3.org/2000/svg">
<path d="M19.5323 13.8908H4.46833C4.14744 13.8913 3.83028 13.822 3.53882 13.6878C3.24736 13.5535 2.98855 13.3575 2.78034 13.1134C2.57213 12.8692 2.41946 12.5827 2.33295 12.2737C2.24644 11.9647 2.22814 11.6406 2.2793 11.3238C2.58227 8.95976 3.73638 6.78715 5.52558 5.21262C7.31478 3.63808 9.61646 2.76953 11.9998 2.76953C14.3832 2.76953 16.6849 3.63808 18.4741 5.21262C20.2633 6.78715 21.4173 8.95976 21.7203 11.3238C21.7725 11.6385 21.7556 11.9608 21.6708 12.2683C21.5861 12.5759 21.4354 12.8613 21.2293 13.1048C21.0206 13.3513 20.7607 13.5494 20.4676 13.6851C20.1745 13.8209 19.8553 13.891 19.5323 13.8908V13.8908ZM11.9993 4.24078C9.97973 4.28704 8.04226 5.04957 6.5329 6.39224C5.02354 7.73491 4.0405 9.57032 3.75928 11.5708C3.74284 11.6707 3.74859 11.773 3.77607 11.8705C3.80354 11.9679 3.85213 12.0582 3.91834 12.1348C3.98582 12.215 4.06998 12.2794 4.16498 12.3236C4.25999 12.3679 4.36353 12.3908 4.46833 12.3908H19.5323C19.6372 12.3908 19.7409 12.3679 19.8361 12.3237C19.9312 12.2794 20.0156 12.215 20.0833 12.1348C20.1495 12.0582 20.198 11.9679 20.2253 11.8704C20.2527 11.7729 20.2581 11.6706 20.2413 11.5708C19.9601 9.57016 18.9769 7.73463 17.4673 6.39194C15.9577 5.04925 14.0201 4.28681 12.0003 4.24078H11.9993Z" fill="black"/>
<path d="M15.5061 13.8838C15.3072 13.8838 15.1164 13.8048 14.9758 13.6641C14.8351 13.5235 14.7561 13.3327 14.7561 13.1338C14.8754 10.048 13.8995 7.01944 12.0011 4.58379C10.1003 7.02131 9.12396 10.0531 9.24512 13.1418C9.24512 13.3407 9.1661 13.5315 9.02545 13.6721C8.8848 13.8128 8.69403 13.8918 8.49512 13.8918C8.2962 13.8918 8.10543 13.8128 7.96478 13.6721C7.82413 13.5315 7.74512 13.3407 7.74512 13.1418C7.74512 6.19578 11.3621 3.0548 11.5171 2.9238C11.6523 2.80908 11.8238 2.74609 12.0011 2.74609C12.1784 2.74609 12.3499 2.80908 12.4851 2.9238C12.6401 3.0538 16.2561 6.19479 16.2561 13.1408C16.2543 13.3385 16.1744 13.5275 16.034 13.6666C15.8935 13.8057 15.7038 13.8838 15.5061 13.8838V13.8838Z" fill="black"/>
<path d="M13.982 21.2536C13.258 21.2525 12.564 20.9644 12.0521 20.4525C11.5401 19.9406 11.252 19.2466 11.251 18.5226V13.1426C11.251 12.9437 11.33 12.7529 11.4706 12.6122C11.6113 12.4716 11.8021 12.3926 12.001 12.3926C12.1999 12.3926 12.3907 12.4716 12.5313 12.6122C12.672 12.7529 12.751 12.9437 12.751 13.1426V18.5226C12.751 18.6842 12.7828 18.8443 12.8447 18.9937C12.9065 19.143 12.9972 19.2787 13.1115 19.393C13.2258 19.5073 13.3615 19.598 13.5109 19.6599C13.6602 19.7217 13.8203 19.7536 13.982 19.7536C14.1437 19.7536 14.3037 19.7217 14.4531 19.6599C14.6024 19.598 14.7381 19.5073 14.8524 19.393C14.9667 19.2787 15.0574 19.143 15.1193 18.9937C15.1811 18.8443 15.213 18.6842 15.213 18.5226C15.213 18.3237 15.292 18.1329 15.4326 17.9922C15.5733 17.8516 15.764 17.7726 15.963 17.7726C16.1619 17.7726 16.3526 17.8516 16.4933 17.9922C16.6339 18.1329 16.713 18.3237 16.713 18.5226C16.7122 19.2466 16.4242 19.9408 15.9122 20.4528C15.4002 20.9648 14.7061 21.2528 13.982 21.2536Z" fill="black"/>
</svg>
