<svg width="24" height="24" viewBox="0 0 24 24" fill="none" xmlns="http://www.w3.org/2000/svg">
<path d="M15.5597 6.30811L17.1612 7.86C17.6545 8.33773 17.9328 8.99449 17.9328 9.68141V18.4644C17.9328 19.8645 16.7973 21 15.3972 21H8.60295C7.20284 21 6.06738 19.8645 6.06738 18.4644V9.68141C6.06738 8.99449 6.34565 8.33773 6.83895 7.86L8.44046 6.30811V4.12086C8.44046 3.50205 8.94252 3 9.5623 3H14.4379C15.0577 3 15.5597 3.50205 15.5597 4.12086V6.30811Z" stroke="black" stroke-width="1.5" stroke-linecap="round" stroke-linejoin="round"/>
<path d="M6.125 18.0117H17.8727" stroke="black" stroke-width="1.5" stroke-linecap="round" stroke-linejoin="round"/>
<path d="M12 10.6992V14.1708" stroke="black" stroke-width="1.5" stroke-linecap="round" stroke-linejoin="round"/>
<path d="M13.7352 12.4375H10.2637" stroke="black" stroke-width="1.5" stroke-linecap="round" stroke-linejoin="round"/>
<path d="M15.5587 6.30859H8.43945" stroke="black" stroke-width="1.5" stroke-linecap="round" stroke-linejoin="round"/>
</svg>