<svg width="24" height="24" viewBox="0 0 24 24" fill="none" xmlns="http://www.w3.org/2000/svg">
<path d="M6.97602 5.99968V12.0224C5.76856 12.935 4.97559 14.3692 4.97559 15.9999C4.97559 18.7612 7.2144 21 9.97569 21C12.738 21 14.9758 18.7612 14.9758 15.9999C14.9758 14.3692 14.1838 12.935 12.9763 12.0224V5.99968C12.9763 4.3427 11.6327 3 9.97569 3C8.31872 3 6.97602 4.3427 6.97602 5.99968Z" stroke="black" stroke-width="1.5" stroke-linecap="round" stroke-linejoin="round"/>
<path d="M17.7422 4.42969V6.9925M16.4629 5.71094H19.0257" stroke="black" stroke-width="1.5" stroke-linecap="round" stroke-linejoin="round"/>
<path d="M16.4629 10.2109H19.0257" stroke="black" stroke-width="1.5" stroke-linecap="round" stroke-linejoin="round"/>
<path fill-rule="evenodd" clip-rule="evenodd" d="M11.4491 15.9971C11.4491 16.8105 10.7894 17.4701 9.97601 17.4701C9.16163 17.4701 8.50195 16.8105 8.50195 15.9971C8.50195 15.1836 9.16129 14.5234 9.97566 14.5234C10.7891 14.5234 11.4491 15.1836 11.4491 15.9971Z" stroke="black" stroke-width="1.5" stroke-linecap="round" stroke-linejoin="round"/>
<path d="M9.97656 7.72656V14.5257" stroke="black" stroke-width="1.5" stroke-linecap="round" stroke-linejoin="round"/>
</svg>