<svg width="25" height="25" viewBox="0 0 25 25" fill="none" xmlns="http://www.w3.org/2000/svg">
<path opacity="0.4" d="M3.5 9.42896V7.85101C3.5 5.70201 5.24259 3.95898 7.39286 3.95898H8.68205" stroke="black" stroke-width="1.5" stroke-linecap="round" stroke-linejoin="round"/>
<path opacity="0.4" d="M3.5 16.4902V18.0672C3.5 20.2172 5.24259 21.9592 7.39286 21.9592H8.64994" stroke="black" stroke-width="1.5" stroke-linecap="round" stroke-linejoin="round"/>
<path opacity="0.4" d="M21.5004 16.4902V18.0672C21.5004 20.2172 19.7579 21.9592 17.6076 21.9592H16.3184" stroke="black" stroke-width="1.5" stroke-linecap="round" stroke-linejoin="round"/>
<path opacity="0.4" d="M21.4996 9.42896V7.85101C21.4996 5.70201 19.757 3.95898 17.6067 3.95898H16.3496" stroke="black" stroke-width="1.5" stroke-linecap="round" stroke-linejoin="round"/>
<path d="M8.38867 10.6967C9.20207 9.26672 10.7393 8.30273 12.5024 8.30273C13.1484 8.30273 13.7633 8.43175 14.3247 8.66675" stroke="black" stroke-width="1.5" stroke-linecap="round" stroke-linejoin="round"/>
<path d="M7.77148 16.5452V13.6152" stroke="black" stroke-width="1.5" stroke-linecap="round" stroke-linejoin="round"/>
<path d="M16.3672 10.3066C16.9111 11.0756 17.2303 12.0156 17.2303 13.0306V16.5426" stroke="black" stroke-width="1.5" stroke-linecap="round" stroke-linejoin="round"/>
<path d="M14.3232 17.6178V13.2048C14.3232 12.1758 13.4894 11.3418 12.46 11.3418C11.4315 11.3418 10.5977 12.1758 10.5977 13.2048V13.7048" stroke="black" stroke-width="1.5" stroke-linecap="round" stroke-linejoin="round"/>
<path d="M10.5977 17.6144V15.9395" stroke="black" stroke-width="1.5" stroke-linecap="round" stroke-linejoin="round"/>
</svg>