<svg width="25" height="25" viewBox="0 0 25 25" fill="none" xmlns="http://www.w3.org/2000/svg">
<path d="M14.3346 16.5515C13.8046 16.8895 13.1766 17.0875 12.5006 17.0875C10.6236 17.0875 9.10059 15.5645 9.10059 13.6855V10.8785C9.10059 9.00054 10.6236 7.47852 12.5006 7.47852C14.3796 7.47852 15.9016 9.00054 15.9016 10.8785V13.6855" stroke="black" stroke-width="1.5" stroke-linecap="round" stroke-linejoin="round"/>
<path d="M12.499 13.6288V11.0918" stroke="black" stroke-width="1.5" stroke-linecap="round" stroke-linejoin="round"/>
<path opacity="0.4" d="M3.49902 15.8145V17.3915C3.49902 19.5405 5.24203 21.2834 7.39203 21.2834H8.64899" stroke="black" stroke-width="1.5" stroke-linecap="round" stroke-linejoin="round"/>
<path opacity="0.4" d="M21.4994 15.8145V17.3915C21.4994 19.5405 19.7564 21.2834 17.6064 21.2834H16.3174" stroke="black" stroke-width="1.5" stroke-linecap="round" stroke-linejoin="round"/>
<path opacity="0.4" d="M3.49902 8.75226V7.17523C3.49902 5.02523 5.24203 3.2832 7.39203 3.2832H8.68103" stroke="black" stroke-width="1.5" stroke-linecap="round" stroke-linejoin="round"/>
<path opacity="0.4" d="M21.5005 8.75226V7.17523C21.5005 5.02523 19.7575 3.2832 17.6075 3.2832H16.3506" stroke="black" stroke-width="1.5" stroke-linecap="round" stroke-linejoin="round"/>
</svg>