<svg width="24" height="24" viewBox="0 0 24 24" fill="none" xmlns="http://www.w3.org/2000/svg">
<path fill-rule="evenodd" clip-rule="evenodd" d="M20.2309 13.2117C20.1585 14.2425 19.9472 15.0035 19.7225 15.4355C19.6826 15.5124 19.594 15.5475 19.5099 15.5266L13.9009 14.1317C13.5409 14.0517 13.2009 13.8717 12.9209 13.6317C12.6409 13.3917 12.4109 13.0817 12.2609 12.7417L11.6409 11.2817C11.5709 11.1317 11.5509 10.9717 11.5609 10.8017C11.5809 10.6417 11.6309 10.4917 11.7209 10.3517C11.8109 10.2217 11.9409 10.1117 12.0809 10.0317C12.2209 9.96169 12.3809 9.92169 12.5309 9.92169H12.5409L19.7223 10.0791C19.7954 10.0807 19.8624 10.1218 19.8916 10.1888C20.1444 10.7691 20.3153 11.8979 20.2309 13.2117ZM20.7609 8.81169C20.6209 8.68168 20.4309 8.60169 20.2409 8.59169L19.4209 8.57169C18.7909 7.14169 17.8009 5.91169 16.5409 4.99169C15.1309 3.96169 13.4609 3.38169 11.7109 3.30169C10.4809 3.26169 9.26085 3.47169 8.11085 3.91169C6.96085 4.36169 5.92085 5.02169 5.04085 5.88169C4.15085 6.75169 3.46085 7.76169 2.97085 8.90169C2.49085 10.0417 2.25085 11.2417 2.25085 12.4817C2.25085 14.4817 2.92085 16.4517 4.13085 18.0317C4.63085 18.6917 5.35085 19.1317 6.15085 19.2717L13.7709 20.6417C13.9709 20.6817 14.1809 20.7017 14.3809 20.7017C14.9909 20.7017 15.5909 20.5317 16.1109 20.1917C17.3609 19.3817 18.3909 18.2717 19.1209 16.9817L19.7209 17.1317C19.7809 17.1417 19.8409 17.1517 19.9009 17.1517C20.0609 17.1517 20.2209 17.1017 20.3609 16.9917C21.3809 16.2117 21.6509 14.3517 21.7209 13.3117C21.8309 11.7217 21.6409 9.71169 20.7609 8.81169Z" fill="black"/>
<path fill-rule="evenodd" clip-rule="evenodd" d="M13.2909 10.9618C13.0009 11.2618 13.0009 11.7318 13.2909 12.0218L13.3009 12.0318C13.4509 12.1818 13.6309 12.2518 13.8209 12.2518C14.0209 12.2518 14.2109 12.1818 14.3609 12.0318C14.6509 11.7418 14.6409 11.2618 14.3509 10.9618C14.0609 10.6718 13.5809 10.6718 13.2909 10.9618Z" fill="black"/>
</svg>