<svg width="24" height="24" viewBox="0 0 24 24" fill="none" xmlns="http://www.w3.org/2000/svg">
<path fill-rule="evenodd" clip-rule="evenodd" d="M7.18259 18.804L8.05459 17.53H15.9346L16.8066 18.804H7.18259ZM8.13859 14.06C7.61859 14.06 7.18859 13.64 7.18859 13.12C7.18859 12.6 7.61859 12.17 8.13859 12.17C8.65859 12.17 9.08859 12.6 9.08859 13.12C9.08859 13.64 8.65859 14.06 8.13859 14.06ZM15.8586 14.06C15.3386 14.06 14.9086 13.64 14.9086 13.12C14.9086 12.6 15.3386 12.17 15.8586 12.17C16.3786 12.17 16.8086 12.6 16.8086 13.12C16.8086 13.64 16.3786 14.06 15.8586 14.06ZM5.51124 9.88C5.32981 9.88 5.1899 9.7202 5.21387 9.54035L5.36859 8.38L5.66859 6.22C5.75859 5.53 6.09859 4.9 6.62859 4.45C7.14859 4 7.80859 3.75 8.49859 3.75H15.4986C16.1886 3.75 16.8586 4 17.3786 4.46C17.8986 4.91 18.2386 5.54 18.3286 6.22L18.6286 8.38L18.7833 9.54035C18.8073 9.7202 18.6674 9.88 18.4859 9.88H5.51124ZM19.6886 16.04C20.0986 15.56 20.3986 15.02 20.5686 14.42C20.7486 13.82 20.7986 13.21 20.7186 12.58L20.3486 9.88L20.1386 8.38L19.8186 6.02C19.6686 4.98 19.1586 4.02 18.3686 3.33C17.5686 2.64 16.5586 2.25 15.4986 2.25H8.48859C7.44859 2.25 6.43859 2.63 5.64859 3.31C4.84859 4.01 4.32859 4.97 4.18859 6.02L3.86859 8.38L3.65859 9.88L3.28859 12.58C3.19859 13.21 3.24859 13.83 3.41859 14.42C3.59859 15.03 3.89859 15.57 4.30859 16.04C4.71859 16.51 5.22859 16.89 5.78859 17.15C5.97859 17.23 6.16859 17.3 6.35859 17.35H6.35959L4.15059 20.577C3.91659 20.92 4.00459 21.386 4.34559 21.62C4.47559 21.709 4.62359 21.751 4.76959 21.751C5.00759 21.751 5.24359 21.637 5.38859 21.425L6.15559 20.304H17.8326L18.5996 21.425C18.7456 21.637 18.9806 21.751 19.2196 21.751C19.3656 21.751 19.5126 21.709 19.6426 21.62C19.9846 21.386 20.0716 20.92 19.8386 20.577L17.6286 17.35C17.8286 17.3 18.0186 17.23 18.2086 17.14C18.7786 16.88 19.2686 16.51 19.6886 16.04Z" fill="black"/>
</svg>