<svg width="24" height="24" viewBox="0 0 24 24" fill="none" xmlns="http://www.w3.org/2000/svg">
<path fill-rule="evenodd" clip-rule="evenodd" d="M10.4744 7.935C10.5734 8.005 10.6884 8.041 10.8104 8.042H13.1554C13.2734 8.041 13.3914 8.004 13.4864 7.936C13.5874 7.864 13.6604 7.768 13.7004 7.654L15.0946 2.75715C15.1491 2.56556 15.0053 2.375 14.8061 2.375H9.15697C8.9577 2.375 8.81381 2.56569 8.86849 2.75732L10.2774 7.695C10.3034 7.767 10.3764 7.865 10.4744 7.935Z" fill="black"/>
<path fill-rule="evenodd" clip-rule="evenodd" d="M7.1738 18.6778L8.2138 17.1588H15.7588L16.7988 18.6778H7.1738ZM8.2238 12.0448C8.7448 12.0448 9.1698 12.4698 9.1698 12.9908C9.1698 13.5118 8.7448 13.9358 8.2238 13.9358C7.7028 13.9358 7.2788 13.5118 7.2788 12.9908C7.2788 12.4698 7.7028 12.0448 8.2238 12.0448ZM15.9428 12.0448C16.4648 12.0448 16.8888 12.4698 16.8888 12.9908C16.8888 13.5118 16.4648 13.9358 15.9428 13.9358C15.4218 13.9358 14.9978 13.5118 14.9978 12.9908C14.9978 12.4698 15.4218 12.0448 15.9428 12.0448ZM19.4958 15.7478C19.8828 15.3038 20.1648 14.7918 20.3358 14.2238C20.5038 13.6598 20.5488 13.0768 20.4688 12.4918L19.5688 5.92775C19.4348 4.94475 18.9488 4.04275 18.2008 3.38875C17.8429 3.07686 17.4339 2.84041 16.9974 2.67279C16.8404 2.61249 16.6699 2.70572 16.6238 2.86745L15.1298 8.10675C14.9738 8.55775 14.7108 8.90675 14.3558 9.15775C14.0088 9.40675 13.5938 9.54075 13.1578 9.54175H10.8078C10.3688 9.54075 9.9538 9.40675 9.6038 9.15575C9.2538 8.90675 8.9918 8.55875 8.8488 8.15075L7.34162 2.87656C7.29517 2.71402 7.12321 2.62096 6.9659 2.68283C6.54699 2.8476 6.15272 3.07623 5.8068 3.37575C5.0498 4.02975 4.5588 4.93575 4.4228 5.92775L3.5328 12.4908C3.4508 13.0768 3.4948 13.6608 3.6618 14.2268C3.8318 14.7938 4.1138 15.3068 4.5018 15.7528C4.8848 16.1918 5.3668 16.5508 5.8968 16.7928C6.0948 16.8818 6.3018 16.9378 6.5078 16.9948L4.1418 20.4508C3.9078 20.7928 3.9948 21.2598 4.3368 21.4938C4.4668 21.5828 4.6138 21.6248 4.7598 21.6248C4.9988 21.6248 5.2338 21.5108 5.3798 21.2988L6.1468 20.1778H17.8248L18.5918 21.2988C18.7368 21.5108 18.9728 21.6248 19.2118 21.6248C19.3568 21.6248 19.5048 21.5828 19.6348 21.4938C19.9768 21.2608 20.0628 20.7938 19.8298 20.4518L17.4678 16.9998C17.6828 16.9418 17.8968 16.8818 18.1028 16.7878C18.6408 16.5418 19.1088 16.1918 19.4958 15.7478Z" fill="black"/>
</svg>