<svg width="24" height="24" viewBox="0 0 24 24" fill="none" xmlns="http://www.w3.org/2000/svg">
<path d="M17.5397 15.9911C16.811 17.5663 15.6541 18.5869 14.3601 18.5869C12.7275 18.5869 11.3177 16.9923 10.695 14.7175C10.4614 13.8817 10.3359 12.9681 10.3359 11.9952C10.3359 11.0329 10.4614 10.1096 10.695 9.27281C11.3177 6.99804 12.7275 5.41309 14.3601 5.41309C15.6629 5.41309 16.8207 6.42399 17.5495 8.00894" stroke="black" stroke-width="1.5" stroke-linecap="round" stroke-linejoin="round"/>
<path d="M6.38881 13.1952H4.19966C3.53513 13.1952 3 12.6591 3 12.0034C3 11.3388 3.53513 10.8037 4.19966 10.8037H6.38881" stroke="black" stroke-width="1.5" stroke-linecap="round" stroke-linejoin="round"/>
<path d="M14.3569 5.41504H10.3357C8.11443 5.41504 6.31445 8.3631 6.31445 12C6.31445 15.636 8.11443 18.584 10.3357 18.584H14.3569" stroke="black" stroke-width="1.5" stroke-linecap="round" stroke-linejoin="round"/>
<path fill-rule="evenodd" clip-rule="evenodd" d="M14.3398 12.0005C14.3398 11.3428 14.873 10.8096 15.5307 10.8096H19.804C20.4646 10.8096 20.9997 11.3437 20.9997 11.9956C20.9997 12.6562 20.4646 13.1914 19.804 13.1914H15.5307C14.873 13.1914 14.3398 12.6582 14.3398 12.0005Z" stroke="black" stroke-width="1.5" stroke-linecap="round" stroke-linejoin="round"/>
</svg>