<svg width="24" height="24" viewBox="0 0 24 24" fill="none" xmlns="http://www.w3.org/2000/svg">
<path fill-rule="evenodd" clip-rule="evenodd" d="M4.83742 4.91979C4.16027 5.64617 3.75 6.70897 3.75 8.02638V15.9736C3.75 17.2914 4.15861 18.3541 4.83451 19.0802C5.50475 19.8003 6.49341 20.25 7.78216 20.25H16.2169C17.5062 20.25 18.4951 19.8002 19.1654 19.0802C19.8414 18.3541 20.25 17.2914 20.25 15.9736V10.0803C20.25 9.64913 20.0835 9.23514 19.785 8.92458L15.3103 4.26305C14.9954 3.93539 14.5601 3.75 14.1055 3.75H7.78216C6.49817 3.75 5.50912 4.19926 4.83742 4.91979ZM3.74023 3.89696C4.72477 2.84085 6.1268 2.25 7.78216 2.25H14.1055C14.9683 2.25 15.794 2.6017 16.3918 3.22365L20.8665 7.88515C20.8664 7.88504 20.8666 7.88526 20.8665 7.88515C21.4337 8.47553 21.75 9.26238 21.75 10.0803V15.9736C21.75 17.601 21.2416 19.0515 20.2633 20.1023C19.2793 21.1592 17.8766 21.75 16.2169 21.75H7.78216C6.1228 21.75 4.72038 21.1591 3.73657 20.1023C2.75842 19.0515 2.25 17.601 2.25 15.9736V8.02638C2.25 6.39762 2.76114 4.94723 3.74023 3.89696Z" fill="black"/>
<path fill-rule="evenodd" clip-rule="evenodd" d="M6.22461 15.0859C6.22461 13.7211 7.33099 12.6147 8.6958 12.6147C10.0606 12.6147 11.167 13.7211 11.167 15.0859C11.167 16.4507 10.0606 17.5571 8.6958 17.5571C7.33099 17.5571 6.22461 16.4507 6.22461 15.0859ZM8.6958 14.1147C8.15942 14.1147 7.72461 14.5496 7.72461 15.0859C7.72461 15.6223 8.15942 16.0571 8.6958 16.0571C9.23218 16.0571 9.66699 15.6223 9.66699 15.0859C9.66699 14.5496 9.23218 14.1147 8.6958 14.1147Z" fill="black"/>
<path fill-rule="evenodd" clip-rule="evenodd" d="M6.22461 7.47852C6.22461 7.0643 6.5604 6.72852 6.97461 6.72852H13.8603C14.2746 6.72852 14.6103 7.0643 14.6103 7.47852C14.6103 7.89273 14.2746 8.22852 13.8603 8.22852H6.97461C6.5604 8.22852 6.22461 7.89273 6.22461 7.47852Z" fill="black"/>
</svg>
