<svg width="24" height="24" viewBox="0 0 24 24" fill="none" xmlns="http://www.w3.org/2000/svg">
<path fill-rule="evenodd" clip-rule="evenodd" d="M7.49442 13.8147C7.90863 13.8147 8.24442 14.1505 8.24442 14.5647V18.3127C8.24442 19.0391 8.83422 19.6284 9.56982 19.6284H14.5516C15.2443 19.6284 15.8104 19.0968 15.8606 18.4269C15.8916 18.0139 16.2515 17.7041 16.6646 17.7351C17.0776 17.766 17.3874 18.126 17.3564 18.539C17.247 19.998 16.0228 21.1284 14.5516 21.1284H9.56982C8.01499 21.1284 6.74442 19.8767 6.74442 18.3127V14.5647C6.74442 14.1505 7.0802 13.8147 7.49442 13.8147Z" fill="black"/>
<path fill-rule="evenodd" clip-rule="evenodd" d="M5.85147 6.73413C6.01122 7.1163 5.83092 7.55561 5.44875 7.71536C4.5155 8.10548 3.86133 9.02164 3.86133 10.0825V14.0718C3.86133 15.482 5.00158 16.6222 6.41174 16.6222H7.45869C7.8729 16.6222 8.20869 16.958 8.20869 17.3722C8.20869 17.7864 7.8729 18.1222 7.45869 18.1222H6.41174C4.17315 18.1222 2.36133 16.3104 2.36133 14.0718V10.0825C2.36133 8.38782 3.40601 6.94349 4.87023 6.33141C5.2524 6.17166 5.69171 6.35196 5.85147 6.73413Z" fill="black"/>
<path fill-rule="evenodd" clip-rule="evenodd" d="M5.87695 14.5645C5.87695 14.1502 6.21274 13.8145 6.62695 13.8145H12.6917C13.1059 13.8145 13.4417 14.1502 13.4417 14.5645C13.4417 14.9787 13.1059 15.3145 12.6917 15.3145H6.62695C6.21274 15.3145 5.87695 14.9787 5.87695 14.5645Z" fill="black"/>
<path fill-rule="evenodd" clip-rule="evenodd" d="M2.46967 4.33686C2.76256 4.04396 3.23744 4.04396 3.53033 4.33686L19.4943 20.3009C19.7872 20.5937 19.7872 21.0686 19.4943 21.3615C19.2014 21.6544 18.7266 21.6544 18.4337 21.3615L2.46967 5.39752C2.17678 5.10462 2.17678 4.62975 2.46967 4.33686Z" fill="black"/>
<path fill-rule="evenodd" clip-rule="evenodd" d="M14.1758 10.334C14.1758 9.91977 14.5116 9.58398 14.9258 9.58398H16.6169C17.0311 9.58398 17.3669 9.91977 17.3669 10.334C17.3669 10.7482 17.0311 11.084 16.6169 11.084H14.9258C14.5116 11.084 14.1758 10.7482 14.1758 10.334Z" fill="black"/>
<path fill-rule="evenodd" clip-rule="evenodd" d="M9.98715 6.7832C9.98715 6.36899 10.3229 6.0332 10.7372 6.0332H17.691C19.9286 6.0332 21.7502 7.85375 21.7502 10.0846V14.0739C21.7502 15.2845 21.2107 16.373 20.3657 17.1082C20.0532 17.3801 19.5795 17.3472 19.3076 17.0347C19.0357 16.7222 19.0687 16.2485 19.3812 15.9766C19.9139 15.513 20.2502 14.8307 20.2502 14.0739V10.0846C20.2502 8.68419 19.1022 7.5332 17.691 7.5332H10.7372C10.3229 7.5332 9.98715 7.19742 9.98715 6.7832Z" fill="black"/>
<path fill-rule="evenodd" clip-rule="evenodd" d="M9.56929 3.91992C9.03711 3.91992 8.58131 4.22807 8.37061 4.67799C8.19493 5.0531 7.74843 5.21478 7.37332 5.03911C6.9982 4.86343 6.83652 4.41693 7.01219 4.04181C7.46313 3.07894 8.43959 2.41992 9.56929 2.41992H14.552C16.0999 2.41992 17.3677 3.6753 17.3677 5.23657V6.78364C17.3677 7.19785 17.0319 7.53364 16.6177 7.53364C16.2035 7.53364 15.8677 7.19785 15.8677 6.78364V5.23657C15.8677 4.5074 15.2751 3.91992 14.552 3.91992H9.56929Z" fill="black"/>
</svg>
