<svg width="24" height="24" viewBox="0 0 24 24" fill="none" xmlns="http://www.w3.org/2000/svg">
<path d="M18.3818 17.8588L5.62676 17.8508C5.16936 17.8633 4.71438 17.7803 4.29083 17.6071C3.86729 17.434 3.48445 17.1745 3.16674 16.8452C2.84903 16.5159 2.60341 16.1241 2.44553 15.6946C2.28765 15.2651 2.22097 14.8075 2.24976 14.3508V10.8948C2.22081 10.438 2.2874 9.98024 2.44528 9.55063C2.60317 9.12103 2.84888 8.72904 3.16673 8.39971C3.48459 8.07038 3.8676 7.81092 4.29134 7.6379C4.71508 7.46488 5.17023 7.3821 5.62776 7.39483H10.0998C10.2987 7.39483 10.4894 7.47384 10.6301 7.61449C10.7707 7.75514 10.8498 7.94591 10.8498 8.14483C10.8498 8.34374 10.7707 8.53451 10.6301 8.67516C10.4894 8.81581 10.2987 8.89483 10.0998 8.89483H5.62776C5.3671 8.88186 5.10674 8.92574 4.86472 9.02341C4.62271 9.12108 4.40482 9.2702 4.22618 9.46045C4.04753 9.65071 3.91239 9.87754 3.83013 10.1252C3.74786 10.3729 3.72044 10.6355 3.74976 10.8948V14.3508C3.72044 14.6101 3.74786 14.8728 3.83013 15.1204C3.91239 15.3681 4.04753 15.5949 4.22618 15.7852C4.40482 15.9754 4.62271 16.1246 4.86472 16.2222C5.10674 16.3199 5.3671 16.3638 5.62776 16.3508L18.3818 16.3588C18.6428 16.3706 18.9033 16.3253 19.1451 16.2262C19.3869 16.1271 19.6043 15.9766 19.782 15.785C19.9598 15.5935 20.0937 15.3655 20.1745 15.117C20.2553 14.8684 20.2809 14.6053 20.2498 14.3458V10.8898C20.2789 10.6314 20.2517 10.3697 20.17 10.1227C20.0883 9.8758 19.9541 9.64951 19.7766 9.45943C19.599 9.26935 19.3824 9.12 19.1416 9.02167C18.9008 8.92334 18.6416 8.87836 18.3818 8.88982H17.7508C17.5518 8.88982 17.3611 8.81081 17.2204 8.67016C17.0798 8.5295 17.0008 8.33873 17.0008 8.13982C17.0008 7.94091 17.0798 7.75014 17.2204 7.60949C17.3611 7.46883 17.5518 7.38982 17.7508 7.38982H18.3818C18.8387 7.37774 19.2931 7.46105 19.716 7.63443C20.1389 7.80782 20.521 8.06747 20.8379 8.39681C21.1548 8.72615 21.3996 9.11795 21.5566 9.5472C21.7136 9.97645 21.7794 10.4337 21.7498 10.8898V14.3458C21.7803 14.8028 21.7153 15.261 21.5588 15.6914C21.4023 16.1218 21.1578 16.5149 20.8409 16.8454C20.5239 17.176 20.1416 17.4369 19.7181 17.6114C19.2947 17.7858 18.8396 17.8701 18.3818 17.8588Z" fill="black"/>
<path d="M5.49956 19.238C5.36451 19.2383 5.23191 19.2021 5.11578 19.1331C4.99965 19.0642 4.90431 18.9652 4.83985 18.8465C4.77539 18.7279 4.74422 18.594 4.74962 18.4591C4.75503 18.3241 4.79682 18.1932 4.87056 18.08L5.77056 16.695C5.8242 16.6124 5.89359 16.5412 5.97476 16.4854C6.05593 16.4296 6.14729 16.3904 6.24363 16.3699C6.33998 16.3494 6.43941 16.3481 6.53625 16.3661C6.6331 16.384 6.72546 16.4209 6.80806 16.4745C6.89066 16.5282 6.96188 16.5976 7.01767 16.6787C7.07345 16.7599 7.1127 16.8513 7.13318 16.9476C7.15365 17.044 7.15495 17.1434 7.137 17.2402C7.11905 17.3371 7.0822 17.4294 7.02855 17.512L6.12855 18.896C6.06066 19.0011 5.96752 19.0874 5.85763 19.1472C5.74775 19.2069 5.62463 19.2382 5.49956 19.238Z" fill="black"/>
<path d="M18.442 19.238C18.3169 19.2382 18.1938 19.2069 18.0839 19.1472C17.974 19.0874 17.8809 19.0011 17.813 18.896L16.913 17.512C16.8047 17.3452 16.767 17.1422 16.8084 16.9476C16.8497 16.753 16.9667 16.5829 17.1335 16.4745C17.3003 16.3662 17.5033 16.3286 17.6979 16.3699C17.8925 16.4113 18.0627 16.5282 18.171 16.695L19.071 18.08C19.1447 18.1932 19.1865 18.3241 19.1919 18.4591C19.1973 18.594 19.1662 18.7279 19.1017 18.8465C19.0372 18.9652 18.9419 19.0642 18.8258 19.1331C18.7096 19.2021 18.577 19.2383 18.442 19.238Z" fill="black"/>
<path d="M9.5842 14.8145H6.2002C6.00128 14.8145 5.81052 14.7354 5.66987 14.5948C5.52922 14.4541 5.4502 14.2634 5.4502 14.0645C5.4502 13.8655 5.52922 13.6748 5.66987 13.5341C5.81052 13.3935 6.00128 13.3145 6.2002 13.3145H9.5852C9.78411 13.3145 9.97488 13.3935 10.1155 13.5341C10.2562 13.6748 10.3352 13.8655 10.3352 14.0645C10.3352 14.2634 10.2562 14.4541 10.1155 14.5948C9.97488 14.7354 9.78411 14.8145 9.5852 14.8145H9.5842Z" fill="black"/>
<path d="M7.6152 12.209H6.2002C6.00128 12.209 5.81052 12.13 5.66987 11.9893C5.52922 11.8487 5.4502 11.6579 5.4502 11.459C5.4502 11.2601 5.52922 11.0693 5.66987 10.9286C5.81052 10.788 6.00128 10.709 6.2002 10.709H7.6162C7.81511 10.709 8.00588 10.788 8.14653 10.9286C8.28718 11.0693 8.3662 11.2601 8.3662 11.459C8.3662 11.6579 8.28718 11.8487 8.14653 11.9893C8.00588 12.13 7.81511 12.209 7.6162 12.209H7.6152Z" fill="black"/>
<path d="M13.9998 14.2437C13.0621 14.2437 12.1455 13.9657 11.3658 13.4447C10.5862 12.9238 9.97851 12.1833 9.61968 11.317C9.26084 10.4507 9.16696 9.49746 9.34989 8.57779C9.53282 7.65813 9.98436 6.81336 10.6474 6.15032C11.3104 5.48728 12.1552 5.03575 13.0749 4.85282C13.9945 4.66989 14.9478 4.76377 15.8141 5.12261C16.6804 5.48144 17.4208 6.08911 17.9418 6.86876C18.4627 7.64842 18.7408 8.56504 18.7408 9.50272C18.7392 10.7596 18.2392 11.9646 17.3504 12.8534C16.4617 13.7421 15.2567 14.2421 13.9998 14.2437ZM13.9998 6.26172C13.3588 6.26172 12.7322 6.4518 12.1992 6.80793C11.6662 7.16405 11.2508 7.67022 11.0055 8.26244C10.7602 8.85466 10.696 9.50631 10.8211 10.135C10.9461 10.7637 11.2548 11.3412 11.7081 11.7945C12.1613 12.2477 12.7388 12.5564 13.3675 12.6814C13.9962 12.8065 14.6479 12.7423 15.2401 12.497C15.8323 12.2517 16.3385 11.8363 16.6946 11.3033C17.0507 10.7703 17.2408 10.1437 17.2408 9.50272C17.2397 8.64348 16.8979 7.81972 16.2904 7.21215C15.6828 6.60457 14.859 6.26278 13.9998 6.26172Z" fill="black"/>
<path d="M13.9998 11.6227C13.5809 11.6227 13.1714 11.4985 12.8231 11.2658C12.4748 11.033 12.2034 10.7023 12.0431 10.3152C11.8828 9.92822 11.8408 9.50236 11.9225 9.09151C12.0043 8.68066 12.206 8.30328 12.5022 8.00707C12.7984 7.71086 13.1758 7.50914 13.5866 7.42742C13.9975 7.3457 14.4233 7.38763 14.8104 7.54793C15.1974 7.70824 15.5282 7.97972 15.7609 8.32802C15.9936 8.67633 16.1178 9.08582 16.1178 9.50472C16.1173 10.0663 15.894 10.6047 15.4969 11.0018C15.0998 11.3989 14.5614 11.6222 13.9998 11.6227ZM13.9998 8.88672C13.8776 8.88672 13.7581 8.92296 13.6565 8.99087C13.5549 9.05877 13.4756 9.1553 13.4289 9.26822C13.3821 9.38115 13.3699 9.5054 13.3937 9.62528C13.4176 9.74516 13.4764 9.85527 13.5628 9.9417C13.6493 10.0281 13.7594 10.087 13.8793 10.1108C13.9991 10.1347 14.1234 10.1224 14.2363 10.0757C14.3493 10.0289 14.4458 9.94969 14.5137 9.84806C14.5816 9.74643 14.6178 9.62695 14.6178 9.50472C14.6181 9.4234 14.6023 9.34281 14.5714 9.2676C14.5404 9.19239 14.4949 9.12403 14.4375 9.06643C14.3801 9.00883 14.3119 8.96313 14.2368 8.93195C14.1617 8.90077 14.0812 8.88471 13.9998 8.88471V8.88672Z" fill="black"/>
</svg>
