<svg width="25" height="24" viewBox="0 0 25 24" fill="none" xmlns="http://www.w3.org/2000/svg">
<path d="M14.2272 20.0668H17.7311C20.6101 20.0668 22.4004 18.0354 22.4004 15.1607V11.8223" stroke="black" stroke-width="1.5" stroke-linecap="round" stroke-linejoin="round"/>
<path d="M22.4004 8.48313C22.4004 5.60845 20.6101 3.57812 17.7322 3.57812H9.91143C7.86165 3.57812 6.35782 4.61491 5.66699 6.2582" stroke="black" stroke-width="1.5" stroke-linecap="round" stroke-linejoin="round"/>
<path d="M18.2076 16.6953H15.8691" stroke="black" stroke-width="1.5" stroke-linecap="round" stroke-linejoin="round"/>
<path d="M2.40039 20.4211C2.40039 19.0395 3.49123 17.3184 6.63294 17.3184C9.77573 17.3184 10.8655 19.0265 10.8655 20.4093" stroke="black" stroke-width="1.5" stroke-linecap="round" stroke-linejoin="round"/>
<path d="M3.9292 12.0563C3.9292 13.5493 5.14004 14.7602 6.63306 14.7602C8.12607 14.7602 9.33692 13.5493 9.33692 12.0563C9.33692 10.5633 8.12607 9.35352 6.63306 9.35352C6.08528 9.35352 5.57548 9.51637 5.14953 9.79631" stroke="black" stroke-width="1.5" stroke-linecap="round" stroke-linejoin="round"/>
</svg>