<svg width="25" height="24" viewBox="0 0 25 24" fill="none" xmlns="http://www.w3.org/2000/svg">
<path d="M12.4 20.4991H17.4796C18.9959 20.4991 19.9084 19.5135 19.9815 18.1407C19.9906 16.5884 19.0515 15.2536 17.4272 14.6772C16.1388 14.22 14.4193 15.2886 12.4 15.2694C10.3779 15.2838 8.65767 14.2137 7.36944 14.6734C5.75433 15.2498 4.81836 16.5862 4.81836 18.1407C4.88334 19.5135 5.80126 20.4991 7.32028 20.4991H9.37676" stroke="black" stroke-width="1.5" stroke-miterlimit="10" stroke-linecap="round"/>
<path d="M16.4721 7.56417C16.4721 9.80875 14.6525 11.6283 12.4079 11.6283C10.1633 11.6283 8.34375 9.80875 8.34375 7.56417C8.34375 5.31959 10.1633 3.5 12.4079 3.5C13.569 3.5 14.6164 3.98689 15.357 4.76764" stroke="black" stroke-width="1.5" stroke-miterlimit="10" stroke-linecap="round"/>
</svg>