<svg width="25" height="24" viewBox="0 0 25 24" fill="none" xmlns="http://www.w3.org/2000/svg">
<path d="M21.4004 12C21.4004 16.9699 17.3713 21 12.4004 21C7.42947 21 3.40039 16.9699 3.40039 12C3.40039 7.02908 7.42947 3 12.4004 3C16.1388 3 19.3444 5.27875 20.7043 8.52312" stroke="black" stroke-width="1.5" stroke-linecap="round" stroke-linejoin="round"/>
<path d="M7.25244 19.3744C7.45677 17.7884 8.86758 16.0273 12.3703 16.0273C15.9119 16.0273 17.313 17.7982 17.5076 19.4036" stroke="black" stroke-width="1.5" stroke-linecap="round" stroke-linejoin="round"/>
<path d="M9.07666 10.3267C9.07666 12.1471 10.5527 13.6222 12.3731 13.6222C14.1935 13.6222 15.6686 12.1471 15.6686 10.3267C15.6686 8.50628 14.1935 7.03125 12.3731 7.03125C11.633 7.03125 10.9499 7.27501 10.3997 7.68665" stroke="black" stroke-width="1.5" stroke-linecap="round" stroke-linejoin="round"/>
</svg>