<svg width="25" height="24" viewBox="0 0 25 24" fill="none" xmlns="http://www.w3.org/2000/svg">
<path d="M21.3981 15.5312V17.1084C21.3981 19.2576 19.6556 21.0001 17.5054 21.0001H16.2163" stroke="black" stroke-width="1.5" stroke-linecap="round" stroke-linejoin="round"/>
<path d="M3.40088 15.5312V17.1084C3.40088 19.2576 5.14339 21.0001 7.29356 21.0001H8.55058" stroke="black" stroke-width="1.5" stroke-linecap="round" stroke-linejoin="round"/>
<path d="M3.40088 8.46979V6.89268C3.40088 4.74251 5.14339 3 7.29356 3H8.58269" stroke="black" stroke-width="1.5" stroke-linecap="round" stroke-linejoin="round"/>
<path d="M12.3993 6.81836C11.0819 6.81836 10.0137 7.88663 10.0137 9.20397C10.0137 10.5213 11.0819 11.5896 12.3993 11.5896C13.7166 11.5896 14.7849 10.5213 14.7849 9.20397C14.7849 8.77058 14.6693 8.36415 14.4672 8.01384" stroke="black" stroke-width="1.5" stroke-linecap="round" stroke-linejoin="round"/>
<path d="M14.8997 16.7314C15.6525 16.508 16.1347 16.1187 16.1347 15.4728C16.1347 14.2537 14.4252 13.9375 12.3996 13.9375C10.3837 13.9375 8.66455 14.242 8.66455 15.4621C8.66455 16.6137 10.1876 16.9592 12.062 16.9943" stroke="black" stroke-width="1.5" stroke-linecap="round" stroke-linejoin="round"/>
<path d="M21.4002 8.46979V6.89268C21.4002 4.74251 19.6577 3 17.5075 3H16.2505" stroke="black" stroke-width="1.5" stroke-linecap="round" stroke-linejoin="round"/>
</svg>