<svg width="25" height="24" viewBox="0 0 25 24" fill="none" xmlns="http://www.w3.org/2000/svg">
<path d="M21.3634 11.1787C21.3877 11.4492 21.4004 11.7236 21.4004 11.9999C21.4004 16.9708 17.3713 20.9999 12.4004 20.9999C8.54325 20.9999 5.25318 18.5741 3.97247 15.1647" stroke="black" stroke-width="1.5" stroke-linecap="round" stroke-linejoin="round"/>
<path d="M3.40039 12C3.40039 7.03005 7.42947 3 12.4004 3C12.7799 3 13.1544 3.02432 13.5222 3.07005" stroke="black" stroke-width="1.5" stroke-linecap="round" stroke-linejoin="round"/>
<path d="M9.83887 11.9652C9.83887 13.3799 10.986 14.527 12.4007 14.527C13.8154 14.527 14.9625 13.3799 14.9625 11.9652C14.9625 10.5505 13.8154 9.4043 12.4007 9.4043C12.0313 9.4043 11.6802 9.48243 11.363 9.62306" stroke="black" stroke-width="1.5" stroke-linecap="round" stroke-linejoin="round"/>
<path d="M7.97461 19.839C8.15072 18.47 9.36888 16.9502 12.3919 16.9502C15.448 16.9502 16.6574 18.4787 16.8257 19.8642" stroke="black" stroke-width="1.5" stroke-linecap="round" stroke-linejoin="round"/>
<path d="M20.6483 4.24425L17.4287 7.46479M20.6793 7.49765L17.3945 4.21289" stroke="black" stroke-width="1.5" stroke-linecap="round" stroke-linejoin="round"/>
</svg>