<svg width="25" height="24" viewBox="0 0 25 24" fill="none" xmlns="http://www.w3.org/2000/svg">
<path d="M21.4004 12.3866V15.9736C21.4004 18.9188 19.5654 21 16.6163 21H8.18255C5.23444 21 3.40039 18.9188 3.40039 15.9736V8.02638C3.40039 5.08119 5.2432 3 8.18255 3H16.6173C19.5654 3 21.4004 5.08119 21.4004 8.02638V9.16303" stroke="black" stroke-width="1.5" stroke-linecap="round" stroke-linejoin="round"/>
<path d="M7.23926 20.9212V20.0163C7.23926 18.3331 8.57223 16.2314 12.396 16.2314C16.2295 16.2314 17.5625 18.3136 17.5625 19.9968V20.9212" stroke="black" stroke-width="1.5" stroke-linecap="round" stroke-linejoin="round"/>
<path d="M9.10352 10.5269C9.10352 12.3473 10.5795 13.8224 12.3999 13.8224C14.2204 13.8224 15.6954 12.3473 15.6954 10.5269C15.6954 8.70647 14.2204 7.23145 12.3999 7.23145C11.5265 7.23145 10.7323 7.57103 10.1424 8.12541" stroke="black" stroke-width="1.5" stroke-linecap="round" stroke-linejoin="round"/>
</svg>