<svg width="25" height="24" viewBox="0 0 25 24" fill="none" xmlns="http://www.w3.org/2000/svg">
<path d="M5.17578 8.71591C5.17578 11.2881 7.26093 13.3732 9.8331 13.3732C12.4053 13.3732 14.4904 11.2881 14.4904 8.71591C14.4904 6.14375 12.4053 4.05859 9.8331 4.05859C8.44572 4.05859 7.20003 4.66523 6.34682 5.62772" stroke="black" stroke-width="1.5" stroke-linecap="round" stroke-linejoin="round"/>
<path d="M15.8945 4.375C18.162 4.74391 19.8928 6.71134 19.8928 9.08302C19.8928 9.81008 19.7302 10.4991 19.4392 11.1158" stroke="black" stroke-width="1.5" stroke-linecap="round" stroke-linejoin="round"/>
<path d="M16.3054 19.9407C16.4152 19.3084 16.3698 18.6531 16.3698 18.0144C16.3698 15.6075 14.4186 13.6562 12.0116 13.6562H7.76785C5.36089 13.6562 3.40967 15.6075 3.40967 18.0144C3.40967 18.6531 3.36431 19.3084 3.47414 19.9407" stroke="black" stroke-width="1.5" stroke-linecap="round" stroke-linejoin="round"/>
<path d="M16.9277 13.5039C19.393 13.5039 21.3915 15.5024 21.3915 17.9677C21.3915 18.6218 21.438 19.293 21.3255 19.9406" stroke="black" stroke-width="1.5" stroke-linecap="round" stroke-linejoin="round"/>
</svg>