<svg width="24" height="24" viewBox="0 0 24 24" fill="none" xmlns="http://www.w3.org/2000/svg">
<path d="M18.132 14.2498H5.90103C5.23083 14.2498 4.58807 13.9836 4.11417 13.5096C3.64026 13.0357 3.37402 12.393 3.37402 11.7228C3.37402 11.0526 3.64026 10.4099 4.11417 9.93598C4.58807 9.46207 5.23083 9.1958 5.90103 9.1958H7.63202C7.82274 9.19593 8.01135 9.15554 8.1853 9.07733C8.35926 8.99912 8.51459 8.88488 8.64108 8.74213C8.76757 8.59938 8.8623 8.43137 8.91901 8.24927C8.97571 8.06717 8.99311 7.87512 8.97003 7.68579L8.72205 5.63782C8.70708 5.20048 8.77954 4.76451 8.93518 4.35553C9.09082 3.94655 9.32649 3.57279 9.62842 3.25605C9.93035 2.9393 10.2924 2.68596 10.6935 2.51093C11.0946 2.33589 11.5266 2.24262 11.9641 2.23664C12.4017 2.23065 12.836 2.31208 13.2417 2.47608C13.6474 2.64007 14.0163 2.88335 14.3268 3.19171C14.6373 3.50008 14.8831 3.86728 15.0499 4.27185C15.2167 4.67642 15.301 5.11021 15.298 5.54779L15.048 7.69879C15.026 7.88718 15.0441 8.07809 15.1012 8.25898C15.1582 8.43986 15.2529 8.60667 15.379 8.74835C15.5051 8.89004 15.6597 9.00342 15.8328 9.08106C16.0058 9.1587 16.1934 9.19881 16.383 9.19879V9.19879H18.121H18.126C18.7871 9.21195 19.4167 9.48381 19.8796 9.956C20.3425 10.4282 20.6018 11.0631 20.6018 11.7243C20.6018 12.3855 20.3425 13.0204 19.8796 13.4926C19.4167 13.9648 18.7871 14.2367 18.126 14.2498H18.132ZM5.90002 10.6958C5.62765 10.6958 5.36643 10.804 5.17383 10.9966C4.98123 11.1892 4.87302 11.4504 4.87302 11.7228C4.87302 11.9952 4.98123 12.2564 5.17383 12.449C5.36643 12.6416 5.62765 12.7498 5.90002 12.7498H18.132C18.404 12.7496 18.6649 12.6414 18.8572 12.449C19.0496 12.2567 19.1578 11.9958 19.158 11.7238C19.1578 11.4521 19.0497 11.1915 18.8575 10.9993C18.6653 10.8072 18.4048 10.6991 18.133 10.6988V10.6988H16.394H16.389C15.9874 10.6987 15.5903 10.6136 15.2239 10.449C14.8576 10.2845 14.5302 10.0441 14.2634 9.7439C13.9966 9.44367 13.7965 9.09033 13.6761 8.70716C13.5557 8.32398 13.5179 7.91968 13.565 7.52082L13.81 5.45679C13.7833 4.99159 13.5768 4.55501 13.2341 4.23932C12.8913 3.92364 12.4393 3.75364 11.9734 3.7652C11.5076 3.77676 11.0646 3.96898 10.7379 4.30127C10.4113 4.63356 10.2266 5.07983 10.223 5.54578L10.465 7.50281C10.5137 7.90276 10.477 8.30849 10.3572 8.69318C10.2374 9.07786 10.0374 9.43276 9.77023 9.73438C9.50311 10.036 9.175 10.2775 8.80762 10.4429C8.44023 10.6083 8.04194 10.6938 7.63904 10.6938L5.90002 10.6958Z" fill="black"/>
<path d="M9.75326 21.7568C9.39047 21.7553 9.03879 21.6316 8.75488 21.4057C8.47097 21.1798 8.27137 20.8649 8.18826 20.5118C7.93926 20.8947 7.59832 21.2092 7.19656 21.4265C6.7948 21.6438 6.34503 21.757 5.88827 21.7558H5.88028C5.44482 21.7703 5.00891 21.7623 4.57428 21.7318H4.56726L4.52526 21.7208C4.29567 21.6627 4.0831 21.5509 3.90496 21.3948C3.72683 21.2387 3.58819 21.0427 3.50039 20.8228C3.4126 20.6028 3.37817 20.3651 3.39987 20.1293C3.42157 19.8934 3.49881 19.6661 3.62527 19.4658C4.2686 18.4628 4.58544 17.2852 4.53225 16.0948V13.5078C4.53225 13.3089 4.61127 13.1181 4.75192 12.9775C4.89257 12.8368 5.08334 12.7578 5.28225 12.7578C5.48117 12.7578 5.67193 12.8368 5.81259 12.9775C5.95324 13.1181 6.03225 13.3089 6.03225 13.5078V16.0648C6.09217 17.5368 5.70221 18.9921 4.91427 20.2368C4.9272 20.24 4.9392 20.2461 4.94928 20.2548H5.87127C6.08272 20.2567 6.29118 20.2048 6.47699 20.1038C6.66279 20.0029 6.8198 19.8562 6.93325 19.6778L8.10925 17.8298C8.19374 17.6968 8.31799 17.5938 8.46435 17.5353C8.61072 17.4769 8.77178 17.4661 8.92465 17.5044C9.07751 17.5427 9.21441 17.6282 9.31594 17.7487C9.41748 17.8692 9.47847 18.0186 9.49026 18.1758L9.64025 20.1508C9.64039 20.1647 9.64326 20.1785 9.64871 20.1913C9.65416 20.2041 9.66209 20.2157 9.67202 20.2255C9.68196 20.2352 9.69372 20.2429 9.70663 20.2481C9.71954 20.2533 9.73333 20.2559 9.74725 20.2558H11.7693H19.1043C18.3184 18.9926 17.9309 17.5222 17.9923 16.0358V13.5098C17.9923 13.3109 18.0713 13.1201 18.2119 12.9795C18.3526 12.8388 18.5434 12.7598 18.7423 12.7598C18.9412 12.7598 19.1319 12.8388 19.2726 12.9795C19.4132 13.1201 19.4923 13.3109 19.4923 13.5098V16.0668C19.432 17.2475 19.7364 18.4181 20.3643 19.4198C20.5043 19.6277 20.5914 19.8666 20.6181 20.1158C20.6447 20.3651 20.6101 20.617 20.5173 20.8498C20.4231 21.0715 20.2774 21.2676 20.0921 21.4215C19.9068 21.5755 19.6875 21.6829 19.4523 21.7348C19.3523 21.7568 19.3523 21.7568 11.7703 21.7588L9.75326 21.7568Z" fill="black"/>
<path d="M12.0146 6.34571C11.9164 6.34624 11.8191 6.32736 11.7281 6.29017C11.6372 6.25298 11.5546 6.1982 11.4849 6.12898C11.4152 6.05976 11.3599 5.97744 11.3221 5.88679C11.2843 5.79613 11.2648 5.69894 11.2646 5.60072V5.59071C11.2656 5.44259 11.3105 5.29804 11.3935 5.17536C11.4765 5.05269 11.594 4.95738 11.7311 4.90138C11.8682 4.84538 12.0188 4.83123 12.164 4.86073C12.3092 4.89023 12.4423 4.96206 12.5467 5.06715C12.6511 5.17223 12.722 5.30583 12.7506 5.45118C12.7791 5.59653 12.764 5.74711 12.7071 5.88386C12.6502 6.02061 12.554 6.13742 12.4308 6.21961C12.3076 6.30181 12.1628 6.34571 12.0146 6.34571Z" fill="black"/>
</svg>
