<svg width="24" height="24" viewBox="0 0 24 24" fill="none" xmlns="http://www.w3.org/2000/svg">
<path fill-rule="evenodd" clip-rule="evenodd" d="M6.49978 3.75C4.9807 3.75 3.75 4.9807 3.75 6.49978V17.5002C3.75 19.0193 4.9807 20.25 6.49978 20.25C8.01887 20.25 9.24957 19.0193 9.24957 17.5002V6.49978C9.24957 4.9807 8.01887 3.75 6.49978 3.75ZM2.25 6.49978C2.25 4.15227 4.15227 2.25 6.49978 2.25C8.84729 2.25 10.7496 4.15227 10.7496 6.49978V17.5002C10.7496 19.8477 8.84729 21.75 6.49978 21.75C4.15227 21.75 2.25 19.8477 2.25 17.5002V6.49978Z" fill="black"/>
<path fill-rule="evenodd" clip-rule="evenodd" d="M2.25 14.002C2.25 13.5877 2.58579 13.252 3 13.252H9.99957C10.4138 13.252 10.7496 13.5877 10.7496 14.002C10.7496 14.4162 10.4138 14.752 9.99957 14.752H3C2.58579 14.752 2.25 14.4162 2.25 14.002Z" fill="black"/>
<path fill-rule="evenodd" clip-rule="evenodd" d="M2.25 9.11523C2.25 8.70102 2.58579 8.36523 3 8.36523H9.97622C10.3904 8.36523 10.7262 8.70102 10.7262 9.11523C10.7262 9.52945 10.3904 9.86523 9.97622 9.86523H3C2.58579 9.86523 2.25 9.52945 2.25 9.11523Z" fill="black"/>
<path fill-rule="evenodd" clip-rule="evenodd" d="M12.1447 5.84558C13.8045 4.18699 16.4956 4.18672 18.1547 5.84577C19.8146 7.50569 19.8146 10.197 18.1547 11.8569L9.50494 20.5066C9.21205 20.7995 8.73717 20.7995 8.44428 20.5066C8.15139 20.2138 8.15139 19.7389 8.44428 19.446L17.094 10.7963C18.1681 9.72213 18.1681 7.98057 17.094 6.90643C16.021 5.83347 14.2796 5.83311 13.2053 6.90634L10.5305 9.58201C10.2377 9.87496 9.76284 9.87505 9.46989 9.58221C9.17694 9.28937 9.17686 8.81449 9.4697 8.52155L12.1447 5.84558Z" fill="black"/>
<path fill-rule="evenodd" clip-rule="evenodd" d="M14.1999 14C14.1999 13.5858 14.5357 13.25 14.9499 13.25H17.5001C19.8476 13.25 21.7499 15.1523 21.7499 17.4998C21.7499 19.8473 19.8476 21.7496 17.5001 21.7496C17.5001 21.7496 17.5001 21.7496 17.5001 21.7496L6.50002 21.7499C6.08581 21.7499 5.75001 21.4141 5.75 20.9999C5.74999 20.5857 6.08576 20.2499 6.49998 20.2499L17.5001 20.2496C19.0192 20.2496 20.2499 19.0189 20.2499 17.4998C20.2499 15.9807 19.0192 14.75 17.5001 14.75H14.9499C14.5357 14.75 14.1999 14.4142 14.1999 14Z" fill="black"/>
<path fill-rule="evenodd" clip-rule="evenodd" d="M5.59961 17.5504C5.59961 17.0536 6.00228 16.6504 6.49957 16.6504C6.99627 16.6504 7.39963 17.053 7.39963 17.5504C7.39963 18.0478 6.99627 18.4504 6.49957 18.4504C6.00227 18.4504 5.59961 18.0472 5.59961 17.5504Z" fill="black"/>
</svg>
