<svg width="24" height="24" viewBox="0 0 24 24" fill="none" xmlns="http://www.w3.org/2000/svg">
<path fill-rule="evenodd" clip-rule="evenodd" d="M12.5354 3.65893C13.8098 2.38452 15.8754 2.38452 17.1498 3.65893L20.7942 7.30337C22.0686 8.57777 22.0686 10.6443 20.7942 11.9188L12.9311 19.7819L20.9934 19.7975C21.4076 19.7983 21.7427 20.1347 21.7419 20.5489C21.7411 20.9632 21.4047 21.2983 20.9905 21.2975L20.1779 21.2959C20.1621 21.2969 20.1462 21.2974 20.1302 21.2974H15.9475C15.9059 21.2974 15.865 21.294 15.8252 21.2875L8.06837 21.2725C7.17965 21.2711 6.32802 20.9161 5.70219 20.2849C5.70219 20.2849 5.70218 20.2849 5.70218 20.2849L3.2637 17.8256C3.26329 17.8252 3.26288 17.8248 3.26247 17.8244C1.9121 16.4727 1.91251 14.2818 3.2637 12.9306L12.5354 3.65893ZM10.8139 19.7778L19.7335 10.8581C20.4222 10.1695 20.4222 9.05265 19.7335 8.36403L16.0891 4.71959C15.4005 4.03097 14.2847 4.03097 13.5961 4.71959L4.32436 13.9913C3.55855 14.7571 3.55855 15.9991 4.32436 16.7649L4.32661 16.7672L6.76736 19.2288L6.76737 19.2288C7.11158 19.576 7.58046 19.7717 8.07064 19.7725L8.07096 19.7725L10.8139 19.7778Z" fill="black"/>
<path fill-rule="evenodd" clip-rule="evenodd" d="M7.82904 8.3642C8.12194 8.07131 8.59681 8.07131 8.88971 8.3642L16.0889 15.5634C16.3818 15.8563 16.3818 16.3311 16.0889 16.624C15.796 16.9169 15.3211 16.9169 15.0282 16.624L7.82904 9.42486C7.53615 9.13197 7.53615 8.65709 7.82904 8.3642Z" fill="black"/>
</svg>
