<svg width="24" height="24" viewBox="0 0 24 24" fill="none" xmlns="http://www.w3.org/2000/svg">
<path fill-rule="evenodd" clip-rule="evenodd" d="M8.33067 13.2595C8.494 12.8809 8.93227 12.7052 9.3119 12.866L12.2291 14.102C12.4145 14.1805 12.5605 14.3303 12.6343 14.5176C12.7081 14.7048 12.7035 14.9139 12.6216 15.0978L11.8131 16.9124C11.6925 17.1829 11.4241 17.3572 11.128 17.3572H7.70313C7.4507 17.3572 7.2152 17.2302 7.0765 17.0193C6.93779 16.8084 6.91449 16.5418 7.01449 16.31L8.33067 13.2595ZM9.41278 14.5378L8.84355 15.8572H10.6411L10.9405 15.1851L9.41278 14.5378Z" fill="black"/>
<path d="M16.216 21.7637H7.78198C4.47398 21.7637 2.25 19.4427 2.25 15.9877V8.03967C2.25 4.58467 4.47398 2.26367 7.78198 2.26367H16.217C19.526 2.26367 21.75 4.58467 21.75 8.03967V15.9877C21.75 19.4427 19.526 21.7637 16.216 21.7637ZM7.78198 3.76367C5.33298 3.76367 3.75 5.44267 3.75 8.03967V15.9877C3.75 18.5877 5.33298 20.2637 7.78198 20.2637H16.216C18.666 20.2637 20.25 18.5847 20.25 15.9877V8.03967C20.25 5.43967 18.667 3.76367 16.217 3.76367H7.78198Z" fill="black"/>
<path d="M11.9366 15.5555C11.8081 15.5551 11.6818 15.5218 11.5699 15.4587C11.4579 15.3956 11.3641 15.3048 11.2972 15.195C11.2304 15.0852 11.1929 14.9601 11.1882 14.8317C11.1836 14.7033 11.2119 14.5758 11.2706 14.4615C11.7318 13.4669 12.4191 12.5939 13.2777 11.9123C14.1363 11.2306 15.1424 10.7591 16.2156 10.5355L18.0616 3.49448C18.1122 3.30206 18.237 3.1376 18.4088 3.03727C18.5806 2.93693 18.7853 2.90895 18.9777 2.95948C19.1701 3.01 19.3345 3.13489 19.4348 3.30667C19.5352 3.47846 19.5632 3.68306 19.5126 3.87548L17.5377 11.4065C17.496 11.5635 17.4046 11.7029 17.2772 11.8036C17.1497 11.9044 16.993 11.9612 16.8306 11.9655C15.9107 12.0844 15.0375 12.4403 14.2965 12.9983C13.5554 13.5563 12.9721 14.2972 12.6036 15.1485C12.5408 15.2712 12.4452 15.3742 12.3275 15.446C12.2098 15.5178 12.0745 15.5557 11.9366 15.5555V15.5555ZM9.01966 14.3195C8.93702 14.3194 8.8549 14.3059 8.77661 14.2795C8.58848 14.2151 8.43365 14.0787 8.34607 13.9002C8.2585 13.7216 8.24538 13.5157 8.30963 13.3275C8.66769 12.472 8.7957 11.5377 8.68097 10.6174C8.56624 9.69714 8.21278 8.82288 7.65564 8.08148C7.5467 7.96049 7.47961 7.80763 7.4643 7.64553C7.44899 7.48344 7.48625 7.32073 7.57062 7.18148L10.3626 2.61848C10.4122 2.53058 10.479 2.45357 10.559 2.39205C10.6389 2.33053 10.7305 2.28576 10.8282 2.26041C10.9259 2.23506 11.0276 2.22966 11.1274 2.24452C11.2273 2.25938 11.323 2.2942 11.4091 2.3469C11.4951 2.39961 11.5696 2.46912 11.6282 2.55127C11.6868 2.63343 11.7283 2.72655 11.7501 2.82508C11.7719 2.9236 11.7736 3.02551 11.7551 3.12471C11.7367 3.22392 11.6984 3.31839 11.6426 3.40248L9.11567 7.53147C9.70266 8.45649 10.0639 9.50654 10.1704 10.5969C10.2769 11.6873 10.1256 12.7874 9.72864 13.8085C9.67882 13.9571 9.58356 14.0864 9.45636 14.1781C9.32916 14.2698 9.17645 14.3192 9.01966 14.3195V14.3195Z" fill="black"/>
<path d="M16.8071 11.9662C16.7068 11.9663 16.6075 11.9463 16.5152 11.9072L7.91511 8.26821C7.73749 8.18713 7.5985 8.03997 7.52766 7.85802C7.45683 7.67606 7.45973 7.47366 7.53578 7.29382C7.61183 7.11399 7.755 6.97089 7.93489 6.89497C8.11478 6.81904 8.31719 6.81626 8.4991 6.88721L17.0991 10.5252C17.2586 10.5925 17.3899 10.7129 17.4708 10.866C17.5516 11.0191 17.577 11.1955 17.5426 11.3652C17.5082 11.5348 17.4162 11.6874 17.2821 11.797C17.1481 11.9065 16.9803 11.9663 16.8071 11.9662V11.9662Z" fill="black"/>
<path d="M20.9069 17.3711H14.2949C14.096 17.3711 13.9052 17.2921 13.7646 17.1514C13.6239 17.0108 13.5449 16.82 13.5449 16.6211C13.5449 16.4222 13.6239 16.2314 13.7646 16.0908C13.9052 15.9501 14.096 15.8711 14.2949 15.8711H20.9069C21.1058 15.8711 21.2966 15.9501 21.4373 16.0908C21.5779 16.2314 21.6569 16.4222 21.6569 16.6211C21.6569 16.82 21.5779 17.0108 21.4373 17.1514C21.2966 17.2921 21.1058 17.3711 20.9069 17.3711Z" fill="black"/>
</svg>
