<svg width="24" height="24" viewBox="0 0 24 24" fill="none" xmlns="http://www.w3.org/2000/svg">
<path fill-rule="evenodd" clip-rule="evenodd" d="M5.69997 3.75C4.61989 3.75 3.75 4.62051 3.75 5.69997C3.75 6.32269 4.04013 6.87394 4.4982 7.2339C4.83165 7.49519 5.24518 7.64994 5.69997 7.64994C6.78023 7.64994 7.64994 6.78023 7.64994 5.69997C7.64994 5.24613 7.49519 4.83175 7.23411 4.49847C6.8737 4.04064 6.32211 3.75 5.69997 3.75ZM2.25 5.69997C2.25 3.79244 3.79111 2.25 5.69997 2.25C6.8056 2.25 7.78333 2.7706 8.4134 3.5715L8.41421 3.57253C8.87287 4.15763 9.14994 4.89504 9.14994 5.69997C9.14994 7.60866 7.60866 9.14994 5.69997 9.14994C4.89393 9.14994 4.15752 8.87278 3.57253 8.41421L3.57195 8.41375C2.76924 7.78323 2.25 6.8051 2.25 5.69997ZM18.3 3.75C17.6766 3.75 17.1278 4.04147 16.7783 4.49384C16.7591 4.51867 16.7385 4.5421 16.7166 4.56407C16.4855 4.88546 16.3501 5.27545 16.3501 5.69997C16.3501 6.78023 17.2198 7.64994 18.3 7.64994C18.7549 7.64994 19.1686 7.49511 19.5021 7.23369C19.96 6.87372 20.25 6.32256 20.25 5.69997C20.25 4.62051 19.3801 3.75 18.3 3.75ZM15.6589 3.492C16.2844 2.7338 17.2346 2.25 18.3 2.25C20.2089 2.25 21.75 3.79244 21.75 5.69997C21.75 6.8051 21.2308 7.78323 20.4281 8.41375L20.4275 8.41421C19.8425 8.87278 19.1061 9.14994 18.3 9.14994C16.3913 9.14994 14.8501 7.60866 14.8501 5.69997C14.8501 4.89504 15.1271 4.15763 15.5858 3.57253C15.6084 3.54375 15.6328 3.51686 15.6589 3.492ZM4.5641 16.7166C4.54199 16.7386 4.5184 16.7593 4.4934 16.7786C4.04088 17.1278 3.75 17.6761 3.75 18.3C3.75 19.3803 4.61971 20.25 5.69997 20.25C6.32256 20.25 6.87372 19.96 7.23369 19.5021C7.49502 19.1687 7.64994 18.7541 7.64994 18.3C7.64994 17.2198 6.78023 16.3501 5.69997 16.3501C5.27468 16.3501 4.88548 16.4854 4.5641 16.7166ZM3.57253 15.5858C4.15752 15.1272 4.89393 14.8501 5.69997 14.8501C7.60866 14.8501 9.14994 16.3913 9.14994 18.3C9.14994 19.105 8.87287 19.8424 8.41421 20.4275L8.41375 20.4281C7.78323 21.2308 6.8051 21.75 5.69997 21.75C3.79129 21.75 2.25 20.2087 2.25 18.3C2.25 17.2351 2.73257 16.2844 3.49235 15.6586C3.51712 15.6326 3.54388 15.6082 3.57253 15.5858ZM18.3 16.3501C17.2198 16.3501 16.3501 17.2198 16.3501 18.3C16.3501 18.7245 16.4855 19.1145 16.7166 19.4359C16.7386 19.458 16.7593 19.4816 16.7786 19.5066C17.1278 19.9591 17.6761 20.25 18.3 20.25C19.3803 20.25 20.25 19.3803 20.25 18.3C20.25 17.6761 19.9591 17.1278 19.5066 16.7786C19.4816 16.7593 19.458 16.7386 19.4359 16.7166C19.1145 16.4854 18.7253 16.3501 18.3 16.3501ZM14.8501 18.3C14.8501 16.3913 16.3913 14.8501 18.3 14.8501C19.1061 14.8501 19.8425 15.1272 20.4275 15.5858C20.4561 15.6082 20.4829 15.6326 20.5077 15.6586C21.2674 16.2844 21.75 17.2351 21.75 18.3C21.75 20.2087 20.2087 21.75 18.3 21.75C17.2351 21.75 16.2844 21.2674 15.6586 20.5077C15.6326 20.4829 15.6082 20.4561 15.5858 20.4275C15.1271 19.8424 14.8501 19.105 14.8501 18.3Z" fill="black"/>
<path fill-rule="evenodd" clip-rule="evenodd" d="M7.16172 19.6126C7.35623 19.2469 7.81037 19.1081 8.17607 19.3026C9.32018 19.9111 10.6209 20.2498 11.9998 20.2498C13.3872 20.2498 14.6794 19.9113 15.8238 19.3026C16.1895 19.1081 16.6436 19.2469 16.8381 19.6126C17.0327 19.9783 16.8939 20.4324 16.5282 20.6269C15.1701 21.3492 13.6365 21.7498 11.9998 21.7498C10.3723 21.7498 8.83004 21.3494 7.47169 20.6269C7.10598 20.4324 6.96721 19.9783 7.16172 19.6126Z" fill="black"/>
<path fill-rule="evenodd" clip-rule="evenodd" d="M4.38783 7.1623C4.75341 7.35703 4.89191 7.81125 4.69718 8.17684C4.08803 9.32044 3.75 10.6219 3.75 12.0002C3.75 13.3878 4.08784 14.6798 4.69718 15.8238C4.89191 16.1893 4.75341 16.6436 4.38783 16.8383C4.02224 17.033 3.56801 16.8945 3.37328 16.5289C2.64967 15.1704 2.25 13.6366 2.25 12.0002C2.25 10.3739 2.64948 8.83051 3.37328 7.47165C3.56801 7.10607 4.02224 6.96756 4.38783 7.1623Z" fill="black"/>
<path fill-rule="evenodd" clip-rule="evenodd" d="M12.0001 3.75C10.6209 3.75 9.32036 4.08801 8.17672 4.69718C7.81113 4.89191 7.35691 4.75341 7.16217 4.38783C6.96744 4.02224 7.10594 3.56801 7.47153 3.37328C8.83035 2.6495 10.3728 2.25 12.0001 2.25C13.6365 2.25 15.1703 2.64967 16.5288 3.37328C16.8944 3.56801 17.0329 4.02224 16.8382 4.38783C16.6434 4.75341 16.1892 4.89191 15.8236 4.69718C14.6797 4.08784 13.3877 3.75 12.0001 3.75Z" fill="black"/>
<path fill-rule="evenodd" clip-rule="evenodd" d="M19.6122 7.1623C19.9777 6.96756 20.432 7.10607 20.6267 7.47165C21.3505 8.83056 21.7498 10.374 21.7498 12.0002C21.7498 13.6365 21.3503 15.1704 20.6267 16.5289C20.432 16.8945 19.9777 17.033 19.6122 16.8383C19.2466 16.6436 19.1081 16.1893 19.3028 15.8238C19.9121 14.6798 20.2498 13.3878 20.2498 12.0002C20.2498 10.6219 19.9119 9.32039 19.3028 8.17684C19.1081 7.81125 19.2466 7.35703 19.6122 7.1623Z" fill="black"/>
</svg>
