<svg width="24" height="24" viewBox="0 0 24 24" fill="none" xmlns="http://www.w3.org/2000/svg">
<path fill-rule="evenodd" clip-rule="evenodd" d="M18.4987 3.75C17.5323 3.75 16.7493 4.53305 16.7493 5.49939C16.7493 6.46689 17.5325 7.24976 18.4987 7.24976C19.4648 7.24976 20.2481 6.46689 20.2481 5.49939C20.2481 4.53305 19.465 3.75 18.4987 3.75ZM15.2493 5.49939C15.2493 3.70463 16.7039 2.25 18.4987 2.25C20.2935 2.25 21.7481 3.70463 21.7481 5.49939C21.7481 7.29494 20.2936 8.74976 18.4987 8.74976C16.7037 8.74976 15.2493 7.29494 15.2493 5.49939ZM5.50036 3.75095C4.53286 3.75095 3.75 4.53419 3.75 5.50034C3.75 6.46687 4.53324 7.25071 5.50036 7.25071C6.46632 7.25071 7.24976 6.46706 7.24976 5.50034C7.24976 4.534 6.4667 3.75095 5.50036 3.75095ZM2.25 5.50034C2.25 3.70539 3.70482 2.25095 5.50036 2.25095C7.29513 2.25095 8.74976 3.70558 8.74976 5.50034C8.74976 7.29473 7.29551 8.75071 5.50036 8.75071C3.70444 8.75071 2.25 7.29492 2.25 5.50034ZM5.50034 16.7502C4.534 16.7502 3.75095 17.5333 3.75095 18.4996C3.75095 19.4664 4.53438 20.25 5.50034 20.25C6.4663 20.25 7.24973 19.4664 7.24973 18.4996C7.24973 17.5333 6.46668 16.7502 5.50034 16.7502ZM2.25095 18.4996C2.25095 16.7049 3.70558 15.2502 5.50034 15.2502C7.29511 15.2502 8.74973 16.7049 8.74973 18.4996C8.74973 20.294 7.29549 21.75 5.50034 21.75C3.7052 21.75 2.25095 20.294 2.25095 18.4996ZM18.4997 16.7502C17.5322 16.7502 16.7493 17.5335 16.7493 18.4996C16.7493 19.4658 17.5322 20.249 18.4997 20.249C19.466 20.249 20.2491 19.466 20.2491 18.4996C20.2491 17.5333 19.466 16.7502 18.4997 16.7502ZM15.2493 18.4996C15.2493 16.7047 16.7041 15.2502 18.4997 15.2502C20.2944 15.2502 21.7491 16.7049 21.7491 18.4996C21.7491 20.2944 20.2944 21.749 18.4997 21.749C16.7041 21.749 15.2493 20.2946 15.2493 18.4996Z" fill="black"/>
<path fill-rule="evenodd" clip-rule="evenodd" d="M7.24941 5.49997C7.24943 5.08576 7.58523 4.74998 7.99944 4.75L15.9983 4.75033C16.4126 4.75034 16.7483 5.08614 16.7483 5.50036C16.7483 5.91457 16.4125 6.25034 15.9983 6.25033L7.99938 6.25C7.58517 6.24998 7.2494 5.91418 7.24941 5.49997ZM18.4983 7.24941C18.9125 7.24936 19.2483 7.58511 19.2483 7.99932L19.2493 15.9998C19.2494 16.414 18.9136 16.7499 18.4994 16.7499C18.0852 16.75 17.7494 16.4142 17.7493 16L17.7483 7.99951C17.7483 7.58529 18.084 7.24946 18.4983 7.24941ZM5.50003 7.25036C5.91424 7.25037 6.25002 7.58615 6.25002 8.00037L6.25 15.9999C6.25 16.4141 5.91421 16.7499 5.5 16.7499C5.08578 16.7499 4.75 16.4141 4.75 15.9999L4.75002 8.00036C4.75002 7.58615 5.08581 7.25036 5.50003 7.25036ZM7.24939 18.4993C7.24939 18.0851 7.58518 17.7493 7.99939 17.7493H15.999C16.4132 17.7493 16.749 18.0851 16.749 18.4993C16.749 18.9135 16.4132 19.2493 15.999 19.2493H7.99939C7.58518 19.2493 7.24939 18.9135 7.24939 18.4993Z" fill="black"/>
</svg>
