<svg width="24" height="24" viewBox="0 0 24 24" fill="none" xmlns="http://www.w3.org/2000/svg">
<path d="M17.1629 13.3215C16.518 13.3225 15.899 13.0675 15.4419 12.6125L11.5299 8.6995C11.1583 8.32639 10.9178 7.84288 10.8442 7.32147C10.7706 6.80006 10.8681 6.26886 11.1219 5.80751V5.80751L11.7759 4.62451C11.9395 4.32798 12.1699 4.07358 12.4487 3.88144C12.7276 3.68929 13.0474 3.56468 13.3828 3.51744C13.7181 3.47019 14.0599 3.50163 14.381 3.60925C14.7021 3.71687 14.9937 3.89772 15.2329 4.13751L20.0039 8.9085C20.2434 9.14783 20.4241 9.43957 20.5315 9.76069C20.6389 10.0818 20.6702 10.4235 20.6229 10.7588C20.5755 11.0941 20.4509 11.4138 20.2588 11.6927C20.0667 11.9715 19.8124 12.2018 19.5159 12.3655L18.3339 13.0195C17.9755 13.2179 17.5726 13.3219 17.1629 13.3215V13.3215ZM12.4339 6.5335C12.3381 6.70917 12.3014 6.91103 12.3294 7.10916C12.3573 7.30729 12.4483 7.49114 12.5889 7.6335L16.5019 11.5475C16.6451 11.6887 16.83 11.7801 17.0293 11.808C17.2285 11.8359 17.4314 11.7989 17.6079 11.7025L18.7899 11.0485C18.8831 10.9974 18.963 10.9253 19.0235 10.8379C19.0839 10.7505 19.1232 10.6502 19.1381 10.545C19.1531 10.4398 19.1433 10.3326 19.1096 10.2318C19.0759 10.1311 19.0191 10.0395 18.9439 9.9645L14.1719 5.1925C14.0975 5.11659 14.0061 5.05942 13.9053 5.02569C13.8044 4.99197 13.697 4.98265 13.5919 4.9985C13.4874 5.0136 13.3878 5.05281 13.301 5.11303C13.2142 5.17326 13.1426 5.25285 13.0919 5.3455L12.4339 6.5335Z" fill="black"/>
<path d="M4.82459 20.9965C4.56657 20.9941 4.31253 20.9327 4.08188 20.817C3.85123 20.7013 3.65011 20.5344 3.49387 20.329C3.33763 20.1237 3.23042 19.8853 3.18046 19.6322C3.13049 19.379 3.1391 19.1178 3.2056 18.8685C3.82382 16.1288 4.07867 13.3197 3.9636 10.5135C3.95314 10.109 4.089 9.7144 4.3462 9.40209C4.60339 9.08978 4.96464 8.88077 5.36359 8.81348L12.1936 7.68448C12.291 7.66788 12.3908 7.6707 12.4871 7.69278C12.5834 7.71486 12.6744 7.75577 12.7549 7.81314C12.8354 7.87051 12.9037 7.94322 12.956 8.02709C13.0083 8.11095 13.0435 8.20432 13.0595 8.30184C13.0756 8.39935 13.0723 8.49907 13.0497 8.59528C13.0271 8.69149 12.9857 8.78229 12.9279 8.86246C12.8701 8.94262 12.797 9.01058 12.7129 9.06241C12.6288 9.11424 12.5352 9.14894 12.4376 9.16449L5.61658 10.2925C5.57277 10.2987 5.53284 10.3209 5.50455 10.3549C5.47627 10.389 5.46167 10.4323 5.4636 10.4765C5.58202 13.4301 5.30897 16.3865 4.65159 19.2685C4.64232 19.2996 4.64241 19.3328 4.65183 19.3639C4.66125 19.395 4.6796 19.4227 4.70459 19.4435C4.72588 19.4668 4.75325 19.4838 4.78364 19.4924C4.81402 19.5011 4.8462 19.5011 4.87659 19.4925C7.7619 18.8391 10.7206 18.5678 13.6766 18.6855V18.6855C13.721 18.6825 13.7629 18.664 13.795 18.6333C13.8272 18.6027 13.8476 18.5617 13.8526 18.5175L14.9786 11.7065C14.9947 11.6093 15.0297 11.5162 15.0818 11.4326C15.1338 11.349 15.2019 11.2764 15.282 11.2191C15.362 11.1618 15.4527 11.1208 15.5486 11.0984C15.6445 11.0761 15.7439 11.0729 15.8411 11.089C15.9383 11.1051 16.0313 11.1401 16.115 11.1922C16.1986 11.2442 16.2711 11.3123 16.3285 11.3924C16.3858 11.4724 16.4268 11.563 16.4491 11.659C16.4715 11.7549 16.4747 11.8543 16.4586 11.9515L15.3316 18.7715C15.2655 19.1656 15.0621 19.5237 14.7574 19.7823C14.4526 20.0409 14.0663 20.1834 13.6666 20.1845H13.6416C10.832 20.071 8.01963 20.3244 5.27561 20.9385C5.12851 20.9777 4.97683 20.9972 4.82459 20.9965Z" fill="black"/>
<path d="M9.83881 16.5251C9.39927 16.525 8.96962 16.3946 8.60422 16.1503C8.23882 15.906 7.95411 15.5588 7.78604 15.1527C7.61798 14.7466 7.57413 14.2997 7.66007 13.8687C7.746 13.4376 7.95784 13.0417 8.2688 12.7311C8.69202 12.327 9.25468 12.1016 9.83982 12.1016C10.425 12.1016 10.9876 12.327 11.4108 12.7311C11.722 13.0417 11.934 13.4377 12.02 13.869C12.1059 14.3002 12.062 14.7472 11.8936 15.1534C11.7253 15.5597 11.4401 15.9067 11.0743 16.1507C10.7085 16.3947 10.2785 16.5247 9.83881 16.5241V16.5251ZM9.83881 13.5811C9.69596 13.5811 9.55632 13.6235 9.43756 13.7029C9.31881 13.7823 9.22629 13.8951 9.17169 14.0271C9.11709 14.1591 9.10286 14.3044 9.13083 14.4444C9.1588 14.5845 9.2277 14.7132 9.3288 14.8141C9.46629 14.9455 9.64914 15.0188 9.8393 15.0188C10.0295 15.0188 10.2123 14.9455 10.3498 14.8141C10.4849 14.6787 10.5607 14.4953 10.5607 14.3041C10.5607 14.1129 10.4849 13.9294 10.3498 13.7941V13.7941C10.2829 13.7266 10.2033 13.6731 10.1156 13.6365C10.0279 13.5999 9.93383 13.5811 9.83881 13.5811V13.5811Z" fill="black"/>
<path d="M4.16733 20.7223C4.01909 20.7222 3.87419 20.6782 3.75097 20.5957C3.62776 20.5133 3.53175 20.3962 3.47503 20.2593C3.41832 20.1223 3.40346 19.9716 3.43234 19.8262C3.46122 19.6808 3.53257 19.5472 3.63733 19.4423L8.26831 14.8123C8.4097 14.6757 8.59912 14.6 8.79577 14.6016C8.99242 14.6032 9.18058 14.682 9.3197 14.821C9.45882 14.96 9.53778 15.148 9.53958 15.3447C9.54138 15.5413 9.46587 15.7308 9.32931 15.8724L4.6983 20.5023C4.62867 20.5722 4.54593 20.6276 4.4548 20.6654C4.36367 20.7031 4.26597 20.7225 4.16733 20.7223V20.7223Z" fill="black"/>
</svg>
