<svg width="24" height="24" viewBox="0 0 24 24" fill="none" xmlns="http://www.w3.org/2000/svg">
<path d="M17.6077 21.5952C17.1093 21.5956 16.6257 21.4251 16.2377 21.1122C15.4758 20.4988 14.8614 19.722 14.44 18.8393C14.0185 17.9565 13.8007 16.9904 13.8027 16.0122V5.9632C13.8027 4.95405 14.2036 3.98622 14.9172 3.27264C15.6308 2.55907 16.5986 2.1582 17.6077 2.1582C18.6169 2.1582 19.5847 2.55907 20.2983 3.27264C21.0119 3.98622 21.4128 4.95405 21.4128 5.9632V16.0122C21.4146 16.9904 21.1967 17.9564 20.7753 18.8391C20.3538 19.7218 19.7395 20.4986 18.9778 21.1122C18.5899 21.4253 18.1062 21.5958 17.6077 21.5952V21.5952ZM17.6077 3.65921C16.9983 3.66106 16.4144 3.90397 15.9834 4.3349C15.5525 4.76583 15.3096 5.34977 15.3078 5.9592V16.0082C15.3061 16.7628 15.4742 17.5082 15.7994 18.1891C16.1246 18.8701 16.5988 19.4692 17.1868 19.9422C17.3074 20.0392 17.4575 20.092 17.6123 20.092C17.767 20.092 17.9172 20.0392 18.0378 19.9422C18.6258 19.4692 19.0999 18.8701 19.4251 18.1891C19.7504 17.5082 19.9184 16.7628 19.9168 16.0082V5.9632C19.916 5.35151 19.6723 4.76519 19.2393 4.33313C18.8063 3.90107 18.2194 3.65868 17.6077 3.65921V3.65921Z" fill="black"/>
<path d="M20.6764 8.98438H14.5664C14.3675 8.98437 14.1767 8.90536 14.0361 8.76471C13.8954 8.62406 13.8164 8.43329 13.8164 8.23438C13.8164 8.03546 13.8954 7.84469 14.0361 7.70404C14.1767 7.56339 14.3675 7.48438 14.5664 7.48438H20.6764C20.8753 7.48437 21.0661 7.56339 21.2067 7.70404C21.3474 7.84469 21.4264 8.03546 21.4264 8.23438C21.4264 8.43329 21.3474 8.62406 21.2067 8.76471C21.0661 8.90536 20.8753 8.98438 20.6764 8.98438V8.98438Z" fill="black"/>
<path d="M8.56934 21.6562H6.30936C5.35102 21.6555 4.43214 21.2745 3.75439 20.5969C3.07665 19.9194 2.6954 19.0006 2.69434 18.0422V5.77124C2.69539 4.81281 3.07662 3.89393 3.75433 3.21622C4.43205 2.5385 5.35092 2.15731 6.30936 2.15625H8.56934C9.5275 2.15731 10.4461 2.53842 11.1237 3.21594C11.8012 3.89347 12.1823 4.8121 12.1833 5.77026V18.0422C12.1823 19.0004 11.8012 19.919 11.1237 20.5966C10.4461 21.2741 9.5275 21.6552 8.56934 21.6562V21.6562ZM6.30936 3.65625C5.74867 3.65704 5.21116 3.88011 4.8147 4.27658C4.41823 4.67305 4.19513 5.21055 4.19434 5.77124V18.0422C4.19513 18.6028 4.41826 19.1403 4.81476 19.5366C5.21125 19.9329 5.74876 20.1557 6.30936 20.1562H8.56934C9.12976 20.1555 9.66701 19.9325 10.0633 19.5362C10.4596 19.1399 10.6826 18.6027 10.6833 18.0422V5.77026C10.6826 5.20984 10.4596 4.67259 10.0633 4.27631C9.66701 3.88003 9.12976 3.65704 8.56934 3.65625H6.30936Z" fill="black"/>
<path d="M6.82034 7.26172H3.44434C3.24542 7.26172 3.05465 7.18271 2.914 7.04205C2.77335 6.9014 2.69434 6.71063 2.69434 6.51172C2.69434 6.31281 2.77335 6.12204 2.914 5.98138C3.05465 5.84073 3.24542 5.76172 3.44434 5.76172H6.82034C7.01926 5.76172 7.21003 5.84073 7.35068 5.98138C7.49133 6.12204 7.57034 6.31281 7.57034 6.51172C7.57034 6.71063 7.49133 6.9014 7.35068 7.04205C7.21003 7.18271 7.01926 7.26172 6.82034 7.26172V7.26172Z" fill="black"/>
<path d="M5.92035 18.0586H3.44434C3.24542 18.0586 3.05465 17.9796 2.914 17.8389C2.77335 17.6983 2.69434 17.5075 2.69434 17.3086C2.69434 17.1097 2.77335 16.9189 2.914 16.7783C3.05465 16.6376 3.24542 16.5586 3.44434 16.5586H5.92035C6.11926 16.5586 6.31003 16.6376 6.45068 16.7783C6.59134 16.9189 6.67035 17.1097 6.67035 17.3086C6.67035 17.5075 6.59134 17.6983 6.45068 17.8389C6.31003 17.9796 6.11926 18.0586 5.92035 18.0586V18.0586Z" fill="black"/>
<path d="M6.82094 14.4571H6.81193L3.43593 14.4141C3.33744 14.4135 3.24004 14.3935 3.14928 14.3553C3.05851 14.317 2.97616 14.2613 2.90693 14.1912C2.76713 14.0497 2.68925 13.8585 2.69044 13.6596C2.69103 13.5611 2.71101 13.4637 2.74925 13.3729C2.78749 13.2821 2.84322 13.1998 2.91328 13.1306C3.05478 12.9908 3.24602 12.9129 3.44493 12.9141H3.45494L6.83095 12.9571C7.02986 12.9584 7.2201 13.0387 7.35982 13.1803C7.49953 13.3219 7.57727 13.5132 7.57594 13.7121C7.57462 13.911 7.49433 14.1012 7.35274 14.2409C7.21115 14.3807 7.01985 14.4584 6.82094 14.4571V14.4571Z" fill="black"/>
<path d="M5.02036 10.8574H3.44434C3.24542 10.8574 3.05465 10.7784 2.914 10.6378C2.77335 10.4971 2.69434 10.3063 2.69434 10.1074C2.69434 9.90851 2.77335 9.71777 2.914 9.57712C3.05465 9.43647 3.24542 9.35742 3.44434 9.35742H5.02036C5.21927 9.35742 5.41001 9.43647 5.55066 9.57712C5.69131 9.71777 5.77036 9.90851 5.77036 10.1074C5.77036 10.3063 5.69131 10.4971 5.55066 10.6378C5.41001 10.7784 5.21927 10.8574 5.02036 10.8574Z" fill="black"/>
</svg>
