<svg width="24" height="24" viewBox="0 0 24 24" fill="none" xmlns="http://www.w3.org/2000/svg">
<path d="M13.2836 10.467C13.1464 10.4672 13.0116 10.4298 12.8942 10.3586C12.7768 10.2875 12.6812 10.1855 12.6178 10.0637C12.5544 9.94193 12.5257 9.80506 12.5349 9.66808C12.544 9.5311 12.5906 9.39926 12.6696 9.28698L14.2106 7.08698C14.3275 6.93128 14.5003 6.8271 14.6925 6.79646C14.8847 6.76582 15.0813 6.81112 15.2408 6.92278C15.4002 7.03445 15.51 7.20373 15.5469 7.39485C15.5838 7.58597 15.545 7.78396 15.4386 7.94698L13.8976 10.147C13.8287 10.2459 13.7368 10.3266 13.6299 10.3823C13.523 10.438 13.4042 10.4671 13.2836 10.467V10.467Z" fill="black"/>
<path d="M7.23157 20.6513C6.77971 20.6775 6.33009 20.5704 5.93857 20.3433C4.98157 19.6923 4.78657 17.5293 4.75557 16.2993C4.72864 15.2609 5.0284 14.2402 5.61257 13.3813L11.4766 4.9813C11.7971 4.52106 12.2051 4.12851 12.6774 3.82608C13.1498 3.52364 13.677 3.31726 14.2291 3.21873C14.7813 3.1202 15.3474 3.13145 15.8951 3.25183C16.4429 3.37222 16.9616 3.59939 17.4215 3.92034C17.8814 4.2413 18.2736 4.64975 18.5755 5.12236C18.8775 5.59496 19.0834 6.12244 19.1813 6.67465C19.2793 7.22686 19.2675 7.79297 19.1466 8.34061C19.0257 8.88826 18.798 9.4067 18.4766 9.8663L12.6706 18.1833C12.0347 19.1119 11.1037 19.7984 10.0286 20.1313C9.12496 20.4339 8.18355 20.6089 7.23157 20.6513V20.6513ZM14.9816 4.6533C14.818 4.65326 14.6547 4.66765 14.4936 4.6963C14.135 4.75861 13.7923 4.89157 13.4856 5.08745C13.1788 5.28332 12.914 5.53821 12.7066 5.8373L6.84858 14.2373C6.4431 14.8347 6.23566 15.5445 6.25557 16.2663C6.20146 17.2459 6.38608 18.2239 6.79357 19.1163C7.7441 19.1974 8.70045 19.0557 9.58657 18.7023V18.7023C10.3394 18.4692 10.9911 17.9881 11.4356 17.3373L17.2466 9.0033C17.5358 8.5886 17.706 8.10262 17.7386 7.59808C17.7713 7.09353 17.6651 6.58968 17.4318 6.14117C17.1984 5.69265 16.8466 5.31659 16.4147 5.05378C15.9828 4.79097 15.4872 4.65143 14.9816 4.6503V4.6533Z" fill="black"/>
</svg>
