<svg width="24" height="24" viewBox="0 0 24 24" fill="none" xmlns="http://www.w3.org/2000/svg">
<path fill-rule="evenodd" clip-rule="evenodd" d="M3.25 5C3.25 4.58579 3.58579 4.25 4 4.25H20C20.4142 4.25 20.75 4.58579 20.75 5C20.75 5.41421 20.4142 5.75 20 5.75H4C3.58579 5.75 3.25 5.41421 3.25 5ZM3.25 14.333C3.25 13.9188 3.58579 13.583 4 13.583H20C20.4142 13.583 20.75 13.9188 20.75 14.333C20.75 14.7472 20.4142 15.083 20 15.083H4C3.58579 15.083 3.25 14.7472 3.25 14.333Z" fill="black"/>
<path fill-rule="evenodd" clip-rule="evenodd" d="M5.91797 9.66406C5.91797 9.24985 6.25376 8.91406 6.66797 8.91406H17.335C17.7492 8.91406 18.085 9.24985 18.085 9.66406C18.085 10.0783 17.7492 10.4141 17.335 10.4141H6.66797C6.25376 10.4141 5.91797 10.0783 5.91797 9.66406ZM5.91797 18.998C5.91797 18.5838 6.25376 18.248 6.66797 18.248H17.335C17.7492 18.248 18.085 18.5838 18.085 18.998C18.085 19.4123 17.7492 19.748 17.335 19.748H6.66797C6.25376 19.748 5.91797 19.4123 5.91797 18.998Z" fill="black"/>
</svg>
