<svg width="24" height="24" viewBox="0 0 24 24" fill="none" xmlns="http://www.w3.org/2000/svg">
<path fill-rule="evenodd" clip-rule="evenodd" d="M4.83447 4.91943C4.15864 5.64536 3.75 6.70804 3.75 8.02638V15.9736C3.75 17.2914 4.15861 18.3541 4.83459 19.0802C5.50493 19.8002 6.49383 20.25 7.78314 20.25H16.2169C17.5056 20.25 18.4946 19.8003 19.1651 19.0802C19.8412 18.354 20.25 17.2913 20.25 15.9736V8.02638C20.25 6.70908 19.8396 5.64629 19.1622 4.91987C18.4902 4.19927 17.5009 3.75 16.2169 3.75H7.78216C6.49331 3.75 5.50467 4.19956 4.83447 4.91943ZM3.73661 3.89733C4.72047 2.84054 6.12291 2.25 7.78216 2.25H16.2169C17.8722 2.25 19.2744 2.84084 20.2592 3.89688C21.2386 4.94712 21.75 6.39751 21.75 8.02638V15.9736C21.75 17.6011 21.2413 19.0516 20.2629 20.1024C19.2788 21.1592 17.8762 21.75 16.2169 21.75H7.78314C6.12336 21.75 4.72069 21.1592 3.73673 20.1023C2.75842 19.0515 2.25 17.601 2.25 15.9736V8.02638C2.25 6.39856 2.75839 4.94805 3.73661 3.89733Z" fill="black"/>
<path fill-rule="evenodd" clip-rule="evenodd" d="M9.06055 9.8125C9.06055 9.39829 9.39633 9.0625 9.81055 9.0625H17.1078C17.5221 9.0625 17.8578 9.39829 17.8578 9.8125C17.8578 10.2267 17.5221 10.5625 17.1078 10.5625H9.81055C9.39633 10.5625 9.06055 10.2267 9.06055 9.8125ZM12.9899 14.1909C12.9899 13.7767 13.3256 13.4409 13.7399 13.4409H17.1078C17.5221 13.4409 17.8578 13.7767 17.8578 14.1909C17.8578 14.6051 17.5221 14.9409 17.1078 14.9409H13.7399C13.3256 14.9409 12.9899 14.6051 12.9899 14.1909Z" fill="black"/>
</svg>
