<svg width="24" height="24" viewBox="0 0 24 24" fill="none" xmlns="http://www.w3.org/2000/svg">
<path fill-rule="evenodd" clip-rule="evenodd" d="M7.07914 5.42049C7.61498 4.80784 8.3901 4.45703 9.20326 4.45703H18.329C20.2183 4.45703 21.7499 5.98863 21.7499 7.87791V16.1221C21.7499 18.0122 20.2185 19.544 18.329 19.544H9.20326C8.39001 19.544 7.61481 19.1931 7.07896 18.5803L2.94773 13.8585C2.01755 12.7945 2.01736 11.2058 2.94754 10.1418L7.07914 5.42049C7.0792 5.42042 7.07908 5.42056 7.07914 5.42049ZM9.20326 5.95703C8.82167 5.95703 8.45846 6.12184 8.20812 6.40811L4.07684 11.129C3.64099 11.6276 3.64092 12.3722 4.07664 12.8708C4.07657 12.8707 4.07671 12.8709 4.07664 12.8708L8.20799 17.5928C8.45833 17.879 8.82167 18.044 9.20326 18.044H18.329C19.3897 18.044 20.2499 17.1841 20.2499 16.1221V7.87791C20.2499 6.81706 19.3899 5.95703 18.329 5.95703H9.20326Z" fill="black"/>
<path fill-rule="evenodd" clip-rule="evenodd" d="M17.4619 9.55163C17.7548 9.84449 17.7549 10.3194 17.462 10.6123L13.6265 14.4488C13.3336 14.7417 12.8588 14.7418 12.5659 14.449L10.5323 12.4164C10.2393 12.1236 10.2392 11.6487 10.532 11.3558C10.8249 11.0628 11.2997 11.0627 11.5927 11.3555L13.0959 12.858L16.4012 9.55177C16.6941 9.25884 17.169 9.25878 17.4619 9.55163Z" fill="black"/>
</svg>
