<svg width="24" height="24" viewBox="0 0 24 24" fill="none" xmlns="http://www.w3.org/2000/svg">
<path d="M12 21.75C6.62 21.75 2.25 17.38 2.25 12C2.25 6.62 6.62 2.25 12 2.25C17.38 2.25 21.75 6.62 21.75 12C21.75 17.38 17.38 21.75 12 21.75ZM12 3.75C7.45 3.75 3.75 7.45 3.75 12C3.75 16.55 7.45 20.25 12 20.25C16.55 20.25 20.25 16.55 20.25 12C20.25 7.45 16.55 3.75 12 3.75Z" fill="black"/>
<path d="M15.2901 16.12C14.3601 16.12 13.4401 15.67 12.8901 14.89C12.2901 14.04 12.1501 12.87 12.4901 11.6C12.8801 10.16 13.7701 8.89003 14.9801 8.01003C15.3201 7.77003 15.7901 7.85003 16.0301 8.18003C16.2701 8.52003 16.1901 8.99003 15.8601 9.23003C14.9401 9.89003 14.2401 10.9 13.9401 11.99C13.7201 12.81 13.7801 13.55 14.1101 14.02C14.4401 14.48 15.0901 14.72 15.6401 14.57C16.1001 14.44 16.4401 14.1 16.5901 13.62C16.7401 13.12 16.6301 12.59 16.2901 12.21C16.0301 11.91 15.6301 11.72 15.2301 11.71C14.8201 11.69 14.5001 11.34 14.5201 10.93C14.5401 10.52 14.9001 10.2 15.3001 10.22C16.1101 10.26 16.8801 10.62 17.4101 11.23C18.0901 12 18.3201 13.06 18.0301 14.06C17.7401 15.03 17.0001 15.77 16.0501 16.03C15.8001 16.1 15.5501 16.13 15.3001 16.13L15.2901 16.12Z" fill="black"/>
<path d="M8.82991 16.12C7.89991 16.12 6.97991 15.67 6.42991 14.89C5.82991 14.04 5.68991 12.87 6.02991 11.6C6.41991 10.16 7.30991 8.88003 8.51991 8.01003C8.85991 7.77003 9.32991 7.85003 9.56991 8.18003C9.80991 8.52003 9.72991 8.99003 9.39991 9.23003C8.47991 9.89003 7.77991 10.9 7.47991 11.99C7.25991 12.81 7.31991 13.55 7.64991 14.02C7.97991 14.48 8.62991 14.72 9.17991 14.57C9.63991 14.44 9.97991 14.1 10.1299 13.62C10.2799 13.12 10.1699 12.59 9.82991 12.21C9.56991 11.91 9.16991 11.72 8.76991 11.71C8.35991 11.69 8.03991 11.34 8.05991 10.93C8.07991 10.52 8.42991 10.2 8.83991 10.22C9.64991 10.26 10.4199 10.62 10.9499 11.23C11.6299 12 11.8599 13.06 11.5699 14.06C11.2799 15.03 10.5399 15.77 9.58991 16.03C9.33991 16.1 9.08991 16.13 8.83991 16.13L8.82991 16.12Z" fill="black"/>
</svg>
