<svg width="24" height="24" viewBox="0 0 24 24" fill="none" xmlns="http://www.w3.org/2000/svg">
<path d="M6.55676 18.8298C6.40675 18.8298 6.26677 18.7898 6.13677 18.6998L4.63677 17.6698C4.46677 17.5498 4.34677 17.3698 4.31677 17.1598C4.28677 16.9498 4.34677 16.7398 4.47677 16.5798C4.99677 15.9298 5.43675 15.2198 5.79675 14.4598C4.89675 14.2198 4.06676 13.7098 3.43676 13.0098C2.34676 11.7798 1.97677 10.0898 2.44677 8.47985C2.91677 6.86985 4.08674 5.75985 5.60674 5.32985C7.42674 4.81985 9.54677 5.57985 10.6368 7.12985C11.9568 8.99985 11.5968 11.3298 11.2568 12.5498C10.5868 15.0198 9.07676 17.1898 6.99676 18.6798C6.86676 18.7698 6.71675 18.8198 6.55676 18.8198V18.8298ZM6.12676 16.8798L6.53677 17.1598C8.10677 15.8998 9.28676 14.0998 9.80676 12.1698C10.2568 10.5198 10.1068 9.00985 9.40676 8.00985C8.66676 6.95985 7.23677 6.44985 6.00677 6.78985C4.97677 7.07985 4.19677 7.84985 3.88677 8.90985C3.55677 10.0198 3.80676 11.1798 4.55676 12.0198C5.13676 12.6798 6.00677 13.0898 6.88677 13.1298C7.12677 13.1398 7.34677 13.2598 7.47677 13.4598C7.60677 13.6598 7.63675 13.9098 7.55676 14.1298C7.19675 15.0998 6.72677 16.0198 6.13677 16.8698L6.12676 16.8798Z" fill="black"/>
<path d="M16.7369 18.8297C16.5869 18.8297 16.4469 18.7897 16.3169 18.6997L14.8169 17.6697C14.6469 17.5497 14.5269 17.3697 14.4969 17.1597C14.4669 16.9497 14.5269 16.7397 14.6569 16.5797C15.1769 15.9297 15.617 15.2197 15.977 14.4597C15.077 14.2197 14.2469 13.7097 13.6169 13.0097C12.5269 11.7797 12.1569 10.0897 12.6269 8.47974C13.0969 6.86974 14.2669 5.74974 15.7869 5.32974C17.6369 4.81974 19.7069 5.55974 20.8169 7.12974C22.1369 8.99974 21.7769 11.3297 21.4369 12.5497C20.7669 15.0097 19.2569 17.1897 17.1769 18.6797C17.0469 18.7697 16.8969 18.8197 16.7369 18.8197V18.8297ZM16.3069 16.8797L16.7169 17.1597C18.2869 15.8997 19.4669 14.0997 19.9869 12.1697C20.4369 10.5197 20.2869 9.00974 19.5869 8.00974C18.8469 6.95974 17.4169 6.45974 16.1869 6.78974C15.1569 7.07974 14.3769 7.84974 14.0669 8.90974C13.7369 10.0197 13.9869 11.1797 14.7369 12.0197C15.3169 12.6797 16.1869 13.0897 17.0669 13.1297C17.3069 13.1397 17.5269 13.2597 17.6569 13.4597C17.7869 13.6597 17.8169 13.9097 17.7369 14.1297C17.3769 15.0997 16.9069 16.0197 16.3169 16.8697L16.3069 16.8797Z" fill="black"/>
</svg>
