<svg width="24" height="24" viewBox="0 0 24 24" fill="none" xmlns="http://www.w3.org/2000/svg">
<path fill-rule="evenodd" clip-rule="evenodd" d="M3.89746 8.78906C3.89746 8.37485 4.23325 8.03906 4.64746 8.03906H19.3534C19.7676 8.03906 20.1034 8.37485 20.1034 8.78906C20.1034 9.20328 19.7676 9.53906 19.3534 9.53906H4.64746C4.23325 9.53906 3.89746 9.20328 3.89746 8.78906Z" fill="black"/>
<path fill-rule="evenodd" clip-rule="evenodd" d="M5.36851 8.04161C5.78134 8.0078 6.14342 8.31505 6.17723 8.72789L6.97415 18.4587C7.05702 19.4706 7.90241 20.2495 8.91765 20.2495H15.0812C16.0964 20.2495 16.9418 19.4706 17.0247 18.4587L17.8216 8.72789C17.8554 8.31505 18.2175 8.0078 18.6303 8.04161C19.0432 8.07542 19.3504 8.43749 19.3166 8.85032L18.5197 18.5811C18.3731 20.3713 16.8774 21.7495 15.0812 21.7495H8.91765C7.12145 21.7495 5.62577 20.3713 5.47916 18.5811L4.68223 8.85032C4.64842 8.43749 4.95568 8.07542 5.36851 8.04161Z" fill="black"/>
<path fill-rule="evenodd" clip-rule="evenodd" d="M16.1831 6.81794C15.8458 6.44712 15.3561 6.21541 14.6877 6.28041C14.1792 6.32985 13.6724 6.72661 13.2193 7.32023C12.9679 7.64949 12.4973 7.71268 12.168 7.46136C11.8388 7.21004 11.7756 6.73939 12.0269 6.41013C12.5498 5.72501 13.3925 4.89928 14.5425 4.78745C15.6862 4.67623 16.6398 5.0907 17.2928 5.80868C17.9303 6.50963 18.2517 7.46337 18.2517 8.42053C18.2517 8.83474 17.9159 9.17053 17.5017 9.17053C17.0875 9.17053 16.7517 8.83474 16.7517 8.42053C16.7517 7.78346 16.5358 7.20579 16.1831 6.81794Z" fill="black"/>
<path fill-rule="evenodd" clip-rule="evenodd" d="M12.4258 5.09669C11.9533 4.65943 11.27 4.24986 10.3479 4.25C8.63526 4.25025 7.24707 5.63836 7.24707 7.35077C7.24707 7.76162 7.32658 8.15206 7.47036 8.50887C7.62517 8.89307 7.43922 9.33002 7.05502 9.48483C6.67082 9.63964 6.23387 9.45369 6.07906 9.06949C5.8647 8.5375 5.74707 7.95695 5.74707 7.35077C5.74707 4.80973 7.80698 2.75037 10.3477 2.75C11.7561 2.74979 12.7863 3.38656 13.4446 3.99573C13.7734 4.29996 14.0166 4.60316 14.1787 4.83168C14.2602 4.94646 14.3222 5.04389 14.3652 5.11527C14.3868 5.15101 14.4037 5.18035 14.416 5.20224L14.431 5.22939L14.4359 5.23855L14.4377 5.24199L14.4385 5.24342L14.4388 5.24406C14.439 5.24436 14.4391 5.24465 13.7748 5.59268L14.4391 5.24465C14.6313 5.61157 14.4897 6.06483 14.1228 6.25704C13.7569 6.44869 13.3052 6.30844 13.1121 5.9439M13.112 5.94377L13.1078 5.93611C13.1028 5.92733 13.0939 5.91171 13.0809 5.89022C13.0549 5.84714 13.0131 5.78105 12.9553 5.69962C12.839 5.5357 12.6625 5.31567 12.4258 5.09669" fill="black"/>
<path fill-rule="evenodd" clip-rule="evenodd" d="M12.2881 21.5582C12.5877 21.2722 12.5987 20.7974 12.3127 20.4978L6.48491 14.3922C6.19891 14.0926 5.72417 14.0815 5.42454 14.3675C5.12491 14.6535 5.11386 15.1283 5.39986 15.4279L11.2277 21.5335C11.5137 21.8331 11.9884 21.8441 12.2881 21.5582Z" fill="black"/>
<path fill-rule="evenodd" clip-rule="evenodd" d="M17.4166 20.8368C17.7191 20.5539 17.735 20.0793 17.4521 19.7768L6.71183 8.29293C6.4289 7.99041 5.95429 7.97453 5.65177 8.25746C5.34924 8.5404 5.33336 9.01501 5.6163 9.31753L16.3565 20.8014C16.6395 21.1039 17.1141 21.1198 17.4166 20.8368Z" fill="black"/>
<path fill-rule="evenodd" clip-rule="evenodd" d="M6.44147 20.7001C6.13895 20.4172 6.12307 19.9426 6.406 19.64L17.0177 8.29369C17.3006 7.99117 17.7752 7.97529 18.0777 8.25822C18.3803 8.54116 18.3961 9.01577 18.1132 9.31829L7.50154 20.6646C7.2186 20.9672 6.74399 20.983 6.44147 20.7001Z" fill="black"/>
<path fill-rule="evenodd" clip-rule="evenodd" d="M5.41399 15.4501C5.1201 15.1582 5.11849 14.6833 5.41038 14.3894L11.4962 8.26215C11.7881 7.96826 12.263 7.96665 12.5568 8.25854C12.8507 8.55044 12.8523 9.02531 12.5604 9.3192L6.47464 15.4465C6.18274 15.7404 5.70787 15.742 5.41399 15.4501Z" fill="black"/>
<path fill-rule="evenodd" clip-rule="evenodd" d="M11.769 21.5601C11.4683 21.2753 11.4555 20.8006 11.7403 20.4998L17.5239 14.3943C17.8087 14.0936 18.2834 14.0807 18.5841 14.3656C18.8849 14.6504 18.8977 15.1251 18.6129 15.4258L12.8293 21.5314C12.5445 21.8321 12.0698 21.845 11.769 21.5601Z" fill="black"/>
<path fill-rule="evenodd" clip-rule="evenodd" d="M18.5944 15.4521C18.8894 15.1613 18.8928 14.6865 18.602 14.3915L12.5625 8.26418C12.2717 7.96918 11.7968 7.96576 11.5018 8.25653C11.2068 8.54731 11.2034 9.02217 11.4942 9.31716L17.5337 15.4445C17.8245 15.7395 18.2994 15.7429 18.5944 15.4521Z" fill="black"/>
</svg>
