<svg width="24" height="24" viewBox="0 0 24 24" fill="none" xmlns="http://www.w3.org/2000/svg">
<path fill-rule="evenodd" clip-rule="evenodd" d="M10.4073 3.75C10.1113 3.75 9.84251 3.92249 9.71917 4.19153L8.90097 5.97632C8.77877 6.24288 8.51243 6.41377 8.2192 6.41377H5.57978C5.18245 6.41377 4.86035 6.73587 4.86035 7.1332V8.2214C4.86035 8.36204 4.97437 8.47605 5.11501 8.47605H18.8848C19.0254 8.47605 19.1394 8.36204 19.1394 8.2214V7.1332C19.1394 6.73587 18.8173 6.41377 18.42 6.41377H15.7806C15.4873 6.41377 15.221 6.24288 15.0988 5.97632L14.2806 4.19153C14.1572 3.92249 13.8884 3.75 13.5925 3.75H10.4073ZM8.35563 3.56644C8.72336 2.76428 9.52486 2.25 10.4073 2.25H13.5925C14.4749 2.25 15.2764 2.76428 15.6441 3.56643L16.2618 4.91377H18.42C19.6457 4.91377 20.6394 5.90744 20.6394 7.1332V8.2214C20.6394 9.19047 19.8538 9.97605 18.8848 9.97605H5.11501C4.14594 9.97605 3.36035 9.19047 3.36035 8.2214V7.1332C3.36035 5.90744 4.35402 4.91377 5.57978 4.91377H7.73797L8.35563 3.56644Z" fill="black"/>
<path fill-rule="evenodd" clip-rule="evenodd" d="M5.65039 8.55078C6.0646 8.55078 6.40039 8.88657 6.40039 9.30078V17.9865C6.40039 19.2457 7.40606 20.2505 8.62696 20.2505H15.3738C16.5947 20.2505 17.6004 19.2457 17.6004 17.9865V9.30078C17.6004 8.88657 17.9362 8.55078 18.3504 8.55078C18.7646 8.55078 19.1004 8.88657 19.1004 9.30078V17.9865C19.1004 20.0564 17.4408 21.7505 15.3738 21.7505H8.62696C6.56003 21.7505 4.90039 20.0564 4.90039 17.9865V9.30078C4.90039 8.88657 5.23618 8.55078 5.65039 8.55078Z" fill="black"/>
<path fill-rule="evenodd" clip-rule="evenodd" d="M10.3096 12.0664C10.7238 12.0664 11.0596 12.4022 11.0596 12.8164V17.3248C11.0596 17.739 10.7238 18.0748 10.3096 18.0748C9.89536 18.0748 9.55957 17.739 9.55957 17.3248V12.8164C9.55957 12.4022 9.89536 12.0664 10.3096 12.0664ZM13.69 12.0664C14.1042 12.0664 14.44 12.4022 14.44 12.8164V17.3248C14.44 17.739 14.1042 18.0748 13.69 18.0748C13.2758 18.0748 12.94 17.739 12.94 17.3248V12.8164C12.94 12.4022 13.2758 12.0664 13.69 12.0664Z" fill="black"/>
</svg>
