<svg width="24" height="24" viewBox="0 0 24 24" fill="none" xmlns="http://www.w3.org/2000/svg">
<path fill-rule="evenodd" clip-rule="evenodd" d="M13.25 5C13.25 4.58579 13.5858 4.25 14 4.25H15.2698C15.5743 4.25 15.8485 4.4341 15.9639 4.7159L21.6941 18.7159C21.7888 18.9472 21.762 19.2105 21.6227 19.418C21.4834 19.6255 21.2499 19.75 21 19.75H14C13.5858 19.75 13.25 19.4142 13.25 19V5ZM14.75 5.75V18.25H19.8826L14.7664 5.75H14.75Z" fill="black"/>
<path fill-rule="evenodd" clip-rule="evenodd" d="M10.75 5C10.75 4.58579 10.4142 4.25 10 4.25H8.73023C8.42574 4.25 8.15147 4.4341 8.03612 4.7159L2.30589 18.7159C2.21122 18.9472 2.23798 19.2105 2.37727 19.418C2.51656 19.6255 2.75007 19.75 3 19.75H10C10.4142 19.75 10.75 19.4142 10.75 19V5ZM9.25 5.75V18.25H4.11737L9.23365 5.75H9.25Z" fill="black"/>
</svg>
