<svg width="24" height="24" viewBox="0 0 24 24" fill="none" xmlns="http://www.w3.org/2000/svg">
<path fill-rule="evenodd" clip-rule="evenodd" d="M3 4.89453C3.41421 4.89453 3.75 5.23032 3.75 5.64453V11.2475H10.7206V5.64453C10.7206 5.23032 11.0563 4.89453 11.4706 4.89453C11.8848 4.89453 12.2206 5.23032 12.2206 5.64453V18.3504C12.2206 18.7646 11.8848 19.1004 11.4706 19.1004C11.0563 19.1004 10.7206 18.7646 10.7206 18.3504V12.7475H3.75V18.3504C3.75 18.7646 3.41421 19.1004 3 19.1004C2.58579 19.1004 2.25 18.7646 2.25 18.3504V5.64453C2.25 5.23032 2.58579 4.89453 3 4.89453Z" fill="black"/>
<path fill-rule="evenodd" clip-rule="evenodd" d="M18.7292 10.6328C17.8898 10.6328 17.208 11.3146 17.208 12.154C17.208 12.5682 16.8722 12.904 16.458 12.904C16.0438 12.904 15.708 12.5682 15.708 12.154C15.708 10.4862 17.0614 9.13281 18.7292 9.13281C20.3971 9.13281 21.7504 10.4862 21.7504 12.154C21.7504 12.9822 21.5235 13.578 21.1984 14.1345C20.7016 14.9847 19.895 15.817 19.2371 16.4961C19.0771 16.6612 18.9259 16.8172 18.79 16.9623L18.1896 17.6034H21.0004C21.4147 17.6034 21.7504 17.9392 21.7504 18.3534C21.7504 18.7676 21.4147 19.1034 21.0004 19.1034H16.4596C16.1607 19.1034 15.8903 18.9259 15.7715 18.6517C15.6526 18.3775 15.7079 18.0588 15.9122 17.8407L17.6952 15.9369C17.8716 15.7486 18.0517 15.5621 18.2307 15.3767C18.8762 14.7084 19.5079 14.0543 19.9033 13.3778C20.1263 12.996 20.2504 12.6592 20.2504 12.154C20.2504 11.3146 19.5686 10.6328 18.7292 10.6328Z" fill="black"/>
<path fill-rule="evenodd" clip-rule="evenodd" d="M1.20898 5.64844C1.20898 5.23422 1.54477 4.89844 1.95898 4.89844H4.04062C4.45484 4.89844 4.79062 5.23422 4.79062 5.64844C4.79062 6.06265 4.45484 6.39844 4.04062 6.39844H1.95898C1.54477 6.39844 1.20898 6.06265 1.20898 5.64844ZM9.67961 5.64844C9.67961 5.23422 10.0154 4.89844 10.4296 4.89844H12.5113C12.9255 4.89844 13.2613 5.23422 13.2613 5.64844C13.2613 6.06265 12.9255 6.39844 12.5113 6.39844H10.4296C10.0154 6.39844 9.67961 6.06265 9.67961 5.64844ZM1.20898 18.3545C1.20898 17.9403 1.54477 17.6045 1.95898 17.6045H4.04062C4.45484 17.6045 4.79062 17.9403 4.79062 18.3545C4.79062 18.7687 4.45484 19.1045 4.04062 19.1045H1.95898C1.54477 19.1045 1.20898 18.7687 1.20898 18.3545ZM9.67961 18.3545C9.67961 17.9403 10.0154 17.6045 10.4296 17.6045H12.5113C12.9255 17.6045 13.2613 17.9403 13.2613 18.3545C13.2613 18.7687 12.9255 19.1045 12.5113 19.1045H10.4296C10.0154 19.1045 9.67961 18.7687 9.67961 18.3545Z" fill="black"/>
</svg>
