<svg width="24" height="24" viewBox="0 0 24 24" fill="none" xmlns="http://www.w3.org/2000/svg">
<path fill-rule="evenodd" clip-rule="evenodd" d="M3 4.89844C3.41421 4.89844 3.75 5.23422 3.75 5.64844V11.2514H10.7206V5.64844C10.7206 5.23422 11.0563 4.89844 11.4706 4.89844C11.8848 4.89844 12.2206 5.23422 12.2206 5.64844V18.3543C12.2206 18.7685 11.8848 19.1043 11.4706 19.1043C11.0563 19.1043 10.7206 18.7685 10.7206 18.3543V12.7514H3.75V18.3543C3.75 18.7685 3.41421 19.1043 3 19.1043C2.58579 19.1043 2.25 18.7685 2.25 18.3543V5.64844C2.25 5.23422 2.58579 4.89844 3 4.89844Z" fill="black"/>
<path fill-rule="evenodd" clip-rule="evenodd" d="M15.9326 16.3086C15.5184 16.3086 15.1826 15.9728 15.1826 15.5586V13.1683C15.1826 10.939 16.9898 9.13183 19.219 9.13183H19.9912C20.4054 9.13183 20.7412 9.46761 20.7412 9.88183C20.7412 10.296 20.4054 10.6318 19.9912 10.6318H19.219C17.8182 10.6318 16.6826 11.7674 16.6826 13.1683V15.5586C16.6826 15.9728 16.3468 16.3086 15.9326 16.3086Z" fill="black"/>
<path fill-rule="evenodd" clip-rule="evenodd" d="M18.4665 17.6016C19.4515 17.6016 20.25 16.8031 20.25 15.8181C20.25 14.8331 19.4515 14.0346 18.4665 14.0346C17.4815 14.0346 16.683 14.8331 16.683 15.8181C16.683 16.8031 17.4815 17.6016 18.4665 17.6016ZM21.75 15.8181C21.75 17.6315 20.2799 19.1016 18.4665 19.1016C16.6531 19.1016 15.183 17.6315 15.183 15.8181C15.183 14.0047 16.6531 12.5346 18.4665 12.5346C20.2799 12.5346 21.75 14.0047 21.75 15.8181Z" fill="black"/>
<path fill-rule="evenodd" clip-rule="evenodd" d="M1.20898 5.64844C1.20898 5.23422 1.54477 4.89844 1.95898 4.89844H4.04062C4.45484 4.89844 4.79062 5.23422 4.79062 5.64844C4.79062 6.06265 4.45484 6.39844 4.04062 6.39844H1.95898C1.54477 6.39844 1.20898 6.06265 1.20898 5.64844ZM9.67961 5.64844C9.67961 5.23422 10.0154 4.89844 10.4296 4.89844H12.5113C12.9255 4.89844 13.2613 5.23422 13.2613 5.64844C13.2613 6.06265 12.9255 6.39844 12.5113 6.39844H10.4296C10.0154 6.39844 9.67961 6.06265 9.67961 5.64844ZM1.20898 18.3545C1.20898 17.9403 1.54477 17.6045 1.95898 17.6045H4.04062C4.45484 17.6045 4.79062 17.9403 4.79062 18.3545C4.79062 18.7687 4.45484 19.1045 4.04062 19.1045H1.95898C1.54477 19.1045 1.20898 18.7687 1.20898 18.3545ZM9.67961 18.3545C9.67961 17.9403 10.0154 17.6045 10.4296 17.6045H12.5113C12.9255 17.6045 13.2613 17.9403 13.2613 18.3545C13.2613 18.7687 12.9255 19.1045 12.5113 19.1045H10.4296C10.0154 19.1045 9.67961 18.7687 9.67961 18.3545Z" fill="black"/>
</svg>
