<svg width="24" height="24" viewBox="0 0 24 24" fill="none" xmlns="http://www.w3.org/2000/svg">
<path fill-rule="evenodd" clip-rule="evenodd" d="M9.36984 10.2861C9.66274 10.579 9.66274 11.0538 9.36984 11.3467L8.77706 11.9395C7.87249 12.8441 7.87249 14.3212 8.77706 15.2258C9.67814 16.1269 11.1594 16.1297 12.0633 15.2258L12.6561 14.633C12.949 14.3401 13.4239 14.3401 13.7168 14.633C14.0097 14.9259 14.0097 15.4008 13.7168 15.6937L13.124 16.2865C11.633 17.7775 9.20196 17.772 7.7164 16.2865C6.22604 14.7961 6.22604 12.3692 7.7164 10.8789L8.30918 10.2861C8.60208 9.99318 9.07695 9.99318 9.36984 10.2861Z" fill="black"/>
<path fill-rule="evenodd" clip-rule="evenodd" d="M14.6302 13.7217C14.3373 13.4288 14.3373 12.954 14.6302 12.6611L15.2229 12.0683C16.1275 11.1637 16.1275 9.68658 15.2229 8.78202C14.3219 7.88093 12.8406 7.87811 11.9367 8.78202L11.3439 9.37481C11.051 9.6677 10.5761 9.6677 10.2832 9.37481C9.99035 9.08191 9.99035 8.60704 10.2832 8.31415L10.876 7.72136C12.367 6.23035 14.798 6.2358 16.2836 7.72136C17.774 9.21171 17.774 11.6386 16.2836 13.1289L15.6908 13.7217C15.3979 14.0146 14.923 14.0146 14.6302 13.7217Z" fill="black"/>
<path fill-rule="evenodd" clip-rule="evenodd" d="M13.8927 10.1572C14.1856 10.4501 14.1856 10.9249 13.8927 11.2178L11.1885 13.922C10.8956 14.2149 10.4208 14.2149 10.1279 13.922C9.83498 13.6291 9.83498 13.1542 10.1279 12.8613L12.8321 10.1572C13.125 9.86428 13.5998 9.86428 13.8927 10.1572Z" fill="black"/>
<path fill-rule="evenodd" clip-rule="evenodd" d="M3.74079 3.89688C4.72556 2.84084 6.12779 2.25 7.78313 2.25H16.2178C17.8771 2.25 19.2795 2.84054 20.2634 3.89733C21.2416 4.94805 21.75 6.39856 21.75 8.02638V15.9736C21.75 17.601 21.2416 19.0515 20.2633 20.1023C19.2793 21.1592 17.8766 21.75 16.2169 21.75H7.78313C6.12379 21.75 4.72117 21.1592 3.73714 20.1024C2.75872 19.0516 2.25 17.6011 2.25 15.9736V8.02638C2.25 6.39751 2.76145 4.94712 3.74079 3.89688ZM4.83783 4.91987C4.16045 5.64629 3.75 6.70908 3.75 8.02638V15.9736C3.75 17.2913 4.15879 18.354 4.83492 19.0802C5.50542 19.8003 6.49437 20.25 7.78313 20.25H16.2169C17.5062 20.25 18.4951 19.8002 19.1654 19.0802C19.8414 18.3541 20.25 17.2914 20.25 15.9736V8.02638C20.25 6.70804 19.8414 5.64536 19.1655 4.91943C18.4953 4.19956 17.5067 3.75 16.2178 3.75H7.78313C6.49913 3.75 5.50979 4.19927 4.83783 4.91987Z" fill="black"/>
</svg>
