<svg width="24" height="24" viewBox="0 0 24 24" fill="none" xmlns="http://www.w3.org/2000/svg">
<path d="M4.88702 8.216H3C2.80109 8.216 2.61032 8.13697 2.46967 7.99632C2.32901 7.85567 2.25 7.66492 2.25 7.466C2.25 7.26709 2.32901 7.07632 2.46967 6.93567C2.61032 6.79502 2.80109 6.716 3 6.716H4.88702C5.08594 6.716 5.27671 6.79502 5.41736 6.93567C5.55801 7.07632 5.63702 7.26709 5.63702 7.466C5.63702 7.66492 5.55801 7.85567 5.41736 7.99632C5.27671 8.13697 5.08594 8.216 4.88702 8.216ZM7.466 5.63699C7.26709 5.63699 7.07632 5.55798 6.93567 5.41733C6.79502 5.27668 6.716 5.08591 6.716 4.88699V3C6.716 2.80109 6.79502 2.61032 6.93567 2.46967C7.07632 2.32901 7.26709 2.25 7.466 2.25C7.66492 2.25 7.85569 2.32901 7.99634 2.46967C8.13699 2.61032 8.216 2.80109 8.216 3V4.88699C8.216 5.08591 8.13699 5.27668 7.99634 5.41733C7.85569 5.55798 7.66492 5.63699 7.466 5.63699Z" fill="black"/>
<path d="M16.5352 21.7492C16.3362 21.7492 16.1455 21.6702 16.0049 21.5296C15.8642 21.3889 15.7852 21.1981 15.7852 20.9992V19.1122C15.7852 18.9133 15.8642 18.7226 16.0049 18.5819C16.1455 18.4413 16.3362 18.3622 16.5352 18.3622C16.7341 18.3622 16.9248 18.4413 17.0655 18.5819C17.2061 18.7226 17.2852 18.9133 17.2852 19.1122V21.0002C17.2849 21.199 17.2058 21.3895 17.0652 21.5299C16.9246 21.6704 16.7339 21.7492 16.5352 21.7492ZM21.0002 17.2812H19.1122C18.9133 17.2812 18.7225 17.2022 18.5818 17.0616C18.4412 16.9209 18.3622 16.7302 18.3622 16.5312C18.3622 16.3323 18.4412 16.1416 18.5818 16.0009C18.7225 15.8603 18.9133 15.7812 19.1122 15.7812H21.0002C21.1991 15.7812 21.3899 15.8603 21.5305 16.0009C21.6712 16.1416 21.7502 16.3323 21.7502 16.5312C21.7502 16.7302 21.6712 16.9209 21.5305 17.0616C21.3899 17.2022 21.1991 17.2812 21.0002 17.2812Z" fill="black"/>
<path d="M9.31869 20.5313C8.16197 20.5305 7.03147 20.1869 6.06991 19.5439C5.10834 18.901 4.3589 17.9875 3.91622 16.9188C3.47354 15.8502 3.35748 14.6743 3.58272 13.5397C3.80797 12.4051 4.36439 11.3628 5.18172 10.5443L6.16469 9.56125C6.23385 9.48959 6.31662 9.43242 6.4081 9.39307C6.49959 9.35372 6.59795 9.33297 6.69753 9.33206C6.79711 9.33115 6.89593 9.35009 6.98812 9.38776C7.08031 9.42542 7.16407 9.48107 7.23452 9.55145C7.30497 9.62184 7.3607 9.70555 7.39846 9.7977C7.43621 9.88985 7.45525 9.98861 7.45443 10.0882C7.45361 10.1878 7.43296 10.2862 7.3937 10.3777C7.35443 10.4693 7.29733 10.552 7.22573 10.6212L6.24172 11.6053C5.43514 12.4233 4.98471 13.5271 4.98873 14.676C4.99274 15.8248 5.45086 16.9254 6.26314 17.7378C7.07542 18.5502 8.17597 19.0085 9.32479 19.0127C10.4736 19.0169 11.5775 18.5667 12.3957 17.7603L13.3817 16.7762C13.4505 16.7027 13.5334 16.6438 13.6255 16.603C13.7176 16.5621 13.8169 16.5403 13.9176 16.5387C14.0183 16.5371 14.1183 16.5558 14.2116 16.5937C14.3049 16.6316 14.3897 16.6879 14.4608 16.7593C14.5319 16.8306 14.5878 16.9156 14.6254 17.009C14.6629 17.1025 14.6812 17.2025 14.6793 17.3032C14.6773 17.4039 14.6551 17.5032 14.6139 17.5951C14.5728 17.687 14.5135 17.7697 14.4397 17.8383L13.4547 18.8213C12.9119 19.3646 12.2671 19.7954 11.5573 20.0889C10.8476 20.3823 10.0867 20.5327 9.31869 20.5313Z" fill="black"/>
<path d="M17.1838 14.78C17.0355 14.7801 16.8904 14.7361 16.7671 14.6538C16.6437 14.5715 16.5475 14.4544 16.4907 14.3174C16.4339 14.1804 16.4189 14.0296 16.4478 13.8841C16.4766 13.7386 16.548 13.6049 16.6528 13.5L17.6448 12.509C18.2541 11.9012 18.6692 11.1262 18.8376 10.2822C19.006 9.43826 18.92 8.56329 18.5905 7.76824C18.2611 6.97318 17.703 6.29385 16.987 5.81633C16.271 5.33882 15.4294 5.08463 14.5688 5.08599C13.9976 5.08373 13.4316 5.19462 12.9035 5.41225C12.3754 5.62988 11.8956 5.94996 11.4918 6.35399L10.5018 7.34398C10.3604 7.48067 10.171 7.55637 9.97434 7.55475C9.77769 7.55314 9.58953 7.47434 9.45041 7.33534C9.31129 7.19635 9.2323 7.00828 9.2305 6.81163C9.2287 6.61498 9.30421 6.4255 9.44077 6.28398L10.4318 5.29399C10.9741 4.74979 11.619 4.31859 12.3291 4.02541C13.0393 3.73222 13.8005 3.58286 14.5688 3.58599C15.7247 3.58748 16.8543 3.93133 17.815 4.57416C18.7757 5.21699 19.5245 6.12999 19.9669 7.19794C20.4092 8.26589 20.5253 9.44094 20.3005 10.5748C20.0757 11.7087 19.5201 12.7506 18.7038 13.569L17.7128 14.56C17.6434 14.6297 17.561 14.685 17.4702 14.7227C17.3795 14.7605 17.2821 14.7799 17.1838 14.78Z" fill="black"/>
</svg>
