<svg width="24" height="24" viewBox="0 0 24 24" fill="none" xmlns="http://www.w3.org/2000/svg">
<path fill-rule="evenodd" clip-rule="evenodd" d="M2.25 11.9991C2.25 8.71486 4.92578 6.03906 8.20999 6.03906H9.63101C10.0452 6.03906 10.381 6.37485 10.381 6.78906C10.381 7.20328 10.0452 7.53906 9.63101 7.53906H8.20999C5.75421 7.53906 3.75 9.54328 3.75 11.9991C3.75 14.4465 5.75486 16.4581 8.20999 16.4581H9.63101C10.0452 16.4581 10.381 16.7939 10.381 17.2081C10.381 17.6223 10.0452 17.9581 9.63101 17.9581H8.20999C4.92512 17.9581 2.25 15.2736 2.25 11.9991Z" fill="black"/>
<path fill-rule="evenodd" clip-rule="evenodd" d="M21.75 11.9991C21.75 8.71486 19.0742 6.03906 15.79 6.03906H14.369C13.9548 6.03906 13.619 6.37485 13.619 6.78906C13.619 7.20328 13.9548 7.53906 14.369 7.53906H15.79C18.2458 7.53906 20.25 9.54328 20.25 11.9991C20.25 14.4465 18.2451 16.4581 15.79 16.4581H14.369C13.9548 16.4581 13.619 16.7939 13.619 17.2081C13.619 17.6223 13.9548 17.9581 14.369 17.9581H15.79C19.0749 17.9581 21.75 15.2736 21.75 11.9991Z" fill="black"/>
<path fill-rule="evenodd" clip-rule="evenodd" d="M7.9707 12C7.9707 11.5858 8.30649 11.25 8.7207 11.25H15.2801C15.6943 11.25 16.0301 11.5858 16.0301 12C16.0301 12.4142 15.6943 12.75 15.2801 12.75H8.7207C8.30649 12.75 7.9707 12.4142 7.9707 12Z" fill="black"/>
</svg>
