<svg width="24" height="24" viewBox="0 0 24 24" fill="none" xmlns="http://www.w3.org/2000/svg">
<path fill-rule="evenodd" clip-rule="evenodd" d="M13.25 5.7C13.25 4.3469 14.3469 3.25 15.7 3.25H18.3C19.6531 3.25 20.75 4.3469 20.75 5.7V8.3C20.75 9.6531 19.6531 10.75 18.3 10.75H15.7C14.3469 10.75 13.25 9.6531 13.25 8.3V5.7ZM15.7 4.75C15.1753 4.75 14.75 5.17533 14.75 5.7V8.3C14.75 8.82467 15.1753 9.25 15.7 9.25H18.3C18.8247 9.25 19.25 8.82467 19.25 8.3V5.7C19.25 5.17533 18.8247 4.75 18.3 4.75H15.7Z" fill="black"/>
<path fill-rule="evenodd" clip-rule="evenodd" d="M13.25 15.7C13.25 14.3469 14.3469 13.25 15.7 13.25H18.3C19.6531 13.25 20.75 14.3469 20.75 15.7V18.3C20.75 19.6531 19.6531 20.75 18.3 20.75H15.7C14.3469 20.75 13.25 19.6531 13.25 18.3V15.7ZM15.7 14.75C15.1753 14.75 14.75 15.1753 14.75 15.7V18.3C14.75 18.8247 15.1753 19.25 15.7 19.25H18.3C18.8247 19.25 19.25 18.8247 19.25 18.3V15.7C19.25 15.1753 18.8247 14.75 18.3 14.75H15.7Z" fill="black"/>
<path fill-rule="evenodd" clip-rule="evenodd" d="M5.22703 8.6015C3.96116 9.86737 3.25 11.5843 3.25 13.3745C3.25 15.1647 3.96116 16.8816 5.22703 18.1474C6.4929 19.4133 8.20979 20.1245 10 20.1245C10.4142 20.1245 10.75 19.7887 10.75 19.3745C10.75 18.9603 10.4142 18.6245 10 18.6245C8.60761 18.6245 7.27226 18.0713 6.28769 17.0868C5.30312 16.1022 4.75 14.7669 4.75 13.3745C4.75 11.9821 5.30312 10.6467 6.28769 9.66216C7.46033 8.48951 8.88091 7.86086 10.9337 7.73694C11.3472 7.71198 11.6621 7.35657 11.6372 6.94311C11.6122 6.52965 11.2568 6.21471 10.8433 6.23967C8.47867 6.38241 6.69477 7.13375 5.22703 8.6015Z" fill="black"/>
<path fill-rule="evenodd" clip-rule="evenodd" d="M7.74458 5.17323C7.53965 5.5332 7.66534 5.99114 8.0253 6.19607L9.90318 7.26515L8.8341 9.14302C8.62917 9.50299 8.75485 9.96093 9.11482 10.1659C9.47479 10.3708 9.93273 10.2451 10.1377 9.88514L11.5778 7.35549C11.7827 6.99552 11.657 6.53758 11.2971 6.33265L8.76742 4.89251C8.40746 4.68758 7.94952 4.81326 7.74458 5.17323Z" fill="black"/>
</svg>
