<svg width="24" height="24" viewBox="0 0 24 24" fill="none" xmlns="http://www.w3.org/2000/svg">
<path d="M12.3192 20.2699C12.0892 20.2699 11.8592 20.1599 11.7092 19.9599C11.4692 19.6199 11.5492 19.1499 11.8792 18.9099C12.1992 18.6799 12.4892 18.3999 12.7392 18.0899C12.6392 18.1299 12.5392 18.1599 12.4192 18.1399C11.6692 18.1099 10.9492 17.7599 10.4492 17.1999C9.80919 16.4799 9.59919 15.4999 9.86919 14.5599C10.1392 13.6499 10.8292 12.9699 11.7192 12.7199C12.7992 12.4199 14.0092 12.8499 14.6592 13.7699C15.2192 14.5599 15.3492 15.6499 15.0292 16.8199C14.6692 18.1499 13.8492 19.3199 12.7392 20.1199C12.6092 20.2099 12.4492 20.2599 12.2992 20.2599L12.3192 20.2699ZM12.4292 14.1299C12.3292 14.1299 12.2292 14.1399 12.1292 14.1699C11.7292 14.2799 11.4392 14.5799 11.3192 14.9899C11.1892 15.4299 11.2892 15.8799 11.5792 16.2099C11.8092 16.4699 12.1492 16.6299 12.4892 16.6499C12.8892 16.6699 13.1992 16.9999 13.2092 17.3999C13.3792 17.0999 13.5092 16.7699 13.5992 16.4399C13.7992 15.7199 13.7392 15.0599 13.4492 14.6499C13.2292 14.3299 12.8192 14.1399 12.4292 14.1399V14.1299Z" fill="black"/>
<path d="M18.8592 20.2699C18.6292 20.2699 18.3992 20.1599 18.2492 19.9599C18.0092 19.6199 18.0892 19.1499 18.4192 18.9099C18.7392 18.6799 19.0292 18.3999 19.2792 18.0899C19.1792 18.1299 19.0792 18.1599 18.9592 18.1399C18.2092 18.1099 17.4892 17.7599 16.9892 17.1999C16.3492 16.4799 16.1392 15.4999 16.4092 14.5599C16.6792 13.6499 17.3692 12.9699 18.2592 12.7199C19.3392 12.4199 20.5492 12.8499 21.1992 13.7699C21.7592 14.5599 21.8892 15.6499 21.5692 16.8199C21.2092 18.1499 20.3992 19.3199 19.2792 20.1199C19.1492 20.2199 18.9892 20.2599 18.8392 20.2599L18.8592 20.2699ZM18.9792 14.1299C18.8792 14.1299 18.7792 14.1399 18.6792 14.1699C18.2792 14.2799 17.9892 14.5799 17.8692 14.9899C17.7392 15.4299 17.8392 15.8799 18.1292 16.2099C18.3592 16.4699 18.6992 16.6299 19.0392 16.6499C19.4392 16.6699 19.7492 16.9999 19.7592 17.3999C19.9292 17.0899 20.0592 16.7699 20.1492 16.4399C20.3492 15.7199 20.2892 15.0599 19.9992 14.6499C19.7792 14.3299 19.3692 14.1399 18.9792 14.1399V14.1299Z" fill="black"/>
<path d="M7.91928 19.06H3.00928C2.59928 19.06 2.25928 18.72 2.25928 18.31C2.25928 17.9 2.59928 17.56 3.00928 17.56H7.91928C8.32928 17.56 8.66928 17.9 8.66928 18.31C8.66928 18.72 8.32928 19.06 7.91928 19.06ZM7.91928 14.46H3.00928C2.59928 14.46 2.25928 14.12 2.25928 13.71C2.25928 13.3 2.59928 12.96 3.00928 12.96H7.91928C8.32928 12.96 8.66928 13.3 8.66928 13.71C8.66928 14.12 8.32928 14.46 7.91928 14.46ZM20.4693 9.83997H3.00928C2.59928 9.83997 2.25928 9.49997 2.25928 9.08997C2.25928 8.67997 2.59928 8.33997 3.00928 8.33997H20.4693C20.8793 8.33997 21.2193 8.67997 21.2193 9.08997C21.2193 9.49997 20.8793 9.83997 20.4693 9.83997ZM20.4693 5.22998H3.01928C2.60928 5.22998 2.26928 4.88998 2.26928 4.47998C2.26928 4.06998 2.60928 3.72998 3.01928 3.72998H20.4693C20.8793 3.72998 21.2193 4.06998 21.2193 4.47998C21.2193 4.88998 20.8793 5.22998 20.4693 5.22998Z" fill="black"/>
</svg>
