<svg width="24" height="24" viewBox="0 0 24 24" fill="none" xmlns="http://www.w3.org/2000/svg">
<path d="M11.5806 11.3694C10.7106 11.3694 9.85065 10.9494 9.34065 10.2194C8.78065 9.42941 8.65065 8.3494 8.97065 7.1694C9.33065 5.8394 10.1506 4.66941 11.2606 3.86941C11.6006 3.62941 12.0606 3.70941 12.3106 4.03941C12.5506 4.37941 12.4706 4.8494 12.1406 5.0894C11.8206 5.3194 11.5306 5.59941 11.2806 5.90941C11.3806 5.86941 11.4806 5.84941 11.6006 5.85941C12.3506 5.88941 13.0706 6.23941 13.5706 6.79941C14.2106 7.51941 14.4206 8.49941 14.1506 9.43941C13.8806 10.3494 13.1906 11.0294 12.3006 11.2794C12.0706 11.3394 11.8306 11.3694 11.6006 11.3694H11.5806ZM10.8006 6.60941C10.6306 6.91941 10.5006 7.23941 10.4106 7.56941C10.2106 8.28941 10.2706 8.94941 10.5606 9.35941C10.8406 9.75941 11.4107 9.95941 11.8707 9.82941C12.2707 9.71941 12.5606 9.41941 12.6806 9.00941C12.8106 8.56941 12.7106 8.11941 12.4206 7.78941C12.1906 7.52941 11.8506 7.3694 11.5006 7.3494C11.1006 7.3294 10.7906 6.9994 10.7806 6.5994L10.8006 6.60941Z" fill="black"/>
<path d="M5.03084 11.3694C4.16084 11.3694 3.30084 10.9494 2.79084 10.2194C2.23084 9.42941 2.10084 8.3494 2.42084 7.1694C2.78084 5.8394 3.59084 4.66941 4.71084 3.86941C5.05084 3.62941 5.52084 3.70941 5.76084 4.03941C6.00084 4.37941 5.92084 4.8494 5.59084 5.0894C5.27084 5.3194 4.98084 5.59941 4.73084 5.90941C4.83084 5.86941 4.93084 5.84941 5.05084 5.85941C5.80084 5.88941 6.52084 6.23941 7.02084 6.79941C7.66084 7.51941 7.87084 8.49941 7.60084 9.43941C7.33084 10.3494 6.64084 11.0294 5.75084 11.2794C5.52084 11.3394 5.28084 11.3694 5.05084 11.3694H5.03084ZM4.25084 6.60941C4.08084 6.90941 3.95084 7.23941 3.86084 7.56941C3.66084 8.28941 3.72084 8.94941 4.01084 9.35941C4.29084 9.75941 4.85084 9.95941 5.32084 9.82941C5.72084 9.71941 6.01084 9.41941 6.13084 9.00941C6.26084 8.56941 6.16084 8.11941 5.87084 7.78941C5.64084 7.52941 5.30084 7.3694 4.95084 7.3494C4.55084 7.3294 4.24084 6.9994 4.23084 6.5994L4.25084 6.60941Z" fill="black"/>
<path d="M21.0008 20.2694H3.55078C3.14078 20.2694 2.80078 19.9294 2.80078 19.5194C2.80078 19.1094 3.14078 18.7694 3.55078 18.7694H21.0008C21.4108 18.7694 21.7508 19.1094 21.7508 19.5194C21.7508 19.9294 21.4108 20.2694 21.0008 20.2694ZM21.0008 15.6595H3.55078C3.14078 15.6595 2.80078 15.3195 2.80078 14.9095C2.80078 14.4995 3.14078 14.1595 3.55078 14.1595H21.0008C21.4108 14.1595 21.7508 14.4995 21.7508 14.9095C21.7508 15.3195 21.4108 15.6595 21.0008 15.6595ZM21.0008 11.0495H16.0908C15.6808 11.0495 15.3408 10.7095 15.3408 10.2995C15.3408 9.88945 15.6808 9.54945 16.0908 9.54945H21.0008C21.4108 9.54945 21.7508 9.88945 21.7508 10.2995C21.7508 10.7095 21.4108 11.0495 21.0008 11.0495ZM21.0008 6.43945H16.0908C15.6808 6.43945 15.3408 6.09945 15.3408 5.68945C15.3408 5.27945 15.6808 4.93945 16.0908 4.93945H21.0008C21.4108 4.93945 21.7508 5.27945 21.7508 5.68945C21.7508 6.09945 21.4108 6.43945 21.0008 6.43945Z" fill="black"/>
</svg>
