<svg width="24" height="24" viewBox="0 0 24 24" fill="none" xmlns="http://www.w3.org/2000/svg">
<path d="M20.6138 19.9888C20.5154 19.989 20.4179 19.9697 20.327 19.9322C20.236 19.8946 20.1534 19.8394 20.0838 19.7698L18.3698 18.0558C17.3894 18.7691 16.1762 19.0865 14.9721 18.9446C13.768 18.8027 12.6617 18.212 11.874 17.2904C11.0862 16.3687 10.675 15.1839 10.7224 13.9724C10.7698 12.7609 11.2723 11.6119 12.1296 10.7546C12.9869 9.89729 14.136 9.39482 15.3475 9.34743C16.559 9.30005 17.7437 9.7112 18.6654 10.4989C19.587 11.2866 20.1778 12.393 20.3196 13.5971C20.4615 14.8012 20.1441 16.0144 19.4308 16.9948L21.1448 18.7088C21.2496 18.8137 21.321 18.9474 21.3498 19.0929C21.3787 19.2384 21.3637 19.3892 21.3069 19.5262C21.2501 19.6632 21.1539 19.7802 21.0305 19.8626C20.9071 19.9449 20.7621 19.9889 20.6138 19.9888ZM15.5338 10.8438C14.8776 10.8433 14.236 11.0375 13.6902 11.4019C13.1445 11.7662 12.7191 12.2842 12.4679 12.8905C12.2167 13.4967 12.151 14.1638 12.2792 14.8074C12.4073 15.451 12.7235 16.0421 13.1878 16.5058C13.8202 17.1089 14.6605 17.4453 15.5343 17.4453C16.4081 17.4453 17.2485 17.1089 17.8808 16.5058C18.3451 16.042 18.6614 15.4508 18.7895 14.8072C18.9176 14.1635 18.8519 13.4963 18.6005 12.89C18.3492 12.2838 17.9237 11.7657 17.3777 11.4015C16.8318 11.0372 16.1901 10.8431 15.5338 10.8438Z" fill="black"/>
<path d="M7.5 19.0156H3C2.80109 19.0156 2.61032 18.9366 2.46967 18.796C2.32901 18.6553 2.25 18.4645 2.25 18.2656C2.25 18.0667 2.32901 17.8759 2.46967 17.7353C2.61032 17.5946 2.80109 17.5156 3 17.5156H7.5C7.69891 17.5156 7.88968 17.5946 8.03033 17.7353C8.17099 17.8759 8.25 18.0667 8.25 18.2656C8.25 18.4645 8.17099 18.6553 8.03033 18.796C7.88968 18.9366 7.69891 19.0156 7.5 19.0156ZM7.5 12.2656H3C2.80109 12.2656 2.61032 12.1866 2.46967 12.046C2.32901 11.9053 2.25 11.7145 2.25 11.5156C2.25 11.3167 2.32901 11.1259 2.46967 10.9853C2.61032 10.8446 2.80109 10.7656 3 10.7656H7.5C7.69891 10.7656 7.88968 10.8446 8.03033 10.9853C8.17099 11.1259 8.25 11.3167 8.25 11.5156C8.25 11.7145 8.17099 11.9053 8.03033 12.046C7.88968 12.1866 7.69891 12.2656 7.5 12.2656ZM21 5.51562H3C2.80109 5.51562 2.61032 5.43661 2.46967 5.29596C2.32901 5.15531 2.25 4.96454 2.25 4.76562C2.25 4.56671 2.32901 4.37594 2.46967 4.23529C2.61032 4.09464 2.80109 4.01562 3 4.01562H21C21.1989 4.01562 21.3897 4.09464 21.5303 4.23529C21.671 4.37594 21.75 4.56671 21.75 4.76562C21.75 4.96454 21.671 5.15531 21.5303 5.29596C21.3897 5.43661 21.1989 5.51562 21 5.51562Z" fill="black"/>
</svg>
