<svg width="24" height="24" viewBox="0 0 24 24" fill="none" xmlns="http://www.w3.org/2000/svg">
<path fill-rule="evenodd" clip-rule="evenodd" d="M17.1766 5.60156C17.3755 5.60158 17.5663 5.68063 17.7069 5.82131L20.53 8.64529C20.8229 8.93823 20.8228 9.4131 20.5299 9.70595C20.2369 9.9988 19.7621 9.99873 19.4692 9.70579L17.9266 8.1627L17.9271 17.6466C17.9271 18.0608 17.5913 18.3966 17.1771 18.3966C16.7629 18.3966 16.4271 18.0609 16.4271 17.6466L16.4266 8.16214L14.8829 9.70587C14.59 9.99876 14.1151 9.99876 13.8222 9.70587C13.5293 9.41298 13.5293 8.9381 13.8222 8.64521L16.6462 5.82123C16.7869 5.68057 16.9776 5.60155 17.1766 5.60156Z" fill="black"/>
<path fill-rule="evenodd" clip-rule="evenodd" d="M3.25 6.35156C3.25 5.93735 3.58579 5.60156 4 5.60156H10.589C11.0032 5.60156 11.339 5.93735 11.339 6.35156C11.339 6.76578 11.0032 7.10156 10.589 7.10156H4C3.58579 7.10156 3.25 6.76578 3.25 6.35156ZM3.25 11.9998C3.25 11.5855 3.58579 11.2498 4 11.2498H10.589C11.0032 11.2498 11.339 11.5855 11.339 11.9998C11.339 12.414 11.0032 12.7498 10.589 12.7498H4C3.58579 12.7498 3.25 12.414 3.25 11.9998ZM3.25 17.6471C3.25 17.2329 3.58579 16.8971 4 16.8971H12.4711C12.8853 16.8971 13.2211 17.2329 13.2211 17.6471C13.2211 18.0613 12.8853 18.3971 12.4711 18.3971H4C3.58579 18.3971 3.25 18.0613 3.25 17.6471Z" fill="black"/>
</svg>
