<svg width="24" height="24" viewBox="0 0 24 24" fill="none" xmlns="http://www.w3.org/2000/svg">
<path fill-rule="evenodd" clip-rule="evenodd" d="M7.41983 5.1875C7.83404 5.1875 8.16983 5.52329 8.16983 5.9375V15.7632L9.79859 14.1344C10.0915 13.8415 10.5664 13.8415 10.8592 14.1344C11.1521 14.4273 11.1521 14.9022 10.8592 15.1951L7.95016 18.1042C7.65727 18.3971 7.18239 18.3971 6.8895 18.1042L3.98041 15.1951C3.68752 14.9022 3.68752 14.4273 3.98041 14.1344C4.27331 13.8415 4.74818 13.8415 5.04107 14.1344L6.66983 15.7632V5.9375C6.66983 5.52329 7.00562 5.1875 7.41983 5.1875Z" fill="black"/>
<path fill-rule="evenodd" clip-rule="evenodd" d="M14.5449 18.4219C14.5449 18.0077 14.8807 17.6719 15.2949 17.6719H18.8304C19.2446 17.6719 19.5804 18.0077 19.5804 18.4219C19.5804 18.8361 19.2446 19.1719 18.8304 19.1719H15.2949C14.8807 19.1719 14.5449 18.8361 14.5449 18.4219Z" fill="black"/>
<path fill-rule="evenodd" clip-rule="evenodd" d="M17.0612 13.4297C17.3638 13.4297 17.6367 13.6116 17.7533 13.8909L20.1814 19.71C20.3409 20.0923 20.1603 20.5315 19.7781 20.691C19.3958 20.8505 18.9566 20.6699 18.7971 20.2876L17.061 16.127L15.3242 20.2877C15.1646 20.67 14.7254 20.8505 14.3431 20.691C13.9609 20.5314 13.7803 20.0922 13.9399 19.7099L16.369 13.8908C16.4856 13.6115 16.7586 13.4297 17.0612 13.4297Z" fill="black"/>
<path fill-rule="evenodd" clip-rule="evenodd" d="M14.3701 4C14.3701 3.58579 14.7059 3.25 15.1201 3.25H18.9989C19.2755 3.25 19.5296 3.40224 19.6602 3.64611C19.7907 3.88997 19.7764 4.18588 19.6229 4.41603L16.5215 9.06817H18.9989C19.4131 9.06817 19.7489 9.40396 19.7489 9.81817C19.7489 10.2324 19.4131 10.5682 18.9989 10.5682H15.1201C14.8435 10.5682 14.5894 10.4159 14.4589 10.1721C14.3283 9.9282 14.3427 9.63229 14.4961 9.40215L17.5975 4.75H15.1201C14.7059 4.75 14.3701 4.41421 14.3701 4Z" fill="black"/>
</svg>
