<svg width="24" height="24" viewBox="0 0 24 24" fill="none" xmlns="http://www.w3.org/2000/svg">
<path fill-rule="evenodd" clip-rule="evenodd" d="M7.41983 5.1875C7.83405 5.1875 8.16983 5.52329 8.16983 5.9375V15.7632L9.79859 14.1344C10.0915 13.8415 10.5664 13.8415 10.8593 14.1344C11.1521 14.4273 11.1521 14.9022 10.8593 15.1951L7.95016 18.1042C7.65727 18.3971 7.1824 18.3971 6.8895 18.1042L3.98041 15.1951C3.68752 14.9022 3.68752 14.4273 3.98041 14.1344C4.27331 13.8415 4.74818 13.8415 5.04107 14.1344L6.66983 15.7632V5.9375C6.66983 5.52329 7.00562 5.1875 7.41983 5.1875Z" fill="black"/>
<path fill-rule="evenodd" clip-rule="evenodd" d="M14.3701 14.1836C14.3701 13.7694 14.7059 13.4336 15.1201 13.4336H18.9989C19.2755 13.4336 19.5296 13.5858 19.6602 13.8297C19.7907 14.0736 19.7764 14.3695 19.6229 14.5996L16.5215 19.2518H18.9989C19.4131 19.2518 19.7489 19.5876 19.7489 20.0018C19.7489 20.416 19.4131 20.7518 18.9989 20.7518H15.1201C14.8435 20.7518 14.5894 20.5995 14.4589 20.3557C14.3283 20.1118 14.3427 19.8159 14.4961 19.5858L17.5975 14.9336H15.1201C14.7059 14.9336 14.3701 14.5978 14.3701 14.1836Z" fill="black"/>
<path fill-rule="evenodd" clip-rule="evenodd" d="M14.543 8.24219C14.543 7.82797 14.8788 7.49219 15.293 7.49219H18.8285C19.2427 7.49219 19.5785 7.82797 19.5785 8.24219C19.5785 8.6564 19.2427 8.99219 18.8285 8.99219H15.293C14.8788 8.99219 14.543 8.6564 14.543 8.24219Z" fill="black"/>
<path fill-rule="evenodd" clip-rule="evenodd" d="M17.0609 3.25C17.3635 3.25002 17.6365 3.43191 17.753 3.71119L20.1812 9.53034C20.3407 9.91261 20.1601 10.3518 19.7778 10.5113C19.3955 10.6708 18.9563 10.4902 18.7968 10.108L17.0607 5.94729L15.3239 10.1081C15.1643 10.4903 14.7251 10.6708 14.3429 10.5113C13.9606 10.3517 13.7801 9.91249 13.9397 9.53024L16.3688 3.71109C16.4853 3.43182 16.7583 3.24998 17.0609 3.25Z" fill="black"/>
</svg>
