<svg width="24" height="24" viewBox="0 0 24 24" fill="none" xmlns="http://www.w3.org/2000/svg">
<path fill-rule="evenodd" clip-rule="evenodd" d="M7.24792 5.21094C7.44741 5.21093 7.63867 5.2904 7.77942 5.43176L10.8304 8.49598C11.1226 8.7895 11.1216 9.26438 10.8281 9.55663C10.5345 9.84889 10.0597 9.84786 9.76741 9.55433L7.99794 7.77717V13.557C7.99794 13.9713 7.66216 14.307 7.24794 14.307C6.83373 14.307 6.49794 13.9713 6.49794 13.557V7.77728L4.72877 9.55431C4.43652 9.84785 3.96165 9.8489 3.66811 9.55666C3.37457 9.26441 3.37352 8.78954 3.66576 8.496L6.71644 5.43178C6.85718 5.29042 7.04844 5.21094 7.24792 5.21094Z" fill="black"/>
<path fill-rule="evenodd" clip-rule="evenodd" d="M12.7931 6.47656C12.7931 6.06235 13.1289 5.72656 13.5431 5.72656H19.9993C20.4135 5.72656 20.7493 6.06235 20.7493 6.47656C20.7493 6.89078 20.4135 7.22656 19.9993 7.22656H13.5431C13.1289 7.22656 12.7931 6.89078 12.7931 6.47656ZM12.7931 12.3524C12.7931 11.9382 13.1289 11.6024 13.5431 11.6024H19.9993C20.4135 11.6024 20.7493 11.9382 20.7493 12.3524C20.7493 12.7666 20.4135 13.1024 19.9993 13.1024H13.5431C13.1289 13.1024 12.7931 12.7666 12.7931 12.3524ZM3.25 18.0374C3.25 17.6232 3.58579 17.2874 4 17.2874H20C20.4142 17.2874 20.75 17.6232 20.75 18.0374C20.75 18.4516 20.4142 18.7874 20 18.7874H4C3.58579 18.7874 3.25 18.4516 3.25 18.0374Z" fill="black"/>
</svg>
