<svg width="24" height="24" viewBox="0 0 24 24" fill="none" xmlns="http://www.w3.org/2000/svg">
<path fill-rule="evenodd" clip-rule="evenodd" d="M3.74079 3.89688C4.72556 2.84084 6.12779 2.25 7.78313 2.25H16.2178C17.8771 2.25 19.2795 2.84054 20.2634 3.89733C21.2416 4.94805 21.75 6.39856 21.75 8.02638V15.9736C21.75 17.601 21.2416 19.0515 20.2633 20.1023C19.2793 21.1592 17.8766 21.75 16.2169 21.75H7.78313C6.12379 21.75 4.72117 21.1592 3.73714 20.1024C2.75872 19.0516 2.25 17.6011 2.25 15.9736V8.02638C2.25 6.39751 2.76145 4.94712 3.74079 3.89688ZM4.83783 4.91987C4.16045 5.64629 3.75 6.70908 3.75 8.02638V15.9736C3.75 17.2913 4.15879 18.354 4.83492 19.0802C5.50542 19.8003 6.49437 20.25 7.78313 20.25H16.2169C17.5062 20.25 18.4951 19.8002 19.1654 19.0802C19.8414 18.3541 20.25 17.2914 20.25 15.9736V8.02638C20.25 6.70804 19.8414 5.64536 19.1655 4.91943C18.4953 4.19956 17.5067 3.75 16.2178 3.75H7.78313C6.49913 3.75 5.50979 4.19927 4.83783 4.91987Z" fill="black"/>
<path fill-rule="evenodd" clip-rule="evenodd" d="M11.4752 13.2636C11.7664 12.9799 12.2307 12.9798 12.522 13.2635L15.2677 15.9383C15.5644 16.2273 15.5707 16.7021 15.2816 16.9988C14.9926 17.2955 14.5178 17.3017 14.2211 17.0127L11.9988 14.8479L9.77734 17.0126C9.48068 17.3017 9.00585 17.2956 8.71677 16.9989C8.42768 16.7023 8.43382 16.2274 8.73048 15.9383L11.4752 13.2636Z" fill="black"/>
<path fill-rule="evenodd" clip-rule="evenodd" d="M8.71677 7C9.00585 6.70335 9.48069 6.69722 9.77734 6.9863L11.9995 9.15181L14.2209 6.98639C14.5175 6.69726 14.9923 6.70331 15.2814 6.99991C15.5706 7.29651 15.5645 7.77135 15.2679 8.06048L12.5232 10.7362C12.2319 11.0201 11.7675 11.0201 11.4762 10.7363L8.73047 8.06058C8.43382 7.77149 8.42768 7.29666 8.71677 7Z" fill="black"/>
</svg>
