<svg width="24" height="24" viewBox="0 0 24 24" fill="none" xmlns="http://www.w3.org/2000/svg">
<path fill-rule="evenodd" clip-rule="evenodd" d="M9.01982 5.13281C9.43404 5.13281 9.76982 5.4686 9.76982 5.88281V17.3681H11.7896C12.2038 17.3681 12.5396 17.7039 12.5396 18.1181C12.5396 18.5323 12.2038 18.8681 11.7896 18.8681H6.36621C5.952 18.8681 5.61621 18.5323 5.61621 18.1181C5.61621 17.7039 5.952 17.3681 6.36621 17.3681H8.26982V5.88281C8.26982 5.4686 8.60561 5.13281 9.01982 5.13281Z" fill="black"/>
<path fill-rule="evenodd" clip-rule="evenodd" d="M2.25 5.88281C2.25 5.4686 2.58579 5.13281 3 5.13281H15.1558C15.5701 5.13281 15.9058 5.4686 15.9058 5.88281V8.03907C15.9058 8.45329 15.5701 8.78907 15.1558 8.78907C14.7416 8.78907 14.4058 8.45329 14.4058 8.03907V6.63281H3.75V8.03907C3.75 8.45329 3.41421 8.78907 3 8.78907C2.58579 8.78907 2.25 8.45329 2.25 8.03907V5.88281Z" fill="black"/>
<path fill-rule="evenodd" clip-rule="evenodd" d="M14.9844 11.2392C15.2773 11.5321 15.2773 12.007 14.9844 12.2999L14.3946 12.8897H19.1889L18.5991 12.2999C18.3062 12.007 18.3062 11.5321 18.5991 11.2392C18.892 10.9463 19.3669 10.9463 19.6598 11.2392L21.5299 13.1093C21.6706 13.25 21.7496 13.4407 21.7496 13.6397C21.7496 13.8386 21.6706 14.0293 21.5299 14.17L19.6598 16.0401C19.3669 16.333 18.892 16.333 18.5991 16.0401C18.3062 15.7472 18.3062 15.2724 18.5991 14.9795L19.1889 14.3897H14.3946L14.9844 14.9795C15.2773 15.2724 15.2773 15.7472 14.9844 16.0401C14.6916 16.333 14.2167 16.333 13.9238 16.0401L12.0537 14.17C11.7608 13.8771 11.7608 13.4022 12.0537 13.1093L13.9238 11.2392C14.2167 10.9463 14.6916 10.9463 14.9844 11.2392Z" fill="black"/>
</svg>
