<svg width="24" height="24" viewBox="0 0 24 24" fill="none" xmlns="http://www.w3.org/2000/svg">
<path fill-rule="evenodd" clip-rule="evenodd" d="M7.78242 15.7861C7.48953 15.4932 7.01466 15.4932 6.72176 15.7861L4.38023 18.1276C4.08734 18.4205 4.08734 18.8954 4.38023 19.1883L6.72176 21.5298C7.01466 21.8227 7.48953 21.8227 7.78242 21.5298C8.07532 21.2369 8.07532 20.762 7.78242 20.4691L6.72122 19.4079H19.0898C19.5041 19.4079 19.8398 19.0722 19.8398 18.6579C19.8398 18.2437 19.5041 17.9079 19.0898 17.9079H6.72122L7.78242 16.8467C8.07532 16.5538 8.07532 16.079 7.78242 15.7861Z" fill="black"/>
<path fill-rule="evenodd" clip-rule="evenodd" d="M4.76855 6.65365C4.76855 4.22158 6.74013 2.25 9.1722 2.25H15.9575C16.3718 2.25 16.7075 2.58579 16.7075 3C16.7075 3.41421 16.3718 3.75 15.9575 3.75H9.1722C7.56856 3.75 6.26855 5.05001 6.26855 6.65365C6.26855 8.25729 7.56856 9.55729 9.1722 9.55729H9.69415C10.1084 9.55729 10.4442 9.89308 10.4442 10.3073C10.4442 10.7215 10.1084 11.0573 9.69415 11.0573H9.1722C6.74013 11.0573 4.76855 9.08571 4.76855 6.65365Z" fill="black"/>
<path fill-rule="evenodd" clip-rule="evenodd" d="M13.8706 2.25C14.2848 2.25 14.6206 2.58579 14.6206 3V14.4829C14.6206 14.8971 14.2848 15.2329 13.8706 15.2329C13.4564 15.2329 13.1206 14.8971 13.1206 14.4829V3C13.1206 2.58579 13.4564 2.25 13.8706 2.25Z" fill="black"/>
<path fill-rule="evenodd" clip-rule="evenodd" d="M9.69482 2.25C10.109 2.25 10.4448 2.58579 10.4448 3V14.4829C10.4448 14.8971 10.109 15.2329 9.69482 15.2329C9.28061 15.2329 8.94482 14.8971 8.94482 14.4829V3C8.94482 2.58579 9.28061 2.25 9.69482 2.25Z" fill="black"/>
</svg>
