<svg width="24" height="24" viewBox="0 0 24 24" fill="none" xmlns="http://www.w3.org/2000/svg">
<path fill-rule="evenodd" clip-rule="evenodd" d="M4.83492 4.91984C4.15879 5.64597 3.75 6.70868 3.75 8.02638V15.9736C3.75 17.2909 4.16045 18.3537 4.83783 19.0801C5.50979 19.8007 6.49913 20.25 7.78313 20.25H16.2178C17.5067 20.25 18.4953 19.8004 19.1655 19.0806C19.8414 18.3546 20.25 17.292 20.25 15.9736V8.02638C20.25 6.70858 19.8414 5.64588 19.1654 4.9198C18.4951 4.19978 17.5062 3.75 16.2169 3.75H7.78313C6.49437 3.75 5.50542 4.19975 4.83492 4.91984ZM3.73714 3.89765C4.72117 2.84085 6.12379 2.25 7.78313 2.25H16.2169C17.8766 2.25 19.2793 2.84081 20.2633 3.89769C21.2416 4.9485 21.75 6.39899 21.75 8.02638V15.9736C21.75 17.6014 21.2416 19.052 20.2634 20.1027C19.2795 21.1595 17.8771 21.75 16.2178 21.75H7.78313C6.12779 21.75 4.72556 21.1592 3.74079 20.1031C2.76145 19.0529 2.25 17.6025 2.25 15.9736V8.02638C2.25 6.39889 2.75872 4.94841 3.73714 3.89765Z" fill="black"/>
<path fill-rule="evenodd" clip-rule="evenodd" d="M7.60156 6.89062C7.60156 6.47641 7.93735 6.14062 8.35156 6.14062H15.6489C16.0631 6.14062 16.3989 6.47641 16.3989 6.89062C16.3989 7.30484 16.0631 7.64062 15.6489 7.64062H8.35156C7.93735 7.64062 7.60156 7.30484 7.60156 6.89062ZM9.28526 11.269C9.28526 10.8548 9.62105 10.519 10.0353 10.519H13.4032C13.8175 10.519 14.1532 10.8548 14.1532 11.269C14.1532 11.6832 13.8175 12.019 13.4032 12.019H10.0353C9.62105 12.019 9.28526 11.6832 9.28526 11.269Z" fill="black"/>
</svg>
