<svg width="24" height="24" viewBox="0 0 24 24" fill="none" xmlns="http://www.w3.org/2000/svg">
<path fill-rule="evenodd" clip-rule="evenodd" d="M5.25 19C5.25 18.5858 5.58579 18.25 6 18.25H17.9997C18.414 18.25 18.7497 18.5858 18.7497 19C18.7497 19.4142 18.414 19.75 17.9997 19.75H6C5.58579 19.75 5.25 19.4142 5.25 19Z" fill="black"/>
<path fill-rule="evenodd" clip-rule="evenodd" d="M8 4.25C8.41421 4.25 8.75 4.58579 8.75 5V10.9999C8.75 12.7956 10.205 14.2495 12.0005 14.2495C13.795 14.2495 15.2501 12.7957 15.2501 10.9999V5C15.2501 4.58579 15.5859 4.25 16.0001 4.25C16.4143 4.25 16.7501 4.58579 16.7501 5V10.9999C16.7501 13.6246 14.623 15.7495 12.0005 15.7495C9.37723 15.7495 7.25 13.6247 7.25 10.9999V5C7.25 4.58579 7.58579 4.25 8 4.25Z" fill="black"/>
</svg>
