<svg width="24" height="24" viewBox="0 0 24 24" fill="none" xmlns="http://www.w3.org/2000/svg">
<path fill-rule="evenodd" clip-rule="evenodd" d="M7.67839 5.89453C7.9765 5.89452 8.24631 6.07107 8.36567 6.34424L13.0449 17.0532C13.2107 17.4327 13.0375 17.8749 12.6579 18.0407C12.2783 18.2066 11.8362 18.0333 11.6704 17.6538L7.67848 8.51786L3.68747 17.6537C3.52165 18.0333 3.07952 18.2066 2.69995 18.0407C2.32037 17.8749 2.14709 17.4328 2.31291 17.0532L6.99113 6.34429C7.11047 6.07111 7.38027 5.89454 7.67839 5.89453Z" fill="black"/>
<path fill-rule="evenodd" clip-rule="evenodd" d="M18.0137 9.76953C18.3118 9.76953 18.5816 9.94608 18.701 10.2192L21.6871 17.0537C21.853 17.4332 21.6797 17.8754 21.3001 18.0412C20.9206 18.207 20.4784 18.0338 20.3126 17.6542L18.0137 12.3927L15.7148 17.6542C15.549 18.0338 15.1068 18.207 14.7272 18.0412C14.3477 17.8754 14.1744 17.4332 14.3403 17.0537L17.3264 10.2192C17.4458 9.94608 17.7156 9.76953 18.0137 9.76953Z" fill="black"/>
<path fill-rule="evenodd" clip-rule="evenodd" d="M15.3457 14.9102C15.3457 14.4959 15.6815 14.1602 16.0957 14.1602H19.9323C20.3465 14.1602 20.6823 14.4959 20.6823 14.9102C20.6823 15.3244 20.3465 15.6602 19.9323 15.6602H16.0957C15.6815 15.6602 15.3457 15.3244 15.3457 14.9102Z" fill="black"/>
<path fill-rule="evenodd" clip-rule="evenodd" d="M3.92188 13.5234C3.92188 13.1092 4.25766 12.7734 4.67188 12.7734H10.6831C11.0973 12.7734 11.4331 13.1092 11.4331 13.5234C11.4331 13.9377 11.0973 14.2734 10.6831 14.2734H4.67188C4.25766 14.2734 3.92188 13.9377 3.92188 13.5234Z" fill="black"/>
</svg>
