<svg width="24" height="24" viewBox="0 0 24 24" fill="none" xmlns="http://www.w3.org/2000/svg">
<path opacity="0.4" d="M18.3418 12.4657C18.3418 10.6609 17.0186 9.18681 15.3344 9.05448C15.3801 8.88908 15.4093 8.72367 15.4278 8.54854C15.6574 6.56464 14.196 5.25016 12.6344 4.48735C12.2024 4.28594 11.6974 4.01935 11.2284 3.93665C11.2469 4.01935 11.8735 5.73567 9.96649 7.0307C9.26984 7.54735 8.84854 8.27319 8.72011 9.04475C7.00865 9.14886 5.63968 10.6424 5.63968 12.4657C5.63968 12.5954 5.65649 12.7157 5.67456 12.845L5.67568 12.853C5.67568 12.8715 5.68443 12.8997 5.68443 12.9191C4.16173 13.212 3 14.6004 3 16.2827C3 18.1722 4.47697 19.3437 6.27016 19.7124C9.97232 20.2699 16.5136 20.0812 18.0178 19.7124C19.5581 19.3252 21 18.1722 21 16.2827C21 14.5917 19.8373 13.2023 18.3058 12.9191C18.3243 12.7673 18.3418 12.6165 18.3418 12.4657Z" stroke="black" stroke-width="1.5" stroke-linecap="round" stroke-linejoin="round"/>
<path d="M9.58789 12.1118V12.1218" stroke="black" stroke-width="1.5" stroke-linecap="round" stroke-linejoin="round"/>
<path d="M14.4609 12.1118V12.1218" stroke="black" stroke-width="1.5" stroke-linecap="round" stroke-linejoin="round"/>
<path fill-rule="evenodd" clip-rule="evenodd" d="M13.648 15.0088C13.648 15.9876 12.9095 16.7815 11.9988 16.7815C11.0881 16.7815 10.3496 15.9876 10.3496 15.0088H13.648Z" stroke="black" stroke-width="1.5" stroke-linecap="round" stroke-linejoin="round"/>
</svg>
