<svg width="24" height="24" viewBox="0 0 24 24" fill="none" xmlns="http://www.w3.org/2000/svg">
<path fill-rule="evenodd" clip-rule="evenodd" d="M4.98646 2.39356C5.18043 2.25242 5.43022 2.21258 5.65847 2.28638L18.803 6.53642C18.9931 6.59789 19.1509 6.73266 19.2412 6.91085C19.3316 7.08904 19.3471 7.29592 19.2844 7.4856L17.1787 13.8507C17.0786 14.1533 16.7982 14.3596 16.4795 14.3651L6.17774 14.5416V21C6.17774 21.4142 5.84195 21.75 5.42774 21.75C5.01352 21.75 4.67774 21.4142 4.67774 21V13.806C4.67773 13.8047 4.67773 13.8035 4.67774 13.8022V3.00001C4.67774 2.76012 4.79249 2.5347 4.98646 2.39356ZM6.17774 13.0414L15.9218 12.8744L17.6231 7.73137L6.17774 4.03073V13.0414Z" fill="black"/>
</svg>
