<svg width="24" height="24" viewBox="0 0 24 24" fill="none" xmlns="http://www.w3.org/2000/svg">
<path fill-rule="evenodd" clip-rule="evenodd" d="M4.34009 9.22669C4.34009 5.7089 7.19209 2.8569 10.7099 2.8569C14.2277 2.8569 17.0797 5.7089 17.0797 9.22669C17.0797 12.7445 14.2277 15.5965 10.7099 15.5965C7.19209 15.5965 4.34009 12.7445 4.34009 9.22669ZM10.7099 4.3569C8.02051 4.3569 5.84009 6.53733 5.84009 9.22669C5.84009 11.9161 8.02051 14.0965 10.7099 14.0965C13.3992 14.0965 15.5797 11.9161 15.5797 9.22669C15.5797 6.53733 13.3992 4.3569 10.7099 4.3569Z" fill="black"/>
<path fill-rule="evenodd" clip-rule="evenodd" d="M14.4563 4.15095C14.8113 4.36299 14.9276 4.82225 14.7167 5.1776L14.7147 5.18092L14.7022 5.20306C14.6904 5.22442 14.6719 5.25847 14.649 5.30348C14.6031 5.39391 14.5403 5.52626 14.4773 5.68698C14.3476 6.01723 14.2331 6.42553 14.2296 6.81913C14.2262 7.19957 14.3245 7.5265 14.5791 7.78912C14.844 8.06244 15.3702 8.36117 16.4151 8.48154C16.8266 8.52894 17.1218 8.90095 17.0744 9.31244C17.027 9.72393 16.6549 10.0191 16.2435 9.97169C14.9939 9.82774 14.0906 9.44034 13.502 8.83314C12.9031 8.21524 12.7238 7.46726 12.7296 6.80583C12.7354 6.15756 12.9169 5.55703 13.081 5.13892C13.1648 4.92546 13.2483 4.74874 13.3119 4.62366C13.3438 4.56091 13.371 4.51059 13.391 4.47452C13.4011 4.45647 13.4093 4.44194 13.4156 4.43115L13.4233 4.41781L13.426 4.41328L13.427 4.41157L13.4275 4.41084C13.4276 4.41052 13.4278 4.41022 14.0717 4.79482L13.4278 4.41022C13.6402 4.05461 14.1007 3.93853 14.4563 4.15095Z" fill="black"/>
<path fill-rule="evenodd" clip-rule="evenodd" d="M10.0596 10.364C10.4875 9.225 11.9199 9.07429 12.6917 9.80581C12.9991 10.0972 13.3096 10.3443 13.5689 10.4781C13.906 10.652 14.4361 10.781 14.9402 10.8645C15.181 10.9044 15.3965 10.931 15.5515 10.9475C15.6288 10.9558 15.6904 10.9615 15.7319 10.965L15.7782 10.9688L15.7888 10.9696L15.7906 10.9697C16.2037 10.9983 16.5157 11.3564 16.4872 11.7696C16.4587 12.1828 16.1006 12.4947 15.6874 12.4662L15.739 11.718C15.6874 12.4662 15.6875 12.4662 15.6874 12.4662L15.6848 12.466L15.6798 12.4657L15.663 12.4644C15.6488 12.4633 15.6288 12.4617 15.6035 12.4595C15.5529 12.4552 15.481 12.4485 15.3925 12.4391C15.216 12.4203 14.9708 12.3901 14.695 12.3444C14.1659 12.2567 13.4389 12.0989 12.8811 11.8111C12.4331 11.58 12.001 11.2179 11.6598 10.8945C11.6292 10.8654 11.5775 10.8477 11.5212 10.8581C11.4957 10.8629 11.4805 10.8718 11.4739 10.877C11.4695 10.8804 11.4669 10.8833 11.4638 10.8915C11.1248 11.794 11.0494 12.7744 11.2465 13.7181L11.4245 14.5707C11.5092 14.9762 11.2491 15.3735 10.8436 15.4581C10.4382 15.5428 10.0408 15.2827 9.95617 14.8773L9.77815 14.0247C9.52295 12.8025 9.62056 11.5329 10.0596 10.364Z" fill="black"/>
<path fill-rule="evenodd" clip-rule="evenodd" d="M10.3665 2.86466C10.7756 2.80001 11.1597 3.07927 11.2244 3.4884L11.3352 4.18969C11.5421 5.49899 10.8367 6.78236 9.62043 7.30941C8.97855 7.58756 8.63887 8.29537 8.82345 8.97014L8.88357 9.18992C9.19734 10.337 8.84237 11.5632 7.96432 12.3653L6.90549 13.3325C6.59966 13.6118 6.12528 13.5904 5.84591 13.2845C5.56655 12.9787 5.58801 12.5043 5.89383 12.225L6.95266 11.2578C7.41503 10.8354 7.60195 10.1897 7.43672 9.58569L7.3766 9.36591C6.99507 7.97112 7.69721 6.50803 9.02402 5.93307C9.61242 5.6781 9.95369 5.05723 9.85359 4.42382L9.74277 3.72254C9.67811 3.3134 9.95737 2.92932 10.3665 2.86466Z" fill="black"/>
<path fill-rule="evenodd" clip-rule="evenodd" d="M16.4099 2.46967C16.7028 2.17678 17.1777 2.17678 17.4706 2.46967C21.2043 6.20341 21.2043 12.2573 17.4706 15.9911C13.7368 19.7248 7.6829 19.7248 3.94916 15.9911C3.65627 15.6982 3.65627 15.2233 3.94916 14.9304C4.24206 14.6375 4.71693 14.6375 5.00982 14.9304C8.15777 18.0784 13.262 18.0784 16.4099 14.9304C19.5578 11.7825 19.5578 6.67828 16.4099 3.53033C16.117 3.23744 16.117 2.76256 16.4099 2.46967Z" fill="black"/>
<path fill-rule="evenodd" clip-rule="evenodd" d="M10.7095 17.308C11.1237 17.308 11.4595 17.6438 11.4595 18.058V20.5249C11.4595 20.9391 11.1237 21.2749 10.7095 21.2749C10.2953 21.2749 9.95947 20.9391 9.95947 20.5249V18.058C9.95947 17.6438 10.2953 17.308 10.7095 17.308Z" fill="black"/>
<path fill-rule="evenodd" clip-rule="evenodd" d="M6.146 20.5263C6.146 20.1121 6.48178 19.7763 6.896 19.7763H14.5195C14.9337 19.7763 15.2695 20.1121 15.2695 20.5263C15.2695 20.9405 14.9337 21.2763 14.5195 21.2763H6.896C6.48178 21.2763 6.146 20.9405 6.146 20.5263Z" fill="black"/>
</svg>
