<svg width="24" height="24" viewBox="0 0 24 24" fill="none" xmlns="http://www.w3.org/2000/svg">
<path d="M8.6463 19.2609C8.1823 19.2611 7.7228 19.1698 7.2941 18.9922C6.8654 18.8147 6.47589 18.5545 6.1478 18.2264C5.8197 17.8983 5.55946 17.5088 5.38196 17.0801C5.20445 16.6514 5.11315 16.1919 5.11328 15.7279V14.6539C5.11434 13.7168 5.48716 12.8184 6.1499 12.1558C6.81264 11.4933 7.71116 11.1207 8.64829 11.1199H15.2673C15.805 11.1189 16.3206 10.9053 16.7016 10.5258C17.0826 10.1463 17.2981 9.63167 17.3013 9.09393V8.00391C17.3024 7.73634 17.2506 7.47121 17.1489 7.22369C17.0473 6.97618 16.8978 6.75114 16.709 6.56152C16.5202 6.37191 16.2959 6.22144 16.0488 6.11871C15.8018 6.01599 15.5369 5.96302 15.2693 5.96289H15.2643L8.13428 5.97888C7.93537 5.97888 7.74463 5.89987 7.60397 5.75922C7.46332 5.61856 7.38428 5.42779 7.38428 5.22888C7.38428 5.02997 7.46332 4.83926 7.60397 4.69861C7.74463 4.55796 7.93537 4.47888 8.13428 4.47888L15.2643 4.46289C16.2016 4.47868 17.098 4.84969 17.7723 5.50092C18.1026 5.8294 18.364 6.22053 18.5413 6.65137C18.7185 7.0822 18.8079 7.54404 18.8043 8.00989V9.09991C18.799 10.0343 18.4246 10.9286 17.7625 11.588C17.1005 12.2474 16.2047 12.6184 15.2703 12.6199H8.65128C8.1119 12.6205 7.59475 12.8349 7.21326 13.2162C6.83176 13.5975 6.6171 14.1146 6.6163 14.6539V15.7279C6.61604 15.995 6.66846 16.2596 6.7706 16.5065C6.87274 16.7533 7.02258 16.9775 7.21152 17.1664C7.40046 17.3552 7.62478 17.505 7.87167 17.607C8.11856 17.709 8.38316 17.7613 8.6503 17.7609L12.5843 17.7559C12.7832 17.7559 12.974 17.8349 13.1146 17.9756C13.2553 18.1162 13.3343 18.307 13.3343 18.5059C13.3343 18.7048 13.2553 18.8956 13.1146 19.0363C12.974 19.1769 12.7832 19.2559 12.5843 19.2559L8.6503 19.2609H8.6463Z" fill="black"/>
<path d="M5.91449 8.1618C5.52464 8.16307 5.13839 8.08722 4.77798 7.9386C4.41758 7.78997 4.09012 7.57147 3.81448 7.29578C3.53894 7.02059 3.32035 6.69378 3.1712 6.33405C3.02206 5.97431 2.94531 5.58871 2.94531 5.19928C2.94531 4.80985 3.02206 4.42425 3.1712 4.06451C3.32035 3.70478 3.53894 3.37797 3.81448 3.10278C4.37917 2.56415 5.12961 2.26367 5.91 2.26367C6.69039 2.26367 7.4408 2.56415 8.00549 3.10278C8.42095 3.51723 8.70395 4.04575 8.81857 4.62128C8.93319 5.1968 8.87427 5.7934 8.64929 6.33539C8.42431 6.87738 8.0434 7.34036 7.5549 7.66553C7.0664 7.9907 6.49231 8.16341 5.90549 8.1618H5.91449ZM4.87949 6.2348C5.15412 6.50943 5.52662 6.6637 5.91501 6.6637C6.3034 6.6637 6.67587 6.50943 6.9505 6.2348C7.22513 5.96017 7.37943 5.58767 7.37943 5.19928C7.37943 4.81089 7.22513 4.43845 6.9505 4.16382C6.67149 3.89759 6.30066 3.74902 5.91501 3.74902C5.52936 3.74902 5.1585 3.89759 4.87949 4.16382C4.74345 4.29977 4.63555 4.46118 4.56192 4.63885C4.48829 4.81653 4.45041 5.00695 4.45041 5.19928C4.45041 5.39161 4.48829 5.58209 4.56192 5.75977C4.63555 5.93744 4.74345 6.09885 4.87949 6.2348Z" fill="black"/>
<path d="M16.493 21.7346C16.3135 21.7347 16.1357 21.6995 15.9698 21.6309C15.8039 21.5623 15.6531 21.4618 15.5261 21.3349C15.3991 21.2081 15.2983 21.0574 15.2295 20.8916C15.1607 20.7258 15.1252 20.5481 15.125 20.3686V16.5946C15.1236 16.3533 15.1867 16.116 15.3079 15.9073C15.429 15.6986 15.6038 15.526 15.8141 15.4076C16.0238 15.2884 16.2613 15.2266 16.5025 15.2286C16.7438 15.2305 16.9802 15.2961 17.188 15.4186L20.388 17.3096C20.5911 17.4304 20.7593 17.6019 20.8761 17.8072C20.9929 18.0126 21.0544 18.2448 21.0544 18.4811C21.0544 18.7174 20.9929 18.9496 20.8761 19.155C20.7593 19.3603 20.5911 19.5319 20.388 19.6526L17.188 21.5456C16.9775 21.6696 16.7374 21.7349 16.493 21.7346ZM16.626 16.8286V20.1346L19.426 18.4816L16.626 16.8286Z" fill="black"/>
</svg>
