<svg width="24" height="24" viewBox="0 0 24 24" fill="none" xmlns="http://www.w3.org/2000/svg">
<path d="M5.17782 13.2418C5.07919 13.2419 4.98153 13.2225 4.89041 13.1847C4.79928 13.147 4.71648 13.0916 4.64681 13.0218L2.66781 11.0428C2.53112 10.9014 2.45544 10.7119 2.45706 10.5153C2.45867 10.3186 2.53749 10.1305 2.67648 9.99136C2.81547 9.85224 3.00351 9.77332 3.20016 9.77152C3.39681 9.76971 3.58629 9.84523 3.72781 9.98178L5.17782 11.4318L6.61581 9.99179C6.75651 9.85109 6.94735 9.772 7.14633 9.772C7.3453 9.772 7.53615 9.85109 7.67684 9.99179C7.81754 10.1325 7.89657 10.3233 7.89657 10.5222C7.89657 10.7212 7.81754 10.9121 7.67684 11.0528L5.70785 13.0218C5.63831 13.0915 5.55569 13.1468 5.46475 13.1845C5.3738 13.2223 5.27629 13.2418 5.17782 13.2418Z" fill="black"/>
<path d="M5.16069 13.2409C4.96178 13.2409 4.77101 13.1618 4.63036 13.0211C4.48971 12.8805 4.41069 12.6898 4.41069 12.4909V9.08082C4.36782 8.43967 4.45908 7.79664 4.6787 7.19276C4.89831 6.58887 5.24142 6.03744 5.68614 5.57362C6.13086 5.1098 6.6674 4.74377 7.26152 4.49897C7.85564 4.25417 8.49432 4.13591 9.13671 4.1518H15.4247C15.6236 4.1518 15.8144 4.23082 15.955 4.37147C16.0957 4.51212 16.1747 4.70289 16.1747 4.9018C16.1747 5.10072 16.0957 5.29149 15.955 5.43214C15.8144 5.57279 15.6236 5.6518 15.4247 5.6518H9.13671C8.6909 5.63475 8.24662 5.71345 7.83379 5.88258C7.42096 6.05171 7.04915 6.30734 6.74346 6.63227C6.43776 6.95721 6.20522 7.34388 6.06157 7.76624C5.91792 8.18861 5.8665 8.63688 5.91069 9.08082V12.4909C5.91069 12.6898 5.83168 12.8805 5.69103 13.0211C5.55038 13.1618 5.35961 13.2409 5.16069 13.2409Z" fill="black"/>
<path d="M17.3648 7.63193C16.8328 7.63174 16.3128 7.47384 15.8706 7.17814C15.4283 6.88244 15.0837 6.46223 14.8803 5.97068C14.6768 5.47913 14.6237 4.93828 14.7276 4.41654C14.8315 3.8948 15.0878 3.41557 15.464 3.03947C15.8403 2.66336 16.3196 2.40728 16.8414 2.30357C17.3631 2.19985 17.904 2.2532 18.3954 2.45682C18.8869 2.66045 19.307 3.0052 19.6025 3.44755C19.8981 3.88989 20.0558 4.40994 20.0558 4.94193C20.055 5.65529 19.7712 6.33921 19.2667 6.84354C18.7622 7.34787 18.0782 7.6314 17.3648 7.63193ZM17.3648 3.75095C17.1295 3.75115 16.8996 3.82111 16.704 3.95194C16.5085 4.08278 16.3561 4.2686 16.2662 4.486C16.1762 4.7034 16.1528 4.94263 16.1987 5.17338C16.2447 5.40412 16.358 5.61602 16.5243 5.78239C16.6907 5.94875 16.9027 6.06206 17.1334 6.10801C17.3641 6.15396 17.6033 6.13051 17.8207 6.04056C18.0381 5.95062 18.224 5.79824 18.3548 5.6027C18.4857 5.40716 18.5556 5.17721 18.5558 4.94193C18.5555 4.62614 18.4299 4.32337 18.2066 4.10007C17.9833 3.87678 17.6806 3.75122 17.3648 3.75095Z" fill="black"/>
<path d="M20.7944 14.2396C20.6959 14.2399 20.5984 14.2205 20.5074 14.1827C20.4164 14.145 20.3338 14.0895 20.2645 14.0196L18.8145 12.5706L17.3765 14.0096C17.2358 14.1503 17.0449 14.2293 16.8459 14.2293C16.647 14.2293 16.4561 14.1503 16.3154 14.0096C16.1747 13.8689 16.0957 13.6781 16.0957 13.4791C16.0957 13.2801 16.1747 13.0893 16.3154 12.9486L18.2844 10.9796C18.3541 10.9099 18.4368 10.8546 18.5278 10.8169C18.6189 10.7792 18.7164 10.7598 18.8149 10.7598C18.9135 10.7598 19.011 10.7792 19.1021 10.8169C19.1931 10.8546 19.2758 10.9099 19.3455 10.9796L21.3245 12.9596C21.4292 13.0645 21.5005 13.198 21.5294 13.3434C21.5583 13.4888 21.5435 13.6395 21.4868 13.7765C21.43 13.9135 21.334 14.0306 21.2108 14.113C21.0875 14.1954 20.9427 14.2395 20.7944 14.2396Z" fill="black"/>
<path d="M14.8535 19.8488H8.56445C8.36554 19.8488 8.17477 19.7697 8.03412 19.6291C7.89347 19.4884 7.81445 19.2977 7.81445 19.0988C7.81445 18.8998 7.89347 18.7091 8.03412 18.5684C8.17477 18.4278 8.36554 18.3488 8.56445 18.3488H14.8535C15.2992 18.3656 15.7434 18.2869 16.1562 18.1177C16.5689 17.9485 16.9406 17.6928 17.2463 17.3679C17.5519 17.043 17.7844 16.6564 17.9282 16.2341C18.0719 15.8118 18.1235 15.3636 18.0795 14.9197V11.5098C18.0795 11.3109 18.1585 11.1201 18.2991 10.9794C18.4398 10.8388 18.6306 10.7598 18.8295 10.7598C19.0284 10.7598 19.2191 10.8388 19.3598 10.9794C19.5005 11.1201 19.5795 11.3109 19.5795 11.5098V14.9197C19.6223 15.5609 19.531 16.2039 19.3114 16.8078C19.0918 17.4117 18.7487 17.9632 18.304 18.427C17.8592 18.8908 17.3227 19.2568 16.7286 19.5016C16.1345 19.7464 15.4958 19.8646 14.8535 19.8488Z" fill="black"/>
<path d="M6.62457 21.7491C6.09258 21.7489 5.5726 21.591 5.13037 21.2953C4.68813 20.9996 4.34346 20.5794 4.14001 20.0879C3.93657 19.5963 3.88346 19.0555 3.98736 18.5337C4.09127 18.012 4.34757 17.5328 4.72381 17.1567C5.10006 16.7806 5.57935 16.5245 6.10113 16.4208C6.62291 16.317 7.16373 16.3704 7.65521 16.574C8.14668 16.7776 8.56676 17.1224 8.8623 17.5647C9.15784 18.0071 9.31555 18.5271 9.31555 19.0591C9.31449 19.7724 9.03064 20.4562 8.52618 20.9604C8.02172 21.4647 7.33785 21.7483 6.62457 21.7491ZM6.62457 17.8681C6.38929 17.8683 6.15934 17.9383 5.9638 18.0691C5.76826 18.2 5.61588 18.3858 5.52594 18.6032C5.43599 18.8206 5.41254 19.0598 5.45849 19.2906C5.50444 19.5213 5.61775 19.7332 5.78412 19.8996C5.95048 20.0659 6.16244 20.1792 6.39319 20.2252C6.62393 20.2711 6.8631 20.2477 7.0805 20.1578C7.29791 20.0678 7.48379 19.9154 7.61462 19.7199C7.74546 19.5243 7.81535 19.2944 7.81555 19.0591C7.81502 18.7434 7.68936 18.4408 7.46612 18.2176C7.24288 17.9943 6.94028 17.8687 6.62457 17.8681Z" fill="black"/>
</svg>
