<svg width="24" height="24" viewBox="0 0 24 24" fill="none" xmlns="http://www.w3.org/2000/svg">
<path d="M6.77148 6.36853C6.67391 6.37039 6.57693 6.35286 6.48621 6.31689C6.39549 6.28093 6.31284 6.22727 6.24304 6.15906C6.17325 6.09085 6.11772 6.00943 6.07968 5.91956C6.04164 5.82968 6.02186 5.73315 6.02148 5.63556V5.60156C6.02148 5.40265 6.1005 5.21188 6.24115 5.07123C6.3818 4.93058 6.57257 4.85156 6.77148 4.85156C6.9704 4.85156 7.16117 4.93058 7.30182 5.07123C7.44247 5.21188 7.52148 5.40265 7.52148 5.60156C7.52231 5.8023 7.44409 5.99527 7.30374 6.13879C7.16339 6.28232 6.97219 6.36485 6.77148 6.36853Z" fill="black"/>
<path d="M8.49911 19.2737C7.61494 19.2732 6.76709 18.922 6.14151 18.2971C5.51593 17.6723 5.1637 16.8248 5.16211 15.9407V14.9407C5.16343 14.0569 5.51515 13.2098 6.14014 12.585C6.76513 11.9602 7.61239 11.6087 8.49612 11.6077H14.6391C15.1238 11.6066 15.5885 11.4142 15.932 11.0722C16.2755 10.7302 16.47 10.2664 16.4731 9.78168V8.76972C16.4742 8.52838 16.4275 8.28918 16.3359 8.06592C16.2442 7.84266 16.1094 7.63973 15.939 7.46875C15.7687 7.29777 15.5663 7.16215 15.3434 7.06964C15.1204 6.97714 14.8814 6.92956 14.6401 6.92969L12.1401 6.94367C11.9412 6.94367 11.7504 6.86465 11.6098 6.724C11.4691 6.58335 11.3901 6.39258 11.3901 6.19367C11.3901 5.99475 11.4691 5.80398 11.6098 5.66333C11.7504 5.52268 11.9412 5.44367 12.1401 5.44367L14.6401 5.42969H14.6481C15.0871 5.42916 15.522 5.51544 15.9276 5.68354C16.3331 5.85163 16.7015 6.09823 17.0114 6.40918C17.3213 6.72014 17.5667 7.08929 17.7335 7.49542C17.9003 7.90155 17.9851 8.33667 17.9831 8.7757V9.7887C17.9776 10.6698 17.624 11.5131 16.9996 12.1348C16.3751 12.7564 15.5303 13.1061 14.6491 13.1077H8.49911C8.01304 13.1082 7.54701 13.3015 7.20322 13.6451C6.85942 13.9887 6.66589 14.4546 6.6651 14.9407V15.9407C6.66589 16.4271 6.85969 16.8933 7.20392 17.237C7.54815 17.5807 8.01471 17.7737 8.50113 17.7737L12.1511 17.7687C12.35 17.7687 12.5408 17.8477 12.6815 17.9883C12.8221 18.129 12.9011 18.3198 12.9011 18.5187C12.9011 18.7176 12.8221 18.9084 12.6815 19.049C12.5408 19.1897 12.35 19.2687 12.1511 19.2687L8.49911 19.2737Z" fill="black"/>
<path d="M17.2306 21.7523C16.3366 21.7523 13.8516 19.5603 13.8516 17.3443C13.8668 16.4583 14.2295 15.6138 14.8614 14.9926C15.4933 14.3715 16.344 14.0234 17.2301 14.0234C18.1162 14.0234 18.9668 14.3715 19.5988 14.9926C20.2307 15.6138 20.5933 16.4583 20.6086 17.3443C20.6086 19.5603 18.1256 21.7523 17.2306 21.7523ZM17.2306 15.4663C16.7326 15.4668 16.2551 15.6648 15.9029 16.0168C15.5506 16.3689 15.3524 16.8463 15.3516 17.3443C15.4514 17.9233 15.6699 18.4755 15.9932 18.9661C16.3166 19.4567 16.7378 19.8751 17.2306 20.1953C17.7229 19.8748 18.1437 19.4562 18.4669 18.9656C18.79 18.4751 19.0085 17.9231 19.1086 17.3443C19.1081 16.8464 18.91 16.369 18.5579 16.0169C18.2058 15.6648 17.7285 15.4668 17.2306 15.4663Z" fill="black"/>
<path d="M6.76962 10.037C5.87462 10.037 3.39062 7.84497 3.39062 5.62897C3.39063 4.7328 3.74662 3.87337 4.38031 3.23969C5.014 2.606 5.87346 2.25 6.76962 2.25C7.66579 2.25 8.52525 2.606 9.15894 3.23969C9.79262 3.87337 10.1486 4.7328 10.1486 5.62897C10.1486 7.84497 7.66362 10.037 6.76962 10.037ZM6.76962 3.75098C6.27154 3.75124 5.79391 3.94916 5.44162 4.30127C5.08933 4.65338 4.89115 5.13088 4.89062 5.62897C4.99043 6.20802 5.20888 6.76017 5.53223 7.25079C5.85558 7.74141 6.27685 8.15992 6.76962 8.47998C7.26223 8.15974 7.68341 7.7412 8.00674 7.25061C8.33008 6.76002 8.54859 6.20794 8.64862 5.62897C8.64783 5.13096 8.44959 4.65362 8.09735 4.30157C7.74511 3.94952 7.26763 3.75151 6.76962 3.75098Z" fill="black"/>
<path d="M17.2305 18.0883C17.1328 18.0902 17.0358 18.0726 16.945 18.0366C16.8542 18.0005 16.7715 17.9468 16.7017 17.8785C16.6319 17.8102 16.5764 17.7286 16.5384 17.6386C16.5004 17.5486 16.4807 17.452 16.4805 17.3543V17.3203C16.4805 17.1214 16.5595 16.9306 16.7002 16.79C16.8408 16.6493 17.0316 16.5703 17.2305 16.5703C17.4294 16.5703 17.6202 16.6493 17.7608 16.79C17.9015 16.9306 17.9805 17.1214 17.9805 17.3203C17.9813 17.5211 17.9031 17.7143 17.7628 17.858C17.6225 18.0017 17.4313 18.0844 17.2305 18.0883Z" fill="black"/>
</svg>
