<svg width="24" height="24" viewBox="0 0 24 24" fill="none" xmlns="http://www.w3.org/2000/svg">
<path d="M15.359 21.64C15.1031 21.6399 14.8493 21.5948 14.609 21.507L8.87698 19.422C8.7087 19.3599 8.52283 19.366 8.35898 19.439L4.771 21.039C4.49798 21.1603 4.19897 21.2115 3.90115 21.1878C3.60334 21.1642 3.31614 21.0665 3.06567 20.9037C2.8152 20.7409 2.6094 20.518 2.46695 20.2554C2.3245 19.9928 2.24993 19.6988 2.25 19.4V6.731C2.25053 6.21497 2.40036 5.71013 2.68143 5.27736C2.96249 4.84458 3.36277 4.50236 3.83398 4.29201L7.74899 2.55302C8.26759 2.31933 8.85719 2.29848 9.39099 2.49501L15.123 4.58C15.2912 4.6425 15.4772 4.6364 15.641 4.563L19.229 2.96303C19.502 2.84173 19.801 2.79056 20.0988 2.81419C20.3966 2.83782 20.6838 2.9355 20.9343 3.09834C21.1848 3.26118 21.3906 3.48402 21.533 3.74663C21.6755 4.00923 21.7501 4.30325 21.75 4.602V17.267C21.7495 17.7829 21.5997 18.2877 21.3186 18.7203C21.0375 19.1529 20.6372 19.4949 20.166 19.705L16.251 21.444C15.9707 21.5714 15.6668 21.6382 15.359 21.64ZM15.12 20.097C15.2889 20.1578 15.4747 20.1513 15.639 20.079L19.555 18.339C19.7612 18.2471 19.9364 18.0974 20.0594 17.908C20.1823 17.7187 20.2479 17.4978 20.248 17.272V4.60701C20.2483 4.55807 20.2363 4.50986 20.2131 4.46678C20.1899 4.4237 20.1562 4.38714 20.1152 4.36046C20.0742 4.33377 20.0271 4.31781 19.9783 4.31407C19.9295 4.31033 19.8806 4.31889 19.836 4.339L16.249 5.93303C15.7306 6.16491 15.1422 6.18533 14.609 5.99L8.875 3.90501C8.7065 3.84378 8.52083 3.85024 8.35699 3.92302L4.44098 5.66301C4.23476 5.75522 4.05964 5.90512 3.93668 6.09462C3.81372 6.28411 3.74818 6.50511 3.74799 6.731V19.395C3.74759 19.4439 3.75949 19.4921 3.78256 19.5352C3.80564 19.5783 3.83916 19.6149 3.88007 19.6417C3.92097 19.6684 3.96796 19.6845 4.01669 19.6884C4.06543 19.6923 4.11435 19.6839 4.159 19.664L7.74698 18.064C8.26571 17.8306 8.85531 17.8102 9.38898 18.007L15.12 20.097Z" fill="black"/>
<path d="M8.58203 19.268C8.38312 19.268 8.19235 19.189 8.0517 19.0484C7.91104 18.9077 7.83203 18.7169 7.83203 18.518V3.12305C7.83203 2.92413 7.91104 2.73336 8.0517 2.59271C8.19235 2.45206 8.38312 2.37305 8.58203 2.37305C8.78094 2.37305 8.97168 2.45206 9.11234 2.59271C9.25299 2.73336 9.33203 2.92413 9.33203 3.12305V18.518C9.33203 18.7169 9.25299 18.9077 9.11234 19.0484C8.97168 19.189 8.78094 19.268 8.58203 19.268Z" fill="black"/>
<path d="M15.4102 21.5979C15.2112 21.5979 15.0205 21.5189 14.8799 21.3782C14.7392 21.2376 14.6602 21.0468 14.6602 20.8479V5.38086C14.6602 5.18195 14.7392 4.99118 14.8799 4.85052C15.0205 4.70987 15.2112 4.63086 15.4102 4.63086C15.6091 4.63086 15.7998 4.70987 15.9405 4.85052C16.0811 4.99118 16.1602 5.18195 16.1602 5.38086V20.8499C16.1596 21.0484 16.0804 21.2387 15.9398 21.3789C15.7992 21.5191 15.6087 21.5979 15.4102 21.5979Z" fill="black"/>
</svg>
