<svg width="24" height="24" viewBox="0 0 24 24" fill="none" xmlns="http://www.w3.org/2000/svg">
<path fill-rule="evenodd" clip-rule="evenodd" d="M3.7402 3.89737C4.72468 2.84117 6.12669 2.25 7.78216 2.25H16.2169C17.8762 2.25 19.2788 2.84084 20.2629 3.89765C21.2413 4.94841 21.75 6.39889 21.75 8.02638V15.9736C21.75 17.6011 21.2413 19.0516 20.2627 20.1024C19.2785 21.1592 17.8757 21.75 16.2159 21.75H7.78216C7.58356 21.75 7.38863 21.7415 7.19767 21.7248C7.15321 21.7245 7.10816 21.7203 7.06293 21.7118C7.06222 21.7116 7.06151 21.7115 7.0608 21.7114C5.71572 21.5643 4.57436 21.0023 3.73657 20.1023C2.75842 19.0515 2.25 17.601 2.25 15.9736V8.02638C2.25 7.27229 2.35963 6.55637 2.57459 5.90068C2.57479 5.89964 2.57501 5.89861 2.57522 5.89758C2.58905 5.83054 2.61143 5.76745 2.64098 5.70921C2.89098 5.02623 3.2591 4.41351 3.7402 3.89737ZM3.85387 6.92712C3.78586 7.26992 3.75 7.63705 3.75 8.02638V15.9736C3.75 17.2914 4.15861 18.3541 4.83451 19.0802C5.28285 19.5619 5.87367 19.9226 6.60148 20.1086L8.88694 7.96529L3.85387 6.92712ZM9.8684 6.63616L4.39387 5.50692C4.52466 5.29232 4.67321 5.09633 4.83745 4.92012C5.50921 4.19943 6.49828 3.75 7.78216 3.75H16.2169C17.5056 3.75 18.4946 4.19975 19.1651 4.91984C19.8412 5.64597 20.25 6.70868 20.25 8.02638V8.77758L9.95563 6.65415C9.93717 6.6492 9.91838 6.64491 9.89929 6.64132C9.88898 6.63938 9.87868 6.63766 9.8684 6.63616ZM10.3562 8.26836L8.10121 20.25H16.2159C17.5052 20.25 18.4944 19.8002 19.165 19.0801C19.8412 18.354 20.25 17.2913 20.25 15.9736V10.3092L10.3562 8.26836ZM14.6249 12.4906C13.5602 12.4906 12.6973 13.3535 12.6973 14.4182C12.6973 15.0965 13.1144 15.8536 13.6862 16.4973C13.961 16.8065 14.2441 17.0581 14.4718 17.2265C14.5295 17.2691 14.5808 17.3043 14.6249 17.3326C14.669 17.3043 14.7203 17.2691 14.778 17.2265C15.0057 17.0581 15.2888 16.8065 15.5636 16.4973C16.1354 15.8536 16.5525 15.0965 16.5525 14.4182C16.5525 13.3535 15.6896 12.4906 14.6249 12.4906ZM14.4701 17.418C14.4702 17.4178 14.4741 17.4161 14.4814 17.4137C14.4736 17.4171 14.4699 17.4183 14.4701 17.418ZM14.7684 17.4137C14.7757 17.4161 14.7796 17.4178 14.7797 17.418C14.7798 17.4183 14.7761 17.4171 14.7684 17.4137ZM11.1973 14.4182C11.1973 12.5251 12.7318 10.9906 14.6249 10.9906C16.518 10.9906 18.0525 12.5251 18.0525 14.4182C18.0525 15.645 17.3449 16.7507 16.6849 17.4935C16.3438 17.8775 15.9843 18.2001 15.6698 18.4326C15.5133 18.5483 15.3567 18.65 15.2099 18.7267C15.0995 18.7843 14.8759 18.8937 14.6249 18.8937C14.3739 18.8937 14.1503 18.7843 14.0398 18.7267C13.893 18.65 13.7365 18.5483 13.58 18.4326C13.2655 18.2001 12.906 17.8775 12.5648 17.4935C11.9049 16.7507 11.1973 15.645 11.1973 14.4182ZM14.6248 13.645C15.0391 13.645 15.3748 13.9808 15.3748 14.395V14.4261C15.3748 14.8404 15.0391 15.1761 14.6248 15.1761C14.2106 15.1761 13.8748 14.8404 13.8748 14.4261V14.395C13.8748 13.9808 14.2106 13.645 14.6248 13.645Z" fill="black"/>
</svg>
