<svg width="24" height="24" viewBox="0 0 24 24" fill="none" xmlns="http://www.w3.org/2000/svg">
<path fill-rule="evenodd" clip-rule="evenodd" d="M8.90179 4.13758C8.71666 4.07031 8.51412 4.07757 8.33637 4.15673L4.44474 5.88505C4.02266 6.07211 3.75 6.49117 3.75 6.9529V19.6152C3.75 19.8272 3.96861 19.9695 4.16273 19.8833L7.72591 18.3012L7.7274 18.3005C8.2598 18.0655 8.8641 18.0427 9.41477 18.244C9.4151 18.2441 9.41542 18.2443 9.41575 18.2444L11.5782 19.031C11.9675 19.1726 12.1683 19.6029 12.0267 19.9922C11.8851 20.3815 11.4547 20.5822 11.0655 20.4406L8.90156 19.6535L8.90014 19.653C8.71775 19.5862 8.51525 19.5926 8.33402 19.6724C8.33373 19.6725 8.33432 19.6722 8.33402 19.6724L4.77176 21.2541C3.5862 21.7808 2.25 20.9132 2.25 19.6152V6.9529C2.25 5.89894 2.87083 4.94213 3.83591 4.51416L7.72612 2.78648C7.72601 2.78653 7.72623 2.78643 7.72612 2.78648C8.26046 2.54861 8.86564 2.52851 9.41399 2.72775C9.41395 2.72773 9.41403 2.72776 9.41399 2.72775L15.101 4.79337C15.2859 4.86055 15.4889 4.85362 15.6682 4.77395L19.2236 3.19357C19.2243 3.19326 19.225 3.19295 19.2257 3.19264C20.4167 2.65753 21.75 3.53311 21.75 4.83085V9.47096C21.75 9.88517 21.4142 10.221 21 10.221C20.5858 10.221 20.25 9.88517 20.25 9.47096V4.83085C20.25 4.6115 20.03 4.47544 19.84 4.56109L19.8364 4.56268L16.2773 6.14473C15.7425 6.38224 15.1376 6.40261 14.5889 6.20325C14.5889 6.20323 14.589 6.20326 14.5889 6.20325L8.90179 4.13758Z" fill="black"/>
<path fill-rule="evenodd" clip-rule="evenodd" d="M16.9059 13.1982C15.4102 13.1982 14.198 14.4104 14.198 15.9062C14.198 17.4022 15.4105 18.6151 16.9059 18.6151C18.4014 18.6151 19.6139 17.4022 19.6139 15.9062C19.6139 14.4104 18.4017 13.1982 16.9059 13.1982ZM12.698 15.9062C12.698 13.582 14.5818 11.6982 16.9059 11.6982C19.2301 11.6982 21.1139 13.582 21.1139 15.9062C21.1139 18.23 19.2304 20.1151 16.9059 20.1151C14.5815 20.1151 12.698 18.23 12.698 15.9062Z" fill="black"/>
<path fill-rule="evenodd" clip-rule="evenodd" d="M18.7284 17.9083C19.0209 17.6151 19.4958 17.6146 19.789 17.9072L21.5297 19.6439C21.8229 19.9365 21.8234 20.4114 21.5308 20.7046C21.2383 20.9978 20.7634 20.9983 20.4702 20.7058L18.7295 18.969C18.4363 18.6764 18.4358 18.2016 18.7284 17.9083Z" fill="black"/>
<path fill-rule="evenodd" clip-rule="evenodd" d="M15.4167 4.8342C15.831 4.8342 16.1667 5.16998 16.1667 5.5842V8.98571C16.1667 9.39993 15.831 9.73571 15.4167 9.73571C15.0025 9.73571 14.6667 9.39993 14.6667 8.98571V5.5842C14.6667 5.16998 15.0025 4.8342 15.4167 4.8342Z" fill="black"/>
<path fill-rule="evenodd" clip-rule="evenodd" d="M8.58691 2.607C9.00113 2.607 9.33691 2.94279 9.33691 3.357V18.8565C9.33691 19.2707 9.00113 19.6065 8.58691 19.6065C8.1727 19.6065 7.83691 19.2707 7.83691 18.8565V3.357C7.83691 2.94279 8.1727 2.607 8.58691 2.607Z" fill="black"/>
</svg>
