<svg width="24" height="24" viewBox="0 0 24 24" fill="none" xmlns="http://www.w3.org/2000/svg">
<path fill-rule="evenodd" clip-rule="evenodd" d="M11.9996 3.75C7.44312 3.75 3.75 7.44312 3.75 11.9996C3.75 16.5561 7.44312 20.2492 11.9996 20.2492C16.5561 20.2492 20.2492 16.5561 20.2492 11.9996C20.2492 7.44312 16.5561 3.75 11.9996 3.75ZM2.25 11.9996C2.25 6.6147 6.6147 2.25 11.9996 2.25C17.3845 2.25 21.7492 6.6147 21.7492 11.9996C21.7492 17.3845 17.3845 21.7492 11.9996 21.7492C6.6147 21.7492 2.25 17.3845 2.25 11.9996Z" fill="black"/>
<path fill-rule="evenodd" clip-rule="evenodd" d="M16.6501 11.9996C16.6501 11.5854 16.9859 11.2496 17.4001 11.2496H21C21.4142 11.2496 21.75 11.5854 21.75 11.9996C21.75 12.4138 21.4142 12.7496 21 12.7496H17.4001C16.9859 12.7496 16.6501 12.4138 16.6501 11.9996Z" fill="black"/>
<path fill-rule="evenodd" clip-rule="evenodd" d="M2.25 11.9996C2.25 11.5854 2.58579 11.2496 3 11.2496H6.59985C7.01406 11.2496 7.34985 11.5854 7.34985 11.9996C7.34985 12.4138 7.01406 12.7496 6.59985 12.7496H3C2.58579 12.7496 2.25 12.4138 2.25 11.9996Z" fill="black"/>
<path fill-rule="evenodd" clip-rule="evenodd" d="M11.9995 2.25C12.4137 2.25 12.7495 2.58579 12.7495 3V6.59985C12.7495 7.01406 12.4137 7.34985 11.9995 7.34985C11.5853 7.34985 11.2495 7.01406 11.2495 6.59985V3C11.2495 2.58579 11.5853 2.25 11.9995 2.25Z" fill="black"/>
<path fill-rule="evenodd" clip-rule="evenodd" d="M11.9995 16.6501C12.4137 16.6501 12.7495 16.9859 12.7495 17.4001V21C12.7495 21.4142 12.4137 21.75 11.9995 21.75C11.5853 21.75 11.2495 21.4142 11.2495 21V17.4001C11.2495 16.9859 11.5853 16.6501 11.9995 16.6501Z" fill="black"/>
</svg>
