<svg width="24" height="24" viewBox="0 0 24 24" fill="none" xmlns="http://www.w3.org/2000/svg">
<path fill-rule="evenodd" clip-rule="evenodd" d="M12 3.75C7.44329 3.75 3.75 7.44329 3.75 12C3.75 16.5567 7.44329 20.25 12 20.25C16.5567 20.25 20.25 16.5567 20.25 12C20.25 7.44329 16.5567 3.75 12 3.75ZM2.25 12C2.25 6.61487 6.61487 2.25 12 2.25C17.3851 2.25 21.75 6.61487 21.75 12C21.75 17.3851 17.3851 21.75 12 21.75C6.61487 21.75 2.25 17.3851 2.25 12Z" fill="black"/>
<path fill-rule="evenodd" clip-rule="evenodd" d="M13.9979 8.16757C15.0982 7.78823 16.1513 8.83646 15.7837 9.93732L13.822 15.7952C13.4101 17.0225 11.6939 17.0853 11.1976 15.8856C11.1976 15.8856 11.1976 15.8856 11.1976 15.8856L10.2782 13.663L8.12132 12.7905C6.92081 12.3044 6.96596 10.5884 8.19123 10.166L13.9979 8.16757ZM14.2978 9.65071L12.4832 15.0692L11.6487 13.052L11.6482 13.0508C11.5043 12.7045 11.2287 12.4311 10.8829 12.2895L8.92815 11.4988L14.2978 9.65071Z" fill="black"/>
</svg>
