<svg width="24" height="24" viewBox="0 0 24 24" fill="none" xmlns="http://www.w3.org/2000/svg">
<path fill-rule="evenodd" clip-rule="evenodd" d="M14.3624 4.75673C13.3569 2.73783 10.4736 2.75084 9.48509 4.77749L14.3624 4.75673ZM14.3624 4.75673L20.3703 16.8115C20.3703 16.8115 20.3704 16.8116 20.3703 16.8115C21.4931 19.063 19.2182 21.4996 16.8949 20.5361C16.8949 20.5361 16.8949 20.5361 16.8949 20.5361L12.3849 18.6661C12.0837 18.5412 11.7437 18.5423 11.4429 18.6698L7.12274 20.4999C4.80799 21.4804 2.51632 19.0636 3.61802 16.8036L9.48509 4.77749M13.0198 5.42558C12.5692 4.52071 11.2768 4.52578 10.8333 5.43505L4.96635 17.4609C4.96631 17.461 4.96638 17.4608 4.96635 17.4609C4.47228 18.4749 5.50044 19.5581 6.53763 19.1187L10.8575 17.2887C10.8574 17.2888 10.8575 17.2887 10.8575 17.2887C11.5286 17.0043 12.2867 17.0014 12.9594 17.2805C12.9594 17.2805 12.9595 17.2805 12.9594 17.2805L17.4694 19.1505C18.512 19.5829 19.531 18.4895 19.028 17.481L13.0198 5.42558Z" fill="black"/>
</svg>
