<svg width="24" height="24" viewBox="0 0 24 24" fill="none" xmlns="http://www.w3.org/2000/svg">
<path d="M12 21.75C10.0717 21.75 8.18659 21.1782 6.58321 20.1068C4.97983 19.0355 3.73016 17.5127 2.99221 15.7312C2.25425 13.9496 2.06113 11.9892 2.43734 10.0979C2.81354 8.20655 3.74217 6.46927 5.10573 5.10571C6.4693 3.74215 8.20655 2.81355 10.0979 2.43735C11.9892 2.06114 13.9496 2.25423 15.7312 2.99219C17.5127 3.73014 19.0355 4.97981 20.1068 6.58319C21.1782 8.18657 21.75 10.0716 21.75 12C21.7471 14.585 20.7189 17.0632 18.8911 18.8911C17.0632 20.7189 14.585 21.7471 12 21.75ZM12 3.75C10.3683 3.75 8.77329 4.23386 7.41659 5.14038C6.05988 6.0469 5.00243 7.33537 4.37801 8.84286C3.75359 10.3504 3.5902 12.0092 3.90853 13.6095C4.22686 15.2098 5.01262 16.6798 6.1664 17.8336C7.32019 18.9874 8.79018 19.7732 10.3905 20.0915C11.9909 20.4098 13.6497 20.2464 15.1572 19.622C16.6647 18.9976 17.9531 17.9402 18.8596 16.5835C19.7662 15.2268 20.25 13.6317 20.25 12C20.2476 9.81269 19.3777 7.71566 17.831 6.169C16.2844 4.62235 14.1873 3.75238 12 3.75Z" fill="black"/>
<path d="M14.7233 15.872C14.538 15.8715 14.3545 15.8348 14.1833 15.764L11.9233 14.825L9.82331 15.749C9.561 15.8602 9.27102 15.8887 8.99207 15.8307C8.71313 15.7727 8.4585 15.631 8.26222 15.4245C8.06593 15.218 7.93732 14.9566 7.89356 14.675C7.8498 14.3935 7.893 14.1053 8.01734 13.849L10.7093 8.32997C10.8231 8.09433 11.0011 7.89555 11.2227 7.75636C11.4443 7.61717 11.7006 7.54322 11.9623 7.54298H11.9683C12.2294 7.54202 12.4855 7.61443 12.7074 7.75199C12.9293 7.88955 13.1081 8.08671 13.2233 8.32096L15.9783 13.848C16.0854 14.0613 16.1361 14.2985 16.1257 14.537C16.1153 14.7755 16.0441 15.0073 15.9189 15.2106C15.7936 15.4138 15.6185 15.5816 15.4101 15.698C15.2017 15.8145 14.9671 15.8757 14.7283 15.876L14.7233 15.872ZM11.9623 13.334C12.1463 13.3335 12.3286 13.3699 12.4983 13.441L14.5133 14.276L11.9643 9.16297L9.47529 14.263L11.4133 13.441C11.5875 13.3694 11.774 13.3331 11.9623 13.334Z" fill="black"/>
</svg>
