<svg width="24" height="24" viewBox="0 0 24 24" fill="none" xmlns="http://www.w3.org/2000/svg">
<path fill-rule="evenodd" clip-rule="evenodd" d="M13.9222 5.02492C13.9222 5.02484 13.9223 5.02501 13.9222 5.02492L17.5458 12.2951C17.7305 12.6658 17.5798 13.1161 17.2091 13.3009C16.8384 13.4857 16.388 13.3349 16.2033 12.9642L12.5796 5.69379C12.1561 4.84337 10.9402 4.84785 10.5234 5.70245L4.87297 17.2859C4.40797 18.2386 5.37475 19.2578 6.35007 18.8442L10.5105 17.0818C11.1643 16.8058 11.9011 16.8027 12.5565 17.0734L12.5575 17.0738L13.4151 17.4296C13.7977 17.5883 13.9793 18.0271 13.8205 18.4097C13.6618 18.7923 13.223 18.9738 12.8404 18.8151L11.9838 18.4598C11.9837 18.4597 11.984 18.4599 11.9838 18.4598C11.6991 18.3423 11.3793 18.3433 11.0949 18.4632C11.0949 18.4633 11.095 18.4632 11.0949 18.4632L6.93568 20.2252C4.68254 21.1806 2.45171 18.8271 3.52482 16.6283M3.52482 16.6283L9.17518 5.04486C9.17518 5.04487 9.17519 5.04486 9.17518 5.04486C10.137 3.07293 12.9438 3.06051 13.9222 5.02492" fill="black"/>
<path fill-rule="evenodd" clip-rule="evenodd" d="M15.8798 15.5712C16.1727 15.2783 16.6476 15.2783 16.9405 15.5712L20.5305 19.1612C20.8234 19.4541 20.8234 19.929 20.5305 20.2219C20.2376 20.5148 19.7627 20.5148 19.4698 20.2219L15.8798 16.6319C15.5869 16.339 15.5869 15.8641 15.8798 15.5712Z" fill="black"/>
<path fill-rule="evenodd" clip-rule="evenodd" d="M20.5305 15.5712C20.8234 15.8641 20.8234 16.339 20.5305 16.6319L16.9405 20.2219C16.6476 20.5148 16.1727 20.5148 15.8798 20.2219C15.5869 19.929 15.5869 19.4541 15.8798 19.1612L19.4698 15.5712C19.7627 15.2783 20.2376 15.2783 20.5305 15.5712Z" fill="black"/>
</svg>
