<svg width="24" height="24" viewBox="0 0 24 24" fill="none" xmlns="http://www.w3.org/2000/svg">
<path d="M17.5046 21.7577C17.3455 21.7576 17.1868 21.7422 17.0306 21.7117L13.0886 20.9457H12.6046L8.66364 21.7117C8.1449 21.812 7.60759 21.7392 7.1342 21.5046C6.66081 21.27 6.27751 20.8865 6.04314 20.413C5.80877 19.9395 5.73628 19.4021 5.83681 18.8834C5.93734 18.3647 6.20534 17.8934 6.59964 17.5417L10.8326 13.7807C11.3877 13.2858 12.1054 13.0123 12.8491 13.0123C13.5928 13.0123 14.3106 13.2858 14.8656 13.7807L19.0976 17.5417C19.4622 17.866 19.72 18.2932 19.8368 18.7669C19.9537 19.2407 19.9241 19.7387 19.7522 20.1953C19.5802 20.6519 19.2738 21.0457 18.8734 21.3246C18.4731 21.6036 17.9976 21.7545 17.5096 21.7577H17.5046ZM12.5276 19.4457H13.1606C13.2086 19.4455 13.2565 19.4499 13.3036 19.4587L17.3166 20.2387C17.5127 20.2766 17.7157 20.249 17.8946 20.1603C18.0735 20.0717 18.2183 19.9267 18.3069 19.7478C18.3954 19.5688 18.4228 19.3658 18.3848 19.1698C18.3469 18.9738 18.2456 18.7956 18.0966 18.6627L13.8646 14.9017C13.5839 14.6512 13.2209 14.5128 12.8446 14.5128C12.4684 14.5128 12.1054 14.6512 11.8246 14.9017L7.59165 18.6627C7.4425 18.7957 7.34114 18.9739 7.30315 19.1701C7.26516 19.3662 7.29262 19.5694 7.38134 19.7485C7.47005 19.9275 7.61512 20.0724 7.79421 20.161C7.9733 20.2496 8.17652 20.2769 8.37264 20.2387L12.3846 19.4587C12.4328 19.4497 12.4817 19.4453 12.5306 19.4457H12.5276Z" fill="black"/>
<path d="M7.46344 8.8657C7.26765 8.86592 7.07957 8.78948 6.93945 8.65272L4.32545 6.09971C4.25397 6.02994 4.19717 5.94658 4.15839 5.85453C4.1196 5.76248 4.09961 5.66359 4.09961 5.5637C4.09961 5.46381 4.1196 5.36495 4.15839 5.2729C4.19717 5.18085 4.25397 5.09749 4.32545 5.02772L6.93945 2.4737C7.009 2.40101 7.09246 2.34307 7.18486 2.30329C7.27727 2.26352 7.37673 2.24274 7.47733 2.2422C7.57792 2.24166 7.6776 2.26138 7.77043 2.30015C7.86326 2.33892 7.94734 2.39597 8.01767 2.46791C8.088 2.53984 8.14313 2.6252 8.17979 2.71888C8.21646 2.81257 8.2339 2.91266 8.23108 3.01323C8.22826 3.11379 8.20523 3.21276 8.16338 3.30424C8.12152 3.39572 8.06169 3.47784 7.98744 3.54573L5.92245 5.5637L7.98744 7.57972C8.09441 7.68373 8.16789 7.8173 8.19844 7.96333C8.22899 8.10936 8.21523 8.26117 8.15894 8.39933C8.10264 8.5375 8.00637 8.65572 7.88246 8.73881C7.75855 8.8219 7.61263 8.86607 7.46344 8.8657Z" fill="black"/>
<path d="M12.8486 10.8833C12.6497 10.8833 12.4589 10.8043 12.3183 10.6636C12.1776 10.5229 12.0986 10.3322 12.0986 10.1333C12.1198 9.62565 12.0354 9.11916 11.8508 8.64584C11.6662 8.17252 11.3853 7.74267 11.0259 7.38351C10.6666 7.02435 10.2366 6.74369 9.76318 6.55929C9.28977 6.37489 8.78323 6.29077 8.27562 6.31225H4.84961C4.6507 6.31225 4.45994 6.23324 4.31929 6.09258C4.17864 5.95193 4.09961 5.76116 4.09961 5.56225C4.09961 5.36334 4.17864 5.17257 4.31929 5.03192C4.45994 4.89126 4.6507 4.81225 4.84961 4.81225H8.27762C8.98354 4.78559 9.68736 4.90499 10.345 5.16296C11.0026 5.42093 11.5999 5.81191 12.0994 6.31143C12.599 6.81094 12.9899 7.40824 13.2479 8.06588C13.5059 8.72352 13.6253 9.42734 13.5986 10.1333C13.5986 10.3322 13.5196 10.5229 13.379 10.6636C13.2383 10.8043 13.0475 10.8833 12.8486 10.8833Z" fill="black"/>
</svg>
