<svg width="24" height="24" viewBox="0 0 24 24" fill="none" xmlns="http://www.w3.org/2000/svg">
<path fill-rule="evenodd" clip-rule="evenodd" d="M11.9996 3.75C8.25731 3.75 5.22363 6.78356 5.22363 10.5269C5.22363 12.9304 6.65881 15.3744 8.34566 17.2736C9.17795 18.2107 10.0428 18.9823 10.7614 19.5136C11.1215 19.7799 11.4336 19.9775 11.6774 20.1048C11.865 20.2027 11.9668 20.2346 11.9996 20.245C12.0323 20.2346 12.1342 20.2027 12.3217 20.1048C12.5655 19.9775 12.8776 19.7799 13.2378 19.5136C13.9563 18.9823 14.8212 18.2107 15.6535 17.2736C17.3403 15.3744 18.7755 12.9304 18.7755 10.5269C18.7755 6.78356 15.7418 3.75 11.9996 3.75ZM3.72363 10.5269C3.72363 5.95525 7.42876 2.25 11.9996 2.25C16.5704 2.25 20.2755 5.95525 20.2755 10.5269C20.2755 13.4787 18.55 16.2712 16.775 18.2697C15.8764 19.2815 14.9351 20.1241 14.1296 20.7197C13.7277 21.0169 13.3483 21.261 13.0158 21.4345C12.7197 21.5891 12.3476 21.75 11.9996 21.75C11.6516 21.75 11.2795 21.5891 10.9833 21.4345C10.6508 21.261 10.2715 21.0169 9.86957 20.7197C9.06411 20.1241 8.12277 19.2815 7.22415 18.2697C5.44916 16.2712 3.72363 13.4787 3.72363 10.5269Z" fill="black"/>
<path fill-rule="evenodd" clip-rule="evenodd" d="M8.74023 10.4648C8.74023 10.0506 9.07602 9.71484 9.49023 9.71484H14.5079C14.9221 9.71484 15.2579 10.0506 15.2579 10.4648C15.2579 10.8791 14.9221 11.2148 14.5079 11.2148H9.49023C9.07602 11.2148 8.74023 10.8791 8.74023 10.4648Z" fill="black"/>
</svg>
