<svg width="24" height="24" viewBox="0 0 24 24" fill="none" xmlns="http://www.w3.org/2000/svg">
<path fill-rule="evenodd" clip-rule="evenodd" d="M11.997 3.75C9.49136 3.75 7.45996 5.7814 7.45996 8.287C7.45996 9.89399 8.42513 11.5591 9.59714 12.8785C10.172 13.5257 10.7682 14.0572 11.2601 14.4209C11.5069 14.6033 11.7161 14.7353 11.8741 14.8178C11.928 14.8459 11.9685 14.8643 11.997 14.8763C12.0254 14.8643 12.0659 14.8459 12.1198 14.8178C12.2778 14.7353 12.4871 14.6033 12.7338 14.4209C13.2257 14.0572 13.8219 13.5257 14.3968 12.8785C15.5688 11.5591 16.534 9.89399 16.534 8.287C16.534 5.7814 14.5026 3.75 11.997 3.75ZM5.95996 8.287C5.95996 4.95297 8.66293 2.25 11.997 2.25C15.331 2.25 18.034 4.95297 18.034 8.287C18.034 10.4424 16.7784 12.456 15.5183 13.8747C14.8771 14.5966 14.2044 15.199 13.6257 15.627C13.3371 15.8403 13.0607 16.0187 12.814 16.1475C12.6037 16.2573 12.3002 16.3944 11.997 16.3944C11.6938 16.3944 11.3903 16.2573 11.1799 16.1475C10.9332 16.0187 10.6568 15.8403 10.3683 15.627C9.78954 15.199 9.11687 14.5966 8.47567 13.8747C7.21554 12.456 5.95996 10.4424 5.95996 8.287Z" fill="black"/>
<path fill-rule="evenodd" clip-rule="evenodd" d="M9.48633 8.24248C9.48633 6.85505 10.6114 5.73047 11.9993 5.73047C13.3865 5.73047 14.5113 6.85532 14.5113 8.24248C14.5113 9.62964 13.3865 10.7545 11.9993 10.7545C10.6114 10.7545 9.48633 9.62991 9.48633 8.24248ZM11.9993 7.23047C11.4393 7.23047 10.9863 7.68401 10.9863 8.24248C10.9863 8.80094 11.4393 9.25449 11.9993 9.25449C12.558 9.25449 13.0113 8.80121 13.0113 8.24248C13.0113 7.68374 12.558 7.23047 11.9993 7.23047Z" fill="black"/>
<path fill-rule="evenodd" clip-rule="evenodd" d="M6.64757 14.3439C6.8503 14.7051 6.72183 15.1622 6.36062 15.365C5.50545 15.8449 5.26758 16.3001 5.26758 16.5955C5.26758 16.891 5.50545 17.3461 6.36062 17.8261L6.36245 17.8271C6.65215 17.9908 6.9781 18.1467 7.34333 18.2789L7.34894 18.2809L7.34893 18.2809C8.56174 18.7308 10.19 19.0154 12.0034 19.0154C12.4177 19.0154 12.7534 19.3512 12.7534 19.7654C12.7534 20.1796 12.4177 20.5154 12.0034 20.5154C10.049 20.5154 8.23993 20.2108 6.83007 19.6883C6.37956 19.5251 5.97897 19.3333 5.62554 19.1336C4.62278 18.5706 3.76758 17.7241 3.76758 16.5955C3.76758 15.4666 4.6233 14.6199 5.62646 14.0569C5.98767 13.8542 6.44484 13.9826 6.64757 14.3439Z" fill="black"/>
<path fill-rule="evenodd" clip-rule="evenodd" d="M10.2763 17.9775C10.5692 17.6846 11.0441 17.6846 11.337 17.9775L12.5833 19.2238C12.724 19.3645 12.803 19.5552 12.803 19.7542C12.803 19.9531 12.724 20.1438 12.5833 20.2845L11.337 21.5308C11.0441 21.8237 10.5692 21.8237 10.2763 21.5308C9.98342 21.2379 9.98342 20.7631 10.2763 20.4702L10.9923 19.7542L10.2763 19.0381C9.98342 18.7452 9.98342 18.2704 10.2763 17.9775Z" fill="black"/>
<path fill-rule="evenodd" clip-rule="evenodd" d="M17.3502 14.3444C17.5527 13.983 18.0097 13.8542 18.3711 14.0566C19.3752 14.6191 20.2305 15.4668 20.2305 16.5955C20.2305 17.7215 19.3793 18.5666 18.3796 19.1297C18.0151 19.3454 17.6185 19.5283 17.1766 19.6884C16.4849 19.9443 15.6994 20.1467 14.8536 20.2873C14.445 20.3552 14.0587 20.0791 13.9907 19.6705C13.9228 19.2619 14.199 18.8756 14.6076 18.8076C15.3758 18.6799 16.0683 18.4992 16.6583 18.2808L16.6635 18.2789L16.6635 18.2789C17.0346 18.1446 17.3469 17.9984 17.6216 17.8353L17.6375 17.8261C18.4926 17.3461 18.7305 16.891 18.7305 16.5955C18.7305 16.2999 18.4922 15.8438 17.638 15.3653C17.2766 15.1628 17.1478 14.7057 17.3502 14.3444Z" fill="black"/>
</svg>
