<svg width="24" height="24" viewBox="0 0 24 24" fill="none" xmlns="http://www.w3.org/2000/svg">
<path fill-rule="evenodd" clip-rule="evenodd" d="M11.9996 3.75C8.25731 3.75 5.22363 6.78356 5.22363 10.5269C5.22363 12.9304 6.65881 15.3744 8.34566 17.2736C9.17795 18.2107 10.0428 18.9823 10.7614 19.5136C11.1215 19.7799 11.4336 19.9775 11.6774 20.1048C11.865 20.2027 11.9668 20.2346 11.9996 20.245C12.0323 20.2346 12.1342 20.2027 12.3217 20.1048C12.5655 19.9775 12.8776 19.7799 13.2378 19.5136C13.9563 18.9823 14.8212 18.2107 15.6535 17.2736C17.3403 15.3744 18.7755 12.9304 18.7755 10.5269C18.7755 6.78356 15.7418 3.75 11.9996 3.75ZM3.72363 10.5269C3.72363 5.95525 7.42876 2.25 11.9996 2.25C16.5704 2.25 20.2755 5.95525 20.2755 10.5269C20.2755 13.4787 18.55 16.2712 16.775 18.2697C15.8764 19.2815 14.9351 20.1241 14.1296 20.7197C13.7277 21.0169 13.3483 21.261 13.0158 21.4345C12.7197 21.5891 12.3476 21.75 11.9996 21.75C11.6516 21.75 11.2795 21.5891 10.9833 21.4345C10.6508 21.261 10.2715 21.0169 9.86957 20.7197C9.06411 20.1241 8.12277 19.2815 7.22415 18.2697C5.44916 16.2712 3.72363 13.4787 3.72363 10.5269Z" fill="black"/>
<path fill-rule="evenodd" clip-rule="evenodd" d="M12.8236 9.10141C12.0685 8.34627 10.8457 8.34662 10.0919 9.10116L10.0914 9.10165C9.33672 9.85562 9.33672 11.0792 10.0914 11.8331L10.0919 11.8336C10.8457 12.5882 12.0685 12.5885 12.8236 11.8334C13.5777 11.0794 13.5777 9.85543 12.8236 9.10141ZM9.03098 8.04075C10.371 6.69974 12.5437 6.70018 13.8843 8.04075C15.2241 9.38056 15.2241 11.5542 13.8843 12.8941C12.5437 14.2346 10.3709 14.2351 9.0309 12.894C9.03084 12.8939 9.03079 12.8939 9.03073 12.8938M9.03098 8.04075C7.69028 9.38047 7.69019 11.554 9.03073 12.8938L9.03098 8.04075Z" fill="black"/>
<path fill-rule="evenodd" clip-rule="evenodd" d="M12.8252 11.8368C13.1182 11.5439 13.593 11.544 13.8859 11.8369L15.3393 13.2909C15.6322 13.5838 15.6321 14.0587 15.3392 14.3515C15.0462 14.6444 14.5713 14.6443 14.2785 14.3513L12.8251 12.8974C12.5322 12.6045 12.5323 12.1296 12.8252 11.8368Z" fill="black"/>
</svg>
