<svg width="24" height="24" viewBox="0 0 24 24" fill="none" xmlns="http://www.w3.org/2000/svg">
<path fill-rule="evenodd" clip-rule="evenodd" d="M8.0046 3.75C7.5991 3.75 7.27051 4.07891 7.27051 4.48309V5.41615C7.27051 5.82032 7.59908 6.14922 8.00456 6.14925C8.00455 6.14925 8.00457 6.14925 8.00456 6.14925L8.45169 6.14921C8.46112 6.14886 8.4706 6.14868 8.48012 6.14868C8.4896 6.14868 8.49904 6.14886 8.50844 6.14921L15.5185 6.14868L15.9951 6.14925C15.995 6.14925 15.9952 6.14925 15.9951 6.14925C16.3998 6.14911 16.7282 5.82091 16.7282 5.41615V4.48309C16.7282 4.07826 16.3999 3.75 15.9951 3.75H8.0046ZM14.7686 7.64874L9.23012 7.64915V9.25683C9.23012 9.63047 9.14001 9.99865 8.96689 10.3301L7.36379 13.3953C7.3029 13.5119 7.271 13.6417 7.271 13.7741C7.271 14.2243 7.63563 14.5892 8.08709 14.5892H15.9126C16.3641 14.5892 16.7287 14.2243 16.7287 13.7741C16.7287 13.6417 16.6968 13.5119 16.6359 13.3953L15.033 10.3305C14.8608 10.0008 14.7686 9.63246 14.7686 9.25683V7.64874ZM7.73012 7.63254C6.6267 7.49727 5.77051 6.55706 5.77051 5.41615V4.48309C5.77051 3.24917 6.77199 2.25 8.0046 2.25H15.9951C17.2284 2.25 18.2282 3.24983 18.2282 4.48309V5.41615C18.2282 6.55684 17.3728 7.49782 16.2686 7.63267V9.25683C16.2686 9.38723 16.3005 9.5173 16.3624 9.63565L17.9653 12.7005C18.1384 13.0319 18.2287 13.4005 18.2287 13.7741C18.2287 15.054 17.1912 16.0892 15.9126 16.0892H12.7494V21C12.7494 21.4142 12.4136 21.75 11.9994 21.75C11.5852 21.75 11.2494 21.4142 11.2494 21V16.0892H8.08709C6.80845 16.0892 5.771 15.054 5.771 13.7741C5.771 13.4005 5.8611 13.0323 6.03423 12.7008L7.63733 9.63565C7.69822 9.51907 7.73012 9.38922 7.73012 9.25683V7.63254Z" fill="black"/>
</svg>
