<svg width="24" height="24" viewBox="0 0 24 24" fill="none" xmlns="http://www.w3.org/2000/svg">
<path fill-rule="evenodd" clip-rule="evenodd" d="M10.98 12.2901C10.98 11.7295 11.4339 11.2676 12.0015 11.2676C12.0016 11.2676 12.0018 11.2676 12.002 11.2676C12.0021 11.2676 12.0023 11.2676 12.0025 11.2676C12.5648 11.2676 13.0249 11.7233 13.0249 12.2901C13.0249 12.8586 12.5632 13.309 12.0073 13.3126L12.0025 13.3126C11.4401 13.3126 10.98 12.8569 10.98 12.2901ZM12.0015 12.7676C12.0016 12.7676 12.0018 12.7676 12.002 12.7676C12.0021 12.7676 12.0023 12.7676 12.0025 12.7676C12.0023 12.7676 12.0022 12.7676 12.002 12.7676C12.0022 12.7676 12.0023 12.7676 12.0025 12.7676M12.0015 12.7676C12.0018 12.7676 12.0021 12.7676 12.0025 12.7676L12.0015 12.7676Z" fill="black"/>
<path fill-rule="evenodd" clip-rule="evenodd" d="M6.69092 12.2887C6.69092 9.35596 9.06838 6.9787 12.0019 6.9787C14.9345 6.9787 17.3118 9.35606 17.3118 12.2887C17.3118 15.2213 14.9345 17.5986 12.0019 17.5986C9.06838 17.5986 6.69092 15.2214 6.69092 12.2887ZM12.0019 8.4787C9.8966 8.4787 8.19092 10.1846 8.19092 12.2887C8.19092 14.3928 9.8966 16.0986 12.0019 16.0986C14.106 16.0986 15.8118 14.3929 15.8118 12.2887C15.8118 10.1845 14.106 8.4787 12.0019 8.4787Z" fill="black"/>
<path fill-rule="evenodd" clip-rule="evenodd" d="M16.7196 2.28228C17.116 2.16209 17.5348 2.38601 17.655 2.7824L18.4023 5.24728C18.5225 5.64365 18.2986 6.06239 17.9023 6.18261L15.451 6.92606C15.0546 7.04628 14.6359 6.82241 14.5156 6.42602C14.3954 6.02964 14.6193 5.61085 15.0157 5.49063L16.7493 4.96484L16.2195 3.21763C16.0993 2.82124 16.3233 2.40247 16.7196 2.28228Z" fill="black"/>
<path fill-rule="evenodd" clip-rule="evenodd" d="M11.998 4.33203C7.60134 4.33203 4.03711 7.89626 4.03711 12.293C4.03711 16.6897 7.60134 20.2539 11.998 20.2539C16.3948 20.2539 19.959 16.6897 19.959 12.293C19.959 11.786 19.9117 11.2908 19.8215 10.8113C19.7449 10.4042 20.0128 10.0121 20.4199 9.93554C20.827 9.85897 21.2191 10.1269 21.2956 10.534C21.403 11.1045 21.459 11.6925 21.459 12.293C21.459 17.5181 17.2232 21.7539 11.998 21.7539C6.77292 21.7539 2.53711 17.5181 2.53711 12.293C2.53711 7.06784 6.77292 2.83203 11.998 2.83203C14.2392 2.83203 16.3001 3.6122 17.9211 4.91514C18.244 5.17464 18.2953 5.64673 18.0358 5.96958C17.7763 6.29243 17.3043 6.34379 16.9814 6.08429C15.6171 4.98771 13.8852 4.33203 11.998 4.33203Z" fill="black"/>
</svg>
