<svg width="24" height="24" viewBox="0 0 24 24" fill="none" xmlns="http://www.w3.org/2000/svg">
<path d="M3.7925 10.5035C4.55531 11.2255 5.68784 11.4026 6.69584 11.1068L6.96924 11.026C7.41194 10.8966 7.88675 10.9317 8.30416 11.1253L10.4894 12.1381C11.4478 12.5818 12.5531 12.5818 13.5105 12.1381L15.6958 11.1253C16.1142 10.9317 16.588 10.8966 17.0307 11.026L17.3041 11.1068C18.3121 11.4026 19.4456 11.2255 20.2084 10.5035C20.7572 9.98398 21.089 9.27371 20.979 8.51091C20.8623 7.69945 20.4711 6.42292 20.1306 5.40422C19.8115 4.44876 18.9183 3.8066 17.9112 3.8066H6.07606C5.06514 3.8066 4.16807 4.4546 3.85282 5.41589C3.5191 6.43265 3.13769 7.70334 3.02094 8.51091C2.91099 9.27371 3.24374 9.98398 3.7925 10.5035Z" stroke="black" stroke-width="1.5" stroke-linecap="round" stroke-linejoin="round"/>
<path opacity="0.4" d="M7.48315 10.9364L8.22942 7.99023" stroke="black" stroke-width="1.5" stroke-linecap="round" stroke-linejoin="round"/>
<path opacity="0.4" d="M16.5158 10.9364L15.7695 7.99023" stroke="black" stroke-width="1.5" stroke-linecap="round" stroke-linejoin="round"/>
<path d="M19.4608 11.0508V16.0265C19.4608 18.4677 17.94 20.1928 15.4959 20.1928H8.50415C6.05908 20.1928 4.53833 18.4677 4.53833 16.0265V11.0508" stroke="black" stroke-width="1.5" stroke-linecap="round" stroke-linejoin="round"/>
<path opacity="0.4" d="M9.60083 20.1933V17.3348C9.60083 16.356 10.3948 15.561 11.3746 15.561H12.69C13.6338 15.561 14.3985 16.3268 14.3985 17.2705V20.1933" stroke="black" stroke-width="1.5" stroke-linecap="round" stroke-linejoin="round"/>
</svg>
