<svg width="24" height="24" viewBox="0 0 24 24" fill="none" xmlns="http://www.w3.org/2000/svg">
<path d="M16.7285 21.7515C16.0697 21.7525 15.4172 21.6234 14.8085 21.3714C14.1998 21.1195 13.6469 20.7498 13.1815 20.2835L3.71851 10.8195C2.77699 9.87795 2.24805 8.60099 2.24805 7.26949C2.24805 5.93798 2.77699 4.661 3.71851 3.71948C4.66002 2.77796 5.93699 2.24902 7.26849 2.24902C8.6 2.24902 9.87699 2.77796 10.8185 3.71948L20.2825 13.1835C20.9845 13.885 21.4626 14.7791 21.6563 15.7525C21.85 16.7259 21.7506 17.7349 21.3707 18.6518C20.9907 19.5687 20.3473 20.3522 19.5218 20.9033C18.6964 21.4543 17.726 21.7481 16.7335 21.7475L16.7285 21.7515ZM14.2415 19.2235C14.9114 19.8641 15.8026 20.2216 16.7295 20.2216C17.6564 20.2216 18.5476 19.8641 19.2175 19.2235C19.877 18.5634 20.2475 17.6685 20.2475 16.7355C20.2475 15.8024 19.877 14.9075 19.2175 14.2475L9.75351 4.78348C9.08364 4.14318 8.19265 3.78586 7.26599 3.78586C6.33933 3.78586 5.44837 4.14318 4.7785 4.78348C4.11997 5.44404 3.75018 6.33874 3.75018 7.27148C3.75018 8.20423 4.11997 9.09891 4.7785 9.75948L14.2415 19.2235Z" fill="black"/>
<path d="M7.26637 21.7514C6.27396 21.7518 5.3037 21.4579 4.4784 20.9068C3.6531 20.3556 3.00985 19.5721 2.63001 18.6552C2.25017 17.7384 2.15082 16.7295 2.34455 15.7562C2.53829 14.7829 3.0164 13.8889 3.71836 13.1874L13.1824 3.72339C14.1239 2.78187 15.4009 2.25293 16.7324 2.25293C18.0639 2.25293 19.3408 2.78187 20.2824 3.72339C21.2239 4.66491 21.7528 5.94188 21.7528 7.27339C21.7528 8.6049 21.2239 9.88188 20.2824 10.8234L10.8194 20.2874C10.353 20.7537 9.79891 21.1231 9.18913 21.3744C8.57934 21.6256 7.92588 21.7537 7.26637 21.7514ZM16.7293 3.75139C16.2673 3.75043 15.8097 3.84095 15.3829 4.01773C14.956 4.19451 14.5684 4.45406 14.2423 4.78139L4.77836 14.2454C4.11885 14.9054 3.74839 15.8003 3.74839 16.7334C3.74839 17.6664 4.11885 18.5613 4.77836 19.2214C5.44827 19.862 6.33947 20.2195 7.26637 20.2195C8.19327 20.2195 9.08446 19.862 9.75437 19.2214L19.2174 9.75739C19.7095 9.26538 20.0447 8.63846 20.1805 7.95593C20.3163 7.2734 20.2467 6.56593 19.9803 5.923C19.714 5.28008 19.263 4.73058 18.6843 4.34402C18.1056 3.95747 17.4253 3.75123 16.7293 3.75139Z" fill="black"/>
<path d="M11.9986 12.9435C12.5177 12.9435 12.9386 12.5226 12.9386 12.0035C12.9386 11.4843 12.5177 11.0635 11.9986 11.0635C11.4794 11.0635 11.0586 11.4843 11.0586 12.0035C11.0586 12.5226 11.4794 12.9435 11.9986 12.9435Z" fill="black"/>
</svg>
