<svg width="24" height="24" viewBox="0 0 24 24" fill="none" xmlns="http://www.w3.org/2000/svg">
<path fill-rule="evenodd" clip-rule="evenodd" d="M13.7212 3.75C13.7384 3.7512 13.757 3.75195 13.777 3.75195C13.7953 3.75195 13.8134 3.75129 13.8314 3.75H16.2169C17.5056 3.75 18.4945 4.19975 19.165 4.91993C19.8412 5.64615 20.25 6.70911 20.25 8.02735V15.9736C20.25 17.2913 19.8412 18.354 19.165 19.0801C18.4944 19.8002 17.5052 20.25 16.2159 20.25H13.8232C13.8079 20.2491 13.7925 20.2486 13.777 20.2486C13.7594 20.2486 13.7432 20.2492 13.7298 20.25H7.78216C6.49341 20.25 5.50475 19.8003 4.83451 19.0802C4.15861 18.3542 3.75 17.2914 3.75 15.9736V8.02735C3.75 6.70994 4.16028 5.64685 4.83749 4.92021C5.50924 4.19942 6.49828 3.75 7.78216 3.75H13.7212ZM13.7473 2.25H7.78216C6.12669 2.25 4.72465 2.84117 3.74016 3.89753C2.76113 4.94802 2.25 6.39861 2.25 8.02735V15.9736C2.25 17.601 2.75842 19.0515 3.73657 20.1023C4.72038 21.1591 6.1228 21.75 7.78216 21.75H16.2159C17.8756 21.75 19.2785 21.1592 20.2627 20.1024C21.2413 19.0516 21.75 17.6011 21.75 15.9736V8.02735C21.75 6.39944 21.2413 4.94872 20.2629 3.89781C19.2789 2.84085 17.8762 2.25 16.2169 2.25H13.7737C13.7649 2.24985 13.7561 2.24985 13.7473 2.25Z" fill="black"/>
<path fill-rule="evenodd" clip-rule="evenodd" d="M10.2213 14.623C9.54964 14.623 9.00586 15.1668 9.00586 15.8385C9.00586 16.5089 9.5494 17.0529 10.2213 17.0529C10.6355 17.0529 10.9713 17.3887 10.9713 17.8029V20.9991C10.9713 21.4133 10.6355 21.7491 10.2213 21.7491C9.80705 21.7491 9.47126 21.4133 9.47126 20.9991V18.448C8.33629 18.1228 7.50586 17.0777 7.50586 15.8385C7.50586 14.3384 8.72121 13.123 10.2213 13.123C10.905 13.123 11.5248 13.3765 11.9987 13.7906C12.4728 13.3763 13.0932 13.123 13.7765 13.123C15.2753 13.123 16.4919 14.3382 16.4919 15.8385C16.4919 17.0834 15.6532 18.1321 14.5109 18.4524V21.0001C14.5109 21.4143 14.1752 21.7501 13.7609 21.7501C13.3467 21.7501 13.0109 21.4143 13.0109 21.0001V17.8019C13.0109 17.3877 13.3467 17.0519 13.7609 17.0519C13.7737 17.0519 13.7858 17.0522 13.7966 17.0527C14.4585 17.042 14.9919 16.5019 14.9919 15.8385C14.9919 15.1671 14.4474 14.623 13.7765 14.623C13.2934 14.623 12.8741 14.9088 12.6787 15.3282C12.5557 15.5923 12.2907 15.7613 11.9993 15.7614C11.7079 15.7616 11.4428 15.593 11.3194 15.329C11.1228 14.9083 10.7038 14.623 10.2213 14.623ZM13.6941 18.5487C13.6933 18.5486 13.6943 18.5487 13.6969 18.549C13.6957 18.5488 13.6949 18.5488 13.6944 18.5487L13.6941 18.5487Z" fill="black"/>
<path fill-rule="evenodd" clip-rule="evenodd" d="M13.7609 2.25C14.1752 2.25 14.5109 2.58579 14.5109 3V5.54863C15.6531 5.86865 16.4919 6.91668 16.4919 8.16259C16.4919 9.66289 15.2753 10.878 13.7765 10.878C13.0932 10.878 12.4728 10.6248 11.9987 10.2104C11.5248 10.6246 10.905 10.878 10.2213 10.878C8.72121 10.878 7.50586 9.66265 7.50586 8.16259C7.50586 6.92239 8.33642 5.87799 9.47126 5.55293V3.00195C9.47126 2.58773 9.80705 2.25195 10.2213 2.25195C10.6355 2.25195 10.9713 2.58773 10.9713 3.00195V6.19816C10.9713 6.61238 10.6355 6.94816 10.2213 6.94816C9.54916 6.94816 9.00586 7.49145 9.00586 8.16259C9.00586 8.83422 9.54964 9.378 10.2213 9.378C10.7038 9.378 11.1228 9.09272 11.3194 8.67208C11.4428 8.40808 11.7079 8.23945 11.9993 8.23962C12.2907 8.2398 12.5557 8.40875 12.6787 8.67289C12.8741 9.09225 13.2934 9.378 13.7765 9.378C14.4474 9.378 14.9919 8.83398 14.9919 8.16259C14.9919 7.49839 14.4587 6.95903 13.7966 6.94832C13.7858 6.9488 13.7737 6.94914 13.7609 6.94914C13.3467 6.94914 13.0109 6.61335 13.0109 6.19914V3C13.0109 2.58579 13.3467 2.25 13.7609 2.25ZM13.6944 5.45234C13.6948 5.45229 13.6957 5.4522 13.6969 5.45208C13.6943 5.45233 13.6932 5.45246 13.6941 5.45237L13.6944 5.45234ZM13.8431 6.94496C13.8426 6.945 13.8418 6.94509 13.8406 6.94522C13.8432 6.94497 13.8442 6.94484 13.8434 6.94492L13.8431 6.94496Z" fill="black"/>
</svg>
