<svg width="24" height="24" viewBox="0 0 24 24" fill="none" xmlns="http://www.w3.org/2000/svg">
<path fill-rule="evenodd" clip-rule="evenodd" d="M3 16.3578C3.41421 16.3578 3.75 16.6936 3.75 17.1078C3.75 18.8428 5.15668 20.2497 6.89286 20.2497C7.30707 20.2497 7.64286 20.5855 7.64286 20.9997C7.64286 21.4139 7.30707 21.7497 6.89286 21.7497C4.3285 21.7497 2.25 19.6715 2.25 17.1078C2.25 16.6936 2.58579 16.3578 3 16.3578Z" fill="black"/>
<path fill-rule="evenodd" clip-rule="evenodd" d="M21.0003 16.3574C21.4145 16.3574 21.7503 16.6932 21.7503 17.1074C21.7503 19.6711 19.6718 21.7493 17.1074 21.7493C16.6932 21.7493 16.3574 21.4135 16.3574 20.9993C16.3574 20.5851 16.6932 20.2493 17.1074 20.2493C18.8436 20.2493 20.2503 18.8424 20.2503 17.1074C20.2503 16.6932 20.5861 16.3574 21.0003 16.3574Z" fill="black"/>
<path fill-rule="evenodd" clip-rule="evenodd" d="M6.89286 3.75C5.15668 3.75 3.75 5.15693 3.75 6.89189C3.75 7.3061 3.41421 7.64189 3 7.64189C2.58579 7.64189 2.25 7.3061 2.25 6.89189C2.25 4.32826 4.3285 2.25 6.89286 2.25C7.30707 2.25 7.64286 2.58579 7.64286 3C7.64286 3.41421 7.30707 3.75 6.89286 3.75Z" fill="black"/>
<path fill-rule="evenodd" clip-rule="evenodd" d="M16.3574 3C16.3574 2.58579 16.6932 2.25 17.1074 2.25C19.6718 2.25 21.7503 4.32826 21.7503 6.89189C21.7503 7.3061 21.4145 7.64189 21.0003 7.64189C20.5861 7.64189 20.2503 7.3061 20.2503 6.89189C20.2503 5.15693 18.8436 3.75 17.1074 3.75C16.6932 3.75 16.3574 3.41421 16.3574 3Z" fill="black"/>
<path fill-rule="evenodd" clip-rule="evenodd" d="M10.2232 14.6211C9.55232 14.6211 9.00781 15.1651 9.00781 15.8365C9.00781 16.5067 9.55208 17.0509 10.2232 17.0509C10.6374 17.0509 10.9732 17.3867 10.9732 17.8009V20.9971C10.9732 21.4114 10.6374 21.7471 10.2232 21.7471C9.809 21.7471 9.47322 21.4114 9.47322 20.9971V18.446C8.33887 18.1206 7.50781 17.0758 7.50781 15.8365C7.50781 14.3362 8.72438 13.1211 10.2232 13.1211C10.9069 13.1211 11.5267 13.3745 12.0006 13.7887C12.4748 13.3743 13.0951 13.1211 13.7785 13.1211C15.2773 13.1211 16.4939 14.3362 16.4939 15.8365C16.4939 17.0814 15.6552 18.1301 14.5129 18.4504V20.8444C14.5231 20.8937 14.5285 20.9448 14.5285 20.9971C14.5285 21.3956 14.2176 21.7216 13.8252 21.7457C13.8101 21.7469 13.7878 21.7481 13.7629 21.7481C13.3487 21.7481 13.0129 21.4123 13.0129 20.9981V17.8C13.0129 17.3857 13.3487 17.05 13.7629 17.05C13.7756 17.05 13.7877 17.0503 13.7985 17.0508C14.4604 17.04 14.9939 16.5 14.9939 15.8365C14.9939 15.1651 14.4493 14.6211 13.7785 14.6211C13.2953 14.6211 12.876 14.9068 12.6807 15.3262C12.5576 15.5903 12.2927 15.7593 12.0013 15.7595C11.7099 15.7596 11.4448 15.591 11.3214 15.327C11.1248 14.9064 10.7058 14.6211 10.2232 14.6211ZM13.8453 17.0542C13.8461 17.0542 13.8451 17.0541 13.8425 17.0539C13.8437 17.054 13.8445 17.0541 13.845 17.0541L13.8453 17.0542ZM13.6961 18.5467C13.6952 18.5466 13.6963 18.5468 13.6988 18.547C13.6976 18.5469 13.6968 18.5468 13.6964 18.5468L13.6961 18.5467ZM13.8451 21.7439C13.8447 21.744 13.8439 21.7441 13.8427 21.7442C13.8452 21.7439 13.8463 21.7438 13.8454 21.7439L13.8451 21.7439Z" fill="black"/>
<path fill-rule="evenodd" clip-rule="evenodd" d="M13.8606 2.25639C14.2362 2.29729 14.5285 2.61548 14.5285 3.00194C14.5285 3.05429 14.5231 3.10538 14.5129 3.1547V5.54862C15.6551 5.86864 16.4939 6.91667 16.4939 8.16259C16.4939 9.66288 15.2773 10.878 13.7785 10.878C13.0951 10.878 12.4748 10.6248 12.0006 10.2104C11.5267 10.6246 10.9069 10.878 10.2232 10.878C8.72438 10.878 7.50781 9.66288 7.50781 8.16259C7.50781 6.92234 8.33899 5.87818 9.47322 5.55303V3.00194C9.47322 2.58773 9.809 2.25194 10.2232 2.25194C10.6374 2.25194 10.9732 2.58773 10.9732 3.00194V6.19816C10.9732 6.61237 10.6374 6.94816 10.2232 6.94816C9.55184 6.94816 9.00781 7.49169 9.00781 8.16259C9.00781 8.83397 9.55232 9.37799 10.2232 9.37799C10.7058 9.37799 11.1248 9.09271 11.3214 8.67207C11.4448 8.40807 11.7099 8.23944 12.0013 8.23961C12.2927 8.23979 12.5576 8.40874 12.6807 8.67288C12.876 9.09224 13.2953 9.37799 13.7785 9.37799C14.4493 9.37799 14.9939 8.83397 14.9939 8.16259C14.9939 7.49839 14.4606 6.95902 13.7985 6.94832C13.7877 6.9488 13.7756 6.94913 13.7629 6.94913C13.3487 6.94913 13.0129 6.61334 13.0129 6.19913V3C13.0129 2.77953 13.1099 2.57024 13.2781 2.42773C13.4397 2.29082 13.6514 2.22889 13.8606 2.25639ZM13.6963 5.45233C13.6968 5.45229 13.6976 5.4522 13.6988 5.45208C13.6962 5.45233 13.6952 5.45245 13.696 5.45237L13.6963 5.45233ZM13.845 6.94495C13.8446 6.945 13.8438 6.94508 13.8426 6.9452C13.8451 6.94496 13.8462 6.94483 13.8453 6.94492L13.845 6.94495Z" fill="black"/>
</svg>
