<svg width="24" height="24" viewBox="0 0 24 24" fill="none" xmlns="http://www.w3.org/2000/svg">
<path fill-rule="evenodd" clip-rule="evenodd" d="M14.3435 3.06969C15.3543 2.89903 16.3917 2.97166 17.3699 3.28339L17.3721 3.28411C21.218 4.5231 22.4669 8.6891 21.3591 12.1433L21.3577 12.1476C20.4472 14.9283 18.132 17.1334 16.1442 18.6109C15.1377 19.3589 14.187 19.9409 13.4877 20.3363C13.1376 20.5342 12.8492 20.6861 12.6469 20.7892C12.5456 20.8407 12.4658 20.8801 12.4104 20.9071C12.3827 20.9205 12.3611 20.9309 12.346 20.9381L12.3282 20.9465L12.323 20.9489L12.3214 20.9497C12.3212 20.9498 12.3204 20.9502 12.0038 20.2703C11.6864 20.9498 11.6862 20.9497 11.686 20.9496L11.6838 20.9486L11.6786 20.9462L11.6607 20.9376C11.6454 20.9304 11.6235 20.9199 11.5955 20.9062C11.5394 20.8789 11.4586 20.8389 11.3561 20.7866C11.1511 20.6821 10.8591 20.5283 10.5049 20.3282C9.79752 19.9284 8.83671 19.341 7.8232 18.5895C5.82467 17.1075 3.50075 14.8998 2.63881 12.1404C1.53139 8.68295 2.79473 4.53293 6.63453 3.28472L6.64303 3.28195C7.61934 2.97741 8.65443 2.90691 9.66364 3.07854C10.5454 3.22769 11.3558 3.73181 12.0011 4.19111C12.6471 3.72662 13.4592 3.21997 14.3435 3.06969ZM12.0038 20.2703L11.686 20.9496C11.8869 21.0435 12.1194 21.0438 12.3204 20.9502L12.0038 20.2703ZM12.004 19.4332C12.1872 19.3393 12.4421 19.2043 12.7495 19.0305C13.4089 18.6577 14.3047 18.1091 15.2494 17.407C17.1632 15.9846 19.1679 14.0125 19.9315 11.6829C20.8655 8.76693 19.7405 5.62374 16.9133 4.7122C16.1639 4.47357 15.3688 4.41788 14.5936 4.54868C13.9104 4.66493 13.2089 5.15498 12.454 5.72159C12.1888 5.92067 11.8244 5.92196 11.5578 5.72477C10.7963 5.16154 10.0969 4.67305 9.41322 4.55749C8.63955 4.42587 7.84434 4.4793 7.09399 4.71263C4.26325 5.6356 3.13427 8.77356 4.06806 11.6852L4.06988 11.6909C4.78489 13.9829 6.78499 15.9522 8.71665 17.3846C9.66858 18.0905 10.5747 18.6447 11.2429 19.0222C11.5571 19.1998 11.8176 19.3377 12.004 19.4332Z" fill="black"/>
<path fill-rule="evenodd" clip-rule="evenodd" d="M15.2311 8.49297C15.524 8.78578 15.5242 9.26065 15.2314 9.55363L11.5963 13.1907C11.4556 13.3314 11.2647 13.4105 11.0657 13.4105C10.8667 13.4105 10.6758 13.3313 10.5352 13.1905L8.77016 11.4236C8.47743 11.1305 8.47769 10.6556 8.77074 10.3629C9.0638 10.0702 9.53867 10.0704 9.8314 10.3635L11.0659 11.5994L14.1704 8.49325C14.4632 8.20028 14.9381 8.20015 15.2311 8.49297Z" fill="black"/>
</svg>
