<svg width="24" height="24" viewBox="0 0 24 24" fill="none" xmlns="http://www.w3.org/2000/svg">
<path fill-rule="evenodd" clip-rule="evenodd" d="M3.7402 3.89737C4.72468 2.84117 6.12669 2.25 7.78216 2.25H16.2169C17.8762 2.25 19.2788 2.84084 20.2629 3.89765C21.2413 4.94841 21.75 6.39889 21.75 8.02638V15.9736C21.75 17.6011 21.2413 19.0516 20.2627 20.1024C19.2785 21.1592 17.8756 21.75 16.2159 21.75H7.78216C6.1228 21.75 4.72038 21.1591 3.73657 20.1023C2.75842 19.0515 2.25 17.601 2.25 15.9736V8.02638C2.25 6.39806 2.76117 4.94771 3.7402 3.89737ZM4.83745 4.92012C4.16024 5.64666 3.75 6.70951 3.75 8.02638V15.9736C3.75 17.2914 4.15861 18.3541 4.83451 19.0802C5.50475 19.8003 6.49341 20.25 7.78216 20.25H16.2159C17.5052 20.25 18.4944 19.8002 19.165 19.0801C19.8412 18.354 20.25 17.2913 20.25 15.9736V8.02638C20.25 6.70868 19.8412 5.64597 19.1651 4.91984C18.4946 4.19975 17.5056 3.75 16.2169 3.75H7.78216C6.49828 3.75 5.50921 4.19943 4.83745 4.92012Z" fill="black"/>
<path fill-rule="evenodd" clip-rule="evenodd" d="M10.8447 8.17969V10.0956C10.8447 10.5098 10.5089 10.8456 10.0947 10.8456H8.17969V13.1529H10.0947C10.5089 13.1529 10.8447 13.4887 10.8447 13.9029V15.8179H13.1519V13.9029C13.1519 13.4887 13.4877 13.1529 13.9019 13.1529H15.8169V10.8456H13.9019C13.4877 10.8456 13.1519 10.5098 13.1519 10.0956V8.17969H10.8447ZM9.34466 7.93855C9.34466 7.24506 9.90719 6.67969 10.6035 6.67969H13.393C14.0894 6.67969 14.6519 7.24505 14.6519 7.93855V9.34563H16.058C16.7534 9.34563 17.3169 9.9091 17.3169 10.6045V13.394C17.3169 14.0875 16.7543 14.6529 16.058 14.6529H14.6519V16.059C14.6519 16.7544 14.0884 17.3179 13.393 17.3179H10.6035C9.90812 17.3179 9.34466 16.7544 9.34466 16.059V14.6529H7.93855C7.24222 14.6529 6.67969 14.0875 6.67969 13.394V10.6045C6.67969 9.9091 7.24315 9.34563 7.93855 9.34563H9.34466V7.93855Z" fill="black"/>
</svg>
