<svg width="24" height="24" viewBox="0 0 24 24" fill="none" xmlns="http://www.w3.org/2000/svg">
<path d="M17.2092 21.5588C17.0455 21.5589 16.8862 21.5055 16.7557 21.4066C16.6252 21.3078 16.5306 21.1689 16.4864 21.0113C16.4422 20.8536 16.4508 20.6858 16.5109 20.5335C16.571 20.3812 16.6792 20.2528 16.8192 20.1678C18.2457 19.2826 19.3095 17.9174 19.8192 16.3178C20.245 14.5885 20.3775 12.8 20.2112 11.0268C20.1992 10.6548 20.1872 10.2898 20.1802 9.93379C20.1795 9.76591 20.1122 9.60517 19.993 9.48693C19.8738 9.36869 19.7126 9.30263 19.5447 9.30329C19.3768 9.30395 19.2161 9.37128 19.0978 9.49046C18.9796 9.60964 18.9135 9.77091 18.9142 9.9388C18.9628 11.5095 18.8812 13.0816 18.6702 14.6388C18.4519 15.5612 17.9296 16.3834 17.1872 16.9728C17.0257 17.089 16.8246 17.1362 16.6283 17.1041C16.4319 17.0721 16.2563 16.9633 16.1402 16.8018C16.024 16.6403 15.9768 16.4392 16.0088 16.2429C16.0409 16.0465 16.1497 15.871 16.3112 15.7548C16.7852 15.3539 17.1112 14.8057 17.2372 14.1978C17.3796 12.7775 17.4387 11.35 17.4142 9.92279C17.4117 9.35708 17.634 8.81355 18.0322 8.41175C18.4304 8.00995 18.972 7.78281 19.5377 7.78029C20.1034 7.77778 20.6469 8.00008 21.0487 8.39831C21.4505 8.79655 21.6777 9.33808 21.6802 9.90379C21.6872 10.2528 21.6992 10.6108 21.7102 10.9758C21.8854 12.9242 21.7281 14.8881 21.2452 16.7838C20.6236 18.7233 19.3309 20.3777 17.5992 21.4498C17.4817 21.5214 17.3467 21.5592 17.2092 21.5588Z" fill="black"/>
<path d="M13.5984 21.6552C13.4006 21.655 13.2109 21.5767 13.0705 21.4374C12.9301 21.2981 12.8503 21.109 12.8484 20.9112C12.8211 19.1752 12.8928 17.4391 13.0635 15.7112C13.1872 15.0628 13.4386 14.4454 13.8028 13.8949C14.1671 13.3444 14.6371 12.8717 15.1854 12.5042C15.6473 12.2181 16.1652 12.0343 16.7041 11.9653C17.243 11.8963 17.7904 11.9437 18.3094 12.1042C18.4947 12.1639 18.6495 12.2932 18.7413 12.4648C18.8331 12.6364 18.8547 12.837 18.8016 13.0242C18.7484 13.2114 18.6247 13.3707 18.4564 13.4684C18.2881 13.5662 18.0884 13.5948 17.8994 13.5482C17.5818 13.4447 17.2453 13.4117 16.9136 13.4514C16.5818 13.4911 16.2627 13.6027 15.9785 13.7782C15.2282 14.294 14.711 15.0843 14.5384 15.9782C14.3837 17.6124 14.3203 19.254 14.3484 20.8952C14.3494 20.9938 14.3308 21.0915 14.2939 21.1829C14.257 21.2742 14.2024 21.3574 14.1333 21.4276C14.0642 21.4978 13.9819 21.5537 13.8912 21.5921C13.8004 21.6305 13.703 21.6506 13.6045 21.6512L13.5984 21.6552Z" fill="black"/>
<path d="M6.78779 21.5593C6.65025 21.5594 6.51533 21.5217 6.39779 21.4503C4.66717 20.3779 3.37525 18.724 2.75378 16.7852C2.27136 14.8902 2.11413 12.927 2.28879 10.9792C2.30079 10.6132 2.31278 10.2543 2.31978 9.90625C2.33388 9.34858 2.56589 8.81863 2.96607 8.42999C3.36625 8.04134 3.90277 7.82494 4.46061 7.82717C5.01845 7.82939 5.55322 8.05006 5.95029 8.44188C6.34736 8.8337 6.57513 9.36549 6.58478 9.92325C6.56148 11.3522 6.62125 12.7813 6.76378 14.2033C6.88923 14.8098 7.2146 15.3566 7.68779 15.7563C7.8493 15.8724 7.95806 16.048 7.99013 16.2443C8.02219 16.4407 7.97495 16.6417 7.85879 16.8033C7.74262 16.9648 7.56705 17.0735 7.3707 17.1056C7.17435 17.1377 6.9733 17.0904 6.81179 16.9743C6.06876 16.3852 5.54653 15.5624 5.32979 14.6393C5.1194 13.082 5.03745 11.51 5.08478 9.93926C5.07828 9.77586 5.0088 9.62132 4.8909 9.508C4.77299 9.39469 4.61581 9.33141 4.45228 9.33141C4.28876 9.33141 4.13158 9.39469 4.01367 9.508C3.89576 9.62132 3.82628 9.77586 3.81978 9.93926C3.81278 10.2953 3.80079 10.6613 3.78879 11.0393C3.6221 12.8117 3.75427 14.5996 4.17978 16.3283C4.68995 17.9276 5.75363 19.2927 7.17978 20.1783C7.31979 20.2633 7.4281 20.3918 7.48816 20.5442C7.54823 20.6966 7.55675 20.8645 7.51243 21.0222C7.4681 21.1799 7.37336 21.3188 7.24269 21.4175C7.11202 21.5163 6.95259 21.5696 6.78879 21.5693L6.78779 21.5593Z" fill="black"/>
<path d="M10.4045 21.6556H10.3985C10.3 21.655 10.2026 21.6349 10.1118 21.5965C10.0211 21.5582 9.93878 21.5023 9.86967 21.432C9.80056 21.3618 9.74598 21.2786 9.70906 21.1873C9.67215 21.0959 9.65362 20.9982 9.65454 20.8996C9.68272 19.2587 9.61929 17.6175 9.46455 15.9836C9.29204 15.0897 8.77479 14.2994 8.02455 13.7836C7.74027 13.6081 7.42115 13.4966 7.0894 13.4568C6.75765 13.4171 6.42124 13.4501 6.10355 13.5536C5.91458 13.6002 5.71491 13.5716 5.54662 13.4738C5.37833 13.3761 5.25457 13.2168 5.20141 13.0296C5.14825 12.8424 5.16985 12.6418 5.26165 12.4702C5.35346 12.2986 5.5083 12.1693 5.69354 12.1096C6.21264 11.9494 6.76002 11.9022 7.29888 11.9712C7.83773 12.0402 8.35556 12.2238 8.81755 12.5096C9.36608 12.8772 9.83613 13.35 10.2004 13.9007C10.5647 14.4514 10.8159 15.069 10.9395 15.7176C11.1102 17.4455 11.182 19.1816 11.1545 20.9176C11.1511 21.1144 11.0706 21.3019 10.9304 21.4399C10.7901 21.578 10.6013 21.6554 10.4045 21.6556Z" fill="black"/>
<path d="M12.8467 10.2367H11.1467C10.8201 10.2351 10.5074 10.1044 10.277 9.87295C10.0465 9.64154 9.91697 9.32832 9.91671 9.00172V8.37373H9.28671C8.95969 8.3732 8.64622 8.24298 8.41508 8.01165C8.18393 7.78032 8.05398 7.46675 8.05371 7.13972V5.43973C8.05371 5.11262 8.18358 4.7989 8.41479 4.5675C8.64599 4.33611 8.95961 4.20599 9.28671 4.20573H9.91671V3.57873C9.91697 3.25153 10.0471 2.93781 10.2784 2.70644C10.5098 2.47508 10.8235 2.34499 11.1507 2.34473H12.8507C13.1779 2.34499 13.4916 2.47508 13.723 2.70644C13.9543 2.93781 14.0844 3.25153 14.0847 3.57873V4.20573H14.7147C15.0419 4.20599 15.3556 4.33608 15.587 4.56744C15.8184 4.79881 15.9484 5.11253 15.9487 5.43973V7.13972C15.9482 7.46684 15.818 7.78041 15.5867 8.01171C15.3554 8.24302 15.0418 8.3732 14.7147 8.37373H14.0847V9.00172C14.0846 9.16412 14.0524 9.3249 13.9902 9.47488C13.9279 9.62485 13.8366 9.76108 13.7216 9.87577C13.6067 9.99046 13.4702 10.0814 13.3201 10.1433C13.17 10.2052 13.0091 10.237 12.8467 10.2367ZM11.4167 8.73672H12.5807V7.62473C12.5807 7.42581 12.6597 7.23504 12.8004 7.09439C12.941 6.95374 13.1318 6.87473 13.3307 6.87473H14.4447V5.70673H13.3307C13.1318 5.70673 12.941 5.62771 12.8004 5.48705C12.6597 5.3464 12.5807 5.15564 12.5807 4.95673V3.84573H11.4167V4.95673C11.4167 5.15564 11.3377 5.3464 11.197 5.48705C11.0564 5.62771 10.8656 5.70673 10.6667 5.70673H9.55371V6.87473H10.6667C10.8656 6.87473 11.0564 6.95374 11.197 7.09439C11.3377 7.23504 11.4167 7.42581 11.4167 7.62473V8.73672Z" fill="black"/>
</svg>
