<svg width="24" height="24" viewBox="0 0 24 24" fill="none" xmlns="http://www.w3.org/2000/svg">
<path fill-rule="evenodd" clip-rule="evenodd" d="M7.69046 4.12086C7.69046 3.08742 8.52873 2.25 9.5623 2.25H14.4379C15.4714 2.25 16.3097 3.08742 16.3097 4.12086V5.99051L17.683 7.32124C17.6829 7.32119 17.683 7.32129 17.683 7.32124C18.3221 7.94023 18.6828 8.79148 18.6828 9.68141V18.4644C18.6828 20.2788 17.2115 21.75 15.3972 21.75H8.60295C6.78863 21.75 5.31738 20.2788 5.31738 18.4644V9.68141C5.31738 8.79148 5.67795 7.94039 6.31703 7.32139C6.31698 7.32144 6.31708 7.32134 6.31703 7.32139L7.69046 5.99051V4.12086ZM9.5623 3.75C9.35631 3.75 9.19046 3.91669 9.19046 4.12086V6.30811C9.19046 6.51111 9.10817 6.70545 8.96238 6.84672L7.36087 8.39861C7.01346 8.73506 6.81738 9.19757 6.81738 9.68141V18.4644C6.81738 19.4503 7.61706 20.25 8.60295 20.25H15.3972C16.3831 20.25 17.1828 19.4503 17.1828 18.4644V9.68141C17.1828 9.19757 16.9869 8.73521 16.6395 8.39876L15.0378 6.84672C14.892 6.70545 14.8097 6.51111 14.8097 6.30811V4.12086C14.8097 3.91669 14.6439 3.75 14.4379 3.75H9.5623Z" fill="black"/>
<path fill-rule="evenodd" clip-rule="evenodd" d="M5.375 18.0117C5.375 17.5975 5.71079 17.2617 6.125 17.2617H17.8727C18.2869 17.2617 18.6227 17.5975 18.6227 18.0117C18.6227 18.4259 18.2869 18.7617 17.8727 18.7617H6.125C5.71079 18.7617 5.375 18.4259 5.375 18.0117Z" fill="black"/>
<path fill-rule="evenodd" clip-rule="evenodd" d="M12 9.94922C12.4142 9.94922 12.75 10.285 12.75 10.6992V14.1708C12.75 14.585 12.4142 14.9208 12 14.9208C11.5858 14.9208 11.25 14.585 11.25 14.1708V10.6992C11.25 10.285 11.5858 9.94922 12 9.94922Z" fill="black"/>
<path fill-rule="evenodd" clip-rule="evenodd" d="M9.51367 12.4355C9.51367 12.0213 9.84946 11.6855 10.2637 11.6855H13.7352C14.1495 11.6855 14.4852 12.0213 14.4852 12.4355C14.4852 12.8498 14.1495 13.1855 13.7352 13.1855H10.2637C9.84946 13.1855 9.51367 12.8498 9.51367 12.4355Z" fill="black"/>
<path fill-rule="evenodd" clip-rule="evenodd" d="M7.68945 6.30859C7.68945 5.89438 8.02524 5.55859 8.43945 5.55859H15.5587C15.9729 5.55859 16.3087 5.89438 16.3087 6.30859C16.3087 6.72281 15.9729 7.05859 15.5587 7.05859H8.43945C8.02524 7.05859 7.68945 6.72281 7.68945 6.30859Z" fill="black"/>
</svg>
