<svg width="24" height="24" viewBox="0 0 24 24" fill="none" xmlns="http://www.w3.org/2000/svg">
<path fill-rule="evenodd" clip-rule="evenodd" d="M6.42176 4.11309C6.42176 3.0831 7.25754 2.25 8.28582 2.25H13.1293C14.1585 2.25 14.9924 3.08395 14.9924 4.11309V5.96799L16.3559 7.28815C16.3559 7.28815 16.3559 7.28815 16.3559 7.28815C16.9915 7.90353 17.35 8.75094 17.35 9.63576C17.35 10.05 17.0142 10.3858 16.6 10.3858C16.1858 10.3858 15.85 10.05 15.85 9.63576C15.85 9.15645 15.6558 8.69812 15.3125 8.36581L13.7207 6.82459C13.5748 6.68331 13.4924 6.48888 13.4924 6.28577V4.11309C13.4924 3.91238 13.3301 3.75 13.1293 3.75H8.28582C8.08426 3.75 7.92176 3.91324 7.92176 4.11309V6.28577C7.92176 6.4888 7.83944 6.68316 7.69362 6.82444L6.10279 8.36564C5.75956 8.69795 5.56519 9.15645 5.56519 9.63576V18.3605C5.56519 19.3367 6.35709 20.1286 7.33327 20.1286H10.406C10.8202 20.1286 11.156 20.4644 11.156 20.8786C11.156 21.2928 10.8202 21.6286 10.406 21.6286H7.33327C5.52866 21.6286 4.06519 20.1651 4.06519 18.3605V9.63576C4.06519 8.75102 4.42357 7.90368 5.05906 7.28831C5.05901 7.28837 5.05912 7.28826 5.05906 7.28831L6.42176 5.96813V4.11309Z" fill="black"/>
<path fill-rule="evenodd" clip-rule="evenodd" d="M10.7061 9.89844C11.1203 9.89844 11.4561 10.2342 11.4561 10.6484V14.0957C11.4561 14.5099 11.1203 14.8457 10.7061 14.8457C10.2918 14.8457 9.95605 14.5099 9.95605 14.0957V10.6484C9.95605 10.2342 10.2918 9.89844 10.7061 9.89844Z" fill="black"/>
<path fill-rule="evenodd" clip-rule="evenodd" d="M8.23242 12.373C8.23242 11.9588 8.56821 11.623 8.98242 11.623H12.4307C12.8449 11.623 13.1807 11.9588 13.1807 12.373C13.1807 12.7873 12.8449 13.123 12.4307 13.123H8.98242C8.56821 13.123 8.23242 12.7873 8.23242 12.373Z" fill="black"/>
<path fill-rule="evenodd" clip-rule="evenodd" d="M4.12305 17.9102C4.12305 17.4959 4.45883 17.1602 4.87305 17.1602H11.0282C11.4424 17.1602 11.7782 17.4959 11.7782 17.9102C11.7782 18.3244 11.4424 18.6602 11.0282 18.6602H4.87305C4.45883 18.6602 4.12305 18.3244 4.12305 17.9102Z" fill="black"/>
<path fill-rule="evenodd" clip-rule="evenodd" d="M6.42188 6.28516C6.42188 5.87094 6.75766 5.53516 7.17188 5.53516H14.2426C14.6568 5.53516 14.9926 5.87094 14.9926 6.28516C14.9926 6.69937 14.6568 7.03516 14.2426 7.03516H7.17188C6.75766 7.03516 6.42188 6.69937 6.42188 6.28516Z" fill="black"/>
<path fill-rule="evenodd" clip-rule="evenodd" d="M17.5314 13.4393C16.8034 13.1551 15.983 13.5148 15.6986 14.2432L14.109 18.3195C13.8255 19.0477 14.1853 19.8683 14.9135 20.1527C15.6417 20.4361 16.4619 20.0762 16.7463 19.3481M16.7463 19.3481L18.3361 15.2716C18.3361 15.2717 18.3361 15.2715 18.3361 15.2716C18.6197 14.5431 18.259 13.7227 17.5314 13.4393M18.0763 12.0418C16.5763 11.4565 14.8867 12.1982 14.3013 13.6977L12.7114 17.7748C12.1272 19.2746 12.8685 20.9646 14.3682 21.5501C15.868 22.1343 17.5583 21.3931 18.1437 19.8933L19.7337 15.8163C20.3178 14.3168 19.5764 12.6264 18.0763 12.0418Z" fill="black"/>
<path fill-rule="evenodd" clip-rule="evenodd" d="M13.5063 15.7372C13.6568 15.3513 14.0917 15.1605 14.4776 15.311L18.5115 16.8843C18.8975 17.0349 19.0883 17.4697 18.9378 17.8556C18.7873 18.2415 18.3524 18.4323 17.9665 18.2818L13.9325 16.7085C13.5466 16.558 13.3558 16.1231 13.5063 15.7372Z" fill="black"/>
</svg>
