<svg width="24" height="24" viewBox="0 0 24 24" fill="none" xmlns="http://www.w3.org/2000/svg">
<path fill-rule="evenodd" clip-rule="evenodd" d="M7.0115 5.47725C7.1514 5.34178 7.3385 5.26604 7.53323 5.26604H7.57507C7.98929 5.26604 8.32507 5.60182 8.32507 6.01604C8.32507 6.30285 8.16408 6.55206 7.92753 6.67823L6.11897 8.42954C6.11894 8.42956 6.11899 8.42951 6.11897 8.42954C5.78498 8.7534 5.59668 9.19848 5.59668 9.66298V18.5332C5.59668 19.4812 6.36529 20.2498 7.31333 20.2498H11.223C11.6372 20.2498 11.973 20.5856 11.973 20.9998C11.973 21.414 11.6372 21.7498 11.223 21.7498H7.31333C5.53686 21.7498 4.09668 20.3096 4.09668 18.5332V9.66298C4.09668 8.79251 4.44944 7.95897 5.07482 7.35262L7.0115 5.47725Z" fill="black"/>
<path fill-rule="evenodd" clip-rule="evenodd" d="M17.5944 13.9859C16.9392 13.7307 16.2025 14.0545 15.9472 14.7089L14.4624 18.5154C14.2072 19.1695 14.5309 19.9073 15.1854 20.1626C15.8395 20.4177 16.5771 20.0941 16.8325 19.4397C16.8325 19.4398 16.8325 19.4397 16.8325 19.4397L18.3164 15.6332C18.5717 14.9786 18.2481 14.241 17.5944 13.9859ZM14.5498 14.1638C15.106 12.7379 16.7122 12.0322 18.1393 12.5884C19.5657 13.1448 20.2699 14.7524 19.7139 16.178C19.7139 16.1781 19.714 16.178 19.7139 16.178L18.23 19.9845C17.6738 21.4104 16.0665 22.1164 14.6403 21.56C13.2144 21.0038 12.5086 19.3965 13.0649 17.9703L14.5498 14.1638Z" fill="black"/>
<path fill-rule="evenodd" clip-rule="evenodd" d="M13.8061 16.0669C13.9566 15.6809 14.3914 15.4901 14.7773 15.6406L18.5449 17.1099C18.9308 17.2604 19.1217 17.6952 18.9712 18.0811C18.8207 18.467 18.3858 18.6579 17.9999 18.5074L14.2323 17.0381C13.8464 16.8876 13.6556 16.4528 13.8061 16.0669Z" fill="black"/>
<path fill-rule="evenodd" clip-rule="evenodd" d="M10.6184 11.2696C11.0326 11.2696 11.3684 11.6054 11.3684 12.0196V15.397C11.3684 15.8112 11.0326 16.147 10.6184 16.147C10.2042 16.147 9.86841 15.8112 9.86841 15.397V12.0196C9.86841 11.6054 10.2042 11.2696 10.6184 11.2696Z" fill="black"/>
<path fill-rule="evenodd" clip-rule="evenodd" d="M8.17896 13.7072C8.17896 13.293 8.51474 12.9572 8.92896 12.9572H12.3064C12.7206 12.9572 13.0564 13.293 13.0564 13.7072C13.0564 14.1214 12.7206 14.4572 12.3064 14.4572H8.92896C8.51474 14.4572 8.17896 14.1214 8.17896 13.7072Z" fill="black"/>
<path fill-rule="evenodd" clip-rule="evenodd" d="M12.9111 6.01794C12.9111 5.60372 13.2469 5.26794 13.6611 5.26794H13.703C13.8977 5.26794 14.0848 5.34368 14.2247 5.47915L16.1611 7.35419C16.7863 7.96043 17.1395 8.79328 17.1395 9.66488C17.1395 10.0791 16.8037 10.4149 16.3895 10.4149H4.90381C4.4896 10.4149 4.15381 10.0791 4.15381 9.66488C4.15381 9.25066 4.4896 8.91488 4.90381 8.91488H15.4672C15.3806 8.73643 15.2628 8.57259 15.1173 8.43152C15.1173 8.43149 15.1174 8.43155 15.1173 8.43152L13.3087 6.68013C13.0721 6.55396 12.9111 6.30475 12.9111 6.01794Z" fill="black"/>
<path fill-rule="evenodd" clip-rule="evenodd" d="M4.15381 17.8198C4.15381 17.4056 4.4896 17.0698 4.90381 17.0698H10.0317C10.4459 17.0698 10.7817 17.4056 10.7817 17.8198C10.7817 18.234 10.4459 18.5698 10.0317 18.5698H4.90381C4.4896 18.5698 4.15381 18.234 4.15381 17.8198Z" fill="black"/>
<path fill-rule="evenodd" clip-rule="evenodd" d="M4.88721 3.97401C4.88721 3.02219 5.66037 2.25 6.61219 2.25H14.6213C15.5731 2.25 16.3462 3.02219 16.3462 3.97401V5.04338C16.3462 5.99519 15.5731 6.76739 14.6213 6.76739H6.61219C5.66037 6.76739 4.88721 5.99519 4.88721 5.04338V3.97401ZM6.61219 3.75C6.48783 3.75 6.38721 3.85159 6.38721 3.97401V5.04338C6.38721 5.16579 6.48783 5.26739 6.61219 5.26739H14.6213C14.7456 5.26739 14.8462 5.16579 14.8462 5.04338V3.97401C14.8462 3.85159 14.7456 3.75 14.6213 3.75H6.61219Z" fill="black"/>
</svg>
