<svg width="24" height="24" viewBox="0 0 24 24" fill="none" xmlns="http://www.w3.org/2000/svg">
<path d="M15.4034 21.75H8.60339C7.73222 21.7489 6.89702 21.4024 6.28101 20.7864C5.66499 20.1704 5.31844 19.3352 5.31738 18.464V9.681C5.31837 9.24098 5.40737 8.8056 5.5791 8.40048C5.75084 7.99536 6.00184 7.62867 6.31738 7.32199L7.69038 5.98999V4.121C7.69118 3.62485 7.8887 3.14926 8.23962 2.79852C8.59055 2.44779 9.06624 2.25053 9.56239 2.25H14.4384C14.9345 2.25053 15.4102 2.44779 15.7612 2.79852C16.1121 3.14926 16.3096 3.62485 16.3104 4.121V5.98999L17.6834 7.32199C17.9989 7.62867 18.2499 7.99536 18.4217 8.40048C18.5934 8.8056 18.6824 9.24098 18.6834 9.681V18.464C18.6823 19.3341 18.3366 20.1684 17.7219 20.7843C17.1072 21.4001 16.2735 21.7474 15.4034 21.75ZM9.56839 3.75C9.4699 3.75 9.37543 3.78906 9.30569 3.85861C9.23596 3.92816 9.19665 4.02252 9.19638 4.121V6.30801C9.19648 6.40841 9.17635 6.50778 9.13718 6.60022C9.098 6.69266 9.04059 6.77626 8.96838 6.84601L7.36839 8.39801C7.19699 8.56497 7.0606 8.76442 6.96719 8.98471C6.87379 9.20501 6.82523 9.44172 6.82439 9.681V18.464C6.82492 18.9375 7.01326 19.3915 7.34808 19.7263C7.68291 20.0611 8.13687 20.2495 8.61038 20.25H15.4034C15.8769 20.2495 16.3309 20.0611 16.6657 19.7263C17.0005 19.3915 17.1889 18.9375 17.1894 18.464V9.681C17.1889 9.4419 17.1406 9.2053 17.0474 8.98514C16.9541 8.76497 16.8178 8.56568 16.6464 8.39899L15.0464 6.84601C14.9742 6.77626 14.9168 6.69266 14.8776 6.60022C14.8384 6.50778 14.8183 6.40841 14.8184 6.30801V4.121C14.8181 4.02252 14.7788 3.92816 14.7091 3.85861C14.6393 3.78906 14.5449 3.75 14.4464 3.75H9.56839Z" fill="black"/>
<path d="M17.8759 18.7617H6.12793C5.92902 18.7617 5.73825 18.6827 5.5976 18.5421C5.45694 18.4014 5.37793 18.2106 5.37793 18.0117C5.37793 17.8128 5.45694 17.622 5.5976 17.4814C5.73825 17.3407 5.92902 17.2617 6.12793 17.2617H17.8759C18.0748 17.2617 18.2656 17.3407 18.4063 17.4814C18.5469 17.622 18.6259 17.8128 18.6259 18.0117C18.6259 18.2106 18.5469 18.4014 18.4063 18.5421C18.2656 18.6827 18.0748 18.7617 17.8759 18.7617Z" fill="black"/>
<path d="M15.5624 7.05859H8.44238C8.24347 7.05859 8.05272 6.97958 7.91206 6.83893C7.77141 6.69828 7.69238 6.50751 7.69238 6.30859C7.69238 6.10968 7.77141 5.91891 7.91206 5.77826C8.05272 5.63761 8.24347 5.55859 8.44238 5.55859H15.5624C15.7613 5.55859 15.9521 5.63761 16.0927 5.77826C16.2334 5.91891 16.3124 6.10968 16.3124 6.30859C16.3124 6.50751 16.2334 6.69828 16.0927 6.83893C15.9521 6.97958 15.7613 7.05859 15.5624 7.05859Z" fill="black"/>
<path d="M12.0027 14.9213C11.5214 14.9213 11.0508 14.7795 10.6496 14.5136C10.2484 14.2477 9.93454 13.8694 9.74709 13.4261C9.55964 12.9829 9.50696 12.4942 9.59564 12.0211C9.68431 11.5481 9.9104 11.1116 10.2457 10.7663L10.2707 10.7393L11.4707 9.53934C11.6116 9.39907 11.8024 9.32031 12.0012 9.32031C12.2 9.32031 12.3908 9.39907 12.5317 9.53934L13.7317 10.7393C14.1899 11.1993 14.4472 11.8221 14.4472 12.4713C14.4472 13.1206 14.1899 13.7434 13.7317 14.2033C13.505 14.4316 13.2353 14.6126 12.9382 14.7359C12.641 14.8592 12.3224 14.9222 12.0007 14.9213H12.0027ZM11.3527 11.7784C11.3457 11.7874 11.3377 11.7943 11.3307 11.8023C11.1978 11.935 11.1073 12.1041 11.0706 12.2883C11.0339 12.4724 11.0528 12.6633 11.1248 12.8368C11.1968 13.0102 11.3186 13.1583 11.4749 13.2624C11.6312 13.3665 11.8149 13.4218 12.0027 13.4213C12.1272 13.4216 12.2505 13.3971 12.3655 13.3494C12.4805 13.3017 12.5849 13.2317 12.6727 13.1433C12.8505 12.9649 12.9504 12.7233 12.9504 12.4713C12.9504 12.2194 12.8505 11.9778 12.6727 11.7993L12.0017 11.1293L11.3527 11.7784Z" fill="black"/>
</svg>
