<svg width="24" height="24" viewBox="0 0 24 24" fill="none" xmlns="http://www.w3.org/2000/svg">
<path d="M11.8599 21.7465C11.0154 21.7783 10.1708 21.6843 9.35394 21.4675C7.70594 20.9615 6.86494 20.2435 6.76194 17.7125C5.97754 17.4356 5.30086 16.9176 4.82881 16.2327C4.35675 15.5478 4.11352 14.7311 4.13394 13.8995C4.13047 13.5954 4.07396 13.2942 3.96694 13.0095C2.87394 10.2335 3.19894 5.37949 7.34194 3.27649C8.79578 2.58149 10.3896 2.22913 12.0009 2.24649C13.6137 2.21163 15.2112 2.56488 16.6589 3.27649C20.8029 5.37649 21.1269 10.2335 20.0329 13.0095C19.926 13.2931 19.8699 13.5934 19.8669 13.8965C19.8877 14.7288 19.6445 15.5463 19.1723 16.2319C18.7 16.9175 18.0229 17.4362 17.2379 17.7135C17.1379 20.2435 16.2939 20.9615 14.6459 21.4675C13.7834 21.6955 12.891 21.7896 11.9999 21.7465H11.8599ZM11.9989 20.2465C12.7404 20.2832 13.4832 20.2115 14.2039 20.0335C15.2319 19.7185 15.7479 19.5595 15.7479 17.1525C15.7481 16.9835 15.8053 16.8196 15.9102 16.6871C16.015 16.5546 16.1615 16.4614 16.3259 16.4225C16.9173 16.3161 17.4499 15.9988 17.8251 15.5295C18.2002 15.0602 18.3924 14.4707 18.3659 13.8705C18.3716 13.3875 18.463 12.9094 18.6359 12.4585C19.5219 10.2115 19.2839 6.2915 15.9799 4.6145C14.7431 4.00815 13.3779 3.71031 12.0009 3.74649H11.9929C10.6172 3.71001 9.25321 4.00787 8.01794 4.6145C4.71794 6.2915 4.47493 10.2145 5.35993 12.4595C5.53294 12.9105 5.6247 13.3885 5.63095 13.8715C5.60493 14.4716 5.79727 15.0609 6.17234 15.5301C6.54742 15.9993 7.07981 16.3167 7.67094 16.4235C7.83509 16.4624 7.98133 16.5555 8.08602 16.6878C8.19072 16.8201 8.24776 16.9838 8.24793 17.1525C8.24793 19.5595 8.76393 19.7185 9.79093 20.0335C10.5134 20.211 11.2578 20.2828 12.0009 20.2465H11.9989Z" fill="black"/>
<path d="M12.0688 21.7313C11.8699 21.7313 11.6792 21.6522 11.5385 21.5116C11.3979 21.3709 11.3188 21.1802 11.3188 20.9813V18.9473C11.3188 18.7484 11.3979 18.5576 11.5385 18.417C11.6792 18.2763 11.8699 18.1973 12.0688 18.1973C12.2678 18.1973 12.4585 18.2763 12.5992 18.417C12.7398 18.5576 12.8188 18.7484 12.8188 18.9473V20.9813C12.8188 21.1802 12.7398 21.3709 12.5992 21.5116C12.4585 21.6522 12.2678 21.7313 12.0688 21.7313ZM9.79785 21.5453C9.59894 21.5453 9.40817 21.4662 9.26752 21.3256C9.12686 21.1849 9.04785 20.9942 9.04785 20.7953V18.9473C9.04785 18.7484 9.12686 18.5576 9.26752 18.417C9.40817 18.2763 9.59894 18.1973 9.79785 18.1973C9.99676 18.1973 10.1875 18.2763 10.3282 18.417C10.4688 18.5576 10.5479 18.7484 10.5479 18.9473V20.7963C10.5476 20.9945 10.4689 21.1845 10.3289 21.3249C10.1889 21.4652 9.99908 21.5445 9.80086 21.5453H9.79785ZM14.3399 21.5263C14.1409 21.5263 13.9502 21.4473 13.8095 21.3066C13.6689 21.166 13.5899 20.9752 13.5899 20.7763V18.9473C13.5899 18.7484 13.6689 18.5576 13.8095 18.417C13.9502 18.2763 14.1409 18.1973 14.3399 18.1973C14.5388 18.1973 14.7295 18.2763 14.8702 18.417C15.0108 18.5576 15.0899 18.7484 15.0899 18.9473V20.7763C15.0899 20.8748 15.0705 20.9723 15.0328 21.0633C14.9951 21.1543 14.9398 21.237 14.8702 21.3066C14.8005 21.3763 14.7179 21.4315 14.6269 21.4692C14.5359 21.5069 14.4384 21.5263 14.3399 21.5263Z" fill="black"/>
<path d="M12.5174 16.2691H11.4794C11.2455 16.269 11.0156 16.2081 10.8123 16.0924C10.609 15.9768 10.4392 15.8102 10.3196 15.6092C10.2 15.4081 10.1347 15.1795 10.1301 14.9456C10.1255 14.7117 10.1818 14.4806 10.2934 14.2751L10.8304 13.2861C10.9456 13.0722 11.1166 12.8936 11.3253 12.7693C11.534 12.645 11.7725 12.5796 12.0154 12.5801H12.0334C12.2797 12.5826 12.5206 12.6527 12.7298 12.7829C12.939 12.913 13.1083 13.0982 13.2194 13.3181L13.7194 14.3081C13.8238 14.5135 13.8738 14.7423 13.8646 14.9726C13.8555 15.2028 13.7875 15.4269 13.6672 15.6234C13.5469 15.82 13.3782 15.9824 13.1773 16.0953C12.9763 16.2081 12.7498 16.2676 12.5194 16.2681L12.5174 16.2691ZM11.7314 14.7711H12.2724L12.0114 14.2561L11.7314 14.7711Z" fill="black"/>
<path d="M15.3326 13.0958C15.2816 13.0958 15.2326 13.0958 15.1806 13.0958C14.5805 13.0644 14.0045 12.8498 13.5301 12.4809C13.0558 12.112 12.7059 11.6066 12.5276 11.0328C12.4194 10.6325 12.4142 10.2115 12.5122 9.80867C12.6103 9.40585 12.8085 9.03431 13.0885 8.72857C13.3685 8.42282 13.7212 8.19278 14.1139 8.05977C14.5065 7.92677 14.9264 7.89512 15.3346 7.96776C15.8214 8.07382 16.2696 8.31205 16.6298 8.65624C16.9901 9.00043 17.2485 9.43729 17.3766 9.91878C17.5361 10.3645 17.5695 10.8456 17.4732 11.3091C17.3768 11.7726 17.1545 12.2005 16.8306 12.5458C16.4206 12.915 15.8841 13.112 15.3326 13.0958ZM14.8896 9.42278C14.7591 9.42296 14.6301 9.45066 14.511 9.50408C14.392 9.5575 14.2855 9.63542 14.1986 9.73278C14.0879 9.8514 14.0093 9.99633 13.9703 10.1538C13.9312 10.3113 13.9331 10.4762 13.9756 10.6328C14.0706 10.9016 14.2432 11.1363 14.4716 11.307C14.7 11.4777 14.9739 11.5768 15.2586 11.5918C15.4541 11.6143 15.6507 11.5605 15.8076 11.4418C15.9195 11.288 15.9907 11.1085 16.0146 10.9198C16.0386 10.7312 16.0145 10.5396 15.9446 10.3628C15.8914 10.1447 15.7819 9.94434 15.6272 9.7817C15.4724 9.61905 15.2778 9.49979 15.0626 9.43578C15.0055 9.42554 14.9476 9.4202 14.8896 9.41979V9.42278Z" fill="black"/>
<path d="M8.6651 13.0959C8.1124 13.1113 7.57506 12.9129 7.1651 12.5419C6.84128 12.1966 6.61911 11.7685 6.52312 11.305C6.42713 10.8414 6.46103 10.3604 6.6211 9.91488C6.75209 9.43517 7.01116 9.00015 7.37053 8.65645C7.7299 8.31276 8.17604 8.07333 8.6611 7.96386C9.06927 7.89121 9.48918 7.92286 9.88185 8.05587C10.2745 8.18887 10.6272 8.41892 10.9072 8.72466C11.1872 9.0304 11.3855 9.40194 11.4835 9.80477C11.5816 10.2076 11.5763 10.6286 11.4681 11.0289C11.2901 11.6025 10.9405 12.1078 10.4665 12.4766C9.99252 12.8455 9.41686 13.0602 8.81709 13.0919C8.76709 13.0959 8.7151 13.0959 8.6651 13.0959ZM9.1071 9.42287C9.04879 9.42298 8.99058 9.42798 8.93311 9.43786C8.71789 9.50192 8.52325 9.62135 8.36865 9.7842C8.21405 9.94705 8.10489 10.1476 8.0521 10.3659C7.98341 10.5429 7.95997 10.7343 7.98389 10.9227C8.00781 11.1111 8.07835 11.2906 8.1891 11.4449C8.34642 11.5627 8.5428 11.616 8.7381 11.5939C9.02269 11.5788 9.29643 11.4798 9.52478 11.3093C9.75313 11.1388 9.92585 10.9045 10.0211 10.6359C10.0626 10.4791 10.0639 10.3144 10.0247 10.1571C9.98556 9.99975 9.90727 9.85484 9.79711 9.73586C9.71078 9.63764 9.60469 9.55874 9.4858 9.50429C9.3669 9.44984 9.23787 9.42108 9.1071 9.41988V9.42287Z" fill="black"/>
</svg>
