<svg width="24" height="24" viewBox="0 0 24 24" fill="none" xmlns="http://www.w3.org/2000/svg">
<path fill-rule="evenodd" clip-rule="evenodd" d="M18.6886 11.6945C17.8403 11.6945 17.1531 12.3816 17.1531 13.2291C17.1531 14.0769 17.8407 14.7646 18.6886 14.7646C19.5365 14.7646 20.2241 14.0769 20.2241 13.2291C20.2241 12.3816 19.5369 11.6945 18.6886 11.6945ZM15.6531 13.2291C15.6531 11.5524 17.0127 10.1945 18.6886 10.1945C20.3645 10.1945 21.7241 11.5524 21.7241 13.2291C21.7241 14.9054 20.3649 16.2646 18.6886 16.2646C17.0123 16.2646 15.6531 14.9054 15.6531 13.2291Z" fill="black"/>
<path fill-rule="evenodd" clip-rule="evenodd" d="M8.17432 13.8513C8.58853 13.8513 8.92432 14.1871 8.92432 14.6013V15.7431C8.92432 18.2323 10.942 20.25 13.4312 20.25C15.9194 20.25 17.9372 18.2324 17.9372 15.7431V15.5151C17.9372 15.1009 18.273 14.7651 18.6872 14.7651C19.1014 14.7651 19.4372 15.1009 19.4372 15.5151V15.7431C19.4372 19.0607 16.748 21.75 13.4312 21.75C10.1135 21.75 7.42432 19.0608 7.42432 15.7431V14.6013C7.42432 14.1871 7.7601 13.8513 8.17432 13.8513Z" fill="black"/>
<path fill-rule="evenodd" clip-rule="evenodd" d="M9.47712 2.8493C9.56035 2.44353 9.95675 2.18206 10.3625 2.26529C11.3179 2.46125 12.2442 2.8077 12.9403 3.43358C13.6645 4.08463 14.0787 4.98414 14.0787 6.13436V9.39192C14.0787 12.6467 11.4417 15.297 8.18239 15.297C6.55043 15.297 5.07239 14.6377 4.00453 13.5698L4.00178 13.567L4.00179 13.567C2.93838 12.4926 2.27637 11.0264 2.27637 9.39192V6.13436C2.27637 4.98699 2.68423 4.08886 3.40668 3.43833C4.10059 2.81349 5.02603 2.46952 5.98454 2.27388C6.39039 2.19104 6.78654 2.45289 6.86938 2.85873C6.95222 3.26458 6.69037 3.66074 6.28453 3.74357C5.45128 3.91365 4.82264 4.18182 4.41041 4.55301C4.02671 4.89852 3.77637 5.38034 3.77637 6.13436V9.39192C3.77637 10.6088 4.26625 11.7012 5.06653 12.5105C5.86307 13.3063 6.96298 13.797 8.18239 13.797C10.6098 13.797 12.5787 11.8218 12.5787 9.39192V6.13436C12.5787 5.3832 12.326 4.89839 11.9375 4.54903C11.5209 4.1745 10.8888 3.90447 10.0611 3.7347C9.65536 3.65147 9.39389 3.25506 9.47712 2.8493Z" fill="black"/>
</svg>
