<svg width="24" height="24" viewBox="0 0 24 24" fill="none" xmlns="http://www.w3.org/2000/svg">
<path fill-rule="evenodd" clip-rule="evenodd" d="M9.97594 3.75C8.73318 3.75 7.72626 4.75692 7.72626 5.99968V12.0224C7.72626 12.2575 7.61604 12.4789 7.4285 12.6207C6.39526 13.4017 5.72583 14.6205 5.72583 15.9999C5.72583 18.347 7.62885 20.25 9.97594 20.25C12.3239 20.25 14.226 18.3471 14.226 15.9999C14.226 14.6202 13.5573 13.4015 12.5244 12.6207C12.3368 12.4789 12.2266 12.2575 12.2266 12.0224V5.99968C12.2266 4.75723 11.219 3.75 9.97594 3.75ZM6.22626 5.99968C6.22626 3.92849 7.90475 2.25 9.97594 2.25C12.0468 2.25 13.7266 3.92817 13.7266 5.99968V11.6647C14.9407 12.713 15.726 14.2569 15.726 15.9999C15.726 19.1753 13.1525 21.75 9.97594 21.75C6.80043 21.75 4.22583 19.1754 4.22583 15.9999C4.22583 14.2566 5.01221 12.7128 6.22626 11.6647V5.99968Z" fill="black"/>
<path fill-rule="evenodd" clip-rule="evenodd" d="M17.7422 3.67969C18.1564 3.67969 18.4922 4.01547 18.4922 4.42969V6.9925C18.4922 7.40671 18.1564 7.7425 17.7422 7.7425C17.328 7.7425 16.9922 7.40671 16.9922 6.9925V4.42969C16.9922 4.01547 17.328 3.67969 17.7422 3.67969Z" fill="black"/>
<path fill-rule="evenodd" clip-rule="evenodd" d="M15.7129 5.71094C15.7129 5.29672 16.0487 4.96094 16.4629 4.96094H19.0257C19.4399 4.96094 19.7757 5.29672 19.7757 5.71094C19.7757 6.12515 19.4399 6.46094 19.0257 6.46094H16.4629C16.0487 6.46094 15.7129 6.12515 15.7129 5.71094Z" fill="black"/>
<path fill-rule="evenodd" clip-rule="evenodd" d="M15.7129 10.209C15.7129 9.79477 16.0487 9.45898 16.4629 9.45898H19.0257C19.4399 9.45898 19.7757 9.79477 19.7757 10.209C19.7757 10.6232 19.4399 10.959 19.0257 10.959H16.4629C16.0487 10.959 15.7129 10.6232 15.7129 10.209Z" fill="black"/>
<path fill-rule="evenodd" clip-rule="evenodd" d="M9.97566 15.2754C9.57576 15.2754 9.25195 15.5996 9.25195 15.999C9.25195 16.3979 9.57552 16.7221 9.97601 16.7221C10.3752 16.7221 10.6991 16.3982 10.6991 15.999C10.6991 15.5997 10.3747 15.2754 9.97566 15.2754ZM7.75195 15.999C7.75195 14.7716 8.74681 13.7754 9.97566 13.7754C11.2034 13.7754 12.1991 14.7715 12.1991 15.999C12.1991 17.2266 11.2036 18.2221 9.97601 18.2221C8.74774 18.2221 7.75195 17.2269 7.75195 15.999Z" fill="black"/>
<path fill-rule="evenodd" clip-rule="evenodd" d="M9.97656 6.97656C10.3908 6.97656 10.7266 7.31235 10.7266 7.72656V14.5257C10.7266 14.9399 10.3908 15.2757 9.97656 15.2757C9.56235 15.2757 9.22656 14.9399 9.22656 14.5257V7.72656C9.22656 7.31235 9.56235 6.97656 9.97656 6.97656Z" fill="black"/>
</svg>
