<svg width="24" height="24" viewBox="0 0 24 24" fill="none" xmlns="http://www.w3.org/2000/svg">
<path d="M16.216 21.75H7.78198C4.47398 21.75 2.25 19.429 2.25 15.974V8.026C2.25 4.571 4.47398 2.25 7.78198 2.25H16.217C19.526 2.25 21.75 4.571 21.75 8.026V15.974C21.75 19.429 19.526 21.75 16.216 21.75ZM7.78198 3.75C5.33298 3.75 3.75 5.429 3.75 8.026V15.974C3.75 18.574 5.33298 20.25 7.78198 20.25H16.216C18.666 20.25 20.25 18.571 20.25 15.974V8.026C20.25 5.426 18.667 3.75 16.217 3.75H7.78198Z" fill="black"/>
<path d="M11.582 18.1371C11.502 18.1371 11.4211 18.1371 11.3401 18.1311C10.1966 18.0764 9.10931 17.6187 8.27094 16.8391C7.43258 16.0596 6.89723 15.0084 6.75971 13.8719C6.6222 12.7353 6.89142 11.5868 7.51966 10.6298C8.1479 9.67271 9.09461 8.96893 10.1921 8.6431C10.2874 8.61173 10.388 8.59978 10.4879 8.60797C10.5879 8.61616 10.6852 8.64432 10.7741 8.69077C10.8629 8.73723 10.9416 8.80105 11.0054 8.87845C11.0692 8.95585 11.1168 9.04526 11.1455 9.14138C11.1741 9.23751 11.1832 9.3384 11.1721 9.43809C11.1611 9.53778 11.1301 9.63424 11.0811 9.72177C11.0321 9.80929 10.9661 9.8861 10.8869 9.94765C10.8077 10.0092 10.717 10.0542 10.6201 10.0801C9.86254 10.3055 9.20921 10.7916 8.77564 11.4524C8.34208 12.1133 8.15621 12.9061 8.25105 13.6908C8.34588 14.4754 8.71526 15.2012 9.29377 15.7397C9.87228 16.2782 10.6226 16.5947 11.4121 16.6331C11.928 16.6621 12.4436 16.5696 12.9173 16.3629C13.391 16.1562 13.8094 15.8411 14.139 15.4431C14.2673 15.2923 14.4499 15.1984 14.6471 15.1817C14.8443 15.165 15.0402 15.2269 15.1919 15.354C15.3436 15.481 15.439 15.6629 15.4572 15.86C15.4754 16.0571 15.415 16.2534 15.2891 16.4061C14.8369 16.9499 14.2701 17.3871 13.6292 17.6863C12.9884 17.9856 12.2893 18.1395 11.582 18.1371Z" fill="black"/>
<path d="M16.5321 15.2244C16.4043 15.2245 16.2786 15.192 16.167 15.1299C16.0553 15.0677 15.9614 14.9781 15.8941 14.8694L15.1582 13.6844L13.3681 13.7004C13.1159 13.7003 12.8722 13.6092 12.6817 13.4439C12.4912 13.2785 12.3668 13.0501 12.3311 12.8004L12.0001 10.4164C11.9782 10.2581 11.9928 10.0968 12.0427 9.94502C12.0927 9.7932 12.1767 9.65483 12.2884 9.54047C12.4 9.42612 12.5363 9.33881 12.6869 9.28524C12.8375 9.23167 12.9983 9.21324 13.1571 9.23138L15.1431 9.46137C15.3389 9.48633 15.517 9.58746 15.6387 9.74283C15.7604 9.8982 15.816 10.0953 15.7934 10.2914C15.7707 10.4874 15.6717 10.6667 15.5178 10.7902C15.3639 10.9138 15.1675 10.9717 14.9712 10.9514L13.5711 10.7894L13.7711 12.2004H15.1952C15.4447 12.2013 15.69 12.2654 15.908 12.3868C16.1261 12.5081 16.3099 12.6828 16.4422 12.8944L17.1771 14.0784C17.2818 14.2475 17.3152 14.4513 17.2698 14.6449C17.2244 14.8386 17.1041 15.0063 16.9351 15.1114C16.8144 15.1869 16.6745 15.2262 16.5321 15.2244Z" fill="black"/>
<path d="M12.6611 8.0625C12.4633 8.0625 12.27 8.00385 12.1055 7.89397C11.9411 7.78409 11.8129 7.62791 11.7372 7.44519C11.6616 7.26246 11.6418 7.06139 11.6804 6.86741C11.7189 6.67343 11.8142 6.49525 11.954 6.3554C12.0939 6.21554 12.272 6.1203 12.466 6.08171C12.66 6.04313 12.8611 6.06293 13.0438 6.13862C13.2265 6.21431 13.3827 6.34248 13.4926 6.50693C13.6025 6.67138 13.6611 6.86472 13.6611 7.0625C13.6611 7.32772 13.5558 7.58207 13.3682 7.7696C13.1807 7.95714 12.9263 8.0625 12.6611 8.0625Z" fill="black"/>
</svg>
