<svg width="24" height="24" viewBox="0 0 24 24" fill="none" xmlns="http://www.w3.org/2000/svg">
<path fill-rule="evenodd" clip-rule="evenodd" d="M8.53158 11.7999C7.08369 11.7999 5.82157 12.6024 5.16741 13.7907C4.96765 14.1535 4.51156 14.2858 4.1487 14.086C3.78583 13.8862 3.65361 13.4301 3.85337 13.0673C4.76035 11.4198 6.51464 10.2999 8.53158 10.2999C11.4794 10.2999 13.8695 12.6898 13.8695 15.6368C13.8695 18.585 11.4793 20.9737 8.53158 20.9737C8.11736 20.9737 7.78158 20.6379 7.78158 20.2237C7.78158 19.8095 8.11736 19.4737 8.53158 19.4737C10.6513 19.4737 12.3695 17.7561 12.3695 15.6368C12.3695 13.5184 10.6512 11.7999 8.53158 11.7999Z" fill="black"/>
<path fill-rule="evenodd" clip-rule="evenodd" d="M2.99023 20.2246C2.99023 19.8104 3.32602 19.4746 3.74023 19.4746H5.82349C6.2377 19.4746 6.57349 19.8104 6.57349 20.2246C6.57349 20.6388 6.2377 20.9746 5.82349 20.9746H3.74023C3.32602 20.9746 2.99023 20.6388 2.99023 20.2246Z" fill="black"/>
<path fill-rule="evenodd" clip-rule="evenodd" d="M2.25 16.959C2.25 16.5448 2.58579 16.209 3 16.209H5.82438C6.23859 16.209 6.57438 16.5448 6.57438 16.959C6.57438 17.3732 6.23859 17.709 5.82438 17.709H3C2.58579 17.709 2.25 17.3732 2.25 16.959Z" fill="black"/>
<path fill-rule="evenodd" clip-rule="evenodd" d="M3.73633 3.77539C3.73633 3.36118 4.07211 3.02539 4.48633 3.02539H6.47927C6.85324 3.02539 7.17006 3.30087 7.222 3.67121L8.24235 10.9455C8.29989 11.3557 8.014 11.7348 7.6038 11.7924C7.1936 11.8499 6.81443 11.564 6.75689 11.1538L5.82713 4.52539H4.48633C4.07211 4.52539 3.73633 4.1896 3.73633 3.77539Z" fill="black"/>
<path fill-rule="evenodd" clip-rule="evenodd" d="M18.6129 16.2012C17.7089 16.2012 16.9766 16.9335 16.9766 17.8375C16.9766 18.7416 17.7089 19.4739 18.6129 19.4739C19.5169 19.4739 20.2493 18.7416 20.2493 17.8375C20.2493 16.9335 19.5169 16.2012 18.6129 16.2012ZM15.4766 17.8375C15.4766 16.1051 16.8804 14.7012 18.6129 14.7012C20.3454 14.7012 21.7493 16.1051 21.7493 17.8375C21.7493 19.57 20.3454 20.9739 18.6129 20.9739C16.8804 20.9739 15.4766 19.57 15.4766 17.8375Z" fill="black"/>
<path fill-rule="evenodd" clip-rule="evenodd" d="M11.2852 12.6777C11.2852 12.2635 11.6209 11.9277 12.0352 11.9277H18.2579C18.6721 11.9277 19.0079 12.2635 19.0079 12.6777C19.0079 13.0919 18.6721 13.4277 18.2579 13.4277H12.0352C11.6209 13.4277 11.2852 13.0919 11.2852 12.6777Z" fill="black"/>
<path fill-rule="evenodd" clip-rule="evenodd" d="M6.37695 7.94823C6.3775 7.53402 6.71372 7.19868 7.12794 7.19922L16.6152 7.21168C17.6768 7.21328 18.5751 8.00298 18.7087 9.05915L18.7107 9.07648L19.359 15.3735C19.4014 15.7856 19.1018 16.154 18.6898 16.1964C18.2777 16.2388 17.9093 15.9392 17.8669 15.5272L17.2196 9.24047C17.1779 8.93832 16.9194 8.71221 16.6132 8.71167C16.6132 8.71167 16.6133 8.71167 16.6132 8.71167L7.12597 8.69922C6.71176 8.69867 6.37641 8.36245 6.37695 7.94823Z" fill="black"/>
</svg>
