<svg width="24" height="24" viewBox="0 0 24 24" fill="none" xmlns="http://www.w3.org/2000/svg">
<path fill-rule="evenodd" clip-rule="evenodd" d="M6.25952 16.8299C6.25952 14.1124 8.46362 11.9098 11.1806 11.9098C13.8978 11.9098 16.1007 14.1127 16.1007 16.8299C16.1007 19.5471 13.8978 21.75 11.1806 21.75C8.46362 21.75 6.25952 19.5473 6.25952 16.8299ZM11.1806 13.4098C9.29159 13.4098 7.75952 14.9413 7.75952 16.8299C7.75952 18.7184 9.29159 20.25 11.1806 20.25C13.0694 20.25 14.6007 18.7187 14.6007 16.8299C14.6007 14.9411 13.0694 13.4098 11.1806 13.4098Z" fill="black"/>
<path fill-rule="evenodd" clip-rule="evenodd" d="M14.5078 15.7051C14.5078 15.2909 14.8436 14.9551 15.2578 14.9551H16.4361C17.3189 14.9551 18.0917 15.5473 18.321 16.3993C18.321 16.3993 18.321 16.3994 18.321 16.3993L19.2968 20.0124C19.4047 20.4123 19.1681 20.824 18.7682 20.932C18.3683 21.04 17.9566 20.8034 17.8486 20.4035L16.8728 16.7899C16.8198 16.5932 16.6409 16.4551 16.4361 16.4551H15.2578C14.8436 16.4551 14.5078 16.1193 14.5078 15.7051Z" fill="black"/>
<path fill-rule="evenodd" clip-rule="evenodd" d="M4.67773 9.77344C4.67773 9.35922 5.01352 9.02344 5.42773 9.02344H7.36587C7.7111 9.02344 8.01173 9.2591 8.09417 9.59433L9.07686 13.5903C9.17578 13.9925 8.9299 14.3988 8.52767 14.4977C8.12544 14.5966 7.71918 14.3507 7.62026 13.9485L6.77797 10.5234H5.42773C5.01352 10.5234 4.67773 10.1877 4.67773 9.77344Z" fill="black"/>
<path fill-rule="evenodd" clip-rule="evenodd" d="M13.3073 9.81999C12.8086 9.38753 12.0646 9.35824 11.5397 9.74896L11.5387 9.74971L11.5387 9.74971C11.3554 9.88568 11.2439 9.97565 11.1379 10.098C11.0325 10.2195 10.9095 10.4008 10.7589 10.7267C10.5852 11.1028 10.1395 11.2667 9.76349 11.093C9.38747 10.9193 9.22349 10.4736 9.39722 10.0976C9.59007 9.6802 9.78373 9.37013 10.0044 9.11557C10.2242 8.86189 10.448 8.69111 10.6451 8.54492L11.0919 9.14732L10.6441 8.54567C11.7401 7.72992 13.2651 7.79793 14.29 8.68675C14.7096 9.04965 15.0879 9.67402 15.3309 10.1149C15.4783 10.3811 15.7712 10.5544 16.0997 10.5544H17.0639C17.4781 10.5544 17.8139 10.8902 17.8139 11.3044C17.8139 11.7186 17.4781 12.0544 17.0639 12.0544H16.0997C15.2492 12.0544 14.4408 11.6051 14.018 10.8402L14.0175 10.8394C13.7684 10.3875 13.5012 9.98745 13.3085 9.82103L13.3073 9.81999Z" fill="black"/>
<path fill-rule="evenodd" clip-rule="evenodd" d="M10.0996 4.71144C10.0996 3.35248 11.2021 2.25 12.561 2.25C13.92 2.25 15.0225 3.35248 15.0225 4.71144C15.0225 6.07165 13.9197 7.17288 12.561 7.17288C11.2024 7.17288 10.0996 6.07165 10.0996 4.71144ZM12.561 3.75C12.0305 3.75 11.5996 4.18091 11.5996 4.71144C11.5996 5.24267 12.0302 5.67288 12.561 5.67288C13.0919 5.67288 13.5225 5.24267 13.5225 4.71144C13.5225 4.18091 13.0916 3.75 12.561 3.75Z" fill="black"/>
</svg>
