<svg width="25" height="25" viewBox="0 0 25 25" fill="none" xmlns="http://www.w3.org/2000/svg">
<path opacity="0.4" d="M14.0733 21.7788C13.5625 21.8693 13.0361 21.916 12.5 21.916C7.5291 21.916 3.5 17.8869 3.5 12.916C3.5 7.94612 7.5291 3.91602 12.5 3.91602C17.4699 3.91602 21.5 7.94612 21.5 12.916C21.5 13.7489 21.3871 14.5545 21.175 15.3193" stroke="black" stroke-width="1.5" stroke-linecap="round" stroke-linejoin="round"/>
<path d="M18.4551 17.4922V21.1372" stroke="black" stroke-width="1.5" stroke-linecap="round" stroke-linejoin="round"/>
<path d="M20.2789 19.3164H16.6309" stroke="black" stroke-width="1.5" stroke-linecap="round" stroke-linejoin="round"/>
<path fill-rule="evenodd" clip-rule="evenodd" d="M12.8909 9.44919L13.6789 11.0242C13.7569 11.1792 13.9069 11.2862 14.0789 11.3102L15.8419 11.5642C16.1279 11.6022 16.3289 11.8642 16.2909 12.1502C16.2759 12.2672 16.2209 12.3752 16.1359 12.4572L14.8609 13.6832C14.7359 13.8022 14.6779 13.9762 14.7079 14.1462L15.0099 15.8762C15.0559 16.1652 14.8599 16.4372 14.5709 16.4832C14.4569 16.5022 14.3409 16.4822 14.2389 16.4282L12.6639 15.6122C12.5089 15.5322 12.3239 15.5322 12.1689 15.6122L10.5929 16.4292C10.3349 16.5662 10.0139 16.4682 9.87688 16.2092C9.82288 16.1072 9.80388 15.9912 9.82188 15.8772L10.1239 14.1472C10.1539 13.9762 10.0969 13.8032 9.97188 13.6832L8.69488 12.4582C8.48788 12.2582 8.48088 11.9282 8.68088 11.7202C8.76288 11.6352 8.87188 11.5802 8.98888 11.5642L10.7529 11.3112C10.9249 11.2862 11.0739 11.1792 11.1519 11.0242L11.9419 9.44919C12.0779 9.18719 12.3999 9.08419 12.6619 9.22019C12.7599 9.27119 12.8399 9.35119 12.8909 9.44919Z" stroke="black" stroke-width="1.5" stroke-linecap="round" stroke-linejoin="round"/>
</svg>