<svg width="25" height="25" viewBox="0 0 25 25" fill="none" xmlns="http://www.w3.org/2000/svg">
<path fill-rule="evenodd" clip-rule="evenodd" d="M13.4423 11.0921L15.2846 12.7109C15.4666 12.8702 15.7123 12.9257 15.9413 12.86L18.2918 12.195C18.6709 12.0825 19.0653 12.313 19.173 12.709C19.2168 12.8709 19.207 13.0444 19.1448 13.1998L18.208 15.5279C18.1153 15.7555 18.1374 16.0157 18.2678 16.2225L19.5836 18.3194C19.7985 18.6717 19.6989 19.1391 19.3616 19.3636C19.2286 19.4517 19.072 19.4922 18.9151 19.4791L16.4957 19.3001C16.2574 19.2828 16.0264 19.387 15.8751 19.5799L14.3395 21.543C14.0896 21.8689 13.6344 21.9213 13.3224 21.6604C13.1994 21.5569 13.112 21.4153 13.0736 21.2556L12.5151 18.8165C12.4602 18.5764 12.2941 18.3811 12.0725 18.2953L9.8066 17.4113C9.43797 17.2664 9.25095 16.8371 9.38943 16.4515C9.44622 16.2938 9.55291 16.1605 9.69166 16.0738L11.7671 14.7429C11.9699 14.6139 12.0997 14.3891 12.1141 14.1412L12.2514 11.6291C12.2798 11.2086 12.6292 10.8921 13.0318 10.9219C13.1819 10.9326 13.3252 10.992 13.4423 11.0921Z" stroke="black" stroke-width="1.5" stroke-linecap="round" stroke-linejoin="round"/>
<path opacity="0.4" d="M20.6521 9.50111C21.5844 7.87232 21.6513 6.46676 21.3131 5.59144C20.527 3.55695 16.0843 5.13154 11.3902 9.10839C6.69605 13.0852 3.52795 17.9584 4.31404 19.9929C4.9504 21.6398 7.98292 20.9217 11.6053 18.4787" stroke="black" stroke-width="1.5" stroke-linecap="round" stroke-linejoin="round"/>
<path d="M4.45036 7.55232C5.08448 6.84807 5.34418 5.88314 5.14607 4.95589C5.85004 5.59108 6.81486 5.84903 7.7425 5.6516C7.10731 6.35557 6.84868 7.32078 7.04679 8.24803" stroke="black" stroke-width="1.5" stroke-linecap="round" stroke-linejoin="round"/>
</svg>