<svg width="25" height="25" viewBox="0 0 25 25" fill="none" xmlns="http://www.w3.org/2000/svg">
<path fill-rule="evenodd" clip-rule="evenodd" d="M7.55583 13.7924L8.28984 15.2588C8.36284 15.4038 8.50182 15.503 8.66182 15.5254L10.3048 15.7618C10.5698 15.7969 10.7568 16.0421 10.7218 16.3077C10.7088 16.4167 10.6568 16.5179 10.5778 16.5938L9.38985 17.7351C9.27285 17.8461 9.22082 18.0085 9.24782 18.1672L9.52882 19.7775C9.57182 20.047 9.38883 20.3 9.12083 20.3428C9.01483 20.3603 8.90684 20.3419 8.81084 20.2922L7.34383 19.5313C7.19983 19.4564 7.02884 19.4564 6.88384 19.5313L5.41582 20.2922C5.17482 20.4197 4.87683 20.3282 4.74983 20.0879C4.69883 19.9935 4.68183 19.8845 4.69783 19.7785L4.97884 18.1672C5.00784 18.0085 4.95384 17.847 4.83684 17.7351L3.64784 16.5938C3.45584 16.4079 3.44982 16.1005 3.63582 15.9068C3.71282 15.828 3.81284 15.7774 3.92284 15.7618L5.56383 15.5264C5.72483 15.504 5.86384 15.4038 5.93684 15.2598L6.67284 13.7924C6.79884 13.5482 7.09882 13.4529 7.34282 13.5794C7.43382 13.627 7.50783 13.701 7.55583 13.7924Z" stroke="black" stroke-width="1.5" stroke-linecap="round" stroke-linejoin="round"/>
<path fill-rule="evenodd" clip-rule="evenodd" d="M18.3292 13.7924L19.0631 15.2588C19.1361 15.4038 19.2752 15.503 19.4362 15.5254L21.0782 15.7618C21.3442 15.7969 21.5312 16.0421 21.4962 16.3077C21.4822 16.4167 21.4301 16.5179 21.3521 16.5938L20.1642 17.7351C20.0472 17.8461 19.9942 18.0085 20.0222 18.1672L20.3032 19.7775C20.3462 20.047 20.1632 20.3 19.8942 20.3428C19.7882 20.3603 19.6801 20.3419 19.5851 20.2922L18.1172 19.5313C17.9732 19.4564 17.8022 19.4564 17.6572 19.5313L16.1902 20.2922C15.9482 20.4197 15.6512 20.3282 15.5232 20.0879C15.4732 19.9935 15.4551 19.8845 15.4721 19.7785L15.7531 18.1672C15.7811 18.0085 15.7281 17.847 15.6111 17.7351L14.4222 16.5938C14.2292 16.4079 14.2232 16.1005 14.4092 15.9068C14.4862 15.828 14.5862 15.7774 14.6962 15.7618L16.3382 15.5264C16.4982 15.504 16.6371 15.4038 16.7101 15.2598L17.4462 13.7924C17.5722 13.5482 17.8722 13.4529 18.1162 13.5794C18.2082 13.627 18.2822 13.701 18.3292 13.7924Z" stroke="black" stroke-width="1.5" stroke-linecap="round" stroke-linejoin="round"/>
<path opacity="0.4" fill-rule="evenodd" clip-rule="evenodd" d="M12.943 5.75144L13.676 7.21783C13.749 7.36283 13.8891 7.46203 14.0491 7.48443L15.6911 7.72083C15.9571 7.75683 16.1441 8.00113 16.1091 8.26673C16.0951 8.37573 16.044 8.47694 15.965 8.55284L14.7771 9.69413C14.6601 9.80503 14.6081 9.96753 14.6351 10.1261L14.916 11.7365C14.959 12.006 14.776 12.259 14.507 12.3018C14.401 12.3193 14.293 12.3008 14.198 12.2512L12.731 11.4903C12.587 11.4164 12.415 11.4164 12.27 11.4903L10.8031 12.2512C10.5621 12.3797 10.264 12.2872 10.137 12.0469C10.086 11.9525 10.068 11.8435 10.085 11.7375L10.366 10.1261C10.394 9.96753 10.341 9.80603 10.224 9.69413L9.03505 8.55374C8.84205 8.36694 8.83705 8.05943 9.02205 7.86583C9.09905 7.78703 9.20004 7.73643 9.30904 7.72083L10.951 7.48543C11.111 7.46303 11.2511 7.36283 11.3241 7.21873L12.059 5.75144C12.186 5.50724 12.4851 5.41183 12.7301 5.53833C12.8211 5.58603 12.895 5.66004 12.943 5.75144Z" stroke="black" stroke-width="1.5" stroke-linecap="round" stroke-linejoin="round"/>
</svg>