<svg width="25" height="24" viewBox="0 0 25 24" fill="none" xmlns="http://www.w3.org/2000/svg">
<path d="M3.5 12V18.802C3.5 20.016 4.484 21 5.698 21H8.302C9.516 21 10.5 20.016 10.5 18.802V5.198C10.5 3.984 9.516 3 8.302 3H5.698C4.484 3 3.5 3.984 3.5 5.198V8.599" stroke="black" stroke-width="1.5" stroke-linecap="round" stroke-linejoin="round"/>
<path d="M21.5 15.302C21.5 16.516 20.516 17.5 19.302 17.5H16.698C15.484 17.5 14.5 16.516 14.5 15.302V8.698C14.5 7.484 15.484 6.5 16.698 6.5H19.302C20.516 6.5 21.5 7.484 21.5 8.698V11.7577" stroke="black" stroke-width="1.5" stroke-linecap="round" stroke-linejoin="round"/>
</svg>