<svg width="25" height="24" viewBox="0 0 25 24" fill="none" xmlns="http://www.w3.org/2000/svg">
<path d="M19.302 3C20.516 3 21.5 3.984 21.5 5.198V5.802C21.5 7.016 20.516 8 19.302 8H16.698C15.484 8 14.5 7.016 14.5 5.802V5.198C14.5 3.984 15.484 3 16.698 3" stroke="black" stroke-width="1.5" stroke-linecap="round" stroke-linejoin="round"/>
<path d="M21.5 18.802C21.5 20.016 20.516 21 19.302 21H16.698C15.484 21 14.5 20.016 14.5 18.802V14.198C14.5 12.984 15.484 12 16.698 12H19.302C20.516 12 21.5 12.984 21.5 14.198V14.7769" stroke="black" stroke-width="1.5" stroke-linecap="round" stroke-linejoin="round"/>
<path d="M3.5 12V18.802C3.5 20.016 4.484 21 5.698 21H8.302C9.516 21 10.5 20.016 10.5 18.802V5.198C10.5 3.984 9.516 3 8.302 3H5.698C4.484 3 3.5 3.984 3.5 5.198V8.599" stroke="black" stroke-width="1.5" stroke-linecap="round" stroke-linejoin="round"/>
</svg>