<svg width="25" height="24" viewBox="0 0 25 24" fill="none" xmlns="http://www.w3.org/2000/svg">
<path d="M21.543 8.18793C16.7968 3.62568 9.43145 3.20827 4.20076 7.2062C2.45915 8.53722 4.52963 11.3228 6.31211 9.91884C9.56572 7.44653 14.0025 7.22566 17.4857 9.36328C19.3402 10.5016 17.6453 13.4741 15.7314 12.3201C13.1472 10.7011 9.78269 11.1107 7.66356 13.3038" stroke="black" stroke-width="1.5" stroke-linecap="round" stroke-linejoin="round"/>
<path opacity="0.4" fill-rule="evenodd" clip-rule="evenodd" d="M13.689 16.087C14.4858 16.8547 14.5102 18.1234 13.7425 18.9203C12.9739 19.7172 11.7061 19.7415 10.9082 18.9738C10.1114 18.2062 10.088 16.9374 10.8557 16.1405C11.0406 15.9479 11.2624 15.7942 11.5076 15.6891C12.249 15.3709 13.1081 15.5276 13.689 16.087Z" stroke="black" stroke-width="1.5" stroke-linecap="round" stroke-linejoin="round"/>
</svg>