<svg width="24" height="24" viewBox="0 0 24 24" fill="none" xmlns="http://www.w3.org/2000/svg">
<path d="M16.8775 10.7262L17.3902 5.03533C17.4111 4.7432 17.3144 4.45482 17.1217 4.23428L16.1526 3.12522C16.0203 2.97384 15.7907 2.95743 15.6383 3.08846L14.5212 4.04841C14.2991 4.2393 14.1624 4.511 14.1415 4.80313L13.6079 10.7262" stroke="black" stroke-width="1.5" stroke-linecap="round" stroke-linejoin="round"/>
<path d="M17.1632 7.13649L13.9834 6.84351" stroke="black" stroke-width="1.5" stroke-linecap="round" stroke-linejoin="round"/>
<path d="M6.94177 8.3746L8.51221 8.31616" stroke="black" stroke-width="1.5" stroke-linecap="round" stroke-linejoin="round"/>
<path d="M6.84509 5.78452L8.41553 5.72607" stroke="black" stroke-width="1.5" stroke-linecap="round" stroke-linejoin="round"/>
<path d="M7.02892 10.7258L6.78913 4.28236C6.76541 3.64495 7.14579 3.17975 7.78383 3.15601L9.6093 3.08808C10.2454 3.0644 10.661 3.49998 10.6848 4.13739L10.9299 10.7258" stroke="black" stroke-width="1.5" stroke-linecap="round" stroke-linejoin="round"/>
<path d="M4.85704 11.9885C4.78902 11.3233 5.31105 10.7451 5.97974 10.7451H18.0206C18.6893 10.7451 19.2114 11.3233 19.1433 11.9885L18.4291 18.9725C18.3113 20.1242 17.3414 21 16.1837 21H7.81666C6.65901 21 5.68905 20.1242 5.57127 18.9725L4.85704 11.9885Z" stroke="black" stroke-width="1.5" stroke-linecap="round" stroke-linejoin="round"/>
</svg>
