<svg width="24" height="24" viewBox="0 0 24 24" fill="none" xmlns="http://www.w3.org/2000/svg">
<path fill-rule="evenodd" clip-rule="evenodd" d="M16.5029 4.19482V6.30228C16.5029 7.03591 17.0225 7.4971 17.759 7.4971H19.7439C20.4795 7.4971 21 7.03883 21 6.30228V4.19482C21 3.45827 20.4795 3 19.7439 3H17.759C17.0225 3 16.5029 3.45827 16.5029 4.19482Z" stroke="black" stroke-width="1.5" stroke-linecap="round" stroke-linejoin="round"/>
<path fill-rule="evenodd" clip-rule="evenodd" d="M3 4.19482V6.30228C3 7.03591 3.51957 7.4971 4.25611 7.4971H6.24099C6.97656 7.4971 7.4971 7.03883 7.4971 6.30228V4.19482C7.4971 3.45827 6.97656 3 6.24099 3H4.25611C3.51957 3 3 3.45827 3 4.19482Z" stroke="black" stroke-width="1.5" stroke-linecap="round" stroke-linejoin="round"/>
<path fill-rule="evenodd" clip-rule="evenodd" d="M16.5029 17.6977V19.8052C16.5029 20.5388 17.0225 21 17.759 21H19.7439C20.4795 21 21 20.5417 21 19.8052V17.6977C21 16.9612 20.4795 16.5029 19.7439 16.5029H17.759C17.0225 16.5029 16.5029 16.9612 16.5029 17.6977Z" stroke="black" stroke-width="1.5" stroke-linecap="round" stroke-linejoin="round"/>
<path fill-rule="evenodd" clip-rule="evenodd" d="M3 17.6977V19.8052C3 20.5388 3.51957 21 4.25611 21H6.24099C6.97656 21 7.4971 20.5417 7.4971 19.8052V17.6977C7.4971 16.9612 6.97656 16.5029 6.24099 16.5029H4.25611C3.51957 16.5029 3 16.9612 3 17.6977Z" stroke="black" stroke-width="1.5" stroke-linecap="round" stroke-linejoin="round"/>
<path d="M12.0002 9.82617V14.1705M14.1725 11.9983H9.82812" stroke="black" stroke-width="1.5" stroke-linecap="round" stroke-linejoin="round"/>
<path d="M7.51901 5.23047H16.5122M7.51901 18.7514H16.5122M5.28516 7.49663V16.5035M18.7529 7.49663V16.5035" stroke="black" stroke-width="1.5" stroke-linecap="round" stroke-linejoin="round"/>
</svg>
