<svg width="24" height="24" viewBox="0 0 24 24" fill="none" xmlns="http://www.w3.org/2000/svg">
<path fill-rule="evenodd" clip-rule="evenodd" d="M7.99976 5.50034C7.99976 6.88089 6.88092 8.00071 5.50036 8.00071C4.11884 8.00071 3 6.88089 3 5.50034C3 4.11979 4.11884 3.00095 5.50036 3.00095C6.88092 3.00095 7.99976 4.11979 7.99976 5.50034Z" stroke="black" stroke-width="1.5" stroke-linecap="round" stroke-linejoin="round"/>
<path fill-rule="evenodd" clip-rule="evenodd" d="M20.9991 18.4996C20.9991 19.8802 19.8802 20.999 18.4997 20.999C17.1181 20.999 15.9993 19.8802 15.9993 18.4996C15.9993 17.1191 17.1181 16.0002 18.4997 16.0002C19.8802 16.0002 20.9991 17.1191 20.9991 18.4996Z" stroke="black" stroke-width="1.5" stroke-linecap="round" stroke-linejoin="round"/>
<path fill-rule="evenodd" clip-rule="evenodd" d="M5.50034 16.0002C6.88089 16.0002 7.99973 17.1191 7.99973 18.4996C7.99973 19.8802 6.88089 21 5.50034 21C4.11979 21 3.00095 19.8802 3.00095 18.4996C3.00095 17.1191 4.11979 16.0002 5.50034 16.0002Z" stroke="black" stroke-width="1.5" stroke-linecap="round" stroke-linejoin="round"/>
<path fill-rule="evenodd" clip-rule="evenodd" d="M18.4987 3C19.8792 3 20.9981 4.11884 20.9981 5.49939C20.9981 6.88092 19.8792 7.99976 18.4987 7.99976C17.1181 7.99976 15.9993 6.88092 15.9993 5.49939C15.9993 4.11884 17.1181 3 18.4987 3Z" stroke="black" stroke-width="1.5" stroke-linecap="round" stroke-linejoin="round"/>
<path d="M18.4983 10.9992V12.9995M5.5 10.9992V12.9995M12.9985 18.4983H10.9982M12.9985 5.5H10.9982" stroke="black" stroke-width="1.5" stroke-linecap="round" stroke-linejoin="round"/>
</svg>
