<svg width="24" height="24" viewBox="0 0 24 24" fill="none" xmlns="http://www.w3.org/2000/svg">
<path fill-rule="evenodd" clip-rule="evenodd" d="M16.5028 4.19481V6.30226C16.5028 7.03588 17.0224 7.49706 17.7589 7.49706H19.7438C20.4793 7.49706 20.9989 7.03879 20.9989 6.30226V4.19481C20.9989 3.45827 20.4793 3 19.7438 3H17.7589C17.0224 3 16.5028 3.45827 16.5028 4.19481Z" stroke="black" stroke-width="1.5" stroke-linecap="round" stroke-linejoin="round"/>
<path fill-rule="evenodd" clip-rule="evenodd" d="M3 4.19481V6.30226C3 7.03588 3.51957 7.49706 4.2561 7.49706H6.24096C6.97652 7.49706 7.49706 7.03879 7.49706 6.30226V4.19481C7.49706 3.45827 6.97652 3 6.24096 3H4.2561C3.51957 3 3 3.45827 3 4.19481Z" stroke="black" stroke-width="1.5" stroke-linecap="round" stroke-linejoin="round"/>
<path fill-rule="evenodd" clip-rule="evenodd" d="M3 17.6976V19.8051C3 20.5387 3.51957 20.9999 4.2561 20.9999H6.24096C6.97652 20.9999 7.49706 20.5416 7.49706 19.8051V17.6976C7.49706 16.9611 6.97652 16.5028 6.24096 16.5028H4.2561C3.51957 16.5028 3 16.9611 3 17.6976Z" stroke="black" stroke-width="1.5" stroke-linecap="round" stroke-linejoin="round"/>
<path d="M7.51899 5.23047H16.5121M7.51899 18.7513H10.6743M5.28516 7.49661V16.5034M18.7528 7.49661V9.6926" stroke="black" stroke-width="1.5" stroke-linecap="round" stroke-linejoin="round"/>
<path fill-rule="evenodd" clip-rule="evenodd" d="M15.7219 20.7311L14.745 20.8945C14.0308 21.0142 13.3994 20.4187 13.4772 19.6978L13.5862 18.6907C13.6387 18.2043 13.8421 17.747 14.168 17.3821L17.7777 13.3832C18.2808 12.8393 19.1292 12.8072 19.6721 13.3102L20.5702 14.1411C21.1131 14.6442 21.1462 15.4926 20.6431 16.0355L17.0801 19.9819C16.726 20.3788 16.2463 20.6435 15.7219 20.7311Z" stroke="black" stroke-width="1.5" stroke-linecap="round" stroke-linejoin="round"/>
</svg>
