<svg width="24" height="24" viewBox="0 0 24 24" fill="none" xmlns="http://www.w3.org/2000/svg">
<path d="M17.1372 3.74458C15.3862 3.18271 12.9102 3.74458 12.001 6.03452C11.0917 3.74458 8.6157 3.18271 6.8647 3.74458C3.5323 4.81811 2.33654 8.44614 3.35227 11.6203C4.93462 16.6516 12.001 20.5269 12.001 20.5269C12.001 20.5269 19.0673 16.6516 20.6496 11.6203C21.6654 8.44614 20.4696 4.81811 17.1372 3.74458Z" stroke="black" stroke-width="1.5" stroke-linecap="round" stroke-linejoin="round"/>
<path d="M15.0241 18.3156L15.011 11.8438C14.9999 11.3011 14.7725 10.7854 14.3793 10.4112L12.4023 8.16695C12.1325 7.91009 11.706 7.91884 11.447 8.18655L9.54885 10.5104C9.17141 10.9004 8.96536 11.425 8.9765 11.9677L8.98963 18.4395" stroke="black" stroke-width="1.5" stroke-linecap="round" stroke-linejoin="round"/>
<path d="M14.4064 11.4332L13.2319 12.6362L12.0004 11.4332L10.8258 12.6362L9.59424 11.4332" stroke="black" stroke-width="1.5" stroke-linecap="round" stroke-linejoin="round"/>
</svg>
