<svg width="24" height="24" viewBox="0 0 24 24" fill="none" xmlns="http://www.w3.org/2000/svg">
<path d="M12.0012 6.03446C12.9105 3.74452 15.3858 3.18265 17.1368 3.74452C20.4692 4.81806 21.6649 8.44608 20.6492 11.6203C19.0669 16.6515 12.0012 20.5269 12.0012 20.5269C12.0012 20.5269 4.98775 16.7103 3.35235 11.6203C2.33567 8.44608 3.52385 4.81806 6.85625 3.74452C7.80736 3.4376 8.95937 3.46371 9.96709 3.81865" stroke="black" stroke-width="1.5" stroke-linecap="round" stroke-linejoin="round"/>
<path d="M8.4215 18.0786L12.1369 11.6854C12.309 11.3762 12.3506 11.0111 12.2523 10.6712L11.7582 8.9617C11.6907 8.72838 11.4478 8.59307 11.2139 8.65859L9.50038 9.13863C9.15965 9.23409 8.87115 9.46167 8.69898 9.77082L5.49947 15.2764" stroke="black" stroke-width="1.5" stroke-linecap="round" stroke-linejoin="round"/>
</svg>
