<svg width="24" height="24" viewBox="0 0 24 24" fill="none" xmlns="http://www.w3.org/2000/svg">
<path fill-rule="evenodd" clip-rule="evenodd" d="M21.0005 18.9003V15.8189C21.0005 14.6591 20.0606 13.7183 18.9008 13.7183H15.8184C14.6596 13.7183 13.7188 14.6591 13.7188 15.8189V18.9003C13.7188 20.0591 14.6596 21 15.8194 21H18.9008C20.0606 21 21.0005 20.0601 21.0005 18.9003Z" stroke="black" stroke-width="1.5" stroke-linecap="round" stroke-linejoin="round"/>
<path d="M21 10.541V8.28372" stroke="black" stroke-width="1.5" stroke-linecap="round" stroke-linejoin="round"/>
<path d="M3 8.47831V10.541" stroke="black" stroke-width="1.5" stroke-linecap="round" stroke-linejoin="round"/>
<path d="M3 13.4595V15.707" stroke="black" stroke-width="1.5" stroke-linecap="round" stroke-linejoin="round"/>
<path d="M10.5405 3H8.2832" stroke="black" stroke-width="1.5" stroke-linecap="round" stroke-linejoin="round"/>
<path d="M8.4668 21H10.5392" stroke="black" stroke-width="1.5" stroke-linecap="round" stroke-linejoin="round"/>
<path d="M15.5217 3H13.459" stroke="black" stroke-width="1.5" stroke-linecap="round" stroke-linejoin="round"/>
<path d="M5.26723 3.64141C4.52777 4.05005 3.95371 4.67276 3.58398 5.44141" stroke="black" stroke-width="1.5" stroke-linecap="round" stroke-linejoin="round"/>
<path d="M20.3295 5.27734C19.9208 4.52815 19.3273 3.93464 18.5781 3.54545" stroke="black" stroke-width="1.5" stroke-linecap="round" stroke-linejoin="round"/>
<path d="M3.66211 18.7135C4.07076 19.4626 4.66427 20.0562 5.41346 20.4551" stroke="black" stroke-width="1.5" stroke-linecap="round" stroke-linejoin="round"/>
</svg>
