<svg width="24" height="24" viewBox="0 0 24 24" fill="none" xmlns="http://www.w3.org/2000/svg">
<path d="M3 13.5469V15.6339" stroke="black" stroke-width="1.5" stroke-linecap="round" stroke-linejoin="round"/>
<path d="M10.4825 21H8.39648" stroke="black" stroke-width="1.5" stroke-linecap="round" stroke-linejoin="round"/>
<path d="M5.87124 20.999C4.24832 20.9513 3.18292 19.8849 3 18.334" stroke="black" stroke-width="1.5" stroke-linecap="round" stroke-linejoin="round"/>
<path d="M5.87124 8.10742C4.24832 8.1551 3.18292 9.22148 3 10.7724" stroke="black" stroke-width="1.5" stroke-linecap="round" stroke-linejoin="round"/>
<path d="M13.0078 21.0009C14.6307 20.9532 15.6961 19.8869 15.8791 18.3359" stroke="black" stroke-width="1.5" stroke-linecap="round" stroke-linejoin="round"/>
<path d="M17.5784 15.8792H11.543C9.43363 15.8792 8.12109 14.3906 8.12109 12.2831V6.59611C8.12109 4.48865 9.43363 3 11.544 3H17.5784C19.6878 3 20.9994 4.48865 20.9994 6.59611V12.2831C20.9994 14.3906 19.681 15.8792 17.5784 15.8792Z" stroke="black" stroke-width="1.5" stroke-linecap="round" stroke-linejoin="round"/>
<path d="M15.8796 15.8815V11.7172C15.8796 9.60974 14.567 8.12109 12.4576 8.12109H8.12109" stroke="black" stroke-width="1.5" stroke-linecap="round" stroke-linejoin="round"/>
</svg>
