<svg width="24" height="24" viewBox="0 0 24 24" fill="none" xmlns="http://www.w3.org/2000/svg">
<path d="M16.4939 3H7.50072C6.90623 3 6.33996 3.24908 5.93812 3.68692L4.81045 4.91676C4.45239 5.30789 4.25391 5.8187 4.25391 6.34995V17.6501C4.25391 18.1813 4.45239 18.6921 4.81045 19.0832L5.93812 20.3131C6.33996 20.7509 6.90623 21 7.50072 21H16.4939C17.0884 21 17.6547 20.7509 18.0565 20.3131L19.1842 19.0832C19.5432 18.6921 19.7417 18.1803 19.7417 17.6501V6.34995C19.7417 5.81968 19.5432 5.30789 19.1842 4.91676L18.0555 3.68692C17.6537 3.24908 17.0874 3 16.4939 3Z" stroke="black" stroke-width="1.5" stroke-linecap="round" stroke-linejoin="round"/>
<path d="M8.03058 10.2196C7.70269 7.81535 9.57177 5.6748 11.9984 5.6748C14.425 5.6748 16.294 7.81535 15.9661 10.2196L15.2481 15.4892C15.0263 17.115 13.6388 18.3264 11.9984 18.3264C10.3579 18.3264 8.97047 17.115 8.74863 15.4892L8.03058 10.2196Z" stroke="black" stroke-width="1.5" stroke-linecap="round" stroke-linejoin="round"/>
<path d="M8.69261 14.9976H4.25391M19.7421 14.9976H15.3053" stroke="black" stroke-width="1.5" stroke-linecap="round" stroke-linejoin="round"/>
<path d="M8.27326 12H4.25391M19.7427 12H15.7234" stroke="black" stroke-width="1.5" stroke-linecap="round" stroke-linejoin="round"/>
<path d="M8.05435 9.00488H4.25586M19.7454 9.00488H15.9382" stroke="black" stroke-width="1.5" stroke-linecap="round" stroke-linejoin="round"/>
<path d="M12 9.48207V9.40501M12 9C11.7788 9 11.5996 9.17919 11.5996 9.39963C11.5996 9.62081 11.7788 9.8 12 9.8C12.2212 9.8 12.4004 9.62081 12.4004 9.39963C12.4004 9.17919 12.2212 9 12 9Z" stroke="black" stroke-width="1.5" stroke-linecap="round" stroke-linejoin="round"/>
</svg>
