<svg width="25" height="24" viewBox="0 0 25 24" fill="none" xmlns="http://www.w3.org/2000/svg">
<path fill-rule="evenodd" clip-rule="evenodd" d="M8.30755 4.82049H7.96555V3.00049C7.96555 2.58649 7.62955 2.25049 7.21555 2.25049C6.80155 2.25049 6.46555 2.58649 6.46555 3.00049V4.82049H6.12155C4.96255 4.82049 4.01855 5.76149 4.01855 6.92049V16.8105C4.01855 17.9685 4.96255 18.9105 6.12155 18.9105H6.46555V21.0005C6.46555 21.4145 6.80155 21.7505 7.21555 21.7505C7.62955 21.7505 7.96555 21.4145 7.96555 21.0005V18.9105H8.30755C9.46755 18.9105 10.4116 17.9685 10.4116 16.8105V6.92049C10.4116 5.76149 9.46755 4.82049 8.30755 4.82049Z" fill="black"/>
<path fill-rule="evenodd" clip-rule="evenodd" d="M18.8773 7.72H18.5353V3C18.5353 2.586 18.1993 2.25 17.7853 2.25C17.3713 2.25 17.0353 2.586 17.0353 3V7.72H16.6923C15.5323 7.72 14.5883 8.662 14.5883 9.821V15.38C14.5883 16.544 15.5323 17.491 16.6923 17.491H17.0353V21C17.0353 21.414 17.3713 21.75 17.7853 21.75C18.1993 21.75 18.5353 21.414 18.5353 21V17.491H18.8773C20.0373 17.491 20.9813 16.544 20.9813 15.38V9.821C20.9813 8.662 20.0373 7.72 18.8773 7.72Z" fill="black"/>
</svg>