<svg width="25" height="24" viewBox="0 0 25 24" fill="none" xmlns="http://www.w3.org/2000/svg">
<path fill-rule="evenodd" clip-rule="evenodd" d="M13.2499 10.7849C13.2499 10.9689 13.4141 11.1096 13.596 11.0813L21.4254 9.86567C21.5979 9.8389 21.7116 9.67086 21.6662 9.50235C20.6669 5.79279 17.4774 2.9783 13.5732 2.53702C13.3993 2.51737 13.2499 2.65562 13.2499 2.83057V10.7849Z" fill="black"/>
<path fill-rule="evenodd" clip-rule="evenodd" d="M13.9913 12.5377C13.7942 12.5683 13.6813 12.779 13.765 12.96L16.9988 19.958C17.0722 20.1169 17.2658 20.1798 17.4154 20.0889C20.16 18.4212 22 15.4069 22 11.9678C22 11.8527 21.9953 11.7384 21.9886 11.6246C21.9782 11.4495 21.8176 11.3228 21.6443 11.3497L13.9913 12.5377Z" fill="black"/>
<path fill-rule="evenodd" clip-rule="evenodd" d="M11.8265 12.3401C11.8215 12.3311 11.8175 12.3211 11.8125 12.3111C11.7935 12.2671 11.7785 12.2211 11.7675 12.1721C11.7545 12.1121 11.7485 12.0531 11.7495 11.9941V2.83062C11.7495 2.65565 11.5999 2.51742 11.426 2.5371C6.6922 3.07291 2.99951 7.09356 2.99951 11.9681C2.99951 17.2061 7.26151 21.4681 12.4995 21.4681C13.5361 21.4681 14.5298 21.2929 15.4636 20.9834C15.6299 20.9282 15.7076 20.74 15.6341 20.5809L11.8265 12.3401Z" fill="black"/>
</svg>