<svg width="25" height="24" viewBox="0 0 25 24" fill="none" xmlns="http://www.w3.org/2000/svg">
<path fill-rule="evenodd" clip-rule="evenodd" d="M18.1823 12.7085H12.7623C12.2263 12.7085 11.7903 12.2725 11.7903 11.7365V6.3185C11.7903 5.9365 11.6253 5.5695 11.3383 5.3145C11.0483 5.0565 10.6603 4.9335 10.2773 4.9825C8.01034 5.2565 5.93534 6.4775 4.58334 8.3335C3.21334 10.2165 2.70734 12.5355 3.16134 14.8625C3.79034 18.1065 6.39134 20.7095 9.63334 21.3395C10.1893 21.4465 10.7443 21.4995 11.2923 21.4995C13.0453 21.4995 14.7333 20.9575 16.1653 19.9145C18.0203 18.5655 19.2433 16.4925 19.5203 14.2275C19.5673 13.8415 19.4463 13.4525 19.1893 13.1625C18.9333 12.8735 18.5663 12.7085 18.1823 12.7085Z" fill="black"/>
<path fill-rule="evenodd" clip-rule="evenodd" d="M21.99 9.19492V9.19292C21.532 5.70992 18.784 2.96192 15.311 2.51292C14.93 2.45892 14.543 2.57592 14.25 2.83092C13.954 3.08792 13.785 3.45892 13.785 3.84792V9.37892C13.785 10.1179 14.386 10.7179 15.127 10.7179H20.653C21.04 10.7179 21.408 10.5509 21.664 10.2599C21.921 9.96892 22.04 9.58092 21.99 9.19492Z" fill="black"/>
</svg>