<svg width="25" height="24" viewBox="0 0 25 24" fill="none" xmlns="http://www.w3.org/2000/svg">
<path fill-rule="evenodd" clip-rule="evenodd" d="M21.5 20H6.441C5.371 20 4.5 19.13 4.5 18.061V3C4.5 2.447 4.053 2 3.5 2C2.947 2 2.5 2.447 2.5 3V18.061C2.5 20.232 4.269 22 6.441 22H21.5C22.053 22 22.5 21.553 22.5 21C22.5 20.447 22.053 20 21.5 20Z" fill="black"/>
<path fill-rule="evenodd" clip-rule="evenodd" d="M9.55457 16.1504C10.1076 16.1504 10.5546 15.7034 10.5546 15.1504V8.20044C10.5546 7.64744 10.1076 7.20044 9.55457 7.20044C9.00157 7.20044 8.55457 7.64744 8.55457 8.20044V15.1504C8.55457 15.7034 9.00157 16.1504 9.55457 16.1504Z" fill="black"/>
<path fill-rule="evenodd" clip-rule="evenodd" d="M14.9218 16.1504C15.4748 16.1504 15.9218 15.7034 15.9218 15.1504V4.33936C15.9218 3.78736 15.4748 3.33936 14.9218 3.33936C14.3688 3.33936 13.9218 3.78736 13.9218 4.33936V15.1504C13.9218 15.7034 14.3688 16.1504 14.9218 16.1504Z" fill="black"/>
<path fill-rule="evenodd" clip-rule="evenodd" d="M20.291 16.1601C20.844 16.1601 21.291 15.7131 21.291 15.1601V12.0601C21.291 11.5081 20.844 11.0601 20.291 11.0601C19.738 11.0601 19.291 11.5081 19.291 12.0601V15.1601C19.291 15.7131 19.738 16.1601 20.291 16.1601Z" fill="black"/>
</svg>