<svg width="25" height="24" viewBox="0 0 25 24" fill="none" xmlns="http://www.w3.org/2000/svg">
<path fill-rule="evenodd" clip-rule="evenodd" d="M12.9597 11.1958C12.9597 11.3848 13.1137 11.5398 13.3037 11.5398H21.6836C21.8547 11.5398 21.9916 11.3963 21.9781 11.2258C21.6116 6.58979 17.9097 2.88787 13.2738 2.52045C13.1032 2.50693 12.9597 2.64382 12.9597 2.81495V11.1958Z" fill="black"/>
<path fill-rule="evenodd" clip-rule="evenodd" d="M13.3035 13.0395C12.2865 13.0395 11.4595 12.2125 11.4595 11.1955V2.87694C11.4595 2.69806 11.3035 2.55858 11.1265 2.58474C6.54741 3.26163 3.02051 7.21438 3.02051 11.9785C3.02051 17.2175 7.28251 21.4785 12.5205 21.4785C17.2847 21.4785 21.2374 17.9516 21.9143 13.3725C21.9405 13.1955 21.801 13.0395 21.6221 13.0395H13.3035Z" fill="black"/>
</svg>