<svg width="25" height="24" viewBox="0 0 25 24" fill="none" xmlns="http://www.w3.org/2000/svg">
<path fill-rule="evenodd" clip-rule="evenodd" d="M19.9485 14.9102C18.8175 14.9102 17.8965 15.8342 17.8965 16.9702V19.4502C17.8965 20.5802 18.8175 21.5002 19.9485 21.5002C21.0795 21.5002 22.0005 20.5802 22.0005 19.4502V16.9702C22.0005 15.8342 21.0795 14.9102 19.9485 14.9102Z" fill="black"/>
<path fill-rule="evenodd" clip-rule="evenodd" d="M5.052 2.5C3.921 2.5 3 3.42 3 4.55V19.45C3 20.58 3.921 21.5 5.052 21.5C6.183 21.5 7.104 20.58 7.104 19.45V4.55C7.104 3.42 6.183 2.5 5.052 2.5Z" fill="black"/>
<path fill-rule="evenodd" clip-rule="evenodd" d="M12.5003 11.1895C11.3693 11.1895 10.4483 12.1095 10.4483 13.2405V19.4505C10.4483 20.5805 11.3693 21.5005 12.5003 21.5005C13.6313 21.5005 14.5523 20.5805 14.5523 19.4505V13.2405C14.5523 12.1095 13.6313 11.1895 12.5003 11.1895Z" fill="black"/>
</svg>