<svg width="25" height="24" viewBox="0 0 25 24" fill="none" xmlns="http://www.w3.org/2000/svg">
<path fill-rule="evenodd" clip-rule="evenodd" d="M12.5003 11.1895C11.3693 11.1895 10.4483 12.1095 10.4483 13.2405V19.4505C10.4483 20.5805 11.3693 21.5005 12.5003 21.5005C13.6313 21.5005 14.5523 20.5805 14.5523 19.4505V13.2405C14.5523 12.1095 13.6313 11.1895 12.5003 11.1895Z" fill="black"/>
<path fill-rule="evenodd" clip-rule="evenodd" d="M5.052 6.21973C3.921 6.21973 3 7.13973 3 8.26973V19.4497C3 20.5797 3.921 21.4997 5.052 21.4997C6.184 21.4997 7.104 20.5797 7.104 19.4497V8.26973C7.104 7.13973 6.184 6.21973 5.052 6.21973Z" fill="black"/>
<path fill-rule="evenodd" clip-rule="evenodd" d="M19.9485 2.5C18.8165 2.5 17.8965 3.42 17.8965 4.55V19.45C17.8965 20.58 18.8165 21.5 19.9485 21.5C21.0795 21.5 22.0005 20.58 22.0005 19.45V4.55C22.0005 3.42 21.0795 2.5 19.9485 2.5Z" fill="black"/>
</svg>