<svg width="25" height="24" viewBox="0 0 25 24" fill="none" xmlns="http://www.w3.org/2000/svg">
<path fill-rule="evenodd" clip-rule="evenodd" d="M18.146 13.075L17.307 16.182C17.298 16.216 17.279 16.244 17.266 16.276C17.244 16.331 17.223 16.386 17.189 16.433C17.17 16.46 17.144 16.48 17.121 16.505C17.08 16.548 17.039 16.588 16.989 16.621C16.976 16.629 16.969 16.642 16.956 16.65C16.941 16.658 16.925 16.655 16.911 16.662C16.81 16.712 16.703 16.747 16.587 16.749C16.586 16.749 16.584 16.75 16.583 16.75C16.582 16.75 16.582 16.75 16.581 16.75H16.58C16.515 16.75 16.45 16.742 16.385 16.724L13.26 15.885C12.86 15.777 12.623 15.365 12.73 14.966C12.837 14.566 13.254 14.33 13.649 14.435L15.029 14.806L12.691 10.743L10.036 12.27C9.675 12.475 9.218 12.353 9.011 11.994L6.927 8.374C6.721 8.015 6.844 7.556 7.204 7.349C7.564 7.144 8.02 7.266 8.228 7.626L9.938 10.596L12.593 9.069C12.954 8.864 13.412 8.986 13.618 9.346L16.328 14.055L16.699 12.684C16.807 12.284 17.218 12.044 17.618 12.156C18.018 12.263 18.254 12.676 18.146 13.075ZM16.473 2.5H8.526C5.22 2.5 3 4.622 3 7.78V16.22C3 19.378 5.22 21.5 8.526 21.5H16.473C19.779 21.5 22 19.378 22 16.22V7.78C22 4.622 19.779 2.5 16.473 2.5Z" fill="black"/>
</svg>