<svg width="25" height="24" viewBox="0 0 25 24" fill="none" xmlns="http://www.w3.org/2000/svg">
<path fill-rule="evenodd" clip-rule="evenodd" d="M14.841 13.5236C14.45 13.1326 13.818 13.1336 13.427 13.5226L10.52 16.4256L4.20601 10.1136C3.81601 9.72256 3.18301 9.72256 2.79201 10.1136C2.40201 10.5036 2.40201 11.1366 2.79201 11.5276L9.81201 18.5466C10.203 18.9376 10.835 18.9366 11.226 18.5476L14.134 15.6436L19.451 20.9576C19.647 21.1526 19.903 21.2506 20.158 21.2506C20.414 21.2506 20.671 21.1526 20.866 20.9576C21.256 20.5666 21.256 19.9326 20.865 19.5436L14.841 13.5236Z" fill="black"/>
<path fill-rule="evenodd" clip-rule="evenodd" d="M22.217 8.263C21.831 7.867 21.199 7.858 20.802 8.243L19.356 9.652V3.75C19.356 3.198 18.908 2.75 18.356 2.75C17.804 2.75 17.356 3.198 17.356 3.75V9.65L15.912 8.243C15.515 7.858 14.884 7.867 14.497 8.263C14.113 8.659 14.121 9.291 14.516 9.677L17.648 12.726C17.649 12.727 17.65 12.727 17.651 12.728L17.659 12.737C17.689 12.766 17.728 12.777 17.76 12.802C17.83 12.855 17.897 12.91 17.979 12.944C18.094 12.991 18.216 13.014 18.338 13.016C18.344 13.016 18.35 13.02 18.356 13.02C18.485 13.02 18.615 12.993 18.736 12.943C18.799 12.918 18.847 12.873 18.902 12.836C18.953 12.802 19.01 12.781 19.055 12.737L22.198 9.677C22.593 9.291 22.602 8.659 22.217 8.263Z" fill="black"/>
</svg>