<svg width="25" height="24" viewBox="0 0 25 24" fill="none" xmlns="http://www.w3.org/2000/svg">
<path d="M17.1328 17.0745V5.77153C17.1328 4.75477 16.3077 3.92969 15.2909 3.92969H6.75407C5.73731 3.92969 4.91223 4.75477 4.91223 5.77153V9.34598" stroke="black" stroke-width="1.5" stroke-linecap="round" stroke-linejoin="round"/>
<path d="M13.1914 17.0214L13.1933 17.073M13.1914 13.8906L13.1933 13.9422M8.75977 17.0214L8.76171 17.073M8.75977 13.8906L8.76171 13.9422" stroke="black" stroke-width="1.5" stroke-linecap="round" stroke-linejoin="round"/>
<path d="M4.91211 12.9219V20.0708" stroke="black" stroke-width="1.5" stroke-linecap="round" stroke-linejoin="round"/>
<path d="M3.7207 20.0703H21.7207" stroke="black" stroke-width="1.5" stroke-linecap="round" stroke-linejoin="round"/>
<path d="M20.2332 20.0703V9.29078C20.2332 8.52407 19.6115 7.90234 18.8448 7.90234H17.1333" stroke="black" stroke-width="1.5" stroke-linecap="round" stroke-linejoin="round"/>
<path d="M11.0237 8.67948V10.2343M11.0237 8.67948V7.125M11.0237 8.67948H12.5785M9.46729 8.67948H11.0221" stroke="black" stroke-width="1.5" stroke-linecap="round" stroke-linejoin="round"/>
</svg>