<svg width="25" height="24" viewBox="0 0 25 24" fill="none" xmlns="http://www.w3.org/2000/svg">
<path d="M5.57336 5.94824H18.9407C19.5984 5.94824 20.1617 6.41623 20.2824 7.06227L20.905 10.3878C21.0422 10.9725 20.5986 11.533 19.9973 11.533H4.50312C3.90184 11.533 3.45817 10.9725 3.59536 10.3878L4.23264 7.0574C4.35523 6.41331 4.91857 5.94824 5.57336 5.94824Z" stroke="black" stroke-width="1.5" stroke-linecap="round" stroke-linejoin="round"/>
<path d="M7.50104 3H16.9999" stroke="black" stroke-width="1.5" stroke-linecap="round" stroke-linejoin="round"/>
<path d="M15.3416 5.94824V11.533M9.21606 8.57067V11.3306" stroke="black" stroke-width="1.5" stroke-linecap="round" stroke-linejoin="round"/>
<path d="M16.2704 20.9992H12.2774M19.9955 11.5332V19.1485C19.9955 20.171 19.1665 21 18.145 21H9.13501" stroke="black" stroke-width="1.5" stroke-linecap="round" stroke-linejoin="round"/>
<path d="M4.50488 11.5312V19.1465C4.50488 20.1691 5.33383 20.998 6.35543 20.998" stroke="black" stroke-width="1.5" stroke-linecap="round" stroke-linejoin="round"/>
<path d="M7.71295 15.9844H8.82406" stroke="black" stroke-width="1.5" stroke-linecap="round" stroke-linejoin="round"/>
<path d="M12.2774 18.269V17.0463C12.2774 15.9439 13.1715 15.0498 14.2739 15.0498C15.3762 15.0498 16.2704 15.9439 16.2704 17.0463V20.9994" stroke="black" stroke-width="1.5" stroke-linecap="round" stroke-linejoin="round"/>
</svg>