<svg width="25" height="24" viewBox="0 0 25 24" fill="none" xmlns="http://www.w3.org/2000/svg">
<path d="M12.269 3.35547H4.90853C4.48237 3.35547 4.13697 3.70087 4.13697 4.12703V6.8951L3.2759 10.5612C3.13385 11.1674 3.59406 11.7482 4.21675 11.7482H20.2823C20.9059 11.7482 21.3662 11.1674 21.2241 10.5602L20.3436 6.82115L20.401 4.14357C20.4097 3.7106 20.0614 3.35547 19.6294 3.35547H15.9492" stroke="black" stroke-width="1.5" stroke-linecap="round" stroke-linejoin="round"/>
<path d="M4.20966 11.748V18.7251C4.20966 19.7847 5.06878 20.6438 6.12833 20.6438H18.3526C19.4122 20.6438 20.2713 19.7847 20.2713 18.7251V11.748M12.2499 20.6445H16.3898" stroke="black" stroke-width="1.5" stroke-linecap="round" stroke-linejoin="round"/>
<path d="M16.3898 17.952V14.4766H12.2499V20.6451" stroke="black" stroke-width="1.5" stroke-linecap="round" stroke-linejoin="round"/>
<path d="M7.51617 15.6807H8.66816" stroke="black" stroke-width="1.5" stroke-linecap="round" stroke-linejoin="round"/>
<path d="M7.09039 6.89616L20.344 6.89551" stroke="black" stroke-width="1.5" stroke-linecap="round" stroke-linejoin="round"/>
</svg>