<svg width="25" height="24" viewBox="0 0 25 24" fill="none" xmlns="http://www.w3.org/2000/svg">
<path fill-rule="evenodd" clip-rule="evenodd" d="M11.298 13.5278L14.489 15.4378C14.65 15.5338 14.827 15.5798 15.002 15.5798C15.341 15.5798 15.673 15.4068 15.86 15.0938C16.144 14.6198 15.99 14.0058 15.516 13.7218L12.812 12.1028V8.5498C12.812 7.9978 12.364 7.5498 11.812 7.5498C11.259 7.5498 10.812 7.9978 10.812 8.5498V12.6698C10.812 13.0218 10.996 13.3468 11.298 13.5278Z" fill="black"/>
<path fill-rule="evenodd" clip-rule="evenodd" d="M8.566 4.34029C8.73 4.44229 8.912 4.49029 9.091 4.49029C9.426 4.49029 9.753 4.32229 9.942 4.01629L9.949 4.00629C10.24 3.53629 10.091 2.92529 9.622 2.63429C9.151 2.34429 8.533 2.49429 8.242 2.96429C7.951 3.43329 8.096 4.04929 8.566 4.34029Z" fill="black"/>
<path fill-rule="evenodd" clip-rule="evenodd" d="M6.18033 6.51998L6.18533 6.50998C6.42233 6.01098 6.20833 5.41998 5.70933 5.18198C5.21233 4.94398 4.61233 5.16198 4.37433 5.66098C4.13733 6.15898 4.34833 6.75598 4.84733 6.99298C4.98633 7.05898 5.13233 7.08998 5.27733 7.08998C5.65033 7.08998 6.00933 6.87998 6.18033 6.51998Z" fill="black"/>
<path fill-rule="evenodd" clip-rule="evenodd" d="M3.22964 11.2404C3.57664 11.2404 3.91464 11.0594 4.09864 10.7364L4.10464 10.7264C4.37864 10.2464 4.20864 9.64145 3.72964 9.36645C3.24964 9.09345 2.63564 9.26445 2.36264 9.74445C2.08864 10.2234 2.25464 10.8344 2.73464 11.1084C2.89064 11.1984 3.06164 11.2404 3.22964 11.2404Z" fill="black"/>
<path fill-rule="evenodd" clip-rule="evenodd" d="M3.99132 13.9478C3.51732 13.6638 2.90032 13.8228 2.61632 14.2958C2.33232 14.7688 2.48532 15.3838 2.95932 15.6678C3.12032 15.7638 3.29732 15.8098 3.47232 15.8098C3.81232 15.8098 4.14332 15.6368 4.33132 15.3248L4.33732 15.3148C4.62132 14.8418 4.46532 14.2318 3.99132 13.9478Z" fill="black"/>
<path fill-rule="evenodd" clip-rule="evenodd" d="M6.41322 17.7005C5.92022 17.4535 5.31622 17.6585 5.06922 18.1525C4.82222 18.6465 5.02222 19.2475 5.51622 19.4945C5.66022 19.5665 5.81222 19.5995 5.96222 19.5995C6.33022 19.5995 6.68322 19.3975 6.85822 19.0475L6.86322 19.0375C7.11022 18.5435 6.90722 17.9475 6.41322 17.7005Z" fill="black"/>
<path fill-rule="evenodd" clip-rule="evenodd" d="M12.1007 2H12.0987C11.5477 2 11.0997 2.446 11.0987 2.998C11.0977 3.55 11.5447 3.999 12.0967 4C16.5077 4.009 20.0917 7.602 20.0857 12.009C20.0827 14.146 19.2477 16.155 17.7347 17.665C16.2257 19.171 14.2227 20 12.0907 20H12.0737C11.0807 20 10.1197 19.821 9.21673 19.468C8.70073 19.268 8.12173 19.522 7.92073 20.036C7.72073 20.551 7.97473 21.13 8.48873 21.332C9.63173 21.777 10.8027 21.98 12.0927 22C14.7557 22 17.2607 20.963 19.1477 19.081C21.0387 17.193 22.0817 14.683 22.0857 12.012C22.0937 6.502 17.6137 2.011 12.1007 2Z" fill="black"/>
</svg>