<svg width="25" height="24" viewBox="0 0 25 24" fill="none" xmlns="http://www.w3.org/2000/svg">
<path fill-rule="evenodd" clip-rule="evenodd" d="M14.7648 18.116C14.5458 18.665 14.0218 19.02 13.4288 19.02H10.8858C10.2928 19.02 9.7678 18.665 9.5498 18.115C9.3318 17.567 9.4698 16.951 9.8988 16.547C10.0928 16.314 10.3598 16.061 10.6248 15.811C11.0688 15.392 11.4888 14.997 11.6458 14.568L11.7658 14.24L12.5068 14.206L12.6678 14.568C12.8258 14.996 13.2458 15.392 13.6908 15.812C13.9558 16.061 14.2228 16.314 14.4538 16.586C14.8468 16.952 14.9828 17.568 14.7648 18.116ZM14.4918 12.693C14.0098 12.195 14.0088 11.806 14.4768 11.321C16.5278 9.354 17.8818 8.054 18.0268 6.55C18.1148 5.434 17.8108 4.414 17.1698 3.678C16.5538 2.97 15.6688 2.563 14.5828 2.5L9.7028 2.501C8.6468 2.563 7.7628 2.97 7.1468 3.678C6.5058 4.414 6.2018 5.434 6.2908 6.558C6.4348 8.056 7.7888 9.355 9.8268 11.308C10.3078 11.806 10.3078 12.195 9.8398 12.679C7.7888 14.646 6.4348 15.946 6.2908 17.443C6.2908 17.446 6.2908 17.448 6.2898 17.451C6.2018 18.567 6.5058 19.587 7.1468 20.323C7.7628 21.031 8.6468 21.437 9.7328 21.5L14.6118 21.499C15.6698 21.437 16.5538 21.031 17.1698 20.323C17.8108 19.587 18.1148 18.567 18.0258 17.443C17.8818 15.948 16.5278 14.648 14.4918 12.693Z" fill="black"/>
</svg>