<svg width="24" height="24" viewBox="0 0 24 24" fill="none" xmlns="http://www.w3.org/2000/svg">
<path d="M12 19.8629H7.10595C4.83795 19.8629 3 18.024 3 15.756V10.1137C3.00195 8.42364 4.37189 7.05564 6.06195 7.05564C6.5533 7.03618 7.01741 6.82699 7.35697 6.47088C7.53892 6.27045 7.83178 5.77326 8.09935 5.28969C8.49243 4.57845 9.23968 4.13672 10.0531 4.13672H13.9654C14.7905 4.13672 15.5455 4.59207 15.9347 5.31888C16.1877 5.79272 16.465 6.27142 16.643 6.46699C16.9816 6.82212 17.4467 7.03229 17.9381 7.0498C19.6291 7.0498 21 8.42072 21 10.1117V15.756C21 18.024 19.1611 19.8629 16.8941 19.8629H15.1477" stroke="black" stroke-width="1.5" stroke-linecap="round" stroke-linejoin="round"/>
<path d="M17.1727 9.82715V9.88553" stroke="black" stroke-width="1.5" stroke-linecap="round" stroke-linejoin="round"/>
<path d="M11.9993 10.0127C13.7079 10.0127 15.0924 11.3982 15.0924 13.1058C15.0924 14.8143 13.7079 16.1989 11.9993 16.1989C10.2908 16.1989 8.90625 14.8143 8.90625 13.1058C8.90625 12.3331 9.18974 11.6264 9.65845 11.0841" stroke="black" stroke-width="1.5" stroke-linecap="round" stroke-linejoin="round"/>
</svg>