<svg width="24" height="24" viewBox="0 0 24 24" fill="none" xmlns="http://www.w3.org/2000/svg">
<path fill-rule="evenodd" clip-rule="evenodd" d="M3.7402 3.89737C4.72468 2.84117 6.12669 2.25 7.78216 2.25H16.2169C17.8762 2.25 19.2788 2.84084 20.2629 3.89765C21.2413 4.94841 21.75 6.39889 21.75 8.02638V15.9736C21.75 17.6011 21.2413 19.0516 20.2627 20.1024C19.2785 21.1592 17.8756 21.75 16.2159 21.75H7.78216C6.1228 21.75 4.72038 21.1591 3.73657 20.1023C2.75842 19.0515 2.25 17.601 2.25 15.9736V8.02638C2.25 6.39806 2.76117 4.94771 3.7402 3.89737ZM4.83745 4.92012C4.16024 5.64666 3.75 6.70951 3.75 8.02638V15.9736C3.75 17.2914 4.15861 18.3541 4.83451 19.0802C5.50475 19.8003 6.49341 20.25 7.78216 20.25H16.2159C17.5052 20.25 18.4944 19.8002 19.165 19.0801C19.8412 18.354 20.25 17.2913 20.25 15.9736V8.02638C20.25 6.70868 19.8412 5.64597 19.1651 4.91984C18.4946 4.19975 17.5056 3.75 16.2169 3.75H7.78216C6.49828 3.75 5.50921 4.19943 4.83745 4.92012Z" fill="black"/>
<path fill-rule="evenodd" clip-rule="evenodd" d="M5.68555 12.0008C5.68555 8.48569 8.53452 5.63672 12.0496 5.63672C13.1644 5.63672 14.2134 5.92349 15.1266 6.42921C15.4889 6.62989 15.62 7.08631 15.4193 7.44867C15.2187 7.81103 14.7622 7.94209 14.3999 7.74142C13.7037 7.35589 12.9041 7.13672 12.0496 7.13672C9.36295 7.13672 7.18555 9.31412 7.18555 12.0008C7.18555 14.6864 9.36287 16.8639 12.0496 16.8639C13.7224 16.8639 15.1983 16.0205 16.0744 14.7324C16.3074 14.3899 16.7739 14.3011 17.1164 14.534C17.4589 14.767 17.5477 15.2335 17.3147 15.576C16.171 17.2574 14.2395 18.3639 12.0496 18.3639C8.53461 18.3639 5.68555 15.515 5.68555 12.0008Z" fill="black"/>
<path fill-rule="evenodd" clip-rule="evenodd" d="M9.45508 11.6855C9.86929 11.6855 10.2051 12.0213 10.2051 12.4355C10.2051 13.1865 10.8136 13.795 11.5655 13.795C11.9797 13.795 12.3155 14.1307 12.3155 14.545C12.3155 14.9592 11.9797 15.295 11.5655 15.295C9.98607 15.295 8.70508 14.0158 8.70508 12.4355C8.70508 12.0213 9.04086 11.6855 9.45508 11.6855Z" fill="black"/>
<path fill-rule="evenodd" clip-rule="evenodd" d="M12 10.9141C12.4142 10.9141 12.75 11.2498 12.75 11.6641V11.6741C12.75 12.0883 12.4142 12.4241 12 12.4241C11.5858 12.4241 11.25 12.0883 11.25 11.6741V11.6641C11.25 11.2498 11.5858 10.9141 12 10.9141Z" fill="black"/>
<path fill-rule="evenodd" clip-rule="evenodd" d="M17.6664 2.47461C18.0806 2.47461 18.4164 2.8104 18.4164 3.22461V10.4956C18.4164 10.7723 18.264 11.0266 18.02 11.157L14.9065 12.8218C14.5412 13.0171 14.0868 12.8793 13.8915 12.514C13.6962 12.1488 13.834 11.6943 14.1992 11.499L16.9164 10.0462V3.22461C16.9164 2.8104 17.2522 2.47461 17.6664 2.47461Z" fill="black"/>
</svg>
