<svg width="24" height="24" viewBox="0 0 24 24" fill="none" xmlns="http://www.w3.org/2000/svg">
<path fill-rule="evenodd" clip-rule="evenodd" d="M2.25 12C2.25 6.61589 6.61481 2.25 12 2.25C17.3852 2.25 21.75 6.61589 21.75 12C21.75 17.3851 17.3851 21.75 12 21.75C6.61487 21.75 2.25 17.3851 2.25 12ZM12 3.75C7.44335 3.75 3.75 7.44421 3.75 12C3.75 16.5567 7.44329 20.25 12 20.25C16.5567 20.25 20.25 16.5567 20.25 12C20.25 7.44421 16.5567 3.75 12 3.75Z" fill="black"/>
<path fill-rule="evenodd" clip-rule="evenodd" d="M12.7295 8.35865C12.9607 8.01502 13.4268 7.92394 13.7704 8.15522L13.3516 8.77742C13.7704 8.15522 13.7704 8.15519 13.7704 8.15522L13.7768 8.15955L13.7932 8.17064L13.8537 8.21193C13.9056 8.24757 13.9799 8.29896 14.071 8.36296C14.2529 8.49076 14.503 8.66984 14.7755 8.87485C15.3013 9.27044 15.9768 9.81114 16.3752 10.2765L16.3791 10.281C17.2402 11.3031 17.2238 12.7278 16.3768 13.7195C15.9583 14.2137 15.2832 14.754 14.7589 15.1452C14.4877 15.3476 14.2402 15.5222 14.0605 15.6462C13.9705 15.7083 13.8971 15.758 13.8458 15.7924L13.786 15.8324L13.7697 15.8431L13.7652 15.8461L13.7639 15.847C13.7638 15.847 13.7632 15.8474 13.3516 15.2204L13.7639 15.847C13.4176 16.0743 12.952 15.9783 12.7247 15.632C12.4974 15.2858 12.5938 14.8208 12.94 14.5935L12.9436 14.5912L12.9567 14.5825L13.0097 14.5471C13.0563 14.5158 13.1243 14.4697 13.2085 14.4116C13.3771 14.2952 13.609 14.1316 13.8619 13.943C14.3852 13.5526 14.9361 13.1002 15.2328 12.7493L15.2355 12.7461C15.6067 12.3122 15.6195 11.7095 15.2338 11.2497C14.9543 10.9242 14.4043 10.4726 13.8737 10.0735C13.6174 9.88072 13.381 9.71141 13.2087 9.59029C13.1226 9.52982 13.0528 9.48161 13.005 9.44876L12.9503 9.41145L12.9367 9.4022L12.9335 9.40006C12.9335 9.40004 12.9335 9.40007 12.9335 9.40006M12.7295 8.35865C12.4982 8.70226 12.5899 9.16876 12.9335 9.40006L12.7295 8.35865Z" fill="black"/>
<path fill-rule="evenodd" clip-rule="evenodd" d="M8.03366 8.55925C8.57845 8.24975 9.22864 8.25054 9.8376 8.49265L9.84333 8.49493L9.84332 8.49495C10.968 8.95284 11.9854 9.62317 12.8014 10.3688L12.806 10.3729L12.8059 10.3729C13.2841 10.817 13.5654 11.392 13.5622 12.012C13.559 12.6303 13.2735 13.197 12.8033 13.6276C11.9379 14.4282 10.9461 15.047 9.85001 15.5004C9.27277 15.7443 8.63177 15.7473 8.08898 15.4599C7.53472 15.1665 7.17244 14.6171 7.08488 13.9439L7.08314 13.9305L7.08326 13.9305C6.94748 12.7156 6.94519 11.4224 7.08251 10.0785L7.08434 10.0624C7.16308 9.42817 7.48621 8.87026 8.03366 8.55925ZM8.5738 10.2401C8.44771 11.4801 8.45124 12.6604 8.57313 13.7563C8.60521 13.9916 8.70892 14.0909 8.79081 14.1342C8.88372 14.1834 9.04782 14.2113 9.26751 14.1181L9.27401 14.1154L9.27402 14.1154C10.2193 13.7247 11.059 13.1982 11.7861 12.5252L11.7895 12.5221L11.7895 12.5221C11.9994 12.3302 12.0615 12.1445 12.0622 12.0043C12.0629 11.8656 12.004 11.6761 11.7872 11.4739C11.0943 10.8414 10.2282 10.2717 9.28082 9.88549C9.0079 9.77768 8.84743 9.8221 8.77461 9.86347C8.7049 9.90307 8.60509 10.0018 8.5738 10.2401Z" fill="black"/>
</svg>
