<svg width="24" height="24" viewBox="0 0 24 24" fill="none" xmlns="http://www.w3.org/2000/svg">
<path d="M6.79964 20.8278C6.56834 20.8272 6.33809 20.7966 6.11464 20.7368C5.44712 20.5602 4.87659 20.1266 4.52764 19.5308C3.73612 18.377 3.11287 17.1163 2.67664 15.7868C2.53465 15.3197 2.55638 14.818 2.73821 14.3649C2.92005 13.9117 3.25111 13.5342 3.67664 13.2948L3.90164 13.1668C4.20131 12.994 4.53209 12.8818 4.8751 12.8368C5.2181 12.7918 5.56662 12.8148 5.90073 12.9045C6.23485 12.9942 6.54802 13.1489 6.82236 13.3596C7.0967 13.5704 7.32684 13.8331 7.49964 14.1328L9.08264 16.8768C9.31262 17.2776 9.4333 17.7317 9.43261 18.1937C9.43192 18.6558 9.30988 19.1096 9.07871 19.5096C8.84754 19.9097 8.51535 20.242 8.11538 20.4734C7.71541 20.7047 7.26169 20.8269 6.79964 20.8278ZM5.21164 14.3158C5.01366 14.3159 4.81918 14.368 4.64764 14.4668L4.42364 14.5948C4.29529 14.6668 4.19468 14.7796 4.13779 14.9153C4.0809 15.051 4.07099 15.2018 4.10964 15.3438C4.50614 16.5429 5.07149 17.6793 5.78864 18.7188C5.79764 18.7318 5.80564 18.7458 5.81364 18.7588C5.88797 18.8878 5.98697 19.0008 6.10499 19.0915C6.22301 19.1822 6.35774 19.2488 6.50148 19.2874C6.64523 19.3261 6.79517 19.336 6.94276 19.3167C7.09034 19.2973 7.23268 19.2492 7.36164 19.1748C7.4906 19.1005 7.60365 19.0015 7.69435 18.8835C7.78505 18.7655 7.85161 18.6307 7.89024 18.487C7.92887 18.3432 7.93881 18.1933 7.91949 18.0457C7.90017 17.8981 7.85197 17.7558 7.77764 17.6268L6.19964 14.8828C6.09995 14.7102 5.95649 14.5668 5.78373 14.4673C5.61097 14.3677 5.41502 14.3155 5.21564 14.3158H5.21164Z" fill="black"/>
<path d="M17.1995 20.8261C16.7376 20.8251 16.2841 20.7027 15.8844 20.4711C15.4847 20.2396 15.1529 19.907 14.9223 19.5068C14.6917 19.1066 14.5703 18.6528 14.5703 18.191C14.5703 17.7291 14.6918 17.2753 14.9225 16.8751L16.5045 14.1311C16.8546 13.5265 17.4301 13.0854 18.105 12.9045C18.7798 12.7236 19.4989 12.8176 20.1045 13.1661L20.3255 13.2921C20.7514 13.5316 21.0828 13.9095 21.2646 14.363C21.4465 14.8166 21.468 15.3187 21.3255 15.7861C20.889 17.115 20.2661 18.3752 19.4755 19.5291C19.1261 20.125 18.5553 20.5585 17.8875 20.7351C17.6631 20.7953 17.4318 20.8259 17.1995 20.8261ZM18.7885 14.3151C18.5892 14.3147 18.3933 14.3668 18.2206 14.4661C18.0478 14.5655 17.9043 14.7086 17.8045 14.8811L16.2225 17.6251C16.1481 17.754 16.0999 17.8963 16.0806 18.0438C16.0612 18.1914 16.0711 18.3412 16.1097 18.4849C16.1483 18.6286 16.2148 18.7633 16.3055 18.8813C16.3961 18.9993 16.5091 19.0983 16.638 19.1726C16.7669 19.2469 16.9091 19.2952 17.0567 19.3145C17.2042 19.3339 17.3541 19.324 17.4978 19.2854C17.6415 19.2468 17.7762 19.1803 17.8942 19.0896C18.0122 18.999 18.1111 18.886 18.1855 18.7571L18.2105 18.7171C18.9275 17.6779 19.4928 16.5418 19.8895 15.3431C19.9284 15.2005 19.9182 15.049 19.8608 14.9128C19.8033 14.7767 19.7018 14.6637 19.5725 14.5921L19.3535 14.4661C19.1822 14.3676 18.9881 14.3156 18.7905 14.3151H18.7885Z" fill="black"/>
<path d="M20.226 17.3202C20.101 17.3202 19.9781 17.2889 19.8682 17.2293C19.7584 17.1696 19.6652 17.0835 19.5972 16.9786C19.5291 16.8738 19.4883 16.7536 19.4785 16.6291C19.4687 16.5045 19.4902 16.3794 19.541 16.2652C20.0381 15.1424 20.2782 13.9228 20.2438 12.6953C20.2094 11.4679 19.9015 10.2635 19.3424 9.17028C18.7833 8.07702 17.9872 7.12239 17.0121 6.376C16.0371 5.62962 14.9077 5.11032 13.7064 4.85601C12.5051 4.60171 11.2622 4.61881 10.0683 4.90606C8.87445 5.19332 7.75978 5.74349 6.80564 6.51642C5.85149 7.28934 5.08194 8.26552 4.55314 9.37375C4.02433 10.482 3.74961 11.6943 3.74902 12.9222C3.74687 13.9243 3.92924 14.9182 4.28702 15.8542C4.35207 16.0385 4.34262 16.2409 4.2607 16.4183C4.17877 16.5957 4.03084 16.7341 3.84839 16.8041C3.66593 16.8741 3.46337 16.8701 3.28381 16.793C3.10426 16.7159 2.96189 16.5717 2.88702 16.3912C2.46353 15.2838 2.2476 14.1078 2.25002 12.9222C2.24997 11.4704 2.57415 10.0369 3.1989 8.72632C3.82365 7.41577 4.73319 6.26129 5.86111 5.34716C6.98904 4.43304 8.30687 3.78234 9.7184 3.44259C11.1299 3.10285 12.5995 3.08262 14.0199 3.38339C15.4402 3.68415 16.7754 4.29833 17.9281 5.18106C19.0808 6.06379 20.0217 7.19277 20.6823 8.48562C21.3429 9.77847 21.7064 11.2025 21.7463 12.6538C21.7862 14.1051 21.5015 15.547 20.913 16.8742C20.854 17.0071 20.7576 17.12 20.6357 17.1991C20.5137 17.2783 20.3714 17.3204 20.226 17.3202Z" fill="black"/>
<path d="M9.59961 12.9207C9.4007 12.9207 9.20993 12.8417 9.06928 12.701C8.92863 12.5604 8.84961 12.3697 8.84961 12.1707V11.5117C8.84961 11.3128 8.92863 11.1221 9.06928 10.9814C9.20993 10.8408 9.4007 10.7617 9.59961 10.7617C9.79852 10.7617 9.98929 10.8408 10.1299 10.9814C10.2706 11.1221 10.3496 11.3128 10.3496 11.5117V12.1707C10.3496 12.3697 10.2706 12.5604 10.1299 12.701C9.98929 12.8417 9.79852 12.9207 9.59961 12.9207Z" fill="black"/>
<path d="M14.3926 12.9207C14.1937 12.9207 14.0029 12.8417 13.8622 12.701C13.7216 12.5604 13.6426 12.3697 13.6426 12.1707V11.5117C13.6426 11.3128 13.7216 11.1221 13.8622 10.9814C14.0029 10.8408 14.1937 10.7617 14.3926 10.7617C14.5915 10.7617 14.7823 10.8408 14.9229 10.9814C15.0636 11.1221 15.1426 11.3128 15.1426 11.5117V12.1707C15.1426 12.3697 15.0636 12.5604 14.9229 12.701C14.7823 12.8417 14.5915 12.9207 14.3926 12.9207Z" fill="black"/>
<path d="M12 14.268C11.8011 14.268 11.6103 14.189 11.4697 14.0483C11.329 13.9077 11.25 13.7169 11.25 13.518V10.166C11.25 9.9671 11.329 9.77633 11.4697 9.63568C11.6103 9.49503 11.8011 9.41602 12 9.41602C12.1989 9.41602 12.3897 9.49503 12.5303 9.63568C12.671 9.77633 12.75 9.9671 12.75 10.166V13.518C12.75 13.7169 12.671 13.9077 12.5303 14.0483C12.3897 14.189 12.1989 14.268 12 14.268Z" fill="black"/>
</svg>
