<svg width="24" height="24" viewBox="0 0 24 24" fill="none" xmlns="http://www.w3.org/2000/svg">
<path d="M6.46083 20.9232C6.42883 20.9232 6.39783 20.9232 6.36083 20.9232C6.13171 20.913 5.90371 20.8853 5.67883 20.8402C4.89485 20.6849 4.17056 20.3117 3.58913 19.7633C3.00771 19.215 2.59272 18.5138 2.39183 17.7402C2.14625 16.8243 2.2103 15.853 2.574 14.9773C2.9377 14.1016 3.58066 13.3706 4.40283 12.8982C4.69454 12.7268 5.0228 12.627 5.3606 12.6072C5.6984 12.5874 6.03607 12.648 6.34583 12.7842C6.66094 12.9176 6.94016 13.1233 7.16082 13.3848C7.38149 13.6463 7.53738 13.9562 7.61583 14.2892L8.55783 18.2242C8.63832 18.5556 8.64008 18.9012 8.56298 19.2334C8.48588 19.5656 8.33206 19.8752 8.11383 20.1372C7.9139 20.3827 7.66184 20.5806 7.37593 20.7165C7.09001 20.8525 6.77742 20.9231 6.46083 20.9232ZM5.48883 14.1062C5.37259 14.1062 5.2584 14.1369 5.15783 14.1952C4.6206 14.5062 4.20119 14.9861 3.96482 15.5601C3.72846 16.1341 3.68838 16.7701 3.85083 17.3692C3.9849 17.8666 4.25448 18.317 4.62952 18.6701C5.00455 19.0233 5.4703 19.2653 5.97483 19.3692C6.12648 19.3998 6.28028 19.4185 6.43483 19.4252C6.53918 19.4262 6.64238 19.4033 6.73647 19.3582C6.83057 19.3131 6.91306 19.247 6.97759 19.165C7.04212 19.0829 7.08696 18.9872 7.10868 18.8852C7.13039 18.7831 7.12839 18.6774 7.10283 18.5762L6.16083 14.6402C6.12365 14.4898 6.0376 14.3559 5.91617 14.2597C5.79474 14.1634 5.64479 14.1101 5.48983 14.1082L5.48883 14.1062Z" fill="black"/>
<path d="M17.5453 20.9233C17.228 20.9239 16.9146 20.8536 16.628 20.7176C16.3413 20.5816 16.0886 20.3834 15.8883 20.1373C15.6699 19.8754 15.5159 19.5659 15.4386 19.2337C15.3614 18.9015 15.363 18.5558 15.4433 18.2243L16.3863 14.2893C16.4644 13.9563 16.62 13.6463 16.8405 13.3848C17.061 13.1233 17.3402 12.9175 17.6553 12.7843C17.965 12.6481 18.3027 12.5874 18.6405 12.6072C18.9784 12.627 19.3066 12.7268 19.5983 12.8984C20.4209 13.3711 21.0641 14.1025 21.4276 14.9789C21.7912 15.8552 21.8547 16.8271 21.6083 17.7433C21.4069 18.5168 20.9916 19.2179 20.4101 19.7661C19.8286 20.3144 19.1043 20.6878 18.3203 20.8433C18.0963 20.8874 17.8694 20.9148 17.6413 20.9253C17.6093 20.9233 17.5773 20.9233 17.5453 20.9233ZM18.5153 14.1063C18.3603 14.1076 18.2101 14.1606 18.0887 14.257C17.9673 14.3534 17.8817 14.4876 17.8453 14.6383L16.9023 18.5743C16.8773 18.68 16.8772 18.79 16.902 18.8957C16.9268 19.0014 16.9759 19.0999 17.0453 19.1833C17.1103 19.2597 17.1913 19.3208 17.2825 19.3622C17.3738 19.4037 17.4731 19.4246 17.5733 19.4233C17.7269 19.4165 17.8797 19.3978 18.0303 19.3673C18.535 19.2635 19.0009 19.0214 19.3761 18.6683C19.7513 18.3152 20.0211 17.8648 20.1553 17.3673C20.3175 16.7681 20.2772 16.1321 20.0407 15.5581C19.8041 14.9841 19.3846 14.5043 18.8473 14.1933C18.7462 14.1356 18.6317 14.1055 18.5153 14.1063Z" fill="black"/>
<path d="M17.5039 9.16397H17.4839C17.2089 9.16163 16.9372 9.10394 16.685 8.99432C16.4327 8.88471 16.2052 8.72543 16.0159 8.52597L15.9349 8.44296C15.4209 7.9237 14.8089 7.51168 14.1345 7.23083C13.46 6.94999 12.7365 6.80593 12.0059 6.80698H12.0039C11.2713 6.80543 10.5456 6.94922 9.86897 7.23004C9.19232 7.51086 8.5781 7.92313 8.06187 8.44296L7.98987 8.51697C7.80068 8.71757 7.57301 8.878 7.32044 8.98865C7.06787 9.0993 6.79559 9.15788 6.51987 9.16095C6.252 9.16778 5.98563 9.11899 5.7376 9.01761C5.48956 8.91623 5.26526 8.76447 5.07887 8.57196C4.70805 8.20145 4.49484 7.70191 4.48385 7.17783C4.47285 6.65374 4.66491 6.14572 5.01987 5.75998L5.20387 5.57196C7.00752 3.76882 9.45348 2.75586 12.0039 2.75586C14.5543 2.75586 17.0002 3.76882 18.8039 5.57196L18.9819 5.75497C19.3377 6.14134 19.5305 6.65026 19.5198 7.17542C19.5092 7.70057 19.296 8.20131 18.9249 8.57297C18.739 8.76075 18.5177 8.90971 18.2737 9.01117C18.0298 9.11263 17.7681 9.16457 17.5039 9.16397ZM12.0039 5.30698H12.0109C12.9385 5.30517 13.8573 5.48776 14.7138 5.84415C15.5702 6.20054 16.3473 6.72361 16.9999 7.38297L17.0999 7.48895C17.148 7.54767 17.2093 7.59415 17.2788 7.62457C17.3484 7.65499 17.4241 7.6685 17.4999 7.66397C17.567 7.6645 17.6336 7.65147 17.6956 7.6257C17.7577 7.59993 17.8139 7.56194 17.8609 7.51398C17.9582 7.4204 18.0156 7.29287 18.0212 7.15799C18.0268 7.02311 17.9801 6.89129 17.8909 6.78998L17.7429 6.63596C16.9887 5.88138 16.0933 5.28279 15.1077 4.87439C14.1221 4.46599 13.0657 4.2558 11.9989 4.2558C10.932 4.2558 9.87564 4.46599 8.89006 4.87439C7.90448 5.28279 7.00903 5.88138 6.25487 6.63596L6.10387 6.78897C6.01586 6.88974 5.96999 7.02051 5.97576 7.15417C5.98153 7.28784 6.0385 7.41415 6.13487 7.50696C6.18247 7.55554 6.23948 7.5939 6.30241 7.61969C6.36534 7.64548 6.43287 7.65816 6.50087 7.65695C6.57601 7.65639 6.65025 7.64049 6.71903 7.61023C6.78781 7.57997 6.84969 7.53597 6.90087 7.48096L7.00087 7.38095C7.65617 6.72154 8.43579 6.19869 9.29457 5.84268C10.1533 5.48667 11.0742 5.3046 12.0039 5.30698Z" fill="black"/>
<path d="M19.6268 14.5635C19.4279 14.5635 19.2372 14.4845 19.0965 14.3438C18.9559 14.2032 18.8768 14.0124 18.8768 13.8135V11.8965C18.8782 10.6307 18.5275 9.3894 17.8638 8.31149C17.7595 8.14215 17.7267 7.93828 17.7726 7.74475C17.8186 7.55121 17.9395 7.38384 18.1088 7.27947C18.2782 7.17511 18.482 7.14231 18.6756 7.18826C18.8691 7.2342 19.0365 7.35513 19.1408 7.52447C19.9506 8.83887 20.3785 10.3527 20.3768 11.8965V13.8135C20.3768 14.0124 20.2978 14.2032 20.1572 14.3438C20.0165 14.4845 19.8258 14.5635 19.6268 14.5635ZM4.38184 14.5635C4.18293 14.5635 3.99216 14.4845 3.85151 14.3438C3.71086 14.2032 3.63184 14.0124 3.63184 13.8135V11.8965C3.63023 10.3526 4.05856 8.83868 4.86884 7.52447C4.97642 7.36228 5.14284 7.24829 5.33293 7.20654C5.52302 7.16478 5.7219 7.19855 5.88755 7.30071C6.0532 7.40288 6.17265 7.56544 6.22066 7.75405C6.26867 7.94266 6.24148 8.14255 6.14484 8.31149C5.48096 9.3893 5.13021 10.6306 5.13184 11.8965V13.8135C5.13184 14.0124 5.05282 14.2032 4.91217 14.3438C4.77152 14.4845 4.58075 14.5635 4.38184 14.5635Z" fill="black"/>
</svg>
