<svg width="24" height="24" viewBox="0 0 24 24" fill="none" xmlns="http://www.w3.org/2000/svg">
<path d="M6.4582 20.7011C6.4272 20.7011 6.39523 20.7011 6.36323 20.7011C6.13449 20.6916 5.90684 20.6645 5.68226 20.62C4.89871 20.4638 4.1749 20.0902 3.59364 19.542C3.01238 18.9938 2.59707 18.2931 2.39521 17.5201C2.14824 16.6037 2.21139 15.6314 2.57478 14.7546C2.93817 13.8779 3.58143 13.146 4.40425 12.6731C4.69928 12.5044 5.02957 12.4068 5.36891 12.3881C5.70824 12.3694 6.04729 12.43 6.35908 12.5652C6.67087 12.7005 6.94682 12.9065 7.16505 13.167C7.38328 13.4276 7.53776 13.7354 7.61622 14.0661L8.56025 18.0011C8.64036 18.3325 8.64185 18.6782 8.56458 19.0103C8.48732 19.3425 8.33343 19.652 8.11524 19.9141C7.91494 20.1602 7.66226 20.3585 7.37562 20.4947C7.08897 20.6308 6.77553 20.7013 6.4582 20.7011ZM5.15821 13.973C4.62084 14.2842 4.20132 14.7642 3.96479 15.3383C3.72826 15.9125 3.68797 16.5487 3.85023 17.1481C3.9851 17.6452 4.25504 18.0953 4.63014 18.4483C5.00524 18.8013 5.47084 19.0435 5.97523 19.1481C6.12363 19.1776 6.27408 19.1956 6.42524 19.202C6.52751 19.2103 6.63016 19.1925 6.7237 19.1504C6.81725 19.1082 6.89862 19.0431 6.96021 18.9611C7.02961 18.8772 7.0785 18.7783 7.10298 18.6722C7.12745 18.5662 7.12683 18.4559 7.10121 18.3501L6.15724 14.4141C6.13254 14.309 6.08348 14.2113 6.01399 14.1288C5.94449 14.0463 5.8565 13.9813 5.75721 13.939C5.66157 13.8973 5.55751 13.8785 5.45332 13.8843C5.34912 13.89 5.24772 13.9201 5.15724 13.9721L5.15821 13.973Z" fill="black"/>
<path d="M17.5371 20.7012C17.2209 20.7008 16.9087 20.63 16.6233 20.4939C16.3379 20.3578 16.0864 20.1597 15.8871 19.9142C15.6686 19.6525 15.5144 19.3432 15.4369 19.0112C15.3595 18.6791 15.3609 18.3336 15.4411 18.0022L16.3841 14.0652C16.4627 13.7346 16.6173 13.4269 16.8356 13.1665C17.0539 12.9061 17.3298 12.7001 17.6416 12.565C17.9534 12.4299 18.2924 12.3693 18.6317 12.3881C18.9709 12.4069 19.3012 12.5045 19.5961 12.6732C20.419 13.1462 21.0622 13.878 21.4256 14.7548C21.789 15.6315 21.8521 16.6038 21.6051 17.5202C21.4035 18.2934 20.9883 18.9942 20.407 19.5424C19.8257 20.0906 19.1018 20.4641 18.3181 20.6202C18.0916 20.665 17.8619 20.6921 17.6311 20.7012C17.6001 20.7002 17.5681 20.7012 17.5371 20.7012ZM18.5141 13.8822C18.3593 13.884 18.2094 13.9371 18.088 14.0332C17.9666 14.1293 17.8805 14.2629 17.8431 14.4132L16.9001 18.3492C16.8753 18.4547 16.8752 18.5645 16.9 18.67C16.9248 18.7755 16.9739 18.8738 17.0432 18.9572C17.1077 19.0341 17.1886 19.0957 17.2799 19.1373C17.3712 19.179 17.4707 19.1998 17.5711 19.1982C17.7243 19.1921 17.8767 19.1741 18.0271 19.1442C18.5316 19.04 18.9974 18.7979 19.3726 18.4448C19.7477 18.0917 20.0175 17.6415 20.1521 17.1442C20.3145 16.5448 20.2744 15.9086 20.0378 15.3344C19.8013 14.7602 19.3816 14.2802 18.8441 13.9692C18.7438 13.9115 18.6299 13.8814 18.5141 13.8822Z" fill="black"/>
<path d="M19.626 14.3428C19.4271 14.3428 19.2363 14.2638 19.0956 14.1231C18.955 13.9825 18.876 13.7917 18.876 13.5928V11.6738C18.876 9.85046 18.1517 8.10178 16.8624 6.81247C15.5731 5.52316 13.8243 4.79883 12.001 4.79883C10.1776 4.79883 8.4289 5.52316 7.13959 6.81247C5.85027 8.10178 5.12598 9.85046 5.12598 11.6738V13.5928C5.12598 13.7917 5.04696 13.9825 4.90631 14.1231C4.76566 14.2638 4.57489 14.3428 4.37598 14.3428C4.17706 14.3428 3.98629 14.2638 3.84564 14.1231C3.70499 13.9825 3.62598 13.7917 3.62598 13.5928V11.6738C3.62598 9.45264 4.50836 7.32242 6.07898 5.7518C7.6496 4.18118 9.77979 3.29883 12.001 3.29883C14.2222 3.29883 16.3524 4.18118 17.923 5.7518C19.4936 7.32242 20.376 9.45264 20.376 11.6738V13.5928C20.376 13.7917 20.297 13.9825 20.1563 14.1231C20.0157 14.2638 19.8249 14.3428 19.626 14.3428Z" fill="black"/>
</svg>
