<svg width="24" height="24" viewBox="0 0 24 24" fill="none" xmlns="http://www.w3.org/2000/svg">
<path d="M4.81767 18.3957C4.66884 18.3955 4.5234 18.3511 4.39984 18.2682C4.27628 18.1852 4.18015 18.0674 4.12367 17.9297L3.39667 16.1577C3.24407 15.6959 3.25556 15.1957 3.4292 14.7415C3.60284 14.2872 3.92798 13.9069 4.34967 13.6647L4.54967 13.5477C5.1383 13.2093 5.83697 13.1178 6.49287 13.2932C7.14876 13.4686 7.70851 13.8967 8.04967 14.4837L8.12267 14.6107C8.20619 14.7819 8.22143 14.9785 8.16528 15.1605C8.10914 15.3426 7.98582 15.4964 7.82037 15.5908C7.65492 15.6853 7.45973 15.7132 7.27444 15.669C7.08914 15.6247 6.92762 15.5116 6.82267 15.3527L6.75367 15.2317C6.61291 14.989 6.38182 14.8118 6.11089 14.7389C5.83996 14.6661 5.5512 14.7033 5.30767 14.8426L5.10767 14.9627C4.98716 15.0251 4.89166 15.1269 4.83708 15.2512C4.7825 15.3755 4.77212 15.5147 4.80767 15.6457L5.51367 17.3617C5.56053 17.4755 5.57859 17.5992 5.56624 17.7217C5.5539 17.8443 5.51155 17.9618 5.44292 18.0641C5.3743 18.1663 5.28152 18.2501 5.17281 18.3079C5.0641 18.3657 4.94281 18.3959 4.81967 18.3957H4.81767Z" fill="black"/>
<path d="M4.09216 16.6216C3.93267 16.6215 3.77734 16.5706 3.64864 16.4765C3.51993 16.3823 3.42451 16.2496 3.37615 16.0976C3.09521 15.2045 2.95223 14.2738 2.95215 13.3376C2.9523 11.6926 3.38413 10.0765 4.2045 8.65065C5.02486 7.22482 6.20504 6.03923 7.6271 5.21235C9.04916 4.38547 10.6633 3.94626 12.3083 3.93858C13.9533 3.9309 15.5714 4.35505 17.0012 5.16862C17.0939 5.21322 17.1764 5.27641 17.2437 5.35429C17.3109 5.43216 17.3614 5.52306 17.3921 5.62129C17.4227 5.71952 17.4328 5.82298 17.4217 5.92527C17.4106 6.02757 17.3786 6.1265 17.3276 6.21589C17.2767 6.30528 17.2079 6.38323 17.1255 6.4449C17.0431 6.50656 16.949 6.55062 16.8488 6.57432C16.7487 6.59803 16.6448 6.60087 16.5435 6.58268C16.4422 6.5645 16.3458 6.52566 16.2602 6.46861C15.0586 5.78422 13.6985 5.42721 12.3157 5.43324C10.9329 5.43927 9.57596 5.80813 8.38043 6.50297C7.1849 7.19781 6.1927 8.1943 5.503 9.3928C4.81329 10.5913 4.45024 11.9498 4.45015 13.3326C4.45036 14.1159 4.57007 14.8945 4.80515 15.6416C4.83479 15.7356 4.84563 15.8344 4.83704 15.9326C4.82846 16.0307 4.80062 16.1262 4.75511 16.2136C4.70961 16.301 4.64733 16.3786 4.57184 16.4419C4.49635 16.5052 4.40913 16.553 4.31516 16.5826C4.24327 16.607 4.16805 16.6202 4.09216 16.6216Z" fill="black"/>
<path d="M7.36263 20.957C7.04848 20.957 6.73699 20.8994 6.44363 20.787C6.26099 20.7135 6.11458 20.5711 6.03599 20.3906C5.9574 20.2101 5.95293 20.0059 6.02355 19.8222C6.09416 19.6384 6.23421 19.4898 6.41345 19.4084C6.5927 19.3269 6.79677 19.3192 6.98163 19.387C7.12704 19.4445 7.28365 19.4683 7.43958 19.4563C7.59552 19.4444 7.74669 19.397 7.88162 19.318C8.04365 19.2235 8.17822 19.0884 8.27205 18.926C8.36588 18.7636 8.41571 18.5795 8.41663 18.392C8.41901 18.2713 8.3976 18.1514 8.35362 18.039C8.3158 17.948 8.29627 17.8505 8.29613 17.752C8.29599 17.6536 8.31525 17.556 8.35281 17.465C8.39037 17.3739 8.44549 17.2911 8.51504 17.2214C8.58458 17.1517 8.66719 17.0963 8.75813 17.0585C8.84907 17.0207 8.94657 17.0011 9.04506 17.001C9.14355 17.0008 9.24111 17.0201 9.33215 17.0576C9.4232 17.0952 9.50596 17.1503 9.5757 17.2199C9.64544 17.2894 9.7008 17.372 9.73863 17.463C9.85857 17.7579 9.91906 18.0736 9.91663 18.392C9.91539 18.8418 9.79662 19.2834 9.5721 19.6732C9.34758 20.0629 9.0251 20.3873 8.63663 20.614C8.24961 20.8386 7.8101 20.9569 7.36263 20.957Z" fill="black"/>
<path d="M3.00174 20.2078C2.85328 20.2081 2.70807 20.1644 2.58455 20.082C2.46102 19.9997 2.36475 19.8825 2.30796 19.7453C2.25116 19.6082 2.23641 19.4572 2.26557 19.3116C2.29473 19.1661 2.36649 19.0325 2.47174 18.9278L18.1387 3.2598C18.2794 3.1191 18.4703 3.04004 18.6692 3.04004C18.8682 3.04004 19.059 3.1191 19.1997 3.2598C19.3404 3.40049 19.4195 3.59131 19.4195 3.79028C19.4195 3.98926 19.3404 4.18007 19.1997 4.32077L3.53173 19.9888C3.46217 20.0584 3.37954 20.1136 3.28859 20.1512C3.19763 20.1888 3.10015 20.208 3.00174 20.2078Z" fill="black"/>
<path d="M17.3536 20.9596C16.9045 20.959 16.4635 20.8403 16.0748 20.6153C15.6862 20.3903 15.3636 20.067 15.1394 19.6779C14.9153 19.2888 14.7975 18.8475 14.7979 18.3985C14.7982 17.9494 14.9168 17.5083 15.1416 17.1196L16.6616 14.4826C16.8295 14.1909 17.0533 13.9351 17.3202 13.7301C17.5871 13.525 17.8918 13.3746 18.217 13.2874C18.5421 13.2003 18.8812 13.1782 19.2149 13.2223C19.5486 13.2664 19.8703 13.376 20.1616 13.5446L20.3726 13.6646C20.788 13.8981 21.1112 14.2665 21.2885 14.7088C21.4658 15.1511 21.4867 15.6408 21.3476 16.0966C20.9278 17.375 20.3281 18.5872 19.5666 19.6966C19.3392 20.0801 19.016 20.398 18.6288 20.6189C18.2415 20.8398 17.8034 20.9561 17.3576 20.9566L17.3536 20.9596ZM18.8796 14.7016C18.7863 14.7015 18.6935 14.714 18.6036 14.7386C18.4691 14.7744 18.343 14.8365 18.2327 14.9213C18.1223 15.0061 18.0298 15.1119 17.9606 15.2326L16.4396 17.8696C16.3062 18.1126 16.2733 18.3983 16.348 18.6652C16.4227 18.9322 16.599 19.1593 16.8392 19.2978C17.0793 19.4363 17.3642 19.4753 17.6327 19.4062C17.9012 19.3372 18.132 19.1657 18.2756 18.9286L18.3016 18.8866C18.9887 17.8906 19.5308 16.8021 19.9116 15.6536C19.9468 15.5228 19.9372 15.3839 19.8843 15.2592C19.8313 15.1345 19.7381 15.0311 19.6196 14.9656L19.4096 14.8456C19.2488 14.7513 19.0659 14.7016 18.8796 14.7016Z" fill="black"/>
<path d="M20.6549 16.5212C20.5839 16.5211 20.5132 16.511 20.4449 16.4912C20.254 16.4355 20.0929 16.3063 19.9973 16.1319C19.9017 15.9575 19.8792 15.7522 19.9349 15.5612C20.1443 14.8398 20.2503 14.0924 20.2499 13.3412C20.2555 11.7289 19.7646 10.1539 18.8439 8.83022C18.7383 8.66696 18.7002 8.46906 18.7377 8.27825C18.7752 8.08745 18.8853 7.91865 19.0449 7.80749C19.2044 7.69632 19.4009 7.65148 19.5929 7.6824C19.7849 7.71332 19.9573 7.81759 20.0739 7.97323C21.171 9.54778 21.7562 11.4222 21.7499 13.3412C21.7503 14.2345 21.624 15.1234 21.3749 15.9812C21.3293 16.1369 21.2346 16.2737 21.1048 16.371C20.975 16.4684 20.8172 16.5211 20.6549 16.5212Z" fill="black"/>
</svg>
