<svg width="24" height="24" viewBox="0 0 24 24" fill="none" xmlns="http://www.w3.org/2000/svg">
<path d="M17.3449 18.924C17.0346 18.9244 16.728 18.8555 16.4476 18.7225C16.1672 18.5895 15.92 18.3956 15.7239 18.155C15.5115 17.8992 15.3619 17.5971 15.2871 17.2731C15.2123 16.9491 15.2143 16.6121 15.2929 16.289L16.1999 12.489C16.2767 12.1633 16.4292 11.8603 16.645 11.6046C16.8607 11.3488 17.1338 11.1475 17.4419 11.017C17.7451 10.8848 18.0752 10.826 18.4053 10.8454C18.7355 10.8649 19.0564 10.9621 19.3419 11.129C20.1396 11.5879 20.7633 12.2975 21.1159 13.1475C21.4686 13.9975 21.5305 14.9403 21.2919 15.829C21.096 16.5789 20.6929 17.2585 20.1287 17.79C19.5646 18.3214 18.8622 18.6832 18.1019 18.834C17.884 18.8775 17.663 18.904 17.4409 18.913C17.4059 18.924 17.3749 18.924 17.3449 18.924ZM18.2829 12.348C18.1969 12.3491 18.112 12.3672 18.0329 12.401C17.9402 12.4401 17.8581 12.5005 17.7931 12.5773C17.7281 12.6541 17.6821 12.7451 17.6589 12.843L16.7519 16.643C16.7282 16.7407 16.7277 16.8425 16.7502 16.9404C16.7728 17.0383 16.8179 17.1296 16.8819 17.207C16.9407 17.2796 17.0156 17.3375 17.1006 17.376C17.1857 17.4146 17.2786 17.4327 17.3719 17.429C17.518 17.4227 17.6635 17.4053 17.8069 17.377C18.2884 17.2778 18.7329 17.047 19.091 16.7101C19.4491 16.3732 19.7066 15.9436 19.8349 15.469C19.9896 14.8965 19.951 14.2889 19.7252 13.7405C19.4994 13.1922 19.0989 12.7336 18.5859 12.436C18.4944 12.3806 18.3899 12.3502 18.2829 12.348Z" fill="black"/>
<path d="M13.0379 21.5897C12.7959 21.5897 12.5519 21.5837 12.3059 21.5777C12.0599 21.5717 11.7839 21.5637 11.5059 21.5637C11.3069 21.5637 11.1162 21.4847 10.9756 21.344C10.8349 21.2034 10.7559 21.0126 10.7559 20.8137C10.7559 20.6148 10.8349 20.424 10.9756 20.2833C11.1162 20.1427 11.3069 20.0637 11.5059 20.0637C11.7939 20.0637 12.0719 20.0707 12.3409 20.0777C14.2089 20.1277 15.2409 20.1527 16.4859 17.8227C16.5303 17.7325 16.5925 17.6521 16.6687 17.5864C16.7448 17.5207 16.8334 17.471 16.9292 17.4402C17.0249 17.4095 17.1259 17.3983 17.2261 17.4073C17.3262 17.4164 17.4236 17.4455 17.5123 17.4929C17.601 17.5403 17.6792 17.6051 17.7424 17.6834C17.8055 17.7617 17.8523 17.8519 17.8799 17.9487C17.9074 18.0454 17.9153 18.1467 17.9029 18.2465C17.8905 18.3463 17.8582 18.4426 17.8079 18.5297C16.3389 21.2827 14.7329 21.5897 13.0379 21.5897Z" fill="black"/>
<path d="M6.65141 18.9257C6.62041 18.9257 6.58943 18.9257 6.55943 18.9257C5.65604 18.8871 4.78961 18.5561 4.09056 17.9826C3.39151 17.4091 2.89768 16.624 2.68336 15.7455C2.46905 14.8671 2.54585 13.9428 2.90224 13.1118C3.25862 12.2807 3.87528 11.5879 4.65941 11.1377C4.94507 10.971 5.26607 10.8742 5.59624 10.8551C5.92641 10.836 6.25644 10.8951 6.55943 11.0277C6.86714 11.158 7.13979 11.359 7.35524 11.6144C7.57069 11.8698 7.72287 12.1724 7.79942 12.4977L8.70842 16.2977C8.78673 16.6209 8.78836 16.958 8.71318 17.282C8.638 17.606 8.4881 17.9079 8.27543 18.1637C8.07861 18.4036 7.83064 18.5966 7.54967 18.7285C7.26869 18.8603 6.96178 18.9277 6.65141 18.9257ZM5.40941 12.4327C4.8964 12.7303 4.49595 13.1888 4.27013 13.7372C4.0443 14.2856 4.00573 14.8931 4.16041 15.4657C4.28863 15.94 4.54603 16.3695 4.90391 16.7062C5.2618 17.0429 5.70614 17.2736 6.18742 17.3727C6.33116 17.4016 6.47694 17.4193 6.62343 17.4257C6.71646 17.4273 6.80869 17.4083 6.89345 17.3699C6.9782 17.3315 7.05333 17.2747 7.11342 17.2037C7.17754 17.1265 7.22279 17.0354 7.24553 16.9377C7.26827 16.8399 7.26789 16.7383 7.24443 16.6407L6.33543 12.8407C6.31258 12.743 6.26696 12.6522 6.20232 12.5756C6.13767 12.4989 6.0558 12.4387 5.96342 12.3997C5.87497 12.3613 5.77873 12.3443 5.68248 12.35C5.58623 12.3557 5.49267 12.3841 5.40941 12.4327Z" fill="black"/>
<path d="M19.3486 12.7939C19.25 12.7941 19.1525 12.7748 19.0614 12.7371C18.9703 12.6995 18.8876 12.6442 18.818 12.5746C18.7483 12.5049 18.693 12.4222 18.6554 12.3311C18.6178 12.2401 18.5984 12.1425 18.5986 12.0439V10.1889C18.5986 8.43771 17.9029 6.7582 16.6646 5.5199C15.4263 4.28159 13.7468 3.58594 11.9956 3.58594C10.2444 3.58594 8.56487 4.28159 7.32657 5.5199C6.08827 6.7582 5.39258 8.43771 5.39258 10.1889V12.0409C5.39258 12.2398 5.31356 12.4306 5.17291 12.5713C5.03226 12.7119 4.84149 12.7909 4.64258 12.7909C4.44367 12.7909 4.2529 12.7119 4.11224 12.5713C3.97159 12.4306 3.89258 12.2398 3.89258 12.0409V10.1889C3.89258 8.03989 4.74629 5.97887 6.2659 4.45926C7.78551 2.93965 9.84653 2.08594 11.9956 2.08594C14.1446 2.08594 16.2057 2.93965 17.7253 4.45926C19.2449 5.97887 20.0986 8.03989 20.0986 10.1889V12.0409C20.099 12.1397 20.0799 12.2375 20.0424 12.3289C20.0048 12.4202 19.9497 12.5033 19.88 12.5732C19.8103 12.6432 19.7275 12.6987 19.6363 12.7366C19.5451 12.7745 19.4473 12.7939 19.3486 12.7939Z" fill="black"/>
</svg>
