<svg width="24" height="24" viewBox="0 0 24 24" fill="none" xmlns="http://www.w3.org/2000/svg">
<path d="M12.0039 18.743C10.9564 18.7411 9.9196 18.5329 8.95263 18.1301C7.98567 17.7273 7.10756 17.1379 6.3685 16.3956C5.62944 15.6533 5.0439 14.7726 4.64538 13.8039C4.24686 12.8352 4.04317 11.7974 4.04593 10.7499C4.04646 10.5514 4.12573 10.3611 4.26632 10.2209C4.40692 10.0807 4.59736 10.002 4.79593 10.002C4.89442 10.0022 4.9919 10.0219 5.08279 10.0598C5.17369 10.0977 5.25622 10.1532 5.32568 10.223C5.39514 10.2929 5.45016 10.3757 5.48761 10.4668C5.52506 10.5579 5.54421 10.6554 5.54394 10.7539C5.53331 11.6086 5.69245 12.4568 6.01214 13.2495C6.33184 14.0421 6.80574 14.7635 7.40634 15.3716C8.00694 15.9797 8.72227 16.4625 9.51089 16.7921C10.2995 17.1216 11.1457 17.2913 12.0004 17.2913C12.8551 17.2913 13.7013 17.1216 14.49 16.7921C15.2786 16.4625 15.9939 15.9797 16.5945 15.3716C17.1951 14.7635 17.669 14.0421 17.9887 13.2495C18.3084 12.4568 18.4676 11.6086 18.4569 10.7539C18.4567 10.6554 18.4758 10.5579 18.5133 10.4668C18.5507 10.3757 18.6057 10.2929 18.6752 10.223C18.7447 10.1532 18.8272 10.0977 18.9181 10.0598C19.009 10.0219 19.1064 10.0022 19.2049 10.002C19.4035 10.002 19.594 10.0807 19.7346 10.2209C19.8751 10.3611 19.9544 10.5514 19.9549 10.7499C19.9573 12.8633 19.1218 14.8914 17.6313 16.3896C16.1409 17.8879 14.1173 18.7342 12.0039 18.743Z" fill="black"/>
<path d="M12.0019 15.1469C11.4214 15.1465 10.8466 15.0316 10.3106 14.8089C9.77448 14.5862 9.28757 14.2599 8.8777 13.8488C8.46782 13.4378 8.143 12.9499 7.92186 12.4131C7.70071 11.8764 7.58756 11.3014 7.58888 10.7209V6.49985C7.58994 5.33074 8.05477 4.2098 8.88136 3.38303C9.70795 2.55625 10.8288 2.09117 11.9979 2.08984C12.1968 2.08984 12.3876 2.16886 12.5282 2.30951C12.6689 2.45016 12.7479 2.64093 12.7479 2.83984C12.7479 3.03876 12.6689 3.22953 12.5282 3.37018C12.3876 3.51083 12.1968 3.58984 11.9979 3.58984C11.2265 3.5909 10.4871 3.89786 9.94172 4.44339C9.39638 4.98892 9.08967 5.72848 9.08888 6.49985V10.7219C9.08888 11.4934 9.39536 12.2333 9.9409 12.7788C10.4864 13.3244 11.2264 13.6309 11.9979 13.6309C12.7694 13.6309 13.5093 13.3244 14.0549 12.7788C14.6004 12.2333 14.9069 11.4934 14.9069 10.7219C14.9066 10.6234 14.9258 10.5258 14.9632 10.4347C15.0007 10.3436 15.0557 10.2607 15.1251 10.1909C15.1946 10.1211 15.2771 10.0656 15.368 10.0277C15.4589 9.98978 15.5564 9.97011 15.6549 9.96985C15.8535 9.96985 16.0439 10.0486 16.1845 10.1888C16.3251 10.329 16.4044 10.5193 16.4049 10.7179C16.4081 11.8883 15.9464 13.0121 15.1213 13.8422C14.2962 14.6723 13.1753 15.1409 12.0049 15.1448L12.0019 15.1469Z" fill="black"/>
<path d="M15.719 8.42822C15.5201 8.42822 15.3293 8.34918 15.1887 8.20853C15.048 8.06787 14.969 7.87713 14.969 7.67822V6.50021H13.792C13.5931 6.50021 13.4023 6.4212 13.2617 6.28055C13.121 6.1399 13.042 5.94913 13.042 5.75021C13.042 5.5513 13.121 5.36053 13.2617 5.21988C13.4023 5.07923 13.5931 5.00021 13.792 5.00021H14.969V3.82422C14.969 3.62531 15.048 3.43454 15.1887 3.29388C15.3293 3.15323 15.5201 3.07422 15.719 3.07422C15.9179 3.07422 16.1087 3.15323 16.2493 3.29388C16.39 3.43454 16.469 3.62531 16.469 3.82422V5.00021H17.646C17.8449 5.00021 18.0357 5.07923 18.1763 5.21988C18.317 5.36053 18.396 5.5513 18.396 5.75021C18.396 5.94913 18.317 6.1399 18.1763 6.28055C18.0357 6.4212 17.8449 6.50021 17.646 6.50021H16.469V7.67822C16.469 7.87713 16.39 8.06787 16.2493 8.20853C16.1087 8.34918 15.9179 8.42822 15.719 8.42822Z" fill="black"/>
<path d="M12.0029 21.5902C11.804 21.5902 11.6132 21.5112 11.4726 21.3706C11.3319 21.2299 11.2529 21.0392 11.2529 20.8402V17.9902C11.2529 17.7913 11.3319 17.6006 11.4726 17.4599C11.6132 17.3193 11.804 17.2402 12.0029 17.2402C12.2018 17.2402 12.3926 17.3193 12.5333 17.4599C12.6739 17.6006 12.7529 17.7913 12.7529 17.9902V20.8383C12.7532 20.9369 12.734 21.0347 12.6964 21.1259C12.6588 21.2171 12.6036 21.3 12.534 21.3699C12.4643 21.4397 12.3815 21.4951 12.2904 21.533C12.1993 21.5708 12.1016 21.5902 12.0029 21.5902Z" fill="black"/>
</svg>
