<svg width="24" height="24" viewBox="0 0 24 24" fill="none" xmlns="http://www.w3.org/2000/svg">
<path d="M12.001 21.5902C11.8021 21.5902 11.6113 21.5112 11.4706 21.3706C11.33 21.2299 11.251 21.0392 11.251 20.8402V17.9902C11.251 17.7913 11.33 17.6006 11.4706 17.4599C11.6113 17.3193 11.8021 17.2402 12.001 17.2402C12.1999 17.2402 12.3907 17.3193 12.5313 17.4599C12.672 17.6006 12.751 17.7913 12.751 17.9902V20.8383C12.7512 20.9369 12.732 21.0347 12.6945 21.1259C12.6569 21.2171 12.6017 21.3 12.532 21.3699C12.4624 21.4397 12.3796 21.4951 12.2885 21.533C12.1973 21.5708 12.0996 21.5902 12.001 21.5902Z" fill="black"/>
<path d="M12.0028 15.1479C11.4223 15.1471 10.8476 15.0319 10.3117 14.8089C9.77568 14.5859 9.28891 14.2594 8.87916 13.8482C8.46942 13.437 8.14472 12.949 7.92366 12.4122C7.70259 11.8755 7.58952 11.3004 7.59083 10.7198V6.49884C7.59189 5.32931 8.05714 4.20802 8.88441 3.38132C9.71168 2.55461 10.8333 2.09011 12.0028 2.08984C12.2017 2.08984 12.3925 2.16886 12.5332 2.30951C12.6738 2.45016 12.7528 2.64093 12.7528 2.83984C12.7528 3.03876 12.6738 3.22953 12.5332 3.37018C12.3925 3.51083 12.2017 3.58984 12.0028 3.58984C11.2316 3.59064 10.4923 3.89741 9.94709 4.44281C9.40188 4.98821 9.09533 5.72766 9.0948 6.49884V10.7219C9.0908 11.3643 9.29973 11.9899 9.68892 12.501C10.0781 13.0122 10.6256 13.38 11.246 13.547C11.8663 13.714 12.5245 13.6708 13.1177 13.4242C13.7109 13.1776 14.2057 12.7414 14.5248 12.1838C14.6256 12.0146 14.7889 11.8918 14.9794 11.8419C15.17 11.7921 15.3725 11.8192 15.5433 11.9174C15.714 12.0157 15.8393 12.1771 15.892 12.3669C15.9447 12.5568 15.9205 12.7597 15.8248 12.9319C15.4368 13.6028 14.8797 14.1604 14.2092 14.5492C13.5386 14.938 12.7779 15.1444 12.0028 15.1479Z" fill="black"/>
<path d="M15.665 10.3364C15.5678 10.3391 15.4711 10.3223 15.3805 10.287C15.2899 10.2518 15.2072 10.1988 15.1373 10.1312C15.0675 10.0635 15.0118 9.98265 14.9736 9.89322C14.9355 9.80379 14.9155 9.70762 14.915 9.61038V9.56238C14.915 9.36347 14.9941 9.17273 15.1347 9.03207C15.2754 8.89142 15.4661 8.81238 15.665 8.81238C15.864 8.81238 16.0547 8.89142 16.1954 9.03207C16.336 9.17273 16.415 9.36347 16.415 9.56238C16.4159 9.76379 16.3379 9.95756 16.1978 10.1022C16.0576 10.2469 15.8664 10.3309 15.665 10.3364ZM15.665 7.91138C15.4661 7.91138 15.2754 7.83236 15.1347 7.69171C14.9941 7.55106 14.915 7.36029 14.915 7.16138V4.06641C14.915 3.86749 14.9941 3.67672 15.1347 3.53607C15.2754 3.39542 15.4661 3.31641 15.665 3.31641C15.864 3.31641 16.0547 3.39542 16.1954 3.53607C16.336 3.67672 16.415 3.86749 16.415 4.06641V7.16138C16.415 7.26021 16.3955 7.35809 16.3576 7.44934C16.3197 7.5406 16.264 7.62345 16.194 7.69315C16.1239 7.76284 16.0407 7.81801 15.9493 7.85547C15.8578 7.89292 15.7599 7.9119 15.6611 7.91138H15.665Z" fill="black"/>
<path d="M12.003 18.743C10.9555 18.7411 9.91858 18.5327 8.95162 18.1299C7.98466 17.7271 7.10657 17.1377 6.36745 16.3955C5.62834 15.6532 5.04274 14.7726 4.64407 13.8039C4.24539 12.8353 4.04147 11.7975 4.04397 10.75C4.04397 10.5511 4.12298 10.3603 4.26363 10.2197C4.40429 10.079 4.59506 10 4.79397 10C4.99288 10 5.18365 10.079 5.3243 10.2197C5.46495 10.3603 5.54397 10.5511 5.54397 10.75C5.54397 12.4625 6.22422 14.1049 7.43514 15.3158C8.64606 16.5267 10.2884 17.207 12.0009 17.207C13.7134 17.207 15.3558 16.5267 16.5667 15.3158C17.7777 14.1049 18.458 12.4625 18.458 10.75C18.4577 10.6515 18.4769 10.554 18.5143 10.4629C18.5518 10.3718 18.6068 10.2889 18.6762 10.2191C18.7457 10.1493 18.8282 10.0938 18.9191 10.0559C19.01 10.0179 19.1075 9.99831 19.206 9.99805C19.4045 9.99805 19.595 10.0768 19.7356 10.217C19.8762 10.3572 19.9554 10.5475 19.956 10.746C19.9594 12.8604 19.124 14.8898 17.6331 16.389C16.1421 17.8883 14.1173 18.7348 12.003 18.743Z" fill="black"/>
</svg>
