<svg width="24" height="24" viewBox="0 0 24 24" fill="none" xmlns="http://www.w3.org/2000/svg">
<path d="M11.351 21.75H7.78201C4.47401 21.75 2.25 19.429 2.25 15.974V8.027C2.25 4.572 4.47401 2.25 7.78201 2.25H16.217C19.526 2.25 21.75 4.572 21.75 8.027V11.109C21.75 11.3079 21.671 11.4987 21.5303 11.6393C21.3897 11.78 21.1989 11.859 21 11.859C20.8011 11.859 20.6103 11.78 20.4697 11.6393C20.329 11.4987 20.25 11.3079 20.25 11.109V8.027C20.25 5.427 18.667 3.75 16.217 3.75H7.78201C5.33301 3.75 3.75 5.429 3.75 8.027V15.974C3.75 18.574 5.33301 20.25 7.78201 20.25H11.351C11.5499 20.25 11.7407 20.329 11.8813 20.4697C12.022 20.6103 12.101 20.8011 12.101 21C12.101 21.1989 12.022 21.3897 11.8813 21.5303C11.7407 21.671 11.5499 21.75 11.351 21.75Z" fill="black"/>
<path d="M9.33499 16.3101C9.21668 16.3101 9.09847 16.3031 8.98098 16.2891C8.23055 16.1985 7.54492 15.8191 7.06939 15.2315C6.59387 14.644 6.36583 13.8943 6.43359 13.1415C6.50135 12.3886 6.85957 11.6917 7.43237 11.1985C8.00517 10.7053 8.74754 10.4545 9.5021 10.4992C10.2567 10.544 10.9641 10.8808 11.4746 11.4383C11.9851 11.9958 12.2584 12.7302 12.2367 13.4857C12.215 14.2413 11.8999 14.9587 11.3582 15.486C10.8166 16.0132 10.0909 16.3088 9.33499 16.3101ZM9.32901 11.9911C8.98447 11.9917 8.65201 12.1182 8.39419 12.3468C8.13637 12.5753 7.97092 12.8902 7.92898 13.2321C7.90685 13.416 7.92118 13.6024 7.9711 13.7807C8.02101 13.959 8.10555 14.1258 8.21991 14.2714C8.33426 14.4171 8.47618 14.5388 8.63757 14.6296C8.79896 14.7204 8.97664 14.7785 9.16049 14.8006C9.34434 14.8228 9.53075 14.8085 9.70907 14.7586C9.8874 14.7086 10.0541 14.6241 10.1998 14.5097C10.3454 14.3954 10.4671 14.2535 10.5579 14.0921C10.6487 13.9307 10.7069 13.753 10.729 13.5691C10.7736 13.1983 10.6693 12.8249 10.4388 12.5309C10.2084 12.2369 9.87076 12.0464 9.5 12.0011C9.44326 11.9943 9.38616 11.9909 9.32901 11.9911Z" fill="black"/>
<path d="M20.9989 21.7494C20.9005 21.7495 20.8031 21.7302 20.7121 21.6926C20.6212 21.655 20.5386 21.5999 20.4689 21.5303L19.3419 20.4053C18.7706 20.7568 18.1127 20.942 17.4419 20.9404C16.6266 20.9406 15.8348 20.6674 15.1931 20.1645C14.5514 19.6616 14.0968 18.958 13.9022 18.1662C13.7076 17.3745 13.7841 16.5404 14.1195 15.7973C14.4549 15.0541 15.0299 14.445 15.7523 14.0672C16.4748 13.6894 17.3031 13.5648 18.1048 13.7133C18.9065 13.8619 19.6351 14.275 20.1743 14.8866C20.7135 15.4981 21.032 16.2728 21.0789 17.0868C21.1257 17.9008 20.8983 18.7069 20.4329 19.3763L21.5269 20.4694C21.6322 20.5741 21.7039 20.7077 21.7331 20.8532C21.7623 20.9988 21.7475 21.1497 21.6907 21.2869C21.6339 21.4241 21.5376 21.5412 21.4141 21.6236C21.2906 21.7059 21.1454 21.7497 20.9969 21.7494H20.9989ZM17.4439 15.1553C17.0203 15.1555 16.6063 15.2813 16.2542 15.5168C15.9021 15.7523 15.6277 16.0869 15.4657 16.4783C15.3037 16.8697 15.2614 17.3004 15.3442 17.7158C15.427 18.1313 15.6311 18.5129 15.9307 18.8123C16.2303 19.1118 16.6119 19.3157 17.0274 19.3983C17.4429 19.4808 17.8735 19.4384 18.2649 19.2762C18.6562 19.1141 18.9907 18.8395 19.226 18.4873C19.4613 18.135 19.5869 17.721 19.5869 17.2973C19.5864 16.7292 19.3605 16.1844 18.9587 15.7826C18.5569 15.3808 18.0121 15.1549 17.4439 15.1543V15.1553Z" fill="black"/>
<path d="M11.4731 14.4091C11.4427 14.4092 11.4123 14.4072 11.3821 14.4031C11.2844 14.3914 11.1899 14.3605 11.1042 14.3122C11.0184 14.2639 10.943 14.1991 10.8823 14.1217C10.8215 14.0442 10.7766 13.9556 10.7502 13.8608C10.7237 13.7659 10.7163 13.6669 10.7281 13.5691L11.4991 7.13314C11.52 6.95872 11.6015 6.79721 11.7295 6.67691C11.8575 6.5566 12.0238 6.48517 12.1991 6.47514C12.3747 6.46067 12.5497 6.50976 12.6921 6.61347C12.8345 6.71717 12.935 6.86859 12.9751 7.04014C13.0719 7.37328 13.2443 7.67958 13.4788 7.93524C13.7133 8.19089 14.0036 8.389 14.3271 8.51414C14.4228 8.54337 14.5116 8.59143 14.5885 8.65551C14.6653 8.71959 14.7285 8.7984 14.7744 8.88728C14.8203 8.97616 14.8479 9.07332 14.8557 9.17305C14.8635 9.27278 14.8513 9.37306 14.8197 9.46799C14.7882 9.56292 14.7379 9.65057 14.672 9.7258C14.6061 9.80102 14.5257 9.86229 14.4358 9.90601C14.3458 9.94972 14.248 9.975 14.1481 9.98034C14.0482 9.98569 13.9483 9.971 13.8541 9.93714C13.4519 9.80342 13.0787 9.59474 12.7541 9.32214L12.2201 13.7481C12.1985 13.9308 12.1104 14.0992 11.9727 14.2211C11.8349 14.343 11.6571 14.4099 11.4731 14.4091Z" fill="black"/>
</svg>
