<svg width="24" height="24" viewBox="0 0 24 24" fill="none" xmlns="http://www.w3.org/2000/svg">
<path fill-rule="evenodd" clip-rule="evenodd" d="M18.8465 15.3223C18.0718 15.3223 17.4434 15.9507 17.4434 16.7254C17.4434 17.5001 18.0718 18.1285 18.8465 18.1285C19.6212 18.1285 20.2496 17.5001 20.2496 16.7254C20.2496 15.9507 19.6212 15.3223 18.8465 15.3223ZM15.9434 16.7254C15.9434 15.1222 17.2433 13.8223 18.8465 13.8223C20.4496 13.8223 21.7496 15.1222 21.7496 16.7254C21.7496 18.3285 20.4496 19.6285 18.8465 19.6285C17.2433 19.6285 15.9434 18.3285 15.9434 16.7254Z" fill="black"/>
<path fill-rule="evenodd" clip-rule="evenodd" d="M10.491 16.8574C9.71629 16.8574 9.08789 17.4858 9.08789 18.2605C9.08789 19.0353 9.71629 19.6637 10.491 19.6637C11.2657 19.6637 11.8941 19.0353 11.8941 18.2605C11.8941 17.4858 11.2657 16.8574 10.491 16.8574ZM7.58789 18.2605C7.58789 16.6574 8.88786 15.3574 10.491 15.3574C12.0942 15.3574 13.3941 16.6574 13.3941 18.2605C13.3941 19.8637 12.0942 21.1637 10.491 21.1637C8.88786 21.1637 7.58789 19.8637 7.58789 18.2605Z" fill="black"/>
<path fill-rule="evenodd" clip-rule="evenodd" d="M5.16674 9.00195C4.38467 9.00195 3.75 9.63672 3.75 10.4197C3.75 11.2022 4.38424 11.8364 5.16674 11.8364C5.94924 11.8364 6.58348 11.2022 6.58348 10.4197C6.58348 9.63672 5.9488 9.00195 5.16674 9.00195ZM2.25 10.4197C2.25 8.80917 3.55537 7.50195 5.16674 7.50195C6.77811 7.50195 8.08348 8.80917 8.08348 10.4197C8.08348 12.0306 6.77767 13.3364 5.16674 13.3364C3.55581 13.3364 2.25 12.0306 2.25 10.4197Z" fill="black"/>
<path fill-rule="evenodd" clip-rule="evenodd" d="M8.03232 3.31247C8.03253 3.31298 8.03289 3.31385 8.03339 3.31506C8.03533 3.31971 8.03941 3.32934 8.04572 3.34331C8.05837 3.37133 8.07974 3.41629 8.11041 3.4733C8.17225 3.58827 8.26894 3.74665 8.40408 3.91234C8.67582 4.2455 9.07547 4.57683 9.64062 4.69189C10.0465 4.77452 10.3086 5.17055 10.2259 5.57644C10.1433 5.98232 9.74726 6.24437 9.34137 6.16174C8.84503 6.06069 8.42842 5.86636 8.08398 5.63453V10.3372C8.08398 10.7515 7.7482 11.0872 7.33398 11.0872C6.91977 11.0872 6.58398 10.7515 6.58398 10.3372V3.58601C6.58398 3.22459 6.84175 2.91457 7.1971 2.84861C7.5509 2.78293 7.90125 2.97779 8.03231 3.31245C8.03217 3.31208 8.03209 3.3119 8.03209 3.3119L8.03211 3.31194L8.03267 3.31335L8.03324 3.31483L8.0336 3.31577" fill="black"/>
<path fill-rule="evenodd" clip-rule="evenodd" d="M21.4029 5.86971C21.6188 6.00748 21.7494 6.2459 21.7494 6.50202L21.7486 16.7256C21.7485 17.1398 21.4127 17.4756 20.9985 17.4755C20.5843 17.4755 20.2485 17.1397 20.2486 16.7255L20.2493 7.63767C17.9938 8.51853 15.6843 8.90222 13.3928 8.83025L13.3926 18.261C13.3926 18.6752 13.0568 19.011 12.6426 19.011C12.2283 19.0109 11.8926 18.6752 11.8926 18.2609L11.8928 8.03821C11.8928 7.82914 11.9801 7.62957 12.1336 7.48762C12.2871 7.34566 12.4929 7.27422 12.7013 7.29051C15.3611 7.49839 18.0634 7.03911 20.6834 5.82179C20.9157 5.71387 21.187 5.73194 21.4029 5.86971Z" fill="black"/>
<path fill-rule="evenodd" clip-rule="evenodd" d="M21.6793 9.8363C21.8539 10.2119 21.691 10.658 21.3154 10.8326C18.4615 12.1596 15.5012 12.6655 12.5839 12.4365C12.171 12.4041 11.8625 12.043 11.8949 11.6301C11.9273 11.2172 12.2884 10.9087 12.7013 10.9411C15.361 11.1499 18.0631 10.6907 20.683 9.47245C21.0586 9.2978 21.5046 9.4607 21.6793 9.8363Z" fill="black"/>
</svg>
