<svg width="24" height="24" viewBox="0 0 24 24" fill="none" xmlns="http://www.w3.org/2000/svg">
<path fill-rule="evenodd" clip-rule="evenodd" d="M12.0011 3.56836C12.4153 3.56836 12.7511 3.90415 12.7511 4.31836V4.32741C12.7511 4.74162 12.4153 5.07741 12.0011 5.07741C11.5869 5.07741 11.2511 4.74162 11.2511 4.32741V4.31836C11.2511 3.90415 11.5869 3.56836 12.0011 3.56836ZM5.65791 6.24041C6.07212 6.24041 6.40791 6.5762 6.40791 6.99041V6.99946C6.40791 7.41367 6.07212 7.74946 5.65791 7.74946C5.2437 7.74946 4.90791 7.41367 4.90791 6.99946V6.99041C4.90791 6.5762 5.2437 6.24041 5.65791 6.24041ZM18.3642 6.24041C18.7784 6.24041 19.1142 6.5762 19.1142 6.99041V6.99946C19.1142 7.41367 18.7784 7.74946 18.3642 7.74946C17.95 7.74946 17.6142 7.41367 17.6142 6.99946V6.99041C17.6142 6.5762 17.95 6.24041 18.3642 6.24041ZM3 12.6229C3.41421 12.6229 3.75 12.9587 3.75 13.3729V13.382C3.75 13.7962 3.41421 14.132 3 14.132C2.58579 14.132 2.25 13.7962 2.25 13.382V13.3729C2.25 12.9587 2.58579 12.6229 3 12.6229ZM21 12.6229C21.4142 12.6229 21.75 12.9587 21.75 13.3729V13.382C21.75 13.7962 21.4142 14.132 21 14.132C20.5858 14.132 20.25 13.7962 20.25 13.382V13.3729C20.25 12.9587 20.5858 12.6229 21 12.6229ZM5.65791 18.9237C6.07212 18.9237 6.40791 19.2595 6.40791 19.6737V19.6828C6.40791 20.097 6.07212 20.4328 5.65791 20.4328C5.2437 20.4328 4.90791 20.097 4.90791 19.6828V19.6737C4.90791 19.2595 5.2437 18.9237 5.65791 18.9237ZM18.3642 18.9237C18.7784 18.9237 19.1142 19.2595 19.1142 19.6737V19.6828C19.1142 20.097 18.7784 20.4328 18.3642 20.4328C17.95 20.4328 17.6142 20.097 17.6142 19.6828V19.6737C17.6142 19.2595 17.95 18.9237 18.3642 18.9237Z" fill="black"/>
<path fill-rule="evenodd" clip-rule="evenodd" d="M6.36133 13.3233C6.36133 10.2093 8.88651 7.68555 12.0009 7.68555C15.1161 7.68555 17.6414 10.2092 17.6414 13.3233C17.6414 16.4374 15.1161 18.961 12.0009 18.961C8.88651 18.961 6.36133 16.4373 6.36133 13.3233ZM12.0009 9.18555C9.7144 9.18555 7.86133 11.0383 7.86133 13.3233C7.86133 15.6083 9.7144 17.461 12.0009 17.461C14.2884 17.461 16.1414 15.6082 16.1414 13.3233C16.1414 11.0383 14.2884 9.18555 12.0009 9.18555Z" fill="black"/>
<path fill-rule="evenodd" clip-rule="evenodd" d="M15.8571 9.39241C16.1657 9.66871 16.1919 10.1429 15.9156 10.4515L13.7482 12.8723C13.4719 13.1809 12.9978 13.207 12.6892 12.9307C12.3806 12.6544 12.3544 12.1803 12.6307 11.8717L14.7981 9.4509C15.0744 9.1423 15.5485 9.11612 15.8571 9.39241Z" fill="black"/>
</svg>
