<svg width="24" height="24" viewBox="0 0 24 24" fill="none" xmlns="http://www.w3.org/2000/svg">
<path fill-rule="evenodd" clip-rule="evenodd" d="M11.681 5.25977C11.6809 5.25979 11.681 5.25975 11.681 5.25977L8.55411 7.21419C8.55394 7.2143 8.55429 7.21408 8.55411 7.21419C8.05989 7.52383 7.42864 7.67161 6.89307 7.67683C6.52542 7.70353 6.21238 7.71475 5.94969 7.72416C5.92358 7.7251 5.89797 7.72602 5.87285 7.72693C5.58056 7.73756 5.37406 7.74725 5.19597 7.77119C4.89713 7.81135 4.67845 7.88851 4.34754 8.16363C4.11802 8.35587 3.92407 8.80939 3.82723 9.60277C3.74701 10.2599 3.74895 10.9865 3.75083 11.6869C3.75111 11.7919 3.75139 11.8964 3.75139 12C3.75139 12.1008 3.75113 12.2025 3.75087 12.3048C3.7491 13.0079 3.74726 13.7381 3.82801 14.3979C3.92495 15.1901 4.11834 15.6439 4.34684 15.8368C4.68116 16.112 4.90014 16.1886 5.19814 16.2286C5.37626 16.2525 5.58268 16.2622 5.87559 16.2731C5.89919 16.2739 5.92322 16.2748 5.94769 16.2757C6.21194 16.2854 6.52732 16.2969 6.89889 16.3242C7.43699 16.3295 8.06088 16.4778 8.55375 16.7866C8.55363 16.7866 8.55387 16.7867 8.55375 16.7866L11.681 18.7413C11.6809 18.7413 11.681 18.7413 11.681 18.7413C12.9982 19.5642 14.7465 18.6193 14.8362 16.9164L14.8372 16.9013C15.0754 13.6341 15.0754 10.367 14.8372 7.09977L14.8365 7.09093C14.7316 5.37234 12.993 4.44005 11.681 5.25977ZM16.3335 6.99468C16.1683 4.3437 13.3264 2.46287 10.8861 3.98769L7.75824 5.94274C7.53474 6.08284 7.17659 6.17698 6.86364 6.17698C6.84515 6.17698 6.82666 6.17766 6.80822 6.17903C6.45908 6.2049 6.16428 6.21549 5.89443 6.22518C5.86885 6.22609 5.84349 6.22701 5.81834 6.22792C5.53631 6.23818 5.258 6.24936 4.99616 6.28456C4.41536 6.36262 3.93385 6.5566 3.38749 7.01111L3.38621 7.01217C2.67861 7.60348 2.4399 8.58846 2.33828 9.42102C2.24576 10.179 2.24847 11.0098 2.25073 11.7012C2.25106 11.8041 2.25139 11.904 2.25139 12C2.25139 12.094 2.25108 12.1917 2.25077 12.2923C2.24862 12.9857 2.24604 13.8195 2.33912 14.5801C2.441 15.4126 2.67969 16.3971 3.38556 16.9883L3.39001 16.992C3.93844 17.4442 4.41832 17.6374 4.9986 17.7153C5.26 17.7504 5.53805 17.7616 5.82018 17.772C5.84362 17.7729 5.86723 17.7738 5.89105 17.7746C6.16252 17.7846 6.45982 17.7955 6.8129 17.822C6.83159 17.8234 6.85032 17.8241 6.86907 17.8241C7.18125 17.8241 7.53258 17.9169 7.75741 18.0578L10.886 20.0133C13.3202 21.5343 16.1882 19.6617 16.3337 17.0032C16.5766 13.6671 16.5765 10.3308 16.3335 6.99468Z" fill="black"/>
<path fill-rule="evenodd" clip-rule="evenodd" d="M19.607 7.52362C19.9662 7.3173 20.4246 7.4412 20.6309 7.80038C22.1243 10.4 22.1243 13.5986 20.6309 16.1983C20.4246 16.5574 19.9662 16.6814 19.607 16.475C19.2478 16.2687 19.1239 15.8103 19.3303 15.4511C20.5578 13.3141 20.5578 10.6845 19.3303 8.54753C19.1239 8.18836 19.2478 7.72994 19.607 7.52362Z" fill="black"/>
</svg>
