<svg width="25" height="24" viewBox="0 0 25 24" fill="none" xmlns="http://www.w3.org/2000/svg">
<path d="M4.01047 11.5274L11.3163 19.5542C11.9507 20.2518 13.0482 20.2518 13.6825 19.5542L20.9894 11.5264C21.6004 10.8561 21.6704 9.85395 21.1596 9.10381L18.2174 4.78197C17.8526 4.24685 17.2455 3.92578 16.5975 3.92578H8.41111C7.76312 3.92578 7.15698 4.24588 6.79212 4.781L3.84117 9.10381C3.3294 9.85298 3.39946 10.8561 4.01047 11.5274Z" stroke="black" stroke-width="1.5" stroke-linecap="round" stroke-linejoin="round"/>
<path opacity="0.4" d="M14.4989 3.92578L15.8659 9.10381C16.0643 9.85395 16.0371 10.8561 15.7997 11.5264L12.9597 19.5542C12.7135 20.2518 12.2864 20.2518 12.0402 19.5542L9.2002 11.5274C8.9628 10.8561 8.93556 9.85298 9.13501 9.10381L10.5059 3.92578" stroke="black" stroke-width="1.5" stroke-linecap="round" stroke-linejoin="round"/>
<path d="M3.50781 10.2031H21.4908" stroke="black" stroke-width="1.5" stroke-linecap="round" stroke-linejoin="round"/>
</svg>