<svg width="25" height="24" viewBox="0 0 25 24" fill="none" xmlns="http://www.w3.org/2000/svg">
<path d="M8.28216 3H16.7169C19.665 3 21.5 5.08119 21.5 8.02638V15.9736C21.5 18.9188 19.665 21 16.7159 21H8.28216C5.33405 21 3.5 18.9188 3.5 15.9736V8.02638C3.5 5.08119 5.34281 3 8.28216 3Z" stroke="black" stroke-width="1.5" stroke-linecap="round" stroke-linejoin="round"/>
<path d="M14.0004 14.045C14.0004 12.3044 15.2088 10.8945 16.6994 10.8945C17.3416 10.8945 17.8612 11.4141 17.8612 12.0563C17.8612 13.4573 16.1322 14.5938 13.9994 14.5938C11.8657 14.5938 10.1367 13.4573 10.1367 12.0563C10.1367 11.4141 10.6573 10.8945 11.2994 10.8945C12.789 10.8945 13.9975 12.3044 13.9975 14.045" stroke="black" stroke-width="1.5" stroke-linecap="round" stroke-linejoin="round"/>
<path d="M11.1309 17.7442L13.9978 14.5938L16.8636 17.7442" stroke="black" stroke-width="1.5" stroke-linecap="round" stroke-linejoin="round"/>
<path opacity="0.4" d="M21.5 14.6719H3.5" stroke="black" stroke-width="1.5" stroke-linecap="round" stroke-linejoin="round"/>
<path opacity="0.4" d="M13.998 3V21" stroke="black" stroke-width="1.5" stroke-linecap="round" stroke-linejoin="round"/>
</svg>