<svg width="25" height="24" viewBox="0 0 25 24" fill="none" xmlns="http://www.w3.org/2000/svg">
<path d="M12.4985 7.14193C12.4985 7.14193 11.6981 3 8.89593 3C7.79064 3 6.89453 3.92724 6.89453 5.07145C6.89453 6.21469 7.79064 7.14193 8.89593 7.14193" stroke="black" stroke-width="1.5" stroke-linecap="round" stroke-linejoin="round"/>
<path d="M16.101 7.14193C17.2062 7.14193 18.1023 6.21469 18.1023 5.07145C18.1023 3.92724 17.2062 3 16.101 3C13.2988 3 12.498 7.14193 12.498 7.14193" stroke="black" stroke-width="1.5" stroke-linecap="round" stroke-linejoin="round"/>
<path d="M17.373 20.9986H7.62677C5.47748 20.9986 4.14062 19.3971 4.14062 17.1281V11.0101C4.14062 8.74213 5.47748 7.14062 7.62775 7.14062H17.373C19.5223 7.14062 20.8591 8.74213 20.8591 11.0101V17.1281C20.8591 19.3971 19.5155 20.9986 17.373 20.9986Z" stroke="black" stroke-width="1.5" stroke-linecap="round" stroke-linejoin="round"/>
<path opacity="0.4" d="M12.4976 7.14062L10.2715 10.836" stroke="black" stroke-width="1.5" stroke-linecap="round" stroke-linejoin="round"/>
<path opacity="0.4" d="M12.498 7.14062L14.7245 10.836" stroke="black" stroke-width="1.5" stroke-linecap="round" stroke-linejoin="round"/>
<path opacity="0.4" d="M4.14062 16.2422H20.8582" stroke="black" stroke-width="1.5" stroke-linecap="round" stroke-linejoin="round"/>
</svg>