<svg width="25" height="24" viewBox="0 0 25 24" fill="none" xmlns="http://www.w3.org/2000/svg">
<path fill-rule="evenodd" clip-rule="evenodd" d="M12.4959 7.14195H8.89301C7.78771 7.14195 6.8916 6.2147 6.8916 5.07146C6.8916 3.92724 7.78771 3 8.89301 3C11.6952 3 12.4959 7.14195 12.4959 7.14195Z" stroke="black" stroke-width="1.5" stroke-linecap="round" stroke-linejoin="round"/>
<path fill-rule="evenodd" clip-rule="evenodd" d="M12.4961 7.14195H16.0988C17.2041 7.14195 18.1002 6.2147 18.1002 5.07146C18.1002 3.92724 17.2041 3 16.0988 3C13.2966 3 12.4961 7.14195 12.4961 7.14195Z" stroke="black" stroke-width="1.5" stroke-linecap="round" stroke-linejoin="round"/>
<path d="M7.62289 7.14453H17.3682C19.5204 7.14453 20.8621 8.74702 20.8621 11.0111V17.1321C20.8621 19.3962 19.5117 20.9987 17.3682 20.9987H7.62289C5.47067 20.9987 4.13867 19.3962 4.13867 17.1321V11.0111C4.13867 8.74702 5.47067 7.14453 7.62289 7.14453Z" stroke="black" stroke-width="1.5" stroke-linecap="round" stroke-linejoin="round"/>
<path opacity="0.4" d="M12.4961 21.0005V13.1836" stroke="black" stroke-width="1.5" stroke-linecap="round" stroke-linejoin="round"/>
<path opacity="0.4" d="M10.4367 11.9141H4.13867M20.862 11.9141H14.5639" stroke="black" stroke-width="1.5" stroke-linecap="round" stroke-linejoin="round"/>
<path d="M12.4946 13.1826L10.4355 13.8629L10.4359 11.9153L10.4355 7.16399M12.5041 13.1828L14.5629 13.8532L14.5631 11.9153L14.5532 7.14453" stroke="black" stroke-width="1.5" stroke-linecap="round" stroke-linejoin="round"/>
</svg>