<svg width="25" height="24" viewBox="0 0 25 24" fill="none" xmlns="http://www.w3.org/2000/svg">
<path d="M17.2045 21.0004H7.79609C5.72177 21.0004 4.43164 19.4544 4.43164 17.2653V11.9656C4.43164 9.77648 5.72177 8.23047 7.79707 8.23047H17.2045C19.2788 8.23047 20.5689 9.77648 20.5689 11.9656V17.2653C20.5689 19.4544 19.272 21.0004 17.2045 21.0004Z" stroke="black" stroke-width="1.5" stroke-linecap="round" stroke-linejoin="round"/>
<path opacity="0.4" d="M20.4853 11.0859L14.4336 20.9915" stroke="black" stroke-width="1.5" stroke-linecap="round" stroke-linejoin="round"/>
<path opacity="0.4" d="M16.2849 8.22656L8.58789 20.9916" stroke="black" stroke-width="1.5" stroke-linecap="round" stroke-linejoin="round"/>
<path opacity="0.4" d="M10.4213 8.22656L4.48633 17.9337" stroke="black" stroke-width="1.5" stroke-linecap="round" stroke-linejoin="round"/>
<path d="M12.0521 8.2259L9.69368 3.31641L7.15039 5.88791L10.365 8.2259" stroke="black" stroke-width="1.5" stroke-linecap="round" stroke-linejoin="round"/>
<path d="M13.7495 8.22959L17.8505 5.72328L14.5182 3L12.0508 8.22765" stroke="black" stroke-width="1.5" stroke-linecap="round" stroke-linejoin="round"/>
</svg>