<svg width="25" height="24" viewBox="0 0 25 24" fill="none" xmlns="http://www.w3.org/2000/svg">
<path d="M4.07919 16.3063L3.50123 7.32852C3.46912 6.82548 4.07335 6.54818 4.43336 6.89943L7.05363 9.45451C7.05363 9.45451 10.0485 6.47325 11.6072 4.91452C12.1083 4.41245 12.9188 4.4144 13.417 4.91744C14.9611 6.4752 17.9463 9.45937 17.9463 9.45937C17.9463 9.45937 19.4904 7.94442 20.5685 6.88775C20.9285 6.53455 21.5318 6.81575 21.4987 7.31879L20.9207 16.3054C20.8069 18.0781 19.3348 19.4579 17.559 19.4579H7.44185C5.66517 19.4579 4.194 18.0781 4.07919 16.3063Z" stroke="black" stroke-width="1.5" stroke-linecap="round" stroke-linejoin="round"/>
<path opacity="0.4" d="M12.5001 14.6139V14.6606M12.6893 14.624C12.6893 14.7291 12.604 14.8143 12.4989 14.8143C12.3938 14.8143 12.3086 14.7291 12.3086 14.624C12.3086 14.5188 12.3938 14.4336 12.4989 14.4336C12.604 14.4336 12.6893 14.5188 12.6893 14.624Z" stroke="black" stroke-width="1.5" stroke-linecap="round" stroke-linejoin="round"/>
</svg>