<svg width="24" height="24" viewBox="0 0 24 24" fill="none" xmlns="http://www.w3.org/2000/svg">
<path d="M16.216 21.75H7.782C4.473 21.75 2.25 19.429 2.25 15.974V8.026C2.25 4.571 4.473 2.25 7.782 2.25H16.217C19.526 2.25 21.75 4.571 21.75 8.026V15.974C21.75 19.429 19.526 21.75 16.216 21.75ZM7.782 3.75C5.333 3.75 3.75 5.429 3.75 8.026V15.974C3.75 18.574 5.333 20.25 7.782 20.25H16.216C18.667 20.25 20.25 18.571 20.25 15.974V8.026C20.25 5.426 18.667 3.75 16.217 3.75H7.782Z" fill="black"/>
<path d="M11.9986 16.588C11.7887 16.5876 11.5811 16.5435 11.3891 16.4585C11.1972 16.3734 11.025 16.2493 10.8836 16.0941L7.41163 12.2811C7.15614 12.0018 7.00281 11.6443 6.97666 11.2667C6.95051 10.8891 7.05308 10.5138 7.26763 10.2021L8.66764 8.14804C8.82154 7.92172 9.02848 7.73653 9.27042 7.60858C9.51236 7.48064 9.78195 7.41386 10.0556 7.41406H13.9456C14.2202 7.41373 14.4907 7.48084 14.7332 7.60953C14.9758 7.73821 15.183 7.92453 15.3366 8.15207L16.7366 10.2031C16.9502 10.5149 17.0521 10.8899 17.0256 11.267C16.9991 11.6441 16.8458 12.0011 16.5906 12.2801L13.1196 16.096C12.9771 16.2512 12.8038 16.3751 12.6108 16.4598C12.4178 16.5445 12.2094 16.5882 11.9986 16.588ZM8.51963 11.2721L11.9916 15.0851L15.4786 11.2701C15.5061 11.2401 15.5225 11.2017 15.5252 11.1612C15.5279 11.1207 15.5168 11.0804 15.4936 11.0471L14.0936 8.99304C14.0772 8.96832 14.0549 8.94808 14.0287 8.93411C14.0026 8.92015 13.9733 8.91291 13.9436 8.91306H10.0536C10.0242 8.91325 9.99518 8.92063 9.96921 8.93457C9.94325 8.94851 9.92108 8.96859 9.90464 8.99304L8.50463 11.0471C8.48161 11.0809 8.47067 11.1215 8.47358 11.1623C8.47648 11.2031 8.49306 11.2418 8.52063 11.2721H8.51963Z" fill="black"/>
</svg>
