<svg width="24" height="24" viewBox="0 0 24 24" fill="none" xmlns="http://www.w3.org/2000/svg">
<path d="M12 21.75C10.0716 21.75 8.18657 21.1782 6.58319 20.1068C4.97981 19.0355 3.73013 17.5127 2.99217 15.7312C2.25422 13.9496 2.06114 11.9892 2.43735 10.0979C2.81356 8.20655 3.74215 6.46927 5.10572 5.10571C6.46928 3.74215 8.20656 2.81355 10.0979 2.43735C11.9892 2.06114 13.9496 2.25423 15.7312 2.99219C17.5128 3.73014 19.0355 4.97981 20.1068 6.58319C21.1782 8.18657 21.75 10.0716 21.75 12C21.7471 14.585 20.7189 17.0632 18.8911 18.8911C17.0632 20.7189 14.585 21.7471 12 21.75ZM12 3.75C10.3683 3.75 8.77326 4.23386 7.41655 5.14038C6.05985 6.0469 5.00242 7.33537 4.37799 8.84286C3.75357 10.3504 3.5902 12.0092 3.90853 13.6095C4.22685 15.2098 5.01259 16.6798 6.16637 17.8336C7.32015 18.9874 8.79016 19.7732 10.3905 20.0915C11.9908 20.4098 13.6496 20.2464 15.1571 19.622C16.6646 18.9976 17.9531 17.9402 18.8596 16.5835C19.7661 15.2268 20.25 13.6317 20.25 12C20.2476 9.81269 19.3777 7.71566 17.831 6.169C16.2843 4.62235 14.1873 3.75238 12 3.75Z" fill="black"/>
<path d="M11.9986 16.588C11.7887 16.5876 11.5811 16.5435 11.3891 16.4585C11.1972 16.3734 11.025 16.2493 10.8836 16.0941L7.41163 12.2811C7.15614 12.0018 7.00281 11.6443 6.97666 11.2667C6.95051 10.8891 7.05308 10.5138 7.26763 10.2021L8.66764 8.14804C8.82154 7.92172 9.02848 7.73653 9.27042 7.60858C9.51236 7.48064 9.78195 7.41386 10.0556 7.41406H13.9456C14.2202 7.41373 14.4907 7.48084 14.7332 7.60953C14.9758 7.73821 15.183 7.92453 15.3366 8.15207L16.7366 10.2031C16.9502 10.5149 17.0521 10.8899 17.0256 11.267C16.9991 11.6441 16.8458 12.0011 16.5906 12.2801L13.1196 16.096C12.9771 16.2512 12.8038 16.3751 12.6108 16.4598C12.4178 16.5445 12.2094 16.5882 11.9986 16.588ZM8.51963 11.2721L11.9916 15.0851L15.4786 11.2701C15.5061 11.2401 15.5225 11.2017 15.5252 11.1612C15.5279 11.1207 15.5168 11.0804 15.4936 11.0471L14.0936 8.99304C14.0772 8.96832 14.0549 8.94808 14.0287 8.93411C14.0026 8.92015 13.9733 8.91291 13.9436 8.91306H10.0536C10.0242 8.91325 9.99518 8.92063 9.96921 8.93457C9.94325 8.94851 9.92108 8.96859 9.90464 8.99304L8.50463 11.0471C8.48161 11.0809 8.47067 11.1215 8.47358 11.1623C8.47648 11.2031 8.49306 11.2418 8.52063 11.2721H8.51963Z" fill="black"/>
</svg>
