<svg width="24" height="24" viewBox="0 0 24 24" fill="none" xmlns="http://www.w3.org/2000/svg">
<path fill-rule="evenodd" clip-rule="evenodd" d="M8.39325 3.75C7.72623 3.75 7.14185 4.31698 7.14185 5.07146C7.14185 5.82473 7.726 6.39195 8.39325 6.39195H11.0041C10.8994 6.09498 10.7609 5.75714 10.5833 5.42302C10.0707 4.45882 9.36416 3.75 8.39325 3.75ZM11.9962 7.14195C12.7325 6.99959 12.7325 6.99934 12.7324 6.99907L12.7323 6.99846L12.732 6.99695L12.7312 6.99278L12.7286 6.97999L12.7196 6.93717C12.7119 6.90123 12.7005 6.85076 12.6853 6.78781C12.6549 6.66206 12.6088 6.48564 12.5444 6.27526C12.4165 5.85722 12.2122 5.29165 11.9078 4.71893C11.3194 3.61215 10.2245 2.25 8.39325 2.25C6.84968 2.25 5.64185 3.53751 5.64185 5.07146C5.64185 6.60468 6.84991 7.89195 8.39325 7.89195H11.9962C12.22 7.89195 12.4322 7.79196 12.5747 7.6193C12.7171 7.44664 12.775 7.21937 12.7325 6.99959L11.9962 7.14195Z" fill="black"/>
<path fill-rule="evenodd" clip-rule="evenodd" d="M12.0844 4.71896C12.6727 3.61217 13.7675 2.25 15.5988 2.25C17.1424 2.25 18.3502 3.53751 18.3502 5.07146C18.3502 6.60468 17.1421 7.89195 15.5988 7.89195H11.9961C11.7723 7.89195 11.5601 7.79196 11.4176 7.61932C11.2752 7.44667 11.2173 7.21941 11.2597 6.99963L11.9961 7.14195C11.2597 6.99963 11.2597 6.99989 11.2597 6.99963L11.2602 6.99698L11.2611 6.99282L11.2636 6.98002L11.2727 6.93721C11.2804 6.90127 11.2917 6.85079 11.3069 6.78784C11.3373 6.6621 11.3834 6.48568 11.4478 6.2753C11.5757 5.85726 11.78 5.29168 12.0844 4.71896ZM12.9882 6.39195H15.5988C16.266 6.39195 16.8502 5.82473 16.8502 5.07146C16.8502 4.31698 16.2658 3.75 15.5988 3.75C14.6279 3.75 13.9214 4.4588 13.4089 5.42299C13.2313 5.75712 13.0928 6.09497 12.9882 6.39195Z" fill="black"/>
<path fill-rule="evenodd" clip-rule="evenodd" d="M4.01084 7.73312C4.76581 6.87581 5.84785 6.39453 7.12289 6.39453H16.8682C18.143 6.39453 19.2269 6.87556 19.9841 7.73199C20.7329 8.57882 21.1121 9.73417 21.1121 11.0111V17.1321C21.1121 18.4103 20.73 19.5655 19.9804 20.4117C19.2226 21.2672 18.1393 21.7487 16.8682 21.7487H7.12289C5.84785 21.7487 4.76581 21.2674 4.01084 20.4101C3.26473 19.5629 2.88867 18.4077 2.88867 17.1321V11.0111C2.88867 9.73555 3.26473 8.58037 4.01084 7.73312ZM5.13656 8.72446C4.67862 9.24448 4.38867 10.0226 4.38867 11.0111V17.1321C4.38867 18.1206 4.67862 18.8988 5.13656 19.4188C5.58564 19.9287 6.24571 20.2487 7.12289 20.2487H16.8682C17.7406 20.2487 18.4042 19.9289 18.8575 19.4171C19.3191 18.8961 19.6121 18.118 19.6121 17.1321V11.0111C19.6121 10.024 19.3206 9.24603 18.8604 8.72558C18.4087 8.21474 17.7456 7.89453 16.8682 7.89453H7.12289C6.24571 7.89453 5.58564 8.2145 5.13656 8.72446Z" fill="black"/>
<path fill-rule="evenodd" clip-rule="evenodd" d="M14.054 6.39453C14.4683 6.39393 14.8045 6.72923 14.8051 7.14344L14.8149 13.8521C14.8152 14.0925 14.7003 14.3184 14.5059 14.4598C14.3116 14.6011 14.0612 14.6407 13.8326 14.5663L12.0028 13.9705L10.1728 14.5751C9.94417 14.6506 9.69324 14.6118 9.49815 14.4708C9.30305 14.3297 9.1875 14.1036 9.1875 13.8629V7.16399C9.1875 6.74978 9.52329 6.41399 9.9375 6.41399C10.3517 6.41399 10.6875 6.74978 10.6875 7.16399V12.8253L11.7611 12.4707C11.837 12.4456 11.9164 12.4328 11.9963 12.4328H12.006C12.0849 12.4328 12.1633 12.4452 12.2383 12.4697L13.3134 12.8197L13.3051 7.14562C13.3045 6.73141 13.6398 6.39513 14.054 6.39453Z" fill="black"/>
</svg>
