<svg width="24" height="24" viewBox="0 0 24 24" fill="none" xmlns="http://www.w3.org/2000/svg">
<path fill-rule="evenodd" clip-rule="evenodd" d="M8.39715 3.75C7.73013 3.75 7.14575 4.31698 7.14575 5.07145C7.14575 5.82472 7.7299 6.39193 8.39715 6.39193H11.0079C10.9033 6.09496 10.7648 5.75712 10.5872 5.42301C10.0746 4.45882 9.36805 3.75 8.39715 3.75ZM12.0001 7.14193C12.7364 6.99957 12.7364 6.99932 12.7363 6.99905L12.7359 6.99692L12.7351 6.99276L12.7325 6.97996L12.7235 6.93715C12.7157 6.90121 12.7044 6.85074 12.6892 6.78779C12.6588 6.66204 12.6127 6.48562 12.5483 6.27524C12.4204 5.85721 12.2161 5.29163 11.9116 4.71892C11.3233 3.61215 10.2284 2.25 8.39715 2.25C6.85358 2.25 5.64575 3.5375 5.64575 5.07145C5.64575 6.60466 6.85381 7.89193 8.39715 7.89193H12.0001C12.2239 7.89193 12.4361 7.79194 12.5785 7.61928C12.721 7.44662 12.7788 7.21883 12.7363 6.99905L12.0001 7.14193Z" fill="black"/>
<path fill-rule="evenodd" clip-rule="evenodd" d="M12.0883 4.71895C12.6766 3.61217 13.7714 2.25 15.6027 2.25C17.1462 2.25 18.3541 3.5375 18.3541 5.07145C18.3541 6.60466 17.146 7.89193 15.6027 7.89193H12C11.7762 7.89193 11.564 7.79194 11.4215 7.6193C11.2791 7.44665 11.2212 7.21938 11.2636 6.99961L12 7.14193C11.2636 6.99961 11.2636 6.99987 11.2636 6.99961L11.2641 6.99696L11.265 6.9928L11.2676 6.98L11.2766 6.93719C11.2843 6.90125 11.2956 6.85077 11.3109 6.78782C11.3412 6.66208 11.3873 6.48566 11.4517 6.27528C11.5796 5.85724 11.7839 5.29166 12.0883 4.71895ZM12.9921 6.39193H15.6027C16.2699 6.39193 16.8541 5.82472 16.8541 5.07145C16.8541 4.31698 16.2697 3.75 15.6027 3.75C14.6318 3.75 13.9253 4.4588 13.4128 5.42298C13.2352 5.75711 13.0967 6.09495 12.9921 6.39193Z" fill="black"/>
<path fill-rule="evenodd" clip-rule="evenodd" d="M4.01724 7.72886C4.77311 6.8716 5.85569 6.39062 7.1297 6.39062H16.875C18.1486 6.39062 19.2309 6.87168 19.9866 7.72891C20.7336 8.57627 21.1111 9.7322 21.1111 11.0101V17.1281C21.1111 18.4074 20.7314 19.5635 19.9838 20.4106C19.2276 21.2672 18.1457 21.7486 16.875 21.7486H7.12873C5.85509 21.7486 4.77274 21.2676 4.01702 20.4102C3.27003 19.5627 2.89258 18.4065 2.89258 17.1281V11.0101C2.89258 9.7322 3.27008 8.57623 4.01724 7.72886ZM5.14234 8.7209C4.68351 9.24127 4.39258 10.0201 4.39258 11.0101V17.1281C4.39258 18.1188 4.68355 18.8978 5.14231 19.4183C5.59235 19.9289 6.25307 20.2486 7.12873 20.2486H16.875C17.7467 20.2486 18.4078 19.9293 18.8592 19.4179C19.319 18.897 19.6111 18.1178 19.6111 17.1281V11.0101C19.6111 10.0201 19.3202 9.24124 18.8614 8.72084C18.4114 8.21033 17.7506 7.89062 16.875 7.89062H7.1297C6.25345 7.89062 5.59246 8.2104 5.14234 8.7209Z" fill="black"/>
<path fill-rule="evenodd" clip-rule="evenodd" d="M8.72468 6.49056C9.08371 6.69713 9.20729 7.15564 9.00071 7.51467L4.28863 15.7041C4.08205 16.0632 3.62354 16.1868 3.26451 15.9802C2.90549 15.7736 2.78191 15.3151 2.98848 14.9561L7.70057 6.76659C7.90715 6.40756 8.36566 6.28398 8.72468 6.49056ZM13.6623 6.49066C14.0213 6.69733 14.1447 7.15588 13.9381 7.51485L6.1689 21.009C5.96223 21.3679 5.50368 21.4914 5.14471 21.2847C4.78574 21.078 4.66229 20.6195 4.86896 20.2605L12.6381 6.76641C12.8448 6.40744 13.3033 6.28398 13.6623 6.49066ZM18.4834 6.7025C18.8424 6.90914 18.9659 7.36767 18.7593 7.72666L10.9065 21.3696C10.6998 21.7286 10.2413 21.8521 9.88231 21.6455C9.52332 21.4389 9.39981 20.9803 9.60644 20.6213L17.4593 6.97837C17.6659 6.61938 18.1244 6.49587 18.4834 6.7025ZM20.7305 11.3621C21.0894 11.5688 21.2129 12.0273 21.0063 12.3863L15.835 21.3697C15.6283 21.7287 15.1698 21.8522 14.8108 21.6455C14.4518 21.4389 14.3283 20.9804 14.535 20.6214L19.7063 11.638C19.9129 11.279 20.3715 11.1555 20.7305 11.3621Z" fill="black"/>
</svg>
