<svg width="24" height="24" viewBox="0 0 24 24" fill="none" xmlns="http://www.w3.org/2000/svg">
<path fill-rule="evenodd" clip-rule="evenodd" d="M15.2023 2.32969C15.5725 2.51548 15.722 2.96621 15.5362 3.33642L13.0809 8.22883L13.1094 8.27987C13.702 8.36935 14.2697 8.53572 14.8018 8.7685L17.8586 2.6742C18.0444 2.30395 18.4951 2.15436 18.8653 2.34007C19.2355 2.52578 19.3851 2.97648 19.1994 3.34673L16.103 9.52001C17.7772 10.7529 18.8648 12.7376 18.8648 14.9764C18.8648 18.7175 15.8277 21.75 12.0912 21.75C8.35459 21.75 5.31754 18.7175 5.31754 14.9764C5.31754 12.672 6.4698 10.6369 8.228 9.41362L4.81793 3.38096C4.6141 3.02036 4.74118 2.56281 5.10177 2.35898C5.46236 2.15515 5.91991 2.28223 6.12374 2.64282L9.54678 8.69842C10.1218 8.465 10.736 8.3083 11.3766 8.24103L8.67293 3.37622C8.47171 3.01417 8.6021 2.55754 8.96416 2.35633C9.32621 2.15511 9.78283 2.2855 9.98405 2.64755L12.2014 6.63726L14.1956 2.66361C14.3814 2.2934 14.8321 2.1439 15.2023 2.32969ZM12.4609 9.71651C12.3387 9.70803 12.2154 9.70372 12.0912 9.70372C9.18223 9.70372 6.81754 12.0645 6.81754 14.9764C6.81754 17.8884 9.18239 20.25 12.0912 20.25C14.9999 20.25 17.3648 17.8884 17.3648 14.9764C17.3648 12.2696 15.3215 10.0391 12.6972 9.73824C12.6173 9.74361 12.5375 9.73608 12.4609 9.71651Z" fill="black"/>
<path fill-rule="evenodd" clip-rule="evenodd" d="M9.86719 13.9063C9.86719 12.7327 10.8524 11.8438 12.0046 11.8438C13.1501 11.8438 14.1314 12.7364 14.1314 13.9063C14.1314 14.4787 13.9276 15 13.4525 15.5561C13.4415 15.569 13.43 15.5815 13.4182 15.5936L12.7629 16.263H13.3639C13.7781 16.263 14.1139 16.5987 14.1139 17.013C14.1139 17.4272 13.7781 17.763 13.3639 17.763H10.9791C10.6772 17.763 10.4048 17.5819 10.2878 17.3036C10.1707 17.0253 10.232 16.704 10.4432 16.4883L12.3275 14.5635C12.6027 14.236 12.6314 14.0531 12.6314 13.9063C12.6314 13.6284 12.3867 13.3438 12.0046 13.3438C11.608 13.3438 11.3672 13.6321 11.3672 13.9063C11.3672 14.3205 11.0314 14.6563 10.6172 14.6563C10.203 14.6563 9.86719 14.3205 9.86719 13.9063Z" fill="black"/>
</svg>
