<svg width="24" height="24" viewBox="0 0 24 24" fill="none" xmlns="http://www.w3.org/2000/svg">
<path fill-rule="evenodd" clip-rule="evenodd" d="M15.2023 2.32969C15.5725 2.51548 15.722 2.96621 15.5362 3.33642L13.0809 8.22883L13.1094 8.27987C13.702 8.36935 14.2697 8.53572 14.8018 8.7685L17.8586 2.6742C18.0444 2.30395 18.4951 2.15436 18.8653 2.34007C19.2355 2.52578 19.3851 2.97648 19.1994 3.34673L16.103 9.52001C17.7772 10.7529 18.8648 12.7376 18.8648 14.9764C18.8648 18.7175 15.8277 21.75 12.0912 21.75C8.35459 21.75 5.31754 18.7175 5.31754 14.9764C5.31754 12.672 6.4698 10.6369 8.228 9.41362L4.81793 3.38096C4.6141 3.02036 4.74118 2.56281 5.10177 2.35898C5.46236 2.15515 5.91991 2.28223 6.12374 2.64282L9.54678 8.69842C10.1218 8.465 10.736 8.3083 11.3766 8.24103L8.67293 3.37622C8.47171 3.01417 8.6021 2.55754 8.96416 2.35633C9.32621 2.15511 9.78283 2.2855 9.98405 2.64755L12.2014 6.63726L14.1956 2.66361C14.3814 2.2934 14.8321 2.1439 15.2023 2.32969ZM12.4609 9.71651C12.3387 9.70803 12.2154 9.70372 12.0912 9.70372C9.18223 9.70372 6.81754 12.0645 6.81754 14.9764C6.81754 17.8884 9.18239 20.25 12.0912 20.25C14.9999 20.25 17.3648 17.8884 17.3648 14.9764C17.3648 12.2696 15.3215 10.0391 12.6972 9.73824C12.6173 9.74361 12.5375 9.73608 12.4609 9.71651Z" fill="black"/>
<path fill-rule="evenodd" clip-rule="evenodd" d="M10.2559 12.8164C10.2559 12.4022 10.5916 12.0664 11.0059 12.0664H13.4645C13.7534 12.0664 14.0166 12.2323 14.1412 12.4929C14.2658 12.7535 14.2296 13.0625 14.0483 13.2873L13.2999 14.215C13.8508 14.6061 14.2107 15.2491 14.2107 15.9766C14.2107 17.1689 13.2427 18.1345 12.0518 18.1345C11.4563 18.1345 10.9139 17.8925 10.5232 17.5003C10.2308 17.2068 10.2317 16.732 10.5252 16.4396C10.8186 16.1473 11.2935 16.1482 11.5858 16.4417C11.705 16.5613 11.8689 16.6345 12.0518 16.6345C12.4157 16.6345 12.7107 16.3391 12.7107 15.9766C12.7107 15.6128 12.4153 15.3177 12.0518 15.3177C11.7629 15.3177 11.4998 15.1519 11.3752 14.8913C11.2506 14.6307 11.2867 14.3217 11.468 14.0969L11.8959 13.5664H11.0059C10.5916 13.5664 10.2559 13.2306 10.2559 12.8164Z" fill="black"/>
</svg>
