<svg width="24" height="24" viewBox="0 0 24 24" fill="none" xmlns="http://www.w3.org/2000/svg">
<path d="M9.58372 18.3927C9.13446 18.4099 8.69639 18.2501 8.36372 17.9477C7.88572 17.5017 7.48371 16.5797 8.29271 14.7247C9.68249 11.9038 11.8741 9.55605 14.5927 7.97566C16.3927 7.04066 17.3367 7.37566 17.8137 7.82466C18.2907 8.27366 18.6917 9.19265 17.8837 11.0477C16.4936 13.8683 14.3021 16.216 11.5837 17.7967C10.9738 18.1511 10.2882 18.3554 9.58372 18.3927ZM9.38371 16.8527C9.43671 16.9007 9.87671 16.9916 10.8837 16.4656C13.2978 15.044 15.2487 12.9539 16.5007 10.4477C16.9567 9.40266 16.8367 8.97165 16.7817 8.92065C16.7267 8.86965 16.2887 8.78065 15.2817 9.30665C12.868 10.7286 10.917 12.8182 9.66371 15.3237C9.20871 16.3697 9.32871 16.8017 9.38371 16.8527Z" fill="black"/>
<path d="M5.93568 17.882C5.73556 17.8823 5.54341 17.8037 5.40079 17.6634C5.25818 17.523 5.17657 17.3321 5.17368 17.132C5.17236 17.0342 5.19046 16.937 5.22694 16.8462C5.26341 16.7554 5.31751 16.6727 5.38615 16.603C5.45478 16.5332 5.53657 16.4778 5.62678 16.4398C5.71698 16.4019 5.81383 16.3823 5.91169 16.382H5.93568C6.13459 16.382 6.32536 16.461 6.46601 16.6017C6.60666 16.7423 6.68568 16.9331 6.68568 17.132C6.68568 17.3309 6.60666 17.5217 6.46601 17.6623C6.32536 17.803 6.13459 17.882 5.93568 17.882ZM3.23569 7.625C3.03568 7.62528 2.84361 7.5467 2.70115 7.4063C2.55869 7.2659 2.47731 7.075 2.47468 6.875C2.47335 6.77715 2.49146 6.68001 2.52793 6.5892C2.5644 6.4984 2.61854 6.41573 2.68717 6.34598C2.75581 6.27623 2.83756 6.22078 2.92777 6.18285C3.01798 6.14492 3.11483 6.12526 3.21268 6.125H3.23569C3.43461 6.125 3.62538 6.20401 3.76603 6.34467C3.90668 6.48532 3.98569 6.67609 3.98569 6.875C3.98569 7.07391 3.90668 7.26468 3.76603 7.40533C3.62538 7.54599 3.43461 7.625 3.23569 7.625Z" fill="black"/>
<path d="M20.3127 21.2471C20.1892 21.2468 20.0662 21.2311 19.9467 21.2001L9.01467 18.3231C8.9194 18.2981 8.83 18.2546 8.75155 18.195C8.6731 18.1354 8.60714 18.061 8.55746 17.9759C8.50778 17.8909 8.47534 17.7969 8.462 17.6993C8.44865 17.6017 8.45465 17.5024 8.47967 17.4071C8.50468 17.3119 8.54824 17.2224 8.60781 17.144C8.66738 17.0655 8.74181 16.9996 8.82687 16.9499C8.91192 16.9003 9.00594 16.8678 9.10354 16.8545C9.20113 16.8411 9.30041 16.8471 9.39568 16.8721L20.2187 19.7211L16.7397 8.79814C16.6793 8.60851 16.6968 8.40267 16.7882 8.22592C16.8797 8.04917 17.0375 7.91597 17.2272 7.85563C17.4168 7.7953 17.6226 7.81276 17.7994 7.90419C17.9762 7.99561 18.1093 8.15351 18.1697 8.34314L21.6827 19.3771C21.7515 19.5926 21.7685 19.8213 21.7322 20.0446C21.6959 20.2678 21.6073 20.4793 21.4738 20.6619C21.3403 20.8445 21.1655 20.9929 20.9637 21.0951C20.7619 21.1974 20.5389 21.2505 20.3127 21.2501V21.2471Z" fill="black"/>
<path d="M15.3655 19.9703C15.2068 19.9704 15.0521 19.9201 14.9238 19.8266C14.7955 19.7332 14.7001 19.6015 14.6514 19.4504C14.6027 19.2993 14.6032 19.1367 14.6528 18.9859C14.7024 18.8351 14.7986 18.704 14.9275 18.6113C15.6824 18.0545 16.3829 17.4273 17.0195 16.7383C17.6887 16.0224 18.2884 15.2446 18.8105 14.4153C18.9179 14.2524 19.0847 14.1377 19.2753 14.0957C19.4659 14.0537 19.6654 14.0877 19.8313 14.1904C19.9973 14.2931 20.1167 14.4565 20.1642 14.6458C20.2116 14.8351 20.1834 15.0355 20.0855 15.2043C19.5118 16.1178 18.8522 16.9743 18.1155 17.7623C17.4118 18.5228 16.6373 19.2146 15.8025 19.8283C15.6756 19.9208 15.5226 19.9706 15.3655 19.9703Z" fill="black"/>
<path d="M3.0011 16.4112C2.85507 16.4114 2.71217 16.369 2.5899 16.2892C2.46764 16.2093 2.37134 16.0955 2.31284 15.9617C2.25433 15.8279 2.23615 15.68 2.26053 15.536C2.28491 15.392 2.35081 15.2583 2.4501 15.1512C2.95577 14.5744 3.57983 14.1133 4.27975 13.7994C4.97968 13.4855 5.73904 13.3262 6.5061 13.3322C6.70502 13.3467 6.89005 13.4395 7.02048 13.5904C7.15091 13.7413 7.21605 13.9378 7.2016 14.1367C7.18714 14.3356 7.09426 14.5206 6.94339 14.6511C6.79252 14.7815 6.59601 14.8467 6.39709 14.8322C5.85532 14.8446 5.32218 14.9706 4.83212 15.2019C4.34207 15.4332 3.906 15.7648 3.55209 16.1752C3.48127 16.2501 3.39583 16.3097 3.30106 16.3503C3.20628 16.3909 3.1042 16.4116 3.0011 16.4112Z" fill="black"/>
<path d="M8.38715 7.90717C8.00424 7.90717 7.62996 7.79362 7.31158 7.58089C6.99321 7.36816 6.74507 7.06579 6.59854 6.71204C6.45201 6.35828 6.41367 5.96901 6.48837 5.59346C6.56307 5.21791 6.74743 4.87296 7.01819 4.6022C7.28894 4.33145 7.63391 4.14706 8.00946 4.07236C8.38501 3.99766 8.77426 4.03599 9.12802 4.18253C9.48178 4.32906 9.78416 4.5772 9.99689 4.89557C10.2096 5.21394 10.3232 5.58826 10.3232 5.97116C10.3229 6.48454 10.1188 6.97682 9.75583 7.33983C9.39282 7.70284 8.90052 7.9069 8.38715 7.90717ZM8.38715 5.53616C8.30087 5.53616 8.21656 5.56176 8.14484 5.60971C8.07311 5.65766 8.01722 5.72582 7.98425 5.80554C7.95128 5.88527 7.94272 5.97298 7.95963 6.05759C7.97653 6.14219 8.01815 6.21987 8.07922 6.28081C8.1403 6.34174 8.21806 6.38319 8.3027 6.3999C8.38735 6.41661 8.47507 6.40783 8.55472 6.37468C8.63437 6.34153 8.70236 6.28548 8.75015 6.21365C8.79794 6.14182 8.82335 6.05744 8.82315 5.97116C8.82315 5.91395 8.81187 5.8573 8.78995 5.80446C8.76802 5.75162 8.7359 5.70361 8.6954 5.66321C8.6549 5.6228 8.60682 5.59079 8.55392 5.56898C8.50103 5.54718 8.44436 5.53603 8.38715 5.53616Z" fill="black"/>
<path d="M12.7314 13.4324C12.6312 13.4324 12.5319 13.4123 12.4395 13.3733C12.3471 13.3343 12.2634 13.2772 12.1934 13.2054C11.2055 12.2922 9.99684 11.6519 8.68637 11.3475C7.3759 11.0431 6.00876 11.0851 4.71945 11.4694C4.62365 11.5001 4.52265 11.5113 4.42245 11.5022C4.32225 11.4931 4.22493 11.4639 4.13623 11.4164C4.04753 11.3689 3.96927 11.3041 3.90616 11.2257C3.84304 11.1474 3.79634 11.0571 3.76883 10.9604C3.74131 10.8636 3.73355 10.7623 3.746 10.6624C3.75845 10.5626 3.79086 10.4663 3.84131 10.3792C3.89175 10.2922 3.95918 10.2162 4.03961 10.1557C4.12004 10.0953 4.2118 10.0516 4.30945 10.0274C5.85948 9.56971 7.50232 9.52581 9.07458 9.90001C10.6469 10.2742 12.0938 11.0535 13.2715 12.1604C13.3736 12.2664 13.4423 12.4002 13.4691 12.545C13.4958 12.6898 13.4794 12.8393 13.4218 12.9748C13.3643 13.1104 13.2682 13.226 13.1454 13.3074C13.0227 13.3887 12.8787 13.4322 12.7314 13.4324Z" fill="black"/>
<path d="M14.0559 9.91685C13.9328 9.91718 13.8116 9.88716 13.7029 9.82942C13.5942 9.77168 13.5015 9.68802 13.4329 9.58586C12.7383 8.64705 12.3481 7.51791 12.3148 6.35055C12.2816 5.18319 12.6069 4.03368 13.2469 3.05685C13.3641 2.89683 13.5399 2.78975 13.7358 2.75905C13.9318 2.72834 14.132 2.77651 14.2925 2.893C14.453 3.0095 14.5608 3.18484 14.5924 3.38066C14.624 3.57647 14.5767 3.77681 14.4609 3.93785C14.0058 4.66724 13.7828 5.51757 13.8214 6.37642C13.86 7.23526 14.1583 8.06218 14.6769 8.74785C14.7528 8.86061 14.7967 8.99192 14.8038 9.1277C14.8109 9.26348 14.781 9.39863 14.7172 9.5187C14.6534 9.63878 14.5582 9.73925 14.4417 9.80938C14.3252 9.87951 14.1918 9.91666 14.0559 9.91685Z" fill="black"/>
</svg>
