<svg width="24" height="24" viewBox="0 0 24 24" fill="none" xmlns="http://www.w3.org/2000/svg">
<path d="M9.43936 18.4489C8.98712 18.4663 8.54613 18.3055 8.21136 18.0009C7.26936 17.1229 7.58037 15.3309 9.06237 13.0849C9.11613 13.0016 9.18587 12.9298 9.26754 12.8737C9.34921 12.8175 9.44121 12.7781 9.5382 12.7577C9.6352 12.7374 9.73527 12.7364 9.83264 12.7549C9.93 12.7735 10.0227 12.8111 10.1055 12.8657C10.1882 12.9203 10.2593 12.9907 10.3146 13.0729C10.37 13.1551 10.4085 13.2475 10.4279 13.3447C10.4473 13.4419 10.4473 13.542 10.4278 13.6392C10.4083 13.7364 10.3698 13.8287 10.3144 13.9109C9.15036 15.6749 9.07137 16.7529 9.23437 16.9039C9.29137 16.9579 9.73435 17.0529 10.7664 16.5159C13.2125 15.0792 15.1887 12.9628 16.4544 10.4239C16.9174 9.36191 16.7924 8.9239 16.7354 8.8689C16.5354 8.6849 15.2354 8.9349 13.2804 10.5869C13.2058 10.6543 13.1184 10.706 13.0235 10.7389C12.9285 10.7719 12.8279 10.7854 12.7276 10.7787C12.6273 10.7721 12.5294 10.7453 12.4397 10.7C12.35 10.6547 12.2702 10.5918 12.2053 10.5152C12.1403 10.4385 12.0914 10.3495 12.0615 10.2535C12.0316 10.1576 12.0213 10.0566 12.0312 9.95656C12.0411 9.85654 12.071 9.75952 12.1191 9.67128C12.1673 9.58304 12.2326 9.50538 12.3114 9.4429C14.6884 7.4289 16.7254 6.8069 17.7604 7.7719C18.2414 8.2209 18.6454 9.1509 17.8294 11.0229C16.4251 13.8755 14.2089 16.2493 11.4594 17.8459C10.8437 18.2049 10.1511 18.4117 9.43936 18.4489Z" fill="black"/>
<path d="M20.2923 21.3384C20.1681 21.3383 20.0444 21.3221 19.9243 21.2904L8.86233 18.3794C8.76705 18.3544 8.67765 18.3109 8.5992 18.2513C8.52076 18.1917 8.45479 18.1173 8.40511 18.0322C8.35543 17.9472 8.323 17.8531 8.30965 17.7556C8.29631 17.658 8.30231 17.5587 8.32732 17.4634C8.35234 17.3681 8.39589 17.2787 8.45547 17.2003C8.51504 17.1218 8.58946 17.0559 8.67452 17.0062C8.75958 16.9565 8.8536 16.9241 8.95119 16.9107C9.04879 16.8974 9.14807 16.9034 9.24334 16.9284L20.3053 19.8394L16.6923 8.7454C16.632 8.55577 16.6495 8.34994 16.7409 8.17318C16.8323 7.99643 16.9902 7.86324 17.1798 7.8029C17.3695 7.74256 17.5753 7.76003 17.752 7.85145C17.9288 7.94288 18.062 8.10077 18.1223 8.2904L21.6773 19.4544C21.7462 19.671 21.763 19.9009 21.7264 20.1252C21.6898 20.3496 21.6008 20.5621 21.4667 20.7457C21.3326 20.9292 21.157 21.0785 20.9544 21.1815C20.7517 21.2845 20.5277 21.3382 20.3003 21.3384H20.2923Z" fill="black"/>
<path d="M5.83799 17.9317C5.63788 17.932 5.4457 17.8535 5.30308 17.7131C5.16046 17.5727 5.07889 17.3818 5.076 17.1817C5.07481 17.0838 5.093 16.9867 5.12958 16.8959C5.16616 16.8051 5.22038 16.7224 5.2891 16.6526C5.35781 16.5829 5.43968 16.5275 5.52994 16.4896C5.62021 16.4516 5.71708 16.432 5.81498 16.4317H5.83799C6.0369 16.4317 6.22767 16.5108 6.36832 16.6514C6.50898 16.7921 6.58799 16.9828 6.58799 17.1817C6.58799 17.3806 6.50898 17.5714 6.36832 17.7121C6.22767 17.8527 6.0369 17.9317 5.83799 17.9317ZM3.01499 7.55273C2.81497 7.55301 2.6229 7.47443 2.48044 7.33403C2.33799 7.19363 2.25661 7.00273 2.25397 6.80273C2.25265 6.70489 2.27076 6.60774 2.30723 6.51694C2.3437 6.42613 2.3978 6.34346 2.46644 6.27371C2.53507 6.20396 2.61686 6.14851 2.70707 6.11058C2.79728 6.07265 2.89412 6.05299 2.99198 6.05273H3.01499C3.2139 6.05273 3.40467 6.13176 3.54533 6.27242C3.68598 6.41307 3.76499 6.60382 3.76499 6.80273C3.76499 7.00165 3.68598 7.19242 3.54533 7.33307C3.40467 7.47372 3.2139 7.55273 3.01499 7.55273Z" fill="black"/>
<path d="M8.49102 7.83946C8.10535 7.83946 7.72832 7.7251 7.40765 7.51083C7.08697 7.29656 6.83704 6.99201 6.68945 6.63569C6.54186 6.27938 6.50325 5.88729 6.57849 5.50903C6.65373 5.13077 6.83947 4.78331 7.11218 4.5106C7.38489 4.23789 7.73233 4.05216 8.11059 3.97692C8.48885 3.90168 8.88095 3.94029 9.23727 4.08789C9.59359 4.23548 9.89812 4.48543 10.1124 4.8061C10.3267 5.12678 10.441 5.50379 10.441 5.88946C10.4405 6.40647 10.2349 6.90214 9.86929 7.26773C9.50371 7.63331 9.00803 7.83893 8.49102 7.83946ZM8.49102 5.43946C8.40202 5.43946 8.31503 5.46585 8.24102 5.5153C8.16702 5.56475 8.10934 5.63502 8.07528 5.71725C8.04122 5.79948 8.03231 5.88995 8.04968 5.97724C8.06704 6.06454 8.10988 6.14472 8.17282 6.20765C8.23575 6.27059 8.31593 6.31344 8.40322 6.33081C8.49052 6.34817 8.58101 6.33926 8.66323 6.3052C8.74546 6.27114 8.81575 6.21346 8.8652 6.13946C8.91465 6.06546 8.94104 5.97846 8.94104 5.88946C8.94104 5.77011 8.89362 5.65565 8.80923 5.57125C8.72484 5.48686 8.61037 5.43946 8.49102 5.43946Z" fill="black"/>
<path d="M3.13578 16.5551C2.99634 16.5554 2.85956 16.5169 2.74085 16.4437C2.62214 16.3706 2.5262 16.2657 2.46384 16.141C2.40148 16.0163 2.37517 15.8767 2.38788 15.7378C2.40059 15.5989 2.45181 15.4664 2.53577 15.3551C2.98733 14.7254 3.56957 14.2007 4.24268 13.8168C4.91579 13.433 5.66389 13.199 6.43577 13.1311C6.63468 13.1264 6.82729 13.201 6.97123 13.3384C7.11516 13.4757 7.19861 13.6646 7.20325 13.8636C7.20789 14.0625 7.13335 14.2551 6.99598 14.399C6.85861 14.5429 6.66968 14.6264 6.47077 14.6311C5.92464 14.6943 5.39812 14.8726 4.92585 15.154C4.45358 15.4355 4.04629 15.8138 3.73078 16.2641C3.66071 16.3551 3.57053 16.4287 3.46732 16.4792C3.36411 16.5297 3.25067 16.5556 3.13578 16.5551Z" fill="black"/>
<path d="M12.5374 13.4275C12.4371 13.4276 12.3379 13.4075 12.2454 13.3685C12.153 13.3295 12.0694 13.2724 11.9994 13.2005C10.999 12.2749 9.77466 11.626 8.44704 11.3177C7.11942 11.0094 5.73439 11.0525 4.42846 11.4425C4.33266 11.4733 4.23166 11.4844 4.13146 11.4753C4.03126 11.4662 3.9339 11.4371 3.84521 11.3896C3.75651 11.3421 3.67828 11.2772 3.61516 11.1989C3.55205 11.1205 3.50535 11.0303 3.47784 10.9335C3.45032 10.8367 3.44253 10.7354 3.45498 10.6356C3.46743 10.5357 3.49984 10.4394 3.55028 10.3524C3.60073 10.2653 3.66819 10.1893 3.74862 10.1289C3.82904 10.0684 3.92081 10.0248 4.01845 10.0005C5.58486 9.5361 7.2457 9.4907 8.83513 9.86885C10.4246 10.247 11.887 11.0355 13.0764 12.1555C13.1785 12.2615 13.2473 12.3952 13.274 12.5399C13.3008 12.6846 13.2845 12.834 13.227 12.9695C13.1696 13.105 13.0736 13.2207 12.951 13.3021C12.8284 13.3835 12.6846 13.4271 12.5374 13.4275Z" fill="black"/>
<path d="M13.965 9.87751C13.8419 9.87793 13.7207 9.84793 13.612 9.79019C13.5033 9.73244 13.4105 9.64873 13.342 9.5465C12.6408 8.59803 12.2469 7.45757 12.2133 6.27851C12.1797 5.09946 12.5079 3.9384 13.154 2.95152C13.2735 2.79793 13.4481 2.69681 13.6407 2.66952C13.8334 2.64223 14.0292 2.69091 14.1866 2.80528C14.3441 2.91964 14.4509 3.09074 14.4846 3.28242C14.5182 3.4741 14.4761 3.67135 14.367 3.83251C13.9062 4.57229 13.6805 5.43435 13.7196 6.305C13.7587 7.17566 14.0608 8.01401 14.586 8.70951C14.662 8.8222 14.706 8.95344 14.7131 9.0892C14.7203 9.22495 14.6903 9.3601 14.6265 9.48013C14.5627 9.60016 14.4674 9.70056 14.3509 9.77056C14.2343 9.84057 14.1009 9.87754 13.965 9.87751Z" fill="black"/>
</svg>
