<svg width="24" height="24" viewBox="0 0 24 24" fill="none" xmlns="http://www.w3.org/2000/svg">
<path d="M19.9132 12.0027C18.4909 12.9386 17.7641 13.5607 16.7197 14.6952M19.9132 12.0027C18.4909 11.0667 17.7641 10.4447 16.7197 9.31008M19.9132 12.0027L4.08241 12.0027M10.1447 20.1651C11.5344 20.2987 13.833 20.9977 13.833 20.9977C13.833 20.9977 13.7209 18.9535 14.0338 17.2198M4.08203 15.5731C7.99079 15.5732 11.1331 16.6595 13.5329 20.5328M10.1448 3.8351C11.5344 3.70146 13.833 3.00244 13.833 3.00244C13.833 3.00244 13.7209 5.04666 14.0338 6.78041M4.08203 8.4271C7.99079 8.427 11.1331 7.34072 13.5329 3.46741" stroke="black" stroke-width="1.5" stroke-linecap="square"/>
</svg>
