<svg width="24" height="24" viewBox="0 0 24 24" fill="none" xmlns="http://www.w3.org/2000/svg">
<path fill-rule="evenodd" clip-rule="evenodd" d="M14.56 7.76997C13.9498 8.38021 13.4551 8.87491 13.4551 8.87491L16.5803 12.0001L13.4551 15.1254C13.4551 15.1254 13.9498 15.6201 14.56 16.2303C15.1703 16.8405 15.665 17.3352 15.665 17.3352L21.0001 12.0001L15.665 6.66504C15.665 6.66504 15.1703 7.15974 14.56 7.76997Z" stroke="black" stroke-width="1.5" stroke-linecap="square"/>
<path fill-rule="evenodd" clip-rule="evenodd" d="M9.44004 7.76997C10.0503 8.38021 10.545 8.87491 10.545 8.87491L7.41974 12.0001L10.545 15.1254C10.545 15.1254 10.0503 15.6201 9.44004 16.2303C8.8298 16.8405 8.3351 17.3352 8.3351 17.3352L3 12.0001L8.3351 6.66504C8.3351 6.66504 8.8298 7.15974 9.44004 7.76997Z" stroke="black" stroke-width="1.5" stroke-linecap="square"/>
</svg>
