<svg width="24" height="24" viewBox="0 0 24 24" fill="none" xmlns="http://www.w3.org/2000/svg">
<path fill-rule="evenodd" clip-rule="evenodd" d="M19.8951 7.76997C20.5054 8.38021 21.0001 8.87491 21.0001 8.87491L17.8748 12.0001L21 15.1254C21 15.1254 20.5054 15.6201 19.8951 16.2303C19.2849 16.8405 18.7902 17.3352 18.7902 17.3352L13.4551 12.0001L18.7902 6.66504C18.7902 6.66504 19.2849 7.15974 19.8951 7.76997Z" stroke="black" stroke-width="1.5" stroke-linecap="square"/>
<path fill-rule="evenodd" clip-rule="evenodd" d="M4.10494 7.76997C3.4947 8.38021 3 8.87491 3 8.87491L6.12523 12.0001L3 15.1254C3 15.1254 3.4947 15.6201 4.10494 16.2303C4.71518 16.8405 5.20987 17.3352 5.20987 17.3352L10.545 12.0001L5.20987 6.66504C5.20987 6.66504 4.71517 7.15974 4.10494 7.76997Z" stroke="black" stroke-width="1.5" stroke-linecap="square"/>
</svg>
