<svg width="24" height="24" viewBox="0 0 24 24" fill="none" xmlns="http://www.w3.org/2000/svg">
<path d="M20.406 21C20.406 21 20.406 20.144 20.406 19.088C20.406 18.032 20.406 17.1759 20.406 17.1759H15.6441C13.7295 17.1759 12.1774 17.1759 12.1774 17.1759V10.3201L14.233 12.3757C14.233 12.3757 14.8383 11.7704 15.585 11.0237C16.3317 10.277 16.9371 9.67165 16.9371 9.67165L10.2654 3L3.59375 9.67165C3.59375 9.67165 4.19907 10.277 4.94576 11.0237C5.69246 11.7704 6.29777 12.3757 6.29777 12.3757L8.35334 10.3201L8.35334 21C8.35334 21 11.6175 21 15.6441 21H20.406Z" stroke="black" stroke-width="1.5" stroke-linecap="square"/>
</svg>
