<svg width="24" height="24" viewBox="0 0 24 24" fill="none" xmlns="http://www.w3.org/2000/svg">
<path d="M3.59375 21C3.59375 21 3.59375 20.144 3.59375 19.088C3.59375 18.032 3.59375 17.1759 3.59375 17.1759H8.35565C10.2703 17.1759 11.8223 17.1759 11.8223 17.1759V10.3201L9.76671 12.3757C9.76671 12.3757 9.16139 11.7704 8.41469 11.0237C7.668 10.277 7.06268 9.67165 7.06268 9.67165L13.7343 3L20.406 9.67165C20.406 9.67165 19.8007 10.277 19.054 11.0237C18.3073 11.7704 17.702 12.3757 17.702 12.3757L15.6464 10.3201V21C15.6464 21 12.3822 21 8.35565 21H3.59375Z" stroke="black" stroke-width="1.5" stroke-linecap="square"/>
</svg>
