<svg width="25" height="24" viewBox="0 0 25 24" fill="none" xmlns="http://www.w3.org/2000/svg">
<path fill-rule="evenodd" clip-rule="evenodd" d="M20.1736 7.8487C19.3386 7.1107 18.1746 6.7317 16.6186 6.7317H13.9656C13.7956 6.7317 13.6246 6.7047 13.4596 6.6507C13.0486 6.5157 12.7016 6.1387 12.5316 5.6427L12.0646 4.2767C12.0336 4.1847 11.9846 4.1037 11.9446 4.0167H15.7336C18.3986 4.0167 19.9436 5.3807 20.1736 7.8487ZM21.7206 12.8547L21.7246 12.3667C21.7246 12.3417 21.7206 12.3227 21.7206 12.2977V8.4927C21.7206 4.8067 19.4266 2.5167 15.7336 2.5167H9.73561C9.71961 2.5167 9.70261 2.5127 9.68661 2.5127H7.81161C4.38861 2.5127 2.72461 4.4197 2.72461 8.3417V15.6537C2.72461 19.3057 4.90861 21.4867 8.56761 21.4867H15.8656C19.4536 21.4867 21.6086 19.3737 21.6836 15.8397C21.6986 15.7807 21.7206 15.7227 21.7206 15.6587V12.8547Z" fill="black"/>
</svg>