<svg width="25" height="24" viewBox="0 0 25 24" fill="none" xmlns="http://www.w3.org/2000/svg">
<path fill-rule="evenodd" clip-rule="evenodd" d="M2.72803 15.0219C2.72803 15.1875 2.86234 15.3219 3.02803 15.3219H8.14303C8.30871 15.3219 8.44303 15.1875 8.44303 15.0219V12.2019C8.44303 12.0362 8.30871 11.9019 8.14303 11.9019H3.02803C2.86234 11.9019 2.72803 12.0362 2.72803 12.2019V15.0219Z" fill="black"/>
<path fill-rule="evenodd" clip-rule="evenodd" d="M21.3786 10.4017C21.5502 10.4017 21.6873 10.258 21.6738 10.087C21.4208 6.88507 19.8093 5.3637 16.622 5.3637H13.97C13.456 5.3617 12.965 5.1167 12.657 4.7067L11.801 3.5687C11.305 2.9077 10.516 2.5127 9.69003 2.5127H7.81503C4.39203 2.5127 2.72803 4.4197 2.72803 8.3407V10.1017C2.72803 10.2674 2.86234 10.4017 3.02803 10.4017H21.3786Z" fill="black"/>
<path fill-rule="evenodd" clip-rule="evenodd" d="M16.301 11.9019C16.1353 11.9019 16.001 12.0362 16.001 12.2019V15.0219C16.001 15.1875 16.1353 15.3219 16.301 15.3219H21.4047C21.5697 15.3219 21.7038 15.1886 21.7047 15.0236L21.7212 12.2036C21.7222 12.0372 21.5876 11.9019 21.4212 11.9019H16.301Z" fill="black"/>
<path fill-rule="evenodd" clip-rule="evenodd" d="M9.94287 21.1868C9.94287 21.3525 10.0772 21.4868 10.2429 21.4868H14.2009C14.3666 21.4868 14.5009 21.3525 14.5009 21.1868V17.1218C14.5009 16.9561 14.3666 16.8218 14.2009 16.8218H10.2429C10.0772 16.8218 9.94287 16.9561 9.94287 17.1218V21.1868Z" fill="black"/>
<path fill-rule="evenodd" clip-rule="evenodd" d="M9.94287 15.0219C9.94287 15.1875 10.0772 15.3219 10.2429 15.3219H14.2009C14.3666 15.3219 14.5009 15.1875 14.5009 15.0219V12.2019C14.5009 12.0362 14.3666 11.9019 14.2009 11.9019H10.2429C10.0772 11.9019 9.94287 12.0362 9.94287 12.2019V15.0219Z" fill="black"/>
<path fill-rule="evenodd" clip-rule="evenodd" d="M16.301 16.8218C16.1353 16.8218 16.001 16.9561 16.001 17.1218V21.1721C16.001 21.3396 16.1383 21.4752 16.3056 21.4668C19.1704 21.3218 21.0447 19.7628 21.5529 17.164C21.5879 16.9846 21.4472 16.8218 21.2644 16.8218H16.301Z" fill="black"/>
<path fill-rule="evenodd" clip-rule="evenodd" d="M8.44285 17.1218C8.44285 16.9561 8.30853 16.8218 8.14285 16.8218H3.16568C2.98279 16.8218 2.84201 16.9847 2.87723 17.1642C3.38747 19.7642 5.26597 21.324 8.13842 21.467C8.30563 21.4753 8.44285 21.3397 8.44285 21.1723V17.1218Z" fill="black"/>
</svg>