<svg width="25" height="24" viewBox="0 0 25 24" fill="none" xmlns="http://www.w3.org/2000/svg">
<path d="M9.01953 9.00533V8.95377M8.97401 8.80078C8.85001 8.80078 8.74901 8.90178 8.75001 9.02578C8.75001 9.14978 8.85101 9.25078 8.97501 9.25078C9.09901 9.25078 9.20001 9.14978 9.20001 9.02578C9.20001 8.90078 9.09901 8.80078 8.97401 8.80078Z" stroke="black" stroke-width="1.5" stroke-linecap="round" stroke-linejoin="round"/>
<path d="M15.4807 9.00533V8.95377M15.474 8.80078C15.35 8.80078 15.249 8.90178 15.25 9.02578C15.25 9.14978 15.351 9.25078 15.475 9.25078C15.599 9.25078 15.7 9.14978 15.7 9.02578C15.7 8.90078 15.599 8.80078 15.474 8.80078Z" stroke="black" stroke-width="1.5" stroke-linecap="round" stroke-linejoin="round"/>
<path d="M8.48926 13.3164H16.0094" stroke="black" stroke-width="1.5" stroke-linecap="round" stroke-linejoin="round"/>
<path d="M14.1055 13.3164V14.7953C14.1055 15.8199 13.2745 16.6498 12.25 16.6498C11.2255 16.6498 10.3955 15.8199 10.3955 14.7953V13.3164" stroke="black" stroke-width="1.5" stroke-linecap="round" stroke-linejoin="round"/>
<path d="M12.2495 3.00188H8.03216C5.09281 3.00188 3.25 5.08307 3.25 8.02826V15.9755C3.25 18.9207 5.08405 21.0019 8.03216 21.0019H16.4659C19.415 21.0019 21.25 18.9207 21.25 15.9755V8.02826C21.25 5.08307 19.415 3.00188 16.4669 3.00188L16.051 3" stroke="black" stroke-width="1.5" stroke-linecap="round" stroke-linejoin="round"/>
</svg>