<svg width="25" height="24" viewBox="0 0 25 24" fill="none" xmlns="http://www.w3.org/2000/svg">
<path d="M9.01953 9.00533V8.95377M8.97401 8.80078C8.85001 8.80078 8.74901 8.90178 8.75001 9.02578C8.75001 9.14978 8.85101 9.25078 8.97501 9.25078C9.09901 9.25078 9.20001 9.14978 9.20001 9.02578C9.20001 8.90078 9.09901 8.80078 8.97401 8.80078Z" stroke="black" stroke-width="1.5" stroke-linecap="round" stroke-linejoin="round"/>
<path d="M15.4807 9.00533V8.95377M15.474 8.80078C15.35 8.80078 15.249 8.90178 15.25 9.02578C15.25 9.14978 15.351 9.25078 15.475 9.25078C15.599 9.25078 15.7 9.14978 15.7 9.02578C15.7 8.90078 15.599 8.80078 15.474 8.80078Z" stroke="black" stroke-width="1.5" stroke-linecap="round" stroke-linejoin="round"/>
<path fill-rule="evenodd" clip-rule="evenodd" d="M12.2501 16.7994C13.2289 16.7994 14.0218 16.0026 14.0218 15.0276C14.0218 14.0527 13.2289 13.2559 12.2501 13.2559C11.2712 13.2559 10.4783 14.0527 10.4783 15.0276C10.4783 16.0026 11.2712 16.7994 12.2501 16.7994Z" stroke="black" stroke-width="1.5" stroke-linecap="round" stroke-linejoin="round"/>
<path d="M12.25 3C17.2209 3 21.25 7.02908 21.25 12C21.25 16.9699 17.2209 21 12.25 21C7.27908 21 3.25 16.9699 3.25 12C3.25 8.26027 5.53041 5.05361 8.77667 3.69458" stroke="black" stroke-width="1.5" stroke-linecap="round" stroke-linejoin="round"/>
</svg>