<svg width="25" height="24" viewBox="0 0 25 24" fill="none" xmlns="http://www.w3.org/2000/svg">
<path d="M9.37109 14.2871C10.0726 15.1998 11.1049 15.7689 12.2511 15.7689" stroke="black" stroke-width="1.5" stroke-linecap="round" stroke-linejoin="round"/>
<path d="M8.36963 9.47938C8.63428 9.13495 9.02444 8.91992 9.45741 8.91992C9.89039 8.91992 10.2805 9.13495 10.5452 9.47938" stroke="black" stroke-width="1.5" stroke-linecap="round" stroke-linejoin="round"/>
<path d="M13.8369 9.47938C14.1016 9.13495 14.4917 8.91992 14.9247 8.91992C15.3577 8.91992 15.7478 9.13495 16.0125 9.47938" stroke="black" stroke-width="1.5" stroke-linecap="round" stroke-linejoin="round"/>
<path d="M12.25 3C7.27908 3 3.25 7.02908 3.25 12C3.25 16.9699 7.27908 21 12.25 21C17.2209 21 21.25 16.9699 21.25 12C21.25 8.26027 18.9696 5.05361 15.7233 3.69458" stroke="black" stroke-width="1.5" stroke-linecap="round" stroke-linejoin="round"/>
</svg>