<svg width="25" height="24" viewBox="0 0 25 24" fill="none" xmlns="http://www.w3.org/2000/svg">
<path d="M12.2503 16.8011C10.2538 16.8011 8.63574 15.0604 8.63574 12.9141H15.8649C15.8649 14.1142 15.359 15.1876 14.5639 15.9006" stroke="black" stroke-width="1.5" stroke-linecap="round" stroke-linejoin="round"/>
<path d="M8.63574 8.49805H10.2275" stroke="black" stroke-width="1.5" stroke-linecap="round" stroke-linejoin="round"/>
<path d="M15.2805 8.50533V8.45377M15.2738 8.30078C15.1498 8.30078 15.0488 8.40178 15.0498 8.52578C15.0498 8.64978 15.1508 8.75078 15.2748 8.75078C15.3988 8.75078 15.4998 8.64978 15.4998 8.52578C15.4998 8.40078 15.3988 8.30078 15.2738 8.30078Z" stroke="black" stroke-width="1.5" stroke-linecap="round" stroke-linejoin="round"/>
<path d="M12.2495 3.00188H8.03216C5.09281 3.00188 3.25 5.08307 3.25 8.02826V15.9755C3.25 18.9207 5.08405 21.0019 8.03216 21.0019H16.4659C19.415 21.0019 21.25 18.9207 21.25 15.9755V8.02826C21.25 5.08307 19.415 3.00188 16.4669 3.00188L16.051 3" stroke="black" stroke-width="1.5" stroke-linecap="round" stroke-linejoin="round"/>
</svg>