<svg width="24" height="24" viewBox="0 0 24 24" fill="none" xmlns="http://www.w3.org/2000/svg">
<path fill-rule="evenodd" clip-rule="evenodd" d="M17.1074 2.25H15.8494C15.4354 2.25 15.0994 2.586 15.0994 3C15.0994 3.414 15.4354 3.75 15.8494 3.75H17.1074C18.8394 3.75 20.2504 5.16 20.2504 6.892V8.469C20.2504 8.883 20.5864 9.219 21.0004 9.219C21.4144 9.219 21.7504 8.883 21.7504 8.469V6.892C21.7504 4.333 19.6674 2.25 17.1074 2.25Z" fill="black"/>
<path fill-rule="evenodd" clip-rule="evenodd" d="M8.18151 2.25H6.89251C4.33251 2.25 2.24951 4.333 2.24951 6.892V8.469C2.24951 8.883 2.58551 9.219 2.99951 9.219C3.41351 9.219 3.74951 8.883 3.74951 8.469V6.892C3.74951 5.16 5.16051 3.75 6.89251 3.75H8.18151C8.59551 3.75 8.93151 3.414 8.93151 3C8.93151 2.586 8.59551 2.25 8.18151 2.25Z" fill="black"/>
<path fill-rule="evenodd" clip-rule="evenodd" d="M8.15024 20.25H6.89224C5.16024 20.25 3.75024 18.84 3.75024 17.108V15.531C3.75024 15.117 3.41424 14.781 3.00024 14.781C2.58624 14.781 2.25024 15.117 2.25024 15.531V17.108C2.25024 19.667 4.33324 21.75 6.89224 21.75H8.15024C8.56424 21.75 8.90024 21.414 8.90024 21C8.90024 20.586 8.56424 20.25 8.15024 20.25Z" fill="black"/>
<path fill-rule="evenodd" clip-rule="evenodd" d="M20.9999 14.7812C20.5859 14.7812 20.2499 15.1172 20.2499 15.5312V17.1082C20.2499 18.8402 18.8409 20.2502 17.1079 20.2502H15.8179C15.4039 20.2502 15.0679 20.5862 15.0679 21.0002C15.0679 21.4142 15.4039 21.7502 15.8179 21.7502H17.1079C19.6679 21.7502 21.7499 19.6672 21.7499 17.1082V15.5312C21.7499 15.1172 21.4139 14.7812 20.9999 14.7812Z" fill="black"/>
<path fill-rule="evenodd" clip-rule="evenodd" d="M10.4033 7.26413C9.85032 7.26413 9.40332 7.71213 9.40332 8.26413V15.7341C9.40332 16.2861 9.85032 16.7341 10.4033 16.7341C10.9563 16.7341 11.4033 16.2861 11.4033 15.7341V8.26413C11.4033 7.71213 10.9563 7.26413 10.4033 7.26413Z" fill="black"/>
<path fill-rule="evenodd" clip-rule="evenodd" d="M16.7988 16.7339C17.3518 16.7339 17.7988 16.2859 17.7988 15.7339V8.26392C17.7988 7.71192 17.3518 7.26392 16.7988 7.26392C16.2458 7.26392 15.7988 7.71192 15.7988 8.26392V15.7339C15.7988 16.2859 16.2458 16.7339 16.7988 16.7339Z" fill="black"/>
<path fill-rule="evenodd" clip-rule="evenodd" d="M8.20312 14.5058V8.26382C8.20312 7.71182 7.75612 7.26382 7.20312 7.26382C6.65013 7.26382 6.20312 7.71182 6.20312 8.26382V14.5058C6.20312 15.0578 6.65013 15.5058 7.20312 15.5058C7.75612 15.5058 8.20312 15.0578 8.20312 14.5058Z" fill="black"/>
<path fill-rule="evenodd" clip-rule="evenodd" d="M13.5995 7.26413C13.0465 7.26413 12.5995 7.71213 12.5995 8.26413V12.4881C12.5995 13.0401 13.0465 13.4881 13.5995 13.4881C14.1525 13.4881 14.5995 13.0401 14.5995 12.4881V8.26413C14.5995 7.71213 14.1525 7.26413 13.5995 7.26413Z" fill="black"/>
</svg>