<svg width="24" height="24" viewBox="0 0 24 24" fill="none" xmlns="http://www.w3.org/2000/svg">
<path fill-rule="evenodd" clip-rule="evenodd" d="M11.4428 13.15C9.05585 13.15 7.11385 11.208 7.11385 8.82C7.11385 8.406 7.44985 8.07 7.86385 8.07C8.27785 8.07 8.61385 8.406 8.61385 8.82C8.61385 10.38 9.88285 11.65 11.4428 11.65C13.0038 11.65 14.2728 10.38 14.2728 8.82C14.2728 8.406 14.6088 8.07 15.0228 8.07C15.4368 8.07 15.7728 8.406 15.7728 8.82C15.7728 11.208 13.8308 13.15 11.4428 13.15ZM20.3989 13.06C20.692 13.0636 20.9438 12.8349 20.9438 12.5417V8.026C20.9438 4.721 18.8208 2.5 15.6608 2.5H7.22485C4.06585 2.5 1.94385 4.721 1.94385 8.026V15.974C1.94385 19.279 4.06585 21.5 7.22485 21.5H12.0637C12.3583 21.5 12.5875 21.2459 12.5819 20.9514C12.5012 16.6995 16.1219 13.0066 20.3989 13.06Z" fill="black"/>
<path fill-rule="evenodd" clip-rule="evenodd" d="M21.3061 18.213H16.5151C16.1011 18.213 15.7651 18.549 15.7651 18.963C15.7651 19.377 16.1011 19.713 16.5151 19.713H21.3061C21.7201 19.713 22.0561 19.377 22.0561 18.963C22.0561 18.549 21.7201 18.213 21.3061 18.213Z" fill="black"/>
</svg>