<svg width="25" height="24" viewBox="0 0 25 24" fill="none" xmlns="http://www.w3.org/2000/svg">
<path fill-rule="evenodd" clip-rule="evenodd" d="M16.1816 12.6021H9.74765C9.33365 12.6021 8.99765 12.2661 8.99765 11.8521C8.99765 11.4381 9.33365 11.1021 9.74765 11.1021H16.1816C16.5956 11.1021 16.9316 11.4381 16.9316 11.8521C16.9316 12.2661 16.5956 12.6021 16.1816 12.6021ZM21.6016 8.55614C20.9716 7.81214 20.0466 7.40214 18.9966 7.40214H18.4136L16.3546 3.46014C16.1626 3.09414 15.7116 2.94914 15.3416 3.14314C14.9746 3.33414 14.8326 3.78714 15.0246 4.15414L16.7206 7.40214H9.20465L10.9026 4.15214C11.0936 3.78514 10.9526 3.33214 10.5846 3.14114C10.2146 2.94714 9.76365 3.09114 9.57265 3.45814L7.51265 7.40214H6.93165C5.88165 7.40214 4.95665 7.81214 4.32665 8.55714C3.58865 9.42814 3.31165 10.6811 3.54765 12.0871L4.52265 17.7241C4.92965 19.9491 6.56865 20.9451 8.01065 20.9451H17.9186C19.3616 20.9451 20.9986 19.9491 21.4066 17.7191L22.3826 12.0841C22.6176 10.6811 22.3396 9.42814 21.6016 8.55614Z" fill="black"/>
</svg>