<svg width="25" height="24" viewBox="0 0 25 24" fill="none" xmlns="http://www.w3.org/2000/svg">
<path fill-rule="evenodd" clip-rule="evenodd" d="M18.5521 12.9888L17.6041 16.6558C17.5161 16.9938 17.2111 17.2178 16.8781 17.2178C16.8161 17.2178 16.7521 17.2098 16.6901 17.1938C16.2881 17.0908 16.0471 16.6808 16.1511 16.2798L17.0991 12.6128C17.2031 12.2118 17.6171 11.9708 18.0131 12.0748C18.4141 12.1778 18.6561 12.5878 18.5521 12.9888ZM13.7671 16.4678C13.7671 16.8818 13.4311 17.2178 13.0171 17.2178C12.6031 17.2178 12.2671 16.8818 12.2671 16.4678V12.8008C12.2671 12.3868 12.6031 12.0508 13.0171 12.0508C13.4311 12.0508 13.7671 12.3868 13.7671 12.8008V16.4678ZM9.34506 17.1938C9.28206 17.2098 9.21906 17.2178 9.15706 17.2178C8.82306 17.2178 8.51906 16.9938 8.43106 16.6558L7.48306 12.9888C7.38006 12.5878 7.62006 12.1778 8.02106 12.0748C8.42106 11.9698 8.83106 12.2128 8.93506 12.6128L9.88406 16.2798C9.98706 16.6808 9.74606 17.0908 9.34506 17.1938ZM21.8201 9.52675C21.2201 8.75675 20.2401 8.37675 18.9201 8.37675H18.8501L15.0701 3.40675C14.8201 3.07675 14.3501 3.00675 14.0201 3.25675C13.6901 3.50675 13.6301 3.97675 13.8801 4.30675L16.9801 8.37675H8.95006L12.0501 4.30675C12.3001 3.97675 12.2401 3.50675 11.9101 3.25675C11.5801 3.00675 11.1101 3.06675 10.8601 3.40675L7.08006 8.37675H7.01006C5.69006 8.37675 4.71006 8.75675 4.10006 9.52675C3.45006 10.3468 3.30006 11.5368 3.65006 13.0568L4.61006 17.6968C5.02006 19.9068 6.65006 20.8968 8.09006 20.8968H17.8401C19.2801 20.8968 20.9101 19.9068 21.3101 17.7068L22.2801 13.0668C22.6301 11.5368 22.4801 10.3468 21.8201 9.52675Z" fill="black"/>
</svg>