<svg width="25" height="24" viewBox="0 0 25 24" fill="none" xmlns="http://www.w3.org/2000/svg">
<path fill-rule="evenodd" clip-rule="evenodd" d="M14.9277 16.336H10.9997C10.5857 16.336 10.2497 16 10.2497 15.586C10.2497 15.172 10.5857 14.836 10.9997 14.836H14.9277C15.3417 14.836 15.6777 15.172 15.6777 15.586C15.6777 16 15.3417 16.336 14.9277 16.336ZM4.01811 12.748C3.83198 12.748 3.69077 12.9158 3.7225 13.0992L4.52274 17.724C4.92974 19.949 6.56874 20.945 8.01074 20.945H17.9187C19.3617 20.945 20.9987 19.949 21.4067 17.719L22.2069 13.0992C22.2387 12.9158 22.0975 12.748 21.9113 12.748H4.01811Z" fill="black"/>
<path fill-rule="evenodd" clip-rule="evenodd" d="M22.1549 11.2481C22.3183 11.2481 22.4526 11.1173 22.447 10.9541C22.4148 10.0154 22.1341 9.18429 21.6021 8.55614C20.9721 7.81214 20.0471 7.40214 18.9971 7.40214H18.4081L16.3491 3.46014C16.1571 3.09414 15.7061 2.94914 15.3361 3.14314C14.9691 3.33414 14.8271 3.78714 15.0191 4.15414L16.7151 7.40214H9.20906L10.9061 4.15214C11.0981 3.78514 10.9561 3.33214 10.5891 3.14114C10.2191 2.94714 9.76806 3.09114 9.57606 3.45814L7.51606 7.40214H6.93206C5.88206 7.40214 4.95706 7.81214 4.32606 8.55714C3.7948 9.18449 3.51422 10.0149 3.48283 10.9543C3.47737 11.1175 3.61164 11.2481 3.7749 11.2481H22.1549Z" fill="black"/>
</svg>