<svg width="24" height="24" viewBox="0 0 24 24" fill="none" xmlns="http://www.w3.org/2000/svg">
<path fill-rule="evenodd" clip-rule="evenodd" d="M7.23442 21.5015C6.55542 21.5015 6.00342 20.9495 6.00342 20.2705C6.00342 19.5905 6.55542 19.0385 7.23442 19.0385C7.91342 19.0385 8.46542 19.5905 8.46542 20.2705C8.46542 20.9495 7.91342 21.5015 7.23442 21.5015Z" fill="black"/>
<path fill-rule="evenodd" clip-rule="evenodd" d="M18.2579 21.5015C17.5789 21.5015 17.0269 20.9495 17.0269 20.2705C17.0269 19.5905 17.5789 19.0385 18.2579 19.0385C18.9369 19.0385 19.4889 19.5905 19.4889 20.2705C19.4889 20.9495 18.9369 21.5015 18.2579 21.5015Z" fill="black"/>
<path fill-rule="evenodd" clip-rule="evenodd" d="M15.1096 7.73957H16.6196L16.0796 15.6196H14.5696L15.1096 7.73957ZM9.55957 7.73957H11.0696L11.6096 15.6196H10.0996L9.55957 7.73957ZM21.3396 7.06957C21.0096 6.62957 20.5296 6.33957 19.9896 6.25957C19.9196 6.24957 19.8696 6.24957 5.99957 6.23957L5.76957 3.52957C5.73957 3.18957 5.48957 2.91957 5.14957 2.85957L3.12957 2.50957C2.72957 2.43957 2.32957 2.70957 2.25957 3.11957C2.18957 3.52957 2.45957 3.90957 2.86957 3.98957L4.31957 4.23957L5.20957 14.8196C5.31957 16.1096 6.40957 17.1196 7.69957 17.1196H18.3296C19.5696 17.1196 20.6296 16.1896 20.7996 14.9696L21.7296 8.58957C21.8096 8.04957 21.6696 7.50957 21.3396 7.06957Z" fill="black"/>
</svg>