<svg width="24" height="24" viewBox="0 0 24 24" fill="none" xmlns="http://www.w3.org/2000/svg">
<path opacity="0.4" fill-rule="evenodd" clip-rule="evenodd" d="M16.97 2.6543H7.03C4.53 2.6543 2.5 4.6843 2.5 7.1843V12.6443C2.5 15.1443 4.53 17.1743 7.03 17.1743H16.97C19.47 17.1743 21.5 15.1443 21.5 12.6443V7.1843C21.5 4.6843 19.47 2.6543 16.97 2.6543Z" fill="black"/>
<path fill-rule="evenodd" clip-rule="evenodd" d="M18.01 10.3738C18.01 10.7938 17.68 11.1238 17.26 11.1238H15.1C14.83 11.1238 14.59 10.9838 14.45 10.7638L14.35 10.5938L13.13 13.3038C13.01 13.5738 12.74 13.7438 12.45 13.7438H12.41C12.1 13.7338 11.84 13.5238 11.74 13.2338L10.5 9.53383L10.14 10.6138C10.04 10.9238 9.74998 11.1238 9.42998 11.1238H6.72998C6.31998 11.1238 5.97998 10.7938 5.97998 10.3738C5.97998 9.96383 6.31998 9.62383 6.72998 9.62383H8.88998L9.78998 6.93383C9.88998 6.63383 10.18 6.42383 10.5 6.42383C10.82 6.42383 11.11 6.63383 11.21 6.93383L12.55 10.9438L13.58 8.66383C13.69 8.41383 13.94 8.24383 14.22 8.22383C14.51 8.20383 14.76 8.35383 14.9 8.59383L15.52 9.62383H17.26C17.68 9.62383 18.01 9.96383 18.01 10.3738Z" fill="black"/>
<path fill-rule="evenodd" clip-rule="evenodd" d="M16.9427 19.8458H15.3897L14.9597 17.1748H13.4297L13.8697 19.8448L10.1297 19.8458L10.5597 17.1748H9.03971L8.60971 19.8448L7.05371 19.8458C6.63971 19.8458 6.30371 20.1818 6.30371 20.5958C6.30371 21.0098 6.63971 21.3458 7.05371 21.3458H16.9427C17.3567 21.3458 17.6927 21.0098 17.6927 20.5958C17.6927 20.1818 17.3567 19.8458 16.9427 19.8458Z" fill="black"/>
<path fill-rule="evenodd" clip-rule="evenodd" d="M18.01 10.3738C18.01 10.7938 17.68 11.1238 17.26 11.1238H15.1C14.83 11.1238 14.59 10.9838 14.45 10.7638L14.35 10.5938L13.13 13.3038C13.01 13.5738 12.74 13.7438 12.45 13.7438H12.41C12.1 13.7338 11.84 13.5238 11.74 13.2338L10.5 9.53383L10.14 10.6138C10.04 10.9238 9.74998 11.1238 9.42998 11.1238H6.72998C6.31998 11.1238 5.97998 10.7938 5.97998 10.3738C5.97998 9.96383 6.31998 9.62383 6.72998 9.62383H8.88998L9.78998 6.93383C9.88998 6.63383 10.18 6.42383 10.5 6.42383C10.82 6.42383 11.11 6.63383 11.21 6.93383L12.55 10.9438L13.58 8.66383C13.69 8.41383 13.94 8.24383 14.22 8.22383C14.51 8.20383 14.76 8.35383 14.9 8.59383L15.52 9.62383H17.26C17.68 9.62383 18.01 9.96383 18.01 10.3738Z" fill="black"/>
</svg>