<svg width="24" height="24" viewBox="0 0 24 24" fill="none" xmlns="http://www.w3.org/2000/svg">
<path opacity="0.4" fill-rule="evenodd" clip-rule="evenodd" d="M18.8211 13.3001C18.8111 13.3101 18.8111 13.3201 18.8111 13.3301L18.7811 13.4501C18.6311 14.0501 18.4511 14.6101 18.2211 15.1201C17.0511 17.9101 14.8811 19.4201 11.9911 19.4201C9.10113 19.4201 6.93113 17.9001 5.75113 15.1101C5.53113 14.6001 5.34113 14.0501 5.19113 13.4501C5.19113 13.4201 5.16113 13.3101 5.15113 13.2801V13.2601C4.91113 12.3301 4.44113 10.1101 4.87113 8.75008C4.94113 8.55008 5.02113 8.37008 5.12113 8.22008C5.33113 7.92008 5.62113 7.71008 5.96113 7.64008C6.01113 7.62008 6.07113 7.61008 6.12113 7.60008C6.94113 7.49008 7.74113 6.87008 8.59113 6.21008C9.63113 5.41008 10.7111 4.58008 11.9911 4.58008C13.2711 4.58008 14.3411 5.41008 15.3811 6.21008C16.2311 6.87008 17.0411 7.49008 17.8611 7.60008C17.9211 7.61008 17.9711 7.62008 18.0311 7.64008C18.3611 7.71008 18.6411 7.92008 18.8511 8.22008C18.9611 8.38008 19.0411 8.56008 19.1011 8.77008C19.5211 10.1201 19.0711 12.3001 18.8211 13.3001Z" fill="black"/>
<path fill-rule="evenodd" clip-rule="evenodd" d="M5.75139 15.1105C4.58139 14.7705 3.37139 14.2305 2.36139 12.6405C2.14139 12.2905 2.25139 11.8205 2.60139 11.6005C2.95139 11.3805 3.41139 11.4905 3.63139 11.8405C4.11139 12.5905 4.63139 13.0105 5.15139 13.2705V13.2805C5.16139 13.3105 5.19139 13.4205 5.19139 13.4505C5.34139 14.0505 5.53139 14.6005 5.75139 15.1105Z" fill="black"/>
<path fill-rule="evenodd" clip-rule="evenodd" d="M5.96127 7.64047C5.62127 7.71047 5.33127 7.92047 5.12127 8.22047C5.02127 8.37047 4.94127 8.55047 4.87127 8.75047C3.87127 8.17047 3.16127 7.37047 2.67127 6.33047C2.50127 5.95047 2.66127 5.51047 3.04127 5.34047C3.41127 5.16047 3.86127 5.32047 4.04127 5.70047C4.44127 6.59047 5.04127 7.18047 5.96127 7.64047Z" fill="black"/>
<path fill-rule="evenodd" clip-rule="evenodd" d="M21.6313 12.6405C20.6213 14.2405 19.4013 14.7805 18.2213 15.1205C18.4513 14.6105 18.6313 14.0505 18.7813 13.4505L18.8113 13.3305C18.8113 13.3205 18.8113 13.3105 18.8213 13.3005C19.3613 13.0205 19.8913 12.6005 20.3713 11.8405C20.5913 11.4905 21.0513 11.3805 21.4013 11.6005C21.7513 11.8205 21.8613 12.2905 21.6313 12.6405Z" fill="black"/>
<path fill-rule="evenodd" clip-rule="evenodd" d="M21.3212 6.33053C20.8412 7.38053 20.1012 8.18053 19.1012 8.77053C19.0413 8.56053 18.9613 8.38053 18.8512 8.22053C18.6413 7.92053 18.3612 7.71053 18.0312 7.64053C18.9513 7.19053 19.5513 6.59053 19.9613 5.70053C20.1413 5.33053 20.5813 5.16053 20.9613 5.34053C21.3313 5.51053 21.5012 5.95053 21.3212 6.33053Z" fill="black"/>
<path fill-rule="evenodd" clip-rule="evenodd" d="M13.1612 14.2278C13.1262 14.2278 13.0902 14.2258 13.0552 14.2198C12.3512 14.1198 11.6342 14.1208 10.9212 14.2208C10.5102 14.2748 10.1322 13.9928 10.0742 13.5818C10.0162 13.1718 10.3032 12.7918 10.7132 12.7348C11.5642 12.6158 12.4242 12.6148 13.2652 12.7358C13.6762 12.7928 13.9612 13.1728 13.9032 13.5828C13.8492 13.9568 13.5282 14.2278 13.1612 14.2278Z" fill="black"/>
<path fill-rule="evenodd" clip-rule="evenodd" d="M14.3189 11.2376C14.2759 11.2376 14.2329 11.2336 14.1889 11.2256C12.7369 10.9716 11.2569 10.9706 9.78688 11.2266C9.37788 11.2936 8.99088 11.0236 8.91988 10.6156C8.84988 10.2076 9.12288 9.81963 9.53088 9.74863C11.1719 9.46563 12.8259 9.46463 14.4469 9.74963C14.8559 9.82063 15.1279 10.2096 15.0569 10.6176C14.9929 10.9816 14.6759 11.2376 14.3189 11.2376Z" fill="black"/>
</svg>