<svg width="24" height="24" viewBox="0 0 24 24" fill="none" xmlns="http://www.w3.org/2000/svg">
<path opacity="0.4" fill-rule="evenodd" clip-rule="evenodd" d="M18.4298 10.9999V18.8499C18.3898 20.4899 17.0498 21.8199 15.3998 21.8199H8.59982C6.94982 21.8199 5.60982 20.4899 5.56982 18.8499V10.9999C5.56982 10.1699 5.88982 9.39988 6.48982 8.81988L8.08982 7.26988C8.17982 7.17988 8.30982 7.12988 8.43982 7.12988H15.5598C15.6898 7.12988 15.8098 7.17988 15.9098 7.26988L17.5098 8.81988C18.0998 9.39988 18.4298 10.1699 18.4298 10.9999Z" fill="black"/>
<path fill-rule="evenodd" clip-rule="evenodd" d="M8.61121 6.13066H15.3882C15.6652 6.13066 15.8882 5.90666 15.8882 5.63066V3.74666C15.8882 2.88366 15.1852 2.18066 14.3202 2.18066H9.67921C8.81421 2.18066 8.11121 2.88366 8.11121 3.74666V5.63066C8.11121 5.90666 8.33521 6.13066 8.61121 6.13066Z" fill="black"/>
<path fill-rule="evenodd" clip-rule="evenodd" d="M5.57031 18.8501H18.4303V17.3501H5.57031V18.8501Z" fill="black"/>
<path fill-rule="evenodd" clip-rule="evenodd" d="M11.3293 12.6165L11.9993 11.9465L12.6723 12.6175C12.8503 12.7955 12.9493 13.0325 12.9493 13.2865C12.9493 13.5405 12.8503 13.7775 12.6683 13.9595C12.4903 14.1395 12.2533 14.2385 12.0013 14.2385C11.7493 14.2385 11.5113 14.1395 11.3283 13.9545C11.1493 13.7775 11.0513 13.5405 11.0513 13.2865C11.0513 13.0325 11.1493 12.7955 11.3293 12.6165ZM12.0003 15.7385C12.6563 15.7385 13.2723 15.4815 13.7313 15.0175C14.1943 14.5565 14.4493 13.9415 14.4493 13.2865C14.4493 12.6315 14.1943 12.0155 13.7313 11.5545L12.5283 10.3545C12.2353 10.0635 11.7613 10.0625 11.4683 10.3555L10.2683 11.5545C9.80633 12.0155 9.55033 12.6315 9.55133 13.2865C9.55133 13.9425 9.80633 14.5575 10.2663 15.0145C10.7293 15.4815 11.3453 15.7385 12.0003 15.7385Z" fill="black"/>
</svg>