<svg width="24" height="24" viewBox="0 0 24 24" fill="none" xmlns="http://www.w3.org/2000/svg">
<path fill-rule="evenodd" clip-rule="evenodd" d="M13.0824 13.1708C12.1324 14.4408 10.7924 15.2908 9.32237 15.5808C9.03237 15.6508 8.74237 15.6908 8.44237 15.7008C8.34237 15.7208 8.26237 15.7208 8.22237 15.7208C7.92237 15.7108 7.62238 15.6808 7.32237 15.6308C5.80237 15.3608 4.38237 14.5008 3.40237 13.2308C2.24237 11.7208 1.82237 9.83078 2.25237 8.05078C2.41237 7.40078 2.67237 6.82078 2.92237 6.25078C3.02237 6.02078 3.13237 5.79078 3.22237 5.55078C3.30237 5.37078 3.37237 5.20078 3.45237 5.05078C3.80237 5.60078 4.42237 5.97078 5.12237 5.97078C5.16237 5.97078 5.20237 5.97078 5.23237 5.96078C5.17237 6.07078 5.12237 6.18078 5.07237 6.30078C4.98237 6.55078 4.86237 6.81078 4.75237 7.07078C4.52237 7.57078 4.31237 8.05078 4.20237 8.52078C3.90237 9.71078 4.19237 10.9808 4.99237 12.0108C5.78237 13.0408 6.98237 13.6808 8.19237 13.7208C8.23237 13.7108 8.28237 13.7108 8.32237 13.7108C9.53237 13.6508 10.7124 13.0008 11.4924 11.9708C12.2624 10.9508 12.5324 9.69078 12.2524 8.53078C12.1224 8.02078 11.8924 7.51078 11.6524 6.97078C11.5524 6.75078 11.4524 6.53078 11.3524 6.31078C11.3024 6.18078 11.2524 6.07078 11.1924 5.96078C11.2524 5.97078 11.3224 5.97078 11.3824 5.97078C12.0624 5.97078 12.6624 5.63078 13.0124 5.11078C13.0724 5.24078 13.1424 5.38078 13.2024 5.54078C13.2824 5.74078 13.3824 5.94078 13.4724 6.15078C13.7424 6.75078 14.0224 7.36078 14.1924 8.04078C14.6224 9.80078 14.2224 11.6708 13.0824 13.1708Z" fill="black"/>
<path fill-rule="evenodd" clip-rule="evenodd" d="M18.6724 14.6007H18.6624C17.9724 14.5907 17.4224 14.0407 17.4224 13.3607C17.4224 12.6707 17.9824 12.1107 18.6724 12.1107C19.3524 12.1107 19.9124 12.6707 19.9124 13.3607C19.9124 14.0407 19.3524 14.6007 18.6724 14.6007ZM18.6724 10.1107C16.8724 10.1107 15.4224 11.5707 15.4224 13.3607C15.4224 14.7707 16.3324 15.9807 17.6124 16.4207C17.9424 16.5407 18.3024 16.6007 18.6724 16.6007C19.0024 16.6007 19.3324 16.5507 19.6324 16.4507C20.9524 16.0407 21.9124 14.8107 21.9124 13.3607C21.9124 11.5707 20.4624 10.1107 18.6724 10.1107Z" fill="black"/>
<g opacity="0.4">
<path fill-rule="evenodd" clip-rule="evenodd" d="M19.6326 16.45C19.3226 19.56 16.6926 22 13.4926 22C10.0926 22 7.32263 19.23 7.32263 15.83V15.63C7.62263 15.68 7.92263 15.71 8.22263 15.72C8.26263 15.72 8.34263 15.72 8.44263 15.7C8.74263 15.69 9.03263 15.65 9.32263 15.58V15.83C9.32263 18.13 11.1926 20 13.4926 20C15.5926 20 17.3326 18.44 17.6126 16.42C17.9426 16.54 18.3026 16.6 18.6726 16.6C19.0026 16.6 19.3326 16.55 19.6326 16.45Z" fill="black"/>
<path fill-rule="evenodd" clip-rule="evenodd" d="M13.3626 3.98C13.3626 4.4 13.2326 4.79 13.0126 5.11C12.6626 5.63 12.0626 5.97 11.3826 5.97C11.3226 5.97 11.2526 5.97 11.1926 5.96C10.1926 5.86 9.40259 5.01 9.40259 3.98C9.40259 2.89 10.2926 2 11.3826 2C12.4726 2 13.3626 2.89 13.3626 3.98Z" fill="black"/>
<path fill-rule="evenodd" clip-rule="evenodd" d="M7.11258 3.98C7.11258 5.04 6.28258 5.91 5.23258 5.96C5.20258 5.97 5.16258 5.97 5.12258 5.97C4.42258 5.97 3.80258 5.6 3.45258 5.05C3.25258 4.74 3.14258 4.37 3.14258 3.98C3.14258 2.89 4.03258 2 5.12258 2C6.22258 2 7.11258 2.89 7.11258 3.98Z" fill="black"/>
</g>
</svg>