<svg width="25" height="24" viewBox="0 0 25 24" fill="none" xmlns="http://www.w3.org/2000/svg">
<path fill-rule="evenodd" clip-rule="evenodd" d="M21.6474 16.7749L21.1133 10.4994C20.9888 9.03265 19.762 7.90625 18.2902 7.90625H6.70293C5.23018 7.90625 4.00338 9.03466 3.8799 10.5014L3.35183 16.7789C3.16109 19.0488 4.95209 20.9964 7.22999 20.9964H17.7692C20.0491 20.9964 21.8411 19.0468 21.6474 16.7749Z" stroke="black" stroke-width="1.5" stroke-linecap="round" stroke-linejoin="round"/>
<path opacity="0.4" d="M15.8156 12.0469C15.8156 13.879 14.3308 15.3638 12.4986 15.3638C10.6664 15.3638 9.18164 13.879 9.18164 12.0469" stroke="black" stroke-width="1.5" stroke-linecap="round" stroke-linejoin="round"/>
<path opacity="0.4" d="M8.63477 7.90819V6.86511C8.63477 4.72876 10.3645 3 12.4999 3C14.6352 3 16.365 4.72876 16.365 6.86511V7.90819" stroke="black" stroke-width="1.5" stroke-linecap="round" stroke-linejoin="round"/>
</svg>