<svg width="25" height="24" viewBox="0 0 25 24" fill="none" xmlns="http://www.w3.org/2000/svg">
<path d="M3.5 3.24609L5.52379 3.59636L6.46076 14.7593C6.53568 15.67 7.29849 16.3705 8.21211 16.3676H18.8263C19.699 16.3696 20.4395 15.7274 20.563 14.8634L21.4864 8.48264C21.5895 7.76945 21.0953 7.10783 20.3821 7.00469C20.3198 6.99593 5.84876 6.99107 5.84876 6.99107" stroke="black" stroke-width="1.5" stroke-linecap="round" stroke-linejoin="round"/>
<path opacity="0.4" d="M16.4199 7L15.7719 16.3697" stroke="black" stroke-width="1.5" stroke-linecap="round" stroke-linejoin="round"/>
<path opacity="0.4" d="M10.7601 7L11.4081 16.3697" stroke="black" stroke-width="1.5" stroke-linecap="round" stroke-linejoin="round"/>
<path opacity="0.4" d="M7.73825 20.2452V20.3633M8.21701 20.2706C8.21701 20.5365 8.00125 20.7521 7.73531 20.7521C7.46937 20.7521 7.25391 20.5365 7.25391 20.2706C7.25391 20.0046 7.46937 19.7891 7.73531 19.7891C8.00125 19.7891 8.21701 20.0046 8.21701 20.2706Z" stroke="black" stroke-width="1.5" stroke-linecap="round" stroke-linejoin="round"/>
<path opacity="0.4" d="M18.7617 20.2452V20.3633M19.2405 20.2706C19.2405 20.5365 19.0247 20.7521 18.7588 20.7521C18.4928 20.7521 18.2773 20.5365 18.2773 20.2706C18.2773 20.0046 18.4928 19.7891 18.7588 19.7891C19.0247 19.7891 19.2405 20.0046 19.2405 20.2706Z" stroke="black" stroke-width="1.5" stroke-linecap="round" stroke-linejoin="round"/>
</svg>