<svg width="25" height="24" viewBox="0 0 25 24" fill="none" xmlns="http://www.w3.org/2000/svg">
<path opacity="0.4" d="M20.5439 10.6544V7.73547C20.5439 4.94687 18.8061 2.97656 16.0146 2.97656H8.02831C5.24458 2.97656 3.5 4.94687 3.5 7.73547V15.2606C3.5 18.0492 5.23582 20.0205 8.02831 20.0205H11.4075" stroke="black" stroke-width="1.5" stroke-linecap="round" stroke-linejoin="round"/>
<path d="M15.4117 8.48438C15.4117 10.3564 13.8938 11.8733 12.0227 11.8733V11.8733C10.1507 11.8733 8.63281 10.3564 8.63281 8.48438" stroke="black" stroke-width="1.5" stroke-linecap="round" stroke-linejoin="round"/>
<path fill-rule="evenodd" clip-rule="evenodd" d="M21.5002 17.3224C21.5002 19.3666 19.8432 21.0236 17.7989 21.0236C15.7537 21.0236 14.0967 19.3666 14.0967 17.3224C14.0967 15.2781 15.7537 13.6211 17.7989 13.6211C19.8432 13.6211 21.5002 15.2781 21.5002 17.3224Z" stroke="black" stroke-width="1.5" stroke-linecap="round" stroke-linejoin="round"/>
<path d="M16.8311 17.3224H18.7673" stroke="black" stroke-width="1.5" stroke-linecap="round" stroke-linejoin="round"/>
</svg>