<svg width="24" height="24" viewBox="0 0 24 24" fill="none" xmlns="http://www.w3.org/2000/svg">
<path d="M8.3837 20.5044H5.3C4.30589 20.5044 3.5 19.6985 3.5 18.7044V17.8002C3.5 16.806 4.30589 16.0002 5.3 16.0002H8.3837C9.37782 16.0002 10.1837 16.806 10.1837 17.8002V18.7044C10.1837 19.6985 9.37782 20.5044 8.3837 20.5044Z" stroke="black" stroke-width="1.5"/>
<path d="M18.6999 20.5044H15.6162C14.622 20.5044 13.8162 19.6985 13.8162 18.7044V17.8002C13.8162 16.806 14.6221 16.0002 15.6162 16.0002H18.6999C19.694 16.0002 20.4999 16.806 20.4999 17.8002V18.7044C20.4999 19.6985 19.694 20.5044 18.6999 20.5044Z" stroke="black" stroke-width="1.5"/>
<path d="M13.6147 8H10.531C9.53684 8 8.73096 7.19411 8.73096 6.2V5.29576C8.73096 4.30165 9.53685 3.49576 10.531 3.49576H13.6147C14.6088 3.49576 15.4147 4.30165 15.4147 5.29576V6.2C15.4147 7.19411 14.6088 8 13.6147 8Z" stroke="black" stroke-width="1.5"/>
<path opacity="0.4" d="M12 11.0476V8M12 11.0476L6.7168 16M12 11.0476L17.2833 16" stroke="black" stroke-width="1.5" stroke-linecap="round"/>
</svg>
