<svg width="24" height="24" viewBox="0 0 24 24" fill="none" xmlns="http://www.w3.org/2000/svg">
<path opacity="0.4" d="M7.78313 3H16.2178C19.1659 3 21 5.08119 21 8.02638V15.9736C21 18.9188 19.1659 21 16.2169 21H7.78313C4.83503 21 3 18.9188 3 15.9736V8.02638C3 5.08119 4.84378 3 7.78313 3Z" stroke="black" stroke-width="1.5" stroke-linecap="round" stroke-linejoin="round"/>
<path d="M7.57227 17.1217L10.9456 14.6202L13.5055 16.8736L17.3127 13.5938" stroke="black" stroke-width="1.5" stroke-linecap="round" stroke-linejoin="round"/>
<path fill-rule="evenodd" clip-rule="evenodd" d="M13.8691 8.6921C13.8691 9.61156 14.6144 10.3569 15.5339 10.3569C16.4543 10.3569 17.1996 9.61156 17.1996 8.6921C17.1996 7.77264 16.4543 7.02734 15.5339 7.02734C14.6144 7.02734 13.8691 7.77264 13.8691 8.6921Z" stroke="black" stroke-width="1.5" stroke-linecap="round" stroke-linejoin="round"/>
<path d="M6.68945 7.58984H9.17345M6.68945 10.5914H10.6349" stroke="black" stroke-width="1.5" stroke-linecap="round" stroke-linejoin="round"/>
</svg>
