<svg width="24" height="24" viewBox="0 0 24 24" fill="none" xmlns="http://www.w3.org/2000/svg">
<path opacity="0.4" d="M12 3C14.0405 3 16.0204 3.69339 17.6151 4.96646C19.2098 6.23953 20.3245 8.0167 20.7764 10.0065C21.2284 11.9963 20.9908 14.0807 20.1026 15.9177C19.2143 17.7547 17.7282 19.2354 15.8879 20.1169C14.0477 20.9984 11.9625 21.2283 9.97432 20.7691C7.98617 20.3098 6.2131 19.1886 4.9459 17.5892C3.67869 15.9899 2.99257 14.0075 3.00006 11.967C3.00755 9.92648 3.7082 7.9491 4.98712 6.35913" stroke="black" stroke-width="1.5" stroke-linecap="round"/>
<path d="M12.0001 6.50009C13.064 6.50009 14.1051 6.80866 14.9972 7.3884C15.8892 7.96814 16.594 8.79417 17.0261 9.76638C17.4582 10.7386 17.599 11.8153 17.4315 12.8659C17.2641 13.9165 16.7955 14.8961 16.0825 15.6857C15.3696 16.4754 14.4429 17.0414 13.4148 17.315C12.3867 17.5887 11.3013 17.5583 10.2901 17.2275C9.27892 16.8967 8.38538 16.2798 7.71777 15.4514C7.05016 14.623 6.63713 13.6188 6.52874 12.5604" stroke="black" stroke-width="1.5" stroke-linecap="round"/>
<path opacity="0.4" d="M12 10C12.3869 10 12.7654 10.1122 13.0898 10.323C13.4142 10.5338 13.6705 10.8342 13.8276 11.1877C13.9848 11.5413 14.036 11.9328 13.9751 12.3148C13.9142 12.6969 13.7438 13.0531 13.4845 13.3402C13.2253 13.6274 12.8883 13.8332 12.5144 13.9327C12.1406 14.0322 11.7459 14.0212 11.3782 13.9009" stroke="black" stroke-width="1.5" stroke-linecap="round"/>
</svg>
