<svg width="24" height="24" viewBox="0 0 24 24" fill="none" xmlns="http://www.w3.org/2000/svg">
<path d="M8.29406 12.5294C8.29406 10.1903 10.1903 8.29406 12.5294 8.29406C14.8684 8.29406 16.7646 10.1903 16.7646 12.5294C16.7646 14.8684 14.8684 16.7646 12.5294 16.7646C10.1903 16.7646 8.29406 14.8684 8.29406 12.5294Z" stroke="black" stroke-width="1.5" stroke-linecap="round"/>
<path opacity="0.4" d="M7.82818 17.2305L9.50464 15.554" stroke="black" stroke-width="1.5" stroke-linecap="round"/>
<path d="M16.7647 6.7062C16.7647 5.82904 17.4758 5.11796 18.3529 5.11796C19.2301 5.11796 19.9412 5.82904 19.9412 6.7062C19.9412 7.58336 19.2301 8.29443 18.3529 8.29443C17.4758 8.29443 16.7647 7.58336 16.7647 6.7062Z" stroke="black" stroke-width="1.5" stroke-linecap="round"/>
<path d="M4.58831 18.6178C4.58831 17.5944 5.4179 16.7648 6.44125 16.7648C7.4646 16.7648 8.29419 17.5944 8.29419 18.6178C8.29419 19.6411 7.4646 20.4707 6.44125 20.4707C5.4179 20.4707 4.58831 19.6411 4.58831 18.6178Z" stroke="black" stroke-width="1.5" stroke-linecap="round"/>
<path d="M3.00007 5.64738C3.00007 4.18545 4.1852 3.00032 5.64713 3.00032C7.10906 3.00032 8.29419 4.18545 8.29419 5.64738C8.29419 7.10931 7.10906 8.29443 5.64713 8.29443C4.1852 8.29443 3.00007 7.10931 3.00007 5.64738Z" stroke="black" stroke-width="1.5" stroke-linecap="round"/>
<path d="M16.7647 18.8824C16.7647 17.7128 17.7128 16.7647 18.8824 16.7647C20.0519 16.7647 21 17.7128 21 18.8824C21 20.0519 20.0519 21 18.8824 21C17.7128 21 16.7647 20.0519 16.7647 18.8824Z" stroke="black" stroke-width="1.5" stroke-linecap="round"/>
<path opacity="0.4" d="M9.47217 9.47217L7.55833 7.55833" stroke="black" stroke-width="1.5" stroke-linecap="round"/>
<path opacity="0.4" d="M15.5871 9.47217L17.189 7.87028" stroke="black" stroke-width="1.5" stroke-linecap="round"/>
<path opacity="0.4" d="M17.2942 17.2944L15.6179 15.6181" stroke="black" stroke-width="1.5" stroke-linecap="round"/>
</svg>
