<svg width="24" height="24" viewBox="0 0 24 24" fill="none" xmlns="http://www.w3.org/2000/svg">
<path opacity="0.4" d="M7.78313 21H16.2178C19.1659 21 21 18.9198 21 15.9736V8.02735C21 5.08119 19.1659 3 16.2169 3H7.78313C4.83503 3 3 5.08119 3 8.02735V15.9736C3 18.9198 4.84378 21 7.78313 21Z" stroke="black" stroke-width="1.5" stroke-linecap="round" stroke-linejoin="round"/>
<path fill-rule="evenodd" clip-rule="evenodd" d="M16.6226 11.1399C16.6479 9.68438 14.8615 7.33952 12.683 7.37941C12.5128 7.38622 12.3766 7.52341 12.3707 7.69368C12.3629 8.44773 12.3649 9.71649 12.3678 10.5727C12.3688 11.0679 12.7677 11.4678 13.2639 11.4717C14.1814 11.4776 15.5815 11.4834 16.3424 11.4639C16.501 11.4377 16.6197 11.3015 16.6226 11.1399Z" stroke="black" stroke-width="1.5" stroke-linecap="round" stroke-linejoin="round"/>
<path d="M9.6286 8.03093C9.02097 8.394 8.50481 8.89176 8.11994 9.48582C7.73506 10.0799 7.49174 10.7544 7.40873 11.4574C7.32572 12.1603 7.40524 12.873 7.64116 13.5403C7.87707 14.2077 8.26309 14.812 8.76944 15.3066C9.2758 15.8012 9.88897 16.173 10.5617 16.3932C11.2344 16.6134 11.9487 16.6762 12.6495 16.5767C13.3504 16.4772 14.019 16.2181 14.6039 15.8194C15.1887 15.4207 15.6742 14.8931 16.023 14.2771" stroke="black" stroke-width="1.5" stroke-linecap="round" stroke-linejoin="round"/>
</svg>
