<svg width="24" height="24" viewBox="0 0 24 24" fill="none" xmlns="http://www.w3.org/2000/svg">
<path opacity="0.4" d="M4.43464 16.1625L19.533 16.1625" stroke="black" stroke-width="1.5"/>
<path opacity="0.4" d="M17.3502 12.3249L6.59766 12.3249" stroke="black" stroke-width="1.5"/>
<path opacity="0.4" d="M15.3292 8.48754L8.84131 8.48754" stroke="black" stroke-width="1.5"/>
<path fill-rule="evenodd" clip-rule="evenodd" d="M18.9584 20C19.663 20 20.0152 20 20.2441 19.904C20.7534 19.6905 21.0585 19.1647 20.9906 18.6171C20.9601 18.371 20.785 18.0657 20.4346 17.4551L13.4762 5.32761C13.1225 4.71124 12.9457 4.40305 12.7473 4.25205C12.3059 3.91598 11.6941 3.91598 11.2527 4.25205C11.0543 4.40305 10.8775 4.71124 10.5238 5.3276L3.5654 17.4551C3.21505 18.0657 3.03987 18.371 3.00939 18.6171C2.94155 19.1647 3.24657 19.6905 3.75589 19.904C3.98477 20 4.33703 20 5.04156 20H18.9584Z" stroke="black" stroke-width="1.5" stroke-linecap="round" stroke-linejoin="round"/>
</svg>
