<svg width="24" height="24" viewBox="0 0 24 24" fill="none" xmlns="http://www.w3.org/2000/svg">
<path d="M12 21C16.9706 21 21 16.9706 21 12C21 7.02944 16.9706 3 12 3C7.02944 3 3 7.02944 3 12C3 16.9706 7.02944 21 12 21Z" stroke="black" stroke-width="1.5"/>
<path opacity="0.4" d="M11.9999 2.99951V11.9995M11.9999 11.9995V20.9995M11.9999 11.9995H20.9999M11.9999 11.9995H2.99988" stroke="black" stroke-width="1.5"/>
<path d="M12 16.1539C14.2941 16.1539 16.1539 14.2941 16.1539 12C16.1539 9.70593 14.2941 7.84619 12 7.84619C9.70593 7.84619 7.84619 9.70593 7.84619 12C7.84619 14.2941 9.70593 16.1539 12 16.1539Z" stroke="black" stroke-width="1.5"/>
</svg>
