<svg width="24" height="24" viewBox="0 0 24 24" fill="none" xmlns="http://www.w3.org/2000/svg">
<path fill-rule="evenodd" clip-rule="evenodd" d="M6.0152 19H4.48376C3.66453 19 3 18.338 3 17.5209V12.4781C3 11.661 3.66453 11 4.48376 11H6.0152C6.83541 11 7.49994 11.661 7.49994 12.4781V17.5209C7.49994 18.338 6.83541 19 6.0152 19Z" stroke="black" stroke-width="1.5" stroke-linecap="round" stroke-linejoin="round"/>
<path opacity="0.4" d="M5.24988 20.9995V18.9995M5.24988 10.9995V8.99951" stroke="black" stroke-width="1.5" stroke-linecap="round" stroke-linejoin="round"/>
<path fill-rule="evenodd" clip-rule="evenodd" d="M12.7652 14.5H11.2338C10.4145 14.5 9.75 13.838 9.75 13.0209V11.9781C9.75 11.161 10.4145 10.5 11.2338 10.5H12.7652C13.5854 10.5 14.2499 11.161 14.2499 11.9781V13.0209C14.2499 13.838 13.5854 14.5 12.7652 14.5Z" stroke="black" stroke-width="1.5" stroke-linecap="round" stroke-linejoin="round"/>
<path opacity="0.4" d="M11.9999 16.9995V14.4995M11.9999 10.4995V4.99951" stroke="black" stroke-width="1.5" stroke-linecap="round" stroke-linejoin="round"/>
<path fill-rule="evenodd" clip-rule="evenodd" d="M19.5152 11.5H17.9838C17.1645 11.5 16.5 10.838 16.5 10.0209V6.97812C16.5 6.16103 17.1645 5.5 17.9838 5.5H19.5152C20.3354 5.5 20.9999 6.16103 20.9999 6.97812V10.0209C20.9999 10.838 20.3354 11.5 19.5152 11.5Z" stroke="black" stroke-width="1.5" stroke-linecap="round" stroke-linejoin="round"/>
<path opacity="0.4" d="M18.7499 13.9995V11.4995M18.7499 5.49951V2.99951" stroke="black" stroke-width="1.5" stroke-linecap="round" stroke-linejoin="round"/>
</svg>
