<svg width="24" height="24" viewBox="0 0 24 24" fill="none" xmlns="http://www.w3.org/2000/svg">
<path d="M20.4563 12.1412C20.0807 6.05248 15.6012 6.58177 14.4133 6.90187C12.805 7.33484 11.1957 7.33484 9.5874 6.90187C8.4004 6.58177 3.92092 6.05248 3.54438 12.1412C3.49768 17.9216 7.21047 20.7879 8.13186 20.8998C9.79172 21.2374 11.1986 20.3685 12.0003 20.3685C12.802 20.3685 14.2284 21.3006 15.8698 20.8998C16.5686 20.8229 18.923 19.1104 19.9596 15.7061" stroke="black" stroke-width="1.5" stroke-linecap="round" stroke-linejoin="round"/>
<path d="M8.33381 9.58911C7.46983 9.9997 6.83741 10.8627 6.70703 11.8104" stroke="black" stroke-width="1.5" stroke-linecap="round" stroke-linejoin="round"/>
<path d="M11.999 7.20414C11.999 5.33606 11.2051 3.46021 8.83203 3" stroke="black" stroke-width="1.5" stroke-linecap="round" stroke-linejoin="round"/>
</svg>