<svg width="24" height="24" viewBox="0 0 24 24" fill="none" xmlns="http://www.w3.org/2000/svg">
<path d="M14.423 21.0001C15.4359 21.0001 16.2804 20.2266 16.3699 19.2186L17.2971 8.71085C17.3973 7.56861 16.4974 6.58594 15.3503 6.58594H8.46571C7.33223 6.58594 6.43615 7.54818 6.51787 8.67874L7.27093 19.1865C7.34488 20.2081 8.19523 21.0001 9.21974 21.0001H11.3578" stroke="black" stroke-width="1.5" stroke-linecap="round" stroke-linejoin="round"/>
<path d="M16.9539 12.4085C16.2826 12.7899 15.4955 12.9806 14.7074 12.9806C13.8541 12.9806 12.9921 12.7568 12.2877 12.3015C12.1632 12.2266 12.0464 12.1439 11.9306 12.0524C11.2202 11.4822 10.31 11.1736 9.38574 11.1287" stroke="black" stroke-width="1.5" stroke-linecap="round" stroke-linejoin="round"/>
<path d="M11.5488 16.3359L13.7876 4.08172C13.9335 3.28487 14.7566 2.80716 15.5204 3.07472L17.4877 3.76551" stroke="black" stroke-width="1.5" stroke-linecap="round" stroke-linejoin="round"/>
</svg>