<svg width="24" height="24" viewBox="0 0 24 24" fill="none" xmlns="http://www.w3.org/2000/svg">
<path d="M4.32617 11.4748C4.32617 14.2793 6.60045 16.5527 9.40493 16.5527H11.5883C14.3928 16.5527 16.6662 14.2793 16.6662 11.4748V6.501C16.6662 5.1195 15.5467 4 14.1652 4H6.82718C5.44655 4 4.32617 5.1195 4.32617 6.501V8.42047" stroke="black" stroke-width="1.5" stroke-linecap="round" stroke-linejoin="round"/>
<path d="M4.98438 20H11.1787M14.2758 20H17.3729" stroke="black" stroke-width="1.5" stroke-linecap="round" stroke-linejoin="round"/>
<path d="M16.666 6.26147H18.0669C18.9535 6.26147 19.6725 6.98046 19.6725 7.86706V8.58163C19.6725 9.46823 18.9535 10.1863 18.0669 10.1863H16.666" stroke="black" stroke-width="1.5" stroke-linecap="round" stroke-linejoin="round"/>
<path fill-rule="evenodd" clip-rule="evenodd" d="M9.74997 10.2158H8.10557C7.74299 10.2158 7.44922 9.92202 7.44922 9.55944V7.81623C7.44922 7.56569 7.59302 7.33632 7.81886 7.22605L8.64105 6.82642C8.8219 6.7382 9.03363 6.7382 9.21448 6.82642L10.0367 7.22605C10.2625 7.33632 10.4063 7.56569 10.4063 7.81623V9.55944C10.4063 9.92202 10.1125 10.2158 9.74997 10.2158Z" stroke="black" stroke-width="1.5" stroke-linecap="round" stroke-linejoin="round"/>
<path d="M8.92578 6.68709V4.04053" stroke="black" stroke-width="1.5" stroke-linecap="round" stroke-linejoin="round"/>
</svg>