<svg width="24" height="24" viewBox="0 0 24 24" fill="none" xmlns="http://www.w3.org/2000/svg">
<path d="M13.6237 18.4696H10.3809L12.0021 16.7962L13.6237 18.4696Z" stroke="black" stroke-width="1.5" stroke-linecap="round" stroke-linejoin="round"/>
<path d="M11.7877 21.2501C10.6335 18.983 12.7508 18.4697 12.7508 18.4697" stroke="black" stroke-width="1.5" stroke-linecap="round" stroke-linejoin="round"/>
<path d="M18.6027 9.35309C18.6027 12.9999 15.6464 16.7962 11.9996 16.7962C8.35279 16.7962 5.39648 12.9999 5.39648 9.35309C5.39648 5.7063 8.35279 2.75 11.9996 2.75C15.6464 2.75 18.6027 5.7063 18.6027 9.35309Z" stroke="black" stroke-width="1.5" stroke-linecap="round" stroke-linejoin="round"/>
<path d="M8.875 9.28865C8.875 7.71077 10.1541 6.43164 11.732 6.43164" stroke="black" stroke-width="1.5" stroke-linecap="round" stroke-linejoin="round"/>
<path d="M19.4785 17.7532C18.5979 17.668 17.815 18.3128 17.7298 19.1934" stroke="black" stroke-width="1.5" stroke-linecap="round" stroke-linejoin="round"/>
<path d="M3.2734 14.086C2.99465 14.7092 3.27386 15.4403 3.89705 15.7191L4.02535 15.7765C4.57768 16.0235 4.82515 16.6716 4.57809 17.2239L4.5241 17.3446C4.30685 17.8303 4.52446 18.4001 5.01013 18.6173" stroke="black" stroke-width="1.5" stroke-linecap="round" stroke-linejoin="round"/>
<path d="M20.2854 3.85277C20.2944 3.84969 20.2924 3.84521 20.281 3.84277" stroke="black" stroke-width="1.5" stroke-linecap="round" stroke-linejoin="round"/>
<path d="M4.11194 2.77618C4.45432 3.56415 4.09309 4.48048 3.30512 4.82286" stroke="black" stroke-width="1.5" stroke-linecap="round" stroke-linejoin="round"/>
</svg>
