<svg width="24" height="24" viewBox="0 0 24 24" fill="none" xmlns="http://www.w3.org/2000/svg">
<path d="M16.2663 17.6742C16.2663 17.6742 17.853 18.4889 16.988 19.774C16.6285 20.3081 16.5516 20.676 16.62 20.9424" stroke="black" stroke-width="1.5" stroke-linecap="round" stroke-linejoin="round"/>
<path d="M13.7943 6.79391C14.6196 6.17726 15.6438 5.81213 16.7533 5.81213C19.4862 5.81213 21.7016 8.02758 21.7016 10.7605C21.7016 13.4934 19.4862 16.3383 16.7533 16.3383C14.6947 16.3383 12.9298 14.7242 12.1841 12.7596" stroke="black" stroke-width="1.5" stroke-linecap="round" stroke-linejoin="round"/>
<path d="M18.7775 10.9537C18.7775 9.89945 17.9229 9.04482 16.8687 9.04482" stroke="black" stroke-width="1.5" stroke-linecap="round" stroke-linejoin="round"/>
<path d="M18.0386 17.6746H15.4707L16.7545 16.3495L18.0386 17.6746Z" stroke="black" stroke-width="1.5" stroke-linecap="round" stroke-linejoin="round"/>
<path d="M9.93213 15.8096H7.27881L8.60533 14.4404L9.93213 15.8096Z" stroke="black" stroke-width="1.5" stroke-linecap="round" stroke-linejoin="round"/>
<path d="M9.21821 15.8101C9.21821 15.8101 7.48578 16.2301 8.4302 18.085C9.13398 19.4672 8.8458 20.4979 8.4302 21.0903" stroke="black" stroke-width="1.5" stroke-linecap="round" stroke-linejoin="round"/>
<path d="M14.0064 8.35088C14.0064 11.3347 11.5876 14.4408 8.60381 14.4408C5.62001 14.4408 3.20117 11.3347 3.20117 8.35088C3.20117 5.36709 5.62001 2.94824 8.60381 2.94824C11.5876 2.94824 14.0064 5.36709 14.0064 8.35088Z" stroke="black" stroke-width="1.5" stroke-linecap="round" stroke-linejoin="round"/>
<path d="M6.25879 8.54536C6.25879 7.25016 7.30876 6.2002 8.60395 6.2002" stroke="black" stroke-width="1.5" stroke-linecap="round" stroke-linejoin="round"/>
</svg>
