<svg width="24" height="24" viewBox="0 0 24 24" fill="none" xmlns="http://www.w3.org/2000/svg">
<path d="M3.92578 4.48294C3.92578 4.48294 11.3812 9.4226 20.1693 3.39575" stroke="black" stroke-width="1.5" stroke-linecap="round" stroke-linejoin="round"/>
<path d="M14.0887 12.5608C14.0887 13.7158 13.1524 15.6294 11.9975 15.6294C10.8425 15.6294 9.90625 13.7158 9.90625 12.5608C9.90625 11.4059 10.8425 10.3865 11.9975 10.3865C13.1524 10.3865 14.0887 11.4059 14.0887 12.5608Z" stroke="black" stroke-width="1.5" stroke-linecap="round" stroke-linejoin="round"/>
<path d="M7.28057 11.8164C7.00039 12.862 5.68853 14.3674 4.6429 14.0872C3.59728 13.807 3.21384 11.8474 3.49402 10.8018C3.77419 9.75616 4.86911 9.06044 5.91474 9.34062C6.96037 9.62079 7.56074 10.7708 7.28057 11.8164Z" stroke="black" stroke-width="1.5" stroke-linecap="round" stroke-linejoin="round"/>
<path d="M16.8547 11.0596C17.1264 12.0737 18.3988 13.5337 19.4129 13.262C20.4271 12.9903 20.7989 11.0897 20.5272 10.0755C20.2555 9.06138 19.1935 8.38661 18.1794 8.65835C17.1652 8.93009 16.5829 10.0454 16.8547 11.0596Z" stroke="black" stroke-width="1.5" stroke-linecap="round" stroke-linejoin="round"/>
<path d="M12.9968 10.6613V9.20326C12.9968 8.64645 12.5455 8.19507 11.9887 8.19507C11.4318 8.19507 10.9805 8.64645 10.9805 9.20326V10.6613" stroke="black" stroke-width="1.5" stroke-linecap="round" stroke-linejoin="round"/>
<path d="M11.9766 8.18303L11.9766 6.51685" stroke="black" stroke-width="1.5" stroke-linecap="round" stroke-linejoin="round"/>
<path d="M6.81131 9.8648L7.18868 8.4564C7.3328 7.91857 7.01362 7.36574 6.47579 7.22163C5.93795 7.07752 5.38513 7.39669 5.24102 7.93453L4.86364 9.34292" stroke="black" stroke-width="1.5" stroke-linecap="round" stroke-linejoin="round"/>
<path d="M17.2844 9.18316L16.907 7.77476C16.7629 7.23693 17.0821 6.6841 17.6199 6.53999C18.1577 6.39588 18.7106 6.71505 18.8547 7.25289L19.2321 8.66128" stroke="black" stroke-width="1.5" stroke-linecap="round" stroke-linejoin="round"/>
<path d="M6.46797 7.20698L6.83789 5.82642" stroke="black" stroke-width="1.5" stroke-linecap="round" stroke-linejoin="round"/>
<path d="M17.6258 6.52485L17.2559 5.14429" stroke="black" stroke-width="1.5" stroke-linecap="round" stroke-linejoin="round"/>
<path d="M19.2324 16.9434L20.2023 17.9133" stroke="black" stroke-width="1.5" stroke-linecap="round" stroke-linejoin="round"/>
<path d="M9.77246 3.38844L9.77953 3.39551" stroke="black" stroke-width="1.5" stroke-linecap="round" stroke-linejoin="round"/>
<path d="M3.92578 17.428L2.95589 18.3979" stroke="black" stroke-width="1.5" stroke-linecap="round" stroke-linejoin="round"/>
<path d="M15.8887 20.0823L15.8887 20.604" stroke="black" stroke-width="1.5" stroke-linecap="round" stroke-linejoin="round"/>
<path d="M7.45748 20.2035C7.77252 19.5978 8.51888 19.3622 9.12454 19.6773L9.24923 19.7421C9.78602 20.0213 10.4475 19.8125 10.7267 19.2757L10.7878 19.1584C11.0333 18.6864 11.6149 18.5028 12.0869 18.7483" stroke="black" stroke-width="1.5" stroke-linecap="round" stroke-linejoin="round"/>
</svg>
