<svg width="24" height="24" viewBox="0 0 24 24" fill="none" xmlns="http://www.w3.org/2000/svg">
<path d="M11.3247 8.83615C11.972 10.3104 13.7412 13.5717 15.6399 14.8229" stroke="black" stroke-width="1.5" stroke-linecap="round" stroke-linejoin="round"/>
<path d="M4.61253 12.2334C3.99004 12.2155 2.91645 12.5427 2.64473 13.8512C2.45171 14.7807 2.01766 18.5438 4.84477 19.0831C9.28703 19.9461 13.4988 19.6225 16.3259 19.0831C17.1269 18.9303 17.3452 18.5786 17.6671 18.1146" stroke="black" stroke-width="1.5" stroke-linecap="round" stroke-linejoin="round"/>
<path d="M18.873 12.3569L18.0485 8.88998C17.6353 7.07425 15.5589 3.65849 10.5588 4.52128C5.55876 5.38406 4.61776 11.173 4.77227 13.9596C7.24631 14.8603 12.6304 14.6708 14.2775 13.9596" stroke="black" stroke-width="1.5" stroke-linecap="round" stroke-linejoin="round"/>
<path d="M17.2934 12.9405C17.5595 12.9275 17.837 12.8126 18.0343 12.6336C18.4588 12.2484 19.1295 12.2484 19.554 12.6336C19.7513 12.8126 20.0289 12.9275 20.2949 12.9405C20.8675 12.9683 21.3417 13.4426 21.3695 14.0151C21.3825 14.2811 21.4975 14.5587 21.6764 14.756C22.0616 15.1805 22.0616 15.8512 21.6764 16.2757C21.4975 16.473 21.3825 16.7506 21.3695 17.0166C21.3417 17.5891 20.8675 18.0634 20.2949 18.0912C20.0289 18.1042 19.7513 18.2191 19.554 18.3981C19.1295 18.7833 18.4588 18.7833 18.0343 18.3981C17.837 18.2191 17.5595 18.1042 17.2934 18.0912C16.7209 18.0634 16.2466 17.5891 16.2188 17.0166C16.2059 16.7506 16.0909 16.473 15.9119 16.2757C15.5268 15.8512 15.5268 15.1805 15.9119 14.756C16.0909 14.5587 16.2059 14.2811 16.2188 14.0151C16.2466 13.4426 16.7209 12.9683 17.2934 12.9405Z" stroke="black" stroke-width="1.5" stroke-linecap="round" stroke-linejoin="round"/>
<path d="M8.20349 5.48291C9.02177 6.57394 9.69005 10.9704 5.17383 10.3282" stroke="black" stroke-width="1.5" stroke-linecap="round" stroke-linejoin="round"/>
<path d="M12.6017 4.45215C12.4315 5.67809 13.8332 9.46264 17.1369 6.96768" stroke="black" stroke-width="1.5" stroke-linecap="round" stroke-linejoin="round"/>
<path d="M6.54883 17.0362C6.92521 16.7234 7.47112 16.7232 7.84772 17.0358C8.22411 17.3482 8.76979 17.3481 9.14618 17.0357C9.5227 16.7231 10.0686 16.7231 10.4451 17.0356C10.8216 17.3482 11.3674 17.3482 11.7439 17.0356" stroke="black" stroke-width="1.5" stroke-linecap="round" stroke-linejoin="round"/>
</svg>
