<svg width="24" height="24" viewBox="0 0 24 24" fill="none" xmlns="http://www.w3.org/2000/svg">
<path d="M20.5526 4.908C20.5526 5.96175 17.4856 6.81599 13.7021 6.81599C9.91865 6.81599 6.85156 5.96175 6.85156 4.908C6.85156 3.85424 9.91865 3 13.7021 3C17.4856 3 20.5526 3.85424 20.5526 4.908Z" stroke="black" stroke-width="1.5"/>
<path d="M13.7031 10.7342V16.0129" stroke="black" stroke-width="1.5" stroke-linecap="round" stroke-linejoin="round"/>
<path d="M15.9893 12.0549L11.4177 14.6942" stroke="black" stroke-width="1.5" stroke-linecap="round" stroke-linejoin="round"/>
<path d="M15.9893 14.6939L11.4177 12.0545" stroke="black" stroke-width="1.5" stroke-linecap="round" stroke-linejoin="round"/>
<path d="M6.85156 4.9072V17.1181C6.85156 19.8736 9.91865 21 13.7021 21C17.4856 21 20.5526 19.7822 20.5526 17.1181L20.5527 4.9072" stroke="black" stroke-width="1.5"/>
<path d="M6.74296 15.7213C5.50446 15.7213 4.88521 15.7213 4.42502 15.4529C4.13135 15.2816 3.887 15.0372 3.7157 14.7436C3.44727 14.2834 3.44727 13.6641 3.44727 12.4256V10.9405C3.44727 9.70202 3.44727 9.08277 3.7157 8.62258C3.887 8.32891 4.13135 8.08455 4.42502 7.91326C4.88521 7.64482 5.50446 7.64482 6.74296 7.64482" stroke="black" stroke-width="1.5" stroke-linecap="round" stroke-linejoin="round"/>
</svg>
