<svg width="24" height="24" viewBox="0 0 24 24" fill="none" xmlns="http://www.w3.org/2000/svg">
<path d="M6.60435 4.33716H17.3849C19.7657 4.33716 21.25 6.10988 21.25 8.6145V15.3857C21.25 17.8903 19.7561 19.6631 17.3849 19.6631H6.60435C4.2235 19.6631 2.75 17.8903 2.75 15.3857V8.6145C2.75 6.10988 4.2235 4.33716 6.60435 4.33716Z" stroke="black" stroke-width="1.5" stroke-linecap="round" stroke-linejoin="round"/>
<path d="M6.05273 12H10.3047" stroke="black" stroke-width="1.5" stroke-linecap="round" stroke-linejoin="round"/>
<path d="M6.05273 15.0918H10.3047" stroke="black" stroke-width="1.5" stroke-linecap="round" stroke-linejoin="round"/>
<path d="M6.05273 8.9082H8.69922" stroke="black" stroke-width="1.5" stroke-linecap="round" stroke-linejoin="round"/>
<path d="M13.5298 13.5638H18.1138L16.9678 11.5789L18.5026 11.5789L15.8216 8.21616L13.1406 11.5789L14.6758 11.5789L13.5298 13.5638Z" stroke="black" stroke-width="1.5" stroke-linecap="round" stroke-linejoin="round"/>
<path d="M15.8887 13.5638L15.8887 15.3491" stroke="black" stroke-width="1.5" stroke-linecap="round" stroke-linejoin="round"/>
</svg>
