<svg width="24" height="24" viewBox="0 0 24 24" fill="none" xmlns="http://www.w3.org/2000/svg">
<path d="M6.60435 4.33704H17.3849C19.7657 4.33704 21.25 6.10976 21.25 8.61438V15.3856C21.25 17.8902 19.7561 19.6629 17.3849 19.6629H6.60435C4.2235 19.6629 2.75 17.8902 2.75 15.3856V8.61438C2.75 6.10976 4.2235 4.33704 6.60435 4.33704Z" stroke="black" stroke-width="1.5" stroke-linecap="round" stroke-linejoin="round"/>
<path d="M6.05273 11.9999H9.80469" stroke="black" stroke-width="1.5" stroke-linecap="round" stroke-linejoin="round"/>
<path d="M6.05273 8.90808H11.0391" stroke="black" stroke-width="1.5" stroke-linecap="round" stroke-linejoin="round"/>
<path d="M6.05273 15.0917H8.38801" stroke="black" stroke-width="1.5" stroke-linecap="round" stroke-linejoin="round"/>
<path d="M13.588 13.2873C13.0746 14.3817 12.4587 15.3382 11.7363 16.1531H18.5567C17.8348 15.3382 17.2184 14.3817 16.705 13.2873H18.0322C16.9339 11.9364 15.9886 10.3302 15.1467 8.56982C14.3044 10.3302 13.3595 11.9364 12.2607 13.2873H13.588Z" stroke="black" stroke-width="1.5" stroke-linecap="round" stroke-linejoin="round"/>
<path d="M15.1465 16.1528L15.1465 19.6629" stroke="black" stroke-width="1.5" stroke-linecap="round" stroke-linejoin="round"/>
</svg>
