<svg width="24" height="24" viewBox="0 0 24 24" fill="none" xmlns="http://www.w3.org/2000/svg">
<path d="M6.60435 19.6631H17.3849C19.7657 19.6631 21.25 17.8904 21.25 15.3857V8.61453C21.25 6.10991 19.7561 4.33719 17.3849 4.33719H6.60435C4.2235 4.33719 2.75 6.10991 2.75 8.61453V15.3857C2.75 17.8904 4.2235 19.6631 6.60435 19.6631Z" stroke="black" stroke-width="1.5" stroke-linecap="round" stroke-linejoin="round"/>
<path d="M14.0621 10.5781C14.0621 8.79116 15.3027 7.34384 16.8329 7.34384C17.4921 7.34384 18.0255 7.87722 18.0255 8.53646C18.0255 9.97479 16.2506 11.1414 14.0611 11.1414C11.8706 11.1414 10.0957 9.97479 10.0957 8.53646C10.0957 7.87722 10.6301 7.34384 11.2893 7.34384C12.8185 7.34384 14.0591 8.79116 14.0591 10.5781" stroke="black" stroke-width="1.5" stroke-linecap="round" stroke-linejoin="round"/>
<path d="M11.1172 14.3755L14.0603 11.1412L17.0024 14.3755" stroke="black" stroke-width="1.5" stroke-linecap="round" stroke-linejoin="round"/>
<path d="M21.2403 11.2215H2.76172" stroke="black" stroke-width="1.5" stroke-linecap="round" stroke-linejoin="round"/>
<path d="M14.0596 19.5443V4.33713" stroke="black" stroke-width="1.5" stroke-linecap="round" stroke-linejoin="round"/>
<path d="M6.24707 15.9595H7.96191" stroke="black" stroke-width="1.5" stroke-linecap="round" stroke-linejoin="round"/>
</svg>
