<svg width="24" height="24" viewBox="0 0 24 24" fill="none" xmlns="http://www.w3.org/2000/svg">
<path d="M6.60435 4.33716H17.3849C19.7657 4.33716 21.25 6.10988 21.25 8.6145V15.3857C21.25 17.8903 19.7561 19.6631 17.3849 19.6631H6.60435C4.2235 19.6631 2.75 17.8903 2.75 15.3857V8.6145C2.75 6.10988 4.2235 4.33716 6.60435 4.33716Z" stroke="black" stroke-width="1.5" stroke-linecap="round" stroke-linejoin="round"/>
<path d="M7.04155 14.6038L6.44922 15.1953" stroke="black" stroke-width="1.5" stroke-linecap="round" stroke-linejoin="round"/>
<path d="M5.9292 9.46191L5.9392 9.47191" stroke="black" stroke-width="1.5" stroke-linecap="round" stroke-linejoin="round"/>
<path d="M17.354 15.772L17.9315 15.1952" stroke="black" stroke-width="1.5" stroke-linecap="round" stroke-linejoin="round"/>
<path d="M10.6788 7.41513L9.98486 8.10881" stroke="black" stroke-width="1.5" stroke-linecap="round" stroke-linejoin="round"/>
<path d="M17.6435 9.47098L16.789 8.61642M16.789 8.61642L15.9344 7.76187M16.789 8.61642L15.9336 9.47182M16.789 8.61642L17.6427 7.76271" stroke="black" stroke-width="1.5" stroke-linecap="round" stroke-linejoin="round"/>
<path d="M12.4702 11.2095V16.1467M14.6068 12.4438L10.3311 14.9124M14.6068 14.9124L10.3311 12.4438" stroke="black" stroke-width="1.5" stroke-linecap="round" stroke-linejoin="round"/>
</svg>
