<svg width="24" height="24" viewBox="0 0 24 24" fill="none" xmlns="http://www.w3.org/2000/svg">
<path d="M6.65594 11.3152C7.35063 10.1593 8.09981 9.02192 8.82661 7.88453L6.8408 4.28459C6.8408 4.28459 6.99161 4.15324 7.37106 3.86038C8.50456 2.98277 9.7441 2.7551 11.0848 3.2766C12.3614 3.77378 13.6573 4.14935 15.0438 4.07054C15.4476 4.04719 16.9956 3.84189 16.9956 3.84189L15.1771 7.87675C15.9039 9.01511 16.6502 10.1593 17.3448 11.3152C18.4861 13.2144 19.5778 15.3335 18.6943 17.5392C17.665 20.1068 14.6624 20.9582 12.0004 21C9.33838 20.9582 6.33583 20.1068 5.30742 17.5392C4.423 15.3335 5.51466 13.2144 6.65594 11.3152Z" stroke="black" stroke-width="1.5" stroke-linecap="round" stroke-linejoin="round"/>
<path d="M8.82617 7.89453C10.9424 8.38101 13.0595 8.38101 15.1767 7.89453" stroke="black" stroke-width="1.5" stroke-linecap="round" stroke-linejoin="round"/>
<path d="M12 12.3236V17.0366" stroke="black" stroke-width="1.5" stroke-linecap="round" stroke-linejoin="round"/>
<path d="M14.041 13.5023L9.95944 15.8588" stroke="black" stroke-width="1.5" stroke-linecap="round" stroke-linejoin="round"/>
<path d="M14.041 15.8588L9.95944 13.5023" stroke="black" stroke-width="1.5" stroke-linecap="round" stroke-linejoin="round"/>
</svg>
