<svg width="24" height="24" viewBox="0 0 24 24" fill="none" xmlns="http://www.w3.org/2000/svg">
<path fill-rule="evenodd" clip-rule="evenodd" d="M4.87034 3.52274C5.11086 3.40575 5.39548 3.4257 5.61733 3.57509L8.3229 5.39701C8.54583 5.54713 8.67139 5.80506 8.65203 6.07313L8.49328 8.27136C8.47317 8.54988 8.29998 8.79416 8.04382 8.90534L6.00515 9.79013C5.77038 9.89202 5.49986 9.86717 5.28759 9.7242L2.58104 7.9013C2.35383 7.74827 2.22813 7.48355 2.25314 7.21075C2.27816 6.93796 2.44991 6.70051 2.70116 6.59135L4.32339 5.88657L4.45039 4.14271C4.46982 3.87596 4.62983 3.63974 4.87034 3.52274ZM5.85247 5.54183L5.78647 6.44811C5.76621 6.72635 5.59318 6.97036 5.33731 7.08152L4.55418 7.42175L5.7848 8.25059L7.0299 7.71021L7.12463 6.39849L5.85247 5.54183Z" fill="black"/>
<path fill-rule="evenodd" clip-rule="evenodd" d="M5.16485 11.2118C5.55917 11.085 5.98164 11.3018 6.10847 11.6961C6.7631 13.7315 8.53101 15.5857 10.234 16.9697C11.0725 17.6511 11.8688 18.1974 12.4553 18.5731C12.6876 18.722 12.8863 18.8436 13.0408 18.9358C13.0842 18.9098 13.131 18.8815 13.1811 18.8509C13.5026 18.6544 13.9568 18.3651 14.4821 17.9967C14.8213 17.7588 15.289 17.841 15.5268 18.1801C15.7646 18.5192 15.6825 18.9869 15.3434 19.2248C14.7881 19.6142 14.3069 19.9208 13.9632 20.1308C13.7913 20.2359 13.6534 20.317 13.5575 20.3724C13.5096 20.4001 13.4721 20.4213 13.446 20.436L13.4157 20.453L13.4071 20.4577L13.4034 20.4598C13.4034 20.4598 13.4032 20.4599 13.0421 19.8026C12.6834 20.4612 12.6832 20.4611 12.683 20.461L12.681 20.46L12.6765 20.4574L12.6607 20.4487L12.6034 20.4167C12.5542 20.3889 12.4833 20.3484 12.3933 20.2956C12.2134 20.1901 11.9572 20.0355 11.6461 19.8362C11.0248 19.4382 10.1805 18.8591 9.28805 18.1338C7.52915 16.7044 5.47327 14.6202 4.68051 12.1554C4.55368 11.7611 4.77053 11.3386 5.16485 11.2118ZM13.0421 19.8026L12.683 20.461C12.9075 20.5833 13.1794 20.5828 13.4034 20.4598L13.0421 19.8026Z" fill="black"/>
<path fill-rule="evenodd" clip-rule="evenodd" d="M17.3552 5.67596C16.0366 5.26157 14.5993 5.50429 13.4888 6.32905C13.2223 6.52699 12.8574 6.52617 12.5918 6.32704C11.9356 5.8351 11.1622 5.5495 10.3658 5.48555C9.95291 5.4524 9.64508 5.09082 9.67823 4.67794C9.71138 4.26505 10.073 3.95722 10.4858 3.99037C11.3841 4.06249 12.2616 4.34378 13.0435 4.82266C14.4671 3.95783 16.2028 3.74049 17.8081 4.24593L17.8127 4.24741L17.8127 4.24743C21.2638 5.35894 22.3892 9.07368 21.4036 12.1556C21.2774 12.5501 20.8553 12.7677 20.4608 12.6415C20.0663 12.5153 19.8487 12.0932 19.9749 11.6987C20.7856 9.16349 19.7954 6.46341 17.3552 5.67596Z" fill="black"/>
<path fill-rule="evenodd" clip-rule="evenodd" d="M7.14096 7.77477C7.38562 7.44054 7.85491 7.36793 8.18915 7.61259L10.3583 9.20043C10.6925 9.4451 10.7651 9.91439 10.5205 10.2486C10.2758 10.5829 9.80651 10.6555 9.47228 10.4108L7.30314 8.82296C6.96891 8.57829 6.8963 8.10901 7.14096 7.77477Z" fill="black"/>
<path fill-rule="evenodd" clip-rule="evenodd" d="M19.4665 14.0158C19.8617 13.8919 20.2826 14.1117 20.4066 14.507L21.2457 17.182C21.3173 17.4101 21.2758 17.6587 21.134 17.8512C20.9922 18.0438 20.7671 18.1571 20.528 18.1565L17.787 18.149C17.3728 18.1478 17.0379 17.8111 17.0391 17.3969C17.0402 16.9827 17.3769 16.6478 17.7911 16.649L19.5079 16.6537L18.9753 14.9559C18.8514 14.5607 19.0713 14.1398 19.4665 14.0158Z" fill="black"/>
<path fill-rule="evenodd" clip-rule="evenodd" d="M16.1541 14.21C16.3984 13.8755 16.8676 13.8024 17.2021 14.0467L20.9737 16.801C21.3083 17.0453 21.3814 17.5145 21.1371 17.849C20.8928 18.1835 20.4236 18.2567 20.0891 18.0124L16.3175 15.258C15.983 15.0137 15.9098 14.5445 16.1541 14.21Z" fill="black"/>
</svg>
