<svg width="24" height="24" viewBox="0 0 24 24" fill="none" xmlns="http://www.w3.org/2000/svg">
<path d="M12.4767 20.7898C12.3513 20.7899 12.2279 20.7586 12.1177 20.6988C11.8377 20.5458 5.22674 16.8988 3.60974 11.8718C2.58974 8.68576 3.72774 4.68376 7.39674 3.50176C8.23873 3.2329 9.12895 3.14955 10.0062 3.25744C10.8835 3.36533 11.727 3.6619 12.4787 4.12676C13.4919 3.49702 14.6678 3.17903 15.8603 3.21233C17.0528 3.24564 18.2091 3.62876 19.1855 4.31406C20.162 4.99937 20.9154 5.95662 21.3521 7.06673C21.7888 8.17685 21.8895 9.39086 21.6417 10.5578C21.6312 10.6575 21.6007 10.7541 21.5522 10.8418C21.5037 10.9296 21.438 11.0067 21.3592 11.0686C21.2803 11.1306 21.1898 11.1761 21.0931 11.2024C20.9963 11.2288 20.8952 11.2355 20.7959 11.2221C20.6965 11.2087 20.6008 11.1756 20.5145 11.1245C20.4281 11.0735 20.3529 11.0057 20.2932 10.9252C20.2335 10.8446 20.1906 10.7528 20.167 10.6554C20.1434 10.5579 20.1395 10.4567 20.1557 10.3577C20.3794 9.23564 20.1927 8.07052 19.6296 7.07449C19.0665 6.07845 18.1645 5.31772 17.0877 4.93076C16.3871 4.71257 15.6449 4.66268 14.9214 4.78518C14.1979 4.90768 13.5135 5.19909 12.9237 5.63575C12.7938 5.73281 12.6359 5.78525 12.4737 5.78525C12.3115 5.78525 12.1537 5.73281 12.0237 5.63575C11.4343 5.19527 10.7482 4.90195 10.0226 4.78019C9.29689 4.65843 8.55263 4.71177 7.85173 4.93575C4.97173 5.86275 4.25174 8.96775 5.03474 11.4188C6.26774 15.2488 11.1077 18.3628 12.4737 19.1778C12.7677 19.0018 13.2227 18.7188 13.7657 18.3478C13.847 18.2921 13.9385 18.2531 14.0349 18.2328C14.1312 18.2125 14.2307 18.2114 14.3275 18.2296C14.4243 18.2477 14.5166 18.2848 14.5991 18.3386C14.6815 18.3924 14.7526 18.462 14.8082 18.5433C14.8639 18.6245 14.9029 18.716 14.9232 18.8124C14.9435 18.9088 14.9445 19.0082 14.9264 19.105C14.9082 19.2018 14.8712 19.2941 14.8174 19.3766C14.7636 19.4591 14.694 19.5301 14.6127 19.5858C13.5877 20.2858 12.8657 20.6858 12.8347 20.7028C12.7244 20.7609 12.6014 20.7908 12.4767 20.7898Z" fill="black"/>
<path d="M17.8423 17.999C17.6434 18.0055 17.45 17.9327 17.3048 17.7967C17.1595 17.6606 17.0743 17.4724 17.0678 17.2735C17.0613 17.0746 17.1341 16.8813 17.2701 16.736C17.4062 16.5908 17.5944 16.5055 17.7933 16.499L19.8693 16.36L19.3943 14.338C19.3711 14.2419 19.3671 14.1422 19.3826 14.0446C19.3981 13.947 19.4327 13.8534 19.4845 13.7692C19.5363 13.6851 19.6042 13.6119 19.6843 13.5541C19.7644 13.4962 19.8552 13.4548 19.9514 13.4321C20.0476 13.4094 20.1473 13.406 20.2448 13.422C20.3423 13.438 20.4357 13.4731 20.5196 13.5253C20.6035 13.5776 20.6763 13.6458 20.7337 13.7263C20.7912 13.8067 20.8321 13.8977 20.8543 13.994L21.5313 16.876C21.556 16.9819 21.5575 17.0919 21.5355 17.1984C21.5136 17.3049 21.4688 17.4053 21.4042 17.4928C21.3397 17.5803 21.2569 17.6527 21.1616 17.705C21.0663 17.7574 20.9607 17.7884 20.8523 17.796L17.8943 17.996L17.8423 17.999Z" fill="black"/>
<path d="M5.34422 6.46355C5.18487 6.46371 5.02964 6.41289 4.90122 6.31855L2.51622 4.56356C2.36168 4.44381 2.26 4.26846 2.23285 4.07485C2.20571 3.88124 2.25524 3.68467 2.37089 3.52704C2.48653 3.36941 2.65916 3.26318 2.85199 3.23096C3.04482 3.19874 3.24261 3.24309 3.40322 3.35456L5.78822 5.10256C5.91541 5.19618 6.0098 5.32757 6.05793 5.47799C6.10606 5.62841 6.10547 5.79018 6.05626 5.94025C6.00705 6.09032 5.91173 6.22103 5.78387 6.31374C5.65601 6.40645 5.50215 6.45642 5.34422 6.45655V6.46355Z" fill="black"/>
<path d="M20.8 17.797C20.6411 17.797 20.4863 17.7466 20.358 17.653L13.6839 12.764C13.531 12.6436 13.4308 12.4685 13.4044 12.2756C13.378 12.0827 13.4276 11.8871 13.5426 11.7301C13.6576 11.573 13.8292 11.4668 14.021 11.4338C14.2128 11.4007 14.41 11.4435 14.571 11.553L21.245 16.443C21.3726 16.5365 21.4673 16.6679 21.5157 16.8185C21.5641 16.9691 21.5637 17.1312 21.5144 17.2815C21.4651 17.4318 21.3696 17.5627 21.2415 17.6555C21.1133 17.7483 20.9591 17.7981 20.801 17.798L20.8 17.797Z" fill="black"/>
</svg>
