<svg width="24" height="24" viewBox="0 0 24 24" fill="none" xmlns="http://www.w3.org/2000/svg">
<path fill-rule="evenodd" clip-rule="evenodd" d="M9.57335 3.17634C10.4477 3.32004 11.2484 3.82153 11.8813 4.27942C12.5199 3.82354 13.3204 3.329 14.1939 3.18577C15.0186 3.04507 15.8538 3.06702 16.656 3.24047C17.0608 3.328 17.3181 3.72717 17.2305 4.13203C17.143 4.53688 16.7438 4.79412 16.339 4.70659C15.7208 4.57292 15.078 4.55631 14.444 4.66477L14.4382 4.66576L14.4382 4.66573C13.7666 4.77523 13.0766 5.25361 12.327 5.81332C12.0594 6.01311 11.692 6.01192 11.4257 5.81041C10.6844 5.24943 9.99617 4.76509 9.32792 4.65613L9.3201 4.65486L9.3201 4.65481C8.5597 4.52257 7.77922 4.57946 7.0357 4.81288C4.25184 5.71568 3.14351 8.80504 4.06397 11.6843C4.41981 12.7678 5.05163 13.7855 5.84623 14.6975C6.11834 15.0098 6.08575 15.4836 5.77345 15.7557C5.46115 16.0278 4.98739 15.9952 4.71529 15.6829C3.82033 14.6557 3.06963 13.4656 2.63785 12.1492L2.63618 12.1442L2.6362 12.1441C1.54175 8.72531 2.77571 4.61488 6.57677 3.3848L6.58261 3.38292L6.58261 3.38294C7.5464 3.07973 8.56894 3.0023 9.57335 3.17634Z" fill="black"/>
<path fill-rule="evenodd" clip-rule="evenodd" d="M18.9818 5.22598C19.3035 4.96514 19.7758 5.01453 20.0367 5.3363C21.5354 7.18509 21.8747 9.79971 21.1297 12.1418C20.2782 14.8672 17.9822 17.0484 16.0092 18.5123C15.0085 19.2548 14.0599 19.8353 13.3615 20.2303C13.0118 20.4281 12.7235 20.5802 12.5211 20.6835C12.4199 20.7352 12.34 20.7747 12.2847 20.8018C12.257 20.8153 12.2354 20.8257 12.2203 20.8329L12.2025 20.8413L12.1974 20.8437L12.1957 20.8445C12.1955 20.8446 12.1948 20.845 11.877 20.1656C11.5597 20.8451 11.5596 20.8451 11.5595 20.845L11.5567 20.8438L11.5508 20.841L11.5303 20.8312C11.5129 20.8229 11.4879 20.8109 11.4558 20.7952C11.3918 20.7638 11.2994 20.7179 11.1827 20.6579C10.9493 20.5378 10.6178 20.361 10.2191 20.131C9.42297 19.6719 8.35161 18.9967 7.25483 18.1332C6.92938 17.8769 6.87327 17.4054 7.12951 17.0799C7.38574 16.7545 7.85729 16.6984 8.18274 16.9546C9.20829 17.762 10.2161 18.3977 10.9685 18.8317C11.344 19.0482 11.6542 19.2136 11.8688 19.324C11.8715 19.3254 11.8743 19.3268 11.8769 19.3282C12.0604 19.2339 12.3156 19.0986 12.623 18.9247C13.2822 18.5518 14.1762 18.0045 15.1154 17.3077C17.0216 15.8933 18.9937 13.9507 19.6985 11.6928L19.6997 11.6888C20.3176 9.74833 20.0036 7.67749 18.8714 6.28089C18.6106 5.95912 18.66 5.48682 18.9818 5.22598ZM11.877 20.1656L11.5595 20.845C11.7608 20.939 11.9935 20.9391 12.1948 20.845L11.877 20.1656Z" fill="black"/>
<path fill-rule="evenodd" clip-rule="evenodd" d="M21.5307 3.72846C21.8236 4.02135 21.8236 4.49623 21.5307 4.78912L6.87213 19.4477C6.57923 19.7405 6.10436 19.7405 5.81147 19.4477C5.51857 19.1548 5.51857 18.6799 5.81147 18.387L20.47 3.72846C20.7629 3.43557 21.2378 3.43557 21.5307 3.72846Z" fill="black"/>
</svg>
