<svg width="24" height="24" viewBox="0 0 24 24" fill="none" xmlns="http://www.w3.org/2000/svg">
<path fill-rule="evenodd" clip-rule="evenodd" d="M16.9408 10.8506C17.7204 10.4415 18.6385 10.3566 19.4906 10.6291L19.4919 10.6296C21.5006 11.2762 22.1006 13.4202 21.5555 15.1226C21.1177 16.484 19.9986 17.6035 19.0883 18.3432C18.62 18.7236 18.1778 19.0268 17.8525 19.2351C17.6895 19.3395 17.5547 19.4208 17.4593 19.4768C17.4116 19.5048 17.3736 19.5265 17.3468 19.5416L17.3152 19.5593L17.3059 19.5644L17.303 19.566L17.302 19.5666C17.3018 19.5667 17.3012 19.567 16.9426 18.9083C16.5818 19.5658 16.5816 19.5657 16.5814 19.5656L16.58 19.5648L16.5771 19.5632L16.5679 19.5581L16.5361 19.5402C16.5092 19.5249 16.4711 19.503 16.4232 19.4747C16.3273 19.4181 16.1919 19.336 16.0281 19.2306C15.7013 19.0203 15.2572 18.7148 14.7878 18.333C13.8774 17.5922 12.756 16.4725 12.33 15.1207C11.7854 13.4168 12.3917 11.2754 14.3981 10.6296L14.4032 10.6279C15.2521 10.3613 16.1642 10.4466 16.9408 10.8506ZM16.9426 18.9083L16.5814 19.5656C16.8054 19.6885 17.0776 19.6887 17.302 19.5666L16.9426 18.9083ZM16.9436 18.0352C16.9753 18.0154 17.0086 17.9943 17.0435 17.972C17.334 17.7859 17.7282 17.5155 18.1424 17.1789C18.9969 16.4848 19.8273 15.5963 20.1271 14.6647C20.4982 13.5049 20.0282 12.3784 19.033 12.0576C18.473 11.8788 17.8622 11.9816 17.3924 12.3338C17.1269 12.5328 16.762 12.5337 16.4955 12.3359C16.0247 11.9864 15.4155 11.8832 14.8552 12.0582C13.8595 12.3804 13.3886 13.5079 13.7592 14.6651L13.7603 14.6688C14.048 15.5832 14.8748 16.47 15.7345 17.1694C16.1504 17.5078 16.547 17.7808 16.8396 17.9691C16.876 17.9925 16.9108 18.0146 16.9436 18.0352Z" fill="black"/>
<path fill-rule="evenodd" clip-rule="evenodd" d="M6.54385 5.84331C4.18885 6.61173 3.23215 9.23563 4.01476 11.6987C4.66271 13.6657 6.36248 15.3413 8.00003 16.5577C8.8068 17.157 9.57188 17.6255 10.1351 17.9438C10.3716 18.0775 10.5716 18.1842 10.7231 18.2625C10.9034 18.1694 11.1524 18.0361 11.4498 17.8653C12.0929 17.4959 12.9554 16.9544 13.8368 16.2657C14.1632 16.0107 14.6346 16.0686 14.8896 16.395C15.1446 16.7214 15.0867 17.1927 14.7603 17.4477C13.8087 18.1913 12.8834 18.7716 12.197 19.166C11.8531 19.3635 11.5674 19.5154 11.3661 19.6186C11.2654 19.6702 11.1857 19.7098 11.1302 19.7368C11.1024 19.7503 11.0807 19.7608 11.0655 19.768L11.0475 19.7765L11.0423 19.779L11.0406 19.7798C11.0405 19.7798 11.0395 19.7803 10.7229 19.1004C10.4063 19.7803 10.4061 19.7802 10.4059 19.7801L10.4039 19.7791L10.3993 19.777L10.3836 19.7695C10.3703 19.7632 10.3515 19.7542 10.3275 19.7425C10.2794 19.7192 10.2103 19.685 10.1228 19.6405C9.9479 19.5514 9.69904 19.4204 9.39703 19.2497C8.79397 18.9088 7.97398 18.407 7.10555 17.7619C5.39362 16.4902 3.3835 14.5815 2.58869 12.1639L2.5865 12.1572C1.62992 9.1528 2.715 5.51068 6.08454 4.41536L6.09337 4.41249C6.94192 4.14822 7.84238 4.07779 8.73463 4.22856L8.73634 4.22885C9.48401 4.35697 10.1742 4.77517 10.7239 5.16691C11.2755 4.77666 11.9635 4.36642 12.7096 4.23858L12.7113 4.23829C13.5972 4.08859 14.4977 4.14634 15.3525 4.41254L15.3634 4.41592C18.4396 5.42536 19.625 8.56161 19.06 11.3758C18.9785 11.7819 18.5832 12.045 18.1771 11.9635C17.771 11.8819 17.5079 11.4866 17.5894 11.0805C18.0456 8.80793 17.0692 6.55768 14.9011 5.84301C14.2769 5.64955 13.6171 5.60663 12.9621 5.71717C12.4087 5.81229 11.8161 6.21176 11.1762 6.69715C10.9082 6.90046 10.5377 6.90046 10.2697 6.69715C9.62366 6.20709 9.03452 5.80211 8.48382 5.70744C7.83476 5.59792 7.17452 5.64763 6.54385 5.84331ZM10.7229 19.1004L10.4059 19.7801C10.6067 19.8736 10.8388 19.8737 11.0395 19.7803L10.7229 19.1004Z" fill="black"/>
</svg>
