<svg width="24" height="24" viewBox="0 0 24 24" fill="none" xmlns="http://www.w3.org/2000/svg">
<path d="M12 21.3904C11.7073 21.3914 11.4173 21.3342 11.1469 21.222C10.8766 21.1099 10.6312 20.9452 10.425 20.7374L9.00201 19.3154C8.87157 19.1844 8.71649 19.0806 8.54572 19.0099C8.37494 18.9392 8.19186 18.903 8.00702 18.9034H6.939C5.69612 18.9005 4.50501 18.4054 3.62625 17.5264C2.74749 16.6475 2.25264 15.4563 2.25 14.2134V7.29839C2.25132 6.05519 2.74578 4.86329 3.62485 3.98422C4.50392 3.10515 5.6958 2.6107 6.939 2.60938H17.061C18.3042 2.6107 19.4961 3.10515 20.3752 3.98422C21.2543 4.86329 21.7487 6.05519 21.75 7.29839V14.2134C21.7474 15.4563 21.2525 16.6475 20.3738 17.5264C19.495 18.4054 18.3039 18.9005 17.061 18.9034H15.993C15.8073 18.9023 15.6233 18.9382 15.4516 19.0089C15.28 19.0796 15.124 19.1838 14.993 19.3154L13.571 20.7374C13.365 20.945 13.1197 21.1097 12.8495 21.2218C12.5793 21.3339 12.2895 21.3912 11.997 21.3904H12ZM6.939 4.10938C6.09354 4.11043 5.28304 4.44676 4.68521 5.04459C4.08739 5.64241 3.75106 6.45294 3.75 7.29839V14.2134C3.75079 15.059 4.08702 15.8698 4.68488 16.4678C5.28273 17.0659 6.09337 17.4023 6.939 17.4034H8.00702C8.38912 17.4022 8.76765 17.4768 9.12073 17.6229C9.47381 17.769 9.79441 17.9836 10.064 18.2544L11.485 19.6764C11.6233 19.8089 11.8075 19.8829 11.999 19.8829C12.1906 19.8829 12.3747 19.8089 12.513 19.6764L13.936 18.2544C14.2053 17.9835 14.5258 17.7688 14.8787 17.6228C15.2316 17.4767 15.61 17.4021 15.992 17.4034H17.06C17.9056 17.4023 18.7163 17.0659 19.3141 16.4678C19.912 15.8698 20.2482 15.059 20.249 14.2134V7.29839C20.248 6.45294 19.9116 5.64241 19.3138 5.04459C18.716 4.44676 17.9054 4.11043 17.06 4.10938H6.939Z" fill="black"/>
<path d="M11.9991 15.0621C11.874 15.0624 11.7509 15.0311 11.6411 14.9711C11.5291 14.9101 8.8931 13.4561 8.2311 11.3971C8.09675 11.0399 8.03479 10.6594 8.04882 10.278C8.06286 9.8965 8.1526 9.52165 8.31284 9.1752C8.47309 8.82875 8.70062 8.51763 8.98222 8.25993C9.26381 8.00223 9.59384 7.80311 9.9531 7.67413C10.6296 7.45787 11.3634 7.51052 12.0021 7.82113C12.6374 7.51536 13.3651 7.4621 14.0381 7.67213C14.3983 7.8005 14.7293 7.99929 15.0118 8.25693C15.2943 8.51456 15.5227 8.82588 15.6836 9.17271C15.8446 9.51954 15.9349 9.89494 15.9492 10.277C15.9635 10.6591 15.9016 11.0402 15.7671 11.3981C15.1271 13.4341 12.4731 14.9091 12.3611 14.9701C12.2502 15.031 12.1256 15.0626 11.9991 15.0621ZM9.6591 10.9381C10.1682 11.9884 10.9833 12.8599 11.9971 13.4381C13.0092 12.8597 13.8241 11.9904 14.3361 10.9431C14.4085 10.7728 14.4465 10.5898 14.4478 10.4047C14.449 10.2196 14.4136 10.0361 14.3435 9.8648C14.2733 9.6935 14.1699 9.5378 14.0393 9.40672C13.9086 9.27564 13.7532 9.17177 13.5821 9.10113C13.3908 9.04192 13.1883 9.02864 12.9909 9.06235C12.7935 9.09605 12.6069 9.1758 12.4461 9.29513C12.3163 9.3925 12.1584 9.44513 11.9961 9.44513C11.8338 9.44513 11.6759 9.3925 11.5461 9.29513C11.3857 9.17425 11.1986 9.09363 11.0006 9.06004C10.8026 9.02646 10.5994 9.04088 10.4081 9.10213C10.2378 9.17298 10.0832 9.2768 9.95313 9.40761C9.82308 9.53841 9.72016 9.69361 9.65028 9.86432C9.5804 10.035 9.54494 10.2179 9.54594 10.4023C9.54694 10.5868 9.58438 10.7692 9.65611 10.9391L9.6591 10.9381Z" fill="black"/>
</svg>
