<svg width="24" height="24" viewBox="0 0 24 24" fill="none" xmlns="http://www.w3.org/2000/svg">
<path d="M12.0013 21.7561H4.75133C4.45739 21.7562 4.16897 21.6764 3.91692 21.5252C3.66486 21.374 3.45867 21.1571 3.3204 20.8977C3.18214 20.6383 3.117 20.3462 3.13196 20.0527C3.14692 19.7591 3.24141 19.4751 3.40534 19.2312C3.62534 18.9012 3.90533 18.4981 4.13333 18.1831C4.15682 18.149 4.17015 18.1089 4.17174 18.0675C4.17333 18.026 4.16313 17.985 4.14233 17.9492C3.77442 17.3437 3.43894 16.7192 3.13733 16.0782C2.25576 14.1622 2.0188 12.0122 2.46195 9.95024C2.90509 7.88829 4.00449 6.02546 5.5954 4.6409C7.18631 3.25633 9.18304 2.42458 11.2864 2.27029C13.3898 2.116 15.4866 2.64748 17.2625 3.78508C19.0384 4.92267 20.3978 6.60514 21.1371 8.58035C21.8764 10.5556 21.9557 12.7171 21.3632 14.7412C20.7706 16.7653 19.5381 18.5429 17.8503 19.8075C16.1625 21.0722 14.1104 21.7559 12.0013 21.7561ZM9.78334 20.2561H12.0013C13.2051 20.2555 14.3942 19.9918 15.4854 19.4835C16.5766 18.9751 17.5434 18.2344 18.3183 17.3132C19.5214 15.856 20.1941 14.0336 20.2264 12.1443C20.2588 10.255 19.6488 8.41063 18.4963 6.91316C17.7754 5.99541 16.8682 5.24086 15.8345 4.69925C14.8007 4.15763 13.6639 3.84124 12.499 3.77095C11.3341 3.70065 10.1675 3.87804 9.07613 4.29141C7.98475 4.70478 6.99337 5.34476 6.16733 6.16915C4.97551 7.36847 4.17877 8.90343 3.88387 10.5683C3.58896 12.2332 3.80999 13.9484 4.51733 15.4842C4.59733 15.6792 4.87034 16.2061 5.44434 17.2001C5.60827 17.4849 5.68728 17.8106 5.67204 18.1387C5.6568 18.4669 5.54795 18.7839 5.35834 19.0522C5.14134 19.3572 4.86834 19.7452 4.65834 20.0642C4.64421 20.0823 4.63579 20.1043 4.63419 20.1273C4.63258 20.1503 4.63786 20.1732 4.64934 20.1932C4.65918 20.2129 4.67451 20.2293 4.6935 20.2405C4.71249 20.2517 4.73432 20.2571 4.75633 20.2561H9.78833H9.78334Z" fill="black"/>
<path d="M11.996 16.0788C11.871 16.0787 11.7479 16.0474 11.638 15.9878C11.526 15.9258 8.88999 14.4718 8.22799 12.4138C8.09323 12.0564 8.03098 11.6758 8.04487 11.2941C8.05876 10.9124 8.14851 10.5373 8.30889 10.1906C8.46928 9.84401 8.69708 9.53277 8.97902 9.27509C9.26095 9.01741 9.59137 8.81845 9.951 8.68981C10.6269 8.47235 11.3607 8.52466 11.999 8.83581C12.6347 8.53144 13.362 8.47858 14.035 8.68781C14.3954 8.81594 14.7267 9.01464 15.0095 9.2723C15.2922 9.52995 15.5208 9.84139 15.6818 10.1884C15.8427 10.5354 15.9329 10.911 15.947 11.2933C15.9612 11.6756 15.8989 12.0569 15.764 12.4148C15.124 14.4508 12.47 15.9248 12.358 15.9868C12.2469 16.0472 12.1224 16.0788 11.996 16.0788ZM9.656 11.9548C10.1661 13.0044 10.9809 13.8757 11.994 14.4548C13.0075 13.8756 13.823 13.0044 14.334 11.9548C14.4064 11.7844 14.4443 11.6014 14.4455 11.4162C14.4467 11.2311 14.4112 11.0475 14.341 10.8762C14.2707 10.7049 14.1672 10.5492 14.0364 10.4182C13.9056 10.2872 13.7502 10.1834 13.579 10.1128C13.3877 10.0538 13.1852 10.0407 12.9879 10.0744C12.7905 10.1081 12.6039 10.1877 12.443 10.3068C12.3133 10.4045 12.1554 10.4573 11.993 10.4573C11.8306 10.4573 11.6727 10.4045 11.543 10.3068C11.3823 10.1869 11.1953 10.107 10.9976 10.0738C10.7999 10.0405 10.5971 10.055 10.406 10.1158C10.235 10.1859 10.0796 10.2893 9.94891 10.42C9.81822 10.5508 9.71483 10.7061 9.64476 10.8772C9.57468 11.0482 9.53932 11.2315 9.54074 11.4163C9.54215 11.6012 9.58031 11.7839 9.653 11.9538L9.656 11.9548Z" fill="black"/>
</svg>
