<svg width="24" height="24" viewBox="0 0 24 24" fill="none" xmlns="http://www.w3.org/2000/svg">
<path fill-rule="evenodd" clip-rule="evenodd" d="M13.6344 10.4695L9.93284 14.1711C8.64639 15.4576 8.6433 17.5424 9.92592 18.8327V18.8327C10.5444 19.4548 11.385 19.8052 12.2622 19.8065C13.1394 19.8078 13.981 19.4599 14.6013 18.8396L19.0764 14.3645C19.7768 13.6641 20.1703 12.7142 20.1703 11.7236V3.93369C20.1703 3.41803 19.7523 3 19.2366 3H14.5681C14.0525 3 13.6344 3.41803 13.6344 3.93369V10.4695Z" stroke="black" stroke-width="1.5" stroke-linecap="round" stroke-linejoin="round"/>
<path d="M20.1706 6.29357H13.6348" stroke="black" stroke-width="1.5" stroke-linecap="round" stroke-linejoin="round"/>
<path d="M20.1702 9.28134C18.3842 9.28134 16.9364 10.7291 16.9364 12.5151C16.9364 13.5987 17.4694 14.5577 18.2874 15.1445" stroke="black" stroke-width="1.5" stroke-linecap="round" stroke-linejoin="round"/>
<path d="M13.5234 4.19351H9.43224C8.91657 4.19351 8.49854 4.61154 8.49854 5.12721V11.6631L4.79694 15.3647C3.51049 16.6511 3.5074 18.7359 4.79002 20.0262C5.40846 20.6483 6.24907 20.9987 7.12627 21C8.00348 21.0013 8.84512 20.6534 9.4654 20.0331L10.2844 19.2141" stroke="black" stroke-width="1.5" stroke-linecap="round" stroke-linejoin="round"/>
<path d="M13.4864 7.48712H8.49805" stroke="black" stroke-width="1.5" stroke-linecap="round" stroke-linejoin="round"/>
</svg>
