<svg width="24" height="24" viewBox="0 0 24 24" fill="none" xmlns="http://www.w3.org/2000/svg">
<path d="M6.63692 11.1671L6.63681 19.3786C6.62796 20.1814 7.16206 20.3144 7.93655 20.526C10.6089 21.1581 13.3918 21.158 16.0641 20.5258C16.8385 20.3141 17.3725 20.1812 17.3636 19.3784L17.3635 11.1671" stroke="black" stroke-width="1.5" stroke-linecap="round" stroke-linejoin="round"/>
<path d="M17.3653 17.7728H18.9627C19.3779 17.7728 19.7345 17.4779 19.8124 17.0701L20.5891 13.0052C20.6861 12.4971 20.6681 11.9738 20.5362 11.4737L19.4091 7.1984C19.1502 6.21636 18.4698 5.39929 17.5509 4.96678L16.221 4.34082M7.77912 4.34082L6.44921 4.96678C5.53032 5.39929 4.85 6.21636 4.5911 7.1984L3.46395 11.4738C3.33209 11.9739 3.31402 12.4972 3.41107 13.0052L4.18774 17.0701C4.26565 17.4779 4.62228 17.7728 5.03745 17.7728H6.60467" stroke="black" stroke-width="1.5" stroke-linecap="round" stroke-linejoin="round"/>
<path d="M12.0003 5.65255L9.39588 3.13179C9.29445 3.03361 9.155 2.96877 9.02179 3.01548C8.93026 3.04758 8.84615 3.09998 8.77626 3.16987L8.08096 3.86516C7.86968 4.07643 7.82886 4.40419 7.98185 4.66083L9.40491 7.04792C9.62078 7.41004 10.1182 7.47553 10.4205 7.18164L12.0003 5.65255ZM12.0003 5.65255L13.5801 7.18164C13.8824 7.47553 14.3798 7.41004 14.5957 7.04792L16.0187 4.66083C16.1717 4.40419 16.1309 4.07643 15.9196 3.86516L15.2243 3.16987C15.1544 3.09998 15.0703 3.04758 14.9788 3.01548C14.8456 2.96877 14.7061 3.03361 14.6047 3.13179L12.0003 5.65255Z" stroke="black" stroke-width="1.5" stroke-linecap="round" stroke-linejoin="round"/>
<path d="M9.13817 3L14.8631 3" stroke="black" stroke-width="1.5" stroke-linecap="round" stroke-linejoin="round"/>
<path d="M11.9873 5.74988L11.9873 11.0565" stroke="black" stroke-width="1.5" stroke-linecap="round" stroke-linejoin="round"/>
</svg>
