<svg width="24" height="24" viewBox="0 0 24 24" fill="none" xmlns="http://www.w3.org/2000/svg">
<path d="M14.2559 7.60815L14.2559 11.4774C14.2559 12.9256 13.2459 13.9644 12 13.9644C10.7541 13.9644 9.74414 12.9256 9.74414 11.4774V7.60815" stroke="black" stroke-width="1.5" stroke-linecap="round" stroke-linejoin="round"/>
<path d="M19.8345 7.5766V5.61706C19.8345 5.06478 19.3868 4.61707 18.8345 4.61707H5.16492C4.61263 4.61707 4.16492 5.06478 4.16492 5.61707V7.5766" stroke="black" stroke-width="1.5" stroke-linecap="round" stroke-linejoin="round"/>
<path d="M3.16414 17.7343L4.17541 7.5766H19.8301L20.8367 17.7349C20.9242 18.6175 20.2309 19.3829 19.344 19.3829H14.9748C14.3389 19.3829 13.7722 18.9819 13.5604 18.3824L12 13.9641L10.4443 18.3812C10.2329 18.9814 9.66581 19.3829 9.02948 19.3829H4.65676C3.76959 19.3829 3.07625 18.6171 3.16414 17.7343Z" stroke="black" stroke-width="1.5" stroke-linecap="round" stroke-linejoin="round"/>
</svg>
