<svg width="24" height="24" viewBox="0 0 24 24" fill="none" xmlns="http://www.w3.org/2000/svg">
<path d="M17.1206 17.355C18.5818 17.7075 20.4386 16.946 20.4837 16.4923C20.5215 16.112 20.0973 11.3229 19.7754 7.83476C19.7005 7.02369 19.3146 6.28815 18.7195 5.7672C18.4832 5.56039 18.2139 5.3874 17.9181 5.25692L16.0735 4.38144" stroke="black" stroke-width="1.5" stroke-linecap="round" stroke-linejoin="round"/>
<path d="M6.92499 17.3272C5.46376 17.6797 3.56113 16.946 3.51603 16.4923C3.47823 16.112 3.90242 11.3229 4.22438 7.83475C4.29924 7.02368 4.68512 6.28814 5.28027 5.7672C5.51654 5.56038 5.78579 5.38739 6.08166 5.25692L7.90971 4.38925" stroke="black" stroke-width="1.5" stroke-linecap="round" stroke-linejoin="round"/>
<path d="M11.9883 5.62083L9.41514 3.13033C9.31493 3.03333 9.17715 2.96927 9.04554 3.01542C8.95511 3.04713 8.87201 3.0989 8.80296 3.16795L8.116 3.85489C7.90726 4.06363 7.86693 4.38746 8.01809 4.64101L9.42406 6.99946C9.63734 7.35722 10.1288 7.42193 10.4274 7.13157L11.9883 5.62083ZM11.9883 5.62083L13.5491 7.13157C13.8478 7.42193 14.3392 7.35722 14.5525 6.99946L15.9585 4.64101C16.1096 4.38746 16.0693 4.06363 15.8606 3.85489L15.1736 3.16795C15.1046 3.0989 15.0215 3.04713 14.931 3.01542C14.7994 2.96927 14.6616 3.03333 14.5614 3.13033L11.9883 5.62083Z" stroke="black" stroke-width="1.5" stroke-linecap="round" stroke-linejoin="round"/>
<path d="M9.15698 3.00012L14.8132 3.00012" stroke="black" stroke-width="1.5" stroke-linecap="round" stroke-linejoin="round"/>
<path d="M11.2722 9.10663H12.7266" stroke="black" stroke-width="1.5" stroke-linecap="round" stroke-linejoin="round"/>
<path d="M13.4799 7.14056L12.7991 8.76509C12.75 8.88225 12.736 9.01623 12.7596 9.14434L13.7691 14.6273C13.8044 14.8191 13.755 15.0192 13.6384 15.1567L12.3312 16.6987C12.1472 16.9158 11.8525 16.9158 11.6684 16.6987L10.3616 15.1572C10.245 15.0197 10.1956 14.8196 10.2309 14.6278L11.2401 9.14431C11.2636 9.01622 11.2497 8.88226 11.2006 8.76511L10.5197 7.14056" stroke="black" stroke-width="1.5" stroke-linecap="round" stroke-linejoin="round"/>
<path d="M16.795 9.25928C17.2197 10.1573 17.2501 11.1987 16.8712 12.1173C16.7019 12.5276 16.5809 12.9653 16.6307 13.4063L17.254 18.9227C17.299 19.3212 17.0939 19.7093 16.7303 19.8784C13.4604 21.3997 10.56 21.3488 7.33635 19.8763C6.96867 19.7084 6.75996 19.318 6.80534 18.9163L7.42766 13.4085C7.47753 12.9671 7.35628 12.5292 7.18675 12.1186C6.80728 11.1997 6.83747 10.1577 7.26241 9.25928" stroke="black" stroke-width="1.5" stroke-linecap="round" stroke-linejoin="round"/>
</svg>
