<svg width="24" height="24" viewBox="0 0 24 24" fill="none" xmlns="http://www.w3.org/2000/svg">
<path d="M18.5592 17.5183C18.388 17.5179 18.2221 17.4589 18.089 17.3511C17.9559 17.2433 17.8637 17.0933 17.8278 16.9259C17.7918 16.7585 17.8142 16.5838 17.8912 16.4309C17.9682 16.278 18.0952 16.156 18.2512 16.0853C18.845 15.8156 19.3487 15.3808 19.7023 14.8327C20.0558 14.2847 20.2443 13.6465 20.2452 12.9943C20.2727 12.5453 20.2052 12.0955 20.0472 11.6743C19.8891 11.2531 19.6441 10.87 19.328 10.5499C19.0118 10.2298 18.6318 9.97997 18.2126 9.8167C17.7934 9.65342 17.3445 9.58036 16.8952 9.60229C16.6963 9.60229 16.5055 9.52327 16.3649 9.38262C16.2242 9.24197 16.1452 9.0512 16.1452 8.85229C16.1452 7.7527 15.7084 6.69815 14.9309 5.92062C14.1533 5.1431 13.0988 4.70629 11.9992 4.70629C10.8996 4.70629 9.84504 5.1431 9.06751 5.92062C8.28999 6.69815 7.85316 7.7527 7.85316 8.85229C7.8529 9.05008 7.77462 9.23979 7.63532 9.38022C7.49602 9.52064 7.30699 9.60044 7.1092 9.60229C6.65989 9.58192 6.21132 9.65594 5.79237 9.81956C5.37342 9.98319 4.9934 10.2328 4.67683 10.5523C4.36026 10.8718 4.11413 11.2541 3.95435 11.6745C3.79458 12.0949 3.72472 12.5442 3.74922 12.9933C3.75011 13.6455 3.93857 14.2837 4.29212 14.8317C4.64567 15.3798 5.14935 15.8146 5.74317 16.0843C5.83457 16.1237 5.91723 16.181 5.98628 16.2527C6.05533 16.3244 6.10942 16.4091 6.14539 16.5019C6.18137 16.5947 6.19845 16.6938 6.19575 16.7933C6.19305 16.8928 6.1706 16.9907 6.12965 17.0815C6.0887 17.1722 6.03012 17.2539 5.95728 17.3217C5.88445 17.3896 5.79879 17.4422 5.70539 17.4766C5.61199 17.5111 5.51272 17.5266 5.41328 17.5222C5.31383 17.5178 5.2162 17.4937 5.12617 17.4513C4.26924 17.0628 3.54229 16.4359 3.03211 15.6454C2.52194 14.8548 2.25016 13.9341 2.24922 12.9933C2.19385 11.8081 2.59319 10.6466 3.36567 9.74601C4.13815 8.84547 5.22537 8.27396 6.40516 8.14829C6.57372 6.78354 7.23541 5.5275 8.26563 4.61668C9.29586 3.70587 10.6235 3.20312 11.9987 3.20312C13.3738 3.20312 14.7015 3.70587 15.7317 4.61668C16.7619 5.5275 17.4236 6.78354 17.5922 8.14829C18.7749 8.26884 19.866 8.83943 20.6398 9.742C21.4135 10.6446 21.8108 11.81 21.7492 12.9973C21.7483 13.9382 21.4764 14.8588 20.9663 15.6494C20.4561 16.4399 19.7291 17.0669 18.8722 17.4553C18.7736 17.4985 18.6669 17.52 18.5592 17.5183Z" fill="black"/>
<path d="M13.4591 20.798H10.5291C9.94612 20.7964 9.38746 20.5641 8.97522 20.1519C8.56298 19.7396 8.33069 19.181 8.3291 18.598V16.95C8.33069 16.367 8.56298 15.8083 8.97522 15.3961C9.38746 14.9839 9.94612 14.7516 10.5291 14.75H13.4591C14.0421 14.7516 14.6008 14.9839 15.013 15.3961C15.4252 15.8083 15.6575 16.367 15.6591 16.95V18.594C15.6586 19.1777 15.4268 19.7374 15.0144 20.1505C14.6021 20.5636 14.0428 20.7964 13.4591 20.798ZM10.5291 16.246C10.3439 16.2473 10.1666 16.3215 10.0356 16.4525C9.90459 16.5835 9.83041 16.7608 9.8291 16.946V18.594C9.8291 18.7796 9.90284 18.9577 10.0341 19.089C10.1654 19.2202 10.3435 19.294 10.5291 19.294H13.4591C13.551 19.294 13.6421 19.2759 13.727 19.2407C13.8119 19.2055 13.8891 19.154 13.9541 19.089C14.0191 19.024 14.0707 18.9468 14.1058 18.8619C14.141 18.7769 14.1591 18.6859 14.1591 18.594V16.95C14.1591 16.8581 14.141 16.767 14.1058 16.6821C14.0707 16.5972 14.0191 16.52 13.9541 16.455C13.8891 16.39 13.8119 16.3385 13.727 16.3033C13.6421 16.2681 13.551 16.25 13.4591 16.25L10.5291 16.246Z" fill="black"/>
<path d="M10.2451 16.2749C10.0462 16.2749 9.85544 16.1959 9.71478 16.0553C9.57413 15.9146 9.49512 15.7238 9.49512 15.5249V14.4339C9.50008 13.781 9.7615 13.1562 10.223 12.6943C10.6845 12.2324 11.3092 11.9704 11.9621 11.9649C12.5642 11.9601 13.1483 12.1704 13.6091 12.5579C13.753 12.6888 13.8404 12.8704 13.8529 13.0644C13.8654 13.2585 13.8022 13.4498 13.6763 13.5981C13.5505 13.7463 13.372 13.8399 13.1785 13.8591C12.985 13.8783 12.7916 13.8216 12.6391 13.7009C12.4584 13.5484 12.2296 13.4647 11.9931 13.4649H11.9801C11.7202 13.467 11.4715 13.5709 11.2873 13.7543C11.1031 13.9377 10.9982 14.186 10.9951 14.4459V15.5249C10.9951 15.7238 10.9161 15.9146 10.7755 16.0553C10.6348 16.1959 10.444 16.2749 10.2451 16.2749Z" fill="black"/>
</svg>
