<svg width="24" height="24" viewBox="0 0 24 24" fill="none" xmlns="http://www.w3.org/2000/svg">
<path fill-rule="evenodd" clip-rule="evenodd" d="M6.86181 3.60087C7.4298 2.85024 8.34356 2.25 9.64142 2.25C10.9393 2.25 11.853 2.85024 12.421 3.60087C12.7864 4.08373 13.0118 4.6306 13.1206 5.12713C13.6872 5.24123 14.211 5.49827 14.631 5.89914C15.2178 6.45927 15.5513 7.25241 15.5513 8.18271C15.5513 9.4482 14.7996 10.5424 13.7156 11.0326C13.7055 11.0371 13.6954 11.0415 13.6851 11.0456C13.24 11.2236 12.7987 11.2913 12.4469 11.2913H6.83172C6.47631 11.2913 6.03492 11.2198 5.59589 11.0416C5.58682 11.0379 5.57783 11.0341 5.56892 11.0301C4.48712 10.5409 3.73071 9.45051 3.73071 8.18271C3.73071 7.25222 4.06452 6.45906 4.65157 5.89901C5.07168 5.49822 5.59561 5.24121 6.16222 5.12711C6.27105 4.63059 6.49643 4.08373 6.86181 3.60087ZM8.05795 4.50598C7.71716 4.95635 7.58341 5.49841 7.58341 5.80885C7.58341 6.22059 7.25148 6.55534 6.83975 6.55882C6.35488 6.56293 5.9575 6.72626 5.68699 6.98433C5.42288 7.23629 5.23071 7.62456 5.23071 8.18271C5.23071 8.83427 5.61583 9.39892 6.17382 9.65729C6.42228 9.75585 6.6655 9.79133 6.83172 9.79133H12.4469C12.6162 9.79133 12.8606 9.7572 13.1124 9.65903C13.6674 9.40122 14.0513 8.83587 14.0513 8.18271C14.0513 7.62437 13.8592 7.23609 13.5953 6.9842C13.325 6.72623 12.9279 6.56293 12.4431 6.55882C12.0314 6.55534 11.6994 6.22059 11.6994 5.80885C11.6994 5.49841 11.5657 4.95635 11.2249 4.50598C10.9072 4.08619 10.417 3.75 9.64142 3.75C8.86585 3.75 8.37561 4.08619 8.05795 4.50598ZM11.5561 14.0595C12.1241 13.3089 13.0378 12.7087 14.3357 12.7087C15.6336 12.7087 16.5473 13.3089 17.1153 14.0595C17.4807 14.5424 17.7061 15.0893 17.8149 15.5858C18.3815 15.6999 18.9053 15.9569 19.3253 16.3578C19.9121 16.9179 20.2456 17.7111 20.2456 18.6414C20.2456 19.9069 19.4939 21.0011 18.4099 21.4913C18.3998 21.4958 18.3897 21.5001 18.3794 21.5042C17.9343 21.6823 17.493 21.75 17.1412 21.75H11.526C11.1706 21.75 10.7292 21.6785 10.2902 21.5003C10.2811 21.4966 10.2721 21.4928 10.2632 21.4887C9.1814 20.9995 8.425 19.9092 8.425 18.6414C8.425 17.7109 8.75881 16.9177 9.34586 16.3577C9.76597 15.9569 10.2899 15.6999 10.8565 15.5858C10.9653 15.0893 11.1907 14.5424 11.5561 14.0595ZM12.7522 14.9647C12.4114 15.415 12.2777 15.9571 12.2777 16.2675C12.2777 16.6793 11.9458 17.014 11.534 17.0175C11.0492 17.0216 10.6518 17.1849 10.3813 17.443C10.1172 17.695 9.925 18.0832 9.925 18.6414C9.925 19.293 10.3101 19.8576 10.8682 20.116C11.1166 20.2145 11.3598 20.25 11.526 20.25H17.1412C17.3105 20.25 17.5549 20.2159 17.8067 20.1177C18.3616 19.8599 18.7456 19.2945 18.7456 18.6414C18.7456 18.083 18.5535 17.6948 18.2896 17.4429C18.0193 17.1849 17.6222 17.0216 17.1374 17.0175C16.7256 17.014 16.3937 16.6793 16.3937 16.2675C16.3937 15.9571 16.26 15.415 15.9192 14.9647C15.6015 14.5449 15.1113 14.2087 14.3357 14.2087C13.5601 14.2087 13.0699 14.5449 12.7522 14.9647Z" fill="black"/>
<path fill-rule="evenodd" clip-rule="evenodd" d="M4.48047 13.6602C4.89468 13.6602 5.23047 13.9959 5.23047 14.4102V17.7379C5.23047 18.3739 5.74605 18.8895 6.38205 18.8895H9.39604C9.81026 18.8895 10.146 19.2253 10.146 19.6395C10.146 20.0537 9.81026 20.3895 9.39604 20.3895H6.38205C4.91762 20.3895 3.73047 19.2023 3.73047 17.7379V14.4102C3.73047 13.9959 4.06626 13.6602 4.48047 13.6602Z" fill="black"/>
<path fill-rule="evenodd" clip-rule="evenodd" d="M14.416 6.05469L17.6175 6.05469C19.0819 6.05469 20.269 7.24184 20.269 8.70626V12.034C20.269 12.4482 19.9332 12.784 19.519 12.784C19.1048 12.784 18.769 12.4482 18.769 12.034V8.70626C18.769 8.07027 18.2534 7.55469 17.6175 7.55469L14.416 7.55469C14.0018 7.55469 13.666 7.2189 13.666 6.80469C13.666 6.39047 14.0018 6.05469 14.416 6.05469Z" fill="black"/>
</svg>
