<svg width="24" height="24" viewBox="0 0 24 24" fill="none" xmlns="http://www.w3.org/2000/svg">
<path fill-rule="evenodd" clip-rule="evenodd" d="M18.1516 18.6243C18.4072 18.9503 18.3502 19.4217 18.0242 19.6773C16.5552 20.8291 14.7398 21.5732 12.7399 21.7228C11.7537 21.7965 10.7916 21.7185 9.87543 21.5131C9.47125 21.4226 9.21703 21.0215 9.30763 20.6173C9.39822 20.2131 9.79932 19.9589 10.2035 20.0495C10.9796 20.2234 11.7935 20.2893 12.628 20.2269L12.628 20.2269C14.322 20.1003 15.8561 19.4711 17.0987 18.4969C17.4246 18.2413 17.8961 18.2983 18.1516 18.6243Z" fill="black"/>
<path fill-rule="evenodd" clip-rule="evenodd" d="M3.42998 14.8918C3.80903 14.7248 4.2517 14.8967 4.41871 15.2757C5.04066 16.6874 6.03608 17.8848 7.27803 18.7436C7.61872 18.9792 7.70391 19.4464 7.46831 19.7871C7.23272 20.1278 6.76555 20.213 6.42486 19.9774C4.95525 18.9611 3.77986 17.5461 3.04603 15.8805C2.87902 15.5015 3.05092 15.0588 3.42998 14.8918Z" fill="black"/>
<path fill-rule="evenodd" clip-rule="evenodd" d="M3.52409 8.82325C3.92374 8.93213 4.15945 9.34438 4.05056 9.74403C3.80878 10.6315 3.70431 11.5641 3.77626 12.5253C3.80719 12.9384 3.4974 13.2983 3.08435 13.3292C2.67129 13.3602 2.31137 13.0504 2.28045 12.6373C2.19485 11.4939 2.3199 10.39 2.60332 9.34972C2.7122 8.95007 3.12445 8.71436 3.52409 8.82325Z" fill="black"/>
<path fill-rule="evenodd" clip-rule="evenodd" d="M6.80251 4.59817C7.06974 4.91466 7.02981 5.38785 6.71332 5.65508C6.21362 6.07701 5.76644 6.55303 5.38252 7.07736C5.13782 7.41156 4.66852 7.48411 4.33432 7.23941C4.00011 6.9947 3.92756 6.5254 4.17227 6.1912C4.62866 5.56788 5.15796 5.00518 5.7456 4.50899C6.06209 4.24176 6.53528 4.28169 6.80251 4.59817Z" fill="black"/>
<path fill-rule="evenodd" clip-rule="evenodd" d="M11.6139 2.25729C16.9995 2.0508 21.534 6.2491 21.7405 11.635L21.7405 11.635C21.8175 13.6481 21.2672 15.5305 20.2836 17.1189C20.0656 17.4711 19.6033 17.5798 19.2511 17.3617C18.899 17.1437 18.7903 16.6814 19.0083 16.3292C19.8435 14.9804 20.3066 13.3908 20.2416 11.6925C20.0669 7.13464 16.2294 3.58143 11.6713 3.75619C11.2574 3.77206 10.909 3.44939 10.8931 3.03548C10.8773 2.62157 11.1999 2.27316 11.6139 2.25729Z" fill="black"/>
<path fill-rule="evenodd" clip-rule="evenodd" d="M9.5431 8.7302C10.0458 8.06613 10.8559 7.53516 12.0006 7.53516C13.1452 7.53516 13.9554 8.06613 14.458 8.7302C14.7624 9.13237 14.9569 9.58495 15.0582 10.0042C15.5331 10.1119 15.973 10.335 16.33 10.6759C16.854 11.1762 17.1486 11.8821 17.1486 12.7026C17.1486 13.8255 16.4821 14.7972 15.5187 15.2322C15.5093 15.2364 15.4998 15.2405 15.4902 15.2443C15.0941 15.4038 14.7034 15.462 14.3921 15.462H9.60509C9.29018 15.462 8.89927 15.3992 8.51088 15.2416C8.50196 15.238 8.49311 15.2342 8.48434 15.2302C7.5235 14.7964 6.85156 13.8282 6.85156 12.7026C6.85156 11.8819 7.14655 11.1759 7.67079 10.6757C8.02795 10.3349 8.46802 10.1119 8.94289 10.0042C9.04428 9.58494 9.23868 9.13237 9.5431 8.7302ZM10.7391 9.63551C10.4637 9.99939 10.357 10.4376 10.357 10.6787C10.357 11.0903 10.0252 11.425 9.61361 11.4287C9.22461 11.4321 8.91397 11.5628 8.70624 11.761C8.50494 11.9531 8.35156 12.2542 8.35156 12.7026C8.35156 13.2119 8.65209 13.6541 9.08866 13.8572C9.28499 13.9346 9.47749 13.962 9.60509 13.962H14.3921C14.525 13.962 14.7175 13.9359 14.9153 13.8587C15.3489 13.6565 15.6486 13.2141 15.6486 12.7026C15.6486 12.2539 15.4953 11.9528 15.2942 11.7608C15.0868 11.5628 14.7765 11.4321 14.3875 11.4287C13.9759 11.425 13.6441 11.0903 13.6441 10.6787C13.6441 10.4376 13.5375 9.99939 13.262 9.63551C13.0097 9.30219 12.6231 9.03516 12.0006 9.03516C11.3781 9.03516 10.9914 9.30219 10.7391 9.63551Z" fill="black"/>
</svg>
