<svg width="24" height="24" viewBox="0 0 24 24" fill="none" xmlns="http://www.w3.org/2000/svg">
<path d="M12.3599 21.4426H7.18384C6.74069 21.4405 6.30553 21.3245 5.92023 21.1055C5.53492 20.8866 5.2125 20.5722 4.98389 20.1926L2.61188 16.2136C2.37627 15.8163 2.25195 15.363 2.25195 14.9011C2.25195 14.4392 2.37627 13.9859 2.61188 13.5886L8.43384 3.81158C8.66157 3.43093 8.98382 3.11555 9.36926 2.89603C9.75471 2.6765 10.1903 2.56027 10.6339 2.55859H14.0898C14.5336 2.56008 14.9694 2.67634 15.3549 2.89607C15.7404 3.11581 16.0625 3.43155 16.2899 3.81259L20.8679 11.5056C20.9697 11.6765 20.9995 11.8809 20.9506 12.0738C20.9018 12.2667 20.7783 12.4322 20.6074 12.5341C20.4364 12.6359 20.2321 12.6657 20.0392 12.6169C19.8463 12.568 19.6807 12.4445 19.5789 12.2736L15.0009 4.57359C14.9063 4.41543 14.7725 4.28442 14.6123 4.1933C14.4521 4.10218 14.2711 4.05405 14.0869 4.05359H10.6309C10.4467 4.05434 10.2658 4.1026 10.1057 4.1937C9.94554 4.28479 9.81163 4.41563 9.71686 4.57359L3.89587 14.3506C3.79791 14.5157 3.74622 14.7041 3.74622 14.8961C3.74622 15.0881 3.79791 15.2765 3.89587 15.4416L6.26685 19.4186C6.3619 19.5764 6.49604 19.7071 6.65631 19.798C6.81659 19.8889 6.99762 19.937 7.18188 19.9376H12.3578C12.5568 19.9376 12.7475 20.0166 12.8882 20.1573C13.0288 20.2979 13.1078 20.4887 13.1078 20.6876C13.1078 20.8865 13.0288 21.0773 12.8882 21.2179C12.7475 21.3586 12.5568 21.4376 12.3578 21.4376L12.3599 21.4426Z" fill="black"/>
<path d="M18.5801 21.167C18.3812 21.167 18.1905 21.088 18.0498 20.9474C17.9092 20.8067 17.8301 20.6159 17.8301 20.417V18.75H16.1621C15.9632 18.75 15.7724 18.671 15.6318 18.5304C15.4911 18.3897 15.4121 18.1989 15.4121 18C15.4121 17.8011 15.4911 17.6103 15.6318 17.4697C15.7724 17.329 15.9632 17.25 16.1621 17.25H17.8301V15.582C17.8301 15.3831 17.9092 15.1923 18.0498 15.0517C18.1905 14.911 18.3812 14.832 18.5801 14.832C18.779 14.832 18.9698 14.911 19.1104 15.0517C19.2511 15.1923 19.3301 15.3831 19.3301 15.582V17.25H20.9981C21.197 17.25 21.3878 17.329 21.5284 17.4697C21.6691 17.6103 21.7481 17.8011 21.7481 18C21.7481 18.1989 21.6691 18.3897 21.5284 18.5304C21.3878 18.671 21.197 18.75 20.9981 18.75H19.3311V20.417C19.3311 20.5156 19.3117 20.6132 19.2739 20.7043C19.2362 20.7953 19.1808 20.8781 19.1111 20.9477C19.0413 21.0174 18.9585 21.0726 18.8674 21.1102C18.7763 21.1479 18.6787 21.1672 18.5801 21.167Z" fill="black"/>
<path d="M12.8208 15.5654H9.23783C9.10921 15.5654 8.98275 15.5322 8.87064 15.4692C8.75853 15.4061 8.66458 15.3153 8.59769 15.2054C8.53081 15.0956 8.49327 14.9704 8.48875 14.8418C8.48422 14.7133 8.51282 14.5857 8.57181 14.4714L11.6899 8.42943C11.7528 8.30704 11.8482 8.20438 11.9657 8.13275C12.0832 8.06112 12.2182 8.0233 12.3558 8.02344C12.4936 8.02334 12.6287 8.06117 12.7463 8.13278C12.864 8.2044 12.9597 8.30703 13.0229 8.42943L14.9228 12.1234C15.0141 12.3003 15.0313 12.5062 14.9707 12.6958C14.9102 12.8854 14.7767 13.0432 14.5998 13.1344C14.4229 13.2257 14.217 13.2429 14.0274 13.1823C13.8378 13.1217 13.6801 12.9883 13.5888 12.8114L12.3518 10.4114L10.4668 14.0674H12.8178C13.0168 14.0674 13.2075 14.1465 13.3482 14.2871C13.4888 14.4278 13.5678 14.6185 13.5678 14.8174C13.5678 15.0163 13.4888 15.2071 13.3482 15.3478C13.2075 15.4884 13.0168 15.5674 12.8178 15.5674L12.8208 15.5654Z" fill="black"/>
</svg>
