<svg width="24" height="24" viewBox="0 0 24 24" fill="none" xmlns="http://www.w3.org/2000/svg">
<path d="M12.3648 21.4416H7.18781C6.74448 21.4398 6.30908 21.3238 5.92371 21.1046C5.53833 20.8855 5.21599 20.5707 4.98779 20.1906L2.61578 16.2126C2.38018 15.8153 2.25586 15.362 2.25586 14.9001C2.25586 14.4382 2.38018 13.9848 2.61578 13.5876L8.43677 3.81059C8.66491 3.43039 8.98725 3.11543 9.37262 2.89612C9.75799 2.67681 10.1934 2.56056 10.6368 2.55859H14.0928C14.5365 2.56008 14.9723 2.67634 15.3578 2.89607C15.7433 3.11581 16.0654 3.43155 16.2928 3.81259L20.8718 11.5046C20.9232 11.5893 20.9574 11.6833 20.9723 11.7812C20.9872 11.8792 20.9826 11.9791 20.9586 12.0752C20.9347 12.1714 20.8919 12.2618 20.8328 12.3413C20.7737 12.4208 20.6995 12.4879 20.6143 12.5385C20.5292 12.5892 20.4349 12.6225 20.3368 12.6365C20.2387 12.6505 20.1388 12.6449 20.0429 12.6201C19.947 12.5953 19.857 12.5517 19.778 12.4919C19.699 12.4321 19.6326 12.3572 19.5828 12.2716L15.0038 4.57858C14.9092 4.42042 14.7754 4.28942 14.6152 4.1983C14.4551 4.10718 14.274 4.05906 14.0898 4.05859H10.6338C10.4496 4.05945 10.2687 4.10774 10.1086 4.19882C9.94855 4.2899 9.81463 4.42069 9.71979 4.57858L3.89978 14.3536C3.80183 14.5189 3.75018 14.7075 3.75018 14.8996C3.75018 15.0917 3.80183 15.2803 3.89978 15.4456L6.27081 19.4226C6.36578 19.5803 6.49971 19.7109 6.65979 19.8018C6.81987 19.8927 7.00072 19.9408 7.18481 19.9416H12.3618C12.5607 19.9416 12.7515 20.0206 12.8922 20.1613C13.0328 20.3019 13.1118 20.4927 13.1118 20.6916C13.1118 20.8905 13.0328 21.0813 12.8922 21.2219C12.7515 21.3626 12.5607 21.4416 12.3618 21.4416H12.3648Z" fill="black"/>
<path d="M12.818 15.5625H3C2.80109 15.5625 2.61032 15.4835 2.46967 15.3428C2.32901 15.2022 2.25 15.0114 2.25 14.8125C2.25 14.6136 2.32901 14.4228 2.46967 14.2822C2.61032 14.1415 2.80109 14.0625 3 14.0625H12.818C13.0169 14.0625 13.2077 14.1415 13.3483 14.2822C13.489 14.4228 13.568 14.6136 13.568 14.8125C13.568 15.0114 13.489 15.2022 13.3483 15.3428C13.2077 15.4835 13.0169 15.5625 12.818 15.5625Z" fill="black"/>
<path d="M14.2628 13.216C14.1248 13.2161 13.9894 13.1781 13.8716 13.1063C13.7538 13.0345 13.6579 12.9316 13.5947 12.809L9.02076 3.91999C8.97176 3.83212 8.94093 3.73529 8.93012 3.63527C8.91931 3.53525 8.92874 3.43409 8.95783 3.33779C8.98693 3.24149 9.03511 3.15201 9.0995 3.07471C9.16388 2.99741 9.24314 2.93384 9.33259 2.88781C9.42204 2.84177 9.51986 2.81421 9.62019 2.80675C9.72051 2.79929 9.8213 2.8121 9.91657 2.8444C10.0118 2.87669 10.0996 2.92783 10.1748 2.99476C10.2499 3.06169 10.3108 3.14304 10.3538 3.23398L14.9288 12.123C14.9872 12.2373 15.0154 12.3646 15.0106 12.4929C15.0059 12.6212 14.9683 12.7461 14.9015 12.8558C14.8347 12.9654 14.7409 13.0561 14.6291 13.1191C14.5173 13.1822 14.3911 13.2155 14.2628 13.216Z" fill="black"/>
<path d="M6.3472 21.1759C6.21858 21.1758 6.09219 21.1427 5.98008 21.0796C5.86797 21.0166 5.77395 20.9258 5.70707 20.8159C5.64019 20.706 5.60264 20.5808 5.59812 20.4523C5.5936 20.3237 5.62226 20.1962 5.68125 20.0819L14.3712 3.2299C14.4666 3.06059 14.624 2.93486 14.8102 2.87916C14.9964 2.82346 15.1969 2.84212 15.3697 2.93121C15.5424 3.02029 15.6739 3.17287 15.7365 3.35688C15.7991 3.54089 15.7879 3.74198 15.7052 3.9179L7.01523 20.7699C6.95163 20.8922 6.85572 20.9947 6.73795 21.0662C6.62018 21.1378 6.48502 21.1757 6.3472 21.1759Z" fill="black"/>
<path d="M18.582 21.167C18.3831 21.167 18.1924 21.088 18.0518 20.9474C17.9111 20.8067 17.832 20.616 17.832 20.417V18.75H16.1641C15.9652 18.75 15.7744 18.671 15.6337 18.5304C15.4931 18.3897 15.4141 18.1989 15.4141 18C15.4141 17.8011 15.4931 17.6103 15.6337 17.4697C15.7744 17.329 15.9652 17.25 16.1641 17.25H17.832V15.582C17.832 15.3831 17.9111 15.1923 18.0518 15.0517C18.1924 14.911 18.3831 14.832 18.582 14.832C18.7809 14.832 18.9717 14.911 19.1124 15.0517C19.253 15.1923 19.332 15.3831 19.332 15.582V17.25H21.0001C21.199 17.25 21.3897 17.329 21.5304 17.4697C21.671 17.6103 21.7501 17.8011 21.7501 18C21.7501 18.1989 21.671 18.3897 21.5304 18.5304C21.3897 18.671 21.199 18.75 21.0001 18.75H19.332V20.417C19.332 20.616 19.253 20.8067 19.1124 20.9474C18.9717 21.088 18.7809 21.167 18.582 21.167Z" fill="black"/>
</svg>
