<svg width="24" height="24" viewBox="0 0 24 24" fill="none" xmlns="http://www.w3.org/2000/svg">
<path fill-rule="evenodd" clip-rule="evenodd" d="M3.7402 3.89737C4.72468 2.84117 6.12669 2.25 7.78216 2.25H16.2169C17.8762 2.25 19.2788 2.84084 20.2629 3.89765C21.2413 4.94841 21.75 6.39889 21.75 8.02638V15.9736C21.75 17.6011 21.2413 19.0516 20.2627 20.1024C19.2785 21.1592 17.8756 21.75 16.2159 21.75H7.78216C6.1228 21.75 4.72038 21.1591 3.73657 20.1023C2.75842 19.0515 2.25 17.601 2.25 15.9736V8.02638C2.25 6.39806 2.76117 4.94771 3.7402 3.89737ZM4.83745 4.92012C4.16024 5.64666 3.75 6.70951 3.75 8.02638V15.9736C3.75 17.2914 4.15861 18.3541 4.83451 19.0802C5.50475 19.8003 6.49341 20.25 7.78216 20.25H16.2159C17.5052 20.25 18.4944 19.8002 19.165 19.0801C19.8412 18.354 20.25 17.2913 20.25 15.9736V8.02638C20.25 6.70868 19.8412 5.64597 19.1651 4.91984C18.4946 4.19975 17.5056 3.75 16.2169 3.75H7.78216C6.49828 3.75 5.50921 4.19943 4.83745 4.92012Z" fill="black"/>
<path fill-rule="evenodd" clip-rule="evenodd" d="M9.25192 8.86687C9.81346 8.12473 10.717 7.53125 11.9998 7.53125C13.283 7.53125 14.1866 8.12465 14.7481 8.86695C15.1074 9.34197 15.3296 9.87958 15.4376 10.3685C15.9952 10.4822 16.5109 10.7359 16.9249 11.1309C17.5057 11.6851 17.8355 12.4697 17.8355 13.3894C17.8355 14.6413 17.0927 15.7227 16.02 16.2083C16.0099 16.2129 15.9996 16.2173 15.9893 16.2214C15.5493 16.3974 15.1126 16.4638 14.765 16.4638H9.23071C8.87956 16.4638 8.44325 16.3928 8.00955 16.2174C8.00025 16.2136 7.99103 16.2097 7.98189 16.2055C6.91182 15.7218 6.16406 14.6434 6.16406 13.3894C6.16406 12.4697 6.49387 11.6851 7.07472 11.1309C7.48868 10.7359 8.00441 10.4822 8.56204 10.3685C8.67017 9.87948 8.89253 9.34185 9.25192 8.86687ZM10.4481 9.77195C10.1137 10.2138 9.98266 10.7457 9.98266 11.0494C9.98266 11.4609 9.65102 11.7956 9.23949 11.7993C8.76348 11.8037 8.37451 11.964 8.11022 12.2161C7.85236 12.4622 7.66406 12.8418 7.66406 13.3894C7.66406 14.0274 8.04067 14.5797 8.58624 14.8325C8.83065 14.9291 9.0693 14.9638 9.23071 14.9638H14.765C14.9315 14.9638 15.171 14.9305 15.4164 14.8349C15.9605 14.5817 16.3355 14.0288 16.3355 13.3894C16.3355 12.8418 16.1472 12.4622 15.8894 12.2161C15.6251 11.964 15.2361 11.8037 14.7601 11.7993C14.3486 11.7956 14.0169 11.4609 14.0169 11.0494C14.0169 10.7455 13.886 10.2136 13.5518 9.77187C13.2408 9.36071 12.7608 9.03125 11.9998 9.03125C11.2393 9.03125 10.7593 9.36064 10.4481 9.77195Z" fill="black"/>
</svg>
