<svg width="24" height="24" viewBox="0 0 24 24" fill="none" xmlns="http://www.w3.org/2000/svg">
<path fill-rule="evenodd" clip-rule="evenodd" d="M12.5297 2.96808C12.6707 3.10878 12.75 3.29981 12.75 3.49902V18.3229C12.75 18.7366 12.415 19.0722 12.0013 19.0729C11.9232 19.073 11.8452 19.0914 11.7734 19.1284C11.7732 19.1285 11.7736 19.1283 11.7734 19.1284L8.12066 21.0216C7.15615 21.5312 5.96163 21.1633 5.45019 20.2001L5.44922 20.1983C5.24902 19.8187 5.17581 19.3837 5.24534 18.9568L5.2467 18.9485L5.94675 14.9355C5.97255 14.7878 5.92302 14.6363 5.81356 14.5317L5.81225 14.5305L2.85125 11.6885L2.84989 11.6872C2.07146 10.9362 2.04677 9.69589 2.79827 8.91523C3.10532 8.59688 3.51175 8.39152 3.94941 8.33247L8.0357 7.74402L8.03836 7.74364C8.19399 7.72179 8.32955 7.62508 8.4008 7.4849C8.40095 7.48459 8.40111 7.48428 8.40127 7.48398L10.2356 3.82331C10.5892 3.14073 11.2826 2.75069 11.9983 2.74903C12.1975 2.74856 12.3887 2.82737 12.5297 2.96808ZM11.25 5.14717L9.74112 8.15835L9.73992 8.16074C9.44725 8.73965 8.88967 9.1384 8.24822 9.22888C8.24776 9.22895 8.2473 9.22901 8.24684 9.22908L4.15108 9.8189C4.04663 9.83274 3.95049 9.88142 3.87865 9.9558C3.7026 10.139 3.70781 10.4301 3.89078 10.6071C3.89096 10.6073 3.89061 10.6069 3.89078 10.6071L6.84963 13.447C6.84985 13.4472 6.8494 13.4468 6.84963 13.447C7.31966 13.8964 7.53652 14.5513 7.42444 15.1933C7.42443 15.1933 7.42445 15.1932 7.42444 15.1933L6.72532 19.2011C6.70977 19.3009 6.72659 19.4044 6.77549 19.4975C6.89967 19.7303 7.18835 19.8183 7.42091 19.6948L7.42745 19.6914L11.0835 17.7965C11.1378 17.7684 11.1939 17.7426 11.25 17.7198V5.14717Z" fill="black"/>
</svg>
