<svg width="24" height="24" viewBox="0 0 24 24" fill="none" xmlns="http://www.w3.org/2000/svg">
<path d="M9.34149 20.2664C9.08118 20.2663 8.82581 20.1953 8.60278 20.061C8.37975 19.9268 8.19748 19.7344 8.0755 19.5044C7.92854 19.2288 7.87651 18.9125 7.92749 18.6044L8.31549 16.3754L6.7015 14.8754C6.50897 14.6903 6.37251 14.4546 6.30786 14.1955C6.2432 13.9364 6.25295 13.6642 6.33597 13.4104C6.41898 13.1565 6.57191 12.9312 6.77719 12.7604C6.98247 12.5895 7.23178 12.48 7.49649 12.4444L9.75351 12.1204L10.7175 10.1354C10.8926 9.79542 11.1955 9.53888 11.5597 9.42224C11.9239 9.30559 12.3195 9.33839 12.6595 9.51341C12.925 9.64909 13.1407 9.86545 13.2755 10.1314V10.1314L14.2885 12.1534L16.5025 12.4414C16.8741 12.4929 17.2103 12.6893 17.4375 12.9877C17.6648 13.2862 17.7647 13.6625 17.7155 14.0344C17.6729 14.3516 17.525 14.6453 17.2955 14.8684L15.6555 16.4444L16.0665 18.5904C16.11 18.8532 16.0792 19.1228 15.9778 19.3691C15.8763 19.6153 15.7082 19.8283 15.4922 19.9842C15.2763 20.1401 15.0211 20.2326 14.7555 20.2514C14.4898 20.2701 14.2242 20.2144 13.9885 20.0904L11.9685 19.0444L10.0015 20.0924C9.79922 20.204 9.57247 20.2637 9.34149 20.2664V20.2664ZM11.9975 17.5614C12.2278 17.561 12.4548 17.6159 12.6595 17.7214L14.5595 18.7084L14.1965 16.6344C14.1561 16.4043 14.1736 16.1678 14.2472 15.9461C14.3209 15.7245 14.4485 15.5246 14.6185 15.3644L16.1515 13.8914L14.0215 13.6064C13.7922 13.5746 13.5741 13.4874 13.3863 13.3521C13.1984 13.2169 13.0464 13.0378 12.9435 12.8304L11.9585 10.8634L11.0405 12.8324C10.9367 13.039 10.7844 13.2173 10.5967 13.3523C10.409 13.4872 10.1914 13.5748 9.96249 13.6074L7.85449 13.9074L9.3735 15.3664C9.54176 15.5266 9.66777 15.726 9.74035 15.9467C9.81293 16.1674 9.82982 16.4026 9.78949 16.6314L9.42849 18.7044L11.3285 17.7184C11.5357 17.6132 11.7651 17.5594 11.9975 17.5614V17.5614Z" fill="black"/>
<path d="M18.9245 19.4418C18.6927 19.4418 18.4644 19.3852 18.2595 19.2768L17.1015 18.6768C16.9316 18.5816 16.8054 18.4241 16.7495 18.2376C16.6937 18.051 16.7125 17.8501 16.8021 17.6772C16.8918 17.5043 17.0451 17.3731 17.2298 17.3112C17.4144 17.2494 17.6158 17.2618 17.7915 17.3458L18.8325 17.8848L18.4715 15.8118C18.4307 15.5826 18.4473 15.347 18.5199 15.1258C18.5925 14.9047 18.7188 14.7051 18.8875 14.5448L20.4245 13.0688L18.2975 12.7858C18.069 12.7536 17.8517 12.6666 17.6641 12.5321C17.4766 12.3977 17.3243 12.2198 17.2205 12.0138L16.2705 10.1138L15.8335 10.9818C15.7433 11.1579 15.587 11.2913 15.3988 11.3527C15.2107 11.4142 15.0058 11.3988 14.829 11.3098C14.6522 11.2209 14.5177 11.0656 14.4548 10.8779C14.392 10.6902 14.4059 10.4853 14.4935 10.3078L14.9935 9.31676C15.1135 9.08097 15.2964 8.88298 15.522 8.74469C15.7475 8.6064 16.0069 8.5332 16.2715 8.5332C16.5361 8.5332 16.7955 8.6064 17.021 8.74469C17.2466 8.88298 17.4295 9.08097 17.5495 9.31676L18.5635 11.3418L20.7765 11.6298C21.1484 11.6807 21.485 11.877 21.7125 12.1755C21.9401 12.4741 22.04 12.8507 21.9905 13.2228C21.9471 13.5412 21.7978 13.8356 21.5665 14.0588L19.9295 15.6318L20.3405 17.7788C20.3712 17.9647 20.3651 18.1548 20.3223 18.3383C20.2795 18.5218 20.201 18.6951 20.0912 18.8482C19.9815 19.0014 19.8426 19.1314 19.6825 19.2308C19.5225 19.3302 19.3444 19.3972 19.1585 19.4278C19.081 19.4385 19.0028 19.4432 18.9245 19.4418Z" fill="black"/>
<path d="M9.36307 8.02491C9.2514 8.02505 9.14112 8.00025 9.04025 7.95233C8.93939 7.90441 8.85052 7.83457 8.78009 7.74791L8.10507 6.91691C7.98178 6.76233 7.92452 6.56532 7.94574 6.36874C7.96696 6.17216 8.06494 5.9919 8.21838 5.8672C8.37183 5.7425 8.56831 5.68343 8.76508 5.70285C8.96185 5.72227 9.14297 5.81861 9.26907 5.97091L9.94409 6.80191C10.0334 6.91186 10.0898 7.04486 10.1067 7.18552C10.1236 7.32619 10.1003 7.46876 10.0395 7.59673C9.9787 7.7247 9.88289 7.83284 9.76318 7.90861C9.64348 7.98439 9.50474 8.02471 9.36307 8.02491V8.02491ZM14.5431 7.98391C14.3942 7.98398 14.2486 7.93971 14.1249 7.85674C14.0012 7.77377 13.905 7.65586 13.8486 7.51803C13.7922 7.38019 13.7781 7.22869 13.8081 7.08281C13.8381 6.93693 13.9109 6.80328 14.0171 6.6989L14.7791 5.9489C14.8493 5.87983 14.9325 5.82527 15.0239 5.78834C15.1152 5.7514 15.2129 5.73283 15.3114 5.73366C15.41 5.7345 15.5074 5.75474 15.5981 5.79321C15.6888 5.83169 15.771 5.88765 15.8401 5.95791C15.9092 6.02816 15.9637 6.11134 16.0006 6.20268C16.0376 6.29402 16.0562 6.39175 16.0553 6.49027C16.0545 6.58879 16.0343 6.68619 15.9958 6.77689C15.9573 6.86759 15.9013 6.94983 15.8311 7.0189L15.0691 7.7689C14.9291 7.90752 14.7401 7.98547 14.5431 7.98591V7.98391ZM11.9661 6.3099H11.9531C11.7564 6.30649 11.569 6.22598 11.4311 6.08569C11.2933 5.94541 11.216 5.75658 11.2161 5.5599V5.5469L11.2341 4.4779C11.2358 4.27899 11.3165 4.08891 11.4583 3.94948C11.6002 3.81004 11.7917 3.73268 11.9906 3.7344C12.1895 3.73613 12.3796 3.8168 12.519 3.95867C12.6584 4.10054 12.7358 4.29199 12.7341 4.4909V4.5029L12.7161 5.5729C12.7124 5.76947 12.6318 5.95677 12.4916 6.09456C12.3513 6.23236 12.1627 6.30968 11.9661 6.3099V6.3099Z" fill="black"/>
<path d="M5.07166 19.4412C4.86446 19.4421 4.65958 19.3977 4.47126 19.3113C4.28294 19.2249 4.1157 19.0985 3.98121 18.9408C3.84672 18.7832 3.74819 18.5982 3.69248 18.3986C3.63678 18.199 3.62525 17.9897 3.65867 17.7852L4.04667 15.5542L2.43467 14.0542C2.20284 13.8312 2.05338 13.5361 2.01066 13.2172C1.9858 13.0322 1.99777 12.8441 2.04585 12.6637C2.09393 12.4833 2.17719 12.3141 2.29084 12.166C2.40449 12.0179 2.54627 11.8937 2.70808 11.8005C2.86988 11.7074 3.04849 11.6471 3.23365 11.6232L5.48667 11.2982L6.44868 9.31424C6.60308 9.01006 6.86085 8.77088 7.17573 8.63965C7.4906 8.50842 7.84194 8.49374 8.16667 8.59824C8.34633 8.65508 8.51289 8.74714 8.65659 8.86904C8.8003 8.99094 8.91829 9.14025 9.00367 9.30824L9.50367 10.3082C9.5913 10.4857 9.60521 10.6907 9.54237 10.8784C9.47952 11.0661 9.345 11.2213 9.16816 11.3103C8.99132 11.3992 8.7865 11.4147 8.59834 11.3532C8.41017 11.2918 8.25393 11.1584 8.16367 10.9822L7.72266 10.1042L6.77766 12.0122C6.67346 12.2191 6.52072 12.3977 6.33247 12.5327C6.14421 12.6676 5.92605 12.755 5.69666 12.7872L3.57166 13.0852L5.10966 14.5402C5.27841 14.7009 5.40458 14.901 5.47685 15.1225C5.54911 15.344 5.5652 15.58 5.52366 15.8092L5.16065 17.8932L6.20466 17.3402C6.38034 17.2562 6.58179 17.2439 6.76643 17.3057C6.95107 17.3676 7.10442 17.4988 7.19404 17.6717C7.28366 17.8446 7.30252 18.0455 7.24665 18.2321C7.19078 18.4186 7.06456 18.5761 6.89466 18.6712L5.73365 19.2712C5.53018 19.3811 5.3029 19.4395 5.07166 19.4412Z" fill="black"/>
</svg>
