<svg width="24" height="24" viewBox="0 0 24 24" fill="none" xmlns="http://www.w3.org/2000/svg">
<path fill-rule="evenodd" clip-rule="evenodd" d="M11.6542 17.3505C11.8719 17.2371 12.1313 17.2373 12.3487 17.3512L13.5177 17.9632C13.8847 18.1553 14.0264 18.6085 13.8343 18.9755C13.6422 19.3424 13.189 19.4842 12.822 19.2921L12.0001 18.8618L10.9325 19.4182C10.5652 19.6097 10.1122 19.4671 9.92076 19.0998C9.72932 18.7324 9.87189 18.2795 10.2392 18.088L11.6542 17.3505Z" fill="black"/>
<path fill-rule="evenodd" clip-rule="evenodd" d="M5.86426 13.2999C6.1517 13.0016 6.62649 12.9928 6.92474 13.2803L7.55075 13.8836C7.72954 14.0559 7.81146 14.3055 7.76954 14.5502L7.56754 15.7294C7.49761 16.1377 7.10995 16.412 6.70168 16.342C6.29341 16.2721 6.01914 15.8845 6.08908 15.4762L6.22406 14.6882L5.88385 14.3603C5.5856 14.0729 5.57683 13.5981 5.86426 13.2999Z" fill="black"/>
<path fill-rule="evenodd" clip-rule="evenodd" d="M9.98576 6.48845C10.3567 6.67272 10.5081 7.12283 10.3238 7.4938L9.5998 8.9513C9.49027 9.1718 9.27948 9.3245 9.03583 9.35986L7.60782 9.56711C7.1979 9.62661 6.81737 9.34253 6.75787 8.93261C6.69838 8.52269 6.98246 8.14216 7.39238 8.08267L8.43131 7.93188L8.98041 6.82648C9.16469 6.45552 9.6148 6.30417 9.98576 6.48845Z" fill="black"/>
<path fill-rule="evenodd" clip-rule="evenodd" d="M14.3752 7.21696C14.7462 7.03269 15.1963 7.18403 15.3806 7.555L15.5675 7.93135L16.4851 8.06385C16.895 8.12306 17.1794 8.50339 17.1202 8.91336C17.061 9.32332 16.6806 9.60766 16.2707 9.54845L14.9637 9.3597C14.7198 9.32448 14.5088 9.17173 14.3992 8.95106L14.0372 8.22231C13.8529 7.85135 14.0043 7.40123 14.3752 7.21696Z" fill="black"/>
<path fill-rule="evenodd" clip-rule="evenodd" d="M18.4506 12.9831C18.7393 13.2802 18.7325 13.755 18.4355 14.0437L17.7749 14.6857L17.9309 15.5922C18.0011 16.0004 17.7271 16.3883 17.3189 16.4585C16.9107 16.5287 16.5229 16.2548 16.4526 15.8465L16.2296 14.5505C16.1877 14.3067 16.2686 14.0579 16.446 13.8855L17.39 12.968C17.6871 12.6793 18.1619 12.6861 18.4506 12.9831Z" fill="black"/>
<path fill-rule="evenodd" clip-rule="evenodd" d="M6.43245 17.8958C6.84057 17.9665 7.11406 18.3548 7.0433 18.7629L6.87657 19.7246C6.87655 19.7247 6.87652 19.7249 6.8765 19.725C6.87313 19.7451 6.87648 19.7534 6.8782 19.7573C6.8812 19.7642 6.88827 19.7747 6.90153 19.7842C6.9148 19.7938 6.92813 19.7979 6.93797 19.7988C6.94481 19.7995 6.95619 19.7995 6.97596 19.7891L6.97817 19.7879L6.97817 19.7879L7.74117 19.3909C8.10862 19.1997 8.56148 19.3426 8.75267 19.7101C8.94386 20.0775 8.80098 20.5304 8.43353 20.7216L7.67145 21.1181C6.53246 21.7143 5.17742 20.7596 5.3981 19.4713L5.39836 19.4698L5.39836 19.4698L5.56535 18.5066C5.63611 18.0985 6.02432 17.825 6.43245 17.8958Z" fill="black"/>
<path fill-rule="evenodd" clip-rule="evenodd" d="M17.5141 17.5635C17.9224 17.4936 18.31 17.7678 18.38 18.1761L18.6018 19.4712C18.6018 19.4714 18.6018 19.471 18.6018 19.4712C18.8239 20.7609 17.4688 21.7152 16.3296 21.1193L15.1636 20.5171C14.7955 20.327 14.6513 19.8746 14.8413 19.5066C15.0314 19.1386 15.4838 18.9943 15.8519 19.1844L17.0245 19.79C17.0448 19.8006 17.0565 19.8006 17.0634 19.8C17.0732 19.7991 17.0863 19.795 17.0993 19.7856C17.1123 19.7763 17.1192 19.7661 17.1221 19.7593C17.1238 19.7555 17.1272 19.747 17.1237 19.7263L16.9015 18.4294C16.8315 18.0211 17.1058 17.6334 17.5141 17.5635Z" fill="black"/>
<path fill-rule="evenodd" clip-rule="evenodd" d="M10.5957 3.56964C11.1716 2.41168 12.8289 2.41168 13.4048 3.56964L13.4052 3.57058L14.2972 5.37057C14.4812 5.74171 14.3294 6.19168 13.9582 6.3756C13.5871 6.55952 13.1371 6.40775 12.9532 6.03661L12.0617 4.23757C12.0616 4.23748 12.0617 4.23765 12.0617 4.23757C12.0527 4.21955 12.0445 4.21366 12.0392 4.21057C12.0313 4.20586 12.0178 4.20117 12.0002 4.20117C11.9827 4.20117 11.9692 4.20586 11.9612 4.21057C11.9559 4.21367 11.9478 4.21933 11.9388 4.2375C11.9388 4.23752 11.9388 4.23748 11.9388 4.2375L11.4919 5.13721C11.3077 5.50818 10.8576 5.65956 10.4866 5.47531C10.1156 5.29106 9.96427 4.84095 10.1485 4.46998L10.5957 3.56964Z" fill="black"/>
<path fill-rule="evenodd" clip-rule="evenodd" d="M5.44232 9.12344C5.50141 9.53342 5.21696 9.91368 4.80699 9.97277L3.80988 10.1165C3.78724 10.12 3.77796 10.1269 3.77317 10.1311C3.76609 10.1373 3.75837 10.1478 3.7537 10.1621C3.74903 10.1764 3.74958 10.1878 3.75101 10.1941L3.75102 10.1941C3.75176 10.1973 3.75368 10.2058 3.76865 10.2202L3.77115 10.2226L3.77114 10.2226L5.05114 11.4641C5.34847 11.7525 5.35572 12.2273 5.06733 12.5246C4.77894 12.8219 4.30413 12.8292 4.0068 12.5408L2.72785 11.3003C1.78343 10.3906 2.31821 8.82072 3.59128 8.63251L3.59396 8.63211L3.59397 8.63212L4.59299 8.48812C5.00296 8.42902 5.38322 8.71347 5.44232 9.12344Z" fill="black"/>
<path fill-rule="evenodd" clip-rule="evenodd" d="M18.25 9.07835C18.3092 8.66839 18.6895 8.38403 19.0995 8.44322L20.4091 8.6323C21.6818 8.82064 22.2168 10.39 21.2727 11.2998L20.33 12.216C20.033 12.5047 19.5582 12.498 19.2695 12.2009C18.9808 11.9039 18.9875 11.4291 19.2846 11.1404L20.2316 10.2199C20.2466 10.2056 20.2485 10.1971 20.2492 10.1939C20.2507 10.1876 20.2512 10.1762 20.2466 10.1619C20.2419 10.1476 20.2342 10.1371 20.2271 10.1309C20.2223 10.1267 20.2129 10.1197 20.1902 10.1163L18.8851 9.92783C18.4752 9.86864 18.1908 9.48831 18.25 9.07835Z" fill="black"/>
</svg>
