<svg width="24" height="24" viewBox="0 0 24 24" fill="none" xmlns="http://www.w3.org/2000/svg">
<path fill-rule="evenodd" clip-rule="evenodd" d="M4.83745 4.89668C4.16024 5.62322 3.75 6.68607 3.75 8.00293V15.9501C3.75 17.268 4.15861 18.3307 4.83451 19.0568C5.50475 19.7768 6.49341 20.2265 7.78216 20.2265H16.2159C17.5052 20.2265 18.4944 19.7767 19.165 19.0567C19.8412 18.3305 20.25 17.2678 20.25 15.9501V8.00293C20.25 6.68523 19.8412 5.62252 19.1651 4.8964C18.4946 4.17631 17.5057 3.72656 16.2169 3.72656H7.78216C6.49828 3.72656 5.50921 4.17599 4.83745 4.89668ZM3.7402 3.87392C4.72468 2.81773 6.12669 2.22656 7.78216 2.22656H16.2169C17.8762 2.22656 19.2789 2.81741 20.2629 3.87421C21.2413 4.92497 21.75 6.37545 21.75 8.00293V15.9501C21.75 17.5776 21.2413 19.0281 20.2627 20.0789C19.2785 21.1357 17.8757 21.7265 16.2159 21.7265H7.78216C6.1228 21.7265 4.72038 21.1357 3.73657 20.0788C2.75842 19.028 2.25 17.5775 2.25 15.9501V8.00293C2.25 6.37461 2.76117 4.92427 3.7402 3.87392Z" fill="black"/>
<path fill-rule="evenodd" clip-rule="evenodd" d="M12.0009 8.80131L12.7469 10.292C12.9452 10.6865 13.3244 10.9571 13.7594 11.0187C13.76 11.0188 13.7605 11.0188 13.761 11.0189L15.4091 11.2563L14.2252 12.3937C14.2247 12.3943 14.2241 12.3948 14.2236 12.3953C13.9027 12.7018 13.7552 13.1482 13.8324 13.5867C13.8325 13.5871 13.8325 13.5874 13.8326 13.5878L14.1152 15.2076L12.6235 14.4343C12.2335 14.2328 11.7695 14.2324 11.3795 14.4339L9.88643 15.2077L10.1693 13.5863C10.1693 13.5863 10.1693 13.5862 10.1693 13.5863C10.2457 13.1484 10.0983 12.7021 9.77806 12.3958C9.77781 12.3956 9.77757 12.3953 9.77733 12.3951L8.59127 11.2567L10.2409 11.0192C10.6761 10.9575 11.0543 10.6869 11.253 10.294L12.0009 8.80131ZM12.6213 7.26637C11.96 6.92423 11.146 7.1819 10.803 7.84386L9.95023 9.54555L8.05382 9.81864C7.75679 9.85914 7.48113 9.99838 7.27231 10.2149C6.76046 10.7466 6.77691 11.5918 7.30691 12.1031L7.30827 12.1044L8.6761 13.4173L8.35315 15.2687L8.35175 15.277C8.30442 15.5675 8.35438 15.8631 8.49002 16.1202L8.49099 16.1221C8.83814 16.7759 9.64872 17.026 10.3038 16.6809L12.001 15.8012L13.6976 16.6806C13.9544 16.8157 14.2481 16.8642 14.5352 16.8185L14.5367 16.8183C15.2688 16.7003 15.7683 16.0114 15.65 15.2777L15.3254 13.4168L16.6932 12.1027C16.9107 11.8929 17.0504 11.6154 17.0901 11.3169L17.0902 11.3157C17.1857 10.5878 16.6757 9.91696 15.946 9.81811L14.0505 9.54514L13.2039 7.85325L13.1992 7.84415C13.0712 7.5968 12.8697 7.39463 12.6213 7.26637Z" fill="black"/>
<path fill-rule="evenodd" clip-rule="evenodd" d="M12 2.22656C12.4142 2.22656 12.75 2.56235 12.75 2.97656V5.58531C12.75 5.99952 12.4142 6.33531 12 6.33531C11.5858 6.33531 11.25 5.99952 11.25 5.58531V2.97656C11.25 2.56235 11.5858 2.22656 12 2.22656Z" fill="black"/>
<path fill-rule="evenodd" clip-rule="evenodd" d="M12 16.8203C12.4142 16.8203 12.75 17.1561 12.75 17.5703V20.9632C12.75 21.3774 12.4142 21.7132 12 21.7132C11.5858 21.7132 11.25 21.3774 11.25 20.9632V17.5703C11.25 17.1561 11.5858 16.8203 12 16.8203Z" fill="black"/>
<path fill-rule="evenodd" clip-rule="evenodd" d="M14.9316 2.22656C15.3459 2.22656 15.6816 2.56235 15.6816 2.97656V7.93602C15.6816 8.35024 15.3459 8.68602 14.9316 8.68602C14.5174 8.68602 14.1816 8.35024 14.1816 7.93602V2.97656C14.1816 2.56235 14.5174 2.22656 14.9316 2.22656ZM14.9316 17.3595C15.3459 17.3595 15.6816 17.6953 15.6816 18.1095V20.9765C15.6816 21.3908 15.3459 21.7265 14.9316 21.7265C14.5174 21.7265 14.1816 21.3908 14.1816 20.9765V18.1095C14.1816 17.6953 14.5174 17.3595 14.9316 17.3595Z" fill="black"/>
<path fill-rule="evenodd" clip-rule="evenodd" d="M18 2.51465C18.4142 2.51465 18.75 2.85043 18.75 3.26465V8.58914C18.75 9.00335 18.4142 9.33914 18 9.33914C17.5858 9.33914 17.25 9.00335 17.25 8.58914V3.26465C17.25 2.85043 17.5858 2.51465 18 2.51465ZM18 12.7375C18.4142 12.7375 18.75 13.0733 18.75 13.4875V20.6738C18.75 21.088 18.4142 21.4238 18 21.4238C17.5858 21.4238 17.25 21.088 17.25 20.6738V13.4875C17.25 13.0733 17.5858 12.7375 18 12.7375Z" fill="black"/>
</svg>
