<svg width="24" height="24" viewBox="0 0 24 24" fill="none" xmlns="http://www.w3.org/2000/svg">
<path fill-rule="evenodd" clip-rule="evenodd" d="M12.4307 4.50991L14.2589 8.15837L14.2601 8.16076C14.5528 8.73966 15.1103 9.13841 15.7518 9.2289C15.7522 9.22897 15.7527 9.22903 15.7532 9.2291L19.8489 9.81892C19.9534 9.83276 20.0495 9.88144 20.1213 9.95581C20.2974 10.139 20.2922 10.4301 20.1092 10.6071C20.1091 10.6073 20.1094 10.6069 20.1092 10.6071L17.1504 13.4471C17.1501 13.4473 17.1498 13.4476 17.1496 13.4478C16.6796 13.8972 16.4635 14.5514 16.5756 15.1933C16.5756 15.1933 16.5756 15.1932 16.5756 15.1933L17.2747 19.2012C17.2902 19.301 17.2734 19.4044 17.2245 19.4976C17.1003 19.7303 16.8116 19.8183 16.5791 19.6949L16.5726 19.6914L12.9165 17.7965C12.3406 17.4989 11.6561 17.4985 11.0801 17.7961L7.41936 19.6936C7.3272 19.7424 7.22211 19.76 7.11921 19.7439C6.85886 19.7016 6.6826 19.4581 6.72227 19.1994L7.42097 15.1949C7.42103 15.1946 7.42092 15.1953 7.42097 15.1949C7.53434 14.5517 7.3183 13.8961 6.84689 13.4465C6.84643 13.446 6.84598 13.4456 6.84552 13.4452L3.89106 10.6066C3.89096 10.6065 3.89117 10.6067 3.89106 10.6066C3.81666 10.5347 3.7678 10.4383 3.75396 10.3353C3.72099 10.0816 3.8994 9.85089 4.15003 9.81799L4.15933 9.81677L8.24666 9.2281C8.24713 9.22803 8.24761 9.22796 8.24809 9.2279C8.88926 9.13743 9.44767 8.73869 9.73949 8.15828L11.5653 4.50962C11.6123 4.42064 11.6842 4.34979 11.771 4.30505L11.7724 4.30432C12.0119 4.18025 12.3054 4.2727 12.4307 4.50991ZM11.0831 2.97209C12.0583 2.46731 13.2587 2.8474 13.7644 3.82336L15.5987 7.484C15.5989 7.4843 15.5991 7.48461 15.5992 7.48492C15.6705 7.6251 15.806 7.72181 15.9617 7.74366L20.0506 8.33249C20.4883 8.39153 20.8942 8.59639 21.2012 8.91475C21.9528 9.6954 21.9285 10.9363 21.1501 11.6872L21.1488 11.6885L18.1878 14.5305L18.1864 14.5317C18.077 14.6363 18.0274 14.7876 18.0532 14.9353L18.7533 18.9485L18.7547 18.9568C18.8242 19.3837 18.751 19.8187 18.5508 20.1983L18.5498 20.2001C18.0384 21.1633 16.8439 21.5312 15.8794 21.0217L12.2271 19.1287C12.2273 19.1288 12.227 19.1286 12.2271 19.1287C12.0832 19.0545 11.9126 19.0544 11.7687 19.1287L8.12146 21.0192C8.1204 21.0197 8.11934 21.0203 8.11827 21.0209C7.73948 21.2206 7.30618 21.2925 6.88258 21.2251L6.88106 21.2248C5.80295 21.0511 5.06792 20.0368 5.24197 18.957L5.94358 14.9355L5.94387 14.9338C5.97001 14.786 5.92072 14.6358 5.81132 14.5316L2.84976 11.6862C2.53049 11.3783 2.3252 10.9707 2.26694 10.5322L2.26678 10.531C2.12632 9.46053 2.8772 8.47505 3.94963 8.33143L8.03551 7.74303L8.03817 7.74266C8.19427 7.72075 8.32917 7.62379 8.39918 7.4848C8.39913 7.48491 8.39923 7.48469 8.39918 7.4848L10.2267 3.83275L10.2313 3.82364C10.4203 3.45852 10.7174 3.16078 11.0831 2.97209Z" fill="black"/>
<path fill-rule="evenodd" clip-rule="evenodd" d="M12 2.74902C11.5858 2.74902 11.25 3.08481 11.25 3.49902V18.2982C11.25 18.7124 11.5858 19.0482 12 19.0482C12.4142 19.0482 12.75 18.7124 12.75 18.2982V3.49902C12.75 3.08481 12.4142 2.74902 12 2.74902Z" fill="black"/>
<path fill-rule="evenodd" clip-rule="evenodd" d="M18.0682 14.6826C18.1934 14.2878 17.9747 13.8662 17.5799 13.7411L3.29491 9.21375C2.90005 9.08861 2.47851 9.30726 2.35336 9.70212C2.22822 10.097 2.44687 10.5185 2.84173 10.6437L17.1267 15.171C17.5216 15.2961 17.9431 15.0775 18.0682 14.6826Z" fill="black"/>
<path fill-rule="evenodd" clip-rule="evenodd" d="M5.90833 14.6826C5.78319 14.2878 6.00183 13.8662 6.39669 13.7411L20.6817 9.21375C21.0765 9.08861 21.4981 9.30726 21.6232 9.70212C21.7483 10.097 21.5297 10.5185 21.1348 10.6437L6.84987 15.171C6.45501 15.2961 6.03347 15.0775 5.90833 14.6826Z" fill="black"/>
<path fill-rule="evenodd" clip-rule="evenodd" d="M15.7474 7.66701C16.0812 7.91222 16.1531 8.38163 15.9079 8.71547L7.08888 20.7218C6.84367 21.0556 6.37427 21.1275 6.04043 20.8823C5.7066 20.6371 5.63476 20.1676 5.87997 19.8338L14.6989 7.82748C14.9441 7.49365 15.4136 7.4218 15.7474 7.66701Z" fill="black"/>
<path fill-rule="evenodd" clip-rule="evenodd" d="M8.28313 7.66544C7.94842 7.90946 7.87491 8.37861 8.11893 8.71332L16.8724 20.7197C17.1165 21.0544 17.5856 21.1279 17.9203 20.8839C18.255 20.6399 18.3285 20.1707 18.0845 19.836L9.331 7.82963C9.08698 7.49493 8.61783 7.42142 8.28313 7.66544Z" fill="black"/>
</svg>
