<svg width="24" height="24" viewBox="0 0 24 24" fill="none" xmlns="http://www.w3.org/2000/svg">
<path fill-rule="evenodd" clip-rule="evenodd" d="M6.9867 4.61588L7.3876 5.41703L7.38824 5.4183C7.56524 5.77034 7.90349 6.01179 8.29154 6.06681C8.2921 6.06689 8.29266 6.06697 8.29322 6.06705L9.16973 6.19328L8.54243 6.79597C8.25573 7.06989 8.12396 7.46891 8.19289 7.86087C8.19295 7.86121 8.19301 7.86156 8.19307 7.8619L8.34353 8.72422L7.54185 8.30868C7.19419 8.12906 6.78045 8.12861 6.43279 8.30823L5.62988 8.72438L5.78059 7.86041C5.78058 7.86047 5.7806 7.86035 5.78059 7.86041C5.8489 7.46897 5.71711 7.07011 5.43101 6.79638C5.43124 6.79661 5.43077 6.79615 5.43101 6.79638L4.80297 6.19359L5.68071 6.06719C6.06903 6.01214 6.40646 5.77069 6.58368 5.42015L6.9867 4.61588ZM7.53994 2.88471C6.95025 2.57967 6.22421 2.80947 5.91832 3.39988L5.31465 4.60443L3.97474 4.79739C3.70977 4.83367 3.46383 4.95796 3.2774 5.15126C2.82013 5.62626 2.83482 6.38137 3.30823 6.83805L3.30959 6.83936L4.2745 7.76548L4.04682 9.07067L4.04542 9.07899C4.00316 9.33848 4.04782 9.60224 4.16875 9.83152L4.16972 9.83336C4.47943 10.4166 5.20251 10.64 5.7871 10.3324L6.98688 9.71055L8.18618 10.3322C8.41521 10.4525 8.6771 10.4957 8.93312 10.455L8.93463 10.4548C9.58787 10.3495 10.0337 9.73472 9.92817 9.07983L9.69883 7.76506L10.664 6.83773C10.8584 6.65029 10.9831 6.4025 11.0185 6.1358L11.0187 6.13462C11.104 5.48479 10.6489 4.88567 9.9972 4.79697L8.65814 4.60413L8.06022 3.40927L8.05559 3.40016C7.94144 3.17963 7.76171 2.99921 7.53994 2.88471ZM4.39422 7.88039C4.39378 7.87997 4.39335 7.87956 4.39291 7.87914ZM5.46793 4.58235C5.46775 4.58238 5.46812 4.58233 5.46793 4.58235Z" fill="black"/>
<path fill-rule="evenodd" clip-rule="evenodd" d="M12.8887 4.80615C12.8887 4.39194 13.2245 4.05615 13.6387 4.05615H20.3055C20.7197 4.05615 21.0555 4.39194 21.0555 4.80615C21.0555 5.22037 20.7197 5.55615 20.3055 5.55615H13.6387C13.2245 5.55615 12.8887 5.22037 12.8887 4.80615Z" fill="black"/>
<path fill-rule="evenodd" clip-rule="evenodd" d="M12.8887 8.41455C12.8887 8.00034 13.2245 7.66455 13.6387 7.66455H17.1792C17.5935 7.66455 17.9292 8.00034 17.9292 8.41455C17.9292 8.82876 17.5935 9.16455 17.1792 9.16455H13.6387C13.2245 9.16455 12.8887 8.82876 12.8887 8.41455Z" fill="black"/>
<path fill-rule="evenodd" clip-rule="evenodd" d="M6.9867 15.3955L7.3876 16.1967L7.38824 16.198C7.56524 16.55 7.90349 16.7915 8.29154 16.8465C8.2921 16.8466 8.29266 16.8466 8.29322 16.8467L9.16973 16.9729L8.54243 17.5756C8.25573 17.8496 8.12396 18.2486 8.19289 18.6405C8.19295 18.6409 8.19301 18.6412 8.19307 18.6416L8.34353 19.5039L7.54185 19.0883C7.19419 18.9087 6.78045 18.9083 6.43279 19.0879L5.62988 19.504L5.78059 18.6401C5.78058 18.6401 5.7806 18.64 5.78059 18.6401C5.8489 18.2486 5.71711 17.8498 5.43101 17.576C5.43124 17.5763 5.43077 17.5758 5.43101 17.576L4.80297 16.9733L5.68071 16.8468C6.06903 16.7918 6.40646 16.5504 6.58368 16.1998L6.9867 15.3955ZM7.53994 13.6644C6.95025 13.3593 6.22421 13.5891 5.91832 14.1795L5.31465 15.3841L3.97474 15.577C3.70977 15.6133 3.46383 15.7376 3.2774 15.9309C2.82013 16.4059 2.83482 17.161 3.30823 17.6177L3.30959 17.619L4.2745 18.5451L4.04682 19.8503L4.04542 19.8586C4.00316 20.1181 4.04782 20.3819 4.16875 20.6112L4.16972 20.613C4.47943 21.1963 5.20251 21.4196 5.7871 21.1121L6.98688 20.4902L8.18618 21.1119C8.41521 21.2322 8.6771 21.2754 8.93312 21.2347L8.93463 21.2344C9.58787 21.1291 10.0337 20.5144 9.92817 19.8595L9.69883 18.5447L10.664 17.6174C10.8584 17.43 10.9831 17.1822 11.0185 16.9155L11.0187 16.9143C11.104 16.2645 10.6489 15.6653 9.9972 15.5766L8.65814 15.3838L8.06022 14.1889L8.05559 14.1798C7.94144 13.9593 7.76171 13.7789 7.53994 13.6644ZM4.39422 18.6601C4.39378 18.6596 4.39335 18.6592 4.39291 18.6588ZM5.46793 15.362C5.46775 15.362 5.46812 15.362 5.46793 15.362Z" fill="black"/>
<path fill-rule="evenodd" clip-rule="evenodd" d="M12.8887 15.5859C12.8887 15.1717 13.2245 14.8359 13.6387 14.8359H20.3055C20.7197 14.8359 21.0555 15.1717 21.0555 15.5859C21.0555 16.0002 20.7197 16.3359 20.3055 16.3359H13.6387C13.2245 16.3359 12.8887 16.0002 12.8887 15.5859Z" fill="black"/>
<path fill-rule="evenodd" clip-rule="evenodd" d="M12.8887 19.1938C12.8887 18.7796 13.2245 18.4438 13.6387 18.4438H17.1792C17.5935 18.4438 17.9292 18.7796 17.9292 19.1938C17.9292 19.6081 17.5935 19.9438 17.1792 19.9438H13.6387C13.2245 19.9438 12.8887 19.6081 12.8887 19.1938Z" fill="black"/>
</svg>
