<svg width="24" height="24" viewBox="0 0 24 24" fill="none" xmlns="http://www.w3.org/2000/svg">
<path fill-rule="evenodd" clip-rule="evenodd" d="M4.499 6.84039L10.374 11.6194C11.379 12.3914 12.689 12.3974 13.62 11.6244L19.496 6.83039C19.739 7.29239 19.896 7.81839 19.956 8.39039L14.574 12.7814C13.845 13.3904 12.949 13.6934 12.039 13.6934C11.137 13.6934 10.222 13.3954 9.442 12.7954L4.042 8.40239C4.102 7.83039 4.257 7.30339 4.499 6.84039ZM21.5 8.89839C21.5 8.58839 21.468 8.29239 21.42 8.00239C21.389 7.78539 21.341 7.57839 21.288 7.37139C21.283 7.35239 21.281 7.33239 21.276 7.31339L21.273 7.31639C21.134 6.79539 20.945 6.30139 20.682 5.86139L20.689 5.85639C20.679 5.83939 20.666 5.82339 20.655 5.80639C20.649 5.79639 20.641 5.78739 20.635 5.77639C20.469 5.50839 20.278 5.26239 20.071 5.03239C20.051 5.01039 20.033 4.98739 20.013 4.96639C19.796 4.73439 19.561 4.52439 19.306 4.33939C19.288 4.32639 19.268 4.31439 19.25 4.30139C18.998 4.12339 18.732 3.96839 18.449 3.84039C18.435 3.83439 18.422 3.82639 18.408 3.81939C18.129 3.69739 17.835 3.60439 17.531 3.53539C17.471 3.52139 17.41 3.51039 17.348 3.49839C17.044 3.44139 16.734 3.40239 16.41 3.40139C16.406 3.40139 16.403 3.40039 16.4 3.40039H7.6C7.597 3.40039 7.594 3.40139 7.591 3.40139C7.25 3.40239 6.924 3.44339 6.608 3.50339C6.574 3.51039 6.54 3.51539 6.506 3.52339C5.122 3.81639 3.99 4.65239 3.288 5.85539L3.311 5.87439C3.049 6.31439 2.861 6.80839 2.723 7.32939L2.713 7.32139C2.7 7.37439 2.693 7.43139 2.68 7.48439C2.643 7.64639 2.607 7.80639 2.582 7.97339C2.534 8.27239 2.5 8.57739 2.5 8.89839V15.1004L2.501 15.1064C2.501 15.5084 2.539 15.8964 2.609 16.2694C2.616 16.3064 2.631 16.3404 2.639 16.3774C2.707 16.7094 2.795 17.0304 2.913 17.3324C2.981 17.5094 3.075 17.6674 3.158 17.8334C3.229 17.9714 3.288 18.1174 3.369 18.2474C3.541 18.5284 3.739 18.7824 3.955 19.0194C3.957 19.0214 3.958 19.0244 3.961 19.0264C4.01 19.0814 4.048 19.1484 4.1 19.2004C5 20.1004 6.2 20.6004 7.6 20.6004H16.4C16.73 20.6004 17.053 20.5674 17.368 20.5044C18.294 20.3344 19.099 19.9104 19.757 19.3094C19.803 19.2704 19.855 19.2414 19.9 19.2004C19.917 19.1834 19.929 19.1614 19.945 19.1444C20.913 18.1624 21.499 16.7554 21.5 15.1044V8.89839Z" fill="black"/>
</svg>