<svg width="24" height="24" viewBox="0 0 24 24" fill="none" xmlns="http://www.w3.org/2000/svg">
<path fill-rule="evenodd" clip-rule="evenodd" d="M3.52013 4.37252C4.3632 3.46852 5.56091 2.9668 6.965 2.9668H17.035C18.4426 2.9668 19.6407 3.46818 20.4832 4.37291C21.3201 5.2716 21.75 6.50706 21.75 7.88278V11.1768C21.75 11.591 21.4142 11.9268 21 11.9268C20.5858 11.9268 20.25 11.591 20.25 11.1768V7.88278C20.25 6.8165 19.9199 5.96897 19.3855 5.39516C18.8568 4.82741 18.0725 4.4668 17.035 4.4668H6.965C5.93208 4.4668 5.14729 4.82707 4.61712 5.39556C4.08152 5.96987 3.75 6.81754 3.75 7.88278V14.4698C3.75 15.536 4.08033 16.3841 4.61499 16.9585C5.144 17.5269 5.92838 17.8878 6.965 17.8878H9.907C10.3212 17.8878 10.657 18.2236 10.657 18.6378C10.657 19.052 10.3212 19.3878 9.907 19.3878H6.965C5.55761 19.3878 4.35949 18.8857 3.51701 17.9805C2.68017 17.0815 2.25 15.8456 2.25 14.4698V7.88278C2.25 6.50603 2.68248 5.2707 3.52013 4.37252Z" fill="black"/>
<path fill-rule="evenodd" clip-rule="evenodd" d="M2.25 9.01367C2.25 8.59946 2.58579 8.26367 3 8.26367H21C21.4142 8.26367 21.75 8.59946 21.75 9.01367C21.75 9.42789 21.4142 9.76367 21 9.76367H3C2.58579 9.76367 2.25 9.42789 2.25 9.01367Z" fill="black"/>
<path fill-rule="evenodd" clip-rule="evenodd" d="M13.7884 13.6837C14.0812 13.3907 14.5561 13.3906 14.8491 13.6834L14.8591 13.6934C15.152 13.9863 15.1521 14.4611 14.8593 14.7541C14.5665 15.047 14.0916 15.0471 13.7986 14.7543L13.7886 14.7443C13.4957 14.4515 13.4956 13.9766 13.7884 13.6837Z" fill="black"/>
<path fill-rule="evenodd" clip-rule="evenodd" d="M14.7247 12.2518C16.0422 12.2518 17.1103 13.3199 17.1103 14.6374C17.1103 14.7979 17.0878 14.9604 17.0473 15.145C16.9925 15.3948 17.0687 15.6552 17.2495 15.8361L19.9897 18.5768V19.7842H18.9971V19.4095C18.9971 18.9953 18.6614 18.6595 18.2471 18.6595H17.835V18.2662C17.835 17.852 17.4992 17.5162 17.085 17.5162H16.6454L16.2194 17.0911C16.0203 16.8925 15.7269 16.8219 15.4594 16.9083C15.2295 16.9824 14.982 17.023 14.7247 17.023C13.4072 17.023 12.3391 15.9549 12.3391 14.6374C12.3391 13.3199 13.4072 12.2518 14.7247 12.2518ZM17.4972 20.1595C17.5006 20.7813 18.0056 21.2842 18.6281 21.2842H20.3588C20.9834 21.2842 21.4897 20.7779 21.4897 20.1533V18.424C21.4897 18.1241 21.3706 17.8365 21.1586 17.6244L18.5847 15.05C18.6006 14.9184 18.6103 14.781 18.6103 14.6374C18.6103 12.4915 16.8706 10.7518 14.7247 10.7518C12.5788 10.7518 10.8391 12.4915 10.8391 14.6374C10.8391 16.7833 12.5788 18.523 14.7247 18.523C14.9756 18.523 15.2219 18.4991 15.4609 18.4533L15.8055 18.7971C15.946 18.9374 16.1364 19.0162 16.335 19.0162V19.4095C16.335 19.8238 16.6708 20.1595 17.085 20.1595H17.4972Z" fill="black"/>
</svg>
