<svg width="24" height="24" viewBox="0 0 24 24" fill="none" xmlns="http://www.w3.org/2000/svg">
<path fill-rule="evenodd" clip-rule="evenodd" d="M5.28125 6.51164C7.07117 5.0904 9.48348 4.15625 12 4.15625C14.517 4.15625 16.9293 5.09038 18.7192 6.51166C20.4985 7.92464 21.75 9.89613 21.75 12.0083C21.75 14.1181 20.5104 16.0897 18.7342 17.5042C16.948 18.9267 14.5351 19.8603 12 19.8603C9.46539 19.8603 7.05254 18.9267 5.26618 17.5042C3.4899 16.0898 2.25 14.1182 2.25 12.0083C2.25 9.89607 3.50179 7.92458 5.28125 6.51164ZM6.214 7.68636C4.66171 8.91893 3.75 10.4984 3.75 12.0083C3.75 13.5204 4.6546 15.0997 6.20057 16.3308C7.73646 17.5538 9.82361 18.3603 12 18.3603C14.1769 18.3603 16.264 17.5538 17.7998 16.3308C19.3456 15.0998 20.25 13.5204 20.25 12.0083C20.25 10.4984 19.3385 8.91887 17.7863 7.68634C16.2447 6.46212 14.157 5.65625 12 5.65625C9.84352 5.65625 7.75583 6.46211 6.214 7.68636Z" fill="black"/>
<path fill-rule="evenodd" clip-rule="evenodd" d="M8.17578 12.0067C8.17578 9.89362 9.88944 8.17969 12.0018 8.17969C14.115 8.17969 15.8288 9.89347 15.8288 12.0067C15.8288 14.1191 14.1149 15.8327 12.0018 15.8327C9.88959 15.8327 8.17578 14.1189 8.17578 12.0067ZM12.0018 9.67969C10.7182 9.67969 9.67578 10.7217 9.67578 12.0067C9.67578 13.2905 10.718 14.3327 12.0018 14.3327C13.2867 14.3327 14.3288 13.2903 14.3288 12.0067C14.3288 10.7219 13.2866 9.67969 12.0018 9.67969Z" fill="black"/>
</svg>
