<svg width="24" height="24" viewBox="0 0 24 24" fill="none" xmlns="http://www.w3.org/2000/svg">
<path d="M3 9.21997C2.80109 9.21997 2.61032 9.14096 2.46967 9.00031C2.32902 8.85965 2.25 8.66888 2.25 8.46997V6.89203C2.25159 5.66121 2.7413 4.48125 3.61172 3.61102C4.48213 2.74079 5.66218 2.25132 6.893 2.25H8.182C8.38091 2.25 8.57168 2.32901 8.71233 2.46967C8.85298 2.61032 8.932 2.80109 8.932 3C8.932 3.19891 8.85298 3.38968 8.71233 3.53033C8.57168 3.67099 8.38091 3.75 8.182 3.75H6.893C6.05984 3.75079 5.26102 4.08204 4.67179 4.67108C4.08257 5.26012 3.75106 6.05887 3.75 6.89203V8.46997C3.75 8.66888 3.67098 8.85965 3.53033 9.00031C3.38968 9.14096 3.19891 9.21997 3 9.21997Z" fill="black"/>
<path d="M8.15 21.7502H6.893C5.66218 21.7489 4.48213 21.2594 3.61172 20.3892C2.7413 19.519 2.25159 18.339 2.25 17.1082V15.5312C2.25 15.3323 2.32902 15.1416 2.46967 15.0009C2.61032 14.8603 2.80109 14.7812 3 14.7812C3.19891 14.7812 3.38968 14.8603 3.53033 15.0009C3.67098 15.1416 3.75 15.3323 3.75 15.5312V17.1082C3.75106 17.9414 4.08257 18.7401 4.67179 19.3292C5.26102 19.9182 6.05984 20.2495 6.893 20.2502H8.15C8.34891 20.2502 8.53968 20.3293 8.68033 20.4699C8.82098 20.6106 8.9 20.8013 8.9 21.0002C8.9 21.1992 8.82098 21.3899 8.68033 21.5306C8.53968 21.6712 8.34891 21.7502 8.15 21.7502Z" fill="black"/>
<path d="M17.1074 21.7502H15.8184C15.6194 21.7502 15.4287 21.6712 15.288 21.5306C15.1474 21.3899 15.0684 21.1992 15.0684 21.0002C15.0684 20.8013 15.1474 20.6106 15.288 20.4699C15.4287 20.3293 15.6194 20.2502 15.8184 20.2502H17.1074C17.9405 20.2495 18.7393 19.9182 19.3286 19.3292C19.9178 18.7401 20.2493 17.9414 20.2504 17.1082V15.5312C20.2504 15.3323 20.3294 15.1416 20.47 15.0009C20.6107 14.8603 20.8014 14.7812 21.0004 14.7812C21.1993 14.7812 21.39 14.8603 21.5307 15.0009C21.6713 15.1416 21.7504 15.3323 21.7504 15.5312V17.1082C21.7488 18.339 21.2591 19.519 20.3886 20.3892C19.5182 21.2594 18.3382 21.7489 17.1074 21.7502V21.7502Z" fill="black"/>
<path d="M20.9996 9.21997C20.8007 9.21997 20.6099 9.14096 20.4693 9.00031C20.3286 8.85965 20.2496 8.66888 20.2496 8.46997V6.89203C20.2486 6.05887 19.917 5.26012 19.3278 4.67108C18.7386 4.08204 17.9398 3.75079 17.1066 3.75H15.8496C15.6507 3.75 15.4599 3.67099 15.3193 3.53033C15.1786 3.38968 15.0996 3.19891 15.0996 3C15.0996 2.80109 15.1786 2.61032 15.3193 2.46967C15.4599 2.32901 15.6507 2.25 15.8496 2.25H17.1066C18.3374 2.25132 19.5175 2.74079 20.3879 3.61102C21.2583 4.48125 21.748 5.66121 21.7496 6.89203V8.46997C21.7496 8.66888 21.6706 8.85965 21.5299 9.00031C21.3893 9.14096 21.1985 9.21997 20.9996 9.21997Z" fill="black"/>
<path d="M7.88858 10.4877C7.75727 10.4879 7.62823 10.4536 7.51439 10.3881C7.40055 10.3227 7.30591 10.2284 7.23997 10.1149C7.17403 10.0013 7.13909 9.87247 7.13868 9.74116C7.13826 9.60986 7.17237 9.48074 7.23758 9.36677C7.71667 8.52579 8.40953 7.8264 9.24597 7.33943C10.0824 6.85246 11.0327 6.5952 12.0006 6.59376C12.7261 6.5921 13.4446 6.73597 14.1136 7.0168C14.2968 7.09371 14.4421 7.24024 14.5173 7.42421C14.5925 7.60818 14.5915 7.81449 14.5146 7.99776C14.4377 8.18102 14.2911 8.32624 14.1071 8.40144C13.9232 8.47664 13.7168 8.47567 13.5336 8.39876C13.0477 8.1976 12.5265 8.09562 12.0006 8.09877C11.2973 8.09981 10.6068 8.28672 9.99896 8.64058C9.39117 8.99444 8.88771 9.50269 8.53958 10.1138C8.47343 10.2278 8.37844 10.3223 8.26417 10.388C8.1499 10.4536 8.02037 10.488 7.88858 10.4877V10.4877Z" fill="black"/>
<path d="M7.27148 16.3362C7.07257 16.3362 6.88181 16.2572 6.74115 16.1166C6.6005 15.9759 6.52148 15.7852 6.52148 15.5862V12.6562C6.52148 12.4573 6.6005 12.2666 6.74115 12.1259C6.88181 11.9853 7.07257 11.9062 7.27148 11.9062C7.4704 11.9062 7.66116 11.9853 7.80181 12.1259C7.94247 12.2666 8.02148 12.4573 8.02148 12.6562V15.5862C8.02148 15.7852 7.94247 15.9759 7.80181 16.1166C7.66116 16.2572 7.4704 16.3362 7.27148 16.3362Z" fill="black"/>
<path d="M16.7296 16.3335C16.5307 16.3335 16.3399 16.2545 16.1993 16.1139C16.0586 15.9732 15.9796 15.7824 15.9796 15.5835V12.0716C15.9815 11.2509 15.7282 10.4499 15.2546 9.77957C15.1399 9.61726 15.0944 9.41601 15.128 9.22013C15.1617 9.02424 15.2718 8.84972 15.4341 8.73502C15.5964 8.62031 15.7976 8.57483 15.9935 8.60849C16.1894 8.64215 16.3639 8.75221 16.4786 8.91452C17.132 9.8373 17.4816 10.9409 17.4786 12.0716V15.5835C17.4786 15.7823 17.3997 15.9729 17.2593 16.1135C17.1188 16.2541 16.9283 16.3333 16.7296 16.3335V16.3335Z" fill="black"/>
<path d="M13.8232 17.4091C13.6242 17.4091 13.4335 17.3301 13.2928 17.1895C13.1522 17.0488 13.0732 16.858 13.0732 16.6591V12.2461C13.0776 12.0972 13.0521 11.9489 12.9982 11.8101C12.9443 11.6712 12.8631 11.5445 12.7594 11.4376C12.6556 11.3307 12.5315 11.2457 12.3943 11.1877C12.2571 11.1296 12.1096 11.0998 11.9607 11.0998C11.8117 11.0998 11.6642 11.1296 11.527 11.1877C11.3898 11.2457 11.2657 11.3307 11.1619 11.4376C11.0582 11.5445 10.977 11.6712 10.9231 11.8101C10.8692 11.9489 10.8437 12.0972 10.8482 12.2461V12.7461C10.8482 12.945 10.7691 13.1358 10.6285 13.2764C10.4878 13.4171 10.2971 13.4961 10.0982 13.4961C9.89924 13.4961 9.70848 13.4171 9.56783 13.2764C9.42717 13.1358 9.34816 12.945 9.34816 12.7461V12.2461C9.34136 11.8987 9.40391 11.5535 9.53215 11.2306C9.66039 10.9077 9.85174 10.6136 10.095 10.3655C10.3383 10.1174 10.6286 9.92036 10.9489 9.78583C11.2693 9.6513 11.6132 9.58203 11.9607 9.58203C12.3081 9.58203 12.6521 9.6513 12.9724 9.78583C13.2927 9.92036 13.583 10.1174 13.8263 10.3655C14.0696 10.6136 14.2609 10.9077 14.3892 11.2306C14.5174 11.5535 14.58 11.8987 14.5732 12.2461V16.6591C14.5732 16.858 14.4941 17.0488 14.3535 17.1895C14.2128 17.3301 14.0221 17.4091 13.8232 17.4091Z" fill="black"/>
<path d="M10.0996 17.4055C9.9007 17.4055 9.70993 17.3264 9.56928 17.1858C9.42863 17.0451 9.34961 16.8544 9.34961 16.6555V14.9805C9.34961 14.7816 9.42863 14.5908 9.56928 14.4501C9.70993 14.3095 9.9007 14.2305 10.0996 14.2305C10.2985 14.2305 10.4893 14.3095 10.6299 14.4501C10.7706 14.5908 10.8496 14.7816 10.8496 14.9805V16.6555C10.8496 16.8544 10.7706 17.0451 10.6299 17.1858C10.4893 17.3264 10.2985 17.4055 10.0996 17.4055V17.4055Z" fill="black"/>
</svg>
