<svg width="24" height="24" viewBox="0 0 24 24" fill="none" xmlns="http://www.w3.org/2000/svg">
<path fill-rule="evenodd" clip-rule="evenodd" d="M7.60445 4.14258C5.4757 4.14258 3.75 5.86828 3.75 7.99703C3.75 9.57442 4.6963 10.9317 6.05561 11.5284C6.32836 11.6482 6.5044 11.9179 6.50414 12.2158L6.50317 13.3331L7.36253 14.1938C7.62648 14.4581 7.65565 14.8764 7.43096 15.1748L6.72847 16.1079L7.38078 16.8086C7.63383 17.0805 7.6498 17.4966 7.41832 17.7871L6.72023 18.663L7.60477 19.5476L8.74351 18.4088L8.74519 12.1956C8.74527 11.9009 8.91797 11.6335 9.1866 11.5122C10.5273 10.907 11.4589 9.55946 11.4589 7.99703C11.4589 5.86828 9.73321 4.14258 7.60445 4.14258ZM2.25 7.99703C2.25 5.03985 4.64727 2.64258 7.60445 2.64258C10.5616 2.64258 12.9589 5.03985 12.9589 7.99703C12.9589 9.99477 11.8635 11.7351 10.2451 12.655L10.2434 18.7198C10.2434 18.9186 10.1644 19.1093 10.0238 19.2499L8.1351 21.1385C7.8422 21.4314 7.36733 21.4314 7.07444 21.1385L5.18579 19.2499C4.91593 18.98 4.89175 18.5506 5.12959 18.2521L5.8425 17.3576L5.2023 16.6698C4.95456 16.4037 4.93341 15.9982 5.15212 15.7077L5.84095 14.7928L5.22217 14.1731C5.0816 14.0323 5.00273 13.8415 5.0029 13.6425L5.00373 12.6791C3.36152 11.7653 2.25 10.0116 2.25 7.99703Z" fill="black"/>
<path fill-rule="evenodd" clip-rule="evenodd" d="M8.04916 7.24368C7.80368 6.9982 7.40569 6.9982 7.16021 7.24368C6.86732 7.53657 6.39245 7.53657 6.09955 7.24368C5.80666 6.95078 5.80666 6.47591 6.09955 6.18302C6.93081 5.35175 8.27856 5.35175 9.10982 6.18302C9.40271 6.47591 9.40271 6.95078 9.10982 7.24368C8.81692 7.53657 8.34205 7.53657 8.04916 7.24368Z" fill="black"/>
<path fill-rule="evenodd" clip-rule="evenodd" d="M17.2988 18.3535C17.713 18.3535 18.0488 18.6893 18.0488 19.1035V19.1115C18.0488 19.5257 17.713 19.8615 17.2988 19.8615C16.8846 19.8615 16.5488 19.5257 16.5488 19.1115V19.1035C16.5488 18.6893 16.8846 18.3535 17.2988 18.3535Z" fill="black"/>
<path fill-rule="evenodd" clip-rule="evenodd" d="M14.3477 12.7712C14.3477 10.998 15.7734 9.57031 17.5474 9.57031C19.3108 9.57031 20.7472 10.9963 20.7472 12.7712C20.7472 14.0213 20.0318 14.904 19.1002 15.4188C19.0416 15.4524 18.9855 15.484 18.9318 15.5142C18.6612 15.6667 18.4516 15.7848 18.2801 15.9392C18.1098 16.0925 18.0436 16.2247 18.0461 16.4087C18.0516 16.8229 17.7203 17.1631 17.3061 17.1686C16.892 17.1742 16.5517 16.8429 16.5462 16.4287C16.5365 15.6995 16.8799 15.1813 17.2767 14.8243C17.5843 14.5474 17.9666 14.3342 18.2341 14.1849C18.28 14.1593 18.3226 14.1356 18.3608 14.1138L18.3712 14.1078L18.3712 14.1079C18.9447 13.7921 19.2472 13.3541 19.2472 12.7712C19.2472 11.8273 18.4851 11.0703 17.5474 11.0703C16.6027 11.0703 15.8477 11.8256 15.8477 12.7712C15.8477 13.1854 15.5119 13.5212 15.0977 13.5212C14.6834 13.5212 14.3477 13.1854 14.3477 12.7712Z" fill="black"/>
</svg>
