<svg width="24" height="24" viewBox="0 0 24 24" fill="none" xmlns="http://www.w3.org/2000/svg">
<path fill-rule="evenodd" clip-rule="evenodd" d="M6.63971 6.61506C7.6833 5.57146 9.44725 5.15905 10.5438 6.25559L10.5439 6.25572C10.843 6.55499 10.9115 6.93428 10.8862 7.24709C10.8621 7.54525 10.7529 7.83122 10.6283 8.07523C10.3764 8.5685 9.96352 9.07902 9.52612 9.51025C9.0881 9.94208 8.57341 10.3457 8.08298 10.5935C7.84087 10.7158 7.55954 10.8233 7.26909 10.8507C6.96955 10.8788 6.58307 10.8241 6.27915 10.5202C5.18241 9.42348 5.59533 7.65943 6.63971 6.61506ZM9.36504 7.22733C9.02331 7.0309 8.33933 7.03675 7.70037 7.67572C7.06939 8.30669 7.05488 8.98042 7.24267 9.3267C7.28581 9.31108 7.34035 9.28808 7.40662 9.2546C7.71438 9.09913 8.10437 8.80552 8.47303 8.44207C8.84229 8.07803 9.13806 7.69524 9.29233 7.3931C9.32714 7.32492 9.35009 7.26982 9.36504 7.22733Z" fill="black"/>
<path fill-rule="evenodd" clip-rule="evenodd" d="M12.9323 5.3256C10.8315 3.2248 7.42542 3.2248 5.32462 5.3256C3.22382 7.42639 3.22382 10.8325 5.32462 12.9333C6.88152 14.4902 9.155 14.8952 11.0848 14.1429C11.3624 14.0347 11.6776 14.101 11.8881 14.3118L13.0116 15.4372L14.7335 15.4385C15.1071 15.4388 15.4235 15.714 15.4756 16.0839L15.7217 17.8295L17.2033 17.8825C17.5745 17.8958 17.88 18.1788 17.9217 18.5478L18.1141 20.25L20.2496 20.25L20.2496 17.755L14.33 11.8322C14.1217 11.6237 14.0547 11.3125 14.1589 11.0368C14.8844 9.1173 14.4747 6.86797 12.9323 5.3256ZM4.26396 4.26494C6.95054 1.57835 11.3064 1.57835 13.9929 4.26494C15.8439 6.11592 16.4169 8.75921 15.7195 11.1005L21.5301 16.9142C21.6707 17.0549 21.7496 17.2456 21.7496 17.4444L21.7496 21C21.7496 21.4142 21.4138 21.75 20.9996 21.75L17.444 21.75C17.0624 21.75 16.7416 21.4634 16.6988 21.0842L16.5038 19.3584L15.0399 19.306C14.6765 19.293 14.3748 19.0212 14.3241 18.6612L14.0812 16.938L12.6997 16.937C12.5008 16.9369 12.3101 16.8577 12.1695 16.7169L11.1589 15.7045C8.80182 16.4307 6.13079 15.8607 4.26396 13.9939C1.57738 11.3073 1.57738 6.95152 4.26396 4.26494Z" fill="black"/>
</svg>
