<svg width="24" height="24" viewBox="0 0 24 24" fill="none" xmlns="http://www.w3.org/2000/svg">
<path fill-rule="evenodd" clip-rule="evenodd" d="M7.88862 3.75C6.02752 3.75 4.51953 5.25905 4.51953 7.11899V16.88C4.51953 18.7411 6.02764 20.25 7.88862 20.25H10.4807C10.8949 20.25 11.2307 20.5858 11.2307 21C11.2307 21.4142 10.8949 21.75 10.4807 21.75H7.88862C5.19868 21.75 3.01953 19.5689 3.01953 16.88V7.11899C3.01953 4.43092 5.1988 2.25 7.88862 2.25H14.9847C17.6742 2.25 19.8547 4.4307 19.8547 7.11899V10.484C19.8547 10.8982 19.5189 11.234 19.1047 11.234C18.6905 11.234 18.3547 10.8982 18.3547 10.484V7.11899C18.3547 5.25928 16.8459 3.75 14.9847 3.75H7.88862Z" fill="black"/>
<path fill-rule="evenodd" clip-rule="evenodd" d="M16.0104 17.3672C15.6527 17.3672 15.3613 17.6585 15.3613 18.0172V19.6002C15.3613 19.9602 15.652 20.2502 16.0104 20.2502H18.8311C19.1901 20.2502 19.4811 19.9596 19.4811 19.6002V18.0172C19.4811 17.6591 19.1894 17.3672 18.8311 17.3672H16.0104ZM13.8613 18.0172C13.8613 16.8319 14.8225 15.8672 16.0104 15.8672H18.8311C20.0184 15.8672 20.9811 16.8312 20.9811 18.0172V19.6002C20.9811 20.7888 20.0177 21.7502 18.8311 21.7502H16.0104C14.8232 21.7502 13.8613 20.7882 13.8613 19.6002V18.0172Z" fill="black"/>
<path fill-rule="evenodd" clip-rule="evenodd" d="M17.3923 13.1877C18.7352 13.1718 19.8381 14.2471 19.855 15.5912L19.8551 15.6006L19.8551 16.6426C19.8551 17.0568 19.5193 17.3926 19.1051 17.3926C18.6909 17.3926 18.3551 17.0568 18.3551 16.6426V15.606C18.3464 15.0922 17.9243 14.6817 17.4106 14.6876C16.9068 14.6945 16.4999 15.0985 16.4883 15.6V16.6426C16.4883 17.0568 16.1525 17.3926 15.7383 17.3926C15.3241 17.3926 14.9883 17.0568 14.9883 16.6426V15.5797C15.011 14.2639 16.0759 13.205 17.3913 13.1877L17.3923 13.1877Z" fill="black"/>
<path fill-rule="evenodd" clip-rule="evenodd" d="M8.58057 8.62C8.58057 8.03892 9.05167 7.56799 9.63257 7.56799C10.2142 7.56799 10.6846 8.03865 10.6846 8.61999C10.6846 9.20121 10.2142 9.67189 9.63257 9.67189C9.0531 9.67189 8.58209 9.20221 8.58057 8.62305L8.58057 8.62ZM9.63257 6.06799C8.22346 6.06799 7.08057 7.21027 7.08057 8.62L7.08057 8.6254C7.0834 10.0327 8.22626 11.1719 9.63257 11.1719C11.0429 11.1719 12.1846 10.0294 12.1846 8.61999C12.1846 7.21054 11.0429 6.06799 9.63257 6.06799Z" fill="black"/>
<path fill-rule="evenodd" clip-rule="evenodd" d="M9.63525 9.72034C9.22104 9.72034 8.88525 10.0561 8.88525 10.4703L8.88525 16.1461C8.88525 16.5603 9.22104 16.8961 9.63525 16.8961L11.4373 16.8961C11.8515 16.8961 12.1873 16.5603 12.1873 16.1461C12.1873 15.7319 11.8515 15.3961 11.4373 15.3961L10.3853 15.3961L10.3853 10.4703C10.3853 10.0561 10.0495 9.72034 9.63525 9.72034Z" fill="black"/>
<path fill-rule="evenodd" clip-rule="evenodd" d="M8.88525 13.3942C8.88525 13.8084 9.22104 14.1442 9.63525 14.1442L11.4373 14.1442C11.8515 14.1442 12.1873 13.8084 12.1873 13.3942C12.1873 12.98 11.8515 12.6442 11.4373 12.6442L9.63525 12.6442C9.22104 12.6442 8.88525 12.98 8.88525 13.3942Z" fill="black"/>
</svg>
