<svg width="24" height="24" viewBox="0 0 24 24" fill="none" xmlns="http://www.w3.org/2000/svg">
<path fill-rule="evenodd" clip-rule="evenodd" d="M7.95221 3.75C6.09193 3.75 4.58301 5.25919 4.58301 7.11899V16.88C4.58301 18.7418 6.09193 20.25 7.95221 20.25H10.5443C10.9585 20.25 11.2943 20.5858 11.2943 21C11.2943 21.4142 10.9585 21.75 10.5443 21.75H7.95221C5.26349 21.75 3.08301 19.5702 3.08301 16.88V7.11899C3.08301 4.43078 5.26349 2.25 7.95221 2.25H15.0494C17.7382 2.25 19.9186 4.4308 19.9186 7.11899V10.484C19.9186 10.8982 19.5828 11.234 19.1686 11.234C18.7544 11.234 18.4186 10.8982 18.4186 10.484V7.11899C18.4186 5.25918 16.9098 3.75 15.0494 3.75H7.95221Z" fill="black"/>
<path fill-rule="evenodd" clip-rule="evenodd" d="M17.0198 13.7439C17.114 13.7232 17.2549 13.6953 17.3884 13.6953C17.5216 13.6953 17.6624 13.7231 17.7566 13.7437C17.8684 13.7682 17.9953 13.8014 18.1271 13.839C18.3918 13.9145 18.7039 14.0155 19.0073 14.1224C19.3102 14.229 19.6153 14.3452 19.8645 14.4522C19.9882 14.5053 20.1075 14.5602 20.2095 14.6137C20.2838 14.6527 20.4376 14.735 20.5566 14.8558L20.0225 15.3823L20.5555 14.8546C20.5581 14.8573 20.561 14.8602 20.5642 14.8634C20.6207 14.9198 20.7605 15.0597 20.8404 15.2823C20.91 15.4761 20.9145 15.6777 20.9158 15.8215C20.9169 15.9462 20.9137 16.1123 20.9095 16.3224C20.9082 16.3856 20.9069 16.4527 20.9056 16.5239C20.8998 16.8406 20.8936 17.2624 20.8936 17.8313C20.8936 19.322 19.9909 20.3032 19.2044 20.8698C18.8066 21.1565 18.4135 21.357 18.1222 21.4858C17.9755 21.5507 17.8518 21.5986 17.7625 21.631C17.7178 21.6472 17.6815 21.6596 17.655 21.6684L17.6226 21.6789L17.6123 21.6821L17.6086 21.6833L17.6071 21.6837C17.6068 21.6838 17.6059 21.6841 17.3884 20.9663C17.1709 21.6841 17.1706 21.684 17.1703 21.6839L17.1682 21.6833L17.1645 21.6821L17.1542 21.6789L17.1219 21.6684C17.0953 21.6596 17.059 21.6472 17.0143 21.631C16.925 21.5986 16.8013 21.5507 16.6546 21.4858C16.3633 21.357 15.9702 21.1565 15.5724 20.8698C14.7858 20.3032 13.8831 19.322 13.8831 17.8313C13.8831 17.2622 13.8769 16.8402 13.871 16.5234C13.8696 16.4511 13.8683 16.383 13.867 16.319C13.8628 16.1101 13.8595 15.9448 13.8606 15.8207C13.8618 15.6772 13.8661 15.4746 13.9364 15.28C14.0173 15.0559 14.1593 14.9158 14.2161 14.8597C14.2194 14.8565 14.2223 14.8536 14.2249 14.851L14.7543 15.3823L14.2225 14.8534C14.3411 14.7341 14.4942 14.6526 14.5682 14.6138C14.6699 14.5606 14.7889 14.506 14.9125 14.453C15.1615 14.3462 15.4664 14.23 15.7692 14.1232C16.0726 14.0163 16.3846 13.915 16.6492 13.8394C16.781 13.8017 16.908 13.7684 17.0198 13.7439ZM17.3884 20.9663L17.1703 21.6839C17.3121 21.7269 17.4641 21.7271 17.6059 21.6841L17.3884 20.9663ZM17.3884 20.168C17.3499 20.1523 17.3072 20.1343 17.2612 20.114C17.0359 20.0143 16.7401 19.8624 16.4492 19.6528C15.858 19.2269 15.3831 18.6406 15.3831 17.8313C15.3831 17.2504 15.3767 16.8189 15.3707 16.4954C15.3692 16.4113 15.3676 16.3359 15.3663 16.2682C15.3631 16.1067 15.3607 15.9882 15.3604 15.8954C15.4014 15.8763 15.4492 15.8549 15.5038 15.8315C15.713 15.7418 15.9851 15.6376 16.268 15.5379C16.5504 15.4383 16.8328 15.347 17.0615 15.2816C17.1763 15.2488 17.2707 15.2245 17.3411 15.2091C17.3612 15.2047 17.3769 15.2015 17.3885 15.1994C17.4002 15.2015 17.4159 15.2047 17.4361 15.2091C17.5065 15.2245 17.6009 15.2487 17.7157 15.2815C17.9444 15.3467 18.2268 15.4378 18.5091 15.5372C18.7919 15.6368 19.0638 15.7409 19.2727 15.8306C19.3273 15.854 19.3751 15.8754 19.416 15.8945C19.4158 15.9881 19.4134 16.1081 19.4102 16.2724C19.4088 16.3393 19.4074 16.4135 19.4059 16.4963C19.3999 16.8195 19.3936 17.2507 19.3936 17.8313C19.3936 18.6406 18.9187 19.2269 18.3276 19.6528C18.0366 19.8624 17.7409 20.0144 17.5156 20.114C17.4695 20.1343 17.4269 20.1523 17.3884 20.168ZM17.1686 20.2493C17.1685 20.2493 17.1685 20.2493 17.1686 20.2493Z" fill="black"/>
<path fill-rule="evenodd" clip-rule="evenodd" d="M8.20951 9.64453C8.20951 9.23032 8.5453 8.89453 8.95951 8.89453H14.042C14.4562 8.89453 14.792 9.23032 14.792 9.64453C14.792 10.0587 14.4562 10.3945 14.042 10.3945H8.95951C8.5453 10.3945 8.20951 10.0587 8.20951 9.64453ZM8.20801 14.0815C8.20801 13.6673 8.54379 13.3315 8.95801 13.3315H11.6117C12.0259 13.3315 12.3617 13.6673 12.3617 14.0815C12.3617 14.4957 12.0259 14.8315 11.6117 14.8315H8.95801C8.54379 14.8315 8.20801 14.4957 8.20801 14.0815Z" fill="black"/>
</svg>
