<svg width="24" height="24" viewBox="0 0 24 24" fill="none" xmlns="http://www.w3.org/2000/svg">
<path d="M17.3364 21.7471H6.66341C5.8756 21.7463 5.12028 21.4331 4.56313 20.8761C4.00597 20.3191 3.69247 19.5639 3.69141 18.7761V17.5501C3.6922 16.7621 4.00559 16.0066 4.56277 15.4495C5.11996 14.8923 5.87543 14.5789 6.66341 14.5781H17.3364C18.1245 14.5789 18.8801 14.8922 19.4374 15.4494C19.9948 16.0066 20.3084 16.762 20.3094 17.5501V18.7721C20.3092 19.5607 19.9959 20.3169 19.4385 20.8748C18.881 21.4326 18.125 21.7463 17.3364 21.7471ZM6.66341 16.0781C6.27317 16.0787 5.89908 16.2339 5.62314 16.5098C5.3472 16.7858 5.19194 17.1599 5.19141 17.5501V18.7721C5.1922 19.1622 5.34758 19.536 5.62349 19.8118C5.8994 20.0875 6.27334 20.2426 6.66341 20.2431H17.3364C17.7266 20.2428 18.1009 20.0878 18.377 19.8121C18.6531 19.5363 18.8086 19.1623 18.8094 18.7721V17.5461C18.8089 17.1557 18.6535 16.7815 18.3773 16.5055C18.1012 16.2295 17.7268 16.0744 17.3364 16.0741L6.66341 16.0781Z" fill="black"/>
<path d="M8.44837 18.9141H8.43836C8.23988 18.9127 8.05003 18.8328 7.91039 18.6918C7.77075 18.5507 7.6927 18.36 7.69336 18.1616C7.69403 17.9631 7.77333 17.773 7.91391 17.6329C8.05449 17.4928 8.24488 17.4141 8.44336 17.4141C8.64184 17.4141 8.83223 17.4928 8.97281 17.6329C9.11339 17.773 9.1927 17.9631 9.19336 18.1616C9.19403 18.36 9.11598 18.5507 8.97634 18.6918C8.8367 18.8328 8.64684 18.9127 8.44837 18.9141V18.9141Z" fill="black"/>
<path d="M12.0129 18.9141H12.0009C11.8024 18.9127 11.6125 18.8328 11.4729 18.6918C11.3332 18.5507 11.2552 18.36 11.2559 18.1616C11.2565 17.9631 11.3358 17.773 11.4764 17.6329C11.617 17.4928 11.8074 17.4141 12.0059 17.4141C12.2043 17.4141 12.3947 17.4928 12.5353 17.6329C12.6759 17.773 12.7552 17.9631 12.7558 18.1616C12.7565 18.36 12.6785 18.5507 12.5388 18.6918C12.3992 18.8328 12.2093 18.9127 12.0109 18.9141H12.0129Z" fill="black"/>
<path d="M15.6202 18.9141H15.6102C15.4118 18.9127 15.2219 18.8328 15.0823 18.6918C14.9426 18.5507 14.8646 18.36 14.8652 18.1616C14.8659 17.9631 14.9452 17.773 15.0858 17.6329C15.2264 17.4928 15.4168 17.4141 15.6152 17.4141C15.8137 17.4141 16.0041 17.4928 16.1447 17.6329C16.2853 17.773 16.3646 17.9631 16.3652 18.1616C16.3659 18.36 16.2879 18.5507 16.1482 18.6918C16.0086 18.8328 15.8187 18.9127 15.6202 18.9141V18.9141Z" fill="black"/>
<path d="M13.944 13.1388H10.054C9.34364 13.1377 8.66269 12.855 8.16048 12.3526C7.65827 11.8502 7.37579 11.1691 7.375 10.4587V8.27374C7.37579 7.56338 7.65827 6.88234 8.16048 6.37994C8.66269 5.87755 9.34364 5.59481 10.054 5.59375H13.944C14.6545 5.59454 15.3357 5.87715 15.8382 6.37958C16.3406 6.882 16.6232 7.56321 16.624 8.27374V10.4568C16.6237 11.1677 16.3414 11.8494 15.8389 12.3522C15.3364 12.8551 14.6549 13.138 13.944 13.1388ZM10.054 7.09576C9.7413 7.09629 9.44157 7.22081 9.22055 7.44202C8.99953 7.66322 8.87526 7.96306 8.875 8.27576V10.4587C8.87526 10.7714 8.99953 11.0713 9.22055 11.2925C9.44157 11.5137 9.7413 11.6383 10.054 11.6388H13.944C14.2569 11.6385 14.5569 11.5141 14.7781 11.2928C14.9993 11.0716 15.1237 10.7716 15.124 10.4587V8.27374C15.1237 7.96087 14.9993 7.66093 14.7781 7.4397C14.5569 7.21846 14.2569 7.09401 13.944 7.09375L10.054 7.09576Z" fill="black"/>
<path d="M12 10.4009C11.8011 10.4009 11.6103 10.3219 11.4697 10.1813C11.329 10.0406 11.25 9.84985 11.25 9.65094V9.08594C11.25 8.88703 11.329 8.69626 11.4697 8.5556C11.6103 8.41495 11.8011 8.33594 12 8.33594C12.1989 8.33594 12.3897 8.41495 12.5303 8.5556C12.671 8.69626 12.75 8.88703 12.75 9.08594V9.65094C12.75 9.84985 12.671 10.0406 12.5303 10.1813C12.3897 10.3219 12.1989 10.4009 12 10.4009Z" fill="black"/>
<path d="M14.3197 7.13788C14.1208 7.13788 13.9301 7.05887 13.7894 6.91821C13.6488 6.77756 13.5697 6.58679 13.5697 6.38788V5.29486C13.5697 4.87821 13.4042 4.47864 13.1096 4.18402C12.815 3.8894 12.4154 3.72388 11.9987 3.72388C11.5821 3.72388 11.1825 3.8894 10.8879 4.18402C10.5933 4.47864 10.4277 4.87821 10.4277 5.29486V6.38586C10.4277 6.58478 10.3487 6.77555 10.2081 6.9162C10.0674 7.05685 9.87665 7.13586 9.67773 7.13586C9.47882 7.13586 9.28807 7.05685 9.14742 6.9162C9.00676 6.77555 8.92773 6.58478 8.92773 6.38586V5.28589C8.9353 4.48392 9.25731 3.71697 9.82451 3.14996C10.3917 2.58296 11.1588 2.26121 11.9607 2.25391C12.772 2.26132 13.551 2.57283 14.1437 3.12689C14.4334 3.40789 14.6645 3.74361 14.8234 4.11456C14.9824 4.48552 15.0661 4.88434 15.0697 5.2879V6.38788C15.0697 6.58679 14.9907 6.77756 14.8501 6.91821C14.7094 7.05887 14.5187 7.13788 14.3197 7.13788V7.13788Z" fill="black"/>
</svg>
