<svg width="24" height="24" viewBox="0 0 24 24" fill="none" xmlns="http://www.w3.org/2000/svg">
<path fill-rule="evenodd" clip-rule="evenodd" d="M7.93073 4.3572C7.58573 4.7275 7.36035 5.28653 7.36035 6.01294V10.7729C7.36035 11.5009 7.58507 12.06 7.92924 12.43C8.26771 12.7938 8.77675 13.035 9.47437 13.035H14.5263C15.2246 13.035 15.7342 12.7937 16.073 12.4298C16.4175 12.0598 16.6424 11.5007 16.6424 10.7729V6.01294C16.6424 5.28582 16.4176 4.72693 16.0732 4.35699C15.7344 3.99311 15.225 3.75195 14.5273 3.75195H9.47437C8.77971 3.75195 8.27024 3.99279 7.93073 4.3572ZM6.83324 3.3347C7.48549 2.63461 8.40802 2.25195 9.47437 2.25195H14.5273C15.5957 2.25195 16.5188 2.63429 17.171 3.3349C17.8177 4.02946 18.1424 4.97606 18.1424 6.01294V10.7729C18.1424 11.8102 17.8177 12.7571 17.1709 13.4519C16.5185 14.1527 15.5951 14.535 14.5263 14.535H9.47437C8.40598 14.535 7.48301 14.1526 6.83098 13.4517C6.18464 12.7569 5.86035 11.81 5.86035 10.7729V6.01294C5.86035 4.97535 6.18648 4.02888 6.83324 3.3347Z" fill="black"/>
<path fill-rule="evenodd" clip-rule="evenodd" d="M10.3233 12.4221C10.0512 12.6691 9.94824 12.9756 9.94824 13.2366V13.7286C9.94824 14.1429 9.61246 14.4786 9.19824 14.4786C8.78403 14.4786 8.44824 14.1429 8.44824 13.7286V13.2366C8.44824 12.5847 8.70679 11.8637 9.31516 11.3114C9.9258 10.7571 10.8218 10.4316 11.9973 10.4316C13.1729 10.4316 14.0698 10.7531 14.6818 11.3039C15.2927 11.8536 15.5522 12.5732 15.5522 13.2266V13.7286C15.5522 14.1429 15.2165 14.4786 14.8022 14.4786C14.388 14.4786 14.0522 14.1429 14.0522 13.7286V13.2266C14.0522 12.966 13.9498 12.6631 13.6784 12.4189C13.4082 12.1757 12.9026 11.9316 11.9973 11.9316C11.0967 11.9316 10.5932 12.1771 10.3233 12.4221Z" fill="black"/>
<path fill-rule="evenodd" clip-rule="evenodd" d="M12 6.32227C11.4254 6.32227 10.96 6.7873 10.96 7.36127C10.96 7.93378 11.4259 8.40027 12 8.40027C12.5735 8.40027 13.0389 7.93434 13.0389 7.36127C13.0389 6.78674 12.574 6.32227 12 6.32227ZM9.45996 7.36127C9.45996 5.95723 10.5986 4.82227 12 4.82227C13.4019 4.82227 14.5389 5.9578 14.5389 7.36127C14.5389 8.76219 13.4025 9.90027 12 9.90027C10.598 9.90027 9.45996 8.76276 9.45996 7.36127Z" fill="black"/>
<path fill-rule="evenodd" clip-rule="evenodd" d="M2.98041 17.6396C3.27331 17.3467 3.74818 17.3467 4.04107 17.6396L4.92523 18.5238L5.80939 17.6396C6.10228 17.3467 6.57716 17.3467 6.87005 17.6396C7.16295 17.9325 7.16295 18.4074 6.87005 18.7003L5.98589 19.5844L6.87005 20.4686C7.16295 20.7615 7.16295 21.2363 6.87005 21.5292C6.57716 21.8221 6.10228 21.8221 5.80939 21.5292L4.92523 20.6451L4.04107 21.5292C3.74818 21.8221 3.27331 21.8221 2.98041 21.5292C2.68752 21.2363 2.68752 20.7615 2.98041 20.4686L3.86457 19.5844L2.98041 18.7003C2.68752 18.4074 2.68752 17.9325 2.98041 17.6396Z" fill="black"/>
<path fill-rule="evenodd" clip-rule="evenodd" d="M17.1288 17.6397C17.4216 17.3467 17.8965 17.3467 18.1894 17.6395L19.0742 18.5239L19.9589 17.6395C20.2519 17.3467 20.7267 17.3467 21.0196 17.6397C21.3124 17.9326 21.3123 18.4075 21.0194 18.7003L20.135 19.5844L21.0194 20.4685C21.3123 20.7613 21.3124 21.2362 21.0196 21.5291C20.7267 21.8221 20.2519 21.8222 19.9589 21.5293L19.0742 20.6449L18.1894 21.5293C17.8965 21.8222 17.4216 21.8221 17.1288 21.5291C16.8359 21.2362 16.836 20.7613 17.1289 20.4685L18.0133 19.5844L17.1289 18.7003C16.836 18.4075 16.8359 17.9326 17.1288 17.6397Z" fill="black"/>
<path fill-rule="evenodd" clip-rule="evenodd" d="M10.0545 17.6397C10.3474 17.3467 10.8223 17.3467 11.1152 17.6395L12 18.5239L12.8847 17.6395C13.1777 17.3467 13.6525 17.3467 13.9454 17.6397C14.2382 17.9326 14.2381 18.4075 13.9452 18.7003L13.0608 19.5844L13.9452 20.4685C14.2381 20.7613 14.2382 21.2362 13.9454 21.5291C13.6525 21.8221 13.1777 21.8222 12.8847 21.5293L12 20.6449L11.1152 21.5293C10.8223 21.8222 10.3474 21.8221 10.0545 21.5291C9.7617 21.2362 9.76178 20.7613 10.0547 20.4685L10.9391 19.5844L10.0547 18.7003C9.76178 18.4075 9.7617 17.9326 10.0545 17.6397Z" fill="black"/>
</svg>
