<svg width="24" height="24" viewBox="0 0 24 24" fill="none" xmlns="http://www.w3.org/2000/svg">
<path fill-rule="evenodd" clip-rule="evenodd" d="M3.74026 4.2234C4.72473 3.16729 6.12669 2.57617 7.78198 2.57617H16.217C17.8763 2.57617 19.2788 3.16696 20.2629 4.22368C21.2413 5.27438 21.75 6.72476 21.75 8.35217V10.5912C21.75 11.0054 21.4142 11.3412 21 11.3412C20.5858 11.3412 20.25 11.0054 20.25 10.5912V8.35217C20.25 7.03458 19.8412 5.97197 19.1651 5.24591C18.4946 4.52588 17.5057 4.07617 16.217 4.07617H7.78198C6.49828 4.07617 5.50924 4.52555 4.83747 5.2462C4.16026 5.97268 3.75 7.03543 3.75 8.35217V12.4072C3.75 13.7249 4.1586 14.7878 4.83452 15.5141C5.50478 16.2343 6.49339 16.6842 7.78198 16.6842H10.766C11.1802 16.6842 11.516 17.02 11.516 17.4342C11.516 17.8484 11.1802 18.1842 10.766 18.1842H7.78198C6.12258 18.1842 4.7202 17.593 3.73646 16.536C2.75839 15.485 2.25 14.0344 2.25 12.4072V8.35217C2.25 6.72391 2.76123 5.27366 3.74026 4.2234Z" fill="black"/>
<path fill-rule="evenodd" clip-rule="evenodd" d="M16.7459 17.0059C16.3818 17.0059 16.0859 17.3014 16.0859 17.6659V19.2619C16.0859 19.627 16.3825 19.9229 16.7459 19.9229H19.5889C19.9537 19.9229 20.2499 19.6267 20.2499 19.2619V17.6659C20.2499 17.3018 19.9544 17.0059 19.5889 17.0059H16.7459ZM14.5859 17.6659C14.5859 16.4723 15.554 15.5059 16.7459 15.5059H19.5889C20.7814 15.5059 21.7499 16.472 21.7499 17.6659V19.2619C21.7499 20.4551 20.7821 21.4229 19.5889 21.4229H16.7459C15.5533 21.4229 14.5859 20.4547 14.5859 19.2619V17.6659Z" fill="black"/>
<path fill-rule="evenodd" clip-rule="evenodd" d="M18.9126 14.6711C18.7354 14.4473 18.4624 14.3067 18.1562 14.3106C17.6473 14.3167 17.2338 14.7256 17.2227 15.2357V16.2857C17.2227 16.6999 16.8869 17.0357 16.4727 17.0357C16.0584 17.0357 15.7227 16.6999 15.7227 16.2857V15.2164C15.7443 13.893 16.8143 12.8266 18.1377 12.8107C18.1379 12.8107 18.1375 12.8107 18.1377 12.8107C18.9293 12.8008 19.6361 13.1682 20.0888 13.7402C20.3458 14.065 20.2909 14.5367 19.9661 14.7938C19.6413 15.0508 19.1696 14.9959 18.9126 14.6711Z" fill="black"/>
<path fill-rule="evenodd" clip-rule="evenodd" d="M10.9902 10.3216C10.9902 9.76713 11.4383 9.31055 12.0002 9.31055C12.5586 9.31055 13.0112 9.76346 13.0112 10.3216C13.0112 10.8834 12.5548 11.3316 12.0002 11.3316C11.442 11.3316 10.9902 10.8798 10.9902 10.3216Z" fill="black"/>
<path fill-rule="evenodd" clip-rule="evenodd" d="M14.8965 10.3216C14.8965 9.76346 15.3491 9.31055 15.9075 9.31055C16.4695 9.31055 16.9175 9.76713 16.9175 10.3216C16.9175 10.8798 16.4657 11.3316 15.9075 11.3316C15.3529 11.3316 14.8965 10.8834 14.8965 10.3216Z" fill="black"/>
<path fill-rule="evenodd" clip-rule="evenodd" d="M7.08398 10.3216C7.08398 9.76346 7.53664 9.31055 8.09497 9.31055C8.65318 9.31055 9.10599 9.76335 9.10599 10.3216C9.10599 10.8835 8.6494 11.3316 8.09497 11.3316C7.54043 11.3316 7.08398 10.8834 7.08398 10.3216Z" fill="black"/>
</svg>
