<svg width="24" height="24" viewBox="0 0 24 24" fill="none" xmlns="http://www.w3.org/2000/svg">
<path fill-rule="evenodd" clip-rule="evenodd" d="M3.71031 4.05672C4.67565 3.02083 6.05014 2.44141 7.672 2.44141H15.912C17.5374 2.44141 18.9124 3.02052 19.8774 4.05698C20.8367 5.08739 21.335 6.50898 21.335 8.10242V10.2894C21.335 10.7036 20.9992 11.0394 20.585 11.0394C20.1707 11.0394 19.835 10.7036 19.835 10.2894V8.10242C19.835 6.81885 19.4367 5.78494 18.7795 5.0791C18.128 4.37929 17.1666 3.94141 15.912 3.94141H7.672C6.42185 3.94141 5.46034 4.37899 4.80768 5.07935C4.14955 5.78558 3.75 6.81962 3.75 8.10242V12.0644C3.75 13.3482 4.14788 14.3818 4.80459 15.0873C5.45564 15.7867 6.41673 16.2244 7.672 16.2244H9.69897C10.1132 16.2244 10.449 16.5602 10.449 16.9744C10.449 17.3886 10.1132 17.7244 9.69897 17.7244H7.672C6.04627 17.7244 4.67136 17.1457 3.70666 16.1093C2.74762 15.079 2.25 13.6576 2.25 12.0644V8.10242C2.25 6.50822 2.75044 5.08674 3.71031 4.05672Z" fill="black"/>
<path fill-rule="evenodd" clip-rule="evenodd" d="M12.5918 16.9784C12.5918 14.4492 14.6425 12.3984 17.1718 12.3984C19.7012 12.3984 21.7508 14.4495 21.7508 16.9784C21.7508 19.5076 19.701 21.5574 17.1718 21.5574C14.6428 21.5574 12.5918 19.5079 12.5918 16.9784ZM17.1718 13.8984C15.471 13.8984 14.0918 15.2776 14.0918 16.9784C14.0918 18.679 15.4707 20.0574 17.1718 20.0574C18.8725 20.0574 20.2508 18.6792 20.2508 16.9784C20.2508 15.2774 18.8723 13.8984 17.1718 13.8984Z" fill="black"/>
<path fill-rule="evenodd" clip-rule="evenodd" d="M15.5595 15.3642C15.8524 15.0713 16.3273 15.0713 16.6202 15.3642L17.1704 15.9144L17.7196 15.3652C18.0124 15.0723 18.4873 15.0723 18.7802 15.3652C19.0731 15.6581 19.0731 16.133 18.7802 16.4259L18.231 16.975L18.7802 17.5242C19.0731 17.8171 19.0731 18.292 18.7802 18.5849C18.4873 18.8778 18.0124 18.8778 17.7196 18.5849L17.1704 18.0357L16.6202 18.5859C16.3273 18.8788 15.8524 18.8788 15.5595 18.5859C15.2666 18.293 15.2666 17.8181 15.5595 17.5252L16.1097 16.975L15.5595 16.4249C15.2666 16.132 15.2666 15.6571 15.5595 15.3642Z" fill="black"/>
<path fill-rule="evenodd" clip-rule="evenodd" d="M10.7832 10.0227C10.7832 9.46449 11.236 9.01172 11.7942 9.01172C12.3524 9.01172 12.8052 9.46449 12.8052 10.0227C12.8052 10.5846 12.3487 11.0327 11.7942 11.0327C11.2396 11.0327 10.7832 10.5846 10.7832 10.0227Z" fill="black"/>
<path fill-rule="evenodd" clip-rule="evenodd" d="M14.6875 10.0227C14.6875 9.46449 15.1403 9.01172 15.6985 9.01172C16.2604 9.01172 16.7085 9.46816 16.7085 10.0227C16.7085 10.5809 16.2567 11.0327 15.6985 11.0327C15.1439 11.0327 14.6875 10.5846 14.6875 10.0227Z" fill="black"/>
<path fill-rule="evenodd" clip-rule="evenodd" d="M6.87695 10.0227C6.87695 9.46449 7.32973 9.01172 7.88794 9.01172C8.44592 9.01172 8.89899 9.46426 8.89899 10.0227C8.89899 10.5848 8.44226 11.0327 7.88794 11.0327C7.33339 11.0327 6.87695 10.5846 6.87695 10.0227Z" fill="black"/>
</svg>
