<svg width="24" height="24" viewBox="0 0 24 24" fill="none" xmlns="http://www.w3.org/2000/svg">
<path fill-rule="evenodd" clip-rule="evenodd" d="M3.74019 4.06382C4.72462 3.00747 6.12658 2.41602 7.78198 2.41602H16.217C17.8764 2.41602 19.279 3.00713 20.2629 4.06411C21.2413 5.11503 21.75 6.56563 21.75 8.19302V10.431C21.75 10.8452 21.4142 11.181 21 11.181C20.5858 11.181 20.25 10.8452 20.25 10.431V8.19302C20.25 6.87542 19.8412 5.81251 19.165 5.08618C18.4945 4.3659 17.5056 3.91602 16.217 3.91602H7.78198C6.49839 3.91602 5.50936 4.36557 4.83755 5.08647C4.16027 5.81322 3.75 6.87627 3.75 8.19302V12.248C3.75 13.5657 4.15859 14.6283 4.83445 15.3544C5.50466 16.0743 6.49327 16.524 7.78198 16.524H11.674C12.0882 16.524 12.424 16.8598 12.424 17.274C12.424 17.6882 12.0882 18.024 11.674 18.024H7.78198C6.12269 18.024 4.72032 17.4332 3.73654 16.3764C2.7584 15.3257 2.25 13.8753 2.25 12.248V8.19302C2.25 6.56478 2.76122 5.11432 3.74019 4.06382Z" fill="black"/>
<path fill-rule="evenodd" clip-rule="evenodd" d="M18.0881 15.0684C16.7031 15.0684 15.5801 16.1907 15.5801 17.5764C15.5801 18.9608 16.703 20.0834 18.0881 20.0834C18.9973 20.0834 19.7941 19.6005 20.2347 18.8736C20.4494 18.5194 20.9106 18.4063 21.2648 18.621C21.6191 18.8357 21.7322 19.2969 21.5174 19.6511C20.8161 20.8082 19.5429 21.5834 18.0881 21.5834C15.8752 21.5834 14.0801 19.7899 14.0801 17.5764C14.0801 15.362 15.875 13.5684 18.0881 13.5684C19.6551 13.5684 21.0115 14.4677 21.67 15.7762C21.8562 16.1462 21.7073 16.5971 21.3373 16.7833C20.9673 16.9695 20.5164 16.8205 20.3302 16.4505C19.9167 15.629 19.0671 15.0684 18.0881 15.0684Z" fill="black"/>
<path fill-rule="evenodd" clip-rule="evenodd" d="M21.0003 13.5684C21.4145 13.5684 21.7503 13.9041 21.7503 14.3184V16.1114C21.7503 16.5256 21.4145 16.8614 21.0003 16.8614H19.1973C18.7831 16.8614 18.4473 16.5256 18.4473 16.1114C18.4473 15.6971 18.7831 15.3614 19.1973 15.3614H20.2503V14.3184C20.2503 13.9041 20.5861 13.5684 21.0003 13.5684Z" fill="black"/>
<path fill-rule="evenodd" clip-rule="evenodd" d="M10.9902 10.1614C10.9902 9.60698 11.4383 9.15039 12.0002 9.15039C12.5586 9.15039 13.0112 9.60331 13.0112 10.1614C13.0112 10.7196 12.5585 11.1724 12.0002 11.1724C11.4384 11.1724 10.9902 10.716 10.9902 10.1614Z" fill="black"/>
<path fill-rule="evenodd" clip-rule="evenodd" d="M14.8945 10.1614C14.8945 9.60319 15.3473 9.15039 15.9055 9.15039C16.4676 9.15039 16.9155 9.60709 16.9155 10.1614C16.9155 10.7158 16.4675 11.1724 15.9055 11.1724C15.3474 11.1724 14.8945 10.7197 14.8945 10.1614Z" fill="black"/>
<path fill-rule="evenodd" clip-rule="evenodd" d="M7.08398 10.1614C7.08398 9.60319 7.53679 9.15039 8.095 9.15039C8.65333 9.15039 9.10599 9.60331 9.10599 10.1614C9.10599 10.7196 8.65321 11.1724 8.095 11.1724C7.5369 11.1724 7.08398 10.7197 7.08398 10.1614Z" fill="black"/>
</svg>
