<svg width="24" height="24" viewBox="0 0 24 24" fill="none" xmlns="http://www.w3.org/2000/svg">
<path fill-rule="evenodd" clip-rule="evenodd" d="M12 2.25C12.4142 2.25 12.75 2.58579 12.75 3V4.83301C12.75 5.24722 12.4142 5.58301 12 5.58301C11.5858 5.58301 11.25 5.24722 11.25 4.83301V3C11.25 2.58579 11.5858 2.25 12 2.25ZM5.10683 5.10549C5.39984 4.8127 5.87471 4.81288 6.16749 5.10589L7.46351 6.40288C7.7563 6.69589 7.75612 7.17076 7.46311 7.46354C7.17011 7.75633 6.69524 7.75615 6.40245 7.46314L5.10643 6.16615C4.81365 5.87314 4.81383 5.39827 5.10683 5.10549ZM18.8953 5.10569C19.1882 5.39858 19.1882 5.87345 18.8953 6.16635L17.5983 7.46334C17.3054 7.75624 16.8306 7.75624 16.5377 7.46334C16.2448 7.17045 16.2448 6.69558 16.5377 6.40268L17.8347 5.10569C18.1276 4.81279 18.6024 4.81279 18.8953 5.10569ZM2.25 12C2.25 11.5858 2.58579 11.25 3 11.25H4.83398C5.2482 11.25 5.58398 11.5858 5.58398 12C5.58398 12.4142 5.2482 12.75 4.83398 12.75H3C2.58579 12.75 2.25 12.4142 2.25 12ZM18.417 12C18.417 11.5858 18.7528 11.25 19.167 11.25H21C21.4142 11.25 21.75 11.5858 21.75 12C21.75 12.4142 21.4142 12.75 21 12.75H19.167C18.7528 12.75 18.417 12.4142 18.417 12ZM7.46311 16.5365C7.75612 16.8293 7.7563 17.3041 7.46351 17.5971L6.16749 18.8941C5.87471 19.1871 5.39984 19.1873 5.10683 18.8945C4.81383 18.6018 4.81365 18.1269 5.10643 17.8339L6.40245 16.5369C6.69524 16.2439 7.17011 16.2437 7.46311 16.5365ZM16.5377 16.5367C16.8306 16.2438 17.3054 16.2438 17.5983 16.5367L18.8953 17.8337C19.1882 18.1266 19.1882 18.6015 18.8953 18.8943C18.6024 19.1872 18.1276 19.1872 17.8347 18.8943L16.5377 17.5973C16.2448 17.3045 16.2448 16.8296 16.5377 16.5367ZM12 18.416C12.4142 18.416 12.75 18.7518 12.75 19.166V21C12.75 21.4142 12.4142 21.75 12 21.75C11.5858 21.75 11.25 21.4142 11.25 21V19.166C11.25 18.7518 11.5858 18.416 12 18.416Z" fill="black"/>
<path fill-rule="evenodd" clip-rule="evenodd" d="M2.25 12C2.25 6.61479 6.61479 2.25 12 2.25C17.3852 2.25 21.75 6.61479 21.75 12C21.75 17.3852 17.3852 21.75 12 21.75C6.61479 21.75 2.25 17.3852 2.25 12ZM12 3.75C7.44321 3.75 3.75 7.44321 3.75 12C3.75 16.5568 7.44321 20.25 12 20.25C16.5568 20.25 20.25 16.5568 20.25 12C20.25 7.44321 16.5568 3.75 12 3.75Z" fill="black"/>
<path fill-rule="evenodd" clip-rule="evenodd" d="M12.0023 9.15234C10.4305 9.15234 9.15625 10.4266 9.15625 11.9984C9.15625 13.5701 10.4305 14.8444 12.0023 14.8444C13.574 14.8444 14.8483 13.5701 14.8483 11.9984C14.8483 10.4266 13.574 9.15234 12.0023 9.15234ZM7.65625 11.9984C7.65625 9.59814 9.60204 7.65234 12.0023 7.65234C14.4025 7.65234 16.3483 9.59814 16.3483 11.9984C16.3483 14.3986 14.4025 16.3444 12.0023 16.3444C9.60204 16.3444 7.65625 14.3986 7.65625 11.9984Z" fill="black"/>
<path fill-rule="evenodd" clip-rule="evenodd" d="M15.0037 8.88373C15.2966 9.17663 15.2966 9.6515 15.0037 9.94439L12.7217 12.2264C12.4288 12.5193 11.954 12.5193 11.6611 12.2264C11.3682 11.9335 11.3682 11.4586 11.6611 11.1657L13.9431 8.88373C14.236 8.59084 14.7108 8.59084 15.0037 8.88373Z" fill="black"/>
</svg>
