<svg width="24" height="24" viewBox="0 0 24 24" fill="none" xmlns="http://www.w3.org/2000/svg">
<path fill-rule="evenodd" clip-rule="evenodd" d="M6.89286 3.75006C5.15668 3.75006 3.75 5.15699 3.75 6.89195V8.46913C3.75 8.88335 3.41421 9.21913 3 9.21913C2.58579 9.21913 2.25 8.88335 2.25 8.46913V6.89195C2.25 4.32832 4.3285 2.25006 6.89286 2.25006H8.18205C8.59626 2.25006 8.93205 2.58585 8.93205 3.00006C8.93205 3.41427 8.59626 3.75006 8.18205 3.75006H6.89286Z" fill="black"/>
<path fill-rule="evenodd" clip-rule="evenodd" d="M3 14.7812C3.41421 14.7812 3.75 15.117 3.75 15.5312V17.1084C3.75 18.8434 5.15668 20.2503 6.89286 20.2503H8.14994C8.56415 20.2503 8.89994 20.5861 8.89994 21.0003C8.89994 21.4145 8.56415 21.7503 8.14994 21.7503H6.89286C4.3285 21.7503 2.25 19.6721 2.25 17.1084V15.5312C2.25 15.117 2.58579 14.7812 3 14.7812Z" fill="black"/>
<path fill-rule="evenodd" clip-rule="evenodd" d="M21.0004 14.7812C21.4146 14.7812 21.7504 15.117 21.7504 15.5312V17.1084C21.7504 19.6721 19.6719 21.7503 17.1075 21.7503H15.8184C15.4041 21.7503 15.0684 21.4145 15.0684 21.0003C15.0684 20.5861 15.4041 20.2503 15.8184 20.2503H17.1075C18.8437 20.2503 20.2504 18.8434 20.2504 17.1084V15.5312C20.2504 15.117 20.5862 14.7812 21.0004 14.7812Z" fill="black"/>
<path fill-rule="evenodd" clip-rule="evenodd" d="M16.8814 3.83105C15.0266 3.83105 13.5229 5.33469 13.5229 7.18952C13.5229 7.42196 13.5555 7.65244 13.6108 7.90454C13.6656 8.15429 13.5894 8.41476 13.4086 8.59558L9.75 12.2549V14.166H11.516V13.4424C11.516 13.0282 11.8518 12.6924 12.266 12.6924H13.0387V11.9443C13.0387 11.5301 13.3745 11.1943 13.7887 11.1943H14.461L15.0873 10.5693C15.2864 10.3707 15.5798 10.3002 15.8473 10.3865C16.1714 10.491 16.5197 10.548 16.8814 10.548C18.7362 10.548 20.2399 9.04435 20.2399 7.18952C20.2399 5.33469 18.7362 3.83105 16.8814 3.83105ZM14.5387 12.6943V13.4424C14.5387 13.8566 14.203 14.1924 13.7887 14.1924H13.016V14.4168C13.016 15.1067 12.4567 15.666 11.7668 15.666H9.49916C8.80927 15.666 8.25 15.1067 8.25 14.4168V12.151C8.25 11.8198 8.38157 11.5021 8.61576 11.2678L8.61578 11.2678L12.0696 7.81333C12.0409 7.61527 12.0229 7.40766 12.0229 7.18952C12.0229 4.50626 14.1981 2.33105 16.8814 2.33105C19.5646 2.33105 21.7399 4.50626 21.7399 7.18952C21.7399 9.87278 19.5646 12.048 16.8814 12.048C16.5254 12.048 16.1768 12.0096 15.8409 11.9364L15.3009 12.4752C15.1603 12.6155 14.9698 12.6943 14.7712 12.6943H14.5387Z" fill="black"/>
<path fill-rule="evenodd" clip-rule="evenodd" d="M16.9626 6.72882C17.1613 6.72057 17.3215 6.89533 17.2856 7.10395C17.2154 7.51218 17.4894 7.90001 17.8976 7.97022C18.3058 8.04042 18.6937 7.7664 18.7639 7.35818C18.9637 6.196 18.0415 5.18275 16.9004 5.23011C16.4865 5.24729 16.1649 5.59671 16.1821 6.01057C16.1993 6.42442 16.5487 6.746 16.9626 6.72882Z" fill="black"/>
</svg>
