<svg width="24" height="24" viewBox="0 0 24 24" fill="none" xmlns="http://www.w3.org/2000/svg">
<path d="M17.1083 21.7502H15.8193C15.6204 21.7502 15.4297 21.6712 15.289 21.5306C15.1483 21.3899 15.0693 21.1992 15.0693 21.0002C15.0693 20.8013 15.1483 20.6106 15.289 20.4699C15.4297 20.3293 15.6204 20.2502 15.8193 20.2502H17.1083C17.9415 20.2495 18.7403 19.9182 19.3295 19.3292C19.9188 18.7401 20.2503 17.9414 20.2513 17.1082V15.5312C20.2513 15.3323 20.3304 15.1416 20.471 15.0009C20.6117 14.8603 20.8024 14.7812 21.0013 14.7812C21.2003 14.7812 21.391 14.8603 21.5317 15.0009C21.6723 15.1416 21.7513 15.3323 21.7513 15.5312V17.1082C21.7498 18.3391 21.26 19.519 20.3896 20.3892C19.5192 21.2595 18.3392 21.7489 17.1083 21.7502V21.7502Z" fill="black"/>
<path d="M8.14905 21.7502H6.89203C5.66121 21.7489 4.48113 21.2595 3.61072 20.3892C2.7403 19.519 2.25061 18.3391 2.24902 17.1082V15.5312C2.24902 15.3323 2.32804 15.1416 2.46869 15.0009C2.60934 14.8603 2.80011 14.7812 2.99902 14.7812C3.19794 14.7812 3.38871 14.8603 3.52936 15.0009C3.67001 15.1416 3.74902 15.3323 3.74902 15.5312V17.1082C3.75008 17.9414 4.08161 18.7401 4.67084 19.3292C5.26006 19.9182 6.05887 20.2495 6.89203 20.2502H8.14905C8.34796 20.2502 8.53873 20.3293 8.67938 20.4699C8.82003 20.6106 8.89905 20.8013 8.89905 21.0002C8.89905 21.1992 8.82003 21.3899 8.67938 21.5306C8.53873 21.6712 8.34796 21.7502 8.14905 21.7502Z" fill="black"/>
<path d="M2.99902 9.21901C2.80011 9.21901 2.60934 9.13998 2.46869 8.99933C2.32804 8.85868 2.24902 8.66792 2.24902 8.46901V6.892C2.25061 5.66118 2.7403 4.48125 3.61072 3.61102C4.48113 2.74079 5.66121 2.25132 6.89203 2.25H8.18103C8.37994 2.25 8.57071 2.32903 8.71136 2.46968C8.85202 2.61033 8.93103 2.80109 8.93103 3C8.93103 3.19891 8.85202 3.38968 8.71136 3.53033C8.57071 3.67099 8.37994 3.75 8.18103 3.75H6.89203C6.05887 3.75079 5.26006 4.08206 4.67084 4.6711C4.08161 5.26014 3.75008 6.05884 3.74902 6.892V8.46901C3.74902 8.66792 3.67001 8.85868 3.52936 8.99933C3.38871 9.13998 3.19794 9.21901 2.99902 9.21901Z" fill="black"/>
<path d="M20.9987 9.21901C20.7997 9.21901 20.609 9.13998 20.4683 8.99933C20.3277 8.85868 20.2487 8.66792 20.2487 8.46901V6.892C20.2476 6.05884 19.9161 5.26014 19.3268 4.6711C18.7376 4.08206 17.9388 3.75079 17.1057 3.75H15.8486C15.6497 3.75 15.459 3.67099 15.3183 3.53033C15.1776 3.38968 15.0986 3.19891 15.0986 3C15.0986 2.80109 15.1776 2.61033 15.3183 2.46968C15.459 2.32903 15.6497 2.25 15.8486 2.25H17.1057C18.3365 2.25132 19.5165 2.74079 20.387 3.61102C21.2574 4.48125 21.7471 5.66118 21.7487 6.892V8.46901C21.7487 8.66792 21.6696 8.85868 21.529 8.99933C21.3883 9.13998 21.1976 9.21901 20.9987 9.21901Z" fill="black"/>
<path d="M13.2229 16.7883H10.7749C10.4917 16.7878 10.2127 16.7202 9.96064 16.5911C9.7086 16.4619 9.49075 16.2749 9.3249 16.0454C9.15905 15.8158 9.04992 15.5502 9.00648 15.2704C8.96304 14.9905 8.98651 14.7044 9.07496 14.4353L9.68092 12.6183C9.11116 12.0279 8.79372 11.2388 8.79591 10.4183C8.79591 9.56871 9.13343 8.75389 9.7342 8.15312C10.335 7.55235 11.1498 7.21484 11.9995 7.21484C12.8491 7.21484 13.6639 7.55235 14.2647 8.15312C14.8654 8.75389 15.203 9.56871 15.203 10.4183C15.2051 11.2388 14.8877 12.0279 14.3179 12.6183L14.9229 14.4333C15.0122 14.7025 15.0364 14.989 14.9933 15.2693C14.9502 15.5496 14.8412 15.8157 14.6752 16.0456C14.5093 16.2755 14.291 16.4628 14.0385 16.5919C13.786 16.721 13.5065 16.7884 13.2229 16.7883V16.7883ZM11.9979 8.71333C11.64 8.71373 11.2913 8.82709 11.0016 9.03726C10.7119 9.24743 10.4959 9.54368 10.3844 9.8838C10.2729 10.2239 10.2716 10.5906 10.3807 10.9315C10.4898 11.2724 10.7037 11.5701 10.992 11.7823C11.1191 11.8765 11.2133 12.0084 11.2611 12.1592C11.3088 12.3101 11.3078 12.4722 11.2579 12.6223L10.4979 14.9073C10.4835 14.951 10.4798 14.9974 10.4869 15.0428C10.494 15.0882 10.5119 15.1312 10.539 15.1683C10.5655 15.2059 10.6007 15.2364 10.6417 15.2573C10.6826 15.2782 10.728 15.2889 10.7739 15.2883H13.2219C13.2678 15.2889 13.313 15.2783 13.3538 15.2574C13.3946 15.2365 13.4297 15.2059 13.4559 15.1683C13.4837 15.1312 13.502 15.0878 13.5092 15.0419C13.5163 14.9961 13.5121 14.9492 13.497 14.9053L12.7369 12.6223C12.6871 12.4722 12.686 12.3101 12.7338 12.1592C12.7815 12.0084 12.8758 11.8765 13.0029 11.7823C13.2911 11.5702 13.505 11.2725 13.6141 10.9317C13.7232 10.5909 13.722 10.2244 13.6106 9.88428C13.4992 9.5442 13.2834 9.24795 12.9938 9.0377C12.7043 8.82746 12.3558 8.71394 11.9979 8.71333Z" fill="black"/>
</svg>
