<svg width="24" height="24" viewBox="0 0 24 24" fill="none" xmlns="http://www.w3.org/2000/svg">
<path fill-rule="evenodd" clip-rule="evenodd" d="M2.99902 14.7812C3.41324 14.7812 3.74902 15.117 3.74902 15.5312V17.1082C3.74902 18.8429 5.15609 20.2502 6.892 20.2502H8.14902C8.56323 20.2502 8.89902 20.586 8.89902 21.0002C8.89902 21.4145 8.56323 21.7502 8.14902 21.7502H6.892C4.3279 21.7502 2.24902 19.6716 2.24902 17.1082V15.5312C2.24902 15.117 2.58481 14.7812 2.99902 14.7812Z" fill="black"/>
<path fill-rule="evenodd" clip-rule="evenodd" d="M20.9994 14.7812C21.4136 14.7812 21.7494 15.117 21.7494 15.5312V17.1082C21.7494 19.6716 19.6705 21.7502 17.1064 21.7502H15.8174C15.4032 21.7502 15.0674 21.4145 15.0674 21.0002C15.0674 20.586 15.4032 20.2502 15.8174 20.2502H17.1064C18.8423 20.2502 20.2494 18.8429 20.2494 17.1082V15.5312C20.2494 15.117 20.5852 14.7812 20.9994 14.7812Z" fill="black"/>
<path fill-rule="evenodd" clip-rule="evenodd" d="M6.892 3.75C5.15597 3.75 3.74902 5.15646 3.74902 6.892V8.46899C3.74902 8.88321 3.41324 9.21899 2.99902 9.21899C2.58481 9.21899 2.24902 8.88321 2.24902 8.46899V6.892C2.24902 4.32754 4.32803 2.25 6.892 2.25H8.181C8.59521 2.25 8.931 2.58579 8.931 3C8.931 3.41421 8.59521 3.75 8.181 3.75H6.892Z" fill="black"/>
<path fill-rule="evenodd" clip-rule="evenodd" d="M15.1006 3C15.1006 2.58579 15.4364 2.25 15.8506 2.25H17.1076C19.6716 2.25 21.7506 4.32753 21.7506 6.892V8.46899C21.7506 8.88321 21.4148 9.21899 21.0006 9.21899C20.5864 9.21899 20.2506 8.88321 20.2506 8.46899V6.892C20.2506 5.15646 18.8436 3.75 17.1076 3.75H15.8506C15.4364 3.75 15.1006 3.41421 15.1006 3Z" fill="black"/>
<path fill-rule="evenodd" clip-rule="evenodd" d="M5.37988 11.5977C5.37988 11.1834 5.71567 10.8477 6.12988 10.8477H17.8729C18.2871 10.8477 18.6229 11.1834 18.6229 11.5977C18.6229 12.0119 18.2871 12.3477 17.8729 12.3477H6.12988C5.71567 12.3477 5.37988 12.0119 5.37988 11.5977Z" fill="black"/>
<path fill-rule="evenodd" clip-rule="evenodd" d="M6.96387 9.82794C6.96387 8.25037 8.23402 6.96094 9.82086 6.96094H14.1808C15.7534 6.96094 17.0369 8.24803 17.0369 9.82794V11.5999C17.0369 12.0142 16.7011 12.3499 16.2869 12.3499C15.8727 12.3499 15.5369 12.0142 15.5369 11.5999V9.82794C15.5369 9.07185 14.9203 8.46094 14.1808 8.46094H9.82086C9.0717 8.46094 8.46387 9.06952 8.46387 9.82794V11.5999C8.46387 12.0142 8.12808 12.3499 7.71387 12.3499C7.29965 12.3499 6.96387 12.0142 6.96387 11.5999V9.82794Z" fill="black"/>
<path fill-rule="evenodd" clip-rule="evenodd" d="M7.71387 13.4258C8.12808 13.4258 8.46387 13.7616 8.46387 14.1758C8.46387 14.9283 9.06684 15.5318 9.82086 15.5318H14.1808C14.9252 15.5318 15.5369 14.926 15.5369 14.1758C15.5369 13.7616 15.8727 13.4258 16.2869 13.4258C16.7011 13.4258 17.0369 13.7616 17.0369 14.1758C17.0369 15.7596 15.7485 17.0318 14.1808 17.0318H9.82086C8.23888 17.0318 6.96387 15.7572 6.96387 14.1758C6.96387 13.7616 7.29965 13.4258 7.71387 13.4258Z" fill="black"/>
</svg>
