<svg width="24" height="24" viewBox="0 0 24 24" fill="none" xmlns="http://www.w3.org/2000/svg">
<path d="M11.9998 21.75C11.9262 21.7504 11.8531 21.7396 11.7828 21.718C11.4618 21.618 3.92676 19.265 3.92676 12.67C3.92676 10.835 3.90176 9.509 3.88476 8.537C3.84076 6.103 3.83077 5.596 4.46777 4.96C5.22277 4.206 10.9158 2.25 11.9998 2.25C13.1448 2.25 18.7648 4.187 19.5338 4.962C20.1688 5.602 20.1587 6.108 20.1147 8.544C20.0977 9.516 20.0737 10.844 20.0737 12.67C20.0737 19.264 12.5378 21.621 12.2178 21.718C12.1471 21.7394 12.0736 21.7502 11.9998 21.75V21.75ZM11.9998 3.75C9.75787 4.26042 7.58199 5.02643 5.51477 6.033C5.35477 6.193 5.34876 6.525 5.38476 8.509C5.40176 9.488 5.42676 10.823 5.42676 12.67C5.42676 17.582 10.8368 19.791 11.9998 20.208C13.1628 19.791 18.5737 17.582 18.5737 12.67C18.5737 10.827 18.5988 9.495 18.6158 8.518C18.6508 6.527 18.6447 6.195 18.4697 6.018C16.4064 5.01824 14.2357 4.25732 11.9998 3.75V3.75Z" fill="black"/>
<path d="M12 15.7775C11.8011 15.7775 11.6103 15.6985 11.4697 15.5578C11.329 15.4172 11.25 15.2264 11.25 15.0275V11.2345C11.25 11.0356 11.329 10.8448 11.4697 10.7042C11.6103 10.5635 11.8011 10.4845 12 10.4845C12.1989 10.4845 12.3897 10.5635 12.5303 10.7042C12.671 10.8448 12.75 11.0356 12.75 11.2345V15.0275C12.75 15.2264 12.671 15.4172 12.5303 15.5578C12.3897 15.6985 12.1989 15.7775 12 15.7775ZM12 8.95549C11.8011 8.95549 11.6103 8.87647 11.4697 8.73582C11.329 8.59517 11.25 8.4044 11.25 8.20549C11.2495 8.00511 11.3278 7.81258 11.4682 7.66958C11.6086 7.52659 11.7996 7.44464 12 7.44149C12.0978 7.44003 12.1949 7.45801 12.2857 7.49437C12.3765 7.53073 12.4592 7.58475 12.529 7.65331C12.5988 7.72186 12.6542 7.80359 12.6921 7.89374C12.7301 7.98389 12.7497 8.08068 12.75 8.17849V8.20549C12.75 8.4044 12.671 8.59517 12.5303 8.73582C12.3897 8.87647 12.1989 8.95549 12 8.95549V8.95549Z" fill="black"/>
</svg>
