<svg width="24" height="24" viewBox="0 0 24 24" fill="none" xmlns="http://www.w3.org/2000/svg">
<path fill-rule="evenodd" clip-rule="evenodd" d="M15.5763 9.26647C15.8692 9.55933 15.8693 10.0342 15.5764 10.3271L11.8548 14.0497C11.7141 14.1905 11.5232 14.2695 11.3242 14.2695C11.1251 14.2694 10.9343 14.1902 10.7937 14.0494L8.98781 12.2407C8.69514 11.9476 8.69552 11.4727 8.98864 11.18C9.28177 10.8874 9.75664 10.8877 10.0493 11.1809L11.3248 12.4583L14.5156 9.26662C14.8085 8.97368 15.2833 8.97362 15.5763 9.26647Z" fill="black"/>
<path d="M11.9998 21.75C11.9262 21.7504 11.8531 21.7396 11.7828 21.718C11.4618 21.618 3.92676 19.265 3.92676 12.67C3.92676 10.835 3.90176 9.509 3.88476 8.537C3.84076 6.103 3.83077 5.596 4.46777 4.96C5.22277 4.206 10.9158 2.25 11.9998 2.25C13.1448 2.25 18.7648 4.187 19.5338 4.962C20.1688 5.602 20.1587 6.108 20.1147 8.544C20.0977 9.516 20.0737 10.844 20.0737 12.67C20.0737 19.264 12.5378 21.621 12.2178 21.718C12.1471 21.7394 12.0736 21.7502 11.9998 21.75V21.75ZM11.9998 3.75C9.75787 4.26042 7.58199 5.02643 5.51477 6.033C5.35477 6.193 5.34876 6.525 5.38476 8.509C5.40176 9.488 5.42676 10.823 5.42676 12.67C5.42676 17.582 10.8368 19.791 11.9998 20.208C13.1628 19.791 18.5737 17.582 18.5737 12.67C18.5737 10.827 18.5988 9.495 18.6158 8.518C18.6508 6.527 18.6447 6.195 18.4697 6.018C16.4064 5.01824 14.2357 4.25732 11.9998 3.75V3.75Z" fill="black"/>
</svg>
