<svg width="24" height="24" viewBox="0 0 24 24" fill="none" xmlns="http://www.w3.org/2000/svg">
<path fill-rule="evenodd" clip-rule="evenodd" d="M3.00586 18.2795C3.00586 16.7793 4.22261 15.5625 5.72284 15.5625C7.2223 15.5625 8.43884 16.7795 8.43884 18.2795C8.43884 19.78 7.2218 20.9955 5.72284 20.9955C4.22311 20.9955 3.00586 19.7802 3.00586 18.2795ZM5.72284 17.0625C5.05107 17.0625 4.50586 17.6077 4.50586 18.2795C4.50586 18.9508 5.05057 19.4955 5.72284 19.4955C6.39387 19.4955 6.93884 18.951 6.93884 18.2795C6.93884 17.6075 6.39337 17.0625 5.72284 17.0625Z" fill="black"/>
<path fill-rule="evenodd" clip-rule="evenodd" d="M15.6465 5.63885C15.6465 4.13913 16.8618 2.92188 18.3625 2.92188C19.8627 2.92188 21.0795 4.13864 21.0795 5.63885C21.0795 7.13955 19.8622 8.35486 18.3625 8.35486C16.8623 8.35486 15.6465 7.13907 15.6465 5.63885ZM18.3625 4.42188C17.6912 4.42188 17.1465 4.96658 17.1465 5.63885C17.1465 6.31064 17.6907 6.85486 18.3625 6.85486C19.0348 6.85486 19.5795 6.31016 19.5795 5.63885C19.5795 4.96707 19.0343 4.42188 18.3625 4.42188Z" fill="black"/>
<path fill-rule="evenodd" clip-rule="evenodd" d="M11.636 7.98158C11.7282 7.96133 11.8678 7.93359 12.0004 7.93359C12.1328 7.93359 12.2721 7.96121 12.3644 7.98141C12.4744 8.00549 12.599 8.03814 12.7282 8.07503C12.9877 8.1491 13.2936 8.24825 13.5909 8.35294C13.8877 8.45747 14.1867 8.57131 14.431 8.67603C14.5523 8.72803 14.6693 8.78171 14.7695 8.83412C14.8422 8.87216 14.9939 8.95295 15.1119 9.07151L15.1131 9.07272C15.2427 9.20348 15.3561 9.36815 15.4165 9.60153C15.4634 9.78262 15.4699 9.97864 15.4712 10.1554C15.4723 10.3068 15.4688 10.5011 15.4645 10.7414C15.4634 10.8004 15.4623 10.8622 15.4612 10.9268C15.4554 11.261 15.4494 11.6899 15.4494 12.2476C15.4494 13.7145 14.5605 14.6792 13.7881 15.2353C13.3972 15.5167 13.0112 15.7134 12.7252 15.8398C12.5811 15.9035 12.4596 15.9505 12.3718 15.9823C12.3279 15.9982 12.2922 16.0104 12.2661 16.019L12.2342 16.0293L12.224 16.0325L12.2203 16.0336L12.2189 16.0341L12.2183 16.0343C12.218 16.0344 12.2177 16.0345 12.0004 15.3166C11.7833 16.0345 11.7831 16.0344 11.7828 16.0344L11.7821 16.0342L11.7807 16.0337L11.777 16.0326L11.7668 16.0294L11.7349 16.0191C11.7088 16.0105 11.6731 15.9983 11.6292 15.9824C11.5414 15.9506 11.4199 15.9036 11.2758 15.84C10.9897 15.7137 10.6036 15.517 10.2128 15.2357C9.44014 14.6797 8.55135 13.715 8.55135 12.2476C8.55135 11.6899 8.5453 11.2609 8.53955 10.9265C8.53844 10.8619 8.53732 10.8001 8.53625 10.7411C8.5319 10.5006 8.52838 10.3061 8.52951 10.1547C8.53083 9.97792 8.53726 9.78165 8.58425 9.60049C8.64494 9.36652 8.75902 9.20131 8.89004 9.07029L8.89127 9.06906L8.89127 9.06906C9.00882 8.95205 9.15973 8.872 9.23221 8.8342C9.33205 8.78213 9.44882 8.72867 9.57001 8.67677C9.81406 8.57225 10.1128 8.45842 10.4096 8.35378C10.7068 8.249 11.0127 8.14967 11.2721 8.07543C11.4014 8.03846 11.526 8.00573 11.636 7.98158ZM12.0004 15.3166L11.7833 16.0345C11.925 16.0773 12.0761 16.0773 12.2177 16.0345L12.0004 15.3166ZM12.0003 14.5182C11.9641 14.5035 11.9243 14.4867 11.8816 14.4678C11.6616 14.3707 11.3729 14.2226 11.089 14.0183C10.5121 13.6031 10.0514 13.0333 10.0514 12.2476C10.0514 11.6784 10.0452 11.2401 10.0393 10.9007C10.0381 10.8297 10.0369 10.7637 10.0358 10.7023C10.0315 10.465 10.0285 10.2963 10.0295 10.1658C10.0296 10.1467 10.0299 10.1293 10.0302 10.1134C10.068 10.096 10.1115 10.0767 10.1605 10.0556C10.3653 9.96797 10.6315 9.86605 10.9084 9.76843C11.1848 9.67096 11.4612 9.58153 11.6847 9.51757C11.797 9.48545 11.8891 9.46173 11.9576 9.44669C11.9755 9.44278 11.9896 9.43992 12.0005 9.43785C12.0114 9.43992 12.0256 9.44278 12.0436 9.4467C12.1121 9.4617 12.2042 9.48537 12.3165 9.51742C12.54 9.58122 12.8163 9.67046 13.0926 9.76777C13.3694 9.86525 13.6355 9.96704 13.84 10.0547C13.8892 10.0758 13.9327 10.0952 13.9705 10.1127C13.9708 10.1289 13.9711 10.1468 13.9713 10.1666C13.9722 10.2969 13.9692 10.4655 13.9649 10.7026C13.9638 10.764 13.9626 10.8299 13.9614 10.901C13.9556 11.2403 13.9494 11.6784 13.9494 12.2476C13.9494 13.0327 13.4887 13.6025 12.9117 14.0179C12.6278 14.2223 12.339 14.3705 12.119 14.4677C12.0762 14.4867 12.0364 14.5034 12.0003 14.5182ZM14.1181 10.1879C14.118 10.1879 14.117 10.1873 14.115 10.1859C14.1171 10.1873 14.1181 10.1879 14.1181 10.1879ZM9.88122 10.1892C9.88118 10.1892 9.88207 10.1886 9.884 10.1874C9.88223 10.1886 9.88126 10.1892 9.88122 10.1892ZM11.7807 14.5995C11.7807 14.5995 11.7807 14.5995 11.7807 14.5995Z" fill="black"/>
<path fill-rule="evenodd" clip-rule="evenodd" d="M12.004 3.75C7.44563 3.75 3.75825 7.43007 3.75 11.9894C3.74925 12.4036 3.41286 12.7388 2.99864 12.738C2.58443 12.7373 2.24925 12.4009 2.25 11.9866C2.25975 6.59995 6.6183 2.25 12.004 2.25C13.9306 2.25 15.7283 2.81243 17.2343 3.77629C17.5831 3.99958 17.6849 4.46342 17.4617 4.81229C17.2384 5.16117 16.7745 5.26298 16.4257 5.03968C15.1536 4.22555 13.6353 3.75 12.004 3.75Z" fill="black"/>
<path fill-rule="evenodd" clip-rule="evenodd" d="M20.9998 11.2461C21.4141 11.2461 21.7498 11.5819 21.7498 11.9961C21.7498 17.3824 17.3919 21.7501 12.0038 21.7501C10.0784 21.7501 8.28076 21.1888 6.77373 20.2249C6.42478 20.0017 6.32282 19.5379 6.546 19.189C6.76918 18.84 7.23298 18.7381 7.58192 18.9613C8.85489 19.7754 10.3733 20.2501 12.0038 20.2501C16.5617 20.2501 20.2498 16.5557 20.2498 11.9961C20.2498 11.5819 20.5856 11.2461 20.9998 11.2461Z" fill="black"/>
</svg>
