<svg width="24" height="24" viewBox="0 0 24 24" fill="none" xmlns="http://www.w3.org/2000/svg">
<path fill-rule="evenodd" clip-rule="evenodd" d="M12.6601 10.291C12.2977 9.9288 11.7118 9.92939 11.351 10.2906L11.3506 10.2911C10.9886 10.6529 10.9886 11.2385 11.3506 11.6004L11.351 11.6008C11.7118 11.962 12.2977 11.9626 12.6601 11.6004C13.0221 11.2385 13.0221 10.6529 12.6601 10.2911L12.6601 10.291ZM10.2901 9.23021C11.2373 8.28227 12.7731 8.283 13.7206 9.23023C14.6686 10.1779 14.6686 11.7135 13.7206 12.6612C13.4239 12.9578 13.0696 13.1616 12.6936 13.2725L12.6944 14.8076C12.6946 15.2219 12.3589 15.5578 11.9447 15.558C11.5305 15.5582 11.1946 15.2226 11.1944 14.8084L11.1936 13.2327C10.8636 13.1158 10.5539 12.9253 10.2899 12.661M10.2897 12.6608C9.34225 11.7132 9.34222 10.1782 10.2897 9.23064C10.2898 9.23057 10.2898 9.23049 10.2899 9.23042C10.29 9.23035 10.29 9.23028 10.2901 9.23021" fill="black"/>
<path d="M11.9998 21.75C11.9262 21.7504 11.8531 21.7396 11.7828 21.718C11.4618 21.618 3.92676 19.265 3.92676 12.67C3.92676 10.835 3.90176 9.509 3.88476 8.537C3.84076 6.103 3.83077 5.596 4.46777 4.96C5.22277 4.206 10.9158 2.25 11.9998 2.25C13.1448 2.25 18.7648 4.187 19.5338 4.962C20.1688 5.602 20.1587 6.108 20.1147 8.544C20.0977 9.516 20.0737 10.844 20.0737 12.67C20.0737 19.264 12.5378 21.621 12.2178 21.718C12.1471 21.7394 12.0736 21.7502 11.9998 21.75ZM11.9998 3.75C9.75787 4.26042 7.58199 5.02643 5.51477 6.033C5.35477 6.193 5.34876 6.525 5.38476 8.509C5.40176 9.488 5.42676 10.823 5.42676 12.67C5.42676 17.582 10.8368 19.791 11.9998 20.208C13.1628 19.791 18.5737 17.582 18.5737 12.67C18.5737 10.827 18.5988 9.495 18.6158 8.518C18.6508 6.527 18.6447 6.195 18.4697 6.018C16.4064 5.01824 14.2357 4.25732 11.9998 3.75Z" fill="black"/>
</svg>
