<svg width="24" height="24" viewBox="0 0 24 24" fill="none" xmlns="http://www.w3.org/2000/svg">
<path fill-rule="evenodd" clip-rule="evenodd" d="M12.001 14.2578C12.4152 14.2578 12.751 14.5936 12.751 15.0078V15.107C12.751 15.5212 12.4152 15.857 12.001 15.857C11.5868 15.857 11.251 15.5212 11.251 15.107V15.0078C11.251 14.5936 11.5868 14.2578 12.001 14.2578Z" fill="black"/>
<path fill-rule="evenodd" clip-rule="evenodd" d="M11.9971 7.4375C12.4113 7.4375 12.7471 7.77329 12.7471 8.1875V11.9811C12.7471 12.3954 12.4113 12.7311 11.9971 12.7311C11.5829 12.7311 11.2471 12.3954 11.2471 11.9811V8.1875C11.2471 7.77329 11.5829 7.4375 11.9971 7.4375Z" fill="black"/>
<path d="M11.9998 21.75C11.9262 21.7504 11.8531 21.7396 11.7828 21.718C11.4618 21.618 3.92676 19.265 3.92676 12.67C3.92676 10.835 3.90176 9.509 3.88476 8.537C3.84076 6.103 3.83077 5.596 4.46777 4.96C5.22277 4.206 10.9158 2.25 11.9998 2.25C13.1448 2.25 18.7648 4.187 19.5338 4.962C20.1688 5.602 20.1587 6.108 20.1147 8.544C20.0977 9.516 20.0737 10.844 20.0737 12.67C20.0737 19.264 12.5378 21.621 12.2178 21.718C12.1471 21.7394 12.0736 21.7502 11.9998 21.75V21.75ZM11.9998 3.75C9.75787 4.26042 7.58199 5.02643 5.51477 6.033C5.35477 6.193 5.34876 6.525 5.38476 8.509C5.40176 9.488 5.42676 10.823 5.42676 12.67C5.42676 17.582 10.8368 19.791 11.9998 20.208C13.1628 19.791 18.5737 17.582 18.5737 12.67C18.5737 10.827 18.5988 9.495 18.6158 8.518C18.6508 6.527 18.6447 6.195 18.4697 6.018C16.4064 5.01824 14.2357 4.25732 11.9998 3.75V3.75Z" fill="black"/>
</svg>
