<svg width="24" height="24" viewBox="0 0 24 24" fill="none" xmlns="http://www.w3.org/2000/svg">
<path fill-rule="evenodd" clip-rule="evenodd" d="M13.428 8.21346C13.8389 7.80258 14.505 7.80271 14.9158 8.21346C15.327 8.62473 15.3268 9.29014 14.9158 9.70122C14.5048 10.1122 13.8394 10.1124 13.4281 9.70114C13.0183 9.2914 13.0174 8.62623 13.4258 8.21563L13.428 8.21346ZM15.9764 7.1528C14.98 6.15642 13.3642 6.15598 12.3673 7.1528L12.3635 7.15663C11.3704 8.15377 11.373 9.76739 12.3674 10.7618C13.3647 11.7591 14.9798 11.7585 15.9764 10.7619C16.973 9.76525 16.9737 8.15009 15.9764 7.1528Z" fill="black"/>
<path fill-rule="evenodd" clip-rule="evenodd" d="M13.4249 9.70794C13.132 9.41505 12.6571 9.41505 12.3642 9.70794L8.01747 14.0547C7.72458 14.3476 7.72458 14.8224 8.01747 15.1153L9.29168 16.3895C9.58457 16.6824 10.0594 16.6824 10.3523 16.3895C10.6452 16.0966 10.6452 15.6218 10.3523 15.3289L9.60846 14.585L13.4249 10.7686C13.7178 10.4757 13.7178 10.0008 13.4249 9.70794Z" fill="black"/>
<path fill-rule="evenodd" clip-rule="evenodd" d="M9.96186 12.11C9.66896 12.4029 9.66896 12.8778 9.96186 13.1707L11.2361 14.4449C11.529 14.7378 12.0038 14.7378 12.2967 14.4449C12.5896 14.152 12.5896 13.6771 12.2967 13.3842L11.0225 12.11C10.7296 11.8171 10.2548 11.8171 9.96186 12.11Z" fill="black"/>
<path d="M12 21.75C11.9265 21.7504 11.8533 21.7396 11.783 21.718C11.462 21.618 3.927 19.265 3.927 12.67C3.927 10.835 3.90201 9.509 3.88501 8.537C3.84101 6.103 3.83102 5.596 4.46802 4.96C5.22302 4.206 10.916 2.25 12 2.25C13.145 2.25 18.765 4.187 19.534 4.962C20.169 5.602 20.159 6.108 20.115 8.544C20.098 9.516 20.074 10.844 20.074 12.67C20.074 19.264 12.538 21.621 12.218 21.718C12.1473 21.7394 12.0739 21.7502 12 21.75V21.75ZM12 3.75C9.75812 4.26042 7.58223 5.02643 5.51501 6.033C5.35501 6.193 5.34901 6.525 5.38501 8.509C5.40201 9.488 5.427 10.823 5.427 12.67C5.427 17.582 10.837 19.791 12 20.208C13.163 19.791 18.574 17.582 18.574 12.67C18.574 10.827 18.599 9.495 18.616 8.518C18.651 6.527 18.645 6.195 18.47 6.018C16.4066 5.01824 14.2359 4.25732 12 3.75V3.75Z" fill="black"/>
</svg>
