<svg width="24" height="24" viewBox="0 0 24 24" fill="none" xmlns="http://www.w3.org/2000/svg">
<path fill-rule="evenodd" clip-rule="evenodd" d="M18.7708 2.25C19.185 2.25 19.5208 2.58579 19.5208 3V4.47998H21.0008C21.415 4.47998 21.7508 4.81577 21.7508 5.22998C21.7508 5.64419 21.415 5.97998 21.0008 5.97998H19.0814L13.0273 12.035H14.2438C14.658 12.035 14.9938 12.3708 14.9938 12.785C14.9938 13.1992 14.658 13.535 14.2438 13.535H11.2168C11.1151 13.535 11.0182 13.5147 10.9297 13.4781C10.8413 13.4415 10.7584 13.3872 10.6865 13.3153C10.6146 13.2434 10.5603 13.1606 10.5237 13.0721C10.4873 12.9843 10.4671 12.8881 10.4668 12.7873M11.9668 10.9741L18.0208 4.91935V3C18.0208 2.58579 18.3565 2.25 18.7708 2.25M10.4668 12.785C10.4668 12.7849 10.4668 12.7848 10.4668 12.7847V9.758C10.4668 9.34378 10.8026 9.008 11.2168 9.008C11.631 9.008 11.9668 9.34378 11.9668 9.758V10.9741" fill="black"/>
<path fill-rule="evenodd" clip-rule="evenodd" d="M11.264 5.22266C7.11413 5.22266 3.75 8.58693 3.75 12.7357C3.75 16.8853 7.11408 20.2487 11.264 20.2487C15.4127 20.2487 18.776 16.8855 18.776 12.7357C18.776 11.9139 18.6449 11.125 18.4025 10.388C18.2731 9.99447 18.4872 9.5706 18.8807 9.44121C19.2742 9.31183 19.6981 9.52593 19.8275 9.91941C20.1191 10.8064 20.276 11.7534 20.276 12.7357C20.276 17.7138 16.2412 21.7487 11.264 21.7487C6.28588 21.7487 2.25 17.714 2.25 12.7357C2.25 7.75839 6.28582 3.72266 11.264 3.72266C13.6854 3.72266 15.8843 4.67906 17.5041 6.23236C17.8031 6.51905 17.813 6.99382 17.5263 7.29278C17.2396 7.59175 16.7648 7.6017 16.4659 7.31501C15.1137 6.0183 13.2825 5.22266 11.264 5.22266Z" fill="black"/>
</svg>
