<svg width="24" height="24" viewBox="0 0 24 24" fill="none" xmlns="http://www.w3.org/2000/svg">
<path fill-rule="evenodd" clip-rule="evenodd" d="M10.8969 3.75781C7.64106 3.75781 5.00195 6.39709 5.00195 9.65181V14.3368C5.00195 14.5908 5.01873 14.8424 5.04999 15.0898C5.10192 15.5007 4.81087 15.876 4.39993 15.9279C3.98898 15.9798 3.61375 15.6888 3.56182 15.2778C3.52309 14.9712 3.50195 14.6568 3.50195 14.3368V9.65181C3.50195 5.56853 6.81277 2.25781 10.8969 2.25781C14.9801 2.25781 18.2909 5.5686 18.2909 9.65181C18.2909 10.066 17.9551 10.4018 17.5409 10.4018C17.1267 10.4018 16.7909 10.066 16.7909 9.65181C16.7909 6.39702 14.1517 3.75781 10.8969 3.75781Z" fill="black"/>
<path fill-rule="evenodd" clip-rule="evenodd" d="M6.70898 10.1401C6.70898 7.82776 8.58493 5.95312 10.896 5.95312C11.3102 5.95312 11.646 6.28891 11.646 6.70312C11.646 7.11734 11.3102 7.45312 10.896 7.45312C9.41306 7.45312 8.20898 8.65648 8.20898 10.1401V11.0771C8.20898 11.4913 7.8732 11.8271 7.45898 11.8271C7.04477 11.8271 6.70898 11.4913 6.70898 11.0771V10.1401Z" fill="black"/>
<path fill-rule="evenodd" clip-rule="evenodd" d="M7.45898 13.125C7.8732 13.125 8.20898 13.4608 8.20898 13.875C8.20898 14.7375 8.61506 15.5047 9.24828 15.9968C9.57533 16.251 9.63439 16.7222 9.3802 17.0492C9.12601 17.3763 8.65482 17.4354 8.32777 17.1812C7.34499 16.4173 6.70898 15.2205 6.70898 13.875C6.70898 13.4608 7.04477 13.125 7.45898 13.125Z" fill="black"/>
<path fill-rule="evenodd" clip-rule="evenodd" d="M10.8965 9.29688C11.3107 9.29688 11.6465 9.63266 11.6465 10.0469V11.9559C11.6465 12.3701 11.3107 12.7059 10.8965 12.7059C10.4823 12.7059 10.1465 12.3701 10.1465 11.9559V10.0469C10.1465 9.63266 10.4823 9.29688 10.8965 9.29688Z" fill="black"/>
<path fill-rule="evenodd" clip-rule="evenodd" d="M12.9107 7.26188C13.2148 6.98064 13.6893 6.99917 13.9705 7.30327C14.6601 8.04883 15.0809 9.04796 15.0809 10.1425C15.0809 10.5567 14.7451 10.8925 14.3309 10.8925C13.9167 10.8925 13.5809 10.5567 13.5809 10.1425C13.5809 9.43905 13.3118 8.80018 12.8693 8.32174C12.5881 8.01764 12.6066 7.54313 12.9107 7.26188Z" fill="black"/>
<path fill-rule="evenodd" clip-rule="evenodd" d="M4.86191 17.2471C5.213 17.0273 5.67579 17.1337 5.89558 17.4848C6.93939 19.1523 8.78923 20.2588 10.8979 20.2588C11.3121 20.2588 11.6479 20.5946 11.6479 21.0088C11.6479 21.423 11.3121 21.7588 10.8979 21.7588C8.2505 21.7588 5.93034 20.3673 4.62415 18.2807C4.40437 17.9297 4.51082 17.4669 4.86191 17.2471Z" fill="black"/>
<path fill-rule="evenodd" clip-rule="evenodd" d="M16.0383 14.0312C14.7215 14.0312 13.6543 15.0985 13.6543 16.4153C13.6543 17.7323 14.7218 18.8002 16.0383 18.8002C17.3548 18.8002 18.4223 17.7324 18.4223 16.4153C18.4223 15.0985 17.3551 14.0312 16.0383 14.0312ZM12.1543 16.4153C12.1543 14.27 13.8931 12.5312 16.0383 12.5312C18.1836 12.5312 19.9223 14.27 19.9223 16.4153C19.9223 17.2586 19.6536 18.0393 19.197 18.6763L20.2781 19.7554C20.5713 20.048 20.5717 20.5229 20.2791 20.8161C19.9865 21.1093 19.5116 21.1097 19.2185 20.8171L18.1047 19.7054C17.5063 20.0822 16.7978 20.3002 16.0383 20.3002C13.8928 20.3002 12.1543 18.5602 12.1543 16.4153Z" fill="black"/>
</svg>
