<svg width="24" height="24" viewBox="0 0 24 24" fill="none" xmlns="http://www.w3.org/2000/svg">
<path fill-rule="evenodd" clip-rule="evenodd" d="M2.25 12C2.25 6.61479 6.61479 2.25 12 2.25C17.3852 2.25 21.75 6.61479 21.75 12C21.75 17.3852 17.3852 21.75 12 21.75C6.61479 21.75 2.25 17.3852 2.25 12ZM12 3.75C7.44321 3.75 3.75 7.44321 3.75 12C3.75 16.5568 7.44321 20.25 12 20.25C16.5568 20.25 20.25 16.5568 20.25 12C20.25 7.44321 16.5568 3.75 12 3.75Z" fill="black"/>
<path fill-rule="evenodd" clip-rule="evenodd" d="M9.42969 12.2322C9.42969 10.833 10.5635 9.69922 11.9627 9.69922C13.3612 9.69922 14.4947 10.8333 14.4947 12.2322V16.4552C14.4947 16.8694 14.1589 17.2052 13.7447 17.2052C13.3305 17.2052 12.9947 16.8694 12.9947 16.4552V12.2322C12.9947 11.6612 12.5322 11.1992 11.9627 11.1992C11.3919 11.1992 10.9297 11.6614 10.9297 12.2322V12.7092C10.9297 13.1234 10.5939 13.4592 10.1797 13.4592C9.76547 13.4592 9.42969 13.1234 9.42969 12.7092V12.2322Z" fill="black"/>
<path fill-rule="evenodd" clip-rule="evenodd" d="M10.1797 14.1016C10.5939 14.1016 10.9297 14.4373 10.9297 14.8516V16.4556C10.9297 16.8698 10.5939 17.2056 10.1797 17.2056C9.76547 17.2056 9.42969 16.8698 9.42969 16.4556V14.8516C9.42969 14.4373 9.76547 14.1016 10.1797 14.1016Z" fill="black"/>
<path fill-rule="evenodd" clip-rule="evenodd" d="M12.0003 8.29297C10.5936 8.29297 9.36638 9.06078 8.7164 10.2045C8.51174 10.5646 8.0539 10.6907 7.69377 10.486C7.33365 10.2814 7.20762 9.82351 7.41228 9.46339C8.3183 7.86912 10.0331 6.79297 12.0003 6.79297C12.7185 6.79297 13.4066 6.936 14.0341 7.19776C14.4164 7.35722 14.597 7.7964 14.4375 8.17869C14.2781 8.56098 13.8389 8.74161 13.4566 8.58215C13.0101 8.3959 12.5182 8.29297 12.0003 8.29297Z" fill="black"/>
<path fill-rule="evenodd" clip-rule="evenodd" d="M15.2689 8.84812C15.6073 8.60932 16.0753 8.69011 16.3141 9.02856C16.9203 9.88775 17.2772 10.9379 17.2772 12.0679V15.4289C17.2772 15.8431 16.9415 16.1789 16.5272 16.1789C16.113 16.1789 15.7772 15.8431 15.7772 15.4289V12.0679C15.7772 11.258 15.5222 10.5081 15.0884 9.89332C14.8496 9.55487 14.9304 9.08692 15.2689 8.84812Z" fill="black"/>
<path fill-rule="evenodd" clip-rule="evenodd" d="M7.47656 11.8789C7.89078 11.8789 8.22656 12.2147 8.22656 12.6289V15.4319C8.22656 15.8461 7.89078 16.1819 7.47656 16.1819C7.06235 16.1819 6.72656 15.8461 6.72656 15.4319V12.6289C6.72656 12.2147 7.06235 11.8789 7.47656 11.8789Z" fill="black"/>
</svg>
