<svg width="24" height="24" viewBox="0 0 24 24" fill="none" xmlns="http://www.w3.org/2000/svg">
<path d="M14.5809 17.6342H9.41797C9.21906 17.6342 9.02829 17.5551 8.88763 17.4145C8.74698 17.2738 8.66797 17.0831 8.66797 16.8842C8.66797 16.6853 8.74698 16.4945 8.88763 16.3538C9.02829 16.2132 9.21906 16.1342 9.41797 16.1342H14.5809C14.7798 16.1342 14.9706 16.2132 15.1113 16.3538C15.2519 16.4945 15.3309 16.6853 15.3309 16.8842C15.3309 17.0831 15.2519 17.2738 15.1113 17.4145C14.9706 17.5551 14.7798 17.6342 14.5809 17.6342V17.6342ZM14.5809 14.3262H9.41797C9.21906 14.3262 9.02829 14.2472 8.88763 14.1065C8.74698 13.9658 8.66797 13.7751 8.66797 13.5762C8.66797 13.3773 8.74698 13.1865 8.88763 13.0458C9.02829 12.9052 9.21906 12.8262 9.41797 12.8262H14.5809C14.7798 12.8262 14.9706 12.9052 15.1113 13.0458C15.2519 13.1865 15.3309 13.3773 15.3309 13.5762C15.3309 13.7751 15.2519 13.9658 15.1113 14.1065C14.9706 14.2472 14.7798 14.3262 14.5809 14.3262V14.3262Z" fill="black"/>
<path d="M7.56445 10.2066C7.36554 10.2066 7.17477 10.1276 7.03412 9.98693C6.89347 9.84628 6.81445 9.65551 6.81445 9.4566V7.3456C6.82403 6.1238 7.26442 4.94456 8.05811 4.01561C8.85179 3.08665 9.9478 2.46756 11.1531 2.26738C12.3585 2.06721 13.5958 2.2988 14.6472 2.92135C15.6985 3.5439 16.4965 4.51748 16.9005 5.6706C16.9592 5.85668 16.9431 6.05834 16.8557 6.23278C16.7682 6.40721 16.6162 6.54068 16.4319 6.60484C16.2476 6.669 16.0456 6.65881 15.8687 6.57643C15.6918 6.49404 15.5539 6.34596 15.4844 6.1636C15.1986 5.34229 14.6319 4.64835 13.8842 4.20427C13.1365 3.76018 12.256 3.5945 11.3981 3.73647C10.5401 3.87844 9.75989 4.31894 9.19513 4.98021C8.63037 5.64148 8.31738 6.48101 8.3114 7.3506V9.4566C8.3114 9.65499 8.23284 9.84531 8.09283 9.98588C7.95283 10.1264 7.76285 10.2058 7.56445 10.2066V10.2066Z" fill="black"/>
<path d="M14.7 21.758H9.29996C8.17535 21.8796 7.03775 21.7536 5.96696 21.389C5.19852 21.0197 4.57886 20.3997 4.21 19.631C3.84432 18.5605 3.71802 17.4227 3.84 16.298V14.167C3.7182 13.042 3.84449 11.904 4.21 10.833C4.57976 10.0653 5.1992 9.4458 5.96696 9.07604C7.03774 8.7114 8.17535 8.58545 9.29996 8.70703H14.7C15.8246 8.58545 16.9622 8.7114 18.033 9.07604C18.8008 9.4458 19.4202 10.0653 19.79 10.833C20.1555 11.904 20.2818 13.042 20.1599 14.167V16.298C20.2818 17.4231 20.1555 18.5611 19.79 19.632C19.4208 20.3999 18.8016 21.0195 18.034 21.389C16.9628 21.7535 15.8249 21.8794 14.7 21.758V21.758ZM9.29996 10.207C8.39892 10.1159 7.4888 10.1911 6.61497 10.429C6.1545 10.651 5.78291 11.0226 5.56095 11.483C5.32391 12.3567 5.24906 13.2664 5.34 14.167V16.298C5.24917 17.199 5.32401 18.109 5.56095 18.983C5.7833 19.4436 6.15526 19.8151 6.616 20.037C7.48966 20.274 8.39931 20.3489 9.29996 20.258H14.7C15.601 20.3488 16.511 20.2739 17.385 20.037C17.8453 19.8148 18.2168 19.4433 18.439 18.983C18.6759 18.109 18.7508 17.199 18.6599 16.298V14.167C18.7509 13.2664 18.676 12.3567 18.439 11.483C18.217 11.0226 17.8454 10.651 17.385 10.429C16.5112 10.1911 15.601 10.1159 14.7 10.207H9.29996Z" fill="black"/>
</svg>
