<svg width="24" height="24" viewBox="0 0 24 24" fill="none" xmlns="http://www.w3.org/2000/svg">
<path fill-rule="evenodd" clip-rule="evenodd" d="M3.97291 3.85668C4.9325 2.82728 6.29853 2.25195 7.90967 2.25195H16.0905C17.7055 2.25195 19.072 2.82697 20.0309 3.85705C20.9842 4.88107 21.4787 6.29371 21.4787 7.87695V11.8099C21.4787 12.2241 21.1429 12.5599 20.7287 12.5599C20.3145 12.5599 19.9787 12.2241 19.9787 11.8099V7.87695C19.9787 6.60319 19.5839 5.57834 18.933 4.87911C18.2877 4.18594 17.3351 3.75195 16.0905 3.75195H7.90967C6.66999 3.75195 5.71693 4.18562 5.07012 4.87948C4.41787 5.57918 4.02148 6.60416 4.02148 7.87695V15.584C4.02148 16.8572 4.41622 17.8818 5.06715 18.5809C5.71244 19.274 6.66511 19.7079 7.90967 19.7079H9.60748C10.0217 19.7079 10.3575 20.0437 10.3575 20.4579C10.3575 20.8722 10.0217 21.2079 9.60748 21.2079H7.90967C6.29466 21.2079 4.92824 20.6329 3.96932 19.603C3.01605 18.5792 2.52148 17.1668 2.52148 15.584V7.87695C2.52148 6.29275 3.01878 4.88023 3.97291 3.85668Z" fill="black"/>
<path fill-rule="evenodd" clip-rule="evenodd" d="M5.66406 6.44336C5.66406 6.02915 5.99985 5.69336 6.41406 5.69336H6.47828C6.8925 5.69336 7.22828 6.02915 7.22828 6.44336C7.22828 6.85757 6.8925 7.19336 6.47828 7.19336H6.41406C5.99985 7.19336 5.66406 6.85757 5.66406 6.44336ZM8.21385 6.44336C8.21385 6.02915 8.54964 5.69336 8.96385 5.69336H9.02807C9.44229 5.69336 9.77807 6.02915 9.77807 6.44336C9.77807 6.85757 9.44229 7.19336 9.02807 7.19336H8.96385C8.54964 7.19336 8.21385 6.85757 8.21385 6.44336ZM10.7641 6.44336C10.7641 6.02915 11.0999 5.69336 11.5141 5.69336H11.5783C11.9925 5.69336 12.3283 6.02915 12.3283 6.44336C12.3283 6.85757 11.9925 7.19336 11.5783 7.19336H11.5141C11.0999 7.19336 10.7641 6.85757 10.7641 6.44336Z" fill="black"/>
<path fill-rule="evenodd" clip-rule="evenodd" d="M2.52148 9.29492C2.52148 8.88071 2.85727 8.54492 3.27148 8.54492H20.7287C21.1429 8.54492 21.4787 8.88071 21.4787 9.29492C21.4787 9.70914 21.1429 10.0449 20.7287 10.0449H3.27148C2.85727 10.0449 2.52148 9.70914 2.52148 9.29492Z" fill="black"/>
<path fill-rule="evenodd" clip-rule="evenodd" d="M16.1916 12.8869C16.2982 12.8635 16.449 12.834 16.5888 12.834C16.7283 12.834 16.879 12.8634 16.9856 12.8868C17.1099 12.914 17.2519 12.9512 17.4006 12.9937C17.699 13.0789 18.0519 13.1933 18.3954 13.3144C18.7385 13.4353 19.0831 13.5666 19.3637 13.687C19.5032 13.7469 19.636 13.808 19.7486 13.867C19.8337 13.9116 19.9945 13.9983 20.117 14.1217L20.118 14.1228C20.121 14.1258 20.1243 14.1291 20.1278 14.1326C20.1906 14.1956 20.3351 14.3406 20.4178 14.571C20.4904 14.7732 20.4958 14.9863 20.4973 15.1502C20.4985 15.2896 20.4948 15.4752 20.49 15.7121C20.4886 15.7851 20.487 15.8629 20.4855 15.9458C20.4788 16.3064 20.4718 16.7868 20.4718 17.4349C20.4718 19.0837 19.4746 20.1721 18.5935 20.8066C18.1484 21.1271 17.7081 21.3517 17.3814 21.496C17.2169 21.5686 17.0785 21.6222 16.9788 21.6583C16.9289 21.6764 16.8885 21.6901 16.8593 21.6998L16.8238 21.7113L16.8126 21.7148L16.8087 21.716L16.8072 21.7164C16.8069 21.7165 16.806 21.7168 16.5888 20.999C16.3716 21.7168 16.3713 21.7167 16.371 21.7166L16.3688 21.716L16.3649 21.7148L16.3538 21.7113L16.3183 21.6998C16.289 21.6901 16.2486 21.6764 16.1987 21.6583C16.0991 21.6222 15.9606 21.5686 15.7962 21.496C15.4694 21.3517 15.0291 21.1271 14.584 20.8066C13.7029 20.1721 12.7058 19.0837 12.7058 17.4349C12.7058 16.7868 12.6987 16.3063 12.6919 15.9455C12.6903 15.8614 12.6887 15.7824 12.6872 15.7084C12.6825 15.4729 12.6787 15.2882 12.6799 15.1494C12.6813 14.9857 12.6866 14.7717 12.7596 14.5689C12.8435 14.3361 12.9905 14.1909 13.0541 14.1281C13.0575 14.1248 13.0606 14.1217 13.0634 14.1188M16.5888 20.999L16.371 21.7166C16.5126 21.7595 16.6643 21.7597 16.806 21.7168L16.5888 20.999ZM16.5888 20.2021C16.5344 20.1806 16.4717 20.1546 16.4023 20.1239C16.1416 20.0088 15.7987 19.8328 15.4605 19.5893C14.7751 19.0958 14.2058 18.4022 14.2058 17.4349C14.2058 16.7751 14.1985 16.2848 14.1916 15.9174C14.1898 15.8211 14.1881 15.7347 14.1865 15.6569C14.1821 15.4354 14.179 15.2835 14.1798 15.1687C14.2393 15.1396 14.3147 15.1052 14.4052 15.0664C14.6461 14.9631 14.9578 14.8437 15.2809 14.7298C15.6036 14.6159 15.9268 14.5113 16.1892 14.4362C16.321 14.3985 16.4305 14.3702 16.5134 14.352C16.5492 14.3441 16.5737 14.3396 16.5889 14.337C16.604 14.3396 16.6286 14.3441 16.6645 14.352C16.7474 14.3701 16.8569 14.3984 16.9887 14.436C17.2511 14.5109 17.5743 14.6154 17.8969 14.7291C18.2199 14.8429 18.5315 14.9622 18.7721 15.0655C18.8626 15.1043 18.938 15.1387 18.9974 15.1678C18.9982 15.2833 18.9952 15.4367 18.9907 15.6614C18.9892 15.7382 18.9875 15.8232 18.9858 15.918C18.979 16.2851 18.9718 16.7751 18.9718 17.4349C18.9718 18.4022 18.4024 19.0958 17.717 19.5893C17.3789 19.8328 17.0359 20.0088 16.7752 20.1239C16.7059 20.1546 16.6431 20.1806 16.5888 20.2021ZM16.1916 12.8869C16.0673 12.9142 15.9252 12.9515 15.7765 12.9941ZM15.7765 12.9941C15.4782 13.0794 15.1254 13.194 14.7819 13.3152ZM14.7819 13.3152C14.4388 13.4362 14.0944 13.5676 13.814 13.6878ZM13.814 13.6878C13.6747 13.7476 13.5421 13.8084 13.4298 13.8671ZM13.4298 13.8671C13.3451 13.9114 13.1854 13.9973 13.0634 14.1188Z" fill="black"/>
</svg>
