<svg width="24" height="24" viewBox="0 0 24 24" fill="none" xmlns="http://www.w3.org/2000/svg">
<path fill-rule="evenodd" clip-rule="evenodd" d="M3.7402 3.89737C4.72468 2.84117 6.12669 2.25 7.78216 2.25H16.2169C17.8762 2.25 19.2788 2.84084 20.2629 3.89765C21.2413 4.94841 21.75 6.39889 21.75 8.02638V15.9736C21.75 17.6011 21.2413 19.0516 20.2627 20.1024C19.2785 21.1592 17.8756 21.75 16.2159 21.75H7.78216C6.1228 21.75 4.72038 21.1591 3.73657 20.1023C2.75842 19.0515 2.25 17.601 2.25 15.9736V8.02638C2.25 6.39806 2.76117 4.94771 3.7402 3.89737ZM4.83745 4.92012C4.16024 5.64666 3.75 6.70951 3.75 8.02638V15.9736C3.75 17.2914 4.15861 18.3541 4.83451 19.0802C5.50475 19.8003 6.49341 20.25 7.78216 20.25H16.2159C17.5052 20.25 18.4944 19.8002 19.165 19.0801C19.8412 18.354 20.25 17.2913 20.25 15.9736V8.02638C20.25 6.70868 19.8412 5.64597 19.1651 4.91984C18.4946 4.19975 17.5056 3.75 16.2169 3.75H7.78216C6.49828 3.75 5.50921 4.19943 4.83745 4.92012Z" fill="black"/>
<path fill-rule="evenodd" clip-rule="evenodd" d="M6.82812 8.03906C6.82812 7.62485 7.16391 7.28906 7.57812 7.28906H7.88267C8.29688 7.28906 8.63267 7.62485 8.63267 8.03906C8.63267 8.45328 8.29688 8.78906 7.88267 8.78906H7.57812C7.16391 8.78906 6.82812 8.45328 6.82812 8.03906ZM10.3887 8.03906C10.3887 7.62485 10.7244 7.28906 11.1387 7.28906H16.4219C16.8361 7.28906 17.1719 7.62485 17.1719 8.03906C17.1719 8.45328 16.8361 8.78906 16.4219 8.78906H11.1387C10.7244 8.78906 10.3887 8.45328 10.3887 8.03906ZM6.82812 11.9994C6.82812 11.5852 7.16391 11.2494 7.57812 11.2494H7.88267C8.29688 11.2494 8.63267 11.5852 8.63267 11.9994C8.63267 12.4136 8.29688 12.7494 7.88267 12.7494H7.57812C7.16391 12.7494 6.82812 12.4136 6.82812 11.9994ZM10.3887 11.9994C10.3887 11.5852 10.7244 11.2494 11.1387 11.2494H16.4219C16.8361 11.2494 17.1719 11.5852 17.1719 11.9994C17.1719 12.4136 16.8361 12.7494 16.4219 12.7494H11.1387C10.7244 12.7494 10.3887 12.4136 10.3887 11.9994ZM6.82812 15.9587C6.82812 15.5445 7.16391 15.2087 7.57812 15.2087H7.88267C8.29688 15.2087 8.63267 15.5445 8.63267 15.9587C8.63267 16.3729 8.29688 16.7087 7.88267 16.7087H7.57812C7.16391 16.7087 6.82812 16.3729 6.82812 15.9587ZM10.3887 15.9587C10.3887 15.5445 10.7244 15.2087 11.1387 15.2087H16.4219C16.8361 15.2087 17.1719 15.5445 17.1719 15.9587C17.1719 16.3729 16.8361 16.7087 16.4219 16.7087H11.1387C10.7244 16.7087 10.3887 16.3729 10.3887 15.9587Z" fill="black"/>
</svg>
