<svg width="24" height="24" viewBox="0 0 24 24" fill="none" xmlns="http://www.w3.org/2000/svg">
<path fill-rule="evenodd" clip-rule="evenodd" d="M4.53915 4.95273C5.45818 4.07898 6.7373 3.67188 8.19413 3.67188H15.8145C17.2746 3.67188 18.5544 4.07866 19.4721 4.95341C20.3953 5.83345 20.8545 7.09417 20.8504 8.60159V16.8137C20.8504 18.3212 20.3891 19.5833 19.4658 20.465C18.5477 21.3417 17.2681 21.7514 15.8067 21.7514H8.19413C6.73267 21.7514 5.45195 21.3328 4.53385 20.4427C3.61206 19.549 3.15039 18.2716 3.15039 16.7456V8.6008C3.15039 7.09223 3.61433 5.83198 4.53915 4.95273ZM5.57269 6.03983C5.01153 6.57334 4.65039 7.40256 4.65039 8.6008V16.7456C4.65039 17.9682 5.01381 18.8187 5.57799 19.3658C6.14586 19.9163 7.01201 20.2514 8.19413 20.2514H15.8067C16.9967 20.2514 17.8639 19.9206 18.4298 19.3802C18.9905 18.8448 19.3504 18.013 19.3504 16.8137V8.6008L19.3504 8.59865C19.3539 7.39986 18.9957 6.5716 18.4371 6.03916C17.8727 5.50114 17.0057 5.17188 15.8145 5.17188H8.19413C7.00738 5.17188 6.13963 5.50083 5.57269 6.03983Z" fill="black"/>
<path fill-rule="evenodd" clip-rule="evenodd" d="M8.36914 2.25C8.78335 2.25 9.11914 2.58579 9.11914 3V5.57644C9.11914 5.99065 8.78335 6.32644 8.36914 6.32644C7.95493 6.32644 7.61914 5.99065 7.61914 5.57644V3C7.61914 2.58579 7.95493 2.25 8.36914 2.25ZM15.6403 2.25C16.0545 2.25 16.3903 2.58579 16.3903 3V5.57644C16.3903 5.99065 16.0545 6.32644 15.6403 6.32644C15.2261 6.32644 14.8903 5.99065 14.8903 5.57644V3C14.8903 2.58579 15.2261 2.25 15.6403 2.25Z" fill="black"/>
<path fill-rule="evenodd" clip-rule="evenodd" d="M7.60938 15.7656C7.60938 15.3514 7.94516 15.0156 8.35938 15.0156H8.64056C9.05478 15.0156 9.39056 15.3514 9.39056 15.7656C9.39056 16.1798 9.05478 16.5156 8.64056 16.5156H8.35938C7.94516 16.5156 7.60938 16.1798 7.60938 15.7656ZM10.9031 15.7656C10.9031 15.3514 11.2389 15.0156 11.6531 15.0156H15.6404C16.0546 15.0156 16.3904 15.3514 16.3904 15.7656C16.3904 16.1798 16.0546 16.5156 15.6404 16.5156H11.6531C11.2389 16.5156 10.9031 16.1798 10.9031 15.7656Z" fill="black"/>
<path fill-rule="evenodd" clip-rule="evenodd" d="M7.60938 10.9453C7.60938 10.5311 7.94516 10.1953 8.35938 10.1953H8.64056C9.05478 10.1953 9.39056 10.5311 9.39056 10.9453C9.39056 11.3595 9.05478 11.6953 8.64056 11.6953H8.35938C7.94516 11.6953 7.60938 11.3595 7.60938 10.9453ZM10.9031 10.9453C10.9031 10.5311 11.2389 10.1953 11.6531 10.1953H15.6404C16.0546 10.1953 16.3904 10.5311 16.3904 10.9453C16.3904 11.3595 16.0546 11.6953 15.6404 11.6953H11.6531C11.2389 11.6953 10.9031 11.3595 10.9031 10.9453Z" fill="black"/>
</svg>
