<svg width="24" height="24" viewBox="0 0 24 24" fill="none" xmlns="http://www.w3.org/2000/svg">
<path fill-rule="evenodd" clip-rule="evenodd" d="M9.67659 3.75C9.34164 3.75 9.07031 4.02133 9.07031 4.35627V4.92933C9.07031 5.26428 9.34164 5.53561 9.67659 5.53561H14.3233C14.6583 5.53561 14.9296 5.26428 14.9296 4.92933V4.35627C14.9296 4.02133 14.6583 3.75 14.3233 3.75H9.67659ZM7.57031 4.35627C7.57031 3.1929 8.51321 2.25 9.67659 2.25H14.3233C15.4867 2.25 16.4296 3.1929 16.4296 4.35627V4.92933C16.4296 6.09271 15.4867 7.03561 14.3233 7.03561H9.67659C8.51321 7.03561 7.57031 6.09271 7.57031 4.92933V4.35627Z" fill="black"/>
<path fill-rule="evenodd" clip-rule="evenodd" d="M8.32097 5.34375C6.66185 5.34375 5.31641 6.6892 5.31641 8.34831V17.2458C5.31641 18.9049 6.66185 20.2504 8.32097 20.2504H15.6803C17.3394 20.2504 18.6848 18.9049 18.6848 17.2458V8.34831C18.6848 6.6892 17.3394 5.34375 15.6803 5.34375C15.266 5.34375 14.9303 5.00796 14.9303 4.59375C14.9303 4.17954 15.266 3.84375 15.6803 3.84375C18.1678 3.84375 20.1848 5.86077 20.1848 8.34831V17.2458C20.1848 19.7334 18.1678 21.7504 15.6803 21.7504H8.32097C5.83343 21.7504 3.81641 19.7334 3.81641 17.2458V8.34831C3.81641 5.86077 5.83343 3.84375 8.32097 3.84375C8.73518 3.84375 9.07097 4.17954 9.07097 4.59375C9.07097 5.00796 8.73518 5.34375 8.32097 5.34375Z" fill="black"/>
<path fill-rule="evenodd" clip-rule="evenodd" d="M8.23242 10.9414C8.23242 10.5272 8.56821 10.1914 8.98242 10.1914H11.9995C12.4137 10.1914 12.7495 10.5272 12.7495 10.9414C12.7495 11.3556 12.4137 11.6914 11.9995 11.6914H8.98242C8.56821 11.6914 8.23242 11.3556 8.23242 10.9414ZM8.23242 14.9481C8.23242 14.5339 8.56821 14.1981 8.98242 14.1981H15.0166C15.4308 14.1981 15.7666 14.5339 15.7666 14.9481C15.7666 15.3623 15.4308 15.6981 15.0166 15.6981H8.98242C8.56821 15.6981 8.23242 15.3623 8.23242 14.9481Z" fill="black"/>
</svg>
