<svg width="24" height="24" viewBox="0 0 24 24" fill="none" xmlns="http://www.w3.org/2000/svg">
<path fill-rule="evenodd" clip-rule="evenodd" d="M5.55389 10.9844C4.51637 10.9844 3.76177 11.9698 4.03227 12.9718L5.68178 19.0837C5.68179 19.0837 5.68178 19.0837 5.68178 19.0837C5.86752 19.7717 6.49191 20.2497 7.2044 20.2497H16.7944C17.5065 20.2497 18.1302 19.7721 18.316 19.0837L19.9665 12.9718C20.2369 11.97 19.4826 10.9844 18.4439 10.9844H5.55389ZM2.5841 13.3627C2.05639 11.4078 3.52847 9.48438 5.55389 9.48438H18.4439C20.4701 9.48438 21.9425 11.4076 21.4147 13.3628L19.7641 19.4746C19.4018 20.8169 18.1849 21.7497 16.7944 21.7497H7.2044C5.81425 21.7497 4.59607 20.8173 4.23362 19.4746L2.5841 13.3627C2.58409 13.3627 2.5841 13.3627 2.5841 13.3627Z" fill="black"/>
<path fill-rule="evenodd" clip-rule="evenodd" d="M7.6864 3C7.6864 2.58579 8.02219 2.25 8.4364 2.25H15.5606C15.9748 2.25 16.3106 2.58579 16.3106 3C16.3106 3.41421 15.9748 3.75 15.5606 3.75H8.4364C8.02219 3.75 7.6864 3.41421 7.6864 3ZM4.93164 6.378C4.93164 5.96379 5.26743 5.628 5.68164 5.628H18.3156C18.7298 5.628 19.0656 5.96379 19.0656 6.378C19.0656 6.79221 18.7298 7.128 18.3156 7.128H5.68164C5.26743 7.128 4.93164 6.79221 4.93164 6.378Z" fill="black"/>
</svg>
