<svg width="24" height="24" viewBox="0 0 24 24" fill="none" xmlns="http://www.w3.org/2000/svg">
<path d="M10.2298 15.2952C10.0816 15.295 9.93669 15.251 9.81348 15.1686C9.69026 15.0862 9.59423 14.9691 9.53752 14.8321C9.48081 14.6951 9.46596 14.5444 9.49484 14.399C9.52373 14.2536 9.59506 14.1201 9.69982 14.0152L10.7598 12.9552L9.69881 11.8942C9.56212 11.7528 9.48644 11.5634 9.48805 11.3667C9.48967 11.1701 9.56845 10.9819 9.70744 10.8428C9.84644 10.7037 10.0345 10.6247 10.2312 10.6229C10.4278 10.6211 10.6173 10.6966 10.7588 10.8332L11.8208 11.8942L12.8808 10.8342C12.95 10.7626 13.0328 10.7055 13.1243 10.6662C13.2159 10.627 13.3143 10.6063 13.4139 10.6055C13.5135 10.6047 13.6122 10.6237 13.7044 10.6615C13.7965 10.6992 13.8802 10.7549 13.9506 10.8254C14.021 10.8958 14.0766 10.9796 14.1143 11.0718C14.152 11.164 14.1709 11.2628 14.17 11.3623C14.1691 11.4619 14.1483 11.5603 14.109 11.6518C14.0696 11.7433 14.0125 11.826 13.9408 11.8952L12.8808 12.9552L13.9398 14.0142C14.0723 14.1564 14.1444 14.3444 14.141 14.5387C14.1376 14.733 14.0588 14.9184 13.9214 15.0558C13.784 15.1932 13.5986 15.2719 13.4043 15.2754C13.21 15.2788 13.022 15.2067 12.8798 15.0742L11.8208 14.0152L10.7598 15.0752C10.6904 15.1451 10.6079 15.2006 10.5169 15.2383C10.4259 15.2761 10.3283 15.2954 10.2298 15.2952V15.2952Z" fill="black"/>
<path d="M15.9999 21.75H8.04394C6.84791 21.7258 5.71042 21.2277 4.88157 20.3651C4.05272 19.5025 3.60035 18.346 3.62392 17.15V6.657C3.65403 5.48264 4.13987 4.36607 4.97861 3.54356C5.81736 2.72106 6.94321 2.25715 8.11793 2.25H13.7859C14.1632 2.25062 14.5364 2.32718 14.8835 2.4751C15.2305 2.62302 15.5442 2.83928 15.8059 3.111L19.5959 7.06C20.098 7.58081 20.3778 8.27657 20.3759 9V17.163C20.3882 18.3471 19.9377 19.4892 19.1203 20.346C18.3029 21.2027 17.1833 21.7065 15.9999 21.75V21.75ZM8.12093 3.75C7.33903 3.75279 6.58885 4.05953 6.029 4.60538C5.46915 5.15124 5.14351 5.89342 5.12093 6.675V17.163C5.11109 17.5585 5.17926 17.952 5.32154 18.3212C5.46382 18.6903 5.67744 19.0278 5.95017 19.3144C6.22291 19.601 6.54943 19.831 6.91108 19.9914C7.27273 20.1517 7.66244 20.2393 8.05793 20.249H15.9669C16.7568 20.2135 17.5018 19.8719 18.0442 19.2967C18.5867 18.7214 18.8839 17.9576 18.8729 17.167V9C18.874 8.66433 18.7441 8.34147 18.5109 8.1L14.7199 4.15C14.5987 4.02367 14.4533 3.92312 14.2922 3.85439C14.1312 3.78565 13.958 3.75015 13.7829 3.75H8.11793H8.12093Z" fill="black"/>
<path d="M19.5624 9.2655H16.8234C15.9475 9.26153 15.1088 8.91108 14.4905 8.29069C13.8721 7.6703 13.5245 6.83041 13.5234 5.9545V3.0625C13.5234 2.86359 13.6025 2.67282 13.7431 2.53217C13.8838 2.39151 14.0745 2.3125 14.2734 2.3125C14.4723 2.3125 14.6631 2.39151 14.8038 2.53217C14.9444 2.67282 15.0234 2.86359 15.0234 3.0625V5.9545C15.0237 6.43283 15.2131 6.89165 15.5503 7.2309C15.8875 7.57016 16.3451 7.76233 16.8234 7.7655H19.5604C19.7594 7.7655 19.9501 7.84452 20.0908 7.98517C20.2314 8.12582 20.3104 8.31658 20.3104 8.5155C20.3104 8.71441 20.2314 8.90518 20.0908 9.04583C19.9501 9.18648 19.7594 9.2655 19.5604 9.2655H19.5624Z" fill="black"/>
</svg>
