<svg width="24" height="24" viewBox="0 0 24 24" fill="none" xmlns="http://www.w3.org/2000/svg">
<path d="M18.5052 20.6381C18.3569 20.6379 18.2121 20.5939 18.0889 20.5115C17.9657 20.4291 17.8696 20.312 17.8129 20.175C17.7562 20.038 17.7414 19.8873 17.7702 19.7419C17.7991 19.5965 17.8704 19.463 17.9752 19.3581C18.2637 19.0718 18.492 18.7306 18.6466 18.3546C18.8011 17.9786 18.8789 17.5756 18.8752 17.1691C18.8745 17.0706 18.8933 16.9729 18.9304 16.8817C18.9675 16.7904 19.0221 16.7074 19.0913 16.6373C19.1605 16.5672 19.2428 16.5114 19.3336 16.4731C19.4243 16.4348 19.5217 16.4147 19.6202 16.4141C19.7187 16.4134 19.8163 16.4322 19.9076 16.4693C19.9988 16.5063 20.0819 16.561 20.152 16.6302C20.2221 16.6994 20.2779 16.7817 20.3162 16.8724C20.3545 16.9632 20.3745 17.0606 20.3752 17.1591C20.3813 17.7642 20.266 18.3643 20.0362 18.9241C19.8064 19.4838 19.4667 19.9919 19.0372 20.4181C18.9676 20.4883 18.8847 20.5438 18.7933 20.5816C18.702 20.6194 18.604 20.6386 18.5052 20.6381V20.6381Z" fill="black"/>
<path d="M15.9666 21.75H12.8066C12.6077 21.75 12.417 21.671 12.2763 21.5303C12.1357 21.3897 12.0566 21.1989 12.0566 21C12.0566 20.8011 12.1357 20.6103 12.2763 20.4697C12.417 20.329 12.6077 20.25 12.8066 20.25H15.9666C16.1655 20.25 16.3563 20.329 16.497 20.4697C16.6376 20.6103 16.7166 20.8011 16.7166 21C16.7166 21.1989 16.6376 21.3897 16.497 21.5303C16.3563 21.671 16.1655 21.75 15.9666 21.75Z" fill="black"/>
<path d="M10.3253 21.7483H8.01929C7.55115 21.738 7.08753 21.6543 6.6453 21.5003C6.45825 21.4344 6.30492 21.2971 6.21885 21.1185C6.13278 20.9398 6.12098 20.7343 6.18602 20.547C6.25107 20.3596 6.38768 20.2057 6.56595 20.1188C6.74423 20.0319 6.94966 20.0192 7.1373 20.0833C7.43391 20.187 7.74515 20.2427 8.0593 20.2483H10.3253V21.7483Z" fill="black"/>
<path d="M4.96737 20.0296C4.8419 20.0297 4.71839 19.9984 4.60815 19.9385C4.49791 19.8786 4.40447 19.792 4.33638 19.6866C3.84969 18.9318 3.60094 18.0483 3.62237 17.1506V16.1016C3.62237 15.9027 3.7014 15.7119 3.84205 15.5712C3.9827 15.4306 4.17346 15.3516 4.37237 15.3516C4.57128 15.3516 4.76205 15.4306 4.90271 15.5712C5.04336 15.7119 5.12237 15.9027 5.12237 16.1016V17.1696C5.10543 17.7731 5.27099 18.3676 5.59738 18.8756C5.67063 18.9887 5.712 19.1196 5.71708 19.2543C5.72217 19.389 5.69079 19.5226 5.62628 19.641C5.56176 19.7594 5.46651 19.8581 5.35054 19.9269C5.23457 19.9956 5.10219 20.0318 4.96737 20.0316V20.0296Z" fill="black"/>
<path d="M4.37305 14.2258C4.17413 14.2258 3.98336 14.1468 3.84271 14.0061C3.70206 13.8655 3.62305 13.6747 3.62305 13.4758V10.2578C3.62305 10.0589 3.70206 9.86813 3.84271 9.72748C3.98336 9.58683 4.17413 9.50781 4.37305 9.50781C4.57196 9.50781 4.76273 9.58683 4.90338 9.72748C5.04403 9.86813 5.12305 10.0589 5.12305 10.2578V13.4758C5.12305 13.6747 5.04403 13.8655 4.90338 14.0061C4.76273 14.1468 4.57196 14.2258 4.37305 14.2258V14.2258Z" fill="black"/>
<path d="M4.37109 8.26893C4.17218 8.26893 3.98141 8.18991 3.84076 8.04926C3.70011 7.9086 3.62109 7.71784 3.62109 7.51893V6.65993C3.63849 5.75084 3.93179 4.86851 4.4621 4.12993C4.58193 3.97972 4.75485 3.88123 4.94518 3.85479C5.1355 3.82835 5.32873 3.87597 5.48497 3.98783C5.64121 4.09969 5.74856 4.26725 5.78487 4.45595C5.82117 4.64464 5.78368 4.84008 5.6801 5.00193C5.32915 5.49038 5.13427 6.07362 5.12109 6.67493V7.51493C5.12162 7.61375 5.10261 7.71171 5.06516 7.80317C5.0277 7.89462 4.97254 7.97778 4.90285 8.04784C4.83315 8.11791 4.75028 8.17352 4.65903 8.21146C4.56777 8.2494 4.46992 8.26893 4.37109 8.26893Z" fill="black"/>
<path d="M7.04354 3.906C6.86342 3.90567 6.68945 3.84052 6.55341 3.72249C6.41737 3.60445 6.32834 3.44139 6.30261 3.26313C6.27689 3.08486 6.31617 2.90329 6.41329 2.75161C6.5104 2.59992 6.65886 2.48825 6.83153 2.437C7.25376 2.31313 7.69151 2.25016 8.13153 2.25H10.2505C10.4494 2.25 10.6402 2.32902 10.7809 2.46967C10.9215 2.61032 11.0005 2.80109 11.0005 3C11.0005 3.19891 10.9215 3.38968 10.7809 3.53033C10.6402 3.67098 10.4494 3.75 10.2505 3.75H8.12152C7.82736 3.74974 7.5347 3.79183 7.25253 3.875C7.18469 3.89518 7.11432 3.90562 7.04354 3.906V3.906Z" fill="black"/>
<path d="M19.6265 14.984C19.4276 14.984 19.2369 14.905 19.0962 14.7643C18.9556 14.6237 18.8765 14.4329 18.8765 14.234V9C18.8765 8.66453 18.7468 8.34206 18.5145 8.1L14.7225 4.15C14.6012 4.0239 14.4557 3.9235 14.2947 3.85478C14.1337 3.78607 13.9606 3.75043 13.7855 3.75H13.1855C12.9866 3.75 12.7959 3.67098 12.6552 3.53033C12.5146 3.38968 12.4355 3.19891 12.4355 3C12.4355 2.80109 12.5146 2.61032 12.6552 2.46967C12.7959 2.32902 12.9866 2.25 13.1855 2.25H13.7855C14.1628 2.25085 14.5359 2.32751 14.8829 2.47542C15.23 2.62332 15.5437 2.83946 15.8055 3.111L19.5995 7.06C20.101 7.58122 20.3806 8.27671 20.3795 9V14.234C20.3795 14.3327 20.36 14.4305 20.3222 14.5217C20.2843 14.6129 20.2288 14.6957 20.1588 14.7654C20.0889 14.8351 20.0058 14.8903 19.9145 14.9278C19.8231 14.9653 19.7253 14.9844 19.6265 14.984V14.984Z" fill="black"/>
<path d="M19.5605 9.2655H16.8215C15.9455 9.2618 15.1066 8.91143 14.4882 8.29098C13.8699 7.67053 13.5223 6.83049 13.5215 5.9545V3.0625C13.5215 2.86359 13.6005 2.67282 13.7411 2.53217C13.8818 2.39152 14.0726 2.3125 14.2715 2.3125C14.4704 2.3125 14.6612 2.39152 14.8018 2.53217C14.9425 2.67282 15.0215 2.86359 15.0215 3.0625V5.9545C15.022 6.43378 15.2123 6.89335 15.5507 7.23273C15.8892 7.5721 16.3482 7.76365 16.8275 7.7655H19.5645C19.7634 7.7655 19.9542 7.84452 20.0948 7.98517C20.2355 8.12582 20.3145 8.31659 20.3145 8.5155C20.3145 8.71441 20.2355 8.90518 20.0948 9.04583C19.9542 9.18648 19.7634 9.2655 19.5645 9.2655H19.5605Z" fill="black"/>
</svg>
