<svg width="24" height="24" viewBox="0 0 24 24" fill="none" xmlns="http://www.w3.org/2000/svg">
<path fill-rule="evenodd" clip-rule="evenodd" d="M7.96332 3.75C6.10272 3.75 4.59375 5.25897 4.59375 7.11957V16.8804C4.59375 18.741 6.10272 20.25 7.96332 20.25H16.037C17.8976 20.25 19.4066 18.741 19.4066 16.8804V7.11957C19.4066 5.25897 17.8976 3.75 16.037 3.75H7.96332ZM3.09375 7.11957C3.09375 4.43054 5.27429 2.25 7.96332 2.25H16.037C18.7261 2.25 20.9066 4.43054 20.9066 7.11957V16.8804C20.9066 19.5695 18.7261 21.75 16.037 21.75H7.96332C5.27429 21.75 3.09375 19.5695 3.09375 16.8804V7.11957Z" fill="black"/>
<path fill-rule="evenodd" clip-rule="evenodd" d="M7.93993 7.81641C7.93993 7.40219 8.27571 7.06641 8.68993 7.06641H11.2158C11.63 7.06641 11.9658 7.40219 11.9658 7.81641C11.9658 8.23062 11.63 8.56641 11.2158 8.56641H8.68993C8.27571 8.56641 7.93993 8.23062 7.93993 7.81641ZM7.93945 11.8632C7.93945 11.449 8.27524 11.1132 8.68945 11.1132H15.3096C15.7238 11.1132 16.0596 11.449 16.0596 11.8632C16.0596 12.2774 15.7238 12.6132 15.3096 12.6132H8.68945C8.27524 12.6132 7.93945 12.2774 7.93945 11.8632ZM7.93945 15.9194C7.93945 15.5052 8.27524 15.1694 8.68945 15.1694H15.3096C15.7238 15.1694 16.0596 15.5052 16.0596 15.9194C16.0596 16.3337 15.7238 16.6694 15.3096 16.6694H8.68945C8.27524 16.6694 7.93945 16.3337 7.93945 15.9194Z" fill="black"/>
</svg>
