<svg width="24" height="24" viewBox="0 0 24 24" fill="none" xmlns="http://www.w3.org/2000/svg">
<path fill-rule="evenodd" clip-rule="evenodd" d="M8.13605 2.25004H13.7855C14.5471 2.25004 15.277 2.5592 15.8055 3.11012C15.8056 3.11023 15.8054 3.11002 15.8055 3.11012L19.598 7.06036C20.0966 7.58144 20.3773 8.2757 20.3773 8.9984V17.1611C20.3932 19.6202 18.4574 21.6493 16.0004 21.7494C15.9947 21.7496 15.9891 21.7498 15.9834 21.7499C15.9788 21.75 15.9743 21.75 15.9698 21.75L8.04403 21.749L8.02748 21.7488C5.54388 21.694 3.57387 19.6384 3.62398 17.1557V6.65646L3.6242 6.63857C3.68257 4.19153 5.68788 2.24043 8.13605 2.25004ZM15.9538 20.25C17.5969 20.1754 18.889 18.8155 18.8773 17.1689L18.8772 17.1636L18.8772 8.9984C18.8772 8.66468 18.7475 8.34142 18.5147 8.09781C18.5145 8.09764 18.5148 8.09797 18.5147 8.09781L14.7234 4.14897C14.4794 3.89447 14.1408 3.75004 13.7855 3.75004H8.1313C6.50241 3.74304 5.1673 5.03877 5.12398 6.6659V17.1636L5.1238 17.1801C5.08727 18.8358 6.39808 20.2083 8.05277 20.249L15.9538 20.25Z" fill="black"/>
<path fill-rule="evenodd" clip-rule="evenodd" d="M8.17188 11.6719C8.17188 11.2577 8.50766 10.9219 8.92188 10.9219H12.2134C12.6277 10.9219 12.9634 11.2577 12.9634 11.6719C12.9634 12.0861 12.6277 12.4219 12.2134 12.4219H8.92188C8.50766 12.4219 8.17188 12.0861 8.17188 11.6719ZM8.1733 15.3528C8.1733 14.9386 8.50909 14.6028 8.9233 14.6028H14.2192C14.6334 14.6028 14.9692 14.9386 14.9692 15.3528C14.9692 15.767 14.6334 16.1028 14.2192 16.1028H8.9233C8.50909 16.1028 8.1733 15.767 8.1733 15.3528Z" fill="black"/>
<path fill-rule="evenodd" clip-rule="evenodd" d="M14.2695 2.3125C14.6837 2.3125 15.0195 2.64829 15.0195 3.0625V5.95514C15.0188 6.95244 15.8264 7.76262 16.8245 7.76503H19.5625C19.9767 7.76503 20.3125 8.10082 20.3125 8.51503C20.3125 8.92924 19.9767 9.26503 19.5625 9.26503L16.822 9.26503C14.9971 9.26126 13.5186 7.78096 13.5195 5.95514C13.5195 5.95506 13.5195 5.95522 13.5195 5.95514V3.0625C13.5195 2.64829 13.8553 2.3125 14.2695 2.3125Z" fill="black"/>
</svg>
