<svg width="24" height="24" viewBox="0 0 24 24" fill="none" xmlns="http://www.w3.org/2000/svg">
<path d="M8.60904 21.749C7.43728 21.742 6.31399 21.2804 5.47587 20.4615C4.63774 19.6426 4.15022 18.5303 4.11604 17.359V6.83405C4.09352 5.64323 4.54401 4.49201 5.36877 3.63275C6.19354 2.7735 7.3253 2.27625 8.51604 2.25H17.025C18.2139 2.28707 19.3409 2.78828 20.1646 3.64624C20.9884 4.5042 21.4433 5.65069 21.432 6.84003V17.156C21.4541 18.3475 21.0037 19.4994 20.1793 20.3599C19.3549 21.2205 18.2234 21.7199 17.032 21.749H8.60904V21.749ZM16.999 3.74902H8.54304C7.74838 3.76816 6.99379 4.1019 6.445 4.67694C5.8962 5.25199 5.59806 6.02135 5.61604 6.81604V17.341C5.6427 18.1196 5.97019 18.8575 6.52966 19.3997C7.08913 19.9418 7.837 20.2459 8.61604 20.248H17.016C17.8097 20.2271 18.5626 19.8924 19.1099 19.3173C19.6572 18.7423 19.9543 17.9737 19.936 17.1801V6.83405C19.9457 6.03871 19.6445 5.27097 19.0964 4.69452C18.5484 4.11807 17.7969 3.77849 17.002 3.74805L16.999 3.74902Z" fill="black"/>
<path d="M16.3913 16.5492H10.1523C9.95343 16.5492 9.76266 16.4702 9.62201 16.3295C9.48136 16.1889 9.40234 15.9981 9.40234 15.7992C9.40234 15.6003 9.48136 15.4095 9.62201 15.2689C9.76266 15.1282 9.95343 15.0492 10.1523 15.0492H16.3913C16.5903 15.0492 16.781 15.1282 16.9217 15.2689C17.0623 15.4095 17.1413 15.6003 17.1413 15.7992C17.1413 15.9981 17.0623 16.1889 16.9217 16.3295C16.781 16.4702 16.5903 16.5492 16.3913 16.5492V16.5492ZM16.3913 12.7492H10.1523C9.95343 12.7492 9.76266 12.6702 9.62201 12.5295C9.48136 12.3889 9.40234 12.1981 9.40234 11.9992C9.40234 11.8003 9.48136 11.6095 9.62201 11.4689C9.76266 11.3282 9.95343 11.2492 10.1523 11.2492H16.3913C16.5903 11.2492 16.781 11.3282 16.9217 11.4689C17.0623 11.6095 17.1413 11.8003 17.1413 11.9992C17.1413 12.1981 17.0623 12.3889 16.9217 12.5295C16.781 12.6702 16.5903 12.7492 16.3913 12.7492V12.7492ZM13.1623 8.94922H10.1523C9.95343 8.94922 9.76266 8.87021 9.62201 8.72955C9.48136 8.5889 9.40234 8.39813 9.40234 8.19922C9.40234 8.00031 9.48136 7.80954 9.62201 7.66888C9.76266 7.52823 9.95343 7.44922 10.1523 7.44922H13.1623C13.3613 7.44922 13.552 7.52823 13.6927 7.66888C13.8333 7.80954 13.9123 8.00031 13.9123 8.19922C13.9123 8.39813 13.8333 8.5889 13.6927 8.72955C13.552 8.87021 13.3613 8.94922 13.1623 8.94922V8.94922Z" fill="black"/>
<path d="M6.6414 17.4469H3.31641C3.11749 17.4469 2.92672 17.3679 2.78607 17.2272C2.64542 17.0866 2.56641 16.8958 2.56641 16.6969C2.56641 16.498 2.64542 16.3072 2.78607 16.1666C2.92672 16.0259 3.11749 15.9469 3.31641 15.9469H6.6414C6.84032 15.9469 7.03108 16.0259 7.17173 16.1666C7.31238 16.3072 7.3914 16.498 7.3914 16.6969C7.3914 16.8958 7.31238 17.0866 7.17173 17.2272C7.03108 17.3679 6.84032 17.4469 6.6414 17.4469V17.4469ZM6.6414 12.7469H3.31641C3.11749 12.7469 2.92672 12.6679 2.78607 12.5272C2.64542 12.3866 2.56641 12.1958 2.56641 11.9969C2.56641 11.798 2.64542 11.6072 2.78607 11.4666C2.92672 11.3259 3.11749 11.2469 3.31641 11.2469H6.6414C6.84032 11.2469 7.03108 11.3259 7.17173 11.4666C7.31238 11.6072 7.3914 11.798 7.3914 11.9969C7.3914 12.1958 7.31238 12.3866 7.17173 12.5272C7.03108 12.6679 6.84032 12.7469 6.6414 12.7469V12.7469ZM6.6414 8.04688H3.31641C3.11749 8.04688 2.92672 7.96786 2.78607 7.82721C2.64542 7.68656 2.56641 7.49579 2.56641 7.29688C2.56641 7.09796 2.64542 6.90719 2.78607 6.76654C2.92672 6.62589 3.11749 6.54688 3.31641 6.54688H6.6414C6.84032 6.54688 7.03108 6.62589 7.17173 6.76654C7.31238 6.90719 7.3914 7.09796 7.3914 7.29688C7.3914 7.49579 7.31238 7.68656 7.17173 7.82721C7.03108 7.96786 6.84032 8.04688 6.6414 8.04688V8.04688Z" fill="black"/>
</svg>
