<svg width="24" height="24" viewBox="0 0 24 24" fill="none" xmlns="http://www.w3.org/2000/svg">
<path d="M14.1 21.75H7.782C4.473 21.75 2.25 19.429 2.25 15.974V8.026C2.25 4.571 4.473 2.25 7.782 2.25H16.216C19.526 2.25 21.75 4.571 21.75 8.026V13.919C21.753 14.7393 21.4363 15.5284 20.867 16.119L16.392 20.78C16.0947 21.0873 15.7385 21.3316 15.3447 21.4982C14.9509 21.6649 14.5276 21.7505 14.1 21.75V21.75ZM7.777 3.75C5.328 3.75 3.745 5.428 3.745 8.026V15.974C3.745 18.574 5.328 20.25 7.777 20.25H14.1C14.3251 20.2497 14.5478 20.204 14.7548 20.1157C14.9619 20.0274 15.149 19.8982 15.305 19.736L19.78 15.075C20.0791 14.7646 20.2459 14.3501 20.245 13.919V8.026C20.245 5.426 18.662 3.75 16.211 3.75H7.777Z" fill="black"/>
<path d="M14.6758 21.6782C14.4769 21.6782 14.2861 21.5992 14.1455 21.4585C14.0048 21.3179 13.9258 21.1271 13.9258 20.9282V17.5142C13.9268 16.5158 14.3232 15.5585 15.0282 14.8517C15.7332 14.1448 16.6894 13.7459 17.6878 13.7422H20.9228C21.1217 13.7422 21.3125 13.8212 21.4531 13.9619C21.5938 14.1025 21.6728 14.2933 21.6728 14.4922C21.6728 14.6911 21.5938 14.8819 21.4531 15.0225C21.3125 15.1632 21.1217 15.2422 20.9228 15.2422H17.6898C17.0887 15.2446 16.513 15.4849 16.0887 15.9107C15.6644 16.3365 15.426 16.9131 15.4258 17.5142V20.9282C15.4258 21.1271 15.3468 21.3179 15.2061 21.4585C15.0655 21.5992 14.8747 21.6782 14.6758 21.6782V21.6782Z" fill="black"/>
<path d="M10.1657 15.8566C9.96681 15.8566 9.77604 15.7776 9.63539 15.6369C9.49474 15.4963 9.41572 15.3055 9.41572 15.1066V13.8236H7.82372C7.44259 13.8231 7.07724 13.6713 6.80784 13.4017C6.53843 13.1322 6.38698 12.7667 6.38672 12.3856C6.38745 12.0048 6.47641 11.6294 6.64662 11.2888C6.81683 10.9482 7.06365 10.6517 7.36772 10.4226C7.39609 10.4008 7.42619 10.3814 7.45772 10.3646C7.6345 10.268 7.80426 10.1591 7.96572 10.0386C7.97412 9.93393 7.97143 9.82868 7.95772 9.72459C7.85004 9.62079 7.73616 9.52359 7.61672 9.43358C7.33283 9.18378 7.1326 8.85274 7.04316 8.48533C6.95372 8.11792 6.9794 7.73192 7.11672 7.37959C7.25104 7.03858 7.48518 6.74605 7.78851 6.54033C8.09184 6.3346 8.45021 6.22524 8.81672 6.22657H11.5077C11.8745 6.2254 12.233 6.33505 12.5364 6.54115C12.8397 6.74725 13.0737 7.04019 13.2077 7.38157V7.38157C13.3424 7.71855 13.3736 8.08802 13.2974 8.44282C13.2211 8.79762 13.0409 9.12166 12.7797 9.37358C12.6366 9.48323 12.4994 9.60041 12.3687 9.72459C12.3542 9.82861 12.3512 9.93391 12.3597 10.0386C12.5208 10.1591 12.6902 10.268 12.8667 10.3646C12.8982 10.3814 12.9283 10.4008 12.9567 10.4226C13.2607 10.6519 13.5076 10.9484 13.678 11.2889C13.8483 11.6295 13.9376 12.0048 13.9387 12.3856C13.9385 12.7667 13.787 13.1322 13.5176 13.4017C13.2482 13.6713 12.8828 13.8231 12.5017 13.8236H10.9157V15.1066C10.9157 15.3055 10.8367 15.4963 10.696 15.6369C10.5554 15.7776 10.3646 15.8566 10.1657 15.8566V15.8566ZM8.23272 11.6506C8.12472 11.7403 8.03774 11.8526 7.97795 11.9796C7.91816 12.1066 7.88702 12.2452 7.88672 12.3856L9.94472 12.3576C10.0826 12.3169 10.229 12.3152 10.3677 12.3526L12.5067 12.3236C12.4407 12.0632 12.2978 11.8287 12.0967 11.6506C11.2317 11.1686 11.0717 10.8506 11.0187 10.7396C10.8142 10.2132 10.8074 9.63056 10.9997 9.09959C11.0367 9.01159 11.1547 8.7326 11.8117 8.2386C11.833 8.1916 11.8445 8.14078 11.8455 8.08921C11.8465 8.03765 11.8371 7.98639 11.8177 7.93858V7.93858C11.7933 7.87691 11.7509 7.82406 11.6959 7.78694C11.6409 7.74982 11.576 7.73016 11.5097 7.73057H8.81972C8.75369 7.73038 8.68912 7.74996 8.63429 7.78676C8.57947 7.82355 8.5369 7.87591 8.51206 7.93708C8.48723 7.99826 8.48126 8.06545 8.49492 8.13005C8.50857 8.19465 8.54124 8.25369 8.58872 8.29957C8.90633 8.4915 9.16374 8.76868 9.33172 9.09959C9.52378 9.63244 9.51632 10.2168 9.31072 10.7446C9.25872 10.8476 9.09972 11.1686 8.23272 11.6506Z" fill="black"/>
</svg>
