<svg width="24" height="24" viewBox="0 0 24 24" fill="none" xmlns="http://www.w3.org/2000/svg">
<path fill-rule="evenodd" clip-rule="evenodd" d="M3.74012 3.98291C4.72497 2.93779 6.12676 2.35547 7.7833 2.35547H16.2167C17.8737 2.35547 19.2755 2.93775 20.2603 3.98296C21.2402 5.02294 21.75 6.45986 21.75 8.07285V13.8963C21.75 14.709 21.432 15.4905 20.8637 16.0749L16.3885 20.6811C15.7905 21.2965 14.9661 21.6438 14.1058 21.6438H7.7833C6.13074 21.6438 4.7294 21.0608 3.74389 20.0163C2.76309 18.9767 2.25 17.54 2.25 15.9264V8.07285C2.25 6.45975 2.76016 5.02284 3.74012 3.98291ZM4.83179 5.01163C4.15723 5.72747 3.75 6.77426 3.75 8.07285V15.9264C3.75 17.2234 4.1589 18.2704 4.83492 18.9869C5.50622 19.6984 6.49654 20.1438 7.7833 20.1438H14.1058C14.5627 20.1438 14.9984 19.9592 15.3126 19.6358C15.3127 19.6358 15.3126 19.6358 15.3126 19.6358L19.7881 15.0294C20.0851 14.724 20.25 14.317 20.25 13.8963V8.07285C20.25 6.77415 19.843 5.72737 19.1686 5.01159C18.4991 4.30103 17.5093 3.85547 16.2167 3.85547H7.7833C6.49131 3.85547 5.50145 4.30099 4.83179 5.01163Z" fill="black"/>
<path fill-rule="evenodd" clip-rule="evenodd" d="M17.6884 13.7109L17.6898 13.7109L20.9226 13.7109C21.3368 13.7109 21.6726 14.0467 21.6726 14.4609C21.6726 14.8752 21.3368 15.2109 20.9226 15.2109H17.6905C16.4304 15.2136 15.425 16.2225 15.4258 17.4468L15.4258 20.8213C15.4258 21.2355 15.09 21.5713 14.6758 21.5713C14.2616 21.5713 13.9258 21.2355 13.9258 20.8213V17.4476C13.9258 17.4475 13.9258 17.4477 13.9258 17.4476C13.9248 15.3791 15.6169 13.7148 17.6884 13.7109Z" fill="black"/>
<path fill-rule="evenodd" clip-rule="evenodd" d="M7.17287 9.20703C7.17287 8.79282 7.50866 8.45703 7.92287 8.45703H14.3558C14.77 8.45703 15.1058 8.79282 15.1058 9.20703C15.1058 9.62124 14.77 9.95703 14.3558 9.95703H7.92287C7.50866 9.95703 7.17287 9.62124 7.17287 9.20703ZM7.17188 13.9242C7.17188 13.5099 7.50766 13.1742 7.92188 13.1742H11.9197C12.3339 13.1742 12.6697 13.5099 12.6697 13.9242C12.6697 14.3384 12.3339 14.6742 11.9197 14.6742H7.92188C7.50766 14.6742 7.17188 14.3384 7.17188 13.9242Z" fill="black"/>
</svg>
