<svg width="24" height="24" viewBox="0 0 24 24" fill="none" xmlns="http://www.w3.org/2000/svg">
<path fill-rule="evenodd" clip-rule="evenodd" d="M3.73661 3.89733C4.72047 2.84054 6.12291 2.25 7.78216 2.25H16.2169C17.8765 2.25 19.2792 2.8405 20.2632 3.89729C21.2416 4.94802 21.75 6.39856 21.75 8.02638V13.9187C21.75 14.7381 21.4337 15.5234 20.867 16.1143L16.3923 20.7748C15.7944 21.3982 14.9684 21.75 14.1055 21.75H7.78216C6.12669 21.75 4.72468 21.1588 3.7402 20.1026C2.76117 19.0523 2.25 17.6019 2.25 15.9736V8.02638C2.25 6.39856 2.75839 4.94805 3.73661 3.89733ZM4.83447 4.91943C4.15864 5.64536 3.75 6.70804 3.75 8.02638V15.9736C3.75 17.2905 4.16024 18.3533 4.83745 19.0799C5.50921 19.8006 6.49828 20.25 7.78216 20.25H14.1055C14.5601 20.25 14.995 20.0647 15.3097 19.7365L19.7844 15.076C20.0835 14.764 20.25 14.3504 20.25 13.9187V8.02638C20.25 6.70804 19.8414 5.64538 19.1654 4.91947C18.4952 4.19961 17.5063 3.75 16.2169 3.75H7.78216C6.49331 3.75 5.50467 4.19956 4.83447 4.91943Z" fill="black"/>
<path fill-rule="evenodd" clip-rule="evenodd" d="M17.6883 13.7422L17.6901 13.7422L20.9232 13.7422C21.3375 13.7422 21.6732 14.078 21.6732 14.4922C21.6732 14.9064 21.3375 15.2422 20.9232 15.2422H17.691C16.438 15.2456 15.4251 16.2614 15.4258 17.5138L15.4258 20.9284C15.4258 21.3426 15.09 21.6784 14.6758 21.6784C14.2616 21.6784 13.9258 21.3426 13.9258 20.9284V17.5145C13.9258 17.5144 13.9258 17.5145 13.9258 17.5145C13.9248 15.4339 15.6084 13.747 17.6883 13.7422Z" fill="black"/>
</svg>
