<svg width="25" height="24" viewBox="0 0 25 24" fill="none" xmlns="http://www.w3.org/2000/svg">
<path d="M12.25 21C7.27908 21 3.25 16.9699 3.25 12C3.25 7.03005 7.27908 3 12.25 3C17.2209 3 21.25 7.03005 21.25 12C21.25 15.6762 19.0455 18.8381 15.8861 20.2352" stroke="black" stroke-width="1.5" stroke-linecap="round" stroke-linejoin="round"/>
<path d="M13.4747 8.27539C14.5167 8.27539 15.2416 8.69863 15.2416 9.75917L15.2435 15.3567C15.2435 15.4199 15.227 15.4812 15.1959 15.5367C15.0966 15.7128 14.8738 15.7751 14.6977 15.6758L12.2614 14.2991L9.80171 15.6778C9.74722 15.7079 9.68495 15.7245 9.62268 15.7245C9.4203 15.7245 9.25684 15.56 9.25782 15.3586V9.68815C9.25782 8.67042 10.0148 8.27539 11.0257 8.27539" stroke="black" stroke-width="1.5" stroke-linecap="round" stroke-linejoin="round"/>
</svg>