<svg width="25" height="24" viewBox="0 0 25 24" fill="none" xmlns="http://www.w3.org/2000/svg">
<path d="M9.42188 9.80273H12.3107M9.42188 14.1974H15.0789" stroke="black" stroke-width="1.5" stroke-linecap="round" stroke-linejoin="round"/>
<path d="M4.84079 10.9488L4.83203 4.82259C4.83106 3.93623 5.75537 3.35245 6.55514 3.7358L7.30919 4.09677C7.76259 4.31471 8.28701 4.33028 8.75306 4.13958L10.8994 3.26489C11.7644 2.9117 12.7344 2.9117 13.5994 3.26489L15.7418 4.13958C16.2079 4.33028 16.7323 4.31471 17.1857 4.09774L17.9456 3.73385C18.7444 3.35148 19.6687 3.93429 19.6677 4.82065L19.658 17.0751C19.658 19.4977 18.3104 21 15.8917 21H8.59252C6.16791 21 4.84955 19.4977 4.84955 17.0751V14.6628" stroke="black" stroke-width="1.5" stroke-linecap="round" stroke-linejoin="round"/>
</svg>