<svg width="25" height="24" viewBox="0 0 25 24" fill="none" xmlns="http://www.w3.org/2000/svg">
<path d="M21.25 10.6698V5.27674C21.25 4.4468 20.4561 3.90777 19.7672 4.26096L19.1143 4.60539C18.7251 4.80874 18.2756 4.8175 17.8689 4.64042L16.0242 3.8202C15.274 3.49328 14.4441 3.49328 13.6939 3.8202L11.8482 4.64042C11.4424 4.8175 10.9919 4.80874 10.6037 4.60539L9.95086 4.26096C9.262 3.90777 8.46805 4.45555 8.46805 5.27674V17.8213C8.46805 19.2593 7.30243 20.425 5.8634 20.425H18.0012C20.0854 20.425 21.2412 19.0219 21.2412 16.753L21.2434 13.8839" stroke="black" stroke-width="1.5" stroke-linecap="round" stroke-linejoin="round"/>
<path d="M5.86341 20.4242C5.13951 20.4242 4.48665 20.1333 4.01865 19.6653C3.54189 19.1885 3.25 18.5357 3.25 17.8205V10.5728C3.25 9.74193 4.04492 9.20388 4.73378 9.55707L5.38665 9.9015C5.77487 10.1048 6.22535 10.1136 6.63108 9.93653" stroke="black" stroke-width="1.5" stroke-linecap="round" stroke-linejoin="round"/>
<path d="M12.4355 9.94141H15.1394M12.4355 14.0556H17.7314" stroke="black" stroke-width="1.5" stroke-linecap="round" stroke-linejoin="round"/>
</svg>