<svg width="25" height="24" viewBox="0 0 25 24" fill="none" xmlns="http://www.w3.org/2000/svg">
<path opacity="0.4" fill-rule="evenodd" clip-rule="evenodd" d="M6.98447 8.36108C7.07898 8.34937 7.15442 8.27556 7.1676 8.18123C7.46214 6.0737 9.17739 3.44141 12.4986 3.44141C16.0701 3.44141 17.5387 6.35097 17.8235 8.18389C17.8379 8.27693 17.913 8.34918 18.0064 8.36063C20.3665 8.64963 21.9636 10.4584 21.9636 12.9434C21.9636 14.7564 20.8956 16.4104 19.2236 17.1654C18.8748 17.3074 18.5563 17.3899 18.2734 17.4419C18.1455 17.4655 18.0344 17.3571 18.0427 17.2273C18.0498 17.1167 18.0536 17.0052 18.0536 16.8924C18.0536 13.8494 15.5866 11.3824 12.5436 11.3824C12.5316 11.3824 12.5196 11.3844 12.5076 11.3844C12.5046 11.3844 12.5016 11.3834 12.4976 11.3834C9.48462 11.3834 7.03262 13.8344 7.03262 16.8474C7.03262 16.8534 7.03462 16.8584 7.03462 16.8644C7.03462 16.8744 7.03262 16.8834 7.03262 16.8924C7.03262 17.0107 7.03699 17.128 7.04496 17.2443C7.05376 17.3729 6.94515 17.481 6.81803 17.46C6.50848 17.4089 6.14953 17.3216 5.75162 17.1624C4.10262 16.4154 3.03662 14.7594 3.03662 12.9434C3.03662 10.4603 4.62973 8.65293 6.98447 8.36108Z" fill="black"/>
<path fill-rule="evenodd" clip-rule="evenodd" d="M10.196 18.4009L11.655 17.6609C12.024 17.4739 12.476 17.6219 12.663 17.9909C12.851 18.3599 12.703 18.8119 12.333 18.9989L12.24 19.0469C13.525 19.1929 14.711 18.1539 14.711 16.8479C14.711 16.4339 15.047 16.0979 15.461 16.0979C15.875 16.0979 16.211 16.4339 16.211 16.8479C16.211 18.8949 14.545 20.5609 12.496 20.5609C11.589 20.5609 10.716 20.2309 10.038 19.6319C9.852 19.4669 9.759 19.2209 9.791 18.9749C9.822 18.7279 9.974 18.5129 10.196 18.4009Z" fill="black"/>
<path fill-rule="evenodd" clip-rule="evenodd" d="M12.4977 13.1328C13.4047 13.1328 14.2767 13.4628 14.9557 14.0608C15.1417 14.2248 15.2347 14.4708 15.2037 14.7178C15.1717 14.9638 15.0207 15.1788 14.7987 15.2918L13.3397 16.0328C12.9697 16.2208 12.5187 16.0738 12.3307 15.7048C12.1437 15.3358 12.2907 14.8838 12.6597 14.6958L12.7547 14.6478C11.4657 14.4928 10.2827 15.5398 10.2827 16.8468C10.2827 17.2608 9.94671 17.5968 9.53271 17.5968C9.11871 17.5968 8.78271 17.2608 8.78271 16.8468C8.78271 14.7988 10.4497 13.1328 12.4977 13.1328Z" fill="black"/>
</svg>