<svg width="25" height="24" viewBox="0 0 25 24" fill="none" xmlns="http://www.w3.org/2000/svg">
<path opacity="0.4" fill-rule="evenodd" clip-rule="evenodd" d="M18.0153 7.73608C17.9207 7.72437 17.8453 7.65056 17.8321 7.55623C17.5376 5.4487 15.8233 2.81641 12.5011 2.81641C8.92968 2.81641 7.46015 5.72586 7.17621 7.55879C7.16179 7.65187 7.08672 7.72419 6.99322 7.73564C4.63328 8.02463 3.03711 9.83249 3.03711 12.3184C3.03711 14.1304 4.10511 15.7844 5.77611 16.5404C5.88257 16.5839 5.98483 16.6173 6.08594 16.6488C6.15673 16.6709 6.23393 16.6516 6.2864 16.5992L6.98611 15.9004C7.41039 15.4761 7.95084 15.2393 8.50564 15.185C8.61395 15.1744 8.70111 15.0864 8.70111 14.9775V13.8044C8.70111 12.4244 9.82011 11.3044 11.2011 11.3044C11.6094 11.3044 11.9904 11.4103 12.3299 11.5859C12.3927 11.6184 12.4676 11.6184 12.5304 11.5859C12.8705 11.4103 13.2508 11.3044 13.6601 11.3044C15.0401 11.3044 16.1601 12.4244 16.1601 13.8044V14.9775C16.1601 15.0864 16.2473 15.1744 16.3556 15.185C16.9104 15.2391 17.4508 15.4752 17.8751 15.9004L18.6135 16.6388C18.6646 16.6899 18.7392 16.7097 18.8083 16.6892C18.9499 16.6471 19.0965 16.598 19.2481 16.5364C20.8971 15.7894 21.9631 14.1344 21.9631 12.3184C21.9631 9.83534 20.37 8.02793 18.0153 7.73608Z" fill="black"/>
<path fill-rule="evenodd" clip-rule="evenodd" d="M11.2006 13.0552C10.7866 13.0552 10.4506 13.3912 10.4506 13.8052V17.2772C10.4506 17.8412 9.99056 18.3002 9.42656 18.3002H9.18156L9.28356 18.1992C9.57656 17.9062 9.57656 17.4312 9.28356 17.1382C8.99156 16.8462 8.51656 16.8452 8.22256 17.1382L6.84256 18.5182C6.79156 18.5692 6.75956 18.6312 6.72556 18.6932C6.71256 18.7162 6.69156 18.7342 6.68156 18.7592C6.64356 18.8502 6.62256 18.9482 6.62256 19.0492C6.62256 19.0852 6.63756 19.1172 6.64256 19.1512C6.65156 19.2142 6.65556 19.2782 6.68056 19.3372C6.71856 19.4302 6.77556 19.5132 6.84656 19.5832L8.22256 20.9602C8.36956 21.1062 8.56056 21.1802 8.75356 21.1802C8.94556 21.1802 9.13756 21.1062 9.28356 20.9602C9.57656 20.6672 9.57656 20.1922 9.28356 19.8992L9.18456 19.8002H9.42656C10.8176 19.8002 11.9506 18.6682 11.9506 17.2772V13.8052C11.9506 13.3912 11.6146 13.0552 11.2006 13.0552Z" fill="black"/>
<path fill-rule="evenodd" clip-rule="evenodd" d="M18.1784 18.7617C18.1554 18.7067 18.1164 18.6627 18.0814 18.6157C18.0584 18.5837 18.0454 18.5477 18.0174 18.5187L16.6374 17.1377C16.3454 16.8457 15.8704 16.8447 15.5764 17.1377C15.2834 17.4307 15.2834 17.9057 15.5764 18.1987L15.6784 18.3007H15.4334C14.8684 18.3007 14.4094 17.8417 14.4094 17.2767V13.8047C14.4094 13.3907 14.0734 13.0547 13.6594 13.0547C13.2454 13.0547 12.9094 13.3907 12.9094 13.8047V17.2767C12.9094 18.6687 14.0414 19.8007 15.4334 19.8007H15.6754L15.5764 19.8997C15.2834 20.1927 15.2834 20.6677 15.5764 20.9607C15.7234 21.1067 15.9154 21.1797 16.1064 21.1797C16.2994 21.1797 16.4904 21.1067 16.6374 20.9597L18.0124 19.5837C18.0834 19.5127 18.1404 19.4287 18.1794 19.3347C18.2114 19.2567 18.2244 19.1727 18.2284 19.0897C18.2294 19.0757 18.2364 19.0637 18.2364 19.0507C18.2364 18.9527 18.2164 18.8537 18.1784 18.7617Z" fill="black"/>
</svg>