<svg width="24" height="24" viewBox="0 0 24 24" fill="none" xmlns="http://www.w3.org/2000/svg">
<path d="M8.35521 12.0932H2.86964M8.35521 12.0932L6.34672 10.0935M8.35521 12.0932L6.34672 14.0935" stroke="black" stroke-width="1.5" stroke-linecap="round" stroke-linejoin="round"/>
<path d="M21.1304 17.437V5.10422C21.1304 3.80402 20.052 2.75 18.7218 2.75L9.53899 2.75C8.20875 2.75 7.13037 3.80402 7.13037 5.10422L7.13037 6.90711" stroke="black" stroke-width="1.5" stroke-linecap="round" stroke-linejoin="round"/>
<path d="M7.13037 20.3156L7.13037 17.5127" stroke="black" stroke-width="1.5" stroke-linecap="round" stroke-linejoin="round"/>
<path d="M21.1304 18.692V6.05551C21.1304 4.43418 19.6041 3.22219 17.9775 3.55192L12.8461 4.59213C11.6304 4.83856 10.7589 5.88394 10.7589 7.09571V17.6518C10.7589 18.8636 11.6304 19.909 12.8461 20.1554L17.9775 21.1956C19.6041 21.5254 21.1304 20.3134 21.1304 18.692Z" stroke="black" stroke-width="1.5" stroke-linecap="round" stroke-linejoin="round"/>
<path d="M14.1304 11.533V13.2149" stroke="black" stroke-width="1.5" stroke-linecap="round"/>
</svg>