<svg width="24" height="24" viewBox="0 0 24 24" fill="none" xmlns="http://www.w3.org/2000/svg">
<path d="M11.6351 2.17538L8.8689 5.63309C8.62412 5.93906 8.84197 6.39232 9.23381 6.39232L14.7661 6.39232C15.158 6.39232 15.3758 5.93906 15.131 5.63309L12.3649 2.17538C12.1778 1.94154 11.8221 1.94154 11.6351 2.17538Z" stroke="black" stroke-width="1.5" stroke-linecap="round"/>
<path d="M11.6351 21.8263L8.8689 18.3686C8.62412 18.0626 8.84197 17.6094 9.23381 17.6094H14.7661C15.158 17.6094 15.3758 18.0626 15.131 18.3686L12.3649 21.8263C12.1778 22.0602 11.8221 22.0602 11.6351 21.8263Z" stroke="black" stroke-width="1.5" stroke-linecap="round"/>
<path d="M21.8246 11.6351L18.3669 8.8689C18.0609 8.62412 17.6077 8.84197 17.6077 9.23381L17.6077 14.7661C17.6077 15.158 18.0609 15.3758 18.3669 15.131L21.8246 12.3649C22.0585 12.1778 22.0585 11.8221 21.8246 11.6351Z" stroke="black" stroke-width="1.5" stroke-linecap="round"/>
<path d="M2.17369 11.6351L5.63139 8.8689C5.93737 8.62412 6.39063 8.84197 6.39062 9.23381L6.39062 14.7661C6.39062 15.158 5.93737 15.3758 5.63139 15.131L2.17369 12.3649C1.93985 12.1778 1.93985 11.8221 2.17369 11.6351Z" stroke="black" stroke-width="1.5" stroke-linecap="round"/>
<path d="M14 12C14 13.1046 13.1046 14 12 14C10.8954 14 10 13.1046 10 12C10 10.8954 10.8954 10 12 10C13.1046 10 14 10.8954 14 12Z" stroke="black" stroke-width="1.5" stroke-linecap="round"/>
</svg>