<svg width="24" height="24" viewBox="0 0 24 24" fill="none" xmlns="http://www.w3.org/2000/svg">
<path fill-rule="evenodd" clip-rule="evenodd" d="M7.05072 9.62278C6.60793 9.62278 4.28125 7.7399 4.28125 5.76947C4.28125 4.23982 5.52107 3 7.05072 3C8.58037 3 9.8202 4.23982 9.8202 5.76947C9.8202 7.7399 7.49352 9.62278 7.05072 9.62278Z" stroke="black" stroke-width="1.5" stroke-linecap="round" stroke-linejoin="round"/>
<path d="M7.04907 5.82015V5.7487" stroke="black" stroke-width="1.5" stroke-linecap="round" stroke-linejoin="round"/>
<path d="M19.7196 21L15.9941 17.2383" stroke="black" stroke-width="1.5" stroke-linecap="round" stroke-linejoin="round"/>
<path d="M19.7196 17.2383L15.9941 21" stroke="black" stroke-width="1.5" stroke-linecap="round" stroke-linejoin="round"/>
<path d="M12.4004 6.37057L15.3449 6.35547C16.8543 6.35246 18.078 7.57813 18.0719 9.08657L18.0679 10.1522C18.0619 11.6516 16.8443 12.8642 15.3459 12.8642H8.87438C7.37097 12.8642 6.15234 14.0828 6.15234 15.5852V16.6348C6.15234 18.1392 7.37298 19.3578 8.87639 19.3558L12.7225 19.3518" stroke="black" stroke-width="1.5" stroke-linecap="round" stroke-linejoin="round"/>
</svg>