<svg width="24" height="24" viewBox="0 0 24 24" fill="none" xmlns="http://www.w3.org/2000/svg">
<path d="M14.3074 3L12.0146 4.43053L13.4384 6.71063" stroke="black" stroke-width="1.5" stroke-linecap="round" stroke-linejoin="round"/>
<path d="M12.1709 4.58984C16.1871 4.65796 19.4345 7.92873 19.452 11.9731C19.452 13.3949 19.054 14.7262 18.365 15.858" stroke="black" stroke-width="1.5" stroke-linecap="round" stroke-linejoin="round"/>
<path d="M9.69043 20.9997L11.9832 19.5692L10.5595 17.2891" stroke="black" stroke-width="1.5" stroke-linecap="round" stroke-linejoin="round"/>
<path d="M11.8302 19.4121C7.80912 19.3381 4.56074 16.0674 4.54906 12.0288C4.53835 10.6527 4.90231 9.36721 5.55627 8.25781" stroke="black" stroke-width="1.5" stroke-linecap="round" stroke-linejoin="round"/>
<path fill-rule="evenodd" clip-rule="evenodd" d="M5.5069 5.6026C6.22703 4.88247 7.39384 4.88247 8.11397 5.6026C8.8341 6.32273 8.8341 7.48954 8.11397 8.20967C7.39384 8.92981 6.22703 8.92981 5.5069 8.20967C4.78676 7.48954 4.78676 6.32273 5.5069 5.6026Z" stroke="black" stroke-width="1.5" stroke-linecap="round" stroke-linejoin="round"/>
<path fill-rule="evenodd" clip-rule="evenodd" d="M15.8106 15.9112C16.5307 15.1911 17.6975 15.1911 18.4177 15.9112C19.1378 16.6313 19.1378 17.7981 18.4177 18.5183C17.6975 19.2384 16.5307 19.2384 15.8106 18.5183C15.0905 17.7981 15.0905 16.6313 15.8106 15.9112Z" stroke="black" stroke-width="1.5" stroke-linecap="round" stroke-linejoin="round"/>
</svg>