<svg width="24" height="24" viewBox="0 0 24 24" fill="none" xmlns="http://www.w3.org/2000/svg">
<path d="M15.8265 15.8204H15.8177C15.7293 15.838 15.641 15.8469 15.5439 15.8469H8.45093C7.01115 15.8469 6.20734 14.1774 7.10831 13.0468L7.93862 12.0045C8.32727 11.5275 8.53043 10.9269 8.53926 10.3174L8.55693 8.55078" stroke="black" stroke-width="1.5" stroke-linecap="round" stroke-linejoin="round"/>
<path d="M11.998 15.9336V20.003" stroke="black" stroke-width="1.5" stroke-linecap="round" stroke-linejoin="round"/>
<path d="M19.3137 19.3137L4.68359 4.68359" stroke="black" stroke-width="1.5" stroke-linecap="round" stroke-linejoin="round"/>
<path d="M8.78516 4.0265H8.79399C8.89115 4.00883 8.98832 4 9.08548 4H14.9064C15.7279 4 16.4787 4.59181 16.5582 5.41328C16.6024 5.9256 16.3992 6.39375 16.0547 6.71174C15.6837 7.04739 15.4364 7.49788 15.4364 7.99253L15.4541 10.3156C15.4541 10.4569 15.4718 10.5894 15.4894 10.7219" stroke="black" stroke-width="1.5" stroke-linecap="round" stroke-linejoin="round"/>
</svg>