<svg width="25" height="24" viewBox="0 0 25 24" fill="none" xmlns="http://www.w3.org/2000/svg">
<path fill-rule="evenodd" clip-rule="evenodd" d="M12.9474 7.00128C12.4134 7.57423 11.9552 8.4228 11.6683 9.47083L11.6674 9.47441L11.6674 9.47441C11.4532 10.2417 11.3359 11.097 11.3359 11.9952C11.3359 12.9037 11.4531 13.7492 11.6673 14.5157L11.6684 14.5195L11.6683 14.5195C11.9553 15.5678 12.4137 16.4193 12.9483 16.9949C13.4809 17.5682 14.0547 17.8369 14.6101 17.8369C15.4771 17.8369 16.434 17.1353 17.109 15.6762C17.283 15.3003 17.7287 15.1365 18.1046 15.3104C18.4806 15.4843 18.6443 15.9301 18.4704 16.306C17.688 17.9973 16.3312 19.3369 14.6101 19.3369C13.5329 19.3369 12.5855 18.8083 11.8493 18.0157C11.1155 17.2256 10.5579 16.143 10.2221 14.9174C9.96956 14.0128 9.83594 13.0318 9.83594 11.9952C9.83594 10.9695 9.96951 9.97867 10.2221 9.073C10.5579 7.847 11.1158 6.76637 11.8502 5.97853C12.5872 5.18783 13.5344 4.66309 14.6101 4.66309C16.3372 4.66309 17.6963 5.98922 18.4809 7.69563C18.6539 8.07197 18.4891 8.51732 18.1128 8.69036C17.7364 8.8634 17.2911 8.69859 17.118 8.32225C16.4451 6.85876 15.4886 6.16309 14.6101 6.16309C14.0531 6.16309 13.4792 6.43082 12.9474 7.00128Z" fill="black"/>
<path fill-rule="evenodd" clip-rule="evenodd" d="M4.44966 11.5537C4.19934 11.5537 4 11.7531 4 12.0034C4 12.2422 4.19656 12.4452 4.44966 12.4452H6.63881C7.05303 12.4452 7.38881 12.781 7.38881 13.1952C7.38881 13.6095 7.05303 13.9452 6.63881 13.9452H4.44966C3.3737 13.9452 2.5 13.0761 2.5 12.0034C2.5 10.9246 3.37091 10.0537 4.44966 10.0537H6.63881C7.05303 10.0537 7.38881 10.3895 7.38881 10.8037C7.38881 11.2179 7.05303 11.5537 6.63881 11.5537H4.44966Z" fill="black"/>
<path fill-rule="evenodd" clip-rule="evenodd" d="M7.102 6.95282C7.90477 5.63817 9.11468 4.66504 10.5857 4.66504H14.6069C15.0211 4.66504 15.3569 5.00083 15.3569 5.41504C15.3569 5.82925 15.0211 6.16504 14.6069 6.16504H10.5857C9.83544 6.16504 9.03472 6.66594 8.38219 7.73455C7.73755 8.79025 7.31445 10.2964 7.31445 12C7.31445 13.7031 7.73753 15.209 8.38218 16.2646C9.03471 17.3331 9.83543 17.834 10.5857 17.834H14.6069C15.0211 17.834 15.3569 18.1698 15.3569 18.584C15.3569 18.9982 15.0211 19.334 14.6069 19.334H10.5857C9.11469 19.334 7.90479 18.3609 7.10202 17.0464C6.29136 15.719 5.81445 13.9329 5.81445 12C5.81445 10.0667 6.29134 8.28039 7.102 6.95282Z" fill="black"/>
<path fill-rule="evenodd" clip-rule="evenodd" d="M15.7807 11.5596C15.5372 11.5596 15.3398 11.757 15.3398 12.0005C15.3398 12.244 15.5372 12.4414 15.7807 12.4414H20.054C20.3004 12.4414 20.4997 12.242 20.4997 11.9956C20.4997 11.7623 20.3048 11.5596 20.054 11.5596H15.7807ZM13.8398 12.0005C13.8398 10.9285 14.7088 10.0596 15.7807 10.0596H20.054C21.1244 10.0596 21.9997 10.9251 21.9997 11.9956C21.9997 13.0705 21.1288 13.9414 20.054 13.9414H15.7807C14.7088 13.9414 13.8398 13.0724 13.8398 12.0005Z" fill="black"/>
</svg>