<svg width="24" height="25" viewBox="0 0 24 25" fill="none" xmlns="http://www.w3.org/2000/svg">
<path opacity="0.4" fill-rule="evenodd" clip-rule="evenodd" d="M7.825 14.6238C8.47175 14.979 9.04917 15.3251 9.50807 15.6148C9.62233 15.687 9.77071 15.6752 9.87127 15.5849L12.611 13.1258C14.337 11.6108 16.831 11.4938 18.679 12.8388L20.8331 14.4053C21.0044 14.5298 21.247 14.4424 21.2911 14.2353C21.4241 13.6104 21.5 12.9645 21.5 12.3008C21.5 7.06178 17.238 2.80078 12 2.80078C6.761 2.80078 2.5 7.06178 2.5 12.3008C2.5 13.295 2.66146 14.2504 2.94818 15.1514C3.01256 15.3537 3.26313 15.4161 3.42701 15.2811C4.39825 14.4811 5.92717 13.5961 7.825 14.6238Z" fill="black"/>
<path d="M9.79494 7.2793C11.0079 7.2793 11.9941 8.26629 11.9941 9.47927C11.9941 10.6922 11.0079 11.6792 9.79494 11.6792C8.58196 11.6792 7.59497 10.6922 7.59497 9.47927C7.59497 8.26629 8.58196 7.2793 9.79494 7.2793Z" fill="black"/>
<path d="M13.6063 14.2476C14.7963 13.2026 16.5183 13.1226 17.7973 14.0516C18.5513 14.6003 19.9689 15.6125 20.4898 15.9841C20.6057 16.0668 20.6474 16.2194 20.5865 16.3481C19.0637 19.5661 15.7896 21.8006 11.9993 21.8006C10.2537 21.8006 8.61944 21.3209 7.21233 20.4946C7.0416 20.3944 7.02267 20.1581 7.16999 20.0259L9.17755 18.2237C10.6539 16.8984 12.1302 15.5731 13.6063 14.2476Z" fill="black"/>
<path d="M8.19927 16.5709C8.37047 16.6743 8.3917 16.9132 8.24312 17.0471C7.46186 17.7509 6.33004 18.7774 5.87588 19.1896C5.76204 19.2929 5.58893 19.2931 5.4773 19.1874C4.86314 18.606 4.32591 17.9461 3.88391 17.2201C3.80167 17.085 3.84436 16.9103 3.97294 16.8182C4.10534 16.7234 4.23476 16.6252 4.36283 16.528C5.18841 15.9018 5.9576 15.3183 7.10632 15.9407C7.50326 16.1586 7.87113 16.3728 8.19927 16.5709Z" fill="black"/>
</svg>