<svg width="24" height="25" viewBox="0 0 24 25" fill="none" xmlns="http://www.w3.org/2000/svg">
<path opacity="0.4" fill-rule="evenodd" clip-rule="evenodd" d="M12 2.80078C6.762 2.80078 2.5 7.06278 2.5 12.3008C2.5 17.5398 6.762 21.8008 12 21.8008C17.239 21.8008 21.5 17.5398 21.5 12.3008C21.5 7.06278 17.239 2.80078 12 2.80078Z" fill="black"/>
<path fill-rule="evenodd" clip-rule="evenodd" d="M18.375 14.6912C18.223 14.6912 18.069 14.6452 17.936 14.5482L15.449 12.7482L13.37 19.1382C13.267 19.4552 12.973 19.6562 12.657 19.6562C12.58 19.6562 12.502 19.6452 12.425 19.6202C12.031 19.4912 11.815 19.0682 11.943 18.6742L12.873 15.8182H6.151C5.737 15.8182 5.401 15.4822 5.401 15.0682C5.401 14.6542 5.737 14.3182 6.151 14.3182H9.187L7.089 7.84621C6.961 7.45221 7.177 7.02921 7.571 6.90121C7.966 6.77321 8.387 6.98921 8.516 7.38321L9.442 10.2422L14.908 6.28121C15.243 6.03921 15.711 6.11221 15.955 6.44821C16.198 6.78421 16.123 7.25321 15.788 7.49621L13.272 9.31921L15.492 10.9202C15.519 10.9402 15.543 10.9602 15.566 10.9822L18.815 13.3342C19.151 13.5762 19.226 14.0452 18.983 14.3812C18.836 14.5842 18.607 14.6912 18.375 14.6912ZM9.92871 11.7425L11.9927 10.2465L14.1737 11.8195L13.3607 14.3185H10.7637L9.92871 11.7425Z" fill="black"/>
</svg>