<svg width="24" height="25" viewBox="0 0 24 25" fill="none" xmlns="http://www.w3.org/2000/svg">
<path opacity="0.4" fill-rule="evenodd" clip-rule="evenodd" d="M16.213 2.80566H7.778C4.621 2.80566 2.5 5.02466 2.5 8.32666V16.2737C2.5 16.378 2.50562 16.4794 2.51403 16.5793C2.52864 16.7529 2.74842 16.8215 2.86371 16.6908L8.61 10.1807C9.685 8.96666 11.545 8.85366 12.758 9.92666L13.939 10.9637C14.529 11.4787 14.881 12.1947 14.932 12.9787C14.981 13.7617 14.723 14.5147 14.204 15.1017L8.60717 21.4636C8.4935 21.5928 8.58524 21.7957 8.75733 21.7957H16.213C19.375 21.7957 21.5 19.5767 21.5 16.2737V8.32666C21.5 5.02466 19.375 2.80566 16.213 2.80566Z" fill="black"/>
<path d="M15.935 10.3889C15.935 10.8029 16.271 11.1189 16.685 11.1189C17.099 11.1189 17.435 10.7639 17.435 10.3489C17.435 9.93495 17.099 9.59895 16.685 9.59895C16.271 9.59895 15.935 9.93495 15.935 10.3489V10.3889Z" fill="black"/>
<path d="M15.345 17.9559C15.759 17.9559 16.095 17.6199 16.095 17.2059V17.1669C16.095 16.7529 15.759 16.4369 15.345 16.4369C14.931 16.4369 14.595 16.7919 14.595 17.2059C14.595 17.6199 14.931 17.9559 15.345 17.9559Z" fill="black"/>
<path d="M16.227 6.66895C15.813 6.66895 15.477 7.00495 15.477 7.41895V7.45795C15.477 7.87195 15.813 8.18895 16.227 8.18895C16.641 8.18895 16.977 7.83295 16.977 7.41895C16.977 7.00495 16.641 6.66895 16.227 6.66895Z" fill="black"/>
<path d="M6.077 7.65095C6.077 8.06495 6.413 8.38195 6.827 8.38195C7.241 8.38195 7.577 8.02695 7.577 7.61295C7.577 7.19895 7.241 6.86295 6.827 6.86295C6.413 6.86295 6.077 7.19895 6.077 7.61295V7.65095Z" fill="black"/>
<path fill-rule="evenodd" clip-rule="evenodd" d="M10.9296 16.5541C11.0389 16.4296 11.0258 16.2413 10.9015 16.1318L8.00743 13.5831C7.88319 13.4736 7.69381 13.4855 7.58425 13.6097L3.13452 18.6503C3.05763 18.7374 3.03731 18.8615 3.0871 18.9665C3.71911 20.299 4.84133 21.2347 6.30843 21.6062C6.41471 21.6331 6.52453 21.5977 6.59653 21.515C7.14974 20.8799 9.56665 18.1059 10.9296 16.5541Z" fill="black"/>
<path fill-rule="evenodd" clip-rule="evenodd" d="M13.4345 13.0744C13.4105 12.6924 13.2385 12.3434 12.9515 12.0924L11.7665 11.0524C11.1595 10.5154 10.2675 10.5704 9.73455 11.1734L8.97342 12.0352C8.86363 12.1595 8.87555 12.3493 9.00002 12.459L11.8915 15.0052C12.0158 15.1147 12.2053 15.1027 12.3148 14.9784L13.0795 14.1104C13.3325 13.8224 13.4585 13.4554 13.4345 13.0744Z" fill="black"/>
</svg>