<svg width="24" height="24" viewBox="0 0 24 24" fill="none" xmlns="http://www.w3.org/2000/svg">
<path d="M19.6142 20.906V5.24013C19.6142 4.05505 18.6539 3.09375 17.4688 3.09375H6.53457C5.34948 3.09375 4.38916 4.05505 4.38916 5.24013V20.906" stroke="black" stroke-width="1.5" stroke-linecap="round" stroke-linejoin="round"/>
<path d="M3 20.9055H21" stroke="black" stroke-width="1.5" stroke-linecap="round" stroke-linejoin="round"/>
<path d="M9.68359 20.906V15.5576C9.68359 14.966 10.1633 14.4873 10.7539 14.4873H13.2456C13.8372 14.4873 14.3169 14.966 14.3169 15.5576V20.906" stroke="black" stroke-width="1.5" stroke-linecap="round" stroke-linejoin="round"/>
<path d="M9.6856 8.58265V8.62935M9.87485 8.59268C9.87485 8.69781 9.78956 8.78303 9.68444 8.78303C9.57931 8.78303 9.49414 8.69781 9.49414 8.59268C9.49414 8.48756 9.57931 8.40234 9.68444 8.40234C9.78956 8.40234 9.87485 8.48756 9.87485 8.59268Z" stroke="black" stroke-width="1.5" stroke-linecap="round" stroke-linejoin="round"/>
<path d="M14.3174 8.58265V8.62935M14.5067 8.59268C14.5067 8.69781 14.4214 8.78303 14.3163 8.78303C14.2111 8.78303 14.126 8.69781 14.126 8.59268C14.126 8.48756 14.2111 8.40234 14.3163 8.40234C14.4214 8.40234 14.5067 8.48756 14.5067 8.59268Z" stroke="black" stroke-width="1.5" stroke-linecap="round" stroke-linejoin="round"/>
</svg>
