<svg width="25" height="24" viewBox="0 0 25 24" fill="none" xmlns="http://www.w3.org/2000/svg">
<path fill-rule="evenodd" clip-rule="evenodd" d="M13.1152 2.42513L12.6335 3L12.1518 2.42513C12.4305 2.19162 12.8365 2.19162 13.1152 2.42513ZM15.2502 5.68309C15.0953 4.82428 14.5954 4.06038 14.1778 3.53563C13.9142 3.20442 13.6524 2.93048 13.457 2.73941C13.3588 2.64343 13.2761 2.56723 13.2168 2.51397C13.1871 2.48731 13.1632 2.46633 13.1459 2.45141L13.1252 2.4336L13.1188 2.42818L13.1167 2.42635L13.1152 2.42513C13.1151 2.425 13.1152 2.42513 12.6335 3C12.1518 2.42513 12.152 2.425 12.1518 2.42513L12.1504 2.42635L12.1482 2.42818L12.1418 2.4336L12.1211 2.45141C12.1039 2.46633 12.0799 2.48731 12.0502 2.51397C11.9909 2.56723 11.9083 2.64343 11.8101 2.73941C11.6146 2.93048 11.3528 3.20442 11.0893 3.53563C10.6717 4.06038 10.1717 4.82428 10.0168 5.68309C9.29982 5.18545 8.40607 4.99895 7.73967 4.92329C7.31911 4.87554 6.94037 4.867 6.66709 4.87016C6.52981 4.87175 6.41752 4.87631 6.33792 4.88062C6.29808 4.88277 6.26632 4.88487 6.24359 4.88651L6.21634 4.88858L6.20799 4.88926L6.20517 4.8895L6.20411 4.8896C6.20391 4.88961 6.20327 4.88967 6.2693 5.63676L6.20411 4.8896C5.84206 4.9216 5.55423 5.20866 5.52222 5.5707L6.2693 5.63676C5.52222 5.5707 5.52224 5.5705 5.52222 5.5707L5.52205 5.5726L5.52181 5.57542L5.52112 5.58377L5.51905 5.61102C5.51742 5.63375 5.51532 5.66551 5.51317 5.70534C5.50886 5.78492 5.5043 5.89719 5.50272 6.03443C5.49958 6.30765 5.50815 6.68631 5.55597 7.10678C5.63177 7.77326 5.81859 8.66705 6.31688 9.38403C5.45769 9.53859 4.69355 10.0386 4.1687 10.4562C3.83759 10.7197 3.56376 10.9813 3.37278 11.1767C3.27684 11.2749 3.20067 11.3575 3.14743 11.4168C3.12079 11.4464 3.09981 11.4704 3.0849 11.4876L3.06709 11.5083L3.06167 11.5147L3.05985 11.5169L3.05916 11.5177C3.05904 11.5179 3.05863 11.5183 3.63352 12L3.05916 11.5177C2.82574 11.7963 2.82515 12.2028 3.05851 12.4815L3.63352 12C3.05851 12.4815 3.05838 12.4814 3.05851 12.4815L3.05973 12.483L3.06155 12.4851L3.06697 12.4915L3.08477 12.5123C3.09969 12.5295 3.12066 12.5534 3.14731 12.5831C3.20054 12.6425 3.27671 12.7251 3.37264 12.8233C3.56362 13.0188 3.83745 13.2806 4.16855 13.5442C4.69336 13.962 5.45752 14.4622 6.31678 14.6169C5.8185 15.3337 5.63175 16.2275 5.55597 16.8938C5.50815 17.3144 5.49958 17.6931 5.50272 17.9664C5.5043 18.1037 5.50886 18.216 5.51316 18.2956C5.51532 18.3354 5.51741 18.3672 5.51905 18.3899L5.52112 18.4172L5.52181 18.4255L5.52205 18.4283L5.52214 18.4294C5.52216 18.4296 5.52222 18.4302 6.2693 18.3642L5.52214 18.4294C5.55414 18.7915 5.84122 19.0793 6.20327 19.1113L6.2693 18.3642C6.20327 19.1113 6.20307 19.1113 6.20327 19.1113L6.20517 19.1115L6.20799 19.1117L6.21634 19.1124L6.24359 19.1145C6.26632 19.1161 6.29808 19.1182 6.33792 19.1204C6.41752 19.1247 6.52981 19.1292 6.66709 19.1308C6.94037 19.134 7.31911 19.1254 7.73967 19.0777C8.40608 19.002 9.29982 18.8155 10.0168 18.3179C10.1717 19.1767 10.6717 19.9404 11.0894 20.465C11.353 20.7961 11.6147 21.0699 11.8102 21.2609C11.9084 21.3568 11.991 21.433 12.0504 21.4862C12.0801 21.5129 12.104 21.5338 12.1213 21.5487L12.142 21.5666L12.1484 21.572L12.1505 21.5738L12.1514 21.5745C12.1515 21.5746 12.152 21.575 12.6335 21L12.1514 21.5745C12.43 21.8078 12.8364 21.8083 13.115 21.575L12.6335 21C13.115 21.575 13.1149 21.5751 13.115 21.575L13.1187 21.572L13.125 21.5666L13.1458 21.5487C13.163 21.5338 13.187 21.5129 13.2167 21.4862C13.276 21.433 13.3586 21.3568 13.4568 21.2609C13.6523 21.0699 13.9141 20.7961 14.1777 20.465C14.5953 19.9404 15.0953 19.1767 15.2502 18.3179C15.9672 18.8155 16.861 19.002 17.5274 19.0777C17.9479 19.1254 18.3267 19.134 18.6 19.1308C18.7372 19.1292 18.8495 19.1247 18.9291 19.1204C18.969 19.1182 19.0007 19.1161 19.0235 19.1145L19.0507 19.1124L19.0591 19.1117L19.0619 19.1115L19.0629 19.1114C19.0631 19.1114 19.0638 19.1113 18.9977 18.3642L19.0629 19.1114C19.425 19.0794 19.7128 18.7923 19.7448 18.4302L18.9977 18.3642C19.7448 18.4302 19.7448 18.4304 19.7448 18.4302L19.745 18.4283L19.7452 18.4255L19.7459 18.4172L19.748 18.3899C19.7496 18.3672 19.7517 18.3354 19.7539 18.2956C19.7582 18.216 19.7627 18.1037 19.7643 17.9664C19.7675 17.6931 19.7589 17.3144 19.7111 16.8938C19.6353 16.2275 19.4485 15.3337 18.9503 14.6169C19.8095 14.4622 20.5737 13.962 21.0985 13.5442C21.4296 13.2806 21.7034 13.0188 21.8944 12.8233C21.9903 12.7251 22.0665 12.6425 22.1197 12.5831C22.1464 12.5534 22.1674 12.5295 22.1823 12.5123L22.2001 12.4915L22.2055 12.4851L22.208 12.4822C22.2081 12.482 22.2085 12.4815 21.6335 12L22.208 12.4822C22.4414 12.2035 22.4418 11.797 22.2084 11.5183L21.6335 12C22.2084 11.5183 22.2085 11.5185 22.2084 11.5183L22.2072 11.5169L22.2054 11.5147L22.1999 11.5083L22.1821 11.4876C22.1672 11.4704 22.1463 11.4464 22.1196 11.4168C22.0664 11.3575 21.9902 11.2749 21.8943 11.1767C21.7033 10.9813 21.4295 10.7197 21.0983 10.4562C20.5735 10.0386 19.8093 9.5386 18.9502 9.38404C19.4485 8.66705 19.6353 7.77326 19.7111 7.10678C19.7589 6.68631 19.7675 6.30765 19.7643 6.03443C19.7627 5.89719 19.7582 5.78492 19.7539 5.70534C19.7517 5.66551 19.7496 5.63375 19.748 5.61102L19.7459 5.58377L19.7452 5.57542L19.7449 5.57153C19.7449 5.57134 19.7448 5.5707 18.9977 5.63676L19.7449 5.57153C19.7129 5.20949 19.4258 4.92167 19.0638 4.88967L18.9977 5.63676C19.0638 4.88967 19.064 4.88969 19.0638 4.88967L19.0619 4.8895L19.0591 4.88926L19.0507 4.88858L19.0235 4.88651C19.0007 4.88487 18.969 4.88277 18.9291 4.88062C18.8495 4.87631 18.7372 4.87175 18.6 4.87016C18.3267 4.867 17.9479 4.87554 17.5274 4.92329C16.861 4.99895 15.9672 5.18545 15.2502 5.68309ZM13.3488 8.31686C13.3421 8.33283 13.3355 8.34866 13.3291 8.36434C13.1723 8.74648 13.3539 9.18349 13.7355 9.34181C14.117 9.50012 14.5547 9.32015 14.7145 8.93925C14.7211 8.92357 14.7277 8.90772 14.7343 8.89168C14.9681 8.33493 15.3775 7.60981 15.9058 7.08058C16.2842 6.70281 16.9687 6.49636 17.6966 6.41371C17.8987 6.39077 18.0907 6.37879 18.2611 6.37336C18.2556 6.54361 18.2436 6.73541 18.2207 6.93728C18.1379 7.66503 17.9312 8.34944 17.5528 8.72783C17.019 9.26248 16.2991 9.66858 15.7429 9.90212C15.7269 9.90873 15.711 9.91533 15.6952 9.92192C15.3143 10.0817 15.1344 10.5194 15.2927 10.901C15.451 11.2825 15.888 11.4642 16.2702 11.3074C16.2859 11.3009 16.3018 11.2943 16.3178 11.2876C16.8757 11.059 17.6777 10.8362 18.4266 10.8362C18.9612 10.8362 19.5912 11.1739 20.1644 11.63C20.3234 11.7565 20.4675 11.8836 20.5917 12.0001C20.4675 12.1168 20.3233 12.244 20.1642 12.3706C19.591 12.827 18.9611 13.1648 18.4266 13.1648C17.6695 13.1648 16.8734 12.9435 16.3158 12.7158C16.2998 12.7091 16.284 12.7026 16.2682 12.6961C15.8859 12.5398 15.4491 12.7221 15.2913 13.1039C15.1335 13.4856 15.3141 13.9231 15.6952 14.0824C15.7109 14.0889 15.7268 14.0955 15.7429 14.1021C16.2993 14.335 17.0247 14.7442 17.5524 15.2727C17.9305 15.6505 18.1379 16.3353 18.2207 17.0633C18.2436 17.2653 18.2556 17.4573 18.2611 17.6276C18.0907 17.6222 17.8987 17.6102 17.6966 17.5873C16.9687 17.5046 16.2842 17.2982 15.9058 16.9204C15.3724 16.3861 14.9658 15.6636 14.7319 15.1068C14.7251 15.0903 14.7184 15.074 14.7116 15.0578C14.5518 14.6769 14.1141 14.497 13.7326 14.6553C13.351 14.8136 13.1693 15.2506 13.3262 15.6327C13.3328 15.6489 13.3395 15.6652 13.3464 15.6817C13.5751 16.2399 13.7983 17.0376 13.7983 17.7931C13.7983 18.3276 13.4605 18.9575 13.0042 19.5307C12.8775 19.6898 12.7502 19.834 12.6335 19.9584C12.5169 19.834 12.3896 19.6898 12.2629 19.5307C11.8065 18.9575 11.4687 18.3276 11.4687 17.7931C11.4687 17.0456 11.6922 16.2437 11.9213 15.6839C11.928 15.6679 11.9346 15.652 11.941 15.6362C12.0976 15.254 11.9157 14.8171 11.5341 14.659C11.1525 14.5009 10.7149 14.6811 10.5553 15.0621C10.5487 15.0778 10.5421 15.0937 10.5355 15.1098C10.3024 15.6656 9.89592 16.3847 9.36137 16.9202C8.98301 17.2981 8.29848 17.5046 7.57045 17.5873C7.36836 17.6102 7.17636 17.6222 7.00595 17.6276C7.0114 17.4573 7.0234 17.2653 7.04637 17.0633C7.12915 16.3353 7.33588 15.6512 7.714 15.2734C8.24175 14.7448 8.96775 14.335 9.52416 14.1021C9.54024 14.0955 9.55613 14.0889 9.57184 14.0824C9.95295 13.9231 10.1335 13.4856 9.97571 13.1039C9.81791 12.7221 9.38115 12.5398 8.9988 12.6961C8.98307 12.7026 8.96719 12.7091 8.95118 12.7158C8.39365 12.9435 7.59757 13.1648 6.84044 13.1648C6.30597 13.1648 5.67606 12.827 5.10281 12.3706C4.94376 12.244 4.79959 12.1168 4.6753 12.0001C4.79955 11.8836 4.94368 11.7565 5.10267 11.63C5.67588 11.1739 6.30584 10.8362 6.84044 10.8362C7.58838 10.8362 8.39046 11.059 8.94964 11.2878C8.96565 11.2945 8.98153 11.3011 8.99727 11.3075C9.3795 11.4641 9.81641 11.2822 9.97451 10.9006C10.1326 10.519 9.9524 10.0814 9.5714 9.92175C9.5557 9.91518 9.53981 9.90859 9.52374 9.902C8.96728 9.66866 8.24863 9.26304 7.71463 8.72824C7.33624 8.34985 7.12913 7.66503 7.04637 6.93728C7.02341 6.7354 7.01141 6.54361 7.00596 6.37336C7.17637 6.37879 7.36837 6.39077 7.57045 6.41371C8.29848 6.49637 8.983 6.70286 9.36137 7.08072C9.89043 7.61076 10.2997 8.33287 10.5329 8.8889C10.5394 8.90476 10.5459 8.92044 10.5524 8.93594C10.712 9.31693 11.1496 9.49715 11.5312 9.33905C11.9128 9.18094 12.0947 8.74403 11.9381 8.36181C11.9317 8.34624 11.9252 8.33054 11.9186 8.31471C11.6901 7.75635 11.4687 6.95663 11.4687 6.20789C11.4687 5.67336 11.8066 5.04319 12.263 4.46966C12.3896 4.31053 12.5169 4.16627 12.6335 4.04191C12.7502 4.16627 12.8774 4.31053 13.0041 4.46966C13.4605 5.04319 13.7983 5.67336 13.7983 6.20789C13.7983 6.96405 13.577 7.75994 13.3488 8.31686ZM6.6538 14.2123L7.09986 14.6587C7.0998 14.6587 7.09993 14.6587 7.09986 14.6587L6.6538 14.2123ZM13.1158 20.4256C13.1159 20.4257 13.1159 20.4257 13.1158 20.4256Z" fill="black"/>
</svg>