<svg width="25" height="24" viewBox="0 0 25 24" fill="none" xmlns="http://www.w3.org/2000/svg">
<path fill-rule="evenodd" clip-rule="evenodd" d="M19.6205 16.462L19.2866 19.3304C19.1342 20.6374 18.0273 21.6205 16.7143 21.6205H9.05073C7.73578 21.6205 6.63032 20.6364 6.47797 19.3304L5.92573 14.5914C5.74604 13.0525 6.94867 11.7014 8.49799 11.7014H12.1323C12.1323 11.3929 12.1318 11.1035 12.1352 10.8232C9.99897 10.7584 8.11762 10.0705 6.76166 8.80344C5.24848 7.38938 4.47016 5.32846 4.65864 2.84848C4.68647 2.48044 4.97797 2.18747 5.34565 2.15744C6.19916 2.08847 7.08198 2.10947 7.95356 2.28244C10.1186 2.71042 11.9829 4.17868 12.8745 6.15512C13.7543 4.16635 15.6586 2.70786 17.8129 2.28244C18.684 2.10947 19.5673 2.08847 20.4208 2.15744C20.7885 2.18747 21.08 2.48044 21.1079 2.84848C21.2963 5.32846 20.518 7.38938 19.0048 8.80344C17.6508 10.0688 15.7724 10.7566 13.6401 10.823C13.6411 11.0875 13.6391 11.3593 13.6372 11.6469C13.6372 11.665 13.6367 11.6832 13.6367 11.7014H17.2656C18.8149 11.7014 20.0175 13.0525 19.8383 14.5914L19.6328 16.3264C19.6328 16.3727 19.6284 16.4181 19.6205 16.462ZM12.8422 13.2014C12.8559 13.2021 12.8696 13.2025 12.8832 13.2025C12.8969 13.2025 12.9106 13.2021 12.9243 13.2014H17.2656C17.9174 13.2014 18.4238 13.7705 18.3481 14.4184L18.2133 15.5764H10.1469C9.73285 15.5764 9.39692 15.9124 9.39692 16.3264C9.39692 16.7404 9.73285 17.0764 10.1469 17.0764H18.0385L17.7963 19.1565C17.7324 19.7064 17.267 20.1205 16.7143 20.1205H9.05073C8.49701 20.1205 8.03217 19.7064 7.96821 19.1565L7.41547 14.4184C7.33979 13.7705 7.84614 13.2014 8.49799 13.2014H12.8422ZM13.7084 9.31967C15.497 9.24216 16.9643 8.65695 17.9804 7.70749C18.9965 6.75754 19.6245 5.38693 19.6357 3.62094C19.1147 3.61484 18.601 3.65488 18.1039 3.75339C16.0278 4.1644 14.311 5.77341 13.9365 7.75546C13.8247 8.34714 13.7534 8.84689 13.7084 9.31967ZM12.0751 9.32041C12.0302 8.853 11.956 8.35825 11.833 7.76938C11.4155 5.77341 9.72699 4.16147 7.66205 3.75339C7.16547 3.655 6.6518 3.61484 6.1308 3.62094C6.14203 5.38693 6.76996 6.75754 7.78559 7.70749C8.80512 8.66001 10.2788 9.24594 12.0751 9.32041Z" fill="black"/>
</svg>