<svg width="25" height="24" viewBox="0 0 25 24" fill="none" xmlns="http://www.w3.org/2000/svg">
<path fill-rule="evenodd" clip-rule="evenodd" d="M12.6578 3.3705L12.2501 4L11.8423 3.3705C12.0904 3.20983 12.4097 3.20983 12.6578 3.3705ZM12.2501 4.91019C12.2024 4.94411 12.151 4.98096 12.0962 5.02068C11.7373 5.28095 11.233 5.66335 10.6574 6.14791C9.50427 7.11869 8.08791 8.48048 6.97678 10.074C5.89909 11.7711 5.90292 14.0634 6.86314 15.9563C7.81337 17.8295 9.67023 19.25 12.2501 19.25C14.8299 19.25 16.6867 17.8295 17.637 15.9563C18.5972 14.0634 18.601 11.7711 17.5233 10.074C16.4122 8.48048 14.9958 7.11869 13.8427 6.14791C13.2671 5.66335 12.7628 5.28095 12.4039 5.02068C12.3491 4.98096 12.2977 4.94411 12.2501 4.91019ZM11.8423 3.3705C11.8425 3.37041 11.8423 3.3705 12.2501 4C12.6578 3.3705 12.6576 3.37041 12.6578 3.3705L12.6593 3.37151L12.6622 3.37336L12.6717 3.3796L12.7058 3.40211C12.735 3.42154 12.7771 3.44977 12.8309 3.48649C12.9384 3.55991 13.0928 3.66736 13.2844 3.80632C13.6675 4.08408 14.201 4.48876 14.8088 5.00041C16.0194 6.01956 17.5474 7.48222 18.7632 9.22959C18.7688 9.23764 18.7743 9.2458 18.7795 9.25406C20.1936 11.4666 20.1393 14.339 18.9747 16.6349C17.7978 18.9549 15.4562 20.75 12.2501 20.75C9.04394 20.75 6.70231 18.9549 5.52541 16.6349C4.36078 14.339 4.30655 11.4666 5.72058 9.25406C5.72586 9.2458 5.7313 9.23764 5.7369 9.22959C6.9527 7.48222 8.48076 6.01956 9.69136 5.00041C10.2991 4.48876 10.8326 4.08408 11.2157 3.80632C11.4074 3.66736 11.5617 3.55991 11.6692 3.48649C11.723 3.44977 11.7651 3.42154 11.7943 3.40211L11.8284 3.3796L11.8379 3.37336L11.8408 3.37151L11.8423 3.3705Z" fill="black"/>
</svg>