<svg width="25" height="24" viewBox="0 0 25 24" fill="none" xmlns="http://www.w3.org/2000/svg">
<path fill-rule="evenodd" clip-rule="evenodd" d="M6.60742 8.2706C6.60742 4.94534 9.30258 2.25 12.627 2.25H12.6397C15.9642 2.25 18.6593 4.94534 18.6593 8.2706V11.9737C18.6593 15.058 16.3394 17.6007 13.3495 17.9519V21C13.3495 21.4142 13.0137 21.75 12.5995 21.75C12.1853 21.75 11.8495 21.4142 11.8495 21V17.9436C8.89237 17.5622 6.60742 15.0346 6.60742 11.9737V8.2706ZM13.3495 16.4379C15.5083 16.0973 17.1593 14.2282 17.1593 11.9737V8.2706C17.1593 5.77358 15.1356 3.75 12.6397 3.75H12.627C10.1312 3.75 8.10742 5.77358 8.10742 8.2706V11.9737C8.10742 14.2046 9.72401 16.0581 11.8495 16.4267V14.4645L9.94365 12.5586C9.65076 12.2657 9.65076 11.7908 9.94365 11.4979C10.2365 11.2051 10.7114 11.2051 11.0043 11.4979L11.8495 12.3431V9.96356C11.8495 9.54934 12.1853 9.21356 12.5995 9.21356C13.0137 9.21356 13.3495 9.54934 13.3495 9.96356V11.0369L14.1947 10.1917C14.4876 9.89881 14.9624 9.89881 15.2553 10.1917C15.5482 10.4846 15.5482 10.9595 15.2553 11.2524L13.3495 13.1582V16.4379Z" fill="black"/>
</svg>