<svg width="25" height="24" viewBox="0 0 25 24" fill="none" xmlns="http://www.w3.org/2000/svg">
<path fill-rule="evenodd" clip-rule="evenodd" d="M12.6348 2.25C12.8807 2.25002 13.1109 2.37052 13.251 2.57253L16.9348 7.88319C17.0939 8.1125 17.1125 8.41117 16.983 8.65843C16.8536 8.9057 16.5976 9.06066 16.3185 9.06066H15.4903L17.5838 12.0788C17.7429 12.3081 17.7614 12.6068 17.632 12.854C17.5026 13.1013 17.2466 13.2563 16.9675 13.2563H15.9283L18.5947 17.0994C18.7538 17.3287 18.7724 17.6274 18.643 17.8747C18.5136 18.122 18.2576 18.277 17.9785 18.277H13.3859V21C13.3859 21.4142 13.0501 21.75 12.6359 21.75C12.2217 21.75 11.8859 21.4142 11.8859 21V18.277H7.29004C7.01095 18.277 6.75494 18.122 6.62553 17.8747C6.49613 17.6274 6.51473 17.3287 6.67383 17.0994L9.34022 13.2563H8.30099C8.02189 13.2563 7.76588 13.1013 7.63647 12.854C7.50707 12.6067 7.52569 12.308 7.6848 12.0787L9.77895 9.06066H8.94999C8.67089 9.06066 8.41487 8.90568 8.28547 8.65839C8.15607 8.41111 8.17468 8.11242 8.33379 7.88311L12.0186 2.57245C12.1587 2.37046 12.389 2.24998 12.6348 2.25ZM10.3832 7.56066H11.2122C11.4913 7.56066 11.7473 7.71564 11.8767 7.96293C12.0061 8.21022 11.9875 8.50891 11.8284 8.73822L9.73427 11.7563H10.7734C11.0525 11.7563 11.3085 11.9112 11.4379 12.1585C11.5673 12.4058 11.5487 12.7045 11.3896 12.9338L8.72322 16.777H16.5453L13.8789 12.9338C13.7198 12.7045 13.7012 12.4058 13.8306 12.1585C13.96 11.9112 14.216 11.7563 14.4951 11.7563H15.5345L13.441 8.73812C13.282 8.50881 13.2634 8.21014 13.3928 7.96288C13.5222 7.71562 13.7782 7.56066 14.0573 7.56066H14.8855L12.6347 4.31576L10.3832 7.56066Z" fill="black"/>
</svg>