<svg width="25" height="25" viewBox="0 0 25 25" fill="none" xmlns="http://www.w3.org/2000/svg">
<path d="M21.0541 13.9976L21.4468 12.0715C21.4778 11.9195 21.3936 11.7675 21.2482 11.7132C18.2445 10.5912 15.0789 10.0667 11.9238 10.1395" stroke="black" stroke-width="1.5" stroke-linecap="round" stroke-linejoin="round"/>
<path d="M5.135 19.8262L3.55424 12.0719C3.52324 11.9199 3.60748 11.7679 3.75285 11.7136C5.54656 11.0437 7.398 10.5867 9.27045 10.3428" stroke="black" stroke-width="1.5" stroke-linecap="round" stroke-linejoin="round"/>
<path d="M19.876 19.7764L20.5853 16.2979" stroke="black" stroke-width="1.5" stroke-linecap="round" stroke-linejoin="round"/>
<path d="M7.34105 10.6301L7.34082 7.05628C7.34081 6.90137 7.44232 6.76475 7.59065 6.72005C10.7896 5.75608 14.2017 5.75608 17.4006 6.72005C17.5489 6.76475 17.6505 6.90136 17.6505 7.05628L17.6507 10.6301" stroke="black" stroke-width="1.5" stroke-linecap="round" stroke-linejoin="round"/>
<path d="M12.501 19.7959V13.2686" stroke="black" stroke-width="1.5" stroke-linecap="round" stroke-linejoin="round"/>
<path d="M10.0069 5.9713L10.0068 4.0055C10.0068 3.89366 10.08 3.79503 10.1871 3.76276C10.524 3.66125 10.8659 3.58245 11.2106 3.52637" stroke="black" stroke-width="1.5" stroke-linecap="round" stroke-linejoin="round"/>
<path d="M14.9837 5.9719L14.9836 4.0061C14.9835 3.89426 14.9103 3.79563 14.8032 3.76336C14.4128 3.64572 14.0156 3.55858 13.6152 3.50195" stroke="black" stroke-width="1.5" stroke-linecap="round" stroke-linejoin="round"/>
<path d="M19.879 19.7854V19.7754M3.74902 20.5404C4.24302 20.1824 4.67203 19.7754 5.64603 19.7754C7.38603 19.7754 7.38802 21.0734 9.12802 21.0734C10.867 21.0734 10.869 19.7754 12.609 19.7754C14.35 19.7754 14.35 21.0734 16.091 21.0734C17.833 21.0734 17.833 19.7754 19.575 19.7754C20.402 19.7754 20.835 20.0674 21.25 20.3734" stroke="black" stroke-width="1.5" stroke-linecap="round" stroke-linejoin="round"/>
</svg>