<svg width="24" height="24" viewBox="0 0 24 24" fill="none" xmlns="http://www.w3.org/2000/svg">
<path d="M14.8677 9.66455H21.0953" stroke="black" stroke-width="1.5" stroke-linecap="round" stroke-linejoin="round"/>
<path d="M17.4455 3V5.96174" stroke="black" stroke-width="1.5" stroke-linecap="round" stroke-linejoin="round"/>
<path d="M20.8916 4.42139H17.2713C15.6536 4.42139 14.4079 4.97261 13.6847 6.02045M20.8839 20.9999H17.2713C14.6277 20.9999 12.9775 19.4938 12.9775 16.7451V14.1793" stroke="black" stroke-width="1.5" stroke-linecap="round" stroke-linejoin="round"/>
<path d="M17.0674 13.3711H17.0774" stroke="black" stroke-width="1.5" stroke-linecap="round" stroke-linejoin="round"/>
<path d="M17.0674 16.8477H17.0774" stroke="black" stroke-width="1.5" stroke-linecap="round" stroke-linejoin="round"/>
<path d="M21.0869 13.3711H21.0969" stroke="black" stroke-width="1.5" stroke-linecap="round" stroke-linejoin="round"/>
<path d="M21.0869 16.8477H21.0969" stroke="black" stroke-width="1.5" stroke-linecap="round" stroke-linejoin="round"/>
<path d="M8.88371 15.6453C12.1871 15.6453 14.8646 12.9672 14.8646 9.66447C14.8646 6.36109 12.1871 3.68359 8.88371 3.68359C5.58032 3.68359 2.90283 6.36109 2.90283 9.66447C2.90283 12.9672 5.58032 15.6453 8.88371 15.6453Z" stroke="black" stroke-width="1.5" stroke-linecap="round" stroke-linejoin="round"/>
<path d="M11.0845 10.9806L8.88379 9.66542V6.82471" stroke="black" stroke-width="1.5" stroke-linecap="round" stroke-linejoin="round"/>
</svg>
