<svg width="24" height="24" viewBox="0 0 24 24" fill="none" xmlns="http://www.w3.org/2000/svg">
<path d="M15.6403 3V5.96158" stroke="black" stroke-width="1.5" stroke-linecap="round" stroke-linejoin="round"/>
<path d="M8.36781 3V5.96158" stroke="black" stroke-width="1.5" stroke-linecap="round" stroke-linejoin="round"/>
<path fill-rule="evenodd" clip-rule="evenodd" d="M15.8466 4.42139H8.22662C5.58318 4.42139 3.93311 5.89439 3.93311 8.60009V16.7444C3.93311 19.4929 5.58318 21 8.22662 21H15.8388C18.49 21 20.1323 19.5192 20.1323 16.8125V8.60009C20.1401 5.89439 18.4978 4.42139 15.8466 4.42139Z" stroke="black" stroke-width="1.5" stroke-linecap="round" stroke-linejoin="round"/>
<path d="M15.6662 16.8106V14.7175C15.6662 14.1652 15.2185 13.7175 14.6662 13.7175H9.33447C8.78219 13.7175 8.33447 14.1652 8.33447 14.7175V16.8106" stroke="black" stroke-width="1.5" stroke-linecap="round" stroke-linejoin="round"/>
<path d="M16.5102 16.8105H7.49023" stroke="black" stroke-width="1.5" stroke-linecap="round" stroke-linejoin="round"/>
<path d="M14.4422 13.7174V12.0647C14.4422 11.5124 13.9945 11.0647 13.4422 11.0647H10.5581C10.0058 11.0647 9.55811 11.5124 9.55811 12.0647V13.7174" stroke="black" stroke-width="1.5" stroke-linecap="round" stroke-linejoin="round"/>
<path d="M12 11.0647L12 9.1438" stroke="black" stroke-width="1.5" stroke-linecap="round" stroke-linejoin="round"/>
</svg>
