<svg width="24" height="24" viewBox="0 0 24 24" fill="none" xmlns="http://www.w3.org/2000/svg">
<path d="M15.6384 3V5.96186" stroke="black" stroke-width="1.5" stroke-linecap="round" stroke-linejoin="round"/>
<path d="M8.36737 3V5.96186" stroke="black" stroke-width="1.5" stroke-linecap="round" stroke-linejoin="round"/>
<path d="M20.1001 11.6238V8.59865C20.1079 5.89173 18.4654 4.41956 15.814 4.41956H8.19333C5.54965 4.41956 3.89941 5.89173 3.89941 8.59865V16.7438C3.89941 19.4925 5.54965 20.9988 8.19333 20.9988H10.4118" stroke="black" stroke-width="1.5" stroke-linecap="round" stroke-linejoin="round"/>
<path d="M16.2459 9.90045H7.74951" stroke="black" stroke-width="1.5" stroke-linecap="round" stroke-linejoin="round"/>
<path fill-rule="evenodd" clip-rule="evenodd" d="M16.0365 14.6533C17.605 14.6533 18.8767 15.9251 18.8767 17.4936C18.8767 19.0621 17.605 20.3338 16.0365 20.3338C14.468 20.3338 13.1963 19.0621 13.1963 17.4936C13.1963 15.9251 14.468 14.6533 16.0365 14.6533Z" stroke="black" stroke-width="1.5" stroke-linecap="round" stroke-linejoin="round"/>
<path d="M17.9702 19.5736L19.3996 21" stroke="black" stroke-width="1.5" stroke-linecap="round" stroke-linejoin="round"/>
</svg>
