<svg width="24" height="24" viewBox="0 0 24 24" fill="none" xmlns="http://www.w3.org/2000/svg">
<path d="M3.98389 9.66447H20.0253" stroke="black" stroke-width="1.5" stroke-linecap="round" stroke-linejoin="round"/>
<path d="M15.6408 3V5.96174" stroke="black" stroke-width="1.5" stroke-linecap="round" stroke-linejoin="round"/>
<path d="M8.36979 3V5.96174" stroke="black" stroke-width="1.5" stroke-linecap="round" stroke-linejoin="round"/>
<path d="M10.6584 21.0001H8.19414C5.55056 21.0001 3.90039 19.4939 3.90039 16.7452V8.59947C3.90039 5.89362 5.55056 4.42151 8.19414 4.42151H15.8145C18.4658 4.42151 20.1082 5.89362 20.1004 8.59947V11.8315" stroke="black" stroke-width="1.5" stroke-linecap="round" stroke-linejoin="round"/>
<path d="M7.66602 12.9414H7.67602" stroke="black" stroke-width="1.5" stroke-linecap="round" stroke-linejoin="round"/>
<path d="M7.66602 16.418H7.67602" stroke="black" stroke-width="1.5" stroke-linecap="round" stroke-linejoin="round"/>
<path d="M11.334 12.9414H11.344" stroke="black" stroke-width="1.5" stroke-linecap="round" stroke-linejoin="round"/>
<path d="M18.991 16.0724L18.9887 16.0679C18.917 15.9433 18.8724 15.8043 18.8747 15.66L18.8831 15.1902C18.8868 14.9476 18.7742 14.7165 18.5785 14.5745C18.3686 14.4227 18.1442 14.2927 17.9071 14.1877C17.6866 14.0896 17.4296 14.1078 17.2227 14.2324L16.82 14.4733C16.6962 14.5481 16.5535 14.5798 16.4084 14.579H16.4038C16.2596 14.579 16.1176 14.5481 15.9938 14.4741L15.5903 14.2324C15.3826 14.1078 15.1266 14.0896 14.9052 14.1877C14.6688 14.2935 14.4437 14.4235 14.2345 14.5753C14.0388 14.718 13.927 14.9492 13.9307 15.191L13.9391 15.66C13.9414 15.8051 13.8968 15.9441 13.8243 16.0694L13.822 16.0739C13.7495 16.1986 13.6513 16.3058 13.5259 16.3754L13.115 16.6035C12.8982 16.7244 12.7569 16.9449 12.732 17.1911C12.7071 17.4382 12.7071 17.6874 12.7328 17.9345C12.7577 18.1806 12.899 18.4013 13.1157 18.5214L13.5251 18.7488C13.6521 18.819 13.7503 18.927 13.8228 19.0524L13.825 19.0562C13.8968 19.1816 13.9414 19.3205 13.9391 19.4648L13.9307 19.9339C13.927 20.1764 14.0395 20.4076 14.2359 20.5503C14.4452 20.7021 14.6696 20.8321 14.9067 20.9371C15.1272 21.0353 15.3841 21.0172 15.591 20.8925L15.9938 20.6508C16.1176 20.5767 16.2603 20.545 16.4046 20.5458H16.41C16.5542 20.5458 16.6962 20.5767 16.82 20.6508L17.2227 20.8925C17.4304 21.0172 17.6872 21.0353 17.9086 20.9371C18.145 20.8314 18.3701 20.7014 18.5793 20.5495C18.775 20.4068 18.8868 20.1757 18.8831 19.9339L18.8747 19.4648C18.8724 19.3198 18.917 19.1808 18.9895 19.0562L18.9918 19.0509C19.0643 18.9263 19.1625 18.819 19.2886 18.7488L19.6988 18.5214C19.9156 18.4005 20.0569 18.18 20.0818 17.9337C20.1067 17.6859 20.1067 17.4374 20.081 17.1896C20.0561 16.9434 19.9148 16.7236 19.698 16.6035L19.2886 16.3761C19.1617 16.3058 19.0635 16.1978 18.991 16.0724Z" stroke="black" stroke-width="1.5" stroke-linecap="round" stroke-linejoin="round"/>
<path d="M16.4137 17.5417V17.4869M16.4066 17.3242C16.2747 17.3242 16.1674 17.4316 16.1685 17.5635C16.1685 17.6952 16.2759 17.8026 16.4077 17.8026C16.5395 17.8026 16.6469 17.6952 16.6469 17.5635C16.6469 17.4306 16.5395 17.3242 16.4066 17.3242Z" stroke="black" stroke-width="1.5" stroke-linecap="round" stroke-linejoin="round"/>
</svg>
