<svg width="24" height="24" viewBox="0 0 24 24" fill="none" xmlns="http://www.w3.org/2000/svg">
<path d="M3.98389 9.66447H20.0253" stroke="black" stroke-width="1.5" stroke-linecap="round" stroke-linejoin="round"/>
<path d="M15.6408 3V5.96174" stroke="black" stroke-width="1.5" stroke-linecap="round" stroke-linejoin="round"/>
<path d="M8.36979 3V5.96174" stroke="black" stroke-width="1.5" stroke-linecap="round" stroke-linejoin="round"/>
<path d="M8.19414 4.42151H15.8145C18.4658 4.42151 20.1082 5.89362 20.1004 8.59947V15.9701C20.1004 16.5093 19.8827 17.0256 19.4967 17.402L16.3893 20.432C16.0158 20.7962 15.5147 21.0001 14.993 21.0001H8.19414C5.55056 21.0001 3.90039 19.4939 3.90039 16.7452V8.59947C3.90039 5.89362 5.55056 4.42151 8.19414 4.42151Z" stroke="black" stroke-width="1.5" stroke-linecap="round" stroke-linejoin="round"/>
<path d="M20.1006 15.6121H17.6125C15.8862 15.6121 14.8086 16.5734 14.8086 18.3403V21" stroke="black" stroke-width="1.5" stroke-linecap="round" stroke-linejoin="round"/>
<path d="M7.66602 12.9414H7.67602" stroke="black" stroke-width="1.5" stroke-linecap="round" stroke-linejoin="round"/>
<path d="M7.66602 16.418H7.67602" stroke="black" stroke-width="1.5" stroke-linecap="round" stroke-linejoin="round"/>
<path d="M11.334 12.9414H11.344" stroke="black" stroke-width="1.5" stroke-linecap="round" stroke-linejoin="round"/>
</svg>
