<svg width="24" height="24" viewBox="0 0 24 24" fill="none" xmlns="http://www.w3.org/2000/svg">
<path d="M3.98389 9.66447H20.0253" stroke="black" stroke-width="1.5" stroke-linecap="round" stroke-linejoin="round"/>
<path d="M15.6408 3V5.96174" stroke="black" stroke-width="1.5" stroke-linecap="round" stroke-linejoin="round"/>
<path d="M8.36979 3V5.96174" stroke="black" stroke-width="1.5" stroke-linecap="round" stroke-linejoin="round"/>
<path d="M10.3749 20.9999H8.19414C5.55056 20.9999 3.90039 19.4938 3.90039 16.7451V8.59935C3.90039 5.8935 5.55056 4.42139 8.19414 4.42139H15.8145C18.4658 4.42139 20.1082 5.8935 20.1004 8.59935V11.8314" stroke="black" stroke-width="1.5" stroke-linecap="round" stroke-linejoin="round"/>
<path d="M7.66602 12.9414H7.67602" stroke="black" stroke-width="1.5" stroke-linecap="round" stroke-linejoin="round"/>
<path d="M7.66602 16.418H7.67602" stroke="black" stroke-width="1.5" stroke-linecap="round" stroke-linejoin="round"/>
<path d="M11.334 12.9414H11.344" stroke="black" stroke-width="1.5" stroke-linecap="round" stroke-linejoin="round"/>
<path fill-rule="evenodd" clip-rule="evenodd" d="M17.6076 21H15.5945C15.3448 21 15.1427 20.7979 15.1427 20.5481V18.9616H13.5524C13.3036 18.9616 13.1006 18.7586 13.1006 18.5089V16.4911C13.1006 16.2414 13.3036 16.0393 13.5524 16.0393H15.1427V14.4518C15.1427 14.2021 15.3448 14 15.5945 14H17.6076C17.8573 14 18.0594 14.2021 18.0594 14.4518V16.0393H19.6488C19.8985 16.0393 20.1005 16.2414 20.1005 16.4911V18.5089C20.1005 18.7586 19.8985 18.9616 19.6488 18.9616H18.0594V20.5481C18.0594 20.7979 17.8573 21 17.6076 21Z" stroke="black" stroke-width="1.5" stroke-linecap="round" stroke-linejoin="round"/>
</svg>
