<svg width="24" height="24" viewBox="0 0 24 24" fill="none" xmlns="http://www.w3.org/2000/svg">
<path d="M3.98389 17.363H20.0253" stroke="black" stroke-width="1.5" stroke-linecap="round" stroke-linejoin="round"/>
<path d="M15.6354 11.2456V13.7456" stroke="black" stroke-width="1.5" stroke-linecap="round" stroke-linejoin="round"/>
<path d="M8.36437 11.2456V13.7456" stroke="black" stroke-width="1.5" stroke-linecap="round" stroke-linejoin="round"/>
<path d="M3.90039 21.0386L3.8999 16.845C3.8999 14.1391 5.55007 12.667 8.19365 12.667H15.814C18.4654 12.667 20.1077 14.1391 20.1 16.845L20.1004 21.0386" stroke="black" stroke-width="1.5" stroke-linecap="round" stroke-linejoin="round"/>
<path d="M8.35986 20.4001H8.36986" stroke="black" stroke-width="1.5" stroke-linecap="round" stroke-linejoin="round"/>
<path d="M11.9951 20.4001H12.0051" stroke="black" stroke-width="1.5" stroke-linecap="round" stroke-linejoin="round"/>
<path d="M15.6304 20.4001H15.6404" stroke="black" stroke-width="1.5" stroke-linecap="round" stroke-linejoin="round"/>
<path fill-rule="evenodd" clip-rule="evenodd" d="M15.3575 6.31958C15.3575 8.17375 13.8544 9.67688 11.9994 9.67688C10.1452 9.67688 8.64209 8.17375 8.64209 6.31958C8.64209 4.4654 10.1452 2.96143 11.9994 2.96143C13.8544 2.96143 15.3575 4.4654 15.3575 6.31958Z" stroke="black" stroke-width="1.5" stroke-linecap="round" stroke-linejoin="round"/>
<path d="M12.9899 7.07307L11.9819 6.47073V5.17529" stroke="black" stroke-width="1.5" stroke-linecap="round" stroke-linejoin="round"/>
</svg>
