<svg width="24" height="24" viewBox="0 0 24 24" fill="none" xmlns="http://www.w3.org/2000/svg">
<path d="M7.22705 8.91089L11.3967 8.91089" stroke="black" stroke-width="1.5" stroke-linecap="round" stroke-linejoin="round"/>
<path d="M14.1217 3V5.62686" stroke="black" stroke-width="1.5" stroke-linecap="round" stroke-linejoin="round"/>
<path d="M7.67198 3V5.62686" stroke="black" stroke-width="1.5" stroke-linecap="round" stroke-linejoin="round"/>
<path d="M18.0766 7.96626C18.0837 5.56632 16.627 4.26001 14.276 4.26001H7.51757C5.1728 4.26001 3.70898 5.56632 3.70898 7.96626V15.1901C3.70898 17.6274 5.1728 18.964 7.51757 18.964H9.3556" stroke="black" stroke-width="1.5" stroke-linecap="round" stroke-linejoin="round"/>
<path fill-rule="evenodd" clip-rule="evenodd" d="M18.9194 11.4106C19.6771 11.4106 20.2909 12.0245 20.2909 12.7822C20.2909 13.5399 19.6771 14.1537 18.9194 14.1537C18.1617 14.1537 17.5479 13.5399 17.5479 12.7822C17.5479 12.0245 18.1617 11.4106 18.9194 11.4106Z" stroke="black" stroke-width="1.5" stroke-linecap="round" stroke-linejoin="round"/>
<path fill-rule="evenodd" clip-rule="evenodd" d="M13.4331 14.6108C14.1907 14.6108 14.8046 15.2247 14.8046 15.9824C14.8046 16.7401 14.1907 17.3539 13.4331 17.3539C12.6754 17.3539 12.0615 16.7401 12.0615 15.9824C12.0615 15.2247 12.6754 14.6108 13.4331 14.6108Z" stroke="black" stroke-width="1.5" stroke-linecap="round" stroke-linejoin="round"/>
<path fill-rule="evenodd" clip-rule="evenodd" d="M18.9194 17.8113C19.6771 17.8113 20.2909 18.4251 20.2909 19.1828C20.2909 19.94 19.6771 20.5543 18.9194 20.5543C18.1617 20.5543 17.5479 19.94 17.5479 19.1828C17.5479 18.4251 18.1617 17.8113 18.9194 17.8113Z" stroke="black" stroke-width="1.5" stroke-linecap="round" stroke-linejoin="round"/>
<path d="M14.6162 16.6725L17.7389 18.4923M17.7339 13.4724L14.6157 15.2918" stroke="black" stroke-width="1.5" stroke-linecap="round" stroke-linejoin="round"/>
</svg>
