<svg width="24" height="24" viewBox="0 0 24 24" fill="none" xmlns="http://www.w3.org/2000/svg">
<path d="M20.0171 9.66447H3.97563" stroke="black" stroke-width="1.5" stroke-linecap="round" stroke-linejoin="round"/>
<path d="M8.36019 3V5.96174" stroke="black" stroke-width="1.5" stroke-linecap="round" stroke-linejoin="round"/>
<path d="M15.6312 3V5.96174" stroke="black" stroke-width="1.5" stroke-linecap="round" stroke-linejoin="round"/>
<path d="M13.626 21.0001H15.8068C18.4504 21.0001 20.1006 19.4939 20.1006 16.7452V8.59947C20.1006 5.89362 18.4504 4.42151 15.8068 4.42151H8.18649C5.53513 4.42151 3.89275 5.89362 3.90053 8.59947V11.8315" stroke="black" stroke-width="1.5" stroke-linecap="round" stroke-linejoin="round"/>
<path d="M16.335 12.9414H16.325" stroke="black" stroke-width="1.5" stroke-linecap="round" stroke-linejoin="round"/>
<path d="M16.335 16.418H16.325" stroke="black" stroke-width="1.5" stroke-linecap="round" stroke-linejoin="round"/>
<path d="M5.36701 19.5329C6.59355 20.7594 8.18807 21.1535 8.92846 20.4131C9.45131 19.8903 9.40839 18.9415 8.90608 17.9971M5.36701 19.5329C4.14047 18.3063 3.74636 16.7118 4.48675 15.9714C5.0096 15.4486 5.9584 15.4915 6.90276 15.9938M5.36701 19.5329L3.90039 21M10.9634 15.8923L8.89588 17.9599C8.56987 18.2859 7.86776 18.1124 7.32767 17.5723C6.78759 17.0322 6.61406 16.3301 6.94007 16.0041L9.00763 13.9365M12.0804 15.6886C11.6022 16.1667 10.5724 15.9122 9.78031 15.1201C8.98819 14.328 8.73367 13.2982 9.21182 12.82C9.68998 12.3419 10.7197 12.5964 11.5119 13.3885C12.304 14.1806 12.5585 15.2104 12.0804 15.6886Z" stroke="black" stroke-width="1.5" stroke-linecap="round" stroke-linejoin="round"/>
</svg>
