<svg width="24" height="24" viewBox="0 0 24 24" fill="none" xmlns="http://www.w3.org/2000/svg">
<path d="M2.94385 7.91261V18.0699C2.94385 20.153 4.21426 21 6.24945 21H16.5916C18.6328 21 19.8972 20.153 19.8912 18.0699V14.8745" stroke="black" stroke-width="1.5" stroke-linecap="round" stroke-linejoin="round"/>
<path d="M6.30516 5.16968C3.8964 5.16968 2.65376 6.19498 3.00141 8.78667C3.00141 8.78667 3.53884 13.4875 4.20181 15.835C4.58783 17.2019 5.72904 17.9329 7.36353 17.9329H16.0974C16.6728 17.9329 17.2203 17.6851 17.6 17.2528L20.2001 14.2927C20.5925 13.8459 20.7658 13.2477 20.6729 12.6604L19.8506 7.46039C19.5205 5.83988 18.3538 5.16968 16.6413 5.16968H6.30516Z" stroke="black" stroke-width="1.5" stroke-linecap="round" stroke-linejoin="round"/>
<path d="M20.6143 12.8904H18.2917C16.6802 12.8904 15.6743 13.7901 15.6743 15.4438V17.933" stroke="black" stroke-width="1.5" stroke-linecap="round" stroke-linejoin="round"/>
<path d="M7.47296 7.1316C7.67486 7.37516 7.80779 7.3375 8.07225 7.3375C8.76193 7.3375 9.32104 6.36654 9.32104 5.1688C9.32104 3.97106 8.76193 3.0001 8.07225 3.0001C7.7042 3.0001 7.4888 3.04317 7.26025 3.48308" stroke="black" stroke-width="1.5" stroke-linecap="round" stroke-linejoin="round"/>
<path d="M13.7264 7.1316C13.9283 7.37516 14.0612 7.3375 14.3257 7.3375C15.0154 7.3375 15.5745 6.36654 15.5745 5.1688C15.5745 3.97106 15.0154 3.0001 14.3257 3.0001C13.9576 3.0001 13.7422 3.04317 13.5137 3.48308" stroke="black" stroke-width="1.5" stroke-linecap="round" stroke-linejoin="round"/>
<path d="M7.16992 10.4905H7.17896" stroke="black" stroke-width="1.36873" stroke-linecap="round" stroke-linejoin="round"/>
<path d="M10.5781 10.4905H10.5872" stroke="black" stroke-width="1.36873" stroke-linecap="round" stroke-linejoin="round"/>
<path d="M13.9863 10.4905H13.9954" stroke="black" stroke-width="1.36873" stroke-linecap="round" stroke-linejoin="round"/>
<path d="M7.71875 13.5095H7.72779" stroke="black" stroke-width="1.36873" stroke-linecap="round" stroke-linejoin="round"/>
<path d="M11.127 13.5095H11.136" stroke="black" stroke-width="1.36873" stroke-linecap="round" stroke-linejoin="round"/>
</svg>
