<svg width="24" height="24" viewBox="0 0 24 24" fill="none" xmlns="http://www.w3.org/2000/svg">
<path d="M19.7615 9.79952L19.3703 7.25562C19.207 6.19361 18.3293 5.4126 17.2992 5.4126H7.17916C5.88798 5.4126 4.90335 6.61902 5.10808 7.9502L6.67301 18.1258C6.83634 19.1878 7.714 19.9688 8.74409 19.9688H10.255" stroke="black" stroke-width="1.5" stroke-linecap="round" stroke-linejoin="round"/>
<path d="M10.163 5.4126H6.62544C5.59535 5.4126 4.71769 6.19361 4.55436 7.25562L2.98942 17.4312C2.7847 18.7624 3.76933 19.9688 5.0605 19.9688H8.32468" stroke="black" stroke-width="1.5" stroke-linecap="round" stroke-linejoin="round"/>
<path d="M8.84404 7.17017C9.0348 7.4003 9.16041 7.36471 9.41028 7.36471C10.0619 7.36471 10.5902 6.4473 10.5902 5.31562C10.5902 4.18394 10.0619 3.26653 9.41028 3.26653C9.06253 3.26653 8.85901 3.30723 8.64307 3.72287" stroke="black" stroke-width="1.5" stroke-linecap="round" stroke-linejoin="round"/>
<path d="M14.7527 7.17017C14.9435 7.4003 15.0691 7.36471 15.319 7.36471C15.9706 7.36471 16.4989 6.4473 16.4989 5.31562C16.4989 4.18394 15.9706 3.26653 15.319 3.26653C14.9712 3.26653 14.7677 3.30723 14.5518 3.72287" stroke="black" stroke-width="1.5" stroke-linecap="round" stroke-linejoin="round"/>
<path d="M14.8154 17.6851L18.0255 14.4751" stroke="black" stroke-width="1.5" stroke-linecap="round" stroke-linejoin="round"/>
<path d="M17.9466 17.6344V17.666M18.0744 17.6412C18.0744 17.7122 18.0168 17.7697 17.9459 17.7697C17.8748 17.7697 17.8174 17.7122 17.8174 17.6412C17.8174 17.5702 17.8748 17.5127 17.9459 17.5127C18.0168 17.5127 18.0744 17.5702 18.0744 17.6412Z" stroke="black" stroke-width="1.5" stroke-linecap="round" stroke-linejoin="round"/>
<path d="M14.8231 14.5114V14.5429M14.9509 14.5182C14.9509 14.5891 14.8933 14.6467 14.8223 14.6467C14.7514 14.6467 14.6938 14.5891 14.6938 14.5182C14.6938 14.4472 14.7514 14.3896 14.8223 14.3896C14.8933 14.3896 14.9509 14.4472 14.9509 14.5182Z" stroke="black" stroke-width="1.5" stroke-linecap="round" stroke-linejoin="round"/>
<circle cx="16.3839" cy="16.0797" r="4.65387" stroke="black" stroke-width="1.5" stroke-linecap="round" stroke-linejoin="round"/>
</svg>
