<svg width="24" height="24" viewBox="0 0 24 24" fill="none" xmlns="http://www.w3.org/2000/svg">
<path d="M5.14567 8.28468C4.94095 6.9535 5.92558 5.74707 7.21675 5.74707H17.3368C18.3669 5.74707 19.2446 6.52808 19.4079 7.59009L20.9728 17.7657C21.1776 19.0969 20.1929 20.3033 18.9017 20.3033H8.78169C7.7516 20.3033 6.87394 19.5223 6.71061 18.4603L5.14567 8.28468Z" stroke="black" stroke-width="1.5" stroke-linecap="round" stroke-linejoin="round"/>
<path d="M10.2006 5.74707H6.66304C5.63295 5.74707 4.75529 6.52808 4.59196 7.59009L3.02702 17.7657C2.82229 19.0969 3.80693 20.3033 5.0981 20.3033H8.36228" stroke="black" stroke-width="1.5" stroke-linecap="round" stroke-linejoin="round"/>
<path d="M8.88164 7.5044C9.0724 7.73453 9.198 7.69894 9.44787 7.69894C10.0995 7.69894 10.6278 6.78153 10.6278 5.64985C10.6278 4.51817 10.0995 3.60076 9.44787 3.60076C9.10013 3.60076 8.89661 3.64146 8.68066 4.0571" stroke="black" stroke-width="1.5" stroke-linecap="round" stroke-linejoin="round"/>
<path d="M14.7903 7.5044C14.9811 7.73453 15.1067 7.69894 15.3566 7.69894C16.0082 7.69894 16.5365 6.78153 16.5365 5.64985C16.5365 4.51817 16.0082 3.60076 15.3566 3.60076C15.0088 3.60076 14.8053 3.64146 14.5894 4.0571" stroke="black" stroke-width="1.5" stroke-linecap="round" stroke-linejoin="round"/>
<path d="M18.2622 15.9812L18.2722 15.9912" stroke="black" stroke-width="1.5" stroke-linecap="round" stroke-linejoin="round"/>
<path d="M10.1904 18.002L10.2004 18.012" stroke="black" stroke-width="1.5" stroke-linecap="round" stroke-linejoin="round"/>
<path d="M16.5366 10.7078L17.2305 11.4015" stroke="black" stroke-width="1.5" stroke-linecap="round" stroke-linejoin="round"/>
<path fill-rule="evenodd" clip-rule="evenodd" d="M10.8959 12.4472C10.027 13.6533 10.4028 14.7009 10.9592 15.3237C11.5313 15.9645 12.4065 16.2885 13.2489 16.3383C14.5383 16.4142 15.6451 16.1177 15.8717 16.0315C15.8817 15.7898 15.8123 14.6464 15.3315 13.447C15.0178 12.6641 14.4328 11.936 13.6442 11.5965C12.8772 11.2659 11.7648 11.241 10.8959 12.4472Z" stroke="black" stroke-width="1.5" stroke-linecap="round" stroke-linejoin="round"/>
<path d="M12.1709 13.3621C12.1709 13.3621 11.2231 12.0594 9.65442 11.5607" stroke="black" stroke-width="1.5" stroke-linecap="round" stroke-linejoin="round"/>
</svg>
