<svg width="24" height="24" viewBox="0 0 24 24" fill="none" xmlns="http://www.w3.org/2000/svg">
<path d="M4.59079 13.0507L4.59955 6.92413C4.59955 4.50135 5.91797 3 8.3427 3H15.6422C18.0601 3 19.4087 4.50135 19.4087 6.92413L19.4184 19.1801C19.4194 20.0655 18.495 20.6484 17.6962 20.266L16.9363 19.9021C16.4829 19.6851 15.9584 19.6695 15.4923 19.8602L13.3498 20.735C12.4848 21.0882 11.5147 21.0882 10.6497 20.736L8.50325 19.8602C8.03718 19.6695 7.51273 19.6851 7.05931 19.9031L6.30523 20.264C5.50542 20.6474 4.58106 20.0636 4.58203 19.1772L4.58641 16.1139" stroke="black" stroke-width="1.5" stroke-linecap="round" stroke-linejoin="round"/>
<path d="M9.57617 14.4256L14.4237 9.57812" stroke="black" stroke-width="1.5" stroke-linecap="round" stroke-linejoin="round"/>
<path d="M14.2761 14.2301V14.2756M14.4603 14.2399C14.4603 14.3422 14.3773 14.4251 14.275 14.4251C14.1727 14.4251 14.0898 14.3422 14.0898 14.2399C14.0898 14.1376 14.1727 14.0547 14.275 14.0547C14.3773 14.0547 14.4603 14.1376 14.4603 14.2399Z" stroke="black" stroke-width="1.5" stroke-linecap="round" stroke-linejoin="round"/>
<path d="M9.77615 9.72819V9.77363M9.9603 9.73795C9.9603 9.84025 9.87731 9.92317 9.77502 9.92317C9.67272 9.92317 9.58984 9.84025 9.58984 9.73795C9.58984 9.63566 9.67272 9.55273 9.77502 9.55273C9.87731 9.55273 9.9603 9.63566 9.9603 9.73795Z" stroke="black" stroke-width="1.5" stroke-linecap="round" stroke-linejoin="round"/>
</svg>