<svg width="24" height="24" viewBox="0 0 24 24" fill="none" xmlns="http://www.w3.org/2000/svg">
<path d="M14.9117 8.48633C14.9117 10.3584 13.3938 11.8753 11.5227 11.8753C9.65068 11.8753 8.13281 10.3584 8.13281 8.48633" stroke="black" stroke-width="1.5" stroke-linecap="round" stroke-linejoin="round"/>
<path d="M17.2979 21.0236C15.2527 21.0236 13.5957 19.3666 13.5957 17.3224C13.5957 15.2781 15.2527 13.6211 17.2979 13.6211C19.3422 13.6211 20.9992 15.2781 20.9992 17.3224C20.9992 17.976 20.8298 18.5901 20.5325 19.123" stroke="black" stroke-width="1.5" stroke-linecap="round" stroke-linejoin="round"/>
<path d="M16.332 17.3206H18.2683" stroke="black" stroke-width="1.5" stroke-linecap="round" stroke-linejoin="round"/>
<path d="M10.9119 20.0351H7.52999C4.73669 20.0351 3 18.063 3 15.2726V11.5078" stroke="black" stroke-width="1.5" stroke-linecap="round" stroke-linejoin="round"/>
<path d="M20.0536 10.6667V7.74592C20.0536 4.95554 18.315 2.98438 15.5217 2.98438H7.52999C4.74545 2.98438 3 4.95554 3 7.74592" stroke="black" stroke-width="1.5" stroke-linecap="round" stroke-linejoin="round"/>
</svg>