<svg width="24" height="24" viewBox="0 0 24 24" fill="none" xmlns="http://www.w3.org/2000/svg">
<path d="M8.88669 20.3448V20.463M9.36546 20.3702C9.36546 20.6361 9.1497 20.8517 8.88375 20.8517C8.61781 20.8517 8.40234 20.6361 8.40234 20.3702C8.40234 20.1043 8.61781 19.8887 8.88375 19.8887C9.1497 19.8887 9.36546 20.1043 9.36546 20.3702Z" stroke="black" stroke-width="1.5" stroke-linecap="round" stroke-linejoin="round"/>
<path d="M18.0976 20.3448V20.463M18.5764 20.3702C18.5764 20.6361 18.3606 20.8517 18.0947 20.8517C17.8288 20.8517 17.6133 20.6361 17.6133 20.3702C17.6133 20.1043 17.8288 19.8887 18.0947 19.8887C18.3606 19.8887 18.5764 20.1043 18.5764 20.3702Z" stroke="black" stroke-width="1.5" stroke-linecap="round" stroke-linejoin="round"/>
<path d="M2.33081 2.8739H4.32737L6.98069 14.106C7.23755 15.1918 8.25432 15.9235 9.36546 15.8204" stroke="black" stroke-width="1.5" stroke-linecap="round" stroke-linejoin="round"/>
<path d="M16.7285 6.34882L20.2409 6.32036C20.9911 6.31355 21.5321 7.03842 21.3122 7.75551L19.4801 13.7598C19.1862 14.725 18.3378 15.4158 17.3337 15.5092L13.865 15.8308" stroke="black" stroke-width="1.5" stroke-linecap="round" stroke-linejoin="round"/>
<path d="M12.854 6.32031L5.8291 6.37723" stroke="black" stroke-width="1.5" stroke-linecap="round" stroke-linejoin="round"/>
</svg>