<svg width="24" height="24" viewBox="0 0 24 24" fill="none" xmlns="http://www.w3.org/2000/svg">
<path d="M16.0189 20.9985C18.8306 20.9985 20.5808 19.0148 20.5808 16.206V11.6636C20.5808 8.8558 18.8306 6.87109 16.0199 6.87109H7.97793C5.17502 6.87109 3.41797 8.8558 3.41797 11.6636V16.206C3.41797 19.0148 5.16626 20.9985 7.97793 20.9985H11.9984" stroke="black" stroke-width="1.5" stroke-linecap="round" stroke-linejoin="round"/>
<path d="M8.88477 11.1445C8.95871 11.8684 9.29338 12.5173 9.77497 13.0096C10.3509 13.5748 11.139 13.928 12.0019 13.928C13.616 13.928 14.943 12.7119 15.1191 11.1445" stroke="black" stroke-width="1.5" stroke-linecap="round" stroke-linejoin="round"/>
<path d="M15.8702 6.87115C15.8702 4.7337 14.1375 3 11.9991 3C9.86163 3 8.12891 4.7337 8.12891 6.87115" stroke="black" stroke-width="1.5" stroke-linecap="round" stroke-linejoin="round"/>
</svg>