<svg width="24" height="25" viewBox="0 0 24 25" fill="none" xmlns="http://www.w3.org/2000/svg">
<path fill-rule="evenodd" clip-rule="evenodd" d="M20.7853 13.1801C17.7483 14.8751 10.1483 17.3191 3.13232 14.4471C2.74932 14.2891 2.31032 14.4731 2.15332 14.8571C1.99732 15.2411 2.18032 15.6781 2.56332 15.8351C3.08132 16.0471 3.60232 16.2261 4.12432 16.3861L3.59332 19.7941C3.56432 19.9771 3.63932 20.1611 3.78732 20.2721C3.93532 20.3811 4.13132 20.4031 4.30132 20.3241L5.90032 19.5681L7.11932 20.8041C7.21532 20.9021 7.34432 20.9531 7.47532 20.9531C7.52532 20.9531 7.57532 20.9471 7.62332 20.9311C7.80232 20.8761 7.93432 20.7261 7.96832 20.5421L8.56832 17.2051C9.09432 17.2421 9.61832 17.2641 10.1343 17.2641C10.1553 17.2641 10.1763 17.2621 10.1973 17.2621L10.5753 20.6441C10.5963 20.8271 10.7173 20.9861 10.8893 21.0531C10.9483 21.0761 11.0113 21.0881 11.0723 21.0881C11.1893 21.0881 11.3053 21.0471 11.3973 20.9681L12.7413 19.8201L14.2433 20.6941C14.4013 20.7851 14.6043 20.7831 14.7623 20.6831C14.9203 20.5831 15.0093 20.4041 14.9923 20.2171L14.6933 16.8161C15.1003 16.7391 15.4963 16.6571 15.8843 16.5651L16.9833 19.7301C17.0453 19.9051 17.1973 20.0321 17.3803 20.0601C17.4053 20.0641 17.4313 20.0661 17.4563 20.0661C17.6123 20.0661 17.7623 19.9921 17.8563 19.8651L18.9143 18.4461L20.5713 18.9661C20.7483 19.0201 20.9443 18.9731 21.0753 18.8411C21.2073 18.7081 21.2543 18.5141 21.1963 18.3351L20.1723 15.1461C20.6733 14.9231 21.1383 14.7011 21.5153 14.4911C21.8783 14.2881 22.0073 13.8311 21.8063 13.4701C21.6033 13.1091 21.1473 12.9781 20.7853 13.1801Z" fill="black"/>
<path fill-rule="evenodd" clip-rule="evenodd" d="M2.48349 5.54736C2.86149 5.75836 3.32649 5.97936 3.82749 6.20136L2.80249 9.39036C2.74549 9.56836 2.79249 9.76336 2.92349 9.89636C3.05349 10.0274 3.24949 10.0724 3.42749 10.0214L5.08549 9.50136L6.14349 10.9194C6.23849 11.0474 6.38749 11.1204 6.54449 11.1204C6.56949 11.1204 6.59449 11.1184 6.62049 11.1144C6.80249 11.0864 6.95549 10.9594 7.01649 10.7844L8.11649 7.61936C8.50349 7.71136 8.89949 7.79336 9.30649 7.87036L9.00749 11.2724C8.99149 11.4584 9.08049 11.6384 9.23849 11.7374C9.39449 11.8374 9.59649 11.8414 9.75649 11.7484L11.2575 10.8754L12.6025 12.0254C12.6955 12.1044 12.8105 12.1454 12.9275 12.1454C12.9895 12.1454 13.0515 12.1334 13.1115 12.1094C13.2835 12.0424 13.4045 11.8844 13.4245 11.7004L13.8025 8.31536C13.8245 8.31536 13.8445 8.31836 13.8665 8.31836C14.3815 8.31836 14.9045 8.29636 15.4305 8.25836L16.0315 11.5974C16.0645 11.7804 16.1975 11.9304 16.3755 11.9854C16.4235 12.0014 16.4735 12.0084 16.5235 12.0084C16.6555 12.0084 16.7845 11.9564 16.8795 11.8594L18.0995 10.6234L19.6995 11.3794C19.8685 11.4584 20.0635 11.4384 20.2125 11.3274C20.3605 11.2164 20.4355 11.0324 20.4075 10.8504L19.8755 7.44136C20.3975 7.28036 20.9185 7.10236 21.4355 6.89036C21.8195 6.73336 22.0025 6.29436 21.8455 5.91136C21.6885 5.52836 21.2515 5.34536 20.8675 5.50136C13.8495 8.37436 6.25149 5.93136 3.21349 4.23636C2.85149 4.03436 2.39549 4.16536 2.19349 4.52636C1.99249 4.88936 2.12249 5.34536 2.48349 5.54736Z" fill="black"/>
</svg>