<svg width="24" height="25" viewBox="0 0 24 25" fill="none" xmlns="http://www.w3.org/2000/svg">
<path fill-rule="evenodd" clip-rule="evenodd" d="M18.9511 6.09888C18.8228 6.02521 18.6682 6.1213 18.6683 6.2692L18.6748 12.2157C18.6749 12.3333 18.7776 12.4231 18.8932 12.4451C19.085 12.4817 19.2616 12.591 19.376 12.7688C19.6 13.1178 19.497 13.5818 19.148 13.8048L13.469 17.4408C13.022 17.7258 12.512 17.8688 12 17.8688C11.488 17.8688 10.978 17.7258 10.531 17.4408L4.853 13.8048C4.504 13.5818 4.402 13.1178 4.625 12.7688C4.73866 12.591 4.91496 12.4823 5.10632 12.4456C5.2217 12.4235 5.324 12.3336 5.324 12.2162V6.26588C5.324 6.11806 5.1694 6.02214 5.04127 6.09586C3.48396 6.99181 2.5 8.74896 2.5 10.8448V16.8928C2.5 18.4758 3.057 19.9018 4.068 20.9098C4.972 21.8108 6.145 22.2858 7.46 22.2858H16.532C17.851 22.2858 19.025 21.8098 19.931 20.9068C20.942 19.8978 21.5 18.4728 21.5 16.8928V10.8448C21.5 8.75158 20.5132 6.99622 18.9511 6.09888Z" fill="black"/>
<path fill-rule="evenodd" clip-rule="evenodd" d="M9.29744 9.56031C9.08644 9.49631 8.94344 9.30231 8.94344 9.08131C8.94344 8.86131 9.08644 8.66731 9.29744 8.60331C10.3654 8.27831 11.1964 7.44731 11.5224 6.37931C11.5864 6.16831 11.7804 6.02431 12.0004 6.02431C12.2214 6.02431 12.4144 6.16831 12.4794 6.37931C12.8034 7.44731 13.6344 8.27831 14.7024 8.60331C14.9134 8.66731 15.0574 8.86131 15.0574 9.08131C15.0574 9.30231 14.9134 9.49631 14.7024 9.56031C13.6344 9.88531 12.8034 10.7163 12.4794 11.7843C12.4144 11.9953 12.2214 12.1393 12.0004 12.1393C11.7804 12.1393 11.5864 11.9953 11.5224 11.7843C11.1964 10.7163 10.3654 9.88531 9.29744 9.56031ZM12.6594 16.1773L17.0481 13.3684C17.1056 13.3316 17.1404 13.268 17.1403 13.1997L17.1304 4.69331C17.1244 3.73031 16.3364 2.94531 15.3744 2.94531H8.61544C7.64744 2.94531 6.85944 3.73231 6.85944 4.70131V13.1999C6.85944 13.2681 6.89418 13.3316 6.9516 13.3683L11.3394 16.1773C11.7404 16.4343 12.2594 16.4343 12.6594 16.1773Z" fill="black"/>
</svg>