<svg width="24" height="25" viewBox="0 0 24 25" fill="none" xmlns="http://www.w3.org/2000/svg">
<path fill-rule="evenodd" clip-rule="evenodd" d="M15.3974 14.2402L14.2934 15.3022C14.2444 15.3492 14.2214 15.4162 14.2324 15.4812L14.4954 16.9792C14.5574 17.3682 14.2934 17.7332 13.9084 17.7962C13.7544 17.8212 13.5984 17.7952 13.4634 17.7222L12.1004 17.0152C12.0384 16.9822 11.9634 16.9822 11.9014 17.0152L10.5364 17.7232C10.4334 17.7782 10.3204 17.8052 10.2064 17.8052C10.1354 17.8052 10.0654 17.7952 9.99639 17.7742C9.81439 17.7182 9.66739 17.5952 9.57939 17.4282C9.50539 17.2922 9.47939 17.1332 9.50539 16.9812L9.76639 15.4802C9.77839 15.4142 9.75639 15.3482 9.70939 15.3022L8.60139 14.2402C8.32339 13.9702 8.31439 13.5252 8.58239 13.2462C8.69339 13.1312 8.84039 13.0572 8.99839 13.0372L10.5234 12.8182C10.5914 12.8082 10.6504 12.7662 10.6804 12.7052L11.3654 11.3402C11.5474 10.9892 11.9794 10.8522 12.3284 11.0302C12.4594 11.0972 12.5644 11.2032 12.6334 11.3352C12.6344 11.3362 12.6354 11.3382 12.6364 11.3402L13.3184 12.7042C13.3484 12.7642 13.4094 12.8082 13.4774 12.8182L15.0044 13.0372C15.1884 13.0612 15.3544 13.1572 15.4684 13.3062C15.5834 13.4562 15.6314 13.6402 15.6074 13.8252C15.5854 13.9842 15.5104 14.1322 15.3974 14.2402ZM14.2544 7.42323V6.66723C14.2544 5.68823 13.6234 4.86023 12.7484 4.55023V3.49023C12.7484 3.07623 12.4124 2.74023 11.9984 2.74023C11.5844 2.74023 11.2484 3.07623 11.2484 3.49023V4.55223C10.3754 4.86423 9.74639 5.69023 9.74639 6.66723V7.42223C6.59539 8.38923 4.29639 11.3242 4.29639 14.7872C4.29639 19.0352 7.75239 22.4902 12.0004 22.4902C16.2474 22.4902 19.7034 19.0352 19.7034 14.7872C19.7034 11.3242 17.4054 8.38923 14.2544 7.42323Z" fill="black"/>
</svg>