<svg width="24" height="25" viewBox="0 0 24 25" fill="none" xmlns="http://www.w3.org/2000/svg">
<path fill-rule="evenodd" clip-rule="evenodd" d="M11.1126 5.51945C11.2011 5.58278 11.2387 5.70067 11.1885 5.79723C10.4181 7.27887 9.63252 8.60934 8.82657 9.8288C8.7264 9.98036 8.8622 10.1783 9.03929 10.1378L14.2949 8.9356C14.4286 8.90502 14.4926 8.75204 14.421 8.63505C13.8774 7.74647 13.3416 6.81233 12.8147 5.7995C12.7645 5.70285 12.8023 5.58484 12.891 5.52166C13.2816 5.2436 13.5396 4.79218 13.5396 4.27723C13.5396 3.43023 12.8496 2.74023 12.0036 2.74023C11.1566 2.74023 10.4676 3.43023 10.4676 4.27723C10.4676 4.7903 10.7239 5.2414 11.1126 5.51945Z" fill="black"/>
<path fill-rule="evenodd" clip-rule="evenodd" d="M6.87541 13.8018H8.07872C8.23002 13.8018 8.32622 13.9632 8.25208 14.0951C8.13948 14.2954 8.02399 14.4922 7.90643 14.6862C7.81733 14.8333 7.94056 15.0193 8.11035 14.9921L15.5764 13.7978C15.6124 13.7918 15.6444 13.8028 15.6794 13.8018H17.1254C17.3204 13.8018 17.4974 13.6888 17.5794 13.5108C17.6614 13.3338 17.6324 13.1258 17.5064 12.9778C16.8003 12.1494 16.1204 11.2296 15.4534 10.2461C15.4368 10.2216 15.4092 10.2191 15.3804 10.2258L7.29441 12.0758C7.29209 12.0764 7.28977 12.0768 7.28746 12.0773C7.23384 12.0877 7.18329 12.1101 7.14967 12.1532C6.93249 12.4312 6.71644 12.7169 6.49441 12.9768C6.36841 13.1258 6.33941 13.3338 6.42141 13.5108C6.50341 13.6888 6.68041 13.8018 6.87541 13.8018Z" fill="black"/>
<path fill-rule="evenodd" clip-rule="evenodd" d="M18.4232 17.814C17.6723 17.0054 16.9826 16.1003 16.3558 15.1114C16.3118 15.042 16.2349 15.005 16.154 15.0201C15.1387 15.2089 8.43109 16.4548 6.536 16.7623C6.48659 16.7703 6.44596 16.7958 6.41475 16.835C6.144 17.1744 5.86593 17.5036 5.57718 17.814C5.44218 17.96 5.40518 18.172 5.48518 18.354C5.56518 18.537 5.74418 18.654 5.94418 18.654H11.0522C11.1626 18.654 11.2522 18.7436 11.2522 18.854V21.74C11.2522 22.154 11.5882 22.49 12.0022 22.49C12.4162 22.49 12.7522 22.154 12.7522 21.74V18.854C12.7522 18.7436 12.8417 18.654 12.9522 18.654H18.0572C18.2562 18.654 18.4362 18.537 18.5152 18.354C18.5952 18.172 18.5592 17.96 18.4232 17.814Z" fill="black"/>
</svg>