<svg width="24" height="25" viewBox="0 0 24 25" fill="none" xmlns="http://www.w3.org/2000/svg">
<path fill-rule="evenodd" clip-rule="evenodd" d="M15.5049 14.9602C15.0849 14.9602 14.7549 14.6202 14.7549 14.2102C14.7549 13.0102 13.7749 12.0302 12.5749 12.0302C12.1649 12.0302 11.8249 11.7002 11.8249 11.2802C11.8249 10.8702 12.1649 10.5302 12.5749 10.5302C14.6049 10.5302 16.2549 12.1802 16.2549 14.2102C16.2549 14.6202 15.9149 14.9602 15.5049 14.9602ZM14.2549 7.42023V6.66023C14.2549 5.68023 13.6249 4.86023 12.7449 4.55023V3.49023C12.7449 3.07023 12.4149 2.74023 11.9949 2.74023C11.5849 2.74023 11.2449 3.07023 11.2449 3.49023V4.55023C10.3749 4.86023 9.74492 5.69023 9.74492 6.66023V7.42023C6.59492 8.38023 4.29492 11.3202 4.29492 14.7802C4.29492 19.0302 7.75492 22.4902 12.0049 22.4902C16.2449 22.4902 19.7049 19.0302 19.7049 14.7802C19.7049 11.3202 17.4049 8.39023 14.2549 7.42023Z" fill="black"/>
</svg>