<svg width="24" height="25" viewBox="0 0 24 25" fill="none" xmlns="http://www.w3.org/2000/svg">
<path fill-rule="evenodd" clip-rule="evenodd" d="M18.954 12.4101C18.871 12.5831 18.695 12.6931 18.503 12.6931H17.834L18.547 13.9281C18.637 14.0831 18.637 14.2731 18.547 14.4281C18.458 14.5831 18.293 14.6781 18.114 14.6781H16.64V15.9641C16.64 16.3781 16.304 16.7141 15.89 16.7141C15.475 16.7141 15.14 16.3781 15.14 15.9641V14.6781H13.53C13.351 14.6781 13.186 14.5831 13.097 14.4281C13.008 14.2731 13.008 14.0831 13.097 13.9281L13.81 12.6931H13.142C12.95 12.6931 12.774 12.5831 12.691 12.4101C12.608 12.2371 12.631 12.0321 12.75 11.8821L15.431 8.51915C15.621 8.28115 16.023 8.28115 16.213 8.51915L18.894 11.8821C19.014 12.0321 19.037 12.2371 18.954 12.4101ZM10.306 13.3651H6.054C5.64 13.3651 5.304 13.0291 5.304 12.6151C5.304 12.2011 5.64 11.8651 6.054 11.8651H10.306C10.72 11.8651 11.056 12.2011 11.056 12.6151C11.056 13.0291 10.72 13.3651 10.306 13.3651ZM10.306 16.4561H6.054C5.64 16.4561 5.304 16.1201 5.304 15.7061C5.304 15.2921 5.64 14.9561 6.054 14.9561H10.306C10.72 14.9561 11.056 15.2921 11.056 15.7061C11.056 16.1201 10.72 16.4561 10.306 16.4561ZM6.054 8.77315H8.7C9.114 8.77315 9.45 9.10915 9.45 9.52315C9.45 9.93715 9.114 10.2731 8.7 10.2731H6.054C5.64 10.2731 5.304 9.93715 5.304 9.52315C5.304 9.10915 5.64 8.77315 6.054 8.77315ZM17.385 4.45215H6.604C4 4.45215 2.25 6.37115 2.25 9.22915V16.0001C2.25 18.8581 4 20.7781 6.604 20.7781H17.385C19.996 20.7781 21.75 18.8581 21.75 16.0001V9.22915C21.75 6.37115 19.996 4.45215 17.385 4.45215Z" fill="black"/>
</svg>