<svg width="24" height="25" viewBox="0 0 24 25" fill="none" xmlns="http://www.w3.org/2000/svg">
<path d="M9.346 9.15115C9.346 9.87915 9.662 10.5431 10.195 11.0871H2.55C2.38431 11.0871 2.25 10.9528 2.25 10.7871V9.23015C2.25 6.37215 4 4.45215 6.605 4.45215H13.01C13.1757 4.45215 13.31 4.58646 13.31 4.75215V7.95915C12.735 7.49815 12.045 7.20915 11.289 7.20915C10.217 7.20915 9.346 8.08115 9.346 9.15115Z" fill="black"/>
<path d="M17.2759 9.15195C17.2759 9.98995 16.1949 10.741 14.8219 10.95C14.9219 9.69395 15.7859 8.70895 16.8329 8.70895C17.0769 8.70895 17.2759 8.90795 17.2759 9.15195Z" fill="black"/>
<path d="M14.8097 7.96015C15.3847 7.49815 16.0757 7.20915 16.8327 7.20915C17.9037 7.20915 18.7757 8.08115 18.7757 9.15115C18.7757 9.87915 18.4597 10.5431 17.9267 11.0871H21.4497C21.6154 11.0871 21.7497 10.9528 21.7497 10.7871V9.23015C21.7497 6.37215 19.9957 4.45215 17.3847 4.45215H15.1097C14.944 4.45215 14.8097 4.58646 14.8097 4.75215V7.96015Z" fill="black"/>
<path d="M17.5568 14.4861L15.8298 12.5871H21.4498C21.6155 12.5871 21.7498 12.7215 21.7498 12.8871V16.0011C21.7498 18.8581 19.9958 20.7781 17.3848 20.7781H15.1098C14.9441 20.7781 14.8098 20.6438 14.8098 20.4781V13.6951L16.4478 15.4961C16.7278 15.8031 17.2018 15.8241 17.5078 15.5451C17.8138 15.2671 17.8358 14.7931 17.5568 14.4861Z" fill="black"/>
<path d="M10.8458 9.15155C10.8458 9.98955 11.9268 10.7405 13.2998 10.9495C13.1998 9.69355 12.3358 8.70955 11.2888 8.70955C11.0448 8.70955 10.8458 8.90755 10.8458 9.15155Z" fill="black"/>
<path fill-rule="evenodd" clip-rule="evenodd" d="M11.672 15.4959L13.31 13.6959V20.4789C13.31 20.6446 13.1757 20.7789 13.01 20.7789H6.605C4 20.7789 2.25 18.8589 2.25 16.0009V12.8869C2.25 12.7213 2.38431 12.5869 2.55 12.5869H12.29L10.563 14.4859C10.284 14.7929 10.306 15.2669 10.612 15.5459C10.756 15.6769 10.937 15.7409 11.117 15.7409C11.321 15.7409 11.524 15.6579 11.672 15.4959ZM6.247 17.3249H7.962C8.376 17.3249 8.712 16.9889 8.712 16.5749C8.712 16.1609 8.376 15.8249 7.962 15.8249H6.247C5.833 15.8249 5.497 16.1609 5.497 16.5749C5.497 16.9889 5.833 17.3249 6.247 17.3249Z" fill="black"/>
</svg>