<svg width="24" height="25" viewBox="0 0 24 25" fill="none" xmlns="http://www.w3.org/2000/svg">
<path fill-rule="evenodd" clip-rule="evenodd" d="M18.994 15.4806C18.848 15.6266 18.656 15.7006 18.464 15.7006C18.272 15.7006 18.08 15.6266 17.933 15.4806C17.64 15.1876 17.636 14.7086 17.929 14.4156C18.221 14.1216 18.692 14.1166 18.984 14.4106L18.994 14.4196C19.287 14.7126 19.287 15.1876 18.994 15.4806ZM17.091 10.9776C16.677 10.9776 16.341 10.6416 16.341 10.2276V9.98064H16.096C15.682 9.98064 15.346 9.64564 15.346 9.23064C15.346 8.81664 15.682 8.48064 16.096 8.48064H16.341V8.23664C16.341 7.82264 16.677 7.48664 17.091 7.48664C17.505 7.48664 17.841 7.82264 17.841 8.23664V8.48064H18.086C18.5 8.48064 18.836 8.81664 18.836 9.23064C18.836 9.64564 18.5 9.98064 18.086 9.98064H17.841V10.2276C17.841 10.6416 17.505 10.9776 17.091 10.9776ZM7.98 9.59064C7.834 9.73664 7.642 9.81064 7.45 9.81064C7.258 9.81064 7.066 9.73664 6.92 9.59064C6.627 9.29764 6.622 8.81764 6.914 8.52464C7.209 8.23164 7.679 8.22764 7.97 8.51964L7.98 8.52964C8.273 8.82264 8.273 9.29764 7.98 9.59064ZM6.437 13.4406C6.292 13.5786 6.106 13.6476 5.92 13.6476C5.723 13.6476 5.525 13.5696 5.377 13.4146C5.092 13.1146 5.098 12.6346 5.398 12.3496C5.699 12.0646 6.169 12.0696 6.453 12.3706L6.463 12.3806C6.749 12.6806 6.738 13.1546 6.437 13.4406ZM17.385 4.45264H6.605C4 4.45264 2.25 6.37164 2.25 9.22964V16.0006C2.25 18.8576 4 20.7776 6.605 20.7776H10.95C11.1157 20.7776 11.25 20.6433 11.25 20.4776V17.7756C11.25 17.61 11.1157 17.4756 10.95 17.4756H8.379C8.081 17.4756 7.811 17.2986 7.692 17.0246C7.573 16.7516 7.627 16.4326 7.83 16.2146C8.283 15.7286 8.699 15.1796 9.074 14.5746H8.936C8.643 14.5746 8.377 14.4046 8.255 14.1386C8.132 13.8736 8.176 13.5606 8.366 13.3376C9.416 12.1066 10.386 10.5946 11.33 8.71364C11.457 8.45964 11.717 8.29964 12 8.29964C12.284 8.29964 12.544 8.45964 12.671 8.71364C13.612 10.5906 14.582 12.1036 15.635 13.3376C15.824 13.5606 15.868 13.8736 15.745 14.1396C15.622 14.4046 15.356 14.5746 15.064 14.5746H14.926C15.301 15.1786 15.717 15.7276 16.17 16.2146C16.373 16.4336 16.427 16.7516 16.308 17.0246C16.189 17.2986 15.919 17.4756 15.62 17.4756H13.05C12.8843 17.4756 12.75 17.61 12.75 17.7756V20.4776C12.75 20.6433 12.8843 20.7776 13.05 20.7776H17.385C19.996 20.7776 21.75 18.8576 21.75 16.0006V9.22964C21.75 6.37164 19.996 4.45264 17.385 4.45264Z" fill="black"/>
<path fill-rule="evenodd" clip-rule="evenodd" d="M9.94611 15.9753H14.0541C13.6601 15.4143 13.3011 14.8063 12.9821 14.1563C12.8671 13.9233 12.8811 13.6483 13.0181 13.4283C13.1331 13.2433 13.3211 13.1203 13.5321 13.0843C13.0051 12.3523 12.4961 11.5463 12.0001 10.6553C11.5031 11.5473 10.9941 12.3533 10.4671 13.0843C10.6781 13.1203 10.8661 13.2443 10.9821 13.4283C11.1181 13.6483 11.1321 13.9233 11.0181 14.1563C10.6981 14.8063 10.3401 15.4143 9.94611 15.9753Z" fill="black"/>
</svg>