<svg width="24" height="25" viewBox="0 0 24 25" fill="none" xmlns="http://www.w3.org/2000/svg">
<path fill-rule="evenodd" clip-rule="evenodd" d="M20.0009 14.7864C19.7639 11.3094 16.9699 7.51439 13.2429 6.80239C13.7759 6.42839 14.1259 5.81239 14.1259 5.11339C14.1259 3.97339 13.1999 3.04639 12.0599 3.04639C10.9199 3.04639 9.99291 3.97339 9.99291 5.11339C9.99291 5.80239 10.3349 6.41039 10.8549 6.78539C7.07991 7.45039 4.23891 11.2804 3.99991 14.7874C10.1739 15.8894 13.7799 15.8884 20.0009 14.7864Z" fill="black"/>
<path fill-rule="evenodd" clip-rule="evenodd" d="M20.7896 15.7874C20.7566 15.8004 20.7266 15.8174 20.6906 15.8244C17.2676 16.4474 14.6206 16.7594 11.9816 16.7594C9.34159 16.7594 6.70859 16.4474 3.30959 15.8244C3.27359 15.8174 3.2436 15.8004 3.2106 15.7874C2.3256 16.2354 2.0196 16.9584 2.0006 18.4974C1.9806 20.1274 2.46259 20.9164 3.77859 21.4084C5.3426 21.9944 8.0866 22.1394 12.0076 22.1844C15.9146 22.1394 18.6586 21.9944 20.2216 21.4084C21.5386 20.9164 22.0196 20.1274 21.9996 18.4974C21.9816 16.9584 21.6756 16.2344 20.7896 15.7874Z" fill="black"/>
</svg>