<svg width="24" height="25" viewBox="0 0 24 25" fill="none" xmlns="http://www.w3.org/2000/svg">
<path fill-rule="evenodd" clip-rule="evenodd" d="M5.87 11.905L2.74 11.925C2.33 11.925 2 12.265 2 12.675C2 13.085 2.34 13.425 2.75 13.425L5.94 13.405L6.3 12.725L5.87 11.905Z" fill="black"/>
<path fill-rule="evenodd" clip-rule="evenodd" d="M8.30002 17.605L6.77002 20.285C6.57002 20.645 6.69002 21.105 7.05002 21.305C7.17002 21.375 7.30002 21.405 7.43002 21.405C7.69002 21.405 7.94002 21.265 8.08002 21.025L9.61002 18.345L9.17002 17.645L8.30002 17.605Z" fill="black"/>
<path fill-rule="evenodd" clip-rule="evenodd" d="M9.64002 6.95501L8.08002 4.20501C7.87002 3.84501 7.41002 3.71501 7.05002 3.92501C6.69002 4.12501 6.57002 4.58501 6.77002 4.94501L8.39002 7.80501L9.13002 7.77501L9.64002 6.95501Z" fill="black"/>
<path fill-rule="evenodd" clip-rule="evenodd" d="M14.4 18.355L15.92 21.025C16.06 21.265 16.32 21.405 16.58 21.405C16.7 21.405 16.83 21.375 16.95 21.305C17.31 21.105 17.43 20.645 17.23 20.285L15.7 17.595L14.87 17.625L14.4 18.355Z" fill="black"/>
<path fill-rule="evenodd" clip-rule="evenodd" d="M15.61 7.78501L17.23 4.94501C17.43 4.58501 17.31 4.12501 16.95 3.92501C16.59 3.71501 16.13 3.84501 15.93 4.20501L14.35 6.98501L14.83 7.75501L15.61 7.78501Z" fill="black"/>
<path fill-rule="evenodd" clip-rule="evenodd" d="M21.25 11.8051H21.24L18.15 11.8251L17.7 12.6751L18.04 13.3251L21.25 13.3051C21.67 13.3051 22 12.9651 22 12.5551C22 12.1451 21.66 11.8051 21.25 11.8051Z" fill="black"/>
<path fill-rule="evenodd" clip-rule="evenodd" d="M14.35 6.98501L12.89 4.65504C12.7 4.34504 12.36 4.16504 12 4.16504C11.63 4.16504 11.3 4.34504 11.1 4.65504L9.64002 6.95501L12 11.105L14.35 6.98501Z" fill="black"/>
<path fill-rule="evenodd" clip-rule="evenodd" d="M18.15 11.8251L19.41 9.45503C19.58 9.12503 19.58 8.74503 19.39 8.43503C19.21 8.11503 18.88 7.91503 18.52 7.90503L15.61 7.78501L13.3 11.855L18.15 11.8251Z" fill="black"/>
<path fill-rule="evenodd" clip-rule="evenodd" d="M8.39002 7.80501L5.48002 7.90505C5.11002 7.91505 4.79002 8.11505 4.60002 8.43505C4.42002 8.74505 4.41002 9.12505 4.58002 9.45505L5.87 11.905L10.71 11.8751L8.39002 7.80501Z" fill="black"/>
<path fill-rule="evenodd" clip-rule="evenodd" d="M15.7 17.595L18.52 17.495C18.88 17.485 19.21 17.285 19.39 16.975C19.58 16.655 19.58 16.275 19.41 15.945L18.04 13.3251L13.29 13.355L15.7 17.595Z" fill="black"/>
<path fill-rule="evenodd" clip-rule="evenodd" d="M9.61002 18.345L11.1 20.745C11.3 21.055 11.63 21.235 12 21.235C12.36 21.235 12.7 21.055 12.89 20.745L14.4 18.355L12 14.135L9.61002 18.345Z" fill="black"/>
<path fill-rule="evenodd" clip-rule="evenodd" d="M5.94 13.405L4.58002 15.945C4.41002 16.275 4.42002 16.655 4.60002 16.975C4.79002 17.285 5.11002 17.485 5.48002 17.495L8.30002 17.605L10.71 13.375L5.94 13.405Z" fill="black"/>
</svg>