<svg width="24" height="25" viewBox="0 0 24 25" fill="none" xmlns="http://www.w3.org/2000/svg">
<path d="M9.45696 3.0415H17.274C18.668 3.0415 19.679 3.9465 19.679 5.1935L19.678 6.5505C19.678 7.7985 18.667 8.7035 17.273 8.7035H9.45596C8.06296 8.7035 7.05096 7.7985 7.05096 6.5505L7.05196 5.1935C7.05196 3.9465 8.06396 3.0415 9.45696 3.0415Z" fill="black"/>
<path fill-rule="evenodd" clip-rule="evenodd" d="M18.2238 9.96547C18.3554 9.93176 18.488 10.0281 18.488 10.1639L18.488 10.585C18.488 10.6889 18.4083 10.7752 18.3051 10.7872C17.78 10.8488 17.271 10.9826 16.778 11.1888C16.388 11.3388 16.208 11.7788 16.368 12.1688C16.478 12.4588 16.758 12.6288 17.058 12.6288C17.148 12.6288 17.248 12.6188 17.338 12.5788C17.6369 12.4576 17.9489 12.3691 18.2633 12.3132C18.382 12.2921 18.488 12.3855 18.488 12.5061L18.488 15.3188C18.488 16.4988 17.898 17.5888 16.888 18.2188L13.8866 20.1071L14.9682 19.4258C15.0619 19.3668 15.0894 19.2431 15.0339 19.1472C14.7614 18.6761 14.5771 18.1723 14.488 17.6288C14.428 17.2188 14.038 16.9488 13.628 17.0088C13.218 17.0788 12.948 17.4588 13.008 17.8688C13.1271 18.6113 13.3807 19.3118 13.7611 19.9472C13.8183 20.0427 13.7911 20.1674 13.697 20.2268L11.778 21.4388C11.5221 21.5996 11.2556 21.7337 10.9822 21.8411C10.844 21.8954 10.7044 21.7764 10.7202 21.6288C10.7633 21.2255 10.7675 20.8221 10.728 20.4188C10.688 19.9988 10.318 19.7088 9.90797 19.7388C9.49797 19.7788 9.19797 20.1488 9.23797 20.5588C9.28783 21.0873 9.2482 21.6257 9.10917 22.1444C9.10837 22.1473 9.10797 22.1504 9.10797 22.1534C9.10797 22.1729 9.09205 22.1886 9.07262 22.1881C7.81443 22.1591 6.55944 21.6397 5.64798 20.6688C4.59798 19.5488 4.13798 18.0488 4.38798 16.5488C4.39427 16.5048 4.40056 16.4607 4.40934 16.4192C4.41834 16.3766 4.45734 16.3493 4.50065 16.3534C4.52798 16.3561 4.55661 16.3588 4.58798 16.3588C5.10798 16.3388 5.62798 16.4488 6.12798 16.6188C6.20798 16.6388 6.28798 16.6588 6.36798 16.6588C6.67798 16.6588 6.96798 16.4588 7.07798 16.1488C7.20798 15.7488 6.99798 15.3288 6.60798 15.1888C6.17878 15.043 5.73646 14.9628 5.29696 14.911C5.15249 14.894 5.07058 14.7356 5.15106 14.6144C5.58421 13.9621 6.18259 13.4186 6.89798 13.0388L8.4421 12.2153C8.50727 12.1805 8.54798 12.1127 8.54798 12.0388V10.2228C8.54798 10.0934 8.66903 9.99846 8.7962 10.0226C9.00896 10.063 9.22832 10.0888 9.45798 10.0888H17.278C17.6081 10.0888 17.9264 10.0417 18.2238 9.96547ZM13.9449 15.7939C13.8659 15.7939 13.7859 15.7809 13.7069 15.7549C13.3139 15.6239 13.1019 15.1979 13.2339 14.8059C13.4649 14.1159 13.8139 13.4799 14.2729 12.9109C14.5329 12.5899 15.0049 12.5389 15.3269 12.7999C15.6499 13.0599 15.6999 13.5319 15.4399 13.8549C15.0939 14.2819 14.8299 14.7629 14.6559 15.2819C14.5509 15.5959 14.2579 15.7939 13.9449 15.7939ZM8.59579 18.6155C8.73679 18.8495 8.98579 18.9795 9.23979 18.9795C9.37079 18.9795 9.50479 18.9455 9.62479 18.8735C9.97979 18.6595 10.0958 18.1995 9.88279 17.8435C9.65279 17.4605 9.38279 17.1045 9.07979 16.7845C8.79579 16.4825 8.32079 16.4695 8.01979 16.7535C7.71879 17.0385 7.70479 17.5125 7.98979 17.8135C8.21879 18.0555 8.42279 18.3255 8.59579 18.6155Z" fill="black"/>
</svg>