<svg width="24" height="24" viewBox="0 0 24 24" fill="none" xmlns="http://www.w3.org/2000/svg">
<path fill-rule="evenodd" clip-rule="evenodd" d="M6.43617 6.51792C7.18549 4.04973 9.47373 2.25 12.1897 2.25C14.9162 2.25 17.2139 4.06384 17.9537 6.548C19.8638 6.7921 21.3403 8.42355 21.3403 10.3994C21.3403 11.5649 20.8276 12.6099 20.0155 13.3216L18.7057 19.0705C18.7057 19.0705 18.7057 19.0705 18.7057 19.0705C18.3487 20.638 16.9543 21.7497 15.3465 21.7497H13.6384C13.6294 21.7499 13.6203 21.7499 13.6112 21.7497H10.4569C10.4398 21.7503 10.4228 21.7503 10.4059 21.7497H8.65342C7.04562 21.7497 5.65122 20.638 5.29417 19.0705C5.29417 19.0705 5.29417 19.0705 5.29416 19.0705L3.98441 13.3214C3.17238 12.6097 2.65967 11.5648 2.65967 10.3994C2.65967 8.29104 4.34086 6.57482 6.43617 6.51792ZM5.23477 12.3926C5.15919 12.2981 5.06194 12.2236 4.95237 12.175C4.46576 11.7387 4.15967 11.1051 4.15967 10.3994C4.15967 9.08385 5.22675 8.01647 6.5436 8.01647C6.63732 8.01647 6.73396 8.03044 6.9016 8.05574C7.3021 8.11619 7.67825 7.84774 7.75126 7.44934C8.13692 5.34486 9.97641 3.75 12.1897 3.75C14.3917 3.75 16.2253 5.32847 16.6234 7.41665C16.6923 7.77851 17.0139 8.0367 17.3821 8.02587C17.4197 8.02477 17.4514 8.0216 17.4736 8.01894C17.4796 8.01822 17.4856 8.01746 17.4911 8.01672C18.792 8.03526 19.8403 9.09542 19.8403 10.3994C19.8403 11.105 19.5343 11.7386 19.0478 12.1749C18.938 12.2235 18.8406 12.2981 18.765 12.3927C18.3894 12.6397 17.9397 12.7834 17.4564 12.7834C16.7874 12.7834 16.1839 12.5056 15.7486 12.0561C15.4921 11.7913 15.0811 11.7522 14.7793 11.9638C14.0435 12.4797 13.1536 12.7834 12.1897 12.7834C11.1361 12.7834 10.1692 12.4199 9.39917 11.8129C9.08094 11.562 8.62099 11.6093 8.36045 11.9197C7.91594 12.4492 7.26819 12.7834 6.5436 12.7834C6.06019 12.7834 5.61043 12.6396 5.23477 12.3926ZM5.72217 14.1964L6.7567 18.7373L6.7567 18.7373C6.95814 19.6217 7.74514 20.2497 8.65342 20.2497H9.54031L8.41582 13.7928C7.86426 14.1029 7.22775 14.2834 6.5436 14.2834C6.26177 14.2834 5.98696 14.2534 5.72217 14.1964ZM9.94818 13.849L11.0629 20.2497H12.9942L14.0965 13.9729C13.4977 14.1739 12.8568 14.2834 12.1897 14.2834C11.3967 14.2834 10.6404 14.1285 9.94818 13.849ZM15.6441 13.8323C16.1842 14.1195 16.8007 14.2834 17.4564 14.2834C17.7382 14.2834 18.013 14.2534 18.2777 14.1964L17.2432 18.7373L17.2432 18.7373C17.0417 19.6217 16.2548 20.2497 15.3465 20.2497H14.5171L15.6441 13.8323ZM14.2727 5.51098C14.6486 5.68498 14.8123 6.13076 14.6383 6.50665L13.9708 7.94859C13.7968 8.32449 13.3511 8.48816 12.9752 8.31416C12.5993 8.14016 12.4356 7.69439 12.6096 7.31849L13.277 5.87655C13.451 5.50066 13.8968 5.33699 14.2727 5.51098ZM9.9241 6.01312C10.3059 5.85238 10.7456 6.03154 10.9064 6.4133L10.9531 6.52422C11.1138 6.90597 10.9346 7.34575 10.5529 7.50649C10.1711 7.66723 9.73137 7.48806 9.57063 7.10631L9.52392 6.99539C9.36318 6.61363 9.54235 6.17386 9.9241 6.01312ZM8.70422 8.93917C8.96467 9.26125 8.91472 9.73348 8.59263 9.99394L7.35696 10.9932C7.03488 11.2536 6.56264 11.2037 6.30219 10.8816C6.04174 10.5595 6.09169 10.0873 6.41377 9.82682L7.64944 8.82758C7.97153 8.56713 8.44376 8.61708 8.70422 8.93917ZM14.6923 9.30241C14.8554 8.92166 15.2963 8.74523 15.6771 8.90833L17.1375 9.53395C17.5182 9.69705 17.6947 10.1379 17.5316 10.5187C17.3685 10.8994 16.9276 11.0759 16.5468 10.9128L15.0864 10.2871C14.7057 10.124 14.5292 9.68316 14.6923 9.30241ZM12.5727 10.0615C12.7441 10.4386 12.5774 10.8832 12.2003 11.0546L12.1147 11.0936C11.7376 11.265 11.2929 11.0982 11.1215 10.7211C10.9501 10.3441 11.1169 9.89942 11.494 9.72801L11.5796 9.6891C11.9567 9.51769 12.4013 9.68443 12.5727 10.0615Z" fill="black"/>
</svg>
