<svg width="24" height="24" viewBox="0 0 24 24" fill="none" xmlns="http://www.w3.org/2000/svg">
<path fill-rule="evenodd" clip-rule="evenodd" d="M7.63064 3C7.63064 2.58579 7.96643 2.25 8.38064 2.25H9.23393C10.2779 2.25 11.2174 2.58274 11.9005 3.24139C12.2719 3.59945 12.5482 4.03541 12.7236 4.52805C13.2764 4.00245 14.032 3.56721 15.0562 3.38134C15.4637 3.30738 15.8541 3.57782 15.9281 3.98537C16.002 4.39293 15.7316 4.78328 15.324 4.85724C14.0822 5.08259 13.4593 5.80594 13.1235 6.49195C13.0092 6.72549 12.9291 6.95464 12.8732 7.15698C13.3631 7.28826 13.81 7.52779 14.1841 7.85054C14.7675 7.34649 15.5302 7.04261 16.3646 7.04261C18.2098 7.04261 19.7075 8.53896 19.7075 10.3856C19.7075 11.8832 18.7224 13.1505 17.3657 13.5759C17.4734 13.9024 17.5312 14.2513 17.5312 14.6144C17.5312 16.1221 16.5412 17.3848 15.1736 17.8068C15.2086 18.0013 15.227 18.2018 15.227 18.407C15.227 20.2535 13.7305 21.75 11.8841 21.75C10.0413 21.75 8.53139 20.2571 8.53139 18.407C8.53139 18.1746 8.5552 17.9461 8.60019 17.7252C7.35927 17.2347 6.47049 16.0329 6.47049 14.6144C6.47049 14.2515 6.52823 13.9027 6.63582 13.5763C5.27846 13.1513 4.29272 11.8837 4.29272 10.3856C4.29272 8.53896 5.79041 7.04261 7.63568 7.04261C8.46748 7.04261 9.23504 7.34492 9.82221 7.84885C10.0195 7.6787 10.2372 7.53142 10.4712 7.411C9.78037 7.27477 9.16465 6.97115 8.67869 6.50258C7.99242 5.84088 7.63064 4.9132 7.63064 3.85329V3ZM11.4486 5.99397V5.89068C11.4486 5.17979 11.2129 4.66213 10.8593 4.32119C10.5026 3.9772 9.95976 3.75 9.23393 3.75H9.13064V3.85329C9.13064 4.56418 9.36626 5.08184 9.71985 5.42277C10.0766 5.76677 10.6194 5.99397 11.3453 5.99397H11.4486ZM8.93142 9.0659C8.60169 8.74378 8.14303 8.54261 7.63568 8.54261C6.61847 8.54261 5.79272 9.36776 5.79272 10.3856C5.79272 11.4034 6.61847 12.2285 7.63568 12.2285L7.6736 12.2284C7.68452 12.2283 7.6927 12.2281 7.69905 12.2279L7.70515 12.2276C7.72668 12.2242 7.74834 12.2219 7.77007 12.2204C8.22002 12.1907 8.62935 11.9975 8.9312 11.7047C8.75596 11.2997 8.65681 10.8529 8.65681 10.3856C8.65681 9.91801 8.75605 9.47104 8.93142 9.0659ZM9.81989 12.9231C9.37785 13.3005 8.83242 13.5663 8.23414 13.6727C8.06597 13.9455 7.97049 14.2653 7.97049 14.6144C7.97049 15.5624 8.70375 16.3544 9.64885 16.4515L9.66517 16.4534C9.68783 16.4562 9.72516 16.4573 9.82415 16.4573C10.328 16.4573 10.7807 16.258 11.1087 15.9355C10.9347 15.5308 10.8346 15.0827 10.8346 14.6144C10.8346 14.2529 10.8939 13.9033 11.002 13.5758C10.561 13.439 10.1608 13.2134 9.81989 12.9231ZM12.5969 13.6733C12.4303 13.9522 12.3346 14.276 12.3346 14.6144C12.3346 14.9089 12.4077 15.1947 12.5369 15.4505C12.5462 15.467 12.5548 15.4828 12.5618 15.4957L12.5626 15.4971C12.5694 15.5096 12.5751 15.52 12.5803 15.5294C12.582 15.5325 12.5838 15.5355 12.5855 15.5386C12.6021 15.5676 12.6107 15.581 12.6151 15.5873C12.6216 15.5966 12.6279 15.606 12.6339 15.6156C12.9547 16.121 13.5231 16.4573 14.1775 16.4573H14.1844C15.2182 16.4492 16.0312 15.6285 16.0312 14.6144C16.0312 14.2657 15.9358 13.946 15.7679 13.6733C15.1672 13.5669 14.6246 13.299 14.1847 12.9199C13.7422 13.298 13.199 13.5666 12.5969 13.6733ZM15.0742 11.7011C15.3761 11.9984 15.7803 12.1913 16.2292 12.2204C16.2518 12.2218 16.2743 12.2243 16.2967 12.2278C16.2973 12.2278 16.298 12.2279 16.2987 12.2279C16.3017 12.228 16.3056 12.2281 16.3107 12.2282C16.314 12.2283 16.3179 12.2284 16.3223 12.2284L16.3646 12.2285C17.3818 12.2285 18.2075 11.4034 18.2075 10.3856C18.2075 9.36776 17.3818 8.54261 16.3646 8.54261C15.8577 8.54261 15.403 8.74375 15.0747 9.0687C15.2498 9.47527 15.3437 9.91948 15.3437 10.3856C15.3437 10.8535 15.2444 11.2989 15.0742 11.7011ZM13.5568 11.3816C13.7375 11.0855 13.8437 10.7418 13.8437 10.3856C13.8437 10.0182 13.7409 9.68502 13.5563 9.39815L13.5512 9.39027L13.5513 9.39024C13.2321 8.88037 12.6572 8.54261 12.0007 8.54261C11.3453 8.54261 10.7772 8.87893 10.4565 9.38437L10.4539 9.38843L10.4539 9.38842C10.2655 9.68124 10.1568 10.025 10.1568 10.3856C10.1568 10.7461 10.2655 11.0899 10.4539 11.3827C10.462 11.3953 10.4698 11.4082 10.4771 11.4212C10.4971 11.4568 10.524 11.4955 10.5749 11.5638C10.8974 11.9415 11.3546 12.1872 11.8654 12.2204C11.888 12.2218 11.9105 12.2243 11.9329 12.2278C11.9335 12.2278 11.9341 12.2279 11.9349 12.2279C11.9398 12.2281 11.9472 12.2283 11.9585 12.2284L12.0007 12.2285L12.0424 12.2284C12.0535 12.2283 12.0607 12.2281 12.0656 12.2279M13.5568 11.3816C13.5155 11.4423 13.4733 11.5001 13.4254 11.564C13.1044 11.941 12.6466 12.1872 12.1351 12.2204C12.1125 12.2218 12.09 12.2243 12.0676 12.2278M12.0007 17.152C11.4798 17.6009 10.8166 17.8906 10.0875 17.9471C10.0511 18.0943 10.0314 18.2489 10.0314 18.407C10.0314 19.4214 10.8624 20.25 11.8841 20.25C12.9021 20.25 13.727 19.425 13.727 18.407C13.727 18.2369 13.7045 18.0733 13.6626 17.9181C13.0327 17.8211 12.4611 17.5487 12.0007 17.152Z" fill="black"/>
</svg>
