<svg width="24" height="24" viewBox="0 0 24 24" fill="none" xmlns="http://www.w3.org/2000/svg">
<path fill-rule="evenodd" clip-rule="evenodd" d="M8.72946 3.25C9.14367 3.25 9.47946 3.58579 9.47946 4V5.54897C9.47946 5.96319 9.14367 6.29897 8.72946 6.29897C8.31525 6.29897 7.97946 5.96319 7.97946 5.54897V4C7.97946 3.58579 8.31525 3.25 8.72946 3.25ZM11.9997 3.25C12.4139 3.25 12.7497 3.58579 12.7497 4V5.54897C12.7497 5.96319 12.4139 6.29897 11.9997 6.29897C11.5855 6.29897 11.2497 5.96319 11.2497 5.54897V4C11.2497 3.58579 11.5855 3.25 11.9997 3.25ZM15.27 3.25C15.6842 3.25 16.02 3.58579 16.02 4V5.54897C16.02 5.96319 15.6842 6.29897 15.27 6.29897C14.8558 6.29897 14.52 5.96319 14.52 5.54897V4C14.52 3.58579 14.8558 3.25 15.27 3.25ZM6.79186 9.17399C6.05408 9.17399 5.45581 9.77225 5.45581 10.51V12.7051C5.45581 16.3194 8.38575 19.2493 12.0001 19.2493C15.6144 19.2493 18.5444 16.3194 18.5444 12.7051V10.51C18.5444 9.77225 17.9461 9.17399 17.2083 9.17399H6.79186ZM3.95581 10.51C3.95581 8.94383 5.22565 7.67399 6.79186 7.67399H17.2083C18.7745 7.67399 20.0443 8.94383 20.0443 10.51V12.7051C20.0443 15.403 18.7162 17.7907 16.6781 19.25H19.1145C19.5287 19.25 19.8645 19.5858 19.8645 20C19.8645 20.4142 19.5287 20.75 19.1145 20.75H4.88402C4.46981 20.75 4.13402 20.4142 4.13402 20C4.13402 19.5858 4.46981 19.25 4.88402 19.25H7.32201C5.28392 17.7907 3.95581 15.403 3.95581 12.7051V10.51Z" fill="black"/>
</svg>
