<svg width="24" height="24" viewBox="0 0 24 24" fill="none" xmlns="http://www.w3.org/2000/svg">
<path fill-rule="evenodd" clip-rule="evenodd" d="M6.82766 4.75C5.86108 4.75 5.07666 5.53388 5.07666 6.501V11.4748C5.07666 13.8649 7.01499 15.8027 9.40542 15.8027H11.5888C13.9791 15.8027 15.9167 13.865 15.9167 11.4748V6.501C15.9167 5.53371 15.133 4.75 14.1657 4.75H9.67713V6.21764L10.3653 6.55213C10.8473 6.78745 11.1559 7.27747 11.1559 7.81626V9.55947C11.1559 10.3363 10.5263 10.9658 9.74953 10.9658H8.10513C7.32834 10.9658 6.69878 10.3363 6.69878 9.55947V7.81626C6.69878 7.27747 7.0074 6.78745 7.48934 6.55213L8.17713 6.21782V4.75H6.82766ZM3.57666 6.501C3.57666 4.70511 5.033 3.25 6.82766 3.25H14.1657C15.6164 3.25 16.8449 4.19974 17.2634 5.51147H18.0679C19.3687 5.51147 20.4235 6.56624 20.4235 7.86705V8.58162C20.4235 9.88297 19.3681 10.9363 18.0679 10.9363H17.4167V11.4748C17.4167 14.6935 14.8075 17.3027 11.5888 17.3027H9.40542C6.1869 17.3027 3.57666 14.6936 3.57666 11.4748V6.501ZM17.4167 9.43632H18.0679C18.5408 9.43632 18.9235 9.05347 18.9235 8.58162V7.86705C18.9235 7.39467 18.5403 7.01147 18.0679 7.01147H17.4167V9.43632ZM8.19878 7.8751V9.46582H9.65587V7.8751L8.92733 7.52099L8.19878 7.8751ZM4.23399 20C4.23399 19.5858 4.56978 19.25 4.98399 19.25H17.3726C17.7868 19.25 18.1226 19.5858 18.1226 20C18.1226 20.4142 17.7868 20.75 17.3726 20.75H4.98399C4.56978 20.75 4.23399 20.4142 4.23399 20Z" fill="black"/>
</svg>
