<svg width="24" height="24" viewBox="0 0 24 24" fill="none" xmlns="http://www.w3.org/2000/svg">
<path d="M14.4373 2.7804C14.8472 2.84046 15.1273 3.22034 15.0633 3.63026L14.2354 8.95032C14.1712 9.36024 13.7884 9.64027 13.3795 9.58021C12.9693 9.51038 12.6893 9.13026 12.7532 8.72034L13.5814 3.40028C13.6453 2.99036 14.0284 2.71033 14.4373 2.7804Z" fill="black"/>
<path d="M18.9832 3.99036C19.3514 4.18031 19.4964 4.63026 19.3065 5.00037L17.1473 9.18031C17.047 9.37562 16.8736 9.50672 16.6781 9.55921C16.503 9.60609 16.3101 9.58997 16.1363 9.50037C15.7684 9.31043 15.6243 8.86024 15.8143 8.49036L17.9735 4.31043C18.1634 3.94031 18.6153 3.80042 18.9832 3.99036Z" fill="black"/>
<path fill-rule="evenodd" clip-rule="evenodd" d="M21.2283 15.1466C20.3922 17.5035 18.721 19.4616 16.5714 20.6503C15.8582 21.0504 15.0584 21.2304 14.2674 21.2304H9.73445C8.94026 21.2304 8.13826 21.0504 7.42439 20.6503C4.63924 19.1005 2.66048 16.2804 2.26228 12.9703C2.13631 11.9103 2.97737 10.9904 4.02644 10.9904H19.9744C21.0313 10.9904 21.8643 11.9203 21.7374 12.9703C21.6934 13.3397 21.63 13.7003 21.5479 14.0541C21.494 14.2868 21.432 14.5162 21.3621 14.743C21.3577 14.892 21.3089 15.0309 21.2283 15.1466ZM4.52595 15.4703C5.30305 17.108 6.57649 18.4642 8.1534 19.3402C8.62434 19.6002 9.17024 19.7304 9.73445 19.7304H14.2674C14.8304 19.7304 15.3743 19.6002 15.8424 19.3402C17.419 18.4686 18.6947 17.1117 19.4747 15.4703H4.52595ZM20.0238 13.9703C20.1248 13.5878 20.2003 13.1989 20.2484 12.8004C20.2674 12.6405 20.1392 12.4904 19.9744 12.4904H4.02644C3.85823 12.4904 3.73445 12.6405 3.75227 12.7904C3.80061 13.1928 3.87605 13.5868 3.97737 13.9703H20.0238Z" fill="black"/>
</svg>
