<svg width="24" height="24" viewBox="0 0 24 24" fill="none" xmlns="http://www.w3.org/2000/svg">
<path d="M19.4618 4.20703L16.7588 4.26055L16.8123 6.948" stroke="black" stroke-width="1.5" stroke-linecap="round" stroke-linejoin="round"/>
<path d="M16.7697 4.42969C20.8972 6.99065 22.2361 12.3948 19.75 16.5943C18.1932 19.2253 15.4999 20.7675 12.6655 20.966" stroke="black" stroke-width="1.5" stroke-linecap="round" stroke-linejoin="round"/>
<path d="M4.77881 19.9897L7.47891 19.8545L7.34464 17.1699" stroke="black" stroke-width="1.5" stroke-linecap="round" stroke-linejoin="round"/>
<path d="M7.4629 19.6882C3.2595 17.2538 1.75814 11.8915 4.11575 7.61901C5.59278 4.94226 8.23742 3.31928 11.065 3.03516" stroke="black" stroke-width="1.5" stroke-linecap="round" stroke-linejoin="round"/>
<path d="M8.00391 10.4629C10.3352 8.5957 13.6668 8.5957 15.9972 10.4629" stroke="black" stroke-width="1.5" stroke-linecap="round" stroke-linejoin="round"/>
<path d="M9.96875 12.9359C11.1344 11.9415 12.8673 11.9415 14.0389 12.9301" stroke="black" stroke-width="1.5" stroke-linecap="round" stroke-linejoin="round"/>
<path d="M12.0002 15.3401V15.3829" stroke="black" stroke-width="1.8" stroke-linecap="round" stroke-linejoin="round"/>
</svg>
