<svg width="24" height="24" viewBox="0 0 24 24" fill="none" xmlns="http://www.w3.org/2000/svg">
<path d="M20.9264 20.1498C21.6753 12.3538 16.6241 5.1778 9.03278 3.25324C6.50082 2.61133 5.44938 6.60196 8.06532 7.22431C12.7738 8.43219 16.2571 12.4079 16.8369 17.2337C17.1463 19.8093 13.1189 20.4052 12.7853 17.7824C12.3861 14.176 9.51823 11.3415 5.90723 10.9849" stroke="black" stroke-width="1.5" stroke-linecap="round" stroke-linejoin="round"/>
<path fill-rule="evenodd" clip-rule="evenodd" d="M7.75668 18.661C7.62899 19.9712 6.46367 20.9306 5.1534 20.8029C3.84198 20.6741 2.88372 19.5088 3.01141 18.1997C3.09654 17.3277 3.65102 16.5742 4.45743 16.2337C5.12464 15.953 5.88273 15.9898 6.51774 16.3361C7.36096 16.7916 7.84871 17.7073 7.75668 18.661Z" stroke="black" stroke-width="1.5" stroke-linecap="round" stroke-linejoin="round"/>
</svg>
