<svg width="24" height="24" viewBox="0 0 24 24" fill="none" xmlns="http://www.w3.org/2000/svg">
<path d="M6.08422 6.69922C4.99453 7.17499 3.96029 7.8181 3 8.59256" stroke="black" stroke-width="1.5" stroke-linecap="round" stroke-linejoin="round"/>
<path d="M9.7649 10.3848C8.38624 10.6922 7.06305 11.3275 5.89844 12.2596" stroke="black" stroke-width="1.5" stroke-linecap="round" stroke-linejoin="round"/>
<path d="M8.89844 16.0381C10.6779 14.5174 13.3234 14.5174 15.1126 16.0294" stroke="black" stroke-width="1.5" stroke-linecap="round" stroke-linejoin="round"/>
<path d="M18.1027 12.2597C17.227 11.5602 16.2677 11.028 15.252 10.6738" stroke="black" stroke-width="1.5" stroke-linecap="round" stroke-linejoin="round"/>
<path d="M10.1094 5.52491C13.9106 5.02093 17.8695 6.04738 21.0005 8.59356" stroke="black" stroke-width="1.5" stroke-linecap="round" stroke-linejoin="round"/>
<path d="M3.20312 3.81641L17.842 18.4747" stroke="black" stroke-width="1.5" stroke-linecap="round" stroke-linejoin="round"/>
<path d="M12.0014 19.7634V19.8276M12.2615 19.7772C12.2615 19.9217 12.1443 20.0388 11.9998 20.0388C11.8553 20.0388 11.7383 19.9217 11.7383 19.7772C11.7383 19.6328 11.8553 19.5156 11.9998 19.5156C12.1443 19.5156 12.2615 19.6328 12.2615 19.7772Z" stroke="black" stroke-width="1.5" stroke-linecap="round" stroke-linejoin="round"/>
</svg>
