<svg width="24" height="24" viewBox="0 0 24 24" fill="none" xmlns="http://www.w3.org/2000/svg">
<path d="M20.0012 9.41524L16.2715 5.68555" stroke="black" stroke-width="1.5" stroke-linecap="round" stroke-linejoin="round"/>
<path d="M20.0012 5.68555L16.2715 9.41524" stroke="black" stroke-width="1.5" stroke-linecap="round" stroke-linejoin="round"/>
<path d="M10.2422 15.4197C12.1258 13.8123 14.9265 13.8123 16.8199 15.4099" stroke="black" stroke-width="1.5" stroke-linecap="round" stroke-linejoin="round"/>
<path d="M13.5264 4.17578C10.1537 4.17578 6.77114 5.30002 4 7.54848" stroke="black" stroke-width="1.5" stroke-linecap="round" stroke-linejoin="round"/>
<path d="M7.06641 11.4258C8.67584 10.1438 10.5703 9.40222 12.5012 9.21484" stroke="black" stroke-width="1.5" stroke-linecap="round" stroke-linejoin="round"/>
<path d="M13.5327 19.3375V19.4017M13.7928 19.3513C13.7928 19.4958 13.6756 19.6129 13.5311 19.6129C13.3866 19.6129 13.2695 19.4958 13.2695 19.3513C13.2695 19.2068 13.3866 19.0897 13.5311 19.0897C13.6756 19.0897 13.7928 19.2068 13.7928 19.3513Z" stroke="black" stroke-width="1.5" stroke-linecap="round" stroke-linejoin="round"/>
</svg>
