<svg width="24" height="25" viewBox="0 0 24 25" fill="none" xmlns="http://www.w3.org/2000/svg">
<path d="M11.999 11.6885V17.6299" stroke="black" stroke-width="1.5" stroke-linecap="round" stroke-linejoin="round"/>
<path d="M14.5713 13.1738L9.42587 16.1445" stroke="black" stroke-width="1.5" stroke-linecap="round" stroke-linejoin="round"/>
<path d="M14.5713 16.1445L9.42587 13.1738" stroke="black" stroke-width="1.5" stroke-linecap="round" stroke-linejoin="round"/>
<path d="M18.596 17.5654C17.4787 20.0977 14.9458 21.8652 12 21.8652C8.02021 21.8652 4.79395 18.639 4.79395 14.6592C4.79395 10.6794 8.02021 7.4531 12 7.4531C15.6722 7.4531 18.7029 10.1999 19.1494 13.751" stroke="black" stroke-width="1.5" stroke-linecap="round" stroke-linejoin="round"/>
<path d="M14.3711 7.823V6.30273C14.3711 5.75045 13.9234 5.30273 13.3711 5.30273H10.6328C10.0805 5.30273 9.63281 5.75045 9.63281 6.30273V7.823" stroke="black" stroke-width="1.5" stroke-linecap="round" stroke-linejoin="round"/>
<path d="M13.0137 5.30273V4.42773C13.0137 3.87545 12.566 3.42773 12.0137 3.42773H11.9883C11.436 3.42773 10.9883 3.87545 10.9883 4.42773V5.30273" stroke="black" stroke-width="1.5" stroke-linecap="round" stroke-linejoin="round"/>
</svg>