<svg width="24" height="25" viewBox="0 0 24 25" fill="none" xmlns="http://www.w3.org/2000/svg">
<path d="M11.3242 9.51611C11.9715 10.9904 13.7407 14.2517 15.6394 15.5029" stroke="black" stroke-width="1.5" stroke-linecap="round" stroke-linejoin="round"/>
<path d="M14.2784 14.6395C12.6314 15.3507 7.24729 15.5403 4.77324 14.6395C4.66045 12.6054 5.13143 8.97134 7.33896 6.82153" stroke="black" stroke-width="1.5" stroke-linecap="round" stroke-linejoin="round"/>
<path d="M21.4996 16.1961C21.4996 14.7022 20.2886 13.4912 18.7947 13.4912C17.3009 13.4912 16.0898 14.7022 16.0898 16.1961C16.0898 17.69 17.3009 18.901 18.7947 18.901C19.2345 18.901 19.6497 18.7961 20.0167 18.6099" stroke="black" stroke-width="1.5" stroke-linecap="round" stroke-linejoin="round"/>
<path d="M4.82862 12.6372C2.94473 13.1203 2.5 14.1342 2.5 16.196C2.5 18.9434 3.68565 19.8301 7.46852 20.0797" stroke="black" stroke-width="1.5" stroke-linecap="round" stroke-linejoin="round"/>
<path d="M10.5598 5.20121C15.5599 4.33843 17.6363 7.75418 18.0495 9.56991L18.874 13.0368" stroke="black" stroke-width="1.5" stroke-linecap="round" stroke-linejoin="round"/>
<path d="M10.9966 20.1667C14.8362 20.1667 17.0208 19.8112 18.2067 18.9075" stroke="black" stroke-width="1.5" stroke-linecap="round" stroke-linejoin="round"/>
</svg>