<svg width="24" height="25" viewBox="0 0 24 25" fill="none" xmlns="http://www.w3.org/2000/svg">
<path d="M6.60435 4.95264C4.2235 4.95264 2.75 6.72535 2.75 9.22998V16.0012C2.75 18.5058 4.2235 20.2785 6.60435 20.2785H17.3849C19.7657 20.2785 21.25 18.5058 21.25 16.0012V9.22998C21.25 6.72535 19.7561 4.95264 17.3849 4.95264H10.8417" stroke="black" stroke-width="1.5" stroke-linecap="round" stroke-linejoin="round"/>
<path d="M14.0621 11.1932C14.0621 9.40631 15.3027 7.95898 16.8329 7.95898C17.4921 7.95898 18.0255 8.49237 18.0255 9.1516C18.0255 10.5899 16.2506 11.7566 14.0611 11.7566M10.0957 9.1516C10.0957 8.49237 10.6301 7.95898 11.2893 7.95898C12.8185 7.95898 14.0591 9.40631 14.0591 11.1932" stroke="black" stroke-width="1.5" stroke-linecap="round" stroke-linejoin="round"/>
<path d="M11.1172 14.9906L14.0603 11.7563L17.0024 14.9906" stroke="black" stroke-width="1.5" stroke-linecap="round" stroke-linejoin="round"/>
<path d="M21.2403 11.8369H2.76172" stroke="black" stroke-width="1.5" stroke-linecap="round" stroke-linejoin="round"/>
<path d="M14.0598 17.5141V4.95215" stroke="black" stroke-width="1.5" stroke-linecap="round" stroke-linejoin="round"/>
<path d="M6.24683 16.5747H7.96167" stroke="black" stroke-width="1.5" stroke-linecap="round" stroke-linejoin="round"/>
</svg>