<svg width="24" height="25" viewBox="0 0 24 25" fill="none" xmlns="http://www.w3.org/2000/svg">
<path d="M11.9946 4.95215H17.3849C19.7657 4.95215 21.25 6.72487 21.25 9.22949V16.0007C21.25 18.5053 19.7561 20.278 17.3849 20.278H6.60435C4.2235 20.278 2.75 18.5053 2.75 16.0007V9.22949C2.75 6.72487 4.2235 4.95215 6.60435 4.95215H7.7588" stroke="black" stroke-width="1.5" stroke-linecap="round" stroke-linejoin="round"/>
<path d="M6.05273 12.6152H9.80469" stroke="black" stroke-width="1.5" stroke-linecap="round" stroke-linejoin="round"/>
<path d="M6.05273 9.52344H11.0391" stroke="black" stroke-width="1.5" stroke-linecap="round" stroke-linejoin="round"/>
<path d="M6.05273 15.707H8.38801" stroke="black" stroke-width="1.5" stroke-linecap="round" stroke-linejoin="round"/>
<path d="M18.0322 13.9025H16.705C17.2184 14.9969 17.8348 15.9534 18.5567 16.7683H11.7363C12.4587 15.9534 13.0746 14.9969 13.588 13.9025H12.2607C13.3595 12.5517 14.3044 10.9454 15.1467 9.18506C15.5222 9.97015 15.9182 10.7246 16.3392 11.4394" stroke="black" stroke-width="1.5" stroke-linecap="round" stroke-linejoin="round"/>
<path d="M15.1465 16.7681L15.1465 20.2782" stroke="black" stroke-width="1.5" stroke-linecap="round" stroke-linejoin="round"/>
</svg>