<svg width="24" height="25" viewBox="0 0 24 25" fill="none" xmlns="http://www.w3.org/2000/svg">
<path d="M12.0012 7.07568C10.5632 7.07568 9.34523 9.80021 8.93188 12.878" stroke="black" stroke-width="1.5" stroke-linecap="round" stroke-linejoin="round"/>
<path d="M11.9997 3.58419C11.0355 3.58419 10.2539 4.36579 10.2539 5.32994C10.2539 6.29409 11.0355 7.07568 11.9997 7.07568C12.9638 7.07568 13.7454 6.29409 13.7454 5.32994C13.7454 5.15004 13.7182 4.9765 13.6677 4.8132" stroke="black" stroke-width="1.5" stroke-linecap="round" stroke-linejoin="round"/>
<path d="M12 21.6461C19.2789 21.563 21.2879 21.0789 21.2495 17.9151C21.2302 16.3322 20.8788 15.4304 19.5297 14.9355" stroke="black" stroke-width="1.5" stroke-linecap="round" stroke-linejoin="round"/>
<path d="M12.0007 7.07568C7.85082 7.07568 4.48633 11.2416 4.48633 15.09C10.4147 16.1785 13.5991 16.1675 19.5142 15.09C19.5142 11.2416 16.1505 7.07568 12.0007 7.07568Z" stroke="black" stroke-width="1.5" stroke-linecap="round" stroke-linejoin="round"/>
<path d="M15.2208 15.0899C15.2208 13.298 14.9083 11.4372 14.3948 9.96021" stroke="black" stroke-width="1.5" stroke-linecap="round" stroke-linejoin="round"/>
<path d="M4.47041 14.9355C3.12124 15.4304 2.76978 16.3322 2.75054 17.9152C2.7201 20.4198 3.97287 21.245 8.10769 21.5214" stroke="black" stroke-width="1.5" stroke-linecap="round" stroke-linejoin="round"/>
</svg>