<svg width="24" height="25" viewBox="0 0 24 25" fill="none" xmlns="http://www.w3.org/2000/svg">
<path d="M8.92432 13.523L7.01281 12.0171" stroke="black" stroke-width="1.5" stroke-linecap="round" stroke-linejoin="round"/>
<path d="M9.25781 9.886C9.25781 11.4001 10.4852 12.6274 11.9993 12.6274C13.5133 12.6274 14.7407 11.4001 14.7407 9.886C14.7407 8.37195 13.5133 7.14456 11.9993 7.14456C11.3311 7.14456 10.7187 7.38362 10.243 7.78087" stroke="black" stroke-width="1.5" stroke-linecap="round" stroke-linejoin="round"/>
<path d="M10.3407 12.083C9.27097 12.6705 8.5459 13.8077 8.5459 15.1143C8.5459 16.4209 9.27097 17.5582 10.3407 18.1457" stroke="black" stroke-width="1.5" stroke-linecap="round" stroke-linejoin="round"/>
<path d="M16.9891 12.0171L15.0792 13.5339C15.3197 14.0048 15.4569 14.5491 15.4569 15.1142C15.4569 16.4208 14.7318 17.558 13.6621 18.1455" stroke="black" stroke-width="1.5" stroke-linecap="round" stroke-linejoin="round"/>
<path d="M11.1621 12.6016V14.4451" stroke="black" stroke-width="1.5" stroke-linecap="round" stroke-linejoin="round"/>
<path d="M11.9998 3.36523C7.67034 3.36523 4.16113 6.87527 4.16113 11.2039C4.16113 14.2176 5.8615 16.8339 8.3553 18.1458H15.6444C18.1382 16.8339 19.8385 14.2176 19.8385 11.2039C19.8385 7.97285 17.8833 5.19788 15.0911 3.99837" stroke="black" stroke-width="1.5" stroke-linecap="round" stroke-linejoin="round"/>
<path d="M8.37371 18.1792L7.58031 19.4174C7.07481 20.2063 6.82206 20.6008 6.84218 20.9268C6.86049 21.2236 7.00993 21.4968 7.24993 21.6724C7.5136 21.8652 7.98209 21.8652 8.91906 21.8652H12.0011" stroke="black" stroke-width="1.5" stroke-linecap="round" stroke-linejoin="round"/>
<path d="M15.0833 21.8652C16.0202 21.8652 16.4887 21.8652 16.7524 21.6724C16.9924 21.4968 17.1418 21.2236 17.1601 20.9268C17.1802 20.6008 16.9275 20.2063 16.422 19.4174L15.6252 18.1738" stroke="black" stroke-width="1.5" stroke-linecap="round" stroke-linejoin="round"/>
</svg>