<svg width="24" height="25" viewBox="0 0 24 25" fill="none" xmlns="http://www.w3.org/2000/svg">
<path d="M18.008 8.38795V15.2429C18.008 16.2488 17.4918 17.1842 16.6407 17.7203L11.5245 20.9436C9.76165 22.0542 7.45938 21.7623 6.02943 20.247C4.05698 18.1567 4.61113 14.7633 7.14605 13.409L9.01462 12.4108C9.04381 12.3952 9.06204 12.3648 9.06204 12.3317V10.5052" stroke="black" stroke-width="1.5" stroke-linecap="round" stroke-linejoin="round"/>
<path d="M14.0115 19.3477C13.6498 18.7984 13.3984 18.17 13.2888 17.4941" stroke="black" stroke-width="1.5" stroke-linecap="round" stroke-linejoin="round"/>
<path d="M13.4597 15.0948C13.6415 14.554 13.9175 14.0564 14.268 13.6216" stroke="black" stroke-width="1.5" stroke-linecap="round" stroke-linejoin="round"/>
<path d="M18.0066 11.9448C17.3752 11.9448 16.7724 12.0673 16.2207 12.2897" stroke="black" stroke-width="1.5" stroke-linecap="round" stroke-linejoin="round"/>
<path d="M5.15943 15.5983C5.68213 15.5953 6.22931 15.685 6.73879 15.8578" stroke="black" stroke-width="1.5" stroke-linecap="round" stroke-linejoin="round"/>
<path d="M8.66202 17.0943C8.90017 17.3467 9.10964 17.6237 9.28717 17.9198" stroke="black" stroke-width="1.5" stroke-linecap="round" stroke-linejoin="round"/>
<path d="M9.94609 19.9223C9.99733 20.4564 9.9588 21.0079 9.81892 21.5569" stroke="black" stroke-width="1.5" stroke-linecap="round" stroke-linejoin="round"/>
<path d="M13.3826 3.61475H17.291C18.3431 3.61475 19.1959 4.23832 19.1959 5.26857L19.195 6.62378C19.195 7.65403 18.3421 8.2776 17.2901 8.2776H9.47325C8.42121 8.2776 7.56836 7.65403 7.56836 6.62377L7.56929 5.26857C7.56929 4.23832 8.42214 3.61475 9.47418 3.61475H10.5136" stroke="black" stroke-width="1.5" stroke-linecap="round" stroke-linejoin="round"/>
</svg>