<svg width="24" height="24" viewBox="0 0 24 24" fill="none" xmlns="http://www.w3.org/2000/svg">
<path opacity="0.4" d="M20.0492 2.68341C19.1532 2.31441 18.1712 2.51041 17.4882 3.19741L3.19316 17.4874C2.50716 18.1744 2.31316 19.1574 2.68416 20.0514C3.05516 20.9454 3.88716 21.4994 4.85516 21.4994H7.01216H8.91216H19.1502C20.4462 21.4994 21.5012 20.4464 21.5012 19.1504V4.84941C21.5012 3.88341 20.9452 3.05341 20.0492 2.68341Z" fill="black"/>
<path d="M16.0522 7.68457V21.2996C16.0522 21.41 15.9627 21.4996 15.8522 21.4996H17.7522C17.6417 21.4996 17.5522 21.41 17.5522 21.2996V7.68457C17.5522 7.27057 17.2162 6.93457 16.8022 6.93457C16.3882 6.93457 16.0522 7.27057 16.0522 7.68457Z" fill="black"/>
<path d="M11.6342 13.7216V21.2996C11.6342 21.41 11.5447 21.4996 11.4342 21.4996H13.3342C13.2238 21.4996 13.1342 21.41 13.1342 21.2996V13.7216C13.1342 13.3076 12.7982 12.9716 12.3842 12.9716C11.9702 12.9716 11.6342 13.3076 11.6342 13.7216Z" fill="black"/>
<path d="M7.21221 17.4376V21.2996C7.21221 21.41 7.12266 21.4996 7.01221 21.4996H8.91221C8.80175 21.4996 8.71221 21.41 8.71221 21.2996V17.4376C8.71221 17.0236 8.37621 16.6876 7.96221 16.6876C7.54821 16.6876 7.21221 17.0236 7.21221 17.4376Z" fill="black"/>
</svg>