<svg width="25" height="24" viewBox="0 0 25 24" fill="none" xmlns="http://www.w3.org/2000/svg">
<path opacity="0.4" fill-rule="evenodd" clip-rule="evenodd" d="M19.1055 7.234L15.3125 3.283C14.8305 2.786 14.1605 2.5 13.4745 2.5H8.40455C6.07855 2.5 4.18555 4.393 4.18555 6.72V17.281C4.18555 19.608 6.07755 21.5 8.40355 21.5H15.5955C17.9215 21.5 19.8145 19.608 19.8145 17.281V9C19.8145 8.337 19.5625 7.709 19.1055 7.234Z" fill="black"/>
<path fill-rule="evenodd" clip-rule="evenodd" d="M13.8089 17.9192C15.2219 17.9192 16.2089 16.9002 16.2089 15.4392V13.3702C16.2089 11.9092 15.2219 10.8892 13.8089 10.8892H10.1999C8.78693 10.8892 7.79993 11.9092 7.79993 13.3702V15.4392C7.79993 16.9002 8.78693 17.9192 10.1999 17.9192H13.8089ZM10.2005 12.3892H13.8085C14.5915 12.3892 14.7085 13.0032 14.7085 13.3692V15.4392C14.7085 15.8052 14.5915 16.4192 13.8085 16.4192H10.2005C9.4165 16.4192 9.2995 15.8052 9.2995 15.4392V13.3692C9.2995 13.0032 9.4165 12.3892 10.2005 12.3892Z" fill="black"/>
</svg>