<svg width="24" height="24" viewBox="0 0 24 24" fill="none" xmlns="http://www.w3.org/2000/svg">
<path opacity="0.4" fill-rule="evenodd" clip-rule="evenodd" d="M19.1055 7.234L15.3125 3.283C14.8305 2.786 14.1605 2.5 13.4745 2.5H8.40455C6.07855 2.5 4.18555 4.393 4.18555 6.72V17.281C4.18555 19.608 6.07755 21.5 8.40355 21.5H15.5955C17.9215 21.5 19.8145 19.608 19.8145 17.281V9C19.8145 8.337 19.5625 7.709 19.1055 7.234Z" fill="black"/>
<path fill-rule="evenodd" clip-rule="evenodd" d="M14.7725 16.2199C14.9635 16.2199 15.1555 16.1469 15.3015 16.0009C15.5955 15.7079 15.5955 15.2329 15.3035 14.9399L14.4345 14.0689C14.7425 13.5689 14.9065 12.9919 14.9065 12.3909C14.9065 11.5319 14.5725 10.7259 13.9685 10.1229C13.3615 9.50988 12.5535 9.17288 11.6935 9.17188C10.8335 9.17188 10.0255 9.50987 9.42152 10.1189C8.81352 10.7259 8.47852 11.5309 8.47852 12.3909C8.47852 13.2489 8.81352 14.0549 9.42152 14.6609C10.4915 15.7289 12.1355 15.8839 13.3715 15.1279L14.2405 15.9989C14.3875 16.1469 14.5795 16.2199 14.7725 16.2199ZM10.4836 11.1789C10.8066 10.8519 11.2366 10.6719 11.6936 10.6719C12.1506 10.6729 12.5796 10.8519 12.9056 11.1819C13.2296 11.5039 13.4066 11.9339 13.4066 12.3909C13.4066 12.8459 13.2306 13.2749 12.9076 13.5969C12.9036 13.5999 12.9036 13.6009 12.9036 13.6009C12.2356 14.2679 11.1486 14.2659 10.4806 13.5989C10.1566 13.2759 9.97858 12.8469 9.97858 12.3909C9.97858 11.9339 10.1566 11.5039 10.4836 11.1789Z" fill="black"/>
</svg>