<svg width="24" height="24" viewBox="0 0 24 24" fill="none" xmlns="http://www.w3.org/2000/svg">
<path d="M21.3588 15.6594C21.3486 15.7018 21.337 15.744 21.324 15.7861C20.958 16.9711 20.336 18.2311 19.475 19.5281C19.122 20.1271 18.56 20.5541 17.888 20.7341C17.661 20.7951 17.43 20.8251 17.201 20.8251C16.744 20.8251 16.293 20.7061 15.887 20.4711C14.631 19.7431 14.2 18.1301 14.925 16.8741L16.507 14.1321C17.233 12.8741 18.848 12.4421 20.104 13.1671L20.2437 13.2474C20.2479 13.139 20.25 13.0303 20.25 12.9213C20.25 8.37429 16.547 4.67529 11.997 4.67529C7.449 4.67529 3.75 8.37429 3.75 12.9213C3.75 13.0307 3.7521 13.1398 3.7563 13.2486L3.90227 13.1651C5.15927 12.4391 6.77227 12.8741 7.49827 14.1301L9.08027 16.8741C9.80527 18.1291 9.37427 19.7421 8.11827 20.4691C7.71227 20.7041 7.26127 20.8241 6.80427 20.8241C6.57527 20.8241 6.34527 20.7941 6.11827 20.7331C5.44627 20.5531 4.88327 20.1261 4.53127 19.5271C3.8142 18.4482 3.26321 17.3949 2.88751 16.389C2.46383 15.2874 2.25 14.1208 2.25 12.9213C2.25 7.54729 6.622 3.17529 11.997 3.17529C17.374 3.17529 21.75 7.54729 21.75 12.9213C21.75 13.8579 21.6188 14.7745 21.3588 15.6594Z" fill="black"/>
</svg>