<svg width="24" height="24" viewBox="0 0 24 24" fill="none" xmlns="http://www.w3.org/2000/svg">
<path fill-rule="evenodd" clip-rule="evenodd" d="M19.957 10.7851C19.956 10.3711 19.621 10.0371 19.207 10.0371H19.205C18.791 10.0381 18.456 10.3741 18.457 10.7891C18.465 14.3571 15.569 17.2671 12.005 17.2781C12.003 17.2781 12.002 17.2771 12 17.2771C11.999 17.2771 11.998 17.2771 11.997 17.2771C10.269 17.2711 8.64699 16.5951 7.42799 15.3701C6.20799 14.1451 5.53899 12.5171 5.54299 10.7891C5.54399 10.3751 5.20899 10.0381 4.79499 10.0371H4.79299C4.37999 10.0371 4.04399 10.3711 4.04299 10.7851C4.03799 12.9141 4.86199 14.9191 6.36499 16.4291C7.68999 17.7601 9.40199 18.5631 11.25 18.7391V20.8751C11.25 21.2891 11.586 21.6251 12 21.6251C12.415 21.6251 12.75 21.2891 12.75 20.8751V18.7381C16.796 18.3491 19.967 14.9291 19.957 10.7851Z" fill="black"/>
<path fill-rule="evenodd" clip-rule="evenodd" d="M11.9981 14.932H12.0031C14.2991 14.926 16.1641 13.053 16.1591 10.757V6.534C16.1591 4.241 14.2931 2.375 11.9991 2.375C9.70609 2.375 7.84009 4.241 7.84009 6.534V10.756C7.83809 11.869 8.26909 12.916 9.05409 13.705C9.83909 14.494 10.8851 14.93 11.9981 14.932Z" fill="black"/>
</svg>