<svg width="24" height="24" viewBox="0 0 24 24" fill="none" xmlns="http://www.w3.org/2000/svg">
<path fill-rule="evenodd" clip-rule="evenodd" d="M7.8716 12.355C7.2766 12.355 6.7926 12.839 6.7926 13.434C6.7926 14.029 7.2766 14.513 7.8716 14.513C8.4666 14.513 8.9506 14.029 8.9506 13.434C8.9506 12.839 8.4666 12.355 7.8716 12.355Z" fill="black"/>
<path fill-rule="evenodd" clip-rule="evenodd" d="M10.0366 7.05161H13.8996C14.3266 7.05161 14.6936 6.79461 14.8356 6.39761L15.5396 4.45361H8.39758L9.09958 6.39361C9.24258 6.79561 9.60958 7.05161 10.0366 7.05161Z" fill="black"/>
<path fill-rule="evenodd" clip-rule="evenodd" d="M16.128 16.0131C14.706 16.0131 13.549 14.8561 13.549 13.4341C13.549 12.0121 14.706 10.8551 16.128 10.8551C17.549 10.8551 18.706 12.0121 18.706 13.4341C18.706 14.8561 17.549 16.0131 16.128 16.0131ZM7.872 16.0131C6.45 16.0131 5.293 14.8561 5.293 13.4341C5.293 12.0121 6.45 10.8551 7.872 10.8551C9.294 10.8551 10.451 12.0121 10.451 13.4341C10.451 14.8561 9.294 16.0131 7.872 16.0131ZM17.389 4.4541H17.135L16.247 6.9051C15.897 7.8881 14.953 8.5521 13.9 8.5521H10.037C8.983 8.5521 8.04 7.8881 7.689 6.9001L6.802 4.4541H6.613C4.044 4.4541 2.25 6.3231 2.25 8.9991V15.0011C2.25 17.6771 4.044 19.5461 6.612 19.5461H17.389C19.957 19.5461 21.75 17.6771 21.75 15.0011V8.9991C21.75 6.3231 19.957 4.4541 17.389 4.4541Z" fill="black"/>
<path fill-rule="evenodd" clip-rule="evenodd" d="M16.128 12.355C15.533 12.355 15.049 12.839 15.049 13.434C15.049 14.029 15.533 14.513 16.128 14.513C16.722 14.513 17.206 14.029 17.206 13.434C17.206 12.839 16.722 12.355 16.128 12.355Z" fill="black"/>
</svg>