<svg width="24" height="24" viewBox="0 0 24 24" fill="none" xmlns="http://www.w3.org/2000/svg">
<path fill-rule="evenodd" clip-rule="evenodd" d="M8.54243 12.9248C6.67243 12.9248 5.15143 11.4028 5.15143 9.53175C5.15143 7.66175 6.67243 6.14075 8.54243 6.14075C10.4134 6.14075 11.9344 7.66175 11.9344 9.53175C11.9344 11.4028 10.4134 12.9248 8.54243 12.9248ZM11.3654 18.8678C11.3654 16.0893 13.6141 13.8351 16.3223 13.7042C16.5479 13.6932 16.7354 13.5137 16.7354 13.2879V10.4038C16.7354 9.22075 17.5634 8.20075 18.7204 7.95775L20.0637 7.67552C20.2489 7.63661 20.3814 7.47328 20.3814 7.28407V7.20875C20.3814 3.91175 18.2644 1.69775 15.1144 1.69775H6.70743C3.55743 1.69775 1.44043 3.91175 1.44043 7.20875V15.1288C1.44043 18.4248 3.55743 20.6398 6.70743 20.6398H11.1252C11.4031 20.6398 11.5963 20.3629 11.5266 20.0939C11.4249 19.7012 11.3654 19.2921 11.3654 18.8678Z" fill="black"/>
<path fill-rule="evenodd" clip-rule="evenodd" d="M8.54243 7.64062C7.50043 7.64062 6.65143 8.48862 6.65143 9.53162C6.65143 10.5756 7.50043 11.4246 8.54243 11.4246C9.58543 11.4246 10.4344 10.5756 10.4344 9.53162C10.4344 8.48862 9.58543 7.64062 8.54243 7.64062Z" fill="black"/>
<path fill-rule="evenodd" clip-rule="evenodd" d="M22.2826 10.2685C22.1066 10.1255 21.8756 10.0705 21.6556 10.1175L19.2986 10.6125C18.9516 10.6855 18.7026 10.9925 18.7026 11.3465V16.3895C18.2076 16.0755 17.6246 15.8865 16.9956 15.8865C15.2266 15.8865 13.7876 17.3265 13.7876 19.0955C13.7876 20.8635 15.2266 22.3025 16.9956 22.3025C18.7646 22.3025 20.2036 20.8635 20.2036 19.0955C20.2036 19.0915 20.2026 19.0885 20.2026 19.0855V15.2225L21.9756 14.8205C22.3176 14.7425 22.5596 14.4385 22.5596 14.0885V10.8515C22.5596 10.6245 22.4576 10.4115 22.2826 10.2685Z" fill="black"/>
</svg>