<svg width="24" height="24" viewBox="0 0 24 24" fill="none" xmlns="http://www.w3.org/2000/svg">
<path d="M9.88151 19.5043C10.3985 19.8273 10.9635 19.9903 11.5305 19.9903C12.0165 19.9903 12.5045 19.8703 12.9665 19.6303C14.0185 19.0823 14.7115 17.9913 14.7735 16.7913C15.0055 13.6113 15.0055 10.3873 14.7745 7.21232C14.7005 5.99632 14.0005 4.90432 12.9465 4.36132C11.9535 3.84932 10.8365 3.89732 9.88151 4.49532L6.87951 6.37132C6.62051 6.53432 6.24351 6.60232 5.86751 6.63132C5.53352 6.65574 5.24913 6.66585 5.00035 6.67469L4.98251 6.67532C4.08377 6.70731 3.49038 6.72844 2.70751 7.37932C1.68551 8.23432 1.69151 10.1603 1.69651 11.7083V12.2843C1.69151 13.8343 1.68651 15.7643 2.71051 16.6203C3.49551 17.2673 4.08651 17.2893 4.98051 17.3223L4.99427 17.3228C5.24598 17.3317 5.53338 17.3418 5.90951 17.3693C6.24751 17.3693 6.62851 17.4703 6.87951 17.6273L9.88151 19.5043Z" fill="black"/>
<path d="M18.161 16.125C17.747 16.125 17.411 15.789 17.411 15.375V8.62305C17.411 8.20905 17.747 7.87305 18.161 7.87305C18.575 7.87305 18.911 8.20905 18.911 8.62305V15.375C18.911 15.789 18.575 16.125 18.161 16.125Z" fill="black"/>
<path d="M20.8041 17.5821C20.8041 17.9961 21.1401 18.3321 21.5541 18.3321C21.9681 18.3321 22.3041 17.9961 22.3041 17.5821V6.41406C22.3041 6.00006 21.9681 5.66406 21.5541 5.66406C21.1401 5.66406 20.8041 6.00006 20.8041 6.41406V17.5821Z" fill="black"/>
</svg>