<svg width="24" height="24" viewBox="0 0 24 24" fill="none" xmlns="http://www.w3.org/2000/svg">
<path fill-rule="evenodd" clip-rule="evenodd" d="M3 12.3735C2.448 12.3735 2 12.8255 2 13.3775C2 13.9305 2.448 14.3775 3 14.3775C3.552 14.3775 4 13.9305 4 13.3775V13.3695C4 12.8165 3.552 12.3735 3 12.3735Z" fill="black"/>
<path fill-rule="evenodd" clip-rule="evenodd" d="M5.65771 7.99621C6.20971 7.99621 6.65771 7.54821 6.65771 6.99621V6.98721C6.65771 6.43421 6.20971 5.99121 5.65771 5.99121C5.10571 5.99121 4.65771 6.44421 4.65771 6.99621C4.65771 7.54821 5.10571 7.99621 5.65771 7.99621Z" fill="black"/>
<path fill-rule="evenodd" clip-rule="evenodd" d="M5.65771 18.6743C5.10571 18.6743 4.65771 19.1273 4.65771 19.6793C4.65771 20.2313 5.10571 20.6793 5.65771 20.6793C6.20971 20.6793 6.65771 20.2313 6.65771 19.6793V19.6703C6.65771 19.1173 6.20971 18.6743 5.65771 18.6743Z" fill="black"/>
<path fill-rule="evenodd" clip-rule="evenodd" d="M12.001 5.32431C12.553 5.32431 13.001 4.87631 13.001 4.32431V4.31531C13.001 3.76231 12.553 3.32031 12.001 3.32031C11.449 3.32031 11.001 3.77231 11.001 4.32431C11.001 4.87631 11.449 5.32431 12.001 5.32431Z" fill="black"/>
<path fill-rule="evenodd" clip-rule="evenodd" d="M18.3638 18.6743C17.8118 18.6743 17.3638 19.1273 17.3638 19.6793C17.3638 20.2313 17.8118 20.6793 18.3638 20.6793C18.9158 20.6793 19.3638 20.2313 19.3638 19.6793V19.6703C19.3638 19.1173 18.9158 18.6743 18.3638 18.6743Z" fill="black"/>
<path fill-rule="evenodd" clip-rule="evenodd" d="M18.3638 5.99121C17.8118 5.99121 17.3638 6.44421 17.3638 6.99621C17.3638 7.54821 17.8118 7.99621 18.3638 7.99621C18.9158 7.99621 19.3638 7.54821 19.3638 6.99621V6.98721C19.3638 6.43421 18.9158 5.99121 18.3638 5.99121Z" fill="black"/>
<path fill-rule="evenodd" clip-rule="evenodd" d="M21 12.3735C20.448 12.3735 20 12.8255 20 13.3775C20 13.9305 20.448 14.3775 21 14.3775C21.552 14.3775 22 13.9305 22 13.3775V13.3695C22 12.8165 21.552 12.3735 21 12.3735Z" fill="black"/>
<path fill-rule="evenodd" clip-rule="evenodd" d="M14.711 11.9281L13.311 13.5821C13.162 13.7571 12.951 13.8471 12.738 13.8471C12.567 13.8471 12.395 13.7891 12.253 13.6691C11.938 13.4021 11.898 12.9281 12.166 12.6121L13.566 10.9581C13.834 10.6431 14.307 10.6021 14.624 10.8711C14.94 11.1381 14.979 11.6121 14.711 11.9281ZM12.001 7.68311C8.89102 7.68311 6.36102 10.2121 6.36102 13.3201C6.36102 16.4281 8.89102 18.9581 12.001 18.9581C15.111 18.9581 17.641 16.4281 17.641 13.3201C17.641 10.2121 15.111 7.68311 12.001 7.68311Z" fill="black"/>
</svg>