<svg width="25" height="24" viewBox="0 0 25 24" fill="none" xmlns="http://www.w3.org/2000/svg">
<path d="M7.13075 17.4915C6.98383 19.345 8.03464 20.8784 10.075 21H14.9252C16.9665 20.8784 18.0164 19.345 17.8695 17.4915C17.7469 16.2052 16.5472 15.0328 14.4728 13.0411C13.8053 12.3464 13.8063 11.6526 14.4728 10.9579C16.5472 8.96627 17.7469 7.79481 17.8695 6.50854C18.0164 4.65503 16.9665 3.12162 14.9252 3H10.075C8.03464 3.12162 6.98383 4.65503 7.13075 6.50854C7.25335 7.79481 8.45302 8.96627 10.5274 10.9579C11.1949 11.6526 11.1949 12.3464 10.5274 13.0411C8.45302 15.0328 7.25335 16.2052 7.13075 17.4915Z" stroke="black" stroke-width="1.5" stroke-linecap="round" stroke-linejoin="round"/>
<path opacity="0.4" d="M7.12305 17.9079C7.43829 18.0607 7.82456 18.1599 8.33829 18.1599C10.4166 18.1599 10.4166 16.5039 12.4958 16.5039C14.575 16.5039 14.575 18.1599 16.6543 18.1599C17.167 18.1599 17.5543 18.0607 17.8783 17.9079" stroke="black" stroke-width="1.5" stroke-linecap="round" stroke-linejoin="round"/>
</svg>