<svg width="25" height="24" viewBox="0 0 25 24" fill="none" xmlns="http://www.w3.org/2000/svg">
<path d="M18.0277 6.50854C18.1746 4.65503 17.1238 3.12162 15.0835 3H10.2332C8.19188 3.12162 7.14205 4.65503 7.28897 6.50854C7.41156 7.79481 8.61124 8.96724 10.6856 10.9589C11.3531 11.6536 11.3521 12.3464 10.6856 13.0421C8.61124 15.0337 7.41156 16.2052 7.28897 17.4915C7.14205 19.345 8.19188 20.8784 10.2332 21H15.0835C17.1238 20.8784 18.1746 19.345 18.0277 17.4915C17.9051 16.2052 16.7054 15.0337 14.631 13.0421C13.9636 12.3464 13.9636 11.6536 14.631 10.9589C16.7054 8.96724 17.9051 7.79481 18.0277 6.50854Z" stroke="black" stroke-width="1.5" stroke-linecap="round" stroke-linejoin="round"/>
<path opacity="0.4" fill-rule="evenodd" clip-rule="evenodd" d="M12.6578 9.38987C12.4116 8.4996 11.4153 7.88468 10.741 7.0956C10.1271 6.51279 10.5396 5.47852 11.3861 5.47852H13.9294C14.7759 5.47852 15.1885 6.51279 14.5745 7.0956C13.9003 7.88468 12.9039 8.4996 12.6578 9.38987Z" stroke="black" stroke-width="1.5" stroke-linecap="round" stroke-linejoin="round"/>
</svg>