<svg width="25" height="24" viewBox="0 0 25 24" fill="none" xmlns="http://www.w3.org/2000/svg">
<path d="M14.1307 12.0254C14.1389 12.3637 14.3057 12.7021 14.631 13.0412C16.7054 15.0329 17.9051 16.2043 18.0277 17.4906C18.1736 19.3441 17.1238 20.8775 15.0835 20.9992H10.2332C8.19188 20.8775 7.14205 19.3441 7.28897 17.4906C7.41156 16.2043 8.61124 15.0329 10.6856 13.0412C11.0105 12.7021 11.1772 12.3637 11.1854 12.0254" stroke="black" stroke-width="1.5" stroke-linecap="round" stroke-linejoin="round"/>
<path opacity="0.4" d="M14.1307 12.0262C14.1222 11.6705 14.2889 11.315 14.631 10.9589C16.7054 8.96724 17.9051 7.79481 18.0277 6.50854C18.1736 4.65503 17.1238 3.12162 15.0835 3H10.2332C8.19188 3.12162 7.14205 4.65503 7.28897 6.50854C7.41156 7.79481 8.61124 8.96724 10.6846 10.9589C11.0272 11.315 11.194 11.6705 11.1854 12.0262" stroke="black" stroke-width="1.5" stroke-linecap="round" stroke-linejoin="round"/>
</svg>