<svg width="24" height="25" viewBox="0 0 24 25" fill="none" xmlns="http://www.w3.org/2000/svg">
<path fill-rule="evenodd" clip-rule="evenodd" d="M11.999 17.2495C11.062 17.2495 10.159 16.9085 9.457 16.2875C9.27 16.1235 9.178 15.8775 9.209 15.6305C9.24 15.3845 9.392 15.1695 9.613 15.0565L11.136 14.2835C11.507 14.0965 11.957 14.2435 12.145 14.6135C12.332 14.9825 12.185 15.4345 11.815 15.6215L11.623 15.7195C11.746 15.7395 11.872 15.7495 11.999 15.7495C13.291 15.7495 14.343 14.6985 14.343 13.4055C14.343 12.9915 14.679 12.6555 15.093 12.6555C15.507 12.6555 15.843 12.9915 15.843 13.4055C15.843 15.5255 14.118 17.2495 11.999 17.2495ZM8.156 13.4045C8.156 11.2865 9.88 9.5625 11.999 9.5625C12.937 9.5625 13.841 9.9035 14.542 10.5235C14.728 10.6875 14.82 10.9345 14.789 11.1805C14.758 11.4265 14.606 11.6415 14.385 11.7535L12.863 12.5265C12.493 12.7165 12.043 12.5675 11.854 12.1985C11.667 11.8285 11.814 11.3775 12.184 11.1895L12.375 11.0925C12.251 11.0725 12.126 11.0625 11.999 11.0625C10.707 11.0625 9.656 12.1125 9.656 13.4045C9.656 13.8185 9.32 14.1545 8.906 14.1545C8.492 14.1545 8.156 13.8185 8.156 13.4045ZM17.956 6.8515C17.594 6.8375 17.256 6.6855 17.014 6.4325C16.969 6.3825 16.79 6.1605 16.376 5.3835C15.898 4.4915 14.975 3.9375 13.965 3.9375H10.053C9.059 3.9375 8.143 4.4785 7.661 5.3485C7.226 6.1385 7.044 6.3725 6.996 6.4255C6.744 6.6885 6.405 6.8415 6.062 6.8565C4.101 6.8565 2.502 8.4525 2.5 10.4145V16.0565C2.5 18.5965 4.566 20.6635 7.106 20.6635H16.894C19.434 20.6635 21.5 18.5965 21.5 16.0565V10.4125C21.5 8.4485 19.902 6.8515 17.956 6.8515Z" fill="black"/>
</svg>