<svg width="24" height="25" viewBox="0 0 24 25" fill="none" xmlns="http://www.w3.org/2000/svg">
<path fill-rule="evenodd" clip-rule="evenodd" d="M17.107 2.54785H15.85C15.436 2.54785 15.1 2.88385 15.1 3.29785C15.1 3.71185 15.436 4.04785 15.85 4.04785H17.107C18.84 4.04785 20.25 5.45785 20.25 7.19085V8.76785C20.25 9.18185 20.586 9.51785 21 9.51785C21.414 9.51785 21.75 9.18185 21.75 8.76785V7.19085C21.75 4.63085 19.667 2.54785 17.107 2.54785Z" fill="black"/>
<path fill-rule="evenodd" clip-rule="evenodd" d="M3.00006 9.51785C3.41406 9.51785 3.75006 9.18185 3.75006 8.76785V7.19085C3.75006 5.45785 5.16006 4.04785 6.89306 4.04785H8.18206C8.59606 4.04785 8.93206 3.71185 8.93206 3.29785C8.93206 2.88385 8.59606 2.54785 8.18206 2.54785H6.89306C4.33306 2.54785 2.25006 4.63085 2.25006 7.19085V8.76785C2.25006 9.18185 2.58606 9.51785 3.00006 9.51785Z" fill="black"/>
<path fill-rule="evenodd" clip-rule="evenodd" d="M8.14994 20.553H6.89294C5.15994 20.553 3.74994 19.143 3.74994 17.411V15.834C3.74994 15.42 3.41394 15.084 2.99994 15.084C2.58594 15.084 2.24994 15.42 2.24994 15.834V17.411C2.24994 19.97 4.33294 22.053 6.89294 22.053H8.14994C8.56394 22.053 8.89994 21.717 8.89994 21.303C8.89994 20.889 8.56394 20.553 8.14994 20.553Z" fill="black"/>
<path fill-rule="evenodd" clip-rule="evenodd" d="M21.0001 15.083C20.5861 15.083 20.2501 15.419 20.2501 15.833V17.41C20.2501 19.143 18.8401 20.552 17.1071 20.552H15.8181C15.4041 20.552 15.0681 20.888 15.0681 21.302C15.0681 21.716 15.4041 22.052 15.8181 22.052H17.1071C19.6671 22.052 21.7501 19.97 21.7501 17.41V15.833C21.7501 15.419 21.4141 15.083 21.0001 15.083Z" fill="black"/>
<path fill-rule="evenodd" clip-rule="evenodd" d="M15.6571 9.63621L14.6471 10.6462C14.4971 10.7962 14.3071 10.8662 14.1171 10.8662C13.9171 10.8662 13.7271 10.7962 13.5871 10.6462C13.2871 10.3562 13.2871 9.87621 13.5871 9.58621L14.5971 8.57621C14.8871 8.27621 15.3571 8.27621 15.6571 8.57621C15.9471 8.86621 15.9471 9.33621 15.6571 9.63621ZM15.6571 16.0262C15.5071 16.1762 15.3171 16.2462 15.1271 16.2462C14.9371 16.2462 14.7371 16.1762 14.5971 16.0262L13.5871 15.0162C13.2871 14.7262 13.2871 14.2462 13.5871 13.9562C13.8771 13.6662 14.3471 13.6562 14.6471 13.9562L15.6571 14.9662C15.9471 15.2562 15.9471 15.7362 15.6571 16.0262ZM10.2671 10.6462C10.1171 10.7862 9.92706 10.8562 9.73706 10.8562C9.54706 10.8562 9.34706 10.7862 9.20706 10.6362L8.19706 9.63621C7.90706 9.33621 7.90706 8.86621 8.19706 8.57621C8.48706 8.27621 8.96706 8.27621 9.25706 8.57621L10.2671 9.57621C10.5571 9.87621 10.5571 10.3462 10.2671 10.6462ZM10.2671 15.0162L9.25706 16.0262C9.11706 16.1762 8.91706 16.2462 8.72706 16.2462C8.53706 16.2462 8.34706 16.1762 8.19706 16.0262C7.90706 15.7362 7.90706 15.2562 8.19706 14.9662L9.20706 13.9562C9.49706 13.6662 9.97706 13.6662 10.2671 13.9562C10.5571 14.2562 10.5571 14.7262 10.2671 15.0162ZM14.7771 5.86621H9.20706C7.01706 5.86621 5.54706 7.39621 5.54706 9.68621V14.9362C5.54706 17.2162 7.01706 18.7562 9.20706 18.7562H14.7771C16.9771 18.7562 18.4471 17.2162 18.4471 14.9362V9.68621C18.4471 7.39621 16.9771 5.86621 14.7771 5.86621Z" fill="black"/>
</svg>