<svg width="24" height="25" viewBox="0 0 24 25" fill="none" xmlns="http://www.w3.org/2000/svg">
<path fill-rule="evenodd" clip-rule="evenodd" d="M20.9244 18.1125L19.0704 15.0825C18.6614 14.4125 17.9774 13.9935 17.1944 13.9315C16.4184 13.8705 15.6694 14.1765 15.1564 14.7745C14.8714 15.1105 14.4514 15.2955 14.0124 15.2725C13.5704 15.2535 13.1704 15.0355 12.9134 14.6745L10.8944 11.8405C10.4224 11.1765 9.67136 10.7965 8.83936 10.8225C8.02436 10.8495 7.28336 11.2805 6.85636 11.9745L3.07936 18.1065C2.61236 18.8645 2.59236 19.7825 3.02736 20.5605C3.46236 21.3385 4.25336 21.8025 5.14336 21.8025H18.8564C19.7464 21.8025 20.5364 21.3395 20.9714 20.5625C21.4064 19.7865 21.3884 18.8705 20.9244 18.1125Z" fill="black"/>
<path fill-rule="evenodd" clip-rule="evenodd" d="M16.8784 9.3168C18.6754 9.3168 20.1374 7.8558 20.1374 6.0588C20.1374 4.2618 18.6754 2.7998 16.8784 2.7998C15.0814 2.7998 13.6194 4.2618 13.6194 6.0588C13.6194 7.8558 15.0814 9.3168 16.8784 9.3168Z" fill="black"/>
</svg>