<svg width="24" height="25" viewBox="0 0 24 25" fill="none" xmlns="http://www.w3.org/2000/svg">
<path fill-rule="evenodd" clip-rule="evenodd" d="M10.9296 16.5538C11.0389 16.4294 11.0258 16.2411 10.9015 16.1316L8.00742 13.5828C7.88318 13.4734 7.6938 13.4853 7.58424 13.6094L3.13451 18.6501C3.05762 18.7372 3.03729 18.8613 3.08708 18.9662C3.7191 20.2987 4.84132 21.2344 6.30842 21.6059C6.41469 21.6328 6.52451 21.5974 6.59652 21.5148C7.14973 20.8797 9.56664 18.1057 10.9296 16.5538Z" fill="black"/>
<path fill-rule="evenodd" clip-rule="evenodd" d="M16.685 11.1187C16.271 11.1187 15.935 10.8027 15.935 10.3887V10.3487C15.935 9.93466 16.271 9.59866 16.685 9.59866C17.099 9.59866 17.435 9.93466 17.435 10.3487C17.435 10.7637 17.099 11.1187 16.685 11.1187ZM16.095 17.2057C16.095 17.6197 15.759 17.9557 15.345 17.9557C14.931 17.9557 14.595 17.6197 14.595 17.2057C14.595 16.7917 14.931 16.4367 15.345 16.4367C15.759 16.4367 16.095 16.7527 16.095 17.1667V17.2057ZM15.477 7.41866C15.477 7.00466 15.813 6.66866 16.227 6.66866C16.641 6.66866 16.977 7.00466 16.977 7.41866C16.977 7.83266 16.641 8.18866 16.227 8.18866C15.813 8.18866 15.477 7.87166 15.477 7.45766V7.41866ZM6.827 8.38166C6.413 8.38166 6.077 8.06466 6.077 7.65066V7.61266C6.077 7.19866 6.413 6.86266 6.827 6.86266C7.241 6.86266 7.577 7.19866 7.577 7.61266C7.577 8.02666 7.241 8.38166 6.827 8.38166ZM16.213 2.80566H7.778C4.621 2.80566 2.5 5.02466 2.5 8.32666V16.2737C2.5 16.378 2.50562 16.4794 2.51403 16.5793C2.52864 16.7529 2.74842 16.8215 2.86371 16.6908L8.61 10.1807C9.685 8.96666 11.545 8.85366 12.758 9.92666L13.939 10.9637C14.529 11.4787 14.881 12.1947 14.932 12.9787C14.981 13.7617 14.723 14.5147 14.204 15.1017L8.60717 21.4636C8.4935 21.5928 8.58524 21.7957 8.75733 21.7957H16.213C19.375 21.7957 21.5 19.5767 21.5 16.2737V8.32666C21.5 5.02466 19.375 2.80566 16.213 2.80566Z" fill="black"/>
<path fill-rule="evenodd" clip-rule="evenodd" d="M13.4345 13.0742C13.4105 12.6922 13.2385 12.3432 12.9515 12.0922L11.7665 11.0522C11.1595 10.5152 10.2675 10.5702 9.73454 11.1732L8.97341 12.035C8.86362 12.1593 8.87553 12.3491 9.00001 12.4587L11.8914 15.0049C12.0158 15.1144 12.2053 15.1024 12.3148 14.9781L13.0795 14.1102C13.3325 13.8222 13.4585 13.4552 13.4345 13.0742Z" fill="black"/>
</svg>