<svg width="24" height="24" viewBox="0 0 24 24" fill="none" xmlns="http://www.w3.org/2000/svg">
<path d="M13.4734 3C14.0319 3 14.5661 3.22768 14.9524 3.63049L18.744 7.57978C19.1099 7.96119 19.3152 8.47005 19.3152 8.99935V17.2794C19.3152 19.3343 17.6494 21 15.5945 21H8.40425C6.34933 21 4.68457 19.3333 4.68457 17.2784V6.72065C4.68457 4.66573 6.3503 3 8.40522 3H13.4734Z" stroke="black" stroke-width="1.5" stroke-linecap="round" stroke-linejoin="round"/>
<path d="M13.8038 11.6367H10.1951C9.17833 11.6367 8.54492 12.3548 8.54492 13.3706V15.441C8.54492 16.4578 9.17833 17.1749 10.1951 17.1749H13.8038C14.8216 17.1749 15.454 16.4578 15.454 15.441V13.3706C15.454 12.3548 14.8177 11.6367 13.8038 11.6367Z" stroke="black" stroke-width="1.5" stroke-linecap="round" stroke-linejoin="round"/>
</svg>
