<svg width="24" height="24" viewBox="0 0 24 24" fill="none" xmlns="http://www.w3.org/2000/svg">
<path d="M13.4734 3C14.0319 3 14.5661 3.22768 14.9524 3.63049L18.744 7.57978C19.1099 7.96119 19.3152 8.47005 19.3152 8.99935V17.2794C19.3152 19.3343 17.6494 21 15.5945 21H8.40425C6.3503 21 4.68457 19.3333 4.68457 17.2784V6.72065C4.68457 4.66573 6.3503 3 8.40522 3H13.4734Z" stroke="black" stroke-width="1.5" stroke-linecap="round" stroke-linejoin="round"/>
<path d="M10.5293 11.4311C10.5293 10.6206 11.187 9.96289 11.9975 9.96289C12.808 9.96289 13.4657 10.6206 13.4657 11.4311C13.4657 13.2661 10.5293 13.2661 10.5293 15.4398H13.4657" stroke="black" stroke-width="1.5" stroke-linecap="round" stroke-linejoin="round"/>
</svg>
