<svg width="24" height="24" viewBox="0 0 24 24" fill="none" xmlns="http://www.w3.org/2000/svg">
<path d="M13.4734 3C14.0319 3 14.5661 3.22768 14.9524 3.63049L18.744 7.57978C19.1099 7.96119 19.3152 8.47005 19.3152 8.99935V17.2794C19.3152 19.3343 17.6494 21 15.5945 21H8.40425C6.34933 21 4.68457 19.3333 4.68457 17.2784V6.72065C4.68457 4.66573 6.3503 3 8.40522 3H13.4734Z" stroke="black" stroke-width="1.5" stroke-linecap="round" stroke-linejoin="round"/>
<path d="M11.5069 12.0031L10.0327 11.2549C10.5609 10.7884 11.2539 10.5059 12.014 10.5059C13.6676 10.5059 15.0084 11.8466 15.0084 13.5003" stroke="black" stroke-width="1.5" stroke-linecap="round" stroke-linejoin="round"/>
<path d="M12.5215 14.9972L13.9957 15.7454C13.4675 16.2119 12.7745 16.4944 12.0144 16.4944C10.3608 16.4944 9.02002 15.1536 9.02002 13.5" stroke="black" stroke-width="1.5" stroke-linecap="round" stroke-linejoin="round"/>
</svg>
