<svg width="24" height="24" viewBox="0 0 24 24" fill="none" xmlns="http://www.w3.org/2000/svg">
<path d="M16.8164 21.7393C14.4794 21.7393 11.4394 19.8843 7.77941 16.2243C4.10341 12.5503 2.24741 9.49932 2.26041 7.15732C2.25087 6.65978 2.34681 6.16586 2.54192 5.70807C2.73703 5.25028 3.0269 4.83901 3.39242 4.50132C3.40942 4.48032 3.46141 4.42932 3.48041 4.41032C4.82941 3.06232 5.72742 2.53232 6.65342 2.52832C7.71542 2.54232 8.46342 3.32832 9.40942 4.32832C9.64142 4.57232 9.89242 4.83632 10.1724 5.11632C10.6568 5.55521 10.9762 6.1469 11.0772 6.79273C11.1782 7.43856 11.0547 8.09949 10.7274 8.66532C10.3274 9.69732 9.97541 10.5883 11.6974 12.3093C13.4194 14.0303 14.3084 13.6803 15.3394 13.2763C15.9048 12.9487 16.5653 12.8248 17.211 12.9253C17.8566 13.0257 18.4483 13.3445 18.8874 13.8283C19.1634 14.1043 19.4244 14.3523 19.6654 14.5813C20.6654 15.5333 21.4564 16.2813 21.4704 17.3503C21.4814 18.2503 20.9374 19.1733 19.5914 20.5203L18.9644 20.0843L19.5004 20.6083C19.1628 20.9746 18.7513 21.2651 18.2931 21.4606C17.8349 21.6561 17.3405 21.7521 16.8424 21.7423L16.8164 21.7393ZM4.54641 5.46732C4.54641 5.46732 4.50042 5.51532 4.44642 5.57332C4.22247 5.77221 4.04528 6.01816 3.92754 6.29357C3.80981 6.56897 3.75445 6.86701 3.76542 7.16632C3.75842 8.49032 4.63341 10.9523 8.84441 15.1663C13.0354 19.3553 15.4934 20.2413 16.8214 20.2413H16.8384C17.138 20.2519 17.4363 20.1962 17.7118 20.0781C17.9874 19.96 18.2334 19.7825 18.4324 19.5583C18.4841 19.5032 18.5392 19.4515 18.5974 19.4033C19.5104 18.4833 19.9804 17.8033 19.9754 17.3673C19.9704 16.9313 19.4104 16.4033 18.6374 15.6673C18.3874 15.4293 18.1174 15.1733 17.8374 14.8873C17.1374 14.1873 16.7464 14.3373 15.8964 14.6703C14.6964 15.1383 13.0624 15.7833 10.6464 13.3703C8.23141 10.9563 8.87242 9.31732 9.34042 8.12032C9.67342 7.26932 9.82541 6.88132 9.12241 6.17832C8.83241 5.88932 8.57242 5.61532 8.33242 5.36332C7.60242 4.59432 7.07341 4.03832 6.64341 4.03332C5.81948 4.29898 5.09171 4.80073 4.55041 5.47632L4.54641 5.46732Z" fill="black"/>
<path d="M15.7676 8.97779C15.669 8.97792 15.5713 8.95858 15.4802 8.92087C15.3891 8.88316 15.3063 8.82784 15.2366 8.75806C15.1669 8.68828 15.1117 8.60543 15.0741 8.51427C15.0365 8.4231 15.0173 8.3254 15.0176 8.22679L15.0266 4.00779C15.0271 3.80913 15.1063 3.61878 15.2469 3.4784C15.3875 3.33802 15.5779 3.25905 15.7766 3.25879C15.8751 3.25905 15.9726 3.27871 16.0634 3.31664C16.1543 3.35458 16.2369 3.41004 16.3063 3.47987C16.3758 3.5497 16.4308 3.63253 16.4683 3.72362C16.5057 3.81472 16.5248 3.9123 16.5246 4.01079L16.5166 7.47679L19.9836 7.46879C20.1825 7.46879 20.3733 7.54781 20.5139 7.68846C20.6546 7.82911 20.7336 8.01988 20.7336 8.21879C20.7336 8.4177 20.6546 8.60847 20.5139 8.74912C20.3733 8.88977 20.1825 8.96879 19.9836 8.96879L15.7636 8.97779H15.7676Z" fill="black"/>
<path d="M15.7689 8.97913C15.6206 8.979 15.4758 8.93494 15.3525 8.85252C15.2293 8.7701 15.1333 8.65301 15.0766 8.51605C15.0199 8.37909 15.005 8.22839 15.0339 8.08299C15.0628 7.93759 15.1341 7.80401 15.2389 7.69913L20.4799 2.45813C20.622 2.32565 20.8101 2.25352 21.0044 2.25695C21.1987 2.26038 21.3841 2.33909 21.5215 2.47651C21.6589 2.61392 21.7376 2.7993 21.741 2.99361C21.7445 3.18791 21.6724 3.37595 21.5399 3.51813L16.2989 8.75913C16.2295 8.82906 16.1469 8.88452 16.0559 8.92228C15.9649 8.96005 15.8674 8.97937 15.7689 8.97913Z" fill="black"/>
</svg>
