<svg width="24" height="24" viewBox="0 0 24 24" fill="none" xmlns="http://www.w3.org/2000/svg">
<path fill-rule="evenodd" clip-rule="evenodd" d="M19.6141 14.1699C18.7913 13.442 16.7887 12.5744 11.9983 12.5753C7.20793 12.5757 5.20658 13.444 4.38483 14.172C3.9909 14.5209 3.85041 14.8521 3.7937 15.0922C3.76397 15.2181 3.75449 15.3317 3.75201 15.4291C3.75077 15.4778 3.75126 15.5206 3.75179 15.5676L3.75184 15.5718C3.75187 15.5741 3.75191 15.5768 3.75195 15.5799C3.75232 15.6053 3.75308 15.6579 3.75002 15.7138C3.75136 16.542 3.81772 17.0562 3.92151 17.3772C4.01533 17.6673 4.11976 17.7453 4.20701 17.7892C4.34598 17.8591 4.5843 17.906 5.05329 17.9119C5.27804 17.9147 5.52858 17.9087 5.82192 17.9013L5.84064 17.9008C6.12487 17.8937 6.44261 17.8857 6.78695 17.8856C7.31761 17.8854 7.49547 17.7397 7.60202 17.6159C7.67648 17.5294 7.74792 17.4115 7.83116 17.2378C7.87246 17.1516 7.91293 17.0599 7.95863 16.9553C7.96316 16.9449 7.96774 16.9344 7.97239 16.9238C8.01307 16.8306 8.05811 16.7274 8.10604 16.6239C8.32336 16.1549 8.6426 15.5817 9.28905 15.1498C9.92942 14.7219 10.7968 14.4935 11.9982 14.4935C13.1994 14.4935 14.0667 14.7218 14.7072 15.1493C15.3538 15.5808 15.6735 16.1534 15.8914 16.6221C15.9394 16.7255 15.9845 16.8286 16.0253 16.9217C16.0299 16.9323 16.0346 16.9429 16.0391 16.9533C16.0849 17.0578 16.1255 17.1495 16.1669 17.2356C16.2503 17.4091 16.3219 17.527 16.3964 17.6135C16.5032 17.7373 16.6814 17.8829 17.2119 17.8829C17.5615 17.8829 17.8836 17.8912 18.1712 17.8986L18.1779 17.8987C18.4716 17.9063 18.7223 17.9126 18.9474 17.91C19.4171 17.9048 19.6553 17.8585 19.794 17.789C19.8805 17.7457 19.9846 17.6686 20.0784 17.3783C20.1823 17.0569 20.2487 16.5415 20.25 15.7105C20.247 15.655 20.2478 15.6025 20.2482 15.577C20.2482 15.5739 20.2482 15.5712 20.2483 15.5689L20.2483 15.5664C20.2489 15.5189 20.2494 15.4758 20.2481 15.4266C20.2456 15.3294 20.2361 15.216 20.2062 15.0901C20.1494 14.8501 20.0085 14.5189 19.6141 14.1699ZM21.7479 15.6295C21.7479 15.6241 21.7479 15.611 21.7482 15.5864L21.7483 15.579C21.7488 15.5335 21.7496 15.4659 21.7476 15.388C21.7433 15.2206 21.7261 14.9988 21.6658 14.7443C21.5425 14.2237 21.2494 13.6139 20.608 13.0465C19.359 11.9415 16.8818 11.0744 11.9981 11.0753C7.11437 11.0757 4.63822 11.9436 3.39019 13.0492C2.74924 13.617 2.45678 14.2269 2.33385 14.7475C2.27376 15.002 2.25675 15.2237 2.2525 15.3909C2.25054 15.4681 2.25132 15.5353 2.25184 15.5804C2.25188 15.5833 2.25191 15.5862 2.25194 15.5889C2.25221 15.6126 2.25217 15.6257 2.25217 15.6311C2.25072 15.6501 2.25 15.6691 2.25 15.6881C2.25 16.5741 2.31553 17.2859 2.49426 17.8387C2.68403 18.4256 3.01457 18.8684 3.53291 19.1292C3.99953 19.3639 4.53741 19.4055 5.03443 19.4117C5.29268 19.415 5.5726 19.408 5.85957 19.4008L5.87263 19.4005C6.16005 19.3933 6.46188 19.3857 6.78745 19.3856C7.67249 19.3853 8.29788 19.1068 8.73887 18.5945C8.93818 18.3629 9.07658 18.1099 9.18384 17.8861C9.23779 17.7735 9.28774 17.6598 9.3332 17.5558C9.33777 17.5453 9.34229 17.5349 9.34677 17.5247C9.38838 17.4294 9.42661 17.3418 9.46706 17.2545C9.64259 16.8756 9.81723 16.6009 10.1224 16.397C10.4337 16.189 10.9757 15.9935 11.9982 15.9935C13.0204 15.9935 13.5628 16.1889 13.8745 16.3969C14.1801 16.6009 14.3551 16.8757 14.531 17.2543C14.5716 17.3415 14.6099 17.429 14.6516 17.5243C14.6561 17.5345 14.6607 17.5449 14.6652 17.5553C14.7108 17.6593 14.7609 17.7729 14.8149 17.8854C14.9224 18.109 15.0611 18.3618 15.2605 18.5931C15.7018 19.1048 16.3272 19.3829 17.2119 19.3829C17.5422 19.3829 17.8481 19.3907 18.1392 19.3982L18.1449 19.3984C18.4298 19.4057 18.7078 19.4128 18.9642 19.4099C19.4607 19.4044 19.9989 19.364 20.4658 19.1301C20.9851 18.87 21.316 18.4269 21.5058 17.8395C21.6845 17.2864 21.75 16.5735 21.75 15.6854C21.75 15.6667 21.7493 15.6481 21.7479 15.6295Z" fill="black"/>
<path fill-rule="evenodd" clip-rule="evenodd" d="M7.80756 4.81342C7.94862 4.67236 8.14008 4.5933 8.33957 4.59375L10.748 4.59915C11.1622 4.60008 11.4972 4.93662 11.4963 5.35083C11.4954 5.76504 11.1588 6.10008 10.7446 6.09915L9.08958 6.09544L9.09329 7.75047C9.09422 8.16468 8.75918 8.50122 8.34497 8.50215C7.93076 8.50308 7.59422 8.16804 7.59329 7.75383L7.58789 5.34543C7.58745 5.14594 7.6665 4.95448 7.80756 4.81342Z" fill="black"/>
<path fill-rule="evenodd" clip-rule="evenodd" d="M7.79981 4.8075C8.09274 4.51464 8.56761 4.51469 8.86047 4.80762L12.2055 8.15347L15.1374 5.22156C15.4303 4.92867 15.9052 4.92867 16.1981 5.22156C16.491 5.51445 16.491 5.98933 16.1981 6.28222L12.7358 9.74452C12.5951 9.88518 12.4044 9.9642 12.2054 9.96419C12.0065 9.96418 11.8157 9.88514 11.6751 9.74446L7.79969 5.86816C7.50683 5.57523 7.50688 5.10036 7.79981 4.8075Z" fill="black"/>
</svg>
