<svg width="24" height="24" viewBox="0 0 24 24" fill="none" xmlns="http://www.w3.org/2000/svg">
<path d="M16.8565 21.7491C14.5255 21.7491 11.4935 19.8991 7.84346 16.2491C4.17846 12.5841 2.32646 9.54208 2.34346 7.20608C2.33363 6.70957 2.42928 6.21662 2.62407 5.75981C2.81886 5.303 3.10837 4.89272 3.47347 4.55608C3.50092 4.52463 3.52997 4.49459 3.56047 4.46609C4.90647 3.12009 5.80845 2.54608 6.72545 2.58808C7.78545 2.60208 8.52545 3.38808 9.47545 4.37908C9.70645 4.62308 9.95747 4.88708 10.2365 5.16508C10.72 5.60306 11.0388 6.19358 11.1396 6.83816C11.2404 7.48273 11.1172 8.14237 10.7905 8.70708C10.3905 9.73508 10.0405 10.6231 11.7565 12.3371C13.4705 14.0511 14.3565 13.7051 15.3865 13.3011C15.9506 12.9741 16.6098 12.8505 17.2541 12.951C17.8983 13.0514 18.4887 13.3699 18.9265 13.8531C19.2015 14.1281 19.4625 14.3761 19.7025 14.6041C20.7025 15.5541 21.4895 16.3041 21.5025 17.3671C21.5135 18.2671 20.9705 19.1861 19.6275 20.5281L19.5345 20.6171C19.1976 20.9823 18.7871 21.272 18.3302 21.4671C17.8733 21.6622 17.3802 21.7583 16.8835 21.7491H16.8565ZM4.62245 5.52308C4.62245 5.52308 4.57745 5.57108 4.52245 5.63008C4.29931 5.82795 4.1228 6.07281 4.00557 6.34704C3.88834 6.62126 3.83333 6.91806 3.84447 7.21608C3.83647 8.53609 4.70846 10.9911 8.90746 15.1891C13.0865 19.3661 15.5365 20.2491 16.8605 20.2491H16.8785C17.1768 20.2596 17.4737 20.2042 17.748 20.0866C18.0224 19.969 18.2674 19.7923 18.4655 19.5691C18.5174 19.5146 18.5721 19.4628 18.6295 19.4141C19.5405 18.4981 20.0095 17.8141 20.0045 17.3871C19.9995 16.9601 19.4405 16.4261 18.6695 15.6921C18.4215 15.4561 18.1515 15.1991 17.8695 14.9151C17.1695 14.2151 16.7855 14.3671 15.9375 14.6981C14.7375 15.1661 13.1074 15.8051 10.6994 13.3981C8.29045 10.9891 8.93046 9.35408 9.39946 8.16009C9.73046 7.31309 9.88147 6.92708 9.18147 6.22708C8.89247 5.93808 8.63245 5.66508 8.39345 5.41308C7.66445 4.64708 7.13947 4.09308 6.71047 4.08808H6.69847C6.26947 4.08808 5.58847 4.55908 4.62047 5.52608L4.62245 5.52308Z" fill="black"/>
<path d="M18.3467 9.658C18.1478 9.658 17.957 9.57898 17.8163 9.43833C17.6757 9.29768 17.5967 9.10691 17.5967 8.908V3C17.5967 2.80109 17.6757 2.61033 17.8163 2.46967C17.957 2.32902 18.1478 2.25 18.3467 2.25C18.5456 2.25 18.7364 2.32902 18.877 2.46967C19.0177 2.61033 19.0967 2.80109 19.0967 3V8.908C19.0967 9.10691 19.0177 9.29768 18.877 9.43833C18.7364 9.57898 18.5456 9.658 18.3467 9.658Z" fill="black"/>
<path d="M20.9045 8.18098C20.7732 8.18109 20.6442 8.1466 20.5305 8.08098L15.4135 5.12698C15.3281 5.07773 15.2533 5.01216 15.1933 4.93399C15.1333 4.85583 15.0893 4.76662 15.0637 4.67144C15.0382 4.57626 15.0316 4.47698 15.0445 4.37927C15.0573 4.28156 15.0893 4.18734 15.1385 4.10198C15.1877 4.01662 15.2533 3.94179 15.3315 3.88178C15.4097 3.82176 15.4989 3.77773 15.5941 3.75219C15.6892 3.72666 15.7885 3.72012 15.8862 3.73295C15.9839 3.74578 16.0781 3.77774 16.1635 3.82698L21.2805 6.78098C21.4238 6.86346 21.5358 6.99099 21.5992 7.14373C21.6625 7.29646 21.6736 7.46583 21.6307 7.62551C21.5878 7.7852 21.4933 7.92624 21.362 8.02669C21.2307 8.12715 21.0699 8.18139 20.9045 8.18098Z" fill="black"/>
<path d="M15.7899 8.17903C15.6246 8.17943 15.4638 8.12519 15.3324 8.02474C15.2011 7.92428 15.1066 7.78324 15.0638 7.62356C15.0209 7.46388 15.032 7.29451 15.0953 7.14177C15.1586 6.98904 15.2706 6.86151 15.4139 6.77903L20.5309 3.82502C20.6163 3.77578 20.7105 3.74383 20.8082 3.731C20.9059 3.71817 21.0052 3.7247 21.1004 3.75024C21.1956 3.77578 21.2848 3.81981 21.3629 3.87983C21.4411 3.93984 21.5067 4.01467 21.5559 4.10002C21.6052 4.18538 21.6371 4.27961 21.65 4.37732C21.6628 4.47502 21.6562 4.5743 21.6307 4.66948C21.6052 4.76466 21.5611 4.85388 21.5011 4.93204C21.4411 5.0102 21.3663 5.07578 21.2809 5.12503L16.1639 8.07903C16.0502 8.14465 15.9212 8.17914 15.7899 8.17903Z" fill="black"/>
</svg>
