<svg width="24" height="24" viewBox="0 0 24 24" fill="none" xmlns="http://www.w3.org/2000/svg">
<path fill-rule="evenodd" clip-rule="evenodd" d="M3.25 12C3.25 9.83105 5.0084 8.07152 7.17848 8.07152C9.34783 8.07152 11.1061 9.83118 11.1061 12C11.1061 14.1688 9.34783 15.9285 7.17848 15.9285C5.0084 15.9285 3.25 14.169 3.25 12ZM7.17848 9.57152C5.8371 9.57152 4.75 10.6592 4.75 12C4.75 13.3408 5.8371 14.4285 7.17848 14.4285C8.51887 14.4285 9.6061 13.3409 9.6061 12C9.6061 10.6591 8.51887 9.57152 7.17848 9.57152Z" fill="black"/>
<path fill-rule="evenodd" clip-rule="evenodd" d="M12.8945 12.0007C12.8945 9.8318 14.6529 8.07227 16.823 8.07227C18.9924 8.07227 20.7506 9.83193 20.7506 12.0007C20.7506 14.1696 18.9924 15.9292 16.823 15.9292C14.6529 15.9292 12.8945 14.1697 12.8945 12.0007ZM16.823 9.57227C15.4816 9.57227 14.3945 10.66 14.3945 12.0007C14.3945 13.3415 15.4816 14.4292 16.823 14.4292C18.1634 14.4292 19.2506 13.3417 19.2506 12.0007C19.2506 10.6598 18.1634 9.57227 16.823 9.57227Z" fill="black"/>
<path fill-rule="evenodd" clip-rule="evenodd" d="M6.42773 15.1797C6.42773 14.7655 6.76352 14.4297 7.17773 14.4297H16.8216C17.2358 14.4297 17.5716 14.7655 17.5716 15.1797C17.5716 15.5939 17.2358 15.9297 16.8216 15.9297H7.17773C6.76352 15.9297 6.42773 15.5939 6.42773 15.1797Z" fill="black"/>
</svg>
