<svg width="24" height="24" viewBox="0 0 24 24" fill="none" xmlns="http://www.w3.org/2000/svg">
<path fill-rule="evenodd" clip-rule="evenodd" d="M12.0003 3.33472C12.4145 3.33472 12.7503 3.67051 12.7503 4.08472L12.7502 17.6329C13.1695 17.1429 13.6171 16.6927 14.1848 16.1702C14.4896 15.8896 14.964 15.9093 15.2446 16.214C15.5251 16.5188 15.5055 16.9932 15.2007 17.2738C14.1131 18.275 13.5304 18.9545 12.6267 20.3278C12.488 20.5386 12.2526 20.6655 12.0002 20.6655C11.7478 20.6655 11.5124 20.5386 11.3737 20.3278C10.47 18.9545 9.88734 18.275 8.79967 17.2738C8.49492 16.9932 8.47529 16.5188 8.75582 16.214C9.03635 15.9093 9.51082 15.8896 9.81557 16.1702C10.3833 16.6928 10.8309 17.143 11.2502 17.6329L11.2503 4.08471C11.2503 3.6705 11.5861 3.33471 12.0003 3.33472Z" fill="black"/>
<path fill-rule="evenodd" clip-rule="evenodd" d="M15.5703 3.33398C15.9845 3.33397 16.3203 3.66975 16.3203 4.08397C16.3204 5.99344 16.6472 7.70216 17.4265 9.2058C17.9443 10.2049 18.6728 11.1349 19.6716 11.9828C19.5562 11.4358 19.4798 10.8846 19.4158 10.2185C19.3761 9.80618 19.6782 9.4398 20.0905 9.40015C20.5028 9.3605 20.8692 9.6626 20.9089 10.0749C21.0344 11.3803 21.2016 12.1629 21.6788 13.519C21.7807 13.7364 21.7766 13.9988 21.6447 14.2208C21.4993 14.4657 21.2363 14.5977 20.9703 14.5875C20.9624 14.5872 20.9544 14.5868 20.9464 14.5863C19.4659 14.4881 18.6623 14.537 17.3502 14.7739C16.9426 14.8474 16.5525 14.5766 16.4789 14.169C16.4054 13.7614 16.6762 13.3713 17.0838 13.2977C17.6622 13.1933 18.158 13.1221 18.648 13.0811C17.5386 12.1286 16.6999 11.0638 16.0947 9.89598C15.1764 8.12396 14.8204 6.16277 14.8203 4.084C14.8203 3.66979 15.1561 3.33399 15.5703 3.33398Z" fill="black"/>
<path fill-rule="evenodd" clip-rule="evenodd" d="M8.42969 3.33398C8.8439 3.33399 9.17968 3.66979 9.17967 4.084C9.17962 6.16277 8.82362 8.12396 7.90529 9.89598C7.30005 11.0638 6.46138 12.1286 5.35199 13.0811C5.84201 13.1221 6.33774 13.1933 6.9162 13.2977C7.32383 13.3713 7.59463 13.7614 7.52106 14.169C7.44748 14.5766 7.05739 14.8474 6.64976 14.7739C5.33771 14.537 4.53409 14.4881 3.05359 14.5863C3.0456 14.5868 3.03762 14.5872 3.02965 14.5875C2.76371 14.5977 2.50067 14.4657 2.35524 14.2208C2.22341 13.9988 2.21933 13.7364 2.32121 13.519C2.79835 12.1629 2.96558 11.3803 3.09111 10.0749C3.13076 9.6626 3.49715 9.3605 3.90946 9.40015C4.32177 9.4398 4.62388 9.80618 4.58423 10.2185C4.52017 10.8846 4.44379 11.4358 4.32839 11.9828C5.32717 11.1349 6.05573 10.2049 6.5735 9.2058C7.35275 7.70216 7.67962 5.99344 7.67967 4.08397C7.67968 3.66975 8.01547 3.33397 8.42969 3.33398Z" fill="black"/>
</svg>