<svg width="24" height="24" viewBox="0 0 24 24" fill="none" xmlns="http://www.w3.org/2000/svg">
<path fill-rule="evenodd" clip-rule="evenodd" d="M16.2138 8.75582C16.5185 8.47529 16.993 8.49492 17.2735 8.79967C18.2748 9.88734 18.9542 10.47 20.3275 11.3737C20.5384 11.5124 20.6653 11.7478 20.6653 12.0002C20.6653 12.2526 20.5384 12.488 20.3275 12.6267C18.9542 13.5304 18.2748 14.1131 17.2735 15.2007C16.993 15.5055 16.5185 15.5251 16.2138 15.2446C15.909 14.964 15.8894 14.4896 16.1699 14.1848C16.6925 13.6171 17.1427 13.1695 17.6326 12.7502L4.08448 12.7503C3.67026 12.7503 3.33447 12.4145 3.33447 12.0003C3.33447 11.5861 3.67026 11.2503 4.08447 11.2503L17.6327 11.2502C17.1427 10.8309 16.6925 10.3833 16.1699 9.81557C15.8894 9.51082 15.909 9.03635 16.2138 8.75582Z" fill="black"/>
<path fill-rule="evenodd" clip-rule="evenodd" d="M3.33447 15.5703C3.33448 15.1561 3.67028 14.8203 4.08449 14.8203C6.16326 14.8204 8.12445 15.1764 9.89647 16.0947C11.0643 16.6999 12.129 17.5386 13.0816 18.648C13.1225 18.158 13.1938 17.6622 13.2982 17.0838C13.3718 16.6762 13.7619 16.4054 14.1695 16.4789C14.5771 16.5525 14.8479 16.9426 14.7743 17.3502C14.5375 18.6623 14.4886 19.4659 14.5867 20.9464C14.5873 20.9544 14.5877 20.9624 14.588 20.9703C14.5982 21.2363 14.4662 21.4993 14.2213 21.6447C13.9993 21.7766 13.7369 21.7807 13.5195 21.6788C12.1634 21.2016 11.3808 21.0344 10.0754 20.9089C9.66309 20.8692 9.36099 20.5028 9.40063 20.0905C9.44028 19.6782 9.80667 19.3761 10.219 19.4158C10.8851 19.4798 11.4363 19.5562 11.9833 19.6716C11.1354 18.6728 10.2054 17.9443 9.20629 17.4265C7.70265 16.6472 5.99392 16.3204 4.08445 16.3203C3.67024 16.3203 3.33446 15.9845 3.33447 15.5703Z" fill="black"/>
<path fill-rule="evenodd" clip-rule="evenodd" d="M13.5195 2.32121C12.1634 2.79835 11.3808 2.96558 10.0754 3.09111C9.66309 3.13076 9.36099 3.49715 9.40063 3.90946C9.44028 4.32177 9.80667 4.62388 10.219 4.58423C10.8851 4.52017 11.4363 4.44379 11.9833 4.32839C11.1354 5.32717 10.2054 6.05573 9.20629 6.5735C7.70265 7.35275 5.99392 7.67962 4.08445 7.67967C3.67024 7.67968 3.33446 8.01547 3.33447 8.42969C3.33448 8.8439 3.67028 9.17968 4.08449 9.17967C6.16326 9.17962 8.12445 8.82362 9.89647 7.90529C11.0643 7.30005 12.129 6.46138 13.0816 5.35199C13.1225 5.84201 13.1938 6.33774 13.2982 6.9162C13.3718 7.32383 13.7619 7.59463 14.1695 7.52106C14.5771 7.44748 14.8479 7.05739 14.7743 6.64976C14.5375 5.33771 14.4886 4.53409 14.5867 3.05359C14.5873 3.0456 14.5877 3.03762 14.588 3.02965C14.5982 2.76371 14.4662 2.50067 14.2213 2.35524C13.9993 2.22341 13.7369 2.21933 13.5195 2.32121Z" fill="black"/>
</svg>