<svg width="24" height="24" viewBox="0 0 24 24" fill="none" xmlns="http://www.w3.org/2000/svg">
<path fill-rule="evenodd" clip-rule="evenodd" d="M13.5357 7.96967C13.8286 7.67678 14.3035 7.67678 14.5964 7.96967L16.5966 9.96984C16.8895 10.2627 16.8895 10.7376 16.5966 11.0305L14.5964 13.0307C14.3035 13.3236 13.8286 13.3236 13.5357 13.0307C13.2428 12.7378 13.2428 12.2629 13.5357 11.97L14.2553 11.2505L11.202 11.2505C9.81102 11.2505 8.68359 12.3781 8.68359 13.7683V15.5C8.68359 15.9142 8.34781 16.25 7.93359 16.25C7.51938 16.25 7.18359 15.9142 7.18359 15.5V13.7683C7.18359 11.5495 8.98276 9.75048 11.202 9.75048L14.2559 9.75049L13.5357 9.03033C13.2428 8.73744 13.2428 8.26256 13.5357 7.96967Z" fill="black"/>
<path fill-rule="evenodd" clip-rule="evenodd" d="M12 3.75C7.44335 3.75 3.75 7.44421 3.75 12C3.75 16.5567 7.44329 20.25 12 20.25C16.5567 20.25 20.25 16.5567 20.25 12C20.25 7.44421 16.5567 3.75 12 3.75ZM2.25 12C2.25 6.61589 6.61481 2.25 12 2.25C17.3852 2.25 21.75 6.61589 21.75 12C21.75 17.3851 17.3851 21.75 12 21.75C6.61487 21.75 2.25 17.3851 2.25 12Z" fill="black"/>
</svg>