<svg width="24" height="24" viewBox="0 0 24 24" fill="none" xmlns="http://www.w3.org/2000/svg">
<path fill-rule="evenodd" clip-rule="evenodd" d="M10.3016 4.11624C9.8134 3.62808 9.02194 3.62808 8.53379 4.11624L5.09073 7.5593C4.60257 8.04745 4.60257 8.83891 5.09073 9.32706C5.57888 9.81522 6.37034 9.81522 6.85849 9.32707L6.88731 9.29825C7.10181 9.08375 7.4244 9.01958 7.70466 9.13567C7.98491 9.25175 8.16764 9.52523 8.16764 9.82858V13.3737C8.16764 17.1713 11.2462 20.2498 15.0438 20.2498H18.0248C18.7151 20.2498 19.2748 19.6902 19.2748 18.9998C19.2748 18.3095 18.7151 17.7498 18.0248 17.7498H15.0438C12.6269 17.7498 10.6676 15.7906 10.6676 13.3737V9.82852C10.6676 9.52518 10.8504 9.2517 11.1306 9.13561C11.4109 9.01953 11.7335 9.08369 11.948 9.29819L11.9768 9.32706C12.465 9.81522 13.2565 9.81522 13.7446 9.32707C14.2328 8.83891 14.2328 8.04745 13.7446 7.5593L10.3016 4.11624ZM7.47313 3.05558C8.54707 1.98164 10.2883 1.98164 11.3622 3.05558L14.8053 6.49864C15.8792 7.57258 15.8792 9.31378 14.8053 10.3877C14.0905 11.1025 13.0801 11.3416 12.1676 11.1049V13.3737C12.1676 14.9621 13.4553 16.2498 15.0438 16.2498H18.0248C19.5436 16.2498 20.7748 17.481 20.7748 18.9998C20.7748 20.5186 19.5436 21.7498 18.0248 21.7498H15.0438C10.4178 21.7498 6.66764 17.9997 6.66764 13.3737L6.66764 11.1049C5.75517 11.3415 4.74483 11.1025 4.03007 10.3877C2.95612 9.31378 2.95612 7.57258 4.03007 6.49864L7.47313 3.05558L8.00346 3.58591L7.47313 3.05558Z" fill="black"/>
</svg>