<svg width="24" height="24" viewBox="0 0 24 24" fill="none" xmlns="http://www.w3.org/2000/svg">
<path fill-rule="evenodd" clip-rule="evenodd" d="M8.09386 10.0662C8.38739 9.77392 8.86226 9.77495 9.15452 10.0685L12.0002 12.9265L14.846 10.0685C15.1382 9.77495 15.6131 9.77392 15.9066 10.0662C16.2001 10.3584 16.2012 10.8333 15.9089 11.1268L12.5317 14.5186C12.391 14.66 12.1997 14.7394 12.0002 14.7394C11.8008 14.7394 11.6095 14.66 11.4688 14.5186L8.09157 11.1268C7.79931 10.8333 7.80034 10.3584 8.09386 10.0662Z" fill="black"/>
<path fill-rule="evenodd" clip-rule="evenodd" d="M9.26904 20.9995C9.26904 20.5853 9.60483 20.2495 10.019 20.2495H13.9818C14.396 20.2495 14.7318 20.5853 14.7318 20.9995C14.7318 21.4137 14.396 21.7495 13.9818 21.7495H10.019C9.60483 21.7495 9.26904 21.4137 9.26904 20.9995Z" fill="black"/>
<path fill-rule="evenodd" clip-rule="evenodd" d="M2.92364 16.1718C3.33387 16.1144 3.7129 16.4005 3.77022 16.8108C4.03871 18.7321 5.27346 20.0151 7.1611 20.2357C7.57251 20.2838 7.86705 20.6563 7.81896 21.0677C7.77087 21.4791 7.39838 21.7737 6.98696 21.7256C4.36972 21.4197 2.64022 19.5629 2.28465 17.0183C2.22733 16.6081 2.51341 16.2291 2.92364 16.1718Z" fill="black"/>
<path fill-rule="evenodd" clip-rule="evenodd" d="M21.0333 16.1718C21.4435 16.2291 21.7296 16.6081 21.6723 17.0183C21.317 19.5606 19.5991 21.4194 16.9797 21.7256C16.5683 21.7737 16.1958 21.4791 16.1477 21.0677C16.0996 20.6563 16.3942 20.2838 16.8056 20.2357C18.6911 20.0153 19.9179 18.7344 20.1867 16.8108C20.244 16.4005 20.6231 16.1144 21.0333 16.1718Z" fill="black"/>
<path fill-rule="evenodd" clip-rule="evenodd" d="M21 9.26807C21.4142 9.26807 21.75 9.60385 21.75 10.0181V13.9808C21.75 14.395 21.4142 14.7308 21 14.7308C20.5858 14.7308 20.25 14.395 20.25 13.9808V10.0181C20.25 9.60385 20.5858 9.26807 21 9.26807Z" fill="black"/>
<path fill-rule="evenodd" clip-rule="evenodd" d="M9.26953 2.99951C9.26953 2.5853 9.60532 2.24951 10.0195 2.24951H13.9823C14.3965 2.24951 14.7323 2.5853 14.7323 2.99951C14.7323 3.41373 14.3965 3.74951 13.9823 3.74951H10.0195C9.60532 3.74951 9.26953 3.41373 9.26953 2.99951Z" fill="black"/>
<path fill-rule="evenodd" clip-rule="evenodd" d="M3 9.26807C3.41421 9.26807 3.75 9.60385 3.75 10.0181V13.9808C3.75 14.395 3.41421 14.7308 3 14.7308C2.58579 14.7308 2.25 14.395 2.25 13.9808V10.0181C2.25 9.60385 2.58579 9.26807 3 9.26807Z" fill="black"/>
<path fill-rule="evenodd" clip-rule="evenodd" d="M7.81896 2.93198C7.86705 3.34339 7.57251 3.71589 7.1611 3.76397C5.27557 3.98436 4.03902 5.2751 3.77022 7.19869C3.7129 7.60892 3.33387 7.895 2.92364 7.83768C2.51341 7.78035 2.22733 7.40133 2.28465 6.9911C2.63991 4.44881 4.36761 2.58027 6.98696 2.27412C7.39838 2.22603 7.77087 2.52056 7.81896 2.93198Z" fill="black"/>
<path fill-rule="evenodd" clip-rule="evenodd" d="M16.1477 2.93198C16.1958 2.52056 16.5683 2.22603 16.9797 2.27412C19.6012 2.58053 21.3173 4.45109 21.6723 6.9911C21.7296 7.40133 21.4435 7.78035 21.0333 7.83768C20.6231 7.895 20.244 7.60892 20.1867 7.19869C19.9176 5.27282 18.689 3.98411 16.8056 3.76397C16.3942 3.71589 16.0996 3.34339 16.1477 2.93198Z" fill="black"/>
</svg>