<svg width="24" height="24" viewBox="0 0 24 24" fill="none" xmlns="http://www.w3.org/2000/svg">
<path fill-rule="evenodd" clip-rule="evenodd" d="M17.2647 8.28156C17.557 7.98806 18.0319 7.98708 18.3254 8.27937L21.499 11.4399C21.653 11.5772 21.75 11.7772 21.75 11.9998C21.75 12.0001 21.75 12.0004 21.75 12.0006C21.75 12.0009 21.75 12.0012 21.75 12.0015C21.75 12.201 21.6705 12.3922 21.5292 12.533L18.3253 15.7225C18.0318 16.0147 17.5569 16.0137 17.2647 15.7201C16.9724 15.4266 16.9735 14.9517 17.267 14.6595L19.1852 12.7498H15.7476C15.3333 12.7498 14.9976 12.414 14.9976 11.9998C14.9976 11.5856 15.3333 11.2498 15.7476 11.2498L19.1824 11.2498L17.2669 9.34222C16.9734 9.04993 16.9725 8.57506 17.2647 8.28156Z" fill="black"/>
<path fill-rule="evenodd" clip-rule="evenodd" d="M12 3.75C12.4142 3.75 12.75 4.08579 12.75 4.5L12.75 19.5C12.75 19.9142 12.4142 20.25 12 20.25C11.5858 20.25 11.25 19.9142 11.25 19.5L11.25 4.5C11.25 4.08579 11.5858 3.75 12 3.75Z" fill="black"/>
<path fill-rule="evenodd" clip-rule="evenodd" d="M6.73528 8.28156C6.443 7.98806 5.96812 7.98708 5.67462 8.27937L2.50103 11.4399C2.34699 11.5772 2.25 11.7772 2.25 11.9998C2.25 12.1996 2.32929 12.392 2.47086 12.533L5.67472 15.7225C5.96826 16.0147 6.44314 16.0137 6.73537 15.7201C7.02761 15.4266 7.02655 14.9517 6.733 14.6595L4.81478 12.7498L8.2463 12.7498C8.66052 12.7498 8.9963 12.414 8.9963 11.9998C8.9963 11.5856 8.66052 11.2498 8.2463 11.2498L4.81759 11.2498L6.73309 9.34222C7.02659 9.04993 7.02757 8.57506 6.73528 8.28156Z" fill="black"/>
</svg>