<svg width="24" height="24" viewBox="0 0 24 24" fill="none" xmlns="http://www.w3.org/2000/svg">
<path fill-rule="evenodd" clip-rule="evenodd" d="M5.51719 8.28156C5.80947 7.98806 6.28435 7.98708 6.57784 8.27937L9.75144 11.4399C9.90547 11.5772 10.0025 11.7772 10.0025 11.9998C10.0025 12.1996 9.92318 12.392 9.78161 12.533L6.57775 15.7225C6.2842 16.0147 5.80933 16.0137 5.51709 15.7201C5.22486 15.4266 5.22592 14.9517 5.51947 14.6595L7.43768 12.7498L3 12.7498C2.58579 12.7498 2.25 12.414 2.25 11.9998C2.25 11.5856 2.58579 11.2498 3 11.2498L7.43488 11.2498L5.51938 9.34222C5.22588 9.04993 5.2249 8.57506 5.51719 8.28156Z" fill="black"/>
<path fill-rule="evenodd" clip-rule="evenodd" d="M18.4828 8.28156C18.1906 7.98806 17.7157 7.98708 17.4222 8.27937L14.2486 11.4399C14.0946 11.5772 13.9976 11.7772 13.9976 11.9998C13.9976 12.1996 14.0768 12.392 14.2184 12.533L17.4223 15.7225C17.7158 16.0147 18.1907 16.0137 18.4829 15.7201C18.7752 15.4266 18.7741 14.9517 18.4806 14.6595L16.5623 12.7498L21 12.7498C21.4142 12.7498 21.75 12.414 21.75 11.9998C21.75 11.5856 21.4142 11.2498 21 11.2498L16.5651 11.2498L18.4806 9.34222C18.7741 9.04993 18.7751 8.57506 18.4828 8.28156Z" fill="black"/>
<path fill-rule="evenodd" clip-rule="evenodd" d="M12 3.75C12.4142 3.75 12.75 4.08579 12.75 4.5L12.75 19.5C12.75 19.9142 12.4142 20.25 12 20.25C11.5858 20.25 11.25 19.9142 11.25 19.5L11.25 4.5C11.25 4.08579 11.5858 3.75 12 3.75Z" fill="black"/>
</svg>