<svg width="24" height="24" viewBox="0 0 24 24" fill="none" xmlns="http://www.w3.org/2000/svg">
<path fill-rule="evenodd" clip-rule="evenodd" d="M18.6814 5.81161C18.559 5.54551 18.2929 5.375 18 5.375L5.99999 5.375C5.70709 5.375 5.44099 5.54551 5.3186 5.81161C5.19622 6.07771 5.23993 6.39071 5.43055 6.61309L11.4305 13.6131C11.573 13.7793 11.781 13.875 12 13.875C12.2189 13.875 12.4269 13.7793 12.5694 13.6131L18.5694 6.61309C18.76 6.39071 18.8038 6.07771 18.6814 5.81161ZM16.3693 6.875L12 11.9726L7.63066 6.875L16.3693 6.875Z" fill="black"/>
<path fill-rule="evenodd" clip-rule="evenodd" d="M18 17.375L6 17.375C5.58579 17.375 5.25 17.7108 5.25 18.125C5.25 18.5392 5.58579 18.875 6 18.875L18 18.875C18.4142 18.875 18.75 18.5392 18.75 18.125C18.75 17.7108 18.4142 17.375 18 17.375Z" fill="black"/>
</svg>