<svg width="24" height="24" viewBox="0 0 24 24" fill="none" xmlns="http://www.w3.org/2000/svg">
<path fill-rule="evenodd" clip-rule="evenodd" d="M5.0094 14.573C5.42362 14.5739 5.75867 14.9104 5.75777 15.3246L5.75195 17.9973C5.75165 18.1358 5.864 18.2481 6.0025 18.2478L8.67514 18.242C9.08935 18.2411 9.42587 18.5762 9.42677 18.9904C9.42767 19.4046 9.09261 19.7411 8.6784 19.742L6.00576 19.7478C5.03629 19.7499 4.24985 18.9635 4.25196 17.994L4.25777 15.3214C4.25867 14.9072 4.59519 14.5721 5.0094 14.573Z" fill="black"/>
<path fill-rule="evenodd" clip-rule="evenodd" d="M18.2471 6.00445C18.2474 5.86595 18.135 5.75361 17.9965 5.75391L15.3239 5.75972C14.9097 5.76062 14.5732 5.42557 14.5723 5.01136C14.5714 4.59714 14.9064 4.26063 15.3206 4.25973L17.9933 4.25391C18.9627 4.2518 19.7492 5.03824 19.7471 6.00771L19.7413 8.68036C19.7404 9.09457 19.4038 9.42962 18.9896 9.42872C18.5754 9.42782 18.2404 9.0913 18.2413 8.67709L18.2471 6.00445Z" fill="black"/>
<path fill-rule="evenodd" clip-rule="evenodd" d="M6.00445 5.75391C5.86595 5.75361 5.75361 5.86595 5.75391 6.00445L5.75972 8.67709C5.76062 9.0913 5.42557 9.42782 5.01136 9.42872C4.59714 9.42962 4.26063 9.09457 4.25973 8.68036L4.25391 6.00771C4.2518 5.03824 5.03824 4.2518 6.00771 4.25391L8.68036 4.25973C9.09457 4.26063 9.42962 4.59714 9.42872 5.01136C9.42782 5.42557 9.0913 5.76062 8.67709 5.75972L6.00445 5.75391Z" fill="black"/>
<path fill-rule="evenodd" clip-rule="evenodd" d="M18.9877 14.5742C19.4019 14.5733 19.7384 14.9084 19.7393 15.3226L19.7451 17.9952C19.7472 18.9647 18.9608 19.7511 17.9913 19.749L15.3187 19.7432C14.9045 19.7423 14.5694 19.4058 14.5703 18.9916C14.5712 18.5774 14.9077 18.2423 15.3219 18.2432L17.9946 18.249C18.1331 18.2493 18.2454 18.137 18.2451 17.9985L18.2393 15.3259C18.2384 14.9116 18.5735 14.5751 18.9877 14.5742Z" fill="black"/>
<path fill-rule="evenodd" clip-rule="evenodd" d="M19.0303 4.96967C19.3232 5.26256 19.3232 5.73744 19.0303 6.03033L6.02838 19.0323C5.73548 19.3252 5.26061 19.3252 4.96772 19.0323C4.67482 18.7394 4.67482 18.2645 4.96772 17.9716L17.9697 4.96967C18.2626 4.67678 18.7374 4.67678 19.0303 4.96967Z" fill="black"/>
</svg>