<svg width="24" height="24" viewBox="0 0 24 24" fill="none" xmlns="http://www.w3.org/2000/svg">
<path fill-rule="evenodd" clip-rule="evenodd" d="M18.6814 18.3134C18.559 18.5795 18.2929 18.75 18 18.75L5.99999 18.75C5.70709 18.75 5.44099 18.5795 5.3186 18.3134C5.19622 18.0473 5.23993 17.7343 5.43055 17.5119L11.4305 10.5119C11.573 10.3457 11.781 10.25 12 10.25C12.2189 10.25 12.4269 10.3457 12.5694 10.5119L18.5694 17.5119C18.76 17.7343 18.8038 18.0473 18.6814 18.3134ZM16.3693 17.25L12 12.1524L7.63066 17.25L16.3693 17.25Z" fill="black"/>
<path fill-rule="evenodd" clip-rule="evenodd" d="M18 6.75L6 6.75C5.58579 6.75 5.25 6.41421 5.25 6C5.25 5.58579 5.58579 5.25 6 5.25L18 5.25C18.4142 5.25 18.75 5.58579 18.75 6C18.75 6.41421 18.4142 6.75 18 6.75Z" fill="black"/>
</svg>