<svg width="24" height="24" viewBox="0 0 24 24" fill="none" xmlns="http://www.w3.org/2000/svg">
<path fill-rule="evenodd" clip-rule="evenodd" d="M3.73729 3.89761C4.72148 2.8408 6.12435 2.25 7.78411 2.25H16.2178C17.8772 2.25 19.2796 2.84086 20.2634 3.89773C21.2416 4.94853 21.75 6.39899 21.75 8.02638V15.9736C21.75 17.6019 21.2388 19.0523 20.2598 20.1026C19.2753 21.1588 17.8733 21.75 16.2178 21.75H7.78313C6.12379 21.75 4.72117 21.1592 3.73714 20.1024C2.75872 19.0516 2.25 17.6011 2.25 15.9736V8.02638C2.25 6.39889 2.75873 4.94839 3.73729 3.89761ZM4.835 4.91988C4.15879 5.64599 3.75 6.70868 3.75 8.02638V15.9736C3.75 17.2913 4.15879 18.354 4.83492 19.0802C5.50542 19.8003 6.49437 20.25 7.78313 20.25H16.2178C17.5017 20.25 18.4908 19.8006 19.1625 19.0799C19.8398 18.3533 20.25 17.2905 20.25 15.9736V8.02638C20.25 6.70857 19.8414 5.64585 19.1655 4.91976C18.4952 4.19973 17.5066 3.75 16.2178 3.75H7.78411C6.49478 3.75 5.5056 4.1998 4.835 4.91988Z" fill="black"/>
<path fill-rule="evenodd" clip-rule="evenodd" d="M9.05805 5.99878C9.35094 5.70589 9.82582 5.70589 10.1187 5.99878L14.122 10.002C14.8292 10.7093 15.1897 11.5762 15.1577 12.4767C15.1259 13.369 14.7123 14.2119 14.0273 14.8969L10.9213 18.003C10.6284 18.2959 10.1535 18.2959 9.8606 18.003C9.56771 17.7101 9.56771 17.2352 9.8606 16.9423L12.9666 13.8363C13.4326 13.3703 13.6427 12.8723 13.6586 12.4234C13.6743 11.9827 13.5066 11.508 13.0613 11.0627L9.05805 7.05944C8.76516 6.76655 8.76516 6.29168 9.05805 5.99878Z" fill="black"/>
<path fill-rule="evenodd" clip-rule="evenodd" d="M10.3403 7.27741L12.7777 7.2774C13.192 7.2774 13.5277 6.94162 13.5277 6.5274C13.5277 6.11319 13.192 5.7774 12.7777 5.7774L9.59033 5.77741C9.17612 5.77741 8.84033 6.11319 8.84033 6.5274V9.71482C8.84033 10.129 9.17612 10.4648 9.59033 10.4648C10.0045 10.4648 10.3403 10.129 10.3403 9.71482V7.27741Z" fill="black"/>
</svg>