<svg width="24" height="24" viewBox="0 0 24 24" fill="none" xmlns="http://www.w3.org/2000/svg">
<path fill-rule="evenodd" clip-rule="evenodd" d="M13.5924 2.67624C13.5923 2.67621 13.5924 2.67627 13.5924 2.67624L19.2784 5.95807C20.2637 6.52712 20.8707 7.57959 20.8707 8.7171V15.2819C20.8707 16.4198 20.2636 17.471 19.2786 18.0399L13.5924 21.3228C13.5923 21.3228 13.5924 21.3228 13.5924 21.3228C12.6072 21.8917 11.393 21.8917 10.4078 21.3228C10.4078 21.3228 10.4079 21.3229 10.4078 21.3228L4.72162 18.0399C3.73657 17.4711 3.12939 16.4198 3.12939 15.2819V8.7171C3.12939 7.57959 3.7362 6.52721 4.72153 5.95816L10.4077 2.67624C10.4077 2.67627 10.4078 2.67621 10.4077 2.67624C11.3928 2.1074 12.6072 2.1074 13.5924 2.67624ZM12.8422 3.97518C12.3212 3.67429 11.6789 3.67429 11.1579 3.97518L5.4717 7.25711C5.47164 7.25714 5.47176 7.25708 5.4717 7.25711C4.95093 7.55794 4.62939 8.11495 4.62939 8.7171V15.2819C4.62939 15.8838 4.95051 16.4399 5.47161 16.7409C5.47159 16.7409 5.47164 16.7409 5.47161 16.7409L11.1578 20.0238C11.6788 20.3247 12.3212 20.3247 12.8422 20.0238L18.5284 16.7409C18.5284 16.741 18.5284 16.7409 18.5284 16.7409C19.0495 16.44 19.3707 15.8838 19.3707 15.2819V8.7171C19.3707 8.11489 19.0493 7.55792 18.5284 7.25711L12.8422 3.97518Z" fill="black"/>
<path fill-rule="evenodd" clip-rule="evenodd" d="M10.531 8.48351C10.8233 8.18999 11.2982 8.18896 11.5917 8.48122L14.5917 11.4683C14.733 11.6091 14.8125 11.8003 14.8125 11.9998C14.8125 12.1993 14.733 12.3905 14.5917 12.5313L11.5917 15.5183C11.2982 15.8106 10.8233 15.8096 10.531 15.5161C10.2388 15.2225 10.2398 14.7477 10.5333 14.4554L12.9995 11.9998L10.5333 9.54417C10.2398 9.25191 10.2388 8.77703 10.531 8.48351Z" fill="black"/>
</svg>