<svg width="24" height="24" viewBox="0 0 24 24" fill="none" xmlns="http://www.w3.org/2000/svg">
<path fill-rule="evenodd" clip-rule="evenodd" d="M3.73657 20.1023C2.75842 19.0515 2.25 17.601 2.25 15.9736L2.25 8.02638C2.25 6.39806 2.76116 4.94771 3.7402 3.89737C4.72468 2.84117 6.12669 2.25 7.78216 2.25L16.2169 2.25C17.8762 2.25 19.2788 2.84084 20.2629 3.89765C21.2413 4.94841 21.75 6.39889 21.75 8.02638L21.75 15.9736C21.75 17.6011 21.2413 19.0516 20.2627 20.1024C19.2785 21.1592 17.8756 21.75 16.2159 21.75L7.78216 21.75C6.1228 21.75 4.72038 21.1591 3.73657 20.1023ZM4.83451 19.0802C5.50475 19.8003 6.49341 20.25 7.78216 20.25L16.2159 20.25C17.5052 20.25 18.4944 19.8002 19.165 19.0801C19.8412 18.354 20.25 17.2913 20.25 15.9736L20.25 8.02638C20.25 6.70868 19.8412 5.64597 19.1651 4.91984C18.4946 4.19975 17.5056 3.75 16.2169 3.75L7.78216 3.75C6.49828 3.75 5.50921 4.19943 4.83745 4.92012C4.16024 5.64666 3.75 6.70951 3.75 8.02638L3.75 15.9736C3.75 17.2914 4.15861 18.3541 4.83451 19.0802Z" fill="black"/>
<path fill-rule="evenodd" clip-rule="evenodd" d="M9.66008 7.83146C9.91169 7.70353 10.2138 7.7277 10.4419 7.894L15.2419 11.394C15.4355 11.5352 15.55 11.7604 15.55 12C15.55 12.2396 15.4355 12.4648 15.2419 12.606L10.4419 16.106C10.2138 16.2723 9.91169 16.2965 9.66008 16.1686C9.40847 16.0406 9.25 15.7823 9.25 15.5L9.25 8.5C9.25 8.21774 9.40848 7.95938 9.66008 7.83146ZM10.75 9.97509L10.75 14.0249L13.527 12L10.75 9.97509Z" fill="black"/>
</svg>