<svg width="24" height="24" viewBox="0 0 24 24" fill="none" xmlns="http://www.w3.org/2000/svg">
<path fill-rule="evenodd" clip-rule="evenodd" d="M5.3394 5.33069C6.15162 4.45939 7.30487 3.97656 8.65433 3.97656H15.3349C16.6875 3.97656 17.8413 4.45906 18.6533 5.33097C19.4596 6.19686 19.873 7.38592 19.873 8.7072C19.873 9.12142 19.5372 9.4572 19.123 9.4572C18.7088 9.4572 18.373 9.12142 18.373 8.7072C18.373 7.69573 18.0596 6.89446 17.5556 6.35322C17.0571 5.81801 16.317 5.47656 15.3349 5.47656H8.65433C7.67643 5.47656 6.93611 5.81767 6.4366 6.3535C5.93165 6.89517 5.61719 7.69658 5.61719 8.7072V11.9553C5.61719 12.3695 5.2814 12.7053 4.86719 12.7053C4.45297 12.7053 4.11719 12.3695 4.11719 11.9553V8.7072C4.11719 7.38507 4.53261 6.19615 5.3394 5.33069Z" fill="black"/>
<path fill-rule="evenodd" clip-rule="evenodd" d="M19.1249 11.293C19.5391 11.293 19.8749 11.6288 19.8749 12.043V15.291C19.8749 16.6123 19.4616 17.8014 18.6551 18.6673C17.843 19.5392 16.6889 20.0217 15.336 20.0217H8.65629C7.30373 20.0217 6.15006 19.5392 5.3383 18.6672C4.53219 17.8012 4.11914 16.6122 4.11914 15.291C4.11914 14.8768 4.45493 14.541 4.86914 14.541C5.28335 14.541 5.61914 14.8768 5.61914 15.291C5.61914 16.3026 5.93239 17.1039 6.4362 17.6451C6.93438 18.1802 7.67428 18.5217 8.65629 18.5217H15.336C16.3185 18.5217 17.059 18.1802 17.5574 17.645C18.0615 17.1037 18.3749 16.3025 18.3749 15.291V12.043C18.3749 11.6288 18.7107 11.293 19.1249 11.293Z" fill="black"/>
<path fill-rule="evenodd" clip-rule="evenodd" d="M19.1158 11.293C19.3147 11.293 19.5055 11.372 19.6461 11.5126L21.5316 13.3981C21.8245 13.691 21.8245 14.1659 21.5316 14.4588C21.2387 14.7517 20.7638 14.7517 20.4709 14.4588L19.1158 13.1036L17.7706 14.4489C17.4777 14.7418 17.0028 14.7418 16.7099 14.4489C16.417 14.156 16.417 13.6811 16.7099 13.3882L18.5855 11.5126C18.7261 11.372 18.9169 11.293 19.1158 11.293Z" fill="black"/>
<path fill-rule="evenodd" clip-rule="evenodd" d="M2.46967 9.53998C2.76256 9.24709 3.23744 9.24709 3.53033 9.53998L4.8856 10.8953L6.23084 9.55066C6.52381 9.25783 6.99868 9.25795 7.2915 9.55091C7.58433 9.84387 7.58421 10.3187 7.29125 10.6116L5.41568 12.4862C5.12276 12.779 4.64799 12.779 4.35514 12.4861L2.46967 10.6006C2.17678 10.3077 2.17678 9.83288 2.46967 9.53998Z" fill="black"/>
</svg>