<svg width="24" height="24" viewBox="0 0 24 24" fill="none" xmlns="http://www.w3.org/2000/svg">
<path fill-rule="evenodd" clip-rule="evenodd" d="M11.9567 5.61578L8.70867 5.61578C7.69804 5.61578 6.89664 5.93025 6.35497 6.43519C5.81913 6.9347 5.47803 7.67503 5.47803 8.65293L5.47803 15.3335C5.47803 16.3156 5.81947 17.0557 6.35469 17.5542C6.89593 18.0582 7.69719 18.3716 8.70867 18.3716C9.12288 18.3716 9.45867 18.7074 9.45867 19.1216C9.45867 19.5358 9.12288 19.8716 8.70867 19.8716C7.38738 19.8716 6.19832 19.4582 5.33244 18.6519C4.46052 17.8399 3.97803 16.6861 3.97803 15.3335L3.97803 8.65293C3.97803 7.30346 4.46086 6.15022 5.33215 5.33799C6.19761 4.53121 7.38653 4.11578 8.70867 4.11578L11.9567 4.11578C12.3709 4.11578 12.7067 4.45157 12.7067 4.86578C12.7067 5.28 12.3709 5.61578 11.9567 5.61578Z" fill="black"/>
<path fill-rule="evenodd" clip-rule="evenodd" d="M14.5425 4.86774C14.5425 4.45352 14.8783 4.11774 15.2925 4.11774C16.6137 4.11774 17.8027 4.53078 18.6686 5.3369C19.5406 6.14865 20.0231 7.30232 20.0231 8.65488V15.3346C20.0231 16.6875 19.5407 17.8416 18.6688 18.6537C17.8029 19.4602 16.6138 19.8735 15.2925 19.8735H12.0444C11.6302 19.8735 11.2944 19.5377 11.2944 19.1235C11.2944 18.7093 11.6302 18.3735 12.0444 18.3735H15.2925C16.304 18.3735 17.1052 18.0601 17.6464 17.556C18.1816 17.0575 18.5231 16.3171 18.5231 15.3346L18.5231 8.65488C18.5231 7.67287 18.1817 6.93297 17.6466 6.4348C17.1054 5.93098 16.3041 5.61774 15.2925 5.61774C14.8783 5.61774 14.5425 5.28195 14.5425 4.86774Z" fill="black"/>
<path fill-rule="evenodd" clip-rule="evenodd" d="M14.4503 16.7085C14.7432 17.0014 14.7432 17.4763 14.4503 17.7692L13.1051 19.1144L14.4602 20.4695C14.7531 20.7624 14.7531 21.2373 14.4602 21.5302C14.1673 21.8231 13.6925 21.8231 13.3996 21.5302L11.5141 19.6447C11.3735 19.5041 11.2944 19.3133 11.2944 19.1144C11.2944 18.9155 11.3735 18.7247 11.5141 18.5841L13.3897 16.7085C13.6826 16.4156 14.1574 16.4156 14.4503 16.7085Z" fill="black"/>
<path fill-rule="evenodd" clip-rule="evenodd" d="M9.54145 2.46827C9.83434 2.17537 10.3092 2.17537 10.6021 2.46827L12.4876 4.35374C12.7804 4.64658 12.7805 5.12136 12.4877 5.41427L10.613 7.28984C10.3202 7.58281 9.84534 7.58292 9.55237 7.2901C9.25941 6.99728 9.2593 6.5224 9.55212 6.22944L10.8967 4.8842L9.54145 3.52893C9.24855 3.23603 9.24855 2.76116 9.54145 2.46827Z" fill="black"/>
</svg>