<svg width="24" height="24" viewBox="0 0 24 24" fill="none" xmlns="http://www.w3.org/2000/svg">
<path fill-rule="evenodd" clip-rule="evenodd" d="M13.5924 2.67624C13.5923 2.67621 13.5924 2.67627 13.5924 2.67624L19.2784 5.95807C20.2637 6.52712 20.8707 7.57959 20.8707 8.7171V15.2819C20.8707 16.4198 20.2636 17.471 19.2786 18.0399L13.5924 21.3228C13.5923 21.3228 13.5924 21.3228 13.5924 21.3228C12.6072 21.8917 11.393 21.8917 10.4078 21.3228C10.4078 21.3228 10.4079 21.3229 10.4078 21.3228L4.72162 18.0399C3.73657 17.4711 3.12939 16.4198 3.12939 15.2819V8.7171C3.12939 7.57959 3.7362 6.52721 4.72153 5.95816L10.4077 2.67624C10.4077 2.67627 10.4078 2.67621 10.4077 2.67624C11.3928 2.1074 12.6072 2.1074 13.5924 2.67624ZM12.8422 3.97518C12.3212 3.67429 11.6789 3.67429 11.1579 3.97518L5.4717 7.25711C5.47164 7.25714 5.47176 7.25708 5.4717 7.25711C4.95093 7.55794 4.62939 8.11495 4.62939 8.7171V15.2819C4.62939 15.8838 4.95051 16.4399 5.47161 16.7409C5.47159 16.7409 5.47164 16.7409 5.47161 16.7409L11.1578 20.0238C11.6788 20.3247 12.3212 20.3247 12.8422 20.0238L18.5284 16.7409C18.5284 16.741 18.5284 16.7409 18.5284 16.7409C19.0495 16.44 19.3707 15.8838 19.3707 15.2819V8.7171C19.3707 8.11489 19.0493 7.55792 18.5284 7.25711L12.8422 3.97518Z" fill="black"/>
<path fill-rule="evenodd" clip-rule="evenodd" d="M11.9998 9.75C12.1993 9.75 12.3905 9.82946 12.5313 9.97081L15.5183 12.9708C15.8106 13.2643 15.8096 13.7392 15.5161 14.0315C15.2225 14.3237 14.7477 14.3227 14.4554 14.0292L11.9998 11.563L9.54417 14.0292C9.25191 14.3227 8.77703 14.3237 8.48351 14.0315C8.18999 13.7392 8.18896 13.2643 8.48122 12.9708L11.4683 9.97081C11.6091 9.82946 11.8003 9.75 11.9998 9.75Z" fill="black"/>
</svg>