<svg width="24" height="24" viewBox="0 0 24 24" fill="none" xmlns="http://www.w3.org/2000/svg">
<path d="M6.4834 17.6135C6.69064 17.6407 6.89788 17.6495 7.11388 17.6495H14.4306C16.5371 17.6495 17.9947 16.6687 18.4267 14.8415C18.5171 14.4717 18.5619 14.0582 18.5619 13.6175V10.2695C18.5619 9.80146 18.5084 9.35973 18.4091 8.97346C18.2019 8.09973 17.7611 7.42546 17.1404 6.95648" stroke="black" stroke-width="1.5" stroke-linecap="round" stroke-linejoin="round"/>
<path d="M18.4043 8.9707H19.2041C20.5059 8.9707 20.9982 9.71308 20.9982 11.0704V12.7779C20.9982 14.1109 20.5059 14.8377 19.2041 14.8377H18.4121" stroke="black" stroke-width="1.5" stroke-linecap="round" stroke-linejoin="round"/>
<path d="M3.48649 15.7955C3.16249 15.202 3 14.4723 3 13.617V10.2068C3 7.58753 4.57524 6.16504 7.12249 6.16504H13.1082" stroke="black" stroke-width="1.5" stroke-linecap="round" stroke-linejoin="round"/>
<path d="M4.64062 19.4538L19.5476 4.5459" stroke="black" stroke-width="1.5" stroke-linecap="round" stroke-linejoin="round"/>
</svg>
