<svg width="24" height="24" viewBox="0 0 24 24" fill="none" xmlns="http://www.w3.org/2000/svg">
<path opacity="0.4" d="M7.782 21.5H16.216C19.376 21.5 21.5 19.277 21.5 15.97V8.03C21.5 4.723 19.377 2.5 16.217 2.5H7.782C4.623 2.5 2.5 4.723 2.5 8.03V15.97C2.5 19.277 4.623 21.5 7.782 21.5Z" fill="black"/>
<path fill-rule="evenodd" clip-rule="evenodd" d="M11.0664 16.6309C11.3544 16.7959 11.6764 16.8789 11.9994 16.8789C12.3234 16.8789 12.6474 16.7959 12.9374 16.6299C13.4974 16.3069 14.3724 15.9049 15.3514 15.8279C16.3334 15.7619 17.1024 14.9499 17.1024 13.9799V8.97986C17.1024 8.45786 16.8784 7.95586 16.4894 7.60486C16.0934 7.25086 15.5674 7.08086 15.0294 7.13486C13.7444 7.27886 12.6924 7.81086 12.1894 8.10886C12.0714 8.17586 11.9314 8.17886 11.8214 8.11386C11.3074 7.81086 10.2544 7.27786 8.96644 7.13386C8.43744 7.07986 7.90644 7.24986 7.51144 7.60486C7.12144 7.95686 6.89844 8.45786 6.89844 8.97986V13.9799C6.89844 14.9479 7.66444 15.7589 8.64444 15.8279C9.68444 15.9099 10.6064 16.3649 11.0664 16.6309ZM8.51544 8.72086C8.55744 8.68286 8.64344 8.62286 8.76544 8.62286C8.77689 8.62286 8.78756 8.62363 8.79951 8.6245L8.80444 8.62486C9.80844 8.73786 10.6474 9.16186 11.0654 9.40986C11.1255 9.44437 11.1871 9.47529 11.2499 9.50262V15.0331C10.5865 14.7146 9.72336 14.4079 8.75844 14.3319H8.75044C8.54944 14.3179 8.39844 14.1669 8.39844 13.9799V8.97986C8.39844 8.84586 8.47144 8.75986 8.51544 8.72086ZM12.7499 15.0338C13.413 14.7153 14.2778 14.4081 15.2424 14.3319C15.4514 14.3179 15.6024 14.1669 15.6024 13.9799V8.97986C15.6024 8.84586 15.5294 8.75986 15.4854 8.71986C15.4384 8.67886 15.3384 8.60686 15.1914 8.62586C14.1914 8.73786 13.3544 9.16186 12.9454 9.40486C12.8816 9.44142 12.8163 9.474 12.7499 9.50262V15.0338Z" fill="black"/>
</svg>