<svg width="25" height="24" viewBox="0 0 25 24" fill="none" xmlns="http://www.w3.org/2000/svg">
<path opacity="0.4" d="M8.0662 21.5H16.5012C19.6612 21.5 21.7832 19.277 21.7832 15.97V8.03C21.7832 4.723 19.6612 2.5 16.5012 2.5H8.0662C4.9062 2.5 2.7832 4.723 2.7832 8.03V15.97C2.7832 19.277 4.9062 21.5 8.0662 21.5Z" fill="black"/>
<path d="M7.98662 10.9694C7.98662 11.3834 8.32262 11.7194 8.73662 11.7194C9.15062 11.7194 9.48662 11.3834 9.48662 10.9694V9.90935H10.5406C10.9546 9.90935 11.2906 9.57335 11.2906 9.15935C11.2906 8.74535 10.9546 8.40935 10.5406 8.40935H9.48662V7.36035C9.48662 6.94635 9.15062 6.61035 8.73662 6.61035C8.32262 6.61035 7.98662 6.94635 7.98662 7.36035V8.40935H6.93262C6.51862 8.40935 6.18262 8.74535 6.18262 9.15935C6.18262 9.57335 6.51862 9.90935 6.93262 9.90935H7.98662V10.9694Z" fill="black"/>
<path d="M17.1036 17.1695C17.2496 17.3165 17.4416 17.3895 17.6336 17.3895C17.8256 17.3895 18.0176 17.3165 18.1636 17.1695C18.4566 16.8765 18.4566 16.4025 18.1636 16.1095L17.4196 15.3645L18.1636 14.6195C18.4566 14.3265 18.4566 13.8525 18.1636 13.5595C17.8706 13.2665 17.3966 13.2665 17.1036 13.5595L16.3586 14.3045L15.6126 13.5595C15.3206 13.2665 14.8456 13.2665 14.5526 13.5595C14.2596 13.8525 14.2596 14.3265 14.5526 14.6195L15.2976 15.3645L14.5526 16.1095C14.2596 16.4025 14.2596 16.8765 14.5526 17.1695C14.8456 17.4625 15.3206 17.4625 15.6126 17.1695L16.3586 16.4245L17.1036 17.1695Z" fill="black"/>
<path d="M11.0706 16.0895H7.46164C7.04764 16.0895 6.71164 15.7535 6.71164 15.3395C6.71164 14.9255 7.04764 14.5895 7.46164 14.5895H11.0706C11.4846 14.5895 11.8206 14.9255 11.8206 15.3395C11.8206 15.7535 11.4846 16.0895 11.0706 16.0895Z" fill="black"/>
<path d="M13.9688 10.9799C14.1148 11.1269 14.3068 11.1999 14.4988 11.1999C14.6908 11.1999 14.8828 11.1269 15.0288 10.9799L17.5798 8.4299C17.8728 8.1369 17.8728 7.6629 17.5798 7.3699C17.2868 7.0769 16.8118 7.0769 16.5198 7.3699L13.9688 9.9199C13.6758 10.2129 13.6758 10.6869 13.9688 10.9799Z" fill="black"/>
</svg>