<svg width="24" height="24" viewBox="0 0 24 24" fill="none" xmlns="http://www.w3.org/2000/svg">
<path fill-rule="evenodd" clip-rule="evenodd" d="M3.7402 3.89737C4.72468 2.84117 6.12669 2.25 7.78216 2.25H16.2169C17.8762 2.25 19.2788 2.84084 20.2629 3.89765C21.2413 4.94841 21.75 6.39889 21.75 8.02638V15.9736C21.75 17.6011 21.2413 19.0516 20.2627 20.1024C19.2785 21.1592 17.8756 21.75 16.2159 21.75H7.78216C6.1228 21.75 4.72038 21.1591 3.73657 20.1023C2.75842 19.0515 2.25 17.601 2.25 15.9736V8.02638C2.25 6.39806 2.76117 4.94771 3.7402 3.89737ZM4.83745 4.92012C4.16024 5.64666 3.75 6.70951 3.75 8.02638V15.9736C3.75 17.2914 4.15861 18.3541 4.83451 19.0802C5.50475 19.8003 6.49341 20.25 7.78216 20.25H16.2159C17.5052 20.25 18.4944 19.8002 19.165 19.0801C19.8412 18.354 20.25 17.2913 20.25 15.9736V8.02638C20.25 6.70868 19.8412 5.64597 19.1651 4.91984C18.4946 4.19975 17.5056 3.75 16.2169 3.75H7.78216C6.49828 3.75 5.50921 4.19943 4.83745 4.92012Z" fill="black"/>
<path fill-rule="evenodd" clip-rule="evenodd" d="M7.01704 10.3917C7.48155 9.89342 8.13287 9.62891 8.86551 9.62891H15.1344C15.8684 9.62891 16.5202 9.89305 16.9847 10.3921C17.4436 10.885 17.6639 11.5464 17.6639 12.249V15.2068C17.6639 15.9093 17.4436 16.5707 16.9847 17.0637C16.5202 17.5627 15.8684 17.8269 15.1344 17.8269H8.86551C8.13185 17.8269 7.48017 17.5626 7.01564 17.0638C6.55673 16.571 6.33594 15.9096 6.33594 15.2068V12.249C6.33594 11.5453 6.55796 10.8841 7.01704 10.3917ZM8.11419 11.4145C7.95689 11.5833 7.83594 11.857 7.83594 12.249V15.2068C7.83594 15.5996 7.95666 15.8732 8.11339 16.0416C8.26452 16.2038 8.50262 16.3269 8.86551 16.3269H15.1344C15.4979 16.3269 15.7359 16.2038 15.8867 16.0417C16.0433 15.8735 16.1639 15.5999 16.1639 15.2068V12.249C16.1639 11.8559 16.0433 11.5823 15.8867 11.4141C15.7359 11.252 15.4979 11.1289 15.1344 11.1289H8.86551C8.50452 11.1289 8.26605 11.2516 8.11419 11.4145Z" fill="black"/>
<path fill-rule="evenodd" clip-rule="evenodd" d="M6.85352 6.92383C6.85352 6.50961 7.1893 6.17383 7.60352 6.17383H16.3972C16.8115 6.17383 17.1472 6.50961 17.1472 6.92383C17.1472 7.33804 16.8115 7.67383 16.3972 7.67383H7.60352C7.1893 7.67383 6.85352 7.33804 6.85352 6.92383Z" fill="black"/>
</svg>
