<svg width="24" height="24" viewBox="0 0 24 24" fill="none" xmlns="http://www.w3.org/2000/svg">
<path fill-rule="evenodd" clip-rule="evenodd" d="M12 3.75C7.44329 3.75 3.75 7.44329 3.75 12C3.75 16.5558 7.44335 20.25 12 20.25C16.5567 20.25 20.25 16.5558 20.25 12C20.25 7.44329 16.5567 3.75 12 3.75ZM2.25 12C2.25 6.61487 6.61487 2.25 12 2.25C17.3851 2.25 21.75 6.61487 21.75 12C21.75 14.3202 20.9394 16.4513 19.586 18.1254C19.5502 18.1829 19.507 18.2353 19.4575 18.281C17.669 20.4023 14.992 21.75 12 21.75C9.00651 21.75 6.32831 20.401 4.53986 18.2779C4.49293 18.2339 4.45166 18.184 4.41724 18.1294C3.06184 16.4547 2.25 14.322 2.25 12Z" fill="black"/>
<path fill-rule="evenodd" clip-rule="evenodd" d="M12 2.25C12.4142 2.25 12.75 2.58579 12.75 3V5.25049C12.75 5.6647 12.4142 6.00049 12 6.00049C11.5858 6.00049 11.25 5.6647 11.25 5.25049V3C11.25 2.58579 11.5858 2.25 12 2.25Z" fill="black"/>
<path fill-rule="evenodd" clip-rule="evenodd" d="M18.8946 5.10639C19.1875 5.39928 19.1875 5.87416 18.8946 6.16705L17.3038 7.75786C17.0109 8.05075 16.536 8.05075 16.2431 7.75786C15.9502 7.46497 15.9502 6.99009 16.2431 6.6972L17.8339 5.10639C18.1268 4.8135 18.6017 4.8135 18.8946 5.10639Z" fill="black"/>
<path fill-rule="evenodd" clip-rule="evenodd" d="M5.10639 5.10639C5.39928 4.8135 5.87416 4.8135 6.16705 5.10639L7.75786 6.6972C8.05075 6.99009 8.05075 7.46497 7.75786 7.75786C7.46497 8.05075 6.99009 8.05075 6.6972 7.75786L5.10639 6.16705C4.8135 5.87416 4.8135 5.39928 5.10639 5.10639Z" fill="black"/>
<path fill-rule="evenodd" clip-rule="evenodd" d="M2.25 12C2.25 11.5858 2.58579 11.25 3 11.25H5.47524C5.88946 11.25 6.22524 11.5858 6.22524 12C6.22524 12.4142 5.88946 12.75 5.47524 12.75H3C2.58579 12.75 2.25 12.4142 2.25 12Z" fill="black"/>
<path fill-rule="evenodd" clip-rule="evenodd" d="M18 12C18 11.5858 18.3358 11.25 18.75 11.25H21.0009C21.4152 11.25 21.7509 11.5858 21.7509 12C21.7509 12.4142 21.4152 12.75 21.0009 12.75H18.75C18.3358 12.75 18 12.4142 18 12Z" fill="black"/>
<path fill-rule="evenodd" clip-rule="evenodd" d="M4.4765 17.2419C6.2768 15.0807 8.97663 13.7051 12.0004 13.7051C15.0231 13.7051 17.7246 15.0806 19.525 17.2419C19.7901 17.5601 19.747 18.033 19.4288 18.2981C19.1105 18.5633 18.6376 18.5202 18.3725 18.2019C16.8434 16.3662 14.5567 15.2051 12.0004 15.2051C9.44317 15.2051 7.15822 16.3661 5.62901 18.2019C5.3639 18.5202 4.89098 18.5633 4.57273 18.2981C4.25447 18.033 4.21138 17.5601 4.4765 17.2419Z" fill="black"/>
<path fill-rule="evenodd" clip-rule="evenodd" d="M12 9.06445C12.4142 9.06445 12.75 9.40024 12.75 9.81445V14.4546C12.75 14.8688 12.4142 15.2046 12 15.2046C11.5858 15.2046 11.25 14.8688 11.25 14.4546V9.81445C11.25 9.40024 11.5858 9.06445 12 9.06445Z" fill="black"/>
</svg>
