<svg width="24" height="24" viewBox="0 0 24 24" fill="none" xmlns="http://www.w3.org/2000/svg">
<path d="M16.8818 5.16797C16.8818 4.75391 17.2178 4.41797 17.6318 4.41797C19.4146 4.41797 20.8608 5.86328 20.8608 7.64648V8.90625C20.8608 10.0957 20.3643 11.2266 19.4868 12.0273C19.48 12.0332 19.4683 12.0449 19.4614 12.0508L14.9385 16.5254L14.9136 16.5488C14.7715 16.6758 14.6904 16.8594 14.6904 17.0469V18.8848C14.6904 19.7734 14.1494 20.5723 13.3228 20.9023L11.5854 21.5938C10.1587 22.1621 8.60986 21.1113 8.60986 19.5781V16.5996C8.60986 16.4258 8.54395 16.2598 8.42529 16.1367C8.42139 16.1328 8.41748 16.1289 8.41357 16.125L4.4126 12.5625L4.38184 12.5332C3.58643 11.7402 3.14062 10.6641 3.14062 9.54102V7.64648C3.14062 5.86328 4.58643 4.41797 6.36963 4.41797C6.78467 4.41797 7.11963 4.75391 7.11963 5.16797C7.11963 5.58203 6.78467 5.91797 6.36963 5.91797C5.8877 5.91797 5.45117 6.11523 5.13721 6.43359C4.83008 6.74609 4.64062 7.17383 4.64062 7.64648V9.54102C4.64062 10.2578 4.92236 10.9453 5.42529 11.457C5.43066 11.4629 5.43604 11.4668 5.44141 11.4727L9.44238 15.0332L9.47363 15.0645C9.88037 15.4707 10.1099 16.0215 10.1099 16.5996V19.5781C10.1099 19.832 10.249 20.0449 10.4463 20.1582C10.6152 20.2559 10.8271 20.2812 11.0308 20.2012L12.7676 19.5098C13.0234 19.4062 13.1904 19.1602 13.1904 18.8848V17.0469C13.1904 16.4395 13.4365 15.8691 13.8838 15.459C13.8887 15.4551 13.9038 15.4395 13.9087 15.4355L18.4326 10.9609L18.4575 10.9375C19.0327 10.418 19.3608 9.68164 19.3608 8.90625V7.64648C19.3608 6.69141 18.5864 5.91797 17.6318 5.91797C17.2178 5.91797 16.8818 5.58203 16.8818 5.16797Z" fill="black"/>
<path d="M11.8188 7.25977C11.8188 7.60547 11.584 7.89844 11.2651 7.98438C11.4463 8.05078 11.6421 8.08594 11.8438 8.08594C12.6118 8.08594 13.2837 7.67188 13.6426 7.05078C13.8496 6.69141 14.3086 6.56836 14.6675 6.77734C15.0254 6.98438 15.1484 7.44141 14.9414 7.80078C14.3237 8.87109 13.1655 9.58594 11.8438 9.58594C11.3877 9.58594 10.9775 9.48633 10.6177 9.33398C10.4165 9.25 10.2271 9.14648 10.0586 9.03906C9.98535 9.37695 9.68457 9.62891 9.32568 9.62891C8.91162 9.62891 8.57568 9.29492 8.57568 8.87891V7.28125C8.57568 7.27539 8.57568 7.26562 8.57568 7.25977C8.57568 6.8457 8.91162 6.50977 9.32568 6.50977H11.0688C11.4824 6.50977 11.8188 6.8457 11.8188 7.25977Z" fill="black"/>
<path d="M14.6758 2.25C15.0894 2.25 15.4258 2.58594 15.4258 3V4.74219C15.4258 4.74805 15.4253 4.75586 15.4253 4.76172C15.4209 5.01172 15.2915 5.25586 15.0615 5.39453C14.9048 5.48828 14.7275 5.51953 14.5601 5.49219H12.9326C12.5186 5.49219 12.1826 5.15625 12.1826 4.74219C12.1826 4.4375 12.3638 4.17578 12.624 4.05859C12.3921 3.98242 12.1333 3.93359 11.8447 3.93359C11.0664 3.93359 10.3965 4.34961 10.0386 4.97461C9.8335 5.33398 9.37549 5.45898 9.01562 5.25391C8.65576 5.04883 8.53076 4.58984 8.73682 4.23047C9.35352 3.15039 10.5146 2.43359 11.8447 2.43359C12.6978 2.43359 13.3926 2.69336 13.9258 3.01758V3C13.9258 2.58594 14.2617 2.25 14.6758 2.25Z" fill="black"/>
</svg>
