<svg width="24" height="24" viewBox="0 0 24 24" fill="none" xmlns="http://www.w3.org/2000/svg">
<path fill-rule="evenodd" clip-rule="evenodd" d="M8.58079 5.76615C8.58079 4.25031 9.80961 3.02148 11.3255 3.02148H16.0254C17.5413 3.02148 18.7701 4.25031 18.7701 5.76615V5.77304H20.9993C21.4135 5.77304 21.7493 6.10883 21.7493 6.52304C21.7493 6.93726 21.4135 7.27304 20.9993 7.27304H18.7701C18.7642 8.78387 17.5377 10.0068 16.0254 10.0068H11.3255C9.81324 10.0068 8.58666 8.78385 8.58081 7.27301H3C2.58579 7.27301 2.25 6.93723 2.25 6.52301C2.25 6.1088 2.58579 5.77301 3 5.77301H8.58079V5.76615ZM11.3255 4.52148C10.638 4.52148 10.0808 5.07874 10.0808 5.76615V7.26215C10.0808 7.94956 10.638 8.50681 11.3255 8.50681H16.0254C16.7129 8.50681 17.2701 7.94956 17.2701 7.26215V5.76615C17.2701 5.07874 16.7129 4.52148 16.0254 4.52148H11.3255ZM5.22977 16.7259C5.23564 15.2151 6.46221 13.9922 7.97441 13.9922H11.3089C12.8212 13.9922 14.0477 15.2151 14.0536 16.726H21C21.4142 16.726 21.75 17.0618 21.75 17.476C21.75 17.8902 21.4142 18.226 21 18.226H14.0536V18.2328C14.0536 19.7487 12.8248 20.9775 11.3089 20.9775H7.97441C6.45858 20.9775 5.22975 19.7487 5.22975 18.2328V18.2259H3.00016C2.58595 18.2259 2.25016 17.8902 2.25016 17.4759C2.25016 17.0617 2.58595 16.7259 3.00016 16.7259H5.22977ZM7.97441 15.4922C7.287 15.4922 6.72975 16.0494 6.72975 16.7368V18.2328C6.72975 18.9203 7.287 19.4775 7.97441 19.4775H11.3089C11.9963 19.4775 12.5536 18.9203 12.5536 18.2328V16.7368C12.5536 16.0494 11.9964 15.4922 11.3089 15.4922H7.97441Z" fill="black"/>
</svg>
