<svg width="24" height="24" viewBox="0 0 24 24" fill="none" xmlns="http://www.w3.org/2000/svg">
<path fill-rule="evenodd" clip-rule="evenodd" d="M11.7756 2.25C12.1898 2.25 12.5256 2.58579 12.5256 3V4.87734H14.4035C14.8177 4.87734 15.1535 5.21312 15.1535 5.62734C15.1535 6.04155 14.8177 6.37734 14.4035 6.37734H12.5256V8.25624C12.5256 8.67045 12.1898 9.00624 11.7756 9.00624C11.3614 9.00624 11.0256 8.67045 11.0256 8.25624V6.37734H9.14728C8.73307 6.37734 8.39728 6.04155 8.39728 5.62734C8.39728 5.21312 8.73307 4.87734 9.14728 4.87734H11.0256V3C11.0256 2.58579 11.3614 2.25 11.7756 2.25ZM5.90722 4.61944C4.83953 4.61944 3.97461 5.48436 3.97461 6.55205V8.60123C3.97461 9.39478 4.28718 10.1561 4.84387 10.7204L9.19071 14.5904C9.20185 14.6004 9.21269 14.6106 9.22322 14.6212C9.65052 15.0499 9.8925 15.6311 9.8925 16.2384V19.4601C9.8925 20.0178 10.454 20.3984 10.9715 20.1927C10.9716 20.1927 10.9717 20.1926 10.9718 20.1926L12.8524 19.4435L12.8528 19.4433C13.1521 19.3243 13.3491 19.0341 13.3491 18.7118V16.724C13.3491 16.0814 13.619 15.4706 14.0904 15.0377L19.0011 10.1813C19.0093 10.1733 19.0177 10.1654 19.0262 10.1577C19.6616 9.5846 20.0239 8.77014 20.0239 7.91525V6.55205C20.0239 5.48436 19.159 4.61944 18.0913 4.61944C17.6771 4.61944 17.3413 4.28366 17.3413 3.86944C17.3413 3.45523 17.6771 3.11944 18.0913 3.11944C19.9875 3.11944 21.5239 4.65593 21.5239 6.55205V7.91525C21.5239 9.18915 20.9864 10.4029 20.0441 11.2595L15.1343 16.1149C15.1263 16.1228 15.1182 16.1306 15.1098 16.1381C14.9436 16.2883 14.8491 16.5009 14.8491 16.724V18.7118C14.8491 19.6487 14.2773 20.4911 13.4071 20.8372L11.5266 21.5862L11.5264 21.5863C10.024 22.1841 8.3925 21.078 8.3925 19.4601V16.2384C8.3925 16.0365 8.31434 15.8412 8.17382 15.6934L3.8293 11.8255C3.81847 11.8159 3.80793 11.8059 3.79768 11.7957C2.9506 10.9486 2.47461 9.7994 2.47461 8.60123V6.55205C2.47461 4.65593 4.0111 3.11944 5.90722 3.11944C6.32143 3.11944 6.65722 3.45523 6.65722 3.86944C6.65722 4.28366 6.32143 4.61944 5.90722 4.61944Z" fill="black"/>
</svg>
