<svg width="24" height="24" viewBox="0 0 24 24" fill="none" xmlns="http://www.w3.org/2000/svg">
<path fill-rule="evenodd" clip-rule="evenodd" d="M9.50101 6.40704C8.15428 6.39861 7.05444 7.48269 7.04461 8.82993C7.03619 10.1772 8.11999 11.2787 9.46827 11.2871H9.48362C10.5699 11.29 11.493 10.5809 11.8086 9.59829H16.2055C16.6197 9.59829 16.9555 9.2625 16.9555 8.84829C16.9555 8.43408 16.6197 8.09829 16.2055 8.09829H11.8074C11.493 7.12354 10.5812 6.41492 9.50101 6.40704ZM9.47569 9.78713C8.95878 9.78284 8.54142 9.36038 8.54457 8.84027C8.54868 8.32176 8.97216 7.90399 9.4912 7.90701C10.01 7.91099 10.428 8.33474 10.4247 8.85406L10.4247 8.8564C10.4231 9.37171 10.0036 9.78876 9.48699 9.78713L9.48464 9.78713H9.47569Z" fill="black"/>
<path fill-rule="evenodd" clip-rule="evenodd" d="M16.9554 15.1701C16.9455 16.5173 15.8457 17.6014 14.4989 17.593C13.4188 17.5851 12.507 16.8765 12.1926 15.9017L7.79443 15.9017C7.38022 15.9017 7.04443 15.566 7.04443 15.1517C7.04443 14.7375 7.38022 14.4017 7.79443 14.4017L12.1914 14.4017C12.507 13.4192 13.4301 12.7101 14.5163 12.7129H14.5317C15.88 12.7213 16.9638 13.8228 16.9554 15.1701ZM15.4554 15.1598C15.4585 14.6396 15.0412 14.2172 14.5243 14.2129H14.5153L14.513 14.2129C13.9964 14.2113 13.5769 14.6283 13.5753 15.1436L13.5752 15.146C13.572 15.6653 13.99 16.089 14.5087 16.093C15.0278 16.096 15.4513 15.6783 15.4554 15.1598Z" fill="black"/>
<path fill-rule="evenodd" clip-rule="evenodd" d="M7.78216 2.25C6.12669 2.25 4.72468 2.84117 3.7402 3.89737C2.76117 4.94771 2.25 6.39806 2.25 8.02638V15.9736C2.25 17.601 2.75842 19.0515 3.73657 20.1023C4.72038 21.1591 6.1228 21.75 7.78216 21.75H16.2159C17.8757 21.75 19.2785 21.1592 20.2627 20.1024C21.2413 19.0516 21.75 17.6011 21.75 15.9736V8.02638C21.75 6.39889 21.2413 4.94841 20.2629 3.89765C19.2788 2.84084 17.8762 2.25 16.2169 2.25H7.78216ZM3.75 8.02638C3.75 6.70951 4.16024 5.64667 4.83745 4.92012C5.50921 4.19943 6.49828 3.75 7.78216 3.75H16.2169C17.5056 3.75 18.4946 4.19975 19.1651 4.91984C19.8412 5.64597 20.25 6.70868 20.25 8.02638V15.9736C20.25 17.2913 19.8412 18.354 19.165 19.0801C18.4944 19.8002 17.5052 20.25 16.2159 20.25H7.78216C6.49341 20.25 5.50475 19.8003 4.83451 19.0802C4.15861 18.3541 3.75 17.2914 3.75 15.9736V8.02638Z" fill="black"/>
</svg>
