<svg width="24" height="24" viewBox="0 0 24 24" fill="none" xmlns="http://www.w3.org/2000/svg">
<path fill-rule="evenodd" clip-rule="evenodd" d="M12.0694 4.02344C11.0504 4.02344 10.2245 4.84938 10.2245 5.86836C10.2245 6.88618 11.0502 7.7123 12.0694 7.7123C13.0874 7.7123 13.9133 6.88636 13.9133 5.86836C13.9133 4.8492 13.0872 4.02344 12.0694 4.02344ZM8.72445 5.86836C8.72445 4.02095 10.222 2.52344 12.0694 2.52344C13.916 2.52344 15.4133 4.02114 15.4133 5.86836C15.4133 7.71479 13.9158 9.2123 12.0694 9.2123C10.2222 9.2123 8.72445 7.71497 8.72445 5.86836ZM5.59492 15.0882C4.57594 15.0882 3.75 15.9141 3.75 16.9331C3.75 17.9521 4.57594 18.778 5.59492 18.778C6.61274 18.778 7.43887 17.9522 7.43887 16.9331C7.43887 15.9139 6.61274 15.0882 5.59492 15.0882ZM2.25 16.9331C2.25 15.0857 3.74752 13.5882 5.59492 13.5882C7.44153 13.5882 8.93887 15.0859 8.93887 16.9331C8.93887 18.7803 7.44153 20.278 5.59492 20.278C3.74752 20.278 2.25 18.7805 2.25 16.9331ZM18.4061 15.0882C17.3871 15.0882 16.5611 15.9141 16.5611 16.9331C16.5611 17.9521 17.3871 18.778 18.4061 18.778C19.4239 18.778 20.25 17.9522 20.25 16.9331C20.25 15.9139 19.4239 15.0882 18.4061 15.0882ZM15.0611 16.9331C15.0611 15.0857 16.5586 13.5882 18.4061 13.5882C20.2527 13.5882 21.75 15.0859 21.75 16.9331C21.75 18.7803 20.2527 20.278 18.4061 20.278C16.5586 20.278 15.0611 18.7805 15.0611 16.9331Z" fill="black"/>
<path fill-rule="evenodd" clip-rule="evenodd" d="M6.62135 18.4958C6.88797 18.1788 7.36109 18.1379 7.67808 18.4045C9.27986 19.7518 11.4438 20.2775 13.4896 19.8036C13.8931 19.7102 14.296 19.9615 14.3894 20.3651C14.4829 20.7686 14.2316 21.1715 13.828 21.265C11.3203 21.8458 8.67382 21.202 6.71258 19.5525C6.39558 19.2859 6.35474 18.8128 6.62135 18.4958Z" fill="black"/>
<path fill-rule="evenodd" clip-rule="evenodd" d="M16.3385 7.19654C16.6129 6.88624 17.0869 6.85712 17.3972 7.1315C19.5274 9.01509 20.5063 11.8731 20.0372 14.6309C19.9677 15.0393 19.5804 15.314 19.172 15.2445C18.7637 15.1751 18.489 14.7877 18.5584 14.3794C18.9417 12.1263 18.14 9.79064 16.4036 8.2552C16.0933 7.98082 16.0642 7.50684 16.3385 7.19654Z" fill="black"/>
<path fill-rule="evenodd" clip-rule="evenodd" d="M10.2244 6.0365C10.3617 6.42728 10.1562 6.85541 9.76545 6.99274C7.71887 7.71198 6.12369 9.40003 5.539 11.5054C5.42817 11.9045 5.01478 12.1382 4.61567 12.0274C4.21656 11.9165 3.98286 11.5032 4.0937 11.104C4.81085 8.52165 6.76314 6.45792 9.26812 5.57759C9.6589 5.44025 10.087 5.64571 10.2244 6.0365Z" fill="black"/>
</svg>
