<svg width="24" height="25" viewBox="0 0 24 25" fill="none" xmlns="http://www.w3.org/2000/svg">
<path fill-rule="evenodd" clip-rule="evenodd" d="M14.4437 13.6582C14.4437 14.0722 14.1077 14.4082 13.6937 14.4082C13.2797 14.4082 12.9437 14.0722 12.9437 13.6582C12.9437 13.2442 13.2797 12.9032 13.6937 12.9032C14.1077 12.9032 14.4437 13.2342 14.4437 13.6482V13.6582ZM11.0387 13.6582C11.0387 14.0722 10.7027 14.4082 10.2887 14.4082C9.8747 14.4082 9.5387 14.0722 9.5387 13.6582C9.5387 13.2442 9.8747 12.9032 10.2887 12.9032C10.7027 12.9032 11.0387 13.2342 11.0387 13.6482V13.6582ZM12.0007 10.6982C9.8477 10.6982 8.0957 12.4482 8.0957 14.5982V15.3882H15.9057V14.5982C15.9057 12.4482 14.1537 10.6982 12.0007 10.6982Z" fill="black"/>
<path fill-rule="evenodd" clip-rule="evenodd" d="M17.406 15.5088C17.406 16.2698 16.785 16.8888 16.022 16.8888H7.98C7.217 16.8888 6.596 16.2698 6.596 15.5088V14.5988C6.596 12.9698 7.325 11.5108 8.47 10.5198L7.659 9.29179C7.431 8.94679 7.526 8.48179 7.871 8.25279C8.216 8.02479 8.682 8.11779 8.911 8.46579L9.729 9.70479C10.421 9.38279 11.189 9.19779 12.001 9.19779C12.803 9.19779 13.562 9.37879 14.247 9.69279L15.099 8.45379C15.333 8.11179 15.802 8.02779 16.142 8.26079C16.483 8.49579 16.569 8.96279 16.334 9.30379L15.511 10.4998C16.669 11.4918 17.406 12.9598 17.406 14.5988V15.5088ZM16.217 3.00879H7.782C4.622 3.00879 2.5 5.23179 2.5 8.53879V16.4788C2.5 19.7858 4.622 22.0088 7.782 22.0088H16.216C19.376 22.0088 21.5 19.7858 21.5 16.4788V8.53879C21.5 5.23179 19.377 3.00879 16.217 3.00879Z" fill="black"/>
</svg>