<svg width="25" height="25" viewBox="0 0 25 25" fill="none" xmlns="http://www.w3.org/2000/svg">
<path fill-rule="evenodd" clip-rule="evenodd" d="M14.2758 11.2085C13.7238 11.2085 13.2758 11.6555 13.2758 12.2085V15.0485C13.2758 15.5505 12.8668 15.9585 12.3648 15.9585H10.9418C10.3898 15.9585 9.94183 16.4055 9.94183 16.9585C9.94183 17.5115 10.3898 17.9585 10.9418 17.9585H12.3648C13.9698 17.9585 15.2758 16.6525 15.2758 15.0485V12.2085C15.2758 11.6555 14.8278 11.2085 14.2758 11.2085Z" fill="black"/>
<path fill-rule="evenodd" clip-rule="evenodd" d="M21.5733 13.3883H19.6523C19.1503 13.3883 18.7413 12.9803 18.7413 12.4793V7.96826C18.7413 7.41526 18.2933 6.96826 17.7413 6.96826C17.1893 6.96826 16.7413 7.41526 16.7413 7.96826V12.4793C16.7413 14.0833 18.0473 15.3883 19.6523 15.3883H21.5733C22.1253 15.3883 22.5733 14.9413 22.5733 14.3883C22.5733 13.8353 22.1253 13.3883 21.5733 13.3883Z" fill="black"/>
<path fill-rule="evenodd" clip-rule="evenodd" d="M11.4312 13.0485V6.68945C11.4312 6.13645 10.9832 5.68945 10.4312 5.68945C9.87915 5.68945 9.43115 6.13645 9.43115 6.68945V13.0485C9.43115 13.6015 9.87915 14.0485 10.4312 14.0485C10.9832 14.0485 11.4312 13.6015 11.4312 13.0485Z" fill="black"/>
<path fill-rule="evenodd" clip-rule="evenodd" d="M6.90629 8.63818C6.35429 8.63818 5.90629 9.08518 5.90629 9.63818V12.4792C5.90629 12.9802 5.49729 13.3882 4.99529 13.3882H3.57129C3.01829 13.3882 2.57129 13.8352 2.57129 14.3882C2.57129 14.9412 3.01829 15.3882 3.57129 15.3882H4.99529C6.60029 15.3882 7.90629 14.0832 7.90629 12.4792V9.63818C7.90629 9.08518 7.45829 8.63818 6.90629 8.63818Z" fill="black"/>
<path fill-rule="evenodd" clip-rule="evenodd" d="M17.773 16.8989C17.102 16.8989 16.556 17.4419 16.556 18.1089C16.556 18.7819 17.102 19.3289 17.773 19.3289C18.445 19.3289 18.991 18.7819 18.991 18.1089C18.991 17.4419 18.445 16.8989 17.773 16.8989Z" fill="black"/>
<path fill-rule="evenodd" clip-rule="evenodd" d="M14.2139 6.74854C13.5429 6.74854 12.9958 7.29554 12.9958 7.96854C12.9958 8.64154 13.5429 9.18854 14.2139 9.18854C14.8858 9.18854 15.4318 8.64154 15.4318 7.96854C15.4318 7.29554 14.8858 6.74854 14.2139 6.74854Z" fill="black"/>
</svg>