<svg width="24" height="25" viewBox="0 0 24 25" fill="none" xmlns="http://www.w3.org/2000/svg">
<path fill-rule="evenodd" clip-rule="evenodd" d="M18.036 14.5887H16.748C15.628 14.5887 14.717 13.6777 14.717 12.5587V9.53867C14.717 9.12467 15.053 8.78867 15.467 8.78867C15.881 8.78867 16.217 9.12467 16.217 9.53867V12.5587C16.217 12.8507 16.455 13.0887 16.748 13.0887H18.036C18.45 13.0887 18.786 13.4247 18.786 13.8387C18.786 14.2527 18.45 14.5887 18.036 14.5887ZM15.477 17.0887H15.467C15.053 17.0887 14.717 16.7527 14.717 16.3387C14.717 15.9247 15.053 15.5887 15.467 15.5887C15.881 15.5887 16.222 15.9247 16.222 16.3387C16.222 16.7527 15.891 17.0887 15.477 17.0887ZM13.143 10.2937C12.729 10.2937 12.393 9.96267 12.393 9.54867V9.53867C12.393 9.12467 12.729 8.78867 13.143 8.78867C13.557 8.78867 13.893 9.12467 13.893 9.53867C13.893 9.95267 13.557 10.2937 13.143 10.2937ZM13.893 14.2887C13.893 15.4077 12.982 16.3177 11.862 16.3177H10.906C10.492 16.3177 10.156 15.9827 10.156 15.5677C10.156 15.1537 10.492 14.8177 10.906 14.8177H11.862C12.155 14.8177 12.393 14.5807 12.393 14.2887V12.3787C12.393 11.9647 12.729 11.6287 13.143 11.6287C13.557 11.6287 13.893 11.9647 13.893 12.3787V14.2887ZM9.814 12.9387V8.67867C9.814 8.26467 10.15 7.92867 10.564 7.92867C10.978 7.92867 11.314 8.26467 11.314 8.67867V12.9387C11.314 13.3527 10.978 13.6887 10.564 13.6887C10.15 13.6887 9.814 13.3527 9.814 12.9387ZM8.95 12.5587C8.95 13.6777 8.038 14.5887 6.918 14.5887H5.963C5.549 14.5887 5.213 14.2527 5.213 13.8387C5.213 13.4247 5.549 13.0887 5.963 13.0887H6.918C7.211 13.0887 7.45 12.8507 7.45 12.5587V10.6577C7.45 10.2437 7.786 9.90767 8.2 9.90767C8.614 9.90767 8.95 10.2437 8.95 10.6577V12.5587ZM16.684 3.88867H7.316C4.435 3.88867 2.5 5.90967 2.5 8.91767V16.0987C2.5 19.1077 4.435 21.1287 7.316 21.1287H16.683C19.564 21.1287 21.5 19.1077 21.5 16.0987V8.91767C21.5 5.90967 19.564 3.88867 16.684 3.88867Z" fill="black"/>
</svg>