<svg width="24" height="25" viewBox="0 0 24 25" fill="none" xmlns="http://www.w3.org/2000/svg">
<path fill-rule="evenodd" clip-rule="evenodd" d="M16.217 3.00879H7.782C4.623 3.00879 2.5 5.23179 2.5 8.53879V16.4788C2.5 19.7858 4.623 22.0088 7.782 22.0088H11.964C11.962 21.9878 11.951 21.9688 11.951 21.9468V15.0768H10.787C10.373 15.0768 10.037 14.7408 10.037 14.3268C10.037 13.9128 10.373 13.5768 10.787 13.5768H11.951V12.3668C11.951 10.3978 13.554 8.79679 15.524 8.79679H16.528C16.942 8.79679 17.278 9.13279 17.278 9.54679C17.278 9.96079 16.942 10.2968 16.528 10.2968H15.524C14.381 10.2968 13.451 11.2248 13.451 12.3668V13.5768H16.049C16.463 13.5768 16.799 13.9128 16.799 14.3268C16.799 14.7408 16.463 15.0768 16.049 15.0768H13.451V21.9468C13.451 21.9688 13.441 21.9878 13.439 22.0088H16.216C19.376 22.0088 21.5 19.7858 21.5 16.4788V8.53879C21.5 5.23179 19.377 3.00879 16.217 3.00879Z" fill="black"/>
</svg>