<svg width="24" height="25" viewBox="0 0 24 25" fill="none" xmlns="http://www.w3.org/2000/svg">
<path fill-rule="evenodd" clip-rule="evenodd" d="M17.1 14.0738L12.442 17.4838C12.31 17.5808 12.154 17.6288 11.998 17.6288C11.843 17.6288 11.687 17.5798 11.555 17.4828L6.903 14.0728C6.64 13.8808 6.532 13.5398 6.635 13.2308L8.415 7.90079C8.517 7.59479 8.804 7.38779 9.126 7.38779C9.449 7.38779 9.737 7.59479 9.838 7.90179L10.813 10.8388H13.197L14.164 7.90379C14.265 7.59579 14.551 7.38879 14.874 7.38779C15.175 7.34179 15.486 7.59279 15.587 7.90079L17.368 13.2308C17.471 13.5408 17.363 13.8808 17.1 14.0738ZM16.217 3.00879H7.783C4.623 3.00879 2.5 5.23079 2.5 8.53879V16.4778C2.5 19.7858 4.623 22.0088 7.783 22.0088H16.216C19.376 22.0088 21.5 19.7858 21.5 16.4778V8.53879C21.5 5.23079 19.377 3.00879 16.217 3.00879Z" fill="black"/>
<path fill-rule="evenodd" clip-rule="evenodd" d="M14.4515 11.8227C14.3505 12.1307 14.0635 12.3387 13.7395 12.3387H10.2715C9.94847 12.3387 9.66147 12.1317 9.55947 11.8247L9.12447 10.5117L8.23047 13.1867L11.9985 15.9487L15.7715 13.1867L14.8815 10.5197L14.4515 11.8227Z" fill="black"/>
</svg>