<svg width="24" height="25" viewBox="0 0 24 25" fill="none" xmlns="http://www.w3.org/2000/svg">
<path fill-rule="evenodd" clip-rule="evenodd" d="M12.0304 16.4585L8.18223 12.62C8.10395 12.5419 8.10387 12.4151 8.18205 12.3369L8.75045 11.7685L11.1185 9.40996C11.1968 9.3319 11.197 9.20505 11.1187 9.12683L9.52045 7.52853C8.95409 6.96218 8.62354 6.24086 8.53432 5.49178C8.51306 5.31328 8.2869 5.21969 8.1591 5.34611L5.72045 7.75854L2.73045 10.6985C2.50045 10.9285 2.32045 11.1885 2.21045 11.4785C2.06045 11.7985 1.99045 12.1385 2.00045 12.4785C1.99045 13.1285 2.23045 13.7685 2.72045 14.2585L10.2304 21.7285C10.7204 22.2185 11.3604 22.4585 12.0004 22.4585C12.6004 22.4585 13.1904 22.2485 13.6604 21.8285L13.8404 21.6485C14.7404 20.6785 14.7104 19.1385 13.7704 18.1985L12.0304 16.4585Z" fill="black"/>
<path fill-rule="evenodd" clip-rule="evenodd" d="M21.2705 10.7586L13.7605 3.28859C13.2805 2.79859 12.6305 2.55859 11.9905 2.55859C11.4005 2.55859 10.8005 2.76859 10.3305 3.18859L10.1505 3.36859C9.2505 4.33859 9.2805 5.87859 10.2205 6.81859L11.9605 8.55859L15.8087 12.3972C15.887 12.4752 15.8871 12.602 15.8089 12.6802L15.6005 12.8886L15.254 13.245C15.2518 13.2473 15.2487 13.2486 15.2455 13.2486C15.2423 13.2486 15.2392 13.2499 15.237 13.2521L12.8819 15.6072C12.8038 15.6853 12.8038 15.8119 12.8819 15.89L14.4805 17.4886C15.0488 18.0569 15.3729 18.7812 15.464 19.5331C15.4854 19.7105 15.7094 19.8021 15.8364 19.6764L18.2805 17.2586L21.2605 14.3186C21.5005 14.0886 21.6705 13.8186 21.8005 13.5386C21.9305 13.2186 22.0005 12.8786 22.0005 12.5386C22.0005 11.8986 21.7605 11.2486 21.2705 10.7586Z" fill="black"/>
</svg>