<svg width="24" height="25" viewBox="0 0 24 25" fill="none" xmlns="http://www.w3.org/2000/svg">
<path fill-rule="evenodd" clip-rule="evenodd" d="M11.999 17.9288C9.011 17.9288 6.58 15.4968 6.58 12.5088C6.58 9.52079 9.011 7.08879 11.999 7.08879C13.261 7.08879 14.492 7.53279 15.466 8.34079C15.785 8.60479 15.83 9.07679 15.565 9.39679C15.301 9.71379 14.828 9.75979 14.509 9.49479C13.804 8.91079 12.912 8.58879 11.999 8.58879C9.838 8.58879 8.08 10.3478 8.08 12.5088C8.08 14.6698 9.838 16.4288 11.999 16.4288C13.904 16.4288 15.497 15.0628 15.848 13.2588H12.583C12.169 13.2588 11.833 12.9228 11.833 12.5088C11.833 12.0948 12.169 11.7588 12.583 11.7588H16.67C17.084 11.7588 17.42 12.0948 17.42 12.5088C17.42 15.4968 14.988 17.9288 11.999 17.9288ZM16.217 3.00879H7.782C4.623 3.00879 2.5 5.23179 2.5 8.53879V16.4788C2.5 19.7858 4.623 22.0088 7.782 22.0088H16.216C19.376 22.0088 21.5 19.7858 21.5 16.4788V8.53879C21.5 5.23179 19.377 3.00879 16.217 3.00879Z" fill="black"/>
</svg>