<svg width="24" height="25" viewBox="0 0 24 25" fill="none" xmlns="http://www.w3.org/2000/svg">
<path fill-rule="evenodd" clip-rule="evenodd" d="M12 3.00879C6.762 3.00879 2.5 7.27079 2.5 12.5088C2.5 16.2343 4.65852 19.4593 7.78788 21.015C7.96037 21.1008 8.16398 20.9958 8.20269 20.8071C8.822 17.788 9.62119 14.792 10.324 11.7918C10.419 11.3888 10.821 11.1378 11.226 11.2328C11.629 11.3268 11.88 11.7308 11.785 12.1338L11.257 14.3898C11.165 14.9698 11.288 15.4678 11.615 15.8328C11.963 16.2218 12.515 16.4238 13.134 16.3838C15.002 16.2798 16.012 14.4548 16.012 12.7928C16.012 10.6778 14.321 9.08279 12.08 9.08279C9.735 9.08279 7.828 10.7248 7.828 12.7428C7.828 13.0538 7.873 13.3618 7.962 13.6568C8.029 13.8838 8.122 14.1008 8.236 14.3048C8.439 14.6658 8.312 15.1228 7.951 15.3258C7.586 15.5318 7.133 15.4008 6.93 15.0408C6.76 14.7388 6.624 14.4178 6.525 14.0868C6.395 13.6528 6.328 13.1998 6.328 12.7428C6.328 9.89779 8.908 7.58279 12.08 7.58279C15.177 7.58279 17.512 9.82279 17.512 12.7928C17.512 15.1428 16.006 17.7248 13.216 17.8818C13.145 17.8858 13.074 17.8878 13.004 17.8878C12.2774 17.8878 11.6069 17.6793 11.0616 17.3056C10.8693 17.1738 10.5844 17.2585 10.5305 17.4854C10.2288 18.755 9.76306 20.6707 9.58887 21.3861C9.55039 21.5442 9.64505 21.7032 9.80318 21.7414C10.5089 21.9117 11.2428 22.0088 12 22.0088C17.238 22.0088 21.5 17.7468 21.5 12.5088C21.5 7.27079 17.238 3.00879 12 3.00879Z" fill="black"/>
</svg>