<svg width="24" height="25" viewBox="0 0 24 25" fill="none" xmlns="http://www.w3.org/2000/svg">
<path fill-rule="evenodd" clip-rule="evenodd" d="M16.58 12.7908L13.117 16.6028C12.829 16.9168 12.423 17.0958 11.999 17.0958H11.997C11.573 17.0958 11.168 16.9158 10.883 16.6038L7.413 12.7858C6.891 12.2238 6.827 11.3508 7.265 10.7068L8.668 8.65379C8.976 8.19479 9.495 7.91779 10.056 7.91779H13.946C14.509 7.91779 15.03 8.19579 15.34 8.66279L16.734 10.7058C17.172 11.3538 17.106 12.2298 16.58 12.7908ZM16.217 3.00879H7.782C4.623 3.00879 2.5 5.23079 2.5 8.53879V16.4788C2.5 19.7858 4.623 22.0088 7.782 22.0088H16.216C19.376 22.0088 21.5 19.7858 21.5 16.4788V8.53879C21.5 5.23079 19.377 3.00879 16.217 3.00879Z" fill="black"/>
<path fill-rule="evenodd" clip-rule="evenodd" d="M14.0965 9.50072C14.0595 9.44472 14.0065 9.41772 13.9465 9.41772H10.0555C9.99555 9.41772 9.94355 9.44572 9.90955 9.49472L8.50355 11.5527C8.45855 11.6187 8.46155 11.7117 8.51155 11.7657L8.51955 11.7727L11.9925 15.5937L15.4785 11.7737C15.5365 11.7107 15.5395 11.6167 15.4925 11.5477L14.0965 9.50072Z" fill="black"/>
</svg>