<svg width="24" height="25" viewBox="0 0 24 25" fill="none" xmlns="http://www.w3.org/2000/svg">
<path fill-rule="evenodd" clip-rule="evenodd" d="M16.082 13.6468C16.582 14.2138 17.008 14.8588 17.355 15.5698C17.538 15.9418 17.383 16.3908 17.011 16.5728C16.905 16.6248 16.793 16.6488 16.682 16.6488C16.405 16.6488 16.138 16.4948 16.008 16.2278C15.719 15.6378 15.367 15.1048 14.962 14.6438C14.582 14.2228 14.19 13.9388 13.77 13.7808C13.546 13.7018 13.277 13.6658 12.952 13.6568V15.8888C12.952 16.3028 12.616 16.6388 12.202 16.6388C8.27 16.6388 6.568 12.1688 6.568 9.88879C6.568 9.47479 6.904 9.13879 7.318 9.13879C7.732 9.13879 8.068 9.47479 8.068 9.88879C8.068 10.9498 8.898 14.4688 11.452 15.0558V10.6388H11.001C10.587 10.6388 10.251 10.3028 10.251 9.88879C10.251 9.47479 10.587 9.13879 11.001 9.13879H12.202C12.616 9.13879 12.952 9.47479 12.952 9.88879V12.1368C13.288 12.1208 13.555 12.0818 13.786 12.0008C14.193 11.8478 14.584 11.5618 14.963 11.1318C15.367 10.6828 15.717 10.1548 16.008 9.55979C16.19 9.18679 16.64 9.03479 17.011 9.21479C17.383 9.39679 17.538 9.84579 17.355 10.2178C17.003 10.9378 16.576 11.5808 16.084 12.1288C15.821 12.4268 15.542 12.6808 15.249 12.8928C15.538 13.1008 15.814 13.3498 16.082 13.6468ZM12 3.00879C6.762 3.00879 2.5 7.27079 2.5 12.5088C2.5 17.7478 6.762 22.0088 12 22.0088C17.239 22.0088 21.5 17.7478 21.5 12.5088C21.5 7.27079 17.239 3.00879 12 3.00879Z" fill="black"/>
</svg>