<svg width="24" height="25" viewBox="0 0 24 25" fill="none" xmlns="http://www.w3.org/2000/svg">
<path d="M10.6904 21.1367L10.6904 17.1489C10.6904 16.9067 10.8868 16.7103 11.1291 16.7103L12.5104 16.7103C13.7327 16.7102 14.7236 17.7011 14.7236 18.9235C14.7236 19.8644 14.1365 20.6681 13.3086 20.9884" stroke="black" stroke-width="1.5" stroke-linecap="round" stroke-linejoin="round"/>
<path d="M10.6904 20.0781L9.2793 20.0781M10.6904 17.7693L9.2793 17.7693" stroke="black" stroke-width="1.5" stroke-linecap="round" stroke-linejoin="round"/>
<path d="M17.7024 5.66621C14.5537 2.51751 9.4487 2.51751 6.3 5.66621C3.1513 8.81491 3.1513 13.92 6.3 17.0687" stroke="black" stroke-width="1.5" stroke-linecap="round" stroke-linejoin="round"/>
<path d="M11.9892 13.1563L13.9294 10.1571H10.0723L12.0105 7.15625" stroke="black" stroke-width="1.5" stroke-linecap="round" stroke-linejoin="round"/>
<path d="M14.7666 18.9433C15.8379 18.553 16.843 17.9282 17.7023 17.0688C19.7816 14.9896 20.4878 12.0572 19.8209 9.39844" stroke="black" stroke-width="1.5" stroke-linecap="round" stroke-linejoin="round"/>
</svg>