<svg width="25" height="25" viewBox="0 0 25 25" fill="none" xmlns="http://www.w3.org/2000/svg">
<path d="M12.761 6.91797C15.6439 6.91797 17.981 9.25505 17.981 12.138C17.981 15.0209 15.6439 17.358 12.761 17.358C9.8781 17.358 7.54102 15.0209 7.54102 12.138C7.54102 10.3906 8.39954 8.84384 9.71778 7.89637" stroke="black" stroke-width="1.5" stroke-linecap="round" stroke-linejoin="round"/>
<path d="M11.166 12.6563V11.6211M14.3557 12.6563V11.6211" stroke="black" stroke-width="1.5" stroke-linecap="round" stroke-linejoin="round"/>
<path d="M12.3697 21.1367H8.54388C5.59577 21.1367 3.76172 19.0555 3.76172 16.1103V8.1631C3.76172 5.21791 5.60453 3.13672 8.54388 3.13672H16.9786C19.9267 3.13672 21.7617 5.21791 21.7617 8.1631V16.1103C21.7617 19.0555 19.9267 21.1367 16.9776 21.1367H16.0821" stroke="black" stroke-width="1.5" stroke-linecap="round" stroke-linejoin="round"/>
</svg>