<svg width="24" height="25" viewBox="0 0 24 25" fill="none" xmlns="http://www.w3.org/2000/svg">
<path d="M19.3247 12.8061C19.3247 6.69294 19.5907 6.2191 19.0027 5.62656C18.4137 5.03304 12.9617 3.13672 12.0007 3.13672C11.0407 3.13672 5.58767 5.03791 4.99867 5.62656C4.41067 6.21423 4.67767 6.69196 4.67767 12.8061C4.67767 18.9203 12.0007 21.1367 12.0007 21.1367C12.0007 21.1367 16.3795 19.811 18.3655 16.3836" stroke="black" stroke-width="1.5" stroke-linecap="round" stroke-linejoin="round"/>
<path d="M9.07471 13.1204H11.5088V15.6938C11.5088 16.1219 12.0576 16.3005 12.3093 15.9532L15.2848 11.8551C15.4971 11.5628 15.2883 11.1528 14.9272 11.1528H12.4926V8.5799C12.4926 8.15136 11.9443 7.9732 11.6926 8.32001L10.2049 10.3693" stroke="black" stroke-width="1.5" stroke-linecap="round" stroke-linejoin="round"/>
</svg>