<svg width="25" height="24" viewBox="0 0 25 24" fill="none" xmlns="http://www.w3.org/2000/svg">
<path opacity="0.4" d="M20.489 7.62505L14.916 3.08605C13.557 1.97505 11.584 1.97605 10.224 3.08505L4.65296 7.62405C3.78196 8.33005 3.28296 9.37705 3.28296 10.4971V17.6771C3.28296 19.9211 5.10896 21.7471 7.35396 21.7471H11.818H13.318H17.785C20.031 21.7471 21.857 19.9211 21.857 17.6771V10.4971C21.857 9.37605 21.358 8.33005 20.489 7.62505Z" fill="black"/>
<path fill-rule="evenodd" clip-rule="evenodd" d="M15.6831 17.588C15.8751 17.588 16.0671 17.514 16.2131 17.368C16.5061 17.075 16.5061 16.6 16.2131 16.307L15.1871 15.281C15.5481 14.72 15.7421 14.066 15.7421 13.383C15.7421 12.444 15.3761 11.561 14.7121 10.897C13.3401 9.52701 11.1091 9.52701 9.73605 10.897C9.07205 11.561 8.70605 12.444 8.70605 13.383C8.70605 14.322 9.07205 15.204 9.73405 15.866C10.8831 17.024 12.7941 17.212 14.1281 16.344L15.1521 17.368C15.2991 17.514 15.4911 17.588 15.6831 17.588ZM10.7972 11.9582C11.1902 11.5642 11.7072 11.3682 12.2242 11.3682C12.7412 11.3682 13.2582 11.5642 13.6512 11.9572C14.0322 12.3382 14.2422 12.8442 14.2422 13.3822C14.2422 13.9202 14.0322 14.4262 13.6512 14.8072L13.6492 14.8092C12.8872 15.5772 11.5632 15.5802 10.7972 14.8062C10.4152 14.4262 10.2062 13.9202 10.2062 13.3822C10.2062 12.8442 10.4152 12.3382 10.7972 11.9582Z" fill="black"/>
</svg>