<svg width="25" height="24" viewBox="0 0 25 24" fill="none" xmlns="http://www.w3.org/2000/svg">
<path opacity="0.4" d="M20.489 7.62505L14.916 3.08605C13.557 1.97505 11.584 1.97605 10.224 3.08505L4.65296 7.62405C3.78196 8.33005 3.28296 9.37705 3.28296 10.4971V17.6771C3.28296 19.9211 5.10896 21.7471 7.35396 21.7471H11.818H13.318H17.785C20.031 21.7471 21.857 19.9211 21.857 17.6771V10.4971C21.857 9.37605 21.358 8.33005 20.489 7.62505Z" fill="black"/>
<path d="M11.8179 21.7471V15.7271C11.8179 15.3121 12.1539 14.9771 12.5679 14.9771C12.9819 14.9771 13.3179 15.3121 13.3179 15.7271V21.7471H11.8179Z" fill="black"/>
</svg>