<svg width="25" height="24" viewBox="0 0 25 24" fill="none" xmlns="http://www.w3.org/2000/svg">
<path opacity="0.4" d="M20.489 7.62505L14.916 3.08605C13.557 1.97505 11.584 1.97605 10.224 3.08505L4.65296 7.62405C3.78196 8.33005 3.28296 9.37705 3.28296 10.4971V17.6771C3.28296 19.9211 5.10896 21.7471 7.35396 21.7471H11.818H13.318H17.785C20.031 21.7471 21.857 19.9211 21.857 17.6771V10.4971C21.857 9.37605 21.358 8.33005 20.489 7.62505Z" fill="black"/>
<path fill-rule="evenodd" clip-rule="evenodd" d="M16.1677 17.5677C16.1677 17.9817 15.8317 18.3177 15.4177 18.3177C15.0037 18.3177 14.6677 17.9817 14.6677 17.5677V13.8477C14.6677 13.6737 14.5287 13.5377 14.3507 13.5377H10.7897C10.6107 13.5377 10.4717 13.6737 10.4717 13.8477V17.5677C10.4717 17.9817 10.1357 18.3177 9.72168 18.3177C9.30768 18.3177 8.97168 17.9817 8.97168 17.5677V13.8477C8.97168 12.8497 9.78768 12.0377 10.7897 12.0377H14.3507C15.3527 12.0377 16.1677 12.8497 16.1677 13.8477V17.5677Z" fill="black"/>
</svg>