<svg width="25" height="24" viewBox="0 0 25 24" fill="none" xmlns="http://www.w3.org/2000/svg">
<path opacity="0.4" d="M5.47169 18.0764L4.35669 11.4384L11.8959 5.25167C12.2879 4.92982 12.8523 4.93 13.2443 5.25185L20.7817 11.4384L19.6667 18.0764C19.3827 19.7654 17.9347 20.9904 16.2227 20.9904H8.91469C7.20469 20.9904 5.75569 19.7654 5.47169 18.0764Z" fill="black"/>
<path fill-rule="evenodd" clip-rule="evenodd" d="M14.5133 3.7059C14.5133 3.70596 14.5132 3.70584 14.5133 3.7059L22.2044 10.0164C22.6314 10.3667 22.6935 10.9969 22.3432 11.4238C21.9929 11.8508 21.3627 11.9129 20.9358 11.5626L13.2444 5.25188C12.8524 4.93004 12.288 4.92985 11.896 5.2517L4.20441 11.5626C3.77744 11.9129 3.14734 11.8508 2.79702 11.4238C2.4467 10.9969 2.50883 10.3667 2.93579 10.0164L10.6269 3.7059C10.627 3.70584 10.6268 3.70596 10.6269 3.7059C11.7565 2.7787 13.3837 2.7787 14.5133 3.7059Z" fill="black"/>
<path fill-rule="evenodd" clip-rule="evenodd" d="M9.81812 11.28C9.81812 12.802 11.0551 14.04 12.5751 14.04C14.0961 14.04 15.3331 12.802 15.3331 11.28C15.3331 9.76303 14.0961 8.53003 12.5751 8.53003C11.0551 8.53003 9.81812 9.76303 9.81812 11.28ZM10.9311 17.26H14.2131C14.6271 17.26 14.9631 16.924 14.9631 16.51C14.9631 16.096 14.6271 15.76 14.2131 15.76H10.9311C10.5171 15.76 10.1811 16.096 10.1811 16.51C10.1811 16.924 10.5171 17.26 10.9311 17.26ZM11.3181 11.28C11.3181 10.591 11.8821 10.03 12.5751 10.03C13.2691 10.03 13.8331 10.591 13.8331 11.28C13.8331 11.975 13.2691 12.54 12.5751 12.54C11.8821 12.54 11.3181 11.975 11.3181 11.28Z" fill="black"/>
</svg>