<svg width="25" height="24" viewBox="0 0 25 24" fill="none" xmlns="http://www.w3.org/2000/svg">
<path opacity="0.4" d="M20.4435 6.24923L14.2925 2.70923C13.2315 2.09823 11.9105 2.09823 10.8475 2.70823L4.69251 6.25223C3.62951 6.87423 2.96851 8.02023 2.96851 9.23923V18.5592C2.96851 20.3182 4.39951 21.7492 6.15851 21.7492H7.26351H17.8695H18.9825C20.7405 21.7492 22.1715 20.3182 22.1715 18.5592V9.23923C22.1715 8.02023 21.5115 6.87523 20.4435 6.24923Z" fill="black"/>
<path d="M9.6604 19.3492C9.6604 20.6722 9.6604 21.7492 9.6604 21.7492H15.4714C15.4714 21.7492 15.4714 20.6722 15.4714 19.3492V14.2992C15.4714 13.7482 15.0264 13.2992 14.4784 13.2992H10.6534C10.1054 13.2992 9.6604 13.7482 9.6604 14.2992V19.3492Z" fill="black"/>
</svg>