<svg width="25" height="24" viewBox="0 0 25 24" fill="none" xmlns="http://www.w3.org/2000/svg">
<path opacity="0.4" fill-rule="evenodd" clip-rule="evenodd" d="M20.597 7.44324L15.545 3.31324C13.821 1.90324 11.319 1.90324 9.59397 3.31324L4.54097 7.44424C3.20697 8.54024 2.57897 10.2732 2.90397 11.9652L4.04597 17.9252C4.46997 20.1382 6.41097 21.7442 8.65897 21.7442H16.48C18.73 21.7442 20.67 20.1382 21.093 17.9252L22.236 11.9652C22.561 10.2732 21.933 8.54124 20.597 7.44324Z" fill="black"/>
<path fill-rule="evenodd" clip-rule="evenodd" d="M15.1741 17.9342C14.7601 17.9342 14.4241 17.5982 14.4241 17.1842C14.4241 16.1592 13.5921 15.3242 12.5701 15.3242C11.5471 15.3242 10.7151 16.1592 10.7151 17.1842C10.7151 17.5982 10.3791 17.9342 9.96509 17.9342C9.55009 17.9342 9.21509 17.5982 9.21509 17.1842C9.21509 15.3312 10.7191 13.8242 12.5701 13.8242C14.4191 13.8242 15.9241 15.3312 15.9241 17.1842C15.9241 17.5982 15.5881 17.9342 15.1741 17.9342Z" fill="black"/>
</svg>