<svg width="25" height="24" viewBox="0 0 25 24" fill="none" xmlns="http://www.w3.org/2000/svg">
<path opacity="0.4" d="M20.5965 7.44349L15.5445 3.31349C13.8205 1.90249 11.3185 1.90349 9.59549 3.31349L4.54049 7.44449C3.20549 8.54049 2.57849 10.2735 2.90449 11.9655L4.04549 17.9255C4.46949 20.1385 6.40949 21.7445 8.65849 21.7445H8.91549H16.2255H16.4795C18.7295 21.7445 20.6695 20.1385 21.0935 17.9255L22.2365 11.9655C22.5605 10.2735 21.9325 8.54049 20.5965 7.44349Z" fill="black"/>
<path d="M9.21553 17.6444V21.4444C9.21553 21.6101 9.08121 21.7444 8.91553 21.7444L11.0156 21.7441C10.8499 21.7441 10.7156 21.6098 10.7156 21.4441V17.6441C10.7156 16.6241 11.5476 15.7941 12.5706 15.7941C13.5936 15.7941 14.4256 16.6241 14.4256 17.6441V21.4441C14.4256 21.6098 14.2913 21.7441 14.1256 21.7441L16.2255 21.7444C16.0598 21.7444 15.9255 21.6101 15.9255 21.4444V17.6444C15.9255 15.7974 14.4205 14.2944 12.5705 14.2944C10.7205 14.2944 9.21553 15.7974 9.21553 17.6444Z" fill="black"/>
</svg>