<svg width="25" height="24" viewBox="0 0 25 24" fill="none" xmlns="http://www.w3.org/2000/svg">
<path opacity="0.4" d="M20.489 7.62505L14.916 3.08605C13.557 1.97505 11.584 1.97605 10.224 3.08505L4.65296 7.62405C3.78196 8.33005 3.28296 9.37705 3.28296 10.4971V17.6771C3.28296 19.9211 5.10896 21.7471 7.35396 21.7471H11.818H13.318H17.785C20.031 21.7471 21.857 19.9211 21.857 17.6771V10.4971C21.857 9.37605 21.358 8.33005 20.489 7.62505Z" fill="black"/>
<path fill-rule="evenodd" clip-rule="evenodd" d="M13.3196 16.787C13.3196 17.201 12.9836 17.537 12.5696 17.537C12.1556 17.537 11.8196 17.201 11.8196 16.787V12.677C11.8196 12.263 12.1556 11.927 12.5696 11.927C12.9836 11.927 13.3196 12.263 13.3196 12.677V16.787Z" fill="black"/>
</svg>