<svg width="25" height="24" viewBox="0 0 25 24" fill="none" xmlns="http://www.w3.org/2000/svg">
<path opacity="0.4" fill-rule="evenodd" clip-rule="evenodd" d="M21.1271 8.04707L14.8921 3.06607C13.5171 1.97307 11.5961 1.97407 10.2191 3.06807L4.02807 8.03507C3.27307 8.60907 2.83207 9.48007 2.82007 10.4331V21.0031C2.82007 21.4171 3.15607 21.7531 3.57007 21.7531C3.98407 21.7531 4.32007 21.4171 4.32007 21.0031V10.4431C4.32607 9.96407 4.55007 9.52307 4.95107 9.21807L11.1551 4.24007C11.9801 3.58507 13.1331 3.58407 13.9571 4.23907L20.2101 9.23407C20.5851 9.51307 20.8131 9.96607 20.8201 10.4331V21.0031C20.8201 21.4171 21.1561 21.7531 21.5701 21.7531C21.9841 21.7531 22.3201 21.4171 22.3201 21.0031V10.4211C22.3051 9.48007 21.8511 8.58607 21.1271 8.04707Z" fill="black"/>
<path fill-rule="evenodd" clip-rule="evenodd" d="M14.5389 12.6039H10.6009C9.2289 12.6039 8.3689 13.5739 8.3689 14.9439V18.6539C8.3689 20.0339 9.2249 21.0039 10.6009 21.0039H14.5389C15.9149 21.0039 16.7719 20.0339 16.7719 18.6539V14.9439C16.7719 13.5739 15.9149 12.6039 14.5389 12.6039Z" fill="black"/>
</svg>