<svg width="25" height="24" viewBox="0 0 25 24" fill="none" xmlns="http://www.w3.org/2000/svg">
<path opacity="0.4" d="M11.018 2.91187L4.76601 6.52187C3.80201 7.07087 3.20801 8.09387 3.20801 9.21287V18.8719C3.20801 20.3179 4.38401 21.4999 5.83601 21.4999H6.98401H18.159H19.305C20.756 21.4999 21.932 20.3179 21.932 18.8719V9.21287C21.932 8.09387 21.339 7.07087 20.374 6.52187L14.123 2.91187C13.162 2.36287 11.979 2.36287 11.018 2.91187Z" fill="black"/>
<path d="M9.42993 19.0508C9.42993 20.4018 9.42993 21.4998 9.42993 21.4998H15.7119C15.7119 21.4998 15.7119 20.4018 15.7119 19.0508V15.6098C15.7119 13.8898 14.3199 12.4958 12.6009 12.4958H12.5409C10.8229 12.4958 9.42993 13.8898 9.42993 15.6098V19.0508Z" fill="black"/>
</svg>