<svg width="24" height="24" viewBox="0 0 24 24" fill="none" xmlns="http://www.w3.org/2000/svg">
<path fill-rule="evenodd" clip-rule="evenodd" d="M4.11987 16.5308C4.53409 16.5308 4.86987 16.8666 4.86987 17.2808C4.86987 17.8477 5.38466 18.5888 6.74832 19.2323C8.05381 19.8484 9.90994 20.25 12.0004 20.25C14.0909 20.25 15.9465 19.8484 17.2515 19.2324C18.6145 18.5889 19.129 17.8478 19.129 17.2808C19.129 16.8666 19.4648 16.5308 19.879 16.5308C20.2932 16.5308 20.629 16.8666 20.629 17.2808C20.629 18.7676 19.3802 19.8861 17.8918 20.5888C16.3454 21.3189 14.2617 21.75 12.0004 21.75C9.73909 21.75 7.65495 21.3189 6.10812 20.5888C4.61946 19.8863 3.36987 18.7678 3.36987 17.2808C3.36987 16.8666 3.70566 16.5308 4.11987 16.5308Z" fill="black"/>
<path fill-rule="evenodd" clip-rule="evenodd" d="M12.0002 14.3115C11.2793 14.3115 10.5831 14.3594 9.92667 14.448C9.51619 14.5035 9.13847 14.2157 9.08301 13.8052C9.02756 13.3947 9.31536 13.017 9.72585 12.9615C10.4502 12.8637 11.2135 12.8115 12.0002 12.8115C12.73 12.8115 13.4399 12.8567 14.1172 12.9413C14.5283 12.9927 14.8198 13.3676 14.7684 13.7786C14.717 14.1896 14.3422 14.4811 13.9312 14.4298C13.3163 14.3529 12.6685 14.3115 12.0002 14.3115Z" fill="black"/>
<path fill-rule="evenodd" clip-rule="evenodd" d="M7.71781 14.1284C7.86693 14.5149 7.67454 14.949 7.28809 15.0982C6.46455 15.4159 5.83739 15.7992 5.42821 16.1973C5.02172 16.5929 4.86914 16.9607 4.86914 17.281C4.86914 17.6953 4.53335 18.031 4.11914 18.031C3.70493 18.031 3.36914 17.6953 3.36914 17.281C3.36914 16.4389 3.78145 15.7068 4.38214 15.1223C4.98014 14.5404 5.80246 14.0636 6.7481 13.6987C7.13454 13.5496 7.56869 13.742 7.71781 14.1284Z" fill="black"/>
<path fill-rule="evenodd" clip-rule="evenodd" d="M16.2786 14.1288C16.4276 13.7423 16.8616 13.5497 17.2481 13.6986C18.194 14.0631 19.0164 14.5399 19.6145 15.122C20.2152 15.7066 20.6274 16.439 20.6274 17.281C20.6274 17.6953 20.2916 18.031 19.8774 18.031C19.4632 18.031 19.1274 17.6953 19.1274 17.281C19.1274 16.9606 18.9748 16.5925 18.5683 16.1969C18.1592 15.7987 17.5321 15.4155 16.7088 15.0983C16.3223 14.9493 16.1297 14.5153 16.2786 14.1288Z" fill="black"/>
<path fill-rule="evenodd" clip-rule="evenodd" d="M10.212 3.37284C10.9847 1.87572 13.0117 1.87572 13.7843 3.37284L13.7844 3.37295L20.1688 15.7486C20.3587 16.1167 20.2142 16.569 19.8461 16.7589C19.478 16.9488 19.0257 16.8044 18.8357 16.4363L12.4514 4.06077C12.3315 3.82854 12.1499 3.75 11.9982 3.75C11.8464 3.75 11.6648 3.82854 11.545 4.06077L5.16058 16.4363C4.97068 16.8044 4.51831 16.9488 4.1502 16.7589C3.78208 16.569 3.63762 16.1167 3.82752 15.7486L10.212 3.37295L10.212 3.37284Z" fill="black"/>
</svg>
