<svg width="24" height="24" viewBox="0 0 24 24" fill="none" xmlns="http://www.w3.org/2000/svg">
<path fill-rule="evenodd" clip-rule="evenodd" d="M6.52257 3.02828C6.81547 3.32117 6.81547 3.79605 6.52257 4.08894C2.82571 7.7858 2.82585 13.7805 6.52274 17.4774C10.2196 21.1743 16.214 21.1742 19.9109 17.4773C20.2038 17.1844 20.6787 17.1844 20.9716 17.4773C21.2645 17.7702 21.2645 18.245 20.9716 18.5379C16.6889 22.8206 9.74476 22.8208 5.46208 18.5381C1.17943 14.2554 1.17923 7.31096 5.46191 3.02828C5.75481 2.73539 6.22968 2.73539 6.52257 3.02828Z" fill="black"/>
<path fill-rule="evenodd" clip-rule="evenodd" d="M7.6638 3.7512C7.08106 3.73495 6.7287 3.88276 6.52252 4.08894C6.31634 4.29512 6.16853 4.64748 6.18477 5.23023C6.20106 5.81516 6.38402 6.55909 6.75398 7.42245C7.49213 9.14504 8.91193 11.1975 10.8566 13.1422C12.8018 15.0874 14.8545 16.5074 16.5772 17.2457C17.4407 17.6157 18.1846 17.7987 18.7696 17.815C19.3523 17.8313 19.7047 17.6834 19.9109 17.4773C20.117 17.2711 20.2648 16.9187 20.2486 16.336C20.2323 15.7511 20.0493 15.0072 19.6793 14.1438C18.941 12.4212 17.521 10.3688 15.5758 8.42411L15.5757 8.42398C13.631 6.47881 11.5786 5.05877 9.85599 4.3205C8.99264 3.95049 8.24872 3.7675 7.6638 3.7512ZM16.6365 7.36345C14.5914 5.31783 12.3848 3.77236 10.4469 2.94179C9.47997 2.52739 8.54325 2.27513 7.7056 2.25178C6.86577 2.22837 6.05364 2.4365 5.46186 3.02828C4.87009 3.62005 4.66196 4.43218 4.68535 5.272C4.70868 6.10964 4.9609 7.04635 5.37523 8.01326C6.20566 9.95119 7.75085 12.1577 9.79595 14.2028C11.8415 16.2484 14.0483 17.7939 15.9864 18.6244C16.9534 19.0388 17.8901 19.2911 18.7278 19.3144C19.5676 19.3378 20.3797 19.1297 20.9715 18.5379C21.5633 17.9462 21.7714 17.134 21.748 16.2942C21.7247 15.4565 21.4724 14.5198 21.058 13.5529C20.2275 11.615 18.682 9.40851 16.6365 7.36345Z" fill="black"/>
</svg>
