<svg width="24" height="24" viewBox="0 0 24 24" fill="none" xmlns="http://www.w3.org/2000/svg">
<path d="M15.9662 21.4358H8.03321C7.32947 21.4375 6.64337 21.2157 6.07383 20.8023C5.50428 20.3889 5.08074 19.8054 4.86423 19.1358L2.41422 11.5918C2.19485 10.9227 2.19393 10.2012 2.41163 9.53157C2.62932 8.86195 3.05434 8.27892 3.62522 7.86676L10.0422 3.20375C10.6104 2.78804 11.2962 2.56396 12.0002 2.56396C12.7043 2.56396 13.39 2.78804 13.9582 3.20375L20.3762 7.86676C20.9463 8.27961 21.3708 8.86264 21.5885 9.53198C21.8063 10.2013 21.8062 10.9225 21.5882 11.5918L19.1352 19.1358C18.9185 19.8052 18.4948 20.3886 17.9253 20.8019C17.3558 21.2152 16.6699 21.4372 15.9662 21.4358ZM12.0002 4.06375C11.6137 4.06377 11.2372 4.18669 10.9252 4.41475L4.50822 9.07776C4.19458 9.30457 3.96107 9.62512 3.84138 9.99319C3.72168 10.3613 3.72199 10.7579 3.84223 11.1258L6.29322 18.6718C6.41227 19.0398 6.64512 19.3605 6.9582 19.5877C7.27128 19.8149 7.64841 19.9367 8.03522 19.9358H15.9682C16.3551 19.9365 16.7322 19.8145 17.0454 19.5874C17.3586 19.3603 17.5917 19.0397 17.7112 18.6718L20.1632 11.1268C20.2833 10.7586 20.2834 10.3618 20.1635 9.99361C20.0436 9.62538 19.81 9.3047 19.4962 9.07776L13.0782 4.41475C12.7652 4.18646 12.3877 4.06355 12.0002 4.06375Z" fill="black"/>
</svg>
