<svg width="24" height="24" viewBox="0 0 24 24" fill="none" xmlns="http://www.w3.org/2000/svg">
<path d="M14.4003 21.3681C14.0956 21.3689 13.7947 21.3005 13.5203 21.1681L12.2202 20.5301C12.1524 20.4973 12.0781 20.4803 12.0027 20.4803C11.9274 20.4803 11.853 20.4973 11.7852 20.5301L10.4852 21.1681C10.0208 21.3972 9.48516 21.4357 8.99268 21.2754C8.50019 21.1151 8.08985 20.7687 7.84924 20.3101L7.16827 19.0281C7.13313 18.9618 7.08335 18.9044 7.02271 18.8602C6.96206 18.816 6.89211 18.7862 6.81824 18.7731L5.38623 18.5221C4.87622 18.4346 4.42059 18.1513 4.11646 17.7327C3.81232 17.314 3.68376 16.7931 3.75824 16.2811L3.95825 14.8421C3.96871 14.7677 3.962 14.6918 3.9386 14.6204C3.9152 14.549 3.87572 14.4839 3.82324 14.4301L2.81427 13.3861C2.45196 13.0157 2.24902 12.5182 2.24902 12.0001C2.24902 11.4819 2.45196 10.9844 2.81427 10.6141L3.82227 9.57106C3.8748 9.5173 3.91428 9.4522 3.93768 9.38077C3.96109 9.30934 3.96775 9.23349 3.95721 9.15906L3.75726 7.71807C3.68281 7.20585 3.81145 6.68482 4.11578 6.26615C4.42012 5.84747 4.87603 5.5643 5.38623 5.47707L6.81726 5.22707C6.89145 5.21408 6.96163 5.18412 7.02234 5.13954C7.08305 5.09496 7.13263 5.03696 7.16724 4.97006L7.84827 3.68807C8.09014 3.2307 8.50071 2.88558 8.99286 2.72595C9.485 2.56632 10.02 2.60475 10.4843 2.83307L11.7842 3.47006C11.8518 3.5031 11.926 3.52028 12.0012 3.52028C12.0764 3.52028 12.1507 3.5031 12.2183 3.47006L13.5182 2.83307C13.9823 2.60318 14.5178 2.56392 15.0104 2.7237C15.503 2.88347 15.9135 3.22959 16.1542 3.68807L16.8353 4.97107C16.8704 5.03767 16.9202 5.09536 16.9811 5.13973C17.0419 5.1841 17.1121 5.21397 17.1862 5.22707L18.6172 5.47806C19.1271 5.56531 19.5828 5.84815 19.8872 6.26634C20.1917 6.68454 20.3209 7.20506 20.2473 7.71707L20.0422 9.15906C20.0312 9.23365 20.0377 9.30979 20.0612 9.38146C20.0846 9.45312 20.1243 9.51838 20.1772 9.57207L21.1862 10.6151C21.5482 10.9854 21.751 11.4827 21.751 12.0006C21.751 12.5184 21.5482 13.0157 21.1862 13.3861L20.1763 14.4301C20.1237 14.4836 20.0843 14.5485 20.061 14.6198C20.0378 14.6911 20.0313 14.7669 20.0422 14.8411L20.2422 16.2801C20.3165 16.7924 20.1877 17.3134 19.8834 17.7322C19.5791 18.1509 19.1234 18.4344 18.6132 18.5221L17.1823 18.7731C17.1081 18.786 17.0378 18.8158 16.9769 18.8602C16.9161 18.9046 16.8662 18.9624 16.8312 19.0291L16.1503 20.3101C15.9822 20.6288 15.7304 20.8956 15.4221 21.082C15.1138 21.2685 14.7606 21.3673 14.4003 21.3681ZM12.0002 18.9771C12.303 18.9763 12.602 19.0447 12.8743 19.1771L14.1743 19.8151C14.2892 19.8715 14.4215 19.8809 14.5433 19.8413C14.665 19.8017 14.7665 19.7163 14.8262 19.6031L15.5082 18.3201C15.6494 18.0515 15.8506 17.819 16.0962 17.6407C16.3418 17.4624 16.6251 17.3431 16.9243 17.2921L18.3542 17.0411C18.4801 17.0181 18.592 16.9472 18.6666 16.8433C18.7412 16.7394 18.7727 16.6106 18.7543 16.4841L18.5543 15.0471C18.5106 14.7467 18.5366 14.4404 18.6302 14.1517C18.7239 13.863 18.8826 13.5996 19.0942 13.3821L20.1042 12.3381C20.1939 12.2468 20.2441 12.124 20.2441 11.9961C20.2441 11.8681 20.1939 11.7453 20.1042 11.6541L19.0933 10.6091C18.8816 10.3913 18.7228 10.1278 18.6292 9.83898C18.5355 9.5501 18.5095 9.24358 18.5532 8.94307L18.7532 7.50307C18.771 7.37717 18.7393 7.24929 18.6647 7.14633C18.5901 7.04338 18.4784 6.97338 18.3533 6.95107L16.9222 6.69907C16.6233 6.64719 16.3402 6.52746 16.0947 6.34908C15.8493 6.17069 15.6479 5.9384 15.5062 5.67006L14.8253 4.38606C14.7661 4.27228 14.6646 4.18635 14.5425 4.14687C14.4205 4.10738 14.2878 4.11751 14.1732 4.17507L12.8672 4.81307C12.5948 4.94555 12.2957 5.01439 11.9927 5.01439C11.6898 5.01439 11.3907 4.94555 11.1182 4.81307L9.81226 4.17507C9.69721 4.11859 9.56465 4.10914 9.44275 4.14871C9.32085 4.18829 9.21918 4.27379 9.15924 4.38707L8.47827 5.66907C8.33687 5.93752 8.13575 6.16997 7.89044 6.34853C7.64514 6.52709 7.36215 6.64701 7.06323 6.69907L5.63226 6.95006C5.5069 6.97237 5.39506 7.04253 5.32043 7.14571C5.2458 7.24888 5.21419 7.37702 5.23224 7.50307L5.43225 8.94406C5.47564 9.24426 5.44952 9.5504 5.3559 9.8389C5.26227 10.1274 5.10366 10.3906 4.89227 10.6081L3.88226 11.6531C3.79231 11.7444 3.74188 11.8674 3.74188 11.9956C3.74188 12.1237 3.79231 12.2468 3.88226 12.3381L4.89124 13.3821C5.10307 13.5995 5.26208 13.8628 5.3559 14.1515C5.44971 14.4402 5.47582 14.7466 5.43225 15.0471L5.23224 16.4851C5.21386 16.6115 5.24533 16.7402 5.31995 16.8439C5.39457 16.9476 5.50654 17.0183 5.63226 17.0411L7.06323 17.2921C7.36222 17.3432 7.64541 17.4625 7.89081 17.6408C8.13621 17.8191 8.33725 18.0515 8.47827 18.3201L9.15924 19.6021C9.2203 19.7145 9.32213 19.7993 9.44379 19.8389C9.56545 19.8785 9.69767 19.87 9.81323 19.8151L11.1132 19.1771C11.3896 19.0432 11.6931 18.9747 12.0002 18.9771Z" fill="black"/>
</svg>
