<svg width="24" height="24" viewBox="0 0 24 24" fill="none" xmlns="http://www.w3.org/2000/svg">
<path fill-rule="evenodd" clip-rule="evenodd" d="M13.8083 3.24815C12.9483 1.95759 11.0526 1.95857 10.1921 3.24781L13.8083 3.24815ZM13.8083 3.24815L21.3846 14.6131C21.3846 14.6131 21.3846 14.6131 21.3846 14.6131C22.11 15.7011 21.7175 17.177 20.5489 17.7621L13.4038 21.3346C12.5205 21.7763 11.4805 21.776 10.5967 21.3348L3.45163 17.7623C2.28304 17.1772 1.89019 15.7012 2.61555 14.6131C2.61555 14.6131 2.61555 14.6131 2.61555 14.6131L10.1921 3.24781M11.4397 4.08052C11.4396 4.08063 11.4398 4.08041 11.4397 4.08052L3.86364 15.4451C3.63896 15.7821 3.76009 16.2392 4.12279 16.4208L11.2668 19.9928C11.729 20.2235 12.2723 20.2233 12.733 19.993L19.8774 16.4208C20.2401 16.2392 20.3612 15.7822 20.1366 15.4451L12.5602 4.08018C12.2945 3.68138 11.707 3.68052 11.4397 4.08052Z" fill="black"/>
<path fill-rule="evenodd" clip-rule="evenodd" d="M12 2.36816C12.4142 2.36816 12.75 2.70395 12.75 3.11816V20.9694C12.75 21.3836 12.4142 21.7194 12 21.7194C11.5858 21.7194 11.25 21.3836 11.25 20.9694V3.11816C11.25 2.70395 11.5858 2.36816 12 2.36816Z" fill="black"/>
</svg>
