<svg width="24" height="24" viewBox="0 0 24 24" fill="none" xmlns="http://www.w3.org/2000/svg">
<path fill-rule="evenodd" clip-rule="evenodd" d="M12 3.75C7.44329 3.75 3.75 7.44329 3.75 12C3.75 16.5567 7.44329 20.25 12 20.25C16.5567 20.25 20.25 16.5567 20.25 12C20.25 7.44329 16.5567 3.75 12 3.75ZM2.25 12C2.25 6.61487 6.61487 2.25 12 2.25C17.3851 2.25 21.75 6.61487 21.75 12C21.75 17.3851 17.3851 21.75 12 21.75C6.61487 21.75 2.25 17.3851 2.25 12Z" fill="black"/>
<path fill-rule="evenodd" clip-rule="evenodd" d="M4.60441 9.88354C4.85696 10.2119 4.79554 10.6827 4.46723 10.9353C3.91351 11.3612 3.75 11.7309 3.75 11.9998C3.75 12.414 3.41421 12.7498 3 12.7498C2.58579 12.7498 2.25 12.414 2.25 11.9998C2.25 11.0719 2.81622 10.3128 3.55266 9.74635C3.88098 9.4938 4.35186 9.55522 4.60441 9.88354Z" fill="black"/>
<path fill-rule="evenodd" clip-rule="evenodd" d="M11.04 8.40778C11.0716 8.82079 10.7623 9.18115 10.3493 9.21267C9.05585 9.31137 7.87492 9.52502 6.87447 9.82046C6.47722 9.93777 6.06008 9.71083 5.94277 9.31358C5.82546 8.91633 6.05239 8.49919 6.44965 8.38187C7.56445 8.05267 8.85097 7.82264 10.2352 7.71702C10.6482 7.6855 11.0085 7.99476 11.04 8.40778Z" fill="black"/>
<path fill-rule="evenodd" clip-rule="evenodd" d="M12.8711 8.40361C12.9012 7.99049 13.2605 7.67994 13.6736 7.70999C15.056 7.81052 16.3429 8.03335 17.4613 8.35625C17.8592 8.47115 18.0887 8.88691 17.9738 9.28487C17.8589 9.68283 17.4431 9.91229 17.0452 9.79739C16.0405 9.50732 14.8581 9.30009 13.5648 9.20603C13.1516 9.17599 12.8411 8.81673 12.8711 8.40361Z" fill="black"/>
<path fill-rule="evenodd" clip-rule="evenodd" d="M19.3958 9.88354C19.6484 9.55522 20.1192 9.4938 20.4476 9.74635C21.1839 10.3128 21.7503 11.0719 21.7503 11.9998C21.7503 12.414 21.4145 12.7498 21.0003 12.7498C20.5861 12.7498 20.2503 12.414 20.2503 11.9998C20.2503 11.731 20.0868 11.3613 19.533 10.9353C19.2047 10.6827 19.1433 10.2119 19.3958 9.88354Z" fill="black"/>
<path fill-rule="evenodd" clip-rule="evenodd" d="M3 11.25C3.41421 11.25 3.75 11.5858 3.75 12C3.75 12.2242 3.86055 12.5138 4.22255 12.8562C4.58611 13.2 5.15245 13.5442 5.91448 13.8491C7.43436 14.4571 9.58555 14.85 12 14.85C14.4145 14.85 16.5656 14.4571 18.0855 13.8491C18.8475 13.5442 19.4139 13.2 19.7775 12.8562C20.1394 12.5138 20.25 12.2242 20.25 12C20.25 11.5858 20.5858 11.25 21 11.25C21.4142 11.25 21.75 11.5858 21.75 12C21.75 12.7696 21.3569 13.427 20.8081 13.946C20.2609 14.4635 19.5093 14.8951 18.6427 15.2418C16.9053 15.9368 14.5565 16.35 12 16.35C9.44353 16.35 7.09472 15.9368 5.35734 15.2418C4.49072 14.8951 3.73911 14.4635 3.19188 13.946C2.64308 13.427 2.25 12.7696 2.25 12C2.25 11.5858 2.58579 11.25 3 11.25Z" fill="black"/>
</svg>
