<svg width="24" height="24" viewBox="0 0 24 24" fill="none" xmlns="http://www.w3.org/2000/svg">
<path d="M14.7797 19.18C15.367 20.1496 16.4325 20.797 17.6479 20.797C19.4991 20.797 21 19.2961 21 17.4449C21 15.5937 19.4991 14.0928 17.6479 14.0928C16.3386 14.0928 15.2035 14.8447 14.6529 15.9402" stroke="black" stroke-width="1.5" stroke-linecap="round" stroke-linejoin="round"/>
<path d="M16.5064 15.9391H14.6504V14.0938" stroke="black" stroke-width="1.5" stroke-linecap="round" stroke-linejoin="round"/>
<path d="M20.9207 10.3597L20.9023 8.02656C20.8955 5.09736 19.0656 3.03134 16.1335 3.03908L7.7446 3.05844C4.82121 3.06521 2.99324 5.13897 3.00002 8.06914L3.0184 15.9732C3.02518 18.9024 4.85411 20.9675 7.78718 20.9607L11.7315 20.9414" stroke="black" stroke-width="1.5" stroke-linecap="round" stroke-linejoin="round"/>
<path opacity="0.4" d="M14.7754 3.03906L14.7918 9.67935L11.972 8.76102L9.13566 9.6958L9.12695 3.06422" stroke="black" stroke-width="1.5" stroke-linecap="round" stroke-linejoin="round"/>
</svg>
