<svg width="24" height="24" viewBox="0 0 24 24" fill="none" xmlns="http://www.w3.org/2000/svg">
<path d="M20.8766 10.3638L20.8581 8.03731C20.8513 5.11432 19.0269 3.0544 16.101 3.06121L7.73286 3.08067C4.81668 3.08748 2.99321 5.15616 3.00002 8.07915L3.01851 15.9637C3.02532 18.8857 4.84976 20.9456 7.77568 20.9388L11.7097 20.9193" stroke="black" stroke-width="1.5" stroke-linecap="round" stroke-linejoin="round"/>
<path opacity="0.4" d="M14.7472 3.06104L14.7637 9.68546L11.9507 8.76789L9.12107 9.702L9.11328 3.08536" stroke="black" stroke-width="1.5" stroke-linecap="round" stroke-linejoin="round"/>
<path fill-rule="evenodd" clip-rule="evenodd" d="M17.7504 20.7971C17.7504 20.7971 20.9741 19.8211 20.9741 17.1297C20.9741 14.4383 21.0908 14.5249 20.832 14.2641C20.5732 14.0033 18.1727 13.1675 17.7504 13.1675C17.3281 13.1675 14.9266 14.0053 14.6678 14.2641C14.409 14.5229 14.5267 14.4383 14.5267 17.1297C14.5267 19.8211 17.7504 20.7971 17.7504 20.7971Z" stroke="black" stroke-width="1.5" stroke-linecap="round" stroke-linejoin="round"/>
</svg>
