<svg width="24" height="24" viewBox="0 0 24 24" fill="none" xmlns="http://www.w3.org/2000/svg">
<path d="M20.1467 9.73097L20.1291 8.1338C20.1226 5.33112 18.3717 3.35526 15.5663 3.36174L7.53968 3.38026C4.74255 3.38674 2.99354 5.37186 3.00002 8.17454L3.01761 15.7373C3.02409 18.5399 4.77403 20.5158 7.58042 20.5093L11.3544 20.4908" stroke="black" stroke-width="1.5" stroke-linecap="round" stroke-linejoin="round"/>
<path fill-rule="evenodd" clip-rule="evenodd" d="M17.5628 20.6385C17.0129 20.6385 14.125 18.3006 14.125 15.8544C14.125 13.9553 15.6638 12.4165 17.5628 12.4165C19.4619 12.4165 21.0007 13.9553 21.0007 15.8544C21.0007 18.3006 18.1128 20.6385 17.5628 20.6385Z" stroke="black" stroke-width="1.5" stroke-linecap="round" stroke-linejoin="round"/>
<path opacity="0.4" d="M14.2677 3.36182L14.2835 9.71531L11.5854 8.83663L8.87161 9.73105L8.86328 3.38589" stroke="black" stroke-width="1.5" stroke-linecap="round" stroke-linejoin="round"/>
<path opacity="0.4" d="M17.5933 15.7748V15.839M17.8534 15.7886C17.8534 15.9331 17.7362 16.0502 17.5917 16.0502C17.4473 16.0502 17.3302 15.9331 17.3302 15.7886C17.3302 15.6441 17.4473 15.527 17.5917 15.527C17.7362 15.527 17.8534 15.6441 17.8534 15.7886Z" stroke="black" stroke-width="1.5" stroke-linecap="round" stroke-linejoin="round"/>
</svg>
