<svg width="24" height="24" viewBox="0 0 24 24" fill="none" xmlns="http://www.w3.org/2000/svg">
<path d="M15.5377 10.3476V13.2342C15.5377 13.6068 15.3392 13.9512 15.0162 14.138L12.5158 15.5809C12.1928 15.7677 11.7949 15.7677 11.4719 15.5809L8.97246 14.138C8.64946 13.9512 8.45001 13.6068 8.45001 13.2342V10.3476C8.45001 9.97497 8.64946 9.62959 8.97246 9.44376L11.4719 7.99996C11.7949 7.81414 12.1928 7.81414 12.5158 7.99996L15.0162 9.44376C15.3392 9.62959 15.5377 9.97497 15.5377 10.3476Z" stroke="black" stroke-width="1.5" stroke-linecap="round" stroke-linejoin="round"/>
<path d="M3 17.8421L5.68231 18.3752L6.21255 15.7075" stroke="black" stroke-width="1.5" stroke-linecap="round" stroke-linejoin="round"/>
<path opacity="0.4" d="M5.66561 18.0508C2.36258 14.6329 2.38496 9.18465 5.74928 5.79406C7.85563 3.67118 10.7802 2.85199 13.518 3.34233" stroke="black" stroke-width="1.5" stroke-linecap="round" stroke-linejoin="round"/>
<path d="M8.59766 9.81299L11.9921 11.7773L15.3876 9.81299" stroke="black" stroke-width="1.5" stroke-linecap="round" stroke-linejoin="round"/>
<path d="M11.9941 15.7259V11.7739" stroke="black" stroke-width="1.5" stroke-linecap="round" stroke-linejoin="round"/>
<path d="M20.9997 6.15767L18.3173 5.62451L17.7871 8.29223" stroke="black" stroke-width="1.5" stroke-linecap="round" stroke-linejoin="round"/>
<path opacity="0.4" d="M18.3348 5.94922C21.6378 9.36705 21.6154 14.8153 18.2511 18.2059C16.1448 20.3288 13.2202 21.148 10.4824 20.6577" stroke="black" stroke-width="1.5" stroke-linecap="round" stroke-linejoin="round"/>
</svg>
