<svg width="24" height="24" viewBox="0 0 24 24" fill="none" xmlns="http://www.w3.org/2000/svg">
<path opacity="0.4" d="M7.76564 3.02045L16.1916 3.00002C19.1367 2.99321 20.9737 5.06758 20.9805 8.00985L20.999 15.9473C21.0068 18.8906 19.1796 20.9727 16.2334 20.9796L7.80845 21C4.86326 21.0068 3.02629 18.9324 3.01948 15.9902L3.001 8.05168C2.99418 5.10942 4.83018 3.02726 7.76564 3.02045Z" stroke="black" stroke-width="1.5" stroke-linecap="round" stroke-linejoin="round"/>
<path d="M16.4302 10.1907V13.8014C16.4302 14.2674 16.1811 14.6984 15.7773 14.932L12.6512 16.7368C12.2474 16.9703 11.7492 16.9703 11.3454 16.7368L8.21927 14.932C7.81549 14.6984 7.56641 14.2674 7.56641 13.8014V10.1907C7.56641 9.72461 7.81549 9.29359 8.21927 9.06105L11.3454 7.25521C11.7492 7.0217 12.2474 7.0217 12.6512 7.25521L15.7773 9.06105C16.1811 9.29359 16.4302 9.72461 16.4302 10.1907Z" stroke="black" stroke-width="1.5" stroke-linecap="round" stroke-linejoin="round"/>
<path d="M7.75 9.52393L11.996 11.9807L16.2421 9.52393" stroke="black" stroke-width="1.5" stroke-linecap="round" stroke-linejoin="round"/>
<path d="M11.998 16.9188V11.9771" stroke="black" stroke-width="1.5" stroke-linecap="round" stroke-linejoin="round"/>
</svg>
