<svg width="24" height="24" viewBox="0 0 24 24" fill="none" xmlns="http://www.w3.org/2000/svg">
<path fill-rule="evenodd" clip-rule="evenodd" d="M3.7402 3.89737C4.72468 2.84117 6.12669 2.25 7.78216 2.25H16.2169C17.8762 2.25 19.2788 2.84084 20.2629 3.89765C21.2413 4.94841 21.75 6.39889 21.75 8.02638V15.9736C21.75 17.6011 21.2413 19.0516 20.2627 20.1024C19.2785 21.1592 17.8756 21.75 16.2159 21.75H7.78216C6.1228 21.75 4.72038 21.1591 3.73657 20.1023C2.75842 19.0515 2.25 17.601 2.25 15.9736V8.02638C2.25 6.39806 2.76117 4.94771 3.7402 3.89737ZM4.83745 4.92012C4.16024 5.64666 3.75 6.70951 3.75 8.02638V15.9736C3.75 17.2914 4.15861 18.3541 4.83451 19.0802C5.50475 19.8003 6.49341 20.25 7.78216 20.25H16.2159C17.5052 20.25 18.4944 19.8002 19.165 19.0801C19.8412 18.354 20.25 17.2913 20.25 15.9736V8.02638C20.25 6.70868 19.8412 5.64597 19.1651 4.91984C18.4946 4.19975 17.5056 3.75 16.2169 3.75H7.78216C6.49828 3.75 5.50921 4.19943 4.83745 4.92012Z" fill="black"/>
<path fill-rule="evenodd" clip-rule="evenodd" d="M12.4199 7.36998C12.7678 7.59472 12.8677 8.05897 12.643 8.40691L10.806 11.2511H14.5716C14.8463 11.2511 15.0991 11.4014 15.2304 11.6427C15.3617 11.884 15.3505 12.1778 15.2013 12.4085L12.6143 16.4074C12.3893 16.7552 11.925 16.8547 11.5772 16.6297C11.2294 16.4047 11.1299 15.9404 11.3549 15.5926L13.1931 12.7511H9.42871C9.15407 12.7511 8.90139 12.601 8.77004 12.3598C8.6387 12.1186 8.64969 11.8249 8.7987 11.5942L11.383 7.59308C11.6077 7.24513 12.0719 7.14525 12.4199 7.36998Z" fill="black"/>
</svg>
