<svg width="24" height="24" viewBox="0 0 24 24" fill="none" xmlns="http://www.w3.org/2000/svg">
<path d="M11.975 21.7497C11.735 21.7497 11.505 21.7097 11.275 21.6297C10.865 21.4797 10.585 21.1997 10.075 20.6897L9.22503 19.8397C9.08503 19.6997 8.98503 19.5997 8.93503 19.5697C8.88503 19.5397 8.82504 19.5097 8.76504 19.4997C8.71504 19.4897 8.56503 19.4897 8.37503 19.4897H7.19504C6.46504 19.4897 6.06503 19.4897 5.65503 19.3097C5.22503 19.1097 4.87505 18.7597 4.67505 18.3297C4.49505 17.9297 4.49502 17.5197 4.49502 16.7897V15.6097C4.49502 15.3997 4.49504 15.2697 4.48504 15.2097C4.47504 15.1497 4.44504 15.0897 4.41504 15.0397C4.38504 14.9997 4.28503 14.8997 4.15503 14.7597L3.31503 13.9197C2.79503 13.3997 2.51505 13.1197 2.36505 12.6997C2.19505 12.2497 2.19505 11.7597 2.36505 11.3097C2.51505 10.8997 2.80503 10.6097 3.31503 10.0997L4.15503 9.25969C4.30503 9.10969 4.39505 9.01969 4.42505 8.96969C4.45505 8.91969 4.47502 8.86969 4.49502 8.79969C4.50502 8.74969 4.50503 8.60969 4.50503 8.39969V7.21969C4.50503 6.48969 4.50503 6.08969 4.68503 5.68969C4.88503 5.24969 5.23505 4.89969 5.67505 4.69969C6.07505 4.50969 6.47505 4.50969 7.20505 4.50969H8.38504C8.58504 4.50969 8.72503 4.50969 8.78503 4.49969C8.84503 4.48969 8.90505 4.45969 8.95505 4.42969C9.00505 4.39969 9.10502 4.29969 9.24502 4.15969L10.085 3.31969C10.605 2.79969 10.885 2.51969 11.305 2.36969C11.755 2.19969 12.245 2.19969 12.695 2.36969C13.105 2.51969 13.385 2.79969 13.895 3.30969L14.745 4.15969C14.895 4.30969 14.985 4.39969 15.035 4.42969C15.085 4.45969 15.145 4.48969 15.205 4.49969C15.255 4.50969 15.405 4.50969 15.605 4.50969H16.785C17.515 4.50969 17.915 4.50969 18.325 4.69969C18.755 4.89969 19.105 5.24969 19.305 5.67969C19.495 6.07969 19.495 6.47969 19.495 7.21969V8.39969C19.495 8.60969 19.495 8.74969 19.505 8.79969C19.515 8.84969 19.545 8.90969 19.575 8.95969C19.605 9.00969 19.705 9.10969 19.845 9.24969L20.685 10.0897C21.205 10.6097 21.485 10.8897 21.635 11.3097C21.805 11.7597 21.805 12.2497 21.635 12.6997C21.485 13.1097 21.195 13.3997 20.685 13.9097L19.845 14.7497C19.705 14.8897 19.605 14.9897 19.575 15.0397C19.545 15.0897 19.515 15.1497 19.505 15.2097C19.495 15.2597 19.495 15.3997 19.495 15.6097V16.7897C19.495 17.5197 19.495 17.9197 19.305 18.3297C19.105 18.7697 18.755 19.1097 18.315 19.3097C17.915 19.4897 17.515 19.4897 16.785 19.4897H15.605C15.405 19.4897 15.265 19.4897 15.205 19.4997C15.145 19.5097 15.095 19.5397 15.045 19.5697C14.995 19.5997 14.905 19.6997 14.765 19.8297L13.915 20.6797C13.395 21.1997 13.115 21.4797 12.695 21.6397C12.475 21.7197 12.235 21.7597 12.005 21.7597L11.975 21.7497ZM7.19504 6.01969C6.76504 6.01969 6.39503 6.01969 6.28503 6.06969C6.17503 6.11969 6.08503 6.20969 6.03503 6.31969C5.98503 6.41969 5.98504 6.77969 5.98504 7.22969V8.40969C5.98504 8.71969 5.98503 8.90969 5.93503 9.12969C5.88503 9.36969 5.79504 9.57969 5.66504 9.77969C5.54504 9.95969 5.41505 10.0897 5.20505 10.3097L4.35504 11.1597C4.03504 11.4797 3.78502 11.7297 3.74502 11.8297C3.70502 11.9397 3.70502 12.0697 3.74502 12.1797C3.78502 12.2897 4.03504 12.5397 4.35504 12.8597L5.18503 13.6897C5.41503 13.9197 5.54503 14.0497 5.65503 14.2297C5.78503 14.4297 5.87505 14.6497 5.92505 14.8797C5.97505 15.0897 5.97503 15.2797 5.97503 15.5997V16.7797C5.97503 17.2297 5.97502 17.5897 6.02502 17.6897C6.07502 17.7997 6.16502 17.8897 6.27502 17.9397C6.37502 17.9897 6.75503 17.9897 7.18503 17.9897H8.36505C8.68505 17.9897 8.87502 17.9897 9.08502 18.0397C9.32502 18.0897 9.53504 18.1797 9.73504 18.3097C9.91504 18.4297 10.055 18.5597 10.275 18.7897L11.105 19.6197C11.425 19.9397 11.675 20.1897 11.775 20.2297C11.885 20.2697 12.015 20.2697 12.125 20.2297C12.235 20.1897 12.475 19.9397 12.795 19.6297L13.645 18.7797C13.875 18.5497 14.005 18.4197 14.185 18.2997C14.375 18.1697 14.595 18.0797 14.835 18.0297C15.045 17.9797 15.235 17.9797 15.555 17.9797H16.735C17.185 17.9797 17.535 17.9797 17.645 17.9297C17.755 17.8797 17.845 17.7897 17.895 17.6797C17.945 17.5797 17.945 17.2197 17.945 16.7697V15.5897C17.945 15.2797 17.945 15.0897 17.985 14.8797C18.035 14.6397 18.125 14.4197 18.255 14.2197C18.365 14.0397 18.505 13.8997 18.725 13.6797L19.565 12.8397C19.885 12.5197 20.135 12.2697 20.175 12.1697C20.215 12.0597 20.215 11.9297 20.175 11.8197C20.135 11.7097 19.885 11.4597 19.565 11.1497L18.725 10.3097C18.505 10.0897 18.365 9.94969 18.245 9.76969C18.115 9.57969 18.025 9.35969 17.975 9.11969C17.925 8.89969 17.925 8.70969 17.925 8.39969V7.21969C17.925 6.76969 17.925 6.41969 17.875 6.30969C17.825 6.19969 17.735 6.10969 17.625 6.05969C17.525 6.00969 17.145 6.00969 16.715 6.00969H15.535C15.215 6.00969 15.025 6.00969 14.815 5.95969C14.585 5.90969 14.365 5.81969 14.165 5.68969C13.985 5.57969 13.855 5.44969 13.635 5.22969L12.785 4.37969C12.465 4.05969 12.215 3.80969 12.115 3.76969C12.005 3.72969 11.875 3.72969 11.765 3.76969C11.665 3.80969 11.415 4.04969 11.105 4.36969L10.255 5.21969C10.035 5.43969 9.90502 5.57969 9.71502 5.69969C9.51502 5.82969 9.29503 5.91969 9.06503 5.96969C8.85503 6.01969 8.66503 6.01969 8.34503 6.01969H7.16504H7.19504Z" fill="black"/>
<path d="M11.9249 16.7472C11.8049 16.7472 11.6748 16.7272 11.5548 16.6872C11.0648 16.5272 10.7248 16.0672 10.7248 15.5572V13.7372H9.04486C8.59486 13.7372 8.18486 13.4872 7.98486 13.0872C7.78486 12.6872 7.81483 12.2072 8.08483 11.8472L11.0648 7.74719C11.3648 7.32719 11.9049 7.15719 12.3949 7.31719C12.8849 7.47719 13.2248 7.93719 13.2248 8.44719V10.2672H14.9048C15.3548 10.2672 15.7648 10.5172 15.9648 10.9172C16.1648 11.3172 16.1349 11.7972 15.8649 12.1572L12.8849 16.2572C12.6549 16.5672 12.2949 16.7472 11.9249 16.7472ZM9.65484 12.2372H11.4849C11.8949 12.2372 12.2349 12.5772 12.2349 12.9872V14.6072L14.2949 11.7672H12.4648C12.0548 11.7672 11.7148 11.4272 11.7148 11.0172V9.38719L9.65484 12.2272V12.2372Z" fill="black"/>
</svg>
