<svg width="24" height="24" viewBox="0 0 24 24" fill="none" xmlns="http://www.w3.org/2000/svg">
<path fill-rule="evenodd" clip-rule="evenodd" d="M7.19305 12.4421C7.19277 12.4423 7.19186 12.4426 7.18995 12.4445L6.33697 13.2975C5.13117 14.5033 5.13117 16.4583 6.33697 17.6641C7.54278 18.8699 9.49778 18.8699 10.7036 17.6641L11.5566 16.8111C11.5586 16.8091 11.5589 16.8082 11.559 16.808C11.5593 16.8073 11.5597 16.8057 11.5597 16.8036C11.5597 16.8015 11.5593 16.7999 11.559 16.7992C11.5589 16.799 11.5586 16.7981 11.5566 16.7961L7.20503 12.4445C7.20311 12.4426 7.20221 12.4423 7.20192 12.4421L7.20188 12.4421C7.20114 12.4418 7.19962 12.4414 7.19749 12.4414C7.19535 12.4414 7.19383 12.4418 7.19309 12.4421L7.19305 12.4421ZM6.12929 11.3839C6.71924 10.7939 7.67574 10.7939 8.26569 11.3839L12.6172 15.7354C13.2072 16.3254 13.2072 17.2819 12.6172 17.8718L11.7642 18.7248C9.97265 20.5164 7.0679 20.5164 5.27631 18.7248C3.48472 16.9332 3.48472 14.0284 5.27631 12.2368L6.12929 11.3839L6.65962 11.9142L6.12929 11.3839Z" fill="black"/>
<path fill-rule="evenodd" clip-rule="evenodd" d="M6.33323 17.665C6.62612 17.9579 6.62612 18.4327 6.33323 18.7256L3.53033 21.5285C3.23744 21.8214 2.76256 21.8214 2.46967 21.5285C2.17678 21.2356 2.17678 20.7608 2.46967 20.4679L5.27257 17.665C5.56546 17.3721 6.04034 17.3721 6.33323 17.665Z" fill="black"/>
<path fill-rule="evenodd" clip-rule="evenodd" d="M17.6631 6.33795C16.4573 5.13214 14.5023 5.13214 13.2965 6.33795L12.4436 7.19092C12.4416 7.19284 12.4413 7.19374 12.4412 7.19403L12.4412 7.19407C12.4409 7.19481 12.4404 7.19633 12.4404 7.19847C12.4404 7.2006 12.4409 7.20212 12.4412 7.20286C12.4413 7.20309 12.4415 7.20399 12.4436 7.20601L16.7951 11.5575C16.797 11.5595 16.7979 11.5598 16.7982 11.5599L16.7982 11.5599C16.799 11.5602 16.8005 11.5607 16.8026 11.5607C16.8048 11.5607 16.8063 11.5602 16.807 11.5599C16.8073 11.5598 16.8081 11.5596 16.8102 11.5575L17.6631 10.7046C18.8689 9.49875 18.8689 7.54376 17.6631 6.33795ZM12.2359 5.27729C14.0275 3.4857 16.9322 3.4857 18.7238 5.27729C20.5154 7.06888 20.5154 9.97363 18.7238 11.7652L17.8708 12.6182C17.2809 13.2081 16.3244 13.2081 15.7344 12.6182L11.3829 8.26667C10.7929 7.67671 10.7929 6.72021 11.3829 6.13026L11.9132 6.66059L11.3829 6.13026L12.2359 5.27729Z" fill="black"/>
<path fill-rule="evenodd" clip-rule="evenodd" d="M21.5303 2.46967C21.8231 2.76256 21.8231 3.23744 21.5303 3.53033L18.7274 6.33323C18.4345 6.62612 17.9596 6.62612 17.6667 6.33323C17.3738 6.04034 17.3738 5.56546 17.6667 5.27257L20.4696 2.46967C20.7625 2.17678 21.2374 2.17678 21.5303 2.46967Z" fill="black"/>
<path fill-rule="evenodd" clip-rule="evenodd" d="M10.7077 10.4618C11.0006 10.7546 11.0006 11.2295 10.7077 11.5224L9.02642 13.2037C8.73353 13.4966 8.25866 13.4966 7.96576 13.2037C7.67287 12.9108 7.67287 12.4359 7.96576 12.143L9.64706 10.4618C9.93995 10.1689 10.4148 10.1689 10.7077 10.4618ZM13.5386 13.2926C13.8315 13.5855 13.8315 14.0604 13.5386 14.3533L11.8573 16.0346C11.5644 16.3275 11.0895 16.3275 10.7966 16.0346C10.5038 15.7417 10.5038 15.2668 10.7966 14.9739L12.4779 13.2926C12.7708 12.9997 13.2457 12.9997 13.5386 13.2926Z" fill="black"/>
</svg>
