<svg width="24" height="24" viewBox="0 0 24 24" fill="none" xmlns="http://www.w3.org/2000/svg">
<path fill-rule="evenodd" clip-rule="evenodd" d="M11.4394 20.25L12.5094 20.25C13.3175 20.25 13.9727 19.5949 13.9727 18.7868C13.9727 17.9786 13.3175 17.3235 12.5094 17.3235L11.4394 17.3235L11.4394 20.25ZM12.5094 21.75L11.1281 21.75C10.4716 21.75 9.93942 21.2178 9.93942 20.5613L9.93942 17.0122C9.93942 16.3557 10.4716 15.8235 11.1281 15.8235L12.5094 15.8235C14.146 15.8235 15.4727 17.1502 15.4727 18.7868C15.4727 20.4233 14.146 21.75 12.5094 21.75Z" fill="black"/>
<path fill-rule="evenodd" clip-rule="evenodd" d="M11.4395 19.9414C11.4395 20.3556 11.1037 20.6914 10.6895 20.6914L9.27832 20.6914C8.86411 20.6914 8.52832 20.3556 8.52832 19.9414C8.52832 19.5272 8.86411 19.1914 9.27832 19.1914L10.6895 19.1914C11.1037 19.1914 11.4395 19.5272 11.4395 19.9414ZM11.4395 17.6325C11.4395 18.0468 11.1037 18.3825 10.6895 18.3825L9.27832 18.3825C8.86411 18.3825 8.52832 18.0468 8.52832 17.6325C8.52832 17.2183 8.86411 16.8825 9.27832 16.8825L10.6895 16.8825C11.1037 16.8825 11.4395 17.2183 11.4395 17.6325Z" fill="black"/>
<path fill-rule="evenodd" clip-rule="evenodd" d="M5.59856 3.74042C6.49078 2.7832 7.7596 2.25 9.25134 2.25H14.7463C16.2415 2.25 17.5109 2.78288 18.4027 3.7407C19.289 4.69248 19.7466 6.00296 19.7466 7.46639V14.5282C19.7466 15.9917 19.289 17.3022 18.4026 18.254C17.5106 19.2118 16.2409 19.7446 14.7455 19.7446C14.3313 19.7446 13.9955 19.4088 13.9955 18.9946C13.9955 18.5804 14.3313 18.2446 14.7455 18.2446C15.8705 18.2446 16.7265 17.8528 17.3049 17.2317C17.8889 16.6046 18.2466 15.6819 18.2466 14.5282V7.46639C18.2466 6.31275 17.8889 5.39004 17.3049 4.76289C16.7266 4.14178 15.8709 3.75 14.7463 3.75H9.25134C8.13119 3.75 7.27532 4.14146 6.69582 4.76317C6.11087 5.39074 5.75195 6.31359 5.75195 7.46639V14.5282C5.75195 15.8028 6.18743 16.7954 6.88733 17.4223C7.19587 17.6986 7.22196 18.1728 6.9456 18.4813C6.66923 18.7899 6.19508 18.816 5.88654 18.5396C4.81177 17.5769 4.25195 16.146 4.25195 14.5282V7.46639C4.25195 6.00213 4.71179 4.69178 5.59856 3.74042Z" fill="black"/>
<path fill-rule="evenodd" clip-rule="evenodd" d="M12.4164 6.38961C12.7644 6.61434 12.8642 7.07859 12.6395 7.42654L11.4485 9.27047H13.9284C14.2032 9.27047 14.4559 9.4207 14.5872 9.66203C14.7185 9.90336 14.7074 10.1972 14.5581 10.4279L12.6179 13.427C12.3929 13.7748 11.9286 13.8743 11.5808 13.6493C11.233 13.4243 11.1335 12.96 11.3585 12.6122L12.55 10.7705H10.0713C9.79665 10.7705 9.54397 10.6204 9.41262 10.3792C9.28127 10.138 9.29227 9.84426 9.44127 9.61356L11.3795 6.6127C11.6042 6.26476 12.0685 6.16487 12.4164 6.38961Z" fill="black"/>
</svg>
