<svg width="24" height="24" viewBox="0 0 24 24" fill="none" xmlns="http://www.w3.org/2000/svg">
<path d="M11.9051 21.75C11.7251 21.75 11.535 21.72 11.355 21.66C10.625 21.42 10.1451 20.77 10.1451 20V14.96H5.41504C4.75504 14.96 4.16505 14.59 3.86505 14.01C3.56505 13.42 3.62507 12.73 4.00507 12.19L10.6951 2.97001C11.1451 2.35001 11.9151 2.10001 12.6451 2.34001C13.3751 2.58001 13.855 3.23001 13.855 4.00001V9.04001H18.5851C19.2451 9.04001 19.8451 9.41001 20.1351 9.99001C20.4351 10.58 20.3751 11.27 19.9951 11.81L13.3051 21.03C12.9651 21.5 12.4551 21.75 11.9051 21.75ZM12.105 3.75001C12.045 3.75001 11.975 3.77001 11.915 3.85001L5.22504 13.07C5.14504 13.18 5.17508 13.28 5.20508 13.33C5.23508 13.38 5.29505 13.46 5.42505 13.46H10.9051C11.3151 13.46 11.6551 13.8 11.6551 14.21V20C11.6551 20.15 11.7451 20.21 11.8251 20.23C11.9051 20.25 12.0151 20.26 12.0951 20.14L18.795 10.92C18.875 10.81 18.8451 10.71 18.8151 10.66C18.7851 10.61 18.7251 10.53 18.5951 10.53H13.1151C12.7051 10.53 12.3651 10.19 12.3651 9.78001V3.99001C12.3651 3.84001 12.2751 3.78002 12.1951 3.76002C12.1651 3.76002 12.135 3.75001 12.105 3.75001Z" fill="black"/>
</svg>
