<svg width="24" height="24" viewBox="0 0 24 24" fill="none" xmlns="http://www.w3.org/2000/svg">
<path fill-rule="evenodd" clip-rule="evenodd" d="M9.69744 3.75L6.13732 12.4368H9.80571C10.6765 12.4368 11.3107 13.2623 11.0863 14.1037L9.58224 19.7442L17.7364 10.4369H13.4338C12.5191 10.4369 11.8794 9.53229 12.1842 8.66989C12.1895 8.65503 12.1952 8.64034 12.2014 8.62584L14.2789 3.75H9.69744ZM9.08945 20.3066C9.0895 20.3066 9.08956 20.3065 9.08961 20.3064ZM8.34147 3.10311C8.5371 2.58998 9.02952 2.25 9.57984 2.25H14.5444C15.4591 2.25 16.0988 3.15462 15.794 4.01702C15.7887 4.03188 15.783 4.04657 15.7768 4.06107L13.6993 8.93691H18.1216C19.2607 8.93691 19.8691 10.2789 19.1185 11.1356L10.2177 21.2951C9.29382 22.3496 7.57898 21.4349 7.94021 20.0802L9.57839 13.9368H5.87657C4.95523 13.9368 4.31498 13.02 4.63229 12.155C4.63551 12.1463 4.63889 12.1376 4.64243 12.1289L8.34147 3.10311Z" fill="black"/>
</svg>
