<svg width="24" height="24" viewBox="0 0 24 24" fill="none" xmlns="http://www.w3.org/2000/svg">
<path d="M3 14.7295C2.59 14.7295 2.25 14.3895 2.25 13.9795V10.0195C2.25 9.60953 2.59 9.26953 3 9.26953C3.41 9.26953 3.75 9.60953 3.75 10.0195V13.9795C3.75 14.3895 3.41 14.7295 3 14.7295Z" fill="black"/>
<path d="M21 14.7295C20.59 14.7295 20.25 14.3895 20.25 13.9795V10.0195C20.25 9.60953 20.59 9.26953 21 9.26953C21.41 9.26953 21.75 9.60953 21.75 10.0195V13.9795C21.75 14.3895 21.41 14.7295 21 14.7295Z" fill="black"/>
<path d="M13.98 3.75H10.02C9.61002 3.75 9.27002 3.41 9.27002 3C9.27002 2.59 9.61002 2.25 10.02 2.25H13.98C14.39 2.25 14.73 2.59 14.73 3C14.73 3.41 14.39 3.75 13.98 3.75Z" fill="black"/>
<path d="M13.98 21.75H10.02C9.61002 21.75 9.27002 21.41 9.27002 21C9.27002 20.59 9.61002 20.25 10.02 20.25H13.98C14.39 20.25 14.73 20.59 14.73 21C14.73 21.41 14.39 21.75 13.98 21.75Z" fill="black"/>
<path d="M7.06982 21.7298C7.06982 21.7298 7.00979 21.7298 6.97979 21.7298C4.43979 21.4298 2.63984 19.6298 2.27984 17.0198C2.21984 16.6098 2.50979 16.2298 2.91979 16.1698C3.32979 16.1198 3.70983 16.3998 3.76983 16.8098C4.03983 18.7398 5.30978 20.0198 7.15978 20.2298C7.56978 20.2798 7.86982 20.6498 7.81982 21.0598C7.77982 21.4398 7.44983 21.7198 7.07983 21.7198L7.06982 21.7298Z" fill="black"/>
<path d="M16.89 21.7297C16.51 21.7297 16.19 21.4497 16.15 21.0697C16.1 20.6597 16.4 20.2897 16.81 20.2397C18.69 20.0197 19.92 18.7697 20.19 16.8197C20.25 16.4097 20.6299 16.1197 21.0399 16.1797C21.4499 16.2397 21.7399 16.6197 21.6799 17.0297C21.3099 19.6397 19.5199 21.4397 16.9899 21.7397C16.9599 21.7397 16.93 21.7397 16.9 21.7397L16.89 21.7297Z" fill="black"/>
<path d="M3.03014 7.84889C3.03014 7.84889 2.96011 7.84889 2.93011 7.84889C2.52011 7.78889 2.23009 7.40889 2.29009 6.99889C2.66009 4.38889 4.4601 2.57889 6.9901 2.27889C7.3901 2.22889 7.77012 2.52889 7.82012 2.93889C7.87012 3.34889 7.57009 3.71888 7.16009 3.76888C5.31009 3.98888 4.04013 5.26888 3.77013 7.19888C3.72013 7.57888 3.40014 7.84889 3.03014 7.84889Z" fill="black"/>
<path d="M20.9299 7.84889C20.5599 7.84889 20.24 7.57888 20.19 7.19888C19.92 5.23888 18.68 3.97888 16.81 3.76888C16.4 3.71888 16.1 3.34889 16.15 2.93889C16.2 2.52889 16.5799 2.22889 16.9799 2.27889C19.5099 2.57889 21.3099 4.37889 21.6699 6.99889C21.7299 7.40889 21.44 7.78889 21.03 7.84889C20.99 7.84889 20.9599 7.84889 20.9299 7.84889Z" fill="black"/>
<path d="M11.9399 17.4992C11.8099 17.4992 11.6799 17.4792 11.5399 17.4392C11.0099 17.2692 10.6599 16.7792 10.6599 16.2292V13.9192H8.51996C8.03996 13.9192 7.59995 13.6492 7.37995 13.2192C7.15995 12.7892 7.19992 12.2792 7.47992 11.8892L11.02 7.01922C11.35 6.56922 11.9199 6.38922 12.4399 6.55922C12.9599 6.72922 13.3199 7.21922 13.3199 7.76922V10.0792H15.46C15.94 10.0792 16.3799 10.3492 16.5999 10.7792C16.8199 11.2092 16.7799 11.7192 16.4899 12.1092L12.96 16.9792C12.72 17.3192 12.3299 17.5092 11.9299 17.5092L11.9399 17.4992ZM8.95996 12.4192H11.4099C11.8199 12.4192 12.1599 12.7592 12.1599 13.1692V15.5292L15.03 11.5792H12.58C12.17 11.5792 11.83 11.2392 11.83 10.8292V8.46922L8.95996 12.4192Z" fill="black"/>
</svg>
