<svg width="24" height="24" viewBox="0 0 24 24" fill="none" xmlns="http://www.w3.org/2000/svg">
<path d="M17.21 21.7464H6.77997C4.52997 21.7464 2.70996 19.9164 2.70996 17.6764V10.5064C2.70996 9.38642 3.20996 8.33641 4.07996 7.62641L9.64996 3.08641C11.01 1.97641 12.98 1.97641 14.34 3.08641L19.92 7.62641C20.79 8.33641 21.29 9.38642 21.29 10.5064V17.6764C21.29 19.9264 19.46 21.7464 17.22 21.7464H17.21ZM11.9899 3.74641C11.4899 3.74641 11 3.91641 10.59 4.24641L5.01996 8.78642C4.49996 9.20642 4.19995 9.83642 4.19995 10.5064V17.6764C4.19995 19.0964 5.34996 20.2464 6.76996 20.2464H17.2C18.62 20.2464 19.77 19.0964 19.77 17.6764V10.5064C19.77 9.83642 19.47 9.21642 18.95 8.78642L13.3799 4.24641C12.9799 3.91641 12.48 3.75642 11.98 3.75642L11.9899 3.74641Z" fill="black"/>
<path d="M11.94 17.6066C11.82 17.6066 11.69 17.5866 11.57 17.5466C11.08 17.3866 10.74 16.9266 10.74 16.4166V14.5966H9.06C8.61 14.5966 8.20001 14.3466 8.00001 13.9466C7.80001 13.5466 7.84004 13.0666 8.10004 12.7066L11.07 8.60656C11.37 8.18656 11.91 8.01656 12.4 8.17656C12.89 8.33656 13.22 8.79657 13.22 9.30657V11.1266H14.91C15.36 11.1266 15.77 11.3766 15.97 11.7766C16.18 12.1766 16.14 12.6566 15.87 13.0166L12.9 17.1166C12.67 17.4366 12.31 17.6066 11.94 17.6066ZM9.67005 13.0966H11.5C11.91 13.0966 12.25 13.4366 12.25 13.8466V15.4766L14.31 12.6366H12.48C12.07 12.6366 11.73 12.2966 11.73 11.8866V10.2666L9.67005 13.1066V13.0966Z" fill="black"/>
</svg>
