<svg width="24" height="24" viewBox="0 0 24 24" fill="none" xmlns="http://www.w3.org/2000/svg">
<path fill-rule="evenodd" clip-rule="evenodd" d="M8.31592 16.2907C5.86084 15.0526 4.17773 12.5032 4.17773 9.56302C4.17773 4.86301 8.4668 1.18298 13.3198 2.163C16.2056 2.75299 18.5327 5.0629 19.1367 7.95291C19.876 11.518 18.0654 14.8301 15.1758 16.2995V18.0729C15.1758 19.9629 13.6338 21.503 11.7456 21.503C9.85889 21.503 8.31592 19.9629 8.31592 18.0729V16.2907ZM11.2876 5.63297C11.5366 5.46295 11.8628 5.46295 12.1147 5.62296C12.4268 5.83295 13.5088 6.71298 14.3599 8.03299C14.9507 8.94299 15.3179 10.1529 15.063 11.3429C14.9409 11.9229 14.6548 12.5629 14.106 13.0729C13.7495 13.3975 13.3047 13.6452 12.7695 13.7849C12.7358 14.1933 12.6602 14.6298 12.5195 15.0729H14.27C16.71 13.9618 18.2847 11.2281 17.668 8.26297C17.1865 5.96298 15.3198 4.10297 13.021 3.63297C9.11182 2.84296 5.67773 5.79303 5.67773 9.56302C5.67773 12.027 7.15088 14.1413 9.26416 15.0729H10.915C11.0957 14.6808 11.1992 14.2774 11.2505 13.8887C10.4897 13.8065 9.87744 13.5223 9.41064 13.1029C8.85449 12.6029 8.55859 11.973 8.42773 11.393C8.15576 10.213 8.50391 8.99289 9.08154 8.07291C9.91162 6.74289 10.981 5.84296 11.2876 5.63297ZM9.81592 16.5729V18.0729C9.81592 19.1329 10.6865 20.003 11.7456 20.003C12.8047 20.003 13.6758 19.1329 13.6758 18.0729V16.5729H9.81592ZM11.5547 10.683C11.9478 10.553 12.3716 10.773 12.4995 11.163L12.502 11.173C12.502 11.173 12.5039 11.173 12.5059 11.183L12.5156 11.2129C12.5249 11.2429 12.5356 11.2829 12.5498 11.3329C12.5757 11.4329 12.6108 11.5729 12.6445 11.743C12.6719 11.8804 12.6987 12.038 12.7222 12.2125C12.8711 12.1408 12.9922 12.0548 13.0908 11.9629C13.3608 11.7129 13.5229 11.383 13.5957 11.033C13.7466 10.333 13.5376 9.52292 13.0986 8.84293C12.6338 8.12052 12.0879 7.56159 11.7158 7.22626C11.3486 7.565 10.8086 8.13165 10.354 8.86295C9.92578 9.55295 9.72852 10.363 9.88965 11.063C9.96777 11.403 10.1357 11.743 10.4087 11.9829C10.5942 12.1457 10.8545 12.2935 11.229 12.366C11.2119 12.2457 11.1929 12.1371 11.1738 12.043C11.1582 11.9625 11.1426 11.892 11.1289 11.8332C11.1187 11.7897 11.1089 11.7527 11.1006 11.7229C11.0908 11.6829 11.0835 11.663 11.0786 11.643C11.0767 11.633 11.0737 11.633 11.0737 11.633C10.9458 11.233 11.1606 10.813 11.5547 10.683Z" fill="black"/>
</svg>
