<svg width="24" height="24" viewBox="0 0 24 24" fill="none" xmlns="http://www.w3.org/2000/svg">
<path d="M8.89258 9.59293C8.479 9.59293 8.14258 9.26291 8.14258 8.84293C8.14258 7.13294 9.70361 5.80298 11.4619 6.15299C11.8677 6.23297 12.1299 6.633 12.0479 7.043C11.9648 7.44299 11.5698 7.70294 11.1636 7.62296C10.3486 7.46295 9.64258 8.07294 9.64258 8.84293C9.64258 9.26291 9.30664 9.59293 8.89258 9.59293Z" fill="black"/>
<path fill-rule="evenodd" clip-rule="evenodd" d="M15.1758 16.2995C18.0654 14.8301 19.876 11.518 19.1367 7.95291C18.5327 5.0629 16.2056 2.75299 13.3198 2.163C8.4668 1.18298 4.17773 4.86301 4.17773 9.56302C4.17773 12.5032 5.86084 15.0526 8.31592 16.2907V18.0729C8.31592 19.9629 9.85791 21.503 11.7456 21.503C13.6338 21.503 15.1758 19.9629 15.1758 18.0729V16.2995ZM9.35693 15.1129C9.63477 15.2329 9.81592 15.503 9.81592 15.803V18.0729C9.81592 19.1329 10.6865 20.003 11.7456 20.003C12.8047 20.003 13.6758 19.1329 13.6758 18.0729V16.5729H11.9927C11.5786 16.5729 11.2427 16.2429 11.2427 15.8229C11.2427 15.4129 11.5786 15.0729 11.9927 15.0729H14.27C16.71 13.9618 18.2847 11.2281 17.668 8.26297C17.1865 5.96298 15.3198 4.10297 13.021 3.63297C9.11182 2.84296 5.67773 5.79303 5.67773 9.56302C5.67773 12.063 7.19385 14.2029 9.35693 15.1129Z" fill="black"/>
</svg>
