<svg width="24" height="24" viewBox="0 0 24 24" fill="none" xmlns="http://www.w3.org/2000/svg">
<path fill-rule="evenodd" clip-rule="evenodd" d="M17.3135 14.054C17.3135 14.464 16.9771 14.804 16.5635 14.804H14.5371C14.2573 16.0907 13.1108 17.054 11.7383 17.054C10.3657 17.054 9.21973 16.0907 8.93994 14.804H6.91309C6.49951 14.804 6.16309 14.464 6.16309 14.054C6.16309 11.2284 8.26367 8.89084 10.9883 8.52396V7.20386C10.9883 6.79385 11.3242 6.45386 11.7383 6.45386C12.1523 6.45386 12.4883 6.79385 12.4883 7.20386V8.52396C15.2129 8.89084 17.3135 11.2284 17.3135 14.054ZM10.5195 14.804C10.7441 15.2484 11.2056 15.554 11.7383 15.554C12.271 15.554 12.7329 15.2484 12.9575 14.804H10.5195ZM15.7446 13.304C15.3926 11.411 13.7329 9.97388 11.7383 9.97388C9.74365 9.97388 8.08398 11.411 7.73193 13.304H15.7446Z" fill="black"/>
<path fill-rule="evenodd" clip-rule="evenodd" d="M3.47852 3.65393C4.4624 2.59393 5.86426 2.00391 7.52051 2.00391H15.9551C17.6143 2.00391 19.0171 2.59393 20.0015 3.65393C20.9795 4.70392 21.4883 6.15393 21.4883 7.78394V15.7239C21.4883 17.3539 20.9795 18.8039 20.0005 19.8539C19.0161 20.9139 17.6133 21.5039 15.9541 21.5039H7.52051C5.86133 21.5039 4.4585 20.9139 3.47412 19.8539C2.49609 18.8039 1.98828 17.3539 1.98828 15.7239V7.78394C1.98828 6.15393 2.49951 4.70392 3.47852 3.65393ZM4.5752 4.67395C3.89844 5.40396 3.48828 6.46393 3.48828 7.78394V15.7239C3.48828 17.0439 3.89648 18.1039 4.57227 18.8339C5.24219 19.5539 6.23145 20.0039 7.52051 20.0039H15.9541C17.2432 20.0039 18.2324 19.5539 18.9033 18.8339C19.5791 18.1039 19.9883 17.0439 19.9883 15.7239V7.78394C19.9883 6.46393 19.5791 5.40396 18.9033 4.67395C18.2324 3.95395 17.2432 3.50391 15.9551 3.50391H7.52051C6.23633 3.50391 5.24707 3.95395 4.5752 4.67395Z" fill="black"/>
</svg>
