<svg width="24" height="24" viewBox="0 0 24 24" fill="none" xmlns="http://www.w3.org/2000/svg">
<path fill-rule="evenodd" clip-rule="evenodd" d="M12.0069 2.26172C12.4211 2.26172 12.7569 2.59751 12.7569 3.01172V3.04366C12.7569 3.45788 12.4211 3.79366 12.0069 3.79366C11.5927 3.79366 11.2569 3.45788 11.2569 3.04366V3.01172C11.2569 2.59751 11.5927 2.26172 12.0069 2.26172ZM18.9076 5.09308C19.2005 5.38598 19.2005 5.86085 18.9076 6.15374L18.8621 6.19924C18.5693 6.49213 18.0944 6.49213 17.8015 6.19924C17.5086 5.90635 17.5086 5.43148 17.8015 5.13858L17.847 5.09309C18.1399 4.80019 18.6147 4.80019 18.9076 5.09308ZM5.13245 5.11938C5.42535 4.82649 5.90022 4.82649 6.19311 5.11939L6.21247 5.13875C6.50536 5.43164 6.50536 5.90652 6.21247 6.19941C5.91957 6.4923 5.4447 6.4923 5.15181 6.1994L5.13245 6.18004C4.83956 5.88715 4.83956 5.41227 5.13245 5.11938ZM2.25 12.0066C2.25 11.5924 2.58579 11.2566 3 11.2566H3.04937C3.46358 11.2566 3.79937 11.5924 3.79937 12.0066C3.79937 12.4208 3.46358 12.7566 3.04937 12.7566H3C2.58579 12.7566 2.25 12.4208 2.25 12.0066ZM20.2074 12.0066C20.2074 11.5924 20.5432 11.2566 20.9574 11.2566H21C21.4142 11.2566 21.75 11.5924 21.75 12.0066C21.75 12.4208 21.4142 12.7566 21 12.7566H20.9574C20.5432 12.7566 20.2074 12.4208 20.2074 12.0066ZM6.21247 17.8015C6.50536 18.0944 6.50536 18.5693 6.21247 18.8621L6.19311 18.8815C5.90022 19.1744 5.42534 19.1744 5.13245 18.8815C4.83956 18.5886 4.83956 18.1137 5.13245 17.8208L5.15181 17.8015C5.4447 17.5086 5.91958 17.5086 6.21247 17.8015ZM17.8015 17.8016C18.0944 17.5088 18.5693 17.5088 18.8621 17.8017L18.9076 17.8472C19.2005 18.1401 19.2005 18.6149 18.9076 18.9078C18.6147 19.2007 18.1399 19.2007 17.847 18.9078L17.8015 18.8623C17.5086 18.5694 17.5086 18.0945 17.8015 17.8016ZM12.0069 20.2072C12.4211 20.2072 12.7569 20.543 12.7569 20.9572V20.9892C12.7569 21.4034 12.4211 21.7392 12.0069 21.7392C11.5927 21.7392 11.2569 21.4034 11.2569 20.9892V20.9572C11.2569 20.543 11.5927 20.2072 12.0069 20.2072Z" fill="black"/>
<path fill-rule="evenodd" clip-rule="evenodd" d="M12.0006 6.75C9.1007 6.75 6.75 9.10089 6.75 11.9994C6.75 14.8992 9.1008 17.25 12.0006 17.25C14.9002 17.25 17.25 14.8994 17.25 11.9994C17.25 9.1007 14.9003 6.75 12.0006 6.75ZM5.25 11.9994C5.25 8.27228 8.27247 5.25 12.0006 5.25C15.7289 5.25 18.75 8.27247 18.75 11.9994C18.75 15.7274 15.729 18.75 12.0006 18.75C8.27237 18.75 5.25 15.7276 5.25 11.9994Z" fill="black"/>
<path fill-rule="evenodd" clip-rule="evenodd" d="M12.4164 8.36999C12.7644 8.59472 12.8642 9.05897 12.6395 9.40692L11.4485 11.2509H13.9284C14.2032 11.2509 14.4559 11.4011 14.5872 11.6424C14.7185 11.8837 14.7074 12.1776 14.5581 12.4082L12.6179 15.4074C12.3929 15.7552 11.9286 15.8547 11.5808 15.6297C11.233 15.4047 11.1335 14.9404 11.3585 14.5926L12.55 12.7509H10.0713C9.79665 12.7509 9.54397 12.6007 9.41262 12.3595C9.28127 12.1183 9.29227 11.8246 9.44127 11.5939L11.3795 8.59308C11.6042 8.24514 12.0685 8.14525 12.4164 8.36999Z" fill="black"/>
</svg>
