<svg width="24" height="24" viewBox="0 0 24 24" fill="none" xmlns="http://www.w3.org/2000/svg">
<path fill-rule="evenodd" clip-rule="evenodd" d="M5.95963 4.54917C6.52851 3.56413 7.57974 2.95703 8.71759 2.95703H15.2824C16.4199 2.95703 17.4723 3.56384 18.0413 4.54917L21.3233 10.2354C21.3233 10.2354 21.3232 10.2353 21.3233 10.2354C21.8921 11.2205 21.8922 12.4347 21.3234 13.4198C21.3233 13.4199 21.3234 13.4198 21.3234 13.4198L18.0414 19.106C17.4724 20.0914 16.4199 20.6983 15.2824 20.6983H8.71759C7.57974 20.6983 6.52851 20.0912 5.95963 19.1062L2.67673 13.42C2.10777 12.4348 2.10776 11.2206 2.67668 10.2355C2.67669 10.2354 2.67666 10.2355 2.67668 10.2355L5.95963 4.54917ZM7.25857 5.29934C7.25855 5.29936 7.25859 5.29931 7.25857 5.29934L3.97572 10.9855C3.67483 11.5065 3.67478 12.1488 3.97567 12.6698L7.25857 18.356C7.55955 18.8772 8.11571 19.1983 8.71759 19.1983H15.2824C15.8846 19.1983 16.4416 18.8769 16.7424 18.356L20.0242 12.67C20.3251 12.149 20.3252 11.5066 20.0243 10.9855L16.7424 5.29934C16.7424 5.29928 16.7424 5.29939 16.7424 5.29934C16.4416 4.77857 15.8846 4.45703 15.2824 4.45703H8.71759C8.11574 4.45703 7.55956 4.77823 7.25857 5.29934Z" fill="black"/>
<path fill-rule="evenodd" clip-rule="evenodd" d="M11.0463 7.2671C11.7568 6.28825 13.3032 6.7921 13.3032 8.0001V10.1447H15.2921C16.3115 10.1447 16.8998 11.3011 16.3013 12.1254C16.3013 12.1254 16.3012 12.1254 16.3012 12.1255L12.9542 16.7352C12.9541 16.7353 12.954 16.7354 12.9539 16.7355C12.9539 16.7356 12.9538 16.7357 12.9538 16.7357C12.2432 17.7153 10.6964 17.2104 10.6964 16.0032V13.8581H8.70803C7.68932 13.8581 7.09987 12.7028 7.69879 11.878M7.69888 11.8778L11.0462 7.26722C11.0462 7.26718 11.0462 7.26714 11.0463 7.2671M11.8032 8.77773L9.2038 12.3581H11.4464C11.8606 12.3581 12.1964 12.6939 12.1964 13.1081V15.2258L14.7966 11.6447H12.5532C12.139 11.6447 11.8032 11.3089 11.8032 10.8947V8.77773ZM15.0876 11.2439L15.0875 11.2441ZM11.7396 15.8549C11.7398 15.8548 11.7399 15.8546 11.74 15.8544ZM12.2599 8.14857L12.2601 8.14834L12.2602 8.14822C12.2601 8.14834 12.26 8.14845 12.2599 8.14857Z" fill="black"/>
</svg>
