<svg width="24" height="24" viewBox="0 0 24 24" fill="none" xmlns="http://www.w3.org/2000/svg">
<path fill-rule="evenodd" clip-rule="evenodd" d="M3.55642 10.0535C2.48142 10.0535 1.60742 10.9285 1.60742 12.0025C1.60742 13.0735 2.48142 13.9445 3.55642 13.9445H4.87756C5.00039 13.9445 5.09409 13.8348 5.07716 13.7131C5.00027 13.1605 4.95642 12.5888 4.95642 11.9995C4.95642 11.41 5.00028 10.8382 5.07721 10.2847C5.09412 10.1631 5.00043 10.0535 4.87762 10.0535H3.55642Z" fill="black"/>
<path fill-rule="evenodd" clip-rule="evenodd" d="M17.4923 15.6851C16.8733 17.0341 15.9343 17.8331 15.0053 17.8351C15.0053 17.8351 15.0023 17.8341 14.9993 17.8341H14.9913C13.7753 17.8251 12.6003 16.4991 12.0623 14.5151C11.8423 13.7251 11.7323 12.8851 11.7323 11.9951C11.7323 11.1051 11.8423 10.2651 12.0623 9.47506C12.6023 7.49506 13.7823 6.16506 15.0023 6.16506C15.9523 6.16506 16.8923 6.96506 17.5023 8.29506C17.7453 8.88606 17.9263 9.47306 18.0533 10.0591H16.1733C15.1033 10.0591 14.2323 10.9301 14.2323 12.0001C14.2323 13.0701 15.1033 13.9411 16.1733 13.9411H18.0423C17.9143 14.5191 17.7343 15.1001 17.4923 15.6851ZM20.4463 10.0591H19.5693C19.4233 9.27006 19.1973 8.48206 18.8723 7.69506C17.9923 5.76606 16.5743 4.66606 15.0043 4.66506L14.9993 4.66406H10.9783C8.3023 4.66406 6.2063 7.88606 6.2063 12.0001C6.2063 16.1121 8.3023 19.3341 10.9783 19.3341H14.9843C14.9903 19.3341 14.9963 19.3351 15.0023 19.3351C16.5623 19.3351 17.9723 18.2351 18.8623 16.3051C18.8723 16.2951 18.8723 16.2851 18.8723 16.2751C19.1943 15.4991 19.4203 14.7211 19.5663 13.9411H20.4463C21.5193 13.9411 22.3923 13.0681 22.3923 11.9951C22.3923 10.9281 21.5193 10.0591 20.4463 10.0591Z" fill="black"/>
</svg>