<svg width="25" height="24" viewBox="0 0 25 24" fill="none" xmlns="http://www.w3.org/2000/svg">
<path d="M5.49021 7.19035C5.49021 5.97564 6.47443 4.99142 7.68913 4.99045H8.68988C9.27049 4.99045 9.82679 4.75996 10.2391 4.35149L10.9384 3.65126C11.7952 2.78959 13.1879 2.78472 14.0496 3.64153L14.0505 3.64251L14.0593 3.65029L14.7595 4.35052C15.1709 4.75996 15.7282 4.98948 16.3088 4.98948H17.3115C18.5262 4.98948 19.5114 5.97467 19.5114 7.18937V8.18915C19.5114 8.76976 19.7409 9.32703 20.1503 9.73938L20.8506 10.4396C21.7122 11.2955 21.7171 12.6891 20.8613 13.5508M4.15102 13.5586C3.28837 12.7047 3.28254 11.313 4.13643 10.4503L4.84833 9.73744C5.25777 9.32508 5.48827 8.76781 5.48827 8.1872V7.19035" stroke="black" stroke-width="1.5" stroke-linecap="round" stroke-linejoin="round"/>
<path d="M19.5124 16.8125C19.5104 18.0262 18.5252 19.0095 17.3115 19.0085H16.3069C15.7263 19.0085 15.169 19.239 14.7576 19.6484L14.0574 20.3477C13.2025 21.2103 11.8098 21.2162 10.9472 20.3613L10.2372 19.6514C9.82583 19.2419 9.26857 19.0124 8.68796 19.0114H7.68916C6.47445 19.0114 5.49023 18.0272 5.49023 16.8125" stroke="black" stroke-width="1.5" stroke-linecap="round" stroke-linejoin="round"/>
</svg>