<svg width="24" height="25" viewBox="0 0 24 25" fill="none" xmlns="http://www.w3.org/2000/svg">
<path fill-rule="evenodd" clip-rule="evenodd" d="M11.39 6.02344H12.6101C13.42 6.02344 14.09 6.64337 14.16 7.44336L14.1515 7.43896C14.1541 7.44598 14.1566 7.453 14.1592 7.46008L14.16 7.44336L17.7201 7.44342C18.02 6.7334 18.7201 6.2334 19.54 6.2334C20.6201 6.2334 21.5001 7.1134 21.5001 8.19342C21.5001 9.28339 20.6201 10.1634 19.54 10.1634C18.7201 10.1634 18.01 9.66333 17.7101 8.94336H16.14C17.65 10.1833 18.6001 12.0433 18.6001 14.0533V14.6534C19.4 14.7234 20.0299 15.3936 20.0299 16.2136V17.4236C20.0299 18.2936 19.3199 18.9936 18.46 18.9936H17.2499C16.3799 18.9936 15.6799 18.2936 15.6799 17.4236V16.2136C15.6799 15.3936 16.3 14.7234 17.1001 14.6534V14.0533C17.1001 12.0334 15.88 10.1934 14.0601 9.39343C13.8201 9.96344 13.26 10.3734 12.6101 10.3734H11.39C10.7401 10.3734 10.1702 9.96344 9.93005 9.39349C8.12012 10.2035 6.90015 12.0335 6.90015 14.0535V14.6635C7.69019 14.7335 8.31006 15.3936 8.31006 16.2136V17.4236C8.31006 18.2936 7.61011 18.9936 6.74011 18.9936H5.53003C4.67004 18.9936 3.96008 18.2936 3.96008 17.4236V16.2136C3.96008 15.3936 4.6001 14.7135 5.40015 14.6535V14.0535C5.40015 12.0435 6.3501 10.1835 7.86011 8.94348H6.29016C5.99011 9.66345 5.28003 10.1634 4.45996 10.1634C3.38 10.1634 2.5 9.28339 2.5 8.19342C2.5 7.1134 3.38 6.2334 4.45996 6.2334C5.28003 6.2334 5.9801 6.73346 6.28015 7.44348L9.83008 7.44342C9.90002 6.64343 10.5801 6.02344 11.39 6.02344Z" fill="black"/>
</svg>