<svg width="25" height="25" viewBox="0 0 25 25" fill="none" xmlns="http://www.w3.org/2000/svg">
<path fill-rule="evenodd" clip-rule="evenodd" d="M20.4355 18.1441V20.2541C20.4355 20.3641 20.4355 20.7041 19.9255 20.7041H17.9355C17.4355 20.7041 17.4355 20.3641 17.4355 20.2541V18.1441C17.4355 18.0341 17.4355 17.7041 17.9355 17.7041H19.9255C20.4355 17.7041 20.4355 18.0341 20.4355 18.1441ZM6.92555 20.2541C6.92555 20.3641 6.92555 20.7041 6.42555 20.7041H4.43555C3.93555 20.7041 3.93555 20.3641 3.93555 20.2541V18.1441C3.93555 18.0341 3.93555 17.7041 4.43555 17.7041H6.42555C6.92555 17.7041 6.92555 18.0341 6.92555 18.1441V20.2541ZM3.93555 6.7541V4.6441C3.93555 4.5341 3.93555 4.2041 4.43555 4.2041H6.42555C6.92555 4.2041 6.92555 4.5341 6.92555 4.6441V6.7541C6.92555 6.8641 6.92555 7.2041 6.42555 7.2041H4.43555C3.93555 7.2041 3.93555 6.8641 3.93555 6.7541ZM8.98555 12.7841H11.1155C11.5255 12.7841 11.8655 13.1241 11.8655 13.5341V15.6741C11.8655 16.0841 11.5355 16.4241 11.1155 16.4241C10.7055 16.4241 10.3655 16.0841 10.3655 15.6741V14.2841H8.98555C8.56555 14.2841 8.23555 13.9541 8.23555 13.5341C8.23555 13.1241 8.56555 12.7841 8.98555 12.7841ZM12.4955 9.2141C12.4955 8.7941 12.8355 8.4641 13.2455 8.4641C13.6655 8.4641 13.9955 8.7941 13.9955 9.2141V10.5941H15.3855C15.7955 10.5941 16.1355 10.9341 16.1355 11.3441C16.1355 11.7641 15.7955 12.0941 15.3855 12.0941H13.2455C12.8355 12.0941 12.4955 11.7641 12.4955 11.3441V9.2141ZM17.4355 4.6441C17.4355 4.5341 17.4355 4.2041 17.9355 4.2041H19.9255C20.4355 4.2041 20.4355 4.5341 20.4355 4.6441V6.7541C20.4355 6.8641 20.4355 7.2041 19.9255 7.2041H17.9355C17.4355 7.2041 17.4355 6.8641 17.4355 6.7541V4.6441ZM19.9255 8.7041C21.0855 8.7041 21.9355 7.8841 21.9355 6.7541V4.6441C21.9355 3.5241 21.0855 2.7041 19.9255 2.7041H17.9355C16.7755 2.7041 15.9355 3.5241 15.9355 4.6441V5.1841H8.42555V4.6441C8.42555 3.5241 7.58555 2.7041 6.42555 2.7041H4.43555C3.27555 2.7041 2.43555 3.5241 2.43555 4.6441V6.7541C2.43555 7.8841 3.27555 8.7041 4.43555 8.7041H4.96555V16.2041H4.43555C3.27555 16.2041 2.43555 17.0241 2.43555 18.1441V20.2541C2.43555 21.3841 3.27555 22.2041 4.43555 22.2041H6.42555C7.58555 22.2041 8.42555 21.3841 8.42555 20.2541V19.7041H15.9355V20.2541C15.9355 21.3841 16.7755 22.2041 17.9355 22.2041H19.9255C21.0855 22.2041 21.9355 21.3841 21.9355 20.2541V18.1441C21.9355 17.0241 21.0855 16.2041 19.9255 16.2041H19.4355V8.7041H19.9255Z" fill="black"/>
</svg>