<svg width="25" height="25" viewBox="0 0 25 25" fill="none" xmlns="http://www.w3.org/2000/svg">
<path fill-rule="evenodd" clip-rule="evenodd" d="M12.1856 4.25781C10.8776 4.25781 9.81763 5.32881 9.81763 6.65081C9.81763 7.97281 10.8776 9.04381 12.1856 9.04381C13.4936 9.04381 14.5536 7.97281 14.5536 6.65081C14.5536 5.32881 13.4936 4.25781 12.1856 4.25781Z" fill="black"/>
<path fill-rule="evenodd" clip-rule="evenodd" d="M5.55355 15.9756C4.24555 15.9756 3.18555 17.0466 3.18555 18.3676C3.18555 19.6896 4.24555 20.7606 5.55355 20.7606C6.86055 20.7606 7.92155 19.6896 7.92155 18.3676C7.92155 17.0466 6.86055 15.9756 5.55355 15.9756Z" fill="black"/>
<path fill-rule="evenodd" clip-rule="evenodd" d="M18.8166 15.9756C17.5096 15.9756 16.4486 17.0466 16.4486 18.3676C16.4486 19.6896 17.5096 20.7606 18.8166 20.7606C20.1246 20.7606 21.1856 19.6896 21.1856 18.3676C21.1856 17.0466 20.1246 15.9756 18.8166 15.9756Z" fill="black"/>
<path fill-rule="evenodd" clip-rule="evenodd" d="M9.11865 10.8674C8.76365 10.6514 8.30365 10.7644 8.08765 11.1174L7.08165 12.7644C6.86565 13.1184 6.97765 13.5794 7.33165 13.7954C7.45365 13.8704 7.58865 13.9054 7.72165 13.9054C7.97365 13.9054 8.22165 13.7774 8.36265 13.5464L9.36865 11.8984C9.58465 11.5444 9.47265 11.0834 9.11865 10.8674Z" fill="black"/>
<path fill-rule="evenodd" clip-rule="evenodd" d="M17.1938 13.7957C17.5478 13.5797 17.6598 13.1187 17.4438 12.7647L16.4378 11.1167C16.2218 10.7647 15.7598 10.6507 15.4068 10.8677C15.0528 11.0837 14.9408 11.5447 15.1568 11.8987L16.1628 13.5457C16.3038 13.7777 16.5508 13.9057 16.8038 13.9057C16.9368 13.9057 17.0718 13.8707 17.1938 13.7957Z" fill="black"/>
<path fill-rule="evenodd" clip-rule="evenodd" d="M13.1324 18.47H11.2374C10.8234 18.47 10.4874 18.806 10.4874 19.22C10.4874 19.634 10.8234 19.97 11.2374 19.97H13.1324C13.5464 19.97 13.8824 19.634 13.8824 19.22C13.8824 18.806 13.5464 18.47 13.1324 18.47Z" fill="black"/>
</svg>