<svg width="24" height="25" viewBox="0 0 24 25" fill="none" xmlns="http://www.w3.org/2000/svg">
<path fill-rule="evenodd" clip-rule="evenodd" d="M5.37991 17.0008C5.54991 17.6498 6.14991 18.0908 6.81991 18.0598L8.89791 17.9638C9.32691 17.9438 9.72291 17.7318 9.97691 17.3858L17.1979 7.56179C17.8619 6.65679 17.6679 5.38779 16.7649 4.72279L15.1379 3.52779C14.2339 2.86479 12.9629 3.05779 12.2989 3.96179L5.07991 13.7868C4.82591 14.1318 4.74091 14.5738 4.84991 14.9898L5.37991 17.0008Z" fill="black"/>
<path fill-rule="evenodd" clip-rule="evenodd" d="M19.933 20.384H4.06702C3.65302 20.384 3.31702 20.72 3.31702 21.134C3.31702 21.548 3.65302 21.884 4.06702 21.884H19.933C20.347 21.884 20.683 21.548 20.683 21.134C20.683 20.72 20.347 20.384 19.933 20.384Z" fill="black"/>
</svg>