<svg width="24" height="25" viewBox="0 0 24 25" fill="none" xmlns="http://www.w3.org/2000/svg">
<path fill-rule="evenodd" clip-rule="evenodd" d="M14.2901 9.06058C14.1761 8.95458 14.0291 8.89758 13.8761 8.89758C13.8681 8.89758 13.8601 8.89758 13.8531 8.89758C13.6891 8.90358 13.5391 8.97358 13.4291 9.09258L9.11507 13.7996C8.89507 14.0466 8.75507 14.3626 8.71707 14.7026L8.60807 15.7216C8.59107 15.8766 8.67007 15.9766 8.71807 16.0216C8.76707 16.0676 8.87707 16.1406 9.02307 16.1146L10.0141 15.9496C10.3771 15.8886 10.7121 15.7036 10.9571 15.4306L15.2301 10.7656C15.3431 10.6436 15.4001 10.4886 15.3941 10.3256C15.3881 10.1636 15.3191 10.0126 15.1991 9.90158L14.2901 9.06058Z" fill="black"/>
<path fill-rule="evenodd" clip-rule="evenodd" d="M16.334 11.7818L12.068 16.4378C11.603 16.9568 10.959 17.3118 10.263 17.4288H10.261L9.272 17.5938C9.167 17.6118 9.063 17.6208 8.958 17.6208C8.489 17.6208 8.038 17.4428 7.688 17.1128C7.261 16.7098 7.053 16.1428 7.117 15.5598L7.226 14.5398C7.299 13.8858 7.566 13.2838 8.002 12.7938L12.325 8.07679C12.711 7.65979 13.232 7.42079 13.796 7.39879C14.355 7.37979 14.897 7.57679 15.309 7.95979L16.218 8.80079C16.632 9.18379 16.871 9.70479 16.894 10.2678C16.915 10.8308 16.716 11.3688 16.334 11.7818ZM12 3.00879C6.762 3.00879 2.5 7.27079 2.5 12.5088C2.5 17.7468 6.762 22.0088 12 22.0088C17.238 22.0088 21.5 17.7468 21.5 12.5088C21.5 7.27079 17.238 3.00879 12 3.00879Z" fill="black"/>
</svg>