<svg width="24" height="25" viewBox="0 0 24 25" fill="none" xmlns="http://www.w3.org/2000/svg">
<path fill-rule="evenodd" clip-rule="evenodd" d="M19.1085 19.2863H13.0665C12.6525 19.2863 12.3165 19.6223 12.3165 20.0363C12.3165 20.4503 12.6525 20.7863 13.0665 20.7863H19.1085C19.5225 20.7863 19.8585 20.4503 19.8585 20.0363C19.8585 19.6223 19.5225 19.2863 19.1085 19.2863Z" fill="black"/>
<path fill-rule="evenodd" clip-rule="evenodd" d="M16.3636 5.94527L14.6296 4.68127C13.5806 3.91827 12.1106 4.14927 11.3466 5.19727L4.88762 14.1553C4.39462 14.8573 4.13462 15.6953 4.14162 16.5533L4.16262 18.9313C4.17162 19.9003 5.10362 20.5933 6.03462 20.3223L8.27762 19.6693C9.17362 19.4083 9.95362 18.8503 10.4896 18.0883L16.8786 9.22927C17.6436 8.17927 17.4126 6.71027 16.3636 5.94527Z" fill="black"/>
</svg>