<svg width="24" height="25" viewBox="0 0 24 25" fill="none" xmlns="http://www.w3.org/2000/svg">
<path fill-rule="evenodd" clip-rule="evenodd" d="M9.06575 12.9084C8.68975 12.9084 8.39075 13.2174 8.39075 13.5834C8.39075 13.9594 8.68975 14.2584 9.06575 14.2584C9.43175 14.2584 9.74075 13.9594 9.74075 13.5834C9.74075 13.2174 9.43175 12.9084 9.06575 12.9084Z" fill="black"/>
<path fill-rule="evenodd" clip-rule="evenodd" d="M15.4102 14.8177C15.8922 14.3447 15.9602 13.6027 15.5642 13.0337L12.9504 9.39254C12.8712 9.28229 12.7282 9.23993 12.5983 9.27943C12.5113 9.3059 12.4228 9.32959 12.3342 9.35066C12.1512 9.38866 11.9682 9.40866 11.7852 9.41766H6.3372C6.1542 9.40866 5.9712 9.38866 5.7872 9.35066C5.70192 9.33025 5.61637 9.30738 5.53198 9.28062C5.39739 9.23794 5.24654 9.27855 5.16433 9.39334L2.5572 13.0337C2.1622 13.6027 2.2392 14.3547 2.7312 14.8177C3.8012 15.8397 6.4532 18.4717 7.8702 20.9977C7.89526 21.0415 7.92257 21.0835 7.95192 21.1236C8.08997 21.312 8.3422 21.1815 8.3422 20.9479V15.7887C8.3422 15.6626 8.26229 15.5518 8.1486 15.4972C7.43343 15.1536 6.9442 14.4257 6.9442 13.5837C6.9442 12.4167 7.8992 11.4627 9.0662 11.4627C10.2322 11.4627 11.1872 12.4167 11.1872 13.5837C11.1872 14.4257 10.698 15.1536 9.98279 15.4972C9.8691 15.5518 9.7892 15.6626 9.7892 15.7887V20.9253C9.7892 21.1618 10.0457 21.2906 10.1822 21.0975C10.2071 21.0623 10.2305 21.0257 10.2522 20.9877C11.7462 18.3467 14.5712 15.5987 15.4102 14.8177Z" fill="black"/>
<path fill-rule="evenodd" clip-rule="evenodd" d="M4.43775 6.95928C4.64975 7.66328 5.20875 8.19328 5.89375 8.37628C6.06675 8.42528 6.25075 8.45428 6.43375 8.45428H11.6978C11.8808 8.45428 12.0648 8.42528 12.2288 8.37628C12.9228 8.19328 13.4818 7.66328 13.6838 6.95928L14.0408 5.72528C14.2048 5.15628 14.0988 4.56828 13.7418 4.10528C13.3948 3.63328 12.8548 3.36328 12.2668 3.36328H5.85475C5.27675 3.36328 4.73676 3.63328 4.38976 4.10528C4.03276 4.56828 3.92675 5.15628 4.09075 5.72528L4.43775 6.95928Z" fill="black"/>
<path fill-rule="evenodd" clip-rule="evenodd" d="M20.9449 20.1552C19.9839 20.1552 19.5349 19.9932 19.0139 19.8062C18.4449 19.6012 17.7989 19.3682 16.5739 19.3682C15.3519 19.3682 14.7069 19.6002 14.1369 19.8062C13.6169 19.9932 13.1689 20.1552 12.2069 20.1552C11.7929 20.1552 11.4569 20.4912 11.4569 20.9052C11.4569 21.3192 11.7929 21.6552 12.2069 21.6552C13.4299 21.6552 14.0759 21.4222 14.6459 21.2172C15.1659 21.0302 15.6139 20.8682 16.5739 20.8682C17.5369 20.8682 17.9859 21.0302 18.5069 21.2172C19.0759 21.4232 19.7219 21.6552 20.9449 21.6552C21.3589 21.6552 21.6949 21.3192 21.6949 20.9052C21.6949 20.4912 21.3589 20.1552 20.9449 20.1552Z" fill="black"/>
</svg>