<svg width="24" height="25" viewBox="0 0 24 25" fill="none" xmlns="http://www.w3.org/2000/svg">
<path fill-rule="evenodd" clip-rule="evenodd" d="M14.0801 13.0748C14.1714 12.9389 14.137 12.755 14.0028 12.6613L9.43415 9.47413C9.29691 9.37839 9.10786 9.41343 9.01406 9.55201L6.75461 12.89C5.76461 14.36 5.49461 16.2 6.01461 17.9C6.03461 17.95 6.05461 18 6.07461 18.05C6.07561 18.053 6.07861 18.055 6.07961 18.059C6.02261 18.104 5.96561 18.15 5.92161 18.214L4.99161 19.586C4.75861 19.929 4.84861 20.395 5.19161 20.628C5.32061 20.715 5.46661 20.757 5.61161 20.757C5.85161 20.757 6.08861 20.642 6.23361 20.428L7.16461 19.055C7.19561 19.009 7.20661 18.957 7.22561 18.908C7.22861 18.908 7.23161 18.91 7.23461 18.91C7.32461 18.92 7.42461 18.92 7.52461 18.91C9.28461 18.76 10.8946 17.81 11.8846 16.34L14.0801 13.0748Z" fill="black"/>
<path fill-rule="evenodd" clip-rule="evenodd" d="M14.8341 11.4155C14.9718 11.5113 15.1613 11.4756 15.2547 11.3361L16.6248 9.28991L16.6258 9.2889L17.1768 9.6989C17.4068 9.8519 17.5628 10.0869 17.6178 10.3599C17.6728 10.6389 17.6158 10.9229 17.4578 11.1599L15.2068 14.5129C14.9758 14.8559 15.0678 15.3219 15.4118 15.5529C15.5398 15.6399 15.6848 15.6809 15.8288 15.6809C16.0708 15.6809 16.3068 15.5639 16.4528 15.3489L18.7038 11.9949C19.0858 11.4239 19.2218 10.7399 19.0878 10.0669C18.9568 9.40091 18.5728 8.8269 18.0408 8.4729L17.4958 8.0669C17.4588 8.0389 17.4148 8.0299 17.3748 8.0099C17.8248 6.7699 17.2548 5.4699 16.0548 4.6599C14.6348 3.7099 12.7148 4.0799 11.7648 5.4999L10.1909 7.82461C10.0988 7.96058 10.1332 8.1453 10.268 8.23907L14.8341 11.4155Z" fill="black"/>
<path fill-rule="evenodd" clip-rule="evenodd" d="M18.2883 19.3845H12.5613C12.1473 19.3845 11.8113 19.7205 11.8113 20.1345C11.8113 20.5485 12.1473 20.8845 12.5613 20.8845H18.2883C18.7023 20.8845 19.0383 20.5485 19.0383 20.1345C19.0383 19.7205 18.7023 19.3845 18.2883 19.3845Z" fill="black"/>
</svg>