<svg width="24" height="25" viewBox="0 0 24 25" fill="none" xmlns="http://www.w3.org/2000/svg">
<path fill-rule="evenodd" clip-rule="evenodd" d="M14.9072 11.198L15.3422 10.723C15.5862 10.459 15.5702 10.048 15.3082 9.80502L14.3742 8.94202C14.2532 8.83002 14.0982 8.77002 13.9352 8.77002C13.9262 8.77002 13.9182 8.77002 13.9102 8.77002C13.7382 8.77702 13.5792 8.85002 13.4622 8.97602L13.0242 9.45502L14.9072 11.198Z" fill="black"/>
<path fill-rule="evenodd" clip-rule="evenodd" d="M12.011 10.5605L9.03201 13.8115C8.80101 14.0695 8.65601 14.3945 8.61901 14.7465L8.50501 15.7985C8.48601 15.9645 8.57201 16.0725 8.62501 16.1215C8.67701 16.1705 8.78901 16.2495 8.95601 16.2225L9.97401 16.0525C10.351 15.9895 10.698 15.7985 10.951 15.5145L13.894 12.3035L12.011 10.5605Z" fill="black"/>
<path fill-rule="evenodd" clip-rule="evenodd" d="M16.446 11.7388L15.531 12.7378C15.521 12.7488 15.518 12.7638 15.508 12.7758C15.498 12.7858 15.484 12.7888 15.474 12.7988L12.064 16.5198C11.591 17.0508 10.934 17.4138 10.22 17.5318L9.204 17.7018C9.098 17.7188 8.991 17.7288 8.886 17.7288C8.409 17.7288 7.951 17.5488 7.596 17.2138C7.162 16.8048 6.949 16.2298 7.013 15.6368L7.128 14.5858C7.198 13.9208 7.472 13.3038 7.921 12.8038L12.358 7.96079C12.749 7.53679 13.279 7.29279 13.852 7.27079C14.431 7.24279 14.971 7.45079 15.392 7.84079L16.328 8.70479C17.195 9.51179 17.247 10.8718 16.446 11.7388ZM16.217 3.00879H7.782C4.623 3.00879 2.5 5.22879 2.5 8.53379V16.4818C2.5 19.7878 4.623 22.0088 7.782 22.0088H16.216C19.377 22.0088 21.5 19.7878 21.5 16.4818V8.53379C21.5 5.22879 19.377 3.00879 16.217 3.00879Z" fill="black"/>
</svg>