<svg width="24" height="24" viewBox="0 0 24 24" fill="none" xmlns="http://www.w3.org/2000/svg">
<path d="M19.8581 12.0029C20.2688 12.0564 20.5584 12.4328 20.5049 12.8435C20.2643 14.6897 19.4608 16.359 18.2722 17.6731L21.0747 20.469C21.3679 20.7616 21.3685 21.2365 21.0759 21.5297C20.7834 21.8229 20.3085 21.8235 20.0153 21.5309L17.176 18.6983C15.6543 19.8998 13.7325 20.6168 11.6427 20.6168C6.70698 20.6168 2.70508 16.6149 2.70508 11.6793C2.70508 7.119 6.11988 3.3578 10.5315 2.8097C10.9425 2.7586 11.3172 3.0504 11.3682 3.4615C11.4193 3.8725 11.1275 4.2472 10.7164 4.2982C7.04648 4.7542 4.20508 7.8855 4.20508 11.6793C4.20508 15.7864 7.53548 19.1168 11.6427 19.1168C13.5783 19.1168 15.3413 18.3772 16.6645 17.1653C16.6704 17.159 16.6764 17.1528 16.6826 17.1466C16.7024 17.1267 16.7231 17.1081 16.7445 17.0909C17.9608 15.9439 18.7905 14.3914 19.0174 12.6497C19.071 12.239 19.4473 11.9494 19.8581 12.0029Z" fill="black"/>
<path d="M17.7866 9.6519L17.5692 9.65195L17.3519 9.652C17.4936 9.6949 17.6449 9.6949 17.7866 9.6519Z" fill="black"/>
<path fill-rule="evenodd" clip-rule="evenodd" d="M20.4994 3.3246C20.5014 3.32666 20.5037 3.32892 20.5062 3.33136C20.5584 3.38326 20.6961 3.52005 20.7745 3.7381C20.8423 3.9268 20.8459 4.1213 20.847 4.2515C20.8479 4.36606 20.8449 4.51873 20.841 4.71034C20.8399 4.76761 20.8387 4.82835 20.8375 4.8926C20.8321 5.1806 20.8264 5.564 20.8264 6.0814C20.8264 7.4686 19.9857 8.3792 19.2612 8.9011C18.8943 9.1654 18.5322 9.3501 18.2642 9.4687C18.1291 9.5284 18.0151 9.5726 17.9325 9.6025C17.8912 9.6175 17.8576 9.629 17.8329 9.6372L17.8026 9.647L17.7892 9.6511L17.7878 9.6516C17.7878 9.6516 17.4973 9.652 17.3519 9.652L17.3507 9.6517L17.3493 9.6512L17.3359 9.6471L17.3056 9.6373C17.2809 9.6291 17.2473 9.6176 17.2059 9.6026C17.1233 9.5727 17.0093 9.5286 16.8741 9.4689C16.606 9.3505 16.2438 9.1659 15.8767 8.9016C15.1518 8.3798 14.3108 7.4691 14.3108 6.0814C14.3108 5.5637 14.3052 5.18 14.2999 4.8918C14.2987 4.82711 14.2975 4.76598 14.2964 4.70837C14.2926 4.51705 14.2896 4.36461 14.2907 4.2501C14.292 4.1197 14.2958 3.9249 14.3641 3.736C14.4431 3.51771 14.5816 3.38106 14.6335 3.32985C14.6364 3.32696 14.639 3.32434 14.6414 3.322C14.7572 3.2061 14.9047 3.1282 14.9718 3.0931C15.0663 3.0437 15.1763 2.9934 15.2896 2.9448C15.5179 2.847 15.7968 2.7408 16.0733 2.6433C16.3502 2.5457 16.6355 2.4531 16.8779 2.3837C16.9986 2.3492 17.1155 2.3185 17.2192 2.2958C17.3051 2.2769 17.4397 2.25 17.5691 2.25C17.6983 2.25 17.8326 2.2768 17.9186 2.2956C18.0222 2.3183 18.1391 2.3489 18.2598 2.3833C18.5023 2.4525 18.7876 2.5449 19.0646 2.6425C19.3412 2.7398 19.6203 2.8461 19.8488 2.9441C19.9623 2.9927 20.0725 3.0433 20.1674 3.0931C20.2347 3.1284 20.383 3.2071 20.4994 3.3246ZM17.5689 8.13478C17.5965 8.12335 17.6261 8.1107 17.6576 8.0968C17.8596 8.0075 18.1244 7.8714 18.3844 7.6841C18.9135 7.3029 19.3264 6.7871 19.3264 6.0814C19.3264 5.5523 19.3322 5.1592 19.3377 4.8647C19.342 4.63399 19.3458 4.47728 19.3468 4.36192C19.1639 4.27912 18.8673 4.16321 18.5665 4.0573C18.2414 3.9429 17.9079 3.82227 17.569 3.75494C17.2297 3.82242 16.8971 3.94332 16.5719 4.058C16.271 4.16404 15.9743 4.28012 15.7908 4.36296C15.7918 4.47806 15.7954 4.63453 15.7996 4.8644C15.805 5.1589 15.8108 5.5522 15.8108 6.0814C15.8108 6.7875 16.2239 7.3033 16.7531 7.6843C17.0132 7.8715 17.2781 8.0075 17.4802 8.0968C17.5116 8.11071 17.5413 8.12336 17.5689 8.13478Z" fill="black"/>
</svg>
