<svg width="24" height="24" viewBox="0 0 24 24" fill="none" xmlns="http://www.w3.org/2000/svg">
<path fill-rule="evenodd" clip-rule="evenodd" d="M18.4567 2.80832L19.0892 4.08122L20.4997 4.28466C20.7681 4.32075 21.0025 4.46264 21.1597 4.66423L21.1658 4.67153C21.4748 5.07743 21.4307 5.65453 21.0547 6.00703L20.0402 6.98813L20.2847 8.38263L20.2878 8.40163C20.3688 8.94353 19.9997 9.45173 19.4567 9.54033L19.4507 9.54123C19.2347 9.57483 19.0218 9.53653 18.8398 9.44713L18.8218 9.43823L17.5604 8.77758L16.2878 9.44323L16.2757 9.44963C15.7917 9.69143 15.2027 9.51223 14.9377 9.03763C14.9351 9.03327 14.9328 9.02886 14.9304 9.02442C14.9283 9.02041 14.9261 9.01637 14.9238 9.01233C14.8311 8.82989 14.788 8.60924 14.8283 8.38182L15.072 6.98688L14.0447 5.99973C14.0428 5.9977 14.0407 5.99564 14.0386 5.99358C14.0362 5.99127 14.0338 5.98895 14.0317 5.98663C13.6437 5.59503 13.6437 4.96373 14.0317 4.57213C14.0417 4.56243 14.0518 4.55293 14.0618 4.54373C14.2038 4.41493 14.3817 4.32463 14.5787 4.28953C14.5867 4.28813 14.5948 4.28683 14.6028 4.28563L16.0198 4.08051L16.6513 2.81139C16.7713 2.56839 16.9797 2.38883 17.2287 2.30343L17.2377 2.30023C17.4957 2.21553 17.7687 2.24083 17.9997 2.35443L18.0038 2.35663C18.1928 2.45103 18.3527 2.60413 18.4537 2.80163L18.4567 2.80832ZM17.5548 4.36352L17.2497 4.97743L17.2488 4.97892C17.1018 5.27233 16.8237 5.47383 16.5047 5.52583L16.4917 5.52793L15.8204 5.62506L16.3038 6.08953L16.3097 6.09573C16.5427 6.32523 16.6537 6.65542 16.5957 6.98552L16.4793 7.65015L17.0928 7.32903C17.3895 7.17202 17.7444 7.17414 18.0397 7.33513L18.6332 7.6462L18.5208 7.00511C18.4536 6.66772 18.566 6.32499 18.8078 6.09336L19.2912 5.62592L18.6188 5.52893L18.6138 5.52813C18.2878 5.47883 18.0077 5.27373 17.8617 4.98093L17.8608 4.97933L17.5548 4.36352Z" fill="black"/>
<path d="M20.4121 12.8525C20.4658 12.4419 20.1758 12.0654 19.7646 12.0122C19.5605 11.9853 19.3643 12.0439 19.2124 12.1601C19.0596 12.2768 18.9517 12.4526 18.9248 12.6592C18.6978 14.4023 17.8657 15.956 16.647 17.102C16.6284 17.1172 16.6108 17.1333 16.5938 17.1504C16.5898 17.1543 16.5859 17.1587 16.582 17.1626C15.2598 18.3769 13.4956 19.1181 11.5591 19.1181C7.45508 19.1181 4.12988 15.7929 4.12988 11.6894C4.12988 7.90037 6.96777 4.77195 10.6328 4.31688C11.0439 4.26609 11.3359 3.89158 11.2847 3.48045C11.2339 3.06932 10.8599 2.77732 10.4487 2.82859C6.04102 3.37547 2.62988 7.13426 2.62988 11.6894C2.62988 16.6211 6.62695 20.6181 11.5591 20.6181C13.6465 20.6181 15.5664 19.9018 17.0869 18.7016L19.9229 21.5307C20.2158 21.8232 20.6909 21.8227 20.9839 21.5298C21.2759 21.2363 21.2759 20.7612 20.9819 20.4687L18.1831 17.6763C19.3701 16.3638 20.1724 14.6963 20.4121 12.8525Z" fill="black"/>
</svg>
