<svg width="24" height="24" viewBox="0 0 24 24" fill="none" xmlns="http://www.w3.org/2000/svg">
<path fill-rule="evenodd" clip-rule="evenodd" d="M12 3.75C7.44329 3.75 3.75 7.44329 3.75 12C3.75 16.5567 7.44329 20.25 12 20.25C16.5567 20.25 20.25 16.5567 20.25 12C20.25 7.44329 16.5567 3.75 12 3.75ZM2.25 12C2.25 6.61487 6.61487 2.25 12 2.25C17.3851 2.25 21.75 6.61487 21.75 12C21.75 17.3851 17.3851 21.75 12 21.75C6.61487 21.75 2.25 17.3851 2.25 12ZM11.7007 9.12606C10.3237 9.12606 9.20777 10.2419 9.20777 11.619C9.20777 12.9952 10.3238 14.1119 11.7007 14.1119C12.3511 14.1119 12.9432 13.8627 13.3871 13.4548C13.3941 13.448 13.4011 13.4415 13.4083 13.435C13.8917 12.9803 14.1936 12.3347 14.1936 11.619C14.1936 10.2419 13.0777 9.12606 11.7007 9.12606ZM14.9353 13.9603C15.4124 13.3024 15.6936 12.4934 15.6936 11.619C15.6936 9.41352 13.9061 7.62606 11.7007 7.62606C9.49523 7.62606 7.70777 9.41352 7.70777 11.619C7.70777 13.8233 9.49509 15.6119 11.7007 15.6119C12.489 15.6119 13.2239 15.3834 13.8428 14.9891L15.0098 16.154C15.3029 16.4466 15.7778 16.4462 16.0704 16.153C16.3631 15.8599 16.3626 15.385 16.0695 15.0924L14.9353 13.9603Z" fill="black"/>
</svg>
