<svg width="24" height="24" viewBox="0 0 24 24" fill="none" xmlns="http://www.w3.org/2000/svg">
<path fill-rule="evenodd" clip-rule="evenodd" d="M11.6319 3.75C7.39704 3.75 3.96436 7.18268 3.96436 11.4175C3.96436 15.6525 7.39715 19.086 11.6319 19.086C13.6345 19.086 15.4577 18.3181 16.8234 17.0608C16.8256 17.0586 16.8278 17.0563 16.83 17.0541C16.8459 17.0382 16.8623 17.0232 16.8791 17.009C18.3689 15.61 19.2994 13.6224 19.2994 11.4175C19.2994 7.18268 15.8667 3.75 11.6319 3.75ZM18.4195 17.5803C19.8982 15.9522 20.7994 13.79 20.7994 11.4175C20.7994 6.35426 16.6951 2.25 11.6319 2.25C6.56861 2.25 2.46436 6.35426 2.46436 11.4175C2.46436 16.4807 6.5685 20.586 11.6319 20.586C13.7824 20.586 15.7599 19.8455 17.3234 18.6055L20.2564 21.531C20.5496 21.8235 21.0245 21.8229 21.317 21.5296C21.6095 21.2364 21.6089 20.7615 21.3157 20.469L18.4195 17.5803ZM8.17447 8.5416C8.17447 8.12739 8.51026 7.7916 8.92447 7.7916H9.302C9.71621 7.7916 10.052 8.12739 10.052 8.5416C10.052 8.95581 9.71621 9.2916 9.302 9.2916H8.92447C8.51026 9.2916 8.17447 8.95581 8.17447 8.5416ZM10.7492 8.5416C10.7492 8.12739 11.085 7.7916 11.4992 7.7916H14.7062C15.1205 7.7916 15.4562 8.12739 15.4562 8.5416C15.4562 8.95581 15.1205 9.2916 14.7062 9.2916H11.4992C11.085 9.2916 10.7492 8.95581 10.7492 8.5416ZM7.02629 11.5395C7.02629 11.1253 7.36208 10.7895 7.77629 10.7895H15.8542C16.2684 10.7895 16.6042 11.1253 16.6042 11.5395C16.6042 11.9537 16.2684 12.2895 15.8542 12.2895H7.77629C7.36208 12.2895 7.02629 11.9537 7.02629 11.5395ZM8.17414 14.5374C8.17414 14.1232 8.50993 13.7874 8.92414 13.7874H12.1438C12.558 13.7874 12.8938 14.1232 12.8938 14.5374C12.8938 14.9516 12.558 15.2874 12.1438 15.2874H8.92414C8.50993 15.2874 8.17414 14.9516 8.17414 14.5374ZM13.5918 14.5374C13.5918 14.1232 13.9275 13.7874 14.3418 13.7874H14.7057C15.1199 13.7874 15.4557 14.1232 15.4557 14.5374C15.4557 14.9516 15.1199 15.2874 14.7057 15.2874H14.3418C13.9275 15.2874 13.5918 14.9516 13.5918 14.5374Z" fill="black"/>
</svg>
