<svg width="24" height="24" viewBox="0 0 24 24" fill="none" xmlns="http://www.w3.org/2000/svg">
<path fill-rule="evenodd" clip-rule="evenodd" d="M10.7968 2.9989C10.7974 2.58469 11.1337 2.24939 11.5479 2.25C16.6137 2.25742 20.7155 6.3696 20.7081 11.4357C20.7046 13.7876 19.8164 15.9317 18.3587 17.5533L21.2812 20.4691C21.5744 20.7616 21.575 21.2365 21.2824 21.5297C20.9898 21.823 20.515 21.8235 20.2217 21.5309L17.2681 18.584C15.6945 19.8456 13.6962 20.599 11.5224 20.5958H11.5221C10.367 20.5937 9.25943 20.3789 8.23976 19.9863C7.85321 19.8375 7.6605 19.4035 7.80932 19.0169C7.95815 18.6304 8.39217 18.4376 8.77872 18.5865C9.62908 18.9139 10.555 19.0941 11.5248 19.0958C15.7621 19.1019 19.2019 15.6711 19.2081 11.4335C19.2143 7.19614 15.7834 3.7562 11.5457 3.75C11.1315 3.74939 10.7962 3.41312 10.7968 2.9989ZM9.15622 2.82386C9.50087 3.05363 9.594 3.51928 9.36423 3.86392L9.35839 3.87268C9.12863 4.21733 8.66298 4.31045 8.31833 4.08069C7.97369 3.85092 7.88056 3.38527 8.11032 3.04063L8.11616 3.03187C8.34593 2.68722 8.81158 2.59409 9.15622 2.82386ZM5.58459 5.25912C5.92923 5.48888 6.02236 5.95454 5.79259 6.29918L5.78675 6.30794C5.55698 6.65258 5.09133 6.74571 4.74669 6.51594C4.40204 6.28617 4.30892 5.82052 4.53869 5.47587L4.54452 5.46712C4.77429 5.12247 5.23995 5.02935 5.58459 5.25912ZM3.67097 9.13861C4.01562 9.36837 4.10874 9.83403 3.87897 10.1787L3.87314 10.1874C3.64337 10.5321 3.17772 10.6252 2.83307 10.3954C2.48843 10.1657 2.3953 9.70001 2.62507 9.35536L2.63091 9.34661C2.86068 9.00196 3.32633 8.90884 3.67097 9.13861ZM3.89803 13.4152C4.24268 13.645 4.33583 14.1106 4.10608 14.4553L4.10024 14.4641C3.87049 14.8087 3.40485 14.9019 3.06019 14.6721C2.71553 14.4424 2.62239 13.9767 2.85214 13.6321L2.85797 13.6233C3.08773 13.2786 3.55337 13.1855 3.89803 13.4152ZM6.22591 16.9641C6.57057 17.1938 6.66372 17.6595 6.43397 18.0041L6.42813 18.0129C6.19838 18.3575 5.73273 18.4507 5.38807 18.2209C5.04342 17.9912 4.95027 17.5255 5.18002 17.1809L5.18586 17.1721C5.41561 16.8275 5.88126 16.7343 6.22591 16.9641Z" fill="black"/>
</svg>
