<svg width="24" height="24" viewBox="0 0 24 24" fill="none" xmlns="http://www.w3.org/2000/svg">
<path fill-rule="evenodd" clip-rule="evenodd" d="M6.89286 3.75006C5.15668 3.75006 3.75 5.15699 3.75 6.89195V8.46913C3.75 8.88335 3.41421 9.21913 3 9.21913C2.58579 9.21913 2.25 8.88335 2.25 8.46913V6.89195C2.25 4.32832 4.3285 2.25006 6.89286 2.25006H8.18205C8.59626 2.25006 8.93205 2.58585 8.93205 3.00006C8.93205 3.41427 8.59626 3.75006 8.18205 3.75006H6.89286ZM15.1001 3.00006C15.1001 2.58585 15.4359 2.25006 15.8501 2.25006H17.1071C19.6715 2.25006 21.75 4.32832 21.75 6.89195V8.46913C21.75 8.88335 21.4142 9.21913 21 9.21913C20.5858 9.21913 20.25 8.88335 20.25 8.46913V6.89195C20.25 5.15699 18.8433 3.75006 17.1071 3.75006H15.8501C15.4359 3.75006 15.1001 3.41427 15.1001 3.00006ZM11.6805 8.86671C10.175 8.86671 8.95502 10.0867 8.95502 11.5922C8.95502 13.0976 10.175 14.3176 11.6805 14.3176C12.3828 14.3176 13.0231 14.0521 13.5063 13.6159C13.5088 13.6133 13.5113 13.6107 13.5138 13.6082C13.5301 13.5919 13.5469 13.5765 13.5642 13.5621C14.0829 13.0659 14.4059 12.3668 14.4059 11.5922C14.4059 10.0867 13.1859 8.86671 11.6805 8.86671ZM15.0761 14.1075C15.5975 13.4048 15.9059 12.5345 15.9059 11.5922C15.9059 9.25828 14.0144 7.36671 11.6805 7.36671C9.34658 7.36671 7.45502 9.25828 7.45502 11.5922C7.45502 13.9261 9.34659 15.8176 11.6805 15.8176C12.5299 15.8176 13.3207 15.5671 13.983 15.1358L15.2644 16.4144C15.5576 16.7069 16.0325 16.7064 16.3251 16.4132C16.6176 16.12 16.6171 15.6451 16.3239 15.3525L15.0761 14.1075ZM3 14.7809C3.41421 14.7809 3.75 15.1167 3.75 15.5309V17.1081C3.75 18.843 5.15668 20.2499 6.89286 20.2499H8.14994C8.56415 20.2499 8.89994 20.5857 8.89994 20.9999C8.89994 21.4142 8.56415 21.7499 8.14994 21.7499H6.89286C4.3285 21.7499 2.25 19.6717 2.25 17.1081V15.5309C2.25 15.1167 2.58579 14.7809 3 14.7809ZM20.9998 14.7809C21.414 14.7809 21.7498 15.1167 21.7498 15.5309V17.1081C21.7498 19.6717 19.6713 21.7499 17.1069 21.7499H15.8178C15.4035 21.7499 15.0678 21.4142 15.0678 20.9999C15.0678 20.5857 15.4035 20.2499 15.8178 20.2499H17.1069C18.8431 20.2499 20.2498 18.843 20.2498 17.1081V15.5309C20.2498 15.1167 20.5856 14.7809 20.9998 14.7809Z" fill="black"/>
</svg>
