<svg width="24" height="24" viewBox="0 0 24 24" fill="none" xmlns="http://www.w3.org/2000/svg">
<path fill-rule="evenodd" clip-rule="evenodd" d="M11.1275 3.75C7.06788 3.75 3.77734 7.04053 3.77734 11.1001C3.77734 15.1597 7.06788 18.4502 11.1275 18.4502C15.187 18.4502 18.4776 15.1597 18.4776 11.1001C18.4776 7.04053 15.187 3.75 11.1275 3.75ZM2.27734 11.1001C2.27734 6.21211 6.23945 2.25 11.1275 2.25C16.0155 2.25 19.9776 6.21211 19.9776 11.1001C19.9776 15.9881 16.0155 19.9502 11.1275 19.9502C6.23945 19.9502 2.27734 15.9881 2.27734 11.1001ZM8.21788 11.0899C8.21788 10.6756 8.55367 10.3399 8.96788 10.3399H13.2675C13.6817 10.3399 14.0175 10.6756 14.0175 11.0899C14.0175 11.5041 13.6817 11.8399 13.2675 11.8399H8.96788C8.55367 11.8399 8.21788 11.5041 8.21788 11.0899ZM19.4573 18.7201C19.0341 18.7201 18.6914 19.0631 18.6914 19.4851C18.6914 19.907 19.0341 20.25 19.4573 20.25C19.8799 20.25 20.2223 19.9076 20.2223 19.4851C20.2223 19.0625 19.8799 18.7201 19.4573 18.7201ZM17.1914 19.4851C17.1914 18.2334 18.207 17.2201 19.4573 17.2201C20.7083 17.2201 21.7223 18.2341 21.7223 19.4851C21.7223 20.736 20.7083 21.75 19.4573 21.75C18.207 21.75 17.1914 20.7367 17.1914 19.4851Z" fill="black"/>
</svg>
