<svg width="24" height="24" viewBox="0 0 24 24" fill="none" xmlns="http://www.w3.org/2000/svg">
<path fill-rule="evenodd" clip-rule="evenodd" d="M13.3933 4.14429C13.3933 3.15155 14.1989 2.34601 15.1916 2.34601H19.9517C20.9459 2.34601 21.75 3.152 21.75 4.14429V4.67661C21.75 5.29982 21.4879 5.89375 21.0305 6.31407L19.1423 8.18146V8.89477C19.1423 9.44753 18.8055 9.94598 18.2905 10.1502L17.5558 10.4426C16.6688 10.7952 15.7055 10.142 15.7055 9.1874V7.99706L14.0758 6.54588C14.065 6.53626 14.0545 6.52632 14.0443 6.51609C13.6274 6.09922 13.3933 5.53402 13.3933 4.94518V4.14429ZM15.1916 3.84601C15.0273 3.84601 14.8933 3.97997 14.8933 4.14429V4.94518C14.8933 5.13012 14.9646 5.30832 15.0924 5.44262L16.7781 6.94368C16.7889 6.9533 16.7995 6.96323 16.8097 6.97347C17.0625 7.22623 17.2055 7.56984 17.2055 7.92831V8.96758L17.6423 8.79379V8.1189C17.6423 7.74408 17.798 7.38489 18.0732 7.12916L19.9865 5.23688C19.9945 5.22894 20.0027 5.22118 20.0111 5.21362C20.1631 5.07631 20.25 4.88078 20.25 4.67661V4.14429C20.25 3.97953 20.1165 3.84601 19.9517 3.84601H15.1916ZM10.985 3.19074C11.036 3.60181 10.7441 3.97638 10.3331 4.02737C6.62259 4.48768 3.75 7.65339 3.75 11.4893C3.75 15.6427 7.11641 19.0091 11.2698 19.0091C15.09 19.0091 18.2461 16.1602 18.7265 12.4706C18.78 12.0599 19.1563 11.7702 19.5671 11.8237C19.9778 11.8772 20.2675 12.2535 20.214 12.6643C19.9711 14.5297 19.1586 16.2159 17.9569 17.5427L20.7945 20.373C21.0878 20.6655 21.0884 21.1404 20.7958 21.4336C20.5033 21.7269 20.0285 21.7275 19.7352 21.435L16.8608 18.568C15.3238 19.7835 13.3816 20.5091 11.2698 20.5091C6.28798 20.5091 2.25 16.4711 2.25 11.4893C2.25 6.88702 5.69598 3.09114 10.1484 2.53878C10.5595 2.48779 10.934 2.77968 10.985 3.19074Z" fill="black"/>
</svg>
