<svg width="24" height="24" viewBox="0 0 24 24" fill="none" xmlns="http://www.w3.org/2000/svg">
<path fill-rule="evenodd" clip-rule="evenodd" d="M12.0921 3.75C7.49804 3.75 3.77441 7.4745 3.77441 12.0676C3.77441 16.1691 6.74326 19.5788 10.6497 20.2612C11.0578 20.3325 11.3307 20.721 11.2595 21.1291C11.1882 21.5371 10.7996 21.8101 10.3916 21.7388C5.77938 20.9331 2.27441 16.9103 2.27441 12.0676C2.27441 6.64618 6.66951 2.25 12.0921 2.25C16.8373 2.25 20.7942 5.61615 21.7102 10.09C21.7932 10.4957 21.5316 10.8921 21.1258 10.9751C20.72 11.0582 20.3237 10.7966 20.2406 10.3908C19.4647 6.60082 16.1105 3.75 12.0921 3.75ZM7.48218 9.40919C7.48218 8.99498 7.81797 8.65919 8.23218 8.65919H10.7554C11.1696 8.65919 11.5054 8.99498 11.5054 9.40919C11.5054 9.8234 11.1696 10.1592 10.7554 10.1592H8.23218C7.81797 10.1592 7.48218 9.8234 7.48218 9.40919ZM16.8926 14.5906C15.6235 14.5906 14.5939 15.6195 14.5939 16.8893C14.5939 18.1579 15.6234 19.187 16.8926 19.187C17.4826 19.187 18.0208 18.9646 18.4278 18.5992C18.4301 18.5969 18.4324 18.5945 18.4347 18.5922C18.4508 18.5761 18.4675 18.5608 18.4846 18.5465C18.9202 18.1283 19.1913 17.5403 19.1913 16.8893C19.1913 15.6195 18.1617 14.5906 16.8926 14.5906ZM19.9913 19.0863C20.4321 18.4661 20.6913 17.708 20.6913 16.8893C20.6913 14.7908 18.9898 13.0906 16.8926 13.0906C14.7954 13.0906 13.0939 14.7908 13.0939 16.8893C13.0939 18.9869 14.7956 20.687 16.8926 20.687C17.6288 20.687 18.3162 20.4775 18.8984 20.1148L20.1071 21.3213C20.4002 21.6139 20.8751 21.6135 21.1677 21.3204C21.4604 21.0272 21.4599 20.5523 21.1668 20.2597L19.9913 19.0863Z" fill="black"/>
</svg>
