<svg width="24" height="24" viewBox="0 0 24 24" fill="none" xmlns="http://www.w3.org/2000/svg">
<path d="M4.43205 7.00203C4.09807 6.75691 4.0258 6.28816 4.27092 5.95418C4.70012 5.36922 5.19719 4.83992 5.74992 4.37312C6.06584 4.10603 6.53898 4.1451 6.80705 4.46199C7.07414 4.77791 7.0341 5.25105 6.71818 5.51912C6.25285 5.91219 5.83684 6.35408 5.4799 6.8409C5.23478 7.17488 4.76603 7.24715 4.43205 7.00203Z" fill="black"/>
<path d="M9.06389 19.4659C9.15519 19.0621 9.55607 18.8082 9.95988 18.898C10.683 19.0601 11.4389 19.1221 12.2138 19.0631C13.7817 18.9464 15.2011 18.3663 16.3529 17.4679C16.3583 17.4635 16.3637 17.4595 16.3691 17.4552L16.8652 17.0191C17.162 16.7589 17.6088 16.773 17.8891 17.0518L21.3139 20.4688C21.4657 20.6207 21.539 20.8209 21.5336 21.0196C21.5287 21.2047 21.456 21.3883 21.3149 21.5299C21.0219 21.8228 20.5483 21.8228 20.2538 21.5308L17.3261 18.609L17.2948 18.6348C15.914 19.7179 14.207 20.419 12.3261 20.5592C11.8798 20.5929 11.4394 20.5929 11.0063 20.5626C10.5385 20.5304 10.08 20.462 9.63322 20.3619C9.40617 20.3116 9.22648 20.1632 9.12785 19.9708C9.05119 19.8204 9.02434 19.6436 9.06389 19.4659Z" fill="black"/>
<path d="M7.43205 18.7301C7.19621 19.0709 6.72893 19.1558 6.3881 18.92C5.00725 17.9649 3.9008 16.6339 3.21086 15.0679C3.09758 14.8106 3.14055 14.524 3.29826 14.314C3.37248 14.2149 3.47258 14.1329 3.59416 14.0792C3.97307 13.9122 4.41594 14.0841 4.58293 14.463C5.16203 15.775 6.08684 16.8892 7.24113 17.6871C7.58195 17.922 7.66691 18.3892 7.43205 18.7301Z" fill="black"/>
<path d="M3.71525 8.399C4.11418 8.50789 4.35002 8.92 4.24113 9.3199C4.01701 10.1441 3.91984 11.0108 3.98625 11.9039C4.01701 12.3179 3.70695 12.6768 3.29387 12.7081C3.09123 12.7232 2.90129 12.6563 2.75676 12.5352C2.60685 12.4093 2.50578 12.2257 2.49016 12.0152C2.44279 11.3726 2.46574 10.7432 2.54875 10.1319C2.60441 9.72127 2.68693 9.31844 2.79387 8.92586C2.90324 8.52596 3.31486 8.29012 3.71525 8.399Z" fill="black"/>
<path d="M19.123 15.3009C18.7402 15.1422 18.559 14.7032 18.7172 14.3209C18.9345 13.7965 19.0956 13.2442 19.1918 12.671C19.2753 12.172 19.3095 11.6573 19.289 11.1309C19.1259 6.89412 15.56 3.59285 11.3241 3.75594C10.9101 3.77205 10.561 3.44881 10.5448 3.03523C10.5341 2.75643 10.6772 2.5074 10.8984 2.36971C11.0053 2.30281 11.1308 2.26228 11.266 2.25691C16.331 2.06209 20.5932 6.00887 20.788 11.0738C20.8403 12.4278 20.5903 13.7208 20.1029 14.8951C19.9443 15.2779 19.5058 15.4591 19.123 15.3009Z" fill="black"/>
</svg>
