<svg width="24" height="24" viewBox="0 0 24 24" fill="none" xmlns="http://www.w3.org/2000/svg">
<path fill-rule="evenodd" clip-rule="evenodd" d="M11.6324 3.75C7.39753 3.75 3.96484 7.18268 3.96484 11.4175C3.96484 15.6525 7.39764 19.086 11.6324 19.086C13.631 19.086 15.451 18.3212 16.8158 17.0682C16.8203 17.0635 16.8249 17.0588 16.8295 17.0541C16.8479 17.0357 16.867 17.0185 16.8867 17.0024C18.3723 15.6038 19.2999 13.6189 19.2999 11.4175C19.2999 7.18268 15.8672 3.75 11.6324 3.75ZM18.4196 17.5808C19.8986 15.9526 20.7999 13.7903 20.7999 11.4175C20.7999 6.35426 16.6956 2.25 11.6324 2.25C6.5691 2.25 2.46484 6.35426 2.46484 11.4175C2.46484 16.4807 6.56899 20.586 11.6324 20.586C13.7826 20.586 15.7599 19.8456 17.3233 18.6059L20.2559 21.531C20.5492 21.8235 21.024 21.8229 21.3166 21.5296C21.6091 21.2364 21.6085 20.7615 21.3152 20.469L18.4196 17.5808ZM10.3883 7.01718C10.7111 7.01718 10.9977 7.22376 11.0998 7.53001L12.7624 12.5179L13.238 11.0912C13.3401 10.785 13.6267 10.5784 13.9495 10.5784H15.5326C15.9468 10.5784 16.2826 10.9142 16.2826 11.3284C16.2826 11.7426 15.9468 12.0784 15.5326 12.0784H14.49L13.4739 15.1268C13.3718 15.433 13.0852 15.6396 12.7624 15.6396C12.4396 15.6396 12.153 15.433 12.0509 15.1268L10.3883 10.1389L9.9127 11.5656C9.81061 11.8718 9.52401 12.0784 9.20119 12.0784H7.6181C7.20388 12.0784 6.8681 11.7426 6.8681 11.3284C6.8681 10.9142 7.20388 10.5784 7.6181 10.5784H8.66062L9.67675 7.53001C9.77883 7.22376 10.0654 7.01718 10.3883 7.01718Z" fill="black"/>
</svg>
