<svg width="24" height="24" viewBox="0 0 24 24" fill="none" xmlns="http://www.w3.org/2000/svg">
<path fill-rule="evenodd" clip-rule="evenodd" d="M11.1279 3.75C7.06837 3.75 3.77783 7.04053 3.77783 11.1001C3.77783 15.1597 7.06837 18.4502 11.1279 18.4502C15.1875 18.4502 18.4781 15.1597 18.4781 11.1001C18.4781 7.04053 15.1875 3.75 11.1279 3.75ZM2.27783 11.1001C2.27783 6.21211 6.23994 2.25 11.1279 2.25C16.016 2.25 19.9781 6.21211 19.9781 11.1001C19.9781 15.9881 16.016 19.9502 11.1279 19.9502C6.23994 19.9502 2.27783 15.9881 2.27783 11.1001ZM9.06706 9.03923C9.35995 8.74634 9.83483 8.74634 10.1277 9.03923L11.1177 10.0292L12.1076 9.03923C12.4005 8.74634 12.8754 8.74634 13.1683 9.03923C13.4612 9.33212 13.4612 9.807 13.1683 10.0999L12.1783 11.0899L13.1683 12.0798C13.4612 12.3727 13.4612 12.8476 13.1683 13.1405C12.8754 13.4334 12.4005 13.4334 12.1076 13.1405L11.1177 12.1505L10.1277 13.1405C9.83483 13.4334 9.35995 13.4334 9.06706 13.1405C8.77417 12.8476 8.77417 12.3727 9.06706 12.0798L10.057 11.0899L9.06706 10.0999C8.77417 9.807 8.77417 9.33212 9.06706 9.03923ZM19.4568 18.7201C19.0343 18.7201 18.6919 19.0625 18.6919 19.4851C18.6919 19.9076 19.0343 20.25 19.4568 20.25C19.8794 20.25 20.2218 19.9076 20.2218 19.4851C20.2218 19.0625 19.8794 18.7201 19.4568 18.7201ZM17.1919 19.4851C17.1919 18.2341 18.2058 17.2201 19.4568 17.2201C20.7078 17.2201 21.7218 18.2341 21.7218 19.4851C21.7218 20.736 20.7078 21.75 19.4568 21.75C18.2058 21.75 17.1919 20.736 17.1919 19.4851Z" fill="black"/>
</svg>
