<svg width="24" height="24" viewBox="0 0 24 24" fill="none" xmlns="http://www.w3.org/2000/svg">
<path d="M12.0751 20.2304H7.05825C6.43924 20.2304 5.86536 19.9038 5.54752 19.3721L3.24905 15.5168C2.91845 14.9625 2.91845 14.2709 3.24806 13.7157L8.88879 4.24022C9.20565 3.70852 9.77953 3.38185 10.3995 3.38087L13.7486 3.37891C14.3696 3.37793 14.9445 3.7046 15.2613 4.23826L19.6994 11.6968" stroke="black" stroke-width="1.5" stroke-linecap="round" stroke-linejoin="round"/>
<path d="M14.665 3.63672L6.24219 19.9703" stroke="black" stroke-width="1.5" stroke-linecap="round" stroke-linejoin="round"/>
<path d="M12.5166 14.5312H3" stroke="black" stroke-width="1.5" stroke-linecap="round" stroke-linejoin="round"/>
<path d="M9.48047 3.64062L13.9155 12.2577" stroke="black" stroke-width="1.5" stroke-linecap="round" stroke-linejoin="round"/>
<path d="M17.1227 18.8828H15.25V20.6241" stroke="black" stroke-width="1.5" stroke-linecap="round" stroke-linejoin="round"/>
<path d="M20.9997 14.3047V16.1774H19.127" stroke="black" stroke-width="1.5" stroke-linecap="round" stroke-linejoin="round"/>
<path d="M20.5876 19.0594C20.0637 19.9678 19.0798 20.577 17.9566 20.577C16.28 20.577 15.25 18.8906 15.25 18.8906" stroke="black" stroke-width="1.5" stroke-linecap="round" stroke-linejoin="round"/>
<path d="M15.3145 16.0264C15.8393 15.1092 16.8222 14.5 17.9563 14.5C19.9879 14.5 20.9993 16.1854 20.9993 16.1854" stroke="black" stroke-width="1.5" stroke-linecap="round" stroke-linejoin="round"/>
</svg>