<svg width="24" height="24" viewBox="0 0 24 24" fill="none" xmlns="http://www.w3.org/2000/svg">
<path d="M8.70883 9.63457C8.50198 9.84142 8.16661 9.84142 7.95975 9.63457C7.37288 9.0477 6.786 8.46084 6.19912 7.87397C5.32837 7.00325 3.83709 7.6257 3.83964 8.8571C3.84569 11.7799 3.83825 14.7027 3.83975 17.6255C3.84014 18.3831 4.45314 18.9975 5.21074 18.9988C8.13133 19.0038 11.0519 18.9913 13.9725 18.9991C15.206 19.0024 15.8322 17.5071 14.96 16.6349C14.3744 16.0493 13.7888 15.4637 13.2033 14.8781C12.9964 14.6712 12.9964 14.3359 13.2033 14.129" stroke="black" stroke-width="1.5" stroke-linecap="round" stroke-linejoin="round"/>
<path opacity="0.4" d="M8.70889 9.63456L14.1022 4.24124C14.64 3.70343 15.512 3.70343 16.0498 4.24124L18.5966 6.78809C19.1345 7.3259 19.1345 8.19787 18.5966 8.73568L13.2033 14.129" stroke="black" stroke-width="1.5" stroke-linecap="round" stroke-linejoin="round"/>
</svg>
