<svg width="24" height="24" viewBox="0 0 24 24" fill="none" xmlns="http://www.w3.org/2000/svg">
<path d="M12.2455 15.1762C11.953 15.1762 11.7159 15.4134 11.7159 15.7059C11.7159 16.5359 11.7158 17.3658 11.7158 18.1958C11.7158 19.4272 10.2212 20.0416 9.35225 19.169C7.28981 17.098 5.21782 15.0366 3.15215 12.9688C2.61672 12.4328 2.61572 11.5649 3.15052 11.0283C5.21217 8.95958 7.28611 6.9032 9.34579 4.83257C10.2157 3.95804 11.7158 4.57255 11.7158 5.80606C11.7158 6.6342 11.7159 7.46234 11.7159 8.29048C11.7159 8.58302 11.953 8.82016 12.2455 8.82016" stroke="black" stroke-width="1.5" stroke-linecap="round" stroke-linejoin="round"/>
<path opacity="0.4" d="M12.2451 15.1763H19.8724C20.633 15.1763 21.2496 14.5597 21.2496 13.7991V10.1973C21.2496 9.43673 20.633 8.82016 19.8724 8.82016L12.2451 8.82016" stroke="black" stroke-width="1.5" stroke-linecap="round" stroke-linejoin="round"/>
</svg>
