<svg width="24" height="24" viewBox="0 0 24 24" fill="none" xmlns="http://www.w3.org/2000/svg">
<path d="M15.1762 12.2455C15.1762 11.953 15.4134 11.7159 15.7059 11.7159C16.5359 11.7159 17.3658 11.7158 18.1958 11.7158C19.4272 11.7158 20.0416 10.2212 19.169 9.35225C17.098 7.28981 15.0366 5.21782 12.9688 3.15215C12.4328 2.61672 11.5649 2.61572 11.0283 3.15052C8.95958 5.21217 6.9032 7.28611 4.83257 9.34579C3.95804 10.2157 4.57255 11.7158 5.80606 11.7158C6.6342 11.7158 7.46234 11.7159 8.29048 11.7159C8.58302 11.7159 8.82016 11.953 8.82016 12.2455" stroke="black" stroke-width="1.5" stroke-linecap="round" stroke-linejoin="round"/>
<path opacity="0.4" d="M15.1764 12.2455V19.8729C15.1764 20.6334 14.5598 21.25 13.7992 21.25H10.1975C9.43689 21.25 8.82031 20.6334 8.82031 19.8729V12.2455" stroke="black" stroke-width="1.5" stroke-linecap="round" stroke-linejoin="round"/>
</svg>
