<svg width="24" height="24" viewBox="0 0 24 24" fill="none" xmlns="http://www.w3.org/2000/svg">
<path opacity="0.4" d="M19.4235 4.00325L14.5401 4.54586C14.1079 4.59387 13.9232 5.12044 14.2307 5.42789L18.5715 9.76872C18.8789 10.0762 19.4055 9.89146 19.4535 9.45932L19.9961 4.57588C20.0328 4.24562 19.7538 3.96656 19.4235 4.00325Z" stroke="black" stroke-width="1.5" stroke-linecap="round"/>
<path opacity="0.4" d="M4.00325 19.4241L4.54586 14.5407C4.59387 14.1085 5.12044 13.9238 5.42789 14.2313L9.76872 18.5721C10.0762 18.8796 9.89146 19.4061 9.45932 19.4541L4.57588 19.9967C4.24562 20.0334 3.96656 19.7544 4.00325 19.4241Z" stroke="black" stroke-width="1.5" stroke-linecap="round"/>
<path opacity="0.4" d="M19.9952 19.424L19.4526 14.5406C19.4045 14.1084 18.878 13.9237 18.5705 14.2312L14.2297 18.572C13.9222 18.8794 14.1069 19.406 14.5391 19.454L19.4225 19.9966C19.7528 20.0333 20.0319 19.7543 19.9952 19.424Z" stroke="black" stroke-width="1.5" stroke-linecap="round"/>
<path opacity="0.4" d="M4.57588 4.00325L9.45932 4.54586C9.89146 4.59387 10.0762 5.12044 9.76872 5.42789L5.42789 9.76872C5.12044 10.0762 4.59387 9.89146 4.54586 9.45932L4.00325 4.57588C3.96656 4.24562 4.24562 3.96656 4.57588 4.00325Z" stroke="black" stroke-width="1.5" stroke-linecap="round"/>
<path d="M14.6663 11.9999C14.6663 13.4727 13.4724 14.6666 11.9997 14.6666C10.5269 14.6666 9.33301 13.4727 9.33301 11.9999C9.33301 10.5272 10.5269 9.33325 11.9997 9.33325C13.4724 9.33325 14.6663 10.5272 14.6663 11.9999Z" stroke="black" stroke-width="1.5" stroke-linecap="round"/>
</svg>
