<svg width="24" height="24" viewBox="0 0 24 24" fill="none" xmlns="http://www.w3.org/2000/svg">
<path d="M9.8284 11.4178L9.85727 11.4466C10.6383 12.2277 10.6383 13.494 9.85727 14.2751C9.07622 15.0561 7.80989 15.0561 7.02885 14.2751L3.58579 10.832C2.80474 10.051 2.80474 8.78463 3.58579 8.00358L7.02884 4.56052C7.80989 3.77947 9.07622 3.77947 9.85727 4.56052C10.6383 5.34157 10.6383 6.6079 9.85727 7.38895L9.82845 7.41777" stroke="black" stroke-width="1.5" stroke-linecap="round" stroke-linejoin="round"/>
<path opacity="0.4" d="M9.82812 11.4177H13.3733C15.376 11.4177 16.9994 13.0412 16.9994 15.0439V18.0249C16.9994 19.1294 17.8949 20.0249 18.9994 20.0249C20.104 20.0249 20.9994 19.1294 20.9994 18.0249V15.0439C20.9994 10.8321 17.5851 7.41772 13.3733 7.41772H9.82818" stroke="black" stroke-width="1.5" stroke-linecap="round" stroke-linejoin="round"/>
</svg>
