<svg width="24" height="24" viewBox="0 0 24 24" fill="none" xmlns="http://www.w3.org/2000/svg">
<path opacity="0.4" fill-rule="evenodd" clip-rule="evenodd" d="M12 21C16.9699 21 21 16.9709 21 12C21 7.02908 16.9699 3 12 3C7.03005 3 3 7.02908 3 12C3 16.9709 7.03005 21 12 21Z" stroke="black" stroke-width="1.5" stroke-linecap="round" stroke-linejoin="round"/>
<path fill-rule="evenodd" clip-rule="evenodd" d="M11.5216 15.3348C12.7203 14.8518 14.2981 13.8388 15.1698 13.0493C15.9651 12.3508 15.9651 11.6518 15.1698 10.9529C14.2981 10.1638 12.7203 9.15082 11.5216 8.66781C10.5459 8.35125 9.98408 8.76718 9.80714 9.8657C9.73 10.5533 9.69352 11.2669 9.69645 12.0011C9.69352 12.7353 9.73 13.4493 9.80714 14.1369C9.97821 15.2392 10.5468 15.6442 11.5216 15.3348Z" stroke="black" stroke-width="1.5" stroke-linecap="round" stroke-linejoin="round"/>
</svg>
