<svg width="24" height="24" viewBox="0 0 24 24" fill="none" xmlns="http://www.w3.org/2000/svg">
<path opacity="0.4" d="M7.78216 3H16.2169C19.165 3 21 5.08119 21 8.02638V15.9736C21 18.9188 19.165 21 16.2159 21H7.78216C4.83405 21 3 18.9188 3 15.9736V8.02638C3 5.08119 4.84281 3 7.78216 3Z" stroke="black" stroke-width="1.5" stroke-linecap="round" stroke-linejoin="round"/>
<path d="M14.2959 15.043V12.8806C14.2959 12.0789 14.9459 11.4289 15.7476 11.4289C16.5494 11.4289 17.1994 12.0789 17.1994 12.8806V15.043" stroke="black" stroke-width="1.5" stroke-linecap="round" stroke-linejoin="round"/>
<path d="M6.80078 8.98429V15.0599C6.80078 15.0599 11.7722 16.4463 11.7722 11.9579C11.7722 7.46944 6.80078 8.98429 6.80078 8.98429Z" stroke="black" stroke-width="1.5" stroke-linecap="round" stroke-linejoin="round"/>
</svg>