<svg width="24" height="24" viewBox="0 0 24 24" fill="none" xmlns="http://www.w3.org/2000/svg">
<circle opacity="0.4" cx="13.2832" cy="8.20703" r="1.5" stroke="black" stroke-width="1.5" stroke-linecap="round" stroke-linejoin="round"/>
<path d="M4 6.70703C3.44772 6.70703 3 7.15475 3 7.70703V9.06709C3 9.61938 3.44772 10.0671 4 10.0671H6.32165V16.2913C6.32165 16.8436 6.76937 17.2913 7.32166 17.2913H8.64353C9.19582 17.2913 9.64353 16.8436 9.64353 16.2913V7.70703C9.64353 7.15475 9.19582 6.70703 8.64354 6.70703H4Z" stroke="black" stroke-width="1.5" stroke-linecap="round" stroke-linejoin="round"/>
<path opacity="0.4" d="M20.3193 6.70703C20.6568 6.70703 20.8974 7.03467 20.7963 7.35676L17.8982 16.5905C17.7674 17.0073 17.3811 17.291 16.9441 17.291H15.0375C14.6999 17.291 14.4593 16.9634 14.5604 16.6413L17.4585 7.40757C17.5893 6.9907 17.9757 6.70703 18.4126 6.70703L20.3193 6.70703Z" stroke="black" stroke-width="1.5" stroke-linecap="round" stroke-linejoin="round"/>
</svg>