<svg width="25" height="24" viewBox="0 0 25 24" fill="none" xmlns="http://www.w3.org/2000/svg">
<path d="M13.9734 3C14.5319 3 15.0661 3.22768 15.4524 3.63049L19.244 7.57978C19.6099 7.96119 19.8152 8.47005 19.8152 8.99935V17.2794C19.8152 19.3343 18.1494 21 16.0945 21H8.90425C6.8503 21 5.18457 19.3333 5.18457 17.2784V6.72065C5.18457 4.66573 6.8503 3 8.90522 3H13.9734Z" stroke="black" stroke-width="1.5" stroke-linecap="round" stroke-linejoin="round"/>
<path opacity="0.4" d="M9.02539 11.9269L10.3613 10.6387M10.3613 10.6387L11.6981 11.9269M10.3613 10.6387V15.4705" stroke="black" stroke-width="1.5" stroke-linecap="round" stroke-linejoin="round"/>
<path opacity="0.4" d="M15.9755 14.5664L14.6396 15.8556L13.3027 14.5664M14.6406 15.8533V11.0215" stroke="black" stroke-width="1.5" stroke-linecap="round" stroke-linejoin="round"/>
</svg>