<svg width="25" height="24" viewBox="0 0 25 24" fill="none" xmlns="http://www.w3.org/2000/svg">
<path opacity="0.4" d="M6.56703 4.17383H18.433C20.94 4.17383 22.5 5.94356 22.5 8.44842V15.5511C22.5 18.0549 20.94 19.8257 18.4319 19.8257H6.56703C4.06 19.8257 2.5 18.0549 2.5 15.5511V8.44842C2.5 5.94356 4.06757 4.17383 6.56703 4.17383Z" stroke="black" stroke-width="1.5" stroke-linecap="round" stroke-linejoin="round"/>
<path d="M16.1191 14.6355V10.0106L19.5245 14.5014V9.88086" stroke="black" stroke-width="1.5" stroke-linecap="round" stroke-linejoin="round"/>
<path d="M11.2148 12.8677H12.59C13.4311 12.8677 14.1132 12.1855 14.1132 11.3455C14.1132 10.5044 13.4311 9.82227 12.59 9.82227H11.2148V14.6947" stroke="black" stroke-width="1.5" stroke-linecap="round" stroke-linejoin="round"/>
<path d="M5.17188 9.91797L7.12106 14.6001L9.07025 9.91797" stroke="black" stroke-width="1.5" stroke-linecap="round" stroke-linejoin="round"/>
</svg>