<svg width="25" height="24" viewBox="0 0 25 24" fill="none" xmlns="http://www.w3.org/2000/svg">
<path d="M21.3417 14.0136C21.0158 12.9034 20.2354 11.9703 20.0311 10.8173C19.855 9.8229 20.0243 8.82461 19.7577 7.82729C19.3821 6.42325 18.412 5.22452 17.1608 4.50159C15.1613 3.34761 13.1073 3.42059 11.172 4.68256C10.2642 5.27317 9.32523 5.7441 8.30942 6.10314C5.50428 7.09462 3.54661 9.88712 3.50088 12.8499C3.43374 17.1174 7.21189 20.6767 11.4687 20.2875C12.9672 20.1503 14.342 19.4322 15.855 19.6823C17.8779 20.017 19.5212 19.3709 20.6957 17.6798C21.4244 16.6309 21.7047 15.2473 21.3417 14.0136Z" stroke="black" stroke-width="1.5" stroke-linecap="round" stroke-linejoin="round"/>
<path opacity="0.4" d="M10.5255 16.7265C12.4005 16.7343 13.9475 15.1902 13.9524 13.3055C13.9573 11.3711 12.452 9.85522 10.5265 9.85328C8.63206 9.85036 7.09376 11.3721 7.08597 13.2558C7.07722 15.1561 8.62623 16.7187 10.5255 16.7265Z" stroke="black" stroke-width="1.5" stroke-linecap="round" stroke-linejoin="round"/>
<path opacity="0.4" d="M9.375 12.703C9.58809 12.2875 10.022 12.0034 10.5231 12.0034" stroke="black" stroke-width="1.5" stroke-linecap="round" stroke-linejoin="round"/>
</svg>