<svg width="24" height="24" viewBox="0 0 24 24" fill="none" xmlns="http://www.w3.org/2000/svg">
<path fill-rule="evenodd" clip-rule="evenodd" d="M14.3042 18.4015L12.8452 17.6615C12.4762 17.4745 12.0242 17.6225 11.8372 17.9915C11.6492 18.3605 11.7972 18.8125 12.1672 18.9995L12.2602 19.0475C10.9752 19.1935 9.78922 18.1545 9.78922 16.8485C9.78922 16.4345 9.45322 16.0985 9.03922 16.0985C8.62522 16.0985 8.28922 16.4345 8.28922 16.8485C8.28922 18.8955 9.95522 20.5615 12.0042 20.5615C12.9112 20.5615 13.7842 20.2315 14.4622 19.6325C14.6482 19.4675 14.7412 19.2215 14.7092 18.9755C14.6782 18.7285 14.5262 18.5135 14.3042 18.4015Z" fill="black"/>
<path fill-rule="evenodd" clip-rule="evenodd" d="M12.0025 13.1334C11.0955 13.1334 10.2235 13.4634 9.54452 14.0614C9.35852 14.2254 9.26552 14.4714 9.29652 14.7184C9.32852 14.9644 9.47952 15.1794 9.70152 15.2924L11.1605 16.0334C11.5305 16.2214 11.9815 16.0744 12.1695 15.7054C12.3565 15.3364 12.2095 14.8844 11.8405 14.6964L11.7455 14.6484C13.0345 14.4934 14.2175 15.5404 14.2175 16.8474C14.2175 17.2614 14.5535 17.5974 14.9675 17.5974C15.3815 17.5974 15.7175 17.2614 15.7175 16.8474C15.7175 14.7994 14.0505 13.1334 12.0025 13.1334Z" fill="black"/>
<path fill-rule="evenodd" clip-rule="evenodd" d="M17.5158 8.36108C17.4213 8.34937 17.3458 8.27556 17.3326 8.18123C17.0381 6.0737 15.3229 3.44141 12.0016 3.44141C8.43012 3.44141 6.96155 6.35097 6.67678 8.18389C6.66233 8.27693 6.58728 8.34918 6.49383 8.36063C4.13378 8.64963 2.53662 10.4584 2.53662 12.9434C2.53662 14.7564 3.60462 16.4104 5.27662 17.1654C5.62542 17.3074 5.94392 17.3899 6.2268 17.4419C6.35476 17.4655 6.46586 17.3571 6.45753 17.2273C6.45044 17.1167 6.44662 17.0052 6.44662 16.8924C6.44662 13.8494 8.91362 11.3824 11.9566 11.3824C11.9686 11.3824 11.9806 11.3844 11.9926 11.3844C11.9956 11.3844 11.9986 11.3834 12.0026 11.3834C15.0156 11.3834 17.4676 13.8344 17.4676 16.8474C17.4676 16.8534 17.4656 16.8584 17.4656 16.8644C17.4656 16.8744 17.4676 16.8834 17.4676 16.8924C17.4676 17.0107 17.4632 17.128 17.4553 17.2443C17.4465 17.3729 17.5551 17.481 17.6822 17.46C17.9918 17.4089 18.3507 17.3216 18.7486 17.1624C20.3976 16.4154 21.4636 14.7594 21.4636 12.9434C21.4636 10.4603 19.8705 8.65293 17.5158 8.36108Z" fill="black"/>
</svg>