<svg width="24" height="24" viewBox="0 0 24 24" fill="none" xmlns="http://www.w3.org/2000/svg">
<path fill-rule="evenodd" clip-rule="evenodd" d="M9.696 18.4015L11.155 17.6615C11.524 17.4745 11.976 17.6225 12.163 17.9915C12.351 18.3605 12.203 18.8125 11.833 18.9995L11.74 19.0475C13.025 19.1935 14.211 18.1545 14.211 16.8485C14.211 16.4345 14.547 16.0985 14.961 16.0985C15.375 16.0985 15.711 16.4345 15.711 16.8485C15.711 18.8955 14.045 20.5615 11.996 20.5615C11.089 20.5615 10.216 20.2315 9.538 19.6325C9.352 19.4675 9.259 19.2215 9.291 18.9755C9.322 18.7285 9.474 18.5135 9.696 18.4015Z" fill="black"/>
<path fill-rule="evenodd" clip-rule="evenodd" d="M11.9977 13.1334C12.9047 13.1334 13.7767 13.4634 14.4557 14.0614C14.6417 14.2254 14.7347 14.4714 14.7037 14.7184C14.6717 14.9644 14.5207 15.1794 14.2987 15.2924L12.8397 16.0334C12.4697 16.2214 12.0187 16.0744 11.8307 15.7054C11.6437 15.3364 11.7907 14.8844 12.1597 14.6964L12.2547 14.6484C10.9657 14.4934 9.78271 15.5404 9.78271 16.8474C9.78271 17.2614 9.44671 17.5974 9.03271 17.5974C8.61871 17.5974 8.28271 17.2614 8.28271 16.8474C8.28271 14.7994 9.94971 13.1334 11.9977 13.1334Z" fill="black"/>
<path fill-rule="evenodd" clip-rule="evenodd" d="M6.48447 8.36108C6.57898 8.34937 6.65442 8.27556 6.6676 8.18123C6.96214 6.0737 8.67739 3.44141 11.9986 3.44141C15.5701 3.44141 17.0387 6.35097 17.3235 8.18389C17.3379 8.27693 17.413 8.34918 17.5064 8.36063C19.8665 8.64963 21.4636 10.4584 21.4636 12.9434C21.4636 14.7564 20.3956 16.4104 18.7236 17.1654C18.3748 17.3074 18.0563 17.3899 17.7734 17.4419C17.6455 17.4655 17.5344 17.3571 17.5427 17.2273C17.5498 17.1167 17.5536 17.0052 17.5536 16.8924C17.5536 13.8494 15.0866 11.3824 12.0436 11.3824C12.0316 11.3824 12.0196 11.3844 12.0076 11.3844C12.0046 11.3844 12.0016 11.3834 11.9976 11.3834C8.98462 11.3834 6.53262 13.8344 6.53262 16.8474C6.53262 16.8534 6.53462 16.8584 6.53462 16.8644C6.53462 16.8744 6.53262 16.8834 6.53262 16.8924C6.53262 17.0107 6.53699 17.128 6.54496 17.2443C6.55376 17.3729 6.44515 17.481 6.31803 17.46C6.00848 17.4089 5.64953 17.3216 5.25162 17.1624C3.60262 16.4154 2.53662 14.7594 2.53662 12.9434C2.53662 10.4603 4.12973 8.65293 6.48447 8.36108Z" fill="black"/>
</svg>