<svg width="24" height="24" viewBox="0 0 24 24" fill="none" xmlns="http://www.w3.org/2000/svg">
<path fill-rule="evenodd" clip-rule="evenodd" d="M17.0971 18.4959C15.8111 19.5049 14.2651 20.1029 12.6261 20.2249C11.8141 20.2869 10.9991 20.2259 10.2021 20.0479C9.79605 19.9569 9.39805 20.2109 9.30705 20.6169C9.21605 21.0199 9.47005 21.4219 9.87405 21.5119C10.5781 21.6699 11.2941 21.7489 12.0111 21.7489C12.2531 21.7489 12.4961 21.7399 12.7391 21.7219C14.6751 21.5769 16.5021 20.8699 18.0231 19.6759C18.3491 19.4199 18.4061 18.9489 18.1501 18.6229C17.8951 18.2979 17.4211 18.2379 17.0971 18.4959Z" fill="black"/>
<path fill-rule="evenodd" clip-rule="evenodd" d="M4.41834 15.2747C4.25034 14.8957 3.80734 14.7257 3.42934 14.8907C3.05034 15.0577 2.87834 15.5007 3.04534 15.8787C3.77434 17.5347 4.94234 18.9517 6.42434 19.9757C6.55434 20.0667 6.70334 20.1087 6.85034 20.1087C7.08834 20.1087 7.32234 19.9967 7.46834 19.7857C7.70334 19.4447 7.61834 18.9777 7.27734 18.7427C6.02434 17.8757 5.03534 16.6767 4.41834 15.2747Z" fill="black"/>
<path fill-rule="evenodd" clip-rule="evenodd" d="M3.08335 13.3285C3.49635 13.2975 3.80635 12.9375 3.77535 12.5245C3.70735 11.5995 3.79935 10.6635 4.05035 9.74349C4.15935 9.34349 3.92335 8.93149 3.52335 8.82249C3.11535 8.71049 2.71135 8.95049 2.60335 9.34849C2.30735 10.4335 2.19835 11.5395 2.27935 12.6365C2.30935 13.0305 2.63835 13.3305 3.02635 13.3305C3.04535 13.3305 3.06335 13.3295 3.08335 13.3285Z" fill="black"/>
<path fill-rule="evenodd" clip-rule="evenodd" d="M4.77574 7.38318C5.00674 7.38318 5.23474 7.27718 5.38074 7.07718C5.76374 6.55518 6.21174 6.07718 6.71274 5.65418C7.02874 5.38618 7.06774 4.91318 6.80074 4.59618C6.53374 4.28118 6.05974 4.24118 5.74374 4.50818C5.15274 5.00818 4.62474 5.57318 4.17174 6.18918C3.92674 6.52318 3.99974 6.99318 4.33374 7.23718C4.46674 7.33618 4.62274 7.38318 4.77574 7.38318Z" fill="black"/>
<path fill-rule="evenodd" clip-rule="evenodd" d="M11.6137 2.25621C11.1997 2.27221 10.8767 2.62021 10.8927 3.03421C10.9087 3.44921 11.2757 3.78421 11.6707 3.75521C16.2657 3.57221 20.0657 7.14021 20.2417 11.6912C20.3037 13.3192 19.8777 14.9232 19.0087 16.3282C18.7907 16.6812 18.8987 17.1432 19.2517 17.3602C19.3747 17.4372 19.5097 17.4732 19.6447 17.4732C19.8967 17.4732 20.1417 17.3472 20.2837 17.1172C21.3107 15.4572 21.8137 13.5612 21.7397 11.6332C21.5327 6.25622 16.9617 2.06621 11.6137 2.25621Z" fill="black"/>
<path fill-rule="evenodd" clip-rule="evenodd" d="M14.3911 15.2108C14.7211 15.2108 15.0781 15.1398 15.4151 15.0028C16.3171 14.5958 16.8991 13.6918 16.8991 12.7018C16.8991 11.3838 16.0771 10.4148 14.8491 10.2148C14.6451 9.10381 13.7261 7.78381 12.0001 7.78381C10.2751 7.78381 9.35507 9.10381 9.15107 10.2148C7.92307 10.4148 7.10107 11.3838 7.10107 12.7018C7.10107 13.6908 7.68407 14.5938 8.60507 15.0088C8.92507 15.1388 9.28107 15.2108 9.60507 15.2108H14.3911Z" fill="black"/>
</svg>