<svg width="24" height="24" viewBox="0 0 24 24" fill="none" xmlns="http://www.w3.org/2000/svg">
<path d="M13.1596 2.73377C13.2272 2.60276 13.1346 2.44613 12.9873 2.44229C11.9765 2.41595 10.9536 2.39669 9.94438 2.43812C9.79941 2.44407 9.71081 2.59857 9.77735 2.72751L11.2928 5.66426C11.3673 5.80866 11.5738 5.80863 11.6483 5.66422L13.1596 2.73377Z" fill="black"/>
<path d="M10.5477 7.61544C10.5774 7.67296 10.5774 7.7413 10.5478 7.79883L7.26993 14.1548C7.23562 14.2213 7.16703 14.2631 7.09218 14.2631H1.86444C1.74491 14.2631 1.65128 14.1587 1.67376 14.0413C1.7206 13.7968 1.80082 13.5578 1.93306 13.3371L7.74206 3.57713C7.81763 3.45035 7.90684 3.33567 8.00484 3.22966C8.094 3.13321 8.24913 3.16157 8.30937 3.27829L10.5477 7.61544Z" fill="black"/>
<path d="M15.0238 12.8922C15.0802 13.0016 15.2209 13.0344 15.3226 12.965C16.3872 12.2384 17.6754 11.8207 19.0613 11.8207C19.2876 11.8207 19.5104 11.8313 19.7296 11.8547C19.9014 11.873 20.0312 11.6853 19.9428 11.5368L15.2013 3.57067C15.1263 3.44562 15.0356 3.33231 14.9366 3.22828C14.8468 3.13386 14.6934 3.16311 14.6337 3.27896L12.3985 7.61903C12.3689 7.67652 12.3689 7.74479 12.3985 7.80228L15.0238 12.8922Z" fill="black"/>
<path d="M8.283 15.8209C8.20818 15.8209 8.13962 15.8627 8.10529 15.9292L5.73987 20.5104C5.68305 20.6205 5.73885 20.7561 5.85989 20.7824C6.00458 20.8138 6.15074 20.8309 6.30118 20.8309H12.5026C12.6422 20.8309 12.7391 20.6913 12.6959 20.5585C12.4861 19.9137 12.3712 19.22 12.3712 18.5109C12.3712 17.6609 12.528 16.85 12.8208 16.1062C12.874 15.9711 12.7767 15.8209 12.6315 15.8209H8.283Z" fill="black"/>
<path d="M11.2938 9.75496C11.3682 9.61061 11.5745 9.61044 11.6492 9.75467L13.8301 13.9688C13.899 14.102 13.8024 14.2608 13.6525 14.2608H9.29928C9.14953 14.2608 9.05289 14.1022 9.12151 13.9691L11.2938 9.75496Z" fill="black"/>
<path d="M2.3424 15.8209C2.18718 15.8209 2.09103 15.9901 2.17007 16.1237C2.34329 16.4165 2.51546 16.7103 2.6877 17.0043C3.17667 17.8389 3.66623 18.6744 4.18218 19.4896C4.26443 19.6196 4.45622 19.6104 4.5267 19.4737L6.25988 16.1126C6.32852 15.9795 6.23189 15.8209 6.08213 15.8209H2.3424Z" fill="black"/>
<path d="M20.0439 19.5059C19.6209 19.8799 19.0759 20.0859 18.5109 20.0859C17.2319 20.0859 16.1919 19.0459 16.1919 17.7679C16.1919 17.3539 15.8559 17.0179 15.4419 17.0179C15.0279 17.0179 14.6919 17.3539 14.6919 17.7679C14.6919 19.8729 16.4049 21.5859 18.5109 21.5859C19.4419 21.5859 20.3389 21.2469 21.0369 20.6309C21.3469 20.3569 21.3769 19.8819 21.1029 19.5719C20.8289 19.2619 20.3559 19.2329 20.0439 19.5059Z" fill="black"/>
<path d="M15.9842 14.9014C16.6802 14.2854 17.5782 13.9464 18.5112 13.9464C20.6162 13.9464 22.3292 15.6594 22.3292 17.7644C22.3292 18.1784 21.9932 18.5144 21.5792 18.5144C21.1652 18.5144 20.8292 18.1784 20.8292 17.7644C20.8292 16.4864 19.7892 15.4464 18.5112 15.4464C17.9442 15.4464 17.4002 15.6524 16.9782 16.0254C16.6672 16.3004 16.1932 16.2704 15.9192 15.9604C15.6442 15.6504 15.6742 15.1754 15.9842 14.9014Z" fill="black"/>
</svg>