<svg width="24" height="24" viewBox="0 0 24 24" fill="none" xmlns="http://www.w3.org/2000/svg">
<path fill-rule="evenodd" clip-rule="evenodd" d="M16.5411 3.94441C16.1251 3.24841 15.3641 2.81641 14.5551 2.81641L11.1271 2.81841C10.3151 2.81841 9.55405 3.25041 9.14105 3.94741L3.37605 13.6334C2.94105 14.3634 2.94105 15.2714 3.37605 16.0014L5.72505 19.9424C6.14105 20.6394 6.90305 21.0714 7.71205 21.0714H14.0374C14.2529 21.0714 14.3988 20.8504 14.3272 20.6471C14.0826 19.9527 13.9481 19.2062 13.9481 18.4274C13.9481 17.5085 14.1375 16.634 14.4742 15.8374C14.5614 15.631 14.4152 15.3934 14.1911 15.3934H9.86105C9.68205 15.3934 9.51605 15.3004 9.42205 15.1484C9.32905 14.9944 9.32105 14.8044 9.40105 14.6444L12.3801 8.77641C12.5571 8.43041 13.1231 8.43041 13.3001 8.77641L15.6478 13.3997C15.741 13.5833 15.9876 13.6206 16.1398 13.482C17.327 12.4009 18.9033 11.7394 20.6361 11.7394C20.8707 11.7394 21.0288 11.488 20.9088 11.2863L16.5411 3.94441Z" fill="black"/>
<path fill-rule="evenodd" clip-rule="evenodd" d="M19.1363 19.651C18.7223 19.664 18.3973 20.01 18.4103 20.424L18.4123 20.485C18.4253 20.891 18.7563 21.181 19.1583 21.181C19.1673 21.181 19.1763 21.181 19.1853 21.181C19.5993 21.168 19.9233 20.791 19.9093 20.377C19.8973 19.963 19.5523 19.638 19.1363 19.651Z" fill="black"/>
<path fill-rule="evenodd" clip-rule="evenodd" d="M19.1612 14.0309C18.7472 14.0309 18.4112 14.3669 18.4112 14.7809V17.3509C18.4112 17.7649 18.7472 18.1009 19.1612 18.1009C19.5752 18.1009 19.9112 17.7649 19.9112 17.3509V14.7809C19.9112 14.3669 19.5752 14.0309 19.1612 14.0309Z" fill="black"/>
</svg>