<svg width="24" height="24" viewBox="0 0 24 24" fill="none" xmlns="http://www.w3.org/2000/svg">
<path d="M12.8932 21.0073L17.8944 13.0684C18.0992 12.7423 18.1108 12.3306 17.9251 11.9949C17.7393 11.6593 17.3857 11.4492 17.0014 11.4492L13.0547 11.4492L10.9436 11.4492L6.999 11.4492C6.61478 11.4492 6.26011 11.6593 6.07539 11.9949C5.98778 12.1533 5.94345 12.3296 5.94345 12.5048C5.94345 12.7011 5.99728 12.8953 6.106 13.0684L11.1072 21.0073C11.3004 21.3134 11.6371 21.5002 12.0002 21.5002C12.3633 21.5002 12.7001 21.3134 12.8932 21.0073Z" fill="black"/>
<path opacity="0.4" d="M13.0547 3.55556L13.0547 11.449L10.9436 11.449L10.9436 3.55556C10.9436 2.97183 11.4165 2.5 11.9991 2.5C12.5829 2.5 13.0547 2.97183 13.0547 3.55556Z" fill="black"/>
</svg>