<svg width="24" height="25" viewBox="0 0 24 25" fill="none" xmlns="http://www.w3.org/2000/svg">
<path fill-rule="evenodd" clip-rule="evenodd" d="M12 13.2502C11.744 13.2502 11.488 13.1523 11.293 12.9573L5.29301 6.95725C4.90201 6.56625 4.90201 5.93425 5.29301 5.54325C5.68401 5.15225 6.31601 5.15225 6.70701 5.54325L12 10.8362L17.293 5.54325C17.684 5.15225 18.316 5.15225 18.707 5.54325C19.098 5.93425 19.098 6.56625 18.707 6.95725L12.707 12.9573C12.512 13.1523 12.256 13.2502 12 13.2502Z" fill="black"/>
<path opacity="0.4" fill-rule="evenodd" clip-rule="evenodd" d="M18 19.25H6C5.447 19.25 5 18.802 5 18.25C5 17.698 5.447 17.25 6 17.25H18C18.553 17.25 19 17.698 19 18.25C19 18.802 18.553 19.25 18 19.25Z" fill="black"/>
</svg>