<svg width="24" height="25" viewBox="0 0 24 25" fill="none" xmlns="http://www.w3.org/2000/svg">
<g opacity="0.4">
<path fill-rule="evenodd" clip-rule="evenodd" d="M20 16.7041C19.744 16.7041 19.488 16.6061 19.293 16.4111L15.84 12.9581C15.449 12.5671 15.449 11.9341 15.84 11.5441L19.293 8.09012C19.684 7.69912 20.316 7.69912 20.707 8.09012C21.098 8.48012 21.098 9.11312 20.707 9.50412L17.961 12.2511L20.707 14.9971C21.098 15.3881 21.098 16.0201 20.707 16.4111C20.512 16.6061 20.256 16.7041 20 16.7041Z" fill="black"/>
<path fill-rule="evenodd" clip-rule="evenodd" d="M4.00001 16.7041C3.74401 16.7041 3.48801 16.6061 3.29301 16.4111C2.90201 16.0201 2.90201 15.3881 3.29301 14.9971L6.03901 12.2511L3.29301 9.50412C2.90201 9.11312 2.90201 8.48012 3.29301 8.09012C3.68401 7.69912 4.31601 7.69912 4.70701 8.09012L8.16001 11.5441C8.55101 11.9341 8.55101 12.5671 8.16001 12.9581L4.70701 16.4111C4.51201 16.6061 4.25601 16.7041 4.00001 16.7041Z" fill="black"/>
</g>
<path fill-rule="evenodd" clip-rule="evenodd" d="M12 20.9159C11.448 20.9159 11 20.4679 11 19.9159V4.58594C11 4.03394 11.448 3.58594 12 3.58594C12.552 3.58594 13 4.03394 13 4.58594V19.9159C13 20.4679 12.552 20.9159 12 20.9159Z" fill="black"/>
</svg>