<svg width="24" height="25" viewBox="0 0 24 25" fill="none" xmlns="http://www.w3.org/2000/svg">
<g opacity="0.4">
<path fill-rule="evenodd" clip-rule="evenodd" d="M9.25169 11.2488H5.42069L6.58369 10.0908C6.97469 9.70181 6.97569 9.06781 6.58569 8.67681C6.19769 8.28581 5.56369 8.28481 5.17169 8.67381L2.29469 11.5398C2.29269 11.5418 2.28969 11.5448 2.28769 11.5468C2.28669 11.5488 2.28469 11.5498 2.28469 11.5498L2.28369 11.5508C2.19369 11.6428 2.12569 11.7488 2.07769 11.8608C2.02769 11.9798 1.99969 12.1108 1.99969 12.2488C1.99969 12.3848 2.02669 12.5148 2.07569 12.6328C2.12569 12.7508 2.19769 12.8618 2.29369 12.9568L5.17169 15.8228C5.36769 16.0168 5.62269 16.1138 5.87769 16.1138C6.1347 16.1138 6.39069 16.0158 6.58569 15.8198C6.97569 15.4278 6.97469 14.7948 6.58369 14.4058L5.42169 13.2488H9.25169C9.80369 13.2488 10.2517 12.8008 10.2517 12.2488C10.2517 11.6968 9.80369 11.2488 9.25169 11.2488Z" fill="black"/>
<path fill-rule="evenodd" clip-rule="evenodd" d="M21.7063 11.5437L21.7053 11.5417L18.8283 8.67772C18.4363 8.28872 17.8043 8.28972 17.4143 8.68072C17.0243 9.07172 17.0253 9.70572 17.4173 10.0947L18.5783 11.2517H14.7483C14.1953 11.2517 13.7483 11.6987 13.7483 12.2517C13.7483 12.8037 14.1953 13.2517 14.7483 13.2517H18.5803L17.4173 14.4087C17.0253 14.7987 17.0243 15.4317 17.4143 15.8227C17.6093 16.0197 17.8663 16.1177 18.1233 16.1177C18.3783 16.1177 18.6333 16.0207 18.8283 15.8257L21.7063 12.9607C21.8943 12.7727 22.0003 12.5187 22.0003 12.2517C22.0003 11.9857 21.8943 11.7307 21.7063 11.5437Z" fill="black"/>
</g>
<path fill-rule="evenodd" clip-rule="evenodd" d="M11.9998 4.59375C11.4478 4.59375 10.9998 5.04175 10.9998 5.59375V18.9087C10.9998 19.4618 11.4478 19.9087 11.9998 19.9087C12.5518 19.9087 12.9998 19.4618 12.9998 18.9087V5.59375C12.9998 5.04175 12.5518 4.59375 11.9998 4.59375Z" fill="black"/>
</svg>