<svg width="24" height="24" viewBox="0 0 24 24" fill="none" xmlns="http://www.w3.org/2000/svg">
<path d="M3.43091 14.2766L7.71603 10.9139C8.05241 10.6484 8.51591 10.5989 8.90178 10.7868C9.28878 10.9747 9.53516 11.3684 9.53516 11.7982L9.53516 14.0347L9.53516 16.2847L9.53516 18.5234C9.53516 18.9543 9.28878 19.3469 8.90178 19.5359C8.74653 19.6113 8.57778 19.6484 8.41016 19.6484C8.16266 19.6484 7.91741 19.5674 7.71603 19.4088L3.43091 16.0462C3.15866 15.8336 3.00003 15.5073 3.00003 15.1619C3.00003 14.8154 3.15866 14.4892 3.43091 14.2766Z" fill="black"/>
<path opacity="0.4" d="M13.5446 14.0352L9.53512 14.0352L9.53512 16.2852L13.5446 16.2852C17.6565 16.2852 21 12.9417 21 8.83203L21 5.47616C21 4.85516 20.4971 4.35116 19.875 4.35116C19.2529 4.35116 18.75 4.85516 18.75 5.47616L18.75 8.83203C18.75 11.7008 16.4156 14.0352 13.5446 14.0352Z" fill="black"/>
</svg>