<svg width="24" height="25" viewBox="0 0 24 25" fill="none" xmlns="http://www.w3.org/2000/svg">
<path opacity="0.4" d="M1.53674 6.25C1.53674 4.04086 3.3276 2.25 5.53674 2.25H11.8313C14.0404 2.25 15.8313 4.04086 15.8313 6.25V18.248C15.8313 20.4572 14.0404 22.248 11.8313 22.248H5.53675C3.32761 22.248 1.53674 20.4572 1.53674 18.248C1.53674 16.9872 1.53674 6.33413 1.53674 6.25Z" fill="black"/>
<path d="M18.2854 8.95737L22.1481 11.5437L22.1597 11.5545C22.3533 11.7343 22.4633 11.9865 22.4633 12.2507C22.4633 12.5149 22.3533 12.7671 22.1597 12.9469L22.1481 12.9577L18.2855 15.544C17.9005 15.8892 17.3085 15.8633 16.9553 15.483C16.8276 15.3454 16.7481 15.1796 16.7168 15.0073L16.7135 14.9892L16.7197 13.2009L11.1341 13.2011C10.6095 13.2011 10.1841 12.7758 10.1841 12.2512C10.1841 11.7265 10.6094 11.3011 11.134 11.3011L16.7188 11.3009L16.7052 9.57939L16.7063 9.56854C16.7264 9.36997 16.8092 9.17579 16.9553 9.01843C17.3085 8.63806 17.9005 8.61219 18.2854 8.95737Z" fill="black"/>
</svg>