<svg width="24" height="24" viewBox="0 0 24 24" fill="none" xmlns="http://www.w3.org/2000/svg">
<path opacity="0.4" fill-rule="evenodd" clip-rule="evenodd" d="M16.2322 16.1365V14.9575C16.2322 14.5745 16.4502 14.2265 16.7942 14.0585C16.9322 13.9905 17.0832 13.9575 17.2322 13.9575C17.4512 13.9575 17.6682 14.0295 17.8472 14.1685C17.9292 14.2335 19.8782 15.7545 20.8922 16.7705C21.2832 17.1605 21.2832 17.7935 20.8932 18.1835C19.8782 19.2005 17.9292 20.7225 17.8472 20.7865C17.5452 21.0215 17.1362 21.0645 16.7942 20.8965C16.4502 20.7295 16.2322 20.3805 16.2322 19.9985V18.1965C14.0162 17.6965 11.7842 16.2955 10.3462 12.3425C8.59221 7.52049 6.69121 7.52049 3.81421 7.52049C3.26121 7.52049 2.81421 7.07249 2.81421 6.52049C2.81421 5.96849 3.26121 5.52049 3.81421 5.52049C6.85221 5.52049 9.99321 5.52049 12.2252 11.6585C13.2572 14.4945 14.6542 15.6555 16.2322 16.1365Z" fill="black"/>
<path fill-rule="evenodd" clip-rule="evenodd" d="M16.2322 7.86155V9.04055C16.2322 9.42355 16.4502 9.77155 16.7942 9.93955C16.9322 10.0076 17.0832 10.0406 17.2322 10.0406C17.4512 10.0406 17.6682 9.96855 17.8472 9.82955C17.9292 9.76455 19.8782 8.24355 20.8922 7.22755C21.2832 6.83755 21.2832 6.20455 20.8932 5.81455C19.8782 4.79755 17.9292 3.27555 17.8472 3.21155C17.5452 2.97655 17.1362 2.93355 16.7942 3.10155C16.4502 3.26855 16.2322 3.61755 16.2322 3.99955V5.80155C14.0162 6.30155 11.7842 7.70255 10.3462 11.6556C8.59221 16.4776 6.69121 16.4776 3.81421 16.4776C3.26121 16.4776 2.81421 16.9256 2.81421 17.4776C2.81421 18.0296 3.26121 18.4776 3.81421 18.4776C6.85221 18.4776 9.99321 18.4776 12.2252 12.3396C13.2572 9.50355 14.6542 8.34255 16.2322 7.86155Z" fill="black"/>
</svg>