<svg width="24" height="25" viewBox="0 0 24 25" fill="none" xmlns="http://www.w3.org/2000/svg">
<path d="M14.7445 9.04102L12.9485 9.04102C12.5705 9.04102 12.2255 8.82801 12.0555 8.49101C11.8855 8.15301 11.9185 7.75101 12.1435 7.44701L14.9395 3.65601C14.9535 3.63901 14.9755 3.63201 14.9895 3.61501C15.0545 3.53701 15.1325 3.47501 15.2195 3.42001C15.2555 3.39802 15.2845 3.36802 15.3235 3.35002C15.4525 3.29002 15.5925 3.25001 15.7445 3.25001C15.8965 3.25001 16.0375 3.29002 16.1665 3.35002C16.2045 3.36802 16.2335 3.39802 16.2705 3.42002C16.3565 3.47501 16.4345 3.53701 16.5005 3.61501C16.5145 3.63201 16.5365 3.63901 16.5495 3.65602L19.3465 7.44701C19.4755 7.62201 19.5415 7.83102 19.5415 8.04102C19.5415 8.19402 19.5055 8.34902 19.4345 8.49102C19.2645 8.82802 18.9185 9.04102 18.5415 9.04102L16.7445 9.04102L14.7445 9.04102Z" fill="black"/>
<path opacity="0.4" d="M4.45851 6.67L4.45851 15.107C4.45851 18.494 7.21451 21.25 10.6025 21.25C13.9895 21.25 16.7445 18.494 16.7445 15.107L16.7445 9.041L14.7445 9.041L14.7445 15.107C14.7445 17.392 12.8865 19.25 10.6025 19.25C8.31751 19.25 6.45851 17.392 6.45851 15.107L6.45851 6.67C6.45851 6.118 6.01051 5.67 5.45851 5.67C4.90651 5.67 4.45851 6.118 4.45851 6.67Z" fill="black"/>
</svg>