<svg width="24" height="25" viewBox="0 0 24 25" fill="none" xmlns="http://www.w3.org/2000/svg">
<path opacity="0.4" fill-rule="evenodd" clip-rule="evenodd" d="M16.217 2.75H7.782C4.622 2.75 2.5 4.971 2.5 8.276V16.224C2.5 19.529 4.622 21.75 7.782 21.75H16.216C19.376 21.75 21.5 19.529 21.5 16.224V8.276C21.5 4.971 19.377 2.75 16.217 2.75Z" fill="black"/>
<path fill-rule="evenodd" clip-rule="evenodd" d="M12.5332 7.86123L15.9232 11.2662C16.0692 11.4122 16.1422 11.6042 16.1422 11.7952C16.1422 11.9872 16.0682 12.1802 15.9212 12.3262C15.6282 12.6192 15.1532 12.6182 14.8612 12.3242L12.7522 10.2062L12.7522 16.1152C12.7522 16.5292 12.4162 16.8652 12.0022 16.8652C11.5882 16.8652 11.2522 16.5292 11.2522 16.1152L11.2522 10.2052L9.13819 12.3252C8.84519 12.6182 8.37019 12.6192 8.07719 12.3262C7.78419 12.0342 7.78319 11.5592 8.07519 11.2652L11.4712 7.86123C11.5032 7.82823 11.5452 7.81223 11.5822 7.78623C11.6252 7.75623 11.6632 7.72023 11.7112 7.69923C11.8032 7.66123 11.9012 7.64023 12.0022 7.64023C12.1032 7.64023 12.2012 7.66123 12.2922 7.69923C12.3652 7.73023 12.4272 7.77823 12.4862 7.82923C12.5002 7.84223 12.5192 7.84723 12.5332 7.86123Z" fill="black"/>
</svg>