<svg width="24" height="24" viewBox="0 0 24 24" fill="none" xmlns="http://www.w3.org/2000/svg">
<path d="M6.11933 18.793C7.84209 18.793 9.23866 17.3964 9.23866 15.6737C9.23866 13.9509 7.84209 12.5543 6.11933 12.5543C4.39657 12.5543 3 13.9509 3 15.6737C3 17.3964 4.39657 18.793 6.11933 18.793Z" stroke="black" stroke-width="1.5" stroke-miterlimit="10" stroke-linecap="round" stroke-linejoin="round"/>
<path d="M17.881 18.793C19.6038 18.793 21.0004 17.3964 21.0004 15.6737C21.0004 13.9509 19.6038 12.5543 17.881 12.5543C16.1583 12.5543 14.7617 13.9509 14.7617 15.6737C14.7617 17.3964 16.1583 18.793 17.881 18.793Z" stroke="black" stroke-width="1.5" stroke-miterlimit="10" stroke-linecap="round" stroke-linejoin="round"/>
<path d="M16.0677 9.94229H10.1484L6.57812 15.0253" stroke="black" stroke-width="1.5" stroke-miterlimit="10" stroke-linecap="round" stroke-linejoin="round"/>
<path d="M9.23828 15.6737H14.7629" stroke="black" stroke-width="1.5" stroke-miterlimit="10" stroke-linecap="round" stroke-linejoin="round"/>
<path d="M17.7225 15.1662L15.0166 6.14647L17.2246 5.20691" stroke="black" stroke-width="1.5" stroke-miterlimit="10" stroke-linecap="round" stroke-linejoin="round"/>
<path d="M9.90555 7.47141H7.28418" stroke="black" stroke-width="1.5" stroke-miterlimit="10" stroke-linecap="round" stroke-linejoin="round"/>
<path d="M10.1497 9.94244L8.3457 7.47141" stroke="black" stroke-width="1.5" stroke-miterlimit="10" stroke-linecap="round" stroke-linejoin="round"/>
</svg>
