<svg width="24" height="24" viewBox="0 0 24 24" fill="none" xmlns="http://www.w3.org/2000/svg">
<path d="M19.877 20.7061L19.877 5.29394C19.877 4.18937 18.9815 3.29395 17.877 3.29395H6.12313C5.01856 3.29395 4.12314 4.18937 4.12313 5.29393L4.12305 20.7061" stroke="black" stroke-width="1.5" stroke-linecap="round" stroke-linejoin="round"/>
<path d="M19.8736 13.0949C14.5725 13.8869 9.41239 13.8856 4.12598 13.0949" stroke="black" stroke-width="1.5" stroke-linecap="round" stroke-linejoin="round"/>
<path d="M21.9999 9.80792L21.9998 7.6672C21.9998 7.11494 21.5521 6.66727 20.9998 6.66727H20.0283H3.95171H3C2.44769 6.66727 1.99997 7.11502 2 7.66733L2.00013 9.80792" stroke="black" stroke-width="1.5" stroke-linecap="round" stroke-linejoin="round"/>
<path d="M16.867 16.2727V16.3207M7.14211 16.2727V16.3207M7.33664 16.283C7.33664 16.3911 7.24898 16.4786 7.14092 16.4786C7.03286 16.4786 6.94531 16.3911 6.94531 16.283C6.94531 16.1749 7.03286 16.0873 7.14092 16.0873C7.24898 16.0873 7.33664 16.1749 7.33664 16.283ZM17.0558 16.283C17.0558 16.3911 16.9681 16.4786 16.8601 16.4786C16.752 16.4786 16.6645 16.3911 16.6645 16.283C16.6645 16.1749 16.752 16.0873 16.8601 16.0873C16.9681 16.0873 17.0558 16.1749 17.0558 16.283Z" stroke="black" stroke-width="1.5" stroke-linecap="round" stroke-linejoin="round"/>
<path d="M17.0014 20.7061V19.8776C17.0014 19.3253 16.5537 18.8776 16.0014 18.8776H7.98828C7.436 18.8776 6.98828 19.3253 6.98828 19.8776V20.7061" stroke="black" stroke-width="1.5" stroke-linecap="round" stroke-linejoin="round"/>
<path d="M10.6855 16.283H13.3147" stroke="black" stroke-width="1.5" stroke-linecap="round" stroke-linejoin="round"/>
</svg>
