<svg width="24" height="24" viewBox="0 0 24 24" fill="none" xmlns="http://www.w3.org/2000/svg">
<path d="M17.2344 20.959V20.9999" stroke="black" stroke-width="1.5" stroke-linecap="round" stroke-linejoin="round"/>
<path d="M13.5723 16.5296C15.7085 14.8182 18.7615 14.8182 20.8977 16.5296" stroke="black" stroke-width="1.5" stroke-linecap="round" stroke-linejoin="round"/>
<path d="M15.3701 18.7935C16.4382 17.8823 18.0263 17.8823 19.1 18.7879" stroke="black" stroke-width="1.5" stroke-linecap="round" stroke-linejoin="round"/>
<path d="M14.0703 11.0488H15.6427" stroke="black" stroke-width="1.5" stroke-linecap="round" stroke-linejoin="round"/>
<path d="M6.30078 11.0488H7.87317" stroke="black" stroke-width="1.5" stroke-linecap="round" stroke-linejoin="round"/>
<path d="M3.10547 7.38477C8.32068 8.12423 13.6141 8.12423 18.8294 7.38477" stroke="black" stroke-width="1.5" stroke-linecap="round" stroke-linejoin="round"/>
<path d="M18.8466 10.8108C18.846 10.1016 18.6198 9.41071 18.2006 8.83866L17.1807 7.46996C17.099 7.35465 17.0333 7.22932 16.9852 7.09645L16.0672 4.54663C15.8375 3.89123 15.2399 3.39083 14.5543 3.28002C12.1863 2.90666 9.77444 2.90666 7.4064 3.28002C6.72387 3.39365 6.13035 3.89347 5.90199 4.54663L4.98399 7.09645C4.93579 7.22397 4.87001 7.34406 4.78852 7.45336L3.75162 8.88099C3.3415 9.44698 3.12132 10.1284 3.12267 10.8274L3.1084 15.3814C3.10689 15.8657 3.49902 16.259 3.98326 16.259H5.71663C6.1998 16.259 6.59149 15.8673 6.59149 15.3842V15.0256C6.59149 14.5425 6.98318 14.1508 7.46635 14.1508H11.7737" stroke="black" stroke-width="1.5" stroke-linecap="round" stroke-linejoin="round"/>
</svg>
