<svg width="24" height="24" viewBox="0 0 24 24" fill="none" xmlns="http://www.w3.org/2000/svg">
<path d="M6.5293 8.76184C7.33195 5.57408 10.2172 3.21478 13.6535 3.21478C17.7109 3.21478 20.9999 6.50377 20.9999 10.5621C20.9999 13.0882 19.5589 15.5601 17.937 17.4404C17.2249 18.2659 16.478 18.9773 15.8028 19.5292" stroke="black" stroke-width="1.5" stroke-linecap="round" stroke-linejoin="round"/>
<path d="M14.8969 12.2338C15.8532 11.2774 15.8532 9.72744 14.8969 8.77111C13.9399 7.81412 12.3899 7.81412 11.4336 8.77044" stroke="black" stroke-width="1.5" stroke-linecap="round" stroke-linejoin="round"/>
<path d="M10.5615 17.3042L11.1392 17.3042" stroke="black" stroke-width="1.5" stroke-linecap="round" stroke-linejoin="round"/>
<path d="M5.37305 17.3042L5.95076 17.3042" stroke="black" stroke-width="1.5" stroke-linecap="round" stroke-linejoin="round"/>
<path d="M3 14.8584C6.48242 15.3522 10.0171 15.3522 13.4995 14.8584" stroke="black" stroke-width="1.5" stroke-linecap="round" stroke-linejoin="round"/>
<path d="M3.00196 20.1977C3.00094 20.5211 3.26279 20.7837 3.58613 20.7837H4.99356C5.31619 20.7837 5.57774 20.5222 5.57774 20.1995V19.9601C5.57774 19.6375 5.83928 19.376 6.16192 19.376H10.3456C10.6682 19.376 10.9298 19.6375 10.9298 19.9601V20.1995C10.9298 20.5222 11.1913 20.7837 11.514 20.7837H12.9268C13.2494 20.7837 13.511 20.5222 13.511 20.1995V17.1457C13.5106 16.6721 13.3596 16.2108 13.0796 15.8288L12.3986 14.9149C12.3441 14.8379 12.3002 14.7542 12.2681 14.6655L11.6551 12.9629C11.5017 12.5252 11.1027 12.1911 10.6449 12.1171C9.06364 11.8678 7.45315 11.8678 5.87191 12.1171C5.41615 12.193 5.01984 12.5267 4.86735 12.9629L4.25436 14.6655C4.22218 14.7506 4.17825 14.8308 4.12384 14.9038L3.43146 15.8571C3.1576 16.235 3.01058 16.6901 3.01148 17.1568L3.00196 20.1977Z" stroke="black" stroke-width="1.5" stroke-linecap="round" stroke-linejoin="round"/>
</svg>
