<svg width="24" height="24" viewBox="0 0 24 24" fill="none" xmlns="http://www.w3.org/2000/svg">
<path d="M21 12C21 7.02908 16.9709 3 12 3C7.02908 3 3 7.02908 3 12C3 16.9709 7.02908 21 12 21C16.9709 21 21 16.9709 21 12Z" stroke="black" stroke-width="1.5" stroke-linecap="round" stroke-linejoin="round"/>
<path d="M14.2686 12.9316L14.8369 12.9316" stroke="black" stroke-width="1.5" stroke-linecap="round" stroke-linejoin="round"/>
<path d="M9.16406 12.9316L9.73242 12.9316" stroke="black" stroke-width="1.5" stroke-linecap="round" stroke-linejoin="round"/>
<path d="M6.83008 10.5249C10.2561 11.0107 13.7336 11.0107 17.1596 10.5249" stroke="black" stroke-width="1.5" stroke-linecap="round" stroke-linejoin="round"/>
<path d="M6.83106 15.7783C6.83006 16.0964 7.08766 16.3548 7.40578 16.3548H8.79041C9.10782 16.3548 9.36514 16.0975 9.36514 15.7801V15.5446C9.36514 15.2271 9.62245 14.9698 9.93986 14.9698H14.0558C14.3732 14.9698 14.6305 15.2271 14.6305 15.5446V15.7801C14.6305 16.0975 14.8878 16.3548 15.2052 16.3548H16.5952C16.9126 16.3548 17.1699 16.0975 17.1699 15.7801V12.7757C17.1696 12.3098 17.021 11.8559 16.7456 11.4801L16.0756 10.581C16.0219 10.5052 15.9788 10.4229 15.9472 10.3356L15.3441 8.66056C15.1932 8.23001 14.8006 7.90128 14.3502 7.82848C12.7946 7.58321 11.2102 7.58321 9.65455 7.82848C9.20617 7.90314 8.81627 8.23148 8.66625 8.66056L8.06319 10.3356C8.03152 10.4194 7.98831 10.4983 7.93478 10.5701L7.2536 11.5079C6.98419 11.8798 6.83954 12.3274 6.84043 12.7866L6.83106 15.7783Z" stroke="black" stroke-width="1.5" stroke-linecap="round" stroke-linejoin="round"/>
</svg>
