<svg width="24" height="24" viewBox="0 0 24 24" fill="none" xmlns="http://www.w3.org/2000/svg">
<path d="M3 3L13.4523 13.4523L15.6347 15.6347L21 21" stroke="black" stroke-width="1.5" stroke-miterlimit="10" stroke-linecap="round" stroke-linejoin="round"/>
<path d="M13.9707 13.9392C13.9341 13.735 13.915 13.5248 13.915 13.3101C13.915 11.3536 15.5011 9.76752 17.4576 9.76752C19.4142 9.76752 21.0003 11.3536 21.0003 13.3101C21.0003 15.2666 19.4142 16.8527 17.4576 16.8527C17.3429 16.856 17.0414 16.8371 16.754 16.736" stroke="black" stroke-width="1.5" stroke-miterlimit="10" stroke-linecap="round" stroke-linejoin="round"/>
<path d="M15.8715 8.02264H8.14544" stroke="black" stroke-width="1.5" stroke-miterlimit="10" stroke-linecap="round" stroke-linejoin="round"/>
<path d="M17.4576 13.1676L14.7188 4.03803L16.9536 3.08704" stroke="black" stroke-width="1.5" stroke-miterlimit="10" stroke-linecap="round" stroke-linejoin="round"/>
<path d="M8.75409 5.52161H5.74514" stroke="black" stroke-width="1.5" stroke-miterlimit="10" stroke-linecap="round" stroke-linejoin="round"/>
<path d="M9.66643 19.7224H9.31556C5.82758 19.7224 3 17.4659 3 13.9779C3 12.3531 3.92035 10.9433 5.26818 10.2413" stroke="black" stroke-width="1.5" stroke-miterlimit="10" stroke-linecap="round" stroke-linejoin="round"/>
<path d="M12.0472 20.913H10.8566C10.1991 20.913 9.66602 20.38 9.66602 19.7224C9.66602 19.0649 10.1991 18.5319 10.8566 18.5319H12.0472M12.0472 20.913V18.5319M12.0472 20.913H13.4341M12.0472 18.5319H13.4341" stroke="black" stroke-width="1.5" stroke-miterlimit="10" stroke-linecap="round" stroke-linejoin="round"/>
<path d="M7.20898 16.7848C8.47233 16.7848 9.57974 16.1171 10.1975 15.1154" stroke="black" stroke-width="1.5" stroke-miterlimit="10" stroke-linecap="round" stroke-linejoin="round"/>
<path d="M6.93555 13.1675C7.21704 12.8895 7.46107 12.6196 7.67244 12.3544" stroke="black" stroke-width="1.5" stroke-miterlimit="10" stroke-linecap="round" stroke-linejoin="round"/>
</svg>
