<svg width="24" height="24" viewBox="0 0 24 24" fill="none" xmlns="http://www.w3.org/2000/svg">
<path d="M12.7754 4.59332H14.7033C15.1641 4.59332 15.5653 4.90824 15.6747 5.3559L18.1821 15.6147" stroke="black" stroke-width="1.5" stroke-miterlimit="10" stroke-linecap="round" stroke-linejoin="round"/>
<path d="M5.02344 12.8726C7.51434 12.8726 9.53359 14.8676 9.53359 17.3584H14.4655C14.4655 15.5491 15.5309 14.0129 17.0686 13.2944L17.5499 13.0965" stroke="black" stroke-width="1.5" stroke-miterlimit="10" stroke-linecap="round" stroke-linejoin="round"/>
<path d="M4.98087 19.4067C6.07488 19.4067 6.96174 18.5198 6.96174 17.4258C6.96174 16.3318 6.07488 15.4449 4.98087 15.4449C3.88687 15.4449 3 16.3318 3 17.4258C3 18.5198 3.88687 19.4067 4.98087 19.4067Z" stroke="black" stroke-width="1.5" stroke-miterlimit="10" stroke-linecap="round" stroke-linejoin="round"/>
<path d="M19.019 19.4067C20.113 19.4067 20.9998 18.5198 20.9998 17.4258C20.9998 16.3318 20.113 15.4449 19.019 15.4449C17.925 15.4449 17.0381 16.3318 17.0381 17.4258C17.0381 18.5198 17.925 19.4067 19.019 19.4067Z" stroke="black" stroke-width="1.5" stroke-miterlimit="10" stroke-linecap="round" stroke-linejoin="round"/>
</svg>
