<svg width="24" height="24" viewBox="0 0 24 24" fill="none" xmlns="http://www.w3.org/2000/svg">
<path d="M3 8L7.20603 6" stroke="black" stroke-width="1.5" stroke-linecap="round" stroke-linejoin="round"/>
<path d="M3 12L7.20603 10" stroke="black" stroke-width="1.5" stroke-linecap="round" stroke-linejoin="round"/>
<path d="M3 16L7.20603 14" stroke="black" stroke-width="1.5" stroke-linecap="round" stroke-linejoin="round"/>
<path d="M3 20L7.20603 18" stroke="black" stroke-width="1.5" stroke-linecap="round" stroke-linejoin="round"/>
<path d="M10.9438 11.9168C10.9947 10.3822 11.138 8.8286 11.6791 7.35112C11.8814 6.79908 12.1425 6.28364 12.5216 5.84875C12.9635 5.34064 13.5033 5.11367 14.1435 5.13856C15.2511 5.18249 16.2957 5.48707 17.3002 5.99371C18.5123 6.60579 19.4672 7.53269 20.1422 8.78467C21.3141 10.9621 21.2713 13.1512 20.0994 15.311C19.352 16.689 18.235 17.6056 16.9011 18.2177C16.0386 18.6116 15.1305 18.7858 14.2024 18.8561C13.3131 18.9249 12.6608 18.4944 12.1867 17.7154C11.7273 16.9613 11.4622 16.1135 11.2787 15.2364C11.0523 14.1557 10.9747 13.0575 10.9452 11.9168H10.9438Z" stroke="black" stroke-width="1.5" stroke-linecap="round" stroke-linejoin="round"/>
</svg>
