<svg width="24" height="24" viewBox="0 0 24 24" fill="none" xmlns="http://www.w3.org/2000/svg">
<path d="M5.78125 3H7.50222C8.0545 3 8.47967 3.46011 8.65338 3.98436C8.90617 4.74727 9.48392 5.33226 10.4458 5.33226" stroke="black" stroke-width="1.5" stroke-linecap="round" stroke-linejoin="round"/>
<path d="M18.2192 3H16.4982C15.946 3 15.5208 3.46011 15.3471 3.98436C15.0943 4.74727 14.5165 5.33226 13.5547 5.33226" stroke="black" stroke-width="1.5" stroke-linecap="round" stroke-linejoin="round"/>
<path d="M10.4117 7.66452L8.23231 7.66452C6.94614 7.66452 5.99432 8.861 6.28353 10.1142L7.69268 16.2207C7.9021 17.1282 8.71015 17.771 9.64147 17.771H10.3988" stroke="black" stroke-width="1.5" stroke-linecap="round" stroke-linejoin="round"/>
<path d="M13.6119 7.66452L15.8657 7.66452C17.1518 7.66452 18.1037 8.86102 17.8144 10.1143L16.4052 16.2207C16.1958 17.1282 15.3877 17.771 14.4564 17.771H13.6055" stroke="black" stroke-width="1.5" stroke-linecap="round" stroke-linejoin="round"/>
<path d="M10.0566 6.49839C10.0566 7.57178 10.9268 8.44194 12.0002 8.44194C13.0736 8.44194 13.9437 7.57178 13.9437 6.49839C13.9437 5.425 13.0736 4.55484 12.0002 4.55484C10.9268 4.55484 10.0566 5.425 10.0566 6.49839Z" stroke="black" stroke-width="1.5" stroke-linecap="round" stroke-linejoin="round"/>
<path d="M10.4277 15.4567C10.4277 14.588 11.1319 13.8839 12.0006 13.8839C12.8693 13.8839 13.5734 14.588 13.5734 15.4567V19.4271C13.5734 20.2958 12.8693 21 12.0006 21C11.1319 21 10.4277 20.2958 10.4277 19.4271V15.4567Z" stroke="black" stroke-width="1.5" stroke-linecap="round" stroke-linejoin="round"/>
</svg>
