<svg width="24" height="24" viewBox="0 0 24 24" fill="none" xmlns="http://www.w3.org/2000/svg">
<path d="M15.5962 17.2575H8.87891" stroke="black" stroke-width="1.5" stroke-linecap="round" stroke-linejoin="round"/>
<circle cx="6.92953" cy="17.4321" r="1.95492" stroke="black" stroke-width="1.5" stroke-linecap="round" stroke-linejoin="round"/>
<circle cx="17.5575" cy="17.4321" r="1.95492" stroke="black" stroke-width="1.5" stroke-linecap="round" stroke-linejoin="round"/>
<path d="M4.92075 17.5709H4.16336C2.98535 17.5709 2 16.5856 2 15.4076V6.77631C2 6.20255 2.22809 5.65245 2.6338 5.24674C3.03951 4.84103 3.5896 4.61295 4.16336 4.61295H17.7252C19.0521 4.61295 20.1517 5.6783 20.1517 7.00524C20.1517 7.21505 19.9816 7.38513 19.7718 7.38513H18.6996C18.4809 7.38513 18.3036 7.56244 18.3036 7.78115C18.3036 10.3742 19.1459 11.3612 20.9051 12.3551C21.5647 12.7277 21.9998 13.1985 21.9998 13.9561V15.7683C21.9998 16.8729 21.1044 17.5498 19.9998 17.5498H19.6897" stroke="black" stroke-width="1.5" stroke-linecap="round" stroke-linejoin="round"/>
<path d="M10.8684 10.8187C11.1445 10.8187 11.3684 10.5948 11.3684 10.3187V7.88544C11.3684 7.6093 11.1445 7.38544 10.8684 7.38544H5.00195C4.72581 7.38544 4.50195 7.60929 4.50195 7.88544V10.3187C4.50195 10.5948 4.72581 10.8187 5.00195 10.8187H10.8684Z" stroke="black" stroke-width="1.5" stroke-linecap="round" stroke-linejoin="round"/>
<path d="M18.6371 7.38544H14.4434C14.1672 7.38544 13.9434 7.60929 13.9434 7.88544V10.3187C13.9434 10.5948 14.1672 10.8187 14.4434 10.8187H19.0334" stroke="black" stroke-width="1.5" stroke-linecap="round" stroke-linejoin="round"/>
</svg>
