<svg width="24" height="24" viewBox="0 0 24 24" fill="none" xmlns="http://www.w3.org/2000/svg">
<path d="M16.5625 5.47528L19.4435 5.47528C19.3921 6.17554 18.7439 7.57605 16.5625 7.57605" stroke="black" stroke-width="1.5" stroke-linecap="round" stroke-linejoin="round"/>
<path d="M7.4375 5.47528L4.55652 5.47528C4.60795 6.17554 5.25613 7.57605 7.4375 7.57605" stroke="black" stroke-width="1.5" stroke-linecap="round" stroke-linejoin="round"/>
<path d="M16.5625 14.4764L19.4435 14.4764C19.3921 15.1767 18.7439 16.5772 16.5625 16.5772" stroke="black" stroke-width="1.5" stroke-linecap="round" stroke-linejoin="round"/>
<path d="M7.4375 14.4764L4.55652 14.4764C4.60795 15.1767 5.25613 16.5772 7.4375 16.5772" stroke="black" stroke-width="1.5" stroke-linecap="round" stroke-linejoin="round"/>
<path d="M16.5625 9.97589L19.4435 9.97589C19.3921 10.6761 18.7439 12.0767 16.5625 12.0767" stroke="black" stroke-width="1.5" stroke-linecap="round" stroke-linejoin="round"/>
<path d="M7.4375 9.97589L4.55652 9.97589C4.60795 10.6761 5.25613 12.0767 7.4375 12.0767" stroke="black" stroke-width="1.5" stroke-linecap="round" stroke-linejoin="round"/>
<path d="M10.2272 3L13.7719 3C15.313 3 16.5625 4.24949 16.5625 5.79057L16.5625 16.4115C16.5625 17.9525 15.313 19.202 13.7719 19.202L10.2272 19.202C8.68615 19.202 7.43666 17.9525 7.43666 16.4115L7.43666 5.79057C7.43666 4.24949 8.68615 3 10.2272 3Z" stroke="black" stroke-width="1.5" stroke-linecap="round" stroke-linejoin="round"/>
<path d="M10.875 19.2501V21" stroke="black" stroke-width="1.5" stroke-linecap="round" stroke-linejoin="round"/>
<path d="M13.125 19.2501V21" stroke="black" stroke-width="1.5" stroke-linecap="round" stroke-linejoin="round"/>
<circle cx="12.0001" cy="6.60042" r="1.12514" stroke="black" stroke-width="1.5" stroke-linecap="round" stroke-linejoin="round"/>
<circle cx="12.0001" cy="11.101" r="1.12514" stroke="black" stroke-width="1.5" stroke-linecap="round" stroke-linejoin="round"/>
<circle cx="12.0001" cy="15.6016" r="1.12514" stroke="black" stroke-width="1.5" stroke-linecap="round" stroke-linejoin="round"/>
</svg>
