<svg width="24" height="24" viewBox="0 0 24 24" fill="none" xmlns="http://www.w3.org/2000/svg">
<path d="M17.877 3.29395H6.12313C5.01856 3.29395 4.12314 4.18937 4.12313 5.29393L4.12305 19.7061C4.12304 20.2584 4.57076 20.7061 5.12305 20.7061H6.54717C6.90284 20.7061 7.23174 20.5172 7.41095 20.21L7.79948 19.5439C7.97869 19.2367 8.30759 19.0478 8.66325 19.0478H15.3341C15.6898 19.0478 16.0187 19.2367 16.1979 19.5439L16.5864 20.21C16.7656 20.5172 17.0945 20.7061 17.4502 20.7061H18.877C19.4293 20.7061 19.8771 20.2584 19.877 19.7061L19.877 5.29394C19.877 4.18937 18.9815 3.29395 17.877 3.29395Z" stroke="black" stroke-width="1.5" stroke-linecap="round" stroke-linejoin="round"/>
<path d="M22 11.2147L21.9998 9.45294M2.0002 11.2147L2 9.45294" stroke="black" stroke-width="1.5" stroke-linecap="round" stroke-linejoin="round"/>
<path d="M6.4342 12.8915C10.171 13.4505 13.8185 13.4513 17.5656 12.8915L17.5669 9.10578C17.5673 8.00095 16.6718 7.1051 15.5669 7.1051H8.43262C7.32772 7.1051 6.43216 8.00104 6.43262 9.10594L6.4342 12.8915Z" stroke="black" stroke-width="1.5" stroke-linecap="round" stroke-linejoin="round"/>
<path d="M15.3848 16.1394H17.1023" stroke="black" stroke-width="1.5" stroke-linecap="round" stroke-linejoin="round"/>
<path d="M6.89844 16.1394H8.61601" stroke="black" stroke-width="1.5" stroke-linecap="round" stroke-linejoin="round"/>
</svg>
