<svg width="24" height="24" viewBox="0 0 24 24" fill="none" xmlns="http://www.w3.org/2000/svg">
<path fill-rule="evenodd" clip-rule="evenodd" d="M15.4894 16.5274C15.9681 16.0486 16.6168 15.7812 17.2923 15.7812C17.9677 15.7812 18.6168 16.0485 19.0957 16.5274C19.5744 17.006 19.8423 17.6556 19.8423 18.3312V18.334H19.8423C19.8414 18.5684 19.8071 18.8014 19.7406 19.0259C19.5901 19.5576 19.271 20.026 18.8308 20.3608C18.3892 20.6966 17.8497 20.8795 17.2945 20.8811L17.2939 20.8811C16.7364 20.8823 16.1941 20.7005 15.75 20.3645C15.3055 20.0283 14.9839 19.5561 14.8335 19.0197L14.8334 19.0192C14.7705 18.7943 14.7394 18.5608 14.7424 18.3256C14.7438 17.6515 15.0123 17.0044 15.4894 16.5274ZM17.2923 17.2812C17.0131 17.2812 16.7464 17.3916 16.55 17.588C16.3533 17.7848 16.2424 18.0525 16.2424 18.3312V18.3424L16.2423 18.3424C16.2409 18.4337 16.2529 18.5256 16.2779 18.6152L15.5557 18.8172L16.2778 18.6147C16.3398 18.8358 16.4721 19.0299 16.655 19.1683C16.8382 19.3068 17.0615 19.3816 17.2905 19.3811C17.5188 19.3804 17.7409 19.3051 17.9229 19.1668C18.1047 19.0285 18.2363 18.8349 18.2981 18.6147L18.3015 18.6024L18.3016 18.6024C18.3281 18.5138 18.3418 18.4219 18.3423 18.3298C18.3419 18.0512 18.2312 17.7841 18.035 17.588C17.8388 17.3918 17.5717 17.2812 17.2923 17.2812Z" fill="black"/>
<path fill-rule="evenodd" clip-rule="evenodd" d="M20.1807 7.90625H20.9998C21.414 7.90625 21.7498 8.24204 21.7498 8.65625C21.7498 9.07046 21.414 9.40625 20.9998 9.40625H20.1843C20.1202 9.40709 20.0588 9.42466 20.0059 9.45634C19.9523 9.4884 19.9076 9.53446 19.8769 9.59009L17.8442 13.3674C17.6479 13.7321 17.1931 13.8687 16.8283 13.6724C16.4636 13.4761 16.327 13.0213 16.5233 12.6566L18.5598 8.87217C18.7183 8.58229 18.9514 8.33922 19.2359 8.16904C19.521 7.99852 19.8454 7.90876 20.1751 7.90627L20.1807 7.90625Z" fill="black"/>
<path fill-rule="evenodd" clip-rule="evenodd" d="M18.5762 18.332C18.5762 17.9178 18.912 17.582 19.3262 17.582H21.0001C21.4143 17.582 21.7501 17.9178 21.7501 18.332C21.7501 18.7462 21.4143 19.082 21.0001 19.082H19.3262C18.912 19.082 18.5762 18.7462 18.5762 18.332Z" fill="black"/>
<path fill-rule="evenodd" clip-rule="evenodd" d="M13.5338 13.1143C14.0508 12.5973 14.7523 12.3066 15.4835 12.3066H21.0002C21.4144 12.3066 21.7502 12.6424 21.7502 13.0566C21.7502 13.4709 21.4144 13.8066 21.0002 13.8066H15.4835C15.1502 13.8066 14.8302 13.9392 14.5944 14.1749C14.3587 14.4106 14.2266 14.7297 14.2266 15.0631V16.6205C14.2266 16.9542 14.359 17.2741 14.5944 17.5096C14.8296 17.7447 15.1493 17.877 15.4835 17.877V19.377C14.7531 19.377 14.0514 19.0878 13.5338 18.5702C13.0165 18.0529 12.7266 17.3513 12.7266 16.6205V15.0631C12.7266 14.332 13.0167 13.6313 13.5338 13.1143Z" fill="black"/>
<path fill-rule="evenodd" clip-rule="evenodd" d="M6.70834 17.2812C6.42895 17.2812 6.16186 17.3918 5.96561 17.588C5.76917 17.7845 5.65839 18.0521 5.65839 18.3312V18.3424L5.65831 18.3424C5.65694 18.4348 5.66876 18.5264 5.69332 18.6145C5.75543 18.8343 5.88758 19.0278 6.06993 19.1658C6.25224 19.3038 6.47457 19.3785 6.7035 19.3785C6.93263 19.3785 7.15536 19.3037 7.33752 19.1658C7.52008 19.0276 7.65232 18.8338 7.71434 18.6138L7.71755 18.6024L7.71763 18.6024C7.74413 18.5138 7.75781 18.4219 7.75828 18.3298C7.75792 18.0517 7.64708 17.7845 7.45063 17.588C7.25424 17.3916 6.98754 17.2812 6.70834 17.2812ZM4.90495 16.5274C5.38381 16.0485 6.03298 15.7812 6.70834 15.7812C7.38389 15.7812 8.03256 16.0486 8.51129 16.5274C8.98962 17.0057 9.25828 17.6551 9.25828 18.3312V18.334H9.25828C9.25741 18.5686 9.22304 18.8018 9.15648 19.0264C9.00502 19.559 8.68429 20.0276 8.24296 20.3617C7.79966 20.6973 7.25887 20.8785 6.7035 20.8785C6.14795 20.8785 5.60763 20.6972 5.16449 20.3617C4.72159 20.0264 4.40015 19.5557 4.24936 19.0207L4.24895 19.0192C4.1857 18.7931 4.15545 18.5595 4.1584 18.3256C4.15986 17.652 4.4276 17.0047 4.90495 16.5274Z" fill="black"/>
<path fill-rule="evenodd" clip-rule="evenodd" d="M2.25 8.65625C2.25 8.24204 2.58579 7.90625 3 7.90625H3.81193C4.14389 7.90715 4.47002 7.99735 4.7556 8.16816C5.04025 8.33842 5.27463 8.58235 5.43296 8.87536L7.47549 12.6554C7.6724 13.0199 7.53661 13.4749 7.17219 13.6718C6.80777 13.8687 6.35273 13.7329 6.15582 13.3685L4.11331 9.58847C4.11331 9.58846 4.11332 9.58848 4.11331 9.58847C4.08389 9.53402 4.03992 9.48794 3.98563 9.45546C3.93246 9.42366 3.8713 9.40655 3.80858 9.40625H3C2.58579 9.40625 2.25 9.07046 2.25 8.65625Z" fill="black"/>
<path fill-rule="evenodd" clip-rule="evenodd" d="M2.25 18.332C2.25 17.9178 2.58579 17.582 3 17.582H4.67394C5.08815 17.582 5.42394 17.9178 5.42394 18.332C5.42394 18.7462 5.08815 19.082 4.67394 19.082H3C2.58579 19.082 2.25 18.7462 2.25 18.332Z" fill="black"/>
<path fill-rule="evenodd" clip-rule="evenodd" d="M2.25 13.0566C2.25 12.6424 2.58579 12.3066 3 12.3066H8.51673C9.24795 12.3066 9.94945 12.5973 10.4664 13.1143C10.9835 13.6313 11.2736 14.332 11.2736 15.0631V16.6205C11.2736 17.3513 10.9837 18.0529 10.4664 18.5702C9.94885 19.0878 9.24711 19.377 8.51673 19.377C8.10251 19.377 7.76673 19.0412 7.76673 18.627C7.76673 18.2128 8.10251 17.877 8.51673 17.877C8.85089 17.877 9.17063 17.7447 9.40579 17.5096C9.64124 17.2741 9.77365 16.9542 9.77365 16.6205V15.0631C9.77365 14.7297 9.64148 14.4106 9.40579 14.1749C9.17004 13.9392 8.85005 13.8066 8.51673 13.8066H3C2.58579 13.8066 2.25 13.4709 2.25 13.0566Z" fill="black"/>
<path fill-rule="evenodd" clip-rule="evenodd" d="M12.4292 3.12244C12.7286 3.15055 12.9823 3.35482 13.0736 3.64136L13.9309 6.33063L16.4807 5.92728C16.753 5.88421 17.027 5.99398 17.1942 6.21316C17.3614 6.43233 17.3949 6.72557 17.2814 6.9768L15.4725 10.9817C15.302 11.3592 14.8577 11.527 14.4802 11.3565C14.1027 11.1859 13.9349 10.7417 14.1054 10.3642L15.3422 7.62603L13.5292 7.91284C13.1633 7.97072 12.8099 7.75279 12.6974 7.39984L12.18 5.77667L11.4707 7.08789C11.3754 7.26417 11.2134 7.39496 11.021 7.45107C10.8286 7.50718 10.6218 7.48396 10.4466 7.38658L9.56588 6.89694L9.88523 7.75694C10.0242 8.13115 9.84569 8.54863 9.47915 8.70671L8.88128 8.96456L10.0346 9.69811C10.3841 9.92041 10.4873 10.3839 10.265 10.7335C10.0427 11.083 9.57913 11.1861 9.22962 10.9638L6.88071 9.46984C6.64628 9.32074 6.51348 9.05427 6.53559 8.77732C6.5577 8.50038 6.73108 8.25834 6.9862 8.14832L8.23111 7.61141L7.45307 5.5162C7.34377 5.22187 7.42937 4.89062 7.66758 4.68609C7.90578 4.48156 8.24617 4.44705 8.52058 4.5996L10.5123 5.7069L11.6994 3.51233C11.8425 3.2478 12.1297 3.09432 12.4292 3.12244Z" fill="black"/>
<path fill-rule="evenodd" clip-rule="evenodd" d="M11.9104 8.55732C12.3232 8.52291 12.6857 8.82964 12.7201 9.24242L12.8912 11.2944C12.9256 11.7071 12.6188 12.0697 12.2061 12.1041C11.7933 12.1385 11.4308 11.8318 11.3963 11.419L11.2253 9.36703C11.1909 8.95425 11.4976 8.59173 11.9104 8.55732Z" fill="black"/>
</svg>
