<svg width="24" height="24" viewBox="0 0 24 24" fill="none" xmlns="http://www.w3.org/2000/svg">
<path fill-rule="evenodd" clip-rule="evenodd" d="M6.66837 12.5405C5.0566 12.5405 3.75 13.8471 3.75 15.4588C3.75 17.0706 5.0566 18.3772 6.66837 18.3772C8.28014 18.3772 9.58675 17.0706 9.58675 15.4588C9.58675 13.8471 8.28014 12.5405 6.66837 12.5405ZM2.25 15.4588C2.25 13.0187 4.22817 11.0405 6.66837 11.0405C9.10857 11.0405 11.0867 13.0187 11.0867 15.4588C11.0867 17.899 9.10857 19.8772 6.66837 19.8772C4.22817 19.8772 2.25 17.899 2.25 15.4588Z" fill="black"/>
<path fill-rule="evenodd" clip-rule="evenodd" d="M17.3315 12.5405C15.7197 12.5405 14.4131 13.8471 14.4131 15.4588C14.4131 17.0706 15.7197 18.3772 17.3315 18.3772C18.9432 18.3772 20.2498 17.0706 20.2498 15.4588C20.2498 13.8471 18.9432 12.5405 17.3315 12.5405ZM12.9131 15.4588C12.9131 13.0187 14.8913 11.0405 17.3315 11.0405C19.7716 11.0405 21.7498 13.0187 21.7498 15.4588C21.7498 17.899 19.7716 19.8772 17.3315 19.8772C14.8913 19.8772 12.9131 17.899 12.9131 15.4588Z" fill="black"/>
<path fill-rule="evenodd" clip-rule="evenodd" d="M7.82039 9.98367C7.82039 9.56946 8.15618 9.23367 8.57039 9.23367H15.6888C16.103 9.23367 16.4388 9.56946 16.4388 9.98367C16.4388 10.3979 16.103 10.7337 15.6888 10.7337H9.30441C9.26832 11.5007 9.16233 12.2392 8.90051 12.9744C8.55137 13.9547 7.94558 14.8741 6.96253 15.8449C6.6678 16.1359 6.19293 16.1329 5.90189 15.8382C5.61085 15.5435 5.61383 15.0686 5.90856 14.7775C6.76819 13.9287 7.22982 13.1946 7.48744 12.4712C7.74813 11.7392 7.82039 10.9629 7.82039 9.98367Z" fill="black"/>
<path fill-rule="evenodd" clip-rule="evenodd" d="M17.4995 4.57913C17.6617 4.96027 17.4842 5.40073 17.1031 5.56291L15.4065 6.28488L18.0497 15.0957C18.1687 15.4924 17.9436 15.9106 17.5469 16.0296C17.1501 16.1486 16.732 15.9235 16.613 15.5267L13.7769 6.07306C13.6671 5.70708 13.85 5.31705 14.2016 5.16744L16.5158 4.18268C16.8969 4.02049 17.3374 4.19799 17.4995 4.57913Z" fill="black"/>
<path fill-rule="evenodd" clip-rule="evenodd" d="M4.82129 7.39378C4.82129 6.97957 5.15708 6.64378 5.57129 6.64378H8.31876C8.73297 6.64378 9.06876 6.97957 9.06876 7.39378C9.06876 7.808 8.73297 8.14378 8.31876 8.14378H5.57129C5.15708 8.14378 4.82129 7.808 4.82129 7.39378Z" fill="black"/>
<path fill-rule="evenodd" clip-rule="evenodd" d="M6.24142 6.78804C6.57597 6.5438 7.04517 6.61702 7.2894 6.95157L9.18013 9.54148C9.42437 9.87602 9.35115 10.3452 9.0166 10.5895C8.68205 10.8337 8.21286 10.7605 7.96862 10.4259L6.07789 7.83601C5.83366 7.50146 5.90687 7.03227 6.24142 6.78804Z" fill="black"/>
</svg>
