<svg width="24" height="24" viewBox="0 0 24 24" fill="none" xmlns="http://www.w3.org/2000/svg">
<path fill-rule="evenodd" clip-rule="evenodd" d="M6.66408 15.7751C6.34928 15.7751 6.04705 15.9003 5.82441 16.123C5.60244 16.3449 5.47734 16.646 5.47659 16.9598C5.47766 17.0668 5.4939 17.1735 5.52477 17.2761L5.52881 17.29C5.59793 17.5371 5.74621 17.7549 5.95144 17.9105C6.1539 18.0639 6.40119 18.1477 6.65614 18.1491C6.91577 18.1422 7.16624 18.0548 7.37338 17.8986C7.57779 17.7444 7.72938 17.532 7.80833 17.2895C7.83444 17.1798 7.84879 17.0681 7.85107 16.9567C7.84949 16.644 7.72448 16.3442 7.50325 16.123C7.28047 15.9002 6.97868 15.7751 6.66408 15.7751ZM8.60108 16.9626H9.35108C9.35108 16.25 9.06781 15.5662 8.56391 15.0623C8.06015 14.5586 7.37696 14.2751 6.66408 14.2751C5.95139 14.2751 5.26765 14.5584 4.76375 15.0623C4.25985 15.5662 3.97658 16.25 3.97658 16.9626H3.97656L3.97661 16.9683C3.97848 17.2166 4.01547 17.4635 4.08625 17.7012C4.24473 18.2617 4.58174 18.7544 5.04528 19.1058C5.51157 19.4593 6.08053 19.6496 6.66461 19.6492L6.6795 19.649C7.25661 19.6371 7.8152 19.4441 8.27645 19.0963C8.73723 18.7488 9.07721 18.2654 9.24755 17.7132C9.25145 17.7006 9.25502 17.6878 9.25824 17.675C9.31561 17.4468 9.34711 17.2117 9.35098 16.9749L8.60108 16.9626Z" fill="black"/>
<path fill-rule="evenodd" clip-rule="evenodd" d="M17.3941 15.7791C17.227 15.7791 17.0627 15.8123 16.9115 15.8759C16.7603 15.9394 16.6261 16.0317 16.5163 16.1455C16.4065 16.2594 16.3239 16.3921 16.2718 16.5346C16.2197 16.6775 16.1988 16.8283 16.2099 16.9776C16.2115 16.9991 16.2122 17.0206 16.212 17.0422C16.2108 17.1393 16.2241 17.2374 16.2518 17.333C16.3199 17.5611 16.4645 17.7668 16.6697 17.9162C16.8757 18.066 17.1297 18.1491 17.3941 18.1491C17.6587 18.1491 17.9133 18.0659 18.119 17.9162C18.3213 17.769 18.4646 17.5671 18.534 17.343C18.5603 17.2378 18.5745 17.1296 18.5764 17.0206C18.5766 17.0063 18.5773 16.9919 18.5783 16.9776C18.5895 16.8273 18.5688 16.6766 18.5169 16.5346C18.4649 16.3921 18.3822 16.2594 18.2724 16.1455C18.163 16.032 18.0285 15.9397 17.8767 15.8759C17.7256 15.8123 17.5612 15.7791 17.3941 15.7791ZM16.3303 14.4931C16.667 14.3515 17.0291 14.2791 17.3941 14.2791C17.7592 14.2791 18.1213 14.3515 18.458 14.4931C18.7942 14.6344 19.0992 14.8419 19.3524 15.1045C19.6051 15.3667 19.8011 15.6781 19.926 16.0202C20.0485 16.3559 20.0991 16.7123 20.0757 17.0673C20.0703 17.2915 20.0392 17.5152 19.9823 17.7335C19.9802 17.7416 19.978 17.7498 19.9756 17.7578C19.8118 18.3099 19.4678 18.7898 19.0016 19.129C18.5355 19.4682 17.971 19.6491 17.3941 19.6491C16.8171 19.6491 16.2531 19.4681 15.7871 19.129C15.321 18.7898 14.977 18.3099 14.8132 17.7578L14.8121 17.7541L14.8121 17.7541C14.7464 17.5282 14.7122 17.2935 14.7119 17.0569C14.6901 16.7045 14.7418 16.3518 14.8628 16.0202C14.9877 15.6781 15.1836 15.3667 15.4364 15.1045C15.6892 14.8423 15.9936 14.6346 16.3303 14.4931Z" fill="black"/>
<path fill-rule="evenodd" clip-rule="evenodd" d="M7.85156 16.9626C7.85156 16.5484 8.18735 16.2126 8.60156 16.2126H15.4612C15.8754 16.2126 16.2112 16.5484 16.2112 16.9626C16.2112 17.3769 15.8754 17.7126 15.4612 17.7126H8.60156C8.18735 17.7126 7.85156 17.3769 7.85156 16.9626Z" fill="black"/>
<path fill-rule="evenodd" clip-rule="evenodd" d="M4.15689 5.85083C3.78395 5.85083 3.4261 5.9991 3.16218 6.26301C2.89827 6.52693 2.75 6.88478 2.75 7.25772V14.8653C2.75 15.2383 2.89827 15.5961 3.16218 15.86C3.4261 16.1239 3.78395 16.2722 4.15689 16.2722H4.46648C4.88069 16.2722 5.21648 16.608 5.21648 17.0222C5.21648 17.4364 4.88069 17.7722 4.46648 17.7722H4.15689C3.38583 17.7722 2.64654 17.4657 2.10152 16.9207C1.55651 16.3757 1.25 15.6364 1.25 14.8653V7.25772C1.25 6.48666 1.55651 5.74737 2.10152 5.20235C2.64654 4.65734 3.38583 4.35083 4.15689 4.35083H17.1395C17.5623 4.35214 17.9794 4.45518 18.3547 4.65254C18.7289 4.84937 19.0497 5.13342 19.2905 5.48074C19.2909 5.48127 19.2912 5.48179 19.2916 5.48232L22.2915 9.78199C22.5941 10.2289 22.7538 10.7578 22.7499 11.297L22.7499 11.3022L22.6998 14.8693C22.7005 15.248 22.6272 15.6238 22.4832 15.9748C22.3386 16.3275 22.1257 16.6488 21.8563 16.9195C21.5872 17.1897 21.2673 17.4045 20.9148 17.551C20.5616 17.6978 20.1836 17.7722 19.8031 17.7722H19.4735C19.0593 17.7722 18.7235 17.4364 18.7235 17.0222C18.7235 16.608 19.0593 16.2722 19.4735 16.2722H19.8031C19.9881 16.2722 20.1703 16.236 20.3392 16.1658C20.5089 16.0953 20.6632 15.9918 20.7931 15.8613C20.9227 15.7311 21.0255 15.5762 21.0954 15.4056C21.1651 15.2358 21.2006 15.0531 21.1997 14.8688L21.1997 14.8548L21.25 11.2863C21.25 11.2855 21.25 11.2848 21.25 11.2841C21.2512 11.0501 21.182 10.8206 21.0519 10.6267L18.0598 6.33832L18.0582 6.33603C17.9548 6.1866 17.8171 6.06462 17.6564 5.98011C17.4964 5.89598 17.3178 5.85155 17.1359 5.85083H4.15689Z" fill="black"/>
<path fill-rule="evenodd" clip-rule="evenodd" d="M1.25 10.273C1.25 9.85883 1.58579 9.52304 2 9.52304L14.3438 9.52304C14.758 9.52304 15.0937 9.85883 15.0937 10.273C15.0937 10.6873 14.758 11.023 14.3437 11.023L2 11.023C1.58579 11.023 1.25 10.6873 1.25 10.273Z" fill="black"/>
<path fill-rule="evenodd" clip-rule="evenodd" d="M6.0752 4.35083C6.48941 4.35083 6.8252 4.68662 6.8252 5.10083L6.8252 10.273C6.8252 10.6873 6.48941 11.023 6.0752 11.023C5.66098 11.023 5.3252 10.6873 5.3252 10.273L5.3252 5.10083C5.3252 4.68662 5.66098 4.35083 6.0752 4.35083Z" fill="black"/>
<path fill-rule="evenodd" clip-rule="evenodd" d="M10.2686 4.35083C10.6828 4.35083 11.0186 4.68662 11.0186 5.10083L11.0186 10.273C11.0186 10.6873 10.6828 11.023 10.2686 11.023C9.85434 11.023 9.51855 10.6873 9.51855 10.273L9.51855 5.10083C9.51855 4.68662 9.85434 4.35083 10.2686 4.35083Z" fill="black"/>
<path fill-rule="evenodd" clip-rule="evenodd" d="M14.3438 4.41016C14.758 4.41016 15.0938 4.74594 15.0938 5.16016V11.7405C15.0938 11.8785 15.2057 11.9905 15.3438 11.9905H21.9707C22.3849 11.9905 22.7207 12.3263 22.7207 12.7405C22.7207 13.1547 22.3849 13.4905 21.9707 13.4905H15.3438C14.3773 13.4905 13.5938 12.707 13.5938 11.7405V5.16016C13.5938 4.74594 13.9295 4.41016 14.3438 4.41016Z" fill="black"/>
</svg>
