<svg width="24" height="24" viewBox="0 0 24 24" fill="none" xmlns="http://www.w3.org/2000/svg">
<path fill-rule="evenodd" clip-rule="evenodd" d="M14.8008 13.9275C14.8008 13.5133 15.1366 13.1775 15.5508 13.1775H17.341C17.7553 13.1775 18.091 13.5133 18.091 13.9275C18.091 14.3417 17.7553 14.6775 17.341 14.6775H15.5508C15.1366 14.6775 14.8008 14.3417 14.8008 13.9275Z" fill="black"/>
<path fill-rule="evenodd" clip-rule="evenodd" d="M5.9082 13.9276C5.9082 13.5134 6.24399 13.1776 6.6582 13.1776H8.4582C8.87242 13.1776 9.2082 13.5134 9.2082 13.9276C9.2082 14.3418 8.87242 14.6776 8.4582 14.6776H6.6582C6.24399 14.6776 5.9082 14.3418 5.9082 13.9276Z" fill="black"/>
<path fill-rule="evenodd" clip-rule="evenodd" d="M2.25735 9.6298C2.31484 9.21959 2.69398 8.93366 3.10418 8.99115C9.00595 9.81823 14.9942 9.81823 20.896 8.99115C21.3062 8.93366 21.6853 9.21959 21.7428 9.6298C21.8003 10.04 21.5144 10.4191 21.1042 10.4766C15.0643 11.3231 8.93589 11.3231 2.896 10.4766C2.4858 10.4191 2.19986 10.04 2.25735 9.6298Z" fill="black"/>
<path fill-rule="evenodd" clip-rule="evenodd" d="M7.80281 4.29016C10.587 3.8512 13.4226 3.8512 16.2068 4.29016L16.2096 4.29061C17.2637 4.46099 18.1716 5.2205 18.5259 6.22741C18.5263 6.2285 18.5267 6.2296 18.5271 6.23069L19.5739 9.13822C19.5739 9.13829 19.5739 9.13816 19.5739 9.13822C19.6048 9.22356 19.6469 9.30484 19.6995 9.38035L20.8628 10.9414C21.4361 11.7238 21.7454 12.6686 21.7462 13.6384V19.2852C21.7462 19.6994 21.4104 20.0352 20.9962 20.0352C20.5819 20.0352 20.2462 19.6994 20.2462 19.2852V13.6395C20.2457 12.989 20.0384 12.3553 19.6545 11.8303C19.6539 11.8296 19.6534 11.8288 19.6528 11.8281L18.4906 10.2684L18.48 10.2538C18.3481 10.0675 18.2414 9.86437 18.1633 9.64844L18.1629 9.64739L17.1115 6.7269C16.9399 6.23755 16.4831 5.8548 15.9716 5.7716C13.3439 5.35748 10.6676 5.35738 8.03994 5.7713C7.53126 5.85713 7.07833 6.2391 6.90799 6.72632L6.9057 6.73286L5.85235 9.65853C5.77311 9.86818 5.6651 10.0656 5.5316 10.2455L4.34938 11.8732C4.34931 11.8733 4.34945 11.8731 4.34938 11.8732C3.97378 12.3917 3.7719 13.0162 3.77314 13.6565L3.77315 13.6601L3.75683 19.2842C3.75563 19.6984 3.41887 20.0332 3.00466 20.032C2.59045 20.0308 2.25564 19.6941 2.25684 19.2799L2.27314 13.6594C2.27314 13.6588 2.27314 13.6581 2.27314 13.6575C2.27169 12.7007 2.57328 11.7679 3.13473 10.9931L4.32595 9.35296C4.37632 9.2854 4.41717 9.21142 4.44734 9.13289L5.49327 6.22775C5.84553 5.22444 6.74717 4.46589 7.79644 4.29119L7.80281 4.29016Z" fill="black"/>
<path fill-rule="evenodd" clip-rule="evenodd" d="M6.23828 18.457C6.23828 17.4905 7.02178 16.707 7.98828 16.707H16.0014C16.9679 16.707 17.7514 17.4905 17.7514 18.457V19.2855C17.7514 19.6997 17.4156 20.0355 17.0014 20.0355C16.5872 20.0355 16.2514 19.6997 16.2514 19.2855V18.457C16.2514 18.319 16.1394 18.207 16.0014 18.207H7.98828C7.85021 18.207 7.73828 18.319 7.73828 18.457V19.2855C7.73828 19.6997 7.40249 20.0355 6.98828 20.0355C6.57407 20.0355 6.23828 19.6997 6.23828 19.2855V18.457Z" fill="black"/>
</svg>
