<svg width="24" height="24" viewBox="0 0 24 24" fill="none" xmlns="http://www.w3.org/2000/svg">
<path fill-rule="evenodd" clip-rule="evenodd" d="M8.82899 4.20438C8.22315 3.59854 7.24088 3.59854 6.63504 4.20438C6.0292 4.81022 6.0292 5.79248 6.63504 6.39832C7.24088 7.00416 8.22315 7.00416 8.82899 6.39832C8.89721 6.33009 8.95473 6.26207 9.00274 6.19392C9.14329 5.99442 9.37211 5.87577 9.61616 5.87586L12.4195 5.87692L13.0302 5.26625L12.5097 4.74575L12.4618 4.74748C12.4349 4.7484 12.4018 4.74932 12.3668 4.74933L12.3615 4.74933L9.6106 4.72997C9.36853 4.72827 9.14216 4.60983 9.00274 4.41193C8.95035 4.33756 8.89177 4.26717 8.82899 4.20438ZM12.6157 4.74462C12.6157 4.74463 12.6151 4.74459 12.6139 4.74445ZM5.57438 3.14372C6.76601 1.95209 8.69802 1.95209 9.88965 3.14372C9.9188 3.17287 9.94718 3.20249 9.97479 3.23249L12.369 3.24932C12.3866 3.24928 12.4024 3.24868 12.4289 3.24768C12.4436 3.24713 12.4616 3.24645 12.4849 3.24568C12.5393 3.24387 12.6195 3.24186 12.7059 3.24726C12.8572 3.25672 13.1807 3.29539 13.4419 3.55662L14.3926 4.50735C14.8118 4.92648 14.8118 5.60601 14.3926 6.02514L13.3551 7.06264C13.1539 7.26388 12.881 7.37695 12.5964 7.37699L9.96981 7.37599C9.94352 7.40418 9.91679 7.43184 9.88965 7.45898C8.69802 8.65061 6.76601 8.65061 5.57438 7.45898C4.38276 6.26736 4.38276 4.33535 5.57438 3.14372Z" fill="black"/>
<path fill-rule="evenodd" clip-rule="evenodd" d="M6.90234 5.31501C6.90244 4.90079 7.23831 4.56509 7.65252 4.56519L7.66347 4.56519C8.07768 4.56529 8.41339 4.90115 8.41329 5.31537C8.41319 5.72958 8.07732 6.06529 7.66311 6.06519L7.65216 6.06519C7.23795 6.06509 6.90224 5.72922 6.90234 5.31501Z" fill="black"/>
<path fill-rule="evenodd" clip-rule="evenodd" d="M15.6099 6.70509C15.6099 7.11931 15.9456 7.45509 16.3599 7.45509H18.4225C18.8368 7.45509 19.1725 7.11931 19.1725 6.70509C19.1725 6.29088 18.8368 5.95509 18.4225 5.95509H16.3599C15.9456 5.95509 15.6099 6.29088 15.6099 6.70509Z" fill="black"/>
<path fill-rule="evenodd" clip-rule="evenodd" d="M15.2642 3.7762C15.2642 4.19041 15.5999 4.5262 16.0142 4.5262H17.3911C17.8053 4.5262 18.1411 4.19041 18.1411 3.7762C18.1411 3.36199 17.8053 3.0262 17.3911 3.0262H16.0142C15.5999 3.0262 15.2642 3.36199 15.2642 3.7762Z" fill="black"/>
<path fill-rule="evenodd" clip-rule="evenodd" d="M13.8828 16.7048C13.8828 16.2906 14.221 15.9548 14.6383 15.9548H15.9789C16.3961 15.9548 16.7344 16.2906 16.7344 16.7048C16.7344 17.119 16.3961 17.4548 15.9789 17.4548H14.6383C14.221 17.4548 13.8828 17.119 13.8828 16.7048Z" fill="black"/>
<path fill-rule="evenodd" clip-rule="evenodd" d="M7.25879 16.7048C7.25879 16.2906 7.59703 15.9548 8.01426 15.9548H9.35487C9.7721 15.9548 10.1103 16.2906 10.1103 16.7048C10.1103 17.119 9.7721 17.4548 9.35487 17.4548H8.01426C7.59703 17.4548 7.25879 17.119 7.25879 16.7048Z" fill="black"/>
<path fill-rule="evenodd" clip-rule="evenodd" d="M4.54176 13.498C4.60033 13.0878 4.9827 12.8025 5.3958 12.8607C9.7719 13.4767 14.2136 13.4767 18.5897 12.8607C19.0028 12.8025 19.3852 13.0878 19.4438 13.498C19.5024 13.9081 19.215 14.2877 18.8019 14.3458C14.2851 14.9816 9.70049 14.9816 5.18369 14.3458C4.77059 14.2877 4.48318 13.9081 4.54176 13.498Z" fill="black"/>
<path fill-rule="evenodd" clip-rule="evenodd" d="M8.83887 9.38874C10.9358 9.06052 13.0715 9.06052 15.1684 9.38874L15.1713 9.38919C16.0283 9.52671 16.7642 10.1378 17.0525 10.9503L17.8338 13.1048C17.8338 13.1048 17.8338 13.1047 17.8338 13.1048C17.8506 13.1509 17.8736 13.1952 17.9023 13.2366L18.769 14.3912C19.2212 15.0039 19.4652 15.7437 19.4658 16.5032L19.4658 20.3747C19.4658 21.1979 18.7936 21.8652 17.9644 21.8652H16.4764C15.6472 21.8652 14.975 21.1979 14.975 20.3747V20.0808H9.01722V20.3747C9.01722 21.1979 8.34503 21.8652 7.51585 21.8652H6.03799C5.20697 21.8652 4.53403 21.1951 4.53663 20.3701L4.54879 16.5193C4.54879 16.5186 4.54879 16.5179 4.54879 16.5172C4.54775 15.7678 4.78576 15.0372 5.22874 14.4303L6.11884 13.2136C6.14533 13.1784 6.16687 13.1398 6.18288 13.099L6.96201 10.9506C7.24862 10.141 7.97949 9.53076 8.83246 9.38977L8.83887 9.38874ZM9.0779 10.8699C8.76935 10.9219 8.4904 11.1557 8.38703 11.4492L8.38472 11.4557L7.59797 13.6251C7.53257 13.7969 7.44345 13.9587 7.33336 14.1061L6.45225 15.3104C6.45217 15.3105 6.45234 15.3103 6.45225 15.3104C6.19647 15.661 6.05889 16.0834 6.05973 16.5163L6.05974 16.5202L6.0476 20.3652H7.50628V20.0713C7.50628 19.2481 8.17846 18.5808 9.00765 18.5808H14.9846C15.8138 18.5808 16.486 19.2481 16.486 20.0713V20.3652H17.9548V16.5043C17.9545 16.0641 17.8133 15.6353 17.5518 15.28L16.6842 14.1242L16.6735 14.1095C16.5651 13.9575 16.4773 13.7915 16.4129 13.615L15.6277 11.4498C15.5236 11.1548 15.242 10.9205 14.9315 10.8702C12.9922 10.5668 11.0172 10.5667 9.0779 10.8699Z" fill="black"/>
</svg>
