<svg width="24" height="24" viewBox="0 0 24 24" fill="none" xmlns="http://www.w3.org/2000/svg">
<path fill-rule="evenodd" clip-rule="evenodd" d="M17.1076 14.1696C15.4285 14.1696 14.0674 15.5307 14.0674 17.2098C14.0674 18.8888 15.4285 20.25 17.1076 20.25C18.7867 20.25 20.1478 18.8888 20.1478 17.2098C20.1478 15.5307 18.7867 14.1696 17.1076 14.1696ZM17.1076 12.6696C14.6001 12.6696 12.5674 14.7023 12.5674 17.2098C12.5674 19.7173 14.6001 21.75 17.1076 21.75C19.6151 21.75 21.6478 19.7173 21.6478 17.2098C21.6478 14.7023 19.6151 12.6696 17.1076 12.6696Z" fill="black"/>
<path fill-rule="evenodd" clip-rule="evenodd" d="M17.1074 15.1816C17.5216 15.1816 17.8574 15.5174 17.8574 15.9316V16.459H18.3848C18.799 16.459 19.1348 16.7948 19.1348 17.209C19.1348 17.6232 18.799 17.959 18.3848 17.959H17.8574V18.4863C17.8574 18.9005 17.5216 19.2363 17.1074 19.2363C16.6932 19.2363 16.3574 18.9005 16.3574 18.4863V17.959H15.8301C15.4159 17.959 15.0801 17.6232 15.0801 17.209C15.0801 16.7948 15.4159 16.459 15.8301 16.459H16.3574V15.9316C16.3574 15.5174 16.6932 15.1816 17.1074 15.1816Z" fill="black"/>
<path fill-rule="evenodd" clip-rule="evenodd" d="M13.3208 11.048C13.3208 10.6338 13.6566 10.298 14.0708 10.298H15.6432C16.0574 10.298 16.3932 10.6338 16.3932 11.048C16.3932 11.4622 16.0574 11.798 15.6432 11.798H14.0708C13.6566 11.798 13.3208 11.4622 13.3208 11.048Z" fill="black"/>
<path fill-rule="evenodd" clip-rule="evenodd" d="M5.55127 11.048C5.55127 10.6338 5.88706 10.298 6.30127 10.298H7.87366C8.28787 10.298 8.62366 10.6338 8.62366 11.048C8.62366 11.4622 8.28787 11.798 7.87366 11.798H6.30127C5.88706 11.798 5.55127 11.4622 5.55127 11.048Z" fill="black"/>
<path fill-rule="evenodd" clip-rule="evenodd" d="M2.36348 7.27927C2.42163 6.86915 2.80123 6.58383 3.21134 6.64198C8.35671 7.37154 13.5793 7.37154 18.7247 6.64198C19.1348 6.58383 19.5144 6.86915 19.5725 7.27927C19.6307 7.68938 19.3453 8.06898 18.9352 8.12713C13.6502 8.87649 8.28582 8.87649 3.00076 8.12713C2.59065 8.06898 2.30533 7.68938 2.36348 7.27927Z" fill="black"/>
<path fill-rule="evenodd" clip-rule="evenodd" d="M7.28959 2.53917C9.73503 2.15361 12.2257 2.15361 14.6711 2.53917L14.674 2.53962C15.63 2.69415 16.4524 3.38207 16.7739 4.29522L17.6905 6.84134C17.6906 6.84154 17.6904 6.84114 17.6905 6.84134C17.7145 6.9076 17.7474 6.9713 17.7884 7.03023L18.8056 8.39534C19.3189 9.09587 19.5959 9.94185 19.5966 10.8102C19.5969 11.2244 19.2613 11.5605 18.8471 11.5608C18.4329 11.5611 18.0969 11.2256 18.0966 10.8113C18.0961 10.2623 17.9213 9.72738 17.5973 9.28427L16.5793 7.91809L16.5687 7.90344C16.4485 7.73372 16.3512 7.54848 16.28 7.35156L16.2796 7.3505L15.3594 4.79474C15.2208 4.39912 14.8494 4.08794 14.4359 4.02061C12.1469 3.6599 9.81574 3.6598 7.52679 4.0203C7.1157 4.08986 6.74765 4.40035 6.60997 4.79415L6.60768 4.80069L5.68564 7.36164C5.6133 7.55303 5.51471 7.7333 5.39288 7.8975L4.35894 9.32105C4.35887 9.32115 4.35901 9.32095 4.35894 9.32105C4.042 9.75859 3.87162 10.2856 3.87267 10.8259L3.87268 10.8297L3.8584 15.3838C3.85818 15.4529 3.91415 15.509 3.98326 15.509H5.71663C5.78559 15.509 5.84149 15.4531 5.84149 15.3842V15.0256C5.84149 14.1283 6.56896 13.4008 7.46635 13.4008H11.7737C12.1879 13.4008 12.5237 13.7366 12.5237 14.1508C12.5237 14.565 12.1879 14.9008 11.7737 14.9008H7.46635C7.39739 14.9008 7.34149 14.9567 7.34149 15.0256V15.3842C7.34149 16.2816 6.61401 17.009 5.71663 17.009H3.98326C3.08389 17.009 2.35559 16.2785 2.35841 15.3791L2.37267 10.8288C2.37267 10.8282 2.37267 10.8275 2.37267 10.8268C2.37143 9.97004 2.64153 9.13478 3.14429 8.44092L4.1872 7.00502C4.22595 6.95305 4.25741 6.89618 4.28069 6.83583L5.19526 4.29555C5.51486 3.38569 6.3316 2.69864 7.28322 2.5402L7.28959 2.53917Z" fill="black"/>
</svg>
