<svg width="24" height="24" viewBox="0 0 24 24" fill="none" xmlns="http://www.w3.org/2000/svg">
<path fill-rule="evenodd" clip-rule="evenodd" d="M17.4272 15.2511C16.8501 15.2511 16.2965 15.4804 15.8884 15.8885C15.0385 16.7384 15.0385 18.1163 15.8884 18.9662C16.7383 19.8161 18.1162 19.8161 18.9661 18.9662C19.816 18.1163 19.816 16.7384 18.9661 15.8885C18.558 15.4804 18.0044 15.2511 17.4272 15.2511ZM20.0268 14.8279C19.3373 14.1384 18.4023 13.7511 17.4272 13.7511C16.4522 13.7511 15.5171 14.1384 14.8277 14.8279C13.3921 16.2636 13.3921 18.5912 14.8277 20.0269C16.2634 21.4626 18.5911 21.4626 20.0268 20.0269C21.4624 18.5912 21.4624 16.2636 20.0268 14.8279Z" fill="black"/>
<path fill-rule="evenodd" clip-rule="evenodd" d="M18.9872 18.9874C19.2801 18.6945 19.755 18.6945 20.0479 18.9874L21.534 20.4735C21.8269 20.7664 21.8269 21.2412 21.534 21.5341C21.2411 21.827 20.7662 21.827 20.4733 21.5341L18.9872 20.048C18.6944 19.7551 18.6944 19.2803 18.9872 18.9874Z" fill="black"/>
<path fill-rule="evenodd" clip-rule="evenodd" d="M14.0454 11.4975C14.0454 11.0833 14.3812 10.7475 14.7954 10.7475H16.4557C16.8699 10.7475 17.2057 11.0833 17.2057 11.4975C17.2057 11.9117 16.8699 12.2475 16.4557 12.2475H14.7954C14.3812 12.2475 14.0454 11.9117 14.0454 11.4975Z" fill="black"/>
<path fill-rule="evenodd" clip-rule="evenodd" d="M5.84033 11.4975C5.84033 11.0833 6.17612 10.7475 6.59033 10.7475H8.25058C8.66479 10.7475 9.00058 11.0833 9.00058 11.4975C9.00058 11.9117 8.66479 12.2475 8.25058 12.2475H6.59033C6.17612 12.2475 5.84033 11.9117 5.84033 11.4975Z" fill="black"/>
<path fill-rule="evenodd" clip-rule="evenodd" d="M2.47334 7.5242C2.53149 7.11409 2.91109 6.82877 3.3212 6.88692C8.75895 7.65793 14.2783 7.65793 19.716 6.88692C20.1261 6.82877 20.5057 7.11409 20.5639 7.5242C20.622 7.93431 20.3367 8.31391 19.9266 8.37206C14.3492 9.16288 8.68806 9.16288 3.11063 8.37206C2.70051 8.31391 2.41519 7.93431 2.47334 7.5242Z" fill="black"/>
<path fill-rule="evenodd" clip-rule="evenodd" d="M7.64041 2.55239C10.2186 2.14591 12.8445 2.14591 15.4227 2.55239L15.4255 2.55285C16.42 2.71359 17.2759 3.42963 17.6103 4.37958L18.5783 7.06852C18.5784 7.06872 18.5783 7.06831 18.5783 7.06852C18.6051 7.14219 18.6416 7.21289 18.6871 7.27827L19.7615 8.72019C20.2984 9.4528 20.5881 10.3375 20.5887 11.2456C20.589 11.6599 20.2535 11.9959 19.8393 11.9962C19.4251 11.9965 19.089 11.661 19.0887 11.2468C19.0883 10.6579 18.9007 10.0843 18.5533 9.60914L17.4781 8.16621L17.4675 8.15157C17.3427 7.97538 17.2417 7.78311 17.1678 7.57874L17.1674 7.57768L16.1958 4.87897C16.0442 4.44663 15.6394 4.10741 15.1875 4.03384C12.7658 3.65219 10.2993 3.65209 7.87758 4.03353C7.42824 4.10947 7.02693 4.44797 6.87644 4.87839L6.87416 4.88493L5.90065 7.58882C5.82561 7.78737 5.72333 7.97437 5.59692 8.14471L4.50486 9.64828C4.50479 9.64838 4.50494 9.64818 4.50486 9.64828C4.16493 10.1175 3.98221 10.6828 3.98333 11.2623L3.98334 11.2661L3.96826 16.0754C3.96796 16.1717 4.04591 16.2499 4.14217 16.2499H5.97271C6.06876 16.2499 6.14662 16.172 6.14662 16.076V15.6974C6.14662 14.7729 6.89605 14.0234 7.82053 14.0234H12.3693C12.7835 14.0234 13.1193 14.3592 13.1193 14.7734C13.1193 15.1877 12.7835 15.5234 12.3693 15.5234H7.82053C7.72448 15.5234 7.64662 15.6013 7.64662 15.6974V16.076C7.64662 17.0005 6.89719 17.7499 5.97271 17.7499H4.14217C3.21565 17.7499 2.46537 16.9973 2.46827 16.0707L2.48333 11.2652C2.48333 11.2645 2.48333 11.2639 2.48333 11.2632C2.48202 10.3672 2.76446 9.49374 3.29021 8.76815L4.39125 7.25221C4.43455 7.19414 4.46969 7.13056 4.49567 7.06309L5.46173 4.3798C5.79413 3.43331 6.64415 2.71824 7.63404 2.55343L7.64041 2.55239Z" fill="black"/>
</svg>
