<svg width="24" height="24" viewBox="0 0 24 24" fill="none" xmlns="http://www.w3.org/2000/svg">
<path fill-rule="evenodd" clip-rule="evenodd" d="M14.1834 14.3657C14.5861 13.9337 15.1482 13.708 15.7712 13.708H18.2804C18.9042 13.708 19.4667 13.9333 19.8696 14.366C20.2668 14.7926 20.4533 15.3603 20.4533 15.9533V18.3174C20.4533 18.9104 20.2668 19.4781 19.8695 19.9047C19.4666 20.3374 18.904 20.5627 18.2801 20.5627H15.7712C15.1474 20.5627 14.5849 20.3373 14.1821 19.9046C13.7849 19.478 13.5986 18.9103 13.5986 18.3174V15.9533C13.5986 15.3595 13.7861 14.7919 14.1834 14.3657ZM15.2807 15.3885C15.1852 15.4909 15.0986 15.6709 15.0986 15.9533V18.3174C15.0986 18.6007 15.1851 18.7806 15.28 18.8826C15.3693 18.9784 15.518 19.0627 15.7712 19.0627H18.2801C18.5335 19.0627 18.6825 18.9784 18.7718 18.8825C18.8668 18.7805 18.9533 18.6006 18.9533 18.3174V15.9533C18.9533 15.6701 18.8668 15.4902 18.7718 15.3882C18.6825 15.2922 18.5336 15.208 18.2804 15.208H15.7712C15.5198 15.208 15.3706 15.2919 15.2807 15.3885Z" fill="black"/>
<path fill-rule="evenodd" clip-rule="evenodd" d="M18.2485 12.5166C18.6627 12.5166 18.9985 12.8524 18.9985 13.2666L18.9985 14.4531C18.9985 14.8673 18.6627 15.2031 18.2485 15.2031C17.8343 15.2031 17.4985 14.8673 17.4985 14.4531L17.4985 13.2666C17.4985 12.8524 17.8343 12.5166 18.2485 12.5166Z" fill="black"/>
<path fill-rule="evenodd" clip-rule="evenodd" d="M15.814 12.5166C16.2282 12.5166 16.564 12.8524 16.564 13.2666L16.564 14.4531C16.564 14.8673 16.2282 15.2031 15.814 15.2031C15.3998 15.2031 15.064 14.8673 15.064 14.4531L15.064 13.2666C15.064 12.8524 15.3998 12.5166 15.814 12.5166Z" fill="black"/>
<path fill-rule="evenodd" clip-rule="evenodd" d="M18.2485 19.0635C18.6627 19.0635 18.9985 19.3993 18.9985 19.8135L18.9985 20.9999C18.9985 21.4142 18.6627 21.7499 18.2485 21.7499C17.8343 21.7499 17.4985 21.4142 17.4985 20.9999L17.4985 19.8135C17.4985 19.3993 17.8343 19.0635 18.2485 19.0635Z" fill="black"/>
<path fill-rule="evenodd" clip-rule="evenodd" d="M15.814 19.0635C16.2282 19.0635 16.564 19.3993 16.564 19.8135L16.564 20.9999C16.564 21.4142 16.2282 21.7499 15.814 21.7499C15.3998 21.7499 15.064 21.4142 15.064 20.9999L15.064 19.8135C15.064 19.3993 15.3998 19.0635 15.814 19.0635Z" fill="black"/>
<path fill-rule="evenodd" clip-rule="evenodd" d="M21.6479 18.3506C21.6479 18.7648 21.3122 19.1006 20.8979 19.1006L19.7115 19.1006C19.2973 19.1006 18.9615 18.7648 18.9615 18.3506C18.9615 17.9364 19.2973 17.6006 19.7115 17.6006L20.8979 17.6006C21.3122 17.6006 21.6479 17.9364 21.6479 18.3506Z" fill="black"/>
<path fill-rule="evenodd" clip-rule="evenodd" d="M21.6479 15.915C21.6479 16.3293 21.3122 16.665 20.8979 16.665L19.7115 16.665C19.2973 16.665 18.9615 16.3293 18.9615 15.915C18.9615 15.5008 19.2973 15.165 19.7115 15.165L20.8979 15.165C21.3122 15.165 21.6479 15.5008 21.6479 15.915Z" fill="black"/>
<path fill-rule="evenodd" clip-rule="evenodd" d="M15.1011 18.3506C15.1011 18.7648 14.7653 19.1006 14.3511 19.1006L13.1646 19.1006C12.7504 19.1006 12.4146 18.7648 12.4146 18.3506C12.4146 17.9364 12.7504 17.6006 13.1646 17.6006L14.3511 17.6006C14.7653 17.6006 15.1011 17.9364 15.1011 18.3506Z" fill="black"/>
<path fill-rule="evenodd" clip-rule="evenodd" d="M15.1011 15.915C15.1011 16.3293 14.7653 16.665 14.3511 16.665L13.1646 16.665C12.7504 16.665 12.4146 16.3293 12.4146 15.915C12.4146 15.5008 12.7504 15.165 13.1646 15.165L14.3511 15.165C14.7653 15.165 15.1011 15.5008 15.1011 15.915Z" fill="black"/>
<path fill-rule="evenodd" clip-rule="evenodd" d="M13.3208 11.0488C13.3208 10.6346 13.6566 10.2988 14.0708 10.2988H15.6432C16.0574 10.2988 16.3932 10.6346 16.3932 11.0488C16.3932 11.463 16.0574 11.7988 15.6432 11.7988H14.0708C13.6566 11.7988 13.3208 11.463 13.3208 11.0488Z" fill="black"/>
<path fill-rule="evenodd" clip-rule="evenodd" d="M5.55127 11.0488C5.55127 10.6346 5.88706 10.2988 6.30127 10.2988H7.87366C8.28787 10.2988 8.62366 10.6346 8.62366 11.0488C8.62366 11.463 8.28787 11.7988 7.87366 11.7988H6.30127C5.88706 11.7988 5.55127 11.463 5.55127 11.0488Z" fill="black"/>
<path fill-rule="evenodd" clip-rule="evenodd" d="M2.36348 7.27948C2.42163 6.86937 2.80123 6.58405 3.21134 6.6422C8.35671 7.37176 13.5793 7.37176 18.7247 6.6422C19.1348 6.58405 19.5144 6.86937 19.5725 7.27948C19.6307 7.68959 19.3453 8.06919 18.9352 8.12734C13.6502 8.87671 8.28582 8.87671 3.00076 8.12734C2.59065 8.06919 2.30533 7.68959 2.36348 7.27948Z" fill="black"/>
<path fill-rule="evenodd" clip-rule="evenodd" d="M7.28959 2.53917C9.73503 2.15361 12.2257 2.15361 14.6711 2.53917L14.674 2.53962C15.63 2.69415 16.4524 3.38207 16.7739 4.29522L17.6905 6.84134C17.6906 6.84154 17.6904 6.84114 17.6905 6.84134C17.7145 6.9076 17.7474 6.9713 17.7884 7.03023L18.8056 8.39534C19.3189 9.09587 19.5959 9.94185 19.5966 10.8102C19.5969 11.2244 19.2613 11.5605 18.8471 11.5608C18.4329 11.5611 18.0969 11.2256 18.0966 10.8113C18.0961 10.2623 17.9213 9.72738 17.5973 9.28427L16.5793 7.91809L16.5687 7.90344C16.4485 7.73372 16.3512 7.54848 16.28 7.35156L16.2796 7.3505L15.3594 4.79474C15.2208 4.39912 14.8494 4.08794 14.4359 4.02061C12.1469 3.6599 9.81574 3.6598 7.52679 4.0203C7.1157 4.08986 6.74765 4.40035 6.60997 4.79415L6.60768 4.80069L5.68564 7.36164C5.6133 7.55303 5.51471 7.7333 5.39288 7.8975L4.35894 9.32105C4.35887 9.32115 4.35901 9.32095 4.35894 9.32105C4.042 9.75859 3.87162 10.2856 3.87267 10.8259L3.87268 10.8297L3.8584 15.3838C3.85818 15.4529 3.91415 15.509 3.98326 15.509H5.71663C5.78559 15.509 5.84149 15.4531 5.84149 15.3842V15.0256C5.84149 14.1283 6.56896 13.4008 7.46635 13.4008H11.7737C12.1879 13.4008 12.5237 13.7366 12.5237 14.1508C12.5237 14.565 12.1879 14.9008 11.7737 14.9008H7.46635C7.39739 14.9008 7.34149 14.9567 7.34149 15.0256V15.3842C7.34149 16.2816 6.61401 17.009 5.71663 17.009H3.98326C3.08389 17.009 2.35559 16.2785 2.35841 15.3791L2.37267 10.8288C2.37267 10.8282 2.37267 10.8275 2.37267 10.8268C2.37143 9.97004 2.64153 9.13478 3.14429 8.44092L4.1872 7.00502C4.22595 6.95305 4.25741 6.89618 4.28069 6.83583L5.19526 4.29555C5.51486 3.38569 6.3316 2.69864 7.28322 2.5402L7.28959 2.53917Z" fill="black"/>
</svg>
