<svg width="24" height="24" viewBox="0 0 24 24" fill="none" xmlns="http://www.w3.org/2000/svg">
<path fill-rule="evenodd" clip-rule="evenodd" d="M13.3208 11.0488C13.3208 10.6346 13.6566 10.2988 14.0708 10.2988H15.6432C16.0574 10.2988 16.3932 10.6346 16.3932 11.0488C16.3932 11.463 16.0574 11.7988 15.6432 11.7988H14.0708C13.6566 11.7988 13.3208 11.463 13.3208 11.0488Z" fill="black"/>
<path fill-rule="evenodd" clip-rule="evenodd" d="M5.55127 11.0488C5.55127 10.6346 5.88706 10.2988 6.30127 10.2988H7.87366C8.28787 10.2988 8.62366 10.6346 8.62366 11.0488C8.62366 11.463 8.28787 11.7988 7.87366 11.7988H6.30127C5.88706 11.7988 5.55127 11.463 5.55127 11.0488Z" fill="black"/>
<path fill-rule="evenodd" clip-rule="evenodd" d="M2.36348 7.27948C2.42163 6.86937 2.80123 6.58405 3.21134 6.6422C8.35671 7.37176 13.5793 7.37176 18.7247 6.6422C19.1348 6.58405 19.5144 6.86937 19.5725 7.27948C19.6307 7.68959 19.3453 8.06919 18.9352 8.12734C13.6502 8.87671 8.28582 8.87671 3.00076 8.12734C2.59065 8.06919 2.30533 7.68959 2.36348 7.27948Z" fill="black"/>
<path fill-rule="evenodd" clip-rule="evenodd" d="M7.28959 2.53917C9.73503 2.15361 12.2257 2.15361 14.6711 2.53917L14.674 2.53962C15.63 2.69415 16.4524 3.38207 16.7739 4.29522L17.6905 6.84134C17.6906 6.84154 17.6904 6.84114 17.6905 6.84134C17.7145 6.9076 17.7474 6.9713 17.7884 7.03023L18.8056 8.39534C19.3189 9.09587 19.5959 9.94185 19.5966 10.8102C19.5969 11.2244 19.2613 11.5605 18.8471 11.5608C18.4329 11.5611 18.0969 11.2256 18.0966 10.8113C18.0961 10.2623 17.9213 9.72738 17.5973 9.28427L16.5793 7.91809L16.5687 7.90344C16.4485 7.73372 16.3512 7.54848 16.28 7.35156L16.2796 7.3505L15.3594 4.79474C15.2208 4.39912 14.8494 4.08794 14.4359 4.02061C12.1469 3.6599 9.81574 3.6598 7.52679 4.0203C7.1157 4.08986 6.74765 4.40035 6.60997 4.79415L6.60768 4.80069L5.68564 7.36164C5.6133 7.55303 5.51471 7.7333 5.39288 7.8975L4.35894 9.32105C4.35887 9.32115 4.35901 9.32095 4.35894 9.32105C4.042 9.75859 3.87162 10.2856 3.87267 10.8259L3.87268 10.8297L3.8584 15.3838C3.85818 15.4529 3.91415 15.509 3.98326 15.509H5.71663C5.78559 15.509 5.84149 15.4531 5.84149 15.3842V15.0256C5.84149 14.1283 6.56896 13.4008 7.46635 13.4008H11.7737C12.1879 13.4008 12.5237 13.7366 12.5237 14.1508C12.5237 14.565 12.1879 14.9008 11.7737 14.9008H7.46635C7.39739 14.9008 7.34149 14.9567 7.34149 15.0256V15.3842C7.34149 16.2816 6.61401 17.009 5.71663 17.009H3.98326C3.08389 17.009 2.35559 16.2785 2.35841 15.3791L2.37267 10.8288C2.37267 10.8282 2.37267 10.8275 2.37267 10.8268C2.37143 9.97004 2.64153 9.13478 3.14429 8.44092L4.1872 7.00502C4.22595 6.95305 4.25741 6.89618 4.28069 6.83583L5.19526 4.29555C5.51486 3.38569 6.3316 2.69864 7.28322 2.5402L7.28959 2.53917Z" fill="black"/>
<path d="M17.5602 21.7612C17.4402 21.7612 17.3102 21.7413 17.1902 21.7013C16.7002 21.5413 16.3702 21.0912 16.3702 20.5712V18.8013H14.7402C14.2902 18.8013 13.8902 18.5513 13.6902 18.1513C13.4902 17.7513 13.5202 17.2813 13.7902 16.9213L16.7002 12.9112C17.0002 12.4912 17.5302 12.3213 18.0202 12.4813C18.5102 12.6413 18.8402 13.0912 18.8402 13.6012V15.3712H20.4702C20.9202 15.3712 21.3202 15.6213 21.5202 16.0213C21.7202 16.4213 21.6902 16.8912 21.4202 17.2512L18.5102 21.2612C18.2802 21.5712 17.9302 21.7512 17.5502 21.7512L17.5602 21.7612ZM15.3702 17.3112H17.1302C17.5402 17.3112 17.8802 17.6512 17.8802 18.0612V19.6012L19.8502 16.8812H18.0902C17.6802 16.8812 17.3402 16.5412 17.3402 16.1312V14.5912L15.3702 17.3112Z" fill="black"/>
</svg>
