<svg width="24" height="24" viewBox="0 0 24 24" fill="none" xmlns="http://www.w3.org/2000/svg">
<path fill-rule="evenodd" clip-rule="evenodd" d="M10.5957 6.26367C10.5957 5.84946 10.9315 5.51367 11.3457 5.51367H15.0259C15.0342 5.51367 15.0425 5.51381 15.0507 5.51408C15.4023 5.52575 15.744 5.62874 16.0428 5.811C16.3424 5.99375 16.5895 6.25083 16.7603 6.55726L16.7658 6.56726L16.7657 6.5673L19.0863 10.8843C19.2824 11.2492 19.1456 11.7039 18.7808 11.9C18.416 12.0962 17.9612 11.9594 17.7651 11.5945L15.4478 7.28362C15.403 7.20479 15.339 7.13874 15.2616 7.09155C15.185 7.04482 15.0986 7.01822 15.0107 7.01367H11.3457C10.9315 7.01367 10.5957 6.67789 10.5957 6.26367Z" fill="black"/>
<path fill-rule="evenodd" clip-rule="evenodd" d="M8.54688 17.3262C8.54688 16.912 8.88266 16.5762 9.29688 16.5762H15.2328C15.647 16.5762 15.9828 16.912 15.9828 17.3262C15.9828 17.7404 15.647 18.0762 15.2328 18.0762H9.29688C8.88266 18.0762 8.54688 17.7404 8.54688 17.3262Z" fill="black"/>
<path fill-rule="evenodd" clip-rule="evenodd" d="M1.45703 11.293C1.45703 10.8788 1.79282 10.543 2.20703 10.543H19.7018C20.5105 10.543 21.2859 10.8645 21.8576 11.4361C22.4293 12.0079 22.7505 12.783 22.7505 13.5917V15.3613C22.7505 16.1695 22.4296 16.9459 21.8576 17.5179C21.2859 18.0895 20.5105 18.411 19.7018 18.411H19.4103C18.9961 18.411 18.6603 18.0752 18.6603 17.661C18.6603 17.2468 18.9961 16.911 19.4103 16.911H19.7018C20.1124 16.911 20.5063 16.7478 20.7969 16.4572C21.0871 16.167 21.2505 15.7724 21.2505 15.3613V13.5917C21.2505 13.1809 21.0874 12.7873 20.7969 12.4968C20.5063 12.2062 20.1124 12.043 19.7018 12.043H2.20703C1.79282 12.043 1.45703 11.7072 1.45703 11.293Z" fill="black"/>
<path fill-rule="evenodd" clip-rule="evenodd" d="M4.29869 5.36328C3.88808 5.36328 3.49412 5.52652 3.20355 5.81709C2.91333 6.10732 2.75 6.50192 2.75 6.91303V15.3626C2.75 15.7738 2.91333 16.1684 3.20355 16.4586C3.49412 16.7492 3.88808 16.9124 4.29869 16.9124H5.11894C5.53315 16.9124 5.86894 17.2482 5.86894 17.6624C5.86894 18.0766 5.53315 18.4124 5.11894 18.4124H4.29869C3.48994 18.4124 2.71454 18.0909 2.14289 17.5192C1.57089 16.9472 1.25 16.1709 1.25 15.3626V6.91303C1.25 6.10477 1.57089 5.32844 2.14289 4.75643C2.71454 4.18478 3.48994 3.86328 4.29869 3.86328H10.7742L10.79 3.86345C11.1147 3.87028 11.4237 4.00259 11.6526 4.23156C11.882 4.46094 12.0137 4.76982 12.0205 5.09391L12.0207 5.1097V11.2301C12.0207 11.6443 11.6849 11.9801 11.2707 11.9801C10.8564 11.9801 10.5207 11.6443 10.5207 11.2301V5.36328H4.29869Z" fill="black"/>
<path fill-rule="evenodd" clip-rule="evenodd" d="M10.8457 13.7969C10.8457 13.3827 11.1815 13.0469 11.5957 13.0469H12.7289C13.1431 13.0469 13.4789 13.3827 13.4789 13.7969C13.4789 14.2111 13.1431 14.5469 12.7289 14.5469H11.5957C11.1815 14.5469 10.8457 14.2111 10.8457 13.7969Z" fill="black"/>
<path fill-rule="evenodd" clip-rule="evenodd" d="M7.23521 16.0156C6.51096 16.0156 5.92383 16.6028 5.92383 17.327C5.92383 18.0513 6.51095 18.6384 7.23521 18.6384C7.95948 18.6384 8.5466 18.0513 8.5466 17.327C8.5466 16.6028 7.95947 16.0156 7.23521 16.0156ZM4.42383 17.327C4.42383 15.7743 5.68253 14.5156 7.23521 14.5156C8.7879 14.5156 10.0466 15.7743 10.0466 17.327C10.0466 18.8797 8.78789 20.1384 7.23521 20.1384C5.68253 20.1384 4.42383 18.8797 4.42383 17.327Z" fill="black"/>
<path fill-rule="evenodd" clip-rule="evenodd" d="M17.2958 16.0156C16.5715 16.0156 15.9844 16.6028 15.9844 17.327C15.9844 18.0513 16.5715 18.6384 17.2958 18.6384C18.02 18.6384 18.6071 18.0513 18.6071 17.327C18.6071 16.6028 18.02 16.0156 17.2958 16.0156ZM14.4844 17.327C14.4844 15.7743 15.7431 14.5156 17.2958 14.5156C18.8484 14.5156 20.1071 15.7743 20.1071 17.327C20.1071 18.8797 18.8484 20.1384 17.2958 20.1384C15.7431 20.1384 14.4844 18.8797 14.4844 17.327Z" fill="black"/>
</svg>
