<svg width="24" height="24" viewBox="0 0 24 24" fill="none" xmlns="http://www.w3.org/2000/svg">
<path fill-rule="evenodd" clip-rule="evenodd" d="M4.60401 3.45549C5.32847 2.67799 6.3552 2.25 7.54952 2.25H13.3377C14.5345 2.25 15.5618 2.67767 16.2861 3.45572C17.0049 4.22772 17.3696 5.28388 17.3696 6.44919V20.25H17.8816C18.2959 20.25 18.6316 20.5858 18.6316 21C18.6316 21.4142 18.2959 21.75 17.8816 21.75H3.00684C2.59262 21.75 2.25684 21.4142 2.25684 21C2.25684 20.5858 2.59262 20.25 3.00684 20.25H3.51866V6.44919C3.51866 5.28312 3.88504 4.2271 4.60401 3.45549ZM5.01866 20.25H15.8696V6.44919C15.8696 5.59363 15.6048 4.9252 15.1883 4.47782C14.7774 4.03649 14.1638 3.75 13.3377 3.75H7.54952C6.72688 3.75 6.11318 4.03617 5.70144 4.47805C5.28423 4.92582 5.01866 5.59439 5.01866 6.44919V20.25Z" fill="black"/>
<path fill-rule="evenodd" clip-rule="evenodd" d="M6.82318 6.36463C7.222 5.937 7.77841 5.71387 8.39425 5.71387H12.4944C13.1111 5.71387 13.668 5.93664 14.0669 6.36504C14.4602 6.7874 14.6445 7.34909 14.6445 7.935V10.2624C14.6445 10.8483 14.4602 11.41 14.0669 11.8323C13.668 12.2607 13.1111 12.4835 12.4944 12.4835H8.39425C7.77751 12.4835 7.22064 12.2607 6.8217 11.8323C6.42838 11.41 6.24414 10.8483 6.24414 10.2624V7.935C6.24414 7.34802 6.42974 6.78647 6.82318 6.36463ZM7.92013 7.3877C7.82854 7.48591 7.74414 7.65993 7.74414 7.935V10.2624C7.74414 10.5385 7.82845 10.7124 7.91942 10.8101C8.00478 10.9017 8.14796 10.9835 8.39425 10.9835H12.4944C12.7406 10.9835 12.8838 10.9017 12.9692 10.8101C13.0602 10.7124 13.1445 10.5385 13.1445 10.2624V7.935C13.1445 7.65886 13.0602 7.48498 12.9692 7.38729C12.8838 7.29563 12.7406 7.21387 12.4944 7.21387H8.39425C8.14998 7.21387 8.00633 7.29528 7.92013 7.3877Z" fill="black"/>
<path fill-rule="evenodd" clip-rule="evenodd" d="M11.2881 8.49403C11.6798 8.62893 11.8879 9.05578 11.753 9.44741L10.8812 11.9781C10.7463 12.3697 10.3194 12.5778 9.9278 12.4429C9.53618 12.308 9.32807 11.8812 9.46297 11.4896L10.3348 8.95886C10.4697 8.56723 10.8965 8.35912 11.2881 8.49403Z" fill="black"/>
<path fill-rule="evenodd" clip-rule="evenodd" d="M18.6147 6.11127C18.9075 5.81838 19.3824 5.81838 19.6753 6.11127L21.524 7.95992C21.6646 8.10057 21.7436 8.29134 21.7436 8.49025V16.022C21.7436 17.0589 20.9039 17.8987 19.8669 17.8987C18.8314 17.8987 17.9902 17.0594 17.9902 16.022V14.5898C17.9902 14.3823 17.821 14.2131 17.6135 14.2131H16.6211C16.2069 14.2131 15.8711 13.8773 15.8711 13.4631C15.8711 13.0489 16.2069 12.7131 16.6211 12.7131H17.6135C18.6495 12.7131 19.4902 13.5539 19.4902 14.5898V16.022C19.4902 16.2301 19.659 16.3987 19.8669 16.3987C20.0754 16.3987 20.2436 16.2305 20.2436 16.022V8.80091L18.6147 7.17193C18.3218 6.87904 18.3218 6.40416 18.6147 6.11127Z" fill="black"/>
<path fill-rule="evenodd" clip-rule="evenodd" d="M10.5318 14.0442C10.8957 14.2421 11.0303 14.6975 10.8324 15.0614L10.5584 15.5653H11.4686C11.7331 15.5653 11.9782 15.7048 12.1133 15.9322C12.2485 16.1597 12.2538 16.4416 12.1273 16.674L11.2506 18.2842C11.0526 18.648 10.5971 18.7824 10.2333 18.5843C9.8695 18.3863 9.73514 17.9308 9.93319 17.567L10.2063 17.0653H9.29688C9.03235 17.0653 8.78738 16.926 8.6522 16.6986C8.51702 16.4712 8.51162 16.1895 8.63798 15.9571L9.51463 14.3449C9.7125 13.981 10.1679 13.8464 10.5318 14.0442Z" fill="black"/>
</svg>
