<svg width="24" height="24" viewBox="0 0 24 24" fill="none" xmlns="http://www.w3.org/2000/svg">
<path fill-rule="evenodd" clip-rule="evenodd" d="M4.6039 3.45549C5.32836 2.67799 6.35509 2.25 7.54942 2.25H13.3376C14.5344 2.25 15.5617 2.67767 16.286 3.45572C17.0048 4.22772 17.3695 5.28388 17.3695 6.44919V21C17.3695 21.4142 17.0337 21.75 16.6195 21.75C16.2053 21.75 15.8695 21.4142 15.8695 21V6.44919C15.8695 5.59363 15.6047 4.9252 15.1882 4.47782C14.7773 4.03649 14.1637 3.75 13.3376 3.75H7.54942C6.72678 3.75 6.11307 4.03617 5.70134 4.47805C5.28412 4.92582 5.01855 5.59439 5.01855 6.44919V21C5.01855 21.4142 4.68277 21.75 4.26855 21.75C3.85434 21.75 3.51855 21.4142 3.51855 21V6.44919C3.51855 5.28312 3.88493 4.2271 4.6039 3.45549Z" fill="black"/>
<path fill-rule="evenodd" clip-rule="evenodd" d="M2.25781 21C2.25781 20.5858 2.5936 20.25 3.00781 20.25H17.8826C18.2968 20.25 18.6326 20.5858 18.6326 21C18.6326 21.4142 18.2968 21.75 17.8826 21.75H3.00781C2.5936 21.75 2.25781 21.4142 2.25781 21Z" fill="black"/>
<path fill-rule="evenodd" clip-rule="evenodd" d="M6.82318 6.36463C7.222 5.937 7.77841 5.71387 8.39425 5.71387H12.4944C13.1111 5.71387 13.668 5.93664 14.0669 6.36504C14.4602 6.7874 14.6445 7.34909 14.6445 7.935V10.2624C14.6445 10.8483 14.4602 11.41 14.0669 11.8323C13.668 12.2607 13.1111 12.4835 12.4944 12.4835H8.39425C7.77751 12.4835 7.22064 12.2607 6.8217 11.8323C6.42838 11.41 6.24414 10.8483 6.24414 10.2624V7.935C6.24414 7.34802 6.42974 6.78647 6.82318 6.36463ZM7.92013 7.3877C7.82854 7.48591 7.74414 7.65993 7.74414 7.935V10.2624C7.74414 10.5385 7.82845 10.7124 7.91942 10.8101C8.00478 10.9017 8.14796 10.9835 8.39425 10.9835H12.4944C12.7406 10.9835 12.8838 10.9017 12.9692 10.8101C13.0602 10.7124 13.1445 10.5385 13.1445 10.2624V7.935C13.1445 7.65886 13.0602 7.48498 12.9692 7.38729C12.8838 7.29563 12.7406 7.21387 12.4944 7.21387H8.39425C8.14998 7.21387 8.00633 7.29528 7.92013 7.3877Z" fill="black"/>
<path fill-rule="evenodd" clip-rule="evenodd" d="M11.2881 8.49403C11.6798 8.62893 11.8879 9.05578 11.753 9.44741L10.8812 11.9781C10.7463 12.3697 10.3194 12.5778 9.9278 12.4429C9.53618 12.308 9.32807 11.8812 9.46297 11.4896L10.3348 8.95886C10.4697 8.56723 10.8965 8.35912 11.2881 8.49403Z" fill="black"/>
<path fill-rule="evenodd" clip-rule="evenodd" d="M18.6147 6.11127C18.9075 5.81838 19.3824 5.81838 19.6753 6.11127L21.524 7.95992C21.6646 8.10057 21.7436 8.29134 21.7436 8.49025V16.022C21.7436 17.0589 20.9039 17.8987 19.8669 17.8987C18.8314 17.8987 17.9902 17.0594 17.9902 16.022V14.5898C17.9902 14.3823 17.821 14.2131 17.6135 14.2131H16.6211C16.2069 14.2131 15.8711 13.8773 15.8711 13.4631C15.8711 13.0489 16.2069 12.7131 16.6211 12.7131H17.6135C18.6495 12.7131 19.4902 13.5539 19.4902 14.5898V16.022C19.4902 16.2301 19.659 16.3987 19.8669 16.3987C20.0754 16.3987 20.2436 16.2305 20.2436 16.022V8.80091L18.6147 7.17193C18.3218 6.87904 18.3218 6.40416 18.6147 6.11127Z" fill="black"/>
<path fill-rule="evenodd" clip-rule="evenodd" d="M11.0158 14.131L10.6084 14.7607L10.201 14.131C10.4489 13.9706 10.7679 13.9706 11.0158 14.131ZM10.6084 15.7035C10.8263 15.89 11.0723 16.1325 11.2623 16.4018C11.364 16.5705 11.3808 16.839 11.2538 17.0893C11.1366 17.3206 10.9235 17.4823 10.6084 17.4823C10.2933 17.4823 10.0802 17.3206 9.96294 17.0893C9.83601 16.839 9.8528 16.5705 9.95451 16.4018C10.1445 16.1325 10.3904 15.89 10.6084 15.7035ZM10.201 14.131C10.2011 14.131 10.201 14.131 10.6084 14.7607C11.0158 14.131 11.0157 14.131 11.0158 14.131L11.0168 14.1317L11.0182 14.1326L11.0217 14.1349L11.032 14.1417L11.0653 14.1641C11.0929 14.1829 11.1309 14.2094 11.1773 14.243C11.2699 14.3101 11.3971 14.4065 11.5416 14.5281C11.8256 14.7671 12.1993 15.122 12.5035 15.5593C12.5091 15.5674 12.5145 15.5755 12.5198 15.5837C12.9554 16.2652 12.9236 17.1132 12.5917 17.7677C12.2475 18.4464 11.5494 18.9823 10.6084 18.9823C9.66739 18.9823 8.96927 18.4464 8.62511 17.7677C8.29322 17.1132 8.2614 16.2652 8.69699 15.5837C8.70226 15.5755 8.70769 15.5674 8.71327 15.5593C9.01752 15.122 9.39116 14.7671 9.67519 14.5281C9.81968 14.4065 9.9469 14.3101 10.0395 14.243C10.0859 14.2094 10.1239 14.1829 10.1515 14.1641L10.1848 14.1417L10.1951 14.1349L10.1986 14.1326L10.1999 14.1317L10.201 14.131Z" fill="black"/>
</svg>
