<svg width="24" height="24" viewBox="0 0 24 24" fill="none" xmlns="http://www.w3.org/2000/svg">
<path fill-rule="evenodd" clip-rule="evenodd" d="M6.94141 16.3105C6.94141 15.8963 7.27719 15.5605 7.69141 15.5605H11.0714C11.4856 15.5605 11.8214 15.8963 11.8214 16.3105C11.8214 16.7248 11.4856 17.0605 11.0714 17.0605H7.69141C7.27719 17.0605 6.94141 16.7248 6.94141 16.3105Z" fill="black"/>
<path fill-rule="evenodd" clip-rule="evenodd" d="M7.91797 11.0801C7.91797 10.6659 8.25376 10.3301 8.66797 10.3301H14.0079C14.4221 10.3301 14.7579 10.6659 14.7579 11.0801C14.7579 11.4943 14.4221 11.8301 14.0079 11.8301H8.66797C8.25376 11.8301 7.91797 11.4943 7.91797 11.0801Z" fill="black"/>
<path fill-rule="evenodd" clip-rule="evenodd" d="M6.92089 5.0293H9.82127C10.2081 5.02936 10.5886 5.12405 10.9302 5.30505C11.2717 5.48596 11.5642 5.74778 11.7816 6.06796C11.7857 6.07398 11.7897 6.08005 11.7936 6.08619L14.3837 10.1505C14.6669 10.5535 14.8133 11.0371 14.8012 11.5296V14.6494C14.8012 15.0636 14.4654 15.3994 14.0512 15.3994C13.637 15.3994 13.3012 15.0636 13.3012 14.6494V11.5195C13.3012 11.5149 13.3013 11.5102 13.3014 11.5056C13.3014 11.5028 13.3015 11.4999 13.3016 11.4971C13.3068 11.3216 13.2542 11.1491 13.1518 11.0066C13.1438 10.9954 13.1361 10.984 13.1287 10.9724L10.5354 6.90295C10.4564 6.78919 10.3509 6.69565 10.2279 6.63049C10.1024 6.564 9.96308 6.52934 9.82127 6.5293C9.82123 6.5293 9.82131 6.5293 9.82127 6.5293H7.03125V14.4296C7.03125 14.8439 6.69546 15.1796 6.28125 15.1796C5.86704 15.1796 5.53125 14.8439 5.53125 14.4296V6.42977C5.53125 6.42974 5.53125 6.4298 5.53125 6.42977C5.53123 6.06305 5.67487 5.70995 5.93335 5.44743C6.19027 5.18649 6.5404 5.03506 6.90936 5.02939L6.92089 5.0293Z" fill="black"/>
<path fill-rule="evenodd" clip-rule="evenodd" d="M3.7202 11.6895C3.46305 11.6895 3.21622 11.7917 3.03423 11.9737C2.85209 12.1558 2.75 12.4022 2.75 12.6592V15.5791H3.86034C4.27455 15.5791 4.61034 15.9149 4.61034 16.3291C4.61034 16.7433 4.27455 17.0791 3.86034 17.0791H2C1.58579 17.0791 1.25 16.7433 1.25 16.3291V12.6592C1.25 12.0038 1.5106 11.376 1.97357 10.913C2.43671 10.4499 3.06502 10.1895 3.7202 10.1895H6.28025C6.69446 10.1895 7.03025 10.5252 7.03025 10.9395C7.03025 11.3537 6.69446 11.6895 6.28025 11.6895H3.7202Z" fill="black"/>
<path fill-rule="evenodd" clip-rule="evenodd" d="M15.7404 11.5098C15.7404 11.0956 16.0761 10.7598 16.4904 10.7598H18.4903C18.7519 10.7598 18.9946 10.896 19.1307 11.1194L21.8314 15.5498H22.0001C22.4143 15.5498 22.7501 15.8856 22.7501 16.2998C22.7501 16.714 22.4143 17.0498 22.0001 17.0498H21.4237C21.4152 17.0499 21.4067 17.0499 21.3982 17.0498H18.5239C18.1499 17.0533 17.7805 16.9796 17.438 16.8365C17.0941 16.6928 16.7825 16.4809 16.5224 16.2122C16.0146 15.6921 15.7336 14.9923 15.7404 14.2658V11.5098ZM17.0602 15.6894L17.5995 15.1682C17.7172 15.2901 17.8589 15.3867 18.0163 15.4525C18.1745 15.5186 18.3433 15.5517 18.5119 15.5498L18.5201 15.5497L20.0747 15.5498L18.0692 12.2598H17.2404V14.2776C17.2368 14.6091 17.3648 14.9282 17.5964 15.165L17.0602 15.6894Z" fill="black"/>
<path fill-rule="evenodd" clip-rule="evenodd" d="M13.5474 11.5444C13.7936 11.2113 14.2632 11.141 14.5963 11.3872L16.9363 13.1172C17.2693 13.3634 17.3397 13.8331 17.0935 14.1661C16.8472 14.4992 16.3776 14.5696 16.0445 14.3234L13.7046 12.5934C13.3715 12.3471 13.3011 11.8775 13.5474 11.5444Z" fill="black"/>
<path fill-rule="evenodd" clip-rule="evenodd" d="M5.78112 15.1504C5.14045 15.1504 4.62109 15.6698 4.62109 16.3104C4.62109 16.951 5.14046 17.4704 5.78112 17.4704C6.42178 17.4704 6.94114 16.951 6.94114 16.3104C6.94114 15.6698 6.42178 15.1504 5.78112 15.1504ZM3.12109 16.3104C3.12109 14.8413 4.31206 13.6504 5.78112 13.6504C7.25017 13.6504 8.44114 14.8413 8.44114 16.3104C8.44114 17.7795 7.25017 18.9704 5.78112 18.9704C4.31206 18.9704 3.12109 17.7795 3.12109 16.3104Z" fill="black"/>
<path fill-rule="evenodd" clip-rule="evenodd" d="M13.0389 15.1504C12.3983 15.1504 11.8789 15.6698 11.8789 16.3104C11.8789 16.951 12.3983 17.4704 13.0389 17.4704C13.6796 17.4704 14.199 16.951 14.199 16.3104C14.199 15.6698 13.6796 15.1504 13.0389 15.1504ZM10.3789 16.3104C10.3789 14.8413 11.5699 13.6504 13.0389 13.6504C14.508 13.6504 15.699 14.8413 15.699 16.3104C15.699 17.7795 14.508 18.9704 13.0389 18.9704C11.5699 18.9704 10.3789 17.7795 10.3789 16.3104Z" fill="black"/>
</svg>
