<svg width="24" height="24" viewBox="0 0 24 24" fill="none" xmlns="http://www.w3.org/2000/svg">
<path d="M14.7098 19.1376H14.0898C13.6798 19.1376 13.3398 18.7976 13.3398 18.3876C13.3398 17.9776 13.6798 17.6376 14.0898 17.6376H14.7098C15.3798 17.6376 15.9297 17.0875 15.9297 16.4175V11.7076C15.9297 9.94758 14.4998 8.51758 12.7298 8.51758H11.2398C9.47981 8.51758 8.0498 9.94758 8.0498 11.7076V16.4175C8.0498 17.0875 8.59978 17.6376 9.26978 17.6376H9.88977C10.2998 17.6376 10.6398 17.9776 10.6398 18.3876C10.6398 18.7976 10.2998 19.1376 9.88977 19.1376H9.26978C7.76978 19.1376 6.5498 17.9175 6.5498 16.4175V11.7076C6.5498 9.11758 8.65981 7.01758 11.2398 7.01758H12.7298C15.3198 7.01758 17.4297 9.12758 17.4297 11.7076V16.4175C17.4297 17.9175 16.2098 19.1376 14.7098 19.1376Z" fill="black"/>
<path d="M12.0002 21.7466C10.4502 21.7466 9.2002 20.4867 9.2002 18.9467V15.1066C9.2002 13.5566 10.4602 12.3066 12.0002 12.3066C13.5402 12.3066 14.8002 13.5666 14.8002 15.1066V18.9467C14.8002 20.4967 13.5402 21.7466 12.0002 21.7466ZM12.0002 13.7966C11.2802 13.7966 10.7002 14.3766 10.7002 15.0966V18.9366C10.7002 19.6566 11.2802 20.2366 12.0002 20.2366C12.7202 20.2366 13.3002 19.6566 13.3002 18.9366V15.0966C13.3002 14.3766 12.7202 13.7966 12.0002 13.7966Z" fill="black"/>
<path d="M14.74 5.94629C14.51 5.94629 14.28 5.8463 14.14 5.6463C13.89 5.3163 13.96 4.84625 14.29 4.59625L15.84 3.44629C16.31 3.09629 16.88 2.90625 17.47 2.90625H19.25C19.66 2.90625 20 3.24625 20 3.65625C20 4.06625 19.66 4.40625 19.25 4.40625H17.47C17.2 4.40625 16.95 4.4863 16.74 4.6463L15.19 5.79626C15.06 5.89626 14.9 5.94629 14.74 5.94629Z" fill="black"/>
<path d="M9.26001 5.94629C9.10001 5.94629 8.95 5.89626 8.81 5.79626L7.26001 4.6463C7.05001 4.4863 6.79003 4.40625 6.53003 4.40625H4.75C4.34 4.40625 4 4.06625 4 3.65625C4 3.24625 4.34 2.90625 4.75 2.90625H6.53003C7.12003 2.90625 7.68003 3.09629 8.16003 3.44629L9.71002 4.60626C10.04 4.85626 10.11 5.32625 9.86005 5.65625C9.71005 5.85625 9.49001 5.9563 9.26001 5.9563V5.94629Z" fill="black"/>
<path d="M12.0101 8.50774C11.0001 8.50774 10.0001 8.29772 9.31012 7.86772C8.62012 7.43772 8.27013 6.81771 8.32013 6.10771C8.42013 4.63771 9.11014 3.4177 10.2001 2.7777C11.3701 2.0877 12.5901 2.07774 13.7501 2.75774C14.8801 3.42774 15.6202 4.72771 15.6702 6.16771C15.7002 6.88771 15.3101 7.50772 14.5801 7.92772C13.9101 8.31772 12.9501 8.50774 12.0001 8.50774H12.0101ZM12.0001 3.74773C11.6601 3.74773 11.3202 3.84773 10.9702 4.05773C10.0302 4.60773 9.86013 5.74775 9.82013 6.20775C9.82013 6.25775 9.81017 6.39769 10.1102 6.58769C10.9802 7.12769 12.9302 7.14772 13.8402 6.61772C14.1802 6.41772 14.1801 6.25775 14.1801 6.20775C14.1501 5.27775 13.6901 4.44771 13.0001 4.03771C12.6601 3.83771 12.3401 3.73772 12.0101 3.73772L12.0001 3.74773Z" fill="black"/>
</svg>
