<svg width="24" height="24" viewBox="0 0 24 24" fill="none" xmlns="http://www.w3.org/2000/svg">
<path fill-rule="evenodd" clip-rule="evenodd" d="M16.2721 6.61236C16.0103 5.7688 15.2097 5.19871 14.3173 5.2426L13.1566 5.30557C12.743 5.32802 12.4259 5.6815 12.4484 6.09511C12.4708 6.50871 12.8243 6.82581 13.2379 6.80337L14.3924 6.74072C14.5926 6.73153 14.777 6.85964 14.8387 7.05447L15.1588 8.12026C14.5216 7.94818 13.7132 7.85438 12.7398 7.97373L12.738 7.97395C11.7303 8.09991 10.5355 8.64636 9.65725 9.10798C9.20369 9.34639 8.80702 9.57724 8.5237 9.74845C8.48505 9.7718 8.44846 9.79408 8.41407 9.81514L8.13947 9.49935C7.75454 9.0574 7.20694 8.81104 6.63191 8.81104H3.95954C3.64003 8.81104 3.32549 8.87578 3.04777 9.0455C2.76507 9.21826 2.58182 9.46233 2.46707 9.71556C2.26034 10.1718 2.25 10.7296 2.25 11.1483V11.2918C2.25 11.9414 2.65882 12.4949 3.23341 12.7091C2.72547 13.3461 2.42188 14.1532 2.42188 15.0312C2.42188 17.0897 4.09063 18.7585 6.14914 18.7585C7.9507 18.7585 9.45374 17.4803 9.80089 15.7814H11.3868C12.4063 15.7814 13.3472 15.2818 13.9173 14.4395L13.9183 14.4381L14.8507 13.0721C14.4983 13.6413 14.2949 14.3125 14.2949 15.0312C14.2949 17.0897 15.9637 18.7585 18.0222 18.7585C20.0807 18.7585 21.7495 17.0897 21.7495 15.0312C21.7495 12.9727 20.0807 11.304 18.0222 11.304C17.9088 11.304 17.7965 11.309 17.6857 11.3189L16.2741 6.61892L16.2721 6.61236ZM15.1901 9.70953C15.2278 9.72478 15.264 9.74015 15.2986 9.75552L15.2912 9.76634L14.2415 11.304H9.70877L9.41314 10.9641C9.66583 10.8136 9.99156 10.6269 10.3552 10.4357C11.2253 9.97834 12.2092 9.55196 12.9232 9.46247C13.9573 9.33585 14.7103 9.51579 15.1901 9.70953ZM6.17582 11.304L6.14914 11.304L6.12247 11.304H3.76225C3.75499 11.304 3.75 11.2991 3.75 11.2918V11.1483C3.75 10.9357 3.75516 10.7604 3.77167 10.6131C3.78845 10.4634 3.81344 10.3786 3.83335 10.3347C3.83548 10.33 3.83735 10.3261 3.83893 10.3231C3.85665 10.3182 3.89389 10.311 3.95954 10.311H6.63191C6.77423 10.311 6.90851 10.37 7.00783 10.4839L7.72098 11.304H6.17582ZM6.16976 12.804C7.39035 12.8151 8.37641 13.808 8.37641 15.0312C8.37641 16.2613 7.37923 17.2585 6.14914 17.2585C4.91906 17.2585 3.92188 16.2613 3.92188 15.0312C3.92188 13.808 4.90793 12.8151 6.12852 12.804H6.16976ZM9.13811 12.804H13.2175L12.6775 13.5952L12.6756 13.598C12.3847 14.0282 11.9092 14.2814 11.3868 14.2814H9.80096C9.6896 13.7362 9.4592 13.2343 9.13811 12.804ZM15.0387 12.7968L16.0975 11.2457L16.2495 11.7517C15.7741 12.0092 15.361 12.367 15.0387 12.7968ZM18.0222 12.804C16.7921 12.804 15.7949 13.8011 15.7949 15.0312C15.7949 16.2613 16.7921 17.2585 18.0222 17.2585C19.2523 17.2585 20.2495 16.2613 20.2495 15.0312C20.2495 13.8011 19.2523 12.804 18.0222 12.804Z" fill="black"/>
<path d="M18.6326 7.26602C18.529 6.86497 18.12 6.6238 17.7189 6.72737C17.3178 6.83094 17.0767 7.24002 17.1803 7.64108L17.6017 9.2732C17.7053 9.67425 18.1144 9.91541 18.5154 9.81184C18.9165 9.70827 19.1577 9.29919 19.0541 8.89814L18.6326 7.26602Z" fill="black"/>
</svg>
