<svg width="24" height="24" viewBox="0 0 24 24" fill="none" xmlns="http://www.w3.org/2000/svg">
<path fill-rule="evenodd" clip-rule="evenodd" d="M15.0487 4.67188C15.4112 4.67096 15.7671 4.76909 16.0778 4.95552C16.3866 5.1408 16.6405 5.40633 16.8109 5.72664L19.1394 10.0246C19.3367 10.3888 19.2014 10.844 18.8373 11.0413C18.4731 11.2386 18.0179 11.1033 17.8205 10.7391L15.487 6.43188C15.4458 6.35412 15.3838 6.28844 15.306 6.24176C15.2294 6.19576 15.1415 6.17159 15.0522 6.17188L15.0498 6.17189L12.4697 6.17188C12.4615 6.17188 12.4551 6.17346 12.4506 6.17534C12.4467 6.17695 12.441 6.18026 12.4346 6.18659C12.4288 6.19245 12.4257 6.19757 12.4239 6.20206C12.4213 6.2083 12.4199 6.21531 12.4199 6.22169V10.3916C12.4199 10.8058 12.0841 11.1416 11.6699 11.1416C11.2557 11.1416 10.9199 10.8058 10.9199 10.3916V6.22169C10.9199 6.01794 10.9602 5.81591 11.038 5.62803C11.1166 5.4384 11.2313 5.26864 11.374 5.12593C11.5162 4.98368 11.6863 4.86832 11.8766 4.78952C12.0662 4.71098 12.2679 4.67188 12.4697 4.67188H15.0487Z" fill="black"/>
<path fill-rule="evenodd" clip-rule="evenodd" d="M1.25 10.4609C1.25 10.0467 1.58579 9.71094 2 9.71094H19.723C20.5266 9.71445 21.2965 10.0356 21.864 10.6056C22.4312 11.1753 22.75 11.9469 22.75 12.751V14.5205C22.75 15.3246 22.4312 16.0962 21.864 16.6659C21.2965 17.2359 20.5266 17.557 19.723 17.5605L19.7197 17.5605H19.3696C18.9554 17.5605 18.6196 17.2248 18.6196 16.8105C18.6196 16.3963 18.9554 16.0605 19.3696 16.0605H19.7179C20.125 16.0584 20.5143 15.8956 20.801 15.6076C21.0884 15.3189 21.25 14.9277 21.25 14.5205V12.751C21.25 12.3438 21.0884 11.9526 20.801 11.6639C20.5143 11.3759 20.125 11.2131 19.7179 11.2109H2.75V14.5187C2.75216 14.9271 2.91512 15.3178 3.20367 15.6064C3.49239 15.8951 3.88364 16.0584 4.29181 16.0605H5.08008C5.49429 16.0605 5.83008 16.3963 5.83008 16.8105C5.83008 17.2248 5.49429 17.5605 5.08008 17.5605H4.28679C3.48242 17.5571 2.71172 17.2358 2.14301 16.667C1.57413 16.0982 1.2535 15.3279 1.25001 14.5238L1.25 14.5205V10.4609Z" fill="black"/>
<path fill-rule="evenodd" clip-rule="evenodd" d="M8.5 16.3711C8.5 15.9569 8.83579 15.6211 9.25 15.6211H15.25C15.6642 15.6211 16 15.9569 16 16.3711C16 16.7853 15.6642 17.1211 15.25 17.1211H9.25C8.83579 17.1211 8.5 16.7853 8.5 16.3711Z" fill="black"/>
<path fill-rule="evenodd" clip-rule="evenodd" d="M11.2617 12.7812C11.2617 12.367 11.5975 12.0312 12.0117 12.0312H13.1517C13.5659 12.0312 13.9017 12.367 13.9017 12.7812C13.9017 13.1955 13.5659 13.5312 13.1517 13.5312H12.0117C11.5975 13.5312 11.2617 13.1955 11.2617 12.7812Z" fill="black"/>
<path fill-rule="evenodd" clip-rule="evenodd" d="M7.13474 15.1523C6.78887 15.1523 6.45884 15.2884 6.21642 15.5281C5.97428 15.7675 5.83996 16.0899 5.83996 16.4243V16.4322L5.83992 16.4322C5.83866 16.551 5.85355 16.6693 5.88403 16.783L5.8874 16.7956L5.88729 16.7956C5.95621 17.0718 6.11731 17.3189 6.34704 17.4969C6.5769 17.6749 6.8612 17.7723 7.15472 17.7723C7.44842 17.7723 7.73316 17.6748 7.96288 17.4969C8.19223 17.3192 8.35311 17.0722 8.42214 16.7956L8.42529 16.783L8.4254 16.783C8.53164 16.3867 8.3862 15.857 8.05356 15.5281C7.81127 15.2885 7.4808 15.1523 7.13474 15.1523ZM5.16173 14.4615C5.68632 13.9427 6.39589 13.6523 7.13474 13.6523C7.87341 13.6523 8.58352 13.9426 9.10825 14.4615C9.79122 15.1368 10.1296 16.2085 9.87593 17.1651C9.724 17.7679 9.37357 18.3016 8.88135 18.6828C8.38779 19.065 7.77972 19.2723 7.15472 19.2723C6.52953 19.2723 5.92198 19.0649 5.42857 18.6828C4.93674 18.3019 4.58558 17.7684 4.43351 17.1651C4.36887 16.9217 4.33767 16.6709 4.33996 16.4203C4.34102 15.6835 4.63779 14.9796 5.16173 14.4615Z" fill="black"/>
<path fill-rule="evenodd" clip-rule="evenodd" d="M17.2984 14.998C17.1151 14.998 16.9344 15.0346 16.7676 15.1046C16.6009 15.1747 16.4524 15.2766 16.3313 15.4021C16.2101 15.5276 16.1187 15.6739 16.0607 15.832C16.0028 15.9902 15.9793 16.157 15.9913 16.3229C15.9925 16.3391 15.9931 16.3554 15.9933 16.3717C15.9941 16.4846 16.0107 16.5977 16.0429 16.7069L16.0441 16.7111L16.0441 16.7111C16.1173 16.9655 16.2762 17.1948 16.502 17.3606C16.7277 17.5262 17.0072 17.618 17.2984 17.618C17.5895 17.618 17.869 17.5262 18.0947 17.3606C18.3205 17.1948 18.4794 16.9655 18.5526 16.7111L18.5538 16.7069L18.5538 16.7069C18.5856 16.599 18.6022 16.486 18.603 16.3717C18.6031 16.3554 18.6037 16.3391 18.6049 16.3229C18.6169 16.1561 18.5936 15.9893 18.536 15.832C18.4783 15.6747 18.3867 15.5282 18.265 15.4021C18.1435 15.2762 17.9954 15.1745 17.8291 15.1046C17.6623 15.0346 17.4816 14.998 17.2984 14.998ZM16.1866 13.7217C16.5381 13.5741 16.9164 13.498 17.2984 13.498C17.6803 13.498 18.0586 13.5741 18.4101 13.7217C18.7622 13.8696 19.0803 14.0868 19.3443 14.3604C19.6081 14.6337 19.8133 14.9583 19.9443 15.3158C20.0726 15.6656 20.126 16.0366 20.1026 16.4066C20.0988 16.6495 20.0626 16.8925 19.9935 17.1282C19.8263 17.7069 19.4693 18.2122 18.9824 18.5697C18.4947 18.9277 17.903 19.118 17.2984 19.118C16.6937 19.118 16.102 18.9277 15.6143 18.5697C15.1274 18.2122 14.7704 17.7069 14.6032 17.1282C14.5344 16.8937 14.4975 16.6508 14.4936 16.4066C14.4702 16.0357 14.5244 15.6648 14.6524 15.3158C14.7831 14.959 14.9876 14.6343 15.2519 14.3604C15.5163 14.0865 15.835 13.8695 16.1866 13.7217Z" fill="black"/>
</svg>
