<svg width="24" height="24" viewBox="0 0 24 24" fill="none" xmlns="http://www.w3.org/2000/svg">
<path fill-rule="evenodd" clip-rule="evenodd" d="M2.25735 10.8702C2.31484 10.46 2.69398 10.1741 3.10418 10.2316C9.00595 11.0586 14.9942 11.0586 20.896 10.2316C21.3062 10.1741 21.6853 10.46 21.7428 10.8702C21.8003 11.2804 21.5144 11.6596 21.1042 11.717C15.0643 12.5635 8.93589 12.5635 2.896 11.717C2.4858 11.6596 2.19986 11.2804 2.25735 10.8702Z" fill="black"/>
<path fill-rule="evenodd" clip-rule="evenodd" d="M7.80281 5.56923C10.587 5.13026 13.4226 5.13026 16.2068 5.56923L16.2096 5.56968C17.2592 5.73933 18.1638 6.49306 18.5213 7.49353L19.5652 10.1087C19.5682 10.1163 19.5711 10.1239 19.5739 10.1316C19.6048 10.217 19.6468 10.2982 19.6995 10.3738L20.8628 11.9348C21.4361 12.7172 21.7454 13.662 21.7462 14.6318V20.2786C21.7462 20.6928 21.4104 21.0286 20.9962 21.0286C20.5819 21.0286 20.2462 20.6928 20.2462 20.2786V14.6329C20.2457 13.9824 20.0384 13.3487 19.6545 12.8237C19.6539 12.823 19.6534 12.8222 19.6528 12.8215L18.4906 11.2618L18.48 11.2472C18.3506 11.0645 18.2456 10.8656 18.1679 10.6544L17.1227 8.03589C17.1188 8.02599 17.115 8.01602 17.1115 8.00596C16.94 7.51661 16.4831 7.13387 15.9716 7.05067C13.3439 6.63655 10.6676 6.63645 8.03994 7.05037C7.53126 7.1362 7.07833 7.51817 6.90799 8.00538C6.90441 8.01563 6.9006 8.02581 6.89657 8.03589L5.84959 10.6589C5.7706 10.866 5.66361 11.0611 5.5316 11.2389L4.34938 12.8666C4.34931 12.8667 4.34945 12.8665 4.34938 12.8666C3.97378 13.3851 3.7719 14.0096 3.77314 14.6499L3.77315 14.6535L3.75683 20.2776C3.75563 20.6918 3.41887 21.0266 3.00466 21.0254C2.59045 21.0242 2.25564 20.6875 2.25684 20.2733L2.27314 14.6528C2.27314 14.6522 2.27314 14.6515 2.27314 14.6509C2.27169 13.6941 2.57328 12.7613 3.13473 11.9865L4.32595 10.3464C4.37733 10.2775 4.4188 10.2019 4.44914 10.1216L4.45402 10.1087L5.49788 7.49379C5.85335 6.49695 6.75172 5.7442 7.79644 5.57026L7.80281 5.56923Z" fill="black"/>
<path fill-rule="evenodd" clip-rule="evenodd" d="M6.23828 19.4504C6.23828 18.4839 7.02178 17.7004 7.98828 17.7004H16.0014C16.9679 17.7004 17.7514 18.4839 17.7514 19.4504V20.2789C17.7514 20.6931 17.4156 21.0289 17.0014 21.0289C16.5872 21.0289 16.2514 20.6931 16.2514 20.2789V19.4504C16.2514 19.3124 16.1394 19.2004 16.0014 19.2004H7.98828C7.85021 19.2004 7.73828 19.3124 7.73828 19.4504V20.2789C7.73828 20.6931 7.40249 21.0289 6.98828 21.0289C6.57407 21.0289 6.23828 20.6931 6.23828 20.2789V19.4504Z" fill="black"/>
<path fill-rule="evenodd" clip-rule="evenodd" d="M10.306 4.4711C10.2038 4.4711 10.1119 4.53334 10.0739 4.62825L9.32533 6.49964L7.93262 5.94256L8.68117 4.07117C8.94693 3.40676 9.59043 2.9711 10.306 2.9711H13.6936C14.4092 2.9711 15.0527 3.40676 15.3185 4.07117L14.6221 4.34971L15.3185 4.07117L16.067 5.94256L14.6743 6.49964L13.9258 4.62825C13.8878 4.53334 13.7959 4.4711 13.6936 4.4711H10.306Z" fill="black"/>
<path fill-rule="evenodd" clip-rule="evenodd" d="M7.58545 14.0916C7.58545 14.5058 7.92124 14.8416 8.33545 14.8416L8.53545 14.8416C8.94966 14.8416 9.28545 14.5058 9.28545 14.0916C9.28545 13.6773 8.94966 13.3416 8.53545 13.3416L8.33545 13.3416C7.92124 13.3416 7.58545 13.6773 7.58545 14.0916Z" fill="black"/>
<path fill-rule="evenodd" clip-rule="evenodd" d="M5.80322 15.9607C5.80322 16.3749 6.13901 16.7107 6.55322 16.7107L6.75322 16.7107C7.16744 16.7107 7.50322 16.3749 7.50322 15.9607C7.50322 15.5465 7.16744 15.2107 6.75322 15.2107L6.55322 15.2107C6.13901 15.2107 5.80322 15.5465 5.80322 15.9607Z" fill="black"/>
<path fill-rule="evenodd" clip-rule="evenodd" d="M16.4966 15.9607C16.4966 16.3749 16.8324 16.7107 17.2466 16.7107L17.4466 16.7107C17.8608 16.7107 18.1966 16.3749 18.1966 15.9607C18.1966 15.5465 17.8608 15.2107 17.4466 15.2107L17.2466 15.2107C16.8324 15.2107 16.4966 15.5465 16.4966 15.9607Z" fill="black"/>
<path fill-rule="evenodd" clip-rule="evenodd" d="M11.1499 14.0916C11.1499 14.5058 11.4857 14.8416 11.8999 14.8416L12.0999 14.8416C12.5141 14.8416 12.8499 14.5058 12.8499 14.0916C12.8499 13.6773 12.5141 13.3416 12.0999 13.3416L11.8999 13.3416C11.4857 13.3416 11.1499 13.6773 11.1499 14.0916Z" fill="black"/>
<path fill-rule="evenodd" clip-rule="evenodd" d="M9.36768 15.9607C9.36768 16.3749 9.70346 16.7107 10.1177 16.7107L10.3177 16.7107C10.7319 16.7107 11.0677 16.3749 11.0677 15.9607C11.0677 15.5465 10.7319 15.2107 10.3177 15.2107L10.1177 15.2107C9.70346 15.2107 9.36768 15.5465 9.36768 15.9607Z" fill="black"/>
<path fill-rule="evenodd" clip-rule="evenodd" d="M14.7144 14.0916C14.7144 14.5058 15.0501 14.8416 15.4644 14.8416L15.6644 14.8416C16.0786 14.8416 16.4144 14.5058 16.4144 14.0916C16.4144 13.6773 16.0786 13.3416 15.6644 13.3416L15.4644 13.3416C15.0501 13.3416 14.7144 13.6773 14.7144 14.0916Z" fill="black"/>
<path fill-rule="evenodd" clip-rule="evenodd" d="M12.9321 15.9607C12.9321 16.3749 13.2679 16.7107 13.6821 16.7107L13.8821 16.7107C14.2963 16.7107 14.6321 16.3749 14.6321 15.9607C14.6321 15.5465 14.2963 15.2107 13.8821 15.2107L13.6821 15.2107C13.2679 15.2107 12.9321 15.5465 12.9321 15.9607Z" fill="black"/>
</svg>
