<svg width="24" height="24" viewBox="0 0 24 24" fill="none" xmlns="http://www.w3.org/2000/svg">
<path fill-rule="evenodd" clip-rule="evenodd" d="M15.813 5.47528C15.813 5.06107 16.1488 4.72528 16.563 4.72528L19.444 4.72528C19.6524 4.72528 19.8515 4.81204 19.9934 4.96474C20.1353 5.11744 20.2072 5.32231 20.1919 5.53021C20.154 6.04645 19.9099 6.7458 19.3304 7.32069C18.7322 7.91415 17.8269 8.32605 16.563 8.32605C16.1488 8.32605 15.813 7.99026 15.813 7.57605C15.813 7.16183 16.1488 6.82605 16.563 6.82605C17.4804 6.82605 17.9899 6.53768 18.274 6.25583C18.2842 6.2457 18.2942 6.23552 18.3039 6.22528L16.563 6.22528C16.1488 6.22528 15.813 5.88949 15.813 5.47528Z" fill="black"/>
<path fill-rule="evenodd" clip-rule="evenodd" d="M8.18701 5.47528C8.18701 5.06107 7.85123 4.72528 7.43701 4.72528L4.55604 4.72528C4.34758 4.72528 4.14853 4.81204 4.00663 4.96474C3.86473 5.11744 3.79278 5.32231 3.80805 5.53021C3.84596 6.04645 4.0901 6.7458 4.66957 7.32069C5.26777 7.91415 6.17308 8.32605 7.43701 8.32605C7.85123 8.32605 8.18701 7.99026 8.18701 7.57605C8.18701 7.16183 7.85123 6.82605 7.43701 6.82605C6.51958 6.82605 6.01011 6.53768 5.72602 6.25583C5.71581 6.2457 5.70582 6.23552 5.69606 6.22528L7.43701 6.22528C7.85123 6.22528 8.18701 5.88949 8.18701 5.47528Z" fill="black"/>
<path fill-rule="evenodd" clip-rule="evenodd" d="M15.813 14.4764C15.813 14.0622 16.1488 13.7264 16.563 13.7264L19.444 13.7264C19.6524 13.7264 19.8515 13.8132 19.9934 13.9659C20.1353 14.1186 20.2072 14.3235 20.1919 14.5314C20.154 15.0476 19.9099 15.747 19.3304 16.3218C18.7322 16.9153 17.8269 17.3272 16.563 17.3272C16.1488 17.3272 15.813 16.9914 15.813 16.5772C15.813 16.163 16.1488 15.8272 16.563 15.8272C17.4804 15.8272 17.9899 15.5388 18.274 15.257C18.2842 15.2469 18.2942 15.2367 18.3039 15.2264L16.563 15.2264C16.1488 15.2264 15.813 14.8907 15.813 14.4764Z" fill="black"/>
<path fill-rule="evenodd" clip-rule="evenodd" d="M8.18701 14.4764C8.18701 14.0622 7.85123 13.7264 7.43701 13.7264L4.55604 13.7264C4.34758 13.7264 4.14853 13.8132 4.00663 13.9659C3.86473 14.1186 3.79278 14.3235 3.80805 14.5314C3.84596 15.0476 4.0901 15.747 4.66957 16.3218C5.26777 16.9153 6.17308 17.3272 7.43701 17.3272C7.85123 17.3272 8.18701 16.9914 8.18701 16.5772C8.18701 16.163 7.85123 15.8272 7.43701 15.8272C6.51958 15.8272 6.01011 15.5388 5.72602 15.257C5.71581 15.2469 5.70582 15.2367 5.69606 15.2264L7.43701 15.2264C7.85123 15.2264 8.18701 14.8907 8.18701 14.4764Z" fill="black"/>
<path fill-rule="evenodd" clip-rule="evenodd" d="M15.813 9.97589C15.813 9.56168 16.1488 9.22589 16.563 9.22589L19.444 9.22589C19.6524 9.22589 19.8515 9.31265 19.9934 9.46535C20.1353 9.61805 20.2072 9.82292 20.1919 10.0308C20.154 10.5471 19.9099 11.2464 19.3304 11.8213C18.7322 12.4148 17.8269 12.8267 16.563 12.8267C16.1488 12.8267 15.813 12.4909 15.813 12.0767C15.813 11.6624 16.1488 11.3267 16.563 11.3267C17.4804 11.3267 17.9899 11.0383 18.274 10.7564C18.2842 10.7463 18.2942 10.7361 18.3039 10.7259L16.563 10.7259C16.1488 10.7259 15.813 10.3901 15.813 9.97589Z" fill="black"/>
<path fill-rule="evenodd" clip-rule="evenodd" d="M8.18701 9.97589C8.18701 9.56168 7.85123 9.22589 7.43701 9.22589L4.55604 9.22589C4.34758 9.22589 4.14853 9.31265 4.00663 9.46535C3.86473 9.61805 3.79278 9.82292 3.80805 10.0308C3.84596 10.5471 4.0901 11.2464 4.66957 11.8213C5.26777 12.4148 6.17308 12.8267 7.43701 12.8267C7.85123 12.8267 8.18701 12.4909 8.18701 12.0767C8.18701 11.6624 7.85123 11.3267 7.43701 11.3267C6.51958 11.3267 6.01011 11.0383 5.72602 10.7564C5.71581 10.7463 5.70582 10.7361 5.69606 10.7259L7.43701 10.7259C7.85123 10.7259 8.18701 10.3901 8.18701 9.97589Z" fill="black"/>
<path fill-rule="evenodd" clip-rule="evenodd" d="M17.313 16.4115C17.313 18.3667 15.7277 19.952 13.7724 19.952L10.2277 19.952C8.27242 19.952 6.68714 18.3667 6.68714 16.4115L6.68714 5.79057C6.68714 3.83528 8.27242 2.25 10.2277 2.25L13.7724 2.25C15.7277 2.25 17.313 3.83528 17.313 5.79057L17.313 16.4115ZM13.7724 18.452C14.8993 18.452 15.813 17.5383 15.813 16.4115L15.813 5.79057C15.813 4.66371 14.8993 3.75 13.7724 3.75L10.2277 3.75C9.10085 3.75 8.18714 4.66371 8.18714 5.79057L8.18714 16.4115C8.18714 17.5383 9.10085 18.452 10.2277 18.452L13.7724 18.452Z" fill="black"/>
<path fill-rule="evenodd" clip-rule="evenodd" d="M10.875 18.5001C11.2892 18.5001 11.625 18.8359 11.625 19.2501V21C11.625 21.4142 11.2892 21.75 10.875 21.75C10.4608 21.75 10.125 21.4142 10.125 21V19.2501C10.125 18.8359 10.4608 18.5001 10.875 18.5001Z" fill="black"/>
<path fill-rule="evenodd" clip-rule="evenodd" d="M13.1255 18.5001C13.5397 18.5001 13.8755 18.8359 13.8755 19.2501V21C13.8755 21.4142 13.5397 21.75 13.1255 21.75C12.7113 21.75 12.3755 21.4142 12.3755 21V19.2501C12.3755 18.8359 12.7113 18.5001 13.1255 18.5001Z" fill="black"/>
<path fill-rule="evenodd" clip-rule="evenodd" d="M12.0001 6.22528C11.793 6.22528 11.625 6.39324 11.625 6.60042C11.625 6.80761 11.793 6.97556 12.0001 6.97556C12.2073 6.97556 12.3753 6.80761 12.3753 6.60042C12.3753 6.39324 12.2073 6.22528 12.0001 6.22528ZM10.125 6.60042C10.125 5.56481 10.9645 4.72528 12.0001 4.72528C13.0358 4.72528 13.8753 5.56481 13.8753 6.60042C13.8753 7.63603 13.0358 8.47556 12.0001 8.47556C10.9645 8.47556 10.125 7.63603 10.125 6.60042Z" fill="black"/>
<path fill-rule="evenodd" clip-rule="evenodd" d="M12.0001 10.7259C11.793 10.7259 11.625 10.8938 11.625 11.101C11.625 11.3082 11.793 11.4762 12.0001 11.4762C12.2073 11.4762 12.3753 11.3082 12.3753 11.101C12.3753 10.8938 12.2073 10.7259 12.0001 10.7259ZM10.125 11.101C10.125 10.0654 10.9645 9.22589 12.0001 9.22589C13.0358 9.22589 13.8753 10.0654 13.8753 11.101C13.8753 12.1366 13.0358 12.9762 12.0001 12.9762C10.9645 12.9762 10.125 12.1366 10.125 11.101Z" fill="black"/>
<path fill-rule="evenodd" clip-rule="evenodd" d="M12.0001 15.2264C11.793 15.2264 11.625 15.3944 11.625 15.6016C11.625 15.8088 11.793 15.9767 12.0001 15.9767C12.2073 15.9767 12.3753 15.8088 12.3753 15.6016C12.3753 15.3944 12.2073 15.2264 12.0001 15.2264ZM10.125 15.6016C10.125 14.566 10.9645 13.7264 12.0001 13.7264C13.0358 13.7264 13.8753 14.566 13.8753 15.6016C13.8753 16.6372 13.0358 17.4767 12.0001 17.4767C10.9645 17.4767 10.125 16.6372 10.125 15.6016Z" fill="black"/>
</svg>
