<svg width="24" height="24" viewBox="0 0 24 24" fill="none" xmlns="http://www.w3.org/2000/svg">
<path fill-rule="evenodd" clip-rule="evenodd" d="M11.9999 6.90009C9.18323 6.90009 6.8999 9.18342 6.8999 12.0001C6.8999 14.8167 9.18323 17.1 11.9999 17.1C14.8165 17.1 17.0998 14.8167 17.0998 12.0001C17.0998 9.18342 14.8165 6.90009 11.9999 6.90009ZM5.3999 12.0001C5.3999 8.35499 8.35481 5.40009 11.9999 5.40009C15.6449 5.40009 18.5998 8.35499 18.5998 12.0001C18.5998 15.6451 15.6449 18.6 11.9999 18.6C8.35481 18.6 5.3999 15.6451 5.3999 12.0001Z" fill="black"/>
<path fill-rule="evenodd" clip-rule="evenodd" d="M11.8899 8.6296C12.2602 8.81523 12.4099 9.2659 12.2243 9.63619L11.4152 11.25H13.8002C14.0603 11.25 14.3018 11.3848 14.4384 11.6062C14.575 11.8275 14.5872 12.1039 14.4705 12.3363L13.1161 15.0363C12.9303 15.4066 12.4796 15.5561 12.1094 15.3704C11.7391 15.1847 11.5896 14.734 11.7753 14.3637L12.5848 12.75H10.2002C9.94012 12.75 9.69861 12.6153 9.562 12.394C9.42539 12.1727 9.41318 11.8964 9.52973 11.6639L10.8833 8.96393C11.069 8.59365 11.5196 8.44396 11.8899 8.6296Z" fill="black"/>
<path fill-rule="evenodd" clip-rule="evenodd" d="M6.09947 5.16466C6.39516 5.45473 6.39971 5.92958 6.10963 6.22527C2.96346 9.43231 2.96346 14.5677 6.10963 17.7747C6.39971 18.0704 6.39516 18.5453 6.09947 18.8354C5.80379 19.1254 5.32893 19.1209 5.03886 18.8252C1.32038 15.0348 1.32038 8.96523 5.03886 5.17482C5.32893 4.87913 5.80379 4.87458 6.09947 5.16466Z" fill="black"/>
<path fill-rule="evenodd" clip-rule="evenodd" d="M17.9006 5.16466C18.1962 4.87458 18.6711 4.87913 18.9612 5.17482C22.6796 8.96523 22.6796 15.0348 18.9612 18.8252C18.6711 19.1209 18.1962 19.1254 17.9006 18.8354C17.6049 18.5453 17.6003 18.0704 17.8904 17.7747C21.0366 14.5677 21.0366 9.43231 17.8904 6.22527C17.6003 5.92958 17.6049 5.45473 17.9006 5.16466Z" fill="black"/>
</svg>
