<svg width="24" height="24" viewBox="0 0 24 24" fill="none" xmlns="http://www.w3.org/2000/svg">
<path fill-rule="evenodd" clip-rule="evenodd" d="M10.4351 8.43819C10.08 8.43819 9.74164 8.5892 9.50454 8.85353L8.5998 9.86219C8.45754 10.0208 8.25454 10.1114 8.04149 10.1114H3.51855C3.10434 10.1114 2.76855 9.77561 2.76855 9.36139C2.76855 8.94718 3.10434 8.61139 3.51855 8.61139H7.70672L8.38793 7.85195L8.94089 8.34794L8.38793 7.85195C8.90955 7.27042 9.65387 6.93819 10.4351 6.93819H13.5666C14.3478 6.93819 15.0922 7.27045 15.6138 7.85201L16.2949 8.61139H20.4832C20.8974 8.61139 21.2332 8.94718 21.2332 9.36139C21.2332 9.77561 20.8974 10.1114 20.4832 10.1114H15.9601C15.7471 10.1114 15.5441 10.0208 15.4018 9.86217L14.4972 8.85356C14.2601 8.58921 13.9217 8.43819 13.5666 8.43819H10.4351Z" fill="black"/>
<path fill-rule="evenodd" clip-rule="evenodd" d="M12 3.75C7.44365 3.75 3.75 7.44365 3.75 12C3.75 16.3192 7.0697 19.8638 11.2963 20.2204C11.709 20.2553 12.0154 20.6181 11.9806 21.0308C11.9457 21.4436 11.5829 21.75 11.1702 21.7151C6.17341 21.2936 2.25 17.1054 2.25 12C2.25 6.61522 6.61522 2.25 12 2.25C16.953 2.25 21.0423 5.94255 21.6673 10.7253C21.721 11.136 21.4316 11.5125 21.0208 11.5661C20.6101 11.6198 20.2337 11.3304 20.18 10.9196C19.6513 6.8741 16.1899 3.75 12 3.75Z" fill="black"/>
<path fill-rule="evenodd" clip-rule="evenodd" d="M7.84463 15.9353C8.76175 16.9494 9.24219 18.5224 9.24219 20.7585C9.24219 21.1727 9.57797 21.5085 9.99219 21.5085C10.4064 21.5085 10.7422 21.1727 10.7422 20.7585C10.7422 18.3455 10.2292 16.3356 8.95714 14.9291C7.67135 13.5074 5.73971 12.8427 3.22253 12.8427C2.80831 12.8427 2.47253 13.1785 2.47253 13.5927C2.47253 14.0069 2.80831 14.3427 3.22253 14.3427C5.48809 14.3427 6.94127 14.9364 7.84463 15.9353Z" fill="black"/>
<path fill-rule="evenodd" clip-rule="evenodd" d="M12 12.3346C11.5858 12.3346 11.25 12.6704 11.25 13.0846C11.25 13.4988 11.5858 13.8346 12 13.8346C12.4142 13.8346 12.75 13.4988 12.75 13.0846C12.75 12.6704 12.4142 12.3346 12 12.3346ZM9.75 13.0846C9.75 11.842 10.7574 10.8346 12 10.8346C13.2426 10.8346 14.25 11.842 14.25 13.0846C14.25 14.3272 13.2426 15.3346 12 15.3346C10.7574 15.3346 9.75 14.3272 9.75 13.0846Z" fill="black"/>
<path fill-rule="evenodd" clip-rule="evenodd" d="M20.0002 15.6262C19.7073 15.3332 19.2325 15.3331 18.9395 15.626L18.9305 15.6349C18.6376 15.9278 18.6375 16.4026 18.9303 16.6956C19.2232 16.9885 19.698 16.9887 19.991 16.6958L19.9999 16.6869C20.2929 16.394 20.293 15.9192 20.0002 15.6262Z" fill="black"/>
<path fill-rule="evenodd" clip-rule="evenodd" d="M19.1325 14.6429C18.1008 14.6429 17.2644 15.4793 17.2644 16.511C17.2644 16.6332 17.2815 16.7595 17.3141 16.9083C17.369 17.1581 17.2927 17.4187 17.1117 17.5995L15.0752 19.6349V20.4678L15.7824 20.4678L15.8109 20.4371C15.8291 20.4177 15.8516 20.3939 15.8761 20.3694L15.8804 20.3651L17.2599 19.0081L17.7971 18.4721C17.9961 18.2735 18.2895 18.2029 18.5571 18.2892C18.7369 18.3472 18.9306 18.379 19.1325 18.379C20.1642 18.379 21.0005 17.5427 21.0005 16.511C21.0005 15.4793 20.1642 14.6429 19.1325 14.6429ZM15.707 20.5451C15.707 20.5451 15.7075 20.5447 15.7084 20.544ZM15.7644 16.511C15.7644 14.6509 17.2724 13.1429 19.1325 13.1429C20.9926 13.1429 22.5005 14.6509 22.5005 16.511C22.5005 18.3711 20.9926 19.879 19.1325 19.879C18.9378 19.879 18.7462 19.8624 18.5594 19.8304L18.3138 20.0755L16.9349 21.4319C16.923 21.4439 16.9126 21.4551 16.8951 21.4739C16.8853 21.4845 16.8732 21.4976 16.8574 21.5145C16.8207 21.5536 16.766 21.6112 16.7017 21.668C16.5892 21.7672 16.3344 21.9678 15.9664 21.9678L14.6433 21.9678C14.0534 21.9678 13.5752 21.4896 13.5752 20.8997V19.4559C13.5752 19.1727 13.6877 18.901 13.8879 18.7007L15.78 16.8098C15.7702 16.7141 15.7644 16.6144 15.7644 16.511Z" fill="black"/>
</svg>
