<svg width="24" height="24" viewBox="0 0 24 24" fill="none" xmlns="http://www.w3.org/2000/svg">
<path d="M15.716 20.4056C15.576 20.4056 15.426 20.3656 15.306 20.2856C14.956 20.0556 14.8661 19.5956 15.0961 19.2456C15.7861 18.2056 15.7861 16.8556 15.0961 15.8156C14.0761 14.2756 14.0761 12.2756 15.0961 10.7256C15.3261 10.3756 15.786 10.2856 16.136 10.5156C16.486 10.7456 16.5761 11.2056 16.3461 11.5556C15.6561 12.5956 15.6561 13.9456 16.3461 14.9856C17.3661 16.5256 17.3661 18.5256 16.3461 20.0756C16.2061 20.2956 15.966 20.4156 15.716 20.4156V20.4056Z" fill="black"/>
<path d="M8.69554 20.4039C8.55554 20.4039 8.41554 20.3639 8.28554 20.2839C7.93554 20.0539 7.84555 19.5939 8.07555 19.2439C8.76555 18.2039 8.76555 16.8539 8.07555 15.8039C7.05555 14.2639 7.05555 12.2639 8.07555 10.7139C8.30555 10.3639 8.76556 10.2739 9.11556 10.5039C9.46556 10.7339 9.55555 11.1939 9.32555 11.5439C8.63555 12.5839 8.63555 13.9339 9.32555 14.9739C10.3455 16.5139 10.3455 18.5139 9.32555 20.0639C9.18555 20.2839 8.94554 20.4039 8.69554 20.4039Z" fill="black"/>
<path d="M12.2058 20.4056C12.0658 20.4056 11.9158 20.3656 11.7958 20.2856C11.4458 20.0556 11.3558 19.5956 11.5858 19.2456C12.2758 18.2056 12.2758 16.8556 11.5858 15.8156C10.5658 14.2756 10.5658 12.2756 11.5858 10.7256C11.8158 10.3756 12.2758 10.2856 12.6258 10.5156C12.9758 10.7456 13.0658 11.2056 12.8358 11.5556C12.1458 12.5956 12.1458 13.9456 12.8358 14.9956C13.8558 16.5356 13.8558 18.5356 12.8358 20.0856C12.6958 20.3056 12.4558 20.4256 12.2058 20.4256V20.4056Z" fill="black"/>
<path d="M18.4857 16.1555C18.2457 16.1555 18.0157 16.1055 17.7857 16.0055C17.0957 15.6855 16.1857 15.4255 15.1657 15.2555C14.7557 15.1855 14.4857 14.7955 14.5457 14.3955C14.6157 13.9855 14.9957 13.7055 15.4057 13.7755C16.5757 13.9755 17.5857 14.2655 18.4057 14.6355C18.4757 14.6655 18.5657 14.6355 18.6157 14.5855L20.2057 7.43547C20.2657 7.15547 20.2157 7.01547 20.2057 6.99547C15.1957 4.42547 8.7757 4.43547 3.7757 6.99547C3.7557 7.00547 3.6957 7.10548 3.7757 7.44548L5.36569 14.5755C5.4157 14.6355 5.50569 14.6555 5.57569 14.6255C6.28569 14.2955 7.15568 14.0355 8.13568 13.8455C8.54568 13.7755 8.93569 14.0355 9.01569 14.4355C9.09569 14.8455 8.82569 15.2355 8.42569 15.3155C7.55569 15.4855 6.80569 15.7155 6.20569 15.9855C5.37569 16.3655 4.4057 16.0155 3.9957 15.1955C3.9657 15.1355 3.9457 15.0855 3.9357 15.0255L2.31568 7.75548C2.04568 6.41548 2.69569 5.86547 3.10569 5.65547C8.51568 2.88547 15.4757 2.87547 20.8957 5.65547C21.5957 6.01547 21.8857 6.79547 21.6857 7.74547L20.0657 15.0255C20.0557 15.0855 20.0357 15.1455 20.0057 15.1955C19.7057 15.7955 19.1157 16.1355 18.4957 16.1355L18.4857 16.1555Z" fill="black"/>
</svg>
