<svg width="24" height="24" viewBox="0 0 24 24" fill="none" xmlns="http://www.w3.org/2000/svg">
<path d="M10.5508 21.5625C10.2408 21.5625 9.95079 21.3625 9.84079 21.0525L6.8008 12.2425C6.6608 11.8525 6.87079 11.4225 7.26079 11.2925C7.65079 11.1525 8.0808 11.3625 8.2108 11.7525L11.2508 20.5625C11.3908 20.9525 11.1808 21.3825 10.7908 21.5125C10.7108 21.5425 10.6308 21.5525 10.5508 21.5525V21.5625Z" fill="black"/>
<path d="M6.56067 20.2314C5.94067 20.2314 5.35067 19.8814 5.05067 19.2914L2.40066 11.9814C2.02066 11.2314 2.34067 10.2114 3.16067 9.80145C8.54067 7.04145 15.4607 7.04145 20.8507 9.80145C21.6507 10.2114 21.9807 11.2014 21.6007 12.0214L19.0007 19.2114C18.5507 20.1114 17.5807 20.4614 16.7607 20.0814C15.6807 19.5814 13.4507 19.2714 12.0107 19.2714C10.5707 19.2714 8.35066 19.5814 7.26066 20.0814C7.03066 20.1814 6.79067 20.2314 6.56067 20.2314ZM12.0107 9.19143C9.15066 9.19143 6.33068 9.86144 3.85068 11.1414C3.77068 11.1814 3.73067 11.3014 3.78067 11.4014L6.43068 18.7114C6.43068 18.7114 6.55067 18.7614 6.63067 18.7214C8.13067 18.0314 10.7207 17.7814 12.0107 17.7714C13.2907 17.7714 15.8907 18.0314 17.3907 18.7214C17.4807 18.7614 17.5807 18.7214 17.6307 18.6314L20.2107 11.4814C20.2107 11.4814 20.2307 11.4314 20.2407 11.4014C20.2907 11.3014 20.2607 11.1814 20.1707 11.1414C17.6907 9.87144 14.8707 9.20143 12.0107 9.19143Z" fill="black"/>
<path d="M11.6509 6.83188C11.2409 6.83188 10.9009 6.49188 10.9009 6.08188C10.9009 5.96188 10.8909 5.84186 10.8709 5.72186C10.8009 5.31186 11.0709 4.92187 11.4709 4.85187C11.8809 4.78187 12.2709 5.05188 12.3409 5.45188C12.3809 5.66188 12.4009 5.87188 12.4009 6.08188C12.4009 6.49188 12.0609 6.83188 11.6509 6.83188Z" fill="black"/>
<path d="M17.2407 4.70179C17.0607 4.70179 16.8807 4.63178 16.7307 4.50178C16.6407 4.41178 16.5407 4.3418 16.4307 4.2718C16.0807 4.0418 15.9907 3.58179 16.2207 3.23179C16.4507 2.89179 16.9107 2.7918 17.2607 3.0218C17.4307 3.1318 17.6007 3.26177 17.7507 3.40177C18.0507 3.68177 18.0707 4.1518 17.7907 4.4618C17.6407 4.6218 17.4407 4.70179 17.2407 4.70179Z" fill="black"/>
<path d="M13.5007 4.13113C13.2207 4.13113 12.9507 3.97115 12.8207 3.71115C12.6407 3.34115 12.8007 2.89115 13.1707 2.71115C13.4007 2.60115 13.6107 2.52115 13.8407 2.46115C14.2407 2.36115 14.6507 2.60112 14.7507 3.00112C14.8507 3.40112 14.6107 3.81113 14.2107 3.91113C14.0807 3.94113 13.9507 3.99112 13.8207 4.06112C13.7207 4.11112 13.6007 4.13113 13.4907 4.13113H13.5007Z" fill="black"/>
<path d="M6.06058 4.70179C5.86058 4.70179 5.66058 4.6218 5.51058 4.4618C5.23058 4.1618 5.25059 3.68177 5.55059 3.40177C5.70059 3.26177 5.87059 3.1318 6.04059 3.0218C6.39059 2.7918 6.85058 2.89179 7.08058 3.23179C7.31058 3.58179 7.21058 4.0418 6.87058 4.2718C6.77058 4.3418 6.67059 4.42178 6.57059 4.50178C6.43059 4.63178 6.24058 4.70179 6.06058 4.70179Z" fill="black"/>
<path d="M9.79098 4.13113C9.68098 4.13113 9.57098 4.11112 9.46098 4.06112C9.34098 4.00112 9.21098 3.95113 9.07098 3.91113C8.67098 3.81113 8.43097 3.40112 8.53097 3.00112C8.63097 2.60112 9.04097 2.36115 9.44097 2.46115C9.66097 2.52115 9.88097 2.60115 10.111 2.71115C10.481 2.89115 10.641 3.34115 10.461 3.71115C10.331 3.98115 10.061 4.13113 9.78097 4.13113H9.79098Z" fill="black"/>
<path d="M11.6509 14.8311C11.2409 14.8311 10.9009 14.4911 10.9009 14.0811V13.0811C10.9009 12.6711 11.2409 12.3311 11.6509 12.3311C12.0609 12.3311 12.4009 12.6711 12.4009 13.0811V14.0811C12.4009 14.4911 12.0609 14.8311 11.6509 14.8311Z" fill="black"/>
<path d="M11.6509 10.8311C11.2409 10.8311 10.9009 10.4911 10.9009 10.0811V9.08105C10.9009 8.67105 11.2409 8.33105 11.6509 8.33105C12.0609 8.33105 12.4009 8.67105 12.4009 9.08105V10.0811C12.4009 10.4911 12.0609 10.8311 11.6509 10.8311Z" fill="black"/>
</svg>
