<svg width="25" height="24" viewBox="0 0 25 24" fill="none" xmlns="http://www.w3.org/2000/svg">
<g opacity="0.4">
<path fill-rule="evenodd" clip-rule="evenodd" d="M12.0442 12.6301C10.3512 12.6301 8.73318 13.2691 7.48818 14.4281C7.08518 14.8041 7.06218 15.4371 7.43818 15.8411C7.63518 16.0531 7.90218 16.1601 8.17018 16.1601C8.41418 16.1601 8.65918 16.0711 8.85218 15.8921C10.6032 14.2601 13.5032 14.2691 15.2482 15.8921C15.6512 16.2681 16.2862 16.2471 16.6612 15.8411C17.0382 15.4371 17.0152 14.8041 16.6102 14.4281C15.3642 13.2681 13.7432 12.6301 12.0442 12.6301Z" fill="black"/>
<path fill-rule="evenodd" clip-rule="evenodd" d="M21.7263 8.92986C19.0943 6.46686 15.6553 5.10986 12.0433 5.10986C8.4473 5.10986 5.0093 6.46186 2.3633 8.91686C1.9583 9.29286 1.9343 9.92586 2.3103 10.3299C2.6853 10.7349 3.3193 10.7589 3.7233 10.3829C5.9983 8.27286 8.9533 7.10986 12.0433 7.10986C15.1453 7.10986 18.0993 8.27486 20.3603 10.3899C20.5533 10.5709 20.7983 10.6599 21.0433 10.6599C21.3103 10.6599 21.5763 10.5539 21.7733 10.3429C22.1503 9.93986 22.1293 9.30686 21.7263 8.92986Z" fill="black"/>
</g>
<path fill-rule="evenodd" clip-rule="evenodd" d="M10.0091 17.1686C9.61114 17.5506 9.59713 18.1836 9.98013 18.5826C10.1761 18.7866 10.4391 18.8896 10.7011 18.8896C10.9501 18.8896 11.2001 18.7975 11.3941 18.6105C11.7461 18.2735 12.3431 18.2746 12.6911 18.6096C13.0891 18.9936 13.7231 18.9815 14.1051 18.5835C14.4881 18.1865 14.4771 17.5535 14.0791 17.1695C12.9831 16.1125 11.1101 16.1096 10.0091 17.1686Z" fill="black"/>
<path fill-rule="evenodd" clip-rule="evenodd" d="M12.0443 8.83984C9.37831 8.83984 6.84131 9.84084 4.90231 11.6598C4.49931 12.0378 4.47931 12.6708 4.85731 13.0738C5.23431 13.4768 5.86831 13.4968 6.27031 13.1188C7.83731 11.6498 9.88831 10.8398 12.0443 10.8398C14.1963 10.8398 16.2513 11.6498 17.8293 13.1208C18.0223 13.3008 18.2663 13.3898 18.5113 13.3898C18.7783 13.3898 19.0453 13.2828 19.2423 13.0718C19.6193 12.6678 19.5973 12.0348 19.1933 11.6578C17.2433 9.84084 14.7053 8.83984 12.0443 8.83984Z" fill="black"/>
</svg>