<svg width="25" height="24" viewBox="0 0 25 24" fill="none" xmlns="http://www.w3.org/2000/svg">
<path fill-rule="evenodd" clip-rule="evenodd" d="M6.82505 6.0524C6.82305 6.0504 6.82005 6.0474 6.81805 6.0454L3.96005 3.1834C3.56905 2.7914 2.93505 2.7924 2.54505 3.1824C2.15405 3.5724 2.15405 4.2054 2.54405 4.5964L4.45305 6.5074C3.75605 6.9044 3.07405 7.3604 2.42105 7.8884C1.99105 8.2354 1.92405 8.8654 2.27005 9.2944C2.46805 9.5394 2.75705 9.6664 3.04905 9.6664C3.26905 9.6664 3.49205 9.5944 3.67605 9.4454C4.39805 8.8624 5.15205 8.3744 5.92405 7.9814L7.95705 10.0174C7.02305 10.4004 6.12705 10.9084 5.32205 11.5524C4.89105 11.8974 4.82105 12.5274 5.16605 12.9584C5.36405 13.2054 5.65405 13.3334 5.94805 13.3334C6.16705 13.3334 6.38705 13.2614 6.57205 13.1144C7.45805 12.4054 8.47005 11.8904 9.51905 11.5814L11.9251 13.9904C10.6241 14.0194 9.33205 14.4664 8.29805 15.3514C7.87805 15.7104 7.82805 16.3414 8.18705 16.7614C8.38405 16.9924 8.66505 17.1114 8.94705 17.1114C9.17705 17.1114 9.40805 17.0324 9.59605 16.8714C10.9931 15.6784 13.1071 15.6764 14.5151 16.8664C14.6591 16.9884 14.8291 17.0444 15.0031 17.0724L17.1821 19.2554C17.3781 19.4504 17.6341 19.5484 17.8901 19.5484C18.1461 19.5484 18.4021 19.4504 18.5971 19.2564C18.9881 18.8654 18.9881 18.2324 18.5981 17.8424L6.82505 6.0524Z" fill="black"/>
<path fill-rule="evenodd" clip-rule="evenodd" d="M12.0486 18.5876C11.3536 18.5876 10.7866 19.1536 10.7866 19.8486C10.7866 20.5446 11.3536 21.1106 12.0486 21.1106C12.7436 21.1106 13.3096 20.5446 13.3096 19.8486C13.3096 19.1536 12.7436 18.5876 12.0486 18.5876Z" fill="black"/>
<g opacity="0.4">
<path fill-rule="evenodd" clip-rule="evenodd" d="M15.6296 9.80176C15.1086 9.61976 14.5376 9.89576 14.3566 10.4178C14.1746 10.9388 14.4496 11.5088 14.9716 11.6908C15.8846 12.0088 16.7436 12.4868 17.5256 13.1128C17.7106 13.2598 17.9316 13.3318 18.1506 13.3318C18.4436 13.3318 18.7336 13.2038 18.9326 12.9568C19.2766 12.5258 19.2066 11.8968 18.7756 11.5518C17.8166 10.7828 16.7576 10.1948 15.6296 9.80176Z" fill="black"/>
<path fill-rule="evenodd" clip-rule="evenodd" d="M21.6793 7.89016C18.4343 5.25116 14.1903 4.05516 10.0263 4.60616C9.47933 4.67916 9.09333 5.18116 9.16633 5.72816C9.23933 6.27616 9.74133 6.65917 10.2893 6.58817C13.9053 6.10817 17.5973 7.14816 20.4173 9.44216C20.6033 9.59316 20.8253 9.66616 21.0473 9.66616C21.3383 9.66616 21.6263 9.54016 21.8243 9.29716C22.1723 8.86916 22.1083 8.23916 21.6793 7.89016Z" fill="black"/>
</g>
</svg>