<svg width="24" height="24" viewBox="0 0 24 24" fill="none" xmlns="http://www.w3.org/2000/svg">
<g opacity="0.4">
<path d="M20.9187 7.75554C15.7517 2.64154 8.24974 2.64254 3.08374 7.75554C2.36174 8.46654 2.30574 9.62954 2.95574 10.4005L3.80877 11.4144C3.92497 11.5526 4.13583 11.5572 4.26188 11.4281C6.40227 9.23468 9.12508 8.03193 11.9893 8.02911H12.0013C14.8669 8.02911 17.5953 9.23009 19.7421 11.4245C19.8682 11.5534 20.0789 11.5486 20.195 11.4106L21.0447 10.4005C21.6937 9.62954 21.6387 8.46754 20.9187 7.75554Z" fill="black"/>
<path d="M10.5167 19.3875L8.32883 16.787C8.23038 16.67 8.2352 16.497 8.34527 16.3908C9.38217 15.3908 10.6654 14.842 11.9921 14.8392H12.0031C13.3311 14.8392 14.6183 15.3847 15.6608 16.3825C15.7715 16.4886 15.7767 16.6621 15.678 16.7795L13.4837 19.3875C13.1147 19.8275 12.5737 20.0795 12.0007 20.0795C11.4267 20.0795 10.8857 19.8275 10.5167 19.3875Z" fill="black"/>
</g>
<path d="M18.8344 13.0278C18.9306 12.9134 18.9282 12.7452 18.8258 12.6363C16.9399 10.6296 14.5266 9.5293 12.0011 9.5293H11.9901C9.46663 9.53219 7.05783 10.6347 5.1781 12.6414C5.076 12.7504 5.07376 12.9183 5.1699 13.0326L6.97408 15.177C7.08757 15.3119 7.29207 15.3199 7.42142 15.2001C8.71779 13.9997 10.3206 13.343 11.9889 13.3394H12.0029C13.6734 13.3394 15.2814 13.9932 16.5854 15.1938C16.7148 15.313 16.9188 15.3047 17.032 15.1701L18.8344 13.0278Z" fill="black"/>
</svg>