<svg width="25" height="24" viewBox="0 0 25 24" fill="none" xmlns="http://www.w3.org/2000/svg">
<path opacity="0.4" fill-rule="evenodd" clip-rule="evenodd" d="M21.7366 7.48213C16.6026 2.53713 8.76064 2.09413 3.09464 6.42813C2.31564 7.02313 1.94164 7.90213 2.06664 8.84013C2.20264 9.85013 2.89364 10.7481 3.82964 11.1281C4.69864 11.4811 5.64864 11.3341 6.41764 10.7291C9.37064 8.48913 13.3146 8.29013 16.4626 10.2241C17.0116 10.5631 16.7136 11.1171 16.6476 11.2251C16.5146 11.4411 16.2226 11.7601 15.7626 11.4851C12.7956 9.62613 8.87764 10.1031 6.44564 12.6171C6.06164 13.0141 6.07164 13.6471 6.46864 14.0311C6.66364 14.2191 6.91364 14.3131 7.16464 14.3131C7.42564 14.3131 7.68664 14.2111 7.88264 14.0081C9.66364 12.1681 12.5306 11.8211 14.7156 13.1901C16.1936 14.0781 17.6666 13.3981 18.3566 12.2641C19.0486 11.1271 18.9866 9.42913 17.5096 8.52113C13.6516 6.15113 8.82364 6.39213 5.19464 9.14613C4.91264 9.36913 4.71164 9.32813 4.58264 9.27513C4.31764 9.16813 4.08864 8.86713 4.04964 8.57513C4.01964 8.35313 4.10164 8.17513 4.30864 8.01713C9.18364 4.28813 15.9286 4.66713 20.3496 8.92213C20.7466 9.30613 21.3816 9.29513 21.7636 8.89613C22.1466 8.49813 22.1346 7.86513 21.7366 7.48213Z" fill="black"/>
<path fill-rule="evenodd" clip-rule="evenodd" d="M12.5216 18.2405C12.3356 18.4335 12.0866 18.5425 11.8216 18.5475C11.5426 18.5515 11.2976 18.4515 11.0986 18.2595C10.9086 18.0785 10.8006 17.8335 10.7946 17.5685C10.7896 17.2985 10.8896 17.0415 11.0736 16.8495C11.1666 16.7555 11.2816 16.6765 11.4046 16.6205C11.5316 16.5665 11.6646 16.5395 11.7966 16.5395C12.0516 16.5395 12.3016 16.6375 12.4946 16.8225C12.8986 17.2125 12.9096 17.8355 12.5216 18.2405ZM13.8836 15.3835C13.0086 14.5405 11.7246 14.3055 10.5986 14.7905C10.2316 14.9555 9.90861 15.1785 9.63561 15.4605C9.07661 16.0425 8.77861 16.8065 8.79561 17.6125C8.81361 18.4125 9.14061 19.1565 9.71361 19.7025C10.2796 20.2485 11.0186 20.5475 11.8006 20.5475C11.8206 20.5475 11.8386 20.5475 11.8586 20.5465C12.6606 20.5315 13.4076 20.2045 13.9636 19.6255C15.1076 18.4335 15.0716 16.5315 13.8846 15.3845L13.8836 15.3835Z" fill="black"/>
</svg>