<svg width="24" height="24" viewBox="0 0 24 24" fill="none" xmlns="http://www.w3.org/2000/svg">
<path opacity="0.4" fill-rule="evenodd" clip-rule="evenodd" d="M21.6208 9.30176L14.0928 3.33976C12.8608 2.37076 11.1388 2.37276 9.90582 3.34176L2.37982 9.30176C1.94682 9.64476 1.87282 10.2738 2.21582 10.7078C2.55882 11.1398 3.18782 11.2118 3.62082 10.8708L3.74682 10.7708V17.5768C3.74682 19.6768 5.45782 21.3858 7.56082 21.3858H16.4398C18.5428 21.3858 20.2538 19.6768 20.2538 17.5768V10.7708L20.3798 10.8708C20.5628 11.0158 20.7818 11.0868 20.9998 11.0868C21.2948 11.0868 21.5868 10.9568 21.7838 10.7078C22.1268 10.2738 22.0538 9.64476 21.6208 9.30176Z" fill="black"/>
<path d="M15.6409 12.3782C15.8609 12.3782 16.0789 12.2822 16.2269 12.0972C16.4859 11.7742 16.4339 11.3022 16.1099 11.0432C13.7289 9.13716 10.2719 9.13616 7.88986 11.0432C7.56686 11.3022 7.51486 11.7742 7.77286 12.0972C8.03186 12.4212 8.50486 12.4732 8.82786 12.2142C10.6659 10.7422 13.3349 10.7422 15.1729 12.2142C15.3109 12.3252 15.4769 12.3782 15.6409 12.3782Z" fill="black"/>
<path d="M13.3709 14.4512C13.6879 14.7192 14.1619 14.6792 14.4279 14.3622C14.6949 14.0452 14.6549 13.5722 14.3379 13.3052C12.9789 12.1592 11.0119 12.1602 9.66186 13.3062C9.34586 13.5742 9.30686 14.0472 9.57386 14.3632C9.72286 14.5382 9.93386 14.6282 10.1469 14.6282C10.3179 14.6282 10.4909 14.5702 10.6309 14.4512C11.4109 13.7902 12.5879 13.7922 13.3709 14.4512Z" fill="black"/>
<path d="M11.2499 16.0482C11.2499 16.4622 11.5859 16.7732 11.9999 16.7732C12.4139 16.7732 12.7499 16.4122 12.7499 15.9982C12.7499 15.5842 12.4139 15.2482 11.9999 15.2482C11.5859 15.2482 11.2499 15.5842 11.2499 15.9982V16.0482Z" fill="black"/>
</svg>