<svg width="24" height="24" viewBox="0 0 24 24" fill="none" xmlns="http://www.w3.org/2000/svg">
<path d="M9.85547 10.145C9.85547 8.96106 10.8165 8 12.0005 8C13.1845 8 14.1456 8.96106 14.1456 10.145C14.1456 10.7747 13.9798 11.2151 13.7209 11.6582C13.1908 12.5653 12.2525 13.4422 11.5409 14.202L9.85695 16H14.1456" stroke="black" stroke-width="1.5" stroke-linecap="round" stroke-linejoin="round"/>
<path d="M7.78313 3H16.2178C19.1659 3 21 5.08022 21 8.02638V15.9736C21 18.9188 19.1659 21 16.2169 21H7.78313C4.83503 21 3 18.9188 3 15.9736V8.02638C3 5.08022 4.84378 3 7.78313 3Z" stroke="black" stroke-width="1.5" stroke-linecap="round" stroke-linejoin="round"/>
</svg>
