<svg width="24" height="24" viewBox="0 0 24 24" fill="none" xmlns="http://www.w3.org/2000/svg">
<path d="M9.625 14.6837C10.0509 15.4673 10.8877 16 11.8504 16C13.2447 16 14.375 14.8824 14.375 13.5038C14.375 12.1252 13.2447 11.0076 11.8504 11.0076C11.269 11.0076 10.5471 11.2145 10.1203 11.541L10.7767 7.99995H13.9106" stroke="black" stroke-width="1.5" stroke-linecap="round" stroke-linejoin="round"/>
<path d="M7.78313 3H16.2178C19.1659 3 21 5.08022 21 8.02638V15.9736C21 18.9188 19.1659 21 16.2169 21H7.78313C4.83503 21 3 18.9188 3 15.9736V8.02638C3 5.08022 4.84378 3 7.78313 3Z" stroke="black" stroke-width="1.5" stroke-linecap="round" stroke-linejoin="round"/>
</svg>
