<svg width="24" height="24" viewBox="0 0 24 24" fill="none" xmlns="http://www.w3.org/2000/svg">
<path d="M12.0002 3C15.2675 3 17.9145 5.64703 17.9145 8.91429V15.0857C17.9145 18.3503 15.2681 21 12.0002 21H9.08114C8.08703 21 7.28114 20.1941 7.28114 19.2C7.28114 18.2059 8.08703 17.4 9.08114 17.4H12.0002C13.2787 17.4 14.3145 16.3633 14.3145 15.0857V14.8286H12.0002C8.73502 14.8286 6.08594 12.1795 6.08594 8.91429C6.08594 5.64644 8.73561 3 12.0002 3Z" stroke="black" stroke-width="1.5" stroke-linecap="round" stroke-linejoin="round"/>
<path d="M11.9998 6.60156C10.7223 6.60156 9.68555 7.6374 9.68555 8.91585C9.68555 10.1928 10.7229 11.2301 11.9998 11.2301H14.3141V8.91585C14.3141 7.63682 13.2789 6.60156 11.9998 6.60156Z" stroke="black" stroke-width="1.5" stroke-linecap="round" stroke-linejoin="round"/>
</svg>
