<svg width="24" height="24" viewBox="0 0 24 24" fill="none" xmlns="http://www.w3.org/2000/svg">
<path fill-rule="evenodd" clip-rule="evenodd" d="M11.9999 6.6C10.8629 6.6 9.93887 7.52403 9.93887 8.66108C9.93887 9.65519 9.13298 10.4611 8.13887 10.4611C7.14475 10.4611 6.33887 9.65519 6.33887 8.66108C6.33887 5.5358 8.87467 3 11.9999 3C15.1252 3 17.661 5.5358 17.661 8.66108C17.661 10.182 17.2393 11.2856 16.6508 12.2928C15.7702 13.7998 14.3363 15.2784 13.2173 16.4323C12.9522 16.7058 12.7047 16.9609 12.4865 17.194L12.2935 17.4H15.861C16.8551 17.4 17.661 18.2059 17.661 19.2C17.661 20.1941 16.8551 21 15.861 21H8.14152C7.42421 21 6.77536 20.5741 6.49004 19.916C6.20472 19.2578 6.3374 18.4931 6.82775 17.9696L9.85894 14.7331C10.1749 14.3958 10.4918 14.0675 10.8026 13.7454C11.8911 12.6177 12.9054 11.5669 13.5425 10.4765C13.886 9.88882 14.061 9.40682 14.061 8.66108C14.061 7.52403 13.137 6.6 11.9999 6.6Z" stroke="black" stroke-width="1.5" stroke-linecap="round" stroke-linejoin="round"/>
</svg>
