<svg width="24" height="24" viewBox="0 0 24 24" fill="none" xmlns="http://www.w3.org/2000/svg">
<path fill-rule="evenodd" clip-rule="evenodd" d="M9.5073 9.13789C8.29528 9.14831 7.31543 9.96327 7.31543 11.3497C7.31543 12.2471 7.84894 13.0194 8.61653 13.3662C8.93967 13.497 9.26091 13.5472 9.5054 13.5472H14.7382C14.9827 13.5472 15.3049 13.4998 15.6318 13.3691C16.3994 13.0213 16.932 12.2471 16.932 11.3497C16.932 9.96327 15.9521 9.14831 14.7401 9.13789C14.7401 8.26607 14.0559 6.52148 12.1237 6.52148C10.1915 6.52148 9.5073 8.26607 9.5073 9.13789Z" stroke="black" stroke-width="1.5" stroke-linecap="round" stroke-linejoin="round"/>
<circle cx="13.0677" cy="19.0681" r="1.93137" transform="rotate(90 13.0677 19.0681)" stroke="black" stroke-width="1.5" stroke-linecap="round" stroke-linejoin="round"/>
<circle cx="18.3838" cy="4.76072" r="1.76072" transform="rotate(90 18.3838 4.76072)" stroke="black" stroke-width="1.5" stroke-linecap="round" stroke-linejoin="round"/>
<circle cx="5.61669" cy="17.0249" r="1.30616" transform="rotate(90 5.61669 17.0249)" stroke="black" stroke-width="1.5" stroke-linecap="round" stroke-linejoin="round"/>
<circle cx="4.31005" cy="5.95069" r="1.30616" transform="rotate(90 4.31005 5.95069)" stroke="black" stroke-width="1.5" stroke-linecap="round" stroke-linejoin="round"/>
<circle cx="19.6899" cy="16.0015" r="1.30616" transform="rotate(90 19.6899 16.0015)" stroke="black" stroke-width="1.5" stroke-linecap="round" stroke-linejoin="round"/>
<path d="M17.0205 5.94727L14.4922 8.10913" stroke="black" stroke-width="1.5" stroke-linecap="round" stroke-linejoin="round"/>
<path d="M5.47852 6.72266L8.37402 9.37354" stroke="black" stroke-width="1.5" stroke-linecap="round" stroke-linejoin="round"/>
<path d="M6.45703 15.9392L8.49609 13.4512" stroke="black" stroke-width="1.5" stroke-linecap="round" stroke-linejoin="round"/>
<path d="M18.6632 15.1217L16.2861 13.002" stroke="black" stroke-width="1.5" stroke-linecap="round" stroke-linejoin="round"/>
<path d="M12.7499 17.1379L12.1553 13.5742" stroke="black" stroke-width="1.5" stroke-linecap="round" stroke-linejoin="round"/>
</svg>
