<svg width="24" height="24" viewBox="0 0 24 24" fill="none" xmlns="http://www.w3.org/2000/svg">
<path fill-rule="evenodd" clip-rule="evenodd" d="M12 3C16.9709 3 21 7.02908 21 12C21 16.9709 16.9709 21 12 21C7.02908 21 3 16.9709 3 12C3 7.02908 7.02908 3 12 3Z" stroke="black" stroke-width="1.5" stroke-linecap="round" stroke-linejoin="round"/>
<path fill-rule="evenodd" clip-rule="evenodd" d="M11.9998 3C13.8504 3 15.3498 7.02908 15.3498 12C15.3498 16.9709 13.8504 21 11.9998 21C10.1493 21 8.6499 16.9709 8.6499 12C8.6499 7.02908 10.1493 3 11.9998 3Z" stroke="black" stroke-width="1.5" stroke-linecap="round" stroke-linejoin="round"/>
<path fill-rule="evenodd" clip-rule="evenodd" d="M21 11.9984C21 13.849 16.9709 15.3483 12 15.3483C7.02908 15.3483 3 13.849 3 11.9984C3 10.1478 7.02908 8.64844 12 8.64844C16.9709 8.64844 21 10.1478 21 11.9984Z" stroke="black" stroke-width="1.5" stroke-linecap="round" stroke-linejoin="round"/>
</svg>
