<svg width="24" height="24" viewBox="0 0 24 24" fill="none" xmlns="http://www.w3.org/2000/svg">
<path d="M11.2083 20.4613C6.70696 20.0973 3.17773 16.3326 3.17773 11.7399C3.17773 6.91942 7.0884 3 11.9176 3C16.3829 3 20.0571 6.3463 20.5845 10.6666" stroke="black" stroke-width="1.5" stroke-linecap="round" stroke-linejoin="round"/>
<path d="M15.1557 10.8486C15.1285 10.1022 15.0652 9.38414 14.965 8.70204C14.5096 5.37325 13.3186 3 11.9184 3C10.5269 3 9.32621 5.37325 8.8718 8.70204C8.7346 9.64783 8.6626 10.6666 8.6626 11.7399C8.6626 12.8131 8.7346 13.8407 8.8718 14.7865C9.18999 17.0965 10.1718 19.3248 11.2091 20.4613" stroke="black" stroke-width="1.5" stroke-linecap="round" stroke-linejoin="round"/>
<path d="M3.17773 11.7502H11.5226" stroke="black" stroke-width="1.5" stroke-linecap="round" stroke-linejoin="round"/>
<path fill-rule="evenodd" clip-rule="evenodd" d="M17.4955 20.9991C17.4955 20.9991 20.7961 19.9998 20.7961 17.2451C20.7961 14.4904 20.9158 14.578 20.6501 14.3114C20.3855 14.0438 17.9285 13.1895 17.4955 13.1895C17.0625 13.1895 14.6056 14.0457 14.3399 14.3114C14.0753 14.576 14.195 14.4894 14.195 17.2451C14.195 20.0008 17.4955 20.9991 17.4955 20.9991Z" stroke="black" stroke-width="1.5" stroke-linecap="round" stroke-linejoin="round"/>
</svg>
