<svg width="24" height="24" viewBox="0 0 24 24" fill="none" xmlns="http://www.w3.org/2000/svg">
<path d="M20.9255 12.0059V7.98459C20.9255 5.06272 19.106 3 16.1822 3H7.81751C4.90245 3 3.07422 5.06272 3.07422 7.98459V15.8657C3.07422 18.7866 4.8937 20.8503 7.81751 20.8503H9.55331" stroke="black" stroke-width="1.5" stroke-linecap="round" stroke-linejoin="round"/>
<path fill-rule="evenodd" clip-rule="evenodd" d="M19.387 14.8654C20.0252 15.5164 20.4183 16.4076 20.4183 17.3913C20.4183 19.3849 18.8032 21.0001 16.8095 21.0001C15.8005 21.0001 14.8879 20.5856 14.2331 19.9172" stroke="black" stroke-width="1.5" stroke-linecap="round" stroke-linejoin="round"/>
<path fill-rule="evenodd" clip-rule="evenodd" d="M19.387 14.8654C18.7321 14.197 17.8199 13.7827 16.81 13.7827C14.8173 13.7827 13.2012 15.3988 13.2012 17.3915C13.2012 18.3752 13.5948 19.2662 14.2331 19.9172" stroke="black" stroke-width="1.5" stroke-linecap="round" stroke-linejoin="round"/>
<path d="M19.3863 14.8652L14.2324 19.917" stroke="black" stroke-width="1.5" stroke-linecap="round" stroke-linejoin="round"/>
<path d="M6.3914 6.52051H6.33594M8.85616 6.52051H8.8007M11.3209 6.52051H11.2655" stroke="black" stroke-width="1.5" stroke-linecap="round" stroke-linejoin="round"/>
<path d="M20.9255 9.43799H3.07422" stroke="black" stroke-width="1.5" stroke-linecap="round" stroke-linejoin="round"/>
</svg>
