<svg width="24" height="24" viewBox="0 0 24 24" fill="none" xmlns="http://www.w3.org/2000/svg">
<path d="M20.6889 12.7072V7.85266C20.6889 5.00926 18.9183 3 16.072 3H7.92792C5.09016 3 3.31104 5.00926 3.31104 7.85266V15.5252C3.31104 18.3686 5.0817 20.3779 7.92792 20.3779H9.6178" stroke="black" stroke-width="1.5" stroke-linecap="round" stroke-linejoin="round"/>
<path d="M16.9835 19.2942L18.6631 20.1472C18.0619 20.6779 17.271 21.0001 16.4058 21.0001C14.5215 21.0001 12.9941 19.4727 12.9941 17.5884" stroke="black" stroke-width="1.5" stroke-linecap="round" stroke-linejoin="round"/>
<path d="M15.828 15.8826L14.1484 15.0297C14.7496 14.499 15.5396 14.1768 16.4057 14.1768C18.29 14.1768 19.8174 15.7041 19.8174 17.5885" stroke="black" stroke-width="1.5" stroke-linecap="round" stroke-linejoin="round"/>
<path d="M6.53792 6.42725H6.48438M8.93857 6.42725H8.88503M11.3383 6.42725H11.2848" stroke="black" stroke-width="1.5" stroke-linecap="round" stroke-linejoin="round"/>
<path d="M20.6884 9.26758H3.31055" stroke="black" stroke-width="1.5" stroke-linecap="round" stroke-linejoin="round"/>
</svg>
