<svg width="25" height="24" viewBox="0 0 25 24" fill="none" xmlns="http://www.w3.org/2000/svg">
<path d="M3.97632 9.46289H16.9229" stroke="black" stroke-width="1.5" stroke-linecap="round" stroke-linejoin="round"/>
<path d="M15.354 3V5.87229" stroke="black" stroke-width="1.5" stroke-linecap="round" stroke-linejoin="round"/>
<path d="M8.30151 3V5.87229" stroke="black" stroke-width="1.5" stroke-linecap="round" stroke-linejoin="round"/>
<path d="M10.2835 20.4557H8.13318C5.56933 20.4557 3.96875 18.9942 3.96875 16.3292V8.43039C3.96875 6.75647 4.62002 5.56913 5.75713 4.92871" stroke="black" stroke-width="1.5" stroke-linecap="round" stroke-linejoin="round"/>
<path d="M19.6788 11.365V8.43144C19.6865 5.80727 18.0937 4.37891 15.5231 4.37891H15.3711" stroke="black" stroke-width="1.5" stroke-linecap="round" stroke-linejoin="round"/>
<path d="M8.30566 4.37891H12.6764" stroke="black" stroke-width="1.5" stroke-linecap="round" stroke-linejoin="round"/>
<path d="M16.6692 21C14.5364 21 12.8074 19.271 12.8074 17.1382C12.8074 15.0054 14.5364 13.2754 16.6692 13.2754C18.803 13.2754 20.532 15.0054 20.532 17.1382C20.532 18.328 19.9939 19.3921 19.1477 20.1005" stroke="black" stroke-width="1.5" stroke-linecap="round" stroke-linejoin="round"/>
<path d="M17.8693 18.142L16.6482 17.4122V15.8428" stroke="black" stroke-width="1.5" stroke-linecap="round" stroke-linejoin="round"/>
<path d="M7.91577 12.9414H7.92577" stroke="black" stroke-width="1.5" stroke-linecap="round" stroke-linejoin="round"/>
<path d="M7.91577 16.418H7.92577" stroke="black" stroke-width="1.5" stroke-linecap="round" stroke-linejoin="round"/>
<path d="M11.5837 12.9414H11.5937" stroke="black" stroke-width="1.5" stroke-linecap="round" stroke-linejoin="round"/>
</svg>