<svg width="24" height="24" viewBox="0 0 24 24" fill="none" xmlns="http://www.w3.org/2000/svg">
<path fill-rule="evenodd" clip-rule="evenodd" d="M11.9176 3.75C7.5031 3.75 3.92773 7.33314 3.92773 11.7399C3.92773 15.9394 7.15442 19.3811 11.2687 19.7137C11.6816 19.7471 11.9892 20.1088 11.9558 20.5217C11.9224 20.9346 11.5607 21.2422 11.1478 21.2088C6.2595 20.8136 2.42773 16.7259 2.42773 11.7399C2.42773 6.5057 6.67369 2.25 11.9176 2.25C16.7672 2.25 20.7563 5.88436 21.329 10.5757C21.3792 10.9869 21.0866 11.3609 20.6754 11.4111C20.2642 11.4613 19.8902 11.1687 19.84 10.7575C19.3579 6.80824 15.9986 3.75 11.9176 3.75Z" fill="black"/>
<path fill-rule="evenodd" clip-rule="evenodd" d="M9.37993 4.2536C9.93347 3.20118 10.7719 2.25 11.9184 2.25C13.0688 2.25 13.9071 3.20028 14.4601 4.25422C15.0432 5.36529 15.4726 6.88147 15.7076 8.5967C15.8119 9.30743 15.8771 10.0517 15.9052 10.8212C15.9203 11.2351 15.597 11.583 15.1831 11.5981C14.7691 11.6132 14.4213 11.2899 14.4062 10.8759C14.3799 10.1541 14.3188 9.46343 14.223 8.81106L14.2219 8.8037L14.2219 8.80369C14.0014 7.19165 13.6078 5.85819 13.1319 4.95123C12.6256 3.98635 12.1683 3.75 11.9184 3.75C11.6734 3.75 11.2158 3.98545 10.7075 4.95185C10.2304 5.85897 9.83484 7.19237 9.61491 8.80348L9.61406 8.80971L9.61403 8.80971C9.4824 9.71711 9.4126 10.6998 9.4126 11.7399C9.4126 12.7803 9.48245 13.7717 9.61403 14.6788L9.61481 14.6841L9.61479 14.6841C9.91845 16.8887 10.855 18.9608 11.763 19.9557C12.0422 20.2616 12.0206 20.736 11.7146 21.0152C11.4087 21.2945 10.9343 21.2728 10.6551 20.9669C9.48901 19.6892 8.46229 17.306 8.12919 14.8915C7.98663 13.9078 7.9126 12.845 7.9126 11.7399C7.9126 10.6346 7.98664 9.58079 8.12912 8.59749C8.36369 6.88109 8.79556 5.36463 9.37993 4.2536Z" fill="black"/>
<path fill-rule="evenodd" clip-rule="evenodd" d="M2.42773 11.7498C2.42773 11.3355 2.76352 10.9998 3.17773 10.9998H11.5226C11.9368 10.9998 12.2726 11.3355 12.2726 11.7498C12.2726 12.164 11.9368 12.4998 11.5226 12.4998H3.17773C2.76352 12.4998 2.42773 12.164 2.42773 11.7498Z" fill="black"/>
<path fill-rule="evenodd" clip-rule="evenodd" d="M17.0859 12.4942C17.198 12.4696 17.3531 12.4395 17.4955 12.4395C17.6377 12.4395 17.7927 12.4695 17.9049 12.494C18.0347 12.5224 18.1835 12.5613 18.3397 12.6059C18.653 12.6953 19.0238 12.8154 19.3851 12.9427C19.7458 13.0697 20.1079 13.2076 20.4022 13.334C20.5486 13.3968 20.6875 13.4606 20.8047 13.5222C20.8944 13.5692 21.059 13.6583 21.1834 13.784L20.6501 14.3114L21.1814 13.782C21.1845 13.7851 21.1879 13.7885 21.1915 13.792C21.2577 13.858 21.4055 14.0052 21.4904 14.24C21.5649 14.4463 21.5711 14.6651 21.5727 14.8383C21.574 14.9857 21.5702 15.1822 21.5652 15.434C21.5637 15.5096 21.5621 15.5902 21.5605 15.6759C21.5535 16.056 21.5461 16.5622 21.5461 17.2451C21.5461 18.9633 20.5069 20.0992 19.5841 20.7637C19.118 21.0993 18.6568 21.3346 18.3144 21.4859C18.1421 21.5621 17.9971 21.6181 17.8929 21.6559C17.8407 21.6748 17.7985 21.6892 17.768 21.6993L17.7311 21.7112L17.7196 21.7149L17.7156 21.7161L17.7141 21.7165C17.7138 21.7166 17.7129 21.7169 17.4955 20.9991C17.2784 21.717 17.2781 21.7169 17.2778 21.7168L17.2756 21.7161L17.2716 21.7149L17.2601 21.7113L17.2232 21.6994C17.1927 21.6893 17.1505 21.6749 17.0983 21.656C16.9941 21.6183 16.8491 21.5622 16.6768 21.4861C16.3343 21.3349 15.8731 21.0997 15.407 20.7641C14.484 20.0996 13.445 18.9637 13.445 17.2451C13.445 16.562 13.4375 16.0555 13.4305 15.6752C13.4289 15.5884 13.4273 15.5069 13.4258 15.4305C13.4208 15.1798 13.4169 14.9843 13.4182 14.8374C13.4198 14.6646 13.4258 14.4458 13.5 14.2397C13.5849 14.004 13.7334 13.8567 13.7997 13.7909C13.8032 13.7874 13.8065 13.7841 13.8096 13.781C13.9334 13.6572 14.097 13.5691 14.1867 13.5222C14.3037 13.461 14.4424 13.3974 14.5887 13.3347C14.883 13.2085 15.2449 13.0706 15.6057 12.9434C15.9669 12.8161 16.3377 12.6958 16.651 12.6063C16.8072 12.5616 16.956 12.5227 17.0859 12.4942ZM17.4955 20.9991L17.2778 21.7168C17.4195 21.7597 17.5712 21.7598 17.7129 21.7169L17.4955 20.9991ZM17.4954 20.2027C17.4344 20.1788 17.3627 20.1493 17.2828 20.114C17.0064 19.9919 16.6425 19.8053 16.2834 19.5468C15.5562 19.0232 14.945 18.2822 14.945 17.2451C14.945 16.5504 14.9374 16.0343 14.9303 15.6475C14.9284 15.5491 14.9267 15.4604 14.9251 15.3803C14.9203 15.1385 14.9171 14.9742 14.9182 14.8508C14.9182 14.8445 14.9183 14.8385 14.9184 14.8327C14.985 14.7995 15.0726 14.7592 15.1796 14.7134C15.4343 14.6042 15.7635 14.4783 16.1043 14.3581C16.4446 14.2382 16.7858 14.1278 17.0633 14.0485C17.2025 14.0087 17.3187 13.9787 17.4071 13.9594C17.4511 13.9497 17.4796 13.9447 17.4956 13.942C17.5116 13.9447 17.5402 13.9497 17.5842 13.9593C17.6726 13.9787 17.7889 14.0086 17.9281 14.0483C18.2055 14.1275 18.5466 14.2377 18.8868 14.3575C19.2275 14.4775 19.5564 14.6033 19.8107 14.7124C19.9183 14.7586 20.006 14.799 20.0725 14.8323C20.0726 14.8387 20.0727 14.8453 20.0728 14.8521C20.0739 14.9759 20.0706 15.141 20.0658 15.3843C20.0643 15.4635 20.0625 15.5511 20.0608 15.6482C20.0536 16.0348 20.0461 16.5506 20.0461 17.2451C20.0461 18.2816 19.4349 19.0227 18.7075 19.5465C18.3484 19.8051 17.9845 19.9918 17.7081 20.1139C17.6281 20.1492 17.5564 20.1788 17.4954 20.2027Z" fill="black"/>
</svg>
