<svg width="24" height="24" viewBox="0 0 24 24" fill="none" xmlns="http://www.w3.org/2000/svg">
<path fill-rule="evenodd" clip-rule="evenodd" d="M12.0013 5.67773C10.9952 5.67773 10.1797 6.49328 10.1797 7.4993C10.1797 8.50532 10.9952 9.32086 12.0013 9.32086C13.0073 9.32086 13.8228 8.50532 13.8228 7.4993C13.8228 6.49328 13.0073 5.67773 12.0013 5.67773ZM8.67969 7.4993C8.67969 5.66485 10.1668 4.17773 12.0013 4.17773C13.8357 4.17773 15.3228 5.66485 15.3228 7.4993C15.3228 9.33375 13.8357 10.8209 12.0013 10.8209C10.1668 10.8209 8.67969 9.33375 8.67969 7.4993Z" fill="black"/>
<path fill-rule="evenodd" clip-rule="evenodd" d="M5.57156 14.6777C4.56554 14.6777 3.75 15.4933 3.75 16.4993C3.75 17.5053 4.56554 18.3209 5.57156 18.3209C6.57758 18.3209 7.39313 17.5053 7.39313 16.4993C7.39313 15.4933 6.57758 14.6777 5.57156 14.6777ZM2.25 16.4993C2.25 14.6648 3.73711 13.1777 5.57156 13.1777C7.40601 13.1777 8.89313 14.6648 8.89313 16.4993C8.89313 18.3337 7.40601 19.8209 5.57156 19.8209C3.73711 19.8209 2.25 18.3337 2.25 16.4993Z" fill="black"/>
<path fill-rule="evenodd" clip-rule="evenodd" d="M18.4287 14.6777C17.4227 14.6777 16.6072 15.4933 16.6072 16.4993C16.6072 17.5053 17.4227 18.3209 18.4287 18.3209C19.4348 18.3209 20.2503 17.5053 20.2503 16.4993C20.2503 15.4933 19.4348 14.6777 18.4287 14.6777ZM15.1072 16.4993C15.1072 14.6648 16.5943 13.1777 18.4287 13.1777C20.2632 13.1777 21.7503 14.6648 21.7503 16.4993C21.7503 18.3337 20.2632 19.8209 18.4287 19.8209C16.5943 19.8209 15.1072 18.3337 15.1072 16.4993Z" fill="black"/>
<path fill-rule="evenodd" clip-rule="evenodd" d="M10.5064 8.81749C10.8435 9.05825 10.9215 9.52666 10.6808 9.86372L7.46632 14.364C7.22556 14.701 6.75715 14.7791 6.42009 14.5383C6.08303 14.2976 6.00496 13.8292 6.24572 13.4921L9.46017 8.99186C9.70093 8.6548 10.1693 8.57674 10.5064 8.81749ZM13.4919 8.81749C13.8289 8.57674 14.2974 8.6548 14.5381 8.99186L17.7526 13.4921C17.9933 13.8292 17.9153 14.2976 17.5782 14.5383C17.2411 14.7791 16.7727 14.701 16.532 14.364L13.3175 9.86372C13.0768 9.52666 13.1548 9.05825 13.4919 8.81749Z" fill="black"/>
</svg>
