<svg width="24" height="24" viewBox="0 0 24 24" fill="none" xmlns="http://www.w3.org/2000/svg">
<path fill-rule="evenodd" clip-rule="evenodd" d="M3.83337 3.88023C4.80795 2.83482 6.19552 2.25 7.83293 2.25H16.167C17.8087 2.25 19.1968 2.83447 20.1706 3.88064C21.1388 4.92073 21.6415 6.35607 21.6415 7.96582V11.9723C21.6415 12.3865 21.3058 12.7223 20.8915 12.7223C20.4773 12.7223 20.1415 12.3865 20.1415 11.9723V10.1638H3.8584V15.8173C3.8584 17.1175 4.26161 18.1651 4.92761 18.8804C5.58798 19.5898 6.56225 20.0331 7.83293 20.0331H9.56279C9.97701 20.0331 10.3128 20.3689 10.3128 20.7831C10.3128 21.1974 9.97701 21.5331 9.56279 21.5331H7.83293C6.19164 21.5331 4.80365 20.9486 3.82974 19.9025C2.86147 18.8625 2.3584 17.4272 2.3584 15.8173V7.96582C2.3584 6.35502 2.86423 4.91981 3.83337 3.88023ZM3.8584 8.66381H20.1415V7.96582C20.1415 6.66554 19.7385 5.61797 19.0727 4.90266C18.4125 4.19342 17.4382 3.75 16.167 3.75H7.83293C6.56712 3.75 5.59243 4.19308 4.93055 4.90307C4.26323 5.61889 3.8584 6.66659 3.8584 7.96582V8.66381ZM5.6067 6.50738C5.6067 6.09317 5.94248 5.75738 6.3567 5.75738H6.41215C6.82637 5.75738 7.16215 6.09317 7.16215 6.50738C7.16215 6.92159 6.82637 7.25738 6.41215 7.25738H6.3567C5.94248 7.25738 5.6067 6.92159 5.6067 6.50738ZM8.06181 6.50738C8.06181 6.09317 8.3976 5.75738 8.81181 5.75738H8.86727C9.28149 5.75738 9.61727 6.09317 9.61727 6.50738C9.61727 6.92159 9.28149 7.25738 8.86727 7.25738H8.81181C8.3976 7.25738 8.06181 6.92159 8.06181 6.50738ZM10.5188 6.50738C10.5188 6.09317 10.8546 5.75738 11.2688 5.75738H11.3243C11.7385 5.75738 12.0743 6.09317 12.0743 6.50738C12.0743 6.92159 11.7385 7.25738 11.3243 7.25738H11.2688C10.8546 7.25738 10.5188 6.92159 10.5188 6.50738ZM16.6381 13.9118C17.0523 13.9118 17.3881 14.2476 17.3882 14.6618L17.3884 19.1894L18.8003 17.7776C19.0932 17.4847 19.568 17.4847 19.8609 17.7776C20.1538 18.0705 20.1538 18.5453 19.8609 18.8382L17.1689 21.5303C17.0282 21.671 16.8374 21.75 16.6385 21.75C16.4395 21.75 16.2487 21.6709 16.1081 21.5302L13.417 18.8381C13.1241 18.5452 13.1242 18.0703 13.4172 17.7775C13.7101 17.4846 14.185 17.4847 14.4778 17.7777L15.8884 19.1888L15.8882 14.6619C15.8881 14.2476 16.2239 13.9118 16.6381 13.9118Z" fill="black"/>
</svg>
