<svg width="24" height="24" viewBox="0 0 24 24" fill="none" xmlns="http://www.w3.org/2000/svg">
<path fill-rule="evenodd" clip-rule="evenodd" d="M3.74069 3.8977C4.72536 2.84161 6.12751 2.25049 7.78288 2.25049H16.2171C17.8764 2.25049 19.2788 2.84132 20.2625 3.89814C21.2407 4.9489 21.7491 6.39929 21.7491 8.0266V9.45362C21.7497 9.46623 21.75 9.47893 21.75 9.4917C21.75 9.50447 21.7497 9.51716 21.7491 9.52978V15.9734C21.7491 17.6007 21.2407 19.0512 20.2624 20.1019C19.2785 21.1588 17.8759 21.7495 16.2162 21.7495H7.78288C6.12362 21.7495 4.72106 21.1587 3.73707 20.102C2.7587 19.0512 2.25 17.6008 2.25 15.9734V8.0266C2.25 6.39825 2.76145 4.94796 3.74069 3.8977ZM20.2491 8.7417V8.0266C20.2491 6.70887 19.8405 5.64622 19.1646 4.92017C18.4944 4.2002 17.5058 3.75049 16.2171 3.75049H7.78288C6.49906 3.75049 5.50977 4.1999 4.8378 4.92061C4.16039 5.64715 3.75 6.70992 3.75 8.0266V8.7417H20.2491ZM3.75 10.2417H20.2491V15.9734C20.2491 17.2912 19.8405 18.3538 19.1645 19.0798C18.4942 19.7998 17.5054 20.2495 16.2162 20.2495H7.78288C6.49419 20.2495 5.50531 19.7998 4.83485 19.0798C4.15876 18.3537 3.75 17.291 3.75 15.9734V10.2417ZM5.53914 6.55013C5.53914 6.13592 5.87492 5.80013 6.28914 5.80013H6.34459C6.75881 5.80013 7.09459 6.13592 7.09459 6.55013C7.09459 6.96434 6.75881 7.30013 6.34459 7.30013H6.28914C5.87492 7.30013 5.53914 6.96434 5.53914 6.55013ZM8.02465 6.55013C8.02465 6.13592 8.36043 5.80013 8.77465 5.80013H8.8301C9.24432 5.80013 9.5801 6.13592 9.5801 6.55013C9.5801 6.96434 9.24432 7.30013 8.8301 7.30013H8.77465C8.36043 7.30013 8.02465 6.96434 8.02465 6.55013ZM10.5102 6.55013C10.5102 6.13592 10.8459 5.80013 11.2602 5.80013H11.3156C11.7298 5.80013 12.0656 6.13592 12.0656 6.55013C12.0656 6.96434 11.7298 7.30013 11.3156 7.30013H11.2602C10.8459 7.30013 10.5102 6.96434 10.5102 6.55013ZM7.92769 13.6963C7.70617 13.6963 7.52672 13.8756 7.52672 14.0973V15.5868C7.52672 15.8085 7.70617 15.9878 7.92769 15.9878H9.4182C9.63972 15.9878 9.81917 15.8085 9.81917 15.5868V14.0973C9.81917 13.8756 9.63972 13.6963 9.4182 13.6963H7.92769ZM6.02672 14.0973C6.02672 13.0464 6.87857 12.1963 7.92769 12.1963H9.4182C10.4673 12.1963 11.3192 13.0464 11.3192 14.0973V15.5868C11.3192 16.6378 10.4673 17.4878 9.4182 17.4878H7.92769C6.87857 17.4878 6.02672 16.6378 6.02672 15.5868V14.0973ZM12.9436 13.1891C12.9436 12.7749 13.2794 12.4391 13.6936 12.4391H17.2233C17.6376 12.4391 17.9733 12.7749 17.9733 13.1891C17.9733 13.6033 17.6376 13.9391 17.2233 13.9391H13.6936C13.2794 13.9391 12.9436 13.6033 12.9436 13.1891ZM12.9436 16.495C12.9436 16.0808 13.2794 15.745 13.6936 15.745H17.2233C17.6376 15.745 17.9733 16.0808 17.9733 16.495C17.9733 16.9092 17.6376 17.245 17.2233 17.245H13.6936C13.2794 17.245 12.9436 16.9092 12.9436 16.495Z" fill="black"/>
</svg>
