<svg width="24" height="24" viewBox="0 0 24 24" fill="none" xmlns="http://www.w3.org/2000/svg">
<path opacity="0.4" d="M3.92307 4.06782C4.85544 3.06754 6.18863 2.5 7.78216 2.5H16.2169C17.8144 2.5 19.1481 3.06733 20.0799 4.06801C21.0079 5.06467 21.5 6.45052 21.5 8.02638V15.9736C21.5 17.5495 21.0079 18.9353 20.0798 19.932C19.1478 20.9327 17.8139 21.5 16.2159 21.5H7.78216C6.18457 21.5 4.85111 20.9327 3.91956 19.9319C2.99178 18.9353 2.5 17.5494 2.5 15.9736V8.02638C2.5 6.44997 2.99434 5.06421 3.92307 4.06782Z" fill="black"/>
<path d="M15.5174 8.78368C13.7407 7.007 10.8597 7.007 9.083 8.78368C7.30642 10.5603 7.30616 13.4414 9.08317 15.2173C10.8599 16.9948 13.741 16.9947 15.5176 15.2169C15.8104 14.9239 15.8102 14.4491 15.5172 14.1563C15.2242 13.8635 14.7493 13.8636 14.4566 14.1566C13.2657 15.3482 11.3347 15.3482 10.1438 14.1566C8.95327 12.9668 8.95267 11.0353 10.1437 9.84434C11.3345 8.65345 13.2658 8.65345 14.4567 9.84434C14.7496 10.1372 15.2245 10.1372 15.5174 9.84434C15.8103 9.55145 15.8103 9.07657 15.5174 8.78368Z" fill="black"/>
</svg>