<svg width="24" height="24" viewBox="0 0 24 24" fill="none" xmlns="http://www.w3.org/2000/svg">
<path opacity="0.4" d="M7.783 21.5H16.217C19.377 21.5 21.5 19.279 21.5 15.974V8.027C21.5 4.721 19.377 2.5 16.218 2.5H7.783C4.623 2.5 2.5 4.721 2.5 8.027V15.974C2.5 19.279 4.623 21.5 7.783 21.5Z" fill="black"/>
<path d="M17.4285 5.61027C17.4285 5.13386 17.0922 4.71546 16.6166 4.68638C16.4856 4.67837 16.3527 4.67432 16.2178 4.67432H11.7334C11.1811 4.67432 10.7334 5.12203 10.7334 5.67432V15.0562C10.7334 15.3221 10.8734 15.5671 11.1024 15.7021C11.1552 15.7333 11.211 15.7574 11.2685 15.7747C11.3384 15.7956 11.4109 15.8062 11.4834 15.8062C11.6084 15.8062 11.7334 15.7751 11.8464 15.7122L14.0894 14.4721L16.3154 15.7111C16.5474 15.8401 16.8304 15.8381 17.0594 15.7021C17.2894 15.5681 17.4294 15.3221 17.4294 15.0562L17.4285 5.61027Z" fill="black"/>
</svg>