<svg width="24" height="24" viewBox="0 0 24 24" fill="none" xmlns="http://www.w3.org/2000/svg">
<path opacity="0.4" d="M2.519 15.991C2.527 19.288 4.646 21.5 7.794 21.5H7.81L16.234 21.48C17.805 21.477 19.139 20.932 20.09 19.904C21.016 18.906 21.503 17.537 21.499 15.946L21.481 8.008C21.472 4.712 19.353 2.5 16.205 2.5H16.19L7.765 2.52C4.609 2.528 2.493 4.751 2.501 8.053L2.519 15.991Z" fill="black"/>
<path d="M9.07276 12.7533C8.95284 12.7533 8.83294 12.7207 8.72626 12.6555C8.5314 12.5356 8.4115 12.3222 8.4115 12.093L8.4043 5.76882C8.40367 5.21702 8.85012 4.76899 9.40192 4.76768L14.5786 4.75537C15.1309 4.75406 15.5797 5.20084 15.5809 5.75321L15.5946 12.0727C15.5946 12.3028 15.4764 12.5153 15.2816 12.637C15.0858 12.7577 14.8425 12.7692 14.6371 12.6652L12.0123 11.3488L9.37076 12.6819C9.27642 12.7295 9.17504 12.7533 9.07276 12.7533Z" fill="black"/>
</svg>