<svg width="24" height="24" viewBox="0 0 24 24" fill="none" xmlns="http://www.w3.org/2000/svg">
<path opacity="0.4" fill-rule="evenodd" clip-rule="evenodd" d="M5.63615 21.1739C5.62846 21.1742 5.62074 21.1743 5.613 21.1743C4.718 21.1743 3.876 20.8313 3.244 20.2093C2.601 19.5613 2.25 18.7173 2.25 17.8243V10.5743C2.25 9.89628 2.583 9.29028 3.142 8.95228C3.661 8.63728 4.293 8.61928 4.832 8.89928L5.484 9.23928C5.667 9.33328 5.883 9.33828 6.09 9.25228L7.319 8.69928C7.36886 8.67899 7.41859 8.66358 7.46816 8.65252V5.28393C7.46816 4.60993 7.79916 4.00393 8.35316 3.66393C8.87016 3.34693 9.50016 3.32093 10.0412 3.59493L10.7012 3.93893C10.8902 4.04093 11.0962 4.04593 11.2942 3.95793L13.1402 3.13893C14.0882 2.72093 15.1302 2.72193 16.0762 3.13793L17.9242 3.95793C18.1212 4.04593 18.3282 4.04093 18.5072 3.94493L19.1712 3.59893C19.7182 3.32093 20.3502 3.34593 20.8662 3.66393C21.4202 4.00393 21.7502 4.60993 21.7502 5.28393L21.7422 16.7549C21.7422 19.4809 20.2132 21.1739 17.7512 21.1739H5.63615ZM7.46816 10.2772V17.8239C7.46816 18.8439 6.63616 19.6739 5.61316 19.6739C5.60658 19.6739 5.60001 19.674 5.59347 19.6742C5.1018 19.6693 4.64151 19.4799 4.302 19.1453C3.946 18.7873 3.75 18.3183 3.75 17.8243V10.5743C3.75 10.3533 3.879 10.2593 3.918 10.2353C4.02095 10.1706 4.10467 10.2126 4.13618 10.2284L4.138 10.2293L4.795 10.5713C5.376 10.8713 6.06 10.8933 6.689 10.6283L7.46816 10.2772Z" fill="black"/>
<path fill-rule="evenodd" clip-rule="evenodd" d="M14.0817 9.71338H11.9697C11.5557 9.71338 11.2197 9.37738 11.2197 8.96338C11.2197 8.54938 11.5557 8.21338 11.9697 8.21338H14.0817C14.4957 8.21338 14.8317 8.54938 14.8317 8.96338C14.8317 9.37738 14.4957 9.71338 14.0817 9.71338ZM17.3577 12.9934H11.9697C11.5557 12.9934 11.2197 12.6574 11.2197 12.2434C11.2197 11.8294 11.5557 11.4934 11.9697 11.4934H17.3577C17.7717 11.4934 18.1077 11.8294 18.1077 12.2434C18.1077 12.6574 17.7717 12.9934 17.3577 12.9934ZM17.3577 16.6734H11.9697C11.5557 16.6734 11.2197 16.3374 11.2197 15.9234C11.2197 15.5094 11.5557 15.1734 11.9697 15.1734H17.3577C17.7717 15.1734 18.1077 15.5094 18.1077 15.9234C18.1077 16.3374 17.7717 16.6734 17.3577 16.6734Z" fill="black"/>
</svg>