<svg width="24" height="24" viewBox="0 0 24 24" fill="none" xmlns="http://www.w3.org/2000/svg">
<path opacity="0.4" fill-rule="evenodd" clip-rule="evenodd" d="M5.63615 21.1739C5.62846 21.1742 5.62074 21.1743 5.613 21.1743C4.718 21.1743 3.876 20.8313 3.244 20.2093C2.601 19.5613 2.25 18.7173 2.25 17.8243V10.5743C2.25 9.89628 2.583 9.29028 3.142 8.95228C3.66 8.63728 4.292 8.61928 4.832 8.89928L5.484 9.23928C5.666 9.33328 5.884 9.33828 6.09 9.25228L7.319 8.69928C7.36887 8.67899 7.41861 8.66357 7.46819 8.65251V5.28393C7.46819 4.60993 7.79919 4.00393 8.35319 3.66393C8.87019 3.34693 9.50119 3.32093 10.0412 3.59493L10.7012 3.93893C10.8892 4.04093 11.0972 4.04593 11.2942 3.95793L13.1402 3.13893C14.0882 2.72093 15.1302 2.72193 16.0762 3.13793L17.9242 3.95793C18.1222 4.04593 18.3292 4.04093 18.5062 3.94493L19.1712 3.59893C19.7192 3.32093 20.3482 3.34593 20.8662 3.66393C21.4202 4.00393 21.7502 4.60993 21.7502 5.28393L21.7422 16.7549C21.7422 19.4809 20.2132 21.1739 17.7512 21.1739H5.63615ZM7.46819 10.2772V17.8239C7.46819 18.8439 6.63619 19.6739 5.61319 19.6739C5.6066 19.6739 5.60004 19.674 5.59349 19.6742C5.10181 19.6693 4.64151 19.4799 4.302 19.1453C3.946 18.7873 3.75 18.3183 3.75 17.8243V10.5743C3.75 10.3533 3.879 10.2593 3.918 10.2353C4.02095 10.1706 4.10467 10.2126 4.13618 10.2284L4.138 10.2293L4.795 10.5713C5.376 10.8713 6.061 10.8933 6.689 10.6283L7.46819 10.2772Z" fill="black"/>
<path fill-rule="evenodd" clip-rule="evenodd" d="M16.9447 15.6235H12.4717C12.0577 15.6235 11.7217 15.2875 11.7217 14.8735C11.7217 14.4595 12.0577 14.1235 12.4717 14.1235H16.9447C17.3587 14.1235 17.6947 14.4595 17.6947 14.8735C17.6947 15.2875 17.3587 15.6235 16.9447 15.6235" fill="black"/>
<path fill-rule="evenodd" clip-rule="evenodd" d="M16.1615 12.7441C15.9695 12.7441 15.7775 12.6711 15.6315 12.5241L14.7295 11.6241L13.8275 12.5241C13.5355 12.8171 13.0595 12.8171 12.7665 12.5241C12.4735 12.2311 12.4735 11.7561 12.7675 11.4641L13.6675 10.5641L12.7675 9.66405C12.4735 9.37205 12.4735 8.89605 12.7665 8.60305C13.0595 8.31005 13.5355 8.31005 13.8275 8.60305L14.7295 9.50405L15.6315 8.60305C15.9235 8.31005 16.3995 8.31005 16.6925 8.60305C16.9845 8.89605 16.9845 9.37205 16.6915 9.66405L15.7905 10.5641L16.6915 11.4641C16.9845 11.7561 16.9845 12.2311 16.6925 12.5241C16.5455 12.6711 16.3535 12.7441 16.1615 12.7441" fill="black"/>
</svg>