<svg width="24" height="24" viewBox="0 0 24 24" fill="none" xmlns="http://www.w3.org/2000/svg">
<path d="M13.7614 20.9996C13.7673 20.9996 13.7711 20.9986 13.777 20.9986M13.7614 3C13.7673 3.00097 13.7711 3.00195 13.777 3.00195M13.7614 3H16.2169C19.165 3 21 5.08119 21 8.02735V12.0005M13.7614 3H7.78216C4.84281 3 3 5.08119 3 8.02735V15.9736C3 18.9188 4.83405 21 7.78216 21H16.2159C19.165 21 21 18.9188 21 15.9736V14.976" stroke="black" stroke-width="1.5" stroke-linecap="round" stroke-linejoin="round"/>
<path d="M10.2213 20.9991V17.8029C9.13543 17.8029 8.25586 16.9233 8.25586 15.8385C8.25586 14.7526 9.13543 13.873 10.2213 13.873C11.0103 13.873 11.6856 14.341 11.9989 15.0114C12.3112 14.341 12.9874 13.873 13.7765 13.873" stroke="black" stroke-width="1.5" stroke-linecap="round" stroke-linejoin="round"/>
<path d="M15.742 15.8384C15.742 16.9232 14.8614 17.8028 13.7766 17.8028C13.7707 17.8028 13.7668 17.8018 13.761 17.8018V21" stroke="black" stroke-width="1.5" stroke-linecap="round" stroke-linejoin="round"/>
<path d="M10.2212 10.128C11.0103 10.128 11.6855 9.66 11.9988 8.98962C12.3111 9.66 12.9874 10.128 13.7764 10.128C14.8613 10.128 15.7418 9.24843 15.7418 8.16259C15.7418 7.07676 14.8613 6.19816 13.7764 6.19816C13.7706 6.19816 13.7667 6.19914 13.7609 6.19914V3" stroke="black" stroke-width="1.5" stroke-linecap="round" stroke-linejoin="round"/>
<path d="M10.2213 3.00195V6.19817C9.13543 6.19817 8.25586 7.07676 8.25586 8.1626" stroke="black" stroke-width="1.5" stroke-linecap="round" stroke-linejoin="round"/>
</svg>