<svg width="24" height="24" viewBox="0 0 24 24" fill="none" xmlns="http://www.w3.org/2000/svg">
<path d="M16.7485 16.3642C17.4224 15.8799 17.7218 15.1714 17.9529 14.4186C18.1088 13.9122 18.1531 11.026 18.1637 9.92952C18.1714 9.17092 18.7885 8.5625 19.5471 8.5625C20.2999 8.5625 20.9151 9.16515 20.9295 9.91893C20.9533 11.1597 21.0422 12.5285 20.9761 13.8602" stroke="black" stroke-width="1.5" stroke-linecap="round" stroke-linejoin="round"/>
<path d="M20.5313 16.5508C19.9556 18.3087 18.7946 19.8422 17.21 20.8078" stroke="black" stroke-width="1.5" stroke-linecap="round" stroke-linejoin="round"/>
<path d="M13.5946 20.9054C13.585 19.6924 13.6235 16.7928 13.7968 15.8484C14.0856 14.26 15.6259 12.1247 18.1 12.8275" stroke="black" stroke-width="1.5" stroke-linecap="round" stroke-linejoin="round"/>
<path d="M7.25155 16.3642C6.57766 15.8799 6.27827 15.1714 6.04722 14.4186C5.89126 13.9122 5.84698 11.026 5.83639 9.92952C5.82869 9.17092 5.2116 8.5625 4.453 8.5625C3.70017 8.5625 3.08501 9.16515 3.07057 9.91893C3.04699 11.1501 2.95924 12.5074 3.0225 13.8293" stroke="black" stroke-width="1.5" stroke-linecap="round" stroke-linejoin="round"/>
<path d="M3.46777 16.5508C4.04346 18.3087 5.20447 19.8422 6.78906 20.8078" stroke="black" stroke-width="1.5" stroke-linecap="round" stroke-linejoin="round"/>
<path d="M10.4065 20.9054C10.4162 19.6924 10.3776 16.7928 10.2044 15.8484C9.91555 14.26 8.37524 12.1247 5.90112 12.8275" stroke="black" stroke-width="1.5" stroke-linecap="round" stroke-linejoin="round"/>
<path d="M12.8478 9.486H11.1515C10.8848 9.486 10.6682 9.26939 10.6682 9.00176V7.62415H9.28771C9.02105 7.62415 8.80444 7.40754 8.80444 7.13992V5.4398C8.80444 5.17314 9.02105 4.95557 9.28771 4.95557H10.6682" stroke="black" stroke-width="1.5" stroke-linecap="round" stroke-linejoin="round"/>
<path d="M11.1514 3.09375H12.8476C13.1153 3.09375 13.3319 3.31036 13.3319 3.57798V4.95463H14.7114C14.979 4.95463 15.1956 5.1722 15.1956 5.43887V7.13898C15.1956 7.40661 14.979 7.62322 14.7114 7.62322H13.3319" stroke="black" stroke-width="1.5" stroke-linecap="round" stroke-linejoin="round"/>
</svg>