<svg width="24" height="24" viewBox="0 0 24 24" fill="none" xmlns="http://www.w3.org/2000/svg">
<path d="M11.385 3H9.5623C8.94252 3 8.44046 3.50205 8.44046 4.12086V6.30811L6.83895 7.86C6.34565 8.33773 6.06738 8.99449 6.06738 9.68141V18.4644C6.06738 19.8645 7.20284 21 8.60295 21H15.3972C16.7973 21 17.9328 19.8645 17.9328 18.4644V9.68141C17.9328 8.99449 17.6545 8.33773 17.1612 7.86L15.5597 6.30811V4.12086C15.5597 3.50205 15.0577 3 14.4379 3H14.2461" stroke="black" stroke-width="1.5" stroke-linecap="round" stroke-linejoin="round"/>
<path d="M6.125 18.0117H15.3727" stroke="black" stroke-width="1.5" stroke-linecap="round" stroke-linejoin="round"/>
<path d="M12 10.6992V14.1708" stroke="black" stroke-width="1.5" stroke-linecap="round" stroke-linejoin="round"/>
<path d="M13.7352 12.4355H10.2637" stroke="black" stroke-width="1.5" stroke-linecap="round" stroke-linejoin="round"/>
<path d="M15.5586 6.30859H10.8008" stroke="black" stroke-width="1.5" stroke-linecap="round" stroke-linejoin="round"/>
</svg>