<svg width="24" height="24" viewBox="0 0 24 24" fill="none" xmlns="http://www.w3.org/2000/svg">
<path d="M20.9741 13.2291C20.9741 14.4912 19.9507 15.5147 18.6886 15.5147C17.4265 15.5147 16.4031 14.4912 16.4031 13.2291C16.4031 11.9671 17.4265 10.9446 18.6886 10.9446" stroke="black" stroke-width="1.5" stroke-linecap="round" stroke-linejoin="round"/>
<path d="M8.17432 14.6013V15.7431C8.17432 17.7125 9.25708 19.4289 10.8598 20.3294" stroke="black" stroke-width="1.5" stroke-linecap="round" stroke-linejoin="round"/>
<path d="M18.6866 15.5156V15.7436C18.6866 18.6471 16.3332 21.0005 13.4307 21.0005" stroke="black" stroke-width="1.5" stroke-linecap="round" stroke-linejoin="round"/>
<path d="M10.2118 3C11.9948 3.36572 13.3287 4.23298 13.3287 6.13436V9.39192C13.3287 12.2343 11.0257 14.547 8.18239 14.547C6.75636 14.547 5.46711 13.9717 4.53486 13.0395C3.6026 12.0975 3.02637 10.818 3.02637 9.39192V6.13436C3.02637 4.23298 4.34278 3.37445 6.13453 3.00873" stroke="black" stroke-width="1.5" stroke-linecap="round" stroke-linejoin="round"/>
</svg>