<svg width="24" height="24" viewBox="0 0 24 24" fill="none" xmlns="http://www.w3.org/2000/svg">
<path d="M8.98424 8.24756C6.43224 9.14256 4.59424 11.5766 4.59424 14.4386C4.59424 15.846 5.03621 17.1492 5.78903 18.217" stroke="black" stroke-width="1.5" stroke-linecap="round" stroke-linejoin="round"/>
<path d="M16.3799 18.4102C15.1869 19.9842 13.2909 20.9982 11.1549 20.9982C10.0079 20.9982 8.92992 20.7045 7.99219 20.1882" stroke="black" stroke-width="1.5" stroke-linecap="round" stroke-linejoin="round"/>
<path d="M16.9145 9.21484H12.9795C12.4785 9.21484 12.0835 9.63884 12.1195 10.1378L12.4395 14.5598C12.4725 15.0098 12.8475 15.3588 13.2985 15.3588H17.3245C17.7085 15.3588 18.0645 15.5578 18.2675 15.8838L19.4055 17.7198" stroke="black" stroke-width="1.5" stroke-linecap="round" stroke-linejoin="round"/>
<path d="M14.8281 9.21484L15.0946 12.9026" stroke="black" stroke-width="1.5" stroke-linecap="round" stroke-linejoin="round"/>
<path d="M11.1055 4.688C11.1055 5.617 11.8655 6.377 12.7945 6.377C13.7235 6.377 14.4835 5.617 14.4835 4.688C14.4835 3.759 13.7235 3 12.7945 3" stroke="black" stroke-width="1.5" stroke-linecap="round" stroke-linejoin="round"/>
</svg>