<svg width="24" height="24" viewBox="0 0 24 24" fill="none" xmlns="http://www.w3.org/2000/svg">
<path opacity="0.4" fill-rule="evenodd" clip-rule="evenodd" d="M12 2.5C6.762 2.5 2.5 6.761 2.5 12C2.5 17.238 6.762 21.5 12 21.5C17.239 21.5 21.5 17.238 21.5 12C21.5 6.761 17.239 2.5 12 2.5Z" fill="black"/>
<path d="M15.7149 12.4613L14.9369 12.1553C14.5299 11.9893 14.5149 11.8733 14.5039 11.7883C14.4879 11.6543 14.5209 11.6183 14.5779 11.5743C14.8879 11.3373 15.6659 11.3263 16.0629 11.4863C16.4469 11.6363 16.8829 11.4553 17.0389 11.0693C17.1929 10.6853 17.0059 10.2493 16.6219 10.0933C15.9159 9.81032 14.5339 9.71532 13.6629 10.3853C13.1659 10.7683 12.9369 11.3323 13.0159 11.9713C13.1486 13.0443 14.0638 13.4192 14.3763 13.5472L14.3789 13.5483L15.1559 13.8523C15.5639 14.0203 15.5769 14.1273 15.5879 14.2213C15.6049 14.3553 15.5719 14.3913 15.5149 14.4353C15.2049 14.6743 14.4279 14.6843 14.0299 14.5233C13.6469 14.3733 13.2089 14.5543 13.0539 14.9403C12.8999 15.3243 13.0859 15.7603 13.4709 15.9163C13.7859 16.0423 14.2359 16.1313 14.7149 16.1313C15.3089 16.1313 15.9479 15.9953 16.4299 15.6243C16.9259 15.2413 17.1559 14.6773 17.0769 14.0403C16.9472 12.9692 16.0311 12.5916 15.7165 12.462L15.7149 12.4613Z" fill="black"/>
<path fill-rule="evenodd" clip-rule="evenodd" d="M11.4169 12.8353C10.5339 13.5433 9.26794 13.5973 8.40894 13.5323V15.3803C8.40894 15.7943 8.07294 16.1303 7.65894 16.1303C7.24494 16.1303 6.90894 15.7943 6.90894 15.3803V8.78032C6.90894 8.43532 7.14394 8.13432 7.47894 8.05132C7.73694 7.98832 10.0389 7.46132 11.4159 8.53832C11.8519 8.87932 12.3719 9.52732 12.3719 10.6793C12.3719 11.8303 11.8529 12.4873 11.4169 12.8353ZM8.40863 9.40989C9.05563 9.33289 9.99063 9.32689 10.4916 9.71889C10.6546 9.84689 10.8716 10.0849 10.8716 10.6799C10.8716 11.2809 10.6486 11.5289 10.4816 11.6629C9.98463 12.0629 9.05863 12.0799 8.40863 12.0239V9.40989Z" fill="black"/>
</svg>