<svg width="24" height="24" viewBox="0 0 24 24" fill="none" xmlns="http://www.w3.org/2000/svg">
<path opacity="0.4" fill-rule="evenodd" clip-rule="evenodd" d="M16.216 2.5H7.782C4.622 2.5 2.5 4.723 2.5 8.03V15.97C2.5 19.277 4.622 21.5 7.782 21.5H16.215C19.376 21.5 21.5 19.277 21.5 15.97V8.03C21.5 4.723 19.377 2.5 16.216 2.5Z" fill="black"/>
<path fill-rule="evenodd" clip-rule="evenodd" d="M16.7099 16.9537C16.0779 17.5577 15.3799 17.7778 14.7339 17.7778C14.0099 17.7778 13.3509 17.4997 12.9219 17.1687C12.6049 16.9787 12.2789 16.7117 11.9999 16.4567C11.7199 16.7127 11.3939 16.9787 11.0779 17.1687C10.2669 17.7957 8.63094 18.2308 7.28694 16.9508C6.70994 16.4068 5.88394 15.1957 6.86094 13.2277C7.11094 12.7307 9.76394 7.59475 9.76394 7.59475C10.2019 6.74575 11.0589 6.21875 12.0009 6.21875C12.9409 6.21875 13.7979 6.74575 14.2359 7.59475C14.2359 7.59475 16.8899 12.7308 17.1259 13.2028C18.1159 15.1958 17.2899 16.4067 16.7099 16.9537ZM11.0969 8.28197C11.4559 7.58797 12.5439 7.58497 12.9029 8.28297C12.9029 8.28297 15.5489 13.405 15.7959 13.896C16.2189 14.748 16.1809 15.39 15.6779 15.865C14.7739 16.727 13.8299 15.974 13.8209 15.968C13.7889 15.941 13.7559 15.919 13.7199 15.898C13.5399 15.795 13.3069 15.615 13.0539 15.388C13.6549 14.744 14.2789 13.952 14.2789 12.888C14.2789 11.632 13.2569 10.609 12.0009 10.609C10.7439 10.609 9.72091 11.632 9.72091 12.888C9.72091 13.952 10.3439 14.744 10.9459 15.388C10.6929 15.616 10.4599 15.795 10.2799 15.898C10.2449 15.919 10.2109 15.941 10.1789 15.968C10.1709 15.975 9.22691 16.728 8.31991 15.862C7.81891 15.39 7.78091 14.748 8.21491 13.876C8.45091 13.405 11.0969 8.28197 11.0969 8.28197ZM11.2204 12.8881C11.2204 12.4591 11.5704 12.1091 12.0004 12.1091C12.4294 12.1091 12.7794 12.4591 12.7794 12.8881C12.7794 13.3931 12.4194 13.8651 12.0004 14.3191C11.5804 13.8651 11.2204 13.3931 11.2204 12.8881Z" fill="black"/>
</svg>