<svg width="24" height="24" viewBox="0 0 24 24" fill="none" xmlns="http://www.w3.org/2000/svg">
<path opacity="0.4" fill-rule="evenodd" clip-rule="evenodd" d="M16.217 2.5H7.782C4.622 2.5 2.5 4.723 2.5 8.03V15.97C2.5 19.277 4.622 21.5 7.782 21.5H16.216C19.376 21.5 21.5 19.277 21.5 15.97V8.03C21.5 4.723 19.377 2.5 16.217 2.5Z" fill="black"/>
<path fill-rule="evenodd" clip-rule="evenodd" d="M17.4059 14.9997C17.4059 15.7607 16.7849 16.3797 16.0219 16.3797H7.97995C7.21695 16.3797 6.59595 15.7607 6.59595 14.9997V14.0897C6.59595 12.4607 7.32495 11.0017 8.46995 10.0107L7.65895 8.78273C7.43095 8.43773 7.52595 7.97273 7.87095 7.74373C8.21595 7.51573 8.68195 7.60873 8.91095 7.95673L9.72895 9.19573C10.4209 8.87373 11.1889 8.68873 12.0009 8.68873C12.8029 8.68873 13.5619 8.86973 14.2469 9.18373L15.0989 7.94473C15.3329 7.60273 15.8019 7.51873 16.1419 7.75173C16.4829 7.98673 16.5689 8.45373 16.3339 8.79473L15.5109 9.99073C16.6689 10.9827 17.4059 12.4507 17.4059 14.0897V14.9997ZM8.09565 14.0892C8.09565 11.9392 9.84765 10.1892 12.0006 10.1892C14.1537 10.1892 15.9056 11.9392 15.9056 14.0892V14.8792H8.09565V14.0892Z" fill="black"/>
<path d="M14.4436 13.1492C14.4436 13.5632 14.1076 13.8992 13.6936 13.8992C13.2796 13.8992 12.9436 13.5632 12.9436 13.1492C12.9436 12.7352 13.2796 12.3942 13.6936 12.3942C14.1076 12.3942 14.4436 12.7252 14.4436 13.1392V13.1492Z" fill="black"/>
<path d="M11.0387 13.1492C11.0387 13.5632 10.7027 13.8992 10.2887 13.8992C9.87465 13.8992 9.53865 13.5632 9.53865 13.1492C9.53865 12.7352 9.87465 12.3942 10.2887 12.3942C10.7027 12.3942 11.0387 12.7252 11.0387 13.1392V13.1492Z" fill="black"/>
</svg>