<svg width="24" height="24" viewBox="0 0 24 24" fill="none" xmlns="http://www.w3.org/2000/svg">
<path opacity="0.4" fill-rule="evenodd" clip-rule="evenodd" d="M16.217 2.5H7.782C4.623 2.5 2.5 4.723 2.5 8.031V15.97C2.5 19.278 4.623 21.5 7.782 21.5H16.216C19.376 21.5 21.5 19.278 21.5 15.97V8.031C21.5 4.723 19.377 2.5 16.217 2.5Z" fill="black"/>
<path d="M16.173 14.8493H16.865C17.279 14.8493 17.615 14.5133 17.615 14.0993C17.615 13.6853 17.279 13.3493 16.865 13.3493H15.312L13.787 10.6953C13.581 10.3363 13.123 10.2113 12.762 10.4183C12.404 10.6243 12.28 11.0833 12.486 11.4433L15.675 16.9943C15.813 17.2353 16.066 17.3703 16.326 17.3703C16.452 17.3703 16.581 17.3373 16.699 17.2703C17.057 17.0643 17.181 16.6053 16.975 16.2453L16.173 14.8493Z" fill="black"/>
<path d="M7.13501 14.8493H12.601C13.015 14.8493 13.351 14.5133 13.351 14.0993C13.351 13.6853 13.015 13.3493 12.601 13.3493H10.419L13.632 7.75234C13.838 7.39334 13.714 6.93534 13.354 6.72934C12.996 6.52334 12.537 6.64734 12.331 7.00634L12 7.58234L11.67 7.00634C11.464 6.64734 11.006 6.52134 10.646 6.72934C10.287 6.93534 10.163 7.39334 10.369 7.75234L11.135 9.08934L8.69001 13.3493H7.13501C6.72001 13.3493 6.38501 13.6853 6.38501 14.0993C6.38501 14.5133 6.72001 14.8493 7.13501 14.8493Z" fill="black"/>
<path d="M8.32401 16.9953L8.63601 16.4553C8.84401 16.0973 8.72101 15.6383 8.36301 15.4303C8.00501 15.2233 7.54601 15.3463 7.33801 15.7033L7.02501 16.2443C6.81801 16.6023 6.94001 17.0613 7.29901 17.2693C7.41701 17.3373 7.54701 17.3703 7.67401 17.3703C7.93201 17.3703 8.18401 17.2363 8.32401 16.9953Z" fill="black"/>
</svg>