<svg width="24" height="24" viewBox="0 0 24 24" fill="none" xmlns="http://www.w3.org/2000/svg">
<path opacity="0.4" fill-rule="evenodd" clip-rule="evenodd" d="M16.217 2.5H7.782C4.623 2.5 2.5 4.722 2.5 8.03V15.969C2.5 19.277 4.623 21.5 7.782 21.5H16.216C19.376 21.5 21.5 19.277 21.5 15.969V8.03C21.5 4.722 19.377 2.5 16.217 2.5Z" fill="black"/>
<path d="M12.6082 6.41746L11.9802 7.24746C11.7302 7.57746 11.7952 8.04746 12.1252 8.29646C12.2612 8.39946 12.4202 8.44946 12.5782 8.44946C12.8052 8.44946 13.0292 8.34646 13.1762 8.15146L13.8042 7.32146C14.0542 6.99146 13.9892 6.52046 13.6592 6.27146C13.3282 6.02146 12.8572 6.08546 12.6082 6.41746Z" fill="black"/>
<path fill-rule="evenodd" clip-rule="evenodd" d="M16.6662 14.9815C16.3852 15.7465 15.9722 16.4415 15.4362 17.0525C14.8582 17.8925 13.6292 18.1485 12.6892 17.5665C12.3842 17.4285 11.9422 17.4325 11.5742 17.6255C11.2802 17.8045 10.9472 17.8915 10.6142 17.8915C10.0282 17.8915 9.43823 17.6225 9.05123 17.1125C8.45823 16.4875 7.97423 15.7005 7.66423 14.8315C7.39223 14.1425 7.24923 13.3945 7.24523 12.6315C7.19223 11.8585 7.40623 11.0225 7.85123 10.3235C8.67623 8.95946 10.4262 8.47446 11.8392 9.21446C11.9802 9.28646 12.1602 9.28946 12.3082 9.21546C12.6662 9.05046 13.0292 8.94046 13.4072 8.87846C14.4562 8.68346 15.5482 9.08046 16.2452 9.91946C16.4642 10.1565 16.4992 10.4245 16.4832 10.6025C16.4612 10.8635 16.3262 11.0925 16.0812 11.2825C15.5912 11.6275 15.3732 12.1975 15.4992 12.7525C15.5812 13.1755 15.8302 13.5155 16.1882 13.7105C16.7372 14.0425 16.8702 14.4175 16.6662 14.9815ZM14.6789 10.5345C14.0759 11.2205 13.8259 12.1585 14.0309 13.0615C14.1659 13.7565 14.5479 14.3675 15.1209 14.8005C14.9139 15.2605 14.6329 15.6955 14.2569 16.1305C14.0809 16.3805 13.7389 16.4535 13.4049 16.2505C12.6069 15.8735 11.6639 15.8875 10.8379 16.3185C10.6409 16.4405 10.3859 16.3895 10.1949 16.1445C9.69294 15.6115 9.31694 14.9995 9.06794 14.3045C8.85694 13.7665 8.74794 13.2025 8.74394 12.5795C8.70994 12.0725 8.84394 11.5555 9.11994 11.1235C9.12194 11.1205 9.12369 11.1175 9.12544 11.1145C9.12719 11.1115 9.12894 11.1085 9.13094 11.1055C9.41294 10.6345 9.91394 10.3705 10.4339 10.3705C10.6759 10.3705 10.9229 10.4275 11.1539 10.5485C11.7249 10.8345 12.4039 10.8405 12.9529 10.5695C13.1699 10.4695 13.4039 10.3995 13.6649 10.3565C14.0139 10.2915 14.3689 10.3555 14.6789 10.5345Z" fill="black"/>
</svg>