<svg width="24" height="24" viewBox="0 0 24 24" fill="none" xmlns="http://www.w3.org/2000/svg">
<path opacity="0.4" d="M2.5 12C2.5 6.762 6.762 2.5 12 2.5C17.238 2.5 21.5 6.762 21.5 12C21.5 17.238 17.238 21.5 12 21.5C11.94 21.5 11.9264 21.5071 11.5 21.5C11.0736 21.4929 10.323 21.343 10.323 21.343C5.883 20.547 2.5 16.665 2.5 12Z" fill="black"/>
<path d="M11.8229 21.5041C11.755 21.5043 11.6546 21.5036 11.5 21.501C11.0736 21.4939 10.323 21.344 10.323 21.344C10.323 21.344 10.323 21.344 10.323 21.344L10.3229 14.9652H9.22095C8.80695 14.9652 8.47095 14.6292 8.47095 14.2152C8.47095 13.8012 8.80695 13.4652 9.22095 13.4652H10.3229V12.3142C10.3229 10.3892 11.8849 8.82422 13.8049 8.82422H14.7779C15.1919 8.82422 15.5279 9.16022 15.5279 9.57422C15.5279 9.98822 15.1919 10.3242 14.7779 10.3242H13.8049C12.7119 10.3242 11.8229 11.2172 11.8229 12.3142V13.4652H14.3159C14.7299 13.4652 15.0659 13.8012 15.0659 14.2152C15.0659 14.6292 14.7299 14.9652 14.3159 14.9652H11.8229V21.5041Z" fill="black"/>
</svg>