<svg width="24" height="24" viewBox="0 0 24 24" fill="none" xmlns="http://www.w3.org/2000/svg">
<path opacity="0.4" fill-rule="evenodd" clip-rule="evenodd" d="M12 2.5C6.762 2.5 2.5 6.762 2.5 12C2.5 17.239 6.762 21.5 12 21.5C17.239 21.5 21.5 17.239 21.5 12C21.5 6.762 17.239 2.5 12 2.5Z" fill="black"/>
<path fill-rule="evenodd" clip-rule="evenodd" d="M13.7222 14.4701C13.3772 14.4701 13.0482 14.3981 12.7492 14.2691V15.4401C12.7492 16.8081 11.6412 17.9201 10.2782 17.9201C8.91418 17.9201 7.80518 16.8081 7.80518 15.4401C7.80518 14.7711 8.07518 14.1651 8.50918 13.7201C8.07518 13.2751 7.80518 12.6691 7.80518 12.0001C7.80518 11.3311 8.07518 10.7241 8.51018 10.2791C8.07518 9.83208 7.80518 9.22308 7.80518 8.55008C7.80518 7.18908 8.91418 6.08008 10.2782 6.08008H13.7212C15.0842 6.08008 16.1942 7.18908 16.1942 8.55008C16.1942 9.22308 15.9232 9.83108 15.4892 10.2781C15.9242 10.7241 16.1952 11.3311 16.1952 12.0001C16.1952 13.3621 15.0852 14.4701 13.7222 14.4701ZM10.2781 16.4198C9.74211 16.4198 9.30511 15.9808 9.30511 15.4398C9.30511 14.9048 9.74211 14.4698 10.2781 14.4698H11.2491V15.4398C11.2491 15.9808 10.8141 16.4198 10.2781 16.4198ZM11.2489 9.53064H10.2779C9.74186 9.53064 9.30486 9.09164 9.30486 8.55064C9.30486 8.01464 9.74186 7.58064 10.2779 7.58064H11.2489V9.53064ZM9.30486 12.0006C9.30486 11.4656 9.74186 11.0306 10.2779 11.0306H11.2489V12.9696H10.2779C9.74186 12.9696 9.30486 12.5356 9.30486 12.0006ZM13.7215 9.53064H12.7485V7.58064H13.7215C14.2575 7.58064 14.6935 8.01464 14.6935 8.55064C14.6935 9.09164 14.2575 9.53064 13.7215 9.53064ZM12.7502 12.0006C12.7502 11.4656 13.1862 11.0306 13.7222 11.0306C14.2582 11.0306 14.6952 11.4656 14.6952 12.0006C14.6952 12.5356 14.2582 12.9696 13.7222 12.9696C13.1862 12.9696 12.7502 12.5356 12.7502 12.0006Z" fill="black"/>
</svg>