<svg width="24" height="24" viewBox="0 0 24 24" fill="none" xmlns="http://www.w3.org/2000/svg">
<path opacity="0.4" fill-rule="evenodd" clip-rule="evenodd" d="M12 2.25C6.62 2.25 2.25 6.63 2.25 12C2.25 17.38 6.62 21.75 12 21.75C17.38 21.75 21.75 17.38 21.75 12C21.75 6.63 17.38 2.25 12 2.25Z" fill="black"/>
<path d="M14.897 16.5436C14.922 16.2226 14.887 15.9026 14.797 15.5986C16.14 15.2597 17.953 14.2866 17.953 11.1496C17.953 10.3276 17.69 9.54165 17.205 8.89465C17.378 8.15865 17.312 7.38565 17.01 6.68065C16.922 6.47465 16.747 6.31965 16.532 6.25565C16.314 6.19265 15.511 6.06765 14.017 6.99365C12.826 6.71965 11.588 6.71965 10.396 6.99365C8.90296 6.06765 8.09996 6.18965 7.88096 6.25565C7.66596 6.31965 7.48996 6.47465 7.40196 6.68065C7.10096 7.38565 7.03496 8.15765 7.20796 8.89565C6.71796 9.54965 6.45496 10.3427 6.45996 11.1677C6.45996 14.2667 8.27596 15.2507 9.61596 15.6037C9.53796 15.8596 9.50096 16.1216 9.50796 16.3806C8.59496 16.5246 8.28896 16.1386 7.85996 15.5946L7.85731 15.5913C7.53996 15.1891 7.18023 14.7332 6.55796 14.5777C6.15596 14.4747 5.74896 14.7226 5.64896 15.1236C5.54796 15.5257 5.79296 15.9326 6.19496 16.0336C6.32096 16.0646 6.50496 16.2976 6.68196 16.5236L6.68301 16.525C7.11403 17.071 7.77209 17.9046 9.15596 17.9046C9.53796 17.9046 9.97496 17.8406 10.478 17.6906C10.796 17.5947 11.013 17.3027 11.013 16.9717L11.011 16.4326C10.989 16.1186 11.104 15.8046 11.326 15.5736C11.523 15.3686 11.587 15.0706 11.491 14.8026C11.397 14.5356 11.159 14.3446 10.878 14.3096C9.12596 14.0916 7.95996 13.4736 7.95996 11.1636C7.95596 10.5736 8.17796 10.0126 8.58496 9.58565C8.78296 9.37765 8.84496 9.07665 8.74496 8.80765C8.62296 8.47865 8.58696 8.13065 8.63496 7.79165C8.89996 7.87765 9.29896 8.05565 9.84496 8.42265C10.027 8.54465 10.251 8.58065 10.462 8.52365C11.604 8.20865 12.81 8.20865 13.951 8.52365C14.162 8.58065 14.386 8.54465 14.567 8.42265C15.12 8.05165 15.522 7.87365 15.777 7.78665C15.827 8.12665 15.791 8.47665 15.668 8.80665C15.567 9.07565 15.63 9.37865 15.828 9.58665C16.231 10.0086 16.453 10.5636 16.453 11.1496C16.453 13.4896 15.291 14.0967 13.546 14.2896C13.262 14.3216 13.021 14.5106 12.923 14.7786C12.825 15.0466 12.888 15.3466 13.085 15.5526C13.315 15.7926 13.427 16.1037 13.4 16.4857V17.0447C13.4 17.4586 13.735 17.7947 14.15 17.7947C14.564 17.7947 14.9 17.4586 14.9 17.0447L14.897 16.5436Z" fill="black"/>
</svg>