<svg width="24" height="24" viewBox="0 0 24 24" fill="none" xmlns="http://www.w3.org/2000/svg">
<path opacity="0.4" fill-rule="evenodd" clip-rule="evenodd" d="M12 4.08008C6.762 4.08008 2.5 7.63308 2.5 12.0001C2.5 16.3671 6.762 19.9201 12 19.9201C17.239 19.9201 21.5 16.3671 21.5 12.0001C21.5 7.63308 17.239 4.08008 12 4.08008Z" fill="black"/>
<path d="M13.1538 13.8007C13.1958 13.8077 13.2368 13.8107 13.2778 13.8107C13.6378 13.8107 13.9558 13.5508 14.0168 13.1838L14.3538 11.1528C14.4308 10.6868 14.2998 10.2128 13.9948 9.85475C13.6908 9.49575 13.2468 9.29075 12.7768 9.29075H12.2958L12.4088 8.60275C12.4768 8.19475 12.1998 7.80775 11.7908 7.73975C11.3848 7.66775 10.9958 7.94975 10.9298 8.35875L10.6698 9.92675L10.1728 12.9387C10.1048 13.3467 10.3818 13.7337 10.7898 13.8007C11.1918 13.8687 11.5848 13.5907 11.6518 13.1827L12.0478 10.7908H12.7768L12.8738 10.9077L12.5368 12.9378C12.4698 13.3468 12.7458 13.7327 13.1538 13.8007Z" fill="black"/>
<path fill-rule="evenodd" clip-rule="evenodd" d="M18.9318 11.8007C18.7398 12.7247 18.0278 13.5017 17.1608 13.7357C16.8428 13.8227 16.3858 13.8237 15.8568 13.7967L15.7148 14.6537C15.6548 15.0207 15.3368 15.2807 14.9758 15.2807C14.9358 15.2807 14.8938 15.2787 14.8528 15.2717C14.4448 15.2037 14.1678 14.8177 14.2358 14.4087L14.9928 9.82875C15.0518 9.46675 15.3648 9.20075 15.7318 9.20075L16.0868 9.19775C16.3488 9.19575 16.5908 9.19675 16.6878 9.20375C17.1638 9.18775 17.7028 9.25775 18.2038 9.67275C18.8288 10.1707 19.1048 10.9687 18.9318 11.8007ZM16.3691 10.696C16.4611 10.694 16.5511 10.696 16.6261 10.701C16.9761 10.701 17.1331 10.733 17.2591 10.838C17.5011 11.03 17.5031 11.302 17.4631 11.496C17.3851 11.873 17.1001 12.198 16.7651 12.288C16.6521 12.316 16.3741 12.316 16.1031 12.305L16.3691 10.696Z" fill="black"/>
<path fill-rule="evenodd" clip-rule="evenodd" d="M8.37179 13.7357C8.05479 13.8217 7.59679 13.8237 7.06779 13.7967L6.92579 14.6537C6.86579 15.0207 6.54779 15.2807 6.18679 15.2807C6.14679 15.2807 6.10479 15.2787 6.06379 15.2717C5.65579 15.2037 5.37879 14.8177 5.44679 14.4087L6.20279 9.82875C6.26279 9.46675 6.57579 9.20075 6.94279 9.20075L7.29779 9.19775C7.55879 9.19575 7.80179 9.19675 7.89879 9.20375C8.34779 9.18975 8.91379 9.25775 9.41479 9.67375C10.0388 10.1697 10.3158 10.9687 10.1428 11.8007C9.95079 12.7247 9.23879 13.5017 8.37179 13.7357ZM7.58012 10.696C7.67012 10.694 7.76212 10.696 7.83712 10.701C8.18612 10.701 8.34312 10.733 8.46912 10.838C8.71112 11.03 8.71412 11.302 8.67412 11.496C8.59512 11.873 8.31112 12.198 7.97612 12.288C7.86312 12.317 7.58412 12.315 7.31412 12.305L7.58012 10.696Z" fill="black"/>
</svg>